<svg xmlns:xlink="http://www.w3.org/1999/xlink" width="909.292" height="431.485" viewBox="0 0 681.969 323.614" xmlns="http://www.w3.org/2000/svg"><defs><style>*{stroke-linejoin:round;stroke-linecap:butt}</style></defs><g id="figure_1"><path d="M0 323.614h681.97V0H0v323.614z" style="fill:none" id="patch_1"/><g id="axes_1"><path d="M98.073 280.087h357.12V13.975H98.073v266.112z" style="fill:none" id="patch_2"/><g id="matplotlib.axis_1"><g id="xtick_1"><g id="line2d_1"><defs><path id="me1895bb5e6" d="M0 0v3.5" style="stroke:#b0b0b0;stroke-width:.4"/></defs><use xlink:href="#me1895bb5e6" x="129.339" y="280.087" style="fill:#b0b0b0;stroke:#b0b0b0;stroke-width:.4"/></g><g style="fill:#b0b0b0" transform="matrix(.14 0 0 -.14 111.524 297.724)" id="text_1"><defs><path id="DejaVuSans-32" d="M1228 531h2203V0H469v531q359 372 979 998 621 627 780 809 303 340 423 576 121 236 121 464 0 372-261 606-261 235-680 235-297 0-627-103-329-103-704-313v638q381 153 712 231 332 78 607 78 725 0 1156-363 431-362 431-968 0-288-108-546-107-257-392-607-78-91-497-524-418-433-1181-1211z" transform="scale(.01563)"/><path id="DejaVuSans-30" d="M2034 4250q-487 0-733-480-245-479-245-1442 0-959 245-1439 246-480 733-480 491 0 736 480 246 480 246 1439 0 963-246 1442-245 480-736 480zm0 500q785 0 1199-621 414-620 414-1801 0-1178-414-1799Q2819-91 2034-91q-784 0-1198 620-414 621-414 1799 0 1181 414 1801 414 621 1198 621z" transform="scale(.01563)"/><path id="DejaVuSans-31" d="M794 531h1031v3560L703 3866v575l1116 225h631V531h1031V0H794v531z" transform="scale(.01563)"/></defs><use xlink:href="#DejaVuSans-32"/><use xlink:href="#DejaVuSans-30" x="63.623"/><use xlink:href="#DejaVuSans-31" x="127.246"/><use xlink:href="#DejaVuSans-32" x="190.869"/></g></g><g id="xtick_2"><use xlink:href="#me1895bb5e6" x="191.957" y="280.087" style="fill:#b0b0b0;stroke:#b0b0b0;stroke-width:.4" id="line2d_2"/><g style="fill:#b0b0b0" transform="matrix(.14 0 0 -.14 174.142 297.724)" id="text_2"><defs><path id="DejaVuSans-34" d="M2419 4116 825 1625h1594v2491zm-166 550h794V1625h666v-525h-666V0h-628v1100H313v609l1940 2957z" transform="scale(.01563)"/></defs><use xlink:href="#DejaVuSans-32"/><use xlink:href="#DejaVuSans-30" x="63.623"/><use xlink:href="#DejaVuSans-31" x="127.246"/><use xlink:href="#DejaVuSans-34" x="190.869"/></g></g><g id="xtick_3"><use xlink:href="#me1895bb5e6" x="254.49" y="280.087" style="fill:#b0b0b0;stroke:#b0b0b0;stroke-width:.4" id="line2d_3"/><g style="fill:#b0b0b0" transform="matrix(.14 0 0 -.14 236.675 297.724)" id="text_3"><defs><path id="DejaVuSans-36" d="M2113 2584q-425 0-674-291-248-290-248-796 0-503 248-796 249-292 674-292t673 292q248 293 248 796 0 506-248 796-248 291-673 291zm1253 1979v-575q-238 112-480 171-242 60-480 60-625 0-955-422-329-422-376-1275 184 272 462 417 279 145 613 145 703 0 1111-427 408-426 408-1160 0-719-425-1154Q2819-91 2113-91q-810 0-1238 620-428 621-428 1799 0 1106 525 1764t1409 658q238 0 480-47t505-140z" transform="scale(.01563)"/></defs><use xlink:href="#DejaVuSans-32"/><use xlink:href="#DejaVuSans-30" x="63.623"/><use xlink:href="#DejaVuSans-31" x="127.246"/><use xlink:href="#DejaVuSans-36" x="190.869"/></g></g><g id="xtick_4"><use xlink:href="#me1895bb5e6" x="317.108" y="280.087" style="fill:#b0b0b0;stroke:#b0b0b0;stroke-width:.4" id="line2d_4"/><g style="fill:#b0b0b0" transform="matrix(.14 0 0 -.14 299.293 297.724)" id="text_4"><defs><path id="DejaVuSans-38" d="M2034 2216q-450 0-708-241-257-241-257-662 0-422 257-663 258-241 708-241t709 242q260 243 260 662 0 421-258 662-257 241-711 241zm-631 268q-406 100-633 378-226 279-226 679 0 559 398 884 399 325 1092 325 697 0 1094-325t397-884q0-400-227-679-226-278-629-378 456-106 710-416 255-309 255-755 0-679-414-1042Q2806-91 2034-91q-771 0-1186 362-414 363-414 1042 0 446 256 755 257 310 713 416zm-231 997q0-362 226-565 227-203 636-203 407 0 636 203 230 203 230 565 0 363-230 566-229 203-636 203-409 0-636-203-226-203-226-566z" transform="scale(.01563)"/></defs><use xlink:href="#DejaVuSans-32"/><use xlink:href="#DejaVuSans-30" x="63.623"/><use xlink:href="#DejaVuSans-31" x="127.246"/><use xlink:href="#DejaVuSans-38" x="190.869"/></g></g><g id="xtick_5"><use xlink:href="#me1895bb5e6" x="379.64" y="280.087" style="fill:#b0b0b0;stroke:#b0b0b0;stroke-width:.4" id="line2d_5"/><g style="fill:#b0b0b0" transform="matrix(.14 0 0 -.14 361.825 297.724)" id="text_5"><use xlink:href="#DejaVuSans-32"/><use xlink:href="#DejaVuSans-30" x="63.623"/><use xlink:href="#DejaVuSans-32" x="127.246"/><use xlink:href="#DejaVuSans-30" x="190.869"/></g></g><g id="xtick_6"><use xlink:href="#me1895bb5e6" x="442.258" y="280.087" style="fill:#b0b0b0;stroke:#b0b0b0;stroke-width:.4" id="line2d_6"/><g style="fill:#b0b0b0" transform="matrix(.14 0 0 -.14 424.443 297.724)" id="text_6"><use xlink:href="#DejaVuSans-32"/><use xlink:href="#DejaVuSans-30" x="63.623"/><use xlink:href="#DejaVuSans-32" x="127.246"/><use xlink:href="#DejaVuSans-32" x="190.869"/></g></g></g><g id="matplotlib.axis_2"><g id="ytick_1"><path d="M98.073 280.087h357.12" clip-path="url(#p8630be7702)" style="fill:none;stroke:#b0b0b0;stroke-width:.3;stroke-linecap:square" id="line2d_7"/><g id="line2d_8"><defs><path id="mafa1c89f76" d="M0 0h-3.5" style="stroke:#b0b0b0;stroke-width:.3"/></defs><use xlink:href="#mafa1c89f76" x="98.073" y="280.087" style="fill:#b0b0b0;stroke:#b0b0b0;stroke-width:.3"/></g><use xlink:href="#DejaVuSans-30" style="fill:#b0b0b0" transform="matrix(.14 0 0 -.14 82.166 285.406)" id="text_7"/></g><g id="ytick_2"><path d="M98.073 221.973h357.12" clip-path="url(#p8630be7702)" style="fill:none;stroke:#b0b0b0;stroke-width:.3;stroke-linecap:square" id="line2d_9"/><use xlink:href="#mafa1c89f76" x="98.073" y="221.973" style="fill:#b0b0b0;stroke:#b0b0b0;stroke-width:.3" id="line2d_10"/><g style="fill:#b0b0b0" transform="matrix(.14 0 0 -.14 55.443 227.292)" id="text_8"><defs><path id="DejaVuSans-35" d="M691 4666h2478v-532H1269V2991q137 47 274 70 138 23 276 23 781 0 1237-428 457-428 457-1159 0-753-469-1171Q2575-91 1722-91q-294 0-599 50Q819 9 494 109v635q281-153 581-228t634-75q541 0 856 284 316 284 316 772 0 487-316 771-315 285-856 285-253 0-505-56-251-56-513-175v2344z" transform="scale(.01563)"/></defs><use xlink:href="#DejaVuSans-35"/><use xlink:href="#DejaVuSans-30" x="63.623"/><use xlink:href="#DejaVuSans-30" x="127.246"/><use xlink:href="#DejaVuSans-30" x="190.869"/></g></g><g id="ytick_3"><path d="M98.073 163.86h357.12" clip-path="url(#p8630be7702)" style="fill:none;stroke:#b0b0b0;stroke-width:.3;stroke-linecap:square" id="line2d_11"/><use xlink:href="#mafa1c89f76" x="98.073" y="163.86" style="fill:#b0b0b0;stroke:#b0b0b0;stroke-width:.3" id="line2d_12"/><g style="fill:#b0b0b0" transform="matrix(.14 0 0 -.14 46.536 169.18)" id="text_9"><use xlink:href="#DejaVuSans-31"/><use xlink:href="#DejaVuSans-30" x="63.623"/><use xlink:href="#DejaVuSans-30" x="127.246"/><use xlink:href="#DejaVuSans-30" x="190.869"/><use xlink:href="#DejaVuSans-30" x="254.492"/></g></g><g id="ytick_4"><path d="M98.073 105.747h357.12" clip-path="url(#p8630be7702)" style="fill:none;stroke:#b0b0b0;stroke-width:.3;stroke-linecap:square" id="line2d_13"/><use xlink:href="#mafa1c89f76" x="98.073" y="105.747" style="fill:#b0b0b0;stroke:#b0b0b0;stroke-width:.3" id="line2d_14"/><g style="fill:#b0b0b0" transform="matrix(.14 0 0 -.14 46.536 111.066)" id="text_10"><use xlink:href="#DejaVuSans-31"/><use xlink:href="#DejaVuSans-35" x="63.623"/><use xlink:href="#DejaVuSans-30" x="127.246"/><use xlink:href="#DejaVuSans-30" x="190.869"/><use xlink:href="#DejaVuSans-30" x="254.492"/></g></g><g id="ytick_5"><path d="M98.073 47.634h357.12" clip-path="url(#p8630be7702)" style="fill:none;stroke:#b0b0b0;stroke-width:.3;stroke-linecap:square" id="line2d_15"/><use xlink:href="#mafa1c89f76" x="98.073" y="47.634" style="fill:#b0b0b0;stroke:#b0b0b0;stroke-width:.3" id="line2d_16"/><g style="fill:#b0b0b0" transform="matrix(.14 0 0 -.14 46.536 52.953)" id="text_11"><use xlink:href="#DejaVuSans-32"/><use xlink:href="#DejaVuSans-30" x="63.623"/><use xlink:href="#DejaVuSans-30" x="127.246"/><use xlink:href="#DejaVuSans-30" x="190.869"/><use xlink:href="#DejaVuSans-30" x="254.492"/></g></g><g style="fill:#b0b0b0" transform="matrix(.14 0 0 -.14 7.2 18.111)" id="text_12"><defs><path id="DejaVuSans-47" d="M3809 666v1253H2778v519h1656V434q-365-259-806-392-440-133-940-133-1094 0-1712 639-617 640-617 1780 0 1144 617 1783 618 639 1712 639 456 0 867-113 411-112 758-331v-672q-350 297-744 447t-828 150q-857 0-1287-478-429-478-429-1425 0-944 429-1422 430-478 1287-478 334 0 596 58 263 58 472 180z" transform="scale(.01563)"/><path id="DejaVuSans-69" d="M603 3500h575V0H603v3500zm0 1363h575v-729H603v729z" transform="scale(.01563)"/><path id="DejaVuSans-74" d="M1172 4494v-994h1184v-447H1172V1153q0-428 117-550t477-122h590V0h-590q-666 0-919 248-253 249-253 905v1900H172v447h422v994h578z" transform="scale(.01563)"/><path id="DejaVuSans-48" d="M628 4666h631V2753h2294v1913h631V0h-631v2222H1259V0H628v4666z" transform="scale(.01563)"/><path id="DejaVuSans-75" d="M544 1381v2119h575V1403q0-497 193-746 194-248 582-248 465 0 735 297 271 297 271 810v1984h575V0h-575v538q-209-319-486-474-276-155-642-155-603 0-916 375-312 375-312 1097zm1447 2203z" transform="scale(.01563)"/><path id="DejaVuSans-62" d="M3116 1747q0 634-261 995t-717 361q-457 0-718-361t-261-995q0-634 261-995t718-361q456 0 717 361t261 995zM1159 2969q182 312 458 463 277 152 661 152 638 0 1036-506 399-506 399-1331T3314 415Q2916-91 2278-91q-384 0-661 152-276 152-458 464V0H581v4863h578V2969z" transform="scale(.01563)"/><path id="DejaVuSans-73" d="M2834 3397v-544q-243 125-506 187-262 63-544 63-428 0-642-131t-214-394q0-200 153-314t616-217l197-44q612-131 870-370t258-667q0-488-386-773Q2250-91 1575-91q-281 0-586 55T347 128v594q319-166 628-249 309-82 613-82 406 0 624 139 219 139 219 392 0 234-158 359-157 125-692 241l-200 47q-534 112-772 345-237 233-237 639 0 494 350 762 350 269 994 269 318 0 599-47 282-46 519-140z" transform="scale(.01563)"/><path id="DejaVuSans-61" d="M2194 1759q-697 0-966-159t-269-544q0-306 202-486 202-179 548-179 479 0 768 339t289 901v128h-572zm1147 238V0h-575v531q-197-318-491-470T1556-91q-537 0-855 302-317 302-317 808 0 590 395 890 396 300 1180 300h807v57q0 397-261 614t-733 217q-300 0-585-72-284-72-546-216v532q315 122 612 182 297 61 578 61 760 0 1135-394 375-393 375-1193z" transform="scale(.01563)"/><path id="DejaVuSans-72" d="M2631 2963q-97 56-211 82-114 27-251 27-488 0-749-317t-261-911V0H581v3500h578v-544q182 319 472 473 291 155 707 155 59 0 131-8 72-7 159-23l3-590z" transform="scale(.01563)"/></defs><use xlink:href="#DejaVuSans-47"/><use xlink:href="#DejaVuSans-69" x="77.49"/><use xlink:href="#DejaVuSans-74" x="105.273"/><use xlink:href="#DejaVuSans-48" x="144.482"/><use xlink:href="#DejaVuSans-75" x="219.678"/><use xlink:href="#DejaVuSans-62" x="283.057"/><use xlink:href="#DejaVuSans-20" x="346.533"/><use xlink:href="#DejaVuSans-73" x="378.32"/><use xlink:href="#DejaVuSans-74" x="430.42"/><use xlink:href="#DejaVuSans-61" x="469.629"/><use xlink:href="#DejaVuSans-72" x="530.908"/><use xlink:href="#DejaVuSans-73" x="572.021"/></g></g><path d="m186.732 280.087 2.57-.047 2.655-.023 2.656-.047 2.398-.046 2.656-.21 2.57-.08 2.655-.152 2.57-.081 2.655-.093 2.656-.163 2.57-.162 2.655-.198 2.57-.279 2.656-.163 2.655-.267 2.399-.105 2.655-.325 2.57-.21 2.655-.348 2.57-.081 2.656-.21 2.655-.36 2.57-.186 2.655-.197 2.57-.175 2.656-.209 2.655-.21 2.484-.092 2.656-.279 2.57-.198 2.655-.174 2.57-.163 2.656-.104 2.655-.117 2.57-.139 2.655-.093 2.57-.22 2.656-.117 2.655-.151 2.399-.116 2.655-.163 2.57-.151 2.655-.116 2.57-.163 2.656-.07 2.655-.14 2.57-.069 2.656-.151 2.57-.105 2.655-.14 2.655-.15 2.399-.163 2.655-.128 2.57-.058 2.656-.07 2.57-.186 2.655-.116 2.655-.093 2.57-.046 2.656-.117 2.57-.011 2.655-.093 2.656-.07 2.398-.105 2.656-.08 2.57-.07 2.655-.036 2.57-.023 2.655-.093 2.656-.07 2.57-.034 2.655-.093 2.57-.058 2.655-.047 2.656-.012 2.484-.034 2.655-.059 2.57-.058 2.656-.07 2.57-.046 2.655-.081 2.656-.058 2.57-.047 2.655-.035 2.57-.058 2.655-.046 2.656-.07 2.398-.07 2.656-.058 2.57-.081 2.655-.024 2.57-.023 2.655-.07 2.656-.034h2.57l2.655-.047 2.57-.07 2.655-.034 2.656-.024 2.398-.046 2.656-.082 2.57-.08 2.655-.07" clip-path="url(#p8630be7702)" style="fill:none;stroke:#ffbb78;stroke-width:1.5;stroke-linecap:square" id="line2d_17"/><path d="m202.237 280.087 2.655-.012 2.57-.012h5.311l2.57-.011h7.881l2.655-.012h2.399l2.655-.011 2.57-.012 2.655-.058 2.57-.023 2.656-.012 2.655-.012 2.57-.011h2.655l2.57-.024 2.656-.034 2.655-.035 2.484-.024 2.656-.011 2.57-.047 2.655-.034 2.57-.024 2.656-.058 2.655-.058 2.57-.105 2.655-.08 2.57-.07 2.656-.07 2.655-.07 2.399-.047 2.655-.07 2.57-.07 2.655-.069 2.57-.07 2.656-.08 2.655-.106 2.57-.07 2.656-.127 2.57-.105 2.655-.174 2.655-.14 2.399-.104 2.655-.081 2.57-.117 2.656-.325 2.57-.14 2.655-.116 2.655-.093 2.57-.163 2.656-.162 2.57-.093 2.655-.116 2.656-.105 2.398-.035 2.656-.105 2.57-.034 2.655-.047 2.57-.186 2.655-.093 2.656-.116 2.57-.163 2.655-.128 2.57-.127 2.655-.152 2.656-.127 2.484-.186 2.655-.035 2.57-.093 2.656-.128 2.57-.116 2.655-.151 2.656-.093 2.57-.163 2.655-.093 2.57-.151 2.655-.302 2.656-.21 2.398-.244 2.656-.279 2.57-.197 2.655-.29 2.57-.187 2.655-.209 2.656-.325 2.57-.175 2.655-.232 2.57-.267 2.655-.35 2.656-.394 2.398-.337 2.656-.71 2.57-.36 2.655-.523" clip-path="url(#p8630be7702)" style="fill:none;stroke:#aec7e8;stroke-width:1.5;stroke-linecap:square" id="line2d_18"/><path d="m322.162 280.087 2.655-.175 2.57-.476 2.656-.221 2.57-.279 2.655-.337 2.655-.21 2.57-.069 2.656-.244 2.57-.314 2.655-.232 2.656-.326 2.398-.22 2.656-.28 2.57-.29 2.655-.314 2.57-.197 2.655-.338 2.656-.232 2.57-.256 2.655-.232 2.57-.326 2.655-.383 2.656-.395 2.484-.465 2.655-.349 2.57-.383 2.656-.419 2.57-.232 2.655-.465 2.656-.349 2.57-.43 2.655-.325 2.57-.581 2.655-.407 2.656-.419 2.398-.441 2.656-.407 2.57-.36 2.655-.35 2.57-.452 2.655-.454 2.656-.441 2.57-.454 2.655-.325 2.57-.43 2.655-.465 2.656-.511 2.398-.337 2.656-.291 2.57-.442 2.655-.383" clip-path="url(#p8630be7702)" style="fill:none;stroke:#17becf;stroke-width:1.5;stroke-linecap:square" id="line2d_19"/><g style="fill:#1f77b4" transform="matrix(.14 0 0 -.14 465.907 17.838)" id="text_13"><defs><path id="DejaVuSans-67" d="M2906 1791q0 625-258 968-257 344-723 344-462 0-720-344-258-343-258-968 0-622 258-966t720-344q466 0 723 344 258 344 258 966zm575-1357q0-893-397-1329-396-436-1215-436-303 0-572 45t-522 139v559q253-137 500-202 247-66 503-66 566 0 847 295t281 892v285q-178-310-456-463T1784 0Q1141 0 747 490 353 981 353 1791q0 812 394 1302 394 491 1037 491 388 0 666-153t456-462v531h575V434z" transform="scale(.01563)"/><path id="DejaVuSans-6e" d="M3513 2113V0h-575v2094q0 497-194 743-194 247-581 247-466 0-735-297-269-296-269-809V0H581v3500h578v-544q207 316 486 472 280 156 646 156 603 0 912-373 310-373 310-1098z" transform="scale(.01563)"/><path id="DejaVuSans-6c" d="M603 4863h575V0H603v4863z" transform="scale(.01563)"/><path id="DejaVuSans-70" d="M1159 525v-1856H581v4831h578v-531q182 312 458 463 277 152 661 152 638 0 1036-506 399-506 399-1331T3314 415Q2916-91 2278-91q-384 0-661 152-276 152-458 464zm1957 1222q0 634-261 995t-717 361q-457 0-718-361t-261-995q0-634 261-995t718-361q456 0 717 361t261 995z" transform="scale(.01563)"/><path id="DejaVuSans-2f" d="M1625 4666h531L531-594H0l1625 5260z" transform="scale(.01563)"/><path id="DejaVuSans-53" d="M3425 4513v-616q-359 172-678 256-319 85-616 85-515 0-795-200t-280-569q0-310 186-468 186-157 705-254l381-78q706-135 1042-474t336-907q0-679-455-1029Q2797-91 1919-91q-331 0-705 75-373 75-773 222v650q384-215 753-325 369-109 725-109 540 0 834 212 294 213 294 607 0 343-211 537t-692 291l-385 75q-706 140-1022 440-315 300-315 835 0 619 436 975t1201 356q329 0 669-60 341-59 697-177z" transform="scale(.01563)"/><path id="DejaVuSans-2d" d="M313 2009h1684v-512H313v512z" transform="scale(.01563)"/><path id="DejaVuSans-41" d="m2188 4044-857-2322h1716l-859 2322zm-357 622h716L4325 0h-656l-425 1197H1141L716 0H50l1781 4666z" transform="scale(.01563)"/><path id="DejaVuSans-64" d="M2906 2969v1894h575V0h-575v525q-181-312-458-464-276-152-664-152-634 0-1033 506-398 507-398 1332t398 1331q399 506 1033 506 388 0 664-152 277-151 458-463zM947 1747q0-634 261-995t717-361q456 0 718 361 263 361 263 995t-263 995q-262 361-718 361t-717-361q-261-361-261-995z" transform="scale(.01563)"/><path id="DejaVuSans-6f" d="M1959 3097q-462 0-731-361t-269-989q0-628 267-989 268-361 733-361 460 0 728 362 269 363 269 988 0 622-269 986-268 364-728 364zm0 487q750 0 1178-488 429-487 429-1349 0-859-429-1349Q2709-91 1959-91q-753 0-1180 489-426 490-426 1349 0 862 426 1349 427 488 1180 488z" transform="scale(.01563)"/></defs><use xlink:href="#DejaVuSans-73"/><use xlink:href="#DejaVuSans-69" x="52.1"/><use xlink:href="#DejaVuSans-67" x="79.883"/><use xlink:href="#DejaVuSans-6e" x="143.359"/><use xlink:href="#DejaVuSans-61" x="206.738"/><use xlink:href="#DejaVuSans-6c" x="268.018"/><use xlink:href="#DejaVuSans-61" x="295.801"/><use xlink:href="#DejaVuSans-70" x="357.08"/><use xlink:href="#DejaVuSans-70" x="420.557"/><use xlink:href="#DejaVuSans-2f" x="484.033"/><use xlink:href="#DejaVuSans-53" x="517.725"/><use xlink:href="#DejaVuSans-69" x="581.201"/><use xlink:href="#DejaVuSans-67" x="608.984"/><use xlink:href="#DejaVuSans-6e" x="672.461"/><use xlink:href="#DejaVuSans-61" x="735.84"/><use xlink:href="#DejaVuSans-6c" x="797.119"/><use xlink:href="#DejaVuSans-2d" x="824.902"/><use xlink:href="#DejaVuSans-41" x="858.736"/><use xlink:href="#DejaVuSans-6e" x="927.145"/><use xlink:href="#DejaVuSans-64" x="990.523"/><use xlink:href="#DejaVuSans-72" x="1054"/><use xlink:href="#DejaVuSans-6f" x="1092.863"/><use xlink:href="#DejaVuSans-69" x="1154.045"/><use xlink:href="#DejaVuSans-64" x="1181.828"/></g><g style="fill:#ff7f0e" transform="matrix(.14 0 0 -.14 465.907 48.998)" id="text_14"><defs><path id="DejaVuSans-44" d="M1259 4147V519h763q966 0 1414 437 448 438 448 1382 0 937-448 1373t-1414 436h-763zm-631 519h1297q1356 0 1990-564 635-564 635-1764 0-1207-638-1773Q3275 0 1925 0H628v4666z" transform="scale(.01563)"/><path id="DejaVuSans-4b" d="M628 4666h631V2694l2094 1972h813L1850 2491 4331 0h-831L1259 2247V0H628v4666z" transform="scale(.01563)"/><path id="DejaVuSans-4c" d="M628 4666h631V531h2272V0H628v4666z" transform="scale(.01563)"/><path id="DejaVuSans-4f" d="M2522 4238q-688 0-1093-513-404-512-404-1397 0-881 404-1394 405-512 1093-512 687 0 1089 512 402 513 402 1394 0 885-402 1397-402 513-1089 513zm0 512q981 0 1568-658 588-658 588-1764 0-1103-588-1761Q3503-91 2522-91q-984 0-1574 656-589 657-589 1763t589 1764q590 658 1574 658z" transform="scale(.01563)"/><path id="DejaVuSans-54" d="M-19 4666h3947v-532H2272V0h-634v4134H-19v532z" transform="scale(.01563)"/><path id="DejaVuSans-65" d="M3597 1894v-281H953q38-594 358-905t892-311q331 0 642 81t618 244V178Q3153 47 2828-22t-659-69q-838 0-1327 487-489 488-489 1320 0 859 464 1363 464 505 1252 505 706 0 1117-455 411-454 411-1235zm-575 169q-6 471-264 752-258 282-683 282-481 0-770-272t-333-766l2050 4z" transform="scale(.01563)"/><path id="DejaVuSans-6d" d="M3328 2828q216 388 516 572t706 184q547 0 844-383 297-382 297-1088V0h-578v2094q0 503-179 746-178 244-543 244-447 0-707-297-259-296-259-809V0h-578v2094q0 506-178 748t-550 242q-441 0-701-298-259-298-259-808V0H581v3500h578v-544q197 322 472 475t653 153q382 0 649-194 267-193 395-562z" transform="scale(.01563)"/></defs><use xlink:href="#DejaVuSans-44"/><use xlink:href="#DejaVuSans-72" x="77.002"/><use xlink:href="#DejaVuSans-4b" x="118.115"/><use xlink:href="#DejaVuSans-4c" x="183.691"/><use xlink:href="#DejaVuSans-4f" x="235.779"/><use xlink:href="#DejaVuSans-2f" x="314.49"/><use xlink:href="#DejaVuSans-54" x="348.182"/><use xlink:href="#DejaVuSans-65" x="392.266"/><use xlink:href="#DejaVuSans-6c" x="453.789"/><use xlink:href="#DejaVuSans-65" x="481.572"/><use xlink:href="#DejaVuSans-67" x="543.096"/><use xlink:href="#DejaVuSans-72" x="606.572"/><use xlink:href="#DejaVuSans-61" x="647.686"/><use xlink:href="#DejaVuSans-6d" x="708.965"/></g><g style="fill:#2ca02c" transform="matrix(.14 0 0 -.14 465.907 185.051)" id="text_15"><defs><path id="DejaVuSans-7a" d="M353 3500h2731v-525L922 459h2162V0H275v525l2163 2516H353v459z" transform="scale(.01563)"/><path id="DejaVuSans-66" d="M2375 4863v-479h-550q-309 0-430-125-120-125-120-450v-309h947v-447h-947V0H697v3053H147v447h550v244q0 584 272 851 272 268 862 268h544z" transform="scale(.01563)"/><path id="DejaVuSans-78" d="M3513 3500 2247 1797 3578 0h-678L1881 1375 863 0H184l1360 1831L300 3500h678l928-1247 928 1247h679z" transform="scale(.01563)"/></defs><use xlink:href="#DejaVuSans-6d"/><use xlink:href="#DejaVuSans-6f" x="97.412"/><use xlink:href="#DejaVuSans-7a" x="158.594"/><use xlink:href="#DejaVuSans-69" x="211.084"/><use xlink:href="#DejaVuSans-6c" x="238.867"/><use xlink:href="#DejaVuSans-6c" x="266.65"/><use xlink:href="#DejaVuSans-61" x="294.434"/><use xlink:href="#DejaVuSans-2d" x="355.713"/><use xlink:href="#DejaVuSans-6d" x="391.797"/><use xlink:href="#DejaVuSans-6f" x="489.209"/><use xlink:href="#DejaVuSans-62" x="550.391"/><use xlink:href="#DejaVuSans-69" x="613.867"/><use xlink:href="#DejaVuSans-6c" x="641.65"/><use xlink:href="#DejaVuSans-65" x="669.434"/><use xlink:href="#DejaVuSans-2f" x="730.957"/><use xlink:href="#DejaVuSans-66" x="764.648"/><use xlink:href="#DejaVuSans-65" x="799.854"/><use xlink:href="#DejaVuSans-6e" x="861.377"/><use xlink:href="#DejaVuSans-69" x="924.756"/><use xlink:href="#DejaVuSans-78" x="952.539"/></g><g style="fill:#d62728" transform="matrix(.14 0 0 -.14 465.907 199.051)" id="text_16"><defs><path id="DejaVuSans-77" d="M269 3500h575l719-2731 715 2731h678l719-2731 716 2731h575L4050 0h-678l-753 2869L1863 0h-679L269 3500z" transform="scale(.01563)"/><path id="DejaVuSans-63" d="M3122 3366v-538q-244 135-489 202t-495 67q-560 0-870-355-309-354-309-995t309-996q310-354 870-354 250 0 495 67t489 202V134Q2881 22 2623-34q-257-57-548-57-791 0-1257 497-465 497-465 1341 0 856 470 1346 471 491 1290 491 265 0 518-55 253-54 491-163z" transform="scale(.01563)"/><path id="DejaVuSans-68" d="M3513 2113V0h-575v2094q0 497-194 743-194 247-581 247-466 0-735-297-269-296-269-809V0H581v4863h578V2956q207 316 486 472 280 156 646 156 603 0 912-373 310-373 310-1098z" transform="scale(.01563)"/></defs><use xlink:href="#DejaVuSans-4c"/><use xlink:href="#DejaVuSans-61" x="55.713"/><use xlink:href="#DejaVuSans-77" x="116.992"/><use xlink:href="#DejaVuSans-6e" x="198.779"/><use xlink:href="#DejaVuSans-63" x="262.158"/><use xlink:href="#DejaVuSans-68" x="317.139"/><use xlink:href="#DejaVuSans-61" x="380.518"/><use xlink:href="#DejaVuSans-69" x="441.797"/><use xlink:href="#DejaVuSans-72" x="469.58"/><use xlink:href="#DejaVuSans-4c" x="510.693"/><use xlink:href="#DejaVuSans-61" x="566.406"/><use xlink:href="#DejaVuSans-75" x="627.686"/><use xlink:href="#DejaVuSans-6e" x="691.064"/><use xlink:href="#DejaVuSans-63" x="754.443"/><use xlink:href="#DejaVuSans-68" x="809.424"/><use xlink:href="#DejaVuSans-65" x="872.803"/><use xlink:href="#DejaVuSans-72" x="934.326"/><use xlink:href="#DejaVuSans-2f" x="975.439"/><use xlink:href="#DejaVuSans-6c" x="1009.131"/><use xlink:href="#DejaVuSans-61" x="1036.914"/><use xlink:href="#DejaVuSans-77" x="1098.193"/><use xlink:href="#DejaVuSans-6e" x="1179.98"/><use xlink:href="#DejaVuSans-63" x="1243.359"/><use xlink:href="#DejaVuSans-68" x="1298.34"/><use xlink:href="#DejaVuSans-61" x="1361.719"/><use xlink:href="#DejaVuSans-69" x="1422.998"/><use xlink:href="#DejaVuSans-72" x="1450.781"/></g><g style="fill:#9467bd" transform="matrix(.14 0 0 -.14 465.907 213.051)" id="text_17"><defs><path id="DejaVuSans-71" d="M947 1747q0-634 261-995t717-361q456 0 718 361 263 361 263 995t-263 995q-262 361-718 361t-717-361q-261-361-261-995zM2906 525q-181-312-458-464-276-152-664-152-634 0-1033 506-398 507-398 1332t398 1331q399 506 1033 506 388 0 664-152 277-151 458-463v531h575v-4831h-575V525z" transform="scale(.01563)"/><path id="DejaVuSans-6b" d="M581 4863h578V1991l1716 1509h734L1753 1863 3688 0h-750L1159 1709V0H581v4863z" transform="scale(.01563)"/></defs><use xlink:href="#DejaVuSans-6d"/><use xlink:href="#DejaVuSans-6f" x="97.412"/><use xlink:href="#DejaVuSans-65" x="158.594"/><use xlink:href="#DejaVuSans-7a" x="220.117"/><use xlink:href="#DejaVuSans-62" x="272.607"/><use xlink:href="#DejaVuSans-68" x="336.084"/><use xlink:href="#DejaVuSans-61" x="399.463"/><use xlink:href="#DejaVuSans-74" x="460.742"/><use xlink:href="#DejaVuSans-74" x="499.951"/><use xlink:href="#DejaVuSans-69" x="539.16"/><use xlink:href="#DejaVuSans-2f" x="566.943"/><use xlink:href="#DejaVuSans-71" x="600.635"/><use xlink:href="#DejaVuSans-6b" x="664.111"/><use xlink:href="#DejaVuSans-73" x="722.021"/><use xlink:href="#DejaVuSans-6d" x="774.121"/><use xlink:href="#DejaVuSans-73" x="871.533"/></g><g style="fill:#8c564b" transform="matrix(.14 0 0 -.14 465.907 227.051)" id="text_18"><use xlink:href="#DejaVuSans-6f"/><use xlink:href="#DejaVuSans-73" x="61.182"/><use xlink:href="#DejaVuSans-6d" x="113.281"/><use xlink:href="#DejaVuSans-61" x="210.693"/><use xlink:href="#DejaVuSans-6e" x="271.973"/><use xlink:href="#DejaVuSans-64" x="335.352"/><use xlink:href="#DejaVuSans-61" x="398.828"/><use xlink:href="#DejaVuSans-70" x="460.107"/><use xlink:href="#DejaVuSans-70" x="523.584"/><use xlink:href="#DejaVuSans-2f" x="587.061"/><use xlink:href="#DejaVuSans-4f" x="620.752"/><use xlink:href="#DejaVuSans-73" x="699.463"/><use xlink:href="#DejaVuSans-6d" x="751.563"/><use xlink:href="#DejaVuSans-41" x="848.975"/><use xlink:href="#DejaVuSans-6e" x="917.383"/><use xlink:href="#DejaVuSans-64" x="980.762"/></g><g style="fill:#e377c2" transform="matrix(.14 0 0 -.14 465.907 241.051)" id="text_19"><use xlink:href="#DejaVuSans-77"/><use xlink:href="#DejaVuSans-61" x="81.787"/><use xlink:href="#DejaVuSans-74" x="143.066"/><use xlink:href="#DejaVuSans-61" x="182.275"/><use xlink:href="#DejaVuSans-62" x="243.555"/><use xlink:href="#DejaVuSans-6f" x="307.031"/><use xlink:href="#DejaVuSans-75" x="368.213"/><use xlink:href="#DejaVuSans-2f" x="431.592"/><use xlink:href="#DejaVuSans-70" x="465.283"/><use xlink:href="#DejaVuSans-69" x="528.76"/><use xlink:href="#DejaVuSans-78" x="556.543"/><use xlink:href="#DejaVuSans-65" x="612.598"/><use xlink:href="#DejaVuSans-6c" x="674.121"/><use xlink:href="#DejaVuSans-2d" x="701.904"/><use xlink:href="#DejaVuSans-64" x="737.988"/><use xlink:href="#DejaVuSans-75" x="801.465"/><use xlink:href="#DejaVuSans-6e" x="864.844"/><use xlink:href="#DejaVuSans-67" x="928.223"/><use xlink:href="#DejaVuSans-65" x="991.699"/><use xlink:href="#DejaVuSans-6f" x="1053.223"/><use xlink:href="#DejaVuSans-6e" x="1114.404"/></g><g style="fill:#7f7f7f" transform="matrix(.14 0 0 -.14 465.907 255.051)" id="text_20"><use xlink:href="#DejaVuSans-6e"/><use xlink:href="#DejaVuSans-65" x="63.379"/><use xlink:href="#DejaVuSans-78" x="123.152"/><use xlink:href="#DejaVuSans-74" x="182.332"/><use xlink:href="#DejaVuSans-63" x="221.541"/><use xlink:href="#DejaVuSans-6c" x="276.521"/><use xlink:href="#DejaVuSans-6f" x="304.305"/><use xlink:href="#DejaVuSans-75" x="365.486"/><use xlink:href="#DejaVuSans-64" x="428.865"/><use xlink:href="#DejaVuSans-2f" x="492.342"/><use xlink:href="#DejaVuSans-61" x="526.033"/><use xlink:href="#DejaVuSans-6e" x="587.313"/><use xlink:href="#DejaVuSans-64" x="650.691"/><use xlink:href="#DejaVuSans-72" x="714.168"/><use xlink:href="#DejaVuSans-6f" x="753.031"/><use xlink:href="#DejaVuSans-69" x="814.213"/><use xlink:href="#DejaVuSans-64" x="841.996"/></g><g style="fill:#bcbd22" transform="matrix(.14 0 0 -.14 465.907 269.051)" id="text_21"><defs><path id="DejaVuSans-50" d="M1259 4147V2394h794q441 0 681 228 241 228 241 650 0 419-241 647-240 228-681 228h-794zm-631 519h1425q785 0 1186-355 402-355 402-1039 0-691-402-1044-401-353-1186-353h-794V0H628v4666z" transform="scale(.01563)"/></defs><use xlink:href="#DejaVuSans-6b"/><use xlink:href="#DejaVuSans-61" x="56.16"/><use xlink:href="#DejaVuSans-62" x="117.439"/><use xlink:href="#DejaVuSans-6f" x="180.916"/><use xlink:href="#DejaVuSans-75" x="242.098"/><use xlink:href="#DejaVuSans-7a" x="305.477"/><use xlink:href="#DejaVuSans-65" x="357.967"/><use xlink:href="#DejaVuSans-69" x="419.49"/><use xlink:href="#DejaVuSans-64" x="447.273"/><use xlink:href="#DejaVuSans-2f" x="510.75"/><use xlink:href="#DejaVuSans-50" x="544.441"/><use xlink:href="#DejaVuSans-68" x="604.744"/><use xlink:href="#DejaVuSans-6f" x="668.123"/><use xlink:href="#DejaVuSans-6e" x="729.305"/><use xlink:href="#DejaVuSans-6f" x="792.684"/><use xlink:href="#DejaVuSans-67" x="853.865"/><use xlink:href="#DejaVuSans-72" x="917.342"/><use xlink:href="#DejaVuSans-61" x="958.455"/><use xlink:href="#DejaVuSans-70" x="1019.734"/><use xlink:href="#DejaVuSans-68" x="1083.211"/></g><g style="fill:#17becf" transform="matrix(.14 0 0 -.14 465.907 283.051)" id="text_22"><defs><path id="DejaVuSans-76" d="M191 3500h609L1894 563l1094 2937h609L2284 0h-781L191 3500z" transform="scale(.01563)"/></defs><use xlink:href="#DejaVuSans-76"/><use xlink:href="#DejaVuSans-69" x="59.18"/><use xlink:href="#DejaVuSans-64" x="86.963"/><use xlink:href="#DejaVuSans-65" x="150.439"/><use xlink:href="#DejaVuSans-6f" x="211.963"/><use xlink:href="#DejaVuSans-6c" x="273.145"/><use xlink:href="#DejaVuSans-61" x="300.928"/><use xlink:href="#DejaVuSans-6e" x="362.207"/><use xlink:href="#DejaVuSans-2f" x="425.586"/><use xlink:href="#DejaVuSans-76" x="459.277"/><use xlink:href="#DejaVuSans-6c" x="518.457"/><use xlink:href="#DejaVuSans-63" x="546.24"/><use xlink:href="#DejaVuSans-2d" x="601.221"/><use xlink:href="#DejaVuSans-61" x="637.305"/><use xlink:href="#DejaVuSans-6e" x="698.584"/><use xlink:href="#DejaVuSans-64" x="761.963"/><use xlink:href="#DejaVuSans-72" x="825.439"/><use xlink:href="#DejaVuSans-6f" x="864.303"/><use xlink:href="#DejaVuSans-69" x="925.484"/><use xlink:href="#DejaVuSans-64" x="953.268"/></g><g style="fill:#aec7e8" transform="matrix(.14 0 0 -.14 465.907 297.051)" id="text_23"><defs><path id="DejaVuSans-6a" d="M603 3500h575V-63q0-668-255-968-254-300-820-300h-219v487H38q328 0 446 152Q603-541 603-63v3563zm0 1363h575v-729H603v729z" transform="scale(.01563)"/></defs><use xlink:href="#DejaVuSans-67"/><use xlink:href="#DejaVuSans-75" x="63.477"/><use xlink:href="#DejaVuSans-61" x="126.855"/><use xlink:href="#DejaVuSans-72" x="188.135"/><use xlink:href="#DejaVuSans-64" x="227.498"/><use xlink:href="#DejaVuSans-69" x="290.975"/><use xlink:href="#DejaVuSans-61" x="318.758"/><use xlink:href="#DejaVuSans-6e" x="380.037"/><use xlink:href="#DejaVuSans-70" x="443.416"/><use xlink:href="#DejaVuSans-72" x="506.893"/><use xlink:href="#DejaVuSans-6f" x="545.756"/><use xlink:href="#DejaVuSans-6a" x="606.938"/><use xlink:href="#DejaVuSans-65" x="634.721"/><use xlink:href="#DejaVuSans-63" x="696.244"/><use xlink:href="#DejaVuSans-74" x="751.225"/><use xlink:href="#DejaVuSans-2f" x="790.434"/><use xlink:href="#DejaVuSans-6f" x="824.125"/><use xlink:href="#DejaVuSans-72" x="885.307"/><use xlink:href="#DejaVuSans-62" x="926.42"/><use xlink:href="#DejaVuSans-6f" x="989.896"/><use xlink:href="#DejaVuSans-74" x="1051.078"/></g><g style="fill:#ffbb78" transform="matrix(.14 0 0 -.14 465.907 311.051)" id="text_24"><defs><path id="DejaVuSans-43" d="M4122 4306v-665q-319 297-680 443-361 147-767 147-800 0-1225-489t-425-1414q0-922 425-1411t1225-489q406 0 767 147t680 444V359q-331-225-702-338-370-112-782-112-1060 0-1670 648-609 649-609 1771 0 1125 609 1773 610 649 1670 649 418 0 788-111 371-111 696-333z" transform="scale(.01563)"/></defs><use xlink:href="#DejaVuSans-61"/><use xlink:href="#DejaVuSans-6c" x="61.279"/><use xlink:href="#DejaVuSans-6d" x="89.063"/><use xlink:href="#DejaVuSans-61" x="186.475"/><use xlink:href="#DejaVuSans-6c" x="247.754"/><use xlink:href="#DejaVuSans-65" x="275.537"/><use xlink:href="#DejaVuSans-6e" x="337.061"/><use xlink:href="#DejaVuSans-63" x="400.439"/><use xlink:href="#DejaVuSans-65" x="455.42"/><use xlink:href="#DejaVuSans-2f" x="516.943"/><use xlink:href="#DejaVuSans-4f" x="550.635"/><use xlink:href="#DejaVuSans-70" x="629.346"/><use xlink:href="#DejaVuSans-65" x="692.822"/><use xlink:href="#DejaVuSans-6e" x="754.346"/><use xlink:href="#DejaVuSans-43" x="817.725"/><use xlink:href="#DejaVuSans-61" x="887.549"/><use xlink:href="#DejaVuSans-6d" x="948.828"/><use xlink:href="#DejaVuSans-65" x="1046.24"/><use xlink:href="#DejaVuSans-72" x="1107.764"/><use xlink:href="#DejaVuSans-61" x="1148.877"/></g><g style="fill:#b0b0b0" transform="matrix(.09716 0 0 -.09716 98.073 314.123)" id="text_25"><defs><path id="DejaVuSans-40" d="M2381 1678q0-447 222-702 222-254 610-254 384 0 604 256 221 256 221 700 0 438-225 695-225 258-607 258-378 0-602-256-223-256-223-697zm1703-934q-187-241-429-355t-564-114q-538 0-874 389t-336 1014q0 625 337 1015 338 391 873 391 322 0 565-117 244-117 428-354v409h447V722q457 69 714 417 258 349 258 902 0 334-99 628-98 294-298 544-325 409-792 626t-1017 217q-384 0-738-102-353-101-653-301-490-319-767-836-276-517-276-1120 0-497 179-932 180-434 521-765 328-325 759-495 431-171 922-171 403 0 792 136t714 389l281-347q-390-303-851-464t-936-161q-578 0-1091 205-512 205-912 595Q841 78 631 592q-209 514-209 1105 0 569 212 1084 213 516 607 907 403 396 931 607t1119 211q662 0 1229-272 568-271 952-771 234-307 357-666 124-359 124-744 0-822-497-1297T4084 263v481z" transform="scale(.01563)"/><path id="DejaVuSans-7c" d="M1344 4891v-6400H813v6400h531z" transform="scale(.01563)"/><path id="DejaVuSans-4e" d="M628 4666h850L3547 763v3903h612V0h-850L1241 3903V0H628v4666z" transform="scale(.01563)"/><path id="DejaVuSans-f6" d="M1959 3097q-462 0-731-361t-269-989q0-628 267-989 268-361 733-361 460 0 728 362 269 363 269 988 0 622-269 986-268 364-728 364zm0 487q750 0 1178-488 429-487 429-1349 0-859-429-1349Q2709-91 1959-91q-753 0-1180 489-426 490-426 1349 0 862 426 1349 427 488 1180 488zm295 1266h634v-631h-634v631zm-1222 0h634v-631h-634v631z" transform="scale(.01563)"/><path id="DejaVuSans-42" d="M1259 2228V519h1013q509 0 754 211 246 211 246 645 0 438-246 645-245 208-754 208H1259zm0 1919V2741h935q462 0 688 173 227 174 227 530 0 353-227 528-226 175-688 175h-935zm-631 519h1613q722 0 1112-300 391-300 391-853 0-429-200-682t-588-315q466-100 724-418 258-317 258-792 0-625-425-966Q3088 0 2303 0H628v4666z" transform="scale(.01563)"/><path id="DejaVuSans-59" d="M-13 4666h679l1293-1919 1285 1919h678L2272 2222V0h-634v2222L-13 4666z" transform="scale(.01563)"/></defs><use xlink:href="#DejaVuSans-40"/><use xlink:href="#DejaVuSans-6e" x="100"/><use xlink:href="#DejaVuSans-73" x="163.379"/><use xlink:href="#DejaVuSans-63" x="215.479"/><use xlink:href="#DejaVuSans-68" x="270.459"/><use xlink:href="#DejaVuSans-6c" x="333.838"/><use xlink:href="#DejaVuSans-6f" x="361.621"/><use xlink:href="#DejaVuSans-65" x="422.803"/><use xlink:href="#DejaVuSans-20" x="484.326"/><use xlink:href="#DejaVuSans-2f" x="516.113"/><use xlink:href="#DejaVuSans-20" x="549.805"/><use xlink:href="#DejaVuSans-67" x="581.592"/><use xlink:href="#DejaVuSans-68" x="645.068"/><use xlink:href="#DejaVuSans-2d" x="708.447"/><use xlink:href="#DejaVuSans-74" x="744.531"/><use xlink:href="#DejaVuSans-72" x="783.74"/><use xlink:href="#DejaVuSans-65" x="822.604"/><use xlink:href="#DejaVuSans-6e" x="884.127"/><use xlink:href="#DejaVuSans-64" x="947.506"/><use xlink:href="#DejaVuSans-73" x="1010.982"/><use xlink:href="#DejaVuSans-20" x="1063.082"/><use xlink:href="#DejaVuSans-7c" x="1094.869"/><use xlink:href="#DejaVuSans-20" x="1128.561"/><use xlink:href="#DejaVuSans-4e" x="1160.348"/><use xlink:href="#DejaVuSans-69" x="1235.152"/><use xlink:href="#DejaVuSans-63" x="1262.936"/><use xlink:href="#DejaVuSans-6f" x="1317.916"/><use xlink:href="#DejaVuSans-20" x="1379.098"/><use xlink:href="#DejaVuSans-53" x="1410.885"/><use xlink:href="#DejaVuSans-63" x="1474.361"/><use xlink:href="#DejaVuSans-68" x="1529.342"/><use xlink:href="#DejaVuSans-6c" x="1592.721"/><use xlink:href="#DejaVuSans-f6" x="1620.504"/><use xlink:href="#DejaVuSans-6d" x="1681.686"/><use xlink:href="#DejaVuSans-65" x="1779.098"/><use xlink:href="#DejaVuSans-72" x="1840.621"/><use xlink:href="#DejaVuSans-20" x="1881.734"/><use xlink:href="#DejaVuSans-7c" x="1913.521"/><use xlink:href="#DejaVuSans-20" x="1947.213"/><use xlink:href="#DejaVuSans-43" x="1979"/><use xlink:href="#DejaVuSans-43" x="2048.824"/><use xlink:href="#DejaVuSans-20" x="2118.648"/><use xlink:href="#DejaVuSans-42" x="2150.436"/><use xlink:href="#DejaVuSans-59" x="2213.539"/></g><path d="m230.933 280.087 2.57-.012h54.994l2.399-.012L293.55 269l2.57-.826 2.655-.43 2.57-.279 2.656-.569 2.655-.418 2.57-.57 2.656-.872 2.57-.546 2.655-.662 2.655-.582 2.399-.453 2.655-.43 2.57-.534 2.656-.454 2.57-.511 2.655-.372 2.655-.314 2.57-.325 2.656-.349 2.57-.337 2.655-.256 2.656-.337 2.398-.22 2.656-.489 2.57-.325 2.655-.442 2.57-.29 2.655-.314 2.656-.21 2.57-.232 2.655-.372 2.57-.186 2.655-.174 2.656-.221 2.484-.232 2.655-.21 2.57-.232 2.656-.256 2.57-.29 2.655-.175 2.656-.232 2.57-.314 2.655-.244 2.57-.453 2.655-.21 2.656-.197 2.398-.198 2.656-.267 2.57-.186 2.655-.151 2.57-.14 2.655-.255 2.656-.244 2.57-.163 2.655-.186 2.57-.21 2.655-.208 2.656-.186 2.398-.14 2.656-.22 2.57-.117 2.655-.174" clip-path="url(#p8630be7702)" style="fill:none;stroke:#bcbd22;stroke-width:1.5;stroke-linecap:square" id="line2d_20"/><path d="m267.51 280.087 2.57-.337 2.656-.186 2.655-.093 2.57-.256 2.655-.256 2.57-.162 2.656-.21 2.655-.255 2.399-.268 2.655-.395 2.57-.302 2.655-.256 2.57-.302 2.656-.279 2.655-.314 2.57-.418 2.656-.488 2.57-.442 2.655-.337 2.655-.43 2.399-.43 2.655-.593 2.57-.441 2.656-.442 2.57-.349 2.655-.279 2.655-.511 2.57-.465 2.656-.488 2.57-.407 2.655-.558 2.656-.511 2.398-.628 2.656-.57 2.57-.639 2.655-.964 2.57-.581 2.655-.465 2.656-.314 2.57-.546 2.655-.535 2.57-.616 2.655-.407 2.656-.418 2.484-.454 2.655-.58 2.57-.593 2.656-.523 2.57-.489 2.655-.523 2.656-.441 2.57-.71 2.655-.557 2.57-.93 2.655-.523 2.656-.697 2.398-.535 2.656-.709 2.57-.558 2.655-.488 2.57-.349 2.655-.476 2.656-.698 2.57-.488 2.655-.58 2.57-.605 2.655-.651 2.656-.697 2.398-.675 2.656-.5 2.57-.476 2.655-.709" clip-path="url(#p8630be7702)" style="fill:none;stroke:#7f7f7f;stroke-width:1.5;stroke-linecap:square" id="line2d_21"/><path d="m207.462 280.087 2.655-1.511 2.656-1.848 2.57-.825 2.655-.942 2.57-.5 2.656-.639 2.655-1.15 2.399-.558 2.655-.407 2.57-.407 2.655-.325 2.57-.628 2.656-.407 2.655-.43 2.57-.395 2.655-.384 2.57-.383 2.656-.453 2.655-.372 2.484-.28 2.656-.325 2.57-.302 2.655-.279 2.57-.476 2.656-.291 2.655-.256 2.57-.232 2.655-.314 2.57-.279 2.656-.244 2.655-.314 2.399-.348 2.655-.28 2.57-.255 2.655-.419 2.57-.255 2.656-.314 2.655-.29 2.57-.291 2.656-.221 2.57-.314 2.655-.511 2.655-.43 2.399-.21 2.655-.453 2.57-.36 2.656-.453 2.57-.384 2.655-.279 2.655-.325 2.57-.326 2.656-.418 2.57-.395 2.655-.372 2.656-.28 2.398-.301 2.656-.43 2.57-.396 2.655-.36 2.57-.418 2.655-.21 2.656-.313 2.57-.198 2.655-.383 2.57-.233 2.655-.244 2.656-.279 2.484-.256 2.655-.267 2.57-.21 2.656-.197 2.57-.209 2.655-.267 2.656-.349 2.57-.197 2.655-.35 2.57-.243 2.655-.244 2.656-.28 2.398-.162 2.656-.267 2.57-.337 2.655-.244 2.57-.28 2.655-.29 2.656-.267 2.57-.29 2.655-.303 2.57-.198 2.655-.244 2.656-.267 2.398-.314 2.656-.43 2.57-.372 2.655-.232" clip-path="url(#p8630be7702)" style="fill:none;stroke:#e377c2;stroke-width:1.5;stroke-linecap:square" id="line2d_22"/><path d="m98.073 280.087 2.656-.442 5.054-.07 10.45-.22 36.577-.71 20.816-.255 18.331-.756 5.054-.209 5.226-.232 18.331-1.116 5.311-.21 7.624-.755 7.88-.964 5.226-.5 5.225-.581 13.02-1.128 15.762-1.894 12.935-1.15 5.225-.64 5.226-.419 2.655-.523 18.16-2.313 7.795-1.44 5.311-.942 2.57-.779 2.656-.349 5.225-.5 31.266-4.858 2.656-.313 2.484-.419 10.45-1.116 7.881-1.348 5.226-.616 5.31-.86 2.4-.57 5.224-.952 5.226-1.244 2.655-.523 2.656-.71 7.795-1.429 5.31-.802 7.625-1.383 2.655-.848h0" clip-path="url(#p8630be7702)" style="fill:none;stroke:#8c564b;stroke-width:1.5;stroke-linecap:square" id="line2d_23"/><path d="m225.88 280.087 2.398-.024 2.655-.046 2.57-.023 2.655-.012h2.57l2.656-.012 2.655-8.333 2.57-.593 2.655-.325 2.57-.372 2.656-.302 2.655-.337 2.484-.244 2.656-.268 2.57-.186 2.655-.29 2.57-.326 2.656-.592 2.655-.372 2.57-.349 2.655-.325 2.57-.233 2.656-.232 2.655-.337 2.399-.326 2.655-.604 2.57-.419 2.655-.523 2.57-.209 2.656-.244 2.655-.395 2.57-.221 2.656-.453 2.57-.28 2.655-.43 2.655-.406 2.399-.511 2.655-.372 2.57-.86 2.656-.744 2.57-.43 2.655-.442 2.655-.453 2.57-.465 2.656-.384 2.57-.627 2.655-.419 2.656-.5 2.398-.476 2.656-.616 2.57-.442 2.655-.36 2.57-.407 2.655-.627 2.656-.71 2.57-.348 2.655-.372 2.57-.302 2.655-.453 2.656-.407 2.484-.395 2.655-.35 2.57-.418 2.656-.418 2.57-.535 2.655-.523 2.656-.418 2.57-.395 2.655-.29 2.57-.373 2.655-.5 2.656-.615 2.398-.523 2.656-.686 2.57-.477 2.655-.511 2.57-.29 2.655-.326 2.656-1 2.57-.523 2.655-.5 2.57-.267 2.655-.383 2.656-.314 2.398-.512 2.656-.58 2.57-.35 2.655-.522" clip-path="url(#p8630be7702)" style="fill:none;stroke:#9467bd;stroke-width:1.5;stroke-linecap:square" id="line2d_24"/><path d="m298.776 280.087 2.57-2.058 2.656-5.962 2.655-2.917 2.57-1.639 2.656-1.5 2.57-1.057 2.655-1 2.655-.767 2.399-.72 2.655-.767 2.57-.651 2.656-.767 2.57-1.07 2.655-.755 2.655-.709 2.57-.604 2.656-.512 2.57-.57 2.655-.546 2.656-.546 2.398-.453 2.656-.93 2.57-2.452 2.655-.756 2.57-.58 2.655-.687 2.656-.662 2.57-.663 2.655-.558 2.57-.674 2.655-.918 2.656-.593 2.484-.58 2.655-.454 2.57-.686 2.656-.511 2.57-.581 2.655-.907 2.656-.813 2.57-.616 2.655-.57 2.57-.5 2.655-.546 2.656-.64 2.398-.952 2.656-1.14 2.57-.673 2.655-.942 2.57-.802 2.655-.837 2.656-1.01 2.57-.791 2.655-1.755 2.57-2.534 2.655-1.94 2.656-2.023 2.398-2.162 2.656-1.639 2.57-1.79 2.655-3.068" clip-path="url(#p8630be7702)" style="fill:none;stroke:#d62728;stroke-width:1.5;stroke-linecap:square" id="line2d_25"/><path d="m324.817 280.087 2.57-.012 2.656-.012 2.57-.034 2.655-1.116 2.655-.21 2.57-.127 2.656-.093 2.57-.035 2.655-.07 2.656-1.174 2.398-.813 2.656-2.546 2.57-2.661 2.655-3.812 2.57-6.346 2.655-3.197 2.656-1.65 2.57-1.709 2.655-1.522 2.57-1.767 2.655-1.43 2.656-1.29 2.484-2.266 2.655-1.825 2.57-1.243 2.656-1.86 2.57-1.011 2.655-1.813 2.656-1.616 2.57-2.01 2.655-1.418 2.57-1.302 2.655-1.372 2.656-1.325 2.398-1.208 2.656-1.151 2.57-1.197 2.655-1.011 2.57-1.349 2.655-.976 2.656-1 2.57-1.278 2.655-1.15 2.57-1.093 2.655-1.267 2.656-1.383 2.398-1.395 2.656-1.43 2.57-1.045 2.655-1.453" clip-path="url(#p8630be7702)" style="fill:none;stroke:#2ca02c;stroke-width:1.5;stroke-linecap:square" id="line2d_26"/><path d="m184.077 280.087 2.655-.244 2.57-.233 2.655-1.08 2.656-1.047 2.398-4.719 2.656-1.476 2.57-.639 2.655-.418 2.57-.837 2.655-.558 2.656-.523 2.57-.779 2.655-1.069 2.57-1.36 2.656-1.348 2.655-1.488 2.399-1.766 2.655-2.093 2.57-2.034 2.655-1.662 2.57-1.894 2.656-1.267 2.655-1.278 2.57-4.882 2.655-3.475 2.57-1.732 2.656-2.231 2.655-2 2.484-1.65 2.656-1.918 2.57-2.127 2.655-1.999 2.57-1.964 2.656-1.546 2.655-1.999 2.57-3.045 2.655-1.906 2.57-2.906 2.656-1.813 2.655-1.813 2.399-1.523 2.655-2.44 2.57-4.591 2.655-1.674 2.57-1.522 2.656-2.337 2.655-2.847 2.57-2.255 2.656-2.057 2.57-1.93 2.655-2.522 2.655-2.37 2.399-2.627 2.655-2.883 2.57-2.8 2.656-2.325 2.57-2.906 2.655-2.22 2.655-2.278 2.57-1.58 2.656-1.814 2.57-1.871 2.655-1.685 2.656-2.209 2.398-1.743 2.656-2.022 2.57-1.941 2.655-2.441 2.57-2.127 2.655-2.36 2.656-2.092 2.57-1.766 2.655-1.453 2.57-1.65 2.655-1.744 2.656-4.382 2.484-2.01 2.655-2.313 2.57-2.708 2.656-2.94 2.57-2.29 2.655-2.453 2.656-2.859 2.57-1.825 2.655-1.883 2.57-2.068 2.655-2.488 2.656-6.288 2.398-4.986 2.656-4.23 2.57-2.743 2.655-2.267 2.57-1.86 2.655-2.289 2.656-4.184 2.57-2.87 2.655-2.198 2.57-6.74 2.655-4.057 2.656-3.185 2.398-2.568 2.656-3.08 2.57-3.22 2.655-2.545" clip-path="url(#p8630be7702)" style="fill:none;stroke:#ff7f0e;stroke-width:1.5;stroke-linecap:square" id="line2d_27"/><path d="m126.684 280.087 2.655-5.068 2.656-.197 2.484-.058 2.655-.082 2.57-.058 2.656-.046 2.57-.035 2.655-.093 2.656-.012 2.57-.035 2.655-.07 2.57-.011 2.655-.023h2.656l2.398-.14 2.656-.325 2.57-.221 2.655-.697 2.57-.884 2.655-.604 2.656-.628 2.57-.407 2.655-.476 2.57-.395 2.655-2.07 2.656-.545 2.398-4.882 2.656-3.44 2.57-1.22 2.655-.919 2.57-1.08 2.655-1.093 2.656-1 2.57-.988 2.655-1.301 2.57-2.395 2.656-1.069 2.655-1.79 2.399-1.22 2.655-2.743 2.57-1.081 2.655-.837 2.57-1.023 2.656-2.568 2.655-1.035 2.57-1.185 2.655-1.093 2.57-4.986 2.656-3.22 2.655-2.045 2.484-2.092 2.656-1.743 2.57-2.488 2.655-1.104 2.57-1.313 2.656-1.255 2.655-1.267 2.57-1.58 2.655-1.57 2.57-1.941 2.656-1.523 2.655-2.429 2.399-2.533 2.655-1.604 2.57-1.104 2.655-1.36 2.57-1.442 2.656-.976 2.655-1.139 2.57-1.174 2.656-1.232 2.57-1.673 2.655-1.476 2.655-1.372 2.399-2.197 2.655-2.812 2.57-2.22 2.656-4.335 2.57-2.418 2.655-1.65 2.655-1.79 2.57-1.349 2.656-2.033 2.57-2.279 2.655-1.755 2.656-1.836 2.398-1.906 2.656-1.976 2.57-1.522 2.655-1.907 2.57-1.197 2.655-.953 2.656-1.43 2.57-1.324 2.655-1.744 2.57-1.604 2.655-1.487 2.656-1.407 2.484-3.103 2.655-1.743 2.57-2.197 2.656-1.941 2.57-2.685 2.655-1.743 2.656-2.023 2.57-1.836 2.655-2.115 2.57-1.453 2.655-1.918 2.656-60.008 2.398-5.462 2.656-3.51 2.57-3.987 2.655-2.882 2.57-1.941 2.655-2.278 2.656-1.941 2.57-1.964 2.655-2.546 2.57-2.708 2.655-3.126 2.656-2.488 2.398-2.452 2.656-2.139 2.57-1.975 2.655-2.034" clip-path="url(#p8630be7702)" style="fill:none;stroke:#1f77b4;stroke-width:1.5;stroke-linecap:square" id="line2d_28"/></g></g><defs><clipPath id="p8630be7702"><path d="M98.073 13.975h357.12v266.112H98.073z"/></clipPath></defs></svg>