<?xml version="1.0" encoding="utf-8" standalone="no"?>
<!DOCTYPE svg PUBLIC "-//W3C//DTD SVG 1.1//EN"
  "http://www.w3.org/Graphics/SVG/1.1/DTD/svg11.dtd">
<svg xmlns:xlink="http://www.w3.org/1999/xlink" width="655.167975pt" height="341.422127pt" viewBox="0 0 655.167975 341.422127" xmlns="http://www.w3.org/2000/svg" version="1.1">
 <metadata>
  <rdf:RDF xmlns:dc="http://purl.org/dc/elements/1.1/" xmlns:cc="http://creativecommons.org/ns#" xmlns:rdf="http://www.w3.org/1999/02/22-rdf-syntax-ns#">
   <cc:Work>
    <dc:type rdf:resource="http://purl.org/dc/dcmitype/StillImage"/>
    <dc:date>2022-01-21T10:56:01.925153</dc:date>
    <dc:format>image/svg+xml</dc:format>
    <dc:creator>
     <cc:Agent>
      <dc:title>Matplotlib v3.5.1, https://matplotlib.org/</dc:title>
     </cc:Agent>
    </dc:creator>
   </cc:Work>
  </rdf:RDF>
 </metadata>
 <defs>
  <style type="text/css">*{stroke-linejoin: round; stroke-linecap: butt}</style>
 </defs>
 <g id="figure_1">
  <g id="patch_1">
   <path d="M 0 341.422127 
L 655.167975 341.422127 
L 655.167975 0 
L 0 0 
L 0 341.422127 
z
" style="fill: none"/>
  </g>
  <g id="axes_1">
   <g id="patch_2">
    <path d="M 82.47625 297.894927 
L 439.59625 297.894927 
L 439.59625 31.782927 
L 82.47625 31.782927 
L 82.47625 297.894927 
z
" style="fill: none"/>
   </g>
   <g id="matplotlib.axis_1">
    <g id="xtick_1">
     <g id="line2d_1">
      <defs>
       <path id="m2e218b581d" d="M 0 0 
L 0 3.5 
" style="stroke: #b0b0b0; stroke-width: 0.4"/>
      </defs>
      <g>
       <use xlink:href="#m2e218b581d" x="127.978301" y="297.894927" style="fill: #b0b0b0; stroke: #b0b0b0; stroke-width: 0.4"/>
      </g>
     </g>
     <g id="text_1">
      <!-- 2010 -->
      <g style="fill: #b0b0b0" transform="translate(113.615176 314.834927)scale(0.14 -0.14)">
       <defs>
        <path id="MyriadPro-Regular-32" d="M 2944 0 
L 2944 467 
L 1075 467 
L 1075 480 
L 1408 787 
C 2285 1632 2842 2253 2842 3021 
C 2842 3616 2464 4230 1568 4230 
C 1088 4230 678 4051 390 3808 
L 570 3411 
C 762 3571 1075 3763 1453 3763 
C 2074 3763 2278 3373 2278 2950 
C 2272 2323 1792 1786 730 774 
L 288 346 
L 288 0 
L 2944 0 
z
" transform="scale(0.015625)"/>
        <path id="MyriadPro-Regular-30" d="M 1677 4230 
C 832 4230 230 3462 230 2067 
C 243 691 794 -70 1606 -70 
C 2528 -70 3053 710 3053 2125 
C 3053 3450 2554 4230 1677 4230 
z
M 1645 3795 
C 2227 3795 2490 3123 2490 2099 
C 2490 1037 2214 365 1638 365 
C 1126 365 794 979 794 2061 
C 794 3194 1152 3795 1645 3795 
z
" transform="scale(0.015625)"/>
        <path id="MyriadPro-Regular-31" d="M 1510 0 
L 2054 0 
L 2054 4160 
L 1574 4160 
L 666 3674 
L 774 3245 
L 1498 3635 
L 1510 3635 
L 1510 0 
z
" transform="scale(0.015625)"/>
       </defs>
       <use xlink:href="#MyriadPro-Regular-32"/>
       <use xlink:href="#MyriadPro-Regular-30" x="51.299988"/>
       <use xlink:href="#MyriadPro-Regular-31" x="102.599976"/>
       <use xlink:href="#MyriadPro-Regular-30" x="153.899963"/>
      </g>
     </g>
    </g>
    <g id="xtick_2">
     <g id="line2d_2">
      <g>
       <use xlink:href="#m2e218b581d" x="179.879077" y="297.894927" style="fill: #b0b0b0; stroke: #b0b0b0; stroke-width: 0.4"/>
      </g>
     </g>
     <g id="text_2">
      <!-- 2012 -->
      <g style="fill: #b0b0b0" transform="translate(165.515952 314.834927)scale(0.14 -0.14)">
       <use xlink:href="#MyriadPro-Regular-32"/>
       <use xlink:href="#MyriadPro-Regular-30" x="51.299988"/>
       <use xlink:href="#MyriadPro-Regular-31" x="102.599976"/>
       <use xlink:href="#MyriadPro-Regular-32" x="153.899963"/>
      </g>
     </g>
    </g>
    <g id="xtick_3">
     <g id="line2d_3">
      <g>
       <use xlink:href="#m2e218b581d" x="231.85095" y="297.894927" style="fill: #b0b0b0; stroke: #b0b0b0; stroke-width: 0.4"/>
      </g>
     </g>
     <g id="text_3">
      <!-- 2014 -->
      <g style="fill: #b0b0b0" transform="translate(217.487825 314.834927)scale(0.14 -0.14)">
       <defs>
        <path id="MyriadPro-Regular-34" d="M 2560 0 
L 2560 1133 
L 3142 1133 
L 3142 1574 
L 2560 1574 
L 2560 4160 
L 1952 4160 
L 96 1504 
L 96 1133 
L 2029 1133 
L 2029 0 
L 2560 0 
z
M 666 1574 
L 666 1587 
L 1683 3002 
C 1798 3194 1901 3373 2029 3616 
L 2048 3616 
C 2035 3398 2029 3181 2029 2963 
L 2029 1574 
L 666 1574 
z
" transform="scale(0.015625)"/>
       </defs>
       <use xlink:href="#MyriadPro-Regular-32"/>
       <use xlink:href="#MyriadPro-Regular-30" x="51.299988"/>
       <use xlink:href="#MyriadPro-Regular-31" x="102.599976"/>
       <use xlink:href="#MyriadPro-Regular-34" x="153.899963"/>
      </g>
     </g>
    </g>
    <g id="xtick_4">
     <g id="line2d_4">
      <g>
       <use xlink:href="#m2e218b581d" x="283.751727" y="297.894927" style="fill: #b0b0b0; stroke: #b0b0b0; stroke-width: 0.4"/>
      </g>
     </g>
     <g id="text_4">
      <!-- 2016 -->
      <g style="fill: #b0b0b0" transform="translate(269.388602 314.834927)scale(0.14 -0.14)">
       <defs>
        <path id="MyriadPro-Regular-36" d="M 2662 4224 
C 2560 4224 2419 4218 2253 4192 
C 1728 4128 1267 3917 922 3578 
C 512 3168 218 2522 218 1702 
C 218 621 800 -70 1690 -70 
C 2554 -70 3072 634 3072 1395 
C 3072 2208 2554 2739 1818 2739 
C 1357 2739 1011 2522 813 2259 
L 794 2259 
C 890 2944 1357 3590 2240 3738 
C 2400 3763 2547 3770 2662 3763 
L 2662 4224 
z
M 1690 365 
C 1101 365 787 870 774 1555 
C 774 1658 800 1741 838 1805 
C 992 2106 1306 2317 1645 2317 
C 2163 2317 2502 1958 2502 1363 
C 2502 768 2176 365 1696 365 
L 1690 365 
z
" transform="scale(0.015625)"/>
       </defs>
       <use xlink:href="#MyriadPro-Regular-32"/>
       <use xlink:href="#MyriadPro-Regular-30" x="51.299988"/>
       <use xlink:href="#MyriadPro-Regular-31" x="102.599976"/>
       <use xlink:href="#MyriadPro-Regular-36" x="153.899963"/>
      </g>
     </g>
    </g>
    <g id="xtick_5">
     <g id="line2d_5">
      <g>
       <use xlink:href="#m2e218b581d" x="335.7236" y="297.894927" style="fill: #b0b0b0; stroke: #b0b0b0; stroke-width: 0.4"/>
      </g>
     </g>
     <g id="text_5">
      <!-- 2018 -->
      <g style="fill: #b0b0b0" transform="translate(321.360475 314.834927)scale(0.14 -0.14)">
       <defs>
        <path id="MyriadPro-Regular-38" d="M 1062 2170 
C 550 1952 237 1581 237 1056 
C 237 448 762 -70 1632 -70 
C 2426 -70 3046 416 3046 1139 
C 3046 1645 2726 2010 2208 2214 
L 2208 2234 
C 2720 2477 2893 2854 2893 3206 
C 2893 3725 2490 4230 1683 4230 
C 954 4230 397 3782 397 3123 
C 397 2765 595 2406 1056 2189 
L 1062 2170 
z
M 1645 339 
C 1114 339 794 710 813 1133 
C 813 1530 1075 1850 1562 1990 
C 2125 1830 2477 1587 2477 1082 
C 2477 659 2150 339 1645 339 
z
M 1651 3827 
C 2157 3827 2355 3482 2355 3149 
C 2355 2771 2080 2515 1722 2394 
C 1242 2522 928 2746 928 3162 
C 928 3520 1184 3827 1651 3827 
z
" transform="scale(0.015625)"/>
       </defs>
       <use xlink:href="#MyriadPro-Regular-32"/>
       <use xlink:href="#MyriadPro-Regular-30" x="51.299988"/>
       <use xlink:href="#MyriadPro-Regular-31" x="102.599976"/>
       <use xlink:href="#MyriadPro-Regular-38" x="153.899963"/>
      </g>
     </g>
    </g>
    <g id="xtick_6">
     <g id="line2d_6">
      <g>
       <use xlink:href="#m2e218b581d" x="387.624377" y="297.894927" style="fill: #b0b0b0; stroke: #b0b0b0; stroke-width: 0.4"/>
      </g>
     </g>
     <g id="text_6">
      <!-- 2020 -->
      <g style="fill: #b0b0b0" transform="translate(373.261252 314.834927)scale(0.14 -0.14)">
       <use xlink:href="#MyriadPro-Regular-32"/>
       <use xlink:href="#MyriadPro-Regular-30" x="51.299988"/>
       <use xlink:href="#MyriadPro-Regular-32" x="102.599976"/>
       <use xlink:href="#MyriadPro-Regular-30" x="153.899963"/>
      </g>
     </g>
    </g>
    <g id="xtick_7">
     <g id="line2d_7">
      <g>
       <use xlink:href="#m2e218b581d" x="439.59625" y="297.894927" style="fill: #b0b0b0; stroke: #b0b0b0; stroke-width: 0.4"/>
      </g>
     </g>
     <g id="text_7">
      <!-- 2022 -->
      <g style="fill: #b0b0b0" transform="translate(425.233125 314.834927)scale(0.14 -0.14)">
       <use xlink:href="#MyriadPro-Regular-32"/>
       <use xlink:href="#MyriadPro-Regular-30" x="51.299988"/>
       <use xlink:href="#MyriadPro-Regular-32" x="102.599976"/>
       <use xlink:href="#MyriadPro-Regular-32" x="153.899963"/>
      </g>
     </g>
    </g>
   </g>
   <g id="matplotlib.axis_2">
    <g id="ytick_1">
     <g id="line2d_8">
      <path d="M 82.47625 297.894927 
L 439.59625 297.894927 
" clip-path="url(#p9a65de7323)" style="fill: none; stroke: #b0b0b0; stroke-width: 0.3; stroke-linecap: square"/>
     </g>
     <g id="line2d_9">
      <defs>
       <path id="mb6a0193180" d="M 0 0 
L -3.5 0 
" style="stroke: #b0b0b0; stroke-width: 0.3"/>
      </defs>
      <g>
       <use xlink:href="#mb6a0193180" x="82.47625" y="297.894927" style="fill: #b0b0b0; stroke: #b0b0b0; stroke-width: 0.3"/>
      </g>
     </g>
     <g id="text_8">
      <!-- 0 -->
      <g style="fill: #b0b0b0" transform="translate(68.294687 302.864927)scale(0.14 -0.14)">
       <use xlink:href="#MyriadPro-Regular-30"/>
      </g>
     </g>
    </g>
    <g id="ytick_2">
     <g id="line2d_10">
      <path d="M 82.47625 266.473407 
L 439.59625 266.473407 
" clip-path="url(#p9a65de7323)" style="fill: none; stroke: #b0b0b0; stroke-width: 0.3; stroke-linecap: square"/>
     </g>
     <g id="line2d_11">
      <g>
       <use xlink:href="#mb6a0193180" x="82.47625" y="266.473407" style="fill: #b0b0b0; stroke: #b0b0b0; stroke-width: 0.3"/>
      </g>
     </g>
     <g id="text_9">
      <!-- 10000 -->
      <g style="fill: #b0b0b0" transform="translate(39.568437 271.443407)scale(0.14 -0.14)">
       <use xlink:href="#MyriadPro-Regular-31"/>
       <use xlink:href="#MyriadPro-Regular-30" x="51.299988"/>
       <use xlink:href="#MyriadPro-Regular-30" x="102.599976"/>
       <use xlink:href="#MyriadPro-Regular-30" x="153.899963"/>
       <use xlink:href="#MyriadPro-Regular-30" x="205.199951"/>
      </g>
     </g>
    </g>
    <g id="ytick_3">
     <g id="line2d_12">
      <path d="M 82.47625 235.051886 
L 439.59625 235.051886 
" clip-path="url(#p9a65de7323)" style="fill: none; stroke: #b0b0b0; stroke-width: 0.3; stroke-linecap: square"/>
     </g>
     <g id="line2d_13">
      <g>
       <use xlink:href="#mb6a0193180" x="82.47625" y="235.051886" style="fill: #b0b0b0; stroke: #b0b0b0; stroke-width: 0.3"/>
      </g>
     </g>
     <g id="text_10">
      <!-- 20000 -->
      <g style="fill: #b0b0b0" transform="translate(39.568437 240.021886)scale(0.14 -0.14)">
       <use xlink:href="#MyriadPro-Regular-32"/>
       <use xlink:href="#MyriadPro-Regular-30" x="51.299988"/>
       <use xlink:href="#MyriadPro-Regular-30" x="102.599976"/>
       <use xlink:href="#MyriadPro-Regular-30" x="153.899963"/>
       <use xlink:href="#MyriadPro-Regular-30" x="205.199951"/>
      </g>
     </g>
    </g>
    <g id="ytick_4">
     <g id="line2d_14">
      <path d="M 82.47625 203.630365 
L 439.59625 203.630365 
" clip-path="url(#p9a65de7323)" style="fill: none; stroke: #b0b0b0; stroke-width: 0.3; stroke-linecap: square"/>
     </g>
     <g id="line2d_15">
      <g>
       <use xlink:href="#mb6a0193180" x="82.47625" y="203.630365" style="fill: #b0b0b0; stroke: #b0b0b0; stroke-width: 0.3"/>
      </g>
     </g>
     <g id="text_11">
      <!-- 30000 -->
      <g style="fill: #b0b0b0" transform="translate(39.568437 208.600365)scale(0.14 -0.14)">
       <defs>
        <path id="MyriadPro-Regular-33" d="M 269 211 
C 474 77 883 -70 1350 -70 
C 2349 -70 2867 512 2867 1178 
C 2867 1760 2451 2144 1939 2246 
L 1939 2259 
C 2451 2445 2707 2810 2707 3238 
C 2707 3744 2336 4230 1517 4230 
C 1069 4230 646 4070 429 3910 
L 576 3501 
C 755 3629 1075 3776 1408 3776 
C 1926 3776 2138 3482 2138 3149 
C 2138 2656 1619 2445 1210 2445 
L 896 2445 
L 896 2022 
L 1210 2022 
C 1754 2022 2278 1773 2285 1190 
C 2291 845 2067 384 1344 384 
C 954 384 582 544 422 646 
L 269 211 
z
" transform="scale(0.015625)"/>
       </defs>
       <use xlink:href="#MyriadPro-Regular-33"/>
       <use xlink:href="#MyriadPro-Regular-30" x="51.299988"/>
       <use xlink:href="#MyriadPro-Regular-30" x="102.599976"/>
       <use xlink:href="#MyriadPro-Regular-30" x="153.899963"/>
       <use xlink:href="#MyriadPro-Regular-30" x="205.199951"/>
      </g>
     </g>
    </g>
    <g id="ytick_5">
     <g id="line2d_16">
      <path d="M 82.47625 172.208845 
L 439.59625 172.208845 
" clip-path="url(#p9a65de7323)" style="fill: none; stroke: #b0b0b0; stroke-width: 0.3; stroke-linecap: square"/>
     </g>
     <g id="line2d_17">
      <g>
       <use xlink:href="#mb6a0193180" x="82.47625" y="172.208845" style="fill: #b0b0b0; stroke: #b0b0b0; stroke-width: 0.3"/>
      </g>
     </g>
     <g id="text_12">
      <!-- 40000 -->
      <g style="fill: #b0b0b0" transform="translate(39.568437 177.178845)scale(0.14 -0.14)">
       <use xlink:href="#MyriadPro-Regular-34"/>
       <use xlink:href="#MyriadPro-Regular-30" x="51.299988"/>
       <use xlink:href="#MyriadPro-Regular-30" x="102.599976"/>
       <use xlink:href="#MyriadPro-Regular-30" x="153.899963"/>
       <use xlink:href="#MyriadPro-Regular-30" x="205.199951"/>
      </g>
     </g>
    </g>
    <g id="ytick_6">
     <g id="line2d_18">
      <path d="M 82.47625 140.787324 
L 439.59625 140.787324 
" clip-path="url(#p9a65de7323)" style="fill: none; stroke: #b0b0b0; stroke-width: 0.3; stroke-linecap: square"/>
     </g>
     <g id="line2d_19">
      <g>
       <use xlink:href="#mb6a0193180" x="82.47625" y="140.787324" style="fill: #b0b0b0; stroke: #b0b0b0; stroke-width: 0.3"/>
      </g>
     </g>
     <g id="text_13">
      <!-- 50000 -->
      <g style="fill: #b0b0b0" transform="translate(39.568437 145.757324)scale(0.14 -0.14)">
       <defs>
        <path id="MyriadPro-Regular-35" d="M 2771 4160 
L 781 4160 
L 512 2163 
C 666 2182 851 2208 1088 2208 
C 1920 2208 2278 1824 2285 1286 
C 2285 730 1830 384 1299 384 
C 922 384 582 512 410 614 
L 269 186 
C 467 58 851 -70 1306 -70 
C 2208 -70 2854 538 2854 1350 
C 2854 1875 2586 2234 2259 2419 
C 2003 2573 1683 2643 1363 2643 
C 1210 2643 1120 2630 1024 2618 
L 1184 3686 
L 2771 3686 
L 2771 4160 
z
" transform="scale(0.015625)"/>
       </defs>
       <use xlink:href="#MyriadPro-Regular-35"/>
       <use xlink:href="#MyriadPro-Regular-30" x="51.299988"/>
       <use xlink:href="#MyriadPro-Regular-30" x="102.599976"/>
       <use xlink:href="#MyriadPro-Regular-30" x="153.899963"/>
       <use xlink:href="#MyriadPro-Regular-30" x="205.199951"/>
      </g>
     </g>
    </g>
    <g id="ytick_7">
     <g id="line2d_20">
      <path d="M 82.47625 109.365804 
L 439.59625 109.365804 
" clip-path="url(#p9a65de7323)" style="fill: none; stroke: #b0b0b0; stroke-width: 0.3; stroke-linecap: square"/>
     </g>
     <g id="line2d_21">
      <g>
       <use xlink:href="#mb6a0193180" x="82.47625" y="109.365804" style="fill: #b0b0b0; stroke: #b0b0b0; stroke-width: 0.3"/>
      </g>
     </g>
     <g id="text_14">
      <!-- 60000 -->
      <g style="fill: #b0b0b0" transform="translate(39.568437 114.335804)scale(0.14 -0.14)">
       <use xlink:href="#MyriadPro-Regular-36"/>
       <use xlink:href="#MyriadPro-Regular-30" x="51.299988"/>
       <use xlink:href="#MyriadPro-Regular-30" x="102.599976"/>
       <use xlink:href="#MyriadPro-Regular-30" x="153.899963"/>
       <use xlink:href="#MyriadPro-Regular-30" x="205.199951"/>
      </g>
     </g>
    </g>
    <g id="ytick_8">
     <g id="line2d_22">
      <path d="M 82.47625 77.944283 
L 439.59625 77.944283 
" clip-path="url(#p9a65de7323)" style="fill: none; stroke: #b0b0b0; stroke-width: 0.3; stroke-linecap: square"/>
     </g>
     <g id="line2d_23">
      <g>
       <use xlink:href="#mb6a0193180" x="82.47625" y="77.944283" style="fill: #b0b0b0; stroke: #b0b0b0; stroke-width: 0.3"/>
      </g>
     </g>
     <g id="text_15">
      <!-- 70000 -->
      <g style="fill: #b0b0b0" transform="translate(39.568437 82.914283)scale(0.14 -0.14)">
       <defs>
        <path id="MyriadPro-Regular-37" d="M 365 4160 
L 365 3693 
L 2400 3693 
L 2400 3680 
L 595 0 
L 1178 0 
L 2989 3789 
L 2989 4160 
L 365 4160 
z
" transform="scale(0.015625)"/>
       </defs>
       <use xlink:href="#MyriadPro-Regular-37"/>
       <use xlink:href="#MyriadPro-Regular-30" x="51.299988"/>
       <use xlink:href="#MyriadPro-Regular-30" x="102.599976"/>
       <use xlink:href="#MyriadPro-Regular-30" x="153.899963"/>
       <use xlink:href="#MyriadPro-Regular-30" x="205.199951"/>
      </g>
     </g>
    </g>
    <g id="ytick_9">
     <g id="line2d_24">
      <path d="M 82.47625 46.522762 
L 439.59625 46.522762 
" clip-path="url(#p9a65de7323)" style="fill: none; stroke: #b0b0b0; stroke-width: 0.3; stroke-linecap: square"/>
     </g>
     <g id="line2d_25">
      <g>
       <use xlink:href="#mb6a0193180" x="82.47625" y="46.522762" style="fill: #b0b0b0; stroke: #b0b0b0; stroke-width: 0.3"/>
      </g>
     </g>
     <g id="text_16">
      <!-- 80000 -->
      <g style="fill: #b0b0b0" transform="translate(39.568437 51.492762)scale(0.14 -0.14)">
       <use xlink:href="#MyriadPro-Regular-38"/>
       <use xlink:href="#MyriadPro-Regular-30" x="51.299988"/>
       <use xlink:href="#MyriadPro-Regular-30" x="102.599976"/>
       <use xlink:href="#MyriadPro-Regular-30" x="153.899963"/>
       <use xlink:href="#MyriadPro-Regular-30" x="205.199951"/>
      </g>
     </g>
    </g>
    <g id="text_17">
     <!-- GitHub stars -->
     <g style="fill: #b0b0b0" transform="translate(7.2 17.14)scale(0.14 -0.14)">
      <defs>
       <path id="MyriadPro-Regular-47" d="M 3770 2266 
L 2349 2266 
L 2349 1818 
L 3226 1818 
L 3226 531 
C 3098 467 2848 416 2483 416 
C 1478 416 819 1062 819 2157 
C 819 3238 1504 3891 2554 3891 
C 2989 3891 3277 3808 3507 3706 
L 3642 4160 
C 3456 4250 3066 4358 2566 4358 
C 1120 4358 237 3418 230 2131 
C 230 1459 461 883 832 525 
C 1254 122 1792 -45 2445 -45 
C 3027 -45 3520 102 3770 192 
L 3770 2266 
z
" transform="scale(0.015625)"/>
       <path id="MyriadPro-Regular-69" d="M 1030 0 
L 1030 3098 
L 467 3098 
L 467 0 
L 1030 0 
z
M 749 4320 
C 544 4320 397 4166 397 3968 
C 397 3776 538 3622 736 3622 
C 960 3622 1101 3776 1094 3968 
C 1094 4166 960 4320 749 4320 
z
" transform="scale(0.015625)"/>
       <path id="MyriadPro-Regular-74" d="M 595 3667 
L 595 3098 
L 115 3098 
L 115 2669 
L 595 2669 
L 595 979 
C 595 614 653 339 813 173 
C 947 19 1158 -70 1421 -70 
C 1638 -70 1811 -32 1920 13 
L 1894 435 
C 1811 410 1722 397 1568 397 
C 1254 397 1146 614 1146 998 
L 1146 2669 
L 1952 2669 
L 1952 3098 
L 1146 3098 
L 1146 3840 
L 595 3667 
z
" transform="scale(0.015625)"/>
       <path id="MyriadPro-Regular-48" d="M 486 4314 
L 486 0 
L 1043 0 
L 1043 2022 
L 3130 2022 
L 3130 0 
L 3693 0 
L 3693 4314 
L 3130 4314 
L 3130 2509 
L 1043 2509 
L 1043 4314 
L 486 4314 
z
" transform="scale(0.015625)"/>
       <path id="MyriadPro-Regular-75" d="M 3059 3098 
L 2496 3098 
L 2496 1197 
C 2496 1094 2477 992 2445 909 
C 2342 659 2080 397 1702 397 
C 1190 397 1011 794 1011 1382 
L 1011 3098 
L 448 3098 
L 448 1286 
C 448 198 1030 -70 1517 -70 
C 2067 -70 2394 256 2541 506 
L 2554 506 
L 2586 0 
L 3085 0 
C 3066 243 3059 525 3059 845 
L 3059 3098 
z
" transform="scale(0.015625)"/>
       <path id="MyriadPro-Regular-62" d="M 467 800 
C 467 525 454 211 442 0 
L 928 0 
L 954 512 
L 973 512 
C 1203 102 1562 -70 2010 -70 
C 2701 -70 3398 480 3398 1587 
C 3405 2528 2861 3168 2093 3168 
C 1594 3168 1235 2944 1037 2598 
L 1024 2598 
L 1024 4544 
L 467 4544 
L 467 800 
z
M 1024 1798 
C 1024 1888 1043 1965 1056 2029 
C 1171 2458 1530 2720 1914 2720 
C 2515 2720 2835 2189 2835 1568 
C 2835 858 2483 378 1894 378 
C 1485 378 1158 646 1050 1037 
C 1037 1101 1024 1171 1024 1242 
L 1024 1798 
z
" transform="scale(0.015625)"/>
       <path id="MyriadPro-Regular-20" transform="scale(0.015625)"/>
       <path id="MyriadPro-Regular-73" d="M 250 147 
C 467 19 781 -70 1120 -70 
C 1856 -70 2278 320 2278 864 
C 2278 1325 2003 1594 1466 1798 
C 1062 1952 877 2067 877 2323 
C 877 2554 1062 2746 1395 2746 
C 1683 2746 1907 2643 2029 2566 
L 2170 2976 
C 1997 3078 1722 3168 1408 3168 
C 742 3168 339 2758 339 2259 
C 339 1888 602 1581 1158 1382 
C 1574 1229 1734 1082 1734 813 
C 1734 557 1542 352 1133 352 
C 851 352 557 467 390 576 
L 250 147 
z
" transform="scale(0.015625)"/>
       <path id="MyriadPro-Regular-61" d="M 2643 1901 
C 2643 2522 2413 3168 1466 3168 
C 1075 3168 704 3059 448 2893 
L 576 2522 
C 794 2662 1094 2752 1382 2752 
C 2016 2752 2086 2291 2086 2035 
L 2086 1971 
C 890 1978 224 1568 224 819 
C 224 371 544 -70 1171 -70 
C 1613 -70 1946 147 2118 390 
L 2138 390 
L 2182 0 
L 2694 0 
C 2656 211 2643 474 2643 742 
L 2643 1901 
z
M 2099 1043 
C 2099 986 2086 922 2067 864 
C 1978 602 1722 346 1318 346 
C 1030 346 787 518 787 883 
C 787 1485 1485 1594 2099 1581 
L 2099 1043 
z
" transform="scale(0.015625)"/>
       <path id="MyriadPro-Regular-72" d="M 467 0 
L 1024 0 
L 1024 1651 
C 1024 1747 1037 1837 1050 1914 
C 1126 2336 1408 2637 1805 2637 
C 1882 2637 1939 2630 1997 2618 
L 1997 3149 
C 1946 3162 1901 3168 1837 3168 
C 1459 3168 1120 2906 979 2490 
L 954 2490 
L 934 3098 
L 442 3098 
C 461 2810 467 2496 467 2131 
L 467 0 
z
" transform="scale(0.015625)"/>
      </defs>
      <use xlink:href="#MyriadPro-Regular-47"/>
      <use xlink:href="#MyriadPro-Regular-69" x="64.599991"/>
      <use xlink:href="#MyriadPro-Regular-74" x="87.999985"/>
      <use xlink:href="#MyriadPro-Regular-48" x="121.099976"/>
      <use xlink:href="#MyriadPro-Regular-75" x="186.299973"/>
      <use xlink:href="#MyriadPro-Regular-62" x="241.399963"/>
      <use xlink:href="#MyriadPro-Regular-20" x="298.299957"/>
      <use xlink:href="#MyriadPro-Regular-73" x="319.499954"/>
      <use xlink:href="#MyriadPro-Regular-74" x="359.099945"/>
      <use xlink:href="#MyriadPro-Regular-61" x="392.199936"/>
      <use xlink:href="#MyriadPro-Regular-72" x="440.399933"/>
      <use xlink:href="#MyriadPro-Regular-73" x="473.09993"/>
     </g>
    </g>
   </g>
   <g id="line2d_26">
    <path d="M 136.509935 297.894927 
L 138.713941 295.286941 
L 147.387769 294.39457 
L 156.132694 293.250826 
L 162.460323 292.49671 
L 177.675071 290.796806 
L 197.226734 289.382837 
L 210.095282 288.990068 
L 231.85095 286.768567 
L 234.054956 286.385224 
L 238.249676 285.891906 
L 240.382585 285.565123 
L 244.719499 285.144074 
L 253.464424 284.022326 
L 257.801339 283.525866 
L 261.996059 283.126813 
L 268.536979 282.124466 
L 318.304846 277.612336 
L 331.386686 276.641411 
L 339.91832 276.04126 
L 344.255235 275.72076 
L 355.133069 275.133178 
L 361.673988 274.677566 
L 383.287462 273.536964 
L 389.828382 273.119058 
L 435.259336 271.255762 
L 439.59625 271.142645 
L 439.59625 271.142645 
" clip-path="url(#p9a65de7323)" style="fill: none; stroke: #98df8a; stroke-width: 1.5; stroke-linecap: square"/>
   </g>
   <g id="line2d_27">
    <path d="M 173.338157 297.894927 
L 175.542163 297.891785 
L 177.675071 297.891785 
L 179.879077 297.891785 
L 182.083083 297.891785 
L 184.144894 297.891785 
L 186.3489 297.891785 
L 188.481808 297.891785 
L 190.685814 297.891785 
L 192.818723 297.891785 
L 195.022728 297.891785 
L 197.226734 297.891785 
L 199.359642 297.891785 
L 201.563648 297.891785 
L 203.696557 297.891785 
L 205.900562 297.891785 
L 208.104568 297.891785 
L 210.095282 297.891785 
L 212.299288 297.891785 
L 214.432197 297.888643 
L 216.636202 297.885501 
L 218.769111 297.885501 
L 220.973116 297.876074 
L 223.177122 297.86979 
L 225.310031 297.857221 
L 227.514036 297.857221 
L 229.646945 297.844653 
L 231.85095 296.581508 
L 234.054956 296.49667 
L 236.045671 296.449537 
L 238.249676 296.408689 
L 240.382585 296.370983 
L 242.58659 296.289287 
L 244.719499 296.182454 
L 246.923505 296.141606 
L 249.12751 296.094474 
L 251.260419 296.05991 
L 253.464424 296.003352 
L 255.597333 295.968788 
L 257.801339 295.937366 
L 260.005344 295.899661 
L 261.996059 295.861955 
L 264.200064 295.827391 
L 266.332973 295.780259 
L 268.536979 295.764548 
L 270.669887 295.742553 
L 272.873893 295.701705 
L 275.077898 295.579161 
L 277.210807 295.233524 
L 279.414813 295.09527 
L 281.547721 294.953873 
L 283.751727 294.831329 
L 285.955732 294.664795 
L 288.017544 294.473124 
L 290.22155 288.644432 
L 292.354458 287.418992 
L 294.558464 286.75914 
L 296.691372 286.294102 
L 298.895378 285.863627 
L 301.099384 285.184922 
L 303.232292 284.738737 
L 305.436298 284.179433 
L 307.569206 283.362474 
L 309.773212 282.756039 
L 311.977218 281.788256 
L 313.967932 280.980723 
L 316.171938 280.116631 
L 318.304846 279.321666 
L 320.508852 278.413584 
L 322.641761 277.643757 
L 324.845766 276.87393 
L 327.049772 276.154377 
L 329.18268 275.557368 
L 331.386686 274.869237 
L 333.519595 274.165395 
L 335.7236 273.612376 
L 337.927606 272.804843 
L 339.91832 272.210976 
L 342.122326 271.591972 
L 344.255235 271.016958 
L 346.45924 270.410523 
L 348.592149 269.917205 
L 350.796154 269.423887 
L 353.00016 268.933712 
L 355.133069 268.346129 
L 357.337074 267.808821 
L 359.469983 267.214954 
L 361.673988 266.696499 
L 363.877994 266.159191 
L 365.868709 265.665874 
L 368.072714 265.175698 
L 370.205623 264.732654 
L 372.409628 264.368165 
L 374.542537 263.987964 
L 376.746543 263.516642 
L 378.950548 262.938486 
L 381.083457 262.187511 
L 383.287462 261.618782 
L 385.420371 261.291998 
L 387.624377 260.949503 
L 389.828382 260.610151 
L 391.890194 260.273941 
L 394.094199 259.925162 
L 396.227108 259.51354 
L 398.431114 259.073639 
L 400.564022 258.756281 
L 402.768028 258.416929 
L 404.972033 258.130993 
L 407.104942 257.813636 
L 409.308948 257.511989 
L 411.441856 257.29518 
L 413.645862 257.037524 
L 415.849867 256.78301 
L 417.840582 256.597623 
L 420.044588 256.311687 
L 422.177496 256.110589 
L 424.381502 255.862359 
L 426.51441 255.654977 
L 428.718416 255.435026 
L 430.922422 255.237071 
L 433.05533 255.020262 
L 435.259336 254.819165 
L 437.392244 254.586645 
L 439.59625 254.38869 
" clip-path="url(#p9a65de7323)" style="fill: none; stroke: #ffbb78; stroke-width: 1.5; stroke-linecap: square"/>
   </g>
   <g id="line2d_28">
    <path d="M 184.144894 297.894927 
L 186.3489 297.806947 
L 188.481808 297.800663 
L 190.685814 297.800663 
L 192.818723 297.800663 
L 195.022728 297.800663 
L 197.226734 297.79752 
L 199.359642 297.79752 
L 201.563648 297.79752 
L 203.696557 297.79752 
L 205.900562 297.794378 
L 208.104568 297.794378 
L 210.095282 297.209938 
L 212.299288 293.970379 
L 214.432197 292.971175 
L 216.636202 292.502994 
L 218.769111 291.613765 
L 220.973116 290.492017 
L 223.177122 289.788175 
L 225.310031 288.961789 
L 227.514036 287.997148 
L 229.646945 286.592606 
L 231.85095 285.486569 
L 234.054956 284.477938 
L 236.045671 283.437886 
L 238.249676 282.388407 
L 240.382585 281.404913 
L 242.58659 280.5094 
L 244.719499 279.723862 
L 246.923505 278.708947 
L 249.12751 277.499218 
L 251.260419 276.512582 
L 253.464424 275.5448 
L 255.597333 274.410483 
L 257.801339 273.558959 
L 260.005344 272.396363 
L 261.996059 271.362595 
L 264.200064 269.85122 
L 266.332973 268.789173 
L 268.536979 267.774258 
L 270.669887 266.903881 
L 272.873893 265.92353 
L 275.077898 265.009164 
L 277.210807 263.906268 
L 279.414813 262.903922 
L 281.547721 261.945565 
L 283.751727 260.924366 
L 285.955732 259.918877 
L 288.017544 258.916531 
L 290.22155 257.823062 
L 292.354458 256.896127 
L 294.558464 255.956624 
L 296.691372 255.164801 
L 298.895378 254.467244 
L 301.099384 253.691132 
L 303.232292 252.949584 
L 305.436298 252.186041 
L 307.569206 251.397361 
L 309.773212 250.662097 
L 311.977218 249.955113 
L 313.967932 249.266982 
L 316.171938 248.503439 
L 318.304846 247.909572 
L 320.508852 247.208872 
L 322.641761 246.608721 
L 324.845766 246.058845 
L 327.049772 245.527821 
L 329.18268 244.999939 
L 331.386686 244.56318 
L 333.519595 244.063578 
L 335.7236 243.585971 
L 337.927606 243.076942 
L 339.91832 242.630757 
L 342.122326 242.002326 
L 344.255235 241.084818 
L 346.45924 240.506662 
L 348.592149 239.915937 
L 350.796154 239.369203 
L 353.00016 238.894738 
L 355.133069 238.354288 
L 357.337074 237.870396 
L 359.469983 237.421069 
L 361.673988 237.003162 
L 363.877994 236.544408 
L 365.868709 236.161066 
L 368.072714 235.771439 
L 370.205623 235.353533 
L 372.409628 234.951337 
L 374.542537 234.690539 
L 376.746543 234.322907 
L 378.950548 234.027544 
L 381.083457 233.798167 
L 383.287462 233.487094 
L 385.420371 233.198016 
L 387.624377 232.934076 
L 389.828382 232.685846 
L 391.890194 232.418763 
L 394.094199 232.230233 
L 396.227108 231.969435 
L 398.431114 231.69921 
L 400.564022 231.428985 
L 402.768028 231.227887 
L 404.972033 231.023647 
L 407.104942 230.743996 
L 409.308948 230.476913 
L 411.441856 230.238109 
L 413.645862 229.964742 
L 415.849867 229.75736 
L 417.840582 229.581399 
L 420.044588 229.399154 
L 422.177496 229.229478 
L 424.381502 229.062944 
L 426.51441 228.927832 
L 428.718416 228.805288 
L 430.922422 228.641896 
L 433.05533 228.494215 
L 435.259336 228.315112 
L 437.392244 228.192568 
L 439.59625 228.03546 
" clip-path="url(#p9a65de7323)" style="fill: none; stroke: #aec7e8; stroke-width: 1.5; stroke-linecap: square"/>
   </g>
   <g id="text_18">
    <!-- nodejs/node -->
    <g style="fill: #1f77b4" transform="translate(450.30985 35.276365)scale(0.14 -0.14)">
     <defs>
      <path id="MyriadPro-Regular-6e" d="M 467 0 
L 1030 0 
L 1030 1862 
C 1030 1958 1043 2054 1069 2125 
C 1165 2438 1453 2701 1824 2701 
C 2355 2701 2541 2285 2541 1786 
L 2541 0 
L 3104 0 
L 3104 1850 
C 3104 2912 2438 3168 2010 3168 
C 1498 3168 1139 2880 986 2586 
L 973 2586 
L 941 3098 
L 442 3098 
C 461 2842 467 2579 467 2259 
L 467 0 
z
" transform="scale(0.015625)"/>
      <path id="MyriadPro-Regular-6f" d="M 1779 3168 
C 922 3168 243 2560 243 1523 
C 243 544 890 -70 1728 -70 
C 2477 -70 3270 429 3270 1574 
C 3270 2522 2669 3168 1779 3168 
z
M 1766 2746 
C 2432 2746 2694 2080 2694 1555 
C 2694 858 2291 352 1754 352 
C 1203 352 813 864 813 1542 
C 813 2131 1101 2746 1766 2746 
z
" transform="scale(0.015625)"/>
      <path id="MyriadPro-Regular-64" d="M 2579 4544 
L 2579 2694 
L 2566 2694 
C 2426 2944 2106 3168 1632 3168 
C 877 3168 237 2534 243 1504 
C 243 563 819 -70 1568 -70 
C 2074 -70 2451 192 2624 538 
L 2637 538 
L 2662 0 
L 3168 0 
C 3149 211 3142 525 3142 800 
L 3142 4544 
L 2579 4544 
z
M 2579 1299 
C 2579 1210 2573 1133 2554 1056 
C 2451 634 2106 384 1728 384 
C 1120 384 813 902 813 1530 
C 813 2214 1158 2726 1741 2726 
C 2163 2726 2470 2432 2554 2074 
C 2573 2003 2579 1907 2579 1837 
L 2579 1299 
z
" transform="scale(0.015625)"/>
      <path id="MyriadPro-Regular-65" d="M 2957 1446 
C 2963 1504 2976 1594 2976 1709 
C 2976 2278 2707 3168 1696 3168 
C 794 3168 243 2432 243 1498 
C 243 563 813 -70 1766 -70 
C 2259 -70 2598 38 2797 128 
L 2701 531 
C 2490 442 2246 371 1843 371 
C 1280 371 794 685 781 1446 
L 2957 1446 
z
M 787 1850 
C 832 2240 1082 2765 1651 2765 
C 2285 2765 2438 2208 2432 1850 
L 787 1850 
z
" transform="scale(0.015625)"/>
      <path id="MyriadPro-Regular-6a" d="M -230 -1350 
C 70 -1350 480 -1248 730 -998 
C 1005 -717 1101 -326 1101 275 
L 1101 3098 
L 538 3098 
L 538 493 
C 538 -250 480 -499 326 -672 
C 192 -819 -32 -890 -288 -909 
L -230 -1350 
z
M 826 4320 
C 614 4320 467 4166 467 3968 
C 467 3782 602 3622 813 3622 
C 1037 3622 1171 3782 1165 3968 
C 1165 4166 1030 4320 826 4320 
z
" transform="scale(0.015625)"/>
      <path id="MyriadPro-Regular-2f" d="M 422 -256 
L 2214 4384 
L 1779 4384 
L -6 -256 
L 422 -256 
z
" transform="scale(0.015625)"/>
     </defs>
     <use xlink:href="#MyriadPro-Regular-6e"/>
     <use xlink:href="#MyriadPro-Regular-6f" x="55.499985"/>
     <use xlink:href="#MyriadPro-Regular-64" x="110.399979"/>
     <use xlink:href="#MyriadPro-Regular-65" x="166.799973"/>
     <use xlink:href="#MyriadPro-Regular-6a" x="216.899963"/>
     <use xlink:href="#MyriadPro-Regular-73" x="241.199951"/>
     <use xlink:href="#MyriadPro-Regular-2f" x="280.799942"/>
     <use xlink:href="#MyriadPro-Regular-6e" x="315.09993"/>
     <use xlink:href="#MyriadPro-Regular-6f" x="370.599915"/>
     <use xlink:href="#MyriadPro-Regular-64" x="425.499908"/>
     <use xlink:href="#MyriadPro-Regular-65" x="481.899902"/>
    </g>
   </g>
   <g id="text_19">
    <!-- laravel/laravel -->
    <g style="fill: #ff7f0e" transform="translate(450.30985 86.779038)scale(0.14 -0.14)">
     <defs>
      <path id="MyriadPro-Regular-6c" d="M 467 0 
L 1030 0 
L 1030 4544 
L 467 4544 
L 467 0 
z
" transform="scale(0.015625)"/>
      <path id="MyriadPro-Regular-76" d="M 83 3098 
L 1261 0 
L 1798 0 
L 3014 3098 
L 2426 3098 
L 1824 1357 
C 1722 1075 1632 819 1562 563 
L 1542 563 
C 1478 819 1395 1075 1293 1357 
L 685 3098 
L 83 3098 
z
" transform="scale(0.015625)"/>
     </defs>
     <use xlink:href="#MyriadPro-Regular-6c"/>
     <use xlink:href="#MyriadPro-Regular-61" x="23.599991"/>
     <use xlink:href="#MyriadPro-Regular-72" x="71.799988"/>
     <use xlink:href="#MyriadPro-Regular-61" x="104.499985"/>
     <use xlink:href="#MyriadPro-Regular-76" x="152.699982"/>
     <use xlink:href="#MyriadPro-Regular-65" x="200.799973"/>
     <use xlink:href="#MyriadPro-Regular-6c" x="250.899963"/>
     <use xlink:href="#MyriadPro-Regular-2f" x="274.499954"/>
     <use xlink:href="#MyriadPro-Regular-6c" x="308.799942"/>
     <use xlink:href="#MyriadPro-Regular-61" x="332.399933"/>
     <use xlink:href="#MyriadPro-Regular-72" x="380.59993"/>
     <use xlink:href="#MyriadPro-Regular-61" x="413.299927"/>
     <use xlink:href="#MyriadPro-Regular-76" x="461.499924"/>
     <use xlink:href="#MyriadPro-Regular-65" x="509.599915"/>
     <use xlink:href="#MyriadPro-Regular-6c" x="559.699905"/>
    </g>
   </g>
   <g id="text_20">
    <!-- django/django -->
    <g style="fill: #2ca02c" transform="translate(450.30985 102.418844)scale(0.14 -0.14)">
     <defs>
      <path id="MyriadPro-Regular-67" d="M 3110 2246 
C 3110 2624 3123 2874 3136 3098 
L 2643 3098 
L 2618 2630 
L 2605 2630 
C 2470 2886 2176 3168 1638 3168 
C 928 3168 243 2573 243 1523 
C 243 666 794 13 1562 13 
C 2042 13 2374 243 2547 531 
L 2560 531 
L 2560 186 
C 2560 -595 2138 -896 1562 -896 
C 1178 -896 858 -781 653 -653 
L 512 -1082 
C 762 -1248 1171 -1338 1542 -1338 
C 1933 -1338 2368 -1248 2669 -966 
C 2970 -698 3110 -262 3110 448 
L 3110 2246 
z
M 2554 1318 
C 2554 1222 2541 1114 2509 1018 
C 2387 659 2074 442 1728 442 
C 1120 442 813 947 813 1555 
C 813 2272 1197 2726 1734 2726 
C 2144 2726 2419 2458 2522 2131 
C 2547 2054 2554 1971 2554 1875 
L 2554 1318 
z
" transform="scale(0.015625)"/>
     </defs>
     <use xlink:href="#MyriadPro-Regular-64"/>
     <use xlink:href="#MyriadPro-Regular-6a" x="56.399994"/>
     <use xlink:href="#MyriadPro-Regular-61" x="80.699982"/>
     <use xlink:href="#MyriadPro-Regular-6e" x="128.899979"/>
     <use xlink:href="#MyriadPro-Regular-67" x="184.399963"/>
     <use xlink:href="#MyriadPro-Regular-6f" x="240.299957"/>
     <use xlink:href="#MyriadPro-Regular-2f" x="295.199951"/>
     <use xlink:href="#MyriadPro-Regular-64" x="329.499939"/>
     <use xlink:href="#MyriadPro-Regular-6a" x="385.899933"/>
     <use xlink:href="#MyriadPro-Regular-61" x="410.199921"/>
     <use xlink:href="#MyriadPro-Regular-6e" x="458.399918"/>
     <use xlink:href="#MyriadPro-Regular-67" x="513.899902"/>
     <use xlink:href="#MyriadPro-Regular-6f" x="569.799896"/>
    </g>
   </g>
   <g id="text_21">
    <!-- pallets/flask -->
    <g style="fill: #d62728" transform="translate(450.30985 116.586187)scale(0.14 -0.14)">
     <defs>
      <path id="MyriadPro-Regular-70" d="M 467 -1267 
L 1024 -1267 
L 1024 416 
L 1037 416 
C 1222 109 1581 -70 1990 -70 
C 2720 -70 3398 480 3398 1594 
C 3398 2534 2835 3168 2086 3168 
C 1581 3168 1216 2944 986 2566 
L 973 2566 
L 947 3098 
L 442 3098 
C 454 2803 467 2483 467 2086 
L 467 -1267 
z
M 1024 1792 
C 1024 1869 1043 1952 1062 2022 
C 1171 2445 1530 2720 1914 2720 
C 2509 2720 2835 2189 2835 1568 
C 2835 858 2490 371 1894 371 
C 1491 371 1152 640 1050 1030 
C 1037 1101 1024 1178 1024 1261 
L 1024 1792 
z
" transform="scale(0.015625)"/>
      <path id="MyriadPro-Regular-66" d="M 1082 0 
L 1082 2669 
L 1830 2669 
L 1830 3098 
L 1082 3098 
L 1082 3264 
C 1082 3738 1203 4160 1683 4160 
C 1843 4160 1958 4128 2042 4090 
L 2118 4525 
C 2010 4570 1837 4614 1638 4614 
C 1376 4614 1094 4531 883 4326 
C 621 4077 525 3680 525 3245 
L 525 3098 
L 90 3098 
L 90 2669 
L 525 2669 
L 525 0 
L 1082 0 
z
" transform="scale(0.015625)"/>
      <path id="MyriadPro-Regular-6b" d="M 1024 4544 
L 467 4544 
L 467 0 
L 1024 0 
L 1024 1165 
L 1312 1485 
L 2381 0 
L 3066 0 
L 1702 1824 
L 2899 3098 
L 2221 3098 
L 1312 2029 
C 1222 1920 1114 1786 1037 1677 
L 1024 1677 
L 1024 4544 
z
" transform="scale(0.015625)"/>
     </defs>
     <use xlink:href="#MyriadPro-Regular-70"/>
     <use xlink:href="#MyriadPro-Regular-61" x="56.899994"/>
     <use xlink:href="#MyriadPro-Regular-6c" x="105.099991"/>
     <use xlink:href="#MyriadPro-Regular-6c" x="128.699982"/>
     <use xlink:href="#MyriadPro-Regular-65" x="152.299973"/>
     <use xlink:href="#MyriadPro-Regular-74" x="202.399963"/>
     <use xlink:href="#MyriadPro-Regular-73" x="235.499954"/>
     <use xlink:href="#MyriadPro-Regular-2f" x="275.099945"/>
     <use xlink:href="#MyriadPro-Regular-66" x="309.399933"/>
     <use xlink:href="#MyriadPro-Regular-6c" x="338.59993"/>
     <use xlink:href="#MyriadPro-Regular-61" x="362.199921"/>
     <use xlink:href="#MyriadPro-Regular-73" x="410.399918"/>
     <use xlink:href="#MyriadPro-Regular-6b" x="449.999908"/>
    </g>
   </g>
   <g id="text_22">
    <!-- expressjs/express -->
    <g style="fill: #9467bd" transform="translate(450.30985 130.328062)scale(0.14 -0.14)">
     <defs>
      <path id="MyriadPro-Regular-78" d="M 102 3098 
L 1152 1581 
L 51 0 
L 672 0 
L 1120 698 
C 1235 883 1344 1043 1446 1235 
L 1459 1235 
C 1568 1050 1670 877 1792 698 
L 2246 0 
L 2886 0 
L 1798 1600 
L 2854 3098 
L 2246 3098 
L 1811 2438 
C 1709 2272 1606 2112 1504 1926 
L 1485 1926 
C 1382 2099 1286 2259 1171 2432 
L 730 3098 
L 102 3098 
z
" transform="scale(0.015625)"/>
     </defs>
     <use xlink:href="#MyriadPro-Regular-65"/>
     <use xlink:href="#MyriadPro-Regular-78" x="50.099991"/>
     <use xlink:href="#MyriadPro-Regular-70" x="96.399979"/>
     <use xlink:href="#MyriadPro-Regular-72" x="153.299973"/>
     <use xlink:href="#MyriadPro-Regular-65" x="185.999969"/>
     <use xlink:href="#MyriadPro-Regular-73" x="236.09996"/>
     <use xlink:href="#MyriadPro-Regular-73" x="275.699951"/>
     <use xlink:href="#MyriadPro-Regular-6a" x="315.299942"/>
     <use xlink:href="#MyriadPro-Regular-73" x="339.59993"/>
     <use xlink:href="#MyriadPro-Regular-2f" x="379.199921"/>
     <use xlink:href="#MyriadPro-Regular-65" x="413.499908"/>
     <use xlink:href="#MyriadPro-Regular-78" x="463.599899"/>
     <use xlink:href="#MyriadPro-Regular-70" x="509.899887"/>
     <use xlink:href="#MyriadPro-Regular-72" x="566.799881"/>
     <use xlink:href="#MyriadPro-Regular-65" x="599.499878"/>
     <use xlink:href="#MyriadPro-Regular-73" x="649.599869"/>
     <use xlink:href="#MyriadPro-Regular-73" x="689.19986"/>
    </g>
   </g>
   <g id="text_23">
    <!-- rails/rails -->
    <g style="fill: #8c564b" transform="translate(450.30985 144.509625)scale(0.14 -0.14)">
     <use xlink:href="#MyriadPro-Regular-72"/>
     <use xlink:href="#MyriadPro-Regular-61" x="32.699997"/>
     <use xlink:href="#MyriadPro-Regular-69" x="80.899994"/>
     <use xlink:href="#MyriadPro-Regular-6c" x="104.299988"/>
     <use xlink:href="#MyriadPro-Regular-73" x="127.899979"/>
     <use xlink:href="#MyriadPro-Regular-2f" x="167.499969"/>
     <use xlink:href="#MyriadPro-Regular-72" x="201.799957"/>
     <use xlink:href="#MyriadPro-Regular-61" x="234.499954"/>
     <use xlink:href="#MyriadPro-Regular-69" x="282.699951"/>
     <use xlink:href="#MyriadPro-Regular-6c" x="306.099945"/>
     <use xlink:href="#MyriadPro-Regular-73" x="329.699936"/>
    </g>
   </g>
   <g id="text_24">
    <!-- spring-projects/spring-framework -->
    <g style="fill: #e377c2" transform="translate(450.30985 158.495406)scale(0.14 -0.14)">
     <defs>
      <path id="MyriadPro-Regular-2d" d="M 192 1939 
L 192 1523 
L 1773 1523 
L 1773 1939 
L 192 1939 
z
" transform="scale(0.015625)"/>
      <path id="MyriadPro-Regular-63" d="M 2579 538 
C 2419 467 2208 384 1888 384 
C 1274 384 813 826 813 1542 
C 813 2189 1197 2714 1907 2714 
C 2214 2714 2426 2643 2560 2566 
L 2688 3002 
C 2534 3078 2240 3162 1907 3162 
C 896 3162 243 2470 243 1517 
C 243 570 851 -70 1786 -70 
C 2202 -70 2528 38 2675 115 
L 2579 538 
z
" transform="scale(0.015625)"/>
      <path id="MyriadPro-Regular-6d" d="M 467 0 
L 1018 0 
L 1018 1869 
C 1018 1965 1030 2061 1062 2144 
C 1152 2426 1408 2707 1760 2707 
C 2189 2707 2406 2349 2406 1856 
L 2406 0 
L 2957 0 
L 2957 1914 
C 2957 2016 2976 2118 3002 2195 
C 3098 2470 3347 2707 3667 2707 
C 4122 2707 4339 2349 4339 1754 
L 4339 0 
L 4890 0 
L 4890 1824 
C 4890 2899 4282 3168 3872 3168 
C 3578 3168 3373 3091 3187 2950 
C 3059 2854 2938 2720 2842 2547 
L 2829 2547 
C 2694 2912 2374 3168 1952 3168 
C 1440 3168 1152 2893 979 2598 
L 960 2598 
L 934 3098 
L 442 3098 
C 461 2842 467 2579 467 2259 
L 467 0 
z
" transform="scale(0.015625)"/>
      <path id="MyriadPro-Regular-77" d="M 115 3098 
L 1050 0 
L 1562 0 
L 2061 1472 
C 2170 1805 2266 2125 2342 2496 
L 2355 2496 
C 2432 2131 2522 1824 2630 1478 
L 3104 0 
L 3616 0 
L 4614 3098 
L 4058 3098 
L 3616 1542 
C 3514 1178 3430 851 3379 538 
L 3360 538 
C 3290 851 3200 1178 3085 1549 
L 2605 3098 
L 2131 3098 
L 1626 1523 
C 1523 1184 1421 851 1350 538 
L 1331 538 
C 1274 858 1190 1178 1101 1523 
L 691 3098 
L 115 3098 
z
" transform="scale(0.015625)"/>
     </defs>
     <use xlink:href="#MyriadPro-Regular-73"/>
     <use xlink:href="#MyriadPro-Regular-70" x="39.599991"/>
     <use xlink:href="#MyriadPro-Regular-72" x="96.499985"/>
     <use xlink:href="#MyriadPro-Regular-69" x="129.199982"/>
     <use xlink:href="#MyriadPro-Regular-6e" x="152.599976"/>
     <use xlink:href="#MyriadPro-Regular-67" x="208.09996"/>
     <use xlink:href="#MyriadPro-Regular-2d" x="263.999954"/>
     <use xlink:href="#MyriadPro-Regular-70" x="294.699951"/>
     <use xlink:href="#MyriadPro-Regular-72" x="351.599945"/>
     <use xlink:href="#MyriadPro-Regular-6f" x="384.299942"/>
     <use xlink:href="#MyriadPro-Regular-6a" x="439.199936"/>
     <use xlink:href="#MyriadPro-Regular-65" x="463.499924"/>
     <use xlink:href="#MyriadPro-Regular-63" x="513.599915"/>
     <use xlink:href="#MyriadPro-Regular-74" x="558.399902"/>
     <use xlink:href="#MyriadPro-Regular-73" x="591.499893"/>
     <use xlink:href="#MyriadPro-Regular-2f" x="631.099884"/>
     <use xlink:href="#MyriadPro-Regular-73" x="665.399872"/>
     <use xlink:href="#MyriadPro-Regular-70" x="704.999863"/>
     <use xlink:href="#MyriadPro-Regular-72" x="761.899857"/>
     <use xlink:href="#MyriadPro-Regular-69" x="794.599854"/>
     <use xlink:href="#MyriadPro-Regular-6e" x="817.999847"/>
     <use xlink:href="#MyriadPro-Regular-67" x="873.499832"/>
     <use xlink:href="#MyriadPro-Regular-2d" x="929.399826"/>
     <use xlink:href="#MyriadPro-Regular-66" x="960.099823"/>
     <use xlink:href="#MyriadPro-Regular-72" x="989.29982"/>
     <use xlink:href="#MyriadPro-Regular-61" x="1021.999817"/>
     <use xlink:href="#MyriadPro-Regular-6d" x="1070.199814"/>
     <use xlink:href="#MyriadPro-Regular-65" x="1153.599808"/>
     <use xlink:href="#MyriadPro-Regular-77" x="1203.699799"/>
     <use xlink:href="#MyriadPro-Regular-6f" x="1277.299789"/>
     <use xlink:href="#MyriadPro-Regular-72" x="1332.199783"/>
     <use xlink:href="#MyriadPro-Regular-6b" x="1364.89978"/>
    </g>
   </g>
   <g id="text_25">
    <!-- koajs/koa -->
    <g style="fill: #7f7f7f" transform="translate(450.30985 195.401007)scale(0.14 -0.14)">
     <use xlink:href="#MyriadPro-Regular-6b"/>
     <use xlink:href="#MyriadPro-Regular-6f" x="46.899994"/>
     <use xlink:href="#MyriadPro-Regular-61" x="101.799988"/>
     <use xlink:href="#MyriadPro-Regular-6a" x="149.999985"/>
     <use xlink:href="#MyriadPro-Regular-73" x="174.299973"/>
     <use xlink:href="#MyriadPro-Regular-2f" x="213.899963"/>
     <use xlink:href="#MyriadPro-Regular-6b" x="248.199951"/>
     <use xlink:href="#MyriadPro-Regular-6f" x="295.099945"/>
     <use xlink:href="#MyriadPro-Regular-61" x="349.999939"/>
    </g>
   </g>
   <g id="text_26">
    <!-- dotnet/aspnetcore -->
    <g style="fill: #bcbd22" transform="translate(450.30985 209.491788)scale(0.14 -0.14)">
     <use xlink:href="#MyriadPro-Regular-64"/>
     <use xlink:href="#MyriadPro-Regular-6f" x="56.399994"/>
     <use xlink:href="#MyriadPro-Regular-74" x="111.299988"/>
     <use xlink:href="#MyriadPro-Regular-6e" x="144.399979"/>
     <use xlink:href="#MyriadPro-Regular-65" x="199.899963"/>
     <use xlink:href="#MyriadPro-Regular-74" x="249.999954"/>
     <use xlink:href="#MyriadPro-Regular-2f" x="283.099945"/>
     <use xlink:href="#MyriadPro-Regular-61" x="317.399933"/>
     <use xlink:href="#MyriadPro-Regular-73" x="365.59993"/>
     <use xlink:href="#MyriadPro-Regular-70" x="405.199921"/>
     <use xlink:href="#MyriadPro-Regular-6e" x="462.099915"/>
     <use xlink:href="#MyriadPro-Regular-65" x="517.599899"/>
     <use xlink:href="#MyriadPro-Regular-74" x="567.69989"/>
     <use xlink:href="#MyriadPro-Regular-63" x="600.799881"/>
     <use xlink:href="#MyriadPro-Regular-6f" x="645.599869"/>
     <use xlink:href="#MyriadPro-Regular-72" x="700.499863"/>
     <use xlink:href="#MyriadPro-Regular-65" x="733.19986"/>
    </g>
   </g>
   <g id="text_27">
    <!-- symfony/symfony -->
    <g style="fill: #17becf" transform="translate(450.30985 223.407569)scale(0.14 -0.14)">
     <defs>
      <path id="MyriadPro-Regular-79" d="M 58 3098 
L 1203 243 
C 1229 173 1242 128 1242 96 
C 1242 64 1222 19 1197 -38 
C 1069 -326 877 -544 723 -666 
C 557 -806 371 -896 230 -941 
L 371 -1414 
C 512 -1389 787 -1293 1062 -1050 
C 1446 -717 1722 -173 2125 890 
L 2970 3098 
L 2374 3098 
L 1760 1280 
C 1683 1056 1619 819 1562 634 
L 1549 634 
C 1498 819 1421 1062 1350 1267 
L 672 3098 
L 58 3098 
z
" transform="scale(0.015625)"/>
     </defs>
     <use xlink:href="#MyriadPro-Regular-73"/>
     <use xlink:href="#MyriadPro-Regular-79" x="39.599991"/>
     <use xlink:href="#MyriadPro-Regular-6d" x="86.699982"/>
     <use xlink:href="#MyriadPro-Regular-66" x="170.099976"/>
     <use xlink:href="#MyriadPro-Regular-6f" x="199.299973"/>
     <use xlink:href="#MyriadPro-Regular-6e" x="254.199966"/>
     <use xlink:href="#MyriadPro-Regular-79" x="309.699951"/>
     <use xlink:href="#MyriadPro-Regular-2f" x="356.799942"/>
     <use xlink:href="#MyriadPro-Regular-73" x="391.09993"/>
     <use xlink:href="#MyriadPro-Regular-79" x="430.699921"/>
     <use xlink:href="#MyriadPro-Regular-6d" x="477.799911"/>
     <use xlink:href="#MyriadPro-Regular-66" x="561.199905"/>
     <use xlink:href="#MyriadPro-Regular-6f" x="590.399902"/>
     <use xlink:href="#MyriadPro-Regular-6e" x="645.299896"/>
     <use xlink:href="#MyriadPro-Regular-79" x="700.799881"/>
    </g>
   </g>
   <g id="text_28">
    <!-- balderdashy/sails -->
    <g style="fill: #aec7e8" transform="translate(450.30985 237.331007)scale(0.14 -0.14)">
     <defs>
      <path id="MyriadPro-Regular-68" d="M 467 0 
L 1030 0 
L 1030 1869 
C 1030 1978 1037 2061 1069 2138 
C 1171 2445 1459 2701 1824 2701 
C 2355 2701 2541 2278 2541 1779 
L 2541 0 
L 3104 0 
L 3104 1843 
C 3104 2912 2438 3168 2022 3168 
C 1811 3168 1613 3104 1446 3008 
C 1274 2912 1133 2771 1043 2611 
L 1030 2611 
L 1030 4544 
L 467 4544 
L 467 0 
z
" transform="scale(0.015625)"/>
     </defs>
     <use xlink:href="#MyriadPro-Regular-62"/>
     <use xlink:href="#MyriadPro-Regular-61" x="56.899994"/>
     <use xlink:href="#MyriadPro-Regular-6c" x="105.099991"/>
     <use xlink:href="#MyriadPro-Regular-64" x="128.699982"/>
     <use xlink:href="#MyriadPro-Regular-65" x="185.099976"/>
     <use xlink:href="#MyriadPro-Regular-72" x="235.199966"/>
     <use xlink:href="#MyriadPro-Regular-64" x="267.899963"/>
     <use xlink:href="#MyriadPro-Regular-61" x="324.299957"/>
     <use xlink:href="#MyriadPro-Regular-73" x="372.499954"/>
     <use xlink:href="#MyriadPro-Regular-68" x="412.099945"/>
     <use xlink:href="#MyriadPro-Regular-79" x="467.59993"/>
     <use xlink:href="#MyriadPro-Regular-2f" x="514.699921"/>
     <use xlink:href="#MyriadPro-Regular-73" x="548.999908"/>
     <use xlink:href="#MyriadPro-Regular-61" x="588.599899"/>
     <use xlink:href="#MyriadPro-Regular-69" x="636.799896"/>
     <use xlink:href="#MyriadPro-Regular-6c" x="660.19989"/>
     <use xlink:href="#MyriadPro-Regular-73" x="683.799881"/>
    </g>
   </g>
   <g id="text_29">
    <!-- feathersjs/feathers -->
    <g style="fill: #ffbb78" transform="translate(450.30985 257.95869)scale(0.14 -0.14)">
     <use xlink:href="#MyriadPro-Regular-66"/>
     <use xlink:href="#MyriadPro-Regular-65" x="29.199997"/>
     <use xlink:href="#MyriadPro-Regular-61" x="79.299988"/>
     <use xlink:href="#MyriadPro-Regular-74" x="127.499985"/>
     <use xlink:href="#MyriadPro-Regular-68" x="160.599976"/>
     <use xlink:href="#MyriadPro-Regular-65" x="216.09996"/>
     <use xlink:href="#MyriadPro-Regular-72" x="266.199951"/>
     <use xlink:href="#MyriadPro-Regular-73" x="298.899948"/>
     <use xlink:href="#MyriadPro-Regular-6a" x="338.499939"/>
     <use xlink:href="#MyriadPro-Regular-73" x="362.799927"/>
     <use xlink:href="#MyriadPro-Regular-2f" x="402.399918"/>
     <use xlink:href="#MyriadPro-Regular-66" x="436.699905"/>
     <use xlink:href="#MyriadPro-Regular-65" x="465.899902"/>
     <use xlink:href="#MyriadPro-Regular-61" x="515.999893"/>
     <use xlink:href="#MyriadPro-Regular-74" x="564.19989"/>
     <use xlink:href="#MyriadPro-Regular-68" x="597.299881"/>
     <use xlink:href="#MyriadPro-Regular-65" x="652.799866"/>
     <use xlink:href="#MyriadPro-Regular-72" x="702.899857"/>
     <use xlink:href="#MyriadPro-Regular-73" x="735.599854"/>
    </g>
   </g>
   <g id="text_30">
    <!-- cakephp/cakephp -->
    <g style="fill: #98df8a" transform="translate(450.30985 274.726863)scale(0.14 -0.14)">
     <use xlink:href="#MyriadPro-Regular-63"/>
     <use xlink:href="#MyriadPro-Regular-61" x="44.799988"/>
     <use xlink:href="#MyriadPro-Regular-6b" x="92.999985"/>
     <use xlink:href="#MyriadPro-Regular-65" x="139.899979"/>
     <use xlink:href="#MyriadPro-Regular-70" x="189.999969"/>
     <use xlink:href="#MyriadPro-Regular-68" x="246.899963"/>
     <use xlink:href="#MyriadPro-Regular-70" x="302.399948"/>
     <use xlink:href="#MyriadPro-Regular-2f" x="359.299942"/>
     <use xlink:href="#MyriadPro-Regular-63" x="393.59993"/>
     <use xlink:href="#MyriadPro-Regular-61" x="438.399918"/>
     <use xlink:href="#MyriadPro-Regular-6b" x="486.599915"/>
     <use xlink:href="#MyriadPro-Regular-65" x="533.499908"/>
     <use xlink:href="#MyriadPro-Regular-70" x="583.599899"/>
     <use xlink:href="#MyriadPro-Regular-68" x="640.499893"/>
     <use xlink:href="#MyriadPro-Regular-70" x="695.999878"/>
    </g>
   </g>
   <g id="text_31">
    <!-- @nschloe / gh-trends | Nico Schlmer | CC BY -->
    <g style="fill: #b0b0b0" transform="translate(82.47625 331.793127)scale(0.09716 -0.09716)">
     <defs>
      <path id="MyriadPro-Regular-40" d="M 2867 1632 
C 2797 1235 2458 762 2086 762 
C 1805 762 1664 966 1664 1248 
C 1664 1869 2118 2400 2682 2400 
C 2829 2400 2938 2374 3002 2355 
L 2867 1632 
z
M 3251 -141 
C 2989 -288 2650 -365 2285 -365 
C 1338 -365 640 301 640 1370 
C 640 2669 1517 3501 2560 3501 
C 3552 3501 4109 2829 4109 1901 
C 4109 1158 3744 723 3418 730 
C 3206 736 3130 960 3226 1446 
L 3443 2605 
C 3277 2682 3034 2739 2758 2739 
C 1869 2739 1242 2016 1242 1222 
C 1242 717 1562 416 1933 416 
C 2317 416 2611 602 2835 979 
L 2861 979 
C 2842 589 3078 416 3334 416 
C 3936 416 4474 979 4474 1939 
C 4474 3008 3725 3795 2611 3795 
C 1190 3795 275 2650 275 1331 
C 275 96 1165 -672 2214 -672 
C 2643 -672 3002 -602 3354 -416 
L 3251 -141 
z
" transform="scale(0.015625)"/>
      <path id="MyriadPro-Regular-7c" d="M 550 4800 
L 550 -1600 
L 979 -1600 
L 979 4800 
L 550 4800 
z
" transform="scale(0.015625)"/>
      <path id="MyriadPro-Regular-4e" d="M 1011 0 
L 1011 1843 
C 1011 2560 998 3078 966 3622 
L 986 3629 
C 1203 3162 1491 2669 1792 2189 
L 3162 0 
L 3725 0 
L 3725 4314 
L 3200 4314 
L 3200 2509 
C 3200 1837 3213 1312 3264 736 
L 3251 730 
C 3046 1171 2797 1626 2477 2131 
L 1094 4314 
L 486 4314 
L 486 0 
L 1011 0 
z
" transform="scale(0.015625)"/>
      <path id="MyriadPro-Regular-53" d="M 269 211 
C 499 58 954 -70 1370 -70 
C 2387 -70 2880 512 2880 1178 
C 2880 1811 2509 2163 1779 2445 
C 1184 2675 922 2874 922 3277 
C 922 3571 1146 3923 1734 3923 
C 2125 3923 2413 3795 2554 3718 
L 2707 4173 
C 2515 4282 2195 4384 1754 4384 
C 915 4384 358 3885 358 3213 
C 358 2605 794 2240 1498 1990 
C 2080 1766 2310 1536 2310 1133 
C 2310 698 1978 397 1408 397 
C 1024 397 659 525 410 678 
L 269 211 
z
" transform="scale(0.015625)"/>
      <path id="MyriadPro-Regular-f6" d="M 1165 3648 
C 1350 3648 1478 3802 1478 3974 
C 1478 4160 1344 4301 1165 4301 
C 986 4301 838 4154 838 3974 
C 838 3802 973 3648 1158 3648 
L 1165 3648 
z
M 2349 3648 
C 2534 3648 2662 3802 2662 3974 
C 2662 4160 2528 4301 2349 4301 
C 2170 4301 2029 4154 2029 3974 
C 2029 3802 2157 3648 2342 3648 
L 2349 3648 
z
M 1779 3168 
C 922 3168 243 2560 243 1523 
C 243 544 890 -70 1728 -70 
C 2477 -70 3270 429 3270 1574 
C 3270 2522 2669 3168 1779 3168 
z
M 1766 2746 
C 2432 2746 2694 2080 2694 1555 
C 2694 858 2291 352 1754 352 
C 1203 352 813 864 813 1542 
C 813 2131 1101 2746 1766 2746 
z
" transform="scale(0.015625)"/>
      <path id="MyriadPro-Regular-43" d="M 3386 582 
C 3162 474 2816 403 2477 403 
C 1427 403 819 1082 819 2138 
C 819 3270 1491 3917 2502 3917 
C 2861 3917 3162 3840 3373 3738 
L 3507 4192 
C 3360 4269 3021 4384 2483 4384 
C 1146 4384 230 3469 230 2118 
C 230 704 1146 -70 2362 -70 
C 2886 -70 3296 38 3501 141 
L 3386 582 
z
" transform="scale(0.015625)"/>
      <path id="MyriadPro-Regular-42" d="M 486 13 
C 672 -13 966 -38 1350 -38 
C 2054 -38 2541 90 2842 365 
C 3059 576 3206 858 3206 1229 
C 3206 1869 2726 2208 2317 2310 
L 2317 2323 
C 2771 2490 3046 2854 3046 3270 
C 3046 3610 2912 3866 2688 4032 
C 2419 4250 2061 4346 1504 4346 
C 1114 4346 730 4307 486 4256 
L 486 13 
z
M 1043 3878 
C 1133 3898 1280 3917 1536 3917 
C 2099 3917 2483 3718 2483 3213 
C 2483 2797 2138 2490 1549 2490 
L 1043 2490 
L 1043 3878 
z
M 1043 2067 
L 1504 2067 
C 2112 2067 2618 1824 2618 1235 
C 2618 608 2086 397 1510 397 
C 1312 397 1152 403 1043 422 
L 1043 2067 
z
" transform="scale(0.015625)"/>
      <path id="MyriadPro-Regular-59" d="M 2010 0 
L 2010 1837 
L 3456 4314 
L 2822 4314 
L 2202 3123 
C 2035 2797 1888 2515 1766 2234 
L 1754 2234 
C 1619 2534 1491 2797 1325 3123 
L 717 4314 
L 83 4314 
L 1446 1830 
L 1446 0 
L 2010 0 
z
" transform="scale(0.015625)"/>
     </defs>
     <use xlink:href="#MyriadPro-Regular-40"/>
     <use xlink:href="#MyriadPro-Regular-6e" x="73.699982"/>
     <use xlink:href="#MyriadPro-Regular-73" x="129.199966"/>
     <use xlink:href="#MyriadPro-Regular-63" x="168.799957"/>
     <use xlink:href="#MyriadPro-Regular-68" x="213.599945"/>
     <use xlink:href="#MyriadPro-Regular-6c" x="269.09993"/>
     <use xlink:href="#MyriadPro-Regular-6f" x="292.699921"/>
     <use xlink:href="#MyriadPro-Regular-65" x="347.599915"/>
     <use xlink:href="#MyriadPro-Regular-20" x="397.699905"/>
     <use xlink:href="#MyriadPro-Regular-2f" x="418.899902"/>
     <use xlink:href="#MyriadPro-Regular-20" x="453.19989"/>
     <use xlink:href="#MyriadPro-Regular-67" x="474.399887"/>
     <use xlink:href="#MyriadPro-Regular-68" x="530.299881"/>
     <use xlink:href="#MyriadPro-Regular-2d" x="585.799866"/>
     <use xlink:href="#MyriadPro-Regular-74" x="616.499863"/>
     <use xlink:href="#MyriadPro-Regular-72" x="649.599854"/>
     <use xlink:href="#MyriadPro-Regular-65" x="682.29985"/>
     <use xlink:href="#MyriadPro-Regular-6e" x="732.399841"/>
     <use xlink:href="#MyriadPro-Regular-64" x="787.899826"/>
     <use xlink:href="#MyriadPro-Regular-73" x="844.29982"/>
     <use xlink:href="#MyriadPro-Regular-20" x="883.899811"/>
     <use xlink:href="#MyriadPro-Regular-7c" x="905.099808"/>
     <use xlink:href="#MyriadPro-Regular-20" x="928.999802"/>
     <use xlink:href="#MyriadPro-Regular-4e" x="950.199799"/>
     <use xlink:href="#MyriadPro-Regular-69" x="1015.999786"/>
     <use xlink:href="#MyriadPro-Regular-63" x="1039.39978"/>
     <use xlink:href="#MyriadPro-Regular-6f" x="1084.199768"/>
     <use xlink:href="#MyriadPro-Regular-20" x="1139.099762"/>
     <use xlink:href="#MyriadPro-Regular-53" x="1160.299759"/>
     <use xlink:href="#MyriadPro-Regular-63" x="1209.599747"/>
     <use xlink:href="#MyriadPro-Regular-68" x="1254.399734"/>
     <use xlink:href="#MyriadPro-Regular-6c" x="1309.899719"/>
     <use xlink:href="#MyriadPro-Regular-f6" x="1333.49971"/>
     <use xlink:href="#MyriadPro-Regular-6d" x="1388.399704"/>
     <use xlink:href="#MyriadPro-Regular-65" x="1471.799698"/>
     <use xlink:href="#MyriadPro-Regular-72" x="1521.899689"/>
     <use xlink:href="#MyriadPro-Regular-20" x="1554.599686"/>
     <use xlink:href="#MyriadPro-Regular-7c" x="1575.799683"/>
     <use xlink:href="#MyriadPro-Regular-20" x="1599.699677"/>
     <use xlink:href="#MyriadPro-Regular-43" x="1620.899673"/>
     <use xlink:href="#MyriadPro-Regular-43" x="1678.899658"/>
     <use xlink:href="#MyriadPro-Regular-20" x="1736.899643"/>
     <use xlink:href="#MyriadPro-Regular-42" x="1758.09964"/>
     <use xlink:href="#MyriadPro-Regular-59" x="1812.299637"/>
    </g>
   </g>
   <g id="line2d_29">
    <path d="M 127.978301 297.894927 
L 130.182306 294.831329 
L 132.173021 294.344295 
L 140.846849 292.911474 
L 156.132694 289.935856 
L 158.123409 289.426827 
L 160.327415 288.719843 
L 169.001243 286.752856 
L 177.675071 285.200633 
L 182.083083 284.537639 
L 188.481808 283.579282 
L 195.022728 282.790602 
L 205.900562 282.356985 
L 208.104568 282.300427 
L 210.095282 282.080476 
L 214.432197 281.115835 
L 231.85095 278.118222 
L 234.054956 277.492934 
L 236.045671 277.071886 
L 238.249676 276.251784 
L 240.382585 275.774177 
L 244.719499 275.06405 
L 255.597333 272.710578 
L 261.996059 271.240051 
L 281.547721 266.41999 
L 283.751727 265.794702 
L 288.017544 264.418439 
L 296.691372 262.12781 
L 301.099384 261.128606 
L 303.232292 260.522171 
L 307.569206 259.510398 
L 311.977218 258.281816 
L 320.508852 255.54186 
L 324.845766 254.404401 
L 327.049772 253.970784 
L 331.386686 252.654222 
L 333.519595 251.881252 
L 335.7236 250.589828 
L 342.122326 247.369122 
L 348.592149 244.673156 
L 353.00016 242.998389 
L 355.133069 242.106017 
L 357.337074 241.468161 
L 359.469983 240.500378 
L 361.673988 239.761972 
L 368.072714 236.852339 
L 370.205623 235.859419 
L 374.542537 234.275774 
L 381.083457 231.982003 
L 387.624377 229.342596 
L 394.094199 227.463589 
L 398.431114 226.272713 
L 400.564022 225.370916 
L 407.104942 223.802982 
L 417.840582 221.04103 
L 420.044588 220.532001 
L 424.381502 218.429902 
L 428.718416 217.443266 
L 435.259336 215.969597 
L 439.59625 214.60276 
L 439.59625 214.60276 
" clip-path="url(#p9a65de7323)" style="fill: none; stroke: #17becf; stroke-width: 1.5; stroke-linecap: square"/>
   </g>
   <g id="line2d_30">
    <path d="M 238.249676 297.894927 
L 240.382585 297.891785 
L 242.58659 296.440111 
L 244.719499 296.100758 
L 246.923505 295.918514 
L 249.12751 295.733127 
L 251.260419 295.488039 
L 253.464424 295.246093 
L 255.597333 293.759855 
L 257.801339 293.28539 
L 260.005344 292.829778 
L 261.996059 292.135362 
L 264.200064 291.472368 
L 266.332973 290.746531 
L 268.536979 289.957851 
L 270.669887 289.56194 
L 272.873893 288.986926 
L 275.077898 288.591015 
L 277.210807 288.157398 
L 279.414813 287.704928 
L 281.547721 287.148767 
L 283.751727 286.658591 
L 285.955732 286.127568 
L 288.017544 285.681382 
L 290.22155 285.18178 
L 292.354458 284.760732 
L 294.558464 284.273698 
L 296.691372 283.789807 
L 298.895378 283.359332 
L 301.099384 283.126813 
L 303.232292 282.818882 
L 305.436298 282.507809 
L 307.569206 282.199878 
L 309.773212 281.907658 
L 311.977218 281.61858 
L 313.967932 281.29808 
L 316.171938 280.943017 
L 318.304846 280.650797 
L 320.508852 280.267454 
L 322.641761 280.016082 
L 324.845766 279.730146 
L 327.049772 279.441068 
L 329.18268 279.170843 
L 331.386686 278.93204 
L 333.519595 278.671241 
L 335.7236 278.375879 
L 337.927606 278.086801 
L 339.91832 277.819718 
L 342.122326 277.540066 
L 344.255235 277.285552 
L 346.45924 276.952484 
L 348.592149 276.6257 
L 350.796154 276.308343 
L 353.00016 276.050686 
L 355.133069 275.824451 
L 357.337074 275.205447 
L 359.469983 274.190532 
L 361.673988 272.478059 
L 363.877994 270.05546 
L 365.868709 268.327276 
L 368.072714 266.090064 
L 370.205623 264.041381 
L 372.409628 262.030404 
L 374.542537 260.522171 
L 376.746543 258.665159 
L 378.950548 257.065803 
L 381.083457 255.705252 
L 383.287462 254.385548 
L 385.420371 252.748486 
L 387.624377 251.255964 
L 389.828382 249.961398 
L 391.890194 248.566282 
L 394.094199 246.907226 
L 396.227108 245.420988 
L 398.431114 243.658241 
L 400.564022 242.28512 
L 402.768028 240.805166 
L 404.972033 239.406909 
L 407.104942 238.137479 
L 409.308948 236.846055 
L 411.441856 235.494929 
L 413.645862 234.29777 
L 415.849867 233.119463 
L 417.840582 231.727489 
L 420.044588 230.442349 
L 422.177496 229.135214 
L 424.381502 221.044172 
L 426.51441 219.944419 
L 428.718416 218.580725 
L 430.922422 216.975085 
L 433.05533 215.994734 
L 435.259336 214.970392 
L 437.392244 213.77009 
L 439.59625 212.66091 
" clip-path="url(#p9a65de7323)" style="fill: none; stroke: #bcbd22; stroke-width: 1.5; stroke-linecap: square"/>
   </g>
   <g id="line2d_31">
    <path d="M 218.769111 297.894927 
L 220.973116 297.888643 
L 223.177122 297.521011 
L 225.310031 297.376472 
L 227.514036 297.32934 
L 229.646945 297.165948 
L 231.85095 291.748878 
L 234.054956 290.309772 
L 236.045671 289.612214 
L 238.249676 288.732412 
L 240.382585 287.814903 
L 242.58659 287.205326 
L 244.719499 286.793704 
L 246.923505 285.904475 
L 249.12751 285.367167 
L 251.260419 284.848712 
L 253.464424 284.336541 
L 255.597333 283.513297 
L 257.801339 282.900578 
L 260.005344 282.388407 
L 261.996059 281.857383 
L 264.200064 281.294938 
L 266.332973 280.622517 
L 268.536979 279.950097 
L 270.669887 279.334235 
L 272.873893 278.674383 
L 275.077898 277.857424 
L 277.210807 277.185003 
L 279.414813 276.210936 
L 281.547721 275.246295 
L 283.751727 274.313076 
L 285.955732 272.619456 
L 288.017544 271.469428 
L 290.22155 270.17172 
L 292.354458 268.933712 
L 294.558464 267.629719 
L 296.691372 266.586524 
L 298.895378 265.505624 
L 301.099384 264.123077 
L 303.232292 262.847363 
L 305.436298 261.678483 
L 307.569206 260.490749 
L 309.773212 259.227604 
L 311.977218 257.989596 
L 313.967932 256.456226 
L 316.171938 254.586645 
L 318.304846 253.10355 
L 320.508852 251.648733 
L 322.641761 250.175064 
L 324.845766 248.845934 
L 327.049772 247.274858 
L 329.18268 245.854605 
L 331.386686 244.468916 
L 333.519595 242.951256 
L 335.7236 241.465018 
L 337.927606 239.812246 
L 339.91832 238.64965 
L 342.122326 236.817775 
L 344.255235 235.161861 
L 346.45924 233.534227 
L 348.592149 232.142253 
L 350.796154 230.734569 
L 353.00016 229.2609 
L 355.133069 227.749525 
L 357.337074 226.476953 
L 359.469983 225.166676 
L 361.673988 223.928668 
L 363.877994 222.630959 
L 365.868709 221.606617 
L 368.072714 220.308909 
L 370.205623 219.030053 
L 372.409628 217.886309 
L 374.542537 217.000222 
L 376.746543 215.71194 
L 378.950548 214.687599 
L 381.083457 213.779517 
L 383.287462 212.934278 
L 385.420371 212.023054 
L 387.624377 211.165246 
L 389.828382 210.527389 
L 391.890194 209.864395 
L 394.094199 209.135416 
L 396.227108 208.315314 
L 398.431114 207.366384 
L 400.564022 206.618552 
L 402.768028 205.980695 
L 404.972033 205.361691 
L 407.104942 204.783535 
L 409.308948 204.170816 
L 411.441856 203.501537 
L 413.645862 202.904528 
L 415.849867 202.276098 
L 417.840582 201.745074 
L 420.044588 201.110359 
L 422.177496 200.522777 
L 424.381502 199.979185 
L 426.51441 199.404171 
L 428.718416 198.913995 
L 430.922422 198.338981 
L 433.05533 197.85509 
L 435.259336 197.342919 
L 437.392244 196.877881 
L 439.59625 196.331146 
" clip-path="url(#p9a65de7323)" style="fill: none; stroke: #7f7f7f; stroke-width: 1.5; stroke-linecap: square"/>
   </g>
   <g id="line2d_32">
    <path d="M 151.724683 297.894927 
L 153.928689 296.462106 
L 164.664329 295.940509 
L 182.083083 294.963299 
L 188.481808 294.495119 
L 197.226734 294.077212 
L 210.095282 293.750429 
L 216.636202 293.040302 
L 220.973116 292.603543 
L 225.310031 291.95626 
L 255.597333 285.423726 
L 261.996059 283.89664 
L 279.414813 278.803211 
L 288.017544 275.774177 
L 290.22155 274.614723 
L 298.895378 270.573915 
L 301.099384 269.254211 
L 303.232292 268.123036 
L 305.436298 267.095553 
L 309.773212 264.704375 
L 313.967932 262.325766 
L 316.171938 260.402769 
L 320.508852 257.2072 
L 322.641761 255.695825 
L 333.519595 246.79725 
L 335.7236 245.194753 
L 337.927606 243.362878 
L 339.91832 242.014895 
L 342.122326 239.601722 
L 346.45924 235.460366 
L 350.796154 231.595519 
L 353.00016 229.477708 
L 355.133069 227.636407 
L 357.337074 225.914508 
L 361.673988 221.729161 
L 365.868709 217.782618 
L 368.072714 214.992387 
L 370.205623 211.922505 
L 374.542537 206.769375 
L 376.746543 204.10483 
L 381.083457 199.34447 
L 387.624377 192.997323 
L 391.890194 189.767191 
L 396.227108 185.594413 
L 398.431114 183.253509 
L 402.768028 179.228413 
L 407.104942 175.819178 
L 409.308948 174.354935 
L 415.849867 169.478315 
L 417.840582 168.177464 
L 420.044588 166.571824 
L 422.177496 164.79965 
L 426.51441 161.927723 
L 433.05533 157.682676 
L 437.392244 155.021273 
L 439.59625 153.607305 
L 439.59625 153.607305 
" clip-path="url(#p9a65de7323)" style="fill: none; stroke: #e377c2; stroke-width: 1.5; stroke-linecap: square"/>
   </g>
   <g id="line2d_33">
    <path d="M 82.47625 297.894927 
L 84.609159 267.32493 
L 156.132694 267.32493 
L 158.123409 266.734205 
L 162.460323 264.68238 
L 169.001243 261.873296 
L 179.879077 257.999023 
L 184.144894 256.509642 
L 188.481808 255.029689 
L 195.022728 253.458613 
L 199.359642 252.949584 
L 208.104568 252.409134 
L 210.095282 251.730429 
L 214.432197 249.540349 
L 223.177122 245.851463 
L 225.310031 245.01565 
L 229.646945 243.507417 
L 234.054956 241.911204 
L 238.249676 239.96307 
L 240.382585 238.753341 
L 246.923505 235.784007 
L 251.260419 233.505947 
L 253.464424 232.472179 
L 255.597333 231.114769 
L 260.005344 229.009528 
L 264.200064 226.703188 
L 268.536979 224.110913 
L 270.669887 222.876047 
L 272.873893 221.729161 
L 275.077898 220.349757 
L 277.210807 219.278283 
L 279.414813 218.01828 
L 281.547721 216.949948 
L 283.751727 215.702514 
L 285.955732 214.200565 
L 288.017544 212.651484 
L 298.895378 205.389971 
L 301.099384 204.04513 
L 309.773212 199.567563 
L 311.977218 198.386114 
L 316.171938 195.643015 
L 327.049772 189.644647 
L 329.18268 188.639158 
L 339.91832 182.763334 
L 344.255235 180.365872 
L 357.337074 173.72022 
L 361.673988 171.995179 
L 374.542537 165.509777 
L 378.950548 163.561642 
L 383.287462 161.90887 
L 396.227108 157.604122 
L 400.564022 155.879081 
L 404.972033 154.295436 
L 407.104942 153.327653 
L 409.308948 152.582963 
L 413.645862 150.644255 
L 417.840582 149.032331 
L 420.044588 147.612079 
L 424.381502 146.000155 
L 430.922422 143.916908 
L 437.392244 141.563436 
L 439.59625 140.24059 
L 439.59625 140.24059 
" clip-path="url(#p9a65de7323)" style="fill: none; stroke: #8c564b; stroke-width: 1.5; stroke-linecap: square"/>
   </g>
   <g id="line2d_34">
    <path d="M 112.763552 297.894927 
L 114.896461 292.455862 
L 121.437381 291.450373 
L 125.774295 290.667977 
L 130.182306 289.794459 
L 134.377026 288.751265 
L 138.713941 287.792908 
L 153.928689 283.972051 
L 156.132694 283.362474 
L 162.460323 281.332644 
L 173.338157 278.467001 
L 179.879077 277.206998 
L 184.144894 276.534577 
L 188.481808 275.799314 
L 190.685814 275.488241 
L 199.359642 274.831531 
L 208.104568 274.514174 
L 210.095282 274.008287 
L 212.299288 273.071926 
L 216.636202 271.547982 
L 218.769111 270.881846 
L 223.177122 269.191368 
L 229.646945 266.806475 
L 231.85095 265.769565 
L 236.045671 263.447514 
L 238.249676 261.90786 
L 240.382585 260.204813 
L 242.58659 258.897678 
L 244.719499 257.816778 
L 246.923505 256.361961 
L 249.12751 255.155375 
L 251.260419 254.146744 
L 260.005344 249.336109 
L 261.996059 248.214361 
L 283.751727 234.087245 
L 285.955732 232.396768 
L 292.354458 226.360693 
L 294.558464 224.434554 
L 301.099384 219.193445 
L 305.436298 216.161268 
L 307.569206 214.357673 
L 309.773212 212.818018 
L 311.977218 211.080408 
L 316.171938 207.231272 
L 322.641761 201.851907 
L 329.18268 196.887307 
L 333.519595 193.195278 
L 337.927606 189.745195 
L 342.122326 186.24798 
L 344.255235 184.328125 
L 348.592149 181.057145 
L 350.796154 179.558339 
L 355.133069 176.394191 
L 357.337074 174.96137 
L 359.469983 173.280319 
L 361.673988 171.825502 
L 372.409628 163.765882 
L 376.746543 160.94423 
L 378.950548 159.523977 
L 383.287462 157.088809 
L 391.890194 151.838273 
L 394.094199 150.430589 
L 398.431114 147.27901 
L 402.768028 144.711872 
L 407.104942 141.72997 
L 415.849867 136.620831 
L 424.381502 131.084359 
L 435.259336 124.850329 
L 437.392244 123.816561 
L 439.59625 122.390024 
L 439.59625 122.390024 
" clip-path="url(#p9a65de7323)" style="fill: none; stroke: #9467bd; stroke-width: 1.5; stroke-linecap: square"/>
   </g>
   <g id="line2d_35">
    <path d="M 134.377026 297.894927 
L 136.509935 292.625538 
L 145.25486 291.488079 
L 158.123409 289.502239 
L 162.460323 288.804681 
L 177.675071 286.765425 
L 195.022728 285.162927 
L 208.104568 284.84557 
L 210.095282 284.210855 
L 223.177122 278.649246 
L 227.514036 277.225851 
L 234.054956 275.045197 
L 240.382585 272.019305 
L 253.464424 266.416848 
L 255.597333 265.483629 
L 261.996059 262.269207 
L 266.332973 259.702069 
L 279.414813 251.513621 
L 281.547721 249.835711 
L 283.751727 248.264635 
L 288.017544 244.933954 
L 294.558464 239.249801 
L 296.691372 237.546755 
L 298.895378 235.966252 
L 301.099384 234.244353 
L 305.436298 231.15876 
L 311.977218 226.225581 
L 320.508852 218.543019 
L 322.641761 216.726855 
L 337.927606 201.983878 
L 342.122326 197.072694 
L 346.45924 190.989488 
L 348.592149 188.544893 
L 355.133069 181.748418 
L 359.469983 177.497087 
L 361.673988 175.50182 
L 370.205623 166.380153 
L 372.409628 163.85072 
L 383.287462 154.342568 
L 385.420371 152.65209 
L 389.828382 149.478517 
L 400.564022 140.887873 
L 407.104942 136.334895 
L 409.308948 134.814093 
L 420.044588 128.316123 
L 422.177496 126.795321 
L 424.381502 123.989379 
L 428.718416 121.36254 
L 433.05533 118.965078 
L 437.392244 116.897542 
L 439.59625 115.775794 
L 439.59625 115.775794 
" clip-path="url(#p9a65de7323)" style="fill: none; stroke: #d62728; stroke-width: 1.5; stroke-linecap: square"/>
   </g>
   <g id="line2d_36">
    <path d="M 186.3489 297.894927 
L 188.481808 285.697093 
L 190.685814 285.382878 
L 192.818723 285.06552 
L 195.022728 284.719884 
L 197.226734 284.534497 
L 199.359642 284.408811 
L 201.563648 284.301977 
L 203.696557 284.18886 
L 205.900562 284.11659 
L 208.104568 284.031752 
L 210.095282 283.397038 
L 212.299288 282.45125 
L 214.432197 281.744266 
L 216.636202 280.892742 
L 218.769111 280.292591 
L 220.973116 279.629597 
L 223.177122 278.696378 
L 225.310031 277.885703 
L 227.514036 277.100165 
L 229.646945 276.352333 
L 231.85095 275.56051 
L 234.054956 274.734124 
L 236.045671 274.017714 
L 238.249676 273.053073 
L 240.382585 271.991026 
L 242.58659 271.010674 
L 244.719499 270.127729 
L 246.923505 269.034261 
L 249.12751 268.053909 
L 251.260419 267.0767 
L 253.464424 266.130912 
L 255.597333 264.971458 
L 257.801339 263.8937 
L 260.005344 262.819084 
L 261.996059 261.851301 
L 264.200064 260.453043 
L 266.332973 259.23703 
L 268.536979 257.914184 
L 270.669887 256.732735 
L 272.873893 255.312482 
L 275.077898 254.06819 
L 277.210807 252.830182 
L 279.414813 251.70215 
L 281.547721 250.495563 
L 283.751727 249.144438 
L 285.955732 247.761891 
L 288.017544 246.363633 
L 290.22155 244.899391 
L 292.354458 243.491706 
L 294.558464 242.08088 
L 296.691372 240.770603 
L 298.895378 239.507458 
L 301.099384 238.080921 
L 303.232292 236.66381 
L 305.436298 235.281263 
L 307.569206 233.842157 
L 309.773212 232.318214 
L 311.977218 230.41407 
L 313.967932 228.585337 
L 316.171938 226.583786 
L 318.304846 224.701637 
L 320.508852 222.800635 
L 322.641761 221.015893 
L 324.845766 219.136886 
L 327.049772 216.95309 
L 329.18268 214.816427 
L 331.386686 212.679763 
L 333.519595 210.643649 
L 335.7236 208.387584 
L 337.927606 206.034112 
L 339.91832 203.966576 
L 342.122326 201.543976 
L 344.255235 199.410455 
L 346.45924 197.182669 
L 348.592149 195.155981 
L 350.796154 193.207847 
L 353.00016 190.901507 
L 355.133069 189.016216 
L 357.337074 187.055513 
L 359.469983 185.072815 
L 361.673988 182.989569 
L 363.877994 180.815199 
L 365.868709 178.873349 
L 368.072714 176.560725 
L 370.205623 174.094136 
L 372.409628 171.800365 
L 374.542537 169.845946 
L 376.746543 167.812974 
L 378.950548 165.556909 
L 381.083457 163.536505 
L 383.287462 161.538096 
L 385.420371 159.589962 
L 387.624377 157.362176 
L 389.828382 155.00242 
L 391.890194 153.029149 
L 394.094199 150.707098 
L 396.227108 148.224798 
L 398.431114 145.56968 
L 400.564022 143.26334 
L 402.768028 141.02927 
L 404.972033 138.685225 
L 407.104942 135.86043 
L 409.308948 133.230449 
L 411.441856 131.074932 
L 413.645862 128.419814 
L 415.849867 126.100906 
L 417.840582 124.042796 
L 420.044588 121.723888 
L 422.177496 119.53695 
L 424.381502 117.337443 
L 426.51441 115.313898 
L 428.718416 113.117533 
L 430.922422 110.9086 
L 433.05533 108.87877 
L 435.259336 106.795523 
L 437.392244 104.837963 
L 439.59625 102.613319 
" clip-path="url(#p9a65de7323)" style="fill: none; stroke: #2ca02c; stroke-width: 1.5; stroke-linecap: square"/>
   </g>
   <g id="line2d_37">
    <path d="M 164.664329 297.894927 
L 166.797237 293.015165 
L 175.542163 292.182495 
L 188.481808 291.098452 
L 197.226734 290.570571 
L 208.104568 290.338051 
L 210.095282 289.866729 
L 212.299288 289.012063 
L 214.432197 287.572958 
L 216.636202 286.325523 
L 223.177122 283.227361 
L 225.310031 281.722271 
L 231.85095 278.228197 
L 234.054956 276.471734 
L 236.045671 275.337418 
L 238.249676 273.650082 
L 242.58659 270.771871 
L 246.923505 268.383835 
L 255.597333 261.870154 
L 257.801339 260.59444 
L 260.005344 259.145908 
L 264.200064 255.26535 
L 266.332973 253.622005 
L 268.536979 252.120056 
L 270.669887 250.523843 
L 272.873893 249.031321 
L 275.077898 246.91351 
L 279.414813 243.736794 
L 281.547721 241.684969 
L 283.751727 239.724266 
L 290.22155 234.734529 
L 292.354458 233.185448 
L 296.691372 229.744791 
L 298.895378 227.724387 
L 301.099384 225.295504 
L 309.773212 217.034786 
L 313.967932 212.095323 
L 316.171938 208.877759 
L 318.304846 206.637405 
L 322.641761 202.514901 
L 324.845766 200.167714 
L 327.049772 197.641424 
L 329.18268 195.375932 
L 333.519595 191.291134 
L 335.7236 189.220456 
L 337.927606 184.711468 
L 339.91832 178.992751 
L 342.122326 175.187605 
L 344.255235 172.501065 
L 346.45924 169.959064 
L 355.133069 160.947372 
L 359.469983 156.048757 
L 361.673988 153.896383 
L 363.877994 151.363808 
L 365.868709 146.631727 
L 368.072714 143.7598 
L 370.205623 141.183235 
L 372.409628 138.748068 
L 376.746543 134.518731 
L 378.950548 132.253239 
L 381.083457 129.616974 
L 385.420371 125.959509 
L 391.890194 120.947776 
L 396.227108 116.853552 
L 400.564022 113.343768 
L 402.768028 110.924311 
L 404.972033 109.177275 
L 407.104942 106.676122 
L 413.645862 101.290473 
L 424.381502 93.083172 
L 428.718416 90.258377 
L 430.922422 88.96381 
L 433.05533 87.311038 
L 439.59625 83.194819 
L 439.59625 83.194819 
" clip-path="url(#p9a65de7323)" style="fill: none; stroke: #ff7f0e; stroke-width: 1.5; stroke-linecap: square"/>
   </g>
   <g id="line2d_38">
    <path d="M 253.464424 297.894927 
L 255.597333 296.396121 
L 257.801339 279.403362 
L 260.005344 272.15756 
L 261.996059 268.170169 
L 264.200064 266.058643 
L 266.332973 264.603826 
L 268.536979 262.639981 
L 270.669887 261.904718 
L 272.873893 261.169454 
L 275.077898 259.145908 
L 277.210807 253.452328 
L 279.414813 250.146785 
L 281.547721 247.331416 
L 283.751727 244.613455 
L 285.955732 241.512151 
L 288.017544 239.215237 
L 290.22155 236.220767 
L 292.354458 233.000061 
L 294.558464 230.216114 
L 296.691372 227.884637 
L 298.895378 225.430616 
L 301.099384 222.483278 
L 303.232292 219.50766 
L 305.436298 215.891043 
L 307.569206 212.98141 
L 309.773212 210.33886 
L 311.977218 207.602046 
L 313.967932 204.287075 
L 316.171938 200.686169 
L 318.304846 197.597433 
L 320.508852 194.323311 
L 322.641761 190.998914 
L 324.845766 187.919605 
L 327.049772 184.381542 
L 329.18268 181.405924 
L 331.386686 175.976285 
L 333.519595 171.564704 
L 335.7236 168.444547 
L 337.927606 165.069875 
L 339.91832 162.314208 
L 342.122326 158.628464 
L 344.255235 154.989852 
L 346.45924 150.854779 
L 348.592149 146.634869 
L 350.796154 143.552418 
L 353.00016 140.259443 
L 355.133069 136.909909 
L 357.337074 133.651497 
L 359.469983 130.217125 
L 361.673988 127.282355 
L 363.877994 124.036512 
L 365.868709 121.516506 
L 368.072714 117.984727 
L 370.205623 114.364968 
L 372.409628 111.279374 
L 374.542537 108.740515 
L 376.746543 106.154524 
L 378.950548 103.615665 
L 381.083457 101.529276 
L 383.287462 98.899295 
L 385.420371 96.35101 
L 387.624377 93.849857 
L 389.828382 91.640924 
L 391.890194 89.802765 
L 394.094199 87.245053 
L 396.227108 84.212876 
L 398.431114 80.800499 
L 400.564022 78.236503 
L 402.768028 75.832757 
L 404.972033 73.180781 
L 407.104942 70.883867 
L 409.308948 67.110143 
L 411.441856 64.891783 
L 413.645862 62.651429 
L 415.849867 59.499851 
L 417.840582 57.08982 
L 420.044588 54.428417 
L 422.177496 51.80472 
L 424.381502 49.378979 
L 426.51441 46.56361 
L 428.718416 44.210139 
L 430.922422 41.360207 
L 433.05533 39.154416 
L 435.259336 36.690969 
L 437.392244 34.208669 
L 439.59625 31.782927 
" clip-path="url(#p9a65de7323)" style="fill: none; stroke: #1f77b4; stroke-width: 1.5; stroke-linecap: square"/>
   </g>
  </g>
 </g>
 <defs>
  <clipPath id="p9a65de7323">
   <rect x="82.47625" y="31.782927" width="357.12" height="266.112"/>
  </clipPath>
 </defs>
</svg>
