<?xml version="1.0" encoding="utf-8" standalone="no"?>
<!DOCTYPE svg PUBLIC "-//W3C//DTD SVG 1.1//EN"
  "http://www.w3.org/Graphics/SVG/1.1/DTD/svg11.dtd">
<svg xmlns:xlink="http://www.w3.org/1999/xlink" width="612.133288pt" height="326.471687pt" viewBox="0 0 612.133288 326.471687" xmlns="http://www.w3.org/2000/svg" version="1.1">
 <metadata>
  <rdf:RDF xmlns:dc="http://purl.org/dc/elements/1.1/" xmlns:cc="http://creativecommons.org/ns#" xmlns:rdf="http://www.w3.org/1999/02/22-rdf-syntax-ns#">
   <cc:Work>
    <dc:type rdf:resource="http://purl.org/dc/dcmitype/StillImage"/>
    <dc:date>2022-01-21T10:56:06.404187</dc:date>
    <dc:format>image/svg+xml</dc:format>
    <dc:creator>
     <cc:Agent>
      <dc:title>Matplotlib v3.5.1, https://matplotlib.org/</dc:title>
     </cc:Agent>
    </dc:creator>
   </cc:Work>
  </rdf:RDF>
 </metadata>
 <defs>
  <style type="text/css">*{stroke-linejoin: round; stroke-linecap: butt}</style>
 </defs>
 <g id="figure_1">
  <g id="patch_1">
   <path d="M 0 326.471687 
L 612.133288 326.471687 
L 612.133288 0 
L 0 0 
L 0 326.471687 
z
" style="fill: none"/>
  </g>
  <g id="axes_1">
   <g id="patch_2">
    <path d="M 82.47625 282.944487 
L 439.59625 282.944487 
L 439.59625 16.832487 
L 82.47625 16.832487 
L 82.47625 282.944487 
z
" style="fill: none"/>
   </g>
   <g id="matplotlib.axis_1">
    <g id="xtick_1">
     <g id="line2d_1">
      <defs>
       <path id="md02cf7c96a" d="M 0 0 
L 0 3.5 
" style="stroke: #b0b0b0; stroke-width: 0.4"/>
      </defs>
      <g>
       <use xlink:href="#md02cf7c96a" x="110.05607" y="282.944487" style="fill: #b0b0b0; stroke: #b0b0b0; stroke-width: 0.4"/>
      </g>
     </g>
     <g id="text_1">
      <!-- 2015 -->
      <g style="fill: #b0b0b0" transform="translate(95.692945 299.884487)scale(0.14 -0.14)">
       <defs>
        <path id="MyriadPro-Regular-32" d="M 2944 0 
L 2944 467 
L 1075 467 
L 1075 480 
L 1408 787 
C 2285 1632 2842 2253 2842 3021 
C 2842 3616 2464 4230 1568 4230 
C 1088 4230 678 4051 390 3808 
L 570 3411 
C 762 3571 1075 3763 1453 3763 
C 2074 3763 2278 3373 2278 2950 
C 2272 2323 1792 1786 730 774 
L 288 346 
L 288 0 
L 2944 0 
z
" transform="scale(0.015625)"/>
        <path id="MyriadPro-Regular-30" d="M 1677 4230 
C 832 4230 230 3462 230 2067 
C 243 691 794 -70 1606 -70 
C 2528 -70 3053 710 3053 2125 
C 3053 3450 2554 4230 1677 4230 
z
M 1645 3795 
C 2227 3795 2490 3123 2490 2099 
C 2490 1037 2214 365 1638 365 
C 1126 365 794 979 794 2061 
C 794 3194 1152 3795 1645 3795 
z
" transform="scale(0.015625)"/>
        <path id="MyriadPro-Regular-31" d="M 1510 0 
L 2054 0 
L 2054 4160 
L 1574 4160 
L 666 3674 
L 774 3245 
L 1498 3635 
L 1510 3635 
L 1510 0 
z
" transform="scale(0.015625)"/>
        <path id="MyriadPro-Regular-35" d="M 2771 4160 
L 781 4160 
L 512 2163 
C 666 2182 851 2208 1088 2208 
C 1920 2208 2278 1824 2285 1286 
C 2285 730 1830 384 1299 384 
C 922 384 582 512 410 614 
L 269 186 
C 467 58 851 -70 1306 -70 
C 2208 -70 2854 538 2854 1350 
C 2854 1875 2586 2234 2259 2419 
C 2003 2573 1683 2643 1363 2643 
C 1210 2643 1120 2630 1024 2618 
L 1184 3686 
L 2771 3686 
L 2771 4160 
z
" transform="scale(0.015625)"/>
       </defs>
       <use xlink:href="#MyriadPro-Regular-32"/>
       <use xlink:href="#MyriadPro-Regular-30" x="51.299988"/>
       <use xlink:href="#MyriadPro-Regular-31" x="102.599976"/>
       <use xlink:href="#MyriadPro-Regular-35" x="153.899963"/>
      </g>
     </g>
    </g>
    <g id="xtick_2">
     <g id="line2d_2">
      <g>
       <use xlink:href="#md02cf7c96a" x="157.096416" y="282.944487" style="fill: #b0b0b0; stroke: #b0b0b0; stroke-width: 0.4"/>
      </g>
     </g>
     <g id="text_2">
      <!-- 2016 -->
      <g style="fill: #b0b0b0" transform="translate(142.733291 299.884487)scale(0.14 -0.14)">
       <defs>
        <path id="MyriadPro-Regular-36" d="M 2662 4224 
C 2560 4224 2419 4218 2253 4192 
C 1728 4128 1267 3917 922 3578 
C 512 3168 218 2522 218 1702 
C 218 621 800 -70 1690 -70 
C 2554 -70 3072 634 3072 1395 
C 3072 2208 2554 2739 1818 2739 
C 1357 2739 1011 2522 813 2259 
L 794 2259 
C 890 2944 1357 3590 2240 3738 
C 2400 3763 2547 3770 2662 3763 
L 2662 4224 
z
M 1690 365 
C 1101 365 787 870 774 1555 
C 774 1658 800 1741 838 1805 
C 992 2106 1306 2317 1645 2317 
C 2163 2317 2502 1958 2502 1363 
C 2502 768 2176 365 1696 365 
L 1690 365 
z
" transform="scale(0.015625)"/>
       </defs>
       <use xlink:href="#MyriadPro-Regular-32"/>
       <use xlink:href="#MyriadPro-Regular-30" x="51.299988"/>
       <use xlink:href="#MyriadPro-Regular-31" x="102.599976"/>
       <use xlink:href="#MyriadPro-Regular-36" x="153.899963"/>
      </g>
     </g>
    </g>
    <g id="xtick_3">
     <g id="line2d_3">
      <g>
       <use xlink:href="#md02cf7c96a" x="204.26564" y="282.944487" style="fill: #b0b0b0; stroke: #b0b0b0; stroke-width: 0.4"/>
      </g>
     </g>
     <g id="text_3">
      <!-- 2017 -->
      <g style="fill: #b0b0b0" transform="translate(189.902515 299.884487)scale(0.14 -0.14)">
       <defs>
        <path id="MyriadPro-Regular-37" d="M 365 4160 
L 365 3693 
L 2400 3693 
L 2400 3680 
L 595 0 
L 1178 0 
L 2989 3789 
L 2989 4160 
L 365 4160 
z
" transform="scale(0.015625)"/>
       </defs>
       <use xlink:href="#MyriadPro-Regular-32"/>
       <use xlink:href="#MyriadPro-Regular-30" x="51.299988"/>
       <use xlink:href="#MyriadPro-Regular-31" x="102.599976"/>
       <use xlink:href="#MyriadPro-Regular-37" x="153.899963"/>
      </g>
     </g>
    </g>
    <g id="xtick_4">
     <g id="line2d_4">
      <g>
       <use xlink:href="#md02cf7c96a" x="251.305987" y="282.944487" style="fill: #b0b0b0; stroke: #b0b0b0; stroke-width: 0.4"/>
      </g>
     </g>
     <g id="text_4">
      <!-- 2018 -->
      <g style="fill: #b0b0b0" transform="translate(236.942862 299.884487)scale(0.14 -0.14)">
       <defs>
        <path id="MyriadPro-Regular-38" d="M 1062 2170 
C 550 1952 237 1581 237 1056 
C 237 448 762 -70 1632 -70 
C 2426 -70 3046 416 3046 1139 
C 3046 1645 2726 2010 2208 2214 
L 2208 2234 
C 2720 2477 2893 2854 2893 3206 
C 2893 3725 2490 4230 1683 4230 
C 954 4230 397 3782 397 3123 
C 397 2765 595 2406 1056 2189 
L 1062 2170 
z
M 1645 339 
C 1114 339 794 710 813 1133 
C 813 1530 1075 1850 1562 1990 
C 2125 1830 2477 1587 2477 1082 
C 2477 659 2150 339 1645 339 
z
M 1651 3827 
C 2157 3827 2355 3482 2355 3149 
C 2355 2771 2080 2515 1722 2394 
C 1242 2522 928 2746 928 3162 
C 928 3520 1184 3827 1651 3827 
z
" transform="scale(0.015625)"/>
       </defs>
       <use xlink:href="#MyriadPro-Regular-32"/>
       <use xlink:href="#MyriadPro-Regular-30" x="51.299988"/>
       <use xlink:href="#MyriadPro-Regular-31" x="102.599976"/>
       <use xlink:href="#MyriadPro-Regular-38" x="153.899963"/>
      </g>
     </g>
    </g>
    <g id="xtick_5">
     <g id="line2d_5">
      <g>
       <use xlink:href="#md02cf7c96a" x="298.346333" y="282.944487" style="fill: #b0b0b0; stroke: #b0b0b0; stroke-width: 0.4"/>
      </g>
     </g>
     <g id="text_5">
      <!-- 2019 -->
      <g style="fill: #b0b0b0" transform="translate(283.983208 299.884487)scale(0.14 -0.14)">
       <defs>
        <path id="MyriadPro-Regular-39" d="M 614 -64 
C 749 -70 928 -64 1133 -32 
C 1581 19 2022 211 2342 525 
C 2752 922 3059 1562 3059 2477 
C 3059 3539 2534 4230 1683 4230 
C 832 4230 262 3539 262 2752 
C 262 2042 742 1478 1491 1478 
C 1907 1478 2240 1645 2470 1926 
L 2490 1926 
C 2413 1434 2214 1069 1939 819 
C 1702 595 1395 461 1069 416 
C 877 397 736 384 614 397 
L 614 -64 
z
M 1638 3802 
C 2227 3802 2490 3258 2490 2547 
C 2490 2458 2470 2394 2438 2342 
C 2291 2093 1997 1907 1619 1907 
C 1133 1907 819 2272 819 2790 
C 819 3379 1158 3802 1632 3802 
L 1638 3802 
z
" transform="scale(0.015625)"/>
       </defs>
       <use xlink:href="#MyriadPro-Regular-32"/>
       <use xlink:href="#MyriadPro-Regular-30" x="51.299988"/>
       <use xlink:href="#MyriadPro-Regular-31" x="102.599976"/>
       <use xlink:href="#MyriadPro-Regular-39" x="153.899963"/>
      </g>
     </g>
    </g>
    <g id="xtick_6">
     <g id="line2d_6">
      <g>
       <use xlink:href="#md02cf7c96a" x="345.386679" y="282.944487" style="fill: #b0b0b0; stroke: #b0b0b0; stroke-width: 0.4"/>
      </g>
     </g>
     <g id="text_6">
      <!-- 2020 -->
      <g style="fill: #b0b0b0" transform="translate(331.023554 299.884487)scale(0.14 -0.14)">
       <use xlink:href="#MyriadPro-Regular-32"/>
       <use xlink:href="#MyriadPro-Regular-30" x="51.299988"/>
       <use xlink:href="#MyriadPro-Regular-32" x="102.599976"/>
       <use xlink:href="#MyriadPro-Regular-30" x="153.899963"/>
      </g>
     </g>
    </g>
    <g id="xtick_7">
     <g id="line2d_7">
      <g>
       <use xlink:href="#md02cf7c96a" x="392.555904" y="282.944487" style="fill: #b0b0b0; stroke: #b0b0b0; stroke-width: 0.4"/>
      </g>
     </g>
     <g id="text_7">
      <!-- 2021 -->
      <g style="fill: #b0b0b0" transform="translate(378.192779 299.884487)scale(0.14 -0.14)">
       <use xlink:href="#MyriadPro-Regular-32"/>
       <use xlink:href="#MyriadPro-Regular-30" x="51.299988"/>
       <use xlink:href="#MyriadPro-Regular-32" x="102.599976"/>
       <use xlink:href="#MyriadPro-Regular-31" x="153.899963"/>
      </g>
     </g>
    </g>
    <g id="xtick_8">
     <g id="line2d_8">
      <g>
       <use xlink:href="#md02cf7c96a" x="439.59625" y="282.944487" style="fill: #b0b0b0; stroke: #b0b0b0; stroke-width: 0.4"/>
      </g>
     </g>
     <g id="text_8">
      <!-- 2022 -->
      <g style="fill: #b0b0b0" transform="translate(425.233125 299.884487)scale(0.14 -0.14)">
       <use xlink:href="#MyriadPro-Regular-32"/>
       <use xlink:href="#MyriadPro-Regular-30" x="51.299988"/>
       <use xlink:href="#MyriadPro-Regular-32" x="102.599976"/>
       <use xlink:href="#MyriadPro-Regular-32" x="153.899963"/>
      </g>
     </g>
    </g>
   </g>
   <g id="matplotlib.axis_2">
    <g id="ytick_1">
     <g id="line2d_9">
      <path d="M 82.47625 282.944487 
L 439.59625 282.944487 
" clip-path="url(#p744f9b1019)" style="fill: none; stroke: #b0b0b0; stroke-width: 0.3; stroke-linecap: square"/>
     </g>
     <g id="line2d_10">
      <defs>
       <path id="m51de6ec9df" d="M 0 0 
L -3.5 0 
" style="stroke: #b0b0b0; stroke-width: 0.3"/>
      </defs>
      <g>
       <use xlink:href="#m51de6ec9df" x="82.47625" y="282.944487" style="fill: #b0b0b0; stroke: #b0b0b0; stroke-width: 0.3"/>
      </g>
     </g>
     <g id="text_9">
      <!-- 0 -->
      <g style="fill: #b0b0b0" transform="translate(68.294687 287.914487)scale(0.14 -0.14)">
       <use xlink:href="#MyriadPro-Regular-30"/>
      </g>
     </g>
    </g>
    <g id="ytick_2">
     <g id="line2d_11">
      <path d="M 82.47625 237.474688 
L 439.59625 237.474688 
" clip-path="url(#p744f9b1019)" style="fill: none; stroke: #b0b0b0; stroke-width: 0.3; stroke-linecap: square"/>
     </g>
     <g id="line2d_12">
      <g>
       <use xlink:href="#m51de6ec9df" x="82.47625" y="237.474688" style="fill: #b0b0b0; stroke: #b0b0b0; stroke-width: 0.3"/>
      </g>
     </g>
     <g id="text_10">
      <!-- 2000 -->
      <g style="fill: #b0b0b0" transform="translate(46.75 242.444688)scale(0.14 -0.14)">
       <use xlink:href="#MyriadPro-Regular-32"/>
       <use xlink:href="#MyriadPro-Regular-30" x="51.299988"/>
       <use xlink:href="#MyriadPro-Regular-30" x="102.599976"/>
       <use xlink:href="#MyriadPro-Regular-30" x="153.899963"/>
      </g>
     </g>
    </g>
    <g id="ytick_3">
     <g id="line2d_13">
      <path d="M 82.47625 192.004888 
L 439.59625 192.004888 
" clip-path="url(#p744f9b1019)" style="fill: none; stroke: #b0b0b0; stroke-width: 0.3; stroke-linecap: square"/>
     </g>
     <g id="line2d_14">
      <g>
       <use xlink:href="#m51de6ec9df" x="82.47625" y="192.004888" style="fill: #b0b0b0; stroke: #b0b0b0; stroke-width: 0.3"/>
      </g>
     </g>
     <g id="text_11">
      <!-- 4000 -->
      <g style="fill: #b0b0b0" transform="translate(46.75 196.974888)scale(0.14 -0.14)">
       <defs>
        <path id="MyriadPro-Regular-34" d="M 2560 0 
L 2560 1133 
L 3142 1133 
L 3142 1574 
L 2560 1574 
L 2560 4160 
L 1952 4160 
L 96 1504 
L 96 1133 
L 2029 1133 
L 2029 0 
L 2560 0 
z
M 666 1574 
L 666 1587 
L 1683 3002 
C 1798 3194 1901 3373 2029 3616 
L 2048 3616 
C 2035 3398 2029 3181 2029 2963 
L 2029 1574 
L 666 1574 
z
" transform="scale(0.015625)"/>
       </defs>
       <use xlink:href="#MyriadPro-Regular-34"/>
       <use xlink:href="#MyriadPro-Regular-30" x="51.299988"/>
       <use xlink:href="#MyriadPro-Regular-30" x="102.599976"/>
       <use xlink:href="#MyriadPro-Regular-30" x="153.899963"/>
      </g>
     </g>
    </g>
    <g id="ytick_4">
     <g id="line2d_15">
      <path d="M 82.47625 146.535089 
L 439.59625 146.535089 
" clip-path="url(#p744f9b1019)" style="fill: none; stroke: #b0b0b0; stroke-width: 0.3; stroke-linecap: square"/>
     </g>
     <g id="line2d_16">
      <g>
       <use xlink:href="#m51de6ec9df" x="82.47625" y="146.535089" style="fill: #b0b0b0; stroke: #b0b0b0; stroke-width: 0.3"/>
      </g>
     </g>
     <g id="text_12">
      <!-- 6000 -->
      <g style="fill: #b0b0b0" transform="translate(46.75 151.505089)scale(0.14 -0.14)">
       <use xlink:href="#MyriadPro-Regular-36"/>
       <use xlink:href="#MyriadPro-Regular-30" x="51.299988"/>
       <use xlink:href="#MyriadPro-Regular-30" x="102.599976"/>
       <use xlink:href="#MyriadPro-Regular-30" x="153.899963"/>
      </g>
     </g>
    </g>
    <g id="ytick_5">
     <g id="line2d_17">
      <path d="M 82.47625 101.06529 
L 439.59625 101.06529 
" clip-path="url(#p744f9b1019)" style="fill: none; stroke: #b0b0b0; stroke-width: 0.3; stroke-linecap: square"/>
     </g>
     <g id="line2d_18">
      <g>
       <use xlink:href="#m51de6ec9df" x="82.47625" y="101.06529" style="fill: #b0b0b0; stroke: #b0b0b0; stroke-width: 0.3"/>
      </g>
     </g>
     <g id="text_13">
      <!-- 8000 -->
      <g style="fill: #b0b0b0" transform="translate(46.75 106.03529)scale(0.14 -0.14)">
       <use xlink:href="#MyriadPro-Regular-38"/>
       <use xlink:href="#MyriadPro-Regular-30" x="51.299988"/>
       <use xlink:href="#MyriadPro-Regular-30" x="102.599976"/>
       <use xlink:href="#MyriadPro-Regular-30" x="153.899963"/>
      </g>
     </g>
    </g>
    <g id="ytick_6">
     <g id="line2d_19">
      <path d="M 82.47625 55.595491 
L 439.59625 55.595491 
" clip-path="url(#p744f9b1019)" style="fill: none; stroke: #b0b0b0; stroke-width: 0.3; stroke-linecap: square"/>
     </g>
     <g id="line2d_20">
      <g>
       <use xlink:href="#m51de6ec9df" x="82.47625" y="55.595491" style="fill: #b0b0b0; stroke: #b0b0b0; stroke-width: 0.3"/>
      </g>
     </g>
     <g id="text_14">
      <!-- 10000 -->
      <g style="fill: #b0b0b0" transform="translate(39.568437 60.565491)scale(0.14 -0.14)">
       <use xlink:href="#MyriadPro-Regular-31"/>
       <use xlink:href="#MyriadPro-Regular-30" x="51.299988"/>
       <use xlink:href="#MyriadPro-Regular-30" x="102.599976"/>
       <use xlink:href="#MyriadPro-Regular-30" x="153.899963"/>
       <use xlink:href="#MyriadPro-Regular-30" x="205.199951"/>
      </g>
     </g>
    </g>
    <g id="text_15">
     <!-- GitHub stars -->
     <g style="fill: #b0b0b0" transform="translate(7.2 26.212728)scale(0.14 -0.14)">
      <defs>
       <path id="MyriadPro-Regular-47" d="M 3770 2266 
L 2349 2266 
L 2349 1818 
L 3226 1818 
L 3226 531 
C 3098 467 2848 416 2483 416 
C 1478 416 819 1062 819 2157 
C 819 3238 1504 3891 2554 3891 
C 2989 3891 3277 3808 3507 3706 
L 3642 4160 
C 3456 4250 3066 4358 2566 4358 
C 1120 4358 237 3418 230 2131 
C 230 1459 461 883 832 525 
C 1254 122 1792 -45 2445 -45 
C 3027 -45 3520 102 3770 192 
L 3770 2266 
z
" transform="scale(0.015625)"/>
       <path id="MyriadPro-Regular-69" d="M 1030 0 
L 1030 3098 
L 467 3098 
L 467 0 
L 1030 0 
z
M 749 4320 
C 544 4320 397 4166 397 3968 
C 397 3776 538 3622 736 3622 
C 960 3622 1101 3776 1094 3968 
C 1094 4166 960 4320 749 4320 
z
" transform="scale(0.015625)"/>
       <path id="MyriadPro-Regular-74" d="M 595 3667 
L 595 3098 
L 115 3098 
L 115 2669 
L 595 2669 
L 595 979 
C 595 614 653 339 813 173 
C 947 19 1158 -70 1421 -70 
C 1638 -70 1811 -32 1920 13 
L 1894 435 
C 1811 410 1722 397 1568 397 
C 1254 397 1146 614 1146 998 
L 1146 2669 
L 1952 2669 
L 1952 3098 
L 1146 3098 
L 1146 3840 
L 595 3667 
z
" transform="scale(0.015625)"/>
       <path id="MyriadPro-Regular-48" d="M 486 4314 
L 486 0 
L 1043 0 
L 1043 2022 
L 3130 2022 
L 3130 0 
L 3693 0 
L 3693 4314 
L 3130 4314 
L 3130 2509 
L 1043 2509 
L 1043 4314 
L 486 4314 
z
" transform="scale(0.015625)"/>
       <path id="MyriadPro-Regular-75" d="M 3059 3098 
L 2496 3098 
L 2496 1197 
C 2496 1094 2477 992 2445 909 
C 2342 659 2080 397 1702 397 
C 1190 397 1011 794 1011 1382 
L 1011 3098 
L 448 3098 
L 448 1286 
C 448 198 1030 -70 1517 -70 
C 2067 -70 2394 256 2541 506 
L 2554 506 
L 2586 0 
L 3085 0 
C 3066 243 3059 525 3059 845 
L 3059 3098 
z
" transform="scale(0.015625)"/>
       <path id="MyriadPro-Regular-62" d="M 467 800 
C 467 525 454 211 442 0 
L 928 0 
L 954 512 
L 973 512 
C 1203 102 1562 -70 2010 -70 
C 2701 -70 3398 480 3398 1587 
C 3405 2528 2861 3168 2093 3168 
C 1594 3168 1235 2944 1037 2598 
L 1024 2598 
L 1024 4544 
L 467 4544 
L 467 800 
z
M 1024 1798 
C 1024 1888 1043 1965 1056 2029 
C 1171 2458 1530 2720 1914 2720 
C 2515 2720 2835 2189 2835 1568 
C 2835 858 2483 378 1894 378 
C 1485 378 1158 646 1050 1037 
C 1037 1101 1024 1171 1024 1242 
L 1024 1798 
z
" transform="scale(0.015625)"/>
       <path id="MyriadPro-Regular-20" transform="scale(0.015625)"/>
       <path id="MyriadPro-Regular-73" d="M 250 147 
C 467 19 781 -70 1120 -70 
C 1856 -70 2278 320 2278 864 
C 2278 1325 2003 1594 1466 1798 
C 1062 1952 877 2067 877 2323 
C 877 2554 1062 2746 1395 2746 
C 1683 2746 1907 2643 2029 2566 
L 2170 2976 
C 1997 3078 1722 3168 1408 3168 
C 742 3168 339 2758 339 2259 
C 339 1888 602 1581 1158 1382 
C 1574 1229 1734 1082 1734 813 
C 1734 557 1542 352 1133 352 
C 851 352 557 467 390 576 
L 250 147 
z
" transform="scale(0.015625)"/>
       <path id="MyriadPro-Regular-61" d="M 2643 1901 
C 2643 2522 2413 3168 1466 3168 
C 1075 3168 704 3059 448 2893 
L 576 2522 
C 794 2662 1094 2752 1382 2752 
C 2016 2752 2086 2291 2086 2035 
L 2086 1971 
C 890 1978 224 1568 224 819 
C 224 371 544 -70 1171 -70 
C 1613 -70 1946 147 2118 390 
L 2138 390 
L 2182 0 
L 2694 0 
C 2656 211 2643 474 2643 742 
L 2643 1901 
z
M 2099 1043 
C 2099 986 2086 922 2067 864 
C 1978 602 1722 346 1318 346 
C 1030 346 787 518 787 883 
C 787 1485 1485 1594 2099 1581 
L 2099 1043 
z
" transform="scale(0.015625)"/>
       <path id="MyriadPro-Regular-72" d="M 467 0 
L 1024 0 
L 1024 1651 
C 1024 1747 1037 1837 1050 1914 
C 1126 2336 1408 2637 1805 2637 
C 1882 2637 1939 2630 1997 2618 
L 1997 3149 
C 1946 3162 1901 3168 1837 3168 
C 1459 3168 1120 2906 979 2490 
L 954 2490 
L 934 3098 
L 442 3098 
C 461 2810 467 2496 467 2131 
L 467 0 
z
" transform="scale(0.015625)"/>
      </defs>
      <use xlink:href="#MyriadPro-Regular-47"/>
      <use xlink:href="#MyriadPro-Regular-69" x="64.599991"/>
      <use xlink:href="#MyriadPro-Regular-74" x="87.999985"/>
      <use xlink:href="#MyriadPro-Regular-48" x="121.099976"/>
      <use xlink:href="#MyriadPro-Regular-75" x="186.299973"/>
      <use xlink:href="#MyriadPro-Regular-62" x="241.399963"/>
      <use xlink:href="#MyriadPro-Regular-20" x="298.299957"/>
      <use xlink:href="#MyriadPro-Regular-73" x="319.499954"/>
      <use xlink:href="#MyriadPro-Regular-74" x="359.099945"/>
      <use xlink:href="#MyriadPro-Regular-61" x="392.199936"/>
      <use xlink:href="#MyriadPro-Regular-72" x="440.399933"/>
      <use xlink:href="#MyriadPro-Regular-73" x="473.09993"/>
     </g>
    </g>
   </g>
   <g id="line2d_21">
    <path d="M 294.351125 282.944487 
L 298.346333 243.158413 
L 302.341541 241.907993 
L 305.950115 241.294151 
L 309.945323 240.40749 
L 313.811652 237.542892 
L 317.80686 236.087859 
L 321.67319 235.337607 
L 325.668397 234.70103 
L 329.663605 233.950778 
L 333.529935 233.49608 
L 337.525142 233.109587 
L 341.391472 232.404805 
L 345.386679 231.927372 
L 349.381887 231.336265 
L 353.119339 230.927037 
L 357.114547 230.631483 
L 360.980876 230.06311 
L 364.976084 229.358329 
L 368.842414 228.880896 
L 372.837621 228.608077 
L 376.832829 228.267053 
L 380.699159 227.83509 
L 384.694366 227.334922 
L 388.560696 227.107573 
L 392.555904 226.743815 
L 396.551111 226.380057 
L 400.159686 226.039033 
L 404.154893 225.743479 
L 408.021223 225.379721 
L 412.01643 224.925023 
L 415.88276 224.606735 
L 419.877968 224.197506 
L 423.873175 223.856483 
L 427.739505 223.492724 
L 431.734713 223.242641 
L 435.601042 223.038026 
L 439.59625 222.787943 
" clip-path="url(#p744f9b1019)" style="fill: none; stroke: #7f7f7f; stroke-width: 1.5; stroke-linecap: square"/>
   </g>
   <g id="line2d_22">
    <path d="M 262.904976 282.944487 
L 266.771306 282.921752 
L 270.766513 282.899017 
L 274.632843 282.830812 
L 278.628051 280.648262 
L 282.623258 280.239034 
L 286.489588 279.98895 
L 290.484796 279.807071 
L 294.351125 279.738866 
L 298.346333 279.602457 
L 302.341541 277.306232 
L 305.950115 275.714789 
L 309.945323 270.735846 
L 313.811652 265.529554 
L 317.80686 258.072507 
L 321.67319 245.659252 
L 325.668397 239.407154 
L 329.663605 236.178798 
L 333.529935 232.836768 
L 337.525142 229.858496 
L 341.391472 226.402792 
L 345.386679 223.606399 
L 349.381887 221.082825 
L 353.119339 216.64952 
L 357.114547 213.08014 
L 360.980876 210.647506 
L 364.976084 207.009922 
L 368.842414 205.031986 
L 372.837621 201.485342 
L 376.832829 198.325191 
L 380.699159 194.392053 
L 384.694366 191.618395 
L 388.560696 189.072086 
L 392.555904 186.389368 
L 396.551111 183.79759 
L 400.159686 181.43316 
L 404.154893 179.182405 
L 408.021223 176.84071 
L 412.01643 174.862774 
L 415.88276 172.225526 
L 419.877968 170.315794 
L 423.873175 168.360593 
L 427.739505 165.859754 
L 431.734713 163.608999 
L 435.601042 161.471918 
L 439.59625 158.993814 
" clip-path="url(#p744f9b1019)" style="fill: none; stroke: #e377c2; stroke-width: 1.5; stroke-linecap: square"/>
   </g>
   <g id="line2d_23">
    <path d="M 172.690613 282.944487 
L 176.685821 282.899017 
L 180.55215 281.14843 
L 184.547358 279.761601 
L 188.542565 276.146752 
L 192.408895 275.123681 
L 196.404103 274.464369 
L 200.270433 273.554973 
L 204.26564 267.280141 
L 208.260848 264.301869 
L 211.869422 261.505477 
L 215.86463 259.982238 
L 219.730959 258.41353 
L 223.726167 256.390124 
L 227.592497 252.684336 
L 231.587704 249.046752 
L 235.582912 246.295829 
L 239.449242 243.499436 
L 243.444449 238.725107 
L 247.310779 234.018983 
L 251.305987 229.062775 
L 255.301194 223.606399 
L 258.909769 219.354973 
L 262.904976 213.284755 
L 266.771306 208.987858 
L 270.766513 206.373345 
L 274.632843 203.463278 
L 278.628051 200.394066 
L 282.623258 196.006231 
L 286.489588 192.618731 
L 290.484796 190.186096 
L 294.351125 188.2991 
L 298.346333 186.162019 
L 302.341541 184.434167 
L 305.950115 182.865459 
L 309.945323 181.046667 
L 313.811652 179.887187 
L 317.80686 178.454888 
L 321.67319 176.88618 
L 325.668397 174.61269 
L 329.663605 173.430475 
L 333.529935 172.748428 
L 337.525142 171.884502 
L 341.391472 170.838697 
L 345.386679 169.838361 
L 349.381887 168.9517 
L 353.119339 168.087774 
L 357.114547 166.996499 
L 360.980876 165.905224 
L 364.976084 162.563193 
L 368.842414 160.744401 
L 372.837621 159.152959 
L 376.832829 157.175022 
L 380.699159 155.583579 
L 384.694366 154.446834 
L 388.560696 153.742052 
L 392.555904 151.059334 
L 396.551111 148.53576 
L 400.159686 146.739703 
L 404.154893 145.057321 
L 408.021223 144.147925 
L 412.01643 142.533747 
L 415.88276 141.783495 
L 419.877968 141.033244 
L 423.873175 140.192052 
L 427.739505 139.259921 
L 431.734713 138.555139 
L 435.601042 137.691213 
L 439.59625 136.850022 
" clip-path="url(#p744f9b1019)" style="fill: none; stroke: #8c564b; stroke-width: 1.5; stroke-linecap: square"/>
   </g>
   <g id="text_16">
    <!-- brave/brave-browser -->
    <g style="fill: #1f77b4" transform="translate(450.30985 17.14)scale(0.14 -0.14)">
     <defs>
      <path id="MyriadPro-Regular-76" d="M 83 3098 
L 1261 0 
L 1798 0 
L 3014 3098 
L 2426 3098 
L 1824 1357 
C 1722 1075 1632 819 1562 563 
L 1542 563 
C 1478 819 1395 1075 1293 1357 
L 685 3098 
L 83 3098 
z
" transform="scale(0.015625)"/>
      <path id="MyriadPro-Regular-65" d="M 2957 1446 
C 2963 1504 2976 1594 2976 1709 
C 2976 2278 2707 3168 1696 3168 
C 794 3168 243 2432 243 1498 
C 243 563 813 -70 1766 -70 
C 2259 -70 2598 38 2797 128 
L 2701 531 
C 2490 442 2246 371 1843 371 
C 1280 371 794 685 781 1446 
L 2957 1446 
z
M 787 1850 
C 832 2240 1082 2765 1651 2765 
C 2285 2765 2438 2208 2432 1850 
L 787 1850 
z
" transform="scale(0.015625)"/>
      <path id="MyriadPro-Regular-2f" d="M 422 -256 
L 2214 4384 
L 1779 4384 
L -6 -256 
L 422 -256 
z
" transform="scale(0.015625)"/>
      <path id="MyriadPro-Regular-2d" d="M 192 1939 
L 192 1523 
L 1773 1523 
L 1773 1939 
L 192 1939 
z
" transform="scale(0.015625)"/>
      <path id="MyriadPro-Regular-6f" d="M 1779 3168 
C 922 3168 243 2560 243 1523 
C 243 544 890 -70 1728 -70 
C 2477 -70 3270 429 3270 1574 
C 3270 2522 2669 3168 1779 3168 
z
M 1766 2746 
C 2432 2746 2694 2080 2694 1555 
C 2694 858 2291 352 1754 352 
C 1203 352 813 864 813 1542 
C 813 2131 1101 2746 1766 2746 
z
" transform="scale(0.015625)"/>
      <path id="MyriadPro-Regular-77" d="M 115 3098 
L 1050 0 
L 1562 0 
L 2061 1472 
C 2170 1805 2266 2125 2342 2496 
L 2355 2496 
C 2432 2131 2522 1824 2630 1478 
L 3104 0 
L 3616 0 
L 4614 3098 
L 4058 3098 
L 3616 1542 
C 3514 1178 3430 851 3379 538 
L 3360 538 
C 3290 851 3200 1178 3085 1549 
L 2605 3098 
L 2131 3098 
L 1626 1523 
C 1523 1184 1421 851 1350 538 
L 1331 538 
C 1274 858 1190 1178 1101 1523 
L 691 3098 
L 115 3098 
z
" transform="scale(0.015625)"/>
     </defs>
     <use xlink:href="#MyriadPro-Regular-62"/>
     <use xlink:href="#MyriadPro-Regular-72" x="56.899994"/>
     <use xlink:href="#MyriadPro-Regular-61" x="89.599991"/>
     <use xlink:href="#MyriadPro-Regular-76" x="137.799988"/>
     <use xlink:href="#MyriadPro-Regular-65" x="185.899979"/>
     <use xlink:href="#MyriadPro-Regular-2f" x="235.999969"/>
     <use xlink:href="#MyriadPro-Regular-62" x="270.299957"/>
     <use xlink:href="#MyriadPro-Regular-72" x="327.199951"/>
     <use xlink:href="#MyriadPro-Regular-61" x="359.899948"/>
     <use xlink:href="#MyriadPro-Regular-76" x="408.099945"/>
     <use xlink:href="#MyriadPro-Regular-65" x="456.199936"/>
     <use xlink:href="#MyriadPro-Regular-2d" x="506.299927"/>
     <use xlink:href="#MyriadPro-Regular-62" x="536.999924"/>
     <use xlink:href="#MyriadPro-Regular-72" x="593.899918"/>
     <use xlink:href="#MyriadPro-Regular-6f" x="626.599915"/>
     <use xlink:href="#MyriadPro-Regular-77" x="681.499908"/>
     <use xlink:href="#MyriadPro-Regular-73" x="755.099899"/>
     <use xlink:href="#MyriadPro-Regular-65" x="794.69989"/>
     <use xlink:href="#MyriadPro-Regular-72" x="844.799881"/>
    </g>
   </g>
   <g id="text_17">
    <!-- chromium/chromium -->
    <g style="fill: #ff7f0e" transform="translate(450.30985 31.14)scale(0.14 -0.14)">
     <defs>
      <path id="MyriadPro-Regular-63" d="M 2579 538 
C 2419 467 2208 384 1888 384 
C 1274 384 813 826 813 1542 
C 813 2189 1197 2714 1907 2714 
C 2214 2714 2426 2643 2560 2566 
L 2688 3002 
C 2534 3078 2240 3162 1907 3162 
C 896 3162 243 2470 243 1517 
C 243 570 851 -70 1786 -70 
C 2202 -70 2528 38 2675 115 
L 2579 538 
z
" transform="scale(0.015625)"/>
      <path id="MyriadPro-Regular-68" d="M 467 0 
L 1030 0 
L 1030 1869 
C 1030 1978 1037 2061 1069 2138 
C 1171 2445 1459 2701 1824 2701 
C 2355 2701 2541 2278 2541 1779 
L 2541 0 
L 3104 0 
L 3104 1843 
C 3104 2912 2438 3168 2022 3168 
C 1811 3168 1613 3104 1446 3008 
C 1274 2912 1133 2771 1043 2611 
L 1030 2611 
L 1030 4544 
L 467 4544 
L 467 0 
z
" transform="scale(0.015625)"/>
      <path id="MyriadPro-Regular-6d" d="M 467 0 
L 1018 0 
L 1018 1869 
C 1018 1965 1030 2061 1062 2144 
C 1152 2426 1408 2707 1760 2707 
C 2189 2707 2406 2349 2406 1856 
L 2406 0 
L 2957 0 
L 2957 1914 
C 2957 2016 2976 2118 3002 2195 
C 3098 2470 3347 2707 3667 2707 
C 4122 2707 4339 2349 4339 1754 
L 4339 0 
L 4890 0 
L 4890 1824 
C 4890 2899 4282 3168 3872 3168 
C 3578 3168 3373 3091 3187 2950 
C 3059 2854 2938 2720 2842 2547 
L 2829 2547 
C 2694 2912 2374 3168 1952 3168 
C 1440 3168 1152 2893 979 2598 
L 960 2598 
L 934 3098 
L 442 3098 
C 461 2842 467 2579 467 2259 
L 467 0 
z
" transform="scale(0.015625)"/>
     </defs>
     <use xlink:href="#MyriadPro-Regular-63"/>
     <use xlink:href="#MyriadPro-Regular-68" x="44.799988"/>
     <use xlink:href="#MyriadPro-Regular-72" x="100.299973"/>
     <use xlink:href="#MyriadPro-Regular-6f" x="132.999969"/>
     <use xlink:href="#MyriadPro-Regular-6d" x="187.899963"/>
     <use xlink:href="#MyriadPro-Regular-69" x="271.299957"/>
     <use xlink:href="#MyriadPro-Regular-75" x="294.699951"/>
     <use xlink:href="#MyriadPro-Regular-6d" x="349.799942"/>
     <use xlink:href="#MyriadPro-Regular-2f" x="433.199936"/>
     <use xlink:href="#MyriadPro-Regular-63" x="467.499924"/>
     <use xlink:href="#MyriadPro-Regular-68" x="512.299911"/>
     <use xlink:href="#MyriadPro-Regular-72" x="567.799896"/>
     <use xlink:href="#MyriadPro-Regular-6f" x="600.499893"/>
     <use xlink:href="#MyriadPro-Regular-6d" x="655.399887"/>
     <use xlink:href="#MyriadPro-Regular-69" x="738.799881"/>
     <use xlink:href="#MyriadPro-Regular-75" x="762.199875"/>
     <use xlink:href="#MyriadPro-Regular-6d" x="817.299866"/>
    </g>
   </g>
   <g id="text_18">
    <!-- mozilla-mobile/firefox-ios -->
    <g style="fill: #2ca02c" transform="translate(450.30985 45.14)scale(0.14 -0.14)">
     <defs>
      <path id="MyriadPro-Regular-7a" d="M 115 0 
L 2630 0 
L 2630 448 
L 819 448 
L 819 461 
C 960 621 1088 774 1216 947 
L 2598 2746 
L 2605 3098 
L 243 3098 
L 243 2643 
L 1920 2643 
L 1920 2630 
C 1779 2464 1651 2317 1517 2150 
L 115 326 
L 115 0 
z
" transform="scale(0.015625)"/>
      <path id="MyriadPro-Regular-6c" d="M 467 0 
L 1030 0 
L 1030 4544 
L 467 4544 
L 467 0 
z
" transform="scale(0.015625)"/>
      <path id="MyriadPro-Regular-66" d="M 1082 0 
L 1082 2669 
L 1830 2669 
L 1830 3098 
L 1082 3098 
L 1082 3264 
C 1082 3738 1203 4160 1683 4160 
C 1843 4160 1958 4128 2042 4090 
L 2118 4525 
C 2010 4570 1837 4614 1638 4614 
C 1376 4614 1094 4531 883 4326 
C 621 4077 525 3680 525 3245 
L 525 3098 
L 90 3098 
L 90 2669 
L 525 2669 
L 525 0 
L 1082 0 
z
" transform="scale(0.015625)"/>
      <path id="MyriadPro-Regular-78" d="M 102 3098 
L 1152 1581 
L 51 0 
L 672 0 
L 1120 698 
C 1235 883 1344 1043 1446 1235 
L 1459 1235 
C 1568 1050 1670 877 1792 698 
L 2246 0 
L 2886 0 
L 1798 1600 
L 2854 3098 
L 2246 3098 
L 1811 2438 
C 1709 2272 1606 2112 1504 1926 
L 1485 1926 
C 1382 2099 1286 2259 1171 2432 
L 730 3098 
L 102 3098 
z
" transform="scale(0.015625)"/>
     </defs>
     <use xlink:href="#MyriadPro-Regular-6d"/>
     <use xlink:href="#MyriadPro-Regular-6f" x="83.399994"/>
     <use xlink:href="#MyriadPro-Regular-7a" x="138.299988"/>
     <use xlink:href="#MyriadPro-Regular-69" x="181.099976"/>
     <use xlink:href="#MyriadPro-Regular-6c" x="204.499969"/>
     <use xlink:href="#MyriadPro-Regular-6c" x="228.09996"/>
     <use xlink:href="#MyriadPro-Regular-61" x="251.699951"/>
     <use xlink:href="#MyriadPro-Regular-2d" x="299.899948"/>
     <use xlink:href="#MyriadPro-Regular-6d" x="330.599945"/>
     <use xlink:href="#MyriadPro-Regular-6f" x="413.999939"/>
     <use xlink:href="#MyriadPro-Regular-62" x="468.899933"/>
     <use xlink:href="#MyriadPro-Regular-69" x="525.799927"/>
     <use xlink:href="#MyriadPro-Regular-6c" x="549.199921"/>
     <use xlink:href="#MyriadPro-Regular-65" x="572.799911"/>
     <use xlink:href="#MyriadPro-Regular-2f" x="622.899902"/>
     <use xlink:href="#MyriadPro-Regular-66" x="657.19989"/>
     <use xlink:href="#MyriadPro-Regular-69" x="686.399887"/>
     <use xlink:href="#MyriadPro-Regular-72" x="709.799881"/>
     <use xlink:href="#MyriadPro-Regular-65" x="742.499878"/>
     <use xlink:href="#MyriadPro-Regular-66" x="792.599869"/>
     <use xlink:href="#MyriadPro-Regular-6f" x="821.799866"/>
     <use xlink:href="#MyriadPro-Regular-78" x="876.69986"/>
     <use xlink:href="#MyriadPro-Regular-2d" x="922.999847"/>
     <use xlink:href="#MyriadPro-Regular-69" x="953.699844"/>
     <use xlink:href="#MyriadPro-Regular-6f" x="977.099838"/>
     <use xlink:href="#MyriadPro-Regular-73" x="1031.999832"/>
    </g>
   </g>
   <g id="text_19">
    <!-- qutebrowser/qutebrowser -->
    <g style="fill: #d62728" transform="translate(450.30985 113.702697)scale(0.14 -0.14)">
     <defs>
      <path id="MyriadPro-Regular-71" d="M 2579 -1267 
L 3142 -1267 
L 3142 2246 
C 3142 2566 3149 2835 3162 3098 
L 2630 3098 
L 2611 2630 
L 2598 2630 
C 2445 2931 2125 3168 1645 3168 
C 992 3168 243 2656 243 1498 
C 243 557 832 -70 1555 -70 
C 2054 -70 2400 173 2566 480 
L 2579 480 
L 2579 -1267 
z
M 2579 1261 
C 2579 1178 2560 1069 2534 992 
C 2406 602 2093 378 1728 378 
C 1107 378 813 915 813 1530 
C 813 2227 1165 2720 1747 2720 
C 2170 2720 2470 2426 2554 2080 
C 2573 2010 2579 1920 2579 1843 
L 2579 1261 
z
" transform="scale(0.015625)"/>
     </defs>
     <use xlink:href="#MyriadPro-Regular-71"/>
     <use xlink:href="#MyriadPro-Regular-75" x="56.299988"/>
     <use xlink:href="#MyriadPro-Regular-74" x="111.399979"/>
     <use xlink:href="#MyriadPro-Regular-65" x="144.499969"/>
     <use xlink:href="#MyriadPro-Regular-62" x="194.59996"/>
     <use xlink:href="#MyriadPro-Regular-72" x="251.499954"/>
     <use xlink:href="#MyriadPro-Regular-6f" x="284.199951"/>
     <use xlink:href="#MyriadPro-Regular-77" x="339.099945"/>
     <use xlink:href="#MyriadPro-Regular-73" x="412.699936"/>
     <use xlink:href="#MyriadPro-Regular-65" x="452.299927"/>
     <use xlink:href="#MyriadPro-Regular-72" x="502.399918"/>
     <use xlink:href="#MyriadPro-Regular-2f" x="535.099915"/>
     <use xlink:href="#MyriadPro-Regular-71" x="569.399902"/>
     <use xlink:href="#MyriadPro-Regular-75" x="625.69989"/>
     <use xlink:href="#MyriadPro-Regular-74" x="680.799881"/>
     <use xlink:href="#MyriadPro-Regular-65" x="713.899872"/>
     <use xlink:href="#MyriadPro-Regular-62" x="763.999863"/>
     <use xlink:href="#MyriadPro-Regular-72" x="820.899857"/>
     <use xlink:href="#MyriadPro-Regular-6f" x="853.599854"/>
     <use xlink:href="#MyriadPro-Regular-77" x="908.499847"/>
     <use xlink:href="#MyriadPro-Regular-73" x="982.099838"/>
     <use xlink:href="#MyriadPro-Regular-65" x="1021.699829"/>
     <use xlink:href="#MyriadPro-Regular-72" x="1071.79982"/>
    </g>
   </g>
   <g id="text_20">
    <!-- atlas-engineer/nyxt -->
    <g style="fill: #9467bd" transform="translate(450.30985 127.541916)scale(0.14 -0.14)">
     <defs>
      <path id="MyriadPro-Regular-6e" d="M 467 0 
L 1030 0 
L 1030 1862 
C 1030 1958 1043 2054 1069 2125 
C 1165 2438 1453 2701 1824 2701 
C 2355 2701 2541 2285 2541 1786 
L 2541 0 
L 3104 0 
L 3104 1850 
C 3104 2912 2438 3168 2010 3168 
C 1498 3168 1139 2880 986 2586 
L 973 2586 
L 941 3098 
L 442 3098 
C 461 2842 467 2579 467 2259 
L 467 0 
z
" transform="scale(0.015625)"/>
      <path id="MyriadPro-Regular-67" d="M 3110 2246 
C 3110 2624 3123 2874 3136 3098 
L 2643 3098 
L 2618 2630 
L 2605 2630 
C 2470 2886 2176 3168 1638 3168 
C 928 3168 243 2573 243 1523 
C 243 666 794 13 1562 13 
C 2042 13 2374 243 2547 531 
L 2560 531 
L 2560 186 
C 2560 -595 2138 -896 1562 -896 
C 1178 -896 858 -781 653 -653 
L 512 -1082 
C 762 -1248 1171 -1338 1542 -1338 
C 1933 -1338 2368 -1248 2669 -966 
C 2970 -698 3110 -262 3110 448 
L 3110 2246 
z
M 2554 1318 
C 2554 1222 2541 1114 2509 1018 
C 2387 659 2074 442 1728 442 
C 1120 442 813 947 813 1555 
C 813 2272 1197 2726 1734 2726 
C 2144 2726 2419 2458 2522 2131 
C 2547 2054 2554 1971 2554 1875 
L 2554 1318 
z
" transform="scale(0.015625)"/>
      <path id="MyriadPro-Regular-79" d="M 58 3098 
L 1203 243 
C 1229 173 1242 128 1242 96 
C 1242 64 1222 19 1197 -38 
C 1069 -326 877 -544 723 -666 
C 557 -806 371 -896 230 -941 
L 371 -1414 
C 512 -1389 787 -1293 1062 -1050 
C 1446 -717 1722 -173 2125 890 
L 2970 3098 
L 2374 3098 
L 1760 1280 
C 1683 1056 1619 819 1562 634 
L 1549 634 
C 1498 819 1421 1062 1350 1267 
L 672 3098 
L 58 3098 
z
" transform="scale(0.015625)"/>
     </defs>
     <use xlink:href="#MyriadPro-Regular-61"/>
     <use xlink:href="#MyriadPro-Regular-74" x="48.199997"/>
     <use xlink:href="#MyriadPro-Regular-6c" x="81.299988"/>
     <use xlink:href="#MyriadPro-Regular-61" x="104.899979"/>
     <use xlink:href="#MyriadPro-Regular-73" x="153.099976"/>
     <use xlink:href="#MyriadPro-Regular-2d" x="192.699966"/>
     <use xlink:href="#MyriadPro-Regular-65" x="223.399963"/>
     <use xlink:href="#MyriadPro-Regular-6e" x="273.499954"/>
     <use xlink:href="#MyriadPro-Regular-67" x="328.999939"/>
     <use xlink:href="#MyriadPro-Regular-69" x="384.899933"/>
     <use xlink:href="#MyriadPro-Regular-6e" x="408.299927"/>
     <use xlink:href="#MyriadPro-Regular-65" x="463.799911"/>
     <use xlink:href="#MyriadPro-Regular-65" x="513.899902"/>
     <use xlink:href="#MyriadPro-Regular-72" x="563.999893"/>
     <use xlink:href="#MyriadPro-Regular-2f" x="596.69989"/>
     <use xlink:href="#MyriadPro-Regular-6e" x="630.999878"/>
     <use xlink:href="#MyriadPro-Regular-79" x="686.499863"/>
     <use xlink:href="#MyriadPro-Regular-78" x="733.599854"/>
     <use xlink:href="#MyriadPro-Regular-74" x="779.899841"/>
    </g>
   </g>
   <g id="text_21">
    <!-- beakerbrowser/beaker -->
    <g style="fill: #8c564b" transform="translate(450.30985 141.702697)scale(0.14 -0.14)">
     <defs>
      <path id="MyriadPro-Regular-6b" d="M 1024 4544 
L 467 4544 
L 467 0 
L 1024 0 
L 1024 1165 
L 1312 1485 
L 2381 0 
L 3066 0 
L 1702 1824 
L 2899 3098 
L 2221 3098 
L 1312 2029 
C 1222 1920 1114 1786 1037 1677 
L 1024 1677 
L 1024 4544 
z
" transform="scale(0.015625)"/>
     </defs>
     <use xlink:href="#MyriadPro-Regular-62"/>
     <use xlink:href="#MyriadPro-Regular-65" x="56.899994"/>
     <use xlink:href="#MyriadPro-Regular-61" x="106.999985"/>
     <use xlink:href="#MyriadPro-Regular-6b" x="155.199982"/>
     <use xlink:href="#MyriadPro-Regular-65" x="202.099976"/>
     <use xlink:href="#MyriadPro-Regular-72" x="252.199966"/>
     <use xlink:href="#MyriadPro-Regular-62" x="284.899963"/>
     <use xlink:href="#MyriadPro-Regular-72" x="341.799957"/>
     <use xlink:href="#MyriadPro-Regular-6f" x="374.499954"/>
     <use xlink:href="#MyriadPro-Regular-77" x="429.399948"/>
     <use xlink:href="#MyriadPro-Regular-73" x="502.999939"/>
     <use xlink:href="#MyriadPro-Regular-65" x="542.59993"/>
     <use xlink:href="#MyriadPro-Regular-72" x="592.699921"/>
     <use xlink:href="#MyriadPro-Regular-2f" x="625.399918"/>
     <use xlink:href="#MyriadPro-Regular-62" x="659.699905"/>
     <use xlink:href="#MyriadPro-Regular-65" x="716.599899"/>
     <use xlink:href="#MyriadPro-Regular-61" x="766.69989"/>
     <use xlink:href="#MyriadPro-Regular-6b" x="814.899887"/>
     <use xlink:href="#MyriadPro-Regular-65" x="861.799881"/>
     <use xlink:href="#MyriadPro-Regular-72" x="911.899872"/>
    </g>
   </g>
   <g id="text_22">
    <!-- mozilla-mobile/fenix -->
    <g style="fill: #e377c2" transform="translate(450.30985 162.578033)scale(0.14 -0.14)">
     <use xlink:href="#MyriadPro-Regular-6d"/>
     <use xlink:href="#MyriadPro-Regular-6f" x="83.399994"/>
     <use xlink:href="#MyriadPro-Regular-7a" x="138.299988"/>
     <use xlink:href="#MyriadPro-Regular-69" x="181.099976"/>
     <use xlink:href="#MyriadPro-Regular-6c" x="204.499969"/>
     <use xlink:href="#MyriadPro-Regular-6c" x="228.09996"/>
     <use xlink:href="#MyriadPro-Regular-61" x="251.699951"/>
     <use xlink:href="#MyriadPro-Regular-2d" x="299.899948"/>
     <use xlink:href="#MyriadPro-Regular-6d" x="330.599945"/>
     <use xlink:href="#MyriadPro-Regular-6f" x="413.999939"/>
     <use xlink:href="#MyriadPro-Regular-62" x="468.899933"/>
     <use xlink:href="#MyriadPro-Regular-69" x="525.799927"/>
     <use xlink:href="#MyriadPro-Regular-6c" x="549.199921"/>
     <use xlink:href="#MyriadPro-Regular-65" x="572.799911"/>
     <use xlink:href="#MyriadPro-Regular-2f" x="622.899902"/>
     <use xlink:href="#MyriadPro-Regular-66" x="657.19989"/>
     <use xlink:href="#MyriadPro-Regular-65" x="686.399887"/>
     <use xlink:href="#MyriadPro-Regular-6e" x="736.499878"/>
     <use xlink:href="#MyriadPro-Regular-69" x="791.999863"/>
     <use xlink:href="#MyriadPro-Regular-78" x="815.399857"/>
    </g>
   </g>
   <g id="text_23">
    <!-- MicrosoftEdge/MSEdge -->
    <g style="fill: #7f7f7f" transform="translate(450.30985 226.371068)scale(0.14 -0.14)">
     <defs>
      <path id="MyriadPro-Regular-4d" d="M 4230 0 
L 4774 0 
L 4506 4314 
L 3795 4314 
L 3027 2227 
C 2835 1683 2682 1210 2573 774 
L 2554 774 
C 2445 1222 2298 1696 2118 2227 
L 1382 4314 
L 672 4314 
L 371 0 
L 902 0 
L 1018 1850 
C 1056 2496 1088 3219 1101 3757 
L 1114 3757 
C 1235 3245 1408 2688 1613 2080 
L 2310 26 
L 2733 26 
L 3494 2118 
C 3712 2707 3891 3251 4038 3757 
L 4058 3757 
C 4051 3219 4090 2496 4122 1894 
L 4230 0 
z
" transform="scale(0.015625)"/>
      <path id="MyriadPro-Regular-45" d="M 2720 2483 
L 1043 2483 
L 1043 3846 
L 2816 3846 
L 2816 4314 
L 486 4314 
L 486 0 
L 2912 0 
L 2912 467 
L 1043 467 
L 1043 2022 
L 2720 2022 
L 2720 2483 
z
" transform="scale(0.015625)"/>
      <path id="MyriadPro-Regular-64" d="M 2579 4544 
L 2579 2694 
L 2566 2694 
C 2426 2944 2106 3168 1632 3168 
C 877 3168 237 2534 243 1504 
C 243 563 819 -70 1568 -70 
C 2074 -70 2451 192 2624 538 
L 2637 538 
L 2662 0 
L 3168 0 
C 3149 211 3142 525 3142 800 
L 3142 4544 
L 2579 4544 
z
M 2579 1299 
C 2579 1210 2573 1133 2554 1056 
C 2451 634 2106 384 1728 384 
C 1120 384 813 902 813 1530 
C 813 2214 1158 2726 1741 2726 
C 2163 2726 2470 2432 2554 2074 
C 2573 2003 2579 1907 2579 1837 
L 2579 1299 
z
" transform="scale(0.015625)"/>
      <path id="MyriadPro-Regular-53" d="M 269 211 
C 499 58 954 -70 1370 -70 
C 2387 -70 2880 512 2880 1178 
C 2880 1811 2509 2163 1779 2445 
C 1184 2675 922 2874 922 3277 
C 922 3571 1146 3923 1734 3923 
C 2125 3923 2413 3795 2554 3718 
L 2707 4173 
C 2515 4282 2195 4384 1754 4384 
C 915 4384 358 3885 358 3213 
C 358 2605 794 2240 1498 1990 
C 2080 1766 2310 1536 2310 1133 
C 2310 698 1978 397 1408 397 
C 1024 397 659 525 410 678 
L 269 211 
z
" transform="scale(0.015625)"/>
     </defs>
     <use xlink:href="#MyriadPro-Regular-4d"/>
     <use xlink:href="#MyriadPro-Regular-69" x="80.399994"/>
     <use xlink:href="#MyriadPro-Regular-63" x="103.799988"/>
     <use xlink:href="#MyriadPro-Regular-72" x="148.599976"/>
     <use xlink:href="#MyriadPro-Regular-6f" x="181.299973"/>
     <use xlink:href="#MyriadPro-Regular-73" x="236.199966"/>
     <use xlink:href="#MyriadPro-Regular-6f" x="275.799957"/>
     <use xlink:href="#MyriadPro-Regular-66" x="330.699951"/>
     <use xlink:href="#MyriadPro-Regular-74" x="359.899948"/>
     <use xlink:href="#MyriadPro-Regular-45" x="392.999939"/>
     <use xlink:href="#MyriadPro-Regular-64" x="442.199936"/>
     <use xlink:href="#MyriadPro-Regular-67" x="498.59993"/>
     <use xlink:href="#MyriadPro-Regular-65" x="554.499924"/>
     <use xlink:href="#MyriadPro-Regular-2f" x="604.599915"/>
     <use xlink:href="#MyriadPro-Regular-4d" x="638.899902"/>
     <use xlink:href="#MyriadPro-Regular-53" x="719.299896"/>
     <use xlink:href="#MyriadPro-Regular-45" x="768.599884"/>
     <use xlink:href="#MyriadPro-Regular-64" x="817.799881"/>
     <use xlink:href="#MyriadPro-Regular-67" x="874.199875"/>
     <use xlink:href="#MyriadPro-Regular-65" x="930.099869"/>
    </g>
   </g>
   <g id="text_24">
    <!-- @nschloe / gh-trends | Nico Schlömer | CC BY -->
    <g style="fill: #b0b0b0" transform="translate(82.47625 316.842687)scale(0.09716 -0.09716)">
     <defs>
      <path id="MyriadPro-Regular-40" d="M 2867 1632 
C 2797 1235 2458 762 2086 762 
C 1805 762 1664 966 1664 1248 
C 1664 1869 2118 2400 2682 2400 
C 2829 2400 2938 2374 3002 2355 
L 2867 1632 
z
M 3251 -141 
C 2989 -288 2650 -365 2285 -365 
C 1338 -365 640 301 640 1370 
C 640 2669 1517 3501 2560 3501 
C 3552 3501 4109 2829 4109 1901 
C 4109 1158 3744 723 3418 730 
C 3206 736 3130 960 3226 1446 
L 3443 2605 
C 3277 2682 3034 2739 2758 2739 
C 1869 2739 1242 2016 1242 1222 
C 1242 717 1562 416 1933 416 
C 2317 416 2611 602 2835 979 
L 2861 979 
C 2842 589 3078 416 3334 416 
C 3936 416 4474 979 4474 1939 
C 4474 3008 3725 3795 2611 3795 
C 1190 3795 275 2650 275 1331 
C 275 96 1165 -672 2214 -672 
C 2643 -672 3002 -602 3354 -416 
L 3251 -141 
z
" transform="scale(0.015625)"/>
      <path id="MyriadPro-Regular-7c" d="M 550 4800 
L 550 -1600 
L 979 -1600 
L 979 4800 
L 550 4800 
z
" transform="scale(0.015625)"/>
      <path id="MyriadPro-Regular-4e" d="M 1011 0 
L 1011 1843 
C 1011 2560 998 3078 966 3622 
L 986 3629 
C 1203 3162 1491 2669 1792 2189 
L 3162 0 
L 3725 0 
L 3725 4314 
L 3200 4314 
L 3200 2509 
C 3200 1837 3213 1312 3264 736 
L 3251 730 
C 3046 1171 2797 1626 2477 2131 
L 1094 4314 
L 486 4314 
L 486 0 
L 1011 0 
z
" transform="scale(0.015625)"/>
      <path id="MyriadPro-Regular-f6" d="M 1165 3648 
C 1350 3648 1478 3802 1478 3974 
C 1478 4160 1344 4301 1165 4301 
C 986 4301 838 4154 838 3974 
C 838 3802 973 3648 1158 3648 
L 1165 3648 
z
M 2349 3648 
C 2534 3648 2662 3802 2662 3974 
C 2662 4160 2528 4301 2349 4301 
C 2170 4301 2029 4154 2029 3974 
C 2029 3802 2157 3648 2342 3648 
L 2349 3648 
z
M 1779 3168 
C 922 3168 243 2560 243 1523 
C 243 544 890 -70 1728 -70 
C 2477 -70 3270 429 3270 1574 
C 3270 2522 2669 3168 1779 3168 
z
M 1766 2746 
C 2432 2746 2694 2080 2694 1555 
C 2694 858 2291 352 1754 352 
C 1203 352 813 864 813 1542 
C 813 2131 1101 2746 1766 2746 
z
" transform="scale(0.015625)"/>
      <path id="MyriadPro-Regular-43" d="M 3386 582 
C 3162 474 2816 403 2477 403 
C 1427 403 819 1082 819 2138 
C 819 3270 1491 3917 2502 3917 
C 2861 3917 3162 3840 3373 3738 
L 3507 4192 
C 3360 4269 3021 4384 2483 4384 
C 1146 4384 230 3469 230 2118 
C 230 704 1146 -70 2362 -70 
C 2886 -70 3296 38 3501 141 
L 3386 582 
z
" transform="scale(0.015625)"/>
      <path id="MyriadPro-Regular-42" d="M 486 13 
C 672 -13 966 -38 1350 -38 
C 2054 -38 2541 90 2842 365 
C 3059 576 3206 858 3206 1229 
C 3206 1869 2726 2208 2317 2310 
L 2317 2323 
C 2771 2490 3046 2854 3046 3270 
C 3046 3610 2912 3866 2688 4032 
C 2419 4250 2061 4346 1504 4346 
C 1114 4346 730 4307 486 4256 
L 486 13 
z
M 1043 3878 
C 1133 3898 1280 3917 1536 3917 
C 2099 3917 2483 3718 2483 3213 
C 2483 2797 2138 2490 1549 2490 
L 1043 2490 
L 1043 3878 
z
M 1043 2067 
L 1504 2067 
C 2112 2067 2618 1824 2618 1235 
C 2618 608 2086 397 1510 397 
C 1312 397 1152 403 1043 422 
L 1043 2067 
z
" transform="scale(0.015625)"/>
      <path id="MyriadPro-Regular-59" d="M 2010 0 
L 2010 1837 
L 3456 4314 
L 2822 4314 
L 2202 3123 
C 2035 2797 1888 2515 1766 2234 
L 1754 2234 
C 1619 2534 1491 2797 1325 3123 
L 717 4314 
L 83 4314 
L 1446 1830 
L 1446 0 
L 2010 0 
z
" transform="scale(0.015625)"/>
     </defs>
     <use xlink:href="#MyriadPro-Regular-40"/>
     <use xlink:href="#MyriadPro-Regular-6e" x="73.699982"/>
     <use xlink:href="#MyriadPro-Regular-73" x="129.199966"/>
     <use xlink:href="#MyriadPro-Regular-63" x="168.799957"/>
     <use xlink:href="#MyriadPro-Regular-68" x="213.599945"/>
     <use xlink:href="#MyriadPro-Regular-6c" x="269.09993"/>
     <use xlink:href="#MyriadPro-Regular-6f" x="292.699921"/>
     <use xlink:href="#MyriadPro-Regular-65" x="347.599915"/>
     <use xlink:href="#MyriadPro-Regular-20" x="397.699905"/>
     <use xlink:href="#MyriadPro-Regular-2f" x="418.899902"/>
     <use xlink:href="#MyriadPro-Regular-20" x="453.19989"/>
     <use xlink:href="#MyriadPro-Regular-67" x="474.399887"/>
     <use xlink:href="#MyriadPro-Regular-68" x="530.299881"/>
     <use xlink:href="#MyriadPro-Regular-2d" x="585.799866"/>
     <use xlink:href="#MyriadPro-Regular-74" x="616.499863"/>
     <use xlink:href="#MyriadPro-Regular-72" x="649.599854"/>
     <use xlink:href="#MyriadPro-Regular-65" x="682.29985"/>
     <use xlink:href="#MyriadPro-Regular-6e" x="732.399841"/>
     <use xlink:href="#MyriadPro-Regular-64" x="787.899826"/>
     <use xlink:href="#MyriadPro-Regular-73" x="844.29982"/>
     <use xlink:href="#MyriadPro-Regular-20" x="883.899811"/>
     <use xlink:href="#MyriadPro-Regular-7c" x="905.099808"/>
     <use xlink:href="#MyriadPro-Regular-20" x="928.999802"/>
     <use xlink:href="#MyriadPro-Regular-4e" x="950.199799"/>
     <use xlink:href="#MyriadPro-Regular-69" x="1015.999786"/>
     <use xlink:href="#MyriadPro-Regular-63" x="1039.39978"/>
     <use xlink:href="#MyriadPro-Regular-6f" x="1084.199768"/>
     <use xlink:href="#MyriadPro-Regular-20" x="1139.099762"/>
     <use xlink:href="#MyriadPro-Regular-53" x="1160.299759"/>
     <use xlink:href="#MyriadPro-Regular-63" x="1209.599747"/>
     <use xlink:href="#MyriadPro-Regular-68" x="1254.399734"/>
     <use xlink:href="#MyriadPro-Regular-6c" x="1309.899719"/>
     <use xlink:href="#MyriadPro-Regular-f6" x="1333.49971"/>
     <use xlink:href="#MyriadPro-Regular-6d" x="1388.399704"/>
     <use xlink:href="#MyriadPro-Regular-65" x="1471.799698"/>
     <use xlink:href="#MyriadPro-Regular-72" x="1521.899689"/>
     <use xlink:href="#MyriadPro-Regular-20" x="1554.599686"/>
     <use xlink:href="#MyriadPro-Regular-7c" x="1575.799683"/>
     <use xlink:href="#MyriadPro-Regular-20" x="1599.699677"/>
     <use xlink:href="#MyriadPro-Regular-43" x="1620.899673"/>
     <use xlink:href="#MyriadPro-Regular-43" x="1678.899658"/>
     <use xlink:href="#MyriadPro-Regular-20" x="1736.899643"/>
     <use xlink:href="#MyriadPro-Regular-42" x="1758.09964"/>
     <use xlink:href="#MyriadPro-Regular-59" x="1812.299637"/>
    </g>
   </g>
   <g id="line2d_24">
    <path d="M 215.86463 282.944487 
L 219.730959 282.921752 
L 223.726167 282.921752 
L 227.592497 282.876282 
L 231.587704 282.830812 
L 235.582912 282.398849 
L 239.449242 281.375779 
L 243.444449 275.48744 
L 247.310779 265.27947 
L 251.305987 263.165124 
L 255.301194 258.481735 
L 258.909769 257.34499 
L 262.904976 256.572003 
L 266.771306 256.071836 
L 270.766513 253.366383 
L 274.632843 252.456987 
L 278.628051 251.865879 
L 282.623258 250.956483 
L 286.489588 249.251366 
L 290.484796 247.591718 
L 294.351125 246.727792 
L 298.346333 234.996584 
L 302.341541 233.905308 
L 305.950115 232.882238 
L 309.945323 232.245661 
L 313.811652 230.790627 
L 317.80686 227.630476 
L 321.67319 220.287104 
L 325.668397 216.55858 
L 329.663605 207.896583 
L 333.529935 203.440543 
L 337.525142 200.121248 
L 341.391472 198.893563 
L 345.386679 197.893227 
L 349.381887 196.620073 
L 353.119339 194.482993 
L 357.114547 192.050358 
L 360.980876 189.913278 
L 364.976084 186.616717 
L 368.842414 184.252288 
L 372.837621 180.955727 
L 376.832829 179.023261 
L 380.699159 177.158999 
L 384.694366 175.249267 
L 388.560696 172.793898 
L 392.555904 171.407069 
L 396.551111 168.656147 
L 400.159686 166.314452 
L 404.154893 156.356566 
L 408.021223 153.923932 
L 412.01643 147.46722 
L 415.88276 138.577874 
L 419.877968 136.258915 
L 423.873175 132.71227 
L 427.739505 129.142891 
L 431.734713 127.278629 
L 435.601042 124.936935 
L 439.59625 121.708579 
" clip-path="url(#p744f9b1019)" style="fill: none; stroke: #9467bd; stroke-width: 1.5; stroke-linecap: square"/>
   </g>
   <g id="line2d_25">
    <path d="M 82.47625 282.944487 
L 86.34258 282.899017 
L 90.337787 282.876282 
L 94.332995 282.853547 
L 98.199325 282.830812 
L 102.194532 282.671668 
L 106.060862 282.489789 
L 110.05607 276.851534 
L 114.051277 274.555309 
L 117.659852 273.918732 
L 121.655059 272.895661 
L 125.521389 272.350024 
L 129.516596 271.736181 
L 133.382926 270.89499 
L 137.378134 270.167473 
L 141.373341 269.553631 
L 145.239671 268.985259 
L 149.234879 268.098597 
L 153.101208 267.211936 
L 157.096416 266.416215 
L 161.091624 265.415879 
L 164.829076 264.870242 
L 168.824283 262.301198 
L 172.690613 260.618816 
L 176.685821 259.072842 
L 180.55215 258.027037 
L 184.547358 255.526198 
L 188.542565 253.639201 
L 192.408895 252.297842 
L 196.404103 251.342976 
L 200.270433 250.52452 
L 204.26564 249.660594 
L 208.260848 248.364705 
L 211.869422 246.773262 
L 215.86463 245.454637 
L 219.730959 243.408496 
L 223.726167 241.907993 
L 227.592497 239.861852 
L 231.587704 238.361349 
L 235.582912 236.565292 
L 239.449242 235.223933 
L 243.444449 229.381063 
L 247.310779 226.743815 
L 251.305987 222.515124 
L 255.301194 220.514453 
L 258.909769 219.013949 
L 262.904976 216.64952 
L 266.771306 215.126281 
L 270.766513 212.807322 
L 274.632843 210.94306 
L 278.628051 208.851449 
L 282.623258 207.169067 
L 286.489588 203.258664 
L 290.484796 200.121248 
L 294.351125 198.279721 
L 298.346333 195.869821 
L 302.341541 193.346248 
L 305.950115 191.663865 
L 309.945323 189.890543 
L 313.811652 187.253294 
L 317.80686 185.411768 
L 321.67319 183.320157 
L 325.668397 181.47863 
L 329.663605 180.114536 
L 333.529935 178.659502 
L 337.525142 177.204469 
L 341.391472 176.113194 
L 345.386679 174.044318 
L 349.381887 172.157321 
L 353.119339 170.383999 
L 357.114547 168.337858 
L 360.980876 165.791549 
L 364.976084 162.563193 
L 368.842414 160.107824 
L 372.837621 158.493646 
L 376.832829 156.083747 
L 380.699159 154.28769 
L 384.694366 152.468898 
L 388.560696 149.64977 
L 392.555904 147.717304 
L 396.551111 141.124183 
L 400.159686 137.600274 
L 404.154893 134.121834 
L 408.021223 131.257237 
L 412.01643 129.029217 
L 415.88276 126.892136 
L 419.877968 124.573176 
L 423.873175 122.345156 
L 427.739505 120.253545 
L 431.734713 118.1392 
L 435.601042 115.979384 
L 439.59625 113.796834 
" clip-path="url(#p744f9b1019)" style="fill: none; stroke: #d62728; stroke-width: 1.5; stroke-linecap: square"/>
   </g>
   <g id="line2d_26">
    <path d="M 106.060862 282.944487 
L 110.05607 231.154386 
L 114.051277 227.198513 
L 117.659852 225.175107 
L 121.655059 222.856147 
L 125.521389 220.991885 
L 129.516596 218.83207 
L 133.382926 216.694989 
L 137.378134 213.784922 
L 141.373341 211.579637 
L 145.239671 208.237607 
L 149.234879 205.941382 
L 153.101208 183.251952 
L 157.096416 179.045996 
L 161.091624 176.022254 
L 164.829076 173.225861 
L 168.824283 170.133915 
L 172.690613 167.88316 
L 176.685821 165.382321 
L 180.55215 163.495324 
L 184.547358 161.790207 
L 188.542565 157.243227 
L 192.408895 152.855391 
L 196.404103 147.308076 
L 200.270433 144.102455 
L 204.26564 141.988109 
L 208.260848 140.237522 
L 211.869422 137.577539 
L 215.86463 135.053965 
L 219.730959 133.166968 
L 223.726167 131.620995 
L 227.592497 128.688193 
L 231.587704 127.09675 
L 235.582912 125.346163 
L 239.449242 123.641045 
L 243.444449 121.913193 
L 247.310779 119.867052 
L 251.305987 117.820911 
L 255.301194 115.842975 
L 258.909769 114.365206 
L 262.904976 112.500945 
L 266.771306 110.841297 
L 270.766513 109.454468 
L 274.632843 107.79482 
L 278.628051 106.317052 
L 282.623258 104.816548 
L 286.489588 103.406985 
L 290.484796 101.929216 
L 294.351125 100.542387 
L 298.346333 99.360173 
L 302.341541 97.382236 
L 305.950115 96.154552 
L 309.945323 94.858662 
L 313.811652 93.244485 
L 317.80686 91.721246 
L 321.67319 90.379887 
L 325.668397 89.311347 
L 329.663605 87.356146 
L 333.529935 86.173931 
L 337.525142 84.741632 
L 341.391472 83.127454 
L 345.386679 81.672421 
L 349.381887 80.64935 
L 353.119339 79.330726 
L 357.114547 77.648343 
L 360.980876 75.943226 
L 364.976084 74.056229 
L 368.842414 72.737605 
L 372.837621 71.100692 
L 376.832829 70.054887 
L 380.699159 68.827202 
L 384.694366 67.394904 
L 388.560696 66.008075 
L 392.555904 61.415625 
L 396.551111 60.097001 
L 400.159686 54.367806 
L 404.154893 53.140122 
L 408.021223 51.866967 
L 412.01643 50.798427 
L 415.88276 49.570742 
L 419.877968 47.911095 
L 423.873175 46.274182 
L 427.739505 44.955558 
L 431.734713 43.29591 
L 435.601042 41.863611 
L 439.59625 40.772336 
" clip-path="url(#p744f9b1019)" style="fill: none; stroke: #2ca02c; stroke-width: 1.5; stroke-linecap: square"/>
   </g>
   <g id="line2d_27">
    <path d="M 255.301194 282.944487 
L 258.909769 281.262104 
L 262.904976 272.509168 
L 266.771306 269.167138 
L 270.766513 265.438614 
L 274.632843 262.301198 
L 278.628051 258.618144 
L 282.623258 253.184503 
L 286.489588 248.751198 
L 290.484796 244.681651 
L 294.351125 240.089201 
L 298.346333 232.859503 
L 302.341541 227.312188 
L 305.950115 223.33358 
L 309.945323 216.172087 
L 313.811652 208.805979 
L 317.80686 202.553882 
L 321.67319 197.506734 
L 325.668397 192.686935 
L 329.663605 187.707992 
L 333.529935 182.751784 
L 337.525142 176.999855 
L 341.391472 171.770828 
L 345.386679 166.519066 
L 349.381887 162.1767 
L 353.119339 157.834334 
L 357.114547 152.559838 
L 360.980876 147.171666 
L 364.976084 140.669485 
L 368.842414 135.213109 
L 372.837621 130.188696 
L 376.832829 124.9142 
L 380.699159 119.980726 
L 384.694366 115.138193 
L 388.560696 109.931901 
L 392.555904 104.179971 
L 396.551111 98.064283 
L 400.159686 93.926532 
L 404.154893 88.197337 
L 408.021223 82.513612 
L 412.01643 76.14784 
L 415.88276 59.21034 
L 419.877968 53.276531 
L 423.873175 47.979299 
L 427.739505 41.818142 
L 431.734713 37.066548 
L 435.601042 30.95086 
L 439.59625 25.062521 
" clip-path="url(#p744f9b1019)" style="fill: none; stroke: #ff7f0e; stroke-width: 1.5; stroke-linecap: square"/>
   </g>
   <g id="line2d_28">
    <path d="M 243.444449 282.944487 
L 247.310779 282.921752 
L 251.305987 282.921752 
L 255.301194 282.921752 
L 258.909769 282.899017 
L 262.904976 282.285175 
L 266.771306 281.785007 
L 270.766513 281.1939 
L 274.632843 280.625527 
L 278.628051 279.852541 
L 282.623258 279.147759 
L 286.489588 275.3965 
L 290.484796 270.531232 
L 294.351125 266.689034 
L 298.346333 261.300862 
L 302.341541 255.457993 
L 305.950115 250.888278 
L 309.945323 243.908664 
L 313.811652 236.97452 
L 317.80686 229.04004 
L 321.67319 220.923681 
L 325.668397 210.874855 
L 329.663605 205.054721 
L 333.529935 199.780224 
L 337.525142 194.028295 
L 341.391472 183.433831 
L 345.386679 178.204804 
L 349.381887 173.157657 
L 353.119339 167.860425 
L 357.114547 163.086096 
L 360.980876 153.992136 
L 364.976084 147.921918 
L 368.842414 141.215123 
L 372.837621 135.781482 
L 376.832829 130.916213 
L 380.699159 126.164619 
L 384.694366 120.776448 
L 388.560696 115.229132 
L 392.555904 109.954636 
L 396.551111 99.655726 
L 400.159686 92.039535 
L 404.154893 84.787102 
L 408.021223 76.966296 
L 412.01643 70.191296 
L 415.88276 63.598175 
L 419.877968 58.210004 
L 423.873175 51.13945 
L 427.739505 42.932152 
L 431.734713 35.543309 
L 435.601042 24.13039 
L 439.59625 16.832487 
" clip-path="url(#p744f9b1019)" style="fill: none; stroke: #1f77b4; stroke-width: 1.5; stroke-linecap: square"/>
   </g>
  </g>
 </g>
 <defs>
  <clipPath id="p744f9b1019">
   <rect x="82.47625" y="16.832487" width="357.12" height="266.112"/>
  </clipPath>
 </defs>
</svg>
