<svg xmlns:xlink="http://www.w3.org/1999/xlink" width="841.168" height="456.528" viewBox="0 0 630.876 342.396" xmlns="http://www.w3.org/2000/svg"><defs><style>*{stroke-linejoin:round;stroke-linecap:butt}</style></defs><g id="figure_1"><path d="M0 342.396h630.876V0H0v342.396z" style="fill:none" id="patch_1"/><g id="axes_1"><path d="M93.468 292.025h357.12V25.913H93.468v266.112z" style="fill:none" id="patch_2"/><g id="matplotlib.axis_1"><g id="xtick_1"><g id="line2d_1"><defs><path id="mfb06784195" d="M0 0v3.5" style="stroke:#b0b0b0;stroke-width:.4"/></defs><use xlink:href="#mfb06784195" x="148.904" y="292.025" style="fill:#b0b0b0;stroke:#b0b0b0;stroke-width:.4"/></g><g style="fill:#b0b0b0" transform="matrix(.14 0 0 -.14 132.805 309.208)" id="text_1"><defs><path id="Inter-Regular-32" d="M482 0h2936v500H1255v36l1045 1119c800 856 1036 1256 1036 1772 0 718-581 1291-1400 1291-815 0-1436-554-1436-1373h536c0 530 344 882 882 882 505 0 891-309 891-800 0-429-252-747-791-1336L482 409V0z" transform="scale(.01563)"/><path id="Inter-Regular-30" d="M2000-64c1027 0 1618 871 1618 2391 0 1509-600 2391-1618 2391S382 3836 382 2327C382 807 973-64 2000-64zm0 500c-677 0-1073 680-1073 1891 0 1209 400 1900 1073 1900s1073-691 1073-1900c0-1211-396-1891-1073-1891z" transform="scale(.01563)"/><path id="Inter-Regular-31" d="M2118 4655h-563L391 3882v-573l1136 755h28V0h563v4655z" transform="scale(.01563)"/></defs><use xlink:href="#Inter-Regular-32"/><use xlink:href="#Inter-Regular-30" x="60.511"/><use xlink:href="#Inter-Regular-31" x="123.011"/><use xlink:href="#Inter-Regular-32" x="169.46"/></g></g><g id="xtick_2"><use xlink:href="#mfb06784195" x="206.878" y="292.025" style="fill:#b0b0b0;stroke:#b0b0b0;stroke-width:.4" id="line2d_2"/><g style="fill:#b0b0b0" transform="matrix(.14 0 0 -.14 190.52 309.208)" id="text_2"><defs><path id="Inter-Regular-34" d="M373 955h2191V0h536v955h636v500h-636v3200h-682L373 1418V955zm2191 500H982v36l1545 2445h37V1455z" transform="scale(.01563)"/></defs><use xlink:href="#Inter-Regular-32"/><use xlink:href="#Inter-Regular-30" x="60.511"/><use xlink:href="#Inter-Regular-31" x="123.011"/><use xlink:href="#Inter-Regular-34" x="169.46"/></g></g><g id="xtick_3"><use xlink:href="#mfb06784195" x="264.772" y="292.025" style="fill:#b0b0b0;stroke:#b0b0b0;stroke-width:.4" id="line2d_3"/><g style="fill:#b0b0b0" transform="matrix(.14 0 0 -.14 248.544 309.208)" id="text_3"><defs><path id="Inter-Regular-36" d="M2027-64c941-11 1555 698 1555 1564 0 900-666 1545-1464 1545-479 0-891-234-1145-618h-37c3 1134 444 1791 1164 1791 491 0 786-309 891-727h555c-114 723-664 1227-1446 1227-1048 0-1691-927-1691-2573C409 425 1264-55 2027-64zm0 500c-584 0-1011 498-1009 1055 3 557 450 1054 1028 1054 570 0 990-468 990-1045 0-591-438-1064-1009-1064z" transform="scale(.01563)"/></defs><use xlink:href="#Inter-Regular-32"/><use xlink:href="#Inter-Regular-30" x="60.511"/><use xlink:href="#Inter-Regular-31" x="123.011"/><use xlink:href="#Inter-Regular-36" x="169.46"/></g></g><g id="xtick_4"><use xlink:href="#mfb06784195" x="322.745" y="292.025" style="fill:#b0b0b0;stroke:#b0b0b0;stroke-width:.4" id="line2d_4"/><g style="fill:#b0b0b0" transform="matrix(.14 0 0 -.14 306.567 309.208)" id="text_4"><defs><path id="Inter-Regular-38" d="M1973-64c929 0 1577 544 1582 1300-5 589-398 1089-900 1182v27c436 114 722 541 727 1037-5 709-600 1236-1409 1236-818 0-1414-527-1409-1236-5-496 282-923 727-1037v-27c-511-93-905-593-900-1182C386 480 1034-64 1973-64zm0 500c-639 0-1032 328-1027 828-5 525 429 900 1027 900 588 0 1023-375 1027-900-4-500-398-828-1027-828zm0 2209c-509 0-868 319-864 800-4 473 341 782 864 782 513 0 859-309 863-782-4-481-363-800-863-800z" transform="scale(.01563)"/></defs><use xlink:href="#Inter-Regular-32"/><use xlink:href="#Inter-Regular-30" x="60.511"/><use xlink:href="#Inter-Regular-31" x="123.011"/><use xlink:href="#Inter-Regular-38" x="169.46"/></g></g><g id="xtick_5"><use xlink:href="#mfb06784195" x="380.64" y="292.025" style="fill:#b0b0b0;stroke:#b0b0b0;stroke-width:.4" id="line2d_5"/><g style="fill:#b0b0b0" transform="matrix(.14 0 0 -.14 363.417 309.208)" id="text_5"><use xlink:href="#Inter-Regular-32"/><use xlink:href="#Inter-Regular-30" x="60.511"/><use xlink:href="#Inter-Regular-32" x="123.011"/><use xlink:href="#Inter-Regular-30" x="183.523"/></g></g><g id="xtick_6"><use xlink:href="#mfb06784195" x="438.613" y="292.025" style="fill:#b0b0b0;stroke:#b0b0b0;stroke-width:.4" id="line2d_6"/><g style="fill:#b0b0b0" transform="matrix(.14 0 0 -.14 421.53 309.208)" id="text_6"><use xlink:href="#Inter-Regular-32"/><use xlink:href="#Inter-Regular-30" x="60.511"/><use xlink:href="#Inter-Regular-32" x="123.011"/><use xlink:href="#Inter-Regular-32" x="183.523"/></g></g></g><g id="matplotlib.axis_2"><g id="ytick_1"><path d="M93.468 292.025h357.12" clip-path="url(#p504a6d8bd4)" style="fill:none;stroke:#b0b0b0;stroke-width:.3;stroke-linecap:square" id="line2d_7"/><g id="line2d_8"><defs><path id="m21265c41db" d="M0 0h-3.5" style="stroke:#b0b0b0;stroke-width:.3"/></defs><use xlink:href="#m21265c41db" x="93.468" y="292.025" style="fill:#b0b0b0;stroke:#b0b0b0;stroke-width:.3"/></g><use xlink:href="#Inter-Regular-30" style="fill:#b0b0b0" transform="matrix(.14 0 0 -.14 77.718 297.117)" id="text_7"/></g><g id="ytick_2"><path d="M93.468 257.001h357.12" clip-path="url(#p504a6d8bd4)" style="fill:none;stroke:#b0b0b0;stroke-width:.3;stroke-linecap:square" id="line2d_9"/><use xlink:href="#m21265c41db" x="93.468" y="257.001" style="fill:#b0b0b0;stroke:#b0b0b0;stroke-width:.3" id="line2d_10"/><g style="fill:#b0b0b0" transform="matrix(.14 0 0 -.14 51.985 262.093)" id="text_8"><defs><path id="Inter-Regular-35" d="M1936-64c887 0 1537 655 1537 1546 0 902-627 1563-1482 1563-314 0-618-111-809-263h-27l163 1373h1946v500H846L564 2364l527-64c193 139 523 239 809 236 593-4 1027-454 1027-1063 0-598-418-1037-991-1037-477 0-856 307-900 728H491C525 455 1136-64 1936-64z" transform="scale(.01563)"/></defs><use xlink:href="#Inter-Regular-32"/><use xlink:href="#Inter-Regular-35" x="60.511"/><use xlink:href="#Inter-Regular-30" x="121.307"/><use xlink:href="#Inter-Regular-30" x="183.807"/></g></g><g id="ytick_3"><path d="M93.468 221.977h357.12" clip-path="url(#p504a6d8bd4)" style="fill:none;stroke:#b0b0b0;stroke-width:.3;stroke-linecap:square" id="line2d_11"/><use xlink:href="#m21265c41db" x="93.468" y="221.977" style="fill:#b0b0b0;stroke:#b0b0b0;stroke-width:.3" id="line2d_12"/><g style="fill:#b0b0b0" transform="matrix(.14 0 0 -.14 51.707 227.069)" id="text_9"><use xlink:href="#Inter-Regular-35"/><use xlink:href="#Inter-Regular-30" x="60.795"/><use xlink:href="#Inter-Regular-30" x="123.295"/><use xlink:href="#Inter-Regular-30" x="185.796"/></g></g><g id="ytick_4"><path d="M93.468 186.953h357.12" clip-path="url(#p504a6d8bd4)" style="fill:none;stroke:#b0b0b0;stroke-width:.3;stroke-linecap:square" id="line2d_13"/><use xlink:href="#m21265c41db" x="93.468" y="186.953" style="fill:#b0b0b0;stroke:#b0b0b0;stroke-width:.3" id="line2d_14"/><g style="fill:#b0b0b0" transform="matrix(.14 0 0 -.14 52.462 192.045)" id="text_10"><defs><path id="Inter-Regular-37" d="M627 0h591l2073 4127v528H309v-500h2400v-37L627 0z" transform="scale(.01563)"/></defs><use xlink:href="#Inter-Regular-37"/><use xlink:href="#Inter-Regular-35" x="57.102"/><use xlink:href="#Inter-Regular-30" x="117.898"/><use xlink:href="#Inter-Regular-30" x="180.398"/></g></g><g id="ytick_5"><path d="M93.468 151.93h357.12" clip-path="url(#p504a6d8bd4)" style="fill:none;stroke:#b0b0b0;stroke-width:.3;stroke-linecap:square" id="line2d_15"/><use xlink:href="#m21265c41db" x="93.468" y="151.929" style="fill:#b0b0b0;stroke:#b0b0b0;stroke-width:.3" id="line2d_16"/><g style="fill:#b0b0b0" transform="matrix(.14 0 0 -.14 44.965 157.02)" id="text_11"><use xlink:href="#Inter-Regular-31"/><use xlink:href="#Inter-Regular-30" x="46.449"/><use xlink:href="#Inter-Regular-30" x="108.949"/><use xlink:href="#Inter-Regular-30" x="171.449"/><use xlink:href="#Inter-Regular-30" x="233.949"/></g></g><g id="ytick_6"><path d="M93.468 116.905h357.12" clip-path="url(#p504a6d8bd4)" style="fill:none;stroke:#b0b0b0;stroke-width:.3;stroke-linecap:square" id="line2d_17"/><use xlink:href="#m21265c41db" x="93.468" y="116.905" style="fill:#b0b0b0;stroke:#b0b0b0;stroke-width:.3" id="line2d_18"/><g style="fill:#b0b0b0" transform="matrix(.14 0 0 -.14 45.481 121.997)" id="text_12"><use xlink:href="#Inter-Regular-31"/><use xlink:href="#Inter-Regular-32" x="46.449"/><use xlink:href="#Inter-Regular-35" x="106.96"/><use xlink:href="#Inter-Regular-30" x="167.756"/><use xlink:href="#Inter-Regular-30" x="230.256"/></g></g><g id="ytick_7"><path d="M93.468 81.881h357.12" clip-path="url(#p504a6d8bd4)" style="fill:none;stroke:#b0b0b0;stroke-width:.3;stroke-linecap:square" id="line2d_19"/><use xlink:href="#m21265c41db" x="93.468" y="81.881" style="fill:#b0b0b0;stroke:#b0b0b0;stroke-width:.3" id="line2d_20"/><g style="fill:#b0b0b0" transform="matrix(.14 0 0 -.14 45.203 86.973)" id="text_13"><use xlink:href="#Inter-Regular-31"/><use xlink:href="#Inter-Regular-35" x="46.449"/><use xlink:href="#Inter-Regular-30" x="107.244"/><use xlink:href="#Inter-Regular-30" x="169.744"/><use xlink:href="#Inter-Regular-30" x="232.244"/></g></g><g id="ytick_8"><path d="M93.468 46.857h357.12" clip-path="url(#p504a6d8bd4)" style="fill:none;stroke:#b0b0b0;stroke-width:.3;stroke-linecap:square" id="line2d_21"/><use xlink:href="#m21265c41db" x="93.468" y="46.857" style="fill:#b0b0b0;stroke:#b0b0b0;stroke-width:.3" id="line2d_22"/><g style="fill:#b0b0b0" transform="matrix(.14 0 0 -.14 45.958 51.949)" id="text_14"><use xlink:href="#Inter-Regular-31"/><use xlink:href="#Inter-Regular-37" x="46.449"/><use xlink:href="#Inter-Regular-35" x="103.551"/><use xlink:href="#Inter-Regular-30" x="164.347"/><use xlink:href="#Inter-Regular-30" x="226.847"/></g></g><g style="fill:#b0b0b0" transform="matrix(.14 0 0 -.14 7.2 17.383)" id="text_15"><defs><path id="Inter-Regular-47" d="M3746 3200h581c-172 900-927 1518-1909 1518-1193 0-2036-918-2036-2391C382 855 1218-64 2455-64c1109 0 1900 739 1900 1891v500H2582v-500h1227c-16-836-566-1363-1354-1363-864 0-1528 654-1528 1863s664 1864 1491 1864c673 0 1130-380 1328-991z" transform="scale(.01563)"/><path id="Inter-Regular-69" d="M491 0h536v3491H491V0zm273 4073c209 0 382 163 382 363s-173 364-382 364-382-164-382-364 173-363 382-363z" transform="scale(.01563)"/><path id="Inter-Regular-74" d="M2009 3491h-745v836H727v-836H200v-455h527V855c0-610 491-900 946-900 200 0 327 36 400 63l-109 482c-46-9-118-27-237-27-236 0-463 72-463 527v2036h745v455z" transform="scale(.01563)"/><path id="Inter-Regular-48" d="M564 0h563v2082h2482V0h564v4655h-564V2582H1127v2073H564V0z" transform="scale(.01563)"/><path id="Inter-Regular-75" d="M2691 1427c0-654-500-954-900-954-445 0-764 327-764 836v2182H491V1273C491 382 964-45 1618-45c528 0 873 281 1037 636h36V0h536v3491h-536V1427z" transform="scale(.01563)"/><path id="Inter-Regular-62" d="M564 0h518v536h64c118-191 345-609 1018-609 872 0 1482 700 1482 1809 0 1100-610 1800-1491 1800-682 0-891-418-1009-600h-46v1719H564V0zm527 1745c0 782 345 1310 1000 1310 682 0 1018-573 1018-1310 0-745-345-1336-1018-1336-645 0-1000 546-1000 1336z" transform="scale(.01563)"/><path id="Inter-Regular-73" d="M2964 2709c-168 496-546 827-1237 827-736 0-1281-418-1281-1009 0-482 286-804 927-954l582-137c352-81 518-250 518-491 0-300-318-545-818-545-439 0-714 189-809 564L336 836C461 243 950-73 1664-73c811 0 1363 443 1363 1046 0 486-304 793-927 945l-518 127c-414 103-600 241-600 510 0 300 318 518 745 518 469 0 662-259 755-500l482 136z" transform="scale(.01563)"/><path id="Inter-Regular-61" d="M1518-82c609 0 928 327 1037 555h27V0h536v2300c0 1109-845 1236-1291 1236-527 0-1127-181-1400-818l509-182c119 255 398 528 910 528 493 0 736-262 736-709v-19c0-259-264-236-900-318-648-84-1355-227-1355-1027C327 309 855-82 1518-82zm82 482c-427 0-736 191-736 564 0 409 372 536 791 591 227 27 836 90 927 200v-491c0-437-346-864-982-864z" transform="scale(.01563)"/><path id="Inter-Regular-72" d="M491 0h536v2209c0 473 373 818 882 818 143 0 291-27 327-36v545c-61 5-202 9-281 9-419 0-782-236-909-581h-37v527H491V0z" transform="scale(.01563)"/></defs><use xlink:href="#Inter-Regular-47"/><use xlink:href="#Inter-Regular-69" x="74.29"/><use xlink:href="#Inter-Regular-74" x="98.011"/><use xlink:href="#Inter-Regular-48" x="134.375"/><use xlink:href="#Inter-Regular-75" x="208.381"/><use xlink:href="#Inter-Regular-62" x="266.477"/><use xlink:href="#Inter-Regular-20" x="328.551"/><use xlink:href="#Inter-Regular-73" x="356.676"/><use xlink:href="#Inter-Regular-74" x="408.949"/><use xlink:href="#Inter-Regular-61" x="445.313"/><use xlink:href="#Inter-Regular-72" x="501.705"/><use xlink:href="#Inter-Regular-73" x="538.921"/></g></g><path d="m197.202 292.025 2.38-.028H209.335l2.22-.014h4.838l2.459-.014h21.65l2.46-.028h9.675l2.458-.014 2.38-.014h7.296l2.458-.028 2.3-.014H276.827l2.379-.014h2.458l2.459-.014H291.34l2.458-.014h2.459l2.22-.014 2.459-.014 2.38-.014 2.458-.014 2.379-.014h4.917l2.38-.014h2.458l2.379-.028H332.263l2.458-.014h4.837l2.459-.014 2.38-.014h2.458l2.379-.042 2.458-.028 2.459-.028h2.22l2.46-.014h4.837l2.379-.056 2.459-.042 2.458-.028 2.38-.042 2.458-.014 2.379-.014 2.459-.014 2.458-.014 2.3-.042 2.458-.028 2.38-.014 2.458-.028 2.38-.07h2.458l2.458-.07 2.38-.043 2.458-.014 2.38-.014 2.458-.028 2.458-.084 2.221-.07 2.459-.084 2.379-.07 2.458-.042 2.38-.084 2.458-.042 2.459-.042 2.379-.056 2.458-.042 2.38-.028 2.458-.014 2.459-.014 2.22-.056 2.459-.07 2.379-.028 2.458-.07" clip-path="url(#p504a6d8bd4)" style="fill:none;stroke:#c5b0d5;stroke-width:1.5;stroke-linecap:square" id="line2d_23"/><path d="m189.906 292.025 2.38-.014 2.458-.014h9.676l2.458-.014 2.458-.042h2.22l2.46-.014h2.378l2.459-.028h2.38l2.458-.014 2.458-.014h4.838l2.38-.042h2.458l2.458-.014h2.22l2.46-.028 2.379-.028 2.458-.042 2.38-.014 2.458-.042 2.458-.07 2.38-.028 2.458-.042 2.38-.042 2.458-.028 2.458-.042 2.3-.042 2.459-.042 2.379-.028 2.459-.042h2.379l2.458-.014 2.459-.028 2.379-.014 2.459-.07 2.379-.057 2.458-.056 2.459-.028 2.22-.07 2.459-.028 2.38-.014 2.458-.028 2.379-.014 2.458-.014 2.459-.014 2.38-.014 2.458-.014h2.379l2.458-.042 2.459-.042 2.22-.028 2.459-.056 2.38-.014 2.458-.07 2.379-.014 2.458-.028 2.459-.028 2.38-.042 2.458-.028 2.379-.014 2.458-.014 2.459-.014h2.22l2.46-.042 2.378-.014 2.459-.042 2.379-.028 2.459-.042 2.458-.014 2.38-.014 2.458-.07 2.379-.014 2.459-.07h2.458l2.3-.042 2.458-.028 2.38-.056 2.458-.056 2.38-.028 2.458-.084 2.458-.014 2.38-.043h4.838l2.458-.07 2.458-.056 2.221-.042h2.459l2.379-.028 2.458-.014 2.38-.014 2.458-.028 2.459-.028 2.379-.028 2.458-.028 2.38-.014 2.458-.028 2.459-.014 2.22-.028h4.838l2.458-.014" clip-path="url(#p504a6d8bd4)" style="fill:none;stroke:#ff9896;stroke-width:1.5;stroke-linecap:square" id="line2d_24"/><path d="m313.07 292.025 2.38-.126 2.458-.308 2.379-.182 2.458-.084 2.459-.449 2.22-.308 2.459-.336 2.38-.238 2.458-.336 2.379-.323 2.458-.392 2.459-.294 2.38-.378 2.458-.449 2.379-.336 2.458-.266 2.459-.392 2.22-.295 2.46-.392 2.378-.504 2.459-.294 2.379-.911 2.459-.28 2.458-.463 2.38-.294 2.458-.364 2.379-.308 2.459-.28 2.458-.337 2.3-.364 2.458-.35 2.38-.392 2.458-.449 2.38-.504 2.458-.392 2.458-.253 2.38-.476 2.458-.378 2.38-.35 2.458-.435 2.458-.392 2.221-.196 2.459-.462 2.379-.477 2.458-.28 2.38-.28 2.458-.392 2.459-.267 2.379-.42 2.458-.322 2.38-.392 2.458-.294 2.459-.49 2.22-.337 2.459-.35 2.379-.308 2.458-.407" clip-path="url(#p504a6d8bd4)" style="fill:none;stroke:#98df8a;stroke-width:1.5;stroke-linecap:square" id="line2d_25"/><g style="fill:#1f77b4" transform="matrix(.14 0 0 -.14 461.302 29.573)" id="text_16"><defs><path id="Inter-Regular-7a" d="M391 0h2736v500H1136v36l1928 2528v427H455v-500h1918v-36L391 409V0z" transform="scale(.01563)"/><path id="Inter-Regular-65" d="M1955-73c709 0 1227 355 1391 882l-519 146c-136-364-452-546-872-546-630 0-1064 407-1089 1155h2534v227c0 1300-773 1745-1500 1745-945 0-1573-745-1573-1818S946-73 1955-73zM866 2027c36 543 420 1028 1034 1028 582 0 955-437 955-1028H866z" transform="scale(.01563)"/><path id="Inter-Regular-6c" d="M1027 4655H491V0h536v4655z" transform="scale(.01563)"/><path id="Inter-Regular-64" d="M1809-73c673 0 900 418 1018 609h64V0h518v4655h-536V2936h-46c-118 182-327 600-1009 600-882 0-1491-700-1491-1800C327 627 936-73 1809-73zm73 482c-673 0-1018 591-1018 1336 0 737 336 1310 1018 1310 654 0 1000-528 1000-1310 0-790-355-1336-1000-1336z" transform="scale(.01563)"/><path id="Inter-Regular-2f" d="M2136 4873h-490L146-700h490l1500 5573z" transform="scale(.01563)"/></defs><use xlink:href="#Inter-Regular-62"/><use xlink:href="#Inter-Regular-61" x="62.074"/><use xlink:href="#Inter-Regular-7a" x="118.466"/><use xlink:href="#Inter-Regular-65" x="172.585"/><use xlink:href="#Inter-Regular-6c" x="230.824"/><use xlink:href="#Inter-Regular-62" x="254.546"/><use xlink:href="#Inter-Regular-75" x="316.619"/><use xlink:href="#Inter-Regular-69" x="374.716"/><use xlink:href="#Inter-Regular-6c" x="398.438"/><use xlink:href="#Inter-Regular-64" x="422.159"/><use xlink:href="#Inter-Regular-2f" x="484.233"/><use xlink:href="#Inter-Regular-62" x="519.886"/><use xlink:href="#Inter-Regular-61" x="581.96"/><use xlink:href="#Inter-Regular-7a" x="638.352"/><use xlink:href="#Inter-Regular-65" x="692.472"/><use xlink:href="#Inter-Regular-6c" x="750.71"/></g><g style="fill:#ff7f0e" transform="matrix(.14 0 0 -.14 461.302 150.333)" id="text_17"><defs><path id="Inter-Regular-66" d="M2046 3491h-782v354c0 346 145 528 500 528 154 0 245-37 300-55l154 464c-82 36-245 91-509 91-500 0-982-300-982-900v-482H164v-455h563V0h537v3036h782v455z" transform="scale(.01563)"/><path id="Inter-Regular-63" d="M1909-73c773 0 1282 473 1373 1091h-536c-100-382-419-609-837-609-636 0-1045 527-1045 1336 0 791 418 1310 1045 1310 473 0 755-291 837-610h536c-91 655-646 1091-1382 1091-945 0-1573-745-1573-1809C327 682 927-73 1909-73z" transform="scale(.01563)"/><path id="Inter-Regular-6f" d="M1909-73c946 0 1582 718 1582 1800 0 1091-636 1809-1582 1809-945 0-1582-718-1582-1809C327 645 964-73 1909-73zm0 482c-718 0-1045 618-1045 1318s327 1328 1045 1328 1046-628 1046-1328S2627 409 1909 409z" transform="scale(.01563)"/><path id="Inter-Regular-6b" d="M491 0h536v1307l375 348L2709 0h682L1807 2000l1475 1491h-664L1091 1936h-64v2719H491V0z" transform="scale(.01563)"/></defs><use xlink:href="#Inter-Regular-66"/><use xlink:href="#Inter-Regular-61" x="36.08"/><use xlink:href="#Inter-Regular-63" x="92.472"/><use xlink:href="#Inter-Regular-65" x="148.295"/><use xlink:href="#Inter-Regular-62" x="206.534"/><use xlink:href="#Inter-Regular-6f" x="268.608"/><use xlink:href="#Inter-Regular-6f" x="328.267"/><use xlink:href="#Inter-Regular-6b" x="387.926"/><use xlink:href="#Inter-Regular-2f" x="442.33"/><use xlink:href="#Inter-Regular-62" x="477.983"/><use xlink:href="#Inter-Regular-75" x="540.057"/><use xlink:href="#Inter-Regular-63" x="598.154"/><use xlink:href="#Inter-Regular-6b" x="653.977"/></g><g style="fill:#2ca02c" transform="matrix(.14 0 0 -.14 461.302 164.571)" id="text_18"><defs><path id="Inter-Regular-6e" d="M1027 2100c0 609 378 955 891 955 498 0 800-325 800-873V0h537v2218c0 891-475 1318-1182 1318-527 0-855-236-1018-591h-46v546H491V0h536v2100z" transform="scale(.01563)"/><path id="Inter-Regular-6a" d="M491 3491V-255c0-354-145-554-473-554H-82v-500H27c673 0 1000 409 1000 1054v3746H491zm264 582c209 0 381 163 381 363s-172 364-381 364-382-164-382-364 173-363 382-363z" transform="scale(.01563)"/><path id="Inter-Regular-2d" d="M2491 2245H455v-500h2036v500z" transform="scale(.01563)"/></defs><use xlink:href="#Inter-Regular-6e"/><use xlink:href="#Inter-Regular-69" x="58.523"/><use xlink:href="#Inter-Regular-6e" x="82.244"/><use xlink:href="#Inter-Regular-6a" x="140.767"/><use xlink:href="#Inter-Regular-61" x="164.489"/><use xlink:href="#Inter-Regular-2d" x="220.881"/><use xlink:href="#Inter-Regular-62" x="266.903"/><use xlink:href="#Inter-Regular-75" x="328.977"/><use xlink:href="#Inter-Regular-69" x="387.074"/><use xlink:href="#Inter-Regular-6c" x="410.796"/><use xlink:href="#Inter-Regular-64" x="434.517"/><use xlink:href="#Inter-Regular-2f" x="496.591"/><use xlink:href="#Inter-Regular-6e" x="532.244"/><use xlink:href="#Inter-Regular-69" x="590.767"/><use xlink:href="#Inter-Regular-6e" x="614.489"/><use xlink:href="#Inter-Regular-6a" x="673.011"/><use xlink:href="#Inter-Regular-61" x="696.733"/></g><g style="fill:#d62728" transform="matrix(.14 0 0 -.14 461.302 178.571)" id="text_19"><defs><path id="Inter-Regular-76" d="M3346 3491h-582L1800 709h-36L800 3491H218L1509 0h546l1291 3491z" transform="scale(.01563)"/><path id="Inter-Regular-70" d="M491-1309h536V536h46c118-191 345-609 1018-609 873 0 1482 700 1482 1809 0 1100-609 1800-1491 1800-682 0-891-418-1009-600h-64v555H491v-4800zm527 3054c0 782 346 1310 1000 1310 682 0 1018-573 1018-1310 0-745-345-1336-1018-1336-645 0-1000 546-1000 1336z" transform="scale(.01563)"/></defs><use xlink:href="#Inter-Regular-76"/><use xlink:href="#Inter-Regular-65" x="55.682"/><use xlink:href="#Inter-Regular-72" x="113.92"/><use xlink:href="#Inter-Regular-63" x="151.136"/><use xlink:href="#Inter-Regular-65" x="206.96"/><use xlink:href="#Inter-Regular-6c" x="265.199"/><use xlink:href="#Inter-Regular-2f" x="288.92"/><use xlink:href="#Inter-Regular-74" x="324.574"/><use xlink:href="#Inter-Regular-75" x="360.938"/><use xlink:href="#Inter-Regular-72" x="419.034"/><use xlink:href="#Inter-Regular-62" x="456.25"/><use xlink:href="#Inter-Regular-6f" x="518.324"/><use xlink:href="#Inter-Regular-72" x="577.983"/><use xlink:href="#Inter-Regular-65" x="615.199"/><use xlink:href="#Inter-Regular-70" x="673.438"/><use xlink:href="#Inter-Regular-6f" x="734.375"/></g><g style="fill:#9467bd" transform="matrix(.14 0 0 -.14 461.302 192.571)" id="text_20"><defs><path id="Inter-Regular-68" d="M1027 2100c0 609 389 955 919 955 504 0 809-319 809-873V0h536v2218c0 898-477 1318-1191 1318-550 0-864-229-1027-591h-46v1710H491V0h536v2100z" transform="scale(.01563)"/><path id="Inter-Regular-79" d="M836-1309c485 0 825 257 1028 800l1482 4000h-582L1800 709h-36L800 3491H218L1509-18l-100-273c-195-532-436-582-827-482l-136-472c54-28 209-64 390-64z" transform="scale(.01563)"/></defs><use xlink:href="#Inter-Regular-65"/><use xlink:href="#Inter-Regular-61" x="58.239"/><use xlink:href="#Inter-Regular-72" x="114.631"/><use xlink:href="#Inter-Regular-74" x="151.847"/><use xlink:href="#Inter-Regular-68" x="188.21"/><use xlink:href="#Inter-Regular-6c" x="247.301"/><use xlink:href="#Inter-Regular-79" x="271.023"/><use xlink:href="#Inter-Regular-2f" x="326.705"/><use xlink:href="#Inter-Regular-65" x="362.358"/><use xlink:href="#Inter-Regular-61" x="420.597"/><use xlink:href="#Inter-Regular-72" x="476.989"/><use xlink:href="#Inter-Regular-74" x="514.205"/><use xlink:href="#Inter-Regular-68" x="550.568"/><use xlink:href="#Inter-Regular-6c" x="609.659"/><use xlink:href="#Inter-Regular-79" x="633.381"/></g><g style="fill:#8c564b" transform="matrix(.14 0 0 -.14 461.302 206.333)" id="text_21"><defs><path id="Inter-Regular-4b" d="M564 0h563v1509l582 655L3327 0h682L2055 2555l1954 2100h-736L1182 2345h-55v2310H564V0z" transform="scale(.01563)"/><path id="Inter-Regular-77" d="M1282 0h527l764 2682h54L3391 0h527l1064 3491h-564L3664 827h-37l-736 2664h-573L1573 818h-37L782 3491H218L1282 0z" transform="scale(.01563)"/><path id="Inter-Regular-43" d="M4309 3200c-173 955-936 1518-1873 1518-1190 0-2054-918-2054-2391C382 855 1246-64 2436-64c937 0 1700 564 1873 1519h-563c-137-646-691-991-1310-991-845 0-1509 654-1509 1863s664 1864 1509 1864c619 0 1173-346 1310-991h563z" transform="scale(.01563)"/><path id="Inter-Regular-4d" d="M564 4655V0h527v3536h45L2591 0h509l1455 3536h45V0h527v4655h-672L2873 791h-55L1236 4655H564z" transform="scale(.01563)"/></defs><use xlink:href="#Inter-Regular-4b"/><use xlink:href="#Inter-Regular-69" x="65.199"/><use xlink:href="#Inter-Regular-74" x="88.92"/><use xlink:href="#Inter-Regular-77" x="125.284"/><use xlink:href="#Inter-Regular-61" x="206.534"/><use xlink:href="#Inter-Regular-72" x="262.926"/><use xlink:href="#Inter-Regular-65" x="300.142"/><use xlink:href="#Inter-Regular-2f" x="358.381"/><use xlink:href="#Inter-Regular-43" x="394.034"/><use xlink:href="#Inter-Regular-4d" x="466.761"/><use xlink:href="#Inter-Regular-61" x="555.682"/><use xlink:href="#Inter-Regular-6b" x="612.074"/><use xlink:href="#Inter-Regular-65" x="666.477"/></g><g style="fill:#e377c2" transform="matrix(.14 0 0 -.14 461.302 220.333)" id="text_22"><defs><path id="Inter-Regular-6d" d="M491 0h536v2182c0 511 373 873 791 873 407 0 691-266 691-664V0h546v2273c0 450 281 782 772 782 382 0 709-203 709-719V0h537v2336c0 821-441 1200-1064 1200-500 0-866-229-1045-591h-37c-172 373-477 591-936 591-455 0-791-218-936-591h-46v546H491V0z" transform="scale(.01563)"/></defs><use xlink:href="#Inter-Regular-6d"/><use xlink:href="#Inter-Regular-65" x="86.932"/><use xlink:href="#Inter-Regular-73" x="145.17"/><use xlink:href="#Inter-Regular-6f" x="197.443"/><use xlink:href="#Inter-Regular-6e" x="257.102"/><use xlink:href="#Inter-Regular-62" x="315.625"/><use xlink:href="#Inter-Regular-75" x="377.699"/><use xlink:href="#Inter-Regular-69" x="435.796"/><use xlink:href="#Inter-Regular-6c" x="459.517"/><use xlink:href="#Inter-Regular-64" x="483.239"/><use xlink:href="#Inter-Regular-2f" x="545.313"/><use xlink:href="#Inter-Regular-6d" x="580.966"/><use xlink:href="#Inter-Regular-65" x="667.898"/><use xlink:href="#Inter-Regular-73" x="726.137"/><use xlink:href="#Inter-Regular-6f" x="778.409"/><use xlink:href="#Inter-Regular-6e" x="838.068"/></g><g style="fill:#7f7f7f" transform="matrix(.14 0 0 -.14 461.302 234.333)" id="text_23"><use xlink:href="#Inter-Regular-74"/><use xlink:href="#Inter-Regular-68" x="36.364"/><use xlink:href="#Inter-Regular-65" x="95.455"/><use xlink:href="#Inter-Regular-6f" x="153.693"/><use xlink:href="#Inter-Regular-73" x="213.352"/><use xlink:href="#Inter-Regular-2f" x="265.625"/><use xlink:href="#Inter-Regular-74" x="301.278"/><use xlink:href="#Inter-Regular-68" x="337.642"/><use xlink:href="#Inter-Regular-65" x="396.733"/><use xlink:href="#Inter-Regular-6f" x="454.972"/><use xlink:href="#Inter-Regular-73" x="514.631"/></g><g style="fill:#bcbd22" transform="matrix(.14 0 0 -.14 461.302 248.571)" id="text_24"><use xlink:href="#Inter-Regular-70"/><use xlink:href="#Inter-Regular-72" x="60.938"/><use xlink:href="#Inter-Regular-65" x="98.153"/><use xlink:href="#Inter-Regular-6d" x="156.392"/><use xlink:href="#Inter-Regular-61" x="243.324"/><use xlink:href="#Inter-Regular-6b" x="299.716"/><use xlink:href="#Inter-Regular-65" x="354.119"/><use xlink:href="#Inter-Regular-2f" x="412.358"/><use xlink:href="#Inter-Regular-70" x="448.011"/><use xlink:href="#Inter-Regular-72" x="508.949"/><use xlink:href="#Inter-Regular-65" x="546.165"/><use xlink:href="#Inter-Regular-6d" x="604.404"/><use xlink:href="#Inter-Regular-61" x="691.335"/><use xlink:href="#Inter-Regular-6b" x="747.727"/><use xlink:href="#Inter-Regular-65" x="802.131"/><use xlink:href="#Inter-Regular-2d" x="860.369"/><use xlink:href="#Inter-Regular-63" x="906.392"/><use xlink:href="#Inter-Regular-6f" x="962.216"/><use xlink:href="#Inter-Regular-72" x="1021.875"/><use xlink:href="#Inter-Regular-65" x="1059.091"/></g><g style="fill:#17becf" transform="matrix(.14 0 0 -.14 461.302 262.571)" id="text_25"><use xlink:href="#Inter-Regular-70"/><use xlink:href="#Inter-Regular-61" x="60.938"/><use xlink:href="#Inter-Regular-6e" x="117.33"/><use xlink:href="#Inter-Regular-74" x="175.852"/><use xlink:href="#Inter-Regular-73" x="212.216"/><use xlink:href="#Inter-Regular-62" x="264.489"/><use xlink:href="#Inter-Regular-75" x="326.563"/><use xlink:href="#Inter-Regular-69" x="384.659"/><use xlink:href="#Inter-Regular-6c" x="408.381"/><use xlink:href="#Inter-Regular-64" x="432.102"/><use xlink:href="#Inter-Regular-2f" x="494.176"/><use xlink:href="#Inter-Regular-70" x="529.83"/><use xlink:href="#Inter-Regular-61" x="590.767"/><use xlink:href="#Inter-Regular-6e" x="647.159"/><use xlink:href="#Inter-Regular-74" x="705.682"/><use xlink:href="#Inter-Regular-73" x="742.046"/></g><g style="fill:#aec7e8" transform="matrix(.14 0 0 -.14 461.302 276.491)" id="text_26"><defs><path id="Inter-Regular-67" d="M1900-1382c836 0 1509 382 1509 1282v3591h-518v-555h-55c-118 182-336 600-1018 600-882 0-1491-700-1491-1772C327 673 964 55 1809 55c682 0 900 400 1018 590h46V-64c0-581-409-845-973-845-634 0-857 334-1000 527L473-682c218-366 648-700 1427-700zm-18 1918c-673 0-1018 509-1018 1237 0 709 336 1282 1018 1282 654 0 1000-528 1000-1282 0-773-355-1237-1000-1237z" transform="scale(.01563)"/></defs><use xlink:href="#Inter-Regular-74"/><use xlink:href="#Inter-Regular-68" x="36.364"/><use xlink:href="#Inter-Regular-6f" x="95.455"/><use xlink:href="#Inter-Regular-75" x="155.114"/><use xlink:href="#Inter-Regular-67" x="213.21"/><use xlink:href="#Inter-Regular-68" x="274.148"/><use xlink:href="#Inter-Regular-74" x="333.239"/><use xlink:href="#Inter-Regular-2d" x="369.602"/><use xlink:href="#Inter-Regular-6d" x="415.625"/><use xlink:href="#Inter-Regular-61" x="502.557"/><use xlink:href="#Inter-Regular-63" x="558.949"/><use xlink:href="#Inter-Regular-68" x="614.773"/><use xlink:href="#Inter-Regular-69" x="673.864"/><use xlink:href="#Inter-Regular-6e" x="697.585"/><use xlink:href="#Inter-Regular-65" x="756.108"/><use xlink:href="#Inter-Regular-2f" x="814.347"/><use xlink:href="#Inter-Regular-70" x="850"/><use xlink:href="#Inter-Regular-6c" x="910.938"/><use xlink:href="#Inter-Regular-65" x="934.659"/><use xlink:href="#Inter-Regular-61" x="992.898"/><use xlink:href="#Inter-Regular-73" x="1049.29"/><use xlink:href="#Inter-Regular-65" x="1101.563"/></g><g style="fill:#ffbb78" transform="matrix(.14 0 0 -.14 461.302 290.571)" id="text_27"><use xlink:href="#Inter-Regular-74"/><use xlink:href="#Inter-Regular-6a" x="36.364"/><use xlink:href="#Inter-Regular-2f" x="60.085"/><use xlink:href="#Inter-Regular-6d" x="95.739"/><use xlink:href="#Inter-Regular-6d" x="182.67"/><use xlink:href="#Inter-Regular-61" x="269.602"/><use xlink:href="#Inter-Regular-6b" x="325.994"/><use xlink:href="#Inter-Regular-65" x="380.398"/></g><g style="fill:#98df8a" transform="matrix(.14 0 0 -.14 461.302 304.333)" id="text_28"><defs><path id="Inter-Regular-53" d="M3109 3491h546c-25 702-673 1227-1573 1227-891 0-1591-518-1591-1300 0-627 455-1000 1182-1209l573-164c490-136 927-309 927-772 0-509-491-846-1137-846-554 0-1045 246-1090 773H364C418 436 1036-82 2036-82c1073 0 1682 591 1682 1346 0 872-827 1154-1309 1281l-473 128c-345 91-900 272-900 772 0 446 410 773 1028 773 563 0 991-268 1045-727z" transform="scale(.01563)"/></defs><use xlink:href="#Inter-Regular-53"/><use xlink:href="#Inter-Regular-43" x="63.778"/><use xlink:href="#Inter-Regular-6f" x="136.506"/><use xlink:href="#Inter-Regular-6e" x="196.165"/><use xlink:href="#Inter-Regular-73" x="254.688"/><use xlink:href="#Inter-Regular-2f" x="306.96"/><use xlink:href="#Inter-Regular-73" x="342.614"/><use xlink:href="#Inter-Regular-63" x="394.886"/><use xlink:href="#Inter-Regular-6f" x="450.71"/><use xlink:href="#Inter-Regular-6e" x="510.369"/><use xlink:href="#Inter-Regular-73" x="568.892"/></g><g style="fill:#ff9896" transform="matrix(.14 0 0 -.14 461.302 318.491)" id="text_29"><use xlink:href="#Inter-Regular-62"/><use xlink:href="#Inter-Regular-6f" x="62.074"/><use xlink:href="#Inter-Regular-6f" x="121.733"/><use xlink:href="#Inter-Regular-73" x="181.392"/><use xlink:href="#Inter-Regular-74" x="233.665"/><use xlink:href="#Inter-Regular-6f" x="270.028"/><use xlink:href="#Inter-Regular-72" x="329.688"/><use xlink:href="#Inter-Regular-67" x="366.903"/><use xlink:href="#Inter-Regular-2f" x="427.841"/><use xlink:href="#Inter-Regular-62" x="463.494"/><use xlink:href="#Inter-Regular-75" x="525.568"/><use xlink:href="#Inter-Regular-69" x="583.665"/><use xlink:href="#Inter-Regular-6c" x="607.386"/><use xlink:href="#Inter-Regular-64" x="631.108"/></g><g style="fill:#c5b0d5" transform="matrix(.14 0 0 -.14 461.302 332.333)" id="text_30"><use xlink:href="#Inter-Regular-6d"/><use xlink:href="#Inter-Regular-69" x="86.932"/><use xlink:href="#Inter-Regular-72" x="110.653"/><use xlink:href="#Inter-Regular-72" x="147.869"/><use xlink:href="#Inter-Regular-6f" x="185.085"/><use xlink:href="#Inter-Regular-72" x="244.744"/><use xlink:href="#Inter-Regular-2f" x="281.96"/><use xlink:href="#Inter-Regular-6d" x="317.614"/><use xlink:href="#Inter-Regular-61" x="404.546"/><use xlink:href="#Inter-Regular-6b" x="460.938"/><use xlink:href="#Inter-Regular-65" x="515.341"/></g><g style="fill:#b0b0b0" transform="matrix(.09716 0 0 -.09716 93.468 327.98)" id="text_31"><defs><path id="Inter-Regular-40" d="M3173-1227c463 0 1054 136 1336 254l-127 418c-164-54-691-236-1191-236C1636-791 809 82 809 1627c0 1518 846 2428 2273 2428 1445 0 2127-1019 2127-2037 0-1036-109-1500-573-1500-272 0-418 227-418 482v2055h-482v-255h-27c-63 200-418 373-873 327-681-72-1200-636-1200-1454 0-864 410-1528 1200-1555 519-18 791 237 900 500h28c54-391 545-527 863-527 964 0 1055 1036 1055 1918 0 1246-873 2473-2573 2473-1754 0-2800-1064-2800-2837 0-1836 1009-2872 2864-2872zM2909 582c-591 0-800 536-800 1118 0 527 300 982 818 982 546 0 837-218 837-982 0-755-246-1118-855-1118z" transform="scale(.01563)"/><path id="Inter-Regular-7c" d="M1273 6155H818v-7655h455v7655z" transform="scale(.01563)"/><path id="Inter-Regular-4e" d="M4255 4655h-555V991h-45L1109 4655H564V0h563v3655h46L3709 0h546v4655z" transform="scale(.01563)"/><path id="Inter-Regular-f6" d="M1909-73c946 0 1582 718 1582 1800 0 1091-636 1809-1582 1809-945 0-1582-718-1582-1809C327 645 964-73 1909-73zm0 482c-718 0-1045 618-1045 1318s327 1328 1045 1328 1046-628 1046-1328S2627 409 1909 409zm-654 3664c209 0 363 172 363 363 0 209-154 364-363 364-191 0-364-155-364-364 0-191 173-363 364-363zm1309 0c209 0 363 172 363 363 0 209-154 364-363 364-191 0-364-155-364-364 0-191 173-363 364-363z" transform="scale(.01563)"/><path id="Inter-Regular-42" d="M564 0h1682c1100 0 1554 536 1554 1236 0 737-509 1137-936 1164v45c400 110 754 373 754 973 0 682-454 1237-1427 1237H564V0zm563 500v1618h1146c609 0 991-409 991-882 0-409-282-736-1018-736H1127zm0 2109v1546h1064c618 0 891-328 891-737 0-491-400-809-909-809H1127z" transform="scale(.01563)"/><path id="Inter-Regular-59" d="m164 4655 1682-2737V0h563v1918l1682 2737h-645L2155 2482h-55L809 4655H164z" transform="scale(.01563)"/></defs><use xlink:href="#Inter-Regular-40"/><use xlink:href="#Inter-Regular-6e" x="93.608"/><use xlink:href="#Inter-Regular-73" x="152.131"/><use xlink:href="#Inter-Regular-63" x="204.403"/><use xlink:href="#Inter-Regular-68" x="260.227"/><use xlink:href="#Inter-Regular-6c" x="319.318"/><use xlink:href="#Inter-Regular-6f" x="343.04"/><use xlink:href="#Inter-Regular-65" x="402.699"/><use xlink:href="#Inter-Regular-20" x="460.938"/><use xlink:href="#Inter-Regular-2f" x="489.063"/><use xlink:href="#Inter-Regular-20" x="524.716"/><use xlink:href="#Inter-Regular-67" x="552.841"/><use xlink:href="#Inter-Regular-68" x="613.779"/><use xlink:href="#Inter-Regular-2d" x="672.869"/><use xlink:href="#Inter-Regular-74" x="718.892"/><use xlink:href="#Inter-Regular-72" x="755.256"/><use xlink:href="#Inter-Regular-65" x="792.472"/><use xlink:href="#Inter-Regular-6e" x="850.71"/><use xlink:href="#Inter-Regular-64" x="909.233"/><use xlink:href="#Inter-Regular-73" x="971.307"/><use xlink:href="#Inter-Regular-20" x="1023.58"/><use xlink:href="#Inter-Regular-7c" x="1051.705"/><use xlink:href="#Inter-Regular-20" x="1084.375"/><use xlink:href="#Inter-Regular-4e" x="1112.5"/><use xlink:href="#Inter-Regular-69" x="1187.784"/><use xlink:href="#Inter-Regular-63" x="1211.506"/><use xlink:href="#Inter-Regular-6f" x="1267.33"/><use xlink:href="#Inter-Regular-20" x="1326.989"/><use xlink:href="#Inter-Regular-53" x="1355.114"/><use xlink:href="#Inter-Regular-63" x="1418.892"/><use xlink:href="#Inter-Regular-68" x="1474.716"/><use xlink:href="#Inter-Regular-6c" x="1533.807"/><use xlink:href="#Inter-Regular-f6" x="1557.529"/><use xlink:href="#Inter-Regular-6d" x="1617.188"/><use xlink:href="#Inter-Regular-65" x="1704.12"/><use xlink:href="#Inter-Regular-72" x="1762.358"/><use xlink:href="#Inter-Regular-20" x="1799.574"/><use xlink:href="#Inter-Regular-7c" x="1827.699"/><use xlink:href="#Inter-Regular-20" x="1860.37"/><use xlink:href="#Inter-Regular-43" x="1888.495"/><use xlink:href="#Inter-Regular-43" x="1961.222"/><use xlink:href="#Inter-Regular-20" x="2033.949"/><use xlink:href="#Inter-Regular-42" x="2062.074"/><use xlink:href="#Inter-Regular-59" x="2127.131"/></g><path d="m296.257 292.025 2.22-11.502 2.459-1.205 2.38-.42 2.458-.182 2.379-2.942 2.458-.28 2.459-.224 2.38-.182 2.458-.253 2.379-.28 2.458-.238 2.459-.154 2.22-.308 2.459-.168 2.38-.197 2.458-.14 2.379-.168 2.458-.154 2.459-.112 2.38-.07 2.458-.126 2.379-.098 2.458-.014 2.459-.056 2.22-.07 2.46-.014 2.378-.042 2.459-.07 2.379-.056 2.459-.014 2.458-.112 2.38-.028 2.458-.155 2.379-.07 2.459-.07 2.458-.042 2.3-.154 2.458-.154 2.38-.098 2.458-.14 2.38-.028 2.458-.042 2.458-.07 2.38-.154 2.458-.028 2.38-.028 2.458-.042 2.458-.154 2.221-.21 2.459-.07 2.379-.099 2.458-.126 2.38-.112 2.458-.014 2.459-.028 2.379-.126 2.458-.098 2.38-.098 2.458-.042 2.459-.084 2.22-.028 2.459-.028 2.379-.056h2.458" clip-path="url(#p504a6d8bd4)" style="fill:none;stroke:#ffbb78;stroke-width:1.5;stroke-linecap:square" id="line2d_26"/><path d="m267.23 292.025 2.3-.014h2.459l2.379-.014h4.838l2.458-.014 2.459-.028h4.838l2.379-.028 2.458-.014 2.459-.028 2.22-.014 2.459-.112 2.38-.126 2.458-.056 2.379-.084h2.458l2.459-.056 2.38-.014 2.458-.056 2.379-.126 2.458-.084 2.459-.042 2.22-1.275 2.459-1.934 2.38-.126 2.458-.168 2.379-.182 2.458-.112 2.459-.238 2.38-1.037 2.458-.238 2.379-.448 2.458-.547 2.459-1.527 2.22-.546 2.46-.378 2.378-.56 2.459-.38 2.379-.251 2.459-.323 2.458-.252 2.38-.308 2.458-.35 2.379-.547 2.459-.224 2.458-.224 2.3-.168 2.458-.252 2.38-.308 2.458-.365 2.38-.35 2.458-.238 2.458-.308 2.38-.266 2.458-.154 2.38-2.718 2.458-1.08 2.458-.994 2.221-.546 2.459-.729 2.379-.588 2.458-.7 2.38-.617 2.458-.504 2.459-.308 2.379-.42 2.458-.421 2.38-.364 2.458-.77 2.459-.365 2.22-.322 2.459-.49 2.379-.407 2.458-.476" clip-path="url(#p504a6d8bd4)" style="fill:none;stroke:#aec7e8;stroke-width:1.5;stroke-linecap:square" id="line2d_27"/><path d="m182.61 292.025 2.458-.014h12.134l2.38-.014H209.335l2.22-.056h2.46l2.378-.28 2.459-.266 2.38-.224 2.458-.14 2.458-.183 2.38-2.017 2.458-.28 2.38-.14 2.458-.14 2.458-.155 2.22-.098 2.46-.224 2.379-.14 2.458-.224 2.38-.182 2.458-.112 2.458-.182 2.38-.168 2.458-.309 2.38-.266 2.458-.126 2.458-.14 2.3-.126 2.459-.098 2.379-.182 2.459-.883 2.379-.672 2.458-.197 2.459-.21 2.379-.112 2.459-.252 2.379-.168 2.458-.168 2.459-.21 2.22-.168 2.459-.112 2.38-.253 2.458-.28 2.379-.196 2.458-.308 2.459-.336 2.38-.098 2.458-.21 2.379-.28 2.458-.309 2.459-.126 2.22-.168 2.459-.154 2.38-.238 2.458-.197 2.379-.238 2.458-.224 2.459-.224 2.38-.238 2.458-.365 2.379-.112 2.458-.084 2.459-.168 2.22-.168 2.46-.266 2.378-.322 2.459-.308 2.379-.21 2.459-.267 2.458-.252 2.38-.168 2.458-.322 2.379-.196 2.459-.113 2.458-.252 2.3-.168 2.458-.21 2.38-.224 2.458-.238 2.38-.224 2.458-.253 2.458-.196 2.38-.196 2.458-.35 2.38-.617 2.458-.266 2.458-.28 2.221-.28 2.459-.448 2.379-.183 2.458-.322 2.38-.434 2.458-.322 2.459-.238 2.379-.477 2.458-.588 2.38-1.163 2.458-.56 2.459-.687 2.22-.658 2.459-.519 2.379-.602 2.458-.644" clip-path="url(#p504a6d8bd4)" style="fill:none;stroke:#17becf;stroke-width:1.5;stroke-linecap:square" id="line2d_28"/><path d="m240.504 292.025 2.458-.056 2.38-.56 2.458-.449 2.38-.322 2.458-.434 2.458-.336 2.38-.463 2.458-.434 2.38-.28 2.458-.378 2.458-.323 2.3-.35 2.459-.266 2.379-.21 2.459-.28 2.379-.267 2.458-.336 2.459-.336 2.379-.364 2.459-.28 2.379-.183 2.458-.35 2.459-.238 2.22-.322 2.459-.308 2.38-.35 2.458-.323 2.379-.364 2.458-.266 2.459-.407 2.38-.196 2.458-.28 2.379-.308 2.458-.308 2.459-.253 2.22-.322 2.459-.336 2.38-.196 2.458-.28 2.379-.224 2.458-.197 2.459-.168 2.38-.154 2.458-.182 2.379-1.009 2.458-.364 2.459-.364 2.22-.546 2.46-.49 2.378-.575 2.459-.364 2.379-.393 2.459-.294 2.458-.42 2.38-.519 2.458-.364 2.379-.364 2.459-.392 2.458-.463 2.3-.294 2.458-.644 2.38-.589 2.458-.448 2.38-.56 2.458-.505 2.458-.588 2.38-.547 2.458-.602 2.38-.686 2.458-.575 2.458-.602 2.221-.449 2.459-.574 2.379-.49 2.458-.435 2.38-.406 2.458-.406 2.459-.504 2.379-.617 2.458-.476 2.38-.434 2.458-.617 2.459-.35 2.22-.476 2.459-.519 2.379-.364 2.458-.616" clip-path="url(#p504a6d8bd4)" style="fill:none;stroke:#bcbd22;stroke-width:1.5;stroke-linecap:square" id="line2d_29"/><path d="m93.468 292.025 2.221-.812 41.081-.841 4.838-.112 4.838-.196 9.675-.126 9.676-.126 14.592-.014 7.058-.435 16.972-.518 2.459-.21 2.458-.448 2.22-.225 7.297-.98 4.838-.449 4.837-.434 16.814-1.499 7.296-1.163 9.675-.994 2.459-.295 2.458-.406 2.3-.7 4.838-1.037 4.838-.953 4.917-1.695 2.379-.588 2.459-.435 2.379-.28 2.458-.518 2.459-.645 2.22-.896 2.459-.617 2.38-.448 2.458-.616 2.379-.477 2.458-.728 2.459-.575 2.38-.742 2.458-.617 2.379-.378 11.975-3.25 16.972-3.853 2.458-.49 4.68-1.205 7.296-2.06 4.838-.91 2.458-.77 12.134-2.424 2.3-.35 4.838-1.233 2.458-.687 2.38-.812 2.458-.518 4.838-1.43 2.458-.406 2.38-.7 7.137-1.611 2.459-.813 4.837-.854 7.297-1.443 7.217-1.485 7.137-1.261 4.838-1.037 2.458-.378h0" clip-path="url(#p504a6d8bd4)" style="fill:none;stroke:#7f7f7f;stroke-width:1.5;stroke-linecap:square" id="line2d_30"/><path d="m218.853 292.025 2.38-.042 2.458-.532 2.458-.463 2.38-.07 2.458-.056 2.38-.042 2.458-.042 2.458-.07 2.22-.182 2.46-.21 2.379-.098 2.458-.126 2.38-.126 2.458-.112 2.458-.126 2.38-.841 2.458-.112 2.38-.182 2.458-.196 2.458-.225 2.3-.238 2.459-.112 2.379-.322 2.459-.91 2.379-.239 2.458-.154 2.459-.504 2.379-.364 2.459-.239 2.379-.434 2.458-.392 2.459-.28 2.22-.435 2.459-.476 2.38-.855 2.458-.658 2.379-.518 2.458-.925 2.459-.785 2.38-.476 2.458-.49 2.379-.63 2.458-.743 2.459-1.05 2.22-.743 2.459-1.037 2.38-.757 2.458-.812 2.379-.687 2.458-.532 2.459-.602 2.38-.659 2.458-.854 2.379-.645 2.458-.63 2.459-.673 2.22-.672 2.46-.869 2.378-.966 2.459-.701 2.379-.63 2.459-.939 2.458-.77 2.38-.8 2.458-.91 2.379-.602 2.459-.645 2.458-.812 2.3-.63 2.458-.785 2.38-.715 2.458-.952 2.38-.645 2.458-.616 2.458-.673 2.38-.7 2.458-.939 2.38-.756 2.458-.925 2.458-.882 2.221-.841 2.459-.715 2.379-.56 2.458-.953 2.38-.77 2.458-.785 2.459-.91 2.379-.603 2.458-1.036 2.38-.869 2.458-.967 2.459-.952 2.22-.77 2.459-1.234 2.379-1.008 2.458-.827" clip-path="url(#p504a6d8bd4)" style="fill:none;stroke:#e377c2;stroke-width:1.5;stroke-linecap:square" id="line2d_31"/><path d="m93.468 292.025 2.221-.378 21.81-.266 28.947-.435 14.513-.224 16.972-.098 4.679-.028 24.268-1.19 9.516-.715 4.838-.336 4.917-.393 14.355-1.625 12.134-1.807 4.838-.77 4.837-.673 7.217-1.499 7.297-1.12 4.837-.911 14.593-2.508 2.22-1.065 2.459-.658 2.38-.757 2.458-.49 2.379-.617 14.592-2.801 9.517-2.004 14.593-2.564 9.517-2.788 7.296-2.928 4.838-1.639 14.592-5.337 2.3-.687 2.458-.98 2.38-1.135 2.458-1.401 4.838-1.891 2.458-.995 4.838-1.555 2.38-1.247 4.916-2.13 2.221-.672 2.459-1.233 7.217-3.124 2.458-.84 2.459-1.247 4.837-2.004 2.38-1.219 2.458-1.12 2.459-.981 4.679-2.704 2.379-1.527 2.458-1.303h0" clip-path="url(#p504a6d8bd4)" style="fill:none;stroke:#8c564b;stroke-width:1.5;stroke-linecap:square" id="line2d_32"/><path d="m387.856 292.025 2.38-8.98 2.458-1.26 2.38-.225 2.458-.336 2.458-.336 2.38-2.55 2.458-4.427 2.38-3.615 2.458-.896 2.458-3.419 2.221-1.008 2.459-3.307 2.379-1.863 2.458-1.625 2.38-1.443 2.458-27.22 2.459-4.133 2.379-2.592 2.458-3.95 2.38-4.932 2.458-3.825 2.459-1.821 2.22-3.208 2.459-3.46 2.379-5.829 2.458-3.95" clip-path="url(#p504a6d8bd4)" style="fill:none;stroke:#9467bd;stroke-width:1.5;stroke-linecap:square" id="line2d_33"/><path d="m436.155 292.025 2.458-63.113 2.459-14.892 2.22-7.804 2.459-6.85 2.379-9.821 2.458-7.985" clip-path="url(#p504a6d8bd4)" style="fill:none;stroke:#d62728;stroke-width:1.5;stroke-linecap:square" id="line2d_34"/><path d="m122.416 292.025 2.22-5.506 7.296-.462 26.568-1.037 16.972-.196h4.917l4.68-.406 4.837-.616 9.675-1.023 4.838-.827 4.917-.728 7.058-1.065 14.593-2.354 2.38-.462 7.137-.98 2.458-1.121 2.38-.687 14.592-2.872 2.38-1.247 2.458-1.064 4.758-1.177 2.459-.98 2.379-.603 2.459-.91 9.675-2.9 11.975-3.573 2.459-.925 2.38-.77 2.458-.49 2.379-.617 2.458-.77 2.459-.575 4.838-2.088 2.379-1.036 2.458-.799 2.459-.938 7.058-3.139 2.459-.91 2.379-1.303 2.458-.813 2.459-1.19 4.838-1.724 2.379-1.4 7.138-3.643 7.296-4.47 2.379-.854 2.459-1.443 2.458-1.61 2.38-1.388 2.458-1.569 4.838-2.704 4.758-2.395 2.458-1.808 2.38-1.527 2.458-2.143 2.38-1.625 7.296-3.853 2.458-2.241 4.838-3.307 2.458-1.429 2.221-1.134 4.838-2.984 9.755-6.669 4.837-2.62 2.38-1.709 2.458-1.373 2.459-1.625 2.22-1.695 4.838-3.25 2.458-1.906h0" clip-path="url(#p504a6d8bd4)" style="fill:none;stroke:#2ca02c;stroke-width:1.5;stroke-linecap:square" id="line2d_35"/><path d="m185.068 292.025 2.38-1.835 2.458-1.85 2.38-.28 2.458-.196 2.458-.182 2.38-.14 2.458-.7 2.38-.743 2.458-.672 2.458-.463 2.22-.364 2.46-.392 2.378-.673 2.459-.812 2.38-.294 2.458-.56 2.458-.491 2.38-.757 2.458-.532 2.38-.462 2.458-.407 2.458-.602 2.22-.504 2.46-1.065 2.379-.799 2.458-1.863 2.38-.855 2.458-.994 2.458-1.681 2.38-2.396 2.458-2.101 2.38-1.443 2.458-1.08 2.458-1.54 2.3-.967 2.459-1.583 2.379-1.387 2.459-1.33 2.379-1.402 2.458-1.177 2.459-1.443 2.379-1.68 2.459-1.43 2.379-1.443 2.458-3.46 2.459-1.933 2.22-1.443 2.459-7.453 2.38-2.354 2.458-2.312 2.379-1.345 2.458-1.919 2.459-1.19 2.38-1.15 2.458-1.33 2.379-1.401 2.458-1.08 2.459-1.12 2.22-1.163 2.459-1.639 2.38-1.61 2.458-.757 2.379-1.43 2.458-.994 2.459-1.12 2.38-1.094 2.458-.868 2.379-.967 2.458-.952 2.459-1.08 2.22-1.036 2.46-1.037 2.378-1.709 2.459-1.359 2.379-.756 2.459-.995 2.458-.784 2.38-1.107 2.458-.91 2.379-.771 2.459-.981 2.458-.77 2.3-.701 2.458-.84 2.38-.73 2.458-.686 2.38-.658 2.458-.743 2.458-.756 2.38-.799 2.458-.574 2.38-.827 2.458-.77 2.458-.588 2.221-.575 2.459-.826 2.379-.659 2.458-.588 2.38-.617 2.458-1.022 2.459-.617 2.379-.56 2.458-.897 2.38-.42 2.458-.49 2.459-.519 2.22-.448 2.459-.35 2.379-.35 2.458-.477" clip-path="url(#p504a6d8bd4)" style="fill:none;stroke:#ff7f0e;stroke-width:1.5;stroke-linecap:square" id="line2d_36"/><path d="m218.853 292.025 2.38-.084 2.458-.014h2.458l2.38-.042 2.458-.07 2.38-.014 2.458-.042 2.458-.014 2.22-.028 2.46-28.412 2.379-3.348 2.458-1.373 2.38-1.75 2.458-1.318 2.458-.812 2.38-6.781 2.458-1.947 2.38-2.116 2.458-1.33 2.458-1.332 2.3-1.134 2.459-1.836 2.379-1.373 2.459-1.625 2.379-1.821 2.458-1.78 2.459-1.596 2.379-1.57 2.459-2.213 2.379-1.863 2.458-2.816 2.459-2.144 2.22-3.698 2.459-3.488 2.38-2.69 2.458-2.396 2.379-1.947 2.458-2.676 2.459-2.424 2.38-2.662 2.458-3.208 2.379-3.782 2.458-2.858 2.459-3.124 2.22-2.984 2.459-3.489 2.38-3.404 2.458-3.419 2.379-3.278 2.458-4.3 2.459-3.195 2.38-4.721 2.458-2.452 2.379-2.69 2.458-3.222 2.459-3.488 2.22-3.489 2.46-4.034 2.378-4.26 2.459-4.034 2.379-3.348 2.459-3.223 2.458-2.815 2.38-2.774 2.458-7.355 2.379-4.021 2.459-3.306 2.458-2.312 2.3-2.27 2.458-2.563 2.38-2.76 2.458-2.802 2.38-2.732 2.458-2.326 2.458-2.76 2.38-2.577 2.458-2.27 2.38-2.914 2.458-3.474 2.458-2.186 2.221-1.877 2.459-2.816 2.379-2.353 2.458-2.214 2.38-2.55 2.458-2.928 2.459-2.48 2.379-2.24 2.458-2.383 2.38-2.255 2.458-2.76 2.459-2.97 2.22-2.872 2.459-2.816 2.379-2.746 2.458-3.054" clip-path="url(#p504a6d8bd4)" style="fill:none;stroke:#1f77b4;stroke-width:1.5;stroke-linecap:square" id="line2d_37"/></g></g><defs><clipPath id="p504a6d8bd4"><path d="M93.468 25.913h357.12v266.112H93.468z"/></clipPath></defs></svg>