<svg xmlns:xlink="http://www.w3.org/1999/xlink" width="803.044" height="431.856" viewBox="0 0 602.283 323.892" xmlns="http://www.w3.org/2000/svg"><defs><style>*{stroke-linejoin:round;stroke-linecap:butt}</style></defs><g id="figure_1"><path d="M0 323.892h602.283V0H0v323.892z" style="fill:none" id="patch_1"/><g id="axes_1"><path d="M82.476 280.365h357.12V14.253H82.476v266.112z" style="fill:none" id="patch_2"/><g id="matplotlib.axis_1"><g id="xtick_1"><g id="line2d_1"><defs><path id="m860341778b" d="M0 0v3.5" style="stroke:#b0b0b0;stroke-width:.4"/></defs><use xlink:href="#m860341778b" x="91.249" y="280.365" style="fill:#b0b0b0;stroke:#b0b0b0;stroke-width:.4"/></g><g style="fill:#b0b0b0" transform="matrix(.14 0 0 -.14 76.886 297.305)" id="text_1"><defs><path id="MyriadPro-Regular-32" d="M2944 0v467H1075v13l333 307c877 845 1434 1466 1434 2234 0 595-378 1209-1274 1209-480 0-890-179-1178-422l180-397c192 160 505 352 883 352 621 0 825-390 825-813-6-627-486-1164-1548-2176L288 346V0h2656z" transform="scale(.01563)"/><path id="MyriadPro-Regular-30" d="M1677 4230c-845 0-1447-768-1447-2163C243 691 794-70 1606-70c922 0 1447 780 1447 2195 0 1325-499 2105-1376 2105zm-32-435c582 0 845-672 845-1696 0-1062-276-1734-852-1734-512 0-844 614-844 1696 0 1133 358 1734 851 1734z" transform="scale(.01563)"/><path id="MyriadPro-Regular-31" d="M1510 0h544v4160h-480l-908-486 108-429 724 390h12V0z" transform="scale(.01563)"/></defs><use xlink:href="#MyriadPro-Regular-32"/><use xlink:href="#MyriadPro-Regular-30" x="51.3"/><use xlink:href="#MyriadPro-Regular-31" x="102.6"/><use xlink:href="#MyriadPro-Regular-32" x="153.9"/></g></g><g id="xtick_2"><use xlink:href="#m860341778b" x="126.151" y="280.365" style="fill:#b0b0b0;stroke:#b0b0b0;stroke-width:.4" id="line2d_2"/><g style="fill:#b0b0b0" transform="matrix(.14 0 0 -.14 111.788 297.305)" id="text_2"><defs><path id="MyriadPro-Regular-33" d="M269 211C474 77 883-70 1350-70c999 0 1517 582 1517 1248 0 582-416 966-928 1068v13c512 186 768 551 768 979 0 506-371 992-1190 992-448 0-871-160-1088-320l147-409c179 128 499 275 832 275 518 0 730-294 730-627 0-493-519-704-928-704H896v-423h314c544 0 1068-249 1075-832 6-345-218-806-941-806-390 0-762 160-922 262L269 211z" transform="scale(.01563)"/></defs><use xlink:href="#MyriadPro-Regular-32"/><use xlink:href="#MyriadPro-Regular-30" x="51.3"/><use xlink:href="#MyriadPro-Regular-31" x="102.6"/><use xlink:href="#MyriadPro-Regular-33" x="153.9"/></g></g><g id="xtick_3"><use xlink:href="#m860341778b" x="160.957" y="280.365" style="fill:#b0b0b0;stroke:#b0b0b0;stroke-width:.4" id="line2d_3"/><g style="fill:#b0b0b0" transform="matrix(.14 0 0 -.14 146.594 297.305)" id="text_3"><defs><path id="MyriadPro-Regular-34" d="M2560 0v1133h582v441h-582v2586h-608L96 1504v-371h1933V0h531zM666 1574v13l1017 1415c115 192 218 371 346 614h19c-13-218-19-435-19-653V1574H666z" transform="scale(.01563)"/></defs><use xlink:href="#MyriadPro-Regular-32"/><use xlink:href="#MyriadPro-Regular-30" x="51.3"/><use xlink:href="#MyriadPro-Regular-31" x="102.6"/><use xlink:href="#MyriadPro-Regular-34" x="153.9"/></g></g><g id="xtick_4"><use xlink:href="#m860341778b" x="195.763" y="280.365" style="fill:#b0b0b0;stroke:#b0b0b0;stroke-width:.4" id="line2d_4"/><g style="fill:#b0b0b0" transform="matrix(.14 0 0 -.14 181.4 297.305)" id="text_4"><defs><path id="MyriadPro-Regular-35" d="M2771 4160H781L512 2163c154 19 339 45 576 45 832 0 1190-384 1197-922 0-556-455-902-986-902-377 0-717 128-889 230L269 186C467 58 851-70 1306-70c902 0 1548 608 1548 1420 0 525-268 884-595 1069-256 154-576 224-896 224-153 0-243-13-339-25l160 1068h1587v474z" transform="scale(.01563)"/></defs><use xlink:href="#MyriadPro-Regular-32"/><use xlink:href="#MyriadPro-Regular-30" x="51.3"/><use xlink:href="#MyriadPro-Regular-31" x="102.6"/><use xlink:href="#MyriadPro-Regular-35" x="153.9"/></g></g><g id="xtick_5"><use xlink:href="#m860341778b" x="230.569" y="280.365" style="fill:#b0b0b0;stroke:#b0b0b0;stroke-width:.4" id="line2d_5"/><g style="fill:#b0b0b0" transform="matrix(.14 0 0 -.14 216.206 297.305)" id="text_5"><defs><path id="MyriadPro-Regular-36" d="M2662 4224c-102 0-243-6-409-32-525-64-986-275-1331-614-410-410-704-1056-704-1876C218 621 800-70 1690-70c864 0 1382 704 1382 1465 0 813-518 1344-1254 1344-461 0-807-217-1005-480h-19c96 685 563 1331 1446 1479 160 25 307 32 422 25v461zM1690 365c-589 0-903 505-916 1190 0 103 26 186 64 250 154 301 468 512 807 512 518 0 857-359 857-954s-326-998-806-998h-6z" transform="scale(.01563)"/></defs><use xlink:href="#MyriadPro-Regular-32"/><use xlink:href="#MyriadPro-Regular-30" x="51.3"/><use xlink:href="#MyriadPro-Regular-31" x="102.6"/><use xlink:href="#MyriadPro-Regular-36" x="153.9"/></g></g><g id="xtick_6"><use xlink:href="#m860341778b" x="265.47" y="280.365" style="fill:#b0b0b0;stroke:#b0b0b0;stroke-width:.4" id="line2d_6"/><g style="fill:#b0b0b0" transform="matrix(.14 0 0 -.14 251.107 297.305)" id="text_6"><defs><path id="MyriadPro-Regular-37" d="M365 4160v-467h2035v-13L595 0h583l1811 3789v371H365z" transform="scale(.01563)"/></defs><use xlink:href="#MyriadPro-Regular-32"/><use xlink:href="#MyriadPro-Regular-30" x="51.3"/><use xlink:href="#MyriadPro-Regular-31" x="102.6"/><use xlink:href="#MyriadPro-Regular-37" x="153.9"/></g></g><g id="xtick_7"><use xlink:href="#m860341778b" x="300.277" y="280.365" style="fill:#b0b0b0;stroke:#b0b0b0;stroke-width:.4" id="line2d_7"/><g style="fill:#b0b0b0" transform="matrix(.14 0 0 -.14 285.913 297.305)" id="text_7"><defs><path id="MyriadPro-Regular-38" d="M1062 2170c-512-218-825-589-825-1114C237 448 762-70 1632-70c794 0 1414 486 1414 1209 0 506-320 871-838 1075v20c512 243 685 620 685 972 0 519-403 1024-1210 1024-729 0-1286-448-1286-1107 0-358 198-717 659-934l6-19zm583-1831c-531 0-851 371-832 794 0 397 262 717 749 857 563-160 915-403 915-908 0-423-327-743-832-743zm6 3488c506 0 704-345 704-678 0-378-275-634-633-755-480 128-794 352-794 768 0 358 256 665 723 665z" transform="scale(.01563)"/></defs><use xlink:href="#MyriadPro-Regular-32"/><use xlink:href="#MyriadPro-Regular-30" x="51.3"/><use xlink:href="#MyriadPro-Regular-31" x="102.6"/><use xlink:href="#MyriadPro-Regular-38" x="153.9"/></g></g><g id="xtick_8"><use xlink:href="#m860341778b" x="335.083" y="280.365" style="fill:#b0b0b0;stroke:#b0b0b0;stroke-width:.4" id="line2d_8"/><g style="fill:#b0b0b0" transform="matrix(.14 0 0 -.14 320.72 297.305)" id="text_8"><defs><path id="MyriadPro-Regular-39" d="M614-64c135-6 314 0 519 32 448 51 889 243 1209 557 410 397 717 1037 717 1952 0 1062-525 1753-1376 1753S262 3539 262 2752c0-710 480-1274 1229-1274 416 0 749 167 979 448h20c-77-492-276-857-551-1107-237-224-544-358-870-403-192-19-333-32-455-19V-64zm1024 3866c589 0 852-544 852-1255 0-89-20-153-52-205-147-249-441-435-819-435-486 0-800 365-800 883 0 589 339 1012 813 1012h6z" transform="scale(.01563)"/></defs><use xlink:href="#MyriadPro-Regular-32"/><use xlink:href="#MyriadPro-Regular-30" x="51.3"/><use xlink:href="#MyriadPro-Regular-31" x="102.6"/><use xlink:href="#MyriadPro-Regular-39" x="153.9"/></g></g><g id="xtick_9"><use xlink:href="#m860341778b" x="369.889" y="280.365" style="fill:#b0b0b0;stroke:#b0b0b0;stroke-width:.4" id="line2d_9"/><g style="fill:#b0b0b0" transform="matrix(.14 0 0 -.14 355.526 297.305)" id="text_9"><use xlink:href="#MyriadPro-Regular-32"/><use xlink:href="#MyriadPro-Regular-30" x="51.3"/><use xlink:href="#MyriadPro-Regular-32" x="102.6"/><use xlink:href="#MyriadPro-Regular-30" x="153.9"/></g></g><g id="xtick_10"><use xlink:href="#m860341778b" x="404.79" y="280.365" style="fill:#b0b0b0;stroke:#b0b0b0;stroke-width:.4" id="line2d_10"/><g style="fill:#b0b0b0" transform="matrix(.14 0 0 -.14 390.427 297.305)" id="text_10"><use xlink:href="#MyriadPro-Regular-32"/><use xlink:href="#MyriadPro-Regular-30" x="51.3"/><use xlink:href="#MyriadPro-Regular-32" x="102.6"/><use xlink:href="#MyriadPro-Regular-31" x="153.9"/></g></g><g id="xtick_11"><use xlink:href="#m860341778b" x="439.596" y="280.365" style="fill:#b0b0b0;stroke:#b0b0b0;stroke-width:.4" id="line2d_11"/><g style="fill:#b0b0b0" transform="matrix(.14 0 0 -.14 425.233 297.305)" id="text_11"><use xlink:href="#MyriadPro-Regular-32"/><use xlink:href="#MyriadPro-Regular-30" x="51.3"/><use xlink:href="#MyriadPro-Regular-32" x="102.6"/><use xlink:href="#MyriadPro-Regular-32" x="153.9"/></g></g></g><g id="matplotlib.axis_2"><g id="ytick_1"><path d="M82.476 280.365h357.12" clip-path="url(#p42b10cce7a)" style="fill:none;stroke:#b0b0b0;stroke-width:.3;stroke-linecap:square" id="line2d_12"/><g id="line2d_13"><defs><path id="m0f15710444" d="M0 0h-3.5" style="stroke:#b0b0b0;stroke-width:.3"/></defs><use xlink:href="#m0f15710444" x="82.476" y="280.365" style="fill:#b0b0b0;stroke:#b0b0b0;stroke-width:.3"/></g><use xlink:href="#MyriadPro-Regular-30" style="fill:#b0b0b0" transform="matrix(.14 0 0 -.14 68.295 285.335)" id="text_12"/></g><g id="ytick_2"><path d="M82.476 221.904h357.12" clip-path="url(#p42b10cce7a)" style="fill:none;stroke:#b0b0b0;stroke-width:.3;stroke-linecap:square" id="line2d_14"/><use xlink:href="#m0f15710444" x="82.476" y="221.904" style="fill:#b0b0b0;stroke:#b0b0b0;stroke-width:.3" id="line2d_15"/><g style="fill:#b0b0b0" transform="matrix(.14 0 0 -.14 53.932 226.874)" id="text_13"><use xlink:href="#MyriadPro-Regular-35"/><use xlink:href="#MyriadPro-Regular-30" x="51.3"/><use xlink:href="#MyriadPro-Regular-30" x="102.6"/></g></g><g id="ytick_3"><path d="M82.476 163.444h357.12" clip-path="url(#p42b10cce7a)" style="fill:none;stroke:#b0b0b0;stroke-width:.3;stroke-linecap:square" id="line2d_16"/><use xlink:href="#m0f15710444" x="82.476" y="163.444" style="fill:#b0b0b0;stroke:#b0b0b0;stroke-width:.3" id="line2d_17"/><g style="fill:#b0b0b0" transform="matrix(.14 0 0 -.14 46.75 168.414)" id="text_14"><use xlink:href="#MyriadPro-Regular-31"/><use xlink:href="#MyriadPro-Regular-30" x="51.3"/><use xlink:href="#MyriadPro-Regular-30" x="102.6"/><use xlink:href="#MyriadPro-Regular-30" x="153.9"/></g></g><g id="ytick_4"><path d="M82.476 104.983h357.12" clip-path="url(#p42b10cce7a)" style="fill:none;stroke:#b0b0b0;stroke-width:.3;stroke-linecap:square" id="line2d_18"/><use xlink:href="#m0f15710444" x="82.476" y="104.983" style="fill:#b0b0b0;stroke:#b0b0b0;stroke-width:.3" id="line2d_19"/><g style="fill:#b0b0b0" transform="matrix(.14 0 0 -.14 46.75 109.953)" id="text_15"><use xlink:href="#MyriadPro-Regular-31"/><use xlink:href="#MyriadPro-Regular-35" x="51.3"/><use xlink:href="#MyriadPro-Regular-30" x="102.6"/><use xlink:href="#MyriadPro-Regular-30" x="153.9"/></g></g><g id="ytick_5"><path d="M82.476 46.523h357.12" clip-path="url(#p42b10cce7a)" style="fill:none;stroke:#b0b0b0;stroke-width:.3;stroke-linecap:square" id="line2d_20"/><use xlink:href="#m0f15710444" x="82.476" y="46.523" style="fill:#b0b0b0;stroke:#b0b0b0;stroke-width:.3" id="line2d_21"/><g style="fill:#b0b0b0" transform="matrix(.14 0 0 -.14 46.75 51.493)" id="text_16"><use xlink:href="#MyriadPro-Regular-32"/><use xlink:href="#MyriadPro-Regular-30" x="51.3"/><use xlink:href="#MyriadPro-Regular-30" x="102.6"/><use xlink:href="#MyriadPro-Regular-30" x="153.9"/></g></g><g style="fill:#b0b0b0" transform="matrix(.14 0 0 -.14 7.2 17.14)" id="text_17"><defs><path id="MyriadPro-Regular-47" d="M3770 2266H2349v-448h877V531c-128-64-378-115-743-115-1005 0-1664 646-1664 1741 0 1081 685 1734 1735 1734 435 0 723-83 953-185l135 454c-186 90-576 198-1076 198-1446 0-2329-940-2336-2227 0-672 231-1248 602-1606 422-403 960-570 1613-570 582 0 1075 147 1325 237v2074z" transform="scale(.01563)"/><path id="MyriadPro-Regular-69" d="M1030 0v3098H467V0h563zM749 4320c-205 0-352-154-352-352 0-192 141-346 339-346 224 0 365 154 358 346 0 198-134 352-345 352z" transform="scale(.01563)"/><path id="MyriadPro-Regular-74" d="M595 3667v-569H115v-429h480V979c0-365 58-640 218-806C947 19 1158-70 1421-70c217 0 390 38 499 83l-26 422c-83-25-172-38-326-38-314 0-422 217-422 601v1671h806v429h-806v742l-551-173z" transform="scale(.01563)"/><path id="MyriadPro-Regular-48" d="M486 4314V0h557v2022h2087V0h563v4314h-563V2509H1043v1805H486z" transform="scale(.01563)"/><path id="MyriadPro-Regular-75" d="M3059 3098h-563V1197c0-103-19-205-51-288-103-250-365-512-743-512-512 0-691 397-691 985v1716H448V1286C448 198 1030-70 1517-70c550 0 877 326 1024 576h13l32-506h499c-19 243-26 525-26 845v2253z" transform="scale(.01563)"/><path id="MyriadPro-Regular-62" d="M467 800c0-275-13-589-25-800h486l26 512h19c230-410 589-582 1037-582 691 0 1388 550 1388 1657 7 941-537 1581-1305 1581-499 0-858-224-1056-570h-13v1946H467V800zm557 998c0 90 19 167 32 231 115 429 474 691 858 691 601 0 921-531 921-1152 0-710-352-1190-941-1190-409 0-736 268-844 659-13 64-26 134-26 205v556z" transform="scale(.01563)"/><path id="MyriadPro-Regular-73" d="M250 147C467 19 781-70 1120-70c736 0 1158 390 1158 934 0 461-275 730-812 934-404 154-589 269-589 525 0 231 185 423 518 423 288 0 512-103 634-180l141 410c-173 102-448 192-762 192-666 0-1069-410-1069-909 0-371 263-678 819-877 416-153 576-300 576-569 0-256-192-461-601-461-282 0-576 115-743 224L250 147z" transform="scale(.01563)"/><path id="MyriadPro-Regular-61" d="M2643 1901c0 621-230 1267-1177 1267-391 0-762-109-1018-275l128-371c218 140 518 230 806 230 634 0 704-461 704-717v-64C890 1978 224 1568 224 819c0-448 320-889 947-889 442 0 775 217 947 460h20l44-390h512c-38 211-51 474-51 742v1159zm-544-858c0-57-13-121-32-179-89-262-345-518-749-518-288 0-531 172-531 537 0 602 698 711 1312 698v-538z" transform="scale(.01563)"/><path id="MyriadPro-Regular-72" d="M467 0h557v1651c0 96 13 186 26 263 76 422 358 723 755 723 77 0 134-7 192-19v531c-51 13-96 19-160 19-378 0-717-262-858-678h-25l-20 608H442c19-288 25-602 25-967V0z" transform="scale(.01563)"/></defs><use xlink:href="#MyriadPro-Regular-47"/><use xlink:href="#MyriadPro-Regular-69" x="64.6"/><use xlink:href="#MyriadPro-Regular-74" x="88"/><use xlink:href="#MyriadPro-Regular-48" x="121.1"/><use xlink:href="#MyriadPro-Regular-75" x="186.3"/><use xlink:href="#MyriadPro-Regular-62" x="241.4"/><use xlink:href="#MyriadPro-Regular-20" x="298.3"/><use xlink:href="#MyriadPro-Regular-73" x="319.5"/><use xlink:href="#MyriadPro-Regular-74" x="359.1"/><use xlink:href="#MyriadPro-Regular-61" x="392.2"/><use xlink:href="#MyriadPro-Regular-72" x="440.4"/><use xlink:href="#MyriadPro-Regular-73" x="473.1"/></g></g><path d="m338.039 280.365 2.67-1.053 2.956-1.169 2.86-.585 2.957-.584 2.86-.234 2.957-.234 2.956-.117 2.86-.818 2.957-1.052 2.86-.468 2.957-.585 2.956-.234 2.765-.233 2.956-.234 2.861-.819 2.956-.234 2.861-.467 2.956-.117 2.956-.234 2.861-.117h2.956l2.861-.585h2.956l2.956-.116h2.67l2.956-.117h2.861l2.956-.234h2.861l2.956-.117 2.956-.117 2.861-.117 2.956-.117h5.817" clip-path="url(#p42b10cce7a)" style="fill:none;stroke:#e377c2;stroke-width:1.5;stroke-linecap:square" id="line2d_22"/><path d="m323.449 280.365 2.86-.234 2.957-.819 2.86-.584 2.957-1.17 2.956-.584 2.67-.585 2.956-.35 2.86-.234 2.957-.585 2.86-.468 2.957-.584 2.956-.351 2.86-.117 2.957-.117 2.86-.468 2.957-.35 2.956-.936 2.765-.467 2.956-.351 2.861-.234 2.956-.117 2.861-.468 2.956-.233 2.956-.819 2.861-.117 2.956-.117 2.861-.117 2.956-.701 2.956-.819 2.67-.35 2.956-.585 2.861-.701 2.956-.468 2.861-.234 2.956-1.52 2.956-.234 2.861-.701h2.956l2.861-.702 2.956-.468" clip-path="url(#p42b10cce7a)" style="fill:none;stroke:#8c564b;stroke-width:1.5;stroke-linecap:square" id="line2d_23"/><path d="m276.914 280.365 2.956-.117h5.817l2.956-3.157 2.86-.117 2.957-1.17 2.86-2.22h2.957l2.956-.118h2.67l2.956-.117 2.86-.234 2.957-.233 2.86-.117h2.957l2.956-.234 2.86-.234h2.957l2.86-.234 2.957-.234 2.956-.117 2.67-.467 2.956-.585 2.86-.234 2.957-.117h2.86l2.957-.117 2.956-.116 2.86-.117 2.957-.234 2.86-.234 2.957-.117 2.956-.234 2.765-.117 2.956-.35 2.861-.351 2.956-.585 2.861-.35h2.956l2.956-.118h2.861l2.956-.467 2.861-.468 2.956-.468 2.956-.35 2.67-.819 2.956-.35 2.861-.585 2.956-.35 2.861-.82 2.956-.233 2.956-.702 2.861-.935 2.956-.35 2.861-.235 2.956-.35" clip-path="url(#p42b10cce7a)" style="fill:none;stroke:#9467bd;stroke-width:1.5;stroke-linecap:square" id="line2d_24"/><g style="fill:#1f77b4" transform="matrix(.14 0 0 -.14 450.31 17.837)" id="text_18"><defs><path id="MyriadPro-Regular-68" d="M467 0h563v1869c0 109 7 192 39 269 102 307 390 563 755 563 531 0 717-423 717-922V0h563v1843c0 1069-666 1325-1082 1325-211 0-409-64-576-160-172-96-313-237-403-397h-13v1933H467V0z" transform="scale(.01563)"/><path id="MyriadPro-Regular-6f" d="M1779 3168c-857 0-1536-608-1536-1645C243 544 890-70 1728-70c749 0 1542 499 1542 1644 0 948-601 1594-1491 1594zm-13-422c666 0 928-666 928-1191 0-697-403-1203-940-1203-551 0-941 512-941 1190 0 589 288 1204 953 1204z" transform="scale(.01563)"/><path id="MyriadPro-Regular-6d" d="M467 0h551v1869c0 96 12 192 44 275 90 282 346 563 698 563 429 0 646-358 646-851V0h551v1914c0 102 19 204 45 281 96 275 345 512 665 512 455 0 672-358 672-953V0h551v1824c0 1075-608 1344-1018 1344-294 0-499-77-685-218-128-96-249-230-345-403h-13c-135 365-455 621-877 621-512 0-800-275-973-570h-19l-26 500H442c19-256 25-519 25-839V0z" transform="scale(.01563)"/><path id="MyriadPro-Regular-6c" d="M467 0h563v4544H467V0z" transform="scale(.01563)"/><path id="MyriadPro-Regular-65" d="M2957 1446c6 58 19 148 19 263 0 569-269 1459-1280 1459-902 0-1453-736-1453-1670C243 563 813-70 1766-70c493 0 832 108 1031 198l-96 403c-211-89-455-160-858-160-563 0-1049 314-1062 1075h2176zM787 1850c45 390 295 915 864 915 634 0 787-557 781-915H787z" transform="scale(.01563)"/><path id="MyriadPro-Regular-2f" d="m422-256 1792 4640h-435L-6-256h428z" transform="scale(.01563)"/><path id="MyriadPro-Regular-6e" d="M467 0h563v1862c0 96 13 192 39 263 96 313 384 576 755 576 531 0 717-416 717-915V0h563v1850c0 1062-666 1318-1094 1318-512 0-871-288-1024-582h-13l-32 512H442c19-256 25-519 25-839V0z" transform="scale(.01563)"/><path id="MyriadPro-Regular-66" d="M1082 0v2669h748v429h-748v166c0 474 121 896 601 896 160 0 275-32 359-70l76 435c-108 45-281 89-480 89-262 0-544-83-755-288-262-249-358-646-358-1081v-147H90v-429h435V0h557z" transform="scale(.01563)"/></defs><use xlink:href="#MyriadPro-Regular-74"/><use xlink:href="#MyriadPro-Regular-68" x="33.1"/><use xlink:href="#MyriadPro-Regular-6f" x="88.6"/><use xlink:href="#MyriadPro-Regular-6d" x="143.5"/><use xlink:href="#MyriadPro-Regular-61" x="226.9"/><use xlink:href="#MyriadPro-Regular-73" x="275.1"/><use xlink:href="#MyriadPro-Regular-61" x="314.7"/><use xlink:href="#MyriadPro-Regular-68" x="362.9"/><use xlink:href="#MyriadPro-Regular-6c" x="418.4"/><use xlink:href="#MyriadPro-Regular-65" x="442"/><use xlink:href="#MyriadPro-Regular-2f" x="492.1"/><use xlink:href="#MyriadPro-Regular-73" x="526.4"/><use xlink:href="#MyriadPro-Regular-75" x="566"/><use xlink:href="#MyriadPro-Regular-6e" x="621.1"/><use xlink:href="#MyriadPro-Regular-66" x="676.6"/><use xlink:href="#MyriadPro-Regular-69" x="705.8"/><use xlink:href="#MyriadPro-Regular-73" x="729.2"/><use xlink:href="#MyriadPro-Regular-68" x="768.8"/></g><g style="fill:#ff7f0e" transform="matrix(.14 0 0 -.14 450.31 68.42)" id="text_19"><defs><path id="MyriadPro-Regular-63" d="M2579 538c-160-71-371-154-691-154-614 0-1075 442-1075 1158 0 647 384 1172 1094 1172 307 0 519-71 653-148l128 436c-154 76-448 160-781 160-1011 0-1664-692-1664-1645C243 570 851-70 1786-70c416 0 742 108 889 185l-96 423z" transform="scale(.01563)"/><path id="MyriadPro-Regular-53" d="M269 211C499 58 954-70 1370-70c1017 0 1510 582 1510 1248 0 633-371 985-1101 1267-595 230-857 429-857 832 0 294 224 646 812 646 391 0 679-128 820-205l153 455c-192 109-512 211-953 211-839 0-1396-499-1396-1171 0-608 436-973 1140-1223 582-224 812-454 812-857 0-435-332-736-902-736-384 0-749 128-998 281L269 211z" transform="scale(.01563)"/><path id="MyriadPro-Regular-6b" d="M1024 4544H467V0h557v1165l288 320L2381 0h685L1702 1824l1197 1274h-678l-909-1069c-90-109-198-243-275-352h-13v2867z" transform="scale(.01563)"/></defs><use xlink:href="#MyriadPro-Regular-6d"/><use xlink:href="#MyriadPro-Regular-63" x="83.4"/><use xlink:href="#MyriadPro-Regular-6f" x="128.2"/><use xlink:href="#MyriadPro-Regular-73" x="183.1"/><use xlink:href="#MyriadPro-Regular-74" x="222.7"/><use xlink:href="#MyriadPro-Regular-61" x="255.8"/><use xlink:href="#MyriadPro-Regular-6c" x="304"/><use xlink:href="#MyriadPro-Regular-62" x="327.6"/><use xlink:href="#MyriadPro-Regular-61" x="384.5"/><use xlink:href="#MyriadPro-Regular-2f" x="432.7"/><use xlink:href="#MyriadPro-Regular-53" x="467"/><use xlink:href="#MyriadPro-Regular-74" x="516.3"/><use xlink:href="#MyriadPro-Regular-6f" x="549.4"/><use xlink:href="#MyriadPro-Regular-63" x="604.3"/><use xlink:href="#MyriadPro-Regular-6b" x="649.1"/><use xlink:href="#MyriadPro-Regular-66" x="696"/><use xlink:href="#MyriadPro-Regular-69" x="725.2"/><use xlink:href="#MyriadPro-Regular-73" x="748.6"/><use xlink:href="#MyriadPro-Regular-68" x="788.2"/></g><g style="fill:#2ca02c" transform="matrix(.14 0 0 -.14 450.31 82.42)" id="text_20"><defs><path id="MyriadPro-Regular-4c" d="M486 0h2400v467H1043v3847H486V0z" transform="scale(.01563)"/><path id="MyriadPro-Regular-43" d="M3386 582c-224-108-570-179-909-179-1050 0-1658 679-1658 1735 0 1132 672 1779 1683 1779 359 0 660-77 871-179l134 454c-147 77-486 192-1024 192-1337 0-2253-915-2253-2266C230 704 1146-70 2362-70c524 0 934 108 1139 211l-115 441z" transform="scale(.01563)"/><path id="MyriadPro-Regular-5a" d="M192 0h3149v467H928v19l2381 3488v340H397v-468h2189v-19L192 326V0z" transform="scale(.01563)"/></defs><use xlink:href="#MyriadPro-Regular-4c"/><use xlink:href="#MyriadPro-Regular-65" x="47.2"/><use xlink:href="#MyriadPro-Regular-65" x="97.3"/><use xlink:href="#MyriadPro-Regular-6c" x="147.4"/><use xlink:href="#MyriadPro-Regular-61" x="171"/><use xlink:href="#MyriadPro-Regular-43" x="219.2"/><use xlink:href="#MyriadPro-Regular-68" x="277.2"/><use xlink:href="#MyriadPro-Regular-65" x="332.7"/><use xlink:href="#MyriadPro-Regular-73" x="382.8"/><use xlink:href="#MyriadPro-Regular-73" x="422.4"/><use xlink:href="#MyriadPro-Regular-5a" x="462"/><use xlink:href="#MyriadPro-Regular-65" x="517.3"/><use xlink:href="#MyriadPro-Regular-72" x="567.4"/><use xlink:href="#MyriadPro-Regular-6f" x="600.1"/><use xlink:href="#MyriadPro-Regular-2f" x="655"/><use xlink:href="#MyriadPro-Regular-6c" x="689.3"/><use xlink:href="#MyriadPro-Regular-63" x="712.9"/><use xlink:href="#MyriadPro-Regular-30" x="757.7"/></g><g style="fill:#d62728" transform="matrix(.14 0 0 -.14 450.31 218.824)" id="text_21"><defs><path id="MyriadPro-Regular-2d" d="M192 1939v-416h1581v416H192z" transform="scale(.01563)"/></defs><use xlink:href="#MyriadPro-Regular-43"/><use xlink:href="#MyriadPro-Regular-53" x="58"/><use xlink:href="#MyriadPro-Regular-53" x="107.3"/><use xlink:href="#MyriadPro-Regular-4c" x="156.6"/><use xlink:href="#MyriadPro-Regular-61" x="203.8"/><use xlink:href="#MyriadPro-Regular-62" x="252"/><use xlink:href="#MyriadPro-Regular-2f" x="308.9"/><use xlink:href="#MyriadPro-Regular-6d" x="343.2"/><use xlink:href="#MyriadPro-Regular-61" x="426.6"/><use xlink:href="#MyriadPro-Regular-69" x="474.8"/><use xlink:href="#MyriadPro-Regular-61" x="498.2"/><use xlink:href="#MyriadPro-Regular-2d" x="546.4"/><use xlink:href="#MyriadPro-Regular-63" x="577.1"/><use xlink:href="#MyriadPro-Regular-68" x="621.9"/><use xlink:href="#MyriadPro-Regular-65" x="677.4"/><use xlink:href="#MyriadPro-Regular-73" x="727.5"/><use xlink:href="#MyriadPro-Regular-73" x="767.1"/></g><g style="fill:#9467bd" transform="matrix(.14 0 0 -.14 450.31 253.034)" id="text_22"><defs><path id="MyriadPro-Regular-50" d="M486 0h557v1728c128-32 282-38 448-38 544 0 1024 160 1319 473 217 224 332 531 332 922 0 384-140 697-377 902-256 231-659 359-1210 359-448 0-800-39-1069-84V0zm557 3859c96 26 282 45 525 45 614 0 1018-275 1018-845 0-595-410-921-1082-921-186 0-339 12-461 44v1677z" transform="scale(.01563)"/></defs><use xlink:href="#MyriadPro-Regular-73"/><use xlink:href="#MyriadPro-Regular-66" x="39.6"/><use xlink:href="#MyriadPro-Regular-6c" x="68.8"/><use xlink:href="#MyriadPro-Regular-65" x="92.4"/><use xlink:href="#MyriadPro-Regular-69" x="142.5"/><use xlink:href="#MyriadPro-Regular-73" x="165.9"/><use xlink:href="#MyriadPro-Regular-63" x="205.5"/><use xlink:href="#MyriadPro-Regular-68" x="250.3"/><use xlink:href="#MyriadPro-Regular-6d" x="305.8"/><use xlink:href="#MyriadPro-Regular-61" x="389.2"/><use xlink:href="#MyriadPro-Regular-6e" x="437.4"/><use xlink:href="#MyriadPro-Regular-31" x="492.9"/><use xlink:href="#MyriadPro-Regular-30" x="544.2"/><use xlink:href="#MyriadPro-Regular-35" x="595.5"/><use xlink:href="#MyriadPro-Regular-2f" x="646.8"/><use xlink:href="#MyriadPro-Regular-50" x="681.1"/><use xlink:href="#MyriadPro-Regular-6c" x="734.3"/><use xlink:href="#MyriadPro-Regular-65" x="757.9"/><use xlink:href="#MyriadPro-Regular-63" x="808"/><use xlink:href="#MyriadPro-Regular-6f" x="852.8"/></g><g style="fill:#8c564b" transform="matrix(.14 0 0 -.14 450.31 266.873)" id="text_23"><defs><path id="MyriadPro-Regular-51" d="M4205-166c-365 64-832 166-1261 275v25c717 250 1229 960 1229 2068 0 1273-762 2182-1933 2182-1165 0-2010-890-2010-2272C230 723 1107-32 2131-70c83 0 173-32 263-64 499-173 1068-346 1651-500l160 468zM2195 384c-870 0-1376 826-1369 1741-7 934 454 1805 1395 1805 915 0 1363-890 1363-1754 0-986-499-1792-1382-1792h-7z" transform="scale(.01563)"/><path id="MyriadPro-Regular-7a" d="M115 0h2515v448H819v13c141 160 269 313 397 486l1382 1799 7 352H243v-455h1677v-13c-141-166-269-313-403-480L115 326V0z" transform="scale(.01563)"/><path id="MyriadPro-Regular-79" d="M58 3098 1203 243c26-70 39-115 39-147s-20-77-45-134c-128-288-320-506-474-628-166-140-352-230-493-275l141-473c141 25 416 121 691 364 384 333 660 877 1063 1940l845 2208h-596l-614-1818c-77-224-141-461-198-646h-13c-51 185-128 428-199 633L672 3098H58z" transform="scale(.01563)"/><path id="MyriadPro-Regular-41" d="M2714 1357 3174 0h596L2298 4314h-672L160 0h576l448 1357h1530zm-1415 435 423 1248c83 262 153 525 217 781h13c64-250 128-506 224-787l422-1242H1299z" transform="scale(.01563)"/></defs><use xlink:href="#MyriadPro-Regular-51"/><use xlink:href="#MyriadPro-Regular-75" x="68.9"/><use xlink:href="#MyriadPro-Regular-65" x="124"/><use xlink:href="#MyriadPro-Regular-65" x="174.1"/><use xlink:href="#MyriadPro-Regular-6e" x="224.2"/><use xlink:href="#MyriadPro-Regular-73" x="279.7"/><use xlink:href="#MyriadPro-Regular-47" x="319.3"/><use xlink:href="#MyriadPro-Regular-61" x="383.9"/><use xlink:href="#MyriadPro-Regular-6d" x="432.1"/><use xlink:href="#MyriadPro-Regular-62" x="515.5"/><use xlink:href="#MyriadPro-Regular-69" x="572.4"/><use xlink:href="#MyriadPro-Regular-74" x="595.8"/><use xlink:href="#MyriadPro-Regular-2f" x="628.9"/><use xlink:href="#MyriadPro-Regular-43" x="663.2"/><use xlink:href="#MyriadPro-Regular-72" x="721.2"/><use xlink:href="#MyriadPro-Regular-61" x="753.9"/><use xlink:href="#MyriadPro-Regular-7a" x="802.1"/><use xlink:href="#MyriadPro-Regular-79" x="844.9"/><use xlink:href="#MyriadPro-Regular-41" x="892"/><use xlink:href="#MyriadPro-Regular-72" x="953.2"/><use xlink:href="#MyriadPro-Regular-61" x="985.9"/></g><g style="fill:#e377c2" transform="matrix(.14 0 0 -.14 450.31 280.873)" id="text_24"><use xlink:href="#MyriadPro-Regular-6d"/><use xlink:href="#MyriadPro-Regular-61" x="83.4"/><use xlink:href="#MyriadPro-Regular-6e" x="131.6"/><use xlink:href="#MyriadPro-Regular-79" x="187.1"/><use xlink:href="#MyriadPro-Regular-6f" x="234.2"/><use xlink:href="#MyriadPro-Regular-73" x="289.1"/><use xlink:href="#MyriadPro-Regular-6f" x="328.7"/><use xlink:href="#MyriadPro-Regular-2f" x="383.6"/><use xlink:href="#MyriadPro-Regular-61" x="417.9"/><use xlink:href="#MyriadPro-Regular-6c" x="466.1"/><use xlink:href="#MyriadPro-Regular-6c" x="489.7"/><use xlink:href="#MyriadPro-Regular-69" x="513.3"/><use xlink:href="#MyriadPro-Regular-65" x="536.7"/></g><g style="fill:#b0b0b0" transform="matrix(.09716 0 0 -.09716 82.476 314.263)" id="text_25"><defs><path id="MyriadPro-Regular-40" d="M2867 1632c-70-397-409-870-781-870-281 0-422 204-422 486 0 621 454 1152 1018 1152 147 0 256-26 320-45l-135-723zm384-1773c-262-147-601-224-966-224-947 0-1645 666-1645 1735 0 1299 877 2131 1920 2131 992 0 1549-672 1549-1600 0-743-365-1178-691-1171-212 6-288 230-192 716l217 1159c-166 77-409 134-685 134-889 0-1516-723-1516-1517 0-505 320-806 691-806 384 0 678 186 902 563h26c-19-390 217-563 473-563 602 0 1140 563 1140 1523 0 1069-749 1856-1863 1856-1421 0-2336-1145-2336-2464C275 96 1165-672 2214-672c429 0 788 70 1140 256l-103 275z" transform="scale(.01563)"/><path id="MyriadPro-Regular-67" d="M3110 2246c0 378 13 628 26 852h-493l-25-468h-13c-135 256-429 538-967 538-710 0-1395-595-1395-1645C243 666 794 13 1562 13c480 0 812 230 985 518h13V186c0-781-422-1082-998-1082-384 0-704 115-909 243l-141-429c250-166 659-256 1030-256 391 0 826 90 1127 372 301 268 441 704 441 1414v1798zm-556-928c0-96-13-204-45-300-122-359-435-576-781-576-608 0-915 505-915 1113 0 717 384 1171 921 1171 410 0 685-268 788-595 25-77 32-160 32-256v-557z" transform="scale(.01563)"/><path id="MyriadPro-Regular-64" d="M2579 4544V2694h-13c-140 250-460 474-934 474-755 0-1395-634-1389-1664C243 563 819-70 1568-70c506 0 883 262 1056 608h13l25-538h506c-19 211-26 525-26 800v3744h-563zm0-3245c0-89-6-166-25-243-103-422-448-672-826-672-608 0-915 518-915 1146 0 684 345 1196 928 1196 422 0 729-294 813-652 19-71 25-167 25-237v-538z" transform="scale(.01563)"/><path id="MyriadPro-Regular-7c" d="M550 4800v-6400h429v6400H550z" transform="scale(.01563)"/><path id="MyriadPro-Regular-4e" d="M1011 0v1843c0 717-13 1235-45 1779l20 7c217-467 505-960 806-1440L3162 0h563v4314h-525V2509c0-672 13-1197 64-1773l-13-6c-205 441-454 896-774 1401L1094 4314H486V0h525z" transform="scale(.01563)"/><path id="MyriadPro-Regular-f6" d="M1165 3648c185 0 313 154 313 326 0 186-134 327-313 327s-327-147-327-327c0-172 135-326 320-326h7zm1184 0c185 0 313 154 313 326 0 186-134 327-313 327s-320-147-320-327c0-172 128-326 313-326h7zm-570-480c-857 0-1536-608-1536-1645C243 544 890-70 1728-70c749 0 1542 499 1542 1644 0 948-601 1594-1491 1594zm-13-422c666 0 928-666 928-1191 0-697-403-1203-940-1203-551 0-941 512-941 1190 0 589 288 1204 953 1204z" transform="scale(.01563)"/><path id="MyriadPro-Regular-42" d="M486 13c186-26 480-51 864-51 704 0 1191 128 1492 403 217 211 364 493 364 864 0 640-480 979-889 1081v13c454 167 729 531 729 947 0 340-134 596-358 762-269 218-627 314-1184 314-390 0-774-39-1018-90V13zm557 3865c90 20 237 39 493 39 563 0 947-199 947-704 0-416-345-723-934-723h-506v1388zm0-1811h461c608 0 1114-243 1114-832 0-627-532-838-1108-838-198 0-358 6-467 25v1645z" transform="scale(.01563)"/><path id="MyriadPro-Regular-59" d="M2010 0v1837l1446 2477h-634l-620-1191c-167-326-314-608-436-889h-12c-135 300-263 563-429 889L717 4314H83l1363-2484V0h564z" transform="scale(.01563)"/></defs><use xlink:href="#MyriadPro-Regular-40"/><use xlink:href="#MyriadPro-Regular-6e" x="73.7"/><use xlink:href="#MyriadPro-Regular-73" x="129.2"/><use xlink:href="#MyriadPro-Regular-63" x="168.8"/><use xlink:href="#MyriadPro-Regular-68" x="213.6"/><use xlink:href="#MyriadPro-Regular-6c" x="269.1"/><use xlink:href="#MyriadPro-Regular-6f" x="292.7"/><use xlink:href="#MyriadPro-Regular-65" x="347.6"/><use xlink:href="#MyriadPro-Regular-20" x="397.7"/><use xlink:href="#MyriadPro-Regular-2f" x="418.9"/><use xlink:href="#MyriadPro-Regular-20" x="453.2"/><use xlink:href="#MyriadPro-Regular-67" x="474.4"/><use xlink:href="#MyriadPro-Regular-68" x="530.3"/><use xlink:href="#MyriadPro-Regular-2d" x="585.8"/><use xlink:href="#MyriadPro-Regular-74" x="616.5"/><use xlink:href="#MyriadPro-Regular-72" x="649.6"/><use xlink:href="#MyriadPro-Regular-65" x="682.3"/><use xlink:href="#MyriadPro-Regular-6e" x="732.4"/><use xlink:href="#MyriadPro-Regular-64" x="787.9"/><use xlink:href="#MyriadPro-Regular-73" x="844.3"/><use xlink:href="#MyriadPro-Regular-20" x="883.9"/><use xlink:href="#MyriadPro-Regular-7c" x="905.1"/><use xlink:href="#MyriadPro-Regular-20" x="929"/><use xlink:href="#MyriadPro-Regular-4e" x="950.2"/><use xlink:href="#MyriadPro-Regular-69" x="1016"/><use xlink:href="#MyriadPro-Regular-63" x="1039.4"/><use xlink:href="#MyriadPro-Regular-6f" x="1084.2"/><use xlink:href="#MyriadPro-Regular-20" x="1139.1"/><use xlink:href="#MyriadPro-Regular-53" x="1160.3"/><use xlink:href="#MyriadPro-Regular-63" x="1209.6"/><use xlink:href="#MyriadPro-Regular-68" x="1254.4"/><use xlink:href="#MyriadPro-Regular-6c" x="1309.9"/><use xlink:href="#MyriadPro-Regular-f6" x="1333.5"/><use xlink:href="#MyriadPro-Regular-6d" x="1388.4"/><use xlink:href="#MyriadPro-Regular-65" x="1471.8"/><use xlink:href="#MyriadPro-Regular-72" x="1521.9"/><use xlink:href="#MyriadPro-Regular-20" x="1554.6"/><use xlink:href="#MyriadPro-Regular-7c" x="1575.8"/><use xlink:href="#MyriadPro-Regular-20" x="1599.7"/><use xlink:href="#MyriadPro-Regular-43" x="1620.9"/><use xlink:href="#MyriadPro-Regular-43" x="1678.9"/><use xlink:href="#MyriadPro-Regular-20" x="1736.9"/><use xlink:href="#MyriadPro-Regular-42" x="1758.1"/><use xlink:href="#MyriadPro-Regular-59" x="1812.3"/></g><path d="m384.383 280.365 2.861-.468 2.956-.234 2.956-.234 2.861-.117h2.956l2.861-.701 2.956-16.954 2.956-17.538 2.67-3.508 2.956-3.04 2.861-1.753 2.956-2.573 2.861-2.104 2.956-5.73 2.956-2.571 2.861-2.339 2.956-2.221 2.861-1.403 2.956-1.637" clip-path="url(#p42b10cce7a)" style="fill:none;stroke:#d62728;stroke-width:1.5;stroke-linecap:square" id="line2d_25"/><path d="m314.676 280.365 2.86-2.339 2.957-3.274 2.956-3.273 2.86-3.157 2.957-2.923 2.86-3.625 2.957-8.535 2.956-10.99 2.67-6.314 2.956-4.794 2.86-4.092 2.957-7.366 2.86-2.806 2.957-18.006 2.956-3.976 2.86-3.273 2.957-3.508 2.86-2.572 2.957-4.093 2.956-3.04 2.765-3.156 2.956-3.274 2.861-7.132 2.956-5.612 2.861-7.25 2.956-6.898 2.956-5.144 2.861-3.04 2.956-3.391 2.861-5.495 2.956-6.314 2.956-4.677 2.67-6.197 2.956-4.209 2.861-3.624 2.956-3.859 2.861-3.975 2.956-2.455 2.956-4.093 2.861-2.923 2.956-2.455 2.861-1.754 2.956-5.495" clip-path="url(#p42b10cce7a)" style="fill:none;stroke:#2ca02c;stroke-width:1.5;stroke-linecap:square" id="line2d_26"/><path d="m82.476 280.365 2.956-13.914 2.861-.585 2.956-.584 2.956-.234 2.766-.234 2.956-.117 2.86-.467 2.957-.468 2.86-.117 2.957-.585 2.956-.467 2.86-.117h2.957l2.86-.468h2.957l2.956-.117 2.67-1.286 2.956-1.403 2.86-1.17 2.957-1.52 2.86-.7 2.957-1.404 2.956-.935 2.86-1.52 2.957-1.637 2.86-5.846 2.957-2.222 2.956-2.572 2.67-2.455 2.956-3.157 2.86-1.87 2.957-1.638 2.86-11.107 2.957-1.052 2.956-1.404 2.86-.935 2.957-.818 2.86-1.754 2.957-1.52 2.956-1.52 2.67-1.17 2.956-.818 2.861-1.52 2.956-.818 2.86-.936 2.957-1.169 2.956-.935 2.861-.702 2.956-1.286 2.86-1.286 2.957-1.52 2.956-1.052 2.766-.585 2.956-1.637 2.86-.818 2.957-1.17 2.86-1.169 2.957-.701 2.956-1.52 2.86-1.052 2.957-1.754 2.86-1.637 2.956-1.754 2.957-2.104 2.67-1.287 2.956-2.104 2.86-.819 2.957-1.052 2.86-.818 2.957-.702 2.956-.935 2.86-.351 2.957-1.17 2.86-1.636 2.957-2.222 2.956-1.753 2.67-1.17 2.956-1.169 2.86-2.455 2.957-1.17 2.86-.818 2.957-1.754 2.956-2.221 2.86-1.286 2.957-1.17 2.86-1.402 2.957-3.508 2.956-1.87 2.67-1.638 2.956-2.572 2.86-1.637 2.957-1.286 2.86-1.17 2.957-1.285 2.956-1.403 2.86-.819 2.957-.701 2.86-1.053 2.957-.818 2.956-1.17 2.765-1.285 2.956-1.988 2.861-1.988 2.956-1.754 2.861-3.04 2.956-3.741 2.956-1.988 2.861-1.753 2.956-2.105 2.861-3.39 2.956-5.028 2.956-4.21 2.67-5.261 2.956-3.39 2.861-3.158 2.956-2.455 2.861-2.104 2.956-4.327 2.956-2.104 2.861-1.52 2.956-1.988 2.861-1.987 2.956-2.69" clip-path="url(#p42b10cce7a)" style="fill:none;stroke:#ff7f0e;stroke-width:1.5;stroke-linecap:square" id="line2d_27"/><path d="m163.913 280.365 2.67-13.68 2.956-1.17 2.86-.584h5.817l2.957-.468 2.956-60.214 2.86-1.052 2.957-1.053 2.86-.584 2.957-2.222 2.956-1.169 2.67-.701 2.956-.936 2.861-.467 2.956-.468 2.86-.702 2.957-.818 2.956-.935 2.861-.936 2.956-.701 2.86-.468 2.957-.585 2.956-1.052 2.766-.701 2.956-1.17 2.86-.701 2.957-.702 2.86-.467 2.957-.702 2.956-1.17 2.86-.818 2.957-1.753 2.86-1.871 2.956-1.87 2.957-.468 2.67-4.794 2.956-1.754 2.86-1.17 2.957-.467 2.86-.935 2.957-.585 2.956-1.286 2.86-1.052 2.957-1.871 2.86-.468 2.957-.818 2.956-1.17 2.67-.818 2.956-1.17 2.86-.467 2.957-.818 2.86-.351 2.957-.818 2.956-.702 2.86-.468 2.957-.701 2.86-1.052 2.957-1.17 2.956-1.637 2.67-.935 2.956-.935 2.86-8.185 2.957-2.104 2.86-51.796 2.957-3.859 2.956-2.221 2.86-1.988 2.957-1.403 2.86-1.052 2.957-1.637 2.956-.819 2.765-1.403 2.956-2.338 2.861-3.625 2.956-1.987 2.861-2.69 2.956-2.104 2.956-1.87 2.861-1.638 2.956-2.221 2.861-3.742 2.956-5.495 2.956-4.56 2.67-2.923 2.956-2.572 2.861-1.988 2.956-1.87 2.861-3.04 2.956-2.573 2.956-2.104 2.861-3.508 2.956-1.52 2.861-1.52 2.956-1.987" clip-path="url(#p42b10cce7a)" style="fill:none;stroke:#1f77b4;stroke-width:1.5;stroke-linecap:square" id="line2d_28"/></g></g><defs><clipPath id="p42b10cce7a"><path d="M82.476 14.253h357.12v266.112H82.476z"/></clipPath></defs></svg>