<svg xmlns:xlink="http://www.w3.org/1999/xlink" width="778.868" height="462.189" viewBox="0 0 584.151 346.642" xmlns="http://www.w3.org/2000/svg"><defs><style>*{stroke-linejoin:round;stroke-linecap:butt}</style></defs><g id="figure_1"><path d="M0 346.642h584.15V0H0v346.642z" style="fill:none" id="patch_1"/><g id="axes_1"><path d="M98.073 303.115h357.12V37.003H98.073v266.112z" style="fill:none" id="patch_2"/><g id="matplotlib.axis_1"><g id="xtick_1"><g id="line2d_1"><defs><path id="m1b4d48fe89" d="M0 0v3.5" style="stroke:#b0b0b0;stroke-width:.4"/></defs><use xlink:href="#m1b4d48fe89" x="119.017" y="303.115" style="fill:#b0b0b0;stroke:#b0b0b0;stroke-width:.4"/></g><g style="fill:#b0b0b0" transform="matrix(.14 0 0 -.14 101.202 320.752)" id="text_1"><defs><path id="DejaVuSans-32" d="M1228 531h2203V0H469v531q359 372 979 998 621 627 780 809 303 340 423 576 121 236 121 464 0 372-261 606-261 235-680 235-297 0-627-103-329-103-704-313v638q381 153 712 231 332 78 607 78 725 0 1156-363 431-362 431-968 0-288-108-546-107-257-392-607-78-91-497-524-418-433-1181-1211z" transform="scale(.01563)"/><path id="DejaVuSans-30" d="M2034 4250q-487 0-733-480-245-479-245-1442 0-959 245-1439 246-480 733-480 491 0 736 480 246 480 246 1439 0 963-246 1442-245 480-736 480zm0 500q785 0 1199-621 414-620 414-1801 0-1178-414-1799Q2819-91 2034-91q-784 0-1198 620-414 621-414 1799 0 1181 414 1801 414 621 1198 621z" transform="scale(.01563)"/><path id="DejaVuSans-31" d="M794 531h1031v3560L703 3866v575l1116 225h631V531h1031V0H794v531z" transform="scale(.01563)"/></defs><use xlink:href="#DejaVuSans-32"/><use xlink:href="#DejaVuSans-30" x="63.623"/><use xlink:href="#DejaVuSans-31" x="127.246"/><use xlink:href="#DejaVuSans-30" x="190.869"/></g></g><g id="xtick_2"><use xlink:href="#m1b4d48fe89" x="174.615" y="303.115" style="fill:#b0b0b0;stroke:#b0b0b0;stroke-width:.4" id="line2d_2"/><g style="fill:#b0b0b0" transform="matrix(.14 0 0 -.14 156.8 320.752)" id="text_2"><use xlink:href="#DejaVuSans-32"/><use xlink:href="#DejaVuSans-30" x="63.623"/><use xlink:href="#DejaVuSans-31" x="127.246"/><use xlink:href="#DejaVuSans-32" x="190.869"/></g></g><g id="xtick_3"><use xlink:href="#m1b4d48fe89" x="230.289" y="303.115" style="fill:#b0b0b0;stroke:#b0b0b0;stroke-width:.4" id="line2d_3"/><g style="fill:#b0b0b0" transform="matrix(.14 0 0 -.14 212.474 320.752)" id="text_3"><defs><path id="DejaVuSans-34" d="M2419 4116 825 1625h1594v2491zm-166 550h794V1625h666v-525h-666V0h-628v1100H313v609l1940 2957z" transform="scale(.01563)"/></defs><use xlink:href="#DejaVuSans-32"/><use xlink:href="#DejaVuSans-30" x="63.623"/><use xlink:href="#DejaVuSans-31" x="127.246"/><use xlink:href="#DejaVuSans-34" x="190.869"/></g></g><g id="xtick_4"><use xlink:href="#m1b4d48fe89" x="285.887" y="303.115" style="fill:#b0b0b0;stroke:#b0b0b0;stroke-width:.4" id="line2d_4"/><g style="fill:#b0b0b0" transform="matrix(.14 0 0 -.14 268.072 320.752)" id="text_4"><defs><path id="DejaVuSans-36" d="M2113 2584q-425 0-674-291-248-290-248-796 0-503 248-796 249-292 674-292t673 292q248 293 248 796 0 506-248 796-248 291-673 291zm1253 1979v-575q-238 112-480 171-242 60-480 60-625 0-955-422-329-422-376-1275 184 272 462 417 279 145 613 145 703 0 1111-427 408-426 408-1160 0-719-425-1154Q2819-91 2113-91q-810 0-1238 620-428 621-428 1799 0 1106 525 1764t1409 658q238 0 480-47t505-140z" transform="scale(.01563)"/></defs><use xlink:href="#DejaVuSans-32"/><use xlink:href="#DejaVuSans-30" x="63.623"/><use xlink:href="#DejaVuSans-31" x="127.246"/><use xlink:href="#DejaVuSans-36" x="190.869"/></g></g><g id="xtick_5"><use xlink:href="#m1b4d48fe89" x="341.561" y="303.115" style="fill:#b0b0b0;stroke:#b0b0b0;stroke-width:.4" id="line2d_5"/><g style="fill:#b0b0b0" transform="matrix(.14 0 0 -.14 323.746 320.752)" id="text_5"><defs><path id="DejaVuSans-38" d="M2034 2216q-450 0-708-241-257-241-257-662 0-422 257-663 258-241 708-241t709 242q260 243 260 662 0 421-258 662-257 241-711 241zm-631 268q-406 100-633 378-226 279-226 679 0 559 398 884 399 325 1092 325 697 0 1094-325t397-884q0-400-227-679-226-278-629-378 456-106 710-416 255-309 255-755 0-679-414-1042Q2806-91 2034-91q-771 0-1186 362-414 363-414 1042 0 446 256 755 257 310 713 416zm-231 997q0-362 226-565 227-203 636-203 407 0 636 203 230 203 230 565 0 363-230 566-229 203-636 203-409 0-636-203-226-203-226-566z" transform="scale(.01563)"/></defs><use xlink:href="#DejaVuSans-32"/><use xlink:href="#DejaVuSans-30" x="63.623"/><use xlink:href="#DejaVuSans-31" x="127.246"/><use xlink:href="#DejaVuSans-38" x="190.869"/></g></g><g id="xtick_6"><use xlink:href="#m1b4d48fe89" x="397.158" y="303.115" style="fill:#b0b0b0;stroke:#b0b0b0;stroke-width:.4" id="line2d_6"/><g style="fill:#b0b0b0" transform="matrix(.14 0 0 -.14 379.343 320.752)" id="text_6"><use xlink:href="#DejaVuSans-32"/><use xlink:href="#DejaVuSans-30" x="63.623"/><use xlink:href="#DejaVuSans-32" x="127.246"/><use xlink:href="#DejaVuSans-30" x="190.869"/></g></g><g id="xtick_7"><use xlink:href="#m1b4d48fe89" x="452.832" y="303.115" style="fill:#b0b0b0;stroke:#b0b0b0;stroke-width:.4" id="line2d_7"/><g style="fill:#b0b0b0" transform="matrix(.14 0 0 -.14 435.017 320.752)" id="text_7"><use xlink:href="#DejaVuSans-32"/><use xlink:href="#DejaVuSans-30" x="63.623"/><use xlink:href="#DejaVuSans-32" x="127.246"/><use xlink:href="#DejaVuSans-32" x="190.869"/></g></g></g><g id="matplotlib.axis_2"><g id="ytick_1"><path d="M98.073 303.115h357.12" clip-path="url(#pae70dd030e)" style="fill:none;stroke:#b0b0b0;stroke-width:.3;stroke-linecap:square" id="line2d_8"/><g id="line2d_9"><defs><path id="m0a58700603" d="M0 0h-3.5" style="stroke:#b0b0b0;stroke-width:.3"/></defs><use xlink:href="#m0a58700603" x="98.073" y="303.115" style="fill:#b0b0b0;stroke:#b0b0b0;stroke-width:.3"/></g><use xlink:href="#DejaVuSans-30" style="fill:#b0b0b0" transform="matrix(.14 0 0 -.14 82.166 308.433)" id="text_8"/></g><g id="ytick_2"><path d="M98.073 271.145h357.12" clip-path="url(#pae70dd030e)" style="fill:none;stroke:#b0b0b0;stroke-width:.3;stroke-linecap:square" id="line2d_10"/><use xlink:href="#m0a58700603" x="98.073" y="271.145" style="fill:#b0b0b0;stroke:#b0b0b0;stroke-width:.3" id="line2d_11"/><g style="fill:#b0b0b0" transform="matrix(.14 0 0 -.14 55.443 276.464)" id="text_9"><use xlink:href="#DejaVuSans-32"/><use xlink:href="#DejaVuSans-30" x="63.623"/><use xlink:href="#DejaVuSans-30" x="127.246"/><use xlink:href="#DejaVuSans-30" x="190.869"/></g></g><g id="ytick_3"><path d="M98.073 239.176h357.12" clip-path="url(#pae70dd030e)" style="fill:none;stroke:#b0b0b0;stroke-width:.3;stroke-linecap:square" id="line2d_12"/><use xlink:href="#m0a58700603" x="98.073" y="239.176" style="fill:#b0b0b0;stroke:#b0b0b0;stroke-width:.3" id="line2d_13"/><g style="fill:#b0b0b0" transform="matrix(.14 0 0 -.14 55.443 244.495)" id="text_10"><use xlink:href="#DejaVuSans-34"/><use xlink:href="#DejaVuSans-30" x="63.623"/><use xlink:href="#DejaVuSans-30" x="127.246"/><use xlink:href="#DejaVuSans-30" x="190.869"/></g></g><g id="ytick_4"><path d="M98.073 207.207h357.12" clip-path="url(#pae70dd030e)" style="fill:none;stroke:#b0b0b0;stroke-width:.3;stroke-linecap:square" id="line2d_14"/><use xlink:href="#m0a58700603" x="98.073" y="207.207" style="fill:#b0b0b0;stroke:#b0b0b0;stroke-width:.3" id="line2d_15"/><g style="fill:#b0b0b0" transform="matrix(.14 0 0 -.14 55.443 212.526)" id="text_11"><use xlink:href="#DejaVuSans-36"/><use xlink:href="#DejaVuSans-30" x="63.623"/><use xlink:href="#DejaVuSans-30" x="127.246"/><use xlink:href="#DejaVuSans-30" x="190.869"/></g></g><g id="ytick_5"><path d="M98.073 175.238h357.12" clip-path="url(#pae70dd030e)" style="fill:none;stroke:#b0b0b0;stroke-width:.3;stroke-linecap:square" id="line2d_16"/><use xlink:href="#m0a58700603" x="98.073" y="175.238" style="fill:#b0b0b0;stroke:#b0b0b0;stroke-width:.3" id="line2d_17"/><g style="fill:#b0b0b0" transform="matrix(.14 0 0 -.14 55.443 180.556)" id="text_12"><use xlink:href="#DejaVuSans-38"/><use xlink:href="#DejaVuSans-30" x="63.623"/><use xlink:href="#DejaVuSans-30" x="127.246"/><use xlink:href="#DejaVuSans-30" x="190.869"/></g></g><g id="ytick_6"><path d="M98.073 143.268h357.12" clip-path="url(#pae70dd030e)" style="fill:none;stroke:#b0b0b0;stroke-width:.3;stroke-linecap:square" id="line2d_18"/><use xlink:href="#m0a58700603" x="98.073" y="143.268" style="fill:#b0b0b0;stroke:#b0b0b0;stroke-width:.3" id="line2d_19"/><g style="fill:#b0b0b0" transform="matrix(.14 0 0 -.14 46.536 148.587)" id="text_13"><use xlink:href="#DejaVuSans-31"/><use xlink:href="#DejaVuSans-30" x="63.623"/><use xlink:href="#DejaVuSans-30" x="127.246"/><use xlink:href="#DejaVuSans-30" x="190.869"/><use xlink:href="#DejaVuSans-30" x="254.492"/></g></g><g id="ytick_7"><path d="M98.073 111.3h357.12" clip-path="url(#pae70dd030e)" style="fill:none;stroke:#b0b0b0;stroke-width:.3;stroke-linecap:square" id="line2d_20"/><use xlink:href="#m0a58700603" x="98.073" y="111.299" style="fill:#b0b0b0;stroke:#b0b0b0;stroke-width:.3" id="line2d_21"/><g style="fill:#b0b0b0" transform="matrix(.14 0 0 -.14 46.536 116.618)" id="text_14"><use xlink:href="#DejaVuSans-31"/><use xlink:href="#DejaVuSans-32" x="63.623"/><use xlink:href="#DejaVuSans-30" x="127.246"/><use xlink:href="#DejaVuSans-30" x="190.869"/><use xlink:href="#DejaVuSans-30" x="254.492"/></g></g><g id="ytick_8"><path d="M98.073 79.33h357.12" clip-path="url(#pae70dd030e)" style="fill:none;stroke:#b0b0b0;stroke-width:.3;stroke-linecap:square" id="line2d_22"/><use xlink:href="#m0a58700603" x="98.073" y="79.33" style="fill:#b0b0b0;stroke:#b0b0b0;stroke-width:.3" id="line2d_23"/><g style="fill:#b0b0b0" transform="matrix(.14 0 0 -.14 46.536 84.649)" id="text_15"><use xlink:href="#DejaVuSans-31"/><use xlink:href="#DejaVuSans-34" x="63.623"/><use xlink:href="#DejaVuSans-30" x="127.246"/><use xlink:href="#DejaVuSans-30" x="190.869"/><use xlink:href="#DejaVuSans-30" x="254.492"/></g></g><g id="ytick_9"><path d="M98.073 47.36h357.12" clip-path="url(#pae70dd030e)" style="fill:none;stroke:#b0b0b0;stroke-width:.3;stroke-linecap:square" id="line2d_24"/><use xlink:href="#m0a58700603" x="98.073" y="47.361" style="fill:#b0b0b0;stroke:#b0b0b0;stroke-width:.3" id="line2d_25"/><g style="fill:#b0b0b0" transform="matrix(.14 0 0 -.14 46.536 52.68)" id="text_16"><use xlink:href="#DejaVuSans-31"/><use xlink:href="#DejaVuSans-36" x="63.623"/><use xlink:href="#DejaVuSans-30" x="127.246"/><use xlink:href="#DejaVuSans-30" x="190.869"/><use xlink:href="#DejaVuSans-30" x="254.492"/></g></g><g style="fill:#b0b0b0" transform="matrix(.14 0 0 -.14 7.2 17.838)" id="text_17"><defs><path id="DejaVuSans-47" d="M3809 666v1253H2778v519h1656V434q-365-259-806-392-440-133-940-133-1094 0-1712 639-617 640-617 1780 0 1144 617 1783 618 639 1712 639 456 0 867-113 411-112 758-331v-672q-350 297-744 447t-828 150q-857 0-1287-478-429-478-429-1425 0-944 429-1422 430-478 1287-478 334 0 596 58 263 58 472 180z" transform="scale(.01563)"/><path id="DejaVuSans-69" d="M603 3500h575V0H603v3500zm0 1363h575v-729H603v729z" transform="scale(.01563)"/><path id="DejaVuSans-74" d="M1172 4494v-994h1184v-447H1172V1153q0-428 117-550t477-122h590V0h-590q-666 0-919 248-253 249-253 905v1900H172v447h422v994h578z" transform="scale(.01563)"/><path id="DejaVuSans-48" d="M628 4666h631V2753h2294v1913h631V0h-631v2222H1259V0H628v4666z" transform="scale(.01563)"/><path id="DejaVuSans-75" d="M544 1381v2119h575V1403q0-497 193-746 194-248 582-248 465 0 735 297 271 297 271 810v1984h575V0h-575v538q-209-319-486-474-276-155-642-155-603 0-916 375-312 375-312 1097zm1447 2203z" transform="scale(.01563)"/><path id="DejaVuSans-62" d="M3116 1747q0 634-261 995t-717 361q-457 0-718-361t-261-995q0-634 261-995t718-361q456 0 717 361t261 995zM1159 2969q182 312 458 463 277 152 661 152 638 0 1036-506 399-506 399-1331T3314 415Q2916-91 2278-91q-384 0-661 152-276 152-458 464V0H581v4863h578V2969z" transform="scale(.01563)"/><path id="DejaVuSans-73" d="M2834 3397v-544q-243 125-506 187-262 63-544 63-428 0-642-131t-214-394q0-200 153-314t616-217l197-44q612-131 870-370t258-667q0-488-386-773Q2250-91 1575-91q-281 0-586 55T347 128v594q319-166 628-249 309-82 613-82 406 0 624 139 219 139 219 392 0 234-158 359-157 125-692 241l-200 47q-534 112-772 345-237 233-237 639 0 494 350 762 350 269 994 269 318 0 599-47 282-46 519-140z" transform="scale(.01563)"/><path id="DejaVuSans-61" d="M2194 1759q-697 0-966-159t-269-544q0-306 202-486 202-179 548-179 479 0 768 339t289 901v128h-572zm1147 238V0h-575v531q-197-318-491-470T1556-91q-537 0-855 302-317 302-317 808 0 590 395 890 396 300 1180 300h807v57q0 397-261 614t-733 217q-300 0-585-72-284-72-546-216v532q315 122 612 182 297 61 578 61 760 0 1135-394 375-393 375-1193z" transform="scale(.01563)"/><path id="DejaVuSans-72" d="M2631 2963q-97 56-211 82-114 27-251 27-488 0-749-317t-261-911V0H581v3500h578v-544q182 319 472 473 291 155 707 155 59 0 131-8 72-7 159-23l3-590z" transform="scale(.01563)"/></defs><use xlink:href="#DejaVuSans-47"/><use xlink:href="#DejaVuSans-69" x="77.49"/><use xlink:href="#DejaVuSans-74" x="105.273"/><use xlink:href="#DejaVuSans-48" x="144.482"/><use xlink:href="#DejaVuSans-75" x="219.678"/><use xlink:href="#DejaVuSans-62" x="283.057"/><use xlink:href="#DejaVuSans-20" x="346.533"/><use xlink:href="#DejaVuSans-73" x="378.32"/><use xlink:href="#DejaVuSans-74" x="430.42"/><use xlink:href="#DejaVuSans-61" x="469.629"/><use xlink:href="#DejaVuSans-72" x="530.908"/><use xlink:href="#DejaVuSans-73" x="572.021"/></g></g><path d="m98.073 303.115 16.299-.016 208.53-.08 11.652-.064 20.792-.096 27.799-.288 16.374-.096 9.216-.112 7.007-.24 6.93-.047 25.514-.96 7.007-.351h0" clip-path="url(#pae70dd030e)" style="fill:none;stroke:#9467bd;stroke-width:1.5;stroke-linecap:square" id="line2d_26"/><path d="m234.783 303.115 2.36-.016 2.285-.048 2.361-.016 2.285-.016 2.361-.064 2.361-.016 2.285-.016 2.361-1.055 2.285-.048 2.36-.08 2.362-.895 2.132-1.007 2.361-.224 2.285-.288 2.361-.16 2.285-.175 2.361-.032 2.361-.176 2.285-.112 2.36-.128 2.286-.144 2.36-.176 2.362-.271 2.208-.256 2.361-.208 2.285-9.095 2.361-1.759 2.285-.48 2.361-.655 2.361-1.039 2.285-.703 2.36-.463 2.286-.576 2.36-.272 2.362-.24 2.132-.287 2.361-.544 2.285-.111 2.361-.4 2.285-.32 2.36-.32 2.362-.191 2.285-.256 2.36-.176 2.286-.272 2.36-.223 2.362-.128 2.132-.304 2.361-.368 2.285-.191 2.36-.24 2.286-.432 2.36-.415 2.362-.4 2.285-.208 2.36-.383 2.285-.224 2.361-.192 2.361-.208 2.133-.192 2.36-.287 2.286-.4 2.36-.224 2.286-.176 2.36-.223 2.362-.144 2.284-.192 2.361-.192 2.285-.272 2.361-.24 2.361-.271 2.209-.256 2.36-.208 2.286-.351 2.36-.256 2.286-.256 2.36-.192 2.362-.287 2.284-.272 2.361-.288 2.285-.383 2.361-.384 2.361-.336 2.133-.303 2.36-.256 2.286-.368 2.36-.415 2.285-.352 2.361-.288 2.361-.224 2.285-.383 2.361-.24 2.285-.272 2.361-.224 2.361-.24" clip-path="url(#pae70dd030e)" style="fill:none;stroke:#d62728;stroke-width:1.5;stroke-linecap:square" id="line2d_27"/><path d="m246.435 303.115 2.361-1.95 2.285-.624 2.361-.432 2.285-.24 2.36-.223 2.362-.144 2.132-.16 2.361-.096 2.285-.224 2.361-.223 2.285-.224 2.361-.256 2.361-.096 2.285-.767 2.36-.72 2.286-.783 2.36-.495 2.362-.464 2.208-.32 2.361-.447 2.285-.4 2.361-.431 2.285-.352 2.361-.527 2.361-.48 2.285-.304 2.36-.431 2.286-.368 2.36-.447 2.362-.464 2.132-.48 2.361-.735 2.285-.56 2.361-.623 2.285-.543 2.36-.496 2.362-.67 2.285-.353 2.36-.815 2.286-.511 2.36-.528 2.362-.56 2.132-.495 2.361-.623 2.285-.464 2.36-.751 2.286-.687 2.36-.672 2.362-.607 2.285-.592 2.36-2.445 2.285-1.567 2.361-1.31 2.361-1.919 2.133-1.342 2.36-.975 2.286-.96 2.36-.639 2.286-.671 2.36-.847 2.362-.927 2.284-.88 2.361-1.007 2.285-1.087 2.361-.847 2.361-.703 2.209-.592 2.36-.943 2.286-.847 2.36-1.055 2.286-.767 2.36-.623 2.362-.576 2.284-.88 2.361-.894 2.285-.656 2.361-.799 2.361-.767 2.133-.767 2.36-.752 2.286-.83 2.36-.848 2.285-.623 2.361-.816 2.361-.671 2.285-.767 2.361-.608 2.285-.623 2.361-.703 2.361-.975" clip-path="url(#pae70dd030e)" style="fill:none;stroke:#2ca02c;stroke-width:1.5;stroke-linecap:square" id="line2d_28"/><g style="fill:#1f77b4" transform="matrix(.14 0 0 -.14 465.907 40.866)" id="text_18"><defs><path id="DejaVuSans-6f" d="M1959 3097q-462 0-731-361t-269-989q0-628 267-989 268-361 733-361 460 0 728 362 269 363 269 988 0 622-269 986-268 364-728 364zm0 487q750 0 1178-488 429-487 429-1349 0-859-429-1349Q2709-91 1959-91q-753 0-1180 489-426 490-426 1349 0 862 426 1349 427 488 1180 488z" transform="scale(.01563)"/><path id="DejaVuSans-6d" d="M3328 2828q216 388 516 572t706 184q547 0 844-383 297-382 297-1088V0h-578v2094q0 503-179 746-178 244-543 244-447 0-707-297-259-296-259-809V0h-578v2094q0 506-178 748t-550 242q-441 0-701-298-259-298-259-808V0H581v3500h578v-544q197 322 472 475t653 153q382 0 649-194 267-193 395-562z" transform="scale(.01563)"/><path id="DejaVuSans-6c" d="M603 4863h575V0H603v4863z" transform="scale(.01563)"/><path id="DejaVuSans-2d" d="M313 2009h1684v-512H313v512z" transform="scale(.01563)"/><path id="DejaVuSans-6e" d="M3513 2113V0h-575v2094q0 497-194 743-194 247-581 247-466 0-735-297-269-296-269-809V0H581v3500h578v-544q207 316 486 472 280 156 646 156 603 0 912-373 310-373 310-1098z" transform="scale(.01563)"/><path id="DejaVuSans-67" d="M2906 1791q0 625-258 968-257 344-723 344-462 0-720-344-258-343-258-968 0-622 258-966t720-344q466 0 723 344 258 344 258 966zm575-1357q0-893-397-1329-396-436-1215-436-303 0-572 45t-522 139v559q253-137 500-202 247-66 503-66 566 0 847 295t281 892v285q-178-310-456-463T1784 0Q1141 0 747 490 353 981 353 1791q0 812 394 1302 394 491 1037 491 388 0 666-153t456-462v531h575V434z" transform="scale(.01563)"/><path id="DejaVuSans-2f" d="M1625 4666h531L531-594H0l1625 5260z" transform="scale(.01563)"/></defs><use xlink:href="#DejaVuSans-74"/><use xlink:href="#DejaVuSans-6f" x="39.209"/><use xlink:href="#DejaVuSans-6d" x="100.391"/><use xlink:href="#DejaVuSans-6c" x="197.803"/><use xlink:href="#DejaVuSans-2d" x="225.586"/><use xlink:href="#DejaVuSans-6c" x="261.67"/><use xlink:href="#DejaVuSans-61" x="289.453"/><use xlink:href="#DejaVuSans-6e" x="350.732"/><use xlink:href="#DejaVuSans-67" x="414.111"/><use xlink:href="#DejaVuSans-2f" x="477.588"/><use xlink:href="#DejaVuSans-74" x="511.279"/><use xlink:href="#DejaVuSans-6f" x="550.488"/><use xlink:href="#DejaVuSans-6d" x="611.67"/><use xlink:href="#DejaVuSans-6c" x="709.082"/></g><g style="fill:#ff7f0e" transform="matrix(.14 0 0 -.14 465.907 228.653)" id="text_19"><defs><path id="DejaVuSans-6a" d="M603 3500h575V-63q0-668-255-968-254-300-820-300h-219v487H38q328 0 446 152Q603-541 603-63v3563zm0 1363h575v-729H603v729z" transform="scale(.01563)"/><path id="DejaVuSans-35" d="M691 4666h2478v-532H1269V2991q137 47 274 70 138 23 276 23 781 0 1237-428 457-428 457-1159 0-753-469-1171Q2575-91 1722-91q-294 0-599 50Q819 9 494 109v635q281-153 581-228t634-75q541 0 856 284 316 284 316 772 0 487-316 771-315 285-856 285-253 0-505-56-251-56-513-175v2344z" transform="scale(.01563)"/></defs><use xlink:href="#DejaVuSans-6a"/><use xlink:href="#DejaVuSans-73" x="27.783"/><use xlink:href="#DejaVuSans-6f" x="79.883"/><use xlink:href="#DejaVuSans-6e" x="141.064"/><use xlink:href="#DejaVuSans-35" x="204.443"/><use xlink:href="#DejaVuSans-2f" x="268.066"/><use xlink:href="#DejaVuSans-6a" x="301.758"/><use xlink:href="#DejaVuSans-73" x="329.541"/><use xlink:href="#DejaVuSans-6f" x="381.641"/><use xlink:href="#DejaVuSans-6e" x="442.822"/><use xlink:href="#DejaVuSans-35" x="506.201"/></g><g style="fill:#2ca02c" transform="matrix(.14 0 0 -.14 465.907 245.613)" id="text_20"><defs><path id="DejaVuSans-68" d="M3513 2113V0h-575v2094q0 497-194 743-194 247-581 247-466 0-735-297-269-296-269-809V0H581v4863h578V2956q207 316 486 472 280 156 646 156 603 0 912-373 310-373 310-1098z" transform="scale(.01563)"/><path id="DejaVuSans-63" d="M3122 3366v-538q-244 135-489 202t-495 67q-560 0-870-355-309-354-309-995t309-996q310-354 870-354 250 0 495 67t489 202V134Q2881 22 2623-34q-257-57-548-57-791 0-1257 497-465 497-465 1341 0 856 470 1346 471 491 1290 491 265 0 518-55 253-54 491-163z" transform="scale(.01563)"/><path id="DejaVuSans-70" d="M1159 525v-1856H581v4831h578v-531q182 312 458 463 277 152 661 152 638 0 1036-506 399-506 399-1331T3314 415Q2916-91 2278-91q-384 0-661 152-276 152-458 464zm1957 1222q0 634-261 995t-717 361q-457 0-718-361t-261-995q0-634 261-995t718-361q456 0 717 361t261 995z" transform="scale(.01563)"/></defs><use xlink:href="#DejaVuSans-68"/><use xlink:href="#DejaVuSans-61" x="63.379"/><use xlink:href="#DejaVuSans-73" x="124.658"/><use xlink:href="#DejaVuSans-68" x="176.758"/><use xlink:href="#DejaVuSans-69" x="240.137"/><use xlink:href="#DejaVuSans-63" x="267.92"/><use xlink:href="#DejaVuSans-6f" x="322.9"/><use xlink:href="#DejaVuSans-72" x="384.082"/><use xlink:href="#DejaVuSans-70" x="425.195"/><use xlink:href="#DejaVuSans-2f" x="488.672"/><use xlink:href="#DejaVuSans-68" x="522.363"/><use xlink:href="#DejaVuSans-63" x="585.742"/><use xlink:href="#DejaVuSans-6c" x="640.723"/></g><g style="fill:#d62728" transform="matrix(.14 0 0 -.14 465.907 269.43)" id="text_21"><use xlink:href="#DejaVuSans-68"/><use xlink:href="#DejaVuSans-6a" x="63.379"/><use xlink:href="#DejaVuSans-73" x="91.162"/><use xlink:href="#DejaVuSans-6f" x="143.262"/><use xlink:href="#DejaVuSans-6e" x="204.443"/><use xlink:href="#DejaVuSans-2f" x="267.822"/><use xlink:href="#DejaVuSans-68" x="301.514"/><use xlink:href="#DejaVuSans-6a" x="364.893"/><use xlink:href="#DejaVuSans-73" x="392.676"/><use xlink:href="#DejaVuSans-6f" x="444.775"/><use xlink:href="#DejaVuSans-6e" x="505.957"/></g><g style="fill:#9467bd" transform="matrix(.14 0 0 -.14 465.907 304.628)" id="text_22"><defs><path id="DejaVuSans-79" d="M2059-325q-243-625-475-815-231-191-618-191H506v481h338q237 0 368 113 132 112 291 531l103 262L191 3500h609L1894 763l1094 2737h609L2059-325z" transform="scale(.01563)"/><path id="DejaVuSans-65" d="M3597 1894v-281H953q38-594 358-905t892-311q331 0 642 81t618 244V178Q3153 47 2828-22t-659-69q-838 0-1327 487-489 488-489 1320 0 859 464 1363 464 505 1252 505 706 0 1117-455 411-454 411-1235zm-575 169q-6 471-264 752-258 282-683 282-481 0-770-272t-333-766l2050 4z" transform="scale(.01563)"/></defs><use xlink:href="#DejaVuSans-79"/><use xlink:href="#DejaVuSans-61" x="59.18"/><use xlink:href="#DejaVuSans-6d" x="120.459"/><use xlink:href="#DejaVuSans-6c" x="217.871"/><use xlink:href="#DejaVuSans-2f" x="245.654"/><use xlink:href="#DejaVuSans-79" x="279.346"/><use xlink:href="#DejaVuSans-61" x="338.525"/><use xlink:href="#DejaVuSans-6d" x="399.805"/><use xlink:href="#DejaVuSans-6c" x="497.217"/><use xlink:href="#DejaVuSans-2d" x="525"/><use xlink:href="#DejaVuSans-73" x="561.084"/><use xlink:href="#DejaVuSans-70" x="613.184"/><use xlink:href="#DejaVuSans-65" x="676.66"/><use xlink:href="#DejaVuSans-63" x="738.184"/></g><g style="fill:#b0b0b0" transform="matrix(.09716 0 0 -.09716 98.073 337.15)" id="text_23"><defs><path id="DejaVuSans-40" d="M2381 1678q0-447 222-702 222-254 610-254 384 0 604 256 221 256 221 700 0 438-225 695-225 258-607 258-378 0-602-256-223-256-223-697zm1703-934q-187-241-429-355t-564-114q-538 0-874 389t-336 1014q0 625 337 1015 338 391 873 391 322 0 565-117 244-117 428-354v409h447V722q457 69 714 417 258 349 258 902 0 334-99 628-98 294-298 544-325 409-792 626t-1017 217q-384 0-738-102-353-101-653-301-490-319-767-836-276-517-276-1120 0-497 179-932 180-434 521-765 328-325 759-495 431-171 922-171 403 0 792 136t714 389l281-347q-390-303-851-464t-936-161q-578 0-1091 205-512 205-912 595Q841 78 631 592q-209 514-209 1105 0 569 212 1084 213 516 607 907 403 396 931 607t1119 211q662 0 1229-272 568-271 952-771 234-307 357-666 124-359 124-744 0-822-497-1297T4084 263v481z" transform="scale(.01563)"/><path id="DejaVuSans-64" d="M2906 2969v1894h575V0h-575v525q-181-312-458-464-276-152-664-152-634 0-1033 506-398 507-398 1332t398 1331q399 506 1033 506 388 0 664-152 277-151 458-463zM947 1747q0-634 261-995t717-361q456 0 718 361 263 361 263 995t-263 995q-262 361-718 361t-717-361q-261-361-261-995z" transform="scale(.01563)"/><path id="DejaVuSans-7c" d="M1344 4891v-6400H813v6400h531z" transform="scale(.01563)"/><path id="DejaVuSans-4e" d="M628 4666h850L3547 763v3903h612V0h-850L1241 3903V0H628v4666z" transform="scale(.01563)"/><path id="DejaVuSans-53" d="M3425 4513v-616q-359 172-678 256-319 85-616 85-515 0-795-200t-280-569q0-310 186-468 186-157 705-254l381-78q706-135 1042-474t336-907q0-679-455-1029Q2797-91 1919-91q-331 0-705 75-373 75-773 222v650q384-215 753-325 369-109 725-109 540 0 834 212 294 213 294 607 0 343-211 537t-692 291l-385 75q-706 140-1022 440-315 300-315 835 0 619 436 975t1201 356q329 0 669-60 341-59 697-177z" transform="scale(.01563)"/><path id="DejaVuSans-f6" d="M1959 3097q-462 0-731-361t-269-989q0-628 267-989 268-361 733-361 460 0 728 362 269 363 269 988 0 622-269 986-268 364-728 364zm0 487q750 0 1178-488 429-487 429-1349 0-859-429-1349Q2709-91 1959-91q-753 0-1180 489-426 490-426 1349 0 862 426 1349 427 488 1180 488zm295 1266h634v-631h-634v631zm-1222 0h634v-631h-634v631z" transform="scale(.01563)"/><path id="DejaVuSans-43" d="M4122 4306v-665q-319 297-680 443-361 147-767 147-800 0-1225-489t-425-1414q0-922 425-1411t1225-489q406 0 767 147t680 444V359q-331-225-702-338-370-112-782-112-1060 0-1670 648-609 649-609 1771 0 1125 609 1773 610 649 1670 649 418 0 788-111 371-111 696-333z" transform="scale(.01563)"/><path id="DejaVuSans-42" d="M1259 2228V519h1013q509 0 754 211 246 211 246 645 0 438-246 645-245 208-754 208H1259zm0 1919V2741h935q462 0 688 173 227 174 227 530 0 353-227 528-226 175-688 175h-935zm-631 519h1613q722 0 1112-300 391-300 391-853 0-429-200-682t-588-315q466-100 724-418 258-317 258-792 0-625-425-966Q3088 0 2303 0H628v4666z" transform="scale(.01563)"/><path id="DejaVuSans-59" d="M-13 4666h679l1293-1919 1285 1919h678L2272 2222V0h-634v2222L-13 4666z" transform="scale(.01563)"/></defs><use xlink:href="#DejaVuSans-40"/><use xlink:href="#DejaVuSans-6e" x="100"/><use xlink:href="#DejaVuSans-73" x="163.379"/><use xlink:href="#DejaVuSans-63" x="215.479"/><use xlink:href="#DejaVuSans-68" x="270.459"/><use xlink:href="#DejaVuSans-6c" x="333.838"/><use xlink:href="#DejaVuSans-6f" x="361.621"/><use xlink:href="#DejaVuSans-65" x="422.803"/><use xlink:href="#DejaVuSans-20" x="484.326"/><use xlink:href="#DejaVuSans-2f" x="516.113"/><use xlink:href="#DejaVuSans-20" x="549.805"/><use xlink:href="#DejaVuSans-67" x="581.592"/><use xlink:href="#DejaVuSans-68" x="645.068"/><use xlink:href="#DejaVuSans-2d" x="708.447"/><use xlink:href="#DejaVuSans-74" x="744.531"/><use xlink:href="#DejaVuSans-72" x="783.74"/><use xlink:href="#DejaVuSans-65" x="822.604"/><use xlink:href="#DejaVuSans-6e" x="884.127"/><use xlink:href="#DejaVuSans-64" x="947.506"/><use xlink:href="#DejaVuSans-73" x="1010.982"/><use xlink:href="#DejaVuSans-20" x="1063.082"/><use xlink:href="#DejaVuSans-7c" x="1094.869"/><use xlink:href="#DejaVuSans-20" x="1128.561"/><use xlink:href="#DejaVuSans-4e" x="1160.348"/><use xlink:href="#DejaVuSans-69" x="1235.152"/><use xlink:href="#DejaVuSans-63" x="1262.936"/><use xlink:href="#DejaVuSans-6f" x="1317.916"/><use xlink:href="#DejaVuSans-20" x="1379.098"/><use xlink:href="#DejaVuSans-53" x="1410.885"/><use xlink:href="#DejaVuSans-63" x="1474.361"/><use xlink:href="#DejaVuSans-68" x="1529.342"/><use xlink:href="#DejaVuSans-6c" x="1592.721"/><use xlink:href="#DejaVuSans-f6" x="1620.504"/><use xlink:href="#DejaVuSans-6d" x="1681.686"/><use xlink:href="#DejaVuSans-65" x="1779.098"/><use xlink:href="#DejaVuSans-72" x="1840.621"/><use xlink:href="#DejaVuSans-20" x="1881.734"/><use xlink:href="#DejaVuSans-7c" x="1913.521"/><use xlink:href="#DejaVuSans-20" x="1947.213"/><use xlink:href="#DejaVuSans-43" x="1979"/><use xlink:href="#DejaVuSans-43" x="2048.824"/><use xlink:href="#DejaVuSans-20" x="2118.648"/><use xlink:href="#DejaVuSans-42" x="2150.436"/><use xlink:href="#DejaVuSans-59" x="2213.539"/></g><path d="m183.83 303.115 2.362-3.9 2.285-.017H200.129l2.361-.016h2.361l2.133-.064 2.36-.048h2.286l2.36-.127 2.285-.096 2.361-.032 2.361-.128 2.285-.064 2.361-.304 2.285-.048 2.361-.128 2.361-.191 2.133-.16 2.36-3.277 2.285-.224 2.361-.112 2.285-.256 2.361-.191 2.361-.16 2.285-.144 2.361-.176 2.285-.192 2.36-.607 2.362-.16 2.132-.208 2.361-.224 2.285-.303 2.361-.288 2.285-.224 2.361-.096 2.361-.192 2.285-.191 2.36-.352 2.286-.272 2.36-.272 2.362-.415 2.208-.448 2.361-.32 2.285-1.294 2.361-.592 2.285-.303 2.361-.752 2.361-.415 2.285-.336 2.36-.304 2.286-.815 2.36-.943 2.362-.815 2.132-1.055 2.361-.687 2.285-.592 2.361-.687 2.285-.688 2.36-.559 2.362-.735 2.285-1.327 2.36-.64 2.286-2.813 2.36-1.023 2.362-1.694 2.132-.847 2.361-.895 2.285-1.151 2.36-1.12 2.286-1.374 2.36-1.454 2.362-1.023 2.285-.832 2.36-.83 2.285-.832 2.361-.607 2.361-.752 2.133-.623 2.36-.991 2.286-1.39 2.36-1.248 2.286-.463 2.36-1.04 2.362-.798 2.284-1.135 2.361-.576 2.285-.591 2.361-.752 2.361-.783 2.209-.735 2.36-.767 2.286-.768 2.36-.863 2.286-1.039 2.36-.831 2.362-1.055 2.284-1.982 2.361-.735 2.285-.832 2.361-1.246 2.361-.927 2.133-1.12 2.36-.895 2.286-.655 2.36-.607 2.285-.975 2.361-.72 2.361-.91 2.285-1.455 2.361-.816 2.285-1.039 2.361-.655 2.361-.895" clip-path="url(#pae70dd030e)" style="fill:none;stroke:#ff7f0e;stroke-width:1.5;stroke-linecap:square" id="line2d_29"/><path d="m204.851 303.115 2.133-12.692 2.36-3.165 2.286-1.023 2.36-.831 2.285-.656 2.361-.64 2.361-.687 2.285-.815 2.361-.575 2.285-.512 2.361-.591 2.361-.8 2.133-.783 2.36-.863 2.285-1.007 2.361-.543 2.285-1.215 2.361-1.183 2.361-1.07 2.285-1.328 2.361-1.326 2.285-1.807 2.36-2.046 2.362-1.87 2.132-1.662 2.361-1.567 2.285-1.614 2.361-1.759 2.285-1.614 2.361-1.519 2.361-1.326 2.285-1.63 2.36-1.759 2.286-1.694 2.36-1.583 2.362-1.582 2.208-1.47 2.361-1.903 2.285-1.742 2.361-2.574 2.285-1.742 2.361-1.918 2.361-2.094 2.285-1.887 2.36-1.966 2.286-1.966 2.36-2.174 2.362-2.126 2.132-2.206 2.361-2.253 2.285-2.27 2.361-1.902 2.285-1.839 2.36-1.854 2.362-1.982 2.285-1.982 2.36-2.062 2.286-2.446 2.36-2.142 2.362-2.94 2.132-2.494 2.361-3.005 2.285-2.798 2.36-3.069 2.286-8.456 2.36-9.638 2.362-4.236 2.285-3.15 2.36-2.813 2.285-3.228 2.361-3.421 2.361-3.405 2.133-2.973 2.36-3.549 2.286-4.939 2.36-3.964 2.286-3.74 2.36-3.725 2.362-4.508 2.284-3.356 2.361-3.101 2.285-3.31 2.361-2.685 2.361-2.94 2.209-3.022 2.36-3.229 2.286-4.012 2.36-3.213 2.286-3.277 2.36-2.477 2.362-2.734 2.284-3.18 2.361-2.782 2.285-2.094 2.361-2.446 2.361-2.637 2.133-2.653 2.36-2.638 2.286-2.765 2.36-2.574 2.285-2.27 2.361-2.157 2.361-2.766 2.285-2.414 2.361-2.078 2.285-3.34 2.361-3.341 2.361-2.733" clip-path="url(#pae70dd030e)" style="fill:none;stroke:#1f77b4;stroke-width:1.5;stroke-linecap:square" id="line2d_30"/></g></g><defs><clipPath id="pae70dd030e"><path d="M98.073 37.003h357.12v266.112H98.073z"/></clipPath></defs></svg>