<svg xmlns:xlink="http://www.w3.org/1999/xlink" width="848.699" height="453.316" viewBox="0 0 636.524 339.987" xmlns="http://www.w3.org/2000/svg"><defs><style>*{stroke-linejoin:round;stroke-linecap:butt}</style></defs><g id="figure_1"><path d="M0 339.987h636.524V0H0v339.987z" style="fill:none" id="patch_1"/><g id="axes_1"><path d="M93.468 294.555h357.12V28.443H93.468v266.112z" style="fill:none" id="patch_2"/><g id="matplotlib.axis_1"><g id="xtick_1"><g id="line2d_1"><defs><path id="m428103d26f" d="M0 0v3.5" style="stroke:#b0b0b0;stroke-width:.4"/></defs><use xlink:href="#m428103d26f" x="93.468" y="294.555" style="fill:#b0b0b0;stroke:#b0b0b0;stroke-width:.4"/></g><g style="fill:#b0b0b0" transform="matrix(.14 0 0 -.14 77.15 311.738)" id="text_1"><defs><path id="Inter-Regular-32" d="M482 0h2936v500H1255v36l1045 1119c800 856 1036 1256 1036 1772 0 718-581 1291-1400 1291-815 0-1436-554-1436-1373h536c0 530 344 882 882 882 505 0 891-309 891-800 0-429-252-747-791-1336L482 409V0z" transform="scale(.01563)"/><path id="Inter-Regular-30" d="M2000-64c1027 0 1618 871 1618 2391 0 1509-600 2391-1618 2391S382 3836 382 2327C382 807 973-64 2000-64zm0 500c-677 0-1073 680-1073 1891 0 1209 400 1900 1073 1900s1073-691 1073-1900c0-1211-396-1891-1073-1891z" transform="scale(.01563)"/><path id="Inter-Regular-31" d="M2118 4655h-563L391 3882v-573l1136 755h28V0h563v4655z" transform="scale(.01563)"/><path id="Inter-Regular-33" d="M2055-64c902 0 1572 566 1572 1328 0 591-350 1020-936 1118v36c470 143 764 530 764 1055 0 659-521 1245-1382 1245-805 0-1473-495-1500-1227h545c21 464 462 736 946 736 513 0 845-311 845-782 0-490-384-809-936-809h-373v-500h373c707 0 1100-359 1100-872 0-494-430-828-1027-828-539 0-966 278-1000 728H473C507 432 1152-64 2055-64z" transform="scale(.01563)"/></defs><use xlink:href="#Inter-Regular-32"/><use xlink:href="#Inter-Regular-30" x="60.511"/><use xlink:href="#Inter-Regular-31" x="123.011"/><use xlink:href="#Inter-Regular-33" x="169.46"/></g></g><g id="xtick_2"><use xlink:href="#m428103d26f" x="131.383" y="294.555" style="fill:#b0b0b0;stroke:#b0b0b0;stroke-width:.4" id="line2d_2"/><g style="fill:#b0b0b0" transform="matrix(.14 0 0 -.14 115.026 311.738)" id="text_2"><defs><path id="Inter-Regular-34" d="M373 955h2191V0h536v955h636v500h-636v3200h-682L373 1418V955zm2191 500H982v36l1545 2445h37V1455z" transform="scale(.01563)"/></defs><use xlink:href="#Inter-Regular-32"/><use xlink:href="#Inter-Regular-30" x="60.511"/><use xlink:href="#Inter-Regular-31" x="123.011"/><use xlink:href="#Inter-Regular-34" x="169.46"/></g></g><g id="xtick_3"><use xlink:href="#m428103d26f" x="169.297" y="294.555" style="fill:#b0b0b0;stroke:#b0b0b0;stroke-width:.4" id="line2d_3"/><g style="fill:#b0b0b0" transform="matrix(.14 0 0 -.14 153.178 311.738)" id="text_3"><defs><path id="Inter-Regular-35" d="M1936-64c887 0 1537 655 1537 1546 0 902-627 1563-1482 1563-314 0-618-111-809-263h-27l163 1373h1946v500H846L564 2364l527-64c193 139 523 239 809 236 593-4 1027-454 1027-1063 0-598-418-1037-991-1037-477 0-856 307-900 728H491C525 455 1136-64 1936-64z" transform="scale(.01563)"/></defs><use xlink:href="#Inter-Regular-32"/><use xlink:href="#Inter-Regular-30" x="60.511"/><use xlink:href="#Inter-Regular-31" x="123.011"/><use xlink:href="#Inter-Regular-35" x="169.46"/></g></g><g id="xtick_4"><use xlink:href="#m428103d26f" x="207.211" y="294.555" style="fill:#b0b0b0;stroke:#b0b0b0;stroke-width:.4" id="line2d_4"/><g style="fill:#b0b0b0" transform="matrix(.14 0 0 -.14 190.983 311.738)" id="text_4"><defs><path id="Inter-Regular-36" d="M2027-64c941-11 1555 698 1555 1564 0 900-666 1545-1464 1545-479 0-891-234-1145-618h-37c3 1134 444 1791 1164 1791 491 0 786-309 891-727h555c-114 723-664 1227-1446 1227-1048 0-1691-927-1691-2573C409 425 1264-55 2027-64zm0 500c-584 0-1011 498-1009 1055 3 557 450 1054 1028 1054 570 0 990-468 990-1045 0-591-438-1064-1009-1064z" transform="scale(.01563)"/></defs><use xlink:href="#Inter-Regular-32"/><use xlink:href="#Inter-Regular-30" x="60.511"/><use xlink:href="#Inter-Regular-31" x="123.011"/><use xlink:href="#Inter-Regular-36" x="169.46"/></g></g><g id="xtick_5"><use xlink:href="#m428103d26f" x="245.229" y="294.555" style="fill:#b0b0b0;stroke:#b0b0b0;stroke-width:.4" id="line2d_5"/><g style="fill:#b0b0b0" transform="matrix(.14 0 0 -.14 229.368 311.738)" id="text_5"><defs><path id="Inter-Regular-37" d="M627 0h591l2073 4127v528H309v-500h2400v-37L627 0z" transform="scale(.01563)"/></defs><use xlink:href="#Inter-Regular-32"/><use xlink:href="#Inter-Regular-30" x="60.511"/><use xlink:href="#Inter-Regular-31" x="123.011"/><use xlink:href="#Inter-Regular-37" x="169.46"/></g></g><g id="xtick_6"><use xlink:href="#m428103d26f" x="283.143" y="294.555" style="fill:#b0b0b0;stroke:#b0b0b0;stroke-width:.4" id="line2d_6"/><g style="fill:#b0b0b0" transform="matrix(.14 0 0 -.14 266.964 311.738)" id="text_6"><defs><path id="Inter-Regular-38" d="M1973-64c929 0 1577 544 1582 1300-5 589-398 1089-900 1182v27c436 114 722 541 727 1037-5 709-600 1236-1409 1236-818 0-1414-527-1409-1236-5-496 282-923 727-1037v-27c-511-93-905-593-900-1182C386 480 1034-64 1973-64zm0 500c-639 0-1032 328-1027 828-5 525 429 900 1027 900 588 0 1023-375 1027-900-4-500-398-828-1027-828zm0 2209c-509 0-868 319-864 800-4 473 341 782 864 782 513 0 859-309 863-782-4-481-363-800-863-800z" transform="scale(.01563)"/></defs><use xlink:href="#Inter-Regular-32"/><use xlink:href="#Inter-Regular-30" x="60.511"/><use xlink:href="#Inter-Regular-31" x="123.011"/><use xlink:href="#Inter-Regular-38" x="169.46"/></g></g><g id="xtick_7"><use xlink:href="#m428103d26f" x="321.057" y="294.555" style="fill:#b0b0b0;stroke:#b0b0b0;stroke-width:.4" id="line2d_7"/><g style="fill:#b0b0b0" transform="matrix(.14 0 0 -.14 304.83 311.738)" id="text_7"><defs><path id="Inter-Regular-39" d="M1964 4718c-946 12-1555-700-1555-1554 0-900 664-1546 1464-1546 482 0 891 237 1145 618h37c0-1145-446-1800-1164-1800-491 0-791 309-891 737H446C555 436 1109-64 1891-64c1045 0 1691 928 1691 2582 0 1709-855 2191-1618 2200zm0-500c582 0 1009-500 1009-1045 0-555-455-1055-1027-1055-573 0-991 464-991 1046 0 581 436 1054 1009 1054z" transform="scale(.01563)"/></defs><use xlink:href="#Inter-Regular-32"/><use xlink:href="#Inter-Regular-30" x="60.511"/><use xlink:href="#Inter-Regular-31" x="123.011"/><use xlink:href="#Inter-Regular-39" x="169.46"/></g></g><g id="xtick_8"><use xlink:href="#m428103d26f" x="358.971" y="294.555" style="fill:#b0b0b0;stroke:#b0b0b0;stroke-width:.4" id="line2d_8"/><g style="fill:#b0b0b0" transform="matrix(.14 0 0 -.14 341.75 311.738)" id="text_8"><use xlink:href="#Inter-Regular-32"/><use xlink:href="#Inter-Regular-30" x="60.511"/><use xlink:href="#Inter-Regular-32" x="123.011"/><use xlink:href="#Inter-Regular-30" x="183.523"/></g></g><g id="xtick_9"><use xlink:href="#m428103d26f" x="396.989" y="294.555" style="fill:#b0b0b0;stroke:#b0b0b0;stroke-width:.4" id="line2d_9"/><g style="fill:#b0b0b0" transform="matrix(.14 0 0 -.14 380.89 311.738)" id="text_9"><use xlink:href="#Inter-Regular-32"/><use xlink:href="#Inter-Regular-30" x="60.511"/><use xlink:href="#Inter-Regular-32" x="123.011"/><use xlink:href="#Inter-Regular-31" x="183.523"/></g></g><g id="xtick_10"><use xlink:href="#m428103d26f" x="434.903" y="294.555" style="fill:#b0b0b0;stroke:#b0b0b0;stroke-width:.4" id="line2d_10"/><g style="fill:#b0b0b0" transform="matrix(.14 0 0 -.14 417.82 311.738)" id="text_10"><use xlink:href="#Inter-Regular-32"/><use xlink:href="#Inter-Regular-30" x="60.511"/><use xlink:href="#Inter-Regular-32" x="123.011"/><use xlink:href="#Inter-Regular-32" x="183.523"/></g></g></g><g id="matplotlib.axis_2"><g id="ytick_1"><path d="M93.468 294.555h357.12" clip-path="url(#pab89c62117)" style="fill:none;stroke:#b0b0b0;stroke-width:.3;stroke-linecap:square" id="line2d_11"/><g id="line2d_12"><defs><path id="mbcd42857cb" d="M0 0h-3.5" style="stroke:#b0b0b0;stroke-width:.3"/></defs><use xlink:href="#mbcd42857cb" x="93.468" y="294.555" style="fill:#b0b0b0;stroke:#b0b0b0;stroke-width:.3"/></g><use xlink:href="#Inter-Regular-30" style="fill:#b0b0b0" transform="matrix(.14 0 0 -.14 77.718 299.646)" id="text_11"/></g><g id="ytick_2"><path d="M93.468 259.17h357.12" clip-path="url(#pab89c62117)" style="fill:none;stroke:#b0b0b0;stroke-width:.3;stroke-linecap:square" id="line2d_13"/><use xlink:href="#mbcd42857cb" x="93.468" y="259.17" style="fill:#b0b0b0;stroke:#b0b0b0;stroke-width:.3" id="line2d_14"/><g style="fill:#b0b0b0" transform="matrix(.14 0 0 -.14 51.985 264.261)" id="text_12"><use xlink:href="#Inter-Regular-32"/><use xlink:href="#Inter-Regular-35" x="60.511"/><use xlink:href="#Inter-Regular-30" x="121.307"/><use xlink:href="#Inter-Regular-30" x="183.807"/></g></g><g id="ytick_3"><path d="M93.468 223.784h357.12" clip-path="url(#pab89c62117)" style="fill:none;stroke:#b0b0b0;stroke-width:.3;stroke-linecap:square" id="line2d_15"/><use xlink:href="#mbcd42857cb" x="93.468" y="223.784" style="fill:#b0b0b0;stroke:#b0b0b0;stroke-width:.3" id="line2d_16"/><g style="fill:#b0b0b0" transform="matrix(.14 0 0 -.14 51.707 228.876)" id="text_13"><use xlink:href="#Inter-Regular-35"/><use xlink:href="#Inter-Regular-30" x="60.795"/><use xlink:href="#Inter-Regular-30" x="123.295"/><use xlink:href="#Inter-Regular-30" x="185.796"/></g></g><g id="ytick_4"><path d="M93.468 188.399h357.12" clip-path="url(#pab89c62117)" style="fill:none;stroke:#b0b0b0;stroke-width:.3;stroke-linecap:square" id="line2d_17"/><use xlink:href="#mbcd42857cb" x="93.468" y="188.399" style="fill:#b0b0b0;stroke:#b0b0b0;stroke-width:.3" id="line2d_18"/><g style="fill:#b0b0b0" transform="matrix(.14 0 0 -.14 52.462 193.49)" id="text_14"><use xlink:href="#Inter-Regular-37"/><use xlink:href="#Inter-Regular-35" x="57.102"/><use xlink:href="#Inter-Regular-30" x="117.898"/><use xlink:href="#Inter-Regular-30" x="180.398"/></g></g><g id="ytick_5"><path d="M93.468 153.014h357.12" clip-path="url(#pab89c62117)" style="fill:none;stroke:#b0b0b0;stroke-width:.3;stroke-linecap:square" id="line2d_19"/><use xlink:href="#mbcd42857cb" x="93.468" y="153.014" style="fill:#b0b0b0;stroke:#b0b0b0;stroke-width:.3" id="line2d_20"/><g style="fill:#b0b0b0" transform="matrix(.14 0 0 -.14 44.965 158.105)" id="text_15"><use xlink:href="#Inter-Regular-31"/><use xlink:href="#Inter-Regular-30" x="46.449"/><use xlink:href="#Inter-Regular-30" x="108.949"/><use xlink:href="#Inter-Regular-30" x="171.449"/><use xlink:href="#Inter-Regular-30" x="233.949"/></g></g><g id="ytick_6"><path d="M93.468 117.628h357.12" clip-path="url(#pab89c62117)" style="fill:none;stroke:#b0b0b0;stroke-width:.3;stroke-linecap:square" id="line2d_21"/><use xlink:href="#mbcd42857cb" x="93.468" y="117.628" style="fill:#b0b0b0;stroke:#b0b0b0;stroke-width:.3" id="line2d_22"/><g style="fill:#b0b0b0" transform="matrix(.14 0 0 -.14 45.481 122.72)" id="text_16"><use xlink:href="#Inter-Regular-31"/><use xlink:href="#Inter-Regular-32" x="46.449"/><use xlink:href="#Inter-Regular-35" x="106.96"/><use xlink:href="#Inter-Regular-30" x="167.756"/><use xlink:href="#Inter-Regular-30" x="230.256"/></g></g><g id="ytick_7"><path d="M93.468 82.243h357.12" clip-path="url(#pab89c62117)" style="fill:none;stroke:#b0b0b0;stroke-width:.3;stroke-linecap:square" id="line2d_23"/><use xlink:href="#mbcd42857cb" x="93.468" y="82.243" style="fill:#b0b0b0;stroke:#b0b0b0;stroke-width:.3" id="line2d_24"/><g style="fill:#b0b0b0" transform="matrix(.14 0 0 -.14 45.203 87.334)" id="text_17"><use xlink:href="#Inter-Regular-31"/><use xlink:href="#Inter-Regular-35" x="46.449"/><use xlink:href="#Inter-Regular-30" x="107.244"/><use xlink:href="#Inter-Regular-30" x="169.744"/><use xlink:href="#Inter-Regular-30" x="232.244"/></g></g><g id="ytick_8"><path d="M93.468 46.857h357.12" clip-path="url(#pab89c62117)" style="fill:none;stroke:#b0b0b0;stroke-width:.3;stroke-linecap:square" id="line2d_25"/><use xlink:href="#mbcd42857cb" x="93.468" y="46.857" style="fill:#b0b0b0;stroke:#b0b0b0;stroke-width:.3" id="line2d_26"/><g style="fill:#b0b0b0" transform="matrix(.14 0 0 -.14 45.958 51.949)" id="text_18"><use xlink:href="#Inter-Regular-31"/><use xlink:href="#Inter-Regular-37" x="46.449"/><use xlink:href="#Inter-Regular-35" x="103.551"/><use xlink:href="#Inter-Regular-30" x="164.347"/><use xlink:href="#Inter-Regular-30" x="226.847"/></g></g><g style="fill:#b0b0b0" transform="matrix(.14 0 0 -.14 7.2 17.383)" id="text_19"><defs><path id="Inter-Regular-47" d="M3746 3200h581c-172 900-927 1518-1909 1518-1193 0-2036-918-2036-2391C382 855 1218-64 2455-64c1109 0 1900 739 1900 1891v500H2582v-500h1227c-16-836-566-1363-1354-1363-864 0-1528 654-1528 1863s664 1864 1491 1864c673 0 1130-380 1328-991z" transform="scale(.01563)"/><path id="Inter-Regular-69" d="M491 0h536v3491H491V0zm273 4073c209 0 382 163 382 363s-173 364-382 364-382-164-382-364 173-363 382-363z" transform="scale(.01563)"/><path id="Inter-Regular-74" d="M2009 3491h-745v836H727v-836H200v-455h527V855c0-610 491-900 946-900 200 0 327 36 400 63l-109 482c-46-9-118-27-237-27-236 0-463 72-463 527v2036h745v455z" transform="scale(.01563)"/><path id="Inter-Regular-48" d="M564 0h563v2082h2482V0h564v4655h-564V2582H1127v2073H564V0z" transform="scale(.01563)"/><path id="Inter-Regular-75" d="M2691 1427c0-654-500-954-900-954-445 0-764 327-764 836v2182H491V1273C491 382 964-45 1618-45c528 0 873 281 1037 636h36V0h536v3491h-536V1427z" transform="scale(.01563)"/><path id="Inter-Regular-62" d="M564 0h518v536h64c118-191 345-609 1018-609 872 0 1482 700 1482 1809 0 1100-610 1800-1491 1800-682 0-891-418-1009-600h-46v1719H564V0zm527 1745c0 782 345 1310 1000 1310 682 0 1018-573 1018-1310 0-745-345-1336-1018-1336-645 0-1000 546-1000 1336z" transform="scale(.01563)"/><path id="Inter-Regular-73" d="M2964 2709c-168 496-546 827-1237 827-736 0-1281-418-1281-1009 0-482 286-804 927-954l582-137c352-81 518-250 518-491 0-300-318-545-818-545-439 0-714 189-809 564L336 836C461 243 950-73 1664-73c811 0 1363 443 1363 1046 0 486-304 793-927 945l-518 127c-414 103-600 241-600 510 0 300 318 518 745 518 469 0 662-259 755-500l482 136z" transform="scale(.01563)"/><path id="Inter-Regular-61" d="M1518-82c609 0 928 327 1037 555h27V0h536v2300c0 1109-845 1236-1291 1236-527 0-1127-181-1400-818l509-182c119 255 398 528 910 528 493 0 736-262 736-709v-19c0-259-264-236-900-318-648-84-1355-227-1355-1027C327 309 855-82 1518-82zm82 482c-427 0-736 191-736 564 0 409 372 536 791 591 227 27 836 90 927 200v-491c0-437-346-864-982-864z" transform="scale(.01563)"/><path id="Inter-Regular-72" d="M491 0h536v2209c0 473 373 818 882 818 143 0 291-27 327-36v545c-61 5-202 9-281 9-419 0-782-236-909-581h-37v527H491V0z" transform="scale(.01563)"/></defs><use xlink:href="#Inter-Regular-47"/><use xlink:href="#Inter-Regular-69" x="74.29"/><use xlink:href="#Inter-Regular-74" x="98.011"/><use xlink:href="#Inter-Regular-48" x="134.375"/><use xlink:href="#Inter-Regular-75" x="208.381"/><use xlink:href="#Inter-Regular-62" x="266.477"/><use xlink:href="#Inter-Regular-20" x="328.551"/><use xlink:href="#Inter-Regular-73" x="356.676"/><use xlink:href="#Inter-Regular-74" x="408.949"/><use xlink:href="#Inter-Regular-61" x="445.313"/><use xlink:href="#Inter-Regular-72" x="501.705"/><use xlink:href="#Inter-Regular-73" x="538.921"/></g></g><path d="m197.654 294.555 3.22-.028 3.117-.015h3.22l3.22-.014h3.012l3.22-.028 3.117-.042 3.22-.043 3.116-.028 3.22-.014 3.22-.015h3.116l3.22-.042h3.117l3.22-.042 3.22-.057 2.908-.085 3.22-.07 3.117-.043 3.22-.043 3.116-.07 3.22-.057 3.22-.113 3.117-.114 3.22-.042 3.116-.127 3.22-.199 3.22-.07 2.909-.029 3.22-.085 3.116-.056 3.22-.057 3.116-.127 3.22-.1 3.22-.028 3.117-.056 3.22-.1 3.116-.042 3.22-.07 3.22-.114 2.909-.141 3.22-.128 3.116-.085 3.22-.184 3.116-.042 3.22-.085 3.22-.07 3.117-.114 3.22-.127 3.116-.1 3.22-.155 3.22-.07 3.013-.114 3.22-.142 3.116-.07 3.22-.071 3.116-.085 3.22-.113 3.22-.071 3.117-.113 3.22-.142 3.116-.141 3.22-.184 3.22-.128 2.909-.127 3.22-.156 3.116-.07 3.22-.17 3.117-.142 3.22-.1 3.22-.127 3.116-.155 3.22-.24 3.116-.142 3.22-.1 3.22-.056 2.909-.113 3.22-.199 3.116-.155 3.22-.198" clip-path="url(#pab89c62117)" style="fill:none;stroke:#8c564b;stroke-width:1.5;stroke-linecap:square" id="line2d_27"/><path d="m223 294.555 3.116-.014 3.22-40.212 3.22-1.387 3.116-.524 3.22-.255 3.117-.58 3.22-.326 3.22-.226 2.908-.269 3.22-.269 3.117-.283 3.22-.198 3.116-.27 3.22-.155 3.22-.17 3.117-.155 3.22-.397 3.116-.099 3.22-.283 3.22-.141 2.909-.17 3.22-.1 3.116-.084 3.22-.128 3.116-.099 3.22-.141 3.22-.184 3.117-.057 3.22-.085 3.116-.028 3.22-.028 3.22-.1 2.909-.113 3.22-.085 3.116-.085 3.22-.099 3.116-.056 3.22-.071 3.22-.057 3.117-.07 3.22-.043 3.116-.028 3.22-.07h3.22l3.013-.058 3.22-.042 3.116-.042 3.22-.1 3.116-.014 3.22-.042h3.22l3.117-.043 3.22-.014 3.116-.042 3.22-.043 3.22-.127 2.909-.043 3.22-.014 3.116-.042 3.22-.085 3.117-.07 3.22-.015 3.22-.127 3.116-.043h3.22l3.116-.028 3.22-.043 3.22-.085 2.909-.056 3.22-.057 3.116-.028 3.22-.043" clip-path="url(#pab89c62117)" style="fill:none;stroke:#9467bd;stroke-width:1.5;stroke-linecap:square" id="line2d_28"/><path d="m162.96 294.555 3.117-.043 3.22-.056 3.22-.17 2.908-.142 3.22-.07 3.117-.184 3.22-.142 3.116-.085 3.22-.184 3.22-.283 3.116-.594 3.22-.906 3.117-.397 3.22-.254 3.22-.835 3.012-.298 3.22-.325 3.117-.255 3.22-.297 3.116-.27 3.22-.381 3.22-.765 3.116-.34 3.22-.41 3.117-.255 3.22-.382 3.22-.354 2.908-.325 3.22-.566 3.117-1.09 3.22-1.09 3.116-.623 3.22-.68 3.22-.594 3.117-.438 3.22-.538 3.116-.482 3.22-.608 3.22-.708 2.909-.41 3.22-.623 3.116-.637 3.22-.51 3.116-.51 3.22-.594 3.22-.453 3.117-.523 3.22-.835 3.116-1.048 3.22-.523 3.22-.708 2.909-.651 3.22-.694 3.116-.538 3.22-.552 3.116-.51 3.22-.565 3.22-.368 3.117-.552 3.22-.708 3.116-.552 3.22-1.076 3.22-.736 3.013-.637 3.22-.764 3.116-.694 3.22-.693 3.116-.623 3.22-.736 3.22-.977 3.117-.693 3.22-.991 3.116-.963 3.22-.82 3.22-1.133 2.909-.764 3.22-1.19 3.116-1.429 3.22-1.061 3.117-1.02 3.22-.721 3.22-1.118 3.116-1.034 3.22-.707 3.116-1.062 3.22-1.316 3.22-1.401 2.909-1.048 3.22-1.401 3.116-1.09 3.22-1.076" clip-path="url(#pab89c62117)" style="fill:none;stroke:#d62728;stroke-width:1.5;stroke-linecap:square" id="line2d_29"/><g style="fill:#1f77b4" transform="matrix(.14 0 0 -.14 461.302 32.341)" id="text_20"><defs><path id="Inter-Regular-6f" d="M1909-73c946 0 1582 718 1582 1800 0 1091-636 1809-1582 1809-945 0-1582-718-1582-1809C327 645 964-73 1909-73zm0 482c-718 0-1045 618-1045 1318s327 1328 1045 1328 1046-628 1046-1328S2627 409 1909 409z" transform="scale(.01563)"/><path id="Inter-Regular-70" d="M491-1309h536V536h46c118-191 345-609 1018-609 873 0 1482 700 1482 1809 0 1100-609 1800-1491 1800-682 0-891-418-1009-600h-64v555H491v-4800zm527 3054c0 782 346 1310 1000 1310 682 0 1018-573 1018-1310 0-745-345-1336-1018-1336-645 0-1000 546-1000 1336z" transform="scale(.01563)"/><path id="Inter-Regular-65" d="M1955-73c709 0 1227 355 1391 882l-519 146c-136-364-452-546-872-546-630 0-1064 407-1089 1155h2534v227c0 1300-773 1745-1500 1745-945 0-1573-745-1573-1818S946-73 1955-73zM866 2027c36 543 420 1028 1034 1028 582 0 955-437 955-1028H866z" transform="scale(.01563)"/><path id="Inter-Regular-6e" d="M1027 2100c0 609 378 955 891 955 498 0 800-325 800-873V0h537v2218c0 891-475 1318-1182 1318-527 0-855-236-1018-591h-46v546H491V0h536v2100z" transform="scale(.01563)"/><path id="Inter-Regular-6c" d="M1027 4655H491V0h536v4655z" transform="scale(.01563)"/><path id="Inter-Regular-2f" d="M2136 4873h-490L146-700h490l1500 5573z" transform="scale(.01563)"/></defs><use xlink:href="#Inter-Regular-6f"/><use xlink:href="#Inter-Regular-70" x="59.659"/><use xlink:href="#Inter-Regular-65" x="120.597"/><use xlink:href="#Inter-Regular-6e" x="178.835"/><use xlink:href="#Inter-Regular-73" x="237.358"/><use xlink:href="#Inter-Regular-73" x="289.631"/><use xlink:href="#Inter-Regular-6c" x="341.903"/><use xlink:href="#Inter-Regular-2f" x="365.625"/><use xlink:href="#Inter-Regular-6f" x="401.278"/><use xlink:href="#Inter-Regular-70" x="460.938"/><use xlink:href="#Inter-Regular-65" x="521.875"/><use xlink:href="#Inter-Regular-6e" x="580.114"/><use xlink:href="#Inter-Regular-73" x="638.636"/><use xlink:href="#Inter-Regular-73" x="690.909"/><use xlink:href="#Inter-Regular-6c" x="743.182"/></g><g style="fill:#ff7f0e" transform="matrix(.14 0 0 -.14 461.302 146.57)" id="text_21"><defs><path id="Inter-Regular-46" d="M564 0h563v2082h2019v500H1127v1573h2228v500H564V0z" transform="scale(.01563)"/><path id="Inter-Regular-53" d="M3109 3491h546c-25 702-673 1227-1573 1227-891 0-1591-518-1591-1300 0-627 455-1000 1182-1209l573-164c490-136 927-309 927-772 0-509-491-846-1137-846-554 0-1045 246-1090 773H364C418 436 1036-82 2036-82c1073 0 1682 591 1682 1346 0 872-827 1154-1309 1281l-473 128c-345 91-900 272-900 772 0 446 410 773 1028 773 563 0 991-268 1045-727z" transform="scale(.01563)"/><path id="Inter-Regular-67" d="M1900-1382c836 0 1509 382 1509 1282v3591h-518v-555h-55c-118 182-336 600-1018 600-882 0-1491-700-1491-1772C327 673 964 55 1809 55c682 0 900 400 1018 590h46V-64c0-581-409-845-973-845-634 0-857 334-1000 527L473-682c218-366 648-700 1427-700zm-18 1918c-673 0-1018 509-1018 1237 0 709 336 1282 1018 1282 654 0 1000-528 1000-1282 0-773-355-1237-1000-1237z" transform="scale(.01563)"/></defs><use xlink:href="#Inter-Regular-46"/><use xlink:href="#Inter-Regular-69" x="58.665"/><use xlink:href="#Inter-Regular-6c" x="82.386"/><use xlink:href="#Inter-Regular-6f" x="106.108"/><use xlink:href="#Inter-Regular-53" x="165.767"/><use xlink:href="#Inter-Regular-6f" x="229.545"/><use xlink:href="#Inter-Regular-74" x="289.205"/><use xlink:href="#Inter-Regular-74" x="325.568"/><use xlink:href="#Inter-Regular-69" x="361.932"/><use xlink:href="#Inter-Regular-6c" x="385.653"/><use xlink:href="#Inter-Regular-65" x="409.375"/><use xlink:href="#Inter-Regular-2f" x="467.614"/><use xlink:href="#Inter-Regular-61" x="503.267"/><use xlink:href="#Inter-Regular-67" x="559.659"/><use xlink:href="#Inter-Regular-65" x="620.597"/></g><g style="fill:#2ca02c" transform="matrix(.14 0 0 -.14 461.302 192.127)" id="text_22"><defs><path id="Inter-Regular-63" d="M1909-73c773 0 1282 473 1373 1091h-536c-100-382-419-609-837-609-636 0-1045 527-1045 1336 0 791 418 1310 1045 1310 473 0 755-291 837-610h536c-91 655-646 1091-1382 1091-945 0-1573-745-1573-1809C327 682 927-73 1909-73z" transform="scale(.01563)"/><path id="Inter-Regular-79" d="M836-1309c485 0 825 257 1028 800l1482 4000h-582L1800 709h-36L800 3491H218L1509-18l-100-273c-195-532-436-582-827-482l-136-472c54-28 209-64 390-64z" transform="scale(.01563)"/><path id="Inter-Regular-6d" d="M491 0h536v2182c0 511 373 873 791 873 407 0 691-266 691-664V0h546v2273c0 450 281 782 772 782 382 0 709-203 709-719V0h537v2336c0 821-441 1200-1064 1200-500 0-866-229-1045-591h-37c-172 373-477 591-936 591-455 0-791-218-936-591h-46v546H491V0z" transform="scale(.01563)"/></defs><use xlink:href="#Inter-Regular-63"/><use xlink:href="#Inter-Regular-72" x="55.824"/><use xlink:href="#Inter-Regular-79" x="93.04"/><use xlink:href="#Inter-Regular-70" x="148.722"/><use xlink:href="#Inter-Regular-74" x="209.659"/><use xlink:href="#Inter-Regular-6f" x="246.023"/><use xlink:href="#Inter-Regular-6d" x="305.682"/><use xlink:href="#Inter-Regular-61" x="392.614"/><use xlink:href="#Inter-Regular-74" x="449.006"/><use xlink:href="#Inter-Regular-6f" x="485.369"/><use xlink:href="#Inter-Regular-72" x="545.029"/><use xlink:href="#Inter-Regular-2f" x="582.244"/><use xlink:href="#Inter-Regular-63" x="617.898"/><use xlink:href="#Inter-Regular-72" x="673.722"/><use xlink:href="#Inter-Regular-79" x="710.938"/><use xlink:href="#Inter-Regular-70" x="766.619"/><use xlink:href="#Inter-Regular-74" x="827.557"/><use xlink:href="#Inter-Regular-6f" x="863.921"/><use xlink:href="#Inter-Regular-6d" x="923.58"/><use xlink:href="#Inter-Regular-61" x="1010.512"/><use xlink:href="#Inter-Regular-74" x="1066.904"/><use xlink:href="#Inter-Regular-6f" x="1103.267"/><use xlink:href="#Inter-Regular-72" x="1162.926"/></g><g style="fill:#d62728" transform="matrix(.14 0 0 -.14 461.302 237.455)" id="text_23"><defs><path id="Inter-Regular-76" d="M3346 3491h-582L1800 709h-36L800 3491H218L1509 0h546l1291 3491z" transform="scale(.01563)"/><path id="Inter-Regular-56" d="M755 4655H164L1873 0h582l1709 4655h-591L2191 736h-55L755 4655z" transform="scale(.01563)"/><path id="Inter-Regular-43" d="M4309 3200c-173 955-936 1518-1873 1518-1190 0-2054-918-2054-2391C382 855 1246-64 2436-64c937 0 1700 564 1873 1519h-563c-137-646-691-991-1310-991-845 0-1509 654-1509 1863s664 1864 1509 1864c619 0 1173-346 1310-991h563z" transform="scale(.01563)"/></defs><use xlink:href="#Inter-Regular-76"/><use xlink:href="#Inter-Regular-65" x="55.682"/><use xlink:href="#Inter-Regular-72" x="113.92"/><use xlink:href="#Inter-Regular-61" x="151.136"/><use xlink:href="#Inter-Regular-63" x="207.528"/><use xlink:href="#Inter-Regular-72" x="263.352"/><use xlink:href="#Inter-Regular-79" x="300.568"/><use xlink:href="#Inter-Regular-70" x="356.25"/><use xlink:href="#Inter-Regular-74" x="417.188"/><use xlink:href="#Inter-Regular-2f" x="453.551"/><use xlink:href="#Inter-Regular-56" x="489.205"/><use xlink:href="#Inter-Regular-65" x="556.818"/><use xlink:href="#Inter-Regular-72" x="615.057"/><use xlink:href="#Inter-Regular-61" x="652.273"/><use xlink:href="#Inter-Regular-43" x="708.665"/><use xlink:href="#Inter-Regular-72" x="781.392"/><use xlink:href="#Inter-Regular-79" x="818.608"/><use xlink:href="#Inter-Regular-70" x="874.29"/><use xlink:href="#Inter-Regular-74" x="935.227"/></g><g style="fill:#9467bd" transform="matrix(.14 0 0 -.14 461.302 251.455)" id="text_24"><defs><path id="Inter-Regular-68" d="M1027 2100c0 609 389 955 919 955 504 0 809-319 809-873V0h536v2218c0 898-477 1318-1191 1318-550 0-864-229-1027-591h-46v1710H491V0h536v2100z" transform="scale(.01563)"/><path id="Inter-Regular-64" d="M1809-73c673 0 900 418 1018 609h64V0h518v4655h-536V2936h-46c-118 182-327 600-1009 600-882 0-1491-700-1491-1800C327 627 936-73 1809-73zm73 482c-673 0-1018 591-1018 1336 0 737 336 1310 1018 1310 654 0 1000-528 1000-1310 0-790-355-1336-1000-1336z" transform="scale(.01563)"/><path id="Inter-Regular-66" d="M2046 3491h-782v354c0 346 145 528 500 528 154 0 245-37 300-55l154 464c-82 36-245 91-509 91-500 0-982-300-982-900v-482H164v-455h563V0h537v3036h782v455z" transform="scale(.01563)"/></defs><use xlink:href="#Inter-Regular-68"/><use xlink:href="#Inter-Regular-65" x="59.091"/><use xlink:href="#Inter-Regular-6e" x="117.33"/><use xlink:href="#Inter-Regular-72" x="175.852"/><use xlink:href="#Inter-Regular-79" x="213.068"/><use xlink:href="#Inter-Regular-62" x="268.75"/><use xlink:href="#Inter-Regular-6f" x="330.824"/><use xlink:href="#Inter-Regular-6c" x="390.483"/><use xlink:href="#Inter-Regular-64" x="414.205"/><use xlink:href="#Inter-Regular-69" x="476.279"/><use xlink:href="#Inter-Regular-2f" x="500"/><use xlink:href="#Inter-Regular-66" x="535.654"/><use xlink:href="#Inter-Regular-65" x="571.733"/><use xlink:href="#Inter-Regular-6c" x="629.972"/><use xlink:href="#Inter-Regular-6f" x="653.693"/><use xlink:href="#Inter-Regular-6e" x="713.352"/><use xlink:href="#Inter-Regular-79" x="771.875"/></g><g style="fill:#8c564b" transform="matrix(.14 0 0 -.14 461.302 291.183)" id="text_25"><use xlink:href="#Inter-Regular-67"/><use xlink:href="#Inter-Regular-70" x="60.938"/><use xlink:href="#Inter-Regular-67" x="121.875"/><use xlink:href="#Inter-Regular-2f" x="182.813"/><use xlink:href="#Inter-Regular-67" x="218.466"/><use xlink:href="#Inter-Regular-6e" x="279.403"/><use xlink:href="#Inter-Regular-75" x="337.926"/><use xlink:href="#Inter-Regular-70" x="396.023"/><use xlink:href="#Inter-Regular-67" x="456.96"/></g><g style="fill:#b0b0b0" transform="matrix(.09716 0 0 -.09716 93.468 330.51)" id="text_26"><defs><path id="Inter-Regular-40" d="M3173-1227c463 0 1054 136 1336 254l-127 418c-164-54-691-236-1191-236C1636-791 809 82 809 1627c0 1518 846 2428 2273 2428 1445 0 2127-1019 2127-2037 0-1036-109-1500-573-1500-272 0-418 227-418 482v2055h-482v-255h-27c-63 200-418 373-873 327-681-72-1200-636-1200-1454 0-864 410-1528 1200-1555 519-18 791 237 900 500h28c54-391 545-527 863-527 964 0 1055 1036 1055 1918 0 1246-873 2473-2573 2473-1754 0-2800-1064-2800-2837 0-1836 1009-2872 2864-2872zM2909 582c-591 0-800 536-800 1118 0 527 300 982 818 982 546 0 837-218 837-982 0-755-246-1118-855-1118z" transform="scale(.01563)"/><path id="Inter-Regular-2d" d="M2491 2245H455v-500h2036v500z" transform="scale(.01563)"/><path id="Inter-Regular-7c" d="M1273 6155H818v-7655h455v7655z" transform="scale(.01563)"/><path id="Inter-Regular-4e" d="M4255 4655h-555V991h-45L1109 4655H564V0h563v3655h46L3709 0h546v4655z" transform="scale(.01563)"/><path id="Inter-Regular-f6" d="M1909-73c946 0 1582 718 1582 1800 0 1091-636 1809-1582 1809-945 0-1582-718-1582-1809C327 645 964-73 1909-73zm0 482c-718 0-1045 618-1045 1318s327 1328 1045 1328 1046-628 1046-1328S2627 409 1909 409zm-654 3664c209 0 363 172 363 363 0 209-154 364-363 364-191 0-364-155-364-364 0-191 173-363 364-363zm1309 0c209 0 363 172 363 363 0 209-154 364-363 364-191 0-364-155-364-364 0-191 173-363 364-363z" transform="scale(.01563)"/><path id="Inter-Regular-42" d="M564 0h1682c1100 0 1554 536 1554 1236 0 737-509 1137-936 1164v45c400 110 754 373 754 973 0 682-454 1237-1427 1237H564V0zm563 500v1618h1146c609 0 991-409 991-882 0-409-282-736-1018-736H1127zm0 2109v1546h1064c618 0 891-328 891-737 0-491-400-809-909-809H1127z" transform="scale(.01563)"/><path id="Inter-Regular-59" d="m164 4655 1682-2737V0h563v1918l1682 2737h-645L2155 2482h-55L809 4655H164z" transform="scale(.01563)"/></defs><use xlink:href="#Inter-Regular-40"/><use xlink:href="#Inter-Regular-6e" x="93.608"/><use xlink:href="#Inter-Regular-73" x="152.131"/><use xlink:href="#Inter-Regular-63" x="204.403"/><use xlink:href="#Inter-Regular-68" x="260.227"/><use xlink:href="#Inter-Regular-6c" x="319.318"/><use xlink:href="#Inter-Regular-6f" x="343.04"/><use xlink:href="#Inter-Regular-65" x="402.699"/><use xlink:href="#Inter-Regular-20" x="460.938"/><use xlink:href="#Inter-Regular-2f" x="489.063"/><use xlink:href="#Inter-Regular-20" x="524.716"/><use xlink:href="#Inter-Regular-67" x="552.841"/><use xlink:href="#Inter-Regular-68" x="613.779"/><use xlink:href="#Inter-Regular-2d" x="672.869"/><use xlink:href="#Inter-Regular-74" x="718.892"/><use xlink:href="#Inter-Regular-72" x="755.256"/><use xlink:href="#Inter-Regular-65" x="792.472"/><use xlink:href="#Inter-Regular-6e" x="850.71"/><use xlink:href="#Inter-Regular-64" x="909.233"/><use xlink:href="#Inter-Regular-73" x="971.307"/><use xlink:href="#Inter-Regular-20" x="1023.58"/><use xlink:href="#Inter-Regular-7c" x="1051.705"/><use xlink:href="#Inter-Regular-20" x="1084.375"/><use xlink:href="#Inter-Regular-4e" x="1112.5"/><use xlink:href="#Inter-Regular-69" x="1187.784"/><use xlink:href="#Inter-Regular-63" x="1211.506"/><use xlink:href="#Inter-Regular-6f" x="1267.33"/><use xlink:href="#Inter-Regular-20" x="1326.989"/><use xlink:href="#Inter-Regular-53" x="1355.114"/><use xlink:href="#Inter-Regular-63" x="1418.892"/><use xlink:href="#Inter-Regular-68" x="1474.716"/><use xlink:href="#Inter-Regular-6c" x="1533.807"/><use xlink:href="#Inter-Regular-f6" x="1557.529"/><use xlink:href="#Inter-Regular-6d" x="1617.188"/><use xlink:href="#Inter-Regular-65" x="1704.12"/><use xlink:href="#Inter-Regular-72" x="1762.358"/><use xlink:href="#Inter-Regular-20" x="1799.574"/><use xlink:href="#Inter-Regular-7c" x="1827.699"/><use xlink:href="#Inter-Regular-20" x="1860.37"/><use xlink:href="#Inter-Regular-43" x="1888.495"/><use xlink:href="#Inter-Regular-43" x="1961.222"/><use xlink:href="#Inter-Regular-20" x="2033.949"/><use xlink:href="#Inter-Regular-42" x="2062.074"/><use xlink:href="#Inter-Regular-59" x="2127.131"/></g><path d="m134.603 294.555 2.908-.014 3.22-.014h25.346l3.22-.51 3.22-.127 2.908-.071 3.22-.793 3.117-.056 3.22-.071 3.116-.085 3.22-.156 3.22-.113 3.116-.212 3.22-.298 3.117-.283 3.22-.269 3.22-.212 3.012-.283 3.22-2.59 3.117-.963 3.22-1.033 3.116-.51 3.22-.367 3.22-.652 3.116-.537 3.22-.892 3.117-1.43 3.22-.594 3.22-1.147 2.908-.976 3.22-.977 3.117-.722 3.22-.623 3.116-.849 3.22-.934 3.22-1.033 3.117-.991 3.22-.99 3.116-.963 3.22-1.005 3.22-.906 2.909-.538 3.22-.948 3.116-.991 3.22-1.062 3.116-.679 3.22-.637 3.22-.85 3.117-.679 3.22-.792 3.116-.793 3.22-.736 3.22-1.288 2.909-.793 3.22-.764 3.116-2.887 3.22-1.048 3.116-.906 3.22-1.387 3.22-.948 3.117-.934 3.22-1.16 3.116-1.246 3.22-1.274 3.22-1.104 3.013-1.062 3.22-1.203 3.116-2.166 3.22-2.76 3.116-1.868 3.22-1.6 3.22-1.556 3.117-1.076 3.22-1.288 3.116-1.5 3.22-1.996 3.22-1.628 2.909-1.642 3.22-1.486 3.116-1.77 3.22-1.301 3.117-1.43 3.22-1.415 3.22-1.798 3.116-5.732 3.22-3.369 3.116-1.84 3.22-3.992 3.22-2.25 2.909-2.406 3.22-2.08 3.116-2.634 3.22-1.783" clip-path="url(#pab89c62117)" style="fill:none;stroke:#2ca02c;stroke-width:1.5;stroke-linecap:square" id="line2d_30"/><path d="m349.415 294.555 3.22-4.87 3.116-.933 3.22-26.327 3.22-8.832 3.013-6.242 3.22-1.996 3.116-1.727 3.22-2.463 3.116-2.278 3.22-3.17 3.22-1.275 3.117-3.057 3.22-1.486 3.116-2.038 3.22-2.789 3.22-2.83 2.909-2.888 3.22-3.878 3.116-2.28 3.22-4.302 3.117-2.902 3.22-2.632 3.22-2.364 3.116-28.322 3.22-3.85 3.116-5.818 3.22-4.798 3.22-4.713 2.909-2.605 3.22-2.774 3.116-2.505 3.22-2.86" clip-path="url(#pab89c62117)" style="fill:none;stroke:#ff7f0e;stroke-width:1.5;stroke-linecap:square" id="line2d_31"/><path d="m93.468 294.555 3.22-.028 2.909-.029 3.22-.099h3.116l3.22-.028 3.117-.085 3.22-.057 3.22-.127 3.116-.212 3.22-.128 3.116-.155 3.22-.213 3.22-.141 2.91-.17 3.22-.184 3.115-3.992 3.22-.566 3.117-.523 3.22-.312 3.22-.297 3.116-.396 3.22-.397 3.117-.481 3.22-.85 3.22-.848 2.908-1.104 3.22-1.416 3.117-.835 3.22-.778 3.116-.906 3.22-1.515 3.22-1.019 3.116-1.09 3.22-1.175 3.117-1.769 3.22-2.151 3.22-2.293 3.012-1.854 3.22-2.619 3.117-1.925 3.22-2.222 3.116-1.628 3.22-1.656 3.22-2.236 3.116-2.18 3.22-2.817 3.117-2.35 3.22-2.25 3.22-3.199 2.908-2.462 3.22-2.506 3.117-2.123 3.22-2.816 3.116-2.124 3.22-2.094 3.22-2.378 3.117-2.223 3.22-2.052 3.116-2.774 3.22-2.69 3.22-3.34 2.909-2.731 3.22-3.37 3.116-3.311 3.22-3.935 3.116-3.27 3.22-3.666 3.22-4.387 3.117-4.572 3.22-2.576 3.116-3.751 3.22-3.553 3.22-3.892 2.909-3.298 3.22-4.048 3.116-4.586 3.22-4.374 3.116-3.552 3.22-3.51 3.22-3.256 3.117-2.902 3.22-3.255 3.116-3.298 3.22-3.241 3.22-2.534 3.013-2.774 3.22-3.185 3.116-3.75 3.22-3.157 3.116-3.241 3.22-3.78 3.22-3.142 3.117-2.66 3.22-2.874 3.116-2.76 3.22-3.68 3.22-3.128 2.909-2.958 3.22-3.95 3.116-5.888 3.22-3.41 3.117-3.086 3.22-2.973 3.22-2.689 3.116-4.161 3.22-3.78 3.116-3.524 3.22-3.708 3.22-3.78 2.909-3.595 3.22-4.713 3.116-3.737 3.22-4.274" clip-path="url(#pab89c62117)" style="fill:none;stroke:#1f77b4;stroke-width:1.5;stroke-linecap:square" id="line2d_32"/></g></g><defs><clipPath id="pab89c62117"><path d="M93.468 28.443h357.12v266.112H93.468z"/></clipPath></defs></svg>