<svg xmlns:xlink="http://www.w3.org/1999/xlink" width="1003.801" height="468.926" viewBox="0 0 752.851 351.694" xmlns="http://www.w3.org/2000/svg"><defs><style>*{stroke-linejoin:round;stroke-linecap:butt}</style></defs><g id="figure_1"><path d="M0 351.694h752.85V0H0v351.694z" style="fill:none" id="patch_1"/><g id="axes_1"><path d="M93.468 306.262h357.12V40.15H93.468v266.112z" style="fill:none" id="patch_2"/><g id="matplotlib.axis_1"><g id="xtick_1"><g id="line2d_1"><defs><path id="mc1e0b9182e" d="M0 0v3.5" style="stroke:#b0b0b0;stroke-width:.4"/></defs><use xlink:href="#mc1e0b9182e" x="111.805" y="306.262" style="fill:#b0b0b0;stroke:#b0b0b0;stroke-width:.4"/></g><g style="fill:#b0b0b0" transform="matrix(.14 0 0 -.14 83.724 323.445)" id="text_1"><defs><path id="Inter-Regular-32" d="M482 0h2936v500H1255v36l1045 1119c800 856 1036 1256 1036 1772 0 718-581 1291-1400 1291-815 0-1436-554-1436-1373h536c0 530 344 882 882 882 505 0 891-309 891-800 0-429-252-747-791-1336L482 409V0z" transform="scale(.01563)"/><path id="Inter-Regular-30" d="M2000-64c1027 0 1618 871 1618 2391 0 1509-600 2391-1618 2391S382 3836 382 2327C382 807 973-64 2000-64zm0 500c-677 0-1073 680-1073 1891 0 1209 400 1900 1073 1900s1073-691 1073-1900c0-1211-396-1891-1073-1891z" transform="scale(.01563)"/><path id="Inter-Regular-31" d="M2118 4655h-563L391 3882v-573l1136 755h28V0h563v4655z" transform="scale(.01563)"/><path id="Inter-Regular-39" d="M1964 4718c-946 12-1555-700-1555-1554 0-900 664-1546 1464-1546 482 0 891 237 1145 618h37c0-1145-446-1800-1164-1800-491 0-791 309-891 737H446C555 436 1109-64 1891-64c1045 0 1691 928 1691 2582 0 1709-855 2191-1618 2200zm0-500c582 0 1009-500 1009-1045 0-555-455-1055-1027-1055-573 0-991 464-991 1046 0 581 436 1054 1009 1054z" transform="scale(.01563)"/><path id="Inter-Regular-2d" d="M2491 2245H455v-500h2036v500z" transform="scale(.01563)"/><path id="Inter-Regular-35" d="M1936-64c887 0 1537 655 1537 1546 0 902-627 1563-1482 1563-314 0-618-111-809-263h-27l163 1373h1946v500H846L564 2364l527-64c193 139 523 239 809 236 593-4 1027-454 1027-1063 0-598-418-1037-991-1037-477 0-856 307-900 728H491C525 455 1136-64 1936-64z" transform="scale(.01563)"/></defs><use xlink:href="#Inter-Regular-32"/><use xlink:href="#Inter-Regular-30" x="60.511"/><use xlink:href="#Inter-Regular-31" x="123.011"/><use xlink:href="#Inter-Regular-39" x="169.46"/><use xlink:href="#Inter-Regular-2d" x="231.818"/><use xlink:href="#Inter-Regular-30" x="277.841"/><use xlink:href="#Inter-Regular-35" x="340.341"/></g></g><g id="xtick_2"><use xlink:href="#mc1e0b9182e" x="148.78" y="306.262" style="fill:#b0b0b0;stroke:#b0b0b0;stroke-width:.4" id="line2d_2"/><g style="fill:#b0b0b0" transform="matrix(.14 0 0 -.14 120.59 323.445)" id="text_2"><use xlink:href="#Inter-Regular-32"/><use xlink:href="#Inter-Regular-30" x="60.511"/><use xlink:href="#Inter-Regular-31" x="123.011"/><use xlink:href="#Inter-Regular-39" x="169.46"/><use xlink:href="#Inter-Regular-2d" x="231.818"/><use xlink:href="#Inter-Regular-30" x="277.841"/><use xlink:href="#Inter-Regular-39" x="340.341"/></g></g><g id="xtick_3"><use xlink:href="#mc1e0b9182e" x="185.454" y="306.262" style="fill:#b0b0b0;stroke:#b0b0b0;stroke-width:.4" id="line2d_3"/><g style="fill:#b0b0b0" transform="matrix(.14 0 0 -.14 157.383 323.445)" id="text_3"><use xlink:href="#Inter-Regular-32"/><use xlink:href="#Inter-Regular-30" x="60.511"/><use xlink:href="#Inter-Regular-32" x="123.011"/><use xlink:href="#Inter-Regular-30" x="183.523"/><use xlink:href="#Inter-Regular-2d" x="246.023"/><use xlink:href="#Inter-Regular-30" x="292.046"/><use xlink:href="#Inter-Regular-31" x="354.546"/></g></g><g id="xtick_4"><use xlink:href="#mc1e0b9182e" x="221.827" y="306.262" style="fill:#b0b0b0;stroke:#b0b0b0;stroke-width:.4" id="line2d_4"/><g style="fill:#b0b0b0" transform="matrix(.14 0 0 -.14 192.752 323.445)" id="text_4"><use xlink:href="#Inter-Regular-32"/><use xlink:href="#Inter-Regular-30" x="60.511"/><use xlink:href="#Inter-Regular-32" x="123.011"/><use xlink:href="#Inter-Regular-30" x="183.523"/><use xlink:href="#Inter-Regular-2d" x="246.023"/><use xlink:href="#Inter-Regular-30" x="292.046"/><use xlink:href="#Inter-Regular-35" x="354.546"/></g></g><g id="xtick_5"><use xlink:href="#mc1e0b9182e" x="258.802" y="306.262" style="fill:#b0b0b0;stroke:#b0b0b0;stroke-width:.4" id="line2d_5"/><g style="fill:#b0b0b0" transform="matrix(.14 0 0 -.14 229.617 323.445)" id="text_5"><use xlink:href="#Inter-Regular-32"/><use xlink:href="#Inter-Regular-30" x="60.511"/><use xlink:href="#Inter-Regular-32" x="123.011"/><use xlink:href="#Inter-Regular-30" x="183.523"/><use xlink:href="#Inter-Regular-2d" x="246.023"/><use xlink:href="#Inter-Regular-30" x="292.046"/><use xlink:href="#Inter-Regular-39" x="354.546"/></g></g><g id="xtick_6"><use xlink:href="#mc1e0b9182e" x="295.476" y="306.262" style="fill:#b0b0b0;stroke:#b0b0b0;stroke-width:.4" id="line2d_6"/><g style="fill:#b0b0b0" transform="matrix(.14 0 0 -.14 268.528 323.445)" id="text_6"><use xlink:href="#Inter-Regular-32"/><use xlink:href="#Inter-Regular-30" x="60.511"/><use xlink:href="#Inter-Regular-32" x="123.011"/><use xlink:href="#Inter-Regular-31" x="183.523"/><use xlink:href="#Inter-Regular-2d" x="229.972"/><use xlink:href="#Inter-Regular-30" x="275.994"/><use xlink:href="#Inter-Regular-31" x="338.494"/></g></g><g id="xtick_7"><use xlink:href="#mc1e0b9182e" x="331.548" y="306.262" style="fill:#b0b0b0;stroke:#b0b0b0;stroke-width:.4" id="line2d_7"/><g style="fill:#b0b0b0" transform="matrix(.14 0 0 -.14 303.597 323.445)" id="text_7"><use xlink:href="#Inter-Regular-32"/><use xlink:href="#Inter-Regular-30" x="60.511"/><use xlink:href="#Inter-Regular-32" x="123.011"/><use xlink:href="#Inter-Regular-31" x="183.523"/><use xlink:href="#Inter-Regular-2d" x="229.972"/><use xlink:href="#Inter-Regular-30" x="275.994"/><use xlink:href="#Inter-Regular-35" x="338.494"/></g></g><g id="xtick_8"><use xlink:href="#mc1e0b9182e" x="368.523" y="306.262" style="fill:#b0b0b0;stroke:#b0b0b0;stroke-width:.4" id="line2d_8"/><g style="fill:#b0b0b0" transform="matrix(.14 0 0 -.14 340.462 323.445)" id="text_8"><use xlink:href="#Inter-Regular-32"/><use xlink:href="#Inter-Regular-30" x="60.511"/><use xlink:href="#Inter-Regular-32" x="123.011"/><use xlink:href="#Inter-Regular-31" x="183.523"/><use xlink:href="#Inter-Regular-2d" x="229.972"/><use xlink:href="#Inter-Regular-30" x="275.994"/><use xlink:href="#Inter-Regular-39" x="338.494"/></g></g><g id="xtick_9"><use xlink:href="#mc1e0b9182e" x="405.197" y="306.262" style="fill:#b0b0b0;stroke:#b0b0b0;stroke-width:.4" id="line2d_9"/><g style="fill:#b0b0b0" transform="matrix(.14 0 0 -.14 377.265 323.445)" id="text_9"><use xlink:href="#Inter-Regular-32"/><use xlink:href="#Inter-Regular-30" x="60.511"/><use xlink:href="#Inter-Regular-32" x="123.011"/><use xlink:href="#Inter-Regular-32" x="183.523"/><use xlink:href="#Inter-Regular-2d" x="244.034"/><use xlink:href="#Inter-Regular-30" x="290.057"/><use xlink:href="#Inter-Regular-31" x="352.557"/></g></g><g id="xtick_10"><use xlink:href="#mc1e0b9182e" x="441.27" y="306.262" style="fill:#b0b0b0;stroke:#b0b0b0;stroke-width:.4" id="line2d_10"/><g style="fill:#b0b0b0" transform="matrix(.14 0 0 -.14 412.333 323.445)" id="text_10"><use xlink:href="#Inter-Regular-32"/><use xlink:href="#Inter-Regular-30" x="60.511"/><use xlink:href="#Inter-Regular-32" x="123.011"/><use xlink:href="#Inter-Regular-32" x="183.523"/><use xlink:href="#Inter-Regular-2d" x="244.034"/><use xlink:href="#Inter-Regular-30" x="290.057"/><use xlink:href="#Inter-Regular-35" x="352.557"/></g></g></g><g id="matplotlib.axis_2"><g id="ytick_1"><path d="M93.468 306.262h357.12" clip-path="url(#p78c7b6648a)" style="fill:none;stroke:#b0b0b0;stroke-width:.3;stroke-linecap:square" id="line2d_11"/><g id="line2d_12"><defs><path id="mb2e347cf8a" d="M0 0h-3.5" style="stroke:#b0b0b0;stroke-width:.3"/></defs><use xlink:href="#mb2e347cf8a" x="93.468" y="306.262" style="fill:#b0b0b0;stroke:#b0b0b0;stroke-width:.3"/></g><use xlink:href="#Inter-Regular-30" style="fill:#b0b0b0" transform="matrix(.14 0 0 -.14 77.718 311.353)" id="text_11"/></g><g id="ytick_2"><path d="M93.468 269.204h357.12" clip-path="url(#p78c7b6648a)" style="fill:none;stroke:#b0b0b0;stroke-width:.3;stroke-linecap:square" id="line2d_13"/><use xlink:href="#mb2e347cf8a" x="93.468" y="269.204" style="fill:#b0b0b0;stroke:#b0b0b0;stroke-width:.3" id="line2d_14"/><g style="fill:#b0b0b0" transform="matrix(.14 0 0 -.14 53.715 274.296)" id="text_12"><use xlink:href="#Inter-Regular-31"/><use xlink:href="#Inter-Regular-30" x="46.449"/><use xlink:href="#Inter-Regular-30" x="108.949"/><use xlink:href="#Inter-Regular-30" x="171.449"/></g></g><g id="ytick_3"><path d="M93.468 232.146h357.12" clip-path="url(#p78c7b6648a)" style="fill:none;stroke:#b0b0b0;stroke-width:.3;stroke-linecap:square" id="line2d_15"/><use xlink:href="#mb2e347cf8a" x="93.468" y="232.146" style="fill:#b0b0b0;stroke:#b0b0b0;stroke-width:.3" id="line2d_16"/><g style="fill:#b0b0b0" transform="matrix(.14 0 0 -.14 51.746 237.238)" id="text_13"><use xlink:href="#Inter-Regular-32"/><use xlink:href="#Inter-Regular-30" x="60.511"/><use xlink:href="#Inter-Regular-30" x="123.011"/><use xlink:href="#Inter-Regular-30" x="185.511"/></g></g><g id="ytick_4"><path d="M93.468 195.089h357.12" clip-path="url(#p78c7b6648a)" style="fill:none;stroke:#b0b0b0;stroke-width:.3;stroke-linecap:square" id="line2d_17"/><use xlink:href="#mb2e347cf8a" x="93.468" y="195.089" style="fill:#b0b0b0;stroke:#b0b0b0;stroke-width:.3" id="line2d_18"/><g style="fill:#b0b0b0" transform="matrix(.14 0 0 -.14 51.309 200.18)" id="text_14"><defs><path id="Inter-Regular-33" d="M2055-64c902 0 1572 566 1572 1328 0 591-350 1020-936 1118v36c470 143 764 530 764 1055 0 659-521 1245-1382 1245-805 0-1473-495-1500-1227h545c21 464 462 736 946 736 513 0 845-311 845-782 0-490-384-809-936-809h-373v-500h373c707 0 1100-359 1100-872 0-494-430-828-1027-828-539 0-966 278-1000 728H473C507 432 1152-64 2055-64z" transform="scale(.01563)"/></defs><use xlink:href="#Inter-Regular-33"/><use xlink:href="#Inter-Regular-30" x="63.636"/><use xlink:href="#Inter-Regular-30" x="126.136"/><use xlink:href="#Inter-Regular-30" x="188.636"/></g></g><g id="ytick_5"><path d="M93.468 158.03h357.12" clip-path="url(#p78c7b6648a)" style="fill:none;stroke:#b0b0b0;stroke-width:.3;stroke-linecap:square" id="line2d_19"/><use xlink:href="#mb2e347cf8a" x="93.468" y="158.031" style="fill:#b0b0b0;stroke:#b0b0b0;stroke-width:.3" id="line2d_20"/><g style="fill:#b0b0b0" transform="matrix(.14 0 0 -.14 51.23 163.122)" id="text_15"><defs><path id="Inter-Regular-34" d="M373 955h2191V0h536v955h636v500h-636v3200h-682L373 1418V955zm2191 500H982v36l1545 2445h37V1455z" transform="scale(.01563)"/></defs><use xlink:href="#Inter-Regular-34"/><use xlink:href="#Inter-Regular-30" x="64.205"/><use xlink:href="#Inter-Regular-30" x="126.705"/><use xlink:href="#Inter-Regular-30" x="189.205"/></g></g><g id="ytick_6"><path d="M93.468 120.973h357.12" clip-path="url(#p78c7b6648a)" style="fill:none;stroke:#b0b0b0;stroke-width:.3;stroke-linecap:square" id="line2d_21"/><use xlink:href="#mb2e347cf8a" x="93.468" y="120.973" style="fill:#b0b0b0;stroke:#b0b0b0;stroke-width:.3" id="line2d_22"/><g style="fill:#b0b0b0" transform="matrix(.14 0 0 -.14 51.707 126.064)" id="text_16"><use xlink:href="#Inter-Regular-35"/><use xlink:href="#Inter-Regular-30" x="60.795"/><use xlink:href="#Inter-Regular-30" x="123.295"/><use xlink:href="#Inter-Regular-30" x="185.796"/></g></g><g id="ytick_7"><path d="M93.468 83.915h357.12" clip-path="url(#p78c7b6648a)" style="fill:none;stroke:#b0b0b0;stroke-width:.3;stroke-linecap:square" id="line2d_23"/><use xlink:href="#mb2e347cf8a" x="93.468" y="83.915" style="fill:#b0b0b0;stroke:#b0b0b0;stroke-width:.3" id="line2d_24"/><g style="fill:#b0b0b0" transform="matrix(.14 0 0 -.14 51.488 89.007)" id="text_17"><defs><path id="Inter-Regular-36" d="M2027-64c941-11 1555 698 1555 1564 0 900-666 1545-1464 1545-479 0-891-234-1145-618h-37c3 1134 444 1791 1164 1791 491 0 786-309 891-727h555c-114 723-664 1227-1446 1227-1048 0-1691-927-1691-2573C409 425 1264-55 2027-64zm0 500c-584 0-1011 498-1009 1055 3 557 450 1054 1028 1054 570 0 990-468 990-1045 0-591-438-1064-1009-1064z" transform="scale(.01563)"/></defs><use xlink:href="#Inter-Regular-36"/><use xlink:href="#Inter-Regular-30" x="62.358"/><use xlink:href="#Inter-Regular-30" x="124.858"/><use xlink:href="#Inter-Regular-30" x="187.358"/></g></g><g id="ytick_8"><path d="M93.468 46.857h357.12" clip-path="url(#p78c7b6648a)" style="fill:none;stroke:#b0b0b0;stroke-width:.3;stroke-linecap:square" id="line2d_25"/><use xlink:href="#mb2e347cf8a" x="93.468" y="46.857" style="fill:#b0b0b0;stroke:#b0b0b0;stroke-width:.3" id="line2d_26"/><g style="fill:#b0b0b0" transform="matrix(.14 0 0 -.14 52.223 51.949)" id="text_18"><defs><path id="Inter-Regular-37" d="M627 0h591l2073 4127v528H309v-500h2400v-37L627 0z" transform="scale(.01563)"/></defs><use xlink:href="#Inter-Regular-37"/><use xlink:href="#Inter-Regular-30" x="57.102"/><use xlink:href="#Inter-Regular-30" x="119.602"/><use xlink:href="#Inter-Regular-30" x="182.102"/></g></g><g style="fill:#b0b0b0" transform="matrix(.14 0 0 -.14 7.2 17.383)" id="text_19"><defs><path id="Inter-Regular-47" d="M3746 3200h581c-172 900-927 1518-1909 1518-1193 0-2036-918-2036-2391C382 855 1218-64 2455-64c1109 0 1900 739 1900 1891v500H2582v-500h1227c-16-836-566-1363-1354-1363-864 0-1528 654-1528 1863s664 1864 1491 1864c673 0 1130-380 1328-991z" transform="scale(.01563)"/><path id="Inter-Regular-69" d="M491 0h536v3491H491V0zm273 4073c209 0 382 163 382 363s-173 364-382 364-382-164-382-364 173-363 382-363z" transform="scale(.01563)"/><path id="Inter-Regular-74" d="M2009 3491h-745v836H727v-836H200v-455h527V855c0-610 491-900 946-900 200 0 327 36 400 63l-109 482c-46-9-118-27-237-27-236 0-463 72-463 527v2036h745v455z" transform="scale(.01563)"/><path id="Inter-Regular-48" d="M564 0h563v2082h2482V0h564v4655h-564V2582H1127v2073H564V0z" transform="scale(.01563)"/><path id="Inter-Regular-75" d="M2691 1427c0-654-500-954-900-954-445 0-764 327-764 836v2182H491V1273C491 382 964-45 1618-45c528 0 873 281 1037 636h36V0h536v3491h-536V1427z" transform="scale(.01563)"/><path id="Inter-Regular-62" d="M564 0h518v536h64c118-191 345-609 1018-609 872 0 1482 700 1482 1809 0 1100-610 1800-1491 1800-682 0-891-418-1009-600h-46v1719H564V0zm527 1745c0 782 345 1310 1000 1310 682 0 1018-573 1018-1310 0-745-345-1336-1018-1336-645 0-1000 546-1000 1336z" transform="scale(.01563)"/><path id="Inter-Regular-73" d="M2964 2709c-168 496-546 827-1237 827-736 0-1281-418-1281-1009 0-482 286-804 927-954l582-137c352-81 518-250 518-491 0-300-318-545-818-545-439 0-714 189-809 564L336 836C461 243 950-73 1664-73c811 0 1363 443 1363 1046 0 486-304 793-927 945l-518 127c-414 103-600 241-600 510 0 300 318 518 745 518 469 0 662-259 755-500l482 136z" transform="scale(.01563)"/><path id="Inter-Regular-61" d="M1518-82c609 0 928 327 1037 555h27V0h536v2300c0 1109-845 1236-1291 1236-527 0-1127-181-1400-818l509-182c119 255 398 528 910 528 493 0 736-262 736-709v-19c0-259-264-236-900-318-648-84-1355-227-1355-1027C327 309 855-82 1518-82zm82 482c-427 0-736 191-736 564 0 409 372 536 791 591 227 27 836 90 927 200v-491c0-437-346-864-982-864z" transform="scale(.01563)"/><path id="Inter-Regular-72" d="M491 0h536v2209c0 473 373 818 882 818 143 0 291-27 327-36v545c-61 5-202 9-281 9-419 0-782-236-909-581h-37v527H491V0z" transform="scale(.01563)"/></defs><use xlink:href="#Inter-Regular-47"/><use xlink:href="#Inter-Regular-69" x="74.29"/><use xlink:href="#Inter-Regular-74" x="98.011"/><use xlink:href="#Inter-Regular-48" x="134.375"/><use xlink:href="#Inter-Regular-75" x="208.381"/><use xlink:href="#Inter-Regular-62" x="266.477"/><use xlink:href="#Inter-Regular-20" x="328.551"/><use xlink:href="#Inter-Regular-73" x="356.676"/><use xlink:href="#Inter-Regular-74" x="408.949"/><use xlink:href="#Inter-Regular-61" x="445.313"/><use xlink:href="#Inter-Regular-72" x="501.705"/><use xlink:href="#Inter-Regular-73" x="538.921"/></g></g><path d="m240.164 306.262 9.319-5.151 9.319-1.964 9.018-1.408 9.319-.964 9.018-.815 9.319-.964 9.318-.555 8.417-.63 9.32-.408 9.017-.519 9.32-.704 9.017-.408 9.32-.518 9.318-.556 9.018-.445 9.319-.519 9.018-.407 9.319-.556 9.319-.445 8.417-.519 9.318-.407 9.019-.556 9.318-.964" clip-path="url(#p78c7b6648a)" style="fill:none;stroke:#e377c2;stroke-width:1.5;stroke-linecap:square" id="line2d_27"/><path d="m121.124 306.262 9.018-.074h9.32l9.318-.148 9.018-.927 9.319-.556 9.018-.37 9.319-.408 9.319-.222 8.717-.26 9.319-.444 9.018-.593 9.319-1.112 9.018-.593 9.319-1 9.319-1.26 9.018-1.52 9.319-1.37 9.018-.705 9.319-.964 9.318-1.37 8.417-1.038 9.32-1.371 9.017-1.26 9.32-1.15 9.017-.814 9.32-1.15 9.318-1.185 9.018-.556 9.319-1.038 9.018-1.408 9.319-.89 9.319-1.222 8.417-1.371 9.318-1.705 9.019-1.186 9.318-1.52" clip-path="url(#p78c7b6648a)" style="fill:none;stroke:#8c564b;stroke-width:1.5;stroke-linecap:square" id="line2d_28"/><path d="m148.78 306.262 9.018-10.747 9.319-1.853 9.018-1.482 9.319-1.149 9.319-2.334 8.717-2.113 9.319-1.37 9.018-.63 9.319-.371 9.018-.297 9.319-.26 9.319-3.52 9.018-1.26 9.319-.667 9.018-.74 9.319-1.001 9.318-.52 8.417-.407 9.32-.519 9.017-.704 9.32-.593 9.017-.407 9.32-.408 9.318-.37 9.018-.297 9.319-.445 9.018-4.373 9.319-.74 9.319-.816 8.417-.556 9.318-.37 9.019-.667 9.318-.408" clip-path="url(#p78c7b6648a)" style="fill:none;stroke:#9467bd;stroke-width:1.5;stroke-linecap:square" id="line2d_29"/><g style="fill:#1f77b4" transform="matrix(.14 0 0 -.14 461.302 43.968)" id="text_20"><defs><path id="Inter-Regular-6c" d="M1027 4655H491V0h536v4655z" transform="scale(.01563)"/><path id="Inter-Regular-6f" d="M1909-73c946 0 1582 718 1582 1800 0 1091-636 1809-1582 1809-945 0-1582-718-1582-1809C327 645 964-73 1909-73zm0 482c-718 0-1045 618-1045 1318s327 1328 1045 1328 1046-628 1046-1328S2627 409 1909 409z" transform="scale(.01563)"/><path id="Inter-Regular-77" d="M1282 0h527l764 2682h54L3391 0h527l1064 3491h-564L3664 827h-37l-736 2664h-573L1573 818h-37L782 3491H218L1282 0z" transform="scale(.01563)"/><path id="Inter-Regular-67" d="M1900-1382c836 0 1509 382 1509 1282v3591h-518v-555h-55c-118 182-336 600-1018 600-882 0-1491-700-1491-1772C327 673 964 55 1809 55c682 0 900 400 1018 590h46V-64c0-581-409-845-973-845-634 0-857 334-1000 527L473-682c218-366 648-700 1427-700zm-18 1918c-673 0-1018 509-1018 1237 0 709 336 1282 1018 1282 654 0 1000-528 1000-1282 0-773-355-1237-1000-1237z" transform="scale(.01563)"/><path id="Inter-Regular-68" d="M1027 2100c0 609 389 955 919 955 504 0 809-319 809-873V0h536v2218c0 898-477 1318-1191 1318-550 0-864-229-1027-591h-46v1710H491V0h536v2100z" transform="scale(.01563)"/><path id="Inter-Regular-65" d="M1955-73c709 0 1227 355 1391 882l-519 146c-136-364-452-546-872-546-630 0-1064 407-1089 1155h2534v227c0 1300-773 1745-1500 1745-945 0-1573-745-1573-1818S946-73 1955-73zM866 2027c36 543 420 1028 1034 1028 582 0 955-437 955-1028H866z" transform="scale(.01563)"/><path id="Inter-Regular-2f" d="M2136 4873h-490L146-700h490l1500 5573z" transform="scale(.01563)"/><path id="Inter-Regular-6d" d="M491 0h536v2182c0 511 373 873 791 873 407 0 691-266 691-664V0h546v2273c0 450 281 782 772 782 382 0 709-203 709-719V0h537v2336c0 821-441 1200-1064 1200-500 0-866-229-1045-591h-37c-172 373-477 591-936 591-455 0-791-218-936-591h-46v546H491V0z" transform="scale(.01563)"/><path id="Inter-Regular-63" d="M1909-73c773 0 1282 473 1373 1091h-536c-100-382-419-609-837-609-636 0-1045 527-1045 1336 0 791 418 1310 1045 1310 473 0 755-291 837-610h536c-91 655-646 1091-1382 1091-945 0-1573-745-1573-1809C327 682 927-73 1909-73z" transform="scale(.01563)"/></defs><use xlink:href="#Inter-Regular-6c"/><use xlink:href="#Inter-Regular-6f" x="23.722"/><use xlink:href="#Inter-Regular-77" x="83.381"/><use xlink:href="#Inter-Regular-6c" x="164.631"/><use xlink:href="#Inter-Regular-69" x="188.352"/><use xlink:href="#Inter-Regular-67" x="212.074"/><use xlink:href="#Inter-Regular-68" x="273.011"/><use xlink:href="#Inter-Regular-74" x="332.102"/><use xlink:href="#Inter-Regular-65" x="368.466"/><use xlink:href="#Inter-Regular-72" x="426.705"/><use xlink:href="#Inter-Regular-2f" x="463.921"/><use xlink:href="#Inter-Regular-6d" x="499.574"/><use xlink:href="#Inter-Regular-65" x="586.506"/><use xlink:href="#Inter-Regular-74" x="644.744"/><use xlink:href="#Inter-Regular-72" x="681.108"/><use xlink:href="#Inter-Regular-69" x="718.324"/><use xlink:href="#Inter-Regular-63" x="742.046"/><use xlink:href="#Inter-Regular-73" x="797.869"/></g><g style="fill:#ff7f0e" transform="matrix(.14 0 0 -.14 461.302 200.686)" id="text_21"><defs><path id="Inter-Regular-4a" d="M2346 4655V1327c0-579-278-891-764-891-443 0-764 259-764 655H264C264 375 818-64 1582-64c809 0 1327 498 1327 1391v3328h-563z" transform="scale(.01563)"/><path id="Inter-Regular-49" d="M1127 4655H564V0h563v4655z" transform="scale(.01563)"/><path id="Inter-Regular-76" d="M3346 3491h-582L1800 709h-36L800 3491H218L1509 0h546l1291 3491z" transform="scale(.01563)"/><path id="Inter-Regular-70" d="M491-1309h536V536h46c118-191 345-609 1018-609 873 0 1482 700 1482 1809 0 1100-609 1800-1491 1800-682 0-891-418-1009-600h-64v555H491v-4800zm527 3054c0 782 346 1310 1000 1310 682 0 1018-573 1018-1310 0-745-345-1336-1018-1336-645 0-1000 546-1000 1336z" transform="scale(.01563)"/><path id="Inter-Regular-64" d="M1809-73c673 0 900 418 1018 609h64V0h518v4655h-536V2936h-46c-118 182-327 600-1009 600-882 0-1491-700-1491-1800C327 627 936-73 1809-73zm73 482c-673 0-1018 591-1018 1336 0 737 336 1310 1018 1310 654 0 1000-528 1000-1310 0-790-355-1336-1000-1336z" transform="scale(.01563)"/><path id="Inter-Regular-79" d="M836-1309c485 0 825 257 1028 800l1482 4000h-582L1800 709h-36L800 3491H218L1509-18l-100-273c-195-532-436-582-827-482l-136-472c54-28 209-64 390-64z" transform="scale(.01563)"/><path id="Inter-Regular-6e" d="M1027 2100c0 609 378 955 891 955 498 0 800-325 800-873V0h537v2218c0 891-475 1318-1182 1318-527 0-855-236-1018-591h-46v546H491V0h536v2100z" transform="scale(.01563)"/></defs><use xlink:href="#Inter-Regular-4a"/><use xlink:href="#Inter-Regular-61" x="54.261"/><use xlink:href="#Inter-Regular-6d" x="110.653"/><use xlink:href="#Inter-Regular-65" x="197.585"/><use xlink:href="#Inter-Regular-73" x="255.824"/><use xlink:href="#Inter-Regular-49" x="308.097"/><use xlink:href="#Inter-Regular-76" x="334.517"/><use xlink:href="#Inter-Regular-65" x="390.199"/><use xlink:href="#Inter-Regular-73" x="448.438"/><use xlink:href="#Inter-Regular-2f" x="500.71"/><use xlink:href="#Inter-Regular-67" x="536.364"/><use xlink:href="#Inter-Regular-69" x="597.301"/><use xlink:href="#Inter-Regular-74" x="621.023"/><use xlink:href="#Inter-Regular-68" x="657.386"/><use xlink:href="#Inter-Regular-75" x="716.477"/><use xlink:href="#Inter-Regular-62" x="774.574"/><use xlink:href="#Inter-Regular-2d" x="836.648"/><use xlink:href="#Inter-Regular-70" x="882.671"/><use xlink:href="#Inter-Regular-61" x="943.608"/><use xlink:href="#Inter-Regular-67" x="1000"/><use xlink:href="#Inter-Regular-65" x="1060.938"/><use xlink:href="#Inter-Regular-73" x="1119.176"/><use xlink:href="#Inter-Regular-2d" x="1171.449"/><use xlink:href="#Inter-Regular-64" x="1217.472"/><use xlink:href="#Inter-Regular-65" x="1279.546"/><use xlink:href="#Inter-Regular-70" x="1337.784"/><use xlink:href="#Inter-Regular-6c" x="1398.722"/><use xlink:href="#Inter-Regular-6f" x="1422.443"/><use xlink:href="#Inter-Regular-79" x="1482.103"/><use xlink:href="#Inter-Regular-2d" x="1537.784"/><use xlink:href="#Inter-Regular-61" x="1583.807"/><use xlink:href="#Inter-Regular-63" x="1640.199"/><use xlink:href="#Inter-Regular-74" x="1696.023"/><use xlink:href="#Inter-Regular-69" x="1732.387"/><use xlink:href="#Inter-Regular-6f" x="1756.108"/><use xlink:href="#Inter-Regular-6e" x="1815.767"/></g><g style="fill:#2ca02c" transform="matrix(.14 0 0 -.14 461.302 242.24)" id="text_22"><defs><path id="Inter-Regular-78" d="M891 3491H273l1109-1746L273 0h618l836 1355L2564 0h618L2055 1745l1127 1746h-618l-837-1427-836 1427z" transform="scale(.01563)"/></defs><use xlink:href="#Inter-Regular-6d"/><use xlink:href="#Inter-Regular-78" x="86.932"/><use xlink:href="#Inter-Regular-73" x="140.909"/><use xlink:href="#Inter-Regular-63" x="193.182"/><use xlink:href="#Inter-Regular-68" x="249.006"/><use xlink:href="#Inter-Regular-6d" x="308.097"/><use xlink:href="#Inter-Regular-69" x="395.028"/><use xlink:href="#Inter-Regular-74" x="418.75"/><use xlink:href="#Inter-Regular-74" x="455.114"/><use xlink:href="#Inter-Regular-2f" x="491.477"/><use xlink:href="#Inter-Regular-61" x="527.131"/><use xlink:href="#Inter-Regular-63" x="583.523"/><use xlink:href="#Inter-Regular-74" x="639.347"/><use xlink:href="#Inter-Regular-69" x="675.71"/><use xlink:href="#Inter-Regular-6f" x="699.432"/><use xlink:href="#Inter-Regular-6e" x="759.091"/><use xlink:href="#Inter-Regular-2d" x="817.614"/><use xlink:href="#Inter-Regular-74" x="863.637"/><use xlink:href="#Inter-Regular-6d" x="900"/><use xlink:href="#Inter-Regular-61" x="986.932"/><use xlink:href="#Inter-Regular-74" x="1043.324"/><use xlink:href="#Inter-Regular-65" x="1079.688"/></g><g style="fill:#d62728" transform="matrix(.14 0 0 -.14 461.302 256.399)" id="text_23"><defs><path id="Inter-Regular-66" d="M2046 3491h-782v354c0 346 145 528 500 528 154 0 245-37 300-55l154 464c-82 36-245 91-509 91-500 0-982-300-982-900v-482H164v-455h563V0h537v3036h782v455z" transform="scale(.01563)"/><path id="Inter-Regular-7a" d="M391 0h2736v500H1136v36l1928 2528v427H455v-500h1918v-36L391 409V0z" transform="scale(.01563)"/><path id="Inter-Regular-6b" d="M491 0h536v1307l375 348L2709 0h682L1807 2000l1475 1491h-664L1091 1936h-64v2719H491V0z" transform="scale(.01563)"/><path id="Inter-Regular-71" d="M2873-1309h536v4800h-518v-555h-64c-118 182-327 600-1009 600-882 0-1491-700-1491-1800C327 627 936-73 1809-73c673 0 900 418 1018 609h46v-1845zM1882 409c-673 0-1018 591-1018 1336 0 737 336 1310 1018 1310 654 0 1000-528 1000-1310 0-790-355-1336-1000-1336z" transform="scale(.01563)"/></defs><use xlink:href="#Inter-Regular-76"/><use xlink:href="#Inter-Regular-6e" x="55.682"/><use xlink:href="#Inter-Regular-37" x="114.205"/><use xlink:href="#Inter-Regular-6e" x="171.307"/><use xlink:href="#Inter-Regular-32" x="229.83"/><use xlink:href="#Inter-Regular-34" x="290.341"/><use xlink:href="#Inter-Regular-66" x="354.546"/><use xlink:href="#Inter-Regular-7a" x="390.625"/><use xlink:href="#Inter-Regular-6b" x="444.744"/><use xlink:href="#Inter-Regular-71" x="499.148"/><use xlink:href="#Inter-Regular-2f" x="560.085"/><use xlink:href="#Inter-Regular-67" x="595.739"/><use xlink:href="#Inter-Regular-69" x="656.676"/><use xlink:href="#Inter-Regular-74" x="680.398"/><use xlink:href="#Inter-Regular-68" x="716.761"/><use xlink:href="#Inter-Regular-75" x="775.852"/><use xlink:href="#Inter-Regular-62" x="833.949"/><use xlink:href="#Inter-Regular-2d" x="896.023"/><use xlink:href="#Inter-Regular-70" x="942.046"/><use xlink:href="#Inter-Regular-72" x="1002.983"/><use xlink:href="#Inter-Regular-6f" x="1040.199"/><use xlink:href="#Inter-Regular-66" x="1099.858"/><use xlink:href="#Inter-Regular-69" x="1135.938"/><use xlink:href="#Inter-Regular-6c" x="1159.659"/><use xlink:href="#Inter-Regular-65" x="1183.381"/><use xlink:href="#Inter-Regular-2d" x="1241.62"/><use xlink:href="#Inter-Regular-73" x="1287.642"/><use xlink:href="#Inter-Regular-75" x="1339.915"/><use xlink:href="#Inter-Regular-6d" x="1398.012"/><use xlink:href="#Inter-Regular-6d" x="1484.943"/><use xlink:href="#Inter-Regular-61" x="1571.875"/><use xlink:href="#Inter-Regular-72" x="1628.267"/><use xlink:href="#Inter-Regular-79" x="1665.483"/><use xlink:href="#Inter-Regular-2d" x="1721.165"/><use xlink:href="#Inter-Regular-63" x="1767.188"/><use xlink:href="#Inter-Regular-61" x="1823.012"/><use xlink:href="#Inter-Regular-72" x="1879.404"/><use xlink:href="#Inter-Regular-64" x="1916.62"/><use xlink:href="#Inter-Regular-73" x="1978.694"/></g><g style="fill:#9467bd" transform="matrix(.14 0 0 -.14 461.302 270.399)" id="text_24"><use xlink:href="#Inter-Regular-63"/><use xlink:href="#Inter-Regular-61" x="55.824"/><use xlink:href="#Inter-Regular-6c" x="112.216"/><use xlink:href="#Inter-Regular-69" x="135.938"/><use xlink:href="#Inter-Regular-62" x="159.659"/><use xlink:href="#Inter-Regular-72" x="221.733"/><use xlink:href="#Inter-Regular-65" x="258.949"/><use xlink:href="#Inter-Regular-61" x="317.188"/><use xlink:href="#Inter-Regular-70" x="373.58"/><use xlink:href="#Inter-Regular-70" x="434.517"/><use xlink:href="#Inter-Regular-2f" x="495.455"/><use xlink:href="#Inter-Regular-69" x="531.108"/><use xlink:href="#Inter-Regular-6d" x="554.83"/><use xlink:href="#Inter-Regular-61" x="641.761"/><use xlink:href="#Inter-Regular-67" x="698.154"/><use xlink:href="#Inter-Regular-65" x="759.091"/><use xlink:href="#Inter-Regular-2d" x="817.33"/><use xlink:href="#Inter-Regular-61" x="863.352"/><use xlink:href="#Inter-Regular-63" x="919.744"/><use xlink:href="#Inter-Regular-74" x="975.568"/><use xlink:href="#Inter-Regular-69" x="1011.932"/><use xlink:href="#Inter-Regular-6f" x="1035.654"/><use xlink:href="#Inter-Regular-6e" x="1095.313"/><use xlink:href="#Inter-Regular-73" x="1153.835"/></g><g style="fill:#8c564b" transform="matrix(.14 0 0 -.14 461.302 284.399)" id="text_25"><use xlink:href="#Inter-Regular-73"/><use xlink:href="#Inter-Regular-74" x="52.273"/><use xlink:href="#Inter-Regular-65" x="88.636"/><use xlink:href="#Inter-Regular-66" x="146.875"/><use xlink:href="#Inter-Regular-61" x="182.955"/><use xlink:href="#Inter-Regular-6e" x="239.347"/><use xlink:href="#Inter-Regular-7a" x="297.869"/><use xlink:href="#Inter-Regular-77" x="351.989"/><use xlink:href="#Inter-Regular-65" x="433.239"/><use xlink:href="#Inter-Regular-69" x="491.477"/><use xlink:href="#Inter-Regular-66" x="515.199"/><use xlink:href="#Inter-Regular-65" x="551.278"/><use xlink:href="#Inter-Regular-6c" x="609.517"/><use xlink:href="#Inter-Regular-2f" x="633.239"/><use xlink:href="#Inter-Regular-67" x="668.892"/><use xlink:href="#Inter-Regular-69" x="729.83"/><use xlink:href="#Inter-Regular-74" x="753.551"/><use xlink:href="#Inter-Regular-2d" x="789.915"/><use xlink:href="#Inter-Regular-61" x="835.938"/><use xlink:href="#Inter-Regular-75" x="892.33"/><use xlink:href="#Inter-Regular-74" x="950.426"/><use xlink:href="#Inter-Regular-6f" x="986.79"/><use xlink:href="#Inter-Regular-2d" x="1046.449"/><use xlink:href="#Inter-Regular-63" x="1092.472"/><use xlink:href="#Inter-Regular-6f" x="1148.296"/><use xlink:href="#Inter-Regular-6d" x="1207.955"/><use xlink:href="#Inter-Regular-6d" x="1294.887"/><use xlink:href="#Inter-Regular-69" x="1381.818"/><use xlink:href="#Inter-Regular-74" x="1405.54"/><use xlink:href="#Inter-Regular-2d" x="1441.904"/><use xlink:href="#Inter-Regular-61" x="1487.926"/><use xlink:href="#Inter-Regular-63" x="1544.318"/><use xlink:href="#Inter-Regular-74" x="1600.142"/><use xlink:href="#Inter-Regular-69" x="1636.506"/><use xlink:href="#Inter-Regular-6f" x="1660.228"/><use xlink:href="#Inter-Regular-6e" x="1719.887"/></g><g style="fill:#e377c2" transform="matrix(.14 0 0 -.14 461.302 298.399)" id="text_26"><defs><path id="Inter-Regular-6a" d="M491 3491V-255c0-354-145-554-473-554H-82v-500H27c673 0 1000 409 1000 1054v3746H491zm264 582c209 0 381 163 381 363s-172 364-381 364-382-164-382-364 173-363 382-363z" transform="scale(.01563)"/></defs><use xlink:href="#Inter-Regular-6a"/><use xlink:href="#Inter-Regular-61" x="23.722"/><use xlink:href="#Inter-Regular-6d" x="80.114"/><use xlink:href="#Inter-Regular-65" x="167.045"/><use xlink:href="#Inter-Regular-73" x="225.284"/><use xlink:href="#Inter-Regular-67" x="277.557"/><use xlink:href="#Inter-Regular-65" x="338.494"/><use xlink:href="#Inter-Regular-6f" x="396.733"/><use xlink:href="#Inter-Regular-72" x="456.392"/><use xlink:href="#Inter-Regular-67" x="493.608"/><use xlink:href="#Inter-Regular-65" x="554.546"/><use xlink:href="#Inter-Regular-30" x="612.784"/><use xlink:href="#Inter-Regular-30" x="675.284"/><use xlink:href="#Inter-Regular-37" x="737.784"/><use xlink:href="#Inter-Regular-2f" x="794.887"/><use xlink:href="#Inter-Regular-67" x="830.54"/><use xlink:href="#Inter-Regular-69" x="891.477"/><use xlink:href="#Inter-Regular-74" x="915.199"/><use xlink:href="#Inter-Regular-68" x="951.563"/><use xlink:href="#Inter-Regular-75" x="1010.654"/><use xlink:href="#Inter-Regular-62" x="1068.75"/><use xlink:href="#Inter-Regular-2d" x="1130.824"/><use xlink:href="#Inter-Regular-61" x="1176.847"/><use xlink:href="#Inter-Regular-63" x="1233.239"/><use xlink:href="#Inter-Regular-74" x="1289.063"/><use xlink:href="#Inter-Regular-69" x="1325.426"/><use xlink:href="#Inter-Regular-76" x="1349.148"/><use xlink:href="#Inter-Regular-69" x="1404.83"/><use xlink:href="#Inter-Regular-74" x="1428.551"/><use xlink:href="#Inter-Regular-79" x="1464.915"/><use xlink:href="#Inter-Regular-2d" x="1520.597"/><use xlink:href="#Inter-Regular-72" x="1566.62"/><use xlink:href="#Inter-Regular-65" x="1603.836"/><use xlink:href="#Inter-Regular-61" x="1662.074"/><use xlink:href="#Inter-Regular-64" x="1718.466"/><use xlink:href="#Inter-Regular-6d" x="1780.54"/><use xlink:href="#Inter-Regular-65" x="1867.472"/></g><g style="fill:#b0b0b0" transform="matrix(.09716 0 0 -.09716 93.468 342.217)" id="text_27"><defs><path id="Inter-Regular-40" d="M3173-1227c463 0 1054 136 1336 254l-127 418c-164-54-691-236-1191-236C1636-791 809 82 809 1627c0 1518 846 2428 2273 2428 1445 0 2127-1019 2127-2037 0-1036-109-1500-573-1500-272 0-418 227-418 482v2055h-482v-255h-27c-63 200-418 373-873 327-681-72-1200-636-1200-1454 0-864 410-1528 1200-1555 519-18 791 237 900 500h28c54-391 545-527 863-527 964 0 1055 1036 1055 1918 0 1246-873 2473-2573 2473-1754 0-2800-1064-2800-2837 0-1836 1009-2872 2864-2872zM2909 582c-591 0-800 536-800 1118 0 527 300 982 818 982 546 0 837-218 837-982 0-755-246-1118-855-1118z" transform="scale(.01563)"/><path id="Inter-Regular-7c" d="M1273 6155H818v-7655h455v7655z" transform="scale(.01563)"/><path id="Inter-Regular-4e" d="M4255 4655h-555V991h-45L1109 4655H564V0h563v3655h46L3709 0h546v4655z" transform="scale(.01563)"/><path id="Inter-Regular-53" d="M3109 3491h546c-25 702-673 1227-1573 1227-891 0-1591-518-1591-1300 0-627 455-1000 1182-1209l573-164c490-136 927-309 927-772 0-509-491-846-1137-846-554 0-1045 246-1090 773H364C418 436 1036-82 2036-82c1073 0 1682 591 1682 1346 0 872-827 1154-1309 1281l-473 128c-345 91-900 272-900 772 0 446 410 773 1028 773 563 0 991-268 1045-727z" transform="scale(.01563)"/><path id="Inter-Regular-f6" d="M1909-73c946 0 1582 718 1582 1800 0 1091-636 1809-1582 1809-945 0-1582-718-1582-1809C327 645 964-73 1909-73zm0 482c-718 0-1045 618-1045 1318s327 1328 1045 1328 1046-628 1046-1328S2627 409 1909 409zm-654 3664c209 0 363 172 363 363 0 209-154 364-363 364-191 0-364-155-364-364 0-191 173-363 364-363zm1309 0c209 0 363 172 363 363 0 209-154 364-363 364-191 0-364-155-364-364 0-191 173-363 364-363z" transform="scale(.01563)"/><path id="Inter-Regular-43" d="M4309 3200c-173 955-936 1518-1873 1518-1190 0-2054-918-2054-2391C382 855 1246-64 2436-64c937 0 1700 564 1873 1519h-563c-137-646-691-991-1310-991-845 0-1509 654-1509 1863s664 1864 1509 1864c619 0 1173-346 1310-991h563z" transform="scale(.01563)"/><path id="Inter-Regular-42" d="M564 0h1682c1100 0 1554 536 1554 1236 0 737-509 1137-936 1164v45c400 110 754 373 754 973 0 682-454 1237-1427 1237H564V0zm563 500v1618h1146c609 0 991-409 991-882 0-409-282-736-1018-736H1127zm0 2109v1546h1064c618 0 891-328 891-737 0-491-400-809-909-809H1127z" transform="scale(.01563)"/><path id="Inter-Regular-59" d="m164 4655 1682-2737V0h563v1918l1682 2737h-645L2155 2482h-55L809 4655H164z" transform="scale(.01563)"/></defs><use xlink:href="#Inter-Regular-40"/><use xlink:href="#Inter-Regular-6e" x="93.608"/><use xlink:href="#Inter-Regular-73" x="152.131"/><use xlink:href="#Inter-Regular-63" x="204.403"/><use xlink:href="#Inter-Regular-68" x="260.227"/><use xlink:href="#Inter-Regular-6c" x="319.318"/><use xlink:href="#Inter-Regular-6f" x="343.04"/><use xlink:href="#Inter-Regular-65" x="402.699"/><use xlink:href="#Inter-Regular-20" x="460.938"/><use xlink:href="#Inter-Regular-2f" x="489.063"/><use xlink:href="#Inter-Regular-20" x="524.716"/><use xlink:href="#Inter-Regular-67" x="552.841"/><use xlink:href="#Inter-Regular-68" x="613.779"/><use xlink:href="#Inter-Regular-2d" x="672.869"/><use xlink:href="#Inter-Regular-74" x="718.892"/><use xlink:href="#Inter-Regular-72" x="755.256"/><use xlink:href="#Inter-Regular-65" x="792.472"/><use xlink:href="#Inter-Regular-6e" x="850.71"/><use xlink:href="#Inter-Regular-64" x="909.233"/><use xlink:href="#Inter-Regular-73" x="971.307"/><use xlink:href="#Inter-Regular-20" x="1023.58"/><use xlink:href="#Inter-Regular-7c" x="1051.705"/><use xlink:href="#Inter-Regular-20" x="1084.375"/><use xlink:href="#Inter-Regular-4e" x="1112.5"/><use xlink:href="#Inter-Regular-69" x="1187.784"/><use xlink:href="#Inter-Regular-63" x="1211.506"/><use xlink:href="#Inter-Regular-6f" x="1267.33"/><use xlink:href="#Inter-Regular-20" x="1326.989"/><use xlink:href="#Inter-Regular-53" x="1355.114"/><use xlink:href="#Inter-Regular-63" x="1418.892"/><use xlink:href="#Inter-Regular-68" x="1474.716"/><use xlink:href="#Inter-Regular-6c" x="1533.807"/><use xlink:href="#Inter-Regular-f6" x="1557.529"/><use xlink:href="#Inter-Regular-6d" x="1617.188"/><use xlink:href="#Inter-Regular-65" x="1704.12"/><use xlink:href="#Inter-Regular-72" x="1762.358"/><use xlink:href="#Inter-Regular-20" x="1799.574"/><use xlink:href="#Inter-Regular-7c" x="1827.699"/><use xlink:href="#Inter-Regular-20" x="1860.37"/><use xlink:href="#Inter-Regular-43" x="1888.495"/><use xlink:href="#Inter-Regular-43" x="1961.222"/><use xlink:href="#Inter-Regular-20" x="2033.949"/><use xlink:href="#Inter-Regular-42" x="2062.074"/><use xlink:href="#Inter-Regular-59" x="2127.131"/></g><path d="m258.802 306.262 9.018-10.487 9.319-2.557 9.018-1.334 9.319-2.039 9.318-2.742 8.417-2.186 9.32-1.557 9.017-1.964 9.32-1.853 9.017-1.408 9.32-1 9.318-1.927 9.018-1.742 9.319-2.335 9.018-1.334 9.319-2.223 9.319-2.076 8.417-2.186 9.318-2.186 9.019-1.742 9.318-2.224" clip-path="url(#p78c7b6648a)" style="fill:none;stroke:#d62728;stroke-width:1.5;stroke-linecap:square" id="line2d_30"/><path d="m139.461 306.262 9.319-2.372 9.018-1.667 9.319-.556 9.018-.853 9.319-1.408 9.319-.74 8.717-1.076 9.319-1.297 9.018-1.148 9.319-1.483 9.018-.852 9.319-1 9.319-1.335 9.018-1.853 9.319-1.667 9.018-1.594 9.319-1.593 9.318-1.112 8.417-1.63 9.32-1.816 9.017-2.112 9.32-2.113 9.017-1.334 9.32-1.779 9.318-2.186 9.018-1.742 9.319-2.075 9.018-1.556 9.319-1.446 9.319-3.075 8.417-1.631 9.318-2.15 9.019-1.593 9.318-1.927" clip-path="url(#p78c7b6648a)" style="fill:none;stroke:#2ca02c;stroke-width:1.5;stroke-linecap:square" id="line2d_31"/><path d="m93.468 306.262 9.32-1.26 9.017-.296 9.32-.26 9.017-.074 9.32-.037 9.318-.964 9.018-2.26 9.319-1.63 9.018-2.669 9.319-2.223 9.319-2.965 8.717-2.001 9.319-2.78 9.018-3.15 9.319-2.779 9.018-1.964 9.319-2.038 9.319-2.78 9.018-2.89 9.319-4.002 9.018-2.816 9.319-2.928 9.318-2.89 8.417-2.372 9.32-3.335 9.017-3.78 9.32-2.409 9.017-2.52 9.32-2.89 9.318-4.225 9.018-2.668 9.319-2.335 9.018-16.972 9.319-2.89 9.319-3.225 8.417-2.668 9.318-2.927 9.019-3.04 9.318-3.483" clip-path="url(#p78c7b6648a)" style="fill:none;stroke:#ff7f0e;stroke-width:1.5;stroke-linecap:square" id="line2d_32"/><path d="m258.802 306.262 9.018-.334 9.319-.555 9.018-.556 9.319-2.668 9.318-75.117 8.417-7.708 9.32-6.114 9.017-8.412 9.32-7.041 9.017-9.228 9.32-9.523 9.318-12.267 9.018-7.819 9.319-9.338 9.018-8.412 9.319-8.71 9.319-11.561 8.417-24.866 9.318-15.786L441.27 65.2l9.318-25.051" clip-path="url(#p78c7b6648a)" style="fill:none;stroke:#1f77b4;stroke-width:1.5;stroke-linecap:square" id="line2d_33"/></g></g><defs><clipPath id="p78c7b6648a"><path d="M93.468 40.15h357.12v266.112H93.468z"/></clipPath></defs></svg>