<svg height="475.328" viewBox="0 0 549.947 356.496" width="733.262" xmlns="http://www.w3.org/2000/svg" xmlns:xlink="http://www.w3.org/1999/xlink"><defs><style>*{stroke-linecap:butt;stroke-linejoin:round}</style></defs><g id="figure_1"><path d="M0 356.496h549.947V0H0z" style="fill:none" id="patch_1"/><g id="axes_1"><path d="M53.127 313.361h357.12V47.25H53.127z" style="fill:none" id="patch_2"/><path clip-path="url(#pd21f262442)" d="m81.899 313.361 15.847-.126 13.122-.228.161-.025 25.752-.404 4.185-.102 7.591-.151 16.318-.329 5.724-.177 2.559-.05 1.704-.152 8.235-.304 5.528-.303 3.891-.43.074-.076 3.177-.076 7.016-.581 7.492-.278 4.174-.152.418-.152 6.451-.303 7.438-.303 6.1-.582.391-.278 10.955-.582 5.813-.606 4.37-.734 10.136-.606 8.892-.885 26.383-1.467 2.965-.152 14.402-1.77 3.32-.303 14.718-1.492 4.117-.278 10.222-.885 6.694-.581 5.028-.304 1.416-.303 4.957-.581 8.703-.607 11.171-.734 2.411-.151 2.529-.304 6.466-.151 4.463-.329 4.634-.152h0" style="fill:none;stroke:#aec7e8;stroke-linecap:square;stroke-width:1.5" id="line2d_1"/><g id="matplotlib.axis_1"><g id="xtick_1"><g id="line2d_2"><defs><path d="M0 0v3.5" id="md2604a2d23" style="stroke:#969696;stroke-width:.4"/></defs><use style="fill:#969696;stroke:#969696;stroke-width:.4" x="86.829" xlink:href="#md2604a2d23" y="313.361"/></g><g style="fill:#969696" transform="matrix(.14 0 0 -.14 71.259 330.41)" id="text_1"><defs><path d="M281 2888q0 793 409 1202 410 410 1148 410 618 0 1012-375t394-969q0-462-227-780-226-317-667-557l-775-425q-684-375-775-863h2444V0H166q25 634 275 1056t781 728l806 469q322 185 469 383t147 545q0 344-241 578-240 235-650 235-453 0-678-299-225-298-231-807H281z" id="HelveticaWorld-Regular-32" transform="scale(.01563)"/><path d="M2719 2188q0 903-239 1354-239 452-702 452-453 0-697-452-243-451-243-1354 0-875 240-1340 241-464 700-464 463 0 702 448 239 449 239 1356zm603 0q0-1107-400-1709-400-601-1144-601-772 0-1156 623-384 624-384 1687 0 1090 393 1701 394 611 1147 611 744 0 1144-608t400-1704z" id="HelveticaWorld-Regular-30" transform="scale(.01563)"/><path d="M2297 0h-600v3194H647v447q550 18 818 176 269 158 391 683h441V0z" id="HelveticaWorld-Regular-31" transform="scale(.01563)"/><path d="M1434 2559q141-12 294-12 397 0 626 183 230 183 230 554 0 300-214 505t-617 205q-447 0-655-263-207-262-220-703H325q0 703 369 1087 369 385 1084 385 635 0 1013-327 378-326 378-857 0-685-578-928v-13q750-256 750-1050 0-634-422-1041-422-406-1197-406-634 0-1044 333-409 333-459 1164h581q13-519 256-755 244-236 703-236 444 0 713 247t269 622q0 410-257 619-256 209-793 209-128 0-257-6v484z" id="HelveticaWorld-Regular-33" transform="scale(.01563)"/></defs><use xlink:href="#HelveticaWorld-Regular-32"/><use x="55.615" xlink:href="#HelveticaWorld-Regular-30"/><use x="111.23" xlink:href="#HelveticaWorld-Regular-31"/><use x="166.846" xlink:href="#HelveticaWorld-Regular-33"/></g></g><g id="xtick_2"><use style="fill:#969696;stroke:#969696;stroke-width:.4" x="125.754" xlink:href="#md2604a2d23" y="313.361" id="line2d_3"/><g style="fill:#969696" transform="matrix(.14 0 0 -.14 110.183 330.41)" id="text_2"><defs><path d="M678 1581h1447v2041h-12L678 1581zm2010-487V0h-563v1094H159v550l2063 2856h466V1581h659v-487h-659z" id="HelveticaWorld-Regular-34" transform="scale(.01563)"/></defs><use xlink:href="#HelveticaWorld-Regular-32"/><use x="55.615" xlink:href="#HelveticaWorld-Regular-30"/><use x="111.23" xlink:href="#HelveticaWorld-Regular-31"/><use x="166.846" xlink:href="#HelveticaWorld-Regular-34"/></g></g><g id="xtick_3"><use style="fill:#969696;stroke:#969696;stroke-width:.4" x="164.678" xlink:href="#md2604a2d23" y="313.361" id="line2d_4"/><g style="fill:#969696" transform="matrix(.14 0 0 -.14 149.108 330.41)" id="text_3"><defs><path d="M941 2619q372 281 872 281 606 0 1042-403t436-1038q0-690-421-1139-420-448-1179-448-660 0-1041 323-381 324-444 918h582q43-363 284-555t669-192q415 0 681 287 266 288 266 735 0 456-279 731-278 275-718 275-500 0-835-428l-484 25 337 2406h2332v-544H1131L941 2619z" id="HelveticaWorld-Regular-35" transform="scale(.01563)"/></defs><use xlink:href="#HelveticaWorld-Regular-32"/><use x="55.615" xlink:href="#HelveticaWorld-Regular-30"/><use x="111.23" xlink:href="#HelveticaWorld-Regular-31"/><use x="166.846" xlink:href="#HelveticaWorld-Regular-35"/></g></g><g id="xtick_4"><use style="fill:#969696;stroke:#969696;stroke-width:.4" x="203.603" xlink:href="#md2604a2d23" y="313.361" id="line2d_5"/><g style="fill:#969696" transform="matrix(.14 0 0 -.14 188.032 330.41)" id="text_4"><defs><path d="M903 1381q0-440 262-719 263-278 685-278 403 0 642 284 239 285 239 748 0 403-236 675t-670 272q-422 0-672-266t-250-716zm1766 1922q-63 344-255 517-192 174-520 174-519 0-791-507-272-506-278-1159l13-12q359 553 1068 553 566 0 988-375t422-1053q0-672-400-1118-400-445-1078-445-782 0-1188 556-406 557-406 1660 0 1062 415 1734 416 672 1247 672 538 0 910-321 372-320 403-876h-550z" id="HelveticaWorld-Regular-36" transform="scale(.01563)"/></defs><use xlink:href="#HelveticaWorld-Regular-32"/><use x="55.615" xlink:href="#HelveticaWorld-Regular-30"/><use x="111.23" xlink:href="#HelveticaWorld-Regular-31"/><use x="166.846" xlink:href="#HelveticaWorld-Regular-36"/></g></g><g id="xtick_5"><use style="fill:#969696;stroke:#969696;stroke-width:.4" x="242.634" xlink:href="#md2604a2d23" y="313.361" id="line2d_6"/><g style="fill:#969696" transform="matrix(.14 0 0 -.14 227.063 330.41)" id="text_5"><defs><path d="M238 4403h3109v-494q-641-653-1172-1766Q1644 1031 1497 0H878q94 850 622 1954 528 1105 1213 1899H238v550z" id="HelveticaWorld-Regular-37" transform="scale(.01563)"/></defs><use xlink:href="#HelveticaWorld-Regular-32"/><use x="55.615" xlink:href="#HelveticaWorld-Regular-30"/><use x="111.23" xlink:href="#HelveticaWorld-Regular-31"/><use x="166.846" xlink:href="#HelveticaWorld-Regular-37"/></g></g><g id="xtick_6"><use style="fill:#969696;stroke:#969696;stroke-width:.4" x="281.559" xlink:href="#md2604a2d23" y="313.361" id="line2d_7"/><g style="fill:#969696" transform="matrix(.14 0 0 -.14 265.988 330.41)" id="text_6"><defs><path d="M1766 2597q347 0 573 198 227 199 227 527 0 294-218 483-217 189-620 189-359 0-555-199-195-198-195-504 0-328 244-511t544-183zm6-484q-434 0-681-241t-247-591q0-403 250-650t712-247q410 0 655 247t245 657q0 350-245 587-245 238-689 238zm1378 1228q0-678-578-947 397-178 567-471 170-292 170-623 0-641-413-1032-412-390-1112-390-612 0-1076 336T244 1306q0 763 762 1082-609 243-609 875 0 531 361 884t1001 353q641 0 1016-333t375-826z" id="HelveticaWorld-Regular-38" transform="scale(.01563)"/></defs><use xlink:href="#HelveticaWorld-Regular-32"/><use x="55.615" xlink:href="#HelveticaWorld-Regular-30"/><use x="111.23" xlink:href="#HelveticaWorld-Regular-31"/><use x="166.846" xlink:href="#HelveticaWorld-Regular-38"/></g></g><g id="xtick_7"><use style="fill:#969696;stroke:#969696;stroke-width:.4" x="320.483" xlink:href="#md2604a2d23" y="313.361" id="line2d_8"/><g style="fill:#969696" transform="matrix(.14 0 0 -.14 304.912 330.41)" id="text_7"><defs><path d="M1766 2009q384 0 624 259 241 260 241 766 0 416-228 688t-681 272q-391 0-632-275-240-275-240-738 0-472 225-722t691-250zm-82-506q-640 0-1028 397-387 397-387 1056 0 666 390 1105 391 439 1057 439 775 0 1175-522t400-1565q0-1082-410-1809-409-726-1225-726-637 0-987 358t-350 845h565q25-337 220-536 196-198 540-198 487 0 737 434 250 435 344 1247l-12 13q-363-538-1029-538z" id="HelveticaWorld-Regular-39" transform="scale(.01563)"/></defs><use xlink:href="#HelveticaWorld-Regular-32"/><use x="55.615" xlink:href="#HelveticaWorld-Regular-30"/><use x="111.23" xlink:href="#HelveticaWorld-Regular-31"/><use x="166.846" xlink:href="#HelveticaWorld-Regular-39"/></g></g><g id="xtick_8"><use style="fill:#969696;stroke:#969696;stroke-width:.4" x="359.408" xlink:href="#md2604a2d23" y="313.361" id="line2d_9"/><g style="fill:#969696" transform="matrix(.14 0 0 -.14 343.837 330.41)" id="text_8"><use xlink:href="#HelveticaWorld-Regular-32"/><use x="55.615" xlink:href="#HelveticaWorld-Regular-30"/><use x="111.23" xlink:href="#HelveticaWorld-Regular-32"/><use x="166.846" xlink:href="#HelveticaWorld-Regular-30"/></g></g><g id="xtick_9"><use style="fill:#969696;stroke:#969696;stroke-width:.4" x="398.439" xlink:href="#md2604a2d23" y="313.361" id="line2d_10"/><g style="fill:#969696" transform="matrix(.14 0 0 -.14 382.868 330.41)" id="text_9"><use xlink:href="#HelveticaWorld-Regular-32"/><use x="55.615" xlink:href="#HelveticaWorld-Regular-30"/><use x="111.23" xlink:href="#HelveticaWorld-Regular-32"/><use x="166.846" xlink:href="#HelveticaWorld-Regular-31"/></g></g></g><g id="matplotlib.axis_2"><g id="ytick_1"><path clip-path="url(#pd21f262442)" d="M53.127 262.82h357.12" style="fill:none;stroke:#969696;stroke-linecap:square;stroke-width:.3" id="line2d_11"/><g id="line2d_12"><defs><path d="M0 0h-3.5" id="m874250c147" style="stroke:#969696;stroke-width:.3"/></defs><use style="fill:#969696;stroke:#969696;stroke-width:.3" x="53.127" xlink:href="#m874250c147" y="262.819"/></g><g style="fill:#969696" transform="matrix(.14 0 0 -.14 14.985 267.844)" id="text_10"><use xlink:href="#HelveticaWorld-Regular-32"/><use x="55.615" xlink:href="#HelveticaWorld-Regular-30"/><use x="111.23" xlink:href="#HelveticaWorld-Regular-30"/><use x="166.846" xlink:href="#HelveticaWorld-Regular-30"/></g></g><g id="ytick_2"><path clip-path="url(#pd21f262442)" d="M53.127 212.251h357.12" style="fill:none;stroke:#969696;stroke-linecap:square;stroke-width:.3" id="line2d_13"/><use style="fill:#969696;stroke:#969696;stroke-width:.3" x="53.127" xlink:href="#m874250c147" y="212.251" id="line2d_14"/><g style="fill:#969696" transform="matrix(.14 0 0 -.14 14.985 217.276)" id="text_11"><use xlink:href="#HelveticaWorld-Regular-34"/><use x="55.615" xlink:href="#HelveticaWorld-Regular-30"/><use x="111.23" xlink:href="#HelveticaWorld-Regular-30"/><use x="166.846" xlink:href="#HelveticaWorld-Regular-30"/></g></g><g id="ytick_3"><path clip-path="url(#pd21f262442)" d="M53.127 161.684h357.12" style="fill:none;stroke:#969696;stroke-linecap:square;stroke-width:.3" id="line2d_15"/><use style="fill:#969696;stroke:#969696;stroke-width:.3" x="53.127" xlink:href="#m874250c147" y="161.684" id="line2d_16"/><g style="fill:#969696" transform="matrix(.14 0 0 -.14 14.985 166.709)" id="text_12"><use xlink:href="#HelveticaWorld-Regular-36"/><use x="55.615" xlink:href="#HelveticaWorld-Regular-30"/><use x="111.23" xlink:href="#HelveticaWorld-Regular-30"/><use x="166.846" xlink:href="#HelveticaWorld-Regular-30"/></g></g><g id="ytick_4"><path clip-path="url(#pd21f262442)" d="M53.127 111.116h357.12" style="fill:none;stroke:#969696;stroke-linecap:square;stroke-width:.3" id="line2d_17"/><use style="fill:#969696;stroke:#969696;stroke-width:.3" x="53.127" xlink:href="#m874250c147" y="111.116" id="line2d_18"/><g style="fill:#969696" transform="matrix(.14 0 0 -.14 14.985 116.14)" id="text_13"><use xlink:href="#HelveticaWorld-Regular-38"/><use x="55.615" xlink:href="#HelveticaWorld-Regular-30"/><use x="111.23" xlink:href="#HelveticaWorld-Regular-30"/><use x="166.846" xlink:href="#HelveticaWorld-Regular-30"/></g></g><g id="ytick_5"><path clip-path="url(#pd21f262442)" d="M53.127 60.549h357.12" style="fill:none;stroke:#969696;stroke-linecap:square;stroke-width:.3" id="line2d_19"/><use style="fill:#969696;stroke:#969696;stroke-width:.3" x="53.127" xlink:href="#m874250c147" y="60.549" id="line2d_20"/><g style="fill:#969696" transform="matrix(.14 0 0 -.14 7.2 65.573)" id="text_14"><use xlink:href="#HelveticaWorld-Regular-31"/><use x="55.615" xlink:href="#HelveticaWorld-Regular-30"/><use x="111.23" xlink:href="#HelveticaWorld-Regular-30"/><use x="166.846" xlink:href="#HelveticaWorld-Regular-30"/><use x="222.461" xlink:href="#HelveticaWorld-Regular-30"/></g></g></g><path clip-path="url(#pd21f262442)" d="m136.02 313.361 7.516-.505 4.156-.127 7.681-.278 11.712-.834 4.583-.278 1.813-.203.118-.379 6.538-.733 10.3-.759 5.825-.379 4.202-.455 4.497-.303.845-.076 6.031-.304 5.536-.733 28.86-2.25 4.65-.38 1.032-.176 16.42-1.315 2.199-.38 6.645-.556 3.87-.278 5.91-.48 1.962-.177 2.738-.38 5.107-.379 9.771-1.491 3.116-.38 1.425-.354 1.389-.177 7.918-.581 8.56-1.138 2.216-.38 2.94-.378 4.364-.354 4.595-.557 8.89-.758 2.095-.202 5.54-.38 5.037-.556 6.238-.556 4.397-.936 12.156-.96 1.705-.38 7.286-.556 13.724-1.34h0" style="fill:none;stroke:#17becf;stroke-linecap:square;stroke-width:1.5" id="line2d_21"/><path clip-path="url(#pd21f262442)" d="m153.885 313.361.047-.075 2.28-.026 5.129-.025.617-.05 2.92-.026 4.315-.025 2.976-.05 1.223-.026 3.642-.025 3.103-.05 1.746-.026 1.487-.025 1.818-.051 2.705-.101 2.138-.101 2.762-.101 2.627-.102 2.866-.05.71-.05 1.953-.051 1.32-.05 1.584-.051 2.392-.051 2.017-.101 3.159-.101 2.786-.203 3.19-.1.593-.102 2.3-.1 2.27-.102 3.043-.202 1.752-.203 1.558-.1 1.709-.102 2.525-.202 3.04-.202 1.592-.203 2.697-.202 1.812-.101 1.487-.101 2.79-.202 1.357-.203 2.374-.202.953-.101 2.27-.101 1.685-.101 2.113-.102 2.21-.202 2.948-.202 2.666-.202 2.702-.102 1.458-.1 3.162-.203 2.95-.202 1.813-.202 2.399-.203 1.374-.202 2.105-.202 2.255-.203 2.336-.404 2.566-.405 2.868-.404 2.61-.202.985-.203 2.065-.202 1.594-.202 2.108-.203 1.63-.202 1.703-.202 1.99-.202 2.607-.405 2.491-.202 1.183-.202 2.388-.405 2.182-.404 2.494-.405 1.35-.202 2.061-.203 2.102-.404 2.991-.405 1.337-.202 2.358-.202 1.457-.405 1.498-.404 2.847-.405 2.22-.404 2.655-.405 1.649-.404 1.589-.405 2.271-.405 1.752-.404 3.029-.405 2.186-.404 2.266-.405 2.38-.404 1.922-.405 1.366-.404 2.148-.405 1.673-.404 2.246-.405 1.965-.404 3.087-.81 1.427-.404 2.522-.405 2.312-.404 1.774-.405 2.842-.809 1.906-.404 1.798-.405 2.095-.404 2.722-.405 1.617-.329 2.084-.354 1.853-.252 1.391-.253 1.713-.354 1.755-.354 3.13-1.29 1.742-1.314" style="fill:none;stroke:#bcbd22;stroke-linecap:square;stroke-width:1.5" id="line2d_22"/><g style="fill:#1f77b4" transform="matrix(.14 0 0 -.14 413.818 50.91)" id="text_15"><defs><path d="M959 1516q0-538 262-832 263-293 654-293 428 0 665 348 238 349 238 945 0 654-228 954t-687 300q-447 0-676-352-228-352-228-1070zM422 3347h531v-472h13q359 569 1000 569 647 0 1020-471 373-470 373-1201 0-819-381-1344T1888-97q-582 0-891 450h-13v-1678H422v4672z" id="HelveticaWorld-Regular-70" transform="scale(.01563)"/><path d="M2497 3347h612L1913 63q-32-88-63-166-272-725-469-995-197-271-637-271-231 0-378 50v513q159-57 350-57 206 0 301 130 96 130 283 636L56 3347h635l897-2725h12l897 2725z" id="HelveticaWorld-Regular-79" transform="scale(.01563)"/><path d="M1100 2881V703q0-128 70-195 71-67 252-67h216V0q-307-44-422-44-353 0-516 169-162 169-162 547v2209H84v466h454v934h562v-934h538v-466h-538z" id="HelveticaWorld-Regular-74" transform="scale(.01563)"/><path d="M3150 0h-566v2188q0 403-156 576-156 174-509 174-435 0-685-282-250-281-250-831V0H422v4594h562V2900h13q384 544 981 544 550 0 861-288 311-287 311-878V0z" id="HelveticaWorld-Regular-68" transform="scale(.01563)"/><path d="M813 1678q0-559 253-920t718-361q482 0 732 378t250 903q0 531-250 901-250 371-732 371-446 0-709-349-262-348-262-923zm-575 0q0 747 415 1256 416 510 1131 510 732 0 1144-516 413-515 413-1250 0-737-410-1256Q2522-97 1784-97q-709 0-1128 503-418 503-418 1272z" id="HelveticaWorld-Regular-6f" transform="scale(.01563)"/><path d="M3150 0h-566v2059q0 475-166 677-165 202-549 202-378 0-632-288-253-287-253-825V0H422v3347h531v-472h13q397 569 1012 569 569 0 870-302 302-301 302-864V0z" id="HelveticaWorld-Regular-6e" transform="scale(.01563)"/><path d="M319-122h-428l1575 4838h422L319-122z" id="HelveticaWorld-Regular-2f" transform="scale(.01563)"/><path d="M422 3347h531v-472h13q378 569 1012 569 628 0 891-544 240 294 465 419t557 125q434 0 735-285 302-284 302-843V0h-562v2163q0 390-147 582-147 193-475 193-331 0-560-269-228-269-228-628V0h-562v2316q0 290-135 456-134 166-390 166-403 0-644-300t-241-813V0H422v3347z" id="HelveticaWorld-Regular-6d" transform="scale(.01563)"/></defs><use xlink:href="#HelveticaWorld-Regular-70"/><use x="54.494" xlink:href="#HelveticaWorld-Regular-79"/><use x="105.104" xlink:href="#HelveticaWorld-Regular-74"/><use x="132.789" xlink:href="#HelveticaWorld-Regular-68"/><use x="187.965" xlink:href="#HelveticaWorld-Regular-6f"/><use x="243.873" xlink:href="#HelveticaWorld-Regular-6e"/><use x="299.049" xlink:href="#HelveticaWorld-Regular-2f"/><use x="326.832" xlink:href="#HelveticaWorld-Regular-6d"/><use x="407.84" xlink:href="#HelveticaWorld-Regular-79"/><use x="457.449" xlink:href="#HelveticaWorld-Regular-70"/><use x="511.943" xlink:href="#HelveticaWorld-Regular-79"/></g><g style="fill:#ff7f0e" transform="matrix(.14 0 0 -.14 413.818 150.46)" id="text_16"><defs><path d="M422 3956v638h562v-638H422zM984 0H422v3347h562V0z" id="HelveticaWorld-Regular-69" transform="scale(.01563)"/><path d="M2534 2222q-121 716-793 716-416 0-669-333t-253-927q0-647 234-967 235-320 681-320 300 0 519 220t281 573h544q-84-621-439-951T1722-97q-659 0-1081 451-422 452-422 1227 0 850 422 1356 422 507 1184 507 556 0 886-333t367-889h-544z" id="HelveticaWorld-Regular-63" transform="scale(.01563)"/><path d="M984 0H422v3347h531v-556h13q365 653 940 653 91 0 147-19v-584h-209q-378 0-619-257-241-256-241-637V0z" id="HelveticaWorld-Regular-72" transform="scale(.01563)"/><path d="M2309 2394q-12 300-214 431-201 131-579 131-275 0-471-122-195-121-195-350 0-181 115-267 116-86 501-183l556-140q506-128 723-327 218-198 218-554 0-494-361-802T1638-97Q934-97 573 195q-360 293-367 880h544q13-347 230-516 217-168 651-168 353 0 561 140 208 141 208 391 0 178-135 284-134 107-531 197l-653 160q-397 100-586 298t-189 514q0 494 353 781 354 288 922 288 607 0 930-296 323-295 342-754h-544z" id="HelveticaWorld-Regular-73" transform="scale(.01563)"/><path d="M1100 2881V0H538v2881H78v466h460v575q0 378 229 557 230 180 642 180 141 0 254-12v-506q-100 12-229 12-187 0-261-92-73-92-73-298v-416h563v-466h-563z" id="HelveticaWorld-Regular-66" transform="scale(.01563)"/><path d="M831 1684q0-615 244-954t659-339q404 0 660 293 256 294 256 832 0 706-224 1064-223 358-679 358-459 0-688-305-228-305-228-949zM3188 191q0-807-388-1203-387-397-1169-397-562 0-895 259T353-409h563q43-244 226-388t530-144q472 0 712 254 241 253 241 821v238h-12Q2297-97 1722-97q-716 0-1094 528T250 1772q0 744 381 1208 382 464 1013 464 634 0 1000-569h12v472h532V191z" id="HelveticaWorld-Regular-67" transform="scale(.01563)"/></defs><use xlink:href="#HelveticaWorld-Regular-6d"/><use x="83.008" xlink:href="#HelveticaWorld-Regular-69"/><use x="105.029" xlink:href="#HelveticaWorld-Regular-63"/><use x="156.299" xlink:href="#HelveticaWorld-Regular-72"/><use x="187.867" xlink:href="#HelveticaWorld-Regular-6f"/><use x="243.775" xlink:href="#HelveticaWorld-Regular-73"/><use x="293.775" xlink:href="#HelveticaWorld-Regular-6f"/><use x="349.684" xlink:href="#HelveticaWorld-Regular-66"/><use x="377.369" xlink:href="#HelveticaWorld-Regular-74"/><use x="405.055" xlink:href="#HelveticaWorld-Regular-2f"/><use x="432.838" xlink:href="#HelveticaWorld-Regular-70"/><use x="487.332" xlink:href="#HelveticaWorld-Regular-79"/><use x="536.941" xlink:href="#HelveticaWorld-Regular-72"/><use x="569.51" xlink:href="#HelveticaWorld-Regular-69"/><use x="591.531" xlink:href="#HelveticaWorld-Regular-67"/><use x="647.439" xlink:href="#HelveticaWorld-Regular-68"/><use x="702.615" xlink:href="#HelveticaWorld-Regular-74"/></g><g style="fill:#2ca02c" transform="matrix(.14 0 0 -.14 413.818 182.465)" id="text_17"><defs><path d="M2456 1709q-62-65-245-106-183-40-683-106-369-44-542-182-173-137-173-362 0-275 146-428 147-153 469-153 403 0 715 229 313 230 313 558v550zM397 2328q19 566 367 841 349 275 1014 275 531 0 890-241 360-240 360-694V581q0-197 178-197 72 0 185 25V0q-153-63-319-63-288 0-429 123-140 124-146 387Q2016-97 1288-97q-475 0-763 269-287 269-287 700 0 441 250 712 250 272 728 329l993 121q269 41 269 397 0 263-195 403-195 141-592 141-353 0-543-156-189-156-226-491H397z" id="HelveticaWorld-Regular-61" transform="scale(.01563)"/><path d="M2719 1941q-44 543-288 770-243 227-647 227-409 0-661-288-251-287-267-709h1863zm537-891q-93-519-509-859-366-288-963-294-703 6-1116 461-412 455-412 1223 0 882 425 1372 425 491 1182 491 678 0 1059-507 381-506 381-1446H856q0-525 244-813 244-287 731-287 344 0 591 207 247 208 272 452h562z" id="HelveticaWorld-Regular-65" transform="scale(.01563)"/><path d="M2778 1684q0 672-238 963-237 291-677 291-447-7-676-349-228-342-228-989 0-659 275-934t641-275q416 0 659 342 244 342 244 951zM422 0v4594h562V2925h13q359 519 969 519 625 0 1009-464t384-1208q0-838-388-1354Q2584-97 1888-97q-613 0-922 513h-13V0H422z" id="HelveticaWorld-Regular-62" transform="scale(.01563)"/><path d="M3200 0h-722L1434 1691l-468-422V0H422v4594h544V1931l1440 1416h716L1844 2100 3200 0z" id="HelveticaWorld-Regular-6b" transform="scale(.01563)"/><path d="M1850 1484H281v575h1569v-575z" id="HelveticaWorld-Regular-2d" transform="scale(.01563)"/></defs><use xlink:href="#HelveticaWorld-Regular-66"/><use x="25.686" xlink:href="#HelveticaWorld-Regular-61"/><use x="80.617" xlink:href="#HelveticaWorld-Regular-63"/><use x="131.887" xlink:href="#HelveticaWorld-Regular-65"/><use x="187.307" xlink:href="#HelveticaWorld-Regular-62"/><use x="243.801" xlink:href="#HelveticaWorld-Regular-6f"/><use x="299.709" xlink:href="#HelveticaWorld-Regular-6f"/><use x="355.617" xlink:href="#HelveticaWorld-Regular-6b"/><use x="405.617" xlink:href="#HelveticaWorld-Regular-2f"/><use x="433.4" xlink:href="#HelveticaWorld-Regular-70"/><use x="487.895" xlink:href="#HelveticaWorld-Regular-79"/><use x="537.504" xlink:href="#HelveticaWorld-Regular-72"/><use x="569.072" xlink:href="#HelveticaWorld-Regular-65"/><use x="624.492" xlink:href="#HelveticaWorld-Regular-2d"/><use x="657.793" xlink:href="#HelveticaWorld-Regular-63"/><use x="709.063" xlink:href="#HelveticaWorld-Regular-68"/><use x="764.238" xlink:href="#HelveticaWorld-Regular-65"/><use x="819.658" xlink:href="#HelveticaWorld-Regular-63"/><use x="870.928" xlink:href="#HelveticaWorld-Regular-6b"/></g><g style="fill:#d62728" transform="matrix(.14 0 0 -.14 413.818 196.493)" id="text_18"><defs><path d="M838 1684q0-621 246-957 247-336 657-336 390 0 652 287 263 288 263 838 0 706-224 1064-223 358-679 358-434 0-675-285-240-284-240-969zM3225 0h-531v459h-13Q2363-97 1716-97q-697 0-1079 531-381 532-381 1338 0 744 378 1208 379 464 1016 464 628 0 1000-569l13 38v1681h562V0z" id="HelveticaWorld-Regular-64" transform="scale(.01563)"/><path d="M2522 3347h616L1863 0h-604L38 3347h653l872-2725h12l947 2725z" id="HelveticaWorld-Regular-76" transform="scale(.01563)"/><path d="M984 0H422v4594h562V0z" id="HelveticaWorld-Regular-6c" transform="scale(.01563)"/><path d="M984 3956H422v638h562v-638zm0-4450q0-478-227-664-226-186-629-186-115 0-237 19v487H38q237 0 310 71 74 70 74 339v3775h562V-494z" id="HelveticaWorld-Regular-6a" transform="scale(.01563)"/></defs><use xlink:href="#HelveticaWorld-Regular-64"/><use x="56.982" xlink:href="#HelveticaWorld-Regular-61"/><use x="109.664" xlink:href="#HelveticaWorld-Regular-76"/><use x="159.273" xlink:href="#HelveticaWorld-Regular-69"/><use x="181.295" xlink:href="#HelveticaWorld-Regular-64"/><use x="238.277" xlink:href="#HelveticaWorld-Regular-68"/><use x="293.453" xlink:href="#HelveticaWorld-Regular-61"/><use x="348.385" xlink:href="#HelveticaWorld-Regular-6c"/><use x="370.406" xlink:href="#HelveticaWorld-Regular-74"/><use x="398.092" xlink:href="#HelveticaWorld-Regular-65"/><use x="453.512" xlink:href="#HelveticaWorld-Regular-72"/><use x="486.08" xlink:href="#HelveticaWorld-Regular-2f"/><use x="513.863" xlink:href="#HelveticaWorld-Regular-6a"/><use x="535.885" xlink:href="#HelveticaWorld-Regular-65"/><use x="591.305" xlink:href="#HelveticaWorld-Regular-64"/><use x="648.287" xlink:href="#HelveticaWorld-Regular-69"/></g><g style="fill:#9467bd" transform="matrix(.14 0 0 -.14 413.818 228.54)" id="text_19"><defs><path d="M1141 2472h1234q466 0 700 204 234 205 234 621 0 372-225 569t-684 197H1141V2472zm0-2472H519v4594h2065q616 0 991-358t375-933q0-597-363-980-362-382-1003-382H1141V0z" id="HelveticaWorld-Regular-50" transform="scale(.01563)"/><path d="M3713 3213q-104 468-434 710-329 243-854 243-678 0-1091-493-412-492-412-1329 0-969 390-1443 391-473 1132-473 487 0 838 323 352 324 474 940h603q-121-885-671-1349T2350-122q-941 0-1505 647T281 2322q0 1109 589 1751 589 643 1555 643 800 0 1297-413 497-412 591-1090h-600z" id="HelveticaWorld-Regular-43" transform="scale(.01563)"/><path d="M4728 2291q0-1075-665-1791l628-487-313-372-697 537q-518-306-1190-306-1057 0-1649 698-592 699-592 1721 0 1031 592 1724 592 694 1649 694 1081 0 1659-703t578-1715zm-637 0q0 812-427 1340-426 528-1173 528-738 0-1169-531T891 2291q0-825 437-1347 438-522 1163-522 356 0 678 153l-481 372 315 384 588-453q500 525 500 1413z" id="HelveticaWorld-Regular-51" transform="scale(.01563)"/><path d="m2816 1888-678 2021h-13l-737-2021h1428zm-1619-550L716 0H78l1728 4594h703L4172 0h-678l-453 1338H1197z" id="HelveticaWorld-Regular-41" transform="scale(.01563)"/></defs><use xlink:href="#HelveticaWorld-Regular-50"/><use x="64.648" xlink:href="#HelveticaWorld-Regular-79"/><use x="114.258" xlink:href="#HelveticaWorld-Regular-43"/><use x="186.572" xlink:href="#HelveticaWorld-Regular-51"/><use x="264.355" xlink:href="#HelveticaWorld-Regular-41"/><use x="331.055" xlink:href="#HelveticaWorld-Regular-2f"/><use x="358.838" xlink:href="#HelveticaWorld-Regular-70"/><use x="413.332" xlink:href="#HelveticaWorld-Regular-79"/><use x="462.941" xlink:href="#HelveticaWorld-Regular-6c"/><use x="484.963" xlink:href="#HelveticaWorld-Regular-69"/><use x="506.984" xlink:href="#HelveticaWorld-Regular-6e"/><use x="562.16" xlink:href="#HelveticaWorld-Regular-74"/></g><g style="fill:#8c564b" transform="matrix(.14 0 0 -.14 413.818 242.54)" id="text_20"><use xlink:href="#HelveticaWorld-Regular-50"/><use x="64.648" xlink:href="#HelveticaWorld-Regular-79"/><use x="114.258" xlink:href="#HelveticaWorld-Regular-43"/><use x="186.572" xlink:href="#HelveticaWorld-Regular-51"/><use x="264.355" xlink:href="#HelveticaWorld-Regular-41"/><use x="331.055" xlink:href="#HelveticaWorld-Regular-2f"/><use x="358.838" xlink:href="#HelveticaWorld-Regular-62"/><use x="415.332" xlink:href="#HelveticaWorld-Regular-61"/><use x="470.264" xlink:href="#HelveticaWorld-Regular-6e"/><use x="525.439" xlink:href="#HelveticaWorld-Regular-64"/><use x="582.422" xlink:href="#HelveticaWorld-Regular-69"/><use x="604.443" xlink:href="#HelveticaWorld-Regular-74"/></g><g style="fill:#e377c2" transform="matrix(.14 0 0 -.14 413.818 256.54)" id="text_21"><defs><path d="M391 3347h562V1125q0-369 167-552 168-182 480-182 434 0 678 307 244 308 244 805v1844h562V0h-531v488l-12 12Q2222-97 1478-97q-481 0-784 262-303 263-303 776v2406z" id="HelveticaWorld-Regular-75" transform="scale(.01563)"/></defs><use xlink:href="#HelveticaWorld-Regular-70"/><use x="54.494" xlink:href="#HelveticaWorld-Regular-79"/><use x="105.104" xlink:href="#HelveticaWorld-Regular-74"/><use x="132.789" xlink:href="#HelveticaWorld-Regular-68"/><use x="187.965" xlink:href="#HelveticaWorld-Regular-6f"/><use x="243.873" xlink:href="#HelveticaWorld-Regular-6e"/><use x="299.049" xlink:href="#HelveticaWorld-Regular-2d"/><use x="332.35" xlink:href="#HelveticaWorld-Regular-73"/><use x="382.35" xlink:href="#HelveticaWorld-Regular-65"/><use x="437.77" xlink:href="#HelveticaWorld-Regular-63"/><use x="489.039" xlink:href="#HelveticaWorld-Regular-75"/><use x="543.824" xlink:href="#HelveticaWorld-Regular-72"/><use x="576.393" xlink:href="#HelveticaWorld-Regular-69"/><use x="598.414" xlink:href="#HelveticaWorld-Regular-74"/><use x="626.1" xlink:href="#HelveticaWorld-Regular-79"/><use x="675.709" xlink:href="#HelveticaWorld-Regular-2f"/><use x="703.492" xlink:href="#HelveticaWorld-Regular-70"/><use x="757.986" xlink:href="#HelveticaWorld-Regular-79"/><use x="808.596" xlink:href="#HelveticaWorld-Regular-74"/></g><g style="fill:#7f7f7f" transform="matrix(.14 0 0 -.14 413.818 270.54)" id="text_22"><use xlink:href="#HelveticaWorld-Regular-50"/><use x="64.648" xlink:href="#HelveticaWorld-Regular-79"/><use x="114.258" xlink:href="#HelveticaWorld-Regular-43"/><use x="186.572" xlink:href="#HelveticaWorld-Regular-51"/><use x="264.355" xlink:href="#HelveticaWorld-Regular-41"/><use x="331.055" xlink:href="#HelveticaWorld-Regular-2f"/><use x="358.838" xlink:href="#HelveticaWorld-Regular-70"/><use x="415.332" xlink:href="#HelveticaWorld-Regular-72"/><use x="446.9" xlink:href="#HelveticaWorld-Regular-6f"/><use x="502.809" xlink:href="#HelveticaWorld-Regular-73"/><use x="552.809" xlink:href="#HelveticaWorld-Regular-70"/><use x="609.303" xlink:href="#HelveticaWorld-Regular-65"/><use x="664.723" xlink:href="#HelveticaWorld-Regular-63"/><use x="715.992" xlink:href="#HelveticaWorld-Regular-74"/><use x="743.678" xlink:href="#HelveticaWorld-Regular-6f"/><use x="799.586" xlink:href="#HelveticaWorld-Regular-72"/></g><g style="fill:#bcbd22" transform="matrix(.14 0 0 -.14 413.818 284.54)" id="text_23"><use xlink:href="#HelveticaWorld-Regular-50"/><use x="64.648" xlink:href="#HelveticaWorld-Regular-79"/><use x="114.258" xlink:href="#HelveticaWorld-Regular-43"/><use x="186.572" xlink:href="#HelveticaWorld-Regular-51"/><use x="264.355" xlink:href="#HelveticaWorld-Regular-41"/><use x="331.055" xlink:href="#HelveticaWorld-Regular-2f"/><use x="358.838" xlink:href="#HelveticaWorld-Regular-66"/><use x="386.523" xlink:href="#HelveticaWorld-Regular-6c"/><use x="408.545" xlink:href="#HelveticaWorld-Regular-61"/><use x="463.477" xlink:href="#HelveticaWorld-Regular-6b"/><use x="511.102" xlink:href="#HelveticaWorld-Regular-65"/><use x="566.521" xlink:href="#HelveticaWorld-Regular-38"/></g><g style="fill:#17becf" transform="matrix(.14 0 0 -.14 413.818 298.54)" id="text_24"><use xlink:href="#HelveticaWorld-Regular-50"/><use x="64.648" xlink:href="#HelveticaWorld-Regular-79"/><use x="114.258" xlink:href="#HelveticaWorld-Regular-43"/><use x="186.572" xlink:href="#HelveticaWorld-Regular-51"/><use x="264.355" xlink:href="#HelveticaWorld-Regular-41"/><use x="331.055" xlink:href="#HelveticaWorld-Regular-2f"/><use x="358.838" xlink:href="#HelveticaWorld-Regular-70"/><use x="413.332" xlink:href="#HelveticaWorld-Regular-79"/><use x="462.941" xlink:href="#HelveticaWorld-Regular-66"/><use x="490.627" xlink:href="#HelveticaWorld-Regular-6c"/><use x="512.648" xlink:href="#HelveticaWorld-Regular-61"/><use x="567.58" xlink:href="#HelveticaWorld-Regular-6b"/><use x="615.205" xlink:href="#HelveticaWorld-Regular-65"/><use x="670.625" xlink:href="#HelveticaWorld-Regular-73"/></g><g style="fill:#aec7e8" transform="matrix(.14 0 0 -.14 413.818 312.54)" id="text_25"><use xlink:href="#HelveticaWorld-Regular-6b"/><use x="50" xlink:href="#HelveticaWorld-Regular-6c"/><use x="72.021" xlink:href="#HelveticaWorld-Regular-65"/><use x="127.441" xlink:href="#HelveticaWorld-Regular-6e"/><use x="182.617" xlink:href="#HelveticaWorld-Regular-2f"/><use x="210.4" xlink:href="#HelveticaWorld-Regular-70"/><use x="264.895" xlink:href="#HelveticaWorld-Regular-79"/><use x="314.504" xlink:href="#HelveticaWorld-Regular-6c"/><use x="336.525" xlink:href="#HelveticaWorld-Regular-61"/><use x="391.457" xlink:href="#HelveticaWorld-Regular-6d"/><use x="474.465" xlink:href="#HelveticaWorld-Regular-61"/></g><g style="fill:#969696" transform="matrix(.09716 0 0 -.09716 53.127 347.157)" id="text_26"><defs><path d="M2463 2456h2018V0h-403l-150 594q-294-375-691-546-396-170-824-170-691 0-1155 301-464 302-721 833-256 532-256 1326 0 990 589 1684t1586 694q744 0 1300-416 557-416 647-1100h-600q-109 453-462 709-353 257-916 257-678 0-1091-511-412-511-412-1352 0-978 409-1436 410-458 1119-458 463 0 783 183t492 497q172 314 172 836H2463v531z" id="HelveticaWorld-Regular-47" transform="scale(.01563)"/><path d="M4153 0h-622v2144H1131V0H519v4594h612V2694h2400v1900h622V0z" id="HelveticaWorld-Regular-48" transform="scale(.01563)"/><path d="M1141 0H519v4594h622V0z" id="HelveticaWorld-Regular-49" transform="scale(.01563)"/><path d="M603 4716h466V-122H603v4838z" id="HelveticaWorld-Regular-7c" transform="scale(.01563)"/><path d="M3559 4594h600V0h-690L1125 3713h-12V0H519v4594h728L3547 884h12v3710z" id="HelveticaWorld-Regular-4e" transform="scale(.01563)"/><path d="M3225 3250q-19 438-327 686-307 248-810 248-507 0-779-208-271-207-271-598 0-209 118-359 119-150 425-222l1313-300q531-116 787-440 257-323 257-788 0-681-500-1036T2138-122q-610 0-962 156-351 157-623 497-272 341-272 953h582q0-512 340-794 341-281 928-281 569 0 886 202t317 573q0 338-189 505t-739 295l-990 232q-494 112-738 392t-244 689q0 619 417 1019 418 400 1165 400 843 0 1301-352 458-351 492-1114h-584z" id="HelveticaWorld-Regular-53" transform="scale(.01563)"/><path d="M813 1678q0-559 253-920t718-361q482 0 732 378t250 903q0 531-250 901-250 371-732 371-446 0-709-349-262-348-262-923zm-575 0q0 747 415 1256 416 510 1131 510 732 0 1144-516 413-515 413-1250 0-737-410-1256Q2522-97 1784-97q-709 0-1128 503-418 503-418 1272zm2351 2266h-575v650h575v-650zm-1038 0H976v650h575v-650z" id="HelveticaWorld-Regular-f6" transform="scale(.01563)"/><path d="M519 4594h2015q594 0 947-322t353-834q0-310-155-565-154-254-460-395 428-162 629-431 202-269 202-691 0-593-428-975Q3194 0 2491 0H519v4594zm612-4063h1325q488 0 731 226 244 227 244 612 0 390-272 582-271 193-803 193H1131V531zm0 2119h1128q494 0 724 179 230 180 230 562 0 328-218 500-217 172-729 172H1131V2650z" id="HelveticaWorld-Regular-42" transform="scale(.01563)"/><path d="M2388 0h-622v1850L31 4594h725l1319-2206 1316 2206h731L2388 1850V0z" id="HelveticaWorld-Regular-59" transform="scale(.01563)"/></defs><use xlink:href="#HelveticaWorld-Regular-47"/><use x="77.1" xlink:href="#HelveticaWorld-Regular-69"/><use x="99.121" xlink:href="#HelveticaWorld-Regular-74"/><use x="126.807" xlink:href="#HelveticaWorld-Regular-48"/><use x="199.805" xlink:href="#HelveticaWorld-Regular-75"/><use x="254.59" xlink:href="#HelveticaWorld-Regular-62"/><use x="311.084" xlink:href="#HelveticaWorld-Regular-20"/><use x="335.498" xlink:href="#HelveticaWorld-Regular-41"/><use x="402.197" xlink:href="#HelveticaWorld-Regular-50"/><use x="466.846" xlink:href="#HelveticaWorld-Regular-49"/><use x="492.627" xlink:href="#HelveticaWorld-Regular-20"/><use x="517.041" xlink:href="#HelveticaWorld-Regular-76"/><use x="566.65" xlink:href="#HelveticaWorld-Regular-69"/><use x="588.672" xlink:href="#HelveticaWorld-Regular-61"/><use x="643.604" xlink:href="#HelveticaWorld-Regular-20"/><use x="668.018" xlink:href="#HelveticaWorld-Regular-73"/><use x="718.018" xlink:href="#HelveticaWorld-Regular-74"/><use x="745.703" xlink:href="#HelveticaWorld-Regular-61"/><use x="800.635" xlink:href="#HelveticaWorld-Regular-72"/><use x="832.203" xlink:href="#HelveticaWorld-Regular-67"/><use x="888.111" xlink:href="#HelveticaWorld-Regular-72"/><use x="919.68" xlink:href="#HelveticaWorld-Regular-61"/><use x="974.611" xlink:href="#HelveticaWorld-Regular-70"/><use x="1031.105" xlink:href="#HelveticaWorld-Regular-68"/><use x="1086.281" xlink:href="#HelveticaWorld-Regular-20"/><use x="1110.695" xlink:href="#HelveticaWorld-Regular-7c"/><use x="1136.672" xlink:href="#HelveticaWorld-Regular-20"/><use x="1161.086" xlink:href="#HelveticaWorld-Regular-4e"/><use x="1234.182" xlink:href="#HelveticaWorld-Regular-69"/><use x="1256.203" xlink:href="#HelveticaWorld-Regular-63"/><use x="1307.473" xlink:href="#HelveticaWorld-Regular-6f"/><use x="1363.381" xlink:href="#HelveticaWorld-Regular-20"/><use x="1387.795" xlink:href="#HelveticaWorld-Regular-53"/><use x="1454.006" xlink:href="#HelveticaWorld-Regular-63"/><use x="1505.275" xlink:href="#HelveticaWorld-Regular-68"/><use x="1560.451" xlink:href="#HelveticaWorld-Regular-6c"/><use x="1582.473" xlink:href="#HelveticaWorld-Regular-f6"/><use x="1638.381" xlink:href="#HelveticaWorld-Regular-6d"/><use x="1721.389" xlink:href="#HelveticaWorld-Regular-65"/><use x="1776.809" xlink:href="#HelveticaWorld-Regular-72"/><use x="1809.377" xlink:href="#HelveticaWorld-Regular-20"/><use x="1833.791" xlink:href="#HelveticaWorld-Regular-7c"/><use x="1859.768" xlink:href="#HelveticaWorld-Regular-20"/><use x="1884.182" xlink:href="#HelveticaWorld-Regular-43"/><use x="1956.496" xlink:href="#HelveticaWorld-Regular-43"/><use x="2028.811" xlink:href="#HelveticaWorld-Regular-20"/><use x="2053.225" xlink:href="#HelveticaWorld-Regular-42"/><use x="2116.037" xlink:href="#HelveticaWorld-Regular-59"/></g><g style="fill:#969696" transform="matrix(.14 0 0 -.14 158.992 17.25)" id="text_27"><use xlink:href="#HelveticaWorld-Regular-4e"/><use x="73.096" xlink:href="#HelveticaWorld-Regular-75"/><use x="127.881" xlink:href="#HelveticaWorld-Regular-6d"/><use x="210.889" xlink:href="#HelveticaWorld-Regular-62"/><use x="267.383" xlink:href="#HelveticaWorld-Regular-65"/><use x="322.803" xlink:href="#HelveticaWorld-Regular-72"/><use x="355.371" xlink:href="#HelveticaWorld-Regular-20"/><use x="379.785" xlink:href="#HelveticaWorld-Regular-6f"/><use x="435.693" xlink:href="#HelveticaWorld-Regular-66"/><use x="463.379" xlink:href="#HelveticaWorld-Regular-20"/><use x="487.793" xlink:href="#HelveticaWorld-Regular-47"/><use x="564.893" xlink:href="#HelveticaWorld-Regular-69"/><use x="586.914" xlink:href="#HelveticaWorld-Regular-74"/><use x="614.6" xlink:href="#HelveticaWorld-Regular-48"/><use x="687.598" xlink:href="#HelveticaWorld-Regular-75"/><use x="742.383" xlink:href="#HelveticaWorld-Regular-62"/><use x="798.877" xlink:href="#HelveticaWorld-Regular-20"/><use x="823.291" xlink:href="#HelveticaWorld-Regular-73"/><use x="873.291" xlink:href="#HelveticaWorld-Regular-74"/><use x="900.977" xlink:href="#HelveticaWorld-Regular-61"/><use x="955.908" xlink:href="#HelveticaWorld-Regular-72"/><use x="988.477" xlink:href="#HelveticaWorld-Regular-73"/></g><path clip-path="url(#pd21f262442)" d="m119.673 313.361.927-.252 4.92-.279 1.399-.657 8.265-.405 12.273-.53 3.868-.456 3.226-.075 2.22-.531.07-1.062.951-3.186.802-.531 6.625-.784 2.756-.278 2.623-.53 6.546-.785 2.668-.404 3.936-.253 1.642-.101 5.889-.177.885-.127 3.29-.126 4.365-.405 3.242-.278 4.899-.53 3.185-.532 2.435-.252 5.929-.279 1.212-.252 4.07-.279 5.552-.657 2.2-.126 4.425-.531 9.92-.531 2.897-.278 3.341-.253 11.502-1.189 2.27-.151 1.577-.253 4.788-.329 3.15-.202 3.93-.278 3.607-.253.157-.278.029-.531.175-1.062.918-.531 1.178-.253 6.824-.809 2.785-.253 1.51-.278 4.641-.53 4.276-.785 2.069-.278 3.289-.253 13.124-1.592 3.65-.203 5.3-.328 1.796-.279 11.303-1.061 3.766-.253 2.144-.278 3.372-.253 6.186-.531 1.763-.278 6.91-.784 11.46-1.34 3.209-.253 3.958-.278 2.574-.784 6.286-.607 3.34-.227 3.481-.708 4.298-.43h0" style="fill:none;stroke:#7f7f7f;stroke-linecap:square;stroke-width:1.5" id="line2d_23"/><path clip-path="url(#pd21f262442)" d="m235.64 313.361 17.738-.025.809-.05.153-.102.06-.202.03-.404.022-.784.19-1.568 3.091-3.16 2.947-1.568 2.527-.784 1.404-.809 2.091-.784 2.159-.783 1.859-1.593 2.006-.784 2.4-.784 2.847-.784 2.616-.809 3.065-.784 2.878-.783 1.71-.784 2.01-.81 2.553-6.32 2.757-6.321.955-1.568 2.608-1.593 2.435-1.567 2.015-.784 2.687-.809 2.65-.784 1.214-.38 2.757-.404 1.576-.783 1.829-.81 2.787-.783 2.826-.784 1.606-.38 2.09-.404 2.7-.404 2.029-.203 1.523-.202 2.312-.177 2.179-.202 2.181-.203 1.404-.202 3.07-.379 2.256-.202 1.53-.203 2.95-.379 2.093-.202 1.604-.202 1.313-.203 2.26-.202 1.86-.202 1.491-.202 1.042-.177 2.554-.203 2.478-.202 1.556-.202 3.12-.38 3.067-.404 1.502-.177 2.29-.101.948-.101 2.217-.101 1.382-.102 1.363-.202 1.771-.202 1.787-.101 2.87-.101 1.889-.203 2.878-.202 2.593-.05.609-.051 1.875-.05 1.7-.076.24-.152 2.57-.101.637-.101 2.156-.127 2.514-.126" style="fill:none;stroke:#e377c2;stroke-linecap:square;stroke-width:1.5" id="line2d_24"/><path clip-path="url(#pd21f262442)" d="m293.993 313.361 2.99-2.2 2.924-2.224 2.883-2.225 1.921-1.113 1.283-1.112 1.948-2.2 2.797-2.225 1.68-1.112 2.362-1.113 1.71-1.112 1.875-1.113 1.693-1.087 2.193-1.113 1.699-1.112 1.54-1.113 1.885-2.224 1.612-2.225 3-2.225 2.24-1.113 1.147-1.112 2.84-2.225 3.065-2.225 2.733-2.2 3.198-2.225 2.759-2.225 1.472-1.112 1.792-1.113 1.685-1.087 2.061-1.113 1.873-1.112 1.476-1.113 3-2.225 1.718-2.225 2.586-2.2 2.484-1.112 1.717-1.112 2.787-2.225 1.669-1.113 2.09-1.112 2.768-1.113 2.107-1.112 1.755-1.113 1.801-1.112 2.228-1.113 1.818-1.112 2.215-1.113 1.989-1.112 2.015-.936 1.606-.96 2.063-.91 1.367-.936 1.642-.986 1.675-1.012 2.447-1.365 2.34-1.365" style="fill:none;stroke:#8c564b;stroke-linecap:square;stroke-width:1.5" id="line2d_25"/><path clip-path="url(#pd21f262442)" d="m201.2 313.361.259-.606 2.758-.304 1.786-.303 2.624-.607 2.124-.607 2.635-.607 1.196-.303 2.208-.303 2.247-.607 3-.632 3.137-.607 2.06-.607 3.076-1.214 2.222-.606 2.5-.607 2.53-.607 2.14-.632 2.199-.607 2.175-.607 2.357-.607 1.922-.606 3.064-1.214 2.29-.607 1.663-.632 3.102-.607 2.096-.607 2.533-.606 2.55-.632 1.863-.607 1.785-.607 1.55-.607 1.896-.632 1.727-.607 1.99-.607 1.718-.606 1.582-.607 3.008-1.214 2.465-1.239 2.931-1.213 2.603-1.214 2.128-.607 1.612-.607 2.898-1.239 2.286-1.213 1.882-1.214 1.949-2.452 1.663-1.214 2.327-1.239 2.1-2.452 2.667-1.214 2.386-1.214 2.987-1.213 2.26-1.24 2.581-1.213 2.769-1.213 2.139-1.214 2.092-1.239 2.552-1.214 1.996-.606 1.697-.607 1.969-.607 1.67-.607 2.023-1.239 1.824-1.213 2.55-1.24 2.202-1.213 2.622-1.239 2.83-1.213 2.71-1.214 1.696-.607 1.724-.607 2.737-1.239 2.826-1.213 2.034-1.214 2.373-1.213 2.163-1.24 1.83-1.213 2.277-1.214 2.44-1.213 2.756-1.24 3.138-1.213 1.426-.607 2.255-.632 3.088-1.213 1.467-.607 2.675-.632 2.625-.607.985-.607 1.618-.556 1.853-.582 1.58-.682 1.712-.683 2.54-.38.681-.378 1.558-.759" style="fill:none;stroke:#9467bd;stroke-linecap:square;stroke-width:1.5" id="line2d_26"/><path clip-path="url(#pd21f262442)" d="m53.127 313.361 1.99-9.152.814-.101 9.222-.354 21.56-.405 4.745-.05 4.418-1.846 1.601-.455 2.083-.456 2.795-.91 4.276-.935.69-.91 1.276-.456 2.246-.455 2.38-.91 1.79-.935 3.236-.91 6.21-1.366 1.707-.455 3.081-.455 3.408-.936 2.303-.455 2.472-.91 3.677-.91 2.91-.936 2.068-.455 1.463-.455.98-.455 2.64-.48 1.51-.456 1.894-.455 2.434-.935 5.403-1.365 6.222-1.82 2.121-.481 1.413-.455 2.48-.455 5.778-1.82 5.863-1.847 1.992-.91 3.13-.91 5.427-1.846 2.21-.935 2.815-.91 2.162-.936 5.452-1.82 8.183-3.211 1.79-.456 1.319-.455 2.174-.455 3.17-.935 4.06-.91 1.41-.456 1.936-.455 2.556-.91 3.067-.935 5.159-1.846 4.08-1.846 4.143-2.73 1.86-.936 2.29-.91 3.18-.91 9.273-3.667 7.48-3.691 5.342-1.846 1.441-.91 5.888-2.756 2.331-.91 1.948-.91 9.492-3.667 1.717-.91 2.74-.935 3.41-1.846 17.076-6.422 6.998-2.756 2.693-.91 3.148-.91 7.549-2.756 3.755-.936 7.71-2.756 1.87-.91 2.67-.91 1.806-.936 2.105-.91 7.065-3.666 2.037-.91 4.904-1.846 2.105-.455 1.218-.455 9.43-2.781 5.345-1.846 3.143-1.062 4.752-1.037 1.892-.607h0" style="fill:none;stroke:#d62728;stroke-linecap:square;stroke-width:1.5" id="line2d_27"/><path clip-path="url(#pd21f262442)" d="m295.493 313.361.643-31.908.932-3.97 1.533-1.997 2.19-1.997 2.693-3.995 1.826-1.997 1.505-.987 2.053-1.01 1.566-.987 2.077-1.011 2.123-.986 3.19-1.012 2.917-.986 1.885-1.011 2.62-.986 2.025-1.012 2.708-3.994 1.368-.986 1.935-1.012 1.824-1.997 1.965-.986 1.998-.986 1.848-.986 1.972-.506 1.51-.506 1.11-3.995 2.26-1.997 2.003-.986 2.122-1.011 1.567-.987 2.895-1.01 2.458-.987 2.08-1.011 1.445-.48 2.347-.506 1.471-.48 2.141-.506 1.917-.48 1.7-.507 1.346-1.01 1.929-.987 2.658-1.011 1.71-.48 2.095-.506 1.19-1.012.185-7.99.298-15.953 1.598-7.99 2.137-1.998 1.61-.986 2.041-1.011 2.542-1.997 1.828-1.998 1.607-.708 1.862-.733 2.106-.683 1.453-.708 2.22-.404 1.116-.43 2.987-.86 1.813-.86" style="fill:none;stroke:#2ca02c;stroke-linecap:square;stroke-width:1.5" id="line2d_28"/><path clip-path="url(#pd21f262442)" d="m329.056 313.361 1.297-75.27 1.401-9.405 2.925-9.406 2.135-4.702 1.97-2.352 2.196-1.163 1.945-1.188 1.473-1.163 1.988-1.189 2.42-2.351 1.945-2.351 2.285-1.189 1.972-1.188 3.04-2.351 2.127-1.164 2.418-1.188 2.08-2.351 3.137-2.352 1.996-1.163 1.595-1.188 1.287-2.351 2.33-1.163 1.279-1.189 2.519-2.351 1.035-4.703 2.408-2.351 1.899-2.352 2.961-2.351 2.044-2.352 1.365-1.163 1.86-1.188 2.678-2.377 1.9-1.466 1.721-1.467 2.314-2.376 1.1-2.402 1.908-1.644 1.44-1.643 2.537-2.478 2.244-2.478" style="fill:none;stroke:#ff7f0e;stroke-linecap:square;stroke-width:1.5" id="line2d_29"/><path clip-path="url(#pd21f262442)" d="m84.223 312.628 22.308-.177.192-.025 1.88-.936 8.992-.505 3.123-.177 7.363-.531 18.47-.658 1.08-.455 2.17-.48.23-.936.221-1.87.738-.936 3.747-.683 2.32-.253 4.805-.935 3.422-.936 3.835-.935 6.223-.936 1.358-.455 2.66-.48 1.518-.48 4.1-.708 1.889-.228 8.126-1.871 1.721-.48 5.397-1.871 2.945-.456 1.073-.48 2.794-1.896 2.195-3.742 4.245-1.871 1.721-1.896 2.818-3.742 2.56-1.872 2.09-.935 6.271-3.767 2.247-.936 2.412-3.767 5.44-2.807 4.349-2.806 3.05-1.896 2.075-1.871 2.25-1.871 1.483-.936 1.962-.935 2.894-1.897 2.187-1.87 1.963-1.872 2.145-1.87 2.08-.936 1.531-.936 2.397-1.87 2.788-1.872 1.979-1.87 1.81-1.897 3.978-3.742 2.4-1.87 4.348-3.768 1.369-1.871 1.677-1.871 1.532-1.897 5.443-7.509 3.135-3.742 1.861-1.87 1.342-1.897 2.843-3.742 2.378-3.767 2.5-3.742 1.55-1.871 1.76-1.897 2.338-3.742 2.967-3.742 3.141-3.742 2.904-3.767 2.252-3.742 2.132-3.767 1.894-3.742 1.68-3.768 1.556-1.87 1.913-1.872 2.977-3.767 5.461-7.51 1.17-3.741 2.123-3.767 2.79-7.51 2.476-3.742 2.871-3.767 2.445-3.742 2.637-3.767 2.107-3.742 2.554-3.768 2.395-3.742 2.125-3.767 2.832-3.742 2.71-3.767 2.996-3.742 2.862-3.767 10.793-15.019 1.899-2.023 3.584-4.4 1.562-2.401 2.048-3.64 1.26-3.667 1.28-4.88 1.529-2.427 2-2.453h0" style="fill:none;stroke:#1f77b4;stroke-linecap:square;stroke-width:1.5" id="line2d_30"/></g></g><defs><clipPath id="pd21f262442"><path d="M53.127 47.249h357.12v266.112H53.127z"/></clipPath></defs></svg>