<?xml version="1.0" encoding="utf-8" standalone="no"?>
<!DOCTYPE svg PUBLIC "-//W3C//DTD SVG 1.1//EN"
  "http://www.w3.org/Graphics/SVG/1.1/DTD/svg11.dtd">
<svg xmlns:xlink="http://www.w3.org/1999/xlink" width="706.222038pt" height="323.272637pt" viewBox="0 0 706.222038 323.272637" xmlns="http://www.w3.org/2000/svg" version="1.1">
 <metadata>
  <rdf:RDF xmlns:dc="http://purl.org/dc/elements/1.1/" xmlns:cc="http://creativecommons.org/ns#" xmlns:rdf="http://www.w3.org/1999/02/22-rdf-syntax-ns#">
   <cc:Work>
    <dc:type rdf:resource="http://purl.org/dc/dcmitype/StillImage"/>
    <dc:date>2022-01-21T10:56:23.027343</dc:date>
    <dc:format>image/svg+xml</dc:format>
    <dc:creator>
     <cc:Agent>
      <dc:title>Matplotlib v3.5.1, https://matplotlib.org/</dc:title>
     </cc:Agent>
    </dc:creator>
   </cc:Work>
  </rdf:RDF>
 </metadata>
 <defs>
  <style type="text/css">*{stroke-linejoin: round; stroke-linecap: butt}</style>
 </defs>
 <g id="figure_1">
  <g id="patch_1">
   <path d="M 0 323.272637 
L 706.222038 323.272637 
L 706.222038 0 
L 0 0 
L 0 323.272637 
z
" style="fill: none"/>
  </g>
  <g id="axes_1">
   <g id="patch_2">
    <path d="M 82.47625 279.745437 
L 439.59625 279.745437 
L 439.59625 13.633437 
L 82.47625 13.633437 
L 82.47625 279.745437 
z
" style="fill: none"/>
   </g>
   <g id="matplotlib.axis_1">
    <g id="xtick_1">
     <g id="line2d_1">
      <defs>
       <path id="m74ae1cfdfb" d="M 0 0 
L 0 3.5 
" style="stroke: #b0b0b0; stroke-width: 0.4"/>
      </defs>
      <g>
       <use xlink:href="#m74ae1cfdfb" x="103.483309" y="279.745437" style="fill: #b0b0b0; stroke: #b0b0b0; stroke-width: 0.4"/>
      </g>
     </g>
     <g id="text_1">
      <!-- 2019-05 -->
      <g style="fill: #b0b0b0" transform="translate(79.789403 296.685437)scale(0.14 -0.14)">
       <defs>
        <path id="MyriadPro-Regular-32" d="M 2944 0 
L 2944 467 
L 1075 467 
L 1075 480 
L 1408 787 
C 2285 1632 2842 2253 2842 3021 
C 2842 3616 2464 4230 1568 4230 
C 1088 4230 678 4051 390 3808 
L 570 3411 
C 762 3571 1075 3763 1453 3763 
C 2074 3763 2278 3373 2278 2950 
C 2272 2323 1792 1786 730 774 
L 288 346 
L 288 0 
L 2944 0 
z
" transform="scale(0.015625)"/>
        <path id="MyriadPro-Regular-30" d="M 1677 4230 
C 832 4230 230 3462 230 2067 
C 243 691 794 -70 1606 -70 
C 2528 -70 3053 710 3053 2125 
C 3053 3450 2554 4230 1677 4230 
z
M 1645 3795 
C 2227 3795 2490 3123 2490 2099 
C 2490 1037 2214 365 1638 365 
C 1126 365 794 979 794 2061 
C 794 3194 1152 3795 1645 3795 
z
" transform="scale(0.015625)"/>
        <path id="MyriadPro-Regular-31" d="M 1510 0 
L 2054 0 
L 2054 4160 
L 1574 4160 
L 666 3674 
L 774 3245 
L 1498 3635 
L 1510 3635 
L 1510 0 
z
" transform="scale(0.015625)"/>
        <path id="MyriadPro-Regular-39" d="M 614 -64 
C 749 -70 928 -64 1133 -32 
C 1581 19 2022 211 2342 525 
C 2752 922 3059 1562 3059 2477 
C 3059 3539 2534 4230 1683 4230 
C 832 4230 262 3539 262 2752 
C 262 2042 742 1478 1491 1478 
C 1907 1478 2240 1645 2470 1926 
L 2490 1926 
C 2413 1434 2214 1069 1939 819 
C 1702 595 1395 461 1069 416 
C 877 397 736 384 614 397 
L 614 -64 
z
M 1638 3802 
C 2227 3802 2490 3258 2490 2547 
C 2490 2458 2470 2394 2438 2342 
C 2291 2093 1997 1907 1619 1907 
C 1133 1907 819 2272 819 2790 
C 819 3379 1158 3802 1632 3802 
L 1638 3802 
z
" transform="scale(0.015625)"/>
        <path id="MyriadPro-Regular-2d" d="M 192 1939 
L 192 1523 
L 1773 1523 
L 1773 1939 
L 192 1939 
z
" transform="scale(0.015625)"/>
        <path id="MyriadPro-Regular-35" d="M 2771 4160 
L 781 4160 
L 512 2163 
C 666 2182 851 2208 1088 2208 
C 1920 2208 2278 1824 2285 1286 
C 2285 730 1830 384 1299 384 
C 922 384 582 512 410 614 
L 269 186 
C 467 58 851 -70 1306 -70 
C 2208 -70 2854 538 2854 1350 
C 2854 1875 2586 2234 2259 2419 
C 2003 2573 1683 2643 1363 2643 
C 1210 2643 1120 2630 1024 2618 
L 1184 3686 
L 2771 3686 
L 2771 4160 
z
" transform="scale(0.015625)"/>
       </defs>
       <use xlink:href="#MyriadPro-Regular-32"/>
       <use xlink:href="#MyriadPro-Regular-30" x="51.299988"/>
       <use xlink:href="#MyriadPro-Regular-31" x="102.599976"/>
       <use xlink:href="#MyriadPro-Regular-39" x="153.899963"/>
       <use xlink:href="#MyriadPro-Regular-2d" x="205.199951"/>
       <use xlink:href="#MyriadPro-Regular-30" x="235.899948"/>
       <use xlink:href="#MyriadPro-Regular-35" x="287.199936"/>
      </g>
     </g>
    </g>
    <g id="xtick_2">
     <g id="line2d_2">
      <g>
       <use xlink:href="#m74ae1cfdfb" x="145.841804" y="279.745437" style="fill: #b0b0b0; stroke: #b0b0b0; stroke-width: 0.4"/>
      </g>
     </g>
     <g id="text_2">
      <!-- 2019-09 -->
      <g style="fill: #b0b0b0" transform="translate(122.147898 296.685437)scale(0.14 -0.14)">
       <use xlink:href="#MyriadPro-Regular-32"/>
       <use xlink:href="#MyriadPro-Regular-30" x="51.299988"/>
       <use xlink:href="#MyriadPro-Regular-31" x="102.599976"/>
       <use xlink:href="#MyriadPro-Regular-39" x="153.899963"/>
       <use xlink:href="#MyriadPro-Regular-2d" x="205.199951"/>
       <use xlink:href="#MyriadPro-Regular-30" x="235.899948"/>
       <use xlink:href="#MyriadPro-Regular-39" x="287.199936"/>
      </g>
     </g>
    </g>
    <g id="xtick_3">
     <g id="line2d_3">
      <g>
       <use xlink:href="#m74ae1cfdfb" x="187.855922" y="279.745437" style="fill: #b0b0b0; stroke: #b0b0b0; stroke-width: 0.4"/>
      </g>
     </g>
     <g id="text_3">
      <!-- 2020-01 -->
      <g style="fill: #b0b0b0" transform="translate(164.162016 296.685437)scale(0.14 -0.14)">
       <use xlink:href="#MyriadPro-Regular-32"/>
       <use xlink:href="#MyriadPro-Regular-30" x="51.299988"/>
       <use xlink:href="#MyriadPro-Regular-32" x="102.599976"/>
       <use xlink:href="#MyriadPro-Regular-30" x="153.899963"/>
       <use xlink:href="#MyriadPro-Regular-2d" x="205.199951"/>
       <use xlink:href="#MyriadPro-Regular-30" x="235.899948"/>
       <use xlink:href="#MyriadPro-Regular-31" x="287.199936"/>
      </g>
     </g>
    </g>
    <g id="xtick_4">
     <g id="line2d_4">
      <g>
       <use xlink:href="#m74ae1cfdfb" x="229.525662" y="279.745437" style="fill: #b0b0b0; stroke: #b0b0b0; stroke-width: 0.4"/>
      </g>
     </g>
     <g id="text_4">
      <!-- 2020-05 -->
      <g style="fill: #b0b0b0" transform="translate(205.831756 296.685437)scale(0.14 -0.14)">
       <use xlink:href="#MyriadPro-Regular-32"/>
       <use xlink:href="#MyriadPro-Regular-30" x="51.299988"/>
       <use xlink:href="#MyriadPro-Regular-32" x="102.599976"/>
       <use xlink:href="#MyriadPro-Regular-30" x="153.899963"/>
       <use xlink:href="#MyriadPro-Regular-2d" x="205.199951"/>
       <use xlink:href="#MyriadPro-Regular-30" x="235.899948"/>
       <use xlink:href="#MyriadPro-Regular-35" x="287.199936"/>
      </g>
     </g>
    </g>
    <g id="xtick_5">
     <g id="line2d_5">
      <g>
       <use xlink:href="#m74ae1cfdfb" x="271.884157" y="279.745437" style="fill: #b0b0b0; stroke: #b0b0b0; stroke-width: 0.4"/>
      </g>
     </g>
     <g id="text_5">
      <!-- 2020-09 -->
      <g style="fill: #b0b0b0" transform="translate(248.190251 296.685437)scale(0.14 -0.14)">
       <use xlink:href="#MyriadPro-Regular-32"/>
       <use xlink:href="#MyriadPro-Regular-30" x="51.299988"/>
       <use xlink:href="#MyriadPro-Regular-32" x="102.599976"/>
       <use xlink:href="#MyriadPro-Regular-30" x="153.899963"/>
       <use xlink:href="#MyriadPro-Regular-2d" x="205.199951"/>
       <use xlink:href="#MyriadPro-Regular-30" x="235.899948"/>
       <use xlink:href="#MyriadPro-Regular-39" x="287.199936"/>
      </g>
     </g>
    </g>
    <g id="xtick_6">
     <g id="line2d_6">
      <g>
       <use xlink:href="#m74ae1cfdfb" x="313.898275" y="279.745437" style="fill: #b0b0b0; stroke: #b0b0b0; stroke-width: 0.4"/>
      </g>
     </g>
     <g id="text_6">
      <!-- 2021-01 -->
      <g style="fill: #b0b0b0" transform="translate(290.204369 296.685437)scale(0.14 -0.14)">
       <use xlink:href="#MyriadPro-Regular-32"/>
       <use xlink:href="#MyriadPro-Regular-30" x="51.299988"/>
       <use xlink:href="#MyriadPro-Regular-32" x="102.599976"/>
       <use xlink:href="#MyriadPro-Regular-31" x="153.899963"/>
       <use xlink:href="#MyriadPro-Regular-2d" x="205.199951"/>
       <use xlink:href="#MyriadPro-Regular-30" x="235.899948"/>
       <use xlink:href="#MyriadPro-Regular-31" x="287.199936"/>
      </g>
     </g>
    </g>
    <g id="xtick_7">
     <g id="line2d_7">
      <g>
       <use xlink:href="#m74ae1cfdfb" x="355.223637" y="279.745437" style="fill: #b0b0b0; stroke: #b0b0b0; stroke-width: 0.4"/>
      </g>
     </g>
     <g id="text_7">
      <!-- 2021-05 -->
      <g style="fill: #b0b0b0" transform="translate(331.52973 296.685437)scale(0.14 -0.14)">
       <use xlink:href="#MyriadPro-Regular-32"/>
       <use xlink:href="#MyriadPro-Regular-30" x="51.299988"/>
       <use xlink:href="#MyriadPro-Regular-32" x="102.599976"/>
       <use xlink:href="#MyriadPro-Regular-31" x="153.899963"/>
       <use xlink:href="#MyriadPro-Regular-2d" x="205.199951"/>
       <use xlink:href="#MyriadPro-Regular-30" x="235.899948"/>
       <use xlink:href="#MyriadPro-Regular-35" x="287.199936"/>
      </g>
     </g>
    </g>
    <g id="xtick_8">
     <g id="line2d_8">
      <g>
       <use xlink:href="#m74ae1cfdfb" x="397.582132" y="279.745437" style="fill: #b0b0b0; stroke: #b0b0b0; stroke-width: 0.4"/>
      </g>
     </g>
     <g id="text_8">
      <!-- 2021-09 -->
      <g style="fill: #b0b0b0" transform="translate(373.888226 296.685437)scale(0.14 -0.14)">
       <use xlink:href="#MyriadPro-Regular-32"/>
       <use xlink:href="#MyriadPro-Regular-30" x="51.299988"/>
       <use xlink:href="#MyriadPro-Regular-32" x="102.599976"/>
       <use xlink:href="#MyriadPro-Regular-31" x="153.899963"/>
       <use xlink:href="#MyriadPro-Regular-2d" x="205.199951"/>
       <use xlink:href="#MyriadPro-Regular-30" x="235.899948"/>
       <use xlink:href="#MyriadPro-Regular-39" x="287.199936"/>
      </g>
     </g>
    </g>
    <g id="xtick_9">
     <g id="line2d_9">
      <g>
       <use xlink:href="#m74ae1cfdfb" x="439.59625" y="279.745437" style="fill: #b0b0b0; stroke: #b0b0b0; stroke-width: 0.4"/>
      </g>
     </g>
     <g id="text_9">
      <!-- 2022-01 -->
      <g style="fill: #b0b0b0" transform="translate(415.902344 296.685437)scale(0.14 -0.14)">
       <use xlink:href="#MyriadPro-Regular-32"/>
       <use xlink:href="#MyriadPro-Regular-30" x="51.299988"/>
       <use xlink:href="#MyriadPro-Regular-32" x="102.599976"/>
       <use xlink:href="#MyriadPro-Regular-32" x="153.899963"/>
       <use xlink:href="#MyriadPro-Regular-2d" x="205.199951"/>
       <use xlink:href="#MyriadPro-Regular-30" x="235.899948"/>
       <use xlink:href="#MyriadPro-Regular-31" x="287.199936"/>
      </g>
     </g>
    </g>
   </g>
   <g id="matplotlib.axis_2">
    <g id="ytick_1">
     <g id="line2d_10">
      <path d="M 82.47625 279.745437 
L 439.59625 279.745437 
" clip-path="url(#p333f94713c)" style="fill: none; stroke: #b0b0b0; stroke-width: 0.3; stroke-linecap: square"/>
     </g>
     <g id="line2d_11">
      <defs>
       <path id="m674f6d0a07" d="M 0 0 
L -3.5 0 
" style="stroke: #b0b0b0; stroke-width: 0.3"/>
      </defs>
      <g>
       <use xlink:href="#m674f6d0a07" x="82.47625" y="279.745437" style="fill: #b0b0b0; stroke: #b0b0b0; stroke-width: 0.3"/>
      </g>
     </g>
     <g id="text_10">
      <!-- 0 -->
      <g style="fill: #b0b0b0" transform="translate(68.294687 284.715437)scale(0.14 -0.14)">
       <use xlink:href="#MyriadPro-Regular-30"/>
      </g>
     </g>
    </g>
    <g id="ytick_2">
     <g id="line2d_12">
      <path d="M 82.47625 223.005139 
L 439.59625 223.005139 
" clip-path="url(#p333f94713c)" style="fill: none; stroke: #b0b0b0; stroke-width: 0.3; stroke-linecap: square"/>
     </g>
     <g id="line2d_13">
      <g>
       <use xlink:href="#m674f6d0a07" x="82.47625" y="223.005139" style="fill: #b0b0b0; stroke: #b0b0b0; stroke-width: 0.3"/>
      </g>
     </g>
     <g id="text_11">
      <!-- 1000 -->
      <g style="fill: #b0b0b0" transform="translate(46.75 227.975139)scale(0.14 -0.14)">
       <use xlink:href="#MyriadPro-Regular-31"/>
       <use xlink:href="#MyriadPro-Regular-30" x="51.299988"/>
       <use xlink:href="#MyriadPro-Regular-30" x="102.599976"/>
       <use xlink:href="#MyriadPro-Regular-30" x="153.899963"/>
      </g>
     </g>
    </g>
    <g id="ytick_3">
     <g id="line2d_14">
      <path d="M 82.47625 166.26484 
L 439.59625 166.26484 
" clip-path="url(#p333f94713c)" style="fill: none; stroke: #b0b0b0; stroke-width: 0.3; stroke-linecap: square"/>
     </g>
     <g id="line2d_15">
      <g>
       <use xlink:href="#m674f6d0a07" x="82.47625" y="166.26484" style="fill: #b0b0b0; stroke: #b0b0b0; stroke-width: 0.3"/>
      </g>
     </g>
     <g id="text_12">
      <!-- 2000 -->
      <g style="fill: #b0b0b0" transform="translate(46.75 171.23484)scale(0.14 -0.14)">
       <use xlink:href="#MyriadPro-Regular-32"/>
       <use xlink:href="#MyriadPro-Regular-30" x="51.299988"/>
       <use xlink:href="#MyriadPro-Regular-30" x="102.599976"/>
       <use xlink:href="#MyriadPro-Regular-30" x="153.899963"/>
      </g>
     </g>
    </g>
    <g id="ytick_4">
     <g id="line2d_16">
      <path d="M 82.47625 109.524542 
L 439.59625 109.524542 
" clip-path="url(#p333f94713c)" style="fill: none; stroke: #b0b0b0; stroke-width: 0.3; stroke-linecap: square"/>
     </g>
     <g id="line2d_17">
      <g>
       <use xlink:href="#m674f6d0a07" x="82.47625" y="109.524542" style="fill: #b0b0b0; stroke: #b0b0b0; stroke-width: 0.3"/>
      </g>
     </g>
     <g id="text_13">
      <!-- 3000 -->
      <g style="fill: #b0b0b0" transform="translate(46.75 114.494542)scale(0.14 -0.14)">
       <defs>
        <path id="MyriadPro-Regular-33" d="M 269 211 
C 474 77 883 -70 1350 -70 
C 2349 -70 2867 512 2867 1178 
C 2867 1760 2451 2144 1939 2246 
L 1939 2259 
C 2451 2445 2707 2810 2707 3238 
C 2707 3744 2336 4230 1517 4230 
C 1069 4230 646 4070 429 3910 
L 576 3501 
C 755 3629 1075 3776 1408 3776 
C 1926 3776 2138 3482 2138 3149 
C 2138 2656 1619 2445 1210 2445 
L 896 2445 
L 896 2022 
L 1210 2022 
C 1754 2022 2278 1773 2285 1190 
C 2291 845 2067 384 1344 384 
C 954 384 582 544 422 646 
L 269 211 
z
" transform="scale(0.015625)"/>
       </defs>
       <use xlink:href="#MyriadPro-Regular-33"/>
       <use xlink:href="#MyriadPro-Regular-30" x="51.299988"/>
       <use xlink:href="#MyriadPro-Regular-30" x="102.599976"/>
       <use xlink:href="#MyriadPro-Regular-30" x="153.899963"/>
      </g>
     </g>
    </g>
    <g id="ytick_5">
     <g id="line2d_18">
      <path d="M 82.47625 52.784243 
L 439.59625 52.784243 
" clip-path="url(#p333f94713c)" style="fill: none; stroke: #b0b0b0; stroke-width: 0.3; stroke-linecap: square"/>
     </g>
     <g id="line2d_19">
      <g>
       <use xlink:href="#m674f6d0a07" x="82.47625" y="52.784243" style="fill: #b0b0b0; stroke: #b0b0b0; stroke-width: 0.3"/>
      </g>
     </g>
     <g id="text_14">
      <!-- 4000 -->
      <g style="fill: #b0b0b0" transform="translate(46.75 57.754243)scale(0.14 -0.14)">
       <defs>
        <path id="MyriadPro-Regular-34" d="M 2560 0 
L 2560 1133 
L 3142 1133 
L 3142 1574 
L 2560 1574 
L 2560 4160 
L 1952 4160 
L 96 1504 
L 96 1133 
L 2029 1133 
L 2029 0 
L 2560 0 
z
M 666 1574 
L 666 1587 
L 1683 3002 
C 1798 3194 1901 3373 2029 3616 
L 2048 3616 
C 2035 3398 2029 3181 2029 2963 
L 2029 1574 
L 666 1574 
z
" transform="scale(0.015625)"/>
       </defs>
       <use xlink:href="#MyriadPro-Regular-34"/>
       <use xlink:href="#MyriadPro-Regular-30" x="51.299988"/>
       <use xlink:href="#MyriadPro-Regular-30" x="102.599976"/>
       <use xlink:href="#MyriadPro-Regular-30" x="153.899963"/>
      </g>
     </g>
    </g>
    <g id="text_15">
     <!-- GitHub stars -->
     <g style="fill: #b0b0b0" transform="translate(7.2 23.401481)scale(0.14 -0.14)">
      <defs>
       <path id="MyriadPro-Regular-47" d="M 3770 2266 
L 2349 2266 
L 2349 1818 
L 3226 1818 
L 3226 531 
C 3098 467 2848 416 2483 416 
C 1478 416 819 1062 819 2157 
C 819 3238 1504 3891 2554 3891 
C 2989 3891 3277 3808 3507 3706 
L 3642 4160 
C 3456 4250 3066 4358 2566 4358 
C 1120 4358 237 3418 230 2131 
C 230 1459 461 883 832 525 
C 1254 122 1792 -45 2445 -45 
C 3027 -45 3520 102 3770 192 
L 3770 2266 
z
" transform="scale(0.015625)"/>
       <path id="MyriadPro-Regular-69" d="M 1030 0 
L 1030 3098 
L 467 3098 
L 467 0 
L 1030 0 
z
M 749 4320 
C 544 4320 397 4166 397 3968 
C 397 3776 538 3622 736 3622 
C 960 3622 1101 3776 1094 3968 
C 1094 4166 960 4320 749 4320 
z
" transform="scale(0.015625)"/>
       <path id="MyriadPro-Regular-74" d="M 595 3667 
L 595 3098 
L 115 3098 
L 115 2669 
L 595 2669 
L 595 979 
C 595 614 653 339 813 173 
C 947 19 1158 -70 1421 -70 
C 1638 -70 1811 -32 1920 13 
L 1894 435 
C 1811 410 1722 397 1568 397 
C 1254 397 1146 614 1146 998 
L 1146 2669 
L 1952 2669 
L 1952 3098 
L 1146 3098 
L 1146 3840 
L 595 3667 
z
" transform="scale(0.015625)"/>
       <path id="MyriadPro-Regular-48" d="M 486 4314 
L 486 0 
L 1043 0 
L 1043 2022 
L 3130 2022 
L 3130 0 
L 3693 0 
L 3693 4314 
L 3130 4314 
L 3130 2509 
L 1043 2509 
L 1043 4314 
L 486 4314 
z
" transform="scale(0.015625)"/>
       <path id="MyriadPro-Regular-75" d="M 3059 3098 
L 2496 3098 
L 2496 1197 
C 2496 1094 2477 992 2445 909 
C 2342 659 2080 397 1702 397 
C 1190 397 1011 794 1011 1382 
L 1011 3098 
L 448 3098 
L 448 1286 
C 448 198 1030 -70 1517 -70 
C 2067 -70 2394 256 2541 506 
L 2554 506 
L 2586 0 
L 3085 0 
C 3066 243 3059 525 3059 845 
L 3059 3098 
z
" transform="scale(0.015625)"/>
       <path id="MyriadPro-Regular-62" d="M 467 800 
C 467 525 454 211 442 0 
L 928 0 
L 954 512 
L 973 512 
C 1203 102 1562 -70 2010 -70 
C 2701 -70 3398 480 3398 1587 
C 3405 2528 2861 3168 2093 3168 
C 1594 3168 1235 2944 1037 2598 
L 1024 2598 
L 1024 4544 
L 467 4544 
L 467 800 
z
M 1024 1798 
C 1024 1888 1043 1965 1056 2029 
C 1171 2458 1530 2720 1914 2720 
C 2515 2720 2835 2189 2835 1568 
C 2835 858 2483 378 1894 378 
C 1485 378 1158 646 1050 1037 
C 1037 1101 1024 1171 1024 1242 
L 1024 1798 
z
" transform="scale(0.015625)"/>
       <path id="MyriadPro-Regular-20" transform="scale(0.015625)"/>
       <path id="MyriadPro-Regular-73" d="M 250 147 
C 467 19 781 -70 1120 -70 
C 1856 -70 2278 320 2278 864 
C 2278 1325 2003 1594 1466 1798 
C 1062 1952 877 2067 877 2323 
C 877 2554 1062 2746 1395 2746 
C 1683 2746 1907 2643 2029 2566 
L 2170 2976 
C 1997 3078 1722 3168 1408 3168 
C 742 3168 339 2758 339 2259 
C 339 1888 602 1581 1158 1382 
C 1574 1229 1734 1082 1734 813 
C 1734 557 1542 352 1133 352 
C 851 352 557 467 390 576 
L 250 147 
z
" transform="scale(0.015625)"/>
       <path id="MyriadPro-Regular-61" d="M 2643 1901 
C 2643 2522 2413 3168 1466 3168 
C 1075 3168 704 3059 448 2893 
L 576 2522 
C 794 2662 1094 2752 1382 2752 
C 2016 2752 2086 2291 2086 2035 
L 2086 1971 
C 890 1978 224 1568 224 819 
C 224 371 544 -70 1171 -70 
C 1613 -70 1946 147 2118 390 
L 2138 390 
L 2182 0 
L 2694 0 
C 2656 211 2643 474 2643 742 
L 2643 1901 
z
M 2099 1043 
C 2099 986 2086 922 2067 864 
C 1978 602 1722 346 1318 346 
C 1030 346 787 518 787 883 
C 787 1485 1485 1594 2099 1581 
L 2099 1043 
z
" transform="scale(0.015625)"/>
       <path id="MyriadPro-Regular-72" d="M 467 0 
L 1024 0 
L 1024 1651 
C 1024 1747 1037 1837 1050 1914 
C 1126 2336 1408 2637 1805 2637 
C 1882 2637 1939 2630 1997 2618 
L 1997 3149 
C 1946 3162 1901 3168 1837 3168 
C 1459 3168 1120 2906 979 2490 
L 954 2490 
L 934 3098 
L 442 3098 
C 461 2810 467 2496 467 2131 
L 467 0 
z
" transform="scale(0.015625)"/>
      </defs>
      <use xlink:href="#MyriadPro-Regular-47"/>
      <use xlink:href="#MyriadPro-Regular-69" x="64.599991"/>
      <use xlink:href="#MyriadPro-Regular-74" x="87.999985"/>
      <use xlink:href="#MyriadPro-Regular-48" x="121.099976"/>
      <use xlink:href="#MyriadPro-Regular-75" x="186.299973"/>
      <use xlink:href="#MyriadPro-Regular-62" x="241.399963"/>
      <use xlink:href="#MyriadPro-Regular-20" x="298.299957"/>
      <use xlink:href="#MyriadPro-Regular-73" x="319.499954"/>
      <use xlink:href="#MyriadPro-Regular-74" x="359.099945"/>
      <use xlink:href="#MyriadPro-Regular-61" x="392.199936"/>
      <use xlink:href="#MyriadPro-Regular-72" x="440.399933"/>
      <use xlink:href="#MyriadPro-Regular-73" x="473.09993"/>
     </g>
    </g>
   </g>
   <g id="line2d_20">
    <path d="M 250.532721 279.745437 
L 261.208439 271.858536 
L 271.884157 268.8513 
L 282.215498 266.695169 
L 292.891216 265.219921 
L 303.222557 263.971635 
L 313.898275 262.496387 
L 324.573993 261.645282 
L 334.216578 260.680697 
L 344.892296 260.056554 
L 355.223637 259.26219 
L 365.899355 258.184124 
L 376.230696 257.559981 
L 386.906414 256.765617 
L 397.582132 255.914512 
L 407.913473 255.233629 
L 418.589191 254.439264 
L 428.920532 253.815121 
L 439.59625 252.964017 
" clip-path="url(#p333f94713c)" style="fill: none; stroke: #e377c2; stroke-width: 1.5; stroke-linecap: square"/>
   </g>
   <g id="line2d_21">
    <path d="M 114.159027 279.745437 
L 124.490368 279.631957 
L 135.166086 279.631957 
L 145.841804 279.404996 
L 156.173145 277.986488 
L 166.848863 277.135384 
L 177.180204 276.567981 
L 187.855922 275.943837 
L 198.531641 275.603396 
L 208.518603 275.206214 
L 219.194321 274.52533 
L 229.525662 273.617485 
L 240.20138 271.915276 
L 250.532721 271.007432 
L 261.208439 269.475443 
L 271.884157 267.546273 
L 282.215498 265.219921 
L 292.891216 263.12053 
L 303.222557 262.042464 
L 313.898275 260.567217 
L 324.573993 258.467826 
L 334.216578 256.879097 
L 344.892296 254.779706 
L 355.223637 252.850536 
L 365.899355 251.091587 
L 376.230696 249.8433 
L 386.906414 248.084351 
L 397.582132 246.268661 
L 407.913473 245.417557 
L 418.589191 243.828829 
L 428.920532 241.672697 
L 439.59625 240.31093 
" clip-path="url(#p333f94713c)" style="fill: none; stroke: #8c564b; stroke-width: 1.5; stroke-linecap: square"/>
   </g>
   <g id="line2d_22">
    <path d="M 271.884157 279.745437 
L 282.215498 263.687933 
L 292.891216 259.772852 
L 303.222557 257.730202 
L 313.898275 254.609485 
L 324.573993 250.410703 
L 334.216578 247.063026 
L 344.892296 244.679933 
L 355.223637 241.672697 
L 365.899355 238.835682 
L 376.230696 236.679551 
L 386.906414 235.147563 
L 397.582132 232.197067 
L 407.913473 229.530273 
L 418.589191 225.955635 
L 428.920532 223.912984 
L 439.59625 220.508566 
" clip-path="url(#p333f94713c)" style="fill: none; stroke: #9467bd; stroke-width: 1.5; stroke-linecap: square"/>
   </g>
   <g id="text_16">
    <!-- lowlighter/metrics -->
    <g style="fill: #1f77b4" transform="translate(450.30985 17.14)scale(0.14 -0.14)">
     <defs>
      <path id="MyriadPro-Regular-6c" d="M 467 0 
L 1030 0 
L 1030 4544 
L 467 4544 
L 467 0 
z
" transform="scale(0.015625)"/>
      <path id="MyriadPro-Regular-6f" d="M 1779 3168 
C 922 3168 243 2560 243 1523 
C 243 544 890 -70 1728 -70 
C 2477 -70 3270 429 3270 1574 
C 3270 2522 2669 3168 1779 3168 
z
M 1766 2746 
C 2432 2746 2694 2080 2694 1555 
C 2694 858 2291 352 1754 352 
C 1203 352 813 864 813 1542 
C 813 2131 1101 2746 1766 2746 
z
" transform="scale(0.015625)"/>
      <path id="MyriadPro-Regular-77" d="M 115 3098 
L 1050 0 
L 1562 0 
L 2061 1472 
C 2170 1805 2266 2125 2342 2496 
L 2355 2496 
C 2432 2131 2522 1824 2630 1478 
L 3104 0 
L 3616 0 
L 4614 3098 
L 4058 3098 
L 3616 1542 
C 3514 1178 3430 851 3379 538 
L 3360 538 
C 3290 851 3200 1178 3085 1549 
L 2605 3098 
L 2131 3098 
L 1626 1523 
C 1523 1184 1421 851 1350 538 
L 1331 538 
C 1274 858 1190 1178 1101 1523 
L 691 3098 
L 115 3098 
z
" transform="scale(0.015625)"/>
      <path id="MyriadPro-Regular-67" d="M 3110 2246 
C 3110 2624 3123 2874 3136 3098 
L 2643 3098 
L 2618 2630 
L 2605 2630 
C 2470 2886 2176 3168 1638 3168 
C 928 3168 243 2573 243 1523 
C 243 666 794 13 1562 13 
C 2042 13 2374 243 2547 531 
L 2560 531 
L 2560 186 
C 2560 -595 2138 -896 1562 -896 
C 1178 -896 858 -781 653 -653 
L 512 -1082 
C 762 -1248 1171 -1338 1542 -1338 
C 1933 -1338 2368 -1248 2669 -966 
C 2970 -698 3110 -262 3110 448 
L 3110 2246 
z
M 2554 1318 
C 2554 1222 2541 1114 2509 1018 
C 2387 659 2074 442 1728 442 
C 1120 442 813 947 813 1555 
C 813 2272 1197 2726 1734 2726 
C 2144 2726 2419 2458 2522 2131 
C 2547 2054 2554 1971 2554 1875 
L 2554 1318 
z
" transform="scale(0.015625)"/>
      <path id="MyriadPro-Regular-68" d="M 467 0 
L 1030 0 
L 1030 1869 
C 1030 1978 1037 2061 1069 2138 
C 1171 2445 1459 2701 1824 2701 
C 2355 2701 2541 2278 2541 1779 
L 2541 0 
L 3104 0 
L 3104 1843 
C 3104 2912 2438 3168 2022 3168 
C 1811 3168 1613 3104 1446 3008 
C 1274 2912 1133 2771 1043 2611 
L 1030 2611 
L 1030 4544 
L 467 4544 
L 467 0 
z
" transform="scale(0.015625)"/>
      <path id="MyriadPro-Regular-65" d="M 2957 1446 
C 2963 1504 2976 1594 2976 1709 
C 2976 2278 2707 3168 1696 3168 
C 794 3168 243 2432 243 1498 
C 243 563 813 -70 1766 -70 
C 2259 -70 2598 38 2797 128 
L 2701 531 
C 2490 442 2246 371 1843 371 
C 1280 371 794 685 781 1446 
L 2957 1446 
z
M 787 1850 
C 832 2240 1082 2765 1651 2765 
C 2285 2765 2438 2208 2432 1850 
L 787 1850 
z
" transform="scale(0.015625)"/>
      <path id="MyriadPro-Regular-2f" d="M 422 -256 
L 2214 4384 
L 1779 4384 
L -6 -256 
L 422 -256 
z
" transform="scale(0.015625)"/>
      <path id="MyriadPro-Regular-6d" d="M 467 0 
L 1018 0 
L 1018 1869 
C 1018 1965 1030 2061 1062 2144 
C 1152 2426 1408 2707 1760 2707 
C 2189 2707 2406 2349 2406 1856 
L 2406 0 
L 2957 0 
L 2957 1914 
C 2957 2016 2976 2118 3002 2195 
C 3098 2470 3347 2707 3667 2707 
C 4122 2707 4339 2349 4339 1754 
L 4339 0 
L 4890 0 
L 4890 1824 
C 4890 2899 4282 3168 3872 3168 
C 3578 3168 3373 3091 3187 2950 
C 3059 2854 2938 2720 2842 2547 
L 2829 2547 
C 2694 2912 2374 3168 1952 3168 
C 1440 3168 1152 2893 979 2598 
L 960 2598 
L 934 3098 
L 442 3098 
C 461 2842 467 2579 467 2259 
L 467 0 
z
" transform="scale(0.015625)"/>
      <path id="MyriadPro-Regular-63" d="M 2579 538 
C 2419 467 2208 384 1888 384 
C 1274 384 813 826 813 1542 
C 813 2189 1197 2714 1907 2714 
C 2214 2714 2426 2643 2560 2566 
L 2688 3002 
C 2534 3078 2240 3162 1907 3162 
C 896 3162 243 2470 243 1517 
C 243 570 851 -70 1786 -70 
C 2202 -70 2528 38 2675 115 
L 2579 538 
z
" transform="scale(0.015625)"/>
     </defs>
     <use xlink:href="#MyriadPro-Regular-6c"/>
     <use xlink:href="#MyriadPro-Regular-6f" x="23.599991"/>
     <use xlink:href="#MyriadPro-Regular-77" x="78.499985"/>
     <use xlink:href="#MyriadPro-Regular-6c" x="152.099976"/>
     <use xlink:href="#MyriadPro-Regular-69" x="175.699966"/>
     <use xlink:href="#MyriadPro-Regular-67" x="199.09996"/>
     <use xlink:href="#MyriadPro-Regular-68" x="254.999954"/>
     <use xlink:href="#MyriadPro-Regular-74" x="310.499939"/>
     <use xlink:href="#MyriadPro-Regular-65" x="343.59993"/>
     <use xlink:href="#MyriadPro-Regular-72" x="393.699921"/>
     <use xlink:href="#MyriadPro-Regular-2f" x="426.399918"/>
     <use xlink:href="#MyriadPro-Regular-6d" x="460.699905"/>
     <use xlink:href="#MyriadPro-Regular-65" x="544.099899"/>
     <use xlink:href="#MyriadPro-Regular-74" x="594.19989"/>
     <use xlink:href="#MyriadPro-Regular-72" x="627.299881"/>
     <use xlink:href="#MyriadPro-Regular-69" x="659.999878"/>
     <use xlink:href="#MyriadPro-Regular-63" x="683.399872"/>
     <use xlink:href="#MyriadPro-Regular-73" x="728.19986"/>
    </g>
   </g>
   <g id="text_17">
    <!-- JamesIves/github-pages-deploy-action -->
    <g style="fill: #ff7f0e" transform="translate(450.30985 139.161997)scale(0.14 -0.14)">
     <defs>
      <path id="MyriadPro-Regular-4a" d="M 1370 1472 
C 1370 627 1075 403 576 403 
C 390 403 224 442 109 486 
L 26 32 
C 166 -26 416 -70 621 -70 
C 1363 -70 1926 282 1926 1427 
L 1926 4314 
L 1370 4314 
L 1370 1472 
z
" transform="scale(0.015625)"/>
      <path id="MyriadPro-Regular-49" d="M 486 4314 
L 486 0 
L 1043 0 
L 1043 4314 
L 486 4314 
z
" transform="scale(0.015625)"/>
      <path id="MyriadPro-Regular-76" d="M 83 3098 
L 1261 0 
L 1798 0 
L 3014 3098 
L 2426 3098 
L 1824 1357 
C 1722 1075 1632 819 1562 563 
L 1542 563 
C 1478 819 1395 1075 1293 1357 
L 685 3098 
L 83 3098 
z
" transform="scale(0.015625)"/>
      <path id="MyriadPro-Regular-70" d="M 467 -1267 
L 1024 -1267 
L 1024 416 
L 1037 416 
C 1222 109 1581 -70 1990 -70 
C 2720 -70 3398 480 3398 1594 
C 3398 2534 2835 3168 2086 3168 
C 1581 3168 1216 2944 986 2566 
L 973 2566 
L 947 3098 
L 442 3098 
C 454 2803 467 2483 467 2086 
L 467 -1267 
z
M 1024 1792 
C 1024 1869 1043 1952 1062 2022 
C 1171 2445 1530 2720 1914 2720 
C 2509 2720 2835 2189 2835 1568 
C 2835 858 2490 371 1894 371 
C 1491 371 1152 640 1050 1030 
C 1037 1101 1024 1178 1024 1261 
L 1024 1792 
z
" transform="scale(0.015625)"/>
      <path id="MyriadPro-Regular-64" d="M 2579 4544 
L 2579 2694 
L 2566 2694 
C 2426 2944 2106 3168 1632 3168 
C 877 3168 237 2534 243 1504 
C 243 563 819 -70 1568 -70 
C 2074 -70 2451 192 2624 538 
L 2637 538 
L 2662 0 
L 3168 0 
C 3149 211 3142 525 3142 800 
L 3142 4544 
L 2579 4544 
z
M 2579 1299 
C 2579 1210 2573 1133 2554 1056 
C 2451 634 2106 384 1728 384 
C 1120 384 813 902 813 1530 
C 813 2214 1158 2726 1741 2726 
C 2163 2726 2470 2432 2554 2074 
C 2573 2003 2579 1907 2579 1837 
L 2579 1299 
z
" transform="scale(0.015625)"/>
      <path id="MyriadPro-Regular-79" d="M 58 3098 
L 1203 243 
C 1229 173 1242 128 1242 96 
C 1242 64 1222 19 1197 -38 
C 1069 -326 877 -544 723 -666 
C 557 -806 371 -896 230 -941 
L 371 -1414 
C 512 -1389 787 -1293 1062 -1050 
C 1446 -717 1722 -173 2125 890 
L 2970 3098 
L 2374 3098 
L 1760 1280 
C 1683 1056 1619 819 1562 634 
L 1549 634 
C 1498 819 1421 1062 1350 1267 
L 672 3098 
L 58 3098 
z
" transform="scale(0.015625)"/>
      <path id="MyriadPro-Regular-6e" d="M 467 0 
L 1030 0 
L 1030 1862 
C 1030 1958 1043 2054 1069 2125 
C 1165 2438 1453 2701 1824 2701 
C 2355 2701 2541 2285 2541 1786 
L 2541 0 
L 3104 0 
L 3104 1850 
C 3104 2912 2438 3168 2010 3168 
C 1498 3168 1139 2880 986 2586 
L 973 2586 
L 941 3098 
L 442 3098 
C 461 2842 467 2579 467 2259 
L 467 0 
z
" transform="scale(0.015625)"/>
     </defs>
     <use xlink:href="#MyriadPro-Regular-4a"/>
     <use xlink:href="#MyriadPro-Regular-61" x="36.999985"/>
     <use xlink:href="#MyriadPro-Regular-6d" x="85.199982"/>
     <use xlink:href="#MyriadPro-Regular-65" x="168.599976"/>
     <use xlink:href="#MyriadPro-Regular-73" x="218.699966"/>
     <use xlink:href="#MyriadPro-Regular-49" x="258.299957"/>
     <use xlink:href="#MyriadPro-Regular-76" x="282.199951"/>
     <use xlink:href="#MyriadPro-Regular-65" x="330.299942"/>
     <use xlink:href="#MyriadPro-Regular-73" x="380.399933"/>
     <use xlink:href="#MyriadPro-Regular-2f" x="419.999924"/>
     <use xlink:href="#MyriadPro-Regular-67" x="454.299911"/>
     <use xlink:href="#MyriadPro-Regular-69" x="510.199905"/>
     <use xlink:href="#MyriadPro-Regular-74" x="533.599899"/>
     <use xlink:href="#MyriadPro-Regular-68" x="566.69989"/>
     <use xlink:href="#MyriadPro-Regular-75" x="622.199875"/>
     <use xlink:href="#MyriadPro-Regular-62" x="677.299866"/>
     <use xlink:href="#MyriadPro-Regular-2d" x="734.19986"/>
     <use xlink:href="#MyriadPro-Regular-70" x="764.899857"/>
     <use xlink:href="#MyriadPro-Regular-61" x="821.79985"/>
     <use xlink:href="#MyriadPro-Regular-67" x="869.999847"/>
     <use xlink:href="#MyriadPro-Regular-65" x="925.899841"/>
     <use xlink:href="#MyriadPro-Regular-73" x="975.999832"/>
     <use xlink:href="#MyriadPro-Regular-2d" x="1015.599823"/>
     <use xlink:href="#MyriadPro-Regular-64" x="1046.29982"/>
     <use xlink:href="#MyriadPro-Regular-65" x="1102.699814"/>
     <use xlink:href="#MyriadPro-Regular-70" x="1152.799805"/>
     <use xlink:href="#MyriadPro-Regular-6c" x="1209.699799"/>
     <use xlink:href="#MyriadPro-Regular-6f" x="1233.299789"/>
     <use xlink:href="#MyriadPro-Regular-79" x="1288.199783"/>
     <use xlink:href="#MyriadPro-Regular-2d" x="1335.299774"/>
     <use xlink:href="#MyriadPro-Regular-61" x="1365.999771"/>
     <use xlink:href="#MyriadPro-Regular-63" x="1414.199768"/>
     <use xlink:href="#MyriadPro-Regular-74" x="1458.999756"/>
     <use xlink:href="#MyriadPro-Regular-69" x="1492.099747"/>
     <use xlink:href="#MyriadPro-Regular-6f" x="1515.499741"/>
     <use xlink:href="#MyriadPro-Regular-6e" x="1570.399734"/>
    </g>
   </g>
   <g id="text_18">
    <!-- mxschmitt/action-tmate -->
    <g style="fill: #2ca02c" transform="translate(450.30985 204.830791)scale(0.14 -0.14)">
     <defs>
      <path id="MyriadPro-Regular-78" d="M 102 3098 
L 1152 1581 
L 51 0 
L 672 0 
L 1120 698 
C 1235 883 1344 1043 1446 1235 
L 1459 1235 
C 1568 1050 1670 877 1792 698 
L 2246 0 
L 2886 0 
L 1798 1600 
L 2854 3098 
L 2246 3098 
L 1811 2438 
C 1709 2272 1606 2112 1504 1926 
L 1485 1926 
C 1382 2099 1286 2259 1171 2432 
L 730 3098 
L 102 3098 
z
" transform="scale(0.015625)"/>
     </defs>
     <use xlink:href="#MyriadPro-Regular-6d"/>
     <use xlink:href="#MyriadPro-Regular-78" x="83.399994"/>
     <use xlink:href="#MyriadPro-Regular-73" x="129.699982"/>
     <use xlink:href="#MyriadPro-Regular-63" x="169.299973"/>
     <use xlink:href="#MyriadPro-Regular-68" x="214.09996"/>
     <use xlink:href="#MyriadPro-Regular-6d" x="269.599945"/>
     <use xlink:href="#MyriadPro-Regular-69" x="352.999939"/>
     <use xlink:href="#MyriadPro-Regular-74" x="376.399933"/>
     <use xlink:href="#MyriadPro-Regular-74" x="409.499924"/>
     <use xlink:href="#MyriadPro-Regular-2f" x="442.599915"/>
     <use xlink:href="#MyriadPro-Regular-61" x="476.899902"/>
     <use xlink:href="#MyriadPro-Regular-63" x="525.099899"/>
     <use xlink:href="#MyriadPro-Regular-74" x="569.899887"/>
     <use xlink:href="#MyriadPro-Regular-69" x="602.999878"/>
     <use xlink:href="#MyriadPro-Regular-6f" x="626.399872"/>
     <use xlink:href="#MyriadPro-Regular-6e" x="681.299866"/>
     <use xlink:href="#MyriadPro-Regular-2d" x="736.79985"/>
     <use xlink:href="#MyriadPro-Regular-74" x="767.499847"/>
     <use xlink:href="#MyriadPro-Regular-6d" x="800.599838"/>
     <use xlink:href="#MyriadPro-Regular-61" x="883.999832"/>
     <use xlink:href="#MyriadPro-Regular-74" x="932.199829"/>
     <use xlink:href="#MyriadPro-Regular-65" x="965.29982"/>
    </g>
   </g>
   <g id="text_19">
    <!-- calibreapp/image-actions -->
    <g style="fill: #d62728" transform="translate(450.30985 218.753134)scale(0.14 -0.14)">
     <use xlink:href="#MyriadPro-Regular-63"/>
     <use xlink:href="#MyriadPro-Regular-61" x="44.799988"/>
     <use xlink:href="#MyriadPro-Regular-6c" x="92.999985"/>
     <use xlink:href="#MyriadPro-Regular-69" x="116.599976"/>
     <use xlink:href="#MyriadPro-Regular-62" x="139.999969"/>
     <use xlink:href="#MyriadPro-Regular-72" x="196.899963"/>
     <use xlink:href="#MyriadPro-Regular-65" x="229.59996"/>
     <use xlink:href="#MyriadPro-Regular-61" x="279.699951"/>
     <use xlink:href="#MyriadPro-Regular-70" x="327.899948"/>
     <use xlink:href="#MyriadPro-Regular-70" x="384.799942"/>
     <use xlink:href="#MyriadPro-Regular-2f" x="441.699936"/>
     <use xlink:href="#MyriadPro-Regular-69" x="475.999924"/>
     <use xlink:href="#MyriadPro-Regular-6d" x="499.399918"/>
     <use xlink:href="#MyriadPro-Regular-61" x="582.799911"/>
     <use xlink:href="#MyriadPro-Regular-67" x="630.999908"/>
     <use xlink:href="#MyriadPro-Regular-65" x="686.899902"/>
     <use xlink:href="#MyriadPro-Regular-2d" x="736.999893"/>
     <use xlink:href="#MyriadPro-Regular-61" x="767.69989"/>
     <use xlink:href="#MyriadPro-Regular-63" x="815.899887"/>
     <use xlink:href="#MyriadPro-Regular-74" x="860.699875"/>
     <use xlink:href="#MyriadPro-Regular-69" x="893.799866"/>
     <use xlink:href="#MyriadPro-Regular-6f" x="917.19986"/>
     <use xlink:href="#MyriadPro-Regular-6e" x="972.099854"/>
     <use xlink:href="#MyriadPro-Regular-73" x="1027.599838"/>
    </g>
   </g>
   <g id="text_20">
    <!-- vn7n24fzkq/github-profile-summary-cards -->
    <g style="fill: #9467bd" transform="translate(450.30985 232.746572)scale(0.14 -0.14)">
     <defs>
      <path id="MyriadPro-Regular-37" d="M 365 4160 
L 365 3693 
L 2400 3693 
L 2400 3680 
L 595 0 
L 1178 0 
L 2989 3789 
L 2989 4160 
L 365 4160 
z
" transform="scale(0.015625)"/>
      <path id="MyriadPro-Regular-66" d="M 1082 0 
L 1082 2669 
L 1830 2669 
L 1830 3098 
L 1082 3098 
L 1082 3264 
C 1082 3738 1203 4160 1683 4160 
C 1843 4160 1958 4128 2042 4090 
L 2118 4525 
C 2010 4570 1837 4614 1638 4614 
C 1376 4614 1094 4531 883 4326 
C 621 4077 525 3680 525 3245 
L 525 3098 
L 90 3098 
L 90 2669 
L 525 2669 
L 525 0 
L 1082 0 
z
" transform="scale(0.015625)"/>
      <path id="MyriadPro-Regular-7a" d="M 115 0 
L 2630 0 
L 2630 448 
L 819 448 
L 819 461 
C 960 621 1088 774 1216 947 
L 2598 2746 
L 2605 3098 
L 243 3098 
L 243 2643 
L 1920 2643 
L 1920 2630 
C 1779 2464 1651 2317 1517 2150 
L 115 326 
L 115 0 
z
" transform="scale(0.015625)"/>
      <path id="MyriadPro-Regular-6b" d="M 1024 4544 
L 467 4544 
L 467 0 
L 1024 0 
L 1024 1165 
L 1312 1485 
L 2381 0 
L 3066 0 
L 1702 1824 
L 2899 3098 
L 2221 3098 
L 1312 2029 
C 1222 1920 1114 1786 1037 1677 
L 1024 1677 
L 1024 4544 
z
" transform="scale(0.015625)"/>
      <path id="MyriadPro-Regular-71" d="M 2579 -1267 
L 3142 -1267 
L 3142 2246 
C 3142 2566 3149 2835 3162 3098 
L 2630 3098 
L 2611 2630 
L 2598 2630 
C 2445 2931 2125 3168 1645 3168 
C 992 3168 243 2656 243 1498 
C 243 557 832 -70 1555 -70 
C 2054 -70 2400 173 2566 480 
L 2579 480 
L 2579 -1267 
z
M 2579 1261 
C 2579 1178 2560 1069 2534 992 
C 2406 602 2093 378 1728 378 
C 1107 378 813 915 813 1530 
C 813 2227 1165 2720 1747 2720 
C 2170 2720 2470 2426 2554 2080 
C 2573 2010 2579 1920 2579 1843 
L 2579 1261 
z
" transform="scale(0.015625)"/>
     </defs>
     <use xlink:href="#MyriadPro-Regular-76"/>
     <use xlink:href="#MyriadPro-Regular-6e" x="48.099991"/>
     <use xlink:href="#MyriadPro-Regular-37" x="103.599976"/>
     <use xlink:href="#MyriadPro-Regular-6e" x="154.899963"/>
     <use xlink:href="#MyriadPro-Regular-32" x="210.399948"/>
     <use xlink:href="#MyriadPro-Regular-34" x="261.699936"/>
     <use xlink:href="#MyriadPro-Regular-66" x="312.999924"/>
     <use xlink:href="#MyriadPro-Regular-7a" x="342.199921"/>
     <use xlink:href="#MyriadPro-Regular-6b" x="384.999908"/>
     <use xlink:href="#MyriadPro-Regular-71" x="431.899902"/>
     <use xlink:href="#MyriadPro-Regular-2f" x="488.19989"/>
     <use xlink:href="#MyriadPro-Regular-67" x="522.499878"/>
     <use xlink:href="#MyriadPro-Regular-69" x="578.399872"/>
     <use xlink:href="#MyriadPro-Regular-74" x="601.799866"/>
     <use xlink:href="#MyriadPro-Regular-68" x="634.899857"/>
     <use xlink:href="#MyriadPro-Regular-75" x="690.399841"/>
     <use xlink:href="#MyriadPro-Regular-62" x="745.499832"/>
     <use xlink:href="#MyriadPro-Regular-2d" x="802.399826"/>
     <use xlink:href="#MyriadPro-Regular-70" x="833.099823"/>
     <use xlink:href="#MyriadPro-Regular-72" x="889.999817"/>
     <use xlink:href="#MyriadPro-Regular-6f" x="922.699814"/>
     <use xlink:href="#MyriadPro-Regular-66" x="977.599808"/>
     <use xlink:href="#MyriadPro-Regular-69" x="1006.799805"/>
     <use xlink:href="#MyriadPro-Regular-6c" x="1030.199799"/>
     <use xlink:href="#MyriadPro-Regular-65" x="1053.799789"/>
     <use xlink:href="#MyriadPro-Regular-2d" x="1103.89978"/>
     <use xlink:href="#MyriadPro-Regular-73" x="1134.599777"/>
     <use xlink:href="#MyriadPro-Regular-75" x="1174.199768"/>
     <use xlink:href="#MyriadPro-Regular-6d" x="1229.299759"/>
     <use xlink:href="#MyriadPro-Regular-6d" x="1312.699753"/>
     <use xlink:href="#MyriadPro-Regular-61" x="1396.099747"/>
     <use xlink:href="#MyriadPro-Regular-72" x="1444.299744"/>
     <use xlink:href="#MyriadPro-Regular-79" x="1476.999741"/>
     <use xlink:href="#MyriadPro-Regular-2d" x="1524.099731"/>
     <use xlink:href="#MyriadPro-Regular-63" x="1554.799728"/>
     <use xlink:href="#MyriadPro-Regular-61" x="1599.599716"/>
     <use xlink:href="#MyriadPro-Regular-72" x="1647.799713"/>
     <use xlink:href="#MyriadPro-Regular-64" x="1680.49971"/>
     <use xlink:href="#MyriadPro-Regular-73" x="1736.899704"/>
    </g>
   </g>
   <g id="text_21">
    <!-- stefanzweifel/git-auto-commit-action -->
    <g style="fill: #8c564b" transform="translate(450.30985 246.829697)scale(0.14 -0.14)">
     <use xlink:href="#MyriadPro-Regular-73"/>
     <use xlink:href="#MyriadPro-Regular-74" x="39.599991"/>
     <use xlink:href="#MyriadPro-Regular-65" x="72.699982"/>
     <use xlink:href="#MyriadPro-Regular-66" x="122.799973"/>
     <use xlink:href="#MyriadPro-Regular-61" x="151.999969"/>
     <use xlink:href="#MyriadPro-Regular-6e" x="200.199966"/>
     <use xlink:href="#MyriadPro-Regular-7a" x="255.699951"/>
     <use xlink:href="#MyriadPro-Regular-77" x="298.499939"/>
     <use xlink:href="#MyriadPro-Regular-65" x="372.09993"/>
     <use xlink:href="#MyriadPro-Regular-69" x="422.199921"/>
     <use xlink:href="#MyriadPro-Regular-66" x="445.599915"/>
     <use xlink:href="#MyriadPro-Regular-65" x="474.799911"/>
     <use xlink:href="#MyriadPro-Regular-6c" x="524.899902"/>
     <use xlink:href="#MyriadPro-Regular-2f" x="548.499893"/>
     <use xlink:href="#MyriadPro-Regular-67" x="582.799881"/>
     <use xlink:href="#MyriadPro-Regular-69" x="638.699875"/>
     <use xlink:href="#MyriadPro-Regular-74" x="662.099869"/>
     <use xlink:href="#MyriadPro-Regular-2d" x="695.19986"/>
     <use xlink:href="#MyriadPro-Regular-61" x="725.899857"/>
     <use xlink:href="#MyriadPro-Regular-75" x="774.099854"/>
     <use xlink:href="#MyriadPro-Regular-74" x="829.199844"/>
     <use xlink:href="#MyriadPro-Regular-6f" x="862.299835"/>
     <use xlink:href="#MyriadPro-Regular-2d" x="917.199829"/>
     <use xlink:href="#MyriadPro-Regular-63" x="947.899826"/>
     <use xlink:href="#MyriadPro-Regular-6f" x="992.699814"/>
     <use xlink:href="#MyriadPro-Regular-6d" x="1047.599808"/>
     <use xlink:href="#MyriadPro-Regular-6d" x="1130.999802"/>
     <use xlink:href="#MyriadPro-Regular-69" x="1214.399796"/>
     <use xlink:href="#MyriadPro-Regular-74" x="1237.799789"/>
     <use xlink:href="#MyriadPro-Regular-2d" x="1270.89978"/>
     <use xlink:href="#MyriadPro-Regular-61" x="1301.599777"/>
     <use xlink:href="#MyriadPro-Regular-63" x="1349.799774"/>
     <use xlink:href="#MyriadPro-Regular-74" x="1394.599762"/>
     <use xlink:href="#MyriadPro-Regular-69" x="1427.699753"/>
     <use xlink:href="#MyriadPro-Regular-6f" x="1451.099747"/>
     <use xlink:href="#MyriadPro-Regular-6e" x="1505.999741"/>
    </g>
   </g>
   <g id="text_22">
    <!-- jamesgeorge007/github-activity-readme -->
    <g style="fill: #e377c2" transform="translate(450.30985 260.670009)scale(0.14 -0.14)">
     <defs>
      <path id="MyriadPro-Regular-6a" d="M -230 -1350 
C 70 -1350 480 -1248 730 -998 
C 1005 -717 1101 -326 1101 275 
L 1101 3098 
L 538 3098 
L 538 493 
C 538 -250 480 -499 326 -672 
C 192 -819 -32 -890 -288 -909 
L -230 -1350 
z
M 826 4320 
C 614 4320 467 4166 467 3968 
C 467 3782 602 3622 813 3622 
C 1037 3622 1171 3782 1165 3968 
C 1165 4166 1030 4320 826 4320 
z
" transform="scale(0.015625)"/>
     </defs>
     <use xlink:href="#MyriadPro-Regular-6a"/>
     <use xlink:href="#MyriadPro-Regular-61" x="24.299988"/>
     <use xlink:href="#MyriadPro-Regular-6d" x="72.499985"/>
     <use xlink:href="#MyriadPro-Regular-65" x="155.899979"/>
     <use xlink:href="#MyriadPro-Regular-73" x="205.999969"/>
     <use xlink:href="#MyriadPro-Regular-67" x="245.59996"/>
     <use xlink:href="#MyriadPro-Regular-65" x="301.499954"/>
     <use xlink:href="#MyriadPro-Regular-6f" x="351.599945"/>
     <use xlink:href="#MyriadPro-Regular-72" x="406.499939"/>
     <use xlink:href="#MyriadPro-Regular-67" x="439.199936"/>
     <use xlink:href="#MyriadPro-Regular-65" x="495.09993"/>
     <use xlink:href="#MyriadPro-Regular-30" x="545.199921"/>
     <use xlink:href="#MyriadPro-Regular-30" x="596.499908"/>
     <use xlink:href="#MyriadPro-Regular-37" x="647.799896"/>
     <use xlink:href="#MyriadPro-Regular-2f" x="699.099884"/>
     <use xlink:href="#MyriadPro-Regular-67" x="733.399872"/>
     <use xlink:href="#MyriadPro-Regular-69" x="789.299866"/>
     <use xlink:href="#MyriadPro-Regular-74" x="812.69986"/>
     <use xlink:href="#MyriadPro-Regular-68" x="845.79985"/>
     <use xlink:href="#MyriadPro-Regular-75" x="901.299835"/>
     <use xlink:href="#MyriadPro-Regular-62" x="956.399826"/>
     <use xlink:href="#MyriadPro-Regular-2d" x="1013.29982"/>
     <use xlink:href="#MyriadPro-Regular-61" x="1043.999817"/>
     <use xlink:href="#MyriadPro-Regular-63" x="1092.199814"/>
     <use xlink:href="#MyriadPro-Regular-74" x="1136.999802"/>
     <use xlink:href="#MyriadPro-Regular-69" x="1170.099792"/>
     <use xlink:href="#MyriadPro-Regular-76" x="1193.499786"/>
     <use xlink:href="#MyriadPro-Regular-69" x="1241.599777"/>
     <use xlink:href="#MyriadPro-Regular-74" x="1264.999771"/>
     <use xlink:href="#MyriadPro-Regular-79" x="1298.099762"/>
     <use xlink:href="#MyriadPro-Regular-2d" x="1345.199753"/>
     <use xlink:href="#MyriadPro-Regular-72" x="1375.89975"/>
     <use xlink:href="#MyriadPro-Regular-65" x="1408.599747"/>
     <use xlink:href="#MyriadPro-Regular-61" x="1458.699738"/>
     <use xlink:href="#MyriadPro-Regular-64" x="1506.899734"/>
     <use xlink:href="#MyriadPro-Regular-6d" x="1563.299728"/>
     <use xlink:href="#MyriadPro-Regular-65" x="1646.699722"/>
    </g>
   </g>
   <g id="text_23">
    <!-- @nschloe / gh-trends | Nico Schlömer | CC BY -->
    <g style="fill: #b0b0b0" transform="translate(82.47625 313.643637)scale(0.09716 -0.09716)">
     <defs>
      <path id="MyriadPro-Regular-40" d="M 2867 1632 
C 2797 1235 2458 762 2086 762 
C 1805 762 1664 966 1664 1248 
C 1664 1869 2118 2400 2682 2400 
C 2829 2400 2938 2374 3002 2355 
L 2867 1632 
z
M 3251 -141 
C 2989 -288 2650 -365 2285 -365 
C 1338 -365 640 301 640 1370 
C 640 2669 1517 3501 2560 3501 
C 3552 3501 4109 2829 4109 1901 
C 4109 1158 3744 723 3418 730 
C 3206 736 3130 960 3226 1446 
L 3443 2605 
C 3277 2682 3034 2739 2758 2739 
C 1869 2739 1242 2016 1242 1222 
C 1242 717 1562 416 1933 416 
C 2317 416 2611 602 2835 979 
L 2861 979 
C 2842 589 3078 416 3334 416 
C 3936 416 4474 979 4474 1939 
C 4474 3008 3725 3795 2611 3795 
C 1190 3795 275 2650 275 1331 
C 275 96 1165 -672 2214 -672 
C 2643 -672 3002 -602 3354 -416 
L 3251 -141 
z
" transform="scale(0.015625)"/>
      <path id="MyriadPro-Regular-7c" d="M 550 4800 
L 550 -1600 
L 979 -1600 
L 979 4800 
L 550 4800 
z
" transform="scale(0.015625)"/>
      <path id="MyriadPro-Regular-4e" d="M 1011 0 
L 1011 1843 
C 1011 2560 998 3078 966 3622 
L 986 3629 
C 1203 3162 1491 2669 1792 2189 
L 3162 0 
L 3725 0 
L 3725 4314 
L 3200 4314 
L 3200 2509 
C 3200 1837 3213 1312 3264 736 
L 3251 730 
C 3046 1171 2797 1626 2477 2131 
L 1094 4314 
L 486 4314 
L 486 0 
L 1011 0 
z
" transform="scale(0.015625)"/>
      <path id="MyriadPro-Regular-53" d="M 269 211 
C 499 58 954 -70 1370 -70 
C 2387 -70 2880 512 2880 1178 
C 2880 1811 2509 2163 1779 2445 
C 1184 2675 922 2874 922 3277 
C 922 3571 1146 3923 1734 3923 
C 2125 3923 2413 3795 2554 3718 
L 2707 4173 
C 2515 4282 2195 4384 1754 4384 
C 915 4384 358 3885 358 3213 
C 358 2605 794 2240 1498 1990 
C 2080 1766 2310 1536 2310 1133 
C 2310 698 1978 397 1408 397 
C 1024 397 659 525 410 678 
L 269 211 
z
" transform="scale(0.015625)"/>
      <path id="MyriadPro-Regular-f6" d="M 1165 3648 
C 1350 3648 1478 3802 1478 3974 
C 1478 4160 1344 4301 1165 4301 
C 986 4301 838 4154 838 3974 
C 838 3802 973 3648 1158 3648 
L 1165 3648 
z
M 2349 3648 
C 2534 3648 2662 3802 2662 3974 
C 2662 4160 2528 4301 2349 4301 
C 2170 4301 2029 4154 2029 3974 
C 2029 3802 2157 3648 2342 3648 
L 2349 3648 
z
M 1779 3168 
C 922 3168 243 2560 243 1523 
C 243 544 890 -70 1728 -70 
C 2477 -70 3270 429 3270 1574 
C 3270 2522 2669 3168 1779 3168 
z
M 1766 2746 
C 2432 2746 2694 2080 2694 1555 
C 2694 858 2291 352 1754 352 
C 1203 352 813 864 813 1542 
C 813 2131 1101 2746 1766 2746 
z
" transform="scale(0.015625)"/>
      <path id="MyriadPro-Regular-43" d="M 3386 582 
C 3162 474 2816 403 2477 403 
C 1427 403 819 1082 819 2138 
C 819 3270 1491 3917 2502 3917 
C 2861 3917 3162 3840 3373 3738 
L 3507 4192 
C 3360 4269 3021 4384 2483 4384 
C 1146 4384 230 3469 230 2118 
C 230 704 1146 -70 2362 -70 
C 2886 -70 3296 38 3501 141 
L 3386 582 
z
" transform="scale(0.015625)"/>
      <path id="MyriadPro-Regular-42" d="M 486 13 
C 672 -13 966 -38 1350 -38 
C 2054 -38 2541 90 2842 365 
C 3059 576 3206 858 3206 1229 
C 3206 1869 2726 2208 2317 2310 
L 2317 2323 
C 2771 2490 3046 2854 3046 3270 
C 3046 3610 2912 3866 2688 4032 
C 2419 4250 2061 4346 1504 4346 
C 1114 4346 730 4307 486 4256 
L 486 13 
z
M 1043 3878 
C 1133 3898 1280 3917 1536 3917 
C 2099 3917 2483 3718 2483 3213 
C 2483 2797 2138 2490 1549 2490 
L 1043 2490 
L 1043 3878 
z
M 1043 2067 
L 1504 2067 
C 2112 2067 2618 1824 2618 1235 
C 2618 608 2086 397 1510 397 
C 1312 397 1152 403 1043 422 
L 1043 2067 
z
" transform="scale(0.015625)"/>
      <path id="MyriadPro-Regular-59" d="M 2010 0 
L 2010 1837 
L 3456 4314 
L 2822 4314 
L 2202 3123 
C 2035 2797 1888 2515 1766 2234 
L 1754 2234 
C 1619 2534 1491 2797 1325 3123 
L 717 4314 
L 83 4314 
L 1446 1830 
L 1446 0 
L 2010 0 
z
" transform="scale(0.015625)"/>
     </defs>
     <use xlink:href="#MyriadPro-Regular-40"/>
     <use xlink:href="#MyriadPro-Regular-6e" x="73.699982"/>
     <use xlink:href="#MyriadPro-Regular-73" x="129.199966"/>
     <use xlink:href="#MyriadPro-Regular-63" x="168.799957"/>
     <use xlink:href="#MyriadPro-Regular-68" x="213.599945"/>
     <use xlink:href="#MyriadPro-Regular-6c" x="269.09993"/>
     <use xlink:href="#MyriadPro-Regular-6f" x="292.699921"/>
     <use xlink:href="#MyriadPro-Regular-65" x="347.599915"/>
     <use xlink:href="#MyriadPro-Regular-20" x="397.699905"/>
     <use xlink:href="#MyriadPro-Regular-2f" x="418.899902"/>
     <use xlink:href="#MyriadPro-Regular-20" x="453.19989"/>
     <use xlink:href="#MyriadPro-Regular-67" x="474.399887"/>
     <use xlink:href="#MyriadPro-Regular-68" x="530.299881"/>
     <use xlink:href="#MyriadPro-Regular-2d" x="585.799866"/>
     <use xlink:href="#MyriadPro-Regular-74" x="616.499863"/>
     <use xlink:href="#MyriadPro-Regular-72" x="649.599854"/>
     <use xlink:href="#MyriadPro-Regular-65" x="682.29985"/>
     <use xlink:href="#MyriadPro-Regular-6e" x="732.399841"/>
     <use xlink:href="#MyriadPro-Regular-64" x="787.899826"/>
     <use xlink:href="#MyriadPro-Regular-73" x="844.29982"/>
     <use xlink:href="#MyriadPro-Regular-20" x="883.899811"/>
     <use xlink:href="#MyriadPro-Regular-7c" x="905.099808"/>
     <use xlink:href="#MyriadPro-Regular-20" x="928.999802"/>
     <use xlink:href="#MyriadPro-Regular-4e" x="950.199799"/>
     <use xlink:href="#MyriadPro-Regular-69" x="1015.999786"/>
     <use xlink:href="#MyriadPro-Regular-63" x="1039.39978"/>
     <use xlink:href="#MyriadPro-Regular-6f" x="1084.199768"/>
     <use xlink:href="#MyriadPro-Regular-20" x="1139.099762"/>
     <use xlink:href="#MyriadPro-Regular-53" x="1160.299759"/>
     <use xlink:href="#MyriadPro-Regular-63" x="1209.599747"/>
     <use xlink:href="#MyriadPro-Regular-68" x="1254.399734"/>
     <use xlink:href="#MyriadPro-Regular-6c" x="1309.899719"/>
     <use xlink:href="#MyriadPro-Regular-f6" x="1333.49971"/>
     <use xlink:href="#MyriadPro-Regular-6d" x="1388.399704"/>
     <use xlink:href="#MyriadPro-Regular-65" x="1471.799698"/>
     <use xlink:href="#MyriadPro-Regular-72" x="1521.899689"/>
     <use xlink:href="#MyriadPro-Regular-20" x="1554.599686"/>
     <use xlink:href="#MyriadPro-Regular-7c" x="1575.799683"/>
     <use xlink:href="#MyriadPro-Regular-20" x="1599.699677"/>
     <use xlink:href="#MyriadPro-Regular-43" x="1620.899673"/>
     <use xlink:href="#MyriadPro-Regular-43" x="1678.899658"/>
     <use xlink:href="#MyriadPro-Regular-20" x="1736.899643"/>
     <use xlink:href="#MyriadPro-Regular-42" x="1758.09964"/>
     <use xlink:href="#MyriadPro-Regular-59" x="1812.299637"/>
    </g>
   </g>
   <g id="line2d_23">
    <path d="M 145.841804 279.745437 
L 156.173145 263.290751 
L 166.848863 260.453736 
L 177.180204 258.184124 
L 187.855922 256.425175 
L 198.531641 252.850536 
L 208.518603 249.616339 
L 219.194321 247.516948 
L 229.525662 246.552363 
L 240.20138 245.98496 
L 250.532721 245.531037 
L 261.208439 245.133855 
L 271.884157 239.743527 
L 282.215498 237.814357 
L 292.891216 236.793032 
L 303.222557 235.658226 
L 313.898275 234.126237 
L 324.573993 233.331873 
L 334.216578 232.70773 
L 344.892296 231.913366 
L 355.223637 230.8353 
L 365.899355 229.927455 
L 376.230696 229.303312 
L 386.906414 228.679169 
L 397.582132 228.111766 
L 407.913473 227.657843 
L 418.589191 226.97696 
L 428.920532 220.281605 
L 439.59625 219.146799 
" clip-path="url(#p333f94713c)" style="fill: none; stroke: #d62728; stroke-width: 1.5; stroke-linecap: square"/>
   </g>
   <g id="line2d_24">
    <path d="M 135.166086 279.745437 
L 145.841804 276.114058 
L 156.173145 273.560745 
L 166.848863 272.70964 
L 177.180204 271.404614 
L 187.855922 269.248482 
L 198.531641 268.113676 
L 208.518603 266.468208 
L 219.194321 264.482297 
L 229.525662 262.723348 
L 240.20138 260.453736 
L 250.532721 259.148709 
L 261.208439 257.616721 
L 271.884157 255.57407 
L 282.215498 252.737055 
L 292.891216 250.183742 
L 303.222557 247.743909 
L 313.898275 245.304076 
L 324.573993 243.601867 
L 334.216578 241.105294 
L 344.892296 238.32502 
L 355.223637 235.090823 
L 365.899355 231.856626 
L 376.230696 229.813975 
L 386.906414 227.09044 
L 397.582132 223.742763 
L 407.913473 221.075969 
L 418.589191 217.898512 
L 428.920532 215.51542 
L 439.59625 213.302548 
" clip-path="url(#p333f94713c)" style="fill: none; stroke: #2ca02c; stroke-width: 1.5; stroke-linecap: square"/>
   </g>
   <g id="line2d_25">
    <path d="M 82.47625 279.745437 
L 93.151968 277.816267 
L 103.483309 277.362345 
L 114.159027 276.965163 
L 124.490368 276.851682 
L 135.166086 276.794942 
L 145.841804 275.319694 
L 156.173145 271.858536 
L 166.848863 269.361963 
L 177.180204 265.276661 
L 187.855922 261.872243 
L 198.531641 257.33302 
L 208.518603 254.269043 
L 219.194321 250.013521 
L 229.525662 245.190596 
L 240.20138 240.935073 
L 250.532721 237.927837 
L 261.208439 234.807121 
L 271.884157 230.551599 
L 282.215498 226.125855 
L 292.891216 219.997903 
L 303.222557 215.68564 
L 313.898275 211.203157 
L 324.573993 206.777414 
L 334.216578 203.146035 
L 344.892296 198.039408 
L 355.223637 192.251897 
L 365.899355 188.563778 
L 376.230696 184.705437 
L 386.906414 180.279694 
L 397.582132 173.8113 
L 407.913473 169.725999 
L 418.589191 166.15136 
L 428.920532 140.164303 
L 439.59625 135.73856 
" clip-path="url(#p333f94713c)" style="fill: none; stroke: #ff7f0e; stroke-width: 1.5; stroke-linecap: square"/>
   </g>
   <g id="line2d_26">
    <path d="M 271.884157 279.745437 
L 282.215498 279.234775 
L 292.891216 278.38367 
L 303.222557 277.532566 
L 313.898275 273.447264 
L 324.573993 158.434679 
L 334.216578 146.632697 
L 344.892296 137.270548 
L 355.223637 124.3905 
L 365.899355 113.609843 
L 376.230696 99.481509 
L 386.906414 84.899252 
L 397.582132 66.118214 
L 407.913473 54.146011 
L 418.589191 39.847455 
L 428.920532 26.967408 
L 439.59625 13.633437 
" clip-path="url(#p333f94713c)" style="fill: none; stroke: #1f77b4; stroke-width: 1.5; stroke-linecap: square"/>
   </g>
  </g>
 </g>
 <defs>
  <clipPath id="p333f94713c">
   <rect x="82.47625" y="13.633437" width="357.12" height="266.112"/>
  </clipPath>
 </defs>
</svg>
