<svg height="468.633" viewBox="0 0 582.775 351.475" width="777.033" xmlns="http://www.w3.org/2000/svg" xmlns:xlink="http://www.w3.org/1999/xlink"><defs><style>*{stroke-linecap:butt;stroke-linejoin:round}</style></defs><g id="figure_1"><path d="M0 351.475h582.775V0H0z" style="fill:none" id="patch_1"/><g id="axes_1"><path d="M86.396 307.948h357.12V41.836H86.396z" style="fill:none" id="patch_2"/><g id="matplotlib.axis_1"><g id="xtick_1"><g id="line2d_1"><defs><path d="M0 0v3.5" id="m4c07786ef6" style="stroke:#969696;stroke-width:.4"/></defs><use style="fill:#969696;stroke:#969696;stroke-width:.4" x="141.603" xlink:href="#m4c07786ef6" y="307.948"/></g><g style="fill:#969696" transform="matrix(.14 0 0 -.14 126.037 324.945)" id="text_1"><defs><path d="M3181 371H691c109 602 909 999 1344 1293 583 378 1127 845 1127 1594 0 832-608 1260-1389 1260-973 0-1453-665-1434-1587h403c-12 659 276 1248 1012 1248 544 0 1004-333 1004-915 0-358-128-595-371-845C1626 1658 262 1331 230 0h2951v371z" id="HelveticaNeue-Light-32" transform="scale(.01563)"/><path d="M1779 4179c1024 0 1159-1190 1159-1965 0-780-135-1971-1159-1971S621 1434 621 2214c0 775 134 1965 1158 1965zm0 339C474 4518 218 3258 218 2208 218 1165 474-96 1779-96c1306 0 1562 1261 1562 2310 0 1044-256 2304-1562 2304z" id="HelveticaNeue-Light-30" transform="scale(.01563)"/><path d="M621 3328h1184V0h403v4480h-326c-122-826-557-838-1261-864v-288z" id="HelveticaNeue-Light-31" transform="scale(.01563)"/></defs><use xlink:href="#HelveticaNeue-Light-32"/><use x="55.6" xlink:href="#HelveticaNeue-Light-30"/><use x="111.2" xlink:href="#HelveticaNeue-Light-31"/><use x="166.8" xlink:href="#HelveticaNeue-Light-32"/></g></g><g id="xtick_2"><use style="fill:#969696;stroke:#969696;stroke-width:.4" x="204.66" xlink:href="#m4c07786ef6" y="307.948" id="line2d_2"/><g style="fill:#969696" transform="matrix(.14 0 0 -.14 189.094 324.945)" id="text_2"><defs><path d="M192 1114h2067V0h371v1114h672v339h-672v3027h-364L192 1504v-390zm365 339 1689 2438h13V1453H557z" id="HelveticaNeue-Light-34" transform="scale(.01563)"/></defs><use xlink:href="#HelveticaNeue-Light-32"/><use x="55.6" xlink:href="#HelveticaNeue-Light-30"/><use x="111.2" xlink:href="#HelveticaNeue-Light-31"/><use x="166.8" xlink:href="#HelveticaNeue-Light-34"/></g></g><g id="xtick_3"><use style="fill:#969696;stroke:#969696;stroke-width:.4" x="267.63" xlink:href="#m4c07786ef6" y="307.948" id="line2d_3"/><g style="fill:#969696" transform="matrix(.14 0 0 -.14 252.064 324.945)" id="text_3"><defs><path d="M1856 2579c685 0 1082-531 1082-1184 0-621-436-1152-1076-1152-780 0-1120 519-1120 1152 0 659 410 1184 1114 1184zm1376 768c-96 781-589 1171-1376 1171-1466 0-1600-1702-1600-2233C256 538 736-96 1824-96c883 0 1517 646 1517 1517 0 877-583 1497-1479 1497-505 0-979-300-1190-742h-13c0 813 192 2003 1235 2003 519 0 864-339 935-832h403z" id="HelveticaNeue-Light-36" transform="scale(.01563)"/></defs><use xlink:href="#HelveticaNeue-Light-32"/><use x="55.6" xlink:href="#HelveticaNeue-Light-30"/><use x="111.2" xlink:href="#HelveticaNeue-Light-31"/><use x="166.8" xlink:href="#HelveticaNeue-Light-36"/></g></g><g id="xtick_4"><use style="fill:#969696;stroke:#969696;stroke-width:.4" x="330.687" xlink:href="#m4c07786ef6" y="307.948" id="line2d_4"/><g style="fill:#969696" transform="matrix(.14 0 0 -.14 315.12 324.945)" id="text_4"><defs><path d="M1779 243c-627 0-1139 339-1139 1011 0 660 525 986 1139 973 602 13 1139-326 1139-973 0-684-512-1011-1139-1011zm1357 3155c0 768-698 1120-1363 1120-659 0-1357-352-1357-1120 0-492 262-844 730-985v-13c-551-102-896-563-909-1146C237 352 941-96 1779-96c839 0 1543 448 1543 1350 0 602-340 1031-916 1146v13c455 134 730 499 730 985zm-1357-832c-473-12-960 231-960 832 0 512 467 781 960 781 538 0 954-269 954-781 0-576-461-844-954-832z" id="HelveticaNeue-Light-38" transform="scale(.01563)"/></defs><use xlink:href="#HelveticaNeue-Light-32"/><use x="55.6" xlink:href="#HelveticaNeue-Light-30"/><use x="111.2" xlink:href="#HelveticaNeue-Light-31"/><use x="166.8" xlink:href="#HelveticaNeue-Light-38"/></g></g><g id="xtick_5"><use style="fill:#969696;stroke:#969696;stroke-width:.4" x="393.657" xlink:href="#m4c07786ef6" y="307.948" id="line2d_5"/><g style="fill:#969696" transform="matrix(.14 0 0 -.14 378.091 324.945)" id="text_5"><use xlink:href="#HelveticaNeue-Light-32"/><use x="55.6" xlink:href="#HelveticaNeue-Light-30"/><use x="111.2" xlink:href="#HelveticaNeue-Light-32"/><use x="166.8" xlink:href="#HelveticaNeue-Light-30"/></g></g></g><g id="matplotlib.axis_2"><g id="ytick_1"><path clip-path="url(#p8c8ac8a205)" d="M86.396 307.948h357.12" style="fill:none;stroke:#969696;stroke-linecap:square;stroke-width:.3" id="line2d_6"/><g id="line2d_7"><defs><path d="M0 0h-3.5" id="md978361c38" style="stroke:#969696;stroke-width:.3"/></defs><use style="fill:#969696;stroke:#969696;stroke-width:.3" x="86.396" xlink:href="#md978361c38" y="307.948"/></g><use xlink:href="#HelveticaNeue-Light-30" style="fill:#969696" transform="matrix(.14 0 0 -.14 71.613 312.946)" id="text_6"/></g><g id="ytick_2"><path clip-path="url(#p8c8ac8a205)" d="M86.396 264.37h357.12" style="fill:none;stroke:#969696;stroke-linecap:square;stroke-width:.3" id="line2d_8"/><use style="fill:#969696;stroke:#969696;stroke-width:.3" x="86.396" xlink:href="#md978361c38" y="264.37" id="line2d_9"/><g style="fill:#969696" transform="matrix(.14 0 0 -.14 48.264 269.368)" id="text_7"><defs><path d="M230 1280C250 429 870-96 1702-96c858 0 1556 640 1556 1517 0 902-583 1549-1504 1549-346 0-724-154-948-416l-12 12 288 1485h1958v371H800L365 2099h345c218 339 602 531 999 531 665 0 1145-505 1145-1164 0-653-428-1223-1120-1223-614 0-1081 416-1100 1037H230z" id="HelveticaNeue-Light-35" transform="scale(.01563)"/></defs><use xlink:href="#HelveticaNeue-Light-35"/><use x="55.6" xlink:href="#HelveticaNeue-Light-30"/><use x="111.2" xlink:href="#HelveticaNeue-Light-30"/><use x="166.8" xlink:href="#HelveticaNeue-Light-30"/></g></g><g id="ytick_3"><path clip-path="url(#p8c8ac8a205)" d="M86.396 220.792h357.12" style="fill:none;stroke:#969696;stroke-linecap:square;stroke-width:.3" id="line2d_10"/><use style="fill:#969696;stroke:#969696;stroke-width:.3" x="86.396" xlink:href="#md978361c38" y="220.792" id="line2d_11"/><g style="fill:#969696" transform="matrix(.14 0 0 -.14 40.48 225.79)" id="text_8"><use xlink:href="#HelveticaNeue-Light-31"/><use x="55.6" xlink:href="#HelveticaNeue-Light-30"/><use x="111.2" xlink:href="#HelveticaNeue-Light-30"/><use x="166.8" xlink:href="#HelveticaNeue-Light-30"/><use x="222.4" xlink:href="#HelveticaNeue-Light-30"/></g></g><g id="ytick_4"><path clip-path="url(#p8c8ac8a205)" d="M86.396 177.215h357.12" style="fill:none;stroke:#969696;stroke-linecap:square;stroke-width:.3" id="line2d_12"/><use style="fill:#969696;stroke:#969696;stroke-width:.3" x="86.396" xlink:href="#md978361c38" y="177.215" id="line2d_13"/><g style="fill:#969696" transform="matrix(.14 0 0 -.14 40.48 182.213)" id="text_9"><use xlink:href="#HelveticaNeue-Light-31"/><use x="55.6" xlink:href="#HelveticaNeue-Light-35"/><use x="111.2" xlink:href="#HelveticaNeue-Light-30"/><use x="166.8" xlink:href="#HelveticaNeue-Light-30"/><use x="222.4" xlink:href="#HelveticaNeue-Light-30"/></g></g><g id="ytick_5"><path clip-path="url(#p8c8ac8a205)" d="M86.396 133.637h357.12" style="fill:none;stroke:#969696;stroke-linecap:square;stroke-width:.3" id="line2d_14"/><use style="fill:#969696;stroke:#969696;stroke-width:.3" x="86.396" xlink:href="#md978361c38" y="133.637" id="line2d_15"/><g style="fill:#969696" transform="matrix(.14 0 0 -.14 40.48 138.635)" id="text_10"><use xlink:href="#HelveticaNeue-Light-32"/><use x="55.6" xlink:href="#HelveticaNeue-Light-30"/><use x="111.2" xlink:href="#HelveticaNeue-Light-30"/><use x="166.8" xlink:href="#HelveticaNeue-Light-30"/><use x="222.4" xlink:href="#HelveticaNeue-Light-30"/></g></g><g id="ytick_6"><path clip-path="url(#p8c8ac8a205)" d="M86.396 90.059h357.12" style="fill:none;stroke:#969696;stroke-linecap:square;stroke-width:.3" id="line2d_16"/><use style="fill:#969696;stroke:#969696;stroke-width:.3" x="86.396" xlink:href="#md978361c38" y="90.059" id="line2d_17"/><g style="fill:#969696" transform="matrix(.14 0 0 -.14 40.48 95.057)" id="text_11"><use xlink:href="#HelveticaNeue-Light-32"/><use x="55.6" xlink:href="#HelveticaNeue-Light-35"/><use x="111.2" xlink:href="#HelveticaNeue-Light-30"/><use x="166.8" xlink:href="#HelveticaNeue-Light-30"/><use x="222.4" xlink:href="#HelveticaNeue-Light-30"/></g></g><g id="ytick_7"><path clip-path="url(#p8c8ac8a205)" d="M86.396 46.481h357.12" style="fill:none;stroke:#969696;stroke-linecap:square;stroke-width:.3" id="line2d_18"/><use style="fill:#969696;stroke:#969696;stroke-width:.3" x="86.396" xlink:href="#md978361c38" y="46.481" id="line2d_19"/><g style="fill:#969696" transform="matrix(.14 0 0 -.14 40.48 51.48)" id="text_12"><defs><path d="M211 1427C147 467 813-96 1741-96c825 0 1542 486 1542 1363 0 589-339 1011-921 1107v13c480 115 755 506 755 992 0 794-685 1139-1389 1139-870 0-1408-627-1414-1472h403c-13 666 345 1133 1017 1133 538 0 980-256 980-845 0-563-493-819-909-812h-339v-340h339c595 0 1075-313 1075-947 0-640-557-992-1146-992-723 0-1145 474-1120 1184H211z" id="HelveticaNeue-Light-33" transform="scale(.01563)"/></defs><use xlink:href="#HelveticaNeue-Light-33"/><use x="55.6" xlink:href="#HelveticaNeue-Light-30"/><use x="111.2" xlink:href="#HelveticaNeue-Light-30"/><use x="166.8" xlink:href="#HelveticaNeue-Light-30"/><use x="222.4" xlink:href="#HelveticaNeue-Light-30"/></g></g><g style="fill:#969696" transform="matrix(.14 0 0 -.14 7.2 17.197)" id="text_13"><defs><path d="M4365 2323H2426v-371h1555c19-966-570-1677-1581-1677-1210 0-1722 1011-1722 2010 0 998 512 2009 1722 2009 870 0 1414-620 1472-1145h435c-166 998-947 1517-1907 1517-1440 0-2157-1133-2157-2381S960-96 2400-96c659 0 1274 275 1581 928h13l57-832h314v2323z" id="HelveticaNeue-Light-47" transform="scale(.01563)"/><path d="M390 0h404v3302H390V0zm0 3923h404v647H390v-647z" id="HelveticaNeue-Light-69" transform="scale(.01563)"/><path d="M1024 4294H621v-992H45v-339h576V704c-7-563 179-742 717-742 121 0 236 12 358 12v346c-115-13-230-19-346-19-288 19-326 173-326 435v2227h672v339h-672v992z" id="HelveticaNeue-Light-74" transform="scale(.01563)"/><path d="M461 0h435v2214h2714V0h435v4570h-435V2586H896v1984H461V0z" id="HelveticaNeue-Light-48" transform="scale(.01563)"/><path d="M3059 3302h-403V1568c0-672-301-1325-992-1325-640 0-864 314-883 909v2150H378V1158C378 390 704-96 1536-96c493 0 928 250 1139 691h13V0h371v3302z" id="HelveticaNeue-Light-75" transform="scale(.01563)"/><path d="M3027 1651c0-685-313-1408-1081-1408-858 0-1159 723-1159 1408s301 1408 1159 1408c768 0 1081-723 1081-1408zM384 0h371v627h13C954 179 1414-96 1946-96c1004 0 1484 813 1484 1747 0 935-480 1747-1484 1747-493 0-973-249-1146-723h-13v1895H384V0z" id="HelveticaNeue-Light-62" transform="scale(.01563)"/><path d="M2765 2336c-26 717-551 1062-1210 1062-582 0-1241-256-1241-928 0-563 396-742 921-883l519-115c364-90 723-218 723-602 0-460-525-627-903-627-537 0-940 282-972 826H198C262 262 787-96 1555-96c615 0 1325 275 1325 992 0 576-480 845-941 915l-537 122c-276 70-685 198-685 557 0 428 422 569 781 569 460 0 844-224 864-723h403z" id="HelveticaNeue-Light-73" transform="scale(.01563)"/><path d="M2496 1280c6-646-538-1037-1152-1037-378 0-736 250-736 653 0 646 851 640 1536 762 109 19 288 51 339 147h13v-525zM749 2291c13 538 384 768 883 768 474 0 864-134 864-678 0-365-186-410-518-448-871-103-1773-135-1773-1063 0-665 499-966 1107-966 634 0 922 243 1203 672h13c0-346 64-576 474-576 108 0 172 6 262 26v339c-32-13-83-26-128-26-160 0-237 90-237 243v1754c0 883-633 1062-1216 1062-755 0-1299-332-1337-1107h403z" id="HelveticaNeue-Light-61" transform="scale(.01563)"/><path d="M384 0h403v1760c0 685 499 1222 1229 1184v403c-595 26-1043-288-1248-819h-13v774H384V0z" id="HelveticaNeue-Light-72" transform="scale(.01563)"/></defs><use xlink:href="#HelveticaNeue-Light-47"/><use x="74.1" xlink:href="#HelveticaNeue-Light-69"/><use x="92.6" xlink:href="#HelveticaNeue-Light-74"/><use x="122.2" xlink:href="#HelveticaNeue-Light-48"/><use x="192.6" xlink:href="#HelveticaNeue-Light-75"/><use x="246.3" xlink:href="#HelveticaNeue-Light-62"/><use x="303.7" xlink:href="#HelveticaNeue-Light-20"/><use x="331.5" xlink:href="#HelveticaNeue-Light-73"/><use x="379.6" xlink:href="#HelveticaNeue-Light-74"/><use x="409.2" xlink:href="#HelveticaNeue-Light-61"/><use x="461.1" xlink:href="#HelveticaNeue-Light-72"/><use x="492.6" xlink:href="#HelveticaNeue-Light-73"/></g></g><path clip-path="url(#p8c8ac8a205)" d="m125.731 307.948 2.674-.506 2.674-.035 2.588-.017 2.674-.061 2.588-.017 2.674-.01 2.674-.034 2.502-.061 2.674-.026 2.588-.018h2.674l2.588-.017 2.674-.035 2.674-.026 2.588-.009 2.674-.008 2.588-.018h5.348l2.415-.078 2.674-.053 2.588-.087 2.674-.043 2.588-.053 2.674-.06 2.674-.027 2.588-.035 2.674-.043 2.588-.053 2.674-.07 2.674-.052 2.415-.148 2.674-.113 2.588-.096 2.674-.436 2.588-.27 2.674-.375 2.674-.226 2.588-.114 2.674-.13 2.588-.079 2.674-.104 2.674-.166 2.416-.165 2.674-.079 2.587-.157 2.675-.287 2.587-.157 2.674-.21 2.675-.104 2.587-.244 2.674-.192 2.588-.348 2.674-.157 2.674-.14 2.502-.209 2.674-.166 2.588-.209 2.674-.148 2.588-.2 2.674-.28 2.674-.322 2.588-.27 2.674-.296 2.588-.314 2.674-.34 2.674-.357 2.415-.166 2.674-.41 2.588-.191 2.674-.27 2.588-.227 2.674-.244 2.674-.349 2.588-.305 2.674-.4 2.588-.253 2.674-.2 2.674-.236 2.415-.227 2.675-.27 2.587-.148 2.674-.183 2.588-.174 2.674-.157 2.674-1.7 2.588-.148 2.674-.444 2.588-.253 2.674-.21 2.674-.235 2.416-.174 2.674-.253 2.588-.279 2.674-.27 2.587-.165 2.675-.288 2.674-.183 2.587-.27 2.675-.314 2.587-.323 2.674-.41 2.675-.295 2.501-.236 2.674-.261 2.588-.349 2.674-.253 2.588-.183 2.674-.183 2.674-.14 2.588-.2 2.674-.2 2.588-.288 2.674-.313 2.674-.21 2.415-.252 2.674-.218 2.588-.218 2.674-.253 2.588-.218 2.674-.174" style="fill:none;stroke:#e377c2;stroke-linecap:square;stroke-width:1.5" id="line2d_20"/><path clip-path="url(#p8c8ac8a205)" d="m86.396 307.948 2.588-1.15 15.872-.524 7.936-.278 18.287-.828 5.262-.227 2.588-.331 10.524-.68 10.524-.244 15.872-.052 7.677-.698 5.262-.453 10.61-.732 5.262-.383 13.025-1.918 2.588-.244 2.674-1.96 2.674-1.23 5.262-.845 2.588-.732 2.674-.602 2.674-.374 10.352-2.17 2.587-.314 10.61-1.91 2.588-.487 5.348-.785 7.764-2.022 10.61-2.257 5.262-1.569 2.588-.81 15.7-4.114 5.261-1.386 2.674-.767 2.588-.61 2.674-.924 2.588-.68 13.025-3.948 2.674-.706 2.588-.479 2.674-.662 2.674-.854 2.588-.706 2.674-.977 5.262-1.499 7.764-2.484 5.262-1.743 2.587-.845 2.675-.68 2.674-.889 10.523-3.024 7.85-2.737 10.524-4.105 2.674-.784 2.588-.898 2.674-.802 2.588-1.176 2.674-1.011 2.674-.75 12.94-4.349 2.673-.601h0" style="fill:none;stroke:#8c564b;stroke-linecap:square;stroke-width:1.5" id="line2d_21"/><path clip-path="url(#p8c8ac8a205)" d="m243.909 307.948 2.587-.506 2.675-.627 2.587-.358 2.674-.54 2.675-.54 2.587-.453 2.674-.68 2.588-.584 2.674-.584 2.674-.89 2.502-.688 2.674-.714 2.588-1.308 2.674-.653 2.588-.732 2.674-.855 2.674-.854 2.588-.67 2.674-.803 2.588-.854 2.674-.688 2.674-.793 2.415-.75 2.674-1.011 2.588-.967 2.674-.88 2.588-1.055 2.674-1.125 2.674-1.028 2.588-1.046 2.674-1.386 2.588-1.342 2.674-1.272 2.674-1.656 2.415-1.595 2.675-1.5 2.587-1.647 2.674-1.228 2.588-1.064 2.674-1.072 2.674-.993 2.588-.976 2.674-1.334 2.588-1.403 2.674-1.229 2.674-1.438 2.416-.967 2.674-1.508 2.588-1.203 2.674-1.116 2.587-1.063 2.675-1.124 2.674-1.064 2.587-.88 2.675-1.028 2.587-1.36 2.674-.976 2.675-.915 2.501-.907 2.674-.958 2.588-1.09 2.674-1.037 2.588-.828 2.674-1.185 2.674-.793 2.588-.846 2.674-1.01 2.588-.898 2.674-.95 2.674-.855 2.415-.644 2.674-.907 2.588-.802 2.674-.75 2.588-.548 2.674-.645" style="fill:none;stroke:#9467bd;stroke-linecap:square;stroke-width:1.5" id="line2d_22"/><g style="fill:#1f77b4" transform="matrix(.14 0 0 -.14 454.23 45.603)" id="text_14"><defs><path d="M3027 1651c0-685-313-1408-1081-1408-858 0-1159 723-1159 1408 0 749 269 1408 1159 1408 768 0 1081-723 1081-1408zM384-1222h403V627h13C973 154 1453-96 1946-96c1004 0 1484 813 1484 1747 0 935-480 1747-1484 1747-532 0-992-275-1178-723h-13v627H384v-4524z" id="HelveticaNeue-Light-70" transform="scale(.01563)"/><path d="M378 0h403v1926c13 647 397 1133 1037 1133 652 0 838-429 838-998V0h403v2125c0 787-281 1273-1209 1273-468 0-909-268-1056-665h-13v569H378V0z" id="HelveticaNeue-Light-6e" transform="scale(.01563)"/><path d="M646 1651c0 685 314 1408 1082 1408 858 0 1158-723 1158-1408S2586 243 1728 243C960 243 646 966 646 1651zm2644 2919h-404V2675h-12c-173 474-653 723-1146 723-1005 0-1485-812-1485-1747C243 717 723-96 1728-96c480 0 1005 294 1178 723h12V0h372v4570z" id="HelveticaNeue-Light-64" transform="scale(.01563)"/><path d="M1984 1574v372H384v-372h1600z" id="HelveticaNeue-Light-2d" transform="scale(.01563)"/><path d="M3162 1542c32 928-391 1856-1453 1856-1050 0-1491-876-1491-1747C218 710 659-96 1709-96c832 0 1267 435 1440 1184h-403c-128-499-448-845-1037-845-775 0-1082 711-1088 1299h2541zM621 1882c64 601 429 1177 1088 1177 653 0 1030-569 1049-1177H621z" id="HelveticaNeue-Light-65" transform="scale(.01563)"/><path d="M1286 0h429l1235 3302h-416L1510 403h-12L461 3302H13L1286 0z" id="HelveticaNeue-Light-76" transform="scale(.01563)"/><path d="m262-96 1952 4762h-326L-83-96h345z" id="HelveticaNeue-Light-2f" transform="scale(.01563)"/></defs><use xlink:href="#HelveticaNeue-Light-70"/><use x="57.4" xlink:href="#HelveticaNeue-Light-61"/><use x="109.3" xlink:href="#HelveticaNeue-Light-6e"/><use x="163" xlink:href="#HelveticaNeue-Light-64"/><use x="220.4" xlink:href="#HelveticaNeue-Light-61"/><use x="272.3" xlink:href="#HelveticaNeue-Light-73"/><use x="320.4" xlink:href="#HelveticaNeue-Light-2d"/><use x="357.4" xlink:href="#HelveticaNeue-Light-64"/><use x="414.8" xlink:href="#HelveticaNeue-Light-65"/><use x="466.7" xlink:href="#HelveticaNeue-Light-76"/><use x="513" xlink:href="#HelveticaNeue-Light-2f"/><use x="546.3" xlink:href="#HelveticaNeue-Light-70"/><use x="603.7" xlink:href="#HelveticaNeue-Light-61"/><use x="655.6" xlink:href="#HelveticaNeue-Light-6e"/><use x="709.3" xlink:href="#HelveticaNeue-Light-64"/><use x="766.7" xlink:href="#HelveticaNeue-Light-61"/><use x="818.6" xlink:href="#HelveticaNeue-Light-73"/></g><g style="fill:#ff7f0e" transform="matrix(.14 0 0 -.14 454.23 156.639)" id="text_15"><defs><path d="M384 0h403v1843c7 691 288 1216 986 1216 512 0 697-371 691-819V0h403v1869c0 614 199 1190 896 1190 576 0 781-294 781-838V0h403v2240c0 781-371 1158-1094 1158-435 0-851-211-1050-646-121 435-512 646-947 646-525 0-870-256-1082-652h-19v556H384V0z" id="HelveticaNeue-Light-6d" transform="scale(.01563)"/><path d="m1331 13-141-378c-134-307-217-518-576-518-89 0-179 13-275 32v-339c64-26 147-26 307-32 506 0 640 160 871 716l1433 3808h-403L1530 486 442 3302H13L1331 13z" id="HelveticaNeue-Light-79" transform="scale(.01563)"/></defs><use xlink:href="#HelveticaNeue-Light-6e"/><use x="53.7" xlink:href="#HelveticaNeue-Light-75"/><use x="107.4" xlink:href="#HelveticaNeue-Light-6d"/><use x="190.7" xlink:href="#HelveticaNeue-Light-70"/><use x="248.1" xlink:href="#HelveticaNeue-Light-79"/><use x="294.4" xlink:href="#HelveticaNeue-Light-2f"/><use x="327.7" xlink:href="#HelveticaNeue-Light-6e"/><use x="381.4" xlink:href="#HelveticaNeue-Light-75"/><use x="435.1" xlink:href="#HelveticaNeue-Light-6d"/><use x="518.4" xlink:href="#HelveticaNeue-Light-70"/><use x="575.8" xlink:href="#HelveticaNeue-Light-79"/></g><g style="fill:#2ca02c" transform="matrix(.14 0 0 -.14 454.23 217.181)" id="text_16"><defs><path d="M384 0h403v1254l653 544L2746 0h505L1747 2080l1408 1222h-537L787 1702v2868H384V0z" id="HelveticaNeue-Light-6b" transform="scale(.01563)"/></defs><use xlink:href="#HelveticaNeue-Light-64"/><use x="57.4" xlink:href="#HelveticaNeue-Light-61"/><use x="109.3" xlink:href="#HelveticaNeue-Light-73"/><use x="157.4" xlink:href="#HelveticaNeue-Light-6b"/><use x="207.4" xlink:href="#HelveticaNeue-Light-2f"/><use x="240.7" xlink:href="#HelveticaNeue-Light-64"/><use x="298.1" xlink:href="#HelveticaNeue-Light-61"/><use x="350" xlink:href="#HelveticaNeue-Light-73"/><use x="398.1" xlink:href="#HelveticaNeue-Light-6b"/></g><g style="fill:#d62728" transform="matrix(.14 0 0 -.14 454.23 231.286)" id="text_17"><defs><path d="M3117 2266c-90 755-634 1132-1338 1132-1011 0-1561-800-1561-1747S768-96 1779-96c736 0 1255 486 1363 1280h-403c-51-550-461-941-960-941-774 0-1158 704-1158 1408s384 1408 1158 1408c525 0 826-301 935-793h403z" id="HelveticaNeue-Light-63" transform="scale(.01563)"/></defs><use xlink:href="#HelveticaNeue-Light-73"/><use x="48.1" xlink:href="#HelveticaNeue-Light-63"/><use x="100" xlink:href="#HelveticaNeue-Light-69"/><use x="118.5" xlink:href="#HelveticaNeue-Light-70"/><use x="175.9" xlink:href="#HelveticaNeue-Light-79"/><use x="222.2" xlink:href="#HelveticaNeue-Light-2f"/><use x="255.5" xlink:href="#HelveticaNeue-Light-73"/><use x="303.6" xlink:href="#HelveticaNeue-Light-63"/><use x="355.5" xlink:href="#HelveticaNeue-Light-69"/><use x="374" xlink:href="#HelveticaNeue-Light-70"/><use x="431.4" xlink:href="#HelveticaNeue-Light-79"/></g><g style="fill:#9467bd" transform="matrix(.14 0 0 -.14 454.23 245.286)" id="text_18"><defs><path d="M390-403c0-275-51-480-364-480-64-7-154 0-218 6v-333c96 0 186-12 282-12 569 0 704 422 704 915v3609H390V-403zm0 4326h404v647H390v-647z" id="HelveticaNeue-Light-6a" transform="scale(.01563)"/><path d="M1779 3398c-1011 0-1561-800-1561-1747S768-96 1779-96s1562 800 1562 1747-551 1747-1562 1747zm0-339c775 0 1159-704 1159-1408S2554 243 1779 243c-774 0-1158 704-1158 1408s384 1408 1158 1408z" id="HelveticaNeue-Light-6f" transform="scale(.01563)"/></defs><use xlink:href="#HelveticaNeue-Light-6a"/><use x="18.5" xlink:href="#HelveticaNeue-Light-75"/><use x="72.2" xlink:href="#HelveticaNeue-Light-70"/><use x="129.6" xlink:href="#HelveticaNeue-Light-79"/><use x="175.9" xlink:href="#HelveticaNeue-Light-74"/><use x="205.5" xlink:href="#HelveticaNeue-Light-65"/><use x="257.4" xlink:href="#HelveticaNeue-Light-72"/><use x="288.9" xlink:href="#HelveticaNeue-Light-2f"/><use x="322.2" xlink:href="#HelveticaNeue-Light-6e"/><use x="375.9" xlink:href="#HelveticaNeue-Light-6f"/><use x="431.5" xlink:href="#HelveticaNeue-Light-74"/><use x="461.1" xlink:href="#HelveticaNeue-Light-65"/><use x="513" xlink:href="#HelveticaNeue-Light-62"/><use x="570.4" xlink:href="#HelveticaNeue-Light-6f"/><use x="626" xlink:href="#HelveticaNeue-Light-6f"/><use x="681.6" xlink:href="#HelveticaNeue-Light-6b"/></g><g style="fill:#8c564b" transform="matrix(.14 0 0 -.14 454.23 259.286)" id="text_19"><use xlink:href="#HelveticaNeue-Light-73"/><use x="48.1" xlink:href="#HelveticaNeue-Light-79"/><use x="94.4" xlink:href="#HelveticaNeue-Light-6d"/><use x="177.7" xlink:href="#HelveticaNeue-Light-70"/><use x="235.1" xlink:href="#HelveticaNeue-Light-79"/><use x="281.4" xlink:href="#HelveticaNeue-Light-2f"/><use x="314.7" xlink:href="#HelveticaNeue-Light-73"/><use x="362.8" xlink:href="#HelveticaNeue-Light-79"/><use x="409.1" xlink:href="#HelveticaNeue-Light-6d"/><use x="492.4" xlink:href="#HelveticaNeue-Light-70"/><use x="549.8" xlink:href="#HelveticaNeue-Light-79"/></g><g style="fill:#e377c2" transform="matrix(.14 0 0 -.14 454.23 287.782)" id="text_20"><use xlink:href="#HelveticaNeue-Light-61"/><use x="51.9" xlink:href="#HelveticaNeue-Light-73"/><use x="100" xlink:href="#HelveticaNeue-Light-74"/><use x="129.6" xlink:href="#HelveticaNeue-Light-72"/><use x="161.1" xlink:href="#HelveticaNeue-Light-6f"/><use x="216.7" xlink:href="#HelveticaNeue-Light-70"/><use x="274.1" xlink:href="#HelveticaNeue-Light-79"/><use x="320.4" xlink:href="#HelveticaNeue-Light-2f"/><use x="353.7" xlink:href="#HelveticaNeue-Light-61"/><use x="405.6" xlink:href="#HelveticaNeue-Light-73"/><use x="453.7" xlink:href="#HelveticaNeue-Light-74"/><use x="483.3" xlink:href="#HelveticaNeue-Light-72"/><use x="514.8" xlink:href="#HelveticaNeue-Light-6f"/><use x="570.4" xlink:href="#HelveticaNeue-Light-70"/><use x="627.8" xlink:href="#HelveticaNeue-Light-79"/></g><g style="fill:#969696" transform="matrix(.09716 0 0 -.09716 86.396 342.195)" id="text_21"><defs><path d="M-45 0h467l551 1421h2080L3610 0h467L2285 4570h-487L-45 0zm2067 4134 884-2342H1107l915 2342z" id="HelveticaNeue-Light-41" transform="scale(.01563)"/><path d="M461 0h435v1958h1594c819 0 1356 480 1356 1306s-537 1306-1356 1306H461V0zm435 4198h1498c601 0 1017-307 1017-934s-416-934-1017-934H896v1868z" id="HelveticaNeue-Light-50" transform="scale(.01563)"/><path d="M493 0h435v4570H493V0z" id="HelveticaNeue-Light-49" transform="scale(.01563)"/><path d="M1709 378c-743 0-1088 646-1088 1312 0 684 320 1369 1088 1369 761 0 1062-723 1062-1369 0-672-365-1312-1062-1312zm1465 2924h-403v-569h-13c-160 365-569 665-1049 665-954 0-1491-755-1491-1664C218 794 653 38 1709 38c473 0 864 276 1049 679h13V269c0-807-320-1248-1062-1248-448 0-877 173-967 659H339c58-704 711-998 1370-998 1081 0 1459 601 1465 1587v3033z" id="HelveticaNeue-Light-67" transform="scale(.01563)"/><path d="M378 0h403v1926c13 647 397 1133 1037 1133 652 0 838-429 838-998V0h403v2125c0 787-281 1273-1209 1273-468 0-909-268-1056-665h-13v1837H378V0z" id="HelveticaNeue-Light-68" transform="scale(.01563)"/><path d="M544-1370h339v6400H544v-6400z" id="HelveticaNeue-Light-7c" transform="scale(.01563)"/><path d="M454 0h436v3866h12L3565 0h486v4570h-435V704h-13L941 4570H454V0z" id="HelveticaNeue-Light-4e" transform="scale(.01563)"/><path d="M230 1504C179 390 973-96 2054-96c1620 0 1748 992 1748 1306 0 748-538 1030-1184 1203l-1114 275c-371 90-691 269-691 698 0 678 550 908 1145 908 647 0 1223-352 1248-1049h436c6 934-788 1421-1690 1421-1286 0-1574-839-1574-1287 0-710 492-966 1030-1101l1018-249c422-103 940-307 940-826 0-665-729-928-1209-928-832 0-1511 288-1491 1229H230z" id="HelveticaNeue-Light-53" transform="scale(.01563)"/><path d="M390 0h404v4570H390V0z" id="HelveticaNeue-Light-6c" transform="scale(.01563)"/><path d="M1779 3398c-1011 0-1561-800-1561-1747S768-96 1779-96s1562 800 1562 1747-551 1747-1562 1747zm0-339c775 0 1159-704 1159-1408S2554 243 1779 243c-774 0-1158 704-1158 1408s384 1408 1158 1408zm787 813v646h-435v-646h435zm-1132 0v646H998v-646h436z" id="HelveticaNeue-Light-f6" transform="scale(.01563)"/><path d="M4237 3187c-115 960-973 1479-1837 1479-1440 0-2157-1133-2157-2381S960-96 2400-96c1069 0 1779 717 1901 1837h-435c-84-813-621-1466-1466-1466-1210 0-1722 1011-1722 2010 0 998 512 2009 1722 2009 666 0 1248-403 1402-1107h435z" id="HelveticaNeue-Light-43" transform="scale(.01563)"/><path d="M896 2195h1498c761 0 1203-301 1203-883 0-730-557-947-1203-941H896v1824zM461 0h1933c1484 0 1638 864 1638 1299 0 595-378 1037-966 1114v13c473 102 793 544 793 1024 0 851-697 1120-1465 1120H461V0zm435 4198h1498c678 0 1030-288 1030-857 0-429-333-775-1030-775H896v1632z" id="HelveticaNeue-Light-42" transform="scale(.01563)"/><path d="M1734 0h436v1882l1804 2688h-518L1958 2253 454 4570H-64l1798-2688V0z" id="HelveticaNeue-Light-59" transform="scale(.01563)"/></defs><use xlink:href="#HelveticaNeue-Light-47"/><use x="74.1" xlink:href="#HelveticaNeue-Light-69"/><use x="92.6" xlink:href="#HelveticaNeue-Light-74"/><use x="122.2" xlink:href="#HelveticaNeue-Light-48"/><use x="192.6" xlink:href="#HelveticaNeue-Light-75"/><use x="246.3" xlink:href="#HelveticaNeue-Light-62"/><use x="303.7" xlink:href="#HelveticaNeue-Light-20"/><use x="331.5" xlink:href="#HelveticaNeue-Light-41"/><use x="394.5" xlink:href="#HelveticaNeue-Light-50"/><use x="457.5" xlink:href="#HelveticaNeue-Light-49"/><use x="479.7" xlink:href="#HelveticaNeue-Light-20"/><use x="507.5" xlink:href="#HelveticaNeue-Light-76"/><use x="553.8" xlink:href="#HelveticaNeue-Light-69"/><use x="572.3" xlink:href="#HelveticaNeue-Light-61"/><use x="624.2" xlink:href="#HelveticaNeue-Light-20"/><use x="652" xlink:href="#HelveticaNeue-Light-73"/><use x="700.1" xlink:href="#HelveticaNeue-Light-74"/><use x="729.7" xlink:href="#HelveticaNeue-Light-61"/><use x="781.6" xlink:href="#HelveticaNeue-Light-72"/><use x="813.1" xlink:href="#HelveticaNeue-Light-67"/><use x="868.7" xlink:href="#HelveticaNeue-Light-72"/><use x="900.2" xlink:href="#HelveticaNeue-Light-61"/><use x="952.1" xlink:href="#HelveticaNeue-Light-70"/><use x="1009.5" xlink:href="#HelveticaNeue-Light-68"/><use x="1063.2" xlink:href="#HelveticaNeue-Light-20"/><use x="1091" xlink:href="#HelveticaNeue-Light-7c"/><use x="1113.2" xlink:href="#HelveticaNeue-Light-20"/><use x="1141" xlink:href="#HelveticaNeue-Light-4e"/><use x="1211.4" xlink:href="#HelveticaNeue-Light-69"/><use x="1229.9" xlink:href="#HelveticaNeue-Light-63"/><use x="1281.8" xlink:href="#HelveticaNeue-Light-6f"/><use x="1337.4" xlink:href="#HelveticaNeue-Light-20"/><use x="1365.2" xlink:href="#HelveticaNeue-Light-53"/><use x="1428.2" xlink:href="#HelveticaNeue-Light-63"/><use x="1480.1" xlink:href="#HelveticaNeue-Light-68"/><use x="1533.8" xlink:href="#HelveticaNeue-Light-6c"/><use x="1552.3" xlink:href="#HelveticaNeue-Light-f6"/><use x="1607.9" xlink:href="#HelveticaNeue-Light-6d"/><use x="1691.2" xlink:href="#HelveticaNeue-Light-65"/><use x="1743.1" xlink:href="#HelveticaNeue-Light-72"/><use x="1774.6" xlink:href="#HelveticaNeue-Light-20"/><use x="1802.4" xlink:href="#HelveticaNeue-Light-7c"/><use x="1824.6" xlink:href="#HelveticaNeue-Light-20"/><use x="1852.4" xlink:href="#HelveticaNeue-Light-43"/><use x="1922.8" xlink:href="#HelveticaNeue-Light-43"/><use x="1993.2" xlink:href="#HelveticaNeue-Light-20"/><use x="2021" xlink:href="#HelveticaNeue-Light-42"/><use x="2087.7" xlink:href="#HelveticaNeue-Light-59"/></g><path clip-path="url(#p8c8ac8a205)" d="m115.207 307.948 2.674-2.45 2.588-.165 2.674-.192 2.588-.122 2.674-.148 2.674-.113 2.588-.087 2.674-.14 2.588-.06 2.674-.149 2.674-.087 2.502-.122 2.674-.105 2.588-.078 2.674-.096 2.588-.07 2.674-.13 2.674-.079 2.588-.009 2.674-.008 2.588-.035 2.674-.009 2.674-.017 2.415-.14 2.674-.235 2.588-.314 2.674-.192 2.588-.244 2.674-.156 2.674-.2 2.588-.289 2.674-.226 2.588-.323 2.674-.287 2.674-.28 2.415-.243 2.674-.427 2.588-.288 2.674-.314 2.588-.209 2.674-.287 2.674-.34 2.588-.358 2.674-.322 2.588-.366 2.674-.305 2.674-.436 2.416-.41 2.674-.453 2.587-.305 2.675-.375 2.587-.357 2.674-.41 2.675-.374 2.587-.34 2.674-.445 2.588-.549 2.674-.436 2.674-.427 2.502-.47 2.674-.567 2.588-.627 2.674-.515 2.588-.6 2.674-.567 2.674-.628 2.588-.48 2.674-.505 2.588-.558 2.674-.566 2.674-.488 2.415-.532 2.674-.723 2.588-.523 2.674-.663 2.588-.557 2.674-.732 2.674-.759 2.588-.924 2.674-1.804 2.588-.932 2.674-.872 2.674-1.037 2.415-.95 2.675-1.15 2.587-.872 2.674-1.072 2.588-.845 2.674-1.299 2.674-.88 2.588-1.029 2.674-.958 2.588-.759 2.674-1.01 2.674-1.125 2.416-.854 2.674-1.15 2.588-.942 2.674-1.264 2.587-.915 2.675-1.229 2.674-1.115 2.587-.82 2.675-.888 2.587-1.055 2.674-1.02 2.675-.88 2.501-1.264 2.674-.871 2.588-.968 2.674-1.063 2.588-1.133 2.674-.837 2.674-.81 2.588-.724 2.674-.871 2.588-.907 2.674-.871 2.674-.776 2.415-.75 2.674-1.045 2.588-1.23 2.674-.662 2.588-.793 2.674-1.037" style="fill:none;stroke:#d62728;stroke-linecap:square;stroke-width:1.5" id="line2d_23"/><path clip-path="url(#p8c8ac8a205)" d="m236.145 307.948 2.674-.052 2.416-.079 2.674-.044 2.587-.156 2.675-.149 2.587-.366 2.674-1.08 2.675-.532 2.587-.331 2.674-.305 2.588-.358 2.674-.244 2.674-.287 2.502-.767 2.674-.262 2.588-.4 2.674-.445 2.588-.384 2.674-.575 2.674-.453 2.588-.619 2.674-.61 2.588-.505 2.674-.436 2.674-.767 2.415-.758 2.674-.854 2.588-.428 2.674-.801 2.588-.724 2.674-.889 2.674-.697 2.588-.715 2.674-.819 2.588-.871 2.674-1.046 2.674-.872 2.415-.898 2.675-1.272 2.587-1.029 2.674-1.185 2.588-1.342 2.674-1.229 2.674-1.185 2.588-1.203 2.674-1.16 2.588-1.42 2.674-1.29 2.674-1.638 2.416-1.194 2.674-1.525 2.588-2.52 2.674-1.585 2.587-2.406 2.675-1.464 2.674-1.36 2.587-1.133 2.675-1.255 2.587-1.447 2.674-1.263 2.675-1.282 2.501-1.272 2.674-1.011 2.588-1.22 2.674-1.308 2.588-.967 2.674-1.238 2.674-1.211 2.588-1.307 2.674-1.343 2.588-1.385 2.674-1.177 2.674-1.264 2.415-1.333 2.674-1.447 2.588-1.272 2.674-1.177 2.588-1.124 2.674-1.011" style="fill:none;stroke:#2ca02c;stroke-linecap:square;stroke-width:1.5" id="line2d_24"/><path clip-path="url(#p8c8ac8a205)" d="m99.594 307.948 2.588-2.057 5.262-.235 2.674-.192 5.09-.218 23.721-1.368 15.786-.715 10.524-.384 10.61-.087 2.415-.165 5.262-.671 2.674-.149 5.262-.522 5.262-.462 7.936-1.029 7.763-1.063 2.588-.401 5.262-.61 18.546-2.833 5.09-1.133 7.85-1.333 13.197-2.833 2.674-.723 2.674-.95 5.176-1.639 2.588-.889 5.262-1.534 5.348-1.917 2.588-.793 10.61-3.757 2.415-1.106 2.674-1.447 13.198-6.572 2.588-1.377 2.674-2.824 2.588-3.285 2.674-1.796 7.764-6.327 5.261-4.654 2.588-1.84 2.674-2.318 5.262-3.617 2.674-2.274 2.588-2.955 2.674-2.013 5.09-6.206 2.674-2.37 2.588-2.554 2.674-3.408 5.262-5.438 2.674-2.345 18.373-14.86 5.262-5.508 2.588-2.327 2.674-3.06 5.262-5.28 2.674-2.372 5.262-5.551 2.674-2.31 2.415-2.85 7.936-8.463 2.588-2.335 2.674-2.772h0" style="fill:none;stroke:#ff7f0e;stroke-linecap:square;stroke-width:1.5" id="line2d_25"/><path clip-path="url(#p8c8ac8a205)" d="m96.92 307.948 2.674-4.82 2.588-.174 7.936-.828 5.09-.47 5.261-.524 7.936-.706 7.936-.584 23.636-1.795 5.262-.192 10.61-.104 2.415-.454 2.674-.897 2.588-.663 5.262-1.098 5.348-1.412 5.262-2.405 2.588-1.003 5.348-1.769 2.415-.985 7.936-2.667 2.588-.61 7.936-2.362 5.262-2.126 2.674-1.194 2.674-1.064 2.416-1.124 5.261-2.161 2.675-.942 7.936-3.329 10.523-5.23 2.674-1.167 2.502-1.255 5.262-3.068 2.674-1.743 5.262-3.146 2.674-1.744 2.588-1.324 2.674-1.848 2.588-1.595 2.674-2.806 2.674-4.262 2.415-2.484 2.674-3.635 5.262-5.543 2.588-2.458 2.674-3.015 2.674-2.406 2.588-2.928 2.674-3.896 2.588-3.242 7.763-10.476 2.675-4.663 2.587-3.425 2.674-3.922 2.588-3.4 2.674-3.703 2.674-4.245 2.588-3.207 2.674-3.922 2.588-4.654 2.674-3.879 2.674-3.285 5.09-7.121 2.588-4.497 2.674-4.062 2.587-3.52 5.349-8.246 2.587-3.756 2.675-5.116 2.587-3.8 2.674-3.207 2.675-4.114 2.501-4.253 2.674-3.861 5.262-9.239 5.262-7.591 7.936-10.494 2.588-3.416 2.674-3.905 2.674-4.357 2.415-3.304 2.674-4.872 7.85-10.118 2.674-3.225h0" style="fill:none;stroke:#1f77b4;stroke-linecap:square;stroke-width:1.5" id="line2d_26"/></g></g><defs><clipPath id="p8c8ac8a205"><path d="M86.396 41.836h357.12v266.112H86.396z"/></clipPath></defs></svg>