<svg height="475.311" viewBox="0 0 597.098 356.483" width="796.131" xmlns="http://www.w3.org/2000/svg" xmlns:xlink="http://www.w3.org/1999/xlink"><defs><style>*{stroke-linecap:butt;stroke-linejoin:round}</style></defs><g id="figure_1"><path d="M0 356.483h597.098V0H0z" fill="none" id="patch_1"/><g id="axes_1"><path d="M53.127 313.361h357.12V47.25H53.127z" fill="none" id="patch_2"/><path clip-path="url(#p168ee67d70)" d="M196.888 313.361l.217-1.307 1.124-.323 1.562-.168 2.808-.168.828-.324 6.813-1.307 3.053-.167 1.205-.168 8.278-.66 5.58-.815 4.97-.492.85-.155 2.215-.168 1.698-.336 7.59-.66 12.514-1.462 5.789-.827 4.247-.66 1.337-.336 1.484-.647 2.178-.324 3.726-.995 1.532-.66 19.477-3.596 3.9-.995 2.726-.492 1.218-.168 4.447-.983 9.582-1.655.924-.647 3.154-.324 1.089-.335 16.811-2.95.834-.336 1.604-.323 8.788-1.307 3.258-.66 4.25-.66 3.683-.994 4.766-1.32 2.57-.659 1.612-.647 3.911-.983 5.983-1.643 3.683-.983 3.687-.995 2.148-.648 6.44-3.297 3.267-1.319 3.353-1.067 4.572-1.594h0" fill="none" stroke="#9edae5" stroke-linecap="square" stroke-width="1.5" id="line2d_1"/><g id="matplotlib.axis_1"><g id="xtick_1"><g id="line2d_2"><defs><path d="M0 0v3.5" id="m3abf037707" stroke="#969696" stroke-width=".4"/></defs><use x="103.966" xlink:href="#m3abf037707" y="313.361" fill="#969696" stroke="#969696" stroke-width=".4"/></g><g transform="matrix(.14 0 0 -.14 88.395 330.41)" fill="#969696" id="text_1"><defs><path d="M4.39 45.125q0 12.39 6.391 18.781 6.406 6.407 17.938 6.407 9.656 0 15.812-5.86 6.157-5.86 6.157-15.14 0-7.22-3.547-12.188-3.532-4.953-10.422-8.703l-12.11-6.64Q13.922 15.921 12.5 8.296h38.188V0H2.593q.39 9.906 4.297 16.5 3.906 6.594 12.203 11.375l12.593 7.328q5.032 2.89 7.329 5.984 2.297 3.094 2.297 8.516 0 5.375-3.766 9.031-3.75 3.672-10.156 3.672-7.078 0-10.594-4.672-3.516-4.656-3.61-12.609z" id="HelveticaWorld-Regular-50"/><path d="M42.484 34.188q0 14.109-3.734 21.156-3.734 7.062-10.969 7.062-7.078 0-10.89-7.062-3.797-7.047-3.797-21.157 0-13.671 3.75-20.937Q20.609 6 27.78 6q7.235 0 10.969 7 3.734 7.016 3.734 21.188zm9.422 0q0-17.297-6.25-26.704-6.25-9.39-17.875-9.39-12.062 0-18.062 9.734-6 9.75-6 26.36 0 17.03 6.14 26.578 6.157 9.547 17.922 9.547 11.625 0 17.875-9.5t6.25-26.626z" id="HelveticaWorld-Regular-48"/><path d="M35.89 0h-9.374v49.906H10.109v6.985q8.594.28 12.782 2.75Q27.094 62.109 29 70.313h6.89z" id="HelveticaWorld-Regular-49"/></defs><use xlink:href="#HelveticaWorld-Regular-50"/><use x="55.615" xlink:href="#HelveticaWorld-Regular-48"/><use x="111.23" xlink:href="#HelveticaWorld-Regular-49"/><use x="166.846" xlink:href="#HelveticaWorld-Regular-48"/></g></g><g id="xtick_2"><use x="160.054" xlink:href="#m3abf037707" y="313.361" fill="#969696" stroke="#969696" stroke-width=".4" id="line2d_3"/><g transform="matrix(.14 0 0 -.14 144.484 330.41)" fill="#969696" id="text_2"><use xlink:href="#HelveticaWorld-Regular-50"/><use x="55.615" xlink:href="#HelveticaWorld-Regular-48"/><use x="111.23" xlink:href="#HelveticaWorld-Regular-49"/><use x="166.846" xlink:href="#HelveticaWorld-Regular-50"/></g></g><g id="xtick_3"><use x="216.22" xlink:href="#m3abf037707" y="313.361" fill="#969696" stroke="#969696" stroke-width=".4" id="line2d_4"/><g transform="matrix(.14 0 0 -.14 200.649 330.41)" fill="#969696" id="text_3"><defs><path d="M10.594 24.703h22.61v31.89h-.188zM42 17.093V0h-8.797v17.094H2.484v8.593L34.72 70.314H42v-45.61h10.297v-7.61z" id="HelveticaWorld-Regular-52"/></defs><use xlink:href="#HelveticaWorld-Regular-50"/><use x="55.615" xlink:href="#HelveticaWorld-Regular-48"/><use x="111.23" xlink:href="#HelveticaWorld-Regular-49"/><use x="166.846" xlink:href="#HelveticaWorld-Regular-52"/></g></g><g id="xtick_4"><use x="272.308" xlink:href="#m3abf037707" y="313.361" fill="#969696" stroke="#969696" stroke-width=".4" id="line2d_5"/><g transform="matrix(.14 0 0 -.14 256.737 330.41)" fill="#969696" id="text_4"><defs><path d="M14.11 21.578q0-6.875 4.093-11.234Q22.313 6 28.906 6q6.297 0 10.032 4.438 3.734 4.453 3.734 11.687 0 6.297-3.688 10.547-3.687 4.25-10.468 4.25-6.594 0-10.5-4.156-3.907-4.157-3.907-11.188zM41.702 51.61q-.984 5.375-3.984 8.078-3 2.72-8.125 2.72-8.11 0-12.36-7.923-4.25-7.906-4.343-18.109l.203-.188q5.61 8.641 16.687 8.641 8.844 0 15.438-5.86 6.593-5.859 6.593-16.452 0-10.5-6.25-17.47-6.25-6.952-16.843-6.952-12.219 0-18.563 8.687-6.344 8.703-6.344 25.938 0 16.593 6.485 27.093 6.5 10.5 19.484 10.5 8.407 0 14.219-5.015 5.813-5 6.297-13.688z" id="HelveticaWorld-Regular-54"/></defs><use xlink:href="#HelveticaWorld-Regular-50"/><use x="55.615" xlink:href="#HelveticaWorld-Regular-48"/><use x="111.23" xlink:href="#HelveticaWorld-Regular-49"/><use x="166.846" xlink:href="#HelveticaWorld-Regular-54"/></g></g><g id="xtick_5"><use x="328.473" xlink:href="#m3abf037707" y="313.361" fill="#969696" stroke="#969696" stroke-width=".4" id="line2d_6"/><g transform="matrix(.14 0 0 -.14 312.902 330.41)" fill="#969696" id="text_5"><defs><path d="M27.594 40.578q5.422 0 8.953 3.094 3.547 3.11 3.547 8.234 0 4.594-3.407 7.547-3.39 2.953-9.687 2.953-5.61 0-8.672-3.11-3.047-3.093-3.047-7.874 0-5.125 3.813-7.984 3.812-2.86 8.5-2.86zm.093-7.562q-6.78 0-10.64-3.766-3.86-3.766-3.86-9.234 0-6.297 3.907-10.157Q21 6 28.219 6q6.406 0 10.234 3.86 3.828 3.859 3.828 10.265 0 5.469-3.828 9.172-3.828 3.719-10.766 3.719zM49.22 52.203q0-10.594-9.032-14.797 6.204-2.781 8.86-7.36 2.656-4.562 2.656-9.733 0-10.016-6.453-16.125-6.438-6.094-17.375-6.094-9.563 0-16.813 5.25-7.25 5.25-7.25 17.062 0 11.922 11.907 16.907-9.516 3.796-9.516 13.671 0 8.297 5.64 13.813 5.641 5.516 15.641 5.516 10.016 0 15.875-5.204 5.86-5.203 5.86-12.906z" id="HelveticaWorld-Regular-56"/></defs><use xlink:href="#HelveticaWorld-Regular-50"/><use x="55.615" xlink:href="#HelveticaWorld-Regular-48"/><use x="111.23" xlink:href="#HelveticaWorld-Regular-49"/><use x="166.846" xlink:href="#HelveticaWorld-Regular-56"/></g></g><g id="xtick_6"><use x="384.561" xlink:href="#m3abf037707" y="313.361" fill="#969696" stroke="#969696" stroke-width=".4" id="line2d_7"/><g transform="matrix(.14 0 0 -.14 368.99 330.41)" fill="#969696" id="text_6"><use xlink:href="#HelveticaWorld-Regular-50"/><use x="55.615" xlink:href="#HelveticaWorld-Regular-48"/><use x="111.23" xlink:href="#HelveticaWorld-Regular-50"/><use x="166.846" xlink:href="#HelveticaWorld-Regular-48"/></g></g></g><g id="matplotlib.axis_2"><g id="ytick_1"><path clip-path="url(#p168ee67d70)" d="M53.127 283.399h357.12" fill="none" stroke="#969696" stroke-linecap="square" stroke-width=".3" id="line2d_8"/><g id="line2d_9"><defs><path d="M0 0h-3.5" id="mbc0e505dff" stroke="#969696" stroke-width=".3"/></defs><use x="53.127" xlink:href="#mbc0e505dff" y="283.399" fill="#969696" stroke="#969696" stroke-width=".3"/></g><g transform="matrix(.14 0 0 -.14 14.985 288.424)" fill="#969696" id="text_7"><defs><path d="M14.703 40.922q5.813 4.39 13.625 4.39 9.469 0 16.281-6.296 6.813-6.297 6.813-16.22 0-10.78-6.578-17.796-6.563-7-18.422-7-10.313 0-16.266 5.047Q4.203 8.109 3.22 17.39h9.094q.671-5.672 4.437-8.672 3.766-3 10.453-3 6.485 0 10.64 4.484Q42 14.703 42 21.688q0 7.125-4.36 11.421-4.343 4.297-11.218 4.297-7.813 0-13.047-6.687l-7.563.39 5.266 37.594h36.438v-8.5H17.672z" id="HelveticaWorld-Regular-53"/></defs><use xlink:href="#HelveticaWorld-Regular-50"/><use x="55.615" xlink:href="#HelveticaWorld-Regular-53"/><use x="111.23" xlink:href="#HelveticaWorld-Regular-48"/><use x="166.846" xlink:href="#HelveticaWorld-Regular-48"/></g></g><g id="ytick_2"><path clip-path="url(#p168ee67d70)" d="M53.127 253.425h357.12" fill="none" stroke="#969696" stroke-linecap="square" stroke-width=".3" id="line2d_10"/><use x="53.127" xlink:href="#mbc0e505dff" y="253.425" fill="#969696" stroke="#969696" stroke-width=".3" id="line2d_11"/><g transform="matrix(.14 0 0 -.14 14.985 258.45)" fill="#969696" id="text_8"><use xlink:href="#HelveticaWorld-Regular-53"/><use x="55.615" xlink:href="#HelveticaWorld-Regular-48"/><use x="111.23" xlink:href="#HelveticaWorld-Regular-48"/><use x="166.846" xlink:href="#HelveticaWorld-Regular-48"/></g></g><g id="ytick_3"><path clip-path="url(#p168ee67d70)" d="M53.127 223.45h357.12" fill="none" stroke="#969696" stroke-linecap="square" stroke-width=".3" id="line2d_12"/><use x="53.127" xlink:href="#mbc0e505dff" y="223.45" fill="#969696" stroke="#969696" stroke-width=".3" id="line2d_13"/><g transform="matrix(.14 0 0 -.14 14.985 228.475)" fill="#969696" id="text_9"><defs><path d="M3.719 68.797h48.578v-7.719Q42.28 50.875 33.984 33.484 25.687 16.11 23.391 0h-9.672q1.469 13.281 9.719 30.531 8.25 17.266 18.953 29.672H3.719z" id="HelveticaWorld-Regular-55"/></defs><use xlink:href="#HelveticaWorld-Regular-55"/><use x="55.615" xlink:href="#HelveticaWorld-Regular-53"/><use x="111.23" xlink:href="#HelveticaWorld-Regular-48"/><use x="166.846" xlink:href="#HelveticaWorld-Regular-48"/></g></g><g id="ytick_4"><path clip-path="url(#p168ee67d70)" d="M53.127 193.476h357.12" fill="none" stroke="#969696" stroke-linecap="square" stroke-width=".3" id="line2d_14"/><use x="53.127" xlink:href="#mbc0e505dff" y="193.476" fill="#969696" stroke="#969696" stroke-width=".3" id="line2d_15"/><g transform="matrix(.14 0 0 -.14 7.2 198.5)" fill="#969696" id="text_10"><use xlink:href="#HelveticaWorld-Regular-49"/><use x="55.615" xlink:href="#HelveticaWorld-Regular-48"/><use x="111.23" xlink:href="#HelveticaWorld-Regular-48"/><use x="166.846" xlink:href="#HelveticaWorld-Regular-48"/><use x="222.461" xlink:href="#HelveticaWorld-Regular-48"/></g></g><g id="ytick_5"><path clip-path="url(#p168ee67d70)" d="M53.127 163.502h357.12" fill="none" stroke="#969696" stroke-linecap="square" stroke-width=".3" id="line2d_16"/><use x="53.127" xlink:href="#mbc0e505dff" y="163.502" fill="#969696" stroke="#969696" stroke-width=".3" id="line2d_17"/><g transform="matrix(.14 0 0 -.14 7.2 168.526)" fill="#969696" id="text_11"><use xlink:href="#HelveticaWorld-Regular-49"/><use x="55.615" xlink:href="#HelveticaWorld-Regular-50"/><use x="111.23" xlink:href="#HelveticaWorld-Regular-53"/><use x="166.846" xlink:href="#HelveticaWorld-Regular-48"/><use x="222.461" xlink:href="#HelveticaWorld-Regular-48"/></g></g><g id="ytick_6"><path clip-path="url(#p168ee67d70)" d="M53.127 133.527h357.12" fill="none" stroke="#969696" stroke-linecap="square" stroke-width=".3" id="line2d_18"/><use x="53.127" xlink:href="#mbc0e505dff" y="133.527" fill="#969696" stroke="#969696" stroke-width=".3" id="line2d_19"/><g transform="matrix(.14 0 0 -.14 7.2 138.552)" fill="#969696" id="text_12"><use xlink:href="#HelveticaWorld-Regular-49"/><use x="55.615" xlink:href="#HelveticaWorld-Regular-53"/><use x="111.23" xlink:href="#HelveticaWorld-Regular-48"/><use x="166.846" xlink:href="#HelveticaWorld-Regular-48"/><use x="222.461" xlink:href="#HelveticaWorld-Regular-48"/></g></g><g id="ytick_7"><path clip-path="url(#p168ee67d70)" d="M53.127 103.553h357.12" fill="none" stroke="#969696" stroke-linecap="square" stroke-width=".3" id="line2d_20"/><use x="53.127" xlink:href="#mbc0e505dff" y="103.553" fill="#969696" stroke="#969696" stroke-width=".3" id="line2d_21"/><g transform="matrix(.14 0 0 -.14 7.2 108.578)" fill="#969696" id="text_13"><use xlink:href="#HelveticaWorld-Regular-49"/><use x="55.615" xlink:href="#HelveticaWorld-Regular-55"/><use x="111.23" xlink:href="#HelveticaWorld-Regular-53"/><use x="166.846" xlink:href="#HelveticaWorld-Regular-48"/><use x="222.461" xlink:href="#HelveticaWorld-Regular-48"/></g></g><g id="ytick_8"><path clip-path="url(#p168ee67d70)" d="M53.127 73.579h357.12" fill="none" stroke="#969696" stroke-linecap="square" stroke-width=".3" id="line2d_22"/><use x="53.127" xlink:href="#mbc0e505dff" y="73.579" fill="#969696" stroke="#969696" stroke-width=".3" id="line2d_23"/><g transform="matrix(.14 0 0 -.14 7.2 78.604)" fill="#969696" id="text_14"><use xlink:href="#HelveticaWorld-Regular-50"/><use x="55.615" xlink:href="#HelveticaWorld-Regular-48"/><use x="111.23" xlink:href="#HelveticaWorld-Regular-48"/><use x="166.846" xlink:href="#HelveticaWorld-Regular-48"/><use x="222.461" xlink:href="#HelveticaWorld-Regular-48"/></g></g></g><path clip-path="url(#p168ee67d70)" d="M69.478 313.361l1.164-3.848 9.99-1.775 5.784-1.043 2.363-.36 9.116-1.57 3.832-.528 13.053-2.29 6.457-.875 3.81-.707 1.663-.348 2.36-.348 6.33-1.055 1.216-.348 3.761-.527 4.606-.54 3.63-.527 7.46-.78 6.179-.443 2.804-.264 22.767-.564 3.362-.048 1.071-.18 14.328-3.524 6.262-1.403 5.785-1.043 1.03-.36 3.552-.695 9.295-1.763 1.548-.36 16.411-2.805 3.975-.696 7.5-1.055 2.469-.36 2.461-.347 3.286-.528 2.354-.18 4.561-.695 22.29-2.626 7.631-.707 3.623-.36 3.592-.347 2.466-.36 16.984-1.403 6.906-.707 7.468-.612 10.043-.623 6.612-.516 4.406-.264 17.756-.983 12.434-.707 3.169-.084 4.893-.252 2.87-.216h0" fill="none" stroke="#dbdb8d" stroke-linecap="square" stroke-width="1.5" id="line2d_24"/><path clip-path="url(#p168ee67d70)" d="M53.129 313.361l.45-.263 21.357-1.187 9.662-.72.826-.084 20.026-1.007 13.856-.995 7.117-.456 3.38-.18 4.758-.36 3.364-.263 9.181-.42 21.877-.695 23.066-.432.977-.191 5.978-.72 3.417-.54 8.856-.91 11.596-1.811 2.474-.372 3.87-.54 8.197-1.27 2.85-.36 1.779-.36 3.643-.371 9.964-1.63 1.657-.18 4.019-.72 3.435-.731 3.815-.72 1.989-.551 4.075-.54 6.598-1.27 1.625-.18 1.223-.36 2.55-.372 9.302-2.17 3.776-.731 3.628-1.08 4.496-1.09 5.945-1.092 26.487-5.443 8.304-1.45 7.417-1.08 5.496-1.09 4.096-.732 1.508-.36 6.189-1.091 1.653-.36 4.15-.72 4.28-1.09 4.453-1.091 4.295-1.091 3.646-1.08 1.397-.371.87-.36 3.062-.72 2.979-.707 6.173-1.366h0" fill="none" stroke="#c7c7c7" stroke-linecap="square" stroke-width="1.5" id="line2d_25"/><g transform="matrix(.14 0 0 -.14 413.818 50.91)" fill="#1f77b4" id="text_15"><defs><path d="M39.016 52.297h9.562L29.891.984q-.5-1.375-.985-2.593-4.25-11.329-7.328-15.547-3.078-4.235-9.953-4.235-3.61 0-5.906.782v8.015q2.484-.89 5.468-.89 3.22 0 4.704 2.03 1.5 2.032 4.421 9.938L.875 52.297h9.922L24.812 9.719H25z" id="HelveticaWorld-Regular-121"/><path d="M39.594 34.719q-1.89 11.187-12.39 11.187-6.5 0-10.454-5.203-3.953-5.203-3.953-14.484 0-10.11 3.656-15.11 3.672-5 10.64-5 4.688 0 8.11 3.438 3.422 3.437 4.39 8.953h8.5q-1.312-9.703-6.859-14.86-5.547-5.156-14.328-5.156-10.297 0-16.89 7.047-6.594 7.063-6.594 19.172 0 13.281 6.594 21.188 6.593 7.922 18.5 7.922 8.687 0 13.843-5.204 5.157-5.203 5.735-13.89z" id="HelveticaWorld-Regular-99"/><path d="M6.594 52.297h8.297v-7.375h.203q5.906 8.89 15.812 8.89 9.813 0 13.922-8.5 3.75 4.594 7.266 6.547 3.515 1.953 8.703 1.953 6.781 0 11.484-4.453Q77 44.922 77 36.187V0h-8.781v33.797q0 6.094-2.297 9.094-2.297 3.015-7.422 3.015-5.172 0-8.75-4.203-3.563-4.203-3.563-9.812V0h-8.78v36.188q0 4.53-2.11 7.124-2.094 2.594-6.094 2.594-6.297 0-10.062-4.687-3.766-4.688-3.766-12.703V0H6.594z" id="HelveticaWorld-Regular-109"/><path d="M28.906 23.188H4.391v8.984h24.515z" id="HelveticaWorld-Regular-45"/><path d="M12.703 26.219q0-8.735 3.953-14.375 3.953-5.64 11.219-5.64 7.531 0 11.438 5.905 3.906 5.907 3.906 14.11 0 8.297-3.907 14.078-3.906 5.797-11.437 5.797-6.969 0-11.078-5.453-4.094-5.438-4.094-14.422zm-8.984 0q0 11.672 6.484 19.625 6.5 7.968 17.672 7.968 11.438 0 17.875-8.062 6.453-8.047 6.453-19.531 0-11.516-6.406-19.625-6.39-8.11-17.922-8.11-11.078 0-17.625 7.86-6.531 7.86-6.531 19.875z" id="HelveticaWorld-Regular-111"/><path d="M15.375 0H6.594v52.297h8.297v-8.688h.203q5.703 10.203 14.687 10.203 1.422 0 2.297-.296V44.39h-3.266q-5.906 0-9.671-4.016-3.766-4-3.766-9.953z" id="HelveticaWorld-Regular-114"/><path d="M42.484 30.328q-.687 8.485-4.5 12.031-3.797 3.547-10.109 3.547-6.39 0-10.328-4.5-3.922-4.484-4.172-11.078zm8.391-13.922q-1.453-8.11-7.953-13.422-5.719-4.5-15.047-4.593-10.984.093-17.438 7.203Q4 12.704 4 24.704q0 13.78 6.64 21.437 6.641 7.672 18.47 7.672 10.593 0 16.546-7.922 5.953-7.907 5.953-22.594H13.375q0-8.203 3.813-12.703Q21 6.109 28.608 6.109q5.375 0 9.235 3.235 3.86 3.25 4.25 7.062z" id="HelveticaWorld-Regular-101"/><path d="M4.984-1.906h-6.687l24.61 75.594H29.5z" id="HelveticaWorld-Regular-47"/><path d="M37.313 0h-9.72v28.906L.485 71.781h11.329l20.609-34.469 20.562 34.47h11.422L37.312 28.905z" id="HelveticaWorld-Regular-89"/><path d="M6.11 52.297h8.78V17.578q0-5.765 2.61-8.625Q20.125 6.11 25 6.11q6.781 0 10.594 4.797 3.812 4.813 3.812 12.578v28.813h8.782V0H39.89v7.625l-.188.188q-4.984-9.329-16.61-9.329-7.515 0-12.25 4.094Q6.11 6.688 6.11 14.703z" id="HelveticaWorld-Regular-117"/><path d="M58.016 50.203q-1.625 7.313-6.782 11.094-5.14 3.797-13.343 3.797-10.594 0-17.047-7.703-6.438-7.688-6.438-20.766 0-15.14 6.094-22.547 6.11-7.39 17.688-7.39 7.609 0 13.093 5.046 5.5 5.063 7.407 14.688h9.421Q66.22 12.594 57.625 5.344t-20.906-7.25q-14.703 0-23.516 10.11Q4.391 18.311 4.391 36.28q0 17.328 9.203 27.36 9.203 10.047 24.297 10.047 12.5 0 20.265-6.454 7.766-6.437 9.235-17.03z" id="HelveticaWorld-Regular-67"/><path d="M14.984 23.688q0-8.407 4.094-13 4.11-4.579 10.219-4.579 6.687 0 10.39 5.438 3.72 5.453 3.72 14.765 0 10.22-3.563 14.907-3.563 4.687-10.735 4.687-6.984 0-10.562-5.5-3.563-5.5-3.563-16.718zm-8.39 28.609h8.297v-7.375h.203q5.61 8.89 15.625 8.89 10.11 0 15.937-7.359 5.828-7.344 5.828-18.766 0-12.796-5.953-21Q40.578-1.515 29.5-1.515q-9.094 0-13.922 7.032h-.203v-26.22H6.594z" id="HelveticaWorld-Regular-112"/><path d="M15.375 0H6.594v71.781h8.781z" id="HelveticaWorld-Regular-108"/><path d="M17.188 45.016V10.984q0-2 1.093-3.046 1.11-1.047 3.938-1.047h3.375V0Q20.797-.688 19-.688q-5.516 0-8.063 2.641-2.53 2.64-2.53 8.547v34.516H1.311v7.28h7.094v14.595h8.781V52.297h8.407v-7.281z" id="HelveticaWorld-Regular-116"/><path d="M67.484 0v42.39q0 .829.094 8.126t.094 9.78h-.281L47.312 0h-9.609L17.578 60.203h-.297q0-3.61.094-10.297.11-6.687.11-7.515V0H8.108v71.781h13.86L42.39 11.078h.28l20.313 60.703h13.922V0z" id="HelveticaWorld-Regular-77"/></defs><use xlink:href="#HelveticaWorld-Regular-121"/><use x="47.609" xlink:href="#HelveticaWorld-Regular-99"/><use x="98.879" xlink:href="#HelveticaWorld-Regular-109"/><use x="181.887" xlink:href="#HelveticaWorld-Regular-45"/><use x="215.188" xlink:href="#HelveticaWorld-Regular-99"/><use x="266.457" xlink:href="#HelveticaWorld-Regular-111"/><use x="322.365" xlink:href="#HelveticaWorld-Regular-114"/><use x="353.934" xlink:href="#HelveticaWorld-Regular-101"/><use x="409.354" xlink:href="#HelveticaWorld-Regular-47"/><use x="437.137" xlink:href="#HelveticaWorld-Regular-89"/><use x="489.182" xlink:href="#HelveticaWorld-Regular-111"/><use x="545.09" xlink:href="#HelveticaWorld-Regular-117"/><use x="599.875" xlink:href="#HelveticaWorld-Regular-67"/><use x="672.189" xlink:href="#HelveticaWorld-Regular-111"/><use x="728.098" xlink:href="#HelveticaWorld-Regular-109"/><use x="811.105" xlink:href="#HelveticaWorld-Regular-112"/><use x="867.6" xlink:href="#HelveticaWorld-Regular-108"/><use x="889.621" xlink:href="#HelveticaWorld-Regular-101"/><use x="945.041" xlink:href="#HelveticaWorld-Regular-116"/><use x="972.727" xlink:href="#HelveticaWorld-Regular-101"/><use x="1028.146" xlink:href="#HelveticaWorld-Regular-77"/><use x="1113.156" xlink:href="#HelveticaWorld-Regular-101"/></g><g transform="matrix(.14 0 0 -.14 413.818 92.752)" fill="#ff7f0e" id="text_16"><defs><path d="M39.406 52.297h9.625L29.11 0h-9.437L.594 52.297h10.203L24.422 9.719h.187z" id="HelveticaWorld-Regular-118"/><path d="M6.594 61.813v9.968h8.781v-9.969zM15.375 0H6.594v52.297h8.781z" id="HelveticaWorld-Regular-105"/><path d="M38.375 26.703q-.969-1.015-3.828-1.656-2.86-.625-10.672-1.656-5.766-.688-8.469-2.844-2.703-2.14-2.703-5.656 0-4.297 2.281-6.688 2.297-2.39 7.329-2.39 6.296 0 11.171 3.578 4.891 3.593 4.891 8.718zM6.203 36.375q.297 8.844 5.734 13.14 5.454 4.297 15.844 4.297 8.297 0 13.907-3.765 5.624-3.75 5.624-10.844V9.078Q47.313 6 50.094 6q1.125 0 2.89.39V0Q50.594-.984 48-.984q-4.5 0-6.703 1.921-2.188 1.938-2.281 6.047-7.516-8.5-18.891-8.5-7.422 0-11.922 4.204Q3.72 6.89 3.72 13.624q0 6.89 3.906 11.125Q11.531 29 19 29.89l15.516 1.891q4.203.64 4.203 6.203 0 4.11-3.047 6.297-3.047 2.203-9.25 2.203-5.516 0-8.485-2.437-2.953-2.438-3.53-7.672z" id="HelveticaWorld-Regular-97"/><path d="M49.219 0h-8.844v32.172q0 7.422-2.594 10.578-2.578 3.156-8.578 3.156-5.906 0-9.875-4.5-3.953-4.484-3.953-12.89V0H6.594v52.297h8.297v-7.375h.203q6.203 8.89 15.812 8.89 8.89 0 13.594-4.718 4.719-4.703 4.719-13.5z" id="HelveticaWorld-Regular-110"/></defs><use xlink:href="#HelveticaWorld-Regular-118"/><use x="49.609" xlink:href="#HelveticaWorld-Regular-105"/><use x="71.631" xlink:href="#HelveticaWorld-Regular-109"/><use x="154.639" xlink:href="#HelveticaWorld-Regular-45"/><use x="187.939" xlink:href="#HelveticaWorld-Regular-97"/><use x="242.871" xlink:href="#HelveticaWorld-Regular-105"/><use x="264.893" xlink:href="#HelveticaWorld-Regular-114"/><use x="297.461" xlink:href="#HelveticaWorld-Regular-108"/><use x="319.482" xlink:href="#HelveticaWorld-Regular-105"/><use x="341.504" xlink:href="#HelveticaWorld-Regular-110"/><use x="396.68" xlink:href="#HelveticaWorld-Regular-101"/><use x="452.1" xlink:href="#HelveticaWorld-Regular-47"/><use x="479.883" xlink:href="#HelveticaWorld-Regular-118"/><use x="529.492" xlink:href="#HelveticaWorld-Regular-105"/><use x="551.514" xlink:href="#HelveticaWorld-Regular-109"/><use x="634.521" xlink:href="#HelveticaWorld-Regular-45"/><use x="667.822" xlink:href="#HelveticaWorld-Regular-97"/><use x="722.754" xlink:href="#HelveticaWorld-Regular-105"/><use x="744.775" xlink:href="#HelveticaWorld-Regular-114"/><use x="777.344" xlink:href="#HelveticaWorld-Regular-108"/><use x="799.365" xlink:href="#HelveticaWorld-Regular-105"/><use x="821.387" xlink:href="#HelveticaWorld-Regular-110"/><use x="876.563" xlink:href="#HelveticaWorld-Regular-101"/></g><g transform="matrix(.14 0 0 -.14 413.818 106.885)" fill="#2ca02c" id="text_17"><defs><path d="M36.078 37.406q-.187 4.688-3.344 6.735-3.14 2.047-9.047 2.047-4.296 0-7.359-1.907-3.047-1.89-3.047-5.468 0-2.829 1.797-4.172 1.813-1.344 7.828-2.86l8.688-2.187q7.906-2 11.297-5.11 3.406-3.093 3.406-8.656 0-7.719-5.64-12.531-5.641-4.813-15.063-4.813-11 0-16.64 4.563-5.626 4.578-5.735 13.75h8.5q.203-5.422 3.594-8.063 3.39-2.625 10.171-2.625 5.516 0 8.766 2.188 3.25 2.203 3.25 6.11 0 2.78-2.11 4.437-2.093 1.672-8.296 3.078l-10.203 2.5q-6.203 1.562-9.157 4.656-2.953 3.094-2.953 8.031 0 7.72 5.516 12.203 5.531 4.5 14.406 4.5 9.485 0 14.531-4.624 5.047-4.61 5.344-11.782z" id="HelveticaWorld-Regular-115"/><path d="M13.094 26.313q0-9.704 3.844-14.954 3.859-5.25 10.265-5.25 6.094 0 10.188 4.485 4.109 4.5 4.109 13.094 0 11.03-3.5 16.625-3.484 5.593-10.61 5.593-6.78 0-10.546-4.453-3.75-4.437-3.75-15.14zM50.39 0h-8.297v7.172h-.203q-4.97-8.688-15.078-8.688-10.891 0-16.86 8.297Q4 15.094 4 27.688q0 11.625 5.906 18.875 5.922 7.25 15.875 7.25 9.813 0 15.625-8.891l.203.594V71.78h8.782z" id="HelveticaWorld-Regular-100"/></defs><use xlink:href="#HelveticaWorld-Regular-112"/><use x="56.494" xlink:href="#HelveticaWorld-Regular-114"/><use x="88.063" xlink:href="#HelveticaWorld-Regular-101"/><use x="143.482" xlink:href="#HelveticaWorld-Regular-115"/><use x="193.482" xlink:href="#HelveticaWorld-Regular-101"/><use x="248.902" xlink:href="#HelveticaWorld-Regular-114"/><use x="283.846" xlink:href="#HelveticaWorld-Regular-118"/><use x="333.455" xlink:href="#HelveticaWorld-Regular-105"/><use x="355.477" xlink:href="#HelveticaWorld-Regular-109"/><use x="438.484" xlink:href="#HelveticaWorld-Regular-47"/><use x="466.268" xlink:href="#HelveticaWorld-Regular-110"/><use x="521.443" xlink:href="#HelveticaWorld-Regular-101"/><use x="576.863" xlink:href="#HelveticaWorld-Regular-114"/><use x="608.432" xlink:href="#HelveticaWorld-Regular-100"/><use x="665.414" xlink:href="#HelveticaWorld-Regular-116"/><use x="693.1" xlink:href="#HelveticaWorld-Regular-114"/><use x="724.668" xlink:href="#HelveticaWorld-Regular-101"/><use x="780.088" xlink:href="#HelveticaWorld-Regular-101"/></g><g transform="matrix(.14 0 0 -.14 413.818 120.752)" fill="#d62728" id="text_18"><defs><path d="M19.094 0H8.687v10.594h10.407z" id="HelveticaWorld-Regular-46"/></defs><use xlink:href="#HelveticaWorld-Regular-110"/><use x="55.176" xlink:href="#HelveticaWorld-Regular-101"/><use x="110.596" xlink:href="#HelveticaWorld-Regular-111"/><use x="166.504" xlink:href="#HelveticaWorld-Regular-99"/><use x="217.773" xlink:href="#HelveticaWorld-Regular-108"/><use x="239.795" xlink:href="#HelveticaWorld-Regular-105"/><use x="261.816" xlink:href="#HelveticaWorld-Regular-100"/><use x="318.799" xlink:href="#HelveticaWorld-Regular-101"/><use x="374.219" xlink:href="#HelveticaWorld-Regular-47"/><use x="402.002" xlink:href="#HelveticaWorld-Regular-99"/><use x="453.271" xlink:href="#HelveticaWorld-Regular-111"/><use x="509.18" xlink:href="#HelveticaWorld-Regular-99"/><use x="560.449" xlink:href="#HelveticaWorld-Regular-46"/><use x="588.232" xlink:href="#HelveticaWorld-Regular-110"/><use x="641.033" xlink:href="#HelveticaWorld-Regular-118"/><use x="690.643" xlink:href="#HelveticaWorld-Regular-105"/><use x="712.664" xlink:href="#HelveticaWorld-Regular-109"/></g><g transform="matrix(.14 0 0 -.14 413.818 134.793)" fill="#9467bd" id="text_19"><defs><path d="M17.188 45.016V0H8.405v45.016H1.22v7.28h7.187v8.985q0 5.907 3.578 8.703 3.594 2.813 10.032 2.813 2.203 0 3.968-.188v-7.906q-1.562.188-3.578.188-2.922 0-4.078-1.438-1.14-1.437-1.14-4.656v-6.5h8.796v-7.281z" id="HelveticaWorld-Regular-102"/><path d="M12.984 26.313q0-9.61 3.813-14.907Q20.609 6.11 27.094 6.11q6.312 0 10.312 4.579 4 4.593 4 13 0 11.03-3.5 16.625-3.484 5.593-10.61 5.593-7.171 0-10.75-4.765-3.562-4.766-3.562-14.828zM49.812 2.983q0-12.609-6.062-18.797-6.047-6.203-18.266-6.203-8.78 0-13.984 4.047Q6.297-13.922 5.516-6.39h8.796q.672-3.812 3.532-6.062 2.86-2.25 8.281-2.25 7.375 0 11.125 3.969 3.766 3.953 3.766 12.828v3.719h-.188q-4.937-7.329-13.922-7.329-11.187 0-17.093 8.25-5.907 8.25-5.907 20.953 0 11.625 5.953 18.875 5.97 7.25 15.829 7.25 9.906 0 15.625-8.89h.187v7.375h8.313z" id="HelveticaWorld-Regular-103"/></defs><use xlink:href="#HelveticaWorld-Regular-116"/><use x="27.686" xlink:href="#HelveticaWorld-Regular-112"/><use x="84.18" xlink:href="#HelveticaWorld-Regular-111"/><use x="140.088" xlink:href="#HelveticaWorld-Regular-112"/><use x="196.582" xlink:href="#HelveticaWorld-Regular-101"/><use x="252.002" xlink:href="#HelveticaWorld-Regular-47"/><use x="279.785" xlink:href="#HelveticaWorld-Regular-118"/><use x="329.395" xlink:href="#HelveticaWorld-Regular-105"/><use x="351.416" xlink:href="#HelveticaWorld-Regular-109"/><use x="434.424" xlink:href="#HelveticaWorld-Regular-45"/><use x="467.725" xlink:href="#HelveticaWorld-Regular-102"/><use x="495.41" xlink:href="#HelveticaWorld-Regular-117"/><use x="550.195" xlink:href="#HelveticaWorld-Regular-103"/><use x="606.104" xlink:href="#HelveticaWorld-Regular-105"/><use x="628.125" xlink:href="#HelveticaWorld-Regular-116"/><use x="655.811" xlink:href="#HelveticaWorld-Regular-105"/><use x="677.832" xlink:href="#HelveticaWorld-Regular-118"/><use x="725.441" xlink:href="#HelveticaWorld-Regular-101"/></g><g transform="matrix(.14 0 0 -.14 413.818 148.793)" fill="#8c564b" id="text_20"><defs><path d="M49.219 0h-8.844v34.188q0 6.296-2.438 9-2.437 2.718-7.953 2.718-6.797 0-10.703-4.406-3.906-4.39-3.906-12.984V0H6.594v71.781h8.781V45.312h.203q6 8.5 15.328 8.5 8.594 0 13.453-4.5 4.86-4.484 4.86-13.718z" id="HelveticaWorld-Regular-104"/></defs><use xlink:href="#HelveticaWorld-Regular-102"/><use x="25.686" xlink:href="#HelveticaWorld-Regular-97"/><use x="80.617" xlink:href="#HelveticaWorld-Regular-116"/><use x="108.303" xlink:href="#HelveticaWorld-Regular-105"/><use x="130.324" xlink:href="#HelveticaWorld-Regular-104"/><use x="185.5" xlink:href="#HelveticaWorld-Regular-47"/><use x="213.283" xlink:href="#HelveticaWorld-Regular-118"/><use x="262.893" xlink:href="#HelveticaWorld-Regular-105"/><use x="284.914" xlink:href="#HelveticaWorld-Regular-109"/><use x="367.922" xlink:href="#HelveticaWorld-Regular-45"/><use x="401.223" xlink:href="#HelveticaWorld-Regular-103"/><use x="457.131" xlink:href="#HelveticaWorld-Regular-111"/></g><g transform="matrix(.14 0 0 -.14 413.818 162.837)" fill="#e377c2" id="text_21"><use xlink:href="#HelveticaWorld-Regular-118"/><use x="49.609" xlink:href="#HelveticaWorld-Regular-105"/><use x="71.631" xlink:href="#HelveticaWorld-Regular-109"/><use x="154.639" xlink:href="#HelveticaWorld-Regular-45"/><use x="187.939" xlink:href="#HelveticaWorld-Regular-115"/><use x="236.439" xlink:href="#HelveticaWorld-Regular-121"/><use x="286.049" xlink:href="#HelveticaWorld-Regular-110"/><use x="341.225" xlink:href="#HelveticaWorld-Regular-116"/><use x="368.91" xlink:href="#HelveticaWorld-Regular-97"/><use x="423.842" xlink:href="#HelveticaWorld-Regular-115"/><use x="473.842" xlink:href="#HelveticaWorld-Regular-116"/><use x="501.527" xlink:href="#HelveticaWorld-Regular-105"/><use x="523.549" xlink:href="#HelveticaWorld-Regular-99"/><use x="574.818" xlink:href="#HelveticaWorld-Regular-47"/><use x="602.602" xlink:href="#HelveticaWorld-Regular-115"/><use x="651.102" xlink:href="#HelveticaWorld-Regular-121"/><use x="700.711" xlink:href="#HelveticaWorld-Regular-110"/><use x="755.887" xlink:href="#HelveticaWorld-Regular-116"/><use x="783.572" xlink:href="#HelveticaWorld-Regular-97"/><use x="838.504" xlink:href="#HelveticaWorld-Regular-115"/><use x="888.504" xlink:href="#HelveticaWorld-Regular-116"/><use x="916.189" xlink:href="#HelveticaWorld-Regular-105"/><use x="938.211" xlink:href="#HelveticaWorld-Regular-99"/></g><g transform="matrix(.14 0 0 -.14 413.818 176.837)" fill="#7f7f7f" id="text_22"><use xlink:href="#HelveticaWorld-Regular-100"/><use x="56.982" xlink:href="#HelveticaWorld-Regular-101"/><use x="112.402" xlink:href="#HelveticaWorld-Regular-110"/><use x="167.578" xlink:href="#HelveticaWorld-Regular-115"/><use x="217.578" xlink:href="#HelveticaWorld-Regular-101"/><use x="272.998" xlink:href="#HelveticaWorld-Regular-45"/><use x="306.299" xlink:href="#HelveticaWorld-Regular-97"/><use x="361.23" xlink:href="#HelveticaWorld-Regular-110"/><use x="416.406" xlink:href="#HelveticaWorld-Regular-97"/><use x="471.338" xlink:href="#HelveticaWorld-Regular-108"/><use x="493.359" xlink:href="#HelveticaWorld-Regular-121"/><use x="541.469" xlink:href="#HelveticaWorld-Regular-115"/><use x="591.469" xlink:href="#HelveticaWorld-Regular-105"/><use x="613.49" xlink:href="#HelveticaWorld-Regular-115"/><use x="663.49" xlink:href="#HelveticaWorld-Regular-47"/><use x="691.273" xlink:href="#HelveticaWorld-Regular-97"/><use x="746.205" xlink:href="#HelveticaWorld-Regular-108"/><use x="768.227" xlink:href="#HelveticaWorld-Regular-101"/></g><g transform="matrix(.14 0 0 -.14 413.818 190.885)" fill="#bcbd22" id="text_23"><use xlink:href="#HelveticaWorld-Regular-116"/><use x="27.686" xlink:href="#HelveticaWorld-Regular-112"/><use x="84.18" xlink:href="#HelveticaWorld-Regular-111"/><use x="140.088" xlink:href="#HelveticaWorld-Regular-112"/><use x="196.582" xlink:href="#HelveticaWorld-Regular-101"/><use x="252.002" xlink:href="#HelveticaWorld-Regular-47"/><use x="279.785" xlink:href="#HelveticaWorld-Regular-118"/><use x="329.395" xlink:href="#HelveticaWorld-Regular-105"/><use x="351.416" xlink:href="#HelveticaWorld-Regular-109"/><use x="434.424" xlink:href="#HelveticaWorld-Regular-45"/><use x="467.725" xlink:href="#HelveticaWorld-Regular-115"/><use x="517.725" xlink:href="#HelveticaWorld-Regular-117"/><use x="572.51" xlink:href="#HelveticaWorld-Regular-114"/><use x="605.078" xlink:href="#HelveticaWorld-Regular-114"/><use x="636.646" xlink:href="#HelveticaWorld-Regular-111"/><use x="692.555" xlink:href="#HelveticaWorld-Regular-117"/><use x="747.34" xlink:href="#HelveticaWorld-Regular-110"/><use x="802.516" xlink:href="#HelveticaWorld-Regular-100"/></g><g transform="matrix(.14 0 0 -.14 413.818 204.837)" fill="#17becf" id="text_24"><use xlink:href="#HelveticaWorld-Regular-116"/><use x="27.686" xlink:href="#HelveticaWorld-Regular-101"/><use x="83.105" xlink:href="#HelveticaWorld-Regular-114"/><use x="115.674" xlink:href="#HelveticaWorld-Regular-114"/><use x="150.617" xlink:href="#HelveticaWorld-Regular-121"/><use x="200.227" xlink:href="#HelveticaWorld-Regular-109"/><use x="283.234" xlink:href="#HelveticaWorld-Regular-97"/><use x="338.166" xlink:href="#HelveticaWorld-Regular-47"/><use x="365.949" xlink:href="#HelveticaWorld-Regular-118"/><use x="415.559" xlink:href="#HelveticaWorld-Regular-105"/><use x="437.58" xlink:href="#HelveticaWorld-Regular-109"/><use x="520.588" xlink:href="#HelveticaWorld-Regular-45"/><use x="553.889" xlink:href="#HelveticaWorld-Regular-109"/><use x="636.896" xlink:href="#HelveticaWorld-Regular-117"/><use x="691.682" xlink:href="#HelveticaWorld-Regular-108"/><use x="713.703" xlink:href="#HelveticaWorld-Regular-116"/><use x="741.389" xlink:href="#HelveticaWorld-Regular-105"/><use x="763.41" xlink:href="#HelveticaWorld-Regular-112"/><use x="819.904" xlink:href="#HelveticaWorld-Regular-108"/><use x="841.926" xlink:href="#HelveticaWorld-Regular-101"/><use x="897.346" xlink:href="#HelveticaWorld-Regular-45"/><use x="930.646" xlink:href="#HelveticaWorld-Regular-99"/><use x="981.916" xlink:href="#HelveticaWorld-Regular-117"/><use x="1036.701" xlink:href="#HelveticaWorld-Regular-114"/><use x="1069.27" xlink:href="#HelveticaWorld-Regular-115"/><use x="1119.27" xlink:href="#HelveticaWorld-Regular-111"/><use x="1175.178" xlink:href="#HelveticaWorld-Regular-114"/><use x="1207.746" xlink:href="#HelveticaWorld-Regular-115"/></g><g transform="matrix(.14 0 0 -.14 413.818 218.793)" fill="#aec7e8" id="text_25"><defs><path d="M43.406 26.313q0 10.5-3.718 15.046-3.704 4.547-10.579 4.547-6.984-.11-10.562-5.453Q14.984 35.11 14.984 25q0-10.297 4.297-14.594Q23.578 6.11 29.297 6.11q6.5 0 10.297 5.344 3.812 5.344 3.812 14.86zM6.594 0v71.781h8.781V45.703h.203q5.61 8.11 15.14 8.11 9.766 0 15.766-7.25t6-18.876q0-13.093-6.062-21.156Q40.375-1.516 29.5-1.516q-9.578 0-14.406 8.016h-.203V0z" id="HelveticaWorld-Regular-98"/></defs><use xlink:href="#HelveticaWorld-Regular-97"/><use x="54.932" xlink:href="#HelveticaWorld-Regular-105"/><use x="76.953" xlink:href="#HelveticaWorld-Regular-114"/><use x="109.521" xlink:href="#HelveticaWorld-Regular-98"/><use x="166.016" xlink:href="#HelveticaWorld-Regular-108"/><use x="188.037" xlink:href="#HelveticaWorld-Regular-97"/><use x="242.969" xlink:href="#HelveticaWorld-Regular-100"/><use x="299.951" xlink:href="#HelveticaWorld-Regular-101"/><use x="355.371" xlink:href="#HelveticaWorld-Regular-47"/><use x="383.154" xlink:href="#HelveticaWorld-Regular-118"/><use x="432.764" xlink:href="#HelveticaWorld-Regular-105"/><use x="454.785" xlink:href="#HelveticaWorld-Regular-109"/><use x="537.793" xlink:href="#HelveticaWorld-Regular-45"/><use x="571.094" xlink:href="#HelveticaWorld-Regular-103"/><use x="627.002" xlink:href="#HelveticaWorld-Regular-105"/><use x="649.023" xlink:href="#HelveticaWorld-Regular-116"/><use x="676.709" xlink:href="#HelveticaWorld-Regular-103"/><use x="732.617" xlink:href="#HelveticaWorld-Regular-117"/><use x="787.402" xlink:href="#HelveticaWorld-Regular-116"/><use x="815.088" xlink:href="#HelveticaWorld-Regular-116"/><use x="842.773" xlink:href="#HelveticaWorld-Regular-101"/><use x="898.193" xlink:href="#HelveticaWorld-Regular-114"/></g><g transform="matrix(.14 0 0 -.14 413.818 232.793)" fill="#ffbb78" id="text_26"><defs><path d="M15.375 61.813H6.594v9.968h8.781zm0-69.532q0-7.468-3.547-10.375Q8.297-21 2-21q-1.797 0-3.703.297v7.61H.594q3.703 0 4.843 1.109 1.157 1.093 1.157 5.296v58.985h8.781z" id="HelveticaWorld-Regular-106"/><path d="M14.11 7.328h32.187V0H2.39v6.89l31.64 38.126H4.938v7.28h40.374v-7.171z" id="HelveticaWorld-Regular-122"/></defs><use xlink:href="#HelveticaWorld-Regular-106"/><use x="22.021" xlink:href="#HelveticaWorld-Regular-117"/><use x="76.807" xlink:href="#HelveticaWorld-Regular-110"/><use x="131.982" xlink:href="#HelveticaWorld-Regular-101"/><use x="187.402" xlink:href="#HelveticaWorld-Regular-103"/><use x="243.311" xlink:href="#HelveticaWorld-Regular-117"/><use x="298.096" xlink:href="#HelveticaWorld-Regular-110"/><use x="353.271" xlink:href="#HelveticaWorld-Regular-110"/><use x="408.447" xlink:href="#HelveticaWorld-Regular-47"/><use x="436.23" xlink:href="#HelveticaWorld-Regular-102"/><use x="463.916" xlink:href="#HelveticaWorld-Regular-122"/><use x="513.135" xlink:href="#HelveticaWorld-Regular-102"/><use x="537.82" xlink:href="#HelveticaWorld-Regular-46"/><use x="565.604" xlink:href="#HelveticaWorld-Regular-118"/><use x="615.213" xlink:href="#HelveticaWorld-Regular-105"/><use x="637.234" xlink:href="#HelveticaWorld-Regular-109"/></g><g transform="matrix(.14 0 0 -.14 413.818 246.837)" fill="#98df8a" id="text_27"><use xlink:href="#HelveticaWorld-Regular-101"/><use x="55.42" xlink:href="#HelveticaWorld-Regular-97"/><use x="110.352" xlink:href="#HelveticaWorld-Regular-115"/><use x="158.852" xlink:href="#HelveticaWorld-Regular-121"/><use x="208.461" xlink:href="#HelveticaWorld-Regular-109"/><use x="291.469" xlink:href="#HelveticaWorld-Regular-111"/><use x="347.377" xlink:href="#HelveticaWorld-Regular-116"/><use x="375.063" xlink:href="#HelveticaWorld-Regular-105"/><use x="397.084" xlink:href="#HelveticaWorld-Regular-111"/><use x="452.992" xlink:href="#HelveticaWorld-Regular-110"/><use x="508.168" xlink:href="#HelveticaWorld-Regular-47"/><use x="535.951" xlink:href="#HelveticaWorld-Regular-118"/><use x="585.561" xlink:href="#HelveticaWorld-Regular-105"/><use x="607.582" xlink:href="#HelveticaWorld-Regular-109"/><use x="690.59" xlink:href="#HelveticaWorld-Regular-45"/><use x="723.891" xlink:href="#HelveticaWorld-Regular-101"/><use x="779.311" xlink:href="#HelveticaWorld-Regular-97"/><use x="834.242" xlink:href="#HelveticaWorld-Regular-115"/><use x="882.742" xlink:href="#HelveticaWorld-Regular-121"/><use x="932.352" xlink:href="#HelveticaWorld-Regular-109"/><use x="1015.359" xlink:href="#HelveticaWorld-Regular-111"/><use x="1071.268" xlink:href="#HelveticaWorld-Regular-116"/><use x="1098.953" xlink:href="#HelveticaWorld-Regular-105"/><use x="1120.975" xlink:href="#HelveticaWorld-Regular-111"/><use x="1176.883" xlink:href="#HelveticaWorld-Regular-110"/></g><g transform="matrix(.14 0 0 -.14 413.818 260.752)" fill="#ff9896" id="text_28"><use xlink:href="#HelveticaWorld-Regular-109"/><use x="83.008" xlink:href="#HelveticaWorld-Regular-97"/><use x="137.939" xlink:href="#HelveticaWorld-Regular-116"/><use x="165.625" xlink:href="#HelveticaWorld-Regular-116"/><use x="193.311" xlink:href="#HelveticaWorld-Regular-110"/><use x="248.486" xlink:href="#HelveticaWorld-Regular-47"/><use x="276.27" xlink:href="#HelveticaWorld-Regular-101"/><use x="331.689" xlink:href="#HelveticaWorld-Regular-109"/><use x="414.697" xlink:href="#HelveticaWorld-Regular-109"/><use x="497.705" xlink:href="#HelveticaWorld-Regular-101"/><use x="553.125" xlink:href="#HelveticaWorld-Regular-116"/><use x="580.811" xlink:href="#HelveticaWorld-Regular-45"/><use x="614.111" xlink:href="#HelveticaWorld-Regular-118"/><use x="663.721" xlink:href="#HelveticaWorld-Regular-105"/><use x="685.742" xlink:href="#HelveticaWorld-Regular-109"/></g><g transform="matrix(.14 0 0 -.14 413.818 274.793)" fill="#c5b0d5" id="text_29"><use xlink:href="#HelveticaWorld-Regular-105"/><use x="22.021" xlink:href="#HelveticaWorld-Regular-116"/><use x="49.707" xlink:href="#HelveticaWorld-Regular-99"/><use x="100.977" xlink:href="#HelveticaWorld-Regular-104"/><use x="153.777" xlink:href="#HelveticaWorld-Regular-121"/><use x="203.387" xlink:href="#HelveticaWorld-Regular-110"/><use x="256.563" xlink:href="#HelveticaWorld-Regular-121"/><use x="306.172" xlink:href="#HelveticaWorld-Regular-47"/><use x="333.955" xlink:href="#HelveticaWorld-Regular-108"/><use x="355.977" xlink:href="#HelveticaWorld-Regular-105"/><use x="377.998" xlink:href="#HelveticaWorld-Regular-103"/><use x="433.906" xlink:href="#HelveticaWorld-Regular-104"/><use x="489.082" xlink:href="#HelveticaWorld-Regular-116"/><use x="516.768" xlink:href="#HelveticaWorld-Regular-108"/><use x="538.789" xlink:href="#HelveticaWorld-Regular-105"/><use x="560.811" xlink:href="#HelveticaWorld-Regular-110"/><use x="615.986" xlink:href="#HelveticaWorld-Regular-101"/><use x="669.906" xlink:href="#HelveticaWorld-Regular-46"/><use x="697.689" xlink:href="#HelveticaWorld-Regular-118"/><use x="747.299" xlink:href="#HelveticaWorld-Regular-105"/><use x="769.32" xlink:href="#HelveticaWorld-Regular-109"/></g><g transform="matrix(.14 0 0 -.14 413.818 288.793)" fill="#c49c94" id="text_30"><use xlink:href="#HelveticaWorld-Regular-109"/><use x="83.008" xlink:href="#HelveticaWorld-Regular-97"/><use x="137.939" xlink:href="#HelveticaWorld-Regular-106"/><use x="159.961" xlink:href="#HelveticaWorld-Regular-117"/><use x="214.746" xlink:href="#HelveticaWorld-Regular-116"/><use x="242.432" xlink:href="#HelveticaWorld-Regular-115"/><use x="292.432" xlink:href="#HelveticaWorld-Regular-117"/><use x="347.217" xlink:href="#HelveticaWorld-Regular-115"/><use x="397.217" xlink:href="#HelveticaWorld-Regular-104"/><use x="452.393" xlink:href="#HelveticaWorld-Regular-105"/><use x="474.414" xlink:href="#HelveticaWorld-Regular-47"/><use x="502.197" xlink:href="#HelveticaWorld-Regular-116"/><use x="529.883" xlink:href="#HelveticaWorld-Regular-97"/><use x="584.814" xlink:href="#HelveticaWorld-Regular-103"/><use x="640.723" xlink:href="#HelveticaWorld-Regular-98"/><use x="697.217" xlink:href="#HelveticaWorld-Regular-97"/><use x="752.148" xlink:href="#HelveticaWorld-Regular-114"/></g><g transform="matrix(.14 0 0 -.14 413.818 302.885)" fill="#f7b6d2" id="text_31"><use xlink:href="#HelveticaWorld-Regular-116"/><use x="27.686" xlink:href="#HelveticaWorld-Regular-112"/><use x="84.18" xlink:href="#HelveticaWorld-Regular-111"/><use x="140.088" xlink:href="#HelveticaWorld-Regular-112"/><use x="196.582" xlink:href="#HelveticaWorld-Regular-101"/><use x="252.002" xlink:href="#HelveticaWorld-Regular-47"/><use x="279.785" xlink:href="#HelveticaWorld-Regular-118"/><use x="329.395" xlink:href="#HelveticaWorld-Regular-105"/><use x="351.416" xlink:href="#HelveticaWorld-Regular-109"/><use x="434.424" xlink:href="#HelveticaWorld-Regular-45"/><use x="467.725" xlink:href="#HelveticaWorld-Regular-115"/><use x="517.725" xlink:href="#HelveticaWorld-Regular-101"/><use x="573.145" xlink:href="#HelveticaWorld-Regular-110"/><use x="628.32" xlink:href="#HelveticaWorld-Regular-115"/><use x="678.32" xlink:href="#HelveticaWorld-Regular-105"/><use x="700.342" xlink:href="#HelveticaWorld-Regular-98"/><use x="756.836" xlink:href="#HelveticaWorld-Regular-108"/><use x="778.857" xlink:href="#HelveticaWorld-Regular-101"/></g><g transform="matrix(.14 0 0 -.14 413.818 316.885)" fill="#c7c7c7" id="text_32"><use xlink:href="#HelveticaWorld-Regular-112"/><use x="56.494" xlink:href="#HelveticaWorld-Regular-114"/><use x="88.063" xlink:href="#HelveticaWorld-Regular-101"/><use x="143.482" xlink:href="#HelveticaWorld-Regular-115"/><use x="193.482" xlink:href="#HelveticaWorld-Regular-101"/><use x="248.902" xlink:href="#HelveticaWorld-Regular-114"/><use x="283.846" xlink:href="#HelveticaWorld-Regular-118"/><use x="333.455" xlink:href="#HelveticaWorld-Regular-105"/><use x="355.477" xlink:href="#HelveticaWorld-Regular-109"/><use x="438.484" xlink:href="#HelveticaWorld-Regular-47"/><use x="466.268" xlink:href="#HelveticaWorld-Regular-110"/><use x="521.443" xlink:href="#HelveticaWorld-Regular-101"/><use x="576.863" xlink:href="#HelveticaWorld-Regular-114"/><use x="608.432" xlink:href="#HelveticaWorld-Regular-100"/><use x="665.414" xlink:href="#HelveticaWorld-Regular-99"/><use x="716.684" xlink:href="#HelveticaWorld-Regular-111"/><use x="772.592" xlink:href="#HelveticaWorld-Regular-109"/><use x="855.6" xlink:href="#HelveticaWorld-Regular-109"/><use x="938.607" xlink:href="#HelveticaWorld-Regular-101"/><use x="994.027" xlink:href="#HelveticaWorld-Regular-110"/><use x="1049.203" xlink:href="#HelveticaWorld-Regular-116"/><use x="1076.889" xlink:href="#HelveticaWorld-Regular-101"/><use x="1132.309" xlink:href="#HelveticaWorld-Regular-114"/></g><g transform="matrix(.14 0 0 -.14 413.818 330.885)" fill="#dbdb8d" id="text_33"><use xlink:href="#HelveticaWorld-Regular-116"/><use x="27.686" xlink:href="#HelveticaWorld-Regular-112"/><use x="84.18" xlink:href="#HelveticaWorld-Regular-111"/><use x="140.088" xlink:href="#HelveticaWorld-Regular-112"/><use x="196.582" xlink:href="#HelveticaWorld-Regular-101"/><use x="252.002" xlink:href="#HelveticaWorld-Regular-47"/><use x="279.785" xlink:href="#HelveticaWorld-Regular-118"/><use x="329.395" xlink:href="#HelveticaWorld-Regular-105"/><use x="351.416" xlink:href="#HelveticaWorld-Regular-109"/><use x="434.424" xlink:href="#HelveticaWorld-Regular-45"/><use x="467.725" xlink:href="#HelveticaWorld-Regular-114"/><use x="499.293" xlink:href="#HelveticaWorld-Regular-97"/><use x="554.225" xlink:href="#HelveticaWorld-Regular-105"/><use x="576.246" xlink:href="#HelveticaWorld-Regular-108"/><use x="598.268" xlink:href="#HelveticaWorld-Regular-115"/></g><g transform="matrix(.14 0 0 -.14 413.818 344.837)" fill="#9edae5" id="text_34"><use xlink:href="#HelveticaWorld-Regular-109"/><use x="83.008" xlink:href="#HelveticaWorld-Regular-104"/><use x="138.184" xlink:href="#HelveticaWorld-Regular-105"/><use x="160.205" xlink:href="#HelveticaWorld-Regular-110"/><use x="215.381" xlink:href="#HelveticaWorld-Regular-122"/><use x="264.6" xlink:href="#HelveticaWorld-Regular-47"/><use x="292.383" xlink:href="#HelveticaWorld-Regular-118"/><use x="341.992" xlink:href="#HelveticaWorld-Regular-105"/><use x="364.014" xlink:href="#HelveticaWorld-Regular-109"/><use x="447.021" xlink:href="#HelveticaWorld-Regular-45"/><use x="480.322" xlink:href="#HelveticaWorld-Regular-115"/><use x="530.322" xlink:href="#HelveticaWorld-Regular-116"/><use x="558.008" xlink:href="#HelveticaWorld-Regular-97"/><use x="612.939" xlink:href="#HelveticaWorld-Regular-114"/><use x="647.008" xlink:href="#HelveticaWorld-Regular-116"/><use x="674.693" xlink:href="#HelveticaWorld-Regular-105"/><use x="696.715" xlink:href="#HelveticaWorld-Regular-102"/><use x="724.4" xlink:href="#HelveticaWorld-Regular-121"/></g><g transform="matrix(.09716 0 0 -.09716 53.127 347.144)" fill="#969696" id="text_35"><defs><path d="M38.484 38.375h31.532V0h-6.297l-2.344 9.281Q56.781 3.421 50.578.75q-6.187-2.656-12.875-2.656-10.797 0-18.047 4.703-7.25 4.719-11.265 13.015-4 8.313-4 20.72 0 15.468 9.203 26.312 9.203 10.843 24.781 10.843 11.625 0 20.313-6.5Q67.39 60.688 68.796 50h-9.375q-1.703 7.078-7.219 11.078-5.516 4.016-14.312 4.016-10.594 0-17.047-7.985-6.438-7.984-6.438-21.125 0-15.28 6.39-22.437Q27.204 6.39 38.282 6.39q7.235 0 12.235 2.859 5 2.86 7.687 7.766 2.688 4.906 2.688 13.062H38.484z" id="HelveticaWorld-Regular-71"/><path d="M64.89 0h-9.718v33.5h-37.5V0H8.109v71.781h9.563V42.094h37.5V71.78h9.719z" id="HelveticaWorld-Regular-72"/><path d="M44 29.5L33.406 61.078h-.203L21.687 29.5zm-25.297-8.594L11.188 0h-9.97l27 71.781h10.985L65.187 0H54.594l-7.078 20.906z" id="HelveticaWorld-Regular-65"/><path d="M17.828 38.625H37.11q7.282 0 10.938 3.188 3.656 3.203 3.656 9.703 0 5.812-3.516 8.89-3.515 3.078-10.687 3.078H17.828zm0-38.625H8.11v71.781h32.266q9.625 0 15.484-5.594 5.86-5.593 5.86-14.578 0-9.328-5.672-15.312-5.656-5.969-15.672-5.969H17.828z" id="HelveticaWorld-Regular-80"/><path d="M17.828 0H8.11v71.781h9.72z" id="HelveticaWorld-Regular-73"/><path d="M0-12.313v4.891h55.61v-4.89z" id="HelveticaWorld-Regular-95"/><path d="M9.422 73.688h7.281V-1.906H9.422z" id="HelveticaWorld-Regular-124"/><path d="M55.61 71.781h9.374V0h-10.78L17.577 58.016h-.187V0H8.109v71.781h11.375l35.938-57.969h.187z" id="HelveticaWorld-Regular-78"/><path d="M50.39 50.781q-.296 6.844-5.109 10.719-4.797 3.875-12.656 3.875-7.922 0-12.172-3.25-4.234-3.234-4.234-9.344 0-3.265 1.843-5.61 1.86-2.343 6.641-3.468l20.516-4.687q8.297-1.813 12.297-6.875 4.015-5.047 4.015-12.313 0-10.64-7.812-16.187-7.813-5.547-20.313-5.547-9.531 0-15.031 2.437-5.484 2.453-9.734 7.766-4.25 5.328-4.25 14.89h9.093q0-8 5.313-12.406 5.328-4.39 14.5-4.39 8.89 0 13.844 3.156 4.953 3.156 4.953 8.953 0 5.281-2.953 7.89Q46.188 29 37.594 31l-15.469 3.625q-7.719 1.75-11.531 6.125Q6.78 45.125 6.78 51.516q0 9.672 6.516 15.922 6.531 6.25 18.203 6.25 13.172 0 20.328-5.5 7.156-5.485 7.688-17.407z" id="HelveticaWorld-Regular-83"/><path d="M12.703 26.219q0-8.735 3.953-14.375 3.953-5.64 11.219-5.64 7.531 0 11.438 5.905 3.906 5.907 3.906 14.11 0 8.297-3.907 14.078-3.906 5.797-11.437 5.797-6.969 0-11.078-5.453-4.094-5.438-4.094-14.422zm-8.984 0q0 11.672 6.484 19.625 6.5 7.968 17.672 7.968 11.438 0 17.875-8.062 6.453-8.047 6.453-19.531 0-11.516-6.406-19.625-6.39-8.11-17.922-8.11-11.078 0-17.625 7.86-6.531 7.86-6.531 19.875zm36.734 35.406H31.47v10.156h8.984zm-16.219 0H15.25v10.156h8.984z" id="HelveticaWorld-Regular-246"/><path d="M8.11 71.781h31.484q9.281 0 14.797-5.031 5.515-5.031 5.515-13.031 0-4.844-2.422-8.828-2.406-3.97-7.187-6.172 6.687-2.532 9.828-6.735 3.156-4.203 3.156-10.797 0-9.265-6.687-15.234Q49.906 0 38.922 0H8.109zm9.562-63.484h20.703q7.625 0 11.422 3.531 3.812 3.547 3.812 9.563 0 6.093-4.25 9.093Q45.125 33.5 36.812 33.5h-19.14zm0 33.11h17.625q7.719 0 11.312 2.796 3.594 2.813 3.594 8.781 0 5.125-3.406 7.813-3.39 2.687-11.39 2.687H17.671z" id="HelveticaWorld-Regular-66"/></defs><use xlink:href="#HelveticaWorld-Regular-71"/><use x="77.1" xlink:href="#HelveticaWorld-Regular-105"/><use x="99.121" xlink:href="#HelveticaWorld-Regular-116"/><use x="126.807" xlink:href="#HelveticaWorld-Regular-72"/><use x="199.805" xlink:href="#HelveticaWorld-Regular-117"/><use x="254.59" xlink:href="#HelveticaWorld-Regular-98"/><use x="311.084" xlink:href="#HelveticaWorld-Regular-32"/><use x="335.498" xlink:href="#HelveticaWorld-Regular-65"/><use x="402.197" xlink:href="#HelveticaWorld-Regular-80"/><use x="466.846" xlink:href="#HelveticaWorld-Regular-73"/><use x="492.627" xlink:href="#HelveticaWorld-Regular-32"/><use x="517.041" xlink:href="#HelveticaWorld-Regular-118"/><use x="566.65" xlink:href="#HelveticaWorld-Regular-105"/><use x="588.672" xlink:href="#HelveticaWorld-Regular-97"/><use x="643.604" xlink:href="#HelveticaWorld-Regular-32"/><use x="668.018" xlink:href="#HelveticaWorld-Regular-103"/><use x="723.926" xlink:href="#HelveticaWorld-Regular-104"/><use x="779.102" xlink:href="#HelveticaWorld-Regular-95"/><use x="834.717" xlink:href="#HelveticaWorld-Regular-115"/><use x="884.717" xlink:href="#HelveticaWorld-Regular-116"/><use x="912.402" xlink:href="#HelveticaWorld-Regular-97"/><use x="967.334" xlink:href="#HelveticaWorld-Regular-114"/><use x="999.902" xlink:href="#HelveticaWorld-Regular-115"/><use x="1049.902" xlink:href="#HelveticaWorld-Regular-32"/><use x="1074.316" xlink:href="#HelveticaWorld-Regular-124"/><use x="1100.293" xlink:href="#HelveticaWorld-Regular-32"/><use x="1124.707" xlink:href="#HelveticaWorld-Regular-78"/><use x="1197.803" xlink:href="#HelveticaWorld-Regular-105"/><use x="1219.824" xlink:href="#HelveticaWorld-Regular-99"/><use x="1271.094" xlink:href="#HelveticaWorld-Regular-111"/><use x="1327.002" xlink:href="#HelveticaWorld-Regular-32"/><use x="1351.416" xlink:href="#HelveticaWorld-Regular-83"/><use x="1417.627" xlink:href="#HelveticaWorld-Regular-99"/><use x="1468.896" xlink:href="#HelveticaWorld-Regular-104"/><use x="1524.072" xlink:href="#HelveticaWorld-Regular-108"/><use x="1546.094" xlink:href="#HelveticaWorld-Regular-246"/><use x="1602.002" xlink:href="#HelveticaWorld-Regular-109"/><use x="1685.01" xlink:href="#HelveticaWorld-Regular-101"/><use x="1740.43" xlink:href="#HelveticaWorld-Regular-114"/><use x="1772.998" xlink:href="#HelveticaWorld-Regular-32"/><use x="1797.412" xlink:href="#HelveticaWorld-Regular-124"/><use x="1823.389" xlink:href="#HelveticaWorld-Regular-32"/><use x="1847.803" xlink:href="#HelveticaWorld-Regular-67"/><use x="1920.117" xlink:href="#HelveticaWorld-Regular-67"/><use x="1992.432" xlink:href="#HelveticaWorld-Regular-32"/><use x="2016.846" xlink:href="#HelveticaWorld-Regular-66"/><use x="2079.658" xlink:href="#HelveticaWorld-Regular-89"/></g><g transform="matrix(.14 0 0 -.14 158.992 17.25)" fill="#969696" id="text_36"><use xlink:href="#HelveticaWorld-Regular-78"/><use x="73.096" xlink:href="#HelveticaWorld-Regular-117"/><use x="127.881" xlink:href="#HelveticaWorld-Regular-109"/><use x="210.889" xlink:href="#HelveticaWorld-Regular-98"/><use x="267.383" xlink:href="#HelveticaWorld-Regular-101"/><use x="322.803" xlink:href="#HelveticaWorld-Regular-114"/><use x="355.371" xlink:href="#HelveticaWorld-Regular-32"/><use x="379.785" xlink:href="#HelveticaWorld-Regular-111"/><use x="435.693" xlink:href="#HelveticaWorld-Regular-102"/><use x="463.379" xlink:href="#HelveticaWorld-Regular-32"/><use x="487.793" xlink:href="#HelveticaWorld-Regular-71"/><use x="564.893" xlink:href="#HelveticaWorld-Regular-105"/><use x="586.914" xlink:href="#HelveticaWorld-Regular-116"/><use x="614.6" xlink:href="#HelveticaWorld-Regular-72"/><use x="687.598" xlink:href="#HelveticaWorld-Regular-117"/><use x="742.383" xlink:href="#HelveticaWorld-Regular-98"/><use x="798.877" xlink:href="#HelveticaWorld-Regular-32"/><use x="823.291" xlink:href="#HelveticaWorld-Regular-115"/><use x="873.291" xlink:href="#HelveticaWorld-Regular-116"/><use x="900.977" xlink:href="#HelveticaWorld-Regular-97"/><use x="955.908" xlink:href="#HelveticaWorld-Regular-114"/><use x="988.477" xlink:href="#HelveticaWorld-Regular-115"/></g><path clip-path="url(#p168ee67d70)" d="M188.613 313.361l.685-1.546 2.396-.12.818-.192 1.022-.372 11.631-1.858 5.507-.743 2.496-.372 1.128-.18 4.932-.372 19.758-3.165 2.693-.552 3.47-.563 8.328-1.487 5.072-1.115 8.343-2.23 2.228-.743 3.995-.744 3.937-.743.091-.743 1.176-.744 2.926-.743 4.327-1.487 6.004-1.115 1.204-.372 1.874-.743 1.098-.743 1.175-.372 4.89-1.115 4.09-1.487 1.811-.371 3.931-1.115 4.145-.744 1.953-.371 1.203-.372 4.63-1.115 12.81-3.345 8.797-1.667 2.765-.563 3.67-.744 1.451-.371 4.093-.744 1.045-.372 1.988-.371 3.062-.744 1.846-.371 1.271-.372 2.022-.372 2.63-.743 6.317-1.487 3.012-.371 12.46-2.602 1.256-.372 6.79-1.27 1.557-.157 7.638-1.318h0" fill="none" stroke="#f7b6d2" stroke-linecap="square" stroke-width="1.5" id="line2d_26"/><path clip-path="url(#p168ee67d70)" d="M132.809 313.361l.885-3.824 3.844-.324 2.53-.228 7.352-.432 5.308-.215 13.359-.552 9.91-.204 15.366-.12 6.063-1.115 3.757-.431 4.338-.875 1.306-.444 7.523-1.535 1.744-.228 5.09-1.09 1.559-.216 5.795-1.092 1.582-.227 2.6-.66 3.36-.66 3.585-.874 1.254-.444 6.134-1.319 3.3-.875 2.95-.875 11.492-2.638 6.458-1.75 2.603-.444 4.393-1.32 5.742-1.318 2.785-.875 1.94-.444 1.33-.444 1.907-.431 4.604-1.32 2.321-.43 26.556-6.595 4.596-1.319 7.68-2.194 2.065-.432 1.251-.443 3.643-.888 4.379-1.09 1.46-.216 5.685-1.32 1.598-.443 2.714-.444 3.206-.875 3.118-.875 4.238-.875 3.264-.887 5.996-1.307 9.58-2.206 3.08-.876 1.084-.431 7.04-1.763 1.356-.443 1.944-.36 1.305-.36 1.883-.288 1.022-.3 1.625-.599h0" fill="none" stroke="#c49c94" stroke-linecap="square" stroke-width="1.5" id="line2d_27"/><path clip-path="url(#p168ee67d70)" d="M206.084 313.361l.959-3.549 1.35-.443 1.96-.444 3.565-.443 9.402-1.775 2.346-.456 5.526-.887 3.127-.66 6.496-.886 2.537-.444 1.97-.228 4.42-.887 3.948-.444 2.252-.443 4.923-.66 2.892-.335 1.008-.108 1.062-.228 2.109-.9 8.034-1.774 2.813-.887 7.295-1.547 2.031-.228 8.47-1.774 1.593-.444 2.3-.455 4.895-1.331 1.065-.444 1.727-.443 2.209-.444 1.497-.444 8.06-1.774 1.9-.444 3.944-1.786 6.195-1.775 2.08-.887 2.476-.887 1.184-.444 4.39-1.33 1.264-.444 3.422-.888 1.032-.455 5.204-1.775 1.804-.887 1.287-.444 1.707-.443 3.223-1.331 1.26-.444 6.042-2.673 2.976-.888 3.416-1.33 10.101-3.55 1.065-.455 2.42-.887 1.955-.887 1.397-.888 1.063-.887 6.764-3.56 1.626-.624 2.998-1.331 1.567-.708 1.746-.407.625-.408 2.186-.827h0" fill="none" stroke="#c5b0d5" stroke-linecap="square" stroke-width="1.5" id="line2d_28"/><path clip-path="url(#p168ee67d70)" d="M107.697 313.361l.879-3.74 9.316-.612 6.721-.48 6.297-.599 1.663-.12 3.456-.372 6.574-.54 5.65-.31 14.584-1.092 8.41-.36.35-.06 7.747-.143 7.587-.096 4.95-.18 1.774-.48 2.763-.97 1.029-.24 1.989-.253 3.041-.719 1.416-.252 3.06-1.45 1.856-.492 3.336-1.45 1.51-.492.999-.48 3.148-.96 7.512-1.941 3.615-.972 8.227-2.422 7.999-1.93 6.016-1.942 4.949-1.451 1.508-.492 9.166-2.421 1.5-.492 3.671-.96 6.545-1.942 1.73-.48 1.15-.49 3.26-.96 13.772-3.393 3.822-.96 2.26-.49 1.593-.48 2.272-.492 1.343-.48 2.115-.491 1.94-.24 2.369-.48 6.772-1.462 1.353-.24 10.008-2.422 1.389-.48 1.097-.24 1.984-.251 2.937-.72 1.551-.251 10.695-2.41 7.884-1.943 4.819-.97 3.12-.72 4.396-.731 8.942-1.943 1.725-.24 2.878-.731 2.488-.48 5.664-1.462 1.522-.48 2.14-.491 4.943-.804 4.22-.923 1.505-.204h0" fill="none" stroke="#ff9896" stroke-linecap="square" stroke-width="1.5" id="line2d_29"/><path clip-path="url(#p168ee67d70)" d="M138.612 313.361l1.954-4.436 8.563-.42 7.547-.311 2.733-.144 32.376-.6 2.168-.491 1.65-.24 1.864-.492 3.204-.503 3.064-.492 4.87-.743 2.036-.24 3.54-.743 3.21-.492 7.87-2.218 1.496-.252 7.429-1.726 3.676-.744 10.962-2.47 2.325-.491 1.6-.492 3.997-.995 5.663-1.978 11.12-2.961.815-.492 8.393-2.47.366-.492 7.663-1.978 9.23-2.47 1.587-.24.841-.251 3.978-.983 1.14-.492 3.226-.995 4.86-1.475 2.443-.491 1.593-.492 3.139-.492 2.114-.995 7.26-2.206 1.315-.252 2.716-.983 2.215-.503 3.232-.984 10.186-2.47 13.244-3.453 1.4-.491 13.371-3.465 4.17-1.487 2.157-.491 2.928-.984 4.547-1.978 2.99-1.475 3.702-1.486 2.108-.995 3.258-1.02 1.843-.42.534-.419 2.154-.84h0" fill="none" stroke="#98df8a" stroke-linecap="square" stroke-width="1.5" id="line2d_30"/><path clip-path="url(#p168ee67d70)" d="M261.606 313.361l.685-.24 1.864-.251 1.614-.24 1.986-.252 1.426-.24 1.515-.251 1.702-.252.825-.252 1.552-.24 1.024-.252 2.185-.503 2.042-.492.945-.251 1.492-.252.906-.24 1.453-.252 2.049-.491 1.355-.24 1.343-.252 1.909-.504 1.604-.491 1.705-.504 1.891-.491 1.818-.504.962-.24 1.4-.251 1.214-.492 1.757-.492 1.026-.503 1.041-.492 1.47-.503 1.262-.492 1.354-.503 1.093-.492 1.947-.492 1.95-.491 1.48-.504 1.536-.491 1.579-.504 1.159-.491 1.516-.504 1.289-1.978 1.279-.995 2.002-.996 1.033-.491 1.505-.492 1.23-.491 1.084-.504 2.286-.995 1.8-.995 2.107-.983 2.07-.996 1.252-.491 1.066-.504 1.715-.995 1.542-.491 1.307-.492 1.775-.995 1.516-.995 2.024-.995 2.02-.984.965-.491 1.367-.504 2.158-.995 1.627-.995 1.59-.983 1.296-.995 1.25-.995 1.638-.996 1.741-.983 1.376-.995 1.773-.995 1.466-.995 1.928-.983 1.767-.996 1.538-.995 1.934-.995 1.438-.983 1.359-.995 1.482-.995 1.762-.995 1.606-.984 1.278-.995 1.336-.995 1.24-.995 2.14-1.978 1.87-1.99 1.903-1.99 1.066-.996 1.457-.995 1.506-1.115 1.49-1.115 1.565-1.091 1.666-1.103 1.43-.84.902-.839 2.19-1.679" fill="none" stroke="#ffbb78" stroke-linecap="square" stroke-width="1.5" id="line2d_31"/><path clip-path="url(#p168ee67d70)" d="M192.058 313.361l1.054-9.627.263-4.808.327-1.2.83-.599 2.477-.91 2.046-.3 3.707-.9 2.11-.3 2.9-.91 1.475-.3 3.253-.9 4.208-.9 1.337-.599 5.403-1.81.41-.6 2.55-.599 5.464-1.21.782-.3 3.287-.6 1.911-.3.935-.3 1.439-.3 3.394-.91 4.174-.9 5.233-1.81 2.48-.6 8.286-2.41 1.747-.6 2.364-.61 2.969-.9 1.928-.3 1.554-.6 4.003-1.21 2.542-.6 5.23-1.498 3.421-.9 3.27-.899 1.428-.311 3.11-1.2 1.656-.599 9.767-3.021 3.067-.9 4.531-1.199 9.83-2.71 13.074-4.208 6.47-2.41 8.54-2.398 1.274-.611 4.278-1.199 6.352-2.41 2.85-.9 1.717-.31 4.022-1.2 2.645-.6 4.027-1.21 1.305-.6 2.313-.6 2.258-.61 1.574-.6 3.433-1.2 1.608-.61 3.572-1.8 1.937-.61 1.872-.396 1.13-.396 1.963-.551 1.292-.552 1.527-.348.809-.36 2.192-.719h0" fill="none" stroke="#aec7e8" stroke-linecap="square" stroke-width="1.5" id="line2d_32"/><path clip-path="url(#p168ee67d70)" d="M196.107 313.361l.335-11.162.612-1.39 1.26-.696 1.935-.708 2.221-1.39 3.274-1.403 1.004-.696 4.555-1.39 1.65-.708 6.306-2.086 13.773-5.587 1.104-.708 1.338-.695 2.496-.696 8.41-2.793 1.365-.696 1.694-.707 3.758-2.086 3.519-1.403 1.107-.695 1.487-.696 1.2-.707 1.934-.696 4.433-2.098 9.005-4.184 3.195-1.391 2.575-1.39 2.211-.696 1.484-.708 2.11-.695 3.168-1.39 1.973-.708 4.28-2.086 5.02-2.099 2.111-.695 6.839-2.794 3.132-.707 9.891-3.489 6.709-2.098 1.517-.348 10.46-3.837 6.166-2.098 1.573-.695 12.563-4.197 5.04-1.738 1.159-.348 1.72-.707 3.55-1.043 2.677-.696 4.867-1.403 4.523-1.043 6.949-2.098 2.298-.695 1.758-.696 2.095-.707 2.942-.42 5.985-.431 1.42-.204h0" fill="none" stroke="#17becf" stroke-linecap="square" stroke-width="1.5" id="line2d_33"/><path clip-path="url(#p168ee67d70)" d="M67.32 313.361l1.83-1.33 7.82-.672 20.554-2.014 7.966-.768 5.077-.575 2.571-.288 7.782-.671 2.909-.288 1.345-.096 2.713-.384 20.249-2.206 7.84-.671 6.924-.384 2.723-.144 18.31-.467 7.327-.06.439-.096 3.52-1.151 3.858-1.14 3.151-.766 1.098-.384 2.776-.767 1.107-.384 1.838-.384 3.802-1.15 1.39-.385 3.516-.767 1.61-.384 2.21-.767 14.233-4.22 5.605-1.523 7.511-2.302 1.61-.767 13.08-4.604 5.19-2.302 6.233-2.302 1.45-.768 5.428-2.302 6.038-2.302 1.71-.767 2.191-.768 3.65-1.534 7.69-3.07 3.266-1.522 1.936-.768 1.512-.767 3.896-1.535 2.758-.767 7.197-3.07 7.554-3.069 1.725-.767 5.874-2.302 7.212-3.837 1.77-.767 1.414-.767 3.614-1.535 1.332-.768 2.044-.767 4.432-2.29 1.192-.767 1.547-.768 3.358-2.302 4.66-2.302 1.18-.767 16.5-9.208 2.428-1.535 3.66-3.07 1.63-1.534 4.198-2.47 1.415-.935 1.934-.767 3.824-2.326 1.988-1.547h0" fill="none" stroke="#bcbd22" stroke-linecap="square" stroke-width="1.5" id="line2d_34"/><path clip-path="url(#p168ee67d70)" d="M292.08 313.361l1.785-.899 1.626-.911 2.047-.9 1.216-.91 1.723-.9 1.605-.911.782-1.81.828-3.621 1.793-1.81 1.746-1.823.914-1.81 1.866-1.811 1.765-1.81 1.097-1.811 1.592-1.81 1.47-1.81 1.68-1.811 1.576-1.823 1.726-1.81 1.513-1.81 1.597-3.622 1.892-3.62 1.629-1.81 1.729-1.823 1.468-1.81 1.78-1.811 1.324-1.81 1.645-1.823 1.148-1.81 1.26-1.811 1.428-1.81 1.287-1.823 1.714-1.81 1.372-1.81 1.323-1.811 1.483-1.81 1.473-1.811 1.636-1.81 1.743-1.811 1.593-1.823 1.521-1.81 1.764-1.81 1.602-1.81 1.565-1.811 1.53-1.81 1.623-1.811 1.232-1.81 1.5-1.823 1.637-1.81 1.803-1.811 1.937-1.81 2.07-1.81 1.724-1.811 1.133-.9 1.323-.91 2.096-1.811 2.2-1.823 2.266-1.81 1.342-.9 1.355-.91 1.193-.9 1.158-.911 1.11-.911 1.488-.911 1.93-1.81 1.818-1.811 2.202-1.81 1.155-.912 1.264-.911 1.893-.804 1.047-.803 1.814-1.103 1.438-1.115 1.78-.743.987-.744 1.791-1.486" fill="none" stroke="#7f7f7f" stroke-linecap="square" stroke-width="1.5" id="line2d_35"/><path clip-path="url(#p168ee67d70)" d="M90.61 313.361l1.948-4.88 4.174-.491 3.748-.492 1.39-.24 6.09-.73 5.83-.984 3.875-.48 2.486-.24 6.51-.982 9.415-1.715 3.71-.731 12.327-1.463 4.475-.492 2.448-.251 5.011-.492 6.899-.42 10.554-.371 9.8-.192 1.665-1.955 3.495-1.462 3.577-1.463 2.064-.983 1.338-.983 2.297-.984 7.112-3.908 1.146-.971 1.587-.983 2-.984 3.468-1.954 3.603-1.954 5.62-2.938 1.438-.97 7.21-3.91.914-.983 3.072-1.954 1.943-.983 6.881-4.892 2.173-1.954 4.155-2.938 9.223-5.875 1.062-.983 1.526-.971 1.311-.983 1.824-.971.97-.984 1.379-.97 1.138-.984 4.305-2.925 1.084-.984 2.608-1.954 3.045-1.954 1.884-.983 1.534-.984 2.517-1.954 1.633-.971 1.295-.983 8.14-4.892 1.445-.983 1.159-.971 3.57-1.955 7.753-3.92 6.07-2.938 1.41-.971 6.287-2.937 2.21-.972 3.897-1.954 1.51-.492 2.252-.97 13.104-4.905 4.471-1.462 2.752-.983 1.587-.972 2.558-.983.984-.491 16.683-5.132 1.272-.252 6.636-1.954 5.371-1.475 4.978-1.283 1.998-.287 1.165-.288 2.232-.204 2.34-.635h0" fill="none" stroke="#e377c2" stroke-linecap="square" stroke-width="1.5" id="line2d_36"/><path clip-path="url(#p168ee67d70)" d="M222.949 313.361l.677-2.314 2.14-1.15 3.964-2.315.887-1.163 1.094-1.15 1.495-1.164 2.496-2.314.97-.575 1.38-.576 3.948-2.314 4.492-3.477 1.049-1.15 1.358-1.164 2.263-2.314 1.564-1.15 5.196-4.629 1.874-1.163 2.799-2.314 3.243-6.954 3.175-2.314 1.136-1.15 1.854-1.164 1.608-1.151 1.247-1.163 3.212-2.314 1.159-1.151 1.391-1.163 1.037-1.151 3.016-2.326 1.917-1.163 1.42-1.151.89-1.163 4.027-3.465 1.685-1.163 1.39-1.151 1.618-1.163 1.301-1.151 3.504-2.314 3.509-2.314 2.305-2.326 1.68-1.163 1.93-1.151 1.294-1.163 1.868-1.151 4.239-3.477 1.71-1.151 1.357-1.163 1.581-1.151 1.173-1.163 7.447-5.78.891-1.162 3.407-3.465 4.208-3.477 1.884-1.151 1.215-1.163 1.552-1.151 1.282-1.163 1.08-1.151 1.518-1.163 1.15-1.151 3.064-2.326 3.85-3.477 1.364-1.151 3.087-2.314.891-1.163 5.669-5.78 4.29-3.477 1.289-1.163 1.539-1.163 5.266-3.465 1.83-1.163 8.722-6.942 1.123-1.15 1.371-1.164 1.152-1.15 2.633-2.327 1.651-1.163 1.991-.827 1.012-.827 1.952-.887 1.27-.888 1.836-.695 1.037-.696 1.644-1.39h0" fill="none" stroke="#8c564b" stroke-linecap="square" stroke-width="1.5" id="line2d_37"/><path clip-path="url(#p168ee67d70)" d="M97.516 313.361l.495-12.11 4.505-1.21 2.928-.6 6.182-1.822 4.013-1.211 3.828-.6 2.541-.611 1.82-.3 6.468-1.81 3.054-.612 1.338-.3 2.039-.61 1.5-.3.819-.3 4.584-.912 15.875-2.422 2.443-.143 3.613-.456 3.717-.312 17.902-.6 4.196-.143 5.36-2.89 3.479-1.81 1.98-.612 2.326-1.21 1.539-.6.913-.612 4.055-1.81 6.405-3.033 1.906-1.211 1.385-1.211 3.842-1.81 2.294-1.212 1.315-.611 4.44-2.422 3.46-1.81 1.515-.612 1.8-1.211 2.102-1.211 1.38-.6.973-.61 2.454-1.212 6.088-3.633 6.552-3.633 6.433-3.633 1.564-1.21 3.797-2.422 1.351-.6 4.925-3.033 7.721-4.856 2.416-1.211 2.15-1.211 1.807-1.211 2.225-1.211 3.856-2.422 1.057-.6 1.46-.61 2.293-1.212 3.694-2.422 4.084-2.422 5.448-3.021 1.322-.612 2.28-1.21 1.862-1.212 2.447-1.21 1.88-1.211 10.67-6.055 1.822-1.211 2.417-1.211 1.735-1.211 2.233-1.211 3.662-2.422 6.504-3.633 1.815-1.21 11.043-8.478 1.925-1.21 2.143-1.212 8.783-7.265 1.817-1.211 1.57-1.211 1.964-1.211 1.695-1.211 4.053-3.633 1.324-1.211 5.82-6.055 4.493-3.62 3.217-2.267 1.805-.707 2.71-2.134h0" fill="none" stroke="#9467bd" stroke-linecap="square" stroke-width="1.5" id="line2d_38"/><path clip-path="url(#p168ee67d70)" d="M338.168 313.361l2.111-.036 1.294-.036 1.456-.072.113-.143.511-.288 1.636-.576.892-.287 1.75-.288 2.078-.576 1.688-.575 1.594-.576.662-1.163 1.727-2.302 1.981-2.314 2.132-2.302 1.083-2.314 1.936-4.628 1.778-18.488 1.68-4.616 1.33-4.616 1.374-4.616L371 257.92l1.57-4.616 1.49-4.628 1.979-4.616 1.481-4.628 1.745-4.616 1.59-4.616 1.326-4.616 1.882-4.628 1.801-4.616 1.896-4.629 1.767-4.616 1.52-4.628 1.522-4.616 1.32-4.616 1.265-4.616 1.2-4.628 1.25-4.616 1.49-4.628 1.726-4.616 1.675-4.628 1.719-4.316 1.503-4.329 1.609-2.793.92-2.806 1.997-5.61" fill="none" stroke="#d62728" stroke-linecap="square" stroke-width="1.5" id="line2d_39"/><path clip-path="url(#p168ee67d70)" d="M53.127 313.361l1.332-.635 1.109-.324 6.352-.803 2.57-.168.602-.156 3.49-.324 1.608-.167 12.036-2.266 3.398-.636 12.698-2.266 4.857-.971 3.01-.648 6.71-1.283 5.742-.803 1.435-.168 9.602-1.942 12.829-2.902 3.608-.647 6.9-.971.927-.156 1.703-.168 5.557-.803 10.332-.887 6.527-.324 13.057-.252 2.648-1.283 1.932-.647 4.427-1.943 5.518-1.93 1.12-.647 2.015-.648 6.273-2.59 3.407-1.283 2.417-1.294 5.71-2.59 1.983-.648 2.465-1.295 2.684-1.294 3.484-1.295 9.781-5.168 2.177-1.295 1.814-1.283 2.055-1.295 1.69-1.294 6.115-3.873 6.14-3.885 3.536-2.59 6.075-3.872 1.53-1.295 3.58-2.578 1.867-1.295 1.628-1.295 5.521-3.872 1.632-1.295 2.024-1.295 3.144-2.59 5.718-3.873 1.557-1.295 1.787-1.294 1.571-1.295 1.735-1.283 5.89-3.885 1.726-1.283 2.892-2.59 8.167-6.462 1.388-1.283 1.234-1.295 1.77-1.295 2.925-2.578 1.489-1.294 4.912-3.873 4.147-3.885 1.846-1.295 9.33-7.757 3.184-2.578 2.578-2.59 1.31-1.294 4.717-3.873 9.772-7.758 1.292-1.294 1.486-1.295 6.75-5.168 3.585-3.873 3.253-3.884 2.497-2.59 1.484-1.295 1.844-1.09 1.149-1.104 1.91-1.139 1.28-1.14 1.737-.826.847-.84 1.977-1.678h0" fill="none" stroke="#2ca02c" stroke-linecap="square" stroke-width="1.5" id="line2d_40"/><path clip-path="url(#p168ee67d70)" d="M202.128 313.361l2.116-10.455 1.732-2.613 1.222-2.614 2.265-2.614 1.27-1.307 1.268-1.307 1.385-1.307 1.367-1.306 1.564-1.307 1.33-1.307 1.192-1.307 1.578-1.307 1.593-1.307 1.785-1.307 1.702-1.307 1.955-1.307 1.901-1.306 1.83-1.307 1.44-1.307 1.839-1.307 1.773-1.307 1.503-1.307 1.948-1.307 1.69-1.307 1.825-1.306 1.995-1.307 1.655-1.307 1.481-1.307 1.229-1.307 1.641-1.307 1.48-1.307 1.317-1.307 1.502-1.306 1.37-1.307 1.369-1.307 1.487-1.307 1.737-1.307 1.729-1.307 1.457-1.307 1.423-1.307 1.315-1.307 1.194-1.306 1.216-1.307 1.379-1.307 1.685-1.307 1.013-1.307 1.15-1.307 1.277-1.307 1.203-1.307 1.333-1.306 1.533-1.307 1.509-1.307 1.662-1.307 1.476-1.319 1.763-1.307 1.684-1.307 1.676-1.307 1.8-1.306 1.51-1.307 1.526-1.307 1.887-1.307 1.582-1.307 1.732-1.307 1.64-1.307 1.613-1.307 1.786-1.307 1.304-1.306 1.51-1.307 1.608-1.307 1.617-1.307 1.99-1.307 1.917-1.307 1.66-1.307 2.17-1.307 1.705-1.306 2.058-1.307 1.468-1.307 2.001-1.307 2.044-1.307 1.567-1.307 1.513-1.307 1.8-1.307 1.67-1.306 2.14-1.307 1.996-1.307 1.722-1.307 1.955-1.307 1.83-1.307 1.959-1.307 1.96-1.307 2.032-1.307 2.183-1.306 1.978-1.307 2.153-1.307 1.639-1.307 2.165-1.307 1.697-1.307 1.706-1.307 1.687-1.307 1.738-1.306 1.873-1.307 1.764-1.307 1.643-1.307 1.745-1.307 2-1.307 1.944-1.307 2.031-1.307 1.846-1.306 1.828-1.307 1.935-1.307 2.214-1.307 1.892-1.307 1.699-1.307 1.618-1.307 1.485-1.307 1.31-1.307 1.465-1.306 1.825-1.32 1.657-.839 1.362-.85 1.686-1.032 1.5-1.043 1.728-.72.957-.73 1.878-1.452" fill="none" stroke="#ff7f0e" stroke-linecap="square" stroke-width="1.5" id="line2d_41"/><path clip-path="url(#p168ee67d70)" d="M168.209 313.361l.452-7.913 16.935-.695 4.985-.12.566-.072.463-1.259 1.454-2.014 1.55-1.007 2.228-2.015 1.256-1.007 2.084-2.002 1.415-1.007 1.046-1.007.85-4.029 1.952-2.014 1.653-2.014 1.577-1.008 1.08-1.007 2.735-2.014 1.39-4.017.94-2.014 4.097-4.028 3.742-4.029 1.56-2.014 1.127-1.007 1.518-1.008 4.539-4.028 1.965-2.014 3.377-3.022 1.384-1.007 1.849-2.014 1.25-2.014 2.093-2.003 3.654-4.028 5.424-6.043 2.155-4.029 5.33-6.042 3.262-4.029 6.002-8.045 4.351-6.043 1.261-2.014 5.794-8.057 1.317-2.015 9.67-12.085 1.364-2.003 9.378-12.085 1.706-2.014 2.471-4.029 1.272-2.014 3.112-4.029 1.692-2.014 2.134-2.014 1.741-2.015 1.9-2.002 6.678-8.057 1.539-2.014 3.577-4.029 1.316-2.014 1.791-2.014 4.457-6.043 4.673-6.043 1.557-2.002 13.88-16.114 1.92-2.015 1.762-2.014 4.346-6.043 1.723-2.014 4.093-4.017 1.666-2.014 3.792-4.029 1.568-2.014 4.024-4.028 1.247-2.015 1.355-1.007 1.03-1.007 1.61-1.007 2.83-3.021 4.76-6.043 3.984-4.029 1.985-1.09 1.025-1.092 1.793-1.259 1.427-1.259 1.705-.923.85-.923 1.971-1.847h0" fill="none" stroke="#1f77b4" stroke-linecap="square" stroke-width="1.5" id="line2d_42"/></g></g><defs><clipPath id="p168ee67d70"><path d="M53.127 47.249h357.12v266.112H53.127z"/></clipPath></defs></svg>