<svg xmlns:xlink="http://www.w3.org/1999/xlink" width="836.297" height="450.292" viewBox="0 0 627.223 337.719" xmlns="http://www.w3.org/2000/svg"><defs><style>*{stroke-linejoin:round;stroke-linecap:butt}</style></defs><g id="figure_1"><path d="M0 337.719h627.223V0H0v337.719z" style="fill:none" id="patch_1"/><g id="axes_1"><path d="M98.073 294.192h357.12V28.08H98.073v266.112z" style="fill:none" id="patch_2"/><g id="matplotlib.axis_1"><g id="xtick_1"><g id="line2d_1"><defs><path id="mf2dac294cd" d="M0 0v3.5" style="stroke:#969696;stroke-width:.4"/></defs><use xlink:href="#mf2dac294cd" x="101.208" y="294.192" style="fill:#969696;stroke:#969696;stroke-width:.4"/></g><g style="fill:#969696" transform="matrix(.14 0 0 -.14 83.393 311.83)" id="text_1"><defs><path id="DejaVuSans-32" d="M1228 531h2203V0H469v531q359 372 979 998 621 627 780 809 303 340 423 576 121 236 121 464 0 372-261 606-261 235-680 235-297 0-627-103-329-103-704-313v638q381 153 712 231 332 78 607 78 725 0 1156-363 431-362 431-968 0-288-108-546-107-257-392-607-78-91-497-524-418-433-1181-1211z" transform="scale(.01563)"/><path id="DejaVuSans-30" d="M2034 4250q-487 0-733-480-245-479-245-1442 0-959 245-1439 246-480 733-480 491 0 736 480 246 480 246 1439 0 963-246 1442-245 480-736 480zm0 500q785 0 1199-621 414-620 414-1801 0-1178-414-1799Q2819-91 2034-91q-784 0-1198 620-414 621-414 1799 0 1181 414 1801 414 621 1198 621z" transform="scale(.01563)"/><path id="DejaVuSans-31" d="M794 531h1031v3560L703 3866v575l1116 225h631V531h1031V0H794v531z" transform="scale(.01563)"/></defs><use xlink:href="#DejaVuSans-32"/><use xlink:href="#DejaVuSans-30" x="63.623"/><use xlink:href="#DejaVuSans-31" x="127.246"/><use xlink:href="#DejaVuSans-32" x="190.869"/></g></g><g id="xtick_2"><use xlink:href="#mf2dac294cd" x="138.225" y="294.192" style="fill:#969696;stroke:#969696;stroke-width:.4" id="line2d_2"/><g style="fill:#969696" transform="matrix(.14 0 0 -.14 120.41 311.83)" id="text_2"><defs><path id="DejaVuSans-33" d="M2597 2516q453-97 707-404 255-306 255-756 0-690-475-1069Q2609-91 1734-91q-293 0-604 58T488 141v609q262-153 574-231 313-78 654-78 593 0 904 234t311 681q0 413-289 645-289 233-804 233h-544v519h569q465 0 712 186t247 536q0 359-255 551-254 193-729 193-260 0-557-57-297-56-653-174v562q360 100 674 150t592 50q719 0 1137-327 419-326 419-882 0-388-222-655t-631-370z" transform="scale(.01563)"/></defs><use xlink:href="#DejaVuSans-32"/><use xlink:href="#DejaVuSans-30" x="63.623"/><use xlink:href="#DejaVuSans-31" x="127.246"/><use xlink:href="#DejaVuSans-33" x="190.869"/></g></g><g id="xtick_3"><use xlink:href="#mf2dac294cd" x="175.141" y="294.192" style="fill:#969696;stroke:#969696;stroke-width:.4" id="line2d_3"/><g style="fill:#969696" transform="matrix(.14 0 0 -.14 157.326 311.83)" id="text_3"><defs><path id="DejaVuSans-34" d="M2419 4116 825 1625h1594v2491zm-166 550h794V1625h666v-525h-666V0h-628v1100H313v609l1940 2957z" transform="scale(.01563)"/></defs><use xlink:href="#DejaVuSans-32"/><use xlink:href="#DejaVuSans-30" x="63.623"/><use xlink:href="#DejaVuSans-31" x="127.246"/><use xlink:href="#DejaVuSans-34" x="190.869"/></g></g><g id="xtick_4"><use xlink:href="#mf2dac294cd" x="212.056" y="294.192" style="fill:#969696;stroke:#969696;stroke-width:.4" id="line2d_4"/><g style="fill:#969696" transform="matrix(.14 0 0 -.14 194.241 311.83)" id="text_4"><defs><path id="DejaVuSans-35" d="M691 4666h2478v-532H1269V2991q137 47 274 70 138 23 276 23 781 0 1237-428 457-428 457-1159 0-753-469-1171Q2575-91 1722-91q-294 0-599 50Q819 9 494 109v635q281-153 581-228t634-75q541 0 856 284 316 284 316 772 0 487-316 771-315 285-856 285-253 0-505-56-251-56-513-175v2344z" transform="scale(.01563)"/></defs><use xlink:href="#DejaVuSans-32"/><use xlink:href="#DejaVuSans-30" x="63.623"/><use xlink:href="#DejaVuSans-31" x="127.246"/><use xlink:href="#DejaVuSans-35" x="190.869"/></g></g><g id="xtick_5"><use xlink:href="#mf2dac294cd" x="248.972" y="294.192" style="fill:#969696;stroke:#969696;stroke-width:.4" id="line2d_5"/><g style="fill:#969696" transform="matrix(.14 0 0 -.14 231.157 311.83)" id="text_5"><defs><path id="DejaVuSans-36" d="M2113 2584q-425 0-674-291-248-290-248-796 0-503 248-796 249-292 674-292t673 292q248 293 248 796 0 506-248 796-248 291-673 291zm1253 1979v-575q-238 112-480 171-242 60-480 60-625 0-955-422-329-422-376-1275 184 272 462 417 279 145 613 145 703 0 1111-427 408-426 408-1160 0-719-425-1154Q2819-91 2113-91q-810 0-1238 620-428 621-428 1799 0 1106 525 1764t1409 658q238 0 480-47t505-140z" transform="scale(.01563)"/></defs><use xlink:href="#DejaVuSans-32"/><use xlink:href="#DejaVuSans-30" x="63.623"/><use xlink:href="#DejaVuSans-31" x="127.246"/><use xlink:href="#DejaVuSans-36" x="190.869"/></g></g><g id="xtick_6"><use xlink:href="#mf2dac294cd" x="285.988" y="294.192" style="fill:#969696;stroke:#969696;stroke-width:.4" id="line2d_6"/><g style="fill:#969696" transform="matrix(.14 0 0 -.14 268.173 311.83)" id="text_6"><defs><path id="DejaVuSans-37" d="M525 4666h3000v-269L1831 0h-659l1594 4134H525v532z" transform="scale(.01563)"/></defs><use xlink:href="#DejaVuSans-32"/><use xlink:href="#DejaVuSans-30" x="63.623"/><use xlink:href="#DejaVuSans-31" x="127.246"/><use xlink:href="#DejaVuSans-37" x="190.869"/></g></g><g id="xtick_7"><use xlink:href="#mf2dac294cd" x="322.904" y="294.192" style="fill:#969696;stroke:#969696;stroke-width:.4" id="line2d_7"/><g style="fill:#969696" transform="matrix(.14 0 0 -.14 305.089 311.83)" id="text_7"><defs><path id="DejaVuSans-38" d="M2034 2216q-450 0-708-241-257-241-257-662 0-422 257-663 258-241 708-241t709 242q260 243 260 662 0 421-258 662-257 241-711 241zm-631 268q-406 100-633 378-226 279-226 679 0 559 398 884 399 325 1092 325 697 0 1094-325t397-884q0-400-227-679-226-278-629-378 456-106 710-416 255-309 255-755 0-679-414-1042Q2806-91 2034-91q-771 0-1186 362-414 363-414 1042 0 446 256 755 257 310 713 416zm-231 997q0-362 226-565 227-203 636-203 407 0 636 203 230 203 230 565 0 363-230 566-229 203-636 203-409 0-636-203-226-203-226-566z" transform="scale(.01563)"/></defs><use xlink:href="#DejaVuSans-32"/><use xlink:href="#DejaVuSans-30" x="63.623"/><use xlink:href="#DejaVuSans-31" x="127.246"/><use xlink:href="#DejaVuSans-38" x="190.869"/></g></g><g id="xtick_8"><use xlink:href="#mf2dac294cd" x="359.82" y="294.192" style="fill:#969696;stroke:#969696;stroke-width:.4" id="line2d_8"/><g style="fill:#969696" transform="matrix(.14 0 0 -.14 342.005 311.83)" id="text_8"><defs><path id="DejaVuSans-39" d="M703 97v575q238-113 481-172 244-59 479-59 625 0 954 420 330 420 377 1277-181-269-460-413-278-144-615-144-700 0-1108 423-408 424-408 1159 0 718 425 1152 425 435 1131 435 810 0 1236-621 427-620 427-1801 0-1103-524-1761Q2575-91 1691-91q-238 0-482 47Q966 3 703 97zm1256 1978q425 0 673 290 249 291 249 798 0 503-249 795-248 292-673 292t-673-292q-248-292-248-795 0-507 248-798 248-290 673-290z" transform="scale(.01563)"/></defs><use xlink:href="#DejaVuSans-32"/><use xlink:href="#DejaVuSans-30" x="63.623"/><use xlink:href="#DejaVuSans-31" x="127.246"/><use xlink:href="#DejaVuSans-39" x="190.869"/></g></g><g id="xtick_9"><use xlink:href="#mf2dac294cd" x="396.735" y="294.192" style="fill:#969696;stroke:#969696;stroke-width:.4" id="line2d_9"/><g style="fill:#969696" transform="matrix(.14 0 0 -.14 378.92 311.83)" id="text_9"><use xlink:href="#DejaVuSans-32"/><use xlink:href="#DejaVuSans-30" x="63.623"/><use xlink:href="#DejaVuSans-32" x="127.246"/><use xlink:href="#DejaVuSans-30" x="190.869"/></g></g><g id="xtick_10"><use xlink:href="#mf2dac294cd" x="433.752" y="294.192" style="fill:#969696;stroke:#969696;stroke-width:.4" id="line2d_10"/><g style="fill:#969696" transform="matrix(.14 0 0 -.14 415.937 311.83)" id="text_10"><use xlink:href="#DejaVuSans-32"/><use xlink:href="#DejaVuSans-30" x="63.623"/><use xlink:href="#DejaVuSans-32" x="127.246"/><use xlink:href="#DejaVuSans-31" x="190.869"/></g></g></g><g id="matplotlib.axis_2"><g id="ytick_1"><path d="M98.073 294.192h357.12" clip-path="url(#pd983547aa6)" style="fill:none;stroke:#969696;stroke-width:.3;stroke-linecap:square" id="line2d_11"/><g id="line2d_12"><defs><path id="m1ee820b9fc" d="M0 0h-3.5" style="stroke:#969696;stroke-width:.3"/></defs><use xlink:href="#m1ee820b9fc" x="98.073" y="294.192" style="fill:#969696;stroke:#969696;stroke-width:.3"/></g><use xlink:href="#DejaVuSans-30" style="fill:#969696" transform="matrix(.14 0 0 -.14 82.166 299.51)" id="text_11"/></g><g id="ytick_2"><path d="M98.073 258.93h357.12" clip-path="url(#pd983547aa6)" style="fill:none;stroke:#969696;stroke-width:.3;stroke-linecap:square" id="line2d_13"/><use xlink:href="#m1ee820b9fc" x="98.073" y="258.93" style="fill:#969696;stroke:#969696;stroke-width:.3" id="line2d_14"/><g style="fill:#969696" transform="matrix(.14 0 0 -.14 55.443 264.249)" id="text_12"><use xlink:href="#DejaVuSans-32"/><use xlink:href="#DejaVuSans-35" x="63.623"/><use xlink:href="#DejaVuSans-30" x="127.246"/><use xlink:href="#DejaVuSans-30" x="190.869"/></g></g><g id="ytick_3"><path d="M98.073 223.668h357.12" clip-path="url(#pd983547aa6)" style="fill:none;stroke:#969696;stroke-width:.3;stroke-linecap:square" id="line2d_15"/><use xlink:href="#m1ee820b9fc" x="98.073" y="223.668" style="fill:#969696;stroke:#969696;stroke-width:.3" id="line2d_16"/><g style="fill:#969696" transform="matrix(.14 0 0 -.14 55.443 228.987)" id="text_13"><use xlink:href="#DejaVuSans-35"/><use xlink:href="#DejaVuSans-30" x="63.623"/><use xlink:href="#DejaVuSans-30" x="127.246"/><use xlink:href="#DejaVuSans-30" x="190.869"/></g></g><g id="ytick_4"><path d="M98.073 188.407h357.12" clip-path="url(#pd983547aa6)" style="fill:none;stroke:#969696;stroke-width:.3;stroke-linecap:square" id="line2d_17"/><use xlink:href="#m1ee820b9fc" x="98.073" y="188.407" style="fill:#969696;stroke:#969696;stroke-width:.3" id="line2d_18"/><g style="fill:#969696" transform="matrix(.14 0 0 -.14 55.443 193.726)" id="text_14"><use xlink:href="#DejaVuSans-37"/><use xlink:href="#DejaVuSans-35" x="63.623"/><use xlink:href="#DejaVuSans-30" x="127.246"/><use xlink:href="#DejaVuSans-30" x="190.869"/></g></g><g id="ytick_5"><path d="M98.073 153.145h357.12" clip-path="url(#pd983547aa6)" style="fill:none;stroke:#969696;stroke-width:.3;stroke-linecap:square" id="line2d_19"/><use xlink:href="#m1ee820b9fc" x="98.073" y="153.145" style="fill:#969696;stroke:#969696;stroke-width:.3" id="line2d_20"/><g style="fill:#969696" transform="matrix(.14 0 0 -.14 46.536 158.464)" id="text_15"><use xlink:href="#DejaVuSans-31"/><use xlink:href="#DejaVuSans-30" x="63.623"/><use xlink:href="#DejaVuSans-30" x="127.246"/><use xlink:href="#DejaVuSans-30" x="190.869"/><use xlink:href="#DejaVuSans-30" x="254.492"/></g></g><g id="ytick_6"><path d="M98.073 117.884h357.12" clip-path="url(#pd983547aa6)" style="fill:none;stroke:#969696;stroke-width:.3;stroke-linecap:square" id="line2d_21"/><use xlink:href="#m1ee820b9fc" x="98.073" y="117.884" style="fill:#969696;stroke:#969696;stroke-width:.3" id="line2d_22"/><g style="fill:#969696" transform="matrix(.14 0 0 -.14 46.536 123.203)" id="text_16"><use xlink:href="#DejaVuSans-31"/><use xlink:href="#DejaVuSans-32" x="63.623"/><use xlink:href="#DejaVuSans-35" x="127.246"/><use xlink:href="#DejaVuSans-30" x="190.869"/><use xlink:href="#DejaVuSans-30" x="254.492"/></g></g><g id="ytick_7"><path d="M98.073 82.622h357.12" clip-path="url(#pd983547aa6)" style="fill:none;stroke:#969696;stroke-width:.3;stroke-linecap:square" id="line2d_23"/><use xlink:href="#m1ee820b9fc" x="98.073" y="82.622" style="fill:#969696;stroke:#969696;stroke-width:.3" id="line2d_24"/><g style="fill:#969696" transform="matrix(.14 0 0 -.14 46.536 87.941)" id="text_17"><use xlink:href="#DejaVuSans-31"/><use xlink:href="#DejaVuSans-35" x="63.623"/><use xlink:href="#DejaVuSans-30" x="127.246"/><use xlink:href="#DejaVuSans-30" x="190.869"/><use xlink:href="#DejaVuSans-30" x="254.492"/></g></g><g id="ytick_8"><path d="M98.073 47.36h357.12" clip-path="url(#pd983547aa6)" style="fill:none;stroke:#969696;stroke-width:.3;stroke-linecap:square" id="line2d_25"/><use xlink:href="#m1ee820b9fc" x="98.073" y="47.361" style="fill:#969696;stroke:#969696;stroke-width:.3" id="line2d_26"/><g style="fill:#969696" transform="matrix(.14 0 0 -.14 46.536 52.68)" id="text_18"><use xlink:href="#DejaVuSans-31"/><use xlink:href="#DejaVuSans-37" x="63.623"/><use xlink:href="#DejaVuSans-35" x="127.246"/><use xlink:href="#DejaVuSans-30" x="190.869"/><use xlink:href="#DejaVuSans-30" x="254.492"/></g></g><g style="fill:#969696" transform="matrix(.14 0 0 -.14 7.2 17.838)" id="text_19"><defs><path id="DejaVuSans-47" d="M3809 666v1253H2778v519h1656V434q-365-259-806-392-440-133-940-133-1094 0-1712 639-617 640-617 1780 0 1144 617 1783 618 639 1712 639 456 0 867-113 411-112 758-331v-672q-350 297-744 447t-828 150q-857 0-1287-478-429-478-429-1425 0-944 429-1422 430-478 1287-478 334 0 596 58 263 58 472 180z" transform="scale(.01563)"/><path id="DejaVuSans-69" d="M603 3500h575V0H603v3500zm0 1363h575v-729H603v729z" transform="scale(.01563)"/><path id="DejaVuSans-74" d="M1172 4494v-994h1184v-447H1172V1153q0-428 117-550t477-122h590V0h-590q-666 0-919 248-253 249-253 905v1900H172v447h422v994h578z" transform="scale(.01563)"/><path id="DejaVuSans-48" d="M628 4666h631V2753h2294v1913h631V0h-631v2222H1259V0H628v4666z" transform="scale(.01563)"/><path id="DejaVuSans-75" d="M544 1381v2119h575V1403q0-497 193-746 194-248 582-248 465 0 735 297 271 297 271 810v1984h575V0h-575v538q-209-319-486-474-276-155-642-155-603 0-916 375-312 375-312 1097zm1447 2203z" transform="scale(.01563)"/><path id="DejaVuSans-62" d="M3116 1747q0 634-261 995t-717 361q-457 0-718-361t-261-995q0-634 261-995t718-361q456 0 717 361t261 995zM1159 2969q182 312 458 463 277 152 661 152 638 0 1036-506 399-506 399-1331T3314 415Q2916-91 2278-91q-384 0-661 152-276 152-458 464V0H581v4863h578V2969z" transform="scale(.01563)"/><path id="DejaVuSans-73" d="M2834 3397v-544q-243 125-506 187-262 63-544 63-428 0-642-131t-214-394q0-200 153-314t616-217l197-44q612-131 870-370t258-667q0-488-386-773Q2250-91 1575-91q-281 0-586 55T347 128v594q319-166 628-249 309-82 613-82 406 0 624 139 219 139 219 392 0 234-158 359-157 125-692 241l-200 47q-534 112-772 345-237 233-237 639 0 494 350 762 350 269 994 269 318 0 599-47 282-46 519-140z" transform="scale(.01563)"/><path id="DejaVuSans-61" d="M2194 1759q-697 0-966-159t-269-544q0-306 202-486 202-179 548-179 479 0 768 339t289 901v128h-572zm1147 238V0h-575v531q-197-318-491-470T1556-91q-537 0-855 302-317 302-317 808 0 590 395 890 396 300 1180 300h807v57q0 397-261 614t-733 217q-300 0-585-72-284-72-546-216v532q315 122 612 182 297 61 578 61 760 0 1135-394 375-393 375-1193z" transform="scale(.01563)"/><path id="DejaVuSans-72" d="M2631 2963q-97 56-211 82-114 27-251 27-488 0-749-317t-261-911V0H581v3500h578v-544q182 319 472 473 291 155 707 155 59 0 131-8 72-7 159-23l3-590z" transform="scale(.01563)"/></defs><use xlink:href="#DejaVuSans-47"/><use xlink:href="#DejaVuSans-69" x="77.49"/><use xlink:href="#DejaVuSans-74" x="105.273"/><use xlink:href="#DejaVuSans-48" x="144.482"/><use xlink:href="#DejaVuSans-75" x="219.678"/><use xlink:href="#DejaVuSans-62" x="283.057"/><use xlink:href="#DejaVuSans-20" x="346.533"/><use xlink:href="#DejaVuSans-73" x="378.32"/><use xlink:href="#DejaVuSans-74" x="430.42"/><use xlink:href="#DejaVuSans-61" x="469.629"/><use xlink:href="#DejaVuSans-72" x="530.908"/><use xlink:href="#DejaVuSans-73" x="572.021"/></g></g><path d="m399.87 294.192 2.933-.071 3.136-1.001 3.034-.452 3.135-.747 3.034-.508 3.136-.86 3.135-.819 3.034-.86 3.135-.917 3.034-.902 3.136-.847 3.135-.804 2.832-.804 3.135-1.03 3.034-.592 3.136-.663 3.034-.775 3.135-.691" clip-path="url(#pd983547aa6)" style="fill:none;stroke:#17becf;stroke-width:1.5;stroke-linecap:square" id="line2d_27"/><path d="m390.566 294.192 3.034-.015 3.135-.042 3.135-.127 2.933-1.678 3.136-1.75 3.034-.606 3.135-.804 3.034-.592 3.136-1.382 3.135-1.792 3.034-3.68 3.135-1.849 3.034-1.847 3.136-2.13 3.135-1.72 2.832-2.187 3.135-2.116 3.034-2.03 3.136-2.3 3.034-4.626 3.135-2.61" clip-path="url(#pd983547aa6)" style="fill:none;stroke:#bcbd22;stroke-width:1.5;stroke-linecap:square" id="line2d_28"/><path d="m418.278 294.192 3.135-2.878 3.034-18.604 3.135-1.72 3.034-1.82 3.136-1.82 3.135-1.82 2.832-1.17 3.135-1.65 3.034-1.128 3.136-1.312 3.034-1.693 3.135-1.043" clip-path="url(#pd983547aa6)" style="fill:none;stroke:#7f7f7f;stroke-width:1.5;stroke-linecap:square" id="line2d_29"/><g style="fill:#1f77b4" transform="matrix(.14 0 0 -.14 465.907 31.943)" id="text_20"><defs><path id="DejaVuSans-6e" d="M3513 2113V0h-575v2094q0 497-194 743-194 247-581 247-466 0-735-297-269-296-269-809V0H581v3500h578v-544q207 316 486 472 280 156 646 156 603 0 912-373 310-373 310-1098z" transform="scale(.01563)"/><path id="DejaVuSans-63" d="M3122 3366v-538q-244 135-489 202t-495 67q-560 0-870-355-309-354-309-995t309-996q310-354 870-354 250 0 495 67t489 202V134Q2881 22 2623-34q-257-57-548-57-791 0-1257 497-465 497-465 1341 0 856 470 1346 471 491 1290 491 265 0 518-55 253-54 491-163z" transform="scale(.01563)"/><path id="DejaVuSans-6f" d="M1959 3097q-462 0-731-361t-269-989q0-628 267-989 268-361 733-361 460 0 728 362 269 363 269 988 0 622-269 986-268 364-728 364zm0 487q750 0 1178-488 429-487 429-1349 0-859-429-1349Q2709-91 1959-91q-753 0-1180 489-426 490-426 1349 0 862 426 1349 427 488 1180 488z" transform="scale(.01563)"/><path id="DejaVuSans-6c" d="M603 4863h575V0H603v4863z" transform="scale(.01563)"/><path id="DejaVuSans-67" d="M2906 1791q0 625-258 968-257 344-723 344-462 0-720-344-258-343-258-968 0-622 258-966t720-344q466 0 723 344 258 344 258 966zm575-1357q0-893-397-1329-396-436-1215-436-303 0-572 45t-522 139v559q253-137 500-202 247-66 503-66 566 0 847 295t281 892v285q-178-310-456-463T1784 0Q1141 0 747 490 353 981 353 1791q0 812 394 1302 394 491 1037 491 388 0 666-153t456-462v531h575V434z" transform="scale(.01563)"/><path id="DejaVuSans-2f" d="M1625 4666h531L531-594H0l1625 5260z" transform="scale(.01563)"/><path id="DejaVuSans-65" d="M3597 1894v-281H953q38-594 358-905t892-311q331 0 642 81t618 244V178Q3153 47 2828-22t-659-69q-838 0-1327 487-489 488-489 1320 0 859 464 1363 464 505 1252 505 706 0 1117-455 411-454 411-1235zm-575 169q-6 471-264 752-258 282-683 282-481 0-770-272t-333-766l2050 4z" transform="scale(.01563)"/></defs><use xlink:href="#DejaVuSans-6e"/><use xlink:href="#DejaVuSans-69" x="63.379"/><use xlink:href="#DejaVuSans-63" x="91.162"/><use xlink:href="#DejaVuSans-6f" x="146.143"/><use xlink:href="#DejaVuSans-6c" x="207.324"/><use xlink:href="#DejaVuSans-61" x="235.107"/><use xlink:href="#DejaVuSans-72" x="296.387"/><use xlink:href="#DejaVuSans-67" x="335.75"/><use xlink:href="#DejaVuSans-6f" x="399.227"/><use xlink:href="#DejaVuSans-2f" x="460.408"/><use xlink:href="#DejaVuSans-67" x="494.1"/><use xlink:href="#DejaVuSans-6c" x="557.576"/><use xlink:href="#DejaVuSans-61" x="585.359"/><use xlink:href="#DejaVuSans-6e" x="646.639"/><use xlink:href="#DejaVuSans-63" x="710.018"/><use xlink:href="#DejaVuSans-65" x="764.998"/><use xlink:href="#DejaVuSans-73" x="826.521"/></g><g style="fill:#ff7f0e" transform="matrix(.14 0 0 -.14 465.907 165.243)" id="text_21"><defs><path id="DejaVuSans-68" d="M3513 2113V0h-575v2094q0 497-194 743-194 247-581 247-466 0-735-297-269-296-269-809V0H581v4863h578V2956q207 316 486 472 280 156 646 156 603 0 912-373 310-373 310-1098z" transform="scale(.01563)"/><path id="DejaVuSans-70" d="M1159 525v-1856H581v4831h578v-531q182 312 458 463 277 152 661 152 638 0 1036-506 399-506 399-1331T3314 415Q2916-91 2278-91q-384 0-661 152-276 152-458 464zm1957 1222q0 634-261 995t-717 361q-457 0-718-361t-261-995q0-634 261-995t718-361q456 0 717 361t261 995z" transform="scale(.01563)"/></defs><use xlink:href="#DejaVuSans-61"/><use xlink:href="#DejaVuSans-72" x="61.279"/><use xlink:href="#DejaVuSans-69" x="102.393"/><use xlink:href="#DejaVuSans-73" x="130.176"/><use xlink:href="#DejaVuSans-74" x="182.275"/><use xlink:href="#DejaVuSans-6f" x="221.484"/><use xlink:href="#DejaVuSans-63" x="282.666"/><use xlink:href="#DejaVuSans-72" x="337.646"/><use xlink:href="#DejaVuSans-61" x="378.76"/><use xlink:href="#DejaVuSans-74" x="440.039"/><use xlink:href="#DejaVuSans-6f" x="479.248"/><use xlink:href="#DejaVuSans-73" x="540.43"/><use xlink:href="#DejaVuSans-2f" x="592.529"/><use xlink:href="#DejaVuSans-62" x="626.221"/><use xlink:href="#DejaVuSans-61" x="689.697"/><use xlink:href="#DejaVuSans-73" x="750.977"/><use xlink:href="#DejaVuSans-68" x="803.076"/><use xlink:href="#DejaVuSans-74" x="866.455"/><use xlink:href="#DejaVuSans-6f" x="905.664"/><use xlink:href="#DejaVuSans-70" x="966.846"/></g><g style="fill:#2ca02c" transform="matrix(.14 0 0 -.14 465.907 179.243)" id="text_22"><defs><path id="DejaVuSans-6b" d="M581 4863h578V1991l1716 1509h734L1753 1863 3688 0h-750L1159 1709V0H581v4863z" transform="scale(.01563)"/></defs><use xlink:href="#DejaVuSans-61"/><use xlink:href="#DejaVuSans-6b" x="61.279"/><use xlink:href="#DejaVuSans-73" x="119.189"/><use xlink:href="#DejaVuSans-61" x="171.289"/><use xlink:href="#DejaVuSans-6b" x="232.568"/><use xlink:href="#DejaVuSans-61" x="288.729"/><use xlink:href="#DejaVuSans-6c" x="350.008"/><use xlink:href="#DejaVuSans-6c" x="377.791"/><use xlink:href="#DejaVuSans-69" x="405.574"/><use xlink:href="#DejaVuSans-2f" x="433.357"/><use xlink:href="#DejaVuSans-67" x="467.049"/><use xlink:href="#DejaVuSans-74" x="530.525"/><use xlink:href="#DejaVuSans-6f" x="569.734"/><use xlink:href="#DejaVuSans-70" x="630.916"/></g><g style="fill:#d62728" transform="matrix(.14 0 0 -.14 465.907 193.243)" id="text_23"><defs><path id="DejaVuSans-6a" d="M603 3500h575V-63q0-668-255-968-254-300-820-300h-219v487H38q328 0 446 152Q603-541 603-63v3563zm0 1363h575v-729H603v729z" transform="scale(.01563)"/></defs><use xlink:href="#DejaVuSans-63"/><use xlink:href="#DejaVuSans-6a" x="54.98"/><use xlink:href="#DejaVuSans-62" x="82.764"/><use xlink:href="#DejaVuSans-61" x="146.24"/><use xlink:href="#DejaVuSans-73" x="207.52"/><use xlink:href="#DejaVuSans-73" x="259.619"/><use xlink:href="#DejaVuSans-69" x="311.719"/><use xlink:href="#DejaVuSans-2f" x="339.502"/><use xlink:href="#DejaVuSans-67" x="373.193"/><use xlink:href="#DejaVuSans-6f" x="436.67"/><use xlink:href="#DejaVuSans-74" x="497.852"/><use xlink:href="#DejaVuSans-6f" x="537.061"/><use xlink:href="#DejaVuSans-70" x="598.242"/></g><g style="fill:#9467bd" transform="matrix(.14 0 0 -.14 465.907 207.243)" id="text_24"><defs><path id="DejaVuSans-79" d="M2059-325q-243-625-475-815-231-191-618-191H506v481h338q237 0 368 113 132 112 291 531l103 262L191 3500h609L1894 763l1094 2737h609L2059-325z" transform="scale(.01563)"/></defs><use xlink:href="#DejaVuSans-61"/><use xlink:href="#DejaVuSans-72" x="61.279"/><use xlink:href="#DejaVuSans-69" x="102.393"/><use xlink:href="#DejaVuSans-73" x="130.176"/><use xlink:href="#DejaVuSans-74" x="182.275"/><use xlink:href="#DejaVuSans-6f" x="221.484"/><use xlink:href="#DejaVuSans-63" x="282.666"/><use xlink:href="#DejaVuSans-72" x="337.646"/><use xlink:href="#DejaVuSans-61" x="378.76"/><use xlink:href="#DejaVuSans-74" x="440.039"/><use xlink:href="#DejaVuSans-6f" x="479.248"/><use xlink:href="#DejaVuSans-73" x="540.43"/><use xlink:href="#DejaVuSans-2f" x="592.529"/><use xlink:href="#DejaVuSans-62" x="626.221"/><use xlink:href="#DejaVuSans-70" x="689.697"/><use xlink:href="#DejaVuSans-79" x="753.174"/><use xlink:href="#DejaVuSans-74" x="812.354"/><use xlink:href="#DejaVuSans-6f" x="851.563"/><use xlink:href="#DejaVuSans-70" x="912.744"/></g><g style="fill:#8c564b" transform="matrix(.14 0 0 -.14 465.907 221.243)" id="text_25"><defs><path id="DejaVuSans-6d" d="M3328 2828q216 388 516 572t706 184q547 0 844-383 297-382 297-1088V0h-578v2094q0 503-179 746-178 244-543 244-447 0-707-297-259-296-259-809V0h-578v2094q0 506-178 748t-550 242q-441 0-701-298-259-298-259-808V0H581v3500h578v-544q197 322 472 475t653 153q382 0 649-194 267-193 395-562z" transform="scale(.01563)"/></defs><use xlink:href="#DejaVuSans-68"/><use xlink:href="#DejaVuSans-69" x="63.379"/><use xlink:href="#DejaVuSans-73" x="91.162"/><use xlink:href="#DejaVuSans-68" x="143.262"/><use xlink:href="#DejaVuSans-61" x="206.641"/><use xlink:href="#DejaVuSans-6d" x="267.92"/><use xlink:href="#DejaVuSans-68" x="365.332"/><use xlink:href="#DejaVuSans-6d" x="428.711"/><use xlink:href="#DejaVuSans-2f" x="526.123"/><use xlink:href="#DejaVuSans-68" x="559.814"/><use xlink:href="#DejaVuSans-74" x="623.193"/><use xlink:href="#DejaVuSans-6f" x="662.402"/><use xlink:href="#DejaVuSans-70" x="723.584"/></g><g style="fill:#e377c2" transform="matrix(.14 0 0 -.14 465.907 241.92)" id="text_26"><defs><path id="DejaVuSans-4d" d="M628 4666h941l1190-3175 1197 3175h941V0h-616v4097L3078 897h-634L1241 4097V0H628v4666z" transform="scale(.01563)"/><path id="DejaVuSans-52" d="M2841 2188q203-69 395-294t386-619L4263 0h-679l-596 1197q-232 469-449 622t-592 153h-688V0H628v4666h1425q800 0 1194-335 394-334 394-1009 0-441-205-732-205-290-595-402zM1259 4147V2491h794q456 0 689 211t233 620q0 409-233 617t-689 208h-794z" transform="scale(.01563)"/><path id="DejaVuSans-76" d="M191 3500h609L1894 563l1094 2937h609L2284 0h-781L191 3500z" transform="scale(.01563)"/></defs><use xlink:href="#DejaVuSans-4d"/><use xlink:href="#DejaVuSans-72" x="86.279"/><use xlink:href="#DejaVuSans-52" x="127.393"/><use xlink:href="#DejaVuSans-69" x="196.875"/><use xlink:href="#DejaVuSans-6f" x="224.658"/><use xlink:href="#DejaVuSans-2f" x="285.84"/><use xlink:href="#DejaVuSans-76" x="319.531"/><use xlink:href="#DejaVuSans-74" x="378.711"/><use xlink:href="#DejaVuSans-6f" x="417.92"/><use xlink:href="#DejaVuSans-70" x="479.102"/></g><g style="fill:#7f7f7f" transform="matrix(.14 0 0 -.14 465.907 255.92)" id="text_27"><defs><path id="DejaVuSans-2d" d="M313 2009h1684v-512H313v512z" transform="scale(.01563)"/><path id="DejaVuSans-64" d="M2906 2969v1894h575V0h-575v525q-181-312-458-464-276-152-664-152-634 0-1033 506-398 507-398 1332t398 1331q399 506 1033 506 388 0 664-152 277-151 458-463zM947 1747q0-634 261-995t717-361q456 0 718 361 263 361 263 995t-263 995q-262 361-718 361t-717-361q-261-361-261-995z" transform="scale(.01563)"/></defs><use xlink:href="#DejaVuSans-68"/><use xlink:href="#DejaVuSans-74" x="63.379"/><use xlink:href="#DejaVuSans-6f" x="102.588"/><use xlink:href="#DejaVuSans-70" x="163.77"/><use xlink:href="#DejaVuSans-2d" x="227.246"/><use xlink:href="#DejaVuSans-64" x="263.33"/><use xlink:href="#DejaVuSans-65" x="326.807"/><use xlink:href="#DejaVuSans-76" x="388.33"/><use xlink:href="#DejaVuSans-2f" x="447.51"/><use xlink:href="#DejaVuSans-68" x="481.201"/><use xlink:href="#DejaVuSans-74" x="544.58"/><use xlink:href="#DejaVuSans-6f" x="583.789"/><use xlink:href="#DejaVuSans-70" x="644.971"/></g><g style="fill:#bcbd22" transform="matrix(.14 0 0 -.14 465.907 269.92)" id="text_28"><defs><path id="DejaVuSans-43" d="M4122 4306v-665q-319 297-680 443-361 147-767 147-800 0-1225-489t-425-1414q0-922 425-1411t1225-489q406 0 767 147t680 444V359q-331-225-702-338-370-112-782-112-1060 0-1670 648-609 649-609 1771 0 1125 609 1773 610 649 1670 649 418 0 788-111 371-111 696-333z" transform="scale(.01563)"/><path id="DejaVuSans-54" d="M-19 4666h3947v-532H2272V0h-634v4134H-19v532z" transform="scale(.01563)"/></defs><use xlink:href="#DejaVuSans-43"/><use xlink:href="#DejaVuSans-6c" x="69.824"/><use xlink:href="#DejaVuSans-65" x="97.607"/><use xlink:href="#DejaVuSans-6d" x="159.131"/><use xlink:href="#DejaVuSans-65" x="256.543"/><use xlink:href="#DejaVuSans-6e" x="318.066"/><use xlink:href="#DejaVuSans-74" x="381.445"/><use xlink:href="#DejaVuSans-54" x="420.654"/><use xlink:href="#DejaVuSans-73" x="465.238"/><use xlink:href="#DejaVuSans-61" x="517.338"/><use xlink:href="#DejaVuSans-6e" x="578.617"/><use xlink:href="#DejaVuSans-67" x="641.996"/><use xlink:href="#DejaVuSans-2f" x="705.473"/><use xlink:href="#DejaVuSans-62" x="739.164"/><use xlink:href="#DejaVuSans-6f" x="802.641"/><use xlink:href="#DejaVuSans-74" x="863.822"/><use xlink:href="#DejaVuSans-74" x="903.031"/><use xlink:href="#DejaVuSans-6f" x="942.24"/><use xlink:href="#DejaVuSans-6d" x="1003.422"/></g><g style="fill:#17becf" transform="matrix(.14 0 0 -.14 465.907 284.712)" id="text_29"><defs><path id="DejaVuSans-78" d="M3513 3500 2247 1797 3578 0h-678L1881 1375 863 0H184l1360 1831L300 3500h678l928-1247 928 1247h679z" transform="scale(.01563)"/></defs><use xlink:href="#DejaVuSans-78"/><use xlink:href="#DejaVuSans-78" x="59.18"/><use xlink:href="#DejaVuSans-78" x="118.359"/><use xlink:href="#DejaVuSans-73" x="177.539"/><use xlink:href="#DejaVuSans-65" x="229.639"/><use xlink:href="#DejaVuSans-72" x="291.162"/><use xlink:href="#DejaVuSans-78" x="329.65"/><use xlink:href="#DejaVuSans-78" x="388.83"/><use xlink:href="#DejaVuSans-78" x="448.01"/><use xlink:href="#DejaVuSans-2f" x="507.189"/><use xlink:href="#DejaVuSans-67" x="540.881"/><use xlink:href="#DejaVuSans-6f" x="604.357"/><use xlink:href="#DejaVuSans-74" x="665.539"/><use xlink:href="#DejaVuSans-6f" x="704.748"/><use xlink:href="#DejaVuSans-70" x="765.93"/></g><g style="fill:#969696" transform="matrix(.09716 0 0 -.09716 98.073 328.228)" id="text_30"><defs><path id="DejaVuSans-41" d="m2188 4044-857-2322h1716l-859 2322zm-357 622h716L4325 0h-656l-425 1197H1141L716 0H50l1781 4666z" transform="scale(.01563)"/><path id="DejaVuSans-50" d="M1259 4147V2394h794q441 0 681 228 241 228 241 650 0 419-241 647-240 228-681 228h-794zm-631 519h1425q785 0 1186-355 402-355 402-1039 0-691-402-1044-401-353-1186-353h-794V0H628v4666z" transform="scale(.01563)"/><path id="DejaVuSans-49" d="M628 4666h631V0H628v4666z" transform="scale(.01563)"/><path id="DejaVuSans-7c" d="M1344 4891v-6400H813v6400h531z" transform="scale(.01563)"/><path id="DejaVuSans-4e" d="M628 4666h850L3547 763v3903h612V0h-850L1241 3903V0H628v4666z" transform="scale(.01563)"/><path id="DejaVuSans-53" d="M3425 4513v-616q-359 172-678 256-319 85-616 85-515 0-795-200t-280-569q0-310 186-468 186-157 705-254l381-78q706-135 1042-474t336-907q0-679-455-1029Q2797-91 1919-91q-331 0-705 75-373 75-773 222v650q384-215 753-325 369-109 725-109 540 0 834 212 294 213 294 607 0 343-211 537t-692 291l-385 75q-706 140-1022 440-315 300-315 835 0 619 436 975t1201 356q329 0 669-60 341-59 697-177z" transform="scale(.01563)"/><path id="DejaVuSans-f6" d="M1959 3097q-462 0-731-361t-269-989q0-628 267-989 268-361 733-361 460 0 728 362 269 363 269 988 0 622-269 986-268 364-728 364zm0 487q750 0 1178-488 429-487 429-1349 0-859-429-1349Q2709-91 1959-91q-753 0-1180 489-426 490-426 1349 0 862 426 1349 427 488 1180 488zm295 1266h634v-631h-634v631zm-1222 0h634v-631h-634v631z" transform="scale(.01563)"/><path id="DejaVuSans-42" d="M1259 2228V519h1013q509 0 754 211 246 211 246 645 0 438-246 645-245 208-754 208H1259zm0 1919V2741h935q462 0 688 173 227 174 227 530 0 353-227 528-226 175-688 175h-935zm-631 519h1613q722 0 1112-300 391-300 391-853 0-429-200-682t-588-315q466-100 724-418 258-317 258-792 0-625-425-966Q3088 0 2303 0H628v4666z" transform="scale(.01563)"/><path id="DejaVuSans-59" d="M-13 4666h679l1293-1919 1285 1919h678L2272 2222V0h-634v2222L-13 4666z" transform="scale(.01563)"/></defs><use xlink:href="#DejaVuSans-47"/><use xlink:href="#DejaVuSans-69" x="77.49"/><use xlink:href="#DejaVuSans-74" x="105.273"/><use xlink:href="#DejaVuSans-48" x="144.482"/><use xlink:href="#DejaVuSans-75" x="219.678"/><use xlink:href="#DejaVuSans-62" x="283.057"/><use xlink:href="#DejaVuSans-20" x="346.533"/><use xlink:href="#DejaVuSans-41" x="378.32"/><use xlink:href="#DejaVuSans-50" x="446.729"/><use xlink:href="#DejaVuSans-49" x="507.031"/><use xlink:href="#DejaVuSans-20" x="536.523"/><use xlink:href="#DejaVuSans-76" x="568.311"/><use xlink:href="#DejaVuSans-69" x="627.49"/><use xlink:href="#DejaVuSans-61" x="655.273"/><use xlink:href="#DejaVuSans-20" x="716.553"/><use xlink:href="#DejaVuSans-73" x="748.34"/><use xlink:href="#DejaVuSans-74" x="800.439"/><use xlink:href="#DejaVuSans-61" x="839.648"/><use xlink:href="#DejaVuSans-72" x="900.928"/><use xlink:href="#DejaVuSans-67" x="940.291"/><use xlink:href="#DejaVuSans-72" x="1003.768"/><use xlink:href="#DejaVuSans-61" x="1044.881"/><use xlink:href="#DejaVuSans-70" x="1106.16"/><use xlink:href="#DejaVuSans-68" x="1169.637"/><use xlink:href="#DejaVuSans-20" x="1233.016"/><use xlink:href="#DejaVuSans-7c" x="1264.803"/><use xlink:href="#DejaVuSans-20" x="1298.494"/><use xlink:href="#DejaVuSans-4e" x="1330.281"/><use xlink:href="#DejaVuSans-69" x="1405.086"/><use xlink:href="#DejaVuSans-63" x="1432.869"/><use xlink:href="#DejaVuSans-6f" x="1487.85"/><use xlink:href="#DejaVuSans-20" x="1549.031"/><use xlink:href="#DejaVuSans-53" x="1580.818"/><use xlink:href="#DejaVuSans-63" x="1644.295"/><use xlink:href="#DejaVuSans-68" x="1699.275"/><use xlink:href="#DejaVuSans-6c" x="1762.654"/><use xlink:href="#DejaVuSans-f6" x="1790.438"/><use xlink:href="#DejaVuSans-6d" x="1851.619"/><use xlink:href="#DejaVuSans-65" x="1949.031"/><use xlink:href="#DejaVuSans-72" x="2010.555"/><use xlink:href="#DejaVuSans-20" x="2051.668"/><use xlink:href="#DejaVuSans-7c" x="2083.455"/><use xlink:href="#DejaVuSans-20" x="2117.146"/><use xlink:href="#DejaVuSans-43" x="2148.934"/><use xlink:href="#DejaVuSans-43" x="2218.758"/><use xlink:href="#DejaVuSans-20" x="2288.582"/><use xlink:href="#DejaVuSans-42" x="2320.369"/><use xlink:href="#DejaVuSans-59" x="2383.473"/></g><path d="m190.413 294.192 3.034-4.768 3.135-.677 3.135-1.805 3.034-.818 3.136-.254 3.034-.198 3.135-.366 3.135-.579 2.832-.31 3.136-.226 3.034-.324 3.135-.254 3.034-.24 3.136-.296 3.135-1.1 3.034-.31 3.135-.381 3.034-.395 3.136-.296 3.135-.917 2.933-1.538 3.135-.535 3.035-.367 3.135-.325 3.034-2.341 3.135-.367 3.136-.282 3.034-.409 3.135-2.877 3.034-.367 3.135-.423 3.136-.339 2.832-.366 3.135-.395 3.034-.437 3.135-.677 3.035-2.229 3.135-1.199 3.135-1.453 3.034-.832 3.136-.804 3.034-.465 3.135-.508 3.135-.48 2.832-.55 3.135-.507 3.035-1.072 3.135-.762 3.034-.48 3.135-.366 3.136-.607 3.034-.874 3.135-.945 3.034-.677 3.136-.86 3.135-.48 2.832-1.058 3.135-.466 3.034-.507 3.135-.297 3.035-.409 3.135-.493 3.135-.452 3.034-.296 3.136-.62 3.034-.282 3.135-.381 3.135-.282 2.933-.268 3.136-.424 3.034-.324 3.135-.296 3.034-.395 3.136-.339 3.135-.45 3.034-.58 3.135-.436 3.034-.424 3.136-.183 3.135-.212 2.832-.253 3.135-.198 3.034-.226 3.136-.211 3.034-.24 3.135-.155" clip-path="url(#pd983547aa6)" style="fill:none;stroke:#e377c2;stroke-width:1.5;stroke-linecap:square" id="line2d_30"/><path d="m175.14 294.192 3.136-.41 2.832-.31 3.135-.24 3.034-.423 3.136-.24 3.034-.338 3.135-.24 3.135-.338 3.034-.268 3.136-.296 3.034-.268 3.135-.367 3.135-.31 2.832-.297 3.136-.31 3.034-.522 3.135-.367 3.034-.324 3.136-.55 3.135-.564 3.034-.339 3.135-.55 3.034-.649 3.136-.761 3.135-.832 2.933-8.181 3.135-1.143 3.035-.705 3.135-.705 3.034-.451 3.135-.804 3.136-.748 3.034-.592 3.135-.522 3.034-.677 3.135-.847 3.136-.761 2.832-.818 3.135-1.072 3.034-.776 3.135-1.058 3.035-.69 3.135-.678 3.135-1.001 3.034-.931 3.136-1.058 3.034-.846 3.135-.818 3.135-2.2 2.832-1.298 3.135-1.03 3.035-1.199 3.135-1.255 3.034-.832 3.135-1.143 3.136-.93 3.034-1.115 3.135-1.255 3.034-1.256 3.136-1.128 3.135-1.1 2.832-.903 3.135-1.41 3.034-1.072 3.135-1.03 3.035-.762 3.135-1.057 3.135-1.002 3.034-1.058 3.136-1.015 3.034-1.072 3.135-.973 3.135-.889 2.933-1.17 3.136-1.059 3.034-1.057 3.135-1.481 3.034-1.383 3.136-1.368 3.135-1.706 3.034-1.806 3.135-.423 3.034-.465 3.136-.31 3.135-.353 2.832-.339 3.135-.31 3.034-.41 3.136-.324 3.034-.254 3.135-.253" clip-path="url(#pd983547aa6)" style="fill:none;stroke:#8c564b;stroke-width:1.5;stroke-linecap:square" id="line2d_31"/><path d="m418.278 294.192 3.135-31.158 3.034-6.304 3.135-13.09 3.034-8.448 3.136-8.801 3.135-5.29 2.832-6.022 3.135-4.993 3.034-4.147 3.136-4.062 3.034-2.567 3.135-2.483" clip-path="url(#pd983547aa6)" style="fill:none;stroke:#9467bd;stroke-width:1.5;stroke-linecap:square" id="line2d_32"/><path d="m326.04 294.192 2.831-.015 3.135-.324 3.035-14.894 3.135-2.567 3.034-.692 3.135-.719 3.136-.889 3.034-1.1 3.135-11.82 3.034-4.696 3.136-2.807 3.135-2.116 2.832-19.422 3.135-3.907 3.034-2.722 3.135-2.581 3.035-2.2 3.135-2.511 3.135-2.017 3.034-1.848 3.136-2.2 3.034-2.779 3.135-1.876 3.135-2.13 2.933-1.085 3.136-1.383 3.034-1.213 3.135-.93 3.034-.776 3.136-.931 3.135-.663 3.034-.452 3.135-.338 3.034-.607 3.136-.493 3.135-.494 2.832-.352 3.135-.254 3.034-.367 3.136-.226 3.034-.282 3.135-.282" clip-path="url(#pd983547aa6)" style="fill:none;stroke:#d62728;stroke-width:1.5;stroke-linecap:square" id="line2d_33"/><path d="m307.43 294.192 3.135-67.886 3.034-12.144 3.136-2.595 3.034-2.3 3.135-1.819 3.135-1.156 2.832-.89 3.135-.718 3.035-1.228 3.135-.874 3.034-.917 3.135-.818 3.136-.564 3.034-.846 3.135-1.298 3.034-.832 3.136-.804 3.135-.72 2.832-1.1 3.135-3.356 3.034-1.228 3.135-.775 3.035-.55 3.135-1.044 3.135-.931 3.034-1.114 3.136-.65 3.034-.606 3.135-.536 3.135-.606 2.933-.593 3.136-.465 3.034-.635 3.135-.719 3.034-.465 3.136-.635 3.135-.41 3.034-.55 3.135-.479 3.034-.48 3.136-.634 3.135-.423 2.832-.438 3.135-.535 3.034-.325 3.136-.31 3.034-1.735 3.135-1.128" clip-path="url(#pd983547aa6)" style="fill:none;stroke:#2ca02c;stroke-width:1.5;stroke-linecap:square" id="line2d_34"/><path d="m405.939 294.192 3.034-60.368 3.135-25.008 3.034-6.319 3.136-5.106 3.135-11.424 3.034-3.174 3.135-2.496 3.034-2.68 3.136-1.777 3.135-1.383 2.832-1.354 3.135-1.354 3.034-1.326 3.136-1.213 3.034-.747 3.135-.691" clip-path="url(#pd983547aa6)" style="fill:none;stroke:#ff7f0e;stroke-width:1.5;stroke-linecap:square" id="line2d_35"/><path d="m98.073 294.192 3.135-12.977 3.136-.197 2.933-.254 3.135-.113 3.034-.14 3.135-.015 3.035-.113 3.135-.113 3.135-.07 3.034-.043 3.136-.056 3.034-.014h3.135l3.135-.042 2.832-1.171 3.136-.931 3.034-.592 3.135-.818 3.034-.297 3.135-.578 3.136-.747 3.034-.48 3.135-.367 3.034-.409 3.136-1.989 3.135-2.073 2.832-.846 3.135-.917 3.034-1.284 3.136-.493 3.034-1.114 3.135-.903 3.135-.62 3.034-.89 3.136-1 3.034-.509 3.135-1.156 3.135-1.03 2.832-1.043 3.136-1.044 3.034-.917 3.135-.818 3.034-3.018 3.136-2.356 3.135-1.551 3.034-2.68 3.135-1.34 3.034-1.284 3.136-4.302 3.135-2.58 2.933-3.626 3.135-1.96 3.035-1.157 3.135-2.37 3.034-2.877 3.135-2.976 3.136-2.454 3.034-2.313 3.135-2.229 3.034-1.805 3.135-2.581 3.136-3.583 2.832-2.581 3.135-2.906 3.034-2.651 3.135-2.37 3.035-2.299 3.135-1.946 3.135-3.23 3.034-2.398 3.136-5.092 3.034-3.766 3.135-2.214 3.135-4.034 2.832-2.384 3.135-3.187 3.035-2.709 3.135-2.482 3.034-2.214 3.135-12.765 3.136-8.858 3.034-3.06 3.135-3.216 3.034-2.737 3.136-2.905 3.135-3.54 2.832-2.666 3.135-2.934 3.034-2.764 3.135-2.99 3.035-2.765 3.135-2.694 3.135-2.821 3.034-2.327 3.136-2.229 3.034-3.16 3.135-3.173 3.135-2.553 2.933-4.612 3.136-4.288 3.034-3.667 3.135-3.413 3.034-2.99 3.136-2.85 3.135-3.145 3.034-3.568 3.135-2.44 3.034-2.695 3.136-2.708 3.135-5.6 2.832-2.369 3.135-2.61 3.034-2.947 3.136-2.835 3.034-3.879 3.135-2.651" clip-path="url(#pd983547aa6)" style="fill:none;stroke:#1f77b4;stroke-width:1.5;stroke-linecap:square" id="line2d_36"/></g></g><defs><clipPath id="pd983547aa6"><path d="M98.073 28.08h357.12v266.112H98.073z"/></clipPath></defs></svg>