<svg height="468.559" viewBox="0 0 624.525 351.419" width="832.7" xmlns="http://www.w3.org/2000/svg" xmlns:xlink="http://www.w3.org/1999/xlink"><defs><style>*{stroke-linecap:butt;stroke-linejoin:round}</style></defs><g id="figure_1"><path d="M0 351.42h624.525V0H0z" style="fill:none" id="patch_1"/><g id="axes_1"><path d="M87.796 308.3h357.12V42.186H87.796z" style="fill:none" id="patch_2"/><path clip-path="url(#p41034a4f65)" d="m383.641 308.3 1.944-1.225.69-1.234 2.054-.607 1.694-.618 1.575-.303 1.216-.314 2.314-.617 1.474-.303 1.296-.304 1.741-.617 1.967-.617 1.556-.618 2.502-1.234 1.446-.617 2.033-.618 1.886-.606 2.248-.618 1.29-.303 1.55-.314 1.713-.617 1.638-.607 2.394-.617 1.985-.618 2.18-.617 1.453-.607.839-.303 1.788-.314 2.091-.617 1.22-.617 1.539-.618 1.514-.617 1.91-.617 2.347-.617 2.39-.565 1.729-.576" style="fill:none;stroke:#bcbd22;stroke-linecap:square;stroke-width:1.5" id="line2d_1"/><g id="matplotlib.axis_1"><g id="xtick_1"><g id="line2d_2"><defs><path d="M0 0v3.5" id="m854e3d2e6c" style="stroke:#969696;stroke-width:.4"/></defs><use style="fill:#969696;stroke:#969696;stroke-width:.4" x="146.926" xlink:href="#m854e3d2e6c" y="308.299"/></g><g style="fill:#969696" transform="matrix(.14 0 0 -.14 131.355 325.348)" id="text_1"><defs><path d="M281 2888q0 793 409 1202 410 410 1148 410 618 0 1012-375t394-969q0-462-227-780-226-317-667-557l-775-425q-684-375-775-863h2444V0H166q25 634 275 1056t781 728l806 469q322 185 469 383t147 545q0 344-241 578-240 235-650 235-453 0-678-299-225-298-231-807H281z" id="HelveticaWorld-Regular-32" transform="scale(.01563)"/><path d="M2719 2188q0 903-239 1354-239 452-702 452-453 0-697-452-243-451-243-1354 0-875 240-1340 241-464 700-464 463 0 702 448 239 449 239 1356zm603 0q0-1107-400-1709-400-601-1144-601-772 0-1156 623-384 624-384 1687 0 1090 393 1701 394 611 1147 611 744 0 1144-608t400-1704z" id="HelveticaWorld-Regular-30" transform="scale(.01563)"/><path d="M2297 0h-600v3194H647v447q550 18 818 176 269 158 391 683h441V0z" id="HelveticaWorld-Regular-31" transform="scale(.01563)"/></defs><use xlink:href="#HelveticaWorld-Regular-32"/><use x="55.615" xlink:href="#HelveticaWorld-Regular-30"/><use x="111.23" xlink:href="#HelveticaWorld-Regular-31"/><use x="166.846" xlink:href="#HelveticaWorld-Regular-32"/></g></g><g id="xtick_2"><use style="fill:#969696;stroke:#969696;stroke-width:.4" x="209.767" xlink:href="#m854e3d2e6c" y="308.299" id="line2d_3"/><g style="fill:#969696" transform="matrix(.14 0 0 -.14 194.196 325.348)" id="text_2"><defs><path d="M678 1581h1447v2041h-12L678 1581zm2010-487V0h-563v1094H159v550l2063 2856h466V1581h659v-487h-659z" id="HelveticaWorld-Regular-34" transform="scale(.01563)"/></defs><use xlink:href="#HelveticaWorld-Regular-32"/><use x="55.615" xlink:href="#HelveticaWorld-Regular-30"/><use x="111.23" xlink:href="#HelveticaWorld-Regular-31"/><use x="166.846" xlink:href="#HelveticaWorld-Regular-34"/></g></g><g id="xtick_3"><use style="fill:#969696;stroke:#969696;stroke-width:.4" x="272.522" xlink:href="#m854e3d2e6c" y="308.299" id="line2d_4"/><g style="fill:#969696" transform="matrix(.14 0 0 -.14 256.952 325.348)" id="text_3"><defs><path d="M903 1381q0-440 262-719 263-278 685-278 403 0 642 284 239 285 239 748 0 403-236 675t-670 272q-422 0-672-266t-250-716zm1766 1922q-63 344-255 517-192 174-520 174-519 0-791-507-272-506-278-1159l13-12q359 553 1068 553 566 0 988-375t422-1053q0-672-400-1118-400-445-1078-445-782 0-1188 556-406 557-406 1660 0 1062 415 1734 416 672 1247 672 538 0 910-321 372-320 403-876h-550z" id="HelveticaWorld-Regular-36" transform="scale(.01563)"/></defs><use xlink:href="#HelveticaWorld-Regular-32"/><use x="55.615" xlink:href="#HelveticaWorld-Regular-30"/><use x="111.23" xlink:href="#HelveticaWorld-Regular-31"/><use x="166.846" xlink:href="#HelveticaWorld-Regular-36"/></g></g><g id="xtick_4"><use style="fill:#969696;stroke:#969696;stroke-width:.4" x="335.363" xlink:href="#m854e3d2e6c" y="308.299" id="line2d_5"/><g style="fill:#969696" transform="matrix(.14 0 0 -.14 319.793 325.348)" id="text_4"><defs><path d="M1766 2597q347 0 573 198 227 199 227 527 0 294-218 483-217 189-620 189-359 0-555-199-195-198-195-504 0-328 244-511t544-183zm6-484q-434 0-681-241t-247-591q0-403 250-650t712-247q410 0 655 247t245 657q0 350-245 587-245 238-689 238zm1378 1228q0-678-578-947 397-178 567-471 170-292 170-623 0-641-413-1032-412-390-1112-390-612 0-1076 336T244 1306q0 763 762 1082-609 243-609 875 0 531 361 884t1001 353q641 0 1016-333t375-826z" id="HelveticaWorld-Regular-38" transform="scale(.01563)"/></defs><use xlink:href="#HelveticaWorld-Regular-32"/><use x="55.615" xlink:href="#HelveticaWorld-Regular-30"/><use x="111.23" xlink:href="#HelveticaWorld-Regular-31"/><use x="166.846" xlink:href="#HelveticaWorld-Regular-38"/></g></g><g id="xtick_5"><use style="fill:#969696;stroke:#969696;stroke-width:.4" x="398.119" xlink:href="#m854e3d2e6c" y="308.299" id="line2d_6"/><g style="fill:#969696" transform="matrix(.14 0 0 -.14 382.548 325.348)" id="text_5"><use xlink:href="#HelveticaWorld-Regular-32"/><use x="55.615" xlink:href="#HelveticaWorld-Regular-30"/><use x="111.23" xlink:href="#HelveticaWorld-Regular-32"/><use x="166.846" xlink:href="#HelveticaWorld-Regular-30"/></g></g></g><g id="matplotlib.axis_2"><g id="ytick_1"><path clip-path="url(#p41034a4f65)" d="M87.796 256h357.12" style="fill:none;stroke:#969696;stroke-linecap:square;stroke-width:.3" id="line2d_7"/><g id="line2d_8"><defs><path d="M0 0h-3.5" id="me0245e9a81" style="stroke:#969696;stroke-width:.3"/></defs><use style="fill:#969696;stroke:#969696;stroke-width:.3" x="87.796" xlink:href="#me0245e9a81" y="255.999"/></g><g style="fill:#969696" transform="matrix(.14 0 0 -.14 49.655 261.024)" id="text_6"><defs><path d="M941 2619q372 281 872 281 606 0 1042-403t436-1038q0-690-421-1139-420-448-1179-448-660 0-1041 323-381 324-444 918h582q43-363 284-555t669-192q415 0 681 287 266 288 266 735 0 456-279 731-278 275-718 275-500 0-835-428l-484 25 337 2406h2332v-544H1131L941 2619z" id="HelveticaWorld-Regular-35" transform="scale(.01563)"/></defs><use xlink:href="#HelveticaWorld-Regular-35"/><use x="55.615" xlink:href="#HelveticaWorld-Regular-30"/><use x="111.23" xlink:href="#HelveticaWorld-Regular-30"/><use x="166.846" xlink:href="#HelveticaWorld-Regular-30"/></g></g><g id="ytick_2"><path clip-path="url(#p41034a4f65)" d="M87.796 203.69h357.12" style="fill:none;stroke:#969696;stroke-linecap:square;stroke-width:.3" id="line2d_9"/><use style="fill:#969696;stroke:#969696;stroke-width:.3" x="87.796" xlink:href="#me0245e9a81" y="203.689" id="line2d_10"/><g style="fill:#969696" transform="matrix(.14 0 0 -.14 41.87 208.714)" id="text_7"><use xlink:href="#HelveticaWorld-Regular-31"/><use x="55.615" xlink:href="#HelveticaWorld-Regular-30"/><use x="111.23" xlink:href="#HelveticaWorld-Regular-30"/><use x="166.846" xlink:href="#HelveticaWorld-Regular-30"/><use x="222.461" xlink:href="#HelveticaWorld-Regular-30"/></g></g><g id="ytick_3"><path clip-path="url(#p41034a4f65)" d="M87.796 151.38h357.12" style="fill:none;stroke:#969696;stroke-linecap:square;stroke-width:.3" id="line2d_11"/><use style="fill:#969696;stroke:#969696;stroke-width:.3" x="87.796" xlink:href="#me0245e9a81" y="151.379" id="line2d_12"/><g style="fill:#969696" transform="matrix(.14 0 0 -.14 41.87 156.404)" id="text_8"><use xlink:href="#HelveticaWorld-Regular-31"/><use x="55.615" xlink:href="#HelveticaWorld-Regular-35"/><use x="111.23" xlink:href="#HelveticaWorld-Regular-30"/><use x="166.846" xlink:href="#HelveticaWorld-Regular-30"/><use x="222.461" xlink:href="#HelveticaWorld-Regular-30"/></g></g><g id="ytick_4"><path clip-path="url(#p41034a4f65)" d="M87.796 99.07h357.12" style="fill:none;stroke:#969696;stroke-linecap:square;stroke-width:.3" id="line2d_13"/><use style="fill:#969696;stroke:#969696;stroke-width:.3" x="87.796" xlink:href="#me0245e9a81" y="99.069" id="line2d_14"/><g style="fill:#969696" transform="matrix(.14 0 0 -.14 41.87 104.094)" id="text_9"><use xlink:href="#HelveticaWorld-Regular-32"/><use x="55.615" xlink:href="#HelveticaWorld-Regular-30"/><use x="111.23" xlink:href="#HelveticaWorld-Regular-30"/><use x="166.846" xlink:href="#HelveticaWorld-Regular-30"/><use x="222.461" xlink:href="#HelveticaWorld-Regular-30"/></g></g><g id="ytick_5"><path clip-path="url(#p41034a4f65)" d="M87.796 46.759h357.12" style="fill:none;stroke:#969696;stroke-linecap:square;stroke-width:.3" id="line2d_15"/><use style="fill:#969696;stroke:#969696;stroke-width:.3" x="87.796" xlink:href="#me0245e9a81" y="46.759" id="line2d_16"/><g style="fill:#969696" transform="matrix(.14 0 0 -.14 41.87 51.784)" id="text_10"><use xlink:href="#HelveticaWorld-Regular-32"/><use x="55.615" xlink:href="#HelveticaWorld-Regular-35"/><use x="111.23" xlink:href="#HelveticaWorld-Regular-30"/><use x="166.846" xlink:href="#HelveticaWorld-Regular-30"/><use x="222.461" xlink:href="#HelveticaWorld-Regular-30"/></g></g><g style="fill:#969696" transform="matrix(.14 0 0 -.14 7.2 17.25)" id="text_11"><defs><path d="M2463 2456h2018V0h-403l-150 594q-294-375-691-546-396-170-824-170-691 0-1155 301-464 302-721 833-256 532-256 1326 0 990 589 1684t1586 694q744 0 1300-416 557-416 647-1100h-600q-109 453-462 709-353 257-916 257-678 0-1091-511-412-511-412-1352 0-978 409-1436 410-458 1119-458 463 0 783 183t492 497q172 314 172 836H2463v531z" id="HelveticaWorld-Regular-47" transform="scale(.01563)"/><path d="M422 3956v638h562v-638H422zM984 0H422v3347h562V0z" id="HelveticaWorld-Regular-69" transform="scale(.01563)"/><path d="M1100 2881V703q0-128 70-195 71-67 252-67h216V0q-307-44-422-44-353 0-516 169-162 169-162 547v2209H84v466h454v934h562v-934h538v-466h-538z" id="HelveticaWorld-Regular-74" transform="scale(.01563)"/><path d="M4153 0h-622v2144H1131V0H519v4594h612V2694h2400v1900h622V0z" id="HelveticaWorld-Regular-48" transform="scale(.01563)"/><path d="M391 3347h562V1125q0-369 167-552 168-182 480-182 434 0 678 307 244 308 244 805v1844h562V0h-531v488l-12 12Q2222-97 1478-97q-481 0-784 262-303 263-303 776v2406z" id="HelveticaWorld-Regular-75" transform="scale(.01563)"/><path d="M2778 1684q0 672-238 963-237 291-677 291-447-7-676-349-228-342-228-989 0-659 275-934t641-275q416 0 659 342 244 342 244 951zM422 0v4594h562V2925h13q359 519 969 519 625 0 1009-464t384-1208q0-838-388-1354Q2584-97 1888-97q-613 0-922 513h-13V0H422z" id="HelveticaWorld-Regular-62" transform="scale(.01563)"/><path d="M2309 2394q-12 300-214 431-201 131-579 131-275 0-471-122-195-121-195-350 0-181 115-267 116-86 501-183l556-140q506-128 723-327 218-198 218-554 0-494-361-802T1638-97Q934-97 573 195q-360 293-367 880h544q13-347 230-516 217-168 651-168 353 0 561 140 208 141 208 391 0 178-135 284-134 107-531 197l-653 160q-397 100-586 298t-189 514q0 494 353 781 354 288 922 288 607 0 930-296 323-295 342-754h-544z" id="HelveticaWorld-Regular-73" transform="scale(.01563)"/><path d="M2456 1709q-62-65-245-106-183-40-683-106-369-44-542-182-173-137-173-362 0-275 146-428 147-153 469-153 403 0 715 229 313 230 313 558v550zM397 2328q19 566 367 841 349 275 1014 275 531 0 890-241 360-240 360-694V581q0-197 178-197 72 0 185 25V0q-153-63-319-63-288 0-429 123-140 124-146 387Q2016-97 1288-97q-475 0-763 269-287 269-287 700 0 441 250 712 250 272 728 329l993 121q269 41 269 397 0 263-195 403-195 141-592 141-353 0-543-156-189-156-226-491H397z" id="HelveticaWorld-Regular-61" transform="scale(.01563)"/><path d="M984 0H422v3347h531v-556h13q365 653 940 653 91 0 147-19v-584h-209q-378 0-619-257-241-256-241-637V0z" id="HelveticaWorld-Regular-72" transform="scale(.01563)"/></defs><use xlink:href="#HelveticaWorld-Regular-47"/><use x="77.1" xlink:href="#HelveticaWorld-Regular-69"/><use x="99.121" xlink:href="#HelveticaWorld-Regular-74"/><use x="126.807" xlink:href="#HelveticaWorld-Regular-48"/><use x="199.805" xlink:href="#HelveticaWorld-Regular-75"/><use x="254.59" xlink:href="#HelveticaWorld-Regular-62"/><use x="311.084" xlink:href="#HelveticaWorld-Regular-20"/><use x="335.498" xlink:href="#HelveticaWorld-Regular-73"/><use x="385.498" xlink:href="#HelveticaWorld-Regular-74"/><use x="413.184" xlink:href="#HelveticaWorld-Regular-61"/><use x="468.115" xlink:href="#HelveticaWorld-Regular-72"/><use x="500.684" xlink:href="#HelveticaWorld-Regular-73"/></g></g><path clip-path="url(#p41034a4f65)" d="m215.36 308.3.369-.493.385-.052 6.97-.073 3.386-.084 2.165-.125 9.477-.074 1.37-.167 9.543-.136 1.618-.199 1.91-.104 17.554-.252 18.462-.45 1.91-.209 33.904-.91.106-.303 1.027-.199 3.445-.105.674-.104 9.633-.816.024-1.622 1.068-6.486 3.158-.806.035-.805.293-1.622 1.02-.398 3.91-.711 7.502-.513 5.386-.397 2.256-.147 3.966-.157 22.769-1.412 6.532-.314 9.557-.502 7.583-.46 11.26-.45 6.863-.618.008-.408.64-1.621 1.264-.806 4.358-.711 5.833-.398h0" style="fill:none;stroke:#7f7f7f;stroke-linecap:square;stroke-width:1.5" id="line2d_17"/><path clip-path="url(#p41034a4f65)" d="m313.768 308.3 2.732-.011.352-.01 3.154-.011.513-.021 1.84-.063.003-.031.08-.01.002-.011 4.173-.01 1.753-.032.859-.032 2.13-.125 1.524-.063 1.756-.031 1.195-.032 1.557-.062 1.184-.063.065-.126.619-.25.706-1.005 2.045-.24 1.331-.252 1.939-.25 1.207-.126 1.707-.126 2.069-.126 1.495-.125 1.574-.126 1.242-.125.04-.502 1.23-.994 2.535-.251.485-.251 2.473-.252 2.518-.25 1.718-.241 1.7-.251 1.904-.503 1.35-.25 2.258-.252 2.18-.25 1.19-.252.843-.492 1.178-.25 1.816-.252 1.8-.25 1.134-.252 2.44-.251 1.183-.126 1.936-.125 1.26-.115 1.594-.126.61-.25.007-.503.014-1.004.582-4.007 2.166-1.999.61-.993 2.57-1.005 2.317-.492 1.74-.25 1.022-.252 1.958-.502 2.213-.502 2.227-1.004.735-1.005 1.67-.994 1.625-.502 1.64-.502 2.187-.492 1.066-.25 1.846-.252 2.3-.502 1.481-.502 1.653-.492 1.926-.502 2.11-.502 1.753-.503 2.48-.502 2.454-.502 2.493-.502 1.871-.502 2.393-.304 1.812-.303" style="fill:none;stroke:#e377c2;stroke-linecap:square;stroke-width:1.5" id="line2d_18"/><g style="fill:#1f77b4" transform="matrix(.14 0 0 -.14 448.487 45.804)" id="text_12"><defs><path d="M831 1684q0-615 244-954t659-339q404 0 660 293 256 294 256 832 0 706-224 1064-223 358-679 358-459 0-688-305-228-305-228-949zM3188 191q0-807-388-1203-387-397-1169-397-562 0-895 259T353-409h563q43-244 226-388t530-144q472 0 712 254 241 253 241 821v238h-12Q2297-97 1722-97q-716 0-1094 528T250 1772q0 744 381 1208 382 464 1013 464 634 0 1000-569h12v472h532V191z" id="HelveticaWorld-Regular-67" transform="scale(.01563)"/><path d="M813 1678q0-559 253-920t718-361q482 0 732 378t250 903q0 531-250 901-250 371-732 371-446 0-709-349-262-348-262-923zm-575 0q0 747 415 1256 416 510 1131 510 732 0 1144-516 413-515 413-1250 0-737-410-1256Q2522-97 1784-97q-709 0-1128 503-418 503-418 1272z" id="HelveticaWorld-Regular-6f" transform="scale(.01563)"/><path d="M3150 0h-566v2188q0 403-156 576-156 174-509 174-435 0-685-282-250-281-250-831V0H422v4594h562V2900h13q384 544 981 544 550 0 861-288 311-287 311-878V0z" id="HelveticaWorld-Regular-68" transform="scale(.01563)"/><path d="M984 0H422v4594h562V0z" id="HelveticaWorld-Regular-6c" transform="scale(.01563)"/><path d="M319-122h-428l1575 4838h422L319-122z" id="HelveticaWorld-Regular-2f" transform="scale(.01563)"/><path d="M519 4594h2015q594 0 947-322t353-834q0-310-155-565-154-254-460-395 428-162 629-431 202-269 202-691 0-593-428-975Q3194 0 2491 0H519v4594zm612-4063h1325q488 0 731 226 244 227 244 612 0 390-272 582-271 193-803 193H1131V531zm0 2119h1128q494 0 724 179 230 180 230 562 0 328-218 500-217 172-729 172H1131V2650z" id="HelveticaWorld-Regular-42" transform="scale(.01563)"/><path d="M2534 2222q-121 716-793 716-416 0-669-333t-253-927q0-647 234-967 235-320 681-320 300 0 519 220t281 573h544q-84-621-439-951T1722-97q-659 0-1081 451-422 452-422 1227 0 850 422 1356 422 507 1184 507 556 0 886-333t367-889h-544z" id="HelveticaWorld-Regular-63" transform="scale(.01563)"/><path d="M3200 0h-722L1434 1691l-468-422V0H422v4594h544V1931l1440 1416h716L1844 2100 3200 0z" id="HelveticaWorld-Regular-6b" transform="scale(.01563)"/></defs><use xlink:href="#HelveticaWorld-Regular-67"/><use x="55.908" xlink:href="#HelveticaWorld-Regular-6f"/><use x="111.816" xlink:href="#HelveticaWorld-Regular-72"/><use x="144.385" xlink:href="#HelveticaWorld-Regular-68"/><use x="199.561" xlink:href="#HelveticaWorld-Regular-69"/><use x="221.582" xlink:href="#HelveticaWorld-Regular-6c"/><use x="243.604" xlink:href="#HelveticaWorld-Regular-6c"/><use x="265.625" xlink:href="#HelveticaWorld-Regular-2f"/><use x="293.408" xlink:href="#HelveticaWorld-Regular-75"/><use x="348.193" xlink:href="#HelveticaWorld-Regular-42"/><use x="415.381" xlink:href="#HelveticaWorld-Regular-6c"/><use x="437.402" xlink:href="#HelveticaWorld-Regular-6f"/><use x="493.311" xlink:href="#HelveticaWorld-Regular-63"/><use x="544.58" xlink:href="#HelveticaWorld-Regular-6b"/></g><g style="fill:#ff7f0e" transform="matrix(.14 0 0 -.14 448.487 88.355)" id="text_13"><defs><path d="M2522 3347h616L1863 0h-604L38 3347h653l872-2725h12l947 2725z" id="HelveticaWorld-Regular-76" transform="scale(.01563)"/><path d="M2497 3347h612L1913 63q-32-88-63-166-272-725-469-995-197-271-637-271-231 0-378 50v513q159-57 350-57 206 0 301 130 96 130 283 636L56 3347h635l897-2725h12l897 2725z" id="HelveticaWorld-Regular-79" transform="scale(.01563)"/><path d="M2719 1941q-44 543-288 770-243 227-647 227-409 0-661-288-251-287-267-709h1863zm537-891q-93-519-509-859-366-288-963-294-703 6-1116 461-412 455-412 1223 0 882 425 1372 425 491 1182 491 678 0 1059-507 381-506 381-1446H856q0-525 244-813 244-287 731-287 344 0 591 207 247 208 272 452h562z" id="HelveticaWorld-Regular-65" transform="scale(.01563)"/></defs><use xlink:href="#HelveticaWorld-Regular-6f"/><use x="54.158" xlink:href="#HelveticaWorld-Regular-76"/><use x="103.768" xlink:href="#HelveticaWorld-Regular-69"/><use x="125.789" xlink:href="#HelveticaWorld-Regular-74"/><use x="153.475" xlink:href="#HelveticaWorld-Regular-79"/><use x="203.084" xlink:href="#HelveticaWorld-Regular-2f"/><use x="230.867" xlink:href="#HelveticaWorld-Regular-6f"/><use x="286.775" xlink:href="#HelveticaWorld-Regular-63"/><use x="338.045" xlink:href="#HelveticaWorld-Regular-74"/><use x="365.73" xlink:href="#HelveticaWorld-Regular-6f"/><use x="421.639" xlink:href="#HelveticaWorld-Regular-74"/><use x="449.324" xlink:href="#HelveticaWorld-Regular-72"/><use x="480.893" xlink:href="#HelveticaWorld-Regular-65"/><use x="536.313" xlink:href="#HelveticaWorld-Regular-65"/></g><g style="fill:#2ca02c" transform="matrix(.14 0 0 -.14 448.487 156.953)" id="text_14"><defs><path d="M3150 0h-566v2059q0 475-166 677-165 202-549 202-378 0-632-288-253-287-253-825V0H422v3347h531v-472h13q397 569 1012 569 569 0 870-302 302-301 302-864V0z" id="HelveticaWorld-Regular-6e" transform="scale(.01563)"/><path d="M838 1684q0-621 246-957 247-336 657-336 390 0 652 287 263 288 263 838 0 706-224 1064-223 358-679 358-434 0-675-285-240-284-240-969zM3225 0h-531v459h-13Q2363-97 1716-97q-697 0-1079 531-381 532-381 1338 0 744 378 1208 379 464 1016 464 628 0 1000-569l13 38v1681h562V0z" id="HelveticaWorld-Regular-64" transform="scale(.01563)"/><path d="M1100 2881V0H538v2881H78v466h460v575q0 378 229 557 230 180 642 180 141 0 254-12v-506q-100 12-229 12-187 0-261-92-73-92-73-298v-416h563v-466h-563z" id="HelveticaWorld-Regular-66" transform="scale(.01563)"/><path d="M1850 1484H281v575h1569v-575z" id="HelveticaWorld-Regular-2d" transform="scale(.01563)"/></defs><use xlink:href="#HelveticaWorld-Regular-73"/><use x="50" xlink:href="#HelveticaWorld-Regular-69"/><use x="72.021" xlink:href="#HelveticaWorld-Regular-6e"/><use x="127.197" xlink:href="#HelveticaWorld-Regular-64"/><use x="184.18" xlink:href="#HelveticaWorld-Regular-72"/><use x="215.748" xlink:href="#HelveticaWorld-Regular-65"/><use x="271.168" xlink:href="#HelveticaWorld-Regular-73"/><use x="321.168" xlink:href="#HelveticaWorld-Regular-6f"/><use x="377.076" xlink:href="#HelveticaWorld-Regular-72"/><use x="409.645" xlink:href="#HelveticaWorld-Regular-68"/><use x="464.82" xlink:href="#HelveticaWorld-Regular-75"/><use x="519.605" xlink:href="#HelveticaWorld-Regular-73"/><use x="569.605" xlink:href="#HelveticaWorld-Regular-2f"/><use x="597.389" xlink:href="#HelveticaWorld-Regular-72"/><use x="628.957" xlink:href="#HelveticaWorld-Regular-65"/><use x="683.377" xlink:href="#HelveticaWorld-Regular-66"/><use x="711.063" xlink:href="#HelveticaWorld-Regular-69"/><use x="733.084" xlink:href="#HelveticaWorld-Regular-6e"/><use x="788.26" xlink:href="#HelveticaWorld-Regular-65"/><use x="843.68" xlink:href="#HelveticaWorld-Regular-64"/><use x="900.662" xlink:href="#HelveticaWorld-Regular-2d"/><use x="933.963" xlink:href="#HelveticaWorld-Regular-67"/><use x="989.871" xlink:href="#HelveticaWorld-Regular-69"/><use x="1011.893" xlink:href="#HelveticaWorld-Regular-74"/><use x="1039.578" xlink:href="#HelveticaWorld-Regular-68"/><use x="1094.754" xlink:href="#HelveticaWorld-Regular-75"/><use x="1149.539" xlink:href="#HelveticaWorld-Regular-62"/></g><g style="fill:#d62728" transform="matrix(.14 0 0 -.14 448.487 236.838)" id="text_15"><defs><path d="m2816 1888-678 2021h-13l-737-2021h1428zm-1619-550L716 0H78l1728 4594h703L4172 0h-678l-453 1338H1197z" id="HelveticaWorld-Regular-41" transform="scale(.01563)"/><path d="M1141 0H519v4594h622V0z" id="HelveticaWorld-Regular-49" transform="scale(.01563)"/><path d="M4091 2297q0 806-427 1337-426 532-1173 532-738 0-1169-532-431-531-431-1337 0-831 437-1350 438-519 1163-519 709 0 1154 506 446 507 446 1363zm637 0q0-1028-594-1724-593-695-1643-695-1057 0-1649 695-592 696-592 1724 0 1031 592 1725t1649 694q1081 0 1659-707 578-706 578-1712z" id="HelveticaWorld-Regular-4f" transform="scale(.01563)"/><path d="M1638 0h-575L97 3347h606l641-2631h12l647 2631h635l653-2631h12l678 2631h557L3572 0h-591l-678 2591h-12L1638 0z" id="HelveticaWorld-Regular-77" transform="scale(.01563)"/><path d="M959 1516q0-538 262-832 263-293 654-293 428 0 665 348 238 349 238 945 0 654-228 954t-687 300q-447 0-676-352-228-352-228-1070zM422 3347h531v-472h13q359 569 1000 569 647 0 1020-471 373-470 373-1201 0-819-381-1344T1888-97q-582 0-891 450h-13v-1678H422v4672z" id="HelveticaWorld-Regular-70" transform="scale(.01563)"/><path d="M903 469h2060V0H153v441l2025 2440H316v466h2584v-459L903 469z" id="HelveticaWorld-Regular-7a" transform="scale(.01563)"/></defs><use xlink:href="#HelveticaWorld-Regular-41"/><use x="66.699" xlink:href="#HelveticaWorld-Regular-6c"/><use x="88.721" xlink:href="#HelveticaWorld-Regular-69"/><use x="110.742" xlink:href="#HelveticaWorld-Regular-61"/><use x="165.674" xlink:href="#HelveticaWorld-Regular-73"/><use x="215.674" xlink:href="#HelveticaWorld-Regular-49"/><use x="241.455" xlink:href="#HelveticaWorld-Regular-4f"/><use x="319.238" xlink:href="#HelveticaWorld-Regular-2f"/><use x="347.021" xlink:href="#HelveticaWorld-Regular-77"/><use x="417.059" xlink:href="#HelveticaWorld-Regular-61"/><use x="471.99" xlink:href="#HelveticaWorld-Regular-70"/><use x="528.484" xlink:href="#HelveticaWorld-Regular-70"/><use x="584.979" xlink:href="#HelveticaWorld-Regular-61"/><use x="639.91" xlink:href="#HelveticaWorld-Regular-6c"/><use x="661.932" xlink:href="#HelveticaWorld-Regular-79"/><use x="711.541" xlink:href="#HelveticaWorld-Regular-7a"/><use x="759.01" xlink:href="#HelveticaWorld-Regular-65"/><use x="814.43" xlink:href="#HelveticaWorld-Regular-72"/></g><g style="fill:#9467bd" transform="matrix(.14 0 0 -.14 448.487 250.753)" id="text_16"><defs><path d="M1131 550h2338V0H519v4594h612V550z" id="HelveticaWorld-Regular-4c" transform="scale(.01563)"/></defs><use xlink:href="#HelveticaWorld-Regular-4f"/><use x="77.783" xlink:href="#HelveticaWorld-Regular-63"/><use x="129.053" xlink:href="#HelveticaWorld-Regular-74"/><use x="156.738" xlink:href="#HelveticaWorld-Regular-6f"/><use x="212.646" xlink:href="#HelveticaWorld-Regular-4c"/><use x="268.262" xlink:href="#HelveticaWorld-Regular-69"/><use x="290.283" xlink:href="#HelveticaWorld-Regular-6e"/><use x="345.459" xlink:href="#HelveticaWorld-Regular-6b"/><use x="393.084" xlink:href="#HelveticaWorld-Regular-65"/><use x="448.504" xlink:href="#HelveticaWorld-Regular-72"/><use x="481.072" xlink:href="#HelveticaWorld-Regular-2f"/><use x="508.855" xlink:href="#HelveticaWorld-Regular-4f"/><use x="586.639" xlink:href="#HelveticaWorld-Regular-63"/><use x="637.908" xlink:href="#HelveticaWorld-Regular-74"/><use x="665.594" xlink:href="#HelveticaWorld-Regular-6f"/><use x="721.502" xlink:href="#HelveticaWorld-Regular-4c"/><use x="777.117" xlink:href="#HelveticaWorld-Regular-69"/><use x="799.139" xlink:href="#HelveticaWorld-Regular-6e"/><use x="854.314" xlink:href="#HelveticaWorld-Regular-6b"/><use x="901.939" xlink:href="#HelveticaWorld-Regular-65"/><use x="957.359" xlink:href="#HelveticaWorld-Regular-72"/></g><g style="fill:#8c564b" transform="matrix(.14 0 0 -.14 448.487 264.753)" id="text_17"><use xlink:href="#HelveticaWorld-Regular-64"/><use x="56.982" xlink:href="#HelveticaWorld-Regular-65"/><use x="112.402" xlink:href="#HelveticaWorld-Regular-73"/><use x="162.402" xlink:href="#HelveticaWorld-Regular-73"/><use x="212.402" xlink:href="#HelveticaWorld-Regular-61"/><use x="267.334" xlink:href="#HelveticaWorld-Regular-6e"/><use x="322.51" xlink:href="#HelveticaWorld-Regular-74"/><use x="350.195" xlink:href="#HelveticaWorld-Regular-2f"/><use x="377.979" xlink:href="#HelveticaWorld-Regular-62"/><use x="434.473" xlink:href="#HelveticaWorld-Regular-75"/><use x="489.258" xlink:href="#HelveticaWorld-Regular-73"/><use x="539.258" xlink:href="#HelveticaWorld-Regular-74"/><use x="566.943" xlink:href="#HelveticaWorld-Regular-65"/><use x="622.363" xlink:href="#HelveticaWorld-Regular-72"/></g><g style="fill:#e377c2" transform="matrix(.14 0 0 -.14 448.487 278.753)" id="text_18"><defs><path d="M1991 0h-660L134 4594h672l857-3738h15l1028 3738h678L4416 856h12l860 3738h690L4763 0h-647L3066 3809h-13L1991 0z" id="HelveticaWorld-Regular-57" transform="scale(.01563)"/><path d="M4319 0v2713q0 53 6 520t6 626h-18L3028 0h-615L1125 3853h-19q0-231 6-659 7-428 7-481V0H519v4594h887L2713 709h18l1300 3885h891V0h-603z" id="HelveticaWorld-Regular-4d" transform="scale(.01563)"/><path d="M422 3347h531v-472h13q378 569 1012 569 628 0 891-544 240 294 465 419t557 125q434 0 735-285 302-284 302-843V0h-562v2163q0 390-147 582-147 193-475 193-331 0-560-269-228-269-228-628V0h-562v2316q0 290-135 456-134 166-390 166-403 0-644-300t-241-813V0H422v3347z" id="HelveticaWorld-Regular-6d" transform="scale(.01563)"/><path d="M3138 0h-725l-825 1259L781 0H72l1169 1722L128 3347h716l775-1178 781 1178h684L1959 1722 3138 0z" id="HelveticaWorld-Regular-78" transform="scale(.01563)"/></defs><use xlink:href="#HelveticaWorld-Regular-57"/><use x="90.438" xlink:href="#HelveticaWorld-Regular-6f"/><use x="146.346" xlink:href="#HelveticaWorld-Regular-72"/><use x="178.914" xlink:href="#HelveticaWorld-Regular-6c"/><use x="200.936" xlink:href="#HelveticaWorld-Regular-64"/><use x="257.918" xlink:href="#HelveticaWorld-Regular-42"/><use x="325.105" xlink:href="#HelveticaWorld-Regular-72"/><use x="356.674" xlink:href="#HelveticaWorld-Regular-61"/><use x="411.605" xlink:href="#HelveticaWorld-Regular-69"/><use x="433.627" xlink:href="#HelveticaWorld-Regular-6e"/><use x="488.803" xlink:href="#HelveticaWorld-Regular-2f"/><use x="516.586" xlink:href="#HelveticaWorld-Regular-4d"/><use x="601.596" xlink:href="#HelveticaWorld-Regular-65"/><use x="657.016" xlink:href="#HelveticaWorld-Regular-6d"/><use x="740.023" xlink:href="#HelveticaWorld-Regular-65"/><use x="792.568" xlink:href="#HelveticaWorld-Regular-78"/></g><g style="fill:#7f7f7f" transform="matrix(.14 0 0 -.14 448.487 292.794)" id="text_19"><defs><path d="M1625 4044H78v550h3731v-550H2247V0h-622v4044z" id="HelveticaWorld-Regular-54" transform="scale(.01563)"/></defs><use xlink:href="#HelveticaWorld-Regular-66"/><use x="27.686" xlink:href="#HelveticaWorld-Regular-72"/><use x="59.254" xlink:href="#HelveticaWorld-Regular-65"/><use x="114.674" xlink:href="#HelveticaWorld-Regular-67"/><use x="170.582" xlink:href="#HelveticaWorld-Regular-61"/><use x="225.514" xlink:href="#HelveticaWorld-Regular-6e"/><use x="280.689" xlink:href="#HelveticaWorld-Regular-74"/><use x="308.375" xlink:href="#HelveticaWorld-Regular-65"/><use x="363.795" xlink:href="#HelveticaWorld-Regular-2f"/><use x="391.578" xlink:href="#HelveticaWorld-Regular-47"/><use x="468.678" xlink:href="#HelveticaWorld-Regular-68"/><use x="523.854" xlink:href="#HelveticaWorld-Regular-6f"/><use x="579.762" xlink:href="#HelveticaWorld-Regular-73"/><use x="629.762" xlink:href="#HelveticaWorld-Regular-74"/><use x="657.447" xlink:href="#HelveticaWorld-Regular-54"/><use x="705.939" xlink:href="#HelveticaWorld-Regular-65"/><use x="758.484" xlink:href="#HelveticaWorld-Regular-78"/><use x="808.484" xlink:href="#HelveticaWorld-Regular-74"/></g><g style="fill:#bcbd22" transform="matrix(.14 0 0 -.14 448.487 306.794)" id="text_20"><defs><path d="M1141 531h1203q625 0 978 480t353 1311q0 822-356 1278t-1028 463H1141V531zM519 4594h1862q903 0 1414-621 511-620 511-1610 0-1063-511-1713T2356 0H519v4594z" id="HelveticaWorld-Regular-44" transform="scale(.01563)"/><path d="M2388 0h-622v1850L31 4594h725l1319-2206 1316 2206h731L2388 1850V0z" id="HelveticaWorld-Regular-59" transform="scale(.01563)"/><path d="M1141 2503h1437q500 0 717 205 218 205 218 589 0 350-188 558-187 208-644 208H1141V2503zm0-2503H519v4594h2125q740 0 1121-316 382-315 382-919 0-396-153-662t-481-438q281-103 406-289t144-576l40-856q6-213 67-299t171-136V0h-769q-59 172-84 522t-25 631q0 141-25 288t-110 265q-84 119-247 192-162 74-437 74H1141V0z" id="HelveticaWorld-Regular-52" transform="scale(.01563)"/><path d="M3225 3250q-19 438-327 686-307 248-810 248-507 0-779-208-271-207-271-598 0-209 118-359 119-150 425-222l1313-300q531-116 787-440 257-323 257-788 0-681-500-1036T2138-122q-610 0-962 156-351 157-623 497-272 341-272 953h582q0-512 340-794 341-281 928-281 569 0 886 202t317 573q0 338-189 505t-739 295l-990 232q-494 112-738 392t-244 689q0 619 417 1019 418 400 1165 400 843 0 1301-352 458-351 492-1114h-584z" id="HelveticaWorld-Regular-53" transform="scale(.01563)"/></defs><use xlink:href="#HelveticaWorld-Regular-44"/><use x="72.021" xlink:href="#HelveticaWorld-Regular-49"/><use x="97.803" xlink:href="#HelveticaWorld-Regular-59"/><use x="162.598" xlink:href="#HelveticaWorld-Regular-67"/><use x="218.506" xlink:href="#HelveticaWorld-Regular-6f"/><use x="274.414" xlink:href="#HelveticaWorld-Regular-64"/><use x="331.396" xlink:href="#HelveticaWorld-Regular-2f"/><use x="359.18" xlink:href="#HelveticaWorld-Regular-52"/><use x="429.566" xlink:href="#HelveticaWorld-Regular-53"/><use x="495.777" xlink:href="#HelveticaWorld-Regular-53"/><use x="561.988" xlink:href="#HelveticaWorld-Regular-48"/><use x="634.986" xlink:href="#HelveticaWorld-Regular-75"/><use x="689.771" xlink:href="#HelveticaWorld-Regular-62"/><use x="746.266" xlink:href="#HelveticaWorld-Regular-2d"/><use x="779.566" xlink:href="#HelveticaWorld-Regular-52"/><use x="849.953" xlink:href="#HelveticaWorld-Regular-61"/><use x="904.885" xlink:href="#HelveticaWorld-Regular-64"/><use x="961.867" xlink:href="#HelveticaWorld-Regular-61"/><use x="1016.799" xlink:href="#HelveticaWorld-Regular-72"/></g><g style="fill:#969696" transform="matrix(.09716 0 0 -.09716 87.796 342.08)" id="text_21"><defs><path d="M1141 2472h1234q466 0 700 204 234 205 234 621 0 372-225 569t-684 197H1141V2472zm0-2472H519v4594h2065q616 0 991-358t375-933q0-597-363-980-362-382-1003-382H1141V0z" id="HelveticaWorld-Regular-50" transform="scale(.01563)"/><path d="M603 4716h466V-122H603v4838z" id="HelveticaWorld-Regular-7c" transform="scale(.01563)"/><path d="M3559 4594h600V0h-690L1125 3713h-12V0H519v4594h728L3547 884h12v3710z" id="HelveticaWorld-Regular-4e" transform="scale(.01563)"/><path d="M813 1678q0-559 253-920t718-361q482 0 732 378t250 903q0 531-250 901-250 371-732 371-446 0-709-349-262-348-262-923zm-575 0q0 747 415 1256 416 510 1131 510 732 0 1144-516 413-515 413-1250 0-737-410-1256Q2522-97 1784-97q-709 0-1128 503-418 503-418 1272zm2351 2266h-575v650h575v-650zm-1038 0H976v650h575v-650z" id="HelveticaWorld-Regular-f6" transform="scale(.01563)"/><path d="M3713 3213q-104 468-434 710-329 243-854 243-678 0-1091-493-412-492-412-1329 0-969 390-1443 391-473 1132-473 487 0 838 323 352 324 474 940h603q-121-885-671-1349T2350-122q-941 0-1505 647T281 2322q0 1109 589 1751 589 643 1555 643 800 0 1297-413 497-412 591-1090h-600z" id="HelveticaWorld-Regular-43" transform="scale(.01563)"/></defs><use xlink:href="#HelveticaWorld-Regular-47"/><use x="77.1" xlink:href="#HelveticaWorld-Regular-69"/><use x="99.121" xlink:href="#HelveticaWorld-Regular-74"/><use x="126.807" xlink:href="#HelveticaWorld-Regular-48"/><use x="199.805" xlink:href="#HelveticaWorld-Regular-75"/><use x="254.59" xlink:href="#HelveticaWorld-Regular-62"/><use x="311.084" xlink:href="#HelveticaWorld-Regular-20"/><use x="335.498" xlink:href="#HelveticaWorld-Regular-41"/><use x="402.197" xlink:href="#HelveticaWorld-Regular-50"/><use x="466.846" xlink:href="#HelveticaWorld-Regular-49"/><use x="492.627" xlink:href="#HelveticaWorld-Regular-20"/><use x="517.041" xlink:href="#HelveticaWorld-Regular-76"/><use x="566.65" xlink:href="#HelveticaWorld-Regular-69"/><use x="588.672" xlink:href="#HelveticaWorld-Regular-61"/><use x="643.604" xlink:href="#HelveticaWorld-Regular-20"/><use x="668.018" xlink:href="#HelveticaWorld-Regular-73"/><use x="718.018" xlink:href="#HelveticaWorld-Regular-74"/><use x="745.703" xlink:href="#HelveticaWorld-Regular-61"/><use x="800.635" xlink:href="#HelveticaWorld-Regular-72"/><use x="832.203" xlink:href="#HelveticaWorld-Regular-67"/><use x="888.111" xlink:href="#HelveticaWorld-Regular-72"/><use x="919.68" xlink:href="#HelveticaWorld-Regular-61"/><use x="974.611" xlink:href="#HelveticaWorld-Regular-70"/><use x="1031.105" xlink:href="#HelveticaWorld-Regular-68"/><use x="1086.281" xlink:href="#HelveticaWorld-Regular-20"/><use x="1110.695" xlink:href="#HelveticaWorld-Regular-7c"/><use x="1136.672" xlink:href="#HelveticaWorld-Regular-20"/><use x="1161.086" xlink:href="#HelveticaWorld-Regular-4e"/><use x="1234.182" xlink:href="#HelveticaWorld-Regular-69"/><use x="1256.203" xlink:href="#HelveticaWorld-Regular-63"/><use x="1307.473" xlink:href="#HelveticaWorld-Regular-6f"/><use x="1363.381" xlink:href="#HelveticaWorld-Regular-20"/><use x="1387.795" xlink:href="#HelveticaWorld-Regular-53"/><use x="1454.006" xlink:href="#HelveticaWorld-Regular-63"/><use x="1505.275" xlink:href="#HelveticaWorld-Regular-68"/><use x="1560.451" xlink:href="#HelveticaWorld-Regular-6c"/><use x="1582.473" xlink:href="#HelveticaWorld-Regular-f6"/><use x="1638.381" xlink:href="#HelveticaWorld-Regular-6d"/><use x="1721.389" xlink:href="#HelveticaWorld-Regular-65"/><use x="1776.809" xlink:href="#HelveticaWorld-Regular-72"/><use x="1809.377" xlink:href="#HelveticaWorld-Regular-20"/><use x="1833.791" xlink:href="#HelveticaWorld-Regular-7c"/><use x="1859.768" xlink:href="#HelveticaWorld-Regular-20"/><use x="1884.182" xlink:href="#HelveticaWorld-Regular-43"/><use x="1956.496" xlink:href="#HelveticaWorld-Regular-43"/><use x="2028.811" xlink:href="#HelveticaWorld-Regular-20"/><use x="2053.225" xlink:href="#HelveticaWorld-Regular-42"/><use x="2116.037" xlink:href="#HelveticaWorld-Regular-59"/></g><path clip-path="url(#p41034a4f65)" d="m364.34 308.3 2.05-1.162.9-1.172 2.363-1.161 1.263-.586 1.437-.586 2.312-.575 1.564-.586 1.853-1.172 1.097-2.343 1.514-4.667 1.126-1.16 1.468-.587 2.096-.586 1.398-.293 1.515-.292 2.325-.586 1.463-.293 1.706-.293 1.374-.293 1.736-.293 1.432-.283 1.268-.292 1.442-.586 2.122-1.172 1.584-.576 1.864-.585 1.623-.586 1.637-.586 1.594-.576 1.074-.585 1.383-.586 1.507-.586 2.542-1.172 2.226-.586 2.174-.586 1.991-.575 1.19-.586.379-1.172 1.85-1.161 2.02-1.172 1.35-.575 1.362-.586 1.745-.586 1.136-.586 1.857-.586 1.22-.585 2.232-1.172 2.178-.931 2.014-.942" style="fill:none;stroke:#8c564b;stroke-linecap:square;stroke-width:1.5" id="line2d_19"/><path clip-path="url(#p41034a4f65)" d="m209.563 308.3 22.568-.137.114-.24.458-.388 1.106-.763 2.443-.377 12.142-.67 6.087-.167 2.114-.125.526-.2.081-1.537.194-.764 2.395-.774 1.76-1.538 5.104-.952 15.13-2.888 3.425-1.15 4.374-.764 1.28-.387 1.927-.764 1.233-.774 6.629-1.151 1.026-.387.417-.764 2.836-.774 4.898-1.538 1.96-.764 1.64-.387 5.048-.763 1.569-.388 9.047-1.537 2.202-.189 4.382-.962 1.674-.387 4.075-.764 2.019-.764 4.465-.774 2.833-.377 5.18-1.16 1.713-.765 4.288-.774.883-.376 4.515-.963 1.584-.199 2.25-.763.376-.775 3.006-1.15 3.846-.764 1.1-.387 2.202-1.538 2.795-.764 1.702-.764 3.238-.774 7.073-1.538 2.46-.376 1.654-.388 1.338-.774 4.002-.763 1.43-.775 1.423-.376 3.883-.576 5.397-.586 1.72-.376 2.663-.387 13.17-1.727 5.083-.585 3.222-.22.964-.23h0" style="fill:none;stroke:#9467bd;stroke-linecap:square;stroke-width:1.5" id="line2d_20"/><path clip-path="url(#p41034a4f65)" d="m87.796 308.3 3.64-.273 58.161-.837 11.424-.23 20.755-.178 1.513-.157 6.176-.125 7.602-.346 6.931-.345 7.667-.554 9.49-.973.786-.147 5.496-.554 1.827-.283 8.688-.826 5.776-.848 3.423-.272 4.01-.837 1.167-.554 1.239-.283 2.06-.282 2.22-.555 5.039-.826 1.47-.283 7.25-1.673 5.623-1.12 1.613-.554 5.686-1.11 4.187-1.119 3.088-1.109 2.078-.565 2.707-.554 9.516-2.229 3.394-1.674 2.498-2.228 1.114-.554 4.345-1.674 1.154-.555 1.593-.554 4.871-2.229 1.925-.554 3.893-1.674 3.518-1.674 8.16-3.337 1.664-.565 1.242-.555 1.065-.272 1.562-.282 1.206-.555 7.925-2.793 3.602-1.11 1.726-.554 2.838-1.12 2.095-.554 6.064-2.228 2.177-1.12 3.858-1.663 2.377-.565 1.042-.554 4.08-1.11 1.253-.564.88-.555 1.996-.554 1.906-1.12 3.136-1.109 2.163-1.12 1.973-.554 1.36-.554 1.667-1.12 2.689-1.108 2.901-1.12 2.574-1.109.933-.554 2.602-.565 2.356-1.11 5.08-1.673 3.184-.555 4.301-1.12 3.7-.826 1.58-.282 3.631-.837 4.182-.732 1.708-.46h0" style="fill:none;stroke:#d62728;stroke-linecap:square;stroke-width:1.5" id="line2d_21"/><path clip-path="url(#p41034a4f65)" d="m276.451 308.3.499-2.355 1.071-1.182 2.221-1.182 1.133-1.172 2.36-1.182 1.152-.293 2.382-.293 1.96-.596.33-.293 1.543-.147 1.097-.146 2.226-.597 2.315-.293 1.012-.293 1.464-.292 1.22-.293 1.94-.293 2.04-.293 1.808-.293 1.563-.304 1.514-.293 1.52-.292 1.922-.293 1.197-.304 2.034-.586 1.242-.293 1.351-.303 1.711-4.729 1.869-4.718 1.25-.586 1.49-.586 1.064-.586 2.422-.596 1.907-1.182 2.538-1.183 1.593-1.171 1.446-1.183 2.525-2.364 2.028-2.364 1.497-2.365 1.386-2.354 2.162-2.364.348-4.719.74-2.353 2.061-2.365 1.292-1.182 1.698-1.182 1.626-2.365 1.054-2.354 1.766-2.364 1.697-2.354 2.535-2.364 1.87-2.354 2.573-2.365 1.346-1.182 1.512-1.182 2.342-2.365 1.824-2.354 1.895-2.364 2.508-2.354 1.798-2.364 2.493-4.719 2.047-2.364 1.852-2.365 2.363-2.354 2.49-2.364 1.853-1.172 1.78-1.182 2.074-2.364 2.14-2.354 1.715-2.365 1.486-1.182 1.359-1.182 1.506-2.365 2.21-2.354 2.04-2.364 1.8-2.354 2.343-2.364 1.377-1.172 1.792-1.182 1.35-1.183 1.518-1.182 1.64-1.182 1.444-1.182 1.368-1.182 1.445-1.183 1.497-1.171 1.285-1.182 1.192-2.365 2.508-2.364.9-1.183 1.681-1.182 1.966-2.354 2.143-2.364 2.259-2.365 1.868-2.364 1.519-.962 1.14-.973 1.521-1.946" style="fill:none;stroke:#2ca02c;stroke-linecap:square;stroke-width:1.5" id="line2d_22"/><path clip-path="url(#p41034a4f65)" d="m220.86 308.3.766-6.948.578-3.473.814-.868 4.488-1.737 2.77-.649 8.494-1.088 11.38-1.946 1.97-.22 1.894-.439 1.346-.868 1.901-.869 2.668-.868 1.27-.868 1.571-1.737 8.629-2.605.506-2.615 1.783-1.737 1.537-1.737 1.862-1.737 1.476-1.736 1.731-1.737 1.356-1.737 2.554-3.484.89-13.904 2.097-3.473 2.809-3.473 1.398-1.737 1.716-1.737 4.236-3.484 1.534-1.736 3.482-3.474 1.907-1.736 1.384-1.737 1.87-1.737 1.47-1.736 2.645-3.484 1.83-1.737 6.197-5.21 1.53-1.737 1.108-1.736 2.949-3.484 1.306-1.737 6.58-6.947 1.992-1.736 2.84-3.484 1.8-1.737 1.46-1.737 1.643-1.736 1.306-1.737 1.524-1.737 1.673-1.737 1.398-1.736 2.35-3.474 2.02-1.736 3.043-3.474 1.207-1.736 1.728-1.737 5.837-5.22 1.73-1.737 1.512-1.737 1.14-1.737 1.842-1.736 1.427-1.737 1.224-1.747 2.022-13.904 2.21-6.947 1.934-3.473 1.451-1.737 1.22-1.747 4.062-3.474 1.595-1.736 2.093-1.737 1.686-1.737 2.053-1.737 1.563-1.736 3.461-2.616 2.836-1.736 3.6-2.605 1.35-1.737 2.071-3.474 5.59-4.352 1.46-.868 1.16-.868 3.8-1.737 2.011-.868 2.802-1.737 6.08-2.605 1.788-.869 1.137-.868 5.85-2.615 2.407-.576 1.774-.586h0" style="fill:none;stroke:#ff7f0e;stroke-linecap:square;stroke-width:1.5" id="line2d_23"/><path clip-path="url(#p41034a4f65)" d="m248.946 308.3 2.38-8.14 1.742-2.03 1.237-2.04 1.91-4.07 1.802-2.03 1.204-1.014 1.538-1.026 1.862-2.03 1.888-2.04.798-4.069 1.712-2.04 1.547-2.04 1.263-1.015 1.374-1.015 2.198-2.04 2.112-2.03 2.35-2.04 1.239-4.07 2.214-2.029 2.198-2.04 1.76-2.03 2.548-2.04 1.565-1.015 1.388-1.014 2.496-2.04 2.343-4.07 2.006-2.04 1.62-2.04 1.803-2.03 1.183-2.04 1.055-2.03 1.963-2.04 1.957-2.03 1.86-2.04 2.106-2.03 1.911-2.04 1.958-2.029 2.106-2.04 1.959-2.03 2.545-2.04 1.587-2.03 1.512-2.04 1.683-2.04 1.867-2.04 1.415-2.03 1.227-2.04 2.383-4.07 2.102-2.029 1.544-2.04 1.862-2.03 1.747-2.04 1.725-2.03 1.643-2.04 2.251-4.07 1.142-2.029 1.737-2.04 2.153-2.04 2.182-2.04 2.187-2.03 1.828-2.04 1.437-2.03 1.504-2.04 1.34-2.03 1.565-2.04 1.675-4.069 1.593-2.03 1.847-2.04 2.375-4.07 1.678-2.029 1.652-2.04 1.18-2.04 1.59-2.04 1.63-2.03 1.276-2.04 1.388-4.07 1.696-4.07 2.151-2.03 1.927-2.04 1.84-2.029 1.35-2.04 1.55-2.03 2.039-2.04 1.492-2.03 1.709-2.04 2.14-2.04 1.93-2.04 2.426-4.07 1.625-2.029 1.443-2.04 2.535-4.07 2.196-4.07 1.274-2.03 1.415-2.04 1.714-2.029 1.569-2.04 1.474-2.03 1.684-2.04 2.148-4.08 1.644-4.07 1.143-2.03 1.469-2.04 1.427-2.029 1.165-2.04 2.54-4.07 2.476-4.07 1.301-2.03 1.284-2.04 1.4-4.069 2.392-4.08 2.415-2.783 1.78-2.783" style="fill:none;stroke:#1f77b4;stroke-linecap:square;stroke-width:1.5" id="line2d_24"/></g></g><defs><clipPath id="p41034a4f65"><path d="M87.796 42.187h357.12v266.112H87.796z"/></clipPath></defs></svg>