<svg height="443.48" viewBox="0 0 669.618 332.61" width="892.825" xmlns="http://www.w3.org/2000/svg" xmlns:xlink="http://www.w3.org/1999/xlink"><defs><style>*{stroke-linecap:butt;stroke-linejoin:round}</style></defs><g id="figure_1"><path d="M0 332.61h669.618V0H0z" style="fill:none" id="patch_1"/><g id="axes_1"><path d="M98.073 289.059h357.12V22.947H98.073z" style="fill:none" id="patch_2"/><path clip-path="url(#p7e2c941c0c)" d="m322.622 289.059 1.85-.75 1.668-.096 1.149-.097 2.367-.193 1.123-.387.272-1.523 1.63-.75 2.2-.386 1.07-.194 1.633-.193 2.521-.363 2.071-.386 2.247-.774.915-.169 2.516-.193 1.955-.194.804-.193 1.678-.193 1.965-.194 1.179-.193 2.668-.194 2.075-.169 2.286-.193 2.083-.387 2.52-.387 1.936-.386 2.397-.363.518-.387 1.956-.193 1.792-.194.772-.386 2.672-.387 2.674-.387 2.48-.193 1.988-.194 2.517-.386 1.94-.363 1.99-.387 2.29-.386 2.026-.387 2.67-.75 2.482-.386 1.956-.194.366-.048.392-.024 2.322-.024.792-.097 2.246-1.523 1.328-.75 1.191-.386 1.83-.193 2.06-.097.648-.097 1.824-.169 2.373-.193.984-.049 1.827-.048.887-.097 1.844-.096 1.269-.097 1.04-.193 2.084-.097 1.254-.097 1.762-.193 1.248-.194 2.468-.362 1.989-.387 1.691-.387 1.042-.386 2.059-.75 1.972-.773 1.316-.774 1.734-.773 2.03-1.112 2.057-1.112" style="fill:none;stroke:#ffbb78;stroke-linecap:square;stroke-width:1.5" id="line2d_1"/><g id="matplotlib.axis_1"><g id="xtick_1"><g id="line2d_2"><defs><path d="M0 0v3.5" id="mc6473e162c" style="stroke:#969696;stroke-width:.4"/></defs><use style="fill:#969696;stroke:#969696;stroke-width:.4" x="110.976" xlink:href="#mc6473e162c" y="289.059"/></g><g style="fill:#969696" transform="matrix(.14 0 0 -.14 93.16 306.696)" id="text_1"><defs><path d="M1228 531h2203V0H469v531q359 372 979 998 621 627 780 809 303 340 423 576 121 236 121 464 0 372-261 606-261 235-680 235-297 0-627-103-329-103-704-313v638q381 153 712 231 332 78 607 78 725 0 1156-363 431-362 431-968 0-288-108-546-107-257-392-607-78-91-497-524-418-433-1181-1211z" id="DejaVuSans-32" transform="scale(.01563)"/><path d="M2034 4250q-487 0-733-480-245-479-245-1442 0-959 245-1439 246-480 733-480 491 0 736 480 246 480 246 1439 0 963-246 1442-245 480-736 480zm0 500q785 0 1199-621 414-620 414-1801 0-1178-414-1799Q2819-91 2034-91q-784 0-1198 620-414 621-414 1799 0 1181 414 1801 414 621 1198 621z" id="DejaVuSans-30" transform="scale(.01563)"/><path d="M794 531h1031v3560L703 3866v575l1116 225h631V531h1031V0H794v531z" id="DejaVuSans-31" transform="scale(.01563)"/></defs><use xlink:href="#DejaVuSans-32"/><use x="63.623" xlink:href="#DejaVuSans-30"/><use x="127.246" xlink:href="#DejaVuSans-31"/><use x="190.869" xlink:href="#DejaVuSans-31"/></g></g><g id="xtick_2"><use style="fill:#969696;stroke:#969696;stroke-width:.4" x="143.673" xlink:href="#mc6473e162c" y="289.059" id="line2d_3"/><g style="fill:#969696" transform="matrix(.14 0 0 -.14 125.858 306.696)" id="text_2"><use xlink:href="#DejaVuSans-32"/><use x="63.623" xlink:href="#DejaVuSans-30"/><use x="127.246" xlink:href="#DejaVuSans-31"/><use x="190.869" xlink:href="#DejaVuSans-32"/></g></g><g id="xtick_3"><use style="fill:#969696;stroke:#969696;stroke-width:.4" x="176.461" xlink:href="#mc6473e162c" y="289.059" id="line2d_4"/><g style="fill:#969696" transform="matrix(.14 0 0 -.14 158.646 306.696)" id="text_3"><defs><path d="M2597 2516q453-97 707-404 255-306 255-756 0-690-475-1069Q2609-91 1734-91q-293 0-604 58T488 141v609q262-153 574-231 313-78 654-78 593 0 904 234t311 681q0 413-289 645-289 233-804 233h-544v519h569q465 0 712 186t247 536q0 359-255 551-254 193-729 193-260 0-557-57-297-56-653-174v562q360 100 674 150t592 50q719 0 1137-327 419-326 419-882 0-388-222-655t-631-370z" id="DejaVuSans-33" transform="scale(.01563)"/></defs><use xlink:href="#DejaVuSans-32"/><use x="63.623" xlink:href="#DejaVuSans-30"/><use x="127.246" xlink:href="#DejaVuSans-31"/><use x="190.869" xlink:href="#DejaVuSans-33"/></g></g><g id="xtick_4"><use style="fill:#969696;stroke:#969696;stroke-width:.4" x="209.158" xlink:href="#mc6473e162c" y="289.059" id="line2d_5"/><g style="fill:#969696" transform="matrix(.14 0 0 -.14 191.343 306.696)" id="text_4"><defs><path d="M2419 4116 825 1625h1594v2491zm-166 550h794V1625h666v-525h-666V0h-628v1100H313v609l1940 2957z" id="DejaVuSans-34" transform="scale(.01563)"/></defs><use xlink:href="#DejaVuSans-32"/><use x="63.623" xlink:href="#DejaVuSans-30"/><use x="127.246" xlink:href="#DejaVuSans-31"/><use x="190.869" xlink:href="#DejaVuSans-34"/></g></g><g id="xtick_5"><use style="fill:#969696;stroke:#969696;stroke-width:.4" x="241.856" xlink:href="#mc6473e162c" y="289.059" id="line2d_6"/><g style="fill:#969696" transform="matrix(.14 0 0 -.14 224.041 306.696)" id="text_5"><defs><path d="M691 4666h2478v-532H1269V2991q137 47 274 70 138 23 276 23 781 0 1237-428 457-428 457-1159 0-753-469-1171Q2575-91 1722-91q-294 0-599 50Q819 9 494 109v635q281-153 581-228t634-75q541 0 856 284 316 284 316 772 0 487-316 771-315 285-856 285-253 0-505-56-251-56-513-175v2344z" id="DejaVuSans-35" transform="scale(.01563)"/></defs><use xlink:href="#DejaVuSans-32"/><use x="63.623" xlink:href="#DejaVuSans-30"/><use x="127.246" xlink:href="#DejaVuSans-31"/><use x="190.869" xlink:href="#DejaVuSans-35"/></g></g><g id="xtick_6"><use style="fill:#969696;stroke:#969696;stroke-width:.4" x="274.554" xlink:href="#mc6473e162c" y="289.059" id="line2d_7"/><g style="fill:#969696" transform="matrix(.14 0 0 -.14 256.739 306.696)" id="text_6"><defs><path d="M2113 2584q-425 0-674-291-248-290-248-796 0-503 248-796 249-292 674-292t673 292q248 293 248 796 0 506-248 796-248 291-673 291zm1253 1979v-575q-238 112-480 171-242 60-480 60-625 0-955-422-329-422-376-1275 184 272 462 417 279 145 613 145 703 0 1111-427 408-426 408-1160 0-719-425-1154Q2819-91 2113-91q-810 0-1238 620-428 621-428 1799 0 1106 525 1764t1409 658q238 0 480-47t505-140z" id="DejaVuSans-36" transform="scale(.01563)"/></defs><use xlink:href="#DejaVuSans-32"/><use x="63.623" xlink:href="#DejaVuSans-30"/><use x="127.246" xlink:href="#DejaVuSans-31"/><use x="190.869" xlink:href="#DejaVuSans-36"/></g></g><g id="xtick_7"><use style="fill:#969696;stroke:#969696;stroke-width:.4" x="307.341" xlink:href="#mc6473e162c" y="289.059" id="line2d_8"/><g style="fill:#969696" transform="matrix(.14 0 0 -.14 289.526 306.696)" id="text_7"><defs><path d="M525 4666h3000v-269L1831 0h-659l1594 4134H525v532z" id="DejaVuSans-37" transform="scale(.01563)"/></defs><use xlink:href="#DejaVuSans-32"/><use x="63.623" xlink:href="#DejaVuSans-30"/><use x="127.246" xlink:href="#DejaVuSans-31"/><use x="190.869" xlink:href="#DejaVuSans-37"/></g></g><g id="xtick_8"><use style="fill:#969696;stroke:#969696;stroke-width:.4" x="340.039" xlink:href="#mc6473e162c" y="289.059" id="line2d_9"/><g style="fill:#969696" transform="matrix(.14 0 0 -.14 322.224 306.696)" id="text_8"><defs><path d="M2034 2216q-450 0-708-241-257-241-257-662 0-422 257-663 258-241 708-241t709 242q260 243 260 662 0 421-258 662-257 241-711 241zm-631 268q-406 100-633 378-226 279-226 679 0 559 398 884 399 325 1092 325 697 0 1094-325t397-884q0-400-227-679-226-278-629-378 456-106 710-416 255-309 255-755 0-679-414-1042Q2806-91 2034-91q-771 0-1186 362-414 363-414 1042 0 446 256 755 257 310 713 416zm-231 997q0-362 226-565 227-203 636-203 407 0 636 203 230 203 230 565 0 363-230 566-229 203-636 203-409 0-636-203-226-203-226-566z" id="DejaVuSans-38" transform="scale(.01563)"/></defs><use xlink:href="#DejaVuSans-32"/><use x="63.623" xlink:href="#DejaVuSans-30"/><use x="127.246" xlink:href="#DejaVuSans-31"/><use x="190.869" xlink:href="#DejaVuSans-38"/></g></g><g id="xtick_9"><use style="fill:#969696;stroke:#969696;stroke-width:.4" x="372.736" xlink:href="#mc6473e162c" y="289.059" id="line2d_10"/><g style="fill:#969696" transform="matrix(.14 0 0 -.14 354.921 306.696)" id="text_9"><defs><path d="M703 97v575q238-113 481-172 244-59 479-59 625 0 954 420 330 420 377 1277-181-269-460-413-278-144-615-144-700 0-1108 423-408 424-408 1159 0 718 425 1152 425 435 1131 435 810 0 1236-621 427-620 427-1801 0-1103-524-1761Q2575-91 1691-91q-238 0-482 47Q966 3 703 97zm1256 1978q425 0 673 290 249 291 249 798 0 503-249 795-248 292-673 292t-673-292q-248-292-248-795 0-507 248-798 248-290 673-290z" id="DejaVuSans-39" transform="scale(.01563)"/></defs><use xlink:href="#DejaVuSans-32"/><use x="63.623" xlink:href="#DejaVuSans-30"/><use x="127.246" xlink:href="#DejaVuSans-31"/><use x="190.869" xlink:href="#DejaVuSans-39"/></g></g><g id="xtick_10"><use style="fill:#969696;stroke:#969696;stroke-width:.4" x="405.434" xlink:href="#mc6473e162c" y="289.059" id="line2d_11"/><g style="fill:#969696" transform="matrix(.14 0 0 -.14 387.619 306.696)" id="text_10"><use xlink:href="#DejaVuSans-32"/><use x="63.623" xlink:href="#DejaVuSans-30"/><use x="127.246" xlink:href="#DejaVuSans-32"/><use x="190.869" xlink:href="#DejaVuSans-30"/></g></g><g id="xtick_11"><use style="fill:#969696;stroke:#969696;stroke-width:.4" x="438.221" xlink:href="#mc6473e162c" y="289.059" id="line2d_12"/><g style="fill:#969696" transform="matrix(.14 0 0 -.14 420.406 306.696)" id="text_11"><use xlink:href="#DejaVuSans-32"/><use x="63.623" xlink:href="#DejaVuSans-30"/><use x="127.246" xlink:href="#DejaVuSans-32"/><use x="190.869" xlink:href="#DejaVuSans-31"/></g></g></g><g id="matplotlib.axis_2"><g id="ytick_1"><path clip-path="url(#p7e2c941c0c)" d="M98.073 240.738h357.12" style="fill:none;stroke:#969696;stroke-linecap:square;stroke-width:.3" id="line2d_13"/><g id="line2d_14"><defs><path d="M0 0h-3.5" id="mb49256b224" style="stroke:#969696;stroke-width:.3"/></defs><use style="fill:#969696;stroke:#969696;stroke-width:.3" x="98.073" xlink:href="#mb49256b224" y="240.738"/></g><g style="fill:#969696" transform="matrix(.14 0 0 -.14 55.443 246.057)" id="text_12"><use xlink:href="#DejaVuSans-32"/><use x="63.623" xlink:href="#DejaVuSans-30"/><use x="127.246" xlink:href="#DejaVuSans-30"/><use x="190.869" xlink:href="#DejaVuSans-30"/></g></g><g id="ytick_2"><path clip-path="url(#p7e2c941c0c)" d="M98.073 192.394h357.12" style="fill:none;stroke:#969696;stroke-linecap:square;stroke-width:.3" id="line2d_15"/><use style="fill:#969696;stroke:#969696;stroke-width:.3" x="98.073" xlink:href="#mb49256b224" y="192.394" id="line2d_16"/><g style="fill:#969696" transform="matrix(.14 0 0 -.14 55.443 197.713)" id="text_13"><use xlink:href="#DejaVuSans-34"/><use x="63.623" xlink:href="#DejaVuSans-30"/><use x="127.246" xlink:href="#DejaVuSans-30"/><use x="190.869" xlink:href="#DejaVuSans-30"/></g></g><g id="ytick_3"><path clip-path="url(#p7e2c941c0c)" d="M98.073 144.05h357.12" style="fill:none;stroke:#969696;stroke-linecap:square;stroke-width:.3" id="line2d_17"/><use style="fill:#969696;stroke:#969696;stroke-width:.3" x="98.073" xlink:href="#mb49256b224" y="144.049" id="line2d_18"/><g style="fill:#969696" transform="matrix(.14 0 0 -.14 55.443 149.368)" id="text_14"><use xlink:href="#DejaVuSans-36"/><use x="63.623" xlink:href="#DejaVuSans-30"/><use x="127.246" xlink:href="#DejaVuSans-30"/><use x="190.869" xlink:href="#DejaVuSans-30"/></g></g><g id="ytick_4"><path clip-path="url(#p7e2c941c0c)" d="M98.073 95.705h357.12" style="fill:none;stroke:#969696;stroke-linecap:square;stroke-width:.3" id="line2d_19"/><use style="fill:#969696;stroke:#969696;stroke-width:.3" x="98.073" xlink:href="#mb49256b224" y="95.705" id="line2d_20"/><g style="fill:#969696" transform="matrix(.14 0 0 -.14 55.443 101.024)" id="text_15"><use xlink:href="#DejaVuSans-38"/><use x="63.623" xlink:href="#DejaVuSans-30"/><use x="127.246" xlink:href="#DejaVuSans-30"/><use x="190.869" xlink:href="#DejaVuSans-30"/></g></g><g id="ytick_5"><path clip-path="url(#p7e2c941c0c)" d="M98.073 47.36h357.12" style="fill:none;stroke:#969696;stroke-linecap:square;stroke-width:.3" id="line2d_21"/><use style="fill:#969696;stroke:#969696;stroke-width:.3" x="98.073" xlink:href="#mb49256b224" y="47.361" id="line2d_22"/><g style="fill:#969696" transform="matrix(.14 0 0 -.14 46.536 52.68)" id="text_16"><use xlink:href="#DejaVuSans-31"/><use x="63.623" xlink:href="#DejaVuSans-30"/><use x="127.246" xlink:href="#DejaVuSans-30"/><use x="190.869" xlink:href="#DejaVuSans-30"/><use x="254.492" xlink:href="#DejaVuSans-30"/></g></g><g style="fill:#969696" transform="matrix(.14 0 0 -.14 7.2 17.838)" id="text_17"><defs><path d="M3809 666v1253H2778v519h1656V434q-365-259-806-392-440-133-940-133-1094 0-1712 639-617 640-617 1780 0 1144 617 1783 618 639 1712 639 456 0 867-113 411-112 758-331v-672q-350 297-744 447t-828 150q-857 0-1287-478-429-478-429-1425 0-944 429-1422 430-478 1287-478 334 0 596 58 263 58 472 180z" id="DejaVuSans-47" transform="scale(.01563)"/><path d="M603 3500h575V0H603v3500zm0 1363h575v-729H603v729z" id="DejaVuSans-69" transform="scale(.01563)"/><path d="M1172 4494v-994h1184v-447H1172V1153q0-428 117-550t477-122h590V0h-590q-666 0-919 248-253 249-253 905v1900H172v447h422v994h578z" id="DejaVuSans-74" transform="scale(.01563)"/><path d="M628 4666h631V2753h2294v1913h631V0h-631v2222H1259V0H628v4666z" id="DejaVuSans-48" transform="scale(.01563)"/><path d="M544 1381v2119h575V1403q0-497 193-746 194-248 582-248 465 0 735 297 271 297 271 810v1984h575V0h-575v538q-209-319-486-474-276-155-642-155-603 0-916 375-312 375-312 1097zm1447 2203z" id="DejaVuSans-75" transform="scale(.01563)"/><path d="M3116 1747q0 634-261 995t-717 361q-457 0-718-361t-261-995q0-634 261-995t718-361q456 0 717 361t261 995zM1159 2969q182 312 458 463 277 152 661 152 638 0 1036-506 399-506 399-1331T3314 415Q2916-91 2278-91q-384 0-661 152-276 152-458 464V0H581v4863h578V2969z" id="DejaVuSans-62" transform="scale(.01563)"/><path d="M2834 3397v-544q-243 125-506 187-262 63-544 63-428 0-642-131t-214-394q0-200 153-314t616-217l197-44q612-131 870-370t258-667q0-488-386-773Q2250-91 1575-91q-281 0-586 55T347 128v594q319-166 628-249 309-82 613-82 406 0 624 139 219 139 219 392 0 234-158 359-157 125-692 241l-200 47q-534 112-772 345-237 233-237 639 0 494 350 762 350 269 994 269 318 0 599-47 282-46 519-140z" id="DejaVuSans-73" transform="scale(.01563)"/><path d="M2194 1759q-697 0-966-159t-269-544q0-306 202-486 202-179 548-179 479 0 768 339t289 901v128h-572zm1147 238V0h-575v531q-197-318-491-470T1556-91q-537 0-855 302-317 302-317 808 0 590 395 890 396 300 1180 300h807v57q0 397-261 614t-733 217q-300 0-585-72-284-72-546-216v532q315 122 612 182 297 61 578 61 760 0 1135-394 375-393 375-1193z" id="DejaVuSans-61" transform="scale(.01563)"/><path d="M2631 2963q-97 56-211 82-114 27-251 27-488 0-749-317t-261-911V0H581v3500h578v-544q182 319 472 473 291 155 707 155 59 0 131-8 72-7 159-23l3-590z" id="DejaVuSans-72" transform="scale(.01563)"/></defs><use xlink:href="#DejaVuSans-47"/><use x="77.49" xlink:href="#DejaVuSans-69"/><use x="105.273" xlink:href="#DejaVuSans-74"/><use x="144.482" xlink:href="#DejaVuSans-48"/><use x="219.678" xlink:href="#DejaVuSans-75"/><use x="283.057" xlink:href="#DejaVuSans-62"/><use x="346.533" xlink:href="#DejaVuSans-20"/><use x="378.32" xlink:href="#DejaVuSans-73"/><use x="430.42" xlink:href="#DejaVuSans-74"/><use x="469.629" xlink:href="#DejaVuSans-61"/><use x="530.908" xlink:href="#DejaVuSans-72"/><use x="572.021" xlink:href="#DejaVuSans-73"/></g></g><path clip-path="url(#p7e2c941c0c)" d="m182.888 289.059 5.72-.29 12.844-.17 15.937-.362 7.15-.242 9.42-.242 4.343-.193 10.393-.363 2.902-.386 2.04-.387 13.201-.75 4.584-.58 18.697-1.232 2.238-.097 4.612-1.523 3.705-.58 3.727-.363 4.908-.58 2.218-.773 1.678-.363 2.868-.387 2-.386 2.95-.75 7.033-1.16 4.32-.75 5.653-1.498 1.818-.774 2.235-.362 1.338-.387 3.834-.773 2.17-.75 14.722-2.659 2.543-.386 6.319-1.523 3.497-.774 8.333-2.272 3.626-.75 1.068-.362 6.808-1.523 3.512-.773 5.308-1.91 2.94-.75 2.725-1.135 1.866-.387 1.648-.774 1.156-.749 1.806-.773 1.305-.75 6.063-2.272 2.063-.75 1.622-.773 2.528-.75 2.022-.773 4.328-2.272 1.622-.773 2.45-.75 2.89-1.523 5.706-2.296 4.286-1.305h0" style="fill:none;stroke:#aec7e8;stroke-linecap:square;stroke-width:1.5" id="line2d_23"/><path clip-path="url(#p7e2c941c0c)" d="m188.91 289.059 17.02-.798 3.68-.411 5.302-.604 1.568-.218 3.986-.41 1.737-.29 2.59-.122 5.832-.556 3.425-.266 5.336-.821 6.01-.605 8.154-1.04 10.114-1.812 5.67-.629 3.127-.41 3.48-.822 1.453-.411 2.353-.194.926-.217 3.1-.411 1.82-.411 4.1-.604 1.976-.218 3.59-.604 4.766-.604 3.727-.411 3.87-.822 8.585-1.644 3.046-.41 4.836-.823 3.215-.41 3.242-.412.955-.193 1.79-.218 7.067-1.62 3.048-.82 8.235-2.056 3.855-.821 1.953-.605 2.788-.217 1.745-.411 2.651-.822 5.307-.798 1.264-.41 5.894-1.233 2.008-.411 1.256-.411 4.997-1.233 2.08-.411 3.162-.41 2.52-.412 3.348-.822 4.436-.797 3.983-.822 14.354-4.931 1.473-.798 3.684-1.644 2.214-.822 5.158-1.643 1.666-.822 1.27-.822 2.246-.798 1.706-.822 1.287-.821 1.773-.822 2.328-.822 1.644-.822 4.211-1.644 4.279-1.28h0" style="fill:none;stroke:#17becf;stroke-linecap:square;stroke-width:1.5" id="line2d_24"/><g style="fill:#1f77b4" transform="matrix(.14 0 0 -.14 458.764 26.81)" id="text_18"><defs><path d="M-19 4666h3947v-532H2272V0h-634v4134H-19v532z" id="DejaVuSans-54" transform="scale(.01563)"/><path d="M1959 3097q-462 0-731-361t-269-989q0-628 267-989 268-361 733-361 460 0 728 362 269 363 269 988 0 622-269 986-268 364-728 364zm0 487q750 0 1178-488 429-487 429-1349 0-859-429-1349Q2709-91 1959-91q-753 0-1180 489-426 490-426 1349 0 862 426 1349 427 488 1180 488z" id="DejaVuSans-6f" transform="scale(.01563)"/><path d="M3513 2113V0h-575v2094q0 497-194 743-194 247-581 247-466 0-735-297-269-296-269-809V0H581v3500h578v-544q207 316 486 472 280 156 646 156 603 0 912-373 310-373 310-1098z" id="DejaVuSans-6e" transform="scale(.01563)"/><path d="M3597 1894v-281H953q38-594 358-905t892-311q331 0 642 81t618 244V178Q3153 47 2828-22t-659-69q-838 0-1327 487-489 488-489 1320 0 859 464 1363 464 505 1252 505 706 0 1117-455 411-454 411-1235zm-575 169q-6 471-264 752-258 282-683 282-481 0-770-272t-333-766l2050 4z" id="DejaVuSans-65" transform="scale(.01563)"/><path d="M603 3500h575V-63q0-668-255-968-254-300-820-300h-219v487H38q328 0 446 152Q603-541 603-63v3563zm0 1363h575v-729H603v729z" id="DejaVuSans-6a" transform="scale(.01563)"/><path d="M1625 4666h531L531-594H0l1625 5260z" id="DejaVuSans-2f" transform="scale(.01563)"/><path d="M684 794h660V0H684v794z" id="DejaVuSans-2e" transform="scale(.01563)"/></defs><use xlink:href="#DejaVuSans-54"/><use x="44.084" xlink:href="#DejaVuSans-6f"/><use x="105.266" xlink:href="#DejaVuSans-6e"/><use x="168.645" xlink:href="#DejaVuSans-65"/><use x="230.168" xlink:href="#DejaVuSans-6a"/><use x="257.951" xlink:href="#DejaVuSans-73"/><use x="310.051" xlink:href="#DejaVuSans-2f"/><use x="343.742" xlink:href="#DejaVuSans-54"/><use x="387.826" xlink:href="#DejaVuSans-6f"/><use x="449.008" xlink:href="#DejaVuSans-6e"/><use x="512.387" xlink:href="#DejaVuSans-65"/><use x="573.91" xlink:href="#DejaVuSans-2e"/><use x="605.697" xlink:href="#DejaVuSans-6a"/><use x="633.48" xlink:href="#DejaVuSans-73"/></g><g style="fill:#ff7f0e" transform="matrix(.14 0 0 -.14 458.764 46.68)" id="text_19"><defs><path d="M3513 3500 2247 1797 3578 0h-678L1881 1375 863 0H184l1360 1831L300 3500h678l928-1247 928 1247h679z" id="DejaVuSans-78" transform="scale(.01563)"/></defs><use xlink:href="#DejaVuSans-62"/><use x="63.477" xlink:href="#DejaVuSans-65"/><use x="125" xlink:href="#DejaVuSans-65"/><use x="186.523" xlink:href="#DejaVuSans-74"/><use x="225.732" xlink:href="#DejaVuSans-62"/><use x="289.209" xlink:href="#DejaVuSans-6f"/><use x="347.266" xlink:href="#DejaVuSans-78"/><use x="406.445" xlink:href="#DejaVuSans-2f"/><use x="440.137" xlink:href="#DejaVuSans-62"/><use x="503.613" xlink:href="#DejaVuSans-65"/><use x="565.137" xlink:href="#DejaVuSans-65"/><use x="626.66" xlink:href="#DejaVuSans-74"/><use x="665.869" xlink:href="#DejaVuSans-73"/></g><g style="fill:#2ca02c" transform="matrix(.14 0 0 -.14 458.764 86.44)" id="text_20"><defs><path d="m2188 4044-857-2322h1716l-859 2322zm-357 622h716L4325 0h-656l-425 1197H1141L716 0H50l1781 4666z" id="DejaVuSans-41" transform="scale(.01563)"/><path d="M2906 2969v1894h575V0h-575v525q-181-312-458-464-276-152-664-152-634 0-1033 506-398 507-398 1332t398 1331q399 506 1033 506 388 0 664-152 277-151 458-463zM947 1747q0-634 261-995t717-361q456 0 718 361 263 361 263 995t-263 995q-262 361-718 361t-717-361q-261-361-261-995z" id="DejaVuSans-64" transform="scale(.01563)"/><path d="M628 4666h631V2694l2094 1972h813L1850 2491 4331 0h-831L1259 2247V0H628v4666z" id="DejaVuSans-4b" transform="scale(.01563)"/></defs><use xlink:href="#DejaVuSans-41"/><use x="68.408" xlink:href="#DejaVuSans-75"/><use x="131.787" xlink:href="#DejaVuSans-64"/><use x="195.264" xlink:href="#DejaVuSans-69"/><use x="223.047" xlink:href="#DejaVuSans-6f"/><use x="284.229" xlink:href="#DejaVuSans-4b"/><use x="349.805" xlink:href="#DejaVuSans-69"/><use x="377.588" xlink:href="#DejaVuSans-74"/><use x="416.797" xlink:href="#DejaVuSans-2f"/><use x="450.488" xlink:href="#DejaVuSans-41"/><use x="518.896" xlink:href="#DejaVuSans-75"/><use x="582.275" xlink:href="#DejaVuSans-64"/><use x="645.752" xlink:href="#DejaVuSans-69"/><use x="673.535" xlink:href="#DejaVuSans-6f"/><use x="734.717" xlink:href="#DejaVuSans-4b"/><use x="800.293" xlink:href="#DejaVuSans-69"/><use x="828.076" xlink:href="#DejaVuSans-74"/></g><g style="fill:#d62728" transform="matrix(.14 0 0 -.14 458.764 100.44)" id="text_21"><defs><path d="M3122 3366v-538q-244 135-489 202t-495 67q-560 0-870-355-309-354-309-995t309-996q310-354 870-354 250 0 495 67t489 202V134Q2881 22 2623-34q-257-57-548-57-791 0-1257 497-465 497-465 1341 0 856 470 1346 471 491 1290 491 265 0 518-55 253-54 491-163z" id="DejaVuSans-63" transform="scale(.01563)"/><path d="M313 2009h1684v-512H313v512z" id="DejaVuSans-2d" transform="scale(.01563)"/><path d="M1159 525v-1856H581v4831h578v-531q182 312 458 463 277 152 661 152 638 0 1036-506 399-506 399-1331T3314 415Q2916-91 2278-91q-384 0-661 152-276 152-458 464zm1957 1222q0 634-261 995t-717 361q-457 0-718-361t-261-995q0-634 261-995t718-361q456 0 717 361t261 995z" id="DejaVuSans-70" transform="scale(.01563)"/></defs><use xlink:href="#DejaVuSans-73"/><use x="52.1" xlink:href="#DejaVuSans-6f"/><use x="113.281" xlink:href="#DejaVuSans-6e"/><use x="176.66" xlink:href="#DejaVuSans-69"/><use x="204.443" xlink:href="#DejaVuSans-63"/><use x="259.424" xlink:href="#DejaVuSans-2d"/><use x="295.508" xlink:href="#DejaVuSans-70"/><use x="358.984" xlink:href="#DejaVuSans-69"/><use x="386.768" xlink:href="#DejaVuSans-2d"/><use x="422.852" xlink:href="#DejaVuSans-6e"/><use x="486.23" xlink:href="#DejaVuSans-65"/><use x="547.754" xlink:href="#DejaVuSans-74"/><use x="586.963" xlink:href="#DejaVuSans-2f"/><use x="620.654" xlink:href="#DejaVuSans-73"/><use x="672.754" xlink:href="#DejaVuSans-6f"/><use x="733.936" xlink:href="#DejaVuSans-6e"/><use x="797.314" xlink:href="#DejaVuSans-69"/><use x="825.098" xlink:href="#DejaVuSans-63"/><use x="880.078" xlink:href="#DejaVuSans-2d"/><use x="916.162" xlink:href="#DejaVuSans-70"/><use x="979.639" xlink:href="#DejaVuSans-69"/></g><g style="fill:#9467bd" transform="matrix(.14 0 0 -.14 458.764 134.95)" id="text_22"><defs><path d="M581 4863h578V1991l1716 1509h734L1753 1863 3688 0h-750L1159 1709V0H581v4863z" id="DejaVuSans-6b" transform="scale(.01563)"/><path d="M603 4863h575V0H603v4863z" id="DejaVuSans-6c" transform="scale(.01563)"/></defs><use xlink:href="#DejaVuSans-6e"/><use x="63.379" xlink:href="#DejaVuSans-75"/><use x="126.758" xlink:href="#DejaVuSans-6b"/><use x="181.043" xlink:href="#DejaVuSans-65"/><use x="242.566" xlink:href="#DejaVuSans-6f"/><use x="303.748" xlink:href="#DejaVuSans-70"/><use x="367.225" xlink:href="#DejaVuSans-2f"/><use x="400.916" xlink:href="#DejaVuSans-6e"/><use x="464.295" xlink:href="#DejaVuSans-75"/><use x="527.674" xlink:href="#DejaVuSans-63"/><use x="582.654" xlink:href="#DejaVuSans-6c"/><use x="610.438" xlink:href="#DejaVuSans-65"/><use x="671.961" xlink:href="#DejaVuSans-61"/><use x="733.24" xlink:href="#DejaVuSans-72"/></g><g style="fill:#8c564b" transform="matrix(.14 0 0 -.14 458.764 148.95)" id="text_23"><defs><path d="M1259 4147V519h763q966 0 1414 437 448 438 448 1382 0 937-448 1373t-1414 436h-763zm-631 519h1297q1356 0 1990-564 635-564 635-1764 0-1207-638-1773Q3275 0 1925 0H628v4666z" id="DejaVuSans-44" transform="scale(.01563)"/><path d="M628 4666h631V0H628v4666z" id="DejaVuSans-49" transform="scale(.01563)"/><path d="M-13 4666h679l1293-1919 1285 1919h678L2272 2222V0h-634v2222L-13 4666z" id="DejaVuSans-59" transform="scale(.01563)"/><path d="M2906 1791q0 625-258 968-257 344-723 344-462 0-720-344-258-343-258-968 0-622 258-966t720-344q466 0 723 344 258 344 258 966zm575-1357q0-893-397-1329-396-436-1215-436-303 0-572 45t-522 139v559q253-137 500-202 247-66 503-66 566 0 847 295t281 892v285q-178-310-456-463T1784 0Q1141 0 747 490 353 981 353 1791q0 812 394 1302 394 491 1037 491 388 0 666-153t456-462v531h575V434z" id="DejaVuSans-67" transform="scale(.01563)"/><path d="M1259 4147V2394h794q441 0 681 228 241 228 241 650 0 419-241 647-240 228-681 228h-794zm-631 519h1425q785 0 1186-355 402-355 402-1039 0-691-402-1044-401-353-1186-353h-794V0H628v4666z" id="DejaVuSans-50" transform="scale(.01563)"/><path d="M2059-325q-243-625-475-815-231-191-618-191H506v481h338q237 0 368 113 132 112 291 531l103 262L191 3500h609L1894 763l1094 2737h609L2059-325z" id="DejaVuSans-79" transform="scale(.01563)"/></defs><use xlink:href="#DejaVuSans-44"/><use x="77.002" xlink:href="#DejaVuSans-49"/><use x="106.494" xlink:href="#DejaVuSans-59"/><use x="167.578" xlink:href="#DejaVuSans-67"/><use x="231.055" xlink:href="#DejaVuSans-6f"/><use x="292.236" xlink:href="#DejaVuSans-64"/><use x="355.713" xlink:href="#DejaVuSans-2f"/><use x="389.404" xlink:href="#DejaVuSans-41"/><use x="457.813" xlink:href="#DejaVuSans-50"/><use x="518.115" xlink:href="#DejaVuSans-6c"/><use x="545.898" xlink:href="#DejaVuSans-61"/><use x="607.178" xlink:href="#DejaVuSans-79"/><use x="666.357" xlink:href="#DejaVuSans-65"/><use x="727.881" xlink:href="#DejaVuSans-72"/></g><g style="fill:#e377c2" transform="matrix(.14 0 0 -.14 458.764 162.95)" id="text_24"><use xlink:href="#DejaVuSans-61"/><use x="61.279" xlink:href="#DejaVuSans-75"/><use x="124.658" xlink:href="#DejaVuSans-64"/><use x="188.135" xlink:href="#DejaVuSans-61"/><use x="249.414" xlink:href="#DejaVuSans-63"/><use x="304.395" xlink:href="#DejaVuSans-69"/><use x="332.178" xlink:href="#DejaVuSans-74"/><use x="371.387" xlink:href="#DejaVuSans-79"/><use x="430.566" xlink:href="#DejaVuSans-2f"/><use x="464.258" xlink:href="#DejaVuSans-61"/><use x="525.537" xlink:href="#DejaVuSans-75"/><use x="588.916" xlink:href="#DejaVuSans-64"/><use x="652.393" xlink:href="#DejaVuSans-61"/><use x="713.672" xlink:href="#DejaVuSans-63"/><use x="768.652" xlink:href="#DejaVuSans-69"/><use x="796.436" xlink:href="#DejaVuSans-74"/><use x="835.645" xlink:href="#DejaVuSans-79"/></g><g style="fill:#7f7f7f" transform="matrix(.14 0 0 -.14 458.764 176.95)" id="text_25"><defs><path d="M628 4666h631V531h2272V0H628v4666z" id="DejaVuSans-4c" transform="scale(.01563)"/><path d="M628 4666h941l1190-3175 1197 3175h941V0h-616v4097L3078 897h-634L1241 4097V0H628v4666z" id="DejaVuSans-4d" transform="scale(.01563)"/><path d="M3425 4513v-616q-359 172-678 256-319 85-616 85-515 0-795-200t-280-569q0-310 186-468 186-157 705-254l381-78q706-135 1042-474t336-907q0-679-455-1029Q2797-91 1919-91q-331 0-705 75-373 75-773 222v650q384-215 753-325 369-109 725-109 540 0 834 212 294 213 294 607 0 343-211 537t-692 291l-385 75q-706 140-1022 440-315 300-315 835 0 619 436 975t1201 356q329 0 669-60 341-59 697-177z" id="DejaVuSans-53" transform="scale(.01563)"/><path d="M3328 2828q216 388 516 572t706 184q547 0 844-383 297-382 297-1088V0h-578v2094q0 503-179 746-178 244-543 244-447 0-707-297-259-296-259-809V0h-578v2094q0 506-178 748t-550 242q-441 0-701-298-259-298-259-808V0H581v3500h578v-544q197 322 472 475t653 153q382 0 649-194 267-193 395-562z" id="DejaVuSans-6d" transform="scale(.01563)"/></defs><use xlink:href="#DejaVuSans-4c"/><use x="55.713" xlink:href="#DejaVuSans-4d"/><use x="141.992" xlink:href="#DejaVuSans-4d"/><use x="228.271" xlink:href="#DejaVuSans-53"/><use x="291.748" xlink:href="#DejaVuSans-2f"/><use x="325.439" xlink:href="#DejaVuSans-6c"/><use x="353.223" xlink:href="#DejaVuSans-6d"/><use x="450.635" xlink:href="#DejaVuSans-6d"/><use x="548.047" xlink:href="#DejaVuSans-73"/></g><g style="fill:#bcbd22" transform="matrix(.14 0 0 -.14 458.764 199.327)" id="text_26"><use xlink:href="#DejaVuSans-74"/><use x="39.209" xlink:href="#DejaVuSans-65"/><use x="100.732" xlink:href="#DejaVuSans-6d"/><use x="198.145" xlink:href="#DejaVuSans-70"/><use x="261.621" xlink:href="#DejaVuSans-6f"/><use x="322.803" xlink:href="#DejaVuSans-72"/><use x="363.916" xlink:href="#DejaVuSans-61"/><use x="425.195" xlink:href="#DejaVuSans-72"/><use x="466.309" xlink:href="#DejaVuSans-79"/><use x="523.738" xlink:href="#DejaVuSans-2d"/><use x="559.822" xlink:href="#DejaVuSans-61"/><use x="621.102" xlink:href="#DejaVuSans-75"/><use x="684.48" xlink:href="#DejaVuSans-64"/><use x="747.957" xlink:href="#DejaVuSans-61"/><use x="809.236" xlink:href="#DejaVuSans-63"/><use x="864.217" xlink:href="#DejaVuSans-69"/><use x="892" xlink:href="#DejaVuSans-74"/><use x="931.209" xlink:href="#DejaVuSans-79"/><use x="990.389" xlink:href="#DejaVuSans-2f"/><use x="1024.08" xlink:href="#DejaVuSans-61"/><use x="1085.359" xlink:href="#DejaVuSans-75"/><use x="1148.738" xlink:href="#DejaVuSans-64"/><use x="1212.215" xlink:href="#DejaVuSans-61"/><use x="1273.494" xlink:href="#DejaVuSans-63"/><use x="1328.475" xlink:href="#DejaVuSans-69"/><use x="1356.258" xlink:href="#DejaVuSans-74"/><use x="1395.467" xlink:href="#DejaVuSans-79"/></g><g style="fill:#17becf" transform="matrix(.14 0 0 -.14 458.764 234.109)" id="text_27"><use xlink:href="#DejaVuSans-6d"/><use x="97.412" xlink:href="#DejaVuSans-69"/><use x="125.195" xlink:href="#DejaVuSans-78"/><use x="184.375" xlink:href="#DejaVuSans-78"/><use x="243.555" xlink:href="#DejaVuSans-78"/><use x="302.734" xlink:href="#DejaVuSans-64"/><use x="366.211" xlink:href="#DejaVuSans-6a"/><use x="393.994" xlink:href="#DejaVuSans-2f"/><use x="427.686" xlink:href="#DejaVuSans-6d"/><use x="525.098" xlink:href="#DejaVuSans-69"/><use x="552.881" xlink:href="#DejaVuSans-78"/><use x="612.061" xlink:href="#DejaVuSans-78"/><use x="671.24" xlink:href="#DejaVuSans-78"/></g><g style="fill:#aec7e8" transform="matrix(.14 0 0 -.14 458.764 248.109)" id="text_28"><use xlink:href="#DejaVuSans-41"/><use x="68.408" xlink:href="#DejaVuSans-72"/><use x="107.771" xlink:href="#DejaVuSans-64"/><use x="171.248" xlink:href="#DejaVuSans-6f"/><use x="232.43" xlink:href="#DejaVuSans-75"/><use x="295.809" xlink:href="#DejaVuSans-72"/><use x="336.922" xlink:href="#DejaVuSans-2f"/><use x="370.613" xlink:href="#DejaVuSans-61"/><use x="431.893" xlink:href="#DejaVuSans-72"/><use x="471.256" xlink:href="#DejaVuSans-64"/><use x="534.732" xlink:href="#DejaVuSans-6f"/><use x="595.914" xlink:href="#DejaVuSans-75"/><use x="659.293" xlink:href="#DejaVuSans-72"/></g><g style="fill:#ffbb78" transform="matrix(.14 0 0 -.14 458.764 266.284)" id="text_29"><defs><path d="M213 4666h637l981-3944 978 3944h710l981-3944 978 3944h641L4947 0h-794l-984 4050L2175 0h-794L213 4666z" id="DejaVuSans-57" transform="scale(.01563)"/><path d="M269 3500h575l719-2731 715 2731h678l719-2731 716 2731h575L4050 0h-678l-753 2869L1863 0h-679L269 3500z" id="DejaVuSans-77" transform="scale(.01563)"/></defs><use xlink:href="#DejaVuSans-50"/><use x="58.053" xlink:href="#DejaVuSans-69"/><use x="85.836" xlink:href="#DejaVuSans-70"/><use x="149.313" xlink:href="#DejaVuSans-65"/><use x="210.836" xlink:href="#DejaVuSans-57"/><use x="307.463" xlink:href="#DejaVuSans-69"/><use x="335.246" xlink:href="#DejaVuSans-72"/><use x="374.109" xlink:href="#DejaVuSans-65"/><use x="435.633" xlink:href="#DejaVuSans-2f"/><use x="469.324" xlink:href="#DejaVuSans-70"/><use x="532.801" xlink:href="#DejaVuSans-69"/><use x="560.584" xlink:href="#DejaVuSans-70"/><use x="624.061" xlink:href="#DejaVuSans-65"/><use x="685.584" xlink:href="#DejaVuSans-77"/><use x="767.371" xlink:href="#DejaVuSans-69"/><use x="795.154" xlink:href="#DejaVuSans-72"/><use x="834.018" xlink:href="#DejaVuSans-65"/></g><g style="fill:#969696" transform="matrix(.09716 0 0 -.09716 98.073 323.12)" id="text_30"><defs><path d="M191 3500h609L1894 563l1094 2937h609L2284 0h-781L191 3500z" id="DejaVuSans-76" transform="scale(.01563)"/><path d="M3513 2113V0h-575v2094q0 497-194 743-194 247-581 247-466 0-735-297-269-296-269-809V0H581v4863h578V2956q207 316 486 472 280 156 646 156 603 0 912-373 310-373 310-1098z" id="DejaVuSans-68" transform="scale(.01563)"/><path d="M1344 4891v-6400H813v6400h531z" id="DejaVuSans-7c" transform="scale(.01563)"/><path d="M628 4666h850L3547 763v3903h612V0h-850L1241 3903V0H628v4666z" id="DejaVuSans-4e" transform="scale(.01563)"/><path d="M1959 3097q-462 0-731-361t-269-989q0-628 267-989 268-361 733-361 460 0 728 362 269 363 269 988 0 622-269 986-268 364-728 364zm0 487q750 0 1178-488 429-487 429-1349 0-859-429-1349Q2709-91 1959-91q-753 0-1180 489-426 490-426 1349 0 862 426 1349 427 488 1180 488zm295 1266h634v-631h-634v631zm-1222 0h634v-631h-634v631z" id="DejaVuSans-f6" transform="scale(.01563)"/><path d="M4122 4306v-665q-319 297-680 443-361 147-767 147-800 0-1225-489t-425-1414q0-922 425-1411t1225-489q406 0 767 147t680 444V359q-331-225-702-338-370-112-782-112-1060 0-1670 648-609 649-609 1771 0 1125 609 1773 610 649 1670 649 418 0 788-111 371-111 696-333z" id="DejaVuSans-43" transform="scale(.01563)"/><path d="M1259 2228V519h1013q509 0 754 211 246 211 246 645 0 438-246 645-245 208-754 208H1259zm0 1919V2741h935q462 0 688 173 227 174 227 530 0 353-227 528-226 175-688 175h-935zm-631 519h1613q722 0 1112-300 391-300 391-853 0-429-200-682t-588-315q466-100 724-418 258-317 258-792 0-625-425-966Q3088 0 2303 0H628v4666z" id="DejaVuSans-42" transform="scale(.01563)"/></defs><use xlink:href="#DejaVuSans-47"/><use x="77.49" xlink:href="#DejaVuSans-69"/><use x="105.273" xlink:href="#DejaVuSans-74"/><use x="144.482" xlink:href="#DejaVuSans-48"/><use x="219.678" xlink:href="#DejaVuSans-75"/><use x="283.057" xlink:href="#DejaVuSans-62"/><use x="346.533" xlink:href="#DejaVuSans-20"/><use x="378.32" xlink:href="#DejaVuSans-41"/><use x="446.729" xlink:href="#DejaVuSans-50"/><use x="507.031" xlink:href="#DejaVuSans-49"/><use x="536.523" xlink:href="#DejaVuSans-20"/><use x="568.311" xlink:href="#DejaVuSans-76"/><use x="627.49" xlink:href="#DejaVuSans-69"/><use x="655.273" xlink:href="#DejaVuSans-61"/><use x="716.553" xlink:href="#DejaVuSans-20"/><use x="748.34" xlink:href="#DejaVuSans-73"/><use x="800.439" xlink:href="#DejaVuSans-74"/><use x="839.648" xlink:href="#DejaVuSans-61"/><use x="900.928" xlink:href="#DejaVuSans-72"/><use x="940.291" xlink:href="#DejaVuSans-67"/><use x="1003.768" xlink:href="#DejaVuSans-72"/><use x="1044.881" xlink:href="#DejaVuSans-61"/><use x="1106.16" xlink:href="#DejaVuSans-70"/><use x="1169.637" xlink:href="#DejaVuSans-68"/><use x="1233.016" xlink:href="#DejaVuSans-20"/><use x="1264.803" xlink:href="#DejaVuSans-7c"/><use x="1298.494" xlink:href="#DejaVuSans-20"/><use x="1330.281" xlink:href="#DejaVuSans-4e"/><use x="1405.086" xlink:href="#DejaVuSans-69"/><use x="1432.869" xlink:href="#DejaVuSans-63"/><use x="1487.85" xlink:href="#DejaVuSans-6f"/><use x="1549.031" xlink:href="#DejaVuSans-20"/><use x="1580.818" xlink:href="#DejaVuSans-53"/><use x="1644.295" xlink:href="#DejaVuSans-63"/><use x="1699.275" xlink:href="#DejaVuSans-68"/><use x="1762.654" xlink:href="#DejaVuSans-6c"/><use x="1790.438" xlink:href="#DejaVuSans-f6"/><use x="1851.619" xlink:href="#DejaVuSans-6d"/><use x="1949.031" xlink:href="#DejaVuSans-65"/><use x="2010.555" xlink:href="#DejaVuSans-72"/><use x="2051.668" xlink:href="#DejaVuSans-20"/><use x="2083.455" xlink:href="#DejaVuSans-7c"/><use x="2117.146" xlink:href="#DejaVuSans-20"/><use x="2148.934" xlink:href="#DejaVuSans-43"/><use x="2218.758" xlink:href="#DejaVuSans-43"/><use x="2288.582" xlink:href="#DejaVuSans-20"/><use x="2320.369" xlink:href="#DejaVuSans-42"/><use x="2383.473" xlink:href="#DejaVuSans-59"/></g><path clip-path="url(#p7e2c941c0c)" d="m454.737 289.059.456-93.595" style="fill:none;stroke:#bcbd22;stroke-linecap:square;stroke-width:1.5" id="line2d_25"/><path clip-path="url(#p7e2c941c0c)" d="m209.96 289.059 1.168-.46 2.49-.338 2.413-.12 1.331-.218 2.758-.242 6.21-.701 1.144-.242 4.967-.677.617-.241 4.023-.943 4.392-.919 4.534-1.402 1.726-.217 3.36-.725 7.04-1.378 1.9-.484 2.47-.918 2.254-.46 1.63-.483 4.047-.918 3.768-1.402 5.36-1.427 1.527-.459 2.248-.46.713-.458 2.02-.484 2.632-.918 4.093-.943 6.787-1.378 8.1-2.369 1.861-.918 2.185-.943 7.157-2.78 1.644-.943 2.015-.942 10.133-3.723 2.01-.943 1.594-.918 4.05-1.886 1.537-.942 1.946-.919 1.71-.943 2.596-1.86 3.35-1.862 1.545-.943 6.02-2.804 2.238-.918 1.67-.943 2.223-.919 5.437-2.828 4.377-3.722 2.474-1.861 1.613-1.886 7.946-5.584.811-1.885 7.703-5.584 1.778-.943 1.246-.942 1.74-1.862 1.623-.918 1.098-.943 1.713-.918 5.77-4.69 1.047-1.861 7.746-7.47 2.15-1.86 1.709-1.886 2.176-1.861 5.046-3.723 2.113-1.885 4.647-3.723 2.05-1.861 2.474-1.885 1.883-1.862 4.366-3.722 2.01-1.886 2.23-1.45 1.96-1.45h0" style="fill:none;stroke:#7f7f7f;stroke-linecap:square;stroke-width:1.5" id="line2d_26"/><path clip-path="url(#p7e2c941c0c)" d="m249.886 289.059 1.174-.46 2.529-.483 2.683-.46.435-.12 2.372-.121 1.596-.242 1.071-.217 2.028-.242 1.272-.242 1.47-.242 2.528-.459 1.472-.483 2.042-.46 1.016-.483 1.39-.46 2.35-.483 1.833-.217 1.115-.242 1.716-.483 1.047-.242 1.86-.242 1.972-.483 2.229-.46 2.341-.483 1.438-.46 1.658-.483 1.492-.459 2.036-.483 1.668-.46 1.83-.483 1.858-.46 1.636-.483 1.888-.46 1.533-.483 1.881-.459 1.266-.483 1.817-.484 1.048-.483 2.645-.943 1.93-.46.808-.483 1.968-.459 2.384-.483 1.467-.46 1.299-.483 2.687-.943 2.436-.942 1.363-.46 1.378-.483 2.162-.967 1.355-.46 1.453-.483 2.631-.943 1.939-.942 2.451-.943 2.377-.943 1.06-.459 1.813-.483 2.401-.943 1.282-.484 1.6-.483 1.822-.46 1.794-.483 1.637-.459 1.38-.483 1.127-.943 2.166-.943 2.265-.943 2.14-.942 2.318-.943 2.068-.967 1.764-.943 1.731-.942 1.977-1.886 2.055-3.795 2.627-1.885 2.668-1.886 1.58-.942 2.054-.943 1.78-.943 1.864-.483 1.418-.484 1.574-.942 1.886-.943 1.124-.943 1.59-.943 1.432-.942 1.601-.943 1.841-.943 1.77-.967 1.829-.942 1.166-.943 1.485-1.885 1.992-1.886 1.7-1.91 2.016-1.885 2.378-1.885 2.534-1.886 2.444-1.91 1.691-1.885 1.467-.943 1.489-.942 1.776-.943.981-.943 1.998-1.91 1.93-1.885 1.666-1.885 2.313-1.886 1.725-1.91.946-3.77 2.616-3.795.88-7.566.536-15.156 1.294-6.188.834-3.094 2.09-3.118" style="fill:none;stroke:#e377c2;stroke-linecap:square;stroke-width:1.5" id="line2d_27"/><path clip-path="url(#p7e2c941c0c)" d="m270.305 289.059 1.031-8.364 1.464-2.079 2.218-1.04 1.544-1.063 1.632-.507 1.56-.532 2.25-1.04 1.699-.507 1.302-.532.574-1.064 1.11-2.078 2.243-2.103 1.665-.508 1.65-.532 2.523-1.04 1.942-1.039 1.41-.531 1.353-.532 2.158-1.04 1.624-.507 1.15-.532 1.58-1.04 1.362-.531 1.457-.532 2.157-1.04 1.36-1.063 1.679-1.04 1.77-1.063 1.193-1.04 2.04-1.039 2.075-1.04 2.603-1.063 2.23-2.079 2.501-2.102 1.47-1.04 1.392-1.04 1.699-1.039 1.815-1.063 2.305-1.04 1.377-1.063 2.519-2.103 2.489-2.08 2.216-1.038.661-1.064 2-2.079 2.083-2.103 1.882-2.079 2.244-2.103 1.75-1.039 1.933-1.064 1.56-1.039 1.473-1.064 1.214-1.039 1.832-1.04 2.504-2.102 2.376-2.08 2.358-2.102 1.833-2.079 1.348-1.04 1.7-1.063 1.963-2.079 2.34-2.103 2.443-2.079 2.502-2.103 1.769-1.039 1.781-1.04 1.816-2.102 1.338-1.04 1.425-1.04 2.668-2.102 1.328-1.04 1.539-1.063 2.591-2.103 2.275-2.079 2.037-2.103 1.799-1.04 1.55-1.039 2.156-2.103 2.381-2.079 2.038-2.103 2.637-2.102 1.107-1.04 1.676-1.063 1.23-1.04 1.62-1.04 1.773-1.039 1.538-1.063 1.612-1.04 1.788-1.04 1.285-1.038 1.949-1.064 1.367-1.04 1.442-1.039 1.651-1.04 2.084-1.063 1.887-1.04 1.345-.531 1.672-.532 2.323-1.04 1.797-1.063 1.972-.75 2.26-.749" style="fill:none;stroke:#8c564b;stroke-linecap:square;stroke-width:1.5" id="line2d_28"/><path clip-path="url(#p7e2c941c0c)" d="m308.672 289.059 2.726-.025.576-.048.005-.072.015-.145.053-.29.173-.605 1.277-1.208 1.824-1.185 1.677-.604 2.339-.604 1.98-.29 2.017-.146 1.867-.145.738-.145 2.369-.145 1.477-.145 1.77-.169 1.785-.29 1.804-.145 1.412-.073 2.01-.096.69-.073 2.386-.072 1.55-.145 1.04-.315 1.8-.29.777-.145 2.13-.145 2.464-.29 2.505-.314 1.787-.29 1.928-.145 2.176-.17 1.835-.604 2.11-.145 1.34-.145 2.493-.29 1.807-.29 2.513-.314 2.157-1.209.02-2.393.049-4.786.058-19.144.95-38.313 1.477-19.145 1.464-4.786.92-1.184 1.938-1.209 2.592-1.184 1.92-1.209 2.437-1.184 1.337-1.209 2.067-2.393 1.318-1.184 2.128-1.209 2.569-1.209.99-1.208 1.898-1.185 2.376-1.208 2.482-1.185 1.842-1.208.615-2.393 1.012-1.185 1.769-1.208 1.115-1.185 1.77-1.208 1.839-1.185 1.625-1.208 1.892-1.185 2.161-1.208 2.358-1.185L425.03 155l1.677-1.184 1.947-1.209 2.568-1.184 1.843-1.209 1.963-1.184 2.164-1.209 1.718-1.184 1.503-1.209 1.71-2.393 2.53-2.393 2.501-2.393 1.254-1.208 1.519-1.21 2.134-1.667 2.102-1.668" style="fill:none;stroke:#9467bd;stroke-linecap:square;stroke-width:1.5" id="line2d_29"/><path clip-path="url(#p7e2c941c0c)" d="m199.707 289.059.692-.17 2.24-.193 12.569-.363.59-.169 5.863-.386 6.581-.75 2.513-.193 1.963-.75 2.3-2.997 2.323-.362 1.02-.387.483-.363 2.66-.387 1.665-1.498 4.97-.75 2.635-.749 2.583-.363 1.005-.386 1.023-.75 1.952-.725 2.48-.75 4.395-2.247 2.17-.75 2.386-1.498 1.862-1.499 2.316-1.499 2.373-.749 1.57-.75.843-1.498.742-2.973 1.498-1.499 2.334-1.498 1.92-1.5 2-.748.967-.75 1.78-.75 1.222-.748 1.639-.75 2.913-.75 3.676-2.223 1.818-.75 2.16-1.498 2.76-1.499 1.806-.749 2.12-.75 2.906-1.498 1.711-.75 1.334-.749 1.584-.749 3.824-1.475 2.09-.749 2.512-.75.734-.749 1.977-.749 2.49-.75 2.59-1.498 1.907-.75 3.303-2.247 5.274-5.97 2.445-2.998 1.47-1.499 1.766-1.499 1.16-2.997 1.824-5.97 2.289-5.995 1.513-2.973 1.73-2.998 2.683-5.994 2.465-1.475 4.732-1.499 3.275-1.498 4.544-1.499 1.243-.75 2.346-.749 2.143-1.498 1.791-.75 2.542-1.498 5.223-2.224 3.851-2.248 1.585-.75 2.603-1.498 1.718-1.499 1.914-1.499 4.008-2.248 1.663-.749 2.009-2.973 1.785-2.997 1.728-1.5 1.152-1.498 2.144-2.997 1.756-5.97 2.228-2.998 1.376-1.499 2.092-1.498 7.98-4.472 1.484-1.499 2.618-5.995.15-11.965 2.113-11.965 2.127-2.997 1.957-2.998 1.605-1.499 5.774-4.496 2.284-1.015 1.904-1.04h0" style="fill:none;stroke:#d62728;stroke-linecap:square;stroke-width:1.5" id="line2d_30"/><path clip-path="url(#p7e2c941c0c)" d="m236.916 289.059.31-6.333.253-3.167.4-1.595.605-.798 2.146-.798 2.375-1.571 1.151-1.595 1.42-.387 1.508-.387 2.428-.798 1.227-.797 1.706-.798 2.563-.773 1.91-.798 2.254-.798.64-.797 1.289-.798 2.528-.798 1.566-.798 2.197-.797 1.18-.774 1.964-.797 1.272-.798 2.41-.798 2.58-3.166.655-3.167 2.617-3.19 1.72-1.572 2.08-1.595 2.306-1.596 1.654-1.595 1.54-.773 1.172-.798 2.283-1.595 1.62-1.596 1.267-1.595 1.204-3.167 1.758-1.571 1.86-1.595 1.52-1.572 1.692-1.595 1.992-3.19 1.117-1.572 2.04-1.595 1.778-1.596 1.37-1.595 2.255-3.166 1.887-3.191 2.684-3.167 2.387-1.571 2.118-1.595 1.573-1.572 1.506-1.595 1.43-1.595 2.107-1.596 2.642-6.357 1.161-1.571 1.839-1.595 2.286-3.191 2.636-6.333 2.052-3.167 2.497-3.19 1.967-3.167 2.097-3.167 1.258-1.571 1.523-1.595 1.382-1.596 1.466-1.595 2.085-3.167 1.574-1.57 1.832-1.596 1.466-1.571 2.069-1.596 1.66-1.595 2.183-1.595 1.568-1.572 1.376-1.595 1.71-1.595 2.185-1.596 1.938-1.571 1.715-1.595 2.321-3.191 1.715-1.571 1.772-1.596 2.064-1.57 1.443-.799 1.72-.797 1.422-.774 1.352-.797 2.012-1.596 1.542-.797 1.182-.798 1.707-1.595 1.822-1.572 2.09-1.595 2.436-1.595 2.315-1.596 2.184-1.571 2.472-1.595 1.967-1.596 2.208-1.595 1.844-1.571 1.754-1.596 1.94-1.57 2.315-1.596 2.647-1.571 2.363-1.596 2.423-1.595 2.288-1.595 1.958-1.572 2.15-1.595 1.89-1.595 1.192-1.596 1.637-1.571 1.62-.798 1.257-.797 2.52-1.596 2.226-1.595 2.207-1.112 2.005-1.136" style="fill:none;stroke:#2ca02c;stroke-linecap:square;stroke-width:1.5" id="line2d_31"/><path clip-path="url(#p7e2c941c0c)" d="m98.073 289.059 1.14-4.496 3.395-.242 9.893-.846 2.58-.121 1.247-.218 7.468-.725 6.407-.241 3.41-.242 1.09-.121 5.003-.242 4.48-.338.747-.121 2.56-.12 1.157-.243 22.363-.531 9.646-.194 1.672-.483 2.282-.46 1.198-.483 6.154-1.426 3.828-.484 7.042-1.426 1.15-.483 1.646-.484 4.977-.942 1.638-.484 2.462-.967.03-13.367.167-15.253 1.083-7.638 1.817-3.82L221.87 228l2.155-.943 1.063-.943 5.188-2.852 4.138-2.877 1.874-1.91 1.644-1.909 2.618-1.91 1.588-1.91 1.835-1.909 1.119-.942 2.04-.967 2.78-1.91 2.172-1.91 2.152-.942.772-.967 1.632-.943 4.014-1.91 1.38-.966 2.083-.943 2.582-.967 1.02-.943 1.686-.942 3.012-1.91 1.888-.943 1.287-.967 2.042-.942 4.33-2.877 2.574-1.91 2.275-1.909 1.986-.943 1.071-.967.11-3.819 1.802-1.91 3.915-1.909 1.748-1.91 3.336-2.852 1.594-.967 1.898-.943 1.033-.966 2.377-1.886 2.91-1.91 5.413-4.761 1.487-.967 3.61-1.91 1.176-.943 1.585-.967 2.4-1.91 2.093-.942 1.479-.967 2.188-1.91 1.416-.942 1.905-.967 2.583-1.91 2.937-7.638 1.888-3.795 1.64-3.82 1.476-3.818 1.328-3.82 3.003-7.638 1.274-3.82 3.579-7.614.704-.942 2.026-.967 1.633-.943 1.935-.967 2.171-.942 1.929-.967 2.377-.943 1.566-.967 3.844-1.91 1.593-.942 1.953-.967 1.862-1.91 4.364-1.91 4.097-1.909 1.569-.943 2.151-.967 7.043-3.819 1.214-.942 2.01-.967 2.39-1.91 3.36-1.91 2.346-.942 1.117-.967 1.32-.943 1.777-.967 1.487-.943 1.254-.966 2.105-1.91 1.463-.943 2.08-.967 1.394-.942 4.907-2.877 2.854-1.91 2.45-1.909 1.547-.943 1.296-.967 3.013-1.91 4.954-3.818 1.807-.943 3.929-2.877 2.681-.99 1.491-.992h0" style="fill:none;stroke:#ff7f0e;stroke-linecap:square;stroke-width:1.5" id="line2d_32"/><path clip-path="url(#p7e2c941c0c)" d="m215.782 289.059 2.084-.073 14.053-.17.219-1.812 1.286-2.055 1.057-.241 7.928-.774 4.341-1.04 2.631-.507 1.032-.508 2.78-.507 1.897-.532 1.156-1.015 2.659-1.04.742-.507 2.42-.508.02-1.04 2.03-2.054 5.427-1.523 2.176-.266.758-.265 1.849-1.016 3.618-1.04 2.596-2.054.635-4.109 2.933-3.07 3.717-2.055 3.24-3.094 1.686-2.054 1.185-1.015 1.625-1.04 1.03-2.055 1.422-1.015 2.557-1.04 2.031-2.054.741-2.054 1.228-2.055 2.482-2.055 2.175-4.109 2.493-4.11 2.341-4.109 1.994-2.054 2.218-2.055 1.35-2.054 1.52-1.016 1.338-1.04 2.307-2.054 5.37-4.109 2.047-2.055 1.764-2.054 1.58-2.055 3.247-3.07 1.573-1.04.976-4.108 2.076-4.11 2.072-2.054 1.385-2.055 3.285-4.11 1.66-4.109 3.79-4.109 2.351-2.055 1.616-2.054 1.357-8.219 1.17-4.109 1.413-2.055 1.63-2.078 1.453-2.055 2.12-2.055 3.968-4.109 1.716-2.055 1.051-2.054 3.622-4.11 1.514-16.437.59-16.437 2.208-8.218 1.41-2.055 2.12-2.055 1.615-2.054 1.286-2.055 3.553-4.11 2.58-4.108 3.609-6.164 3.675-4.11 2.312-2.054 1.931-2.055 2.1-2.055 1.971-4.109 1.344-2.054 1.511-2.055 1.329-2.055 1.71-2.054 1.438-2.055 1.756-2.055 1.925-2.054 2.27-2.055 2.508-2.055 2.102-2.054 1.62-1.015 1.411-1.04 2.292-2.054 1.537-1.016 3.695-3.094 2.094-2.054 2.81-2.055 2.312-2.055 6.893-5.148h0" style="fill:none;stroke:#1f77b4;stroke-linecap:square;stroke-width:1.5" id="line2d_33"/></g></g><defs><clipPath id="p7e2c941c0c"><path d="M98.073 22.947h357.12v266.112H98.073z"/></clipPath></defs></svg>