<svg height="442.903" viewBox="0 0 581.311 332.177" width="775.082" xmlns="http://www.w3.org/2000/svg" xmlns:xlink="http://www.w3.org/1999/xlink"><defs><style>*{stroke-linecap:butt;stroke-linejoin:round}</style></defs><g id="figure_1"><path d="M0 332.177h581.311V0H0z" fill="none" id="patch_1"/><g id="axes_1"><path d="M53.127 289.361h357.12V23.25H53.127z" fill="none" id="patch_2"/><g id="matplotlib.axis_1"><g id="xtick_1"><g id="line2d_1"><defs><path d="M0 0v3.5" id="m94da279deb" stroke="#969696" stroke-width=".4"/></defs><use x="83.872" xlink:href="#m94da279deb" y="289.361" fill="#969696" stroke="#969696" stroke-width=".4"/></g><g id="text_1"><defs><path d="M4.39 45.125q0 12.39 6.391 18.781 6.406 6.407 17.938 6.407 9.656 0 15.812-5.86 6.157-5.86 6.157-15.14 0-7.22-3.547-12.188-3.532-4.953-10.422-8.703l-12.11-6.64Q13.922 15.921 12.5 8.296h38.188V0H2.593q.39 9.906 4.297 16.5 3.906 6.594 12.203 11.375l12.593 7.328q5.032 2.89 7.329 5.984 2.297 3.094 2.297 8.516 0 5.375-3.766 9.031-3.75 3.672-10.156 3.672-7.078 0-10.594-4.672-3.516-4.656-3.61-12.609z" id="HelveticaWorld-Regular-50"/><path d="M42.484 34.188q0 14.109-3.734 21.156-3.734 7.062-10.969 7.062-7.078 0-10.89-7.062-3.797-7.047-3.797-21.157 0-13.671 3.75-20.937Q20.609 6 27.78 6q7.235 0 10.969 7 3.734 7.016 3.734 21.188zm9.422 0q0-17.297-6.25-26.704-6.25-9.39-17.875-9.39-12.062 0-18.062 9.734-6 9.75-6 26.36 0 17.03 6.14 26.578 6.157 9.547 17.922 9.547 11.625 0 17.875-9.5t6.25-26.626z" id="HelveticaWorld-Regular-48"/><path d="M35.89 0h-9.374v49.906H10.109v6.985q8.594.28 12.782 2.75Q27.094 62.109 29 70.313h6.89z" id="HelveticaWorld-Regular-49"/></defs><g transform="matrix(.14 0 0 -.14 68.302 306.41)" fill="#969696"><use xlink:href="#HelveticaWorld-Regular-50"/><use x="55.615" xlink:href="#HelveticaWorld-Regular-48"/><use x="111.23" xlink:href="#HelveticaWorld-Regular-49"/><use x="166.846" xlink:href="#HelveticaWorld-Regular-48"/></g></g></g><g id="xtick_2" fill="#969696"><use x="145.973" xlink:href="#m94da279deb" y="289.361" stroke="#969696" stroke-width=".4" id="line2d_2"/><g transform="matrix(.14 0 0 -.14 130.402 306.41)" id="text_2"><use xlink:href="#HelveticaWorld-Regular-50"/><use x="55.615" xlink:href="#HelveticaWorld-Regular-48"/><use x="111.23" xlink:href="#HelveticaWorld-Regular-49"/><use x="166.846" xlink:href="#HelveticaWorld-Regular-50"/></g></g><g id="xtick_3"><use x="208.158" xlink:href="#m94da279deb" y="289.361" fill="#969696" stroke="#969696" stroke-width=".4" id="line2d_3"/><g id="text_3"><defs><path d="M10.594 24.703h22.61v31.89h-.188zM42 17.093V0h-8.797v17.094H2.484v8.593L34.72 70.314H42v-45.61h10.297v-7.61z" id="HelveticaWorld-Regular-52"/></defs><g transform="matrix(.14 0 0 -.14 192.587 306.41)" fill="#969696"><use xlink:href="#HelveticaWorld-Regular-50"/><use x="55.615" xlink:href="#HelveticaWorld-Regular-48"/><use x="111.23" xlink:href="#HelveticaWorld-Regular-49"/><use x="166.846" xlink:href="#HelveticaWorld-Regular-52"/></g></g></g><g id="xtick_4"><use x="270.258" xlink:href="#m94da279deb" y="289.361" fill="#969696" stroke="#969696" stroke-width=".4" id="line2d_4"/><g id="text_4"><defs><path d="M14.11 21.578q0-6.875 4.093-11.234Q22.313 6 28.906 6q6.297 0 10.032 4.438 3.734 4.453 3.734 11.687 0 6.297-3.688 10.547-3.687 4.25-10.468 4.25-6.594 0-10.5-4.156-3.907-4.157-3.907-11.188zM41.702 51.61q-.984 5.375-3.984 8.078-3 2.72-8.125 2.72-8.11 0-12.36-7.923-4.25-7.906-4.343-18.109l.203-.188q5.61 8.641 16.687 8.641 8.844 0 15.438-5.86 6.593-5.859 6.593-16.452 0-10.5-6.25-17.47-6.25-6.952-16.843-6.952-12.219 0-18.563 8.687-6.344 8.703-6.344 25.938 0 16.593 6.485 27.093 6.5 10.5 19.484 10.5 8.407 0 14.219-5.015 5.813-5 6.297-13.688z" id="HelveticaWorld-Regular-54"/></defs><g transform="matrix(.14 0 0 -.14 254.688 306.41)" fill="#969696"><use xlink:href="#HelveticaWorld-Regular-50"/><use x="55.615" xlink:href="#HelveticaWorld-Regular-48"/><use x="111.23" xlink:href="#HelveticaWorld-Regular-49"/><use x="166.846" xlink:href="#HelveticaWorld-Regular-54"/></g></g></g><g id="xtick_5"><use x="332.444" xlink:href="#m94da279deb" y="289.361" fill="#969696" stroke="#969696" stroke-width=".4" id="line2d_5"/><g id="text_5"><defs><path d="M27.594 40.578q5.422 0 8.953 3.094 3.547 3.11 3.547 8.234 0 4.594-3.407 7.547-3.39 2.953-9.687 2.953-5.61 0-8.672-3.11-3.047-3.093-3.047-7.874 0-5.125 3.813-7.984 3.812-2.86 8.5-2.86zm.093-7.562q-6.78 0-10.64-3.766-3.86-3.766-3.86-9.234 0-6.297 3.907-10.157Q21 6 28.219 6q6.406 0 10.234 3.86 3.828 3.859 3.828 10.265 0 5.469-3.828 9.172-3.828 3.719-10.766 3.719zM49.22 52.203q0-10.594-9.032-14.797 6.204-2.781 8.86-7.36 2.656-4.562 2.656-9.733 0-10.016-6.453-16.125-6.438-6.094-17.375-6.094-9.563 0-16.813 5.25-7.25 5.25-7.25 17.062 0 11.922 11.907 16.907-9.516 3.796-9.516 13.671 0 8.297 5.64 13.813 5.641 5.516 15.641 5.516 10.016 0 15.875-5.204 5.86-5.203 5.86-12.906z" id="HelveticaWorld-Regular-56"/></defs><g transform="matrix(.14 0 0 -.14 316.873 306.41)" fill="#969696"><use xlink:href="#HelveticaWorld-Regular-50"/><use x="55.615" xlink:href="#HelveticaWorld-Regular-48"/><use x="111.23" xlink:href="#HelveticaWorld-Regular-49"/><use x="166.846" xlink:href="#HelveticaWorld-Regular-56"/></g></g></g><g id="xtick_6" fill="#969696"><use x="394.544" xlink:href="#m94da279deb" y="289.361" stroke="#969696" stroke-width=".4" id="line2d_6"/><g transform="matrix(.14 0 0 -.14 378.974 306.41)" id="text_6"><use xlink:href="#HelveticaWorld-Regular-50"/><use x="55.615" xlink:href="#HelveticaWorld-Regular-48"/><use x="111.23" xlink:href="#HelveticaWorld-Regular-50"/><use x="166.846" xlink:href="#HelveticaWorld-Regular-48"/></g></g></g><g id="matplotlib.axis_2"><g id="ytick_1"><path clip-path="url(#p268a3fa9ec)" d="M53.127 251.364h357.12" fill="none" stroke="#969696" stroke-linecap="square" stroke-width=".3" id="line2d_7"/><g id="line2d_8"><defs><path d="M0 0h-3.5" id="m798e2b604b" stroke="#969696" stroke-width=".3"/></defs><use x="53.127" xlink:href="#m798e2b604b" y="251.364" fill="#969696" stroke="#969696" stroke-width=".3"/></g><g transform="matrix(.14 0 0 -.14 14.985 256.39)" fill="#969696" id="text_7"><use xlink:href="#HelveticaWorld-Regular-50"/><use x="55.615" xlink:href="#HelveticaWorld-Regular-48"/><use x="111.23" xlink:href="#HelveticaWorld-Regular-48"/><use x="166.846" xlink:href="#HelveticaWorld-Regular-48"/></g></g><g id="ytick_2"><path clip-path="url(#p268a3fa9ec)" d="M53.127 213.348h357.12" fill="none" stroke="#969696" stroke-linecap="square" stroke-width=".3" id="line2d_9"/><use x="53.127" xlink:href="#m798e2b604b" y="213.348" fill="#969696" stroke="#969696" stroke-width=".3" id="line2d_10"/><g transform="matrix(.14 0 0 -.14 14.985 218.373)" fill="#969696" id="text_8"><use xlink:href="#HelveticaWorld-Regular-52"/><use x="55.615" xlink:href="#HelveticaWorld-Regular-48"/><use x="111.23" xlink:href="#HelveticaWorld-Regular-48"/><use x="166.846" xlink:href="#HelveticaWorld-Regular-48"/></g></g><g id="ytick_3"><path clip-path="url(#p268a3fa9ec)" d="M53.127 175.332h357.12" fill="none" stroke="#969696" stroke-linecap="square" stroke-width=".3" id="line2d_11"/><use x="53.127" xlink:href="#m798e2b604b" y="175.332" fill="#969696" stroke="#969696" stroke-width=".3" id="line2d_12"/><g transform="matrix(.14 0 0 -.14 14.985 180.357)" fill="#969696" id="text_9"><use xlink:href="#HelveticaWorld-Regular-54"/><use x="55.615" xlink:href="#HelveticaWorld-Regular-48"/><use x="111.23" xlink:href="#HelveticaWorld-Regular-48"/><use x="166.846" xlink:href="#HelveticaWorld-Regular-48"/></g></g><g id="ytick_4"><path clip-path="url(#p268a3fa9ec)" d="M53.127 137.316h357.12" fill="none" stroke="#969696" stroke-linecap="square" stroke-width=".3" id="line2d_13"/><use x="53.127" xlink:href="#m798e2b604b" y="137.316" fill="#969696" stroke="#969696" stroke-width=".3" id="line2d_14"/><g transform="matrix(.14 0 0 -.14 14.985 142.341)" fill="#969696" id="text_10"><use xlink:href="#HelveticaWorld-Regular-56"/><use x="55.615" xlink:href="#HelveticaWorld-Regular-48"/><use x="111.23" xlink:href="#HelveticaWorld-Regular-48"/><use x="166.846" xlink:href="#HelveticaWorld-Regular-48"/></g></g><g id="ytick_5"><path clip-path="url(#p268a3fa9ec)" d="M53.127 99.3h357.12" fill="none" stroke="#969696" stroke-linecap="square" stroke-width=".3" id="line2d_15"/><use x="53.127" xlink:href="#m798e2b604b" y="99.3" fill="#969696" stroke="#969696" stroke-width=".3" id="line2d_16"/><g transform="matrix(.14 0 0 -.14 7.2 104.325)" fill="#969696" id="text_11"><use xlink:href="#HelveticaWorld-Regular-49"/><use x="55.615" xlink:href="#HelveticaWorld-Regular-48"/><use x="111.23" xlink:href="#HelveticaWorld-Regular-48"/><use x="166.846" xlink:href="#HelveticaWorld-Regular-48"/><use x="222.461" xlink:href="#HelveticaWorld-Regular-48"/></g></g><g id="ytick_6"><path clip-path="url(#p268a3fa9ec)" d="M53.127 61.284h357.12" fill="none" stroke="#969696" stroke-linecap="square" stroke-width=".3" id="line2d_17"/><use x="53.127" xlink:href="#m798e2b604b" y="61.284" fill="#969696" stroke="#969696" stroke-width=".3" id="line2d_18"/><g transform="matrix(.14 0 0 -.14 7.2 66.31)" fill="#969696" id="text_12"><use xlink:href="#HelveticaWorld-Regular-49"/><use x="55.615" xlink:href="#HelveticaWorld-Regular-50"/><use x="111.23" xlink:href="#HelveticaWorld-Regular-48"/><use x="166.846" xlink:href="#HelveticaWorld-Regular-48"/><use x="222.461" xlink:href="#HelveticaWorld-Regular-48"/></g></g><g id="ytick_7"><path clip-path="url(#p268a3fa9ec)" d="M53.127 23.268h357.12" fill="none" stroke="#969696" stroke-linecap="square" stroke-width=".3" id="line2d_19"/><use x="53.127" xlink:href="#m798e2b604b" y="23.268" fill="#969696" stroke="#969696" stroke-width=".3" id="line2d_20"/><g transform="matrix(.14 0 0 -.14 7.2 28.293)" fill="#969696" id="text_13"><use xlink:href="#HelveticaWorld-Regular-49"/><use x="55.615" xlink:href="#HelveticaWorld-Regular-52"/><use x="111.23" xlink:href="#HelveticaWorld-Regular-48"/><use x="166.846" xlink:href="#HelveticaWorld-Regular-48"/><use x="222.461" xlink:href="#HelveticaWorld-Regular-48"/></g></g></g><path clip-path="url(#p268a3fa9ec)" d="M143.36 289.361l1.698-19.35 3.476-1.026 1.56-.494 2.289-1.027 1.523-.513 1.844-1.026 5.008-2.034 1.996-.514 1.438-.513 3.56-.741 3.365-.513 6.667-1.027 2.61-.114 2.175-1.672 5.856-5.095 3.551-2.033 4.167-3.08 4.812-4.067 2.364-2.034 1.404-2.053 2.09-2.034 1.676-1.007 7.53-7.148 5.929-5.113 6.198-5.094 4.135-4.087 3.368-4.067 2.036-2.034 2.3-2.053 4.05-4.068 7.564-8.154 2.425-2.034 3.838-4.087 1.525-2.034 1.713-2.033 2.25-2.053 2.019-2.034 1.769-2.034 1.356-2.034 2.093-2.053 1.47-2.034 2.086-2.033 1.783-2.034 3.403-4.087 3.935-4.087 6.155-6.12 1.829-2.034 2.105-2.053 1.57-2.034 5.287-6.12 2.093-2.034 1.718-2.034 2.978-4.087 3.557-4.068 1.65-2.033 2.137-2.053 1.68-2.034 2.008-2.034 1.767-2.034 2.116-2.053 1.69-2.034 1.137-2.033 3.095-4.087 1.322-2.034 7.553-8.154 3.146-4.087 7.576-8.155 1.203-1.026 1.427-1.026 4.01-4.068 2.302-2.034 1.809-2.053 2.179-2.034 1.5-2.034 1.898-2.033 1.673-2.053 2.044-2.034 1.853-2.053 3.376-4.087 1.82-2.034 1.523-2.033 9.098-8.155 2.383-2.034 1.703-2.053 1.406-2.033 2.052-2.034 1.669-2.034 4.416-4.087 2.136-2.053 1.677-2.034 1.536-2.052 2.408-1.255 1.515-1.274 2.192-2.547h0" fill="none" stroke="#1f77b4" stroke-linecap="square" stroke-width="1.5" id="line2d_21"/><path clip-path="url(#p268a3fa9ec)" d="M143.305 289.361l1.018-8.458 2.346-.323 2.745-.304 16.368-1.597 9.199-.57 5.661-.21.753-.152 2.74-.95 4.905-1.254 2.84-.628 2.042-.323 1.028-.323 5.685-1.255 1.724-.627 2.2-.627 4.853-1.882 13.922-5.037 6.908-1.882 3.218-1.254 3.233-1.255 1.398-1.273 2.424-2.51 3.66-1.881 1.616-.646 4.615-2.51 1.819-.627 1.164-.627 2.953-1.274 4.786-2.509 3.715-2.509 3.068-3.763.992-.628 1.638-.646 1.515-1.254 3.97-2.51 3.7-2.527 1.491-.628 1.13-.627 1.54-1.255 2.155-1.273 4.602-2.51 3.282-1.88 1.556-.647 1.747-1.255 3.379-1.881 1.337-.628 1.985-1.273 1.612-1.255 2.02-1.254 1.71-1.255 3.124-2.528 3.438-2.509 4.314-2.528 1.655-1.255 5.369-3.763 1.276-1.255 1.688-1.254 1.246-1.274 3.698-2.509 3.716-3.782 1.672-1.255 3.964-3.783 1.884-1.254 1.232-1.255 1.722-1.254 7.407-7.546 4.817-5.037 1.501-1.255 1.156-1.273 1.313-2.51 2.405-2.509 1.791-2.509 1.233-2.528 1.475-2.509 2.467-2.528 1.638-2.509 2.151-2.528 2.537-2.509 1.869-1.255 1.205-1.273 2.03-1.255 1.766-1.254 1.803-2.528 2.533-2.51 2.467-1.254 2.157-1.273 7.116-5.037 2.16-.59.79-.589 1.287-1.178 1.876-2.357h0" fill="none" stroke="#ff7f0e" stroke-linecap="square" stroke-width="1.5" id="line2d_22"/><path clip-path="url(#p268a3fa9ec)" d="M173.51 289.361l.26-2.85 2.9-.172 1.629-.095 2.514-.076 1.645-.171 3.19-.59 2.202-.094 3.61-.514 4.672-.513 7.747-1.35 3.11-.684 4.35-.684 3.586-1.007 1.64-.685 2.376-.684 1.935-.684 2.375-.665 3.65-.685 3.834-1.026 2.366-.342 3.627-1.008 1.874-.342 2.354-.684 1.265-.684 4.551-1.35 1.972-.684 4.724-1.35 1.807-.684 2.261-1.369 3.065-1.35 3.645-1.349 8.835-2.718 1.698-.665 1.151-.685 3.308-1.368 1.825-.665 2.258-.685 1.757-.684 6.049-2.034 3.531-1.368 1.872-.666 1.067-.684 4.213-1.369 2.46-.665 1.689-.684 2.018-.684 2.911-1.35 8.848-3.402 1.264-.666 7.748-2.718 2.167-.684 1.276-.665 1.732-.685 1.274-.684 1.938-.684 1.081-.666 3.293-1.368 4.684-1.35 3.891-1.368 3.95-1.35 1.691-.684.889-.684 3.727-1.35 4.24-2.053 1.772-.665 7.154-3.403 1.476-1.35 1.1-1.349 1.863-.684 2.961-1.35 1.608-.684.85-.684 2.136-.684 1.43-1.35 2.052-1.369 2.134-2.718 2.409-2.718 1.836-1.35 3-1.368 3.16-1.35 1.534-.684 1.051-.684 2.357-1.901 2.843-1.92.94-3.84h0" fill="none" stroke="#2ca02c" stroke-linecap="square" stroke-width="1.5" id="line2d_23"/><path clip-path="url(#p268a3fa9ec)" d="M137.814 289.361l.128-5.17 8.425-1.292 10.526-1.578 2.827-.266 3.678-.513 4.273-.342 5.943-.172 7.881-.513 5.131-.78 2.692-.265.61-.513.41-1.046.841-.247 1.824-.266 2.023-.513 2.969-.514 1.553-.532 2.477-.513 2.495-.78 1.787-.265 8.902-1.806 2.564-.266 2.273-.266 1.167-.266 6.317-1.027 3.24-.513 2.445-1.046 2.396-.513 3.374-.513 2.696-.532 2.242-.513 1.747-.533 10.456-2.319 4.232-.798.844-.247 1.798-.266 3.01-1.027 2.934-.532 7.234-2.072 2.494-2.09 1.618-.514 3.031-.513 3.552-1.045 1.81-.514 7.087-1.558 3.999-1.027 4.095-.513 1.708-.532 4.187-1.046 5.205-1.805 4.237-.78 4.464-1.045.86-.513 6.768-1.56 6.371-1.558 4.567-1.558 4.64-1.046 2.175-.513 1.185-.513 1.545-.532 3.672-1.54 2.915-1.046 2.243-.513 1.043-.513 4.553-1.045 4.756-1.578 2.261-1.027 2.232-.513 1.2-.532 1.435-.513 1.838-.513 6.553-1.56 3.472-.512 2.33-.513 1.648-.533 8.794-1.824 1.386-.267 2.798-.152.349-.152 2.99-.95h0" fill="none" stroke="#d62728" stroke-linecap="square" stroke-width="1.5" id="line2d_24"/><path clip-path="url(#p268a3fa9ec)" d="M53.127 289.361l.04-1.007 4.104-.361 8.206-.646 6.377-.609 2.09-.133 3.794-.38 8.478-.646 1.074-.266 7.554-1.008 9.619-1.52 6.248-.76 8.71-1.274 6.168-1.255 2.392-.266 1.68-.494 3.938-.76 1.808-.267 6.49-1.254 3.555-.513 8.066-.78 1.677-.247 4.366-.494.661-.133 2.263-.133 1.742-.247 7.118-.323 9.2-.247.578-.21 6.259-1.007 5.086-1.007 4.334-.495 10.723-2.28 3.71-.78 6.414-1.254 6.096-1.027 1.22-.266 4.947-.741 2.106-.78 2.875-.513 2.32-.494 1.15-.513 11.382-2.547 1.934-.513 2.619-.495 8.5-2.034 3.22-1.007.886-.513 1.45-.494 2.005-.514 2.727-1.026 4.178-1.007 2.48-.76 2.468-.267 6.264-1.52 10.552-3.023 3.524-1.026 2.53-.513 3.846-1.008 1.963-.513 2.52-.513 2.643-.742 2.027-.266.965-.247 1.621-.266 4.406-1.007 1.696-.514 8.962-2.014.918-1.027 1.036-.494 1.612-.513 3.548-1.027 1.543-.494 2.786-.513 3.425-.76 2.284-.267 4.767-1.007.74-.247 4.89-.78 2.81-.494 4.076-.76 1.97-.266 4.149-.76 12.41-1.787 4.51-.494 2.194-.38 4.533-.38 4.175-.78 2.77-.076.949-.266 2.343-.342h0" fill="none" stroke="#9467bd" stroke-linecap="square" stroke-width="1.5" id="line2d_25"/><path clip-path="url(#p268a3fa9ec)" d="M171.986 289.361l1.628-.475 13.899-.228.617-.076 3.75-.209 3.503-.323 1.712-.114 4.325-.285 6.294-.419 4.611-.285 6.097-.437 3.832-.418 6.91-.437 31.721-4.03 1.186-.285 11.638-1.369 1.29-.076 1.35-.285 3.764-.418 4.017-.285 14.51-1.863 2.995-.57 7.137-1.445 4.228-.57 14.541-2.87 1.596-.59 2.034-.57 15.505-3.421 2.322-.285 1.279-.304 1.876-.285.76-.286 1.082-.285 3.101-.57 9.82-2.015 2.927-.57 1.491-.59 1.942-.57 2.733-.57 1.967-.57 5.157-1.14 4.738-1.14 3.065-1.16 1.408-.57 7.02-1.73 2.005-.57 2.738-1.16 2.293-.323 3.787-1.008h0" fill="none" stroke="#8c564b" stroke-linecap="square" stroke-width="1.5" id="line2d_26"/><path clip-path="url(#p268a3fa9ec)" d="M198.725 289.361l.629-.095.718-.038 1.594-.019.97-.038 1.34-.095 1.925-.114 1.106-.038 1.738-.057.03-.019.216-.019 4.156-.019 1.974-.057.08-.019 3.216-.019 1.515-.057 2.008-.114 2.36-.038.94-.019 2.094-.038 2.502-.057 1.904-.057.486-.038 2.714-.02.658-.037 2.082-.114 1.292-.02 2.507-.018 1.95-.057 2.328-.114 1.736-.21 1.503-.037 2.164-.057 2.431-.095 2.338-.095 2.231-.057 1.62-.057.687-.039 1.331-.019 1.47-.038 2.133-.057.64-.057 2.146-.095 1.531-.114 1.57-.095 1.83-.114 2.329-.095 1.83-.114.164-.038.6-.019 2.077-.038 2.098-.057 1.108-.057 1.52-.095 2.098-.114 1.329-.038 1.447-.057.516-.095 1.592-.21 2.206-.208 1.286-.21 1.09-.208 1.88-.21 1.864-.095 1.68-.114 2.013-.209 1.91-.209 1.66-.209 2.24-.209 1.413-.21 2.033-.208 1.798-.21 2.365-.208 1.519-.095 1.383-.114 2.427-.19 1.573-.096 2.247-.114 2.507-.209 1.306-.095 1.81-.114 1.822-.209 1.147-.095.007-.019.743-.019 1.842-.019.977-.057.59-.038 2.103-.057 1.455-.114 1.759-.21 1.962-.19 1.114-.094 2.25-.114 2.059-.21 2.366-.094 1.494-.114 1.282-.21 2.55-.209 1.652-.209 2.084-.209 2.164-.19 2.312-.209 1.737-.21 1.68-.094 1.187-.114 2.46-.21.726-.094 2.183-.114 1.808-.095 1.262-.114 2.546-.21 1.042-.095 2.153-.114 1.88-.209 1.546-.095 1.552-.114 1.363-.095 1.924-.114 2.32-.209 2.207-.209 2.358-.21 2.34-.208 1.413-.133 1.975-.133 1.275-.133 1.42-.133" fill="none" stroke="#e377c2" stroke-linecap="square" stroke-width="1.5" id="line2d_27"/><path clip-path="url(#p268a3fa9ec)" d="M120.062 289.361l.379-.684 5.4-.19 21.19-.228 18.627-.323 25.144-.133 2.856-.114 6.085-.133 5.527-.247 12.126-.38 8.587-.362 5.75-.133 9.31-.608 5.85-.304 27.575-1.426 5.19-.418 5.628-.19 4.744-.21 1.202-.417 1.859-.4 7.151-.399 5.115-.285 21.826-1.235 29.587-1.73.975-.095 14.475-.722 3.334-.19 3.125-.096 12.938-.722 5.187-.209 5.43-.361 4.09-.285 3.841-.228h0" fill="none" stroke="#7f7f7f" stroke-linecap="square" stroke-width="1.5" id="line2d_28"/><g id="text_14"><defs><path d="M31.11 0H20.796L2.094 71.781h10.5l13.39-58.406h.235L42.28 71.781h10.594L69 13.375h.188l13.437 58.406h10.781L74.422 0h-10.11L47.907 59.516h-.203z" id="HelveticaWorld-Regular-87"/><path d="M12.703 26.219q0-8.735 3.953-14.375 3.953-5.64 11.219-5.64 7.531 0 11.438 5.905 3.906 5.907 3.906 14.11 0 8.297-3.907 14.078-3.906 5.797-11.437 5.797-6.969 0-11.078-5.453-4.094-5.438-4.094-14.422zm-8.984 0q0 11.672 6.484 19.625 6.5 7.968 17.672 7.968 11.438 0 17.875-8.062 6.453-8.047 6.453-19.531 0-11.516-6.406-19.625-6.39-8.11-17.922-8.11-11.078 0-17.625 7.86-6.531 7.86-6.531 19.875z" id="HelveticaWorld-Regular-111"/><path d="M15.375 0H6.594v52.297h8.297v-8.688h.203q5.703 10.203 14.687 10.203 1.422 0 2.297-.296V44.39h-3.266q-5.906 0-9.671-4.016-3.766-4-3.766-9.953z" id="HelveticaWorld-Regular-114"/><path d="M13.094 26.313q0-9.704 3.844-14.954 3.859-5.25 10.265-5.25 6.094 0 10.188 4.485 4.109 4.5 4.109 13.094 0 11.03-3.5 16.625-3.484 5.593-10.61 5.593-6.78 0-10.546-4.453-3.75-4.437-3.75-15.14zM50.39 0h-8.297v7.172h-.203q-4.97-8.688-15.078-8.688-10.891 0-16.86 8.297Q4 15.094 4 27.688q0 11.625 5.906 18.875 5.922 7.25 15.875 7.25 9.813 0 15.625-8.891l.203.594V71.78h8.782z" id="HelveticaWorld-Regular-100"/><path d="M17.828 38.625H37.11q7.282 0 10.938 3.188 3.656 3.203 3.656 9.703 0 5.812-3.516 8.89-3.515 3.078-10.687 3.078H17.828zm0-38.625H8.11v71.781h32.266q9.625 0 15.484-5.594 5.86-5.593 5.86-14.578 0-9.328-5.672-15.312-5.656-5.969-15.672-5.969H17.828z" id="HelveticaWorld-Regular-80"/><path d="M42.484 30.328q-.687 8.485-4.5 12.031-3.797 3.547-10.109 3.547-6.39 0-10.328-4.5-3.922-4.484-4.172-11.078zm8.391-13.922q-1.453-8.11-7.953-13.422-5.719-4.5-15.047-4.593-10.984.093-17.438 7.203Q4 12.704 4 24.704q0 13.78 6.64 21.437 6.641 7.672 18.47 7.672 10.593 0 16.546-7.922 5.953-7.907 5.953-22.594H13.375q0-8.203 3.813-12.703Q21 6.109 28.608 6.109q5.375 0 9.235 3.235 3.86 3.25 4.25 7.062z" id="HelveticaWorld-Regular-101"/><path d="M36.078 37.406q-.187 4.688-3.344 6.735-3.14 2.047-9.047 2.047-4.296 0-7.359-1.907-3.047-1.89-3.047-5.468 0-2.829 1.797-4.172 1.813-1.344 7.828-2.86l8.688-2.187q7.906-2 11.297-5.11 3.406-3.093 3.406-8.656 0-7.719-5.64-12.531-5.641-4.813-15.063-4.813-11 0-16.64 4.563-5.626 4.578-5.735 13.75h8.5q.203-5.422 3.594-8.063 3.39-2.625 10.171-2.625 5.516 0 8.766 2.188 3.25 2.203 3.25 6.11 0 2.78-2.11 4.437-2.093 1.672-8.296 3.078l-10.203 2.5q-6.203 1.562-9.157 4.656-2.953 3.094-2.953 8.031 0 7.72 5.516 12.203 5.531 4.5 14.406 4.5 9.485 0 14.531-4.624 5.047-4.61 5.344-11.782z" id="HelveticaWorld-Regular-115"/><path d="M4.984-1.906h-6.687l24.61 75.594H29.5z" id="HelveticaWorld-Regular-47"/></defs><g transform="matrix(.14 0 0 -.14 413.818 26.825)" fill="#1f77b4"><use xlink:href="#HelveticaWorld-Regular-87"/><use x="90.438" xlink:href="#HelveticaWorld-Regular-111"/><use x="146.346" xlink:href="#HelveticaWorld-Regular-114"/><use x="177.914" xlink:href="#HelveticaWorld-Regular-100"/><use x="234.896" xlink:href="#HelveticaWorld-Regular-80"/><use x="299.545" xlink:href="#HelveticaWorld-Regular-114"/><use x="331.113" xlink:href="#HelveticaWorld-Regular-101"/><use x="386.533" xlink:href="#HelveticaWorld-Regular-115"/><use x="436.533" xlink:href="#HelveticaWorld-Regular-115"/><use x="486.533" xlink:href="#HelveticaWorld-Regular-47"/><use x="514.316" xlink:href="#HelveticaWorld-Regular-87"/><use x="604.754" xlink:href="#HelveticaWorld-Regular-111"/><use x="660.662" xlink:href="#HelveticaWorld-Regular-114"/><use x="692.23" xlink:href="#HelveticaWorld-Regular-100"/><use x="749.213" xlink:href="#HelveticaWorld-Regular-80"/><use x="813.861" xlink:href="#HelveticaWorld-Regular-114"/><use x="845.43" xlink:href="#HelveticaWorld-Regular-101"/><use x="900.85" xlink:href="#HelveticaWorld-Regular-115"/><use x="950.85" xlink:href="#HelveticaWorld-Regular-115"/></g></g><g id="text_15"><defs><path d="M6.594 52.297h8.297v-7.375h.203q5.906 8.89 15.812 8.89 9.813 0 13.922-8.5 3.75 4.594 7.266 6.547 3.515 1.953 8.703 1.953 6.781 0 11.484-4.453Q77 44.922 77 36.187V0h-8.781v33.797q0 6.094-2.297 9.094-2.297 3.015-7.422 3.015-5.172 0-8.75-4.203-3.563-4.203-3.563-9.812V0h-8.78v36.188q0 4.53-2.11 7.124-2.094 2.594-6.094 2.594-6.297 0-10.062-4.687-3.766-4.688-3.766-12.703V0H6.594z" id="HelveticaWorld-Regular-109"/><path d="M38.375 26.703q-.969-1.015-3.828-1.656-2.86-.625-10.672-1.656-5.766-.688-8.469-2.844-2.703-2.14-2.703-5.656 0-4.297 2.281-6.688 2.297-2.39 7.329-2.39 6.296 0 11.171 3.578 4.891 3.593 4.891 8.718zM6.203 36.375q.297 8.844 5.734 13.14 5.454 4.297 15.844 4.297 8.297 0 13.907-3.765 5.624-3.75 5.624-10.844V9.078Q47.313 6 50.094 6q1.125 0 2.89.39V0Q50.594-.984 48-.984q-4.5 0-6.703 1.921-2.188 1.938-2.281 6.047-7.516-8.5-18.891-8.5-7.422 0-11.922 4.204Q3.72 6.89 3.72 13.624q0 6.89 3.906 11.125Q11.531 29 19 29.89l15.516 1.891q4.203.64 4.203 6.203 0 4.11-3.047 6.297-3.047 2.203-9.25 2.203-5.516 0-8.485-2.437-2.953-2.438-3.53-7.672z" id="HelveticaWorld-Regular-97"/><path d="M12.984 26.313q0-9.61 3.813-14.907Q20.609 6.11 27.094 6.11q6.312 0 10.312 4.579 4 4.593 4 13 0 11.03-3.5 16.625-3.484 5.593-10.61 5.593-7.171 0-10.75-4.765-3.562-4.766-3.562-14.828zm36.828-23.33q0-12.609-6.062-18.797-6.047-6.203-18.266-6.203-8.78 0-13.984 4.047-5.203 4.048-5.984 11.58h8.796q.672-3.812 3.532-6.062 2.86-2.25 8.281-2.25 7.375 0 11.125 3.969 3.766 3.953 3.766 12.828v3.719h-.188q-4.937-7.329-13.922-7.329-11.187 0-17.093 8.25-5.907 8.25-5.907 20.953 0 11.625 5.953 18.875 5.97 7.25 15.829 7.25 9.906 0 15.625-8.89h.187v7.375h8.313z" id="HelveticaWorld-Regular-103"/><path d="M49.219 0h-8.844v32.172q0 7.422-2.594 10.578-2.578 3.156-8.578 3.156-5.906 0-9.875-4.5-3.953-4.484-3.953-12.89V0H6.594v52.297h8.297v-7.375h.203q6.203 8.89 15.812 8.89 8.89 0 13.594-4.718 4.719-4.703 4.719-13.5z" id="HelveticaWorld-Regular-110"/><path d="M17.188 45.016V10.984q0-2 1.093-3.046 1.11-1.047 3.938-1.047h3.375V0Q20.797-.688 19-.688q-5.516 0-8.063 2.641-2.53 2.64-2.53 8.547v34.516H1.311v7.28h7.094v14.595h8.781V52.297h8.407v-7.281z" id="HelveticaWorld-Regular-116"/></defs><g transform="matrix(.14 0 0 -.14 413.818 127.19)" fill="#ff7f0e"><use xlink:href="#HelveticaWorld-Regular-109"/><use x="83.008" xlink:href="#HelveticaWorld-Regular-97"/><use x="137.939" xlink:href="#HelveticaWorld-Regular-103"/><use x="193.848" xlink:href="#HelveticaWorld-Regular-101"/><use x="249.268" xlink:href="#HelveticaWorld-Regular-110"/><use x="304.443" xlink:href="#HelveticaWorld-Regular-116"/><use x="332.129" xlink:href="#HelveticaWorld-Regular-111"/><use x="388.037" xlink:href="#HelveticaWorld-Regular-47"/><use x="415.82" xlink:href="#HelveticaWorld-Regular-109"/><use x="498.828" xlink:href="#HelveticaWorld-Regular-97"/><use x="553.76" xlink:href="#HelveticaWorld-Regular-103"/><use x="609.668" xlink:href="#HelveticaWorld-Regular-101"/><use x="665.088" xlink:href="#HelveticaWorld-Regular-110"/><use x="720.264" xlink:href="#HelveticaWorld-Regular-116"/><use x="747.949" xlink:href="#HelveticaWorld-Regular-111"/><use x="803.857" xlink:href="#HelveticaWorld-Regular-50"/></g></g><g id="text_16"><defs><path d="M50.39 50.781q-.296 6.844-5.109 10.719-4.797 3.875-12.656 3.875-7.922 0-12.172-3.25-4.234-3.234-4.234-9.344 0-3.265 1.843-5.61 1.86-2.343 6.641-3.468l20.516-4.687q8.297-1.813 12.297-6.875 4.015-5.047 4.015-12.313 0-10.64-7.812-16.187-7.813-5.547-20.313-5.547-9.531 0-15.031 2.437-5.484 2.453-9.734 7.766-4.25 5.328-4.25 14.89h9.093q0-8 5.313-12.406 5.328-4.39 14.5-4.39 8.89 0 13.844 3.156 4.953 3.156 4.953 8.953 0 5.281-2.953 7.89Q46.188 29 37.594 31l-15.469 3.625q-7.719 1.75-11.531 6.125Q6.78 45.125 6.78 51.516q0 9.672 6.516 15.922 6.531 6.25 18.203 6.25 13.172 0 20.328-5.5 7.156-5.485 7.688-17.407z" id="HelveticaWorld-Regular-83"/><path d="M49.219 0h-8.844v34.188q0 6.296-2.438 9-2.437 2.718-7.953 2.718-6.797 0-10.703-4.406-3.906-4.39-3.906-12.984V0H6.594v71.781h8.781V45.312h.203q6 8.5 15.328 8.5 8.594 0 13.453-4.5 4.86-4.484 4.86-13.718z" id="HelveticaWorld-Regular-104"/><path d="M14.984 23.688q0-8.407 4.094-13 4.11-4.579 10.219-4.579 6.687 0 10.39 5.438 3.72 5.453 3.72 14.765 0 10.22-3.563 14.907-3.563 4.687-10.735 4.687-6.984 0-10.562-5.5-3.563-5.5-3.563-16.718zm-8.39 28.609h8.297v-7.375h.203q5.61 8.89 15.625 8.89 10.11 0 15.937-7.359 5.828-7.344 5.828-18.766 0-12.796-5.953-21Q40.578-1.515 29.5-1.515q-9.094 0-13.922 7.032h-.203v-26.22H6.594z" id="HelveticaWorld-Regular-112"/></defs><g transform="matrix(.14 0 0 -.14 413.818 198.505)" fill="#2ca02c"><use xlink:href="#HelveticaWorld-Regular-80"/><use x="64.648" xlink:href="#HelveticaWorld-Regular-114"/><use x="96.217" xlink:href="#HelveticaWorld-Regular-101"/><use x="151.637" xlink:href="#HelveticaWorld-Regular-115"/><use x="201.637" xlink:href="#HelveticaWorld-Regular-116"/><use x="229.322" xlink:href="#HelveticaWorld-Regular-97"/><use x="284.254" xlink:href="#HelveticaWorld-Regular-83"/><use x="350.465" xlink:href="#HelveticaWorld-Regular-104"/><use x="405.641" xlink:href="#HelveticaWorld-Regular-111"/><use x="461.549" xlink:href="#HelveticaWorld-Regular-112"/><use x="518.043" xlink:href="#HelveticaWorld-Regular-47"/><use x="545.826" xlink:href="#HelveticaWorld-Regular-80"/><use x="610.475" xlink:href="#HelveticaWorld-Regular-114"/><use x="642.043" xlink:href="#HelveticaWorld-Regular-101"/><use x="697.463" xlink:href="#HelveticaWorld-Regular-115"/><use x="747.463" xlink:href="#HelveticaWorld-Regular-116"/><use x="775.148" xlink:href="#HelveticaWorld-Regular-97"/><use x="830.08" xlink:href="#HelveticaWorld-Regular-83"/><use x="896.291" xlink:href="#HelveticaWorld-Regular-104"/><use x="951.467" xlink:href="#HelveticaWorld-Regular-111"/><use x="1007.375" xlink:href="#HelveticaWorld-Regular-112"/></g></g><g id="text_17"><defs><path d="M15.375 61.813H6.594v9.968h8.781zm0-69.532q0-7.468-3.547-10.375Q8.297-21 2-21q-1.797 0-3.703.297v7.61H.594q3.703 0 4.843 1.109 1.157 1.093 1.157 5.296v58.985h8.781z" id="HelveticaWorld-Regular-106"/><path d="M15.375 0H6.594v71.781h8.781z" id="HelveticaWorld-Regular-108"/><path d="M28.906 23.188H4.391v8.984h24.515z" id="HelveticaWorld-Regular-45"/><path d="M39.594 34.719q-1.89 11.187-12.39 11.187-6.5 0-10.454-5.203-3.953-5.203-3.953-14.484 0-10.11 3.656-15.11 3.672-5 10.64-5 4.688 0 8.11 3.438 3.422 3.437 4.39 8.953h8.5q-1.312-9.703-6.859-14.86-5.547-5.156-14.328-5.156-10.297 0-16.89 7.047-6.594 7.063-6.594 19.172 0 13.281 6.594 21.188 6.593 7.922 18.5 7.922 8.687 0 13.843-5.204 5.157-5.203 5.735-13.89z" id="HelveticaWorld-Regular-99"/></defs><g transform="matrix(.14 0 0 -.14 413.818 219.37)" fill="#d62728"><use xlink:href="#HelveticaWorld-Regular-106"/><use x="22.021" xlink:href="#HelveticaWorld-Regular-111"/><use x="77.93" xlink:href="#HelveticaWorld-Regular-111"/><use x="133.838" xlink:href="#HelveticaWorld-Regular-109"/><use x="216.846" xlink:href="#HelveticaWorld-Regular-108"/><use x="238.867" xlink:href="#HelveticaWorld-Regular-97"/><use x="293.799" xlink:href="#HelveticaWorld-Regular-47"/><use x="321.582" xlink:href="#HelveticaWorld-Regular-106"/><use x="343.604" xlink:href="#HelveticaWorld-Regular-111"/><use x="399.512" xlink:href="#HelveticaWorld-Regular-111"/><use x="455.42" xlink:href="#HelveticaWorld-Regular-109"/><use x="538.428" xlink:href="#HelveticaWorld-Regular-108"/><use x="560.449" xlink:href="#HelveticaWorld-Regular-97"/><use x="615.381" xlink:href="#HelveticaWorld-Regular-45"/><use x="648.682" xlink:href="#HelveticaWorld-Regular-99"/><use x="699.951" xlink:href="#HelveticaWorld-Regular-109"/><use x="782.959" xlink:href="#HelveticaWorld-Regular-115"/></g></g><g id="text_18"><defs><path d="M6.11 52.297h8.78V17.578q0-5.765 2.61-8.625Q20.125 6.11 25 6.11q6.781 0 10.594 4.797 3.812 4.813 3.812 12.578v28.813h8.782V0H39.89v7.625l-.188.188q-4.984-9.329-16.61-9.329-7.515 0-12.25 4.094Q6.11 6.688 6.11 14.703z" id="HelveticaWorld-Regular-117"/></defs><g transform="matrix(.14 0 0 -.14 413.818 233.39)" fill="#9467bd"><use xlink:href="#HelveticaWorld-Regular-100"/><use x="56.982" xlink:href="#HelveticaWorld-Regular-114"/><use x="89.551" xlink:href="#HelveticaWorld-Regular-117"/><use x="144.336" xlink:href="#HelveticaWorld-Regular-112"/><use x="200.83" xlink:href="#HelveticaWorld-Regular-97"/><use x="255.762" xlink:href="#HelveticaWorld-Regular-108"/><use x="277.783" xlink:href="#HelveticaWorld-Regular-47"/><use x="305.566" xlink:href="#HelveticaWorld-Regular-100"/><use x="362.549" xlink:href="#HelveticaWorld-Regular-114"/><use x="395.117" xlink:href="#HelveticaWorld-Regular-117"/><use x="449.902" xlink:href="#HelveticaWorld-Regular-112"/><use x="506.396" xlink:href="#HelveticaWorld-Regular-97"/><use x="561.328" xlink:href="#HelveticaWorld-Regular-108"/></g></g><g id="text_19"><defs><path d="M25.594 0h-8.985L1.516 52.297h9.468L21 11.187h.188l10.109 41.11h9.922l10.203-41.11h.187l10.594 41.11h8.703L55.812 0h-9.234L35.984 40.484h-.187z" id="HelveticaWorld-Regular-119"/><path d="M6.594 61.813v9.968h8.781v-9.969zM15.375 0H6.594v52.297h8.781z" id="HelveticaWorld-Regular-105"/><path d="M50 0H38.719L22.406 26.422l-7.312-6.594V0h-8.5v71.781h8.5v-41.61l22.5 22.126H48.78L28.813 32.813z" id="HelveticaWorld-Regular-107"/></defs><g transform="matrix(.14 0 0 -.14 413.818 254.883)" fill="#8c564b"><use xlink:href="#HelveticaWorld-Regular-119"/><use x="72.412" xlink:href="#HelveticaWorld-Regular-105"/><use x="94.434" xlink:href="#HelveticaWorld-Regular-107"/><use x="144.434" xlink:href="#HelveticaWorld-Regular-105"/><use x="166.455" xlink:href="#HelveticaWorld-Regular-109"/><use x="249.463" xlink:href="#HelveticaWorld-Regular-101"/><use x="304.883" xlink:href="#HelveticaWorld-Regular-100"/><use x="361.865" xlink:href="#HelveticaWorld-Regular-105"/><use x="383.887" xlink:href="#HelveticaWorld-Regular-97"/><use x="438.818" xlink:href="#HelveticaWorld-Regular-47"/><use x="466.602" xlink:href="#HelveticaWorld-Regular-109"/><use x="549.609" xlink:href="#HelveticaWorld-Regular-101"/><use x="605.029" xlink:href="#HelveticaWorld-Regular-100"/><use x="662.012" xlink:href="#HelveticaWorld-Regular-105"/><use x="684.033" xlink:href="#HelveticaWorld-Regular-97"/><use x="736.965" xlink:href="#HelveticaWorld-Regular-119"/><use x="809.377" xlink:href="#HelveticaWorld-Regular-105"/><use x="831.398" xlink:href="#HelveticaWorld-Regular-107"/><use x="881.398" xlink:href="#HelveticaWorld-Regular-105"/></g></g><g id="text_20"><defs><path d="M17.188 45.016V0H8.405v45.016H1.22v7.28h7.187v8.985q0 5.907 3.578 8.703 3.594 2.813 10.032 2.813 2.203 0 3.968-.188v-7.906q-1.562.188-3.578.188-2.922 0-4.078-1.438-1.14-1.437-1.14-4.656v-6.5h8.796v-7.281z" id="HelveticaWorld-Regular-102"/><path d="M17.828 8.297h18.797q9.766 0 15.281 7.5 5.516 7.5 5.516 20.484 0 12.844-5.563 19.969-5.562 7.125-16.062 7.234H17.828zM8.11 71.78h29.094q14.11 0 22.094-9.703 7.984-9.687 7.984-25.156 0-16.61-7.984-26.766Q51.313 0 36.813 0H8.108z" id="HelveticaWorld-Regular-68"/><path d="M19.094 0H8.687v10.594h10.407z" id="HelveticaWorld-Regular-46"/></defs><g transform="matrix(.14 0 0 -.14 413.818 272.308)" fill="#e377c2"><use xlink:href="#HelveticaWorld-Regular-100"/><use x="56.982" xlink:href="#HelveticaWorld-Regular-110"/><use x="112.158" xlink:href="#HelveticaWorld-Regular-110"/><use x="167.334" xlink:href="#HelveticaWorld-Regular-115"/><use x="217.334" xlink:href="#HelveticaWorld-Regular-111"/><use x="273.242" xlink:href="#HelveticaWorld-Regular-102"/><use x="300.928" xlink:href="#HelveticaWorld-Regular-116"/><use x="328.613" xlink:href="#HelveticaWorld-Regular-119"/><use x="398.65" xlink:href="#HelveticaWorld-Regular-97"/><use x="453.582" xlink:href="#HelveticaWorld-Regular-114"/><use x="485.15" xlink:href="#HelveticaWorld-Regular-101"/><use x="540.57" xlink:href="#HelveticaWorld-Regular-47"/><use x="568.354" xlink:href="#HelveticaWorld-Regular-68"/><use x="640.375" xlink:href="#HelveticaWorld-Regular-110"/><use x="695.551" xlink:href="#HelveticaWorld-Regular-110"/><use x="750.727" xlink:href="#HelveticaWorld-Regular-46"/><use x="778.51" xlink:href="#HelveticaWorld-Regular-80"/><use x="843.158" xlink:href="#HelveticaWorld-Regular-108"/><use x="865.18" xlink:href="#HelveticaWorld-Regular-97"/><use x="920.111" xlink:href="#HelveticaWorld-Regular-116"/><use x="947.797" xlink:href="#HelveticaWorld-Regular-102"/><use x="973.482" xlink:href="#HelveticaWorld-Regular-111"/><use x="1029.391" xlink:href="#HelveticaWorld-Regular-114"/><use x="1061.959" xlink:href="#HelveticaWorld-Regular-109"/></g></g><g id="text_21"><defs><path d="M25.39 63.188H1.22v8.593h58.297v-8.594H35.109V0h-9.718z" id="HelveticaWorld-Regular-84"/><path d="M37.313 0h-9.72v28.906L.485 71.781h11.329l20.609-34.469 20.562 34.47h11.422L37.312 28.905z" id="HelveticaWorld-Regular-89"/><path d="M63.922 35.89q0 12.594-6.672 20.891-6.656 8.313-18.328 8.313-11.531 0-18.266-8.313-6.734-8.297-6.734-20.89 0-12.985 6.828-21.094 6.844-8.11 18.172-8.11 11.078 0 18.031 7.907 6.969 7.922 6.969 21.297zm9.953 0q0-16.062-9.281-26.937-9.266-10.86-25.672-10.86-16.516 0-25.766 10.86-9.25 10.875-9.25 26.938 0 16.109 9.25 26.953 9.25 10.843 25.766 10.843 16.89 0 25.922-11.046 9.031-11.032 9.031-26.75z" id="HelveticaWorld-Regular-79"/><path d="M22.406 39.984q2.203-.187 4.594-.187 6.203 0 9.781 2.86 3.594 2.859 3.594 8.656 0 4.687-3.344 7.89-3.343 3.203-9.64 3.203-6.985 0-10.235-4.11-3.234-4.093-3.437-10.983h-8.64q0 10.984 5.765 16.984 5.765 6.016 16.937 6.016 9.922 0 15.828-5.11 5.907-5.094 5.907-13.39 0-10.704-9.032-14.5v-.204q11.72-4 11.72-16.406 0-9.906-6.595-16.265-6.593-6.344-18.703-6.344-9.906 0-16.312 5.203Q4.204 8.5 3.422 21.484H12.5q.203-8.109 4-11.797Q20.313 6 27.484 6q6.938 0 11.141 3.86 4.203 3.859 4.203 9.718 0 6.406-4.016 9.672-4 3.266-12.39 3.266-2 0-4.016-.094z" id="HelveticaWorld-Regular-51"/><path d="M58.016 50.203q-1.625 7.313-6.782 11.094-5.14 3.797-13.343 3.797-10.594 0-17.047-7.703-6.438-7.688-6.438-20.766 0-15.14 6.094-22.547 6.11-7.39 17.688-7.39 7.609 0 13.093 5.046 5.5 5.063 7.407 14.688h9.421Q66.22 12.594 57.625 5.344t-20.906-7.25q-14.703 0-23.516 10.11Q4.391 18.311 4.391 36.28q0 17.328 9.203 27.36 9.203 10.047 24.297 10.047 12.5 0 20.265-6.454 7.766-6.437 9.235-17.03z" id="HelveticaWorld-Regular-67"/><path d="M67.484 0v42.39q0 .829.094 8.126t.094 9.78h-.281L47.312 0h-9.609L17.578 60.203h-.297q0-3.61.094-10.297.11-6.687.11-7.515V0H8.108v71.781h13.86L42.39 11.078h.28l20.313 60.703h13.922V0z" id="HelveticaWorld-Regular-77"/></defs><g transform="matrix(.14 0 0 -.14 413.818 286.308)" fill="#7f7f7f"><use xlink:href="#HelveticaWorld-Regular-84"/><use x="60.742" xlink:href="#HelveticaWorld-Regular-89"/><use x="125.537" xlink:href="#HelveticaWorld-Regular-80"/><use x="190.186" xlink:href="#HelveticaWorld-Regular-79"/><use x="267.969" xlink:href="#HelveticaWorld-Regular-51"/><use x="323.584" xlink:href="#HelveticaWorld-Regular-47"/><use x="351.367" xlink:href="#HelveticaWorld-Regular-84"/><use x="412.109" xlink:href="#HelveticaWorld-Regular-89"/><use x="476.904" xlink:href="#HelveticaWorld-Regular-80"/><use x="541.553" xlink:href="#HelveticaWorld-Regular-79"/><use x="619.336" xlink:href="#HelveticaWorld-Regular-51"/><use x="674.951" xlink:href="#HelveticaWorld-Regular-46"/><use x="702.734" xlink:href="#HelveticaWorld-Regular-67"/><use x="775.049" xlink:href="#HelveticaWorld-Regular-77"/><use x="860.059" xlink:href="#HelveticaWorld-Regular-83"/></g></g><g id="text_22"><defs><path d="M38.484 38.375h31.532V0h-6.297l-2.344 9.281Q56.781 3.421 50.578.75q-6.187-2.656-12.875-2.656-10.797 0-18.047 4.703-7.25 4.719-11.265 13.015-4 8.313-4 20.72 0 15.468 9.203 26.312 9.203 10.843 24.781 10.843 11.625 0 20.313-6.5Q67.39 60.688 68.796 50h-9.375q-1.703 7.078-7.219 11.078-5.516 4.016-14.312 4.016-10.594 0-17.047-7.985-6.438-7.984-6.438-21.125 0-15.28 6.39-22.437Q27.204 6.39 38.282 6.39q7.235 0 12.235 2.859 5 2.86 7.687 7.766 2.688 4.906 2.688 13.062H38.484z" id="HelveticaWorld-Regular-71"/><path d="M64.89 0h-9.718v33.5h-37.5V0H8.109v71.781h9.563V42.094h37.5V71.78h9.719z" id="HelveticaWorld-Regular-72"/><path d="M43.406 26.313q0 10.5-3.718 15.046-3.704 4.547-10.579 4.547-6.984-.11-10.562-5.453Q14.984 35.11 14.984 25q0-10.297 4.297-14.594Q23.578 6.11 29.297 6.11q6.5 0 10.297 5.344 3.812 5.344 3.812 14.86zM6.594 0v71.781h8.781V45.703h.203q5.61 8.11 15.14 8.11 9.766 0 15.766-7.25t6-18.876q0-13.093-6.062-21.156Q40.375-1.516 29.5-1.516q-9.578 0-14.406 8.016h-.203V0z" id="HelveticaWorld-Regular-98"/><path d="M44 29.5L33.406 61.078h-.203L21.687 29.5zm-25.297-8.594L11.188 0h-9.97l27 71.781h10.985L65.187 0H54.594l-7.078 20.906z" id="HelveticaWorld-Regular-65"/><path d="M17.828 0H8.11v71.781h9.72z" id="HelveticaWorld-Regular-73"/><path d="M39.406 52.297h9.625L29.11 0h-9.437L.594 52.297h10.203L24.422 9.719h.187z" id="HelveticaWorld-Regular-118"/><path d="M9.422 73.688h7.281V-1.906H9.422z" id="HelveticaWorld-Regular-124"/><path d="M55.61 71.781h9.374V0h-10.78L17.577 58.016h-.187V0H8.109v71.781h11.375l35.938-57.969h.187z" id="HelveticaWorld-Regular-78"/><path d="M12.703 26.219q0-8.735 3.953-14.375 3.953-5.64 11.219-5.64 7.531 0 11.438 5.905 3.906 5.907 3.906 14.11 0 8.297-3.907 14.078-3.906 5.797-11.437 5.797-6.969 0-11.078-5.453-4.094-5.438-4.094-14.422zm-8.984 0q0 11.672 6.484 19.625 6.5 7.968 17.672 7.968 11.438 0 17.875-8.062 6.453-8.047 6.453-19.531 0-11.516-6.406-19.625-6.39-8.11-17.922-8.11-11.078 0-17.625 7.86-6.531 7.86-6.531 19.875zm36.734 35.406H31.47v10.156h8.984zm-16.219 0H15.25v10.156h8.984z" id="HelveticaWorld-Regular-246"/><path d="M8.11 71.781h31.484q9.281 0 14.797-5.031 5.515-5.031 5.515-13.031 0-4.844-2.422-8.828-2.406-3.97-7.187-6.172 6.687-2.532 9.828-6.735 3.156-4.203 3.156-10.797 0-9.265-6.687-15.234Q49.906 0 38.922 0H8.109zm9.562-63.484h20.703q7.625 0 11.422 3.531 3.812 3.547 3.812 9.563 0 6.093-4.25 9.093Q45.125 33.5 36.812 33.5h-19.14zm0 33.11h17.625q7.719 0 11.312 2.796 3.594 2.813 3.594 8.781 0 5.125-3.406 7.813-3.39 2.687-11.39 2.687H17.671z" id="HelveticaWorld-Regular-66"/></defs><g transform="matrix(.09716 0 0 -.09716 53.127 322.966)" fill="#969696"><use xlink:href="#HelveticaWorld-Regular-71"/><use x="77.1" xlink:href="#HelveticaWorld-Regular-105"/><use x="99.121" xlink:href="#HelveticaWorld-Regular-116"/><use x="126.807" xlink:href="#HelveticaWorld-Regular-72"/><use x="199.805" xlink:href="#HelveticaWorld-Regular-117"/><use x="254.59" xlink:href="#HelveticaWorld-Regular-98"/><use x="311.084" xlink:href="#HelveticaWorld-Regular-32"/><use x="335.498" xlink:href="#HelveticaWorld-Regular-65"/><use x="402.197" xlink:href="#HelveticaWorld-Regular-80"/><use x="466.846" xlink:href="#HelveticaWorld-Regular-73"/><use x="492.627" xlink:href="#HelveticaWorld-Regular-32"/><use x="517.041" xlink:href="#HelveticaWorld-Regular-118"/><use x="566.65" xlink:href="#HelveticaWorld-Regular-105"/><use x="588.672" xlink:href="#HelveticaWorld-Regular-97"/><use x="643.604" xlink:href="#HelveticaWorld-Regular-32"/><use x="668.018" xlink:href="#HelveticaWorld-Regular-104"/><use x="723.193" xlink:href="#HelveticaWorld-Regular-111"/><use x="779.102" xlink:href="#HelveticaWorld-Regular-116"/><use x="806.787" xlink:href="#HelveticaWorld-Regular-119"/><use x="876.824" xlink:href="#HelveticaWorld-Regular-97"/><use x="931.756" xlink:href="#HelveticaWorld-Regular-114"/><use x="963.324" xlink:href="#HelveticaWorld-Regular-101"/><use x="1018.744" xlink:href="#HelveticaWorld-Regular-32"/><use x="1043.158" xlink:href="#HelveticaWorld-Regular-124"/><use x="1069.135" xlink:href="#HelveticaWorld-Regular-32"/><use x="1093.549" xlink:href="#HelveticaWorld-Regular-78"/><use x="1166.645" xlink:href="#HelveticaWorld-Regular-105"/><use x="1188.666" xlink:href="#HelveticaWorld-Regular-99"/><use x="1239.936" xlink:href="#HelveticaWorld-Regular-111"/><use x="1295.844" xlink:href="#HelveticaWorld-Regular-32"/><use x="1320.258" xlink:href="#HelveticaWorld-Regular-83"/><use x="1386.469" xlink:href="#HelveticaWorld-Regular-99"/><use x="1437.738" xlink:href="#HelveticaWorld-Regular-104"/><use x="1492.914" xlink:href="#HelveticaWorld-Regular-108"/><use x="1514.936" xlink:href="#HelveticaWorld-Regular-246"/><use x="1570.844" xlink:href="#HelveticaWorld-Regular-109"/><use x="1653.852" xlink:href="#HelveticaWorld-Regular-101"/><use x="1709.271" xlink:href="#HelveticaWorld-Regular-114"/><use x="1741.84" xlink:href="#HelveticaWorld-Regular-32"/><use x="1766.254" xlink:href="#HelveticaWorld-Regular-124"/><use x="1792.23" xlink:href="#HelveticaWorld-Regular-32"/><use x="1816.645" xlink:href="#HelveticaWorld-Regular-67"/><use x="1888.959" xlink:href="#HelveticaWorld-Regular-67"/><use x="1961.273" xlink:href="#HelveticaWorld-Regular-32"/><use x="1985.688" xlink:href="#HelveticaWorld-Regular-66"/><use x="2048.5" xlink:href="#HelveticaWorld-Regular-89"/></g></g><g transform="matrix(.14 0 0 -.14 158.992 17.25)" fill="#969696" id="text_23"><use xlink:href="#HelveticaWorld-Regular-78"/><use x="73.096" xlink:href="#HelveticaWorld-Regular-117"/><use x="127.881" xlink:href="#HelveticaWorld-Regular-109"/><use x="210.889" xlink:href="#HelveticaWorld-Regular-98"/><use x="267.383" xlink:href="#HelveticaWorld-Regular-101"/><use x="322.803" xlink:href="#HelveticaWorld-Regular-114"/><use x="355.371" xlink:href="#HelveticaWorld-Regular-32"/><use x="379.785" xlink:href="#HelveticaWorld-Regular-111"/><use x="435.693" xlink:href="#HelveticaWorld-Regular-102"/><use x="463.379" xlink:href="#HelveticaWorld-Regular-32"/><use x="487.793" xlink:href="#HelveticaWorld-Regular-71"/><use x="564.893" xlink:href="#HelveticaWorld-Regular-105"/><use x="586.914" xlink:href="#HelveticaWorld-Regular-116"/><use x="614.6" xlink:href="#HelveticaWorld-Regular-72"/><use x="687.598" xlink:href="#HelveticaWorld-Regular-117"/><use x="742.383" xlink:href="#HelveticaWorld-Regular-98"/><use x="798.877" xlink:href="#HelveticaWorld-Regular-32"/><use x="823.291" xlink:href="#HelveticaWorld-Regular-115"/><use x="873.291" xlink:href="#HelveticaWorld-Regular-116"/><use x="900.977" xlink:href="#HelveticaWorld-Regular-97"/><use x="955.908" xlink:href="#HelveticaWorld-Regular-114"/><use x="988.477" xlink:href="#HelveticaWorld-Regular-115"/></g></g></g><defs><clipPath id="p268a3fa9ec"><path d="M53.127 23.249h357.12v266.112H53.127z"/></clipPath></defs></svg>