<svg height="475.376" viewBox="0 0 528.66 356.532" width="704.88" xmlns="http://www.w3.org/2000/svg" xmlns:xlink="http://www.w3.org/1999/xlink"><defs><style>*{stroke-linecap:butt;stroke-linejoin:round}</style></defs><g id="figure_1"><path d="M0 356.532h528.66V0H0z" style="fill:none" id="patch_1"/><g id="axes_1"><path d="M45.341 313.361h357.12V47.25H45.341z" style="fill:none" id="patch_2"/><path clip-path="url(#p33c438089e)" d="m45.341 313.361 8.33-.06.002-.122.24-.183 3.62-.305 15.76-.304 9.668-.67 2.986-.793 2.7-.426 3.478-.183.862-.243 4.11-.427 8.043-.122 3.042-.243.198-.427.707-.183 4.97-.304 4.1-.122 1.252-.244 5.75-.426 2.063-.427 1.452-.183 9.577-.609 6.445-.853 1.103-.426 3.27-.853 3.183-.183 1.379-.244 1.604-.426 2.376-.792 3.376-.61 3.352-.243 1.541-.426 10.6-1.036 9.987-.61 3.14-.426 3.219-.853 5.243-.609 7.133-.426 4.829-.488 5.33-.183.28-.06 4.39-.122 4.334-.366 2.621-.244 1.502-.426 6.384-.853 5.94-.61 9.963-.852 26.287-1.462 13.178-1.036 4.636-.244 1.316-.182 4.243-.305 7.11-.122 16.04-1.036 2.802-.426 2.511-.183 8.689-.122.71-.121 1.887-.183 6.193-.244 1.566-.183 4.048-.182 6.696-.061.749-.183 1.392-.122 5.104-.122 3.877-.244 5.754-.06.041-.305 3.528-.427 7.154-.304 2.69-.183 8.949-.183.193-.182 2.714-.305h0" style="fill:none;stroke:#8c564b;stroke-linecap:square;stroke-width:1.5" id="line2d_1"/><g id="matplotlib.axis_1"><g id="xtick_1"><g id="line2d_2"><defs><path d="M0 0v3.5" id="m20e66611a2" style="stroke:#969696;stroke-width:.4"/></defs><use style="fill:#969696;stroke:#969696;stroke-width:.4" x="84.714" xlink:href="#m20e66611a2" y="313.361"/></g><g style="fill:#969696" transform="matrix(.14 0 0 -.14 69.143 330.41)" id="text_1"><defs><path d="M281 2888q0 793 409 1202 410 410 1148 410 618 0 1012-375t394-969q0-462-227-780-226-317-667-557l-775-425q-684-375-775-863h2444V0H166q25 634 275 1056t781 728l806 469q322 185 469 383t147 545q0 344-241 578-240 235-650 235-453 0-678-299-225-298-231-807H281z" id="HelveticaWorld-Regular-32" transform="scale(.01563)"/><path d="M2719 2188q0 903-239 1354-239 452-702 452-453 0-697-452-243-451-243-1354 0-875 240-1340 241-464 700-464 463 0 702 448 239 449 239 1356zm603 0q0-1107-400-1709-400-601-1144-601-772 0-1156 623-384 624-384 1687 0 1090 393 1701 394 611 1147 611 744 0 1144-608t400-1704z" id="HelveticaWorld-Regular-30" transform="scale(.01563)"/><path d="M2297 0h-600v3194H647v447q550 18 818 176 269 158 391 683h441V0z" id="HelveticaWorld-Regular-31" transform="scale(.01563)"/><path d="M941 2619q372 281 872 281 606 0 1042-403t436-1038q0-690-421-1139-420-448-1179-448-660 0-1041 323-381 324-444 918h582q43-363 284-555t669-192q415 0 681 287 266 288 266 735 0 456-279 731-278 275-718 275-500 0-835-428l-484 25 337 2406h2332v-544H1131L941 2619z" id="HelveticaWorld-Regular-35" transform="scale(.01563)"/></defs><use xlink:href="#HelveticaWorld-Regular-32"/><use x="55.615" xlink:href="#HelveticaWorld-Regular-30"/><use x="111.23" xlink:href="#HelveticaWorld-Regular-31"/><use x="166.846" xlink:href="#HelveticaWorld-Regular-35"/></g></g><g id="xtick_2"><use style="fill:#969696;stroke:#969696;stroke-width:.4" x="134.67" xlink:href="#m20e66611a2" y="313.361" id="line2d_3"/><g style="fill:#969696" transform="matrix(.14 0 0 -.14 119.1 330.41)" id="text_2"><defs><path d="M903 1381q0-440 262-719 263-278 685-278 403 0 642 284 239 285 239 748 0 403-236 675t-670 272q-422 0-672-266t-250-716zm1766 1922q-63 344-255 517-192 174-520 174-519 0-791-507-272-506-278-1159l13-12q359 553 1068 553 566 0 988-375t422-1053q0-672-400-1118-400-445-1078-445-782 0-1188 556-406 557-406 1660 0 1062 415 1734 416 672 1247 672 538 0 910-321 372-320 403-876h-550z" id="HelveticaWorld-Regular-36" transform="scale(.01563)"/></defs><use xlink:href="#HelveticaWorld-Regular-32"/><use x="55.615" xlink:href="#HelveticaWorld-Regular-30"/><use x="111.23" xlink:href="#HelveticaWorld-Regular-31"/><use x="166.846" xlink:href="#HelveticaWorld-Regular-36"/></g></g><g id="xtick_3"><use style="fill:#969696;stroke:#969696;stroke-width:.4" x="184.763" xlink:href="#m20e66611a2" y="313.361" id="line2d_4"/><g style="fill:#969696" transform="matrix(.14 0 0 -.14 169.193 330.41)" id="text_3"><defs><path d="M238 4403h3109v-494q-641-653-1172-1766Q1644 1031 1497 0H878q94 850 622 1954 528 1105 1213 1899H238v550z" id="HelveticaWorld-Regular-37" transform="scale(.01563)"/></defs><use xlink:href="#HelveticaWorld-Regular-32"/><use x="55.615" xlink:href="#HelveticaWorld-Regular-30"/><use x="111.23" xlink:href="#HelveticaWorld-Regular-31"/><use x="166.846" xlink:href="#HelveticaWorld-Regular-37"/></g></g><g id="xtick_4"><use style="fill:#969696;stroke:#969696;stroke-width:.4" x="234.719" xlink:href="#m20e66611a2" y="313.361" id="line2d_5"/><g style="fill:#969696" transform="matrix(.14 0 0 -.14 219.149 330.41)" id="text_4"><defs><path d="M1766 2597q347 0 573 198 227 199 227 527 0 294-218 483-217 189-620 189-359 0-555-199-195-198-195-504 0-328 244-511t544-183zm6-484q-434 0-681-241t-247-591q0-403 250-650t712-247q410 0 655 247t245 657q0 350-245 587-245 238-689 238zm1378 1228q0-678-578-947 397-178 567-471 170-292 170-623 0-641-413-1032-412-390-1112-390-612 0-1076 336T244 1306q0 763 762 1082-609 243-609 875 0 531 361 884t1001 353q641 0 1016-333t375-826z" id="HelveticaWorld-Regular-38" transform="scale(.01563)"/></defs><use xlink:href="#HelveticaWorld-Regular-32"/><use x="55.615" xlink:href="#HelveticaWorld-Regular-30"/><use x="111.23" xlink:href="#HelveticaWorld-Regular-31"/><use x="166.846" xlink:href="#HelveticaWorld-Regular-38"/></g></g><g id="xtick_5"><use style="fill:#969696;stroke:#969696;stroke-width:.4" x="284.676" xlink:href="#m20e66611a2" y="313.361" id="line2d_6"/><g style="fill:#969696" transform="matrix(.14 0 0 -.14 269.105 330.41)" id="text_5"><defs><path d="M1766 2009q384 0 624 259 241 260 241 766 0 416-228 688t-681 272q-391 0-632-275-240-275-240-738 0-472 225-722t691-250zm-82-506q-640 0-1028 397-387 397-387 1056 0 666 390 1105 391 439 1057 439 775 0 1175-522t400-1565q0-1082-410-1809-409-726-1225-726-637 0-987 358t-350 845h565q25-337 220-536 196-198 540-198 487 0 737 434 250 435 344 1247l-12 13q-363-538-1029-538z" id="HelveticaWorld-Regular-39" transform="scale(.01563)"/></defs><use xlink:href="#HelveticaWorld-Regular-32"/><use x="55.615" xlink:href="#HelveticaWorld-Regular-30"/><use x="111.23" xlink:href="#HelveticaWorld-Regular-31"/><use x="166.846" xlink:href="#HelveticaWorld-Regular-39"/></g></g><g id="xtick_6"><use style="fill:#969696;stroke:#969696;stroke-width:.4" x="334.632" xlink:href="#m20e66611a2" y="313.361" id="line2d_7"/><g style="fill:#969696" transform="matrix(.14 0 0 -.14 319.061 330.41)" id="text_6"><use xlink:href="#HelveticaWorld-Regular-32"/><use x="55.615" xlink:href="#HelveticaWorld-Regular-30"/><use x="111.23" xlink:href="#HelveticaWorld-Regular-32"/><use x="166.846" xlink:href="#HelveticaWorld-Regular-30"/></g></g><g id="xtick_7"><use style="fill:#969696;stroke:#969696;stroke-width:.4" x="384.725" xlink:href="#m20e66611a2" y="313.361" id="line2d_8"/><g style="fill:#969696" transform="matrix(.14 0 0 -.14 369.154 330.41)" id="text_7"><use xlink:href="#HelveticaWorld-Regular-32"/><use x="55.615" xlink:href="#HelveticaWorld-Regular-30"/><use x="111.23" xlink:href="#HelveticaWorld-Regular-32"/><use x="166.846" xlink:href="#HelveticaWorld-Regular-31"/></g></g></g><g id="matplotlib.axis_2"><g id="ytick_1"><path clip-path="url(#p33c438089e)" d="M45.341 282.96h357.12" style="fill:none;stroke:#969696;stroke-linecap:square;stroke-width:.3" id="line2d_9"/><g id="line2d_10"><defs><path d="M0 0h-3.5" id="m7683d69034" style="stroke:#969696;stroke-width:.3"/></defs><use style="fill:#969696;stroke:#969696;stroke-width:.3" x="45.341" xlink:href="#m7683d69034" y="282.961"/></g><g style="fill:#969696" transform="matrix(.14 0 0 -.14 14.985 287.985)" id="text_8"><use xlink:href="#HelveticaWorld-Regular-35"/><use x="55.615" xlink:href="#HelveticaWorld-Regular-30"/><use x="111.23" xlink:href="#HelveticaWorld-Regular-30"/></g></g><g id="ytick_2"><path clip-path="url(#p33c438089e)" d="M45.341 252.5h357.12" style="fill:none;stroke:#969696;stroke-linecap:square;stroke-width:.3" id="line2d_11"/><use style="fill:#969696;stroke:#969696;stroke-width:.3" x="45.341" xlink:href="#m7683d69034" y="252.499" id="line2d_12"/><g style="fill:#969696" transform="matrix(.14 0 0 -.14 7.2 257.524)" id="text_9"><use xlink:href="#HelveticaWorld-Regular-31"/><use x="55.615" xlink:href="#HelveticaWorld-Regular-30"/><use x="111.23" xlink:href="#HelveticaWorld-Regular-30"/><use x="166.846" xlink:href="#HelveticaWorld-Regular-30"/></g></g><g id="ytick_3"><path clip-path="url(#p33c438089e)" d="M45.341 222.038h357.12" style="fill:none;stroke:#969696;stroke-linecap:square;stroke-width:.3" id="line2d_13"/><use style="fill:#969696;stroke:#969696;stroke-width:.3" x="45.341" xlink:href="#m7683d69034" y="222.038" id="line2d_14"/><g style="fill:#969696" transform="matrix(.14 0 0 -.14 7.2 227.062)" id="text_10"><use xlink:href="#HelveticaWorld-Regular-31"/><use x="55.615" xlink:href="#HelveticaWorld-Regular-35"/><use x="111.23" xlink:href="#HelveticaWorld-Regular-30"/><use x="166.846" xlink:href="#HelveticaWorld-Regular-30"/></g></g><g id="ytick_4"><path clip-path="url(#p33c438089e)" d="M45.341 191.576h357.12" style="fill:none;stroke:#969696;stroke-linecap:square;stroke-width:.3" id="line2d_15"/><use style="fill:#969696;stroke:#969696;stroke-width:.3" x="45.341" xlink:href="#m7683d69034" y="191.576" id="line2d_16"/><g style="fill:#969696" transform="matrix(.14 0 0 -.14 7.2 196.6)" id="text_11"><use xlink:href="#HelveticaWorld-Regular-32"/><use x="55.615" xlink:href="#HelveticaWorld-Regular-30"/><use x="111.23" xlink:href="#HelveticaWorld-Regular-30"/><use x="166.846" xlink:href="#HelveticaWorld-Regular-30"/></g></g><g id="ytick_5"><path clip-path="url(#p33c438089e)" d="M45.341 161.115h357.12" style="fill:none;stroke:#969696;stroke-linecap:square;stroke-width:.3" id="line2d_17"/><use style="fill:#969696;stroke:#969696;stroke-width:.3" x="45.341" xlink:href="#m7683d69034" y="161.115" id="line2d_18"/><g style="fill:#969696" transform="matrix(.14 0 0 -.14 7.2 166.14)" id="text_12"><use xlink:href="#HelveticaWorld-Regular-32"/><use x="55.615" xlink:href="#HelveticaWorld-Regular-35"/><use x="111.23" xlink:href="#HelveticaWorld-Regular-30"/><use x="166.846" xlink:href="#HelveticaWorld-Regular-30"/></g></g><g id="ytick_6"><path clip-path="url(#p33c438089e)" d="M45.341 130.653h357.12" style="fill:none;stroke:#969696;stroke-linecap:square;stroke-width:.3" id="line2d_19"/><use style="fill:#969696;stroke:#969696;stroke-width:.3" x="45.341" xlink:href="#m7683d69034" y="130.653" id="line2d_20"/><g style="fill:#969696" transform="matrix(.14 0 0 -.14 7.2 135.678)" id="text_13"><defs><path d="M1434 2559q141-12 294-12 397 0 626 183 230 183 230 554 0 300-214 505t-617 205q-447 0-655-263-207-262-220-703H325q0 703 369 1087 369 385 1084 385 635 0 1013-327 378-326 378-857 0-685-578-928v-13q750-256 750-1050 0-634-422-1041-422-406-1197-406-634 0-1044 333-409 333-459 1164h581q13-519 256-755 244-236 703-236 444 0 713 247t269 622q0 410-257 619-256 209-793 209-128 0-257-6v484z" id="HelveticaWorld-Regular-33" transform="scale(.01563)"/></defs><use xlink:href="#HelveticaWorld-Regular-33"/><use x="55.615" xlink:href="#HelveticaWorld-Regular-30"/><use x="111.23" xlink:href="#HelveticaWorld-Regular-30"/><use x="166.846" xlink:href="#HelveticaWorld-Regular-30"/></g></g><g id="ytick_7"><path clip-path="url(#p33c438089e)" d="M45.341 100.192h357.12" style="fill:none;stroke:#969696;stroke-linecap:square;stroke-width:.3" id="line2d_21"/><use style="fill:#969696;stroke:#969696;stroke-width:.3" x="45.341" xlink:href="#m7683d69034" y="100.192" id="line2d_22"/><g style="fill:#969696" transform="matrix(.14 0 0 -.14 7.2 105.216)" id="text_14"><use xlink:href="#HelveticaWorld-Regular-33"/><use x="55.615" xlink:href="#HelveticaWorld-Regular-35"/><use x="111.23" xlink:href="#HelveticaWorld-Regular-30"/><use x="166.846" xlink:href="#HelveticaWorld-Regular-30"/></g></g><g id="ytick_8"><path clip-path="url(#p33c438089e)" d="M45.341 69.73h357.12" style="fill:none;stroke:#969696;stroke-linecap:square;stroke-width:.3" id="line2d_23"/><use style="fill:#969696;stroke:#969696;stroke-width:.3" x="45.341" xlink:href="#m7683d69034" y="69.73" id="line2d_24"/><g style="fill:#969696" transform="matrix(.14 0 0 -.14 7.2 74.755)" id="text_15"><defs><path d="M678 1581h1447v2041h-12L678 1581zm2010-487V0h-563v1094H159v550l2063 2856h466V1581h659v-487h-659z" id="HelveticaWorld-Regular-34" transform="scale(.01563)"/></defs><use xlink:href="#HelveticaWorld-Regular-34"/><use x="55.615" xlink:href="#HelveticaWorld-Regular-30"/><use x="111.23" xlink:href="#HelveticaWorld-Regular-30"/><use x="166.846" xlink:href="#HelveticaWorld-Regular-30"/></g></g></g><path clip-path="url(#p33c438089e)" d="m191.563 313.361 1.258-.609 3.853-.122 1.192-.182 1.085-.305 3.14-.61 1.045-.67 1.012-.609 3.87-.67 2.723-.304 2.018-.305 1.298-.305.77-.182 3.974-.183 1.5-.61 3.77-.67 1.31-.609 3.082-.67 2.525-.61 3.104-.67 1.492-.609 1.595-.304 3.46-.366 3.2-.609 2.064-.305 2.334-.304 1.913-.61 3.806-.304 1.542-.366 3.3-.121.947-.183 2.022-.305 1.311-.67 4.08-.61 2.883-.304 1.761-.365 1.806-.305 2.599-.305 1.386-.304 3.205-.366 2.215-.609 3.812-.67 1.917-.61 2.66-.67 3.962-1.279 2.126-.61 3.836-.608 3.335-1.28.588-1.28 1.954-.608 3.524-.67 3.031-.61 2.21-.67 4.094-.61 1.883-.67 1.475-.304 2.785-.305 2.409-.67 1.868-.609 2.416-.67 3.751-.61 3.285-.67 2.314-.121 1.956-.183 1.484-.305 3.68-.67L353.2 279l2.833-.608 1.815-.67 1.485-.61 3.901-.67 2.566-1.28.77-2.558 3.331-.914 2.324-.975 2.764-1.157 2.546-1.219 2.84-2.376 2.693-2.498 1.774-2.497 2.534-.732 1.994-.73 3.923-1.95.428-2.01 3.007-2.438 3.196-2.436 2.3-4.935" style="fill:none;stroke:#9467bd;stroke-linecap:square;stroke-width:1.5" id="line2d_25"/><path clip-path="url(#p33c438089e)" d="m84.341 313.361 2-1.584 1.346-.792.053-.182.482-.122 4.418-.061.255-.061.586-.061 3.759-.06 2.863-.062 12.543-.06 6.102-.062.22-.122.866-.365 3.654-.427 2.373-.852 1.371-1.645 3.683-1.645 3.348-.366 2.19-.426.903-.427 3.212-.426.886-3.29 1.256-3.29 3.253-3.29 2.628-1.645 3.863-.792 1.723-.853 3.149-1.645 4.042-1.644 3.293-.792 3.001-.427 2.553-.426 2.34-.792 1.87-.853 2.83-.792 3.33-.427 1.802-.426 2.863-.792 1.538-.853 3.685-1.645 1.727-1.645 3.448-.792 2.939-.853 2.709-.792 2.675-.853 3.794-.792 3.318-.853 1.64-.792 3.434-.853 3.254-.792 3.028-.853 3.721-.792 2.178-.853 2.87-1.644 2.039-.792 2.614-.853 3.656-1.645 2.675-.792 3.13-.853 3.282-.792 2.73-.853 2.468-.792 3.147-.853 3.69-1.645 2.988-.792 1.404-.853 2.457-.792 1.736-.853 2.808-.792 4.058-.853 3.082-1.645 3.906-.792.551-.853 2.33-1.645 3.446-1.644 2.545-1.645 4.014-1.645 3.547-.792 3.169-.853 2.826-1.645.42-3.29 2.072-1.645 2.215-1.645 2.475-.792 3.302-.853 1.884-.792 2.284-.853 1.891-.792 2.35-.853 2.011-.792 3.107-.853 2.719-.792 1.618-.852 3.014-1.645 2.215-.792 3.133-.853.825-.366 3.557-.426 2.013-.853 3.055-1.645 4.084-1.645 2.884-3.29 1.68-.792 2.453-.853 3.57-1.645 3.543-.975 2.176-.974 3.002-.853 1.676-.853 3.49-1.706 2.627-.853 2.12-.914 2.42-.914 2.047-.974 2.512-.853 1.737-.914 2.994-1.219 1.513-1.218 2.17-1.219 2.052-1.279" style="fill:none;stroke:#d62728;stroke-linecap:square;stroke-width:1.5" id="line2d_26"/><g style="fill:#1f77b4" transform="matrix(.14 0 0 -.14 406.032 50.866)" id="text_16"><defs><path d="M2778 1684q0 672-238 963-237 291-677 291-447-7-676-349-228-342-228-989 0-659 275-934t641-275q416 0 659 342 244 342 244 951zM422 0v4594h562V2925h13q359 519 969 519 625 0 1009-464t384-1208q0-838-388-1354Q2584-97 1888-97q-613 0-922 513h-13V0H422z" id="HelveticaWorld-Regular-62" transform="scale(.01563)"/><path d="M1100 2881V703q0-128 70-195 71-67 252-67h216V0q-307-44-422-44-353 0-516 169-162 169-162 547v2209H84v466h454v934h562v-934h538v-466h-538z" id="HelveticaWorld-Regular-74" transform="scale(.01563)"/><path d="M1100 2881V0H538v2881H78v466h460v575q0 378 229 557 230 180 642 180 141 0 254-12v-506q-100 12-229 12-187 0-261-92-73-92-73-298v-416h563v-466h-563z" id="HelveticaWorld-Regular-66" transform="scale(.01563)"/><path d="M813 1678q0-559 253-920t718-361q482 0 732 378t250 903q0 531-250 901-250 371-732 371-446 0-709-349-262-348-262-923zm-575 0q0 747 415 1256 416 510 1131 510 732 0 1144-516 413-515 413-1250 0-737-410-1256Q2522-97 1784-97q-709 0-1128 503-418 503-418 1272z" id="HelveticaWorld-Regular-6f" transform="scale(.01563)"/><path d="M984 0H422v3347h531v-556h13q365 653 940 653 91 0 147-19v-584h-209q-378 0-619-257-241-256-241-637V0z" id="HelveticaWorld-Regular-72" transform="scale(.01563)"/><path d="M838 1684q0-621 246-957 247-336 657-336 390 0 652 287 263 288 263 838 0 706-224 1064-223 358-679 358-434 0-675-285-240-284-240-969zM3225 0h-531v459h-13Q2363-97 1716-97q-697 0-1079 531-381 532-381 1338 0 744 378 1208 379 464 1016 464 628 0 1000-569l13 38v1681h562V0z" id="HelveticaWorld-Regular-64" transform="scale(.01563)"/><path d="M319-122h-428l1575 4838h422L319-122z" id="HelveticaWorld-Regular-2f" transform="scale(.01563)"/><path d="M1638 0h-575L97 3347h606l641-2631h12l647 2631h635l653-2631h12l678 2631h557L3572 0h-591l-678 2591h-12L1638 0z" id="HelveticaWorld-Regular-77" transform="scale(.01563)"/><path d="M422 3956v638h562v-638H422zM984 0H422v3347h562V0z" id="HelveticaWorld-Regular-69" transform="scale(.01563)"/><path d="M2719 1941q-44 543-288 770-243 227-647 227-409 0-661-288-251-287-267-709h1863zm537-891q-93-519-509-859-366-288-963-294-703 6-1116 461-412 455-412 1223 0 882 425 1372 425 491 1182 491 678 0 1059-507 381-506 381-1446H856q0-525 244-813 244-287 731-287 344 0 591 207 247 208 272 452h562z" id="HelveticaWorld-Regular-65" transform="scale(.01563)"/><path d="M1850 1484H281v575h1569v-575z" id="HelveticaWorld-Regular-2d" transform="scale(.01563)"/><path d="M831 1684q0-615 244-954t659-339q404 0 660 293 256 294 256 832 0 706-224 1064-223 358-679 358-459 0-688-305-228-305-228-949zM3188 191q0-807-388-1203-387-397-1169-397-562 0-895 259T353-409h563q43-244 226-388t530-144q472 0 712 254 241 253 241 821v238h-12Q2297-97 1722-97q-716 0-1094 528T250 1772q0 744 381 1208 382 464 1013 464 634 0 1000-569h12v472h532V191z" id="HelveticaWorld-Regular-67" transform="scale(.01563)"/></defs><use xlink:href="#HelveticaWorld-Regular-62"/><use x="56.494" xlink:href="#HelveticaWorld-Regular-74"/><use x="84.18" xlink:href="#HelveticaWorld-Regular-66"/><use x="109.865" xlink:href="#HelveticaWorld-Regular-6f"/><use x="165.773" xlink:href="#HelveticaWorld-Regular-72"/><use x="197.342" xlink:href="#HelveticaWorld-Regular-64"/><use x="254.324" xlink:href="#HelveticaWorld-Regular-2f"/><use x="282.107" xlink:href="#HelveticaWorld-Regular-77"/><use x="354.52" xlink:href="#HelveticaWorld-Regular-72"/><use x="387.088" xlink:href="#HelveticaWorld-Regular-69"/><use x="409.109" xlink:href="#HelveticaWorld-Regular-74"/><use x="436.795" xlink:href="#HelveticaWorld-Regular-65"/><use x="492.215" xlink:href="#HelveticaWorld-Regular-2d"/><use x="525.516" xlink:href="#HelveticaWorld-Regular-67"/><use x="581.424" xlink:href="#HelveticaWorld-Regular-6f"/><use x="637.332" xlink:href="#HelveticaWorld-Regular-6f"/><use x="693.24" xlink:href="#HelveticaWorld-Regular-64"/></g><g style="fill:#ff7f0e" transform="matrix(.14 0 0 -.14 406.032 76.15)" id="text_17"><defs><path d="M2456 1709q-62-65-245-106-183-40-683-106-369-44-542-182-173-137-173-362 0-275 146-428 147-153 469-153 403 0 715 229 313 230 313 558v550zM397 2328q19 566 367 841 349 275 1014 275 531 0 890-241 360-240 360-694V581q0-197 178-197 72 0 185 25V0q-153-63-319-63-288 0-429 123-140 124-146 387Q2016-97 1288-97q-475 0-763 269-287 269-287 700 0 441 250 712 250 272 728 329l993 121q269 41 269 397 0 263-195 403-195 141-592 141-353 0-543-156-189-156-226-491H397z" id="HelveticaWorld-Regular-61" transform="scale(.01563)"/><path d="M984 0H422v4594h562V0z" id="HelveticaWorld-Regular-6c" transform="scale(.01563)"/><path d="M3138 0h-725l-825 1259L781 0H72l1169 1722L128 3347h716l775-1178 781 1178h684L1959 1722 3138 0z" id="HelveticaWorld-Regular-78" transform="scale(.01563)"/></defs><use xlink:href="#HelveticaWorld-Regular-67"/><use x="55.908" xlink:href="#HelveticaWorld-Regular-65"/><use x="111.328" xlink:href="#HelveticaWorld-Regular-74"/><use x="139.014" xlink:href="#HelveticaWorld-Regular-2d"/><use x="172.314" xlink:href="#HelveticaWorld-Regular-61"/><use x="227.246" xlink:href="#HelveticaWorld-Regular-6c"/><use x="249.268" xlink:href="#HelveticaWorld-Regular-65"/><use x="301.813" xlink:href="#HelveticaWorld-Regular-78"/><use x="351.813" xlink:href="#HelveticaWorld-Regular-2f"/><use x="379.596" xlink:href="#HelveticaWorld-Regular-61"/><use x="434.527" xlink:href="#HelveticaWorld-Regular-6c"/><use x="456.549" xlink:href="#HelveticaWorld-Regular-65"/><use x="509.094" xlink:href="#HelveticaWorld-Regular-78"/></g><g style="fill:#2ca02c" transform="matrix(.14 0 0 -.14 406.032 91.35)" id="text_18"><defs><path d="M422 3347h531v-472h13q378 569 1012 569 628 0 891-544 240 294 465 419t557 125q434 0 735-285 302-284 302-843V0h-562v2163q0 390-147 582-147 193-475 193-331 0-560-269-228-269-228-628V0h-562v2316q0 290-135 456-134 166-390 166-403 0-644-300t-241-813V0H422v3347z" id="HelveticaWorld-Regular-6d" transform="scale(.01563)"/><path d="M959 1516q0-538 262-832 263-293 654-293 428 0 665 348 238 349 238 945 0 654-228 954t-687 300q-447 0-676-352-228-352-228-1070zM422 3347h531v-472h13q359 569 1000 569 647 0 1020-471 373-470 373-1201 0-819-381-1344T1888-97q-582 0-891 450h-13v-1678H422v4672z" id="HelveticaWorld-Regular-70" transform="scale(.01563)"/><path d="M2309 2394q-12 300-214 431-201 131-579 131-275 0-471-122-195-121-195-350 0-181 115-267 116-86 501-183l556-140q506-128 723-327 218-198 218-554 0-494-361-802T1638-97Q934-97 573 195q-360 293-367 880h544q13-347 230-516 217-168 651-168 353 0 561 140 208 141 208 391 0 178-135 284-134 107-531 197l-653 160q-397 100-586 298t-189 514q0 494 353 781 354 288 922 288 607 0 930-296 323-295 342-754h-544z" id="HelveticaWorld-Regular-73" transform="scale(.01563)"/><path d="M3150 0h-566v2059q0 475-166 677-165 202-549 202-378 0-632-288-253-287-253-825V0H422v3347h531v-472h13q397 569 1012 569 569 0 870-302 302-301 302-864V0z" id="HelveticaWorld-Regular-6e" transform="scale(.01563)"/></defs><use xlink:href="#HelveticaWorld-Regular-61"/><use x="54.932" xlink:href="#HelveticaWorld-Regular-6d"/><use x="137.939" xlink:href="#HelveticaWorld-Regular-70"/><use x="194.434" xlink:href="#HelveticaWorld-Regular-65"/><use x="249.854" xlink:href="#HelveticaWorld-Regular-72"/><use x="282.422" xlink:href="#HelveticaWorld-Regular-73"/><use x="332.422" xlink:href="#HelveticaWorld-Regular-65"/><use x="387.842" xlink:href="#HelveticaWorld-Regular-72"/><use x="420.41" xlink:href="#HelveticaWorld-Regular-2f"/><use x="448.193" xlink:href="#HelveticaWorld-Regular-70"/><use x="504.688" xlink:href="#HelveticaWorld-Regular-72"/><use x="536.256" xlink:href="#HelveticaWorld-Regular-6f"/><use x="592.164" xlink:href="#HelveticaWorld-Regular-73"/><use x="642.164" xlink:href="#HelveticaWorld-Regular-65"/><use x="697.584" xlink:href="#HelveticaWorld-Regular-6c"/><use x="719.605" xlink:href="#HelveticaWorld-Regular-69"/><use x="741.627" xlink:href="#HelveticaWorld-Regular-6e"/><use x="796.803" xlink:href="#HelveticaWorld-Regular-74"/></g><g style="fill:#d62728" transform="matrix(.14 0 0 -.14 406.032 196.005)" id="text_19"><use xlink:href="#HelveticaWorld-Regular-74"/><use x="27.686" xlink:href="#HelveticaWorld-Regular-65"/><use x="80.23" xlink:href="#HelveticaWorld-Regular-78"/><use x="130.23" xlink:href="#HelveticaWorld-Regular-74"/><use x="157.916" xlink:href="#HelveticaWorld-Regular-6c"/><use x="179.938" xlink:href="#HelveticaWorld-Regular-69"/><use x="201.959" xlink:href="#HelveticaWorld-Regular-6e"/><use x="257.135" xlink:href="#HelveticaWorld-Regular-74"/><use x="284.82" xlink:href="#HelveticaWorld-Regular-2f"/><use x="312.604" xlink:href="#HelveticaWorld-Regular-74"/><use x="340.289" xlink:href="#HelveticaWorld-Regular-65"/><use x="392.834" xlink:href="#HelveticaWorld-Regular-78"/><use x="442.834" xlink:href="#HelveticaWorld-Regular-74"/><use x="470.52" xlink:href="#HelveticaWorld-Regular-6c"/><use x="492.541" xlink:href="#HelveticaWorld-Regular-69"/><use x="514.563" xlink:href="#HelveticaWorld-Regular-6e"/><use x="569.738" xlink:href="#HelveticaWorld-Regular-74"/></g><g style="fill:#9467bd" transform="matrix(.14 0 0 -.14 406.032 249.312)" id="text_20"><defs><path d="M2522 3347h616L1863 0h-604L38 3347h653l872-2725h12l947 2725z" id="HelveticaWorld-Regular-76" transform="scale(.01563)"/></defs><use xlink:href="#HelveticaWorld-Regular-65"/><use x="55.42" xlink:href="#HelveticaWorld-Regular-72"/><use x="87.988" xlink:href="#HelveticaWorld-Regular-72"/><use x="119.557" xlink:href="#HelveticaWorld-Regular-61"/><use x="174.488" xlink:href="#HelveticaWorld-Regular-74"/><use x="202.174" xlink:href="#HelveticaWorld-Regular-61"/><use x="257.105" xlink:href="#HelveticaWorld-Regular-2d"/><use x="290.406" xlink:href="#HelveticaWorld-Regular-61"/><use x="345.338" xlink:href="#HelveticaWorld-Regular-69"/><use x="367.359" xlink:href="#HelveticaWorld-Regular-2f"/><use x="395.143" xlink:href="#HelveticaWorld-Regular-76"/><use x="442.377" xlink:href="#HelveticaWorld-Regular-61"/><use x="497.309" xlink:href="#HelveticaWorld-Regular-6c"/><use x="519.33" xlink:href="#HelveticaWorld-Regular-65"/></g><g style="fill:#8c564b" transform="matrix(.14 0 0 -.14 406.032 288.132)" id="text_21"><defs><path d="M2534 2222q-121 716-793 716-416 0-669-333t-253-927q0-647 234-967 235-320 681-320 300 0 519 220t281 573h544q-84-621-439-951T1722-97q-659 0-1081 451-422 452-422 1227 0 850 422 1356 422 507 1184 507 556 0 886-333t367-889h-544z" id="HelveticaWorld-Regular-63" transform="scale(.01563)"/></defs><use xlink:href="#HelveticaWorld-Regular-72"/><use x="31.568" xlink:href="#HelveticaWorld-Regular-65"/><use x="86.988" xlink:href="#HelveticaWorld-Regular-64"/><use x="143.971" xlink:href="#HelveticaWorld-Regular-70"/><use x="200.465" xlink:href="#HelveticaWorld-Regular-65"/><use x="255.885" xlink:href="#HelveticaWorld-Regular-6e"/><use x="311.061" xlink:href="#HelveticaWorld-Regular-2d"/><use x="344.361" xlink:href="#HelveticaWorld-Regular-63"/><use x="395.631" xlink:href="#HelveticaWorld-Regular-63"/><use x="446.9" xlink:href="#HelveticaWorld-Regular-2f"/><use x="474.684" xlink:href="#HelveticaWorld-Regular-72"/><use x="506.252" xlink:href="#HelveticaWorld-Regular-65"/><use x="561.672" xlink:href="#HelveticaWorld-Regular-64"/><use x="618.654" xlink:href="#HelveticaWorld-Regular-70"/><use x="675.148" xlink:href="#HelveticaWorld-Regular-65"/><use x="730.568" xlink:href="#HelveticaWorld-Regular-6e"/></g><g style="fill:#969696" transform="matrix(.09716 0 0 -.09716 45.341 347.193)" id="text_22"><defs><path d="M2463 2456h2018V0h-403l-150 594q-294-375-691-546-396-170-824-170-691 0-1155 301-464 302-721 833-256 532-256 1326 0 990 589 1684t1586 694q744 0 1300-416 557-416 647-1100h-600q-109 453-462 709-353 257-916 257-678 0-1091-511-412-511-412-1352 0-978 409-1436 410-458 1119-458 463 0 783 183t492 497q172 314 172 836H2463v531z" id="HelveticaWorld-Regular-47" transform="scale(.01563)"/><path d="M4153 0h-622v2144H1131V0H519v4594h612V2694h2400v1900h622V0z" id="HelveticaWorld-Regular-48" transform="scale(.01563)"/><path d="M391 3347h562V1125q0-369 167-552 168-182 480-182 434 0 678 307 244 308 244 805v1844h562V0h-531v488l-12 12Q2222-97 1478-97q-481 0-784 262-303 263-303 776v2406z" id="HelveticaWorld-Regular-75" transform="scale(.01563)"/><path d="m2816 1888-678 2021h-13l-737-2021h1428zm-1619-550L716 0H78l1728 4594h703L4172 0h-678l-453 1338H1197z" id="HelveticaWorld-Regular-41" transform="scale(.01563)"/><path d="M1141 2472h1234q466 0 700 204 234 205 234 621 0 372-225 569t-684 197H1141V2472zm0-2472H519v4594h2065q616 0 991-358t375-933q0-597-363-980-362-382-1003-382H1141V0z" id="HelveticaWorld-Regular-50" transform="scale(.01563)"/><path d="M1141 0H519v4594h622V0z" id="HelveticaWorld-Regular-49" transform="scale(.01563)"/><path d="M3150 0h-566v2188q0 403-156 576-156 174-509 174-435 0-685-282-250-281-250-831V0H422v4594h562V2900h13q384 544 981 544 550 0 861-288 311-287 311-878V0z" id="HelveticaWorld-Regular-68" transform="scale(.01563)"/><path d="M603 4716h466V-122H603v4838z" id="HelveticaWorld-Regular-7c" transform="scale(.01563)"/><path d="M3559 4594h600V0h-690L1125 3713h-12V0H519v4594h728L3547 884h12v3710z" id="HelveticaWorld-Regular-4e" transform="scale(.01563)"/><path d="M3225 3250q-19 438-327 686-307 248-810 248-507 0-779-208-271-207-271-598 0-209 118-359 119-150 425-222l1313-300q531-116 787-440 257-323 257-788 0-681-500-1036T2138-122q-610 0-962 156-351 157-623 497-272 341-272 953h582q0-512 340-794 341-281 928-281 569 0 886 202t317 573q0 338-189 505t-739 295l-990 232q-494 112-738 392t-244 689q0 619 417 1019 418 400 1165 400 843 0 1301-352 458-351 492-1114h-584z" id="HelveticaWorld-Regular-53" transform="scale(.01563)"/><path d="M813 1678q0-559 253-920t718-361q482 0 732 378t250 903q0 531-250 901-250 371-732 371-446 0-709-349-262-348-262-923zm-575 0q0 747 415 1256 416 510 1131 510 732 0 1144-516 413-515 413-1250 0-737-410-1256Q2522-97 1784-97q-709 0-1128 503-418 503-418 1272zm2351 2266h-575v650h575v-650zm-1038 0H976v650h575v-650z" id="HelveticaWorld-Regular-f6" transform="scale(.01563)"/><path d="M3713 3213q-104 468-434 710-329 243-854 243-678 0-1091-493-412-492-412-1329 0-969 390-1443 391-473 1132-473 487 0 838 323 352 324 474 940h603q-121-885-671-1349T2350-122q-941 0-1505 647T281 2322q0 1109 589 1751 589 643 1555 643 800 0 1297-413 497-412 591-1090h-600z" id="HelveticaWorld-Regular-43" transform="scale(.01563)"/><path d="M519 4594h2015q594 0 947-322t353-834q0-310-155-565-154-254-460-395 428-162 629-431 202-269 202-691 0-593-428-975Q3194 0 2491 0H519v4594zm612-4063h1325q488 0 731 226 244 227 244 612 0 390-272 582-271 193-803 193H1131V531zm0 2119h1128q494 0 724 179 230 180 230 562 0 328-218 500-217 172-729 172H1131V2650z" id="HelveticaWorld-Regular-42" transform="scale(.01563)"/><path d="M2388 0h-622v1850L31 4594h725l1319-2206 1316 2206h731L2388 1850V0z" id="HelveticaWorld-Regular-59" transform="scale(.01563)"/></defs><use xlink:href="#HelveticaWorld-Regular-47"/><use x="77.1" xlink:href="#HelveticaWorld-Regular-69"/><use x="99.121" xlink:href="#HelveticaWorld-Regular-74"/><use x="126.807" xlink:href="#HelveticaWorld-Regular-48"/><use x="199.805" xlink:href="#HelveticaWorld-Regular-75"/><use x="254.59" xlink:href="#HelveticaWorld-Regular-62"/><use x="311.084" xlink:href="#HelveticaWorld-Regular-20"/><use x="335.498" xlink:href="#HelveticaWorld-Regular-41"/><use x="402.197" xlink:href="#HelveticaWorld-Regular-50"/><use x="466.846" xlink:href="#HelveticaWorld-Regular-49"/><use x="492.627" xlink:href="#HelveticaWorld-Regular-20"/><use x="517.041" xlink:href="#HelveticaWorld-Regular-76"/><use x="566.65" xlink:href="#HelveticaWorld-Regular-69"/><use x="588.672" xlink:href="#HelveticaWorld-Regular-61"/><use x="643.604" xlink:href="#HelveticaWorld-Regular-20"/><use x="668.018" xlink:href="#HelveticaWorld-Regular-73"/><use x="718.018" xlink:href="#HelveticaWorld-Regular-74"/><use x="745.703" xlink:href="#HelveticaWorld-Regular-61"/><use x="800.635" xlink:href="#HelveticaWorld-Regular-72"/><use x="832.203" xlink:href="#HelveticaWorld-Regular-67"/><use x="888.111" xlink:href="#HelveticaWorld-Regular-72"/><use x="919.68" xlink:href="#HelveticaWorld-Regular-61"/><use x="974.611" xlink:href="#HelveticaWorld-Regular-70"/><use x="1031.105" xlink:href="#HelveticaWorld-Regular-68"/><use x="1086.281" xlink:href="#HelveticaWorld-Regular-20"/><use x="1110.695" xlink:href="#HelveticaWorld-Regular-7c"/><use x="1136.672" xlink:href="#HelveticaWorld-Regular-20"/><use x="1161.086" xlink:href="#HelveticaWorld-Regular-4e"/><use x="1234.182" xlink:href="#HelveticaWorld-Regular-69"/><use x="1256.203" xlink:href="#HelveticaWorld-Regular-63"/><use x="1307.473" xlink:href="#HelveticaWorld-Regular-6f"/><use x="1363.381" xlink:href="#HelveticaWorld-Regular-20"/><use x="1387.795" xlink:href="#HelveticaWorld-Regular-53"/><use x="1454.006" xlink:href="#HelveticaWorld-Regular-63"/><use x="1505.275" xlink:href="#HelveticaWorld-Regular-68"/><use x="1560.451" xlink:href="#HelveticaWorld-Regular-6c"/><use x="1582.473" xlink:href="#HelveticaWorld-Regular-f6"/><use x="1638.381" xlink:href="#HelveticaWorld-Regular-6d"/><use x="1721.389" xlink:href="#HelveticaWorld-Regular-65"/><use x="1776.809" xlink:href="#HelveticaWorld-Regular-72"/><use x="1809.377" xlink:href="#HelveticaWorld-Regular-20"/><use x="1833.791" xlink:href="#HelveticaWorld-Regular-7c"/><use x="1859.768" xlink:href="#HelveticaWorld-Regular-20"/><use x="1884.182" xlink:href="#HelveticaWorld-Regular-43"/><use x="1956.496" xlink:href="#HelveticaWorld-Regular-43"/><use x="2028.811" xlink:href="#HelveticaWorld-Regular-20"/><use x="2053.225" xlink:href="#HelveticaWorld-Regular-42"/><use x="2116.037" xlink:href="#HelveticaWorld-Regular-59"/></g><g style="fill:#969696" transform="matrix(.14 0 0 -.14 151.206 17.25)" id="text_23"><use xlink:href="#HelveticaWorld-Regular-4e"/><use x="73.096" xlink:href="#HelveticaWorld-Regular-75"/><use x="127.881" xlink:href="#HelveticaWorld-Regular-6d"/><use x="210.889" xlink:href="#HelveticaWorld-Regular-62"/><use x="267.383" xlink:href="#HelveticaWorld-Regular-65"/><use x="322.803" xlink:href="#HelveticaWorld-Regular-72"/><use x="355.371" xlink:href="#HelveticaWorld-Regular-20"/><use x="379.785" xlink:href="#HelveticaWorld-Regular-6f"/><use x="435.693" xlink:href="#HelveticaWorld-Regular-66"/><use x="463.379" xlink:href="#HelveticaWorld-Regular-20"/><use x="487.793" xlink:href="#HelveticaWorld-Regular-47"/><use x="564.893" xlink:href="#HelveticaWorld-Regular-69"/><use x="586.914" xlink:href="#HelveticaWorld-Regular-74"/><use x="614.6" xlink:href="#HelveticaWorld-Regular-48"/><use x="687.598" xlink:href="#HelveticaWorld-Regular-75"/><use x="742.383" xlink:href="#HelveticaWorld-Regular-62"/><use x="798.877" xlink:href="#HelveticaWorld-Regular-20"/><use x="823.291" xlink:href="#HelveticaWorld-Regular-73"/><use x="873.291" xlink:href="#HelveticaWorld-Regular-74"/><use x="900.977" xlink:href="#HelveticaWorld-Regular-61"/><use x="955.908" xlink:href="#HelveticaWorld-Regular-72"/><use x="988.477" xlink:href="#HelveticaWorld-Regular-73"/></g><path clip-path="url(#p33c438089e)" d="m122.396 313.361 2.796-3.29.264-.365 1.224-.183 3.424-.243.37-.183 6.533-.061 3.367-.061.012-.122.053-.426 3.303-1.706.013-6.64.021-13.282.078-26.563 3.654-53.185 2.768-3.29 2.622-1.645 2.033-.427 2.399-.426 2.395-.853 3.746-3.29 2.433-.792 2.338-.853 2.864-1.706 2.332-.792 2.26-.853 3.742-1.644 4.061-1.645 2.94-1.706 3.931-3.29 3.43-1.645 1.072-1.706 3.243-1.645 2.062-1.645 2.863-1.645 2.566-1.705 2.675-1.645 3.687-.792 3.422-.853 3.733-1.645 3.46-1.706 2.836-1.645 3.555-1.645 1.624-1.645 3.518-1.706 3.441-1.645 2.8-.853 2.25-.852 3.826-1.645 3.144-1.706 3.386-3.29 1.246-3.35 1.509-.793 3.357-.853 2.412-.792 1.936-.853 2.367-.792 3.142-.853 3.221-.853 2.248-.852 2.985-.792 1.468-.853 1.825-1.645 3.454-1.645 2.826-.853 2.86-.853 2.356-.792 1.86-.853 3.919-1.645 1.596-.792 2.622-.853 3.992-1.706 2.35-.792 1.978-.853 2.313-.792 3.038-.853.07-1.644 2.126-.853 2.017-.427 3.263-.426 1.404-1.645 2.474-.792 2.526-.853 1.819-.792 3.864-.853 3.884-.853 1.484-.853 3.667-1.645 2.849-.792 3.132-.853 2.22-.792 2.35-.853 2.444-.853 2.197-.853 3.176-1.644 2.727-1.706.975-3.351 2.697-1.523 2.988-1.523 1.756-.731 2.697-.731 3.326-1.523 3.473-.488 1.475-.487 2.349-1.523 2.178-1.584 4.062-.731 3.505-.549 1.683-.548 3.721-1.097" style="fill:none;stroke:#2ca02c;stroke-linecap:square;stroke-width:1.5" id="line2d_27"/><path clip-path="url(#p33c438089e)" d="m116.945 313.361 2.835-27.72 1.295-6.884 3.855-3.473 2.737-1.705 2.962-1.767 3.956-3.473 1.06-3.472 2.566-3.473 3.207-3.473 3.396-3.411 1.232-3.473 1.043-6.945 3.575-3.473 3.073-1.706 1.983-1.766 2.467-1.706 2.747-1.767 3.837-1.706 3.82-1.767 2.84-1.705 1.61-1.767 2.462-.853 2.376-.853 1.59-.853 2.651-.914 2.985-1.706 1.761-1.766 2.965-1.706 2.636-1.767 3.202-1.706 2.579-1.767 2.972-1.706 3.583-1.766 3.105-1.706 2.027-1.767 1.906-1.706 2.325-1.767 2.4-1.705 2.497-1.706 3.726-3.473 3.258-1.706 2.498-1.766 1.9-.853 3.906-.853 3.246-.427 1.272-.426 1.206-.914 2.81-3.473 2.344-1.706 3.545-1.766 3.694-.853 1.572-.853.973-.853 3.269-.914 3.088-1.706 3.58-.853 2.196-.914 2.539-.852 1.776-.853.01-1.767.026-3.473.254-6.945.835-6.945 1.8-3.473 1.47-1.706 2.914-1.766 2.294-1.706 3.865-1.706 2.765-1.706 2.56-.853 2.092-.914 3.1-1.706 2.05-1.766 2.386-1.706 2.916-1.767 1.997-1.706 3.251-1.767 3.544-.853 4.02-.852 2.78-.853 1.707-.427 2.734-.487 1.478-3.473 3.726-3.472 1.766-1.706 2.777-1.767 2.226-1.706 2.883-1.767 3.644-3.472 2.686-1.706 2.564-.853 2.865-.914 2.938-1.706 1.704-1.767 3.071-3.472 3.52-3.473 2.704-1.706 3.21-1.766 2.793-2.133 2.826-2.193 2.031-2.559 3.654-1.28 2.482-1.278 2.402-.732 2.243-.792 2.896-.609 1.494-.67 2.86-1.097 1.423-1.096 2.314-1.097 1.913-1.096 2.945-1.097 1.573-1.158" style="fill:none;stroke:#ff7f0e;stroke-linecap:square;stroke-width:1.5" id="line2d_28"/><path clip-path="url(#p33c438089e)" d="m50.46 313.361 2.374-23.394 3.146-1.95 3.612-1.95 2.373-3.898 1.375-3.9 3.354-3.898 1.545-3.9 1.426-1.949 3.58-1.95 3.606-3.899 3.277-3.899 5.405-5.848 2.33-1.95 3.877-3.899 3.574-3.899 3.74-3.9 3.129-1.949 1.633-1.95 1.812-1.949 2.54-1.95 2.654-.974 1.653-.975 1.409-1.95 4.102-1.949 1.21-1.95 3.125-1.949 3.503-1.95 1.872-1.949 3.21-1.95 5.769-2.924 3.189-.975 3.704-1.95 2.424-1.949 3.963-1.95 2.629-.974 1.777-.975 3.097-1.95 2.802-1.949 3.987-3.899 2.698-.975 1.725-.974 4.052-1.95 2.321-1.95 3.529-1.95 2.044-3.898 2.553-3.9 4.157-7.797 3.426-3.9 3.224-3.899 2.64-3.899 2.146-3.899 2.835-3.899 1.45-3.899 3.469-7.798 1.4-1.95 6.552-3.899 3.036-.974 4.71-2.925 3.422-1.95 2.742-1.949 2.893-.975 2.117-.974 3.83-1.95 5.27-1.95 3.998-1.949 3.488-1.95 3.905-1.949 2.43-.975 3.853-1.95 2.75-.974 3.668-1.95 2.644-.974 1.99-.975 5.464-1.95 2.088-.974 2.56-.975 7.993-3.9 2.693-.974 1.707-.975 3.09-.975 2.061-.974 2.648-1.95 8.063-3.899 6.65-1.95 7.546-1.95 2.597-.974 3.25-.975 1.652-.974 5.657-1.95 2.61-.975 2.012-.974 2.786-.975 1.493-1.95 2.88-.975 2.398-.974 4.004-1.95 3.628-1.95 3.362-3.898 2.027-1.95 2.375-2.01 5.403-2.194 3.402-.243.865-.305 2.013-.548 1.833-1.158 2.201-.67 5.883-1.523 1.34-.914 7.527-2.01 1.822-.975 1.643-2.01 2.021-3.96h0" style="fill:none;stroke:#1f77b4;stroke-linecap:square;stroke-width:1.5" id="line2d_29"/></g></g><defs><clipPath id="p33c438089e"><path d="M45.341 47.249h357.12v266.112H45.341z"/></clipPath></defs></svg>