<svg height="431.141" viewBox="0 0 600.47 323.356" width="800.626" xmlns="http://www.w3.org/2000/svg" xmlns:xlink="http://www.w3.org/1999/xlink"><defs><style>*{stroke-linecap:butt;stroke-linejoin:round}</style></defs><g id="figure_1"><path d="M0 323.356h600.47V0H0z" style="fill:none" id="patch_1"/><g id="axes_1"><path d="M82.476 279.829h357.12V13.717H82.476z" style="fill:none" id="patch_2"/><g id="matplotlib.axis_1"><g id="xtick_1"><g id="line2d_1"><defs><path d="M0 0v3.5" id="m1d6e2d96bc" style="stroke:#969696;stroke-width:.4"/></defs><use style="fill:#969696;stroke:#969696;stroke-width:.4" x="127.486" xlink:href="#m1d6e2d96bc" y="279.829"/></g><g style="fill:#969696" transform="matrix(.14 0 0 -.14 113.122 296.769)" id="text_1"><defs><path d="M2944 0v467H1075v13l333 307c877 845 1434 1466 1434 2234 0 595-378 1209-1274 1209-480 0-890-179-1178-422l180-397c192 160 505 352 883 352 621 0 825-390 825-813-6-627-486-1164-1548-2176L288 346V0h2656z" id="MyriadPro-Regular-32" transform="scale(.01563)"/><path d="M1677 4230c-845 0-1447-768-1447-2163C243 691 794-70 1606-70c922 0 1447 780 1447 2195 0 1325-499 2105-1376 2105zm-32-435c582 0 845-672 845-1696 0-1062-276-1734-852-1734-512 0-844 614-844 1696 0 1133 358 1734 851 1734z" id="MyriadPro-Regular-30" transform="scale(.01563)"/><path d="M1510 0h544v4160h-480l-908-486 108-429 724 390h12V0z" id="MyriadPro-Regular-31" transform="scale(.01563)"/></defs><use xlink:href="#MyriadPro-Regular-32"/><use x="51.3" xlink:href="#MyriadPro-Regular-30"/><use x="102.6" xlink:href="#MyriadPro-Regular-31"/><use x="153.9" xlink:href="#MyriadPro-Regular-32"/></g></g><g id="xtick_2"><use style="fill:#969696;stroke:#969696;stroke-width:.4" x="191.002" xlink:href="#m1d6e2d96bc" y="279.829" id="line2d_2"/><g style="fill:#969696" transform="matrix(.14 0 0 -.14 176.64 296.769)" id="text_2"><defs><path d="M2560 0v1133h582v441h-582v2586h-608L96 1504v-371h1933V0h531zM666 1574v13l1017 1415c115 192 218 371 346 614h19c-13-218-19-435-19-653V1574H666z" id="MyriadPro-Regular-34" transform="scale(.01563)"/></defs><use xlink:href="#MyriadPro-Regular-32"/><use x="51.3" xlink:href="#MyriadPro-Regular-30"/><use x="102.6" xlink:href="#MyriadPro-Regular-31"/><use x="153.9" xlink:href="#MyriadPro-Regular-34"/></g></g><g id="xtick_3"><use style="fill:#969696;stroke:#969696;stroke-width:.4" x="254.433" xlink:href="#m1d6e2d96bc" y="279.829" id="line2d_3"/><g style="fill:#969696" transform="matrix(.14 0 0 -.14 240.07 296.769)" id="text_3"><defs><path d="M2662 4224c-102 0-243-6-409-32-525-64-986-275-1331-614-410-410-704-1056-704-1876C218 621 800-70 1690-70c864 0 1382 704 1382 1465 0 813-518 1344-1254 1344-461 0-807-217-1005-480h-19c96 685 563 1331 1446 1479 160 25 307 32 422 25v461zM1690 365c-589 0-903 505-916 1190 0 103 26 186 64 250 154 301 468 512 807 512 518 0 857-359 857-954s-326-998-806-998h-6z" id="MyriadPro-Regular-36" transform="scale(.01563)"/></defs><use xlink:href="#MyriadPro-Regular-32"/><use x="51.3" xlink:href="#MyriadPro-Regular-30"/><use x="102.6" xlink:href="#MyriadPro-Regular-31"/><use x="153.9" xlink:href="#MyriadPro-Regular-36"/></g></g><g id="xtick_4"><use style="fill:#969696;stroke:#969696;stroke-width:.4" x="317.95" xlink:href="#m1d6e2d96bc" y="279.829" id="line2d_4"/><g style="fill:#969696" transform="matrix(.14 0 0 -.14 303.586 296.769)" id="text_4"><defs><path d="M1062 2170c-512-218-825-589-825-1114C237 448 762-70 1632-70c794 0 1414 486 1414 1209 0 506-320 871-838 1075v20c512 243 685 620 685 972 0 519-403 1024-1210 1024-729 0-1286-448-1286-1107 0-358 198-717 659-934l6-19zm583-1831c-531 0-851 371-832 794 0 397 262 717 749 857 563-160 915-403 915-908 0-423-327-743-832-743zm6 3488c506 0 704-345 704-678 0-378-275-634-633-755-480 128-794 352-794 768 0 358 256 665 723 665z" id="MyriadPro-Regular-38" transform="scale(.01563)"/></defs><use xlink:href="#MyriadPro-Regular-32"/><use x="51.3" xlink:href="#MyriadPro-Regular-30"/><use x="102.6" xlink:href="#MyriadPro-Regular-31"/><use x="153.9" xlink:href="#MyriadPro-Regular-38"/></g></g><g id="xtick_5"><use style="fill:#969696;stroke:#969696;stroke-width:.4" x="381.38" xlink:href="#m1d6e2d96bc" y="279.829" id="line2d_5"/><g style="fill:#969696" transform="matrix(.14 0 0 -.14 367.016 296.769)" id="text_5"><use xlink:href="#MyriadPro-Regular-32"/><use x="51.3" xlink:href="#MyriadPro-Regular-30"/><use x="102.6" xlink:href="#MyriadPro-Regular-32"/><use x="153.9" xlink:href="#MyriadPro-Regular-30"/></g></g></g><g id="matplotlib.axis_2"><g id="ytick_1"><path clip-path="url(#pd923e9427a)" d="M82.476 279.829h357.12" style="fill:none;stroke:#969696;stroke-linecap:square;stroke-width:.3" id="line2d_6"/><g id="line2d_7"><defs><path d="M0 0h-3.5" id="me00bd4bcbe" style="stroke:#969696;stroke-width:.3"/></defs><use style="fill:#969696;stroke:#969696;stroke-width:.3" x="82.476" xlink:href="#me00bd4bcbe" y="279.829"/></g><use xlink:href="#MyriadPro-Regular-30" style="fill:#969696" transform="matrix(.14 0 0 -.14 68.295 284.799)" id="text_6"/></g><g id="ytick_2"><path clip-path="url(#pd923e9427a)" d="M82.476 225.861h357.12" style="fill:none;stroke:#969696;stroke-linecap:square;stroke-width:.3" id="line2d_8"/><use style="fill:#969696;stroke:#969696;stroke-width:.3" x="82.476" xlink:href="#me00bd4bcbe" y="225.861" id="line2d_9"/><g style="fill:#969696" transform="matrix(.14 0 0 -.14 46.75 230.831)" id="text_7"><defs><path d="M2771 4160H781L512 2163c154 19 339 45 576 45 832 0 1190-384 1197-922 0-556-455-902-986-902-377 0-717 128-889 230L269 186C467 58 851-70 1306-70c902 0 1548 608 1548 1420 0 525-268 884-595 1069-256 154-576 224-896 224-153 0-243-13-339-25l160 1068h1587v474z" id="MyriadPro-Regular-35" transform="scale(.01563)"/></defs><use xlink:href="#MyriadPro-Regular-35"/><use x="51.3" xlink:href="#MyriadPro-Regular-30"/><use x="102.6" xlink:href="#MyriadPro-Regular-30"/><use x="153.9" xlink:href="#MyriadPro-Regular-30"/></g></g><g id="ytick_3"><path clip-path="url(#pd923e9427a)" d="M82.476 171.894h357.12" style="fill:none;stroke:#969696;stroke-linecap:square;stroke-width:.3" id="line2d_10"/><use style="fill:#969696;stroke:#969696;stroke-width:.3" x="82.476" xlink:href="#me00bd4bcbe" y="171.894" id="line2d_11"/><g style="fill:#969696" transform="matrix(.14 0 0 -.14 39.568 176.864)" id="text_8"><use xlink:href="#MyriadPro-Regular-31"/><use x="51.3" xlink:href="#MyriadPro-Regular-30"/><use x="102.6" xlink:href="#MyriadPro-Regular-30"/><use x="153.9" xlink:href="#MyriadPro-Regular-30"/><use x="205.2" xlink:href="#MyriadPro-Regular-30"/></g></g><g id="ytick_4"><path clip-path="url(#pd923e9427a)" d="M82.476 117.927h357.12" style="fill:none;stroke:#969696;stroke-linecap:square;stroke-width:.3" id="line2d_12"/><use style="fill:#969696;stroke:#969696;stroke-width:.3" x="82.476" xlink:href="#me00bd4bcbe" y="117.927" id="line2d_13"/><g style="fill:#969696" transform="matrix(.14 0 0 -.14 39.568 122.897)" id="text_9"><use xlink:href="#MyriadPro-Regular-31"/><use x="51.3" xlink:href="#MyriadPro-Regular-35"/><use x="102.6" xlink:href="#MyriadPro-Regular-30"/><use x="153.9" xlink:href="#MyriadPro-Regular-30"/><use x="205.2" xlink:href="#MyriadPro-Regular-30"/></g></g><g id="ytick_5"><path clip-path="url(#pd923e9427a)" d="M82.476 63.96h357.12" style="fill:none;stroke:#969696;stroke-linecap:square;stroke-width:.3" id="line2d_14"/><use style="fill:#969696;stroke:#969696;stroke-width:.3" x="82.476" xlink:href="#me00bd4bcbe" y="63.96" id="line2d_15"/><g style="fill:#969696" transform="matrix(.14 0 0 -.14 39.568 68.93)" id="text_10"><use xlink:href="#MyriadPro-Regular-32"/><use x="51.3" xlink:href="#MyriadPro-Regular-30"/><use x="102.6" xlink:href="#MyriadPro-Regular-30"/><use x="153.9" xlink:href="#MyriadPro-Regular-30"/><use x="205.2" xlink:href="#MyriadPro-Regular-30"/></g></g><g style="fill:#969696" transform="matrix(.14 0 0 -.14 7.2 34.577)" id="text_11"><defs><path d="M3770 2266H2349v-448h877V531c-128-64-378-115-743-115-1005 0-1664 646-1664 1741 0 1081 685 1734 1735 1734 435 0 723-83 953-185l135 454c-186 90-576 198-1076 198-1446 0-2329-940-2336-2227 0-672 231-1248 602-1606 422-403 960-570 1613-570 582 0 1075 147 1325 237v2074z" id="MyriadPro-Regular-47" transform="scale(.01563)"/><path d="M1030 0v3098H467V0h563zM749 4320c-205 0-352-154-352-352 0-192 141-346 339-346 224 0 365 154 358 346 0 198-134 352-345 352z" id="MyriadPro-Regular-69" transform="scale(.01563)"/><path d="M595 3667v-569H115v-429h480V979c0-365 58-640 218-806C947 19 1158-70 1421-70c217 0 390 38 499 83l-26 422c-83-25-172-38-326-38-314 0-422 217-422 601v1671h806v429h-806v742l-551-173z" id="MyriadPro-Regular-74" transform="scale(.01563)"/><path d="M486 4314V0h557v2022h2087V0h563v4314h-563V2509H1043v1805H486z" id="MyriadPro-Regular-48" transform="scale(.01563)"/><path d="M3059 3098h-563V1197c0-103-19-205-51-288-103-250-365-512-743-512-512 0-691 397-691 985v1716H448V1286C448 198 1030-70 1517-70c550 0 877 326 1024 576h13l32-506h499c-19 243-26 525-26 845v2253z" id="MyriadPro-Regular-75" transform="scale(.01563)"/><path d="M467 800c0-275-13-589-25-800h486l26 512h19c230-410 589-582 1037-582 691 0 1388 550 1388 1657 7 941-537 1581-1305 1581-499 0-858-224-1056-570h-13v1946H467V800zm557 998c0 90 19 167 32 231 115 429 474 691 858 691 601 0 921-531 921-1152 0-710-352-1190-941-1190-409 0-736 268-844 659-13 64-26 134-26 205v556z" id="MyriadPro-Regular-62" transform="scale(.01563)"/><path d="M250 147C467 19 781-70 1120-70c736 0 1158 390 1158 934 0 461-275 730-812 934-404 154-589 269-589 525 0 231 185 423 518 423 288 0 512-103 634-180l141 410c-173 102-448 192-762 192-666 0-1069-410-1069-909 0-371 263-678 819-877 416-153 576-300 576-569 0-256-192-461-601-461-282 0-576 115-743 224L250 147z" id="MyriadPro-Regular-73" transform="scale(.01563)"/><path d="M2643 1901c0 621-230 1267-1177 1267-391 0-762-109-1018-275l128-371c218 140 518 230 806 230 634 0 704-461 704-717v-64C890 1978 224 1568 224 819c0-448 320-889 947-889 442 0 775 217 947 460h20l44-390h512c-38 211-51 474-51 742v1159zm-544-858c0-57-13-121-32-179-89-262-345-518-749-518-288 0-531 172-531 537 0 602 698 711 1312 698v-538z" id="MyriadPro-Regular-61" transform="scale(.01563)"/><path d="M467 0h557v1651c0 96 13 186 26 263 76 422 358 723 755 723 77 0 134-7 192-19v531c-51 13-96 19-160 19-378 0-717-262-858-678h-25l-20 608H442c19-288 25-602 25-967V0z" id="MyriadPro-Regular-72" transform="scale(.01563)"/></defs><use xlink:href="#MyriadPro-Regular-47"/><use x="64.6" xlink:href="#MyriadPro-Regular-69"/><use x="88" xlink:href="#MyriadPro-Regular-74"/><use x="121.1" xlink:href="#MyriadPro-Regular-48"/><use x="186.3" xlink:href="#MyriadPro-Regular-75"/><use x="241.4" xlink:href="#MyriadPro-Regular-62"/><use x="298.3" xlink:href="#MyriadPro-Regular-20"/><use x="319.5" xlink:href="#MyriadPro-Regular-73"/><use x="359.1" xlink:href="#MyriadPro-Regular-74"/><use x="392.2" xlink:href="#MyriadPro-Regular-61"/><use x="440.4" xlink:href="#MyriadPro-Regular-72"/><use x="473.1" xlink:href="#MyriadPro-Regular-73"/></g></g><path clip-path="url(#pd923e9427a)" d="m196.129 279.829 2.694-.011h10.6l2.694-2.159 2.607-.82 2.693-.151 2.607-.195 2.694-.237 2.693-.345 2.433-.367 2.694-.281 2.606-.291 2.694-.26 2.607-.399 2.693-.194 2.694-.184 2.607-.302 2.693-.324 2.607-.194 2.694-.324 2.693-.28 2.52-.324 2.694-.194 2.606-.206 2.694-.356 2.607-.194 2.693-.237 2.694-.292 2.607-.561 2.693-.443 2.607-.377 2.693-.303 2.694-.291 2.433-.561 2.694-.594 2.606-.432 2.694-.529 2.607-.518 2.693-.56 2.694-.314 2.607-.69 2.693-.551 2.607-.486 2.694-.637 2.693-.83 2.433-.789 2.694-.55 2.606-.561 2.694-.648 2.607-.82 2.693-.842 2.694-.885 2.607-.55 2.693-.594 2.607-.907 2.694-1.004 2.693-1.025 2.433-.928 2.694-.993 2.606-1.166 2.694-1.317 2.607-.831 2.693-1.295 2.694-1.198 2.607-1.134 2.693-1.468 2.607-1.262 2.694-.961 2.693-1.22 2.52-1.176 2.694-1.414 2.606-1.457 2.694-1.749 2.607-1.673 2.693-1.133 2.694-1.36 2.607-1.392 2.693-1.49 2.607-1.425 2.694-1.532 2.693-1.382 2.433-1.586 2.694-1.846 2.606-1.727 2.694-1.554 2.607-1.587 2.693-1.608 2.694-1.62 2.607-1.726 2.693-1.943" style="fill:none;stroke:#9467bd;stroke-linecap:square;stroke-width:1.5" id="line2d_16"/><path clip-path="url(#pd923e9427a)" d="m257.126 279.829 2.52-40.39 2.694-3.874 2.606-1.317 2.694-1.08 2.607-7.879 2.693-6 2.694-2.127 2.607-1.792 2.693-.917 2.607-.767 2.693-.777 2.694-10.005 2.433-2.202 2.694-2.05 2.606-1.728 2.694-1.284 2.607-1.414 2.693-1.209 2.694-1.738 2.607-1.1 2.693-1.382 2.607-1.544 2.694-1.079 2.693-1.36 2.433-1.608 2.694-5.354 2.606-1.025 2.694-1.23 2.607-1.07 2.693-1.305 2.694-3.281 2.607-3.972 2.693-1.5 2.607-1.695 2.694-1.058 2.693-1.133 2.433-1.144 2.694-1.328 2.606-1.511 2.694-1.123 2.607-.96 2.693-1.177 2.694-1.327 2.607-1.252 2.693-2.137 2.607-2.137 2.694-1.76 2.693-1.165 2.52-.788 2.694-1.155 2.606-2.45 2.694-1.824 2.607-1.48 2.693-1.068 2.694-.993 2.607-1.036 2.693-1.479 2.607-.885 2.694-.993 2.693-1.424 2.433-.648 2.694-1.123 2.606-.733 2.694-.94 2.607-.82 2.693-.766 2.694-.82 2.607-.691 2.693-.723" style="fill:none;stroke:#d62728;stroke-linecap:square;stroke-width:1.5" id="line2d_17"/><path clip-path="url(#pd923e9427a)" d="m82.476 279.829 2.694-13.514 2.607-.442 10.687-1.35 5.127-.755 13.294-1.284 15.814-1.08 7.994-.205 21.288-.108 2.433-.55 2.694-.853 7.907-2.903 2.693-.929 2.694-1.22 5.3-2.644 2.607-1.522 2.693-1.306 2.694-1.025 2.433-1.252 2.694-2.191 2.606-1.09 5.3-2.515 2.694-1.997 2.694-1.23 2.607-1.684 2.693-1.878 2.607-5.7 2.694-4.597 7.82-4.792 2.606-1.155 2.694-1.706 5.3-2.87 5.3-2.43 2.694-2.136 2.607-1.306 2.694-1.727 2.693-3.076 2.52-2.483 5.3-4.317 2.694-2.062 2.607-1.63 2.693-1.51 2.694-1.846 7.907-4.242 2.693-1.22 2.694-1.748 2.433-1.371 2.694-1.921 2.606-1.177 2.694-1.576 5.3-2.914 2.694-1.176 2.607-1.004 2.693-1.77 2.607-1.868 5.387-2.417 2.433-1.403 2.694-1.414 2.606-1.112 5.3-2.763 2.694-.95 13.295-5.634 2.693-1.414 2.433-1.112 2.694-1.425 2.606-1.176 2.694-1.37 2.607-1.037 5.387-1.738 7.907-3.087 5.387-1.532 5.214-2.191 2.606-2.893 2.694-2.083 7.994-2.688 2.607-.744 5.3-1.89 2.694-.917 2.693-1.09 2.433-.842 13.294-3.885 2.694-.637 2.607-1.295 2.693-.659h0" style="fill:none;stroke:#2ca02c;stroke-linecap:square;stroke-width:1.5" id="line2d_18"/><g style="fill:#1f77b4" transform="matrix(.14 0 0 -.14 450.31 17.14)" id="text_12"><defs><path d="M58 3098 1203 243c26-70 39-115 39-147s-20-77-45-134c-128-288-320-506-474-628-166-140-352-230-493-275l141-473c141 25 416 121 691 364 384 333 660 877 1063 1940l845 2208h-596l-614-1818c-77-224-141-461-198-646h-13c-51 185-128 428-199 633L672 3098H58z" id="MyriadPro-Regular-79" transform="scale(.01563)"/><path d="M467-1267h557V416h13c185-307 544-486 953-486 730 0 1408 550 1408 1664 0 940-563 1574-1312 1574-505 0-870-224-1100-602h-13l-26 532H442c12-295 25-615 25-1012v-3353zm557 3059c0 77 19 160 38 230 109 423 468 698 852 698 595 0 921-531 921-1152 0-710-345-1197-941-1197-403 0-742 269-844 659-13 71-26 148-26 231v531z" id="MyriadPro-Regular-70" transform="scale(.01563)"/><path d="M2579 538c-160-71-371-154-691-154-614 0-1075 442-1075 1158 0 647 384 1172 1094 1172 307 0 519-71 653-148l128 436c-154 76-448 160-781 160-1011 0-1664-692-1664-1645C243 570 851-70 1786-70c416 0 742 108 889 185l-96 423z" id="MyriadPro-Regular-63" transform="scale(.01563)"/><path d="M1779 3168c-857 0-1536-608-1536-1645C243 544 890-70 1728-70c749 0 1542 499 1542 1644 0 948-601 1594-1491 1594zm-13-422c666 0 928-666 928-1191 0-697-403-1203-940-1203-551 0-941 512-941 1190 0 589 288 1204 953 1204z" id="MyriadPro-Regular-6f" transform="scale(.01563)"/><path d="M2579 4544V2694h-13c-140 250-460 474-934 474-755 0-1395-634-1389-1664C243 563 819-70 1568-70c506 0 883 262 1056 608h13l25-538h506c-19 211-26 525-26 800v3744h-563zm0-3245c0-89-6-166-25-243-103-422-448-672-826-672-608 0-915 518-915 1146 0 684 345 1196 928 1196 422 0 729-294 813-652 19-71 25-167 25-237v-538z" id="MyriadPro-Regular-64" transform="scale(.01563)"/><path d="M2957 1446c6 58 19 148 19 263 0 569-269 1459-1280 1459-902 0-1453-736-1453-1670C243 563 813-70 1766-70c493 0 832 108 1031 198l-96 403c-211-89-455-160-858-160-563 0-1049 314-1062 1075h2176zM787 1850c45 390 295 915 864 915 634 0 787-557 781-915H787z" id="MyriadPro-Regular-65" transform="scale(.01563)"/><path d="m422-256 1792 4640h-435L-6-256h428z" id="MyriadPro-Regular-2f" transform="scale(.01563)"/><path d="M467 0h563v1869c0 109 7 192 39 269 102 307 390 563 755 563 531 0 717-423 717-922V0h563v1843c0 1069-666 1325-1082 1325-211 0-409-64-576-160-172-96-313-237-403-397h-13v1933H467V0z" id="MyriadPro-Regular-68" transform="scale(.01563)"/><path d="M1024 4544H467V0h557v1165l288 320L2381 0h685L1702 1824l1197 1274h-678l-909-1069c-90-109-198-243-275-352h-13v2867z" id="MyriadPro-Regular-6b" transform="scale(.01563)"/></defs><use xlink:href="#MyriadPro-Regular-74"/><use x="33.1" xlink:href="#MyriadPro-Regular-79"/><use x="80.2" xlink:href="#MyriadPro-Regular-70"/><use x="137.1" xlink:href="#MyriadPro-Regular-69"/><use x="160.5" xlink:href="#MyriadPro-Regular-63"/><use x="205.3" xlink:href="#MyriadPro-Regular-6f"/><use x="260.2" xlink:href="#MyriadPro-Regular-64"/><use x="316.6" xlink:href="#MyriadPro-Regular-65"/><use x="366.7" xlink:href="#MyriadPro-Regular-2f"/><use x="401" xlink:href="#MyriadPro-Regular-68"/><use x="456.5" xlink:href="#MyriadPro-Regular-75"/><use x="511.6" xlink:href="#MyriadPro-Regular-73"/><use x="551.2" xlink:href="#MyriadPro-Regular-6b"/><use x="598.1" xlink:href="#MyriadPro-Regular-79"/></g><g style="fill:#ff7f0e" transform="matrix(.14 0 0 -.14 450.31 46.92)" id="text_13"><defs><path d="M-230-1350c300 0 710 102 960 352 275 281 371 672 371 1273v2823H538V493c0-743-58-992-212-1165C192-819-32-890-288-909l58-441zM826 4320c-212 0-359-154-359-352 0-186 135-346 346-346 224 0 358 160 352 346 0 198-135 352-339 352z" id="MyriadPro-Regular-6a" transform="scale(.01563)"/><path d="M1082 0v2669h748v429h-748v166c0 474 121 896 601 896 160 0 275-32 359-70l76 435c-108 45-281 89-480 89-262 0-544-83-755-288-262-249-358-646-358-1081v-147H90v-429h435V0h557z" id="MyriadPro-Regular-66" transform="scale(.01563)"/><path d="M467 0h563v4544H467V0z" id="MyriadPro-Regular-6c" transform="scale(.01563)"/><path d="M115 0h2515v448H819v13c141 160 269 313 397 486l1382 1799 7 352H243v-455h1677v-13c-141-166-269-313-403-480L115 326V0z" id="MyriadPro-Regular-7a" transform="scale(.01563)"/><path d="M3110 2246c0 378 13 628 26 852h-493l-25-468h-13c-135 256-429 538-967 538-710 0-1395-595-1395-1645C243 666 794 13 1562 13c480 0 812 230 985 518h13V186c0-781-422-1082-998-1082-384 0-704 115-909 243l-141-429c250-166 659-256 1030-256 391 0 826 90 1127 372 301 268 441 704 441 1414v1798zm-556-928c0-96-13-204-45-300-122-359-435-576-781-576-608 0-915 505-915 1113 0 717 384 1171 921 1171 410 0 685-268 788-595 25-77 32-160 32-256v-557z" id="MyriadPro-Regular-67" transform="scale(.01563)"/></defs><use xlink:href="#MyriadPro-Regular-6a"/><use x="24.3" xlink:href="#MyriadPro-Regular-65"/><use x="74.4" xlink:href="#MyriadPro-Regular-73"/><use x="114" xlink:href="#MyriadPro-Regular-73"/><use x="153.6" xlink:href="#MyriadPro-Regular-65"/><use x="203.7" xlink:href="#MyriadPro-Regular-64"/><use x="260.1" xlink:href="#MyriadPro-Regular-75"/><use x="315.2" xlink:href="#MyriadPro-Regular-66"/><use x="344.4" xlink:href="#MyriadPro-Regular-66"/><use x="373.6" xlink:href="#MyriadPro-Regular-69"/><use x="397" xlink:href="#MyriadPro-Regular-65"/><use x="447.1" xlink:href="#MyriadPro-Regular-6c"/><use x="470.7" xlink:href="#MyriadPro-Regular-64"/><use x="527.1" xlink:href="#MyriadPro-Regular-2f"/><use x="561.4" xlink:href="#MyriadPro-Regular-6c"/><use x="585" xlink:href="#MyriadPro-Regular-61"/><use x="633.2" xlink:href="#MyriadPro-Regular-7a"/><use x="676" xlink:href="#MyriadPro-Regular-79"/><use x="723.1" xlink:href="#MyriadPro-Regular-67"/><use x="779" xlink:href="#MyriadPro-Regular-69"/><use x="802.4" xlink:href="#MyriadPro-Regular-74"/></g><g style="fill:#2ca02c" transform="matrix(.14 0 0 -.14 450.31 114.551)" id="text_14"><defs><path d="M192 1939v-416h1581v416H192z" id="MyriadPro-Regular-2d" transform="scale(.01563)"/><path d="m102 3098 1050-1517L51 0h621l448 698c115 185 224 345 326 537h13c109-185 211-358 333-537L2246 0h640L1798 1600l1056 1498h-608l-435-660c-102-166-205-326-307-512h-19c-103 173-199 333-314 506l-441 666H102z" id="MyriadPro-Regular-78" transform="scale(.01563)"/></defs><use xlink:href="#MyriadPro-Regular-74"/><use x="33.1" xlink:href="#MyriadPro-Regular-6a"/><use x="57.4" xlink:href="#MyriadPro-Regular-2f"/><use x="91.7" xlink:href="#MyriadPro-Regular-67"/><use x="147.6" xlink:href="#MyriadPro-Regular-69"/><use x="171" xlink:href="#MyriadPro-Regular-74"/><use x="204.1" xlink:href="#MyriadPro-Regular-2d"/><use x="234.8" xlink:href="#MyriadPro-Regular-65"/><use x="284.9" xlink:href="#MyriadPro-Regular-78"/><use x="331.2" xlink:href="#MyriadPro-Regular-74"/><use x="364.3" xlink:href="#MyriadPro-Regular-72"/><use x="397" xlink:href="#MyriadPro-Regular-61"/><use x="445.2" xlink:href="#MyriadPro-Regular-73"/></g><g style="fill:#d62728" transform="matrix(.14 0 0 -.14 450.31 128.648)" id="text_15"><defs><path d="M467 0h563v1862c0 96 13 192 39 263 96 313 384 576 755 576 531 0 717-416 717-915V0h563v1850c0 1062-666 1318-1094 1318-512 0-871-288-1024-582h-13l-32 512H442c19-256 25-519 25-839V0z" id="MyriadPro-Regular-6e" transform="scale(.01563)"/></defs><use xlink:href="#MyriadPro-Regular-73"/><use x="39.6" xlink:href="#MyriadPro-Regular-6f"/><use x="94.5" xlink:href="#MyriadPro-Regular-2d"/><use x="125.2" xlink:href="#MyriadPro-Regular-66"/><use x="154.4" xlink:href="#MyriadPro-Regular-61"/><use x="202.6" xlink:href="#MyriadPro-Regular-6e"/><use x="258.1" xlink:href="#MyriadPro-Regular-63"/><use x="302.9" xlink:href="#MyriadPro-Regular-79"/><use x="350" xlink:href="#MyriadPro-Regular-2f"/><use x="384.3" xlink:href="#MyriadPro-Regular-64"/><use x="440.7" xlink:href="#MyriadPro-Regular-69"/><use x="464.1" xlink:href="#MyriadPro-Regular-66"/><use x="493.3" xlink:href="#MyriadPro-Regular-66"/><use x="522.5" xlink:href="#MyriadPro-Regular-2d"/><use x="553.2" xlink:href="#MyriadPro-Regular-73"/><use x="592.8" xlink:href="#MyriadPro-Regular-6f"/><use x="647.7" xlink:href="#MyriadPro-Regular-2d"/><use x="678.4" xlink:href="#MyriadPro-Regular-66"/><use x="707.6" xlink:href="#MyriadPro-Regular-61"/><use x="755.8" xlink:href="#MyriadPro-Regular-6e"/><use x="811.3" xlink:href="#MyriadPro-Regular-63"/><use x="856.1" xlink:href="#MyriadPro-Regular-79"/></g><g style="fill:#9467bd" transform="matrix(.14 0 0 -.14 450.31 210.287)" id="text_16"><defs><path d="M467 0h551v1869c0 96 12 192 44 275 90 282 346 563 698 563 429 0 646-358 646-851V0h551v1914c0 102 19 204 45 281 96 275 345 512 665 512 455 0 672-358 672-953V0h551v1824c0 1075-608 1344-1018 1344-294 0-499-77-685-218-128-96-249-230-345-403h-13c-135 365-455 621-877 621-512 0-800-275-973-570h-19l-26 500H442c19-256 25-519 25-839V0z" id="MyriadPro-Regular-6d" transform="scale(.01563)"/></defs><use xlink:href="#MyriadPro-Regular-70"/><use x="56.9" xlink:href="#MyriadPro-Regular-72"/><use x="89.6" xlink:href="#MyriadPro-Regular-65"/><use x="139.7" xlink:href="#MyriadPro-Regular-2d"/><use x="170.4" xlink:href="#MyriadPro-Regular-63"/><use x="215.2" xlink:href="#MyriadPro-Regular-6f"/><use x="270.1" xlink:href="#MyriadPro-Regular-6d"/><use x="353.5" xlink:href="#MyriadPro-Regular-6d"/><use x="436.9" xlink:href="#MyriadPro-Regular-69"/><use x="460.3" xlink:href="#MyriadPro-Regular-74"/><use x="493.4" xlink:href="#MyriadPro-Regular-2f"/><use x="527.7" xlink:href="#MyriadPro-Regular-70"/><use x="584.6" xlink:href="#MyriadPro-Regular-72"/><use x="617.3" xlink:href="#MyriadPro-Regular-65"/><use x="667.4" xlink:href="#MyriadPro-Regular-2d"/><use x="698.1" xlink:href="#MyriadPro-Regular-63"/><use x="742.9" xlink:href="#MyriadPro-Regular-6f"/><use x="797.8" xlink:href="#MyriadPro-Regular-6d"/><use x="881.2" xlink:href="#MyriadPro-Regular-6d"/><use x="964.6" xlink:href="#MyriadPro-Regular-69"/><use x="988" xlink:href="#MyriadPro-Regular-74"/></g><g style="fill:#969696" transform="matrix(.09716 0 0 -.09716 82.476 313.727)" id="text_17"><defs><path d="M2714 1357 3174 0h596L2298 4314h-672L160 0h576l448 1357h1530zm-1415 435 423 1248c83 262 153 525 217 781h13c64-250 128-506 224-787l422-1242H1299z" id="MyriadPro-Regular-41" transform="scale(.01563)"/><path d="M486 0h557v1728c128-32 282-38 448-38 544 0 1024 160 1319 473 217 224 332 531 332 922 0 384-140 697-377 902-256 231-659 359-1210 359-448 0-800-39-1069-84V0zm557 3859c96 26 282 45 525 45 614 0 1018-275 1018-845 0-595-410-921-1082-921-186 0-339 12-461 44v1677z" id="MyriadPro-Regular-50" transform="scale(.01563)"/><path d="M486 4314V0h557v4314H486z" id="MyriadPro-Regular-49" transform="scale(.01563)"/><path d="M83 3098 1261 0h537l1216 3098h-588l-602-1741c-102-282-192-538-262-794h-20c-64 256-147 512-249 794L685 3098H83z" id="MyriadPro-Regular-76" transform="scale(.01563)"/><path d="M550 4800v-6400h429v6400H550z" id="MyriadPro-Regular-7c" transform="scale(.01563)"/><path d="M1011 0v1843c0 717-13 1235-45 1779l20 7c217-467 505-960 806-1440L3162 0h563v4314h-525V2509c0-672 13-1197 64-1773l-13-6c-205 441-454 896-774 1401L1094 4314H486V0h525z" id="MyriadPro-Regular-4e" transform="scale(.01563)"/><path d="M269 211C499 58 954-70 1370-70c1017 0 1510 582 1510 1248 0 633-371 985-1101 1267-595 230-857 429-857 832 0 294 224 646 812 646 391 0 679-128 820-205l153 455c-192 109-512 211-953 211-839 0-1396-499-1396-1171 0-608 436-973 1140-1223 582-224 812-454 812-857 0-435-332-736-902-736-384 0-749 128-998 281L269 211z" id="MyriadPro-Regular-53" transform="scale(.01563)"/><path d="M1165 3648c185 0 313 154 313 326 0 186-134 327-313 327s-327-147-327-327c0-172 135-326 320-326h7zm1184 0c185 0 313 154 313 326 0 186-134 327-313 327s-320-147-320-327c0-172 128-326 313-326h7zm-570-480c-857 0-1536-608-1536-1645C243 544 890-70 1728-70c749 0 1542 499 1542 1644 0 948-601 1594-1491 1594zm-13-422c666 0 928-666 928-1191 0-697-403-1203-940-1203-551 0-941 512-941 1190 0 589 288 1204 953 1204z" id="MyriadPro-Regular-f6" transform="scale(.01563)"/><path d="M3386 582c-224-108-570-179-909-179-1050 0-1658 679-1658 1735 0 1132 672 1779 1683 1779 359 0 660-77 871-179l134 454c-147 77-486 192-1024 192-1337 0-2253-915-2253-2266C230 704 1146-70 2362-70c524 0 934 108 1139 211l-115 441z" id="MyriadPro-Regular-43" transform="scale(.01563)"/><path d="M486 13c186-26 480-51 864-51 704 0 1191 128 1492 403 217 211 364 493 364 864 0 640-480 979-889 1081v13c454 167 729 531 729 947 0 340-134 596-358 762-269 218-627 314-1184 314-390 0-774-39-1018-90V13zm557 3865c90 20 237 39 493 39 563 0 947-199 947-704 0-416-345-723-934-723h-506v1388zm0-1811h461c608 0 1114-243 1114-832 0-627-532-838-1108-838-198 0-358 6-467 25v1645z" id="MyriadPro-Regular-42" transform="scale(.01563)"/><path d="M2010 0v1837l1446 2477h-634l-620-1191c-167-326-314-608-436-889h-12c-135 300-263 563-429 889L717 4314H83l1363-2484V0h564z" id="MyriadPro-Regular-59" transform="scale(.01563)"/></defs><use xlink:href="#MyriadPro-Regular-47"/><use x="64.6" xlink:href="#MyriadPro-Regular-69"/><use x="88" xlink:href="#MyriadPro-Regular-74"/><use x="121.1" xlink:href="#MyriadPro-Regular-48"/><use x="186.3" xlink:href="#MyriadPro-Regular-75"/><use x="241.4" xlink:href="#MyriadPro-Regular-62"/><use x="298.3" xlink:href="#MyriadPro-Regular-20"/><use x="319.5" xlink:href="#MyriadPro-Regular-41"/><use x="380.7" xlink:href="#MyriadPro-Regular-50"/><use x="433.9" xlink:href="#MyriadPro-Regular-49"/><use x="457.8" xlink:href="#MyriadPro-Regular-20"/><use x="479" xlink:href="#MyriadPro-Regular-76"/><use x="527.1" xlink:href="#MyriadPro-Regular-69"/><use x="550.5" xlink:href="#MyriadPro-Regular-61"/><use x="598.7" xlink:href="#MyriadPro-Regular-20"/><use x="619.9" xlink:href="#MyriadPro-Regular-73"/><use x="659.5" xlink:href="#MyriadPro-Regular-74"/><use x="692.6" xlink:href="#MyriadPro-Regular-61"/><use x="740.8" xlink:href="#MyriadPro-Regular-72"/><use x="773.5" xlink:href="#MyriadPro-Regular-67"/><use x="829.4" xlink:href="#MyriadPro-Regular-72"/><use x="862.1" xlink:href="#MyriadPro-Regular-61"/><use x="910.3" xlink:href="#MyriadPro-Regular-70"/><use x="967.2" xlink:href="#MyriadPro-Regular-68"/><use x="1022.7" xlink:href="#MyriadPro-Regular-20"/><use x="1043.9" xlink:href="#MyriadPro-Regular-7c"/><use x="1067.8" xlink:href="#MyriadPro-Regular-20"/><use x="1089" xlink:href="#MyriadPro-Regular-4e"/><use x="1154.8" xlink:href="#MyriadPro-Regular-69"/><use x="1178.2" xlink:href="#MyriadPro-Regular-63"/><use x="1223" xlink:href="#MyriadPro-Regular-6f"/><use x="1277.9" xlink:href="#MyriadPro-Regular-20"/><use x="1299.1" xlink:href="#MyriadPro-Regular-53"/><use x="1348.4" xlink:href="#MyriadPro-Regular-63"/><use x="1393.2" xlink:href="#MyriadPro-Regular-68"/><use x="1448.7" xlink:href="#MyriadPro-Regular-6c"/><use x="1472.3" xlink:href="#MyriadPro-Regular-f6"/><use x="1527.2" xlink:href="#MyriadPro-Regular-6d"/><use x="1610.6" xlink:href="#MyriadPro-Regular-65"/><use x="1660.7" xlink:href="#MyriadPro-Regular-72"/><use x="1693.4" xlink:href="#MyriadPro-Regular-20"/><use x="1714.6" xlink:href="#MyriadPro-Regular-7c"/><use x="1738.5" xlink:href="#MyriadPro-Regular-20"/><use x="1759.7" xlink:href="#MyriadPro-Regular-43"/><use x="1817.7" xlink:href="#MyriadPro-Regular-43"/><use x="1875.7" xlink:href="#MyriadPro-Regular-20"/><use x="1896.9" xlink:href="#MyriadPro-Regular-42"/><use x="1951.1" xlink:href="#MyriadPro-Regular-59"/></g><path clip-path="url(#pd923e9427a)" d="m331.07 279.829 2.607-.022h2.693l2.694-94.734 2.607-12.056 2.693-2.677 2.607-2.062 2.694-2.482 2.693-1.716 2.433-1.813 2.694-2.893 2.606-4.684 2.694-1.76 2.607-1.953 2.693-6.606 2.694-3.12 2.607-2.082 2.693-1.695 2.607-2.515 2.694-1.9 2.693-3.885 2.52-6.908 2.694-9.369 2.606-3.497 2.694-3.691 2.607-3.227 2.693-2.472 2.694-2.46 2.607-3.498 2.693-3.68 2.607-2.969 2.694-2.569 2.693-2.849 2.433-3.475 2.694-3.508 2.606-6.12 2.694-4.36 2.607-3.573 2.693-3.4 2.694-4.285L436.903 49l2.693-5.58" style="fill:none;stroke:#ff7f0e;stroke-linecap:square;stroke-width:1.5" id="line2d_19"/><path clip-path="url(#pd923e9427a)" d="m204.123 279.829 2.607-1.91 2.693-.584 2.694-.15 2.607-.066 2.693-.075 2.607-.151 2.694-.097 2.693-.184 2.433-.065 2.694-.205 2.606-.259 2.694-.41 2.607-.14 2.693-.248 2.694-.249 2.607-.658 2.693-.572 2.607-.27 2.694-.216 2.693-.4 2.52-.323 2.694-.637 2.606-.755 2.694-1.641 2.607-.788 2.693-1.047 2.694-1.446 2.607-.864 2.693-.885 2.607-1.122 2.693-1.738 2.694-1.835 2.433-2.774 2.694-6.39 2.606-3.864 2.694-2.946 2.607-3.325 2.693-3.162 2.694-3.055 2.607-3.076 2.693-3.691 2.607-3.454 2.694-3.303 2.693-4.5 2.433-3.714 2.694-4.35 2.606-4.284 2.694-4.674 2.607-4.188 2.693-4.241 2.694-4.825L341.67 180l2.693-9.336 2.607-5.937 2.694-4.673 2.693-5.235 2.433-5.785 2.694-5.915 2.606-5.073 2.694-5.397 2.607-4.824 2.693-6.358 2.694-5.051 2.607-4.522 2.693-4.307 2.607-4.652 2.694-3.648 2.693-4.533 2.52-4.026L389.287 86l2.606-5.148 2.694-4.134 2.607-3.897 2.693-3.734 2.694-3.961 2.607-3.746 2.693-3.389 2.607-3.454 2.694-3.227 2.693-2.795 2.433-3.746 2.694-4.177 2.606-4.177 2.694-3.734 2.607-3.325 2.693-4.544 2.694-3.702 2.607-4.026 2.693-3.367" style="fill:none;stroke:#1f77b4;stroke-linecap:square;stroke-width:1.5" id="line2d_20"/></g></g><defs><clipPath id="pd923e9427a"><path d="M82.476 13.717h357.12v266.112H82.476z"/></clipPath></defs></svg>