<svg xmlns:xlink="http://www.w3.org/1999/xlink" width="795.793" height="464.381" viewBox="0 0 596.845 348.286" xmlns="http://www.w3.org/2000/svg"><defs><style>*{stroke-linejoin:round;stroke-linecap:butt}</style></defs><g id="figure_1"><path d="M0 348.286h596.845V0H0v348.286z" style="fill:none" id="patch_1"/><g id="axes_1"><path d="M82.476 304.759h357.12V38.647H82.476v266.112z" style="fill:none" id="patch_2"/><g id="matplotlib.axis_1"><g id="xtick_1"><g id="line2d_1"><defs><path id="m441439f342" d="M0 0v3.5" style="stroke:#969696;stroke-width:.4"/></defs><use xlink:href="#m441439f342" x="113.587" y="304.759" style="fill:#969696;stroke:#969696;stroke-width:.4"/></g><g style="fill:#969696" transform="matrix(.14 0 0 -.14 99.224 321.699)" id="text_1"><defs><path id="MyriadPro-Regular-32" d="M2944 0v467H1075v13l333 307c877 845 1434 1466 1434 2234 0 595-378 1209-1274 1209-480 0-890-179-1178-422l180-397c192 160 505 352 883 352 621 0 825-390 825-813-6-627-486-1164-1548-2176L288 346V0h2656z" transform="scale(.01563)"/><path id="MyriadPro-Regular-30" d="M1677 4230c-845 0-1447-768-1447-2163C243 691 794-70 1606-70c922 0 1447 780 1447 2195 0 1325-499 2105-1376 2105zm-32-435c582 0 845-672 845-1696 0-1062-276-1734-852-1734-512 0-844 614-844 1696 0 1133 358 1734 851 1734z" transform="scale(.01563)"/><path id="MyriadPro-Regular-31" d="M1510 0h544v4160h-480l-908-486 108-429 724 390h12V0z" transform="scale(.01563)"/></defs><use xlink:href="#MyriadPro-Regular-32"/><use xlink:href="#MyriadPro-Regular-30" x="51.3"/><use xlink:href="#MyriadPro-Regular-31" x="102.6"/><use xlink:href="#MyriadPro-Regular-32" x="153.9"/></g></g><g id="xtick_2"><use xlink:href="#m441439f342" x="147.678" y="304.759" style="fill:#969696;stroke:#969696;stroke-width:.4" id="line2d_2"/><g style="fill:#969696" transform="matrix(.14 0 0 -.14 133.315 321.699)" id="text_2"><defs><path id="MyriadPro-Regular-33" d="M269 211C474 77 883-70 1350-70c999 0 1517 582 1517 1248 0 582-416 966-928 1068v13c512 186 768 551 768 979 0 506-371 992-1190 992-448 0-871-160-1088-320l147-409c179 128 499 275 832 275 518 0 730-294 730-627 0-493-519-704-928-704H896v-423h314c544 0 1068-249 1075-832 6-345-218-806-941-806-390 0-762 160-922 262L269 211z" transform="scale(.01563)"/></defs><use xlink:href="#MyriadPro-Regular-32"/><use xlink:href="#MyriadPro-Regular-30" x="51.3"/><use xlink:href="#MyriadPro-Regular-31" x="102.6"/><use xlink:href="#MyriadPro-Regular-33" x="153.9"/></g></g><g id="xtick_3"><use xlink:href="#m441439f342" x="181.676" y="304.759" style="fill:#969696;stroke:#969696;stroke-width:.4" id="line2d_3"/><g style="fill:#969696" transform="matrix(.14 0 0 -.14 167.313 321.699)" id="text_3"><defs><path id="MyriadPro-Regular-34" d="M2560 0v1133h582v441h-582v2586h-608L96 1504v-371h1933V0h531zM666 1574v13l1017 1415c115 192 218 371 346 614h19c-13-218-19-435-19-653V1574H666z" transform="scale(.01563)"/></defs><use xlink:href="#MyriadPro-Regular-32"/><use xlink:href="#MyriadPro-Regular-30" x="51.3"/><use xlink:href="#MyriadPro-Regular-31" x="102.6"/><use xlink:href="#MyriadPro-Regular-34" x="153.9"/></g></g><g id="xtick_4"><use xlink:href="#m441439f342" x="215.674" y="304.759" style="fill:#969696;stroke:#969696;stroke-width:.4" id="line2d_4"/><g style="fill:#969696" transform="matrix(.14 0 0 -.14 201.311 321.699)" id="text_4"><defs><path id="MyriadPro-Regular-35" d="M2771 4160H781L512 2163c154 19 339 45 576 45 832 0 1190-384 1197-922 0-556-455-902-986-902-377 0-717 128-889 230L269 186C467 58 851-70 1306-70c902 0 1548 608 1548 1420 0 525-268 884-595 1069-256 154-576 224-896 224-153 0-243-13-339-25l160 1068h1587v474z" transform="scale(.01563)"/></defs><use xlink:href="#MyriadPro-Regular-32"/><use xlink:href="#MyriadPro-Regular-30" x="51.3"/><use xlink:href="#MyriadPro-Regular-31" x="102.6"/><use xlink:href="#MyriadPro-Regular-35" x="153.9"/></g></g><g id="xtick_5"><use xlink:href="#m441439f342" x="249.672" y="304.759" style="fill:#969696;stroke:#969696;stroke-width:.4" id="line2d_5"/><g style="fill:#969696" transform="matrix(.14 0 0 -.14 235.31 321.699)" id="text_5"><defs><path id="MyriadPro-Regular-36" d="M2662 4224c-102 0-243-6-409-32-525-64-986-275-1331-614-410-410-704-1056-704-1876C218 621 800-70 1690-70c864 0 1382 704 1382 1465 0 813-518 1344-1254 1344-461 0-807-217-1005-480h-19c96 685 563 1331 1446 1479 160 25 307 32 422 25v461zM1690 365c-589 0-903 505-916 1190 0 103 26 186 64 250 154 301 468 512 807 512 518 0 857-359 857-954s-326-998-806-998h-6z" transform="scale(.01563)"/></defs><use xlink:href="#MyriadPro-Regular-32"/><use xlink:href="#MyriadPro-Regular-30" x="51.3"/><use xlink:href="#MyriadPro-Regular-31" x="102.6"/><use xlink:href="#MyriadPro-Regular-36" x="153.9"/></g></g><g id="xtick_6"><use xlink:href="#m441439f342" x="283.764" y="304.759" style="fill:#969696;stroke:#969696;stroke-width:.4" id="line2d_6"/><g style="fill:#969696" transform="matrix(.14 0 0 -.14 269.4 321.699)" id="text_6"><defs><path id="MyriadPro-Regular-37" d="M365 4160v-467h2035v-13L595 0h583l1811 3789v371H365z" transform="scale(.01563)"/></defs><use xlink:href="#MyriadPro-Regular-32"/><use xlink:href="#MyriadPro-Regular-30" x="51.3"/><use xlink:href="#MyriadPro-Regular-31" x="102.6"/><use xlink:href="#MyriadPro-Regular-37" x="153.9"/></g></g><g id="xtick_7"><use xlink:href="#m441439f342" x="317.762" y="304.759" style="fill:#969696;stroke:#969696;stroke-width:.4" id="line2d_7"/><g style="fill:#969696" transform="matrix(.14 0 0 -.14 303.399 321.699)" id="text_7"><defs><path id="MyriadPro-Regular-38" d="M1062 2170c-512-218-825-589-825-1114C237 448 762-70 1632-70c794 0 1414 486 1414 1209 0 506-320 871-838 1075v20c512 243 685 620 685 972 0 519-403 1024-1210 1024-729 0-1286-448-1286-1107 0-358 198-717 659-934l6-19zm583-1831c-531 0-851 371-832 794 0 397 262 717 749 857 563-160 915-403 915-908 0-423-327-743-832-743zm6 3488c506 0 704-345 704-678 0-378-275-634-633-755-480 128-794 352-794 768 0 358 256 665 723 665z" transform="scale(.01563)"/></defs><use xlink:href="#MyriadPro-Regular-32"/><use xlink:href="#MyriadPro-Regular-30" x="51.3"/><use xlink:href="#MyriadPro-Regular-31" x="102.6"/><use xlink:href="#MyriadPro-Regular-38" x="153.9"/></g></g><g id="xtick_8"><use xlink:href="#m441439f342" x="351.76" y="304.759" style="fill:#969696;stroke:#969696;stroke-width:.4" id="line2d_8"/><g style="fill:#969696" transform="matrix(.14 0 0 -.14 337.397 321.699)" id="text_8"><defs><path id="MyriadPro-Regular-39" d="M614-64c135-6 314 0 519 32 448 51 889 243 1209 557 410 397 717 1037 717 1952 0 1062-525 1753-1376 1753S262 3539 262 2752c0-710 480-1274 1229-1274 416 0 749 167 979 448h20c-77-492-276-857-551-1107-237-224-544-358-870-403-192-19-333-32-455-19V-64zm1024 3866c589 0 852-544 852-1255 0-89-20-153-52-205-147-249-441-435-819-435-486 0-800 365-800 883 0 589 339 1012 813 1012h6z" transform="scale(.01563)"/></defs><use xlink:href="#MyriadPro-Regular-32"/><use xlink:href="#MyriadPro-Regular-30" x="51.3"/><use xlink:href="#MyriadPro-Regular-31" x="102.6"/><use xlink:href="#MyriadPro-Regular-39" x="153.9"/></g></g><g id="xtick_9"><use xlink:href="#m441439f342" x="385.758" y="304.759" style="fill:#969696;stroke:#969696;stroke-width:.4" id="line2d_9"/><g style="fill:#969696" transform="matrix(.14 0 0 -.14 371.395 321.699)" id="text_9"><use xlink:href="#MyriadPro-Regular-32"/><use xlink:href="#MyriadPro-Regular-30" x="51.3"/><use xlink:href="#MyriadPro-Regular-32" x="102.6"/><use xlink:href="#MyriadPro-Regular-30" x="153.9"/></g></g><g id="xtick_10"><use xlink:href="#m441439f342" x="419.849" y="304.759" style="fill:#969696;stroke:#969696;stroke-width:.4" id="line2d_10"/><g style="fill:#969696" transform="matrix(.14 0 0 -.14 405.486 321.699)" id="text_10"><use xlink:href="#MyriadPro-Regular-32"/><use xlink:href="#MyriadPro-Regular-30" x="51.3"/><use xlink:href="#MyriadPro-Regular-32" x="102.6"/><use xlink:href="#MyriadPro-Regular-31" x="153.9"/></g></g></g><g id="matplotlib.axis_2"><g id="ytick_1"><path d="M82.476 304.759h357.12" clip-path="url(#pa2713b4076)" style="fill:none;stroke:#969696;stroke-width:.3;stroke-linecap:square" id="line2d_11"/><g id="line2d_12"><defs><path id="m5a712e2e0e" d="M0 0h-3.5" style="stroke:#969696;stroke-width:.3"/></defs><use xlink:href="#m5a712e2e0e" x="82.476" y="304.759" style="fill:#969696;stroke:#969696;stroke-width:.3"/></g><use xlink:href="#MyriadPro-Regular-30" style="fill:#969696" transform="matrix(.14 0 0 -.14 68.295 309.729)" id="text_11"/></g><g id="ytick_2"><path d="M82.476 253.111h357.12" clip-path="url(#pa2713b4076)" style="fill:none;stroke:#969696;stroke-width:.3;stroke-linecap:square" id="line2d_13"/><use xlink:href="#m5a712e2e0e" x="82.476" y="253.111" style="fill:#969696;stroke:#969696;stroke-width:.3" id="line2d_14"/><g style="fill:#969696" transform="matrix(.14 0 0 -.14 39.568 258.081)" id="text_12"><use xlink:href="#MyriadPro-Regular-31"/><use xlink:href="#MyriadPro-Regular-30" x="51.3"/><use xlink:href="#MyriadPro-Regular-30" x="102.6"/><use xlink:href="#MyriadPro-Regular-30" x="153.9"/><use xlink:href="#MyriadPro-Regular-30" x="205.2"/></g></g><g id="ytick_3"><path d="M82.476 201.464h357.12" clip-path="url(#pa2713b4076)" style="fill:none;stroke:#969696;stroke-width:.3;stroke-linecap:square" id="line2d_15"/><use xlink:href="#m5a712e2e0e" x="82.476" y="201.464" style="fill:#969696;stroke:#969696;stroke-width:.3" id="line2d_16"/><g style="fill:#969696" transform="matrix(.14 0 0 -.14 39.568 206.434)" id="text_13"><use xlink:href="#MyriadPro-Regular-32"/><use xlink:href="#MyriadPro-Regular-30" x="51.3"/><use xlink:href="#MyriadPro-Regular-30" x="102.6"/><use xlink:href="#MyriadPro-Regular-30" x="153.9"/><use xlink:href="#MyriadPro-Regular-30" x="205.2"/></g></g><g id="ytick_4"><path d="M82.476 149.817h357.12" clip-path="url(#pa2713b4076)" style="fill:none;stroke:#969696;stroke-width:.3;stroke-linecap:square" id="line2d_17"/><use xlink:href="#m5a712e2e0e" x="82.476" y="149.817" style="fill:#969696;stroke:#969696;stroke-width:.3" id="line2d_18"/><g style="fill:#969696" transform="matrix(.14 0 0 -.14 39.568 154.787)" id="text_14"><use xlink:href="#MyriadPro-Regular-33"/><use xlink:href="#MyriadPro-Regular-30" x="51.3"/><use xlink:href="#MyriadPro-Regular-30" x="102.6"/><use xlink:href="#MyriadPro-Regular-30" x="153.9"/><use xlink:href="#MyriadPro-Regular-30" x="205.2"/></g></g><g id="ytick_5"><path d="M82.476 98.17h357.12" clip-path="url(#pa2713b4076)" style="fill:none;stroke:#969696;stroke-width:.3;stroke-linecap:square" id="line2d_19"/><use xlink:href="#m5a712e2e0e" x="82.476" y="98.17" style="fill:#969696;stroke:#969696;stroke-width:.3" id="line2d_20"/><g style="fill:#969696" transform="matrix(.14 0 0 -.14 39.568 103.14)" id="text_15"><use xlink:href="#MyriadPro-Regular-34"/><use xlink:href="#MyriadPro-Regular-30" x="51.3"/><use xlink:href="#MyriadPro-Regular-30" x="102.6"/><use xlink:href="#MyriadPro-Regular-30" x="153.9"/><use xlink:href="#MyriadPro-Regular-30" x="205.2"/></g></g><g id="ytick_6"><path d="M82.476 46.523h357.12" clip-path="url(#pa2713b4076)" style="fill:none;stroke:#969696;stroke-width:.3;stroke-linecap:square" id="line2d_21"/><use xlink:href="#m5a712e2e0e" x="82.476" y="46.523" style="fill:#969696;stroke:#969696;stroke-width:.3" id="line2d_22"/><g style="fill:#969696" transform="matrix(.14 0 0 -.14 39.568 51.493)" id="text_16"><use xlink:href="#MyriadPro-Regular-35"/><use xlink:href="#MyriadPro-Regular-30" x="51.3"/><use xlink:href="#MyriadPro-Regular-30" x="102.6"/><use xlink:href="#MyriadPro-Regular-30" x="153.9"/><use xlink:href="#MyriadPro-Regular-30" x="205.2"/></g></g><g style="fill:#969696" transform="matrix(.14 0 0 -.14 7.2 17.14)" id="text_17"><defs><path id="MyriadPro-Regular-47" d="M3770 2266H2349v-448h877V531c-128-64-378-115-743-115-1005 0-1664 646-1664 1741 0 1081 685 1734 1735 1734 435 0 723-83 953-185l135 454c-186 90-576 198-1076 198-1446 0-2329-940-2336-2227 0-672 231-1248 602-1606 422-403 960-570 1613-570 582 0 1075 147 1325 237v2074z" transform="scale(.01563)"/><path id="MyriadPro-Regular-69" d="M1030 0v3098H467V0h563zM749 4320c-205 0-352-154-352-352 0-192 141-346 339-346 224 0 365 154 358 346 0 198-134 352-345 352z" transform="scale(.01563)"/><path id="MyriadPro-Regular-74" d="M595 3667v-569H115v-429h480V979c0-365 58-640 218-806C947 19 1158-70 1421-70c217 0 390 38 499 83l-26 422c-83-25-172-38-326-38-314 0-422 217-422 601v1671h806v429h-806v742l-551-173z" transform="scale(.01563)"/><path id="MyriadPro-Regular-48" d="M486 4314V0h557v2022h2087V0h563v4314h-563V2509H1043v1805H486z" transform="scale(.01563)"/><path id="MyriadPro-Regular-75" d="M3059 3098h-563V1197c0-103-19-205-51-288-103-250-365-512-743-512-512 0-691 397-691 985v1716H448V1286C448 198 1030-70 1517-70c550 0 877 326 1024 576h13l32-506h499c-19 243-26 525-26 845v2253z" transform="scale(.01563)"/><path id="MyriadPro-Regular-62" d="M467 800c0-275-13-589-25-800h486l26 512h19c230-410 589-582 1037-582 691 0 1388 550 1388 1657 7 941-537 1581-1305 1581-499 0-858-224-1056-570h-13v1946H467V800zm557 998c0 90 19 167 32 231 115 429 474 691 858 691 601 0 921-531 921-1152 0-710-352-1190-941-1190-409 0-736 268-844 659-13 64-26 134-26 205v556z" transform="scale(.01563)"/><path id="MyriadPro-Regular-73" d="M250 147C467 19 781-70 1120-70c736 0 1158 390 1158 934 0 461-275 730-812 934-404 154-589 269-589 525 0 231 185 423 518 423 288 0 512-103 634-180l141 410c-173 102-448 192-762 192-666 0-1069-410-1069-909 0-371 263-678 819-877 416-153 576-300 576-569 0-256-192-461-601-461-282 0-576 115-743 224L250 147z" transform="scale(.01563)"/><path id="MyriadPro-Regular-61" d="M2643 1901c0 621-230 1267-1177 1267-391 0-762-109-1018-275l128-371c218 140 518 230 806 230 634 0 704-461 704-717v-64C890 1978 224 1568 224 819c0-448 320-889 947-889 442 0 775 217 947 460h20l44-390h512c-38 211-51 474-51 742v1159zm-544-858c0-57-13-121-32-179-89-262-345-518-749-518-288 0-531 172-531 537 0 602 698 711 1312 698v-538z" transform="scale(.01563)"/><path id="MyriadPro-Regular-72" d="M467 0h557v1651c0 96 13 186 26 263 76 422 358 723 755 723 77 0 134-7 192-19v531c-51 13-96 19-160 19-378 0-717-262-858-678h-25l-20 608H442c19-288 25-602 25-967V0z" transform="scale(.01563)"/></defs><use xlink:href="#MyriadPro-Regular-47"/><use xlink:href="#MyriadPro-Regular-69" x="64.6"/><use xlink:href="#MyriadPro-Regular-74" x="88"/><use xlink:href="#MyriadPro-Regular-48" x="121.1"/><use xlink:href="#MyriadPro-Regular-75" x="186.3"/><use xlink:href="#MyriadPro-Regular-62" x="241.4"/><use xlink:href="#MyriadPro-Regular-20" x="298.3"/><use xlink:href="#MyriadPro-Regular-73" x="319.5"/><use xlink:href="#MyriadPro-Regular-74" x="359.1"/><use xlink:href="#MyriadPro-Regular-61" x="392.2"/><use xlink:href="#MyriadPro-Regular-72" x="440.4"/><use xlink:href="#MyriadPro-Regular-73" x="473.1"/></g></g><path d="m102.223 304.759 2.794-1.137 2.888-.01 2.794-.026 2.888-.015 2.887-.021 2.702-.02 2.887-.042 2.794-.02 2.888-.01h2.794l2.888-.027 2.887-.005 2.795-.01h5.682l2.887-.005h2.888l2.608-.047 2.887-.077 2.795-.083 2.887-.088 2.794-.108 2.888-.098 2.887-.083 2.795-.078 2.887-.061 2.795-.062 2.887-.109 2.888-.072 2.608-.036 2.887-.088 2.795-.103 2.887-.088 2.795-.093 2.887-.351 2.888-.104 2.794-.057 2.887-.067 2.795-.041 2.887-.176 2.888-.103 2.608-.093 2.887-.098 2.795-.062 2.887-.103 2.795-.073 2.887-.077 2.888-.067 2.794-.083 2.888-.072 2.794-.083 2.887-.088 2.888-.093 2.701-.082 2.888-.155 2.794-.114 2.888-.082 2.794-.078 2.887-.072 2.888-.155 2.794-.072 2.888-.135 2.794-.072 2.888-.134 2.887-.073 2.608-.087 2.888-.083 2.794-.103 2.888-.078 2.794-.098 2.888-.145 2.887-.15 2.794-.128 2.888-.14 2.794-.124 2.888-.129 2.887-.176 2.608-.113 2.888-.16 2.794-.109 2.888-.14 2.794-.164 2.888-.228 2.887-.196 2.795-.145 2.887-.165 2.794-.175 2.888-.16 2.888-.171 2.608-.134 2.887-.186 2.794-.227 2.888-.31 2.794-.181 2.888-.14 2.887-.16 2.795-.118 2.887-.13 2.795-.087 2.887-.135 2.888-.16 2.7-.103 2.888-.155 2.795-.201 2.887-.176 2.795-.108 2.887-.181 2.888-.13 2.794-.139 2.888-.124 2.794-.144 2.887-.145 2.888-.294 2.608-.135 2.887-.129 2.795-.201 2.887-.227 2.795-.243 2.887-.119" clip-path="url(#pa2713b4076)" style="fill:none;stroke:#8c564b;stroke-width:1.5;stroke-linecap:square" id="line2d_23"/><path d="m124.857 304.759 2.888-1.018 2.794-.015 2.888-.016H150.566l2.608-.052 2.887-.15 2.795-.061 2.887-.093 2.794-.067 2.888-.109 2.887-.113 2.795-.12 2.887-.103 2.795-.113 2.887-.119 2.888-.13 2.608-.102 2.887-.264 2.795-.072 2.887-.238 2.795-.14 2.887-.123 2.888-.258 2.794-.14 2.887-.17 2.795-.098 2.887-.186 2.888-.119 2.608-.114 2.887-.129 2.795-.186 2.887-.108 2.795-.145 2.887-.196 2.888-.201 2.794-.124 2.888-.191 2.794-.15 2.887-.186 2.888-.155 2.701-.202 2.888-.242 2.794-.16 2.888-.253 2.794-.238 2.887-.243 2.888-.243 2.794-.258 2.888-.243 2.794-.232 2.888-.186 2.887-.191 2.608-.212 2.888-.35 2.794-.275 2.888-.232 2.794-.3 2.888-.232 2.887-.346 2.794-.243 2.888-.16 2.794-.274 2.888-.237 2.887-.29 2.608-.19 2.888-.285 2.794-.273 2.888-.197 2.794-.175 2.888-.17 2.887-.192 2.795-.175 2.887-.238 2.794-.212 2.888-.165 2.888-.165 2.608-.16 2.887-.176 2.794-.263 2.888-.17 2.794-.145 2.888-.253 2.887-.238 2.795-.207 2.887-.201 2.795-.098 2.887-.212 2.888-.144 2.7-.114 2.888-.15 2.795-.248 2.887-.165 2.795-.165 2.887-.14 2.888-.17 2.794-.269 2.888-.16 2.794-.145 2.887-.154 2.888-.181 2.608-.14 2.887-.18 2.795-.166 2.887-.113 2.795-.217 2.887-.191" clip-path="url(#pa2713b4076)" style="fill:none;stroke:#9467bd;stroke-width:1.5;stroke-linecap:square" id="line2d_24"/><path d="m360.143 304.759 2.794-.16 2.888-.316 2.794-.552 2.888-1.493 2.887-4.039 2.795-1.74 2.887-1.896 2.795-1.084 2.887-1.865 2.888-5.701 2.7-1.188 2.888-1.22 2.795-1.228 2.887-1.312 2.795-1.663 2.887-1.193 2.888-1.214 2.794-.976 2.888-1.209 2.794-.826 2.887-.826 2.888-.878 2.608-.775 2.887-.816 2.795-.739 2.887-.759 2.795-1.017 2.887-.785" clip-path="url(#pa2713b4076)" style="fill:none;stroke:#d62728;stroke-width:1.5;stroke-linecap:square" id="line2d_25"/><g style="fill:#1f77b4" transform="matrix(.14 0 0 -.14 450.31 42.23)" id="text_18"><defs><path id="MyriadPro-Regular-68" d="M467 0h563v1869c0 109 7 192 39 269 102 307 390 563 755 563 531 0 717-423 717-922V0h563v1843c0 1069-666 1325-1082 1325-211 0-409-64-576-160-172-96-313-237-403-397h-13v1933H467V0z" transform="scale(.01563)"/><path id="MyriadPro-Regular-70" d="M467-1267h557V416h13c185-307 544-486 953-486 730 0 1408 550 1408 1664 0 940-563 1574-1312 1574-505 0-870-224-1100-602h-13l-26 532H442c12-295 25-615 25-1012v-3353zm557 3059c0 77 19 160 38 230 109 423 468 698 852 698 595 0 921-531 921-1152 0-710-345-1197-941-1197-403 0-742 269-844 659-13 71-26 148-26 231v531z" transform="scale(.01563)"/><path id="MyriadPro-Regular-65" d="M2957 1446c6 58 19 148 19 263 0 569-269 1459-1280 1459-902 0-1453-736-1453-1670C243 563 813-70 1766-70c493 0 832 108 1031 198l-96 403c-211-89-455-160-858-160-563 0-1049 314-1062 1075h2176zM787 1850c45 390 295 915 864 915 634 0 787-557 781-915H787z" transform="scale(.01563)"/><path id="MyriadPro-Regular-2f" d="m422-256 1792 4640h-435L-6-256h428z" transform="scale(.01563)"/></defs><use xlink:href="#MyriadPro-Regular-68"/><use xlink:href="#MyriadPro-Regular-74" x="55.5"/><use xlink:href="#MyriadPro-Regular-74" x="88.6"/><use xlink:href="#MyriadPro-Regular-70" x="121.7"/><use xlink:href="#MyriadPro-Regular-69" x="178.6"/><use xlink:href="#MyriadPro-Regular-65" x="202"/><use xlink:href="#MyriadPro-Regular-2f" x="252.1"/><use xlink:href="#MyriadPro-Regular-68" x="286.4"/><use xlink:href="#MyriadPro-Regular-74" x="341.9"/><use xlink:href="#MyriadPro-Regular-74" x="375"/><use xlink:href="#MyriadPro-Regular-70" x="408.1"/><use xlink:href="#MyriadPro-Regular-69" x="465"/><use xlink:href="#MyriadPro-Regular-65" x="488.4"/></g><g style="fill:#ff7f0e" transform="matrix(.14 0 0 -.14 450.31 72.154)" id="text_19"><defs><path id="MyriadPro-Regular-66" d="M1082 0v2669h748v429h-748v166c0 474 121 896 601 896 160 0 275-32 359-70l76 435c-108 45-281 89-480 89-262 0-544-83-755-288-262-249-358-646-358-1081v-147H90v-429h435V0h557z" transform="scale(.01563)"/><path id="MyriadPro-Regular-71" d="M2579-1267h563v3513c0 320 7 589 20 852h-532l-19-468h-13c-153 301-473 538-953 538-653 0-1402-512-1402-1670C243 557 832-70 1555-70c499 0 845 243 1011 550h13v-1747zm0 2528c0-83-19-192-45-269-128-390-441-614-806-614-621 0-915 537-915 1152 0 697 352 1190 934 1190 423 0 723-294 807-640 19-70 25-160 25-237v-582z" transform="scale(.01563)"/></defs><use xlink:href="#MyriadPro-Regular-70"/><use xlink:href="#MyriadPro-Regular-73" x="56.9"/><use xlink:href="#MyriadPro-Regular-66" x="96.5"/><use xlink:href="#MyriadPro-Regular-2f" x="125.7"/><use xlink:href="#MyriadPro-Regular-72" x="160"/><use xlink:href="#MyriadPro-Regular-65" x="192.7"/><use xlink:href="#MyriadPro-Regular-71" x="242.8"/><use xlink:href="#MyriadPro-Regular-75" x="299.1"/><use xlink:href="#MyriadPro-Regular-65" x="354.2"/><use xlink:href="#MyriadPro-Regular-73" x="404.3"/><use xlink:href="#MyriadPro-Regular-74" x="443.9"/><use xlink:href="#MyriadPro-Regular-73" x="477"/></g><g style="fill:#2ca02c" transform="matrix(.14 0 0 -.14 450.31 249.16)" id="text_20"><defs><path id="MyriadPro-Regular-6f" d="M1779 3168c-857 0-1536-608-1536-1645C243 544 890-70 1728-70c749 0 1542 499 1542 1644 0 948-601 1594-1491 1594zm-13-422c666 0 928-666 928-1191 0-697-403-1203-940-1203-551 0-941 512-941 1190 0 589 288 1204 953 1204z" transform="scale(.01563)"/><path id="MyriadPro-Regular-2d" d="M192 1939v-416h1581v416H192z" transform="scale(.01563)"/><path id="MyriadPro-Regular-6c" d="M467 0h563v4544H467V0z" transform="scale(.01563)"/></defs><use xlink:href="#MyriadPro-Regular-61"/><use xlink:href="#MyriadPro-Regular-69" x="48.2"/><use xlink:href="#MyriadPro-Regular-6f" x="71.6"/><use xlink:href="#MyriadPro-Regular-2d" x="126.5"/><use xlink:href="#MyriadPro-Regular-6c" x="157.2"/><use xlink:href="#MyriadPro-Regular-69" x="180.8"/><use xlink:href="#MyriadPro-Regular-62" x="204.2"/><use xlink:href="#MyriadPro-Regular-73" x="261.1"/><use xlink:href="#MyriadPro-Regular-2f" x="300.7"/><use xlink:href="#MyriadPro-Regular-61" x="335"/><use xlink:href="#MyriadPro-Regular-69" x="383.2"/><use xlink:href="#MyriadPro-Regular-6f" x="406.6"/><use xlink:href="#MyriadPro-Regular-68" x="461.5"/><use xlink:href="#MyriadPro-Regular-74" x="517"/><use xlink:href="#MyriadPro-Regular-74" x="550.1"/><use xlink:href="#MyriadPro-Regular-70" x="583.2"/></g><g style="fill:#d62728" transform="matrix(.14 0 0 -.14 450.31 270.582)" id="text_21"><defs><path id="MyriadPro-Regular-6e" d="M467 0h563v1862c0 96 13 192 39 263 96 313 384 576 755 576 531 0 717-416 717-915V0h563v1850c0 1062-666 1318-1094 1318-512 0-871-288-1024-582h-13l-32 512H442c19-256 25-519 25-839V0z" transform="scale(.01563)"/><path id="MyriadPro-Regular-63" d="M2579 538c-160-71-371-154-691-154-614 0-1075 442-1075 1158 0 647 384 1172 1094 1172 307 0 519-71 653-148l128 436c-154 76-448 160-781 160-1011 0-1664-692-1664-1645C243 570 851-70 1786-70c416 0 742 108 889 185l-96 423z" transform="scale(.01563)"/><path id="MyriadPro-Regular-64" d="M2579 4544V2694h-13c-140 250-460 474-934 474-755 0-1395-634-1389-1664C243 563 819-70 1568-70c506 0 883 262 1056 608h13l25-538h506c-19 211-26 525-26 800v3744h-563zm0-3245c0-89-6-166-25-243-103-422-448-672-826-672-608 0-915 518-915 1146 0 684 345 1196 928 1196 422 0 729-294 813-652 19-71 25-167 25-237v-538z" transform="scale(.01563)"/><path id="MyriadPro-Regular-78" d="m102 3098 1050-1517L51 0h621l448 698c115 185 224 345 326 537h13c109-185 211-358 333-537L2246 0h640L1798 1600l1056 1498h-608l-435-660c-102-166-205-326-307-512h-19c-103 173-199 333-314 506l-441 666H102z" transform="scale(.01563)"/></defs><use xlink:href="#MyriadPro-Regular-65"/><use xlink:href="#MyriadPro-Regular-6e" x="50.1"/><use xlink:href="#MyriadPro-Regular-63" x="105.6"/><use xlink:href="#MyriadPro-Regular-6f" x="150.4"/><use xlink:href="#MyriadPro-Regular-64" x="205.3"/><use xlink:href="#MyriadPro-Regular-65" x="261.7"/><use xlink:href="#MyriadPro-Regular-2f" x="311.8"/><use xlink:href="#MyriadPro-Regular-68" x="346.1"/><use xlink:href="#MyriadPro-Regular-74" x="401.6"/><use xlink:href="#MyriadPro-Regular-74" x="434.7"/><use xlink:href="#MyriadPro-Regular-70" x="467.8"/><use xlink:href="#MyriadPro-Regular-78" x="524.7"/></g><g style="fill:#9467bd" transform="matrix(.14 0 0 -.14 450.31 284.42)" id="text_22"><defs><path id="MyriadPro-Regular-79" d="M58 3098 1203 243c26-70 39-115 39-147s-20-77-45-134c-128-288-320-506-474-628-166-140-352-230-493-275l141-473c141 25 416 121 691 364 384 333 660 877 1063 1940l845 2208h-596l-614-1818c-77-224-141-461-198-646h-13c-51 185-128 428-199 633L672 3098H58z" transform="scale(.01563)"/><path id="MyriadPro-Regular-67" d="M3110 2246c0 378 13 628 26 852h-493l-25-468h-13c-135 256-429 538-967 538-710 0-1395-595-1395-1645C243 666 794 13 1562 13c480 0 812 230 985 518h13V186c0-781-422-1082-998-1082-384 0-704 115-909 243l-141-429c250-166 659-256 1030-256 391 0 826 90 1127 372 301 268 441 704 441 1414v1798zm-556-928c0-96-13-204-45-300-122-359-435-576-781-576-608 0-915 505-915 1113 0 717 384 1171 921 1171 410 0 685-268 788-595 25-77 32-160 32-256v-557z" transform="scale(.01563)"/></defs><use xlink:href="#MyriadPro-Regular-73"/><use xlink:href="#MyriadPro-Regular-70" x="39.6"/><use xlink:href="#MyriadPro-Regular-79" x="96.5"/><use xlink:href="#MyriadPro-Regular-6f" x="143.6"/><use xlink:href="#MyriadPro-Regular-75" x="198.5"/><use xlink:href="#MyriadPro-Regular-6e" x="253.6"/><use xlink:href="#MyriadPro-Regular-67" x="309.1"/><use xlink:href="#MyriadPro-Regular-74" x="365"/><use xlink:href="#MyriadPro-Regular-65" x="398.1"/><use xlink:href="#MyriadPro-Regular-63" x="448.2"/><use xlink:href="#MyriadPro-Regular-68" x="493"/><use xlink:href="#MyriadPro-Regular-2f" x="548.5"/><use xlink:href="#MyriadPro-Regular-67" x="582.8"/><use xlink:href="#MyriadPro-Regular-72" x="638.7"/><use xlink:href="#MyriadPro-Regular-65" x="671.4"/><use xlink:href="#MyriadPro-Regular-71" x="721.5"/><use xlink:href="#MyriadPro-Regular-75" x="777.8"/><use xlink:href="#MyriadPro-Regular-65" x="832.9"/><use xlink:href="#MyriadPro-Regular-73" x="883"/><use xlink:href="#MyriadPro-Regular-74" x="922.6"/><use xlink:href="#MyriadPro-Regular-73" x="955.7"/></g><g style="fill:#8c564b" transform="matrix(.14 0 0 -.14 450.31 298.582)" id="text_23"><use xlink:href="#MyriadPro-Regular-75"/><use xlink:href="#MyriadPro-Regular-72" x="55.1"/><use xlink:href="#MyriadPro-Regular-6c" x="87.8"/><use xlink:href="#MyriadPro-Regular-6c" x="111.4"/><use xlink:href="#MyriadPro-Regular-69" x="135"/><use xlink:href="#MyriadPro-Regular-62" x="158.4"/><use xlink:href="#MyriadPro-Regular-33" x="215.3"/><use xlink:href="#MyriadPro-Regular-2f" x="266.6"/><use xlink:href="#MyriadPro-Regular-75" x="300.9"/><use xlink:href="#MyriadPro-Regular-72" x="356"/><use xlink:href="#MyriadPro-Regular-6c" x="388.7"/><use xlink:href="#MyriadPro-Regular-6c" x="412.3"/><use xlink:href="#MyriadPro-Regular-69" x="435.9"/><use xlink:href="#MyriadPro-Regular-62" x="459.3"/><use xlink:href="#MyriadPro-Regular-33" x="516.2"/></g><g style="fill:#969696" transform="matrix(.09716 0 0 -.09716 82.476 338.657)" id="text_24"><defs><path id="MyriadPro-Regular-41" d="M2714 1357 3174 0h596L2298 4314h-672L160 0h576l448 1357h1530zm-1415 435 423 1248c83 262 153 525 217 781h13c64-250 128-506 224-787l422-1242H1299z" transform="scale(.01563)"/><path id="MyriadPro-Regular-50" d="M486 0h557v1728c128-32 282-38 448-38 544 0 1024 160 1319 473 217 224 332 531 332 922 0 384-140 697-377 902-256 231-659 359-1210 359-448 0-800-39-1069-84V0zm557 3859c96 26 282 45 525 45 614 0 1018-275 1018-845 0-595-410-921-1082-921-186 0-339 12-461 44v1677z" transform="scale(.01563)"/><path id="MyriadPro-Regular-49" d="M486 4314V0h557v4314H486z" transform="scale(.01563)"/><path id="MyriadPro-Regular-76" d="M83 3098 1261 0h537l1216 3098h-588l-602-1741c-102-282-192-538-262-794h-20c-64 256-147 512-249 794L685 3098H83z" transform="scale(.01563)"/><path id="MyriadPro-Regular-7c" d="M550 4800v-6400h429v6400H550z" transform="scale(.01563)"/><path id="MyriadPro-Regular-4e" d="M1011 0v1843c0 717-13 1235-45 1779l20 7c217-467 505-960 806-1440L3162 0h563v4314h-525V2509c0-672 13-1197 64-1773l-13-6c-205 441-454 896-774 1401L1094 4314H486V0h525z" transform="scale(.01563)"/><path id="MyriadPro-Regular-53" d="M269 211C499 58 954-70 1370-70c1017 0 1510 582 1510 1248 0 633-371 985-1101 1267-595 230-857 429-857 832 0 294 224 646 812 646 391 0 679-128 820-205l153 455c-192 109-512 211-953 211-839 0-1396-499-1396-1171 0-608 436-973 1140-1223 582-224 812-454 812-857 0-435-332-736-902-736-384 0-749 128-998 281L269 211z" transform="scale(.01563)"/><path id="MyriadPro-Regular-f6" d="M1165 3648c185 0 313 154 313 326 0 186-134 327-313 327s-327-147-327-327c0-172 135-326 320-326h7zm1184 0c185 0 313 154 313 326 0 186-134 327-313 327s-320-147-320-327c0-172 128-326 313-326h7zm-570-480c-857 0-1536-608-1536-1645C243 544 890-70 1728-70c749 0 1542 499 1542 1644 0 948-601 1594-1491 1594zm-13-422c666 0 928-666 928-1191 0-697-403-1203-940-1203-551 0-941 512-941 1190 0 589 288 1204 953 1204z" transform="scale(.01563)"/><path id="MyriadPro-Regular-6d" d="M467 0h551v1869c0 96 12 192 44 275 90 282 346 563 698 563 429 0 646-358 646-851V0h551v1914c0 102 19 204 45 281 96 275 345 512 665 512 455 0 672-358 672-953V0h551v1824c0 1075-608 1344-1018 1344-294 0-499-77-685-218-128-96-249-230-345-403h-13c-135 365-455 621-877 621-512 0-800-275-973-570h-19l-26 500H442c19-256 25-519 25-839V0z" transform="scale(.01563)"/><path id="MyriadPro-Regular-43" d="M3386 582c-224-108-570-179-909-179-1050 0-1658 679-1658 1735 0 1132 672 1779 1683 1779 359 0 660-77 871-179l134 454c-147 77-486 192-1024 192-1337 0-2253-915-2253-2266C230 704 1146-70 2362-70c524 0 934 108 1139 211l-115 441z" transform="scale(.01563)"/><path id="MyriadPro-Regular-42" d="M486 13c186-26 480-51 864-51 704 0 1191 128 1492 403 217 211 364 493 364 864 0 640-480 979-889 1081v13c454 167 729 531 729 947 0 340-134 596-358 762-269 218-627 314-1184 314-390 0-774-39-1018-90V13zm557 3865c90 20 237 39 493 39 563 0 947-199 947-704 0-416-345-723-934-723h-506v1388zm0-1811h461c608 0 1114-243 1114-832 0-627-532-838-1108-838-198 0-358 6-467 25v1645z" transform="scale(.01563)"/><path id="MyriadPro-Regular-59" d="M2010 0v1837l1446 2477h-634l-620-1191c-167-326-314-608-436-889h-12c-135 300-263 563-429 889L717 4314H83l1363-2484V0h564z" transform="scale(.01563)"/></defs><use xlink:href="#MyriadPro-Regular-47"/><use xlink:href="#MyriadPro-Regular-69" x="64.6"/><use xlink:href="#MyriadPro-Regular-74" x="88"/><use xlink:href="#MyriadPro-Regular-48" x="121.1"/><use xlink:href="#MyriadPro-Regular-75" x="186.3"/><use xlink:href="#MyriadPro-Regular-62" x="241.4"/><use xlink:href="#MyriadPro-Regular-20" x="298.3"/><use xlink:href="#MyriadPro-Regular-41" x="319.5"/><use xlink:href="#MyriadPro-Regular-50" x="380.7"/><use xlink:href="#MyriadPro-Regular-49" x="433.9"/><use xlink:href="#MyriadPro-Regular-20" x="457.8"/><use xlink:href="#MyriadPro-Regular-76" x="479"/><use xlink:href="#MyriadPro-Regular-69" x="527.1"/><use xlink:href="#MyriadPro-Regular-61" x="550.5"/><use xlink:href="#MyriadPro-Regular-20" x="598.7"/><use xlink:href="#MyriadPro-Regular-73" x="619.9"/><use xlink:href="#MyriadPro-Regular-74" x="659.5"/><use xlink:href="#MyriadPro-Regular-61" x="692.6"/><use xlink:href="#MyriadPro-Regular-72" x="740.8"/><use xlink:href="#MyriadPro-Regular-67" x="773.5"/><use xlink:href="#MyriadPro-Regular-72" x="829.4"/><use xlink:href="#MyriadPro-Regular-61" x="862.1"/><use xlink:href="#MyriadPro-Regular-70" x="910.3"/><use xlink:href="#MyriadPro-Regular-68" x="967.2"/><use xlink:href="#MyriadPro-Regular-20" x="1022.7"/><use xlink:href="#MyriadPro-Regular-7c" x="1043.9"/><use xlink:href="#MyriadPro-Regular-20" x="1067.8"/><use xlink:href="#MyriadPro-Regular-4e" x="1089"/><use xlink:href="#MyriadPro-Regular-69" x="1154.8"/><use xlink:href="#MyriadPro-Regular-63" x="1178.2"/><use xlink:href="#MyriadPro-Regular-6f" x="1223"/><use xlink:href="#MyriadPro-Regular-20" x="1277.9"/><use xlink:href="#MyriadPro-Regular-53" x="1299.1"/><use xlink:href="#MyriadPro-Regular-63" x="1348.4"/><use xlink:href="#MyriadPro-Regular-68" x="1393.2"/><use xlink:href="#MyriadPro-Regular-6c" x="1448.7"/><use xlink:href="#MyriadPro-Regular-f6" x="1472.3"/><use xlink:href="#MyriadPro-Regular-6d" x="1527.2"/><use xlink:href="#MyriadPro-Regular-65" x="1610.6"/><use xlink:href="#MyriadPro-Regular-72" x="1660.7"/><use xlink:href="#MyriadPro-Regular-20" x="1693.4"/><use xlink:href="#MyriadPro-Regular-7c" x="1714.6"/><use xlink:href="#MyriadPro-Regular-20" x="1738.5"/><use xlink:href="#MyriadPro-Regular-43" x="1759.7"/><use xlink:href="#MyriadPro-Regular-43" x="1817.7"/><use xlink:href="#MyriadPro-Regular-20" x="1875.7"/><use xlink:href="#MyriadPro-Regular-42" x="1896.9"/><use xlink:href="#MyriadPro-Regular-59" x="1951.1"/></g><path d="m173.107 304.759 2.887-.031 2.795-.031 2.887-.021 2.888-.026 2.608-.03 2.887-.378 2.795-.196 2.887-.098 2.795-.12 2.887-.185 2.888-.052 2.794-.113 2.887-.124 2.795-.14 2.887-.201 2.888-.403 2.608-.537 2.887-.33 2.795-.367 2.887-.228 2.795-.439 2.887-.284 2.888-.35 2.794-.342 2.888-.423 2.794-.377 2.887-.64 2.888-.455 2.701-.455 2.888-.408 2.794-.599 2.888-.49 2.794-.362 2.887-.392 2.888-.476 2.794-.883 2.888-.563 2.794-.46 2.888-.583 2.887-.501 2.608-.511 2.888-.8 2.794-.672 2.888-.64 2.794-.59 2.888-.666 2.887-.635 2.794-.697 2.888-.765 2.794-.955 2.888-.966 2.887-1.064 2.608-1.017 2.888-1.018 2.794-.94 2.888-1.012 2.794-.976 2.888-.873 2.887-1.043 2.795-1.147 2.887-.97 2.794-.951 2.888-.986 2.888-1.075 2.608-1.002 2.887-1.105 2.794-1.152 2.888-1.074 2.794-.862 2.888-.977 2.887-.996 2.795-.95 2.887-1.028 2.795-1.008 2.887-.836 2.888-.852 2.7-.692 2.888-.904 2.795-1.028 2.887-.94 2.795-.64 2.887-.708 2.888-.728 2.794-.79 2.888-.636 2.794-.66 2.887-.755 2.888-.749 2.608-.738 2.887-.661 2.795-.682 2.887-.666 2.795-.682 2.887-.62" clip-path="url(#pa2713b4076)" style="fill:none;stroke:#2ca02c;stroke-width:1.5;stroke-linecap:square" id="line2d_26"/><path d="m82.476 304.759 2.608-14.152 2.888-.707 2.794-.527 2.888-.548 2.794-.573 2.888-.454 2.887-.512 2.794-.428 2.888-.388 2.794-.537 2.888-.294 2.887-.434 2.702-.367 2.887-.335 2.794-.3 2.888-.253 2.794-.243 2.888-.248 2.887-.186 2.795-.155 2.887-.113 2.795-.098 2.887-.073 2.888-.082 2.608-.816 2.887-1.472 2.795-1.529 2.887-1.508 2.794-1.074 2.888-1.328 2.887-1.513 2.795-2.102 2.887-1.689 2.795-1.544 2.887-1.782 2.888-1.41 2.608-1.327 2.887-1.71 2.795-1.472 2.887-1.337 2.795-1.38 2.887-1.781 2.888-1.606 2.794-1.431 2.887-1.627 2.795-1.43 2.887-1.627 2.888-1.953 2.608-1.678 2.887-1.9 2.795-1.777 2.887-1.767 2.795-1.87 2.887-2.39 2.888-1.88 2.794-1.86 2.888-2.03 2.794-2.215 2.887-2.16 2.888-2.225 2.701-2.448 2.888-2.598 2.794-2.118 2.888-2.159 2.794-2.19 2.887-2.179 2.888-2.438 2.794-2.628 2.888-2.542 2.794-2.453 2.888-2.54 2.887-2.872 2.608-2.588 2.888-3.171 2.794-2.391 2.888-2.753 2.794-3.083 2.888-3.223 2.887-3.497 2.794-3.062 2.888-2.727 2.794-3.048 2.888-2.825 2.887-3.098 2.608-3.032 2.888-4.039 2.794-3.135 2.888-3.326 2.794-2.882 2.888-3.073 2.887-2.975 2.795-2.737 2.887-3.094 2.794-2.773 2.888-2.887 2.888-2.676 2.608-2.489 2.887-2.619 2.794-2.918 2.888-2.22 2.794-1.917 2.888-2.561 2.887-2.154 2.795-2.314 2.887-1.658 2.795-1.56 2.887-1.662 2.888-1.69 2.7-1.564 2.888-1.823 2.795-1.86 2.887-1.735 2.795-1.56 2.887-1.637 2.888-1.493 2.794-1.275 2.888-1.359 2.794-1.342 2.887-1.472 2.888-1.529 2.608-1.25 2.887-1.374 2.795-1.384 2.887-1.663 2.795-1.327 2.887-1.39" clip-path="url(#pa2713b4076)" style="fill:none;stroke:#ff7f0e;stroke-width:1.5;stroke-linecap:square" id="line2d_27"/><path d="m116.474 304.759 2.702-19.497 2.887-.336 2.794-.212 2.888-.15 2.794-.18 2.888-.16 2.887-.078 2.795-.057 2.887-.04 2.795-.037 2.887-.026 2.888-.03 2.608-.564 2.887-.97 2.795-.967 2.887-.65 2.794-.63 2.888-.708 2.887-.93 2.795-1.048 2.887-.635 2.795-.827 2.887-.857 2.888-1.043 2.608-.878 2.887-.64 2.795-1.57 2.887-1.018 2.795-12.096 2.887-1.9 2.888-5.625 2.794-1.534 2.887-1.436 2.795-1.286 2.887-1.596 2.888-2.577 2.608-1.72 2.887-3.099 2.795-2.685 2.887-1.715 2.795-4.028 2.887-2.505 2.888-3.698 2.794-3.807 2.888-6.022 2.794-3.357 2.887-2.639 2.888-2.572 2.701-2.603 2.888-2.577 2.794-2.185 2.888-2.65 2.794-6.404 2.887-2.83 2.888-5.464 2.794-2.856 2.888-2.154 2.794-1.792 2.888-2.097 2.887-2.37 2.608-2.221 2.888-3.078 2.794-2.314 2.888-2.505 2.794-2.257 2.888-2.675 2.887-2.345 2.794-2.355 2.888-3.41 2.794-2.375 2.888-2.33 2.887-2.974 2.608-2.365 2.888-2.407 2.794-2.16 2.888-2.406 2.794-1.983 2.888-2.03 2.887-1.999 2.795-4.803 2.887-1.993 2.794-2.34 2.888-2.35 2.888-4.183 2.608-2.242 2.887-2.603 2.794-2.54 2.888-4.009 2.794-2.324 2.888-2.03 2.887-2.329 2.795-2.081 2.887-1.927 2.795-1.714 2.887-6.74 2.888-2.423 2.7-1.549 2.888-1.75 2.795-2.144 2.887-1.694 2.795-1.818 2.887-3.114 2.888-1.627 2.794-1.643 2.888-2.045 2.794-2.148 2.887-2.082 2.888-1.627 2.608-2.19 2.887-1.859 2.795-1.849 2.887-1.761 2.795-1.921 2.887-1.854" clip-path="url(#pa2713b4076)" style="fill:none;stroke:#1f77b4;stroke-width:1.5;stroke-linecap:square" id="line2d_28"/></g></g><defs><clipPath id="pa2713b4076"><path d="M82.476 38.647h357.12v266.112H82.476z"/></clipPath></defs></svg>