<svg height="475.324" viewBox="0 0 603.035 356.493" width="804.047" xmlns="http://www.w3.org/2000/svg" xmlns:xlink="http://www.w3.org/1999/xlink"><defs><style>*{stroke-linecap:butt;stroke-linejoin:round}</style></defs><g id="figure_1"><path d="M0 356.493h603.035V0H0z" style="fill:none" id="patch_1"/><g id="axes_1"><path d="M53.127 313.361h357.12V47.25H53.127z" style="fill:none" id="patch_2"/><path clip-path="url(#p55fed6cbb9)" d="m53.127 313.361 1.28-4.235.168-.022 10.16-.283 6.45-.328 16.164-.502 7.4-.153 11.331-.174.88-.022 36.251-.153 6.311-.24 2.65-.197 8.539-.305.55-.131 4.423-.262.53-.11 4.644-.261 13.817-.699 17.52-.48 31.024-1.157 4.05-.175 2.153-.218 2.706-.022 1.732-.13 4.951-.132 8.155-.327 1.843-.044.228-.131 10.56-.371 14.23-.699 6.24-.174 2.375-.088 9.258-.174 2.684-.175 10.986-.327 8.984-.502 5.243-.175 4.522-.197 4.22-.37 14.61-.503 1.456-.109 6.085-.153 1.318-.13 18.22-.372 1.273-.13 15.78-.372.485-.065 11.52-.24h0" style="fill:none;stroke:#9467bd;stroke-linecap:square;stroke-width:1.5" id="line2d_1"/><g id="matplotlib.axis_1"><g id="xtick_1"><g id="line2d_2"><defs><path d="M0 0v3.5" id="m085be42997" style="stroke:#969696;stroke-width:.4"/></defs><use style="fill:#969696;stroke:#969696;stroke-width:.4" x="69.772" xlink:href="#m085be42997" y="313.361"/></g><g style="fill:#969696" transform="matrix(.14 0 0 -.14 54.201 330.41)" id="text_1"><defs><path d="M281 2888q0 793 409 1202 410 410 1148 410 618 0 1012-375t394-969q0-462-227-780-226-317-667-557l-775-425q-684-375-775-863h2444V0H166q25 634 275 1056t781 728l806 469q322 185 469 383t147 545q0 344-241 578-240 235-650 235-453 0-678-299-225-298-231-807H281z" id="HelveticaWorld-Regular-32" transform="scale(.01563)"/><path d="M2719 2188q0 903-239 1354-239 452-702 452-453 0-697-452-243-451-243-1354 0-875 240-1340 241-464 700-464 463 0 702 448 239 449 239 1356zm603 0q0-1107-400-1709-400-601-1144-601-772 0-1156 623-384 624-384 1687 0 1090 393 1701 394 611 1147 611 744 0 1144-608t400-1704z" id="HelveticaWorld-Regular-30" transform="scale(.01563)"/><path d="M2297 0h-600v3194H647v447q550 18 818 176 269 158 391 683h441V0z" id="HelveticaWorld-Regular-31" transform="scale(.01563)"/></defs><use xlink:href="#HelveticaWorld-Regular-32"/><use x="55.615" xlink:href="#HelveticaWorld-Regular-30"/><use x="111.23" xlink:href="#HelveticaWorld-Regular-31"/><use x="166.846" xlink:href="#HelveticaWorld-Regular-31"/></g></g><g id="xtick_2"><use style="fill:#969696;stroke:#969696;stroke-width:.4" x="102.487" xlink:href="#m085be42997" y="313.361" id="line2d_3"/><g style="fill:#969696" transform="matrix(.14 0 0 -.14 86.916 330.41)" id="text_2"><use xlink:href="#HelveticaWorld-Regular-32"/><use x="55.615" xlink:href="#HelveticaWorld-Regular-30"/><use x="111.23" xlink:href="#HelveticaWorld-Regular-31"/><use x="166.846" xlink:href="#HelveticaWorld-Regular-32"/></g></g><g id="xtick_3"><use style="fill:#969696;stroke:#969696;stroke-width:.4" x="135.292" xlink:href="#m085be42997" y="313.361" id="line2d_4"/><g style="fill:#969696" transform="matrix(.14 0 0 -.14 119.721 330.41)" id="text_3"><defs><path d="M1434 2559q141-12 294-12 397 0 626 183 230 183 230 554 0 300-214 505t-617 205q-447 0-655-263-207-262-220-703H325q0 703 369 1087 369 385 1084 385 635 0 1013-327 378-326 378-857 0-685-578-928v-13q750-256 750-1050 0-634-422-1041-422-406-1197-406-634 0-1044 333-409 333-459 1164h581q13-519 256-755 244-236 703-236 444 0 713 247t269 622q0 410-257 619-256 209-793 209-128 0-257-6v484z" id="HelveticaWorld-Regular-33" transform="scale(.01563)"/></defs><use xlink:href="#HelveticaWorld-Regular-32"/><use x="55.615" xlink:href="#HelveticaWorld-Regular-30"/><use x="111.23" xlink:href="#HelveticaWorld-Regular-31"/><use x="166.846" xlink:href="#HelveticaWorld-Regular-33"/></g></g><g id="xtick_4"><use style="fill:#969696;stroke:#969696;stroke-width:.4" x="168.007" xlink:href="#m085be42997" y="313.361" id="line2d_5"/><g style="fill:#969696" transform="matrix(.14 0 0 -.14 152.436 330.41)" id="text_4"><defs><path d="M678 1581h1447v2041h-12L678 1581zm2010-487V0h-563v1094H159v550l2063 2856h466V1581h659v-487h-659z" id="HelveticaWorld-Regular-34" transform="scale(.01563)"/></defs><use xlink:href="#HelveticaWorld-Regular-32"/><use x="55.615" xlink:href="#HelveticaWorld-Regular-30"/><use x="111.23" xlink:href="#HelveticaWorld-Regular-31"/><use x="166.846" xlink:href="#HelveticaWorld-Regular-34"/></g></g><g id="xtick_5"><use style="fill:#969696;stroke:#969696;stroke-width:.4" x="200.722" xlink:href="#m085be42997" y="313.361" id="line2d_6"/><g style="fill:#969696" transform="matrix(.14 0 0 -.14 185.152 330.41)" id="text_5"><defs><path d="M941 2619q372 281 872 281 606 0 1042-403t436-1038q0-690-421-1139-420-448-1179-448-660 0-1041 323-381 324-444 918h582q43-363 284-555t669-192q415 0 681 287 266 288 266 735 0 456-279 731-278 275-718 275-500 0-835-428l-484 25 337 2406h2332v-544H1131L941 2619z" id="HelveticaWorld-Regular-35" transform="scale(.01563)"/></defs><use xlink:href="#HelveticaWorld-Regular-32"/><use x="55.615" xlink:href="#HelveticaWorld-Regular-30"/><use x="111.23" xlink:href="#HelveticaWorld-Regular-31"/><use x="166.846" xlink:href="#HelveticaWorld-Regular-35"/></g></g><g id="xtick_6"><use style="fill:#969696;stroke:#969696;stroke-width:.4" x="233.438" xlink:href="#m085be42997" y="313.361" id="line2d_7"/><g style="fill:#969696" transform="matrix(.14 0 0 -.14 217.867 330.41)" id="text_6"><defs><path d="M903 1381q0-440 262-719 263-278 685-278 403 0 642 284 239 285 239 748 0 403-236 675t-670 272q-422 0-672-266t-250-716zm1766 1922q-63 344-255 517-192 174-520 174-519 0-791-507-272-506-278-1159l13-12q359 553 1068 553 566 0 988-375t422-1053q0-672-400-1118-400-445-1078-445-782 0-1188 556-406 557-406 1660 0 1062 415 1734 416 672 1247 672 538 0 910-321 372-320 403-876h-550z" id="HelveticaWorld-Regular-36" transform="scale(.01563)"/></defs><use xlink:href="#HelveticaWorld-Regular-32"/><use x="55.615" xlink:href="#HelveticaWorld-Regular-30"/><use x="111.23" xlink:href="#HelveticaWorld-Regular-31"/><use x="166.846" xlink:href="#HelveticaWorld-Regular-36"/></g></g><g id="xtick_7"><use style="fill:#969696;stroke:#969696;stroke-width:.4" x="266.243" xlink:href="#m085be42997" y="313.361" id="line2d_8"/><g style="fill:#969696" transform="matrix(.14 0 0 -.14 250.672 330.41)" id="text_7"><defs><path d="M238 4403h3109v-494q-641-653-1172-1766Q1644 1031 1497 0H878q94 850 622 1954 528 1105 1213 1899H238v550z" id="HelveticaWorld-Regular-37" transform="scale(.01563)"/></defs><use xlink:href="#HelveticaWorld-Regular-32"/><use x="55.615" xlink:href="#HelveticaWorld-Regular-30"/><use x="111.23" xlink:href="#HelveticaWorld-Regular-31"/><use x="166.846" xlink:href="#HelveticaWorld-Regular-37"/></g></g><g id="xtick_8"><use style="fill:#969696;stroke:#969696;stroke-width:.4" x="298.958" xlink:href="#m085be42997" y="313.361" id="line2d_9"/><g style="fill:#969696" transform="matrix(.14 0 0 -.14 283.387 330.41)" id="text_8"><defs><path d="M1766 2597q347 0 573 198 227 199 227 527 0 294-218 483-217 189-620 189-359 0-555-199-195-198-195-504 0-328 244-511t544-183zm6-484q-434 0-681-241t-247-591q0-403 250-650t712-247q410 0 655 247t245 657q0 350-245 587-245 238-689 238zm1378 1228q0-678-578-947 397-178 567-471 170-292 170-623 0-641-413-1032-412-390-1112-390-612 0-1076 336T244 1306q0 763 762 1082-609 243-609 875 0 531 361 884t1001 353q641 0 1016-333t375-826z" id="HelveticaWorld-Regular-38" transform="scale(.01563)"/></defs><use xlink:href="#HelveticaWorld-Regular-32"/><use x="55.615" xlink:href="#HelveticaWorld-Regular-30"/><use x="111.23" xlink:href="#HelveticaWorld-Regular-31"/><use x="166.846" xlink:href="#HelveticaWorld-Regular-38"/></g></g><g id="xtick_9"><use style="fill:#969696;stroke:#969696;stroke-width:.4" x="331.673" xlink:href="#m085be42997" y="313.361" id="line2d_10"/><g style="fill:#969696" transform="matrix(.14 0 0 -.14 316.103 330.41)" id="text_9"><defs><path d="M1766 2009q384 0 624 259 241 260 241 766 0 416-228 688t-681 272q-391 0-632-275-240-275-240-738 0-472 225-722t691-250zm-82-506q-640 0-1028 397-387 397-387 1056 0 666 390 1105 391 439 1057 439 775 0 1175-522t400-1565q0-1082-410-1809-409-726-1225-726-637 0-987 358t-350 845h565q25-337 220-536 196-198 540-198 487 0 737 434 250 435 344 1247l-12 13q-363-538-1029-538z" id="HelveticaWorld-Regular-39" transform="scale(.01563)"/></defs><use xlink:href="#HelveticaWorld-Regular-32"/><use x="55.615" xlink:href="#HelveticaWorld-Regular-30"/><use x="111.23" xlink:href="#HelveticaWorld-Regular-31"/><use x="166.846" xlink:href="#HelveticaWorld-Regular-39"/></g></g><g id="xtick_10"><use style="fill:#969696;stroke:#969696;stroke-width:.4" x="364.388" xlink:href="#m085be42997" y="313.361" id="line2d_11"/><g style="fill:#969696" transform="matrix(.14 0 0 -.14 348.818 330.41)" id="text_10"><use xlink:href="#HelveticaWorld-Regular-32"/><use x="55.615" xlink:href="#HelveticaWorld-Regular-30"/><use x="111.23" xlink:href="#HelveticaWorld-Regular-32"/><use x="166.846" xlink:href="#HelveticaWorld-Regular-30"/></g></g><g id="xtick_11"><use style="fill:#969696;stroke:#969696;stroke-width:.4" x="397.193" xlink:href="#m085be42997" y="313.361" id="line2d_12"/><g style="fill:#969696" transform="matrix(.14 0 0 -.14 381.623 330.41)" id="text_11"><use xlink:href="#HelveticaWorld-Regular-32"/><use x="55.615" xlink:href="#HelveticaWorld-Regular-30"/><use x="111.23" xlink:href="#HelveticaWorld-Regular-32"/><use x="166.846" xlink:href="#HelveticaWorld-Regular-31"/></g></g></g><g id="matplotlib.axis_2"><g id="ytick_1"><path clip-path="url(#p55fed6cbb9)" d="M53.127 269.723h357.12" style="fill:none;stroke:#969696;stroke-linecap:square;stroke-width:.3" id="line2d_13"/><g id="line2d_14"><defs><path d="M0 0h-3.5" id="m9ce57e01cd" style="stroke:#969696;stroke-width:.3"/></defs><use style="fill:#969696;stroke:#969696;stroke-width:.3" x="53.127" xlink:href="#m9ce57e01cd" y="269.723"/></g><g style="fill:#969696" transform="matrix(.14 0 0 -.14 14.985 274.747)" id="text_12"><use xlink:href="#HelveticaWorld-Regular-32"/><use x="55.615" xlink:href="#HelveticaWorld-Regular-30"/><use x="111.23" xlink:href="#HelveticaWorld-Regular-30"/><use x="166.846" xlink:href="#HelveticaWorld-Regular-30"/></g></g><g id="ytick_2"><path clip-path="url(#p55fed6cbb9)" d="M53.127 226.062h357.12" style="fill:none;stroke:#969696;stroke-linecap:square;stroke-width:.3" id="line2d_15"/><use style="fill:#969696;stroke:#969696;stroke-width:.3" x="53.127" xlink:href="#m9ce57e01cd" y="226.062" id="line2d_16"/><g style="fill:#969696" transform="matrix(.14 0 0 -.14 14.985 231.086)" id="text_13"><use xlink:href="#HelveticaWorld-Regular-34"/><use x="55.615" xlink:href="#HelveticaWorld-Regular-30"/><use x="111.23" xlink:href="#HelveticaWorld-Regular-30"/><use x="166.846" xlink:href="#HelveticaWorld-Regular-30"/></g></g><g id="ytick_3"><path clip-path="url(#p55fed6cbb9)" d="M53.127 182.401h357.12" style="fill:none;stroke:#969696;stroke-linecap:square;stroke-width:.3" id="line2d_17"/><use style="fill:#969696;stroke:#969696;stroke-width:.3" x="53.127" xlink:href="#m9ce57e01cd" y="182.401" id="line2d_18"/><g style="fill:#969696" transform="matrix(.14 0 0 -.14 14.985 187.426)" id="text_14"><use xlink:href="#HelveticaWorld-Regular-36"/><use x="55.615" xlink:href="#HelveticaWorld-Regular-30"/><use x="111.23" xlink:href="#HelveticaWorld-Regular-30"/><use x="166.846" xlink:href="#HelveticaWorld-Regular-30"/></g></g><g id="ytick_4"><path clip-path="url(#p55fed6cbb9)" d="M53.127 138.74h357.12" style="fill:none;stroke:#969696;stroke-linecap:square;stroke-width:.3" id="line2d_19"/><use style="fill:#969696;stroke:#969696;stroke-width:.3" x="53.127" xlink:href="#m9ce57e01cd" y="138.74" id="line2d_20"/><g style="fill:#969696" transform="matrix(.14 0 0 -.14 14.985 143.765)" id="text_15"><use xlink:href="#HelveticaWorld-Regular-38"/><use x="55.615" xlink:href="#HelveticaWorld-Regular-30"/><use x="111.23" xlink:href="#HelveticaWorld-Regular-30"/><use x="166.846" xlink:href="#HelveticaWorld-Regular-30"/></g></g><g id="ytick_5"><path clip-path="url(#p55fed6cbb9)" d="M53.127 95.08h357.12" style="fill:none;stroke:#969696;stroke-linecap:square;stroke-width:.3" id="line2d_21"/><use style="fill:#969696;stroke:#969696;stroke-width:.3" x="53.127" xlink:href="#m9ce57e01cd" y="95.08" id="line2d_22"/><g style="fill:#969696" transform="matrix(.14 0 0 -.14 7.2 100.104)" id="text_16"><use xlink:href="#HelveticaWorld-Regular-31"/><use x="55.615" xlink:href="#HelveticaWorld-Regular-30"/><use x="111.23" xlink:href="#HelveticaWorld-Regular-30"/><use x="166.846" xlink:href="#HelveticaWorld-Regular-30"/><use x="222.461" xlink:href="#HelveticaWorld-Regular-30"/></g></g><g id="ytick_6"><path clip-path="url(#p55fed6cbb9)" d="M53.127 51.419h357.12" style="fill:none;stroke:#969696;stroke-linecap:square;stroke-width:.3" id="line2d_23"/><use style="fill:#969696;stroke:#969696;stroke-width:.3" x="53.127" xlink:href="#m9ce57e01cd" y="51.419" id="line2d_24"/><g style="fill:#969696" transform="matrix(.14 0 0 -.14 7.2 56.444)" id="text_17"><use xlink:href="#HelveticaWorld-Regular-31"/><use x="55.615" xlink:href="#HelveticaWorld-Regular-32"/><use x="111.23" xlink:href="#HelveticaWorld-Regular-30"/><use x="166.846" xlink:href="#HelveticaWorld-Regular-30"/><use x="222.461" xlink:href="#HelveticaWorld-Regular-30"/></g></g></g><path clip-path="url(#p55fed6cbb9)" d="m147.798 313.361 2.17-.567 2.49-.284 3.654-.851 2.5-.59 6.746-.851 2.742-.59 5.043-.873 5.016-.698 4.301-.459 4.806-.851 4.63-.873 3.535-.59.938-.284 6.275-.873 5.2-.567 3.39-.874 5.072-.873 2.455-.567 3.614-.59 2.524-.567 1.98-.284 2.977-.873 2.199-.59 5.505-1.157 4.36-1.157 4.325-1.157 6.454-1.135 1.94-.568 2.487-.59 1.62-.567 14.355-4.06 1.704-.568 2.58-1.157 3.209-1.157 3.688-1.157 1.54-.59 4.12-1.156 2.209-.568 1.48-.59 1.78-.567 2.604-1.157 4.433-1.746 2.393-1.157 3.209-1.135 1.604-.568 1.22-.59 1.61-.567 1.21-.59 3.66-1.156 4.17-1.725 2.73-1.157 3.785-1.157 5.386-2.314 2.131-.59 1.181-.567 1.558-.59 2.26-1.157 2.982-1.157 4.224-1.157 1.273-.567 5.972-1.747 3.24-1.135 2.292-1.157 10.712-4.038 1.45-.59 2.454-1.157 3.393-1.724 6.228-2.314 8.05-2.904 1.023-.567 1.882-.59 2.49-1.157 2.004-1.157 1.69-.546 3.386-1.812 1.807-1.244 1.98-.415 1.152-.414h0" style="fill:none;stroke:#d62728;stroke-linecap:square;stroke-width:1.5" id="line2d_25"/><path clip-path="url(#p55fed6cbb9)" d="m200.96 313.361 1.964-1.266 2.262-1.288 2.096-.633 1.327-.327 1.396-.328 2.275-.633 1.764-.327 1.158-.328 2.047-.305 1.33-.328 2.605-.655 2.37-.633 1.305-.327 1.668-.328 2.384-.633 1.37-.655 1.626-.633 1.626-.327 1.55-.328 1.417-.305 1.853-.328 2.548-.655 2.327-.633 2.571-.655 1.967-.633 1.92-.655 1.506-.633 1.416-.327 1.341-.328 2.265-.633 2.044-.655 1.965-.633 2.526-.655 2.625-.633 1.985-.655 1.895-.633 1.9-.655 2.066-.633 2.4-.655 1.37-.633 1.826-.655 2.267-.633 1.989-.655 1.586-.633 1.57-.655 1.612-.633 1.892-.655 1.906-.633 1.627-.655 1.395-.633 1.348-.655 2.077-1.288 2.509-1.288 1.833-1.288 2.494-1.288 2.088-1.288 2.01-1.288 2.056-1.288 2.41-1.288 1.276-.633 2.066-.655 2.248-1.287 1.372-.634 1.344-.654 2.468-1.288 2.386-1.288 2.442-1.288 1.903-.634 1.632-.654 1.198-.634 1.995-.654 1.483-.634 1.422-.654 2.453-1.288 2.379-1.288 2.112-1.288 2.529-1.288 1.387-.633 1.62-.655 2.485-1.288 1.155-.633 1.816-.655 2.071-1.288 2.498-1.288 2.152-1.288 1.478-.633 1.479-.655 1.824-.633 1.162-.655 2.58-1.288 2.3-1.288 2.595-1.288 1.16-.633 1.588-.655 1.433-.633 1.639-.655 1.76-.633 1.514-.655 2.47-1.288 1.587-.633 1.198-.655 1.593-.633 1.308-.655 1.85-1.288 1.964-1.288 2.436-1.288 1.85-.502.846-.524 2.371-.72 1.679-.721 1.7-.611 1.442-.633" style="fill:none;stroke:#2ca02c;stroke-linecap:square;stroke-width:1.5" id="line2d_26"/><g style="fill:#1f77b4" transform="matrix(.14 0 0 -.14 413.818 50.825)" id="text_18"><defs><path d="M422 3347h531v-472h13q378 569 1012 569 628 0 891-544 240 294 465 419t557 125q434 0 735-285 302-284 302-843V0h-562v2163q0 390-147 582-147 193-475 193-331 0-560-269-228-269-228-628V0h-562v2316q0 290-135 456-134 166-390 166-403 0-644-300t-241-813V0H422v3347z" id="HelveticaWorld-Regular-6d" transform="scale(.01563)"/><path d="M3200 0h-722L1434 1691l-468-422V0H422v4594h544V1931l1440 1416h716L1844 2100 3200 0z" id="HelveticaWorld-Regular-6b" transform="scale(.01563)"/><path d="M838 1684q0-621 246-957 247-336 657-336 390 0 652 287 263 288 263 838 0 706-224 1064-223 358-679 358-434 0-675-285-240-284-240-969zM3225 0h-531v459h-13Q2363-97 1716-97q-697 0-1079 531-381 532-381 1338 0 744 378 1208 379 464 1016 464 628 0 1000-569l13 38v1681h562V0z" id="HelveticaWorld-Regular-64" transform="scale(.01563)"/><path d="M813 1678q0-559 253-920t718-361q482 0 732 378t250 903q0 531-250 901-250 371-732 371-446 0-709-349-262-348-262-923zm-575 0q0 747 415 1256 416 510 1131 510 732 0 1144-516 413-515 413-1250 0-737-410-1256Q2522-97 1784-97q-709 0-1128 503-418 503-418 1272z" id="HelveticaWorld-Regular-6f" transform="scale(.01563)"/><path d="M2534 2222q-121 716-793 716-416 0-669-333t-253-927q0-647 234-967 235-320 681-320 300 0 519 220t281 573h544q-84-621-439-951T1722-97q-659 0-1081 451-422 452-422 1227 0 850 422 1356 422 507 1184 507 556 0 886-333t367-889h-544z" id="HelveticaWorld-Regular-63" transform="scale(.01563)"/><path d="M2309 2394q-12 300-214 431-201 131-579 131-275 0-471-122-195-121-195-350 0-181 115-267 116-86 501-183l556-140q506-128 723-327 218-198 218-554 0-494-361-802T1638-97Q934-97 573 195q-360 293-367 880h544q13-347 230-516 217-168 651-168 353 0 561 140 208 141 208 391 0 178-135 284-134 107-531 197l-653 160q-397 100-586 298t-189 514q0 494 353 781 354 288 922 288 607 0 930-296 323-295 342-754h-544z" id="HelveticaWorld-Regular-73" transform="scale(.01563)"/><path d="M319-122h-428l1575 4838h422L319-122z" id="HelveticaWorld-Regular-2f" transform="scale(.01563)"/></defs><use xlink:href="#HelveticaWorld-Regular-6d"/><use x="83.008" xlink:href="#HelveticaWorld-Regular-6b"/><use x="130.633" xlink:href="#HelveticaWorld-Regular-64"/><use x="187.615" xlink:href="#HelveticaWorld-Regular-6f"/><use x="243.523" xlink:href="#HelveticaWorld-Regular-63"/><use x="294.793" xlink:href="#HelveticaWorld-Regular-73"/><use x="344.793" xlink:href="#HelveticaWorld-Regular-2f"/><use x="372.576" xlink:href="#HelveticaWorld-Regular-6d"/><use x="455.584" xlink:href="#HelveticaWorld-Regular-6b"/><use x="503.209" xlink:href="#HelveticaWorld-Regular-64"/><use x="560.191" xlink:href="#HelveticaWorld-Regular-6f"/><use x="616.1" xlink:href="#HelveticaWorld-Regular-63"/><use x="667.369" xlink:href="#HelveticaWorld-Regular-73"/></g><g style="fill:#ff7f0e" transform="matrix(.14 0 0 -.14 413.818 175.234)" id="text_19"><defs><path d="M984 0H422v3347h531v-556h13q365 653 940 653 91 0 147-19v-584h-209q-378 0-619-257-241-256-241-637V0z" id="HelveticaWorld-Regular-72" transform="scale(.01563)"/><path d="M2719 1941q-44 543-288 770-243 227-647 227-409 0-661-288-251-287-267-709h1863zm537-891q-93-519-509-859-366-288-963-294-703 6-1116 461-412 455-412 1223 0 882 425 1372 425 491 1182 491 678 0 1059-507 381-506 381-1446H856q0-525 244-813 244-287 731-287 344 0 591 207 247 208 272 452h562z" id="HelveticaWorld-Regular-65" transform="scale(.01563)"/><path d="M2456 1709q-62-65-245-106-183-40-683-106-369-44-542-182-173-137-173-362 0-275 146-428 147-153 469-153 403 0 715 229 313 230 313 558v550zM397 2328q19 566 367 841 349 275 1014 275 531 0 890-241 360-240 360-694V581q0-197 178-197 72 0 185 25V0q-153-63-319-63-288 0-429 123-140 124-146 387Q2016-97 1288-97q-475 0-763 269-287 269-287 700 0 441 250 712 250 272 728 329l993 121q269 41 269 397 0 263-195 403-195 141-592 141-353 0-543-156-189-156-226-491H397z" id="HelveticaWorld-Regular-61" transform="scale(.01563)"/><path d="M1100 2881V703q0-128 70-195 71-67 252-67h216V0q-307-44-422-44-353 0-516 169-162 169-162 547v2209H84v466h454v934h562v-934h538v-466h-538z" id="HelveticaWorld-Regular-74" transform="scale(.01563)"/><path d="M3150 0h-566v2188q0 403-156 576-156 174-509 174-435 0-685-282-250-281-250-831V0H422v4594h562V2900h13q384 544 981 544 550 0 861-288 311-287 311-878V0z" id="HelveticaWorld-Regular-68" transform="scale(.01563)"/><path d="M1222 0H556v678h666V0z" id="HelveticaWorld-Regular-2e" transform="scale(.01563)"/><path d="M831 1684q0-615 244-954t659-339q404 0 660 293 256 294 256 832 0 706-224 1064-223 358-679 358-459 0-688-305-228-305-228-949zM3188 191q0-807-388-1203-387-397-1169-397-562 0-895 259T353-409h563q43-244 226-388t530-144q472 0 712 254 241 253 241 821v238h-12Q2297-97 1722-97q-716 0-1094 528T250 1772q0 744 381 1208 382 464 1013 464 634 0 1000-569h12v472h532V191z" id="HelveticaWorld-Regular-67" transform="scale(.01563)"/></defs><use xlink:href="#HelveticaWorld-Regular-72"/><use x="31.568" xlink:href="#HelveticaWorld-Regular-65"/><use x="86.988" xlink:href="#HelveticaWorld-Regular-61"/><use x="141.92" xlink:href="#HelveticaWorld-Regular-64"/><use x="198.902" xlink:href="#HelveticaWorld-Regular-74"/><use x="226.588" xlink:href="#HelveticaWorld-Regular-68"/><use x="281.764" xlink:href="#HelveticaWorld-Regular-65"/><use x="337.184" xlink:href="#HelveticaWorld-Regular-64"/><use x="394.166" xlink:href="#HelveticaWorld-Regular-6f"/><use x="450.074" xlink:href="#HelveticaWorld-Regular-63"/><use x="501.344" xlink:href="#HelveticaWorld-Regular-73"/><use x="551.344" xlink:href="#HelveticaWorld-Regular-2f"/><use x="579.127" xlink:href="#HelveticaWorld-Regular-72"/><use x="610.695" xlink:href="#HelveticaWorld-Regular-65"/><use x="666.115" xlink:href="#HelveticaWorld-Regular-61"/><use x="721.047" xlink:href="#HelveticaWorld-Regular-64"/><use x="778.029" xlink:href="#HelveticaWorld-Regular-74"/><use x="805.715" xlink:href="#HelveticaWorld-Regular-68"/><use x="860.891" xlink:href="#HelveticaWorld-Regular-65"/><use x="916.311" xlink:href="#HelveticaWorld-Regular-64"/><use x="973.293" xlink:href="#HelveticaWorld-Regular-6f"/><use x="1029.201" xlink:href="#HelveticaWorld-Regular-63"/><use x="1080.471" xlink:href="#HelveticaWorld-Regular-73"/><use x="1128.971" xlink:href="#HelveticaWorld-Regular-2e"/><use x="1156.754" xlink:href="#HelveticaWorld-Regular-6f"/><use x="1212.662" xlink:href="#HelveticaWorld-Regular-72"/><use x="1244.23" xlink:href="#HelveticaWorld-Regular-67"/></g><g style="fill:#2ca02c" transform="matrix(.14 0 0 -.14 413.818 227.814)" id="text_20"><defs><path d="M959 1516q0-538 262-832 263-293 654-293 428 0 665 348 238 349 238 945 0 654-228 954t-687 300q-447 0-676-352-228-352-228-1070zM422 3347h531v-472h13q359 569 1000 569 647 0 1020-471 373-470 373-1201 0-819-381-1344T1888-97q-582 0-891 450h-13v-1678H422v4672z" id="HelveticaWorld-Regular-70" transform="scale(.01563)"/><path d="M422 3956v638h562v-638H422zM984 0H422v3347h562V0z" id="HelveticaWorld-Regular-69" transform="scale(.01563)"/><path d="M3150 0h-566v2059q0 475-166 677-165 202-549 202-378 0-632-288-253-287-253-825V0H422v3347h531v-472h13q397 569 1012 569 569 0 870-302 302-301 302-864V0z" id="HelveticaWorld-Regular-6e" transform="scale(.01563)"/><path d="M3138 0h-725l-825 1259L781 0H72l1169 1722L128 3347h716l775-1178 781 1178h684L1959 1722 3138 0z" id="HelveticaWorld-Regular-78" transform="scale(.01563)"/><path d="M1850 1484H281v575h1569v-575z" id="HelveticaWorld-Regular-2d" transform="scale(.01563)"/></defs><use xlink:href="#HelveticaWorld-Regular-73"/><use x="50" xlink:href="#HelveticaWorld-Regular-70"/><use x="106.494" xlink:href="#HelveticaWorld-Regular-68"/><use x="161.67" xlink:href="#HelveticaWorld-Regular-69"/><use x="183.691" xlink:href="#HelveticaWorld-Regular-6e"/><use x="238.867" xlink:href="#HelveticaWorld-Regular-78"/><use x="288.867" xlink:href="#HelveticaWorld-Regular-2d"/><use x="322.168" xlink:href="#HelveticaWorld-Regular-64"/><use x="379.15" xlink:href="#HelveticaWorld-Regular-6f"/><use x="435.059" xlink:href="#HelveticaWorld-Regular-63"/><use x="486.328" xlink:href="#HelveticaWorld-Regular-2f"/><use x="514.111" xlink:href="#HelveticaWorld-Regular-73"/><use x="564.111" xlink:href="#HelveticaWorld-Regular-70"/><use x="620.605" xlink:href="#HelveticaWorld-Regular-68"/><use x="675.781" xlink:href="#HelveticaWorld-Regular-69"/><use x="697.803" xlink:href="#HelveticaWorld-Regular-6e"/><use x="752.979" xlink:href="#HelveticaWorld-Regular-78"/></g><g style="fill:#d62728" transform="matrix(.14 0 0 -.14 413.818 241.722)" id="text_21"><defs><path d="M2497 3347h612L1913 63q-32-88-63-166-272-725-469-995-197-271-637-271-231 0-378 50v513q159-57 350-57 206 0 301 130 96 130 283 636L56 3347h635l897-2725h12l897 2725z" id="HelveticaWorld-Regular-79" transform="scale(.01563)"/></defs><use xlink:href="#HelveticaWorld-Regular-64"/><use x="56.982" xlink:href="#HelveticaWorld-Regular-6f"/><use x="110.016" xlink:href="#HelveticaWorld-Regular-78"/><use x="160.016" xlink:href="#HelveticaWorld-Regular-79"/><use x="207.625" xlink:href="#HelveticaWorld-Regular-67"/><use x="263.533" xlink:href="#HelveticaWorld-Regular-65"/><use x="318.953" xlink:href="#HelveticaWorld-Regular-6e"/><use x="374.129" xlink:href="#HelveticaWorld-Regular-2f"/><use x="401.912" xlink:href="#HelveticaWorld-Regular-64"/><use x="458.895" xlink:href="#HelveticaWorld-Regular-6f"/><use x="511.928" xlink:href="#HelveticaWorld-Regular-78"/><use x="561.928" xlink:href="#HelveticaWorld-Regular-79"/><use x="609.537" xlink:href="#HelveticaWorld-Regular-67"/><use x="665.445" xlink:href="#HelveticaWorld-Regular-65"/><use x="720.865" xlink:href="#HelveticaWorld-Regular-6e"/></g><g style="fill:#9467bd" transform="matrix(.14 0 0 -.14 413.818 300.802)" id="text_22"><use xlink:href="#HelveticaWorld-Regular-70"/><use x="54.494" xlink:href="#HelveticaWorld-Regular-79"/><use x="102.104" xlink:href="#HelveticaWorld-Regular-63"/><use x="153.373" xlink:href="#HelveticaWorld-Regular-63"/><use x="204.643" xlink:href="#HelveticaWorld-Regular-6f"/><use x="260.551" xlink:href="#HelveticaWorld-Regular-2d"/><use x="293.852" xlink:href="#HelveticaWorld-Regular-64"/><use x="350.834" xlink:href="#HelveticaWorld-Regular-6f"/><use x="406.742" xlink:href="#HelveticaWorld-Regular-63"/><use x="458.012" xlink:href="#HelveticaWorld-Regular-73"/><use x="508.012" xlink:href="#HelveticaWorld-Regular-2f"/><use x="535.795" xlink:href="#HelveticaWorld-Regular-70"/><use x="590.289" xlink:href="#HelveticaWorld-Regular-79"/><use x="637.898" xlink:href="#HelveticaWorld-Regular-63"/><use x="689.168" xlink:href="#HelveticaWorld-Regular-63"/><use x="740.438" xlink:href="#HelveticaWorld-Regular-6f"/></g><g style="fill:#969696" transform="matrix(.09716 0 0 -.09716 53.127 347.154)" id="text_23"><defs><path d="M2463 2456h2018V0h-403l-150 594q-294-375-691-546-396-170-824-170-691 0-1155 301-464 302-721 833-256 532-256 1326 0 990 589 1684t1586 694q744 0 1300-416 557-416 647-1100h-600q-109 453-462 709-353 257-916 257-678 0-1091-511-412-511-412-1352 0-978 409-1436 410-458 1119-458 463 0 783 183t492 497q172 314 172 836H2463v531z" id="HelveticaWorld-Regular-47" transform="scale(.01563)"/><path d="M4153 0h-622v2144H1131V0H519v4594h612V2694h2400v1900h622V0z" id="HelveticaWorld-Regular-48" transform="scale(.01563)"/><path d="M391 3347h562V1125q0-369 167-552 168-182 480-182 434 0 678 307 244 308 244 805v1844h562V0h-531v488l-12 12Q2222-97 1478-97q-481 0-784 262-303 263-303 776v2406z" id="HelveticaWorld-Regular-75" transform="scale(.01563)"/><path d="M2778 1684q0 672-238 963-237 291-677 291-447-7-676-349-228-342-228-989 0-659 275-934t641-275q416 0 659 342 244 342 244 951zM422 0v4594h562V2925h13q359 519 969 519 625 0 1009-464t384-1208q0-838-388-1354Q2584-97 1888-97q-613 0-922 513h-13V0H422z" id="HelveticaWorld-Regular-62" transform="scale(.01563)"/><path d="m2816 1888-678 2021h-13l-737-2021h1428zm-1619-550L716 0H78l1728 4594h703L4172 0h-678l-453 1338H1197z" id="HelveticaWorld-Regular-41" transform="scale(.01563)"/><path d="M1141 2472h1234q466 0 700 204 234 205 234 621 0 372-225 569t-684 197H1141V2472zm0-2472H519v4594h2065q616 0 991-358t375-933q0-597-363-980-362-382-1003-382H1141V0z" id="HelveticaWorld-Regular-50" transform="scale(.01563)"/><path d="M1141 0H519v4594h622V0z" id="HelveticaWorld-Regular-49" transform="scale(.01563)"/><path d="M2522 3347h616L1863 0h-604L38 3347h653l872-2725h12l947 2725z" id="HelveticaWorld-Regular-76" transform="scale(.01563)"/><path d="M603 4716h466V-122H603v4838z" id="HelveticaWorld-Regular-7c" transform="scale(.01563)"/><path d="M3559 4594h600V0h-690L1125 3713h-12V0H519v4594h728L3547 884h12v3710z" id="HelveticaWorld-Regular-4e" transform="scale(.01563)"/><path d="M3225 3250q-19 438-327 686-307 248-810 248-507 0-779-208-271-207-271-598 0-209 118-359 119-150 425-222l1313-300q531-116 787-440 257-323 257-788 0-681-500-1036T2138-122q-610 0-962 156-351 157-623 497-272 341-272 953h582q0-512 340-794 341-281 928-281 569 0 886 202t317 573q0 338-189 505t-739 295l-990 232q-494 112-738 392t-244 689q0 619 417 1019 418 400 1165 400 843 0 1301-352 458-351 492-1114h-584z" id="HelveticaWorld-Regular-53" transform="scale(.01563)"/><path d="M984 0H422v4594h562V0z" id="HelveticaWorld-Regular-6c" transform="scale(.01563)"/><path d="M813 1678q0-559 253-920t718-361q482 0 732 378t250 903q0 531-250 901-250 371-732 371-446 0-709-349-262-348-262-923zm-575 0q0 747 415 1256 416 510 1131 510 732 0 1144-516 413-515 413-1250 0-737-410-1256Q2522-97 1784-97q-709 0-1128 503-418 503-418 1272zm2351 2266h-575v650h575v-650zm-1038 0H976v650h575v-650z" id="HelveticaWorld-Regular-f6" transform="scale(.01563)"/><path d="M3713 3213q-104 468-434 710-329 243-854 243-678 0-1091-493-412-492-412-1329 0-969 390-1443 391-473 1132-473 487 0 838 323 352 324 474 940h603q-121-885-671-1349T2350-122q-941 0-1505 647T281 2322q0 1109 589 1751 589 643 1555 643 800 0 1297-413 497-412 591-1090h-600z" id="HelveticaWorld-Regular-43" transform="scale(.01563)"/><path d="M519 4594h2015q594 0 947-322t353-834q0-310-155-565-154-254-460-395 428-162 629-431 202-269 202-691 0-593-428-975Q3194 0 2491 0H519v4594zm612-4063h1325q488 0 731 226 244 227 244 612 0 390-272 582-271 193-803 193H1131V531zm0 2119h1128q494 0 724 179 230 180 230 562 0 328-218 500-217 172-729 172H1131V2650z" id="HelveticaWorld-Regular-42" transform="scale(.01563)"/><path d="M2388 0h-622v1850L31 4594h725l1319-2206 1316 2206h731L2388 1850V0z" id="HelveticaWorld-Regular-59" transform="scale(.01563)"/></defs><use xlink:href="#HelveticaWorld-Regular-47"/><use x="77.1" xlink:href="#HelveticaWorld-Regular-69"/><use x="99.121" xlink:href="#HelveticaWorld-Regular-74"/><use x="126.807" xlink:href="#HelveticaWorld-Regular-48"/><use x="199.805" xlink:href="#HelveticaWorld-Regular-75"/><use x="254.59" xlink:href="#HelveticaWorld-Regular-62"/><use x="311.084" xlink:href="#HelveticaWorld-Regular-20"/><use x="335.498" xlink:href="#HelveticaWorld-Regular-41"/><use x="402.197" xlink:href="#HelveticaWorld-Regular-50"/><use x="466.846" xlink:href="#HelveticaWorld-Regular-49"/><use x="492.627" xlink:href="#HelveticaWorld-Regular-20"/><use x="517.041" xlink:href="#HelveticaWorld-Regular-76"/><use x="566.65" xlink:href="#HelveticaWorld-Regular-69"/><use x="588.672" xlink:href="#HelveticaWorld-Regular-61"/><use x="643.604" xlink:href="#HelveticaWorld-Regular-20"/><use x="668.018" xlink:href="#HelveticaWorld-Regular-73"/><use x="718.018" xlink:href="#HelveticaWorld-Regular-74"/><use x="745.703" xlink:href="#HelveticaWorld-Regular-61"/><use x="800.635" xlink:href="#HelveticaWorld-Regular-72"/><use x="832.203" xlink:href="#HelveticaWorld-Regular-67"/><use x="888.111" xlink:href="#HelveticaWorld-Regular-72"/><use x="919.68" xlink:href="#HelveticaWorld-Regular-61"/><use x="974.611" xlink:href="#HelveticaWorld-Regular-70"/><use x="1031.105" xlink:href="#HelveticaWorld-Regular-68"/><use x="1086.281" xlink:href="#HelveticaWorld-Regular-20"/><use x="1110.695" xlink:href="#HelveticaWorld-Regular-7c"/><use x="1136.672" xlink:href="#HelveticaWorld-Regular-20"/><use x="1161.086" xlink:href="#HelveticaWorld-Regular-4e"/><use x="1234.182" xlink:href="#HelveticaWorld-Regular-69"/><use x="1256.203" xlink:href="#HelveticaWorld-Regular-63"/><use x="1307.473" xlink:href="#HelveticaWorld-Regular-6f"/><use x="1363.381" xlink:href="#HelveticaWorld-Regular-20"/><use x="1387.795" xlink:href="#HelveticaWorld-Regular-53"/><use x="1454.006" xlink:href="#HelveticaWorld-Regular-63"/><use x="1505.275" xlink:href="#HelveticaWorld-Regular-68"/><use x="1560.451" xlink:href="#HelveticaWorld-Regular-6c"/><use x="1582.473" xlink:href="#HelveticaWorld-Regular-f6"/><use x="1638.381" xlink:href="#HelveticaWorld-Regular-6d"/><use x="1721.389" xlink:href="#HelveticaWorld-Regular-65"/><use x="1776.809" xlink:href="#HelveticaWorld-Regular-72"/><use x="1809.377" xlink:href="#HelveticaWorld-Regular-20"/><use x="1833.791" xlink:href="#HelveticaWorld-Regular-7c"/><use x="1859.768" xlink:href="#HelveticaWorld-Regular-20"/><use x="1884.182" xlink:href="#HelveticaWorld-Regular-43"/><use x="1956.496" xlink:href="#HelveticaWorld-Regular-43"/><use x="2028.811" xlink:href="#HelveticaWorld-Regular-20"/><use x="2053.225" xlink:href="#HelveticaWorld-Regular-42"/><use x="2116.037" xlink:href="#HelveticaWorld-Regular-59"/></g><g style="fill:#969696" transform="matrix(.14 0 0 -.14 158.992 17.25)" id="text_24"><defs><path d="M1100 2881V0H538v2881H78v466h460v575q0 378 229 557 230 180 642 180 141 0 254-12v-506q-100 12-229 12-187 0-261-92-73-92-73-298v-416h563v-466h-563z" id="HelveticaWorld-Regular-66" transform="scale(.01563)"/></defs><use xlink:href="#HelveticaWorld-Regular-4e"/><use x="73.096" xlink:href="#HelveticaWorld-Regular-75"/><use x="127.881" xlink:href="#HelveticaWorld-Regular-6d"/><use x="210.889" xlink:href="#HelveticaWorld-Regular-62"/><use x="267.383" xlink:href="#HelveticaWorld-Regular-65"/><use x="322.803" xlink:href="#HelveticaWorld-Regular-72"/><use x="355.371" xlink:href="#HelveticaWorld-Regular-20"/><use x="379.785" xlink:href="#HelveticaWorld-Regular-6f"/><use x="435.693" xlink:href="#HelveticaWorld-Regular-66"/><use x="463.379" xlink:href="#HelveticaWorld-Regular-20"/><use x="487.793" xlink:href="#HelveticaWorld-Regular-47"/><use x="564.893" xlink:href="#HelveticaWorld-Regular-69"/><use x="586.914" xlink:href="#HelveticaWorld-Regular-74"/><use x="614.6" xlink:href="#HelveticaWorld-Regular-48"/><use x="687.598" xlink:href="#HelveticaWorld-Regular-75"/><use x="742.383" xlink:href="#HelveticaWorld-Regular-62"/><use x="798.877" xlink:href="#HelveticaWorld-Regular-20"/><use x="823.291" xlink:href="#HelveticaWorld-Regular-73"/><use x="873.291" xlink:href="#HelveticaWorld-Regular-74"/><use x="900.977" xlink:href="#HelveticaWorld-Regular-61"/><use x="955.908" xlink:href="#HelveticaWorld-Regular-72"/><use x="988.477" xlink:href="#HelveticaWorld-Regular-73"/></g><path clip-path="url(#p55fed6cbb9)" d="m57.475 313.361 2.615-5.872 7.245-.677 4.23-.262 2.43-.13 3.889-.46 3.614-.217 25.252-1.987 21.221-.524 10.99-.044 3.129-1.07 5.537-1.33 4.808-.809 3.488-.807 5.051-.808 1.804-.524 4.21-1.637 3.316-1.07 1.911-.524 3.762-1.615 5.442-2.664 2.972-1.07 1.38-.545 3.063-1.092 9.508-4.278 2.007-1.07 5.254-2.14 4.049-2.16 2.343-1.07 4.989-2.14 2.06-1.07 7.409-3.23 11.22-6.418 6.102-3.231 2.275-1.07 1.542-1.07 3.448-2.139 5.01-3.23 1.625-1.07 7.09-3.232 2.335-1.07 3.597-2.139 3.24-2.16 3.428-1.594 1.537-.546 2.189-1.07 2.883-1.07 2.001-1.07 1.448-1.069 4.52-2.161 7.276-4.279 1.16-1.07 1.807-1.07 3.007-2.16 1.375-1.07 9.206-5.349 10.402-6.44 1.946-1.07 2.286-1.069 2.004-1.091 1.288-1.07 2.34-1.07 3.954-2.14 2.304-1.069 3.39-2.14 2.317-1.09 3.767-2.14 1.733-1.07 2.075-1.07 3.749-1.593 6.897-2.707 2.015-1.07 1.762-1.07 2.09-1.07 3.616-2.138 5.11-2.14 2.328-1.091 2.624-1.07 2.306-1.07 1.421-1.07 5.506-3.23 3.836-1.616 3.317-1.2.805-.655 1.704-.393 1.067-.415 1.347-.808 1.862-.742 1.305-.764h0" style="fill:none;stroke:#ff7f0e;stroke-linecap:square;stroke-width:1.5" id="line2d_27"/><path clip-path="url(#p55fed6cbb9)" d="m169.245 313.361 2.054-1.964 2.308-1.965 8.988-2.445 3.771-1.485 7.027-1.964 5.084-2.947 4.251-1.965 4.101-2.947 2.121-1.965 1.825-1.965 1.618-1.964 1.912-1.965.872-1.965 1.355-1.965 1.628-.982 3.692-1.965 1.563-.982 1.957-.982 1.101-.983 4.06-2.947 1.51-.982 2.233-1.965 1.334-1.965 2.626-1.964 2.023-1.965 4.479-3.93 7.13-5.894 2.57-1.965 1.998-1.964 2.345-1.965 1.713-1.965 2.46-1.965 4.443-3.929 1.795-1.965 3.966-3.93 3.79-3.929 3.998-3.93 2.469-1.964 1.895-1.965 6.292-5.894 1.758-1.964 5.796-5.895 2.715-3.93 3.5-3.929 3.13-3.93 1.322-1.964 1.493-1.965 1.749-1.964 1.592-1.965 1.357-1.965 1.559-1.986 2.67-3.93 4.863-5.894 1.255-1.965 1.692-1.964 1.272-1.965 1.648-1.965 4.87-7.859 1.506-1.965 4.045-5.894 1.734-1.964 2.585-3.93 1.487-1.965 3.214-3.93 1.271-1.964 2.855-3.93 1.771-1.964 2.856-3.93 1.875-1.964 2.568-3.952 1.72-1.964 1.533-1.965 1.682-1.965 1.227-1.964 2.176-3.93 1.243-3.93 1.908-7.858 1.82-3.93 2.146-3.93 5.254-7.858 4.16-5.894 1.57-1.965 2.682-3.93 1.511-1.964 1.2-1.965 2.772-3.93 2.078-3.95 1.548-2.096 1.244-2.118 4.033-6.178 1.845-2.074 1.268-2.096h0" style="fill:none;stroke:#1f77b4;stroke-linecap:square;stroke-width:1.5" id="line2d_28"/></g></g><defs><clipPath id="p55fed6cbb9"><path d="M53.127 47.249h357.12v266.112H53.127z"/></clipPath></defs></svg>