<svg height="461.527" viewBox="0 0 655.168 346.145" width="873.557" xmlns="http://www.w3.org/2000/svg" xmlns:xlink="http://www.w3.org/1999/xlink"><defs><style>*{stroke-linecap:butt;stroke-linejoin:round}</style></defs><g id="figure_1"><path d="M0 346.145h655.168V0H0z" style="fill:none" id="patch_1"/><g id="axes_1"><path d="M82.476 302.618h357.12V36.506H82.476z" style="fill:none" id="patch_2"/><g id="matplotlib.axis_1"><g id="xtick_1"><g id="line2d_1"><defs><path d="M0 0v3.5" id="mb8d11a8b70" style="stroke:#969696;stroke-width:.4"/></defs><use style="fill:#969696;stroke:#969696;stroke-width:.4" x="128.538" xlink:href="#mb8d11a8b70" y="302.618"/></g><g style="fill:#969696" transform="matrix(.14 0 0 -.14 114.175 319.558)" id="text_1"><defs><path d="M2944 0v467H1075v13l333 307c877 845 1434 1466 1434 2234 0 595-378 1209-1274 1209-480 0-890-179-1178-422l180-397c192 160 505 352 883 352 621 0 825-390 825-813-6-627-486-1164-1548-2176L288 346V0h2656z" id="MyriadPro-Regular-32" transform="scale(.01563)"/><path d="M1677 4230c-845 0-1447-768-1447-2163C243 691 794-70 1606-70c922 0 1447 780 1447 2195 0 1325-499 2105-1376 2105zm-32-435c582 0 845-672 845-1696 0-1062-276-1734-852-1734-512 0-844 614-844 1696 0 1133 358 1734 851 1734z" id="MyriadPro-Regular-30" transform="scale(.01563)"/><path d="M1510 0h544v4160h-480l-908-486 108-429 724 390h12V0z" id="MyriadPro-Regular-31" transform="scale(.01563)"/></defs><use xlink:href="#MyriadPro-Regular-32"/><use x="51.3" xlink:href="#MyriadPro-Regular-30"/><use x="102.6" xlink:href="#MyriadPro-Regular-31"/><use x="153.9" xlink:href="#MyriadPro-Regular-30"/></g></g><g id="xtick_2"><use style="fill:#969696;stroke:#969696;stroke-width:.4" x="181.076" xlink:href="#mb8d11a8b70" y="302.618" id="line2d_2"/><g style="fill:#969696" transform="matrix(.14 0 0 -.14 166.713 319.558)" id="text_2"><use xlink:href="#MyriadPro-Regular-32"/><use x="51.3" xlink:href="#MyriadPro-Regular-30"/><use x="102.6" xlink:href="#MyriadPro-Regular-31"/><use x="153.9" xlink:href="#MyriadPro-Regular-32"/></g></g><g id="xtick_3"><use style="fill:#969696;stroke:#969696;stroke-width:.4" x="233.687" xlink:href="#mb8d11a8b70" y="302.618" id="line2d_3"/><g style="fill:#969696" transform="matrix(.14 0 0 -.14 219.324 319.558)" id="text_3"><defs><path d="M2560 0v1133h582v441h-582v2586h-608L96 1504v-371h1933V0h531zM666 1574v13l1017 1415c115 192 218 371 346 614h19c-13-218-19-435-19-653V1574H666z" id="MyriadPro-Regular-34" transform="scale(.01563)"/></defs><use xlink:href="#MyriadPro-Regular-32"/><use x="51.3" xlink:href="#MyriadPro-Regular-30"/><use x="102.6" xlink:href="#MyriadPro-Regular-31"/><use x="153.9" xlink:href="#MyriadPro-Regular-34"/></g></g><g id="xtick_4"><use style="fill:#969696;stroke:#969696;stroke-width:.4" x="286.226" xlink:href="#mb8d11a8b70" y="302.618" id="line2d_4"/><g style="fill:#969696" transform="matrix(.14 0 0 -.14 271.863 319.558)" id="text_4"><defs><path d="M2662 4224c-102 0-243-6-409-32-525-64-986-275-1331-614-410-410-704-1056-704-1876C218 621 800-70 1690-70c864 0 1382 704 1382 1465 0 813-518 1344-1254 1344-461 0-807-217-1005-480h-19c96 685 563 1331 1446 1479 160 25 307 32 422 25v461zM1690 365c-589 0-903 505-916 1190 0 103 26 186 64 250 154 301 468 512 807 512 518 0 857-359 857-954s-326-998-806-998h-6z" id="MyriadPro-Regular-36" transform="scale(.01563)"/></defs><use xlink:href="#MyriadPro-Regular-32"/><use x="51.3" xlink:href="#MyriadPro-Regular-30"/><use x="102.6" xlink:href="#MyriadPro-Regular-31"/><use x="153.9" xlink:href="#MyriadPro-Regular-36"/></g></g><g id="xtick_5"><use style="fill:#969696;stroke:#969696;stroke-width:.4" x="338.837" xlink:href="#mb8d11a8b70" y="302.618" id="line2d_5"/><g style="fill:#969696" transform="matrix(.14 0 0 -.14 324.474 319.558)" id="text_5"><defs><path d="M1062 2170c-512-218-825-589-825-1114C237 448 762-70 1632-70c794 0 1414 486 1414 1209 0 506-320 871-838 1075v20c512 243 685 620 685 972 0 519-403 1024-1210 1024-729 0-1286-448-1286-1107 0-358 198-717 659-934l6-19zm583-1831c-531 0-851 371-832 794 0 397 262 717 749 857 563-160 915-403 915-908 0-423-327-743-832-743zm6 3488c506 0 704-345 704-678 0-378-275-634-633-755-480 128-794 352-794 768 0 358 256 665 723 665z" id="MyriadPro-Regular-38" transform="scale(.01563)"/></defs><use xlink:href="#MyriadPro-Regular-32"/><use x="51.3" xlink:href="#MyriadPro-Regular-30"/><use x="102.6" xlink:href="#MyriadPro-Regular-31"/><use x="153.9" xlink:href="#MyriadPro-Regular-38"/></g></g><g id="xtick_6"><use style="fill:#969696;stroke:#969696;stroke-width:.4" x="391.376" xlink:href="#mb8d11a8b70" y="302.618" id="line2d_6"/><g style="fill:#969696" transform="matrix(.14 0 0 -.14 377.013 319.558)" id="text_6"><use xlink:href="#MyriadPro-Regular-32"/><use x="51.3" xlink:href="#MyriadPro-Regular-30"/><use x="102.6" xlink:href="#MyriadPro-Regular-32"/><use x="153.9" xlink:href="#MyriadPro-Regular-30"/></g></g></g><g id="matplotlib.axis_2"><g id="ytick_1"><path clip-path="url(#p27a4c50af9)" d="M82.476 302.618h357.12" style="fill:none;stroke:#969696;stroke-linecap:square;stroke-width:.3" id="line2d_7"/><g id="line2d_8"><defs><path d="M0 0h-3.5" id="m87c50524b7" style="stroke:#969696;stroke-width:.3"/></defs><use style="fill:#969696;stroke:#969696;stroke-width:.3" x="82.476" xlink:href="#m87c50524b7" y="302.618"/></g><use xlink:href="#MyriadPro-Regular-30" style="fill:#969696" transform="matrix(.14 0 0 -.14 68.295 307.588)" id="text_7"/></g><g id="ytick_2"><path clip-path="url(#p27a4c50af9)" d="M82.476 270.606h357.12" style="fill:none;stroke:#969696;stroke-linecap:square;stroke-width:.3" id="line2d_9"/><use style="fill:#969696;stroke:#969696;stroke-width:.3" x="82.476" xlink:href="#m87c50524b7" y="270.606" id="line2d_10"/><g style="fill:#969696" transform="matrix(.14 0 0 -.14 39.568 275.576)" id="text_8"><use xlink:href="#MyriadPro-Regular-31"/><use x="51.3" xlink:href="#MyriadPro-Regular-30"/><use x="102.6" xlink:href="#MyriadPro-Regular-30"/><use x="153.9" xlink:href="#MyriadPro-Regular-30"/><use x="205.2" xlink:href="#MyriadPro-Regular-30"/></g></g><g id="ytick_3"><path clip-path="url(#p27a4c50af9)" d="M82.476 238.594h357.12" style="fill:none;stroke:#969696;stroke-linecap:square;stroke-width:.3" id="line2d_11"/><use style="fill:#969696;stroke:#969696;stroke-width:.3" x="82.476" xlink:href="#m87c50524b7" y="238.594" id="line2d_12"/><g style="fill:#969696" transform="matrix(.14 0 0 -.14 39.568 243.564)" id="text_9"><use xlink:href="#MyriadPro-Regular-32"/><use x="51.3" xlink:href="#MyriadPro-Regular-30"/><use x="102.6" xlink:href="#MyriadPro-Regular-30"/><use x="153.9" xlink:href="#MyriadPro-Regular-30"/><use x="205.2" xlink:href="#MyriadPro-Regular-30"/></g></g><g id="ytick_4"><path clip-path="url(#p27a4c50af9)" d="M82.476 206.582h357.12" style="fill:none;stroke:#969696;stroke-linecap:square;stroke-width:.3" id="line2d_13"/><use style="fill:#969696;stroke:#969696;stroke-width:.3" x="82.476" xlink:href="#m87c50524b7" y="206.582" id="line2d_14"/><g style="fill:#969696" transform="matrix(.14 0 0 -.14 39.568 211.552)" id="text_10"><defs><path d="M269 211C474 77 883-70 1350-70c999 0 1517 582 1517 1248 0 582-416 966-928 1068v13c512 186 768 551 768 979 0 506-371 992-1190 992-448 0-871-160-1088-320l147-409c179 128 499 275 832 275 518 0 730-294 730-627 0-493-519-704-928-704H896v-423h314c544 0 1068-249 1075-832 6-345-218-806-941-806-390 0-762 160-922 262L269 211z" id="MyriadPro-Regular-33" transform="scale(.01563)"/></defs><use xlink:href="#MyriadPro-Regular-33"/><use x="51.3" xlink:href="#MyriadPro-Regular-30"/><use x="102.6" xlink:href="#MyriadPro-Regular-30"/><use x="153.9" xlink:href="#MyriadPro-Regular-30"/><use x="205.2" xlink:href="#MyriadPro-Regular-30"/></g></g><g id="ytick_5"><path clip-path="url(#p27a4c50af9)" d="M82.476 174.57h357.12" style="fill:none;stroke:#969696;stroke-linecap:square;stroke-width:.3" id="line2d_15"/><use style="fill:#969696;stroke:#969696;stroke-width:.3" x="82.476" xlink:href="#m87c50524b7" y="174.57" id="line2d_16"/><g style="fill:#969696" transform="matrix(.14 0 0 -.14 39.568 179.54)" id="text_11"><use xlink:href="#MyriadPro-Regular-34"/><use x="51.3" xlink:href="#MyriadPro-Regular-30"/><use x="102.6" xlink:href="#MyriadPro-Regular-30"/><use x="153.9" xlink:href="#MyriadPro-Regular-30"/><use x="205.2" xlink:href="#MyriadPro-Regular-30"/></g></g><g id="ytick_6"><path clip-path="url(#p27a4c50af9)" d="M82.476 142.559h357.12" style="fill:none;stroke:#969696;stroke-linecap:square;stroke-width:.3" id="line2d_17"/><use style="fill:#969696;stroke:#969696;stroke-width:.3" x="82.476" xlink:href="#m87c50524b7" y="142.559" id="line2d_18"/><g style="fill:#969696" transform="matrix(.14 0 0 -.14 39.568 147.529)" id="text_12"><defs><path d="M2771 4160H781L512 2163c154 19 339 45 576 45 832 0 1190-384 1197-922 0-556-455-902-986-902-377 0-717 128-889 230L269 186C467 58 851-70 1306-70c902 0 1548 608 1548 1420 0 525-268 884-595 1069-256 154-576 224-896 224-153 0-243-13-339-25l160 1068h1587v474z" id="MyriadPro-Regular-35" transform="scale(.01563)"/></defs><use xlink:href="#MyriadPro-Regular-35"/><use x="51.3" xlink:href="#MyriadPro-Regular-30"/><use x="102.6" xlink:href="#MyriadPro-Regular-30"/><use x="153.9" xlink:href="#MyriadPro-Regular-30"/><use x="205.2" xlink:href="#MyriadPro-Regular-30"/></g></g><g id="ytick_7"><path clip-path="url(#p27a4c50af9)" d="M82.476 110.547h357.12" style="fill:none;stroke:#969696;stroke-linecap:square;stroke-width:.3" id="line2d_19"/><use style="fill:#969696;stroke:#969696;stroke-width:.3" x="82.476" xlink:href="#m87c50524b7" y="110.547" id="line2d_20"/><g style="fill:#969696" transform="matrix(.14 0 0 -.14 39.568 115.517)" id="text_13"><use xlink:href="#MyriadPro-Regular-36"/><use x="51.3" xlink:href="#MyriadPro-Regular-30"/><use x="102.6" xlink:href="#MyriadPro-Regular-30"/><use x="153.9" xlink:href="#MyriadPro-Regular-30"/><use x="205.2" xlink:href="#MyriadPro-Regular-30"/></g></g><g id="ytick_8"><path clip-path="url(#p27a4c50af9)" d="M82.476 78.535h357.12" style="fill:none;stroke:#969696;stroke-linecap:square;stroke-width:.3" id="line2d_21"/><use style="fill:#969696;stroke:#969696;stroke-width:.3" x="82.476" xlink:href="#m87c50524b7" y="78.535" id="line2d_22"/><g style="fill:#969696" transform="matrix(.14 0 0 -.14 39.568 83.505)" id="text_14"><defs><path d="M365 4160v-467h2035v-13L595 0h583l1811 3789v371H365z" id="MyriadPro-Regular-37" transform="scale(.01563)"/></defs><use xlink:href="#MyriadPro-Regular-37"/><use x="51.3" xlink:href="#MyriadPro-Regular-30"/><use x="102.6" xlink:href="#MyriadPro-Regular-30"/><use x="153.9" xlink:href="#MyriadPro-Regular-30"/><use x="205.2" xlink:href="#MyriadPro-Regular-30"/></g></g><g id="ytick_9"><path clip-path="url(#p27a4c50af9)" d="M82.476 46.523h357.12" style="fill:none;stroke:#969696;stroke-linecap:square;stroke-width:.3" id="line2d_23"/><use style="fill:#969696;stroke:#969696;stroke-width:.3" x="82.476" xlink:href="#m87c50524b7" y="46.523" id="line2d_24"/><g style="fill:#969696" transform="matrix(.14 0 0 -.14 39.568 51.493)" id="text_15"><use xlink:href="#MyriadPro-Regular-38"/><use x="51.3" xlink:href="#MyriadPro-Regular-30"/><use x="102.6" xlink:href="#MyriadPro-Regular-30"/><use x="153.9" xlink:href="#MyriadPro-Regular-30"/><use x="205.2" xlink:href="#MyriadPro-Regular-30"/></g></g><g style="fill:#969696" transform="matrix(.14 0 0 -.14 7.2 17.14)" id="text_16"><defs><path d="M3770 2266H2349v-448h877V531c-128-64-378-115-743-115-1005 0-1664 646-1664 1741 0 1081 685 1734 1735 1734 435 0 723-83 953-185l135 454c-186 90-576 198-1076 198-1446 0-2329-940-2336-2227 0-672 231-1248 602-1606 422-403 960-570 1613-570 582 0 1075 147 1325 237v2074z" id="MyriadPro-Regular-47" transform="scale(.01563)"/><path d="M1030 0v3098H467V0h563zM749 4320c-205 0-352-154-352-352 0-192 141-346 339-346 224 0 365 154 358 346 0 198-134 352-345 352z" id="MyriadPro-Regular-69" transform="scale(.01563)"/><path d="M595 3667v-569H115v-429h480V979c0-365 58-640 218-806C947 19 1158-70 1421-70c217 0 390 38 499 83l-26 422c-83-25-172-38-326-38-314 0-422 217-422 601v1671h806v429h-806v742l-551-173z" id="MyriadPro-Regular-74" transform="scale(.01563)"/><path d="M486 4314V0h557v2022h2087V0h563v4314h-563V2509H1043v1805H486z" id="MyriadPro-Regular-48" transform="scale(.01563)"/><path d="M3059 3098h-563V1197c0-103-19-205-51-288-103-250-365-512-743-512-512 0-691 397-691 985v1716H448V1286C448 198 1030-70 1517-70c550 0 877 326 1024 576h13l32-506h499c-19 243-26 525-26 845v2253z" id="MyriadPro-Regular-75" transform="scale(.01563)"/><path d="M467 800c0-275-13-589-25-800h486l26 512h19c230-410 589-582 1037-582 691 0 1388 550 1388 1657 7 941-537 1581-1305 1581-499 0-858-224-1056-570h-13v1946H467V800zm557 998c0 90 19 167 32 231 115 429 474 691 858 691 601 0 921-531 921-1152 0-710-352-1190-941-1190-409 0-736 268-844 659-13 64-26 134-26 205v556z" id="MyriadPro-Regular-62" transform="scale(.01563)"/><path d="M250 147C467 19 781-70 1120-70c736 0 1158 390 1158 934 0 461-275 730-812 934-404 154-589 269-589 525 0 231 185 423 518 423 288 0 512-103 634-180l141 410c-173 102-448 192-762 192-666 0-1069-410-1069-909 0-371 263-678 819-877 416-153 576-300 576-569 0-256-192-461-601-461-282 0-576 115-743 224L250 147z" id="MyriadPro-Regular-73" transform="scale(.01563)"/><path d="M2643 1901c0 621-230 1267-1177 1267-391 0-762-109-1018-275l128-371c218 140 518 230 806 230 634 0 704-461 704-717v-64C890 1978 224 1568 224 819c0-448 320-889 947-889 442 0 775 217 947 460h20l44-390h512c-38 211-51 474-51 742v1159zm-544-858c0-57-13-121-32-179-89-262-345-518-749-518-288 0-531 172-531 537 0 602 698 711 1312 698v-538z" id="MyriadPro-Regular-61" transform="scale(.01563)"/><path d="M467 0h557v1651c0 96 13 186 26 263 76 422 358 723 755 723 77 0 134-7 192-19v531c-51 13-96 19-160 19-378 0-717-262-858-678h-25l-20 608H442c19-288 25-602 25-967V0z" id="MyriadPro-Regular-72" transform="scale(.01563)"/></defs><use xlink:href="#MyriadPro-Regular-47"/><use x="64.6" xlink:href="#MyriadPro-Regular-69"/><use x="88" xlink:href="#MyriadPro-Regular-74"/><use x="121.1" xlink:href="#MyriadPro-Regular-48"/><use x="186.3" xlink:href="#MyriadPro-Regular-75"/><use x="241.4" xlink:href="#MyriadPro-Regular-62"/><use x="298.3" xlink:href="#MyriadPro-Regular-20"/><use x="319.5" xlink:href="#MyriadPro-Regular-73"/><use x="359.1" xlink:href="#MyriadPro-Regular-74"/><use x="392.2" xlink:href="#MyriadPro-Regular-61"/><use x="440.4" xlink:href="#MyriadPro-Regular-72"/><use x="473.1" xlink:href="#MyriadPro-Regular-73"/></g></g><path clip-path="url(#p27a4c50af9)" d="m137.174 302.618 2.231-2.657 8.78-.909 8.853-1.165 6.406-.768 15.401-1.732 19.792-1.44 13.027-.401 22.023-2.263 2.231-.39 4.247-.503 2.159-.333 4.39-.43 8.852-1.142 4.39-.506 4.247-.406 6.621-1.022 50.38-4.596 13.243-.99 8.636-.611 4.39-.327 11.012-.598 6.621-.464 21.88-1.162 6.62-.426 45.99-1.898h0" style="fill:none;stroke:#98df8a;stroke-linecap:square;stroke-width:1.5" id="line2d_25"/><path clip-path="url(#p27a4c50af9)" d="m174.455 302.618 2.231-.003h37.209l2.16-.003 2.23-.003h2.16l2.23-.01 2.232-.006 2.159-.013h2.231l2.16-.013 2.23-1.287 2.231-.086 2.016-.048 2.23-.042 2.16-.038 2.23-.084 2.16-.108 2.231-.042 2.231-.048 2.16-.035 2.23-.058 2.16-.035 2.23-.032 2.232-.039 2.015-.038 2.231-.035 2.16-.048 2.23-.016 2.16-.023 2.23-.041 2.232-.125 2.159-.352 2.23-.141 2.16-.144 2.231-.125 2.231-.17 2.087-.195 2.231-5.938 2.16-1.249 2.23-.672 2.16-.474 2.23-.438 2.232-.692 2.16-.454 2.23-.57 2.16-.832 2.23-.618 2.232-.986 2.015-.823 2.23-.88 2.16-.81 2.231-.925 2.16-.784 2.23-.785 2.231-.733 2.16-.608 2.23-.701 2.16-.717 2.23-.564 2.232-.822 2.015-.605 2.231-.631 2.16-.586 2.23-.618 2.16-.502 2.23-.503 2.232-.5 2.159-.598 2.231-.547 2.16-.605 2.23-.528 2.231-.548 2.016-.502 2.23-.5 2.16-.451 2.23-.372 2.16-.387 2.231-.48 2.231-.589 2.16-.765 2.23-.58 2.16-.332 2.23-.35 2.232-.345 2.087-.343 2.231-.355 2.16-.42 2.23-.448 2.16-.323 2.23-.346 2.232-.29 2.159-.324 2.23-.308 2.16-.22 2.231-.263 2.231-.26 2.015-.188 2.231-.291 2.16-.205 2.23-.253 2.16-.211 2.23-.224 2.232-.202 2.16-.221 2.23-.205" style="fill:none;stroke:#ffbb78;stroke-linecap:square;stroke-width:1.5" id="line2d_26"/><path clip-path="url(#p27a4c50af9)" d="m185.395 302.618 2.23-.09 2.16-.006h6.621l2.231-.003H205.187l2.23-.003h2.232l2.015-.596 2.231-3.3 2.16-1.018 2.23-.477 2.16-.906 2.23-1.143 2.232-.717 2.159-.842 2.231-.983 2.16-1.43 2.23-1.127 2.231-1.028 2.016-1.06 2.23-1.069 2.16-1.002 2.23-.912 2.16-.8 2.231-1.034 2.231-1.233 2.16-1.005 2.23-.986 2.16-1.155 2.23-.868 2.232-1.184 2.015-1.054 2.231-1.54 2.16-1.081 2.23-1.034 2.16-.887 2.23-.999 2.232-.931 2.159-1.124 2.23-1.021 2.16-.977 2.231-1.04 2.231-1.024 2.087-1.022 2.231-1.114 2.16-.944 2.23-.957 2.16-.807 2.23-.71 2.232-.791 2.16-.756 2.23-.778 2.16-.803 2.23-.75 2.232-.72 2.015-.7 2.23-.778 2.16-.605 2.231-.714 2.16-.612 2.23-.56 2.231-.54 2.16-.539 2.23-.445 2.16-.509 2.23-.486 2.232-.519 2.015-.454 2.231-.64 2.16-.935 2.23-.59 2.16-.601 2.23-.557 2.232-.484 2.159-.55 2.231-.493 2.16-.458 2.23-.426 2.231-.467 2.016-.39 2.23-.398 2.16-.425 2.23-.41 2.16-.266 2.231-.374 2.231-.301 2.16-.234 2.23-.317 2.16-.294 2.23-.27 2.232-.252 2.087-.272 2.231-.192 2.16-.266 2.23-.275 2.16-.276 2.23-.204 2.232-.209 2.159-.284 2.23-.273 2.16-.243 2.231-.278 2.231-.212 2.015-.179 2.231-.186 2.16-.172 2.23-.17 2.16-.138 2.23-.125 2.232-.166 2.16-.15 2.23-.183" style="fill:none;stroke:#aec7e8;stroke-linecap:square;stroke-width:1.5" id="line2d_27"/><g style="fill:#1f77b4" transform="matrix(.14 0 0 -.14 450.31 40)" id="text_17"><defs><path d="M467 0h563v1862c0 96 13 192 39 263 96 313 384 576 755 576 531 0 717-416 717-915V0h563v1850c0 1062-666 1318-1094 1318-512 0-871-288-1024-582h-13l-32 512H442c19-256 25-519 25-839V0z" id="MyriadPro-Regular-6e" transform="scale(.01563)"/><path d="M1779 3168c-857 0-1536-608-1536-1645C243 544 890-70 1728-70c749 0 1542 499 1542 1644 0 948-601 1594-1491 1594zm-13-422c666 0 928-666 928-1191 0-697-403-1203-940-1203-551 0-941 512-941 1190 0 589 288 1204 953 1204z" id="MyriadPro-Regular-6f" transform="scale(.01563)"/><path d="M2579 4544V2694h-13c-140 250-460 474-934 474-755 0-1395-634-1389-1664C243 563 819-70 1568-70c506 0 883 262 1056 608h13l25-538h506c-19 211-26 525-26 800v3744h-563zm0-3245c0-89-6-166-25-243-103-422-448-672-826-672-608 0-915 518-915 1146 0 684 345 1196 928 1196 422 0 729-294 813-652 19-71 25-167 25-237v-538z" id="MyriadPro-Regular-64" transform="scale(.01563)"/><path d="M2957 1446c6 58 19 148 19 263 0 569-269 1459-1280 1459-902 0-1453-736-1453-1670C243 563 813-70 1766-70c493 0 832 108 1031 198l-96 403c-211-89-455-160-858-160-563 0-1049 314-1062 1075h2176zM787 1850c45 390 295 915 864 915 634 0 787-557 781-915H787z" id="MyriadPro-Regular-65" transform="scale(.01563)"/><path d="M-230-1350c300 0 710 102 960 352 275 281 371 672 371 1273v2823H538V493c0-743-58-992-212-1165C192-819-32-890-288-909l58-441zM826 4320c-212 0-359-154-359-352 0-186 135-346 346-346 224 0 358 160 352 346 0 198-135 352-339 352z" id="MyriadPro-Regular-6a" transform="scale(.01563)"/><path d="m422-256 1792 4640h-435L-6-256h428z" id="MyriadPro-Regular-2f" transform="scale(.01563)"/></defs><use xlink:href="#MyriadPro-Regular-6e"/><use x="55.5" xlink:href="#MyriadPro-Regular-6f"/><use x="110.4" xlink:href="#MyriadPro-Regular-64"/><use x="166.8" xlink:href="#MyriadPro-Regular-65"/><use x="216.9" xlink:href="#MyriadPro-Regular-6a"/><use x="241.2" xlink:href="#MyriadPro-Regular-73"/><use x="280.8" xlink:href="#MyriadPro-Regular-2f"/><use x="315.1" xlink:href="#MyriadPro-Regular-6e"/><use x="370.6" xlink:href="#MyriadPro-Regular-6f"/><use x="425.5" xlink:href="#MyriadPro-Regular-64"/><use x="481.9" xlink:href="#MyriadPro-Regular-65"/></g><g style="fill:#ff7f0e" transform="matrix(.14 0 0 -.14 450.31 90.224)" id="text_18"><defs><path d="M467 0h563v4544H467V0z" id="MyriadPro-Regular-6c" transform="scale(.01563)"/><path d="M83 3098 1261 0h537l1216 3098h-588l-602-1741c-102-282-192-538-262-794h-20c-64 256-147 512-249 794L685 3098H83z" id="MyriadPro-Regular-76" transform="scale(.01563)"/></defs><use xlink:href="#MyriadPro-Regular-6c"/><use x="23.6" xlink:href="#MyriadPro-Regular-61"/><use x="71.8" xlink:href="#MyriadPro-Regular-72"/><use x="104.5" xlink:href="#MyriadPro-Regular-61"/><use x="152.7" xlink:href="#MyriadPro-Regular-76"/><use x="200.8" xlink:href="#MyriadPro-Regular-65"/><use x="250.9" xlink:href="#MyriadPro-Regular-6c"/><use x="274.5" xlink:href="#MyriadPro-Regular-2f"/><use x="308.8" xlink:href="#MyriadPro-Regular-6c"/><use x="332.4" xlink:href="#MyriadPro-Regular-61"/><use x="380.6" xlink:href="#MyriadPro-Regular-72"/><use x="413.3" xlink:href="#MyriadPro-Regular-61"/><use x="461.5" xlink:href="#MyriadPro-Regular-76"/><use x="509.6" xlink:href="#MyriadPro-Regular-65"/><use x="559.7" xlink:href="#MyriadPro-Regular-6c"/></g><g style="fill:#2ca02c" transform="matrix(.14 0 0 -.14 450.31 106.706)" id="text_19"><defs><path d="M3110 2246c0 378 13 628 26 852h-493l-25-468h-13c-135 256-429 538-967 538-710 0-1395-595-1395-1645C243 666 794 13 1562 13c480 0 812 230 985 518h13V186c0-781-422-1082-998-1082-384 0-704 115-909 243l-141-429c250-166 659-256 1030-256 391 0 826 90 1127 372 301 268 441 704 441 1414v1798zm-556-928c0-96-13-204-45-300-122-359-435-576-781-576-608 0-915 505-915 1113 0 717 384 1171 921 1171 410 0 685-268 788-595 25-77 32-160 32-256v-557z" id="MyriadPro-Regular-67" transform="scale(.01563)"/></defs><use xlink:href="#MyriadPro-Regular-64"/><use x="56.4" xlink:href="#MyriadPro-Regular-6a"/><use x="80.7" xlink:href="#MyriadPro-Regular-61"/><use x="128.9" xlink:href="#MyriadPro-Regular-6e"/><use x="184.4" xlink:href="#MyriadPro-Regular-67"/><use x="240.3" xlink:href="#MyriadPro-Regular-6f"/><use x="295.2" xlink:href="#MyriadPro-Regular-2f"/><use x="329.5" xlink:href="#MyriadPro-Regular-64"/><use x="385.9" xlink:href="#MyriadPro-Regular-6a"/><use x="410.2" xlink:href="#MyriadPro-Regular-61"/><use x="458.4" xlink:href="#MyriadPro-Regular-6e"/><use x="513.9" xlink:href="#MyriadPro-Regular-67"/><use x="569.8" xlink:href="#MyriadPro-Regular-6f"/></g><g style="fill:#d62728" transform="matrix(.14 0 0 -.14 450.31 120.873)" id="text_20"><defs><path d="M467-1267h557V416h13c185-307 544-486 953-486 730 0 1408 550 1408 1664 0 940-563 1574-1312 1574-505 0-870-224-1100-602h-13l-26 532H442c12-295 25-615 25-1012v-3353zm557 3059c0 77 19 160 38 230 109 423 468 698 852 698 595 0 921-531 921-1152 0-710-345-1197-941-1197-403 0-742 269-844 659-13 71-26 148-26 231v531z" id="MyriadPro-Regular-70" transform="scale(.01563)"/><path d="M1082 0v2669h748v429h-748v166c0 474 121 896 601 896 160 0 275-32 359-70l76 435c-108 45-281 89-480 89-262 0-544-83-755-288-262-249-358-646-358-1081v-147H90v-429h435V0h557z" id="MyriadPro-Regular-66" transform="scale(.01563)"/><path d="M1024 4544H467V0h557v1165l288 320L2381 0h685L1702 1824l1197 1274h-678l-909-1069c-90-109-198-243-275-352h-13v2867z" id="MyriadPro-Regular-6b" transform="scale(.01563)"/></defs><use xlink:href="#MyriadPro-Regular-70"/><use x="56.9" xlink:href="#MyriadPro-Regular-61"/><use x="105.1" xlink:href="#MyriadPro-Regular-6c"/><use x="128.7" xlink:href="#MyriadPro-Regular-6c"/><use x="152.3" xlink:href="#MyriadPro-Regular-65"/><use x="202.4" xlink:href="#MyriadPro-Regular-74"/><use x="235.5" xlink:href="#MyriadPro-Regular-73"/><use x="275.1" xlink:href="#MyriadPro-Regular-2f"/><use x="309.4" xlink:href="#MyriadPro-Regular-66"/><use x="338.6" xlink:href="#MyriadPro-Regular-6c"/><use x="362.2" xlink:href="#MyriadPro-Regular-61"/><use x="410.4" xlink:href="#MyriadPro-Regular-73"/><use x="450" xlink:href="#MyriadPro-Regular-6b"/></g><g style="fill:#9467bd" transform="matrix(.14 0 0 -.14 450.31 134.615)" id="text_21"><defs><path d="m102 3098 1050-1517L51 0h621l448 698c115 185 224 345 326 537h13c109-185 211-358 333-537L2246 0h640L1798 1600l1056 1498h-608l-435-660c-102-166-205-326-307-512h-19c-103 173-199 333-314 506l-441 666H102z" id="MyriadPro-Regular-78" transform="scale(.01563)"/></defs><use xlink:href="#MyriadPro-Regular-65"/><use x="50.1" xlink:href="#MyriadPro-Regular-78"/><use x="96.4" xlink:href="#MyriadPro-Regular-70"/><use x="153.3" xlink:href="#MyriadPro-Regular-72"/><use x="186" xlink:href="#MyriadPro-Regular-65"/><use x="236.1" xlink:href="#MyriadPro-Regular-73"/><use x="275.7" xlink:href="#MyriadPro-Regular-73"/><use x="315.3" xlink:href="#MyriadPro-Regular-6a"/><use x="339.6" xlink:href="#MyriadPro-Regular-73"/><use x="379.2" xlink:href="#MyriadPro-Regular-2f"/><use x="413.5" xlink:href="#MyriadPro-Regular-65"/><use x="463.6" xlink:href="#MyriadPro-Regular-78"/><use x="509.9" xlink:href="#MyriadPro-Regular-70"/><use x="566.8" xlink:href="#MyriadPro-Regular-72"/><use x="599.5" xlink:href="#MyriadPro-Regular-65"/><use x="649.6" xlink:href="#MyriadPro-Regular-73"/><use x="689.2" xlink:href="#MyriadPro-Regular-73"/></g><g style="fill:#8c564b" transform="matrix(.14 0 0 -.14 450.31 148.796)" id="text_22"><use xlink:href="#MyriadPro-Regular-72"/><use x="32.7" xlink:href="#MyriadPro-Regular-61"/><use x="80.9" xlink:href="#MyriadPro-Regular-69"/><use x="104.3" xlink:href="#MyriadPro-Regular-6c"/><use x="127.9" xlink:href="#MyriadPro-Regular-73"/><use x="167.5" xlink:href="#MyriadPro-Regular-2f"/><use x="201.8" xlink:href="#MyriadPro-Regular-72"/><use x="234.5" xlink:href="#MyriadPro-Regular-61"/><use x="282.7" xlink:href="#MyriadPro-Regular-69"/><use x="306.1" xlink:href="#MyriadPro-Regular-6c"/><use x="329.7" xlink:href="#MyriadPro-Regular-73"/></g><g style="fill:#e377c2" transform="matrix(.14 0 0 -.14 450.31 162.782)" id="text_23"><defs><path d="M192 1939v-416h1581v416H192z" id="MyriadPro-Regular-2d" transform="scale(.01563)"/><path d="M2579 538c-160-71-371-154-691-154-614 0-1075 442-1075 1158 0 647 384 1172 1094 1172 307 0 519-71 653-148l128 436c-154 76-448 160-781 160-1011 0-1664-692-1664-1645C243 570 851-70 1786-70c416 0 742 108 889 185l-96 423z" id="MyriadPro-Regular-63" transform="scale(.01563)"/><path d="M467 0h551v1869c0 96 12 192 44 275 90 282 346 563 698 563 429 0 646-358 646-851V0h551v1914c0 102 19 204 45 281 96 275 345 512 665 512 455 0 672-358 672-953V0h551v1824c0 1075-608 1344-1018 1344-294 0-499-77-685-218-128-96-249-230-345-403h-13c-135 365-455 621-877 621-512 0-800-275-973-570h-19l-26 500H442c19-256 25-519 25-839V0z" id="MyriadPro-Regular-6d" transform="scale(.01563)"/><path d="M115 3098 1050 0h512l499 1472c109 333 205 653 281 1024h13c77-365 167-672 275-1018L3104 0h512l998 3098h-556l-442-1556c-102-364-186-691-237-1004h-19c-70 313-160 640-275 1011l-480 1549h-474l-505-1575c-103-339-205-672-276-985h-19c-57 320-141 640-230 985L691 3098H115z" id="MyriadPro-Regular-77" transform="scale(.01563)"/></defs><use xlink:href="#MyriadPro-Regular-73"/><use x="39.6" xlink:href="#MyriadPro-Regular-70"/><use x="96.5" xlink:href="#MyriadPro-Regular-72"/><use x="129.2" xlink:href="#MyriadPro-Regular-69"/><use x="152.6" xlink:href="#MyriadPro-Regular-6e"/><use x="208.1" xlink:href="#MyriadPro-Regular-67"/><use x="264" xlink:href="#MyriadPro-Regular-2d"/><use x="294.7" xlink:href="#MyriadPro-Regular-70"/><use x="351.6" xlink:href="#MyriadPro-Regular-72"/><use x="384.3" xlink:href="#MyriadPro-Regular-6f"/><use x="439.2" xlink:href="#MyriadPro-Regular-6a"/><use x="463.5" xlink:href="#MyriadPro-Regular-65"/><use x="513.6" xlink:href="#MyriadPro-Regular-63"/><use x="558.4" xlink:href="#MyriadPro-Regular-74"/><use x="591.5" xlink:href="#MyriadPro-Regular-73"/><use x="631.1" xlink:href="#MyriadPro-Regular-2f"/><use x="665.4" xlink:href="#MyriadPro-Regular-73"/><use x="705" xlink:href="#MyriadPro-Regular-70"/><use x="761.9" xlink:href="#MyriadPro-Regular-72"/><use x="794.6" xlink:href="#MyriadPro-Regular-69"/><use x="818" xlink:href="#MyriadPro-Regular-6e"/><use x="873.5" xlink:href="#MyriadPro-Regular-67"/><use x="929.4" xlink:href="#MyriadPro-Regular-2d"/><use x="960.1" xlink:href="#MyriadPro-Regular-66"/><use x="989.3" xlink:href="#MyriadPro-Regular-72"/><use x="1022" xlink:href="#MyriadPro-Regular-61"/><use x="1070.2" xlink:href="#MyriadPro-Regular-6d"/><use x="1153.6" xlink:href="#MyriadPro-Regular-65"/><use x="1203.7" xlink:href="#MyriadPro-Regular-77"/><use x="1277.3" xlink:href="#MyriadPro-Regular-6f"/><use x="1332.2" xlink:href="#MyriadPro-Regular-72"/><use x="1364.9" xlink:href="#MyriadPro-Regular-6b"/></g><g style="fill:#7f7f7f" transform="matrix(.14 0 0 -.14 450.31 199.793)" id="text_24"><use xlink:href="#MyriadPro-Regular-6b"/><use x="46.9" xlink:href="#MyriadPro-Regular-6f"/><use x="101.8" xlink:href="#MyriadPro-Regular-61"/><use x="150" xlink:href="#MyriadPro-Regular-6a"/><use x="174.3" xlink:href="#MyriadPro-Regular-73"/><use x="213.9" xlink:href="#MyriadPro-Regular-2f"/><use x="248.2" xlink:href="#MyriadPro-Regular-6b"/><use x="295.1" xlink:href="#MyriadPro-Regular-6f"/><use x="350" xlink:href="#MyriadPro-Regular-61"/></g><g style="fill:#bcbd22" transform="matrix(.14 0 0 -.14 450.31 213.883)" id="text_25"><use xlink:href="#MyriadPro-Regular-64"/><use x="56.4" xlink:href="#MyriadPro-Regular-6f"/><use x="111.3" xlink:href="#MyriadPro-Regular-74"/><use x="144.4" xlink:href="#MyriadPro-Regular-6e"/><use x="199.9" xlink:href="#MyriadPro-Regular-65"/><use x="250" xlink:href="#MyriadPro-Regular-74"/><use x="283.1" xlink:href="#MyriadPro-Regular-2f"/><use x="317.4" xlink:href="#MyriadPro-Regular-61"/><use x="365.6" xlink:href="#MyriadPro-Regular-73"/><use x="405.2" xlink:href="#MyriadPro-Regular-70"/><use x="462.1" xlink:href="#MyriadPro-Regular-6e"/><use x="517.6" xlink:href="#MyriadPro-Regular-65"/><use x="567.7" xlink:href="#MyriadPro-Regular-74"/><use x="600.8" xlink:href="#MyriadPro-Regular-63"/><use x="645.6" xlink:href="#MyriadPro-Regular-6f"/><use x="700.5" xlink:href="#MyriadPro-Regular-72"/><use x="733.2" xlink:href="#MyriadPro-Regular-65"/></g><g style="fill:#17becf" transform="matrix(.14 0 0 -.14 450.31 227.8)" id="text_26"><defs><path d="M58 3098 1203 243c26-70 39-115 39-147s-20-77-45-134c-128-288-320-506-474-628-166-140-352-230-493-275l141-473c141 25 416 121 691 364 384 333 660 877 1063 1940l845 2208h-596l-614-1818c-77-224-141-461-198-646h-13c-51 185-128 428-199 633L672 3098H58z" id="MyriadPro-Regular-79" transform="scale(.01563)"/></defs><use xlink:href="#MyriadPro-Regular-73"/><use x="39.6" xlink:href="#MyriadPro-Regular-79"/><use x="86.7" xlink:href="#MyriadPro-Regular-6d"/><use x="170.1" xlink:href="#MyriadPro-Regular-66"/><use x="199.3" xlink:href="#MyriadPro-Regular-6f"/><use x="254.2" xlink:href="#MyriadPro-Regular-6e"/><use x="309.7" xlink:href="#MyriadPro-Regular-79"/><use x="356.8" xlink:href="#MyriadPro-Regular-2f"/><use x="391.1" xlink:href="#MyriadPro-Regular-73"/><use x="430.7" xlink:href="#MyriadPro-Regular-79"/><use x="477.8" xlink:href="#MyriadPro-Regular-6d"/><use x="561.2" xlink:href="#MyriadPro-Regular-66"/><use x="590.4" xlink:href="#MyriadPro-Regular-6f"/><use x="645.3" xlink:href="#MyriadPro-Regular-6e"/><use x="700.8" xlink:href="#MyriadPro-Regular-79"/></g><g style="fill:#aec7e8" transform="matrix(.14 0 0 -.14 450.31 241.723)" id="text_27"><defs><path d="M467 0h563v1869c0 109 7 192 39 269 102 307 390 563 755 563 531 0 717-423 717-922V0h563v1843c0 1069-666 1325-1082 1325-211 0-409-64-576-160-172-96-313-237-403-397h-13v1933H467V0z" id="MyriadPro-Regular-68" transform="scale(.01563)"/></defs><use xlink:href="#MyriadPro-Regular-62"/><use x="56.9" xlink:href="#MyriadPro-Regular-61"/><use x="105.1" xlink:href="#MyriadPro-Regular-6c"/><use x="128.7" xlink:href="#MyriadPro-Regular-64"/><use x="185.1" xlink:href="#MyriadPro-Regular-65"/><use x="235.2" xlink:href="#MyriadPro-Regular-72"/><use x="267.9" xlink:href="#MyriadPro-Regular-64"/><use x="324.3" xlink:href="#MyriadPro-Regular-61"/><use x="372.5" xlink:href="#MyriadPro-Regular-73"/><use x="412.1" xlink:href="#MyriadPro-Regular-68"/><use x="467.6" xlink:href="#MyriadPro-Regular-79"/><use x="514.7" xlink:href="#MyriadPro-Regular-2f"/><use x="549" xlink:href="#MyriadPro-Regular-73"/><use x="588.6" xlink:href="#MyriadPro-Regular-61"/><use x="636.8" xlink:href="#MyriadPro-Regular-69"/><use x="660.2" xlink:href="#MyriadPro-Regular-6c"/><use x="683.8" xlink:href="#MyriadPro-Regular-73"/></g><g style="fill:#ffbb78" transform="matrix(.14 0 0 -.14 450.31 262.303)" id="text_28"><use xlink:href="#MyriadPro-Regular-66"/><use x="29.2" xlink:href="#MyriadPro-Regular-65"/><use x="79.3" xlink:href="#MyriadPro-Regular-61"/><use x="127.5" xlink:href="#MyriadPro-Regular-74"/><use x="160.6" xlink:href="#MyriadPro-Regular-68"/><use x="216.1" xlink:href="#MyriadPro-Regular-65"/><use x="266.2" xlink:href="#MyriadPro-Regular-72"/><use x="298.9" xlink:href="#MyriadPro-Regular-73"/><use x="338.5" xlink:href="#MyriadPro-Regular-6a"/><use x="362.8" xlink:href="#MyriadPro-Regular-73"/><use x="402.4" xlink:href="#MyriadPro-Regular-2f"/><use x="436.7" xlink:href="#MyriadPro-Regular-66"/><use x="465.9" xlink:href="#MyriadPro-Regular-65"/><use x="516" xlink:href="#MyriadPro-Regular-61"/><use x="564.2" xlink:href="#MyriadPro-Regular-74"/><use x="597.3" xlink:href="#MyriadPro-Regular-68"/><use x="652.8" xlink:href="#MyriadPro-Regular-65"/><use x="702.9" xlink:href="#MyriadPro-Regular-72"/><use x="735.6" xlink:href="#MyriadPro-Regular-73"/></g><g style="fill:#98df8a" transform="matrix(.14 0 0 -.14 450.31 279.063)" id="text_29"><use xlink:href="#MyriadPro-Regular-63"/><use x="44.8" xlink:href="#MyriadPro-Regular-61"/><use x="93" xlink:href="#MyriadPro-Regular-6b"/><use x="139.9" xlink:href="#MyriadPro-Regular-65"/><use x="190" xlink:href="#MyriadPro-Regular-70"/><use x="246.9" xlink:href="#MyriadPro-Regular-68"/><use x="302.4" xlink:href="#MyriadPro-Regular-70"/><use x="359.3" xlink:href="#MyriadPro-Regular-2f"/><use x="393.6" xlink:href="#MyriadPro-Regular-63"/><use x="438.4" xlink:href="#MyriadPro-Regular-61"/><use x="486.6" xlink:href="#MyriadPro-Regular-6b"/><use x="533.5" xlink:href="#MyriadPro-Regular-65"/><use x="583.6" xlink:href="#MyriadPro-Regular-70"/><use x="640.5" xlink:href="#MyriadPro-Regular-68"/><use x="696" xlink:href="#MyriadPro-Regular-70"/></g><g style="fill:#969696" transform="matrix(.09716 0 0 -.09716 82.476 336.516)" id="text_30"><defs><path d="M2714 1357 3174 0h596L2298 4314h-672L160 0h576l448 1357h1530zm-1415 435 423 1248c83 262 153 525 217 781h13c64-250 128-506 224-787l422-1242H1299z" id="MyriadPro-Regular-41" transform="scale(.01563)"/><path d="M486 0h557v1728c128-32 282-38 448-38 544 0 1024 160 1319 473 217 224 332 531 332 922 0 384-140 697-377 902-256 231-659 359-1210 359-448 0-800-39-1069-84V0zm557 3859c96 26 282 45 525 45 614 0 1018-275 1018-845 0-595-410-921-1082-921-186 0-339 12-461 44v1677z" id="MyriadPro-Regular-50" transform="scale(.01563)"/><path d="M486 4314V0h557v4314H486z" id="MyriadPro-Regular-49" transform="scale(.01563)"/><path d="M550 4800v-6400h429v6400H550z" id="MyriadPro-Regular-7c" transform="scale(.01563)"/><path d="M1011 0v1843c0 717-13 1235-45 1779l20 7c217-467 505-960 806-1440L3162 0h563v4314h-525V2509c0-672 13-1197 64-1773l-13-6c-205 441-454 896-774 1401L1094 4314H486V0h525z" id="MyriadPro-Regular-4e" transform="scale(.01563)"/><path d="M269 211C499 58 954-70 1370-70c1017 0 1510 582 1510 1248 0 633-371 985-1101 1267-595 230-857 429-857 832 0 294 224 646 812 646 391 0 679-128 820-205l153 455c-192 109-512 211-953 211-839 0-1396-499-1396-1171 0-608 436-973 1140-1223 582-224 812-454 812-857 0-435-332-736-902-736-384 0-749 128-998 281L269 211z" id="MyriadPro-Regular-53" transform="scale(.01563)"/><path d="M1165 3648c185 0 313 154 313 326 0 186-134 327-313 327s-327-147-327-327c0-172 135-326 320-326h7zm1184 0c185 0 313 154 313 326 0 186-134 327-313 327s-320-147-320-327c0-172 128-326 313-326h7zm-570-480c-857 0-1536-608-1536-1645C243 544 890-70 1728-70c749 0 1542 499 1542 1644 0 948-601 1594-1491 1594zm-13-422c666 0 928-666 928-1191 0-697-403-1203-940-1203-551 0-941 512-941 1190 0 589 288 1204 953 1204z" id="MyriadPro-Regular-f6" transform="scale(.01563)"/><path d="M3386 582c-224-108-570-179-909-179-1050 0-1658 679-1658 1735 0 1132 672 1779 1683 1779 359 0 660-77 871-179l134 454c-147 77-486 192-1024 192-1337 0-2253-915-2253-2266C230 704 1146-70 2362-70c524 0 934 108 1139 211l-115 441z" id="MyriadPro-Regular-43" transform="scale(.01563)"/><path d="M486 13c186-26 480-51 864-51 704 0 1191 128 1492 403 217 211 364 493 364 864 0 640-480 979-889 1081v13c454 167 729 531 729 947 0 340-134 596-358 762-269 218-627 314-1184 314-390 0-774-39-1018-90V13zm557 3865c90 20 237 39 493 39 563 0 947-199 947-704 0-416-345-723-934-723h-506v1388zm0-1811h461c608 0 1114-243 1114-832 0-627-532-838-1108-838-198 0-358 6-467 25v1645z" id="MyriadPro-Regular-42" transform="scale(.01563)"/><path d="M2010 0v1837l1446 2477h-634l-620-1191c-167-326-314-608-436-889h-12c-135 300-263 563-429 889L717 4314H83l1363-2484V0h564z" id="MyriadPro-Regular-59" transform="scale(.01563)"/></defs><use xlink:href="#MyriadPro-Regular-47"/><use x="64.6" xlink:href="#MyriadPro-Regular-69"/><use x="88" xlink:href="#MyriadPro-Regular-74"/><use x="121.1" xlink:href="#MyriadPro-Regular-48"/><use x="186.3" xlink:href="#MyriadPro-Regular-75"/><use x="241.4" xlink:href="#MyriadPro-Regular-62"/><use x="298.3" xlink:href="#MyriadPro-Regular-20"/><use x="319.5" xlink:href="#MyriadPro-Regular-41"/><use x="380.7" xlink:href="#MyriadPro-Regular-50"/><use x="433.9" xlink:href="#MyriadPro-Regular-49"/><use x="457.8" xlink:href="#MyriadPro-Regular-20"/><use x="479" xlink:href="#MyriadPro-Regular-76"/><use x="527.1" xlink:href="#MyriadPro-Regular-69"/><use x="550.5" xlink:href="#MyriadPro-Regular-61"/><use x="598.7" xlink:href="#MyriadPro-Regular-20"/><use x="619.9" xlink:href="#MyriadPro-Regular-73"/><use x="659.5" xlink:href="#MyriadPro-Regular-74"/><use x="692.6" xlink:href="#MyriadPro-Regular-61"/><use x="740.8" xlink:href="#MyriadPro-Regular-72"/><use x="773.5" xlink:href="#MyriadPro-Regular-67"/><use x="829.4" xlink:href="#MyriadPro-Regular-72"/><use x="862.1" xlink:href="#MyriadPro-Regular-61"/><use x="910.3" xlink:href="#MyriadPro-Regular-70"/><use x="967.2" xlink:href="#MyriadPro-Regular-68"/><use x="1022.7" xlink:href="#MyriadPro-Regular-20"/><use x="1043.9" xlink:href="#MyriadPro-Regular-7c"/><use x="1067.8" xlink:href="#MyriadPro-Regular-20"/><use x="1089" xlink:href="#MyriadPro-Regular-4e"/><use x="1154.8" xlink:href="#MyriadPro-Regular-69"/><use x="1178.2" xlink:href="#MyriadPro-Regular-63"/><use x="1223" xlink:href="#MyriadPro-Regular-6f"/><use x="1277.9" xlink:href="#MyriadPro-Regular-20"/><use x="1299.1" xlink:href="#MyriadPro-Regular-53"/><use x="1348.4" xlink:href="#MyriadPro-Regular-63"/><use x="1393.2" xlink:href="#MyriadPro-Regular-68"/><use x="1448.7" xlink:href="#MyriadPro-Regular-6c"/><use x="1472.3" xlink:href="#MyriadPro-Regular-f6"/><use x="1527.2" xlink:href="#MyriadPro-Regular-6d"/><use x="1610.6" xlink:href="#MyriadPro-Regular-65"/><use x="1660.7" xlink:href="#MyriadPro-Regular-72"/><use x="1693.4" xlink:href="#MyriadPro-Regular-20"/><use x="1714.6" xlink:href="#MyriadPro-Regular-7c"/><use x="1738.5" xlink:href="#MyriadPro-Regular-20"/><use x="1759.7" xlink:href="#MyriadPro-Regular-43"/><use x="1817.7" xlink:href="#MyriadPro-Regular-43"/><use x="1875.7" xlink:href="#MyriadPro-Regular-20"/><use x="1896.9" xlink:href="#MyriadPro-Regular-42"/><use x="1951.1" xlink:href="#MyriadPro-Regular-59"/></g><path clip-path="url(#p27a4c50af9)" d="m128.538 302.618 2.23-3.12 2.016-.497 8.78-1.46 15.474-3.031 2.015-.519 2.231-.72 8.78-2.004 8.781-1.582 4.463-.675 6.477-.976 6.621-.804 11.012-.442 2.231-.057 2.015-.224 4.39-.983 17.633-3.054 2.231-.637 2.016-.43 2.23-.835 2.16-.486 4.39-.724 11.012-2.397 6.477-1.498 19.792-4.911 2.231-.637 4.318-1.402 8.78-2.334 4.463-1.018 2.16-.618 4.39-1.03 4.462-1.252 8.636-2.792 4.39-1.158 2.231-.442 4.39-1.342 2.16-.787 2.23-1.316 6.478-3.281 6.55-2.747 4.462-1.706 2.159-.909 2.231-.65 2.16-.986 2.23-.752 6.478-2.964 2.159-1.012 4.39-1.613 6.621-2.337 6.622-2.69 6.55-1.914 4.39-1.213 2.158-.919 6.622-1.597 10.867-2.814 2.231-.518 4.39-2.142 4.39-1.005 6.622-1.501h0" style="fill:none;stroke:#17becf;stroke-linecap:square;stroke-width:1.5" id="line2d_28"/><path clip-path="url(#p27a4c50af9)" d="m240.165 302.618 2.159-.003 2.23-1.479 2.16-.346 2.231-.185 2.231-.19 2.16-.249 2.23-.246 2.16-1.515 2.23-.483 2.232-.464 2.015-.708 2.231-.675 2.16-.74 2.23-.803 2.16-.403 2.23-.586 2.232-.404 2.159-.441 2.23-.461 2.16-.567 2.231-.5 2.231-.54 2.087-.455 2.231-.509 2.16-.429 2.23-.496 2.16-.493 2.23-.438 2.232-.237 2.16-.314 2.23-.317 2.16-.314 2.23-.297 2.232-.295 2.015-.326 2.23-.362 2.16-.298 2.231-.39 2.16-.257 2.23-.29 2.231-.295 2.16-.276 2.23-.243 2.16-.266 2.23-.3 2.232-.295 2.015-.272 2.231-.285 2.16-.26 2.23-.339 2.16-.333 2.23-.323 2.232-.262 2.159-.231 2.231-.63 2.16-1.035 2.23-1.744 2.231-2.468 2.016-1.761 2.23-2.28 2.16-2.086 2.23-2.05 2.16-1.536 2.231-1.892 2.231-1.63 2.16-1.385 2.23-1.345 2.16-1.668 2.23-1.52 2.232-1.319 2.087-1.421 2.231-1.69 2.16-1.515 2.23-1.796 2.16-1.398 2.23-1.508 2.232-1.425 2.159-1.293 2.23-1.316 2.16-1.376 2.231-1.22 2.231-1.2 2.015-1.418 2.231-1.31 2.16-1.331 2.23-8.244 2.16-1.12 2.23-1.39 2.232-1.635 2.16-.999 2.23-1.043" style="fill:none;stroke:#bcbd22;stroke-linecap:square;stroke-width:1.5" id="line2d_29"/><path clip-path="url(#p27a4c50af9)" d="m220.445 302.618 2.23-.006 2.232-.375 2.159-.147 2.231-.048 2.16-.166 2.23-5.52 2.231-1.465 2.016-.711 2.23-.896 2.16-.935 2.23-.621 2.16-.42 2.231-.906 2.231-.547 2.16-.528 2.23-.522 2.16-.839 2.23-.624 2.232-.522 2.015-.54 2.231-.574 2.16-.685 2.23-.685 2.16-.627 2.23-.672 2.232-.833 2.159-.685 2.23-.992 2.16-.983 2.231-.95 2.231-1.726 2.087-1.172 2.231-1.322 2.16-1.261 2.23-1.329 2.16-1.062 2.23-1.102 2.232-1.408 2.16-1.3 2.23-1.19 2.16-1.21 2.23-1.288 2.232-1.26 2.015-1.563 2.23-1.905 2.16-1.51 2.231-1.483 2.16-1.501 2.23-1.354 2.231-1.601 2.16-1.447 2.23-1.412 2.16-1.546 2.23-1.514 2.232-1.684 2.015-1.184 2.231-1.867 2.16-1.687 2.23-1.658 2.16-1.418 2.23-1.434 2.232-1.501 2.159-1.54 2.231-1.297 2.16-1.335 2.23-1.26 2.231-1.323 2.016-1.044 2.23-1.322 2.16-1.303 2.23-1.165 2.16-.902 2.231-1.313 2.231-1.044 2.16-.925 2.23-.86 2.16-.93 2.23-.873 2.232-.65 2.087-.675 2.231-.743 2.16-.836 2.23-.966 2.16-.762 2.23-.65 2.232-.63 2.159-.59 2.23-.624 2.16-.682 2.231-.608 2.231-.64 2.015-.541 2.231-.647 2.16-.599 2.23-.553 2.16-.586 2.23-.5 2.232-.585 2.16-.493 2.23-.522" style="fill:none;stroke:#7f7f7f;stroke-linecap:square;stroke-width:1.5" id="line2d_30"/><path clip-path="url(#p27a4c50af9)" d="m152.576 302.618 2.231-1.46 10.868-.53 17.633-.996 6.477-.477 8.852-.426 13.027-.333 6.621-.724 4.39-.445 4.39-.659 30.66-6.655 6.478-1.556 17.633-5.19 8.708-3.085 2.231-1.181 8.78-4.117 2.232-1.345 2.16-1.152 2.23-1.047 4.39-2.436 4.247-2.423 2.23-1.96 4.391-3.255 2.16-1.54 8.852-7.302 2.159-1.764 2.23-1.632 2.232-1.866 2.015-1.374 2.231-2.458 4.39-4.22 4.39-3.937 2.232-2.158 2.159-1.875 2.231-1.755 4.39-4.264 4.247-4.02 2.23-2.843 2.16-3.128 4.39-5.25 2.231-2.714 4.39-4.85 6.622-6.466 4.318-3.291 4.39-4.251 2.231-2.385 4.39-4.101 4.39-3.473 2.232-1.492 6.621-4.968 2.015-1.326 2.231-1.635 2.16-1.806 4.39-2.926 6.621-4.325 2.231-1.325h0" style="fill:none;stroke:#e377c2;stroke-linecap:square;stroke-width:1.5" id="line2d_31"/><path clip-path="url(#p27a4c50af9)" d="m82.476 302.618 2.16-31.144h72.402l2.015-.602 4.39-2.09 6.622-2.862 11.011-3.947 4.319-1.518 4.39-1.507 6.621-1.601 4.39-.519 8.853-.55 2.015-.692 4.39-2.23 8.853-3.76 2.159-.85 4.39-1.537 4.462-1.626 4.247-1.985 2.159-1.233 6.621-3.025 4.39-2.32 2.231-1.054 2.16-1.383 4.462-2.145 4.246-2.35 4.39-2.64 2.16-1.258 2.23-1.169 2.232-1.405 2.159-1.092 2.23-1.283 2.16-1.089 2.231-1.27 2.231-1.53 2.087-1.579 11.012-7.398 2.231-1.37 8.78-4.562 2.232-1.203 4.246-2.795 11.011-6.111 2.16-1.024 10.867-5.987 4.39-2.442 13.243-6.77 4.39-1.758 13.027-6.607 4.462-1.985 4.39-1.684 13.1-4.386 4.39-1.757 4.462-1.614 2.159-.985 2.23-.76 4.391-1.974 4.246-1.643 2.231-1.446 4.39-1.643 6.622-2.122 4.39-1.661h0" style="fill:none;stroke:#8c564b;stroke-linecap:square;stroke-width:1.5" id="line2d_32"/><path clip-path="url(#p27a4c50af9)" d="m113.136 302.618 2.159-5.541 6.621-1.024 4.39-.798 4.463-.89 4.246-1.062 4.39-.977 15.402-3.892 2.231-.621 6.406-2.068 11.011-2.92 6.621-1.283 4.319-.685 4.39-.75 2.231-.316 6.621-.529 6.55-.339 4.462-.125 2.015-.515 2.231-.954 4.39-1.553 2.16-.678 4.462-1.723 6.55-2.43 2.23-1.056 4.247-2.365 2.23-1.569 2.16-1.735 2.23-1.332 2.16-1.101 2.231-1.482 2.231-1.23 2.16-1.027 8.852-4.901 2.015-1.143 22.023-14.392 2.231-1.723 6.478-6.15 2.23-1.961 6.622-5.34 4.39-3.09 2.16-1.837 2.23-1.568 2.232-1.77 4.246-3.922 6.55-5.48 6.62-5.058 4.39-3.762 2.232-1.687 6.477-5.39 2.16-1.957 4.39-3.332 2.23-1.527 4.391-3.224 2.231-1.46 2.16-1.712 2.23-1.482 10.868-8.211 4.39-2.875 2.231-1.447 4.39-2.48 8.709-5.35 2.231-1.434 4.39-3.21 4.39-2.616 4.39-3.038 8.853-5.205 8.637-5.64 11.011-6.352h0" style="fill:none;stroke:#9467bd;stroke-linecap:square;stroke-width:1.5" id="line2d_33"/><path clip-path="url(#p27a4c50af9)" d="m135.015 302.618 2.16-5.368 8.852-1.159 13.026-2.023 4.39-.71 15.402-2.078 17.561-1.633 13.243-.323 2.015-.647 13.243-5.666 4.39-1.45 6.621-2.222 6.406-3.083 13.242-5.707 2.16-.951 6.477-3.275 4.39-2.615 13.243-8.343 2.159-1.709 2.231-1.6 4.318-3.394 6.622-5.79 2.159-1.736 2.23-1.61 2.232-1.754 4.39-3.144 6.622-5.026 8.636-7.827 2.16-1.85 15.473-15.02 4.246-5.003 4.39-6.198 2.16-2.49 6.621-6.925 4.39-4.33 2.231-2.034 8.637-9.293 2.23-2.577 11.012-9.686 2.16-1.723 4.462-3.233 10.867-8.752 6.622-4.639 2.23-1.549 10.868-6.62 2.16-1.55 2.23-2.858 4.39-2.676 4.391-2.443 2.231-1.047h0" style="fill:none;stroke:#d62728;stroke-linecap:square;stroke-width:1.5" id="line2d_34"/><path clip-path="url(#p27a4c50af9)" d="m187.626 302.618 2.159-12.427 2.231-.32 2.16-.323 2.23-.352 2.231-.19 2.16-.127 2.23-.11 2.16-.114 2.23-.074 2.232-.086 2.015-.647 2.231-.964 2.16-.72 2.23-.867 2.16-.612 2.23-.675 2.232-.951 2.159-.826 2.231-.8 2.16-.762 2.23-.807 2.231-.842 2.016-.73 2.23-.982 2.16-1.082 2.23-1 2.16-.899 2.231-1.114 2.231-.999 2.16-.995 2.23-.964 2.16-1.18 2.23-1.099 2.232-1.095 2.015-.986 2.231-1.424 2.16-1.24 2.23-1.347 2.16-1.203 2.23-1.447 2.232-1.268 2.159-1.261 2.23-1.15 2.16-1.229 2.231-1.376 2.231-1.409 2.087-1.424 2.231-1.492 2.16-1.434 2.23-1.438 2.16-1.334 2.23-1.287 2.232-1.454 2.16-1.443 2.23-1.409 2.16-1.466 2.23-1.553 2.232-1.94 2.015-1.863 2.23-2.039 2.16-1.917 2.231-1.937 2.16-1.818 2.23-1.915 2.231-2.225 2.16-2.176 2.23-2.177 2.16-2.075 2.23-2.298 2.232-2.398 2.015-2.106 2.231-2.468 2.16-2.174 2.23-2.27 2.16-2.064 2.23-1.985 2.232-2.35 2.159-1.92 2.231-1.998 2.16-2.02 2.23-2.122 2.231-2.215 2.016-1.979 2.23-2.356 2.16-2.513 2.23-2.337 2.16-1.99 2.231-2.072 2.231-2.298 2.16-2.059 2.23-2.036 2.16-1.984 2.23-2.27 2.232-2.404 2.087-2.01 2.231-2.366 2.16-2.53 2.23-2.704 2.16-2.35 2.23-2.276 2.232-2.388 2.159-2.878 2.23-2.68 2.16-2.195 2.231-2.705 2.231-2.363 2.015-2.097 2.231-2.362 2.16-2.228 2.23-2.24 2.16-2.063 2.23-2.237 2.232-2.25 2.16-2.069 2.23-2.122" style="fill:none;stroke:#2ca02c;stroke-linecap:square;stroke-width:1.5" id="line2d_35"/><path clip-path="url(#p27a4c50af9)" d="m165.675 302.618 2.159-4.971 2.23-.237 2.232-.253 2.16-.198 2.23-.16 2.16-.199 2.23-.176 2.232-.205 2.087-.211 2.23-.183 2.16-.131 2.231-.15 2.16-.17 2.23-.16 2.231-.058 2.16-.057 2.23-.045 2.16-.067 2.23-.03 2.232-.038 2.015-.48 2.231-.87 2.16-1.467 2.23-1.27 2.16-1.047 2.23-1.156 2.232-.954 2.159-1.533 2.231-1.214 2.16-1.104 2.23-1.242 2.231-1.79 2.016-1.155 2.23-1.72 2.16-1.408 2.23-1.523 2.16-1.14 2.231-1.293 2.231-1.678 2.16-1.639 2.23-1.776 2.16-1.543 2.23-1.3 2.232-1.476 2.015-1.866 2.231-2.087 2.16-1.675 2.23-1.53 2.16-1.626 2.23-1.52 2.232-2.158 2.159-1.633 2.23-1.604 2.16-2.09 2.231-1.997 2.231-1.752 2.087-1.597 2.231-1.735 2.16-1.578 2.23-1.793 2.16-1.712 2.23-2.059 2.232-2.474 2.16-2.056 2.23-2.039 2.16-2.023 2.23-2.298 2.232-2.558 2.015-2.475 2.23-3.278 2.16-2.282 2.231-2.132 2.16-2.068 2.23-2.391 2.231-2.574 2.16-2.308 2.23-2.049 2.16-2.113 2.23-2.11 2.232-4.593 2.015-5.826 2.231-3.877 2.16-2.737 2.23-2.59 2.16-2.218 2.23-2.215 2.232-2.343 2.159-2.405 2.231-2.58 2.16-2.41 2.23-2.193 2.231-2.58 2.016-4.821 2.23-2.926 2.16-2.625 2.23-2.481 2.16-2.046 2.231-2.263 2.231-2.308 2.16-2.686 2.23-1.924 2.16-1.802 2.23-1.783 2.232-1.661 2.087-1.662 2.231-2.183 2.16-1.988 2.23-1.837 2.16-1.739 2.23-2.465 2.232-1.78 2.159-2.548 2.23-1.885 2.16-1.825 2.231-1.776 2.231-1.742 2.015-1.44 2.231-1.848 2.16-1.61 2.23-1.722 2.16-1.45 2.23-1.428 2.232-1.319 2.16-1.684 2.23-1.437" style="fill:none;stroke:#ff7f0e;stroke-linecap:square;stroke-width:1.5" id="line2d_36"/><path clip-path="url(#p27a4c50af9)" d="m255.566 302.618 2.16-1.527 2.23-17.312 2.232-7.382 2.015-4.062 2.231-2.151 2.16-1.482 2.23-2.001 2.16-.75 2.23-.748 2.232-2.062 2.159-5.8 2.23-3.368 2.16-2.868 2.231-2.77 2.231-3.159 2.087-2.34 2.231-3.05 2.16-3.282 2.23-2.836 2.16-2.376 2.23-2.5 2.232-3.002 2.16-3.032 2.23-3.685 2.16-2.964 2.23-2.692 2.232-2.788 2.015-3.378 2.23-3.668 2.16-3.147 2.231-3.336 2.16-3.386 2.23-3.138 2.231-3.604 2.16-3.032 2.23-5.531 2.16-4.495 2.23-3.179 2.232-3.438 2.015-2.807 2.231-3.755 2.16-3.707 2.23-4.213 2.16-4.299 2.23-3.14 2.232-3.355 2.159-3.413 2.231-3.32 2.16-3.498 2.23-2.99 2.231-3.307 2.016-2.567 2.23-3.598 2.16-3.688 2.23-3.144 2.16-2.586 2.231-2.635 2.231-2.587 2.16-2.125 2.23-2.68 2.16-2.596 2.23-2.548 2.232-2.25 2.087-1.873 2.231-2.606 2.16-3.089 2.23-3.476 2.16-2.613 2.23-2.449 2.232-2.701 2.159-2.34 2.23-3.845 2.16-2.26 2.231-2.283 2.231-3.21 2.015-2.456 2.231-2.711 2.16-2.673 2.23-2.471 2.16-2.869 2.23-2.397 2.232-2.904 2.16-2.247 2.23-2.51" style="fill:none;stroke:#1f77b4;stroke-linecap:square;stroke-width:1.5" id="line2d_37"/></g></g><defs><clipPath id="p27a4c50af9"><path d="M82.476 36.506h357.12v266.112H82.476z"/></clipPath></defs></svg>