<svg height="475.311" viewBox="0 0 563.813 356.483" width="751.751" xmlns="http://www.w3.org/2000/svg" xmlns:xlink="http://www.w3.org/1999/xlink"><defs><style>*{stroke-linecap:butt;stroke-linejoin:round}</style></defs><g id="figure_1"><path d="M0 356.483h563.813V0H0z" style="fill:none" id="patch_1"/><g id="axes_1"><path d="M53.127 313.361h357.12V47.25H53.127z" style="fill:none" id="patch_2"/><path clip-path="url(#p8827909269)" d="m109.042 313.361 1.301-1.133 4.893-.106 21.93-.295 17.541-.118 3.544-.2 2.464-.307 4.658-.32 2.558-.625 1.804-.212 5.227-1.027 1.89-.212 4.643-.826 2.987-.413 17.058-3.73 1.306-.425 1.981-.413 2.531-.413 1.537-.413 8.03-1.664 1.16-.425 7.73-1.652 3.16-.826 2.86-.413 4.151-.838 8.157-1.853 1.642-.213 1.787-.413 6.467-.838 10.791-.92 3.818-.319 6.645-.507 6.417-.413 10.299-.744 8.76-.307 3.404-.248 7.51-.271 3.366-.2 5.156-.213 2.88-.154 12.207-.413 8.446-.318 16.457-.508 34.518-.732 12.968-.011h0" style="fill:none;stroke:#d62728;stroke-linecap:square;stroke-width:1.5" id="line2d_1"/><g id="matplotlib.axis_1"><g id="xtick_1"><g id="line2d_2"><defs><path d="M0 0v3.5" id="m912143c2bd" style="stroke:#969696;stroke-width:.4"/></defs><use style="fill:#969696;stroke:#969696;stroke-width:.4" x="54.705" xlink:href="#m912143c2bd" y="313.361"/></g><g style="fill:#969696" transform="matrix(.14 0 0 -.14 39.134 330.41)" id="text_1"><defs><path d="M281 2888q0 793 409 1202 410 410 1148 410 618 0 1012-375t394-969q0-462-227-780-226-317-667-557l-775-425q-684-375-775-863h2444V0H166q25 634 275 1056t781 728l806 469q322 185 469 383t147 545q0 344-241 578-240 235-650 235-453 0-678-299-225-298-231-807H281z" id="HelveticaWorld-Regular-32" transform="scale(.01563)"/><path d="M2719 2188q0 903-239 1354-239 452-702 452-453 0-697-452-243-451-243-1354 0-875 240-1340 241-464 700-464 463 0 702 448 239 449 239 1356zm603 0q0-1107-400-1709-400-601-1144-601-772 0-1156 623-384 624-384 1687 0 1090 393 1701 394 611 1147 611 744 0 1144-608t400-1704z" id="HelveticaWorld-Regular-30" transform="scale(.01563)"/><path d="M2297 0h-600v3194H647v447q550 18 818 176 269 158 391 683h441V0z" id="HelveticaWorld-Regular-31" transform="scale(.01563)"/></defs><use xlink:href="#HelveticaWorld-Regular-32"/><use x="55.615" xlink:href="#HelveticaWorld-Regular-30"/><use x="111.23" xlink:href="#HelveticaWorld-Regular-31"/><use x="166.846" xlink:href="#HelveticaWorld-Regular-30"/></g></g><g id="xtick_2"><use style="fill:#969696;stroke:#969696;stroke-width:.4" x="118.26" xlink:href="#m912143c2bd" y="313.361" id="line2d_3"/><g style="fill:#969696" transform="matrix(.14 0 0 -.14 102.69 330.41)" id="text_2"><use xlink:href="#HelveticaWorld-Regular-32"/><use x="55.615" xlink:href="#HelveticaWorld-Regular-30"/><use x="111.23" xlink:href="#HelveticaWorld-Regular-31"/><use x="166.846" xlink:href="#HelveticaWorld-Regular-32"/></g></g><g id="xtick_3"><use style="fill:#969696;stroke:#969696;stroke-width:.4" x="181.903" xlink:href="#m912143c2bd" y="313.361" id="line2d_4"/><g style="fill:#969696" transform="matrix(.14 0 0 -.14 166.332 330.41)" id="text_3"><defs><path d="M678 1581h1447v2041h-12L678 1581zm2010-487V0h-563v1094H159v550l2063 2856h466V1581h659v-487h-659z" id="HelveticaWorld-Regular-34" transform="scale(.01563)"/></defs><use xlink:href="#HelveticaWorld-Regular-32"/><use x="55.615" xlink:href="#HelveticaWorld-Regular-30"/><use x="111.23" xlink:href="#HelveticaWorld-Regular-31"/><use x="166.846" xlink:href="#HelveticaWorld-Regular-34"/></g></g><g id="xtick_4"><use style="fill:#969696;stroke:#969696;stroke-width:.4" x="245.459" xlink:href="#m912143c2bd" y="313.361" id="line2d_5"/><g style="fill:#969696" transform="matrix(.14 0 0 -.14 229.888 330.41)" id="text_4"><defs><path d="M903 1381q0-440 262-719 263-278 685-278 403 0 642 284 239 285 239 748 0 403-236 675t-670 272q-422 0-672-266t-250-716zm1766 1922q-63 344-255 517-192 174-520 174-519 0-791-507-272-506-278-1159l13-12q359 553 1068 553 566 0 988-375t422-1053q0-672-400-1118-400-445-1078-445-782 0-1188 556-406 557-406 1660 0 1062 415 1734 416 672 1247 672 538 0 910-321 372-320 403-876h-550z" id="HelveticaWorld-Regular-36" transform="scale(.01563)"/></defs><use xlink:href="#HelveticaWorld-Regular-32"/><use x="55.615" xlink:href="#HelveticaWorld-Regular-30"/><use x="111.23" xlink:href="#HelveticaWorld-Regular-31"/><use x="166.846" xlink:href="#HelveticaWorld-Regular-36"/></g></g><g id="xtick_5"><use style="fill:#969696;stroke:#969696;stroke-width:.4" x="309.102" xlink:href="#m912143c2bd" y="313.361" id="line2d_6"/><g style="fill:#969696" transform="matrix(.14 0 0 -.14 293.531 330.41)" id="text_5"><defs><path d="M1766 2597q347 0 573 198 227 199 227 527 0 294-218 483-217 189-620 189-359 0-555-199-195-198-195-504 0-328 244-511t544-183zm6-484q-434 0-681-241t-247-591q0-403 250-650t712-247q410 0 655 247t245 657q0 350-245 587-245 238-689 238zm1378 1228q0-678-578-947 397-178 567-471 170-292 170-623 0-641-413-1032-412-390-1112-390-612 0-1076 336T244 1306q0 763 762 1082-609 243-609 875 0 531 361 884t1001 353q641 0 1016-333t375-826z" id="HelveticaWorld-Regular-38" transform="scale(.01563)"/></defs><use xlink:href="#HelveticaWorld-Regular-32"/><use x="55.615" xlink:href="#HelveticaWorld-Regular-30"/><use x="111.23" xlink:href="#HelveticaWorld-Regular-31"/><use x="166.846" xlink:href="#HelveticaWorld-Regular-38"/></g></g><g id="xtick_6"><use style="fill:#969696;stroke:#969696;stroke-width:.4" x="372.657" xlink:href="#m912143c2bd" y="313.361" id="line2d_7"/><g style="fill:#969696" transform="matrix(.14 0 0 -.14 357.087 330.41)" id="text_6"><use xlink:href="#HelveticaWorld-Regular-32"/><use x="55.615" xlink:href="#HelveticaWorld-Regular-30"/><use x="111.23" xlink:href="#HelveticaWorld-Regular-32"/><use x="166.846" xlink:href="#HelveticaWorld-Regular-30"/></g></g></g><g id="matplotlib.axis_2"><g id="ytick_1"><path clip-path="url(#p8827909269)" d="M53.127 254.363h357.12" style="fill:none;stroke:#969696;stroke-linecap:square;stroke-width:.3" id="line2d_8"/><g id="line2d_9"><defs><path d="M0 0h-3.5" id="m8957973763" style="stroke:#969696;stroke-width:.3"/></defs><use style="fill:#969696;stroke:#969696;stroke-width:.3" x="53.127" xlink:href="#m8957973763" y="254.363"/></g><g style="fill:#969696" transform="matrix(.14 0 0 -.14 14.985 259.388)" id="text_7"><defs><path d="M941 2619q372 281 872 281 606 0 1042-403t436-1038q0-690-421-1139-420-448-1179-448-660 0-1041 323-381 324-444 918h582q43-363 284-555t669-192q415 0 681 287 266 288 266 735 0 456-279 731-278 275-718 275-500 0-835-428l-484 25 337 2406h2332v-544H1131L941 2619z" id="HelveticaWorld-Regular-35" transform="scale(.01563)"/></defs><use xlink:href="#HelveticaWorld-Regular-35"/><use x="55.615" xlink:href="#HelveticaWorld-Regular-30"/><use x="111.23" xlink:href="#HelveticaWorld-Regular-30"/><use x="166.846" xlink:href="#HelveticaWorld-Regular-30"/></g></g><g id="ytick_2"><path clip-path="url(#p8827909269)" d="M53.127 195.353h357.12" style="fill:none;stroke:#969696;stroke-linecap:square;stroke-width:.3" id="line2d_10"/><use style="fill:#969696;stroke:#969696;stroke-width:.3" x="53.127" xlink:href="#m8957973763" y="195.353" id="line2d_11"/><g style="fill:#969696" transform="matrix(.14 0 0 -.14 7.2 200.378)" id="text_8"><use xlink:href="#HelveticaWorld-Regular-31"/><use x="55.615" xlink:href="#HelveticaWorld-Regular-30"/><use x="111.23" xlink:href="#HelveticaWorld-Regular-30"/><use x="166.846" xlink:href="#HelveticaWorld-Regular-30"/><use x="222.461" xlink:href="#HelveticaWorld-Regular-30"/></g></g><g id="ytick_3"><path clip-path="url(#p8827909269)" d="M53.127 136.343h357.12" style="fill:none;stroke:#969696;stroke-linecap:square;stroke-width:.3" id="line2d_12"/><use style="fill:#969696;stroke:#969696;stroke-width:.3" x="53.127" xlink:href="#m8957973763" y="136.343" id="line2d_13"/><g style="fill:#969696" transform="matrix(.14 0 0 -.14 7.2 141.368)" id="text_9"><use xlink:href="#HelveticaWorld-Regular-31"/><use x="55.615" xlink:href="#HelveticaWorld-Regular-35"/><use x="111.23" xlink:href="#HelveticaWorld-Regular-30"/><use x="166.846" xlink:href="#HelveticaWorld-Regular-30"/><use x="222.461" xlink:href="#HelveticaWorld-Regular-30"/></g></g><g id="ytick_4"><path clip-path="url(#p8827909269)" d="M53.127 77.333h357.12" style="fill:none;stroke:#969696;stroke-linecap:square;stroke-width:.3" id="line2d_14"/><use style="fill:#969696;stroke:#969696;stroke-width:.3" x="53.127" xlink:href="#m8957973763" y="77.333" id="line2d_15"/><g style="fill:#969696" transform="matrix(.14 0 0 -.14 7.2 82.357)" id="text_10"><use xlink:href="#HelveticaWorld-Regular-32"/><use x="55.615" xlink:href="#HelveticaWorld-Regular-30"/><use x="111.23" xlink:href="#HelveticaWorld-Regular-30"/><use x="166.846" xlink:href="#HelveticaWorld-Regular-30"/><use x="222.461" xlink:href="#HelveticaWorld-Regular-30"/></g></g></g><path clip-path="url(#p8827909269)" d="m53.127 313.361.306-9.925 2.725-.531 4.148-1.05 2.708-.52 4.54-1.05 1.821-.52 3.138-.519 9.934-2.632 2.903-.779 1.962-.26 4.663-1.05 1.755-.519 9.806-2.36 5.315-.78 2.582-.53 3.36-.52 2.686-.53 2.385-.26 2.855-.52 3.367-.401 7.087-.65 2.67-.259 4.827-.318 9.254-.26 3.762-.2.57-.272 2.55-2.1 3.254-2.09 1.17-.52 1.48-.53 4.178-2.09 4.979-3.15 6.04-3.14 7.274-3.139 1.868-1.05 4.59-2.09 3.86-2.1 2.273-1.05 1.278-1.039 5.543-3.151 2.16-1.039 5.414-3.15 5.774-3.14 2.242-1.05 1.725-1.04 1.457-1.05 5.294-3.139 2.03-1.05 1.521-1.039 7.25-4.19 1.205-1.05 1.591-1.039 3.97-2.1 8.095-5.24 1.927-1.039 11.187-5.24 5.577-3.14 2.47-1.05 1.898-1.05 6.27-3.14 1.625-1.05 9.845-4.709 1.718-.531 9.692-4.19 4.669-2.089 10.438-4.709 7.96-2.62 4.714-2.1 3.107-1.05 3.231-1.04 1.971-.519 2.509-.53 6.479-2.102 1.655-.519 11.565-2.62 4.188-1.05 2.172-.52 3.104-.519 7.226-1.57 3.262-.79 4.624-.791 2.52-.177 1.048-.189 6.107-.39 11.165-1.475h0" style="fill:none;stroke:#2ca02c;stroke-linecap:square;stroke-width:1.5" id="line2d_16"/><path clip-path="url(#p8827909269)" d="m79.95 313.361 2.375-13.832 3.068-.743 5.084-.744 2.671-.495 1.853-.484 3.487-.744 2.011-.248 3.513-.743 4.931-.744 2.751-.495 13.85-1.971 13.962-.862 6.974-.189 7.093-.118.544-.318 6.169-4.945 1.792-.992 4.485-2.974 1.153-.98 1.517-.99 2.156-1.984 1.313-.98 1.95-.99 2.885-1.983 3.651-2.963 3.114-1.982 3.752-2.974 8.685-7.908 1.701-1.97 3.773-3.966 4.571-3.954 1.78-1.983 4.316-3.953 5.643-5.937 1.841-1.982 1.493-1.971 6.764-7.908 3.775-3.965 4.92-5.937 1.885-1.97 1.233-1.983 1.412-1.971 1.694-1.983 1.447-1.983 1.68-1.982 1.508-1.971 1.913-1.983 2.822-3.954 1.597-1.97 1.462-1.983 1.712-1.983 1.483-1.983 4.89-5.925 1.459-1.982 1.922-1.971 1.346-1.983 1.926-1.983 4.48-5.936 3.488-3.954 1.535-1.97 1.865-1.983 4.59-5.937 1.477-1.983 5.98-5.924 7.286-7.92 7.193-7.907 2.123-1.982 1.626-1.983 2.172-1.983 3.596-3.954 13.732-13.843 4.173-3.954 1.819-1.983 4.452-3.954 2.55-1.982 2.174-1.983 3.71-3.954 3.637-2.962 1.51-.991 2.378-1.971 6.511-4.957 3.101-1.971 1.204-.991 1.484-.992 1.134-.991 2.971-1.971 1.865-.991 4.48-2.963 2.251-1.983 1.308-.99 1.524-.992 1.819-.992 1.515-.991 2.5-.696 1.058-.708 2.12-.78 1.47-.778 2.182-.496 3.008-1.487 1.841-.602 1.131-.614 1.91-.436.893-.449 1.572-.555 1.129-.554h0" style="fill:none;stroke:#ff7f0e;stroke-linecap:square;stroke-width:1.5" id="line2d_17"/><g style="fill:#1f77b4" transform="matrix(.14 0 0 -.14 413.818 46.239)" id="text_11"><defs><path d="M984 3956H422v638h562v-638zm0-4450q0-478-227-664-226-186-629-186-115 0-237 19v487H38q237 0 310 71 74 70 74 339v3775h562V-494z" id="HelveticaWorld-Regular-6a" transform="scale(.01563)"/><path d="M391 3347h562V1125q0-369 167-552 168-182 480-182 434 0 678 307 244 308 244 805v1844h562V0h-531v488l-12 12Q2222-97 1478-97q-481 0-784 262-303 263-303 776v2406z" id="HelveticaWorld-Regular-75" transform="scale(.01563)"/><path d="M3150 0h-566v2059q0 475-166 677-165 202-549 202-378 0-632-288-253-287-253-825V0H422v3347h531v-472h13q397 569 1012 569 569 0 870-302 302-301 302-864V0z" id="HelveticaWorld-Regular-6e" transform="scale(.01563)"/><path d="M2719 1941q-44 543-288 770-243 227-647 227-409 0-661-288-251-287-267-709h1863zm537-891q-93-519-509-859-366-288-963-294-703 6-1116 461-412 455-412 1223 0 882 425 1372 425 491 1182 491 678 0 1059-507 381-506 381-1446H856q0-525 244-813 244-287 731-287 344 0 591 207 247 208 272 452h562z" id="HelveticaWorld-Regular-65" transform="scale(.01563)"/><path d="M831 1684q0-615 244-954t659-339q404 0 660 293 256 294 256 832 0 706-224 1064-223 358-679 358-459 0-688-305-228-305-228-949zM3188 191q0-807-388-1203-387-397-1169-397-562 0-895 259T353-409h563q43-244 226-388t530-144q472 0 712 254 241 253 241 821v238h-12Q2297-97 1722-97q-716 0-1094 528T250 1772q0 744 381 1208 382 464 1013 464 634 0 1000-569h12v472h532V191z" id="HelveticaWorld-Regular-67" transform="scale(.01563)"/><path d="M319-122h-428l1575 4838h422L319-122z" id="HelveticaWorld-Regular-2f" transform="scale(.01563)"/><path d="M2522 3347h616L1863 0h-604L38 3347h653l872-2725h12l947 2725z" id="HelveticaWorld-Regular-76" transform="scale(.01563)"/><path d="M422 3956v638h562v-638H422zM984 0H422v3347h562V0z" id="HelveticaWorld-Regular-69" transform="scale(.01563)"/><path d="M422 3347h531v-472h13q378 569 1012 569 628 0 891-544 240 294 465 419t557 125q434 0 735-285 302-284 302-843V0h-562v2163q0 390-147 582-147 193-475 193-331 0-560-269-228-269-228-628V0h-562v2316q0 290-135 456-134 166-390 166-403 0-644-300t-241-813V0H422v3347z" id="HelveticaWorld-Regular-6d" transform="scale(.01563)"/><path d="M1850 1484H281v575h1569v-575z" id="HelveticaWorld-Regular-2d" transform="scale(.01563)"/><path d="M959 1516q0-538 262-832 263-293 654-293 428 0 665 348 238 349 238 945 0 654-228 954t-687 300q-447 0-676-352-228-352-228-1070zM422 3347h531v-472h13q359 569 1000 569 647 0 1020-471 373-470 373-1201 0-819-381-1344T1888-97q-582 0-891 450h-13v-1678H422v4672z" id="HelveticaWorld-Regular-70" transform="scale(.01563)"/><path d="M984 0H422v4594h562V0z" id="HelveticaWorld-Regular-6c" transform="scale(.01563)"/></defs><use xlink:href="#HelveticaWorld-Regular-6a"/><use x="22.021" xlink:href="#HelveticaWorld-Regular-75"/><use x="76.807" xlink:href="#HelveticaWorld-Regular-6e"/><use x="131.982" xlink:href="#HelveticaWorld-Regular-65"/><use x="187.402" xlink:href="#HelveticaWorld-Regular-67"/><use x="243.311" xlink:href="#HelveticaWorld-Regular-75"/><use x="298.096" xlink:href="#HelveticaWorld-Regular-6e"/><use x="353.271" xlink:href="#HelveticaWorld-Regular-6e"/><use x="408.447" xlink:href="#HelveticaWorld-Regular-2f"/><use x="436.23" xlink:href="#HelveticaWorld-Regular-76"/><use x="485.84" xlink:href="#HelveticaWorld-Regular-69"/><use x="507.861" xlink:href="#HelveticaWorld-Regular-6d"/><use x="590.869" xlink:href="#HelveticaWorld-Regular-2d"/><use x="624.17" xlink:href="#HelveticaWorld-Regular-70"/><use x="680.664" xlink:href="#HelveticaWorld-Regular-6c"/><use x="702.686" xlink:href="#HelveticaWorld-Regular-75"/><use x="757.471" xlink:href="#HelveticaWorld-Regular-67"/></g><g style="fill:#ff7f0e" transform="matrix(.14 0 0 -.14 413.818 60.197)" id="text_12"><defs><path d="M3413 4594h696L2425 0h-653L97 4594h691L2100 678h13l1300 3916z" id="HelveticaWorld-Regular-56" transform="scale(.01563)"/><path d="M838 1684q0-621 246-957 247-336 657-336 390 0 652 287 263 288 263 838 0 706-224 1064-223 358-679 358-434 0-675-285-240-284-240-969zM3225 0h-531v459h-13Q2363-97 1716-97q-697 0-1079 531-381 532-381 1338 0 744 378 1208 379 464 1016 464 628 0 1000-569l13 38v1681h562V0z" id="HelveticaWorld-Regular-64" transform="scale(.01563)"/><path d="M1222 0H556v678h666V0z" id="HelveticaWorld-Regular-2e" transform="scale(.01563)"/></defs><use xlink:href="#HelveticaWorld-Regular-56"/><use x="60.201" xlink:href="#HelveticaWorld-Regular-75"/><use x="114.986" xlink:href="#HelveticaWorld-Regular-6e"/><use x="170.162" xlink:href="#HelveticaWorld-Regular-64"/><use x="227.145" xlink:href="#HelveticaWorld-Regular-6c"/><use x="249.166" xlink:href="#HelveticaWorld-Regular-65"/><use x="304.586" xlink:href="#HelveticaWorld-Regular-56"/><use x="370.162" xlink:href="#HelveticaWorld-Regular-69"/><use x="392.184" xlink:href="#HelveticaWorld-Regular-6d"/><use x="475.191" xlink:href="#HelveticaWorld-Regular-2f"/><use x="502.975" xlink:href="#HelveticaWorld-Regular-56"/><use x="563.176" xlink:href="#HelveticaWorld-Regular-75"/><use x="617.961" xlink:href="#HelveticaWorld-Regular-6e"/><use x="673.137" xlink:href="#HelveticaWorld-Regular-64"/><use x="730.119" xlink:href="#HelveticaWorld-Regular-6c"/><use x="752.141" xlink:href="#HelveticaWorld-Regular-65"/><use x="806.061" xlink:href="#HelveticaWorld-Regular-2e"/><use x="833.844" xlink:href="#HelveticaWorld-Regular-76"/><use x="883.453" xlink:href="#HelveticaWorld-Regular-69"/><use x="905.475" xlink:href="#HelveticaWorld-Regular-6d"/></g><g style="fill:#2ca02c" transform="matrix(.14 0 0 -.14 413.818 180.7)" id="text_13"><defs><path d="M1100 2881V703q0-128 70-195 71-67 252-67h216V0q-307-44-422-44-353 0-516 169-162 169-162 547v2209H84v466h454v934h562v-934h538v-466h-538z" id="HelveticaWorld-Regular-74" transform="scale(.01563)"/><path d="M813 1678q0-559 253-920t718-361q482 0 732 378t250 903q0 531-250 901-250 371-732 371-446 0-709-349-262-348-262-923zm-575 0q0 747 415 1256 416 510 1131 510 732 0 1144-516 413-515 413-1250 0-737-410-1256Q2522-97 1784-97q-709 0-1128 503-418 503-418 1272z" id="HelveticaWorld-Regular-6f" transform="scale(.01563)"/><path d="M2456 1709q-62-65-245-106-183-40-683-106-369-44-542-182-173-137-173-362 0-275 146-428 147-153 469-153 403 0 715 229 313 230 313 558v550zM397 2328q19 566 367 841 349 275 1014 275 531 0 890-241 360-240 360-694V581q0-197 178-197 72 0 185 25V0q-153-63-319-63-288 0-429 123-140 124-146 387Q2016-97 1288-97q-475 0-763 269-287 269-287 700 0 441 250 712 250 272 728 329l993 121q269 41 269 397 0 263-195 403-195 141-592 141-353 0-543-156-189-156-226-491H397z" id="HelveticaWorld-Regular-61" transform="scale(.01563)"/><path d="M3150 0h-566v2188q0 403-156 576-156 174-509 174-435 0-685-282-250-281-250-831V0H422v4594h562V2900h13q384 544 981 544 550 0 861-288 311-287 311-878V0z" id="HelveticaWorld-Regular-68" transform="scale(.01563)"/></defs><use xlink:href="#HelveticaWorld-Regular-74"/><use x="27.686" xlink:href="#HelveticaWorld-Regular-70"/><use x="84.18" xlink:href="#HelveticaWorld-Regular-6f"/><use x="140.088" xlink:href="#HelveticaWorld-Regular-70"/><use x="196.582" xlink:href="#HelveticaWorld-Regular-65"/><use x="252.002" xlink:href="#HelveticaWorld-Regular-2f"/><use x="279.785" xlink:href="#HelveticaWorld-Regular-76"/><use x="329.395" xlink:href="#HelveticaWorld-Regular-69"/><use x="351.416" xlink:href="#HelveticaWorld-Regular-6d"/><use x="434.424" xlink:href="#HelveticaWorld-Regular-2d"/><use x="467.725" xlink:href="#HelveticaWorld-Regular-70"/><use x="524.219" xlink:href="#HelveticaWorld-Regular-61"/><use x="579.15" xlink:href="#HelveticaWorld-Regular-74"/><use x="606.836" xlink:href="#HelveticaWorld-Regular-68"/><use x="662.012" xlink:href="#HelveticaWorld-Regular-6f"/><use x="717.92" xlink:href="#HelveticaWorld-Regular-67"/><use x="773.828" xlink:href="#HelveticaWorld-Regular-65"/><use x="829.248" xlink:href="#HelveticaWorld-Regular-6e"/></g><g style="fill:#d62728" transform="matrix(.14 0 0 -.14 413.818 290.377)" id="text_14"><defs><path d="M3225 3250q-19 438-327 686-307 248-810 248-507 0-779-208-271-207-271-598 0-209 118-359 119-150 425-222l1313-300q531-116 787-440 257-323 257-788 0-681-500-1036T2138-122q-610 0-962 156-351 157-623 497-272 341-272 953h582q0-512 340-794 341-281 928-281 569 0 886 202t317 573q0 338-189 505t-739 295l-990 232q-494 112-738 392t-244 689q0 619 417 1019 418 400 1165 400 843 0 1301-352 458-351 492-1114h-584z" id="HelveticaWorld-Regular-53" transform="scale(.01563)"/><path d="M2778 1684q0 672-238 963-237 291-677 291-447-7-676-349-228-342-228-989 0-659 275-934t641-275q416 0 659 342 244 342 244 951zM422 0v4594h562V2925h13q359 519 969 519 625 0 1009-464t384-1208q0-838-388-1354Q2584-97 1888-97q-613 0-922 513h-13V0H422z" id="HelveticaWorld-Regular-62" transform="scale(.01563)"/></defs><use xlink:href="#HelveticaWorld-Regular-53"/><use x="66.211" xlink:href="#HelveticaWorld-Regular-68"/><use x="121.387" xlink:href="#HelveticaWorld-Regular-6f"/><use x="177.295" xlink:href="#HelveticaWorld-Regular-75"/><use x="232.08" xlink:href="#HelveticaWorld-Regular-67"/><use x="287.988" xlink:href="#HelveticaWorld-Regular-6f"/><use x="343.896" xlink:href="#HelveticaWorld-Regular-2f"/><use x="371.68" xlink:href="#HelveticaWorld-Regular-6e"/><use x="426.855" xlink:href="#HelveticaWorld-Regular-65"/><use x="482.275" xlink:href="#HelveticaWorld-Regular-6f"/><use x="538.184" xlink:href="#HelveticaWorld-Regular-62"/><use x="594.678" xlink:href="#HelveticaWorld-Regular-75"/><use x="649.463" xlink:href="#HelveticaWorld-Regular-6e"/><use x="704.639" xlink:href="#HelveticaWorld-Regular-64"/><use x="761.621" xlink:href="#HelveticaWorld-Regular-6c"/><use x="783.643" xlink:href="#HelveticaWorld-Regular-65"/><use x="837.563" xlink:href="#HelveticaWorld-Regular-2e"/><use x="865.346" xlink:href="#HelveticaWorld-Regular-76"/><use x="914.955" xlink:href="#HelveticaWorld-Regular-69"/><use x="936.977" xlink:href="#HelveticaWorld-Regular-6d"/></g><g style="fill:#969696" transform="matrix(.09716 0 0 -.09716 53.127 347.144)" id="text_15"><defs><path d="M2463 2456h2018V0h-403l-150 594q-294-375-691-546-396-170-824-170-691 0-1155 301-464 302-721 833-256 532-256 1326 0 990 589 1684t1586 694q744 0 1300-416 557-416 647-1100h-600q-109 453-462 709-353 257-916 257-678 0-1091-511-412-511-412-1352 0-978 409-1436 410-458 1119-458 463 0 783 183t492 497q172 314 172 836H2463v531z" id="HelveticaWorld-Regular-47" transform="scale(.01563)"/><path d="M4153 0h-622v2144H1131V0H519v4594h612V2694h2400v1900h622V0z" id="HelveticaWorld-Regular-48" transform="scale(.01563)"/><path d="m2816 1888-678 2021h-13l-737-2021h1428zm-1619-550L716 0H78l1728 4594h703L4172 0h-678l-453 1338H1197z" id="HelveticaWorld-Regular-41" transform="scale(.01563)"/><path d="M1141 2472h1234q466 0 700 204 234 205 234 621 0 372-225 569t-684 197H1141V2472zm0-2472H519v4594h2065q616 0 991-358t375-933q0-597-363-980-362-382-1003-382H1141V0z" id="HelveticaWorld-Regular-50" transform="scale(.01563)"/><path d="M1141 0H519v4594h622V0z" id="HelveticaWorld-Regular-49" transform="scale(.01563)"/><path d="M2309 2394q-12 300-214 431-201 131-579 131-275 0-471-122-195-121-195-350 0-181 115-267 116-86 501-183l556-140q506-128 723-327 218-198 218-554 0-494-361-802T1638-97Q934-97 573 195q-360 293-367 880h544q13-347 230-516 217-168 651-168 353 0 561 140 208 141 208 391 0 178-135 284-134 107-531 197l-653 160q-397 100-586 298t-189 514q0 494 353 781 354 288 922 288 607 0 930-296 323-295 342-754h-544z" id="HelveticaWorld-Regular-73" transform="scale(.01563)"/><path d="M984 0H422v3347h531v-556h13q365 653 940 653 91 0 147-19v-584h-209q-378 0-619-257-241-256-241-637V0z" id="HelveticaWorld-Regular-72" transform="scale(.01563)"/><path d="M603 4716h466V-122H603v4838z" id="HelveticaWorld-Regular-7c" transform="scale(.01563)"/><path d="M3559 4594h600V0h-690L1125 3713h-12V0H519v4594h728L3547 884h12v3710z" id="HelveticaWorld-Regular-4e" transform="scale(.01563)"/><path d="M2534 2222q-121 716-793 716-416 0-669-333t-253-927q0-647 234-967 235-320 681-320 300 0 519 220t281 573h544q-84-621-439-951T1722-97q-659 0-1081 451-422 452-422 1227 0 850 422 1356 422 507 1184 507 556 0 886-333t367-889h-544z" id="HelveticaWorld-Regular-63" transform="scale(.01563)"/><path d="M813 1678q0-559 253-920t718-361q482 0 732 378t250 903q0 531-250 901-250 371-732 371-446 0-709-349-262-348-262-923zm-575 0q0 747 415 1256 416 510 1131 510 732 0 1144-516 413-515 413-1250 0-737-410-1256Q2522-97 1784-97q-709 0-1128 503-418 503-418 1272zm2351 2266h-575v650h575v-650zm-1038 0H976v650h575v-650z" id="HelveticaWorld-Regular-f6" transform="scale(.01563)"/><path d="M3713 3213q-104 468-434 710-329 243-854 243-678 0-1091-493-412-492-412-1329 0-969 390-1443 391-473 1132-473 487 0 838 323 352 324 474 940h603q-121-885-671-1349T2350-122q-941 0-1505 647T281 2322q0 1109 589 1751 589 643 1555 643 800 0 1297-413 497-412 591-1090h-600z" id="HelveticaWorld-Regular-43" transform="scale(.01563)"/><path d="M519 4594h2015q594 0 947-322t353-834q0-310-155-565-154-254-460-395 428-162 629-431 202-269 202-691 0-593-428-975Q3194 0 2491 0H519v4594zm612-4063h1325q488 0 731 226 244 227 244 612 0 390-272 582-271 193-803 193H1131V531zm0 2119h1128q494 0 724 179 230 180 230 562 0 328-218 500-217 172-729 172H1131V2650z" id="HelveticaWorld-Regular-42" transform="scale(.01563)"/><path d="M2388 0h-622v1850L31 4594h725l1319-2206 1316 2206h731L2388 1850V0z" id="HelveticaWorld-Regular-59" transform="scale(.01563)"/></defs><use xlink:href="#HelveticaWorld-Regular-47"/><use x="77.1" xlink:href="#HelveticaWorld-Regular-69"/><use x="99.121" xlink:href="#HelveticaWorld-Regular-74"/><use x="126.807" xlink:href="#HelveticaWorld-Regular-48"/><use x="199.805" xlink:href="#HelveticaWorld-Regular-75"/><use x="254.59" xlink:href="#HelveticaWorld-Regular-62"/><use x="311.084" xlink:href="#HelveticaWorld-Regular-20"/><use x="335.498" xlink:href="#HelveticaWorld-Regular-41"/><use x="402.197" xlink:href="#HelveticaWorld-Regular-50"/><use x="466.846" xlink:href="#HelveticaWorld-Regular-49"/><use x="492.627" xlink:href="#HelveticaWorld-Regular-20"/><use x="517.041" xlink:href="#HelveticaWorld-Regular-76"/><use x="566.65" xlink:href="#HelveticaWorld-Regular-69"/><use x="588.672" xlink:href="#HelveticaWorld-Regular-61"/><use x="643.604" xlink:href="#HelveticaWorld-Regular-20"/><use x="668.018" xlink:href="#HelveticaWorld-Regular-73"/><use x="718.018" xlink:href="#HelveticaWorld-Regular-74"/><use x="745.703" xlink:href="#HelveticaWorld-Regular-61"/><use x="800.635" xlink:href="#HelveticaWorld-Regular-72"/><use x="832.203" xlink:href="#HelveticaWorld-Regular-67"/><use x="888.111" xlink:href="#HelveticaWorld-Regular-72"/><use x="919.68" xlink:href="#HelveticaWorld-Regular-61"/><use x="974.611" xlink:href="#HelveticaWorld-Regular-70"/><use x="1031.105" xlink:href="#HelveticaWorld-Regular-68"/><use x="1086.281" xlink:href="#HelveticaWorld-Regular-20"/><use x="1110.695" xlink:href="#HelveticaWorld-Regular-7c"/><use x="1136.672" xlink:href="#HelveticaWorld-Regular-20"/><use x="1161.086" xlink:href="#HelveticaWorld-Regular-4e"/><use x="1234.182" xlink:href="#HelveticaWorld-Regular-69"/><use x="1256.203" xlink:href="#HelveticaWorld-Regular-63"/><use x="1307.473" xlink:href="#HelveticaWorld-Regular-6f"/><use x="1363.381" xlink:href="#HelveticaWorld-Regular-20"/><use x="1387.795" xlink:href="#HelveticaWorld-Regular-53"/><use x="1454.006" xlink:href="#HelveticaWorld-Regular-63"/><use x="1505.275" xlink:href="#HelveticaWorld-Regular-68"/><use x="1560.451" xlink:href="#HelveticaWorld-Regular-6c"/><use x="1582.473" xlink:href="#HelveticaWorld-Regular-f6"/><use x="1638.381" xlink:href="#HelveticaWorld-Regular-6d"/><use x="1721.389" xlink:href="#HelveticaWorld-Regular-65"/><use x="1776.809" xlink:href="#HelveticaWorld-Regular-72"/><use x="1809.377" xlink:href="#HelveticaWorld-Regular-20"/><use x="1833.791" xlink:href="#HelveticaWorld-Regular-7c"/><use x="1859.768" xlink:href="#HelveticaWorld-Regular-20"/><use x="1884.182" xlink:href="#HelveticaWorld-Regular-43"/><use x="1956.496" xlink:href="#HelveticaWorld-Regular-43"/><use x="2028.811" xlink:href="#HelveticaWorld-Regular-20"/><use x="2053.225" xlink:href="#HelveticaWorld-Regular-42"/><use x="2116.037" xlink:href="#HelveticaWorld-Regular-59"/></g><g style="fill:#969696" transform="matrix(.14 0 0 -.14 158.992 17.25)" id="text_16"><defs><path d="M1100 2881V0H538v2881H78v466h460v575q0 378 229 557 230 180 642 180 141 0 254-12v-506q-100 12-229 12-187 0-261-92-73-92-73-298v-416h563v-466h-563z" id="HelveticaWorld-Regular-66" transform="scale(.01563)"/></defs><use xlink:href="#HelveticaWorld-Regular-4e"/><use x="73.096" xlink:href="#HelveticaWorld-Regular-75"/><use x="127.881" xlink:href="#HelveticaWorld-Regular-6d"/><use x="210.889" xlink:href="#HelveticaWorld-Regular-62"/><use x="267.383" xlink:href="#HelveticaWorld-Regular-65"/><use x="322.803" xlink:href="#HelveticaWorld-Regular-72"/><use x="355.371" xlink:href="#HelveticaWorld-Regular-20"/><use x="379.785" xlink:href="#HelveticaWorld-Regular-6f"/><use x="435.693" xlink:href="#HelveticaWorld-Regular-66"/><use x="463.379" xlink:href="#HelveticaWorld-Regular-20"/><use x="487.793" xlink:href="#HelveticaWorld-Regular-47"/><use x="564.893" xlink:href="#HelveticaWorld-Regular-69"/><use x="586.914" xlink:href="#HelveticaWorld-Regular-74"/><use x="614.6" xlink:href="#HelveticaWorld-Regular-48"/><use x="687.598" xlink:href="#HelveticaWorld-Regular-75"/><use x="742.383" xlink:href="#HelveticaWorld-Regular-62"/><use x="798.877" xlink:href="#HelveticaWorld-Regular-20"/><use x="823.291" xlink:href="#HelveticaWorld-Regular-73"/><use x="873.291" xlink:href="#HelveticaWorld-Regular-74"/><use x="900.977" xlink:href="#HelveticaWorld-Regular-61"/><use x="955.908" xlink:href="#HelveticaWorld-Regular-72"/><use x="988.477" xlink:href="#HelveticaWorld-Regular-73"/></g><path clip-path="url(#p8827909269)" d="m172.12 313.361 2.153-.224 7.494-.271 14.642-.413.727-.225.877-.106 2.067-.118.914-.46.64-.449 2.174-.46.362-.909.161-3.635 2.452-3.635 1.655-.448 2.344-.909 1.82-.46 2.161-.909 1.797-.909 2.438-1.817 1.888-.909 1.455-.909 1.84-.908 4.514-2.727 2.91-1.817 1.635-1.818 1.85-1.817 4.828-3.647 1.771-1.818 1.582-1.817 5.542-5.453 5.222-5.464 2.107-1.818 1.769-1.817 2.218-1.818 1.863-1.817 2.169-1.818 7.134-7.281 1.619-1.818 1.84-1.817 6.377-7.27 3.952-5.453 1.704-1.818 2.87-3.635 3.136-3.646 1.781-1.818 1.513-1.817 3.377-3.635 1.465-1.818 1.61-1.817 2.09-3.647 2.895-3.635 1.974-1.818 1.453-1.817 1.622-1.818 2.897-3.635 1.327-1.83 6.034-9.087 2.85-3.635 5.938-7.27 2.804-3.635 1.667-1.817 4.31-5.465 1.222-1.817 2.046-3.635 2.412-3.635 2.224-3.647 1.762-3.635 2.076-3.635 9.096-14.552 2.732-3.635 4.558-7.282 4.259-7.27 2.479-3.647 2.125-3.635 3.803-7.27 3.168-7.282 1.516-3.635 3.549-7.282 2.044-2.702 1.514-2.715 2.085-2.88 1.568-2.89 1.81-2.113 3.313-6.373 1.697-2.36 1.267-2.373 1.621-2.254 1.181-2.266 1.492-2.195 1.228-2.196h0" style="fill:none;stroke:#1f77b4;stroke-linecap:square;stroke-width:1.5" id="line2d_18"/></g></g><defs><clipPath id="p8827909269"><path d="M53.127 47.249h357.12v266.112H53.127z"/></clipPath></defs></svg>