<svg xmlns:xlink="http://www.w3.org/1999/xlink" width="773.218" height="437.21" viewBox="0 0 579.914 327.907" xmlns="http://www.w3.org/2000/svg"><defs><style>*{stroke-linejoin:round;stroke-linecap:butt}</style></defs><g id="figure_1"><path d="M0 327.907h579.914V0H0v327.907z" style="fill:none" id="patch_1"/><g id="axes_1"><path d="M82.476 284.38h357.12V18.268H82.476V284.38z" style="fill:none" id="patch_2"/><g id="matplotlib.axis_1"><g id="xtick_1"><g id="line2d_1"><defs><path id="m5e56e74c8f" d="M0 0v3.5" style="stroke:#969696;stroke-width:.4"/></defs><use xlink:href="#m5e56e74c8f" x="141.49" y="284.38" style="fill:#969696;stroke:#969696;stroke-width:.4"/></g><g style="fill:#969696" transform="matrix(.14 0 0 -.14 127.127 301.32)" id="text_1"><defs><path id="MyriadPro-Regular-32" d="M2944 0v467H1075v13l333 307c877 845 1434 1466 1434 2234 0 595-378 1209-1274 1209-480 0-890-179-1178-422l180-397c192 160 505 352 883 352 621 0 825-390 825-813-6-627-486-1164-1548-2176L288 346V0h2656z" transform="scale(.01563)"/><path id="MyriadPro-Regular-30" d="M1677 4230c-845 0-1447-768-1447-2163C243 691 794-70 1606-70c922 0 1447 780 1447 2195 0 1325-499 2105-1376 2105zm-32-435c582 0 845-672 845-1696 0-1062-276-1734-852-1734-512 0-844 614-844 1696 0 1133 358 1734 851 1734z" transform="scale(.01563)"/><path id="MyriadPro-Regular-31" d="M1510 0h544v4160h-480l-908-486 108-429 724 390h12V0z" transform="scale(.01563)"/></defs><use xlink:href="#MyriadPro-Regular-32"/><use xlink:href="#MyriadPro-Regular-30" x="51.3"/><use xlink:href="#MyriadPro-Regular-31" x="102.6"/><use xlink:href="#MyriadPro-Regular-32" x="153.9"/></g></g><g id="xtick_2"><use xlink:href="#m5e56e74c8f" x="203.205" y="284.38" style="fill:#969696;stroke:#969696;stroke-width:.4" id="line2d_2"/><g style="fill:#969696" transform="matrix(.14 0 0 -.14 188.842 301.32)" id="text_2"><defs><path id="MyriadPro-Regular-34" d="M2560 0v1133h582v441h-582v2586h-608L96 1504v-371h1933V0h531zM666 1574v13l1017 1415c115 192 218 371 346 614h19c-13-218-19-435-19-653V1574H666z" transform="scale(.01563)"/></defs><use xlink:href="#MyriadPro-Regular-32"/><use xlink:href="#MyriadPro-Regular-30" x="51.3"/><use xlink:href="#MyriadPro-Regular-31" x="102.6"/><use xlink:href="#MyriadPro-Regular-34" x="153.9"/></g></g><g id="xtick_3"><use xlink:href="#m5e56e74c8f" x="264.835" y="284.38" style="fill:#969696;stroke:#969696;stroke-width:.4" id="line2d_3"/><g style="fill:#969696" transform="matrix(.14 0 0 -.14 250.472 301.32)" id="text_3"><defs><path id="MyriadPro-Regular-36" d="M2662 4224c-102 0-243-6-409-32-525-64-986-275-1331-614-410-410-704-1056-704-1876C218 621 800-70 1690-70c864 0 1382 704 1382 1465 0 813-518 1344-1254 1344-461 0-807-217-1005-480h-19c96 685 563 1331 1446 1479 160 25 307 32 422 25v461zM1690 365c-589 0-903 505-916 1190 0 103 26 186 64 250 154 301 468 512 807 512 518 0 857-359 857-954s-326-998-806-998h-6z" transform="scale(.01563)"/></defs><use xlink:href="#MyriadPro-Regular-32"/><use xlink:href="#MyriadPro-Regular-30" x="51.3"/><use xlink:href="#MyriadPro-Regular-31" x="102.6"/><use xlink:href="#MyriadPro-Regular-36" x="153.9"/></g></g><g id="xtick_4"><use xlink:href="#m5e56e74c8f" x="326.55" y="284.38" style="fill:#969696;stroke:#969696;stroke-width:.4" id="line2d_4"/><g style="fill:#969696" transform="matrix(.14 0 0 -.14 312.187 301.32)" id="text_4"><defs><path id="MyriadPro-Regular-38" d="M1062 2170c-512-218-825-589-825-1114C237 448 762-70 1632-70c794 0 1414 486 1414 1209 0 506-320 871-838 1075v20c512 243 685 620 685 972 0 519-403 1024-1210 1024-729 0-1286-448-1286-1107 0-358 198-717 659-934l6-19zm583-1831c-531 0-851 371-832 794 0 397 262 717 749 857 563-160 915-403 915-908 0-423-327-743-832-743zm6 3488c506 0 704-345 704-678 0-378-275-634-633-755-480 128-794 352-794 768 0 358 256 665 723 665z" transform="scale(.01563)"/></defs><use xlink:href="#MyriadPro-Regular-32"/><use xlink:href="#MyriadPro-Regular-30" x="51.3"/><use xlink:href="#MyriadPro-Regular-31" x="102.6"/><use xlink:href="#MyriadPro-Regular-38" x="153.9"/></g></g><g id="xtick_5"><use xlink:href="#m5e56e74c8f" x="388.181" y="284.38" style="fill:#969696;stroke:#969696;stroke-width:.4" id="line2d_5"/><g style="fill:#969696" transform="matrix(.14 0 0 -.14 373.818 301.32)" id="text_5"><use xlink:href="#MyriadPro-Regular-32"/><use xlink:href="#MyriadPro-Regular-30" x="51.3"/><use xlink:href="#MyriadPro-Regular-32" x="102.6"/><use xlink:href="#MyriadPro-Regular-30" x="153.9"/></g></g></g><g id="matplotlib.axis_2"><g id="ytick_1"><path d="M82.476 284.38h357.12" clip-path="url(#p68c551a3ca)" style="fill:none;stroke:#969696;stroke-width:.3;stroke-linecap:square" id="line2d_6"/><g id="line2d_7"><defs><path id="mc974b3aae0" d="M0 0h-3.5" style="stroke:#969696;stroke-width:.3"/></defs><use xlink:href="#mc974b3aae0" x="82.476" y="284.38" style="fill:#969696;stroke:#969696;stroke-width:.3"/></g><use xlink:href="#MyriadPro-Regular-30" style="fill:#969696" transform="matrix(.14 0 0 -.14 68.295 289.35)" id="text_6"/></g><g id="ytick_2"><path d="M82.476 254.648h357.12" clip-path="url(#p68c551a3ca)" style="fill:none;stroke:#969696;stroke-width:.3;stroke-linecap:square" id="line2d_8"/><use xlink:href="#mc974b3aae0" x="82.476" y="254.648" style="fill:#969696;stroke:#969696;stroke-width:.3" id="line2d_9"/><g style="fill:#969696" transform="matrix(.14 0 0 -.14 39.568 259.618)" id="text_7"><use xlink:href="#MyriadPro-Regular-31"/><use xlink:href="#MyriadPro-Regular-30" x="51.3"/><use xlink:href="#MyriadPro-Regular-30" x="102.6"/><use xlink:href="#MyriadPro-Regular-30" x="153.9"/><use xlink:href="#MyriadPro-Regular-30" x="205.2"/></g></g><g id="ytick_3"><path d="M82.476 224.916h357.12" clip-path="url(#p68c551a3ca)" style="fill:none;stroke:#969696;stroke-width:.3;stroke-linecap:square" id="line2d_10"/><use xlink:href="#mc974b3aae0" x="82.476" y="224.916" style="fill:#969696;stroke:#969696;stroke-width:.3" id="line2d_11"/><g style="fill:#969696" transform="matrix(.14 0 0 -.14 39.568 229.886)" id="text_8"><use xlink:href="#MyriadPro-Regular-32"/><use xlink:href="#MyriadPro-Regular-30" x="51.3"/><use xlink:href="#MyriadPro-Regular-30" x="102.6"/><use xlink:href="#MyriadPro-Regular-30" x="153.9"/><use xlink:href="#MyriadPro-Regular-30" x="205.2"/></g></g><g id="ytick_4"><path d="M82.476 195.184h357.12" clip-path="url(#p68c551a3ca)" style="fill:none;stroke:#969696;stroke-width:.3;stroke-linecap:square" id="line2d_12"/><use xlink:href="#mc974b3aae0" x="82.476" y="195.184" style="fill:#969696;stroke:#969696;stroke-width:.3" id="line2d_13"/><g style="fill:#969696" transform="matrix(.14 0 0 -.14 39.568 200.154)" id="text_9"><defs><path id="MyriadPro-Regular-33" d="M269 211C474 77 883-70 1350-70c999 0 1517 582 1517 1248 0 582-416 966-928 1068v13c512 186 768 551 768 979 0 506-371 992-1190 992-448 0-871-160-1088-320l147-409c179 128 499 275 832 275 518 0 730-294 730-627 0-493-519-704-928-704H896v-423h314c544 0 1068-249 1075-832 6-345-218-806-941-806-390 0-762 160-922 262L269 211z" transform="scale(.01563)"/></defs><use xlink:href="#MyriadPro-Regular-33"/><use xlink:href="#MyriadPro-Regular-30" x="51.3"/><use xlink:href="#MyriadPro-Regular-30" x="102.6"/><use xlink:href="#MyriadPro-Regular-30" x="153.9"/><use xlink:href="#MyriadPro-Regular-30" x="205.2"/></g></g><g id="ytick_5"><path d="M82.476 165.452h357.12" clip-path="url(#p68c551a3ca)" style="fill:none;stroke:#969696;stroke-width:.3;stroke-linecap:square" id="line2d_14"/><use xlink:href="#mc974b3aae0" x="82.476" y="165.452" style="fill:#969696;stroke:#969696;stroke-width:.3" id="line2d_15"/><g style="fill:#969696" transform="matrix(.14 0 0 -.14 39.568 170.422)" id="text_10"><use xlink:href="#MyriadPro-Regular-34"/><use xlink:href="#MyriadPro-Regular-30" x="51.3"/><use xlink:href="#MyriadPro-Regular-30" x="102.6"/><use xlink:href="#MyriadPro-Regular-30" x="153.9"/><use xlink:href="#MyriadPro-Regular-30" x="205.2"/></g></g><g id="ytick_6"><path d="M82.476 135.72h357.12" clip-path="url(#p68c551a3ca)" style="fill:none;stroke:#969696;stroke-width:.3;stroke-linecap:square" id="line2d_16"/><use xlink:href="#mc974b3aae0" x="82.476" y="135.719" style="fill:#969696;stroke:#969696;stroke-width:.3" id="line2d_17"/><g style="fill:#969696" transform="matrix(.14 0 0 -.14 39.568 140.69)" id="text_11"><defs><path id="MyriadPro-Regular-35" d="M2771 4160H781L512 2163c154 19 339 45 576 45 832 0 1190-384 1197-922 0-556-455-902-986-902-377 0-717 128-889 230L269 186C467 58 851-70 1306-70c902 0 1548 608 1548 1420 0 525-268 884-595 1069-256 154-576 224-896 224-153 0-243-13-339-25l160 1068h1587v474z" transform="scale(.01563)"/></defs><use xlink:href="#MyriadPro-Regular-35"/><use xlink:href="#MyriadPro-Regular-30" x="51.3"/><use xlink:href="#MyriadPro-Regular-30" x="102.6"/><use xlink:href="#MyriadPro-Regular-30" x="153.9"/><use xlink:href="#MyriadPro-Regular-30" x="205.2"/></g></g><g id="ytick_7"><path d="M82.476 105.987h357.12" clip-path="url(#p68c551a3ca)" style="fill:none;stroke:#969696;stroke-width:.3;stroke-linecap:square" id="line2d_18"/><use xlink:href="#mc974b3aae0" x="82.476" y="105.987" style="fill:#969696;stroke:#969696;stroke-width:.3" id="line2d_19"/><g style="fill:#969696" transform="matrix(.14 0 0 -.14 39.568 110.957)" id="text_12"><use xlink:href="#MyriadPro-Regular-36"/><use xlink:href="#MyriadPro-Regular-30" x="51.3"/><use xlink:href="#MyriadPro-Regular-30" x="102.6"/><use xlink:href="#MyriadPro-Regular-30" x="153.9"/><use xlink:href="#MyriadPro-Regular-30" x="205.2"/></g></g><g id="ytick_8"><path d="M82.476 76.255h357.12" clip-path="url(#p68c551a3ca)" style="fill:none;stroke:#969696;stroke-width:.3;stroke-linecap:square" id="line2d_20"/><use xlink:href="#mc974b3aae0" x="82.476" y="76.255" style="fill:#969696;stroke:#969696;stroke-width:.3" id="line2d_21"/><g style="fill:#969696" transform="matrix(.14 0 0 -.14 39.568 81.225)" id="text_13"><defs><path id="MyriadPro-Regular-37" d="M365 4160v-467h2035v-13L595 0h583l1811 3789v371H365z" transform="scale(.01563)"/></defs><use xlink:href="#MyriadPro-Regular-37"/><use xlink:href="#MyriadPro-Regular-30" x="51.3"/><use xlink:href="#MyriadPro-Regular-30" x="102.6"/><use xlink:href="#MyriadPro-Regular-30" x="153.9"/><use xlink:href="#MyriadPro-Regular-30" x="205.2"/></g></g><g id="ytick_9"><path d="M82.476 46.523h357.12" clip-path="url(#p68c551a3ca)" style="fill:none;stroke:#969696;stroke-width:.3;stroke-linecap:square" id="line2d_22"/><use xlink:href="#mc974b3aae0" x="82.476" y="46.523" style="fill:#969696;stroke:#969696;stroke-width:.3" id="line2d_23"/><g style="fill:#969696" transform="matrix(.14 0 0 -.14 39.568 51.493)" id="text_14"><use xlink:href="#MyriadPro-Regular-38"/><use xlink:href="#MyriadPro-Regular-30" x="51.3"/><use xlink:href="#MyriadPro-Regular-30" x="102.6"/><use xlink:href="#MyriadPro-Regular-30" x="153.9"/><use xlink:href="#MyriadPro-Regular-30" x="205.2"/></g></g><g style="fill:#969696" transform="matrix(.14 0 0 -.14 7.2 17.14)" id="text_15"><defs><path id="MyriadPro-Regular-47" d="M3770 2266H2349v-448h877V531c-128-64-378-115-743-115-1005 0-1664 646-1664 1741 0 1081 685 1734 1735 1734 435 0 723-83 953-185l135 454c-186 90-576 198-1076 198-1446 0-2329-940-2336-2227 0-672 231-1248 602-1606 422-403 960-570 1613-570 582 0 1075 147 1325 237v2074z" transform="scale(.01563)"/><path id="MyriadPro-Regular-69" d="M1030 0v3098H467V0h563zM749 4320c-205 0-352-154-352-352 0-192 141-346 339-346 224 0 365 154 358 346 0 198-134 352-345 352z" transform="scale(.01563)"/><path id="MyriadPro-Regular-74" d="M595 3667v-569H115v-429h480V979c0-365 58-640 218-806C947 19 1158-70 1421-70c217 0 390 38 499 83l-26 422c-83-25-172-38-326-38-314 0-422 217-422 601v1671h806v429h-806v742l-551-173z" transform="scale(.01563)"/><path id="MyriadPro-Regular-48" d="M486 4314V0h557v2022h2087V0h563v4314h-563V2509H1043v1805H486z" transform="scale(.01563)"/><path id="MyriadPro-Regular-75" d="M3059 3098h-563V1197c0-103-19-205-51-288-103-250-365-512-743-512-512 0-691 397-691 985v1716H448V1286C448 198 1030-70 1517-70c550 0 877 326 1024 576h13l32-506h499c-19 243-26 525-26 845v2253z" transform="scale(.01563)"/><path id="MyriadPro-Regular-62" d="M467 800c0-275-13-589-25-800h486l26 512h19c230-410 589-582 1037-582 691 0 1388 550 1388 1657 7 941-537 1581-1305 1581-499 0-858-224-1056-570h-13v1946H467V800zm557 998c0 90 19 167 32 231 115 429 474 691 858 691 601 0 921-531 921-1152 0-710-352-1190-941-1190-409 0-736 268-844 659-13 64-26 134-26 205v556z" transform="scale(.01563)"/><path id="MyriadPro-Regular-73" d="M250 147C467 19 781-70 1120-70c736 0 1158 390 1158 934 0 461-275 730-812 934-404 154-589 269-589 525 0 231 185 423 518 423 288 0 512-103 634-180l141 410c-173 102-448 192-762 192-666 0-1069-410-1069-909 0-371 263-678 819-877 416-153 576-300 576-569 0-256-192-461-601-461-282 0-576 115-743 224L250 147z" transform="scale(.01563)"/><path id="MyriadPro-Regular-61" d="M2643 1901c0 621-230 1267-1177 1267-391 0-762-109-1018-275l128-371c218 140 518 230 806 230 634 0 704-461 704-717v-64C890 1978 224 1568 224 819c0-448 320-889 947-889 442 0 775 217 947 460h20l44-390h512c-38 211-51 474-51 742v1159zm-544-858c0-57-13-121-32-179-89-262-345-518-749-518-288 0-531 172-531 537 0 602 698 711 1312 698v-538z" transform="scale(.01563)"/><path id="MyriadPro-Regular-72" d="M467 0h557v1651c0 96 13 186 26 263 76 422 358 723 755 723 77 0 134-7 192-19v531c-51 13-96 19-160 19-378 0-717-262-858-678h-25l-20 608H442c19-288 25-602 25-967V0z" transform="scale(.01563)"/></defs><use xlink:href="#MyriadPro-Regular-47"/><use xlink:href="#MyriadPro-Regular-69" x="64.6"/><use xlink:href="#MyriadPro-Regular-74" x="88"/><use xlink:href="#MyriadPro-Regular-48" x="121.1"/><use xlink:href="#MyriadPro-Regular-75" x="186.3"/><use xlink:href="#MyriadPro-Regular-62" x="241.4"/><use xlink:href="#MyriadPro-Regular-20" x="298.3"/><use xlink:href="#MyriadPro-Regular-73" x="319.5"/><use xlink:href="#MyriadPro-Regular-74" x="359.1"/><use xlink:href="#MyriadPro-Regular-61" x="392.2"/><use xlink:href="#MyriadPro-Regular-72" x="440.4"/><use xlink:href="#MyriadPro-Regular-73" x="473.1"/></g></g><path d="m295.735 284.38 2.617-.003 2.364-1.468 2.617-.63 2.533-.254 2.617-.523 2.533-.253 2.617-.24 2.618-.574 2.532-.292 2.618-.419 2.532-.74 2.617-.39 2.618-.318 2.364-.303 2.617-.41 2.533-.324 2.617-.464 2.532-.38 2.618-.393 2.617-.321 2.533-.556 2.617-.628 2.533-.523 2.617-.378 2.617-.374 2.364-.351 2.617-.36 2.533-.327 2.617-.315 2.533-.274 2.617-.28 2.617-.35 2.533-.31 2.617-.273 2.533-.309 2.617-.476 2.617-.368 2.449-.265 2.617-.247 2.533-.36 2.617-.69 2.533-.33 2.617-.311 2.617-.238 2.533-.583 2.617-.416 2.533-.28 2.617-.202 2.617-.31 2.364-.24 2.617-.357 2.533-.695 2.617-.342 2.533-.31 2.617-.371 2.617-.298" clip-path="url(#p68c551a3ca)" style="fill:none;stroke:#ff9896;stroke-width:1.5;stroke-linecap:square" id="line2d_24"/><path d="m347.066 284.38 2.533-.297 2.617-.077 2.533-.042 2.617-.009 2.617-.012 2.364-.03 2.617-.041 2.533-.38 2.617-.215 2.533-.175 2.617-.196 2.617-.206 2.533-.202 2.617-.226 2.533-.574 2.617-.347 2.617-.307 2.449-.333 2.617-.395 2.533-.38 2.617-.646 2.533-.803 2.617-1.653 2.617-1.097 2.533-7.388 2.617-2.46 2.533-1.105 2.617-1.353 2.617-1.281 2.364-.973 2.617-2.515 2.533-1.588 2.617-1.106 2.533-1.596 2.617-1.187 2.617-1.008" clip-path="url(#p68c551a3ca)" style="fill:none;stroke:#98df8a;stroke-width:1.5;stroke-linecap:square" id="line2d_25"/><path d="m97.757 284.38 2.617-.163 87.296-.202 2.618-.045 5.15-.217 12.748-.556 7.767-.476 5.15-.148 10.3-.497 2.617-.35 4.981-1.288 5.15-.503 5.15-1.1 15.534-1.136 2.618-.303 10.215-.618 2.533-.295 7.767-.52 5.15-.288 2.617-.116 2.617-.414 20.431-1.876 20.516-2.667 2.532-.511 5.235-.782 2.533-1.058 2.617-.491 2.533-.672 2.617-.384 4.98-.903 5.15-.735 2.618-.39 5.15-1.35 2.617-.561 2.533-1.311 2.617-.687 5.15-.904 2.617-.5 2.449-.707 2.617-.357 2.533-.687 12.917-2.494 7.767-1.847 20.515-3.87h0" clip-path="url(#p68c551a3ca)" style="fill:none;stroke:#ffbb78;stroke-width:1.5;stroke-linecap:square" id="line2d_26"/><g style="fill:#1f77b4" transform="matrix(.14 0 0 -.14 450.31 21.775)" id="text_16"><defs><path id="MyriadPro-Regular-67" d="M3110 2246c0 378 13 628 26 852h-493l-25-468h-13c-135 256-429 538-967 538-710 0-1395-595-1395-1645C243 666 794 13 1562 13c480 0 812 230 985 518h13V186c0-781-422-1082-998-1082-384 0-704 115-909 243l-141-429c250-166 659-256 1030-256 391 0 826 90 1127 372 301 268 441 704 441 1414v1798zm-556-928c0-96-13-204-45-300-122-359-435-576-781-576-608 0-915 505-915 1113 0 717 384 1171 921 1171 410 0 685-268 788-595 25-77 32-160 32-256v-557z" transform="scale(.01563)"/><path id="MyriadPro-Regular-6f" d="M1779 3168c-857 0-1536-608-1536-1645C243 544 890-70 1728-70c749 0 1542 499 1542 1644 0 948-601 1594-1491 1594zm-13-422c666 0 928-666 928-1191 0-697-403-1203-940-1203-551 0-941 512-941 1190 0 589 288 1204 953 1204z" transform="scale(.01563)"/><path id="MyriadPro-Regular-6c" d="M467 0h563v4544H467V0z" transform="scale(.01563)"/><path id="MyriadPro-Regular-6e" d="M467 0h563v1862c0 96 13 192 39 263 96 313 384 576 755 576 531 0 717-416 717-915V0h563v1850c0 1062-666 1318-1094 1318-512 0-871-288-1024-582h-13l-32 512H442c19-256 25-519 25-839V0z" transform="scale(.01563)"/><path id="MyriadPro-Regular-2f" d="m422-256 1792 4640h-435L-6-256h428z" transform="scale(.01563)"/></defs><use xlink:href="#MyriadPro-Regular-67"/><use xlink:href="#MyriadPro-Regular-6f" x="55.9"/><use xlink:href="#MyriadPro-Regular-6c" x="110.8"/><use xlink:href="#MyriadPro-Regular-61" x="134.4"/><use xlink:href="#MyriadPro-Regular-6e" x="182.6"/><use xlink:href="#MyriadPro-Regular-67" x="238.1"/><use xlink:href="#MyriadPro-Regular-2f" x="294"/><use xlink:href="#MyriadPro-Regular-67" x="328.3"/><use xlink:href="#MyriadPro-Regular-6f" x="384.2"/></g><g style="fill:#ff7f0e" transform="matrix(.14 0 0 -.14 450.31 67.88)" id="text_17"><defs><path id="MyriadPro-Regular-6d" d="M467 0h551v1869c0 96 12 192 44 275 90 282 346 563 698 563 429 0 646-358 646-851V0h551v1914c0 102 19 204 45 281 96 275 345 512 665 512 455 0 672-358 672-953V0h551v1824c0 1075-608 1344-1018 1344-294 0-499-77-685-218-128-96-249-230-345-403h-13c-135 365-455 621-877 621-512 0-800-275-973-570h-19l-26 500H442c19-256 25-519 25-839V0z" transform="scale(.01563)"/><path id="MyriadPro-Regular-63" d="M2579 538c-160-71-371-154-691-154-614 0-1075 442-1075 1158 0 647 384 1172 1094 1172 307 0 519-71 653-148l128 436c-154 76-448 160-781 160-1011 0-1664-692-1664-1645C243 570 851-70 1786-70c416 0 742 108 889 185l-96 423z" transform="scale(.01563)"/><path id="MyriadPro-Regular-66" d="M1082 0v2669h748v429h-748v166c0 474 121 896 601 896 160 0 275-32 359-70l76 435c-108 45-281 89-480 89-262 0-544-83-755-288-262-249-358-646-358-1081v-147H90v-429h435V0h557z" transform="scale(.01563)"/><path id="MyriadPro-Regular-54" d="M1306 0h563v3840h1318v474H-6v-474h1312V0z" transform="scale(.01563)"/><path id="MyriadPro-Regular-79" d="M58 3098 1203 243c26-70 39-115 39-147s-20-77-45-134c-128-288-320-506-474-628-166-140-352-230-493-275l141-473c141 25 416 121 691 364 384 333 660 877 1063 1940l845 2208h-596l-614-1818c-77-224-141-461-198-646h-13c-51 185-128 428-199 633L672 3098H58z" transform="scale(.01563)"/><path id="MyriadPro-Regular-70" d="M467-1267h557V416h13c185-307 544-486 953-486 730 0 1408 550 1408 1664 0 940-563 1574-1312 1574-505 0-870-224-1100-602h-13l-26 532H442c12-295 25-615 25-1012v-3353zm557 3059c0 77 19 160 38 230 109 423 468 698 852 698 595 0 921-531 921-1152 0-710-345-1197-941-1197-403 0-742 269-844 659-13 71-26 148-26 231v531z" transform="scale(.01563)"/><path id="MyriadPro-Regular-65" d="M2957 1446c6 58 19 148 19 263 0 569-269 1459-1280 1459-902 0-1453-736-1453-1670C243 563 813-70 1766-70c493 0 832 108 1031 198l-96 403c-211-89-455-160-858-160-563 0-1049 314-1062 1075h2176zM787 1850c45 390 295 915 864 915 634 0 787-557 781-915H787z" transform="scale(.01563)"/><path id="MyriadPro-Regular-53" d="M269 211C499 58 954-70 1370-70c1017 0 1510 582 1510 1248 0 633-371 985-1101 1267-595 230-857 429-857 832 0 294 224 646 812 646 391 0 679-128 820-205l153 455c-192 109-512 211-953 211-839 0-1396-499-1396-1171 0-608 436-973 1140-1223 582-224 812-454 812-857 0-435-332-736-902-736-384 0-749 128-998 281L269 211z" transform="scale(.01563)"/></defs><use xlink:href="#MyriadPro-Regular-6d"/><use xlink:href="#MyriadPro-Regular-69" x="83.4"/><use xlink:href="#MyriadPro-Regular-63" x="106.8"/><use xlink:href="#MyriadPro-Regular-72" x="151.6"/><use xlink:href="#MyriadPro-Regular-6f" x="184.3"/><use xlink:href="#MyriadPro-Regular-73" x="239.2"/><use xlink:href="#MyriadPro-Regular-6f" x="278.8"/><use xlink:href="#MyriadPro-Regular-66" x="333.7"/><use xlink:href="#MyriadPro-Regular-74" x="362.9"/><use xlink:href="#MyriadPro-Regular-2f" x="396"/><use xlink:href="#MyriadPro-Regular-54" x="430.3"/><use xlink:href="#MyriadPro-Regular-79" x="480"/><use xlink:href="#MyriadPro-Regular-70" x="527.1"/><use xlink:href="#MyriadPro-Regular-65" x="584"/><use xlink:href="#MyriadPro-Regular-53" x="634.1"/><use xlink:href="#MyriadPro-Regular-63" x="683.4"/><use xlink:href="#MyriadPro-Regular-72" x="728.2"/><use xlink:href="#MyriadPro-Regular-69" x="760.9"/><use xlink:href="#MyriadPro-Regular-70" x="784.3"/><use xlink:href="#MyriadPro-Regular-74" x="841.2"/></g><g style="fill:#2ca02c" transform="matrix(.14 0 0 -.14 450.31 109.04)" id="text_18"><defs><path id="MyriadPro-Regular-2d" d="M192 1939v-416h1581v416H192z" transform="scale(.01563)"/></defs><use xlink:href="#MyriadPro-Regular-72"/><use xlink:href="#MyriadPro-Regular-75" x="32.7"/><use xlink:href="#MyriadPro-Regular-73" x="87.8"/><use xlink:href="#MyriadPro-Regular-74" x="127.4"/><use xlink:href="#MyriadPro-Regular-2d" x="160.5"/><use xlink:href="#MyriadPro-Regular-6c" x="191.2"/><use xlink:href="#MyriadPro-Regular-61" x="214.8"/><use xlink:href="#MyriadPro-Regular-6e" x="263"/><use xlink:href="#MyriadPro-Regular-67" x="318.5"/><use xlink:href="#MyriadPro-Regular-2f" x="374.4"/><use xlink:href="#MyriadPro-Regular-72" x="408.7"/><use xlink:href="#MyriadPro-Regular-75" x="441.4"/><use xlink:href="#MyriadPro-Regular-73" x="496.5"/><use xlink:href="#MyriadPro-Regular-74" x="536.1"/></g><g style="fill:#d62728" transform="matrix(.14 0 0 -.14 450.31 123.195)" id="text_19"><defs><path id="MyriadPro-Regular-77" d="M115 3098 1050 0h512l499 1472c109 333 205 653 281 1024h13c77-365 167-672 275-1018L3104 0h512l998 3098h-556l-442-1556c-102-364-186-691-237-1004h-19c-70 313-160 640-275 1011l-480 1549h-474l-505-1575c-103-339-205-672-276-985h-19c-57 320-141 640-230 985L691 3098H115z" transform="scale(.01563)"/></defs><use xlink:href="#MyriadPro-Regular-61"/><use xlink:href="#MyriadPro-Regular-70" x="48.2"/><use xlink:href="#MyriadPro-Regular-70" x="105.1"/><use xlink:href="#MyriadPro-Regular-6c" x="162"/><use xlink:href="#MyriadPro-Regular-65" x="185.6"/><use xlink:href="#MyriadPro-Regular-2f" x="235.7"/><use xlink:href="#MyriadPro-Regular-73" x="270"/><use xlink:href="#MyriadPro-Regular-77" x="309.6"/><use xlink:href="#MyriadPro-Regular-69" x="383.2"/><use xlink:href="#MyriadPro-Regular-66" x="406.6"/><use xlink:href="#MyriadPro-Regular-74" x="435.8"/></g><g style="fill:#9467bd" transform="matrix(.14 0 0 -.14 450.31 154.487)" id="text_20"><defs><path id="MyriadPro-Regular-68" d="M467 0h563v1869c0 109 7 192 39 269 102 307 390 563 755 563 531 0 717-423 717-922V0h563v1843c0 1069-666 1325-1082 1325-211 0-409-64-576-160-172-96-313-237-403-397h-13v1933H467V0z" transform="scale(.01563)"/></defs><use xlink:href="#MyriadPro-Regular-70"/><use xlink:href="#MyriadPro-Regular-79" x="56.9"/><use xlink:href="#MyriadPro-Regular-74" x="104"/><use xlink:href="#MyriadPro-Regular-68" x="137.1"/><use xlink:href="#MyriadPro-Regular-6f" x="192.6"/><use xlink:href="#MyriadPro-Regular-6e" x="247.5"/><use xlink:href="#MyriadPro-Regular-2f" x="303"/><use xlink:href="#MyriadPro-Regular-63" x="337.3"/><use xlink:href="#MyriadPro-Regular-70" x="382.1"/><use xlink:href="#MyriadPro-Regular-79" x="439"/><use xlink:href="#MyriadPro-Regular-74" x="486.1"/><use xlink:href="#MyriadPro-Regular-68" x="519.2"/><use xlink:href="#MyriadPro-Regular-6f" x="574.7"/><use xlink:href="#MyriadPro-Regular-6e" x="629.6"/></g><g style="fill:#8c564b" transform="matrix(.14 0 0 -.14 450.31 168.648)" id="text_21"><defs><path id="MyriadPro-Regular-4a" d="M1370 1472c0-845-295-1069-794-1069-186 0-352 39-467 83L26 32C166-26 416-70 621-70c742 0 1305 352 1305 1497v2887h-556V1472z" transform="scale(.01563)"/><path id="MyriadPro-Regular-42" d="M486 13c186-26 480-51 864-51 704 0 1191 128 1492 403 217 211 364 493 364 864 0 640-480 979-889 1081v13c454 167 729 531 729 947 0 340-134 596-358 762-269 218-627 314-1184 314-390 0-774-39-1018-90V13zm557 3865c90 20 237 39 493 39 563 0 947-199 947-704 0-416-345-723-934-723h-506v1388zm0-1811h461c608 0 1114-243 1114-832 0-627-532-838-1108-838-198 0-358 6-467 25v1645z" transform="scale(.01563)"/><path id="MyriadPro-Regular-6b" d="M1024 4544H467V0h557v1165l288 320L2381 0h685L1702 1824l1197 1274h-678l-909-1069c-90-109-198-243-275-352h-13v2867z" transform="scale(.01563)"/></defs><use xlink:href="#MyriadPro-Regular-4a"/><use xlink:href="#MyriadPro-Regular-65" x="37"/><use xlink:href="#MyriadPro-Regular-74" x="87.1"/><use xlink:href="#MyriadPro-Regular-42" x="120.2"/><use xlink:href="#MyriadPro-Regular-72" x="174.4"/><use xlink:href="#MyriadPro-Regular-61" x="207.1"/><use xlink:href="#MyriadPro-Regular-69" x="255.3"/><use xlink:href="#MyriadPro-Regular-6e" x="278.7"/><use xlink:href="#MyriadPro-Regular-73" x="334.2"/><use xlink:href="#MyriadPro-Regular-2f" x="373.8"/><use xlink:href="#MyriadPro-Regular-6b" x="408.1"/><use xlink:href="#MyriadPro-Regular-6f" x="455"/><use xlink:href="#MyriadPro-Regular-74" x="509.9"/><use xlink:href="#MyriadPro-Regular-6c" x="543"/><use xlink:href="#MyriadPro-Regular-69" x="566.6"/><use xlink:href="#MyriadPro-Regular-6e" x="590"/></g><g style="fill:#e377c2" transform="matrix(.14 0 0 -.14 450.31 182.557)" id="text_22"><defs><path id="MyriadPro-Regular-4c" d="M486 0h2400v467H1043v3847H486V0z" transform="scale(.01563)"/><path id="MyriadPro-Regular-6a" d="M-230-1350c300 0 710 102 960 352 275 281 371 672 371 1273v2823H538V493c0-743-58-992-212-1165C192-819-32-890-288-909l58-441zM826 4320c-212 0-359-154-359-352 0-186 135-346 346-346 224 0 358 160 352 346 0 198-135 352-339 352z" transform="scale(.01563)"/></defs><use xlink:href="#MyriadPro-Regular-4a"/><use xlink:href="#MyriadPro-Regular-75" x="37"/><use xlink:href="#MyriadPro-Regular-6c" x="92.1"/><use xlink:href="#MyriadPro-Regular-69" x="115.7"/><use xlink:href="#MyriadPro-Regular-61" x="139.1"/><use xlink:href="#MyriadPro-Regular-4c" x="187.3"/><use xlink:href="#MyriadPro-Regular-61" x="234.5"/><use xlink:href="#MyriadPro-Regular-6e" x="282.7"/><use xlink:href="#MyriadPro-Regular-67" x="338.2"/><use xlink:href="#MyriadPro-Regular-2f" x="394.1"/><use xlink:href="#MyriadPro-Regular-6a" x="428.4"/><use xlink:href="#MyriadPro-Regular-75" x="452.7"/><use xlink:href="#MyriadPro-Regular-6c" x="507.8"/><use xlink:href="#MyriadPro-Regular-69" x="531.4"/><use xlink:href="#MyriadPro-Regular-61" x="554.8"/></g><g style="fill:#7f7f7f" transform="matrix(.14 0 0 -.14 450.31 196.648)" id="text_23"><use xlink:href="#MyriadPro-Regular-70"/><use xlink:href="#MyriadPro-Regular-68" x="56.9"/><use xlink:href="#MyriadPro-Regular-70" x="112.4"/><use xlink:href="#MyriadPro-Regular-2f" x="169.3"/><use xlink:href="#MyriadPro-Regular-70" x="203.6"/><use xlink:href="#MyriadPro-Regular-68" x="260.5"/><use xlink:href="#MyriadPro-Regular-70" x="316"/><use xlink:href="#MyriadPro-Regular-2d" x="372.9"/><use xlink:href="#MyriadPro-Regular-73" x="403.6"/><use xlink:href="#MyriadPro-Regular-72" x="443.2"/><use xlink:href="#MyriadPro-Regular-63" x="475.9"/></g><g style="fill:#bcbd22" transform="matrix(.14 0 0 -.14 450.31 210.57)" id="text_24"><defs><path id="MyriadPro-Regular-76" d="M83 3098 1261 0h537l1216 3098h-588l-602-1741c-102-282-192-538-262-794h-20c-64 256-147 512-249 794L685 3098H83z" transform="scale(.01563)"/></defs><use xlink:href="#MyriadPro-Regular-76"/><use xlink:href="#MyriadPro-Regular-6c" x="48.1"/><use xlink:href="#MyriadPro-Regular-61" x="71.7"/><use xlink:href="#MyriadPro-Regular-6e" x="119.9"/><use xlink:href="#MyriadPro-Regular-67" x="175.4"/><use xlink:href="#MyriadPro-Regular-2f" x="231.3"/><use xlink:href="#MyriadPro-Regular-76" x="265.6"/></g><g style="fill:#17becf" transform="matrix(.14 0 0 -.14 450.31 224.487)" id="text_25"><use xlink:href="#MyriadPro-Regular-72"/><use xlink:href="#MyriadPro-Regular-75" x="32.7"/><use xlink:href="#MyriadPro-Regular-62" x="87.8"/><use xlink:href="#MyriadPro-Regular-79" x="144.7"/><use xlink:href="#MyriadPro-Regular-2f" x="191.8"/><use xlink:href="#MyriadPro-Regular-72" x="226.1"/><use xlink:href="#MyriadPro-Regular-75" x="258.8"/><use xlink:href="#MyriadPro-Regular-62" x="313.9"/><use xlink:href="#MyriadPro-Regular-79" x="370.8"/></g><g style="fill:#aec7e8" transform="matrix(.14 0 0 -.14 450.31 238.487)" id="text_26"><use xlink:href="#MyriadPro-Regular-63"/><use xlink:href="#MyriadPro-Regular-72" x="44.8"/><use xlink:href="#MyriadPro-Regular-79" x="77.5"/><use xlink:href="#MyriadPro-Regular-73" x="124.6"/><use xlink:href="#MyriadPro-Regular-74" x="164.2"/><use xlink:href="#MyriadPro-Regular-61" x="197.3"/><use xlink:href="#MyriadPro-Regular-6c" x="245.5"/><use xlink:href="#MyriadPro-Regular-2d" x="269.1"/><use xlink:href="#MyriadPro-Regular-6c" x="299.8"/><use xlink:href="#MyriadPro-Regular-61" x="323.4"/><use xlink:href="#MyriadPro-Regular-6e" x="371.6"/><use xlink:href="#MyriadPro-Regular-67" x="427.1"/><use xlink:href="#MyriadPro-Regular-2f" x="483"/><use xlink:href="#MyriadPro-Regular-63" x="517.3"/><use xlink:href="#MyriadPro-Regular-72" x="562.1"/><use xlink:href="#MyriadPro-Regular-79" x="594.8"/><use xlink:href="#MyriadPro-Regular-73" x="641.9"/><use xlink:href="#MyriadPro-Regular-74" x="681.5"/><use xlink:href="#MyriadPro-Regular-61" x="714.6"/><use xlink:href="#MyriadPro-Regular-6c" x="762.8"/></g><g style="fill:#ffbb78" transform="matrix(.14 0 0 -.14 450.31 252.57)" id="text_27"><defs><path id="MyriadPro-Regular-4e" d="M1011 0v1843c0 717-13 1235-45 1779l20 7c217-467 505-960 806-1440L3162 0h563v4314h-525V2509c0-672 13-1197 64-1773l-13-6c-205 441-454 896-774 1401L1094 4314H486V0h525z" transform="scale(.01563)"/></defs><use xlink:href="#MyriadPro-Regular-6e"/><use xlink:href="#MyriadPro-Regular-69" x="55.5"/><use xlink:href="#MyriadPro-Regular-6d" x="78.9"/><use xlink:href="#MyriadPro-Regular-2d" x="162.3"/><use xlink:href="#MyriadPro-Regular-6c" x="193"/><use xlink:href="#MyriadPro-Regular-61" x="216.6"/><use xlink:href="#MyriadPro-Regular-6e" x="264.8"/><use xlink:href="#MyriadPro-Regular-67" x="320.3"/><use xlink:href="#MyriadPro-Regular-2f" x="376.2"/><use xlink:href="#MyriadPro-Regular-4e" x="410.5"/><use xlink:href="#MyriadPro-Regular-69" x="476.3"/><use xlink:href="#MyriadPro-Regular-6d" x="499.7"/></g><g style="fill:#98df8a" transform="matrix(.14 0 0 -.14 450.31 266.557)" id="text_28"><defs><path id="MyriadPro-Regular-64" d="M2579 4544V2694h-13c-140 250-460 474-934 474-755 0-1395-634-1389-1664C243 563 819-70 1568-70c506 0 883 262 1056 608h13l25-538h506c-19 211-26 525-26 800v3744h-563zm0-3245c0-89-6-166-25-243-103-422-448-672-826-672-608 0-915 518-915 1146 0 684 345 1196 928 1196 422 0 729-294 813-652 19-71 25-167 25-237v-538z" transform="scale(.01563)"/></defs><use xlink:href="#MyriadPro-Regular-6f"/><use xlink:href="#MyriadPro-Regular-70" x="54.9"/><use xlink:href="#MyriadPro-Regular-65" x="111.8"/><use xlink:href="#MyriadPro-Regular-6e" x="161.9"/><use xlink:href="#MyriadPro-Regular-6a" x="217.4"/><use xlink:href="#MyriadPro-Regular-64" x="241.7"/><use xlink:href="#MyriadPro-Regular-6b" x="298.1"/><use xlink:href="#MyriadPro-Regular-2f" x="345"/><use xlink:href="#MyriadPro-Regular-6a" x="379.3"/><use xlink:href="#MyriadPro-Regular-64" x="403.6"/><use xlink:href="#MyriadPro-Regular-6b" x="460"/></g><g style="fill:#ff9896" transform="matrix(.14 0 0 -.14 450.31 280.57)" id="text_29"><use xlink:href="#MyriadPro-Regular-64"/><use xlink:href="#MyriadPro-Regular-6f" x="56.4"/><use xlink:href="#MyriadPro-Regular-74" x="111.3"/><use xlink:href="#MyriadPro-Regular-6e" x="144.4"/><use xlink:href="#MyriadPro-Regular-65" x="199.9"/><use xlink:href="#MyriadPro-Regular-74" x="250"/><use xlink:href="#MyriadPro-Regular-2f" x="283.1"/><use xlink:href="#MyriadPro-Regular-63" x="317.4"/><use xlink:href="#MyriadPro-Regular-73" x="362.2"/><use xlink:href="#MyriadPro-Regular-68" x="401.8"/><use xlink:href="#MyriadPro-Regular-61" x="457.3"/><use xlink:href="#MyriadPro-Regular-72" x="505.5"/><use xlink:href="#MyriadPro-Regular-70" x="538.2"/><use xlink:href="#MyriadPro-Regular-6c" x="595.1"/><use xlink:href="#MyriadPro-Regular-61" x="618.7"/><use xlink:href="#MyriadPro-Regular-6e" x="666.9"/><use xlink:href="#MyriadPro-Regular-67" x="722.4"/></g><g style="fill:#969696" transform="matrix(.09716 0 0 -.09716 82.476 318.278)" id="text_30"><defs><path id="MyriadPro-Regular-41" d="M2714 1357 3174 0h596L2298 4314h-672L160 0h576l448 1357h1530zm-1415 435 423 1248c83 262 153 525 217 781h13c64-250 128-506 224-787l422-1242H1299z" transform="scale(.01563)"/><path id="MyriadPro-Regular-50" d="M486 0h557v1728c128-32 282-38 448-38 544 0 1024 160 1319 473 217 224 332 531 332 922 0 384-140 697-377 902-256 231-659 359-1210 359-448 0-800-39-1069-84V0zm557 3859c96 26 282 45 525 45 614 0 1018-275 1018-845 0-595-410-921-1082-921-186 0-339 12-461 44v1677z" transform="scale(.01563)"/><path id="MyriadPro-Regular-49" d="M486 4314V0h557v4314H486z" transform="scale(.01563)"/><path id="MyriadPro-Regular-7c" d="M550 4800v-6400h429v6400H550z" transform="scale(.01563)"/><path id="MyriadPro-Regular-f6" d="M1165 3648c185 0 313 154 313 326 0 186-134 327-313 327s-327-147-327-327c0-172 135-326 320-326h7zm1184 0c185 0 313 154 313 326 0 186-134 327-313 327s-320-147-320-327c0-172 128-326 313-326h7zm-570-480c-857 0-1536-608-1536-1645C243 544 890-70 1728-70c749 0 1542 499 1542 1644 0 948-601 1594-1491 1594zm-13-422c666 0 928-666 928-1191 0-697-403-1203-940-1203-551 0-941 512-941 1190 0 589 288 1204 953 1204z" transform="scale(.01563)"/><path id="MyriadPro-Regular-43" d="M3386 582c-224-108-570-179-909-179-1050 0-1658 679-1658 1735 0 1132 672 1779 1683 1779 359 0 660-77 871-179l134 454c-147 77-486 192-1024 192-1337 0-2253-915-2253-2266C230 704 1146-70 2362-70c524 0 934 108 1139 211l-115 441z" transform="scale(.01563)"/><path id="MyriadPro-Regular-59" d="M2010 0v1837l1446 2477h-634l-620-1191c-167-326-314-608-436-889h-12c-135 300-263 563-429 889L717 4314H83l1363-2484V0h564z" transform="scale(.01563)"/></defs><use xlink:href="#MyriadPro-Regular-47"/><use xlink:href="#MyriadPro-Regular-69" x="64.6"/><use xlink:href="#MyriadPro-Regular-74" x="88"/><use xlink:href="#MyriadPro-Regular-48" x="121.1"/><use xlink:href="#MyriadPro-Regular-75" x="186.3"/><use xlink:href="#MyriadPro-Regular-62" x="241.4"/><use xlink:href="#MyriadPro-Regular-20" x="298.3"/><use xlink:href="#MyriadPro-Regular-41" x="319.5"/><use xlink:href="#MyriadPro-Regular-50" x="380.7"/><use xlink:href="#MyriadPro-Regular-49" x="433.9"/><use xlink:href="#MyriadPro-Regular-20" x="457.8"/><use xlink:href="#MyriadPro-Regular-76" x="479"/><use xlink:href="#MyriadPro-Regular-69" x="527.1"/><use xlink:href="#MyriadPro-Regular-61" x="550.5"/><use xlink:href="#MyriadPro-Regular-20" x="598.7"/><use xlink:href="#MyriadPro-Regular-73" x="619.9"/><use xlink:href="#MyriadPro-Regular-74" x="659.5"/><use xlink:href="#MyriadPro-Regular-61" x="692.6"/><use xlink:href="#MyriadPro-Regular-72" x="740.8"/><use xlink:href="#MyriadPro-Regular-67" x="773.5"/><use xlink:href="#MyriadPro-Regular-72" x="829.4"/><use xlink:href="#MyriadPro-Regular-61" x="862.1"/><use xlink:href="#MyriadPro-Regular-70" x="910.3"/><use xlink:href="#MyriadPro-Regular-68" x="967.2"/><use xlink:href="#MyriadPro-Regular-20" x="1022.7"/><use xlink:href="#MyriadPro-Regular-7c" x="1043.9"/><use xlink:href="#MyriadPro-Regular-20" x="1067.8"/><use xlink:href="#MyriadPro-Regular-4e" x="1089"/><use xlink:href="#MyriadPro-Regular-69" x="1154.8"/><use xlink:href="#MyriadPro-Regular-63" x="1178.2"/><use xlink:href="#MyriadPro-Regular-6f" x="1223"/><use xlink:href="#MyriadPro-Regular-20" x="1277.9"/><use xlink:href="#MyriadPro-Regular-53" x="1299.1"/><use xlink:href="#MyriadPro-Regular-63" x="1348.4"/><use xlink:href="#MyriadPro-Regular-68" x="1393.2"/><use xlink:href="#MyriadPro-Regular-6c" x="1448.7"/><use xlink:href="#MyriadPro-Regular-f6" x="1472.3"/><use xlink:href="#MyriadPro-Regular-6d" x="1527.2"/><use xlink:href="#MyriadPro-Regular-65" x="1610.6"/><use xlink:href="#MyriadPro-Regular-72" x="1660.7"/><use xlink:href="#MyriadPro-Regular-20" x="1693.4"/><use xlink:href="#MyriadPro-Regular-7c" x="1714.6"/><use xlink:href="#MyriadPro-Regular-20" x="1738.5"/><use xlink:href="#MyriadPro-Regular-43" x="1759.7"/><use xlink:href="#MyriadPro-Regular-43" x="1817.7"/><use xlink:href="#MyriadPro-Regular-20" x="1875.7"/><use xlink:href="#MyriadPro-Regular-42" x="1896.9"/><use xlink:href="#MyriadPro-Regular-59" x="1951.1"/></g><path d="m167.24 284.38 2.532-.006H175.007l2.364-.035 2.617-.164 2.533-.018 2.617-.247 2.532-.011 2.618-.057 2.617-.024 2.533-.755 2.617-.053 2.533-.033 2.617-.042 2.617-.074 2.364-.045 2.617-.03 2.533-.041 2.617-.05 2.533-.027 2.617-.024 2.617-.03 2.533-.038 2.617-.033 2.533-.752 2.617-.217 2.617-.161 2.364-.119 2.617-.354 2.533-.452 2.617-.794 2.533-1.703 2.617-.788 2.617-1.186 2.533-.845 2.617-.556 2.533-.54 2.617-.688 2.618-.38 2.448-.518 2.617-.788 2.533-.395 2.617-.696 2.533-.553 2.617-.357 2.617-1.745 2.533-.559 2.617-.612 2.533-.527 2.617-1.51 2.617-.443 2.364-.64 2.617-.73 2.533-.7 2.617-.624 2.533-.749 2.617-.482 2.618-.8 2.532-.758 2.618-.668 2.532-.732 2.617-.699 2.618-.713 2.364-.52 2.617-.414 2.533-.639 2.617-.636 2.532-1.038 2.618-.743 2.617-.726 2.533-.624 2.617-.586 2.533-.523 2.617-.44 2.617-.535 2.364-.423 2.617-.677 2.533-.86 2.617-.348 2.533-.466 2.617-.39 2.617-.559 2.533-.383 2.617-.42 2.533-.33 2.617-.517 2.617-.285 2.449-.518 2.617-.374 2.533-.372 2.617-.401 2.533-.437 2.617-.253 2.617-.303 2.533-.265 2.617-.223 2.533-.282 2.617-.283 2.617-.3 2.364-.312 2.617-1.995 2.533-.586 2.617-.38 2.533-.325 2.617-.443 2.617-.357" clip-path="url(#p68c551a3ca)" style="fill:none;stroke:#aec7e8;stroke-width:1.5;stroke-linecap:square" id="line2d_27"/><path d="m82.476 284.38 2.364-3.452 35.965-2.86 36.05-2.144 10.384-.214 7.768-.086 4.98-.52 15.45-1.677 5.15-.583 7.599-1.136 10.3-1.668 5.234-.707 2.533-.541 5.15-.848L239 266.48l5.15-1.178 10.384-2.093 2.533-.437 7.767-1.778 7.683-1.695 2.533-.517 15.534-3.8 5.15-1.082 7.598-1.882 5.15-1.133 12.918-3.009 15.28-3.306 12.918-1.971 2.617-.363 2.533-.47 2.617-.363 2.617-.502 4.981-.67 2.533-.552 5.15-.815 7.767-1.064 7.767-.886 12.833-1.534 7.767-1.199 2.533-.588 5.15-.705 2.617-.696 20.515-2.59h0" clip-path="url(#p68c551a3ca)" style="fill:none;stroke:#17becf;stroke-width:1.5;stroke-linecap:square" id="line2d_28"/><path d="m359.983 284.38 2.364-.734 2.617-3.693 2.533-2.783 2.617-.544 2.533-14.863 2.617-5.61 2.617-1.74 2.533-1.546 2.617-5.346 2.533-2.161 2.617-1.398 2.617-2.664 2.449-1.596 2.617-1.424 2.533-1.288 2.617-1.608 2.533-1.555 2.617-1.484 2.617-.865 2.533-1.133 2.617-.77 2.533-2.414 2.617-4.362 2.617-2.2 2.364-3.158 2.617-1.34 2.533-1.023 2.617-1.22 2.533-1.578 2.617-1.157 2.617-1.93" clip-path="url(#p68c551a3ca)" style="fill:none;stroke:#bcbd22;stroke-width:1.5;stroke-linecap:square" id="line2d_29"/><path d="m123.423 284.38 2.532-4.691 2.618-.182 2.617-.166 2.533-.179 2.617-.154 2.533-.158 2.617-.193 2.617-.134 2.448-.149 2.617-.22 2.533-.154 2.617-.14 2.533-.101 2.617-.104 2.618-.039 2.532-.038 2.617-.027 2.533-.021 2.617-.006 2.618-.018 2.364-.122 2.617-.309 2.533-.158 2.617-.175 2.532-.321 2.618-.202 2.617-.253 2.533-.181 2.617-.188 2.533-.22 2.617-.267 2.617-.345 2.364-.232 2.617-.303 2.533-.283 2.617-.339 2.533-.252 2.617-.432 2.617-.451 2.533-.351 2.617-.304 2.533-.324 2.617-.362 2.617-.417 2.364-.452 2.617-.576 2.533-.414 2.617-.472 2.533-.663 2.617-.702 2.617-.485 2.533-.547 2.617-.675 2.533-.725 2.617-2.798 2.618-.47 2.448-.481 2.617-.518 2.533-.55 2.617-.52 2.533-.568 2.617-.615 2.617-.625 2.533-.618 2.617-.532 2.533-.423 2.617-.517 2.617-1.945 2.364-.517 2.617-.597 2.533-.61 2.617-.562 2.533-.672 2.617-.788 2.618-.648 2.532-.75 2.618-.707 2.532-.562 2.617-1.772 2.618-2.89 2.364-2.95 2.617-2.277 2.533-1.617 2.617-1.377 2.532-1.347 2.618-1.192 2.617-1.29 2.533-1.427 2.617-1.624 2.533-1.602 2.617-1.481 2.617-1.49 2.364-1.29 2.617-1.579 2.533-1.552 2.617-1.358 2.533-1.172 2.617-1.18 2.617-1.478 2.533-1.142 2.617-1.079 2.533-1.249 2.617-1.082 2.617-.975 2.449-.809 2.617-.919 2.533-.776 2.617-.811 2.533-1.011 2.617-.86 2.617-.775 2.533-.658 2.617-.927 2.533-1.082 2.617-.714 2.617-.678 2.364-.651 2.617-2.129 2.533-1.195 2.617-.717 2.533-.615 2.617-.586 2.617-.633" clip-path="url(#p68c551a3ca)" style="fill:none;stroke:#7f7f7f;stroke-width:1.5;stroke-linecap:square" id="line2d_30"/><path d="m118.273 284.38 2.532-3.285 2.618-.098 2.532-.149 2.618-.056 2.617-.101 2.533-.128 2.617-.08 2.533-.093 2.617-.095 2.617-.104 2.448-.116 2.617-.095 2.533-.098 2.617-.057 2.533-.05 2.617-.045 2.618-.018 2.532-.026 2.617-.012 2.533-.033h2.617l2.618-.006 2.364-.25 2.617-.196 2.533-.244 2.617-.175 2.532-.158 2.618-.157 2.617-.408 2.533-.157 2.617-.176 2.533-.362 2.617-.372 2.617-.544 2.364-.758 2.617-.488 2.533-.315 2.617-.354 2.533-.291 2.617-.437 2.617-.434 2.533-.438 2.617-.371 2.533-.443 2.617-.422 2.617-.375 2.364-.404 2.617-.458 2.533-.354 2.617-.47 2.533-.345 2.617-.273 2.617-.327 2.533-.384 2.617-.428 2.533-.5 2.617-.44 2.618-.374 2.448-.318 2.617-.369 2.533-.336 2.617-.282 2.533-.327 2.617-.37 2.617-.37 2.533-.536 2.617-.369 2.533-.368 2.617-.304 2.617-.544 2.364-.416 2.617-.42 2.533-.44 2.617-.386 2.533-.475 2.617-.366 2.618-.428 2.532-.428 2.618-.553 2.532-.48 2.617-.558 2.618-.687 2.364-.761 2.617-.75 2.533-.772 2.617-.946 2.532-.758 2.618-.776 2.617-13.445 2.533-3.187 2.617-1.983 2.533-1.338 2.617-1.615 2.617-2.36 2.364-1.781 2.617-1.87 2.533-1.41 2.617-1.445 2.533-1.171 2.617-1.341 2.617-1.359 2.533-1.038 2.617-1.008 2.533-1.144 2.617-1.383 2.617-1.201 2.449-.916 2.617-1.43 2.533-1.204 2.617-3.22 2.533-1.674 2.617-1.507 2.617-1.683 2.533-1.808 2.617-1.87 2.533-2.135 2.617-1.796 2.617-1.403 2.364-1.166 2.617-2.925 2.533-1.395 2.617-1.228 2.533-1.15 2.617-4.627 2.617-1.465" clip-path="url(#p68c551a3ca)" style="fill:none;stroke:#e377c2;stroke-width:1.5;stroke-linecap:square" id="line2d_31"/><path d="m144.107 284.38 2.448-.859 2.617-.033 2.533-.012 2.617-.011h2.533l2.617-.006h7.767l2.533-.006 2.617-.003 2.618-.003 2.364-.024 2.617-.05 2.533-.03 2.617-.039 2.532-.03 2.618-.047 2.617-.012 2.533-.036 2.617-.047 2.533-.069 2.617-.053 2.617-.036 2.364-.036 2.617-.044 2.533-.048 2.617-.039 2.533-.053 2.617-.176 2.617-.074 2.533-.175 2.617-.202 2.533-.116 2.617-.176 2.617-.288 2.364-.259 2.617-.303 2.533-.277 2.617-.28 2.533-.326 2.617-.518 2.617-.214 2.533-.395 2.617-.562 2.533-.815 2.617-.695 2.618-.69 2.448-3.464 2.617-1.112 2.533-.714 2.617-.627 2.533-.61 2.617-.573 2.617-.562 2.533-.574 2.617-.615 2.533-.7 2.617-.558 2.617-.729 2.364-.686 2.617-.99 2.533-.949 2.617-17.063 2.533-4.255 2.617-1.998 2.618-2.07 2.532-1.76 2.618-1.983 2.532-2.334 2.617-1.983 2.618-1.864 2.364-1.573 2.617-1.712 2.533-1.448 2.617-1.54 2.532-1.288 2.618-1.397 2.617-1.457 2.533-1.213 2.617-1.814 2.533-1.391 2.617-1.32 2.617-1.187 2.364-1.031 2.617-1.216 2.533-1.43 2.617-1.544 2.533-1.124 2.617-1.34 2.617-1.178 2.533-1.04 2.617-.958 2.533-1.12 2.617-1.015 2.617-.91 2.449-1.159 2.617-1.148 2.533-1.234 2.617-1.222 2.533-1.31 2.617-1.33 2.617-1.281 2.533-1.074 2.617-1.153 2.533-1.127 2.617-1.008 2.617-2.099 2.364-1.403 2.617-1.514 2.533-1.025 2.617-1.098 2.533-3.903 2.617-1.338 2.617-1.303" clip-path="url(#p68c551a3ca)" style="fill:none;stroke:#8c564b;stroke-width:1.5;stroke-linecap:square" id="line2d_32"/><path d="m298.352 284.38 2.364-16.772 2.617-2.03 2.533-1.347 2.617-1.201 2.533-2.626 2.617-8.239 2.618-1.736 2.532-1.843 2.618-2.007 2.532-1.561 2.617-1.564 2.618-2.102 2.364-1.573 2.617-1.724 2.533-1.538 2.617-1.6 2.532-1.426 2.618-1.763 2.617-1.484 2.533-1.805 2.617-1.483 2.533-1.686 2.617-1.671 2.617-1.561 2.364-1.683 2.617-1.832 2.533-1.79 2.617-2.134 2.533-1.754 2.617-1.87 2.617-1.83 2.533-1.572 2.617-1.769 2.533-1.778 2.617-1.617 2.617-1.612 2.449-1.495 2.617-1.716 2.533-2.051 2.617-2.097 2.533-2.227 2.617-1.95 2.617-1.677 2.533-1.617 2.617-1.674 2.533-1.805 2.617-1.698 2.617-1.894 2.364-1.724 2.617-1.852 2.533-2.1 2.617-2.04 2.533-1.777 2.617-1.894 2.617-1.986" clip-path="url(#p68c551a3ca)" style="fill:none;stroke:#9467bd;stroke-width:1.5;stroke-linecap:square" id="line2d_33"/><path d="m257.068 284.38 2.617-.006 2.533-.032 2.617-66.253 2.618-3.91 2.448-2.708 2.617-2.875 2.533-4.454 2.617-2.76 2.533-3.37 2.617-2.195 2.617-2.298 2.533-2.195 2.617-1.932 2.533-1.43 2.617-1.418 2.617-1.998 2.364-1.66 2.617-2.176 2.533-1.439 2.617-1.49 2.533-1.611 2.617-1.451 2.618-1.484 2.532-1.724 2.618-1.962 2.532-1.517 2.617-1.216 2.618-1.234 2.364-1.052 2.617-1.44 2.533-1.5 2.617-1.244 2.532-1.248 2.618-1.118 2.617-1.056 2.533-1.192 2.617-1.061 2.533-.916 2.617-1.065 2.617-1.177 2.364-.966 2.617-1.398 2.533-1.275 2.617-1.172 2.533-1.465 2.617-1.145 2.617-1.026 2.533-.951 2.617-1.103 2.533-1.276 2.617-.954 2.617-1.017 2.449-.88 2.617-1.142 2.533-1.311 2.617-1.389 2.533-1.397 2.617-1.852 2.617-.978 2.533-1.886 2.617-1.23 2.533-1.166 2.617-1.091 2.617-.972 2.364-1.02 2.617-1.365 2.533-1.032 2.617-1.031 2.533-1.225 2.617-1.023 2.617-1.451" clip-path="url(#p68c551a3ca)" style="fill:none;stroke:#d62728;stroke-width:1.5;stroke-linecap:square" id="line2d_34"/><path d="m92.607 284.38 2.533-2.51 5.234-.207 12.918-.476 12.663-.479 30.9-.597 20.516-.277 2.617-.229 2.533-1.198 10.384-1.498 2.533-.393 2.617-.53 2.533-.344 2.617-.494 4.98-1.525 2.618-.675 2.533-.9 2.617-.684 2.533-.931 2.617-1.18 2.617-.839 2.533-1.014 2.617-1.43 2.533-1.19 2.617-1.643 2.617-2.444 2.364-1.142 2.617-1.014 2.533-1.742 2.617-3.577 2.533-1.496 2.617-1.01 5.15-2.406 2.617-1.296 2.533-.8 5.235-2.483 2.448-.859 2.617-1.683 7.683-3.526 10.384-4.62 2.533-.987 2.617-1.341 2.617-1.665 10.131-5.406 10.3-4.822 2.618-1.751 2.532-2.049 2.617-1.721 2.618-1.921 2.364-1.487 2.617-1.995 2.533-1.787 2.617-1.68 5.15-3.704 5.15-3.696 2.617-1.695 5.15-4.088 2.617-2.714 2.364-1.68 2.617-2.046 2.533-2.667 5.15-3.972 2.617-2.765 2.617-2.31 5.15-3.794 2.533-2.444 5.234-4.279 2.449-2.23 2.617-2.167 5.15-5.173 2.533-3.146 2.617-2.92 5.15-4.534 2.617-2.054 2.533-2.21 5.234-5.363 2.364-3.494 2.617-2.69 2.533-2.876 2.617-4.09 2.533-2.112 5.234-6.77h0" clip-path="url(#p68c551a3ca)" style="fill:none;stroke:#2ca02c;stroke-width:1.5;stroke-linecap:square" id="line2d_35"/><path d="m218.486 284.38 2.617-4.457 2.617-.802 2.533-.455 2.617-.714 2.533-1.266 2.617-.568 2.617-.625 2.364-.523 2.617-2.022 2.533-1.492 2.617-1.335 2.533-.952 2.617-1.079 2.617-1.061 2.533-1.05 2.617-1.219 2.533-1.614 2.617-1.547 2.618-1.754 2.448-1.677 2.617-2.099 2.533-2.01 2.617-1.917 2.533-2.215 2.617-2.712 2.617-2.173 2.533-2.709 2.617-2.474 2.533-2.37 2.617-2.063 2.617-2.218 2.364-2.521 2.617-2.774 2.533-3.119 2.617-2.667 2.533-2.637 2.617-2.813 2.618-3.044 2.532-2.397 2.618-3.324 2.532-3.116 2.617-2.896 2.618-3.264 2.364-2.81 2.617-3.223 2.533-2.95 2.617-3.086 2.532-4.457 2.618-3.463 2.617-3.425 2.533-3.194 2.617-4.025 2.533-3.045 2.617-3.574 2.617-4.302 2.364-3.538 2.617-4.21 2.533-3.815 2.617-4.18 2.533-3.417 2.617-3.668 2.617-3.283 2.533-3.196 2.617-3.167 2.533-2.63 2.617-2.492 2.617-2.314 2.449-2.2 2.617-2.313 2.533-2.717 2.617-3.396 2.533-2.72 2.617-2.926 2.617-3.723 2.533-2.568 2.617-2.147 2.533-3.595 2.617-2.744 2.617-2.78 2.364-2.277 2.617-2.79 2.533-2.574 2.617-3.184 2.533-3.104 2.617-2.54 2.617-2.494" clip-path="url(#p68c551a3ca)" style="fill:none;stroke:#ff7f0e;stroke-width:1.5;stroke-linecap:square" id="line2d_36"/><path d="m231.403 284.38 2.617-13.257 2.617-2.037 2.364-1.718 2.617-1.722 2.533-1.41 2.617-1.522 2.533-1.436 2.617-1.846 2.617-2.254 2.533-1.983 2.617-1.772 2.533-2.191 2.617-2.245 2.618-1.944 2.448-1.954 2.617-2.417 2.533-2.01 2.617-2.245 2.533-2.096 2.617-2.248 2.617-2.601 2.533-2.527 2.617-2.792 2.533-2.23 2.617-2.194 2.617-2.893 2.364-3.241 2.617-2.881 2.533-2.902 2.617-2.834 2.533-2.622 2.617-3.22 2.618-2.991 2.532-2.848 2.618-3.568 2.532-3.259 2.617-3.089 2.618-3.49 2.364-3.432 2.617-3.88 2.533-3.716 2.617-3.678 2.532-3.824 2.618-4.192 2.617-4.103 2.533-3.69 2.617-3.422 2.533-4.052 2.617-4.026 2.617-4.044 2.364-3.532 2.617-4.96 2.533-5.678 2.617-4.543 2.533-3.815 2.617-4.275 2.617-3.987 2.533-3.729 2.617-3.927 2.533-3.393 2.617-3.416 2.617-3.253 2.449-3.047 2.617-3.86 2.533-3.874 2.617-3.734 2.533-3.303 2.617-3.363 2.617-3.538 2.533-3.321 2.617-3.378 2.533-3.984 2.617-3.473 2.617-3.55 2.364-4.245 2.617-4 2.533-3.728 2.617-4.085 2.533-3.538 2.617-3.404 2.617-3.63" clip-path="url(#p68c551a3ca)" style="fill:none;stroke:#1f77b4;stroke-width:1.5;stroke-linecap:square" id="line2d_37"/></g></g><defs><clipPath id="p68c551a3ca"><path d="M82.476 18.268h357.12V284.38H82.476z"/></clipPath></defs></svg>