<svg height="467.994" viewBox="0 0 609.469 350.995" width="812.625" xmlns="http://www.w3.org/2000/svg" xmlns:xlink="http://www.w3.org/1999/xlink"><defs><style>*{stroke-linecap:butt;stroke-linejoin:round}</style></defs><g id="figure_1"><path d="M0 350.995h609.469V0H0z" style="fill:none" id="patch_1"/><g id="axes_1"><path d="M82.476 307.468h357.12V41.356H82.476z" style="fill:none" id="patch_2"/><g id="matplotlib.axis_1"><g id="xtick_1"><g id="line2d_1"><defs><path d="M0 0v3.5" id="mde60e2af0b" style="stroke:#969696;stroke-width:.4"/></defs><use style="fill:#969696;stroke:#969696;stroke-width:.4" x="112.451" xlink:href="#mde60e2af0b" y="307.468"/></g><g style="fill:#969696" transform="matrix(.14 0 0 -.14 98.088 324.408)" id="text_1"><defs><path d="M2944 0v467H1075v13l333 307c877 845 1434 1466 1434 2234 0 595-378 1209-1274 1209-480 0-890-179-1178-422l180-397c192 160 505 352 883 352 621 0 825-390 825-813-6-627-486-1164-1548-2176L288 346V0h2656z" id="MyriadPro-Regular-32" transform="scale(.01563)"/><path d="M1677 4230c-845 0-1447-768-1447-2163C243 691 794-70 1606-70c922 0 1447 780 1447 2195 0 1325-499 2105-1376 2105zm-32-435c582 0 845-672 845-1696 0-1062-276-1734-852-1734-512 0-844 614-844 1696 0 1133 358 1734 851 1734z" id="MyriadPro-Regular-30" transform="scale(.01563)"/><path d="M1510 0h544v4160h-480l-908-486 108-429 724 390h12V0z" id="MyriadPro-Regular-31" transform="scale(.01563)"/></defs><use xlink:href="#MyriadPro-Regular-32"/><use x="51.3" xlink:href="#MyriadPro-Regular-30"/><use x="102.6" xlink:href="#MyriadPro-Regular-31"/><use x="153.9" xlink:href="#MyriadPro-Regular-30"/></g></g><g id="xtick_2"><use style="fill:#969696;stroke:#969696;stroke-width:.4" x="167.707" xlink:href="#mde60e2af0b" y="307.468" id="line2d_2"/><g style="fill:#969696" transform="matrix(.14 0 0 -.14 153.344 324.408)" id="text_2"><use xlink:href="#MyriadPro-Regular-32"/><use x="51.3" xlink:href="#MyriadPro-Regular-30"/><use x="102.6" xlink:href="#MyriadPro-Regular-31"/><use x="153.9" xlink:href="#MyriadPro-Regular-32"/></g></g><g id="xtick_3"><use style="fill:#969696;stroke:#969696;stroke-width:.4" x="223.038" xlink:href="#mde60e2af0b" y="307.468" id="line2d_3"/><g style="fill:#969696" transform="matrix(.14 0 0 -.14 208.675 324.408)" id="text_3"><defs><path d="M2560 0v1133h582v441h-582v2586h-608L96 1504v-371h1933V0h531zM666 1574v13l1017 1415c115 192 218 371 346 614h19c-13-218-19-435-19-653V1574H666z" id="MyriadPro-Regular-34" transform="scale(.01563)"/></defs><use xlink:href="#MyriadPro-Regular-32"/><use x="51.3" xlink:href="#MyriadPro-Regular-30"/><use x="102.6" xlink:href="#MyriadPro-Regular-31"/><use x="153.9" xlink:href="#MyriadPro-Regular-34"/></g></g><g id="xtick_4"><use style="fill:#969696;stroke:#969696;stroke-width:.4" x="278.294" xlink:href="#mde60e2af0b" y="307.468" id="line2d_4"/><g style="fill:#969696" transform="matrix(.14 0 0 -.14 263.931 324.408)" id="text_4"><defs><path d="M2662 4224c-102 0-243-6-409-32-525-64-986-275-1331-614-410-410-704-1056-704-1876C218 621 800-70 1690-70c864 0 1382 704 1382 1465 0 813-518 1344-1254 1344-461 0-807-217-1005-480h-19c96 685 563 1331 1446 1479 160 25 307 32 422 25v461zM1690 365c-589 0-903 505-916 1190 0 103 26 186 64 250 154 301 468 512 807 512 518 0 857-359 857-954s-326-998-806-998h-6z" id="MyriadPro-Regular-36" transform="scale(.01563)"/></defs><use xlink:href="#MyriadPro-Regular-32"/><use x="51.3" xlink:href="#MyriadPro-Regular-30"/><use x="102.6" xlink:href="#MyriadPro-Regular-31"/><use x="153.9" xlink:href="#MyriadPro-Regular-36"/></g></g><g id="xtick_5"><use style="fill:#969696;stroke:#969696;stroke-width:.4" x="333.626" xlink:href="#mde60e2af0b" y="307.468" id="line2d_5"/><g style="fill:#969696" transform="matrix(.14 0 0 -.14 319.263 324.408)" id="text_5"><defs><path d="M1062 2170c-512-218-825-589-825-1114C237 448 762-70 1632-70c794 0 1414 486 1414 1209 0 506-320 871-838 1075v20c512 243 685 620 685 972 0 519-403 1024-1210 1024-729 0-1286-448-1286-1107 0-358 198-717 659-934l6-19zm583-1831c-531 0-851 371-832 794 0 397 262 717 749 857 563-160 915-403 915-908 0-423-327-743-832-743zm6 3488c506 0 704-345 704-678 0-378-275-634-633-755-480 128-794 352-794 768 0 358 256 665 723 665z" id="MyriadPro-Regular-38" transform="scale(.01563)"/></defs><use xlink:href="#MyriadPro-Regular-32"/><use x="51.3" xlink:href="#MyriadPro-Regular-30"/><use x="102.6" xlink:href="#MyriadPro-Regular-31"/><use x="153.9" xlink:href="#MyriadPro-Regular-38"/></g></g><g id="xtick_6"><use style="fill:#969696;stroke:#969696;stroke-width:.4" x="388.882" xlink:href="#mde60e2af0b" y="307.468" id="line2d_6"/><g style="fill:#969696" transform="matrix(.14 0 0 -.14 374.519 324.408)" id="text_6"><use xlink:href="#MyriadPro-Regular-32"/><use x="51.3" xlink:href="#MyriadPro-Regular-30"/><use x="102.6" xlink:href="#MyriadPro-Regular-32"/><use x="153.9" xlink:href="#MyriadPro-Regular-30"/></g></g></g><g id="matplotlib.axis_2"><g id="ytick_1"><path clip-path="url(#p3c5da9d6d5)" d="M82.476 307.468h357.12" style="fill:none;stroke:#969696;stroke-linecap:square;stroke-width:.3" id="line2d_7"/><g id="line2d_8"><defs><path d="M0 0h-3.5" id="m35d9560634" style="stroke:#969696;stroke-width:.3"/></defs><use style="fill:#969696;stroke:#969696;stroke-width:.3" x="82.476" xlink:href="#m35d9560634" y="307.468"/></g><use xlink:href="#MyriadPro-Regular-30" style="fill:#969696" transform="matrix(.14 0 0 -.14 68.295 312.438)" id="text_7"/></g><g id="ytick_2"><path clip-path="url(#p3c5da9d6d5)" d="M82.476 255.279h357.12" style="fill:none;stroke:#969696;stroke-linecap:square;stroke-width:.3" id="line2d_9"/><use style="fill:#969696;stroke:#969696;stroke-width:.3" x="82.476" xlink:href="#m35d9560634" y="255.279" id="line2d_10"/><g style="fill:#969696" transform="matrix(.14 0 0 -.14 46.75 260.249)" id="text_8"><use xlink:href="#MyriadPro-Regular-32"/><use x="51.3" xlink:href="#MyriadPro-Regular-30"/><use x="102.6" xlink:href="#MyriadPro-Regular-30"/><use x="153.9" xlink:href="#MyriadPro-Regular-30"/></g></g><g id="ytick_3"><path clip-path="url(#p3c5da9d6d5)" d="M82.476 203.09h357.12" style="fill:none;stroke:#969696;stroke-linecap:square;stroke-width:.3" id="line2d_11"/><use style="fill:#969696;stroke:#969696;stroke-width:.3" x="82.476" xlink:href="#m35d9560634" y="203.09" id="line2d_12"/><g style="fill:#969696" transform="matrix(.14 0 0 -.14 46.75 208.06)" id="text_9"><use xlink:href="#MyriadPro-Regular-34"/><use x="51.3" xlink:href="#MyriadPro-Regular-30"/><use x="102.6" xlink:href="#MyriadPro-Regular-30"/><use x="153.9" xlink:href="#MyriadPro-Regular-30"/></g></g><g id="ytick_4"><path clip-path="url(#p3c5da9d6d5)" d="M82.476 150.9h357.12" style="fill:none;stroke:#969696;stroke-linecap:square;stroke-width:.3" id="line2d_13"/><use style="fill:#969696;stroke:#969696;stroke-width:.3" x="82.476" xlink:href="#m35d9560634" y="150.901" id="line2d_14"/><g style="fill:#969696" transform="matrix(.14 0 0 -.14 46.75 155.87)" id="text_10"><use xlink:href="#MyriadPro-Regular-36"/><use x="51.3" xlink:href="#MyriadPro-Regular-30"/><use x="102.6" xlink:href="#MyriadPro-Regular-30"/><use x="153.9" xlink:href="#MyriadPro-Regular-30"/></g></g><g id="ytick_5"><path clip-path="url(#p3c5da9d6d5)" d="M82.476 98.712h357.12" style="fill:none;stroke:#969696;stroke-linecap:square;stroke-width:.3" id="line2d_15"/><use style="fill:#969696;stroke:#969696;stroke-width:.3" x="82.476" xlink:href="#m35d9560634" y="98.712" id="line2d_16"/><g style="fill:#969696" transform="matrix(.14 0 0 -.14 46.75 103.682)" id="text_11"><use xlink:href="#MyriadPro-Regular-38"/><use x="51.3" xlink:href="#MyriadPro-Regular-30"/><use x="102.6" xlink:href="#MyriadPro-Regular-30"/><use x="153.9" xlink:href="#MyriadPro-Regular-30"/></g></g><g id="ytick_6"><path clip-path="url(#p3c5da9d6d5)" d="M82.476 46.523h357.12" style="fill:none;stroke:#969696;stroke-linecap:square;stroke-width:.3" id="line2d_17"/><use style="fill:#969696;stroke:#969696;stroke-width:.3" x="82.476" xlink:href="#m35d9560634" y="46.523" id="line2d_18"/><g style="fill:#969696" transform="matrix(.14 0 0 -.14 39.568 51.493)" id="text_12"><use xlink:href="#MyriadPro-Regular-31"/><use x="51.3" xlink:href="#MyriadPro-Regular-30"/><use x="102.6" xlink:href="#MyriadPro-Regular-30"/><use x="153.9" xlink:href="#MyriadPro-Regular-30"/><use x="205.2" xlink:href="#MyriadPro-Regular-30"/></g></g><g style="fill:#969696" transform="matrix(.14 0 0 -.14 7.2 17.14)" id="text_13"><defs><path d="M3770 2266H2349v-448h877V531c-128-64-378-115-743-115-1005 0-1664 646-1664 1741 0 1081 685 1734 1735 1734 435 0 723-83 953-185l135 454c-186 90-576 198-1076 198-1446 0-2329-940-2336-2227 0-672 231-1248 602-1606 422-403 960-570 1613-570 582 0 1075 147 1325 237v2074z" id="MyriadPro-Regular-47" transform="scale(.01563)"/><path d="M1030 0v3098H467V0h563zM749 4320c-205 0-352-154-352-352 0-192 141-346 339-346 224 0 365 154 358 346 0 198-134 352-345 352z" id="MyriadPro-Regular-69" transform="scale(.01563)"/><path d="M595 3667v-569H115v-429h480V979c0-365 58-640 218-806C947 19 1158-70 1421-70c217 0 390 38 499 83l-26 422c-83-25-172-38-326-38-314 0-422 217-422 601v1671h806v429h-806v742l-551-173z" id="MyriadPro-Regular-74" transform="scale(.01563)"/><path d="M486 4314V0h557v2022h2087V0h563v4314h-563V2509H1043v1805H486z" id="MyriadPro-Regular-48" transform="scale(.01563)"/><path d="M3059 3098h-563V1197c0-103-19-205-51-288-103-250-365-512-743-512-512 0-691 397-691 985v1716H448V1286C448 198 1030-70 1517-70c550 0 877 326 1024 576h13l32-506h499c-19 243-26 525-26 845v2253z" id="MyriadPro-Regular-75" transform="scale(.01563)"/><path d="M467 800c0-275-13-589-25-800h486l26 512h19c230-410 589-582 1037-582 691 0 1388 550 1388 1657 7 941-537 1581-1305 1581-499 0-858-224-1056-570h-13v1946H467V800zm557 998c0 90 19 167 32 231 115 429 474 691 858 691 601 0 921-531 921-1152 0-710-352-1190-941-1190-409 0-736 268-844 659-13 64-26 134-26 205v556z" id="MyriadPro-Regular-62" transform="scale(.01563)"/><path d="M250 147C467 19 781-70 1120-70c736 0 1158 390 1158 934 0 461-275 730-812 934-404 154-589 269-589 525 0 231 185 423 518 423 288 0 512-103 634-180l141 410c-173 102-448 192-762 192-666 0-1069-410-1069-909 0-371 263-678 819-877 416-153 576-300 576-569 0-256-192-461-601-461-282 0-576 115-743 224L250 147z" id="MyriadPro-Regular-73" transform="scale(.01563)"/><path d="M2643 1901c0 621-230 1267-1177 1267-391 0-762-109-1018-275l128-371c218 140 518 230 806 230 634 0 704-461 704-717v-64C890 1978 224 1568 224 819c0-448 320-889 947-889 442 0 775 217 947 460h20l44-390h512c-38 211-51 474-51 742v1159zm-544-858c0-57-13-121-32-179-89-262-345-518-749-518-288 0-531 172-531 537 0 602 698 711 1312 698v-538z" id="MyriadPro-Regular-61" transform="scale(.01563)"/><path d="M467 0h557v1651c0 96 13 186 26 263 76 422 358 723 755 723 77 0 134-7 192-19v531c-51 13-96 19-160 19-378 0-717-262-858-678h-25l-20 608H442c19-288 25-602 25-967V0z" id="MyriadPro-Regular-72" transform="scale(.01563)"/></defs><use xlink:href="#MyriadPro-Regular-47"/><use x="64.6" xlink:href="#MyriadPro-Regular-69"/><use x="88" xlink:href="#MyriadPro-Regular-74"/><use x="121.1" xlink:href="#MyriadPro-Regular-48"/><use x="186.3" xlink:href="#MyriadPro-Regular-75"/><use x="241.4" xlink:href="#MyriadPro-Regular-62"/><use x="298.3" xlink:href="#MyriadPro-Regular-20"/><use x="319.5" xlink:href="#MyriadPro-Regular-73"/><use x="359.1" xlink:href="#MyriadPro-Regular-74"/><use x="392.2" xlink:href="#MyriadPro-Regular-61"/><use x="440.4" xlink:href="#MyriadPro-Regular-72"/><use x="473.1" xlink:href="#MyriadPro-Regular-73"/></g></g><path clip-path="url(#p3c5da9d6d5)" d="m400.387 307.468 2.271-.104 2.347-.053 2.346-.052 2.27-.026h2.347l2.271-.156 2.347-3.784 2.346-3.914 2.12-.783 2.346-.679 2.27-.391 2.347-.574 2.271-.47 2.346-1.278 2.347-.574 2.27-.522 2.347-.496" style="fill:none;stroke:#17becf;stroke-linecap:square;stroke-width:1.5" id="line2d_19"/><path clip-path="url(#p3c5da9d6d5)" d="m232.121 307.468 2.347-.104 2.27-.079 2.347-.052 2.347-.104 2.27-.078h2.347l2.27-.027 2.347-.208 2.347-.522 2.12-.34 2.346-.286 2.27-.13 2.347-.262 2.27-.183 2.347-.313 2.347-.104 2.27-.235 2.347-.417 2.27-.235 2.347-.261 2.347-.47 2.195-.209 2.346-.208 2.271-.13 2.347-.131 2.27-.496 2.347-.287 2.346-.052 2.271-.105 2.347-.235 2.27-.156 2.347-.157 2.346-.13 2.12-.209 2.346-.34 2.271-.312 2.347-.235 2.27-.157 2.347-.104 2.346-.105 2.271-.234 2.347-.261 2.27-.366 2.347-.156 2.346-.366 2.12-.156 2.346-.261 2.271-.418 2.347-.208 2.27-.6 2.347-.261 2.346-.157 2.271-.261 2.347-.13 2.27-.235 2.347-.418 2.346-.391 2.12-.574 2.346-.392 2.271-.182 2.347-.261 2.27-.157 2.347-.235 2.346-.26 2.271-.549 2.347-.313 2.27-.391 2.347-.34 2.346-.313 2.195-.6 2.347-.443 2.27-.548 2.347-.548 2.271-.653 2.347-.6 2.346-.443 2.27-.496 2.347-.34 2.271-.965 2.347-1.41 2.346-1.252 2.12-1.148 2.346-.94 2.27-.939 2.347-1.174 2.271-.73 2.346-.783 2.347-.653 2.27-.6 2.347-.391" style="fill:none;stroke:#bcbd22;stroke-linecap:square;stroke-width:1.5" id="line2d_20"/><path clip-path="url(#p3c5da9d6d5)" d="m190.793 307.468 2.27-.026h6.814l2.346-.026 2.27-.026 2.347-.079h2.27l2.347-.052h4.617l2.347-.026 2.27-.026h6.814l2.346-.026h2.27l2.347-.026h4.617l2.347-.052 2.27-.052 2.347-.027 2.27-.026 2.347-.078 2.347-.078 2.12-.079 2.346-.078 2.27-.104 2.347-.157 2.27-.235 2.347-.052 2.347-.13 2.27-.157 2.347-.182 2.27-.235 2.347-.13 2.347-.157 2.195-.235 2.346-.235 2.271-.261 2.347-.157 2.27-.078 2.347-.104 2.346-.157 2.271-.209 2.347-.234 2.27-.183 2.347-1.827 2.346-.287 2.12-.26 2.346-.236 2.271-.26 2.347-.366 2.27-.26 2.347-.366 2.346-.391 2.271-.288 2.347-.548 2.27-.6 2.347-.548 2.346-.6 2.12-.156 2.346-.496 2.271-.626 2.347-.679 2.27-.652 2.347-.34 2.346-.365 2.271-.365 2.347-.392 2.27-.521 2.347-.496 2.346-.705 2.12-.548 2.346-.652 2.271-.574 2.347-.627 2.27-.365 2.347-.47 2.346-.208 2.271-.574 2.347-.34 2.27-.73 2.347-.392 2.346-.417 2.195-.522 2.347-.626 2.27-.992 2.347-.757 2.271-.574 2.347-.626 2.346-.913 2.27-.574 2.347-.653 2.271-1.07 2.347-1.513 2.346-1.357 2.12-1.07 2.346-1.383 2.27-1.096 2.347-.835 2.271-.835 2.346-1.018 2.347-.86 2.27-.549 2.347-.756" style="fill:none;stroke:#7f7f7f;stroke-linecap:square;stroke-width:1.5" id="line2d_21"/><g style="fill:#1f77b4" transform="matrix(.14 0 0 -.14 450.31 44.94)" id="text_14"><defs><path d="M1779 3168c-857 0-1536-608-1536-1645C243 544 890-70 1728-70c749 0 1542 499 1542 1644 0 948-601 1594-1491 1594zm-13-422c666 0 928-666 928-1191 0-697-403-1203-940-1203-551 0-941 512-941 1190 0 589 288 1204 953 1204z" id="MyriadPro-Regular-6f" transform="scale(.01563)"/><path d="M467 0h563v1862c0 96 13 192 39 263 96 313 384 576 755 576 531 0 717-416 717-915V0h563v1850c0 1062-666 1318-1094 1318-512 0-871-288-1024-582h-13l-32 512H442c19-256 25-519 25-839V0z" id="MyriadPro-Regular-6e" transform="scale(.01563)"/><path d="M2579 538c-160-71-371-154-691-154-614 0-1075 442-1075 1158 0 647 384 1172 1094 1172 307 0 519-71 653-148l128 436c-154 76-448 160-781 160-1011 0-1664-692-1664-1645C243 570 851-70 1786-70c416 0 742 108 889 185l-96 423z" id="MyriadPro-Regular-63" transform="scale(.01563)"/><path d="m422-256 1792 4640h-435L-6-256h428z" id="MyriadPro-Regular-2f" transform="scale(.01563)"/><path d="M467 0h563v4544H467V0z" id="MyriadPro-Regular-6c" transform="scale(.01563)"/></defs><use xlink:href="#MyriadPro-Regular-6f"/><use x="54.9" xlink:href="#MyriadPro-Regular-72"/><use x="87.6" xlink:href="#MyriadPro-Regular-6e"/><use x="143.1" xlink:href="#MyriadPro-Regular-69"/><use x="166.5" xlink:href="#MyriadPro-Regular-63"/><use x="211.3" xlink:href="#MyriadPro-Regular-61"/><use x="259.5" xlink:href="#MyriadPro-Regular-72"/><use x="292.2" xlink:href="#MyriadPro-Regular-2f"/><use x="326.5" xlink:href="#MyriadPro-Regular-6c"/><use x="350.1" xlink:href="#MyriadPro-Regular-69"/><use x="373.5" xlink:href="#MyriadPro-Regular-6c"/><use x="397.1" xlink:href="#MyriadPro-Regular-61"/></g><g style="fill:#ff7f0e" transform="matrix(.14 0 0 -.14 450.31 167.61)" id="text_15"><defs><path d="M1082 0v2669h748v429h-748v166c0 474 121 896 601 896 160 0 275-32 359-70l76 435c-108 45-281 89-480 89-262 0-544-83-755-288-262-249-358-646-358-1081v-147H90v-429h435V0h557z" id="MyriadPro-Regular-66" transform="scale(.01563)"/><path d="M192 1939v-416h1581v416H192z" id="MyriadPro-Regular-2d" transform="scale(.01563)"/><path d="M1024 4544H467V0h557v1165l288 320L2381 0h685L1702 1824l1197 1274h-678l-909-1069c-90-109-198-243-275-352h-13v2867z" id="MyriadPro-Regular-6b" transform="scale(.01563)"/><path d="M467 0h563v1869c0 109 7 192 39 269 102 307 390 563 755 563 531 0 717-423 717-922V0h563v1843c0 1069-666 1325-1082 1325-211 0-409-64-576-160-172-96-313-237-403-397h-13v1933H467V0z" id="MyriadPro-Regular-68" transform="scale(.01563)"/><path d="M269 211C499 58 954-70 1370-70c1017 0 1510 582 1510 1248 0 633-371 985-1101 1267-595 230-857 429-857 832 0 294 224 646 812 646 391 0 679-128 820-205l153 455c-192 109-512 211-953 211-839 0-1396-499-1396-1171 0-608 436-973 1140-1223 582-224 812-454 812-857 0-435-332-736-902-736-384 0-749 128-998 281L269 211z" id="MyriadPro-Regular-53" transform="scale(.01563)"/></defs><use xlink:href="#MyriadPro-Regular-6f"/><use x="54.9" xlink:href="#MyriadPro-Regular-66"/><use x="84.1" xlink:href="#MyriadPro-Regular-66"/><use x="113.3" xlink:href="#MyriadPro-Regular-69"/><use x="136.7" xlink:href="#MyriadPro-Regular-63"/><use x="181.5" xlink:href="#MyriadPro-Regular-69"/><use x="204.9" xlink:href="#MyriadPro-Regular-61"/><use x="253.1" xlink:href="#MyriadPro-Regular-6c"/><use x="276.7" xlink:href="#MyriadPro-Regular-2d"/><use x="307.4" xlink:href="#MyriadPro-Regular-73"/><use x="347" xlink:href="#MyriadPro-Regular-74"/><use x="380.1" xlink:href="#MyriadPro-Regular-6f"/><use x="435" xlink:href="#MyriadPro-Regular-63"/><use x="479.8" xlink:href="#MyriadPro-Regular-6b"/><use x="526.7" xlink:href="#MyriadPro-Regular-66"/><use x="555.9" xlink:href="#MyriadPro-Regular-69"/><use x="579.3" xlink:href="#MyriadPro-Regular-73"/><use x="618.9" xlink:href="#MyriadPro-Regular-68"/><use x="674.4" xlink:href="#MyriadPro-Regular-2f"/><use x="708.7" xlink:href="#MyriadPro-Regular-53"/><use x="758" xlink:href="#MyriadPro-Regular-74"/><use x="791.1" xlink:href="#MyriadPro-Regular-6f"/><use x="846" xlink:href="#MyriadPro-Regular-63"/><use x="890.8" xlink:href="#MyriadPro-Regular-6b"/><use x="937.7" xlink:href="#MyriadPro-Regular-66"/><use x="966.9" xlink:href="#MyriadPro-Regular-69"/><use x="990.3" xlink:href="#MyriadPro-Regular-73"/><use x="1029.9" xlink:href="#MyriadPro-Regular-68"/></g><g style="fill:#2ca02c" transform="matrix(.14 0 0 -.14 450.31 218.033)" id="text_16"><defs><path d="M-230-1350c300 0 710 102 960 352 275 281 371 672 371 1273v2823H538V493c0-743-58-992-212-1165C192-819-32-890-288-909l58-441zM826 4320c-212 0-359-154-359-352 0-186 135-346 346-346 224 0 358 160 352 346 0 198-135 352-339 352z" id="MyriadPro-Regular-6a" transform="scale(.01563)"/><path d="M58 3098 1203 243c26-70 39-115 39-147s-20-77-45-134c-128-288-320-506-474-628-166-140-352-230-493-275l141-473c141 25 416 121 691 364 384 333 660 877 1063 1940l845 2208h-596l-614-1818c-77-224-141-461-198-646h-13c-51 185-128 428-199 633L672 3098H58z" id="MyriadPro-Regular-79" transform="scale(.01563)"/><path d="M115 3098 1050 0h512l499 1472c109 333 205 653 281 1024h13c77-365 167-672 275-1018L3104 0h512l998 3098h-556l-442-1556c-102-364-186-691-237-1004h-19c-70 313-160 640-275 1011l-480 1549h-474l-505-1575c-103-339-205-672-276-985h-19c-57 320-141 640-230 985L691 3098H115z" id="MyriadPro-Regular-77" transform="scale(.01563)"/><path d="M2957 1446c6 58 19 148 19 263 0 569-269 1459-1280 1459-902 0-1453-736-1453-1670C243 563 813-70 1766-70c493 0 832 108 1031 198l-96 403c-211-89-455-160-858-160-563 0-1049 314-1062 1075h2176zM787 1850c45 390 295 915 864 915 634 0 787-557 781-915H787z" id="MyriadPro-Regular-65" transform="scale(.01563)"/><path d="M710-70c237 0 384 172 384 403 0 237-153 403-377 403S333 570 333 333c0-231 153-403 371-403h6z" id="MyriadPro-Regular-2e" transform="scale(.01563)"/></defs><use xlink:href="#MyriadPro-Regular-6a"/><use x="24.3" xlink:href="#MyriadPro-Regular-68"/><use x="79.8" xlink:href="#MyriadPro-Regular-6c"/><use x="103.4" xlink:href="#MyriadPro-Regular-79"/><use x="150.5" xlink:href="#MyriadPro-Regular-77"/><use x="224.1" xlink:href="#MyriadPro-Regular-61"/><use x="272.3" xlink:href="#MyriadPro-Regular-2f"/><use x="306.6" xlink:href="#MyriadPro-Regular-63"/><use x="351.4" xlink:href="#MyriadPro-Regular-68"/><use x="406.9" xlink:href="#MyriadPro-Regular-65"/><use x="457" xlink:href="#MyriadPro-Regular-73"/><use x="496.6" xlink:href="#MyriadPro-Regular-73"/><use x="536.2" xlink:href="#MyriadPro-Regular-2e"/><use x="556.9" xlink:href="#MyriadPro-Regular-6a"/><use x="581.2" xlink:href="#MyriadPro-Regular-73"/></g><g style="fill:#d62728" transform="matrix(.14 0 0 -.14 450.31 232.194)" id="text_17"><defs><path d="M467 0h551v1869c0 96 12 192 44 275 90 282 346 563 698 563 429 0 646-358 646-851V0h551v1914c0 102 19 204 45 281 96 275 345 512 665 512 455 0 672-358 672-953V0h551v1824c0 1075-608 1344-1018 1344-294 0-499-77-685-218-128-96-249-230-345-403h-13c-135 365-455 621-877 621-512 0-800-275-973-570h-19l-26 500H442c19-256 25-519 25-839V0z" id="MyriadPro-Regular-6d" transform="scale(.01563)"/></defs><use xlink:href="#MyriadPro-Regular-74"/><use x="33.1" xlink:href="#MyriadPro-Regular-68"/><use x="88.6" xlink:href="#MyriadPro-Regular-6f"/><use x="143.5" xlink:href="#MyriadPro-Regular-6d"/><use x="226.9" xlink:href="#MyriadPro-Regular-61"/><use x="275.1" xlink:href="#MyriadPro-Regular-73"/><use x="314.7" xlink:href="#MyriadPro-Regular-61"/><use x="362.9" xlink:href="#MyriadPro-Regular-68"/><use x="418.4" xlink:href="#MyriadPro-Regular-6c"/><use x="442" xlink:href="#MyriadPro-Regular-65"/><use x="492.1" xlink:href="#MyriadPro-Regular-2f"/><use x="526.4" xlink:href="#MyriadPro-Regular-73"/><use x="566" xlink:href="#MyriadPro-Regular-75"/><use x="621.1" xlink:href="#MyriadPro-Regular-6e"/><use x="676.6" xlink:href="#MyriadPro-Regular-66"/><use x="705.8" xlink:href="#MyriadPro-Regular-69"/><use x="729.2" xlink:href="#MyriadPro-Regular-73"/><use x="768.8" xlink:href="#MyriadPro-Regular-68"/></g><g style="fill:#9467bd" transform="matrix(.14 0 0 -.14 450.31 246.194)" id="text_18"><defs><path d="M192 0h3149v467H928v19l2381 3488v340H397v-468h2189v-19L192 326V0z" id="MyriadPro-Regular-5a" transform="scale(.01563)"/><path d="M269 211C474 77 883-70 1350-70c999 0 1517 582 1517 1248 0 582-416 966-928 1068v13c512 186 768 551 768 979 0 506-371 992-1190 992-448 0-871-160-1088-320l147-409c179 128 499 275 832 275 518 0 730-294 730-627 0-493-519-704-928-704H896v-423h314c544 0 1068-249 1075-832 6-345-218-806-941-806-390 0-762 160-922 262L269 211z" id="MyriadPro-Regular-33" transform="scale(.01563)"/><path d="M467-1267h557V416h13c185-307 544-486 953-486 730 0 1408 550 1408 1664 0 940-563 1574-1312 1574-505 0-870-224-1100-602h-13l-26 532H442c12-295 25-615 25-1012v-3353zm557 3059c0 77 19 160 38 230 109 423 468 698 852 698 595 0 921-531 921-1152 0-710-345-1197-941-1197-403 0-742 269-844 659-13 71-26 148-26 231v531z" id="MyriadPro-Regular-70" transform="scale(.01563)"/><path d="M115 0h2515v448H819v13c141 160 269 313 397 486l1382 1799 7 352H243v-455h1677v-13c-141-166-269-313-403-480L115 326V0z" id="MyriadPro-Regular-7a" transform="scale(.01563)"/></defs><use xlink:href="#MyriadPro-Regular-5a"/><use x="55.3" xlink:href="#MyriadPro-Regular-65"/><use x="105.4" xlink:href="#MyriadPro-Regular-74"/><use x="138.5" xlink:href="#MyriadPro-Regular-61"/><use x="186.7" xlink:href="#MyriadPro-Regular-33"/><use x="238" xlink:href="#MyriadPro-Regular-36"/><use x="289.3" xlink:href="#MyriadPro-Regular-2f"/><use x="323.6" xlink:href="#MyriadPro-Regular-63"/><use x="368.4" xlink:href="#MyriadPro-Regular-68"/><use x="423.9" xlink:href="#MyriadPro-Regular-65"/><use x="474" xlink:href="#MyriadPro-Regular-73"/><use x="513.6" xlink:href="#MyriadPro-Regular-73"/><use x="553.2" xlink:href="#MyriadPro-Regular-2d"/><use x="583.9" xlink:href="#MyriadPro-Regular-61"/><use x="632.1" xlink:href="#MyriadPro-Regular-6c"/><use x="655.7" xlink:href="#MyriadPro-Regular-70"/><use x="712.6" xlink:href="#MyriadPro-Regular-68"/><use x="768.1" xlink:href="#MyriadPro-Regular-61"/><use x="816.3" xlink:href="#MyriadPro-Regular-2d"/><use x="847" xlink:href="#MyriadPro-Regular-7a"/><use x="889.8" xlink:href="#MyriadPro-Regular-65"/><use x="939.9" xlink:href="#MyriadPro-Regular-72"/><use x="972.6" xlink:href="#MyriadPro-Regular-6f"/></g><g style="fill:#8c564b" transform="matrix(.14 0 0 -.14 450.31 260.194)" id="text_19"><use xlink:href="#MyriadPro-Regular-6d"/><use x="83.4" xlink:href="#MyriadPro-Regular-63"/><use x="128.2" xlink:href="#MyriadPro-Regular-6f"/><use x="183.1" xlink:href="#MyriadPro-Regular-73"/><use x="222.7" xlink:href="#MyriadPro-Regular-74"/><use x="255.8" xlink:href="#MyriadPro-Regular-61"/><use x="304" xlink:href="#MyriadPro-Regular-6c"/><use x="327.6" xlink:href="#MyriadPro-Regular-62"/><use x="384.5" xlink:href="#MyriadPro-Regular-61"/><use x="432.7" xlink:href="#MyriadPro-Regular-2f"/><use x="467" xlink:href="#MyriadPro-Regular-53"/><use x="516.3" xlink:href="#MyriadPro-Regular-74"/><use x="549.4" xlink:href="#MyriadPro-Regular-6f"/><use x="604.3" xlink:href="#MyriadPro-Regular-63"/><use x="649.1" xlink:href="#MyriadPro-Regular-6b"/><use x="696" xlink:href="#MyriadPro-Regular-66"/><use x="725.2" xlink:href="#MyriadPro-Regular-69"/><use x="748.6" xlink:href="#MyriadPro-Regular-73"/><use x="788.2" xlink:href="#MyriadPro-Regular-68"/></g><g style="fill:#e377c2" transform="matrix(.14 0 0 -.14 450.31 274.194)" id="text_20"><defs><path d="M486 0h2400v467H1043v3847H486V0z" id="MyriadPro-Regular-4c" transform="scale(.01563)"/><path d="M3386 582c-224-108-570-179-909-179-1050 0-1658 679-1658 1735 0 1132 672 1779 1683 1779 359 0 660-77 871-179l134 454c-147 77-486 192-1024 192-1337 0-2253-915-2253-2266C230 704 1146-70 2362-70c524 0 934 108 1139 211l-115 441z" id="MyriadPro-Regular-43" transform="scale(.01563)"/></defs><use xlink:href="#MyriadPro-Regular-4c"/><use x="47.2" xlink:href="#MyriadPro-Regular-65"/><use x="97.3" xlink:href="#MyriadPro-Regular-65"/><use x="147.4" xlink:href="#MyriadPro-Regular-6c"/><use x="171" xlink:href="#MyriadPro-Regular-61"/><use x="219.2" xlink:href="#MyriadPro-Regular-43"/><use x="277.2" xlink:href="#MyriadPro-Regular-68"/><use x="332.7" xlink:href="#MyriadPro-Regular-65"/><use x="382.8" xlink:href="#MyriadPro-Regular-73"/><use x="422.4" xlink:href="#MyriadPro-Regular-73"/><use x="462" xlink:href="#MyriadPro-Regular-5a"/><use x="517.3" xlink:href="#MyriadPro-Regular-65"/><use x="567.4" xlink:href="#MyriadPro-Regular-72"/><use x="600.1" xlink:href="#MyriadPro-Regular-6f"/><use x="655" xlink:href="#MyriadPro-Regular-2f"/><use x="689.3" xlink:href="#MyriadPro-Regular-6c"/><use x="712.9" xlink:href="#MyriadPro-Regular-63"/><use x="757.7" xlink:href="#MyriadPro-Regular-30"/></g><g style="fill:#7f7f7f" transform="matrix(.14 0 0 -.14 450.31 288.11)" id="text_21"><use xlink:href="#MyriadPro-Regular-6e"/><use x="55.5" xlink:href="#MyriadPro-Regular-69"/><use x="78.9" xlink:href="#MyriadPro-Regular-6b"/><use x="125.8" xlink:href="#MyriadPro-Regular-6c"/><use x="149.4" xlink:href="#MyriadPro-Regular-61"/><use x="197.6" xlink:href="#MyriadPro-Regular-73"/><use x="237.2" xlink:href="#MyriadPro-Regular-66"/><use x="266.4" xlink:href="#MyriadPro-Regular-2f"/><use x="300.7" xlink:href="#MyriadPro-Regular-70"/><use x="357.6" xlink:href="#MyriadPro-Regular-79"/><use x="404.7" xlink:href="#MyriadPro-Regular-74"/><use x="437.8" xlink:href="#MyriadPro-Regular-68"/><use x="493.3" xlink:href="#MyriadPro-Regular-6f"/><use x="548.2" xlink:href="#MyriadPro-Regular-6e"/><use x="603.7" xlink:href="#MyriadPro-Regular-2d"/><use x="634.4" xlink:href="#MyriadPro-Regular-63"/><use x="679.2" xlink:href="#MyriadPro-Regular-68"/><use x="734.7" xlink:href="#MyriadPro-Regular-65"/><use x="784.8" xlink:href="#MyriadPro-Regular-73"/><use x="824.4" xlink:href="#MyriadPro-Regular-73"/></g><g style="fill:#bcbd22" transform="matrix(.14 0 0 -.14 450.31 302.194)" id="text_22"><defs><path d="M83 3098 1261 0h537l1216 3098h-588l-602-1741c-102-282-192-538-262-794h-20c-64 256-147 512-249 794L685 3098H83z" id="MyriadPro-Regular-76" transform="scale(.01563)"/></defs><use xlink:href="#MyriadPro-Regular-76"/><use x="48.1" xlink:href="#MyriadPro-Regular-65"/><use x="98.2" xlink:href="#MyriadPro-Regular-6c"/><use x="121.8" xlink:href="#MyriadPro-Regular-6f"/><use x="176.7" xlink:href="#MyriadPro-Regular-63"/><use x="221.5" xlink:href="#MyriadPro-Regular-65"/><use x="271.6" xlink:href="#MyriadPro-Regular-2f"/><use x="305.9" xlink:href="#MyriadPro-Regular-6c"/><use x="329.5" xlink:href="#MyriadPro-Regular-69"/><use x="352.9" xlink:href="#MyriadPro-Regular-63"/><use x="397.7" xlink:href="#MyriadPro-Regular-68"/><use x="453.2" xlink:href="#MyriadPro-Regular-6f"/><use x="508.1" xlink:href="#MyriadPro-Regular-62"/><use x="565" xlink:href="#MyriadPro-Regular-69"/><use x="588.4" xlink:href="#MyriadPro-Regular-6c"/><use x="612" xlink:href="#MyriadPro-Regular-65"/></g><g style="fill:#17becf" transform="matrix(.14 0 0 -.14 450.31 316.194)" id="text_23"><use xlink:href="#MyriadPro-Regular-43"/><use x="58" xlink:href="#MyriadPro-Regular-53"/><use x="107.3" xlink:href="#MyriadPro-Regular-53"/><use x="156.6" xlink:href="#MyriadPro-Regular-4c"/><use x="203.8" xlink:href="#MyriadPro-Regular-61"/><use x="252" xlink:href="#MyriadPro-Regular-62"/><use x="308.9" xlink:href="#MyriadPro-Regular-2f"/><use x="343.2" xlink:href="#MyriadPro-Regular-6d"/><use x="426.6" xlink:href="#MyriadPro-Regular-61"/><use x="474.8" xlink:href="#MyriadPro-Regular-69"/><use x="498.2" xlink:href="#MyriadPro-Regular-61"/><use x="546.4" xlink:href="#MyriadPro-Regular-2d"/><use x="577.1" xlink:href="#MyriadPro-Regular-63"/><use x="621.9" xlink:href="#MyriadPro-Regular-68"/><use x="677.4" xlink:href="#MyriadPro-Regular-65"/><use x="727.5" xlink:href="#MyriadPro-Regular-73"/><use x="767.1" xlink:href="#MyriadPro-Regular-73"/></g><g style="fill:#969696" transform="matrix(.09716 0 0 -.09716 82.476 341.366)" id="text_24"><defs><path d="M2714 1357 3174 0h596L2298 4314h-672L160 0h576l448 1357h1530zm-1415 435 423 1248c83 262 153 525 217 781h13c64-250 128-506 224-787l422-1242H1299z" id="MyriadPro-Regular-41" transform="scale(.01563)"/><path d="M486 0h557v1728c128-32 282-38 448-38 544 0 1024 160 1319 473 217 224 332 531 332 922 0 384-140 697-377 902-256 231-659 359-1210 359-448 0-800-39-1069-84V0zm557 3859c96 26 282 45 525 45 614 0 1018-275 1018-845 0-595-410-921-1082-921-186 0-339 12-461 44v1677z" id="MyriadPro-Regular-50" transform="scale(.01563)"/><path d="M486 4314V0h557v4314H486z" id="MyriadPro-Regular-49" transform="scale(.01563)"/><path d="M3110 2246c0 378 13 628 26 852h-493l-25-468h-13c-135 256-429 538-967 538-710 0-1395-595-1395-1645C243 666 794 13 1562 13c480 0 812 230 985 518h13V186c0-781-422-1082-998-1082-384 0-704 115-909 243l-141-429c250-166 659-256 1030-256 391 0 826 90 1127 372 301 268 441 704 441 1414v1798zm-556-928c0-96-13-204-45-300-122-359-435-576-781-576-608 0-915 505-915 1113 0 717 384 1171 921 1171 410 0 685-268 788-595 25-77 32-160 32-256v-557z" id="MyriadPro-Regular-67" transform="scale(.01563)"/><path d="M550 4800v-6400h429v6400H550z" id="MyriadPro-Regular-7c" transform="scale(.01563)"/><path d="M1011 0v1843c0 717-13 1235-45 1779l20 7c217-467 505-960 806-1440L3162 0h563v4314h-525V2509c0-672 13-1197 64-1773l-13-6c-205 441-454 896-774 1401L1094 4314H486V0h525z" id="MyriadPro-Regular-4e" transform="scale(.01563)"/><path d="M1165 3648c185 0 313 154 313 326 0 186-134 327-313 327s-327-147-327-327c0-172 135-326 320-326h7zm1184 0c185 0 313 154 313 326 0 186-134 327-313 327s-320-147-320-327c0-172 128-326 313-326h7zm-570-480c-857 0-1536-608-1536-1645C243 544 890-70 1728-70c749 0 1542 499 1542 1644 0 948-601 1594-1491 1594zm-13-422c666 0 928-666 928-1191 0-697-403-1203-940-1203-551 0-941 512-941 1190 0 589 288 1204 953 1204z" id="MyriadPro-Regular-f6" transform="scale(.01563)"/><path d="M486 13c186-26 480-51 864-51 704 0 1191 128 1492 403 217 211 364 493 364 864 0 640-480 979-889 1081v13c454 167 729 531 729 947 0 340-134 596-358 762-269 218-627 314-1184 314-390 0-774-39-1018-90V13zm557 3865c90 20 237 39 493 39 563 0 947-199 947-704 0-416-345-723-934-723h-506v1388zm0-1811h461c608 0 1114-243 1114-832 0-627-532-838-1108-838-198 0-358 6-467 25v1645z" id="MyriadPro-Regular-42" transform="scale(.01563)"/><path d="M2010 0v1837l1446 2477h-634l-620-1191c-167-326-314-608-436-889h-12c-135 300-263 563-429 889L717 4314H83l1363-2484V0h564z" id="MyriadPro-Regular-59" transform="scale(.01563)"/></defs><use xlink:href="#MyriadPro-Regular-47"/><use x="64.6" xlink:href="#MyriadPro-Regular-69"/><use x="88" xlink:href="#MyriadPro-Regular-74"/><use x="121.1" xlink:href="#MyriadPro-Regular-48"/><use x="186.3" xlink:href="#MyriadPro-Regular-75"/><use x="241.4" xlink:href="#MyriadPro-Regular-62"/><use x="298.3" xlink:href="#MyriadPro-Regular-20"/><use x="319.5" xlink:href="#MyriadPro-Regular-41"/><use x="380.7" xlink:href="#MyriadPro-Regular-50"/><use x="433.9" xlink:href="#MyriadPro-Regular-49"/><use x="457.8" xlink:href="#MyriadPro-Regular-20"/><use x="479" xlink:href="#MyriadPro-Regular-76"/><use x="527.1" xlink:href="#MyriadPro-Regular-69"/><use x="550.5" xlink:href="#MyriadPro-Regular-61"/><use x="598.7" xlink:href="#MyriadPro-Regular-20"/><use x="619.9" xlink:href="#MyriadPro-Regular-73"/><use x="659.5" xlink:href="#MyriadPro-Regular-74"/><use x="692.6" xlink:href="#MyriadPro-Regular-61"/><use x="740.8" xlink:href="#MyriadPro-Regular-72"/><use x="773.5" xlink:href="#MyriadPro-Regular-67"/><use x="829.4" xlink:href="#MyriadPro-Regular-72"/><use x="862.1" xlink:href="#MyriadPro-Regular-61"/><use x="910.3" xlink:href="#MyriadPro-Regular-70"/><use x="967.2" xlink:href="#MyriadPro-Regular-68"/><use x="1022.7" xlink:href="#MyriadPro-Regular-20"/><use x="1043.9" xlink:href="#MyriadPro-Regular-7c"/><use x="1067.8" xlink:href="#MyriadPro-Regular-20"/><use x="1089" xlink:href="#MyriadPro-Regular-4e"/><use x="1154.8" xlink:href="#MyriadPro-Regular-69"/><use x="1178.2" xlink:href="#MyriadPro-Regular-63"/><use x="1223" xlink:href="#MyriadPro-Regular-6f"/><use x="1277.9" xlink:href="#MyriadPro-Regular-20"/><use x="1299.1" xlink:href="#MyriadPro-Regular-53"/><use x="1348.4" xlink:href="#MyriadPro-Regular-63"/><use x="1393.2" xlink:href="#MyriadPro-Regular-68"/><use x="1448.7" xlink:href="#MyriadPro-Regular-6c"/><use x="1472.3" xlink:href="#MyriadPro-Regular-f6"/><use x="1527.2" xlink:href="#MyriadPro-Regular-6d"/><use x="1610.6" xlink:href="#MyriadPro-Regular-65"/><use x="1660.7" xlink:href="#MyriadPro-Regular-72"/><use x="1693.4" xlink:href="#MyriadPro-Regular-20"/><use x="1714.6" xlink:href="#MyriadPro-Regular-7c"/><use x="1738.5" xlink:href="#MyriadPro-Regular-20"/><use x="1759.7" xlink:href="#MyriadPro-Regular-43"/><use x="1817.7" xlink:href="#MyriadPro-Regular-43"/><use x="1875.7" xlink:href="#MyriadPro-Regular-20"/><use x="1896.9" xlink:href="#MyriadPro-Regular-42"/><use x="1951.1" xlink:href="#MyriadPro-Regular-59"/></g><path clip-path="url(#p3c5da9d6d5)" d="m345.056 307.468 2.27-.522 2.347-.73 2.346-.731 2.271-.705 2.347-.652 2.27-.809 2.347-1.905 2.346-2.453 2.12-1.409 2.346-1.07 2.271-.913 2.347-1.644 2.27-.626 2.347-4.019 2.346-.887 2.271-.73 2.347-.784 2.27-.574 2.347-.913 2.346-.678 2.195-.705 2.347-.73 2.27-1.592 2.347-1.253 2.271-1.618 2.347-1.54 2.346-1.147 2.27-.679 2.347-.757 2.271-1.226 2.347-1.41 2.346-1.043 2.12-1.383 2.346-.94 2.27-.808 2.347-.861 2.271-.888 2.346-.548 2.347-.913 2.27-.652 2.347-.548" style="fill:none;stroke:#e377c2;stroke-linecap:square;stroke-width:1.5" id="line2d_22"/><path clip-path="url(#p3c5da9d6d5)" d="m160.743 307.468 2.346-3.105 2.271-.13 2.347-.131 2.346-.052 2.195-.053 2.347-.026 2.27-.104 2.347-.104 2.27-.026 2.347-.13 2.347-.105 2.27-.026h2.347l2.27-.105h2.347l2.347-.026 2.12-.287 2.346-.313 2.27-.261 2.347-.34 2.27-.156 2.347-.313 2.347-.209 2.27-.339 2.347-.365 2.27-1.305 2.347-.496 2.347-.574 2.12-.548 2.346-.704 2.27-.418 2.347-.365 2.27-2.48 2.347-.234 2.347-.313 2.27-.209 2.347-.183 2.27-.391 2.347-.34 2.347-.338 2.12-.261 2.346-.183 2.27-.34 2.347-.182 2.27-.209 2.347-.26 2.347-.21 2.27-.156 2.347-.287 2.27-.287 2.347-.34 2.347-.234 2.195-.13 2.346-.366 2.271-.183 2.347-.26 2.27-.262 2.347-.156 2.346-.34 2.271-.234 2.347-.392 2.27-.365 2.347-.391 2.346-.47 2.12-.287 2.346-.47 2.271-.182 2.347-.235 2.27-.183 2.347-.157 2.346-.208 2.271-.079 2.347-.26 2.27-.366 2.347-.496 2.346-.391 2.12-.261 2.346-.26 2.271-.549 2.347-.26 2.27-.184 2.347-.39 2.346-.497 2.271-.287 2.347-.26 2.27-.314 2.347-.783 2.346-.417 2.12-.366 2.346-.574 2.271-.365 2.347-.287 2.27-.26 2.347-.288 2.346-.313 2.271-.183 2.347-.156 2.27-.235 2.347-.183 2.346-.26 2.195-.288 2.347-.443 2.27-.444 2.347-.391 2.271-.679 2.347-.835 2.346-.444 2.27-.39 2.347-.47 2.271-.757 2.347-1.122 2.346-.94 2.12-1.174 2.346-.757 2.27-.704 2.347-.548 2.271-.47 2.346-.966 2.347-.47 2.27-.339 2.347-.443" style="fill:none;stroke:#8c564b;stroke-linecap:square;stroke-width:1.5" id="line2d_23"/><path clip-path="url(#p3c5da9d6d5)" d="m329.009 307.468 2.27-1.54 2.347-3.13 2.346-1.462 2.12-1.044 2.346-16.727 2.271-1.878 2.347-1.175 2.27-.6 2.347-.574 2.346-1.044 2.271-.548 2.347-.443 2.27-.887 2.347-1.096 2.346-.992 2.12-.992 2.346-.652 2.271-.626 2.347-.757 2.27-.391 2.347-.496 2.346-.418 2.271-.443 2.347-.574 2.27-.34 2.347-.652 2.346-.522 2.195-.183 2.347-.313 2.27-.417 2.347-.34 2.271-.495 2.347-.34 2.346-.39 2.27-.418 2.347-.287 2.271-.81 2.347-.678 2.346-.47 2.12-.365 2.346-.522 2.27-.495 2.347-.288 2.271-.339 2.346-.339 2.347-.26 2.27-.262 2.347-.391" style="fill:none;stroke:#9467bd;stroke-linecap:square;stroke-width:1.5" id="line2d_24"/><path clip-path="url(#p3c5da9d6d5)" d="m225.385 307.468 2.12-3.053 2.346-.261 2.27-.13h4.617l2.347-.105 2.347-13.438 2.27-.235 2.347-.235 2.27-.13 2.347-.496 2.347-.261 2.12-.157 2.346-.209 2.27-.104 2.347-.104 2.27-.157 2.347-.183 2.347-.208 2.27-.21 2.347-.156 2.27-.104 2.347-.13 2.347-.235 2.195-.157 2.346-.261 2.271-.157 2.347-.156 2.27-.105 2.347-.156 2.346-.261 2.271-.183 2.347-.391 2.27-.418 2.347-.417 2.346-.105 2.12-1.07 2.346-.39 2.271-.262 2.347-.104 2.27-.209 2.347-.13 2.346-.287 2.271-.235 2.347-.418 2.27-.104 2.347-.183 2.346-.26 2.12-.183 2.346-.261 2.271-.105 2.347-.182 2.27-.079 2.347-.182 2.346-.157 2.271-.104 2.347-.157 2.27-.235 2.347-.26 2.346-.366 2.12-.209 2.346-.208 2.271-1.827 2.347-.47 2.27-11.56 2.347-.86 2.346-.497 2.271-.443 2.347-.313 2.27-.235 2.347-.366 2.346-.182 2.195-.313 2.347-.522 2.27-.81 2.347-.443 2.271-.6 2.347-.47 2.346-.417 2.27-.365 2.347-.496 2.271-.835 2.347-1.227 2.346-1.017 2.12-.653 2.346-.574 2.27-.443 2.347-.418 2.271-.678 2.346-.574 2.347-.47 2.27-.783 2.347-.34" style="fill:none;stroke:#d62728;stroke-linecap:square;stroke-width:1.5" id="line2d_25"/><path clip-path="url(#p3c5da9d6d5)" d="m82.476 307.468 2.347-.365 11.43-.157 9.234-.052 4.617-.13 11.43-.235 9.31-.287 6.888-.235 18.394-.548 13.927-.261 4.542-.078 13.852-.235 9.31-.053 11.354-.756 2.346-1.096 9.235-1.122 2.346-.183 11.43-1.879 2.27-.417 4.694-.522 2.27-.47 4.618-.574 2.346-.444 2.347-.652 2.12-.183 2.346-.417 4.617-.652 4.617-.757 4.618-.6 2.346-.627 4.617-.939 2.347-.652 4.541-1.044 2.271-.287 2.347-.574 11.58-1.88 2.271-.495 2.347-.34 4.466-.965 2.346-.86 2.271-2.323 13.928-3.158 4.617-1.017 13.7-3.81 2.347-1.618 4.617-1.54 2.347-.626 2.27-.783 2.347-.47 6.812-2.243 2.271-.47 4.617-.73 2.347-.601 2.346-.809 6.888-1.044 6.888-1.67 2.347-.652 2.27-.783 2.347-.965 2.271-.757 2.347-.966 4.617-1.618 2.346-.548 2.271-.939 2.347-2.296 2.346-1.8 4.466-3.002 2.27-1.278 2.347-.992 4.617-1.513 2.347-.574 2.27-.862 2.347-1.148h0" style="fill:none;stroke:#2ca02c;stroke-linecap:square;stroke-width:1.5" id="line2d_26"/><path clip-path="url(#p3c5da9d6d5)" d="m234.468 307.468 2.27-.183 2.347-.443 2.347-.679 2.27-.365 2.347-.418 2.27-.73 2.347-.835 2.347-.626 2.12-.653 2.346-.626 2.27-.574 2.347-.444 2.27-.496 2.347-.574 2.347-.574 2.27-.522 2.347-.704 2.27-.94 2.347-.887 2.347-.887 2.195-.783 2.346-.965 2.271-1.357 2.347-.757 2.27-.6 2.347-.496 2.346-.522 2.271-.783 2.347-.652 2.27-1.722 2.347-1.931 2.346-1.122 2.12-.888 2.346-4.88 2.271-1.226 2.347-.86 2.27-.784 2.347-1.017 2.346-1.07 2.271-.861 2.347-1.175 2.27-1.826 2.347-2.714 2.346-1.357 2.12-1.044 2.346-1.096 2.271-1.33 2.347-1.2 2.27-.888 2.347-.835 2.346-.966 2.271-1.07 2.347-1.409 2.27-2.896 2.347-2.192 2.346-1.957 2.12-1.174 2.346-1.096 2.271-1.122 2.347-1.044 2.27-.73 2.347-1.175 2.346-1.41 2.271-.99 2.347-1.097 2.27-1.2 2.347-1.2 2.346-1.618 2.195-1.148 2.347-1.175 2.27-1.983 2.347-2.27 2.271-2.296 2.347-2.01 2.346-2.27 2.27-1.774 2.347-2.062 2.271-3.888 2.347-5.219 2.346-5.088 2.12-5.845 2.346-5.532 2.27-4.045 2.347-3.366 2.271-2.662 2.346-9.446 2.347-2.975 2.27-2.453 2.347-2.688" style="fill:none;stroke:#ff7f0e;stroke-linecap:square;stroke-width:1.5" id="line2d_27"/><path clip-path="url(#p3c5da9d6d5)" d="m170.053 307.468 2.195-3.731 2.347-.079 2.27-.026 2.347-.104 2.27-.026h2.347l2.347-.026 2.27-.027h2.347l2.27-.026 2.347-.026 2.347-.026 2.12-.235 2.346-.835 2.27-.495 2.347-.679 2.27-1.044 2.347-.496 2.347-.521 2.27-.13 2.347-.68 2.27-.495 2.347-.522 2.347-1.122 2.12-1.096 2.346-.496 2.27-.443 2.347-.392 2.27-1.383 2.347-.574 2.347-.6 2.27-.574 2.347-.626 2.27-.966 2.347-.94 2.347-1.722 2.12-1.591 2.346-2.453 2.27-1.566 2.347-1.383 2.27-1.174 2.347-1.122 2.347-1.2 2.27-1.175 2.347-4.227 2.27-1.331 2.347-1.644 2.347-1.592 2.195-2.792 2.346-1.618 2.271-1.461 2.347-2.061 2.27-1.41 2.347-1.46 2.346-1.384 2.271-1.748 2.347-1.488 2.27-2.479 2.347-7.28 2.346-2.557 2.12-1.853 2.346-2.87 2.271-2.218 2.347-1.41 2.27-1.565 2.347-1.488 2.346-1.904 2.271-1.41 2.347-2.009 2.27-2.192 2.347-2.74 2.346-2.4 2.12-1.775 2.346-2.453 2.271-2.505 2.347-2.087 2.27-2.297 2.347-1.304 2.346-2.14 2.271-1.41 2.347-5.766 2.27-3.131 2.347-3.132 2.346-4.488 2.12-2.818 2.346-2.714 2.271-3.445 2.347-2.974 2.27-2.27 2.347-3.08 2.346-3.34 2.271-1.774 2.347-2.688 2.27-2.74 2.347-3.627 2.346-2.975 2.195-2.296 2.347-2.714 2.27-3.914 2.347-5.741 2.271-4.75 2.347-3.313 2.346-2.792 2.27-3.027 2.347-3.132 2.271-5.166 2.347-7.28 2.346-8.064 2.12-6.602 2.346-6.158 2.27-18.475 2.347-3.993 2.271-3.6 2.346-3.784 2.347-4.175 2.27-3.027 2.347-3.758" style="fill:none;stroke:#1f77b4;stroke-linecap:square;stroke-width:1.5" id="line2d_28"/></g></g><defs><clipPath id="p3c5da9d6d5"><path d="M82.476 41.356h357.12v266.112H82.476z"/></clipPath></defs></svg>