<svg height="430.553" viewBox="0 0 590.483 322.915" width="787.311" xmlns="http://www.w3.org/2000/svg" xmlns:xlink="http://www.w3.org/1999/xlink"><defs><style>*{stroke-linecap:butt;stroke-linejoin:round}</style></defs><g id="figure_1"><path d="M0 322.915h590.483V0H0z" style="fill:none" id="patch_1"/><g id="axes_1"><path d="M87.796 279.786h357.12V13.674H87.796z" style="fill:none" id="patch_2"/><path clip-path="url(#p240f5da7e8)" d="m136.477 267.182.095-.248 5.504-.364 5.291-.497 17.925-.765 5.22-.134 4.54-.516 10.438-1.263 5.963-.363 8.918-.995 17.16-1.147 7.797-.631 5.75-.65 2.876-.25 3.659-.496 6.262-.364 28.699-1.912 6.627-.612 5.665-.402 4.633-.363 5.733-.383 2.537-.248 20.79-1.014 3.095-.23 4.232-.134 11.002-.65 33.321-1.76 2.024-.363.52-.057 3.72-.191 13.336-.65 16.293-.613 18.811-.918 8.87-.23 3.096-.19 4.912-.077h0" style="fill:none;stroke:#9467bd;stroke-linecap:square;stroke-width:1.5" id="line2d_1"/><g id="matplotlib.axis_1"><g id="xtick_1"><g id="line2d_2"><defs><path d="M0 0v3.5" id="m4fd03043a9" style="stroke:#969696;stroke-width:.4"/></defs><use style="fill:#969696;stroke:#969696;stroke-width:.4" x="99.939" xlink:href="#m4fd03043a9" y="279.786"/></g><g style="fill:#969696" transform="matrix(.14 0 0 -.14 84.368 296.835)" id="text_1"><defs><path d="M281 2888q0 793 409 1202 410 410 1148 410 618 0 1012-375t394-969q0-462-227-780-226-317-667-557l-775-425q-684-375-775-863h2444V0H166q25 634 275 1056t781 728l806 469q322 185 469 383t147 545q0 344-241 578-240 235-650 235-453 0-678-299-225-298-231-807H281z" id="HelveticaWorld-Regular-32" transform="scale(.01563)"/><path d="M2719 2188q0 903-239 1354-239 452-702 452-453 0-697-452-243-451-243-1354 0-875 240-1340 241-464 700-464 463 0 702 448 239 449 239 1356zm603 0q0-1107-400-1709-400-601-1144-601-772 0-1156 623-384 624-384 1687 0 1090 393 1701 394 611 1147 611 744 0 1144-608t400-1704z" id="HelveticaWorld-Regular-30" transform="scale(.01563)"/><path d="M2297 0h-600v3194H647v447q550 18 818 176 269 158 391 683h441V0z" id="HelveticaWorld-Regular-31" transform="scale(.01563)"/></defs><use xlink:href="#HelveticaWorld-Regular-32"/><use x="55.615" xlink:href="#HelveticaWorld-Regular-30"/><use x="111.23" xlink:href="#HelveticaWorld-Regular-31"/><use x="166.846" xlink:href="#HelveticaWorld-Regular-31"/></g></g><g id="xtick_2"><use style="fill:#969696;stroke:#969696;stroke-width:.4" x="132.804" xlink:href="#m4fd03043a9" y="279.786" id="line2d_3"/><g style="fill:#969696" transform="matrix(.14 0 0 -.14 117.233 296.835)" id="text_2"><use xlink:href="#HelveticaWorld-Regular-32"/><use x="55.615" xlink:href="#HelveticaWorld-Regular-30"/><use x="111.23" xlink:href="#HelveticaWorld-Regular-31"/><use x="166.846" xlink:href="#HelveticaWorld-Regular-32"/></g></g><g id="xtick_3"><use style="fill:#969696;stroke:#969696;stroke-width:.4" x="165.759" xlink:href="#m4fd03043a9" y="279.786" id="line2d_4"/><g style="fill:#969696" transform="matrix(.14 0 0 -.14 150.188 296.835)" id="text_3"><defs><path d="M1434 2559q141-12 294-12 397 0 626 183 230 183 230 554 0 300-214 505t-617 205q-447 0-655-263-207-262-220-703H325q0 703 369 1087 369 385 1084 385 635 0 1013-327 378-326 378-857 0-685-578-928v-13q750-256 750-1050 0-634-422-1041-422-406-1197-406-634 0-1044 333-409 333-459 1164h581q13-519 256-755 244-236 703-236 444 0 713 247t269 622q0 410-257 619-256 209-793 209-128 0-257-6v484z" id="HelveticaWorld-Regular-33" transform="scale(.01563)"/></defs><use xlink:href="#HelveticaWorld-Regular-32"/><use x="55.615" xlink:href="#HelveticaWorld-Regular-30"/><use x="111.23" xlink:href="#HelveticaWorld-Regular-31"/><use x="166.846" xlink:href="#HelveticaWorld-Regular-33"/></g></g><g id="xtick_4"><use style="fill:#969696;stroke:#969696;stroke-width:.4" x="198.624" xlink:href="#m4fd03043a9" y="279.786" id="line2d_5"/><g style="fill:#969696" transform="matrix(.14 0 0 -.14 183.053 296.835)" id="text_4"><defs><path d="M678 1581h1447v2041h-12L678 1581zm2010-487V0h-563v1094H159v550l2063 2856h466V1581h659v-487h-659z" id="HelveticaWorld-Regular-34" transform="scale(.01563)"/></defs><use xlink:href="#HelveticaWorld-Regular-32"/><use x="55.615" xlink:href="#HelveticaWorld-Regular-30"/><use x="111.23" xlink:href="#HelveticaWorld-Regular-31"/><use x="166.846" xlink:href="#HelveticaWorld-Regular-34"/></g></g><g id="xtick_5"><use style="fill:#969696;stroke:#969696;stroke-width:.4" x="231.489" xlink:href="#m4fd03043a9" y="279.786" id="line2d_6"/><g style="fill:#969696" transform="matrix(.14 0 0 -.14 215.918 296.835)" id="text_5"><defs><path d="M941 2619q372 281 872 281 606 0 1042-403t436-1038q0-690-421-1139-420-448-1179-448-660 0-1041 323-381 324-444 918h582q43-363 284-555t669-192q415 0 681 287 266 288 266 735 0 456-279 731-278 275-718 275-500 0-835-428l-484 25 337 2406h2332v-544H1131L941 2619z" id="HelveticaWorld-Regular-35" transform="scale(.01563)"/></defs><use xlink:href="#HelveticaWorld-Regular-32"/><use x="55.615" xlink:href="#HelveticaWorld-Regular-30"/><use x="111.23" xlink:href="#HelveticaWorld-Regular-31"/><use x="166.846" xlink:href="#HelveticaWorld-Regular-35"/></g></g><g id="xtick_6"><use style="fill:#969696;stroke:#969696;stroke-width:.4" x="264.354" xlink:href="#m4fd03043a9" y="279.786" id="line2d_7"/><g style="fill:#969696" transform="matrix(.14 0 0 -.14 248.783 296.835)" id="text_6"><defs><path d="M903 1381q0-440 262-719 263-278 685-278 403 0 642 284 239 285 239 748 0 403-236 675t-670 272q-422 0-672-266t-250-716zm1766 1922q-63 344-255 517-192 174-520 174-519 0-791-507-272-506-278-1159l13-12q359 553 1068 553 566 0 988-375t422-1053q0-672-400-1118-400-445-1078-445-782 0-1188 556-406 557-406 1660 0 1062 415 1734 416 672 1247 672 538 0 910-321 372-320 403-876h-550z" id="HelveticaWorld-Regular-36" transform="scale(.01563)"/></defs><use xlink:href="#HelveticaWorld-Regular-32"/><use x="55.615" xlink:href="#HelveticaWorld-Regular-30"/><use x="111.23" xlink:href="#HelveticaWorld-Regular-31"/><use x="166.846" xlink:href="#HelveticaWorld-Regular-36"/></g></g><g id="xtick_7"><use style="fill:#969696;stroke:#969696;stroke-width:.4" x="297.309" xlink:href="#m4fd03043a9" y="279.786" id="line2d_8"/><g style="fill:#969696" transform="matrix(.14 0 0 -.14 281.738 296.835)" id="text_7"><defs><path d="M238 4403h3109v-494q-641-653-1172-1766Q1644 1031 1497 0H878q94 850 622 1954 528 1105 1213 1899H238v550z" id="HelveticaWorld-Regular-37" transform="scale(.01563)"/></defs><use xlink:href="#HelveticaWorld-Regular-32"/><use x="55.615" xlink:href="#HelveticaWorld-Regular-30"/><use x="111.23" xlink:href="#HelveticaWorld-Regular-31"/><use x="166.846" xlink:href="#HelveticaWorld-Regular-37"/></g></g><g id="xtick_8"><use style="fill:#969696;stroke:#969696;stroke-width:.4" x="330.174" xlink:href="#m4fd03043a9" y="279.786" id="line2d_9"/><g style="fill:#969696" transform="matrix(.14 0 0 -.14 314.603 296.835)" id="text_8"><defs><path d="M1766 2597q347 0 573 198 227 199 227 527 0 294-218 483-217 189-620 189-359 0-555-199-195-198-195-504 0-328 244-511t544-183zm6-484q-434 0-681-241t-247-591q0-403 250-650t712-247q410 0 655 247t245 657q0 350-245 587-245 238-689 238zm1378 1228q0-678-578-947 397-178 567-471 170-292 170-623 0-641-413-1032-412-390-1112-390-612 0-1076 336T244 1306q0 763 762 1082-609 243-609 875 0 531 361 884t1001 353q641 0 1016-333t375-826z" id="HelveticaWorld-Regular-38" transform="scale(.01563)"/></defs><use xlink:href="#HelveticaWorld-Regular-32"/><use x="55.615" xlink:href="#HelveticaWorld-Regular-30"/><use x="111.23" xlink:href="#HelveticaWorld-Regular-31"/><use x="166.846" xlink:href="#HelveticaWorld-Regular-38"/></g></g><g id="xtick_9"><use style="fill:#969696;stroke:#969696;stroke-width:.4" x="363.039" xlink:href="#m4fd03043a9" y="279.786" id="line2d_10"/><g style="fill:#969696" transform="matrix(.14 0 0 -.14 347.468 296.835)" id="text_9"><defs><path d="M1766 2009q384 0 624 259 241 260 241 766 0 416-228 688t-681 272q-391 0-632-275-240-275-240-738 0-472 225-722t691-250zm-82-506q-640 0-1028 397-387 397-387 1056 0 666 390 1105 391 439 1057 439 775 0 1175-522t400-1565q0-1082-410-1809-409-726-1225-726-637 0-987 358t-350 845h565q25-337 220-536 196-198 540-198 487 0 737 434 250 435 344 1247l-12 13q-363-538-1029-538z" id="HelveticaWorld-Regular-39" transform="scale(.01563)"/></defs><use xlink:href="#HelveticaWorld-Regular-32"/><use x="55.615" xlink:href="#HelveticaWorld-Regular-30"/><use x="111.23" xlink:href="#HelveticaWorld-Regular-31"/><use x="166.846" xlink:href="#HelveticaWorld-Regular-39"/></g></g><g id="xtick_10"><use style="fill:#969696;stroke:#969696;stroke-width:.4" x="395.904" xlink:href="#m4fd03043a9" y="279.786" id="line2d_11"/><g style="fill:#969696" transform="matrix(.14 0 0 -.14 380.333 296.835)" id="text_10"><use xlink:href="#HelveticaWorld-Regular-32"/><use x="55.615" xlink:href="#HelveticaWorld-Regular-30"/><use x="111.23" xlink:href="#HelveticaWorld-Regular-32"/><use x="166.846" xlink:href="#HelveticaWorld-Regular-30"/></g></g><g id="xtick_11"><use style="fill:#969696;stroke:#969696;stroke-width:.4" x="428.859" xlink:href="#m4fd03043a9" y="279.786" id="line2d_12"/><g style="fill:#969696" transform="matrix(.14 0 0 -.14 413.288 296.835)" id="text_11"><use xlink:href="#HelveticaWorld-Regular-32"/><use x="55.615" xlink:href="#HelveticaWorld-Regular-30"/><use x="111.23" xlink:href="#HelveticaWorld-Regular-32"/><use x="166.846" xlink:href="#HelveticaWorld-Regular-31"/></g></g></g><g id="matplotlib.axis_2"><g id="ytick_1"><path clip-path="url(#p240f5da7e8)" d="M87.796 241.554h357.12" style="fill:none;stroke:#969696;stroke-linecap:square;stroke-width:.3" id="line2d_13"/><g id="line2d_14"><defs><path d="M0 0h-3.5" id="mba90e998aa" style="stroke:#969696;stroke-width:.3"/></defs><use style="fill:#969696;stroke:#969696;stroke-width:.3" x="87.796" xlink:href="#mba90e998aa" y="241.554"/></g><g style="fill:#969696" transform="matrix(.14 0 0 -.14 49.655 246.579)" id="text_12"><use xlink:href="#HelveticaWorld-Regular-32"/><use x="55.615" xlink:href="#HelveticaWorld-Regular-30"/><use x="111.23" xlink:href="#HelveticaWorld-Regular-30"/><use x="166.846" xlink:href="#HelveticaWorld-Regular-30"/></g></g><g id="ytick_2"><path clip-path="url(#p240f5da7e8)" d="M87.796 203.303h357.12" style="fill:none;stroke:#969696;stroke-linecap:square;stroke-width:.3" id="line2d_15"/><use style="fill:#969696;stroke:#969696;stroke-width:.3" x="87.796" xlink:href="#mba90e998aa" y="203.303" id="line2d_16"/><g style="fill:#969696" transform="matrix(.14 0 0 -.14 49.655 208.328)" id="text_13"><use xlink:href="#HelveticaWorld-Regular-34"/><use x="55.615" xlink:href="#HelveticaWorld-Regular-30"/><use x="111.23" xlink:href="#HelveticaWorld-Regular-30"/><use x="166.846" xlink:href="#HelveticaWorld-Regular-30"/></g></g><g id="ytick_3"><path clip-path="url(#p240f5da7e8)" d="M87.796 165.052h357.12" style="fill:none;stroke:#969696;stroke-linecap:square;stroke-width:.3" id="line2d_17"/><use style="fill:#969696;stroke:#969696;stroke-width:.3" x="87.796" xlink:href="#mba90e998aa" y="165.052" id="line2d_18"/><g style="fill:#969696" transform="matrix(.14 0 0 -.14 49.655 170.077)" id="text_14"><use xlink:href="#HelveticaWorld-Regular-36"/><use x="55.615" xlink:href="#HelveticaWorld-Regular-30"/><use x="111.23" xlink:href="#HelveticaWorld-Regular-30"/><use x="166.846" xlink:href="#HelveticaWorld-Regular-30"/></g></g><g id="ytick_4"><path clip-path="url(#p240f5da7e8)" d="M87.796 126.801h357.12" style="fill:none;stroke:#969696;stroke-linecap:square;stroke-width:.3" id="line2d_19"/><use style="fill:#969696;stroke:#969696;stroke-width:.3" x="87.796" xlink:href="#mba90e998aa" y="126.801" id="line2d_20"/><g style="fill:#969696" transform="matrix(.14 0 0 -.14 49.655 131.826)" id="text_15"><use xlink:href="#HelveticaWorld-Regular-38"/><use x="55.615" xlink:href="#HelveticaWorld-Regular-30"/><use x="111.23" xlink:href="#HelveticaWorld-Regular-30"/><use x="166.846" xlink:href="#HelveticaWorld-Regular-30"/></g></g><g id="ytick_5"><path clip-path="url(#p240f5da7e8)" d="M87.796 88.55h357.12" style="fill:none;stroke:#969696;stroke-linecap:square;stroke-width:.3" id="line2d_21"/><use style="fill:#969696;stroke:#969696;stroke-width:.3" x="87.796" xlink:href="#mba90e998aa" y="88.55" id="line2d_22"/><g style="fill:#969696" transform="matrix(.14 0 0 -.14 41.87 93.575)" id="text_16"><use xlink:href="#HelveticaWorld-Regular-31"/><use x="55.615" xlink:href="#HelveticaWorld-Regular-30"/><use x="111.23" xlink:href="#HelveticaWorld-Regular-30"/><use x="166.846" xlink:href="#HelveticaWorld-Regular-30"/><use x="222.461" xlink:href="#HelveticaWorld-Regular-30"/></g></g><g id="ytick_6"><path clip-path="url(#p240f5da7e8)" d="M87.796 50.3h357.12" style="fill:none;stroke:#969696;stroke-linecap:square;stroke-width:.3" id="line2d_23"/><use style="fill:#969696;stroke:#969696;stroke-width:.3" x="87.796" xlink:href="#mba90e998aa" y="50.299" id="line2d_24"/><g style="fill:#969696" transform="matrix(.14 0 0 -.14 41.87 55.324)" id="text_17"><use xlink:href="#HelveticaWorld-Regular-31"/><use x="55.615" xlink:href="#HelveticaWorld-Regular-32"/><use x="111.23" xlink:href="#HelveticaWorld-Regular-30"/><use x="166.846" xlink:href="#HelveticaWorld-Regular-30"/><use x="222.461" xlink:href="#HelveticaWorld-Regular-30"/></g></g><g style="fill:#969696" transform="matrix(.14 0 0 -.14 7.2 20.79)" id="text_18"><defs><path d="M2463 2456h2018V0h-403l-150 594q-294-375-691-546-396-170-824-170-691 0-1155 301-464 302-721 833-256 532-256 1326 0 990 589 1684t1586 694q744 0 1300-416 557-416 647-1100h-600q-109 453-462 709-353 257-916 257-678 0-1091-511-412-511-412-1352 0-978 409-1436 410-458 1119-458 463 0 783 183t492 497q172 314 172 836H2463v531z" id="HelveticaWorld-Regular-47" transform="scale(.01563)"/><path d="M422 3956v638h562v-638H422zM984 0H422v3347h562V0z" id="HelveticaWorld-Regular-69" transform="scale(.01563)"/><path d="M1100 2881V703q0-128 70-195 71-67 252-67h216V0q-307-44-422-44-353 0-516 169-162 169-162 547v2209H84v466h454v934h562v-934h538v-466h-538z" id="HelveticaWorld-Regular-74" transform="scale(.01563)"/><path d="M4153 0h-622v2144H1131V0H519v4594h612V2694h2400v1900h622V0z" id="HelveticaWorld-Regular-48" transform="scale(.01563)"/><path d="M391 3347h562V1125q0-369 167-552 168-182 480-182 434 0 678 307 244 308 244 805v1844h562V0h-531v488l-12 12Q2222-97 1478-97q-481 0-784 262-303 263-303 776v2406z" id="HelveticaWorld-Regular-75" transform="scale(.01563)"/><path d="M2778 1684q0 672-238 963-237 291-677 291-447-7-676-349-228-342-228-989 0-659 275-934t641-275q416 0 659 342 244 342 244 951zM422 0v4594h562V2925h13q359 519 969 519 625 0 1009-464t384-1208q0-838-388-1354Q2584-97 1888-97q-613 0-922 513h-13V0H422z" id="HelveticaWorld-Regular-62" transform="scale(.01563)"/><path d="M2309 2394q-12 300-214 431-201 131-579 131-275 0-471-122-195-121-195-350 0-181 115-267 116-86 501-183l556-140q506-128 723-327 218-198 218-554 0-494-361-802T1638-97Q934-97 573 195q-360 293-367 880h544q13-347 230-516 217-168 651-168 353 0 561 140 208 141 208 391 0 178-135 284-134 107-531 197l-653 160q-397 100-586 298t-189 514q0 494 353 781 354 288 922 288 607 0 930-296 323-295 342-754h-544z" id="HelveticaWorld-Regular-73" transform="scale(.01563)"/><path d="M2456 1709q-62-65-245-106-183-40-683-106-369-44-542-182-173-137-173-362 0-275 146-428 147-153 469-153 403 0 715 229 313 230 313 558v550zM397 2328q19 566 367 841 349 275 1014 275 531 0 890-241 360-240 360-694V581q0-197 178-197 72 0 185 25V0q-153-63-319-63-288 0-429 123-140 124-146 387Q2016-97 1288-97q-475 0-763 269-287 269-287 700 0 441 250 712 250 272 728 329l993 121q269 41 269 397 0 263-195 403-195 141-592 141-353 0-543-156-189-156-226-491H397z" id="HelveticaWorld-Regular-61" transform="scale(.01563)"/><path d="M984 0H422v3347h531v-556h13q365 653 940 653 91 0 147-19v-584h-209q-378 0-619-257-241-256-241-637V0z" id="HelveticaWorld-Regular-72" transform="scale(.01563)"/></defs><use xlink:href="#HelveticaWorld-Regular-47"/><use x="77.1" xlink:href="#HelveticaWorld-Regular-69"/><use x="99.121" xlink:href="#HelveticaWorld-Regular-74"/><use x="126.807" xlink:href="#HelveticaWorld-Regular-48"/><use x="199.805" xlink:href="#HelveticaWorld-Regular-75"/><use x="254.59" xlink:href="#HelveticaWorld-Regular-62"/><use x="311.084" xlink:href="#HelveticaWorld-Regular-20"/><use x="335.498" xlink:href="#HelveticaWorld-Regular-73"/><use x="385.498" xlink:href="#HelveticaWorld-Regular-74"/><use x="413.184" xlink:href="#HelveticaWorld-Regular-61"/><use x="468.115" xlink:href="#HelveticaWorld-Regular-72"/><use x="500.684" xlink:href="#HelveticaWorld-Regular-73"/></g></g><path clip-path="url(#p240f5da7e8)" d="m160.972 278.791 12.957-.21 4.665-.134 7.77-.23 7.985-.707 1.88-.249 2.982-.095 7.656-.9.636-.707 1.107-.344 1.3-.172 3.238-.191 3.864-.517 12.38-1.224 16.683-2.295 2.132-.191 1.495-.344 15.14-2.123 11.174-2.468 2.17-.344 3.075-.707 3.129-.708 2.67-.364 1.06-.344 10.574-2.123.95-.363 4.46-1.052 3.061-.708 1.683-.363 2.644-.708 5.664-2.103 2.743-1.416 3.319-1.415 2.664-1.415 1.89-.689 5.24-3.538 2.788-1.415 3.907-2.812 1.584-1.415 1.869-1.415 6.653-4.246 1.298-1.415 2.056-1.397 4.792-2.83 1.797-1.416 2.32-1.396 1.766-.707 1.235-.708 1.856-.708 3.635-2.123 1.97-1.396 11.36-6.368 1.813-.708 1.245-.708 5.019-2.123 1.055-.688 3.489-1.415 1.418-.708 2.948-.708 2.678-1.415 1.91-.708 4.861-2.811 1.908-.708 7.668-3.519 1.877-.708 2.49-.707 3.907-2.123 1.944-.708 1.532-.707 1.995-.708.914-.708 2.128-.707 1.643-.708 1.266-.708 1.536-.707 2.007-.708h0" style="fill:none;stroke:#d62728;stroke-linecap:square;stroke-width:1.5" id="line2d_25"/><path clip-path="url(#p240f5da7e8)" d="m87.796 279.786 2.14-4.189 11.359-.994 7.726-.612.897-.153 5.372-.46 1.943-.229 3.708-.23 13.277-.84 21.853-.957 13.357-.038 1.495-.46 2.422-.611 3.384-.593 2.767-.612 3.614-.918 2.172-.306 1.168-.306 1.941-.306 2.536-.612 1.928-.612 1.518-.612 6.466-1.836 4.37-1.224 1.697-.612 3.895-1.224.713-.593 2.585-.612 3.944-1.224 3.883-1.836 2.13-.612 1.518-.612 2.003-.612 1.429-.612 3.935-1.224 1.373-.612 1.472-1.224 7.367-4.897 2.415-1.224 2.07-1.224 5.037-2.448 1.92-1.205 2.163-1.224 1.935-1.224 1.577-1.224 2.51-1.224 2.058-1.224 2.358-1.224 1.794-1.224 1.557-1.205 1.787-1.224 4.587-2.448 1.173-1.224 2.528-1.224 3.876-2.448 6.505-3.653 4.175-2.448 6.942-3.672 1.944-1.224 1.587-1.224 1.353-1.224 1.618-1.224 1.832-1.224 1.632-1.224L323 197.91l1.63-1.224 1.902-1.224 2.756-2.448 1.84-1.224 1.533-1.205 3.846-3.672 2.436-2.449 3.931-3.652 3.104-2.449 2.1-1.224 1.826-1.224 1.483-1.224 1.237-1.224 4.39-3.672 1.927-1.224 1.507-1.224 1.8-1.224 1.556-1.224 1.759-1.224 1.464-1.224 1.854-1.205 1.402-1.224 2.612-2.448 1.738-1.224 1.319-1.224 1.505-1.224 2.154-1.224 1.376-1.224 1.561-1.224 1.835-1.224 4.033-1.836 3.927-1.836 5.228-2.448 2.145-.593 1.425-.612 1.552-1.224 2.683-1.224 3.95-2.448 2.37-1.224 4.274-1.836 7.164-3.06 3.074-1.225 8.065-3.672 1.435-.612 3.255-1.224 1.553-.612 1.987-.44 1.081-.459 1.331-.898h0" style="fill:none;stroke:#2ca02c;stroke-linecap:square;stroke-width:1.5" id="line2d_26"/><g style="fill:#1f77b4" transform="matrix(.14 0 0 -.14 448.487 17.25)" id="text_19"><defs><path d="M1131 0H519v4594h612V2369l2228 2225h860L2303 2741 4269 0h-800L1863 2303l-732-690V0z" id="HelveticaWorld-Regular-4b" transform="scale(.01563)"/><path d="M1625 4044H78v550h3731v-550H2247V0h-622v4044z" id="HelveticaWorld-Regular-54" transform="scale(.01563)"/><path d="M2719 1941q-44 543-288 770-243 227-647 227-409 0-661-288-251-287-267-709h1863zm537-891q-93-519-509-859-366-288-963-294-703 6-1116 461-412 455-412 1223 0 882 425 1372 425 491 1182 491 678 0 1059-507 381-506 381-1446H856q0-525 244-813 244-287 731-287 344 0 591 207 247 208 272 452h562z" id="HelveticaWorld-Regular-65" transform="scale(.01563)"/><path d="M4116 0h-769L2113 1888 838 0H91l1643 2356L191 4594h781l1166-1760 1165 1760h741L2503 2356 4116 0z" id="HelveticaWorld-Regular-58" transform="scale(.01563)"/><path d="M319-122h-428l1575 4838h422L319-122z" id="HelveticaWorld-Regular-2f" transform="scale(.01563)"/></defs><use xlink:href="#HelveticaWorld-Regular-4b"/><use x="67.188" xlink:href="#HelveticaWorld-Regular-61"/><use x="122.119" xlink:href="#HelveticaWorld-Regular-54"/><use x="170.611" xlink:href="#HelveticaWorld-Regular-65"/><use x="226.031" xlink:href="#HelveticaWorld-Regular-58"/><use x="292.145" xlink:href="#HelveticaWorld-Regular-2f"/><use x="319.928" xlink:href="#HelveticaWorld-Regular-4b"/><use x="387.115" xlink:href="#HelveticaWorld-Regular-61"/><use x="442.047" xlink:href="#HelveticaWorld-Regular-54"/><use x="490.539" xlink:href="#HelveticaWorld-Regular-65"/><use x="545.959" xlink:href="#HelveticaWorld-Regular-58"/></g><g style="fill:#ff7f0e" transform="matrix(.14 0 0 -.14 448.487 69.064)" id="text_20"><defs><path d="M984 3956H422v638h562v-638zm0-4450q0-478-227-664-226-186-629-186-115 0-237 19v487H38q237 0 310 71 74 70 74 339v3775h562V-494z" id="HelveticaWorld-Regular-6a" transform="scale(.01563)"/><path d="M813 1678q0-559 253-920t718-361q482 0 732 378t250 903q0 531-250 901-250 371-732 371-446 0-709-349-262-348-262-923zm-575 0q0 747 415 1256 416 510 1131 510 732 0 1144-516 413-515 413-1250 0-737-410-1256Q2522-97 1784-97q-709 0-1128 503-418 503-418 1272z" id="HelveticaWorld-Regular-6f" transform="scale(.01563)"/><path d="M838 1684q0-621 246-957 247-336 657-336 390 0 652 287 263 288 263 838 0 706-224 1064-223 358-679 358-434 0-675-285-240-284-240-969zM3225 0h-531v459h-13Q2363-97 1716-97q-697 0-1079 531-381 532-381 1338 0 744 378 1208 379 464 1016 464 628 0 1000-569l13 38v1681h562V0z" id="HelveticaWorld-Regular-64" transform="scale(.01563)"/><path d="M3150 0h-566v2059q0 475-166 677-165 202-549 202-378 0-632-288-253-287-253-825V0H422v3347h531v-472h13q397 569 1012 569 569 0 870-302 302-301 302-864V0z" id="HelveticaWorld-Regular-6e" transform="scale(.01563)"/><path d="M831 1684q0-615 244-954t659-339q404 0 660 293 256 294 256 832 0 706-224 1064-223 358-679 358-459 0-688-305-228-305-228-949zM3188 191q0-807-388-1203-387-397-1169-397-562 0-895 259T353-409h563q43-244 226-388t530-144q472 0 712 254 241 253 241 821v238h-12Q2297-97 1722-97q-716 0-1094 528T250 1772q0 744 381 1208 382 464 1013 464 634 0 1000-569h12v472h532V191z" id="HelveticaWorld-Regular-67" transform="scale(.01563)"/><path d="M422 3347h531v-472h13q378 569 1012 569 628 0 891-544 240 294 465 419t557 125q434 0 735-285 302-284 302-843V0h-562v2163q0 390-147 582-147 193-475 193-331 0-560-269-228-269-228-628V0h-562v2316q0 290-135 456-134 166-390 166-403 0-644-300t-241-813V0H422v3347z" id="HelveticaWorld-Regular-6d" transform="scale(.01563)"/><path d="M3150 0h-566v2188q0 403-156 576-156 174-509 174-435 0-685-282-250-281-250-831V0H422v4594h562V2900h13q384 544 981 544 550 0 861-288 311-287 311-878V0z" id="HelveticaWorld-Regular-68" transform="scale(.01563)"/></defs><use xlink:href="#HelveticaWorld-Regular-6a"/><use x="22.021" xlink:href="#HelveticaWorld-Regular-6f"/><use x="77.93" xlink:href="#HelveticaWorld-Regular-73"/><use x="126.93" xlink:href="#HelveticaWorld-Regular-64"/><use x="183.912" xlink:href="#HelveticaWorld-Regular-65"/><use x="239.332" xlink:href="#HelveticaWorld-Regular-6a"/><use x="261.354" xlink:href="#HelveticaWorld-Regular-6f"/><use x="317.262" xlink:href="#HelveticaWorld-Regular-6e"/><use x="372.438" xlink:href="#HelveticaWorld-Regular-67"/><use x="428.346" xlink:href="#HelveticaWorld-Regular-2f"/><use x="456.129" xlink:href="#HelveticaWorld-Regular-6d"/><use x="539.137" xlink:href="#HelveticaWorld-Regular-61"/><use x="594.068" xlink:href="#HelveticaWorld-Regular-74"/><use x="621.754" xlink:href="#HelveticaWorld-Regular-68"/><use x="676.93" xlink:href="#HelveticaWorld-Regular-6a"/><use x="698.951" xlink:href="#HelveticaWorld-Regular-73"/></g><g style="fill:#2ca02c" transform="matrix(.14 0 0 -.14 448.487 125.21)" id="text_21"><defs><path d="M3138 0h-725l-825 1259L781 0H72l1169 1722L128 3347h716l775-1178 781 1178h684L1959 1722 3138 0z" id="HelveticaWorld-Regular-78" transform="scale(.01563)"/><path d="M4319 0v2713q0 53 6 520t6 626h-18L3028 0h-615L1125 3853h-19q0-231 6-659 7-428 7-481V0H519v4594h887L2713 709h18l1300 3885h891V0h-603z" id="HelveticaWorld-Regular-4d" transform="scale(.01563)"/><path d="M753 1478v-312q0-372 164-565 164-192 527-192 378 0 557 198 180 199 180 596v3391h622V1241q0-660-350-1012-350-351-975-351-615 0-961 314-345 314-345 839v447h581z" id="HelveticaWorld-Regular-4a" transform="scale(.01563)"/></defs><use xlink:href="#HelveticaWorld-Regular-6d"/><use x="83.008" xlink:href="#HelveticaWorld-Regular-61"/><use x="137.939" xlink:href="#HelveticaWorld-Regular-74"/><use x="165.625" xlink:href="#HelveticaWorld-Regular-68"/><use x="220.801" xlink:href="#HelveticaWorld-Regular-6a"/><use x="242.822" xlink:href="#HelveticaWorld-Regular-61"/><use x="297.754" xlink:href="#HelveticaWorld-Regular-78"/><use x="347.754" xlink:href="#HelveticaWorld-Regular-2f"/><use x="375.537" xlink:href="#HelveticaWorld-Regular-4d"/><use x="460.547" xlink:href="#HelveticaWorld-Regular-61"/><use x="515.479" xlink:href="#HelveticaWorld-Regular-74"/><use x="543.164" xlink:href="#HelveticaWorld-Regular-68"/><use x="598.34" xlink:href="#HelveticaWorld-Regular-4a"/><use x="647.914" xlink:href="#HelveticaWorld-Regular-61"/><use x="702.846" xlink:href="#HelveticaWorld-Regular-78"/></g><g style="fill:#d62728" transform="matrix(.14 0 0 -.14 448.487 193.054)" id="text_22"><defs><path d="M3200 0h-722L1434 1691l-468-422V0H422v4594h544V1931l1440 1416h716L1844 2100 3200 0z" id="HelveticaWorld-Regular-6b" transform="scale(.01563)"/><path d="M2534 2222q-121 716-793 716-416 0-669-333t-253-927q0-647 234-967 235-320 681-320 300 0 519 220t281 573h544q-84-621-439-951T1722-97q-659 0-1081 451-422 452-422 1227 0 850 422 1356 422 507 1184 507 556 0 886-333t367-889h-544z" id="HelveticaWorld-Regular-63" transform="scale(.01563)"/><path d="M984 0H422v4594h562V0z" id="HelveticaWorld-Regular-6c" transform="scale(.01563)"/><path d="M1222 0H556v678h666V0z" id="HelveticaWorld-Regular-2e" transform="scale(.01563)"/></defs><use xlink:href="#HelveticaWorld-Regular-4d"/><use x="85.01" xlink:href="#HelveticaWorld-Regular-69"/><use x="107.031" xlink:href="#HelveticaWorld-Regular-6b"/><use x="154.656" xlink:href="#HelveticaWorld-Regular-65"/><use x="210.076" xlink:href="#HelveticaWorld-Regular-4d"/><use x="295.086" xlink:href="#HelveticaWorld-Regular-63"/><use x="346.355" xlink:href="#HelveticaWorld-Regular-6c"/><use x="368.377" xlink:href="#HelveticaWorld-Regular-2f"/><use x="396.16" xlink:href="#HelveticaWorld-Regular-62"/><use x="452.654" xlink:href="#HelveticaWorld-Regular-69"/><use x="474.676" xlink:href="#HelveticaWorld-Regular-67"/><use x="530.584" xlink:href="#HelveticaWorld-Regular-6e"/><use x="585.76" xlink:href="#HelveticaWorld-Regular-75"/><use x="640.545" xlink:href="#HelveticaWorld-Regular-6d"/><use x="723.553" xlink:href="#HelveticaWorld-Regular-62"/><use x="780.047" xlink:href="#HelveticaWorld-Regular-65"/><use x="835.467" xlink:href="#HelveticaWorld-Regular-72"/><use x="863.035" xlink:href="#HelveticaWorld-Regular-2e"/><use x="890.818" xlink:href="#HelveticaWorld-Regular-6a"/><use x="912.84" xlink:href="#HelveticaWorld-Regular-73"/></g><g style="fill:#9467bd" transform="matrix(.14 0 0 -.14 448.487 251.19)" id="text_23"><use xlink:href="#HelveticaWorld-Regular-6e"/><use x="55.176" xlink:href="#HelveticaWorld-Regular-75"/><use x="109.961" xlink:href="#HelveticaWorld-Regular-6d"/><use x="192.969" xlink:href="#HelveticaWorld-Regular-62"/><use x="249.463" xlink:href="#HelveticaWorld-Regular-65"/><use x="304.883" xlink:href="#HelveticaWorld-Regular-72"/><use x="337.451" xlink:href="#HelveticaWorld-Regular-73"/><use x="387.451" xlink:href="#HelveticaWorld-Regular-2f"/><use x="415.234" xlink:href="#HelveticaWorld-Regular-6e"/><use x="470.41" xlink:href="#HelveticaWorld-Regular-75"/><use x="525.195" xlink:href="#HelveticaWorld-Regular-6d"/><use x="608.203" xlink:href="#HelveticaWorld-Regular-62"/><use x="664.697" xlink:href="#HelveticaWorld-Regular-65"/><use x="720.117" xlink:href="#HelveticaWorld-Regular-72"/><use x="752.686" xlink:href="#HelveticaWorld-Regular-73"/><use x="801.186" xlink:href="#HelveticaWorld-Regular-2e"/><use x="828.969" xlink:href="#HelveticaWorld-Regular-6a"/><use x="850.99" xlink:href="#HelveticaWorld-Regular-73"/></g><g style="fill:#969696" transform="matrix(.09716 0 0 -.09716 87.796 313.576)" id="text_24"><defs><path d="m2816 1888-678 2021h-13l-737-2021h1428zm-1619-550L716 0H78l1728 4594h703L4172 0h-678l-453 1338H1197z" id="HelveticaWorld-Regular-41" transform="scale(.01563)"/><path d="M1141 2472h1234q466 0 700 204 234 205 234 621 0 372-225 569t-684 197H1141V2472zm0-2472H519v4594h2065q616 0 991-358t375-933q0-597-363-980-362-382-1003-382H1141V0z" id="HelveticaWorld-Regular-50" transform="scale(.01563)"/><path d="M1141 0H519v4594h622V0z" id="HelveticaWorld-Regular-49" transform="scale(.01563)"/><path d="M2522 3347h616L1863 0h-604L38 3347h653l872-2725h12l947 2725z" id="HelveticaWorld-Regular-76" transform="scale(.01563)"/><path d="M959 1516q0-538 262-832 263-293 654-293 428 0 665 348 238 349 238 945 0 654-228 954t-687 300q-447 0-676-352-228-352-228-1070zM422 3347h531v-472h13q359 569 1000 569 647 0 1020-471 373-470 373-1201 0-819-381-1344T1888-97q-582 0-891 450h-13v-1678H422v4672z" id="HelveticaWorld-Regular-70" transform="scale(.01563)"/><path d="M603 4716h466V-122H603v4838z" id="HelveticaWorld-Regular-7c" transform="scale(.01563)"/><path d="M3559 4594h600V0h-690L1125 3713h-12V0H519v4594h728L3547 884h12v3710z" id="HelveticaWorld-Regular-4e" transform="scale(.01563)"/><path d="M3225 3250q-19 438-327 686-307 248-810 248-507 0-779-208-271-207-271-598 0-209 118-359 119-150 425-222l1313-300q531-116 787-440 257-323 257-788 0-681-500-1036T2138-122q-610 0-962 156-351 157-623 497-272 341-272 953h582q0-512 340-794 341-281 928-281 569 0 886 202t317 573q0 338-189 505t-739 295l-990 232q-494 112-738 392t-244 689q0 619 417 1019 418 400 1165 400 843 0 1301-352 458-351 492-1114h-584z" id="HelveticaWorld-Regular-53" transform="scale(.01563)"/><path d="M813 1678q0-559 253-920t718-361q482 0 732 378t250 903q0 531-250 901-250 371-732 371-446 0-709-349-262-348-262-923zm-575 0q0 747 415 1256 416 510 1131 510 732 0 1144-516 413-515 413-1250 0-737-410-1256Q2522-97 1784-97q-709 0-1128 503-418 503-418 1272zm2351 2266h-575v650h575v-650zm-1038 0H976v650h575v-650z" id="HelveticaWorld-Regular-f6" transform="scale(.01563)"/><path d="M3713 3213q-104 468-434 710-329 243-854 243-678 0-1091-493-412-492-412-1329 0-969 390-1443 391-473 1132-473 487 0 838 323 352 324 474 940h603q-121-885-671-1349T2350-122q-941 0-1505 647T281 2322q0 1109 589 1751 589 643 1555 643 800 0 1297-413 497-412 591-1090h-600z" id="HelveticaWorld-Regular-43" transform="scale(.01563)"/><path d="M519 4594h2015q594 0 947-322t353-834q0-310-155-565-154-254-460-395 428-162 629-431 202-269 202-691 0-593-428-975Q3194 0 2491 0H519v4594zm612-4063h1325q488 0 731 226 244 227 244 612 0 390-272 582-271 193-803 193H1131V531zm0 2119h1128q494 0 724 179 230 180 230 562 0 328-218 500-217 172-729 172H1131V2650z" id="HelveticaWorld-Regular-42" transform="scale(.01563)"/><path d="M2388 0h-622v1850L31 4594h725l1319-2206 1316 2206h731L2388 1850V0z" id="HelveticaWorld-Regular-59" transform="scale(.01563)"/></defs><use xlink:href="#HelveticaWorld-Regular-47"/><use x="77.1" xlink:href="#HelveticaWorld-Regular-69"/><use x="99.121" xlink:href="#HelveticaWorld-Regular-74"/><use x="126.807" xlink:href="#HelveticaWorld-Regular-48"/><use x="199.805" xlink:href="#HelveticaWorld-Regular-75"/><use x="254.59" xlink:href="#HelveticaWorld-Regular-62"/><use x="311.084" xlink:href="#HelveticaWorld-Regular-20"/><use x="335.498" xlink:href="#HelveticaWorld-Regular-41"/><use x="402.197" xlink:href="#HelveticaWorld-Regular-50"/><use x="466.846" xlink:href="#HelveticaWorld-Regular-49"/><use x="492.627" xlink:href="#HelveticaWorld-Regular-20"/><use x="517.041" xlink:href="#HelveticaWorld-Regular-76"/><use x="566.65" xlink:href="#HelveticaWorld-Regular-69"/><use x="588.672" xlink:href="#HelveticaWorld-Regular-61"/><use x="643.604" xlink:href="#HelveticaWorld-Regular-20"/><use x="668.018" xlink:href="#HelveticaWorld-Regular-73"/><use x="718.018" xlink:href="#HelveticaWorld-Regular-74"/><use x="745.703" xlink:href="#HelveticaWorld-Regular-61"/><use x="800.635" xlink:href="#HelveticaWorld-Regular-72"/><use x="832.203" xlink:href="#HelveticaWorld-Regular-67"/><use x="888.111" xlink:href="#HelveticaWorld-Regular-72"/><use x="919.68" xlink:href="#HelveticaWorld-Regular-61"/><use x="974.611" xlink:href="#HelveticaWorld-Regular-70"/><use x="1031.105" xlink:href="#HelveticaWorld-Regular-68"/><use x="1086.281" xlink:href="#HelveticaWorld-Regular-20"/><use x="1110.695" xlink:href="#HelveticaWorld-Regular-7c"/><use x="1136.672" xlink:href="#HelveticaWorld-Regular-20"/><use x="1161.086" xlink:href="#HelveticaWorld-Regular-4e"/><use x="1234.182" xlink:href="#HelveticaWorld-Regular-69"/><use x="1256.203" xlink:href="#HelveticaWorld-Regular-63"/><use x="1307.473" xlink:href="#HelveticaWorld-Regular-6f"/><use x="1363.381" xlink:href="#HelveticaWorld-Regular-20"/><use x="1387.795" xlink:href="#HelveticaWorld-Regular-53"/><use x="1454.006" xlink:href="#HelveticaWorld-Regular-63"/><use x="1505.275" xlink:href="#HelveticaWorld-Regular-68"/><use x="1560.451" xlink:href="#HelveticaWorld-Regular-6c"/><use x="1582.473" xlink:href="#HelveticaWorld-Regular-f6"/><use x="1638.381" xlink:href="#HelveticaWorld-Regular-6d"/><use x="1721.389" xlink:href="#HelveticaWorld-Regular-65"/><use x="1776.809" xlink:href="#HelveticaWorld-Regular-72"/><use x="1809.377" xlink:href="#HelveticaWorld-Regular-20"/><use x="1833.791" xlink:href="#HelveticaWorld-Regular-7c"/><use x="1859.768" xlink:href="#HelveticaWorld-Regular-20"/><use x="1884.182" xlink:href="#HelveticaWorld-Regular-43"/><use x="1956.496" xlink:href="#HelveticaWorld-Regular-43"/><use x="2028.811" xlink:href="#HelveticaWorld-Regular-20"/><use x="2053.225" xlink:href="#HelveticaWorld-Regular-42"/><use x="2116.037" xlink:href="#HelveticaWorld-Regular-59"/></g><path clip-path="url(#p240f5da7e8)" d="m170.068 279.786 4.23-.191.253-.21.086-1.263.746-.842.716-.42 3.476-.421 1.782-.402 3.38-.42 13.008-2.525 1.318-6.694 2.104-6.694 1.73-1.664 2.695-1.683 6.733-2.505 4.04-1.243 1.918-.421 1.251-.842 1.752-1.683 2.03-2.505 2.405-.842 1.923-.822 11.302-4.189 1.62-.841 5.483-2.506 2.282-.841 1.921-.842 1.296-1.663 1.98-1.684 1.434-.822 9.247-4.208 1.233-1.683 1.14-.822 1.58-.841 5.174-3.347 2.69-1.683 1.877-.823 1.315-.841 5.786-2.506 4.577-2.524 2.183-1.664 4.116-2.506 1.492-.841 4.525-3.347 2.392-1.683 2.673-1.683 1.882-1.683 1.553-1.664 1.524-.842 8.639-5.852 2.398-1.683 2.02-1.664 2.416-1.683 1.671-1.664 2.313-1.683 1.515-1.664 4.133-3.347 3.675-3.366 2.1-1.683 2.69-13.388 2.448-6.694 1.786-3.347 2.611-3.366 1.633-3.347 1.18-1.664 2.088-1.683 1.757-1.664 1.55-1.683 1.072-1.664 2.104-1.683 5.533-5.01 1.321-1.684 1.52-1.664 1.725-1.683 2.028-1.683 3.155-3.347 4.694-3.347 2.145-1.683 1.605-1.664 9.725-8.377 1.552-.822 1.273-.842 1.676-.841 3.168-2.505 5.794-5.05.647-1.664 2.282-1.683 1.467-1.663 2.645-1.684 1.812-1.663 3.003-1.683 2.125-1.664 1.753-1.683 6.732-5.011 2.05-1.683 1.05-1.664 2.636-1.683 2.32-1.683 2.053-1.683h0" style="fill:none;stroke:#ff7f0e;stroke-linecap:square;stroke-width:1.5" id="line2d_27"/><path clip-path="url(#p240f5da7e8)" d="m182.944 279.786.658-.134 14.262-.115 14.598-.23 6.979-.133 2.393-.134.16-31.978 1.813-16.352 1.915-2.047 1.931-1.013 2.414-1.033 3.983-2.046 1.768-1.014 3.11-3.08 5.223-3.06.885-1.032 3.648-2.047 1.721-1.013 2.564-1.014 2.617-2.046 3.031-2.047 1.316-1.013 3.691-2.047 1.29-1.033 2.262-1.013 1.948-1.033 4.002-3.06 1.952-1.033 4.878-2.046 1.972-1.014 3.01-2.046 1.908-1.033 1.343-1.014 1.728-1.033 2.36-2.046 2.576-2.046 2.084-2.047 2.245-2.046 2.8-2.047 2.327-2.046 1.972-2.046 1.584-2.047 4.059-3.06 1.549-1.033 4.937-4.093 1.731-2.046 4.22-4.093 2.428-2.046 2.216-2.047 1.92-2.046.082-4.093 1.407-8.167 1.223-2.046 3.376-4.093 2.03-2.046 1.355-2.047 2.042-2.046 1.564-2.047 4.44-4.092 1.499-2.047 1.332-2.046 3.332-4.074 2.293-2.046 2.053-2.047 2.64-2.046 2.079-2.047 3.922-4.093 1.994-2.046 1.166-8.186 2.641-4.093 1.855-2.046 2.314-2.046 2.538-2.028 2.123-2.046 4.765-4.093 4.993-4.093 2.156-2.046 2.574-2.047 2.943-2.046 2.452-2.047 1.542-2.046 5.384-6.14 1.468-2.046 1.96-2.046 2.32-2.047 1.978-2.046 1.648-2.046 2.39-2.047.87-4.093 1.889-2.046 2.368-2.047 3.625-4.092 4.332-4.093 2.038-2.047 1.727-2.046 2.255-2.047.632-2.046 4.38-4.284h0" style="fill:none;stroke:#1f77b4;stroke-linecap:square;stroke-width:1.5" id="line2d_28"/></g></g><defs><clipPath id="p240f5da7e8"><path d="M87.796 13.674h357.12v266.112H87.796z"/></clipPath></defs></svg>