<svg height="475.353" viewBox="0 0 554.197 356.514" width="738.93" xmlns="http://www.w3.org/2000/svg" xmlns:xlink="http://www.w3.org/1999/xlink"><defs><style>*{stroke-linecap:butt;stroke-linejoin:round}</style></defs><g id="figure_1"><path d="M0 356.514h554.197V0H0z" fill="none" id="patch_1"/><g id="axes_1"><path d="M45.341 313.361h357.12V47.25H45.341z" fill="none" id="patch_2"/><path clip-path="url(#p0cf0962d3d)" d="M220.695 313.361l4.138-.043 1.343-.043 9.375-.043.068-.087.056-.217 1.381-.432 1.093-.217 3.08-.216.17-.477 2.051-.865 2.326-.433 2.793-.477 1.045-.216 2.48-.216 2.398-.433 2.346-.087 1.102-.13.443-.086 3.046-.13.712-.217 2.106-.13.426-.043 1.888-.043 1.94-.043 2.43-1.819 2.652-.866 1.714-.216 1.99-.216 2.446-.477 2.23-.865 2.624-.91 1.668-.433 3.073-.216 1.371-.216 1.676-.217 2.122-.216 3.013-.477 2.287-.432 2.088-.477.79-.216 2.774-.217 1.2-.216 2.776-.26 2.92-.433 2.148-.216 1.404-.217 2.24-.216 1.21-.217 2.175-.476 1.933-.433 1.39-.216 2.108-.217 3.026-.432 3.267-.477 3.055-.865 1.003-.433 2.75-.477 2.138-.433 3.273-.476 2.04-.433 3.143-.476 2.546-.433 2.411-.216 1.294-.217 3.095-.433 2.234-.476 3.053-.866.862-.909 1.69-.433 1.629-.433 1.688-.432 2.185-.477 2.898-.433 1.428-.476 2.675-.433 1.684-.476 2.92-.476 2.692-.52 1.755-.52 2.216-.519 2.232-.476 1.554-.476 1.555-.39 2.072-.433 1.345-.432 2.1-.433" fill="none" stroke="#7f7f7f" stroke-linecap="square" stroke-width="1.5" id="line2d_1"/><g id="matplotlib.axis_1"><g id="xtick_1"><g id="line2d_2"><defs><path d="M0 0v3.5" id="mb341c105a5" stroke="#969696" stroke-width=".4"/></defs><use x="73.125" xlink:href="#mb341c105a5" y="313.361" fill="#969696" stroke="#969696" stroke-width=".4"/></g><g transform="matrix(.14 0 0 -.14 57.554 330.41)" fill="#969696" id="text_1"><defs><path d="M4.39 45.125q0 12.39 6.391 18.781 6.406 6.407 17.938 6.407 9.656 0 15.812-5.86 6.157-5.86 6.157-15.14 0-7.22-3.547-12.188-3.532-4.953-10.422-8.703l-12.11-6.64Q13.922 15.921 12.5 8.296h38.188V0H2.593q.39 9.906 4.297 16.5 3.906 6.594 12.203 11.375l12.593 7.328q5.032 2.89 7.329 5.984 2.297 3.094 2.297 8.516 0 5.375-3.766 9.031-3.75 3.672-10.156 3.672-7.078 0-10.594-4.672-3.516-4.656-3.61-12.609z" id="HelveticaWorld-Regular-50"/><path d="M42.484 34.188q0 14.109-3.734 21.156-3.734 7.062-10.969 7.062-7.078 0-10.89-7.062-3.797-7.047-3.797-21.157 0-13.671 3.75-20.937Q20.609 6 27.78 6q7.235 0 10.969 7 3.734 7.016 3.734 21.188zm9.422 0q0-17.297-6.25-26.704-6.25-9.39-17.875-9.39-12.062 0-18.062 9.734-6 9.75-6 26.36 0 17.03 6.14 26.578 6.157 9.547 17.922 9.547 11.625 0 17.875-9.5t6.25-26.626z" id="HelveticaWorld-Regular-48"/><path d="M35.89 0h-9.374v49.906H10.109v6.985q8.594.28 12.782 2.75Q27.094 62.109 29 70.313h6.89z" id="HelveticaWorld-Regular-49"/><path d="M22.406 39.984q2.203-.187 4.594-.187 6.203 0 9.781 2.86 3.594 2.859 3.594 8.656 0 4.687-3.344 7.89-3.343 3.203-9.64 3.203-6.985 0-10.235-4.11-3.234-4.093-3.437-10.983h-8.64q0 10.984 5.765 16.984 5.765 6.016 16.937 6.016 9.922 0 15.828-5.11 5.907-5.094 5.907-13.39 0-10.704-9.032-14.5v-.204q11.72-4 11.72-16.406 0-9.906-6.595-16.265-6.593-6.344-18.703-6.344-9.906 0-16.312 5.203Q4.204 8.5 3.422 21.484H12.5q.203-8.109 4-11.797Q20.313 6 27.484 6q6.938 0 11.141 3.86 4.203 3.859 4.203 9.718 0 6.406-4.016 9.672-4 3.266-12.39 3.266-2 0-4.016-.094z" id="HelveticaWorld-Regular-51"/></defs><use xlink:href="#HelveticaWorld-Regular-50"/><use x="55.615" xlink:href="#HelveticaWorld-Regular-48"/><use x="111.23" xlink:href="#HelveticaWorld-Regular-49"/><use x="166.846" xlink:href="#HelveticaWorld-Regular-51"/></g></g><g id="xtick_2"><use x="113.357" xlink:href="#mb341c105a5" y="313.361" fill="#969696" stroke="#969696" stroke-width=".4" id="line2d_3"/><g transform="matrix(.14 0 0 -.14 97.787 330.41)" fill="#969696" id="text_2"><defs><path d="M10.594 24.703h22.61v31.89h-.188zM42 17.093V0h-8.797v17.094H2.484v8.593L34.72 70.314H42v-45.61h10.297v-7.61z" id="HelveticaWorld-Regular-52"/></defs><use xlink:href="#HelveticaWorld-Regular-50"/><use x="55.615" xlink:href="#HelveticaWorld-Regular-48"/><use x="111.23" xlink:href="#HelveticaWorld-Regular-49"/><use x="166.846" xlink:href="#HelveticaWorld-Regular-52"/></g></g><g id="xtick_3"><use x="153.59" xlink:href="#mb341c105a5" y="313.361" fill="#969696" stroke="#969696" stroke-width=".4" id="line2d_4"/><g transform="matrix(.14 0 0 -.14 138.02 330.41)" fill="#969696" id="text_3"><defs><path d="M14.703 40.922q5.813 4.39 13.625 4.39 9.469 0 16.281-6.296 6.813-6.297 6.813-16.22 0-10.78-6.578-17.796-6.563-7-18.422-7-10.313 0-16.266 5.047Q4.203 8.109 3.22 17.39h9.094q.671-5.672 4.437-8.672 3.766-3 10.453-3 6.485 0 10.64 4.484Q42 14.703 42 21.688q0 7.125-4.36 11.421-4.343 4.297-11.218 4.297-7.813 0-13.047-6.687l-7.563.39 5.266 37.594h36.438v-8.5H17.672z" id="HelveticaWorld-Regular-53"/></defs><use xlink:href="#HelveticaWorld-Regular-50"/><use x="55.615" xlink:href="#HelveticaWorld-Regular-48"/><use x="111.23" xlink:href="#HelveticaWorld-Regular-49"/><use x="166.846" xlink:href="#HelveticaWorld-Regular-53"/></g></g><g id="xtick_4"><use x="193.822" xlink:href="#mb341c105a5" y="313.361" fill="#969696" stroke="#969696" stroke-width=".4" id="line2d_5"/><g transform="matrix(.14 0 0 -.14 178.252 330.41)" fill="#969696" id="text_4"><defs><path d="M14.11 21.578q0-6.875 4.093-11.234Q22.313 6 28.906 6q6.297 0 10.032 4.438 3.734 4.453 3.734 11.687 0 6.297-3.688 10.547-3.687 4.25-10.468 4.25-6.594 0-10.5-4.156-3.907-4.157-3.907-11.188zM41.702 51.61q-.984 5.375-3.984 8.078-3 2.72-8.125 2.72-8.11 0-12.36-7.923-4.25-7.906-4.343-18.109l.203-.188q5.61 8.641 16.687 8.641 8.844 0 15.438-5.86 6.593-5.859 6.593-16.452 0-10.5-6.25-17.47-6.25-6.952-16.843-6.952-12.219 0-18.563 8.687-6.344 8.703-6.344 25.938 0 16.593 6.485 27.093 6.5 10.5 19.484 10.5 8.407 0 14.219-5.015 5.813-5 6.297-13.688z" id="HelveticaWorld-Regular-54"/></defs><use xlink:href="#HelveticaWorld-Regular-50"/><use x="55.615" xlink:href="#HelveticaWorld-Regular-48"/><use x="111.23" xlink:href="#HelveticaWorld-Regular-49"/><use x="166.846" xlink:href="#HelveticaWorld-Regular-54"/></g></g><g id="xtick_5"><use x="234.165" xlink:href="#mb341c105a5" y="313.361" fill="#969696" stroke="#969696" stroke-width=".4" id="line2d_6"/><g transform="matrix(.14 0 0 -.14 218.595 330.41)" fill="#969696" id="text_5"><defs><path d="M3.719 68.797h48.578v-7.719Q42.28 50.875 33.984 33.484 25.687 16.11 23.391 0h-9.672q1.469 13.281 9.719 30.531 8.25 17.266 18.953 29.672H3.719z" id="HelveticaWorld-Regular-55"/></defs><use xlink:href="#HelveticaWorld-Regular-50"/><use x="55.615" xlink:href="#HelveticaWorld-Regular-48"/><use x="111.23" xlink:href="#HelveticaWorld-Regular-49"/><use x="166.846" xlink:href="#HelveticaWorld-Regular-55"/></g></g><g id="xtick_6"><use x="274.398" xlink:href="#mb341c105a5" y="313.361" fill="#969696" stroke="#969696" stroke-width=".4" id="line2d_7"/><g transform="matrix(.14 0 0 -.14 258.827 330.41)" fill="#969696" id="text_6"><defs><path d="M27.594 40.578q5.422 0 8.953 3.094 3.547 3.11 3.547 8.234 0 4.594-3.407 7.547-3.39 2.953-9.687 2.953-5.61 0-8.672-3.11-3.047-3.093-3.047-7.874 0-5.125 3.813-7.984 3.812-2.86 8.5-2.86zm.093-7.562q-6.78 0-10.64-3.766-3.86-3.766-3.86-9.234 0-6.297 3.907-10.157Q21 6 28.219 6q6.406 0 10.234 3.86 3.828 3.859 3.828 10.265 0 5.469-3.828 9.172-3.828 3.719-10.766 3.719zM49.22 52.203q0-10.594-9.032-14.797 6.204-2.781 8.86-7.36 2.656-4.562 2.656-9.733 0-10.016-6.453-16.125-6.438-6.094-17.375-6.094-9.563 0-16.813 5.25-7.25 5.25-7.25 17.062 0 11.922 11.907 16.907-9.516 3.796-9.516 13.671 0 8.297 5.64 13.813 5.641 5.516 15.641 5.516 10.016 0 15.875-5.204 5.86-5.203 5.86-12.906z" id="HelveticaWorld-Regular-56"/></defs><use xlink:href="#HelveticaWorld-Regular-50"/><use x="55.615" xlink:href="#HelveticaWorld-Regular-48"/><use x="111.23" xlink:href="#HelveticaWorld-Regular-49"/><use x="166.846" xlink:href="#HelveticaWorld-Regular-56"/></g></g><g id="xtick_7"><use x="314.631" xlink:href="#mb341c105a5" y="313.361" fill="#969696" stroke="#969696" stroke-width=".4" id="line2d_8"/><g transform="matrix(.14 0 0 -.14 299.06 330.41)" fill="#969696" id="text_7"><defs><path d="M27.594 31.39q6 0 9.75 4.047 3.765 4.063 3.765 11.97 0 6.5-3.562 10.75-3.563 4.25-10.64 4.25-6.11 0-9.876-4.298-3.75-4.297-3.75-11.53 0-7.376 3.516-11.282 3.515-3.906 10.797-3.906zm-1.282-7.906q-10 0-16.062 6.203-6.047 6.204-6.047 16.5 0 10.407 6.094 17.266 6.11 6.86 16.515 6.86 12.11 0 18.36-8.157 6.25-8.156 6.25-24.453 0-16.906-6.406-28.266Q38.625-1.905 25.875-1.905q-9.953 0-15.422 5.593-5.469 5.594-5.469 13.204h8.829q.39-5.266 3.437-8.375 3.063-3.094 8.438-3.094 7.609 0 11.515 6.781Q41.11 19 42.578 31.688l-.187.203q-5.672-8.407-16.078-8.407z" id="HelveticaWorld-Regular-57"/></defs><use xlink:href="#HelveticaWorld-Regular-50"/><use x="55.615" xlink:href="#HelveticaWorld-Regular-48"/><use x="111.23" xlink:href="#HelveticaWorld-Regular-49"/><use x="166.846" xlink:href="#HelveticaWorld-Regular-57"/></g></g><g id="xtick_8"><use x="354.863" xlink:href="#mb341c105a5" y="313.361" fill="#969696" stroke="#969696" stroke-width=".4" id="line2d_9"/><g transform="matrix(.14 0 0 -.14 339.293 330.41)" fill="#969696" id="text_8"><use xlink:href="#HelveticaWorld-Regular-50"/><use x="55.615" xlink:href="#HelveticaWorld-Regular-48"/><use x="111.23" xlink:href="#HelveticaWorld-Regular-50"/><use x="166.846" xlink:href="#HelveticaWorld-Regular-48"/></g></g><g id="xtick_9"><use x="395.206" xlink:href="#mb341c105a5" y="313.361" fill="#969696" stroke="#969696" stroke-width=".4" id="line2d_10"/><g transform="matrix(.14 0 0 -.14 379.635 330.41)" fill="#969696" id="text_9"><use xlink:href="#HelveticaWorld-Regular-50"/><use x="55.615" xlink:href="#HelveticaWorld-Regular-48"/><use x="111.23" xlink:href="#HelveticaWorld-Regular-50"/><use x="166.846" xlink:href="#HelveticaWorld-Regular-49"/></g></g></g><g id="matplotlib.axis_2"><g id="ytick_1"><path clip-path="url(#p0cf0962d3d)" d="M45.341 270.113h357.12" fill="none" stroke="#969696" stroke-linecap="square" stroke-width=".3" id="line2d_11"/><g id="line2d_12"><defs><path d="M0 0h-3.5" id="maa57a410cb" stroke="#969696" stroke-width=".3"/></defs><use x="45.341" xlink:href="#maa57a410cb" y="270.113" fill="#969696" stroke="#969696" stroke-width=".3"/></g><g transform="matrix(.14 0 0 -.14 7.2 275.138)" fill="#969696" id="text_10"><use xlink:href="#HelveticaWorld-Regular-49"/><use x="55.615" xlink:href="#HelveticaWorld-Regular-48"/><use x="111.23" xlink:href="#HelveticaWorld-Regular-48"/><use x="166.846" xlink:href="#HelveticaWorld-Regular-48"/></g></g><g id="ytick_2"><path clip-path="url(#p0cf0962d3d)" d="M45.341 226.822h357.12" fill="none" stroke="#969696" stroke-linecap="square" stroke-width=".3" id="line2d_13"/><use x="45.341" xlink:href="#maa57a410cb" y="226.822" fill="#969696" stroke="#969696" stroke-width=".3" id="line2d_14"/><g transform="matrix(.14 0 0 -.14 7.2 231.847)" fill="#969696" id="text_11"><use xlink:href="#HelveticaWorld-Regular-50"/><use x="55.615" xlink:href="#HelveticaWorld-Regular-48"/><use x="111.23" xlink:href="#HelveticaWorld-Regular-48"/><use x="166.846" xlink:href="#HelveticaWorld-Regular-48"/></g></g><g id="ytick_3"><path clip-path="url(#p0cf0962d3d)" d="M45.341 183.53h357.12" fill="none" stroke="#969696" stroke-linecap="square" stroke-width=".3" id="line2d_15"/><use x="45.341" xlink:href="#maa57a410cb" y="183.531" fill="#969696" stroke="#969696" stroke-width=".3" id="line2d_16"/><g transform="matrix(.14 0 0 -.14 7.2 188.555)" fill="#969696" id="text_12"><use xlink:href="#HelveticaWorld-Regular-51"/><use x="55.615" xlink:href="#HelveticaWorld-Regular-48"/><use x="111.23" xlink:href="#HelveticaWorld-Regular-48"/><use x="166.846" xlink:href="#HelveticaWorld-Regular-48"/></g></g><g id="ytick_4"><path clip-path="url(#p0cf0962d3d)" d="M45.341 140.24h357.12" fill="none" stroke="#969696" stroke-linecap="square" stroke-width=".3" id="line2d_17"/><use x="45.341" xlink:href="#maa57a410cb" y="140.239" fill="#969696" stroke="#969696" stroke-width=".3" id="line2d_18"/><g transform="matrix(.14 0 0 -.14 7.2 145.264)" fill="#969696" id="text_13"><use xlink:href="#HelveticaWorld-Regular-52"/><use x="55.615" xlink:href="#HelveticaWorld-Regular-48"/><use x="111.23" xlink:href="#HelveticaWorld-Regular-48"/><use x="166.846" xlink:href="#HelveticaWorld-Regular-48"/></g></g><g id="ytick_5"><path clip-path="url(#p0cf0962d3d)" d="M45.341 96.948h357.12" fill="none" stroke="#969696" stroke-linecap="square" stroke-width=".3" id="line2d_19"/><use x="45.341" xlink:href="#maa57a410cb" y="96.948" fill="#969696" stroke="#969696" stroke-width=".3" id="line2d_20"/><g transform="matrix(.14 0 0 -.14 7.2 101.973)" fill="#969696" id="text_14"><use xlink:href="#HelveticaWorld-Regular-53"/><use x="55.615" xlink:href="#HelveticaWorld-Regular-48"/><use x="111.23" xlink:href="#HelveticaWorld-Regular-48"/><use x="166.846" xlink:href="#HelveticaWorld-Regular-48"/></g></g><g id="ytick_6"><path clip-path="url(#p0cf0962d3d)" d="M45.341 53.656h357.12" fill="none" stroke="#969696" stroke-linecap="square" stroke-width=".3" id="line2d_21"/><use x="45.341" xlink:href="#maa57a410cb" y="53.656" fill="#969696" stroke="#969696" stroke-width=".3" id="line2d_22"/><g transform="matrix(.14 0 0 -.14 7.2 58.681)" fill="#969696" id="text_15"><use xlink:href="#HelveticaWorld-Regular-54"/><use x="55.615" xlink:href="#HelveticaWorld-Regular-48"/><use x="111.23" xlink:href="#HelveticaWorld-Regular-48"/><use x="166.846" xlink:href="#HelveticaWorld-Regular-48"/></g></g></g><path clip-path="url(#p0cf0962d3d)" d="M185.933 313.361l7.897-.043 2.373-.043 4.232-.043 2.303-.13 3.799-.044 1.893-.086 1.533-.13 3.016-.13 2.696-.13.445-.043 2.222-.043 2.32-.044.776-.13 1.63-.26 2.379-.26.229-.259 3.123-.303 2.518-.26.908-.26 1.673-.519 1.74-.52 1.934-.26 1.723-.302 3.085-.52 1.899-.52 2.142-.259 2.566-.26 1.653-.13 1.656-.13 1.871-.302 2.765-.52 1.364-.52 3.183-.519 1.087-.26.758-.043 2.879-.087.576-.173 2.093-.52 3.3-.519 1.056-.52.831-.259 2.197-.13 1.238-.173 1.282-.52 1.542-.26 1.789-.259 3.136-.52 1.6-.562 2.79-1.04 2.794-.519 2.977-.563 2.044-.52 2.067-.562 1.801-.52 2.091-.562 2.913-.52 1.2-.26.982-.13 2.893-.13 2.522-.519 3.102-.562 1.507-.26 2.083-.26 2.073-.52 2.005-.519 2.747-.563 2.526-.52 2.408-.519.83-.26 1.87-.13 1.52-.13 1.943-.259 1.984-.13 1.605-.173 1.706-.26 1.8-.26 2.677-.519 3.112-.52 1.752-.562 2.246-.52 2.065-.52 2.38-.519 2.426-.563 2.235-.26 1.33-.259 1.485-.52 2.15-1.082 2.436-1.039 3.042-1.082 3.162-1.082 1.747-.52 2.131-.563 2.993-.909 2.86-.952 2.474-.91 1.309-.952 2.306-.692 1.499-.693 1.495-.606 2.06-.606 1.807-.736 1.569-.736" fill="none" stroke="#e377c2" stroke-linecap="square" stroke-width="1.5" id="line2d_23"/><path clip-path="url(#p0cf0962d3d)" d="M167.452 313.361l1.374-.086 2.729-.13.367-.217.165-.476 1.2-.216 2.414-.217 1.814-.476 1.496-.216 2.382-.217.144-.476 1.648-.476 1.65-.217 1.81-.26 3.145-.909 1.249-.432 1.515-.217 2.736-.26 1.256-.216 1.467-.087 2.624-.13 2.958-.476 2.305-.216 1.74-.26 1.886-.476 1.974-.217 1.42-.216 2.075-.217 1.835-.26 1.664-.216 1.956-.216.479-.476 1.979-1.862 1.179-1.861 2.117-.433 1.41-.477 2.018-.476 1.356-.476 2.766-.91 2.758-.908 2.921-.433 2.846-.476 1.119-.953 2.966-1.861 1.655-.433 1.899-.476 1.286-.477 2.172-.476 2.503-.433 2.886-.476 1.257-.433 1.872-.216 1.688-.26 1.426-.216 2.117-.217 2.839-.476 1.927-.476 2.472-.477 2.829-.432 1.698-.477 2.74-.476 2.203-.476 1.093-.433 2.262-.476 1.807-.217 2.551-.26 2.156-.476 2.025-.433 2.07-.476 2.093-.216 1.591-.217 2.093-.476 2.648-.433.948-.476 1.853-.476 1.061-.217 2.567-.26 3.056-.432 2.782-.477.102-.909.066-1.861.145-3.68.748-1.861 2.175-.91 3.204-.952 2.763-.91 2.842-.908 1.882-.433 2.721-.476.967-.477 2.854-.476 2.308-.433 1.969-.476 2.197-.476 1.491-.476 2.87-.433 1.835-.476 1.568-.477 3.07-.476 2.52-.909 1.866-.433 3.037-.476 3.178-.91 2.11-.475 1.26-.477 2.674-.909 2.692-.952 2.049-.91 2.16-.475 2.03-.477 3.184-.303.936-.303 1.259-.606 2.7-.606 1.713-.606 1.733-.39 2.02-.39 1.852-.649 1.702-.692 1.445-1.212 2.056-1.213" fill="none" stroke="#8c564b" stroke-linecap="square" stroke-width="1.5" id="line2d_24"/><g transform="matrix(.14 0 0 -.14 406.032 50.825)" fill="#1f77b4" id="text_16"><defs><path d="M6.594 52.297h8.297v-7.375h.203q5.906 8.89 15.812 8.89 9.813 0 13.922-8.5 3.75 4.594 7.266 6.547 3.515 1.953 8.703 1.953 6.781 0 11.484-4.453Q77 44.922 77 36.187V0h-8.781v33.797q0 6.094-2.297 9.094-2.297 3.015-7.422 3.015-5.172 0-8.75-4.203-3.563-4.203-3.563-9.812V0h-8.78v36.188q0 4.53-2.11 7.124-2.094 2.594-6.094 2.594-6.297 0-10.062-4.687-3.766-4.688-3.766-12.703V0H6.594z" id="HelveticaWorld-Regular-109"/><path d="M6.594 61.813v9.968h8.781v-9.969zM15.375 0H6.594v52.297h8.781z" id="HelveticaWorld-Regular-105"/><path d="M17.188 45.016V0H8.405v45.016H1.22v7.28h7.187v8.985q0 5.907 3.578 8.703 3.594 2.813 10.032 2.813 2.203 0 3.968-.188v-7.906q-1.562.188-3.578.188-2.922 0-4.078-1.438-1.14-1.437-1.14-4.656v-6.5h8.796v-7.281z" id="HelveticaWorld-Regular-102"/><path d="M4.984-1.906h-6.687l24.61 75.594H29.5z" id="HelveticaWorld-Regular-47"/><path d="M15.375 0H6.594v71.781h8.781z" id="HelveticaWorld-Regular-108"/><path d="M12.703 26.219q0-8.735 3.953-14.375 3.953-5.64 11.219-5.64 7.531 0 11.438 5.905 3.906 5.907 3.906 14.11 0 8.297-3.907 14.078-3.906 5.797-11.437 5.797-6.969 0-11.078-5.453-4.094-5.438-4.094-14.422zm-8.984 0q0 11.672 6.484 19.625 6.5 7.968 17.672 7.968 11.438 0 17.875-8.062 6.453-8.047 6.453-19.531 0-11.516-6.406-19.625-6.39-8.11-17.922-8.11-11.078 0-17.625 7.86-6.531 7.86-6.531 19.875z" id="HelveticaWorld-Regular-111"/><path d="M36.078 37.406q-.187 4.688-3.344 6.735-3.14 2.047-9.047 2.047-4.296 0-7.359-1.907-3.047-1.89-3.047-5.468 0-2.829 1.797-4.172 1.813-1.344 7.828-2.86l8.688-2.187q7.906-2 11.297-5.11 3.406-3.093 3.406-8.656 0-7.719-5.64-12.531-5.641-4.813-15.063-4.813-11 0-16.64 4.563-5.626 4.578-5.735 13.75h8.5q.203-5.422 3.594-8.063 3.39-2.625 10.171-2.625 5.516 0 8.766 2.188 3.25 2.203 3.25 6.11 0 2.78-2.11 4.437-2.093 1.672-8.296 3.078l-10.203 2.5q-6.203 1.562-9.157 4.656-2.953 3.094-2.953 8.031 0 7.72 5.516 12.203 5.531 4.5 14.406 4.5 9.485 0 14.531-4.624 5.047-4.61 5.344-11.782z" id="HelveticaWorld-Regular-115"/><path d="M42.484 30.328q-.687 8.485-4.5 12.031-3.797 3.547-10.109 3.547-6.39 0-10.328-4.5-3.922-4.484-4.172-11.078zm8.391-13.922q-1.453-8.11-7.953-13.422-5.719-4.5-15.047-4.593-10.984.093-17.438 7.203Q4 12.704 4 24.704q0 13.78 6.64 21.437 6.641 7.672 18.47 7.672 10.593 0 16.546-7.922 5.953-7.907 5.953-22.594H13.375q0-8.203 3.813-12.703Q21 6.109 28.608 6.109q5.375 0 9.235 3.235 3.86 3.25 4.25 7.062z" id="HelveticaWorld-Regular-101"/><path d="M28.906 23.188H4.391v8.984h24.515z" id="HelveticaWorld-Regular-45"/><path d="M39.594 34.719q-1.89 11.187-12.39 11.187-6.5 0-10.454-5.203-3.953-5.203-3.953-14.484 0-10.11 3.656-15.11 3.672-5 10.64-5 4.688 0 8.11 3.438 3.422 3.437 4.39 8.953h8.5q-1.312-9.703-6.859-14.86-5.547-5.156-14.328-5.156-10.297 0-16.89 7.047-6.594 7.063-6.594 19.172 0 13.281 6.594 21.188 6.593 7.922 18.5 7.922 8.687 0 13.843-5.204 5.157-5.203 5.735-13.89z" id="HelveticaWorld-Regular-99"/><path d="M6.11 52.297h8.78V17.578q0-5.765 2.61-8.625Q20.125 6.11 25 6.11q6.781 0 10.594 4.797 3.812 4.813 3.812 12.578v28.813h8.782V0H39.89v7.625l-.188.188q-4.984-9.329-16.61-9.329-7.515 0-12.25 4.094Q6.11 6.688 6.11 14.703z" id="HelveticaWorld-Regular-117"/><path d="M17.188 45.016V10.984q0-2 1.093-3.046 1.11-1.047 3.938-1.047h3.375V0Q20.797-.688 19-.688q-5.516 0-8.063 2.641-2.53 2.64-2.53 8.547v34.516H1.311v7.28h7.094v14.595h8.781V52.297h8.407v-7.281z" id="HelveticaWorld-Regular-116"/></defs><use xlink:href="#HelveticaWorld-Regular-109"/><use x="83.008" xlink:href="#HelveticaWorld-Regular-105"/><use x="105.029" xlink:href="#HelveticaWorld-Regular-102"/><use x="132.715" xlink:href="#HelveticaWorld-Regular-105"/><use x="154.736" xlink:href="#HelveticaWorld-Regular-47"/><use x="182.52" xlink:href="#HelveticaWorld-Regular-108"/><use x="204.541" xlink:href="#HelveticaWorld-Regular-111"/><use x="260.449" xlink:href="#HelveticaWorld-Regular-115"/><use x="310.449" xlink:href="#HelveticaWorld-Regular-115"/><use x="360.449" xlink:href="#HelveticaWorld-Regular-108"/><use x="382.471" xlink:href="#HelveticaWorld-Regular-101"/><use x="437.891" xlink:href="#HelveticaWorld-Regular-115"/><use x="487.891" xlink:href="#HelveticaWorld-Regular-115"/><use x="537.891" xlink:href="#HelveticaWorld-Regular-45"/><use x="571.191" xlink:href="#HelveticaWorld-Regular-99"/><use x="622.461" xlink:href="#HelveticaWorld-Regular-117"/><use x="677.246" xlink:href="#HelveticaWorld-Regular-116"/></g><g transform="matrix(.14 0 0 -.14 406.032 111.692)" fill="#ff7f0e" id="text_17"><defs><path d="M39.406 52.297h9.625L29.11 0h-9.437L.594 52.297h10.203L24.422 9.719h.187z" id="HelveticaWorld-Regular-118"/><path d="M13.094 26.313q0-9.704 3.844-14.954 3.859-5.25 10.265-5.25 6.094 0 10.188 4.485 4.109 4.5 4.109 13.094 0 11.03-3.5 16.625-3.484 5.593-10.61 5.593-6.78 0-10.546-4.453-3.75-4.437-3.75-15.14zM50.39 0h-8.297v7.172h-.203q-4.97-8.688-15.078-8.688-10.891 0-16.86 8.297Q4 15.094 4 27.688q0 11.625 5.906 18.875 5.922 7.25 15.875 7.25 9.813 0 15.625-8.891l.203.594V71.78h8.782z" id="HelveticaWorld-Regular-100"/><path d="M15.375 0H6.594v52.297h8.297v-8.688h.203q5.703 10.203 14.687 10.203 1.422 0 2.297-.296V44.39h-3.266q-5.906 0-9.671-4.016-3.766-4-3.766-9.953z" id="HelveticaWorld-Regular-114"/></defs><use xlink:href="#HelveticaWorld-Regular-111"/><use x="55.908" xlink:href="#HelveticaWorld-Regular-108"/><use x="77.93" xlink:href="#HelveticaWorld-Regular-105"/><use x="99.951" xlink:href="#HelveticaWorld-Regular-118"/><use x="147.561" xlink:href="#HelveticaWorld-Regular-101"/><use x="202.98" xlink:href="#HelveticaWorld-Regular-45"/><use x="236.281" xlink:href="#HelveticaWorld-Regular-101"/><use x="291.701" xlink:href="#HelveticaWorld-Regular-100"/><use x="348.684" xlink:href="#HelveticaWorld-Regular-105"/><use x="370.705" xlink:href="#HelveticaWorld-Regular-116"/><use x="398.391" xlink:href="#HelveticaWorld-Regular-111"/><use x="454.299" xlink:href="#HelveticaWorld-Regular-114"/><use x="486.867" xlink:href="#HelveticaWorld-Regular-47"/><use x="514.65" xlink:href="#HelveticaWorld-Regular-111"/><use x="570.559" xlink:href="#HelveticaWorld-Regular-108"/><use x="592.58" xlink:href="#HelveticaWorld-Regular-105"/><use x="614.602" xlink:href="#HelveticaWorld-Regular-118"/><use x="662.211" xlink:href="#HelveticaWorld-Regular-101"/></g><g transform="matrix(.14 0 0 -.14 406.032 144.507)" fill="#2ca02c" id="text_18"><defs><path d="M38.375 26.703q-.969-1.015-3.828-1.656-2.86-.625-10.672-1.656-5.766-.688-8.469-2.844-2.703-2.14-2.703-5.656 0-4.297 2.281-6.688 2.297-2.39 7.329-2.39 6.296 0 11.171 3.578 4.891 3.593 4.891 8.718zM6.203 36.375q.297 8.844 5.734 13.14 5.454 4.297 15.844 4.297 8.297 0 13.907-3.765 5.624-3.75 5.624-10.844V9.078Q47.313 6 50.094 6q1.125 0 2.89.39V0Q50.594-.984 48-.984q-4.5 0-6.703 1.921-2.188 1.938-2.281 6.047-7.516-8.5-18.891-8.5-7.422 0-11.922 4.204Q3.72 6.89 3.72 13.624q0 6.89 3.906 11.125Q11.531 29 19 29.89l15.516 1.891q4.203.64 4.203 6.203 0 4.11-3.047 6.297-3.047 2.203-9.25 2.203-5.516 0-8.485-2.437-2.953-2.438-3.53-7.672z" id="HelveticaWorld-Regular-97"/><path d="M25.594 0h-8.985L1.516 52.297h9.468L21 11.187h.188l10.109 41.11h9.922l10.203-41.11h.187l10.594 41.11h8.703L55.812 0h-9.234L35.984 40.484h-.187z" id="HelveticaWorld-Regular-119"/><path d="M50 0H38.719L22.406 26.422l-7.312-6.594V0h-8.5v71.781h8.5v-41.61l22.5 22.126H48.78L28.813 32.813z" id="HelveticaWorld-Regular-107"/><path d="M49.219 0h-8.844v34.188q0 6.296-2.438 9-2.437 2.718-7.953 2.718-6.797 0-10.703-4.406-3.906-4.39-3.906-12.984V0H6.594v71.781h8.781V45.312h.203q6 8.5 15.328 8.5 8.594 0 13.453-4.5 4.86-4.484 4.86-13.718z" id="HelveticaWorld-Regular-104"/></defs><use xlink:href="#HelveticaWorld-Regular-109"/><use x="83.008" xlink:href="#HelveticaWorld-Regular-108"/><use x="105.029" xlink:href="#HelveticaWorld-Regular-116"/><use x="132.715" xlink:href="#HelveticaWorld-Regular-102"/><use x="160.4" xlink:href="#HelveticaWorld-Regular-114"/><use x="191.969" xlink:href="#HelveticaWorld-Regular-97"/><use x="246.9" xlink:href="#HelveticaWorld-Regular-109"/><use x="329.908" xlink:href="#HelveticaWorld-Regular-101"/><use x="383.828" xlink:href="#HelveticaWorld-Regular-119"/><use x="454.74" xlink:href="#HelveticaWorld-Regular-111"/><use x="510.648" xlink:href="#HelveticaWorld-Regular-114"/><use x="543.217" xlink:href="#HelveticaWorld-Regular-107"/><use x="593.217" xlink:href="#HelveticaWorld-Regular-47"/><use x="621" xlink:href="#HelveticaWorld-Regular-115"/><use x="671" xlink:href="#HelveticaWorld-Regular-104"/><use x="726.176" xlink:href="#HelveticaWorld-Regular-111"/><use x="782.084" xlink:href="#HelveticaWorld-Regular-116"/><use x="809.77" xlink:href="#HelveticaWorld-Regular-99"/><use x="861.039" xlink:href="#HelveticaWorld-Regular-117"/><use x="915.824" xlink:href="#HelveticaWorld-Regular-116"/></g><g transform="matrix(.14 0 0 -.14 406.032 201.564)" fill="#d62728" id="text_19"><defs><path d="M39.016 52.297h9.562L29.891.984q-.5-1.375-.985-2.593-4.25-11.329-7.328-15.547-3.078-4.235-9.953-4.235-3.61 0-5.906.782v8.015q2.484-.89 5.468-.89 3.22 0 4.704 2.03 1.5 2.032 4.421 9.938L.875 52.297h9.922L24.812 9.719H25z" id="HelveticaWorld-Regular-121"/></defs><use xlink:href="#HelveticaWorld-Regular-109"/><use x="83.008" xlink:href="#HelveticaWorld-Regular-105"/><use x="105.029" xlink:href="#HelveticaWorld-Regular-102"/><use x="132.715" xlink:href="#HelveticaWorld-Regular-105"/><use x="154.736" xlink:href="#HelveticaWorld-Regular-47"/><use x="182.52" xlink:href="#HelveticaWorld-Regular-101"/><use x="237.939" xlink:href="#HelveticaWorld-Regular-100"/><use x="294.922" xlink:href="#HelveticaWorld-Regular-105"/><use x="316.943" xlink:href="#HelveticaWorld-Regular-116"/><use x="344.629" xlink:href="#HelveticaWorld-Regular-108"/><use x="366.65" xlink:href="#HelveticaWorld-Regular-121"/></g><g transform="matrix(.14 0 0 -.14 406.032 231.05)" fill="#9467bd" id="text_20"><defs><path d="M63.922 35.89q0 12.594-6.672 20.891-6.656 8.313-18.328 8.313-11.531 0-18.266-8.313-6.734-8.297-6.734-20.89 0-12.985 6.828-21.094 6.844-8.11 18.172-8.11 11.078 0 18.031 7.907 6.969 7.922 6.969 21.297zm9.953 0q0-16.062-9.281-26.937-9.266-10.86-25.672-10.86-16.516 0-25.766 10.86-9.25 10.875-9.25 26.938 0 16.109 9.25 26.953 9.25 10.843 25.766 10.843 16.89 0 25.922-11.046 9.031-11.032 9.031-26.75z" id="HelveticaWorld-Regular-79"/><path d="M14.984 23.688q0-8.407 4.094-13 4.11-4.579 10.219-4.579 6.687 0 10.39 5.438 3.72 5.453 3.72 14.765 0 10.22-3.563 14.907-3.563 4.687-10.735 4.687-6.984 0-10.562-5.5-3.563-5.5-3.563-16.718zm-8.39 28.609h8.297v-7.375h.203q5.61 8.89 15.625 8.89 10.11 0 15.937-7.359 5.828-7.344 5.828-18.766 0-12.796-5.953-21Q40.578-1.515 29.5-1.515q-9.094 0-13.922 7.032h-.203v-26.22H6.594z" id="HelveticaWorld-Regular-112"/><path d="M49.219 0h-8.844v32.172q0 7.422-2.594 10.578-2.578 3.156-8.578 3.156-5.906 0-9.875-4.5-3.953-4.484-3.953-12.89V0H6.594v52.297h8.297v-7.375h.203q6.203 8.89 15.812 8.89 8.89 0 13.594-4.718 4.719-4.703 4.719-13.5z" id="HelveticaWorld-Regular-110"/><path d="M50.39 50.781q-.296 6.844-5.109 10.719-4.797 3.875-12.656 3.875-7.922 0-12.172-3.25-4.234-3.234-4.234-9.344 0-3.265 1.843-5.61 1.86-2.343 6.641-3.468l20.516-4.687q8.297-1.813 12.297-6.875 4.015-5.047 4.015-12.313 0-10.64-7.812-16.187-7.813-5.547-20.313-5.547-9.531 0-15.031 2.437-5.484 2.453-9.734 7.766-4.25 5.328-4.25 14.89h9.093q0-8 5.313-12.406 5.328-4.39 14.5-4.39 8.89 0 13.844 3.156 4.953 3.156 4.953 8.953 0 5.281-2.953 7.89Q46.188 29 37.594 31l-15.469 3.625q-7.719 1.75-11.531 6.125Q6.78 45.125 6.78 51.516q0 9.672 6.516 15.922 6.531 6.25 18.203 6.25 13.172 0 20.328-5.5 7.156-5.485 7.688-17.407z" id="HelveticaWorld-Regular-83"/><path d="M41.5 23.688q0 11.125-3.5 16.671-3.484 5.547-10.61 5.547-6.874 0-10.593-4.5-3.703-4.484-3.703-15.093 0-9.422 3.75-14.813 3.765-5.39 10.36-5.39 5.812 0 10.046 4.39 4.25 4.39 4.25 13.188zm8.406-44.391H41.11V5.516h-.187Q35.89-1.516 27-1.516q-10.984 0-17 8.157-6 8.156-6 21.047 0 11.421 5.906 18.765 5.922 7.36 15.875 7.36 9.907 0 15.625-8.891h.203v7.375h8.297z" id="HelveticaWorld-Regular-113"/></defs><use xlink:href="#HelveticaWorld-Regular-79"/><use x="77.783" xlink:href="#HelveticaWorld-Regular-112"/><use x="134.277" xlink:href="#HelveticaWorld-Regular-101"/><use x="189.697" xlink:href="#HelveticaWorld-Regular-110"/><use x="244.873" xlink:href="#HelveticaWorld-Regular-83"/><use x="311.084" xlink:href="#HelveticaWorld-Regular-104"/><use x="366.26" xlink:href="#HelveticaWorld-Regular-111"/><use x="422.168" xlink:href="#HelveticaWorld-Regular-116"/><use x="449.854" xlink:href="#HelveticaWorld-Regular-47"/><use x="477.637" xlink:href="#HelveticaWorld-Regular-111"/><use x="533.545" xlink:href="#HelveticaWorld-Regular-112"/><use x="590.039" xlink:href="#HelveticaWorld-Regular-101"/><use x="645.459" xlink:href="#HelveticaWorld-Regular-110"/><use x="700.635" xlink:href="#HelveticaWorld-Regular-115"/><use x="750.635" xlink:href="#HelveticaWorld-Regular-104"/><use x="805.811" xlink:href="#HelveticaWorld-Regular-111"/><use x="861.719" xlink:href="#HelveticaWorld-Regular-116"/><use x="889.404" xlink:href="#HelveticaWorld-Regular-45"/><use x="922.705" xlink:href="#HelveticaWorld-Regular-113"/><use x="979.199" xlink:href="#HelveticaWorld-Regular-116"/></g><g transform="matrix(.14 0 0 -.14 406.032 250.944)" fill="#8c564b" id="text_21"><defs><path d="M15.375 61.813H6.594v9.968h8.781zm0-69.532q0-7.468-3.547-10.375Q8.297-21 2-21q-1.797 0-3.703.297v7.61H.594q3.703 0 4.843 1.109 1.157 1.093 1.157 5.296v58.985h8.781z" id="HelveticaWorld-Regular-106"/><path d="M43.406 26.313q0 10.5-3.718 15.046-3.704 4.547-10.579 4.547-6.984-.11-10.562-5.453Q14.984 35.11 14.984 25q0-10.297 4.297-14.594Q23.578 6.11 29.297 6.11q6.5 0 10.297 5.344 3.812 5.344 3.812 14.86zM6.594 0v71.781h8.781V45.703h.203q5.61 8.11 15.14 8.11 9.766 0 15.766-7.25t6-18.876q0-13.093-6.062-21.156Q40.375-1.516 29.5-1.516q-9.578 0-14.406 8.016h-.203V0z" id="HelveticaWorld-Regular-98"/></defs><use xlink:href="#HelveticaWorld-Regular-106"/><use x="22.021" xlink:href="#HelveticaWorld-Regular-108"/><use x="44.043" xlink:href="#HelveticaWorld-Regular-105"/><use x="66.064" xlink:href="#HelveticaWorld-Regular-108"/><use x="88.086" xlink:href="#HelveticaWorld-Regular-106"/><use x="110.107" xlink:href="#HelveticaWorld-Regular-101"/><use x="165.527" xlink:href="#HelveticaWorld-Regular-98"/><use x="222.021" xlink:href="#HelveticaWorld-Regular-108"/><use x="244.043" xlink:href="#HelveticaWorld-Regular-47"/><use x="271.826" xlink:href="#HelveticaWorld-Regular-102"/><use x="299.512" xlink:href="#HelveticaWorld-Regular-108"/><use x="321.533" xlink:href="#HelveticaWorld-Regular-111"/><use x="375.941" xlink:href="#HelveticaWorld-Regular-119"/><use x="448.354" xlink:href="#HelveticaWorld-Regular-98"/><use x="504.848" xlink:href="#HelveticaWorld-Regular-108"/><use x="526.869" xlink:href="#HelveticaWorld-Regular-97"/><use x="581.801" xlink:href="#HelveticaWorld-Regular-100"/><use x="638.783" xlink:href="#HelveticaWorld-Regular-101"/></g><g transform="matrix(.14 0 0 -.14 406.032 272.403)" fill="#e377c2" id="text_22"><defs><path d="M17.672 0H8.109v71.781h9.563V37.016L52.484 71.78h13.438L35.984 42.828 66.704 0h-12.5L29.108 35.984l-11.437-10.78z" id="HelveticaWorld-Regular-75"/><path d="M17.828 8.297h18.797q9.766 0 15.281 7.5 5.516 7.5 5.516 20.484 0 12.844-5.563 19.969-5.562 7.125-16.062 7.234H17.828zM8.11 71.78h29.094q14.11 0 22.094-9.703 7.984-9.687 7.984-25.156 0-16.61-7.984-26.766Q51.313 0 36.813 0H8.108z" id="HelveticaWorld-Regular-68"/><path d="M61.078 0H8.11v71.781h52.297v-8.594H17.828V41.22h39.25v-8.594h-39.25V8.594h43.25z" id="HelveticaWorld-Regular-69"/></defs><use xlink:href="#HelveticaWorld-Regular-75"/><use x="67.188" xlink:href="#HelveticaWorld-Regular-68"/><use x="139.209" xlink:href="#HelveticaWorld-Regular-69"/><use x="204.199" xlink:href="#HelveticaWorld-Regular-47"/><use x="231.982" xlink:href="#HelveticaWorld-Regular-107"/><use x="279.607" xlink:href="#HelveticaWorld-Regular-100"/><use x="336.59" xlink:href="#HelveticaWorld-Regular-101"/><use x="392.01" xlink:href="#HelveticaWorld-Regular-110"/><use x="447.186" xlink:href="#HelveticaWorld-Regular-108"/><use x="469.207" xlink:href="#HelveticaWorld-Regular-105"/><use x="491.229" xlink:href="#HelveticaWorld-Regular-118"/><use x="538.838" xlink:href="#HelveticaWorld-Regular-101"/></g><g transform="matrix(.14 0 0 -.14 406.032 286.403)" fill="#7f7f7f" id="text_23"><defs><path d="M14.11 7.328h32.187V0H2.39v6.89l31.64 38.126H4.938v7.28h40.374v-7.171z" id="HelveticaWorld-Regular-122"/></defs><use xlink:href="#HelveticaWorld-Regular-111"/><use x="54.658" xlink:href="#HelveticaWorld-Regular-122"/><use x="103.877" xlink:href="#HelveticaWorld-Regular-109"/><use x="186.885" xlink:href="#HelveticaWorld-Regular-97"/><use x="241.816" xlink:href="#HelveticaWorld-Regular-114"/><use x="275.885" xlink:href="#HelveticaWorld-Regular-116"/><use x="303.57" xlink:href="#HelveticaWorld-Regular-105"/><use x="325.592" xlink:href="#HelveticaWorld-Regular-97"/><use x="380.523" xlink:href="#HelveticaWorld-Regular-110"/><use x="435.699" xlink:href="#HelveticaWorld-Regular-47"/><use x="463.482" xlink:href="#HelveticaWorld-Regular-118"/><use x="513.092" xlink:href="#HelveticaWorld-Regular-105"/><use x="535.113" xlink:href="#HelveticaWorld-Regular-100"/><use x="592.096" xlink:href="#HelveticaWorld-Regular-99"/><use x="643.365" xlink:href="#HelveticaWorld-Regular-117"/><use x="698.15" xlink:href="#HelveticaWorld-Regular-116"/><use x="725.836" xlink:href="#HelveticaWorld-Regular-116"/><use x="753.521" xlink:href="#HelveticaWorld-Regular-101"/><use x="808.941" xlink:href="#HelveticaWorld-Regular-114"/></g><g transform="matrix(.09716 0 0 -.09716 45.341 347.175)" fill="#969696" id="text_24"><defs><path d="M38.484 38.375h31.532V0h-6.297l-2.344 9.281Q56.781 3.421 50.578.75q-6.187-2.656-12.875-2.656-10.797 0-18.047 4.703-7.25 4.719-11.265 13.015-4 8.313-4 20.72 0 15.468 9.203 26.312 9.203 10.843 24.781 10.843 11.625 0 20.313-6.5Q67.39 60.688 68.796 50h-9.375q-1.703 7.078-7.219 11.078-5.516 4.016-14.312 4.016-10.594 0-17.047-7.985-6.438-7.984-6.438-21.125 0-15.28 6.39-22.437Q27.204 6.39 38.282 6.39q7.235 0 12.235 2.859 5 2.86 7.687 7.766 2.688 4.906 2.688 13.062H38.484z" id="HelveticaWorld-Regular-71"/><path d="M64.89 0h-9.718v33.5h-37.5V0H8.109v71.781h9.563V42.094h37.5V71.78h9.719z" id="HelveticaWorld-Regular-72"/><path d="M44 29.5L33.406 61.078h-.203L21.687 29.5zm-25.297-8.594L11.188 0h-9.97l27 71.781h10.985L65.187 0H54.594l-7.078 20.906z" id="HelveticaWorld-Regular-65"/><path d="M17.828 38.625H37.11q7.282 0 10.938 3.188 3.656 3.203 3.656 9.703 0 5.812-3.516 8.89-3.515 3.078-10.687 3.078H17.828zm0-38.625H8.11v71.781h32.266q9.625 0 15.484-5.594 5.86-5.593 5.86-14.578 0-9.328-5.672-15.312-5.656-5.969-15.672-5.969H17.828z" id="HelveticaWorld-Regular-80"/><path d="M17.828 0H8.11v71.781h9.72z" id="HelveticaWorld-Regular-73"/><path d="M12.984 26.313q0-9.61 3.813-14.907Q20.609 6.11 27.094 6.11q6.312 0 10.312 4.579 4 4.593 4 13 0 11.03-3.5 16.625-3.484 5.593-10.61 5.593-7.171 0-10.75-4.765-3.562-4.766-3.562-14.828zM49.812 2.983q0-12.609-6.062-18.797-6.047-6.203-18.266-6.203-8.78 0-13.984 4.047Q6.297-13.922 5.516-6.39h8.796q.672-3.812 3.532-6.062 2.86-2.25 8.281-2.25 7.375 0 11.125 3.969 3.766 3.953 3.766 12.828v3.719h-.188q-4.937-7.329-13.922-7.329-11.187 0-17.093 8.25-5.907 8.25-5.907 20.953 0 11.625 5.953 18.875 5.97 7.25 15.829 7.25 9.906 0 15.625-8.89h.187v7.375h8.313z" id="HelveticaWorld-Regular-103"/><path d="M9.422 73.688h7.281V-1.906H9.422z" id="HelveticaWorld-Regular-124"/><path d="M55.61 71.781h9.374V0h-10.78L17.577 58.016h-.187V0H8.109v71.781h11.375l35.938-57.969h.187z" id="HelveticaWorld-Regular-78"/><path d="M12.703 26.219q0-8.735 3.953-14.375 3.953-5.64 11.219-5.64 7.531 0 11.438 5.905 3.906 5.907 3.906 14.11 0 8.297-3.907 14.078-3.906 5.797-11.437 5.797-6.969 0-11.078-5.453-4.094-5.438-4.094-14.422zm-8.984 0q0 11.672 6.484 19.625 6.5 7.968 17.672 7.968 11.438 0 17.875-8.062 6.453-8.047 6.453-19.531 0-11.516-6.406-19.625-6.39-8.11-17.922-8.11-11.078 0-17.625 7.86-6.531 7.86-6.531 19.875zm36.734 35.406H31.47v10.156h8.984zm-16.219 0H15.25v10.156h8.984z" id="HelveticaWorld-Regular-246"/><path d="M58.016 50.203q-1.625 7.313-6.782 11.094-5.14 3.797-13.343 3.797-10.594 0-17.047-7.703-6.438-7.688-6.438-20.766 0-15.14 6.094-22.547 6.11-7.39 17.688-7.39 7.609 0 13.093 5.046 5.5 5.063 7.407 14.688h9.421Q66.22 12.594 57.625 5.344t-20.906-7.25q-14.703 0-23.516 10.11Q4.391 18.311 4.391 36.28q0 17.328 9.203 27.36 9.203 10.047 24.297 10.047 12.5 0 20.265-6.454 7.766-6.437 9.235-17.03z" id="HelveticaWorld-Regular-67"/><path d="M8.11 71.781h31.484q9.281 0 14.797-5.031 5.515-5.031 5.515-13.031 0-4.844-2.422-8.828-2.406-3.97-7.187-6.172 6.687-2.532 9.828-6.735 3.156-4.203 3.156-10.797 0-9.265-6.687-15.234Q49.906 0 38.922 0H8.109zm9.562-63.484h20.703q7.625 0 11.422 3.531 3.812 3.547 3.812 9.563 0 6.093-4.25 9.093Q45.125 33.5 36.812 33.5h-19.14zm0 33.11h17.625q7.719 0 11.312 2.796 3.594 2.813 3.594 8.781 0 5.125-3.406 7.813-3.39 2.687-11.39 2.687H17.671z" id="HelveticaWorld-Regular-66"/><path d="M37.313 0h-9.72v28.906L.485 71.781h11.329l20.609-34.469 20.562 34.47h11.422L37.312 28.905z" id="HelveticaWorld-Regular-89"/></defs><use xlink:href="#HelveticaWorld-Regular-71"/><use x="77.1" xlink:href="#HelveticaWorld-Regular-105"/><use x="99.121" xlink:href="#HelveticaWorld-Regular-116"/><use x="126.807" xlink:href="#HelveticaWorld-Regular-72"/><use x="199.805" xlink:href="#HelveticaWorld-Regular-117"/><use x="254.59" xlink:href="#HelveticaWorld-Regular-98"/><use x="311.084" xlink:href="#HelveticaWorld-Regular-32"/><use x="335.498" xlink:href="#HelveticaWorld-Regular-65"/><use x="402.197" xlink:href="#HelveticaWorld-Regular-80"/><use x="466.846" xlink:href="#HelveticaWorld-Regular-73"/><use x="492.627" xlink:href="#HelveticaWorld-Regular-32"/><use x="517.041" xlink:href="#HelveticaWorld-Regular-118"/><use x="566.65" xlink:href="#HelveticaWorld-Regular-105"/><use x="588.672" xlink:href="#HelveticaWorld-Regular-97"/><use x="643.604" xlink:href="#HelveticaWorld-Regular-32"/><use x="668.018" xlink:href="#HelveticaWorld-Regular-115"/><use x="718.018" xlink:href="#HelveticaWorld-Regular-116"/><use x="745.703" xlink:href="#HelveticaWorld-Regular-97"/><use x="800.635" xlink:href="#HelveticaWorld-Regular-114"/><use x="832.203" xlink:href="#HelveticaWorld-Regular-103"/><use x="888.111" xlink:href="#HelveticaWorld-Regular-114"/><use x="919.68" xlink:href="#HelveticaWorld-Regular-97"/><use x="974.611" xlink:href="#HelveticaWorld-Regular-112"/><use x="1031.105" xlink:href="#HelveticaWorld-Regular-104"/><use x="1086.281" xlink:href="#HelveticaWorld-Regular-32"/><use x="1110.695" xlink:href="#HelveticaWorld-Regular-124"/><use x="1136.672" xlink:href="#HelveticaWorld-Regular-32"/><use x="1161.086" xlink:href="#HelveticaWorld-Regular-78"/><use x="1234.182" xlink:href="#HelveticaWorld-Regular-105"/><use x="1256.203" xlink:href="#HelveticaWorld-Regular-99"/><use x="1307.473" xlink:href="#HelveticaWorld-Regular-111"/><use x="1363.381" xlink:href="#HelveticaWorld-Regular-32"/><use x="1387.795" xlink:href="#HelveticaWorld-Regular-83"/><use x="1454.006" xlink:href="#HelveticaWorld-Regular-99"/><use x="1505.275" xlink:href="#HelveticaWorld-Regular-104"/><use x="1560.451" xlink:href="#HelveticaWorld-Regular-108"/><use x="1582.473" xlink:href="#HelveticaWorld-Regular-246"/><use x="1638.381" xlink:href="#HelveticaWorld-Regular-109"/><use x="1721.389" xlink:href="#HelveticaWorld-Regular-101"/><use x="1776.809" xlink:href="#HelveticaWorld-Regular-114"/><use x="1809.377" xlink:href="#HelveticaWorld-Regular-32"/><use x="1833.791" xlink:href="#HelveticaWorld-Regular-124"/><use x="1859.768" xlink:href="#HelveticaWorld-Regular-32"/><use x="1884.182" xlink:href="#HelveticaWorld-Regular-67"/><use x="1956.496" xlink:href="#HelveticaWorld-Regular-67"/><use x="2028.811" xlink:href="#HelveticaWorld-Regular-32"/><use x="2053.225" xlink:href="#HelveticaWorld-Regular-66"/><use x="2116.037" xlink:href="#HelveticaWorld-Regular-89"/></g><g transform="matrix(.14 0 0 -.14 151.206 17.25)" fill="#969696" id="text_25"><use xlink:href="#HelveticaWorld-Regular-78"/><use x="73.096" xlink:href="#HelveticaWorld-Regular-117"/><use x="127.881" xlink:href="#HelveticaWorld-Regular-109"/><use x="210.889" xlink:href="#HelveticaWorld-Regular-98"/><use x="267.383" xlink:href="#HelveticaWorld-Regular-101"/><use x="322.803" xlink:href="#HelveticaWorld-Regular-114"/><use x="355.371" xlink:href="#HelveticaWorld-Regular-32"/><use x="379.785" xlink:href="#HelveticaWorld-Regular-111"/><use x="435.693" xlink:href="#HelveticaWorld-Regular-102"/><use x="463.379" xlink:href="#HelveticaWorld-Regular-32"/><use x="487.793" xlink:href="#HelveticaWorld-Regular-71"/><use x="564.893" xlink:href="#HelveticaWorld-Regular-105"/><use x="586.914" xlink:href="#HelveticaWorld-Regular-116"/><use x="614.6" xlink:href="#HelveticaWorld-Regular-72"/><use x="687.598" xlink:href="#HelveticaWorld-Regular-117"/><use x="742.383" xlink:href="#HelveticaWorld-Regular-98"/><use x="798.877" xlink:href="#HelveticaWorld-Regular-32"/><use x="823.291" xlink:href="#HelveticaWorld-Regular-115"/><use x="873.291" xlink:href="#HelveticaWorld-Regular-116"/><use x="900.977" xlink:href="#HelveticaWorld-Regular-97"/><use x="955.908" xlink:href="#HelveticaWorld-Regular-114"/><use x="988.477" xlink:href="#HelveticaWorld-Regular-115"/></g><path clip-path="url(#p0cf0962d3d)" d="M170.275 313.361l2.573-.26 2.64-.13 2.241-.086.352-.043 4.921-.043 2.032-.13.27-.044.675-.043 2.815-.043 2.55-.043 1.361-.087 2.268-.173 3.304-1.126.556-.563 1.672-.26 3.118-.302.61-.26.974-.13 2.906-.173 2.426-.26 2.502-.303 1.863-.13 1.65-.043 2.155-.087 1.926-.303 2.347-.563 3.141-.26 2.78-.302.988-.26 2.838-.303.84-.563 1.496-.26 1.855-.13 2.92-.173 3.214-.562 2.42-.607 3.134-1.125 2.53-1.126 2.814-1.125 2.587-.563 3.186-.303.854-.303 3-.563 2.746-.563 2.883-1.125 2.024-1.126 3.227-1.169 1.79-.562 1.877-.563 1.724-.563 1.897-.563 3.162-1.125 2.041-.563 1.631-.606 2.41-.563 1.953-.563 1.45-.563 1.933-.562 1.652-.563 1.732-.563 2.7-1.169 2.737-1.125 1.935-.563 1.637-.26 1.737-.303 2.635-.563.931-.563 3.13-1.168 2.131-1.126 2.01-1.126 1.51-1.125 2.114-1.17 2.368-4.501 1.787-1.126 1.606-1.126 2.452-1.125 2.519-1.169 2.049-1.126 2.762-1.125 1.767-1.126 3.096-1.169 1.851-1.125 2.62-1.126 2.289-1.125 3.159-1.17 2.236-1.125 1.866-1.125.995-1.126 2.558-1.169 3.185-2.25 2.733-2.295 2.73-2.251 1.345-1.126 1.972-1.169 2.16-1.126 1.687-1.125 3.122-2.295 2.602-1.515 3-1.515 2.32-1.515 1.957-1.559 1.932-.995 1.654-.996 2.418-1.169 1.28-1.169 2.012-1.472 1.36-1.472" fill="none" stroke="#9467bd" stroke-linecap="square" stroke-width="1.5" id="line2d_25"/><path clip-path="url(#p0cf0962d3d)" d="M367.18 313.361l.831-43.464.53-21.732 1.393-10.867 1.729-2.727 1.874-2.727 3.076-2.728 1.436-1.342 2.338-.692 1.608-.693 2.214-.65 1.215-.692 1.333-1.342 2.932-2.684.06-5.412 1.92-10.78 1.383-1.341 2.309-1.385 2.038-1.213 1.512-1.212 1.536-.866 1.901-.909" fill="none" stroke="#d62728" stroke-linecap="square" stroke-width="1.5" id="line2d_26"/><path clip-path="url(#p0cf0962d3d)" d="M45.341 313.232l43.593-.13 4.325-.087 17.307-.216 2.809-.13 2.44-.13 7.291-.087.709-.086 5.782-.173 6.994-.044.32-.13 4.929-.562 4.196-.563 3.785-.433 3.734-.13.862-.13 7.392-.563 1.565-.173 2.275-.563 2.362-.26 3.652-.649 1.976-.173 3.822-.563.068-11.732 3.13-8.918 4.19-1.082 1.64-.563 2.616-.563 3.856-.562 8.866-1.689 1.414-.562 1.976-.563 7.353-1.689 3.202-.562 4.196-1.126 2.647-.52 2.038-.562 1.467-.563 4.316-1.126 1.573-.562 2.425-1.126 6.394-2.208 2.913-1.125 2.165-1.126 1.81-1.082 1.879-.563 2.74-.563 1.267-.563 2.04-.562 3.059-1.126 5.29-2.251 2.085-.563 3.949-1.688 1.436-1.083 4.469-2.25 1.387-1.126 1.02-4.46 4.698-3.333 4.938-2.25 4.623-3.378 2.255-1.082 1.582-1.126 7.665-4.459 1.425-1.125 2.228-1.126 1.568-1.082 2.444-1.126 6.487-4.502 5.163-4.459 3.48-2.251 2.173-2.208 3.094-2.251 2.725-2.208 1.741-1.125 1.96-1.126 2.396-1.126 1.278-1.125 2.17-1.126 5.565-3.333 2.478-2.251 4.704-4.46 2.572-2.207 2.09-2.251 2.312-2.252 2.019-2.25 1.635-2.209 2.35-2.25 1.58-2.209 1.997-2.25 1.798-2.209 1.993-2.25 2.64-2.252 1.954-2.251 5.928-5.022 5.648-7.922 1.743-2.944 1.91-3.94 1.661-3.939 2.269-2.814 1.153-2.857h0" fill="none" stroke="#2ca02c" stroke-linecap="square" stroke-width="1.5" id="line2d_27"/><path clip-path="url(#p0cf0962d3d)" d="M278.161 313.361l21.15-.043 5.286-.043 2.789-.043 1.989-.044 1.602-.043 2.398-.087.123-.346.074-.693.834-1.385.9-2.727 2.555-5.498.597-5.455 2.882-5.498 1.37-21.905 2.078-10.953 1.65-5.455 1.721-5.498 2.115-5.455 2.725-5.498 3.098-10.952.234-10.953 1.184-5.455 1.568-2.727 1.819-2.77 1.868-2.728 2.706-2.727 2.404-5.498 1.757-2.728 2.056-2.727 2.639-2.728 1.767-2.77 1.71-2.728 1.703-2.727 2.31-2.727 2.113-2.77 3.15-5.456 2.766-5.498 2.077-2.727 1.496-2.727 1.959-5.498 1.782-2.728 1.77-2.727 3.16-5.498 2.632-4.156 2.492-4.2 2.427-4.199 2.048-4.199 2.235-2.338 1.537-2.38 1.916-1.905 1.629-1.949 1.734-2.337 1.7-2.338" fill="none" stroke="#ff7f0e" stroke-linecap="square" stroke-width="1.5" id="line2d_28"/><path clip-path="url(#p0cf0962d3d)" d="M227.31 313.361l.856-12.987.11-6.494.933-3.247 1.7-1.601 3.216-1.645 2.032-1.602 2.473-1.645 3.05-3.247 1.034-1.602 1.725-.822 2.931-.823 2.145-.78 2.157-.822 1.212-.39 2.316-.432 2.839-.823 3.087-1.602 2.865-1.645 2.52-3.247 2.635-1.601 1.039-1.645 1.751-1.602 3.024-1.645 1.928-.78 1.41-.822 1.87-.823 1.658-.822 2.852-1.602 2.883-1.645 2.509-1.602 1.609-1.645 3.056-1.602 2.562-1.645 2.5-1.601 2.87-1.646 2.312-1.601 1.964-1.645 3.168-1.602 2.992-1.645 2.611-1.602 1.635-1.645 2.252-3.247 1.921-3.247 3.11-3.247 1.642-3.246 2.722-3.247 1.723-3.247 2.335-3.247 2.821-3.247 2.736-3.247 1.43-3.247 2.514-3.246 2.986-3.247 3.014-3.247 2.48-3.247 2.728-3.247 2.3-3.247 2.288-3.247 1.463-3.246 2.302-6.494 2.812-6.494.978-6.494 2.048-12.987 3.076-12.987 2.514-6.494 3.227-6.494 2.48-6.493 2.788-6.537 2.1-3.204 1.423-3.247 2.204-6.45 2.019-6.45 1.918-6.451 1.761-5.498 1.991-5.541 1.703-5.628 1.853-5.671 1.864-5.066 1.574-5.065" fill="none" stroke="#1f77b4" stroke-linecap="square" stroke-width="1.5" id="line2d_29"/></g></g><defs><clipPath id="p0cf0962d3d"><path d="M45.341 47.249h357.12v266.112H45.341z"/></clipPath></defs></svg>