<svg height="475.301" viewBox="0 0 546.014 356.476" width="728.018" xmlns="http://www.w3.org/2000/svg" xmlns:xlink="http://www.w3.org/1999/xlink"><defs><style>*{stroke-linecap:butt;stroke-linejoin:round}</style></defs><g id="figure_1"><path d="M0 356.476h546.014V0H0z" style="fill:none" id="patch_1"/><g id="axes_1"><path d="M53.127 313.361h357.12V47.25H53.127z" style="fill:none" id="patch_2"/><path clip-path="url(#pe00c7a3419)" d="m210.693 313.361 1.132-1.01 1.867-.124 1.845-.03 2.337-.034 1.2-.03 2.306-.034 1.767-.03 1.203-.034 1.746-.064 2.008-.03.815-.034 2.258-.064 2.033-.123 2.138-.129 2.402-.128 1.602-.064 1.24-.064 1.456-.06 1.572-.063.936-.064 1.919-.064 1.164-.065 1.521-.064 1.451-.064 1.157-.064.723-.059 1.99-.064 2.083-.128 1.23-.128 2.377-.129 1.792-.123 1.326-.128 1.366-.128 1.535-.128 1.8-.124 1.593-.128 1.615-.128 1.805-.128 1.24-.124 1.572-.128 2.133-.251 1.05-.123 1.611-.129 1.374-.128 1.226-.128 1.26-.123 1.545-.128 1.504-.129 1.465-.128 2.065-.123 1.618-.128 1.715-.129.995-.128 1.364-.123 1.972-.128 1.635-.128 1.443-.129 1.364-.123 2.255-.128 1.82-.128 1.242-.128 1.903-.252 1.801-.256 2.294-.252 1.371-.128 1.571-.128 2.223-.251 1.516-.124 1.027-.128 2.003-.251 2.37-.257 2.004-.251 1.088-.128 1.461-.129 1.735-.123 1.262-.128 1.961-.256 2.274-.252 1.692-.128 1.682-.128 1.847-.252 1.567-.256 1.45-.123 1.257-.129 2.12-.256 1.423-.251 1.569-.257 1.353-.251 1.55-.257 2.028-.507 1.962-.252 1.93-.256 1.728-.252 2.044-.256 2.059-.251 1.536-.257 2.018-.251 1.349-.128 1.483-.129 1.536-.123.943-.128 1.409-.128 1.943-.129 2.328-.251 2.393-.256 2.078-.143 1.053-.143 1.368-.143 1.288-.148 1.816-.06.673-.059 1.456-.123 2.065-.153 1.288-.157 1.933-.074.95-.074 1.867-.148 1.829-.074.852-.074 1.674-.099.986-.103 1.356-.089 1.127-.094" style="fill:none;stroke:#e377c2;stroke-linecap:square;stroke-width:1.5" id="line2d_1"/><g id="matplotlib.axis_1"><g id="xtick_1"><g id="line2d_2"><defs><path d="M0 0v3.5" id="m8125af6f09" style="stroke:#969696;stroke-width:.4"/></defs><use style="fill:#969696;stroke:#969696;stroke-width:.4" x="81.341" xlink:href="#m8125af6f09" y="313.361"/></g><g style="fill:#969696" transform="matrix(.14 0 0 -.14 65.77 330.41)" id="text_1"><defs><path d="M281 2888q0 793 409 1202 410 410 1148 410 618 0 1012-375t394-969q0-462-227-780-226-317-667-557l-775-425q-684-375-775-863h2444V0H166q25 634 275 1056t781 728l806 469q322 185 469 383t147 545q0 344-241 578-240 235-650 235-453 0-678-299-225-298-231-807H281z" id="HelveticaWorld-Regular-32" transform="scale(.01563)"/><path d="M2719 2188q0 903-239 1354-239 452-702 452-453 0-697-452-243-451-243-1354 0-875 240-1340 241-464 700-464 463 0 702 448 239 449 239 1356zm603 0q0-1107-400-1709-400-601-1144-601-772 0-1156 623-384 624-384 1687 0 1090 393 1701 394 611 1147 611 744 0 1144-608t400-1704z" id="HelveticaWorld-Regular-30" transform="scale(.01563)"/><path d="M2297 0h-600v3194H647v447q550 18 818 176 269 158 391 683h441V0z" id="HelveticaWorld-Regular-31" transform="scale(.01563)"/></defs><use xlink:href="#HelveticaWorld-Regular-32"/><use x="55.615" xlink:href="#HelveticaWorld-Regular-30"/><use x="111.23" xlink:href="#HelveticaWorld-Regular-31"/><use x="166.846" xlink:href="#HelveticaWorld-Regular-30"/></g></g><g id="xtick_2"><use style="fill:#969696;stroke:#969696;stroke-width:.4" x="140.134" xlink:href="#m8125af6f09" y="313.361" id="line2d_3"/><g style="fill:#969696" transform="matrix(.14 0 0 -.14 124.564 330.41)" id="text_2"><use xlink:href="#HelveticaWorld-Regular-32"/><use x="55.615" xlink:href="#HelveticaWorld-Regular-30"/><use x="111.23" xlink:href="#HelveticaWorld-Regular-31"/><use x="166.846" xlink:href="#HelveticaWorld-Regular-32"/></g></g><g id="xtick_3"><use style="fill:#969696;stroke:#969696;stroke-width:.4" x="199.008" xlink:href="#m8125af6f09" y="313.361" id="line2d_4"/><g style="fill:#969696" transform="matrix(.14 0 0 -.14 183.437 330.41)" id="text_3"><defs><path d="M678 1581h1447v2041h-12L678 1581zm2010-487V0h-563v1094H159v550l2063 2856h466V1581h659v-487h-659z" id="HelveticaWorld-Regular-34" transform="scale(.01563)"/></defs><use xlink:href="#HelveticaWorld-Regular-32"/><use x="55.615" xlink:href="#HelveticaWorld-Regular-30"/><use x="111.23" xlink:href="#HelveticaWorld-Regular-31"/><use x="166.846" xlink:href="#HelveticaWorld-Regular-34"/></g></g><g id="xtick_4"><use style="fill:#969696;stroke:#969696;stroke-width:.4" x="257.801" xlink:href="#m8125af6f09" y="313.361" id="line2d_5"/><g style="fill:#969696" transform="matrix(.14 0 0 -.14 242.23 330.41)" id="text_4"><defs><path d="M903 1381q0-440 262-719 263-278 685-278 403 0 642 284 239 285 239 748 0 403-236 675t-670 272q-422 0-672-266t-250-716zm1766 1922q-63 344-255 517-192 174-520 174-519 0-791-507-272-506-278-1159l13-12q359 553 1068 553 566 0 988-375t422-1053q0-672-400-1118-400-445-1078-445-782 0-1188 556-406 557-406 1660 0 1062 415 1734 416 672 1247 672 538 0 910-321 372-320 403-876h-550z" id="HelveticaWorld-Regular-36" transform="scale(.01563)"/></defs><use xlink:href="#HelveticaWorld-Regular-32"/><use x="55.615" xlink:href="#HelveticaWorld-Regular-30"/><use x="111.23" xlink:href="#HelveticaWorld-Regular-31"/><use x="166.846" xlink:href="#HelveticaWorld-Regular-36"/></g></g><g id="xtick_5"><use style="fill:#969696;stroke:#969696;stroke-width:.4" x="316.675" xlink:href="#m8125af6f09" y="313.361" id="line2d_6"/><g style="fill:#969696" transform="matrix(.14 0 0 -.14 301.104 330.41)" id="text_5"><defs><path d="M1766 2597q347 0 573 198 227 199 227 527 0 294-218 483-217 189-620 189-359 0-555-199-195-198-195-504 0-328 244-511t544-183zm6-484q-434 0-681-241t-247-591q0-403 250-650t712-247q410 0 655 247t245 657q0 350-245 587-245 238-689 238zm1378 1228q0-678-578-947 397-178 567-471 170-292 170-623 0-641-413-1032-412-390-1112-390-612 0-1076 336T244 1306q0 763 762 1082-609 243-609 875 0 531 361 884t1001 353q641 0 1016-333t375-826z" id="HelveticaWorld-Regular-38" transform="scale(.01563)"/></defs><use xlink:href="#HelveticaWorld-Regular-32"/><use x="55.615" xlink:href="#HelveticaWorld-Regular-30"/><use x="111.23" xlink:href="#HelveticaWorld-Regular-31"/><use x="166.846" xlink:href="#HelveticaWorld-Regular-38"/></g></g><g id="xtick_6"><use style="fill:#969696;stroke:#969696;stroke-width:.4" x="375.468" xlink:href="#m8125af6f09" y="313.361" id="line2d_7"/><g style="fill:#969696" transform="matrix(.14 0 0 -.14 359.897 330.41)" id="text_6"><use xlink:href="#HelveticaWorld-Regular-32"/><use x="55.615" xlink:href="#HelveticaWorld-Regular-30"/><use x="111.23" xlink:href="#HelveticaWorld-Regular-32"/><use x="166.846" xlink:href="#HelveticaWorld-Regular-30"/></g></g></g><g id="matplotlib.axis_2"><g id="ytick_1"><path clip-path="url(#pe00c7a3419)" d="M53.127 264.063h357.12" style="fill:none;stroke:#969696;stroke-linecap:square;stroke-width:.3" id="line2d_8"/><g id="line2d_9"><defs><path d="M0 0h-3.5" id="m813c47ee9b" style="stroke:#969696;stroke-width:.3"/></defs><use style="fill:#969696;stroke:#969696;stroke-width:.3" x="53.127" xlink:href="#m813c47ee9b" y="264.063"/></g><g style="fill:#969696" transform="matrix(.14 0 0 -.14 7.2 269.087)" id="text_7"><use xlink:href="#HelveticaWorld-Regular-31"/><use x="55.615" xlink:href="#HelveticaWorld-Regular-30"/><use x="111.23" xlink:href="#HelveticaWorld-Regular-30"/><use x="166.846" xlink:href="#HelveticaWorld-Regular-30"/><use x="222.461" xlink:href="#HelveticaWorld-Regular-30"/></g></g><g id="ytick_2"><path clip-path="url(#pe00c7a3419)" d="M53.127 214.759h357.12" style="fill:none;stroke:#969696;stroke-linecap:square;stroke-width:.3" id="line2d_10"/><use style="fill:#969696;stroke:#969696;stroke-width:.3" x="53.127" xlink:href="#m813c47ee9b" y="214.759" id="line2d_11"/><g style="fill:#969696" transform="matrix(.14 0 0 -.14 7.2 219.784)" id="text_8"><use xlink:href="#HelveticaWorld-Regular-32"/><use x="55.615" xlink:href="#HelveticaWorld-Regular-30"/><use x="111.23" xlink:href="#HelveticaWorld-Regular-30"/><use x="166.846" xlink:href="#HelveticaWorld-Regular-30"/><use x="222.461" xlink:href="#HelveticaWorld-Regular-30"/></g></g><g id="ytick_3"><path clip-path="url(#pe00c7a3419)" d="M53.127 165.455h357.12" style="fill:none;stroke:#969696;stroke-linecap:square;stroke-width:.3" id="line2d_12"/><use style="fill:#969696;stroke:#969696;stroke-width:.3" x="53.127" xlink:href="#m813c47ee9b" y="165.455" id="line2d_13"/><g style="fill:#969696" transform="matrix(.14 0 0 -.14 7.2 170.48)" id="text_9"><defs><path d="M1434 2559q141-12 294-12 397 0 626 183 230 183 230 554 0 300-214 505t-617 205q-447 0-655-263-207-262-220-703H325q0 703 369 1087 369 385 1084 385 635 0 1013-327 378-326 378-857 0-685-578-928v-13q750-256 750-1050 0-634-422-1041-422-406-1197-406-634 0-1044 333-409 333-459 1164h581q13-519 256-755 244-236 703-236 444 0 713 247t269 622q0 410-257 619-256 209-793 209-128 0-257-6v484z" id="HelveticaWorld-Regular-33" transform="scale(.01563)"/></defs><use xlink:href="#HelveticaWorld-Regular-33"/><use x="55.615" xlink:href="#HelveticaWorld-Regular-30"/><use x="111.23" xlink:href="#HelveticaWorld-Regular-30"/><use x="166.846" xlink:href="#HelveticaWorld-Regular-30"/><use x="222.461" xlink:href="#HelveticaWorld-Regular-30"/></g></g><g id="ytick_4"><path clip-path="url(#pe00c7a3419)" d="M53.127 116.151h357.12" style="fill:none;stroke:#969696;stroke-linecap:square;stroke-width:.3" id="line2d_14"/><use style="fill:#969696;stroke:#969696;stroke-width:.3" x="53.127" xlink:href="#m813c47ee9b" y="116.151" id="line2d_15"/><g style="fill:#969696" transform="matrix(.14 0 0 -.14 7.2 121.176)" id="text_10"><use xlink:href="#HelveticaWorld-Regular-34"/><use x="55.615" xlink:href="#HelveticaWorld-Regular-30"/><use x="111.23" xlink:href="#HelveticaWorld-Regular-30"/><use x="166.846" xlink:href="#HelveticaWorld-Regular-30"/><use x="222.461" xlink:href="#HelveticaWorld-Regular-30"/></g></g><g id="ytick_5"><path clip-path="url(#pe00c7a3419)" d="M53.127 66.848h357.12" style="fill:none;stroke:#969696;stroke-linecap:square;stroke-width:.3" id="line2d_16"/><use style="fill:#969696;stroke:#969696;stroke-width:.3" x="53.127" xlink:href="#m813c47ee9b" y="66.848" id="line2d_17"/><g style="fill:#969696" transform="matrix(.14 0 0 -.14 7.2 71.872)" id="text_11"><defs><path d="M941 2619q372 281 872 281 606 0 1042-403t436-1038q0-690-421-1139-420-448-1179-448-660 0-1041 323-381 324-444 918h582q43-363 284-555t669-192q415 0 681 287 266 288 266 735 0 456-279 731-278 275-718 275-500 0-835-428l-484 25 337 2406h2332v-544H1131L941 2619z" id="HelveticaWorld-Regular-35" transform="scale(.01563)"/></defs><use xlink:href="#HelveticaWorld-Regular-35"/><use x="55.615" xlink:href="#HelveticaWorld-Regular-30"/><use x="111.23" xlink:href="#HelveticaWorld-Regular-30"/><use x="166.846" xlink:href="#HelveticaWorld-Regular-30"/><use x="222.461" xlink:href="#HelveticaWorld-Regular-30"/></g></g></g><path clip-path="url(#pe00c7a3419)" d="m259.605 313.361 1.495-.128 1.21-.133.858-.128 1.565-.133 1.147-.128 1.968-.134 1.171-.133 2.076-.133.901-.128 1.698-.133 1.31-.128 1.175-.133 1.606-.129 1.155-.133 2.392-.266 2.29-.261 1.985-.128 1.213-.134 1.778-.128 1.232-.133 1.163-.133 1.442-.133 2.026-.261 1.939-.262 1.28-.128 1.18-.133 2.381-.266 1.471-.128 1.045-.134 1.685-.26 1.768-.262 1.773-.266 2.22-.262 1.853-.261 2.205-.261 1.68-.134 1.05-.133 1.84-.261 2.179-.261 1.832-.262 1.664-.266 1.684-.261 1.497-.266 1.512-.262 1.798-.266 1.86-.261 1.391-.262 1.785-.26 1.114-.134 1.417-.133 1.93-.261 1.8-.262 1.195-.261 1.348-.266 1.864-.262 1.491-.26 1.816-.262 1.748-.266 1.503-.262 1.55-.266 1.425-.261 1.815-.267 2.255-.522 1.309-.261 1.542-.267 1.266-.261 1.694-.261 1.837-.262 1.368-.266 1.871-.261 1.608-.261 1.333-.262 1.643-.266 2.028-.261 1.346-.133 1.141-.134 1.618-.26 1.61-.267 1.778-.227 1.42-.232 1.09-.226 1.523-.232 2.093-.252 1.84-.251 1.652-.227 1.583-.227 1.614-.118 1.104-.123 2.092-.247 1.665-.182 1.107-.183 1.553-.192 1.06-.197 1.209-.163 1.242-.167" style="fill:none;stroke:#8c564b;stroke-linecap:square;stroke-width:1.5" id="line2d_18"/><path clip-path="url(#pe00c7a3419)" d="m220.625 313.361 1.94-.769 1.748-.192 1.405-.094 2.174-.098 1.992-.193 1.974-.197 1.111-.094 1.334-.098 1.355-.094 1.498-.098 2.356-.193 2.089-.197 1.599-.094 1.422-.098 1.272-.094 1.577-.098 1.405-.094 1.38-.099 2.365-.197 1.295-.094 1.576-.098 1.938-.193 2.24-.192 2.176-.098 1.294-.099 2.05-.192 1.911-.193 1.84-.192 1.614-.197 2.308-.192 2.213-.193 1.692-.192 1.633-.197 2.218-.385 1.316-.192 2.154-.197 1.84-.193 1.691-.192 1.404-.192 2.14-.197 1.381-.193 1.501-.192 1.798-.192 1.208-.197 1.65-.193 1.474-.192 1.686-.192 1.226-.197 2.086-.385 1.22-.192 1.36-.198 2.24-.384 2.033-.39 2.17-.384 2.205-.39 1.708-.192 1.556-.192 1.698-.193 1.16-.197 2.329-.384 1.455-.39 2.302-.384 2.362-.385 1.241-.192 1.256-.193 2.217-.389.974-.192 1.443-.193 1.297-.192 1.549-.197 1.782-.385 1.638-.39 1.981-.384 1.702-.39 2.047-.384 1.723-.39 1.768-.384 1.771-.39 1.588-.384 1.652-.39 1.825-.384 1.628-.39 1.544-.774 1.349-.384 2.012-.39 1.856-.384 1.86-.39 1.696-.384 1.35-.39 1.619-.384 1.43-.39 2.415-.384 1.935-.39 1.86-.384 1.556-.39 1.784-.35 1.341-.35 1.288-.35 1.297-.35 2.1-.493 1.92-.498 1.667-.395 1.627-.394 1.52-.256 1.246-.262 2.065-.522 1.783-.242.93-.246 1.643-.32.965-.326 1.405-.262 1.11-.266" style="fill:none;stroke:#9467bd;stroke-linecap:square;stroke-width:1.5" id="line2d_19"/><g style="fill:#1f77b4" transform="matrix(.14 0 0 -.14 413.818 50.825)" id="text_12"><defs><path d="M2719 1941q-44 543-288 770-243 227-647 227-409 0-661-288-251-287-267-709h1863zm537-891q-93-519-509-859-366-288-963-294-703 6-1116 461-412 455-412 1223 0 882 425 1372 425 491 1182 491 678 0 1059-507 381-506 381-1446H856q0-525 244-813 244-287 731-287 344 0 591 207 247 208 272 452h562z" id="HelveticaWorld-Regular-65" transform="scale(.01563)"/><path d="M984 0H422v4594h562V0z" id="HelveticaWorld-Regular-6c" transform="scale(.01563)"/><path d="M2456 1709q-62-65-245-106-183-40-683-106-369-44-542-182-173-137-173-362 0-275 146-428 147-153 469-153 403 0 715 229 313 230 313 558v550zM397 2328q19 566 367 841 349 275 1014 275 531 0 890-241 360-240 360-694V581q0-197 178-197 72 0 185 25V0q-153-63-319-63-288 0-429 123-140 124-146 387Q2016-97 1288-97q-475 0-763 269-287 269-287 700 0 441 250 712 250 272 728 329l993 121q269 41 269 397 0 263-195 403-195 141-592 141-353 0-543-156-189-156-226-491H397z" id="HelveticaWorld-Regular-61" transform="scale(.01563)"/><path d="M2309 2394q-12 300-214 431-201 131-579 131-275 0-471-122-195-121-195-350 0-181 115-267 116-86 501-183l556-140q506-128 723-327 218-198 218-554 0-494-361-802T1638-97Q934-97 573 195q-360 293-367 880h544q13-347 230-516 217-168 651-168 353 0 561 140 208 141 208 391 0 178-135 284-134 107-531 197l-653 160q-397 100-586 298t-189 514q0 494 353 781 354 288 922 288 607 0 930-296 323-295 342-754h-544z" id="HelveticaWorld-Regular-73" transform="scale(.01563)"/><path d="M1100 2881V703q0-128 70-195 71-67 252-67h216V0q-307-44-422-44-353 0-516 169-162 169-162 547v2209H84v466h454v934h562v-934h538v-466h-538z" id="HelveticaWorld-Regular-74" transform="scale(.01563)"/><path d="M422 3956v638h562v-638H422zM984 0H422v3347h562V0z" id="HelveticaWorld-Regular-69" transform="scale(.01563)"/><path d="M2534 2222q-121 716-793 716-416 0-669-333t-253-927q0-647 234-967 235-320 681-320 300 0 519 220t281 573h544q-84-621-439-951T1722-97q-659 0-1081 451-422 452-422 1227 0 850 422 1356 422 507 1184 507 556 0 886-333t367-889h-544z" id="HelveticaWorld-Regular-63" transform="scale(.01563)"/><path d="M319-122h-428l1575 4838h422L319-122z" id="HelveticaWorld-Regular-2f" transform="scale(.01563)"/><path d="M984 0H422v3347h531v-556h13q365 653 940 653 91 0 147-19v-584h-209q-378 0-619-257-241-256-241-637V0z" id="HelveticaWorld-Regular-72" transform="scale(.01563)"/><path d="M3150 0h-566v2188q0 403-156 576-156 174-509 174-435 0-685-282-250-281-250-831V0H422v4594h562V2900h13q384 544 981 544 550 0 861-288 311-287 311-878V0z" id="HelveticaWorld-Regular-68" transform="scale(.01563)"/></defs><use xlink:href="#HelveticaWorld-Regular-65"/><use x="55.42" xlink:href="#HelveticaWorld-Regular-6c"/><use x="77.441" xlink:href="#HelveticaWorld-Regular-61"/><use x="132.373" xlink:href="#HelveticaWorld-Regular-73"/><use x="182.373" xlink:href="#HelveticaWorld-Regular-74"/><use x="210.059" xlink:href="#HelveticaWorld-Regular-69"/><use x="232.08" xlink:href="#HelveticaWorld-Regular-63"/><use x="283.35" xlink:href="#HelveticaWorld-Regular-2f"/><use x="311.133" xlink:href="#HelveticaWorld-Regular-65"/><use x="366.553" xlink:href="#HelveticaWorld-Regular-6c"/><use x="388.574" xlink:href="#HelveticaWorld-Regular-61"/><use x="443.506" xlink:href="#HelveticaWorld-Regular-73"/><use x="493.506" xlink:href="#HelveticaWorld-Regular-74"/><use x="521.191" xlink:href="#HelveticaWorld-Regular-69"/><use x="543.213" xlink:href="#HelveticaWorld-Regular-63"/><use x="594.482" xlink:href="#HelveticaWorld-Regular-73"/><use x="644.482" xlink:href="#HelveticaWorld-Regular-65"/><use x="699.902" xlink:href="#HelveticaWorld-Regular-61"/><use x="754.834" xlink:href="#HelveticaWorld-Regular-72"/><use x="786.402" xlink:href="#HelveticaWorld-Regular-63"/><use x="837.672" xlink:href="#HelveticaWorld-Regular-68"/></g><g style="fill:#ff7f0e" transform="matrix(.14 0 0 -.14 413.818 81.467)" id="text_13"><defs><path d="M3150 0h-566v2059q0 475-166 677-165 202-549 202-378 0-632-288-253-287-253-825V0H422v3347h531v-472h13q397 569 1012 569 569 0 870-302 302-301 302-864V0z" id="HelveticaWorld-Regular-6e" transform="scale(.01563)"/><path d="M903 469h2060V0H153v441l2025 2440H316v466h2584v-459L903 469z" id="HelveticaWorld-Regular-7a" transform="scale(.01563)"/><path d="M838 1684q0-621 246-957 247-336 657-336 390 0 652 287 263 288 263 838 0 706-224 1064-223 358-679 358-434 0-675-285-240-284-240-969zM3225 0h-531v459h-13Q2363-97 1716-97q-697 0-1079 531-381 532-381 1338 0 744 378 1208 379 464 1016 464 628 0 1000-569l13 38v1681h562V0z" id="HelveticaWorld-Regular-64" transform="scale(.01563)"/></defs><use xlink:href="#HelveticaWorld-Regular-61"/><use x="54.932" xlink:href="#HelveticaWorld-Regular-6e"/><use x="110.107" xlink:href="#HelveticaWorld-Regular-74"/><use x="137.793" xlink:href="#HelveticaWorld-Regular-69"/><use x="159.814" xlink:href="#HelveticaWorld-Regular-72"/><use x="191.383" xlink:href="#HelveticaWorld-Regular-65"/><use x="246.803" xlink:href="#HelveticaWorld-Regular-7a"/><use x="296.021" xlink:href="#HelveticaWorld-Regular-2f"/><use x="323.805" xlink:href="#HelveticaWorld-Regular-72"/><use x="355.373" xlink:href="#HelveticaWorld-Regular-65"/><use x="410.793" xlink:href="#HelveticaWorld-Regular-64"/><use x="467.775" xlink:href="#HelveticaWorld-Regular-69"/><use x="489.797" xlink:href="#HelveticaWorld-Regular-73"/></g><g style="fill:#2ca02c" transform="matrix(.14 0 0 -.14 413.818 221.29)" id="text_14"><defs><path d="M422 3347h531v-472h13q378 569 1012 569 628 0 891-544 240 294 465 419t557 125q434 0 735-285 302-284 302-843V0h-562v2163q0 390-147 582-147 193-475 193-331 0-560-269-228-269-228-628V0h-562v2316q0 290-135 456-134 166-390 166-403 0-644-300t-241-813V0H422v3347z" id="HelveticaWorld-Regular-6d" transform="scale(.01563)"/><path d="M813 1678q0-559 253-920t718-361q482 0 732 378t250 903q0 531-250 901-250 371-732 371-446 0-709-349-262-348-262-923zm-575 0q0 747 415 1256 416 510 1131 510 732 0 1144-516 413-515 413-1250 0-737-410-1256Q2522-97 1784-97q-709 0-1128 503-418 503-418 1272z" id="HelveticaWorld-Regular-6f" transform="scale(.01563)"/><path d="M831 1684q0-615 244-954t659-339q404 0 660 293 256 294 256 832 0 706-224 1064-223 358-679 358-459 0-688-305-228-305-228-949zM3188 191q0-807-388-1203-387-397-1169-397-562 0-895 259T353-409h563q43-244 226-388t530-144q472 0 712 254 241 253 241 821v238h-12Q2297-97 1722-97q-716 0-1094 528T250 1772q0 744 381 1208 382 464 1013 464 634 0 1000-569h12v472h532V191z" id="HelveticaWorld-Regular-67" transform="scale(.01563)"/><path d="M2778 1684q0 672-238 963-237 291-677 291-447-7-676-349-228-342-228-989 0-659 275-934t641-275q416 0 659 342 244 342 244 951zM422 0v4594h562V2925h13q359 519 969 519 625 0 1009-464t384-1208q0-838-388-1354Q2584-97 1888-97q-613 0-922 513h-13V0H422z" id="HelveticaWorld-Regular-62" transform="scale(.01563)"/></defs><use xlink:href="#HelveticaWorld-Regular-6d"/><use x="83.008" xlink:href="#HelveticaWorld-Regular-6f"/><use x="138.916" xlink:href="#HelveticaWorld-Regular-6e"/><use x="194.092" xlink:href="#HelveticaWorld-Regular-67"/><use x="250" xlink:href="#HelveticaWorld-Regular-6f"/><use x="305.908" xlink:href="#HelveticaWorld-Regular-64"/><use x="362.891" xlink:href="#HelveticaWorld-Regular-62"/><use x="419.385" xlink:href="#HelveticaWorld-Regular-2f"/><use x="447.168" xlink:href="#HelveticaWorld-Regular-6d"/><use x="530.176" xlink:href="#HelveticaWorld-Regular-6f"/><use x="586.084" xlink:href="#HelveticaWorld-Regular-6e"/><use x="641.26" xlink:href="#HelveticaWorld-Regular-67"/><use x="697.168" xlink:href="#HelveticaWorld-Regular-6f"/></g><g style="fill:#d62728" transform="matrix(.14 0 0 -.14 413.818 268.844)" id="text_15"><defs><path d="M959 1516q0-538 262-832 263-293 654-293 428 0 665 348 238 349 238 945 0 654-228 954t-687 300q-447 0-676-352-228-352-228-1070zM422 3347h531v-472h13q359 569 1000 569 647 0 1020-471 373-470 373-1201 0-819-381-1344T1888-97q-582 0-891 450h-13v-1678H422v4672z" id="HelveticaWorld-Regular-70" transform="scale(.01563)"/></defs><use xlink:href="#HelveticaWorld-Regular-70"/><use x="56.494" xlink:href="#HelveticaWorld-Regular-6f"/><use x="112.402" xlink:href="#HelveticaWorld-Regular-73"/><use x="162.402" xlink:href="#HelveticaWorld-Regular-74"/><use x="190.088" xlink:href="#HelveticaWorld-Regular-67"/><use x="245.996" xlink:href="#HelveticaWorld-Regular-72"/><use x="277.564" xlink:href="#HelveticaWorld-Regular-65"/><use x="332.984" xlink:href="#HelveticaWorld-Regular-73"/><use x="382.984" xlink:href="#HelveticaWorld-Regular-2f"/><use x="410.768" xlink:href="#HelveticaWorld-Regular-70"/><use x="467.262" xlink:href="#HelveticaWorld-Regular-6f"/><use x="523.17" xlink:href="#HelveticaWorld-Regular-73"/><use x="573.17" xlink:href="#HelveticaWorld-Regular-74"/><use x="600.855" xlink:href="#HelveticaWorld-Regular-67"/><use x="656.764" xlink:href="#HelveticaWorld-Regular-72"/><use x="688.332" xlink:href="#HelveticaWorld-Regular-65"/><use x="743.752" xlink:href="#HelveticaWorld-Regular-73"/></g><g style="fill:#9467bd" transform="matrix(.14 0 0 -.14 413.818 282.888)" id="text_16"><defs><path d="M2497 3347h612L1913 63q-32-88-63-166-272-725-469-995-197-271-637-271-231 0-378 50v513q159-57 350-57 206 0 301 130 96 130 283 636L56 3347h635l897-2725h12l897 2725z" id="HelveticaWorld-Regular-79" transform="scale(.01563)"/><path d="M2656 1516q0 712-224 1067-223 355-679 355-440 0-678-288-237-287-237-966 0-603 240-948 241-345 663-345 372 0 643 281 272 281 272 844zm538-2841h-563V353h-12Q2297-97 1728-97q-703 0-1088 522-384 522-384 1347 0 731 378 1201 379 471 1016 471 634 0 1000-569h13v472h531v-4672z" id="HelveticaWorld-Regular-71" transform="scale(.01563)"/><path d="M1850 1484H281v575h1569v-575z" id="HelveticaWorld-Regular-2d" transform="scale(.01563)"/><path d="M2522 3347h616L1863 0h-604L38 3347h653l872-2725h12l947 2725z" id="HelveticaWorld-Regular-76" transform="scale(.01563)"/></defs><use xlink:href="#HelveticaWorld-Regular-6d"/><use x="81.008" xlink:href="#HelveticaWorld-Regular-79"/><use x="129.117" xlink:href="#HelveticaWorld-Regular-73"/><use x="178.117" xlink:href="#HelveticaWorld-Regular-71"/><use x="234.611" xlink:href="#HelveticaWorld-Regular-6c"/><use x="256.633" xlink:href="#HelveticaWorld-Regular-2f"/><use x="284.416" xlink:href="#HelveticaWorld-Regular-6d"/><use x="365.424" xlink:href="#HelveticaWorld-Regular-79"/><use x="413.533" xlink:href="#HelveticaWorld-Regular-73"/><use x="462.533" xlink:href="#HelveticaWorld-Regular-71"/><use x="519.027" xlink:href="#HelveticaWorld-Regular-6c"/><use x="541.049" xlink:href="#HelveticaWorld-Regular-2d"/><use x="574.35" xlink:href="#HelveticaWorld-Regular-73"/><use x="624.35" xlink:href="#HelveticaWorld-Regular-65"/><use x="679.77" xlink:href="#HelveticaWorld-Regular-72"/><use x="714.713" xlink:href="#HelveticaWorld-Regular-76"/><use x="762.322" xlink:href="#HelveticaWorld-Regular-65"/><use x="817.742" xlink:href="#HelveticaWorld-Regular-72"/></g><g style="fill:#8c564b" transform="matrix(.14 0 0 -.14 413.818 296.936)" id="text_17"><defs><path d="M391 3347h562V1125q0-369 167-552 168-182 480-182 434 0 678 307 244 308 244 805v1844h562V0h-531v488l-12 12Q2222-97 1478-97q-481 0-784 262-303 263-303 776v2406z" id="HelveticaWorld-Regular-75" transform="scale(.01563)"/></defs><use xlink:href="#HelveticaWorld-Regular-61"/><use x="54.932" xlink:href="#HelveticaWorld-Regular-70"/><use x="111.426" xlink:href="#HelveticaWorld-Regular-61"/><use x="166.357" xlink:href="#HelveticaWorld-Regular-63"/><use x="217.627" xlink:href="#HelveticaWorld-Regular-68"/><use x="272.803" xlink:href="#HelveticaWorld-Regular-65"/><use x="328.223" xlink:href="#HelveticaWorld-Regular-2f"/><use x="356.006" xlink:href="#HelveticaWorld-Regular-6c"/><use x="378.027" xlink:href="#HelveticaWorld-Regular-75"/><use x="432.813" xlink:href="#HelveticaWorld-Regular-63"/><use x="484.082" xlink:href="#HelveticaWorld-Regular-65"/><use x="539.502" xlink:href="#HelveticaWorld-Regular-6e"/><use x="594.678" xlink:href="#HelveticaWorld-Regular-65"/><use x="650.098" xlink:href="#HelveticaWorld-Regular-2d"/><use x="683.398" xlink:href="#HelveticaWorld-Regular-73"/><use x="733.398" xlink:href="#HelveticaWorld-Regular-6f"/><use x="789.307" xlink:href="#HelveticaWorld-Regular-6c"/><use x="811.328" xlink:href="#HelveticaWorld-Regular-72"/></g><g style="fill:#e377c2" transform="matrix(.14 0 0 -.14 413.818 310.803)" id="text_18"><defs><path d="M4319 0v2713q0 53 6 520t6 626h-18L3028 0h-615L1125 3853h-19q0-231 6-659 7-428 7-481V0H519v4594h887L2713 709h18l1300 3885h891V0h-603z" id="HelveticaWorld-Regular-4d" transform="scale(.01563)"/><path d="M1141 531h1203q625 0 978 480t353 1311q0 822-356 1278t-1028 463H1141V531zM519 4594h1862q903 0 1414-621 511-620 511-1610 0-1063-511-1713T2356 0H519v4594z" id="HelveticaWorld-Regular-44" transform="scale(.01563)"/><path d="M519 4594h2015q594 0 947-322t353-834q0-310-155-565-154-254-460-395 428-162 629-431 202-269 202-691 0-593-428-975Q3194 0 2491 0H519v4594zm612-4063h1325q488 0 731 226 244 227 244 612 0 390-272 582-271 193-803 193H1131V531zm0 2119h1128q494 0 724 179 230 180 230 562 0 328-218 500-217 172-729 172H1131V2650z" id="HelveticaWorld-Regular-42" transform="scale(.01563)"/></defs><use xlink:href="#HelveticaWorld-Regular-4d"/><use x="85.01" xlink:href="#HelveticaWorld-Regular-61"/><use x="139.941" xlink:href="#HelveticaWorld-Regular-72"/><use x="172.51" xlink:href="#HelveticaWorld-Regular-69"/><use x="194.531" xlink:href="#HelveticaWorld-Regular-61"/><use x="249.463" xlink:href="#HelveticaWorld-Regular-44"/><use x="321.484" xlink:href="#HelveticaWorld-Regular-42"/><use x="388.672" xlink:href="#HelveticaWorld-Regular-2f"/><use x="416.455" xlink:href="#HelveticaWorld-Regular-73"/><use x="466.455" xlink:href="#HelveticaWorld-Regular-65"/><use x="521.875" xlink:href="#HelveticaWorld-Regular-72"/><use x="556.818" xlink:href="#HelveticaWorld-Regular-76"/><use x="604.428" xlink:href="#HelveticaWorld-Regular-65"/><use x="659.848" xlink:href="#HelveticaWorld-Regular-72"/></g><g style="fill:#969696" transform="matrix(.09716 0 0 -.09716 53.127 347.137)" id="text_19"><defs><path d="M2463 2456h2018V0h-403l-150 594q-294-375-691-546-396-170-824-170-691 0-1155 301-464 302-721 833-256 532-256 1326 0 990 589 1684t1586 694q744 0 1300-416 557-416 647-1100h-600q-109 453-462 709-353 257-916 257-678 0-1091-511-412-511-412-1352 0-978 409-1436 410-458 1119-458 463 0 783 183t492 497q172 314 172 836H2463v531z" id="HelveticaWorld-Regular-47" transform="scale(.01563)"/><path d="M4153 0h-622v2144H1131V0H519v4594h612V2694h2400v1900h622V0z" id="HelveticaWorld-Regular-48" transform="scale(.01563)"/><path d="m2816 1888-678 2021h-13l-737-2021h1428zm-1619-550L716 0H78l1728 4594h703L4172 0h-678l-453 1338H1197z" id="HelveticaWorld-Regular-41" transform="scale(.01563)"/><path d="M1141 2472h1234q466 0 700 204 234 205 234 621 0 372-225 569t-684 197H1141V2472zm0-2472H519v4594h2065q616 0 991-358t375-933q0-597-363-980-362-382-1003-382H1141V0z" id="HelveticaWorld-Regular-50" transform="scale(.01563)"/><path d="M1141 0H519v4594h622V0z" id="HelveticaWorld-Regular-49" transform="scale(.01563)"/><path d="M603 4716h466V-122H603v4838z" id="HelveticaWorld-Regular-7c" transform="scale(.01563)"/><path d="M3559 4594h600V0h-690L1125 3713h-12V0H519v4594h728L3547 884h12v3710z" id="HelveticaWorld-Regular-4e" transform="scale(.01563)"/><path d="M3225 3250q-19 438-327 686-307 248-810 248-507 0-779-208-271-207-271-598 0-209 118-359 119-150 425-222l1313-300q531-116 787-440 257-323 257-788 0-681-500-1036T2138-122q-610 0-962 156-351 157-623 497-272 341-272 953h582q0-512 340-794 341-281 928-281 569 0 886 202t317 573q0 338-189 505t-739 295l-990 232q-494 112-738 392t-244 689q0 619 417 1019 418 400 1165 400 843 0 1301-352 458-351 492-1114h-584z" id="HelveticaWorld-Regular-53" transform="scale(.01563)"/><path d="M813 1678q0-559 253-920t718-361q482 0 732 378t250 903q0 531-250 901-250 371-732 371-446 0-709-349-262-348-262-923zm-575 0q0 747 415 1256 416 510 1131 510 732 0 1144-516 413-515 413-1250 0-737-410-1256Q2522-97 1784-97q-709 0-1128 503-418 503-418 1272zm2351 2266h-575v650h575v-650zm-1038 0H976v650h575v-650z" id="HelveticaWorld-Regular-f6" transform="scale(.01563)"/><path d="M3713 3213q-104 468-434 710-329 243-854 243-678 0-1091-493-412-492-412-1329 0-969 390-1443 391-473 1132-473 487 0 838 323 352 324 474 940h603q-121-885-671-1349T2350-122q-941 0-1505 647T281 2322q0 1109 589 1751 589 643 1555 643 800 0 1297-413 497-412 591-1090h-600z" id="HelveticaWorld-Regular-43" transform="scale(.01563)"/><path d="M2388 0h-622v1850L31 4594h725l1319-2206 1316 2206h731L2388 1850V0z" id="HelveticaWorld-Regular-59" transform="scale(.01563)"/></defs><use xlink:href="#HelveticaWorld-Regular-47"/><use x="77.1" xlink:href="#HelveticaWorld-Regular-69"/><use x="99.121" xlink:href="#HelveticaWorld-Regular-74"/><use x="126.807" xlink:href="#HelveticaWorld-Regular-48"/><use x="199.805" xlink:href="#HelveticaWorld-Regular-75"/><use x="254.59" xlink:href="#HelveticaWorld-Regular-62"/><use x="311.084" xlink:href="#HelveticaWorld-Regular-20"/><use x="335.498" xlink:href="#HelveticaWorld-Regular-41"/><use x="402.197" xlink:href="#HelveticaWorld-Regular-50"/><use x="466.846" xlink:href="#HelveticaWorld-Regular-49"/><use x="492.627" xlink:href="#HelveticaWorld-Regular-20"/><use x="517.041" xlink:href="#HelveticaWorld-Regular-76"/><use x="566.65" xlink:href="#HelveticaWorld-Regular-69"/><use x="588.672" xlink:href="#HelveticaWorld-Regular-61"/><use x="643.604" xlink:href="#HelveticaWorld-Regular-20"/><use x="668.018" xlink:href="#HelveticaWorld-Regular-73"/><use x="718.018" xlink:href="#HelveticaWorld-Regular-74"/><use x="745.703" xlink:href="#HelveticaWorld-Regular-61"/><use x="800.635" xlink:href="#HelveticaWorld-Regular-72"/><use x="832.203" xlink:href="#HelveticaWorld-Regular-67"/><use x="888.111" xlink:href="#HelveticaWorld-Regular-72"/><use x="919.68" xlink:href="#HelveticaWorld-Regular-61"/><use x="974.611" xlink:href="#HelveticaWorld-Regular-70"/><use x="1031.105" xlink:href="#HelveticaWorld-Regular-68"/><use x="1086.281" xlink:href="#HelveticaWorld-Regular-20"/><use x="1110.695" xlink:href="#HelveticaWorld-Regular-7c"/><use x="1136.672" xlink:href="#HelveticaWorld-Regular-20"/><use x="1161.086" xlink:href="#HelveticaWorld-Regular-4e"/><use x="1234.182" xlink:href="#HelveticaWorld-Regular-69"/><use x="1256.203" xlink:href="#HelveticaWorld-Regular-63"/><use x="1307.473" xlink:href="#HelveticaWorld-Regular-6f"/><use x="1363.381" xlink:href="#HelveticaWorld-Regular-20"/><use x="1387.795" xlink:href="#HelveticaWorld-Regular-53"/><use x="1454.006" xlink:href="#HelveticaWorld-Regular-63"/><use x="1505.275" xlink:href="#HelveticaWorld-Regular-68"/><use x="1560.451" xlink:href="#HelveticaWorld-Regular-6c"/><use x="1582.473" xlink:href="#HelveticaWorld-Regular-f6"/><use x="1638.381" xlink:href="#HelveticaWorld-Regular-6d"/><use x="1721.389" xlink:href="#HelveticaWorld-Regular-65"/><use x="1776.809" xlink:href="#HelveticaWorld-Regular-72"/><use x="1809.377" xlink:href="#HelveticaWorld-Regular-20"/><use x="1833.791" xlink:href="#HelveticaWorld-Regular-7c"/><use x="1859.768" xlink:href="#HelveticaWorld-Regular-20"/><use x="1884.182" xlink:href="#HelveticaWorld-Regular-43"/><use x="1956.496" xlink:href="#HelveticaWorld-Regular-43"/><use x="2028.811" xlink:href="#HelveticaWorld-Regular-20"/><use x="2053.225" xlink:href="#HelveticaWorld-Regular-42"/><use x="2116.037" xlink:href="#HelveticaWorld-Regular-59"/></g><g style="fill:#969696" transform="matrix(.14 0 0 -.14 158.992 17.25)" id="text_20"><defs><path d="M1100 2881V0H538v2881H78v466h460v575q0 378 229 557 230 180 642 180 141 0 254-12v-506q-100 12-229 12-187 0-261-92-73-92-73-298v-416h563v-466h-563z" id="HelveticaWorld-Regular-66" transform="scale(.01563)"/></defs><use xlink:href="#HelveticaWorld-Regular-4e"/><use x="73.096" xlink:href="#HelveticaWorld-Regular-75"/><use x="127.881" xlink:href="#HelveticaWorld-Regular-6d"/><use x="210.889" xlink:href="#HelveticaWorld-Regular-62"/><use x="267.383" xlink:href="#HelveticaWorld-Regular-65"/><use x="322.803" xlink:href="#HelveticaWorld-Regular-72"/><use x="355.371" xlink:href="#HelveticaWorld-Regular-20"/><use x="379.785" xlink:href="#HelveticaWorld-Regular-6f"/><use x="435.693" xlink:href="#HelveticaWorld-Regular-66"/><use x="463.379" xlink:href="#HelveticaWorld-Regular-20"/><use x="487.793" xlink:href="#HelveticaWorld-Regular-47"/><use x="564.893" xlink:href="#HelveticaWorld-Regular-69"/><use x="586.914" xlink:href="#HelveticaWorld-Regular-74"/><use x="614.6" xlink:href="#HelveticaWorld-Regular-48"/><use x="687.598" xlink:href="#HelveticaWorld-Regular-75"/><use x="742.383" xlink:href="#HelveticaWorld-Regular-62"/><use x="798.877" xlink:href="#HelveticaWorld-Regular-20"/><use x="823.291" xlink:href="#HelveticaWorld-Regular-73"/><use x="873.291" xlink:href="#HelveticaWorld-Regular-74"/><use x="900.977" xlink:href="#HelveticaWorld-Regular-61"/><use x="955.908" xlink:href="#HelveticaWorld-Regular-72"/><use x="988.477" xlink:href="#HelveticaWorld-Regular-73"/></g><path clip-path="url(#pe00c7a3419)" d="m102.562 313.361 1.832-1.267 48.697-1.425 17.78-.197 5.11-.094 7.118-.295 14.693-.34 27.872-1.337 12.727-1.015.46-.128 5.309-.508 2.346-.508 9.331-.893 17.492-1.903 3.607-.508 7.147-.764 2.857-.251 4.617-.513 7.892-1.272 5.663-.76 1.876-.256 4.417-1.015 2.74-.508 13.865-3.052 2.748-.508 4.606-.764 7.527-1.524 5.65-1.272 10.74-3.051 2.136-.508 2.407-1.016 6.152-1.528 4.436-1.016 2.64-.76 1.614-.256 4.028-1.015 6.19-1.617 7.212-1.958 3.918-1.124 5.104-1.292 1.737-.345.864-.35 2.518-.725h0" style="fill:none;stroke:#d62728;stroke-linecap:square;stroke-width:1.5" id="line2d_20"/><path clip-path="url(#pe00c7a3419)" d="m53.127 313.361 1.206-1.873 10.426-1.026 6.28-.512 11.879-1.199 3.532-.512 11.535-1.711 7.576-1.026 4.898-.685 2.918-.34 3.702-.685 4.07-.686 2.517-.34 4.524-.685 20.945-2.9 9.51-.857 12.78-.38 2.35-.133 4.676-.685 6.371-.853 8.387-1.37 12.22-2.052 3.268-1.025 1.553-.346.762-.34 1.66-.34 1.05-.34 1.604-.345 2.436-.68 1.56-.34 6.615-2.397 1.45-.685 1.843-.68 1.337-.686 1.858-.685 4.83-1.366 4.812-2.056 4.303-1.366 4.447-1.366 7.969-2.736 3.347-1.366 3.705-1.37 4.287-1.366 5.374-2.051 10.76-4.102 2.25-.685 3.426-1.366 1.16-.685 1.515-.686 1.828-.68 1.41-.685 5.89-2.052 3.492-1.365 1.355-.686 5.475-2.05 9.311-3.422 4.05-2.051 1.881-.686 7.457-3.411 3.523-1.371 4.936-2.051 3.804-1.37 2.926-1.366 4.405-2.052 1.645-.685 2.137-.68 1.491-.686 3.363-1.365 1.688-.686 4.017-1.365 3.45-1.37 1.957-.686 4.371-1.366 4.068-1.37 2.31-.479 2.234-.966 1.25-.483 2.304-.656 1.626-.656 6.04-1.72 2.064-.706 4.443-1.158.919-.38 1.448-.478 1.06-.483h0" style="fill:none;stroke:#2ca02c;stroke-linecap:square;stroke-width:1.5" id="line2d_21"/><path clip-path="url(#pe00c7a3419)" d="m58.383 313.361.462-5.384 6.877-1.158 14.241-2.308 4.084-.774 3.296-.769 1.676-.384 4-.77 11.98-2.696 4.9-1.16 3.76-.768 7.33-1.923 13.005-2.697 6.475-1.159 13-2.115 5.424-.483 10.923-.483 3.166-.094 1.01-.29 4.107-1.539 14.991-5.394 5.149-2.312 6.036-2.312 4.644-3.082 2.702-1.538 1.542-.77 1.038-.773 2.938-1.539 1.712-.769 1.188-.774 1.53-.77 3.221-2.311 4.65-3.082 2.041-1.538 2.488-1.543 5.558-4.62 2.116-1.543 1.452-1.539 2.101-1.543 3.529-2.307 1.336-.774 2.333-1.539 8.028-6.163 2.335-1.543 3.501-3.081 1.737-1.539 1.441-1.543 2.022-1.538 3.529-3.082 1.463-1.543 1.737-1.538 1.973-1.543 1.624-1.538 2.044-1.544 3.73-3.081 3.92-3.082 3.737-4.62 1.447-1.543 3.283-3.081 3.478-3.082 3.072-3.081 13.017-12.326 1.919-1.538 11.908-13.87 2.29-3.08 1.766-3.082 1.043-1.539 1.47-1.543 2.384-3.081 4.27-4.62 1.227-1.543 1.648-1.539 1.083-1.543 5.788-9.244 2.25-3.082 2.756-3.081 4.767-6.163 3.049-3.082 5.157-6.163h2.104l8.15-11.32 5.794-7.73 3.937-4.423 3.38-3.294 4.74-3.998 5.34-5.167 2.515-2.327h0" style="fill:none;stroke:#ff7f0e;stroke-linecap:square;stroke-width:1.5" id="line2d_22"/><path clip-path="url(#pe00c7a3419)" d="m84.446 313.361.78-5.96 6.211-.775 6.437-.96 2.82-.386 13.808-2.312 10.133-1.73 5.608-.582 3.396-.385 3.297-.384 1.269-.193 7.916-.769 2.657-.192 11.74-.626 10.35-.148 2.415-.192 1.49-.577 3.87-1.154 3.472-.77 8.298-2.696 7.406-3.081 2.073-.775 1.606-.769 1.215-.769 2.827-1.543 1.31-1.538 3.553-2.313 4.371-2.312 6.07-3.85 1.489-.77 11.557-7.706 3.506-3.081 2.186-1.539 1.759-1.543 10.376-7.701 1.616-1.543 1.924-1.539 1.713-1.543 1.955-1.538 1.582-1.543 1.196-1.539 2.843-3.081 3.631-3.082 1.326-1.543 3.556-3.081 3.145-3.082 1.403-1.538 1.892-1.543 3.24-3.082 4.915-4.62 1.4-1.543 1.642-1.538 1.298-1.543 4.788-6.163 2.749-3.082 2.85-3.081 1.34-1.538 3.466-4.625 2.068-3.082 2.392-3.081 1.99-3.082 1.847-3.081 1.36-1.538 1.077-1.543 1.926-3.082 2.234-3.081 9.795-15.408 1.514-3.081 3.371-6.163 1.934-3.082 1.62-3.081 7.476-12.326 2.116-3.082 1.734-3.081 4.585-9.245h1.167l27.148-40.606 5.794-7.223 3.937-4.349 3.38-4.378 4.74-4.851 2.747-2.638 2.593-2.914 2.515-1.943h0" style="fill:none;stroke:#1f77b4;stroke-linecap:square;stroke-width:1.5" id="line2d_23"/></g></g><defs><clipPath id="pe00c7a3419"><path d="M53.127 47.249h357.12v266.112H53.127z"/></clipPath></defs></svg>