<svg height="475.298" viewBox="0 0 655.516 356.473" width="874.021" xmlns="http://www.w3.org/2000/svg" xmlns:xlink="http://www.w3.org/1999/xlink"><defs><style>*{stroke-linecap:butt;stroke-linejoin:round}</style></defs><g id="figure_1"><path d="M0 356.473h655.516V0H0z" style="fill:none" id="patch_1"/><g id="axes_1"><path d="M60.912 313.361h357.12V47.25H60.912z" style="fill:none" id="patch_2"/><path clip-path="url(#p754814116e)" d="m310.498 313.361 2.472-1.877 2.492-.468 2.713-.235 1.977-.235 2.638-.235 2.388-.235 2.087-.235 1.45-.235 1.938-.233 1.644-.235 1.556-.47.4-.94.366-1.88 2.43-1.877 2.608-.94 1.973-.47 1.44-.47 2.998-.468 3.04-.47 3.005-.47 2.412-.47 2.053-.47 1.824-.47 2.51-.94 1.987-.467 2.469-.47 1.908-.47 2.105-.47 1.75-.47 1.558-.47 2.075-.47 2.581-.47 1.71-1.878 1.745-.94 1.535-.47 2.122-.47 2.056-.467 1.808-.47 2.065-.47 2.56-.47 2.217-.47 2.362-.47 2.094-.47 1.895-.47 2.837-.938 2.22-.47 2.275-.47 2.448-.47 2.037-.47 2.327-.47 2.374-.47" style="fill:none;stroke:#8c564b;stroke-linecap:square;stroke-width:1.5" id="line2d_1"/><g id="matplotlib.axis_1"><g id="xtick_1"><g id="line2d_2"><defs><path d="M0 0v3.5" id="m087a15e1b2" style="stroke:#969696;stroke-width:.4"/></defs><use style="fill:#969696;stroke:#969696;stroke-width:.4" x="96.766" xlink:href="#m087a15e1b2" y="313.361"/></g><g style="fill:#969696" transform="matrix(.14 0 0 -.14 81.195 330.41)" id="text_1"><defs><path d="M281 2888q0 793 409 1202 410 410 1148 410 618 0 1012-375t394-969q0-462-227-780-226-317-667-557l-775-425q-684-375-775-863h2444V0H166q25 634 275 1056t781 728l806 469q322 185 469 383t147 545q0 344-241 578-240 235-650 235-453 0-678-299-225-298-231-807H281z" id="HelveticaWorld-Regular-32" transform="scale(.01563)"/><path d="M2719 2188q0 903-239 1354-239 452-702 452-453 0-697-452-243-451-243-1354 0-875 240-1340 241-464 700-464 463 0 702 448 239 449 239 1356zm603 0q0-1107-400-1709-400-601-1144-601-772 0-1156 623-384 624-384 1687 0 1090 393 1701 394 611 1147 611 744 0 1144-608t400-1704z" id="HelveticaWorld-Regular-30" transform="scale(.01563)"/><path d="M2297 0h-600v3194H647v447q550 18 818 176 269 158 391 683h441V0z" id="HelveticaWorld-Regular-31" transform="scale(.01563)"/><path d="M1434 2559q141-12 294-12 397 0 626 183 230 183 230 554 0 300-214 505t-617 205q-447 0-655-263-207-262-220-703H325q0 703 369 1087 369 385 1084 385 635 0 1013-327 378-326 378-857 0-685-578-928v-13q750-256 750-1050 0-634-422-1041-422-406-1197-406-634 0-1044 333-409 333-459 1164h581q13-519 256-755 244-236 703-236 444 0 713 247t269 622q0 410-257 619-256 209-793 209-128 0-257-6v484z" id="HelveticaWorld-Regular-33" transform="scale(.01563)"/></defs><use xlink:href="#HelveticaWorld-Regular-32"/><use x="55.615" xlink:href="#HelveticaWorld-Regular-30"/><use x="111.23" xlink:href="#HelveticaWorld-Regular-31"/><use x="166.846" xlink:href="#HelveticaWorld-Regular-33"/></g></g><g id="xtick_2"><use style="fill:#969696;stroke:#969696;stroke-width:.4" x="134.562" xlink:href="#m087a15e1b2" y="313.361" id="line2d_3"/><g style="fill:#969696" transform="matrix(.14 0 0 -.14 118.992 330.41)" id="text_2"><defs><path d="M678 1581h1447v2041h-12L678 1581zm2010-487V0h-563v1094H159v550l2063 2856h466V1581h659v-487h-659z" id="HelveticaWorld-Regular-34" transform="scale(.01563)"/></defs><use xlink:href="#HelveticaWorld-Regular-32"/><use x="55.615" xlink:href="#HelveticaWorld-Regular-30"/><use x="111.23" xlink:href="#HelveticaWorld-Regular-31"/><use x="166.846" xlink:href="#HelveticaWorld-Regular-34"/></g></g><g id="xtick_3"><use style="fill:#969696;stroke:#969696;stroke-width:.4" x="172.359" xlink:href="#m087a15e1b2" y="313.361" id="line2d_4"/><g style="fill:#969696" transform="matrix(.14 0 0 -.14 156.788 330.41)" id="text_3"><defs><path d="M941 2619q372 281 872 281 606 0 1042-403t436-1038q0-690-421-1139-420-448-1179-448-660 0-1041 323-381 324-444 918h582q43-363 284-555t669-192q415 0 681 287 266 288 266 735 0 456-279 731-278 275-718 275-500 0-835-428l-484 25 337 2406h2332v-544H1131L941 2619z" id="HelveticaWorld-Regular-35" transform="scale(.01563)"/></defs><use xlink:href="#HelveticaWorld-Regular-32"/><use x="55.615" xlink:href="#HelveticaWorld-Regular-30"/><use x="111.23" xlink:href="#HelveticaWorld-Regular-31"/><use x="166.846" xlink:href="#HelveticaWorld-Regular-35"/></g></g><g id="xtick_4"><use style="fill:#969696;stroke:#969696;stroke-width:.4" x="210.155" xlink:href="#m087a15e1b2" y="313.361" id="line2d_5"/><g style="fill:#969696" transform="matrix(.14 0 0 -.14 194.585 330.41)" id="text_4"><defs><path d="M903 1381q0-440 262-719 263-278 685-278 403 0 642 284 239 285 239 748 0 403-236 675t-670 272q-422 0-672-266t-250-716zm1766 1922q-63 344-255 517-192 174-520 174-519 0-791-507-272-506-278-1159l13-12q359 553 1068 553 566 0 988-375t422-1053q0-672-400-1118-400-445-1078-445-782 0-1188 556-406 557-406 1660 0 1062 415 1734 416 672 1247 672 538 0 910-321 372-320 403-876h-550z" id="HelveticaWorld-Regular-36" transform="scale(.01563)"/></defs><use xlink:href="#HelveticaWorld-Regular-32"/><use x="55.615" xlink:href="#HelveticaWorld-Regular-30"/><use x="111.23" xlink:href="#HelveticaWorld-Regular-31"/><use x="166.846" xlink:href="#HelveticaWorld-Regular-36"/></g></g><g id="xtick_5"><use style="fill:#969696;stroke:#969696;stroke-width:.4" x="248.056" xlink:href="#m087a15e1b2" y="313.361" id="line2d_6"/><g style="fill:#969696" transform="matrix(.14 0 0 -.14 232.485 330.41)" id="text_5"><defs><path d="M238 4403h3109v-494q-641-653-1172-1766Q1644 1031 1497 0H878q94 850 622 1954 528 1105 1213 1899H238v550z" id="HelveticaWorld-Regular-37" transform="scale(.01563)"/></defs><use xlink:href="#HelveticaWorld-Regular-32"/><use x="55.615" xlink:href="#HelveticaWorld-Regular-30"/><use x="111.23" xlink:href="#HelveticaWorld-Regular-31"/><use x="166.846" xlink:href="#HelveticaWorld-Regular-37"/></g></g><g id="xtick_6"><use style="fill:#969696;stroke:#969696;stroke-width:.4" x="285.852" xlink:href="#m087a15e1b2" y="313.361" id="line2d_7"/><g style="fill:#969696" transform="matrix(.14 0 0 -.14 270.282 330.41)" id="text_6"><defs><path d="M1766 2597q347 0 573 198 227 199 227 527 0 294-218 483-217 189-620 189-359 0-555-199-195-198-195-504 0-328 244-511t544-183zm6-484q-434 0-681-241t-247-591q0-403 250-650t712-247q410 0 655 247t245 657q0 350-245 587-245 238-689 238zm1378 1228q0-678-578-947 397-178 567-471 170-292 170-623 0-641-413-1032-412-390-1112-390-612 0-1076 336T244 1306q0 763 762 1082-609 243-609 875 0 531 361 884t1001 353q641 0 1016-333t375-826z" id="HelveticaWorld-Regular-38" transform="scale(.01563)"/></defs><use xlink:href="#HelveticaWorld-Regular-32"/><use x="55.615" xlink:href="#HelveticaWorld-Regular-30"/><use x="111.23" xlink:href="#HelveticaWorld-Regular-31"/><use x="166.846" xlink:href="#HelveticaWorld-Regular-38"/></g></g><g id="xtick_7"><use style="fill:#969696;stroke:#969696;stroke-width:.4" x="323.649" xlink:href="#m087a15e1b2" y="313.361" id="line2d_8"/><g style="fill:#969696" transform="matrix(.14 0 0 -.14 308.078 330.41)" id="text_7"><defs><path d="M1766 2009q384 0 624 259 241 260 241 766 0 416-228 688t-681 272q-391 0-632-275-240-275-240-738 0-472 225-722t691-250zm-82-506q-640 0-1028 397-387 397-387 1056 0 666 390 1105 391 439 1057 439 775 0 1175-522t400-1565q0-1082-410-1809-409-726-1225-726-637 0-987 358t-350 845h565q25-337 220-536 196-198 540-198 487 0 737 434 250 435 344 1247l-12 13q-363-538-1029-538z" id="HelveticaWorld-Regular-39" transform="scale(.01563)"/></defs><use xlink:href="#HelveticaWorld-Regular-32"/><use x="55.615" xlink:href="#HelveticaWorld-Regular-30"/><use x="111.23" xlink:href="#HelveticaWorld-Regular-31"/><use x="166.846" xlink:href="#HelveticaWorld-Regular-39"/></g></g><g id="xtick_8"><use style="fill:#969696;stroke:#969696;stroke-width:.4" x="361.446" xlink:href="#m087a15e1b2" y="313.361" id="line2d_9"/><g style="fill:#969696" transform="matrix(.14 0 0 -.14 345.875 330.41)" id="text_8"><use xlink:href="#HelveticaWorld-Regular-32"/><use x="55.615" xlink:href="#HelveticaWorld-Regular-30"/><use x="111.23" xlink:href="#HelveticaWorld-Regular-32"/><use x="166.846" xlink:href="#HelveticaWorld-Regular-30"/></g></g><g id="xtick_9"><use style="fill:#969696;stroke:#969696;stroke-width:.4" x="399.346" xlink:href="#m087a15e1b2" y="313.361" id="line2d_10"/><g style="fill:#969696" transform="matrix(.14 0 0 -.14 383.775 330.41)" id="text_9"><use xlink:href="#HelveticaWorld-Regular-32"/><use x="55.615" xlink:href="#HelveticaWorld-Regular-30"/><use x="111.23" xlink:href="#HelveticaWorld-Regular-32"/><use x="166.846" xlink:href="#HelveticaWorld-Regular-31"/></g></g></g><g id="matplotlib.axis_2"><g id="ytick_1"><path clip-path="url(#p754814116e)" d="M60.912 268.174h357.12" style="fill:none;stroke:#969696;stroke-linecap:square;stroke-width:.3" id="line2d_11"/><g id="line2d_12"><defs><path d="M0 0h-3.5" id="m4a0a47d575" style="stroke:#969696;stroke-width:.3"/></defs><use style="fill:#969696;stroke:#969696;stroke-width:.3" x="60.912" xlink:href="#m4a0a47d575" y="268.174"/></g><g style="fill:#969696" transform="matrix(.14 0 0 -.14 14.985 273.198)" id="text_10"><use xlink:href="#HelveticaWorld-Regular-32"/><use x="55.615" xlink:href="#HelveticaWorld-Regular-30"/><use x="111.23" xlink:href="#HelveticaWorld-Regular-30"/><use x="166.846" xlink:href="#HelveticaWorld-Regular-30"/><use x="222.461" xlink:href="#HelveticaWorld-Regular-30"/></g></g><g id="ytick_2"><path clip-path="url(#p754814116e)" d="M60.912 222.984h357.12" style="fill:none;stroke:#969696;stroke-linecap:square;stroke-width:.3" id="line2d_13"/><use style="fill:#969696;stroke:#969696;stroke-width:.3" x="60.912" xlink:href="#m4a0a47d575" y="222.984" id="line2d_14"/><g style="fill:#969696" transform="matrix(.14 0 0 -.14 14.985 228.009)" id="text_11"><use xlink:href="#HelveticaWorld-Regular-34"/><use x="55.615" xlink:href="#HelveticaWorld-Regular-30"/><use x="111.23" xlink:href="#HelveticaWorld-Regular-30"/><use x="166.846" xlink:href="#HelveticaWorld-Regular-30"/><use x="222.461" xlink:href="#HelveticaWorld-Regular-30"/></g></g><g id="ytick_3"><path clip-path="url(#p754814116e)" d="M60.912 177.794h357.12" style="fill:none;stroke:#969696;stroke-linecap:square;stroke-width:.3" id="line2d_15"/><use style="fill:#969696;stroke:#969696;stroke-width:.3" x="60.912" xlink:href="#m4a0a47d575" y="177.794" id="line2d_16"/><g style="fill:#969696" transform="matrix(.14 0 0 -.14 14.985 182.819)" id="text_12"><use xlink:href="#HelveticaWorld-Regular-36"/><use x="55.615" xlink:href="#HelveticaWorld-Regular-30"/><use x="111.23" xlink:href="#HelveticaWorld-Regular-30"/><use x="166.846" xlink:href="#HelveticaWorld-Regular-30"/><use x="222.461" xlink:href="#HelveticaWorld-Regular-30"/></g></g><g id="ytick_4"><path clip-path="url(#p754814116e)" d="M60.912 132.604h357.12" style="fill:none;stroke:#969696;stroke-linecap:square;stroke-width:.3" id="line2d_17"/><use style="fill:#969696;stroke:#969696;stroke-width:.3" x="60.912" xlink:href="#m4a0a47d575" y="132.604" id="line2d_18"/><g style="fill:#969696" transform="matrix(.14 0 0 -.14 14.985 137.629)" id="text_13"><use xlink:href="#HelveticaWorld-Regular-38"/><use x="55.615" xlink:href="#HelveticaWorld-Regular-30"/><use x="111.23" xlink:href="#HelveticaWorld-Regular-30"/><use x="166.846" xlink:href="#HelveticaWorld-Regular-30"/><use x="222.461" xlink:href="#HelveticaWorld-Regular-30"/></g></g><g id="ytick_5"><path clip-path="url(#p754814116e)" d="M60.912 87.414h357.12" style="fill:none;stroke:#969696;stroke-linecap:square;stroke-width:.3" id="line2d_19"/><use style="fill:#969696;stroke:#969696;stroke-width:.3" x="60.912" xlink:href="#m4a0a47d575" y="87.414" id="line2d_20"/><g style="fill:#969696" transform="matrix(.14 0 0 -.14 7.2 92.439)" id="text_14"><use xlink:href="#HelveticaWorld-Regular-31"/><use x="55.615" xlink:href="#HelveticaWorld-Regular-30"/><use x="111.23" xlink:href="#HelveticaWorld-Regular-30"/><use x="166.846" xlink:href="#HelveticaWorld-Regular-30"/><use x="222.461" xlink:href="#HelveticaWorld-Regular-30"/><use x="278.076" xlink:href="#HelveticaWorld-Regular-30"/></g></g></g><path clip-path="url(#p754814116e)" d="m181.644 313.361 2.388-.022 1.055-.025.008-.048.033-.094.08-.19.936-.38 3.037-.38.293-.381 2.556-1.52 1.904-.19 2.214-.19 2.671-.19 2.817-.19 2.344-.19 2.218-.19 2.245-.19 2.833-.192 2.142-.19 2.584-.19 2.067-.189 2.605-.19 2.87-.19 2.714-.19 2.6-.19 1.852-.094 1.37-.097 2.674-.19 1.523-.095 1.79-.095 2.388-.19 2.558-.19 2.777-.19 2.182-.189 2.308-.19 2.93-.192 2.9-.38 1.97-.19 2.03-.189 2.531-.19 2.137-.19 2.087-.19 2.533-.191 2.453-.19 2.275-.19 2.342-.19 2.502-.19 1.506-.19 1.936-.19 3.043-.381 2.186-.19 1.888-.19 1.925-.19 1.448-.19 1.396-.19 2.383-.189 1.354-.19 2.032-.192 2.091-.19 2.682-.19 1.796-.19 2.048-.189 2.073-.19 2.265-.19 2-.19 1.8-.191 2.86-.38 1.844-.19 1.9-.19 2.685-.38 1.942-.189 1.773-.192 2.305-.38 2.885-.38 2.055-.189 1.673-.19 1.742-.19 2.053-.192 1.99-.19 1.72-.19 2.669-.19 2.286-.189 3.052-.38.708-.381.348-3.042 2.1-.759 2.038-.38 2.243-.381 1.707-.19 1.666-.19 2.772-.382 3.024-.38 2.245-.381 2.8-.217 1.634-.217 3.017-.436 2.778-.463 2.276-.466 2.565-.323 1.774-.323 1.978-.221 1.336-.222 2.794-.445 2.002-.221 1.52-.224 1.851-.242 1.48-.242 1.91-.214 1.334-.217 2.718-.292 1.937-.291 2.074-.246 1.511-.249 1.515-.477 1.903-.479" style="fill:none;stroke:#9467bd;stroke-linecap:square;stroke-width:1.5" id="line2d_21"/><path clip-path="url(#p754814116e)" d="m196.168 313.361.985-2.806 1.888-.7 2.72-.703 2.285-.35 1.94-.353 2.19-.35 2.462-.352 1.823-.35 2.151-.35 1.892-.351 2.254-.353 2.185-1.403.496-.7 1.626-.35 2.575-.353 2.16-.35 2.668-.353 1.97-.35 1.93-.352 2.537-2.807.811-.7 1.393-.35 1.831-.353 1.809-.35 1.862-.352 1.85-.35 2.378-.353 1.994-.35 2.247-.35 1.841-.35 1.937-.353 2.407-.35 1.804-.353 2.201-.35 1.754-.353 2.466-.35 2.356-.35 1.757-.35 1.788-.353 1.93-.35 1.923-.353 2.647-.702 2.826-.7 1.54-.35 1.616-.353 1.796-.35 1.564-.35 1.6-.351 1.625-.353 2.707-.7 2.87-.703 2.031-.702 1.304-.35 1.821-.353 1.866-.35 1.561-.35 2.489-.703 2.612-.703 1.166-.35 2.096-.353 1.801-.35 1.588-.35 2.79-.703 2.749-.703 2.864-.702 2.86-.7 2.71-.703 2.287-.7 2.738-.704 2.402-.7 2.481-.703 2.985-.702 2.958-.703 1.732-.35 1.923-.35 1.667-.35 1.86-.353 1.777-.35 1.718-.353 2.438-.703 2.753-.7 1.811-.35 1.63-.353 1.643-.35 1.541-.352 2.422-.703 2.792-.398 1.535-.4 1.538-.4 1.585-.4 3.063-.497 2-.497 2.18-.49 2.166-.49 2.266-.321 1.326-.321 2.497-.642 1.97-.357 1.566-.357 2.112-.388 1.195-.391 1.894-.38 1.357-.382 2.84-.477 1.815-.476 2.121-.423 1.502-.422 1.874-.31 1.511-.312" style="fill:none;stroke:#d62728;stroke-linecap:square;stroke-width:1.5" id="line2d_22"/><g style="fill:#1f77b4" transform="matrix(.14 0 0 -.14 421.603 50.825)" id="text_15"><defs><path d="M422 3347h531v-472h13q378 569 1012 569 628 0 891-544 240 294 465 419t557 125q434 0 735-285 302-284 302-843V0h-562v2163q0 390-147 582-147 193-475 193-331 0-560-269-228-269-228-628V0h-562v2316q0 290-135 456-134 166-390 166-403 0-644-300t-241-813V0H422v3347z" id="HelveticaWorld-Regular-6d" transform="scale(.01563)"/><path d="M422 3956v638h562v-638H422zM984 0H422v3347h562V0z" id="HelveticaWorld-Regular-69" transform="scale(.01563)"/><path d="M2534 2222q-121 716-793 716-416 0-669-333t-253-927q0-647 234-967 235-320 681-320 300 0 519 220t281 573h544q-84-621-439-951T1722-97q-659 0-1081 451-422 452-422 1227 0 850 422 1356 422 507 1184 507 556 0 886-333t367-889h-544z" id="HelveticaWorld-Regular-63" transform="scale(.01563)"/><path d="M984 0H422v3347h531v-556h13q365 653 940 653 91 0 147-19v-584h-209q-378 0-619-257-241-256-241-637V0z" id="HelveticaWorld-Regular-72" transform="scale(.01563)"/><path d="M813 1678q0-559 253-920t718-361q482 0 732 378t250 903q0 531-250 901-250 371-732 371-446 0-709-349-262-348-262-923zm-575 0q0 747 415 1256 416 510 1131 510 732 0 1144-516 413-515 413-1250 0-737-410-1256Q2522-97 1784-97q-709 0-1128 503-418 503-418 1272z" id="HelveticaWorld-Regular-6f" transform="scale(.01563)"/><path d="M2309 2394q-12 300-214 431-201 131-579 131-275 0-471-122-195-121-195-350 0-181 115-267 116-86 501-183l556-140q506-128 723-327 218-198 218-554 0-494-361-802T1638-97Q934-97 573 195q-360 293-367 880h544q13-347 230-516 217-168 651-168 353 0 561 140 208 141 208 391 0 178-135 284-134 107-531 197l-653 160q-397 100-586 298t-189 514q0 494 353 781 354 288 922 288 607 0 930-296 323-295 342-754h-544z" id="HelveticaWorld-Regular-73" transform="scale(.01563)"/><path d="M1100 2881V0H538v2881H78v466h460v575q0 378 229 557 230 180 642 180 141 0 254-12v-506q-100 12-229 12-187 0-261-92-73-92-73-298v-416h563v-466h-563z" id="HelveticaWorld-Regular-66" transform="scale(.01563)"/><path d="M1100 2881V703q0-128 70-195 71-67 252-67h216V0q-307-44-422-44-353 0-516 169-162 169-162 547v2209H84v466h454v934h562v-934h538v-466h-538z" id="HelveticaWorld-Regular-74" transform="scale(.01563)"/><path d="M319-122h-428l1575 4838h422L319-122z" id="HelveticaWorld-Regular-2f" transform="scale(.01563)"/><path d="M2522 3347h616L1863 0h-604L38 3347h653l872-2725h12l947 2725z" id="HelveticaWorld-Regular-76" transform="scale(.01563)"/><path d="M838 1684q0-621 246-957 247-336 657-336 390 0 652 287 263 288 263 838 0 706-224 1064-223 358-679 358-434 0-675-285-240-284-240-969zM3225 0h-531v459h-13Q2363-97 1716-97q-697 0-1079 531-381 532-381 1338 0 744 378 1208 379 464 1016 464 628 0 1000-569l13 38v1681h562V0z" id="HelveticaWorld-Regular-64" transform="scale(.01563)"/><path d="M2719 1941q-44 543-288 770-243 227-647 227-409 0-661-288-251-287-267-709h1863zm537-891q-93-519-509-859-366-288-963-294-703 6-1116 461-412 455-412 1223 0 882 425 1372 425 491 1182 491 678 0 1059-507 381-506 381-1446H856q0-525 244-813 244-287 731-287 344 0 591 207 247 208 272 452h562z" id="HelveticaWorld-Regular-65" transform="scale(.01563)"/></defs><use xlink:href="#HelveticaWorld-Regular-6d"/><use x="83.008" xlink:href="#HelveticaWorld-Regular-69"/><use x="105.029" xlink:href="#HelveticaWorld-Regular-63"/><use x="156.299" xlink:href="#HelveticaWorld-Regular-72"/><use x="187.867" xlink:href="#HelveticaWorld-Regular-6f"/><use x="243.775" xlink:href="#HelveticaWorld-Regular-73"/><use x="293.775" xlink:href="#HelveticaWorld-Regular-6f"/><use x="349.684" xlink:href="#HelveticaWorld-Regular-66"/><use x="377.369" xlink:href="#HelveticaWorld-Regular-74"/><use x="405.055" xlink:href="#HelveticaWorld-Regular-2f"/><use x="432.838" xlink:href="#HelveticaWorld-Regular-76"/><use x="481.447" xlink:href="#HelveticaWorld-Regular-73"/><use x="531.447" xlink:href="#HelveticaWorld-Regular-63"/><use x="582.717" xlink:href="#HelveticaWorld-Regular-6f"/><use x="638.625" xlink:href="#HelveticaWorld-Regular-64"/><use x="695.607" xlink:href="#HelveticaWorld-Regular-65"/></g><g style="fill:#ff7f0e" transform="matrix(.14 0 0 -.14 421.603 191.22)" id="text_16"><defs><path d="M2456 1709q-62-65-245-106-183-40-683-106-369-44-542-182-173-137-173-362 0-275 146-428 147-153 469-153 403 0 715 229 313 230 313 558v550zM397 2328q19 566 367 841 349 275 1014 275 531 0 890-241 360-240 360-694V581q0-197 178-197 72 0 185 25V0q-153-63-319-63-288 0-429 123-140 124-146 387Q2016-97 1288-97q-475 0-763 269-287 269-287 700 0 441 250 712 250 272 728 329l993 121q269 41 269 397 0 263-195 403-195 141-592 141-353 0-543-156-189-156-226-491H397z" id="HelveticaWorld-Regular-61" transform="scale(.01563)"/></defs><use xlink:href="#HelveticaWorld-Regular-61"/><use x="54.932" xlink:href="#HelveticaWorld-Regular-74"/><use x="82.617" xlink:href="#HelveticaWorld-Regular-6f"/><use x="138.525" xlink:href="#HelveticaWorld-Regular-6d"/><use x="221.533" xlink:href="#HelveticaWorld-Regular-2f"/><use x="249.316" xlink:href="#HelveticaWorld-Regular-61"/><use x="304.248" xlink:href="#HelveticaWorld-Regular-74"/><use x="331.934" xlink:href="#HelveticaWorld-Regular-6f"/><use x="387.842" xlink:href="#HelveticaWorld-Regular-6d"/></g><g style="fill:#2ca02c" transform="matrix(.14 0 0 -.14 421.603 215.583)" id="text_17"><defs><path d="M3150 0h-566v2059q0 475-166 677-165 202-549 202-378 0-632-288-253-287-253-825V0H422v3347h531v-472h13q397 569 1012 569 569 0 870-302 302-301 302-864V0z" id="HelveticaWorld-Regular-6e" transform="scale(.01563)"/></defs><use xlink:href="#HelveticaWorld-Regular-6e"/><use x="55.176" xlink:href="#HelveticaWorld-Regular-65"/><use x="110.596" xlink:href="#HelveticaWorld-Regular-6f"/><use x="164.754" xlink:href="#HelveticaWorld-Regular-76"/><use x="214.363" xlink:href="#HelveticaWorld-Regular-69"/><use x="236.385" xlink:href="#HelveticaWorld-Regular-6d"/><use x="319.393" xlink:href="#HelveticaWorld-Regular-2f"/><use x="347.176" xlink:href="#HelveticaWorld-Regular-6e"/><use x="402.352" xlink:href="#HelveticaWorld-Regular-65"/><use x="457.771" xlink:href="#HelveticaWorld-Regular-6f"/><use x="511.93" xlink:href="#HelveticaWorld-Regular-76"/><use x="561.539" xlink:href="#HelveticaWorld-Regular-69"/><use x="583.561" xlink:href="#HelveticaWorld-Regular-6d"/></g><g style="fill:#d62728" transform="matrix(.14 0 0 -.14 421.603 262.48)" id="text_18"><use xlink:href="#HelveticaWorld-Regular-76"/><use x="49.609" xlink:href="#HelveticaWorld-Regular-69"/><use x="71.631" xlink:href="#HelveticaWorld-Regular-6d"/><use x="154.639" xlink:href="#HelveticaWorld-Regular-2f"/><use x="182.422" xlink:href="#HelveticaWorld-Regular-76"/><use x="232.031" xlink:href="#HelveticaWorld-Regular-69"/><use x="254.053" xlink:href="#HelveticaWorld-Regular-6d"/></g><g style="fill:#9467bd" transform="matrix(.14 0 0 -.14 421.603 279.512)" id="text_19"><defs><path d="M959 1516q0-538 262-832 263-293 654-293 428 0 665 348 238 349 238 945 0 654-228 954t-687 300q-447 0-676-352-228-352-228-1070zM422 3347h531v-472h13q359 569 1000 569 647 0 1020-471 373-470 373-1201 0-819-381-1344T1888-97q-582 0-891 450h-13v-1678H422v4672z" id="HelveticaWorld-Regular-70" transform="scale(.01563)"/><path d="M1850 1484H281v575h1569v-575z" id="HelveticaWorld-Regular-2d" transform="scale(.01563)"/><path d="M984 0H422v4594h562V0z" id="HelveticaWorld-Regular-6c" transform="scale(.01563)"/><path d="M391 3347h562V1125q0-369 167-552 168-182 480-182 434 0 678 307 244 308 244 805v1844h562V0h-531v488l-12 12Q2222-97 1478-97q-481 0-784 262-303 263-303 776v2406z" id="HelveticaWorld-Regular-75" transform="scale(.01563)"/></defs><use xlink:href="#HelveticaWorld-Regular-6e"/><use x="55.176" xlink:href="#HelveticaWorld-Regular-6f"/><use x="111.084" xlink:href="#HelveticaWorld-Regular-74"/><use x="138.77" xlink:href="#HelveticaWorld-Regular-65"/><use x="194.189" xlink:href="#HelveticaWorld-Regular-70"/><use x="250.684" xlink:href="#HelveticaWorld-Regular-61"/><use x="305.615" xlink:href="#HelveticaWorld-Regular-64"/><use x="362.598" xlink:href="#HelveticaWorld-Regular-2d"/><use x="395.898" xlink:href="#HelveticaWorld-Regular-70"/><use x="452.393" xlink:href="#HelveticaWorld-Regular-6c"/><use x="474.414" xlink:href="#HelveticaWorld-Regular-75"/><use x="529.199" xlink:href="#HelveticaWorld-Regular-73"/><use x="579.199" xlink:href="#HelveticaWorld-Regular-2d"/><use x="612.5" xlink:href="#HelveticaWorld-Regular-70"/><use x="668.994" xlink:href="#HelveticaWorld-Regular-6c"/><use x="691.016" xlink:href="#HelveticaWorld-Regular-75"/><use x="745.801" xlink:href="#HelveticaWorld-Regular-73"/><use x="795.801" xlink:href="#HelveticaWorld-Regular-2f"/><use x="823.584" xlink:href="#HelveticaWorld-Regular-6e"/><use x="878.76" xlink:href="#HelveticaWorld-Regular-6f"/><use x="934.668" xlink:href="#HelveticaWorld-Regular-74"/><use x="962.354" xlink:href="#HelveticaWorld-Regular-65"/><use x="1017.773" xlink:href="#HelveticaWorld-Regular-70"/><use x="1074.268" xlink:href="#HelveticaWorld-Regular-61"/><use x="1129.199" xlink:href="#HelveticaWorld-Regular-64"/><use x="1186.182" xlink:href="#HelveticaWorld-Regular-2d"/><use x="1219.482" xlink:href="#HelveticaWorld-Regular-70"/><use x="1275.977" xlink:href="#HelveticaWorld-Regular-6c"/><use x="1297.998" xlink:href="#HelveticaWorld-Regular-75"/><use x="1352.783" xlink:href="#HelveticaWorld-Regular-73"/><use x="1402.783" xlink:href="#HelveticaWorld-Regular-2d"/><use x="1436.084" xlink:href="#HelveticaWorld-Regular-70"/><use x="1492.578" xlink:href="#HelveticaWorld-Regular-6c"/><use x="1514.6" xlink:href="#HelveticaWorld-Regular-75"/><use x="1569.385" xlink:href="#HelveticaWorld-Regular-73"/></g><g style="fill:#8c564b" transform="matrix(.14 0 0 -.14 421.603 293.378)" id="text_20"><defs><path d="M3413 4594h696L2425 0h-653L97 4594h691L2100 678h13l1300 3916z" id="HelveticaWorld-Regular-56" transform="scale(.01563)"/><path d="M3225 3250q-19 438-327 686-307 248-810 248-507 0-779-208-271-207-271-598 0-209 118-359 119-150 425-222l1313-300q531-116 787-440 257-323 257-788 0-681-500-1036T2138-122q-610 0-962 156-351 157-623 497-272 341-272 953h582q0-512 340-794 341-281 928-281 569 0 886 202t317 573q0 338-189 505t-739 295l-990 232q-494 112-738 392t-244 689q0 619 417 1019 418 400 1165 400 843 0 1301-352 458-351 492-1114h-584z" id="HelveticaWorld-Regular-53" transform="scale(.01563)"/><path d="M3713 3213q-104 468-434 710-329 243-854 243-678 0-1091-493-412-492-412-1329 0-969 390-1443 391-473 1132-473 487 0 838 323 352 324 474 940h603q-121-885-671-1349T2350-122q-941 0-1505 647T281 2322q0 1109 589 1751 589 643 1555 643 800 0 1297-413 497-412 591-1090h-600z" id="HelveticaWorld-Regular-43" transform="scale(.01563)"/></defs><use xlink:href="#HelveticaWorld-Regular-56"/><use x="62.326" xlink:href="#HelveticaWorld-Regular-53"/><use x="128.537" xlink:href="#HelveticaWorld-Regular-43"/><use x="200.852" xlink:href="#HelveticaWorld-Regular-6f"/><use x="256.76" xlink:href="#HelveticaWorld-Regular-64"/><use x="313.742" xlink:href="#HelveticaWorld-Regular-69"/><use x="335.764" xlink:href="#HelveticaWorld-Regular-75"/><use x="390.549" xlink:href="#HelveticaWorld-Regular-6d"/><use x="473.557" xlink:href="#HelveticaWorld-Regular-2f"/><use x="501.34" xlink:href="#HelveticaWorld-Regular-76"/><use x="549.949" xlink:href="#HelveticaWorld-Regular-73"/><use x="599.949" xlink:href="#HelveticaWorld-Regular-63"/><use x="651.219" xlink:href="#HelveticaWorld-Regular-6f"/><use x="707.127" xlink:href="#HelveticaWorld-Regular-64"/><use x="764.109" xlink:href="#HelveticaWorld-Regular-69"/><use x="786.131" xlink:href="#HelveticaWorld-Regular-75"/><use x="840.916" xlink:href="#HelveticaWorld-Regular-6d"/></g><g style="fill:#969696" transform="matrix(.09716 0 0 -.09716 60.912 347.134)" id="text_21"><defs><path d="M2463 2456h2018V0h-403l-150 594q-294-375-691-546-396-170-824-170-691 0-1155 301-464 302-721 833-256 532-256 1326 0 990 589 1684t1586 694q744 0 1300-416 557-416 647-1100h-600q-109 453-462 709-353 257-916 257-678 0-1091-511-412-511-412-1352 0-978 409-1436 410-458 1119-458 463 0 783 183t492 497q172 314 172 836H2463v531z" id="HelveticaWorld-Regular-47" transform="scale(.01563)"/><path d="M4153 0h-622v2144H1131V0H519v4594h612V2694h2400v1900h622V0z" id="HelveticaWorld-Regular-48" transform="scale(.01563)"/><path d="M2778 1684q0 672-238 963-237 291-677 291-447-7-676-349-228-342-228-989 0-659 275-934t641-275q416 0 659 342 244 342 244 951zM422 0v4594h562V2925h13q359 519 969 519 625 0 1009-464t384-1208q0-838-388-1354Q2584-97 1888-97q-613 0-922 513h-13V0H422z" id="HelveticaWorld-Regular-62" transform="scale(.01563)"/><path d="m2816 1888-678 2021h-13l-737-2021h1428zm-1619-550L716 0H78l1728 4594h703L4172 0h-678l-453 1338H1197z" id="HelveticaWorld-Regular-41" transform="scale(.01563)"/><path d="M1141 2472h1234q466 0 700 204 234 205 234 621 0 372-225 569t-684 197H1141V2472zm0-2472H519v4594h2065q616 0 991-358t375-933q0-597-363-980-362-382-1003-382H1141V0z" id="HelveticaWorld-Regular-50" transform="scale(.01563)"/><path d="M1141 0H519v4594h622V0z" id="HelveticaWorld-Regular-49" transform="scale(.01563)"/><path d="M831 1684q0-615 244-954t659-339q404 0 660 293 256 294 256 832 0 706-224 1064-223 358-679 358-459 0-688-305-228-305-228-949zM3188 191q0-807-388-1203-387-397-1169-397-562 0-895 259T353-409h563q43-244 226-388t530-144q472 0 712 254 241 253 241 821v238h-12Q2297-97 1722-97q-716 0-1094 528T250 1772q0 744 381 1208 382 464 1013 464 634 0 1000-569h12v472h532V191z" id="HelveticaWorld-Regular-67" transform="scale(.01563)"/><path d="M3150 0h-566v2188q0 403-156 576-156 174-509 174-435 0-685-282-250-281-250-831V0H422v4594h562V2900h13q384 544 981 544 550 0 861-288 311-287 311-878V0z" id="HelveticaWorld-Regular-68" transform="scale(.01563)"/><path d="M603 4716h466V-122H603v4838z" id="HelveticaWorld-Regular-7c" transform="scale(.01563)"/><path d="M3559 4594h600V0h-690L1125 3713h-12V0H519v4594h728L3547 884h12v3710z" id="HelveticaWorld-Regular-4e" transform="scale(.01563)"/><path d="M813 1678q0-559 253-920t718-361q482 0 732 378t250 903q0 531-250 901-250 371-732 371-446 0-709-349-262-348-262-923zm-575 0q0 747 415 1256 416 510 1131 510 732 0 1144-516 413-515 413-1250 0-737-410-1256Q2522-97 1784-97q-709 0-1128 503-418 503-418 1272zm2351 2266h-575v650h575v-650zm-1038 0H976v650h575v-650z" id="HelveticaWorld-Regular-f6" transform="scale(.01563)"/><path d="M519 4594h2015q594 0 947-322t353-834q0-310-155-565-154-254-460-395 428-162 629-431 202-269 202-691 0-593-428-975Q3194 0 2491 0H519v4594zm612-4063h1325q488 0 731 226 244 227 244 612 0 390-272 582-271 193-803 193H1131V531zm0 2119h1128q494 0 724 179 230 180 230 562 0 328-218 500-217 172-729 172H1131V2650z" id="HelveticaWorld-Regular-42" transform="scale(.01563)"/><path d="M2388 0h-622v1850L31 4594h725l1319-2206 1316 2206h731L2388 1850V0z" id="HelveticaWorld-Regular-59" transform="scale(.01563)"/></defs><use xlink:href="#HelveticaWorld-Regular-47"/><use x="77.1" xlink:href="#HelveticaWorld-Regular-69"/><use x="99.121" xlink:href="#HelveticaWorld-Regular-74"/><use x="126.807" xlink:href="#HelveticaWorld-Regular-48"/><use x="199.805" xlink:href="#HelveticaWorld-Regular-75"/><use x="254.59" xlink:href="#HelveticaWorld-Regular-62"/><use x="311.084" xlink:href="#HelveticaWorld-Regular-20"/><use x="335.498" xlink:href="#HelveticaWorld-Regular-41"/><use x="402.197" xlink:href="#HelveticaWorld-Regular-50"/><use x="466.846" xlink:href="#HelveticaWorld-Regular-49"/><use x="492.627" xlink:href="#HelveticaWorld-Regular-20"/><use x="517.041" xlink:href="#HelveticaWorld-Regular-76"/><use x="566.65" xlink:href="#HelveticaWorld-Regular-69"/><use x="588.672" xlink:href="#HelveticaWorld-Regular-61"/><use x="643.604" xlink:href="#HelveticaWorld-Regular-20"/><use x="668.018" xlink:href="#HelveticaWorld-Regular-73"/><use x="718.018" xlink:href="#HelveticaWorld-Regular-74"/><use x="745.703" xlink:href="#HelveticaWorld-Regular-61"/><use x="800.635" xlink:href="#HelveticaWorld-Regular-72"/><use x="832.203" xlink:href="#HelveticaWorld-Regular-67"/><use x="888.111" xlink:href="#HelveticaWorld-Regular-72"/><use x="919.68" xlink:href="#HelveticaWorld-Regular-61"/><use x="974.611" xlink:href="#HelveticaWorld-Regular-70"/><use x="1031.105" xlink:href="#HelveticaWorld-Regular-68"/><use x="1086.281" xlink:href="#HelveticaWorld-Regular-20"/><use x="1110.695" xlink:href="#HelveticaWorld-Regular-7c"/><use x="1136.672" xlink:href="#HelveticaWorld-Regular-20"/><use x="1161.086" xlink:href="#HelveticaWorld-Regular-4e"/><use x="1234.182" xlink:href="#HelveticaWorld-Regular-69"/><use x="1256.203" xlink:href="#HelveticaWorld-Regular-63"/><use x="1307.473" xlink:href="#HelveticaWorld-Regular-6f"/><use x="1363.381" xlink:href="#HelveticaWorld-Regular-20"/><use x="1387.795" xlink:href="#HelveticaWorld-Regular-53"/><use x="1454.006" xlink:href="#HelveticaWorld-Regular-63"/><use x="1505.275" xlink:href="#HelveticaWorld-Regular-68"/><use x="1560.451" xlink:href="#HelveticaWorld-Regular-6c"/><use x="1582.473" xlink:href="#HelveticaWorld-Regular-f6"/><use x="1638.381" xlink:href="#HelveticaWorld-Regular-6d"/><use x="1721.389" xlink:href="#HelveticaWorld-Regular-65"/><use x="1776.809" xlink:href="#HelveticaWorld-Regular-72"/><use x="1809.377" xlink:href="#HelveticaWorld-Regular-20"/><use x="1833.791" xlink:href="#HelveticaWorld-Regular-7c"/><use x="1859.768" xlink:href="#HelveticaWorld-Regular-20"/><use x="1884.182" xlink:href="#HelveticaWorld-Regular-43"/><use x="1956.496" xlink:href="#HelveticaWorld-Regular-43"/><use x="2028.811" xlink:href="#HelveticaWorld-Regular-20"/><use x="2053.225" xlink:href="#HelveticaWorld-Regular-42"/><use x="2116.037" xlink:href="#HelveticaWorld-Regular-59"/></g><g style="fill:#969696" transform="matrix(.14 0 0 -.14 166.777 17.25)" id="text_22"><use xlink:href="#HelveticaWorld-Regular-4e"/><use x="73.096" xlink:href="#HelveticaWorld-Regular-75"/><use x="127.881" xlink:href="#HelveticaWorld-Regular-6d"/><use x="210.889" xlink:href="#HelveticaWorld-Regular-62"/><use x="267.383" xlink:href="#HelveticaWorld-Regular-65"/><use x="322.803" xlink:href="#HelveticaWorld-Regular-72"/><use x="355.371" xlink:href="#HelveticaWorld-Regular-20"/><use x="379.785" xlink:href="#HelveticaWorld-Regular-6f"/><use x="435.693" xlink:href="#HelveticaWorld-Regular-66"/><use x="463.379" xlink:href="#HelveticaWorld-Regular-20"/><use x="487.793" xlink:href="#HelveticaWorld-Regular-47"/><use x="564.893" xlink:href="#HelveticaWorld-Regular-69"/><use x="586.914" xlink:href="#HelveticaWorld-Regular-74"/><use x="614.6" xlink:href="#HelveticaWorld-Regular-48"/><use x="687.598" xlink:href="#HelveticaWorld-Regular-75"/><use x="742.383" xlink:href="#HelveticaWorld-Regular-62"/><use x="798.877" xlink:href="#HelveticaWorld-Regular-20"/><use x="823.291" xlink:href="#HelveticaWorld-Regular-73"/><use x="873.291" xlink:href="#HelveticaWorld-Regular-74"/><use x="900.977" xlink:href="#HelveticaWorld-Regular-61"/><use x="955.908" xlink:href="#HelveticaWorld-Regular-72"/><use x="988.477" xlink:href="#HelveticaWorld-Regular-73"/></g><path clip-path="url(#p754814116e)" d="m139.92 313.361.85-10.228 2.046-2.558 1.89-1.279 2.87-1.279 6.983-2.558 5.969-1.278 1.132-.64 5.093-1.279 3.611-1.279 2.316-.318 1.292-.321 1.109-.64 4.115-1.278 8.064-2.558 2.565-.64 1.757-.639 11.505-3.197 2.358-1.28 4.596-1.278 6.91-1.918 1.546-.64 2.367-.64 1.266-.639 7.996-1.918 5.451-1.277 2.197-.639 5.82-1.279 5.278-1.279 5.084-1.279 2.34-.639 2.808-.64 3.109-1.278 8.701-1.919 2.133-.64 2.8-.639 4.413-1.278 1.268-.64 2.176-.64 5.62-1.278 4.54-1.279 1.858-.64 2.7-.639 6.417-1.918 14.708-3.837 5.068-1.279 2.118-.64 2.578-.639 3.685-1.278 3.366-1.28 8.279-2.557 3.563-1.279 2.791-1.279 11.567-3.836 3.972-1.28 6.576-2.557 2.537-.646 4.912-1.941 2.803-.852 2.258-.852 2.594-.752 1.742-.755 2.087-.599 4.91-2.137h1.38l4.596-2.951 3.233-1.358 4.65-2.892 3.62-1.697 3.383-2.079h0" style="fill:none;stroke:#2ca02c;stroke-linecap:square;stroke-width:1.5" id="line2d_23"/><path clip-path="url(#p754814116e)" d="m60.912 313.361 45.598-.002 2.152-.002 31.872-.002.212-.003 3.816-.002 3.01-.002V313.185l.001-.176.002-.353.008-.705.028-1.412.084-2.824 2.565-5.649 2.955-1.412 2.432-1.412 2.078-.705 1.71-.707 1.806-.705 2.068-.708 1.366-1.412 2.505-1.412 1.671-.705 1.787-.707 1.876-.705 1.855-.707 2.07-1.412 2.543-1.413 2.554-1.412 2.453-1.412 1.95-1.412 2.251-1.412 2.529-2.825 2.393-2.824 2.64-1.412 3.005-1.413 2.765-1.412 2.592-1.412 2.307-1.412 1.383-1.412 2.878-1.412 2.104-1.413 2.166-1.412 2.652-1.412 2.03-1.412 2.154-1.412 2.556-1.413 2.34-1.412 2.874-1.412 2.843-1.412 2.416-1.412 2.739-1.412 2.346-1.413 2.411-1.412 2.568-1.412 2.904-1.412 2.302-1.412 2.577-1.413 2.286-1.412 2.74-1.412 2.958-1.412 2.438-1.412 2.751-1.412 2.73-1.413 2.378-1.412 2.307-1.412 2.046-1.412 2.257-1.412 2.574-1.413 2.393-1.412 1.51-.705 1.766-.707 1.644-.705 1.534-.707h4.572l79.563-26.466 7.45-1.364 5.061-1.047 4.347-.833 6.093-1.232 3.533-.657 3.333-.531 3.234-.594 4.65-.861 3.62-.66 3.383-1.094" style="fill:none;stroke:#ff7f0e;stroke-linecap:square;stroke-width:1.5" id="line2d_24"/><path clip-path="url(#p754814116e)" d="m198.604 313.361 6.538-.002.277-.002.249-.005v-.696l.004-.705.008-1.412.03-2.824.102-5.649 1.398-5.649 1.768-1.412 2.46-1.412 2.373-1.412 2.677-1.412 2.05-1.412 2.225-1.413 1.633-2.824 2.007-1.412 2.292-1.412 2.682-1.413 2.464-1.412 2.82-1.412 2.33-1.412 2.258-1.412 1.888-1.413 2.057-1.412 1.827-1.412 1.932-1.412 2.396-1.412 2.09-1.412 1.13-1.413 2.537-2.824 2.588-2.824 2.22-2.825 2.65-2.824 2.763-2.824 1.915-1.413 1.292-1.412 2.868-2.824 2.58-2.825 2.33-2.824 1.706-2.824 1.588-2.825 1.452-2.824 1.74-2.824 2.089-2.825 2.53-2.824h.932l84.762-124.259 7.45-9.19 5.061-6.16 4.347-5.046 6.093-6.535 3.533-4.121 3.334-3.412 3.233-4.835 4.65-5.405 3.62-3.554 3.383-3.218" style="fill:none;stroke:#1f77b4;stroke-linecap:square;stroke-width:1.5" id="line2d_25"/></g></g><defs><clipPath id="p754814116e"><path d="M60.912 47.249h357.12v266.112H60.912z"/></clipPath></defs></svg>