<svg height="475.297" viewBox="0 0 566.082 356.473" width="754.776" xmlns="http://www.w3.org/2000/svg" xmlns:xlink="http://www.w3.org/1999/xlink"><defs><style>*{stroke-linecap:butt;stroke-linejoin:round}</style></defs><g id="figure_1"><path d="M0 356.473h566.082V0H0z" style="fill:none" id="patch_1"/><g id="axes_1"><path d="M60.912 313.361h357.12V47.25H60.912z" style="fill:none" id="patch_2"/><path clip-path="url(#pbad0dd4fdb)" d="m94.05 313.361 1.015-.214 30.163-.07 29.908-.13 17.396-.231 29.25-.647 7.631-.31 6.668-.37 7.545-.493 11.988-.862 1.744-.124 1.145-.248 6.622-.74 4.285-.494 3.035-.493 3.145-.493 11.497-1.232 10.884-1.48 11.477-1.48 8.384-.864 4.767-.37 1.44-.247 16.968-1.85 10.858-.554 37.518-1.296 25.55-.584 11.51-.135 11.556-.192h0" style="fill:none;stroke:#e377c2;stroke-linecap:square;stroke-width:1.5" id="line2d_1"/><g id="matplotlib.axis_1"><g id="xtick_1"><g id="line2d_2"><defs><path d="M0 0v3.5" id="m361e83e4e5" style="stroke:#969696;stroke-width:.4"/></defs><use style="fill:#969696;stroke:#969696;stroke-width:.4" x="73.564" xlink:href="#m361e83e4e5" y="313.361"/></g><g style="fill:#969696" transform="matrix(.14 0 0 -.14 57.994 330.41)" id="text_1"><defs><path d="M281 2888q0 793 409 1202 410 410 1148 410 618 0 1012-375t394-969q0-462-227-780-226-317-667-557l-775-425q-684-375-775-863h2444V0H166q25 634 275 1056t781 728l806 469q322 185 469 383t147 545q0 344-241 578-240 235-650 235-453 0-678-299-225-298-231-807H281z" id="HelveticaWorld-Regular-32" transform="scale(.01563)"/><path d="M2719 2188q0 903-239 1354-239 452-702 452-453 0-697-452-243-451-243-1354 0-875 240-1340 241-464 700-464 463 0 702 448 239 449 239 1356zm603 0q0-1107-400-1709-400-601-1144-601-772 0-1156 623-384 624-384 1687 0 1090 393 1701 394 611 1147 611 744 0 1144-608t400-1704z" id="HelveticaWorld-Regular-30" transform="scale(.01563)"/><path d="M2297 0h-600v3194H647v447q550 18 818 176 269 158 391 683h441V0z" id="HelveticaWorld-Regular-31" transform="scale(.01563)"/></defs><use xlink:href="#HelveticaWorld-Regular-32"/><use x="55.615" xlink:href="#HelveticaWorld-Regular-30"/><use x="111.23" xlink:href="#HelveticaWorld-Regular-31"/><use x="166.846" xlink:href="#HelveticaWorld-Regular-31"/></g></g><g id="xtick_2"><use style="fill:#969696;stroke:#969696;stroke-width:.4" x="107.374" xlink:href="#m361e83e4e5" y="313.361" id="line2d_3"/><g style="fill:#969696" transform="matrix(.14 0 0 -.14 91.803 330.41)" id="text_2"><use xlink:href="#HelveticaWorld-Regular-32"/><use x="55.615" xlink:href="#HelveticaWorld-Regular-30"/><use x="111.23" xlink:href="#HelveticaWorld-Regular-31"/><use x="166.846" xlink:href="#HelveticaWorld-Regular-32"/></g></g><g id="xtick_3"><use style="fill:#969696;stroke:#969696;stroke-width:.4" x="141.275" xlink:href="#m361e83e4e5" y="313.361" id="line2d_4"/><g style="fill:#969696" transform="matrix(.14 0 0 -.14 125.705 330.41)" id="text_3"><defs><path d="M1434 2559q141-12 294-12 397 0 626 183 230 183 230 554 0 300-214 505t-617 205q-447 0-655-263-207-262-220-703H325q0 703 369 1087 369 385 1084 385 635 0 1013-327 378-326 378-857 0-685-578-928v-13q750-256 750-1050 0-634-422-1041-422-406-1197-406-634 0-1044 333-409 333-459 1164h581q13-519 256-755 244-236 703-236 444 0 713 247t269 622q0 410-257 619-256 209-793 209-128 0-257-6v484z" id="HelveticaWorld-Regular-33" transform="scale(.01563)"/></defs><use xlink:href="#HelveticaWorld-Regular-32"/><use x="55.615" xlink:href="#HelveticaWorld-Regular-30"/><use x="111.23" xlink:href="#HelveticaWorld-Regular-31"/><use x="166.846" xlink:href="#HelveticaWorld-Regular-33"/></g></g><g id="xtick_4"><use style="fill:#969696;stroke:#969696;stroke-width:.4" x="175.085" xlink:href="#m361e83e4e5" y="313.361" id="line2d_5"/><g style="fill:#969696" transform="matrix(.14 0 0 -.14 159.514 330.41)" id="text_4"><defs><path d="M678 1581h1447v2041h-12L678 1581zm2010-487V0h-563v1094H159v550l2063 2856h466V1581h659v-487h-659z" id="HelveticaWorld-Regular-34" transform="scale(.01563)"/></defs><use xlink:href="#HelveticaWorld-Regular-32"/><use x="55.615" xlink:href="#HelveticaWorld-Regular-30"/><use x="111.23" xlink:href="#HelveticaWorld-Regular-31"/><use x="166.846" xlink:href="#HelveticaWorld-Regular-34"/></g></g><g id="xtick_5"><use style="fill:#969696;stroke:#969696;stroke-width:.4" x="208.894" xlink:href="#m361e83e4e5" y="313.361" id="line2d_6"/><g style="fill:#969696" transform="matrix(.14 0 0 -.14 193.323 330.41)" id="text_5"><defs><path d="M941 2619q372 281 872 281 606 0 1042-403t436-1038q0-690-421-1139-420-448-1179-448-660 0-1041 323-381 324-444 918h582q43-363 284-555t669-192q415 0 681 287 266 288 266 735 0 456-279 731-278 275-718 275-500 0-835-428l-484 25 337 2406h2332v-544H1131L941 2619z" id="HelveticaWorld-Regular-35" transform="scale(.01563)"/></defs><use xlink:href="#HelveticaWorld-Regular-32"/><use x="55.615" xlink:href="#HelveticaWorld-Regular-30"/><use x="111.23" xlink:href="#HelveticaWorld-Regular-31"/><use x="166.846" xlink:href="#HelveticaWorld-Regular-35"/></g></g><g id="xtick_6"><use style="fill:#969696;stroke:#969696;stroke-width:.4" x="242.703" xlink:href="#m361e83e4e5" y="313.361" id="line2d_7"/><g style="fill:#969696" transform="matrix(.14 0 0 -.14 227.133 330.41)" id="text_6"><defs><path d="M903 1381q0-440 262-719 263-278 685-278 403 0 642 284 239 285 239 748 0 403-236 675t-670 272q-422 0-672-266t-250-716zm1766 1922q-63 344-255 517-192 174-520 174-519 0-791-507-272-506-278-1159l13-12q359 553 1068 553 566 0 988-375t422-1053q0-672-400-1118-400-445-1078-445-782 0-1188 556-406 557-406 1660 0 1062 415 1734 416 672 1247 672 538 0 910-321 372-320 403-876h-550z" id="HelveticaWorld-Regular-36" transform="scale(.01563)"/></defs><use xlink:href="#HelveticaWorld-Regular-32"/><use x="55.615" xlink:href="#HelveticaWorld-Regular-30"/><use x="111.23" xlink:href="#HelveticaWorld-Regular-31"/><use x="166.846" xlink:href="#HelveticaWorld-Regular-36"/></g></g><g id="xtick_7"><use style="fill:#969696;stroke:#969696;stroke-width:.4" x="276.605" xlink:href="#m361e83e4e5" y="313.361" id="line2d_8"/><g style="fill:#969696" transform="matrix(.14 0 0 -.14 261.034 330.41)" id="text_7"><defs><path d="M238 4403h3109v-494q-641-653-1172-1766Q1644 1031 1497 0H878q94 850 622 1954 528 1105 1213 1899H238v550z" id="HelveticaWorld-Regular-37" transform="scale(.01563)"/></defs><use xlink:href="#HelveticaWorld-Regular-32"/><use x="55.615" xlink:href="#HelveticaWorld-Regular-30"/><use x="111.23" xlink:href="#HelveticaWorld-Regular-31"/><use x="166.846" xlink:href="#HelveticaWorld-Regular-37"/></g></g><g id="xtick_8"><use style="fill:#969696;stroke:#969696;stroke-width:.4" x="310.414" xlink:href="#m361e83e4e5" y="313.361" id="line2d_9"/><g style="fill:#969696" transform="matrix(.14 0 0 -.14 294.844 330.41)" id="text_8"><defs><path d="M1766 2597q347 0 573 198 227 199 227 527 0 294-218 483-217 189-620 189-359 0-555-199-195-198-195-504 0-328 244-511t544-183zm6-484q-434 0-681-241t-247-591q0-403 250-650t712-247q410 0 655 247t245 657q0 350-245 587-245 238-689 238zm1378 1228q0-678-578-947 397-178 567-471 170-292 170-623 0-641-413-1032-412-390-1112-390-612 0-1076 336T244 1306q0 763 762 1082-609 243-609 875 0 531 361 884t1001 353q641 0 1016-333t375-826z" id="HelveticaWorld-Regular-38" transform="scale(.01563)"/></defs><use xlink:href="#HelveticaWorld-Regular-32"/><use x="55.615" xlink:href="#HelveticaWorld-Regular-30"/><use x="111.23" xlink:href="#HelveticaWorld-Regular-31"/><use x="166.846" xlink:href="#HelveticaWorld-Regular-38"/></g></g><g id="xtick_9"><use style="fill:#969696;stroke:#969696;stroke-width:.4" x="344.223" xlink:href="#m361e83e4e5" y="313.361" id="line2d_10"/><g style="fill:#969696" transform="matrix(.14 0 0 -.14 328.653 330.41)" id="text_9"><defs><path d="M1766 2009q384 0 624 259 241 260 241 766 0 416-228 688t-681 272q-391 0-632-275-240-275-240-738 0-472 225-722t691-250zm-82-506q-640 0-1028 397-387 397-387 1056 0 666 390 1105 391 439 1057 439 775 0 1175-522t400-1565q0-1082-410-1809-409-726-1225-726-637 0-987 358t-350 845h565q25-337 220-536 196-198 540-198 487 0 737 434 250 435 344 1247l-12 13q-363-538-1029-538z" id="HelveticaWorld-Regular-39" transform="scale(.01563)"/></defs><use xlink:href="#HelveticaWorld-Regular-32"/><use x="55.615" xlink:href="#HelveticaWorld-Regular-30"/><use x="111.23" xlink:href="#HelveticaWorld-Regular-31"/><use x="166.846" xlink:href="#HelveticaWorld-Regular-39"/></g></g><g id="xtick_10"><use style="fill:#969696;stroke:#969696;stroke-width:.4" x="378.033" xlink:href="#m361e83e4e5" y="313.361" id="line2d_11"/><g style="fill:#969696" transform="matrix(.14 0 0 -.14 362.462 330.41)" id="text_10"><use xlink:href="#HelveticaWorld-Regular-32"/><use x="55.615" xlink:href="#HelveticaWorld-Regular-30"/><use x="111.23" xlink:href="#HelveticaWorld-Regular-32"/><use x="166.846" xlink:href="#HelveticaWorld-Regular-30"/></g></g><g id="xtick_11"><use style="fill:#969696;stroke:#969696;stroke-width:.4" x="411.935" xlink:href="#m361e83e4e5" y="313.361" id="line2d_12"/><g style="fill:#969696" transform="matrix(.14 0 0 -.14 396.364 330.41)" id="text_11"><use xlink:href="#HelveticaWorld-Regular-32"/><use x="55.615" xlink:href="#HelveticaWorld-Regular-30"/><use x="111.23" xlink:href="#HelveticaWorld-Regular-32"/><use x="166.846" xlink:href="#HelveticaWorld-Regular-31"/></g></g></g><g id="matplotlib.axis_2"><g id="ytick_1"><path clip-path="url(#pbad0dd4fdb)" d="M60.912 278.758h357.12" style="fill:none;stroke:#969696;stroke-linecap:square;stroke-width:.3" id="line2d_13"/><g id="line2d_14"><defs><path d="M0 0h-3.5" id="m91e1e9b52d" style="stroke:#969696;stroke-width:.3"/></defs><use style="fill:#969696;stroke:#969696;stroke-width:.3" x="60.912" xlink:href="#m91e1e9b52d" y="278.758"/></g><g style="fill:#969696" transform="matrix(.14 0 0 -.14 14.985 283.783)" id="text_12"><use xlink:href="#HelveticaWorld-Regular-32"/><use x="55.615" xlink:href="#HelveticaWorld-Regular-30"/><use x="111.23" xlink:href="#HelveticaWorld-Regular-30"/><use x="166.846" xlink:href="#HelveticaWorld-Regular-30"/><use x="222.461" xlink:href="#HelveticaWorld-Regular-30"/></g></g><g id="ytick_2"><path clip-path="url(#pbad0dd4fdb)" d="M60.912 244.153h357.12" style="fill:none;stroke:#969696;stroke-linecap:square;stroke-width:.3" id="line2d_15"/><use style="fill:#969696;stroke:#969696;stroke-width:.3" x="60.912" xlink:href="#m91e1e9b52d" y="244.153" id="line2d_16"/><g style="fill:#969696" transform="matrix(.14 0 0 -.14 14.985 249.178)" id="text_13"><use xlink:href="#HelveticaWorld-Regular-34"/><use x="55.615" xlink:href="#HelveticaWorld-Regular-30"/><use x="111.23" xlink:href="#HelveticaWorld-Regular-30"/><use x="166.846" xlink:href="#HelveticaWorld-Regular-30"/><use x="222.461" xlink:href="#HelveticaWorld-Regular-30"/></g></g><g id="ytick_3"><path clip-path="url(#pbad0dd4fdb)" d="M60.912 209.548h357.12" style="fill:none;stroke:#969696;stroke-linecap:square;stroke-width:.3" id="line2d_17"/><use style="fill:#969696;stroke:#969696;stroke-width:.3" x="60.912" xlink:href="#m91e1e9b52d" y="209.548" id="line2d_18"/><g style="fill:#969696" transform="matrix(.14 0 0 -.14 14.985 214.573)" id="text_14"><use xlink:href="#HelveticaWorld-Regular-36"/><use x="55.615" xlink:href="#HelveticaWorld-Regular-30"/><use x="111.23" xlink:href="#HelveticaWorld-Regular-30"/><use x="166.846" xlink:href="#HelveticaWorld-Regular-30"/><use x="222.461" xlink:href="#HelveticaWorld-Regular-30"/></g></g><g id="ytick_4"><path clip-path="url(#pbad0dd4fdb)" d="M60.912 174.943h357.12" style="fill:none;stroke:#969696;stroke-linecap:square;stroke-width:.3" id="line2d_19"/><use style="fill:#969696;stroke:#969696;stroke-width:.3" x="60.912" xlink:href="#m91e1e9b52d" y="174.943" id="line2d_20"/><g style="fill:#969696" transform="matrix(.14 0 0 -.14 14.985 179.968)" id="text_15"><use xlink:href="#HelveticaWorld-Regular-38"/><use x="55.615" xlink:href="#HelveticaWorld-Regular-30"/><use x="111.23" xlink:href="#HelveticaWorld-Regular-30"/><use x="166.846" xlink:href="#HelveticaWorld-Regular-30"/><use x="222.461" xlink:href="#HelveticaWorld-Regular-30"/></g></g><g id="ytick_5"><path clip-path="url(#pbad0dd4fdb)" d="M60.912 140.338h357.12" style="fill:none;stroke:#969696;stroke-linecap:square;stroke-width:.3" id="line2d_21"/><use style="fill:#969696;stroke:#969696;stroke-width:.3" x="60.912" xlink:href="#m91e1e9b52d" y="140.338" id="line2d_22"/><g style="fill:#969696" transform="matrix(.14 0 0 -.14 7.2 145.363)" id="text_16"><use xlink:href="#HelveticaWorld-Regular-31"/><use x="55.615" xlink:href="#HelveticaWorld-Regular-30"/><use x="111.23" xlink:href="#HelveticaWorld-Regular-30"/><use x="166.846" xlink:href="#HelveticaWorld-Regular-30"/><use x="222.461" xlink:href="#HelveticaWorld-Regular-30"/><use x="278.076" xlink:href="#HelveticaWorld-Regular-30"/></g></g><g id="ytick_6"><path clip-path="url(#pbad0dd4fdb)" d="M60.912 105.733h357.12" style="fill:none;stroke:#969696;stroke-linecap:square;stroke-width:.3" id="line2d_23"/><use style="fill:#969696;stroke:#969696;stroke-width:.3" x="60.912" xlink:href="#m91e1e9b52d" y="105.733" id="line2d_24"/><g style="fill:#969696" transform="matrix(.14 0 0 -.14 7.2 110.758)" id="text_17"><use xlink:href="#HelveticaWorld-Regular-31"/><use x="55.615" xlink:href="#HelveticaWorld-Regular-32"/><use x="111.23" xlink:href="#HelveticaWorld-Regular-30"/><use x="166.846" xlink:href="#HelveticaWorld-Regular-30"/><use x="222.461" xlink:href="#HelveticaWorld-Regular-30"/><use x="278.076" xlink:href="#HelveticaWorld-Regular-30"/></g></g><g id="ytick_7"><path clip-path="url(#pbad0dd4fdb)" d="M60.912 71.129h357.12" style="fill:none;stroke:#969696;stroke-linecap:square;stroke-width:.3" id="line2d_25"/><use style="fill:#969696;stroke:#969696;stroke-width:.3" x="60.912" xlink:href="#m91e1e9b52d" y="71.129" id="line2d_26"/><g style="fill:#969696" transform="matrix(.14 0 0 -.14 7.2 76.153)" id="text_18"><use xlink:href="#HelveticaWorld-Regular-31"/><use x="55.615" xlink:href="#HelveticaWorld-Regular-34"/><use x="111.23" xlink:href="#HelveticaWorld-Regular-30"/><use x="166.846" xlink:href="#HelveticaWorld-Regular-30"/><use x="222.461" xlink:href="#HelveticaWorld-Regular-30"/><use x="278.076" xlink:href="#HelveticaWorld-Regular-30"/></g></g></g><path clip-path="url(#pbad0dd4fdb)" d="m299.926 313.361.862-2.116.426-.53 2.224-.264 1.105-.265 1.758-.264 1.225-.265 1.096-.265 2.05-.265 2.47-.527 1.79-.53 2.118-.53 2.048-.529 1.988-.53 1.237-.529 2.41-1.058 1.518-.528 1.803-.53 1.667-.53 1.263-.529 2.498-1.058 2.39-1.06 2.035-2.117 1.98-1.06 2.332-1.058 2.513-1.057 2.028-1.06 2.29-1.058 2.768-1.059 1.458-.53 1.59-.529 1.486-.53 1.86-.529 1.668-.53 1.875-.529 1.594-.53 2.1-.529 1.616-.527 2.046-.53 1.95-.53 2.34-.529 1.773-.53 1.4-.264 1.58-.265 1.766-.264 1.9-.265 2.477-.53 1.817-.264 1.504-.265 1.755-.265 1.513-.264 1.513-.265 1.409-.265 1.894-.265 1.426-.264 2.707-.53.143-.53 1.268-.529 2.28-.53 2.199-.172.867-.173 2.405-.346 1.653-.203 1.504-.202 1.559-.139 1.426-.138 1.484-.133 1.375-.133" style="fill:none;stroke:#8c564b;stroke-linecap:square;stroke-width:1.5" id="line2d_27"/><path clip-path="url(#pbad0dd4fdb)" d="m172.667 313.361.498-.1 2.95-.076 6.67-.23 8.185-.409 5.473-.406 2.924-.409 8.705-1.221 8.436-1.63 7.83-1.63 1.44-.408 2.323-1.63 9.839-2.445 2.302-.815 2.929-.815 2.82-.815 1.873-.406 5.408-2.039 10.202-3.26 4.762-1.63 1.739-.814 2.243-.815 1.7-.815 8.19-3.262 8.61-3.26 2.04-.814 17.033-5.705 2.337-.815 10.93-3.26 16.116-3.666 7.575-1.63 2.574-.408 2.246-.815 5.514-1.222 9.128-1.63 8.364-1.223 4.89-.61 3.887-.41 5.124-.612 3.005-.154 3.633-.467 2.888-.188 1.647-.189 11.222-.794 1.214-.123 5.914-.322h0" style="fill:none;stroke:#9467bd;stroke-linecap:square;stroke-width:1.5" id="line2d_28"/><g style="fill:#1f77b4" transform="matrix(.14 0 0 -.14 421.603 50.825)" id="text_19"><defs><path d="M1100 2881V703q0-128 70-195 71-67 252-67h216V0q-307-44-422-44-353 0-516 169-162 169-162 547v2209H84v466h454v934h562v-934h538v-466h-538z" id="HelveticaWorld-Regular-74" transform="scale(.01563)"/><path d="M2719 1941q-44 543-288 770-243 227-647 227-409 0-661-288-251-287-267-709h1863zm537-891q-93-519-509-859-366-288-963-294-703 6-1116 461-412 455-412 1223 0 882 425 1372 425 491 1182 491 678 0 1059-507 381-506 381-1446H856q0-525 244-813 244-287 731-287 344 0 591 207 247 208 272 452h562z" id="HelveticaWorld-Regular-65" transform="scale(.01563)"/><path d="M3150 0h-566v2059q0 475-166 677-165 202-549 202-378 0-632-288-253-287-253-825V0H422v3347h531v-472h13q397 569 1012 569 569 0 870-302 302-301 302-864V0z" id="HelveticaWorld-Regular-6e" transform="scale(.01563)"/><path d="M2309 2394q-12 300-214 431-201 131-579 131-275 0-471-122-195-121-195-350 0-181 115-267 116-86 501-183l556-140q506-128 723-327 218-198 218-554 0-494-361-802T1638-97Q934-97 573 195q-360 293-367 880h544q13-347 230-516 217-168 651-168 353 0 561 140 208 141 208 391 0 178-135 284-134 107-531 197l-653 160q-397 100-586 298t-189 514q0 494 353 781 354 288 922 288 607 0 930-296 323-295 342-754h-544z" id="HelveticaWorld-Regular-73" transform="scale(.01563)"/><path d="M813 1678q0-559 253-920t718-361q482 0 732 378t250 903q0 531-250 901-250 371-732 371-446 0-709-349-262-348-262-923zm-575 0q0 747 415 1256 416 510 1131 510 732 0 1144-516 413-515 413-1250 0-737-410-1256Q2522-97 1784-97q-709 0-1128 503-418 503-418 1272z" id="HelveticaWorld-Regular-6f" transform="scale(.01563)"/><path d="M984 0H422v3347h531v-556h13q365 653 940 653 91 0 147-19v-584h-209q-378 0-619-257-241-256-241-637V0z" id="HelveticaWorld-Regular-72" transform="scale(.01563)"/><path d="M1100 2881V0H538v2881H78v466h460v575q0 378 229 557 230 180 642 180 141 0 254-12v-506q-100 12-229 12-187 0-261-92-73-92-73-298v-416h563v-466h-563z" id="HelveticaWorld-Regular-66" transform="scale(.01563)"/><path d="M984 0H422v4594h562V0z" id="HelveticaWorld-Regular-6c" transform="scale(.01563)"/><path d="M1638 0h-575L97 3347h606l641-2631h12l647 2631h635l653-2631h12l678 2631h557L3572 0h-591l-678 2591h-12L1638 0z" id="HelveticaWorld-Regular-77" transform="scale(.01563)"/><path d="M319-122h-428l1575 4838h422L319-122z" id="HelveticaWorld-Regular-2f" transform="scale(.01563)"/></defs><use xlink:href="#HelveticaWorld-Regular-74"/><use x="27.686" xlink:href="#HelveticaWorld-Regular-65"/><use x="83.105" xlink:href="#HelveticaWorld-Regular-6e"/><use x="138.281" xlink:href="#HelveticaWorld-Regular-73"/><use x="188.281" xlink:href="#HelveticaWorld-Regular-6f"/><use x="244.189" xlink:href="#HelveticaWorld-Regular-72"/><use x="278.258" xlink:href="#HelveticaWorld-Regular-66"/><use x="305.943" xlink:href="#HelveticaWorld-Regular-6c"/><use x="327.965" xlink:href="#HelveticaWorld-Regular-6f"/><use x="382.373" xlink:href="#HelveticaWorld-Regular-77"/><use x="454.785" xlink:href="#HelveticaWorld-Regular-2f"/><use x="482.568" xlink:href="#HelveticaWorld-Regular-74"/><use x="510.254" xlink:href="#HelveticaWorld-Regular-65"/><use x="565.674" xlink:href="#HelveticaWorld-Regular-6e"/><use x="620.85" xlink:href="#HelveticaWorld-Regular-73"/><use x="670.85" xlink:href="#HelveticaWorld-Regular-6f"/><use x="726.758" xlink:href="#HelveticaWorld-Regular-72"/><use x="760.826" xlink:href="#HelveticaWorld-Regular-66"/><use x="788.512" xlink:href="#HelveticaWorld-Regular-6c"/><use x="810.533" xlink:href="#HelveticaWorld-Regular-6f"/><use x="864.941" xlink:href="#HelveticaWorld-Regular-77"/></g><g style="fill:#ff7f0e" transform="matrix(.14 0 0 -.14 421.603 220.785)" id="text_20"><defs><path d="M3200 0h-722L1434 1691l-468-422V0H422v4594h544V1931l1440 1416h716L1844 2100 3200 0z" id="HelveticaWorld-Regular-6b" transform="scale(.01563)"/><path d="M2456 1709q-62-65-245-106-183-40-683-106-369-44-542-182-173-137-173-362 0-275 146-428 147-153 469-153 403 0 715 229 313 230 313 558v550zM397 2328q19 566 367 841 349 275 1014 275 531 0 890-241 360-240 360-694V581q0-197 178-197 72 0 185 25V0q-153-63-319-63-288 0-429 123-140 124-146 387Q2016-97 1288-97q-475 0-763 269-287 269-287 700 0 441 250 712 250 272 728 329l993 121q269 41 269 397 0 263-195 403-195 141-592 141-353 0-543-156-189-156-226-491H397z" id="HelveticaWorld-Regular-61" transform="scale(.01563)"/><path d="M1850 1484H281v575h1569v-575z" id="HelveticaWorld-Regular-2d" transform="scale(.01563)"/><path d="M422 3347h531v-472h13q378 569 1012 569 628 0 891-544 240 294 465 419t557 125q434 0 735-285 302-284 302-843V0h-562v2163q0 390-147 582-147 193-475 193-331 0-560-269-228-269-228-628V0h-562v2316q0 290-135 456-134 166-390 166-403 0-644-300t-241-813V0H422v3347z" id="HelveticaWorld-Regular-6d" transform="scale(.01563)"/></defs><use xlink:href="#HelveticaWorld-Regular-6b"/><use x="47.625" xlink:href="#HelveticaWorld-Regular-65"/><use x="103.045" xlink:href="#HelveticaWorld-Regular-72"/><use x="134.613" xlink:href="#HelveticaWorld-Regular-61"/><use x="189.545" xlink:href="#HelveticaWorld-Regular-73"/><use x="239.545" xlink:href="#HelveticaWorld-Regular-2d"/><use x="272.846" xlink:href="#HelveticaWorld-Regular-74"/><use x="300.531" xlink:href="#HelveticaWorld-Regular-65"/><use x="355.951" xlink:href="#HelveticaWorld-Regular-61"/><use x="410.883" xlink:href="#HelveticaWorld-Regular-6d"/><use x="493.891" xlink:href="#HelveticaWorld-Regular-2f"/><use x="521.674" xlink:href="#HelveticaWorld-Regular-6b"/><use x="569.299" xlink:href="#HelveticaWorld-Regular-65"/><use x="624.719" xlink:href="#HelveticaWorld-Regular-72"/><use x="656.287" xlink:href="#HelveticaWorld-Regular-61"/><use x="711.219" xlink:href="#HelveticaWorld-Regular-73"/></g><g style="fill:#2ca02c" transform="matrix(.14 0 0 -.14 421.603 234.87)" id="text_21"><defs><path d="M959 1516q0-538 262-832 263-293 654-293 428 0 665 348 238 349 238 945 0 654-228 954t-687 300q-447 0-676-352-228-352-228-1070zM422 3347h531v-472h13q359 569 1000 569 647 0 1020-471 373-470 373-1201 0-819-381-1344T1888-97q-582 0-891 450h-13v-1678H422v4672z" id="HelveticaWorld-Regular-70" transform="scale(.01563)"/><path d="M2497 3347h612L1913 63q-32-88-63-166-272-725-469-995-197-271-637-271-231 0-378 50v513q159-57 350-57 206 0 301 130 96 130 283 636L56 3347h635l897-2725h12l897 2725z" id="HelveticaWorld-Regular-79" transform="scale(.01563)"/><path d="M2534 2222q-121 716-793 716-416 0-669-333t-253-927q0-647 234-967 235-320 681-320 300 0 519 220t281 573h544q-84-621-439-951T1722-97q-659 0-1081 451-422 452-422 1227 0 850 422 1356 422 507 1184 507 556 0 886-333t367-889h-544z" id="HelveticaWorld-Regular-63" transform="scale(.01563)"/><path d="M3150 0h-566v2188q0 403-156 576-156 174-509 174-435 0-685-282-250-281-250-831V0H422v4594h562V2900h13q384 544 981 544 550 0 861-288 311-287 311-878V0z" id="HelveticaWorld-Regular-68" transform="scale(.01563)"/></defs><use xlink:href="#HelveticaWorld-Regular-70"/><use x="54.494" xlink:href="#HelveticaWorld-Regular-79"/><use x="105.104" xlink:href="#HelveticaWorld-Regular-74"/><use x="132.789" xlink:href="#HelveticaWorld-Regular-6f"/><use x="188.697" xlink:href="#HelveticaWorld-Regular-72"/><use x="220.266" xlink:href="#HelveticaWorld-Regular-63"/><use x="271.535" xlink:href="#HelveticaWorld-Regular-68"/><use x="326.711" xlink:href="#HelveticaWorld-Regular-2f"/><use x="354.494" xlink:href="#HelveticaWorld-Regular-70"/><use x="408.988" xlink:href="#HelveticaWorld-Regular-79"/><use x="459.598" xlink:href="#HelveticaWorld-Regular-74"/><use x="487.283" xlink:href="#HelveticaWorld-Regular-6f"/><use x="543.191" xlink:href="#HelveticaWorld-Regular-72"/><use x="574.76" xlink:href="#HelveticaWorld-Regular-63"/><use x="626.029" xlink:href="#HelveticaWorld-Regular-68"/></g><g style="fill:#d62728" transform="matrix(.14 0 0 -.14 421.603 248.785)" id="text_22"><defs><path d="M422 3956v638h562v-638H422zM984 0H422v3347h562V0z" id="HelveticaWorld-Regular-69" transform="scale(.01563)"/></defs><use xlink:href="#HelveticaWorld-Regular-73"/><use x="50" xlink:href="#HelveticaWorld-Regular-63"/><use x="101.27" xlink:href="#HelveticaWorld-Regular-69"/><use x="123.291" xlink:href="#HelveticaWorld-Regular-6b"/><use x="173.291" xlink:href="#HelveticaWorld-Regular-69"/><use x="195.313" xlink:href="#HelveticaWorld-Regular-74"/><use x="222.998" xlink:href="#HelveticaWorld-Regular-2d"/><use x="256.299" xlink:href="#HelveticaWorld-Regular-6c"/><use x="278.32" xlink:href="#HelveticaWorld-Regular-65"/><use x="333.74" xlink:href="#HelveticaWorld-Regular-61"/><use x="388.672" xlink:href="#HelveticaWorld-Regular-72"/><use x="421.24" xlink:href="#HelveticaWorld-Regular-6e"/><use x="476.416" xlink:href="#HelveticaWorld-Regular-2f"/><use x="504.199" xlink:href="#HelveticaWorld-Regular-73"/><use x="554.199" xlink:href="#HelveticaWorld-Regular-63"/><use x="605.469" xlink:href="#HelveticaWorld-Regular-69"/><use x="627.49" xlink:href="#HelveticaWorld-Regular-6b"/><use x="677.49" xlink:href="#HelveticaWorld-Regular-69"/><use x="699.512" xlink:href="#HelveticaWorld-Regular-74"/><use x="727.197" xlink:href="#HelveticaWorld-Regular-2d"/><use x="760.498" xlink:href="#HelveticaWorld-Regular-6c"/><use x="782.52" xlink:href="#HelveticaWorld-Regular-65"/><use x="837.939" xlink:href="#HelveticaWorld-Regular-61"/><use x="892.871" xlink:href="#HelveticaWorld-Regular-72"/><use x="925.439" xlink:href="#HelveticaWorld-Regular-6e"/></g><g style="fill:#9467bd" transform="matrix(.14 0 0 -.14 421.603 262.785)" id="text_23"><defs><path d="M519 4594h2015q594 0 947-322t353-834q0-310-155-565-154-254-460-395 428-162 629-431 202-269 202-691 0-593-428-975Q3194 0 2491 0H519v4594zm612-4063h1325q488 0 731 226 244 227 244 612 0 390-272 582-271 193-803 193H1131V531zm0 2119h1128q494 0 724 179 230 180 230 562 0 328-218 500-217 172-729 172H1131V2650z" id="HelveticaWorld-Regular-42" transform="scale(.01563)"/><path d="M3413 4594h696L2425 0h-653L97 4594h691L2100 678h13l1300 3916z" id="HelveticaWorld-Regular-56" transform="scale(.01563)"/><path d="M1131 550h2338V0H519v4594h612V550z" id="HelveticaWorld-Regular-4c" transform="scale(.01563)"/><path d="M3713 3213q-104 468-434 710-329 243-854 243-678 0-1091-493-412-492-412-1329 0-969 390-1443 391-473 1132-473 487 0 838 323 352 324 474 940h603q-121-885-671-1349T2350-122q-941 0-1505 647T281 2322q0 1109 589 1751 589 643 1555 643 800 0 1297-413 497-412 591-1090h-600z" id="HelveticaWorld-Regular-43" transform="scale(.01563)"/></defs><use xlink:href="#HelveticaWorld-Regular-42"/><use x="62.813" xlink:href="#HelveticaWorld-Regular-56"/><use x="128.389" xlink:href="#HelveticaWorld-Regular-4c"/><use x="182.504" xlink:href="#HelveticaWorld-Regular-43"/><use x="254.818" xlink:href="#HelveticaWorld-Regular-2f"/><use x="282.602" xlink:href="#HelveticaWorld-Regular-63"/><use x="333.871" xlink:href="#HelveticaWorld-Regular-61"/><use x="388.803" xlink:href="#HelveticaWorld-Regular-66"/><use x="416.488" xlink:href="#HelveticaWorld-Regular-66"/><use x="442.174" xlink:href="#HelveticaWorld-Regular-65"/></g><g style="fill:#8c564b" transform="matrix(.14 0 0 -.14 421.603 281.42)" id="text_24"><use xlink:href="#HelveticaWorld-Regular-66"/><use x="25.686" xlink:href="#HelveticaWorld-Regular-61"/><use x="80.617" xlink:href="#HelveticaWorld-Regular-73"/><use x="130.617" xlink:href="#HelveticaWorld-Regular-74"/><use x="158.303" xlink:href="#HelveticaWorld-Regular-61"/><use x="213.234" xlink:href="#HelveticaWorld-Regular-69"/><use x="235.256" xlink:href="#HelveticaWorld-Regular-2f"/><use x="263.039" xlink:href="#HelveticaWorld-Regular-66"/><use x="288.725" xlink:href="#HelveticaWorld-Regular-61"/><use x="343.656" xlink:href="#HelveticaWorld-Regular-73"/><use x="393.656" xlink:href="#HelveticaWorld-Regular-74"/><use x="421.342" xlink:href="#HelveticaWorld-Regular-61"/><use x="476.273" xlink:href="#HelveticaWorld-Regular-69"/></g><g style="fill:#e377c2" transform="matrix(.14 0 0 -.14 421.603 300.733)" id="text_25"><defs><path d="M1625 4044H78v550h3731v-550H2247V0h-622v4044z" id="HelveticaWorld-Regular-54" transform="scale(.01563)"/></defs><use xlink:href="#HelveticaWorld-Regular-54"/><use x="60.742" xlink:href="#HelveticaWorld-Regular-68"/><use x="115.918" xlink:href="#HelveticaWorld-Regular-65"/><use x="171.338" xlink:href="#HelveticaWorld-Regular-61"/><use x="226.27" xlink:href="#HelveticaWorld-Regular-6e"/><use x="281.445" xlink:href="#HelveticaWorld-Regular-6f"/><use x="337.354" xlink:href="#HelveticaWorld-Regular-2f"/><use x="365.137" xlink:href="#HelveticaWorld-Regular-54"/><use x="425.879" xlink:href="#HelveticaWorld-Regular-68"/><use x="481.055" xlink:href="#HelveticaWorld-Regular-65"/><use x="536.475" xlink:href="#HelveticaWorld-Regular-61"/><use x="591.406" xlink:href="#HelveticaWorld-Regular-6e"/><use x="646.582" xlink:href="#HelveticaWorld-Regular-6f"/></g><g style="fill:#969696" transform="matrix(.09716 0 0 -.09716 60.912 347.134)" id="text_26"><defs><path d="M2463 2456h2018V0h-403l-150 594q-294-375-691-546-396-170-824-170-691 0-1155 301-464 302-721 833-256 532-256 1326 0 990 589 1684t1586 694q744 0 1300-416 557-416 647-1100h-600q-109 453-462 709-353 257-916 257-678 0-1091-511-412-511-412-1352 0-978 409-1436 410-458 1119-458 463 0 783 183t492 497q172 314 172 836H2463v531z" id="HelveticaWorld-Regular-47" transform="scale(.01563)"/><path d="M4153 0h-622v2144H1131V0H519v4594h612V2694h2400v1900h622V0z" id="HelveticaWorld-Regular-48" transform="scale(.01563)"/><path d="M391 3347h562V1125q0-369 167-552 168-182 480-182 434 0 678 307 244 308 244 805v1844h562V0h-531v488l-12 12Q2222-97 1478-97q-481 0-784 262-303 263-303 776v2406z" id="HelveticaWorld-Regular-75" transform="scale(.01563)"/><path d="M2778 1684q0 672-238 963-237 291-677 291-447-7-676-349-228-342-228-989 0-659 275-934t641-275q416 0 659 342 244 342 244 951zM422 0v4594h562V2925h13q359 519 969 519 625 0 1009-464t384-1208q0-838-388-1354Q2584-97 1888-97q-613 0-922 513h-13V0H422z" id="HelveticaWorld-Regular-62" transform="scale(.01563)"/><path d="m2816 1888-678 2021h-13l-737-2021h1428zm-1619-550L716 0H78l1728 4594h703L4172 0h-678l-453 1338H1197z" id="HelveticaWorld-Regular-41" transform="scale(.01563)"/><path d="M1141 2472h1234q466 0 700 204 234 205 234 621 0 372-225 569t-684 197H1141V2472zm0-2472H519v4594h2065q616 0 991-358t375-933q0-597-363-980-362-382-1003-382H1141V0z" id="HelveticaWorld-Regular-50" transform="scale(.01563)"/><path d="M1141 0H519v4594h622V0z" id="HelveticaWorld-Regular-49" transform="scale(.01563)"/><path d="M2522 3347h616L1863 0h-604L38 3347h653l872-2725h12l947 2725z" id="HelveticaWorld-Regular-76" transform="scale(.01563)"/><path d="M831 1684q0-615 244-954t659-339q404 0 660 293 256 294 256 832 0 706-224 1064-223 358-679 358-459 0-688-305-228-305-228-949zM3188 191q0-807-388-1203-387-397-1169-397-562 0-895 259T353-409h563q43-244 226-388t530-144q472 0 712 254 241 253 241 821v238h-12Q2297-97 1722-97q-716 0-1094 528T250 1772q0 744 381 1208 382 464 1013 464 634 0 1000-569h12v472h532V191z" id="HelveticaWorld-Regular-67" transform="scale(.01563)"/><path d="M603 4716h466V-122H603v4838z" id="HelveticaWorld-Regular-7c" transform="scale(.01563)"/><path d="M3559 4594h600V0h-690L1125 3713h-12V0H519v4594h728L3547 884h12v3710z" id="HelveticaWorld-Regular-4e" transform="scale(.01563)"/><path d="M3225 3250q-19 438-327 686-307 248-810 248-507 0-779-208-271-207-271-598 0-209 118-359 119-150 425-222l1313-300q531-116 787-440 257-323 257-788 0-681-500-1036T2138-122q-610 0-962 156-351 157-623 497-272 341-272 953h582q0-512 340-794 341-281 928-281 569 0 886 202t317 573q0 338-189 505t-739 295l-990 232q-494 112-738 392t-244 689q0 619 417 1019 418 400 1165 400 843 0 1301-352 458-351 492-1114h-584z" id="HelveticaWorld-Regular-53" transform="scale(.01563)"/><path d="M813 1678q0-559 253-920t718-361q482 0 732 378t250 903q0 531-250 901-250 371-732 371-446 0-709-349-262-348-262-923zm-575 0q0 747 415 1256 416 510 1131 510 732 0 1144-516 413-515 413-1250 0-737-410-1256Q2522-97 1784-97q-709 0-1128 503-418 503-418 1272zm2351 2266h-575v650h575v-650zm-1038 0H976v650h575v-650z" id="HelveticaWorld-Regular-f6" transform="scale(.01563)"/><path d="M2388 0h-622v1850L31 4594h725l1319-2206 1316 2206h731L2388 1850V0z" id="HelveticaWorld-Regular-59" transform="scale(.01563)"/></defs><use xlink:href="#HelveticaWorld-Regular-47"/><use x="77.1" xlink:href="#HelveticaWorld-Regular-69"/><use x="99.121" xlink:href="#HelveticaWorld-Regular-74"/><use x="126.807" xlink:href="#HelveticaWorld-Regular-48"/><use x="199.805" xlink:href="#HelveticaWorld-Regular-75"/><use x="254.59" xlink:href="#HelveticaWorld-Regular-62"/><use x="311.084" xlink:href="#HelveticaWorld-Regular-20"/><use x="335.498" xlink:href="#HelveticaWorld-Regular-41"/><use x="402.197" xlink:href="#HelveticaWorld-Regular-50"/><use x="466.846" xlink:href="#HelveticaWorld-Regular-49"/><use x="492.627" xlink:href="#HelveticaWorld-Regular-20"/><use x="517.041" xlink:href="#HelveticaWorld-Regular-76"/><use x="566.65" xlink:href="#HelveticaWorld-Regular-69"/><use x="588.672" xlink:href="#HelveticaWorld-Regular-61"/><use x="643.604" xlink:href="#HelveticaWorld-Regular-20"/><use x="668.018" xlink:href="#HelveticaWorld-Regular-73"/><use x="718.018" xlink:href="#HelveticaWorld-Regular-74"/><use x="745.703" xlink:href="#HelveticaWorld-Regular-61"/><use x="800.635" xlink:href="#HelveticaWorld-Regular-72"/><use x="832.203" xlink:href="#HelveticaWorld-Regular-67"/><use x="888.111" xlink:href="#HelveticaWorld-Regular-72"/><use x="919.68" xlink:href="#HelveticaWorld-Regular-61"/><use x="974.611" xlink:href="#HelveticaWorld-Regular-70"/><use x="1031.105" xlink:href="#HelveticaWorld-Regular-68"/><use x="1086.281" xlink:href="#HelveticaWorld-Regular-20"/><use x="1110.695" xlink:href="#HelveticaWorld-Regular-7c"/><use x="1136.672" xlink:href="#HelveticaWorld-Regular-20"/><use x="1161.086" xlink:href="#HelveticaWorld-Regular-4e"/><use x="1234.182" xlink:href="#HelveticaWorld-Regular-69"/><use x="1256.203" xlink:href="#HelveticaWorld-Regular-63"/><use x="1307.473" xlink:href="#HelveticaWorld-Regular-6f"/><use x="1363.381" xlink:href="#HelveticaWorld-Regular-20"/><use x="1387.795" xlink:href="#HelveticaWorld-Regular-53"/><use x="1454.006" xlink:href="#HelveticaWorld-Regular-63"/><use x="1505.275" xlink:href="#HelveticaWorld-Regular-68"/><use x="1560.451" xlink:href="#HelveticaWorld-Regular-6c"/><use x="1582.473" xlink:href="#HelveticaWorld-Regular-f6"/><use x="1638.381" xlink:href="#HelveticaWorld-Regular-6d"/><use x="1721.389" xlink:href="#HelveticaWorld-Regular-65"/><use x="1776.809" xlink:href="#HelveticaWorld-Regular-72"/><use x="1809.377" xlink:href="#HelveticaWorld-Regular-20"/><use x="1833.791" xlink:href="#HelveticaWorld-Regular-7c"/><use x="1859.768" xlink:href="#HelveticaWorld-Regular-20"/><use x="1884.182" xlink:href="#HelveticaWorld-Regular-43"/><use x="1956.496" xlink:href="#HelveticaWorld-Regular-43"/><use x="2028.811" xlink:href="#HelveticaWorld-Regular-20"/><use x="2053.225" xlink:href="#HelveticaWorld-Regular-42"/><use x="2116.037" xlink:href="#HelveticaWorld-Regular-59"/></g><g style="fill:#969696" transform="matrix(.14 0 0 -.14 166.777 17.25)" id="text_27"><use xlink:href="#HelveticaWorld-Regular-4e"/><use x="73.096" xlink:href="#HelveticaWorld-Regular-75"/><use x="127.881" xlink:href="#HelveticaWorld-Regular-6d"/><use x="210.889" xlink:href="#HelveticaWorld-Regular-62"/><use x="267.383" xlink:href="#HelveticaWorld-Regular-65"/><use x="322.803" xlink:href="#HelveticaWorld-Regular-72"/><use x="355.371" xlink:href="#HelveticaWorld-Regular-20"/><use x="379.785" xlink:href="#HelveticaWorld-Regular-6f"/><use x="435.693" xlink:href="#HelveticaWorld-Regular-66"/><use x="463.379" xlink:href="#HelveticaWorld-Regular-20"/><use x="487.793" xlink:href="#HelveticaWorld-Regular-47"/><use x="564.893" xlink:href="#HelveticaWorld-Regular-69"/><use x="586.914" xlink:href="#HelveticaWorld-Regular-74"/><use x="614.6" xlink:href="#HelveticaWorld-Regular-48"/><use x="687.598" xlink:href="#HelveticaWorld-Regular-75"/><use x="742.383" xlink:href="#HelveticaWorld-Regular-62"/><use x="798.877" xlink:href="#HelveticaWorld-Regular-20"/><use x="823.291" xlink:href="#HelveticaWorld-Regular-73"/><use x="873.291" xlink:href="#HelveticaWorld-Regular-74"/><use x="900.977" xlink:href="#HelveticaWorld-Regular-61"/><use x="955.908" xlink:href="#HelveticaWorld-Regular-72"/><use x="988.477" xlink:href="#HelveticaWorld-Regular-73"/></g><path clip-path="url(#pbad0dd4fdb)" d="m60.912 313.361.654-.623 19.184-.254 55.923-.628 11.08-.114 18.011-.947 22.349-2.027 6.24-.812 14.697-1.891 1.357-.272 7.41-1.081 2.174-.54 7.716-1.623 3.815-.81 4.089-.811 4.59-1.082 1.757-.541 2.164-.54 1.363-.542 2.454-.54 3.718-1.08 2.848-1.082 3.59-1.082 7.829-2.162 8.375-3.245 7.735-2.704 6.075-2.703 3.09-1.081 4.053-1.623 5.284-2.163 2.546-1.081 1.696-1.082 4.292-2.162 7.352-4.326 1.875-1.081 2.145-1.082 6.33-2.703 5.844-2.162 18.8-7.03 6.52-2.703 5.022-1.623 1.498-.54 7.01-2.163 3.212-1.081 1.382-.542 7.483-2.162 3.364-1.082h3.729l4.496-2.34 17.025-3.88 2.982-1.469 2.893-.593h0" style="fill:none;stroke:#d62728;stroke-linecap:square;stroke-width:1.5" id="line2d_29"/><path clip-path="url(#pbad0dd4fdb)" d="m263.802 313.361.046-.003.776-.002 2.719-.002 2.381-.003 1.398-.005 1.505-.007.816-.004 2.053-.005 2.752-.033.002-.064.003-.128.008-.256.02-.514.05-1.026.622-2.052 2.096-1.026 2.676-1.026 1.774-.512 1.593-.514 1.144-.512 1.74-.514 1.877-.512 2.402-.514 2.625-1.026 2.516-1.026 2.502-1.026 1.762-1.026 1.834-1.026 1.7-1.026 1.607-1.028 1.73-1.026 1.555-1.026 1.439-1.026 2.4-1.026 2.187-1.026 1.395-1.026 2.564-2.052 1.407-1.026 1.825-1.026 2.29-1.026 2.325-1.026 2.117-1.026 2.119-1.026 2.63-2.054 1.312-1.026 1.499-1.026 2.457-2.052 2.459-2.052 1.574-1.027 1.7-1.026 1.672-1.026 1.404-1.026 1.479-1.026 1.482-1.026 1.45-1.026 1.372-1.026 1.63-1.026 1.653-1.028 1.919-1.026 1.675-1.026 1.743-1.026 1.89-1.026 2.038-1.026 1.51-1.026 1.094-1.026 1.821-1.028 1.769-1.026 1.564-1.026 2.188-1.026 2.264-1.026 1.86-1.026 1.564-1.026 1.974-1.026 1.672-1.028 1.987-.847 1.45-.848 1.717-.848 1.505-.85.993-.14h1.376l2.16-1.993 3.887-2.941 5.45-2.53 3.16-1.502 2.982-1.401 2.893-1.213" style="fill:none;stroke:#2ca02c;stroke-linecap:square;stroke-width:1.5" id="line2d_30"/><path clip-path="url(#pbad0dd4fdb)" d="m216.865 313.361 2.488-1.08 1.729-1.08.309-.54.991-.27 2.213-.272 2.561-.27 1.878-.27 1.791-.27 2.096-.272 2.569-.27 2.016-.27 2.668-.54 1.382-.27 1.684-.27 2.222-.542 2.056-.54 2.148-.542 2.704-1.081 1.427-.54 1.781-.542 1.86-.54 2.534-.54 1.742-.54 1.57-.542 1.509-.54 1.844-.542 1.474-.54 1.307-.541 2.551-1.082 2.605-1.081 2.493-1.081 1.658-1.082 2.184-1.081 2.638-2.163 1.596-1.081 1.63-1.082 2.038-1.081 1.892-1.082 1.848-1.081 1.778-1.081 1.616-1.082 1.934-1.081 2.067-1.082 2.083-1.081 1.74-1.081 1.539-1.082 1.376-1.081 1.434-1.082 1.296-1.081 1.685-1.081 2.618-2.163 2.66-2.163 2.253-2.163 1.446-1.081 1.56-1.082 1.557-1.081 1.57-1.081 1.43-1.082 1.743-1.081 1.77-1.082 1.75-1.081 1.86-1.082 1.919-1.08 1.853-1.082 1.818-1.082 1.656-1.081 1.679-1.082 1.663-1.08 1.823-1.082 2.045-1.082 1.944-1.081 1.705-1.082 1.57-1.081 1.578-1.081 1.638-1.082h1.941l30.326-13.61 6.658-1.666 4.527-.867 3.888-.953 5.45-.628 3.16-.324 2.982-.377 2.893-.296" style="fill:none;stroke:#ff7f0e;stroke-linecap:square;stroke-width:1.5" id="line2d_31"/><path clip-path="url(#pbad0dd4fdb)" d="m237.845 313.361.533-17.3 1.574-4.326 1.894-2.163 1.508-1.081 1.362-1.082 1.551-2.162 2.662-2.163 2.364-2.163 1.539-2.163 2.035-2.163 1.016-2.162 1.712-2.163 2-2.163 2.067-2.163 2.124-2.163 2.042-2.162 1.724-2.163 1.52-2.163 1.288-2.163 1.464-2.163 1.464-2.163 2.31-4.325 2.564-4.326h.54L388.473 65.086l6.659-4.505 4.527-2.711 3.888-2.163 5.45-3.525 3.16-1.983 2.982-1.53 2.893-1.42" style="fill:none;stroke:#1f77b4;stroke-linecap:square;stroke-width:1.5" id="line2d_32"/></g></g><defs><clipPath id="pbad0dd4fdb"><path d="M60.912 47.249h357.12v266.112H60.912z"/></clipPath></defs></svg>