<svg xmlns:xlink="http://www.w3.org/1999/xlink" width="765.086" height="437.462" viewBox="0 0 573.815 328.096" xmlns="http://www.w3.org/2000/svg"><defs><style>*{stroke-linejoin:round;stroke-linecap:butt}</style></defs><g id="figure_1"><path d="M0 328.096h573.815V0H0v328.096z" style="fill:none" id="patch_1"/><g id="axes_1"><path d="M82.476 284.57h357.12V18.456H82.476V284.57z" style="fill:none" id="patch_2"/><g id="matplotlib.axis_1"><g id="xtick_1"><g id="line2d_1"><defs><path id="mf5bf28e6bb" d="M0 0v3.5" style="stroke:#969696;stroke-width:.4"/></defs><use xlink:href="#mf5bf28e6bb" x="110.844" y="284.569" style="fill:#969696;stroke:#969696;stroke-width:.4"/></g><g style="fill:#969696" transform="matrix(.14 0 0 -.14 96.48 301.51)" id="text_1"><defs><path id="MyriadPro-Regular-32" d="M2944 0v467H1075v13l333 307c877 845 1434 1466 1434 2234 0 595-378 1209-1274 1209-480 0-890-179-1178-422l180-397c192 160 505 352 883 352 621 0 825-390 825-813-6-627-486-1164-1548-2176L288 346V0h2656z" transform="scale(.01563)"/><path id="MyriadPro-Regular-30" d="M1677 4230c-845 0-1447-768-1447-2163C243 691 794-70 1606-70c922 0 1447 780 1447 2195 0 1325-499 2105-1376 2105zm-32-435c582 0 845-672 845-1696 0-1062-276-1734-852-1734-512 0-844 614-844 1696 0 1133 358 1734 851 1734z" transform="scale(.01563)"/><path id="MyriadPro-Regular-31" d="M1510 0h544v4160h-480l-908-486 108-429 724 390h12V0z" transform="scale(.01563)"/></defs><use xlink:href="#MyriadPro-Regular-32"/><use xlink:href="#MyriadPro-Regular-30" x="51.3"/><use xlink:href="#MyriadPro-Regular-31" x="102.6"/><use xlink:href="#MyriadPro-Regular-30" x="153.9"/></g></g><g id="xtick_2"><use xlink:href="#mf5bf28e6bb" x="167.579" y="284.569" style="fill:#969696;stroke:#969696;stroke-width:.4" id="line2d_2"/><g style="fill:#969696" transform="matrix(.14 0 0 -.14 153.216 301.51)" id="text_2"><use xlink:href="#MyriadPro-Regular-32"/><use xlink:href="#MyriadPro-Regular-30" x="51.3"/><use xlink:href="#MyriadPro-Regular-31" x="102.6"/><use xlink:href="#MyriadPro-Regular-32" x="153.9"/></g></g><g id="xtick_3"><use xlink:href="#mf5bf28e6bb" x="224.392" y="284.569" style="fill:#969696;stroke:#969696;stroke-width:.4" id="line2d_3"/><g style="fill:#969696" transform="matrix(.14 0 0 -.14 210.028 301.51)" id="text_3"><defs><path id="MyriadPro-Regular-34" d="M2560 0v1133h582v441h-582v2586h-608L96 1504v-371h1933V0h531zM666 1574v13l1017 1415c115 192 218 371 346 614h19c-13-218-19-435-19-653V1574H666z" transform="scale(.01563)"/></defs><use xlink:href="#MyriadPro-Regular-32"/><use xlink:href="#MyriadPro-Regular-30" x="51.3"/><use xlink:href="#MyriadPro-Regular-31" x="102.6"/><use xlink:href="#MyriadPro-Regular-34" x="153.9"/></g></g><g id="xtick_4"><use xlink:href="#mf5bf28e6bb" x="281.127" y="284.569" style="fill:#969696;stroke:#969696;stroke-width:.4" id="line2d_4"/><g style="fill:#969696" transform="matrix(.14 0 0 -.14 266.764 301.51)" id="text_4"><defs><path id="MyriadPro-Regular-36" d="M2662 4224c-102 0-243-6-409-32-525-64-986-275-1331-614-410-410-704-1056-704-1876C218 621 800-70 1690-70c864 0 1382 704 1382 1465 0 813-518 1344-1254 1344-461 0-807-217-1005-480h-19c96 685 563 1331 1446 1479 160 25 307 32 422 25v461zM1690 365c-589 0-903 505-916 1190 0 103 26 186 64 250 154 301 468 512 807 512 518 0 857-359 857-954s-326-998-806-998h-6z" transform="scale(.01563)"/></defs><use xlink:href="#MyriadPro-Regular-32"/><use xlink:href="#MyriadPro-Regular-30" x="51.3"/><use xlink:href="#MyriadPro-Regular-31" x="102.6"/><use xlink:href="#MyriadPro-Regular-36" x="153.9"/></g></g><g id="xtick_5"><use xlink:href="#mf5bf28e6bb" x="337.939" y="284.569" style="fill:#969696;stroke:#969696;stroke-width:.4" id="line2d_5"/><g style="fill:#969696" transform="matrix(.14 0 0 -.14 323.576 301.51)" id="text_5"><defs><path id="MyriadPro-Regular-38" d="M1062 2170c-512-218-825-589-825-1114C237 448 762-70 1632-70c794 0 1414 486 1414 1209 0 506-320 871-838 1075v20c512 243 685 620 685 972 0 519-403 1024-1210 1024-729 0-1286-448-1286-1107 0-358 198-717 659-934l6-19zm583-1831c-531 0-851 371-832 794 0 397 262 717 749 857 563-160 915-403 915-908 0-423-327-743-832-743zm6 3488c506 0 704-345 704-678 0-378-275-634-633-755-480 128-794 352-794 768 0 358 256 665 723 665z" transform="scale(.01563)"/></defs><use xlink:href="#MyriadPro-Regular-32"/><use xlink:href="#MyriadPro-Regular-30" x="51.3"/><use xlink:href="#MyriadPro-Regular-31" x="102.6"/><use xlink:href="#MyriadPro-Regular-38" x="153.9"/></g></g><g id="xtick_6"><use xlink:href="#mf5bf28e6bb" x="394.675" y="284.569" style="fill:#969696;stroke:#969696;stroke-width:.4" id="line2d_6"/><g style="fill:#969696" transform="matrix(.14 0 0 -.14 380.311 301.51)" id="text_6"><use xlink:href="#MyriadPro-Regular-32"/><use xlink:href="#MyriadPro-Regular-30" x="51.3"/><use xlink:href="#MyriadPro-Regular-32" x="102.6"/><use xlink:href="#MyriadPro-Regular-30" x="153.9"/></g></g></g><g id="matplotlib.axis_2"><g id="ytick_1"><path d="M82.476 284.57h357.12" clip-path="url(#p6a22c3b0ae)" style="fill:none;stroke:#969696;stroke-width:.3;stroke-linecap:square" id="line2d_7"/><g id="line2d_8"><defs><path id="mbbb1130896" d="M0 0h-3.5" style="stroke:#969696;stroke-width:.3"/></defs><use xlink:href="#mbbb1130896" x="82.476" y="284.569" style="fill:#969696;stroke:#969696;stroke-width:.3"/></g><use xlink:href="#MyriadPro-Regular-30" style="fill:#969696" transform="matrix(.14 0 0 -.14 68.295 289.54)" id="text_7"/></g><g id="ytick_2"><path d="M82.476 236.96h357.12" clip-path="url(#p6a22c3b0ae)" style="fill:none;stroke:#969696;stroke-width:.3;stroke-linecap:square" id="line2d_9"/><use xlink:href="#mbbb1130896" x="82.476" y="236.96" style="fill:#969696;stroke:#969696;stroke-width:.3" id="line2d_10"/><g style="fill:#969696" transform="matrix(.14 0 0 -.14 39.568 241.93)" id="text_8"><use xlink:href="#MyriadPro-Regular-31"/><use xlink:href="#MyriadPro-Regular-30" x="51.3"/><use xlink:href="#MyriadPro-Regular-30" x="102.6"/><use xlink:href="#MyriadPro-Regular-30" x="153.9"/><use xlink:href="#MyriadPro-Regular-30" x="205.2"/></g></g><g id="ytick_3"><path d="M82.476 189.35h357.12" clip-path="url(#p6a22c3b0ae)" style="fill:none;stroke:#969696;stroke-width:.3;stroke-linecap:square" id="line2d_11"/><use xlink:href="#mbbb1130896" x="82.476" y="189.351" style="fill:#969696;stroke:#969696;stroke-width:.3" id="line2d_12"/><g style="fill:#969696" transform="matrix(.14 0 0 -.14 39.568 194.32)" id="text_9"><use xlink:href="#MyriadPro-Regular-32"/><use xlink:href="#MyriadPro-Regular-30" x="51.3"/><use xlink:href="#MyriadPro-Regular-30" x="102.6"/><use xlink:href="#MyriadPro-Regular-30" x="153.9"/><use xlink:href="#MyriadPro-Regular-30" x="205.2"/></g></g><g id="ytick_4"><path d="M82.476 141.741h357.12" clip-path="url(#p6a22c3b0ae)" style="fill:none;stroke:#969696;stroke-width:.3;stroke-linecap:square" id="line2d_13"/><use xlink:href="#mbbb1130896" x="82.476" y="141.741" style="fill:#969696;stroke:#969696;stroke-width:.3" id="line2d_14"/><g style="fill:#969696" transform="matrix(.14 0 0 -.14 39.568 146.711)" id="text_10"><defs><path id="MyriadPro-Regular-33" d="M269 211C474 77 883-70 1350-70c999 0 1517 582 1517 1248 0 582-416 966-928 1068v13c512 186 768 551 768 979 0 506-371 992-1190 992-448 0-871-160-1088-320l147-409c179 128 499 275 832 275 518 0 730-294 730-627 0-493-519-704-928-704H896v-423h314c544 0 1068-249 1075-832 6-345-218-806-941-806-390 0-762 160-922 262L269 211z" transform="scale(.01563)"/></defs><use xlink:href="#MyriadPro-Regular-33"/><use xlink:href="#MyriadPro-Regular-30" x="51.3"/><use xlink:href="#MyriadPro-Regular-30" x="102.6"/><use xlink:href="#MyriadPro-Regular-30" x="153.9"/><use xlink:href="#MyriadPro-Regular-30" x="205.2"/></g></g><g id="ytick_5"><path d="M82.476 94.132h357.12" clip-path="url(#p6a22c3b0ae)" style="fill:none;stroke:#969696;stroke-width:.3;stroke-linecap:square" id="line2d_15"/><use xlink:href="#mbbb1130896" x="82.476" y="94.132" style="fill:#969696;stroke:#969696;stroke-width:.3" id="line2d_16"/><g style="fill:#969696" transform="matrix(.14 0 0 -.14 39.568 99.102)" id="text_11"><use xlink:href="#MyriadPro-Regular-34"/><use xlink:href="#MyriadPro-Regular-30" x="51.3"/><use xlink:href="#MyriadPro-Regular-30" x="102.6"/><use xlink:href="#MyriadPro-Regular-30" x="153.9"/><use xlink:href="#MyriadPro-Regular-30" x="205.2"/></g></g><g id="ytick_6"><path d="M82.476 46.523h357.12" clip-path="url(#p6a22c3b0ae)" style="fill:none;stroke:#969696;stroke-width:.3;stroke-linecap:square" id="line2d_17"/><use xlink:href="#mbbb1130896" x="82.476" y="46.523" style="fill:#969696;stroke:#969696;stroke-width:.3" id="line2d_18"/><g style="fill:#969696" transform="matrix(.14 0 0 -.14 39.568 51.493)" id="text_12"><defs><path id="MyriadPro-Regular-35" d="M2771 4160H781L512 2163c154 19 339 45 576 45 832 0 1190-384 1197-922 0-556-455-902-986-902-377 0-717 128-889 230L269 186C467 58 851-70 1306-70c902 0 1548 608 1548 1420 0 525-268 884-595 1069-256 154-576 224-896 224-153 0-243-13-339-25l160 1068h1587v474z" transform="scale(.01563)"/></defs><use xlink:href="#MyriadPro-Regular-35"/><use xlink:href="#MyriadPro-Regular-30" x="51.3"/><use xlink:href="#MyriadPro-Regular-30" x="102.6"/><use xlink:href="#MyriadPro-Regular-30" x="153.9"/><use xlink:href="#MyriadPro-Regular-30" x="205.2"/></g></g><g style="fill:#969696" transform="matrix(.14 0 0 -.14 7.2 17.14)" id="text_13"><defs><path id="MyriadPro-Regular-47" d="M3770 2266H2349v-448h877V531c-128-64-378-115-743-115-1005 0-1664 646-1664 1741 0 1081 685 1734 1735 1734 435 0 723-83 953-185l135 454c-186 90-576 198-1076 198-1446 0-2329-940-2336-2227 0-672 231-1248 602-1606 422-403 960-570 1613-570 582 0 1075 147 1325 237v2074z" transform="scale(.01563)"/><path id="MyriadPro-Regular-69" d="M1030 0v3098H467V0h563zM749 4320c-205 0-352-154-352-352 0-192 141-346 339-346 224 0 365 154 358 346 0 198-134 352-345 352z" transform="scale(.01563)"/><path id="MyriadPro-Regular-74" d="M595 3667v-569H115v-429h480V979c0-365 58-640 218-806C947 19 1158-70 1421-70c217 0 390 38 499 83l-26 422c-83-25-172-38-326-38-314 0-422 217-422 601v1671h806v429h-806v742l-551-173z" transform="scale(.01563)"/><path id="MyriadPro-Regular-48" d="M486 4314V0h557v2022h2087V0h563v4314h-563V2509H1043v1805H486z" transform="scale(.01563)"/><path id="MyriadPro-Regular-75" d="M3059 3098h-563V1197c0-103-19-205-51-288-103-250-365-512-743-512-512 0-691 397-691 985v1716H448V1286C448 198 1030-70 1517-70c550 0 877 326 1024 576h13l32-506h499c-19 243-26 525-26 845v2253z" transform="scale(.01563)"/><path id="MyriadPro-Regular-62" d="M467 800c0-275-13-589-25-800h486l26 512h19c230-410 589-582 1037-582 691 0 1388 550 1388 1657 7 941-537 1581-1305 1581-499 0-858-224-1056-570h-13v1946H467V800zm557 998c0 90 19 167 32 231 115 429 474 691 858 691 601 0 921-531 921-1152 0-710-352-1190-941-1190-409 0-736 268-844 659-13 64-26 134-26 205v556z" transform="scale(.01563)"/><path id="MyriadPro-Regular-73" d="M250 147C467 19 781-70 1120-70c736 0 1158 390 1158 934 0 461-275 730-812 934-404 154-589 269-589 525 0 231 185 423 518 423 288 0 512-103 634-180l141 410c-173 102-448 192-762 192-666 0-1069-410-1069-909 0-371 263-678 819-877 416-153 576-300 576-569 0-256-192-461-601-461-282 0-576 115-743 224L250 147z" transform="scale(.01563)"/><path id="MyriadPro-Regular-61" d="M2643 1901c0 621-230 1267-1177 1267-391 0-762-109-1018-275l128-371c218 140 518 230 806 230 634 0 704-461 704-717v-64C890 1978 224 1568 224 819c0-448 320-889 947-889 442 0 775 217 947 460h20l44-390h512c-38 211-51 474-51 742v1159zm-544-858c0-57-13-121-32-179-89-262-345-518-749-518-288 0-531 172-531 537 0 602 698 711 1312 698v-538z" transform="scale(.01563)"/><path id="MyriadPro-Regular-72" d="M467 0h557v1651c0 96 13 186 26 263 76 422 358 723 755 723 77 0 134-7 192-19v531c-51 13-96 19-160 19-378 0-717-262-858-678h-25l-20 608H442c19-288 25-602 25-967V0z" transform="scale(.01563)"/></defs><use xlink:href="#MyriadPro-Regular-47"/><use xlink:href="#MyriadPro-Regular-69" x="64.6"/><use xlink:href="#MyriadPro-Regular-74" x="88"/><use xlink:href="#MyriadPro-Regular-48" x="121.1"/><use xlink:href="#MyriadPro-Regular-75" x="186.3"/><use xlink:href="#MyriadPro-Regular-62" x="241.4"/><use xlink:href="#MyriadPro-Regular-20" x="298.3"/><use xlink:href="#MyriadPro-Regular-73" x="319.5"/><use xlink:href="#MyriadPro-Regular-74" x="359.1"/><use xlink:href="#MyriadPro-Regular-61" x="392.2"/><use xlink:href="#MyriadPro-Regular-72" x="440.4"/><use xlink:href="#MyriadPro-Regular-73" x="473.1"/></g></g><path d="m233.718 284.57 2.41-.853 2.33-.224 2.41-.047 2.41-.029 2.331-.029 2.41-.062 2.33-.061 2.41-.053 2.41-.066 2.176-.129 2.409-.148 2.331-.114 2.41-.11 2.331-.08 2.41-.134 2.409-.1 2.332-.1 2.409-.123 2.331-.081 2.41-.224 2.409-.133 2.254-.19 2.41-.2 2.33-.172 2.41-.171 2.332-.172 2.409-.252 2.41-.205 2.33-.262 2.41-.205 2.332-.242 2.409-.205 2.41-.171 2.175-.143 2.41-.195 2.331-.238 2.41-.181 2.331-.181 2.41-.153 2.409-.171 2.331-.224 2.41-.314 2.331-.31 2.41-.18 2.409-.272 2.176-.185 2.41-.31 2.33-.238 2.41-.29 2.332-.22 2.409-.2 2.41-.352 2.33-.176 2.41-.171 2.332-.281 2.409-.324 2.41-.247 2.175-.32 2.41-.361 2.331-.42 2.41-.518 2.331-.267 2.41-.323 2.409-.305 2.331-.376 2.41-.253 2.331-.228 2.41-.186 2.409-.243 2.254-.138 2.409-.262 2.332-.219 2.409-.304 2.331-.243 2.41-.148 2.409-.2 2.332-.242 2.409-.186 2.331-.176 2.41-.176 2.41-.196 2.175-.21 2.41-.194 2.331-.22 2.41-.175 2.331-.21 2.41-.19" clip-path="url(#p6a22c3b0ae)" style="fill:none;stroke:#e377c2;stroke-width:1.5;stroke-linecap:square" id="line2d_19"/><path d="m281.127 284.57 2.409-.077 2.254-.205 2.41-.257 2.33-.186 2.41-.209 2.332-.214 2.409-.205 2.41-.224 2.33-.271 2.41-.248 2.332-.21 2.409-.194 2.41-.224 2.175-.233 2.41-.272 2.331-.314 2.41-.252 2.331-.238 2.41-.257 2.409-.386 2.331-.362 2.41-.248 2.331-.319 2.41-.247 2.409-.295 2.176-.262 2.41-.348 2.33-.361 2.41-.41 2.332-.357 2.409-.333 2.41-.414 2.33-.305 2.41-.248 2.332-.362 2.409-.442 2.41-.4 2.175-.305 2.41-.371 2.331-.372 2.41-.447 2.331-.433 2.41-.486 2.409-.438 2.331-.348 2.41-.38 2.331-.29 2.41-.453 2.409-.338 2.254-.2 2.409-.333 2.332-.39 2.409-.386 2.331-.415 2.41-.342 2.409-.338 2.332-.315 2.409-.252 2.331-.29 2.41-.324 2.41-.41 2.175-.285 2.41-.148 2.331-.128 2.41-.09 2.331-.072 2.41-.067" clip-path="url(#p6a22c3b0ae)" style="fill:none;stroke:#8c564b;stroke-width:1.5;stroke-linecap:square" id="line2d_20"/><path d="m243.277 284.57 2.332-.448 2.41-.362 2.33-.195 2.41-.124 2.41-.257 2.176-.19 2.409-.158 2.331-.176 2.41-.2 2.331-.18 2.41-.163 2.409-.162 2.332-.147 2.409-.224 2.331-.124 2.41-.233 2.409-.181 2.254-.133 2.41-.205 2.33-.219 2.41-.29 2.332-.22 2.409-.185 2.41-.286 2.33-.414 2.41-.271 2.332-.2 2.409-.286 2.41-.28 2.175-.21 2.41-.31 2.331-.319 2.41-.319 2.331-.252 2.41-.419 2.409-.371 2.331-.429 2.41-.395 2.331-.4 2.41-.362 2.409-.319 2.176-.238 2.41-.38 2.33-.52 2.41-.39 2.332-.329 2.409-.4 2.41-.456 2.33-.334 2.41-.31 2.332-.537 2.409-.438 2.41-.543 2.175-.414 2.41-.495 2.331-.51 2.41-.595 2.331-.447 2.41-.972 2.409-.58 2.331-.505 2.41-.41 2.331-.509 2.41-.605 2.409-.533 2.254-.352 2.409-.471 2.332-.577 2.409-.609 2.331-.59 2.41-.624 2.409-.662 2.332-.523 2.409-.457 2.331-.567 2.41-.528 2.41-.59 2.175-.52 2.41-.533 2.331-.633 2.41-.624 2.331-.571 2.41-.657" clip-path="url(#p6a22c3b0ae)" style="fill:none;stroke:#9467bd;stroke-width:1.5;stroke-linecap:square" id="line2d_21"/><g style="fill:#1f77b4" transform="matrix(.14 0 0 -.14 450.31 22.041)" id="text_14"><defs><path id="MyriadPro-Regular-65" d="M2957 1446c6 58 19 148 19 263 0 569-269 1459-1280 1459-902 0-1453-736-1453-1670C243 563 813-70 1766-70c493 0 832 108 1031 198l-96 403c-211-89-455-160-858-160-563 0-1049 314-1062 1075h2176zM787 1850c45 390 295 915 864 915 634 0 787-557 781-915H787z" transform="scale(.01563)"/><path id="MyriadPro-Regular-6c" d="M467 0h563v4544H467V0z" transform="scale(.01563)"/><path id="MyriadPro-Regular-63" d="M2579 538c-160-71-371-154-691-154-614 0-1075 442-1075 1158 0 647 384 1172 1094 1172 307 0 519-71 653-148l128 436c-154 76-448 160-781 160-1011 0-1664-692-1664-1645C243 570 851-70 1786-70c416 0 742 108 889 185l-96 423z" transform="scale(.01563)"/><path id="MyriadPro-Regular-2f" d="m422-256 1792 4640h-435L-6-256h428z" transform="scale(.01563)"/><path id="MyriadPro-Regular-68" d="M467 0h563v1869c0 109 7 192 39 269 102 307 390 563 755 563 531 0 717-423 717-922V0h563v1843c0 1069-666 1325-1082 1325-211 0-409-64-576-160-172-96-313-237-403-397h-13v1933H467V0z" transform="scale(.01563)"/></defs><use xlink:href="#MyriadPro-Regular-65"/><use xlink:href="#MyriadPro-Regular-6c" x="50.1"/><use xlink:href="#MyriadPro-Regular-61" x="73.7"/><use xlink:href="#MyriadPro-Regular-73" x="121.9"/><use xlink:href="#MyriadPro-Regular-74" x="161.5"/><use xlink:href="#MyriadPro-Regular-69" x="194.6"/><use xlink:href="#MyriadPro-Regular-63" x="218"/><use xlink:href="#MyriadPro-Regular-2f" x="262.8"/><use xlink:href="#MyriadPro-Regular-65" x="297.1"/><use xlink:href="#MyriadPro-Regular-6c" x="347.2"/><use xlink:href="#MyriadPro-Regular-61" x="370.8"/><use xlink:href="#MyriadPro-Regular-73" x="419"/><use xlink:href="#MyriadPro-Regular-74" x="458.6"/><use xlink:href="#MyriadPro-Regular-69" x="491.7"/><use xlink:href="#MyriadPro-Regular-63" x="515.1"/><use xlink:href="#MyriadPro-Regular-73" x="559.9"/><use xlink:href="#MyriadPro-Regular-65" x="599.5"/><use xlink:href="#MyriadPro-Regular-61" x="649.6"/><use xlink:href="#MyriadPro-Regular-72" x="697.8"/><use xlink:href="#MyriadPro-Regular-63" x="730.5"/><use xlink:href="#MyriadPro-Regular-68" x="775.3"/></g><g style="fill:#ff7f0e" transform="matrix(.14 0 0 -.14 450.31 48.403)" id="text_15"><defs><path id="MyriadPro-Regular-6e" d="M467 0h563v1862c0 96 13 192 39 263 96 313 384 576 755 576 531 0 717-416 717-915V0h563v1850c0 1062-666 1318-1094 1318-512 0-871-288-1024-582h-13l-32 512H442c19-256 25-519 25-839V0z" transform="scale(.01563)"/><path id="MyriadPro-Regular-7a" d="M115 0h2515v448H819v13c141 160 269 313 397 486l1382 1799 7 352H243v-455h1677v-13c-141-166-269-313-403-480L115 326V0z" transform="scale(.01563)"/><path id="MyriadPro-Regular-64" d="M2579 4544V2694h-13c-140 250-460 474-934 474-755 0-1395-634-1389-1664C243 563 819-70 1568-70c506 0 883 262 1056 608h13l25-538h506c-19 211-26 525-26 800v3744h-563zm0-3245c0-89-6-166-25-243-103-422-448-672-826-672-608 0-915 518-915 1146 0 684 345 1196 928 1196 422 0 729-294 813-652 19-71 25-167 25-237v-538z" transform="scale(.01563)"/></defs><use xlink:href="#MyriadPro-Regular-61"/><use xlink:href="#MyriadPro-Regular-6e" x="48.2"/><use xlink:href="#MyriadPro-Regular-74" x="103.7"/><use xlink:href="#MyriadPro-Regular-69" x="136.8"/><use xlink:href="#MyriadPro-Regular-72" x="160.2"/><use xlink:href="#MyriadPro-Regular-65" x="192.9"/><use xlink:href="#MyriadPro-Regular-7a" x="243"/><use xlink:href="#MyriadPro-Regular-2f" x="285.8"/><use xlink:href="#MyriadPro-Regular-72" x="320.1"/><use xlink:href="#MyriadPro-Regular-65" x="352.8"/><use xlink:href="#MyriadPro-Regular-64" x="402.9"/><use xlink:href="#MyriadPro-Regular-69" x="459.3"/><use xlink:href="#MyriadPro-Regular-73" x="482.7"/></g><g style="fill:#2ca02c" transform="matrix(.14 0 0 -.14 450.31 192)" id="text_16"><defs><path id="MyriadPro-Regular-6d" d="M467 0h551v1869c0 96 12 192 44 275 90 282 346 563 698 563 429 0 646-358 646-851V0h551v1914c0 102 19 204 45 281 96 275 345 512 665 512 455 0 672-358 672-953V0h551v1824c0 1075-608 1344-1018 1344-294 0-499-77-685-218-128-96-249-230-345-403h-13c-135 365-455 621-877 621-512 0-800-275-973-570h-19l-26 500H442c19-256 25-519 25-839V0z" transform="scale(.01563)"/><path id="MyriadPro-Regular-6f" d="M1779 3168c-857 0-1536-608-1536-1645C243 544 890-70 1728-70c749 0 1542 499 1542 1644 0 948-601 1594-1491 1594zm-13-422c666 0 928-666 928-1191 0-697-403-1203-940-1203-551 0-941 512-941 1190 0 589 288 1204 953 1204z" transform="scale(.01563)"/><path id="MyriadPro-Regular-67" d="M3110 2246c0 378 13 628 26 852h-493l-25-468h-13c-135 256-429 538-967 538-710 0-1395-595-1395-1645C243 666 794 13 1562 13c480 0 812 230 985 518h13V186c0-781-422-1082-998-1082-384 0-704 115-909 243l-141-429c250-166 659-256 1030-256 391 0 826 90 1127 372 301 268 441 704 441 1414v1798zm-556-928c0-96-13-204-45-300-122-359-435-576-781-576-608 0-915 505-915 1113 0 717 384 1171 921 1171 410 0 685-268 788-595 25-77 32-160 32-256v-557z" transform="scale(.01563)"/></defs><use xlink:href="#MyriadPro-Regular-6d"/><use xlink:href="#MyriadPro-Regular-6f" x="83.4"/><use xlink:href="#MyriadPro-Regular-6e" x="138.3"/><use xlink:href="#MyriadPro-Regular-67" x="193.8"/><use xlink:href="#MyriadPro-Regular-6f" x="249.7"/><use xlink:href="#MyriadPro-Regular-64" x="304.6"/><use xlink:href="#MyriadPro-Regular-62" x="361"/><use xlink:href="#MyriadPro-Regular-2f" x="417.9"/><use xlink:href="#MyriadPro-Regular-6d" x="452.2"/><use xlink:href="#MyriadPro-Regular-6f" x="535.6"/><use xlink:href="#MyriadPro-Regular-6e" x="590.5"/><use xlink:href="#MyriadPro-Regular-67" x="646"/><use xlink:href="#MyriadPro-Regular-6f" x="701.9"/></g><g style="fill:#d62728" transform="matrix(.14 0 0 -.14 450.31 239.06)" id="text_17"><defs><path id="MyriadPro-Regular-70" d="M467-1267h557V416h13c185-307 544-486 953-486 730 0 1408 550 1408 1664 0 940-563 1574-1312 1574-505 0-870-224-1100-602h-13l-26 532H442c12-295 25-615 25-1012v-3353zm557 3059c0 77 19 160 38 230 109 423 468 698 852 698 595 0 921-531 921-1152 0-710-345-1197-941-1197-403 0-742 269-844 659-13 71-26 148-26 231v531z" transform="scale(.01563)"/></defs><use xlink:href="#MyriadPro-Regular-70"/><use xlink:href="#MyriadPro-Regular-6f" x="56.9"/><use xlink:href="#MyriadPro-Regular-73" x="111.8"/><use xlink:href="#MyriadPro-Regular-74" x="151.4"/><use xlink:href="#MyriadPro-Regular-67" x="184.5"/><use xlink:href="#MyriadPro-Regular-72" x="240.4"/><use xlink:href="#MyriadPro-Regular-65" x="273.1"/><use xlink:href="#MyriadPro-Regular-73" x="323.2"/><use xlink:href="#MyriadPro-Regular-2f" x="362.8"/><use xlink:href="#MyriadPro-Regular-70" x="397.1"/><use xlink:href="#MyriadPro-Regular-6f" x="454"/><use xlink:href="#MyriadPro-Regular-73" x="508.9"/><use xlink:href="#MyriadPro-Regular-74" x="548.5"/><use xlink:href="#MyriadPro-Regular-67" x="581.6"/><use xlink:href="#MyriadPro-Regular-72" x="637.5"/><use xlink:href="#MyriadPro-Regular-65" x="670.2"/><use xlink:href="#MyriadPro-Regular-73" x="720.3"/></g><g style="fill:#9467bd" transform="matrix(.14 0 0 -.14 450.31 253.054)" id="text_18"><defs><path id="MyriadPro-Regular-79" d="M58 3098 1203 243c26-70 39-115 39-147s-20-77-45-134c-128-288-320-506-474-628-166-140-352-230-493-275l141-473c141 25 416 121 691 364 384 333 660 877 1063 1940l845 2208h-596l-614-1818c-77-224-141-461-198-646h-13c-51 185-128 428-199 633L672 3098H58z" transform="scale(.01563)"/><path id="MyriadPro-Regular-71" d="M2579-1267h563v3513c0 320 7 589 20 852h-532l-19-468h-13c-153 301-473 538-953 538-653 0-1402-512-1402-1670C243 557 832-70 1555-70c499 0 845 243 1011 550h13v-1747zm0 2528c0-83-19-192-45-269-128-390-441-614-806-614-621 0-915 537-915 1152 0 697 352 1190 934 1190 423 0 723-294 807-640 19-70 25-160 25-237v-582z" transform="scale(.01563)"/><path id="MyriadPro-Regular-2d" d="M192 1939v-416h1581v416H192z" transform="scale(.01563)"/><path id="MyriadPro-Regular-76" d="M83 3098 1261 0h537l1216 3098h-588l-602-1741c-102-282-192-538-262-794h-20c-64 256-147 512-249 794L685 3098H83z" transform="scale(.01563)"/></defs><use xlink:href="#MyriadPro-Regular-6d"/><use xlink:href="#MyriadPro-Regular-79" x="83.4"/><use xlink:href="#MyriadPro-Regular-73" x="130.5"/><use xlink:href="#MyriadPro-Regular-71" x="170.1"/><use xlink:href="#MyriadPro-Regular-6c" x="226.4"/><use xlink:href="#MyriadPro-Regular-2f" x="250"/><use xlink:href="#MyriadPro-Regular-6d" x="284.3"/><use xlink:href="#MyriadPro-Regular-79" x="367.7"/><use xlink:href="#MyriadPro-Regular-73" x="414.8"/><use xlink:href="#MyriadPro-Regular-71" x="454.4"/><use xlink:href="#MyriadPro-Regular-6c" x="510.7"/><use xlink:href="#MyriadPro-Regular-2d" x="534.3"/><use xlink:href="#MyriadPro-Regular-73" x="565"/><use xlink:href="#MyriadPro-Regular-65" x="604.6"/><use xlink:href="#MyriadPro-Regular-72" x="654.7"/><use xlink:href="#MyriadPro-Regular-76" x="687.4"/><use xlink:href="#MyriadPro-Regular-65" x="735.5"/><use xlink:href="#MyriadPro-Regular-72" x="785.6"/></g><g style="fill:#8c564b" transform="matrix(.14 0 0 -.14 450.31 267.215)" id="text_19"><use xlink:href="#MyriadPro-Regular-61"/><use xlink:href="#MyriadPro-Regular-70" x="48.2"/><use xlink:href="#MyriadPro-Regular-61" x="105.1"/><use xlink:href="#MyriadPro-Regular-63" x="153.3"/><use xlink:href="#MyriadPro-Regular-68" x="198.1"/><use xlink:href="#MyriadPro-Regular-65" x="253.6"/><use xlink:href="#MyriadPro-Regular-2f" x="303.7"/><use xlink:href="#MyriadPro-Regular-6c" x="338"/><use xlink:href="#MyriadPro-Regular-75" x="361.6"/><use xlink:href="#MyriadPro-Regular-63" x="416.7"/><use xlink:href="#MyriadPro-Regular-65" x="461.5"/><use xlink:href="#MyriadPro-Regular-6e" x="511.6"/><use xlink:href="#MyriadPro-Regular-65" x="567.1"/><use xlink:href="#MyriadPro-Regular-2d" x="617.2"/><use xlink:href="#MyriadPro-Regular-73" x="647.9"/><use xlink:href="#MyriadPro-Regular-6f" x="687.5"/><use xlink:href="#MyriadPro-Regular-6c" x="742.4"/><use xlink:href="#MyriadPro-Regular-72" x="766"/></g><g style="fill:#e377c2" transform="matrix(.14 0 0 -.14 450.31 281.215)" id="text_20"><defs><path id="MyriadPro-Regular-4d" d="M4230 0h544l-268 4314h-711l-768-2087c-192-544-345-1017-454-1453h-19c-109 448-256 922-436 1453l-736 2087H672L371 0h531l116 1850c38 646 70 1369 83 1907h13c121-512 294-1069 499-1677L2310 26h423l761 2092c218 589 397 1133 544 1639h20c-7-538 32-1261 64-1863L4230 0z" transform="scale(.01563)"/><path id="MyriadPro-Regular-44" d="M486 13c282-32 615-51 1012-51 838 0 1504 217 1907 620 403 397 621 973 621 1677 0 698-224 1197-608 1549-378 352-948 538-1748 538-441 0-844-39-1184-90V13zm557 3833c147 32 365 58 653 58 1178 0 1754-646 1747-1664 0-1165-646-1830-1837-1830-217 0-422 6-563 32v3404z" transform="scale(.01563)"/><path id="MyriadPro-Regular-42" d="M486 13c186-26 480-51 864-51 704 0 1191 128 1492 403 217 211 364 493 364 864 0 640-480 979-889 1081v13c454 167 729 531 729 947 0 340-134 596-358 762-269 218-627 314-1184 314-390 0-774-39-1018-90V13zm557 3865c90 20 237 39 493 39 563 0 947-199 947-704 0-416-345-723-934-723h-506v1388zm0-1811h461c608 0 1114-243 1114-832 0-627-532-838-1108-838-198 0-358 6-467 25v1645z" transform="scale(.01563)"/></defs><use xlink:href="#MyriadPro-Regular-4d"/><use xlink:href="#MyriadPro-Regular-61" x="80.4"/><use xlink:href="#MyriadPro-Regular-72" x="128.6"/><use xlink:href="#MyriadPro-Regular-69" x="161.3"/><use xlink:href="#MyriadPro-Regular-61" x="184.7"/><use xlink:href="#MyriadPro-Regular-44" x="232.9"/><use xlink:href="#MyriadPro-Regular-42" x="299.5"/><use xlink:href="#MyriadPro-Regular-2f" x="353.7"/><use xlink:href="#MyriadPro-Regular-73" x="388"/><use xlink:href="#MyriadPro-Regular-65" x="427.6"/><use xlink:href="#MyriadPro-Regular-72" x="477.7"/><use xlink:href="#MyriadPro-Regular-76" x="510.4"/><use xlink:href="#MyriadPro-Regular-65" x="558.5"/><use xlink:href="#MyriadPro-Regular-72" x="608.6"/></g><g style="fill:#969696" transform="matrix(.09716 0 0 -.09716 82.476 318.467)" id="text_21"><defs><path id="MyriadPro-Regular-41" d="M2714 1357 3174 0h596L2298 4314h-672L160 0h576l448 1357h1530zm-1415 435 423 1248c83 262 153 525 217 781h13c64-250 128-506 224-787l422-1242H1299z" transform="scale(.01563)"/><path id="MyriadPro-Regular-50" d="M486 0h557v1728c128-32 282-38 448-38 544 0 1024 160 1319 473 217 224 332 531 332 922 0 384-140 697-377 902-256 231-659 359-1210 359-448 0-800-39-1069-84V0zm557 3859c96 26 282 45 525 45 614 0 1018-275 1018-845 0-595-410-921-1082-921-186 0-339 12-461 44v1677z" transform="scale(.01563)"/><path id="MyriadPro-Regular-49" d="M486 4314V0h557v4314H486z" transform="scale(.01563)"/><path id="MyriadPro-Regular-7c" d="M550 4800v-6400h429v6400H550z" transform="scale(.01563)"/><path id="MyriadPro-Regular-4e" d="M1011 0v1843c0 717-13 1235-45 1779l20 7c217-467 505-960 806-1440L3162 0h563v4314h-525V2509c0-672 13-1197 64-1773l-13-6c-205 441-454 896-774 1401L1094 4314H486V0h525z" transform="scale(.01563)"/><path id="MyriadPro-Regular-53" d="M269 211C499 58 954-70 1370-70c1017 0 1510 582 1510 1248 0 633-371 985-1101 1267-595 230-857 429-857 832 0 294 224 646 812 646 391 0 679-128 820-205l153 455c-192 109-512 211-953 211-839 0-1396-499-1396-1171 0-608 436-973 1140-1223 582-224 812-454 812-857 0-435-332-736-902-736-384 0-749 128-998 281L269 211z" transform="scale(.01563)"/><path id="MyriadPro-Regular-f6" d="M1165 3648c185 0 313 154 313 326 0 186-134 327-313 327s-327-147-327-327c0-172 135-326 320-326h7zm1184 0c185 0 313 154 313 326 0 186-134 327-313 327s-320-147-320-327c0-172 128-326 313-326h7zm-570-480c-857 0-1536-608-1536-1645C243 544 890-70 1728-70c749 0 1542 499 1542 1644 0 948-601 1594-1491 1594zm-13-422c666 0 928-666 928-1191 0-697-403-1203-940-1203-551 0-941 512-941 1190 0 589 288 1204 953 1204z" transform="scale(.01563)"/><path id="MyriadPro-Regular-43" d="M3386 582c-224-108-570-179-909-179-1050 0-1658 679-1658 1735 0 1132 672 1779 1683 1779 359 0 660-77 871-179l134 454c-147 77-486 192-1024 192-1337 0-2253-915-2253-2266C230 704 1146-70 2362-70c524 0 934 108 1139 211l-115 441z" transform="scale(.01563)"/><path id="MyriadPro-Regular-59" d="M2010 0v1837l1446 2477h-634l-620-1191c-167-326-314-608-436-889h-12c-135 300-263 563-429 889L717 4314H83l1363-2484V0h564z" transform="scale(.01563)"/></defs><use xlink:href="#MyriadPro-Regular-47"/><use xlink:href="#MyriadPro-Regular-69" x="64.6"/><use xlink:href="#MyriadPro-Regular-74" x="88"/><use xlink:href="#MyriadPro-Regular-48" x="121.1"/><use xlink:href="#MyriadPro-Regular-75" x="186.3"/><use xlink:href="#MyriadPro-Regular-62" x="241.4"/><use xlink:href="#MyriadPro-Regular-20" x="298.3"/><use xlink:href="#MyriadPro-Regular-41" x="319.5"/><use xlink:href="#MyriadPro-Regular-50" x="380.7"/><use xlink:href="#MyriadPro-Regular-49" x="433.9"/><use xlink:href="#MyriadPro-Regular-20" x="457.8"/><use xlink:href="#MyriadPro-Regular-76" x="479"/><use xlink:href="#MyriadPro-Regular-69" x="527.1"/><use xlink:href="#MyriadPro-Regular-61" x="550.5"/><use xlink:href="#MyriadPro-Regular-20" x="598.7"/><use xlink:href="#MyriadPro-Regular-73" x="619.9"/><use xlink:href="#MyriadPro-Regular-74" x="659.5"/><use xlink:href="#MyriadPro-Regular-61" x="692.6"/><use xlink:href="#MyriadPro-Regular-72" x="740.8"/><use xlink:href="#MyriadPro-Regular-67" x="773.5"/><use xlink:href="#MyriadPro-Regular-72" x="829.4"/><use xlink:href="#MyriadPro-Regular-61" x="862.1"/><use xlink:href="#MyriadPro-Regular-70" x="910.3"/><use xlink:href="#MyriadPro-Regular-68" x="967.2"/><use xlink:href="#MyriadPro-Regular-20" x="1022.7"/><use xlink:href="#MyriadPro-Regular-7c" x="1043.9"/><use xlink:href="#MyriadPro-Regular-20" x="1067.8"/><use xlink:href="#MyriadPro-Regular-4e" x="1089"/><use xlink:href="#MyriadPro-Regular-69" x="1154.8"/><use xlink:href="#MyriadPro-Regular-63" x="1178.2"/><use xlink:href="#MyriadPro-Regular-6f" x="1223"/><use xlink:href="#MyriadPro-Regular-20" x="1277.9"/><use xlink:href="#MyriadPro-Regular-53" x="1299.1"/><use xlink:href="#MyriadPro-Regular-63" x="1348.4"/><use xlink:href="#MyriadPro-Regular-68" x="1393.2"/><use xlink:href="#MyriadPro-Regular-6c" x="1448.7"/><use xlink:href="#MyriadPro-Regular-f6" x="1472.3"/><use xlink:href="#MyriadPro-Regular-6d" x="1527.2"/><use xlink:href="#MyriadPro-Regular-65" x="1610.6"/><use xlink:href="#MyriadPro-Regular-72" x="1660.7"/><use xlink:href="#MyriadPro-Regular-20" x="1693.4"/><use xlink:href="#MyriadPro-Regular-7c" x="1714.6"/><use xlink:href="#MyriadPro-Regular-20" x="1738.5"/><use xlink:href="#MyriadPro-Regular-43" x="1759.7"/><use xlink:href="#MyriadPro-Regular-43" x="1817.7"/><use xlink:href="#MyriadPro-Regular-20" x="1875.7"/><use xlink:href="#MyriadPro-Regular-42" x="1896.9"/><use xlink:href="#MyriadPro-Regular-59" x="1951.1"/></g><path d="m129.73 284.57 2.331-1.2 7.15-.224 11.736-.4 26.036-.72 28.367-.48 4.741-.133 26.036-.843 14.223-.771 6.995-.586 11.89-1.062 2.41-.585 7.072-.62 11.814-1.242 7.15-.871 4.74-.586 11.736-1.17 7.15-1.134 7.15-.957 7.073-1.476 16.477-3.428 2.409-.37 14.3-2.953 4.586-1.261 14.222-4.019 4.741-1.052 4.819-1.133 4.663-1.066 18.963-5.385 4.82-1.238 2.175-.733 2.41-.676 2.331-.786 2.41-.623 2.331-.857 2.41-.733h0" clip-path="url(#p6a22c3b0ae)" style="fill:none;stroke:#d62728;stroke-width:1.5;stroke-linecap:square" id="line2d_22"/><path d="m82.476 284.57 2.41-1.805 9.326-.943 7.15-.567 9.482-.904 4.585-.624 9.482-1.476 4.819-.614 9.481-1.285 4.586-.629 4.74-.909 2.41-.248 2.331-.438 23.705-3.208 7.15-.662 9.482-.353 4.818-.095 4.586-.571 7.072-.905 18.886-2.98 4.74-1.357 2.41-.714 7.15-1.747 2.332-.681 7.15-2.733 2.41-1.223 4.585-1.19 2.331-.762 2.41-1.181 4.74-1.595 2.41-.643 9.482-3.156 9.404-3.4 2.409-.742 2.332-.986 4.818-1.733 7.073-2.7 4.818-1.618 2.176-.88 2.41-1.196 2.331-.961 7.15-2.552 9.482-3.7 2.41-.728 2.409-.99 2.176-.738 2.41-1 2.33-1.204 4.742-1.914 4.818-2.11 16.477-6.66 2.331-1.104 7.15-2.676 4.741-1.838 4.741-1.609 2.41-.91 4.663-1.347 2.409-.71 2.332-.804 2.409-.995 11.89-4.223 7.151-2.452 9.326-3.513 2.332-.824 2.41-1.061h0" clip-path="url(#p6a22c3b0ae)" style="fill:none;stroke:#2ca02c;stroke-width:1.5;stroke-linecap:square" id="line2d_23"/><path d="m87.062 284.57 2.409-5.252 2.332-.433 7.15-1.086 14.3-2.457 4.586-1.052 4.74-.933 21.218-4.775 2.409-.748 14.223-2.975 9.56-1.652 2.253-.495 4.74-.786 7.151-.785 11.891-.529 2.41-.071 2.176-.453 4.74-1.733 11.891-4.027 2.41-1.062 2.331-1.171 6.995-2.666 2.41-1.457 2.33-1.614 4.742-2.723 2.41-1.386 2.408-1.042 2.332-1.314 7.15-4.766 2.41-1.833 2.176-1.3 2.409-1.661 2.331-2.143 2.41-1.78 2.331-2.148 2.41-1.828 7.15-4.58 2.331-1.823 7.073-4.942 7.15-6.423 2.332-1.866 2.409-2.08 2.41-2.41 9.48-7.75 2.41-1.714 2.176-1.957 2.41-3.042 2.331-2.561 7.15-6.442 4.741-4.709 11.736-10.574 4.74-5.532 2.41-2.547 4.74-5.503 2.41-3.3 2.332-3.832 4.74-5.48 2.41-2.547 4.585-5.2 2.41-3.68 2.331-3.837 2.41-3.232 2.331-2.571 4.819-5.966 7.072-7.612 2.41-2.819 2.409-2.2 2.254-1.89 2.409-2.918 2.332-3.095 2.409-3.413 2.331-3.061 2.41-3.352 2.409-2.562 2.332-2.66 2.409-2.124 2.331-2.233 2.41-2.59 4.585-4.523 4.741-5.59 2.41-2.327 4.74-6.547h0" clip-path="url(#p6a22c3b0ae)" style="fill:none;stroke:#ff7f0e;stroke-width:1.5;stroke-linecap:square" id="line2d_24"/><path d="m113.253 284.57 2.176-5.847 9.482-1.281 16.71-2.642 11.657-1.967 4.82-.47 9.48-1.063 7.073-.69 16.632-.733 7.15-.086 14.068-3.851 2.409-.82 7.072-2.846 2.41-.853 2.409-1.175 2.176-1.29 2.41-1.957 2.33-1.595 9.56-5.58 2.332-1.419 2.41-1.333 2.33-1.562 2.41-1.428 4.586-3.218 9.481-7.513 4.819-3.385 2.332-1.733 4.74-3.961 2.41-1.952 2.409-2.161 2.254-2.78 2.41-2.343 2.33-2.057 2.41-2.385 2.332-1.876 2.409-2.338 2.41-2.5 4.74-4.117 2.332-2.295 2.409-2.2 2.41-2.366 2.175-2.385 2.41-3.185 2.331-2.795 7.15-7.884 9.482-13.283 9.404-13.82 7.073-10.708 4.818-8.803 2.332-3.875 2.41-4.38 2.33-3.514 4.82-7.975 2.175-3.113 2.41-4.595 2.331-4.808 2.41-4.261 2.331-3.676 2.41-4.113 4.74-7.213 4.741-6.132 2.41-3 4.663-4.774 2.409-3.276 2.332-3.642 2.409-3.1 2.331-2.623 9.56-12.311 2.331-2.338 4.82-5.542 4.585-4.437 2.331-2.447 2.41-2.085 2.331-2.271 2.41-2.08h0" clip-path="url(#p6a22c3b0ae)" style="fill:none;stroke:#1f77b4;stroke-width:1.5;stroke-linecap:square" id="line2d_25"/></g></g><defs><clipPath id="p6a22c3b0ae"><path d="M82.476 18.457h357.12v266.112H82.476z"/></clipPath></defs></svg>