<svg height="456.21" viewBox="0 0 603.816 342.158" width="805.089" xmlns="http://www.w3.org/2000/svg" xmlns:xlink="http://www.w3.org/1999/xlink"><defs><style>*{stroke-linecap:butt;stroke-linejoin:round}</style></defs><g id="figure_1"><path d="M0 342.158h603.816V0H0z" style="fill:none" id="patch_1"/><g id="axes_1"><path d="M86.396 298.615h357.12V32.503H86.396z" style="fill:none" id="patch_2"/><g id="matplotlib.axis_1"><g id="xtick_1"><g id="line2d_1"><defs><path d="M0 0v3.5" id="mcf44393c72" style="stroke:#969696;stroke-width:.4"/></defs><use style="fill:#969696;stroke:#969696;stroke-width:.4" x="144.476" xlink:href="#mcf44393c72" y="298.615"/></g><g style="fill:#969696" transform="matrix(.14 0 0 -.14 128.91 315.612)" id="text_1"><defs><path d="M3181 371H691c109 602 909 999 1344 1293 583 378 1127 845 1127 1594 0 832-608 1260-1389 1260-973 0-1453-665-1434-1587h403c-12 659 276 1248 1012 1248 544 0 1004-333 1004-915 0-358-128-595-371-845C1626 1658 262 1331 230 0h2951v371z" id="HelveticaNeue-Light-32" transform="scale(.01563)"/><path d="M1779 4179c1024 0 1159-1190 1159-1965 0-780-135-1971-1159-1971S621 1434 621 2214c0 775 134 1965 1158 1965zm0 339C474 4518 218 3258 218 2208 218 1165 474-96 1779-96c1306 0 1562 1261 1562 2310 0 1044-256 2304-1562 2304z" id="HelveticaNeue-Light-30" transform="scale(.01563)"/><path d="M621 3328h1184V0h403v4480h-326c-122-826-557-838-1261-864v-288z" id="HelveticaNeue-Light-31" transform="scale(.01563)"/></defs><use xlink:href="#HelveticaNeue-Light-32"/><use x="55.6" xlink:href="#HelveticaNeue-Light-30"/><use x="111.2" xlink:href="#HelveticaNeue-Light-31"/><use x="166.8" xlink:href="#HelveticaNeue-Light-32"/></g></g><g id="xtick_2"><use style="fill:#969696;stroke:#969696;stroke-width:.4" x="207.539" xlink:href="#mcf44393c72" y="298.615" id="line2d_2"/><g style="fill:#969696" transform="matrix(.14 0 0 -.14 191.973 315.612)" id="text_2"><defs><path d="M192 1114h2067V0h371v1114h672v339h-672v3027h-364L192 1504v-390zm365 339 1689 2438h13V1453H557z" id="HelveticaNeue-Light-34" transform="scale(.01563)"/></defs><use xlink:href="#HelveticaNeue-Light-32"/><use x="55.6" xlink:href="#HelveticaNeue-Light-30"/><use x="111.2" xlink:href="#HelveticaNeue-Light-31"/><use x="166.8" xlink:href="#HelveticaNeue-Light-34"/></g></g><g id="xtick_3"><use style="fill:#969696;stroke:#969696;stroke-width:.4" x="270.516" xlink:href="#mcf44393c72" y="298.615" id="line2d_3"/><g style="fill:#969696" transform="matrix(.14 0 0 -.14 254.95 315.612)" id="text_3"><defs><path d="M1856 2579c685 0 1082-531 1082-1184 0-621-436-1152-1076-1152-780 0-1120 519-1120 1152 0 659 410 1184 1114 1184zm1376 768c-96 781-589 1171-1376 1171-1466 0-1600-1702-1600-2233C256 538 736-96 1824-96c883 0 1517 646 1517 1517 0 877-583 1497-1479 1497-505 0-979-300-1190-742h-13c0 813 192 2003 1235 2003 519 0 864-339 935-832h403z" id="HelveticaNeue-Light-36" transform="scale(.01563)"/></defs><use xlink:href="#HelveticaNeue-Light-32"/><use x="55.6" xlink:href="#HelveticaNeue-Light-30"/><use x="111.2" xlink:href="#HelveticaNeue-Light-31"/><use x="166.8" xlink:href="#HelveticaNeue-Light-36"/></g></g><g id="xtick_4"><use style="fill:#969696;stroke:#969696;stroke-width:.4" x="333.579" xlink:href="#mcf44393c72" y="298.615" id="line2d_4"/><g style="fill:#969696" transform="matrix(.14 0 0 -.14 318.013 315.612)" id="text_4"><defs><path d="M1779 243c-627 0-1139 339-1139 1011 0 660 525 986 1139 973 602 13 1139-326 1139-973 0-684-512-1011-1139-1011zm1357 3155c0 768-698 1120-1363 1120-659 0-1357-352-1357-1120 0-492 262-844 730-985v-13c-551-102-896-563-909-1146C237 352 941-96 1779-96c839 0 1543 448 1543 1350 0 602-340 1031-916 1146v13c455 134 730 499 730 985zm-1357-832c-473-12-960 231-960 832 0 512 467 781 960 781 538 0 954-269 954-781 0-576-461-844-954-832z" id="HelveticaNeue-Light-38" transform="scale(.01563)"/></defs><use xlink:href="#HelveticaNeue-Light-32"/><use x="55.6" xlink:href="#HelveticaNeue-Light-30"/><use x="111.2" xlink:href="#HelveticaNeue-Light-31"/><use x="166.8" xlink:href="#HelveticaNeue-Light-38"/></g></g><g id="xtick_5"><use style="fill:#969696;stroke:#969696;stroke-width:.4" x="396.556" xlink:href="#mcf44393c72" y="298.615" id="line2d_5"/><g style="fill:#969696" transform="matrix(.14 0 0 -.14 380.99 315.612)" id="text_5"><use xlink:href="#HelveticaNeue-Light-32"/><use x="55.6" xlink:href="#HelveticaNeue-Light-30"/><use x="111.2" xlink:href="#HelveticaNeue-Light-32"/><use x="166.8" xlink:href="#HelveticaNeue-Light-30"/></g></g></g><g id="matplotlib.axis_2"><g id="ytick_1"><path clip-path="url(#p6479edc048)" d="M86.396 267.112h357.12" style="fill:none;stroke:#969696;stroke-linecap:square;stroke-width:.3" id="line2d_6"/><g id="line2d_7"><defs><path d="M0 0h-3.5" id="m49282a25c6" style="stroke:#969696;stroke-width:.3"/></defs><use style="fill:#969696;stroke:#969696;stroke-width:.3" x="86.396" xlink:href="#m49282a25c6" y="267.112"/></g><g style="fill:#969696" transform="matrix(.14 0 0 -.14 48.264 272.11)" id="text_6"><use xlink:href="#HelveticaNeue-Light-32"/><use x="55.6" xlink:href="#HelveticaNeue-Light-30"/><use x="111.2" xlink:href="#HelveticaNeue-Light-30"/><use x="166.8" xlink:href="#HelveticaNeue-Light-30"/></g></g><g id="ytick_2"><path clip-path="url(#p6479edc048)" d="M86.396 235.593h357.12" style="fill:none;stroke:#969696;stroke-linecap:square;stroke-width:.3" id="line2d_8"/><use style="fill:#969696;stroke:#969696;stroke-width:.3" x="86.396" xlink:href="#m49282a25c6" y="235.593" id="line2d_9"/><g style="fill:#969696" transform="matrix(.14 0 0 -.14 48.264 240.592)" id="text_7"><use xlink:href="#HelveticaNeue-Light-34"/><use x="55.6" xlink:href="#HelveticaNeue-Light-30"/><use x="111.2" xlink:href="#HelveticaNeue-Light-30"/><use x="166.8" xlink:href="#HelveticaNeue-Light-30"/></g></g><g id="ytick_3"><path clip-path="url(#p6479edc048)" d="M86.396 204.074h357.12" style="fill:none;stroke:#969696;stroke-linecap:square;stroke-width:.3" id="line2d_10"/><use style="fill:#969696;stroke:#969696;stroke-width:.3" x="86.396" xlink:href="#m49282a25c6" y="204.074" id="line2d_11"/><g style="fill:#969696" transform="matrix(.14 0 0 -.14 48.264 209.073)" id="text_8"><use xlink:href="#HelveticaNeue-Light-36"/><use x="55.6" xlink:href="#HelveticaNeue-Light-30"/><use x="111.2" xlink:href="#HelveticaNeue-Light-30"/><use x="166.8" xlink:href="#HelveticaNeue-Light-30"/></g></g><g id="ytick_4"><path clip-path="url(#p6479edc048)" d="M86.396 172.556h357.12" style="fill:none;stroke:#969696;stroke-linecap:square;stroke-width:.3" id="line2d_12"/><use style="fill:#969696;stroke:#969696;stroke-width:.3" x="86.396" xlink:href="#m49282a25c6" y="172.556" id="line2d_13"/><g style="fill:#969696" transform="matrix(.14 0 0 -.14 48.264 177.554)" id="text_9"><use xlink:href="#HelveticaNeue-Light-38"/><use x="55.6" xlink:href="#HelveticaNeue-Light-30"/><use x="111.2" xlink:href="#HelveticaNeue-Light-30"/><use x="166.8" xlink:href="#HelveticaNeue-Light-30"/></g></g><g id="ytick_5"><path clip-path="url(#p6479edc048)" d="M86.396 141.037h357.12" style="fill:none;stroke:#969696;stroke-linecap:square;stroke-width:.3" id="line2d_14"/><use style="fill:#969696;stroke:#969696;stroke-width:.3" x="86.396" xlink:href="#m49282a25c6" y="141.037" id="line2d_15"/><g style="fill:#969696" transform="matrix(.14 0 0 -.14 40.48 146.036)" id="text_10"><use xlink:href="#HelveticaNeue-Light-31"/><use x="55.6" xlink:href="#HelveticaNeue-Light-30"/><use x="111.2" xlink:href="#HelveticaNeue-Light-30"/><use x="166.8" xlink:href="#HelveticaNeue-Light-30"/><use x="222.4" xlink:href="#HelveticaNeue-Light-30"/></g></g><g id="ytick_6"><path clip-path="url(#p6479edc048)" d="M86.396 109.519h357.12" style="fill:none;stroke:#969696;stroke-linecap:square;stroke-width:.3" id="line2d_16"/><use style="fill:#969696;stroke:#969696;stroke-width:.3" x="86.396" xlink:href="#m49282a25c6" y="109.519" id="line2d_17"/><g style="fill:#969696" transform="matrix(.14 0 0 -.14 40.48 114.517)" id="text_11"><use xlink:href="#HelveticaNeue-Light-31"/><use x="55.6" xlink:href="#HelveticaNeue-Light-32"/><use x="111.2" xlink:href="#HelveticaNeue-Light-30"/><use x="166.8" xlink:href="#HelveticaNeue-Light-30"/><use x="222.4" xlink:href="#HelveticaNeue-Light-30"/></g></g><g id="ytick_7"><path clip-path="url(#p6479edc048)" d="M86.396 78h357.12" style="fill:none;stroke:#969696;stroke-linecap:square;stroke-width:.3" id="line2d_18"/><use style="fill:#969696;stroke:#969696;stroke-width:.3" x="86.396" xlink:href="#m49282a25c6" y="78" id="line2d_19"/><g style="fill:#969696" transform="matrix(.14 0 0 -.14 40.48 82.998)" id="text_12"><use xlink:href="#HelveticaNeue-Light-31"/><use x="55.6" xlink:href="#HelveticaNeue-Light-34"/><use x="111.2" xlink:href="#HelveticaNeue-Light-30"/><use x="166.8" xlink:href="#HelveticaNeue-Light-30"/><use x="222.4" xlink:href="#HelveticaNeue-Light-30"/></g></g><g id="ytick_8"><path clip-path="url(#p6479edc048)" d="M86.396 46.481h357.12" style="fill:none;stroke:#969696;stroke-linecap:square;stroke-width:.3" id="line2d_20"/><use style="fill:#969696;stroke:#969696;stroke-width:.3" x="86.396" xlink:href="#m49282a25c6" y="46.481" id="line2d_21"/><g style="fill:#969696" transform="matrix(.14 0 0 -.14 40.48 51.48)" id="text_13"><use xlink:href="#HelveticaNeue-Light-31"/><use x="55.6" xlink:href="#HelveticaNeue-Light-36"/><use x="111.2" xlink:href="#HelveticaNeue-Light-30"/><use x="166.8" xlink:href="#HelveticaNeue-Light-30"/><use x="222.4" xlink:href="#HelveticaNeue-Light-30"/></g></g><g style="fill:#969696" transform="matrix(.14 0 0 -.14 7.2 17.197)" id="text_14"><defs><path d="M4365 2323H2426v-371h1555c19-966-570-1677-1581-1677-1210 0-1722 1011-1722 2010 0 998 512 2009 1722 2009 870 0 1414-620 1472-1145h435c-166 998-947 1517-1907 1517-1440 0-2157-1133-2157-2381S960-96 2400-96c659 0 1274 275 1581 928h13l57-832h314v2323z" id="HelveticaNeue-Light-47" transform="scale(.01563)"/><path d="M390 0h404v3302H390V0zm0 3923h404v647H390v-647z" id="HelveticaNeue-Light-69" transform="scale(.01563)"/><path d="M1024 4294H621v-992H45v-339h576V704c-7-563 179-742 717-742 121 0 236 12 358 12v346c-115-13-230-19-346-19-288 19-326 173-326 435v2227h672v339h-672v992z" id="HelveticaNeue-Light-74" transform="scale(.01563)"/><path d="M461 0h435v2214h2714V0h435v4570h-435V2586H896v1984H461V0z" id="HelveticaNeue-Light-48" transform="scale(.01563)"/><path d="M3059 3302h-403V1568c0-672-301-1325-992-1325-640 0-864 314-883 909v2150H378V1158C378 390 704-96 1536-96c493 0 928 250 1139 691h13V0h371v3302z" id="HelveticaNeue-Light-75" transform="scale(.01563)"/><path d="M3027 1651c0-685-313-1408-1081-1408-858 0-1159 723-1159 1408s301 1408 1159 1408c768 0 1081-723 1081-1408zM384 0h371v627h13C954 179 1414-96 1946-96c1004 0 1484 813 1484 1747 0 935-480 1747-1484 1747-493 0-973-249-1146-723h-13v1895H384V0z" id="HelveticaNeue-Light-62" transform="scale(.01563)"/><path d="M2765 2336c-26 717-551 1062-1210 1062-582 0-1241-256-1241-928 0-563 396-742 921-883l519-115c364-90 723-218 723-602 0-460-525-627-903-627-537 0-940 282-972 826H198C262 262 787-96 1555-96c615 0 1325 275 1325 992 0 576-480 845-941 915l-537 122c-276 70-685 198-685 557 0 428 422 569 781 569 460 0 844-224 864-723h403z" id="HelveticaNeue-Light-73" transform="scale(.01563)"/><path d="M2496 1280c6-646-538-1037-1152-1037-378 0-736 250-736 653 0 646 851 640 1536 762 109 19 288 51 339 147h13v-525zM749 2291c13 538 384 768 883 768 474 0 864-134 864-678 0-365-186-410-518-448-871-103-1773-135-1773-1063 0-665 499-966 1107-966 634 0 922 243 1203 672h13c0-346 64-576 474-576 108 0 172 6 262 26v339c-32-13-83-26-128-26-160 0-237 90-237 243v1754c0 883-633 1062-1216 1062-755 0-1299-332-1337-1107h403z" id="HelveticaNeue-Light-61" transform="scale(.01563)"/><path d="M384 0h403v1760c0 685 499 1222 1229 1184v403c-595 26-1043-288-1248-819h-13v774H384V0z" id="HelveticaNeue-Light-72" transform="scale(.01563)"/></defs><use xlink:href="#HelveticaNeue-Light-47"/><use x="74.1" xlink:href="#HelveticaNeue-Light-69"/><use x="92.6" xlink:href="#HelveticaNeue-Light-74"/><use x="122.2" xlink:href="#HelveticaNeue-Light-48"/><use x="192.6" xlink:href="#HelveticaNeue-Light-75"/><use x="246.3" xlink:href="#HelveticaNeue-Light-62"/><use x="303.7" xlink:href="#HelveticaNeue-Light-20"/><use x="331.5" xlink:href="#HelveticaNeue-Light-73"/><use x="379.6" xlink:href="#HelveticaNeue-Light-74"/><use x="409.2" xlink:href="#HelveticaNeue-Light-61"/><use x="461.1" xlink:href="#HelveticaNeue-Light-72"/><use x="492.6" xlink:href="#HelveticaNeue-Light-73"/></g></g><path clip-path="url(#p6479edc048)" d="m325.15 298.615 2.105-.379 2.238-.189 1.006-.094.718-.047 2.123-.064 2.188-.394 1.523-.189 1.246-.204 2.538-.379 1.547-.189 1.908-.205 2.586-.394 1.241-.189 1.522-.205 2.272-.378 1.612-.189 1.588-.205 2.236-.394 2.044-.394 2.521-.394 1.55-.189 1.713-.205 2.294-.394 1.429-.189 1.552-.205 2.055-.378 1.728-.394.973-.19 1.643-.204 1.981-.394 1.662-.788 1.519-.189 1.38-.205 2.298-.394 1.234-.189 1.41-.19 2.312-.393 1.425-.19 1.405-.204 1.763-.19 1.439-.204 1.187-.19 1.491-.204 2.021-.394 2.452-.394 2.437-.394 1.623-.158 1.022-.157.856-.315 1.164-.316 1.53-.315 2.17-.252 1.868-.252 2.245-.3 1.419-.315 1.394-.189 1.204-.189 2.426-.394 1.75-.268 1.312-.283 1.806-.221.956-.22 2.023-.158.708-.174 2.317-.378 1.496-.378 1.99-.158 1.117-.157 1.33-.174 1.363-.173" style="fill:none;stroke:#e377c2;stroke-linecap:square;stroke-width:1.5" id="line2d_22"/><path clip-path="url(#p6479edc048)" d="m245.898 298.615 1.659-.379 2.235-.394 1.894-.378 2.503-.394 2.342-.378 2.432-.394 2.064-.378 2.044-.394 1.902-.378 1.996-.19 1.285-.204 2.405-.379 1.012-.189 1.887-.205 1.521-.189 1.113-.189 1.165-.189 2.396-.205 1.736-.189 1.564-.205 1.9-.189 2.243-.205 1.817-.378 1.137-.19 2.083-.204 2.328-.378 1.139-.19 1.876-.204 2.397-.19 1.231-.188 1.468-.19 2.126-.204 2.517-.379 1.403-.189 1.382-.205 1.504-.189 1.21-.189 1.237-.189 1.595-.205 2.268-.378 1.734-.19 1.305-.204 2.478-.378 2.256-.19 1.55-.204 1.756-.19 1.56-.204 1.634-.19 1.213-.204 2.165-.19 1.617-.188 2.119-.394 1.668-.19 1.798-.189 1.802-.189 1.838-.205 1.745-.189 1.756-.189 1.965-.189.95-.094 2.205-.11 2.409-.19 2.48-.189 1.4-.394 1.242-.772 2.136-.378 2.415-.394 2.098-.379 1.161-.394 1.705-.394 1.713-.394 1.461-.378 1.098-.189 1.677-.205 2.06-.378 1.548-.19 1.456-.204 2.12-.378 2.015-.394 1.216-.394 2.331-.394 1.368-.19 1.249-.188 1.7-.394 2.029-.379 1.804-.394 1.636-.189 1.007-.189 1.931-.394.961-.394 1.819-.394 1.699-.346 1.29-.363 1.377-.347 1.694-.362 2.3-.41 1.992-.425 2.106-.394 1.583-.41 1.585-.347 1.282-.346 2.102-.694 1.538-.347 1.494-.362 1.378-.315 1.275-.315 1.664-.268 1.11-.268 2.163-.41 1.749-.41 1.856-.236 1.117-.252 1.632-.237 1.207-.252" style="fill:none;stroke:#8c564b;stroke-linecap:square;stroke-width:1.5" id="line2d_23"/><path clip-path="url(#p6479edc048)" d="m222.597 298.615 2.926-.316.371-.33.79-.316 1.027-.157 2.403-.142 8.132-.142 5.435-.205.663-.157 6.461-.41 8.122-.41 1.182-.646 1.934-.315 5.09-.331 5.658-.473 8.113-.82 2.258-.646.31-.315.437-.157 5.663-.489 2.842-.646 6.965-.977 1.155-.315 2.672-.331 2.38-.315 4.676-.993 3.317-1.292 3.144-.647 2.094-.646 3.23-1.292 1.724-.315 2.448-.662 1.795-.331 2.41-.646 4.025-1.292 7.499-3.247 2.235-.646 1.608-.646 5.506-1.608 2.957-.646 1.29-.33 5.44-1.939 2.693-.646 9.89-3.23 1.221-.663 2.947-.961 1.59-.331 1.589-.646 7.543-2.585 1.254-.662 6.845-1.938 3.74-1.292 4.066-1.292 1.862-.662 1.844-.473 1.058-.473 1.376-.473 6.054-1.56 5.495-1.56.766-.441 10.882-3.893 3.964-.961 1.797-.489 1.236-.488 1.914-.394.903-.394h0" style="fill:none;stroke:#9467bd;stroke-linecap:square;stroke-width:1.5" id="line2d_24"/><g style="fill:#1f77b4" transform="matrix(.14 0 0 -.14 454.23 36.165)" id="text_15"><defs><path d="M2765 3014v288H243v-339h2010L96 326V0h2758v339H582l2183 2675z" id="HelveticaNeue-Light-7a" transform="scale(.01563)"/><path d="M3162 1542c32 928-391 1856-1453 1856-1050 0-1491-876-1491-1747C218 710 659-96 1709-96c832 0 1267 435 1440 1184h-403c-128-499-448-845-1037-845-775 0-1082 711-1088 1299h2541zM621 1882c64 601 429 1177 1088 1177 653 0 1030-569 1049-1177H621z" id="HelveticaNeue-Light-65" transform="scale(.01563)"/><path d="M390 0h404v4570H390V0z" id="HelveticaNeue-Light-6c" transform="scale(.01563)"/><path d="M646 1651c0 685 314 1408 1082 1408 858 0 1158-723 1158-1408S2586 243 1728 243C960 243 646 966 646 1651zm2644 2919h-404V2675h-12c-173 474-653 723-1146 723-1005 0-1485-812-1485-1747C243 717 723-96 1728-96c480 0 1005 294 1178 723h12V0h372v4570z" id="HelveticaNeue-Light-64" transform="scale(.01563)"/><path d="m262-96 1952 4762h-326L-83-96h345z" id="HelveticaNeue-Light-2f" transform="scale(.01563)"/></defs><use xlink:href="#HelveticaNeue-Light-62"/><use x="57.4" xlink:href="#HelveticaNeue-Light-61"/><use x="109.3" xlink:href="#HelveticaNeue-Light-7a"/><use x="155.6" xlink:href="#HelveticaNeue-Light-65"/><use x="207.5" xlink:href="#HelveticaNeue-Light-6c"/><use x="226" xlink:href="#HelveticaNeue-Light-62"/><use x="283.4" xlink:href="#HelveticaNeue-Light-75"/><use x="337.1" xlink:href="#HelveticaNeue-Light-69"/><use x="355.6" xlink:href="#HelveticaNeue-Light-6c"/><use x="374.1" xlink:href="#HelveticaNeue-Light-64"/><use x="431.5" xlink:href="#HelveticaNeue-Light-2f"/><use x="464.8" xlink:href="#HelveticaNeue-Light-62"/><use x="522.2" xlink:href="#HelveticaNeue-Light-61"/><use x="574.1" xlink:href="#HelveticaNeue-Light-7a"/><use x="620.4" xlink:href="#HelveticaNeue-Light-65"/><use x="672.3" xlink:href="#HelveticaNeue-Light-6c"/></g><g style="fill:#ff7f0e" transform="matrix(.14 0 0 -.14 454.23 177.431)" id="text_16"><defs><path d="M1658 3302h-653v288c6 359-7 640 441 640 96 0 186-12 295-32v346c-128 19-224 26-339 26-647 0-807-397-800-967v-301H38v-339h564V0h403v2963h653v339z" id="HelveticaNeue-Light-66" transform="scale(.01563)"/><path d="M3117 2266c-90 755-634 1132-1338 1132-1011 0-1561-800-1561-1747S768-96 1779-96c736 0 1255 486 1363 1280h-403c-51-550-461-941-960-941-774 0-1158 704-1158 1408s384 1408 1158 1408c525 0 826-301 935-793h403z" id="HelveticaNeue-Light-63" transform="scale(.01563)"/><path d="M1779 3398c-1011 0-1561-800-1561-1747S768-96 1779-96s1562 800 1562 1747-551 1747-1562 1747zm0-339c775 0 1159-704 1159-1408S2554 243 1779 243c-774 0-1158 704-1158 1408s384 1408 1158 1408z" id="HelveticaNeue-Light-6f" transform="scale(.01563)"/><path d="M384 0h403v1254l653 544L2746 0h505L1747 2080l1408 1222h-537L787 1702v2868H384V0z" id="HelveticaNeue-Light-6b" transform="scale(.01563)"/></defs><use xlink:href="#HelveticaNeue-Light-66"/><use x="25.9" xlink:href="#HelveticaNeue-Light-61"/><use x="77.8" xlink:href="#HelveticaNeue-Light-63"/><use x="129.7" xlink:href="#HelveticaNeue-Light-65"/><use x="181.6" xlink:href="#HelveticaNeue-Light-62"/><use x="239" xlink:href="#HelveticaNeue-Light-6f"/><use x="294.6" xlink:href="#HelveticaNeue-Light-6f"/><use x="350.2" xlink:href="#HelveticaNeue-Light-6b"/><use x="400.2" xlink:href="#HelveticaNeue-Light-2f"/><use x="433.5" xlink:href="#HelveticaNeue-Light-62"/><use x="490.9" xlink:href="#HelveticaNeue-Light-75"/><use x="544.6" xlink:href="#HelveticaNeue-Light-63"/><use x="596.5" xlink:href="#HelveticaNeue-Light-6b"/></g><g style="fill:#2ca02c" transform="matrix(.14 0 0 -.14 454.23 192.586)" id="text_17"><defs><path d="M378 0h403v1926c13 647 397 1133 1037 1133 652 0 838-429 838-998V0h403v2125c0 787-281 1273-1209 1273-468 0-909-268-1056-665h-13v569H378V0z" id="HelveticaNeue-Light-6e" transform="scale(.01563)"/><path d="M390-403c0-275-51-480-364-480-64-7-154 0-218 6v-333c96 0 186-12 282-12 569 0 704 422 704 915v3609H390V-403zm0 4326h404v647H390v-647z" id="HelveticaNeue-Light-6a" transform="scale(.01563)"/><path d="M1984 1574v372H384v-372h1600z" id="HelveticaNeue-Light-2d" transform="scale(.01563)"/></defs><use xlink:href="#HelveticaNeue-Light-6e"/><use x="53.7" xlink:href="#HelveticaNeue-Light-69"/><use x="72.2" xlink:href="#HelveticaNeue-Light-6e"/><use x="125.9" xlink:href="#HelveticaNeue-Light-6a"/><use x="144.4" xlink:href="#HelveticaNeue-Light-61"/><use x="196.3" xlink:href="#HelveticaNeue-Light-2d"/><use x="233.3" xlink:href="#HelveticaNeue-Light-62"/><use x="290.7" xlink:href="#HelveticaNeue-Light-75"/><use x="344.4" xlink:href="#HelveticaNeue-Light-69"/><use x="362.9" xlink:href="#HelveticaNeue-Light-6c"/><use x="381.4" xlink:href="#HelveticaNeue-Light-64"/><use x="438.8" xlink:href="#HelveticaNeue-Light-2f"/><use x="472.1" xlink:href="#HelveticaNeue-Light-6e"/><use x="525.8" xlink:href="#HelveticaNeue-Light-69"/><use x="544.3" xlink:href="#HelveticaNeue-Light-6e"/><use x="598" xlink:href="#HelveticaNeue-Light-6a"/><use x="616.5" xlink:href="#HelveticaNeue-Light-61"/></g><g style="fill:#d62728" transform="matrix(.14 0 0 -.14 454.23 237.393)" id="text_18"><defs><path d="M461 0h435v1568l877 813L3674 0h563L2099 2682l2042 1888h-589L896 2112v2458H461V0z" id="HelveticaNeue-Light-4b" transform="scale(.01563)"/><path d="M1114 0h441l807 2778h12L3187 0h442l1062 3302h-429L3418 474h-13l-807 2828h-454L1338 474h-13L480 3302H51L1114 0z" id="HelveticaNeue-Light-77" transform="scale(.01563)"/><path d="M4237 3187c-115 960-973 1479-1837 1479-1440 0-2157-1133-2157-2381S960-96 2400-96c1069 0 1779 717 1901 1837h-435c-84-813-621-1466-1466-1466-1210 0-1722 1011-1722 2010 0 998 512 2009 1722 2009 666 0 1248-403 1402-1107h435z" id="HelveticaNeue-Light-43" transform="scale(.01563)"/><path d="M448 0h435v3949h13L2464 0h410l1561 3949h13V0h435v4570h-640L2669 563 1088 4570H448V0z" id="HelveticaNeue-Light-4d" transform="scale(.01563)"/></defs><use xlink:href="#HelveticaNeue-Light-4b"/><use x="64.8" xlink:href="#HelveticaNeue-Light-69"/><use x="83.3" xlink:href="#HelveticaNeue-Light-74"/><use x="112.9" xlink:href="#HelveticaNeue-Light-77"/><use x="187" xlink:href="#HelveticaNeue-Light-61"/><use x="238.9" xlink:href="#HelveticaNeue-Light-72"/><use x="270.4" xlink:href="#HelveticaNeue-Light-65"/><use x="322.3" xlink:href="#HelveticaNeue-Light-2f"/><use x="355.6" xlink:href="#HelveticaNeue-Light-43"/><use x="426" xlink:href="#HelveticaNeue-Light-4d"/><use x="509.3" xlink:href="#HelveticaNeue-Light-61"/><use x="561.2" xlink:href="#HelveticaNeue-Light-6b"/><use x="611.2" xlink:href="#HelveticaNeue-Light-65"/></g><g style="fill:#9467bd" transform="matrix(.14 0 0 -.14 454.23 251.393)" id="text_19"><defs><path d="M384 0h403v1843c7 691 288 1216 986 1216 512 0 697-371 691-819V0h403v1869c0 614 199 1190 896 1190 576 0 781-294 781-838V0h403v2240c0 781-371 1158-1094 1158-435 0-851-211-1050-646-121 435-512 646-947 646-525 0-870-256-1082-652h-19v556H384V0z" id="HelveticaNeue-Light-6d" transform="scale(.01563)"/></defs><use xlink:href="#HelveticaNeue-Light-6d"/><use x="83.3" xlink:href="#HelveticaNeue-Light-65"/><use x="135.2" xlink:href="#HelveticaNeue-Light-73"/><use x="183.3" xlink:href="#HelveticaNeue-Light-6f"/><use x="238.9" xlink:href="#HelveticaNeue-Light-6e"/><use x="292.6" xlink:href="#HelveticaNeue-Light-62"/><use x="350" xlink:href="#HelveticaNeue-Light-75"/><use x="403.7" xlink:href="#HelveticaNeue-Light-69"/><use x="422.2" xlink:href="#HelveticaNeue-Light-6c"/><use x="440.7" xlink:href="#HelveticaNeue-Light-64"/><use x="498.1" xlink:href="#HelveticaNeue-Light-2f"/><use x="531.4" xlink:href="#HelveticaNeue-Light-6d"/><use x="614.7" xlink:href="#HelveticaNeue-Light-65"/><use x="666.6" xlink:href="#HelveticaNeue-Light-73"/><use x="714.7" xlink:href="#HelveticaNeue-Light-6f"/><use x="770.3" xlink:href="#HelveticaNeue-Light-6e"/></g><g style="fill:#8c564b" transform="matrix(.14 0 0 -.14 454.23 269.476)" id="text_20"><defs><path d="M3027 1651c0-685-313-1408-1081-1408-858 0-1159 723-1159 1408 0 749 269 1408 1159 1408 768 0 1081-723 1081-1408zM384-1222h403V627h13C973 154 1453-96 1946-96c1004 0 1484 813 1484 1747 0 935-480 1747-1484 1747-532 0-992-275-1178-723h-13v627H384v-4524z" id="HelveticaNeue-Light-70" transform="scale(.01563)"/></defs><use xlink:href="#HelveticaNeue-Light-70"/><use x="57.4" xlink:href="#HelveticaNeue-Light-72"/><use x="88.9" xlink:href="#HelveticaNeue-Light-65"/><use x="140.8" xlink:href="#HelveticaNeue-Light-6d"/><use x="224.1" xlink:href="#HelveticaNeue-Light-61"/><use x="276" xlink:href="#HelveticaNeue-Light-6b"/><use x="326" xlink:href="#HelveticaNeue-Light-65"/><use x="377.9" xlink:href="#HelveticaNeue-Light-2f"/><use x="411.2" xlink:href="#HelveticaNeue-Light-70"/><use x="468.6" xlink:href="#HelveticaNeue-Light-72"/><use x="500.1" xlink:href="#HelveticaNeue-Light-65"/><use x="552" xlink:href="#HelveticaNeue-Light-6d"/><use x="635.3" xlink:href="#HelveticaNeue-Light-61"/><use x="687.2" xlink:href="#HelveticaNeue-Light-6b"/><use x="737.2" xlink:href="#HelveticaNeue-Light-65"/><use x="789.1" xlink:href="#HelveticaNeue-Light-2d"/><use x="826.1" xlink:href="#HelveticaNeue-Light-63"/><use x="878" xlink:href="#HelveticaNeue-Light-6f"/><use x="933.6" xlink:href="#HelveticaNeue-Light-72"/><use x="965.1" xlink:href="#HelveticaNeue-Light-65"/></g><g style="fill:#e377c2" transform="matrix(.14 0 0 -.14 454.23 283.854)" id="text_21"><defs><path d="M230 1504C179 390 973-96 2054-96c1620 0 1748 992 1748 1306 0 748-538 1030-1184 1203l-1114 275c-371 90-691 269-691 698 0 678 550 908 1145 908 647 0 1223-352 1248-1049h436c6 934-788 1421-1690 1421-1286 0-1574-839-1574-1287 0-710 492-966 1030-1101l1018-249c422-103 940-307 940-826 0-665-729-928-1209-928-832 0-1511 288-1491 1229H230z" id="HelveticaNeue-Light-53" transform="scale(.01563)"/></defs><use xlink:href="#HelveticaNeue-Light-53"/><use x="63" xlink:href="#HelveticaNeue-Light-43"/><use x="133.4" xlink:href="#HelveticaNeue-Light-6f"/><use x="189" xlink:href="#HelveticaNeue-Light-6e"/><use x="242.7" xlink:href="#HelveticaNeue-Light-73"/><use x="290.8" xlink:href="#HelveticaNeue-Light-2f"/><use x="324.1" xlink:href="#HelveticaNeue-Light-73"/><use x="372.2" xlink:href="#HelveticaNeue-Light-63"/><use x="424.1" xlink:href="#HelveticaNeue-Light-6f"/><use x="479.7" xlink:href="#HelveticaNeue-Light-6e"/><use x="533.4" xlink:href="#HelveticaNeue-Light-73"/></g><g style="fill:#969696" transform="matrix(.09716 0 0 -.09716 86.396 332.878)" id="text_22"><defs><path d="M-45 0h467l551 1421h2080L3610 0h467L2285 4570h-487L-45 0zm2067 4134 884-2342H1107l915 2342z" id="HelveticaNeue-Light-41" transform="scale(.01563)"/><path d="M461 0h435v1958h1594c819 0 1356 480 1356 1306s-537 1306-1356 1306H461V0zm435 4198h1498c601 0 1017-307 1017-934s-416-934-1017-934H896v1868z" id="HelveticaNeue-Light-50" transform="scale(.01563)"/><path d="M493 0h435v4570H493V0z" id="HelveticaNeue-Light-49" transform="scale(.01563)"/><path d="M1286 0h429l1235 3302h-416L1510 403h-12L461 3302H13L1286 0z" id="HelveticaNeue-Light-76" transform="scale(.01563)"/><path d="M1709 378c-743 0-1088 646-1088 1312 0 684 320 1369 1088 1369 761 0 1062-723 1062-1369 0-672-365-1312-1062-1312zm1465 2924h-403v-569h-13c-160 365-569 665-1049 665-954 0-1491-755-1491-1664C218 794 653 38 1709 38c473 0 864 276 1049 679h13V269c0-807-320-1248-1062-1248-448 0-877 173-967 659H339c58-704 711-998 1370-998 1081 0 1459 601 1465 1587v3033z" id="HelveticaNeue-Light-67" transform="scale(.01563)"/><path d="M378 0h403v1926c13 647 397 1133 1037 1133 652 0 838-429 838-998V0h403v2125c0 787-281 1273-1209 1273-468 0-909-268-1056-665h-13v1837H378V0z" id="HelveticaNeue-Light-68" transform="scale(.01563)"/><path d="M544-1370h339v6400H544v-6400z" id="HelveticaNeue-Light-7c" transform="scale(.01563)"/><path d="M454 0h436v3866h12L3565 0h486v4570h-435V704h-13L941 4570H454V0z" id="HelveticaNeue-Light-4e" transform="scale(.01563)"/><path d="M1779 3398c-1011 0-1561-800-1561-1747S768-96 1779-96s1562 800 1562 1747-551 1747-1562 1747zm0-339c775 0 1159-704 1159-1408S2554 243 1779 243c-774 0-1158 704-1158 1408s384 1408 1158 1408zm787 813v646h-435v-646h435zm-1132 0v646H998v-646h436z" id="HelveticaNeue-Light-f6" transform="scale(.01563)"/><path d="M896 2195h1498c761 0 1203-301 1203-883 0-730-557-947-1203-941H896v1824zM461 0h1933c1484 0 1638 864 1638 1299 0 595-378 1037-966 1114v13c473 102 793 544 793 1024 0 851-697 1120-1465 1120H461V0zm435 4198h1498c678 0 1030-288 1030-857 0-429-333-775-1030-775H896v1632z" id="HelveticaNeue-Light-42" transform="scale(.01563)"/><path d="M1734 0h436v1882l1804 2688h-518L1958 2253 454 4570H-64l1798-2688V0z" id="HelveticaNeue-Light-59" transform="scale(.01563)"/></defs><use xlink:href="#HelveticaNeue-Light-47"/><use x="74.1" xlink:href="#HelveticaNeue-Light-69"/><use x="92.6" xlink:href="#HelveticaNeue-Light-74"/><use x="122.2" xlink:href="#HelveticaNeue-Light-48"/><use x="192.6" xlink:href="#HelveticaNeue-Light-75"/><use x="246.3" xlink:href="#HelveticaNeue-Light-62"/><use x="303.7" xlink:href="#HelveticaNeue-Light-20"/><use x="331.5" xlink:href="#HelveticaNeue-Light-41"/><use x="394.5" xlink:href="#HelveticaNeue-Light-50"/><use x="457.5" xlink:href="#HelveticaNeue-Light-49"/><use x="479.7" xlink:href="#HelveticaNeue-Light-20"/><use x="507.5" xlink:href="#HelveticaNeue-Light-76"/><use x="553.8" xlink:href="#HelveticaNeue-Light-69"/><use x="572.3" xlink:href="#HelveticaNeue-Light-61"/><use x="624.2" xlink:href="#HelveticaNeue-Light-20"/><use x="652" xlink:href="#HelveticaNeue-Light-73"/><use x="700.1" xlink:href="#HelveticaNeue-Light-74"/><use x="729.7" xlink:href="#HelveticaNeue-Light-61"/><use x="781.6" xlink:href="#HelveticaNeue-Light-72"/><use x="813.1" xlink:href="#HelveticaNeue-Light-67"/><use x="868.7" xlink:href="#HelveticaNeue-Light-72"/><use x="900.2" xlink:href="#HelveticaNeue-Light-61"/><use x="952.1" xlink:href="#HelveticaNeue-Light-70"/><use x="1009.5" xlink:href="#HelveticaNeue-Light-68"/><use x="1063.2" xlink:href="#HelveticaNeue-Light-20"/><use x="1091" xlink:href="#HelveticaNeue-Light-7c"/><use x="1113.2" xlink:href="#HelveticaNeue-Light-20"/><use x="1141" xlink:href="#HelveticaNeue-Light-4e"/><use x="1211.4" xlink:href="#HelveticaNeue-Light-69"/><use x="1229.9" xlink:href="#HelveticaNeue-Light-63"/><use x="1281.8" xlink:href="#HelveticaNeue-Light-6f"/><use x="1337.4" xlink:href="#HelveticaNeue-Light-20"/><use x="1365.2" xlink:href="#HelveticaNeue-Light-53"/><use x="1428.2" xlink:href="#HelveticaNeue-Light-63"/><use x="1480.1" xlink:href="#HelveticaNeue-Light-68"/><use x="1533.8" xlink:href="#HelveticaNeue-Light-6c"/><use x="1552.3" xlink:href="#HelveticaNeue-Light-f6"/><use x="1607.9" xlink:href="#HelveticaNeue-Light-6d"/><use x="1691.2" xlink:href="#HelveticaNeue-Light-65"/><use x="1743.1" xlink:href="#HelveticaNeue-Light-72"/><use x="1774.6" xlink:href="#HelveticaNeue-Light-20"/><use x="1802.4" xlink:href="#HelveticaNeue-Light-7c"/><use x="1824.6" xlink:href="#HelveticaNeue-Light-20"/><use x="1852.4" xlink:href="#HelveticaNeue-Light-43"/><use x="1922.8" xlink:href="#HelveticaNeue-Light-43"/><use x="1993.2" xlink:href="#HelveticaNeue-Light-20"/><use x="2021" xlink:href="#HelveticaNeue-Light-42"/><use x="2087.7" xlink:href="#HelveticaNeue-Light-59"/></g><path clip-path="url(#p6479edc048)" d="m86.396 298.615.927-.41 1.996-.032 15.773-.157 5.696-.11 9.92-.11 28.359-.458 25.468-.3 8.311-.078 8.253-.426 10.36-.504 7.258-.551 7.738-.568.323-.079 3.133-.094 4.992-.473 3.438-.268 1.496-.189 3.536-.378 4.874-.567 2.569-.19 2.577-.362 1.782-.378 5.916-.741 12.07-2.033 3.8-.551 3.478-.741 7.33-1.497 1.995-.379 3.023-.362 3.32-.74 17.928-3.342 7.289-2.6 4.772-1.119 1.047-.362 8.95-1.86 5.869-1.119 11.767-2.6 4.803-.74 1.482-.363 2.295-.379 1.044-.362 2.665-.378 2.337-.378 1.489-.379 9.465-2.962 3.247-1.482 5.612-2.238 3.924-1.481 15.618-5.941 1.645-.74 4.097-1.482 1.525-.741 1.273-.756 1.806-.741 1.301-.757 3.114-1.497 2.698-.898 1.522-.898 2.044-.536 1.447-.552 2.265-.52 4.522-2.19 1.359-.583 1.639-.552 1.116-.567 1.92-.363 4.663-2.175 1.791-.693 1.188-.71 2.87-.96h0" style="fill:none;stroke:#d62728;stroke-linecap:square;stroke-width:1.5" id="line2d_25"/><path clip-path="url(#p6479edc048)" d="m116.162 298.615 1.2-6.21 7.683-.52 20.261-.882 5.404-.126 3.496-.205 7.834-.142 6.632-.079 12.115-.078.614-.174 2.955-.347 2.194-.33 2.855-.347 2.756-.331 4.928-.504 1.88-.174 1.563-.346 21.091-3.373 2.455-.33 2.489-.505 1.672-.174 5.548-1.024 4.46-.82 2.295-.173 3.717-.677 1.924-.347.411-.678 1.647-.677 3.695-.836 1.635-.173 1.728-.347 1.073-.33 1.627-.347 5.752-.993 1.188-.347 3.259-2.017 1.833-.678 2.78-.677 2.442-.678 1.653-.662 4.628-1.355 3.35-1.356 2.81-.677 8.046-2.695 2.653-.678 13.756-4.727 5.515-1.356 3.599-1.008 1.31-.347 2.928-1.355 1.622-.662 2.812-1.356 1.447-.677 3.842-1.34 4.214-2.017 2.707-1.355 1.371-.678 3.544-1.355 2.363-1.356 1.806-.661 3.016-1.356 1.71-.677 2.027-.678 1.357-.678 8.45-4.727 1.43-.678 2.482-1.355 5.793-4.035 3.25-1.355 4.23-2.695 1.427-1.355 1.658-.678 1.23-.678 1.708-1.34 4.324-2.71 2.648-1.355 2.12-1.34 2.516-1.355 1.655-1.355 1.93-1.355 1.892-1.15 1.077-1.151 1.397-1.15 1.842-1.167 2.457-1.087 3.54-2.018 1.873-.914 5.107-4.129 2.942-1.875 1.587-.788 1.187-.804 1.794-.661.886-.678 2.434-1.15 1.466-1.167 1.858-.93 1.147-.93 1.65-.803 1.187-.82h0" style="fill:none;stroke:#2ca02c;stroke-linecap:square;stroke-width:1.5" id="line2d_26"/><path clip-path="url(#p6479edc048)" d="m185.356 298.615.688-1.797 1.97-1.812.794-.441 3.601-.457 7.59-.662.997-.237 2.166-.898 3.65-.914 2.2-.662 1.826-.236 3.567-.662 2.282-.237 1.48-.898 1.41-.457 3.322-.457 3.963-.898 3.136-.899 1.556-.44 6.705-1.372 2.59-.441 1.31-.457 3.718-.898 1.288-.899 2.623-.914 1.962-1.796 1.738-.899 4.705-1.812.469-.898 1.886-.898 2.338-2.711 1.781-1.812 1.554-.899 1.22-.898 1.864-.898 2.17-.914 1.03-.899 2.01-.898 2.562-1.812 1.857-.898 1.205-.899 5.04-2.71 1.192-.899 3.495-1.812 2.242-1.797 1.32-.898 1.793-.914 1.273-.898 1.656-.898 1.922-1.813 2.532-3.609 2.422-1.796 1.48-.898 1.205-.914 1.303-7.218 2.412-1.797 1.116-1.812 1.49-1.797 1.203-.898 3.21-1.812 1.947-1.797 1.748-.914 1.96-.898 4.949-2.71 1.041-.9 1.833-.897 2.378-.899 1.553-.914 1.829-.898 3.923-2.71.888-.899 1.93-.898 2.237-.898 3.078-1.813 2.207-.898 1.874-.898 2.246-.914 1.544-.899 4.485-1.796 4.81-2.254 1.646-.457 1.399-.898 3.635-1.812 2.345-1.797 1.514-.914 4.815-1.797 8.772-3.608 2.453-.899 1.833-.914 2.652-.898 3.032-.914 2.387-.898 2.85-.914 2.267-.174.509-.189 1.44-.362 1.992-.725 2.586-.6 1.588-.614 2.323-.488 1.352-.505 2.275-.33 1.145-.347 1.676-.694 2.721-.677 1.915-.3.986-.315 1.896-.3 2.844-.866 1.9-.583 1.843-.331 1.127-.331 2-.3.853-.315h0" style="fill:none;stroke:#ff7f0e;stroke-linecap:square;stroke-width:1.5" id="line2d_27"/><path clip-path="url(#p6479edc048)" d="m222.047 298.615.231-.048 2.211-.047 11.325-.142 1.253-.047 6.358-.047 2.206-.11.526-.442.058-13.427.282-14.31 2.082-7.154 5.072-3.577 3.058-1.781 2.453-.898 1.586-.899 1.8-7.154 2.202-1.781 1.544-1.797 1.11-.882 1.661-.899 1.943-.898 2.865-1.78 1.845-.899 2.314-1.797 5.54-3.577 2.476-1.78 2.032-1.797 2.44-1.781 2.793-1.797 6.156-5.358 1.336-1.796 1.57-1.781 2.089-1.797 4.433-7.155 1.41-1.78 1.19-1.797 2.27-1.78 1.384-1.797 2.242-1.781 1.788-1.797 1.36-1.78 1.587-1.797 1.955-1.78 1.368-1.797 1.13-1.781 1.573-1.797 2.098-3.593 2.493-3.577 1.534-1.781 3.878-5.374 2.269-3.577 6.168-8.936 1.399-1.796 2.184-3.578 1.824-3.577 1.231-1.78 1.443-1.798 1.637-3.577 1.093-1.78 4.724-5.375 7.566-10.747 3.945-7.155 1.717-3.578 2.08-3.577 2.21-3.577 2.442-3.578 5.92-7.154 2.325-7.155 3.813-7.155 2.464-3.577 6.88-7.155 2.787-3.593 2.14-1.655 4.042-5.011 1.702-1.072.953-1.072 1.572-2.143 2.158-1.686 1.473-1.686 1.853-1.293 1.432-1.292 1.786-2.584.939-1.923 2.002-1.938 1.645-1.198 1.137-1.214 1.744-1.087.942-1.087 2.087-1.923 1.78-1.923 1.73-1.245 4.121-4.081h0" style="fill:none;stroke:#1f77b4;stroke-linecap:square;stroke-width:1.5" id="line2d_28"/></g></g><defs><clipPath id="p6479edc048"><path d="M86.396 32.503h357.12v266.112H86.396z"/></clipPath></defs></svg>