<svg height="474.536" viewBox="0 0 631.622 355.902" width="842.162" xmlns="http://www.w3.org/2000/svg" xmlns:xlink="http://www.w3.org/1999/xlink"><defs><style>*{stroke-linecap:butt;stroke-linejoin:round}</style></defs><g id="figure_1"><path d="M0 355.902h631.622V0H0z" style="fill:none" id="patch_1"/><g id="axes_1"><path d="M98.073 312.337h357.12V46.225H98.073z" style="fill:none" id="patch_2"/><path clip-path="url(#p47defb8854)" d="m267.54 312.337 4-.038 1.298-.038 9.06-.038.065-.075.055-.19 1.334-.378 1.057-.19 2.975-.189.166-.416 1.982-.758 2.248-.378 2.7-.417 1.008-.189 2.398-.19 2.317-.378 2.267-.076 1.065-.113.428-.076 2.944-.113.689-.19 2.034-.113.412-.038 1.824-.038 1.875-.038 2.348-1.59 2.564-.757 1.657-.19 1.922-.189 2.365-.416 2.155-.757 2.536-.795 1.612-.379 2.97-.19 1.325-.189 1.62-.189 2.05-.19 2.912-.416 2.21-.378 2.018-.417.764-.189 2.68-.19 1.16-.189 2.683-.227 2.821-.378 2.077-.19 1.356-.189 2.166-.19 1.17-.188 2.1-.417 1.869-.379 1.344-.189 2.037-.19 2.924-.378 3.158-.416 2.952-.757.969-.379 2.658-.416 2.066-.379 3.164-.416 1.97-.379 3.038-.416 2.461-.38 2.33-.188 1.25-.19 2.991-.378 2.16-.417 2.95-.757.833-.795 1.634-.379 1.573-.378 1.632-.379 2.112-.416 2.8-.379 1.38-.416 2.585-.379 1.628-.416 2.822-.417 2.601-.454 1.697-.454 2.14-.455 2.159-.416 1.501-.417 1.503-.34 2.002-.379 1.3-.378 2.03-.379 2.859-.454 1.885-.455 2.704-.189.923-.19 2.365-.302 1.045-.34" style="fill:none;stroke:#7f7f7f;stroke-linecap:square;stroke-width:1.5" id="line2d_1"/><g id="matplotlib.axis_1"><g id="xtick_1"><g id="line2d_2"><defs><path d="M0 0v3.5" id="mf9e7c674b3" style="stroke:#969696;stroke-width:.4"/></defs><use style="fill:#969696;stroke:#969696;stroke-width:.4" x="124.924" xlink:href="#mf9e7c674b3" y="312.337"/></g><g style="fill:#969696" transform="matrix(.14 0 0 -.14 107.109 329.975)" id="text_1"><defs><path d="M1228 531h2203V0H469v531q359 372 979 998 621 627 780 809 303 340 423 576 121 236 121 464 0 372-261 606-261 235-680 235-297 0-627-103-329-103-704-313v638q381 153 712 231 332 78 607 78 725 0 1156-363 431-362 431-968 0-288-108-546-107-257-392-607-78-91-497-524-418-433-1181-1211z" id="DejaVuSans-32" transform="scale(.01563)"/><path d="M2034 4250q-487 0-733-480-245-479-245-1442 0-959 245-1439 246-480 733-480 491 0 736 480 246 480 246 1439 0 963-246 1442-245 480-736 480zm0 500q785 0 1199-621 414-620 414-1801 0-1178-414-1799Q2819-91 2034-91q-784 0-1198 620-414 621-414 1799 0 1181 414 1801 414 621 1198 621z" id="DejaVuSans-30" transform="scale(.01563)"/><path d="M794 531h1031v3560L703 3866v575l1116 225h631V531h1031V0H794v531z" id="DejaVuSans-31" transform="scale(.01563)"/><path d="M2597 2516q453-97 707-404 255-306 255-756 0-690-475-1069Q2609-91 1734-91q-293 0-604 58T488 141v609q262-153 574-231 313-78 654-78 593 0 904 234t311 681q0 413-289 645-289 233-804 233h-544v519h569q465 0 712 186t247 536q0 359-255 551-254 193-729 193-260 0-557-57-297-56-653-174v562q360 100 674 150t592 50q719 0 1137-327 419-326 419-882 0-388-222-655t-631-370z" id="DejaVuSans-33" transform="scale(.01563)"/></defs><use xlink:href="#DejaVuSans-32"/><use x="63.623" xlink:href="#DejaVuSans-30"/><use x="127.246" xlink:href="#DejaVuSans-31"/><use x="190.869" xlink:href="#DejaVuSans-33"/></g></g><g id="xtick_2"><use style="fill:#969696;stroke:#969696;stroke-width:.4" x="163.806" xlink:href="#mf9e7c674b3" y="312.337" id="line2d_3"/><g style="fill:#969696" transform="matrix(.14 0 0 -.14 145.99 329.975)" id="text_2"><defs><path d="M2419 4116 825 1625h1594v2491zm-166 550h794V1625h666v-525h-666V0h-628v1100H313v609l1940 2957z" id="DejaVuSans-34" transform="scale(.01563)"/></defs><use xlink:href="#DejaVuSans-32"/><use x="63.623" xlink:href="#DejaVuSans-30"/><use x="127.246" xlink:href="#DejaVuSans-31"/><use x="190.869" xlink:href="#DejaVuSans-34"/></g></g><g id="xtick_3"><use style="fill:#969696;stroke:#969696;stroke-width:.4" x="202.688" xlink:href="#mf9e7c674b3" y="312.337" id="line2d_4"/><g style="fill:#969696" transform="matrix(.14 0 0 -.14 184.873 329.975)" id="text_3"><defs><path d="M691 4666h2478v-532H1269V2991q137 47 274 70 138 23 276 23 781 0 1237-428 457-428 457-1159 0-753-469-1171Q2575-91 1722-91q-294 0-599 50Q819 9 494 109v635q281-153 581-228t634-75q541 0 856 284 316 284 316 772 0 487-316 771-315 285-856 285-253 0-505-56-251-56-513-175v2344z" id="DejaVuSans-35" transform="scale(.01563)"/></defs><use xlink:href="#DejaVuSans-32"/><use x="63.623" xlink:href="#DejaVuSans-30"/><use x="127.246" xlink:href="#DejaVuSans-31"/><use x="190.869" xlink:href="#DejaVuSans-35"/></g></g><g id="xtick_4"><use style="fill:#969696;stroke:#969696;stroke-width:.4" x="241.57" xlink:href="#mf9e7c674b3" y="312.337" id="line2d_5"/><g style="fill:#969696" transform="matrix(.14 0 0 -.14 223.755 329.975)" id="text_4"><defs><path d="M2113 2584q-425 0-674-291-248-290-248-796 0-503 248-796 249-292 674-292t673 292q248 293 248 796 0 506-248 796-248 291-673 291zm1253 1979v-575q-238 112-480 171-242 60-480 60-625 0-955-422-329-422-376-1275 184 272 462 417 279 145 613 145 703 0 1111-427 408-426 408-1160 0-719-425-1154Q2819-91 2113-91q-810 0-1238 620-428 621-428 1799 0 1106 525 1764t1409 658q238 0 480-47t505-140z" id="DejaVuSans-36" transform="scale(.01563)"/></defs><use xlink:href="#DejaVuSans-32"/><use x="63.623" xlink:href="#DejaVuSans-30"/><use x="127.246" xlink:href="#DejaVuSans-31"/><use x="190.869" xlink:href="#DejaVuSans-36"/></g></g><g id="xtick_5"><use style="fill:#969696;stroke:#969696;stroke-width:.4" x="280.559" xlink:href="#mf9e7c674b3" y="312.337" id="line2d_6"/><g style="fill:#969696" transform="matrix(.14 0 0 -.14 262.744 329.975)" id="text_5"><defs><path d="M525 4666h3000v-269L1831 0h-659l1594 4134H525v532z" id="DejaVuSans-37" transform="scale(.01563)"/></defs><use xlink:href="#DejaVuSans-32"/><use x="63.623" xlink:href="#DejaVuSans-30"/><use x="127.246" xlink:href="#DejaVuSans-31"/><use x="190.869" xlink:href="#DejaVuSans-37"/></g></g><g id="xtick_6"><use style="fill:#969696;stroke:#969696;stroke-width:.4" x="319.441" xlink:href="#mf9e7c674b3" y="312.337" id="line2d_7"/><g style="fill:#969696" transform="matrix(.14 0 0 -.14 301.626 329.975)" id="text_6"><defs><path d="M2034 2216q-450 0-708-241-257-241-257-662 0-422 257-663 258-241 708-241t709 242q260 243 260 662 0 421-258 662-257 241-711 241zm-631 268q-406 100-633 378-226 279-226 679 0 559 398 884 399 325 1092 325 697 0 1094-325t397-884q0-400-227-679-226-278-629-378 456-106 710-416 255-309 255-755 0-679-414-1042Q2806-91 2034-91q-771 0-1186 362-414 363-414 1042 0 446 256 755 257 310 713 416zm-231 997q0-362 226-565 227-203 636-203 407 0 636 203 230 203 230 565 0 363-230 566-229 203-636 203-409 0-636-203-226-203-226-566z" id="DejaVuSans-38" transform="scale(.01563)"/></defs><use xlink:href="#DejaVuSans-32"/><use x="63.623" xlink:href="#DejaVuSans-30"/><use x="127.246" xlink:href="#DejaVuSans-31"/><use x="190.869" xlink:href="#DejaVuSans-38"/></g></g><g id="xtick_7"><use style="fill:#969696;stroke:#969696;stroke-width:.4" x="358.323" xlink:href="#mf9e7c674b3" y="312.337" id="line2d_8"/><g style="fill:#969696" transform="matrix(.14 0 0 -.14 340.508 329.975)" id="text_7"><defs><path d="M703 97v575q238-113 481-172 244-59 479-59 625 0 954 420 330 420 377 1277-181-269-460-413-278-144-615-144-700 0-1108 423-408 424-408 1159 0 718 425 1152 425 435 1131 435 810 0 1236-621 427-620 427-1801 0-1103-524-1761Q2575-91 1691-91q-238 0-482 47Q966 3 703 97zm1256 1978q425 0 673 290 249 291 249 798 0 503-249 795-248 292-673 292t-673-292q-248-292-248-795 0-507 248-798 248-290 673-290z" id="DejaVuSans-39" transform="scale(.01563)"/></defs><use xlink:href="#DejaVuSans-32"/><use x="63.623" xlink:href="#DejaVuSans-30"/><use x="127.246" xlink:href="#DejaVuSans-31"/><use x="190.869" xlink:href="#DejaVuSans-39"/></g></g><g id="xtick_8"><use style="fill:#969696;stroke:#969696;stroke-width:.4" x="397.205" xlink:href="#mf9e7c674b3" y="312.337" id="line2d_9"/><g style="fill:#969696" transform="matrix(.14 0 0 -.14 379.39 329.975)" id="text_8"><use xlink:href="#DejaVuSans-32"/><use x="63.623" xlink:href="#DejaVuSans-30"/><use x="127.246" xlink:href="#DejaVuSans-32"/><use x="190.869" xlink:href="#DejaVuSans-30"/></g></g><g id="xtick_9"><use style="fill:#969696;stroke:#969696;stroke-width:.4" x="436.193" xlink:href="#mf9e7c674b3" y="312.337" id="line2d_10"/><g style="fill:#969696" transform="matrix(.14 0 0 -.14 418.378 329.975)" id="text_9"><use xlink:href="#DejaVuSans-32"/><use x="63.623" xlink:href="#DejaVuSans-30"/><use x="127.246" xlink:href="#DejaVuSans-32"/><use x="190.869" xlink:href="#DejaVuSans-31"/></g></g></g><g id="matplotlib.axis_2"><g id="ytick_1"><path clip-path="url(#p47defb8854)" d="M98.073 274.516h357.12" style="fill:none;stroke:#969696;stroke-linecap:square;stroke-width:.3" id="line2d_11"/><g id="line2d_12"><defs><path d="M0 0h-3.5" id="md9904d87e3" style="stroke:#969696;stroke-width:.3"/></defs><use style="fill:#969696;stroke:#969696;stroke-width:.3" x="98.073" xlink:href="#md9904d87e3" y="274.516"/></g><g style="fill:#969696" transform="matrix(.14 0 0 -.14 55.443 279.834)" id="text_10"><use xlink:href="#DejaVuSans-31"/><use x="63.623" xlink:href="#DejaVuSans-30"/><use x="127.246" xlink:href="#DejaVuSans-30"/><use x="190.869" xlink:href="#DejaVuSans-30"/></g></g><g id="ytick_2"><path clip-path="url(#p47defb8854)" d="M98.073 236.656h357.12" style="fill:none;stroke:#969696;stroke-linecap:square;stroke-width:.3" id="line2d_13"/><use style="fill:#969696;stroke:#969696;stroke-width:.3" x="98.073" xlink:href="#md9904d87e3" y="236.656" id="line2d_14"/><g style="fill:#969696" transform="matrix(.14 0 0 -.14 55.443 241.975)" id="text_11"><use xlink:href="#DejaVuSans-32"/><use x="63.623" xlink:href="#DejaVuSans-30"/><use x="127.246" xlink:href="#DejaVuSans-30"/><use x="190.869" xlink:href="#DejaVuSans-30"/></g></g><g id="ytick_3"><path clip-path="url(#p47defb8854)" d="M98.073 198.797h357.12" style="fill:none;stroke:#969696;stroke-linecap:square;stroke-width:.3" id="line2d_15"/><use style="fill:#969696;stroke:#969696;stroke-width:.3" x="98.073" xlink:href="#md9904d87e3" y="198.797" id="line2d_16"/><g style="fill:#969696" transform="matrix(.14 0 0 -.14 55.443 204.116)" id="text_12"><use xlink:href="#DejaVuSans-33"/><use x="63.623" xlink:href="#DejaVuSans-30"/><use x="127.246" xlink:href="#DejaVuSans-30"/><use x="190.869" xlink:href="#DejaVuSans-30"/></g></g><g id="ytick_4"><path clip-path="url(#p47defb8854)" d="M98.073 160.938h357.12" style="fill:none;stroke:#969696;stroke-linecap:square;stroke-width:.3" id="line2d_17"/><use style="fill:#969696;stroke:#969696;stroke-width:.3" x="98.073" xlink:href="#md9904d87e3" y="160.938" id="line2d_18"/><g style="fill:#969696" transform="matrix(.14 0 0 -.14 55.443 166.257)" id="text_13"><use xlink:href="#DejaVuSans-34"/><use x="63.623" xlink:href="#DejaVuSans-30"/><use x="127.246" xlink:href="#DejaVuSans-30"/><use x="190.869" xlink:href="#DejaVuSans-30"/></g></g><g id="ytick_5"><path clip-path="url(#p47defb8854)" d="M98.073 123.079h357.12" style="fill:none;stroke:#969696;stroke-linecap:square;stroke-width:.3" id="line2d_19"/><use style="fill:#969696;stroke:#969696;stroke-width:.3" x="98.073" xlink:href="#md9904d87e3" y="123.079" id="line2d_20"/><g style="fill:#969696" transform="matrix(.14 0 0 -.14 55.443 128.398)" id="text_14"><use xlink:href="#DejaVuSans-35"/><use x="63.623" xlink:href="#DejaVuSans-30"/><use x="127.246" xlink:href="#DejaVuSans-30"/><use x="190.869" xlink:href="#DejaVuSans-30"/></g></g><g id="ytick_6"><path clip-path="url(#p47defb8854)" d="M98.073 85.22h357.12" style="fill:none;stroke:#969696;stroke-linecap:square;stroke-width:.3" id="line2d_21"/><use style="fill:#969696;stroke:#969696;stroke-width:.3" x="98.073" xlink:href="#md9904d87e3" y="85.22" id="line2d_22"/><g style="fill:#969696" transform="matrix(.14 0 0 -.14 55.443 90.539)" id="text_15"><use xlink:href="#DejaVuSans-36"/><use x="63.623" xlink:href="#DejaVuSans-30"/><use x="127.246" xlink:href="#DejaVuSans-30"/><use x="190.869" xlink:href="#DejaVuSans-30"/></g></g><g id="ytick_7"><path clip-path="url(#p47defb8854)" d="M98.073 47.36h357.12" style="fill:none;stroke:#969696;stroke-linecap:square;stroke-width:.3" id="line2d_23"/><use style="fill:#969696;stroke:#969696;stroke-width:.3" x="98.073" xlink:href="#md9904d87e3" y="47.361" id="line2d_24"/><g style="fill:#969696" transform="matrix(.14 0 0 -.14 55.443 52.68)" id="text_16"><use xlink:href="#DejaVuSans-37"/><use x="63.623" xlink:href="#DejaVuSans-30"/><use x="127.246" xlink:href="#DejaVuSans-30"/><use x="190.869" xlink:href="#DejaVuSans-30"/></g></g><g style="fill:#969696" transform="matrix(.14 0 0 -.14 7.2 17.838)" id="text_17"><defs><path d="M3809 666v1253H2778v519h1656V434q-365-259-806-392-440-133-940-133-1094 0-1712 639-617 640-617 1780 0 1144 617 1783 618 639 1712 639 456 0 867-113 411-112 758-331v-672q-350 297-744 447t-828 150q-857 0-1287-478-429-478-429-1425 0-944 429-1422 430-478 1287-478 334 0 596 58 263 58 472 180z" id="DejaVuSans-47" transform="scale(.01563)"/><path d="M603 3500h575V0H603v3500zm0 1363h575v-729H603v729z" id="DejaVuSans-69" transform="scale(.01563)"/><path d="M1172 4494v-994h1184v-447H1172V1153q0-428 117-550t477-122h590V0h-590q-666 0-919 248-253 249-253 905v1900H172v447h422v994h578z" id="DejaVuSans-74" transform="scale(.01563)"/><path d="M628 4666h631V2753h2294v1913h631V0h-631v2222H1259V0H628v4666z" id="DejaVuSans-48" transform="scale(.01563)"/><path d="M544 1381v2119h575V1403q0-497 193-746 194-248 582-248 465 0 735 297 271 297 271 810v1984h575V0h-575v538q-209-319-486-474-276-155-642-155-603 0-916 375-312 375-312 1097zm1447 2203z" id="DejaVuSans-75" transform="scale(.01563)"/><path d="M3116 1747q0 634-261 995t-717 361q-457 0-718-361t-261-995q0-634 261-995t718-361q456 0 717 361t261 995zM1159 2969q182 312 458 463 277 152 661 152 638 0 1036-506 399-506 399-1331T3314 415Q2916-91 2278-91q-384 0-661 152-276 152-458 464V0H581v4863h578V2969z" id="DejaVuSans-62" transform="scale(.01563)"/><path d="M2834 3397v-544q-243 125-506 187-262 63-544 63-428 0-642-131t-214-394q0-200 153-314t616-217l197-44q612-131 870-370t258-667q0-488-386-773Q2250-91 1575-91q-281 0-586 55T347 128v594q319-166 628-249 309-82 613-82 406 0 624 139 219 139 219 392 0 234-158 359-157 125-692 241l-200 47q-534 112-772 345-237 233-237 639 0 494 350 762 350 269 994 269 318 0 599-47 282-46 519-140z" id="DejaVuSans-73" transform="scale(.01563)"/><path d="M2194 1759q-697 0-966-159t-269-544q0-306 202-486 202-179 548-179 479 0 768 339t289 901v128h-572zm1147 238V0h-575v531q-197-318-491-470T1556-91q-537 0-855 302-317 302-317 808 0 590 395 890 396 300 1180 300h807v57q0 397-261 614t-733 217q-300 0-585-72-284-72-546-216v532q315 122 612 182 297 61 578 61 760 0 1135-394 375-393 375-1193z" id="DejaVuSans-61" transform="scale(.01563)"/><path d="M2631 2963q-97 56-211 82-114 27-251 27-488 0-749-317t-261-911V0H581v3500h578v-544q182 319 472 473 291 155 707 155 59 0 131-8 72-7 159-23l3-590z" id="DejaVuSans-72" transform="scale(.01563)"/></defs><use xlink:href="#DejaVuSans-47"/><use x="77.49" xlink:href="#DejaVuSans-69"/><use x="105.273" xlink:href="#DejaVuSans-74"/><use x="144.482" xlink:href="#DejaVuSans-48"/><use x="219.678" xlink:href="#DejaVuSans-75"/><use x="283.057" xlink:href="#DejaVuSans-62"/><use x="346.533" xlink:href="#DejaVuSans-20"/><use x="378.32" xlink:href="#DejaVuSans-73"/><use x="430.42" xlink:href="#DejaVuSans-74"/><use x="469.629" xlink:href="#DejaVuSans-61"/><use x="530.908" xlink:href="#DejaVuSans-72"/><use x="572.021" xlink:href="#DejaVuSans-73"/></g></g><path clip-path="url(#p47defb8854)" d="m233.945 312.337 7.633-.038 2.292-.038 4.09-.038 2.226-.113 3.671-.038 1.83-.076 1.481-.114 2.916-.113 2.605-.114.43-.038 2.147-.037 2.242-.038.75-.114 1.576-.227 2.299-.227.22-.227 3.02-.265 2.433-.227.877-.228 1.618-.454 1.682-.454 1.868-.227 1.665-.265 2.981-.455 1.835-.454 2.07-.227 2.481-.227 1.598-.114 1.6-.113 1.808-.265 2.672-.455 1.319-.454 3.075-.454 1.051-.228.732-.037 2.783-.076.556-.152 2.024-.454 3.189-.454 1.02-.455.803-.227 2.124-.113 1.196-.152 1.239-.454 1.49-.227 1.729-.227 3.031-.455 1.547-.492 2.694-.908 2.701-.455 2.877-.492 1.976-.454 1.997-.492 1.742-.455 2.02-.492 2.815-.454 1.16-.227.949-.114 2.796-.113 2.437-.455 2.998-.492 1.457-.227 2.012-.227 2.004-.455 1.938-.454 2.655-.492 2.441-.454 2.326-.455.803-.227 1.808-.113 1.468-.114 1.878-.227 1.918-.114 1.55-.151 1.65-.227 1.74-.227 2.586-.455 3.007-.454 1.694-.492 2.17-.455 1.996-.454 2.3-.454 2.344-.492 2.16-.227 1.286-.228 1.435-.454 2.078-.946 2.354-.91 2.94-.946 3.056-.946 1.688-.454 2.06-.492 2.892-.796 2.763-.832 2.392-.795 1.265-.833 2.229-.606 1.448-.606 1.446-.53 1.99-.53 1.746-.644 1.517-.643 1.93-.606 2.381-.643 2.77-.644 1.472-.682 1.782-.567 1.514-.568" style="fill:none;stroke:#e377c2;stroke-linecap:square;stroke-width:1.5" id="line2d_25"/><path clip-path="url(#p47defb8854)" d="m216.085 312.337 1.328-.076 2.637-.113.354-.19.16-.416 1.16-.19 2.333-.189 1.753-.416 1.446-.19 2.302-.189.14-.416 1.592-.417 1.594-.19 1.75-.226 3.04-.795 1.206-.379 1.464-.19 2.645-.226 1.213-.19 1.417-.075 2.537-.114 2.858-.416 2.228-.19 1.68-.227 1.825-.416 1.907-.19 1.372-.189 2.006-.19 1.773-.226 1.608-.19 1.89-.189.463-.416 1.913-1.628 1.14-1.628 2.045-.379 1.364-.416 1.95-.417 1.31-.416 2.673-.795 2.665-.795 2.824-.379 2.75-.416 1.08-.833 2.868-1.628 1.6-.379 1.834-.416 1.243-.417 2.1-.416 2.418-.379 2.79-.416 1.214-.379 1.81-.189 1.631-.227 1.378-.19 2.046-.189 2.743-.416 1.863-.417 2.389-.416 2.734-.379 1.64-.416 2.649-.417 2.13-.416 1.056-.379 2.185-.416 1.746-.19 2.466-.227 2.084-.416 1.957-.379 2-.416 2.023-.19 1.538-.189 2.023-.416 2.559-.379.916-.416 1.79-.417 1.026-.189 2.48-.227 2.954-.379 2.688-.416.1-.795.063-1.628.14-3.218.723-1.628 2.102-.795 3.096-.833 2.67-.795 2.747-.795 1.82-.379 2.629-.416.934-.417 2.759-.416 2.23-.379 1.903-.416 2.123-.416 1.442-.417 2.774-.379 1.773-.416 1.515-.416 2.966-.417 2.435-.795 1.805-.379 2.934-.416 3.071-.795 2.04-.416 1.217-.417 2.585-.795 2.602-.833 1.98-.795 2.087-.416 1.962-.417 3.077-.265.905-.265 1.216-.53 2.61-.53 1.655-.53 1.675-.34 1.952-.341 1.79-.568 1.645-.606 1.396-1.06 1.988-1.06 2.718-.757 1.817-.757 2.322-.493 1.603-.53 3.037-.454" style="fill:none;stroke:#8c564b;stroke-linecap:square;stroke-width:1.5" id="line2d_26"/><g style="fill:#1f77b4" transform="matrix(.14 0 0 -.14 465.907 50.088)" id="text_18"><defs><path d="M3328 2828q216 388 516 572t706 184q547 0 844-383 297-382 297-1088V0h-578v2094q0 503-179 746-178 244-543 244-447 0-707-297-259-296-259-809V0h-578v2094q0 506-178 748t-550 242q-441 0-701-298-259-298-259-808V0H581v3500h578v-544q197 322 472 475t653 153q382 0 649-194 267-193 395-562z" id="DejaVuSans-6d" transform="scale(.01563)"/><path d="M2375 4863v-479h-550q-309 0-430-125-120-125-120-450v-309h947v-447h-947V0H697v3053H147v447h550v244q0 584 272 851 272 268 862 268h544z" id="DejaVuSans-66" transform="scale(.01563)"/><path d="M1625 4666h531L531-594H0l1625 5260z" id="DejaVuSans-2f" transform="scale(.01563)"/><path d="M603 4863h575V0H603v4863z" id="DejaVuSans-6c" transform="scale(.01563)"/><path d="M1959 3097q-462 0-731-361t-269-989q0-628 267-989 268-361 733-361 460 0 728 362 269 363 269 988 0 622-269 986-268 364-728 364zm0 487q750 0 1178-488 429-487 429-1349 0-859-429-1349Q2709-91 1959-91q-753 0-1180 489-426 490-426 1349 0 862 426 1349 427 488 1180 488z" id="DejaVuSans-6f" transform="scale(.01563)"/><path d="M3597 1894v-281H953q38-594 358-905t892-311q331 0 642 81t618 244V178Q3153 47 2828-22t-659-69q-838 0-1327 487-489 488-489 1320 0 859 464 1363 464 505 1252 505 706 0 1117-455 411-454 411-1235zm-575 169q-6 471-264 752-258 282-683 282-481 0-770-272t-333-766l2050 4z" id="DejaVuSans-65" transform="scale(.01563)"/><path d="M313 2009h1684v-512H313v512z" id="DejaVuSans-2d" transform="scale(.01563)"/><path d="M3122 3366v-538q-244 135-489 202t-495 67q-560 0-870-355-309-354-309-995t309-996q310-354 870-354 250 0 495 67t489 202V134Q2881 22 2623-34q-257-57-548-57-791 0-1257 497-465 497-465 1341 0 856 470 1346 471 491 1290 491 265 0 518-55 253-54 491-163z" id="DejaVuSans-63" transform="scale(.01563)"/></defs><use xlink:href="#DejaVuSans-6d"/><use x="97.412" xlink:href="#DejaVuSans-69"/><use x="125.195" xlink:href="#DejaVuSans-66"/><use x="160.4" xlink:href="#DejaVuSans-69"/><use x="188.184" xlink:href="#DejaVuSans-2f"/><use x="221.875" xlink:href="#DejaVuSans-6c"/><use x="249.658" xlink:href="#DejaVuSans-6f"/><use x="310.84" xlink:href="#DejaVuSans-73"/><use x="362.939" xlink:href="#DejaVuSans-73"/><use x="415.039" xlink:href="#DejaVuSans-6c"/><use x="442.822" xlink:href="#DejaVuSans-65"/><use x="504.346" xlink:href="#DejaVuSans-73"/><use x="556.445" xlink:href="#DejaVuSans-73"/><use x="608.545" xlink:href="#DejaVuSans-2d"/><use x="644.629" xlink:href="#DejaVuSans-63"/><use x="699.609" xlink:href="#DejaVuSans-75"/><use x="762.988" xlink:href="#DejaVuSans-74"/></g><g style="fill:#ff7f0e" transform="matrix(.14 0 0 -.14 465.907 122.588)" id="text_19"><defs><path d="M191 3500h609L1894 563l1094 2937h609L2284 0h-781L191 3500z" id="DejaVuSans-76" transform="scale(.01563)"/><path d="M2906 2969v1894h575V0h-575v525q-181-312-458-464-276-152-664-152-634 0-1033 506-398 507-398 1332t398 1331q399 506 1033 506 388 0 664-152 277-151 458-463zM947 1747q0-634 261-995t717-361q456 0 718 361 263 361 263 995t-263 995q-262 361-718 361t-717-361q-261-361-261-995z" id="DejaVuSans-64" transform="scale(.01563)"/></defs><use xlink:href="#DejaVuSans-6f"/><use x="61.182" xlink:href="#DejaVuSans-6c"/><use x="88.965" xlink:href="#DejaVuSans-69"/><use x="116.748" xlink:href="#DejaVuSans-76"/><use x="175.928" xlink:href="#DejaVuSans-65"/><use x="237.451" xlink:href="#DejaVuSans-2d"/><use x="273.535" xlink:href="#DejaVuSans-65"/><use x="335.059" xlink:href="#DejaVuSans-64"/><use x="398.535" xlink:href="#DejaVuSans-69"/><use x="426.318" xlink:href="#DejaVuSans-74"/><use x="465.527" xlink:href="#DejaVuSans-6f"/><use x="526.709" xlink:href="#DejaVuSans-72"/><use x="567.822" xlink:href="#DejaVuSans-2f"/><use x="601.514" xlink:href="#DejaVuSans-6f"/><use x="662.695" xlink:href="#DejaVuSans-6c"/><use x="690.479" xlink:href="#DejaVuSans-69"/><use x="718.262" xlink:href="#DejaVuSans-76"/><use x="777.441" xlink:href="#DejaVuSans-65"/></g><g style="fill:#2ca02c" transform="matrix(.14 0 0 -.14 465.907 144.395)" id="text_20"><defs><path d="M269 3500h575l719-2731 715 2731h678l719-2731 716 2731h575L4050 0h-678l-753 2869L1863 0h-679L269 3500z" id="DejaVuSans-77" transform="scale(.01563)"/><path d="M581 4863h578V1991l1716 1509h734L1753 1863 3688 0h-750L1159 1709V0H581v4863z" id="DejaVuSans-6b" transform="scale(.01563)"/><path d="M3513 2113V0h-575v2094q0 497-194 743-194 247-581 247-466 0-735-297-269-296-269-809V0H581v4863h578V2956q207 316 486 472 280 156 646 156 603 0 912-373 310-373 310-1098z" id="DejaVuSans-68" transform="scale(.01563)"/></defs><use xlink:href="#DejaVuSans-6d"/><use x="97.412" xlink:href="#DejaVuSans-6c"/><use x="125.195" xlink:href="#DejaVuSans-74"/><use x="164.404" xlink:href="#DejaVuSans-66"/><use x="199.609" xlink:href="#DejaVuSans-72"/><use x="240.723" xlink:href="#DejaVuSans-61"/><use x="302.002" xlink:href="#DejaVuSans-6d"/><use x="399.414" xlink:href="#DejaVuSans-65"/><use x="460.938" xlink:href="#DejaVuSans-77"/><use x="542.725" xlink:href="#DejaVuSans-6f"/><use x="603.906" xlink:href="#DejaVuSans-72"/><use x="645.02" xlink:href="#DejaVuSans-6b"/><use x="702.93" xlink:href="#DejaVuSans-2f"/><use x="736.621" xlink:href="#DejaVuSans-73"/><use x="788.721" xlink:href="#DejaVuSans-68"/><use x="852.1" xlink:href="#DejaVuSans-6f"/><use x="913.281" xlink:href="#DejaVuSans-74"/><use x="952.49" xlink:href="#DejaVuSans-63"/><use x="1007.471" xlink:href="#DejaVuSans-75"/><use x="1070.85" xlink:href="#DejaVuSans-74"/></g><g style="fill:#d62728" transform="matrix(.14 0 0 -.14 465.907 207.393)" id="text_21"><defs><path d="M2059-325q-243-625-475-815-231-191-618-191H506v481h338q237 0 368 113 132 112 291 531l103 262L191 3500h609L1894 763l1094 2737h609L2059-325z" id="DejaVuSans-79" transform="scale(.01563)"/></defs><use xlink:href="#DejaVuSans-6d"/><use x="97.412" xlink:href="#DejaVuSans-69"/><use x="125.195" xlink:href="#DejaVuSans-66"/><use x="160.4" xlink:href="#DejaVuSans-69"/><use x="188.184" xlink:href="#DejaVuSans-2f"/><use x="221.875" xlink:href="#DejaVuSans-65"/><use x="283.398" xlink:href="#DejaVuSans-64"/><use x="346.875" xlink:href="#DejaVuSans-69"/><use x="374.658" xlink:href="#DejaVuSans-74"/><use x="413.867" xlink:href="#DejaVuSans-6c"/><use x="441.65" xlink:href="#DejaVuSans-79"/></g><g style="fill:#9467bd" transform="matrix(.14 0 0 -.14 465.907 235.408)" id="text_22"><defs><path d="M2522 4238q-688 0-1093-513-404-512-404-1397 0-881 404-1394 405-512 1093-512 687 0 1089 512 402 513 402 1394 0 885-402 1397-402 513-1089 513zm0 512q981 0 1568-658 588-658 588-1764 0-1103-588-1761Q3503-91 2522-91q-984 0-1574 656-589 657-589 1763t589 1764q590 658 1574 658z" id="DejaVuSans-4f" transform="scale(.01563)"/><path d="M1159 525v-1856H581v4831h578v-531q182 312 458 463 277 152 661 152 638 0 1036-506 399-506 399-1331T3314 415Q2916-91 2278-91q-384 0-661 152-276 152-458 464zm1957 1222q0 634-261 995t-717 361q-457 0-718-361t-261-995q0-634 261-995t718-361q456 0 717 361t261 995z" id="DejaVuSans-70" transform="scale(.01563)"/><path d="M3513 2113V0h-575v2094q0 497-194 743-194 247-581 247-466 0-735-297-269-296-269-809V0H581v3500h578v-544q207 316 486 472 280 156 646 156 603 0 912-373 310-373 310-1098z" id="DejaVuSans-6e" transform="scale(.01563)"/><path d="M3425 4513v-616q-359 172-678 256-319 85-616 85-515 0-795-200t-280-569q0-310 186-468 186-157 705-254l381-78q706-135 1042-474t336-907q0-679-455-1029Q2797-91 1919-91q-331 0-705 75-373 75-773 222v650q384-215 753-325 369-109 725-109 540 0 834 212 294 213 294 607 0 343-211 537t-692 291l-385 75q-706 140-1022 440-315 300-315 835 0 619 436 975t1201 356q329 0 669-60 341-59 697-177z" id="DejaVuSans-53" transform="scale(.01563)"/><path d="M947 1747q0-634 261-995t717-361q456 0 718 361 263 361 263 995t-263 995q-262 361-718 361t-717-361q-261-361-261-995zM2906 525q-181-312-458-464-276-152-664-152-634 0-1033 506-398 507-398 1332t398 1331q399 506 1033 506 388 0 664-152 277-151 458-463v531h575v-4831h-575V525z" id="DejaVuSans-71" transform="scale(.01563)"/></defs><use xlink:href="#DejaVuSans-4f"/><use x="78.711" xlink:href="#DejaVuSans-70"/><use x="142.188" xlink:href="#DejaVuSans-65"/><use x="203.711" xlink:href="#DejaVuSans-6e"/><use x="267.09" xlink:href="#DejaVuSans-53"/><use x="330.566" xlink:href="#DejaVuSans-68"/><use x="393.945" xlink:href="#DejaVuSans-6f"/><use x="455.127" xlink:href="#DejaVuSans-74"/><use x="494.336" xlink:href="#DejaVuSans-2f"/><use x="528.027" xlink:href="#DejaVuSans-6f"/><use x="589.209" xlink:href="#DejaVuSans-70"/><use x="652.686" xlink:href="#DejaVuSans-65"/><use x="714.209" xlink:href="#DejaVuSans-6e"/><use x="777.588" xlink:href="#DejaVuSans-73"/><use x="829.688" xlink:href="#DejaVuSans-68"/><use x="893.066" xlink:href="#DejaVuSans-6f"/><use x="954.248" xlink:href="#DejaVuSans-74"/><use x="993.457" xlink:href="#DejaVuSans-2d"/><use x="1029.541" xlink:href="#DejaVuSans-71"/><use x="1093.018" xlink:href="#DejaVuSans-74"/></g><g style="fill:#8c564b" transform="matrix(.14 0 0 -.14 465.907 255.398)" id="text_23"><defs><path d="M603 3500h575V-63q0-668-255-968-254-300-820-300h-219v487H38q328 0 446 152Q603-541 603-63v3563zm0 1363h575v-729H603v729z" id="DejaVuSans-6a" transform="scale(.01563)"/></defs><use xlink:href="#DejaVuSans-6a"/><use x="27.783" xlink:href="#DejaVuSans-6c"/><use x="55.566" xlink:href="#DejaVuSans-69"/><use x="83.35" xlink:href="#DejaVuSans-6c"/><use x="111.133" xlink:href="#DejaVuSans-6a"/><use x="138.916" xlink:href="#DejaVuSans-65"/><use x="200.439" xlink:href="#DejaVuSans-62"/><use x="263.916" xlink:href="#DejaVuSans-6c"/><use x="291.699" xlink:href="#DejaVuSans-2f"/><use x="325.391" xlink:href="#DejaVuSans-66"/><use x="360.596" xlink:href="#DejaVuSans-6c"/><use x="388.379" xlink:href="#DejaVuSans-6f"/><use x="449.561" xlink:href="#DejaVuSans-77"/><use x="531.348" xlink:href="#DejaVuSans-62"/><use x="594.824" xlink:href="#DejaVuSans-6c"/><use x="622.607" xlink:href="#DejaVuSans-61"/><use x="683.887" xlink:href="#DejaVuSans-64"/><use x="747.363" xlink:href="#DejaVuSans-65"/></g><g style="fill:#e377c2" transform="matrix(.14 0 0 -.14 465.907 273.556)" id="text_24"><defs><path d="M628 4666h631V2694l2094 1972h813L1850 2491 4331 0h-831L1259 2247V0H628v4666z" id="DejaVuSans-4b" transform="scale(.01563)"/><path d="M1259 4147V519h763q966 0 1414 437 448 438 448 1382 0 937-448 1373t-1414 436h-763zm-631 519h1297q1356 0 1990-564 635-564 635-1764 0-1207-638-1773Q3275 0 1925 0H628v4666z" id="DejaVuSans-44" transform="scale(.01563)"/><path d="M628 4666h2950v-532H1259V2753h2222v-531H1259V531h2375V0H628v4666z" id="DejaVuSans-45" transform="scale(.01563)"/></defs><use xlink:href="#DejaVuSans-4b"/><use x="65.576" xlink:href="#DejaVuSans-44"/><use x="142.578" xlink:href="#DejaVuSans-45"/><use x="205.762" xlink:href="#DejaVuSans-2f"/><use x="239.453" xlink:href="#DejaVuSans-6b"/><use x="297.363" xlink:href="#DejaVuSans-64"/><use x="360.84" xlink:href="#DejaVuSans-65"/><use x="422.363" xlink:href="#DejaVuSans-6e"/><use x="485.742" xlink:href="#DejaVuSans-6c"/><use x="513.525" xlink:href="#DejaVuSans-69"/><use x="541.309" xlink:href="#DejaVuSans-76"/><use x="600.488" xlink:href="#DejaVuSans-65"/></g><g style="fill:#7f7f7f" transform="matrix(.14 0 0 -.14 465.907 287.556)" id="text_25"><defs><path d="M353 3500h2731v-525L922 459h2162V0H275v525l2163 2516H353v459z" id="DejaVuSans-7a" transform="scale(.01563)"/></defs><use xlink:href="#DejaVuSans-6f"/><use x="61.182" xlink:href="#DejaVuSans-7a"/><use x="113.672" xlink:href="#DejaVuSans-6d"/><use x="211.084" xlink:href="#DejaVuSans-61"/><use x="272.363" xlink:href="#DejaVuSans-72"/><use x="313.477" xlink:href="#DejaVuSans-74"/><use x="352.686" xlink:href="#DejaVuSans-69"/><use x="380.469" xlink:href="#DejaVuSans-61"/><use x="441.748" xlink:href="#DejaVuSans-6e"/><use x="505.127" xlink:href="#DejaVuSans-2f"/><use x="538.818" xlink:href="#DejaVuSans-76"/><use x="597.998" xlink:href="#DejaVuSans-69"/><use x="625.781" xlink:href="#DejaVuSans-64"/><use x="689.258" xlink:href="#DejaVuSans-63"/><use x="744.238" xlink:href="#DejaVuSans-75"/><use x="807.617" xlink:href="#DejaVuSans-74"/><use x="846.826" xlink:href="#DejaVuSans-74"/><use x="886.035" xlink:href="#DejaVuSans-65"/><use x="947.559" xlink:href="#DejaVuSans-72"/></g><g style="fill:#969696" transform="matrix(.09716 0 0 -.09716 98.073 346.411)" id="text_26"><defs><path d="m2188 4044-857-2322h1716l-859 2322zm-357 622h716L4325 0h-656l-425 1197H1141L716 0H50l1781 4666z" id="DejaVuSans-41" transform="scale(.01563)"/><path d="M1259 4147V2394h794q441 0 681 228 241 228 241 650 0 419-241 647-240 228-681 228h-794zm-631 519h1425q785 0 1186-355 402-355 402-1039 0-691-402-1044-401-353-1186-353h-794V0H628v4666z" id="DejaVuSans-50" transform="scale(.01563)"/><path d="M628 4666h631V0H628v4666z" id="DejaVuSans-49" transform="scale(.01563)"/><path d="M2906 1791q0 625-258 968-257 344-723 344-462 0-720-344-258-343-258-968 0-622 258-966t720-344q466 0 723 344 258 344 258 966zm575-1357q0-893-397-1329-396-436-1215-436-303 0-572 45t-522 139v559q253-137 500-202 247-66 503-66 566 0 847 295t281 892v285q-178-310-456-463T1784 0Q1141 0 747 490 353 981 353 1791q0 812 394 1302 394 491 1037 491 388 0 666-153t456-462v531h575V434z" id="DejaVuSans-67" transform="scale(.01563)"/><path d="M1344 4891v-6400H813v6400h531z" id="DejaVuSans-7c" transform="scale(.01563)"/><path d="M628 4666h850L3547 763v3903h612V0h-850L1241 3903V0H628v4666z" id="DejaVuSans-4e" transform="scale(.01563)"/><path d="M1959 3097q-462 0-731-361t-269-989q0-628 267-989 268-361 733-361 460 0 728 362 269 363 269 988 0 622-269 986-268 364-728 364zm0 487q750 0 1178-488 429-487 429-1349 0-859-429-1349Q2709-91 1959-91q-753 0-1180 489-426 490-426 1349 0 862 426 1349 427 488 1180 488zm295 1266h634v-631h-634v631zm-1222 0h634v-631h-634v631z" id="DejaVuSans-f6" transform="scale(.01563)"/><path d="M4122 4306v-665q-319 297-680 443-361 147-767 147-800 0-1225-489t-425-1414q0-922 425-1411t1225-489q406 0 767 147t680 444V359q-331-225-702-338-370-112-782-112-1060 0-1670 648-609 649-609 1771 0 1125 609 1773 610 649 1670 649 418 0 788-111 371-111 696-333z" id="DejaVuSans-43" transform="scale(.01563)"/><path d="M1259 2228V519h1013q509 0 754 211 246 211 246 645 0 438-246 645-245 208-754 208H1259zm0 1919V2741h935q462 0 688 173 227 174 227 530 0 353-227 528-226 175-688 175h-935zm-631 519h1613q722 0 1112-300 391-300 391-853 0-429-200-682t-588-315q466-100 724-418 258-317 258-792 0-625-425-966Q3088 0 2303 0H628v4666z" id="DejaVuSans-42" transform="scale(.01563)"/><path d="M-13 4666h679l1293-1919 1285 1919h678L2272 2222V0h-634v2222L-13 4666z" id="DejaVuSans-59" transform="scale(.01563)"/></defs><use xlink:href="#DejaVuSans-47"/><use x="77.49" xlink:href="#DejaVuSans-69"/><use x="105.273" xlink:href="#DejaVuSans-74"/><use x="144.482" xlink:href="#DejaVuSans-48"/><use x="219.678" xlink:href="#DejaVuSans-75"/><use x="283.057" xlink:href="#DejaVuSans-62"/><use x="346.533" xlink:href="#DejaVuSans-20"/><use x="378.32" xlink:href="#DejaVuSans-41"/><use x="446.729" xlink:href="#DejaVuSans-50"/><use x="507.031" xlink:href="#DejaVuSans-49"/><use x="536.523" xlink:href="#DejaVuSans-20"/><use x="568.311" xlink:href="#DejaVuSans-76"/><use x="627.49" xlink:href="#DejaVuSans-69"/><use x="655.273" xlink:href="#DejaVuSans-61"/><use x="716.553" xlink:href="#DejaVuSans-20"/><use x="748.34" xlink:href="#DejaVuSans-73"/><use x="800.439" xlink:href="#DejaVuSans-74"/><use x="839.648" xlink:href="#DejaVuSans-61"/><use x="900.928" xlink:href="#DejaVuSans-72"/><use x="940.291" xlink:href="#DejaVuSans-67"/><use x="1003.768" xlink:href="#DejaVuSans-72"/><use x="1044.881" xlink:href="#DejaVuSans-61"/><use x="1106.16" xlink:href="#DejaVuSans-70"/><use x="1169.637" xlink:href="#DejaVuSans-68"/><use x="1233.016" xlink:href="#DejaVuSans-20"/><use x="1264.803" xlink:href="#DejaVuSans-7c"/><use x="1298.494" xlink:href="#DejaVuSans-20"/><use x="1330.281" xlink:href="#DejaVuSans-4e"/><use x="1405.086" xlink:href="#DejaVuSans-69"/><use x="1432.869" xlink:href="#DejaVuSans-63"/><use x="1487.85" xlink:href="#DejaVuSans-6f"/><use x="1549.031" xlink:href="#DejaVuSans-20"/><use x="1580.818" xlink:href="#DejaVuSans-53"/><use x="1644.295" xlink:href="#DejaVuSans-63"/><use x="1699.275" xlink:href="#DejaVuSans-68"/><use x="1762.654" xlink:href="#DejaVuSans-6c"/><use x="1790.438" xlink:href="#DejaVuSans-f6"/><use x="1851.619" xlink:href="#DejaVuSans-6d"/><use x="1949.031" xlink:href="#DejaVuSans-65"/><use x="2010.555" xlink:href="#DejaVuSans-72"/><use x="2051.668" xlink:href="#DejaVuSans-20"/><use x="2083.455" xlink:href="#DejaVuSans-7c"/><use x="2117.146" xlink:href="#DejaVuSans-20"/><use x="2148.934" xlink:href="#DejaVuSans-43"/><use x="2218.758" xlink:href="#DejaVuSans-43"/><use x="2288.582" xlink:href="#DejaVuSans-20"/><use x="2320.369" xlink:href="#DejaVuSans-42"/><use x="2383.473" xlink:href="#DejaVuSans-59"/></g><path clip-path="url(#p47defb8854)" d="m218.813 312.337 2.487-.227 2.552-.114 2.165-.076.34-.038 4.756-.037 1.963-.114.262-.038.651-.038 2.721-.038 2.465-.037 1.315-.076 2.192-.152 3.193-.984.537-.492 1.616-.227 3.014-.265.589-.227.942-.114 2.808-.151 2.344-.228 2.418-.265 1.8-.113 1.595-.038 2.083-.076 1.861-.265 2.268-.492 3.037-.227 2.685-.265.956-.227 2.743-.265.811-.492 1.446-.228 1.792-.113 2.823-.152 3.106-.492 2.338-.53 3.03-.984 2.444-.984 2.72-.985 2.5-.492 3.08-.265.824-.265 2.9-.492 2.654-.492 2.786-.985 1.956-.984 3.118-1.022 1.731-.492 1.814-.493 1.666-.492 1.833-.492 3.056-.984 1.973-.492 1.576-.53 2.328-.493 1.888-.492 1.401-.492 1.868-.492 1.597-.492 1.674-.492 2.61-1.023 2.645-.984 1.87-.492 1.581-.227 1.68-.265 2.546-.492.9-.493 3.024-1.022 2.06-.984 1.943-.984 1.459-.985 2.042-1.022 2.29-3.937 1.726-.985 1.552-.984 2.37-.984 2.434-1.023 1.98-.984 2.67-.984 1.708-.985 2.992-1.022 1.789-.984 2.532-.984 2.212-.985 3.053-1.022 2.16-.984 1.804-.985.961-.984 2.473-1.022 3.078-1.969 2.642-2.006 2.638-1.97 1.3-.983 1.905-1.023 2.087-.984 1.63-.984 3.018-2.007 2.515-1.325 2.9-1.325 2.24-1.325 1.893-1.363 1.867-.87 1.598-.872 2.337-1.022 1.237-1.022 1.945-1.287 1.314-1.287 2.321-1.06 2.555-1.06 1.855-.795 1.827-.796 1.487-.908 1.763-.947" style="fill:none;stroke:#9467bd;stroke-linecap:square;stroke-width:1.5" id="line2d_27"/><path clip-path="url(#p47defb8854)" d="m409.108 312.337.804-38.01.512-19.006 1.346-9.503 1.67-2.385 1.812-2.385 2.972-2.385 1.388-1.174 2.26-.605 1.554-.606 2.14-.568 1.174-.606 1.288-1.174 2.834-2.347.058-4.732 1.856-9.427 1.336-1.174 2.23-1.211 1.97-1.06 1.462-1.06 1.484-.758 1.838-.795 2.42-1.628 2.31-1.627 1.802-1.174 2.079-1.174 1.259-1.098 2.174-1.135" style="fill:none;stroke:#d62728;stroke-linecap:square;stroke-width:1.5" id="line2d_28"/><path clip-path="url(#p47defb8854)" d="m98.073 312.337 46.31-.303 16.725-.19 2.715-.113 2.358-.114 7.731-.151 5.589-.151 6.759-.038.31-.114 4.762-.492 5.299-.606 15.512-1.136 2.2-.492 3.52-.454.819-.227 4.954-.492 2.122-.265.065-10.26 3.025-7.8 4.049-.946 1.585-.492 4.24-.72 4.936-.756 5.647-.985 1.367-.492 4.255-.984 2-.492 7.899-1.477 2.012-.492 2.558-.454 1.97-.492 1.417-.493 5.692-1.476 2.343-.984 6.18-1.931 2.815-.985 2.092-.984 1.749-.946 1.816-.493 2.649-.492 1.224-.492 1.972-.492 2.955-.984 5.114-1.97 2.014-.491 3.816-1.477 1.388-.946 4.319-1.969 1.34-.984.986-3.9 4.54-2.915 4.773-1.969 4.468-2.953 2.179-.946 1.53-.984 7.407-3.9 1.377-.984 2.154-.985 1.515-.946 2.362-.984 6.269-3.938 4.99-3.9 3.362-1.968 2.1-1.93 2.99-1.97 2.635-1.93 3.576-1.969 2.316-.984 1.234-.985 2.098-.984 5.378-2.915 4.573-3.9 4.854-3.9 2.02-1.968 2.234-1.968 1.95-1.97 1.582-1.93 2.27-1.969 1.527-1.93 3.668-3.9 1.926-1.969 2.55-1.968 1.89-1.969 5.729-4.392 5.459-6.928 1.683-2.574 1.846-3.445 1.606-3.446 2.192-2.46 1.115-2.5 2.513-2.763 4.305-5.3 1.71-2.537 2.687-5.186.803-5.225h0" style="fill:none;stroke:#2ca02c;stroke-linecap:square;stroke-width:1.5" id="line2d_29"/><path clip-path="url(#p47defb8854)" d="m323.078 312.337 20.44-.038 5.108-.038 2.695-.038 1.922-.038 1.549-.037 2.317-.076.119-.303.072-.606.806-1.211.869-2.385 2.47-4.809.577-4.77 2.785-4.808 1.324-19.157 2.009-9.578 1.594-4.77 1.663-4.808 2.044-4.77 2.633-4.809 2.995-9.578.226-9.578 1.144-4.77 1.515-2.386 1.758-2.423 1.806-2.385 2.615-2.385 2.323-4.808 1.698-2.385 1.987-2.385 2.55-2.386 1.708-2.423 1.652-2.385 1.647-2.385 2.231-2.385 2.043-2.423 3.044-4.77 2.673-4.808 2.008-2.385 1.445-2.386 1.894-4.808 1.722-2.385 1.71-2.385 3.055-4.808 2.543-3.635 2.408-3.672 2.346-3.672 1.98-3.673 2.16-2.044 1.485-2.082 1.851-1.666 1.574-1.704 1.677-2.044 1.643-2.044 2.571-3.218 2.186-3.219 2.09-2.65 1.67-2.688 1.903-1.173 1.502-1.174" style="fill:none;stroke:#ff7f0e;stroke-linecap:square;stroke-width:1.5" id="line2d_30"/><path clip-path="url(#p47defb8854)" d="m273.934 312.337.827-11.358.106-5.679.901-2.84 1.644-1.4 3.108-1.439 1.963-1.4 2.39-1.44 2.948-2.839 1-1.4 1.666-.72 2.833-.719 2.073-.681 2.085-.72 1.171-.34 2.238-.38 2.744-.718 2.984-1.401 2.769-1.439 2.435-2.84 2.547-1.4 1.003-1.439 1.693-1.4 2.922-1.44 1.863-.68 1.363-.72 1.808-.72 1.601-.719 2.757-1.4 2.786-1.44 2.425-1.4 1.554-1.438 2.954-1.401 2.476-1.439 2.417-1.4 2.773-1.44 2.234-1.4 1.898-1.439 3.062-1.4 2.892-1.44 2.523-1.4 1.58-1.439 2.177-2.84 1.856-2.839 3.005-2.839 1.588-2.84 2.63-2.839 1.665-2.84 2.257-2.839 2.726-2.84 2.645-2.839 1.38-2.839 2.431-2.84 2.886-2.839 2.912-2.84 2.397-2.839 2.637-2.84 2.222-2.839 2.211-2.84 1.414-2.839 2.225-5.678 2.718-5.68.945-5.678 1.979-11.358 2.973-11.358 2.43-5.679 3.118-5.678 2.397-5.68 2.694-5.716 2.03-2.802 1.375-2.839 2.13-5.641 1.951-5.641 1.854-5.641 1.702-4.808 1.924-4.846 1.646-4.922 1.79-4.96 1.802-4.429 1.521-4.43 2.972-6.776 1.823-6.815 2.12-5.754 1.602-5.793 1.81-4.127 1.673-4.126" style="fill:none;stroke:#1f77b4;stroke-linecap:square;stroke-width:1.5" id="line2d_31"/></g></g><defs><clipPath id="p47defb8854"><path d="M98.073 46.225h357.12v266.112H98.073z"/></clipPath></defs></svg>