<svg height="450.732" viewBox="0 0 597.031 338.049" width="796.041" xmlns="http://www.w3.org/2000/svg" xmlns:xlink="http://www.w3.org/1999/xlink"><defs><style>*{stroke-linecap:butt;stroke-linejoin:round}</style></defs><g id="figure_1"><path d="M0 338.049h597.03V0H0z" style="fill:none" id="patch_1"/><g id="axes_1"><path d="M86.396 294.508h357.12V28.396H86.396z" style="fill:none" id="patch_2"/><g id="matplotlib.axis_1"><g id="xtick_1"><g id="line2d_1"><defs><path d="M0 0v3.5" id="m8afac43879" style="stroke:#969696;stroke-width:.4"/></defs><use style="fill:#969696;stroke:#969696;stroke-width:.4" x="89.206" xlink:href="#m8afac43879" y="294.508"/></g><g style="fill:#969696" transform="matrix(.14 0 0 -.14 73.64 311.504)" id="text_1"><defs><path d="M3181 371H691c109 602 909 999 1344 1293 583 378 1127 845 1127 1594 0 832-608 1260-1389 1260-973 0-1453-665-1434-1587h403c-12 659 276 1248 1012 1248 544 0 1004-333 1004-915 0-358-128-595-371-845C1626 1658 262 1331 230 0h2951v371z" id="HelveticaNeue-Light-32" transform="scale(.01563)"/><path d="M1779 4179c1024 0 1159-1190 1159-1965 0-780-135-1971-1159-1971S621 1434 621 2214c0 775 134 1965 1158 1965zm0 339C474 4518 218 3258 218 2208 218 1165 474-96 1779-96c1306 0 1562 1261 1562 2310 0 1044-256 2304-1562 2304z" id="HelveticaNeue-Light-30" transform="scale(.01563)"/><path d="M621 3328h1184V0h403v4480h-326c-122-826-557-838-1261-864v-288z" id="HelveticaNeue-Light-31" transform="scale(.01563)"/></defs><use xlink:href="#HelveticaNeue-Light-32"/><use x="55.6" xlink:href="#HelveticaNeue-Light-30"/><use x="111.2" xlink:href="#HelveticaNeue-Light-31"/><use x="166.8" xlink:href="#HelveticaNeue-Light-32"/></g></g><g id="xtick_2"><use style="fill:#969696;stroke:#969696;stroke-width:.4" x="126.423" xlink:href="#m8afac43879" y="294.508" id="line2d_2"/><g style="fill:#969696" transform="matrix(.14 0 0 -.14 110.857 311.504)" id="text_2"><defs><path d="M211 1427C147 467 813-96 1741-96c825 0 1542 486 1542 1363 0 589-339 1011-921 1107v13c480 115 755 506 755 992 0 794-685 1139-1389 1139-870 0-1408-627-1414-1472h403c-13 666 345 1133 1017 1133 538 0 980-256 980-845 0-563-493-819-909-812h-339v-340h339c595 0 1075-313 1075-947 0-640-557-992-1146-992-723 0-1145 474-1120 1184H211z" id="HelveticaNeue-Light-33" transform="scale(.01563)"/></defs><use xlink:href="#HelveticaNeue-Light-32"/><use x="55.6" xlink:href="#HelveticaNeue-Light-30"/><use x="111.2" xlink:href="#HelveticaNeue-Light-31"/><use x="166.8" xlink:href="#HelveticaNeue-Light-33"/></g></g><g id="xtick_3"><use style="fill:#969696;stroke:#969696;stroke-width:.4" x="163.538" xlink:href="#m8afac43879" y="294.508" id="line2d_3"/><g style="fill:#969696" transform="matrix(.14 0 0 -.14 147.972 311.504)" id="text_3"><defs><path d="M192 1114h2067V0h371v1114h672v339h-672v3027h-364L192 1504v-390zm365 339 1689 2438h13V1453H557z" id="HelveticaNeue-Light-34" transform="scale(.01563)"/></defs><use xlink:href="#HelveticaNeue-Light-32"/><use x="55.6" xlink:href="#HelveticaNeue-Light-30"/><use x="111.2" xlink:href="#HelveticaNeue-Light-31"/><use x="166.8" xlink:href="#HelveticaNeue-Light-34"/></g></g><g id="xtick_4"><use style="fill:#969696;stroke:#969696;stroke-width:.4" x="200.654" xlink:href="#m8afac43879" y="294.508" id="line2d_4"/><g style="fill:#969696" transform="matrix(.14 0 0 -.14 185.087 311.504)" id="text_4"><defs><path d="M230 1280C250 429 870-96 1702-96c858 0 1556 640 1556 1517 0 902-583 1549-1504 1549-346 0-724-154-948-416l-12 12 288 1485h1958v371H800L365 2099h345c218 339 602 531 999 531 665 0 1145-505 1145-1164 0-653-428-1223-1120-1223-614 0-1081 416-1100 1037H230z" id="HelveticaNeue-Light-35" transform="scale(.01563)"/></defs><use xlink:href="#HelveticaNeue-Light-32"/><use x="55.6" xlink:href="#HelveticaNeue-Light-30"/><use x="111.2" xlink:href="#HelveticaNeue-Light-31"/><use x="166.8" xlink:href="#HelveticaNeue-Light-35"/></g></g><g id="xtick_5"><use style="fill:#969696;stroke:#969696;stroke-width:.4" x="237.769" xlink:href="#m8afac43879" y="294.508" id="line2d_5"/><g style="fill:#969696" transform="matrix(.14 0 0 -.14 222.203 311.504)" id="text_5"><defs><path d="M1856 2579c685 0 1082-531 1082-1184 0-621-436-1152-1076-1152-780 0-1120 519-1120 1152 0 659 410 1184 1114 1184zm1376 768c-96 781-589 1171-1376 1171-1466 0-1600-1702-1600-2233C256 538 736-96 1824-96c883 0 1517 646 1517 1517 0 877-583 1497-1479 1497-505 0-979-300-1190-742h-13c0 813 192 2003 1235 2003 519 0 864-339 935-832h403z" id="HelveticaNeue-Light-36" transform="scale(.01563)"/></defs><use xlink:href="#HelveticaNeue-Light-32"/><use x="55.6" xlink:href="#HelveticaNeue-Light-30"/><use x="111.2" xlink:href="#HelveticaNeue-Light-31"/><use x="166.8" xlink:href="#HelveticaNeue-Light-36"/></g></g><g id="xtick_6"><use style="fill:#969696;stroke:#969696;stroke-width:.4" x="274.986" xlink:href="#m8afac43879" y="294.508" id="line2d_6"/><g style="fill:#969696" transform="matrix(.14 0 0 -.14 259.42 311.504)" id="text_6"><defs><path d="M326 4051h2477C1562 2637 1069 1517 960 0h435c103 2086 1255 3469 1811 4051v371H326v-371z" id="HelveticaNeue-Light-37" transform="scale(.01563)"/></defs><use xlink:href="#HelveticaNeue-Light-32"/><use x="55.6" xlink:href="#HelveticaNeue-Light-30"/><use x="111.2" xlink:href="#HelveticaNeue-Light-31"/><use x="166.8" xlink:href="#HelveticaNeue-Light-37"/></g></g><g id="xtick_7"><use style="fill:#969696;stroke:#969696;stroke-width:.4" x="312.101" xlink:href="#m8afac43879" y="294.508" id="line2d_7"/><g style="fill:#969696" transform="matrix(.14 0 0 -.14 296.535 311.504)" id="text_7"><defs><path d="M1779 243c-627 0-1139 339-1139 1011 0 660 525 986 1139 973 602 13 1139-326 1139-973 0-684-512-1011-1139-1011zm1357 3155c0 768-698 1120-1363 1120-659 0-1357-352-1357-1120 0-492 262-844 730-985v-13c-551-102-896-563-909-1146C237 352 941-96 1779-96c839 0 1543 448 1543 1350 0 602-340 1031-916 1146v13c455 134 730 499 730 985zm-1357-832c-473-12-960 231-960 832 0 512 467 781 960 781 538 0 954-269 954-781 0-576-461-844-954-832z" id="HelveticaNeue-Light-38" transform="scale(.01563)"/></defs><use xlink:href="#HelveticaNeue-Light-32"/><use x="55.6" xlink:href="#HelveticaNeue-Light-30"/><use x="111.2" xlink:href="#HelveticaNeue-Light-31"/><use x="166.8" xlink:href="#HelveticaNeue-Light-38"/></g></g><g id="xtick_8"><use style="fill:#969696;stroke:#969696;stroke-width:.4" x="349.216" xlink:href="#m8afac43879" y="294.508" id="line2d_8"/><g style="fill:#969696" transform="matrix(.14 0 0 -.14 333.65 311.504)" id="text_8"><defs><path d="M1702 1843c-684 0-1081 531-1081 1184 0 621 435 1152 1075 1152 781 0 1120-518 1120-1152 0-659-410-1184-1114-1184zM326 1075C422 294 915-96 1702-96c1466 0 1600 1702 1600 2234 0 1747-480 2380-1568 2380-883 0-1516-646-1516-1516 0-877 582-1498 1478-1498 506 0 979 301 1190 742h13c0-812-192-2003-1235-2003-518 0-864 339-934 832H326z" id="HelveticaNeue-Light-39" transform="scale(.01563)"/></defs><use xlink:href="#HelveticaNeue-Light-32"/><use x="55.6" xlink:href="#HelveticaNeue-Light-30"/><use x="111.2" xlink:href="#HelveticaNeue-Light-31"/><use x="166.8" xlink:href="#HelveticaNeue-Light-39"/></g></g><g id="xtick_9"><use style="fill:#969696;stroke:#969696;stroke-width:.4" x="386.332" xlink:href="#m8afac43879" y="294.508" id="line2d_9"/><g style="fill:#969696" transform="matrix(.14 0 0 -.14 370.765 311.504)" id="text_9"><use xlink:href="#HelveticaNeue-Light-32"/><use x="55.6" xlink:href="#HelveticaNeue-Light-30"/><use x="111.2" xlink:href="#HelveticaNeue-Light-32"/><use x="166.8" xlink:href="#HelveticaNeue-Light-30"/></g></g><g id="xtick_10"><use style="fill:#969696;stroke:#969696;stroke-width:.4" x="423.549" xlink:href="#m8afac43879" y="294.508" id="line2d_10"/><g style="fill:#969696" transform="matrix(.14 0 0 -.14 407.982 311.504)" id="text_10"><use xlink:href="#HelveticaNeue-Light-32"/><use x="55.6" xlink:href="#HelveticaNeue-Light-30"/><use x="111.2" xlink:href="#HelveticaNeue-Light-32"/><use x="166.8" xlink:href="#HelveticaNeue-Light-31"/></g></g></g><g id="matplotlib.axis_2"><g id="ytick_1"><path clip-path="url(#pdedcb45a5e)" d="M86.396 259.087h357.12" style="fill:none;stroke:#969696;stroke-linecap:square;stroke-width:.3" id="line2d_11"/><g id="line2d_12"><defs><path d="M0 0h-3.5" id="m9c20ff7ce0" style="stroke:#969696;stroke-width:.3"/></defs><use style="fill:#969696;stroke:#969696;stroke-width:.3" x="86.396" xlink:href="#m9c20ff7ce0" y="259.087"/></g><g style="fill:#969696" transform="matrix(.14 0 0 -.14 48.264 264.086)" id="text_11"><use xlink:href="#HelveticaNeue-Light-32"/><use x="55.6" xlink:href="#HelveticaNeue-Light-35"/><use x="111.2" xlink:href="#HelveticaNeue-Light-30"/><use x="166.8" xlink:href="#HelveticaNeue-Light-30"/></g></g><g id="ytick_2"><path clip-path="url(#pdedcb45a5e)" d="M86.396 223.653h357.12" style="fill:none;stroke:#969696;stroke-linecap:square;stroke-width:.3" id="line2d_13"/><use style="fill:#969696;stroke:#969696;stroke-width:.3" x="86.396" xlink:href="#m9c20ff7ce0" y="223.653" id="line2d_14"/><g style="fill:#969696" transform="matrix(.14 0 0 -.14 48.264 228.651)" id="text_12"><use xlink:href="#HelveticaNeue-Light-35"/><use x="55.6" xlink:href="#HelveticaNeue-Light-30"/><use x="111.2" xlink:href="#HelveticaNeue-Light-30"/><use x="166.8" xlink:href="#HelveticaNeue-Light-30"/></g></g><g id="ytick_3"><path clip-path="url(#pdedcb45a5e)" d="M86.396 188.219h357.12" style="fill:none;stroke:#969696;stroke-linecap:square;stroke-width:.3" id="line2d_15"/><use style="fill:#969696;stroke:#969696;stroke-width:.3" x="86.396" xlink:href="#m9c20ff7ce0" y="188.219" id="line2d_16"/><g style="fill:#969696" transform="matrix(.14 0 0 -.14 48.264 193.217)" id="text_13"><use xlink:href="#HelveticaNeue-Light-37"/><use x="55.6" xlink:href="#HelveticaNeue-Light-35"/><use x="111.2" xlink:href="#HelveticaNeue-Light-30"/><use x="166.8" xlink:href="#HelveticaNeue-Light-30"/></g></g><g id="ytick_4"><path clip-path="url(#pdedcb45a5e)" d="M86.396 152.784h357.12" style="fill:none;stroke:#969696;stroke-linecap:square;stroke-width:.3" id="line2d_17"/><use style="fill:#969696;stroke:#969696;stroke-width:.3" x="86.396" xlink:href="#m9c20ff7ce0" y="152.784" id="line2d_18"/><g style="fill:#969696" transform="matrix(.14 0 0 -.14 40.48 157.783)" id="text_14"><use xlink:href="#HelveticaNeue-Light-31"/><use x="55.6" xlink:href="#HelveticaNeue-Light-30"/><use x="111.2" xlink:href="#HelveticaNeue-Light-30"/><use x="166.8" xlink:href="#HelveticaNeue-Light-30"/><use x="222.4" xlink:href="#HelveticaNeue-Light-30"/></g></g><g id="ytick_5"><path clip-path="url(#pdedcb45a5e)" d="M86.396 117.35h357.12" style="fill:none;stroke:#969696;stroke-linecap:square;stroke-width:.3" id="line2d_19"/><use style="fill:#969696;stroke:#969696;stroke-width:.3" x="86.396" xlink:href="#m9c20ff7ce0" y="117.35" id="line2d_20"/><g style="fill:#969696" transform="matrix(.14 0 0 -.14 40.48 122.348)" id="text_15"><use xlink:href="#HelveticaNeue-Light-31"/><use x="55.6" xlink:href="#HelveticaNeue-Light-32"/><use x="111.2" xlink:href="#HelveticaNeue-Light-35"/><use x="166.8" xlink:href="#HelveticaNeue-Light-30"/><use x="222.4" xlink:href="#HelveticaNeue-Light-30"/></g></g><g id="ytick_6"><path clip-path="url(#pdedcb45a5e)" d="M86.396 81.916h357.12" style="fill:none;stroke:#969696;stroke-linecap:square;stroke-width:.3" id="line2d_21"/><use style="fill:#969696;stroke:#969696;stroke-width:.3" x="86.396" xlink:href="#m9c20ff7ce0" y="81.916" id="line2d_22"/><g style="fill:#969696" transform="matrix(.14 0 0 -.14 40.48 86.914)" id="text_16"><use xlink:href="#HelveticaNeue-Light-31"/><use x="55.6" xlink:href="#HelveticaNeue-Light-35"/><use x="111.2" xlink:href="#HelveticaNeue-Light-30"/><use x="166.8" xlink:href="#HelveticaNeue-Light-30"/><use x="222.4" xlink:href="#HelveticaNeue-Light-30"/></g></g><g id="ytick_7"><path clip-path="url(#pdedcb45a5e)" d="M86.396 46.481h357.12" style="fill:none;stroke:#969696;stroke-linecap:square;stroke-width:.3" id="line2d_23"/><use style="fill:#969696;stroke:#969696;stroke-width:.3" x="86.396" xlink:href="#m9c20ff7ce0" y="46.481" id="line2d_24"/><g style="fill:#969696" transform="matrix(.14 0 0 -.14 40.48 51.48)" id="text_17"><use xlink:href="#HelveticaNeue-Light-31"/><use x="55.6" xlink:href="#HelveticaNeue-Light-37"/><use x="111.2" xlink:href="#HelveticaNeue-Light-35"/><use x="166.8" xlink:href="#HelveticaNeue-Light-30"/><use x="222.4" xlink:href="#HelveticaNeue-Light-30"/></g></g><g style="fill:#969696" transform="matrix(.14 0 0 -.14 7.2 17.197)" id="text_18"><defs><path d="M4365 2323H2426v-371h1555c19-966-570-1677-1581-1677-1210 0-1722 1011-1722 2010 0 998 512 2009 1722 2009 870 0 1414-620 1472-1145h435c-166 998-947 1517-1907 1517-1440 0-2157-1133-2157-2381S960-96 2400-96c659 0 1274 275 1581 928h13l57-832h314v2323z" id="HelveticaNeue-Light-47" transform="scale(.01563)"/><path d="M390 0h404v3302H390V0zm0 3923h404v647H390v-647z" id="HelveticaNeue-Light-69" transform="scale(.01563)"/><path d="M1024 4294H621v-992H45v-339h576V704c-7-563 179-742 717-742 121 0 236 12 358 12v346c-115-13-230-19-346-19-288 19-326 173-326 435v2227h672v339h-672v992z" id="HelveticaNeue-Light-74" transform="scale(.01563)"/><path d="M461 0h435v2214h2714V0h435v4570h-435V2586H896v1984H461V0z" id="HelveticaNeue-Light-48" transform="scale(.01563)"/><path d="M3059 3302h-403V1568c0-672-301-1325-992-1325-640 0-864 314-883 909v2150H378V1158C378 390 704-96 1536-96c493 0 928 250 1139 691h13V0h371v3302z" id="HelveticaNeue-Light-75" transform="scale(.01563)"/><path d="M3027 1651c0-685-313-1408-1081-1408-858 0-1159 723-1159 1408s301 1408 1159 1408c768 0 1081-723 1081-1408zM384 0h371v627h13C954 179 1414-96 1946-96c1004 0 1484 813 1484 1747 0 935-480 1747-1484 1747-493 0-973-249-1146-723h-13v1895H384V0z" id="HelveticaNeue-Light-62" transform="scale(.01563)"/><path d="M2765 2336c-26 717-551 1062-1210 1062-582 0-1241-256-1241-928 0-563 396-742 921-883l519-115c364-90 723-218 723-602 0-460-525-627-903-627-537 0-940 282-972 826H198C262 262 787-96 1555-96c615 0 1325 275 1325 992 0 576-480 845-941 915l-537 122c-276 70-685 198-685 557 0 428 422 569 781 569 460 0 844-224 864-723h403z" id="HelveticaNeue-Light-73" transform="scale(.01563)"/><path d="M2496 1280c6-646-538-1037-1152-1037-378 0-736 250-736 653 0 646 851 640 1536 762 109 19 288 51 339 147h13v-525zM749 2291c13 538 384 768 883 768 474 0 864-134 864-678 0-365-186-410-518-448-871-103-1773-135-1773-1063 0-665 499-966 1107-966 634 0 922 243 1203 672h13c0-346 64-576 474-576 108 0 172 6 262 26v339c-32-13-83-26-128-26-160 0-237 90-237 243v1754c0 883-633 1062-1216 1062-755 0-1299-332-1337-1107h403z" id="HelveticaNeue-Light-61" transform="scale(.01563)"/><path d="M384 0h403v1760c0 685 499 1222 1229 1184v403c-595 26-1043-288-1248-819h-13v774H384V0z" id="HelveticaNeue-Light-72" transform="scale(.01563)"/></defs><use xlink:href="#HelveticaNeue-Light-47"/><use x="74.1" xlink:href="#HelveticaNeue-Light-69"/><use x="92.6" xlink:href="#HelveticaNeue-Light-74"/><use x="122.2" xlink:href="#HelveticaNeue-Light-48"/><use x="192.6" xlink:href="#HelveticaNeue-Light-75"/><use x="246.3" xlink:href="#HelveticaNeue-Light-62"/><use x="303.7" xlink:href="#HelveticaNeue-Light-20"/><use x="331.5" xlink:href="#HelveticaNeue-Light-73"/><use x="379.6" xlink:href="#HelveticaNeue-Light-74"/><use x="409.2" xlink:href="#HelveticaNeue-Light-61"/><use x="461.1" xlink:href="#HelveticaNeue-Light-72"/><use x="492.6" xlink:href="#HelveticaNeue-Light-73"/></g></g><path clip-path="url(#pdedcb45a5e)" d="m380.15 294.508 3.609-.015 1.074-.014 2.559-.028.119-.071 2.659-.142 1.822-.27.037-.538.527-1.077 2.052-1.077 1.582-.539 2.933-.552 1.657-.54 2.896-.538 1.87-.538 2.038-.553 2.62-1.077.8-1.092.917-2.154 1.226-1.077 1.914-1.092 1.464-1.077 1.812-1.091 2.006-1.077 1.78-1.092 1.517-1.077 1.92-1.077 3.011-2.169 1.287-1.077 2.045-1.091 2.865-2.169 1.969-1.077 1.74-1.092 2.12-2.168 2.81-4.337" style="fill:none;stroke:#bcbd22;stroke-linecap:square;stroke-width:1.5" id="line2d_25"/><path clip-path="url(#pdedcb45a5e)" d="m409.69 294.508 1.956-18.115.984-2.253 1.502-1.134 2.08-1.134 1.93-1.134 1.828-1.134 1.679-1.134 2.378-1.134 1.728-1.12 2.412-1.133 2.35-1.134 2.315-1.134 1.702-.567 1.523-.567 2.245-1.134 2.48-1.134 2.563-1.134" style="fill:none;stroke:#7f7f7f;stroke-linecap:square;stroke-width:1.5" id="line2d_26"/><path clip-path="url(#pdedcb45a5e)" d="m179.692 294.508.398-3.374.426-.836.728-.425 2.394-.426 2.94-1.686 4.116-1.262 25.722-2.622 5.932-.538 1.633-.213.037-.425 1.018-.425 4.348-.426 6.296-.85 4.682-.411.27-.425 1.362-.85.825-.837 3.215-.425 2.546-.425 4.127-.411 1.717-.426.041-.85.256-.85 4.265-.638 5.841-.624 2.417-.425.055-.85.93-1.687 3.651-.411.93-.213 5.69-.638 4.202-.425 5.463-.85 2.988-.85 1.176-1.687 3.171-1.262 2.731-.425 1.157-.836 1.898-.85 5.568-1.276 4.991-.837 5.368-.85 2.586-.425 2.633-.837.828-.425 4.151-.836 3.87-.638 2.186-.213 4.408-.85 1.473-.425.908-.425 2.148-.426 2.327-.836 2.323-.425.865-.425.907-.199 2.318-.212 1.65-.425 1.907-.85 6.61-1.05 2.562-.212 2.748-.426 3.322-.425 11.498-1.686 2.767-.213 1.146-.213 18.714-1.899 1.03-.213 4.182-.425 5.386-1.049 2.15-.212 2.745-.425 16.764-1.276 6.84-.425h0" style="fill:none;stroke:#e377c2;stroke-linecap:square;stroke-width:1.5" id="line2d_27"/><g style="fill:#1f77b4" transform="matrix(.14 0 0 -.14 454.23 32.057)" id="text_19"><defs><path d="M378 0h403v1926c13 647 397 1133 1037 1133 652 0 838-429 838-998V0h403v2125c0 787-281 1273-1209 1273-468 0-909-268-1056-665h-13v569H378V0z" id="HelveticaNeue-Light-6e" transform="scale(.01563)"/><path d="M3117 2266c-90 755-634 1132-1338 1132-1011 0-1561-800-1561-1747S768-96 1779-96c736 0 1255 486 1363 1280h-403c-51-550-461-941-960-941-774 0-1158 704-1158 1408s384 1408 1158 1408c525 0 826-301 935-793h403z" id="HelveticaNeue-Light-63" transform="scale(.01563)"/><path d="M1779 3398c-1011 0-1561-800-1561-1747S768-96 1779-96s1562 800 1562 1747-551 1747-1562 1747zm0-339c775 0 1159-704 1159-1408S2554 243 1779 243c-774 0-1158 704-1158 1408s384 1408 1158 1408z" id="HelveticaNeue-Light-6f" transform="scale(.01563)"/><path d="M390 0h404v4570H390V0z" id="HelveticaNeue-Light-6c" transform="scale(.01563)"/><path d="M1709 378c-743 0-1088 646-1088 1312 0 684 320 1369 1088 1369 761 0 1062-723 1062-1369 0-672-365-1312-1062-1312zm1465 2924h-403v-569h-13c-160 365-569 665-1049 665-954 0-1491-755-1491-1664C218 794 653 38 1709 38c473 0 864 276 1049 679h13V269c0-807-320-1248-1062-1248-448 0-877 173-967 659H339c58-704 711-998 1370-998 1081 0 1459 601 1465 1587v3033z" id="HelveticaNeue-Light-67" transform="scale(.01563)"/><path d="m262-96 1952 4762h-326L-83-96h345z" id="HelveticaNeue-Light-2f" transform="scale(.01563)"/><path d="M3162 1542c32 928-391 1856-1453 1856-1050 0-1491-876-1491-1747C218 710 659-96 1709-96c832 0 1267 435 1440 1184h-403c-128-499-448-845-1037-845-775 0-1082 711-1088 1299h2541zM621 1882c64 601 429 1177 1088 1177 653 0 1030-569 1049-1177H621z" id="HelveticaNeue-Light-65" transform="scale(.01563)"/></defs><use xlink:href="#HelveticaNeue-Light-6e"/><use x="53.7" xlink:href="#HelveticaNeue-Light-69"/><use x="72.2" xlink:href="#HelveticaNeue-Light-63"/><use x="124.1" xlink:href="#HelveticaNeue-Light-6f"/><use x="179.7" xlink:href="#HelveticaNeue-Light-6c"/><use x="198.2" xlink:href="#HelveticaNeue-Light-61"/><use x="250.1" xlink:href="#HelveticaNeue-Light-72"/><use x="281.6" xlink:href="#HelveticaNeue-Light-67"/><use x="337.2" xlink:href="#HelveticaNeue-Light-6f"/><use x="392.8" xlink:href="#HelveticaNeue-Light-2f"/><use x="426.1" xlink:href="#HelveticaNeue-Light-67"/><use x="481.7" xlink:href="#HelveticaNeue-Light-6c"/><use x="500.2" xlink:href="#HelveticaNeue-Light-61"/><use x="552.1" xlink:href="#HelveticaNeue-Light-6e"/><use x="605.8" xlink:href="#HelveticaNeue-Light-63"/><use x="657.7" xlink:href="#HelveticaNeue-Light-65"/><use x="709.6" xlink:href="#HelveticaNeue-Light-73"/></g><g style="fill:#ff7f0e" transform="matrix(.14 0 0 -.14 454.23 165.253)" id="text_20"><defs><path d="M378 0h403v1926c13 647 397 1133 1037 1133 652 0 838-429 838-998V0h403v2125c0 787-281 1273-1209 1273-468 0-909-268-1056-665h-13v1837H378V0z" id="HelveticaNeue-Light-68" transform="scale(.01563)"/><path d="M3027 1651c0-685-313-1408-1081-1408-858 0-1159 723-1159 1408 0 749 269 1408 1159 1408 768 0 1081-723 1081-1408zM384-1222h403V627h13C973 154 1453-96 1946-96c1004 0 1484 813 1484 1747 0 935-480 1747-1484 1747-532 0-992-275-1178-723h-13v627H384v-4524z" id="HelveticaNeue-Light-70" transform="scale(.01563)"/></defs><use xlink:href="#HelveticaNeue-Light-61"/><use x="51.9" xlink:href="#HelveticaNeue-Light-72"/><use x="83.4" xlink:href="#HelveticaNeue-Light-69"/><use x="101.9" xlink:href="#HelveticaNeue-Light-73"/><use x="150" xlink:href="#HelveticaNeue-Light-74"/><use x="179.6" xlink:href="#HelveticaNeue-Light-6f"/><use x="235.2" xlink:href="#HelveticaNeue-Light-63"/><use x="287.1" xlink:href="#HelveticaNeue-Light-72"/><use x="318.6" xlink:href="#HelveticaNeue-Light-61"/><use x="370.5" xlink:href="#HelveticaNeue-Light-74"/><use x="400.1" xlink:href="#HelveticaNeue-Light-6f"/><use x="455.7" xlink:href="#HelveticaNeue-Light-73"/><use x="503.8" xlink:href="#HelveticaNeue-Light-2f"/><use x="537.1" xlink:href="#HelveticaNeue-Light-62"/><use x="594.5" xlink:href="#HelveticaNeue-Light-61"/><use x="646.4" xlink:href="#HelveticaNeue-Light-73"/><use x="694.5" xlink:href="#HelveticaNeue-Light-68"/><use x="748.2" xlink:href="#HelveticaNeue-Light-74"/><use x="777.8" xlink:href="#HelveticaNeue-Light-6f"/><use x="833.4" xlink:href="#HelveticaNeue-Light-70"/></g><g style="fill:#2ca02c" transform="matrix(.14 0 0 -.14 454.23 179.148)" id="text_21"><defs><path d="M384 0h403v1254l653 544L2746 0h505L1747 2080l1408 1222h-537L787 1702v2868H384V0z" id="HelveticaNeue-Light-6b" transform="scale(.01563)"/></defs><use xlink:href="#HelveticaNeue-Light-61"/><use x="51.9" xlink:href="#HelveticaNeue-Light-6b"/><use x="101.9" xlink:href="#HelveticaNeue-Light-73"/><use x="150" xlink:href="#HelveticaNeue-Light-61"/><use x="201.9" xlink:href="#HelveticaNeue-Light-6b"/><use x="251.9" xlink:href="#HelveticaNeue-Light-61"/><use x="303.8" xlink:href="#HelveticaNeue-Light-6c"/><use x="322.3" xlink:href="#HelveticaNeue-Light-6c"/><use x="340.8" xlink:href="#HelveticaNeue-Light-69"/><use x="359.3" xlink:href="#HelveticaNeue-Light-2f"/><use x="392.6" xlink:href="#HelveticaNeue-Light-67"/><use x="448.2" xlink:href="#HelveticaNeue-Light-74"/><use x="477.8" xlink:href="#HelveticaNeue-Light-6f"/><use x="533.4" xlink:href="#HelveticaNeue-Light-70"/></g><g style="fill:#d62728" transform="matrix(.14 0 0 -.14 454.23 193.148)" id="text_22"><defs><path d="M390-403c0-275-51-480-364-480-64-7-154 0-218 6v-333c96 0 186-12 282-12 569 0 704 422 704 915v3609H390V-403zm0 4326h404v647H390v-647z" id="HelveticaNeue-Light-6a" transform="scale(.01563)"/></defs><use xlink:href="#HelveticaNeue-Light-63"/><use x="51.9" xlink:href="#HelveticaNeue-Light-6a"/><use x="70.4" xlink:href="#HelveticaNeue-Light-62"/><use x="127.8" xlink:href="#HelveticaNeue-Light-61"/><use x="179.7" xlink:href="#HelveticaNeue-Light-73"/><use x="227.8" xlink:href="#HelveticaNeue-Light-73"/><use x="275.9" xlink:href="#HelveticaNeue-Light-69"/><use x="294.4" xlink:href="#HelveticaNeue-Light-2f"/><use x="327.7" xlink:href="#HelveticaNeue-Light-67"/><use x="383.3" xlink:href="#HelveticaNeue-Light-6f"/><use x="438.9" xlink:href="#HelveticaNeue-Light-74"/><use x="468.5" xlink:href="#HelveticaNeue-Light-6f"/><use x="524.1" xlink:href="#HelveticaNeue-Light-70"/></g><g style="fill:#9467bd" transform="matrix(.14 0 0 -.14 454.23 207.253)" id="text_23"><defs><path d="m1331 13-141-378c-134-307-217-518-576-518-89 0-179 13-275 32v-339c64-26 147-26 307-32 506 0 640 160 871 716l1433 3808h-403L1530 486 442 3302H13L1331 13z" id="HelveticaNeue-Light-79" transform="scale(.01563)"/></defs><use xlink:href="#HelveticaNeue-Light-61"/><use x="51.9" xlink:href="#HelveticaNeue-Light-72"/><use x="83.4" xlink:href="#HelveticaNeue-Light-69"/><use x="101.9" xlink:href="#HelveticaNeue-Light-73"/><use x="150" xlink:href="#HelveticaNeue-Light-74"/><use x="179.6" xlink:href="#HelveticaNeue-Light-6f"/><use x="235.2" xlink:href="#HelveticaNeue-Light-63"/><use x="287.1" xlink:href="#HelveticaNeue-Light-72"/><use x="318.6" xlink:href="#HelveticaNeue-Light-61"/><use x="370.5" xlink:href="#HelveticaNeue-Light-74"/><use x="400.1" xlink:href="#HelveticaNeue-Light-6f"/><use x="455.7" xlink:href="#HelveticaNeue-Light-73"/><use x="503.8" xlink:href="#HelveticaNeue-Light-2f"/><use x="537.1" xlink:href="#HelveticaNeue-Light-62"/><use x="594.5" xlink:href="#HelveticaNeue-Light-70"/><use x="651.9" xlink:href="#HelveticaNeue-Light-79"/><use x="698.2" xlink:href="#HelveticaNeue-Light-74"/><use x="727.8" xlink:href="#HelveticaNeue-Light-6f"/><use x="783.4" xlink:href="#HelveticaNeue-Light-70"/></g><g style="fill:#8c564b" transform="matrix(.14 0 0 -.14 454.23 221.253)" id="text_24"><defs><path d="M384 0h403v1843c7 691 288 1216 986 1216 512 0 697-371 691-819V0h403v1869c0 614 199 1190 896 1190 576 0 781-294 781-838V0h403v2240c0 781-371 1158-1094 1158-435 0-851-211-1050-646-121 435-512 646-947 646-525 0-870-256-1082-652h-19v556H384V0z" id="HelveticaNeue-Light-6d" transform="scale(.01563)"/></defs><use xlink:href="#HelveticaNeue-Light-68"/><use x="53.7" xlink:href="#HelveticaNeue-Light-69"/><use x="72.2" xlink:href="#HelveticaNeue-Light-73"/><use x="120.3" xlink:href="#HelveticaNeue-Light-68"/><use x="174" xlink:href="#HelveticaNeue-Light-61"/><use x="225.9" xlink:href="#HelveticaNeue-Light-6d"/><use x="309.2" xlink:href="#HelveticaNeue-Light-68"/><use x="362.9" xlink:href="#HelveticaNeue-Light-6d"/><use x="446.2" xlink:href="#HelveticaNeue-Light-2f"/><use x="479.5" xlink:href="#HelveticaNeue-Light-68"/><use x="533.2" xlink:href="#HelveticaNeue-Light-74"/><use x="562.8" xlink:href="#HelveticaNeue-Light-6f"/><use x="618.4" xlink:href="#HelveticaNeue-Light-70"/></g><g style="fill:#e377c2" transform="matrix(.14 0 0 -.14 454.23 242.622)" id="text_25"><defs><path d="M448 0h435v3949h13L2464 0h410l1561 3949h13V0h435v4570h-640L2669 563 1088 4570H448V0z" id="HelveticaNeue-Light-4d" transform="scale(.01563)"/><path d="M461 0h435v2029h1651c826 32 877-679 915-1319 13-192 13-531 122-710h480c-192 230-192 858-211 1171-32 544-205 954-800 1031v12c589 116 889 589 889 1165 0 826-633 1191-1388 1191H461V0zm435 4198h1626c652 0 985-352 985-908 0-557-454-890-985-890H896v1798z" id="HelveticaNeue-Light-52" transform="scale(.01563)"/><path d="M1286 0h429l1235 3302h-416L1510 403h-12L461 3302H13L1286 0z" id="HelveticaNeue-Light-76" transform="scale(.01563)"/></defs><use xlink:href="#HelveticaNeue-Light-4d"/><use x="83.3" xlink:href="#HelveticaNeue-Light-72"/><use x="114.8" xlink:href="#HelveticaNeue-Light-52"/><use x="181.5" xlink:href="#HelveticaNeue-Light-69"/><use x="200" xlink:href="#HelveticaNeue-Light-6f"/><use x="255.6" xlink:href="#HelveticaNeue-Light-2f"/><use x="288.9" xlink:href="#HelveticaNeue-Light-76"/><use x="335.2" xlink:href="#HelveticaNeue-Light-74"/><use x="364.8" xlink:href="#HelveticaNeue-Light-6f"/><use x="420.4" xlink:href="#HelveticaNeue-Light-70"/></g><g style="fill:#7f7f7f" transform="matrix(.14 0 0 -.14 454.23 256.622)" id="text_26"><defs><path d="M1984 1574v372H384v-372h1600z" id="HelveticaNeue-Light-2d" transform="scale(.01563)"/><path d="M646 1651c0 685 314 1408 1082 1408 858 0 1158-723 1158-1408S2586 243 1728 243C960 243 646 966 646 1651zm2644 2919h-404V2675h-12c-173 474-653 723-1146 723-1005 0-1485-812-1485-1747C243 717 723-96 1728-96c480 0 1005 294 1178 723h12V0h372v4570z" id="HelveticaNeue-Light-64" transform="scale(.01563)"/></defs><use xlink:href="#HelveticaNeue-Light-68"/><use x="53.7" xlink:href="#HelveticaNeue-Light-74"/><use x="83.3" xlink:href="#HelveticaNeue-Light-6f"/><use x="138.9" xlink:href="#HelveticaNeue-Light-70"/><use x="196.3" xlink:href="#HelveticaNeue-Light-2d"/><use x="233.3" xlink:href="#HelveticaNeue-Light-64"/><use x="290.7" xlink:href="#HelveticaNeue-Light-65"/><use x="342.6" xlink:href="#HelveticaNeue-Light-76"/><use x="388.9" xlink:href="#HelveticaNeue-Light-2f"/><use x="422.2" xlink:href="#HelveticaNeue-Light-68"/><use x="475.9" xlink:href="#HelveticaNeue-Light-74"/><use x="505.5" xlink:href="#HelveticaNeue-Light-6f"/><use x="561.1" xlink:href="#HelveticaNeue-Light-70"/></g><g style="fill:#bcbd22" transform="matrix(.14 0 0 -.14 454.23 270.517)" id="text_27"><defs><path d="M4237 3187c-115 960-973 1479-1837 1479-1440 0-2157-1133-2157-2381S960-96 2400-96c1069 0 1779 717 1901 1837h-435c-84-813-621-1466-1466-1466-1210 0-1722 1011-1722 2010 0 998 512 2009 1722 2009 666 0 1248-403 1402-1107h435z" id="HelveticaNeue-Light-43" transform="scale(.01563)"/><path d="M-32 4198h1594V0h435v4198h1593v372H-32v-372z" id="HelveticaNeue-Light-54" transform="scale(.01563)"/></defs><use xlink:href="#HelveticaNeue-Light-43"/><use x="70.4" xlink:href="#HelveticaNeue-Light-6c"/><use x="88.9" xlink:href="#HelveticaNeue-Light-65"/><use x="140.8" xlink:href="#HelveticaNeue-Light-6d"/><use x="224.1" xlink:href="#HelveticaNeue-Light-65"/><use x="276" xlink:href="#HelveticaNeue-Light-6e"/><use x="329.7" xlink:href="#HelveticaNeue-Light-74"/><use x="359.3" xlink:href="#HelveticaNeue-Light-54"/><use x="414.9" xlink:href="#HelveticaNeue-Light-73"/><use x="463" xlink:href="#HelveticaNeue-Light-61"/><use x="514.9" xlink:href="#HelveticaNeue-Light-6e"/><use x="568.6" xlink:href="#HelveticaNeue-Light-67"/><use x="624.2" xlink:href="#HelveticaNeue-Light-2f"/><use x="657.5" xlink:href="#HelveticaNeue-Light-62"/><use x="714.9" xlink:href="#HelveticaNeue-Light-6f"/><use x="770.5" xlink:href="#HelveticaNeue-Light-74"/><use x="800.1" xlink:href="#HelveticaNeue-Light-74"/><use x="829.7" xlink:href="#HelveticaNeue-Light-6f"/><use x="885.3" xlink:href="#HelveticaNeue-Light-6d"/></g><g style="fill:#969696" transform="matrix(.09716 0 0 -.09716 86.396 328.769)" id="text_28"><defs><path d="M-45 0h467l551 1421h2080L3610 0h467L2285 4570h-487L-45 0zm2067 4134 884-2342H1107l915 2342z" id="HelveticaNeue-Light-41" transform="scale(.01563)"/><path d="M461 0h435v1958h1594c819 0 1356 480 1356 1306s-537 1306-1356 1306H461V0zm435 4198h1498c601 0 1017-307 1017-934s-416-934-1017-934H896v1868z" id="HelveticaNeue-Light-50" transform="scale(.01563)"/><path d="M493 0h435v4570H493V0z" id="HelveticaNeue-Light-49" transform="scale(.01563)"/><path d="M544-1370h339v6400H544v-6400z" id="HelveticaNeue-Light-7c" transform="scale(.01563)"/><path d="M454 0h436v3866h12L3565 0h486v4570h-435V704h-13L941 4570H454V0z" id="HelveticaNeue-Light-4e" transform="scale(.01563)"/><path d="M230 1504C179 390 973-96 2054-96c1620 0 1748 992 1748 1306 0 748-538 1030-1184 1203l-1114 275c-371 90-691 269-691 698 0 678 550 908 1145 908 647 0 1223-352 1248-1049h436c6 934-788 1421-1690 1421-1286 0-1574-839-1574-1287 0-710 492-966 1030-1101l1018-249c422-103 940-307 940-826 0-665-729-928-1209-928-832 0-1511 288-1491 1229H230z" id="HelveticaNeue-Light-53" transform="scale(.01563)"/><path d="M1779 3398c-1011 0-1561-800-1561-1747S768-96 1779-96s1562 800 1562 1747-551 1747-1562 1747zm0-339c775 0 1159-704 1159-1408S2554 243 1779 243c-774 0-1158 704-1158 1408s384 1408 1158 1408zm787 813v646h-435v-646h435zm-1132 0v646H998v-646h436z" id="HelveticaNeue-Light-f6" transform="scale(.01563)"/><path d="M896 2195h1498c761 0 1203-301 1203-883 0-730-557-947-1203-941H896v1824zM461 0h1933c1484 0 1638 864 1638 1299 0 595-378 1037-966 1114v13c473 102 793 544 793 1024 0 851-697 1120-1465 1120H461V0zm435 4198h1498c678 0 1030-288 1030-857 0-429-333-775-1030-775H896v1632z" id="HelveticaNeue-Light-42" transform="scale(.01563)"/><path d="M1734 0h436v1882l1804 2688h-518L1958 2253 454 4570H-64l1798-2688V0z" id="HelveticaNeue-Light-59" transform="scale(.01563)"/></defs><use xlink:href="#HelveticaNeue-Light-47"/><use x="74.1" xlink:href="#HelveticaNeue-Light-69"/><use x="92.6" xlink:href="#HelveticaNeue-Light-74"/><use x="122.2" xlink:href="#HelveticaNeue-Light-48"/><use x="192.6" xlink:href="#HelveticaNeue-Light-75"/><use x="246.3" xlink:href="#HelveticaNeue-Light-62"/><use x="303.7" xlink:href="#HelveticaNeue-Light-20"/><use x="331.5" xlink:href="#HelveticaNeue-Light-41"/><use x="394.5" xlink:href="#HelveticaNeue-Light-50"/><use x="457.5" xlink:href="#HelveticaNeue-Light-49"/><use x="479.7" xlink:href="#HelveticaNeue-Light-20"/><use x="507.5" xlink:href="#HelveticaNeue-Light-76"/><use x="553.8" xlink:href="#HelveticaNeue-Light-69"/><use x="572.3" xlink:href="#HelveticaNeue-Light-61"/><use x="624.2" xlink:href="#HelveticaNeue-Light-20"/><use x="652" xlink:href="#HelveticaNeue-Light-73"/><use x="700.1" xlink:href="#HelveticaNeue-Light-74"/><use x="729.7" xlink:href="#HelveticaNeue-Light-61"/><use x="781.6" xlink:href="#HelveticaNeue-Light-72"/><use x="813.1" xlink:href="#HelveticaNeue-Light-67"/><use x="868.7" xlink:href="#HelveticaNeue-Light-72"/><use x="900.2" xlink:href="#HelveticaNeue-Light-61"/><use x="952.1" xlink:href="#HelveticaNeue-Light-70"/><use x="1009.5" xlink:href="#HelveticaNeue-Light-68"/><use x="1063.2" xlink:href="#HelveticaNeue-Light-20"/><use x="1091" xlink:href="#HelveticaNeue-Light-7c"/><use x="1113.2" xlink:href="#HelveticaNeue-Light-20"/><use x="1141" xlink:href="#HelveticaNeue-Light-4e"/><use x="1211.4" xlink:href="#HelveticaNeue-Light-69"/><use x="1229.9" xlink:href="#HelveticaNeue-Light-63"/><use x="1281.8" xlink:href="#HelveticaNeue-Light-6f"/><use x="1337.4" xlink:href="#HelveticaNeue-Light-20"/><use x="1365.2" xlink:href="#HelveticaNeue-Light-53"/><use x="1428.2" xlink:href="#HelveticaNeue-Light-63"/><use x="1480.1" xlink:href="#HelveticaNeue-Light-68"/><use x="1533.8" xlink:href="#HelveticaNeue-Light-6c"/><use x="1552.3" xlink:href="#HelveticaNeue-Light-f6"/><use x="1607.9" xlink:href="#HelveticaNeue-Light-6d"/><use x="1691.2" xlink:href="#HelveticaNeue-Light-65"/><use x="1743.1" xlink:href="#HelveticaNeue-Light-72"/><use x="1774.6" xlink:href="#HelveticaNeue-Light-20"/><use x="1802.4" xlink:href="#HelveticaNeue-Light-7c"/><use x="1824.6" xlink:href="#HelveticaNeue-Light-20"/><use x="1852.4" xlink:href="#HelveticaNeue-Light-43"/><use x="1922.8" xlink:href="#HelveticaNeue-Light-43"/><use x="1993.2" xlink:href="#HelveticaNeue-Light-20"/><use x="2021" xlink:href="#HelveticaNeue-Light-42"/><use x="2087.7" xlink:href="#HelveticaNeue-Light-59"/></g><path clip-path="url(#pdedcb45a5e)" d="m164.948 294.508 3.05-.61 4.525-.298 5.045-.61 4.968-.467 14.783-1.389 5.75-.61 15.407-1.856 7.168-1.233 2.838-.312 6.405-1.233 4.622-1.233 2.611-4.919.347-2.466 1.563-1.233 1.322-.61 2.259-.623 5.414-1.219 4.127-.61 2.044-.623 5.175-1.233 2.61-.298 2.781-.623 1.878-.312 1.799-.61 1.267-.312 1.938-.311 1.792-.61 2.215-.624 1.493-.609 8.333-2.466 5.352-1.22 4.226-1.232 1.674-.624 6.288-1.843 1.679-.623 2.649-.61.435-.623 2.208-1.233 1.912-1.233 5.774-1.829 4.31-1.857 4.2-1.233 4.066-1.233 3.046-1.233 1.802-.61 4.454-1.856 3.904-1.22 2.728-1.232 2.328-.61 1.701-.623 4.33-1.843 3.54-1.233 2.54-.624 7.938-2.466 1.397-.61 1.948-.609 1.35-.61 2.253-.623 3.475-1.233 6.195-1.843 4.942-1.857 2.122-.609 4.108-1.857 5.488-2.452 2.785-1.233 1.594-1.233.61-1.233 1.77-.298 2.995-.312 3.632-.623 6.81-.766 1.976-.156 2.05-.311 12.178-1.233h0" style="fill:none;stroke:#8c564b;stroke-linecap:square;stroke-width:1.5" id="line2d_28"/><path clip-path="url(#pdedcb45a5e)" d="m408.172 294.508 1.169-24.223 1.383-6.053 2.699-6.066 2.404-6.052 1.01-6.067 1.265-6.052 1.027-3.033 2.187-3.033 1.607-6.052 1.43-3.033 2.018-3.034 1.245-3.019 1.821-3.033 1.216-3.033 2.184-3.033 1.936-3.02 2.341-3.032 2.841-3.034 1.876-1.516 1.352-1.517" style="fill:none;stroke:#9467bd;stroke-linecap:square;stroke-width:1.5" id="line2d_29"/><path clip-path="url(#pdedcb45a5e)" d="m317.133 294.508 3.512-.015.025-.028.024-.043.091-.099 1.258-.198.023-.397.018-.78.04-1.573.098-3.132.475-6.28 2.196-3.132 1.451-1.559 1.675-.78 1.919-.396 2.064-.397 1.237-.383 1.985-.397 1.87-.78 2.506-.779 1.739-.793 1.23-3.147.243-6.265 2.953-6.279 1.444-1.559 1.912-1.573 2.528-1.56 1.198-1.573.353-6.279 2.09-12.543 2.438-3.133 1.796-1.559 1.683-1.573 1.592-1.56 2.142-1.572 2.299-1.574 1.964-1.573 2.25-1.56 2.315-1.572 2.79-1.56 2.65-1.573 1.69-1.559 1.867-1.573 1.468-1.574 1.59-.78 1.496-.793 2.226-1.559 1.812-.78 2.383-.793 1.643-.78 1.89-.794 2.256-.78 2.62-.793 1.127-.382 1.988-.397 2.472-.78 1.587-.383 2.02-.396 2.836-.397 1.914-.199 1.448-.198 1.64-.383 2.75-.397 2.27-.397 3.018-.396 1.572-.185 1.83-.198 1.926-.199 2.004-.198 1.666-.198 2.386-.199 1.75-.198 1.953-.1 1.108-.099" style="fill:none;stroke:#d62728;stroke-linecap:square;stroke-width:1.5" id="line2d_30"/><path clip-path="url(#pdedcb45a5e)" d="m297.428 294.508 1.322-61.09 1.234-7.625 2.404-7.64.24-3.812 1.469-1.914 1.753-.95 1.497-.963 2.223-1.9 1.53-.949 2.81-.964 2.18-.95 1.921-.481 2.192-.482 2.257-.95 1.566-.482 1.947-.482 2.89-.95 1.792-.467 1.757-.482 2.709-.468 2.213-.482 1.837-.482 1.47-.481 2.11-.95 1.127-.468 2.056-.482 1.467-.467 2.19-.482 2.353-.482 1.27-.482 2.687-.95.994-.95.61-1.913 2.548-.95 2.96-.963 1.9-.468 2.551-.482 2.94-.964 1.764-.468 1.398-.481 2.206-.95 1.06-.227 2.108-.24 1.226-.483 2.252-.482 1.66-.24 1.467-.242 2.401-.467 2.754-.482 1.906-.482 1.43-.241 1.92-.241 2.034-.468 1.98-.482 2.152-.482 2.05-.24 1.49-.242 2.237-.467 1.681-.241 1.717-.241 2.705-.468 1.886-.24 1.255-.242 2.83-.468 2.416-.481 3.049-.482 1.743-.241 1.907-.241 1.99-.468 2.14-.24 2.112-.242 2.158-.24 2.695-.242.5-.482 2.833-1.913" style="fill:none;stroke:#2ca02c;stroke-linecap:square;stroke-width:1.5" id="line2d_31"/><path clip-path="url(#pdedcb45a5e)" d="m396.075 294.508 2.651-63.414 1.29-15.846 2.04-7.923 2.314-3.969 2.116-3.968 2.445-7.924 1.038-3.954 2.815-3.969 2.926-1.97 1.969-1.984 2.305-1.985 1.264-.992 2.018-.992 2.435-.992 1.872-.992 2.017-.992 2.501-.992 2.074-.993 2.76-.992 2.613-.992 2.146-.496 1.494-.496" style="fill:none;stroke:#ff7f0e;stroke-linecap:square;stroke-width:1.5" id="line2d_32"/><path clip-path="url(#pdedcb45a5e)" d="m86.396 282.049 2.473-.51 8.59-.525 8.3-.255 12.692-.34 10.904-.057 1.329-.127 1.417-.27.64-1.034 1.752-.525 2.19-.524 1.617-.255 2.372-.256.654-.524 4.252-.51 5.084-1.035 2.423-.524 8.912-1.05 1.845-2.069 2.376-1.034.838-1.05 3.935-1.034 1.977-1.034 1.411-.51 6.073-1.05.938-.524 1.226-.51 8.523-2.084 1.065-.524 1.905-.525 2.68-.524 3.002-1.035 2.127-.51 3.662-1.56 2.227-.524 1.103-.524 2.147-.51 1.553-.525 2.22-.51 1.463-.524 1.889-2.084 2.306-2.07 3.526-2.083 1.999-1.034 1.087-1.05 2.969-2.083 2.984-1.035 1.648-1.034.718-2.084 2.615-2.083 2.194-2.084 3.74-4.153 1.99-1.034 1.74-1.05 2.705-1.034 2.043-1.049 2.126-2.07 1.727-2.083 2.063-2.07 5.204-4.152 2.813-2.084 1.135-1.034 4.067-2.084 1.438-1.049 2.316-2.069 1.93-2.084 1.529-2.083 2.36-2.084 4.31-4.153 2.867-2.083 2.434-2.084 3.272-2.069 2.892-2.084 4.586-4.152 2.604-4.153 5.432-6.237 2.712-2.083 1.472-2.084 2.056-2.083 2.377-2.07 4.173-4.167 2.446-2.083 5.28-4.153 2.257-2.07 1.02-2.083.275-8.32 2.73-8.32 1.464-2.07 4.066-4.167 4.38-4.153 4.443-4.152 1.632-2.084 2.244-2.07 2.023-2.083 6.969-6.236 2.256-2.084 1.99-2.083 2.343-2.084 2.58-2.07 2.195-2.083 3.025-2.083 2.77-2.084 2.152-2.07 1.902-2.083 2.118-2.07 2.54-2.083 7.049-10.39 7.784-8.32 2.229-2.083 2.44-2.083 2.036-2.084 1.326-2.07 9.683-8.305 2.095-2.083 2.123-4.168 4.422-4.152 2.626-2.084 2.023-2.084 2.183-2.069 2.407-2.083 1.352-2.084 2.192-2.083h0" style="fill:none;stroke:#1f77b4;stroke-linecap:square;stroke-width:1.5" id="line2d_33"/></g></g><defs><clipPath id="pdedcb45a5e"><path d="M86.396 28.396h357.12v266.112H86.396z"/></clipPath></defs></svg>