<svg height="439.857" viewBox="0 0 566.946 329.893" width="755.928" xmlns="http://www.w3.org/2000/svg" xmlns:xlink="http://www.w3.org/1999/xlink"><defs><style>*{stroke-linecap:butt;stroke-linejoin:round}</style></defs><g id="figure_1"><path d="M0 329.893h566.946V0H0z" style="fill:none" id="patch_1"/><g id="axes_1"><path d="M86.396 286.358h357.12V20.246H86.396z" style="fill:none" id="patch_2"/><g id="matplotlib.axis_1"><g id="xtick_1"><g id="line2d_1"><defs><path d="M0 0v3.5" id="m05cd0eb817" style="stroke:#969696;stroke-width:.4"/></defs><use style="fill:#969696;stroke:#969696;stroke-width:.4" x="111.128" xlink:href="#m05cd0eb817" y="286.358"/></g><g style="fill:#969696" transform="matrix(.14 0 0 -.14 95.562 303.355)" id="text_1"><defs><path d="M3181 371H691c109 602 909 999 1344 1293 583 378 1127 845 1127 1594 0 832-608 1260-1389 1260-973 0-1453-665-1434-1587h403c-12 659 276 1248 1012 1248 544 0 1004-333 1004-915 0-358-128-595-371-845C1626 1658 262 1331 230 0h2951v371z" id="HelveticaNeue-Light-32" transform="scale(.01563)"/><path d="M1779 4179c1024 0 1159-1190 1159-1965 0-780-135-1971-1159-1971S621 1434 621 2214c0 775 134 1965 1158 1965zm0 339C474 4518 218 3258 218 2208 218 1165 474-96 1779-96c1306 0 1562 1261 1562 2310 0 1044-256 2304-1562 2304z" id="HelveticaNeue-Light-30" transform="scale(.01563)"/><path d="M621 3328h1184V0h403v4480h-326c-122-826-557-838-1261-864v-288z" id="HelveticaNeue-Light-31" transform="scale(.01563)"/><path d="M211 1427C147 467 813-96 1741-96c825 0 1542 486 1542 1363 0 589-339 1011-921 1107v13c480 115 755 506 755 992 0 794-685 1139-1389 1139-870 0-1408-627-1414-1472h403c-13 666 345 1133 1017 1133 538 0 980-256 980-845 0-563-493-819-909-812h-339v-340h339c595 0 1075-313 1075-947 0-640-557-992-1146-992-723 0-1145 474-1120 1184H211z" id="HelveticaNeue-Light-33" transform="scale(.01563)"/></defs><use xlink:href="#HelveticaNeue-Light-32"/><use x="55.6" xlink:href="#HelveticaNeue-Light-30"/><use x="111.2" xlink:href="#HelveticaNeue-Light-31"/><use x="166.8" xlink:href="#HelveticaNeue-Light-33"/></g></g><g id="xtick_2"><use style="fill:#969696;stroke:#969696;stroke-width:.4" x="150.26" xlink:href="#m05cd0eb817" y="286.358" id="line2d_2"/><g style="fill:#969696" transform="matrix(.14 0 0 -.14 134.693 303.355)" id="text_2"><defs><path d="M192 1114h2067V0h371v1114h672v339h-672v3027h-364L192 1504v-390zm365 339 1689 2438h13V1453H557z" id="HelveticaNeue-Light-34" transform="scale(.01563)"/></defs><use xlink:href="#HelveticaNeue-Light-32"/><use x="55.6" xlink:href="#HelveticaNeue-Light-30"/><use x="111.2" xlink:href="#HelveticaNeue-Light-31"/><use x="166.8" xlink:href="#HelveticaNeue-Light-34"/></g></g><g id="xtick_3"><use style="fill:#969696;stroke:#969696;stroke-width:.4" x="189.391" xlink:href="#m05cd0eb817" y="286.358" id="line2d_3"/><g style="fill:#969696" transform="matrix(.14 0 0 -.14 173.825 303.355)" id="text_3"><defs><path d="M230 1280C250 429 870-96 1702-96c858 0 1556 640 1556 1517 0 902-583 1549-1504 1549-346 0-724-154-948-416l-12 12 288 1485h1958v371H800L365 2099h345c218 339 602 531 999 531 665 0 1145-505 1145-1164 0-653-428-1223-1120-1223-614 0-1081 416-1100 1037H230z" id="HelveticaNeue-Light-35" transform="scale(.01563)"/></defs><use xlink:href="#HelveticaNeue-Light-32"/><use x="55.6" xlink:href="#HelveticaNeue-Light-30"/><use x="111.2" xlink:href="#HelveticaNeue-Light-31"/><use x="166.8" xlink:href="#HelveticaNeue-Light-35"/></g></g><g id="xtick_4"><use style="fill:#969696;stroke:#969696;stroke-width:.4" x="228.523" xlink:href="#m05cd0eb817" y="286.358" id="line2d_4"/><g style="fill:#969696" transform="matrix(.14 0 0 -.14 212.957 303.355)" id="text_4"><defs><path d="M1856 2579c685 0 1082-531 1082-1184 0-621-436-1152-1076-1152-780 0-1120 519-1120 1152 0 659 410 1184 1114 1184zm1376 768c-96 781-589 1171-1376 1171-1466 0-1600-1702-1600-2233C256 538 736-96 1824-96c883 0 1517 646 1517 1517 0 877-583 1497-1479 1497-505 0-979-300-1190-742h-13c0 813 192 2003 1235 2003 519 0 864-339 935-832h403z" id="HelveticaNeue-Light-36" transform="scale(.01563)"/></defs><use xlink:href="#HelveticaNeue-Light-32"/><use x="55.6" xlink:href="#HelveticaNeue-Light-30"/><use x="111.2" xlink:href="#HelveticaNeue-Light-31"/><use x="166.8" xlink:href="#HelveticaNeue-Light-36"/></g></g><g id="xtick_5"><use style="fill:#969696;stroke:#969696;stroke-width:.4" x="267.762" xlink:href="#m05cd0eb817" y="286.358" id="line2d_5"/><g style="fill:#969696" transform="matrix(.14 0 0 -.14 252.196 303.355)" id="text_5"><defs><path d="M326 4051h2477C1562 2637 1069 1517 960 0h435c103 2086 1255 3469 1811 4051v371H326v-371z" id="HelveticaNeue-Light-37" transform="scale(.01563)"/></defs><use xlink:href="#HelveticaNeue-Light-32"/><use x="55.6" xlink:href="#HelveticaNeue-Light-30"/><use x="111.2" xlink:href="#HelveticaNeue-Light-31"/><use x="166.8" xlink:href="#HelveticaNeue-Light-37"/></g></g><g id="xtick_6"><use style="fill:#969696;stroke:#969696;stroke-width:.4" x="306.894" xlink:href="#m05cd0eb817" y="286.358" id="line2d_6"/><g style="fill:#969696" transform="matrix(.14 0 0 -.14 291.328 303.355)" id="text_6"><defs><path d="M1779 243c-627 0-1139 339-1139 1011 0 660 525 986 1139 973 602 13 1139-326 1139-973 0-684-512-1011-1139-1011zm1357 3155c0 768-698 1120-1363 1120-659 0-1357-352-1357-1120 0-492 262-844 730-985v-13c-551-102-896-563-909-1146C237 352 941-96 1779-96c839 0 1543 448 1543 1350 0 602-340 1031-916 1146v13c455 134 730 499 730 985zm-1357-832c-473-12-960 231-960 832 0 512 467 781 960 781 538 0 954-269 954-781 0-576-461-844-954-832z" id="HelveticaNeue-Light-38" transform="scale(.01563)"/></defs><use xlink:href="#HelveticaNeue-Light-32"/><use x="55.6" xlink:href="#HelveticaNeue-Light-30"/><use x="111.2" xlink:href="#HelveticaNeue-Light-31"/><use x="166.8" xlink:href="#HelveticaNeue-Light-38"/></g></g><g id="xtick_7"><use style="fill:#969696;stroke:#969696;stroke-width:.4" x="346.026" xlink:href="#m05cd0eb817" y="286.358" id="line2d_7"/><g style="fill:#969696" transform="matrix(.14 0 0 -.14 330.46 303.355)" id="text_7"><defs><path d="M1702 1843c-684 0-1081 531-1081 1184 0 621 435 1152 1075 1152 781 0 1120-518 1120-1152 0-659-410-1184-1114-1184zM326 1075C422 294 915-96 1702-96c1466 0 1600 1702 1600 2234 0 1747-480 2380-1568 2380-883 0-1516-646-1516-1516 0-877 582-1498 1478-1498 506 0 979 301 1190 742h13c0-812-192-2003-1235-2003-518 0-864 339-934 832H326z" id="HelveticaNeue-Light-39" transform="scale(.01563)"/></defs><use xlink:href="#HelveticaNeue-Light-32"/><use x="55.6" xlink:href="#HelveticaNeue-Light-30"/><use x="111.2" xlink:href="#HelveticaNeue-Light-31"/><use x="166.8" xlink:href="#HelveticaNeue-Light-39"/></g></g><g id="xtick_8"><use style="fill:#969696;stroke:#969696;stroke-width:.4" x="385.158" xlink:href="#m05cd0eb817" y="286.358" id="line2d_8"/><g style="fill:#969696" transform="matrix(.14 0 0 -.14 369.591 303.355)" id="text_8"><use xlink:href="#HelveticaNeue-Light-32"/><use x="55.6" xlink:href="#HelveticaNeue-Light-30"/><use x="111.2" xlink:href="#HelveticaNeue-Light-32"/><use x="166.8" xlink:href="#HelveticaNeue-Light-30"/></g></g><g id="xtick_9"><use style="fill:#969696;stroke:#969696;stroke-width:.4" x="424.397" xlink:href="#m05cd0eb817" y="286.358" id="line2d_9"/><g style="fill:#969696" transform="matrix(.14 0 0 -.14 408.83 303.355)" id="text_9"><use xlink:href="#HelveticaNeue-Light-32"/><use x="55.6" xlink:href="#HelveticaNeue-Light-30"/><use x="111.2" xlink:href="#HelveticaNeue-Light-32"/><use x="166.8" xlink:href="#HelveticaNeue-Light-31"/></g></g></g><g id="matplotlib.axis_2"><g id="ytick_1"><path clip-path="url(#p6822a20e73)" d="M86.396 246.385h357.12" style="fill:none;stroke:#969696;stroke-linecap:square;stroke-width:.3" id="line2d_10"/><g id="line2d_11"><defs><path d="M0 0h-3.5" id="mc76fe458bc" style="stroke:#969696;stroke-width:.3"/></defs><use style="fill:#969696;stroke:#969696;stroke-width:.3" x="86.396" xlink:href="#mc76fe458bc" y="246.385"/></g><g style="fill:#969696" transform="matrix(.14 0 0 -.14 48.264 251.383)" id="text_10"><use xlink:href="#HelveticaNeue-Light-35"/><use x="55.6" xlink:href="#HelveticaNeue-Light-30"/><use x="111.2" xlink:href="#HelveticaNeue-Light-30"/><use x="166.8" xlink:href="#HelveticaNeue-Light-30"/></g></g><g id="ytick_2"><path clip-path="url(#p6822a20e73)" d="M86.396 206.404h357.12" style="fill:none;stroke:#969696;stroke-linecap:square;stroke-width:.3" id="line2d_12"/><use style="fill:#969696;stroke:#969696;stroke-width:.3" x="86.396" xlink:href="#mc76fe458bc" y="206.404" id="line2d_13"/><g style="fill:#969696" transform="matrix(.14 0 0 -.14 40.48 211.403)" id="text_11"><use xlink:href="#HelveticaNeue-Light-31"/><use x="55.6" xlink:href="#HelveticaNeue-Light-30"/><use x="111.2" xlink:href="#HelveticaNeue-Light-30"/><use x="166.8" xlink:href="#HelveticaNeue-Light-30"/><use x="222.4" xlink:href="#HelveticaNeue-Light-30"/></g></g><g id="ytick_3"><path clip-path="url(#p6822a20e73)" d="M86.396 166.424h357.12" style="fill:none;stroke:#969696;stroke-linecap:square;stroke-width:.3" id="line2d_14"/><use style="fill:#969696;stroke:#969696;stroke-width:.3" x="86.396" xlink:href="#mc76fe458bc" y="166.424" id="line2d_15"/><g style="fill:#969696" transform="matrix(.14 0 0 -.14 40.48 171.422)" id="text_12"><use xlink:href="#HelveticaNeue-Light-31"/><use x="55.6" xlink:href="#HelveticaNeue-Light-35"/><use x="111.2" xlink:href="#HelveticaNeue-Light-30"/><use x="166.8" xlink:href="#HelveticaNeue-Light-30"/><use x="222.4" xlink:href="#HelveticaNeue-Light-30"/></g></g><g id="ytick_4"><path clip-path="url(#p6822a20e73)" d="M86.396 126.443h357.12" style="fill:none;stroke:#969696;stroke-linecap:square;stroke-width:.3" id="line2d_16"/><use style="fill:#969696;stroke:#969696;stroke-width:.3" x="86.396" xlink:href="#mc76fe458bc" y="126.443" id="line2d_17"/><g style="fill:#969696" transform="matrix(.14 0 0 -.14 40.48 131.441)" id="text_13"><use xlink:href="#HelveticaNeue-Light-32"/><use x="55.6" xlink:href="#HelveticaNeue-Light-30"/><use x="111.2" xlink:href="#HelveticaNeue-Light-30"/><use x="166.8" xlink:href="#HelveticaNeue-Light-30"/><use x="222.4" xlink:href="#HelveticaNeue-Light-30"/></g></g><g id="ytick_5"><path clip-path="url(#p6822a20e73)" d="M86.396 86.462h357.12" style="fill:none;stroke:#969696;stroke-linecap:square;stroke-width:.3" id="line2d_18"/><use style="fill:#969696;stroke:#969696;stroke-width:.3" x="86.396" xlink:href="#mc76fe458bc" y="86.462" id="line2d_19"/><g style="fill:#969696" transform="matrix(.14 0 0 -.14 40.48 91.46)" id="text_14"><use xlink:href="#HelveticaNeue-Light-32"/><use x="55.6" xlink:href="#HelveticaNeue-Light-35"/><use x="111.2" xlink:href="#HelveticaNeue-Light-30"/><use x="166.8" xlink:href="#HelveticaNeue-Light-30"/><use x="222.4" xlink:href="#HelveticaNeue-Light-30"/></g></g><g id="ytick_6"><path clip-path="url(#p6822a20e73)" d="M86.396 46.481h357.12" style="fill:none;stroke:#969696;stroke-linecap:square;stroke-width:.3" id="line2d_20"/><use style="fill:#969696;stroke:#969696;stroke-width:.3" x="86.396" xlink:href="#mc76fe458bc" y="46.481" id="line2d_21"/><g style="fill:#969696" transform="matrix(.14 0 0 -.14 40.48 51.48)" id="text_15"><use xlink:href="#HelveticaNeue-Light-33"/><use x="55.6" xlink:href="#HelveticaNeue-Light-30"/><use x="111.2" xlink:href="#HelveticaNeue-Light-30"/><use x="166.8" xlink:href="#HelveticaNeue-Light-30"/><use x="222.4" xlink:href="#HelveticaNeue-Light-30"/></g></g><g style="fill:#969696" transform="matrix(.14 0 0 -.14 7.2 17.197)" id="text_16"><defs><path d="M4365 2323H2426v-371h1555c19-966-570-1677-1581-1677-1210 0-1722 1011-1722 2010 0 998 512 2009 1722 2009 870 0 1414-620 1472-1145h435c-166 998-947 1517-1907 1517-1440 0-2157-1133-2157-2381S960-96 2400-96c659 0 1274 275 1581 928h13l57-832h314v2323z" id="HelveticaNeue-Light-47" transform="scale(.01563)"/><path d="M390 0h404v3302H390V0zm0 3923h404v647H390v-647z" id="HelveticaNeue-Light-69" transform="scale(.01563)"/><path d="M1024 4294H621v-992H45v-339h576V704c-7-563 179-742 717-742 121 0 236 12 358 12v346c-115-13-230-19-346-19-288 19-326 173-326 435v2227h672v339h-672v992z" id="HelveticaNeue-Light-74" transform="scale(.01563)"/><path d="M461 0h435v2214h2714V0h435v4570h-435V2586H896v1984H461V0z" id="HelveticaNeue-Light-48" transform="scale(.01563)"/><path d="M3059 3302h-403V1568c0-672-301-1325-992-1325-640 0-864 314-883 909v2150H378V1158C378 390 704-96 1536-96c493 0 928 250 1139 691h13V0h371v3302z" id="HelveticaNeue-Light-75" transform="scale(.01563)"/><path d="M3027 1651c0-685-313-1408-1081-1408-858 0-1159 723-1159 1408s301 1408 1159 1408c768 0 1081-723 1081-1408zM384 0h371v627h13C954 179 1414-96 1946-96c1004 0 1484 813 1484 1747 0 935-480 1747-1484 1747-493 0-973-249-1146-723h-13v1895H384V0z" id="HelveticaNeue-Light-62" transform="scale(.01563)"/><path d="M2765 2336c-26 717-551 1062-1210 1062-582 0-1241-256-1241-928 0-563 396-742 921-883l519-115c364-90 723-218 723-602 0-460-525-627-903-627-537 0-940 282-972 826H198C262 262 787-96 1555-96c615 0 1325 275 1325 992 0 576-480 845-941 915l-537 122c-276 70-685 198-685 557 0 428 422 569 781 569 460 0 844-224 864-723h403z" id="HelveticaNeue-Light-73" transform="scale(.01563)"/><path d="M2496 1280c6-646-538-1037-1152-1037-378 0-736 250-736 653 0 646 851 640 1536 762 109 19 288 51 339 147h13v-525zM749 2291c13 538 384 768 883 768 474 0 864-134 864-678 0-365-186-410-518-448-871-103-1773-135-1773-1063 0-665 499-966 1107-966 634 0 922 243 1203 672h13c0-346 64-576 474-576 108 0 172 6 262 26v339c-32-13-83-26-128-26-160 0-237 90-237 243v1754c0 883-633 1062-1216 1062-755 0-1299-332-1337-1107h403z" id="HelveticaNeue-Light-61" transform="scale(.01563)"/><path d="M384 0h403v1760c0 685 499 1222 1229 1184v403c-595 26-1043-288-1248-819h-13v774H384V0z" id="HelveticaNeue-Light-72" transform="scale(.01563)"/></defs><use xlink:href="#HelveticaNeue-Light-47"/><use x="74.1" xlink:href="#HelveticaNeue-Light-69"/><use x="92.6" xlink:href="#HelveticaNeue-Light-74"/><use x="122.2" xlink:href="#HelveticaNeue-Light-48"/><use x="192.6" xlink:href="#HelveticaNeue-Light-75"/><use x="246.3" xlink:href="#HelveticaNeue-Light-62"/><use x="303.7" xlink:href="#HelveticaNeue-Light-20"/><use x="331.5" xlink:href="#HelveticaNeue-Light-73"/><use x="379.6" xlink:href="#HelveticaNeue-Light-74"/><use x="409.2" xlink:href="#HelveticaNeue-Light-61"/><use x="461.1" xlink:href="#HelveticaNeue-Light-72"/><use x="492.6" xlink:href="#HelveticaNeue-Light-73"/></g></g><path clip-path="url(#p6822a20e73)" d="m87.133 286.358 6.883-.264 24.26-.136 14.271-.264 4.445-.144 2.3-.12 14.524-.28 31.3-.975 8.182-.328 12.261-.488 14.677-.727 14.94-.976 7.311-.496 6.365-.48 16.657-1.135 6.711-.656 14.363-1.455 9.691-.815 21.108-2.6 10.113-.815 3.348-.32 9.922-.815 5.701-.648 10.685-1.303 1.537-.32 10.858-1.136 16.866-1.463 6.111-.488 7.039-.487 6.134-.656 7.139-.472 1.838-.184 4.585-.168 3.428-.28 1.877-.112 6.743-.144 6.79-.447 1.819-.16 3 .088h0" style="fill:none;stroke:#8c564b;stroke-linecap:square;stroke-width:1.5" id="line2d_22"/><path clip-path="url(#p6822a20e73)" d="m86.396 286.358 34.58-.208 34.105-1.255 7.114-.424 4.103-.312 5.921-.32 4.65-.312 17.536-1.16 8.323-.639 3.907-.528 4.426-.312 1.6-.207 10.793-.848 1.244-.216 14.052-1.255 3.69-.424 7.745-.624 1.438-.216 5.961-.631 13.624-1.48 7.405-.84 1.184-.207 9.844-1.064 1.108-.208 2.267-.207 2.934-.424 4.226-.416 1.192-.208 5.944-.632 15.52-2.534 7.72-.84 1.37-.208 7.92-.848 3.212-.423 2.043-.208 4.152-.632 10.262-1.055.93-.208 4.274-.424 3.133-.424 19.28-1.687 10.635-1.264 16.865-1.19 3.554-.193 6.36-.392 5.5-.272 9.948-.903 3.446-.104h0" style="fill:none;stroke:#9467bd;stroke-linecap:square;stroke-width:1.5" id="line2d_23"/><path clip-path="url(#p6822a20e73)" d="m228.908 286.358 2.146-.496 3.097-.504 2.706-.503 1.341-.504 2.802-.504 3.028-.504 2.562-.248 3.008-.255 1.879-.504 2.234-.248 2.859-.256 1.572-.248 1.825-.256 2.941-.504 1.828-.247 1.488-.256 2.66-.504 2.098-.504 2.099-.504 1.821-.503 2.097-.504 1.66-.504 1.863-.504 1.99-.503 2.27-.504 1.55-.248 1.896-.256 2.24-1.007 1.92-1.008 2.88-.504 1.635-.248 1.642-.255 1.874-.504 2.702-.504.985-.248 2.233-.256 3.114-.503 1.66-.248 1.736-.248 2.842-.504 1.99-.504 3.092-.503 3.153-.504 1.245-.248 2.297-.256 1.606-.248 2.42-.256 2.814-.503 2.101-.248 2.062-.256 2.687-.504 2.785-.504 2.757-.504 1.84-.503 2.549-.504 2.605-.504 2.201-.504 1.667-.247 1.582-.256 1.329-.504 3.104-.504 1.294-.504 1.585-.247 1.694-.256 2.595-.504 1.806-.248 1.667-.256 2.228-.248 1.944-.256 1.936-.248 1.877-.255 1.644-.248 1.973-.256 3.14-.504 1.4-.248 2.565-.256 3.003-.503 2.749-.504 3.044-.504 1.62-.248 2.571-.256 1.97-.152 1.98-.16 2.031-.151 1.363-.152 1.404-.304 2.389-.176 1.449-.176 2.45-.36 2.586-.128.903-.128 2.898-.232.766-.232 3.197-.28 2.795-.303 2.023-.304 1.932-.184 1.82-.184 2.144-.152 1.099-.152" style="fill:none;stroke:#d62728;stroke-linecap:square;stroke-width:1.5" id="line2d_24"/><g style="fill:#1f77b4" transform="matrix(.14 0 0 -.14 454.23 24.013)" id="text_17"><defs><path d="M390 0h404v4570H390V0z" id="HelveticaNeue-Light-6c" transform="scale(.01563)"/><path d="M3117 2266c-90 755-634 1132-1338 1132-1011 0-1561-800-1561-1747S768-96 1779-96c736 0 1255 486 1363 1280h-403c-51-550-461-941-960-941-774 0-1158 704-1158 1408s384 1408 1158 1408c525 0 826-301 935-793h403z" id="HelveticaNeue-Light-63" transform="scale(.01563)"/><path d="m1331 13-141-378c-134-307-217-518-576-518-89 0-179 13-275 32v-339c64-26 147-26 307-32 506 0 640 160 871 716l1433 3808h-403L1530 486 442 3302H13L1331 13z" id="HelveticaNeue-Light-79" transform="scale(.01563)"/><path d="m262-96 1952 4762h-326L-83-96h345z" id="HelveticaNeue-Light-2f" transform="scale(.01563)"/></defs><use xlink:href="#HelveticaNeue-Light-61"/><use x="51.9" xlink:href="#HelveticaNeue-Light-6c"/><use x="70.4" xlink:href="#HelveticaNeue-Light-61"/><use x="122.3" xlink:href="#HelveticaNeue-Light-63"/><use x="174.2" xlink:href="#HelveticaNeue-Light-72"/><use x="205.7" xlink:href="#HelveticaNeue-Light-69"/><use x="224.2" xlink:href="#HelveticaNeue-Light-74"/><use x="253.8" xlink:href="#HelveticaNeue-Light-74"/><use x="283.4" xlink:href="#HelveticaNeue-Light-79"/><use x="329.7" xlink:href="#HelveticaNeue-Light-2f"/><use x="363" xlink:href="#HelveticaNeue-Light-61"/><use x="414.9" xlink:href="#HelveticaNeue-Light-6c"/><use x="433.4" xlink:href="#HelveticaNeue-Light-61"/><use x="485.3" xlink:href="#HelveticaNeue-Light-63"/><use x="537.2" xlink:href="#HelveticaNeue-Light-72"/><use x="568.7" xlink:href="#HelveticaNeue-Light-69"/><use x="587.2" xlink:href="#HelveticaNeue-Light-74"/><use x="616.8" xlink:href="#HelveticaNeue-Light-74"/><use x="646.4" xlink:href="#HelveticaNeue-Light-79"/></g><g style="fill:#ff7f0e" transform="matrix(.14 0 0 -.14 454.23 116.32)" id="text_18"><defs><path d="M384 0h403v1843c7 691 288 1216 986 1216 512 0 697-371 691-819V0h403v1869c0 614 199 1190 896 1190 576 0 781-294 781-838V0h403v2240c0 781-371 1158-1094 1158-435 0-851-211-1050-646-121 435-512 646-947 646-525 0-870-256-1082-652h-19v556H384V0z" id="HelveticaNeue-Light-6d" transform="scale(.01563)"/><path d="M6 0h500l1017 1389L2560 0h512L1786 1722l1190 1580h-506l-921-1254-941 1254H102l1184-1587L6 0z" id="HelveticaNeue-Light-78" transform="scale(.01563)"/></defs><use xlink:href="#HelveticaNeue-Light-74"/><use x="29.6" xlink:href="#HelveticaNeue-Light-6d"/><use x="112.9" xlink:href="#HelveticaNeue-Light-75"/><use x="166.6" xlink:href="#HelveticaNeue-Light-78"/><use x="214.7" xlink:href="#HelveticaNeue-Light-2f"/><use x="248" xlink:href="#HelveticaNeue-Light-74"/><use x="277.6" xlink:href="#HelveticaNeue-Light-6d"/><use x="360.9" xlink:href="#HelveticaNeue-Light-75"/><use x="414.6" xlink:href="#HelveticaNeue-Light-78"/></g><g style="fill:#2ca02c" transform="matrix(.14 0 0 -.14 454.23 196.833)" id="text_19"><defs><path d="M384 0h403v1254l653 544L2746 0h505L1747 2080l1408 1222h-537L787 1702v2868H384V0z" id="HelveticaNeue-Light-6b" transform="scale(.01563)"/><path d="M1779 3398c-1011 0-1561-800-1561-1747S768-96 1779-96s1562 800 1562 1747-551 1747-1562 1747zm0-339c775 0 1159-704 1159-1408S2554 243 1779 243c-774 0-1158 704-1158 1408s384 1408 1158 1408z" id="HelveticaNeue-Light-6f" transform="scale(.01563)"/><path d="M1286 0h429l1235 3302h-416L1510 403h-12L461 3302H13L1286 0z" id="HelveticaNeue-Light-76" transform="scale(.01563)"/><path d="M646 1651c0 685 314 1408 1082 1408 858 0 1158-723 1158-1408S2586 243 1728 243C960 243 646 966 646 1651zm2644 2919h-404V2675h-12c-173 474-653 723-1146 723-1005 0-1485-812-1485-1747C243 717 723-96 1728-96c480 0 1005 294 1178 723h12V0h372v4570z" id="HelveticaNeue-Light-64" transform="scale(.01563)"/><path d="M1709 378c-743 0-1088 646-1088 1312 0 684 320 1369 1088 1369 761 0 1062-723 1062-1369 0-672-365-1312-1062-1312zm1465 2924h-403v-569h-13c-160 365-569 665-1049 665-954 0-1491-755-1491-1664C218 794 653 38 1709 38c473 0 864 276 1049 679h13V269c0-807-320-1248-1062-1248-448 0-877 173-967 659H339c58-704 711-998 1370-998 1081 0 1459 601 1465 1587v3033z" id="HelveticaNeue-Light-67" transform="scale(.01563)"/></defs><use xlink:href="#HelveticaNeue-Light-6b"/><use x="50" xlink:href="#HelveticaNeue-Light-6f"/><use x="105.6" xlink:href="#HelveticaNeue-Light-76"/><use x="151.9" xlink:href="#HelveticaNeue-Light-69"/><use x="170.4" xlink:href="#HelveticaNeue-Light-64"/><use x="227.8" xlink:href="#HelveticaNeue-Light-67"/><use x="283.4" xlink:href="#HelveticaNeue-Light-6f"/><use x="339" xlink:href="#HelveticaNeue-Light-79"/><use x="385.3" xlink:href="#HelveticaNeue-Light-61"/><use x="437.2" xlink:href="#HelveticaNeue-Light-6c"/><use x="455.7" xlink:href="#HelveticaNeue-Light-2f"/><use x="489" xlink:href="#HelveticaNeue-Light-6b"/><use x="539" xlink:href="#HelveticaNeue-Light-69"/><use x="557.5" xlink:href="#HelveticaNeue-Light-74"/><use x="587.1" xlink:href="#HelveticaNeue-Light-74"/><use x="616.7" xlink:href="#HelveticaNeue-Light-79"/></g><g style="fill:#d62728" transform="matrix(.14 0 0 -.14 454.23 246.623)" id="text_20"><defs><path d="M378 0h403v1926c13 647 397 1133 1037 1133 652 0 838-429 838-998V0h403v2125c0 787-281 1273-1209 1273-468 0-909-268-1056-665h-13v569H378V0z" id="HelveticaNeue-Light-6e" transform="scale(.01563)"/></defs><use xlink:href="#HelveticaNeue-Light-67"/><use x="55.6" xlink:href="#HelveticaNeue-Light-6e"/><use x="109.3" xlink:href="#HelveticaNeue-Light-75"/><use x="163" xlink:href="#HelveticaNeue-Light-6e"/><use x="216.7" xlink:href="#HelveticaNeue-Light-6e"/><use x="270.4" xlink:href="#HelveticaNeue-Light-31"/><use x="326" xlink:href="#HelveticaNeue-Light-2f"/><use x="359.3" xlink:href="#HelveticaNeue-Light-74"/><use x="388.9" xlink:href="#HelveticaNeue-Light-69"/><use x="407.4" xlink:href="#HelveticaNeue-Light-6c"/><use x="425.9" xlink:href="#HelveticaNeue-Light-69"/><use x="444.4" xlink:href="#HelveticaNeue-Light-78"/></g><g style="fill:#9467bd" transform="matrix(.14 0 0 -.14 454.23 260.623)" id="text_21"><defs><path d="M3162 1542c32 928-391 1856-1453 1856-1050 0-1491-876-1491-1747C218 710 659-96 1709-96c832 0 1267 435 1440 1184h-403c-128-499-448-845-1037-845-775 0-1082 711-1088 1299h2541zM621 1882c64 601 429 1177 1088 1177 653 0 1030-569 1049-1177H621z" id="HelveticaNeue-Light-65" transform="scale(.01563)"/></defs><use xlink:href="#HelveticaNeue-Light-47"/><use x="74.1" xlink:href="#HelveticaNeue-Light-75"/><use x="127.8" xlink:href="#HelveticaNeue-Light-61"/><use x="179.7" xlink:href="#HelveticaNeue-Light-6b"/><use x="229.7" xlink:href="#HelveticaNeue-Light-65"/><use x="281.6" xlink:href="#HelveticaNeue-Light-2f"/><use x="314.9" xlink:href="#HelveticaNeue-Light-67"/><use x="370.5" xlink:href="#HelveticaNeue-Light-75"/><use x="424.2" xlink:href="#HelveticaNeue-Light-61"/><use x="476.1" xlink:href="#HelveticaNeue-Light-6b"/><use x="526.1" xlink:href="#HelveticaNeue-Light-65"/></g><g style="fill:#8c564b" transform="matrix(.14 0 0 -.14 454.23 274.623)" id="text_22"><defs><path d="M378 0h403v1926c13 647 397 1133 1037 1133 652 0 838-429 838-998V0h403v2125c0 787-281 1273-1209 1273-468 0-909-268-1056-665h-13v1837H378V0z" id="HelveticaNeue-Light-68" transform="scale(.01563)"/></defs><use xlink:href="#HelveticaNeue-Light-74"/><use x="29.6" xlink:href="#HelveticaNeue-Light-68"/><use x="83.3" xlink:href="#HelveticaNeue-Light-65"/><use x="135.2" xlink:href="#HelveticaNeue-Light-73"/><use x="183.3" xlink:href="#HelveticaNeue-Light-74"/><use x="212.9" xlink:href="#HelveticaNeue-Light-69"/><use x="231.4" xlink:href="#HelveticaNeue-Light-6e"/><use x="285.1" xlink:href="#HelveticaNeue-Light-67"/><use x="340.7" xlink:href="#HelveticaNeue-Light-65"/><use x="392.6" xlink:href="#HelveticaNeue-Light-72"/><use x="424.1" xlink:href="#HelveticaNeue-Light-2f"/><use x="457.4" xlink:href="#HelveticaNeue-Light-74"/><use x="487" xlink:href="#HelveticaNeue-Light-65"/><use x="538.9" xlink:href="#HelveticaNeue-Light-72"/><use x="570.4" xlink:href="#HelveticaNeue-Light-6d"/><use x="653.7" xlink:href="#HelveticaNeue-Light-69"/><use x="672.2" xlink:href="#HelveticaNeue-Light-74"/><use x="701.8" xlink:href="#HelveticaNeue-Light-65"/></g><g style="fill:#969696" transform="matrix(.09716 0 0 -.09716 86.396 320.613)" id="text_23"><defs><path d="M-45 0h467l551 1421h2080L3610 0h467L2285 4570h-487L-45 0zm2067 4134 884-2342H1107l915 2342z" id="HelveticaNeue-Light-41" transform="scale(.01563)"/><path d="M461 0h435v1958h1594c819 0 1356 480 1356 1306s-537 1306-1356 1306H461V0zm435 4198h1498c601 0 1017-307 1017-934s-416-934-1017-934H896v1868z" id="HelveticaNeue-Light-50" transform="scale(.01563)"/><path d="M493 0h435v4570H493V0z" id="HelveticaNeue-Light-49" transform="scale(.01563)"/><path d="M3027 1651c0-685-313-1408-1081-1408-858 0-1159 723-1159 1408 0 749 269 1408 1159 1408 768 0 1081-723 1081-1408zM384-1222h403V627h13C973 154 1453-96 1946-96c1004 0 1484 813 1484 1747 0 935-480 1747-1484 1747-532 0-992-275-1178-723h-13v627H384v-4524z" id="HelveticaNeue-Light-70" transform="scale(.01563)"/><path d="M544-1370h339v6400H544v-6400z" id="HelveticaNeue-Light-7c" transform="scale(.01563)"/><path d="M454 0h436v3866h12L3565 0h486v4570h-435V704h-13L941 4570H454V0z" id="HelveticaNeue-Light-4e" transform="scale(.01563)"/><path d="M230 1504C179 390 973-96 2054-96c1620 0 1748 992 1748 1306 0 748-538 1030-1184 1203l-1114 275c-371 90-691 269-691 698 0 678 550 908 1145 908 647 0 1223-352 1248-1049h436c6 934-788 1421-1690 1421-1286 0-1574-839-1574-1287 0-710 492-966 1030-1101l1018-249c422-103 940-307 940-826 0-665-729-928-1209-928-832 0-1511 288-1491 1229H230z" id="HelveticaNeue-Light-53" transform="scale(.01563)"/><path d="M1779 3398c-1011 0-1561-800-1561-1747S768-96 1779-96s1562 800 1562 1747-551 1747-1562 1747zm0-339c775 0 1159-704 1159-1408S2554 243 1779 243c-774 0-1158 704-1158 1408s384 1408 1158 1408zm787 813v646h-435v-646h435zm-1132 0v646H998v-646h436z" id="HelveticaNeue-Light-f6" transform="scale(.01563)"/><path d="M4237 3187c-115 960-973 1479-1837 1479-1440 0-2157-1133-2157-2381S960-96 2400-96c1069 0 1779 717 1901 1837h-435c-84-813-621-1466-1466-1466-1210 0-1722 1011-1722 2010 0 998 512 2009 1722 2009 666 0 1248-403 1402-1107h435z" id="HelveticaNeue-Light-43" transform="scale(.01563)"/><path d="M896 2195h1498c761 0 1203-301 1203-883 0-730-557-947-1203-941H896v1824zM461 0h1933c1484 0 1638 864 1638 1299 0 595-378 1037-966 1114v13c473 102 793 544 793 1024 0 851-697 1120-1465 1120H461V0zm435 4198h1498c678 0 1030-288 1030-857 0-429-333-775-1030-775H896v1632z" id="HelveticaNeue-Light-42" transform="scale(.01563)"/><path d="M1734 0h436v1882l1804 2688h-518L1958 2253 454 4570H-64l1798-2688V0z" id="HelveticaNeue-Light-59" transform="scale(.01563)"/></defs><use xlink:href="#HelveticaNeue-Light-47"/><use x="74.1" xlink:href="#HelveticaNeue-Light-69"/><use x="92.6" xlink:href="#HelveticaNeue-Light-74"/><use x="122.2" xlink:href="#HelveticaNeue-Light-48"/><use x="192.6" xlink:href="#HelveticaNeue-Light-75"/><use x="246.3" xlink:href="#HelveticaNeue-Light-62"/><use x="303.7" xlink:href="#HelveticaNeue-Light-20"/><use x="331.5" xlink:href="#HelveticaNeue-Light-41"/><use x="394.5" xlink:href="#HelveticaNeue-Light-50"/><use x="457.5" xlink:href="#HelveticaNeue-Light-49"/><use x="479.7" xlink:href="#HelveticaNeue-Light-20"/><use x="507.5" xlink:href="#HelveticaNeue-Light-76"/><use x="553.8" xlink:href="#HelveticaNeue-Light-69"/><use x="572.3" xlink:href="#HelveticaNeue-Light-61"/><use x="624.2" xlink:href="#HelveticaNeue-Light-20"/><use x="652" xlink:href="#HelveticaNeue-Light-73"/><use x="700.1" xlink:href="#HelveticaNeue-Light-74"/><use x="729.7" xlink:href="#HelveticaNeue-Light-61"/><use x="781.6" xlink:href="#HelveticaNeue-Light-72"/><use x="813.1" xlink:href="#HelveticaNeue-Light-67"/><use x="868.7" xlink:href="#HelveticaNeue-Light-72"/><use x="900.2" xlink:href="#HelveticaNeue-Light-61"/><use x="952.1" xlink:href="#HelveticaNeue-Light-70"/><use x="1009.5" xlink:href="#HelveticaNeue-Light-68"/><use x="1063.2" xlink:href="#HelveticaNeue-Light-20"/><use x="1091" xlink:href="#HelveticaNeue-Light-7c"/><use x="1113.2" xlink:href="#HelveticaNeue-Light-20"/><use x="1141" xlink:href="#HelveticaNeue-Light-4e"/><use x="1211.4" xlink:href="#HelveticaNeue-Light-69"/><use x="1229.9" xlink:href="#HelveticaNeue-Light-63"/><use x="1281.8" xlink:href="#HelveticaNeue-Light-6f"/><use x="1337.4" xlink:href="#HelveticaNeue-Light-20"/><use x="1365.2" xlink:href="#HelveticaNeue-Light-53"/><use x="1428.2" xlink:href="#HelveticaNeue-Light-63"/><use x="1480.1" xlink:href="#HelveticaNeue-Light-68"/><use x="1533.8" xlink:href="#HelveticaNeue-Light-6c"/><use x="1552.3" xlink:href="#HelveticaNeue-Light-f6"/><use x="1607.9" xlink:href="#HelveticaNeue-Light-6d"/><use x="1691.2" xlink:href="#HelveticaNeue-Light-65"/><use x="1743.1" xlink:href="#HelveticaNeue-Light-72"/><use x="1774.6" xlink:href="#HelveticaNeue-Light-20"/><use x="1802.4" xlink:href="#HelveticaNeue-Light-7c"/><use x="1824.6" xlink:href="#HelveticaNeue-Light-20"/><use x="1852.4" xlink:href="#HelveticaNeue-Light-43"/><use x="1922.8" xlink:href="#HelveticaNeue-Light-43"/><use x="1993.2" xlink:href="#HelveticaNeue-Light-20"/><use x="2021" xlink:href="#HelveticaNeue-Light-42"/><use x="2087.7" xlink:href="#HelveticaNeue-Light-59"/></g><path clip-path="url(#p6822a20e73)" d="m264.985 286.358.004-.008 3.438-.008v-.016l.001-.04.001-.072.003-.144.007-.288.016-.576.035-1.151.238-2.311.6-.576 2.674-.575 1.881-.144 1.663-.144 1.956-.144 2.394-.144 2.27-.144 2.893-.144 2.737-.288 2.59-.288 1.28-.288 3.163-.287 1.796-.288 1.984-.288 1.634-.288 2.142-.584.945-1.151 1.355-.576 1.913-.576 2.834-1.151.646-1.16 3.065-2.302 1.408-1.152 2.321-1.16 2.35-2.302 2.56-2.311 1.256-1.152 2.644-1.151 3.093-1.151 1.523-1.16 2.634-1.151.583-1.152.073-2.31 1.287-4.614 2.975-2.303 2.388-1.152 2.172-1.16 2.844-1.15 2.321-1.152 1.85-1.152 2.008-1.159 1.408-1.151 2.154-1.152 2.459-1.151 1.69-1.16 2.206-1.151 1.876-1.152 3.211-1.151 2.164-1.16 3.086-2.302 2.883-1.152 2.592-1.16 1.963-1.15 2.451-1.152 3.124-1.152 2.556-1.16 1.965-1.15 2.757-1.152 2.253-1.151 2.262-1.16 1.81-1.151 2.302-1.152 2.42-1.151 2.919-1.16 2.24-.775 2-.784 2.208-.624 1.353-.631.937-1.256 3.173-1.583 3.134-1.583 1.946-.768 1.658-.767 1.493-1.04 1.994-1.047 2.073-.776 1.286-.776 2.63-1.327 2.196-1.327 1.886-1.264 1.864-1.263 1.924-.888 1.572-.887" style="fill:none;stroke:#2ca02c;stroke-linecap:square;stroke-width:1.5" id="line2d_25"/><path clip-path="url(#p6822a20e73)" d="m205.902 286.358 2.8-18.311 2.664-1.144 1.87-.568 1.533-.575 1.508-.568 1.863-.576 2.52-1.143 1.55-1.144 1.872-1.143 2.66-1.144 2.163-.575 1.699-.576 1.657-.568 1.783-.575 3-1.144 2.888-1.143 1.653-.576 1.88-.576 1.528-1.143 2.687-1.144 2.974-1.143 1.626-.576 1.718-.576 3.21-1.143 1.773-1.143 2.343-1.144 2.918-1.143 2.767-1.144 2.803-1.143 2.822-1.144 2.686-1.151 2.033-1.144 2.705-1.143 2.004-1.144 2.462-1.151 3.21-2.287 2.983-2.295 3.105-2.287 3.023-2.287 2.564-2.286 2.971-2.295 3.129-2.287 1.748-1.144 1.821-1.151 2.74-2.287 1.906-1.143 1.6-1.152 2.964-2.287 2.827-2.287 2.921-2.287 1.824-1.143 1.731-1.152 1.745-1.143 1.609-1.143 1.932-1.144 1.29-1.151 3.139-2.287 3.151-2.295 2.71-2.287 3.1-2.287 2.912-2.287 3.05-2.295 2.734-2.287 2.559-2.295 2.275-2.286 2.646-2.295 2.736-2.287 2.853-2.287 3.2-2.287 1.82-1.143 1.524-1.152 1.698-1.143 1.532-1.144 2.96-2.295 2.256-2.287 3.2-2.295 3.08-2.286 2.877-2.287 2.498-2.287 2.174-2.295 1.705-2.287 2.112-2.295 2.591-2.287 2.735-2.295 2.38-1.383 1.812-1.391 2.7-1.36 1.797-1.359 2.322-1.151 1.507-1.152 2.448-2.31 1.757-1.304 1.936-1.312 1.879-1.223 1.55-1.223 1.927-1.064 1.424-1.063 3.21-2 1.622-2.006 1.76-1.776 1.99-1.775 1.903-1.151 1.598-1.152" style="fill:none;stroke:#ff7f0e;stroke-linecap:square;stroke-width:1.5" id="line2d_26"/><path clip-path="url(#p6822a20e73)" d="m234.096 286.358.24-.008 10.136-.008.079-.008.496-.008 16.136-.008 2.724-.008 2.288-.008 1.97-.008.008-.024.02-.096.013-.184.046-.376.11-.743.023-1.488.011-2.974.038-5.957.23-11.907.268-5.949 3.097-5.957 2.79-2.975 2.426-1.487 2.698-1.487 1.202-1.487 3.03-1.488 3.09-1.487 1.93-1.495 2.06-1.488 2.2-1.487 2.473-1.487 2.047-1.487 2.532-2.975 3.146-2.983 1.906-1.487 1.82-1.487 2.313-2.975 1.09-2.974 2.417-2.983 2.983-2.974 2.5-2.975 3.017-2.975 2-1.487 2.23-1.495 1.822-1.487 1.448-1.488 2.06-2.974 1.947-1.488 1.526-1.487 2.145-2.982 2.703-2.975 2.267-2.975 2.541-2.974 2.656-2.983 2.8-2.974 2.934-2.975 2.133-2.974 1.673-2.983 1.594-2.974 1.745-2.975 1.932-2.975 2.257-2.982 2.328-2.975 2.528-2.974 2.104-2.975 2.366-2.982 2.844-2.975 2.356-2.975 2.696-2.974 2.785-2.983 1.753-1.487 1.528-1.487 1.591-2.975 1.61-2.974 2.384-2.983 1.911-2.975 1.663-2.974 2.896-5.957 2.941-5.957 1.665-2.975 1.932-2.983 2.257-3.278 1.934-3.286 2.402-3.575 2.096-3.574 2.651-3.35 2.157-3.359 1.508-6.708.761-6.957 2.89-6.965 1.635-2.854 1.808-2.855 1.973-2.183 1.385-2.191 2.742-3.038 2.076-3.039 1.996-7.229 1.745-7.236 2.03-1.96 1.467-1.966" style="fill:none;stroke:#1f77b4;stroke-linecap:square;stroke-width:1.5" id="line2d_27"/></g></g><defs><clipPath id="p6822a20e73"><path d="M86.396 20.246h357.12v266.112H86.396z"/></clipPath></defs></svg>