<svg height="475.298" viewBox="0 0 655.516 356.473" width="874.021" xmlns="http://www.w3.org/2000/svg" xmlns:xlink="http://www.w3.org/1999/xlink"><defs><style>*{stroke-linecap:butt;stroke-linejoin:round}</style></defs><g id="figure_1"><path d="M0 356.473h655.516V0H0z" style="fill:none" id="patch_1"/><g id="axes_1"><path d="M60.912 313.361h357.12V47.25H60.912z" style="fill:none" id="patch_2"/><path clip-path="url(#pec78fae66c)" d="m325.885 313.361 2.93-.865 2.988-.434 1.355-.434 1.584-.433 1.839-.434 2.22-.434 1.669-.217 1.385-.217 1.617-.434 2.578-.434 1.817-.433 1.477-.217 2.31-.217 1.614-.217 1.851-.217 2.6-.217 2.198-.217 2.244-.217 1.475-.217 1.98-.217 1.805-.217 1.59-.214 1.97-.217 1.664-.217 1.857-.217 1.742-.217 2.247-.217 1.966-.434 1.918-.433 2.926-.434 2.022-.217 1.48-.217 1.224-.217 2.053-.217 1.586-.217 1.549-.217 1.624-.217 1.875-.217 3.007-.433 1.987-.217 1.948-.217 1.982-.217 1.815-.217 1.975-.217 1.904-.217 2.241-.434 2.459-.433" style="fill:none;stroke:#17becf;stroke-linecap:square;stroke-width:1.5" id="line2d_1"/><g id="matplotlib.axis_1"><g id="xtick_1"><g id="line2d_2"><defs><path d="M0 0v3.5" id="m17d42085e7" style="stroke:#969696;stroke-width:.4"/></defs><use style="fill:#969696;stroke:#969696;stroke-width:.4" x="66.831" xlink:href="#m17d42085e7" y="313.361"/></g><g style="fill:#969696" transform="matrix(.14 0 0 -.14 51.26 330.41)" id="text_1"><defs><path d="M281 2888q0 793 409 1202 410 410 1148 410 618 0 1012-375t394-969q0-462-227-780-226-317-667-557l-775-425q-684-375-775-863h2444V0H166q25 634 275 1056t781 728l806 469q322 185 469 383t147 545q0 344-241 578-240 235-650 235-453 0-678-299-225-298-231-807H281z" id="HelveticaWorld-Regular-32" transform="scale(.01563)"/><path d="M2719 2188q0 903-239 1354-239 452-702 452-453 0-697-452-243-451-243-1354 0-875 240-1340 241-464 700-464 463 0 702 448 239 449 239 1356zm603 0q0-1107-400-1709-400-601-1144-601-772 0-1156 623-384 624-384 1687 0 1090 393 1701 394 611 1147 611 744 0 1144-608t400-1704z" id="HelveticaWorld-Regular-30" transform="scale(.01563)"/><path d="M2297 0h-600v3194H647v447q550 18 818 176 269 158 391 683h441V0z" id="HelveticaWorld-Regular-31" transform="scale(.01563)"/></defs><use xlink:href="#HelveticaWorld-Regular-32"/><use x="55.615" xlink:href="#HelveticaWorld-Regular-30"/><use x="111.23" xlink:href="#HelveticaWorld-Regular-31"/><use x="166.846" xlink:href="#HelveticaWorld-Regular-32"/></g></g><g id="xtick_2"><use style="fill:#969696;stroke:#969696;stroke-width:.4" x="103.886" xlink:href="#m17d42085e7" y="313.361" id="line2d_3"/><g style="fill:#969696" transform="matrix(.14 0 0 -.14 88.315 330.41)" id="text_2"><defs><path d="M1434 2559q141-12 294-12 397 0 626 183 230 183 230 554 0 300-214 505t-617 205q-447 0-655-263-207-262-220-703H325q0 703 369 1087 369 385 1084 385 635 0 1013-327 378-326 378-857 0-685-578-928v-13q750-256 750-1050 0-634-422-1041-422-406-1197-406-634 0-1044 333-409 333-459 1164h581q13-519 256-755 244-236 703-236 444 0 713 247t269 622q0 410-257 619-256 209-793 209-128 0-257-6v484z" id="HelveticaWorld-Regular-33" transform="scale(.01563)"/></defs><use xlink:href="#HelveticaWorld-Regular-32"/><use x="55.615" xlink:href="#HelveticaWorld-Regular-30"/><use x="111.23" xlink:href="#HelveticaWorld-Regular-31"/><use x="166.846" xlink:href="#HelveticaWorld-Regular-33"/></g></g><g id="xtick_3"><use style="fill:#969696;stroke:#969696;stroke-width:.4" x="140.839" xlink:href="#m17d42085e7" y="313.361" id="line2d_4"/><g style="fill:#969696" transform="matrix(.14 0 0 -.14 125.268 330.41)" id="text_3"><defs><path d="M678 1581h1447v2041h-12L678 1581zm2010-487V0h-563v1094H159v550l2063 2856h466V1581h659v-487h-659z" id="HelveticaWorld-Regular-34" transform="scale(.01563)"/></defs><use xlink:href="#HelveticaWorld-Regular-32"/><use x="55.615" xlink:href="#HelveticaWorld-Regular-30"/><use x="111.23" xlink:href="#HelveticaWorld-Regular-31"/><use x="166.846" xlink:href="#HelveticaWorld-Regular-34"/></g></g><g id="xtick_4"><use style="fill:#969696;stroke:#969696;stroke-width:.4" x="177.792" xlink:href="#m17d42085e7" y="313.361" id="line2d_5"/><g style="fill:#969696" transform="matrix(.14 0 0 -.14 162.221 330.41)" id="text_4"><defs><path d="M941 2619q372 281 872 281 606 0 1042-403t436-1038q0-690-421-1139-420-448-1179-448-660 0-1041 323-381 324-444 918h582q43-363 284-555t669-192q415 0 681 287 266 288 266 735 0 456-279 731-278 275-718 275-500 0-835-428l-484 25 337 2406h2332v-544H1131L941 2619z" id="HelveticaWorld-Regular-35" transform="scale(.01563)"/></defs><use xlink:href="#HelveticaWorld-Regular-32"/><use x="55.615" xlink:href="#HelveticaWorld-Regular-30"/><use x="111.23" xlink:href="#HelveticaWorld-Regular-31"/><use x="166.846" xlink:href="#HelveticaWorld-Regular-35"/></g></g><g id="xtick_5"><use style="fill:#969696;stroke:#969696;stroke-width:.4" x="214.745" xlink:href="#m17d42085e7" y="313.361" id="line2d_6"/><g style="fill:#969696" transform="matrix(.14 0 0 -.14 199.174 330.41)" id="text_5"><defs><path d="M903 1381q0-440 262-719 263-278 685-278 403 0 642 284 239 285 239 748 0 403-236 675t-670 272q-422 0-672-266t-250-716zm1766 1922q-63 344-255 517-192 174-520 174-519 0-791-507-272-506-278-1159l13-12q359 553 1068 553 566 0 988-375t422-1053q0-672-400-1118-400-445-1078-445-782 0-1188 556-406 557-406 1660 0 1062 415 1734 416 672 1247 672 538 0 910-321 372-320 403-876h-550z" id="HelveticaWorld-Regular-36" transform="scale(.01563)"/></defs><use xlink:href="#HelveticaWorld-Regular-32"/><use x="55.615" xlink:href="#HelveticaWorld-Regular-30"/><use x="111.23" xlink:href="#HelveticaWorld-Regular-31"/><use x="166.846" xlink:href="#HelveticaWorld-Regular-36"/></g></g><g id="xtick_6"><use style="fill:#969696;stroke:#969696;stroke-width:.4" x="251.799" xlink:href="#m17d42085e7" y="313.361" id="line2d_7"/><g style="fill:#969696" transform="matrix(.14 0 0 -.14 236.228 330.41)" id="text_6"><defs><path d="M238 4403h3109v-494q-641-653-1172-1766Q1644 1031 1497 0H878q94 850 622 1954 528 1105 1213 1899H238v550z" id="HelveticaWorld-Regular-37" transform="scale(.01563)"/></defs><use xlink:href="#HelveticaWorld-Regular-32"/><use x="55.615" xlink:href="#HelveticaWorld-Regular-30"/><use x="111.23" xlink:href="#HelveticaWorld-Regular-31"/><use x="166.846" xlink:href="#HelveticaWorld-Regular-37"/></g></g><g id="xtick_7"><use style="fill:#969696;stroke:#969696;stroke-width:.4" x="288.752" xlink:href="#m17d42085e7" y="313.361" id="line2d_8"/><g style="fill:#969696" transform="matrix(.14 0 0 -.14 273.181 330.41)" id="text_7"><defs><path d="M1766 2597q347 0 573 198 227 199 227 527 0 294-218 483-217 189-620 189-359 0-555-199-195-198-195-504 0-328 244-511t544-183zm6-484q-434 0-681-241t-247-591q0-403 250-650t712-247q410 0 655 247t245 657q0 350-245 587-245 238-689 238zm1378 1228q0-678-578-947 397-178 567-471 170-292 170-623 0-641-413-1032-412-390-1112-390-612 0-1076 336T244 1306q0 763 762 1082-609 243-609 875 0 531 361 884t1001 353q641 0 1016-333t375-826z" id="HelveticaWorld-Regular-38" transform="scale(.01563)"/></defs><use xlink:href="#HelveticaWorld-Regular-32"/><use x="55.615" xlink:href="#HelveticaWorld-Regular-30"/><use x="111.23" xlink:href="#HelveticaWorld-Regular-31"/><use x="166.846" xlink:href="#HelveticaWorld-Regular-38"/></g></g><g id="xtick_8"><use style="fill:#969696;stroke:#969696;stroke-width:.4" x="325.705" xlink:href="#m17d42085e7" y="313.361" id="line2d_9"/><g style="fill:#969696" transform="matrix(.14 0 0 -.14 310.134 330.41)" id="text_8"><defs><path d="M1766 2009q384 0 624 259 241 260 241 766 0 416-228 688t-681 272q-391 0-632-275-240-275-240-738 0-472 225-722t691-250zm-82-506q-640 0-1028 397-387 397-387 1056 0 666 390 1105 391 439 1057 439 775 0 1175-522t400-1565q0-1082-410-1809-409-726-1225-726-637 0-987 358t-350 845h565q25-337 220-536 196-198 540-198 487 0 737 434 250 435 344 1247l-12 13q-363-538-1029-538z" id="HelveticaWorld-Regular-39" transform="scale(.01563)"/></defs><use xlink:href="#HelveticaWorld-Regular-32"/><use x="55.615" xlink:href="#HelveticaWorld-Regular-30"/><use x="111.23" xlink:href="#HelveticaWorld-Regular-31"/><use x="166.846" xlink:href="#HelveticaWorld-Regular-39"/></g></g><g id="xtick_9"><use style="fill:#969696;stroke:#969696;stroke-width:.4" x="362.658" xlink:href="#m17d42085e7" y="313.361" id="line2d_10"/><g style="fill:#969696" transform="matrix(.14 0 0 -.14 347.088 330.41)" id="text_9"><use xlink:href="#HelveticaWorld-Regular-32"/><use x="55.615" xlink:href="#HelveticaWorld-Regular-30"/><use x="111.23" xlink:href="#HelveticaWorld-Regular-32"/><use x="166.846" xlink:href="#HelveticaWorld-Regular-30"/></g></g><g id="xtick_10"><use style="fill:#969696;stroke:#969696;stroke-width:.4" x="399.712" xlink:href="#m17d42085e7" y="313.361" id="line2d_11"/><g style="fill:#969696" transform="matrix(.14 0 0 -.14 384.142 330.41)" id="text_10"><use xlink:href="#HelveticaWorld-Regular-32"/><use x="55.615" xlink:href="#HelveticaWorld-Regular-30"/><use x="111.23" xlink:href="#HelveticaWorld-Regular-32"/><use x="166.846" xlink:href="#HelveticaWorld-Regular-31"/></g></g></g><g id="matplotlib.axis_2"><g id="ytick_1"><path clip-path="url(#pec78fae66c)" d="M60.912 268.174h357.12" style="fill:none;stroke:#969696;stroke-linecap:square;stroke-width:.3" id="line2d_12"/><g id="line2d_13"><defs><path d="M0 0h-3.5" id="mbaf0f5b504" style="stroke:#969696;stroke-width:.3"/></defs><use style="fill:#969696;stroke:#969696;stroke-width:.3" x="60.912" xlink:href="#mbaf0f5b504" y="268.174"/></g><g style="fill:#969696" transform="matrix(.14 0 0 -.14 14.985 273.198)" id="text_11"><use xlink:href="#HelveticaWorld-Regular-32"/><use x="55.615" xlink:href="#HelveticaWorld-Regular-30"/><use x="111.23" xlink:href="#HelveticaWorld-Regular-30"/><use x="166.846" xlink:href="#HelveticaWorld-Regular-30"/><use x="222.461" xlink:href="#HelveticaWorld-Regular-30"/></g></g><g id="ytick_2"><path clip-path="url(#pec78fae66c)" d="M60.912 222.984h357.12" style="fill:none;stroke:#969696;stroke-linecap:square;stroke-width:.3" id="line2d_14"/><use style="fill:#969696;stroke:#969696;stroke-width:.3" x="60.912" xlink:href="#mbaf0f5b504" y="222.984" id="line2d_15"/><g style="fill:#969696" transform="matrix(.14 0 0 -.14 14.985 228.009)" id="text_12"><use xlink:href="#HelveticaWorld-Regular-34"/><use x="55.615" xlink:href="#HelveticaWorld-Regular-30"/><use x="111.23" xlink:href="#HelveticaWorld-Regular-30"/><use x="166.846" xlink:href="#HelveticaWorld-Regular-30"/><use x="222.461" xlink:href="#HelveticaWorld-Regular-30"/></g></g><g id="ytick_3"><path clip-path="url(#pec78fae66c)" d="M60.912 177.794h357.12" style="fill:none;stroke:#969696;stroke-linecap:square;stroke-width:.3" id="line2d_16"/><use style="fill:#969696;stroke:#969696;stroke-width:.3" x="60.912" xlink:href="#mbaf0f5b504" y="177.794" id="line2d_17"/><g style="fill:#969696" transform="matrix(.14 0 0 -.14 14.985 182.819)" id="text_13"><use xlink:href="#HelveticaWorld-Regular-36"/><use x="55.615" xlink:href="#HelveticaWorld-Regular-30"/><use x="111.23" xlink:href="#HelveticaWorld-Regular-30"/><use x="166.846" xlink:href="#HelveticaWorld-Regular-30"/><use x="222.461" xlink:href="#HelveticaWorld-Regular-30"/></g></g><g id="ytick_4"><path clip-path="url(#pec78fae66c)" d="M60.912 132.604h357.12" style="fill:none;stroke:#969696;stroke-linecap:square;stroke-width:.3" id="line2d_18"/><use style="fill:#969696;stroke:#969696;stroke-width:.3" x="60.912" xlink:href="#mbaf0f5b504" y="132.604" id="line2d_19"/><g style="fill:#969696" transform="matrix(.14 0 0 -.14 14.985 137.629)" id="text_14"><use xlink:href="#HelveticaWorld-Regular-38"/><use x="55.615" xlink:href="#HelveticaWorld-Regular-30"/><use x="111.23" xlink:href="#HelveticaWorld-Regular-30"/><use x="166.846" xlink:href="#HelveticaWorld-Regular-30"/><use x="222.461" xlink:href="#HelveticaWorld-Regular-30"/></g></g><g id="ytick_5"><path clip-path="url(#pec78fae66c)" d="M60.912 87.414h357.12" style="fill:none;stroke:#969696;stroke-linecap:square;stroke-width:.3" id="line2d_20"/><use style="fill:#969696;stroke:#969696;stroke-width:.3" x="60.912" xlink:href="#mbaf0f5b504" y="87.414" id="line2d_21"/><g style="fill:#969696" transform="matrix(.14 0 0 -.14 7.2 92.439)" id="text_15"><use xlink:href="#HelveticaWorld-Regular-31"/><use x="55.615" xlink:href="#HelveticaWorld-Regular-30"/><use x="111.23" xlink:href="#HelveticaWorld-Regular-30"/><use x="166.846" xlink:href="#HelveticaWorld-Regular-30"/><use x="222.461" xlink:href="#HelveticaWorld-Regular-30"/><use x="278.076" xlink:href="#HelveticaWorld-Regular-30"/></g></g></g><path clip-path="url(#pec78fae66c)" d="m60.912 313.36 86.697-.094 16.175-.106 28.736-.117 2.87-.063.052-.13 5.25-.51 7.915-.255.06-.256.295-.255 1.999-.16 38.965-.608.126-1.534.474-.511 1.67-.255 12.616-.766 16.491-.513 5.77-.222 8.079-.223 4.795-.321 4.903-.384 5.153-.256 1.936-.128 1.951-.513 5.07-.382 9.842-.51 2.406-.13 1.411-.51 5.07-.384 15.211-.895 6.122-.51 18.233-1.28 2.937-.51 17.433-1.28 1.911-.254 6.605-.513 7.812-.511 4.014-.513h0" style="fill:none;stroke:#bcbd22;stroke-linecap:square;stroke-width:1.5" id="line2d_22"/><path clip-path="url(#pec78fae66c)" d="m312.848 313.361 2.417-1.877 2.436-.468 2.653-.235 1.933-.235 2.579-.235 2.334-.235 2.04-.235 1.418-.235 1.895-.233 1.607-.235 1.521-.47.391-.94.358-1.88 2.376-1.877 2.55-.94 1.929-.47 1.407-.47 2.932-.468 2.973-.47 2.937-.47 2.358-.47 2.008-.47 1.783-.47 2.454-.94 1.943-.467 2.413-.47 1.865-.47 2.059-.47 1.71-.47 1.524-.47 2.029-.47 2.523-.47 1.672-1.878 1.706-.94 1.5-.47 2.075-.47 2.01-.467 1.767-.47 2.02-.47 2.503-.47 2.167-.47 2.31-.47 2.047-.47 1.852-.47 2.774-.938 2.171-.47 2.224-.47 2.393-.47 1.992-.47 2.275-.47 2.32-.47" style="fill:none;stroke:#7f7f7f;stroke-linecap:square;stroke-width:1.5" id="line2d_23"/><g style="fill:#1f77b4" transform="matrix(.14 0 0 -.14 421.603 50.825)" id="text_16"><defs><path d="M422 3347h531v-472h13q378 569 1012 569 628 0 891-544 240 294 465 419t557 125q434 0 735-285 302-284 302-843V0h-562v2163q0 390-147 582-147 193-475 193-331 0-560-269-228-269-228-628V0h-562v2316q0 290-135 456-134 166-390 166-403 0-644-300t-241-813V0H422v3347z" id="HelveticaWorld-Regular-6d" transform="scale(.01563)"/><path d="M422 3956v638h562v-638H422zM984 0H422v3347h562V0z" id="HelveticaWorld-Regular-69" transform="scale(.01563)"/><path d="M2534 2222q-121 716-793 716-416 0-669-333t-253-927q0-647 234-967 235-320 681-320 300 0 519 220t281 573h544q-84-621-439-951T1722-97q-659 0-1081 451-422 452-422 1227 0 850 422 1356 422 507 1184 507 556 0 886-333t367-889h-544z" id="HelveticaWorld-Regular-63" transform="scale(.01563)"/><path d="M984 0H422v3347h531v-556h13q365 653 940 653 91 0 147-19v-584h-209q-378 0-619-257-241-256-241-637V0z" id="HelveticaWorld-Regular-72" transform="scale(.01563)"/><path d="M813 1678q0-559 253-920t718-361q482 0 732 378t250 903q0 531-250 901-250 371-732 371-446 0-709-349-262-348-262-923zm-575 0q0 747 415 1256 416 510 1131 510 732 0 1144-516 413-515 413-1250 0-737-410-1256Q2522-97 1784-97q-709 0-1128 503-418 503-418 1272z" id="HelveticaWorld-Regular-6f" transform="scale(.01563)"/><path d="M2309 2394q-12 300-214 431-201 131-579 131-275 0-471-122-195-121-195-350 0-181 115-267 116-86 501-183l556-140q506-128 723-327 218-198 218-554 0-494-361-802T1638-97Q934-97 573 195q-360 293-367 880h544q13-347 230-516 217-168 651-168 353 0 561 140 208 141 208 391 0 178-135 284-134 107-531 197l-653 160q-397 100-586 298t-189 514q0 494 353 781 354 288 922 288 607 0 930-296 323-295 342-754h-544z" id="HelveticaWorld-Regular-73" transform="scale(.01563)"/><path d="M1100 2881V0H538v2881H78v466h460v575q0 378 229 557 230 180 642 180 141 0 254-12v-506q-100 12-229 12-187 0-261-92-73-92-73-298v-416h563v-466h-563z" id="HelveticaWorld-Regular-66" transform="scale(.01563)"/><path d="M1100 2881V703q0-128 70-195 71-67 252-67h216V0q-307-44-422-44-353 0-516 169-162 169-162 547v2209H84v466h454v934h562v-934h538v-466h-538z" id="HelveticaWorld-Regular-74" transform="scale(.01563)"/><path d="M319-122h-428l1575 4838h422L319-122z" id="HelveticaWorld-Regular-2f" transform="scale(.01563)"/><path d="M2522 3347h616L1863 0h-604L38 3347h653l872-2725h12l947 2725z" id="HelveticaWorld-Regular-76" transform="scale(.01563)"/><path d="M838 1684q0-621 246-957 247-336 657-336 390 0 652 287 263 288 263 838 0 706-224 1064-223 358-679 358-434 0-675-285-240-284-240-969zM3225 0h-531v459h-13Q2363-97 1716-97q-697 0-1079 531-381 532-381 1338 0 744 378 1208 379 464 1016 464 628 0 1000-569l13 38v1681h562V0z" id="HelveticaWorld-Regular-64" transform="scale(.01563)"/><path d="M2719 1941q-44 543-288 770-243 227-647 227-409 0-661-288-251-287-267-709h1863zm537-891q-93-519-509-859-366-288-963-294-703 6-1116 461-412 455-412 1223 0 882 425 1372 425 491 1182 491 678 0 1059-507 381-506 381-1446H856q0-525 244-813 244-287 731-287 344 0 591 207 247 208 272 452h562z" id="HelveticaWorld-Regular-65" transform="scale(.01563)"/></defs><use xlink:href="#HelveticaWorld-Regular-6d"/><use x="83.008" xlink:href="#HelveticaWorld-Regular-69"/><use x="105.029" xlink:href="#HelveticaWorld-Regular-63"/><use x="156.299" xlink:href="#HelveticaWorld-Regular-72"/><use x="187.867" xlink:href="#HelveticaWorld-Regular-6f"/><use x="243.775" xlink:href="#HelveticaWorld-Regular-73"/><use x="293.775" xlink:href="#HelveticaWorld-Regular-6f"/><use x="349.684" xlink:href="#HelveticaWorld-Regular-66"/><use x="377.369" xlink:href="#HelveticaWorld-Regular-74"/><use x="405.055" xlink:href="#HelveticaWorld-Regular-2f"/><use x="432.838" xlink:href="#HelveticaWorld-Regular-76"/><use x="481.447" xlink:href="#HelveticaWorld-Regular-73"/><use x="531.447" xlink:href="#HelveticaWorld-Regular-63"/><use x="582.717" xlink:href="#HelveticaWorld-Regular-6f"/><use x="638.625" xlink:href="#HelveticaWorld-Regular-64"/><use x="695.607" xlink:href="#HelveticaWorld-Regular-65"/></g><g style="fill:#ff7f0e" transform="matrix(.14 0 0 -.14 421.603 191.22)" id="text_17"><defs><path d="M2456 1709q-62-65-245-106-183-40-683-106-369-44-542-182-173-137-173-362 0-275 146-428 147-153 469-153 403 0 715 229 313 230 313 558v550zM397 2328q19 566 367 841 349 275 1014 275 531 0 890-241 360-240 360-694V581q0-197 178-197 72 0 185 25V0q-153-63-319-63-288 0-429 123-140 124-146 387Q2016-97 1288-97q-475 0-763 269-287 269-287 700 0 441 250 712 250 272 728 329l993 121q269 41 269 397 0 263-195 403-195 141-592 141-353 0-543-156-189-156-226-491H397z" id="HelveticaWorld-Regular-61" transform="scale(.01563)"/></defs><use xlink:href="#HelveticaWorld-Regular-61"/><use x="54.932" xlink:href="#HelveticaWorld-Regular-74"/><use x="82.617" xlink:href="#HelveticaWorld-Regular-6f"/><use x="138.525" xlink:href="#HelveticaWorld-Regular-6d"/><use x="221.533" xlink:href="#HelveticaWorld-Regular-2f"/><use x="249.316" xlink:href="#HelveticaWorld-Regular-61"/><use x="304.248" xlink:href="#HelveticaWorld-Regular-74"/><use x="331.934" xlink:href="#HelveticaWorld-Regular-6f"/><use x="387.842" xlink:href="#HelveticaWorld-Regular-6d"/></g><g style="fill:#2ca02c" transform="matrix(.14 0 0 -.14 421.603 215.583)" id="text_18"><defs><path d="M3150 0h-566v2059q0 475-166 677-165 202-549 202-378 0-632-288-253-287-253-825V0H422v3347h531v-472h13q397 569 1012 569 569 0 870-302 302-301 302-864V0z" id="HelveticaWorld-Regular-6e" transform="scale(.01563)"/></defs><use xlink:href="#HelveticaWorld-Regular-6e"/><use x="55.176" xlink:href="#HelveticaWorld-Regular-65"/><use x="110.596" xlink:href="#HelveticaWorld-Regular-6f"/><use x="164.754" xlink:href="#HelveticaWorld-Regular-76"/><use x="214.363" xlink:href="#HelveticaWorld-Regular-69"/><use x="236.385" xlink:href="#HelveticaWorld-Regular-6d"/><use x="319.393" xlink:href="#HelveticaWorld-Regular-2f"/><use x="347.176" xlink:href="#HelveticaWorld-Regular-6e"/><use x="402.352" xlink:href="#HelveticaWorld-Regular-65"/><use x="457.771" xlink:href="#HelveticaWorld-Regular-6f"/><use x="511.93" xlink:href="#HelveticaWorld-Regular-76"/><use x="561.539" xlink:href="#HelveticaWorld-Regular-69"/><use x="583.561" xlink:href="#HelveticaWorld-Regular-6d"/></g><g style="fill:#d62728" transform="matrix(.14 0 0 -.14 421.603 243.632)" id="text_19"><use xlink:href="#HelveticaWorld-Regular-76"/><use x="49.609" xlink:href="#HelveticaWorld-Regular-69"/><use x="71.631" xlink:href="#HelveticaWorld-Regular-6d"/><use x="154.639" xlink:href="#HelveticaWorld-Regular-2f"/><use x="182.422" xlink:href="#HelveticaWorld-Regular-76"/><use x="232.031" xlink:href="#HelveticaWorld-Regular-69"/><use x="254.053" xlink:href="#HelveticaWorld-Regular-6d"/></g><g style="fill:#9467bd" transform="matrix(.14 0 0 -.14 421.603 257.717)" id="text_20"><defs><path d="M903 469h2060V0H153v441l2025 2440H316v466h2584v-459L903 469z" id="HelveticaWorld-Regular-7a" transform="scale(.01563)"/><path d="M2497 3347h612L1913 63q-32-88-63-166-272-725-469-995-197-271-637-271-231 0-378 50v513q159-57 350-57 206 0 301 130 96 130 283 636L56 3347h635l897-2725h12l897 2725z" id="HelveticaWorld-Regular-79" transform="scale(.01563)"/></defs><use xlink:href="#HelveticaWorld-Regular-7a"/><use x="49.219" xlink:href="#HelveticaWorld-Regular-79"/><use x="96.578" xlink:href="#HelveticaWorld-Regular-65"/><use x="151.998" xlink:href="#HelveticaWorld-Regular-64"/><use x="208.98" xlink:href="#HelveticaWorld-Regular-69"/><use x="231.002" xlink:href="#HelveticaWorld-Regular-64"/><use x="287.984" xlink:href="#HelveticaWorld-Regular-69"/><use x="310.006" xlink:href="#HelveticaWorld-Regular-61"/><use x="364.938" xlink:href="#HelveticaWorld-Regular-2f"/><use x="392.721" xlink:href="#HelveticaWorld-Regular-6d"/><use x="475.729" xlink:href="#HelveticaWorld-Regular-69"/><use x="497.75" xlink:href="#HelveticaWorld-Regular-63"/><use x="549.02" xlink:href="#HelveticaWorld-Regular-72"/><use x="580.588" xlink:href="#HelveticaWorld-Regular-6f"/></g><g style="fill:#8c564b" transform="matrix(.14 0 0 -.14 421.603 271.632)" id="text_21"><defs><path d="M984 0H422v4594h562V0z" id="HelveticaWorld-Regular-6c" transform="scale(.01563)"/><path d="M3138 0h-725l-825 1259L781 0H72l1169 1722L128 3347h716l775-1178 781 1178h684L1959 1722 3138 0z" id="HelveticaWorld-Regular-78" transform="scale(.01563)"/></defs><use xlink:href="#HelveticaWorld-Regular-6c"/><use x="22.021" xlink:href="#HelveticaWorld-Regular-69"/><use x="44.043" xlink:href="#HelveticaWorld-Regular-6d"/><use x="127.051" xlink:href="#HelveticaWorld-Regular-65"/><use x="182.471" xlink:href="#HelveticaWorld-Regular-74"/><use x="210.156" xlink:href="#HelveticaWorld-Regular-65"/><use x="262.701" xlink:href="#HelveticaWorld-Regular-78"/><use x="312.701" xlink:href="#HelveticaWorld-Regular-74"/><use x="340.387" xlink:href="#HelveticaWorld-Regular-2f"/><use x="368.17" xlink:href="#HelveticaWorld-Regular-6c"/><use x="390.191" xlink:href="#HelveticaWorld-Regular-69"/><use x="412.213" xlink:href="#HelveticaWorld-Regular-6d"/><use x="495.221" xlink:href="#HelveticaWorld-Regular-65"/></g><g style="fill:#e377c2" transform="matrix(.14 0 0 -.14 421.603 285.765)" id="text_22"><defs><path d="M959 1516q0-538 262-832 263-293 654-293 428 0 665 348 238 349 238 945 0 654-228 954t-687 300q-447 0-676-352-228-352-228-1070zM422 3347h531v-472h13q359 569 1000 569 647 0 1020-471 373-470 373-1201 0-819-381-1344T1888-97q-582 0-891 450h-13v-1678H422v4672z" id="HelveticaWorld-Regular-70" transform="scale(.01563)"/><path d="M1850 1484H281v575h1569v-575z" id="HelveticaWorld-Regular-2d" transform="scale(.01563)"/><path d="M391 3347h562V1125q0-369 167-552 168-182 480-182 434 0 678 307 244 308 244 805v1844h562V0h-531v488l-12 12Q2222-97 1478-97q-481 0-784 262-303 263-303 776v2406z" id="HelveticaWorld-Regular-75" transform="scale(.01563)"/></defs><use xlink:href="#HelveticaWorld-Regular-6e"/><use x="55.176" xlink:href="#HelveticaWorld-Regular-6f"/><use x="111.084" xlink:href="#HelveticaWorld-Regular-74"/><use x="138.77" xlink:href="#HelveticaWorld-Regular-65"/><use x="194.189" xlink:href="#HelveticaWorld-Regular-70"/><use x="250.684" xlink:href="#HelveticaWorld-Regular-61"/><use x="305.615" xlink:href="#HelveticaWorld-Regular-64"/><use x="362.598" xlink:href="#HelveticaWorld-Regular-2d"/><use x="395.898" xlink:href="#HelveticaWorld-Regular-70"/><use x="452.393" xlink:href="#HelveticaWorld-Regular-6c"/><use x="474.414" xlink:href="#HelveticaWorld-Regular-75"/><use x="529.199" xlink:href="#HelveticaWorld-Regular-73"/><use x="579.199" xlink:href="#HelveticaWorld-Regular-2d"/><use x="612.5" xlink:href="#HelveticaWorld-Regular-70"/><use x="668.994" xlink:href="#HelveticaWorld-Regular-6c"/><use x="691.016" xlink:href="#HelveticaWorld-Regular-75"/><use x="745.801" xlink:href="#HelveticaWorld-Regular-73"/><use x="795.801" xlink:href="#HelveticaWorld-Regular-2f"/><use x="823.584" xlink:href="#HelveticaWorld-Regular-6e"/><use x="878.76" xlink:href="#HelveticaWorld-Regular-6f"/><use x="934.668" xlink:href="#HelveticaWorld-Regular-74"/><use x="962.354" xlink:href="#HelveticaWorld-Regular-65"/><use x="1017.773" xlink:href="#HelveticaWorld-Regular-70"/><use x="1074.268" xlink:href="#HelveticaWorld-Regular-61"/><use x="1129.199" xlink:href="#HelveticaWorld-Regular-64"/><use x="1186.182" xlink:href="#HelveticaWorld-Regular-2d"/><use x="1219.482" xlink:href="#HelveticaWorld-Regular-70"/><use x="1275.977" xlink:href="#HelveticaWorld-Regular-6c"/><use x="1297.998" xlink:href="#HelveticaWorld-Regular-75"/><use x="1352.783" xlink:href="#HelveticaWorld-Regular-73"/><use x="1402.783" xlink:href="#HelveticaWorld-Regular-2d"/><use x="1436.084" xlink:href="#HelveticaWorld-Regular-70"/><use x="1492.578" xlink:href="#HelveticaWorld-Regular-6c"/><use x="1514.6" xlink:href="#HelveticaWorld-Regular-75"/><use x="1569.385" xlink:href="#HelveticaWorld-Regular-73"/></g><g style="fill:#7f7f7f" transform="matrix(.14 0 0 -.14 421.603 299.632)" id="text_23"><defs><path d="M3413 4594h696L2425 0h-653L97 4594h691L2100 678h13l1300 3916z" id="HelveticaWorld-Regular-56" transform="scale(.01563)"/><path d="M3225 3250q-19 438-327 686-307 248-810 248-507 0-779-208-271-207-271-598 0-209 118-359 119-150 425-222l1313-300q531-116 787-440 257-323 257-788 0-681-500-1036T2138-122q-610 0-962 156-351 157-623 497-272 341-272 953h582q0-512 340-794 341-281 928-281 569 0 886 202t317 573q0 338-189 505t-739 295l-990 232q-494 112-738 392t-244 689q0 619 417 1019 418 400 1165 400 843 0 1301-352 458-351 492-1114h-584z" id="HelveticaWorld-Regular-53" transform="scale(.01563)"/><path d="M3713 3213q-104 468-434 710-329 243-854 243-678 0-1091-493-412-492-412-1329 0-969 390-1443 391-473 1132-473 487 0 838 323 352 324 474 940h603q-121-885-671-1349T2350-122q-941 0-1505 647T281 2322q0 1109 589 1751 589 643 1555 643 800 0 1297-413 497-412 591-1090h-600z" id="HelveticaWorld-Regular-43" transform="scale(.01563)"/></defs><use xlink:href="#HelveticaWorld-Regular-56"/><use x="62.326" xlink:href="#HelveticaWorld-Regular-53"/><use x="128.537" xlink:href="#HelveticaWorld-Regular-43"/><use x="200.852" xlink:href="#HelveticaWorld-Regular-6f"/><use x="256.76" xlink:href="#HelveticaWorld-Regular-64"/><use x="313.742" xlink:href="#HelveticaWorld-Regular-69"/><use x="335.764" xlink:href="#HelveticaWorld-Regular-75"/><use x="390.549" xlink:href="#HelveticaWorld-Regular-6d"/><use x="473.557" xlink:href="#HelveticaWorld-Regular-2f"/><use x="501.34" xlink:href="#HelveticaWorld-Regular-76"/><use x="549.949" xlink:href="#HelveticaWorld-Regular-73"/><use x="599.949" xlink:href="#HelveticaWorld-Regular-63"/><use x="651.219" xlink:href="#HelveticaWorld-Regular-6f"/><use x="707.127" xlink:href="#HelveticaWorld-Regular-64"/><use x="764.109" xlink:href="#HelveticaWorld-Regular-69"/><use x="786.131" xlink:href="#HelveticaWorld-Regular-75"/><use x="840.916" xlink:href="#HelveticaWorld-Regular-6d"/></g><g style="fill:#bcbd22" transform="matrix(.14 0 0 -.14 421.603 313.632)" id="text_24"><defs><path d="M1638 0h-575L97 3347h606l641-2631h12l647 2631h635l653-2631h12l678 2631h557L3572 0h-591l-678 2591h-12L1638 0z" id="HelveticaWorld-Regular-77" transform="scale(.01563)"/><path d="M3200 0h-722L1434 1691l-468-422V0H422v4594h544V1931l1440 1416h716L1844 2100 3200 0z" id="HelveticaWorld-Regular-6b" transform="scale(.01563)"/></defs><use xlink:href="#HelveticaWorld-Regular-6d"/><use x="83.008" xlink:href="#HelveticaWorld-Regular-61"/><use x="135.939" xlink:href="#HelveticaWorld-Regular-77"/><use x="208.352" xlink:href="#HelveticaWorld-Regular-77"/><use x="280.764" xlink:href="#HelveticaWorld-Regular-77"/><use x="353.176" xlink:href="#HelveticaWorld-Regular-2f"/><use x="380.959" xlink:href="#HelveticaWorld-Regular-6b"/><use x="429.709" xlink:href="#HelveticaWorld-Regular-61"/><use x="484.641" xlink:href="#HelveticaWorld-Regular-6b"/><use x="532.266" xlink:href="#HelveticaWorld-Regular-6f"/><use x="588.174" xlink:href="#HelveticaWorld-Regular-75"/><use x="642.959" xlink:href="#HelveticaWorld-Regular-6e"/><use x="698.135" xlink:href="#HelveticaWorld-Regular-65"/></g><g style="fill:#17becf" transform="matrix(.14 0 0 -.14 421.603 327.632)" id="text_25"><use xlink:href="#HelveticaWorld-Regular-6f"/><use x="55.908" xlink:href="#HelveticaWorld-Regular-6e"/><use x="111.084" xlink:href="#HelveticaWorld-Regular-69"/><use x="133.105" xlink:href="#HelveticaWorld-Regular-76"/><use x="182.715" xlink:href="#HelveticaWorld-Regular-69"/><use x="204.736" xlink:href="#HelveticaWorld-Regular-6d"/><use x="287.744" xlink:href="#HelveticaWorld-Regular-2f"/><use x="315.527" xlink:href="#HelveticaWorld-Regular-6f"/><use x="371.436" xlink:href="#HelveticaWorld-Regular-6e"/><use x="426.611" xlink:href="#HelveticaWorld-Regular-69"/><use x="448.633" xlink:href="#HelveticaWorld-Regular-32"/></g><g style="fill:#969696" transform="matrix(.09716 0 0 -.09716 60.912 347.134)" id="text_26"><defs><path d="M2463 2456h2018V0h-403l-150 594q-294-375-691-546-396-170-824-170-691 0-1155 301-464 302-721 833-256 532-256 1326 0 990 589 1684t1586 694q744 0 1300-416 557-416 647-1100h-600q-109 453-462 709-353 257-916 257-678 0-1091-511-412-511-412-1352 0-978 409-1436 410-458 1119-458 463 0 783 183t492 497q172 314 172 836H2463v531z" id="HelveticaWorld-Regular-47" transform="scale(.01563)"/><path d="M4153 0h-622v2144H1131V0H519v4594h612V2694h2400v1900h622V0z" id="HelveticaWorld-Regular-48" transform="scale(.01563)"/><path d="M2778 1684q0 672-238 963-237 291-677 291-447-7-676-349-228-342-228-989 0-659 275-934t641-275q416 0 659 342 244 342 244 951zM422 0v4594h562V2925h13q359 519 969 519 625 0 1009-464t384-1208q0-838-388-1354Q2584-97 1888-97q-613 0-922 513h-13V0H422z" id="HelveticaWorld-Regular-62" transform="scale(.01563)"/><path d="m2816 1888-678 2021h-13l-737-2021h1428zm-1619-550L716 0H78l1728 4594h703L4172 0h-678l-453 1338H1197z" id="HelveticaWorld-Regular-41" transform="scale(.01563)"/><path d="M1141 2472h1234q466 0 700 204 234 205 234 621 0 372-225 569t-684 197H1141V2472zm0-2472H519v4594h2065q616 0 991-358t375-933q0-597-363-980-362-382-1003-382H1141V0z" id="HelveticaWorld-Regular-50" transform="scale(.01563)"/><path d="M1141 0H519v4594h622V0z" id="HelveticaWorld-Regular-49" transform="scale(.01563)"/><path d="M831 1684q0-615 244-954t659-339q404 0 660 293 256 294 256 832 0 706-224 1064-223 358-679 358-459 0-688-305-228-305-228-949zM3188 191q0-807-388-1203-387-397-1169-397-562 0-895 259T353-409h563q43-244 226-388t530-144q472 0 712 254 241 253 241 821v238h-12Q2297-97 1722-97q-716 0-1094 528T250 1772q0 744 381 1208 382 464 1013 464 634 0 1000-569h12v472h532V191z" id="HelveticaWorld-Regular-67" transform="scale(.01563)"/><path d="M3150 0h-566v2188q0 403-156 576-156 174-509 174-435 0-685-282-250-281-250-831V0H422v4594h562V2900h13q384 544 981 544 550 0 861-288 311-287 311-878V0z" id="HelveticaWorld-Regular-68" transform="scale(.01563)"/><path d="M603 4716h466V-122H603v4838z" id="HelveticaWorld-Regular-7c" transform="scale(.01563)"/><path d="M3559 4594h600V0h-690L1125 3713h-12V0H519v4594h728L3547 884h12v3710z" id="HelveticaWorld-Regular-4e" transform="scale(.01563)"/><path d="M813 1678q0-559 253-920t718-361q482 0 732 378t250 903q0 531-250 901-250 371-732 371-446 0-709-349-262-348-262-923zm-575 0q0 747 415 1256 416 510 1131 510 732 0 1144-516 413-515 413-1250 0-737-410-1256Q2522-97 1784-97q-709 0-1128 503-418 503-418 1272zm2351 2266h-575v650h575v-650zm-1038 0H976v650h575v-650z" id="HelveticaWorld-Regular-f6" transform="scale(.01563)"/><path d="M519 4594h2015q594 0 947-322t353-834q0-310-155-565-154-254-460-395 428-162 629-431 202-269 202-691 0-593-428-975Q3194 0 2491 0H519v4594zm612-4063h1325q488 0 731 226 244 227 244 612 0 390-272 582-271 193-803 193H1131V531zm0 2119h1128q494 0 724 179 230 180 230 562 0 328-218 500-217 172-729 172H1131V2650z" id="HelveticaWorld-Regular-42" transform="scale(.01563)"/><path d="M2388 0h-622v1850L31 4594h725l1319-2206 1316 2206h731L2388 1850V0z" id="HelveticaWorld-Regular-59" transform="scale(.01563)"/></defs><use xlink:href="#HelveticaWorld-Regular-47"/><use x="77.1" xlink:href="#HelveticaWorld-Regular-69"/><use x="99.121" xlink:href="#HelveticaWorld-Regular-74"/><use x="126.807" xlink:href="#HelveticaWorld-Regular-48"/><use x="199.805" xlink:href="#HelveticaWorld-Regular-75"/><use x="254.59" xlink:href="#HelveticaWorld-Regular-62"/><use x="311.084" xlink:href="#HelveticaWorld-Regular-20"/><use x="335.498" xlink:href="#HelveticaWorld-Regular-41"/><use x="402.197" xlink:href="#HelveticaWorld-Regular-50"/><use x="466.846" xlink:href="#HelveticaWorld-Regular-49"/><use x="492.627" xlink:href="#HelveticaWorld-Regular-20"/><use x="517.041" xlink:href="#HelveticaWorld-Regular-76"/><use x="566.65" xlink:href="#HelveticaWorld-Regular-69"/><use x="588.672" xlink:href="#HelveticaWorld-Regular-61"/><use x="643.604" xlink:href="#HelveticaWorld-Regular-20"/><use x="668.018" xlink:href="#HelveticaWorld-Regular-73"/><use x="718.018" xlink:href="#HelveticaWorld-Regular-74"/><use x="745.703" xlink:href="#HelveticaWorld-Regular-61"/><use x="800.635" xlink:href="#HelveticaWorld-Regular-72"/><use x="832.203" xlink:href="#HelveticaWorld-Regular-67"/><use x="888.111" xlink:href="#HelveticaWorld-Regular-72"/><use x="919.68" xlink:href="#HelveticaWorld-Regular-61"/><use x="974.611" xlink:href="#HelveticaWorld-Regular-70"/><use x="1031.105" xlink:href="#HelveticaWorld-Regular-68"/><use x="1086.281" xlink:href="#HelveticaWorld-Regular-20"/><use x="1110.695" xlink:href="#HelveticaWorld-Regular-7c"/><use x="1136.672" xlink:href="#HelveticaWorld-Regular-20"/><use x="1161.086" xlink:href="#HelveticaWorld-Regular-4e"/><use x="1234.182" xlink:href="#HelveticaWorld-Regular-69"/><use x="1256.203" xlink:href="#HelveticaWorld-Regular-63"/><use x="1307.473" xlink:href="#HelveticaWorld-Regular-6f"/><use x="1363.381" xlink:href="#HelveticaWorld-Regular-20"/><use x="1387.795" xlink:href="#HelveticaWorld-Regular-53"/><use x="1454.006" xlink:href="#HelveticaWorld-Regular-63"/><use x="1505.275" xlink:href="#HelveticaWorld-Regular-68"/><use x="1560.451" xlink:href="#HelveticaWorld-Regular-6c"/><use x="1582.473" xlink:href="#HelveticaWorld-Regular-f6"/><use x="1638.381" xlink:href="#HelveticaWorld-Regular-6d"/><use x="1721.389" xlink:href="#HelveticaWorld-Regular-65"/><use x="1776.809" xlink:href="#HelveticaWorld-Regular-72"/><use x="1809.377" xlink:href="#HelveticaWorld-Regular-20"/><use x="1833.791" xlink:href="#HelveticaWorld-Regular-7c"/><use x="1859.768" xlink:href="#HelveticaWorld-Regular-20"/><use x="1884.182" xlink:href="#HelveticaWorld-Regular-43"/><use x="1956.496" xlink:href="#HelveticaWorld-Regular-43"/><use x="2028.811" xlink:href="#HelveticaWorld-Regular-20"/><use x="2053.225" xlink:href="#HelveticaWorld-Regular-42"/><use x="2116.037" xlink:href="#HelveticaWorld-Regular-59"/></g><g style="fill:#969696" transform="matrix(.14 0 0 -.14 166.777 17.25)" id="text_27"><use xlink:href="#HelveticaWorld-Regular-4e"/><use x="73.096" xlink:href="#HelveticaWorld-Regular-75"/><use x="127.881" xlink:href="#HelveticaWorld-Regular-6d"/><use x="210.889" xlink:href="#HelveticaWorld-Regular-62"/><use x="267.383" xlink:href="#HelveticaWorld-Regular-65"/><use x="322.803" xlink:href="#HelveticaWorld-Regular-72"/><use x="355.371" xlink:href="#HelveticaWorld-Regular-20"/><use x="379.785" xlink:href="#HelveticaWorld-Regular-6f"/><use x="435.693" xlink:href="#HelveticaWorld-Regular-66"/><use x="463.379" xlink:href="#HelveticaWorld-Regular-20"/><use x="487.793" xlink:href="#HelveticaWorld-Regular-47"/><use x="564.893" xlink:href="#HelveticaWorld-Regular-69"/><use x="586.914" xlink:href="#HelveticaWorld-Regular-74"/><use x="614.6" xlink:href="#HelveticaWorld-Regular-48"/><use x="687.598" xlink:href="#HelveticaWorld-Regular-75"/><use x="742.383" xlink:href="#HelveticaWorld-Regular-62"/><use x="798.877" xlink:href="#HelveticaWorld-Regular-20"/><use x="823.291" xlink:href="#HelveticaWorld-Regular-73"/><use x="873.291" xlink:href="#HelveticaWorld-Regular-74"/><use x="900.977" xlink:href="#HelveticaWorld-Regular-61"/><use x="955.908" xlink:href="#HelveticaWorld-Regular-72"/><use x="988.477" xlink:href="#HelveticaWorld-Regular-73"/></g><path clip-path="url(#pec78fae66c)" d="m186.87 313.361 2.335-.022 1.03-.025.009-.048.032-.094.079-.19.914-.38 2.97-.38.286-.381 2.499-1.52 1.862-.19 2.164-.19 2.612-.19 2.754-.19 2.291-.19 2.168-.19 2.195-.19 2.77-.192 2.094-.19 2.527-.19 2.021-.189 2.547-.19 2.806-.19 2.653-.19 2.542-.19 1.81-.094 1.34-.097 2.614-.19 1.489-.095 1.75-.095 2.335-.19 2.5-.19 2.715-.19 2.134-.189 2.257-.19 2.864-.192 2.836-.38 1.925-.19 1.986-.189 2.474-.19 2.089-.19 2.04-.19 2.477-.191 2.399-.19 2.224-.19 2.29-.19 2.446-.19 1.472-.19 1.893-.19 2.975-.381 2.137-.19 1.846-.19 1.882-.19 1.415-.19 1.365-.19 2.33-.189 1.324-.19 1.986-.192 2.045-.19 2.622-.19 1.756-.19 2.002-.189 2.027-.19 2.215-.19 1.954-.19 1.76-.191 2.796-.38 1.804-.19 1.857-.19 2.626-.38 1.898-.189 1.734-.192 2.253-.38 2.82-.38 2.01-.189 1.635-.19 1.703-.19 2.008-.192 1.946-.19 1.68-.19 2.61-.19 2.235-.189 2.984-.38.692-.381.34-3.042 2.053-.759 1.993-.38 2.193-.381 1.669-.19 1.629-.19 2.71-.382 2.956-.38 2.196-.381 2.736-.217 1.598-.217 2.95-.436 2.716-.463 2.225-.466 2.508-.323 1.734-.323 1.934-.221 1.306-.222 2.732-.445 1.958-.221 1.486-.224 1.81-.242 1.446-.242 1.868-.214 1.304-.217 2.657-.292 1.893-.291 2.028-.246 1.478-.249 1.481-.477 1.86-.479" style="fill:none;stroke:#e377c2;stroke-linecap:square;stroke-width:1.5" id="line2d_24"/><path clip-path="url(#pec78fae66c)" d="m94.85 313.361 36.822-.183 2.135-.086.072-4.044.801-4.316 1.363-1.077 1.575-.538 7.453-1.078 2.157-.54 2.918-.54 7.209-.809 5.38-.538.822-.27.625-1.08 1.448-2.159 2.485-.537 3.534-.54 4.782-1.347 2.313-.269 2.73-.54 1.473-.54 4.589-.809 8.38-.942 23.604-1.889 13.363-.809 10.333-.676.513-.268.754-.54 4.958-.27 10.825-.537 10.677-.54 13.328-.538 41.058-1.08 23.71-.472 43.022-2.495 14.827-.944 11.066-.676h0" style="fill:none;stroke:#8c564b;stroke-linecap:square;stroke-width:1.5" id="line2d_25"/><path clip-path="url(#pec78fae66c)" d="m223.13 313.361 2.787-2.424 1.782-1.211 2.194-.152 2.487-.15 1.36-.075 2.513-.077 2.99-.152.064-.608.297-2.424 2.106-1.213 1.793-.303 2.525-.303 1.482-.151 1.806-.152 2.55-.151 1.686-.154 2.382-.151 1.268-.151 2.167-.303 1.855-.152 1.185-.151 1.174-.151 2.474-.152 1.21-.302 1.552-.152 2.23-.151 2.925-.303 2.356-.305 3.014-2.427.752-1.21 2.06-.606 2.33-.303 1.6-.152 1.53-.153 1.934-.152 1.517-.151 1.864-.303 2.462-.303 2.495-.305 2.677-.302 2.151-.303.308-.608 1.113-.303 2.462-.302 2.876-.303 1.593-.152 1.747-.151 1.924-.303 1.783-.151 1.83-.152 2.405-.15.949-.152 2.195-.305 2.553-.303 2.078-.303 2.42-.303 2.955-.302 2.908-.303 1.7-.152 1.439-.151 1.491-.151 1.576-.152 2.842-.305 2.485-.303 2.202-.302 2.167-.303 2.528-.303 2.673-.303 2.563-.302 2.402-.303.848-.305 1.773-.303 2.173-.303 1.324-.303 1.782-.305 2.679-.605 1.38-.303 2.033-.305 1.003-1.211 2.172-1.213 2.698-.606 1.444-.303 1.721-.305 1.634-.302 1.918-.303 1.868-.303 2.156-.305 1.817-.303 1.416-.303 2.632-.605 2.963-.606 2.743-.607 1.605-.303 1.928-.303 1.594-.303 1.99-.305 2.526-.605 1.594-.303 1.683-.305" style="fill:none;stroke:#9467bd;stroke-linecap:square;stroke-width:1.5" id="line2d_26"/><path clip-path="url(#pec78fae66c)" d="m201.07 313.361.962-2.806 1.846-.7 2.66-.703 2.233-.35 1.897-.353 2.142-.35 2.407-.352 1.782-.35 2.103-.35 1.85-.351 2.204-.353 2.136-1.403.484-.7 1.59-.35 2.518-.353 2.112-.35 2.608-.353 1.927-.35 1.886-.352 2.48-2.807.793-.7 1.362-.35 1.79-.353 1.769-.35 1.82-.352 1.808-.35 2.326-.353 1.95-.35 2.196-.35 1.8-.35 1.894-.353 2.353-.35 1.764-.353 2.152-.35 1.715-.353 2.41-.35 2.304-.35 1.718-.35 1.748-.353 1.888-.35 1.879-.353 2.588-.702 2.763-.7 1.505-.35 1.58-.353 1.756-.35 1.529-.35 1.564-.351 1.59-.353 2.646-.7 2.807-.703 1.985-.702 1.274-.35 1.781-.353 1.824-.35 1.527-.35 2.432-.703 2.554-.703 1.14-.35 2.05-.353 1.76-.35 1.553-.35 2.729-.703 2.686-.703 2.8-.702 2.798-.7 2.647-.703 2.237-.7 2.677-.704 2.349-.7 2.425-.703 2.918-.702 2.892-.703 1.694-.35 1.88-.35 1.63-.35 1.818-.353 1.737-.35 1.68-.353 2.383-.703 2.692-.7 1.771-.35 1.593-.353 1.607-.35 1.507-.352 2.367-.703 2.73-.398 1.5-.4 1.504-.4 1.55-.4 2.994-.497 1.955-.497 2.133-.49 2.117-.49 2.215-.321 1.297-.321 2.442-.642 1.926-.357 1.53-.357 2.065-.388 1.168-.391 1.853-.38 1.326-.382 2.777-.477 1.774-.476 2.074-.423 1.468-.422 1.832-.31 1.478-.312" style="fill:none;stroke:#d62728;stroke-linecap:square;stroke-width:1.5" id="line2d_27"/><path clip-path="url(#pec78fae66c)" d="m146.077 313.361.831-10.228 2-2.558 1.848-1.279 2.805-1.279 6.828-2.558 5.836-1.278 1.106-.64 4.98-1.279 3.53-1.279 2.265-.318 1.263-.321 1.084-.64 4.024-1.278 7.883-2.558 2.508-.64 1.717-.639 11.25-3.197 2.305-1.28 4.493-1.278 6.756-1.918 1.511-.64 2.315-.64 1.237-.639 7.818-1.918 5.33-1.277 2.147-.639 5.69-1.279 5.16-1.279 4.97-1.279 2.288-.639 2.745-.64 3.04-1.278 8.507-1.919 2.085-.64 2.738-.639 4.315-1.278 1.24-.64 2.127-.64 5.493-1.278 4.44-1.279 1.816-.64 2.64-.639 6.274-1.918 14.38-3.837 4.954-1.279 2.071-.64 2.521-.639 3.603-1.278 3.29-1.28 8.094-2.557 3.485-1.279 2.728-1.279 11.309-3.836 3.883-1.28 6.43-2.557 2.48-.646 4.802-1.941 2.74-.852 2.208-.852 2.537-.752 1.702-.755 2.04-.599 4.8-2.137h1.35l4.493-2.951 3.162-1.358 4.547-2.892 3.538-1.697 3.307-2.079h0" style="fill:none;stroke:#2ca02c;stroke-linecap:square;stroke-width:1.5" id="line2d_28"/><path clip-path="url(#pec78fae66c)" d="m68.832 313.361 44.58-.002 2.104-.002 31.16-.002.208-.003 3.732-.002 2.941-.002v-.075l.001-.088.001-.176.002-.353.008-.705.028-1.412.081-2.824 2.508-5.649 2.89-1.412 2.377-1.412 2.032-.705 1.67-.707 1.767-.705 2.022-.708 1.335-1.412 2.45-1.412 1.633-.705 1.748-.707 1.834-.705 1.813-.707 2.025-1.412 2.485-1.413 2.497-1.412 2.398-1.412 1.907-1.412 2.2-1.412 2.473-2.825 2.34-2.824 2.58-1.412 2.938-1.413 2.704-1.412 2.534-1.412 2.255-1.412 1.353-1.412 2.813-1.412 2.057-1.413 2.118-1.412 2.593-1.412 1.984-1.412 2.107-1.412 2.499-1.413 2.288-1.412 2.81-1.412 2.778-1.412 2.363-1.412 2.677-1.412 2.294-1.413 2.358-1.412 2.51-1.412 2.839-1.412 2.251-1.412 2.52-1.413 2.235-1.412 2.68-1.412 2.89-1.412 2.384-1.412 2.69-1.412 2.668-1.413 2.326-1.412 2.255-1.412 2-1.412 2.207-1.412 2.516-1.413 2.34-1.412 1.477-.705 1.726-.707 1.607-.705 1.5-.707H296.275l77.788-26.466 7.283-1.364 4.95-1.047 4.249-.833 5.957-1.232 3.454-.657 3.26-.531 3.16-.594 4.548-.861 3.538-.66 3.307-1.094" style="fill:none;stroke:#ff7f0e;stroke-linecap:square;stroke-width:1.5" id="line2d_29"/><path clip-path="url(#pec78fae66c)" d="m203.45 313.361 6.394-.002.27-.002.243-.005V313.01l.001-.353.003-.705.008-1.412.029-2.824.1-5.649 1.367-5.649 1.729-1.412 2.404-1.412 2.32-1.412 2.618-1.412 2.003-1.412 2.177-1.413 1.596-2.824 1.962-1.412 2.241-1.412 2.622-1.413 2.41-1.412 2.756-1.412 2.28-1.412 2.206-1.412 1.846-1.413 2.01-1.412 1.787-1.412 1.889-1.412 2.342-1.412 2.044-1.412 1.105-1.413 2.48-2.824 2.53-2.824 2.17-2.825 2.592-2.824 2.7-2.824 1.873-1.413 1.263-1.412 2.804-2.824 2.522-2.825 2.28-2.824 1.667-2.824 1.552-2.825 1.42-2.824 1.702-2.824 2.041-2.825 2.473-2.824H291.193l82.87-124.259 7.283-9.19 4.95-6.16 4.249-5.046 5.957-6.535 3.454-4.121 3.26-3.412 3.16-4.835 4.548-5.405 3.538-3.554 3.307-3.218" style="fill:none;stroke:#1f77b4;stroke-linecap:square;stroke-width:1.5" id="line2d_30"/></g></g><defs><clipPath id="pec78fae66c"><path d="M60.912 47.249h357.12v266.112H60.912z"/></clipPath></defs></svg>