<svg height="475.319" viewBox="0 0 581.311 356.489" width="775.082" xmlns="http://www.w3.org/2000/svg" xmlns:xlink="http://www.w3.org/1999/xlink"><defs><style>*{stroke-linecap:butt;stroke-linejoin:round}</style></defs><g id="figure_1"><path d="M0 356.49h581.311V0H0z" fill="none" id="patch_1"/><g id="axes_1"><path d="M53.127 313.361h357.12V47.25H53.127z" fill="none" id="patch_2"/><path clip-path="url(#pcf1473530d)" d="M117.76 313.361l.365-.658 5.215-.183 20.461-.22 17.986-.311 24.279-.128 2.757-.11 5.876-.128 5.337-.238 11.708-.366 8.293-.347 5.551-.129 8.99-.585 5.65-.293 26.625-1.372 5.01-.403 5.436-.183 4.58-.201 1.161-.403 1.795-.384 6.905-.384 4.94-.275 21.074-1.189 28.57-1.665.941-.092 13.977-.695 3.22-.183 3.017-.091 12.493-.696 5.008-.201 5.243-.348 3.95-.274 3.709-.22 5.655-.256 6.33-.311h0" fill="none" stroke="#7f7f7f" stroke-linecap="square" stroke-width="1.5" id="line2d_1"/><g id="matplotlib.axis_1"><g id="xtick_1"><g id="line2d_2"><defs><path d="M0 0v3.5" id="mb258417a36" stroke="#969696" stroke-width=".4"/></defs><use x="82.815" xlink:href="#mb258417a36" y="313.361" fill="#969696" stroke="#969696" stroke-width=".4"/></g><g transform="matrix(.14 0 0 -.14 67.244 330.41)" fill="#969696" id="text_1"><defs><path d="M4.39 45.125q0 12.39 6.391 18.781 6.406 6.407 17.938 6.407 9.656 0 15.812-5.86 6.157-5.86 6.157-15.14 0-7.22-3.547-12.188-3.532-4.953-10.422-8.703l-12.11-6.64Q13.922 15.921 12.5 8.296h38.188V0H2.593q.39 9.906 4.297 16.5 3.906 6.594 12.203 11.375l12.593 7.328q5.032 2.89 7.329 5.984 2.297 3.094 2.297 8.516 0 5.375-3.766 9.031-3.75 3.672-10.156 3.672-7.078 0-10.594-4.672-3.516-4.656-3.61-12.609z" id="HelveticaWorld-Regular-50"/><path d="M42.484 34.188q0 14.109-3.734 21.156-3.734 7.062-10.969 7.062-7.078 0-10.89-7.062-3.797-7.047-3.797-21.157 0-13.671 3.75-20.937Q20.609 6 27.78 6q7.235 0 10.969 7 3.734 7.016 3.734 21.188zm9.422 0q0-17.297-6.25-26.704-6.25-9.39-17.875-9.39-12.062 0-18.062 9.734-6 9.75-6 26.36 0 17.03 6.14 26.578 6.157 9.547 17.922 9.547 11.625 0 17.875-9.5t6.25-26.626z" id="HelveticaWorld-Regular-48"/><path d="M35.89 0h-9.374v49.906H10.109v6.985q8.594.28 12.782 2.75Q27.094 62.109 29 70.313h6.89z" id="HelveticaWorld-Regular-49"/></defs><use xlink:href="#HelveticaWorld-Regular-50"/><use x="55.615" xlink:href="#HelveticaWorld-Regular-48"/><use x="111.23" xlink:href="#HelveticaWorld-Regular-49"/><use x="166.846" xlink:href="#HelveticaWorld-Regular-48"/></g></g><g id="xtick_2"><use x="142.778" xlink:href="#mb258417a36" y="313.361" fill="#969696" stroke="#969696" stroke-width=".4" id="line2d_3"/><g transform="matrix(.14 0 0 -.14 127.208 330.41)" fill="#969696" id="text_2"><use xlink:href="#HelveticaWorld-Regular-50"/><use x="55.615" xlink:href="#HelveticaWorld-Regular-48"/><use x="111.23" xlink:href="#HelveticaWorld-Regular-49"/><use x="166.846" xlink:href="#HelveticaWorld-Regular-50"/></g></g><g id="xtick_3"><use x="202.825" xlink:href="#mb258417a36" y="313.361" fill="#969696" stroke="#969696" stroke-width=".4" id="line2d_4"/><g transform="matrix(.14 0 0 -.14 187.254 330.41)" fill="#969696" id="text_3"><defs><path d="M10.594 24.703h22.61v31.89h-.188zM42 17.093V0h-8.797v17.094H2.484v8.593L34.72 70.314H42v-45.61h10.297v-7.61z" id="HelveticaWorld-Regular-52"/></defs><use xlink:href="#HelveticaWorld-Regular-50"/><use x="55.615" xlink:href="#HelveticaWorld-Regular-48"/><use x="111.23" xlink:href="#HelveticaWorld-Regular-49"/><use x="166.846" xlink:href="#HelveticaWorld-Regular-52"/></g></g><g id="xtick_4"><use x="262.788" xlink:href="#mb258417a36" y="313.361" fill="#969696" stroke="#969696" stroke-width=".4" id="line2d_5"/><g transform="matrix(.14 0 0 -.14 247.218 330.41)" fill="#969696" id="text_4"><defs><path d="M14.11 21.578q0-6.875 4.093-11.234Q22.313 6 28.906 6q6.297 0 10.032 4.438 3.734 4.453 3.734 11.687 0 6.297-3.688 10.547-3.687 4.25-10.468 4.25-6.594 0-10.5-4.156-3.907-4.157-3.907-11.188zM41.702 51.61q-.984 5.375-3.984 8.078-3 2.72-8.125 2.72-8.11 0-12.36-7.923-4.25-7.906-4.343-18.109l.203-.188q5.61 8.641 16.687 8.641 8.844 0 15.438-5.86 6.593-5.859 6.593-16.452 0-10.5-6.25-17.47-6.25-6.952-16.843-6.952-12.219 0-18.563 8.687-6.344 8.703-6.344 25.938 0 16.593 6.485 27.093 6.5 10.5 19.484 10.5 8.407 0 14.219-5.015 5.813-5 6.297-13.688z" id="HelveticaWorld-Regular-54"/></defs><use xlink:href="#HelveticaWorld-Regular-50"/><use x="55.615" xlink:href="#HelveticaWorld-Regular-48"/><use x="111.23" xlink:href="#HelveticaWorld-Regular-49"/><use x="166.846" xlink:href="#HelveticaWorld-Regular-54"/></g></g><g id="xtick_5"><use x="322.834" xlink:href="#mb258417a36" y="313.361" fill="#969696" stroke="#969696" stroke-width=".4" id="line2d_6"/><g transform="matrix(.14 0 0 -.14 307.264 330.41)" fill="#969696" id="text_5"><defs><path d="M27.594 40.578q5.422 0 8.953 3.094 3.547 3.11 3.547 8.234 0 4.594-3.407 7.547-3.39 2.953-9.687 2.953-5.61 0-8.672-3.11-3.047-3.093-3.047-7.874 0-5.125 3.813-7.984 3.812-2.86 8.5-2.86zm.093-7.562q-6.78 0-10.64-3.766-3.86-3.766-3.86-9.234 0-6.297 3.907-10.157Q21 6 28.219 6q6.406 0 10.234 3.86 3.828 3.859 3.828 10.265 0 5.469-3.828 9.172-3.828 3.719-10.766 3.719zM49.22 52.203q0-10.594-9.032-14.797 6.204-2.781 8.86-7.36 2.656-4.562 2.656-9.733 0-10.016-6.453-16.125-6.438-6.094-17.375-6.094-9.563 0-16.813 5.25-7.25 5.25-7.25 17.062 0 11.922 11.907 16.907-9.516 3.796-9.516 13.671 0 8.297 5.64 13.813 5.641 5.516 15.641 5.516 10.016 0 15.875-5.204 5.86-5.203 5.86-12.906z" id="HelveticaWorld-Regular-56"/></defs><use xlink:href="#HelveticaWorld-Regular-50"/><use x="55.615" xlink:href="#HelveticaWorld-Regular-48"/><use x="111.23" xlink:href="#HelveticaWorld-Regular-49"/><use x="166.846" xlink:href="#HelveticaWorld-Regular-56"/></g></g><g id="xtick_6"><use x="382.798" xlink:href="#mb258417a36" y="313.361" fill="#969696" stroke="#969696" stroke-width=".4" id="line2d_7"/><g transform="matrix(.14 0 0 -.14 367.228 330.41)" fill="#969696" id="text_6"><use xlink:href="#HelveticaWorld-Regular-50"/><use x="55.615" xlink:href="#HelveticaWorld-Regular-48"/><use x="111.23" xlink:href="#HelveticaWorld-Regular-50"/><use x="166.846" xlink:href="#HelveticaWorld-Regular-48"/></g></g></g><g id="matplotlib.axis_2"><g id="ytick_1"><path clip-path="url(#pcf1473530d)" d="M53.127 276.783h357.12" fill="none" stroke="#969696" stroke-linecap="square" stroke-width=".3" id="line2d_8"/><g id="line2d_9"><defs><path d="M0 0h-3.5" id="m0e0cbb9cee" stroke="#969696" stroke-width=".3"/></defs><use x="53.127" xlink:href="#m0e0cbb9cee" y="276.783" fill="#969696" stroke="#969696" stroke-width=".3"/></g><g transform="matrix(.14 0 0 -.14 14.985 281.808)" fill="#969696" id="text_7"><use xlink:href="#HelveticaWorld-Regular-50"/><use x="55.615" xlink:href="#HelveticaWorld-Regular-48"/><use x="111.23" xlink:href="#HelveticaWorld-Regular-48"/><use x="166.846" xlink:href="#HelveticaWorld-Regular-48"/></g></g><g id="ytick_2"><path clip-path="url(#pcf1473530d)" d="M53.127 240.187h357.12" fill="none" stroke="#969696" stroke-linecap="square" stroke-width=".3" id="line2d_10"/><use x="53.127" xlink:href="#m0e0cbb9cee" y="240.187" fill="#969696" stroke="#969696" stroke-width=".3" id="line2d_11"/><g transform="matrix(.14 0 0 -.14 14.985 245.211)" fill="#969696" id="text_8"><use xlink:href="#HelveticaWorld-Regular-52"/><use x="55.615" xlink:href="#HelveticaWorld-Regular-48"/><use x="111.23" xlink:href="#HelveticaWorld-Regular-48"/><use x="166.846" xlink:href="#HelveticaWorld-Regular-48"/></g></g><g id="ytick_3"><path clip-path="url(#pcf1473530d)" d="M53.127 203.59h357.12" fill="none" stroke="#969696" stroke-linecap="square" stroke-width=".3" id="line2d_12"/><use x="53.127" xlink:href="#m0e0cbb9cee" y="203.59" fill="#969696" stroke="#969696" stroke-width=".3" id="line2d_13"/><g transform="matrix(.14 0 0 -.14 14.985 208.615)" fill="#969696" id="text_9"><use xlink:href="#HelveticaWorld-Regular-54"/><use x="55.615" xlink:href="#HelveticaWorld-Regular-48"/><use x="111.23" xlink:href="#HelveticaWorld-Regular-48"/><use x="166.846" xlink:href="#HelveticaWorld-Regular-48"/></g></g><g id="ytick_4"><path clip-path="url(#pcf1473530d)" d="M53.127 166.993h357.12" fill="none" stroke="#969696" stroke-linecap="square" stroke-width=".3" id="line2d_14"/><use x="53.127" xlink:href="#m0e0cbb9cee" y="166.993" fill="#969696" stroke="#969696" stroke-width=".3" id="line2d_15"/><g transform="matrix(.14 0 0 -.14 14.985 172.018)" fill="#969696" id="text_10"><use xlink:href="#HelveticaWorld-Regular-56"/><use x="55.615" xlink:href="#HelveticaWorld-Regular-48"/><use x="111.23" xlink:href="#HelveticaWorld-Regular-48"/><use x="166.846" xlink:href="#HelveticaWorld-Regular-48"/></g></g><g id="ytick_5"><path clip-path="url(#pcf1473530d)" d="M53.127 130.397h357.12" fill="none" stroke="#969696" stroke-linecap="square" stroke-width=".3" id="line2d_16"/><use x="53.127" xlink:href="#m0e0cbb9cee" y="130.397" fill="#969696" stroke="#969696" stroke-width=".3" id="line2d_17"/><g transform="matrix(.14 0 0 -.14 7.2 135.421)" fill="#969696" id="text_11"><use xlink:href="#HelveticaWorld-Regular-49"/><use x="55.615" xlink:href="#HelveticaWorld-Regular-48"/><use x="111.23" xlink:href="#HelveticaWorld-Regular-48"/><use x="166.846" xlink:href="#HelveticaWorld-Regular-48"/><use x="222.461" xlink:href="#HelveticaWorld-Regular-48"/></g></g><g id="ytick_6"><path clip-path="url(#pcf1473530d)" d="M53.127 93.8h357.12" fill="none" stroke="#969696" stroke-linecap="square" stroke-width=".3" id="line2d_18"/><use x="53.127" xlink:href="#m0e0cbb9cee" y="93.8" fill="#969696" stroke="#969696" stroke-width=".3" id="line2d_19"/><g transform="matrix(.14 0 0 -.14 7.2 98.825)" fill="#969696" id="text_12"><use xlink:href="#HelveticaWorld-Regular-49"/><use x="55.615" xlink:href="#HelveticaWorld-Regular-50"/><use x="111.23" xlink:href="#HelveticaWorld-Regular-48"/><use x="166.846" xlink:href="#HelveticaWorld-Regular-48"/><use x="222.461" xlink:href="#HelveticaWorld-Regular-48"/></g></g><g id="ytick_7"><path clip-path="url(#pcf1473530d)" d="M53.127 57.204h357.12" fill="none" stroke="#969696" stroke-linecap="square" stroke-width=".3" id="line2d_20"/><use x="53.127" xlink:href="#m0e0cbb9cee" y="57.204" fill="#969696" stroke="#969696" stroke-width=".3" id="line2d_21"/><g transform="matrix(.14 0 0 -.14 7.2 62.228)" fill="#969696" id="text_13"><use xlink:href="#HelveticaWorld-Regular-49"/><use x="55.615" xlink:href="#HelveticaWorld-Regular-52"/><use x="111.23" xlink:href="#HelveticaWorld-Regular-48"/><use x="166.846" xlink:href="#HelveticaWorld-Regular-48"/><use x="222.461" xlink:href="#HelveticaWorld-Regular-48"/></g></g></g><path clip-path="url(#pcf1473530d)" d="M193.716 313.361l1.301-.128 3.77-.146 4.842-.238 9.101-.11 11.027-.31 15.373-.458 1.676-.202 17.292-.53 2.69-.147 4.761-.31 16.03-.696 2.035-.293 3.372-.402 1.052-.202 3.615-.292 3.567-.311 15.759-1.61 15.053-1.117 5.322-.165 15.2-1.299 6.07-.604 20.38-1.683 3.895-.311 8.404-.604 12.542-1.116 12.059-.622h0" fill="none" stroke="#e377c2" stroke-linecap="square" stroke-width="1.5" id="line2d_22"/><path clip-path="url(#pcf1473530d)" d="M167.897 313.361l1.572-.457 13.42-.22.597-.073 3.62-.201 3.383-.311 1.653-.11 4.176-.274 6.078-.403 4.452-.275 5.888-.42 3.699-.403 6.673-.42 30.63-3.88 1.144-.275 17.422-2.067 3.879-.275 14.01-1.793 2.892-.549 6.892-1.39 4.083-.55 14.04-2.763 1.541-.567 1.965-.549 14.971-3.293 2.242-.275 1.235-.293 1.811-.274 1.78-.55 2.994-.548 9.481-1.94 2.827-.549 1.44-.567 1.875-.549 2.639-.549 3.25-.823 9.807-2.489 2.716-1.098 6.778-1.665 1.937-.549 2.643-1.116 2.214-.311 5.42-1.28 2.302-.97 8.202-2.58h0" fill="none" stroke="#8c564b" stroke-linecap="square" stroke-width="1.5" id="line2d_23"/><g transform="matrix(.14 0 0 -.14 413.818 50.825)" fill="#1f77b4" id="text_14"><defs><path d="M31.11 0H20.796L2.094 71.781h10.5l13.39-58.406h.235L42.28 71.781h10.594L69 13.375h.188l13.437 58.406h10.781L74.422 0h-10.11L47.907 59.516h-.203z" id="HelveticaWorld-Regular-87"/><path d="M12.703 26.219q0-8.735 3.953-14.375 3.953-5.64 11.219-5.64 7.531 0 11.438 5.905 3.906 5.907 3.906 14.11 0 8.297-3.907 14.078-3.906 5.797-11.437 5.797-6.969 0-11.078-5.453-4.094-5.438-4.094-14.422zm-8.984 0q0 11.672 6.484 19.625 6.5 7.968 17.672 7.968 11.438 0 17.875-8.062 6.453-8.047 6.453-19.531 0-11.516-6.406-19.625-6.39-8.11-17.922-8.11-11.078 0-17.625 7.86-6.531 7.86-6.531 19.875z" id="HelveticaWorld-Regular-111"/><path d="M15.375 0H6.594v52.297h8.297v-8.688h.203q5.703 10.203 14.687 10.203 1.422 0 2.297-.296V44.39h-3.266q-5.906 0-9.671-4.016-3.766-4-3.766-9.953z" id="HelveticaWorld-Regular-114"/><path d="M13.094 26.313q0-9.704 3.844-14.954 3.859-5.25 10.265-5.25 6.094 0 10.188 4.485 4.109 4.5 4.109 13.094 0 11.03-3.5 16.625-3.484 5.593-10.61 5.593-6.78 0-10.546-4.453-3.75-4.437-3.75-15.14zM50.39 0h-8.297v7.172h-.203q-4.97-8.688-15.078-8.688-10.891 0-16.86 8.297Q4 15.094 4 27.688q0 11.625 5.906 18.875 5.922 7.25 15.875 7.25 9.813 0 15.625-8.891l.203.594V71.78h8.782z" id="HelveticaWorld-Regular-100"/><path d="M17.828 38.625H37.11q7.282 0 10.938 3.188 3.656 3.203 3.656 9.703 0 5.812-3.516 8.89-3.515 3.078-10.687 3.078H17.828zm0-38.625H8.11v71.781h32.266q9.625 0 15.484-5.594 5.86-5.593 5.86-14.578 0-9.328-5.672-15.312-5.656-5.969-15.672-5.969H17.828z" id="HelveticaWorld-Regular-80"/><path d="M42.484 30.328q-.687 8.485-4.5 12.031-3.797 3.547-10.109 3.547-6.39 0-10.328-4.5-3.922-4.484-4.172-11.078zm8.391-13.922q-1.453-8.11-7.953-13.422-5.719-4.5-15.047-4.593-10.984.093-17.438 7.203Q4 12.704 4 24.704q0 13.78 6.64 21.437 6.641 7.672 18.47 7.672 10.593 0 16.546-7.922 5.953-7.907 5.953-22.594H13.375q0-8.203 3.813-12.703Q21 6.109 28.608 6.109q5.375 0 9.235 3.235 3.86 3.25 4.25 7.062z" id="HelveticaWorld-Regular-101"/><path d="M36.078 37.406q-.187 4.688-3.344 6.735-3.14 2.047-9.047 2.047-4.296 0-7.359-1.907-3.047-1.89-3.047-5.468 0-2.829 1.797-4.172 1.813-1.344 7.828-2.86l8.688-2.187q7.906-2 11.297-5.11 3.406-3.093 3.406-8.656 0-7.719-5.64-12.531-5.641-4.813-15.063-4.813-11 0-16.64 4.563-5.626 4.578-5.735 13.75h8.5q.203-5.422 3.594-8.063 3.39-2.625 10.171-2.625 5.516 0 8.766 2.188 3.25 2.203 3.25 6.11 0 2.78-2.11 4.437-2.093 1.672-8.296 3.078l-10.203 2.5q-6.203 1.562-9.157 4.656-2.953 3.094-2.953 8.031 0 7.72 5.516 12.203 5.531 4.5 14.406 4.5 9.485 0 14.531-4.624 5.047-4.61 5.344-11.782z" id="HelveticaWorld-Regular-115"/><path d="M4.984-1.906h-6.687l24.61 75.594H29.5z" id="HelveticaWorld-Regular-47"/></defs><use xlink:href="#HelveticaWorld-Regular-87"/><use x="90.438" xlink:href="#HelveticaWorld-Regular-111"/><use x="146.346" xlink:href="#HelveticaWorld-Regular-114"/><use x="177.914" xlink:href="#HelveticaWorld-Regular-100"/><use x="234.896" xlink:href="#HelveticaWorld-Regular-80"/><use x="299.545" xlink:href="#HelveticaWorld-Regular-114"/><use x="331.113" xlink:href="#HelveticaWorld-Regular-101"/><use x="386.533" xlink:href="#HelveticaWorld-Regular-115"/><use x="436.533" xlink:href="#HelveticaWorld-Regular-115"/><use x="486.533" xlink:href="#HelveticaWorld-Regular-47"/><use x="514.316" xlink:href="#HelveticaWorld-Regular-87"/><use x="604.754" xlink:href="#HelveticaWorld-Regular-111"/><use x="660.662" xlink:href="#HelveticaWorld-Regular-114"/><use x="692.23" xlink:href="#HelveticaWorld-Regular-100"/><use x="749.213" xlink:href="#HelveticaWorld-Regular-80"/><use x="813.861" xlink:href="#HelveticaWorld-Regular-114"/><use x="845.43" xlink:href="#HelveticaWorld-Regular-101"/><use x="900.85" xlink:href="#HelveticaWorld-Regular-115"/><use x="950.85" xlink:href="#HelveticaWorld-Regular-115"/></g><g transform="matrix(.14 0 0 -.14 413.818 150.263)" fill="#ff7f0e" id="text_15"><defs><path d="M6.594 52.297h8.297v-7.375h.203q5.906 8.89 15.812 8.89 9.813 0 13.922-8.5 3.75 4.594 7.266 6.547 3.515 1.953 8.703 1.953 6.781 0 11.484-4.453Q77 44.922 77 36.187V0h-8.781v33.797q0 6.094-2.297 9.094-2.297 3.015-7.422 3.015-5.172 0-8.75-4.203-3.563-4.203-3.563-9.812V0h-8.78v36.188q0 4.53-2.11 7.124-2.094 2.594-6.094 2.594-6.297 0-10.062-4.687-3.766-4.688-3.766-12.703V0H6.594z" id="HelveticaWorld-Regular-109"/><path d="M38.375 26.703q-.969-1.015-3.828-1.656-2.86-.625-10.672-1.656-5.766-.688-8.469-2.844-2.703-2.14-2.703-5.656 0-4.297 2.281-6.688 2.297-2.39 7.329-2.39 6.296 0 11.171 3.578 4.891 3.593 4.891 8.718zM6.203 36.375q.297 8.844 5.734 13.14 5.454 4.297 15.844 4.297 8.297 0 13.907-3.765 5.624-3.75 5.624-10.844V9.078Q47.313 6 50.094 6q1.125 0 2.89.39V0Q50.594-.984 48-.984q-4.5 0-6.703 1.921-2.188 1.938-2.281 6.047-7.516-8.5-18.891-8.5-7.422 0-11.922 4.204Q3.72 6.89 3.72 13.624q0 6.89 3.906 11.125Q11.531 29 19 29.89l15.516 1.891q4.203.64 4.203 6.203 0 4.11-3.047 6.297-3.047 2.203-9.25 2.203-5.516 0-8.485-2.437-2.953-2.438-3.53-7.672z" id="HelveticaWorld-Regular-97"/><path d="M12.984 26.313q0-9.61 3.813-14.907Q20.609 6.11 27.094 6.11q6.312 0 10.312 4.579 4 4.593 4 13 0 11.03-3.5 16.625-3.484 5.593-10.61 5.593-7.171 0-10.75-4.765-3.562-4.766-3.562-14.828zM49.812 2.983q0-12.609-6.062-18.797-6.047-6.203-18.266-6.203-8.78 0-13.984 4.047Q6.297-13.922 5.516-6.39h8.796q.672-3.812 3.532-6.062 2.86-2.25 8.281-2.25 7.375 0 11.125 3.969 3.766 3.953 3.766 12.828v3.719h-.188q-4.937-7.329-13.922-7.329-11.187 0-17.093 8.25-5.907 8.25-5.907 20.953 0 11.625 5.953 18.875 5.97 7.25 15.829 7.25 9.906 0 15.625-8.89h.187v7.375h8.313z" id="HelveticaWorld-Regular-103"/><path d="M49.219 0h-8.844v32.172q0 7.422-2.594 10.578-2.578 3.156-8.578 3.156-5.906 0-9.875-4.5-3.953-4.484-3.953-12.89V0H6.594v52.297h8.297v-7.375h.203q6.203 8.89 15.812 8.89 8.89 0 13.594-4.718 4.719-4.703 4.719-13.5z" id="HelveticaWorld-Regular-110"/><path d="M17.188 45.016V10.984q0-2 1.093-3.046 1.11-1.047 3.938-1.047h3.375V0Q20.797-.688 19-.688q-5.516 0-8.063 2.641-2.53 2.64-2.53 8.547v34.516H1.311v7.28h7.094v14.595h8.781V52.297h8.407v-7.281z" id="HelveticaWorld-Regular-116"/></defs><use xlink:href="#HelveticaWorld-Regular-109"/><use x="83.008" xlink:href="#HelveticaWorld-Regular-97"/><use x="137.939" xlink:href="#HelveticaWorld-Regular-103"/><use x="193.848" xlink:href="#HelveticaWorld-Regular-101"/><use x="249.268" xlink:href="#HelveticaWorld-Regular-110"/><use x="304.443" xlink:href="#HelveticaWorld-Regular-116"/><use x="332.129" xlink:href="#HelveticaWorld-Regular-111"/><use x="388.037" xlink:href="#HelveticaWorld-Regular-47"/><use x="415.82" xlink:href="#HelveticaWorld-Regular-109"/><use x="498.828" xlink:href="#HelveticaWorld-Regular-97"/><use x="553.76" xlink:href="#HelveticaWorld-Regular-103"/><use x="609.668" xlink:href="#HelveticaWorld-Regular-101"/><use x="665.088" xlink:href="#HelveticaWorld-Regular-110"/><use x="720.264" xlink:href="#HelveticaWorld-Regular-116"/><use x="747.949" xlink:href="#HelveticaWorld-Regular-111"/><use x="803.857" xlink:href="#HelveticaWorld-Regular-50"/></g><g transform="matrix(.14 0 0 -.14 413.818 220.565)" fill="#2ca02c" id="text_16"><defs><path d="M50.39 50.781q-.296 6.844-5.109 10.719-4.797 3.875-12.656 3.875-7.922 0-12.172-3.25-4.234-3.234-4.234-9.344 0-3.265 1.843-5.61 1.86-2.343 6.641-3.468l20.516-4.687q8.297-1.813 12.297-6.875 4.015-5.047 4.015-12.313 0-10.64-7.812-16.187-7.813-5.547-20.313-5.547-9.531 0-15.031 2.437-5.484 2.453-9.734 7.766-4.25 5.328-4.25 14.89h9.093q0-8 5.313-12.406 5.328-4.39 14.5-4.39 8.89 0 13.844 3.156 4.953 3.156 4.953 8.953 0 5.281-2.953 7.89Q46.188 29 37.594 31l-15.469 3.625q-7.719 1.75-11.531 6.125Q6.78 45.125 6.78 51.516q0 9.672 6.516 15.922 6.531 6.25 18.203 6.25 13.172 0 20.328-5.5 7.156-5.485 7.688-17.407z" id="HelveticaWorld-Regular-83"/><path d="M49.219 0h-8.844v34.188q0 6.296-2.438 9-2.437 2.718-7.953 2.718-6.797 0-10.703-4.406-3.906-4.39-3.906-12.984V0H6.594v71.781h8.781V45.312h.203q6 8.5 15.328 8.5 8.594 0 13.453-4.5 4.86-4.484 4.86-13.718z" id="HelveticaWorld-Regular-104"/><path d="M14.984 23.688q0-8.407 4.094-13 4.11-4.579 10.219-4.579 6.687 0 10.39 5.438 3.72 5.453 3.72 14.765 0 10.22-3.563 14.907-3.563 4.687-10.735 4.687-6.984 0-10.562-5.5-3.563-5.5-3.563-16.718zm-8.39 28.609h8.297v-7.375h.203q5.61 8.89 15.625 8.89 10.11 0 15.937-7.359 5.828-7.344 5.828-18.766 0-12.796-5.953-21Q40.578-1.515 29.5-1.515q-9.094 0-13.922 7.032h-.203v-26.22H6.594z" id="HelveticaWorld-Regular-112"/></defs><use xlink:href="#HelveticaWorld-Regular-80"/><use x="64.648" xlink:href="#HelveticaWorld-Regular-114"/><use x="96.217" xlink:href="#HelveticaWorld-Regular-101"/><use x="151.637" xlink:href="#HelveticaWorld-Regular-115"/><use x="201.637" xlink:href="#HelveticaWorld-Regular-116"/><use x="229.322" xlink:href="#HelveticaWorld-Regular-97"/><use x="284.254" xlink:href="#HelveticaWorld-Regular-83"/><use x="350.465" xlink:href="#HelveticaWorld-Regular-104"/><use x="405.641" xlink:href="#HelveticaWorld-Regular-111"/><use x="461.549" xlink:href="#HelveticaWorld-Regular-112"/><use x="518.043" xlink:href="#HelveticaWorld-Regular-47"/><use x="545.826" xlink:href="#HelveticaWorld-Regular-80"/><use x="610.475" xlink:href="#HelveticaWorld-Regular-114"/><use x="642.043" xlink:href="#HelveticaWorld-Regular-101"/><use x="697.463" xlink:href="#HelveticaWorld-Regular-115"/><use x="747.463" xlink:href="#HelveticaWorld-Regular-116"/><use x="775.148" xlink:href="#HelveticaWorld-Regular-97"/><use x="830.08" xlink:href="#HelveticaWorld-Regular-83"/><use x="896.291" xlink:href="#HelveticaWorld-Regular-104"/><use x="951.467" xlink:href="#HelveticaWorld-Regular-111"/><use x="1007.375" xlink:href="#HelveticaWorld-Regular-112"/></g><g transform="matrix(.14 0 0 -.14 413.818 244.578)" fill="#d62728" id="text_17"><defs><path d="M15.375 61.813H6.594v9.968h8.781zm0-69.532q0-7.468-3.547-10.375Q8.297-21 2-21q-1.797 0-3.703.297v7.61H.594q3.703 0 4.843 1.109 1.157 1.093 1.157 5.296v58.985h8.781z" id="HelveticaWorld-Regular-106"/><path d="M15.375 0H6.594v71.781h8.781z" id="HelveticaWorld-Regular-108"/><path d="M28.906 23.188H4.391v8.984h24.515z" id="HelveticaWorld-Regular-45"/><path d="M39.594 34.719q-1.89 11.187-12.39 11.187-6.5 0-10.454-5.203-3.953-5.203-3.953-14.484 0-10.11 3.656-15.11 3.672-5 10.64-5 4.688 0 8.11 3.438 3.422 3.437 4.39 8.953h8.5q-1.312-9.703-6.859-14.86-5.547-5.156-14.328-5.156-10.297 0-16.89 7.047-6.594 7.063-6.594 19.172 0 13.281 6.594 21.188 6.593 7.922 18.5 7.922 8.687 0 13.843-5.204 5.157-5.203 5.735-13.89z" id="HelveticaWorld-Regular-99"/></defs><use xlink:href="#HelveticaWorld-Regular-106"/><use x="22.021" xlink:href="#HelveticaWorld-Regular-111"/><use x="77.93" xlink:href="#HelveticaWorld-Regular-111"/><use x="133.838" xlink:href="#HelveticaWorld-Regular-109"/><use x="216.846" xlink:href="#HelveticaWorld-Regular-108"/><use x="238.867" xlink:href="#HelveticaWorld-Regular-97"/><use x="293.799" xlink:href="#HelveticaWorld-Regular-47"/><use x="321.582" xlink:href="#HelveticaWorld-Regular-106"/><use x="343.604" xlink:href="#HelveticaWorld-Regular-111"/><use x="399.512" xlink:href="#HelveticaWorld-Regular-111"/><use x="455.42" xlink:href="#HelveticaWorld-Regular-109"/><use x="538.428" xlink:href="#HelveticaWorld-Regular-108"/><use x="560.449" xlink:href="#HelveticaWorld-Regular-97"/><use x="615.381" xlink:href="#HelveticaWorld-Regular-45"/><use x="648.682" xlink:href="#HelveticaWorld-Regular-99"/><use x="699.951" xlink:href="#HelveticaWorld-Regular-109"/><use x="782.959" xlink:href="#HelveticaWorld-Regular-115"/></g><g transform="matrix(.14 0 0 -.14 413.818 258.599)" fill="#9467bd" id="text_18"><defs><path d="M6.11 52.297h8.78V17.578q0-5.765 2.61-8.625Q20.125 6.11 25 6.11q6.781 0 10.594 4.797 3.812 4.813 3.812 12.578v28.813h8.782V0H39.89v7.625l-.188.188q-4.984-9.329-16.61-9.329-7.515 0-12.25 4.094Q6.11 6.688 6.11 14.703z" id="HelveticaWorld-Regular-117"/></defs><use xlink:href="#HelveticaWorld-Regular-100"/><use x="56.982" xlink:href="#HelveticaWorld-Regular-114"/><use x="89.551" xlink:href="#HelveticaWorld-Regular-117"/><use x="144.336" xlink:href="#HelveticaWorld-Regular-112"/><use x="200.83" xlink:href="#HelveticaWorld-Regular-97"/><use x="255.762" xlink:href="#HelveticaWorld-Regular-108"/><use x="277.783" xlink:href="#HelveticaWorld-Regular-47"/><use x="305.566" xlink:href="#HelveticaWorld-Regular-100"/><use x="362.549" xlink:href="#HelveticaWorld-Regular-114"/><use x="395.117" xlink:href="#HelveticaWorld-Regular-117"/><use x="449.902" xlink:href="#HelveticaWorld-Regular-112"/><use x="506.396" xlink:href="#HelveticaWorld-Regular-97"/><use x="561.328" xlink:href="#HelveticaWorld-Regular-108"/></g><g transform="matrix(.14 0 0 -.14 413.818 276.443)" fill="#8c564b" id="text_19"><defs><path d="M25.594 0h-8.985L1.516 52.297h9.468L21 11.187h.188l10.109 41.11h9.922l10.203-41.11h.187l10.594 41.11h8.703L55.812 0h-9.234L35.984 40.484h-.187z" id="HelveticaWorld-Regular-119"/><path d="M6.594 61.813v9.968h8.781v-9.969zM15.375 0H6.594v52.297h8.781z" id="HelveticaWorld-Regular-105"/><path d="M50 0H38.719L22.406 26.422l-7.312-6.594V0h-8.5v71.781h8.5v-41.61l22.5 22.126H48.78L28.813 32.813z" id="HelveticaWorld-Regular-107"/></defs><use xlink:href="#HelveticaWorld-Regular-119"/><use x="72.412" xlink:href="#HelveticaWorld-Regular-105"/><use x="94.434" xlink:href="#HelveticaWorld-Regular-107"/><use x="144.434" xlink:href="#HelveticaWorld-Regular-105"/><use x="166.455" xlink:href="#HelveticaWorld-Regular-109"/><use x="249.463" xlink:href="#HelveticaWorld-Regular-101"/><use x="304.883" xlink:href="#HelveticaWorld-Regular-100"/><use x="361.865" xlink:href="#HelveticaWorld-Regular-105"/><use x="383.887" xlink:href="#HelveticaWorld-Regular-97"/><use x="438.818" xlink:href="#HelveticaWorld-Regular-47"/><use x="466.602" xlink:href="#HelveticaWorld-Regular-109"/><use x="549.609" xlink:href="#HelveticaWorld-Regular-101"/><use x="605.029" xlink:href="#HelveticaWorld-Regular-100"/><use x="662.012" xlink:href="#HelveticaWorld-Regular-105"/><use x="684.033" xlink:href="#HelveticaWorld-Regular-97"/><use x="736.965" xlink:href="#HelveticaWorld-Regular-119"/><use x="809.377" xlink:href="#HelveticaWorld-Regular-105"/><use x="831.398" xlink:href="#HelveticaWorld-Regular-107"/><use x="881.398" xlink:href="#HelveticaWorld-Regular-105"/></g><g transform="matrix(.14 0 0 -.14 413.818 296.222)" fill="#e377c2" id="text_20"><defs><path d="M17.188 45.016V0H8.405v45.016H1.22v7.28h7.187v8.985q0 5.907 3.578 8.703 3.594 2.813 10.032 2.813 2.203 0 3.968-.188v-7.906q-1.562.188-3.578.188-2.922 0-4.078-1.438-1.14-1.437-1.14-4.656v-6.5h8.796v-7.281z" id="HelveticaWorld-Regular-102"/><path d="M17.828 8.297h18.797q9.766 0 15.281 7.5 5.516 7.5 5.516 20.484 0 12.844-5.563 19.969-5.562 7.125-16.062 7.234H17.828zM8.11 71.78h29.094q14.11 0 22.094-9.703 7.984-9.687 7.984-25.156 0-16.61-7.984-26.766Q51.313 0 36.813 0H8.108z" id="HelveticaWorld-Regular-68"/><path d="M19.094 0H8.687v10.594h10.407z" id="HelveticaWorld-Regular-46"/></defs><use xlink:href="#HelveticaWorld-Regular-100"/><use x="56.982" xlink:href="#HelveticaWorld-Regular-110"/><use x="112.158" xlink:href="#HelveticaWorld-Regular-110"/><use x="167.334" xlink:href="#HelveticaWorld-Regular-115"/><use x="217.334" xlink:href="#HelveticaWorld-Regular-111"/><use x="273.242" xlink:href="#HelveticaWorld-Regular-102"/><use x="300.928" xlink:href="#HelveticaWorld-Regular-116"/><use x="328.613" xlink:href="#HelveticaWorld-Regular-119"/><use x="398.65" xlink:href="#HelveticaWorld-Regular-97"/><use x="453.582" xlink:href="#HelveticaWorld-Regular-114"/><use x="485.15" xlink:href="#HelveticaWorld-Regular-101"/><use x="540.57" xlink:href="#HelveticaWorld-Regular-47"/><use x="568.354" xlink:href="#HelveticaWorld-Regular-68"/><use x="640.375" xlink:href="#HelveticaWorld-Regular-110"/><use x="695.551" xlink:href="#HelveticaWorld-Regular-110"/><use x="750.727" xlink:href="#HelveticaWorld-Regular-46"/><use x="778.51" xlink:href="#HelveticaWorld-Regular-80"/><use x="843.158" xlink:href="#HelveticaWorld-Regular-108"/><use x="865.18" xlink:href="#HelveticaWorld-Regular-97"/><use x="920.111" xlink:href="#HelveticaWorld-Regular-116"/><use x="947.797" xlink:href="#HelveticaWorld-Regular-102"/><use x="973.482" xlink:href="#HelveticaWorld-Regular-111"/><use x="1029.391" xlink:href="#HelveticaWorld-Regular-114"/><use x="1061.959" xlink:href="#HelveticaWorld-Regular-109"/></g><g transform="matrix(.14 0 0 -.14 413.818 310.222)" fill="#7f7f7f" id="text_21"><defs><path d="M25.39 63.188H1.22v8.593h58.297v-8.594H35.109V0h-9.718z" id="HelveticaWorld-Regular-84"/><path d="M37.313 0h-9.72v28.906L.485 71.781h11.329l20.609-34.469 20.562 34.47h11.422L37.312 28.905z" id="HelveticaWorld-Regular-89"/><path d="M63.922 35.89q0 12.594-6.672 20.891-6.656 8.313-18.328 8.313-11.531 0-18.266-8.313-6.734-8.297-6.734-20.89 0-12.985 6.828-21.094 6.844-8.11 18.172-8.11 11.078 0 18.031 7.907 6.969 7.922 6.969 21.297zm9.953 0q0-16.062-9.281-26.937-9.266-10.86-25.672-10.86-16.516 0-25.766 10.86-9.25 10.875-9.25 26.938 0 16.109 9.25 26.953 9.25 10.843 25.766 10.843 16.89 0 25.922-11.046 9.031-11.032 9.031-26.75z" id="HelveticaWorld-Regular-79"/><path d="M22.406 39.984q2.203-.187 4.594-.187 6.203 0 9.781 2.86 3.594 2.859 3.594 8.656 0 4.687-3.344 7.89-3.343 3.203-9.64 3.203-6.985 0-10.235-4.11-3.234-4.093-3.437-10.983h-8.64q0 10.984 5.765 16.984 5.765 6.016 16.937 6.016 9.922 0 15.828-5.11 5.907-5.094 5.907-13.39 0-10.704-9.032-14.5v-.204q11.72-4 11.72-16.406 0-9.906-6.595-16.265-6.593-6.344-18.703-6.344-9.906 0-16.312 5.203Q4.204 8.5 3.422 21.484H12.5q.203-8.109 4-11.797Q20.313 6 27.484 6q6.938 0 11.141 3.86 4.203 3.859 4.203 9.718 0 6.406-4.016 9.672-4 3.266-12.39 3.266-2 0-4.016-.094z" id="HelveticaWorld-Regular-51"/><path d="M58.016 50.203q-1.625 7.313-6.782 11.094-5.14 3.797-13.343 3.797-10.594 0-17.047-7.703-6.438-7.688-6.438-20.766 0-15.14 6.094-22.547 6.11-7.39 17.688-7.39 7.609 0 13.093 5.046 5.5 5.063 7.407 14.688h9.421Q66.22 12.594 57.625 5.344t-20.906-7.25q-14.703 0-23.516 10.11Q4.391 18.311 4.391 36.28q0 17.328 9.203 27.36 9.203 10.047 24.297 10.047 12.5 0 20.265-6.454 7.766-6.437 9.235-17.03z" id="HelveticaWorld-Regular-67"/><path d="M67.484 0v42.39q0 .829.094 8.126t.094 9.78h-.281L47.312 0h-9.609L17.578 60.203h-.297q0-3.61.094-10.297.11-6.687.11-7.515V0H8.108v71.781h13.86L42.39 11.078h.28l20.313 60.703h13.922V0z" id="HelveticaWorld-Regular-77"/></defs><use xlink:href="#HelveticaWorld-Regular-84"/><use x="60.742" xlink:href="#HelveticaWorld-Regular-89"/><use x="125.537" xlink:href="#HelveticaWorld-Regular-80"/><use x="190.186" xlink:href="#HelveticaWorld-Regular-79"/><use x="267.969" xlink:href="#HelveticaWorld-Regular-51"/><use x="323.584" xlink:href="#HelveticaWorld-Regular-47"/><use x="351.367" xlink:href="#HelveticaWorld-Regular-84"/><use x="412.109" xlink:href="#HelveticaWorld-Regular-89"/><use x="476.904" xlink:href="#HelveticaWorld-Regular-80"/><use x="541.553" xlink:href="#HelveticaWorld-Regular-79"/><use x="619.336" xlink:href="#HelveticaWorld-Regular-51"/><use x="674.951" xlink:href="#HelveticaWorld-Regular-46"/><use x="702.734" xlink:href="#HelveticaWorld-Regular-67"/><use x="775.049" xlink:href="#HelveticaWorld-Regular-77"/><use x="860.059" xlink:href="#HelveticaWorld-Regular-83"/></g><g transform="matrix(.09716 0 0 -.09716 53.127 347.15)" fill="#969696" id="text_22"><defs><path d="M38.484 38.375h31.532V0h-6.297l-2.344 9.281Q56.781 3.421 50.578.75q-6.187-2.656-12.875-2.656-10.797 0-18.047 4.703-7.25 4.719-11.265 13.015-4 8.313-4 20.72 0 15.468 9.203 26.312 9.203 10.843 24.781 10.843 11.625 0 20.313-6.5Q67.39 60.688 68.796 50h-9.375q-1.703 7.078-7.219 11.078-5.516 4.016-14.312 4.016-10.594 0-17.047-7.985-6.438-7.984-6.438-21.125 0-15.28 6.39-22.437Q27.204 6.39 38.282 6.39q7.235 0 12.235 2.859 5 2.86 7.687 7.766 2.688 4.906 2.688 13.062H38.484z" id="HelveticaWorld-Regular-71"/><path d="M64.89 0h-9.718v33.5h-37.5V0H8.109v71.781h9.563V42.094h37.5V71.78h9.719z" id="HelveticaWorld-Regular-72"/><path d="M43.406 26.313q0 10.5-3.718 15.046-3.704 4.547-10.579 4.547-6.984-.11-10.562-5.453Q14.984 35.11 14.984 25q0-10.297 4.297-14.594Q23.578 6.11 29.297 6.11q6.5 0 10.297 5.344 3.812 5.344 3.812 14.86zM6.594 0v71.781h8.781V45.703h.203q5.61 8.11 15.14 8.11 9.766 0 15.766-7.25t6-18.876q0-13.093-6.062-21.156Q40.375-1.516 29.5-1.516q-9.578 0-14.406 8.016h-.203V0z" id="HelveticaWorld-Regular-98"/><path d="M44 29.5L33.406 61.078h-.203L21.687 29.5zm-25.297-8.594L11.188 0h-9.97l27 71.781h10.985L65.187 0H54.594l-7.078 20.906z" id="HelveticaWorld-Regular-65"/><path d="M17.828 0H8.11v71.781h9.72z" id="HelveticaWorld-Regular-73"/><path d="M39.406 52.297h9.625L29.11 0h-9.437L.594 52.297h10.203L24.422 9.719h.187z" id="HelveticaWorld-Regular-118"/><path d="M0-12.313v4.891h55.61v-4.89z" id="HelveticaWorld-Regular-95"/><path d="M9.422 73.688h7.281V-1.906H9.422z" id="HelveticaWorld-Regular-124"/><path d="M55.61 71.781h9.374V0h-10.78L17.577 58.016h-.187V0H8.109v71.781h11.375l35.938-57.969h.187z" id="HelveticaWorld-Regular-78"/><path d="M12.703 26.219q0-8.735 3.953-14.375 3.953-5.64 11.219-5.64 7.531 0 11.438 5.905 3.906 5.907 3.906 14.11 0 8.297-3.907 14.078-3.906 5.797-11.437 5.797-6.969 0-11.078-5.453-4.094-5.438-4.094-14.422zm-8.984 0q0 11.672 6.484 19.625 6.5 7.968 17.672 7.968 11.438 0 17.875-8.062 6.453-8.047 6.453-19.531 0-11.516-6.406-19.625-6.39-8.11-17.922-8.11-11.078 0-17.625 7.86-6.531 7.86-6.531 19.875zm36.734 35.406H31.47v10.156h8.984zm-16.219 0H15.25v10.156h8.984z" id="HelveticaWorld-Regular-246"/><path d="M8.11 71.781h31.484q9.281 0 14.797-5.031 5.515-5.031 5.515-13.031 0-4.844-2.422-8.828-2.406-3.97-7.187-6.172 6.687-2.532 9.828-6.735 3.156-4.203 3.156-10.797 0-9.265-6.687-15.234Q49.906 0 38.922 0H8.109zm9.562-63.484h20.703q7.625 0 11.422 3.531 3.812 3.547 3.812 9.563 0 6.093-4.25 9.093Q45.125 33.5 36.812 33.5h-19.14zm0 33.11h17.625q7.719 0 11.312 2.796 3.594 2.813 3.594 8.781 0 5.125-3.406 7.813-3.39 2.687-11.39 2.687H17.671z" id="HelveticaWorld-Regular-66"/></defs><use xlink:href="#HelveticaWorld-Regular-71"/><use x="77.1" xlink:href="#HelveticaWorld-Regular-105"/><use x="99.121" xlink:href="#HelveticaWorld-Regular-116"/><use x="126.807" xlink:href="#HelveticaWorld-Regular-72"/><use x="199.805" xlink:href="#HelveticaWorld-Regular-117"/><use x="254.59" xlink:href="#HelveticaWorld-Regular-98"/><use x="311.084" xlink:href="#HelveticaWorld-Regular-32"/><use x="335.498" xlink:href="#HelveticaWorld-Regular-65"/><use x="402.197" xlink:href="#HelveticaWorld-Regular-80"/><use x="466.846" xlink:href="#HelveticaWorld-Regular-73"/><use x="492.627" xlink:href="#HelveticaWorld-Regular-32"/><use x="517.041" xlink:href="#HelveticaWorld-Regular-118"/><use x="566.65" xlink:href="#HelveticaWorld-Regular-105"/><use x="588.672" xlink:href="#HelveticaWorld-Regular-97"/><use x="643.604" xlink:href="#HelveticaWorld-Regular-32"/><use x="668.018" xlink:href="#HelveticaWorld-Regular-103"/><use x="723.926" xlink:href="#HelveticaWorld-Regular-104"/><use x="779.102" xlink:href="#HelveticaWorld-Regular-95"/><use x="834.717" xlink:href="#HelveticaWorld-Regular-115"/><use x="884.717" xlink:href="#HelveticaWorld-Regular-116"/><use x="912.402" xlink:href="#HelveticaWorld-Regular-97"/><use x="967.334" xlink:href="#HelveticaWorld-Regular-114"/><use x="999.902" xlink:href="#HelveticaWorld-Regular-115"/><use x="1049.902" xlink:href="#HelveticaWorld-Regular-32"/><use x="1074.316" xlink:href="#HelveticaWorld-Regular-124"/><use x="1100.293" xlink:href="#HelveticaWorld-Regular-32"/><use x="1124.707" xlink:href="#HelveticaWorld-Regular-78"/><use x="1197.803" xlink:href="#HelveticaWorld-Regular-105"/><use x="1219.824" xlink:href="#HelveticaWorld-Regular-99"/><use x="1271.094" xlink:href="#HelveticaWorld-Regular-111"/><use x="1327.002" xlink:href="#HelveticaWorld-Regular-32"/><use x="1351.416" xlink:href="#HelveticaWorld-Regular-83"/><use x="1417.627" xlink:href="#HelveticaWorld-Regular-99"/><use x="1468.896" xlink:href="#HelveticaWorld-Regular-104"/><use x="1524.072" xlink:href="#HelveticaWorld-Regular-108"/><use x="1546.094" xlink:href="#HelveticaWorld-Regular-246"/><use x="1602.002" xlink:href="#HelveticaWorld-Regular-109"/><use x="1685.01" xlink:href="#HelveticaWorld-Regular-101"/><use x="1740.43" xlink:href="#HelveticaWorld-Regular-114"/><use x="1772.998" xlink:href="#HelveticaWorld-Regular-32"/><use x="1797.412" xlink:href="#HelveticaWorld-Regular-124"/><use x="1823.389" xlink:href="#HelveticaWorld-Regular-32"/><use x="1847.803" xlink:href="#HelveticaWorld-Regular-67"/><use x="1920.117" xlink:href="#HelveticaWorld-Regular-67"/><use x="1992.432" xlink:href="#HelveticaWorld-Regular-32"/><use x="2016.846" xlink:href="#HelveticaWorld-Regular-66"/><use x="2079.658" xlink:href="#HelveticaWorld-Regular-89"/></g><g transform="matrix(.14 0 0 -.14 158.992 17.25)" fill="#969696" id="text_23"><use xlink:href="#HelveticaWorld-Regular-78"/><use x="73.096" xlink:href="#HelveticaWorld-Regular-117"/><use x="127.881" xlink:href="#HelveticaWorld-Regular-109"/><use x="210.889" xlink:href="#HelveticaWorld-Regular-98"/><use x="267.383" xlink:href="#HelveticaWorld-Regular-101"/><use x="322.803" xlink:href="#HelveticaWorld-Regular-114"/><use x="355.371" xlink:href="#HelveticaWorld-Regular-32"/><use x="379.785" xlink:href="#HelveticaWorld-Regular-111"/><use x="435.693" xlink:href="#HelveticaWorld-Regular-102"/><use x="463.379" xlink:href="#HelveticaWorld-Regular-32"/><use x="487.793" xlink:href="#HelveticaWorld-Regular-71"/><use x="564.893" xlink:href="#HelveticaWorld-Regular-105"/><use x="586.914" xlink:href="#HelveticaWorld-Regular-116"/><use x="614.6" xlink:href="#HelveticaWorld-Regular-72"/><use x="687.598" xlink:href="#HelveticaWorld-Regular-117"/><use x="742.383" xlink:href="#HelveticaWorld-Regular-98"/><use x="798.877" xlink:href="#HelveticaWorld-Regular-32"/><use x="823.291" xlink:href="#HelveticaWorld-Regular-115"/><use x="873.291" xlink:href="#HelveticaWorld-Regular-116"/><use x="900.977" xlink:href="#HelveticaWorld-Regular-97"/><use x="955.908" xlink:href="#HelveticaWorld-Regular-114"/><use x="988.477" xlink:href="#HelveticaWorld-Regular-115"/></g><path clip-path="url(#pcf1473530d)" d="M53.127 313.361l.038-.97 3.963-.347 7.924-.622 6.158-.586 2.018-.128 3.664-.366 9.223-.878 7.294-.97 9.288-1.464 6.032-.732 8.412-1.226 5.955-1.207 2.31-.257 1.623-.475 3.801-.732 1.747-.256 6.267-1.208 3.431-.494 7.79-.75 1.619-.238 4.215-.476.639-.128 2.184-.128 1.682-.238 6.874-.311 8.883-.238.558-.201 6.044-.97 4.912-.97 4.184-.476 10.354-2.196 3.582-.75 6.194-1.207 5.886-.989 1.178-.256 4.777-.713 2.033-.75 2.777-.495 2.24-.475 1.11-.494 10.99-2.452 1.868-.494 2.529-.476 8.208-1.958 3.109-.97.855-.494 1.4-.476 1.937-.494 2.632-.988 4.035-.97 2.395-.732 2.383-.256 6.048-1.464 10.189-2.91 3.403-.987 2.442-.494 3.715-.97 1.895-.494 2.434-.494 2.552-.714 1.957-.256.932-.238 3.902-.75 9.78-2.416 2.428-.494.887-.988 1-.475 1.556-.494 3.427-.989 1.49-.475 2.69-.494 3.307-.732 2.205-.257 4.603-.97.714-.237 6.273-.988 5.098-.97 1.902-.256 4.007-.732 11.983-1.72 4.355-.476 2.119-.366 4.377-.366 4.031-.75 2.675-.073.916-.257 2.262-.329 5.797-.384 4.228-.44 2.085-.31h0" fill="none" stroke="#9467bd" stroke-linecap="square" stroke-width="1.5" id="line2d_24"/><path clip-path="url(#pcf1473530d)" d="M134.9 313.361l.124-4.977 8.136-1.244 10.163-1.519 2.73-.256 3.551-.494 4.126-.33 5.739-.164 7.61-.494 4.954-.75 2.6-.257.588-.494.397-1.006.812-.238 1.761-.256 1.953-.494 2.867-.494 1.5-.513 2.392-.494 2.408-.75 1.726-.256 8.596-1.738 2.475-.256 2.195-.257 1.127-.256 6.1-.988 3.13-.494 2.36-1.006 2.313-.494 4.704-.75 3.322-.75 1.687-.513 10.096-2.233 4.086-.768.816-.238 1.736-.256 2.906-.988 2.833-.513 6.985-1.994 2.408-2.013 1.563-.494 2.927-.494 3.43-1.007 1.747-.494 6.843-1.5 3.862-.988 3.954-.494 1.649-.513 4.043-1.006 5.026-1.738 4.09-.75 4.311-1.007.832-.494 6.535-1.5 6.151-1.5 4.41-1.501 4.48-1.007 2.1-.494 1.144-.494 1.493-.512 3.545-1.482 2.815-1.007 2.166-.494 1.006-.494 4.398-1.006 4.592-1.52 2.183-.987 2.155-.494 2.544-1.007 3.953-.988 2.594-.512 1.555-.494 3.353-.494 2.25-.494 1.591-.513 8.492-1.756 1.338-.256 2.702-.147.337-.146 2.886-.915 3.94-.732 2.547-.092.938-.11 2.748-.237 1.86-.256h0" fill="none" stroke="#d62728" stroke-linecap="square" stroke-width="1.5" id="line2d_25"/><path clip-path="url(#pcf1473530d)" d="M169.368 313.361l.25-2.744 2.801-.165 1.573-.092 2.428-.073 1.588-.164 3.081-.568 2.126-.091 3.486-.494 4.511-.494 7.48-1.3 3.004-.658 4.2-.659 3.462-.97 1.584-.658 2.295-.66 1.868-.658 2.293-.64 3.524-.66 3.702-.987 2.285-.33 3.502-.97 1.81-.329 2.273-.659 1.221-.658 4.395-1.3 1.904-.658 4.562-1.3 1.744-.658 2.184-1.318 2.96-1.299 3.519-1.299 10.17-3.257 1.112-.659 3.194-1.317 1.762-.64 2.18-.66 1.697-.658 5.84-1.958 3.41-1.318 1.808-.64 1.03-.659 4.068-1.317 2.376-.64 1.63-.66 1.95-.658 2.81-1.3 8.544-3.275 1.22-.64 7.481-2.617 2.093-.659 1.232-.64 1.672-.659 1.23-.658 1.872-.66 1.044-.64 3.18-1.317 4.522-1.3 3.758-1.317 3.814-1.299 1.633-.659.858-.658 3.598-1.3 4.095-1.976 1.711-.64 6.908-3.276 1.425-1.299 1.062-1.299 1.8-.659 2.858-1.299 1.553-.659.82-.658 2.063-.66 1.381-1.298 1.981-1.318 2.06-2.616 2.327-2.617 1.773-1.3 2.897-1.317 3.05-1.299 1.482-.659 1.015-.658 2.276-1.83 2.745-1.848.907-3.697 4.007-1.94 1.714-.255.857-.257.782-.53 2.05-.622 2.877-1.867h0" fill="none" stroke="#2ca02c" stroke-linecap="square" stroke-width="1.5" id="line2d_26"/><path clip-path="url(#pcf1473530d)" d="M140.203 313.361l.982-8.142 4.916-.604 15.805-1.537 8.883-.55 5.466-.2.727-.147 2.646-.915 4.737-1.207 2.741-.604 1.972-.311.993-.311 5.49-1.208 1.664-.604 2.124-.604 4.686-1.811 13.443-4.85 6.67-1.81 3.108-1.209 3.122-1.207 1.35-1.226 2.34-2.416 3.534-1.811 1.56-.622 4.457-2.416 1.756-.604 1.124-.603 2.851-1.226 4.622-2.416 3.587-2.415 2.963-3.623.958-.604 1.582-.622 1.462-1.208 3.833-2.415 3.574-2.434 1.44-.604 1.09-.604 1.488-1.207 2.08-1.226 4.443-2.416 3.17-1.811 1.502-.622 1.687-1.208 3.263-1.812 1.291-.603 1.916-1.226 1.557-1.208 1.95-1.208 1.652-1.207 3.016-2.434 3.32-2.415 4.165-2.434 1.598-1.208 5.185-3.623 1.232-1.208 1.63-1.207 1.203-1.226 3.571-2.416 3.588-3.641 1.615-1.208 3.827-3.641 1.82-1.208 1.189-1.207 1.663-1.208 7.152-7.265 4.651-4.849 1.45-1.207 1.116-1.226 1.268-2.416 2.321-2.415 1.73-2.415 1.19-2.434 1.425-2.415 2.382-2.434 1.581-2.415 2.078-2.434 2.45-2.416 1.804-1.207 1.164-1.226 1.96-1.208 1.706-1.208 1.74-2.433 2.446-2.416 2.382-1.207 2.083-1.226 6.871-4.85 2.087-.567.761-.567 1.243-1.134 1.812-2.27 2.178-1.207 1.862-1.226 1.374-1.28 2.068-1.3 1.916-.512 2.738-1.592h0" fill="none" stroke="#ff7f0e" stroke-linecap="square" stroke-width="1.5" id="line2d_27"/><path clip-path="url(#pcf1473530d)" d="M140.256 313.361l1.64-18.627 3.356-.988 1.506-.476 2.21-.988 1.47-.494 1.781-.988 4.836-1.958 1.928-.494 1.388-.494 3.438-.714 3.249-.494 6.437-.988 2.521-.11 2.1-1.61 5.654-4.904 3.43-1.958 4.022-2.964 4.648-3.916 2.282-1.958 1.356-1.976 2.018-1.958 1.618-.97 7.27-6.88 5.726-4.923 5.985-4.903 3.992-3.935 3.253-3.915 1.966-1.958 2.221-1.977 3.91-3.915 7.304-7.85 2.341-1.958 3.707-3.934 1.472-1.958 1.654-1.958 2.173-1.976 1.949-1.958 1.708-1.958 1.31-1.958 2.02-1.976 1.42-1.958 2.014-1.958 1.722-1.958 3.286-3.934 7.717-7.869 2.026-1.958 1.766-1.957 2.033-1.977 1.516-1.958 5.105-5.892 2.02-1.958 1.66-1.957 2.875-3.935 3.435-3.915 1.592-1.958 2.064-1.977 1.622-1.957 1.94-1.958 1.705-1.958 2.044-1.976 1.632-1.958 1.098-1.958 2.989-3.934 1.276-1.958 7.293-7.85 3.037-3.934 7.316-7.85 1.162-.989 1.377-.988 3.872-3.915 2.223-1.958 1.747-1.977 2.104-1.958 1.448-1.957 1.833-1.958 1.615-1.977 1.975-1.958 1.788-1.976 3.26-3.934 1.757-1.958 1.471-1.958 8.785-7.85 2.302-1.958 1.643-1.976 1.359-1.958 1.98-1.958 1.612-1.958 4.264-3.934 2.063-1.976 1.62-1.958 1.483-1.976 2.324-1.208 1.464-1.226 2.116-2.452 2.224-1.756 1.777-1.775 2.247-1.373 1.197-1.372 1.994-.915 1.181-.915 1.67-1.83h0" fill="none" stroke="#1f77b4" stroke-linecap="square" stroke-width="1.5" id="line2d_28"/></g></g><defs><clipPath id="pcf1473530d"><path d="M53.127 47.249h357.12v266.112H53.127z"/></clipPath></defs></svg>