<svg height="480.241" viewBox="0 0 630.856 360.18" width="841.141" xmlns="http://www.w3.org/2000/svg" xmlns:xlink="http://www.w3.org/1999/xlink"><defs><style>*{stroke-linecap:butt;stroke-linejoin:round}</style></defs><g id="figure_1"><path d="M0 360.18h630.856V0H0z" style="fill:none" id="patch_1"/><g id="axes_1"><path d="M82.476 305.194h357.12V39.082H82.476z" style="fill:none" id="patch_2"/><g id="matplotlib.axis_1"><g id="xtick_1"><g id="line2d_1"><defs><path d="M0 0v3.5" id="m339defde8b" style="stroke:#969696;stroke-width:.4"/></defs><use style="fill:#969696;stroke:#969696;stroke-width:.4" x="119.809" xlink:href="#m339defde8b" y="305.194"/></g><g style="fill:#969696" transform="matrix(.14 0 0 -.14 105.446 322.134)" id="text_1"><defs><path d="M2944 0v467H1075v13l333 307c877 845 1434 1466 1434 2234 0 595-378 1209-1274 1209-480 0-890-179-1178-422l180-397c192 160 505 352 883 352 621 0 825-390 825-813-6-627-486-1164-1548-2176L288 346V0h2656z" id="MyriadPro-Regular-32" transform="scale(.01563)"/><path d="M1677 4230c-845 0-1447-768-1447-2163C243 691 794-70 1606-70c922 0 1447 780 1447 2195 0 1325-499 2105-1376 2105zm-32-435c582 0 845-672 845-1696 0-1062-276-1734-852-1734-512 0-844 614-844 1696 0 1133 358 1734 851 1734z" id="MyriadPro-Regular-30" transform="scale(.01563)"/><path d="M1510 0h544v4160h-480l-908-486 108-429 724 390h12V0z" id="MyriadPro-Regular-31" transform="scale(.01563)"/><path d="M2560 0v1133h582v441h-582v2586h-608L96 1504v-371h1933V0h531zM666 1574v13l1017 1415c115 192 218 371 346 614h19c-13-218-19-435-19-653V1574H666z" id="MyriadPro-Regular-34" transform="scale(.01563)"/></defs><use xlink:href="#MyriadPro-Regular-32"/><use x="51.3" xlink:href="#MyriadPro-Regular-30"/><use x="102.6" xlink:href="#MyriadPro-Regular-31"/><use x="153.9" xlink:href="#MyriadPro-Regular-34"/></g></g><g id="xtick_2"><use style="fill:#969696;stroke:#969696;stroke-width:.4" x="160.607" xlink:href="#m339defde8b" y="305.194" id="line2d_2"/><g style="fill:#969696" transform="matrix(.14 0 0 -.14 146.244 322.134)" id="text_2"><defs><path d="M2771 4160H781L512 2163c154 19 339 45 576 45 832 0 1190-384 1197-922 0-556-455-902-986-902-377 0-717 128-889 230L269 186C467 58 851-70 1306-70c902 0 1548 608 1548 1420 0 525-268 884-595 1069-256 154-576 224-896 224-153 0-243-13-339-25l160 1068h1587v474z" id="MyriadPro-Regular-35" transform="scale(.01563)"/></defs><use xlink:href="#MyriadPro-Regular-32"/><use x="51.3" xlink:href="#MyriadPro-Regular-30"/><use x="102.6" xlink:href="#MyriadPro-Regular-31"/><use x="153.9" xlink:href="#MyriadPro-Regular-35"/></g></g><g id="xtick_3"><use style="fill:#969696;stroke:#969696;stroke-width:.4" x="201.404" xlink:href="#m339defde8b" y="305.194" id="line2d_3"/><g style="fill:#969696" transform="matrix(.14 0 0 -.14 187.041 322.134)" id="text_3"><defs><path d="M2662 4224c-102 0-243-6-409-32-525-64-986-275-1331-614-410-410-704-1056-704-1876C218 621 800-70 1690-70c864 0 1382 704 1382 1465 0 813-518 1344-1254 1344-461 0-807-217-1005-480h-19c96 685 563 1331 1446 1479 160 25 307 32 422 25v461zM1690 365c-589 0-903 505-916 1190 0 103 26 186 64 250 154 301 468 512 807 512 518 0 857-359 857-954s-326-998-806-998h-6z" id="MyriadPro-Regular-36" transform="scale(.01563)"/></defs><use xlink:href="#MyriadPro-Regular-32"/><use x="51.3" xlink:href="#MyriadPro-Regular-30"/><use x="102.6" xlink:href="#MyriadPro-Regular-31"/><use x="153.9" xlink:href="#MyriadPro-Regular-36"/></g></g><g id="xtick_4"><use style="fill:#969696;stroke:#969696;stroke-width:.4" x="242.314" xlink:href="#m339defde8b" y="305.194" id="line2d_4"/><g style="fill:#969696" transform="matrix(.14 0 0 -.14 227.95 322.134)" id="text_4"><defs><path d="M365 4160v-467h2035v-13L595 0h583l1811 3789v371H365z" id="MyriadPro-Regular-37" transform="scale(.01563)"/></defs><use xlink:href="#MyriadPro-Regular-32"/><use x="51.3" xlink:href="#MyriadPro-Regular-30"/><use x="102.6" xlink:href="#MyriadPro-Regular-31"/><use x="153.9" xlink:href="#MyriadPro-Regular-37"/></g></g><g id="xtick_5"><use style="fill:#969696;stroke:#969696;stroke-width:.4" x="283.112" xlink:href="#m339defde8b" y="305.194" id="line2d_5"/><g style="fill:#969696" transform="matrix(.14 0 0 -.14 268.749 322.134)" id="text_5"><defs><path d="M1062 2170c-512-218-825-589-825-1114C237 448 762-70 1632-70c794 0 1414 486 1414 1209 0 506-320 871-838 1075v20c512 243 685 620 685 972 0 519-403 1024-1210 1024-729 0-1286-448-1286-1107 0-358 198-717 659-934l6-19zm583-1831c-531 0-851 371-832 794 0 397 262 717 749 857 563-160 915-403 915-908 0-423-327-743-832-743zm6 3488c506 0 704-345 704-678 0-378-275-634-633-755-480 128-794 352-794 768 0 358 256 665 723 665z" id="MyriadPro-Regular-38" transform="scale(.01563)"/></defs><use xlink:href="#MyriadPro-Regular-32"/><use x="51.3" xlink:href="#MyriadPro-Regular-30"/><use x="102.6" xlink:href="#MyriadPro-Regular-31"/><use x="153.9" xlink:href="#MyriadPro-Regular-38"/></g></g><g id="xtick_6"><use style="fill:#969696;stroke:#969696;stroke-width:.4" x="323.909" xlink:href="#m339defde8b" y="305.194" id="line2d_6"/><g style="fill:#969696" transform="matrix(.14 0 0 -.14 309.546 322.134)" id="text_6"><defs><path d="M614-64c135-6 314 0 519 32 448 51 889 243 1209 557 410 397 717 1037 717 1952 0 1062-525 1753-1376 1753S262 3539 262 2752c0-710 480-1274 1229-1274 416 0 749 167 979 448h20c-77-492-276-857-551-1107-237-224-544-358-870-403-192-19-333-32-455-19V-64zm1024 3866c589 0 852-544 852-1255 0-89-20-153-52-205-147-249-441-435-819-435-486 0-800 365-800 883 0 589 339 1012 813 1012h6z" id="MyriadPro-Regular-39" transform="scale(.01563)"/></defs><use xlink:href="#MyriadPro-Regular-32"/><use x="51.3" xlink:href="#MyriadPro-Regular-30"/><use x="102.6" xlink:href="#MyriadPro-Regular-31"/><use x="153.9" xlink:href="#MyriadPro-Regular-39"/></g></g><g id="xtick_7"><use style="fill:#969696;stroke:#969696;stroke-width:.4" x="364.707" xlink:href="#m339defde8b" y="305.194" id="line2d_7"/><g style="fill:#969696" transform="matrix(.14 0 0 -.14 350.344 322.134)" id="text_7"><use xlink:href="#MyriadPro-Regular-32"/><use x="51.3" xlink:href="#MyriadPro-Regular-30"/><use x="102.6" xlink:href="#MyriadPro-Regular-32"/><use x="153.9" xlink:href="#MyriadPro-Regular-30"/></g></g><g id="xtick_8"><use style="fill:#969696;stroke:#969696;stroke-width:.4" x="405.617" xlink:href="#m339defde8b" y="305.194" id="line2d_8"/><g style="fill:#969696" transform="matrix(.14 0 0 -.14 391.254 322.134)" id="text_8"><use xlink:href="#MyriadPro-Regular-32"/><use x="51.3" xlink:href="#MyriadPro-Regular-30"/><use x="102.6" xlink:href="#MyriadPro-Regular-32"/><use x="153.9" xlink:href="#MyriadPro-Regular-31"/></g></g></g><g id="matplotlib.axis_2"><g id="ytick_1"><path clip-path="url(#pdfefef9693)" d="M82.476 305.194h357.12" style="fill:none;stroke:#969696;stroke-linecap:square;stroke-width:.3" id="line2d_9"/><g id="line2d_10"><defs><path d="M0 0h-3.5" id="m22f9ddefc3" style="stroke:#969696;stroke-width:.3"/></defs><use style="fill:#969696;stroke:#969696;stroke-width:.3" x="82.476" xlink:href="#m22f9ddefc3" y="305.194"/></g><use xlink:href="#MyriadPro-Regular-30" style="fill:#969696" transform="matrix(.14 0 0 -.14 68.295 310.164)" id="text_9"/></g><g id="ytick_2"><path clip-path="url(#pdfefef9693)" d="M82.476 262.082h357.12" style="fill:none;stroke:#969696;stroke-linecap:square;stroke-width:.3" id="line2d_11"/><use style="fill:#969696;stroke:#969696;stroke-width:.3" x="82.476" xlink:href="#m22f9ddefc3" y="262.082" id="line2d_12"/><g style="fill:#969696" transform="matrix(.14 0 0 -.14 46.75 267.052)" id="text_10"><use xlink:href="#MyriadPro-Regular-35"/><use x="51.3" xlink:href="#MyriadPro-Regular-30"/><use x="102.6" xlink:href="#MyriadPro-Regular-30"/><use x="153.9" xlink:href="#MyriadPro-Regular-30"/></g></g><g id="ytick_3"><path clip-path="url(#pdfefef9693)" d="M82.476 218.97h357.12" style="fill:none;stroke:#969696;stroke-linecap:square;stroke-width:.3" id="line2d_13"/><use style="fill:#969696;stroke:#969696;stroke-width:.3" x="82.476" xlink:href="#m22f9ddefc3" y="218.97" id="line2d_14"/><g style="fill:#969696" transform="matrix(.14 0 0 -.14 39.568 223.94)" id="text_11"><use xlink:href="#MyriadPro-Regular-31"/><use x="51.3" xlink:href="#MyriadPro-Regular-30"/><use x="102.6" xlink:href="#MyriadPro-Regular-30"/><use x="153.9" xlink:href="#MyriadPro-Regular-30"/><use x="205.2" xlink:href="#MyriadPro-Regular-30"/></g></g><g id="ytick_4"><path clip-path="url(#pdfefef9693)" d="M82.476 175.858h357.12" style="fill:none;stroke:#969696;stroke-linecap:square;stroke-width:.3" id="line2d_15"/><use style="fill:#969696;stroke:#969696;stroke-width:.3" x="82.476" xlink:href="#m22f9ddefc3" y="175.858" id="line2d_16"/><g style="fill:#969696" transform="matrix(.14 0 0 -.14 39.568 180.828)" id="text_12"><use xlink:href="#MyriadPro-Regular-31"/><use x="51.3" xlink:href="#MyriadPro-Regular-35"/><use x="102.6" xlink:href="#MyriadPro-Regular-30"/><use x="153.9" xlink:href="#MyriadPro-Regular-30"/><use x="205.2" xlink:href="#MyriadPro-Regular-30"/></g></g><g id="ytick_5"><path clip-path="url(#pdfefef9693)" d="M82.476 132.746h357.12" style="fill:none;stroke:#969696;stroke-linecap:square;stroke-width:.3" id="line2d_17"/><use style="fill:#969696;stroke:#969696;stroke-width:.3" x="82.476" xlink:href="#m22f9ddefc3" y="132.746" id="line2d_18"/><g style="fill:#969696" transform="matrix(.14 0 0 -.14 39.568 137.716)" id="text_13"><use xlink:href="#MyriadPro-Regular-32"/><use x="51.3" xlink:href="#MyriadPro-Regular-30"/><use x="102.6" xlink:href="#MyriadPro-Regular-30"/><use x="153.9" xlink:href="#MyriadPro-Regular-30"/><use x="205.2" xlink:href="#MyriadPro-Regular-30"/></g></g><g id="ytick_6"><path clip-path="url(#pdfefef9693)" d="M82.476 89.635h357.12" style="fill:none;stroke:#969696;stroke-linecap:square;stroke-width:.3" id="line2d_19"/><use style="fill:#969696;stroke:#969696;stroke-width:.3" x="82.476" xlink:href="#m22f9ddefc3" y="89.635" id="line2d_20"/><g style="fill:#969696" transform="matrix(.14 0 0 -.14 39.568 94.605)" id="text_14"><use xlink:href="#MyriadPro-Regular-32"/><use x="51.3" xlink:href="#MyriadPro-Regular-35"/><use x="102.6" xlink:href="#MyriadPro-Regular-30"/><use x="153.9" xlink:href="#MyriadPro-Regular-30"/><use x="205.2" xlink:href="#MyriadPro-Regular-30"/></g></g><g id="ytick_7"><path clip-path="url(#pdfefef9693)" d="M82.476 46.523h357.12" style="fill:none;stroke:#969696;stroke-linecap:square;stroke-width:.3" id="line2d_21"/><use style="fill:#969696;stroke:#969696;stroke-width:.3" x="82.476" xlink:href="#m22f9ddefc3" y="46.523" id="line2d_22"/><g style="fill:#969696" transform="matrix(.14 0 0 -.14 39.568 51.493)" id="text_15"><defs><path d="M269 211C474 77 883-70 1350-70c999 0 1517 582 1517 1248 0 582-416 966-928 1068v13c512 186 768 551 768 979 0 506-371 992-1190 992-448 0-871-160-1088-320l147-409c179 128 499 275 832 275 518 0 730-294 730-627 0-493-519-704-928-704H896v-423h314c544 0 1068-249 1075-832 6-345-218-806-941-806-390 0-762 160-922 262L269 211z" id="MyriadPro-Regular-33" transform="scale(.01563)"/></defs><use xlink:href="#MyriadPro-Regular-33"/><use x="51.3" xlink:href="#MyriadPro-Regular-30"/><use x="102.6" xlink:href="#MyriadPro-Regular-30"/><use x="153.9" xlink:href="#MyriadPro-Regular-30"/><use x="205.2" xlink:href="#MyriadPro-Regular-30"/></g></g><g style="fill:#969696" transform="matrix(.14 0 0 -.14 7.2 17.14)" id="text_16"><defs><path d="M3770 2266H2349v-448h877V531c-128-64-378-115-743-115-1005 0-1664 646-1664 1741 0 1081 685 1734 1735 1734 435 0 723-83 953-185l135 454c-186 90-576 198-1076 198-1446 0-2329-940-2336-2227 0-672 231-1248 602-1606 422-403 960-570 1613-570 582 0 1075 147 1325 237v2074z" id="MyriadPro-Regular-47" transform="scale(.01563)"/><path d="M1030 0v3098H467V0h563zM749 4320c-205 0-352-154-352-352 0-192 141-346 339-346 224 0 365 154 358 346 0 198-134 352-345 352z" id="MyriadPro-Regular-69" transform="scale(.01563)"/><path d="M595 3667v-569H115v-429h480V979c0-365 58-640 218-806C947 19 1158-70 1421-70c217 0 390 38 499 83l-26 422c-83-25-172-38-326-38-314 0-422 217-422 601v1671h806v429h-806v742l-551-173z" id="MyriadPro-Regular-74" transform="scale(.01563)"/><path d="M486 4314V0h557v2022h2087V0h563v4314h-563V2509H1043v1805H486z" id="MyriadPro-Regular-48" transform="scale(.01563)"/><path d="M3059 3098h-563V1197c0-103-19-205-51-288-103-250-365-512-743-512-512 0-691 397-691 985v1716H448V1286C448 198 1030-70 1517-70c550 0 877 326 1024 576h13l32-506h499c-19 243-26 525-26 845v2253z" id="MyriadPro-Regular-75" transform="scale(.01563)"/><path d="M467 800c0-275-13-589-25-800h486l26 512h19c230-410 589-582 1037-582 691 0 1388 550 1388 1657 7 941-537 1581-1305 1581-499 0-858-224-1056-570h-13v1946H467V800zm557 998c0 90 19 167 32 231 115 429 474 691 858 691 601 0 921-531 921-1152 0-710-352-1190-941-1190-409 0-736 268-844 659-13 64-26 134-26 205v556z" id="MyriadPro-Regular-62" transform="scale(.01563)"/><path d="M250 147C467 19 781-70 1120-70c736 0 1158 390 1158 934 0 461-275 730-812 934-404 154-589 269-589 525 0 231 185 423 518 423 288 0 512-103 634-180l141 410c-173 102-448 192-762 192-666 0-1069-410-1069-909 0-371 263-678 819-877 416-153 576-300 576-569 0-256-192-461-601-461-282 0-576 115-743 224L250 147z" id="MyriadPro-Regular-73" transform="scale(.01563)"/><path d="M2643 1901c0 621-230 1267-1177 1267-391 0-762-109-1018-275l128-371c218 140 518 230 806 230 634 0 704-461 704-717v-64C890 1978 224 1568 224 819c0-448 320-889 947-889 442 0 775 217 947 460h20l44-390h512c-38 211-51 474-51 742v1159zm-544-858c0-57-13-121-32-179-89-262-345-518-749-518-288 0-531 172-531 537 0 602 698 711 1312 698v-538z" id="MyriadPro-Regular-61" transform="scale(.01563)"/><path d="M467 0h557v1651c0 96 13 186 26 263 76 422 358 723 755 723 77 0 134-7 192-19v531c-51 13-96 19-160 19-378 0-717-262-858-678h-25l-20 608H442c19-288 25-602 25-967V0z" id="MyriadPro-Regular-72" transform="scale(.01563)"/></defs><use xlink:href="#MyriadPro-Regular-47"/><use x="64.6" xlink:href="#MyriadPro-Regular-69"/><use x="88" xlink:href="#MyriadPro-Regular-74"/><use x="121.1" xlink:href="#MyriadPro-Regular-48"/><use x="186.3" xlink:href="#MyriadPro-Regular-75"/><use x="241.4" xlink:href="#MyriadPro-Regular-62"/><use x="298.3" xlink:href="#MyriadPro-Regular-20"/><use x="319.5" xlink:href="#MyriadPro-Regular-73"/><use x="359.1" xlink:href="#MyriadPro-Regular-74"/><use x="392.2" xlink:href="#MyriadPro-Regular-61"/><use x="440.4" xlink:href="#MyriadPro-Regular-72"/><use x="473.1" xlink:href="#MyriadPro-Regular-73"/></g></g><path clip-path="url(#pdfefef9693)" d="m157.142 305.194 3.465-.052 3.465-.095 3.13-1.259 3.464-1.052 3.354-.172 3.465-.026 3.353-.724 3.465-.362 3.465-.268 3.353-.198 3.465-.181 3.353-.164 3.465-.233 3.465-.405 3.242-.681 3.465-.267 3.353-2.975 3.465-.207 3.353-.12 3.465-.19 3.465-.121 3.354-.112 3.465-.104 3.353-.207 3.465-.164 3.465-.146 3.13-.207 3.465-.112 3.353-.138 3.465-.138 3.353-.086 3.465-.138 3.465-.173 3.353-.095 3.465-.094 3.354-.07 3.465-.025 3.465-.06 3.13-.061 3.464-.13 3.354-.086 3.465-.06 3.353-.112 3.465-.052 3.465-.077 3.353-.07 3.465-.034 3.353-.043 3.465-.026 3.466-.077 3.13-.07 3.464-.077 3.353-.052 3.465-.086 3.354-.034 3.465-.009 3.465-.078 3.353-.06 3.465-.172 3.353-.112 3.465-.018 3.465-.034 3.242-.026 3.465-.043 3.353-.12 3.465-.104 3.353-.043 3.465-.052 3.465-.138 3.353-.035 3.466-.043 3.353-.052 3.465-.086 3.465-.069 3.13-.086 3.464-.095 3.354-.026 3.465-.086 3.353-.06 3.465-.07 3.465-.068 3.353-.043 3.465-.052" style="fill:none;stroke:#ff9896;stroke-linecap:square;stroke-width:1.5" id="line2d_23"/><path clip-path="url(#pdfefef9693)" d="m167.201 305.194 3.465-.043 3.354-.01h3.465l3.353-.008h3.465l3.465-.862 3.353-2.285 3.465-.276 3.353-.086 3.465-.13 3.465-3.914 3.242-.785 3.465-.232 3.353-.13 3.465-.112 3.353-.103 3.465-.199 3.465-.051 3.354-.018 3.465-.034 3.353-.233 3.465-.534 3.465-.13 3.13-.12 3.465-.113 3.353-.129 3.465-.034 3.353-.225 3.465-.069 3.465-.068 3.353-.078 3.465-.147 3.354-.112 3.465-.095 3.465-.086 3.13-.069 3.464-.31 3.354-.043 3.465-.06 3.353-.087 3.465-.078 3.465-.051 3.353-.07 3.465-.034 3.353-.069 3.465-.034 3.466-.06 3.13-.06 3.464-.096 3.353-.095 3.465-.138 3.354-.06 3.465-.078 3.465-.094 3.353-.06 3.465-.104 3.353-.06 3.465-.087 3.465-.095 3.242-.094 3.465-.078 3.353-.026 3.465-.052 3.353-.034 3.465-.078 3.465-.198 3.353-.035 3.466-.069 3.353-.094 3.465-.035 3.465-.077 3.13-.087 3.464-.051 3.354-.087 3.465-.086 3.353-.034 3.465-.121 3.465-.138 3.353-.078 3.465-.069" style="fill:none;stroke:#98df8a;stroke-linecap:square;stroke-width:1.5" id="line2d_24"/><path clip-path="url(#pdfefef9693)" d="m269.475 305.194 3.353-8.89 3.465-.586 3.354-.199 3.465-.077 3.465-.276 3.13-.13 3.464-.853 3.354-.181 3.465-.31 3.353-.156 3.465-.034 3.465-.07 3.353-.068 3.465-.155 3.353-.009 3.465-.035 3.466-.008 3.13-.078 3.464-.017 3.353-.069 3.465-.043 3.354-.017 3.465-.026 3.465-.017 3.353-.044 3.465-.008 3.353-.035 3.465-.051h3.465l3.242-.009 3.465-.017 3.353-.018 3.465-4.104 3.353-.095h3.465l3.465-.043 3.353-.034 3.466-.043 3.353-.026 3.465-.026 3.465-.328 3.13-.051 3.464-.06h3.354l3.465-.018 3.353-.017 3.465-.009 3.465-.026 3.353-.026 3.465-.008" style="fill:none;stroke:#ffbb78;stroke-linecap:square;stroke-width:1.5" id="line2d_25"/><g style="fill:#1f77b4" transform="matrix(.14 0 0 -.14 450.31 42.582)" id="text_17"><defs><path d="M58 3098 1203 243c26-70 39-115 39-147s-20-77-45-134c-128-288-320-506-474-628-166-140-352-230-493-275l141-473c141 25 416 121 691 364 384 333 660 877 1063 1940l845 2208h-596l-614-1818c-77-224-141-461-198-646h-13c-51 185-128 428-199 633L672 3098H58z" id="MyriadPro-Regular-79" transform="scale(.01563)"/><path d="M467 0h563v1862c0 96 13 192 39 263 96 313 384 576 755 576 531 0 717-416 717-915V0h563v1850c0 1062-666 1318-1094 1318-512 0-871-288-1024-582h-13l-32 512H442c19-256 25-519 25-839V0z" id="MyriadPro-Regular-6e" transform="scale(.01563)"/><path d="M1779 3168c-857 0-1536-608-1536-1645C243 544 890-70 1728-70c749 0 1542 499 1542 1644 0 948-601 1594-1491 1594zm-13-422c666 0 928-666 928-1191 0-697-403-1203-940-1203-551 0-941 512-941 1190 0 589 288 1204 953 1204z" id="MyriadPro-Regular-6f" transform="scale(.01563)"/><path d="m422-256 1792 4640h-435L-6-256h428z" id="MyriadPro-Regular-2f" transform="scale(.01563)"/><path d="M2957 1446c6 58 19 148 19 263 0 569-269 1459-1280 1459-902 0-1453-736-1453-1670C243 563 813-70 1766-70c493 0 832 108 1031 198l-96 403c-211-89-455-160-858-160-563 0-1049 314-1062 1075h2176zM787 1850c45 390 295 915 864 915 634 0 787-557 781-915H787z" id="MyriadPro-Regular-65" transform="scale(.01563)"/><path d="M2579 4544V2694h-13c-140 250-460 474-934 474-755 0-1395-634-1389-1664C243 563 819-70 1568-70c506 0 883 262 1056 608h13l25-538h506c-19 211-26 525-26 800v3744h-563zm0-3245c0-89-6-166-25-243-103-422-448-672-826-672-608 0-915 518-915 1146 0 684 345 1196 928 1196 422 0 729-294 813-652 19-71 25-167 25-237v-538z" id="MyriadPro-Regular-64" transform="scale(.01563)"/><path d="M192 1939v-416h1581v416H192z" id="MyriadPro-Regular-2d" transform="scale(.01563)"/><path d="M1082 0v2669h748v429h-748v166c0 474 121 896 601 896 160 0 275-32 359-70l76 435c-108 45-281 89-480 89-262 0-544-83-755-288-262-249-358-646-358-1081v-147H90v-429h435V0h557z" id="MyriadPro-Regular-66" transform="scale(.01563)"/></defs><use xlink:href="#MyriadPro-Regular-72"/><use x="32.7" xlink:href="#MyriadPro-Regular-79"/><use x="79.8" xlink:href="#MyriadPro-Regular-61"/><use x="128" xlink:href="#MyriadPro-Regular-6e"/><use x="183.5" xlink:href="#MyriadPro-Regular-6f"/><use x="238.4" xlink:href="#MyriadPro-Regular-61"/><use x="286.6" xlink:href="#MyriadPro-Regular-73"/><use x="326.2" xlink:href="#MyriadPro-Regular-69"/><use x="349.6" xlink:href="#MyriadPro-Regular-73"/><use x="389.2" xlink:href="#MyriadPro-Regular-2f"/><use x="423.5" xlink:href="#MyriadPro-Regular-6e"/><use x="479" xlink:href="#MyriadPro-Regular-65"/><use x="529.1" xlink:href="#MyriadPro-Regular-72"/><use x="561.8" xlink:href="#MyriadPro-Regular-64"/><use x="618.2" xlink:href="#MyriadPro-Regular-2d"/><use x="648.9" xlink:href="#MyriadPro-Regular-66"/><use x="678.1" xlink:href="#MyriadPro-Regular-6f"/><use x="733" xlink:href="#MyriadPro-Regular-6e"/><use x="788.5" xlink:href="#MyriadPro-Regular-74"/><use x="821.6" xlink:href="#MyriadPro-Regular-73"/></g><g style="fill:#ff7f0e" transform="matrix(.14 0 0 -.14 450.31 181.568)" id="text_18"><defs><path d="M3110 2246c0 378 13 628 26 852h-493l-25-468h-13c-135 256-429 538-967 538-710 0-1395-595-1395-1645C243 666 794 13 1562 13c480 0 812 230 985 518h13V186c0-781-422-1082-998-1082-384 0-704 115-909 243l-141-429c250-166 659-256 1030-256 391 0 826 90 1127 372 301 268 441 704 441 1414v1798zm-556-928c0-96-13-204-45-300-122-359-435-576-781-576-608 0-915 505-915 1113 0 717 384 1171 921 1171 410 0 685-268 788-595 25-77 32-160 32-256v-557z" id="MyriadPro-Regular-67" transform="scale(.01563)"/><path d="M467 0h563v4544H467V0z" id="MyriadPro-Regular-6c" transform="scale(.01563)"/></defs><use xlink:href="#MyriadPro-Regular-67"/><use x="55.9" xlink:href="#MyriadPro-Regular-6f"/><use x="110.8" xlink:href="#MyriadPro-Regular-6f"/><use x="165.7" xlink:href="#MyriadPro-Regular-67"/><use x="221.6" xlink:href="#MyriadPro-Regular-6c"/><use x="245.2" xlink:href="#MyriadPro-Regular-65"/><use x="295.3" xlink:href="#MyriadPro-Regular-2f"/><use x="329.6" xlink:href="#MyriadPro-Regular-66"/><use x="358.8" xlink:href="#MyriadPro-Regular-6f"/><use x="413.7" xlink:href="#MyriadPro-Regular-6e"/><use x="469.2" xlink:href="#MyriadPro-Regular-74"/><use x="502.3" xlink:href="#MyriadPro-Regular-73"/></g><g style="fill:#2ca02c" transform="matrix(.14 0 0 -.14 450.31 195.57)" id="text_19"><defs><path d="M467 0h551v1869c0 96 12 192 44 275 90 282 346 563 698 563 429 0 646-358 646-851V0h551v1914c0 102 19 204 45 281 96 275 345 512 665 512 455 0 672-358 672-953V0h551v1824c0 1075-608 1344-1018 1344-294 0-499-77-685-218-128-96-249-230-345-403h-13c-135 365-455 621-877 621-512 0-800-275-973-570h-19l-26 500H442c19-256 25-519 25-839V0z" id="MyriadPro-Regular-6d" transform="scale(.01563)"/></defs><use xlink:href="#MyriadPro-Regular-72"/><use x="32.7" xlink:href="#MyriadPro-Regular-73"/><use x="72.3" xlink:href="#MyriadPro-Regular-6d"/><use x="155.7" xlink:href="#MyriadPro-Regular-73"/><use x="195.3" xlink:href="#MyriadPro-Regular-2f"/><use x="229.6" xlink:href="#MyriadPro-Regular-69"/><use x="253" xlink:href="#MyriadPro-Regular-6e"/><use x="308.5" xlink:href="#MyriadPro-Regular-74"/><use x="341.6" xlink:href="#MyriadPro-Regular-65"/><use x="391.7" xlink:href="#MyriadPro-Regular-72"/></g><g style="fill:#d62728" transform="matrix(.14 0 0 -.14 450.31 210.209)" id="text_20"><defs><path d="M486 4314V0h557v4314H486z" id="MyriadPro-Regular-49" transform="scale(.01563)"/><path d="M486 13c186-26 480-51 864-51 704 0 1191 128 1492 403 217 211 364 493 364 864 0 640-480 979-889 1081v13c454 167 729 531 729 947 0 340-134 596-358 762-269 218-627 314-1184 314-390 0-774-39-1018-90V13zm557 3865c90 20 237 39 493 39 563 0 947-199 947-704 0-416-345-723-934-723h-506v1388zm0-1811h461c608 0 1114-243 1114-832 0-627-532-838-1108-838-198 0-358 6-467 25v1645z" id="MyriadPro-Regular-42" transform="scale(.01563)"/><path d="M4230 0h544l-268 4314h-711l-768-2087c-192-544-345-1017-454-1453h-19c-109 448-256 922-436 1453l-736 2087H672L371 0h531l116 1850c38 646 70 1369 83 1907h13c121-512 294-1069 499-1677L2310 26h423l761 2092c218 589 397 1133 544 1639h20c-7-538 32-1261 64-1863L4230 0z" id="MyriadPro-Regular-4d" transform="scale(.01563)"/><path d="M467-1267h557V416h13c185-307 544-486 953-486 730 0 1408 550 1408 1664 0 940-563 1574-1312 1574-505 0-870-224-1100-602h-13l-26 532H442c12-295 25-615 25-1012v-3353zm557 3059c0 77 19 160 38 230 109 423 468 698 852 698 595 0 921-531 921-1152 0-710-345-1197-941-1197-403 0-742 269-844 659-13 71-26 148-26 231v531z" id="MyriadPro-Regular-70" transform="scale(.01563)"/><path d="m102 3098 1050-1517L51 0h621l448 698c115 185 224 345 326 537h13c109-185 211-358 333-537L2246 0h640L1798 1600l1056 1498h-608l-435-660c-102-166-205-326-307-512h-19c-103 173-199 333-314 506l-441 666H102z" id="MyriadPro-Regular-78" transform="scale(.01563)"/></defs><use xlink:href="#MyriadPro-Regular-49"/><use x="23.9" xlink:href="#MyriadPro-Regular-42"/><use x="78.1" xlink:href="#MyriadPro-Regular-4d"/><use x="158.5" xlink:href="#MyriadPro-Regular-2f"/><use x="192.8" xlink:href="#MyriadPro-Regular-70"/><use x="249.7" xlink:href="#MyriadPro-Regular-6c"/><use x="273.3" xlink:href="#MyriadPro-Regular-65"/><use x="323.4" xlink:href="#MyriadPro-Regular-78"/></g><g style="fill:#9467bd" transform="matrix(.14 0 0 -.14 450.31 224.209)" id="text_21"><defs><path d="M2579 538c-160-71-371-154-691-154-614 0-1075 442-1075 1158 0 647 384 1172 1094 1172 307 0 519-71 653-148l128 436c-154 76-448 160-781 160-1011 0-1664-692-1664-1645C243 570 851-70 1786-70c416 0 742 108 889 185l-96 423z" id="MyriadPro-Regular-63" transform="scale(.01563)"/><path d="M467 0h563v1869c0 109 7 192 39 269 102 307 390 563 755 563 531 0 717-423 717-922V0h563v1843c0 1069-666 1325-1082 1325-211 0-409-64-576-160-172-96-313-237-403-397h-13v1933H467V0z" id="MyriadPro-Regular-68" transform="scale(.01563)"/><path d="M486 0h557v1869h525c506-19 736-243 864-839 122-537 218-902 288-1030h576c-90 166-192 582-333 1184-102 448-301 755-633 870v20c454 153 812 531 812 1100 0 333-121 628-339 820-269 243-653 352-1248 352-384 0-787-32-1069-90V0zm557 3866c90 25 282 51 551 51 588-7 992-250 992-807 0-492-378-819-973-819h-570v1575z" id="MyriadPro-Regular-52" transform="scale(.01563)"/><path d="M486 0h557v1952h1632v461H1043v1433h1767v468H486V0z" id="MyriadPro-Regular-46" transform="scale(.01563)"/></defs><use xlink:href="#MyriadPro-Regular-63"/><use x="44.8" xlink:href="#MyriadPro-Regular-68"/><use x="100.3" xlink:href="#MyriadPro-Regular-72"/><use x="133" xlink:href="#MyriadPro-Regular-69"/><use x="156.4" xlink:href="#MyriadPro-Regular-73"/><use x="196" xlink:href="#MyriadPro-Regular-74"/><use x="229.1" xlink:href="#MyriadPro-Regular-69"/><use x="252.5" xlink:href="#MyriadPro-Regular-61"/><use x="300.7" xlink:href="#MyriadPro-Regular-6e"/><use x="356.2" xlink:href="#MyriadPro-Regular-6e"/><use x="411.7" xlink:href="#MyriadPro-Regular-61"/><use x="459.9" xlink:href="#MyriadPro-Regular-74"/><use x="493" xlink:href="#MyriadPro-Regular-68"/><use x="548.5" xlink:href="#MyriadPro-Regular-73"/><use x="588.1" xlink:href="#MyriadPro-Regular-2f"/><use x="622.4" xlink:href="#MyriadPro-Regular-52"/><use x="676.2" xlink:href="#MyriadPro-Regular-65"/><use x="726.3" xlink:href="#MyriadPro-Regular-64"/><use x="782.7" xlink:href="#MyriadPro-Regular-61"/><use x="830.9" xlink:href="#MyriadPro-Regular-63"/><use x="875.7" xlink:href="#MyriadPro-Regular-74"/><use x="908.8" xlink:href="#MyriadPro-Regular-65"/><use x="958.9" xlink:href="#MyriadPro-Regular-64"/><use x="1015.3" xlink:href="#MyriadPro-Regular-2d"/><use x="1046" xlink:href="#MyriadPro-Regular-46"/><use x="1094.7" xlink:href="#MyriadPro-Regular-6f"/><use x="1149.6" xlink:href="#MyriadPro-Regular-6e"/><use x="1205.1" xlink:href="#MyriadPro-Regular-74"/></g><g style="fill:#8c564b" transform="matrix(.14 0 0 -.14 450.31 238.209)" id="text_22"><defs><path d="M115 0h2515v448H819v13c141 160 269 313 397 486l1382 1799 7 352H243v-455h1677v-13c-141-166-269-313-403-480L115 326V0z" id="MyriadPro-Regular-7a" transform="scale(.01563)"/></defs><use xlink:href="#MyriadPro-Regular-6d"/><use x="83.4" xlink:href="#MyriadPro-Regular-6f"/><use x="138.3" xlink:href="#MyriadPro-Regular-7a"/><use x="181.1" xlink:href="#MyriadPro-Regular-69"/><use x="204.5" xlink:href="#MyriadPro-Regular-6c"/><use x="228.1" xlink:href="#MyriadPro-Regular-6c"/><use x="251.7" xlink:href="#MyriadPro-Regular-61"/><use x="299.9" xlink:href="#MyriadPro-Regular-2f"/><use x="334.2" xlink:href="#MyriadPro-Regular-46"/><use x="382.9" xlink:href="#MyriadPro-Regular-69"/><use x="406.3" xlink:href="#MyriadPro-Regular-72"/><use x="439" xlink:href="#MyriadPro-Regular-61"/></g><g style="fill:#e377c2" transform="matrix(.14 0 0 -.14 450.31 252.209)" id="text_23"><defs><path d="M115 3098 1050 0h512l499 1472c109 333 205 653 281 1024h13c77-365 167-672 275-1018L3104 0h512l998 3098h-556l-442-1556c-102-364-186-691-237-1004h-19c-70 313-160 640-275 1011l-480 1549h-474l-505-1575c-103-339-205-672-276-985h-19c-57 320-141 640-230 985L691 3098H115z" id="MyriadPro-Regular-77" transform="scale(.01563)"/></defs><use xlink:href="#MyriadPro-Regular-75"/><use x="55.1" xlink:href="#MyriadPro-Regular-73"/><use x="94.7" xlink:href="#MyriadPro-Regular-77"/><use x="168.3" xlink:href="#MyriadPro-Regular-64"/><use x="224.7" xlink:href="#MyriadPro-Regular-73"/><use x="264.3" xlink:href="#MyriadPro-Regular-2f"/><use x="298.6" xlink:href="#MyriadPro-Regular-70"/><use x="355.5" xlink:href="#MyriadPro-Regular-75"/><use x="410.6" xlink:href="#MyriadPro-Regular-62"/><use x="467.5" xlink:href="#MyriadPro-Regular-6c"/><use x="491.1" xlink:href="#MyriadPro-Regular-69"/><use x="514.5" xlink:href="#MyriadPro-Regular-63"/><use x="559.3" xlink:href="#MyriadPro-Regular-2d"/><use x="590" xlink:href="#MyriadPro-Regular-73"/><use x="629.6" xlink:href="#MyriadPro-Regular-61"/><use x="677.8" xlink:href="#MyriadPro-Regular-6e"/><use x="733.3" xlink:href="#MyriadPro-Regular-73"/></g><g style="fill:#7f7f7f" transform="matrix(.14 0 0 -.14 450.31 266.208)" id="text_24"><use xlink:href="#MyriadPro-Regular-67"/><use x="55.9" xlink:href="#MyriadPro-Regular-6f"/><use x="110.8" xlink:href="#MyriadPro-Regular-6f"/><use x="165.7" xlink:href="#MyriadPro-Regular-67"/><use x="221.6" xlink:href="#MyriadPro-Regular-6c"/><use x="245.2" xlink:href="#MyriadPro-Regular-65"/><use x="295.3" xlink:href="#MyriadPro-Regular-66"/><use x="324.5" xlink:href="#MyriadPro-Regular-6f"/><use x="379.4" xlink:href="#MyriadPro-Regular-6e"/><use x="434.9" xlink:href="#MyriadPro-Regular-74"/><use x="468" xlink:href="#MyriadPro-Regular-73"/><use x="507.6" xlink:href="#MyriadPro-Regular-2f"/><use x="541.9" xlink:href="#MyriadPro-Regular-72"/><use x="574.6" xlink:href="#MyriadPro-Regular-6f"/><use x="629.5" xlink:href="#MyriadPro-Regular-62"/><use x="686.4" xlink:href="#MyriadPro-Regular-6f"/><use x="741.3" xlink:href="#MyriadPro-Regular-74"/><use x="774.4" xlink:href="#MyriadPro-Regular-6f"/></g><g style="fill:#bcbd22" transform="matrix(.14 0 0 -.14 450.31 280.208)" id="text_25"><use xlink:href="#MyriadPro-Regular-67"/><use x="55.9" xlink:href="#MyriadPro-Regular-6f"/><use x="110.8" xlink:href="#MyriadPro-Regular-6f"/><use x="165.7" xlink:href="#MyriadPro-Regular-67"/><use x="221.6" xlink:href="#MyriadPro-Regular-6c"/><use x="245.2" xlink:href="#MyriadPro-Regular-65"/><use x="295.3" xlink:href="#MyriadPro-Regular-66"/><use x="324.5" xlink:href="#MyriadPro-Regular-6f"/><use x="379.4" xlink:href="#MyriadPro-Regular-6e"/><use x="434.9" xlink:href="#MyriadPro-Regular-74"/><use x="468" xlink:href="#MyriadPro-Regular-73"/><use x="507.6" xlink:href="#MyriadPro-Regular-2f"/><use x="541.9" xlink:href="#MyriadPro-Regular-6e"/><use x="597.4" xlink:href="#MyriadPro-Regular-6f"/><use x="652.3" xlink:href="#MyriadPro-Regular-74"/><use x="685.4" xlink:href="#MyriadPro-Regular-6f"/><use x="740.3" xlink:href="#MyriadPro-Regular-2d"/><use x="771" xlink:href="#MyriadPro-Regular-66"/><use x="800.2" xlink:href="#MyriadPro-Regular-6f"/><use x="855.1" xlink:href="#MyriadPro-Regular-6e"/><use x="910.6" xlink:href="#MyriadPro-Regular-74"/><use x="943.7" xlink:href="#MyriadPro-Regular-73"/></g><g style="fill:#17becf" transform="matrix(.14 0 0 -.14 450.31 294.209)" id="text_26"><defs><path d="M2714 1357 3174 0h596L2298 4314h-672L160 0h576l448 1357h1530zm-1415 435 423 1248c83 262 153 525 217 781h13c64-250 128-506 224-787l422-1242H1299z" id="MyriadPro-Regular-41" transform="scale(.01563)"/></defs><use xlink:href="#MyriadPro-Regular-69"/><use x="23.4" xlink:href="#MyriadPro-Regular-61"/><use x="71.6" xlink:href="#MyriadPro-Regular-6f"/><use x="126.5" xlink:href="#MyriadPro-Regular-6c"/><use x="150.1" xlink:href="#MyriadPro-Regular-6f"/><use x="205" xlink:href="#MyriadPro-Regular-2f"/><use x="239.3" xlink:href="#MyriadPro-Regular-69"/><use x="262.7" xlink:href="#MyriadPro-Regular-41"/><use x="323.9" xlink:href="#MyriadPro-Regular-2d"/><use x="354.6" xlink:href="#MyriadPro-Regular-46"/><use x="403.3" xlink:href="#MyriadPro-Regular-6f"/><use x="458.2" xlink:href="#MyriadPro-Regular-6e"/><use x="513.7" xlink:href="#MyriadPro-Regular-74"/><use x="546.8" xlink:href="#MyriadPro-Regular-73"/></g><g style="fill:#aec7e8" transform="matrix(.14 0 0 -.14 450.31 307.887)" id="text_27"><defs><path d="M83 3098 1261 0h537l1216 3098h-588l-602-1741c-102-282-192-538-262-794h-20c-64 256-147 512-249 794L685 3098H83z" id="MyriadPro-Regular-76" transform="scale(.01563)"/></defs><use xlink:href="#MyriadPro-Regular-61"/><use x="48.2" xlink:href="#MyriadPro-Regular-72"/><use x="80.9" xlink:href="#MyriadPro-Regular-72"/><use x="113.6" xlink:href="#MyriadPro-Regular-6f"/><use x="168.5" xlink:href="#MyriadPro-Regular-77"/><use x="242.1" xlink:href="#MyriadPro-Regular-74"/><use x="275.2" xlink:href="#MyriadPro-Regular-79"/><use x="322.3" xlink:href="#MyriadPro-Regular-70"/><use x="379.2" xlink:href="#MyriadPro-Regular-65"/><use x="429.3" xlink:href="#MyriadPro-Regular-2f"/><use x="463.6" xlink:href="#MyriadPro-Regular-72"/><use x="496.3" xlink:href="#MyriadPro-Regular-65"/><use x="546.4" xlink:href="#MyriadPro-Regular-63"/><use x="591.2" xlink:href="#MyriadPro-Regular-75"/><use x="646.3" xlink:href="#MyriadPro-Regular-72"/><use x="679" xlink:href="#MyriadPro-Regular-73"/><use x="718.6" xlink:href="#MyriadPro-Regular-69"/><use x="742" xlink:href="#MyriadPro-Regular-76"/><use x="790.1" xlink:href="#MyriadPro-Regular-65"/></g><g style="fill:#ffbb78" transform="matrix(.14 0 0 -.14 450.31 322.285)" id="text_28"><defs><path d="M1024 4544H467V0h557v1165l288 320L2381 0h685L1702 1824l1197 1274h-678l-909-1069c-90-109-198-243-275-352h-13v2867z" id="MyriadPro-Regular-6b" transform="scale(.01563)"/></defs><use xlink:href="#MyriadPro-Regular-61"/><use x="48.2" xlink:href="#MyriadPro-Regular-66"/><use x="77.4" xlink:href="#MyriadPro-Regular-74"/><use x="110.5" xlink:href="#MyriadPro-Regular-65"/><use x="160.6" xlink:href="#MyriadPro-Regular-72"/><use x="193.3" xlink:href="#MyriadPro-Regular-74"/><use x="226.4" xlink:href="#MyriadPro-Regular-68"/><use x="281.9" xlink:href="#MyriadPro-Regular-65"/><use x="332" xlink:href="#MyriadPro-Regular-66"/><use x="361.2" xlink:href="#MyriadPro-Regular-6c"/><use x="384.8" xlink:href="#MyriadPro-Regular-6f"/><use x="439.7" xlink:href="#MyriadPro-Regular-6f"/><use x="494.6" xlink:href="#MyriadPro-Regular-64"/><use x="551" xlink:href="#MyriadPro-Regular-2f"/><use x="585.3" xlink:href="#MyriadPro-Regular-73"/><use x="624.9" xlink:href="#MyriadPro-Regular-70"/><use x="681.8" xlink:href="#MyriadPro-Regular-61"/><use x="730" xlink:href="#MyriadPro-Regular-72"/><use x="762.7" xlink:href="#MyriadPro-Regular-6b"/><use x="809.6" xlink:href="#MyriadPro-Regular-73"/></g><g style="fill:#98df8a" transform="matrix(.14 0 0 -.14 450.31 336.285)" id="text_29"><defs><path d="M2234 4384c-1152 0-2004-896-2004-2266C230 813 1030-70 2170-70c1100 0 2003 787 2003 2272 0 1280-762 2182-1939 2182zm-26-454c928 0 1376-896 1376-1754 0-979-499-1792-1382-1792-877 0-1376 826-1376 1747 0 947 460 1799 1382 1799z" id="MyriadPro-Regular-4f" transform="scale(.01563)"/></defs><use xlink:href="#MyriadPro-Regular-52"/><use x="53.8" xlink:href="#MyriadPro-Regular-65"/><use x="103.9" xlink:href="#MyriadPro-Regular-64"/><use x="160.3" xlink:href="#MyriadPro-Regular-48"/><use x="225.5" xlink:href="#MyriadPro-Regular-61"/><use x="273.7" xlink:href="#MyriadPro-Regular-74"/><use x="306.8" xlink:href="#MyriadPro-Regular-4f"/><use x="375.7" xlink:href="#MyriadPro-Regular-66"/><use x="404.9" xlink:href="#MyriadPro-Regular-66"/><use x="434.1" xlink:href="#MyriadPro-Regular-69"/><use x="457.5" xlink:href="#MyriadPro-Regular-63"/><use x="502.3" xlink:href="#MyriadPro-Regular-69"/><use x="525.7" xlink:href="#MyriadPro-Regular-61"/><use x="573.9" xlink:href="#MyriadPro-Regular-6c"/><use x="597.5" xlink:href="#MyriadPro-Regular-2f"/><use x="631.8" xlink:href="#MyriadPro-Regular-4f"/><use x="700.7" xlink:href="#MyriadPro-Regular-76"/><use x="748.8" xlink:href="#MyriadPro-Regular-65"/><use x="798.9" xlink:href="#MyriadPro-Regular-72"/><use x="831.6" xlink:href="#MyriadPro-Regular-70"/><use x="888.5" xlink:href="#MyriadPro-Regular-61"/><use x="936.7" xlink:href="#MyriadPro-Regular-73"/><use x="976.3" xlink:href="#MyriadPro-Regular-73"/></g><g style="fill:#ff9896" transform="matrix(.14 0 0 -.14 450.31 350.209)" id="text_30"><use xlink:href="#MyriadPro-Regular-6c"/><use x="23.6" xlink:href="#MyriadPro-Regular-61"/><use x="71.8" xlink:href="#MyriadPro-Regular-72"/><use x="104.5" xlink:href="#MyriadPro-Regular-73"/><use x="144.1" xlink:href="#MyriadPro-Regular-65"/><use x="194.2" xlink:href="#MyriadPro-Regular-6e"/><use x="249.7" xlink:href="#MyriadPro-Regular-77"/><use x="323.3" xlink:href="#MyriadPro-Regular-6f"/><use x="378.2" xlink:href="#MyriadPro-Regular-72"/><use x="410.9" xlink:href="#MyriadPro-Regular-6b"/><use x="457.8" xlink:href="#MyriadPro-Regular-2f"/><use x="492.1" xlink:href="#MyriadPro-Regular-47"/><use x="556.7" xlink:href="#MyriadPro-Regular-69"/><use x="580.1" xlink:href="#MyriadPro-Regular-64"/><use x="636.5" xlink:href="#MyriadPro-Regular-6f"/><use x="691.4" xlink:href="#MyriadPro-Regular-6c"/><use x="715" xlink:href="#MyriadPro-Regular-65"/></g><g style="fill:#969696" transform="matrix(.09716 0 0 -.09716 82.476 339.092)" id="text_31"><defs><path d="M486 0h557v1728c128-32 282-38 448-38 544 0 1024 160 1319 473 217 224 332 531 332 922 0 384-140 697-377 902-256 231-659 359-1210 359-448 0-800-39-1069-84V0zm557 3859c96 26 282 45 525 45 614 0 1018-275 1018-845 0-595-410-921-1082-921-186 0-339 12-461 44v1677z" id="MyriadPro-Regular-50" transform="scale(.01563)"/><path d="M550 4800v-6400h429v6400H550z" id="MyriadPro-Regular-7c" transform="scale(.01563)"/><path d="M1011 0v1843c0 717-13 1235-45 1779l20 7c217-467 505-960 806-1440L3162 0h563v4314h-525V2509c0-672 13-1197 64-1773l-13-6c-205 441-454 896-774 1401L1094 4314H486V0h525z" id="MyriadPro-Regular-4e" transform="scale(.01563)"/><path d="M269 211C499 58 954-70 1370-70c1017 0 1510 582 1510 1248 0 633-371 985-1101 1267-595 230-857 429-857 832 0 294 224 646 812 646 391 0 679-128 820-205l153 455c-192 109-512 211-953 211-839 0-1396-499-1396-1171 0-608 436-973 1140-1223 582-224 812-454 812-857 0-435-332-736-902-736-384 0-749 128-998 281L269 211z" id="MyriadPro-Regular-53" transform="scale(.01563)"/><path d="M1165 3648c185 0 313 154 313 326 0 186-134 327-313 327s-327-147-327-327c0-172 135-326 320-326h7zm1184 0c185 0 313 154 313 326 0 186-134 327-313 327s-320-147-320-327c0-172 128-326 313-326h7zm-570-480c-857 0-1536-608-1536-1645C243 544 890-70 1728-70c749 0 1542 499 1542 1644 0 948-601 1594-1491 1594zm-13-422c666 0 928-666 928-1191 0-697-403-1203-940-1203-551 0-941 512-941 1190 0 589 288 1204 953 1204z" id="MyriadPro-Regular-f6" transform="scale(.01563)"/><path d="M3386 582c-224-108-570-179-909-179-1050 0-1658 679-1658 1735 0 1132 672 1779 1683 1779 359 0 660-77 871-179l134 454c-147 77-486 192-1024 192-1337 0-2253-915-2253-2266C230 704 1146-70 2362-70c524 0 934 108 1139 211l-115 441z" id="MyriadPro-Regular-43" transform="scale(.01563)"/><path d="M2010 0v1837l1446 2477h-634l-620-1191c-167-326-314-608-436-889h-12c-135 300-263 563-429 889L717 4314H83l1363-2484V0h564z" id="MyriadPro-Regular-59" transform="scale(.01563)"/></defs><use xlink:href="#MyriadPro-Regular-47"/><use x="64.6" xlink:href="#MyriadPro-Regular-69"/><use x="88" xlink:href="#MyriadPro-Regular-74"/><use x="121.1" xlink:href="#MyriadPro-Regular-48"/><use x="186.3" xlink:href="#MyriadPro-Regular-75"/><use x="241.4" xlink:href="#MyriadPro-Regular-62"/><use x="298.3" xlink:href="#MyriadPro-Regular-20"/><use x="319.5" xlink:href="#MyriadPro-Regular-41"/><use x="380.7" xlink:href="#MyriadPro-Regular-50"/><use x="433.9" xlink:href="#MyriadPro-Regular-49"/><use x="457.8" xlink:href="#MyriadPro-Regular-20"/><use x="479" xlink:href="#MyriadPro-Regular-76"/><use x="527.1" xlink:href="#MyriadPro-Regular-69"/><use x="550.5" xlink:href="#MyriadPro-Regular-61"/><use x="598.7" xlink:href="#MyriadPro-Regular-20"/><use x="619.9" xlink:href="#MyriadPro-Regular-73"/><use x="659.5" xlink:href="#MyriadPro-Regular-74"/><use x="692.6" xlink:href="#MyriadPro-Regular-61"/><use x="740.8" xlink:href="#MyriadPro-Regular-72"/><use x="773.5" xlink:href="#MyriadPro-Regular-67"/><use x="829.4" xlink:href="#MyriadPro-Regular-72"/><use x="862.1" xlink:href="#MyriadPro-Regular-61"/><use x="910.3" xlink:href="#MyriadPro-Regular-70"/><use x="967.2" xlink:href="#MyriadPro-Regular-68"/><use x="1022.7" xlink:href="#MyriadPro-Regular-20"/><use x="1043.9" xlink:href="#MyriadPro-Regular-7c"/><use x="1067.8" xlink:href="#MyriadPro-Regular-20"/><use x="1089" xlink:href="#MyriadPro-Regular-4e"/><use x="1154.8" xlink:href="#MyriadPro-Regular-69"/><use x="1178.2" xlink:href="#MyriadPro-Regular-63"/><use x="1223" xlink:href="#MyriadPro-Regular-6f"/><use x="1277.9" xlink:href="#MyriadPro-Regular-20"/><use x="1299.1" xlink:href="#MyriadPro-Regular-53"/><use x="1348.4" xlink:href="#MyriadPro-Regular-63"/><use x="1393.2" xlink:href="#MyriadPro-Regular-68"/><use x="1448.7" xlink:href="#MyriadPro-Regular-6c"/><use x="1472.3" xlink:href="#MyriadPro-Regular-f6"/><use x="1527.2" xlink:href="#MyriadPro-Regular-6d"/><use x="1610.6" xlink:href="#MyriadPro-Regular-65"/><use x="1660.7" xlink:href="#MyriadPro-Regular-72"/><use x="1693.4" xlink:href="#MyriadPro-Regular-20"/><use x="1714.6" xlink:href="#MyriadPro-Regular-7c"/><use x="1738.5" xlink:href="#MyriadPro-Regular-20"/><use x="1759.7" xlink:href="#MyriadPro-Regular-43"/><use x="1817.7" xlink:href="#MyriadPro-Regular-43"/><use x="1875.7" xlink:href="#MyriadPro-Regular-20"/><use x="1896.9" xlink:href="#MyriadPro-Regular-42"/><use x="1951.1" xlink:href="#MyriadPro-Regular-59"/></g><path clip-path="url(#pdfefef9693)" d="m333.97 305.194 3.352-.009h3.465l3.354-.009 3.465-.086 3.465-.25 3.353-.647 3.465-.19 3.353-4 3.465-.733 3.465-.767 3.242-.32 3.465-.284 3.353-.647 3.465-.698 3.353-.233 3.465-2.302 3.465-.974 3.353-.362 3.466-.587 3.353-.276 3.465-.44 3.465-.732 3.13-.552 3.464-.517 3.354-.285 3.465-.37 3.353-.311 3.465-.19 3.465-.414 3.353-.38 3.465-.266" style="fill:none;stroke:#aec7e8;stroke-linecap:square;stroke-width:1.5" id="line2d_26"/><path clip-path="url(#pdfefef9693)" d="m276.293 305.194 3.354-3.268 3.465-.837 3.465-.353 3.13-.216 3.464-.207 3.354-.146 3.465-.138 3.353-.198 3.465-.13 3.465-.095 3.353-.094 3.465-.207 3.353-.095 3.465-1.914 3.466-.958 3.13-.456 3.464-.173 3.353-.284 3.465-.268 3.354-.336 3.465-.181 3.465-.173 3.353-.155 3.465-.37 3.353-.19 3.465-.242 3.465-.276 3.242-.086 3.465-.258 3.353-.345 3.465-.276 3.353-.285 3.465-.302 3.465-.215 3.353-.31 3.466-.345 3.353-.294 3.465-.379 3.465-.353 3.13-.639 3.464-.491 3.354-.388 3.465-.259 3.353-.233 3.465-.396 3.465-.224 3.353-.207 3.465-.285" style="fill:none;stroke:#17becf;stroke-linecap:square;stroke-width:1.5" id="line2d_27"/><path clip-path="url(#pdfefef9693)" d="m177.485 305.194 3.353-.207 3.465-.285 3.465-.215 3.353-.268 3.465-.284 3.353-.12 3.465-.329 3.465-.18 3.242-.121 3.465-.285 3.353-.164 3.465-.138 3.353-.44 3.465-.163 3.465-.164 3.354-.138 3.465-3.561 3.353-.31 3.465-.199 3.465-.172 3.13-.13 3.465-.086 3.353-.491 3.465-.19 3.353-.138 3.465-.13 3.465-.198 3.353-.163 3.465-.19 3.354-.293 3.465-.164 3.465-.259 3.13-.146 3.464-.181 3.354-.121 3.465-.25 3.353-.147 3.465-.18 3.465-.19 3.353-.25 3.465-.147 3.353-.181 3.465-.293 3.466-.225 3.13-.24 3.464-.303 3.353-.086 3.465-.207 3.354-.138 3.465-.207 3.465-.18 3.353-.104 3.465-.164 3.353-.181 3.465-.199 3.465-.146 3.242-.155 3.465-.112 3.353-.225 3.465-.207 3.353-.215 3.465-.112 3.465-.147 3.353-.276 3.466-.207 3.353-.215 3.465-.233 3.465-.103 3.13-.233 3.464-.207 3.354-.216 3.465-.233 3.353-.19 3.465-.094 3.465-.13 3.353-.215 3.465-.172" style="fill:none;stroke:#bcbd22;stroke-linecap:square;stroke-width:1.5" id="line2d_28"/><path clip-path="url(#pdfefef9693)" d="m170.666 305.194 3.354-.018 3.465-11.588 3.353-2.552 3.465-.526 3.465-.268 3.353-.465 3.465-.293 3.353-.414 3.465-.38 3.465-.43 3.242-.285 3.465-.362 3.353-.242 3.465-.241 3.353-.38 3.465-.44 3.465-.387 3.354-.32 3.465-.344 3.353-.32 3.465-.361 3.465-.285 3.13-.38 3.465-.284 3.353-.31 3.465-.328 3.353-.345 3.465-.284 3.465-.25 3.353-.216 3.465-.319 3.354-.164 3.465-.207 3.465-.215 3.13-.19 3.464-.31 3.354-.233 3.465-.242 3.353-.224 3.465-.207 3.465-.198 3.353-.155 3.465-.207 3.353-.207 3.465-.147 3.466-.198 3.13-.155 3.464-.207 3.353-.267 3.465-.138 3.354-.104 3.465-.172 3.465-.19 3.353-.138 3.465-.216 3.353-.215 3.465-.155 3.465-.13 3.242-.155 3.465-.233 3.353-.215 3.465-.155 3.353-.181 3.465-.104 3.465-.138 3.353-.069 3.466-.103 3.353-.06 3.465-.113 3.465-.155 3.13-.043 3.464-.043 3.354-.138 3.465-.164 3.353-.103 3.465-.095 3.465-.121 3.353-.086 3.465-.104" style="fill:none;stroke:#7f7f7f;stroke-linecap:square;stroke-width:1.5" id="line2d_29"/><path clip-path="url(#pdfefef9693)" d="m235.496 305.194 3.353-.043 3.465-.01h3.465l3.13-.008 3.465-.034 3.353-.009 3.465-.026h10.283l3.353-.008h3.465l3.354-.018 3.465-.025 3.465-.044 3.13-.051 3.464-.009h10.172l3.465-.017 3.465-.043 3.353-.009 3.465-.052 3.353-.069 3.465-.025 3.466-.052 3.13-.017 3.464-.026 3.353-27.075 3.465-1.336 3.354-.44 3.465-.336 3.465-.216 3.353-.379 3.465-.224 3.353-.31 3.465-.225 3.465-.258 3.242-.328 3.465-.147 3.353-.232 3.465-.181 3.353-.19 3.465-.224 3.465-.233 3.353-.19 3.466-.13 3.353-.103 3.465-.172 3.465-.104 3.13-.19 3.464-.163 3.354-.155 3.465-.19 3.353-.13 3.465-.25 3.465-.172 3.353-.112 3.465-.112" style="fill:none;stroke:#e377c2;stroke-linecap:square;stroke-width:1.5" id="line2d_30"/><path clip-path="url(#pdfefef9693)" d="m106.172 305.194 3.354-4.087 3.465-.837 3.353-.103 3.465-.112 3.465-.216 3.13-.302 3.465-.12 3.353-.104 3.465-1.302 3.353-.655 3.465-.604 3.465-.19 3.353-.361 3.465-.233 3.354-.293 3.465-.242 3.465-.293 3.13-.448 3.464-.388 3.354-.449 3.465-.741 3.353-1.07 3.465-.543 3.465-.517 3.353-.742 3.465-.594 3.353-.69 3.465-.785 3.465-.914 3.242-1.009 3.465-.68 3.353-.57 3.465-.397 3.353-.508 3.465-.837 3.465-.56 3.354-.457 3.465-.517 3.353-.44 3.465-.457 3.465-.673 3.13-.63 3.465-.62 3.353-.328 3.465-.319 3.353-.353 3.465-.405 3.465-.431 3.353-.397 3.465-.302 3.354-.37 3.465-.294 3.465-.215 3.13-.354 3.464-.293 3.354-.397 3.465-.457 3.353-.284 3.465-.302 3.465-.241 3.353-.138 3.465-.328 3.353-.276 3.465-.259 3.466-.405 3.13-.267 3.464-.259 3.353-.44 3.465-.224 3.354-.258 3.465-.19 3.465-.267 3.353-.371 3.465-.293 3.353-.216 3.465-.207 3.465-.25 3.242-.215 3.465-.276 3.353-.32 3.465-.25 3.353-.232 3.465-.164 3.465-.13 3.353-.155 3.466-.172 3.353-.172 3.465-.156 3.465-.215 3.13-.164 3.464-.19 3.354-.13 3.465-.18 3.353-.198 3.465-.138 3.465-.156 3.353-.077 3.465-.138" style="fill:none;stroke:#8c564b;stroke-linecap:square;stroke-width:1.5" id="line2d_31"/><path clip-path="url(#pdfefef9693)" d="m82.476 305.194 3.13-10.882 3.465-2.612 3.353-.475 3.465-.569 3.353-.155 3.465-2.216 3.465-.198 3.354-.112 3.465-.216 3.353-.095 3.465-.103 3.465-.13 3.13-.137 3.465-.38 3.353-.241 3.465-.207 3.353-.13 3.465-1.5 3.465-.276 3.353-.138 3.465-.215 3.354-.147 3.465-.138 3.465-8.674 3.13-.672 3.464-.587 3.354-.241 3.465-.155 3.353-.156 3.465-.215 3.465-.207 3.353-.336 3.465-.147 3.353-.164 3.465-.163 3.465-.173 3.242-.172 3.465-.199 3.353-.293 3.465-.94 3.353-.31 3.465-.19 3.465-.207 3.354-.25 3.465-.112 3.353-.103 3.465-.078 3.465-.103 3.13-.13 3.465-.198 3.353-.12 3.465-.147 3.353-.112 3.465-.13 3.465-.19 3.353-.12 3.465-.242 3.354-.138 3.465-.232 3.465-.138 3.13-.13 3.464-.163 3.354-.216 3.465-.078 3.353-.103 3.465-.043 3.465-.112 3.353-.13 3.465-.163 3.353-.087 3.465-.12 3.466-.087 3.13-.06 3.464-.172 3.353-.095 3.465-.078 3.354-.078 3.465-.06 3.465-.086 3.353-.07 3.465-.05 3.353-.061 3.465-.06 3.465-.035 3.242-.043 3.465-.086 3.353-.406 3.465-.258 3.353-.095 3.465-.043 3.465-.043 3.353-.07 3.466-.146 3.353-.241 3.465-.087 3.465-.198 3.13-.12 3.464-.104 3.354-.112 3.465-.224 3.353-.043 3.465-1.061 3.465-.319 3.353-.06 3.465-.078" style="fill:none;stroke:#9467bd;stroke-linecap:square;stroke-width:1.5" id="line2d_32"/><path clip-path="url(#pdfefef9693)" d="m272.828 305.194 3.465-.518 3.354-9.433 3.465-1.198 3.465-1.035 3.13-.741 3.464-5.243 3.354-2.302 3.465-1.285 3.353-.87 3.465-.613 3.465-.974 3.353-.897 3.465-.836 3.353-.948 3.465-.845 3.466-.958 3.13-.75 3.464-.974 3.353-1.181 3.465-.88 3.354-.69 3.465-.741 3.465-1.035 3.353-1.052 3.465-.853 3.353-.664 3.465-.742 3.465-.75 3.242-.828 3.465-.69 3.353-.948 3.465-.905 3.353-1.147 3.465-1.026 3.465-.802 3.353-.767 3.466-.483 3.353-.785 3.465-.707 3.465-.603 3.13-.647 3.464-.595 3.354-.716 3.465-.88 3.353-.629 3.465-5.466 3.465-1.578 3.353-.81 3.465-.846" style="fill:none;stroke:#d62728;stroke-linecap:square;stroke-width:1.5" id="line2d_33"/><path clip-path="url(#pdfefef9693)" d="m266.01 305.194 3.465-23.013 3.353-3.234 3.465-3.242 3.354-2.104 3.465-.94 3.465-.715 3.13-.69 3.464-.716 3.354-.413 3.465-.423 3.353-.88 3.465-.379 3.465-.897 3.353-1.37 3.465-1.208 3.353-1.483 3.465-5.578 3.466-5.872 3.13-16.745 3.464-1.336 3.353-1.639 3.465-1.215 3.354-.88 3.465-.905 3.465-3.311 3.353-1.466 3.465-1.164 3.353-1.19 3.465-1.388 3.465-1.681 3.242-1.225 3.465-1.862 3.353-1.354 3.465-1.362 3.353-1.233 3.465-1.121 3.465-1.578 3.353-.94 3.466-.853 3.353-1.027 3.465-.93 3.465-1.139 3.13-.776 3.464-3.363 3.354-1.664 3.465-1.181 3.353-1.242 3.465-1.724 3.465-1.233 3.353-.699 3.465-1.069" style="fill:none;stroke:#2ca02c;stroke-linecap:square;stroke-width:1.5" id="line2d_34"/><path clip-path="url(#pdfefef9693)" d="m164.072 305.194 3.13-.009 3.464-24.237 3.354-2.027 3.465-2.017 3.353-2.294 3.465-2.345 3.465-1.975 3.353-2.595 3.465-2.043 3.353-1.846 3.465-1.88 3.465-2.388 3.242-2.302 3.465-2.56 3.353-2.268 3.465-1.854 3.353-2.078 3.465-1.906 3.465-1.62 3.354-1.277 3.465-1.354 3.353-1.491 3.465-1.371 3.465-1.371 3.13-1.345 3.465-1.535 3.353-1.216 3.465-1.423 3.353-.974 3.465-1.285 3.465-1.603 3.353-1.138 3.465-1.535 3.354-1.302 3.465-1.199 3.465-1.103 3.13-1.156 3.464-1.164 3.354-1.405 3.465-1.544 3.353-1.172 3.465-1.207 3.465-1.095 3.353-1.121 3.465-1.07 3.353-1.034 3.465-1.233 3.466-1.535 3.13-1.12 3.464-1.32 3.353-1.302 3.465-1.06 3.354-1.027 3.465-.991 3.465-1.052 3.353-.983 3.465-1.018 3.353-.698 3.465-.75 3.465-.638 3.242-.854 3.465-.81 3.353-.949 3.465-1.112 3.353-.862 3.465-1.018 3.465-.68 3.353-.794 3.466-.837 3.353-.707 3.465-.896 3.465-.794 3.13-.758 3.464-.802 3.354-.906 3.465-.853 3.353-.716 3.465-.698 3.465-.707 3.353-.69 3.465-.862" style="fill:none;stroke:#ff7f0e;stroke-linecap:square;stroke-width:1.5" id="line2d_35"/><path clip-path="url(#pdfefef9693)" d="m157.142 305.194 3.465-.018 3.465-.008 3.13-.052 3.464-.026 3.354-.069 3.465-.026 3.353-.034 3.465-.216 3.465-.44 3.353-.413 3.465-.423 3.353-.81 3.465-.5 3.465-.457 3.242-.578 3.465-14.718 3.353-1.225 3.465-.957 3.353-.767 3.465-.81 3.465-1.001 3.354-.948 3.465-.871 3.353-.828 3.465-1.224 3.465-1.19 3.13-1.561 3.465-1.776 3.353-1.94 3.465-1.604 3.353-1.457 3.465-3.096 3.465-2.75 3.353-2.276 3.465-2.915 3.354-2.414 3.465-2.182 3.465-2.483 3.13-3.156 3.464-4.38 3.354-3.681 3.465-5.07 3.353-2.923 3.465-2.846 3.465-4.975 3.353-3.345 3.465-3.518 3.353-3.829 3.465-4.225 3.466-4.173 3.13-3.957 3.464-5.191 3.353-4.613 3.465-6.277 3.354-5.165 3.465-4.544 3.465-5.078 3.353-4.674 3.465-5.57 3.353-5.889 3.465-4.052 3.465-4.915 3.242-5.337 3.465-4.941 3.353-5.743 3.465-6.622 3.353-5.147 3.465-5.13 3.465-4.312 3.353-4.802 3.466-4.286 3.353-5.07 3.465-5.182 3.465-5.121 3.13-4.69 3.464-5.217 3.354-4.967 3.465-4.76 3.353-4.38 3.465-4.302 3.465-5.001 3.353-4.846 3.465-5.147" style="fill:none;stroke:#1f77b4;stroke-linecap:square;stroke-width:1.5" id="line2d_36"/></g></g><defs><clipPath id="pdfefef9693"><path d="M82.476 39.082h357.12v266.112H82.476z"/></clipPath></defs></svg>