<svg xmlns:xlink="http://www.w3.org/1999/xlink" width="781.682" height="440.355" viewBox="0 0 586.262 330.267" xmlns="http://www.w3.org/2000/svg"><defs><style>*{stroke-linejoin:round;stroke-linecap:butt}</style></defs><g id="figure_1"><path d="M0 330.267h586.262V0H0v330.267z" style="fill:none" id="patch_1"/><g id="axes_1"><path d="M82.476 286.74h357.12V20.626H82.476V286.74z" style="fill:none" id="patch_2"/><g id="matplotlib.axis_1"><g id="xtick_1"><g id="line2d_1"><defs><path id="mc3edb3a1fe" d="M0 0v3.5" style="stroke:#969696;stroke-width:.4"/></defs><use xlink:href="#mc3edb3a1fe" x="128.516" y="286.739" style="fill:#969696;stroke:#969696;stroke-width:.4"/></g><g style="fill:#969696" transform="matrix(.14 0 0 -.14 114.153 303.68)" id="text_1"><defs><path id="MyriadPro-Regular-32" d="M2944 0v467H1075v13l333 307c877 845 1434 1466 1434 2234 0 595-378 1209-1274 1209-480 0-890-179-1178-422l180-397c192 160 505 352 883 352 621 0 825-390 825-813-6-627-486-1164-1548-2176L288 346V0h2656z" transform="scale(.01563)"/><path id="MyriadPro-Regular-30" d="M1677 4230c-845 0-1447-768-1447-2163C243 691 794-70 1606-70c922 0 1447 780 1447 2195 0 1325-499 2105-1376 2105zm-32-435c582 0 845-672 845-1696 0-1062-276-1734-852-1734-512 0-844 614-844 1696 0 1133 358 1734 851 1734z" transform="scale(.01563)"/><path id="MyriadPro-Regular-31" d="M1510 0h544v4160h-480l-908-486 108-429 724 390h12V0z" transform="scale(.01563)"/></defs><use xlink:href="#MyriadPro-Regular-32"/><use xlink:href="#MyriadPro-Regular-30" x="51.3"/><use xlink:href="#MyriadPro-Regular-31" x="102.6"/><use xlink:href="#MyriadPro-Regular-32" x="153.9"/></g></g><g id="xtick_2"><use xlink:href="#mc3edb3a1fe" x="193.487" y="286.739" style="fill:#969696;stroke:#969696;stroke-width:.4" id="line2d_2"/><g style="fill:#969696" transform="matrix(.14 0 0 -.14 179.124 303.68)" id="text_2"><defs><path id="MyriadPro-Regular-34" d="M2560 0v1133h582v441h-582v2586h-608L96 1504v-371h1933V0h531zM666 1574v13l1017 1415c115 192 218 371 346 614h19c-13-218-19-435-19-653V1574H666z" transform="scale(.01563)"/></defs><use xlink:href="#MyriadPro-Regular-32"/><use xlink:href="#MyriadPro-Regular-30" x="51.3"/><use xlink:href="#MyriadPro-Regular-31" x="102.6"/><use xlink:href="#MyriadPro-Regular-34" x="153.9"/></g></g><g id="xtick_3"><use xlink:href="#mc3edb3a1fe" x="258.37" y="286.739" style="fill:#969696;stroke:#969696;stroke-width:.4" id="line2d_3"/><g style="fill:#969696" transform="matrix(.14 0 0 -.14 244.007 303.68)" id="text_3"><defs><path id="MyriadPro-Regular-36" d="M2662 4224c-102 0-243-6-409-32-525-64-986-275-1331-614-410-410-704-1056-704-1876C218 621 800-70 1690-70c864 0 1382 704 1382 1465 0 813-518 1344-1254 1344-461 0-807-217-1005-480h-19c96 685 563 1331 1446 1479 160 25 307 32 422 25v461zM1690 365c-589 0-903 505-916 1190 0 103 26 186 64 250 154 301 468 512 807 512 518 0 857-359 857-954s-326-998-806-998h-6z" transform="scale(.01563)"/></defs><use xlink:href="#MyriadPro-Regular-32"/><use xlink:href="#MyriadPro-Regular-30" x="51.3"/><use xlink:href="#MyriadPro-Regular-31" x="102.6"/><use xlink:href="#MyriadPro-Regular-36" x="153.9"/></g></g><g id="xtick_4"><use xlink:href="#mc3edb3a1fe" x="323.341" y="286.739" style="fill:#969696;stroke:#969696;stroke-width:.4" id="line2d_4"/><g style="fill:#969696" transform="matrix(.14 0 0 -.14 308.978 303.68)" id="text_4"><defs><path id="MyriadPro-Regular-38" d="M1062 2170c-512-218-825-589-825-1114C237 448 762-70 1632-70c794 0 1414 486 1414 1209 0 506-320 871-838 1075v20c512 243 685 620 685 972 0 519-403 1024-1210 1024-729 0-1286-448-1286-1107 0-358 198-717 659-934l6-19zm583-1831c-531 0-851 371-832 794 0 397 262 717 749 857 563-160 915-403 915-908 0-423-327-743-832-743zm6 3488c506 0 704-345 704-678 0-378-275-634-633-755-480 128-794 352-794 768 0 358 256 665 723 665z" transform="scale(.01563)"/></defs><use xlink:href="#MyriadPro-Regular-32"/><use xlink:href="#MyriadPro-Regular-30" x="51.3"/><use xlink:href="#MyriadPro-Regular-31" x="102.6"/><use xlink:href="#MyriadPro-Regular-38" x="153.9"/></g></g><g id="xtick_5"><use xlink:href="#mc3edb3a1fe" x="388.224" y="286.739" style="fill:#969696;stroke:#969696;stroke-width:.4" id="line2d_5"/><g style="fill:#969696" transform="matrix(.14 0 0 -.14 373.86 303.68)" id="text_5"><use xlink:href="#MyriadPro-Regular-32"/><use xlink:href="#MyriadPro-Regular-30" x="51.3"/><use xlink:href="#MyriadPro-Regular-32" x="102.6"/><use xlink:href="#MyriadPro-Regular-30" x="153.9"/></g></g></g><g id="matplotlib.axis_2"><g id="ytick_1"><path d="M82.476 286.74h357.12" clip-path="url(#p6bd202b441)" style="fill:none;stroke:#969696;stroke-width:.3;stroke-linecap:square" id="line2d_6"/><g id="line2d_7"><defs><path id="m8fdb0a9577" d="M0 0h-3.5" style="stroke:#969696;stroke-width:.3"/></defs><use xlink:href="#m8fdb0a9577" x="82.476" y="286.739" style="fill:#969696;stroke:#969696;stroke-width:.3"/></g><use xlink:href="#MyriadPro-Regular-30" style="fill:#969696" transform="matrix(.14 0 0 -.14 68.295 291.71)" id="text_6"/></g><g id="ytick_2"><path d="M82.476 238.696h357.12" clip-path="url(#p6bd202b441)" style="fill:none;stroke:#969696;stroke-width:.3;stroke-linecap:square" id="line2d_8"/><use xlink:href="#m8fdb0a9577" x="82.476" y="238.696" style="fill:#969696;stroke:#969696;stroke-width:.3" id="line2d_9"/><g style="fill:#969696" transform="matrix(.14 0 0 -.14 46.75 243.666)" id="text_7"><use xlink:href="#MyriadPro-Regular-32"/><use xlink:href="#MyriadPro-Regular-30" x="51.3"/><use xlink:href="#MyriadPro-Regular-30" x="102.6"/><use xlink:href="#MyriadPro-Regular-30" x="153.9"/></g></g><g id="ytick_3"><path d="M82.476 190.653h357.12" clip-path="url(#p6bd202b441)" style="fill:none;stroke:#969696;stroke-width:.3;stroke-linecap:square" id="line2d_10"/><use xlink:href="#m8fdb0a9577" x="82.476" y="190.653" style="fill:#969696;stroke:#969696;stroke-width:.3" id="line2d_11"/><g style="fill:#969696" transform="matrix(.14 0 0 -.14 46.75 195.623)" id="text_8"><use xlink:href="#MyriadPro-Regular-34"/><use xlink:href="#MyriadPro-Regular-30" x="51.3"/><use xlink:href="#MyriadPro-Regular-30" x="102.6"/><use xlink:href="#MyriadPro-Regular-30" x="153.9"/></g></g><g id="ytick_4"><path d="M82.476 142.61h357.12" clip-path="url(#p6bd202b441)" style="fill:none;stroke:#969696;stroke-width:.3;stroke-linecap:square" id="line2d_12"/><use xlink:href="#m8fdb0a9577" x="82.476" y="142.609" style="fill:#969696;stroke:#969696;stroke-width:.3" id="line2d_13"/><g style="fill:#969696" transform="matrix(.14 0 0 -.14 46.75 147.58)" id="text_9"><use xlink:href="#MyriadPro-Regular-36"/><use xlink:href="#MyriadPro-Regular-30" x="51.3"/><use xlink:href="#MyriadPro-Regular-30" x="102.6"/><use xlink:href="#MyriadPro-Regular-30" x="153.9"/></g></g><g id="ytick_5"><path d="M82.476 94.566h357.12" clip-path="url(#p6bd202b441)" style="fill:none;stroke:#969696;stroke-width:.3;stroke-linecap:square" id="line2d_14"/><use xlink:href="#m8fdb0a9577" x="82.476" y="94.566" style="fill:#969696;stroke:#969696;stroke-width:.3" id="line2d_15"/><g style="fill:#969696" transform="matrix(.14 0 0 -.14 46.75 99.536)" id="text_10"><use xlink:href="#MyriadPro-Regular-38"/><use xlink:href="#MyriadPro-Regular-30" x="51.3"/><use xlink:href="#MyriadPro-Regular-30" x="102.6"/><use xlink:href="#MyriadPro-Regular-30" x="153.9"/></g></g><g id="ytick_6"><path d="M82.476 46.523h357.12" clip-path="url(#p6bd202b441)" style="fill:none;stroke:#969696;stroke-width:.3;stroke-linecap:square" id="line2d_16"/><use xlink:href="#m8fdb0a9577" x="82.476" y="46.523" style="fill:#969696;stroke:#969696;stroke-width:.3" id="line2d_17"/><g style="fill:#969696" transform="matrix(.14 0 0 -.14 39.568 51.493)" id="text_11"><use xlink:href="#MyriadPro-Regular-31"/><use xlink:href="#MyriadPro-Regular-30" x="51.3"/><use xlink:href="#MyriadPro-Regular-30" x="102.6"/><use xlink:href="#MyriadPro-Regular-30" x="153.9"/><use xlink:href="#MyriadPro-Regular-30" x="205.2"/></g></g><g style="fill:#969696" transform="matrix(.14 0 0 -.14 7.2 17.14)" id="text_12"><defs><path id="MyriadPro-Regular-47" d="M3770 2266H2349v-448h877V531c-128-64-378-115-743-115-1005 0-1664 646-1664 1741 0 1081 685 1734 1735 1734 435 0 723-83 953-185l135 454c-186 90-576 198-1076 198-1446 0-2329-940-2336-2227 0-672 231-1248 602-1606 422-403 960-570 1613-570 582 0 1075 147 1325 237v2074z" transform="scale(.01563)"/><path id="MyriadPro-Regular-69" d="M1030 0v3098H467V0h563zM749 4320c-205 0-352-154-352-352 0-192 141-346 339-346 224 0 365 154 358 346 0 198-134 352-345 352z" transform="scale(.01563)"/><path id="MyriadPro-Regular-74" d="M595 3667v-569H115v-429h480V979c0-365 58-640 218-806C947 19 1158-70 1421-70c217 0 390 38 499 83l-26 422c-83-25-172-38-326-38-314 0-422 217-422 601v1671h806v429h-806v742l-551-173z" transform="scale(.01563)"/><path id="MyriadPro-Regular-48" d="M486 4314V0h557v2022h2087V0h563v4314h-563V2509H1043v1805H486z" transform="scale(.01563)"/><path id="MyriadPro-Regular-75" d="M3059 3098h-563V1197c0-103-19-205-51-288-103-250-365-512-743-512-512 0-691 397-691 985v1716H448V1286C448 198 1030-70 1517-70c550 0 877 326 1024 576h13l32-506h499c-19 243-26 525-26 845v2253z" transform="scale(.01563)"/><path id="MyriadPro-Regular-62" d="M467 800c0-275-13-589-25-800h486l26 512h19c230-410 589-582 1037-582 691 0 1388 550 1388 1657 7 941-537 1581-1305 1581-499 0-858-224-1056-570h-13v1946H467V800zm557 998c0 90 19 167 32 231 115 429 474 691 858 691 601 0 921-531 921-1152 0-710-352-1190-941-1190-409 0-736 268-844 659-13 64-26 134-26 205v556z" transform="scale(.01563)"/><path id="MyriadPro-Regular-73" d="M250 147C467 19 781-70 1120-70c736 0 1158 390 1158 934 0 461-275 730-812 934-404 154-589 269-589 525 0 231 185 423 518 423 288 0 512-103 634-180l141 410c-173 102-448 192-762 192-666 0-1069-410-1069-909 0-371 263-678 819-877 416-153 576-300 576-569 0-256-192-461-601-461-282 0-576 115-743 224L250 147z" transform="scale(.01563)"/><path id="MyriadPro-Regular-61" d="M2643 1901c0 621-230 1267-1177 1267-391 0-762-109-1018-275l128-371c218 140 518 230 806 230 634 0 704-461 704-717v-64C890 1978 224 1568 224 819c0-448 320-889 947-889 442 0 775 217 947 460h20l44-390h512c-38 211-51 474-51 742v1159zm-544-858c0-57-13-121-32-179-89-262-345-518-749-518-288 0-531 172-531 537 0 602 698 711 1312 698v-538z" transform="scale(.01563)"/><path id="MyriadPro-Regular-72" d="M467 0h557v1651c0 96 13 186 26 263 76 422 358 723 755 723 77 0 134-7 192-19v531c-51 13-96 19-160 19-378 0-717-262-858-678h-25l-20 608H442c19-288 25-602 25-967V0z" transform="scale(.01563)"/></defs><use xlink:href="#MyriadPro-Regular-47"/><use xlink:href="#MyriadPro-Regular-69" x="64.6"/><use xlink:href="#MyriadPro-Regular-74" x="88"/><use xlink:href="#MyriadPro-Regular-48" x="121.1"/><use xlink:href="#MyriadPro-Regular-75" x="186.3"/><use xlink:href="#MyriadPro-Regular-62" x="241.4"/><use xlink:href="#MyriadPro-Regular-20" x="298.3"/><use xlink:href="#MyriadPro-Regular-73" x="319.5"/><use xlink:href="#MyriadPro-Regular-74" x="359.1"/><use xlink:href="#MyriadPro-Regular-61" x="392.2"/><use xlink:href="#MyriadPro-Regular-72" x="440.4"/><use xlink:href="#MyriadPro-Regular-73" x="473.1"/></g></g><path d="m304.32 286.74 2.667-.673 2.756-.24 2.755-.097 2.666-2.57 2.755-.456 2.667-.48 2.755-.24 2.755-.962 2.49-.48 2.754-.24 2.667-.36 2.755-.289 2.666-.336 2.756-.168 2.755-.265 2.666-.36 2.756-.577 2.666-.384 2.755-.672 2.756-.289 2.488-.696 2.756-.409 2.666-.24 2.755-.24 2.667-.433 2.755-.432 2.755-.576 2.667-.721 2.755-.553 2.666-.36 2.756-.216 2.755-.144 2.577-1.898 2.756-.817 2.666-.168 2.755-.216 2.667-.264 2.755-.096 2.755-.193 2.667-.312 2.755-.168 2.666-.336 2.756-.433 2.755-.6 2.489-.577 2.755-1.009 2.666-1.513 2.756-1.25 2.666-1.464 2.755-.77" clip-path="url(#p6bd202b441)" style="fill:none;stroke:#ffbb78;stroke-width:1.5;stroke-linecap:square" id="line2d_18"/><path d="m166.29 286.74 2.755-.097 2.667-.168 2.755-.048h2.666l2.756-.072 2.755-.048 2.666-.024 2.756-.048 2.666-.048 2.755-.048 2.756-.024 2.488-.096 2.756-.096 2.666-.12 2.755-.097 2.667-.072 2.755-.048h2.755l2.667-.144 2.755-.168 2.666-.048 2.756-.096 2.755-.072 2.489-.072 2.755-.264 2.666-.433 2.756-.264 2.666-.216 2.755-.168 2.755-.048 2.667-.169 2.755-.36 2.667-.288 2.755-.192 2.755-.144 2.578-.169 2.755-.168 2.666-.216 2.756-.24 2.666-.072 2.755-.144 2.756-1.394 2.666-.408 2.755-.264 2.667-.337 2.755-.288 2.755-.48 2.489-.745 2.755-.456 2.667-.48 2.755-.697 2.666-.433 2.756-.384 2.755-.6 2.666-.409 2.755-.649 2.667-.768 2.755-.937 2.755-.529 2.49-.504 2.754-.697 2.667-.744 2.755-.48 2.666-.457 2.756-.48 2.755-.53 2.666-.456 2.756-.48 2.666-.697 2.755-.624 2.756-.553 2.488-.744 2.756-.769 2.666-.817 2.755-.456 2.667-.649 2.755-.672 2.755-.673 2.667-.528 2.755-.649 2.666-1.009 2.756-.889 2.755-.72 2.577-1.033 2.756-.745 2.666-1.49 2.755-1.44 2.667-1.034 2.755-.888 2.755-1.081 2.667-.985 2.755-.89 2.666-1.416 2.756-1.442 2.755-.936 2.489-1.178 2.755-1.225 2.666-1.08 2.756-1.034 2.666-.888 2.755-1.658" clip-path="url(#p6bd202b441)" style="fill:none;stroke:#aec7e8;stroke-width:1.5;stroke-linecap:square" id="line2d_19"/><path d="m171.712 286.74 2.755-.073 2.666-.192 2.756-.096 2.755-.048 2.666-.072 2.756-.12 2.666-.264 2.755-.24 2.756-.313 2.488-.336 2.756-.312 2.666-.289 2.755-.408 2.667-.144 2.755-.337 2.755-.144 2.667-.216 2.755-.384 2.666-.409 2.756-.288 2.755-.192 2.489-.36 2.755-.385 2.666-.312 2.756-.504 2.666-.48 2.755-.53 2.755-.432 2.667-.312 2.755-.24 2.667-.312 2.755-.577 2.755-.793 2.578-.24 2.755-.384 2.666-.505 2.756-.504 2.666-.385 2.755-.432 2.756-.336 2.666-.36 2.755-.289 2.667-.432 2.755-.577 2.755-.552 2.489-.529 2.755-.456 2.667-.432 2.755-.433 2.666-.432 2.756-.313 2.755-.336 2.666-.432 2.755-.457 2.667-.48 2.755-.793 2.755-.696 2.49-.697 2.754-.793 2.667-.6 2.755-.505 2.666-.768 2.756-.36 2.755-.457 2.666-.841 2.756-.408 2.666-.433 2.755-.744 2.756-.577 2.488-.432 2.756-.745 2.666-.817 2.755-.432 2.667-.48 2.755-.433 2.755-.528 2.667-.577 2.755-.576 2.666-.529 2.756-.624 2.755-1.033 2.577-.793 2.756-.961 2.666-.793 2.755-.96 2.667-1.322 2.755-1.249 2.755-.913 2.667-.96 2.755-.913 2.666-1.514 2.756-1.057 2.755-1.561 2.489-.817 2.755-1.321 2.666-1.057 2.756-.985 2.666-1.345 2.755-1.634" clip-path="url(#p6bd202b441)" style="fill:none;stroke:#17becf;stroke-width:1.5;stroke-linecap:square" id="line2d_20"/><g style="fill:#1f77b4" transform="matrix(.14 0 0 -.14 450.31 24.03)" id="text_13"><defs><path id="MyriadPro-Regular-54" d="M1306 0h563v3840h1318v474H-6v-474h1312V0z" transform="scale(.01563)"/><path id="MyriadPro-Regular-6f" d="M1779 3168c-857 0-1536-608-1536-1645C243 544 890-70 1728-70c749 0 1542 499 1542 1644 0 948-601 1594-1491 1594zm-13-422c666 0 928-666 928-1191 0-697-403-1203-940-1203-551 0-941 512-941 1190 0 589 288 1204 953 1204z" transform="scale(.01563)"/><path id="MyriadPro-Regular-6e" d="M467 0h563v1862c0 96 13 192 39 263 96 313 384 576 755 576 531 0 717-416 717-915V0h563v1850c0 1062-666 1318-1094 1318-512 0-871-288-1024-582h-13l-32 512H442c19-256 25-519 25-839V0z" transform="scale(.01563)"/><path id="MyriadPro-Regular-65" d="M2957 1446c6 58 19 148 19 263 0 569-269 1459-1280 1459-902 0-1453-736-1453-1670C243 563 813-70 1766-70c493 0 832 108 1031 198l-96 403c-211-89-455-160-858-160-563 0-1049 314-1062 1075h2176zM787 1850c45 390 295 915 864 915 634 0 787-557 781-915H787z" transform="scale(.01563)"/><path id="MyriadPro-Regular-6a" d="M-230-1350c300 0 710 102 960 352 275 281 371 672 371 1273v2823H538V493c0-743-58-992-212-1165C192-819-32-890-288-909l58-441zM826 4320c-212 0-359-154-359-352 0-186 135-346 346-346 224 0 358 160 352 346 0 198-135 352-339 352z" transform="scale(.01563)"/><path id="MyriadPro-Regular-2f" d="m422-256 1792 4640h-435L-6-256h428z" transform="scale(.01563)"/><path id="MyriadPro-Regular-2e" d="M710-70c237 0 384 172 384 403 0 237-153 403-377 403S333 570 333 333c0-231 153-403 371-403h6z" transform="scale(.01563)"/></defs><use xlink:href="#MyriadPro-Regular-54"/><use xlink:href="#MyriadPro-Regular-6f" x="49.7"/><use xlink:href="#MyriadPro-Regular-6e" x="104.6"/><use xlink:href="#MyriadPro-Regular-65" x="160.1"/><use xlink:href="#MyriadPro-Regular-6a" x="210.2"/><use xlink:href="#MyriadPro-Regular-73" x="234.5"/><use xlink:href="#MyriadPro-Regular-2f" x="274.1"/><use xlink:href="#MyriadPro-Regular-54" x="308.4"/><use xlink:href="#MyriadPro-Regular-6f" x="358.1"/><use xlink:href="#MyriadPro-Regular-6e" x="413"/><use xlink:href="#MyriadPro-Regular-65" x="468.5"/><use xlink:href="#MyriadPro-Regular-2e" x="518.6"/><use xlink:href="#MyriadPro-Regular-6a" x="539.3"/><use xlink:href="#MyriadPro-Regular-73" x="563.6"/></g><g style="fill:#ff7f0e" transform="matrix(.14 0 0 -.14 450.31 43.117)" id="text_14"><defs><path id="MyriadPro-Regular-78" d="m102 3098 1050-1517L51 0h621l448 698c115 185 224 345 326 537h13c109-185 211-358 333-537L2246 0h640L1798 1600l1056 1498h-608l-435-660c-102-166-205-326-307-512h-19c-103 173-199 333-314 506l-441 666H102z" transform="scale(.01563)"/></defs><use xlink:href="#MyriadPro-Regular-62"/><use xlink:href="#MyriadPro-Regular-65" x="56.9"/><use xlink:href="#MyriadPro-Regular-65" x="107"/><use xlink:href="#MyriadPro-Regular-74" x="157.1"/><use xlink:href="#MyriadPro-Regular-62" x="190.2"/><use xlink:href="#MyriadPro-Regular-6f" x="247.1"/><use xlink:href="#MyriadPro-Regular-78" x="302"/><use xlink:href="#MyriadPro-Regular-2f" x="348.3"/><use xlink:href="#MyriadPro-Regular-62" x="382.6"/><use xlink:href="#MyriadPro-Regular-65" x="439.5"/><use xlink:href="#MyriadPro-Regular-65" x="489.6"/><use xlink:href="#MyriadPro-Regular-74" x="539.7"/><use xlink:href="#MyriadPro-Regular-73" x="572.8"/></g><g style="fill:#2ca02c" transform="matrix(.14 0 0 -.14 450.31 83.403)" id="text_15"><defs><path id="MyriadPro-Regular-41" d="M2714 1357 3174 0h596L2298 4314h-672L160 0h576l448 1357h1530zm-1415 435 423 1248c83 262 153 525 217 781h13c64-250 128-506 224-787l422-1242H1299z" transform="scale(.01563)"/><path id="MyriadPro-Regular-64" d="M2579 4544V2694h-13c-140 250-460 474-934 474-755 0-1395-634-1389-1664C243 563 819-70 1568-70c506 0 883 262 1056 608h13l25-538h506c-19 211-26 525-26 800v3744h-563zm0-3245c0-89-6-166-25-243-103-422-448-672-826-672-608 0-915 518-915 1146 0 684 345 1196 928 1196 422 0 729-294 813-652 19-71 25-167 25-237v-538z" transform="scale(.01563)"/><path id="MyriadPro-Regular-4b" d="M486 0h557v1645l410 473L2874 0h659L1850 2483l1561 1831h-691L1402 2694c-109-140-224-294-340-460h-19v2080H486V0z" transform="scale(.01563)"/></defs><use xlink:href="#MyriadPro-Regular-41"/><use xlink:href="#MyriadPro-Regular-75" x="61.2"/><use xlink:href="#MyriadPro-Regular-64" x="116.3"/><use xlink:href="#MyriadPro-Regular-69" x="172.7"/><use xlink:href="#MyriadPro-Regular-6f" x="196.1"/><use xlink:href="#MyriadPro-Regular-4b" x="251"/><use xlink:href="#MyriadPro-Regular-69" x="305.2"/><use xlink:href="#MyriadPro-Regular-74" x="328.6"/><use xlink:href="#MyriadPro-Regular-2f" x="361.7"/><use xlink:href="#MyriadPro-Regular-41" x="396"/><use xlink:href="#MyriadPro-Regular-75" x="457.2"/><use xlink:href="#MyriadPro-Regular-64" x="512.3"/><use xlink:href="#MyriadPro-Regular-69" x="568.7"/><use xlink:href="#MyriadPro-Regular-6f" x="592.1"/><use xlink:href="#MyriadPro-Regular-4b" x="647"/><use xlink:href="#MyriadPro-Regular-69" x="701.2"/><use xlink:href="#MyriadPro-Regular-74" x="724.6"/></g><g style="fill:#d62728" transform="matrix(.14 0 0 -.14 450.31 97.403)" id="text_16"><defs><path id="MyriadPro-Regular-63" d="M2579 538c-160-71-371-154-691-154-614 0-1075 442-1075 1158 0 647 384 1172 1094 1172 307 0 519-71 653-148l128 436c-154 76-448 160-781 160-1011 0-1664-692-1664-1645C243 570 851-70 1786-70c416 0 742 108 889 185l-96 423z" transform="scale(.01563)"/><path id="MyriadPro-Regular-2d" d="M192 1939v-416h1581v416H192z" transform="scale(.01563)"/><path id="MyriadPro-Regular-70" d="M467-1267h557V416h13c185-307 544-486 953-486 730 0 1408 550 1408 1664 0 940-563 1574-1312 1574-505 0-870-224-1100-602h-13l-26 532H442c12-295 25-615 25-1012v-3353zm557 3059c0 77 19 160 38 230 109 423 468 698 852 698 595 0 921-531 921-1152 0-710-345-1197-941-1197-403 0-742 269-844 659-13 71-26 148-26 231v531z" transform="scale(.01563)"/></defs><use xlink:href="#MyriadPro-Regular-73"/><use xlink:href="#MyriadPro-Regular-6f" x="39.6"/><use xlink:href="#MyriadPro-Regular-6e" x="94.5"/><use xlink:href="#MyriadPro-Regular-69" x="150"/><use xlink:href="#MyriadPro-Regular-63" x="173.4"/><use xlink:href="#MyriadPro-Regular-2d" x="218.2"/><use xlink:href="#MyriadPro-Regular-70" x="248.9"/><use xlink:href="#MyriadPro-Regular-69" x="305.8"/><use xlink:href="#MyriadPro-Regular-2d" x="329.2"/><use xlink:href="#MyriadPro-Regular-6e" x="359.9"/><use xlink:href="#MyriadPro-Regular-65" x="415.4"/><use xlink:href="#MyriadPro-Regular-74" x="465.5"/><use xlink:href="#MyriadPro-Regular-2f" x="498.6"/><use xlink:href="#MyriadPro-Regular-73" x="532.9"/><use xlink:href="#MyriadPro-Regular-6f" x="572.5"/><use xlink:href="#MyriadPro-Regular-6e" x="627.4"/><use xlink:href="#MyriadPro-Regular-69" x="682.9"/><use xlink:href="#MyriadPro-Regular-63" x="706.3"/><use xlink:href="#MyriadPro-Regular-2d" x="751.1"/><use xlink:href="#MyriadPro-Regular-70" x="781.8"/><use xlink:href="#MyriadPro-Regular-69" x="838.7"/></g><g style="fill:#9467bd" transform="matrix(.14 0 0 -.14 450.31 123.43)" id="text_17"><defs><path id="MyriadPro-Regular-6b" d="M1024 4544H467V0h557v1165l288 320L2381 0h685L1702 1824l1197 1274h-678l-909-1069c-90-109-198-243-275-352h-13v2867z" transform="scale(.01563)"/><path id="MyriadPro-Regular-6c" d="M467 0h563v4544H467V0z" transform="scale(.01563)"/></defs><use xlink:href="#MyriadPro-Regular-6e"/><use xlink:href="#MyriadPro-Regular-75" x="55.5"/><use xlink:href="#MyriadPro-Regular-6b" x="110.6"/><use xlink:href="#MyriadPro-Regular-65" x="157.5"/><use xlink:href="#MyriadPro-Regular-6f" x="207.6"/><use xlink:href="#MyriadPro-Regular-70" x="262.5"/><use xlink:href="#MyriadPro-Regular-2f" x="319.4"/><use xlink:href="#MyriadPro-Regular-6e" x="353.7"/><use xlink:href="#MyriadPro-Regular-75" x="409.2"/><use xlink:href="#MyriadPro-Regular-63" x="464.3"/><use xlink:href="#MyriadPro-Regular-6c" x="509.1"/><use xlink:href="#MyriadPro-Regular-65" x="532.7"/><use xlink:href="#MyriadPro-Regular-61" x="582.8"/><use xlink:href="#MyriadPro-Regular-72" x="631"/></g><g style="fill:#8c564b" transform="matrix(.14 0 0 -.14 450.31 137.27)" id="text_18"><defs><path id="MyriadPro-Regular-79" d="M58 3098 1203 243c26-70 39-115 39-147s-20-77-45-134c-128-288-320-506-474-628-166-140-352-230-493-275l141-473c141 25 416 121 691 364 384 333 660 877 1063 1940l845 2208h-596l-614-1818c-77-224-141-461-198-646h-13c-51 185-128 428-199 633L672 3098H58z" transform="scale(.01563)"/></defs><use xlink:href="#MyriadPro-Regular-61"/><use xlink:href="#MyriadPro-Regular-75" x="48.2"/><use xlink:href="#MyriadPro-Regular-64" x="103.3"/><use xlink:href="#MyriadPro-Regular-61" x="159.7"/><use xlink:href="#MyriadPro-Regular-63" x="207.9"/><use xlink:href="#MyriadPro-Regular-69" x="252.7"/><use xlink:href="#MyriadPro-Regular-74" x="276.1"/><use xlink:href="#MyriadPro-Regular-79" x="309.2"/><use xlink:href="#MyriadPro-Regular-2f" x="356.3"/><use xlink:href="#MyriadPro-Regular-61" x="390.6"/><use xlink:href="#MyriadPro-Regular-75" x="438.8"/><use xlink:href="#MyriadPro-Regular-64" x="493.9"/><use xlink:href="#MyriadPro-Regular-61" x="550.3"/><use xlink:href="#MyriadPro-Regular-63" x="598.5"/><use xlink:href="#MyriadPro-Regular-69" x="643.3"/><use xlink:href="#MyriadPro-Regular-74" x="666.7"/><use xlink:href="#MyriadPro-Regular-79" x="699.8"/></g><g style="fill:#e377c2" transform="matrix(.14 0 0 -.14 450.31 151.27)" id="text_19"><defs><path id="MyriadPro-Regular-44" d="M486 13c282-32 615-51 1012-51 838 0 1504 217 1907 620 403 397 621 973 621 1677 0 698-224 1197-608 1549-378 352-948 538-1748 538-441 0-844-39-1184-90V13zm557 3833c147 32 365 58 653 58 1178 0 1754-646 1747-1664 0-1165-646-1830-1837-1830-217 0-422 6-563 32v3404z" transform="scale(.01563)"/><path id="MyriadPro-Regular-49" d="M486 4314V0h557v4314H486z" transform="scale(.01563)"/><path id="MyriadPro-Regular-59" d="M2010 0v1837l1446 2477h-634l-620-1191c-167-326-314-608-436-889h-12c-135 300-263 563-429 889L717 4314H83l1363-2484V0h564z" transform="scale(.01563)"/><path id="MyriadPro-Regular-67" d="M3110 2246c0 378 13 628 26 852h-493l-25-468h-13c-135 256-429 538-967 538-710 0-1395-595-1395-1645C243 666 794 13 1562 13c480 0 812 230 985 518h13V186c0-781-422-1082-998-1082-384 0-704 115-909 243l-141-429c250-166 659-256 1030-256 391 0 826 90 1127 372 301 268 441 704 441 1414v1798zm-556-928c0-96-13-204-45-300-122-359-435-576-781-576-608 0-915 505-915 1113 0 717 384 1171 921 1171 410 0 685-268 788-595 25-77 32-160 32-256v-557z" transform="scale(.01563)"/><path id="MyriadPro-Regular-50" d="M486 0h557v1728c128-32 282-38 448-38 544 0 1024 160 1319 473 217 224 332 531 332 922 0 384-140 697-377 902-256 231-659 359-1210 359-448 0-800-39-1069-84V0zm557 3859c96 26 282 45 525 45 614 0 1018-275 1018-845 0-595-410-921-1082-921-186 0-339 12-461 44v1677z" transform="scale(.01563)"/></defs><use xlink:href="#MyriadPro-Regular-44"/><use xlink:href="#MyriadPro-Regular-49" x="66.6"/><use xlink:href="#MyriadPro-Regular-59" x="90.5"/><use xlink:href="#MyriadPro-Regular-67" x="144.6"/><use xlink:href="#MyriadPro-Regular-6f" x="200.5"/><use xlink:href="#MyriadPro-Regular-64" x="255.4"/><use xlink:href="#MyriadPro-Regular-2f" x="311.8"/><use xlink:href="#MyriadPro-Regular-41" x="346.1"/><use xlink:href="#MyriadPro-Regular-50" x="407.3"/><use xlink:href="#MyriadPro-Regular-6c" x="460.5"/><use xlink:href="#MyriadPro-Regular-61" x="484.1"/><use xlink:href="#MyriadPro-Regular-79" x="532.3"/><use xlink:href="#MyriadPro-Regular-65" x="579.4"/><use xlink:href="#MyriadPro-Regular-72" x="629.5"/></g><g style="fill:#7f7f7f" transform="matrix(.14 0 0 -.14 450.31 165.109)" id="text_20"><defs><path id="MyriadPro-Regular-6d" d="M467 0h551v1869c0 96 12 192 44 275 90 282 346 563 698 563 429 0 646-358 646-851V0h551v1914c0 102 19 204 45 281 96 275 345 512 665 512 455 0 672-358 672-953V0h551v1824c0 1075-608 1344-1018 1344-294 0-499-77-685-218-128-96-249-230-345-403h-13c-135 365-455 621-877 621-512 0-800-275-973-570h-19l-26 500H442c19-256 25-519 25-839V0z" transform="scale(.01563)"/></defs><use xlink:href="#MyriadPro-Regular-74"/><use xlink:href="#MyriadPro-Regular-65" x="33.1"/><use xlink:href="#MyriadPro-Regular-6e" x="83.2"/><use xlink:href="#MyriadPro-Regular-61" x="138.7"/><use xlink:href="#MyriadPro-Regular-63" x="186.9"/><use xlink:href="#MyriadPro-Regular-69" x="231.7"/><use xlink:href="#MyriadPro-Regular-74" x="255.1"/><use xlink:href="#MyriadPro-Regular-79" x="288.2"/><use xlink:href="#MyriadPro-Regular-74" x="335.3"/><use xlink:href="#MyriadPro-Regular-65" x="368.4"/><use xlink:href="#MyriadPro-Regular-61" x="418.5"/><use xlink:href="#MyriadPro-Regular-6d" x="466.7"/><use xlink:href="#MyriadPro-Regular-2f" x="550.1"/><use xlink:href="#MyriadPro-Regular-74" x="584.4"/><use xlink:href="#MyriadPro-Regular-65" x="617.5"/><use xlink:href="#MyriadPro-Regular-6e" x="667.6"/><use xlink:href="#MyriadPro-Regular-61" x="723.1"/><use xlink:href="#MyriadPro-Regular-63" x="771.3"/><use xlink:href="#MyriadPro-Regular-69" x="816.1"/><use xlink:href="#MyriadPro-Regular-74" x="839.5"/><use xlink:href="#MyriadPro-Regular-79" x="872.6"/></g><g style="fill:#bcbd22" transform="matrix(.14 0 0 -.14 450.31 179.43)" id="text_21"><defs><path id="MyriadPro-Regular-4c" d="M486 0h2400v467H1043v3847H486V0z" transform="scale(.01563)"/><path id="MyriadPro-Regular-4d" d="M4230 0h544l-268 4314h-711l-768-2087c-192-544-345-1017-454-1453h-19c-109 448-256 922-436 1453l-736 2087H672L371 0h531l116 1850c38 646 70 1369 83 1907h13c121-512 294-1069 499-1677L2310 26h423l761 2092c218 589 397 1133 544 1639h20c-7-538 32-1261 64-1863L4230 0z" transform="scale(.01563)"/><path id="MyriadPro-Regular-53" d="M269 211C499 58 954-70 1370-70c1017 0 1510 582 1510 1248 0 633-371 985-1101 1267-595 230-857 429-857 832 0 294 224 646 812 646 391 0 679-128 820-205l153 455c-192 109-512 211-953 211-839 0-1396-499-1396-1171 0-608 436-973 1140-1223 582-224 812-454 812-857 0-435-332-736-902-736-384 0-749 128-998 281L269 211z" transform="scale(.01563)"/></defs><use xlink:href="#MyriadPro-Regular-4c"/><use xlink:href="#MyriadPro-Regular-4d" x="47.2"/><use xlink:href="#MyriadPro-Regular-4d" x="127.6"/><use xlink:href="#MyriadPro-Regular-53" x="208"/><use xlink:href="#MyriadPro-Regular-2f" x="257.3"/><use xlink:href="#MyriadPro-Regular-6c" x="291.6"/><use xlink:href="#MyriadPro-Regular-6d" x="315.2"/><use xlink:href="#MyriadPro-Regular-6d" x="398.6"/><use xlink:href="#MyriadPro-Regular-73" x="482"/></g><g style="fill:#17becf" transform="matrix(.14 0 0 -.14 450.31 229.869)" id="text_22"><use xlink:href="#MyriadPro-Regular-6d"/><use xlink:href="#MyriadPro-Regular-69" x="83.4"/><use xlink:href="#MyriadPro-Regular-78" x="106.8"/><use xlink:href="#MyriadPro-Regular-78" x="153.1"/><use xlink:href="#MyriadPro-Regular-78" x="199.4"/><use xlink:href="#MyriadPro-Regular-64" x="245.7"/><use xlink:href="#MyriadPro-Regular-6a" x="302.1"/><use xlink:href="#MyriadPro-Regular-2f" x="326.4"/><use xlink:href="#MyriadPro-Regular-6d" x="360.7"/><use xlink:href="#MyriadPro-Regular-69" x="444.1"/><use xlink:href="#MyriadPro-Regular-78" x="467.5"/><use xlink:href="#MyriadPro-Regular-78" x="513.8"/><use xlink:href="#MyriadPro-Regular-78" x="560.1"/></g><g style="fill:#aec7e8" transform="matrix(.14 0 0 -.14 450.31 243.96)" id="text_23"><use xlink:href="#MyriadPro-Regular-41"/><use xlink:href="#MyriadPro-Regular-72" x="61.2"/><use xlink:href="#MyriadPro-Regular-64" x="93.9"/><use xlink:href="#MyriadPro-Regular-6f" x="150.3"/><use xlink:href="#MyriadPro-Regular-75" x="205.2"/><use xlink:href="#MyriadPro-Regular-72" x="260.3"/><use xlink:href="#MyriadPro-Regular-2f" x="293"/><use xlink:href="#MyriadPro-Regular-61" x="327.3"/><use xlink:href="#MyriadPro-Regular-72" x="375.5"/><use xlink:href="#MyriadPro-Regular-64" x="408.2"/><use xlink:href="#MyriadPro-Regular-6f" x="464.6"/><use xlink:href="#MyriadPro-Regular-75" x="519.5"/><use xlink:href="#MyriadPro-Regular-72" x="574.6"/></g><g style="fill:#ffbb78" transform="matrix(.14 0 0 -.14 450.31 263.083)" id="text_24"><defs><path id="MyriadPro-Regular-57" d="m1773 0 614 2246c160 557 256 980 333 1408h13c57-435 147-857 281-1408L3558 0h583l1222 4314h-569l-570-2176c-134-538-256-1018-346-1492h-12c-64 455-180 967-301 1479l-525 2189h-582l-576-2176c-148-557-282-1069-352-1498h-13c-77 416-192 954-320 1491L685 4314H96L1190 0h583z" transform="scale(.01563)"/><path id="MyriadPro-Regular-77" d="M115 3098 1050 0h512l499 1472c109 333 205 653 281 1024h13c77-365 167-672 275-1018L3104 0h512l998 3098h-556l-442-1556c-102-364-186-691-237-1004h-19c-70 313-160 640-275 1011l-480 1549h-474l-505-1575c-103-339-205-672-276-985h-19c-57 320-141 640-230 985L691 3098H115z" transform="scale(.01563)"/></defs><use xlink:href="#MyriadPro-Regular-50"/><use xlink:href="#MyriadPro-Regular-69" x="53.2"/><use xlink:href="#MyriadPro-Regular-70" x="76.6"/><use xlink:href="#MyriadPro-Regular-65" x="133.5"/><use xlink:href="#MyriadPro-Regular-57" x="183.6"/><use xlink:href="#MyriadPro-Regular-69" x="268.2"/><use xlink:href="#MyriadPro-Regular-72" x="291.6"/><use xlink:href="#MyriadPro-Regular-65" x="324.3"/><use xlink:href="#MyriadPro-Regular-2f" x="374.4"/><use xlink:href="#MyriadPro-Regular-70" x="408.7"/><use xlink:href="#MyriadPro-Regular-69" x="465.6"/><use xlink:href="#MyriadPro-Regular-70" x="489"/><use xlink:href="#MyriadPro-Regular-65" x="545.9"/><use xlink:href="#MyriadPro-Regular-77" x="596"/><use xlink:href="#MyriadPro-Regular-69" x="669.6"/><use xlink:href="#MyriadPro-Regular-72" x="693"/><use xlink:href="#MyriadPro-Regular-65" x="725.7"/></g><g style="fill:#969696" transform="matrix(.09716 0 0 -.09716 82.476 320.638)" id="text_25"><defs><path id="MyriadPro-Regular-76" d="M83 3098 1261 0h537l1216 3098h-588l-602-1741c-102-282-192-538-262-794h-20c-64 256-147 512-249 794L685 3098H83z" transform="scale(.01563)"/><path id="MyriadPro-Regular-68" d="M467 0h563v1869c0 109 7 192 39 269 102 307 390 563 755 563 531 0 717-423 717-922V0h563v1843c0 1069-666 1325-1082 1325-211 0-409-64-576-160-172-96-313-237-403-397h-13v1933H467V0z" transform="scale(.01563)"/><path id="MyriadPro-Regular-7c" d="M550 4800v-6400h429v6400H550z" transform="scale(.01563)"/><path id="MyriadPro-Regular-4e" d="M1011 0v1843c0 717-13 1235-45 1779l20 7c217-467 505-960 806-1440L3162 0h563v4314h-525V2509c0-672 13-1197 64-1773l-13-6c-205 441-454 896-774 1401L1094 4314H486V0h525z" transform="scale(.01563)"/><path id="MyriadPro-Regular-f6" d="M1165 3648c185 0 313 154 313 326 0 186-134 327-313 327s-327-147-327-327c0-172 135-326 320-326h7zm1184 0c185 0 313 154 313 326 0 186-134 327-313 327s-320-147-320-327c0-172 128-326 313-326h7zm-570-480c-857 0-1536-608-1536-1645C243 544 890-70 1728-70c749 0 1542 499 1542 1644 0 948-601 1594-1491 1594zm-13-422c666 0 928-666 928-1191 0-697-403-1203-940-1203-551 0-941 512-941 1190 0 589 288 1204 953 1204z" transform="scale(.01563)"/><path id="MyriadPro-Regular-43" d="M3386 582c-224-108-570-179-909-179-1050 0-1658 679-1658 1735 0 1132 672 1779 1683 1779 359 0 660-77 871-179l134 454c-147 77-486 192-1024 192-1337 0-2253-915-2253-2266C230 704 1146-70 2362-70c524 0 934 108 1139 211l-115 441z" transform="scale(.01563)"/><path id="MyriadPro-Regular-42" d="M486 13c186-26 480-51 864-51 704 0 1191 128 1492 403 217 211 364 493 364 864 0 640-480 979-889 1081v13c454 167 729 531 729 947 0 340-134 596-358 762-269 218-627 314-1184 314-390 0-774-39-1018-90V13zm557 3865c90 20 237 39 493 39 563 0 947-199 947-704 0-416-345-723-934-723h-506v1388zm0-1811h461c608 0 1114-243 1114-832 0-627-532-838-1108-838-198 0-358 6-467 25v1645z" transform="scale(.01563)"/></defs><use xlink:href="#MyriadPro-Regular-47"/><use xlink:href="#MyriadPro-Regular-69" x="64.6"/><use xlink:href="#MyriadPro-Regular-74" x="88"/><use xlink:href="#MyriadPro-Regular-48" x="121.1"/><use xlink:href="#MyriadPro-Regular-75" x="186.3"/><use xlink:href="#MyriadPro-Regular-62" x="241.4"/><use xlink:href="#MyriadPro-Regular-20" x="298.3"/><use xlink:href="#MyriadPro-Regular-41" x="319.5"/><use xlink:href="#MyriadPro-Regular-50" x="380.7"/><use xlink:href="#MyriadPro-Regular-49" x="433.9"/><use xlink:href="#MyriadPro-Regular-20" x="457.8"/><use xlink:href="#MyriadPro-Regular-76" x="479"/><use xlink:href="#MyriadPro-Regular-69" x="527.1"/><use xlink:href="#MyriadPro-Regular-61" x="550.5"/><use xlink:href="#MyriadPro-Regular-20" x="598.7"/><use xlink:href="#MyriadPro-Regular-73" x="619.9"/><use xlink:href="#MyriadPro-Regular-74" x="659.5"/><use xlink:href="#MyriadPro-Regular-61" x="692.6"/><use xlink:href="#MyriadPro-Regular-72" x="740.8"/><use xlink:href="#MyriadPro-Regular-67" x="773.5"/><use xlink:href="#MyriadPro-Regular-72" x="829.4"/><use xlink:href="#MyriadPro-Regular-61" x="862.1"/><use xlink:href="#MyriadPro-Regular-70" x="910.3"/><use xlink:href="#MyriadPro-Regular-68" x="967.2"/><use xlink:href="#MyriadPro-Regular-20" x="1022.7"/><use xlink:href="#MyriadPro-Regular-7c" x="1043.9"/><use xlink:href="#MyriadPro-Regular-20" x="1067.8"/><use xlink:href="#MyriadPro-Regular-4e" x="1089"/><use xlink:href="#MyriadPro-Regular-69" x="1154.8"/><use xlink:href="#MyriadPro-Regular-63" x="1178.2"/><use xlink:href="#MyriadPro-Regular-6f" x="1223"/><use xlink:href="#MyriadPro-Regular-20" x="1277.9"/><use xlink:href="#MyriadPro-Regular-53" x="1299.1"/><use xlink:href="#MyriadPro-Regular-63" x="1348.4"/><use xlink:href="#MyriadPro-Regular-68" x="1393.2"/><use xlink:href="#MyriadPro-Regular-6c" x="1448.7"/><use xlink:href="#MyriadPro-Regular-f6" x="1472.3"/><use xlink:href="#MyriadPro-Regular-6d" x="1527.2"/><use xlink:href="#MyriadPro-Regular-65" x="1610.6"/><use xlink:href="#MyriadPro-Regular-72" x="1660.7"/><use xlink:href="#MyriadPro-Regular-20" x="1693.4"/><use xlink:href="#MyriadPro-Regular-7c" x="1714.6"/><use xlink:href="#MyriadPro-Regular-20" x="1738.5"/><use xlink:href="#MyriadPro-Regular-43" x="1759.7"/><use xlink:href="#MyriadPro-Regular-43" x="1817.7"/><use xlink:href="#MyriadPro-Regular-20" x="1875.7"/><use xlink:href="#MyriadPro-Regular-42" x="1896.9"/><use xlink:href="#MyriadPro-Regular-59" x="1951.1"/></g><path d="m193.487 286.74 2.756-.577 2.488-.312 2.756-.217 2.666-.24 2.755-.288 2.667-.336 2.755-.409 2.755-.432 2.667-.553 2.755-.6 2.666-.649 2.756-.696 2.755-.841 2.489-.48 2.755-.553 2.666-.553 2.756-.456 2.666-.576 2.755-.793 2.755-.793 2.667-.72 2.755-.65 2.667-.672 2.755-1.129 2.755-.672 2.578-.745 2.755-.697 2.666-.864 2.756-.937 2.666-.625 2.755-.6 2.756-.577 2.666-.552 2.755-.697 2.667-.865 2.755-.745 2.755-1.177 2.489-1.105 2.755-1.08 2.667-.961 2.755-1.586 2.666-1.033 2.756-.96 2.755-1.034 2.666-1.105 2.755-1.105 2.667-1.44 2.755-1.298 2.755-1.682 2.49-1.129L331.34 246l2.667-1.346 2.755-1.73 2.666-1.368 2.756-1.105 2.755-1.322 2.666-1.2 2.756-1.37 2.666-1.225 2.755-2.354 2.756-2.114 2.488-2.114 2.756-2.546 2.666-1.994 2.755-1.922 2.667-2.954 2.755-2.042 2.755-1.97 2.667-1.682 2.755-2.474 2.666-1.753 2.756-1.946 2.755-2.09 2.577-2.234 2.756-3.315 2.666-2.57 2.755-2.715 2.667-2.258 2.755-2.906 2.755-2.018 2.667-1.898 2.755-2.45 2.666-2.138 2.756-2.306 2.755-1.946 2.489-2.522 2.755-2.354 2.666-2.282 2.756-2.427 2.666-1.85 2.755-2.281" clip-path="url(#p6bd202b441)" style="fill:none;stroke:#bcbd22;stroke-width:1.5;stroke-linecap:square" id="line2d_21"/><path d="m436.841 286.74 2.755-126.379" clip-path="url(#p6bd202b441)" style="fill:none;stroke:#7f7f7f;stroke-width:1.5;stroke-linecap:square" id="line2d_22"/><path d="m252.948 286.74 2.667-9.08 2.755-2.067 2.755-1.561 2.578-.817 2.755-1.153 2.666-1.561 2.756-4.084 2.666-1.057 2.755-.985 2.756-1.249 2.666-1.273 2.755-1.153 2.667-.937 2.755-1.49 2.755-.768 2.489-2.042 2.755-1.801 2.667-1.706 2.755-1.37 2.666-1.104 2.756-2.69 2.755-2.163 2.666-1.825 2.755-1.538 2.667-1.44 2.755-1.754 2.755-2.57 2.49-1.466 2.754-3.123 2.667-2.546 2.755-2.955 2.666-1.922 2.756-1.657 2.755-2.162 2.666-1.586 2.756-2.378 2.666-2.306 2.755-2.882 2.756-2.186 2.488-2.282 2.756-2.45 2.666-2.33 2.755-2.09 2.667-1.562 2.755-2.666 2.755-2.162 2.667-2.258 2.755-2.018 2.666-2.186 2.756-2.57 2.755-1.85 2.577-1.994 2.756-2.57 2.666-2.739 2.755-2.21 2.667-1.921 2.755-2.042 2.755-1.682 2.667-1.753 2.755-1.874 2.666-1.682 2.756-1.777 2.755-1.61 2.489-1.297 2.755-.889 2.666-1.393 2.756-1.417 2.666-.937 2.755-1.25" clip-path="url(#p6bd202b441)" style="fill:none;stroke:#e377c2;stroke-width:1.5;stroke-linecap:square" id="line2d_23"/><path d="m231.173 286.74 2.755-.025 2.666-.816 2.756-.409 2.666-.336 2.755-.36 2.755-.36 2.667-.385 2.755-.553 2.667-.816 2.755-.985 2.755-.553 2.578-.408 2.755-.697 2.666-.432 2.756-.6 2.666-.553 2.755-.84 2.756-.794 2.666-.648 2.755-.793 2.667-.648 2.755-.673 2.755-.72 2.489-.793 2.755-1.105 2.667-.673 2.755-1.081 2.666-.48 2.756-.817 2.755-.937 2.666-1.057 2.755-.817 2.667-1.177 2.755-.96 2.755-1.154 2.49-1.105 2.754-1.033 2.667-.96 2.755-.89 2.666-.96 2.756-.793 2.755-.72 2.666-1.105 2.756-1.466 2.666-1.177 2.755-1.129 2.756-1.08 2.488-1.298 2.756-1.585 2.666-4.853 2.755-1.898 2.667-1.825 2.755-1.441 2.755-1.418 2.667-.816 2.755-1.466 2.666-1.633 2.756-1.682 2.755-1.465 2.577-1.345 2.756-1.898 2.666-3.05 2.755-2.667 2.667-2.306 2.755-2.114 2.755-2.018 2.667-2.57 2.755-1.682 2.666-1.898 2.756-2.618 2.755-2.93 2.489-1.994 2.755-5.55 2.666-3.915 2.756-28.898 2.666-4.54 2.755-18.617" clip-path="url(#p6bd202b441)" style="fill:none;stroke:#8c564b;stroke-width:1.5;stroke-linecap:square" id="line2d_24"/><path d="m290.9 286.74 2.755-.025 2.489-1.897 2.755-1.73 2.667-.793 2.755-.528 2.666-.216 2.756-.313 2.755-.192 2.666-.336 2.755-.288 2.667-.192 2.755-.097 2.755-.144 2.49-.48 2.754-.408 2.667-.337 2.755-.24 2.666-.432 2.756-.217 2.755-.624 2.666-.24 2.756-.313 2.666-.336 2.755-.336 2.756-73.218 2.488-15.686 2.756-2.307 2.666-1.297 2.755-1.61 2.667-1.248 2.755-3.411 2.755-1.946 2.667-1.201 2.755-2.402 2.666-1.322 2.756-1.249 2.755-4.18 2.577-2.426 2.756-1.85 2.666-1.921 2.755-1.537 2.667-1.538 2.755-1.585 2.755-1.754 2.667-1.417 2.755-1.561 2.666-1.754 2.756-1.393 2.755-2.33 2.489-3.34 2.755-2.498 2.666-2.066 2.756-2.546 2.666-2.162 2.755-4.06" clip-path="url(#p6bd202b441)" style="fill:none;stroke:#9467bd;stroke-width:1.5;stroke-linecap:square" id="line2d_25"/><path d="m182.644 286.74 2.666-.265 2.756-.144 2.666-.144 2.755-.096 2.756-.024 2.488-.048 2.756-.24 2.666-.24 2.755-.217 2.667-.288 2.755-.288 2.755-.289 2.667-2.858 2.755-1.033 2.666-.889 2.756-.528 2.755-1.514 2.489-.528 2.755-.48 2.666-.553 2.756-1.201 2.666-1.01 2.755-.936 2.755-1.321 2.667-1.153 2.755-1.706 2.667-2.162 2.755-1.129 2.755-1.873 2.578-4.973 2.755-2.042 2.666-1.465 2.756-1.393 2.666-1.37 2.755-.96 2.756-1.226 2.666-1.561 2.755-1.513 2.667-1.634 2.755-1.153 2.755-1.177 2.489-1.25 2.755-1.368 2.667-1.033 2.755-1.153 2.666-.817 2.756-1.345 2.755-.913 2.666-1.25 2.755-1.272 2.667-1.73 2.755-2.786 2.755-3.147 2.49-3.267 2.754-2.595 2.667-5.86 2.755-7.808 2.666-5.62 2.756-5.814 2.755-3.147 2.666-1.153 2.756-.84 2.666-1.298 2.755-.889 2.756-1.129 2.488-.985 2.756-1.585 2.666-1.321 2.755-1.562 2.667-1.057 2.755-1.44 2.755-1.442 2.667-1.321 2.755-2.138 2.666-1.994 2.756-1.514 2.755-2.017 2.577-3.964 2.756-2.738 2.666-3.772 2.755-7.422 2.667-3.051 2.755-2.33 2.755-1.37 2.667-1.537 2.755-1.754 2.666-3.242 2.756-26.76 2.755-3.964 2.489-3.099 2.755-2.162 2.666-2.042 2.756-1.946 2.666-1.513 2.755-1.681" clip-path="url(#p6bd202b441)" style="fill:none;stroke:#d62728;stroke-width:1.5;stroke-linecap:square" id="line2d_26"/><path d="m220.507 286.74 2.666-12.18 2.756-1.057 2.755-2.618 2.489-.72 2.755-1.01 2.666-1.369 2.756-.888 2.666-1.01 2.755-1.945 2.755-.84 2.667-1.13 2.755-1.441 2.667-1.321 2.755-.937 2.755-5.381 2.578-3.988 2.755-2.258 2.666-1.994 2.756-2.282 2.666-1.61 2.755-1.993 2.756-4.084 2.666-3.507 2.755-2.522 2.667-3.531 2.755-3.291 2.755-2.306 2.489-3.027 2.755-4.348 2.667-3.29 2.755-2.21 2.666-1.995 2.756-2.882 2.755-2.715 2.666-5.693 2.755-3.363 2.667-3.027 2.755-6.005 2.755-4.804 2.49-3.267 2.754-4.396 2.667-3.34 2.755-3.194 2.666-2.955 2.756-3.363 2.755-2.738 2.666-2.33 2.756-2.258 2.666-2.403 2.755-2.81 2.756-2.066 2.488-2.21 2.756-3.411 2.666-2.426 2.755-2.306 2.667-1.177 2.755-1.61 2.755-1.994 2.667-1.873 2.755-2.33 2.666-2.018 2.756-1.898 2.755-1.946 2.577-1.633 2.756-2.138 2.666-2.09 2.755-2.186 2.667-2.378 2.755-1.85 2.755-1.585 2.667-1.946 2.755-1.802 2.666-1.993 2.756-2.162 2.755-2.859 2.489-1.922 2.755-1.585 2.666-1.802 2.756-1.705 2.666-1.49 2.755-1.993" clip-path="url(#p6bd202b441)" style="fill:none;stroke:#2ca02c;stroke-width:1.5;stroke-linecap:square" id="line2d_27"/><path d="m82.476 286.74 2.756-4.54 5.421-.481 2.667-.264 5.51-.36 10.666-.986 2.666-.168 5.51-.192 2.667-.264 8.177-.457 2.755-.24 2.578-.36 10.843-.288 10.933-.193 8.176-.072 5.244-1.057 2.667-.768 5.421-1.201 2.756-.337 8.177-1.897 2.666-.721 2.755-.432 5.244-1.322 2.756-39.731 2.666-2.595 2.755-2.162 2.667-1.777 2.755-1.37 5.422-3.146 5.421-5.621 2.756-2.355 2.755-3.074 2.489-1.13 2.755-1.897 2.666-2.162 2.756-1.874 2.666-1.417 2.755-1.321 2.755-1.465 2.667-1.105 5.422-3.484 5.51-3.05 2.578-1.778 2.755-1.754 5.422-3.819 2.666-6.534 2.755-1.37 2.756-1.969 2.666-2.378 2.755-2.09 2.667-1.537 2.755-2.21 2.755-1.802 2.489-2.138 2.755-2.546 2.667-1.658 2.755-1.489 2.666-1.73 2.756-2.186 2.755-1.369 2.666-2.186 2.755-1.777 2.667-1.514 8-17.968 2.754-7.807 2.667-6.246 2.755-6.99 2.666-4.492 5.511-2.835 5.422-2.306 5.421-2.906 2.756-1.417 5.244-3.46 2.666-1.105 2.755-1.32 5.422-2.835 2.755-1.37 5.422-3.194 2.666-2.018 2.756-1.562 2.755-1.345 5.333-3.411 2.666-1.754 2.755-2.234 2.667-1.465 2.755-1.778 2.755-1.513 2.667-1.633 2.755-2.066 10.666-7.47 2.755-1.634 2.666-1.898 2.756-1.658 2.666-2.882 2.755-1.466h0" clip-path="url(#p6bd202b441)" style="fill:none;stroke:#ff7f0e;stroke-width:1.5;stroke-linecap:square" id="line2d_28"/><path d="m198.731 286.74 2.756-.025 2.666-.072h2.755l2.667-.072h5.51l2.667-3.963 2.755-.409 2.666-.336 2.756-.192 2.755-.577 2.489-.528 2.755-.937 2.666-.456 2.756-.89 2.666-1.416 2.755-1.081 2.755-3.22 2.667-.768 2.755-.745 2.667-.408 2.755-1.297 2.755-.817 2.578-2.018 2.755-6.03 2.666-2.161 2.756-1.442 2.666-2.185 2.755-3.315 2.756-2.811 2.666-2.066 2.755-2.186 2.667-4.492 2.755-2.354 2.755-4.708 2.489-5.261 2.755-3.363 2.667-2.474 2.755-3.123 2.666-2.21 2.756-2.138 2.755-2.066 2.666-2.522 2.755-3.46 2.667-2.786 2.755-1.994 2.755-7.903 2.49-2.258 2.754-3.747 2.667-5.14 2.755-3.46 2.666-2.907 2.756-2.522 2.755-12.395 2.666-4.156 2.756-3.315 2.666-3.002 2.755-2.619 2.756-4.011 2.488-3.003 2.756-27.073 2.666-14.917 2.755-3.315 2.667-3.147 2.755-3.675 2.755-3.291 2.667-5.285 2.755-3.963 2.666-3.027 2.756-2.57 2.755-2.715 2.577-2.594 2.756-5.982 2.666-3.627 2.755-3.723 2.667-2.979 2.755-2.666 2.755-2.138 2.667-2.523 2.755-1.705 2.666-2.354 2.756-2.258 2.755-2.499 2.489-1.897 2.755-2.426 2.666-1.994 2.756-2.162 2.666-1.97 2.755-1.826" clip-path="url(#p6bd202b441)" style="fill:none;stroke:#1f77b4;stroke-width:1.5;stroke-linecap:square" id="line2d_29"/></g></g><defs><clipPath id="p6bd202b441"><path d="M82.476 20.627h357.12v266.112H82.476z"/></clipPath></defs></svg>