<?xml version="1.0" encoding="utf-8" standalone="no"?>
<!DOCTYPE svg PUBLIC "-//W3C//DTD SVG 1.1//EN"
  "http://www.w3.org/Graphics/SVG/1.1/DTD/svg11.dtd">
<svg xmlns:xlink="http://www.w3.org/1999/xlink" width="796.683913pt" height="341.56776pt" viewBox="0 0 796.683913 341.56776" xmlns="http://www.w3.org/2000/svg" version="1.1">
 <metadata>
  <rdf:RDF xmlns:dc="http://purl.org/dc/elements/1.1/" xmlns:cc="http://creativecommons.org/ns#" xmlns:rdf="http://www.w3.org/1999/02/22-rdf-syntax-ns#">
   <cc:Work>
    <dc:type rdf:resource="http://purl.org/dc/dcmitype/StillImage"/>
    <dc:date>2022-05-01T14:42:20.307812</dc:date>
    <dc:format>image/svg+xml</dc:format>
    <dc:creator>
     <cc:Agent>
      <dc:title>Matplotlib v3.5.1, https://matplotlib.org/</dc:title>
     </cc:Agent>
    </dc:creator>
   </cc:Work>
  </rdf:RDF>
 </metadata>
 <defs>
  <style type="text/css">*{stroke-linejoin: round; stroke-linecap: butt}</style>
 </defs>
 <g id="figure_1">
  <g id="patch_1">
   <path d="M 0 341.56776 
L 796.683913 341.56776 
L 796.683913 0 
L 0 0 
L 0 341.56776 
z
" style="fill: none"/>
  </g>
  <g id="axes_1">
   <g id="patch_2">
    <path d="M 98.073125 280.086688 
L 455.193125 280.086688 
L 455.193125 13.974688 
L 98.073125 13.974688 
L 98.073125 280.086688 
z
" style="fill: none"/>
   </g>
   <g id="matplotlib.axis_1">
    <g id="xtick_1">
     <g id="line2d_1">
      <defs>
       <path id="m0363f787a4" d="M 0 0 
L 0 3.5 
" style="stroke: #b0b0b0; stroke-width: 0.4"/>
      </defs>
      <g>
       <use xlink:href="#m0363f787a4" x="130.04405" y="280.086688" style="fill: #b0b0b0; stroke: #b0b0b0; stroke-width: 0.4"/>
      </g>
     </g>
     <g id="text_1">
      <!-- 2013 -->
      <g style="fill: #b0b0b0" transform="translate(112.22905 297.7245)scale(0.14 -0.14)">
       <defs>
        <path id="DejaVuSans-32" d="M 1228 531 
L 3431 531 
L 3431 0 
L 469 0 
L 469 531 
Q 828 903 1448 1529 
Q 2069 2156 2228 2338 
Q 2531 2678 2651 2914 
Q 2772 3150 2772 3378 
Q 2772 3750 2511 3984 
Q 2250 4219 1831 4219 
Q 1534 4219 1204 4116 
Q 875 4013 500 3803 
L 500 4441 
Q 881 4594 1212 4672 
Q 1544 4750 1819 4750 
Q 2544 4750 2975 4387 
Q 3406 4025 3406 3419 
Q 3406 3131 3298 2873 
Q 3191 2616 2906 2266 
Q 2828 2175 2409 1742 
Q 1991 1309 1228 531 
z
" transform="scale(0.015625)"/>
        <path id="DejaVuSans-30" d="M 2034 4250 
Q 1547 4250 1301 3770 
Q 1056 3291 1056 2328 
Q 1056 1369 1301 889 
Q 1547 409 2034 409 
Q 2525 409 2770 889 
Q 3016 1369 3016 2328 
Q 3016 3291 2770 3770 
Q 2525 4250 2034 4250 
z
M 2034 4750 
Q 2819 4750 3233 4129 
Q 3647 3509 3647 2328 
Q 3647 1150 3233 529 
Q 2819 -91 2034 -91 
Q 1250 -91 836 529 
Q 422 1150 422 2328 
Q 422 3509 836 4129 
Q 1250 4750 2034 4750 
z
" transform="scale(0.015625)"/>
        <path id="DejaVuSans-31" d="M 794 531 
L 1825 531 
L 1825 4091 
L 703 3866 
L 703 4441 
L 1819 4666 
L 2450 4666 
L 2450 531 
L 3481 531 
L 3481 0 
L 794 0 
L 794 531 
z
" transform="scale(0.015625)"/>
        <path id="DejaVuSans-33" d="M 2597 2516 
Q 3050 2419 3304 2112 
Q 3559 1806 3559 1356 
Q 3559 666 3084 287 
Q 2609 -91 1734 -91 
Q 1441 -91 1130 -33 
Q 819 25 488 141 
L 488 750 
Q 750 597 1062 519 
Q 1375 441 1716 441 
Q 2309 441 2620 675 
Q 2931 909 2931 1356 
Q 2931 1769 2642 2001 
Q 2353 2234 1838 2234 
L 1294 2234 
L 1294 2753 
L 1863 2753 
Q 2328 2753 2575 2939 
Q 2822 3125 2822 3475 
Q 2822 3834 2567 4026 
Q 2313 4219 1838 4219 
Q 1578 4219 1281 4162 
Q 984 4106 628 3988 
L 628 4550 
Q 988 4650 1302 4700 
Q 1616 4750 1894 4750 
Q 2613 4750 3031 4423 
Q 3450 4097 3450 3541 
Q 3450 3153 3228 2886 
Q 3006 2619 2597 2516 
z
" transform="scale(0.015625)"/>
       </defs>
       <use xlink:href="#DejaVuSans-32"/>
       <use xlink:href="#DejaVuSans-30" x="63.623047"/>
       <use xlink:href="#DejaVuSans-31" x="127.246094"/>
       <use xlink:href="#DejaVuSans-33" x="190.869141"/>
      </g>
     </g>
    </g>
    <g id="xtick_2">
     <g id="line2d_2">
      <g>
       <use xlink:href="#m0363f787a4" x="164.878042" y="280.086688" style="fill: #b0b0b0; stroke: #b0b0b0; stroke-width: 0.4"/>
      </g>
     </g>
     <g id="text_2">
      <!-- 2014 -->
      <g style="fill: #b0b0b0" transform="translate(147.063042 297.7245)scale(0.14 -0.14)">
       <defs>
        <path id="DejaVuSans-34" d="M 2419 4116 
L 825 1625 
L 2419 1625 
L 2419 4116 
z
M 2253 4666 
L 3047 4666 
L 3047 1625 
L 3713 1625 
L 3713 1100 
L 3047 1100 
L 3047 0 
L 2419 0 
L 2419 1100 
L 313 1100 
L 313 1709 
L 2253 4666 
z
" transform="scale(0.015625)"/>
       </defs>
       <use xlink:href="#DejaVuSans-32"/>
       <use xlink:href="#DejaVuSans-30" x="63.623047"/>
       <use xlink:href="#DejaVuSans-31" x="127.246094"/>
       <use xlink:href="#DejaVuSans-34" x="190.869141"/>
      </g>
     </g>
    </g>
    <g id="xtick_3">
     <g id="line2d_3">
      <g>
       <use xlink:href="#m0363f787a4" x="199.712035" y="280.086688" style="fill: #b0b0b0; stroke: #b0b0b0; stroke-width: 0.4"/>
      </g>
     </g>
     <g id="text_3">
      <!-- 2015 -->
      <g style="fill: #b0b0b0" transform="translate(181.897035 297.7245)scale(0.14 -0.14)">
       <defs>
        <path id="DejaVuSans-35" d="M 691 4666 
L 3169 4666 
L 3169 4134 
L 1269 4134 
L 1269 2991 
Q 1406 3038 1543 3061 
Q 1681 3084 1819 3084 
Q 2600 3084 3056 2656 
Q 3513 2228 3513 1497 
Q 3513 744 3044 326 
Q 2575 -91 1722 -91 
Q 1428 -91 1123 -41 
Q 819 9 494 109 
L 494 744 
Q 775 591 1075 516 
Q 1375 441 1709 441 
Q 2250 441 2565 725 
Q 2881 1009 2881 1497 
Q 2881 1984 2565 2268 
Q 2250 2553 1709 2553 
Q 1456 2553 1204 2497 
Q 953 2441 691 2322 
L 691 4666 
z
" transform="scale(0.015625)"/>
       </defs>
       <use xlink:href="#DejaVuSans-32"/>
       <use xlink:href="#DejaVuSans-30" x="63.623047"/>
       <use xlink:href="#DejaVuSans-31" x="127.246094"/>
       <use xlink:href="#DejaVuSans-35" x="190.869141"/>
      </g>
     </g>
    </g>
    <g id="xtick_4">
     <g id="line2d_4">
      <g>
       <use xlink:href="#m0363f787a4" x="234.546027" y="280.086688" style="fill: #b0b0b0; stroke: #b0b0b0; stroke-width: 0.4"/>
      </g>
     </g>
     <g id="text_4">
      <!-- 2016 -->
      <g style="fill: #b0b0b0" transform="translate(216.731027 297.7245)scale(0.14 -0.14)">
       <defs>
        <path id="DejaVuSans-36" d="M 2113 2584 
Q 1688 2584 1439 2293 
Q 1191 2003 1191 1497 
Q 1191 994 1439 701 
Q 1688 409 2113 409 
Q 2538 409 2786 701 
Q 3034 994 3034 1497 
Q 3034 2003 2786 2293 
Q 2538 2584 2113 2584 
z
M 3366 4563 
L 3366 3988 
Q 3128 4100 2886 4159 
Q 2644 4219 2406 4219 
Q 1781 4219 1451 3797 
Q 1122 3375 1075 2522 
Q 1259 2794 1537 2939 
Q 1816 3084 2150 3084 
Q 2853 3084 3261 2657 
Q 3669 2231 3669 1497 
Q 3669 778 3244 343 
Q 2819 -91 2113 -91 
Q 1303 -91 875 529 
Q 447 1150 447 2328 
Q 447 3434 972 4092 
Q 1497 4750 2381 4750 
Q 2619 4750 2861 4703 
Q 3103 4656 3366 4563 
z
" transform="scale(0.015625)"/>
       </defs>
       <use xlink:href="#DejaVuSans-32"/>
       <use xlink:href="#DejaVuSans-30" x="63.623047"/>
       <use xlink:href="#DejaVuSans-31" x="127.246094"/>
       <use xlink:href="#DejaVuSans-36" x="190.869141"/>
      </g>
     </g>
    </g>
    <g id="xtick_5">
     <g id="line2d_5">
      <g>
       <use xlink:href="#m0363f787a4" x="269.475455" y="280.086688" style="fill: #b0b0b0; stroke: #b0b0b0; stroke-width: 0.4"/>
      </g>
     </g>
     <g id="text_5">
      <!-- 2017 -->
      <g style="fill: #b0b0b0" transform="translate(251.660455 297.7245)scale(0.14 -0.14)">
       <defs>
        <path id="DejaVuSans-37" d="M 525 4666 
L 3525 4666 
L 3525 4397 
L 1831 0 
L 1172 0 
L 2766 4134 
L 525 4134 
L 525 4666 
z
" transform="scale(0.015625)"/>
       </defs>
       <use xlink:href="#DejaVuSans-32"/>
       <use xlink:href="#DejaVuSans-30" x="63.623047"/>
       <use xlink:href="#DejaVuSans-31" x="127.246094"/>
       <use xlink:href="#DejaVuSans-37" x="190.869141"/>
      </g>
     </g>
    </g>
    <g id="xtick_6">
     <g id="line2d_6">
      <g>
       <use xlink:href="#m0363f787a4" x="304.309448" y="280.086688" style="fill: #b0b0b0; stroke: #b0b0b0; stroke-width: 0.4"/>
      </g>
     </g>
     <g id="text_6">
      <!-- 2018 -->
      <g style="fill: #b0b0b0" transform="translate(286.494448 297.7245)scale(0.14 -0.14)">
       <defs>
        <path id="DejaVuSans-38" d="M 2034 2216 
Q 1584 2216 1326 1975 
Q 1069 1734 1069 1313 
Q 1069 891 1326 650 
Q 1584 409 2034 409 
Q 2484 409 2743 651 
Q 3003 894 3003 1313 
Q 3003 1734 2745 1975 
Q 2488 2216 2034 2216 
z
M 1403 2484 
Q 997 2584 770 2862 
Q 544 3141 544 3541 
Q 544 4100 942 4425 
Q 1341 4750 2034 4750 
Q 2731 4750 3128 4425 
Q 3525 4100 3525 3541 
Q 3525 3141 3298 2862 
Q 3072 2584 2669 2484 
Q 3125 2378 3379 2068 
Q 3634 1759 3634 1313 
Q 3634 634 3220 271 
Q 2806 -91 2034 -91 
Q 1263 -91 848 271 
Q 434 634 434 1313 
Q 434 1759 690 2068 
Q 947 2378 1403 2484 
z
M 1172 3481 
Q 1172 3119 1398 2916 
Q 1625 2713 2034 2713 
Q 2441 2713 2670 2916 
Q 2900 3119 2900 3481 
Q 2900 3844 2670 4047 
Q 2441 4250 2034 4250 
Q 1625 4250 1398 4047 
Q 1172 3844 1172 3481 
z
" transform="scale(0.015625)"/>
       </defs>
       <use xlink:href="#DejaVuSans-32"/>
       <use xlink:href="#DejaVuSans-30" x="63.623047"/>
       <use xlink:href="#DejaVuSans-31" x="127.246094"/>
       <use xlink:href="#DejaVuSans-38" x="190.869141"/>
      </g>
     </g>
    </g>
    <g id="xtick_7">
     <g id="line2d_7">
      <g>
       <use xlink:href="#m0363f787a4" x="339.14344" y="280.086688" style="fill: #b0b0b0; stroke: #b0b0b0; stroke-width: 0.4"/>
      </g>
     </g>
     <g id="text_7">
      <!-- 2019 -->
      <g style="fill: #b0b0b0" transform="translate(321.32844 297.7245)scale(0.14 -0.14)">
       <defs>
        <path id="DejaVuSans-39" d="M 703 97 
L 703 672 
Q 941 559 1184 500 
Q 1428 441 1663 441 
Q 2288 441 2617 861 
Q 2947 1281 2994 2138 
Q 2813 1869 2534 1725 
Q 2256 1581 1919 1581 
Q 1219 1581 811 2004 
Q 403 2428 403 3163 
Q 403 3881 828 4315 
Q 1253 4750 1959 4750 
Q 2769 4750 3195 4129 
Q 3622 3509 3622 2328 
Q 3622 1225 3098 567 
Q 2575 -91 1691 -91 
Q 1453 -91 1209 -44 
Q 966 3 703 97 
z
M 1959 2075 
Q 2384 2075 2632 2365 
Q 2881 2656 2881 3163 
Q 2881 3666 2632 3958 
Q 2384 4250 1959 4250 
Q 1534 4250 1286 3958 
Q 1038 3666 1038 3163 
Q 1038 2656 1286 2365 
Q 1534 2075 1959 2075 
z
" transform="scale(0.015625)"/>
       </defs>
       <use xlink:href="#DejaVuSans-32"/>
       <use xlink:href="#DejaVuSans-30" x="63.623047"/>
       <use xlink:href="#DejaVuSans-31" x="127.246094"/>
       <use xlink:href="#DejaVuSans-39" x="190.869141"/>
      </g>
     </g>
    </g>
    <g id="xtick_8">
     <g id="line2d_8">
      <g>
       <use xlink:href="#m0363f787a4" x="373.977433" y="280.086688" style="fill: #b0b0b0; stroke: #b0b0b0; stroke-width: 0.4"/>
      </g>
     </g>
     <g id="text_8">
      <!-- 2020 -->
      <g style="fill: #b0b0b0" transform="translate(356.162433 297.7245)scale(0.14 -0.14)">
       <use xlink:href="#DejaVuSans-32"/>
       <use xlink:href="#DejaVuSans-30" x="63.623047"/>
       <use xlink:href="#DejaVuSans-32" x="127.246094"/>
       <use xlink:href="#DejaVuSans-30" x="190.869141"/>
      </g>
     </g>
    </g>
    <g id="xtick_9">
     <g id="line2d_9">
      <g>
       <use xlink:href="#m0363f787a4" x="408.906861" y="280.086688" style="fill: #b0b0b0; stroke: #b0b0b0; stroke-width: 0.4"/>
      </g>
     </g>
     <g id="text_9">
      <!-- 2021 -->
      <g style="fill: #b0b0b0" transform="translate(391.091861 297.7245)scale(0.14 -0.14)">
       <use xlink:href="#DejaVuSans-32"/>
       <use xlink:href="#DejaVuSans-30" x="63.623047"/>
       <use xlink:href="#DejaVuSans-32" x="127.246094"/>
       <use xlink:href="#DejaVuSans-31" x="190.869141"/>
      </g>
     </g>
    </g>
    <g id="xtick_10">
     <g id="line2d_10">
      <g>
       <use xlink:href="#m0363f787a4" x="443.740853" y="280.086688" style="fill: #b0b0b0; stroke: #b0b0b0; stroke-width: 0.4"/>
      </g>
     </g>
     <g id="text_10">
      <!-- 2022 -->
      <g style="fill: #b0b0b0" transform="translate(425.925853 297.7245)scale(0.14 -0.14)">
       <use xlink:href="#DejaVuSans-32"/>
       <use xlink:href="#DejaVuSans-30" x="63.623047"/>
       <use xlink:href="#DejaVuSans-32" x="127.246094"/>
       <use xlink:href="#DejaVuSans-32" x="190.869141"/>
      </g>
     </g>
    </g>
   </g>
   <g id="matplotlib.axis_2">
    <g id="ytick_1">
     <g id="line2d_11">
      <path d="M 98.073125 280.086688 
L 455.193125 280.086688 
" clip-path="url(#pbb0b1a7c12)" style="fill: none; stroke: #b0b0b0; stroke-width: 0.3; stroke-linecap: square"/>
     </g>
     <g id="line2d_12">
      <defs>
       <path id="m71ad122c99" d="M 0 0 
L -3.5 0 
" style="stroke: #b0b0b0; stroke-width: 0.3"/>
      </defs>
      <g>
       <use xlink:href="#m71ad122c99" x="98.073125" y="280.086688" style="fill: #b0b0b0; stroke: #b0b0b0; stroke-width: 0.3"/>
      </g>
     </g>
     <g id="text_11">
      <!-- 0 -->
      <g style="fill: #b0b0b0" transform="translate(82.165625 285.405594)scale(0.14 -0.14)">
       <use xlink:href="#DejaVuSans-30"/>
      </g>
     </g>
    </g>
    <g id="ytick_2">
     <g id="line2d_13">
      <path d="M 98.073125 241.81151 
L 455.193125 241.81151 
" clip-path="url(#pbb0b1a7c12)" style="fill: none; stroke: #b0b0b0; stroke-width: 0.3; stroke-linecap: square"/>
     </g>
     <g id="line2d_14">
      <g>
       <use xlink:href="#m71ad122c99" x="98.073125" y="241.81151" style="fill: #b0b0b0; stroke: #b0b0b0; stroke-width: 0.3"/>
      </g>
     </g>
     <g id="text_12">
      <!-- 10000 -->
      <g style="fill: #b0b0b0" transform="translate(46.535625 247.130416)scale(0.14 -0.14)">
       <use xlink:href="#DejaVuSans-31"/>
       <use xlink:href="#DejaVuSans-30" x="63.623047"/>
       <use xlink:href="#DejaVuSans-30" x="127.246094"/>
       <use xlink:href="#DejaVuSans-30" x="190.869141"/>
       <use xlink:href="#DejaVuSans-30" x="254.492188"/>
      </g>
     </g>
    </g>
    <g id="ytick_3">
     <g id="line2d_15">
      <path d="M 98.073125 203.536332 
L 455.193125 203.536332 
" clip-path="url(#pbb0b1a7c12)" style="fill: none; stroke: #b0b0b0; stroke-width: 0.3; stroke-linecap: square"/>
     </g>
     <g id="line2d_16">
      <g>
       <use xlink:href="#m71ad122c99" x="98.073125" y="203.536332" style="fill: #b0b0b0; stroke: #b0b0b0; stroke-width: 0.3"/>
      </g>
     </g>
     <g id="text_13">
      <!-- 20000 -->
      <g style="fill: #b0b0b0" transform="translate(46.535625 208.855238)scale(0.14 -0.14)">
       <use xlink:href="#DejaVuSans-32"/>
       <use xlink:href="#DejaVuSans-30" x="63.623047"/>
       <use xlink:href="#DejaVuSans-30" x="127.246094"/>
       <use xlink:href="#DejaVuSans-30" x="190.869141"/>
       <use xlink:href="#DejaVuSans-30" x="254.492188"/>
      </g>
     </g>
    </g>
    <g id="ytick_4">
     <g id="line2d_17">
      <path d="M 98.073125 165.261155 
L 455.193125 165.261155 
" clip-path="url(#pbb0b1a7c12)" style="fill: none; stroke: #b0b0b0; stroke-width: 0.3; stroke-linecap: square"/>
     </g>
     <g id="line2d_18">
      <g>
       <use xlink:href="#m71ad122c99" x="98.073125" y="165.261155" style="fill: #b0b0b0; stroke: #b0b0b0; stroke-width: 0.3"/>
      </g>
     </g>
     <g id="text_14">
      <!-- 30000 -->
      <g style="fill: #b0b0b0" transform="translate(46.535625 170.580061)scale(0.14 -0.14)">
       <use xlink:href="#DejaVuSans-33"/>
       <use xlink:href="#DejaVuSans-30" x="63.623047"/>
       <use xlink:href="#DejaVuSans-30" x="127.246094"/>
       <use xlink:href="#DejaVuSans-30" x="190.869141"/>
       <use xlink:href="#DejaVuSans-30" x="254.492188"/>
      </g>
     </g>
    </g>
    <g id="ytick_5">
     <g id="line2d_19">
      <path d="M 98.073125 126.985977 
L 455.193125 126.985977 
" clip-path="url(#pbb0b1a7c12)" style="fill: none; stroke: #b0b0b0; stroke-width: 0.3; stroke-linecap: square"/>
     </g>
     <g id="line2d_20">
      <g>
       <use xlink:href="#m71ad122c99" x="98.073125" y="126.985977" style="fill: #b0b0b0; stroke: #b0b0b0; stroke-width: 0.3"/>
      </g>
     </g>
     <g id="text_15">
      <!-- 40000 -->
      <g style="fill: #b0b0b0" transform="translate(46.535625 132.304883)scale(0.14 -0.14)">
       <use xlink:href="#DejaVuSans-34"/>
       <use xlink:href="#DejaVuSans-30" x="63.623047"/>
       <use xlink:href="#DejaVuSans-30" x="127.246094"/>
       <use xlink:href="#DejaVuSans-30" x="190.869141"/>
       <use xlink:href="#DejaVuSans-30" x="254.492188"/>
      </g>
     </g>
    </g>
    <g id="ytick_6">
     <g id="line2d_21">
      <path d="M 98.073125 88.710799 
L 455.193125 88.710799 
" clip-path="url(#pbb0b1a7c12)" style="fill: none; stroke: #b0b0b0; stroke-width: 0.3; stroke-linecap: square"/>
     </g>
     <g id="line2d_22">
      <g>
       <use xlink:href="#m71ad122c99" x="98.073125" y="88.710799" style="fill: #b0b0b0; stroke: #b0b0b0; stroke-width: 0.3"/>
      </g>
     </g>
     <g id="text_16">
      <!-- 50000 -->
      <g style="fill: #b0b0b0" transform="translate(46.535625 94.029706)scale(0.14 -0.14)">
       <use xlink:href="#DejaVuSans-35"/>
       <use xlink:href="#DejaVuSans-30" x="63.623047"/>
       <use xlink:href="#DejaVuSans-30" x="127.246094"/>
       <use xlink:href="#DejaVuSans-30" x="190.869141"/>
       <use xlink:href="#DejaVuSans-30" x="254.492188"/>
      </g>
     </g>
    </g>
    <g id="ytick_7">
     <g id="line2d_23">
      <path d="M 98.073125 50.435622 
L 455.193125 50.435622 
" clip-path="url(#pbb0b1a7c12)" style="fill: none; stroke: #b0b0b0; stroke-width: 0.3; stroke-linecap: square"/>
     </g>
     <g id="line2d_24">
      <g>
       <use xlink:href="#m71ad122c99" x="98.073125" y="50.435622" style="fill: #b0b0b0; stroke: #b0b0b0; stroke-width: 0.3"/>
      </g>
     </g>
     <g id="text_17">
      <!-- 60000 -->
      <g style="fill: #b0b0b0" transform="translate(46.535625 55.754528)scale(0.14 -0.14)">
       <use xlink:href="#DejaVuSans-36"/>
       <use xlink:href="#DejaVuSans-30" x="63.623047"/>
       <use xlink:href="#DejaVuSans-30" x="127.246094"/>
       <use xlink:href="#DejaVuSans-30" x="190.869141"/>
       <use xlink:href="#DejaVuSans-30" x="254.492188"/>
      </g>
     </g>
    </g>
    <g id="text_18">
     <!-- GitHub stars -->
     <g style="fill: #b0b0b0" transform="translate(7.2 20.912859)scale(0.14 -0.14)">
      <defs>
       <path id="DejaVuSans-47" d="M 3809 666 
L 3809 1919 
L 2778 1919 
L 2778 2438 
L 4434 2438 
L 4434 434 
Q 4069 175 3628 42 
Q 3188 -91 2688 -91 
Q 1594 -91 976 548 
Q 359 1188 359 2328 
Q 359 3472 976 4111 
Q 1594 4750 2688 4750 
Q 3144 4750 3555 4637 
Q 3966 4525 4313 4306 
L 4313 3634 
Q 3963 3931 3569 4081 
Q 3175 4231 2741 4231 
Q 1884 4231 1454 3753 
Q 1025 3275 1025 2328 
Q 1025 1384 1454 906 
Q 1884 428 2741 428 
Q 3075 428 3337 486 
Q 3600 544 3809 666 
z
" transform="scale(0.015625)"/>
       <path id="DejaVuSans-69" d="M 603 3500 
L 1178 3500 
L 1178 0 
L 603 0 
L 603 3500 
z
M 603 4863 
L 1178 4863 
L 1178 4134 
L 603 4134 
L 603 4863 
z
" transform="scale(0.015625)"/>
       <path id="DejaVuSans-74" d="M 1172 4494 
L 1172 3500 
L 2356 3500 
L 2356 3053 
L 1172 3053 
L 1172 1153 
Q 1172 725 1289 603 
Q 1406 481 1766 481 
L 2356 481 
L 2356 0 
L 1766 0 
Q 1100 0 847 248 
Q 594 497 594 1153 
L 594 3053 
L 172 3053 
L 172 3500 
L 594 3500 
L 594 4494 
L 1172 4494 
z
" transform="scale(0.015625)"/>
       <path id="DejaVuSans-48" d="M 628 4666 
L 1259 4666 
L 1259 2753 
L 3553 2753 
L 3553 4666 
L 4184 4666 
L 4184 0 
L 3553 0 
L 3553 2222 
L 1259 2222 
L 1259 0 
L 628 0 
L 628 4666 
z
" transform="scale(0.015625)"/>
       <path id="DejaVuSans-75" d="M 544 1381 
L 544 3500 
L 1119 3500 
L 1119 1403 
Q 1119 906 1312 657 
Q 1506 409 1894 409 
Q 2359 409 2629 706 
Q 2900 1003 2900 1516 
L 2900 3500 
L 3475 3500 
L 3475 0 
L 2900 0 
L 2900 538 
Q 2691 219 2414 64 
Q 2138 -91 1772 -91 
Q 1169 -91 856 284 
Q 544 659 544 1381 
z
M 1991 3584 
L 1991 3584 
z
" transform="scale(0.015625)"/>
       <path id="DejaVuSans-62" d="M 3116 1747 
Q 3116 2381 2855 2742 
Q 2594 3103 2138 3103 
Q 1681 3103 1420 2742 
Q 1159 2381 1159 1747 
Q 1159 1113 1420 752 
Q 1681 391 2138 391 
Q 2594 391 2855 752 
Q 3116 1113 3116 1747 
z
M 1159 2969 
Q 1341 3281 1617 3432 
Q 1894 3584 2278 3584 
Q 2916 3584 3314 3078 
Q 3713 2572 3713 1747 
Q 3713 922 3314 415 
Q 2916 -91 2278 -91 
Q 1894 -91 1617 61 
Q 1341 213 1159 525 
L 1159 0 
L 581 0 
L 581 4863 
L 1159 4863 
L 1159 2969 
z
" transform="scale(0.015625)"/>
       <path id="DejaVuSans-20" transform="scale(0.015625)"/>
       <path id="DejaVuSans-73" d="M 2834 3397 
L 2834 2853 
Q 2591 2978 2328 3040 
Q 2066 3103 1784 3103 
Q 1356 3103 1142 2972 
Q 928 2841 928 2578 
Q 928 2378 1081 2264 
Q 1234 2150 1697 2047 
L 1894 2003 
Q 2506 1872 2764 1633 
Q 3022 1394 3022 966 
Q 3022 478 2636 193 
Q 2250 -91 1575 -91 
Q 1294 -91 989 -36 
Q 684 19 347 128 
L 347 722 
Q 666 556 975 473 
Q 1284 391 1588 391 
Q 1994 391 2212 530 
Q 2431 669 2431 922 
Q 2431 1156 2273 1281 
Q 2116 1406 1581 1522 
L 1381 1569 
Q 847 1681 609 1914 
Q 372 2147 372 2553 
Q 372 3047 722 3315 
Q 1072 3584 1716 3584 
Q 2034 3584 2315 3537 
Q 2597 3491 2834 3397 
z
" transform="scale(0.015625)"/>
       <path id="DejaVuSans-61" d="M 2194 1759 
Q 1497 1759 1228 1600 
Q 959 1441 959 1056 
Q 959 750 1161 570 
Q 1363 391 1709 391 
Q 2188 391 2477 730 
Q 2766 1069 2766 1631 
L 2766 1759 
L 2194 1759 
z
M 3341 1997 
L 3341 0 
L 2766 0 
L 2766 531 
Q 2569 213 2275 61 
Q 1981 -91 1556 -91 
Q 1019 -91 701 211 
Q 384 513 384 1019 
Q 384 1609 779 1909 
Q 1175 2209 1959 2209 
L 2766 2209 
L 2766 2266 
Q 2766 2663 2505 2880 
Q 2244 3097 1772 3097 
Q 1472 3097 1187 3025 
Q 903 2953 641 2809 
L 641 3341 
Q 956 3463 1253 3523 
Q 1550 3584 1831 3584 
Q 2591 3584 2966 3190 
Q 3341 2797 3341 1997 
z
" transform="scale(0.015625)"/>
       <path id="DejaVuSans-72" d="M 2631 2963 
Q 2534 3019 2420 3045 
Q 2306 3072 2169 3072 
Q 1681 3072 1420 2755 
Q 1159 2438 1159 1844 
L 1159 0 
L 581 0 
L 581 3500 
L 1159 3500 
L 1159 2956 
Q 1341 3275 1631 3429 
Q 1922 3584 2338 3584 
Q 2397 3584 2469 3576 
Q 2541 3569 2628 3553 
L 2631 2963 
z
" transform="scale(0.015625)"/>
      </defs>
      <use xlink:href="#DejaVuSans-47"/>
      <use xlink:href="#DejaVuSans-69" x="77.490234"/>
      <use xlink:href="#DejaVuSans-74" x="105.273438"/>
      <use xlink:href="#DejaVuSans-48" x="144.482422"/>
      <use xlink:href="#DejaVuSans-75" x="219.677734"/>
      <use xlink:href="#DejaVuSans-62" x="283.056641"/>
      <use xlink:href="#DejaVuSans-20" x="346.533203"/>
      <use xlink:href="#DejaVuSans-73" x="378.320312"/>
      <use xlink:href="#DejaVuSans-74" x="430.419922"/>
      <use xlink:href="#DejaVuSans-61" x="469.628906"/>
      <use xlink:href="#DejaVuSans-72" x="530.908203"/>
      <use xlink:href="#DejaVuSans-73" x="572.021484"/>
     </g>
    </g>
   </g>
   <g id="line2d_25">
    <path d="M 190.93196 280.086688 
L 193.890463 280.08286 
L 196.753531 280.033102 
L 199.712035 270.628891 
L 202.670538 269.771527 
L 205.342735 269.446188 
L 208.301238 269.136159 
L 211.164306 268.983058 
L 214.12281 268.845268 
L 216.985878 268.722787 
L 219.944381 268.588824 
L 222.902884 268.473999 
L 225.765952 268.278795 
L 228.724456 268.156315 
L 231.587524 268.003214 
L 234.546027 267.850113 
L 237.504531 267.563049 
L 240.272163 267.295123 
L 243.230666 267.107575 
L 246.093734 266.981267 
L 249.052238 266.847304 
L 251.915306 266.732478 
L 254.873809 266.60617 
L 257.832313 266.487517 
L 260.69538 266.357381 
L 263.653884 266.288486 
L 266.516952 266.188971 
L 269.475455 265.155541 
L 272.433959 264.795754 
L 275.106155 264.608206 
L 278.064659 264.44745 
L 280.927727 264.344107 
L 283.88623 264.191006 
L 286.749298 264.022595 
L 289.707802 263.903942 
L 292.666305 263.827392 
L 295.529373 263.750842 
L 298.487876 263.674291 
L 301.350944 263.567121 
L 304.309448 263.494398 
L 307.267951 263.406365 
L 309.940148 263.318332 
L 312.898651 263.234127 
L 315.761719 263.153749 
L 318.720223 263.084854 
L 321.583291 263.023613 
L 324.541794 262.962373 
L 327.500298 262.912615 
L 330.363366 262.816927 
L 333.321869 262.732722 
L 336.184937 262.686792 
L 339.14344 262.644689 
L 342.101944 262.606414 
L 344.77414 262.549001 
L 347.732644 262.499243 
L 350.595712 262.434176 
L 353.554215 262.388245 
L 356.417283 262.361453 
L 359.375787 262.31935 
L 362.33429 262.281075 
L 365.197358 262.25811 
L 368.155862 262.196869 
L 371.018929 262.162422 
L 373.977433 262.147112 
L 376.935936 262.108837 
L 379.703569 262.066734 
L 382.662072 261.997839 
L 385.52514 261.974873 
L 388.483643 261.921288 
L 391.346711 261.890668 
L 394.305215 261.85622 
L 397.263718 261.756705 
L 400.126786 261.710775 
L 403.08529 261.68781 
L 405.948357 261.649534 
L 408.906861 261.588294 
L 411.865364 261.553846 
L 414.537561 261.511744 
L 417.496065 261.473469 
L 420.359132 261.442848 
L 423.317636 261.404573 
L 426.180704 261.373953 
L 429.139207 261.324195 
L 432.097711 261.278265 
L 434.960779 261.243818 
L 437.919282 261.228507 
L 440.78235 261.201715 
L 443.740853 261.167267 
L 446.699357 261.140475 
L 449.371554 261.109854 
L 452.330057 261.086889 
L 455.193125 261.040959 
" clip-path="url(#pbb0b1a7c12)" style="fill: none; stroke: #c5b0d5; stroke-width: 1.5; stroke-linecap: square"/>
   </g>
   <g id="line2d_26">
    <path d="M 249.052238 280.086688 
L 251.915306 280.06755 
L 254.873809 279.983345 
L 257.832313 279.830244 
L 260.69538 279.780486 
L 263.653884 279.638868 
L 266.516952 279.420699 
L 269.475455 279.225496 
L 272.433959 279.057085 
L 275.106155 278.915467 
L 278.064659 278.754711 
L 280.927727 278.486785 
L 283.88623 278.276272 
L 286.749298 278.042793 
L 289.707802 277.797832 
L 292.666305 277.503113 
L 295.529373 277.231359 
L 298.487876 276.909848 
L 301.350944 276.481166 
L 304.309448 276.140517 
L 307.267951 275.807523 
L 309.940148 275.505149 
L 312.898651 275.13388 
L 315.761719 274.800885 
L 318.720223 274.464064 
L 321.583291 274.108105 
L 324.541794 273.824868 
L 327.500298 273.507184 
L 330.363366 273.289016 
L 333.321869 272.956022 
L 336.184937 272.665131 
L 339.14344 272.435479 
L 342.101944 272.102485 
L 344.77414 271.880489 
L 347.732644 271.631701 
L 350.595712 271.260432 
L 353.554215 270.973368 
L 356.417283 270.709269 
L 359.375787 270.410723 
L 362.33429 270.108349 
L 365.197358 269.901663 
L 368.155862 269.633736 
L 371.018929 269.423223 
L 373.977433 269.25864 
L 376.935936 269.002196 
L 379.703569 268.738097 
L 382.662072 268.481654 
L 385.52514 268.110384 
L 388.483643 267.689357 
L 391.346711 267.406121 
L 394.305215 267.050162 
L 397.263718 266.701858 
L 400.126786 266.472207 
L 403.08529 266.219591 
L 405.948357 265.882769 
L 408.906861 265.622498 
L 411.865364 265.312469 
L 414.537561 264.975647 
L 417.496065 264.715376 
L 420.359132 264.466588 
L 423.317636 264.221626 
L 426.180704 263.942218 
L 429.139207 263.647499 
L 432.097711 263.272402 
L 434.960779 262.973856 
L 437.919282 262.629379 
L 440.78235 262.33466 
L 443.740853 262.013149 
L 446.699357 261.664845 
L 449.371554 261.408401 
L 452.330057 261.021822 
L 455.193125 260.711793 
" clip-path="url(#pbb0b1a7c12)" style="fill: none; stroke: #ff9896; stroke-width: 1.5; stroke-linecap: square"/>
   </g>
   <g id="line2d_27">
    <path d="M 182.151885 280.086688 
L 185.110388 279.623558 
L 188.068892 279.581455 
L 190.93196 279.562318 
L 193.890463 279.54318 
L 196.753531 279.524042 
L 199.712035 279.504905 
L 202.670538 279.420699 
L 205.342735 279.397734 
L 208.301238 279.332667 
L 211.164306 279.240806 
L 214.12281 279.179566 
L 216.985878 279.030293 
L 219.944381 278.980535 
L 222.902884 278.903985 
L 225.765952 278.766194 
L 228.724456 278.693471 
L 231.587524 278.628403 
L 234.546027 278.563335 
L 237.504531 278.52506 
L 240.272163 278.452337 
L 243.230666 278.364305 
L 246.093734 278.283927 
L 249.052238 278.165274 
L 251.915306 278.111688 
L 254.873809 278.042793 
L 257.832313 277.973898 
L 260.69538 277.843762 
L 263.653884 277.705971 
L 266.516952 277.614111 
L 269.475455 277.506941 
L 272.433959 277.403598 
L 275.106155 277.311737 
L 278.064659 277.124189 
L 280.927727 276.978743 
L 283.88623 276.79885 
L 286.749298 276.35103 
L 289.707802 275.907038 
L 292.666305 275.650594 
L 295.529373 275.394151 
L 298.487876 275.206602 
L 301.350944 275.015226 
L 304.309448 274.873608 
L 307.267951 274.659267 
L 309.940148 274.494684 
L 312.898651 274.299481 
L 315.761719 274.154035 
L 318.720223 273.981797 
L 321.583291 273.759801 
L 324.541794 273.599045 
L 327.500298 273.465082 
L 330.363366 273.334946 
L 333.321869 273.1895 
L 336.184937 273.070847 
L 339.14344 272.956022 
L 342.101944 272.833541 
L 344.77414 272.653648 
L 347.732644 272.519685 
L 350.595712 272.412514 
L 353.554215 272.312999 
L 356.417283 272.221138 
L 359.375787 272.129278 
L 362.33429 272.022108 
L 365.197358 271.815422 
L 368.155862 271.715906 
L 371.018929 271.631701 
L 373.977433 271.50922 
L 376.935936 271.405877 
L 379.703569 271.340809 
L 382.662072 271.214501 
L 385.52514 271.103503 
L 388.483643 270.96954 
L 391.346711 270.84706 
L 394.305215 270.177244 
L 397.263718 269.821285 
L 400.126786 269.511256 
L 403.08529 269.197399 
L 405.948357 268.971576 
L 408.906861 268.753407 
L 411.865364 268.405103 
L 414.537561 268.152487 
L 417.496065 267.827148 
L 420.359132 267.203263 
L 423.317636 266.824338 
L 426.180704 266.330589 
L 429.139207 265.695221 
L 432.097711 264.615861 
L 434.960779 264.049388 
L 437.919282 263.517363 
L 440.78235 263.031268 
L 443.740853 262.629379 
L 446.699357 261.982528 
L 449.371554 261.350988 
L 452.330057 260.543382 
L 455.193125 259.873566 
" clip-path="url(#pbb0b1a7c12)" style="fill: none; stroke: #98df8a; stroke-width: 1.5; stroke-linecap: square"/>
   </g>
   <g id="text_19">
    <!-- FortAwesome/Font-Awesome -->
    <g style="fill: #1f77b4" transform="translate(465.906725 17.837812)scale(0.14 -0.14)">
     <defs>
      <path id="DejaVuSans-46" d="M 628 4666 
L 3309 4666 
L 3309 4134 
L 1259 4134 
L 1259 2759 
L 3109 2759 
L 3109 2228 
L 1259 2228 
L 1259 0 
L 628 0 
L 628 4666 
z
" transform="scale(0.015625)"/>
      <path id="DejaVuSans-6f" d="M 1959 3097 
Q 1497 3097 1228 2736 
Q 959 2375 959 1747 
Q 959 1119 1226 758 
Q 1494 397 1959 397 
Q 2419 397 2687 759 
Q 2956 1122 2956 1747 
Q 2956 2369 2687 2733 
Q 2419 3097 1959 3097 
z
M 1959 3584 
Q 2709 3584 3137 3096 
Q 3566 2609 3566 1747 
Q 3566 888 3137 398 
Q 2709 -91 1959 -91 
Q 1206 -91 779 398 
Q 353 888 353 1747 
Q 353 2609 779 3096 
Q 1206 3584 1959 3584 
z
" transform="scale(0.015625)"/>
      <path id="DejaVuSans-41" d="M 2188 4044 
L 1331 1722 
L 3047 1722 
L 2188 4044 
z
M 1831 4666 
L 2547 4666 
L 4325 0 
L 3669 0 
L 3244 1197 
L 1141 1197 
L 716 0 
L 50 0 
L 1831 4666 
z
" transform="scale(0.015625)"/>
      <path id="DejaVuSans-77" d="M 269 3500 
L 844 3500 
L 1563 769 
L 2278 3500 
L 2956 3500 
L 3675 769 
L 4391 3500 
L 4966 3500 
L 4050 0 
L 3372 0 
L 2619 2869 
L 1863 0 
L 1184 0 
L 269 3500 
z
" transform="scale(0.015625)"/>
      <path id="DejaVuSans-65" d="M 3597 1894 
L 3597 1613 
L 953 1613 
Q 991 1019 1311 708 
Q 1631 397 2203 397 
Q 2534 397 2845 478 
Q 3156 559 3463 722 
L 3463 178 
Q 3153 47 2828 -22 
Q 2503 -91 2169 -91 
Q 1331 -91 842 396 
Q 353 884 353 1716 
Q 353 2575 817 3079 
Q 1281 3584 2069 3584 
Q 2775 3584 3186 3129 
Q 3597 2675 3597 1894 
z
M 3022 2063 
Q 3016 2534 2758 2815 
Q 2500 3097 2075 3097 
Q 1594 3097 1305 2825 
Q 1016 2553 972 2059 
L 3022 2063 
z
" transform="scale(0.015625)"/>
      <path id="DejaVuSans-6d" d="M 3328 2828 
Q 3544 3216 3844 3400 
Q 4144 3584 4550 3584 
Q 5097 3584 5394 3201 
Q 5691 2819 5691 2113 
L 5691 0 
L 5113 0 
L 5113 2094 
Q 5113 2597 4934 2840 
Q 4756 3084 4391 3084 
Q 3944 3084 3684 2787 
Q 3425 2491 3425 1978 
L 3425 0 
L 2847 0 
L 2847 2094 
Q 2847 2600 2669 2842 
Q 2491 3084 2119 3084 
Q 1678 3084 1418 2786 
Q 1159 2488 1159 1978 
L 1159 0 
L 581 0 
L 581 3500 
L 1159 3500 
L 1159 2956 
Q 1356 3278 1631 3431 
Q 1906 3584 2284 3584 
Q 2666 3584 2933 3390 
Q 3200 3197 3328 2828 
z
" transform="scale(0.015625)"/>
      <path id="DejaVuSans-2f" d="M 1625 4666 
L 2156 4666 
L 531 -594 
L 0 -594 
L 1625 4666 
z
" transform="scale(0.015625)"/>
      <path id="DejaVuSans-6e" d="M 3513 2113 
L 3513 0 
L 2938 0 
L 2938 2094 
Q 2938 2591 2744 2837 
Q 2550 3084 2163 3084 
Q 1697 3084 1428 2787 
Q 1159 2491 1159 1978 
L 1159 0 
L 581 0 
L 581 3500 
L 1159 3500 
L 1159 2956 
Q 1366 3272 1645 3428 
Q 1925 3584 2291 3584 
Q 2894 3584 3203 3211 
Q 3513 2838 3513 2113 
z
" transform="scale(0.015625)"/>
      <path id="DejaVuSans-2d" d="M 313 2009 
L 1997 2009 
L 1997 1497 
L 313 1497 
L 313 2009 
z
" transform="scale(0.015625)"/>
     </defs>
     <use xlink:href="#DejaVuSans-46"/>
     <use xlink:href="#DejaVuSans-6f" x="53.894531"/>
     <use xlink:href="#DejaVuSans-72" x="115.076172"/>
     <use xlink:href="#DejaVuSans-74" x="156.189453"/>
     <use xlink:href="#DejaVuSans-41" x="195.398438"/>
     <use xlink:href="#DejaVuSans-77" x="259.806641"/>
     <use xlink:href="#DejaVuSans-65" x="341.59375"/>
     <use xlink:href="#DejaVuSans-73" x="403.117188"/>
     <use xlink:href="#DejaVuSans-6f" x="455.216797"/>
     <use xlink:href="#DejaVuSans-6d" x="516.398438"/>
     <use xlink:href="#DejaVuSans-65" x="613.810547"/>
     <use xlink:href="#DejaVuSans-2f" x="675.333984"/>
     <use xlink:href="#DejaVuSans-46" x="709.025391"/>
     <use xlink:href="#DejaVuSans-6f" x="762.919922"/>
     <use xlink:href="#DejaVuSans-6e" x="824.101562"/>
     <use xlink:href="#DejaVuSans-74" x="887.480469"/>
     <use xlink:href="#DejaVuSans-2d" x="926.689453"/>
     <use xlink:href="#DejaVuSans-41" x="960.523438"/>
     <use xlink:href="#DejaVuSans-77" x="1024.931641"/>
     <use xlink:href="#DejaVuSans-65" x="1106.71875"/>
     <use xlink:href="#DejaVuSans-73" x="1168.242188"/>
     <use xlink:href="#DejaVuSans-6f" x="1220.341797"/>
     <use xlink:href="#DejaVuSans-6d" x="1281.523438"/>
     <use xlink:href="#DejaVuSans-65" x="1378.935547"/>
    </g>
   </g>
   <g id="text_20">
    <!-- google/material-design-icons -->
    <g style="fill: #ff7f0e" transform="translate(465.906725 108.442813)scale(0.14 -0.14)">
     <defs>
      <path id="DejaVuSans-67" d="M 2906 1791 
Q 2906 2416 2648 2759 
Q 2391 3103 1925 3103 
Q 1463 3103 1205 2759 
Q 947 2416 947 1791 
Q 947 1169 1205 825 
Q 1463 481 1925 481 
Q 2391 481 2648 825 
Q 2906 1169 2906 1791 
z
M 3481 434 
Q 3481 -459 3084 -895 
Q 2688 -1331 1869 -1331 
Q 1566 -1331 1297 -1286 
Q 1028 -1241 775 -1147 
L 775 -588 
Q 1028 -725 1275 -790 
Q 1522 -856 1778 -856 
Q 2344 -856 2625 -561 
Q 2906 -266 2906 331 
L 2906 616 
Q 2728 306 2450 153 
Q 2172 0 1784 0 
Q 1141 0 747 490 
Q 353 981 353 1791 
Q 353 2603 747 3093 
Q 1141 3584 1784 3584 
Q 2172 3584 2450 3431 
Q 2728 3278 2906 2969 
L 2906 3500 
L 3481 3500 
L 3481 434 
z
" transform="scale(0.015625)"/>
      <path id="DejaVuSans-6c" d="M 603 4863 
L 1178 4863 
L 1178 0 
L 603 0 
L 603 4863 
z
" transform="scale(0.015625)"/>
      <path id="DejaVuSans-64" d="M 2906 2969 
L 2906 4863 
L 3481 4863 
L 3481 0 
L 2906 0 
L 2906 525 
Q 2725 213 2448 61 
Q 2172 -91 1784 -91 
Q 1150 -91 751 415 
Q 353 922 353 1747 
Q 353 2572 751 3078 
Q 1150 3584 1784 3584 
Q 2172 3584 2448 3432 
Q 2725 3281 2906 2969 
z
M 947 1747 
Q 947 1113 1208 752 
Q 1469 391 1925 391 
Q 2381 391 2643 752 
Q 2906 1113 2906 1747 
Q 2906 2381 2643 2742 
Q 2381 3103 1925 3103 
Q 1469 3103 1208 2742 
Q 947 2381 947 1747 
z
" transform="scale(0.015625)"/>
      <path id="DejaVuSans-63" d="M 3122 3366 
L 3122 2828 
Q 2878 2963 2633 3030 
Q 2388 3097 2138 3097 
Q 1578 3097 1268 2742 
Q 959 2388 959 1747 
Q 959 1106 1268 751 
Q 1578 397 2138 397 
Q 2388 397 2633 464 
Q 2878 531 3122 666 
L 3122 134 
Q 2881 22 2623 -34 
Q 2366 -91 2075 -91 
Q 1284 -91 818 406 
Q 353 903 353 1747 
Q 353 2603 823 3093 
Q 1294 3584 2113 3584 
Q 2378 3584 2631 3529 
Q 2884 3475 3122 3366 
z
" transform="scale(0.015625)"/>
     </defs>
     <use xlink:href="#DejaVuSans-67"/>
     <use xlink:href="#DejaVuSans-6f" x="63.476562"/>
     <use xlink:href="#DejaVuSans-6f" x="124.658203"/>
     <use xlink:href="#DejaVuSans-67" x="185.839844"/>
     <use xlink:href="#DejaVuSans-6c" x="249.316406"/>
     <use xlink:href="#DejaVuSans-65" x="277.099609"/>
     <use xlink:href="#DejaVuSans-2f" x="338.623047"/>
     <use xlink:href="#DejaVuSans-6d" x="372.314453"/>
     <use xlink:href="#DejaVuSans-61" x="469.726562"/>
     <use xlink:href="#DejaVuSans-74" x="531.005859"/>
     <use xlink:href="#DejaVuSans-65" x="570.214844"/>
     <use xlink:href="#DejaVuSans-72" x="631.738281"/>
     <use xlink:href="#DejaVuSans-69" x="672.851562"/>
     <use xlink:href="#DejaVuSans-61" x="700.634766"/>
     <use xlink:href="#DejaVuSans-6c" x="761.914062"/>
     <use xlink:href="#DejaVuSans-2d" x="789.697266"/>
     <use xlink:href="#DejaVuSans-64" x="825.78125"/>
     <use xlink:href="#DejaVuSans-65" x="889.257812"/>
     <use xlink:href="#DejaVuSans-73" x="950.78125"/>
     <use xlink:href="#DejaVuSans-69" x="1002.880859"/>
     <use xlink:href="#DejaVuSans-67" x="1030.664062"/>
     <use xlink:href="#DejaVuSans-6e" x="1094.140625"/>
     <use xlink:href="#DejaVuSans-2d" x="1157.519531"/>
     <use xlink:href="#DejaVuSans-69" x="1193.603516"/>
     <use xlink:href="#DejaVuSans-63" x="1221.386719"/>
     <use xlink:href="#DejaVuSans-6f" x="1276.367188"/>
     <use xlink:href="#DejaVuSans-6e" x="1337.548828"/>
     <use xlink:href="#DejaVuSans-73" x="1400.927734"/>
    </g>
   </g>
   <g id="text_21">
    <!-- feathericons/feather -->
    <g style="fill: #2ca02c" transform="translate(465.906725 163.456197)scale(0.14 -0.14)">
     <defs>
      <path id="DejaVuSans-66" d="M 2375 4863 
L 2375 4384 
L 1825 4384 
Q 1516 4384 1395 4259 
Q 1275 4134 1275 3809 
L 1275 3500 
L 2222 3500 
L 2222 3053 
L 1275 3053 
L 1275 0 
L 697 0 
L 697 3053 
L 147 3053 
L 147 3500 
L 697 3500 
L 697 3744 
Q 697 4328 969 4595 
Q 1241 4863 1831 4863 
L 2375 4863 
z
" transform="scale(0.015625)"/>
      <path id="DejaVuSans-68" d="M 3513 2113 
L 3513 0 
L 2938 0 
L 2938 2094 
Q 2938 2591 2744 2837 
Q 2550 3084 2163 3084 
Q 1697 3084 1428 2787 
Q 1159 2491 1159 1978 
L 1159 0 
L 581 0 
L 581 4863 
L 1159 4863 
L 1159 2956 
Q 1366 3272 1645 3428 
Q 1925 3584 2291 3584 
Q 2894 3584 3203 3211 
Q 3513 2838 3513 2113 
z
" transform="scale(0.015625)"/>
     </defs>
     <use xlink:href="#DejaVuSans-66"/>
     <use xlink:href="#DejaVuSans-65" x="35.205078"/>
     <use xlink:href="#DejaVuSans-61" x="96.728516"/>
     <use xlink:href="#DejaVuSans-74" x="158.007812"/>
     <use xlink:href="#DejaVuSans-68" x="197.216797"/>
     <use xlink:href="#DejaVuSans-65" x="260.595703"/>
     <use xlink:href="#DejaVuSans-72" x="322.119141"/>
     <use xlink:href="#DejaVuSans-69" x="363.232422"/>
     <use xlink:href="#DejaVuSans-63" x="391.015625"/>
     <use xlink:href="#DejaVuSans-6f" x="445.996094"/>
     <use xlink:href="#DejaVuSans-6e" x="507.177734"/>
     <use xlink:href="#DejaVuSans-73" x="570.556641"/>
     <use xlink:href="#DejaVuSans-2f" x="622.65625"/>
     <use xlink:href="#DejaVuSans-66" x="656.347656"/>
     <use xlink:href="#DejaVuSans-65" x="691.552734"/>
     <use xlink:href="#DejaVuSans-61" x="753.076172"/>
     <use xlink:href="#DejaVuSans-74" x="814.355469"/>
     <use xlink:href="#DejaVuSans-68" x="853.564453"/>
     <use xlink:href="#DejaVuSans-65" x="916.943359"/>
     <use xlink:href="#DejaVuSans-72" x="978.466797"/>
    </g>
   </g>
   <g id="text_22">
    <!-- ionic-team/ionicons -->
    <g style="fill: #d62728" transform="translate(465.906725 177.456197)scale(0.14 -0.14)">
     <use xlink:href="#DejaVuSans-69"/>
     <use xlink:href="#DejaVuSans-6f" x="27.783203"/>
     <use xlink:href="#DejaVuSans-6e" x="88.964844"/>
     <use xlink:href="#DejaVuSans-69" x="152.34375"/>
     <use xlink:href="#DejaVuSans-63" x="180.126953"/>
     <use xlink:href="#DejaVuSans-2d" x="235.107422"/>
     <use xlink:href="#DejaVuSans-74" x="271.191406"/>
     <use xlink:href="#DejaVuSans-65" x="310.400391"/>
     <use xlink:href="#DejaVuSans-61" x="371.923828"/>
     <use xlink:href="#DejaVuSans-6d" x="433.203125"/>
     <use xlink:href="#DejaVuSans-2f" x="530.615234"/>
     <use xlink:href="#DejaVuSans-69" x="564.306641"/>
     <use xlink:href="#DejaVuSans-6f" x="592.089844"/>
     <use xlink:href="#DejaVuSans-6e" x="653.271484"/>
     <use xlink:href="#DejaVuSans-69" x="716.650391"/>
     <use xlink:href="#DejaVuSans-63" x="744.433594"/>
     <use xlink:href="#DejaVuSans-6f" x="799.414062"/>
     <use xlink:href="#DejaVuSans-6e" x="860.595703"/>
     <use xlink:href="#DejaVuSans-73" x="923.974609"/>
    </g>
   </g>
   <g id="text_23">
    <!-- simple-icons/simple-icons -->
    <g style="fill: #9467bd" transform="translate(465.906725 191.456197)scale(0.14 -0.14)">
     <defs>
      <path id="DejaVuSans-70" d="M 1159 525 
L 1159 -1331 
L 581 -1331 
L 581 3500 
L 1159 3500 
L 1159 2969 
Q 1341 3281 1617 3432 
Q 1894 3584 2278 3584 
Q 2916 3584 3314 3078 
Q 3713 2572 3713 1747 
Q 3713 922 3314 415 
Q 2916 -91 2278 -91 
Q 1894 -91 1617 61 
Q 1341 213 1159 525 
z
M 3116 1747 
Q 3116 2381 2855 2742 
Q 2594 3103 2138 3103 
Q 1681 3103 1420 2742 
Q 1159 2381 1159 1747 
Q 1159 1113 1420 752 
Q 1681 391 2138 391 
Q 2594 391 2855 752 
Q 3116 1113 3116 1747 
z
" transform="scale(0.015625)"/>
     </defs>
     <use xlink:href="#DejaVuSans-73"/>
     <use xlink:href="#DejaVuSans-69" x="52.099609"/>
     <use xlink:href="#DejaVuSans-6d" x="79.882812"/>
     <use xlink:href="#DejaVuSans-70" x="177.294922"/>
     <use xlink:href="#DejaVuSans-6c" x="240.771484"/>
     <use xlink:href="#DejaVuSans-65" x="268.554688"/>
     <use xlink:href="#DejaVuSans-2d" x="330.078125"/>
     <use xlink:href="#DejaVuSans-69" x="366.162109"/>
     <use xlink:href="#DejaVuSans-63" x="393.945312"/>
     <use xlink:href="#DejaVuSans-6f" x="448.925781"/>
     <use xlink:href="#DejaVuSans-6e" x="510.107422"/>
     <use xlink:href="#DejaVuSans-73" x="573.486328"/>
     <use xlink:href="#DejaVuSans-2f" x="625.585938"/>
     <use xlink:href="#DejaVuSans-73" x="659.277344"/>
     <use xlink:href="#DejaVuSans-69" x="711.376953"/>
     <use xlink:href="#DejaVuSans-6d" x="739.160156"/>
     <use xlink:href="#DejaVuSans-70" x="836.572266"/>
     <use xlink:href="#DejaVuSans-6c" x="900.048828"/>
     <use xlink:href="#DejaVuSans-65" x="927.832031"/>
     <use xlink:href="#DejaVuSans-2d" x="989.355469"/>
     <use xlink:href="#DejaVuSans-69" x="1025.439453"/>
     <use xlink:href="#DejaVuSans-63" x="1053.222656"/>
     <use xlink:href="#DejaVuSans-6f" x="1108.203125"/>
     <use xlink:href="#DejaVuSans-6e" x="1169.384766"/>
     <use xlink:href="#DejaVuSans-73" x="1232.763672"/>
    </g>
   </g>
   <g id="text_24">
    <!-- tabler/tabler-icons -->
    <g style="fill: #8c564b" transform="translate(465.906725 205.456197)scale(0.14 -0.14)">
     <use xlink:href="#DejaVuSans-74"/>
     <use xlink:href="#DejaVuSans-61" x="39.208984"/>
     <use xlink:href="#DejaVuSans-62" x="100.488281"/>
     <use xlink:href="#DejaVuSans-6c" x="163.964844"/>
     <use xlink:href="#DejaVuSans-65" x="191.748047"/>
     <use xlink:href="#DejaVuSans-72" x="253.271484"/>
     <use xlink:href="#DejaVuSans-2f" x="294.384766"/>
     <use xlink:href="#DejaVuSans-74" x="328.076172"/>
     <use xlink:href="#DejaVuSans-61" x="367.285156"/>
     <use xlink:href="#DejaVuSans-62" x="428.564453"/>
     <use xlink:href="#DejaVuSans-6c" x="492.041016"/>
     <use xlink:href="#DejaVuSans-65" x="519.824219"/>
     <use xlink:href="#DejaVuSans-72" x="581.347656"/>
     <use xlink:href="#DejaVuSans-2d" x="616.085938"/>
     <use xlink:href="#DejaVuSans-69" x="652.169922"/>
     <use xlink:href="#DejaVuSans-63" x="679.953125"/>
     <use xlink:href="#DejaVuSans-6f" x="734.933594"/>
     <use xlink:href="#DejaVuSans-6e" x="796.115234"/>
     <use xlink:href="#DejaVuSans-73" x="859.494141"/>
    </g>
   </g>
   <g id="text_25">
    <!-- Templarian/MaterialDesign -->
    <g style="fill: #e377c2" transform="translate(465.906725 219.456197)scale(0.14 -0.14)">
     <defs>
      <path id="DejaVuSans-54" d="M -19 4666 
L 3928 4666 
L 3928 4134 
L 2272 4134 
L 2272 0 
L 1638 0 
L 1638 4134 
L -19 4134 
L -19 4666 
z
" transform="scale(0.015625)"/>
      <path id="DejaVuSans-4d" d="M 628 4666 
L 1569 4666 
L 2759 1491 
L 3956 4666 
L 4897 4666 
L 4897 0 
L 4281 0 
L 4281 4097 
L 3078 897 
L 2444 897 
L 1241 4097 
L 1241 0 
L 628 0 
L 628 4666 
z
" transform="scale(0.015625)"/>
      <path id="DejaVuSans-44" d="M 1259 4147 
L 1259 519 
L 2022 519 
Q 2988 519 3436 956 
Q 3884 1394 3884 2338 
Q 3884 3275 3436 3711 
Q 2988 4147 2022 4147 
L 1259 4147 
z
M 628 4666 
L 1925 4666 
Q 3281 4666 3915 4102 
Q 4550 3538 4550 2338 
Q 4550 1131 3912 565 
Q 3275 0 1925 0 
L 628 0 
L 628 4666 
z
" transform="scale(0.015625)"/>
     </defs>
     <use xlink:href="#DejaVuSans-54"/>
     <use xlink:href="#DejaVuSans-65" x="44.083984"/>
     <use xlink:href="#DejaVuSans-6d" x="105.607422"/>
     <use xlink:href="#DejaVuSans-70" x="203.019531"/>
     <use xlink:href="#DejaVuSans-6c" x="266.496094"/>
     <use xlink:href="#DejaVuSans-61" x="294.279297"/>
     <use xlink:href="#DejaVuSans-72" x="355.558594"/>
     <use xlink:href="#DejaVuSans-69" x="396.671875"/>
     <use xlink:href="#DejaVuSans-61" x="424.455078"/>
     <use xlink:href="#DejaVuSans-6e" x="485.734375"/>
     <use xlink:href="#DejaVuSans-2f" x="549.113281"/>
     <use xlink:href="#DejaVuSans-4d" x="582.804688"/>
     <use xlink:href="#DejaVuSans-61" x="669.083984"/>
     <use xlink:href="#DejaVuSans-74" x="730.363281"/>
     <use xlink:href="#DejaVuSans-65" x="769.572266"/>
     <use xlink:href="#DejaVuSans-72" x="831.095703"/>
     <use xlink:href="#DejaVuSans-69" x="872.208984"/>
     <use xlink:href="#DejaVuSans-61" x="899.992188"/>
     <use xlink:href="#DejaVuSans-6c" x="961.271484"/>
     <use xlink:href="#DejaVuSans-44" x="989.054688"/>
     <use xlink:href="#DejaVuSans-65" x="1066.056641"/>
     <use xlink:href="#DejaVuSans-73" x="1127.580078"/>
     <use xlink:href="#DejaVuSans-69" x="1179.679688"/>
     <use xlink:href="#DejaVuSans-67" x="1207.462891"/>
     <use xlink:href="#DejaVuSans-6e" x="1270.939453"/>
    </g>
   </g>
   <g id="text_26">
    <!-- astrit/css.gg -->
    <g style="fill: #7f7f7f" transform="translate(465.906725 233.456197)scale(0.14 -0.14)">
     <defs>
      <path id="DejaVuSans-2e" d="M 684 794 
L 1344 794 
L 1344 0 
L 684 0 
L 684 794 
z
" transform="scale(0.015625)"/>
     </defs>
     <use xlink:href="#DejaVuSans-61"/>
     <use xlink:href="#DejaVuSans-73" x="61.279297"/>
     <use xlink:href="#DejaVuSans-74" x="113.378906"/>
     <use xlink:href="#DejaVuSans-72" x="152.587891"/>
     <use xlink:href="#DejaVuSans-69" x="193.701172"/>
     <use xlink:href="#DejaVuSans-74" x="221.484375"/>
     <use xlink:href="#DejaVuSans-2f" x="260.693359"/>
     <use xlink:href="#DejaVuSans-63" x="294.384766"/>
     <use xlink:href="#DejaVuSans-73" x="349.365234"/>
     <use xlink:href="#DejaVuSans-73" x="401.464844"/>
     <use xlink:href="#DejaVuSans-2e" x="453.564453"/>
     <use xlink:href="#DejaVuSans-67" x="485.351562"/>
     <use xlink:href="#DejaVuSans-67" x="548.828125"/>
    </g>
   </g>
   <g id="text_27">
    <!-- akveo/eva-icons -->
    <g style="fill: #bcbd22" transform="translate(465.906725 247.456197)scale(0.14 -0.14)">
     <defs>
      <path id="DejaVuSans-6b" d="M 581 4863 
L 1159 4863 
L 1159 1991 
L 2875 3500 
L 3609 3500 
L 1753 1863 
L 3688 0 
L 2938 0 
L 1159 1709 
L 1159 0 
L 581 0 
L 581 4863 
z
" transform="scale(0.015625)"/>
      <path id="DejaVuSans-76" d="M 191 3500 
L 800 3500 
L 1894 563 
L 2988 3500 
L 3597 3500 
L 2284 0 
L 1503 0 
L 191 3500 
z
" transform="scale(0.015625)"/>
     </defs>
     <use xlink:href="#DejaVuSans-61"/>
     <use xlink:href="#DejaVuSans-6b" x="61.279297"/>
     <use xlink:href="#DejaVuSans-76" x="119.189453"/>
     <use xlink:href="#DejaVuSans-65" x="178.369141"/>
     <use xlink:href="#DejaVuSans-6f" x="239.892578"/>
     <use xlink:href="#DejaVuSans-2f" x="301.074219"/>
     <use xlink:href="#DejaVuSans-65" x="334.765625"/>
     <use xlink:href="#DejaVuSans-76" x="396.289062"/>
     <use xlink:href="#DejaVuSans-61" x="455.46875"/>
     <use xlink:href="#DejaVuSans-2d" x="516.748047"/>
     <use xlink:href="#DejaVuSans-69" x="552.832031"/>
     <use xlink:href="#DejaVuSans-63" x="580.615234"/>
     <use xlink:href="#DejaVuSans-6f" x="635.595703"/>
     <use xlink:href="#DejaVuSans-6e" x="696.777344"/>
     <use xlink:href="#DejaVuSans-73" x="760.15625"/>
    </g>
   </g>
   <g id="text_28">
    <!-- primer/octicons -->
    <g style="fill: #17becf" transform="translate(465.906725 261.456197)scale(0.14 -0.14)">
     <use xlink:href="#DejaVuSans-70"/>
     <use xlink:href="#DejaVuSans-72" x="63.476562"/>
     <use xlink:href="#DejaVuSans-69" x="104.589844"/>
     <use xlink:href="#DejaVuSans-6d" x="132.373047"/>
     <use xlink:href="#DejaVuSans-65" x="229.785156"/>
     <use xlink:href="#DejaVuSans-72" x="291.308594"/>
     <use xlink:href="#DejaVuSans-2f" x="332.421875"/>
     <use xlink:href="#DejaVuSans-6f" x="366.113281"/>
     <use xlink:href="#DejaVuSans-63" x="427.294922"/>
     <use xlink:href="#DejaVuSans-74" x="482.275391"/>
     <use xlink:href="#DejaVuSans-69" x="521.484375"/>
     <use xlink:href="#DejaVuSans-63" x="549.267578"/>
     <use xlink:href="#DejaVuSans-6f" x="604.248047"/>
     <use xlink:href="#DejaVuSans-6e" x="665.429688"/>
     <use xlink:href="#DejaVuSans-73" x="728.808594"/>
    </g>
   </g>
   <g id="text_29">
    <!-- twbs/icons -->
    <g style="fill: #aec7e8" transform="translate(465.906725 275.456197)scale(0.14 -0.14)">
     <use xlink:href="#DejaVuSans-74"/>
     <use xlink:href="#DejaVuSans-77" x="39.208984"/>
     <use xlink:href="#DejaVuSans-62" x="120.996094"/>
     <use xlink:href="#DejaVuSans-73" x="184.472656"/>
     <use xlink:href="#DejaVuSans-2f" x="236.572266"/>
     <use xlink:href="#DejaVuSans-69" x="270.263672"/>
     <use xlink:href="#DejaVuSans-63" x="298.046875"/>
     <use xlink:href="#DejaVuSans-6f" x="353.027344"/>
     <use xlink:href="#DejaVuSans-6e" x="414.208984"/>
     <use xlink:href="#DejaVuSans-73" x="477.587891"/>
    </g>
   </g>
   <g id="text_30">
    <!-- bytedance/IconPark -->
    <g style="fill: #ffbb78" transform="translate(465.906725 289.456197)scale(0.14 -0.14)">
     <defs>
      <path id="DejaVuSans-79" d="M 2059 -325 
Q 1816 -950 1584 -1140 
Q 1353 -1331 966 -1331 
L 506 -1331 
L 506 -850 
L 844 -850 
Q 1081 -850 1212 -737 
Q 1344 -625 1503 -206 
L 1606 56 
L 191 3500 
L 800 3500 
L 1894 763 
L 2988 3500 
L 3597 3500 
L 2059 -325 
z
" transform="scale(0.015625)"/>
      <path id="DejaVuSans-49" d="M 628 4666 
L 1259 4666 
L 1259 0 
L 628 0 
L 628 4666 
z
" transform="scale(0.015625)"/>
      <path id="DejaVuSans-50" d="M 1259 4147 
L 1259 2394 
L 2053 2394 
Q 2494 2394 2734 2622 
Q 2975 2850 2975 3272 
Q 2975 3691 2734 3919 
Q 2494 4147 2053 4147 
L 1259 4147 
z
M 628 4666 
L 2053 4666 
Q 2838 4666 3239 4311 
Q 3641 3956 3641 3272 
Q 3641 2581 3239 2228 
Q 2838 1875 2053 1875 
L 1259 1875 
L 1259 0 
L 628 0 
L 628 4666 
z
" transform="scale(0.015625)"/>
     </defs>
     <use xlink:href="#DejaVuSans-62"/>
     <use xlink:href="#DejaVuSans-79" x="63.476562"/>
     <use xlink:href="#DejaVuSans-74" x="122.65625"/>
     <use xlink:href="#DejaVuSans-65" x="161.865234"/>
     <use xlink:href="#DejaVuSans-64" x="223.388672"/>
     <use xlink:href="#DejaVuSans-61" x="286.865234"/>
     <use xlink:href="#DejaVuSans-6e" x="348.144531"/>
     <use xlink:href="#DejaVuSans-63" x="411.523438"/>
     <use xlink:href="#DejaVuSans-65" x="466.503906"/>
     <use xlink:href="#DejaVuSans-2f" x="528.027344"/>
     <use xlink:href="#DejaVuSans-49" x="561.71875"/>
     <use xlink:href="#DejaVuSans-63" x="591.210938"/>
     <use xlink:href="#DejaVuSans-6f" x="646.191406"/>
     <use xlink:href="#DejaVuSans-6e" x="707.373047"/>
     <use xlink:href="#DejaVuSans-50" x="770.751953"/>
     <use xlink:href="#DejaVuSans-61" x="826.554688"/>
     <use xlink:href="#DejaVuSans-72" x="887.833984"/>
     <use xlink:href="#DejaVuSans-6b" x="928.947266"/>
    </g>
   </g>
   <g id="text_31">
    <!-- devicons/devicon -->
    <g style="fill: #98df8a" transform="translate(465.906725 303.456197)scale(0.14 -0.14)">
     <use xlink:href="#DejaVuSans-64"/>
     <use xlink:href="#DejaVuSans-65" x="63.476562"/>
     <use xlink:href="#DejaVuSans-76" x="125"/>
     <use xlink:href="#DejaVuSans-69" x="184.179688"/>
     <use xlink:href="#DejaVuSans-63" x="211.962891"/>
     <use xlink:href="#DejaVuSans-6f" x="266.943359"/>
     <use xlink:href="#DejaVuSans-6e" x="328.125"/>
     <use xlink:href="#DejaVuSans-73" x="391.503906"/>
     <use xlink:href="#DejaVuSans-2f" x="443.603516"/>
     <use xlink:href="#DejaVuSans-64" x="477.294922"/>
     <use xlink:href="#DejaVuSans-65" x="540.771484"/>
     <use xlink:href="#DejaVuSans-76" x="602.294922"/>
     <use xlink:href="#DejaVuSans-69" x="661.474609"/>
     <use xlink:href="#DejaVuSans-63" x="689.257812"/>
     <use xlink:href="#DejaVuSans-6f" x="744.238281"/>
     <use xlink:href="#DejaVuSans-6e" x="805.419922"/>
    </g>
   </g>
   <g id="text_32">
    <!-- PapirusDevelopmentTeam/papirus-icon-theme -->
    <g style="fill: #ff9896" transform="translate(465.906725 317.456197)scale(0.14 -0.14)">
     <use xlink:href="#DejaVuSans-50"/>
     <use xlink:href="#DejaVuSans-61" x="55.802734"/>
     <use xlink:href="#DejaVuSans-70" x="117.082031"/>
     <use xlink:href="#DejaVuSans-69" x="180.558594"/>
     <use xlink:href="#DejaVuSans-72" x="208.341797"/>
     <use xlink:href="#DejaVuSans-75" x="249.455078"/>
     <use xlink:href="#DejaVuSans-73" x="312.833984"/>
     <use xlink:href="#DejaVuSans-44" x="364.933594"/>
     <use xlink:href="#DejaVuSans-65" x="441.935547"/>
     <use xlink:href="#DejaVuSans-76" x="503.458984"/>
     <use xlink:href="#DejaVuSans-65" x="562.638672"/>
     <use xlink:href="#DejaVuSans-6c" x="624.162109"/>
     <use xlink:href="#DejaVuSans-6f" x="651.945312"/>
     <use xlink:href="#DejaVuSans-70" x="713.126953"/>
     <use xlink:href="#DejaVuSans-6d" x="776.603516"/>
     <use xlink:href="#DejaVuSans-65" x="874.015625"/>
     <use xlink:href="#DejaVuSans-6e" x="935.539062"/>
     <use xlink:href="#DejaVuSans-74" x="998.917969"/>
     <use xlink:href="#DejaVuSans-54" x="1038.126953"/>
     <use xlink:href="#DejaVuSans-65" x="1082.210938"/>
     <use xlink:href="#DejaVuSans-61" x="1143.734375"/>
     <use xlink:href="#DejaVuSans-6d" x="1205.013672"/>
     <use xlink:href="#DejaVuSans-2f" x="1302.425781"/>
     <use xlink:href="#DejaVuSans-70" x="1336.117188"/>
     <use xlink:href="#DejaVuSans-61" x="1399.59375"/>
     <use xlink:href="#DejaVuSans-70" x="1460.873047"/>
     <use xlink:href="#DejaVuSans-69" x="1524.349609"/>
     <use xlink:href="#DejaVuSans-72" x="1552.132812"/>
     <use xlink:href="#DejaVuSans-75" x="1593.246094"/>
     <use xlink:href="#DejaVuSans-73" x="1656.625"/>
     <use xlink:href="#DejaVuSans-2d" x="1708.724609"/>
     <use xlink:href="#DejaVuSans-69" x="1744.808594"/>
     <use xlink:href="#DejaVuSans-63" x="1772.591797"/>
     <use xlink:href="#DejaVuSans-6f" x="1827.572266"/>
     <use xlink:href="#DejaVuSans-6e" x="1888.753906"/>
     <use xlink:href="#DejaVuSans-2d" x="1952.132812"/>
     <use xlink:href="#DejaVuSans-74" x="1988.216797"/>
     <use xlink:href="#DejaVuSans-68" x="2027.425781"/>
     <use xlink:href="#DejaVuSans-65" x="2090.804688"/>
     <use xlink:href="#DejaVuSans-6d" x="2152.328125"/>
     <use xlink:href="#DejaVuSans-65" x="2249.740234"/>
    </g>
   </g>
   <g id="text_33">
    <!-- evil-icons/evil-icons -->
    <g style="fill: #c5b0d5" transform="translate(465.906725 331.456197)scale(0.14 -0.14)">
     <use xlink:href="#DejaVuSans-65"/>
     <use xlink:href="#DejaVuSans-76" x="61.523438"/>
     <use xlink:href="#DejaVuSans-69" x="120.703125"/>
     <use xlink:href="#DejaVuSans-6c" x="148.486328"/>
     <use xlink:href="#DejaVuSans-2d" x="176.269531"/>
     <use xlink:href="#DejaVuSans-69" x="212.353516"/>
     <use xlink:href="#DejaVuSans-63" x="240.136719"/>
     <use xlink:href="#DejaVuSans-6f" x="295.117188"/>
     <use xlink:href="#DejaVuSans-6e" x="356.298828"/>
     <use xlink:href="#DejaVuSans-73" x="419.677734"/>
     <use xlink:href="#DejaVuSans-2f" x="471.777344"/>
     <use xlink:href="#DejaVuSans-65" x="505.46875"/>
     <use xlink:href="#DejaVuSans-76" x="566.992188"/>
     <use xlink:href="#DejaVuSans-69" x="626.171875"/>
     <use xlink:href="#DejaVuSans-6c" x="653.955078"/>
     <use xlink:href="#DejaVuSans-2d" x="681.738281"/>
     <use xlink:href="#DejaVuSans-69" x="717.822266"/>
     <use xlink:href="#DejaVuSans-63" x="745.605469"/>
     <use xlink:href="#DejaVuSans-6f" x="800.585938"/>
     <use xlink:href="#DejaVuSans-6e" x="861.767578"/>
     <use xlink:href="#DejaVuSans-73" x="925.146484"/>
    </g>
   </g>
   <g id="text_34">
    <!-- @nschloe / gh-trends | Nico Schlmer | CC BY -->
    <g style="fill: #b0b0b0" transform="translate(98.073125 314.123037)scale(0.09716 -0.09716)">
     <defs>
      <path id="DejaVuSans-40" d="M 2381 1678 
Q 2381 1231 2603 976 
Q 2825 722 3213 722 
Q 3597 722 3817 978 
Q 4038 1234 4038 1678 
Q 4038 2116 3813 2373 
Q 3588 2631 3206 2631 
Q 2828 2631 2604 2375 
Q 2381 2119 2381 1678 
z
M 4084 744 
Q 3897 503 3655 389 
Q 3413 275 3091 275 
Q 2553 275 2217 664 
Q 1881 1053 1881 1678 
Q 1881 2303 2218 2693 
Q 2556 3084 3091 3084 
Q 3413 3084 3656 2967 
Q 3900 2850 4084 2613 
L 4084 3022 
L 4531 3022 
L 4531 722 
Q 4988 791 5245 1139 
Q 5503 1488 5503 2041 
Q 5503 2375 5404 2669 
Q 5306 2963 5106 3213 
Q 4781 3622 4314 3839 
Q 3847 4056 3297 4056 
Q 2913 4056 2559 3954 
Q 2206 3853 1906 3653 
Q 1416 3334 1139 2817 
Q 863 2300 863 1697 
Q 863 1200 1042 765 
Q 1222 331 1563 0 
Q 1891 -325 2322 -495 
Q 2753 -666 3244 -666 
Q 3647 -666 4036 -530 
Q 4425 -394 4750 -141 
L 5031 -488 
Q 4641 -791 4180 -952 
Q 3719 -1113 3244 -1113 
Q 2666 -1113 2153 -908 
Q 1641 -703 1241 -313 
Q 841 78 631 592 
Q 422 1106 422 1697 
Q 422 2266 634 2781 
Q 847 3297 1241 3688 
Q 1644 4084 2172 4295 
Q 2700 4506 3291 4506 
Q 3953 4506 4520 4234 
Q 5088 3963 5472 3463 
Q 5706 3156 5829 2797 
Q 5953 2438 5953 2053 
Q 5953 1231 5456 756 
Q 4959 281 4084 263 
L 4084 744 
z
" transform="scale(0.015625)"/>
      <path id="DejaVuSans-7c" d="M 1344 4891 
L 1344 -1509 
L 813 -1509 
L 813 4891 
L 1344 4891 
z
" transform="scale(0.015625)"/>
      <path id="DejaVuSans-4e" d="M 628 4666 
L 1478 4666 
L 3547 763 
L 3547 4666 
L 4159 4666 
L 4159 0 
L 3309 0 
L 1241 3903 
L 1241 0 
L 628 0 
L 628 4666 
z
" transform="scale(0.015625)"/>
      <path id="DejaVuSans-53" d="M 3425 4513 
L 3425 3897 
Q 3066 4069 2747 4153 
Q 2428 4238 2131 4238 
Q 1616 4238 1336 4038 
Q 1056 3838 1056 3469 
Q 1056 3159 1242 3001 
Q 1428 2844 1947 2747 
L 2328 2669 
Q 3034 2534 3370 2195 
Q 3706 1856 3706 1288 
Q 3706 609 3251 259 
Q 2797 -91 1919 -91 
Q 1588 -91 1214 -16 
Q 841 59 441 206 
L 441 856 
Q 825 641 1194 531 
Q 1563 422 1919 422 
Q 2459 422 2753 634 
Q 3047 847 3047 1241 
Q 3047 1584 2836 1778 
Q 2625 1972 2144 2069 
L 1759 2144 
Q 1053 2284 737 2584 
Q 422 2884 422 3419 
Q 422 4038 858 4394 
Q 1294 4750 2059 4750 
Q 2388 4750 2728 4690 
Q 3069 4631 3425 4513 
z
" transform="scale(0.015625)"/>
      <path id="DejaVuSans-f6" d="M 1959 3097 
Q 1497 3097 1228 2736 
Q 959 2375 959 1747 
Q 959 1119 1226 758 
Q 1494 397 1959 397 
Q 2419 397 2687 759 
Q 2956 1122 2956 1747 
Q 2956 2369 2687 2733 
Q 2419 3097 1959 3097 
z
M 1959 3584 
Q 2709 3584 3137 3096 
Q 3566 2609 3566 1747 
Q 3566 888 3137 398 
Q 2709 -91 1959 -91 
Q 1206 -91 779 398 
Q 353 888 353 1747 
Q 353 2609 779 3096 
Q 1206 3584 1959 3584 
z
M 2254 4850 
L 2888 4850 
L 2888 4219 
L 2254 4219 
L 2254 4850 
z
M 1032 4850 
L 1666 4850 
L 1666 4219 
L 1032 4219 
L 1032 4850 
z
" transform="scale(0.015625)"/>
      <path id="DejaVuSans-43" d="M 4122 4306 
L 4122 3641 
Q 3803 3938 3442 4084 
Q 3081 4231 2675 4231 
Q 1875 4231 1450 3742 
Q 1025 3253 1025 2328 
Q 1025 1406 1450 917 
Q 1875 428 2675 428 
Q 3081 428 3442 575 
Q 3803 722 4122 1019 
L 4122 359 
Q 3791 134 3420 21 
Q 3050 -91 2638 -91 
Q 1578 -91 968 557 
Q 359 1206 359 2328 
Q 359 3453 968 4101 
Q 1578 4750 2638 4750 
Q 3056 4750 3426 4639 
Q 3797 4528 4122 4306 
z
" transform="scale(0.015625)"/>
      <path id="DejaVuSans-42" d="M 1259 2228 
L 1259 519 
L 2272 519 
Q 2781 519 3026 730 
Q 3272 941 3272 1375 
Q 3272 1813 3026 2020 
Q 2781 2228 2272 2228 
L 1259 2228 
z
M 1259 4147 
L 1259 2741 
L 2194 2741 
Q 2656 2741 2882 2914 
Q 3109 3088 3109 3444 
Q 3109 3797 2882 3972 
Q 2656 4147 2194 4147 
L 1259 4147 
z
M 628 4666 
L 2241 4666 
Q 2963 4666 3353 4366 
Q 3744 4066 3744 3513 
Q 3744 3084 3544 2831 
Q 3344 2578 2956 2516 
Q 3422 2416 3680 2098 
Q 3938 1781 3938 1306 
Q 3938 681 3513 340 
Q 3088 0 2303 0 
L 628 0 
L 628 4666 
z
" transform="scale(0.015625)"/>
      <path id="DejaVuSans-59" d="M -13 4666 
L 666 4666 
L 1959 2747 
L 3244 4666 
L 3922 4666 
L 2272 2222 
L 2272 0 
L 1638 0 
L 1638 2222 
L -13 4666 
z
" transform="scale(0.015625)"/>
     </defs>
     <use xlink:href="#DejaVuSans-40"/>
     <use xlink:href="#DejaVuSans-6e" x="100"/>
     <use xlink:href="#DejaVuSans-73" x="163.378906"/>
     <use xlink:href="#DejaVuSans-63" x="215.478516"/>
     <use xlink:href="#DejaVuSans-68" x="270.458984"/>
     <use xlink:href="#DejaVuSans-6c" x="333.837891"/>
     <use xlink:href="#DejaVuSans-6f" x="361.621094"/>
     <use xlink:href="#DejaVuSans-65" x="422.802734"/>
     <use xlink:href="#DejaVuSans-20" x="484.326172"/>
     <use xlink:href="#DejaVuSans-2f" x="516.113281"/>
     <use xlink:href="#DejaVuSans-20" x="549.804688"/>
     <use xlink:href="#DejaVuSans-67" x="581.591797"/>
     <use xlink:href="#DejaVuSans-68" x="645.068359"/>
     <use xlink:href="#DejaVuSans-2d" x="708.447266"/>
     <use xlink:href="#DejaVuSans-74" x="744.53125"/>
     <use xlink:href="#DejaVuSans-72" x="783.740234"/>
     <use xlink:href="#DejaVuSans-65" x="822.603516"/>
     <use xlink:href="#DejaVuSans-6e" x="884.126953"/>
     <use xlink:href="#DejaVuSans-64" x="947.505859"/>
     <use xlink:href="#DejaVuSans-73" x="1010.982422"/>
     <use xlink:href="#DejaVuSans-20" x="1063.082031"/>
     <use xlink:href="#DejaVuSans-7c" x="1094.869141"/>
     <use xlink:href="#DejaVuSans-20" x="1128.560547"/>
     <use xlink:href="#DejaVuSans-4e" x="1160.347656"/>
     <use xlink:href="#DejaVuSans-69" x="1235.152344"/>
     <use xlink:href="#DejaVuSans-63" x="1262.935547"/>
     <use xlink:href="#DejaVuSans-6f" x="1317.916016"/>
     <use xlink:href="#DejaVuSans-20" x="1379.097656"/>
     <use xlink:href="#DejaVuSans-53" x="1410.884766"/>
     <use xlink:href="#DejaVuSans-63" x="1474.361328"/>
     <use xlink:href="#DejaVuSans-68" x="1529.341797"/>
     <use xlink:href="#DejaVuSans-6c" x="1592.720703"/>
     <use xlink:href="#DejaVuSans-f6" x="1620.503906"/>
     <use xlink:href="#DejaVuSans-6d" x="1681.685547"/>
     <use xlink:href="#DejaVuSans-65" x="1779.097656"/>
     <use xlink:href="#DejaVuSans-72" x="1840.621094"/>
     <use xlink:href="#DejaVuSans-20" x="1881.734375"/>
     <use xlink:href="#DejaVuSans-7c" x="1913.521484"/>
     <use xlink:href="#DejaVuSans-20" x="1947.212891"/>
     <use xlink:href="#DejaVuSans-43" x="1979"/>
     <use xlink:href="#DejaVuSans-43" x="2048.824219"/>
     <use xlink:href="#DejaVuSans-20" x="2118.648438"/>
     <use xlink:href="#DejaVuSans-42" x="2150.435547"/>
     <use xlink:href="#DejaVuSans-59" x="2213.539062"/>
    </g>
   </g>
   <g id="line2d_28">
    <path d="M 394.305215 280.086688 
L 397.263718 280.075205 
L 400.126786 277.92414 
L 403.08529 273.694733 
L 405.948357 273.086158 
L 408.906861 271.306362 
L 411.865364 268.845268 
L 414.537561 267.804183 
L 417.496065 267.046334 
L 420.359132 266.234901 
L 423.317636 265.901907 
L 426.180704 265.507672 
L 429.139207 264.726859 
L 432.097711 263.333642 
L 434.960779 262.717412 
L 437.919282 262.208352 
L 440.78235 261.645707 
L 443.740853 261.083062 
L 446.699357 260.662035 
L 449.371554 260.229525 
L 452.330057 259.406609 
L 455.193125 258.656416 
" clip-path="url(#pbb0b1a7c12)" style="fill: none; stroke: #ffbb78; stroke-width: 1.5; stroke-linecap: square"/>
   </g>
   <g id="line2d_29">
    <path d="M 356.417283 280.086688 
L 359.375787 280.071377 
L 362.33429 280.071377 
L 365.197358 280.071377 
L 368.155862 280.071377 
L 371.018929 279.803451 
L 373.977433 279.443665 
L 376.935936 279.187221 
L 379.703569 279.045603 
L 382.662072 278.666678 
L 385.52514 278.237996 
L 388.483643 277.774867 
L 391.346711 277.105051 
L 394.305215 276.519441 
L 397.263718 269.323708 
L 400.126786 267.524774 
L 403.08529 267.126712 
L 405.948357 266.705685 
L 408.906861 266.238728 
L 411.865364 265.852149 
L 414.537561 265.530637 
L 417.496065 265.197643 
L 420.359132 264.891442 
L 423.317636 264.520173 
L 426.180704 264.225454 
L 429.139207 263.9537 
L 432.097711 263.639844 
L 434.960779 263.356607 
L 437.919282 258.744448 
L 440.78235 258.388489 
L 443.740853 258.07846 
L 446.699357 257.730156 
L 449.371554 257.4163 
L 452.330057 257.106271 
L 455.193125 256.742657 
" clip-path="url(#pbb0b1a7c12)" style="fill: none; stroke: #aec7e8; stroke-width: 1.5; stroke-linecap: square"/>
   </g>
   <g id="line2d_30">
    <path d="M 179.288817 280.086688 
L 182.151885 274.865953 
L 185.110388 274.073657 
L 188.068892 273.805731 
L 190.93196 273.583735 
L 193.890463 273.361739 
L 196.753531 273.17419 
L 199.712035 272.975159 
L 202.670538 272.711061 
L 205.342735 272.534995 
L 208.301238 272.316826 
L 211.164306 272.0489 
L 214.12281 271.800112 
L 216.985878 271.608736 
L 219.944381 271.382912 
L 222.902884 270.881507 
L 225.765952 270.590616 
L 228.724456 270.257622 
L 231.587524 269.997351 
L 234.546027 269.75239 
L 237.504531 269.522738 
L 240.272163 269.21271 
L 243.230666 268.929473 
L 246.093734 268.772545 
L 249.052238 268.592652 
L 251.915306 268.389793 
L 254.873809 268.171625 
L 257.832313 267.957284 
L 260.69538 267.804183 
L 263.653884 267.60898 
L 266.516952 267.425259 
L 269.475455 267.230055 
L 272.433959 267.057817 
L 275.106155 266.831993 
L 278.064659 266.571722 
L 280.927727 266.433932 
L 283.88623 266.277003 
L 286.749298 266.135385 
L 289.707802 265.970802 
L 292.666305 265.702876 
L 295.529373 265.534465 
L 298.487876 265.274194 
L 301.350944 264.95651 
L 304.309448 264.811064 
L 307.267951 264.592896 
L 309.940148 264.363245 
L 312.898651 264.129766 
L 315.761719 263.808254 
L 318.720223 263.513536 
L 321.583291 263.234127 
L 324.541794 262.87434 
L 327.500298 262.644689 
L 330.363366 262.441831 
L 333.321869 262.254282 
L 336.184937 262.016976 
L 339.14344 261.867703 
L 342.101944 261.653362 
L 344.77414 261.358643 
L 347.732644 261.113682 
L 350.595712 260.929961 
L 353.554215 260.662035 
L 356.417283 260.409419 
L 359.375787 260.16063 
L 362.33429 259.674535 
L 365.197358 259.483159 
L 368.155862 259.245853 
L 371.018929 259.012375 
L 373.977433 258.790379 
L 376.935936 258.579865 
L 379.703569 258.354042 
L 382.662072 258.09377 
L 385.52514 257.875602 
L 388.483643 257.50816 
L 391.346711 257.175166 
L 394.305215 256.746484 
L 397.263718 256.478558 
L 400.126786 256.283355 
L 403.08529 256.061359 
L 405.948357 255.866155 
L 408.906861 255.659469 
L 411.865364 255.425991 
L 414.537561 255.21165 
L 417.496065 254.955206 
L 420.359132 254.744692 
L 423.317636 254.495904 
L 426.180704 254.27008 
L 429.139207 254.113152 
L 432.097711 253.849053 
L 434.960779 253.69978 
L 437.919282 253.496922 
L 440.78235 253.332338 
L 443.740853 253.106515 
L 446.699357 252.896001 
L 449.371554 252.639558 
L 452.330057 252.436699 
L 455.193125 252.180255 
" clip-path="url(#pbb0b1a7c12)" style="fill: none; stroke: #17becf; stroke-width: 1.5; stroke-linecap: square"/>
   </g>
   <g id="line2d_31">
    <path d="M 330.363366 280.086688 
L 333.321869 279.788141 
L 336.184937 261.745222 
L 339.14344 259.395126 
L 342.101944 258.472695 
L 344.77414 257.990427 
L 347.732644 257.577056 
L 350.595712 257.289992 
L 353.554215 256.991445 
L 356.417283 256.187667 
L 359.375787 255.464266 
L 362.33429 255.096824 
L 365.197358 254.802105 
L 368.155862 254.427008 
L 371.018929 254.13229 
L 373.977433 253.887328 
L 376.935936 253.59261 
L 379.703569 253.294063 
L 382.662072 252.953414 
L 385.52514 252.71228 
L 388.483643 252.386941 
L 391.346711 252.153463 
L 394.305215 251.824296 
L 397.263718 251.58699 
L 400.126786 251.353512 
L 403.08529 251.169791 
L 405.948357 251.012863 
L 408.906861 250.848279 
L 411.865364 250.630111 
L 414.537561 250.454045 
L 417.496065 250.258842 
L 420.359132 250.101913 
L 423.317636 249.987088 
L 426.180704 249.864607 
L 429.139207 249.738299 
L 432.097711 249.623474 
L 434.960779 249.378512 
L 437.919282 249.267514 
L 440.78235 249.179482 
L 443.740853 249.030208 
L 446.699357 248.907728 
L 449.371554 248.804385 
L 452.330057 248.658939 
L 455.193125 248.578561 
" clip-path="url(#pbb0b1a7c12)" style="fill: none; stroke: #bcbd22; stroke-width: 1.5; stroke-linecap: square"/>
   </g>
   <g id="line2d_32">
    <path d="M 371.018929 280.086688 
L 373.977433 278.98819 
L 376.935936 278.444682 
L 379.703569 276.664887 
L 382.662072 268.347691 
L 385.52514 265.614843 
L 388.483643 262.75186 
L 391.346711 258.951134 
L 394.305215 257.695709 
L 397.263718 256.918722 
L 400.126786 256.440283 
L 403.08529 255.91974 
L 405.948357 255.536989 
L 408.906861 255.096824 
L 411.865364 253.615575 
L 414.537561 253.11417 
L 417.496065 252.474974 
L 420.359132 251.969742 
L 423.317636 251.655886 
L 426.180704 251.273134 
L 429.139207 250.966932 
L 432.097711 250.572698 
L 434.960779 250.331564 
L 437.919282 250.021535 
L 440.78235 249.631129 
L 443.740853 249.221584 
L 446.699357 248.869453 
L 449.371554 248.593871 
L 452.330057 248.299152 
L 455.193125 247.931711 
" clip-path="url(#pbb0b1a7c12)" style="fill: none; stroke: #7f7f7f; stroke-width: 1.5; stroke-linecap: square"/>
   </g>
   <g id="line2d_33">
    <path d="M 179.288817 280.086688 
L 182.151885 280.071377 
L 185.110388 280.017792 
L 188.068892 279.987172 
L 190.93196 279.948897 
L 193.890463 279.822589 
L 196.753531 279.680971 
L 199.712035 279.585283 
L 202.670538 279.432182 
L 205.342735 279.321184 
L 208.301238 278.662851 
L 211.164306 278.119343 
L 214.12281 277.598801 
L 216.985878 277.150981 
L 219.944381 276.561544 
L 222.902884 276.094586 
L 225.765952 275.70418 
L 228.724456 275.371186 
L 231.587524 275.003744 
L 234.546027 274.678405 
L 237.504531 274.234413 
L 240.272163 273.817213 
L 243.230666 273.468909 
L 246.093734 273.05171 
L 249.052238 272.676613 
L 251.915306 272.408687 
L 254.873809 272.014453 
L 257.832313 271.643183 
L 260.69538 271.291052 
L 263.653884 270.98485 
L 266.516952 270.540858 
L 269.475455 270.181072 
L 272.433959 269.760045 
L 275.106155 269.36581 
L 278.064659 268.898853 
L 280.927727 268.500791 
L 283.88623 268.041489 
L 286.749298 267.689357 
L 289.707802 267.138195 
L 292.666305 266.701858 
L 295.529373 266.288486 
L 298.487876 265.836839 
L 301.350944 265.381364 
L 304.309448 265.013923 
L 307.267951 264.558448 
L 309.940148 264.191006 
L 312.898651 263.708739 
L 315.761719 263.234127 
L 318.720223 262.740377 
L 321.583291 262.25811 
L 324.541794 261.913633 
L 327.500298 261.427538 
L 330.363366 260.929961 
L 333.321869 260.413246 
L 336.184937 259.934806 
L 339.14344 259.502297 
L 342.101944 258.943479 
L 344.77414 258.48035 
L 347.732644 257.929187 
L 350.595712 257.43161 
L 353.554215 256.964653 
L 356.417283 256.528316 
L 359.375787 256.049876 
L 362.33429 255.682434 
L 365.197358 255.223132 
L 368.155862 254.77914 
L 371.018929 254.338976 
L 373.977433 253.841398 
L 376.935936 253.25196 
L 379.703569 252.68166 
L 382.662072 252.11136 
L 385.52514 251.544888 
L 388.483643 250.905692 
L 391.346711 250.316254 
L 394.305215 249.826332 
L 397.263718 249.340237 
L 400.126786 248.915383 
L 403.08529 248.459908 
L 405.948357 248.038881 
L 408.906861 247.583407 
L 411.865364 247.066692 
L 414.537561 246.680112 
L 417.496065 246.305016 
L 420.359132 245.956712 
L 423.317636 245.596925 
L 426.180704 245.271586 
L 429.139207 244.965385 
L 432.097711 244.567323 
L 434.960779 244.264949 
L 437.919282 243.9243 
L 440.78235 243.484135 
L 443.740853 242.971248 
L 446.699357 242.626771 
L 449.371554 242.221054 
L 452.330057 241.819165 
L 455.193125 241.516791 
" clip-path="url(#pbb0b1a7c12)" style="fill: none; stroke: #e377c2; stroke-width: 1.5; stroke-linecap: square"/>
   </g>
   <g id="line2d_34">
    <path d="M 379.703569 280.086688 
L 382.662072 260.929961 
L 385.52514 257.726329 
L 388.483643 256.945515 
L 391.346711 256.497696 
L 394.305215 249.129724 
L 397.263718 247.464754 
L 400.126786 246.756663 
L 403.08529 245.65051 
L 405.948357 244.674493 
L 408.906861 244.081228 
L 411.865364 243.082246 
L 414.537561 242.523428 
L 417.496065 242.075609 
L 420.359132 241.34838 
L 423.317636 240.931181 
L 426.180704 240.525464 
L 429.139207 240.073817 
L 432.097711 239.756133 
L 434.960779 239.396346 
L 437.919282 239.071007 
L 440.78235 238.833701 
L 443.740853 238.362916 
L 446.699357 237.915097 
L 449.371554 237.562965 
L 452.330057 236.548673 
L 455.193125 234.577501 
" clip-path="url(#pbb0b1a7c12)" style="fill: none; stroke: #8c564b; stroke-width: 1.5; stroke-linecap: square"/>
   </g>
   <g id="line2d_35">
    <path d="M 124.222478 280.086688 
L 127.085546 279.876174 
L 130.04405 279.876174 
L 133.002553 279.872347 
L 135.67475 279.791969 
L 138.633253 277.725109 
L 141.496321 277.468665 
L 144.454825 277.304082 
L 147.317893 277.150981 
L 150.276396 276.963433 
L 153.234899 276.764402 
L 156.097967 276.569199 
L 159.056471 276.446718 
L 161.919539 276.308927 
L 164.878042 276.190274 
L 167.836546 275.991243 
L 170.508742 275.864935 
L 173.467246 275.753937 
L 176.330314 275.593182 
L 179.288817 275.501321 
L 182.151885 275.409461 
L 185.110388 275.352048 
L 188.068892 275.252533 
L 190.93196 275.168327 
L 193.890463 275.076467 
L 196.753531 274.988434 
L 199.712035 274.934849 
L 202.670538 274.835333 
L 205.342735 274.77792 
L 208.301238 274.73199 
L 211.164306 274.659267 
L 214.12281 274.590372 
L 216.985878 274.509994 
L 219.944381 274.460236 
L 222.902884 274.418134 
L 225.765952 274.368376 
L 228.724456 270.548513 
L 231.587524 269.851905 
L 234.546027 269.538049 
L 237.504531 269.327535 
L 240.272163 269.147642 
L 243.230666 269.032816 
L 246.093734 268.952438 
L 249.052238 268.82613 
L 251.915306 268.74958 
L 254.873809 268.653892 
L 257.832313 268.573514 
L 260.69538 268.447206 
L 263.653884 268.282623 
L 266.516952 268.221382 
L 269.475455 268.052972 
L 272.433959 267.938146 
L 275.106155 266.885579 
L 278.064659 265.553603 
L 280.927727 262.300212 
L 283.88623 261.599777 
L 286.749298 261.213197 
L 289.707802 260.933789 
L 292.666305 260.685 
L 295.529373 260.394109 
L 298.487876 260.06877 
L 301.350944 259.464022 
L 304.309448 259.05065 
L 307.267951 258.621968 
L 309.940148 258.258354 
L 312.898651 257.917705 
L 315.761719 257.607676 
L 318.720223 257.37037 
L 321.583291 257.129236 
L 324.541794 256.761794 
L 327.500298 256.32163 
L 330.363366 256.019256 
L 333.321869 255.521678 
L 336.184937 255.127444 
L 339.14344 254.771485 
L 342.101944 254.430836 
L 344.77414 254.051912 
L 347.732644 253.642367 
L 350.595712 253.313201 
L 353.554215 252.907484 
L 356.417283 252.578317 
L 359.375787 252.222358 
L 362.33429 251.843434 
L 365.197358 251.46451 
L 368.155862 250.943967 
L 371.018929 250.576526 
L 373.977433 250.193774 
L 376.935936 249.642611 
L 379.703569 249.317272 
L 382.662072 248.808212 
L 385.52514 248.169017 
L 388.483643 247.751817 
L 391.346711 247.349928 
L 394.305215 246.507874 
L 397.263718 245.596925 
L 400.126786 245.015142 
L 403.08529 244.345327 
L 405.948357 243.836267 
L 408.906861 242.534911 
L 411.865364 241.677547 
L 414.537561 241.030696 
L 417.496065 240.360881 
L 420.359132 239.648962 
L 423.317636 238.971492 
L 426.180704 238.286366 
L 429.139207 237.650998 
L 432.097711 236.697946 
L 434.960779 235.93627 
L 437.919282 235.040631 
L 440.78235 234.344023 
L 443.740853 233.632104 
L 446.699357 232.60633 
L 449.371554 231.370041 
L 452.330057 230.313647 
L 455.193125 229.241942 
" clip-path="url(#pbb0b1a7c12)" style="fill: none; stroke: #9467bd; stroke-width: 1.5; stroke-linecap: square"/>
   </g>
   <g id="line2d_36">
    <path d="M 156.097967 280.086688 
L 159.056471 274.448754 
L 161.919539 270.559996 
L 164.878042 270.093039 
L 167.836546 269.687322 
L 170.508742 269.38112 
L 173.467246 268.473999 
L 176.330314 267.149677 
L 179.288817 266.14304 
L 182.151885 265.189988 
L 185.110388 264.244591 
L 188.068892 263.310677 
L 190.93196 262.686792 
L 193.890463 261.783498 
L 196.753531 261.083062 
L 199.712035 260.283111 
L 202.670538 259.372161 
L 205.342735 258.614313 
L 208.301238 257.707191 
L 211.164306 256.696726 
L 214.12281 255.977153 
L 216.985878 255.200167 
L 219.944381 254.564799 
L 222.902884 253.868191 
L 225.765952 253.320856 
L 228.724456 252.719935 
L 231.587524 252.042465 
L 234.546027 251.326719 
L 237.504531 250.496148 
L 240.272163 249.837815 
L 243.230666 249.060829 
L 246.093734 248.429288 
L 249.052238 247.767128 
L 251.915306 247.200655 
L 254.873809 246.481082 
L 257.832313 245.776818 
L 260.69538 245.107003 
L 263.653884 244.345327 
L 266.516952 243.767371 
L 269.475455 243.139659 
L 272.433959 242.481325 
L 275.106155 241.90337 
L 278.064659 241.160832 
L 280.927727 240.594359 
L 283.88623 240.14654 
L 286.749298 239.694893 
L 289.707802 239.185833 
L 292.666305 238.722703 
L 295.529373 238.175368 
L 298.487876 237.275901 
L 301.350944 236.449157 
L 304.309448 235.947753 
L 307.267951 235.404245 
L 309.940148 234.948771 
L 312.898651 234.539226 
L 315.761719 234.068441 
L 318.720223 233.494314 
L 321.583291 233.080942 
L 324.541794 232.68288 
L 327.500298 232.334576 
L 330.363366 231.990099 
L 333.321869 231.645623 
L 336.184937 231.289664 
L 339.14344 231.01791 
L 342.101944 230.677261 
L 344.77414 230.409334 
L 347.732644 230.003618 
L 350.595712 229.647658 
L 353.554215 229.4448 
L 356.417283 229.176874 
L 359.375787 228.912775 
L 362.33429 228.587436 
L 365.197358 228.308027 
L 368.155862 228.036273 
L 371.018929 227.726245 
L 373.977433 227.504248 
L 376.935936 227.159772 
L 379.703569 226.73109 
L 382.662072 226.275615 
L 385.52514 225.854588 
L 388.483643 225.437389 
L 391.346711 225.09674 
L 394.305215 224.794366 
L 397.263718 224.54175 
L 400.126786 224.208756 
L 403.08529 223.891072 
L 405.948357 223.535113 
L 408.906861 223.271014 
L 411.865364 222.911227 
L 414.537561 222.601198 
L 417.496065 222.141896 
L 420.359132 221.820385 
L 423.317636 221.548631 
L 426.180704 221.292187 
L 429.139207 220.955366 
L 432.097711 220.637682 
L 434.960779 220.369755 
L 437.919282 220.128622 
L 440.78235 219.898971 
L 443.740853 219.592769 
L 446.699357 219.305705 
L 449.371554 219.018642 
L 452.330057 218.735405 
L 455.193125 218.440686 
" clip-path="url(#pbb0b1a7c12)" style="fill: none; stroke: #d62728; stroke-width: 1.5; stroke-linecap: square"/>
   </g>
   <g id="line2d_37">
    <path d="M 179.288817 280.086688 
L 182.151885 280.079032 
L 185.110388 280.075205 
L 188.068892 280.06755 
L 190.93196 280.063722 
L 193.890463 280.05224 
L 196.753531 280.040757 
L 199.712035 280.03693 
L 202.670538 280.033102 
L 205.342735 280.033102 
L 208.301238 280.033102 
L 211.164306 280.025447 
L 214.12281 280.02162 
L 216.985878 280.013965 
L 219.944381 280.00631 
L 222.902884 279.998655 
L 225.765952 279.994827 
L 228.724456 279.987172 
L 231.587524 279.983345 
L 234.546027 279.983345 
L 237.504531 279.968034 
L 240.272163 279.948897 
L 243.230666 279.941242 
L 246.093734 279.922104 
L 249.052238 279.922104 
L 251.915306 279.914449 
L 254.873809 279.910622 
L 257.832313 279.902967 
L 260.69538 279.902967 
L 263.653884 279.895312 
L 266.516952 279.891484 
L 269.475455 279.887657 
L 272.433959 279.880002 
L 275.106155 279.876174 
L 278.064659 279.876174 
L 280.927727 279.876174 
L 283.88623 279.673316 
L 286.749298 256.317802 
L 289.707802 254.472939 
L 292.666305 244.739561 
L 295.529373 242.374155 
L 298.487876 241.623961 
L 301.350944 239.603032 
L 304.309448 238.565775 
L 307.267951 236.299884 
L 309.940148 235.212869 
L 312.898651 234.21006 
L 315.761719 232.985254 
L 318.720223 230.975807 
L 321.583291 229.624693 
L 324.541794 228.797949 
L 327.500298 228.158754 
L 330.363366 227.515731 
L 333.321869 226.754055 
L 336.184937 226.099549 
L 339.14344 225.349356 
L 342.101944 224.55706 
L 344.77414 223.833659 
L 347.732644 223.175326 
L 350.595712 222.50551 
L 353.554215 221.510356 
L 356.417283 220.737197 
L 359.375787 219.990831 
L 362.33429 219.328671 
L 365.197358 218.823438 
L 368.155862 218.245483 
L 371.018929 217.61777 
L 373.977433 216.748924 
L 376.935936 215.975765 
L 379.703569 215.026541 
L 382.662072 213.996938 
L 385.52514 213.085989 
L 388.483643 212.232453 
L 391.346711 211.382744 
L 394.305215 210.51007 
L 397.263718 209.740739 
L 400.126786 209.009683 
L 403.08529 208.35135 
L 405.948357 207.715982 
L 408.906861 206.877755 
L 411.865364 206.273007 
L 414.537561 205.756293 
L 417.496065 205.017582 
L 420.359132 204.409006 
L 423.317636 203.66264 
L 426.180704 203.080858 
L 429.139207 202.545005 
L 432.097711 201.771847 
L 434.960779 201.201546 
L 437.919282 200.619764 
L 440.78235 200.057119 
L 443.740853 199.563369 
L 446.699357 198.935656 
L 449.371554 198.384493 
L 452.330057 197.810366 
L 455.193125 197.2171 
" clip-path="url(#pbb0b1a7c12)" style="fill: none; stroke: #2ca02c; stroke-width: 1.5; stroke-linecap: square"/>
   </g>
   <g id="line2d_38">
    <path d="M 190.93196 280.086688 
L 193.890463 244.203708 
L 196.753531 238.852839 
L 199.712035 236.418537 
L 202.670538 234.141164 
L 205.342735 231.519315 
L 208.301238 229.192184 
L 211.164306 226.796158 
L 214.12281 223.829831 
L 216.985878 220.373583 
L 219.944381 217.594805 
L 222.902884 215.55091 
L 225.765952 213.39219 
L 228.724456 211.543499 
L 231.587524 209.082405 
L 234.546027 206.912203 
L 237.504531 204.745828 
L 240.272163 202.55266 
L 243.230666 199.896363 
L 246.093734 198.001742 
L 249.052238 195.800919 
L 251.915306 194.109156 
L 254.873809 192.428876 
L 257.832313 190.285466 
L 260.69538 188.540118 
L 263.653884 186.699082 
L 266.516952 184.965216 
L 269.475455 183.399761 
L 272.433959 181.868754 
L 275.106155 180.192301 
L 278.064659 177.72738 
L 280.927727 175.802139 
L 283.88623 173.919 
L 286.749298 172.311442 
L 289.707802 170.466579 
L 292.666305 168.786298 
L 295.529373 167.228499 
L 298.487876 165.108054 
L 301.350944 163.270845 
L 304.309448 161.762803 
L 307.267951 160.170556 
L 309.940148 158.926613 
L 312.898651 157.139162 
L 315.761719 155.504812 
L 318.720223 153.644638 
L 321.583291 152.289697 
L 324.541794 151.049581 
L 327.500298 149.686985 
L 330.363366 148.454524 
L 333.321869 147.340716 
L 336.184937 146.337907 
L 339.14344 145.365717 
L 342.101944 144.240427 
L 344.77414 143.2491 
L 347.732644 141.947744 
L 350.595712 140.761213 
L 353.554215 139.639751 
L 356.417283 138.782387 
L 359.375787 137.725992 
L 362.33429 136.72701 
L 365.197358 135.77013 
L 368.155862 134.813251 
L 371.018929 134.024782 
L 373.977433 133.282244 
L 376.935936 132.574153 
L 379.703569 131.892855 
L 382.662072 131.089076 
L 385.52514 130.116887 
L 388.483643 129.21742 
L 391.346711 128.226093 
L 394.305215 127.395521 
L 397.263718 126.526675 
L 400.126786 125.558313 
L 403.08529 124.857877 
L 405.948357 124.004341 
L 408.906861 123.25032 
L 411.865364 122.534574 
L 414.537561 121.906861 
L 417.496065 119.139566 
L 420.359132 118.094653 
L 423.317636 117.030603 
L 426.180704 115.89383 
L 429.139207 114.883366 
L 432.097711 113.700663 
L 434.960779 112.59451 
L 437.919282 111.587873 
L 440.78235 110.519996 
L 443.740853 109.429153 
L 446.699357 108.162245 
L 449.371554 106.902991 
L 452.330057 105.815976 
L 455.193125 104.579688 
" clip-path="url(#pbb0b1a7c12)" style="fill: none; stroke: #ff7f0e; stroke-width: 1.5; stroke-linecap: square"/>
   </g>
   <g id="line2d_39">
    <path d="M 98.073125 280.086688 
L 100.840757 248.153707 
L 103.799261 247.158552 
L 106.662329 246.477254 
L 109.620832 245.684958 
L 112.4839 245.011315 
L 115.442403 244.398912 
L 118.400907 244.023815 
L 121.263975 243.759716 
L 124.222478 243.499445 
L 127.085546 243.277449 
L 130.04405 243.047798 
L 133.002553 242.89087 
L 135.67475 241.379 
L 138.633253 238.699738 
L 141.496321 235.897995 
L 144.454825 232.541262 
L 147.317893 229.770139 
L 150.276396 227.037291 
L 153.234899 224.58768 
L 156.097967 222.666266 
L 159.056471 218.658855 
L 161.919539 215.929835 
L 164.878042 213.751977 
L 167.836546 211.497569 
L 170.508742 209.373297 
L 173.467246 206.958133 
L 176.330314 203.57078 
L 179.288817 199.490646 
L 182.151885 196.784591 
L 185.110388 193.714922 
L 188.068892 190.890214 
L 190.93196 188.04254 
L 193.890463 185.037939 
L 196.753531 182.435227 
L 199.712035 179.725344 
L 202.670538 176.563815 
L 205.342735 174.091238 
L 208.301238 170.83402 
L 211.164306 167.672491 
L 214.12281 164.893713 
L 216.985878 162.382861 
L 219.944381 159.167746 
L 222.902884 156.281798 
L 225.765952 153.514503 
L 228.724456 150.915618 
L 231.587524 148.404766 
L 234.546027 145.587713 
L 237.504531 142.64818 
L 240.272163 139.681853 
L 243.230666 136.348085 
L 246.093734 133.423862 
L 249.052238 130.495811 
L 251.915306 128.206955 
L 254.873809 125.952547 
L 257.832313 123.3728 
L 260.69538 120.092617 
L 263.653884 117.156911 
L 266.516952 114.443201 
L 269.475455 111.672078 
L 272.433959 109.364085 
L 275.106155 106.853234 
L 278.064659 104.162489 
L 280.927727 101.797083 
L 283.88623 99.592432 
L 286.749298 97.307404 
L 289.707802 94.838655 
L 292.666305 92.64166 
L 295.529373 90.743211 
L 298.487876 88.883038 
L 301.350944 87.034347 
L 304.309448 84.734008 
L 307.267951 82.904455 
L 309.940148 80.343846 
L 312.898651 78.307606 
L 315.761719 76.5125 
L 318.720223 74.560466 
L 321.583291 72.945254 
L 324.541794 71.712793 
L 327.500298 70.262164 
L 330.363366 69.102426 
L 333.321869 68.026893 
L 336.184937 66.870983 
L 339.14344 65.615557 
L 342.101944 64.092205 
L 344.77414 62.721954 
L 347.732644 60.911538 
L 350.595712 59.560424 
L 353.554215 58.301171 
L 356.417283 57.118468 
L 359.375787 55.633391 
L 362.33429 54.381793 
L 365.197358 53.27564 
L 368.155862 52.123557 
L 371.018929 51.090127 
L 373.977433 49.888287 
L 376.935936 48.904615 
L 379.703569 47.809945 
L 382.662072 46.535381 
L 385.52514 45.245508 
L 388.483643 43.963289 
L 391.346711 42.149046 
L 394.305215 40.897447 
L 397.263718 39.775985 
L 400.126786 38.803795 
L 403.08529 37.785676 
L 405.948357 36.319736 
L 408.906861 35.385822 
L 411.865364 34.467218 
L 414.537561 33.606026 
L 417.496065 32.664457 
L 420.359132 31.653992 
L 423.317636 30.796628 
L 426.180704 30.061745 
L 429.139207 29.414894 
L 432.097711 28.595805 
L 434.960779 27.872404 
L 437.919282 27.106901 
L 440.78235 25.503171 
L 443.740853 23.773133 
L 446.699357 22.540672 
L 449.371554 16.278853 
L 452.330057 15.03491 
L 455.193125 13.974688 
" clip-path="url(#pbb0b1a7c12)" style="fill: none; stroke: #1f77b4; stroke-width: 1.5; stroke-linecap: square"/>
   </g>
  </g>
 </g>
 <defs>
  <clipPath id="pbb0b1a7c12">
   <rect x="98.073125" y="13.974688" width="357.12" height="266.112"/>
  </clipPath>
 </defs>
</svg>
