<?xml version="1.0" encoding="utf-8" standalone="no"?>
<!DOCTYPE svg PUBLIC "-//W3C//DTD SVG 1.1//EN"
  "http://www.w3.org/Graphics/SVG/1.1/DTD/svg11.dtd">
<svg xmlns:xlink="http://www.w3.org/1999/xlink" width="537.408287pt" height="351.37963pt" viewBox="0 0 537.408287 351.37963" xmlns="http://www.w3.org/2000/svg" version="1.1">
 <metadata>
  <rdf:RDF xmlns:dc="http://purl.org/dc/elements/1.1/" xmlns:cc="http://creativecommons.org/ns#" xmlns:rdf="http://www.w3.org/1999/02/22-rdf-syntax-ns#">
   <cc:Work>
    <dc:type rdf:resource="http://purl.org/dc/dcmitype/StillImage"/>
    <dc:date>2022-02-02T14:58:53.888557</dc:date>
    <dc:format>image/svg+xml</dc:format>
    <dc:creator>
     <cc:Agent>
      <dc:title>Matplotlib v3.5.1, https://matplotlib.org/</dc:title>
     </cc:Agent>
    </dc:creator>
   </cc:Work>
  </rdf:RDF>
 </metadata>
 <defs>
  <style type="text/css">*{stroke-linejoin: round; stroke-linecap: butt}</style>
 </defs>
 <g id="figure_1">
  <g id="patch_1">
   <path d="M 0 351.37963 
L 537.408287 351.37963 
L 537.408287 0 
L 0 0 
L 0 351.37963 
z
" style="fill: none"/>
  </g>
  <g id="axes_1">
   <g id="patch_2">
    <path d="M 82.47625 307.85243 
L 439.59625 307.85243 
L 439.59625 41.74043 
L 82.47625 41.74043 
L 82.47625 307.85243 
z
" style="fill: none"/>
   </g>
   <g id="matplotlib.axis_1">
    <g id="xtick_1">
     <g id="line2d_1">
      <defs>
       <path id="mb1b9221a54" d="M 0 0 
L 0 3.5 
" style="stroke: #b0b0b0; stroke-width: 0.4"/>
      </defs>
      <g>
       <use xlink:href="#mb1b9221a54" x="95.141552" y="307.85243" style="fill: #b0b0b0; stroke: #b0b0b0; stroke-width: 0.4"/>
      </g>
     </g>
     <g id="text_1">
      <!-- 2013 -->
      <g style="fill: #b0b0b0" transform="translate(80.778427 324.79243)scale(0.14 -0.14)">
       <defs>
        <path id="MyriadPro-Regular-32" d="M 2944 0 
L 2944 467 
L 1075 467 
L 1075 480 
L 1408 787 
C 2285 1632 2842 2253 2842 3021 
C 2842 3616 2464 4230 1568 4230 
C 1088 4230 678 4051 390 3808 
L 570 3411 
C 762 3571 1075 3763 1453 3763 
C 2074 3763 2278 3373 2278 2950 
C 2272 2323 1792 1786 730 774 
L 288 346 
L 288 0 
L 2944 0 
z
" transform="scale(0.015625)"/>
        <path id="MyriadPro-Regular-30" d="M 1677 4230 
C 832 4230 230 3462 230 2067 
C 243 691 794 -70 1606 -70 
C 2528 -70 3053 710 3053 2125 
C 3053 3450 2554 4230 1677 4230 
z
M 1645 3795 
C 2227 3795 2490 3123 2490 2099 
C 2490 1037 2214 365 1638 365 
C 1126 365 794 979 794 2061 
C 794 3194 1152 3795 1645 3795 
z
" transform="scale(0.015625)"/>
        <path id="MyriadPro-Regular-31" d="M 1510 0 
L 2054 0 
L 2054 4160 
L 1574 4160 
L 666 3674 
L 774 3245 
L 1498 3635 
L 1510 3635 
L 1510 0 
z
" transform="scale(0.015625)"/>
        <path id="MyriadPro-Regular-33" d="M 269 211 
C 474 77 883 -70 1350 -70 
C 2349 -70 2867 512 2867 1178 
C 2867 1760 2451 2144 1939 2246 
L 1939 2259 
C 2451 2445 2707 2810 2707 3238 
C 2707 3744 2336 4230 1517 4230 
C 1069 4230 646 4070 429 3910 
L 576 3501 
C 755 3629 1075 3776 1408 3776 
C 1926 3776 2138 3482 2138 3149 
C 2138 2656 1619 2445 1210 2445 
L 896 2445 
L 896 2022 
L 1210 2022 
C 1754 2022 2278 1773 2285 1190 
C 2291 845 2067 384 1344 384 
C 954 384 582 544 422 646 
L 269 211 
z
" transform="scale(0.015625)"/>
       </defs>
       <use xlink:href="#MyriadPro-Regular-32"/>
       <use xlink:href="#MyriadPro-Regular-30" x="51.299988"/>
       <use xlink:href="#MyriadPro-Regular-31" x="102.599976"/>
       <use xlink:href="#MyriadPro-Regular-33" x="153.899963"/>
      </g>
     </g>
    </g>
    <g id="xtick_2">
     <g id="line2d_2">
      <g>
       <use xlink:href="#mb1b9221a54" x="133.033645" y="307.85243" style="fill: #b0b0b0; stroke: #b0b0b0; stroke-width: 0.4"/>
      </g>
     </g>
     <g id="text_2">
      <!-- 2014 -->
      <g style="fill: #b0b0b0" transform="translate(118.67052 324.79243)scale(0.14 -0.14)">
       <defs>
        <path id="MyriadPro-Regular-34" d="M 2560 0 
L 2560 1133 
L 3142 1133 
L 3142 1574 
L 2560 1574 
L 2560 4160 
L 1952 4160 
L 96 1504 
L 96 1133 
L 2029 1133 
L 2029 0 
L 2560 0 
z
M 666 1574 
L 666 1587 
L 1683 3002 
C 1798 3194 1901 3373 2029 3616 
L 2048 3616 
C 2035 3398 2029 3181 2029 2963 
L 2029 1574 
L 666 1574 
z
" transform="scale(0.015625)"/>
       </defs>
       <use xlink:href="#MyriadPro-Regular-32"/>
       <use xlink:href="#MyriadPro-Regular-30" x="51.299988"/>
       <use xlink:href="#MyriadPro-Regular-31" x="102.599976"/>
       <use xlink:href="#MyriadPro-Regular-34" x="153.899963"/>
      </g>
     </g>
    </g>
    <g id="xtick_3">
     <g id="line2d_3">
      <g>
       <use xlink:href="#mb1b9221a54" x="170.925738" y="307.85243" style="fill: #b0b0b0; stroke: #b0b0b0; stroke-width: 0.4"/>
      </g>
     </g>
     <g id="text_3">
      <!-- 2015 -->
      <g style="fill: #b0b0b0" transform="translate(156.562613 324.79243)scale(0.14 -0.14)">
       <defs>
        <path id="MyriadPro-Regular-35" d="M 2771 4160 
L 781 4160 
L 512 2163 
C 666 2182 851 2208 1088 2208 
C 1920 2208 2278 1824 2285 1286 
C 2285 730 1830 384 1299 384 
C 922 384 582 512 410 614 
L 269 186 
C 467 58 851 -70 1306 -70 
C 2208 -70 2854 538 2854 1350 
C 2854 1875 2586 2234 2259 2419 
C 2003 2573 1683 2643 1363 2643 
C 1210 2643 1120 2630 1024 2618 
L 1184 3686 
L 2771 3686 
L 2771 4160 
z
" transform="scale(0.015625)"/>
       </defs>
       <use xlink:href="#MyriadPro-Regular-32"/>
       <use xlink:href="#MyriadPro-Regular-30" x="51.299988"/>
       <use xlink:href="#MyriadPro-Regular-31" x="102.599976"/>
       <use xlink:href="#MyriadPro-Regular-35" x="153.899963"/>
      </g>
     </g>
    </g>
    <g id="xtick_4">
     <g id="line2d_4">
      <g>
       <use xlink:href="#mb1b9221a54" x="208.817831" y="307.85243" style="fill: #b0b0b0; stroke: #b0b0b0; stroke-width: 0.4"/>
      </g>
     </g>
     <g id="text_4">
      <!-- 2016 -->
      <g style="fill: #b0b0b0" transform="translate(194.454706 324.79243)scale(0.14 -0.14)">
       <defs>
        <path id="MyriadPro-Regular-36" d="M 2662 4224 
C 2560 4224 2419 4218 2253 4192 
C 1728 4128 1267 3917 922 3578 
C 512 3168 218 2522 218 1702 
C 218 621 800 -70 1690 -70 
C 2554 -70 3072 634 3072 1395 
C 3072 2208 2554 2739 1818 2739 
C 1357 2739 1011 2522 813 2259 
L 794 2259 
C 890 2944 1357 3590 2240 3738 
C 2400 3763 2547 3770 2662 3763 
L 2662 4224 
z
M 1690 365 
C 1101 365 787 870 774 1555 
C 774 1658 800 1741 838 1805 
C 992 2106 1306 2317 1645 2317 
C 2163 2317 2502 1958 2502 1363 
C 2502 768 2176 365 1696 365 
L 1690 365 
z
" transform="scale(0.015625)"/>
       </defs>
       <use xlink:href="#MyriadPro-Regular-32"/>
       <use xlink:href="#MyriadPro-Regular-30" x="51.299988"/>
       <use xlink:href="#MyriadPro-Regular-31" x="102.599976"/>
       <use xlink:href="#MyriadPro-Regular-36" x="153.899963"/>
      </g>
     </g>
    </g>
    <g id="xtick_5">
     <g id="line2d_5">
      <g>
       <use xlink:href="#mb1b9221a54" x="246.813738" y="307.85243" style="fill: #b0b0b0; stroke: #b0b0b0; stroke-width: 0.4"/>
      </g>
     </g>
     <g id="text_5">
      <!-- 2017 -->
      <g style="fill: #b0b0b0" transform="translate(232.450613 324.79243)scale(0.14 -0.14)">
       <defs>
        <path id="MyriadPro-Regular-37" d="M 365 4160 
L 365 3693 
L 2400 3693 
L 2400 3680 
L 595 0 
L 1178 0 
L 2989 3789 
L 2989 4160 
L 365 4160 
z
" transform="scale(0.015625)"/>
       </defs>
       <use xlink:href="#MyriadPro-Regular-32"/>
       <use xlink:href="#MyriadPro-Regular-30" x="51.299988"/>
       <use xlink:href="#MyriadPro-Regular-31" x="102.599976"/>
       <use xlink:href="#MyriadPro-Regular-37" x="153.899963"/>
      </g>
     </g>
    </g>
    <g id="xtick_6">
     <g id="line2d_6">
      <g>
       <use xlink:href="#mb1b9221a54" x="284.705831" y="307.85243" style="fill: #b0b0b0; stroke: #b0b0b0; stroke-width: 0.4"/>
      </g>
     </g>
     <g id="text_6">
      <!-- 2018 -->
      <g style="fill: #b0b0b0" transform="translate(270.342706 324.79243)scale(0.14 -0.14)">
       <defs>
        <path id="MyriadPro-Regular-38" d="M 1062 2170 
C 550 1952 237 1581 237 1056 
C 237 448 762 -70 1632 -70 
C 2426 -70 3046 416 3046 1139 
C 3046 1645 2726 2010 2208 2214 
L 2208 2234 
C 2720 2477 2893 2854 2893 3206 
C 2893 3725 2490 4230 1683 4230 
C 954 4230 397 3782 397 3123 
C 397 2765 595 2406 1056 2189 
L 1062 2170 
z
M 1645 339 
C 1114 339 794 710 813 1133 
C 813 1530 1075 1850 1562 1990 
C 2125 1830 2477 1587 2477 1082 
C 2477 659 2150 339 1645 339 
z
M 1651 3827 
C 2157 3827 2355 3482 2355 3149 
C 2355 2771 2080 2515 1722 2394 
C 1242 2522 928 2746 928 3162 
C 928 3520 1184 3827 1651 3827 
z
" transform="scale(0.015625)"/>
       </defs>
       <use xlink:href="#MyriadPro-Regular-32"/>
       <use xlink:href="#MyriadPro-Regular-30" x="51.299988"/>
       <use xlink:href="#MyriadPro-Regular-31" x="102.599976"/>
       <use xlink:href="#MyriadPro-Regular-38" x="153.899963"/>
      </g>
     </g>
    </g>
    <g id="xtick_7">
     <g id="line2d_7">
      <g>
       <use xlink:href="#mb1b9221a54" x="322.597924" y="307.85243" style="fill: #b0b0b0; stroke: #b0b0b0; stroke-width: 0.4"/>
      </g>
     </g>
     <g id="text_7">
      <!-- 2019 -->
      <g style="fill: #b0b0b0" transform="translate(308.234799 324.79243)scale(0.14 -0.14)">
       <defs>
        <path id="MyriadPro-Regular-39" d="M 614 -64 
C 749 -70 928 -64 1133 -32 
C 1581 19 2022 211 2342 525 
C 2752 922 3059 1562 3059 2477 
C 3059 3539 2534 4230 1683 4230 
C 832 4230 262 3539 262 2752 
C 262 2042 742 1478 1491 1478 
C 1907 1478 2240 1645 2470 1926 
L 2490 1926 
C 2413 1434 2214 1069 1939 819 
C 1702 595 1395 461 1069 416 
C 877 397 736 384 614 397 
L 614 -64 
z
M 1638 3802 
C 2227 3802 2490 3258 2490 2547 
C 2490 2458 2470 2394 2438 2342 
C 2291 2093 1997 1907 1619 1907 
C 1133 1907 819 2272 819 2790 
C 819 3379 1158 3802 1632 3802 
L 1638 3802 
z
" transform="scale(0.015625)"/>
       </defs>
       <use xlink:href="#MyriadPro-Regular-32"/>
       <use xlink:href="#MyriadPro-Regular-30" x="51.299988"/>
       <use xlink:href="#MyriadPro-Regular-31" x="102.599976"/>
       <use xlink:href="#MyriadPro-Regular-39" x="153.899963"/>
      </g>
     </g>
    </g>
    <g id="xtick_8">
     <g id="line2d_8">
      <g>
       <use xlink:href="#mb1b9221a54" x="360.490017" y="307.85243" style="fill: #b0b0b0; stroke: #b0b0b0; stroke-width: 0.4"/>
      </g>
     </g>
     <g id="text_8">
      <!-- 2020 -->
      <g style="fill: #b0b0b0" transform="translate(346.126892 324.79243)scale(0.14 -0.14)">
       <use xlink:href="#MyriadPro-Regular-32"/>
       <use xlink:href="#MyriadPro-Regular-30" x="51.299988"/>
       <use xlink:href="#MyriadPro-Regular-32" x="102.599976"/>
       <use xlink:href="#MyriadPro-Regular-30" x="153.899963"/>
      </g>
     </g>
    </g>
    <g id="xtick_9">
     <g id="line2d_9">
      <g>
       <use xlink:href="#mb1b9221a54" x="398.485924" y="307.85243" style="fill: #b0b0b0; stroke: #b0b0b0; stroke-width: 0.4"/>
      </g>
     </g>
     <g id="text_9">
      <!-- 2021 -->
      <g style="fill: #b0b0b0" transform="translate(384.122799 324.79243)scale(0.14 -0.14)">
       <use xlink:href="#MyriadPro-Regular-32"/>
       <use xlink:href="#MyriadPro-Regular-30" x="51.299988"/>
       <use xlink:href="#MyriadPro-Regular-32" x="102.599976"/>
       <use xlink:href="#MyriadPro-Regular-31" x="153.899963"/>
      </g>
     </g>
    </g>
    <g id="xtick_10">
     <g id="line2d_10">
      <g>
       <use xlink:href="#mb1b9221a54" x="436.378017" y="307.85243" style="fill: #b0b0b0; stroke: #b0b0b0; stroke-width: 0.4"/>
      </g>
     </g>
     <g id="text_10">
      <!-- 2022 -->
      <g style="fill: #b0b0b0" transform="translate(422.014892 324.79243)scale(0.14 -0.14)">
       <use xlink:href="#MyriadPro-Regular-32"/>
       <use xlink:href="#MyriadPro-Regular-30" x="51.299988"/>
       <use xlink:href="#MyriadPro-Regular-32" x="102.599976"/>
       <use xlink:href="#MyriadPro-Regular-32" x="153.899963"/>
      </g>
     </g>
    </g>
   </g>
   <g id="matplotlib.axis_2">
    <g id="ytick_1">
     <g id="line2d_11">
      <path d="M 82.47625 307.85243 
L 439.59625 307.85243 
" clip-path="url(#paff595c6d1)" style="fill: none; stroke: #b0b0b0; stroke-width: 0.3; stroke-linecap: square"/>
     </g>
     <g id="line2d_12">
      <defs>
       <path id="m8e28eca589" d="M 0 0 
L -3.5 0 
" style="stroke: #b0b0b0; stroke-width: 0.3"/>
      </defs>
      <g>
       <use xlink:href="#m8e28eca589" x="82.47625" y="307.85243" style="fill: #b0b0b0; stroke: #b0b0b0; stroke-width: 0.3"/>
      </g>
     </g>
     <g id="text_11">
      <!-- 0 -->
      <g style="fill: #b0b0b0" transform="translate(68.294687 312.82243)scale(0.14 -0.14)">
       <use xlink:href="#MyriadPro-Regular-30"/>
      </g>
     </g>
    </g>
    <g id="ytick_2">
     <g id="line2d_13">
      <path d="M 82.47625 275.186221 
L 439.59625 275.186221 
" clip-path="url(#paff595c6d1)" style="fill: none; stroke: #b0b0b0; stroke-width: 0.3; stroke-linecap: square"/>
     </g>
     <g id="line2d_14">
      <g>
       <use xlink:href="#m8e28eca589" x="82.47625" y="275.186221" style="fill: #b0b0b0; stroke: #b0b0b0; stroke-width: 0.3"/>
      </g>
     </g>
     <g id="text_12">
      <!-- 5000 -->
      <g style="fill: #b0b0b0" transform="translate(46.75 280.156221)scale(0.14 -0.14)">
       <use xlink:href="#MyriadPro-Regular-35"/>
       <use xlink:href="#MyriadPro-Regular-30" x="51.299988"/>
       <use xlink:href="#MyriadPro-Regular-30" x="102.599976"/>
       <use xlink:href="#MyriadPro-Regular-30" x="153.899963"/>
      </g>
     </g>
    </g>
    <g id="ytick_3">
     <g id="line2d_15">
      <path d="M 82.47625 242.520013 
L 439.59625 242.520013 
" clip-path="url(#paff595c6d1)" style="fill: none; stroke: #b0b0b0; stroke-width: 0.3; stroke-linecap: square"/>
     </g>
     <g id="line2d_16">
      <g>
       <use xlink:href="#m8e28eca589" x="82.47625" y="242.520013" style="fill: #b0b0b0; stroke: #b0b0b0; stroke-width: 0.3"/>
      </g>
     </g>
     <g id="text_13">
      <!-- 10000 -->
      <g style="fill: #b0b0b0" transform="translate(39.568437 247.490013)scale(0.14 -0.14)">
       <use xlink:href="#MyriadPro-Regular-31"/>
       <use xlink:href="#MyriadPro-Regular-30" x="51.299988"/>
       <use xlink:href="#MyriadPro-Regular-30" x="102.599976"/>
       <use xlink:href="#MyriadPro-Regular-30" x="153.899963"/>
       <use xlink:href="#MyriadPro-Regular-30" x="205.199951"/>
      </g>
     </g>
    </g>
    <g id="ytick_4">
     <g id="line2d_17">
      <path d="M 82.47625 209.853804 
L 439.59625 209.853804 
" clip-path="url(#paff595c6d1)" style="fill: none; stroke: #b0b0b0; stroke-width: 0.3; stroke-linecap: square"/>
     </g>
     <g id="line2d_18">
      <g>
       <use xlink:href="#m8e28eca589" x="82.47625" y="209.853804" style="fill: #b0b0b0; stroke: #b0b0b0; stroke-width: 0.3"/>
      </g>
     </g>
     <g id="text_14">
      <!-- 15000 -->
      <g style="fill: #b0b0b0" transform="translate(39.568437 214.823804)scale(0.14 -0.14)">
       <use xlink:href="#MyriadPro-Regular-31"/>
       <use xlink:href="#MyriadPro-Regular-35" x="51.299988"/>
       <use xlink:href="#MyriadPro-Regular-30" x="102.599976"/>
       <use xlink:href="#MyriadPro-Regular-30" x="153.899963"/>
       <use xlink:href="#MyriadPro-Regular-30" x="205.199951"/>
      </g>
     </g>
    </g>
    <g id="ytick_5">
     <g id="line2d_19">
      <path d="M 82.47625 177.187596 
L 439.59625 177.187596 
" clip-path="url(#paff595c6d1)" style="fill: none; stroke: #b0b0b0; stroke-width: 0.3; stroke-linecap: square"/>
     </g>
     <g id="line2d_20">
      <g>
       <use xlink:href="#m8e28eca589" x="82.47625" y="177.187596" style="fill: #b0b0b0; stroke: #b0b0b0; stroke-width: 0.3"/>
      </g>
     </g>
     <g id="text_15">
      <!-- 20000 -->
      <g style="fill: #b0b0b0" transform="translate(39.568437 182.157596)scale(0.14 -0.14)">
       <use xlink:href="#MyriadPro-Regular-32"/>
       <use xlink:href="#MyriadPro-Regular-30" x="51.299988"/>
       <use xlink:href="#MyriadPro-Regular-30" x="102.599976"/>
       <use xlink:href="#MyriadPro-Regular-30" x="153.899963"/>
       <use xlink:href="#MyriadPro-Regular-30" x="205.199951"/>
      </g>
     </g>
    </g>
    <g id="ytick_6">
     <g id="line2d_21">
      <path d="M 82.47625 144.521388 
L 439.59625 144.521388 
" clip-path="url(#paff595c6d1)" style="fill: none; stroke: #b0b0b0; stroke-width: 0.3; stroke-linecap: square"/>
     </g>
     <g id="line2d_22">
      <g>
       <use xlink:href="#m8e28eca589" x="82.47625" y="144.521388" style="fill: #b0b0b0; stroke: #b0b0b0; stroke-width: 0.3"/>
      </g>
     </g>
     <g id="text_16">
      <!-- 25000 -->
      <g style="fill: #b0b0b0" transform="translate(39.568437 149.491388)scale(0.14 -0.14)">
       <use xlink:href="#MyriadPro-Regular-32"/>
       <use xlink:href="#MyriadPro-Regular-35" x="51.299988"/>
       <use xlink:href="#MyriadPro-Regular-30" x="102.599976"/>
       <use xlink:href="#MyriadPro-Regular-30" x="153.899963"/>
       <use xlink:href="#MyriadPro-Regular-30" x="205.199951"/>
      </g>
     </g>
    </g>
    <g id="ytick_7">
     <g id="line2d_23">
      <path d="M 82.47625 111.855179 
L 439.59625 111.855179 
" clip-path="url(#paff595c6d1)" style="fill: none; stroke: #b0b0b0; stroke-width: 0.3; stroke-linecap: square"/>
     </g>
     <g id="line2d_24">
      <g>
       <use xlink:href="#m8e28eca589" x="82.47625" y="111.855179" style="fill: #b0b0b0; stroke: #b0b0b0; stroke-width: 0.3"/>
      </g>
     </g>
     <g id="text_17">
      <!-- 30000 -->
      <g style="fill: #b0b0b0" transform="translate(39.568437 116.825179)scale(0.14 -0.14)">
       <use xlink:href="#MyriadPro-Regular-33"/>
       <use xlink:href="#MyriadPro-Regular-30" x="51.299988"/>
       <use xlink:href="#MyriadPro-Regular-30" x="102.599976"/>
       <use xlink:href="#MyriadPro-Regular-30" x="153.899963"/>
       <use xlink:href="#MyriadPro-Regular-30" x="205.199951"/>
      </g>
     </g>
    </g>
    <g id="ytick_8">
     <g id="line2d_25">
      <path d="M 82.47625 79.188971 
L 439.59625 79.188971 
" clip-path="url(#paff595c6d1)" style="fill: none; stroke: #b0b0b0; stroke-width: 0.3; stroke-linecap: square"/>
     </g>
     <g id="line2d_26">
      <g>
       <use xlink:href="#m8e28eca589" x="82.47625" y="79.188971" style="fill: #b0b0b0; stroke: #b0b0b0; stroke-width: 0.3"/>
      </g>
     </g>
     <g id="text_18">
      <!-- 35000 -->
      <g style="fill: #b0b0b0" transform="translate(39.568437 84.158971)scale(0.14 -0.14)">
       <use xlink:href="#MyriadPro-Regular-33"/>
       <use xlink:href="#MyriadPro-Regular-35" x="51.299988"/>
       <use xlink:href="#MyriadPro-Regular-30" x="102.599976"/>
       <use xlink:href="#MyriadPro-Regular-30" x="153.899963"/>
       <use xlink:href="#MyriadPro-Regular-30" x="205.199951"/>
      </g>
     </g>
    </g>
    <g id="ytick_9">
     <g id="line2d_27">
      <path d="M 82.47625 46.522763 
L 439.59625 46.522763 
" clip-path="url(#paff595c6d1)" style="fill: none; stroke: #b0b0b0; stroke-width: 0.3; stroke-linecap: square"/>
     </g>
     <g id="line2d_28">
      <g>
       <use xlink:href="#m8e28eca589" x="82.47625" y="46.522763" style="fill: #b0b0b0; stroke: #b0b0b0; stroke-width: 0.3"/>
      </g>
     </g>
     <g id="text_19">
      <!-- 40000 -->
      <g style="fill: #b0b0b0" transform="translate(39.568437 51.492763)scale(0.14 -0.14)">
       <use xlink:href="#MyriadPro-Regular-34"/>
       <use xlink:href="#MyriadPro-Regular-30" x="51.299988"/>
       <use xlink:href="#MyriadPro-Regular-30" x="102.599976"/>
       <use xlink:href="#MyriadPro-Regular-30" x="153.899963"/>
       <use xlink:href="#MyriadPro-Regular-30" x="205.199951"/>
      </g>
     </g>
    </g>
    <g id="text_20">
     <!-- GitHub stars -->
     <g style="fill: #b0b0b0" transform="translate(7.2 17.14)scale(0.14 -0.14)">
      <defs>
       <path id="MyriadPro-Regular-47" d="M 3770 2266 
L 2349 2266 
L 2349 1818 
L 3226 1818 
L 3226 531 
C 3098 467 2848 416 2483 416 
C 1478 416 819 1062 819 2157 
C 819 3238 1504 3891 2554 3891 
C 2989 3891 3277 3808 3507 3706 
L 3642 4160 
C 3456 4250 3066 4358 2566 4358 
C 1120 4358 237 3418 230 2131 
C 230 1459 461 883 832 525 
C 1254 122 1792 -45 2445 -45 
C 3027 -45 3520 102 3770 192 
L 3770 2266 
z
" transform="scale(0.015625)"/>
       <path id="MyriadPro-Regular-69" d="M 1030 0 
L 1030 3098 
L 467 3098 
L 467 0 
L 1030 0 
z
M 749 4320 
C 544 4320 397 4166 397 3968 
C 397 3776 538 3622 736 3622 
C 960 3622 1101 3776 1094 3968 
C 1094 4166 960 4320 749 4320 
z
" transform="scale(0.015625)"/>
       <path id="MyriadPro-Regular-74" d="M 595 3667 
L 595 3098 
L 115 3098 
L 115 2669 
L 595 2669 
L 595 979 
C 595 614 653 339 813 173 
C 947 19 1158 -70 1421 -70 
C 1638 -70 1811 -32 1920 13 
L 1894 435 
C 1811 410 1722 397 1568 397 
C 1254 397 1146 614 1146 998 
L 1146 2669 
L 1952 2669 
L 1952 3098 
L 1146 3098 
L 1146 3840 
L 595 3667 
z
" transform="scale(0.015625)"/>
       <path id="MyriadPro-Regular-48" d="M 486 4314 
L 486 0 
L 1043 0 
L 1043 2022 
L 3130 2022 
L 3130 0 
L 3693 0 
L 3693 4314 
L 3130 4314 
L 3130 2509 
L 1043 2509 
L 1043 4314 
L 486 4314 
z
" transform="scale(0.015625)"/>
       <path id="MyriadPro-Regular-75" d="M 3059 3098 
L 2496 3098 
L 2496 1197 
C 2496 1094 2477 992 2445 909 
C 2342 659 2080 397 1702 397 
C 1190 397 1011 794 1011 1382 
L 1011 3098 
L 448 3098 
L 448 1286 
C 448 198 1030 -70 1517 -70 
C 2067 -70 2394 256 2541 506 
L 2554 506 
L 2586 0 
L 3085 0 
C 3066 243 3059 525 3059 845 
L 3059 3098 
z
" transform="scale(0.015625)"/>
       <path id="MyriadPro-Regular-62" d="M 467 800 
C 467 525 454 211 442 0 
L 928 0 
L 954 512 
L 973 512 
C 1203 102 1562 -70 2010 -70 
C 2701 -70 3398 480 3398 1587 
C 3405 2528 2861 3168 2093 3168 
C 1594 3168 1235 2944 1037 2598 
L 1024 2598 
L 1024 4544 
L 467 4544 
L 467 800 
z
M 1024 1798 
C 1024 1888 1043 1965 1056 2029 
C 1171 2458 1530 2720 1914 2720 
C 2515 2720 2835 2189 2835 1568 
C 2835 858 2483 378 1894 378 
C 1485 378 1158 646 1050 1037 
C 1037 1101 1024 1171 1024 1242 
L 1024 1798 
z
" transform="scale(0.015625)"/>
       <path id="MyriadPro-Regular-20" transform="scale(0.015625)"/>
       <path id="MyriadPro-Regular-73" d="M 250 147 
C 467 19 781 -70 1120 -70 
C 1856 -70 2278 320 2278 864 
C 2278 1325 2003 1594 1466 1798 
C 1062 1952 877 2067 877 2323 
C 877 2554 1062 2746 1395 2746 
C 1683 2746 1907 2643 2029 2566 
L 2170 2976 
C 1997 3078 1722 3168 1408 3168 
C 742 3168 339 2758 339 2259 
C 339 1888 602 1581 1158 1382 
C 1574 1229 1734 1082 1734 813 
C 1734 557 1542 352 1133 352 
C 851 352 557 467 390 576 
L 250 147 
z
" transform="scale(0.015625)"/>
       <path id="MyriadPro-Regular-61" d="M 2643 1901 
C 2643 2522 2413 3168 1466 3168 
C 1075 3168 704 3059 448 2893 
L 576 2522 
C 794 2662 1094 2752 1382 2752 
C 2016 2752 2086 2291 2086 2035 
L 2086 1971 
C 890 1978 224 1568 224 819 
C 224 371 544 -70 1171 -70 
C 1613 -70 1946 147 2118 390 
L 2138 390 
L 2182 0 
L 2694 0 
C 2656 211 2643 474 2643 742 
L 2643 1901 
z
M 2099 1043 
C 2099 986 2086 922 2067 864 
C 1978 602 1722 346 1318 346 
C 1030 346 787 518 787 883 
C 787 1485 1485 1594 2099 1581 
L 2099 1043 
z
" transform="scale(0.015625)"/>
       <path id="MyriadPro-Regular-72" d="M 467 0 
L 1024 0 
L 1024 1651 
C 1024 1747 1037 1837 1050 1914 
C 1126 2336 1408 2637 1805 2637 
C 1882 2637 1939 2630 1997 2618 
L 1997 3149 
C 1946 3162 1901 3168 1837 3168 
C 1459 3168 1120 2906 979 2490 
L 954 2490 
L 934 3098 
L 442 3098 
C 461 2810 467 2496 467 2131 
L 467 0 
z
" transform="scale(0.015625)"/>
      </defs>
      <use xlink:href="#MyriadPro-Regular-47"/>
      <use xlink:href="#MyriadPro-Regular-69" x="64.599991"/>
      <use xlink:href="#MyriadPro-Regular-74" x="87.999985"/>
      <use xlink:href="#MyriadPro-Regular-48" x="121.099976"/>
      <use xlink:href="#MyriadPro-Regular-75" x="186.299973"/>
      <use xlink:href="#MyriadPro-Regular-62" x="241.399963"/>
      <use xlink:href="#MyriadPro-Regular-20" x="298.299957"/>
      <use xlink:href="#MyriadPro-Regular-73" x="319.499954"/>
      <use xlink:href="#MyriadPro-Regular-74" x="359.099945"/>
      <use xlink:href="#MyriadPro-Regular-61" x="392.199936"/>
      <use xlink:href="#MyriadPro-Regular-72" x="440.399933"/>
      <use xlink:href="#MyriadPro-Regular-73" x="473.09993"/>
     </g>
    </g>
   </g>
   <g id="line2d_29">
    <path d="M 303.496157 307.85243 
L 306.71439 306.571914 
L 309.932622 305.291399 
L 313.047041 304.304879 
L 316.265273 303.390226 
L 319.379692 302.527838 
L 322.597924 301.632784 
L 325.816157 300.515599 
L 328.722948 299.614012 
L 331.94118 298.653625 
L 335.055599 297.843503 
L 338.273831 297.066048 
L 341.38825 296.327791 
L 344.606483 295.556869 
L 347.824715 294.720614 
L 350.939134 294.015024 
L 354.157366 293.165702 
L 357.271785 292.499312 
L 360.490017 291.93092 
L 363.70825 291.329861 
L 366.718855 290.709203 
L 369.937087 289.592019 
L 373.051506 288.768831 
L 376.269738 287.893376 
L 379.384157 287.17472 
L 382.60239 286.397264 
L 385.820622 285.672074 
L 388.935041 284.946884 
L 392.153273 284.09103 
L 395.267692 283.483438 
L 398.485924 282.908513 
L 401.704157 282.268255 
L 404.610948 281.20987 
L 407.82918 280.327882 
L 410.943599 279.563493 
L 414.161831 278.85137 
L 417.27625 278.10658 
L 420.494483 277.276859 
L 423.712715 276.505936 
L 426.827134 275.74808 
L 430.045366 274.696228 
L 433.159785 273.565977 
L 436.378017 272.736256 
L 439.59625 271.769336 
" clip-path="url(#paff595c6d1)" style="fill: none; stroke: #d62728; stroke-width: 1.5; stroke-linecap: square"/>
   </g>
   <g id="line2d_30">
    <path d="M 82.47625 307.85243 
L 85.590669 285.476077 
L 88.808901 285.338879 
L 91.92332 285.253947 
L 95.141552 285.155948 
L 98.359785 285.116749 
L 101.266576 283.653302 
L 104.484808 281.320935 
L 107.599227 278.857903 
L 110.817459 276.577802 
L 113.931878 274.709295 
L 117.15011 272.154797 
L 120.368343 269.84203 
L 123.482762 268.16952 
L 126.700994 266.157281 
L 129.815413 264.327974 
L 133.033645 262.302669 
L 136.251878 260.035634 
L 139.158669 258.121394 
L 142.376901 256.063423 
L 145.49132 253.815988 
L 148.709552 251.790683 
L 151.823971 249.896043 
L 155.042203 248.360731 
L 158.260436 247.034483 
L 161.374855 245.8193 
L 164.593087 244.486519 
L 167.707506 243.264802 
L 170.925738 242.128018 
L 174.143971 240.971635 
L 177.050762 239.972049 
L 180.268994 238.691533 
L 183.383413 237.548216 
L 186.601645 236.54863 
L 189.716064 235.594777 
L 192.934297 234.536391 
L 196.152529 233.48454 
L 199.266948 232.563353 
L 202.48518 231.459235 
L 205.599599 230.13952 
L 208.817831 229.159534 
L 212.036064 228.140348 
L 215.046669 227.264894 
L 218.264901 226.29144 
L 221.37932 225.40292 
L 224.597552 224.540532 
L 227.711971 223.501746 
L 230.930203 222.515227 
L 234.148436 221.587506 
L 237.262855 220.953782 
L 240.481087 220.248192 
L 243.595506 219.555668 
L 246.813738 218.902344 
L 250.031971 218.255553 
L 252.938762 217.798226 
L 256.156994 217.197168 
L 259.271413 216.792107 
L 262.489645 216.262915 
L 265.604064 215.910119 
L 268.822297 215.446259 
L 272.040529 214.975866 
L 275.154948 214.649204 
L 278.37318 214.355208 
L 281.487599 214.139611 
L 284.705831 213.904414 
L 287.924064 213.643085 
L 290.830855 213.47322 
L 294.049087 213.244557 
L 297.163506 213.042026 
L 300.381738 212.891762 
L 303.496157 212.689231 
L 306.71439 212.538967 
L 309.932622 212.375636 
L 313.047041 212.205771 
L 316.265273 212.055507 
L 319.379692 211.977108 
L 322.597924 211.826843 
L 325.816157 211.709245 
L 328.722948 211.643913 
L 331.94118 211.526314 
L 335.055599 211.369517 
L 338.273831 211.271518 
L 341.38825 211.206185 
L 344.606483 211.13432 
L 347.824715 211.088587 
L 350.939134 211.010188 
L 354.157366 210.957922 
L 357.271785 210.879523 
L 360.490017 210.788058 
L 363.70825 210.696593 
L 366.718855 210.605127 
L 369.937087 210.526728 
L 373.051506 210.435263 
L 376.269738 210.343798 
L 379.384157 210.213133 
L 382.60239 210.1478 
L 385.820622 210.056335 
L 388.935041 209.984469 
L 392.153273 209.932203 
L 395.267692 209.840738 
L 398.485924 209.775406 
L 401.704157 209.68394 
L 404.610948 209.612074 
L 407.82918 209.468343 
L 410.943599 209.429144 
L 414.161831 209.389944 
L 417.27625 209.311545 
L 420.494483 209.23968 
L 423.712715 209.135148 
L 426.827134 209.037149 
L 430.045366 208.952217 
L 433.159785 208.906484 
L 436.378017 208.873818 
L 439.59625 208.77582 
" clip-path="url(#paff595c6d1)" style="fill: none; stroke: #2ca02c; stroke-width: 1.5; stroke-linecap: square"/>
   </g>
   <g id="line2d_31">
    <path d="M 208.817831 307.85243 
L 212.036064 303.148496 
L 215.046669 300.90106 
L 218.264901 300.398001 
L 221.37932 300.162804 
L 224.597552 300.01254 
L 227.711971 299.894941 
L 230.930203 298.901888 
L 234.148436 298.555627 
L 237.262855 298.0983 
L 240.481087 297.627906 
L 243.595506 297.523375 
L 246.813738 297.451509 
L 250.031971 297.294711 
L 252.938762 297.13138 
L 256.156994 296.994182 
L 259.271413 295.191007 
L 262.489645 293.257168 
L 265.604064 292.486245 
L 268.822297 291.610791 
L 272.040529 291.075065 
L 275.154948 290.68307 
L 278.37318 290.199611 
L 281.487599 289.768417 
L 284.705831 289.180425 
L 287.924064 288.696965 
L 290.830855 288.220038 
L 294.049087 287.331517 
L 297.163506 286.482196 
L 300.381738 285.365012 
L 303.496157 283.169843 
L 306.71439 281.151071 
L 309.932622 279.916288 
L 313.047041 278.903636 
L 316.265273 278.086981 
L 319.379692 276.897931 
L 322.597924 276.257673 
L 325.816157 275.414885 
L 328.722948 273.755441 
L 331.94118 272.710123 
L 335.055599 271.67787 
L 338.273831 270.665218 
L 341.38825 269.894295 
L 344.606483 269.247505 
L 347.824715 268.300184 
L 350.939134 267.411664 
L 354.157366 266.27488 
L 357.271785 265.451691 
L 360.490017 264.510904 
L 363.70825 262.694663 
L 366.718855 261.675477 
L 369.937087 260.75429 
L 373.051506 259.944168 
L 376.269738 258.728985 
L 379.384157 256.801679 
L 382.60239 254.60651 
L 385.820622 253.443593 
L 388.935041 251.751483 
L 392.153273 250.098573 
L 395.267692 248.896457 
L 398.485924 247.26968 
L 401.704157 245.767034 
L 404.610948 242.422014 
L 407.82918 238.959396 
L 410.943599 236.502897 
L 414.161831 234.484126 
L 417.27625 232.008027 
L 420.494483 229.832457 
L 423.712715 227.683021 
L 426.827134 224.645064 
L 430.045366 221.208578 
L 433.159785 217.641429 
L 436.378017 212.610832 
L 439.59625 208.645155 
" clip-path="url(#paff595c6d1)" style="fill: none; stroke: #ff7f0e; stroke-width: 1.5; stroke-linecap: square"/>
   </g>
   <g id="text_21">
    <!-- yarnpkg/yarn -->
    <g style="fill: #1f77b4" transform="translate(450.30985 45.163867)scale(0.14 -0.14)">
     <defs>
      <path id="MyriadPro-Regular-79" d="M 58 3098 
L 1203 243 
C 1229 173 1242 128 1242 96 
C 1242 64 1222 19 1197 -38 
C 1069 -326 877 -544 723 -666 
C 557 -806 371 -896 230 -941 
L 371 -1414 
C 512 -1389 787 -1293 1062 -1050 
C 1446 -717 1722 -173 2125 890 
L 2970 3098 
L 2374 3098 
L 1760 1280 
C 1683 1056 1619 819 1562 634 
L 1549 634 
C 1498 819 1421 1062 1350 1267 
L 672 3098 
L 58 3098 
z
" transform="scale(0.015625)"/>
      <path id="MyriadPro-Regular-6e" d="M 467 0 
L 1030 0 
L 1030 1862 
C 1030 1958 1043 2054 1069 2125 
C 1165 2438 1453 2701 1824 2701 
C 2355 2701 2541 2285 2541 1786 
L 2541 0 
L 3104 0 
L 3104 1850 
C 3104 2912 2438 3168 2010 3168 
C 1498 3168 1139 2880 986 2586 
L 973 2586 
L 941 3098 
L 442 3098 
C 461 2842 467 2579 467 2259 
L 467 0 
z
" transform="scale(0.015625)"/>
      <path id="MyriadPro-Regular-70" d="M 467 -1267 
L 1024 -1267 
L 1024 416 
L 1037 416 
C 1222 109 1581 -70 1990 -70 
C 2720 -70 3398 480 3398 1594 
C 3398 2534 2835 3168 2086 3168 
C 1581 3168 1216 2944 986 2566 
L 973 2566 
L 947 3098 
L 442 3098 
C 454 2803 467 2483 467 2086 
L 467 -1267 
z
M 1024 1792 
C 1024 1869 1043 1952 1062 2022 
C 1171 2445 1530 2720 1914 2720 
C 2509 2720 2835 2189 2835 1568 
C 2835 858 2490 371 1894 371 
C 1491 371 1152 640 1050 1030 
C 1037 1101 1024 1178 1024 1261 
L 1024 1792 
z
" transform="scale(0.015625)"/>
      <path id="MyriadPro-Regular-6b" d="M 1024 4544 
L 467 4544 
L 467 0 
L 1024 0 
L 1024 1165 
L 1312 1485 
L 2381 0 
L 3066 0 
L 1702 1824 
L 2899 3098 
L 2221 3098 
L 1312 2029 
C 1222 1920 1114 1786 1037 1677 
L 1024 1677 
L 1024 4544 
z
" transform="scale(0.015625)"/>
      <path id="MyriadPro-Regular-67" d="M 3110 2246 
C 3110 2624 3123 2874 3136 3098 
L 2643 3098 
L 2618 2630 
L 2605 2630 
C 2470 2886 2176 3168 1638 3168 
C 928 3168 243 2573 243 1523 
C 243 666 794 13 1562 13 
C 2042 13 2374 243 2547 531 
L 2560 531 
L 2560 186 
C 2560 -595 2138 -896 1562 -896 
C 1178 -896 858 -781 653 -653 
L 512 -1082 
C 762 -1248 1171 -1338 1542 -1338 
C 1933 -1338 2368 -1248 2669 -966 
C 2970 -698 3110 -262 3110 448 
L 3110 2246 
z
M 2554 1318 
C 2554 1222 2541 1114 2509 1018 
C 2387 659 2074 442 1728 442 
C 1120 442 813 947 813 1555 
C 813 2272 1197 2726 1734 2726 
C 2144 2726 2419 2458 2522 2131 
C 2547 2054 2554 1971 2554 1875 
L 2554 1318 
z
" transform="scale(0.015625)"/>
      <path id="MyriadPro-Regular-2f" d="M 422 -256 
L 2214 4384 
L 1779 4384 
L -6 -256 
L 422 -256 
z
" transform="scale(0.015625)"/>
     </defs>
     <use xlink:href="#MyriadPro-Regular-79"/>
     <use xlink:href="#MyriadPro-Regular-61" x="47.099991"/>
     <use xlink:href="#MyriadPro-Regular-72" x="95.299988"/>
     <use xlink:href="#MyriadPro-Regular-6e" x="127.999985"/>
     <use xlink:href="#MyriadPro-Regular-70" x="183.499969"/>
     <use xlink:href="#MyriadPro-Regular-6b" x="240.399963"/>
     <use xlink:href="#MyriadPro-Regular-67" x="287.299957"/>
     <use xlink:href="#MyriadPro-Regular-2f" x="343.199951"/>
     <use xlink:href="#MyriadPro-Regular-79" x="377.499939"/>
     <use xlink:href="#MyriadPro-Regular-61" x="424.59993"/>
     <use xlink:href="#MyriadPro-Regular-72" x="472.799927"/>
     <use xlink:href="#MyriadPro-Regular-6e" x="505.499924"/>
    </g>
   </g>
   <g id="text_22">
    <!-- pnpm/pnpm -->
    <g style="fill: #ff7f0e" transform="translate(450.30985 205.294706)scale(0.14 -0.14)">
     <defs>
      <path id="MyriadPro-Regular-6d" d="M 467 0 
L 1018 0 
L 1018 1869 
C 1018 1965 1030 2061 1062 2144 
C 1152 2426 1408 2707 1760 2707 
C 2189 2707 2406 2349 2406 1856 
L 2406 0 
L 2957 0 
L 2957 1914 
C 2957 2016 2976 2118 3002 2195 
C 3098 2470 3347 2707 3667 2707 
C 4122 2707 4339 2349 4339 1754 
L 4339 0 
L 4890 0 
L 4890 1824 
C 4890 2899 4282 3168 3872 3168 
C 3578 3168 3373 3091 3187 2950 
C 3059 2854 2938 2720 2842 2547 
L 2829 2547 
C 2694 2912 2374 3168 1952 3168 
C 1440 3168 1152 2893 979 2598 
L 960 2598 
L 934 3098 
L 442 3098 
C 461 2842 467 2579 467 2259 
L 467 0 
z
" transform="scale(0.015625)"/>
     </defs>
     <use xlink:href="#MyriadPro-Regular-70"/>
     <use xlink:href="#MyriadPro-Regular-6e" x="56.899994"/>
     <use xlink:href="#MyriadPro-Regular-70" x="112.399979"/>
     <use xlink:href="#MyriadPro-Regular-6d" x="169.299973"/>
     <use xlink:href="#MyriadPro-Regular-2f" x="252.699966"/>
     <use xlink:href="#MyriadPro-Regular-70" x="286.999954"/>
     <use xlink:href="#MyriadPro-Regular-6e" x="343.899948"/>
     <use xlink:href="#MyriadPro-Regular-70" x="399.399933"/>
     <use xlink:href="#MyriadPro-Regular-6d" x="456.299927"/>
    </g>
   </g>
   <g id="text_23">
    <!-- bower/bower -->
    <g style="fill: #2ca02c" transform="translate(450.30985 219.294706)scale(0.14 -0.14)">
     <defs>
      <path id="MyriadPro-Regular-6f" d="M 1779 3168 
C 922 3168 243 2560 243 1523 
C 243 544 890 -70 1728 -70 
C 2477 -70 3270 429 3270 1574 
C 3270 2522 2669 3168 1779 3168 
z
M 1766 2746 
C 2432 2746 2694 2080 2694 1555 
C 2694 858 2291 352 1754 352 
C 1203 352 813 864 813 1542 
C 813 2131 1101 2746 1766 2746 
z
" transform="scale(0.015625)"/>
      <path id="MyriadPro-Regular-77" d="M 115 3098 
L 1050 0 
L 1562 0 
L 2061 1472 
C 2170 1805 2266 2125 2342 2496 
L 2355 2496 
C 2432 2131 2522 1824 2630 1478 
L 3104 0 
L 3616 0 
L 4614 3098 
L 4058 3098 
L 3616 1542 
C 3514 1178 3430 851 3379 538 
L 3360 538 
C 3290 851 3200 1178 3085 1549 
L 2605 3098 
L 2131 3098 
L 1626 1523 
C 1523 1184 1421 851 1350 538 
L 1331 538 
C 1274 858 1190 1178 1101 1523 
L 691 3098 
L 115 3098 
z
" transform="scale(0.015625)"/>
      <path id="MyriadPro-Regular-65" d="M 2957 1446 
C 2963 1504 2976 1594 2976 1709 
C 2976 2278 2707 3168 1696 3168 
C 794 3168 243 2432 243 1498 
C 243 563 813 -70 1766 -70 
C 2259 -70 2598 38 2797 128 
L 2701 531 
C 2490 442 2246 371 1843 371 
C 1280 371 794 685 781 1446 
L 2957 1446 
z
M 787 1850 
C 832 2240 1082 2765 1651 2765 
C 2285 2765 2438 2208 2432 1850 
L 787 1850 
z
" transform="scale(0.015625)"/>
     </defs>
     <use xlink:href="#MyriadPro-Regular-62"/>
     <use xlink:href="#MyriadPro-Regular-6f" x="56.899994"/>
     <use xlink:href="#MyriadPro-Regular-77" x="111.799988"/>
     <use xlink:href="#MyriadPro-Regular-65" x="185.399979"/>
     <use xlink:href="#MyriadPro-Regular-72" x="235.499969"/>
     <use xlink:href="#MyriadPro-Regular-2f" x="268.199966"/>
     <use xlink:href="#MyriadPro-Regular-62" x="302.499954"/>
     <use xlink:href="#MyriadPro-Regular-6f" x="359.399948"/>
     <use xlink:href="#MyriadPro-Regular-77" x="414.299942"/>
     <use xlink:href="#MyriadPro-Regular-65" x="487.899933"/>
     <use xlink:href="#MyriadPro-Regular-72" x="537.999924"/>
    </g>
   </g>
   <g id="text_24">
    <!-- npm/cli -->
    <g style="fill: #d62728" transform="translate(450.30985 275.353555)scale(0.14 -0.14)">
     <defs>
      <path id="MyriadPro-Regular-63" d="M 2579 538 
C 2419 467 2208 384 1888 384 
C 1274 384 813 826 813 1542 
C 813 2189 1197 2714 1907 2714 
C 2214 2714 2426 2643 2560 2566 
L 2688 3002 
C 2534 3078 2240 3162 1907 3162 
C 896 3162 243 2470 243 1517 
C 243 570 851 -70 1786 -70 
C 2202 -70 2528 38 2675 115 
L 2579 538 
z
" transform="scale(0.015625)"/>
      <path id="MyriadPro-Regular-6c" d="M 467 0 
L 1030 0 
L 1030 4544 
L 467 4544 
L 467 0 
z
" transform="scale(0.015625)"/>
     </defs>
     <use xlink:href="#MyriadPro-Regular-6e"/>
     <use xlink:href="#MyriadPro-Regular-70" x="55.499985"/>
     <use xlink:href="#MyriadPro-Regular-6d" x="112.399979"/>
     <use xlink:href="#MyriadPro-Regular-2f" x="195.799973"/>
     <use xlink:href="#MyriadPro-Regular-63" x="230.09996"/>
     <use xlink:href="#MyriadPro-Regular-6c" x="274.899948"/>
     <use xlink:href="#MyriadPro-Regular-69" x="298.499939"/>
    </g>
   </g>
   <g id="text_25">
    <!-- @nschloe / gh-trends | Nico Schlömer | CC BY -->
    <g style="fill: #b0b0b0" transform="translate(82.47625 341.75063)scale(0.09716 -0.09716)">
     <defs>
      <path id="MyriadPro-Regular-40" d="M 2867 1632 
C 2797 1235 2458 762 2086 762 
C 1805 762 1664 966 1664 1248 
C 1664 1869 2118 2400 2682 2400 
C 2829 2400 2938 2374 3002 2355 
L 2867 1632 
z
M 3251 -141 
C 2989 -288 2650 -365 2285 -365 
C 1338 -365 640 301 640 1370 
C 640 2669 1517 3501 2560 3501 
C 3552 3501 4109 2829 4109 1901 
C 4109 1158 3744 723 3418 730 
C 3206 736 3130 960 3226 1446 
L 3443 2605 
C 3277 2682 3034 2739 2758 2739 
C 1869 2739 1242 2016 1242 1222 
C 1242 717 1562 416 1933 416 
C 2317 416 2611 602 2835 979 
L 2861 979 
C 2842 589 3078 416 3334 416 
C 3936 416 4474 979 4474 1939 
C 4474 3008 3725 3795 2611 3795 
C 1190 3795 275 2650 275 1331 
C 275 96 1165 -672 2214 -672 
C 2643 -672 3002 -602 3354 -416 
L 3251 -141 
z
" transform="scale(0.015625)"/>
      <path id="MyriadPro-Regular-68" d="M 467 0 
L 1030 0 
L 1030 1869 
C 1030 1978 1037 2061 1069 2138 
C 1171 2445 1459 2701 1824 2701 
C 2355 2701 2541 2278 2541 1779 
L 2541 0 
L 3104 0 
L 3104 1843 
C 3104 2912 2438 3168 2022 3168 
C 1811 3168 1613 3104 1446 3008 
C 1274 2912 1133 2771 1043 2611 
L 1030 2611 
L 1030 4544 
L 467 4544 
L 467 0 
z
" transform="scale(0.015625)"/>
      <path id="MyriadPro-Regular-2d" d="M 192 1939 
L 192 1523 
L 1773 1523 
L 1773 1939 
L 192 1939 
z
" transform="scale(0.015625)"/>
      <path id="MyriadPro-Regular-64" d="M 2579 4544 
L 2579 2694 
L 2566 2694 
C 2426 2944 2106 3168 1632 3168 
C 877 3168 237 2534 243 1504 
C 243 563 819 -70 1568 -70 
C 2074 -70 2451 192 2624 538 
L 2637 538 
L 2662 0 
L 3168 0 
C 3149 211 3142 525 3142 800 
L 3142 4544 
L 2579 4544 
z
M 2579 1299 
C 2579 1210 2573 1133 2554 1056 
C 2451 634 2106 384 1728 384 
C 1120 384 813 902 813 1530 
C 813 2214 1158 2726 1741 2726 
C 2163 2726 2470 2432 2554 2074 
C 2573 2003 2579 1907 2579 1837 
L 2579 1299 
z
" transform="scale(0.015625)"/>
      <path id="MyriadPro-Regular-7c" d="M 550 4800 
L 550 -1600 
L 979 -1600 
L 979 4800 
L 550 4800 
z
" transform="scale(0.015625)"/>
      <path id="MyriadPro-Regular-4e" d="M 1011 0 
L 1011 1843 
C 1011 2560 998 3078 966 3622 
L 986 3629 
C 1203 3162 1491 2669 1792 2189 
L 3162 0 
L 3725 0 
L 3725 4314 
L 3200 4314 
L 3200 2509 
C 3200 1837 3213 1312 3264 736 
L 3251 730 
C 3046 1171 2797 1626 2477 2131 
L 1094 4314 
L 486 4314 
L 486 0 
L 1011 0 
z
" transform="scale(0.015625)"/>
      <path id="MyriadPro-Regular-53" d="M 269 211 
C 499 58 954 -70 1370 -70 
C 2387 -70 2880 512 2880 1178 
C 2880 1811 2509 2163 1779 2445 
C 1184 2675 922 2874 922 3277 
C 922 3571 1146 3923 1734 3923 
C 2125 3923 2413 3795 2554 3718 
L 2707 4173 
C 2515 4282 2195 4384 1754 4384 
C 915 4384 358 3885 358 3213 
C 358 2605 794 2240 1498 1990 
C 2080 1766 2310 1536 2310 1133 
C 2310 698 1978 397 1408 397 
C 1024 397 659 525 410 678 
L 269 211 
z
" transform="scale(0.015625)"/>
      <path id="MyriadPro-Regular-f6" d="M 1165 3648 
C 1350 3648 1478 3802 1478 3974 
C 1478 4160 1344 4301 1165 4301 
C 986 4301 838 4154 838 3974 
C 838 3802 973 3648 1158 3648 
L 1165 3648 
z
M 2349 3648 
C 2534 3648 2662 3802 2662 3974 
C 2662 4160 2528 4301 2349 4301 
C 2170 4301 2029 4154 2029 3974 
C 2029 3802 2157 3648 2342 3648 
L 2349 3648 
z
M 1779 3168 
C 922 3168 243 2560 243 1523 
C 243 544 890 -70 1728 -70 
C 2477 -70 3270 429 3270 1574 
C 3270 2522 2669 3168 1779 3168 
z
M 1766 2746 
C 2432 2746 2694 2080 2694 1555 
C 2694 858 2291 352 1754 352 
C 1203 352 813 864 813 1542 
C 813 2131 1101 2746 1766 2746 
z
" transform="scale(0.015625)"/>
      <path id="MyriadPro-Regular-43" d="M 3386 582 
C 3162 474 2816 403 2477 403 
C 1427 403 819 1082 819 2138 
C 819 3270 1491 3917 2502 3917 
C 2861 3917 3162 3840 3373 3738 
L 3507 4192 
C 3360 4269 3021 4384 2483 4384 
C 1146 4384 230 3469 230 2118 
C 230 704 1146 -70 2362 -70 
C 2886 -70 3296 38 3501 141 
L 3386 582 
z
" transform="scale(0.015625)"/>
      <path id="MyriadPro-Regular-42" d="M 486 13 
C 672 -13 966 -38 1350 -38 
C 2054 -38 2541 90 2842 365 
C 3059 576 3206 858 3206 1229 
C 3206 1869 2726 2208 2317 2310 
L 2317 2323 
C 2771 2490 3046 2854 3046 3270 
C 3046 3610 2912 3866 2688 4032 
C 2419 4250 2061 4346 1504 4346 
C 1114 4346 730 4307 486 4256 
L 486 13 
z
M 1043 3878 
C 1133 3898 1280 3917 1536 3917 
C 2099 3917 2483 3718 2483 3213 
C 2483 2797 2138 2490 1549 2490 
L 1043 2490 
L 1043 3878 
z
M 1043 2067 
L 1504 2067 
C 2112 2067 2618 1824 2618 1235 
C 2618 608 2086 397 1510 397 
C 1312 397 1152 403 1043 422 
L 1043 2067 
z
" transform="scale(0.015625)"/>
      <path id="MyriadPro-Regular-59" d="M 2010 0 
L 2010 1837 
L 3456 4314 
L 2822 4314 
L 2202 3123 
C 2035 2797 1888 2515 1766 2234 
L 1754 2234 
C 1619 2534 1491 2797 1325 3123 
L 717 4314 
L 83 4314 
L 1446 1830 
L 1446 0 
L 2010 0 
z
" transform="scale(0.015625)"/>
     </defs>
     <use xlink:href="#MyriadPro-Regular-40"/>
     <use xlink:href="#MyriadPro-Regular-6e" x="73.699982"/>
     <use xlink:href="#MyriadPro-Regular-73" x="129.199966"/>
     <use xlink:href="#MyriadPro-Regular-63" x="168.799957"/>
     <use xlink:href="#MyriadPro-Regular-68" x="213.599945"/>
     <use xlink:href="#MyriadPro-Regular-6c" x="269.09993"/>
     <use xlink:href="#MyriadPro-Regular-6f" x="292.699921"/>
     <use xlink:href="#MyriadPro-Regular-65" x="347.599915"/>
     <use xlink:href="#MyriadPro-Regular-20" x="397.699905"/>
     <use xlink:href="#MyriadPro-Regular-2f" x="418.899902"/>
     <use xlink:href="#MyriadPro-Regular-20" x="453.19989"/>
     <use xlink:href="#MyriadPro-Regular-67" x="474.399887"/>
     <use xlink:href="#MyriadPro-Regular-68" x="530.299881"/>
     <use xlink:href="#MyriadPro-Regular-2d" x="585.799866"/>
     <use xlink:href="#MyriadPro-Regular-74" x="616.499863"/>
     <use xlink:href="#MyriadPro-Regular-72" x="649.599854"/>
     <use xlink:href="#MyriadPro-Regular-65" x="682.29985"/>
     <use xlink:href="#MyriadPro-Regular-6e" x="732.399841"/>
     <use xlink:href="#MyriadPro-Regular-64" x="787.899826"/>
     <use xlink:href="#MyriadPro-Regular-73" x="844.29982"/>
     <use xlink:href="#MyriadPro-Regular-20" x="883.899811"/>
     <use xlink:href="#MyriadPro-Regular-7c" x="905.099808"/>
     <use xlink:href="#MyriadPro-Regular-20" x="928.999802"/>
     <use xlink:href="#MyriadPro-Regular-4e" x="950.199799"/>
     <use xlink:href="#MyriadPro-Regular-69" x="1015.999786"/>
     <use xlink:href="#MyriadPro-Regular-63" x="1039.39978"/>
     <use xlink:href="#MyriadPro-Regular-6f" x="1084.199768"/>
     <use xlink:href="#MyriadPro-Regular-20" x="1139.099762"/>
     <use xlink:href="#MyriadPro-Regular-53" x="1160.299759"/>
     <use xlink:href="#MyriadPro-Regular-63" x="1209.599747"/>
     <use xlink:href="#MyriadPro-Regular-68" x="1254.399734"/>
     <use xlink:href="#MyriadPro-Regular-6c" x="1309.899719"/>
     <use xlink:href="#MyriadPro-Regular-f6" x="1333.49971"/>
     <use xlink:href="#MyriadPro-Regular-6d" x="1388.399704"/>
     <use xlink:href="#MyriadPro-Regular-65" x="1471.799698"/>
     <use xlink:href="#MyriadPro-Regular-72" x="1521.899689"/>
     <use xlink:href="#MyriadPro-Regular-20" x="1554.599686"/>
     <use xlink:href="#MyriadPro-Regular-7c" x="1575.799683"/>
     <use xlink:href="#MyriadPro-Regular-20" x="1599.699677"/>
     <use xlink:href="#MyriadPro-Regular-43" x="1620.899673"/>
     <use xlink:href="#MyriadPro-Regular-43" x="1678.899658"/>
     <use xlink:href="#MyriadPro-Regular-20" x="1736.899643"/>
     <use xlink:href="#MyriadPro-Regular-42" x="1758.09964"/>
     <use xlink:href="#MyriadPro-Regular-59" x="1812.299637"/>
    </g>
   </g>
   <g id="line2d_32">
    <path d="M 234.148436 307.85243 
L 237.262855 307.839363 
L 240.481087 199.433284 
L 243.595506 188.143842 
L 246.813738 180.532616 
L 250.031971 173.84911 
L 252.938762 167.616397 
L 256.156994 161.533949 
L 259.271413 156.856148 
L 262.489645 151.936617 
L 265.604064 148.127737 
L 268.822297 144.658586 
L 272.040529 141.163301 
L 275.154948 137.302156 
L 278.37318 132.983683 
L 281.487599 129.305468 
L 284.705831 125.516188 
L 287.924064 122.05357 
L 290.830855 118.70855 
L 294.049087 115.36353 
L 297.163506 112.214508 
L 300.381738 109.352948 
L 303.496157 106.759251 
L 306.71439 104.17862 
L 309.932622 101.473858 
L 313.047041 98.925894 
L 316.265273 96.756858 
L 319.379692 94.450623 
L 322.597924 92.157456 
L 325.816157 89.152164 
L 328.722948 87.224858 
L 331.94118 84.742226 
L 335.055599 82.429459 
L 338.273831 80.110158 
L 341.38825 78.104453 
L 344.606483 76.118347 
L 347.824715 74.145308 
L 350.939134 72.381333 
L 354.157366 70.565092 
L 357.271785 68.912182 
L 360.490017 67.35727 
L 363.70825 65.541029 
L 366.718855 64.25398 
L 369.937087 62.901599 
L 373.051506 61.43162 
L 376.269738 60.046573 
L 379.384157 58.877123 
L 382.60239 57.701139 
L 385.820622 56.616621 
L 388.935041 55.499437 
L 392.153273 54.408385 
L 395.267692 53.434932 
L 398.485924 52.448413 
L 401.704157 51.586025 
L 404.610948 50.723637 
L 407.82918 49.828583 
L 410.943599 49.168725 
L 414.161831 48.37167 
L 417.27625 47.613814 
L 420.494483 46.777559 
L 423.712715 45.849839 
L 426.827134 45.124649 
L 430.045366 44.262261 
L 433.159785 43.491338 
L 436.378017 42.68775 
L 439.59625 41.74043 
" clip-path="url(#paff595c6d1)" style="fill: none; stroke: #1f77b4; stroke-width: 1.5; stroke-linecap: square"/>
   </g>
  </g>
 </g>
 <defs>
  <clipPath id="paff595c6d1">
   <rect x="82.47625" y="41.74043" width="357.12" height="266.112"/>
  </clipPath>
 </defs>
</svg>
