<svg xmlns:xlink="http://www.w3.org/1999/xlink" width="827.675" height="511.07" viewBox="0 0 620.756 383.302" xmlns="http://www.w3.org/2000/svg"><defs><style>*{stroke-linejoin:round;stroke-linecap:butt}</style></defs><g id="figure_1"><path d="M0 383.302h620.756V0H0v383.302z" style="fill:none" id="patch_1"/><g id="axes_1"><path d="M82.476 308.367h357.12V42.255H82.476v266.112z" style="fill:none" id="patch_2"/><g id="matplotlib.axis_1"><g id="xtick_1"><g id="line2d_1"><defs><path id="m09b02db15e" d="M0 0v3.5" style="stroke:#b0b0b0;stroke-width:.4"/></defs><use xlink:href="#m09b02db15e" x="120.221" y="308.367" style="fill:#b0b0b0;stroke:#b0b0b0;stroke-width:.4"/></g><g style="fill:#b0b0b0" transform="matrix(.14 0 0 -.14 105.858 325.307)" id="text_1"><defs><path id="MyriadPro-Regular-32" d="M2944 0v467H1075v13l333 307c877 845 1434 1466 1434 2234 0 595-378 1209-1274 1209-480 0-890-179-1178-422l180-397c192 160 505 352 883 352 621 0 825-390 825-813-6-627-486-1164-1548-2176L288 346V0h2656z" transform="scale(.01563)"/><path id="MyriadPro-Regular-30" d="M1677 4230c-845 0-1447-768-1447-2163C243 691 794-70 1606-70c922 0 1447 780 1447 2195 0 1325-499 2105-1376 2105zm-32-435c582 0 845-672 845-1696 0-1062-276-1734-852-1734-512 0-844 614-844 1696 0 1133 358 1734 851 1734z" transform="scale(.01563)"/><path id="MyriadPro-Regular-31" d="M1510 0h544v4160h-480l-908-486 108-429 724 390h12V0z" transform="scale(.01563)"/></defs><use xlink:href="#MyriadPro-Regular-32"/><use xlink:href="#MyriadPro-Regular-30" x="51.3"/><use xlink:href="#MyriadPro-Regular-31" x="102.6"/><use xlink:href="#MyriadPro-Regular-30" x="153.9"/></g></g><g id="xtick_2"><use xlink:href="#m09b02db15e" x="173.414" y="308.367" style="fill:#b0b0b0;stroke:#b0b0b0;stroke-width:.4" id="line2d_2"/><g style="fill:#b0b0b0" transform="matrix(.14 0 0 -.14 159.05 325.307)" id="text_2"><use xlink:href="#MyriadPro-Regular-32"/><use xlink:href="#MyriadPro-Regular-30" x="51.3"/><use xlink:href="#MyriadPro-Regular-31" x="102.6"/><use xlink:href="#MyriadPro-Regular-32" x="153.9"/></g></g><g id="xtick_3"><use xlink:href="#m09b02db15e" x="226.68" y="308.367" style="fill:#b0b0b0;stroke:#b0b0b0;stroke-width:.4" id="line2d_3"/><g style="fill:#b0b0b0" transform="matrix(.14 0 0 -.14 212.316 325.307)" id="text_3"><defs><path id="MyriadPro-Regular-34" d="M2560 0v1133h582v441h-582v2586h-608L96 1504v-371h1933V0h531zM666 1574v13l1017 1415c115 192 218 371 346 614h19c-13-218-19-435-19-653V1574H666z" transform="scale(.01563)"/></defs><use xlink:href="#MyriadPro-Regular-32"/><use xlink:href="#MyriadPro-Regular-30" x="51.3"/><use xlink:href="#MyriadPro-Regular-31" x="102.6"/><use xlink:href="#MyriadPro-Regular-34" x="153.9"/></g></g><g id="xtick_4"><use xlink:href="#m09b02db15e" x="279.872" y="308.367" style="fill:#b0b0b0;stroke:#b0b0b0;stroke-width:.4" id="line2d_4"/><g style="fill:#b0b0b0" transform="matrix(.14 0 0 -.14 265.51 325.307)" id="text_4"><defs><path id="MyriadPro-Regular-36" d="M2662 4224c-102 0-243-6-409-32-525-64-986-275-1331-614-410-410-704-1056-704-1876C218 621 800-70 1690-70c864 0 1382 704 1382 1465 0 813-518 1344-1254 1344-461 0-807-217-1005-480h-19c96 685 563 1331 1446 1479 160 25 307 32 422 25v461zM1690 365c-589 0-903 505-916 1190 0 103 26 186 64 250 154 301 468 512 807 512 518 0 857-359 857-954s-326-998-806-998h-6z" transform="scale(.01563)"/></defs><use xlink:href="#MyriadPro-Regular-32"/><use xlink:href="#MyriadPro-Regular-30" x="51.3"/><use xlink:href="#MyriadPro-Regular-31" x="102.6"/><use xlink:href="#MyriadPro-Regular-36" x="153.9"/></g></g><g id="xtick_5"><use xlink:href="#m09b02db15e" x="333.138" y="308.367" style="fill:#b0b0b0;stroke:#b0b0b0;stroke-width:.4" id="line2d_5"/><g style="fill:#b0b0b0" transform="matrix(.14 0 0 -.14 318.775 325.307)" id="text_5"><defs><path id="MyriadPro-Regular-38" d="M1062 2170c-512-218-825-589-825-1114C237 448 762-70 1632-70c794 0 1414 486 1414 1209 0 506-320 871-838 1075v20c512 243 685 620 685 972 0 519-403 1024-1210 1024-729 0-1286-448-1286-1107 0-358 198-717 659-934l6-19zm583-1831c-531 0-851 371-832 794 0 397 262 717 749 857 563-160 915-403 915-908 0-423-327-743-832-743zm6 3488c506 0 704-345 704-678 0-378-275-634-633-755-480 128-794 352-794 768 0 358 256 665 723 665z" transform="scale(.01563)"/></defs><use xlink:href="#MyriadPro-Regular-32"/><use xlink:href="#MyriadPro-Regular-30" x="51.3"/><use xlink:href="#MyriadPro-Regular-31" x="102.6"/><use xlink:href="#MyriadPro-Regular-38" x="153.9"/></g></g><g id="xtick_6"><use xlink:href="#m09b02db15e" x="386.331" y="308.367" style="fill:#b0b0b0;stroke:#b0b0b0;stroke-width:.4" id="line2d_6"/><g style="fill:#b0b0b0" transform="matrix(.14 0 0 -.14 371.968 325.307)" id="text_6"><use xlink:href="#MyriadPro-Regular-32"/><use xlink:href="#MyriadPro-Regular-30" x="51.3"/><use xlink:href="#MyriadPro-Regular-32" x="102.6"/><use xlink:href="#MyriadPro-Regular-30" x="153.9"/></g></g><g id="xtick_7"><use xlink:href="#m09b02db15e" x="439.596" y="308.367" style="fill:#b0b0b0;stroke:#b0b0b0;stroke-width:.4" id="line2d_7"/><g style="fill:#b0b0b0" transform="matrix(.14 0 0 -.14 425.233 325.307)" id="text_7"><use xlink:href="#MyriadPro-Regular-32"/><use xlink:href="#MyriadPro-Regular-30" x="51.3"/><use xlink:href="#MyriadPro-Regular-32" x="102.6"/><use xlink:href="#MyriadPro-Regular-32" x="153.9"/></g></g></g><g id="matplotlib.axis_2"><g id="ytick_1"><path d="M82.476 308.367h357.12" clip-path="url(#pa78f648f92)" style="fill:none;stroke:#b0b0b0;stroke-width:.3;stroke-linecap:square" id="line2d_8"/><g id="line2d_9"><defs><path id="m45968c19eb" d="M0 0h-3.5" style="stroke:#b0b0b0;stroke-width:.3"/></defs><use xlink:href="#m45968c19eb" x="82.476" y="308.367" style="fill:#b0b0b0;stroke:#b0b0b0;stroke-width:.3"/></g><use xlink:href="#MyriadPro-Regular-30" style="fill:#b0b0b0" transform="matrix(.14 0 0 -.14 68.295 313.337)" id="text_8"/></g><g id="ytick_2"><path d="M82.476 255.998h357.12" clip-path="url(#pa78f648f92)" style="fill:none;stroke:#b0b0b0;stroke-width:.3;stroke-linecap:square" id="line2d_10"/><use xlink:href="#m45968c19eb" x="82.476" y="255.998" style="fill:#b0b0b0;stroke:#b0b0b0;stroke-width:.3" id="line2d_11"/><g style="fill:#b0b0b0" transform="matrix(.14 0 0 -.14 46.75 260.968)" id="text_9"><use xlink:href="#MyriadPro-Regular-32"/><use xlink:href="#MyriadPro-Regular-30" x="51.3"/><use xlink:href="#MyriadPro-Regular-30" x="102.6"/><use xlink:href="#MyriadPro-Regular-30" x="153.9"/></g></g><g id="ytick_3"><path d="M82.476 203.63h357.12" clip-path="url(#pa78f648f92)" style="fill:none;stroke:#b0b0b0;stroke-width:.3;stroke-linecap:square" id="line2d_12"/><use xlink:href="#m45968c19eb" x="82.476" y="203.629" style="fill:#b0b0b0;stroke:#b0b0b0;stroke-width:.3" id="line2d_13"/><g style="fill:#b0b0b0" transform="matrix(.14 0 0 -.14 46.75 208.6)" id="text_10"><use xlink:href="#MyriadPro-Regular-34"/><use xlink:href="#MyriadPro-Regular-30" x="51.3"/><use xlink:href="#MyriadPro-Regular-30" x="102.6"/><use xlink:href="#MyriadPro-Regular-30" x="153.9"/></g></g><g id="ytick_4"><path d="M82.476 151.26h357.12" clip-path="url(#pa78f648f92)" style="fill:none;stroke:#b0b0b0;stroke-width:.3;stroke-linecap:square" id="line2d_14"/><use xlink:href="#m45968c19eb" x="82.476" y="151.26" style="fill:#b0b0b0;stroke:#b0b0b0;stroke-width:.3" id="line2d_15"/><g style="fill:#b0b0b0" transform="matrix(.14 0 0 -.14 46.75 156.23)" id="text_11"><use xlink:href="#MyriadPro-Regular-36"/><use xlink:href="#MyriadPro-Regular-30" x="51.3"/><use xlink:href="#MyriadPro-Regular-30" x="102.6"/><use xlink:href="#MyriadPro-Regular-30" x="153.9"/></g></g><g id="ytick_5"><path d="M82.476 98.892h357.12" clip-path="url(#pa78f648f92)" style="fill:none;stroke:#b0b0b0;stroke-width:.3;stroke-linecap:square" id="line2d_16"/><use xlink:href="#m45968c19eb" x="82.476" y="98.892" style="fill:#b0b0b0;stroke:#b0b0b0;stroke-width:.3" id="line2d_17"/><g style="fill:#b0b0b0" transform="matrix(.14 0 0 -.14 46.75 103.862)" id="text_12"><use xlink:href="#MyriadPro-Regular-38"/><use xlink:href="#MyriadPro-Regular-30" x="51.3"/><use xlink:href="#MyriadPro-Regular-30" x="102.6"/><use xlink:href="#MyriadPro-Regular-30" x="153.9"/></g></g><g id="ytick_6"><path d="M82.476 46.523h357.12" clip-path="url(#pa78f648f92)" style="fill:none;stroke:#b0b0b0;stroke-width:.3;stroke-linecap:square" id="line2d_18"/><use xlink:href="#m45968c19eb" x="82.476" y="46.523" style="fill:#b0b0b0;stroke:#b0b0b0;stroke-width:.3" id="line2d_19"/><g style="fill:#b0b0b0" transform="matrix(.14 0 0 -.14 39.568 51.493)" id="text_13"><use xlink:href="#MyriadPro-Regular-31"/><use xlink:href="#MyriadPro-Regular-30" x="51.3"/><use xlink:href="#MyriadPro-Regular-30" x="102.6"/><use xlink:href="#MyriadPro-Regular-30" x="153.9"/><use xlink:href="#MyriadPro-Regular-30" x="205.2"/></g></g><g style="fill:#b0b0b0" transform="matrix(.14 0 0 -.14 7.2 17.14)" id="text_14"><defs><path id="MyriadPro-Regular-47" d="M3770 2266H2349v-448h877V531c-128-64-378-115-743-115-1005 0-1664 646-1664 1741 0 1081 685 1734 1735 1734 435 0 723-83 953-185l135 454c-186 90-576 198-1076 198-1446 0-2329-940-2336-2227 0-672 231-1248 602-1606 422-403 960-570 1613-570 582 0 1075 147 1325 237v2074z" transform="scale(.01563)"/><path id="MyriadPro-Regular-69" d="M1030 0v3098H467V0h563zM749 4320c-205 0-352-154-352-352 0-192 141-346 339-346 224 0 365 154 358 346 0 198-134 352-345 352z" transform="scale(.01563)"/><path id="MyriadPro-Regular-74" d="M595 3667v-569H115v-429h480V979c0-365 58-640 218-806C947 19 1158-70 1421-70c217 0 390 38 499 83l-26 422c-83-25-172-38-326-38-314 0-422 217-422 601v1671h806v429h-806v742l-551-173z" transform="scale(.01563)"/><path id="MyriadPro-Regular-48" d="M486 4314V0h557v2022h2087V0h563v4314h-563V2509H1043v1805H486z" transform="scale(.01563)"/><path id="MyriadPro-Regular-75" d="M3059 3098h-563V1197c0-103-19-205-51-288-103-250-365-512-743-512-512 0-691 397-691 985v1716H448V1286C448 198 1030-70 1517-70c550 0 877 326 1024 576h13l32-506h499c-19 243-26 525-26 845v2253z" transform="scale(.01563)"/><path id="MyriadPro-Regular-62" d="M467 800c0-275-13-589-25-800h486l26 512h19c230-410 589-582 1037-582 691 0 1388 550 1388 1657 7 941-537 1581-1305 1581-499 0-858-224-1056-570h-13v1946H467V800zm557 998c0 90 19 167 32 231 115 429 474 691 858 691 601 0 921-531 921-1152 0-710-352-1190-941-1190-409 0-736 268-844 659-13 64-26 134-26 205v556z" transform="scale(.01563)"/><path id="MyriadPro-Regular-73" d="M250 147C467 19 781-70 1120-70c736 0 1158 390 1158 934 0 461-275 730-812 934-404 154-589 269-589 525 0 231 185 423 518 423 288 0 512-103 634-180l141 410c-173 102-448 192-762 192-666 0-1069-410-1069-909 0-371 263-678 819-877 416-153 576-300 576-569 0-256-192-461-601-461-282 0-576 115-743 224L250 147z" transform="scale(.01563)"/><path id="MyriadPro-Regular-61" d="M2643 1901c0 621-230 1267-1177 1267-391 0-762-109-1018-275l128-371c218 140 518 230 806 230 634 0 704-461 704-717v-64C890 1978 224 1568 224 819c0-448 320-889 947-889 442 0 775 217 947 460h20l44-390h512c-38 211-51 474-51 742v1159zm-544-858c0-57-13-121-32-179-89-262-345-518-749-518-288 0-531 172-531 537 0 602 698 711 1312 698v-538z" transform="scale(.01563)"/><path id="MyriadPro-Regular-72" d="M467 0h557v1651c0 96 13 186 26 263 76 422 358 723 755 723 77 0 134-7 192-19v531c-51 13-96 19-160 19-378 0-717-262-858-678h-25l-20 608H442c19-288 25-602 25-967V0z" transform="scale(.01563)"/></defs><use xlink:href="#MyriadPro-Regular-47"/><use xlink:href="#MyriadPro-Regular-69" x="64.6"/><use xlink:href="#MyriadPro-Regular-74" x="88"/><use xlink:href="#MyriadPro-Regular-48" x="121.1"/><use xlink:href="#MyriadPro-Regular-75" x="186.3"/><use xlink:href="#MyriadPro-Regular-62" x="241.4"/><use xlink:href="#MyriadPro-Regular-20" x="298.3"/><use xlink:href="#MyriadPro-Regular-73" x="319.5"/><use xlink:href="#MyriadPro-Regular-74" x="359.1"/><use xlink:href="#MyriadPro-Regular-61" x="392.2"/><use xlink:href="#MyriadPro-Regular-72" x="440.4"/><use xlink:href="#MyriadPro-Regular-73" x="473.1"/></g></g><path d="m315.286 308.367 2.258-.026 2.186-.053 2.26-.052 2.258-.131 2.186-.026 2.259-.105 2.186-.052 2.259-.053 2.259-.13 2.04-.08 2.259-.13 2.186-.053 2.259-.104 2.186-.105 2.259-.079h2.259l2.186-.052 2.258-.105 2.186-.13 2.26-.105 2.258-.027 2.04-.183 2.26-.157 2.185-.105 2.26-.078 2.185-.131 2.259-.131 2.259-.079 2.186-.052 2.259-.21 2.186-.078h2.259l2.259-.157 2.113-.105 2.259-.105 2.186-.13 2.258-.105 2.186-.105 2.26-.105 2.258-.052 2.186-.052 2.259-.184 2.186-.078 2.259-.105 2.259-.157 2.04-.105 2.259-.078 2.186-.158 2.259-.078 2.186-.157 2.259-.131 2.259-.288 2.186-.131 2.258-.052 2.186-.131 2.26-.053" clip-path="url(#pa78f648f92)" style="fill:none;stroke:#c7c7c7;stroke-width:1.5;stroke-linecap:square" id="line2d_20"/><path d="m166.71 308.367 2.26-.315h4.444l2.259-.026h15.52l2.186-.026h11.003l2.26-.026 2.185-.026 2.26-.053h4.444l2.259-.104 2.186-.027h4.445l2.259-.026h8.744l2.258-.026 2.186-.052 2.26-.026 2.258-.053 2.186-.026 2.26-.026 2.185-.105 2.259-.052 2.259-.079 2.04-.078 2.259-.027 2.186-.052 2.259-.052h2.186l2.259-.027 2.259-.13 2.186-.053 2.258-.026 2.186-.052 2.26-.053 2.258-.052 2.113-.026 2.26-.026h2.185l2.26-.027h8.889l2.259-.104 2.186-.079 2.259-.052 2.258-.079 2.04-.052 2.26-.079 2.186-.052 2.258-.026h2.186l2.26-.053h2.258l2.186-.026 2.259-.078h2.186l2.259-.079 2.259-.105 2.04-.052 2.259-.183 2.186-.105 2.259-.079 2.186-.026 2.259-.026 2.259-.026 2.186-.053 2.258-.078 2.186-.079 2.26-.104 2.258-.053 2.04-.052 2.26-.026 2.185-.027 2.26-.078 2.185-.079 2.259-.13 2.259-.105h2.186l2.259-.027 2.186-.026h2.259l2.259-.052 2.113-.131 2.259-.079 2.186-.209 2.258-.026h2.186l2.26-.079 2.258-.183 2.186-.026 2.259-.105 2.186-.236 2.259-.052 2.259-.157 2.04-.026 2.259-.079h2.186l2.259-.026 2.186-.105 2.259-.052 2.259-.183 2.186-.131 2.258-.131 2.186-.079 2.26-.078" clip-path="url(#pa78f648f92)" style="fill:none;stroke:#f7b6d2;stroke-width:1.5;stroke-linecap:square" id="line2d_21"/><path d="m270.983 308.367 2.186-.105 2.258-.105 2.186-.026h2.26l2.258-.052 2.113-.027h2.26l2.185-.052h2.26l2.185-.026h2.259l2.259-.026h2.186l2.259-.053 2.186-.026 2.259-.026 2.258-.052h2.04l2.26-.027 2.186-.026 2.258-.052 2.186-.079h2.26l2.258-.026 2.186-.052 2.259-.079 2.186-.052 2.259-.026 2.259-.053 2.04-.104 2.259-.131 2.186-.027h2.259l2.186-.026 2.259-.026 2.259-.157 2.186-.157 2.258-.052 2.186-.105 2.26-.026 2.258-.053 2.04-.157 2.26-.078 2.185-.131 2.26-.079 2.185-.105 2.259-.104 2.259-.131 2.186-.053 2.259-.026 2.186-.078 2.259-.105 2.259-.131 2.113-.157 2.259-.053 2.186-.209 2.258-.079 2.186-.13 2.26-.105 2.258-.21 2.186-.262 2.259-.157 2.186-.235 2.259-.288 2.259-.21 2.04-.21 2.259-.287 2.186-.105 2.259-.314 2.186-.21 2.259-.235 2.259-.288 2.186-.288 2.258-.288 2.186-.289 2.26-.314" clip-path="url(#pa78f648f92)" style="fill:none;stroke:#c49c94;stroke-width:1.5;stroke-linecap:square" id="line2d_22"/><g style="fill:#1f77b4" transform="matrix(.14 0 0 -.14 450.31 40.472)" id="text_15"><defs><path id="MyriadPro-Regular-6e" d="M467 0h563v1862c0 96 13 192 39 263 96 313 384 576 755 576 531 0 717-416 717-915V0h563v1850c0 1062-666 1318-1094 1318-512 0-871-288-1024-582h-13l-32 512H442c19-256 25-519 25-839V0z" transform="scale(.01563)"/><path id="MyriadPro-Regular-79" d="M58 3098 1203 243c26-70 39-115 39-147s-20-77-45-134c-128-288-320-506-474-628-166-140-352-230-493-275l141-473c141 25 416 121 691 364 384 333 660 877 1063 1940l845 2208h-596l-614-1818c-77-224-141-461-198-646h-13c-51 185-128 428-199 633L672 3098H58z" transform="scale(.01563)"/><path id="MyriadPro-Regular-68" d="M467 0h563v1869c0 109 7 192 39 269 102 307 390 563 755 563 531 0 717-423 717-922V0h563v1843c0 1069-666 1325-1082 1325-211 0-409-64-576-160-172-96-313-237-403-397h-13v1933H467V0z" transform="scale(.01563)"/><path id="MyriadPro-Regular-2f" d="m422-256 1792 4640h-435L-6-256h428z" transform="scale(.01563)"/><path id="MyriadPro-Regular-41" d="M2714 1357 3174 0h596L2298 4314h-672L160 0h576l448 1357h1530zm-1415 435 423 1248c83 262 153 525 217 781h13c64-250 128-506 224-787l422-1242H1299z" transform="scale(.01563)"/><path id="MyriadPro-Regular-6d" d="M467 0h551v1869c0 96 12 192 44 275 90 282 346 563 698 563 429 0 646-358 646-851V0h551v1914c0 102 19 204 45 281 96 275 345 512 665 512 455 0 672-358 672-953V0h551v1824c0 1075-608 1344-1018 1344-294 0-499-77-685-218-128-96-249-230-345-403h-13c-135 365-455 621-877 621-512 0-800-275-973-570h-19l-26 500H442c19-256 25-519 25-839V0z" transform="scale(.01563)"/><path id="MyriadPro-Regular-65" d="M2957 1446c6 58 19 148 19 263 0 569-269 1459-1280 1459-902 0-1453-736-1453-1670C243 563 813-70 1766-70c493 0 832 108 1031 198l-96 403c-211-89-455-160-858-160-563 0-1049 314-1062 1075h2176zM787 1850c45 390 295 915 864 915 634 0 787-557 781-915H787z" transform="scale(.01563)"/></defs><use xlink:href="#MyriadPro-Regular-69"/><use xlink:href="#MyriadPro-Regular-61" x="23.4"/><use xlink:href="#MyriadPro-Regular-6e" x="71.6"/><use xlink:href="#MyriadPro-Regular-79" x="127.1"/><use xlink:href="#MyriadPro-Regular-68" x="174.2"/><use xlink:href="#MyriadPro-Regular-2f" x="229.7"/><use xlink:href="#MyriadPro-Regular-41" x="264"/><use xlink:href="#MyriadPro-Regular-6d" x="325.2"/><use xlink:href="#MyriadPro-Regular-65" x="408.6"/><use xlink:href="#MyriadPro-Regular-74" x="458.7"/><use xlink:href="#MyriadPro-Regular-68" x="491.8"/><use xlink:href="#MyriadPro-Regular-79" x="547.3"/><use xlink:href="#MyriadPro-Regular-73" x="594.4"/><use xlink:href="#MyriadPro-Regular-74" x="634"/></g><g style="fill:#ff7f0e" transform="matrix(.14 0 0 -.14 450.31 54.311)" id="text_16"><defs><path id="MyriadPro-Regular-77" d="M115 3098 1050 0h512l499 1472c109 333 205 653 281 1024h13c77-365 167-672 275-1018L3104 0h512l998 3098h-556l-442-1556c-102-364-186-691-237-1004h-19c-70 313-160 640-275 1011l-480 1549h-474l-505-1575c-103-339-205-672-276-985h-19c-57 320-141 640-230 985L691 3098H115z" transform="scale(.01563)"/></defs><use xlink:href="#MyriadPro-Regular-73"/><use xlink:href="#MyriadPro-Regular-77" x="39.6"/><use xlink:href="#MyriadPro-Regular-61" x="113.2"/><use xlink:href="#MyriadPro-Regular-79" x="161.4"/><use xlink:href="#MyriadPro-Regular-77" x="208.5"/><use xlink:href="#MyriadPro-Regular-6d" x="282.1"/><use xlink:href="#MyriadPro-Regular-2f" x="365.5"/><use xlink:href="#MyriadPro-Regular-73" x="399.8"/><use xlink:href="#MyriadPro-Regular-77" x="439.4"/><use xlink:href="#MyriadPro-Regular-61" x="513"/><use xlink:href="#MyriadPro-Regular-79" x="561.2"/></g><g style="fill:#2ca02c" transform="matrix(.14 0 0 -.14 450.31 129.603)" id="text_17"><defs><path id="MyriadPro-Regular-33" d="M269 211C474 77 883-70 1350-70c999 0 1517 582 1517 1248 0 582-416 966-928 1068v13c512 186 768 551 768 979 0 506-371 992-1190 992-448 0-871-160-1088-320l147-409c179 128 499 275 832 275 518 0 730-294 730-627 0-493-519-704-928-704H896v-423h314c544 0 1068-249 1075-832 6-345-218-806-941-806-390 0-762 160-922 262L269 211z" transform="scale(.01563)"/></defs><use xlink:href="#MyriadPro-Regular-69"/><use xlink:href="#MyriadPro-Regular-33" x="23.4"/><use xlink:href="#MyriadPro-Regular-2f" x="74.7"/><use xlink:href="#MyriadPro-Regular-69" x="109"/><use xlink:href="#MyriadPro-Regular-33" x="132.4"/></g><g style="fill:#d62728" transform="matrix(.14 0 0 -.14 450.31 160.92)" id="text_18"><defs><path id="MyriadPro-Regular-6b" d="M1024 4544H467V0h557v1165l288 320L2381 0h685L1702 1824l1197 1274h-678l-909-1069c-90-109-198-243-275-352h-13v2867z" transform="scale(.01563)"/><path id="MyriadPro-Regular-76" d="M83 3098 1261 0h537l1216 3098h-588l-602-1741c-102-282-192-538-262-794h-20c-64 256-147 512-249 794L685 3098H83z" transform="scale(.01563)"/><path id="MyriadPro-Regular-6c" d="M467 0h563v4544H467V0z" transform="scale(.01563)"/><path id="MyriadPro-Regular-70" d="M467-1267h557V416h13c185-307 544-486 953-486 730 0 1408 550 1408 1664 0 940-563 1574-1312 1574-505 0-870-224-1100-602h-13l-26 532H442c12-295 25-615 25-1012v-3353zm557 3059c0 77 19 160 38 230 109 423 468 698 852 698 595 0 921-531 921-1152 0-710-345-1197-941-1197-403 0-742 269-844 659-13 71-26 148-26 231v531z" transform="scale(.01563)"/></defs><use xlink:href="#MyriadPro-Regular-62"/><use xlink:href="#MyriadPro-Regular-61" x="56.9"/><use xlink:href="#MyriadPro-Regular-73" x="105.1"/><use xlink:href="#MyriadPro-Regular-6b" x="144.7"/><use xlink:href="#MyriadPro-Regular-65" x="191.6"/><use xlink:href="#MyriadPro-Regular-72" x="241.7"/><use xlink:href="#MyriadPro-Regular-76" x="274.4"/><use xlink:href="#MyriadPro-Regular-69" x="322.5"/><use xlink:href="#MyriadPro-Regular-6c" x="345.9"/><use xlink:href="#MyriadPro-Regular-6c" x="369.5"/><use xlink:href="#MyriadPro-Regular-65" x="393.1"/><use xlink:href="#MyriadPro-Regular-2f" x="443.2"/><use xlink:href="#MyriadPro-Regular-62" x="477.5"/><use xlink:href="#MyriadPro-Regular-73" x="534.4"/><use xlink:href="#MyriadPro-Regular-70" x="574"/><use xlink:href="#MyriadPro-Regular-77" x="630.9"/><use xlink:href="#MyriadPro-Regular-6d" x="704.5"/></g><g style="fill:#9467bd" transform="matrix(.14 0 0 -.14 450.31 191.17)" id="text_19"><defs><path id="MyriadPro-Regular-6f" d="M1779 3168c-857 0-1536-608-1536-1645C243 544 890-70 1728-70c749 0 1542 499 1542 1644 0 948-601 1594-1491 1594zm-13-422c666 0 928-666 928-1191 0-697-403-1203-940-1203-551 0-941 512-941 1190 0 589 288 1204 953 1204z" transform="scale(.01563)"/><path id="MyriadPro-Regular-57" d="m1773 0 614 2246c160 557 256 980 333 1408h13c57-435 147-857 281-1408L3558 0h583l1222 4314h-569l-570-2176c-134-538-256-1018-346-1492h-12c-64 455-180 967-301 1479l-525 2189h-582l-576-2176c-148-557-282-1069-352-1498h-13c-77 416-192 954-320 1491L685 4314H96L1190 0h583z" transform="scale(.01563)"/><path id="MyriadPro-Regular-4d" d="M4230 0h544l-268 4314h-711l-768-2087c-192-544-345-1017-454-1453h-19c-109 448-256 922-436 1453l-736 2087H672L371 0h531l116 1850c38 646 70 1369 83 1907h13c121-512 294-1069 499-1677L2310 26h423l761 2092c218 589 397 1133 544 1639h20c-7-538 32-1261 64-1863L4230 0z" transform="scale(.01563)"/></defs><use xlink:href="#MyriadPro-Regular-61"/><use xlink:href="#MyriadPro-Regular-77" x="48.2"/><use xlink:href="#MyriadPro-Regular-65" x="121.8"/><use xlink:href="#MyriadPro-Regular-73" x="171.9"/><use xlink:href="#MyriadPro-Regular-6f" x="211.5"/><use xlink:href="#MyriadPro-Regular-6d" x="266.4"/><use xlink:href="#MyriadPro-Regular-65" x="349.8"/><use xlink:href="#MyriadPro-Regular-57" x="399.9"/><use xlink:href="#MyriadPro-Regular-4d" x="484.5"/><use xlink:href="#MyriadPro-Regular-2f" x="564.9"/><use xlink:href="#MyriadPro-Regular-61" x="599.2"/><use xlink:href="#MyriadPro-Regular-77" x="647.4"/><use xlink:href="#MyriadPro-Regular-65" x="721"/><use xlink:href="#MyriadPro-Regular-73" x="771.1"/><use xlink:href="#MyriadPro-Regular-6f" x="810.7"/><use xlink:href="#MyriadPro-Regular-6d" x="865.6"/><use xlink:href="#MyriadPro-Regular-65" x="949"/></g><g style="fill:#8c564b" transform="matrix(.14 0 0 -.14 450.31 205.17)" id="text_20"><defs><path id="MyriadPro-Regular-71" d="M2579-1267h563v3513c0 320 7 589 20 852h-532l-19-468h-13c-153 301-473 538-953 538-653 0-1402-512-1402-1670C243 557 832-70 1555-70c499 0 845 243 1011 550h13v-1747zm0 2528c0-83-19-192-45-269-128-390-441-614-806-614-621 0-915 537-915 1152 0 697 352 1190 934 1190 423 0 723-294 807-640 19-70 25-160 25-237v-582z" transform="scale(.01563)"/></defs><use xlink:href="#MyriadPro-Regular-71"/><use xlink:href="#MyriadPro-Regular-74" x="56.3"/><use xlink:href="#MyriadPro-Regular-69" x="89.4"/><use xlink:href="#MyriadPro-Regular-6c" x="112.8"/><use xlink:href="#MyriadPro-Regular-65" x="136.4"/><use xlink:href="#MyriadPro-Regular-2f" x="186.5"/><use xlink:href="#MyriadPro-Regular-71" x="220.8"/><use xlink:href="#MyriadPro-Regular-74" x="277.1"/><use xlink:href="#MyriadPro-Regular-69" x="310.2"/><use xlink:href="#MyriadPro-Regular-6c" x="333.6"/><use xlink:href="#MyriadPro-Regular-65" x="357.2"/></g><g style="fill:#e377c2" transform="matrix(.14 0 0 -.14 450.31 219.17)" id="text_21"><defs><path id="MyriadPro-Regular-78" d="m102 3098 1050-1517L51 0h621l448 698c115 185 224 345 326 537h13c109-185 211-358 333-537L2246 0h640L1798 1600l1056 1498h-608l-435-660c-102-166-205-326-307-512h-19c-103 173-199 333-314 506l-441 666H102z" transform="scale(.01563)"/><path id="MyriadPro-Regular-64" d="M2579 4544V2694h-13c-140 250-460 474-934 474-755 0-1395-634-1389-1664C243 563 819-70 1568-70c506 0 883 262 1056 608h13l25-538h506c-19 211-26 525-26 800v3744h-563zm0-3245c0-89-6-166-25-243-103-422-448-672-826-672-608 0-915 518-915 1146 0 684 345 1196 928 1196 422 0 729-294 813-652 19-71 25-167 25-237v-538z" transform="scale(.01563)"/></defs><use xlink:href="#MyriadPro-Regular-78"/><use xlink:href="#MyriadPro-Regular-6d" x="46.3"/><use xlink:href="#MyriadPro-Regular-6f" x="129.7"/><use xlink:href="#MyriadPro-Regular-6e" x="184.6"/><use xlink:href="#MyriadPro-Regular-61" x="240.1"/><use xlink:href="#MyriadPro-Regular-64" x="288.3"/><use xlink:href="#MyriadPro-Regular-2f" x="344.7"/><use xlink:href="#MyriadPro-Regular-78" x="379"/><use xlink:href="#MyriadPro-Regular-6d" x="425.3"/><use xlink:href="#MyriadPro-Regular-6f" x="508.7"/><use xlink:href="#MyriadPro-Regular-6e" x="563.6"/><use xlink:href="#MyriadPro-Regular-61" x="619.1"/><use xlink:href="#MyriadPro-Regular-64" x="667.3"/></g><g style="fill:#7f7f7f" transform="matrix(.14 0 0 -.14 450.31 233.17)" id="text_22"><defs><path id="MyriadPro-Regular-50" d="M486 0h557v1728c128-32 282-38 448-38 544 0 1024 160 1319 473 217 224 332 531 332 922 0 384-140 697-377 902-256 231-659 359-1210 359-448 0-800-39-1069-84V0zm557 3859c96 26 282 45 525 45 614 0 1018-275 1018-845 0-595-410-921-1082-921-186 0-339 12-461 44v1677z" transform="scale(.01563)"/></defs><use xlink:href="#MyriadPro-Regular-70"/><use xlink:href="#MyriadPro-Regular-61" x="56.9"/><use xlink:href="#MyriadPro-Regular-70" x="105.1"/><use xlink:href="#MyriadPro-Regular-65" x="162"/><use xlink:href="#MyriadPro-Regular-72" x="212.1"/><use xlink:href="#MyriadPro-Regular-77" x="244.8"/><use xlink:href="#MyriadPro-Regular-6d" x="318.4"/><use xlink:href="#MyriadPro-Regular-2f" x="401.8"/><use xlink:href="#MyriadPro-Regular-50" x="436.1"/><use xlink:href="#MyriadPro-Regular-61" x="489.3"/><use xlink:href="#MyriadPro-Regular-70" x="537.5"/><use xlink:href="#MyriadPro-Regular-65" x="594.4"/><use xlink:href="#MyriadPro-Regular-72" x="644.5"/><use xlink:href="#MyriadPro-Regular-57" x="677.2"/><use xlink:href="#MyriadPro-Regular-4d" x="761.8"/></g><g style="fill:#bcbd22" transform="matrix(.14 0 0 -.14 450.31 247.246)" id="text_23"><defs><path id="MyriadPro-Regular-63" d="M2579 538c-160-71-371-154-691-154-614 0-1075 442-1075 1158 0 647 384 1172 1094 1172 307 0 519-71 653-148l128 436c-154 76-448 160-781 160-1011 0-1664-692-1664-1645C243 570 851-70 1786-70c416 0 742 108 889 185l-96 423z" transform="scale(.01563)"/><path id="MyriadPro-Regular-66" d="M1082 0v2669h748v429h-748v166c0 474 121 896 601 896 160 0 275-32 359-70l76 435c-108 45-281 89-480 89-262 0-544-83-755-288-262-249-358-646-358-1081v-147H90v-429h435V0h557z" transform="scale(.01563)"/></defs><use xlink:href="#MyriadPro-Regular-63"/><use xlink:href="#MyriadPro-Regular-6f" x="44.8"/><use xlink:href="#MyriadPro-Regular-6e" x="99.7"/><use xlink:href="#MyriadPro-Regular-66" x="155.2"/><use xlink:href="#MyriadPro-Regular-6f" x="184.4"/><use xlink:href="#MyriadPro-Regular-72" x="239.3"/><use xlink:href="#MyriadPro-Regular-6d" x="272"/><use xlink:href="#MyriadPro-Regular-61" x="355.4"/><use xlink:href="#MyriadPro-Regular-6c" x="403.6"/><use xlink:href="#MyriadPro-Regular-2f" x="427.2"/><use xlink:href="#MyriadPro-Regular-73" x="461.5"/><use xlink:href="#MyriadPro-Regular-70" x="501.1"/><use xlink:href="#MyriadPro-Regular-65" x="558"/><use xlink:href="#MyriadPro-Regular-63" x="608.1"/><use xlink:href="#MyriadPro-Regular-74" x="652.9"/><use xlink:href="#MyriadPro-Regular-72" x="686"/><use xlink:href="#MyriadPro-Regular-77" x="718.7"/><use xlink:href="#MyriadPro-Regular-6d" x="792.3"/></g><g style="fill:#17becf" transform="matrix(.14 0 0 -.14 450.31 261.17)" id="text_24"><use xlink:href="#MyriadPro-Regular-68"/><use xlink:href="#MyriadPro-Regular-65" x="55.5"/><use xlink:href="#MyriadPro-Regular-72" x="105.6"/><use xlink:href="#MyriadPro-Regular-62" x="138.3"/><use xlink:href="#MyriadPro-Regular-73" x="195.2"/><use xlink:href="#MyriadPro-Regular-74" x="234.8"/><use xlink:href="#MyriadPro-Regular-6c" x="267.9"/><use xlink:href="#MyriadPro-Regular-75" x="291.5"/><use xlink:href="#MyriadPro-Regular-66" x="346.6"/><use xlink:href="#MyriadPro-Regular-74" x="375.8"/><use xlink:href="#MyriadPro-Regular-77" x="408.9"/><use xlink:href="#MyriadPro-Regular-6d" x="482.5"/><use xlink:href="#MyriadPro-Regular-2f" x="565.9"/><use xlink:href="#MyriadPro-Regular-68" x="600.2"/><use xlink:href="#MyriadPro-Regular-65" x="655.7"/><use xlink:href="#MyriadPro-Regular-72" x="705.8"/><use xlink:href="#MyriadPro-Regular-62" x="738.5"/><use xlink:href="#MyriadPro-Regular-73" x="795.4"/><use xlink:href="#MyriadPro-Regular-74" x="835"/><use xlink:href="#MyriadPro-Regular-6c" x="868.1"/><use xlink:href="#MyriadPro-Regular-75" x="891.7"/><use xlink:href="#MyriadPro-Regular-66" x="946.8"/><use xlink:href="#MyriadPro-Regular-74" x="976"/><use xlink:href="#MyriadPro-Regular-77" x="1009.1"/><use xlink:href="#MyriadPro-Regular-6d" x="1082.7"/></g><g style="fill:#aec7e8" transform="matrix(.14 0 0 -.14 450.31 275.08)" id="text_25"><defs><path id="MyriadPro-Regular-6a" d="M-230-1350c300 0 710 102 960 352 275 281 371 672 371 1273v2823H538V493c0-743-58-992-212-1165C192-819-32-890-288-909l58-441zM826 4320c-212 0-359-154-359-352 0-186 135-346 346-346 224 0 358 160 352 346 0 198-135 352-339 352z" transform="scale(.01563)"/></defs><use xlink:href="#MyriadPro-Regular-64"/><use xlink:href="#MyriadPro-Regular-61" x="56.4"/><use xlink:href="#MyriadPro-Regular-6e" x="104.6"/><use xlink:href="#MyriadPro-Regular-61" x="160.1"/><use xlink:href="#MyriadPro-Regular-6b" x="208.3"/><use xlink:href="#MyriadPro-Regular-6a" x="255.2"/><use xlink:href="#MyriadPro-Regular-2f" x="279.5"/><use xlink:href="#MyriadPro-Regular-6f" x="313.8"/><use xlink:href="#MyriadPro-Regular-70" x="368.7"/><use xlink:href="#MyriadPro-Regular-65" x="425.6"/><use xlink:href="#MyriadPro-Regular-6e" x="475.7"/><use xlink:href="#MyriadPro-Regular-62" x="531.2"/><use xlink:href="#MyriadPro-Regular-6f" x="588.1"/><use xlink:href="#MyriadPro-Regular-78" x="643"/></g><g style="fill:#ffbb78" transform="matrix(.14 0 0 -.14 450.31 289.17)" id="text_26"><use xlink:href="#MyriadPro-Regular-62"/><use xlink:href="#MyriadPro-Regular-62" x="56.9"/><use xlink:href="#MyriadPro-Regular-69" x="113.8"/><use xlink:href="#MyriadPro-Regular-64" x="137.2"/><use xlink:href="#MyriadPro-Regular-75" x="193.6"/><use xlink:href="#MyriadPro-Regular-6c" x="248.7"/><use xlink:href="#MyriadPro-Regular-6f" x="272.3"/><use xlink:href="#MyriadPro-Regular-63" x="327.2"/><use xlink:href="#MyriadPro-Regular-6b" x="372"/><use xlink:href="#MyriadPro-Regular-2f" x="418.9"/><use xlink:href="#MyriadPro-Regular-69" x="453.2"/><use xlink:href="#MyriadPro-Regular-63" x="476.6"/><use xlink:href="#MyriadPro-Regular-65" x="521.4"/><use xlink:href="#MyriadPro-Regular-77" x="571.5"/><use xlink:href="#MyriadPro-Regular-6d" x="645.1"/></g><g style="fill:#98df8a" transform="matrix(.14 0 0 -.14 450.31 303.17)" id="text_27"><use xlink:href="#MyriadPro-Regular-61"/><use xlink:href="#MyriadPro-Regular-65" x="48.2"/><use xlink:href="#MyriadPro-Regular-73" x="98.3"/><use xlink:href="#MyriadPro-Regular-6f" x="137.9"/><use xlink:href="#MyriadPro-Regular-70" x="192.8"/><use xlink:href="#MyriadPro-Regular-68" x="249.7"/><use xlink:href="#MyriadPro-Regular-6f" x="305.2"/><use xlink:href="#MyriadPro-Regular-72" x="360.1"/><use xlink:href="#MyriadPro-Regular-2f" x="392.8"/><use xlink:href="#MyriadPro-Regular-77" x="427.1"/><use xlink:href="#MyriadPro-Regular-6d" x="500.7"/><use xlink:href="#MyriadPro-Regular-64" x="584.1"/><use xlink:href="#MyriadPro-Regular-65" x="640.5"/><use xlink:href="#MyriadPro-Regular-72" x="690.6"/><use xlink:href="#MyriadPro-Regular-6c" x="723.3"/><use xlink:href="#MyriadPro-Regular-61" x="746.9"/><use xlink:href="#MyriadPro-Regular-6e" x="795.1"/><use xlink:href="#MyriadPro-Regular-64" x="850.6"/></g><g style="fill:#ff9896" transform="matrix(.14 0 0 -.14 450.31 317.169)" id="text_28"><defs><path id="MyriadPro-Regular-67" d="M3110 2246c0 378 13 628 26 852h-493l-25-468h-13c-135 256-429 538-967 538-710 0-1395-595-1395-1645C243 666 794 13 1562 13c480 0 812 230 985 518h13V186c0-781-422-1082-998-1082-384 0-704 115-909 243l-141-429c250-166 659-256 1030-256 391 0 826 90 1127 372 301 268 441 704 441 1414v1798zm-556-928c0-96-13-204-45-300-122-359-435-576-781-576-608 0-915 505-915 1113 0 717 384 1171 921 1171 410 0 685-268 788-595 25-77 32-160 32-256v-557z" transform="scale(.01563)"/></defs><use xlink:href="#MyriadPro-Regular-66"/><use xlink:href="#MyriadPro-Regular-76" x="29.2"/><use xlink:href="#MyriadPro-Regular-77" x="77.3"/><use xlink:href="#MyriadPro-Regular-6d" x="150.9"/><use xlink:href="#MyriadPro-Regular-6f" x="234.3"/><use xlink:href="#MyriadPro-Regular-72" x="289.2"/><use xlink:href="#MyriadPro-Regular-67" x="321.9"/><use xlink:href="#MyriadPro-Regular-2f" x="377.8"/><use xlink:href="#MyriadPro-Regular-66" x="412.1"/><use xlink:href="#MyriadPro-Regular-76" x="441.3"/><use xlink:href="#MyriadPro-Regular-77" x="489.4"/><use xlink:href="#MyriadPro-Regular-6d" x="563"/></g><g style="fill:#c5b0d5" transform="matrix(.14 0 0 -.14 450.31 331.169)" id="text_29"><use xlink:href="#MyriadPro-Regular-66"/><use xlink:href="#MyriadPro-Regular-76" x="29.2"/><use xlink:href="#MyriadPro-Regular-77" x="77.3"/><use xlink:href="#MyriadPro-Regular-6d" x="150.9"/><use xlink:href="#MyriadPro-Regular-6f" x="234.3"/><use xlink:href="#MyriadPro-Regular-72" x="289.2"/><use xlink:href="#MyriadPro-Regular-67" x="321.9"/><use xlink:href="#MyriadPro-Regular-2f" x="377.8"/><use xlink:href="#MyriadPro-Regular-66" x="412.1"/><use xlink:href="#MyriadPro-Regular-76" x="441.3"/><use xlink:href="#MyriadPro-Regular-77" x="489.4"/><use xlink:href="#MyriadPro-Regular-6d" x="563"/><use xlink:href="#MyriadPro-Regular-33" x="646.4"/></g><g style="fill:#c49c94" transform="matrix(.14 0 0 -.14 450.31 345.17)" id="text_30"><defs><path id="MyriadPro-Regular-4b" d="M486 0h557v1645l410 473L2874 0h659L1850 2483l1561 1831h-691L1402 2694c-109-140-224-294-340-460h-19v2080H486V0z" transform="scale(.01563)"/><path id="MyriadPro-Regular-44" d="M486 13c282-32 615-51 1012-51 838 0 1504 217 1907 620 403 397 621 973 621 1677 0 698-224 1197-608 1549-378 352-948 538-1748 538-441 0-844-39-1184-90V13zm557 3833c147 32 365 58 653 58 1178 0 1754-646 1747-1664 0-1165-646-1830-1837-1830-217 0-422 6-563 32v3404z" transform="scale(.01563)"/><path id="MyriadPro-Regular-45" d="M2720 2483H1043v1363h1773v468H486V0h2426v467H1043v1555h1677v461z" transform="scale(.01563)"/></defs><use xlink:href="#MyriadPro-Regular-4b"/><use xlink:href="#MyriadPro-Regular-44" x="54.2"/><use xlink:href="#MyriadPro-Regular-45" x="120.8"/><use xlink:href="#MyriadPro-Regular-2f" x="170"/><use xlink:href="#MyriadPro-Regular-6b" x="204.3"/><use xlink:href="#MyriadPro-Regular-77" x="251.2"/><use xlink:href="#MyriadPro-Regular-69" x="324.8"/><use xlink:href="#MyriadPro-Regular-6e" x="348.2"/></g><g style="fill:#f7b6d2" transform="matrix(.14 0 0 -.14 450.31 359.17)" id="text_31"><use xlink:href="#MyriadPro-Regular-66"/><use xlink:href="#MyriadPro-Regular-6c" x="29.2"/><use xlink:href="#MyriadPro-Regular-75" x="52.8"/><use xlink:href="#MyriadPro-Regular-78" x="107.9"/><use xlink:href="#MyriadPro-Regular-62" x="154.2"/><use xlink:href="#MyriadPro-Regular-6f" x="211.1"/><use xlink:href="#MyriadPro-Regular-78" x="266"/><use xlink:href="#MyriadPro-Regular-2f" x="312.3"/><use xlink:href="#MyriadPro-Regular-66" x="346.6"/><use xlink:href="#MyriadPro-Regular-6c" x="375.8"/><use xlink:href="#MyriadPro-Regular-75" x="399.4"/><use xlink:href="#MyriadPro-Regular-78" x="454.5"/><use xlink:href="#MyriadPro-Regular-62" x="500.8"/><use xlink:href="#MyriadPro-Regular-6f" x="557.7"/><use xlink:href="#MyriadPro-Regular-78" x="612.6"/></g><g style="fill:#c7c7c7" transform="matrix(.14 0 0 -.14 450.31 373.01)" id="text_32"><use xlink:href="#MyriadPro-Regular-65"/><use xlink:href="#MyriadPro-Regular-6c" x="50.1"/><use xlink:href="#MyriadPro-Regular-65" x="73.7"/><use xlink:href="#MyriadPro-Regular-6d" x="123.8"/><use xlink:href="#MyriadPro-Regular-65" x="207.2"/><use xlink:href="#MyriadPro-Regular-6e" x="257.3"/><use xlink:href="#MyriadPro-Regular-74" x="312.8"/><use xlink:href="#MyriadPro-Regular-61" x="345.9"/><use xlink:href="#MyriadPro-Regular-72" x="394.1"/><use xlink:href="#MyriadPro-Regular-79" x="426.8"/><use xlink:href="#MyriadPro-Regular-2f" x="473.9"/><use xlink:href="#MyriadPro-Regular-67" x="508.2"/><use xlink:href="#MyriadPro-Regular-61" x="564.1"/><use xlink:href="#MyriadPro-Regular-6c" x="612.3"/><use xlink:href="#MyriadPro-Regular-61" x="635.9"/></g><g style="fill:#b0b0b0" transform="matrix(.09716 0 0 -.09716 82.476 342.265)" id="text_33"><defs><path id="MyriadPro-Regular-40" d="M2867 1632c-70-397-409-870-781-870-281 0-422 204-422 486 0 621 454 1152 1018 1152 147 0 256-26 320-45l-135-723zm384-1773c-262-147-601-224-966-224-947 0-1645 666-1645 1735 0 1299 877 2131 1920 2131 992 0 1549-672 1549-1600 0-743-365-1178-691-1171-212 6-288 230-192 716l217 1159c-166 77-409 134-685 134-889 0-1516-723-1516-1517 0-505 320-806 691-806 384 0 678 186 902 563h26c-19-390 217-563 473-563 602 0 1140 563 1140 1523 0 1069-749 1856-1863 1856-1421 0-2336-1145-2336-2464C275 96 1165-672 2214-672c429 0 788 70 1140 256l-103 275z" transform="scale(.01563)"/><path id="MyriadPro-Regular-7c" d="M550 4800v-6400h429v6400H550z" transform="scale(.01563)"/><path id="MyriadPro-Regular-4e" d="M1011 0v1843c0 717-13 1235-45 1779l20 7c217-467 505-960 806-1440L3162 0h563v4314h-525V2509c0-672 13-1197 64-1773l-13-6c-205 441-454 896-774 1401L1094 4314H486V0h525z" transform="scale(.01563)"/><path id="MyriadPro-Regular-53" d="M269 211C499 58 954-70 1370-70c1017 0 1510 582 1510 1248 0 633-371 985-1101 1267-595 230-857 429-857 832 0 294 224 646 812 646 391 0 679-128 820-205l153 455c-192 109-512 211-953 211-839 0-1396-499-1396-1171 0-608 436-973 1140-1223 582-224 812-454 812-857 0-435-332-736-902-736-384 0-749 128-998 281L269 211z" transform="scale(.01563)"/><path id="MyriadPro-Regular-f6" d="M1165 3648c185 0 313 154 313 326 0 186-134 327-313 327s-327-147-327-327c0-172 135-326 320-326h7zm1184 0c185 0 313 154 313 326 0 186-134 327-313 327s-320-147-320-327c0-172 128-326 313-326h7zm-570-480c-857 0-1536-608-1536-1645C243 544 890-70 1728-70c749 0 1542 499 1542 1644 0 948-601 1594-1491 1594zm-13-422c666 0 928-666 928-1191 0-697-403-1203-940-1203-551 0-941 512-941 1190 0 589 288 1204 953 1204z" transform="scale(.01563)"/><path id="MyriadPro-Regular-43" d="M3386 582c-224-108-570-179-909-179-1050 0-1658 679-1658 1735 0 1132 672 1779 1683 1779 359 0 660-77 871-179l134 454c-147 77-486 192-1024 192-1337 0-2253-915-2253-2266C230 704 1146-70 2362-70c524 0 934 108 1139 211l-115 441z" transform="scale(.01563)"/><path id="MyriadPro-Regular-42" d="M486 13c186-26 480-51 864-51 704 0 1191 128 1492 403 217 211 364 493 364 864 0 640-480 979-889 1081v13c454 167 729 531 729 947 0 340-134 596-358 762-269 218-627 314-1184 314-390 0-774-39-1018-90V13zm557 3865c90 20 237 39 493 39 563 0 947-199 947-704 0-416-345-723-934-723h-506v1388zm0-1811h461c608 0 1114-243 1114-832 0-627-532-838-1108-838-198 0-358 6-467 25v1645z" transform="scale(.01563)"/><path id="MyriadPro-Regular-59" d="M2010 0v1837l1446 2477h-634l-620-1191c-167-326-314-608-436-889h-12c-135 300-263 563-429 889L717 4314H83l1363-2484V0h564z" transform="scale(.01563)"/></defs><use xlink:href="#MyriadPro-Regular-40"/><use xlink:href="#MyriadPro-Regular-6e" x="73.7"/><use xlink:href="#MyriadPro-Regular-73" x="129.2"/><use xlink:href="#MyriadPro-Regular-63" x="168.8"/><use xlink:href="#MyriadPro-Regular-68" x="213.6"/><use xlink:href="#MyriadPro-Regular-6c" x="269.1"/><use xlink:href="#MyriadPro-Regular-6f" x="292.7"/><use xlink:href="#MyriadPro-Regular-65" x="347.6"/><use xlink:href="#MyriadPro-Regular-20" x="397.7"/><use xlink:href="#MyriadPro-Regular-2f" x="418.9"/><use xlink:href="#MyriadPro-Regular-20" x="453.2"/><use xlink:href="#MyriadPro-Regular-73" x="474.4"/><use xlink:href="#MyriadPro-Regular-74" x="514"/><use xlink:href="#MyriadPro-Regular-61" x="547.1"/><use xlink:href="#MyriadPro-Regular-72" x="595.3"/><use xlink:href="#MyriadPro-Regular-67" x="628"/><use xlink:href="#MyriadPro-Regular-72" x="683.9"/><use xlink:href="#MyriadPro-Regular-61" x="716.6"/><use xlink:href="#MyriadPro-Regular-70" x="764.8"/><use xlink:href="#MyriadPro-Regular-68" x="821.7"/><use xlink:href="#MyriadPro-Regular-20" x="877.2"/><use xlink:href="#MyriadPro-Regular-7c" x="898.4"/><use xlink:href="#MyriadPro-Regular-20" x="922.3"/><use xlink:href="#MyriadPro-Regular-4e" x="943.5"/><use xlink:href="#MyriadPro-Regular-69" x="1009.3"/><use xlink:href="#MyriadPro-Regular-63" x="1032.7"/><use xlink:href="#MyriadPro-Regular-6f" x="1077.5"/><use xlink:href="#MyriadPro-Regular-20" x="1132.4"/><use xlink:href="#MyriadPro-Regular-53" x="1153.6"/><use xlink:href="#MyriadPro-Regular-63" x="1202.9"/><use xlink:href="#MyriadPro-Regular-68" x="1247.7"/><use xlink:href="#MyriadPro-Regular-6c" x="1303.2"/><use xlink:href="#MyriadPro-Regular-f6" x="1326.8"/><use xlink:href="#MyriadPro-Regular-6d" x="1381.7"/><use xlink:href="#MyriadPro-Regular-65" x="1465.1"/><use xlink:href="#MyriadPro-Regular-72" x="1515.2"/><use xlink:href="#MyriadPro-Regular-20" x="1547.9"/><use xlink:href="#MyriadPro-Regular-7c" x="1569.1"/><use xlink:href="#MyriadPro-Regular-20" x="1593"/><use xlink:href="#MyriadPro-Regular-43" x="1614.2"/><use xlink:href="#MyriadPro-Regular-43" x="1672.2"/><use xlink:href="#MyriadPro-Regular-20" x="1730.2"/><use xlink:href="#MyriadPro-Regular-42" x="1751.4"/><use xlink:href="#MyriadPro-Regular-59" x="1805.6"/></g><path d="m302.097 308.367 2.186-.026h2.259l2.258-.027h8.744l2.186-.026h6.704l2.259-.052h4.445l2.259-.026 2.04-.027H348.586l2.259-.052h2.186l2.258-.052h2.186l2.26-.027h2.258l2.04-.052 2.26-.026 2.185-.052 2.26-.079 2.185-.052 2.259-.079 2.259-.052 2.186-.157 2.259-.079 2.186-.026 2.259-.183 2.259-.34 2.113-.184 2.259-.367 2.186-.262 2.258-.418 2.186-.184 2.26-.288 2.258-.105 2.186-1.073 2.259-.445 2.186-.184 2.259-.288 2.259-.261 2.04-.236 2.259-.131 2.186-.13 2.259-.184 2.186-.42 2.259-.313 2.259-.315 2.186-.235 2.258-.367 2.186-.157 2.26-.105" clip-path="url(#pa78f648f92)" style="fill:none;stroke:#c5b0d5;stroke-width:1.5;stroke-linecap:square" id="line2d_23"/><path d="m284.244 308.367 2.26-.262 2.185-.236 2.26-.183 2.185-.157 2.259-.105 2.259-.21 2.186-.13 2.259-.105 2.186-.288 2.259-.131 2.258-.105 2.04-.052 2.26-.183 2.186-.053 2.258-.13 2.186-.105 2.26-.105 2.258-.105 2.186-.105 2.259-.104 2.186-.131 2.259-.184 2.259-.183 2.04-.105 2.259-.078 2.186-.183 2.259-.184 2.186-.026 2.259-.236 2.259-.104 2.186-.079 2.258-.34 2.186-.157 2.26-.079 2.258-.262 2.04-.235 2.26-.105 2.185-.105 2.26-.236 2.185-.078 2.259-.21 2.259-.157 2.186-.078 2.259-.079 2.186-.183 2.259-.079 2.259-.078 2.113-.053 2.259-.104 2.186-.184 2.258-.104 2.186-.131 2.26-.105 2.258-.079 2.186-.183 2.259-.078H413l2.259-.053 2.04-.052 2.259-.026 2.186-.027 2.259-.026 2.186-.078 2.259-.026 2.259-.158 2.186-.13 2.258-.079h2.186l2.26-.026" clip-path="url(#pa78f648f92)" style="fill:none;stroke:#ff9896;stroke-width:1.5;stroke-linecap:square" id="line2d_24"/><path d="m355.29 308.367 2.185-.131 2.26-1.23 2.258-.367 2.04-1.022 2.26-.261 2.185-.158 2.26-.104 2.185-.053 2.259-.026 2.259-1.1 2.186-.314 2.259-.55 2.186-.026 2.259-.34 2.259-.053 2.113-.733 2.259-.288 2.186-.21 2.258-.156 2.186-.315 2.26-.262 2.258-.261 2.186-.053 2.259-.078 2.186-.184 2.259-.183 2.259-.105 2.04-.13 2.259-.158 2.186-.157 2.259-.13 2.186-.053 2.259-.026 2.259-.079 2.186-.026 2.258-.105 2.186-.026 2.26-.105" clip-path="url(#pa78f648f92)" style="fill:none;stroke:#98df8a;stroke-width:1.5;stroke-linecap:square" id="line2d_25"/><path d="m219.976 308.367 2.259-.026 2.186-.053 2.259-.026h8.744l2.258-.026 2.186-.026h4.518l2.186-.027 2.26-.026 2.185-.026h4.518l2.04-.026 2.259-.053 2.186-.026h4.445l2.259-.026 2.259-.026 2.186-.079 2.258-.026 2.186-.026 2.26-.21 2.258-.026 2.113-.078 2.26-.026 2.185-.053 2.26-.052 2.185-.026 2.259-.026 2.259-.027 2.186-.104 2.259-.027 2.186-.104h2.259l2.258-.053 2.04-.078 2.26-.026 2.186-.105 2.258-.053 2.186-.052 2.26-.262 2.258-.052 2.186-.079 2.259-.157 2.186-.157 2.259-.026 2.259-.105 2.04-.052 2.259-.053 2.186-.026 2.259-.13 2.186-.105 2.259-.027 2.259-.104 2.186-.157 2.258-.053 2.186-.183 2.26-.052 2.258-.131 2.04-.131 2.26-.34 2.185-.341 2.26-.157 2.185-.183 2.259-.21 2.259-.183 2.186-.131 2.259-.105 2.186-.262 2.259-.052 2.259-.105 2.113-.157 2.259-.052 2.186-.21 2.258-.183 2.186-.105 2.26-.183 2.258-.288 2.186-.053 2.259-.314 2.186-.288 2.259-.497 2.259-.262 2.04-.183 2.259-.184 2.186-.183 2.259-.13 2.186-.263 2.259-.104 2.259-.079 2.186-.157 2.258-.262 2.186-.236 2.26-.235" clip-path="url(#pa78f648f92)" style="fill:none;stroke:#ffbb78;stroke-width:1.5;stroke-linecap:square" id="line2d_26"/><path d="m140.114 308.367 4.445-.131 70.972-.105 13.407-.55 4.3-.183 2.186-.026 2.258-.157 6.704-.184 26.597-1.23 4.444-.079 2.186-.21 4.518-.183 6.558-.235 20.111-.576 2.04-.184 15.594-.628 8.963-.471 2.04-.053 2.259-.235 15.593-.681 4.445-.157 2.26-.236 4.298-.13 2.186-.289 4.445-.183 4.518-.21 2.186-.104 4.445-.393 17.78-1.126 4.444-.367 6.704-.419 2.259-.262 8.744-.366 15.593-1.78h0" clip-path="url(#pa78f648f92)" style="fill:none;stroke:#aec7e8;stroke-width:1.5;stroke-linecap:square" id="line2d_27"/><path d="m246.572 308.367 2.26-.184h2.185l2.259-.052 2.259-.262 2.04-.052 2.259-.105 2.186-.078 2.259-.079 2.186-.105h2.259l2.259-.13 2.186-.184 2.258-.13 2.186-.158 2.26-.157 2.258-.157 2.113-.236 2.26-.13 2.185-.132 2.26-.34 2.185-.157 2.259-.236 2.259-.262 2.186-.183 2.259-.079 2.186-.078 2.259-.105 2.258-.288 2.04-.13 2.26-.289 2.186-.105 2.258-.078 2.186-.052 2.26-.184 2.258-.34 2.186-.105 2.259-.288 2.186-.13 2.259-.158 2.259-.183 2.04-.105 2.259-.183 2.186-.288 2.259-.184 2.186-.13 2.259-.236 2.259-.183 2.186-.105 2.258-.079 2.186-.21 2.26-.261 2.258-.183 2.04-.21 2.26-.34 2.185-.184 2.26-.235 2.185-.34 2.259-.262 2.259-.288 2.186-.184 2.259-.104 2.186-.08 2.259-.209 2.259-.157 2.113-.288 2.259-.34 2.186-.68 2.258-.394 2.186-.157 2.26-.89 2.258-.236 2.186-.366 2.259-.262 2.186-.707 2.259-.419 2.259-.262 2.04-.34 2.259-.524 2.186-.628 2.259-.603 2.186-.288 2.259-.445 2.259-.288 2.186-.262 2.258-.55 2.186-.366 2.26-.524" clip-path="url(#pa78f648f92)" style="fill:none;stroke:#17becf;stroke-width:1.5;stroke-linecap:square" id="line2d_28"/><path d="m211.086 308.367 2.186-.079 2.259-.078 2.259-.105 2.186-.105 2.259-.183 2.186-.236 2.259-.052 2.258-.131 2.04-.079 2.26-.13 2.186-.105 2.258-.027 2.186-.104 2.26-.131 2.258-.105 2.186-.105 2.26-.261 2.185-.027 2.259-.104 2.259-.105 2.04-.183 2.259-.131 2.186-.131 2.259-.079 2.186-.13 2.259-.132 2.259-.183 2.186-.079 2.258-.157 2.186-.104 2.26-.131 2.258-.131 2.113-.21 2.26-.262 2.185-.183 2.26-.34 2.185-.079 2.259-.235 2.259-.158 2.186-.157 2.259-.21 2.186-.209 2.259-.13 2.258-.158 2.04-.104 2.26-.105 2.186-.262 2.258-.13 2.186-.106 2.26-.104 2.258-.262 2.186-.105 2.259-.236 2.186-.078 2.259-.183 2.259-.21 2.04-.366 2.259-.21 2.186-.157 2.259-.236 2.186-.157 2.259-.052 2.259-.131 2.186-.131 2.258-.079 2.186-.21 2.26-.366 2.258-.261 2.04-.315 2.26-.078 2.185-.184 2.26-.157 2.185-.262 2.259-.314 2.259-.392 2.186-.262 2.259-.21 2.186-.183 2.259-.393 2.259-.13 2.113-.367 2.259-.236 2.186-2.435 2.258-1.178 2.186-.786 2.26-.602 2.258-.55 2.186-.969 2.259-.628 2.186-.524 2.259-.445 2.259-.55 2.04-.471 2.259-.576 2.186-.55 2.259-.472 2.186-.497 2.259-.367 2.259-.602 2.186-.628 2.258-.498 2.186-.524 2.26-.497" clip-path="url(#pa78f648f92)" style="fill:none;stroke:#bcbd22;stroke-width:1.5;stroke-linecap:square" id="line2d_29"/><path d="m324.248 308.367 2.186-.026h15.448l2.259-.027 2.186-.078 2.259-.131 2.259-.105 2.186-.026 2.258-.079 2.186-.052 2.26-.079 2.258-.052 2.04-.21 2.26-.183 2.185-.262 2.26-.288 2.185-6.205 2.259-1.493 2.259-.288 2.186-1.23 2.259-.629 2.186-.576 2.259-.262 2.259-5.917 2.113-1.598 2.259-2.042 2.186-1.807 2.258-1.545 2.186-1.283 2.26-1.126 2.258-.68 2.186-1.179 2.259-.811 2.186-.734 2.259-1.073 2.259-1.519 2.04-1.23 2.259-.996 2.186-1.02 2.259-.734 2.186-.864 2.259-.68 2.259-.603 2.186-.76 2.258-.837 2.186-1.074 2.26-.576" clip-path="url(#pa78f648f92)" style="fill:none;stroke:#7f7f7f;stroke-width:1.5;stroke-linecap:square" id="line2d_30"/><path d="m268.724 308.367 2.259-.34 2.186-.341 2.258-.288 2.186-.68 2.26-.708 2.258-1.23 2.113-.393 2.26-.707 2.185-.445 2.26-.576 2.185-.446 2.259-.392 2.259-.42 2.186-.47 2.259-.603 2.186-.602 2.259-.786 2.258-.523 2.04-3.326 2.26-.497 2.186-1.283 2.258-.76 2.186-.654 2.26-.445 2.258-.498 2.186-.55 2.259-.419 2.186-.523 2.259-.655 2.259-.34 2.04-.655 2.259-.89 2.186-.655 2.259-.524 2.186-.445 2.259-.55 2.259-.759 2.186-.969 2.258-.785 2.186-.498 2.26-.524 2.258-.523 2.04-.524 2.26-.524 2.185-.392 2.26-.76 2.185-.628 2.259-.498 2.259-.68 2.186-.367 2.259-.471 2.186-.629 2.259-.76 2.259-.497 2.113-.55 2.259-.602 2.186-.55 2.258-.837 2.186-.734 2.26-.942 2.258-.838 2.186-.681 2.259-.707 2.186-.76L413 265.66l2.259-.916 2.04-.786 2.259-1.23 2.186-1.074 2.259-1.964 2.186-1.23 2.259-1.467 2.259-1.519 2.186-1.047 2.258-2.2 2.186-2.409 2.26-1.544" clip-path="url(#pa78f648f92)" style="fill:none;stroke:#e377c2;stroke-width:1.5;stroke-linecap:square" id="line2d_31"/><path d="m82.476 308.367 2.26-.681 6.63-.288 4.518-.367 4.299-.314 2.186-.366 11.148-.838 8.963-.472 10.93-.89 2.259-.105 2.259-.262 2.186-.104 15.448-1.545 4.444-.288 4.518-.445 15.52-.681 24.338-.629 2.26-.419 8.889-.916 2.259-.105 2.186-.288 2.259-.104 2.186-.315 2.259-.445 6.558-.68 11.148-1.362 2.186-1.912 4.445-.628 4.518-.969 2.04-1.283 2.259-.707 4.445-.733 2.186-.236 2.259-.576 6.703-1.23 4.445-.629 2.26-.419 2.112-.628 2.26-.393 2.185-.236 2.26-.55 8.889-1.047 2.259-.707 2.186-.21 4.517-.785 4.3-.707 2.186-.524 2.258-.366 2.186-.157 4.518-.524 4.445-.393 2.186-.393 4.518-.55 4.299-.968 8.89-1.31 4.445-.994 2.258-.288 2.186-.577 4.518-1.728 2.04-.864 6.704-1.57 2.186-.367 11.149-2.907 2.259-.969 4.372-1.23 2.259-.707 2.186-1.729 4.444-1.885 2.26-1.78 4.444-2.619 2.259-.916 2.186-1.152 2.259-1.964 4.299-3.352 2.259-2.487 4.445-3.011 4.445-3.247 2.259-2.278 2.186-3.116 2.258-1.938 2.186-2.2 2.26-1.937h0" clip-path="url(#pa78f648f92)" style="fill:none;stroke:#8c564b;stroke-width:1.5;stroke-linecap:square" id="line2d_32"/><path d="m230.979 308.367 2.259-.21 2.186-.183 2.258-.157 2.186-.053 2.26-.052 2.258-.13 2.186-.08 2.26-.13 2.185-1.702 2.259-.812 2.259-.786 2.04-.864 2.259-.89 2.186-.68 2.259-.786 2.186-.943 2.259-.838 2.259-.76 2.186-1.073 2.258-.628 2.186-.707 2.26-.812 2.258-1.414 2.113-1.204 2.26-.838 2.185-.943 2.26-.733 2.185-.812 2.259-.707 2.259-.916 2.186-1.047 2.259-.681 2.186-.55 2.259-1.283 2.258-2.147 2.04-1.728 2.26-1.833 2.186-1.414 2.258-1.283 2.186-1.31 2.26-1.204 2.258-1.571 2.186-1.205 2.259-.968 2.186-1.074 2.259-1.1 2.259-1.152 2.04-1.152 2.259-1.519 2.186-1.178 2.259-1.335 2.186-1.283 2.259-.838 2.259-1.074 2.186-1.335 2.258-1.152 2.186-1.126 2.26-1.44 2.258-1.362 2.04-1.571 2.26-1.362 2.185-1.518 2.26-1.52 2.185-1.518 2.259-1.1 2.259-1.754 2.186-.995 2.259-1.65 2.186-1.335 2.259-1.361 2.259-.917 2.113-1.466 2.259-1.676 2.186-2.304 2.258-1.86 2.186-1.309 2.26-1.937 2.258-2.252 2.186-1.44 2.259-2.121 2.186-1.755 2.259-1.728 2.259-1.964 2.04-1.702 2.259-2.042 2.186-2.095 2.259-2.016 2.186-1.492 2.259-1.545 2.259-2.069 2.186-1.754 2.258-1.519 2.186-2.147 2.26-1.938" clip-path="url(#pa78f648f92)" style="fill:none;stroke:#9467bd;stroke-width:1.5;stroke-linecap:square" id="line2d_33"/><path d="m186.676 308.367 2.259-.733 2.258-.027h4.446l2.185-.026h2.26l2.258-.026 2.04-.026 2.26-.105 2.185-.13 2.26-.158 2.185-.157 2.259-.157 2.259-.367 2.186-1.178 2.259-.628 2.186-.681 2.259-.42 2.258-.837 2.04-.707 2.26-.445 2.186-.655 2.258-.393 2.186-.419 2.26-.628 2.258-.419 2.186-.497 2.26-.917 2.185-.68 2.259-.42 2.259-.916 2.04-1.283 2.259-.969 2.186-.68 2.259-.734 2.186-.55 2.259-.89 2.259-.838 2.186-.89 2.258-.707 2.186-.576 2.26-1.1 2.258-1.571 2.113-1.178 2.26-1.283 2.185-1.414 2.26-1.179 2.185-.942 2.259-1.31 2.259-.68 2.186-.786 2.259-1.178 2.186-.969 2.259-1.126 2.258-.916 2.04-.838 2.26-1.152 2.186-.943 2.258-.576 2.186-1.047 2.26-.995 2.258-1.153 2.186-.864 2.259-.89 2.186-.76 2.259-.916 2.259-1.126 2.04-.864 2.259-1.178 2.186-1.204 2.259-1.257 2.186-.864 2.259-1.179 2.259-.969 2.186-1.073 2.258-1.44 2.186-1.048 2.26-.942 2.258-1.283 2.04-1.571 2.26-3.404 2.185-2.33 2.26-2.043 2.185-1.545 2.259-1.938 2.259-1.414 2.186-2.016 2.259-1.728 2.186-1.519 2.259-3.299 2.259-1.676 2.113-1.754 2.259-3.142 2.186-2.828 2.258-2.016 2.186-2.828 2.26-1.833 2.258-3.142 2.186-2.566 2.259-2.933 2.186-2.854 2.259-5.551 2.259-2.697 2.04-2.514 2.259-2.644 2.186-3.562 2.259-2.88 2.186-1.964 2.259-2.252 2.259-3.534 2.186-2.75 2.258-3.09 2.186-3.09 2.26-3.063" clip-path="url(#pa78f648f92)" style="fill:none;stroke:#d62728;stroke-width:1.5;stroke-linecap:square" id="line2d_34"/><path d="m255.535 308.367 2.04-3.352 2.259-2.854 2.186-1.571 2.259-1.388 2.186-1.519 2.259-1.597 2.259-1.623 2.186-1.388 2.258-1.99 2.186-1.44 2.26-1.99 2.258-1.624 2.113-1.544 2.26-1.938 2.185-1.388 2.26-1.728 2.185-1.23 2.259-1.258 2.259-1.57 2.186-1.886 2.259-2.042 2.186-1.833 2.259-1.86 2.258-2.304 2.04-1.937 2.26-2.226 2.186-1.964 2.258-1.414 2.186-1.57 2.26-1.153 2.258-1.833 2.186-1.911 2.259-2.907 2.186-2.409 2.259-2.2 2.259-2.303 2.04-2.305 2.259-3.404 2.186-2.487 2.259-2.226 2.186-2.67 2.259-2.671 2.259-2.802 2.186-2.514 2.258-2.959 2.186-2.278 2.26-2.618 2.258-2.592 2.04-2.566 2.26-3.169 2.185-2.828 2.26-2.88 2.185-2.252 2.259-2.723 2.259-2.566 2.186-2.75 2.259-2.277 2.186-2.593 2.259-2.225 2.259-2.671 2.113-2.645 2.259-2.2 2.186-3.168 2.258-2.88 2.186-2.644 2.26-1.676 2.258-1.519 2.186-2.095 2.259-2.435 2.186-2.304L413 152.7l2.259-2.252 2.04-1.755 2.259-2.252 2.186-2.12 2.259-2.07 2.186-1.57 2.259-1.336 2.259-2.566 2.186-3.116 2.258-2.827 2.186-2.593 2.26-2.225" clip-path="url(#pa78f648f92)" style="fill:none;stroke:#2ca02c;stroke-width:1.5;stroke-linecap:square" id="line2d_35"/><path d="m268.724 308.367 2.259-9.898 2.186-1.702 2.258-1.178 2.186-2.121 2.26-2.671 2.258-1.702 2.113-1.362 2.26-7.096 2.185-3.037 2.26-1.859 2.185-1.152 2.259-1.519 2.259-1.623 2.186-1.728 2.259-1.231 2.186-1.807 2.259-1.859 2.258-3.901 2.04-2.41 2.26-2.644 2.186-3.378 2.258-2.356 2.186-2.069 2.26-2.042 2.258-1.78 2.186-2.07 2.259-5.89 2.186-3.536 2.259-3.247 2.259-2.723 2.04-3.325 2.259-3.273 2.186-4.033 2.259-3.09 2.186-2.487 2.259-2.854 2.259-3.404 2.186-3.116 2.258-6.782 2.186-4.11 2.26-3.457 2.258-5.84 2.04-3.665 2.26-10.893 2.185-5.08 2.26-4.006 2.185-3.666 2.259-3.822 2.259-3.273 2.186-2.986 2.259-2.749 2.186-3.351 2.259-3.143 2.259-4.582 2.113-3.64 2.259-3.22 2.186-3.64 2.258-3.587 2.186-2.828 2.26-3.797 2.258-3.116 2.186-2.461 2.259-2.985 2.186-3.273L413 93.655l2.259-3.64 2.04-3.509 2.259-4.137 2.186-3.849 2.259-3.692 2.186-2.906 2.259-3.535 2.259-3.588 2.186-4.765 2.258-5.158 2.186-4.87 2.26-4.164" clip-path="url(#pa78f648f92)" style="fill:none;stroke:#ff7f0e;stroke-width:1.5;stroke-linecap:square" id="line2d_36"/><path d="m211.086 308.367 2.186-.131 2.259-.105 2.259-.236 2.186-.288 2.259-5.158 2.186-1.964 2.259-.733 2.258-1.492 2.04-2.069 2.26-1.78 2.186-3.247 2.258-1.231 2.186-1.126 2.26-1.519 2.258-1.361 2.186-1.912 2.26-2.461 2.185-1.31 2.259-11.206 2.259-1.938 2.04-1.257 2.259-1.833 2.186-1.859 2.259-1.754 2.186-1.885 2.259-1.362 2.259-1.44 2.186-1.754 2.258-1.781 2.186-1.388 2.26-2.592 2.258-2.566 2.113-2.147 2.26-2.488 2.185-2.2 2.26-1.963 2.185-1.86 2.259-2.33 2.259-2.12 2.186-1.467 2.259-2.723 2.186-1.78 2.259-1.833 2.258-3.116 2.04-2.33 2.26-2.724 2.186-2.12 2.258-2.436 2.186-2.095 2.26-1.361 2.258-2.75 2.186-2.016 2.259-2.2 2.186-1.806 2.259-2.016 2.259-3.3 2.04-1.963 2.259-2.33 2.186-2.357 2.259-2.41 2.186-1.754 2.259-2.304 2.259-1.493 2.186-1.859 2.258-2.173 2.186-1.859 2.26-1.86 2.258-2.88 2.04-2.408 2.26-4.059 2.185-3.09 2.26-2.932 2.185-2.357 2.259-3.037 2.259-3.535 2.186-2.985 2.259-3.457 2.186-2.46 2.259-2.41 2.259-3.063 2.113-2.488 2.259-3.194 2.186-3.771 2.258-4.11 2.186-3.588 2.26-3.116 2.258-3.273 2.186-4.085 2.259-3.718 2.186-4.609L413 90.12l2.259-3.823 2.04-4.425 2.259-4.373 2.186-3.666 2.259-4.242 2.186-3.142 2.259-4.19 2.259-3.587 2.186-3.665 2.258-3.535 2.186-4.792 2.26-4.425" clip-path="url(#pa78f648f92)" style="fill:none;stroke:#1f77b4;stroke-width:1.5;stroke-linecap:square" id="line2d_37"/></g></g><defs><clipPath id="pa78f648f92"><path d="M82.476 42.255h357.12v266.112H82.476z"/></clipPath></defs></svg>