<svg height="466.49" viewBox="0 0 573.06 349.868" width="764.08" xmlns="http://www.w3.org/2000/svg" xmlns:xlink="http://www.w3.org/1999/xlink"><defs><style>*{stroke-linecap:butt;stroke-linejoin:round}</style></defs><g id="figure_1"><path d="M0 349.868h573.06V0H0z" style="fill:none" id="patch_1"/><g id="axes_1"><path d="M82.476 306.34h357.12V40.23H82.476z" style="fill:none" id="patch_2"/><g id="matplotlib.axis_1"><g id="xtick_1"><g id="line2d_1"><defs><path d="M0 0v3.5" id="mc20507075d" style="stroke:#969696;stroke-width:.4"/></defs><use style="fill:#969696;stroke:#969696;stroke-width:.4" x="94.113" xlink:href="#mc20507075d" y="306.341"/></g><g style="fill:#969696" transform="matrix(.14 0 0 -.14 79.75 323.28)" id="text_1"><defs><path d="M2944 0v467H1075v13l333 307c877 845 1434 1466 1434 2234 0 595-378 1209-1274 1209-480 0-890-179-1178-422l180-397c192 160 505 352 883 352 621 0 825-390 825-813-6-627-486-1164-1548-2176L288 346V0h2656z" id="MyriadPro-Regular-32" transform="scale(.01563)"/><path d="M1677 4230c-845 0-1447-768-1447-2163C243 691 794-70 1606-70c922 0 1447 780 1447 2195 0 1325-499 2105-1376 2105zm-32-435c582 0 845-672 845-1696 0-1062-276-1734-852-1734-512 0-844 614-844 1696 0 1133 358 1734 851 1734z" id="MyriadPro-Regular-30" transform="scale(.01563)"/><path d="M1510 0h544v4160h-480l-908-486 108-429 724 390h12V0z" id="MyriadPro-Regular-31" transform="scale(.01563)"/></defs><use xlink:href="#MyriadPro-Regular-32"/><use x="51.3" xlink:href="#MyriadPro-Regular-30"/><use x="102.6" xlink:href="#MyriadPro-Regular-31"/><use x="153.9" xlink:href="#MyriadPro-Regular-32"/></g></g><g id="xtick_2"><use style="fill:#969696;stroke:#969696;stroke-width:.4" x="129.024" xlink:href="#mc20507075d" y="306.341" id="line2d_2"/><g style="fill:#969696" transform="matrix(.14 0 0 -.14 114.66 323.28)" id="text_2"><defs><path d="M269 211C474 77 883-70 1350-70c999 0 1517 582 1517 1248 0 582-416 966-928 1068v13c512 186 768 551 768 979 0 506-371 992-1190 992-448 0-871-160-1088-320l147-409c179 128 499 275 832 275 518 0 730-294 730-627 0-493-519-704-928-704H896v-423h314c544 0 1068-249 1075-832 6-345-218-806-941-806-390 0-762 160-922 262L269 211z" id="MyriadPro-Regular-33" transform="scale(.01563)"/></defs><use xlink:href="#MyriadPro-Regular-32"/><use x="51.3" xlink:href="#MyriadPro-Regular-30"/><use x="102.6" xlink:href="#MyriadPro-Regular-31"/><use x="153.9" xlink:href="#MyriadPro-Regular-33"/></g></g><g id="xtick_3"><use style="fill:#969696;stroke:#969696;stroke-width:.4" x="163.839" xlink:href="#mc20507075d" y="306.341" id="line2d_3"/><g style="fill:#969696" transform="matrix(.14 0 0 -.14 149.476 323.28)" id="text_3"><defs><path d="M2560 0v1133h582v441h-582v2586h-608L96 1504v-371h1933V0h531zM666 1574v13l1017 1415c115 192 218 371 346 614h19c-13-218-19-435-19-653V1574H666z" id="MyriadPro-Regular-34" transform="scale(.01563)"/></defs><use xlink:href="#MyriadPro-Regular-32"/><use x="51.3" xlink:href="#MyriadPro-Regular-30"/><use x="102.6" xlink:href="#MyriadPro-Regular-31"/><use x="153.9" xlink:href="#MyriadPro-Regular-34"/></g></g><g id="xtick_4"><use style="fill:#969696;stroke:#969696;stroke-width:.4" x="198.655" xlink:href="#mc20507075d" y="306.341" id="line2d_4"/><g style="fill:#969696" transform="matrix(.14 0 0 -.14 184.292 323.28)" id="text_4"><defs><path d="M2771 4160H781L512 2163c154 19 339 45 576 45 832 0 1190-384 1197-922 0-556-455-902-986-902-377 0-717 128-889 230L269 186C467 58 851-70 1306-70c902 0 1548 608 1548 1420 0 525-268 884-595 1069-256 154-576 224-896 224-153 0-243-13-339-25l160 1068h1587v474z" id="MyriadPro-Regular-35" transform="scale(.01563)"/></defs><use xlink:href="#MyriadPro-Regular-32"/><use x="51.3" xlink:href="#MyriadPro-Regular-30"/><use x="102.6" xlink:href="#MyriadPro-Regular-31"/><use x="153.9" xlink:href="#MyriadPro-Regular-35"/></g></g><g id="xtick_5"><use style="fill:#969696;stroke:#969696;stroke-width:.4" x="233.47" xlink:href="#mc20507075d" y="306.341" id="line2d_5"/><g style="fill:#969696" transform="matrix(.14 0 0 -.14 219.107 323.28)" id="text_5"><defs><path d="M2662 4224c-102 0-243-6-409-32-525-64-986-275-1331-614-410-410-704-1056-704-1876C218 621 800-70 1690-70c864 0 1382 704 1382 1465 0 813-518 1344-1254 1344-461 0-807-217-1005-480h-19c96 685 563 1331 1446 1479 160 25 307 32 422 25v461zM1690 365c-589 0-903 505-916 1190 0 103 26 186 64 250 154 301 468 512 807 512 518 0 857-359 857-954s-326-998-806-998h-6z" id="MyriadPro-Regular-36" transform="scale(.01563)"/></defs><use xlink:href="#MyriadPro-Regular-32"/><use x="51.3" xlink:href="#MyriadPro-Regular-30"/><use x="102.6" xlink:href="#MyriadPro-Regular-31"/><use x="153.9" xlink:href="#MyriadPro-Regular-36"/></g></g><g id="xtick_6"><use style="fill:#969696;stroke:#969696;stroke-width:.4" x="268.381" xlink:href="#mc20507075d" y="306.341" id="line2d_6"/><g style="fill:#969696" transform="matrix(.14 0 0 -.14 254.018 323.28)" id="text_6"><defs><path d="M365 4160v-467h2035v-13L595 0h583l1811 3789v371H365z" id="MyriadPro-Regular-37" transform="scale(.01563)"/></defs><use xlink:href="#MyriadPro-Regular-32"/><use x="51.3" xlink:href="#MyriadPro-Regular-30"/><use x="102.6" xlink:href="#MyriadPro-Regular-31"/><use x="153.9" xlink:href="#MyriadPro-Regular-37"/></g></g><g id="xtick_7"><use style="fill:#969696;stroke:#969696;stroke-width:.4" x="303.196" xlink:href="#mc20507075d" y="306.341" id="line2d_7"/><g style="fill:#969696" transform="matrix(.14 0 0 -.14 288.833 323.28)" id="text_7"><defs><path d="M1062 2170c-512-218-825-589-825-1114C237 448 762-70 1632-70c794 0 1414 486 1414 1209 0 506-320 871-838 1075v20c512 243 685 620 685 972 0 519-403 1024-1210 1024-729 0-1286-448-1286-1107 0-358 198-717 659-934l6-19zm583-1831c-531 0-851 371-832 794 0 397 262 717 749 857 563-160 915-403 915-908 0-423-327-743-832-743zm6 3488c506 0 704-345 704-678 0-378-275-634-633-755-480 128-794 352-794 768 0 358 256 665 723 665z" id="MyriadPro-Regular-38" transform="scale(.01563)"/></defs><use xlink:href="#MyriadPro-Regular-32"/><use x="51.3" xlink:href="#MyriadPro-Regular-30"/><use x="102.6" xlink:href="#MyriadPro-Regular-31"/><use x="153.9" xlink:href="#MyriadPro-Regular-38"/></g></g><g id="xtick_8"><use style="fill:#969696;stroke:#969696;stroke-width:.4" x="338.012" xlink:href="#mc20507075d" y="306.341" id="line2d_8"/><g style="fill:#969696" transform="matrix(.14 0 0 -.14 323.649 323.28)" id="text_8"><defs><path d="M614-64c135-6 314 0 519 32 448 51 889 243 1209 557 410 397 717 1037 717 1952 0 1062-525 1753-1376 1753S262 3539 262 2752c0-710 480-1274 1229-1274 416 0 749 167 979 448h20c-77-492-276-857-551-1107-237-224-544-358-870-403-192-19-333-32-455-19V-64zm1024 3866c589 0 852-544 852-1255 0-89-20-153-52-205-147-249-441-435-819-435-486 0-800 365-800 883 0 589 339 1012 813 1012h6z" id="MyriadPro-Regular-39" transform="scale(.01563)"/></defs><use xlink:href="#MyriadPro-Regular-32"/><use x="51.3" xlink:href="#MyriadPro-Regular-30"/><use x="102.6" xlink:href="#MyriadPro-Regular-31"/><use x="153.9" xlink:href="#MyriadPro-Regular-39"/></g></g><g id="xtick_9"><use style="fill:#969696;stroke:#969696;stroke-width:.4" x="372.827" xlink:href="#mc20507075d" y="306.341" id="line2d_9"/><g style="fill:#969696" transform="matrix(.14 0 0 -.14 358.464 323.28)" id="text_9"><use xlink:href="#MyriadPro-Regular-32"/><use x="51.3" xlink:href="#MyriadPro-Regular-30"/><use x="102.6" xlink:href="#MyriadPro-Regular-32"/><use x="153.9" xlink:href="#MyriadPro-Regular-30"/></g></g><g id="xtick_10"><use style="fill:#969696;stroke:#969696;stroke-width:.4" x="407.738" xlink:href="#mc20507075d" y="306.341" id="line2d_10"/><g style="fill:#969696" transform="matrix(.14 0 0 -.14 393.375 323.28)" id="text_10"><use xlink:href="#MyriadPro-Regular-32"/><use x="51.3" xlink:href="#MyriadPro-Regular-30"/><use x="102.6" xlink:href="#MyriadPro-Regular-32"/><use x="153.9" xlink:href="#MyriadPro-Regular-31"/></g></g></g><g id="matplotlib.axis_2"><g id="ytick_1"><path clip-path="url(#p31614b8569)" d="M82.476 306.34h357.12" style="fill:none;stroke:#969696;stroke-linecap:square;stroke-width:.3" id="line2d_11"/><g id="line2d_12"><defs><path d="M0 0h-3.5" id="m121bc5abf4" style="stroke:#969696;stroke-width:.3"/></defs><use style="fill:#969696;stroke:#969696;stroke-width:.3" x="82.476" xlink:href="#m121bc5abf4" y="306.341"/></g><use xlink:href="#MyriadPro-Regular-30" style="fill:#969696" transform="matrix(.14 0 0 -.14 68.295 311.31)" id="text_11"/></g><g id="ytick_2"><path clip-path="url(#p31614b8569)" d="M82.476 263.038h357.12" style="fill:none;stroke:#969696;stroke-linecap:square;stroke-width:.3" id="line2d_13"/><use style="fill:#969696;stroke:#969696;stroke-width:.3" x="82.476" xlink:href="#m121bc5abf4" y="263.038" id="line2d_14"/><g style="fill:#969696" transform="matrix(.14 0 0 -.14 39.568 268.008)" id="text_12"><use xlink:href="#MyriadPro-Regular-32"/><use x="51.3" xlink:href="#MyriadPro-Regular-30"/><use x="102.6" xlink:href="#MyriadPro-Regular-30"/><use x="153.9" xlink:href="#MyriadPro-Regular-30"/><use x="205.2" xlink:href="#MyriadPro-Regular-30"/></g></g><g id="ytick_3"><path clip-path="url(#p31614b8569)" d="M82.476 219.735h357.12" style="fill:none;stroke:#969696;stroke-linecap:square;stroke-width:.3" id="line2d_15"/><use style="fill:#969696;stroke:#969696;stroke-width:.3" x="82.476" xlink:href="#m121bc5abf4" y="219.735" id="line2d_16"/><g style="fill:#969696" transform="matrix(.14 0 0 -.14 39.568 224.705)" id="text_13"><use xlink:href="#MyriadPro-Regular-34"/><use x="51.3" xlink:href="#MyriadPro-Regular-30"/><use x="102.6" xlink:href="#MyriadPro-Regular-30"/><use x="153.9" xlink:href="#MyriadPro-Regular-30"/><use x="205.2" xlink:href="#MyriadPro-Regular-30"/></g></g><g id="ytick_4"><path clip-path="url(#p31614b8569)" d="M82.476 176.432h357.12" style="fill:none;stroke:#969696;stroke-linecap:square;stroke-width:.3" id="line2d_17"/><use style="fill:#969696;stroke:#969696;stroke-width:.3" x="82.476" xlink:href="#m121bc5abf4" y="176.432" id="line2d_18"/><g style="fill:#969696" transform="matrix(.14 0 0 -.14 39.568 181.402)" id="text_14"><use xlink:href="#MyriadPro-Regular-36"/><use x="51.3" xlink:href="#MyriadPro-Regular-30"/><use x="102.6" xlink:href="#MyriadPro-Regular-30"/><use x="153.9" xlink:href="#MyriadPro-Regular-30"/><use x="205.2" xlink:href="#MyriadPro-Regular-30"/></g></g><g id="ytick_5"><path clip-path="url(#p31614b8569)" d="M82.476 133.129h357.12" style="fill:none;stroke:#969696;stroke-linecap:square;stroke-width:.3" id="line2d_19"/><use style="fill:#969696;stroke:#969696;stroke-width:.3" x="82.476" xlink:href="#m121bc5abf4" y="133.129" id="line2d_20"/><g style="fill:#969696" transform="matrix(.14 0 0 -.14 39.568 138.099)" id="text_15"><use xlink:href="#MyriadPro-Regular-38"/><use x="51.3" xlink:href="#MyriadPro-Regular-30"/><use x="102.6" xlink:href="#MyriadPro-Regular-30"/><use x="153.9" xlink:href="#MyriadPro-Regular-30"/><use x="205.2" xlink:href="#MyriadPro-Regular-30"/></g></g><g id="ytick_6"><path clip-path="url(#p31614b8569)" d="M82.476 89.826h357.12" style="fill:none;stroke:#969696;stroke-linecap:square;stroke-width:.3" id="line2d_21"/><use style="fill:#969696;stroke:#969696;stroke-width:.3" x="82.476" xlink:href="#m121bc5abf4" y="89.826" id="line2d_22"/><g style="fill:#969696" transform="matrix(.14 0 0 -.14 32.387 94.796)" id="text_16"><use xlink:href="#MyriadPro-Regular-31"/><use x="51.3" xlink:href="#MyriadPro-Regular-30"/><use x="102.6" xlink:href="#MyriadPro-Regular-30"/><use x="153.9" xlink:href="#MyriadPro-Regular-30"/><use x="205.2" xlink:href="#MyriadPro-Regular-30"/><use x="256.5" xlink:href="#MyriadPro-Regular-30"/></g></g><g id="ytick_7"><path clip-path="url(#p31614b8569)" d="M82.476 46.523h357.12" style="fill:none;stroke:#969696;stroke-linecap:square;stroke-width:.3" id="line2d_23"/><use style="fill:#969696;stroke:#969696;stroke-width:.3" x="82.476" xlink:href="#m121bc5abf4" y="46.523" id="line2d_24"/><g style="fill:#969696" transform="matrix(.14 0 0 -.14 32.387 51.493)" id="text_17"><use xlink:href="#MyriadPro-Regular-31"/><use x="51.3" xlink:href="#MyriadPro-Regular-32"/><use x="102.6" xlink:href="#MyriadPro-Regular-30"/><use x="153.9" xlink:href="#MyriadPro-Regular-30"/><use x="205.2" xlink:href="#MyriadPro-Regular-30"/><use x="256.5" xlink:href="#MyriadPro-Regular-30"/></g></g><g style="fill:#969696" transform="matrix(.14 0 0 -.14 7.2 17.14)" id="text_18"><defs><path d="M3770 2266H2349v-448h877V531c-128-64-378-115-743-115-1005 0-1664 646-1664 1741 0 1081 685 1734 1735 1734 435 0 723-83 953-185l135 454c-186 90-576 198-1076 198-1446 0-2329-940-2336-2227 0-672 231-1248 602-1606 422-403 960-570 1613-570 582 0 1075 147 1325 237v2074z" id="MyriadPro-Regular-47" transform="scale(.01563)"/><path d="M1030 0v3098H467V0h563zM749 4320c-205 0-352-154-352-352 0-192 141-346 339-346 224 0 365 154 358 346 0 198-134 352-345 352z" id="MyriadPro-Regular-69" transform="scale(.01563)"/><path d="M595 3667v-569H115v-429h480V979c0-365 58-640 218-806C947 19 1158-70 1421-70c217 0 390 38 499 83l-26 422c-83-25-172-38-326-38-314 0-422 217-422 601v1671h806v429h-806v742l-551-173z" id="MyriadPro-Regular-74" transform="scale(.01563)"/><path d="M486 4314V0h557v2022h2087V0h563v4314h-563V2509H1043v1805H486z" id="MyriadPro-Regular-48" transform="scale(.01563)"/><path d="M3059 3098h-563V1197c0-103-19-205-51-288-103-250-365-512-743-512-512 0-691 397-691 985v1716H448V1286C448 198 1030-70 1517-70c550 0 877 326 1024 576h13l32-506h499c-19 243-26 525-26 845v2253z" id="MyriadPro-Regular-75" transform="scale(.01563)"/><path d="M467 800c0-275-13-589-25-800h486l26 512h19c230-410 589-582 1037-582 691 0 1388 550 1388 1657 7 941-537 1581-1305 1581-499 0-858-224-1056-570h-13v1946H467V800zm557 998c0 90 19 167 32 231 115 429 474 691 858 691 601 0 921-531 921-1152 0-710-352-1190-941-1190-409 0-736 268-844 659-13 64-26 134-26 205v556z" id="MyriadPro-Regular-62" transform="scale(.01563)"/><path d="M250 147C467 19 781-70 1120-70c736 0 1158 390 1158 934 0 461-275 730-812 934-404 154-589 269-589 525 0 231 185 423 518 423 288 0 512-103 634-180l141 410c-173 102-448 192-762 192-666 0-1069-410-1069-909 0-371 263-678 819-877 416-153 576-300 576-569 0-256-192-461-601-461-282 0-576 115-743 224L250 147z" id="MyriadPro-Regular-73" transform="scale(.01563)"/><path d="M2643 1901c0 621-230 1267-1177 1267-391 0-762-109-1018-275l128-371c218 140 518 230 806 230 634 0 704-461 704-717v-64C890 1978 224 1568 224 819c0-448 320-889 947-889 442 0 775 217 947 460h20l44-390h512c-38 211-51 474-51 742v1159zm-544-858c0-57-13-121-32-179-89-262-345-518-749-518-288 0-531 172-531 537 0 602 698 711 1312 698v-538z" id="MyriadPro-Regular-61" transform="scale(.01563)"/><path d="M467 0h557v1651c0 96 13 186 26 263 76 422 358 723 755 723 77 0 134-7 192-19v531c-51 13-96 19-160 19-378 0-717-262-858-678h-25l-20 608H442c19-288 25-602 25-967V0z" id="MyriadPro-Regular-72" transform="scale(.01563)"/></defs><use xlink:href="#MyriadPro-Regular-47"/><use x="64.6" xlink:href="#MyriadPro-Regular-69"/><use x="88" xlink:href="#MyriadPro-Regular-74"/><use x="121.1" xlink:href="#MyriadPro-Regular-48"/><use x="186.3" xlink:href="#MyriadPro-Regular-75"/><use x="241.4" xlink:href="#MyriadPro-Regular-62"/><use x="298.3" xlink:href="#MyriadPro-Regular-20"/><use x="319.5" xlink:href="#MyriadPro-Regular-73"/><use x="359.1" xlink:href="#MyriadPro-Regular-74"/><use x="392.2" xlink:href="#MyriadPro-Regular-61"/><use x="440.4" xlink:href="#MyriadPro-Regular-72"/><use x="473.1" xlink:href="#MyriadPro-Regular-73"/></g></g><path clip-path="url(#p31614b8569)" d="m146.289 306.34 2.956-.008h5.819l2.957-1.44 2.861-.078 2.957-.117 2.957-.147 2.671-.147 2.957-.098 2.861-.039 2.957-.29 2.862-.1 2.957-.08 2.957-.036 2.861-.916 2.957-.087 2.862-.104 2.957-.108 2.957-.18 2.67-.244 2.957-.132 2.862-.167 2.957-.208 2.861-.1 2.957-.145 2.957-.1 2.862-.118 2.957-.147 2.861-.63 2.957-.516 2.957-.294 2.766-.117 2.957-.206 2.862-.13 2.957-.636 2.861-.262 2.957-.12 2.957-.16 2.861-.184 2.957-.149 2.862-.13 2.957-.132 2.957-.082 2.67-.139 2.957-.093 2.862-.11 2.957-.156 2.861-.1 2.957-.112 2.957-.1 2.862-.113 2.957-.112 2.861-.17 2.957-.136 2.957-.149 2.67-.14 2.958-.17 2.861-.16 2.957-.192 2.862-.08 2.957-.107 2.957-.095 2.861-.182 2.957-.19 2.862-.085 2.957-.086 2.957-.085 2.67-.086 2.957-.085 2.862-.073 2.957-.08 2.861-.09 2.957-.11 2.957-.078 2.862-.043 2.957-.08 2.861-.063 2.957-.082 2.957-.059 2.766-.056 2.957-.039 2.862-.056 2.956-.059 2.862-.034 2.957-.05 2.957-.04 2.861-.045 2.957-.047 2.862-.026 2.957-.041 2.957-.03 2.67-.048 2.957-.057 2.862-.047 2.957-.043 2.861-.078 2.957-.044 2.957-.034 2.862-.052 2.957-.087 2.861-.169" style="fill:none;stroke:#8c564b;stroke-linecap:square;stroke-width:1.5" id="line2d_25"/><path clip-path="url(#p31614b8569)" d="m294.42 306.34 2.958-1.941 2.861-.356 2.957-3.615 2.957-.358 2.67-.216 2.958-.314 2.861-1.475 2.957-.37 2.862-.348 2.957-.888 2.957-.39 2.861-.24 2.957-.325 2.862-.567 2.957-.303 2.957-.2 2.67-.272 2.957-.5 2.862-.195 2.957-.212 2.861-.182 2.957-.496 2.957-.21 2.862-.288 2.957-.288 2.861-.182 2.957-.201 2.957-.202 2.766-.201 2.957-.375 2.862-.52 2.956-.318 2.862-.212 2.957-.281 2.957-.381 2.861-.373 2.957-.428 2.862-.293 2.957-.253 2.957-.381 2.67-.266 2.957-.278 2.862-.305 2.957-.257 2.861-.295 2.957-.277 2.957-.47 2.862-.232 2.957-.298 2.861-.258" style="fill:none;stroke:#9467bd;stroke-linecap:square;stroke-width:1.5" id="line2d_26"/><path clip-path="url(#p31614b8569)" d="m221.833 306.34 2.862-1.062 2.957-1.254 2.861-.552 2.957-.318 2.957-.26 2.766-.234 2.957-3.553 2.862-.613 2.957-.465 2.861-.284 2.957-.385 2.957-.403 2.861-.37 2.957-.366 2.862-.39 2.957-.626 2.957-.463 2.67-.416 2.957-.747 2.862-.526 2.957-.608 2.861-.377 2.957-.346 2.957-.431 2.862-1.08 2.957-.436 2.861-.45 2.957-.377 2.957-.745 2.67-.392 2.958-.545 2.861-.546 2.957-.55 2.862-.333 2.957-.219 2.957-.262 2.861-.266 2.957-.323 2.862-.405 2.957-.227 2.957-.25 2.67-.24 2.957-.333 2.862-.249 2.957-.234 2.861-.166 2.957-.232 2.957-.223 2.862-.204 2.957-.19 2.861-.243 2.957-.298 2.957-.189 2.766-.208 2.957-.192 2.862-.2 2.956-.244 2.862-.186 2.957-.278 2.957-.194 2.861-.176 2.957-.182 2.862-.153 2.957-.247 2.957-.173 2.67-.195 2.957-.197 2.862-.217 2.957-.21 2.861-.257 2.957-.159 2.957-.162 2.862-.14 2.957-.148 2.861-.156" style="fill:none;stroke:#d62728;stroke-linecap:square;stroke-width:1.5" id="line2d_27"/><g style="fill:#1f77b4" transform="matrix(.14 0 0 -.14 450.31 43.813)" id="text_19"><defs><path d="M1779 3168c-857 0-1536-608-1536-1645C243 544 890-70 1728-70c749 0 1542 499 1542 1644 0 948-601 1594-1491 1594zm-13-422c666 0 928-666 928-1191 0-697-403-1203-940-1203-551 0-941 512-941 1190 0 589 288 1204 953 1204z" id="MyriadPro-Regular-6f" transform="scale(.01563)"/><path d="M83 3098 1261 0h537l1216 3098h-588l-602-1741c-102-282-192-538-262-794h-20c-64 256-147 512-249 794L685 3098H83z" id="MyriadPro-Regular-76" transform="scale(.01563)"/><path d="M467 0h563v4544H467V0z" id="MyriadPro-Regular-6c" transform="scale(.01563)"/><path d="M2579 4544V2694h-13c-140 250-460 474-934 474-755 0-1395-634-1389-1664C243 563 819-70 1568-70c506 0 883 262 1056 608h13l25-538h506c-19 211-26 525-26 800v3744h-563zm0-3245c0-89-6-166-25-243-103-422-448-672-826-672-608 0-915 518-915 1146 0 684 345 1196 928 1196 422 0 729-294 813-652 19-71 25-167 25-237v-538z" id="MyriadPro-Regular-64" transform="scale(.01563)"/><path d="m422-256 1792 4640h-435L-6-256h428z" id="MyriadPro-Regular-2f" transform="scale(.01563)"/><path d="M467 0h563v1862c0 96 13 192 39 263 96 313 384 576 755 576 531 0 717-416 717-915V0h563v1850c0 1062-666 1318-1094 1318-512 0-871-288-1024-582h-13l-32 512H442c19-256 25-519 25-839V0z" id="MyriadPro-Regular-6e" transform="scale(.01563)"/><path d="m102 3098 1050-1517L51 0h621l448 698c115 185 224 345 326 537h13c109-185 211-358 333-537L2246 0h640L1798 1600l1056 1498h-608l-435-660c-102-166-205-326-307-512h-19c-103 173-199 333-314 506l-441 666H102z" id="MyriadPro-Regular-78" transform="scale(.01563)"/></defs><use xlink:href="#MyriadPro-Regular-74"/><use x="33.1" xlink:href="#MyriadPro-Regular-6f"/><use x="88" xlink:href="#MyriadPro-Regular-72"/><use x="120.7" xlink:href="#MyriadPro-Regular-76"/><use x="168.8" xlink:href="#MyriadPro-Regular-61"/><use x="217" xlink:href="#MyriadPro-Regular-6c"/><use x="240.6" xlink:href="#MyriadPro-Regular-64"/><use x="297" xlink:href="#MyriadPro-Regular-73"/><use x="336.6" xlink:href="#MyriadPro-Regular-2f"/><use x="370.9" xlink:href="#MyriadPro-Regular-6c"/><use x="394.5" xlink:href="#MyriadPro-Regular-69"/><use x="417.9" xlink:href="#MyriadPro-Regular-6e"/><use x="473.4" xlink:href="#MyriadPro-Regular-75"/><use x="528.5" xlink:href="#MyriadPro-Regular-78"/></g><g style="fill:#ff7f0e" transform="matrix(.14 0 0 -.14 450.31 254.075)" id="text_20"><defs><path d="M269 211C499 58 954-70 1370-70c1017 0 1510 582 1510 1248 0 633-371 985-1101 1267-595 230-857 429-857 832 0 294 224 646 812 646 391 0 679-128 820-205l153 455c-192 109-512 211-953 211-839 0-1396-499-1396-1171 0-608 436-973 1140-1223 582-224 812-454 812-857 0-435-332-736-902-736-384 0-749 128-998 281L269 211z" id="MyriadPro-Regular-53" transform="scale(.01563)"/><path d="M2957 1446c6 58 19 148 19 263 0 569-269 1459-1280 1459-902 0-1453-736-1453-1670C243 563 813-70 1766-70c493 0 832 108 1031 198l-96 403c-211-89-455-160-858-160-563 0-1049 314-1062 1075h2176zM787 1850c45 390 295 915 864 915 634 0 787-557 781-915H787z" id="MyriadPro-Regular-65" transform="scale(.01563)"/><path d="M58 3098 1203 243c26-70 39-115 39-147s-20-77-45-134c-128-288-320-506-474-628-166-140-352-230-493-275l141-473c141 25 416 121 691 364 384 333 660 877 1063 1940l845 2208h-596l-614-1818c-77-224-141-461-198-646h-13c-51 185-128 428-199 633L672 3098H58z" id="MyriadPro-Regular-79" transform="scale(.01563)"/><path d="M2234 4384c-1152 0-2004-896-2004-2266C230 813 1030-70 2170-70c1100 0 2003 787 2003 2272 0 1280-762 2182-1939 2182zm-26-454c928 0 1376-896 1376-1754 0-979-499-1792-1382-1792-877 0-1376 826-1376 1747 0 947 460 1799 1382 1799z" id="MyriadPro-Regular-4f" transform="scale(.01563)"/></defs><use xlink:href="#MyriadPro-Regular-53"/><use x="49.3" xlink:href="#MyriadPro-Regular-65"/><use x="99.4" xlink:href="#MyriadPro-Regular-72"/><use x="132.1" xlink:href="#MyriadPro-Regular-65"/><use x="182.2" xlink:href="#MyriadPro-Regular-6e"/><use x="237.7" xlink:href="#MyriadPro-Regular-69"/><use x="261.1" xlink:href="#MyriadPro-Regular-74"/><use x="294.2" xlink:href="#MyriadPro-Regular-79"/><use x="341.3" xlink:href="#MyriadPro-Regular-4f"/><use x="410.2" xlink:href="#MyriadPro-Regular-53"/><use x="459.5" xlink:href="#MyriadPro-Regular-2f"/><use x="493.8" xlink:href="#MyriadPro-Regular-73"/><use x="533.4" xlink:href="#MyriadPro-Regular-65"/><use x="583.5" xlink:href="#MyriadPro-Regular-72"/><use x="616.2" xlink:href="#MyriadPro-Regular-65"/><use x="666.3" xlink:href="#MyriadPro-Regular-6e"/><use x="721.8" xlink:href="#MyriadPro-Regular-69"/><use x="745.2" xlink:href="#MyriadPro-Regular-74"/><use x="778.3" xlink:href="#MyriadPro-Regular-79"/></g><g style="fill:#2ca02c" transform="matrix(.14 0 0 -.14 450.31 268.397)" id="text_21"><defs><path d="M467 0h551v1869c0 96 12 192 44 275 90 282 346 563 698 563 429 0 646-358 646-851V0h551v1914c0 102 19 204 45 281 96 275 345 512 665 512 455 0 672-358 672-953V0h551v1824c0 1075-608 1344-1018 1344-294 0-499-77-685-218-128-96-249-230-345-403h-13c-135 365-455 621-877 621-512 0-800-275-973-570h-19l-26 500H442c19-256 25-519 25-839V0z" id="MyriadPro-Regular-6d" transform="scale(.01563)"/><path d="M2579 538c-160-71-371-154-691-154-614 0-1075 442-1075 1158 0 647 384 1172 1094 1172 307 0 519-71 653-148l128 436c-154 76-448 160-781 160-1011 0-1664-692-1664-1645C243 570 851-70 1786-70c416 0 742 108 889 185l-96 423z" id="MyriadPro-Regular-63" transform="scale(.01563)"/><path d="M1082 0v2669h748v429h-748v166c0 474 121 896 601 896 160 0 275-32 359-70l76 435c-108 45-281 89-480 89-262 0-544-83-755-288-262-249-358-646-358-1081v-147H90v-429h435V0h557z" id="MyriadPro-Regular-66" transform="scale(.01563)"/><path d="M4230 0h544l-268 4314h-711l-768-2087c-192-544-345-1017-454-1453h-19c-109 448-256 922-436 1453l-736 2087H672L371 0h531l116 1850c38 646 70 1369 83 1907h13c121-512 294-1069 499-1677L2310 26h423l761 2092c218 589 397 1133 544 1639h20c-7-538 32-1261 64-1863L4230 0z" id="MyriadPro-Regular-4d" transform="scale(.01563)"/><path d="M192 1939v-416h1581v416H192z" id="MyriadPro-Regular-2d" transform="scale(.01563)"/><path d="M486 13c282-32 615-51 1012-51 838 0 1504 217 1907 620 403 397 621 973 621 1677 0 698-224 1197-608 1549-378 352-948 538-1748 538-441 0-844-39-1184-90V13zm557 3833c147 32 365 58 653 58 1178 0 1754-646 1747-1664 0-1165-646-1830-1837-1830-217 0-422 6-563 32v3404z" id="MyriadPro-Regular-44" transform="scale(.01563)"/></defs><use xlink:href="#MyriadPro-Regular-6d"/><use x="83.4" xlink:href="#MyriadPro-Regular-69"/><use x="106.8" xlink:href="#MyriadPro-Regular-63"/><use x="151.6" xlink:href="#MyriadPro-Regular-72"/><use x="184.3" xlink:href="#MyriadPro-Regular-6f"/><use x="239.2" xlink:href="#MyriadPro-Regular-73"/><use x="278.8" xlink:href="#MyriadPro-Regular-6f"/><use x="333.7" xlink:href="#MyriadPro-Regular-66"/><use x="362.9" xlink:href="#MyriadPro-Regular-74"/><use x="396" xlink:href="#MyriadPro-Regular-2f"/><use x="430.3" xlink:href="#MyriadPro-Regular-4d"/><use x="510.7" xlink:href="#MyriadPro-Regular-53"/><use x="560" xlink:href="#MyriadPro-Regular-2d"/><use x="590.7" xlink:href="#MyriadPro-Regular-44"/><use x="657.3" xlink:href="#MyriadPro-Regular-4f"/><use x="726.2" xlink:href="#MyriadPro-Regular-53"/></g><g style="fill:#d62728" transform="matrix(.14 0 0 -.14 450.31 282.397)" id="text_22"><use xlink:href="#MyriadPro-Regular-72"/><use x="32.7" xlink:href="#MyriadPro-Regular-65"/><use x="82.8" xlink:href="#MyriadPro-Regular-64"/><use x="139.2" xlink:href="#MyriadPro-Regular-6f"/><use x="194.1" xlink:href="#MyriadPro-Regular-78"/><use x="240.4" xlink:href="#MyriadPro-Regular-2d"/><use x="271.1" xlink:href="#MyriadPro-Regular-6f"/><use x="326" xlink:href="#MyriadPro-Regular-73"/><use x="365.6" xlink:href="#MyriadPro-Regular-2f"/><use x="399.9" xlink:href="#MyriadPro-Regular-72"/><use x="432.6" xlink:href="#MyriadPro-Regular-65"/><use x="482.7" xlink:href="#MyriadPro-Regular-64"/><use x="539.1" xlink:href="#MyriadPro-Regular-6f"/><use x="594" xlink:href="#MyriadPro-Regular-78"/></g><g style="fill:#9467bd" transform="matrix(.14 0 0 -.14 450.31 296.397)" id="text_23"><use xlink:href="#MyriadPro-Regular-72"/><use x="32.7" xlink:href="#MyriadPro-Regular-65"/><use x="82.8" xlink:href="#MyriadPro-Regular-61"/><use x="131" xlink:href="#MyriadPro-Regular-63"/><use x="175.8" xlink:href="#MyriadPro-Regular-74"/><use x="208.9" xlink:href="#MyriadPro-Regular-6f"/><use x="263.8" xlink:href="#MyriadPro-Regular-73"/><use x="303.4" xlink:href="#MyriadPro-Regular-2f"/><use x="337.7" xlink:href="#MyriadPro-Regular-72"/><use x="370.4" xlink:href="#MyriadPro-Regular-65"/><use x="420.5" xlink:href="#MyriadPro-Regular-61"/><use x="468.7" xlink:href="#MyriadPro-Regular-63"/><use x="513.5" xlink:href="#MyriadPro-Regular-74"/><use x="546.6" xlink:href="#MyriadPro-Regular-6f"/><use x="601.5" xlink:href="#MyriadPro-Regular-73"/></g><g style="fill:#8c564b" transform="matrix(.14 0 0 -.14 450.31 310.397)" id="text_24"><defs><path d="M1011 0v1843c0 717-13 1235-45 1779l20 7c217-467 505-960 806-1440L3162 0h563v4314h-525V2509c0-672 13-1197 64-1773l-13-6c-205 441-454 896-774 1401L1094 4314H486V0h525z" id="MyriadPro-Regular-4e" transform="scale(.01563)"/></defs><use xlink:href="#MyriadPro-Regular-4e"/><use x="65.8" xlink:href="#MyriadPro-Regular-6f"/><use x="120.7" xlink:href="#MyriadPro-Regular-64"/><use x="177.1" xlink:href="#MyriadPro-Regular-65"/><use x="227.2" xlink:href="#MyriadPro-Regular-4f"/><use x="296.1" xlink:href="#MyriadPro-Regular-53"/><use x="345.4" xlink:href="#MyriadPro-Regular-2f"/><use x="379.7" xlink:href="#MyriadPro-Regular-4e"/><use x="445.5" xlink:href="#MyriadPro-Regular-6f"/><use x="500.4" xlink:href="#MyriadPro-Regular-64"/><use x="556.8" xlink:href="#MyriadPro-Regular-65"/><use x="606.9" xlink:href="#MyriadPro-Regular-4f"/><use x="675.8" xlink:href="#MyriadPro-Regular-53"/></g><g style="fill:#969696" transform="matrix(.09716 0 0 -.09716 82.476 340.239)" id="text_25"><defs><path d="M2714 1357 3174 0h596L2298 4314h-672L160 0h576l448 1357h1530zm-1415 435 423 1248c83 262 153 525 217 781h13c64-250 128-506 224-787l422-1242H1299z" id="MyriadPro-Regular-41" transform="scale(.01563)"/><path d="M486 0h557v1728c128-32 282-38 448-38 544 0 1024 160 1319 473 217 224 332 531 332 922 0 384-140 697-377 902-256 231-659 359-1210 359-448 0-800-39-1069-84V0zm557 3859c96 26 282 45 525 45 614 0 1018-275 1018-845 0-595-410-921-1082-921-186 0-339 12-461 44v1677z" id="MyriadPro-Regular-50" transform="scale(.01563)"/><path d="M486 4314V0h557v4314H486z" id="MyriadPro-Regular-49" transform="scale(.01563)"/><path d="M3110 2246c0 378 13 628 26 852h-493l-25-468h-13c-135 256-429 538-967 538-710 0-1395-595-1395-1645C243 666 794 13 1562 13c480 0 812 230 985 518h13V186c0-781-422-1082-998-1082-384 0-704 115-909 243l-141-429c250-166 659-256 1030-256 391 0 826 90 1127 372 301 268 441 704 441 1414v1798zm-556-928c0-96-13-204-45-300-122-359-435-576-781-576-608 0-915 505-915 1113 0 717 384 1171 921 1171 410 0 685-268 788-595 25-77 32-160 32-256v-557z" id="MyriadPro-Regular-67" transform="scale(.01563)"/><path d="M467-1267h557V416h13c185-307 544-486 953-486 730 0 1408 550 1408 1664 0 940-563 1574-1312 1574-505 0-870-224-1100-602h-13l-26 532H442c12-295 25-615 25-1012v-3353zm557 3059c0 77 19 160 38 230 109 423 468 698 852 698 595 0 921-531 921-1152 0-710-345-1197-941-1197-403 0-742 269-844 659-13 71-26 148-26 231v531z" id="MyriadPro-Regular-70" transform="scale(.01563)"/><path d="M467 0h563v1869c0 109 7 192 39 269 102 307 390 563 755 563 531 0 717-423 717-922V0h563v1843c0 1069-666 1325-1082 1325-211 0-409-64-576-160-172-96-313-237-403-397h-13v1933H467V0z" id="MyriadPro-Regular-68" transform="scale(.01563)"/><path d="M550 4800v-6400h429v6400H550z" id="MyriadPro-Regular-7c" transform="scale(.01563)"/><path d="M1165 3648c185 0 313 154 313 326 0 186-134 327-313 327s-327-147-327-327c0-172 135-326 320-326h7zm1184 0c185 0 313 154 313 326 0 186-134 327-313 327s-320-147-320-327c0-172 128-326 313-326h7zm-570-480c-857 0-1536-608-1536-1645C243 544 890-70 1728-70c749 0 1542 499 1542 1644 0 948-601 1594-1491 1594zm-13-422c666 0 928-666 928-1191 0-697-403-1203-940-1203-551 0-941 512-941 1190 0 589 288 1204 953 1204z" id="MyriadPro-Regular-f6" transform="scale(.01563)"/><path d="M3386 582c-224-108-570-179-909-179-1050 0-1658 679-1658 1735 0 1132 672 1779 1683 1779 359 0 660-77 871-179l134 454c-147 77-486 192-1024 192-1337 0-2253-915-2253-2266C230 704 1146-70 2362-70c524 0 934 108 1139 211l-115 441z" id="MyriadPro-Regular-43" transform="scale(.01563)"/><path d="M486 13c186-26 480-51 864-51 704 0 1191 128 1492 403 217 211 364 493 364 864 0 640-480 979-889 1081v13c454 167 729 531 729 947 0 340-134 596-358 762-269 218-627 314-1184 314-390 0-774-39-1018-90V13zm557 3865c90 20 237 39 493 39 563 0 947-199 947-704 0-416-345-723-934-723h-506v1388zm0-1811h461c608 0 1114-243 1114-832 0-627-532-838-1108-838-198 0-358 6-467 25v1645z" id="MyriadPro-Regular-42" transform="scale(.01563)"/><path d="M2010 0v1837l1446 2477h-634l-620-1191c-167-326-314-608-436-889h-12c-135 300-263 563-429 889L717 4314H83l1363-2484V0h564z" id="MyriadPro-Regular-59" transform="scale(.01563)"/></defs><use xlink:href="#MyriadPro-Regular-47"/><use x="64.6" xlink:href="#MyriadPro-Regular-69"/><use x="88" xlink:href="#MyriadPro-Regular-74"/><use x="121.1" xlink:href="#MyriadPro-Regular-48"/><use x="186.3" xlink:href="#MyriadPro-Regular-75"/><use x="241.4" xlink:href="#MyriadPro-Regular-62"/><use x="298.3" xlink:href="#MyriadPro-Regular-20"/><use x="319.5" xlink:href="#MyriadPro-Regular-41"/><use x="380.7" xlink:href="#MyriadPro-Regular-50"/><use x="433.9" xlink:href="#MyriadPro-Regular-49"/><use x="457.8" xlink:href="#MyriadPro-Regular-20"/><use x="479" xlink:href="#MyriadPro-Regular-76"/><use x="527.1" xlink:href="#MyriadPro-Regular-69"/><use x="550.5" xlink:href="#MyriadPro-Regular-61"/><use x="598.7" xlink:href="#MyriadPro-Regular-20"/><use x="619.9" xlink:href="#MyriadPro-Regular-73"/><use x="659.5" xlink:href="#MyriadPro-Regular-74"/><use x="692.6" xlink:href="#MyriadPro-Regular-61"/><use x="740.8" xlink:href="#MyriadPro-Regular-72"/><use x="773.5" xlink:href="#MyriadPro-Regular-67"/><use x="829.4" xlink:href="#MyriadPro-Regular-72"/><use x="862.1" xlink:href="#MyriadPro-Regular-61"/><use x="910.3" xlink:href="#MyriadPro-Regular-70"/><use x="967.2" xlink:href="#MyriadPro-Regular-68"/><use x="1022.7" xlink:href="#MyriadPro-Regular-20"/><use x="1043.9" xlink:href="#MyriadPro-Regular-7c"/><use x="1067.8" xlink:href="#MyriadPro-Regular-20"/><use x="1089" xlink:href="#MyriadPro-Regular-4e"/><use x="1154.8" xlink:href="#MyriadPro-Regular-69"/><use x="1178.2" xlink:href="#MyriadPro-Regular-63"/><use x="1223" xlink:href="#MyriadPro-Regular-6f"/><use x="1277.9" xlink:href="#MyriadPro-Regular-20"/><use x="1299.1" xlink:href="#MyriadPro-Regular-53"/><use x="1348.4" xlink:href="#MyriadPro-Regular-63"/><use x="1393.2" xlink:href="#MyriadPro-Regular-68"/><use x="1448.7" xlink:href="#MyriadPro-Regular-6c"/><use x="1472.3" xlink:href="#MyriadPro-Regular-f6"/><use x="1527.2" xlink:href="#MyriadPro-Regular-6d"/><use x="1610.6" xlink:href="#MyriadPro-Regular-65"/><use x="1660.7" xlink:href="#MyriadPro-Regular-72"/><use x="1693.4" xlink:href="#MyriadPro-Regular-20"/><use x="1714.6" xlink:href="#MyriadPro-Regular-7c"/><use x="1738.5" xlink:href="#MyriadPro-Regular-20"/><use x="1759.7" xlink:href="#MyriadPro-Regular-43"/><use x="1817.7" xlink:href="#MyriadPro-Regular-43"/><use x="1875.7" xlink:href="#MyriadPro-Regular-20"/><use x="1896.9" xlink:href="#MyriadPro-Regular-42"/><use x="1951.1" xlink:href="#MyriadPro-Regular-59"/></g><path clip-path="url(#p31614b8569)" d="m326.375 306.34 2.861-9.831 2.957-15.522 2.862-1.18 2.957-.557 2.957-.383 2.67-.247 2.957-.387 2.862-.254 2.957-.417 2.861-.204 2.957-.253 2.957-.187 2.862-.14 2.957-.154 2.861-.123 2.957-.16 2.957-.2 2.766-.18 2.957-.132 2.862-.24 2.956-1.16 2.862-.258 2.957-.355 2.957-.24 2.861-.17 2.957-.2 2.862-.174 2.957-.147 2.957-.124 2.67-.134 2.957-.143 2.862-.203 2.957-.204 2.861-.19 2.957-.12 2.957-.166 2.862-.167 2.957-.173 2.861-.154" style="fill:none;stroke:#2ca02c;stroke-linecap:square;stroke-width:1.5" id="line2d_28"/><path clip-path="url(#p31614b8569)" d="m343.64 306.34 2.956-.175 2.862-.99 2.957-2.021 2.861-.745 2.957-.383 2.957-.698 2.862-.563 2.957-2.024 2.861-.855 2.957-.552 2.957-.765 2.766-.708 2.957-.976 2.862-.46 2.956-1.006 2.862-.574 2.957-.513 2.957-.327 2.861-.316 2.957-.91 2.862-.324 2.957-.676 2.957-1.461 2.67-1.368 2.957-1.633 2.862-2.282 2.957-3.352 2.861-3.122 2.957-.998 2.957-2.418 2.862-1.08 2.957-.936 2.861-1.32" style="fill:none;stroke:#ff7f0e;stroke-linecap:square;stroke-width:1.5" id="line2d_29"/><path clip-path="url(#p31614b8569)" d="m82.476 306.34 2.862-8.93 2.957-4.372H131.98l2.67-.238 2.958-.832 2.861-.753 2.957-.745 2.862-.63 2.956-.927 2.957-.812 2.862-.68 2.957-.762 2.861-.829 2.957-.905 2.957-.866 2.671-.948 2.957-.86 2.861-.849 2.957-.874 2.862-.82 2.957-.947 2.957-1.013 2.861-1.08 2.957-1.826 2.862-1.49 2.957-1.48 2.957-1.778 2.67-1.323 2.957-2.003 2.862-2.394 2.957-1.512 2.861-1.509 2.957-1.65 2.957-1.468 2.862-1.898 2.957-1.81 2.861-1.81 2.957-1.577 2.957-1.645 2.766-1.594 2.957-1.76 2.862-1.95 2.957-1.958 2.861-1.646 2.957-1.825 2.957-2.726 2.861-2.938 2.957-2.568 2.862-2.217 2.957-2.05 2.957-1.856 2.67-1.938 2.957-2.637 2.862-2.269 2.957-2.107 2.861-1.924 2.957-2.218 2.957-2.176 2.862-3.126 2.957-2.886 2.861-2.386 2.957-2.202 2.957-2.982 2.67-2.054 2.958-2.752 2.861-2.518 2.957-2.365 2.862-2.689 2.957-2.297 2.957-2.633 2.861-3.512 2.957-2.609 2.862-2.615 2.957-2.427 2.957-3.047 2.67-2.576 2.957-4.235 2.862-5.004 2.957-3.29 2.861-2.631 2.957-3.36 2.957-3.034 2.862-2.709 2.957-2.74 2.861-3.18 2.957-2.803 2.957-2.992 2.766-2.826 2.957-3.657 2.862-3.4 2.956-3.314 2.862-3.48 2.957-4.46 2.957-3.665 2.861-3.913 2.957-3.875 2.862-3.24 2.957-3.643 2.957-3.61 2.67-3.01 2.957-5.525 2.862-5.523 2.957-4.917 2.861-3.709 2.957-3.847 2.957-3.778 2.862-4.103 2.957-3.783 2.861-3.977" style="fill:none;stroke:#1f77b4;stroke-linecap:square;stroke-width:1.5" id="line2d_30"/></g></g><defs><clipPath id="p31614b8569"><path d="M82.476 40.229h357.12v266.112H82.476z"/></clipPath></defs></svg>