<svg xmlns:xlink="http://www.w3.org/1999/xlink" width="821.124" height="431.485" viewBox="0 0 615.843 323.614" xmlns="http://www.w3.org/2000/svg"><defs><style>*{stroke-linejoin:round;stroke-linecap:butt}</style></defs><g id="figure_1"><path d="M0 323.614h615.843V0H0v323.614z" style="fill:none" id="patch_1"/><g id="axes_1"><path d="M98.073 280.087h357.12V13.975H98.073v266.112z" style="fill:none" id="patch_2"/><g id="matplotlib.axis_1"><g id="xtick_1"><g id="line2d_1"><defs><path id="m3e519a9f19" d="M0 0v3.5" style="stroke:#636363;stroke-width:.4"/></defs><use xlink:href="#m3e519a9f19" x="155.844" y="280.087" style="fill:#636363;stroke:#636363;stroke-width:.4"/></g><g style="fill:#636363" transform="matrix(.14 0 0 -.14 138.029 297.724)" id="text_1"><defs><path id="DejaVuSans-32" d="M1228 531h2203V0H469v531q359 372 979 998 621 627 780 809 303 340 423 576 121 236 121 464 0 372-261 606-261 235-680 235-297 0-627-103-329-103-704-313v638q381 153 712 231 332 78 607 78 725 0 1156-363 431-362 431-968 0-288-108-546-107-257-392-607-78-91-497-524-418-433-1181-1211z" transform="scale(.01563)"/><path id="DejaVuSans-30" d="M2034 4250q-487 0-733-480-245-479-245-1442 0-959 245-1439 246-480 733-480 491 0 736 480 246 480 246 1439 0 963-246 1442-245 480-736 480zm0 500q785 0 1199-621 414-620 414-1801 0-1178-414-1799Q2819-91 2034-91q-784 0-1198 620-414 621-414 1799 0 1181 414 1801 414 621 1198 621z" transform="scale(.01563)"/><path id="DejaVuSans-31" d="M794 531h1031v3560L703 3866v575l1116 225h631V531h1031V0H794v531z" transform="scale(.01563)"/></defs><use xlink:href="#DejaVuSans-32"/><use xlink:href="#DejaVuSans-30" x="63.623"/><use xlink:href="#DejaVuSans-31" x="127.246"/><use xlink:href="#DejaVuSans-32" x="190.869"/></g></g><g id="xtick_2"><use xlink:href="#m3e519a9f19" x="216.259" y="280.087" style="fill:#636363;stroke:#636363;stroke-width:.4" id="line2d_2"/><g style="fill:#636363" transform="matrix(.14 0 0 -.14 198.444 297.724)" id="text_2"><defs><path id="DejaVuSans-34" d="M2419 4116 825 1625h1594v2491zm-166 550h794V1625h666v-525h-666V0h-628v1100H313v609l1940 2957z" transform="scale(.01563)"/></defs><use xlink:href="#DejaVuSans-32"/><use xlink:href="#DejaVuSans-30" x="63.623"/><use xlink:href="#DejaVuSans-31" x="127.246"/><use xlink:href="#DejaVuSans-34" x="190.869"/></g></g><g id="xtick_3"><use xlink:href="#m3e519a9f19" x="276.592" y="280.087" style="fill:#636363;stroke:#636363;stroke-width:.4" id="line2d_3"/><g style="fill:#636363" transform="matrix(.14 0 0 -.14 258.777 297.724)" id="text_3"><defs><path id="DejaVuSans-36" d="M2113 2584q-425 0-674-291-248-290-248-796 0-503 248-796 249-292 674-292t673 292q248 293 248 796 0 506-248 796-248 291-673 291zm1253 1979v-575q-238 112-480 171-242 60-480 60-625 0-955-422-329-422-376-1275 184 272 462 417 279 145 613 145 703 0 1111-427 408-426 408-1160 0-719-425-1154Q2819-91 2113-91q-810 0-1238 620-428 621-428 1799 0 1106 525 1764t1409 658q238 0 480-47t505-140z" transform="scale(.01563)"/></defs><use xlink:href="#DejaVuSans-32"/><use xlink:href="#DejaVuSans-30" x="63.623"/><use xlink:href="#DejaVuSans-31" x="127.246"/><use xlink:href="#DejaVuSans-36" x="190.869"/></g></g><g id="xtick_4"><use xlink:href="#m3e519a9f19" x="337.007" y="280.087" style="fill:#636363;stroke:#636363;stroke-width:.4" id="line2d_4"/><g style="fill:#636363" transform="matrix(.14 0 0 -.14 319.192 297.724)" id="text_4"><defs><path id="DejaVuSans-38" d="M2034 2216q-450 0-708-241-257-241-257-662 0-422 257-663 258-241 708-241t709 242q260 243 260 662 0 421-258 662-257 241-711 241zm-631 268q-406 100-633 378-226 279-226 679 0 559 398 884 399 325 1092 325 697 0 1094-325t397-884q0-400-227-679-226-278-629-378 456-106 710-416 255-309 255-755 0-679-414-1042Q2806-91 2034-91q-771 0-1186 362-414 363-414 1042 0 446 256 755 257 310 713 416zm-231 997q0-362 226-565 227-203 636-203 407 0 636 203 230 203 230 565 0 363-230 566-229 203-636 203-409 0-636-203-226-203-226-566z" transform="scale(.01563)"/></defs><use xlink:href="#DejaVuSans-32"/><use xlink:href="#DejaVuSans-30" x="63.623"/><use xlink:href="#DejaVuSans-31" x="127.246"/><use xlink:href="#DejaVuSans-38" x="190.869"/></g></g><g id="xtick_5"><use xlink:href="#m3e519a9f19" x="397.34" y="280.087" style="fill:#636363;stroke:#636363;stroke-width:.4" id="line2d_5"/><g style="fill:#636363" transform="matrix(.14 0 0 -.14 379.525 297.724)" id="text_5"><use xlink:href="#DejaVuSans-32"/><use xlink:href="#DejaVuSans-30" x="63.623"/><use xlink:href="#DejaVuSans-32" x="127.246"/><use xlink:href="#DejaVuSans-30" x="190.869"/></g></g></g><g id="matplotlib.axis_2"><g id="ytick_1"><path d="M98.073 280.087h357.12" clip-path="url(#p1b3c1bd638)" style="fill:none;stroke:#636363;stroke-width:.3;stroke-linecap:square" id="line2d_6"/><g id="line2d_7"><defs><path id="m392a465aad" d="M0 0h-3.5" style="stroke:#636363;stroke-width:.3"/></defs><use xlink:href="#m392a465aad" x="98.073" y="280.087" style="fill:#636363;stroke:#636363;stroke-width:.3"/></g><use xlink:href="#DejaVuSans-30" style="fill:#636363" transform="matrix(.14 0 0 -.14 82.166 285.406)" id="text_6"/></g><g id="ytick_2"><path d="M98.073 223.127h357.12" clip-path="url(#p1b3c1bd638)" style="fill:none;stroke:#636363;stroke-width:.3;stroke-linecap:square" id="line2d_8"/><use xlink:href="#m392a465aad" x="98.073" y="223.127" style="fill:#636363;stroke:#636363;stroke-width:.3" id="line2d_9"/><g style="fill:#636363" transform="matrix(.14 0 0 -.14 46.536 228.446)" id="text_7"><use xlink:href="#DejaVuSans-32"/><use xlink:href="#DejaVuSans-30" x="63.623"/><use xlink:href="#DejaVuSans-30" x="127.246"/><use xlink:href="#DejaVuSans-30" x="190.869"/><use xlink:href="#DejaVuSans-30" x="254.492"/></g></g><g id="ytick_3"><path d="M98.073 166.168h357.12" clip-path="url(#p1b3c1bd638)" style="fill:none;stroke:#636363;stroke-width:.3;stroke-linecap:square" id="line2d_10"/><use xlink:href="#m392a465aad" x="98.073" y="166.168" style="fill:#636363;stroke:#636363;stroke-width:.3" id="line2d_11"/><g style="fill:#636363" transform="matrix(.14 0 0 -.14 46.536 171.487)" id="text_8"><use xlink:href="#DejaVuSans-34"/><use xlink:href="#DejaVuSans-30" x="63.623"/><use xlink:href="#DejaVuSans-30" x="127.246"/><use xlink:href="#DejaVuSans-30" x="190.869"/><use xlink:href="#DejaVuSans-30" x="254.492"/></g></g><g id="ytick_4"><path d="M98.073 109.208h357.12" clip-path="url(#p1b3c1bd638)" style="fill:none;stroke:#636363;stroke-width:.3;stroke-linecap:square" id="line2d_12"/><use xlink:href="#m392a465aad" x="98.073" y="109.208" style="fill:#636363;stroke:#636363;stroke-width:.3" id="line2d_13"/><g style="fill:#636363" transform="matrix(.14 0 0 -.14 46.536 114.527)" id="text_9"><use xlink:href="#DejaVuSans-36"/><use xlink:href="#DejaVuSans-30" x="63.623"/><use xlink:href="#DejaVuSans-30" x="127.246"/><use xlink:href="#DejaVuSans-30" x="190.869"/><use xlink:href="#DejaVuSans-30" x="254.492"/></g></g><g id="ytick_5"><path d="M98.073 52.249h357.12" clip-path="url(#p1b3c1bd638)" style="fill:none;stroke:#636363;stroke-width:.3;stroke-linecap:square" id="line2d_14"/><use xlink:href="#m392a465aad" x="98.073" y="52.249" style="fill:#636363;stroke:#636363;stroke-width:.3" id="line2d_15"/><g style="fill:#636363" transform="matrix(.14 0 0 -.14 46.536 57.568)" id="text_10"><use xlink:href="#DejaVuSans-38"/><use xlink:href="#DejaVuSans-30" x="63.623"/><use xlink:href="#DejaVuSans-30" x="127.246"/><use xlink:href="#DejaVuSans-30" x="190.869"/><use xlink:href="#DejaVuSans-30" x="254.492"/></g></g><g style="fill:#636363" transform="matrix(.14 0 0 -.14 7.2 22.726)" id="text_11"><defs><path id="DejaVuSans-47" d="M3809 666v1253H2778v519h1656V434q-365-259-806-392-440-133-940-133-1094 0-1712 639-617 640-617 1780 0 1144 617 1783 618 639 1712 639 456 0 867-113 411-112 758-331v-672q-350 297-744 447t-828 150q-857 0-1287-478-429-478-429-1425 0-944 429-1422 430-478 1287-478 334 0 596 58 263 58 472 180z" transform="scale(.01563)"/><path id="DejaVuSans-69" d="M603 3500h575V0H603v3500zm0 1363h575v-729H603v729z" transform="scale(.01563)"/><path id="DejaVuSans-74" d="M1172 4494v-994h1184v-447H1172V1153q0-428 117-550t477-122h590V0h-590q-666 0-919 248-253 249-253 905v1900H172v447h422v994h578z" transform="scale(.01563)"/><path id="DejaVuSans-48" d="M628 4666h631V2753h2294v1913h631V0h-631v2222H1259V0H628v4666z" transform="scale(.01563)"/><path id="DejaVuSans-75" d="M544 1381v2119h575V1403q0-497 193-746 194-248 582-248 465 0 735 297 271 297 271 810v1984h575V0h-575v538q-209-319-486-474-276-155-642-155-603 0-916 375-312 375-312 1097zm1447 2203z" transform="scale(.01563)"/><path id="DejaVuSans-62" d="M3116 1747q0 634-261 995t-717 361q-457 0-718-361t-261-995q0-634 261-995t718-361q456 0 717 361t261 995zM1159 2969q182 312 458 463 277 152 661 152 638 0 1036-506 399-506 399-1331T3314 415Q2916-91 2278-91q-384 0-661 152-276 152-458 464V0H581v4863h578V2969z" transform="scale(.01563)"/><path id="DejaVuSans-73" d="M2834 3397v-544q-243 125-506 187-262 63-544 63-428 0-642-131t-214-394q0-200 153-314t616-217l197-44q612-131 870-370t258-667q0-488-386-773Q2250-91 1575-91q-281 0-586 55T347 128v594q319-166 628-249 309-82 613-82 406 0 624 139 219 139 219 392 0 234-158 359-157 125-692 241l-200 47q-534 112-772 345-237 233-237 639 0 494 350 762 350 269 994 269 318 0 599-47 282-46 519-140z" transform="scale(.01563)"/><path id="DejaVuSans-61" d="M2194 1759q-697 0-966-159t-269-544q0-306 202-486 202-179 548-179 479 0 768 339t289 901v128h-572zm1147 238V0h-575v531q-197-318-491-470T1556-91q-537 0-855 302-317 302-317 808 0 590 395 890 396 300 1180 300h807v57q0 397-261 614t-733 217q-300 0-585-72-284-72-546-216v532q315 122 612 182 297 61 578 61 760 0 1135-394 375-393 375-1193z" transform="scale(.01563)"/><path id="DejaVuSans-72" d="M2631 2963q-97 56-211 82-114 27-251 27-488 0-749-317t-261-911V0H581v3500h578v-544q182 319 472 473 291 155 707 155 59 0 131-8 72-7 159-23l3-590z" transform="scale(.01563)"/></defs><use xlink:href="#DejaVuSans-47"/><use xlink:href="#DejaVuSans-69" x="77.49"/><use xlink:href="#DejaVuSans-74" x="105.273"/><use xlink:href="#DejaVuSans-48" x="144.482"/><use xlink:href="#DejaVuSans-75" x="219.678"/><use xlink:href="#DejaVuSans-62" x="283.057"/><use xlink:href="#DejaVuSans-20" x="346.533"/><use xlink:href="#DejaVuSans-73" x="378.32"/><use xlink:href="#DejaVuSans-74" x="430.42"/><use xlink:href="#DejaVuSans-61" x="469.629"/><use xlink:href="#DejaVuSans-72" x="530.908"/><use xlink:href="#DejaVuSans-73" x="572.021"/></g></g><path d="m188.655 280.087 2.314-.026H203.614l2.562-.006h2.48l2.562-.062 2.479-.023 2.562-.003 2.562-.003 2.314-.014 2.562-.011 2.48-.006 2.562-.023 2.48-.043 2.561-.028 2.562-.026 2.48-.008 2.562-.012 2.48-.022 2.561-.006 2.563-.012 2.314-.014 2.562-.011 2.48-.014 2.561-.015 2.48-.042 2.562-.026 2.562-.014 2.48-.012 2.561-.008 2.48-.017 2.562-.023 2.562-.014 2.397-.02 2.562-.012 2.48-.011 2.561-.009 2.48-.025 2.562-.006 2.562-.02h2.48l2.561-.005 2.48-.006 2.562-.014 2.562-.006 2.314-.017 2.562-.003 2.48-.011 2.562-.009 2.479-.014 2.562-.012 2.562-.008h2.48l2.562-.012 2.48-.014 2.561-.02 2.562-.011 2.314-.014 2.562-.015 2.48-.03 2.562-.012 2.48-.026 2.561-.017 2.563-.017 2.479-.02 2.562-.017 2.48-.031 2.561-.02 2.563-.015 2.314-.008 2.562-.034 2.48-.015 2.561-.028 2.48-.014 2.562-.052 2.562-.04 2.48-.02 2.561-.452 2.48-.097 2.562-.086 2.562-.03 2.397-.066 2.562-.06 2.48-.057 2.561-.057 2.48-.305 2.562-.094 2.562-.06 2.48-.057 2.561-.065 2.48-.071 2.562-.052 2.562-.03 2.314-.055 2.562-.065 2.48-.037 2.562-.057 2.48-.08 2.561-.054 2.562-.06 2.48-.097 2.562-.063 2.48-.05" clip-path="url(#p1b3c1bd638)" style="fill:none;stroke:#e377c2;stroke-width:1.5;stroke-linecap:square" id="line2d_16"/><path d="m425.027 280.087 2.562-.029 2.562-.028 2.314-.02 2.562-.026 2.48-.06 2.562-.025 2.48-.037 2.561-.017 2.562-.043 2.48-.031 2.562-.057 2.48-5.412" clip-path="url(#p1b3c1bd638)" style="fill:none;stroke:#8c564b;stroke-width:1.5;stroke-linecap:square" id="line2d_17"/><path d="m176.01 280.087 2.48-.003h10.165l2.314-.006H201.052l2.562-.034 2.562-.006h2.48l2.562-.005 2.479-.003 2.562-.006 2.562-.003 2.314-.003 2.562-.003 2.48-.008 2.562-.003 2.48-.003 2.561-.008 2.562-.006 2.48-.009 2.562-.054 2.48-.048 2.561-.088 2.563-.017 2.314-.02 2.562-.02 2.48-.026 2.561-.031 2.48-.043 2.562-.023 2.562-.034 2.48-.011 2.561-.035 2.48-.042 2.562-.026 2.562-.097 2.397-.057 2.562-.054 2.48-.051 2.561-.066 2.48-.014 2.562-.054 2.562-.034 2.48-.054 2.561-.074 2.48-.174 2.562-.325 2.562-.185 2.314-.085 2.562-.097 2.48-.128 2.562-.097 2.479-.105 2.562-.103 2.562-.097 2.48-.134 2.562-.125 2.48-.117 2.561-.176 2.562-.228 2.314-.165 2.562-.188 2.48-.214 2.562-.2 2.48-.207 2.561-.165 2.563-.217 2.479-.188 2.562-.162 2.48-.22 2.561-.193 2.563-.225 2.314-.185 2.562-.256 2.48-.262 2.561-.248 2.48-.316 2.562-.254 2.562-.248 2.48-.236 2.561-.182 2.48-.2 2.562-.196 2.562-.174 2.397-.14 2.562-.244 2.48-.245 2.561-.237 2.48-.296 2.562-.259 2.562-.23 2.48-.283 2.561-.185 2.48-.213 2.562-.294 2.562-.19 2.314-.231 2.562-.296 2.48-.25 2.562-.234 2.48-.237 2.561-.245 2.562-.316 2.48-.216 2.562-.237 2.48-.313" clip-path="url(#p1b3c1bd638)" style="fill:none;stroke:#9467bd;stroke-width:1.5;stroke-linecap:square" id="line2d_18"/><g style="fill:#1f77b4" transform="matrix(.14 0 0 -.14 465.907 17.838)" id="text_12"><defs><path id="DejaVuSans-67" d="M2906 1791q0 625-258 968-257 344-723 344-462 0-720-344-258-343-258-968 0-622 258-966t720-344q466 0 723 344 258 344 258 966zm575-1357q0-893-397-1329-396-436-1215-436-303 0-572 45t-522 139v559q253-137 500-202 247-66 503-66 566 0 847 295t281 892v285q-178-310-456-463T1784 0Q1141 0 747 490 353 981 353 1791q0 812 394 1302 394 491 1037 491 388 0 666-153t456-462v531h575V434z" transform="scale(.01563)"/><path id="DejaVuSans-6f" d="M1959 3097q-462 0-731-361t-269-989q0-628 267-989 268-361 733-361 460 0 728 362 269 363 269 988 0 622-269 986-268 364-728 364zm0 487q750 0 1178-488 429-487 429-1349 0-859-429-1349Q2709-91 1959-91q-753 0-1180 489-426 490-426 1349 0 862 426 1349 427 488 1180 488z" transform="scale(.01563)"/><path id="DejaVuSans-6c" d="M603 4863h575V0H603v4863z" transform="scale(.01563)"/><path id="DejaVuSans-6e" d="M3513 2113V0h-575v2094q0 497-194 743-194 247-581 247-466 0-735-297-269-296-269-809V0H581v3500h578v-544q207 316 486 472 280 156 646 156 603 0 912-373 310-373 310-1098z" transform="scale(.01563)"/><path id="DejaVuSans-2f" d="M1625 4666h531L531-594H0l1625 5260z" transform="scale(.01563)"/></defs><use xlink:href="#DejaVuSans-67"/><use xlink:href="#DejaVuSans-6f" x="63.477"/><use xlink:href="#DejaVuSans-6c" x="124.658"/><use xlink:href="#DejaVuSans-61" x="152.441"/><use xlink:href="#DejaVuSans-6e" x="213.721"/><use xlink:href="#DejaVuSans-67" x="277.1"/><use xlink:href="#DejaVuSans-2f" x="340.576"/><use xlink:href="#DejaVuSans-67" x="374.268"/><use xlink:href="#DejaVuSans-6f" x="437.744"/></g><g style="fill:#ff7f0e" transform="matrix(.14 0 0 -.14 465.907 65.365)" id="text_13"><defs><path id="DejaVuSans-6d" d="M3328 2828q216 388 516 572t706 184q547 0 844-383 297-382 297-1088V0h-578v2094q0 503-179 746-178 244-543 244-447 0-707-297-259-296-259-809V0h-578v2094q0 506-178 748t-550 242q-441 0-701-298-259-298-259-808V0H581v3500h578v-544q197 322 472 475t653 153q382 0 649-194 267-193 395-562z" transform="scale(.01563)"/><path id="DejaVuSans-63" d="M3122 3366v-538q-244 135-489 202t-495 67q-560 0-870-355-309-354-309-995t309-996q310-354 870-354 250 0 495 67t489 202V134Q2881 22 2623-34q-257-57-548-57-791 0-1257 497-465 497-465 1341 0 856 470 1346 471 491 1290 491 265 0 518-55 253-54 491-163z" transform="scale(.01563)"/><path id="DejaVuSans-66" d="M2375 4863v-479h-550q-309 0-430-125-120-125-120-450v-309h947v-447h-947V0H697v3053H147v447h550v244q0 584 272 851 272 268 862 268h544z" transform="scale(.01563)"/><path id="DejaVuSans-54" d="M-19 4666h3947v-532H2272V0h-634v4134H-19v532z" transform="scale(.01563)"/><path id="DejaVuSans-79" d="M2059-325q-243-625-475-815-231-191-618-191H506v481h338q237 0 368 113 132 112 291 531l103 262L191 3500h609L1894 763l1094 2737h609L2059-325z" transform="scale(.01563)"/><path id="DejaVuSans-70" d="M1159 525v-1856H581v4831h578v-531q182 312 458 463 277 152 661 152 638 0 1036-506 399-506 399-1331T3314 415Q2916-91 2278-91q-384 0-661 152-276 152-458 464zm1957 1222q0 634-261 995t-717 361q-457 0-718-361t-261-995q0-634 261-995t718-361q456 0 717 361t261 995z" transform="scale(.01563)"/><path id="DejaVuSans-65" d="M3597 1894v-281H953q38-594 358-905t892-311q331 0 642 81t618 244V178Q3153 47 2828-22t-659-69q-838 0-1327 487-489 488-489 1320 0 859 464 1363 464 505 1252 505 706 0 1117-455 411-454 411-1235zm-575 169q-6 471-264 752-258 282-683 282-481 0-770-272t-333-766l2050 4z" transform="scale(.01563)"/><path id="DejaVuSans-53" d="M3425 4513v-616q-359 172-678 256-319 85-616 85-515 0-795-200t-280-569q0-310 186-468 186-157 705-254l381-78q706-135 1042-474t336-907q0-679-455-1029Q2797-91 1919-91q-331 0-705 75-373 75-773 222v650q384-215 753-325 369-109 725-109 540 0 834 212 294 213 294 607 0 343-211 537t-692 291l-385 75q-706 140-1022 440-315 300-315 835 0 619 436 975t1201 356q329 0 669-60 341-59 697-177z" transform="scale(.01563)"/></defs><use xlink:href="#DejaVuSans-6d"/><use xlink:href="#DejaVuSans-69" x="97.412"/><use xlink:href="#DejaVuSans-63" x="125.195"/><use xlink:href="#DejaVuSans-72" x="180.176"/><use xlink:href="#DejaVuSans-6f" x="219.039"/><use xlink:href="#DejaVuSans-73" x="280.221"/><use xlink:href="#DejaVuSans-6f" x="332.32"/><use xlink:href="#DejaVuSans-66" x="393.502"/><use xlink:href="#DejaVuSans-74" x="426.957"/><use xlink:href="#DejaVuSans-2f" x="466.166"/><use xlink:href="#DejaVuSans-54" x="499.857"/><use xlink:href="#DejaVuSans-79" x="545.316"/><use xlink:href="#DejaVuSans-70" x="604.496"/><use xlink:href="#DejaVuSans-65" x="667.973"/><use xlink:href="#DejaVuSans-53" x="729.496"/><use xlink:href="#DejaVuSans-63" x="792.973"/><use xlink:href="#DejaVuSans-72" x="847.953"/><use xlink:href="#DejaVuSans-69" x="889.066"/><use xlink:href="#DejaVuSans-70" x="916.85"/><use xlink:href="#DejaVuSans-74" x="980.326"/></g><g style="fill:#2ca02c" transform="matrix(.14 0 0 -.14 465.907 106.476)" id="text_14"><defs><path id="DejaVuSans-2d" d="M313 2009h1684v-512H313v512z" transform="scale(.01563)"/></defs><use xlink:href="#DejaVuSans-72"/><use xlink:href="#DejaVuSans-75" x="41.113"/><use xlink:href="#DejaVuSans-73" x="104.492"/><use xlink:href="#DejaVuSans-74" x="156.592"/><use xlink:href="#DejaVuSans-2d" x="195.801"/><use xlink:href="#DejaVuSans-6c" x="231.885"/><use xlink:href="#DejaVuSans-61" x="259.668"/><use xlink:href="#DejaVuSans-6e" x="320.947"/><use xlink:href="#DejaVuSans-67" x="384.326"/><use xlink:href="#DejaVuSans-2f" x="447.803"/><use xlink:href="#DejaVuSans-72" x="481.494"/><use xlink:href="#DejaVuSans-75" x="522.607"/><use xlink:href="#DejaVuSans-73" x="585.986"/><use xlink:href="#DejaVuSans-74" x="638.086"/></g><g style="fill:#d62728" transform="matrix(.14 0 0 -.14 465.907 120.476)" id="text_15"><defs><path id="DejaVuSans-77" d="M269 3500h575l719-2731 715 2731h678l719-2731 716 2731h575L4050 0h-678l-753 2869L1863 0h-679L269 3500z" transform="scale(.01563)"/></defs><use xlink:href="#DejaVuSans-61"/><use xlink:href="#DejaVuSans-70" x="61.279"/><use xlink:href="#DejaVuSans-70" x="124.756"/><use xlink:href="#DejaVuSans-6c" x="188.232"/><use xlink:href="#DejaVuSans-65" x="216.016"/><use xlink:href="#DejaVuSans-2f" x="277.539"/><use xlink:href="#DejaVuSans-73" x="311.23"/><use xlink:href="#DejaVuSans-77" x="363.33"/><use xlink:href="#DejaVuSans-69" x="445.117"/><use xlink:href="#DejaVuSans-66" x="472.9"/><use xlink:href="#DejaVuSans-74" x="506.355"/></g><g style="fill:#9467bd" transform="matrix(.14 0 0 -.14 465.907 144.13)" id="text_16"><defs><path id="DejaVuSans-68" d="M3513 2113V0h-575v2094q0 497-194 743-194 247-581 247-466 0-735-297-269-296-269-809V0H581v4863h578V2956q207 316 486 472 280 156 646 156 603 0 912-373 310-373 310-1098z" transform="scale(.01563)"/></defs><use xlink:href="#DejaVuSans-70"/><use xlink:href="#DejaVuSans-79" x="63.477"/><use xlink:href="#DejaVuSans-74" x="122.656"/><use xlink:href="#DejaVuSans-68" x="161.865"/><use xlink:href="#DejaVuSans-6f" x="225.244"/><use xlink:href="#DejaVuSans-6e" x="286.426"/><use xlink:href="#DejaVuSans-2f" x="349.805"/><use xlink:href="#DejaVuSans-63" x="383.496"/><use xlink:href="#DejaVuSans-70" x="438.477"/><use xlink:href="#DejaVuSans-79" x="501.953"/><use xlink:href="#DejaVuSans-74" x="561.133"/><use xlink:href="#DejaVuSans-68" x="600.342"/><use xlink:href="#DejaVuSans-6f" x="663.721"/><use xlink:href="#DejaVuSans-6e" x="724.902"/></g><g style="fill:#8c564b" transform="matrix(.14 0 0 -.14 465.907 158.13)" id="text_17"><defs><path id="DejaVuSans-4a" d="M628 4666h631V325q0-844-320-1225T-91-1281h-240v531h197q418 0 590 235 172 234 172 840v4341z" transform="scale(.01563)"/><path id="DejaVuSans-42" d="M1259 2228V519h1013q509 0 754 211 246 211 246 645 0 438-246 645-245 208-754 208H1259zm0 1919V2741h935q462 0 688 173 227 174 227 530 0 353-227 528-226 175-688 175h-935zm-631 519h1613q722 0 1112-300 391-300 391-853 0-429-200-682t-588-315q466-100 724-418 258-317 258-792 0-625-425-966Q3088 0 2303 0H628v4666z" transform="scale(.01563)"/><path id="DejaVuSans-6b" d="M581 4863h578V1991l1716 1509h734L1753 1863 3688 0h-750L1159 1709V0H581v4863z" transform="scale(.01563)"/></defs><use xlink:href="#DejaVuSans-4a"/><use xlink:href="#DejaVuSans-65" x="29.492"/><use xlink:href="#DejaVuSans-74" x="91.016"/><use xlink:href="#DejaVuSans-42" x="130.225"/><use xlink:href="#DejaVuSans-72" x="198.828"/><use xlink:href="#DejaVuSans-61" x="239.941"/><use xlink:href="#DejaVuSans-69" x="301.221"/><use xlink:href="#DejaVuSans-6e" x="329.004"/><use xlink:href="#DejaVuSans-73" x="392.383"/><use xlink:href="#DejaVuSans-2f" x="444.482"/><use xlink:href="#DejaVuSans-6b" x="478.174"/><use xlink:href="#DejaVuSans-6f" x="532.459"/><use xlink:href="#DejaVuSans-74" x="593.641"/><use xlink:href="#DejaVuSans-6c" x="632.85"/><use xlink:href="#DejaVuSans-69" x="660.633"/><use xlink:href="#DejaVuSans-6e" x="688.416"/></g><g style="fill:#e377c2" transform="matrix(.14 0 0 -.14 465.907 172.13)" id="text_18"><defs><path id="DejaVuSans-4c" d="M628 4666h631V531h2272V0H628v4666z" transform="scale(.01563)"/><path id="DejaVuSans-6a" d="M603 3500h575V-63q0-668-255-968-254-300-820-300h-219v487H38q328 0 446 152Q603-541 603-63v3563zm0 1363h575v-729H603v729z" transform="scale(.01563)"/></defs><use xlink:href="#DejaVuSans-4a"/><use xlink:href="#DejaVuSans-75" x="29.492"/><use xlink:href="#DejaVuSans-6c" x="92.871"/><use xlink:href="#DejaVuSans-69" x="120.654"/><use xlink:href="#DejaVuSans-61" x="148.438"/><use xlink:href="#DejaVuSans-4c" x="209.717"/><use xlink:href="#DejaVuSans-61" x="265.43"/><use xlink:href="#DejaVuSans-6e" x="326.709"/><use xlink:href="#DejaVuSans-67" x="390.088"/><use xlink:href="#DejaVuSans-2f" x="453.564"/><use xlink:href="#DejaVuSans-6a" x="487.256"/><use xlink:href="#DejaVuSans-75" x="515.039"/><use xlink:href="#DejaVuSans-6c" x="578.418"/><use xlink:href="#DejaVuSans-69" x="606.201"/><use xlink:href="#DejaVuSans-61" x="633.984"/></g><g style="fill:#7f7f7f" transform="matrix(.14 0 0 -.14 465.907 186.13)" id="text_19"><use xlink:href="#DejaVuSans-70"/><use xlink:href="#DejaVuSans-68" x="63.477"/><use xlink:href="#DejaVuSans-70" x="126.855"/><use xlink:href="#DejaVuSans-2f" x="190.332"/><use xlink:href="#DejaVuSans-70" x="224.023"/><use xlink:href="#DejaVuSans-68" x="287.5"/><use xlink:href="#DejaVuSans-70" x="350.879"/><use xlink:href="#DejaVuSans-2d" x="414.355"/><use xlink:href="#DejaVuSans-73" x="450.439"/><use xlink:href="#DejaVuSans-72" x="502.539"/><use xlink:href="#DejaVuSans-63" x="541.402"/></g><g style="fill:#bcbd22" transform="matrix(.14 0 0 -.14 465.907 200.13)" id="text_20"><defs><path id="DejaVuSans-76" d="M191 3500h609L1894 563l1094 2937h609L2284 0h-781L191 3500z" transform="scale(.01563)"/></defs><use xlink:href="#DejaVuSans-76"/><use xlink:href="#DejaVuSans-6c" x="59.18"/><use xlink:href="#DejaVuSans-61" x="86.963"/><use xlink:href="#DejaVuSans-6e" x="148.242"/><use xlink:href="#DejaVuSans-67" x="211.621"/><use xlink:href="#DejaVuSans-2f" x="275.098"/><use xlink:href="#DejaVuSans-76" x="308.789"/></g><g style="fill:#17becf" transform="matrix(.14 0 0 -.14 465.907 214.13)" id="text_21"><use xlink:href="#DejaVuSans-72"/><use xlink:href="#DejaVuSans-75" x="41.113"/><use xlink:href="#DejaVuSans-62" x="104.492"/><use xlink:href="#DejaVuSans-79" x="167.969"/><use xlink:href="#DejaVuSans-2f" x="227.148"/><use xlink:href="#DejaVuSans-72" x="260.84"/><use xlink:href="#DejaVuSans-75" x="301.953"/><use xlink:href="#DejaVuSans-62" x="365.332"/><use xlink:href="#DejaVuSans-79" x="428.809"/></g><g style="fill:#1f77b4" transform="matrix(.14 0 0 -.14 465.907 228.13)" id="text_22"><use xlink:href="#DejaVuSans-63"/><use xlink:href="#DejaVuSans-72" x="54.98"/><use xlink:href="#DejaVuSans-79" x="96.094"/><use xlink:href="#DejaVuSans-73" x="155.273"/><use xlink:href="#DejaVuSans-74" x="207.373"/><use xlink:href="#DejaVuSans-61" x="246.582"/><use xlink:href="#DejaVuSans-6c" x="307.861"/><use xlink:href="#DejaVuSans-2d" x="335.645"/><use xlink:href="#DejaVuSans-6c" x="371.729"/><use xlink:href="#DejaVuSans-61" x="399.512"/><use xlink:href="#DejaVuSans-6e" x="460.791"/><use xlink:href="#DejaVuSans-67" x="524.17"/><use xlink:href="#DejaVuSans-2f" x="587.646"/><use xlink:href="#DejaVuSans-63" x="621.338"/><use xlink:href="#DejaVuSans-72" x="676.318"/><use xlink:href="#DejaVuSans-79" x="717.432"/><use xlink:href="#DejaVuSans-73" x="776.611"/><use xlink:href="#DejaVuSans-74" x="828.711"/><use xlink:href="#DejaVuSans-61" x="867.92"/><use xlink:href="#DejaVuSans-6c" x="929.199"/></g><g style="fill:#ff7f0e" transform="matrix(.14 0 0 -.14 465.907 242.13)" id="text_23"><defs><path id="DejaVuSans-4e" d="M628 4666h850L3547 763v3903h612V0h-850L1241 3903V0H628v4666z" transform="scale(.01563)"/></defs><use xlink:href="#DejaVuSans-6e"/><use xlink:href="#DejaVuSans-69" x="63.379"/><use xlink:href="#DejaVuSans-6d" x="91.162"/><use xlink:href="#DejaVuSans-2d" x="188.574"/><use xlink:href="#DejaVuSans-6c" x="224.658"/><use xlink:href="#DejaVuSans-61" x="252.441"/><use xlink:href="#DejaVuSans-6e" x="313.721"/><use xlink:href="#DejaVuSans-67" x="377.1"/><use xlink:href="#DejaVuSans-2f" x="440.576"/><use xlink:href="#DejaVuSans-4e" x="474.268"/><use xlink:href="#DejaVuSans-69" x="549.072"/><use xlink:href="#DejaVuSans-6d" x="576.855"/></g><g style="fill:#2ca02c" transform="matrix(.14 0 0 -.14 465.907 256.13)" id="text_24"><defs><path id="DejaVuSans-64" d="M2906 2969v1894h575V0h-575v525q-181-312-458-464-276-152-664-152-634 0-1033 506-398 507-398 1332t398 1331q399 506 1033 506 388 0 664-152 277-151 458-463zM947 1747q0-634 261-995t717-361q456 0 718 361 263 361 263 995t-263 995q-262 361-718 361t-717-361q-261-361-261-995z" transform="scale(.01563)"/></defs><use xlink:href="#DejaVuSans-6f"/><use xlink:href="#DejaVuSans-70" x="61.182"/><use xlink:href="#DejaVuSans-65" x="124.658"/><use xlink:href="#DejaVuSans-6e" x="186.182"/><use xlink:href="#DejaVuSans-6a" x="249.561"/><use xlink:href="#DejaVuSans-64" x="277.344"/><use xlink:href="#DejaVuSans-6b" x="340.82"/><use xlink:href="#DejaVuSans-2f" x="398.73"/><use xlink:href="#DejaVuSans-6a" x="432.422"/><use xlink:href="#DejaVuSans-64" x="460.205"/><use xlink:href="#DejaVuSans-6b" x="523.682"/></g><g style="fill:#d62728" transform="matrix(.14 0 0 -.14 465.907 270.13)" id="text_25"><use xlink:href="#DejaVuSans-64"/><use xlink:href="#DejaVuSans-6f" x="63.477"/><use xlink:href="#DejaVuSans-74" x="124.658"/><use xlink:href="#DejaVuSans-6e" x="163.867"/><use xlink:href="#DejaVuSans-65" x="227.246"/><use xlink:href="#DejaVuSans-74" x="288.77"/><use xlink:href="#DejaVuSans-2f" x="327.979"/><use xlink:href="#DejaVuSans-63" x="361.67"/><use xlink:href="#DejaVuSans-73" x="416.65"/><use xlink:href="#DejaVuSans-68" x="468.75"/><use xlink:href="#DejaVuSans-61" x="532.129"/><use xlink:href="#DejaVuSans-72" x="593.408"/><use xlink:href="#DejaVuSans-70" x="634.521"/><use xlink:href="#DejaVuSans-6c" x="697.998"/><use xlink:href="#DejaVuSans-61" x="725.781"/><use xlink:href="#DejaVuSans-6e" x="787.061"/><use xlink:href="#DejaVuSans-67" x="850.439"/></g><g style="fill:#9467bd" transform="matrix(.14 0 0 -.14 465.907 284.13)" id="text_26"><use xlink:href="#DejaVuSans-6c"/><use xlink:href="#DejaVuSans-75" x="27.783"/><use xlink:href="#DejaVuSans-61" x="91.162"/><use xlink:href="#DejaVuSans-2f" x="152.441"/><use xlink:href="#DejaVuSans-6c" x="186.133"/><use xlink:href="#DejaVuSans-75" x="213.916"/><use xlink:href="#DejaVuSans-61" x="277.295"/></g><g style="fill:#8c564b" transform="matrix(.14 0 0 -.14 465.907 298.13)" id="text_27"><defs><path id="DejaVuSans-52" d="M2841 2188q203-69 395-294t386-619L4263 0h-679l-596 1197q-232 469-449 622t-592 153h-688V0H628v4666h1425q800 0 1194-335 394-334 394-1009 0-441-205-732-205-290-595-402zM1259 4147V2491h794q456 0 689 211t233 620q0 409-233 617t-689 208h-794z" transform="scale(.01563)"/><path id="DejaVuSans-78" d="M3513 3500 2247 1797 3578 0h-678L1881 1375 863 0H184l1360 1831L300 3500h678l928-1247 928 1247h679z" transform="scale(.01563)"/></defs><use xlink:href="#DejaVuSans-52"/><use xlink:href="#DejaVuSans-6f" x="64.982"/><use xlink:href="#DejaVuSans-62" x="126.164"/><use xlink:href="#DejaVuSans-6c" x="189.641"/><use xlink:href="#DejaVuSans-6f" x="217.424"/><use xlink:href="#DejaVuSans-78" x="275.48"/><use xlink:href="#DejaVuSans-2f" x="334.66"/><use xlink:href="#DejaVuSans-6c" x="368.352"/><use xlink:href="#DejaVuSans-75" x="396.135"/><use xlink:href="#DejaVuSans-61" x="459.514"/><use xlink:href="#DejaVuSans-75" x="520.793"/></g><g style="fill:#e377c2" transform="matrix(.14 0 0 -.14 465.907 312.13)" id="text_28"><defs><path id="DejaVuSans-50" d="M1259 4147V2394h794q441 0 681 228 241 228 241 650 0 419-241 647-240 228-681 228h-794zm-631 519h1425q785 0 1186-355 402-355 402-1039 0-691-402-1044-401-353-1186-353h-794V0H628v4666z" transform="scale(.01563)"/><path id="DejaVuSans-35" d="M691 4666h2478v-532H1269V2991q137 47 274 70 138 23 276 23 781 0 1237-428 457-428 457-1159 0-753-469-1171Q2575-91 1722-91q-294 0-599 50Q819 9 494 109v635q281-153 581-228t634-75q541 0 856 284 316 284 316 772 0 487-316 771-315 285-856 285-253 0-505-56-251-56-513-175v2344z" transform="scale(.01563)"/></defs><use xlink:href="#DejaVuSans-50"/><use xlink:href="#DejaVuSans-65" x="56.678"/><use xlink:href="#DejaVuSans-72" x="118.201"/><use xlink:href="#DejaVuSans-6c" x="159.314"/><use xlink:href="#DejaVuSans-2f" x="187.098"/><use xlink:href="#DejaVuSans-70" x="220.789"/><use xlink:href="#DejaVuSans-65" x="284.266"/><use xlink:href="#DejaVuSans-72" x="345.789"/><use xlink:href="#DejaVuSans-6c" x="386.902"/><use xlink:href="#DejaVuSans-35" x="414.686"/></g><g style="fill:#636363" transform="matrix(.09716 0 0 -.09716 98.073 314.123)" id="text_29"><defs><path id="DejaVuSans-41" d="m2188 4044-857-2322h1716l-859 2322zm-357 622h716L4325 0h-656l-425 1197H1141L716 0H50l1781 4666z" transform="scale(.01563)"/><path id="DejaVuSans-49" d="M628 4666h631V0H628v4666z" transform="scale(.01563)"/><path id="DejaVuSans-7c" d="M1344 4891v-6400H813v6400h531z" transform="scale(.01563)"/><path id="DejaVuSans-f6" d="M1959 3097q-462 0-731-361t-269-989q0-628 267-989 268-361 733-361 460 0 728 362 269 363 269 988 0 622-269 986-268 364-728 364zm0 487q750 0 1178-488 429-487 429-1349 0-859-429-1349Q2709-91 1959-91q-753 0-1180 489-426 490-426 1349 0 862 426 1349 427 488 1180 488zm295 1266h634v-631h-634v631zm-1222 0h634v-631h-634v631z" transform="scale(.01563)"/><path id="DejaVuSans-40" d="M2381 1678q0-447 222-702 222-254 610-254 384 0 604 256 221 256 221 700 0 438-225 695-225 258-607 258-378 0-602-256-223-256-223-697zm1703-934q-187-241-429-355t-564-114q-538 0-874 389t-336 1014q0 625 337 1015 338 391 873 391 322 0 565-117 244-117 428-354v409h447V722q457 69 714 417 258 349 258 902 0 334-99 628-98 294-298 544-325 409-792 626t-1017 217q-384 0-738-102-353-101-653-301-490-319-767-836-276-517-276-1120 0-497 179-932 180-434 521-765 328-325 759-495 431-171 922-171 403 0 792 136t714 389l281-347q-390-303-851-464t-936-161q-578 0-1091 205-512 205-912 595Q841 78 631 592q-209 514-209 1105 0 569 212 1084 213 516 607 907 403 396 931 607t1119 211q662 0 1229-272 568-271 952-771 234-307 357-666 124-359 124-744 0-822-497-1297T4084 263v481z" transform="scale(.01563)"/><path id="DejaVuSans-43" d="M4122 4306v-665q-319 297-680 443-361 147-767 147-800 0-1225-489t-425-1414q0-922 425-1411t1225-489q406 0 767 147t680 444V359q-331-225-702-338-370-112-782-112-1060 0-1670 648-609 649-609 1771 0 1125 609 1773 610 649 1670 649 418 0 788-111 371-111 696-333z" transform="scale(.01563)"/><path id="DejaVuSans-59" d="M-13 4666h679l1293-1919 1285 1919h678L2272 2222V0h-634v2222L-13 4666z" transform="scale(.01563)"/></defs><use xlink:href="#DejaVuSans-47"/><use xlink:href="#DejaVuSans-69" x="77.49"/><use xlink:href="#DejaVuSans-74" x="105.273"/><use xlink:href="#DejaVuSans-48" x="144.482"/><use xlink:href="#DejaVuSans-75" x="219.678"/><use xlink:href="#DejaVuSans-62" x="283.057"/><use xlink:href="#DejaVuSans-20" x="346.533"/><use xlink:href="#DejaVuSans-41" x="378.32"/><use xlink:href="#DejaVuSans-50" x="446.729"/><use xlink:href="#DejaVuSans-49" x="507.031"/><use xlink:href="#DejaVuSans-20" x="536.523"/><use xlink:href="#DejaVuSans-76" x="568.311"/><use xlink:href="#DejaVuSans-69" x="627.49"/><use xlink:href="#DejaVuSans-61" x="655.273"/><use xlink:href="#DejaVuSans-20" x="716.553"/><use xlink:href="#DejaVuSans-6e" x="748.34"/><use xlink:href="#DejaVuSans-73" x="811.719"/><use xlink:href="#DejaVuSans-63" x="863.818"/><use xlink:href="#DejaVuSans-68" x="918.799"/><use xlink:href="#DejaVuSans-6c" x="982.178"/><use xlink:href="#DejaVuSans-6f" x="1009.961"/><use xlink:href="#DejaVuSans-65" x="1071.143"/><use xlink:href="#DejaVuSans-2f" x="1132.666"/><use xlink:href="#DejaVuSans-73" x="1166.357"/><use xlink:href="#DejaVuSans-74" x="1218.457"/><use xlink:href="#DejaVuSans-61" x="1257.666"/><use xlink:href="#DejaVuSans-72" x="1318.945"/><use xlink:href="#DejaVuSans-67" x="1358.309"/><use xlink:href="#DejaVuSans-72" x="1421.785"/><use xlink:href="#DejaVuSans-61" x="1462.898"/><use xlink:href="#DejaVuSans-70" x="1524.178"/><use xlink:href="#DejaVuSans-68" x="1587.654"/><use xlink:href="#DejaVuSans-20" x="1651.033"/><use xlink:href="#DejaVuSans-7c" x="1682.82"/><use xlink:href="#DejaVuSans-20" x="1716.512"/><use xlink:href="#DejaVuSans-4e" x="1748.299"/><use xlink:href="#DejaVuSans-69" x="1823.104"/><use xlink:href="#DejaVuSans-63" x="1850.887"/><use xlink:href="#DejaVuSans-6f" x="1905.867"/><use xlink:href="#DejaVuSans-20" x="1967.049"/><use xlink:href="#DejaVuSans-53" x="1998.836"/><use xlink:href="#DejaVuSans-63" x="2062.313"/><use xlink:href="#DejaVuSans-68" x="2117.293"/><use xlink:href="#DejaVuSans-6c" x="2180.672"/><use xlink:href="#DejaVuSans-f6" x="2208.455"/><use xlink:href="#DejaVuSans-6d" x="2269.637"/><use xlink:href="#DejaVuSans-65" x="2367.049"/><use xlink:href="#DejaVuSans-72" x="2428.572"/><use xlink:href="#DejaVuSans-20" x="2469.686"/><use xlink:href="#DejaVuSans-40" x="2501.473"/><use xlink:href="#DejaVuSans-6e" x="2601.473"/><use xlink:href="#DejaVuSans-73" x="2664.852"/><use xlink:href="#DejaVuSans-63" x="2716.951"/><use xlink:href="#DejaVuSans-68" x="2771.932"/><use xlink:href="#DejaVuSans-6c" x="2835.311"/><use xlink:href="#DejaVuSans-6f" x="2863.094"/><use xlink:href="#DejaVuSans-65" x="2924.275"/><use xlink:href="#DejaVuSans-20" x="2985.799"/><use xlink:href="#DejaVuSans-7c" x="3017.586"/><use xlink:href="#DejaVuSans-20" x="3051.277"/><use xlink:href="#DejaVuSans-43" x="3083.064"/><use xlink:href="#DejaVuSans-43" x="3152.889"/><use xlink:href="#DejaVuSans-20" x="3222.713"/><use xlink:href="#DejaVuSans-42" x="3254.5"/><use xlink:href="#DejaVuSans-59" x="3317.604"/></g><path d="m306.84 280.087 2.563-.003 2.314-1.407 2.562-.604 2.48-.242 2.562-.501 2.479-.242 2.562-.23 2.562-.55 2.48-.28 2.562-.401 2.48-.71 2.561-.372 2.562-.305 2.314-.29 2.562-.394 2.48-.31 2.562-.444 2.48-.365 2.561-.376 2.563-.307 2.479-.533 2.562-.601 2.48-.501 2.561-.362 2.563-.359 2.314-.336 2.562-.344 2.48-.314 2.561-.302 2.48-.262 2.562-.267 2.562-.336 2.48-.297 2.561-.262 2.48-.296 2.562-.455 2.562-.354 2.397-.253 2.562-.236 2.48-.345 2.561-.66 2.48-.317 2.562-.299 2.562-.228 2.48-.558 2.561-.399 2.48-.267 2.562-.194 2.562-.296 2.314-.231 2.562-.342 2.48-.666 2.562-.328 2.48-.296 2.561-.356 2.562-.285 2.48-.74 2.562-.293 2.48-.986" clip-path="url(#p1b3c1bd638)" style="fill:none;stroke:#d62728;stroke-width:1.5;stroke-linecap:square" id="line2d_19"/><path d="m357.09 280.087 2.48-.285 2.562-.074 2.48-.04 2.561-.009 2.563-.011 2.314-.028 2.562-.04 2.48-.365 2.561-.205 2.48-.168 2.562-.188 2.562-.196 2.48-.194 2.561-.217 2.48-.55 2.562-.332 2.562-.294 2.397-.319 2.562-.378 2.48-.365 2.561-.618 2.48-.769 2.562-1.583 2.562-1.051 2.48-7.078 2.561-2.355 2.48-1.06 2.562-1.295 2.562-1.228 2.314-.93 2.562-2.41 2.48-1.521 2.562-1.06 2.48-1.529 2.561-1.136 2.562-.966 2.48-1.014 2.562-.757 2.48-.8" clip-path="url(#p1b3c1bd638)" style="fill:none;stroke:#2ca02c;stroke-width:1.5;stroke-linecap:square" id="line2d_20"/><path d="m113.032 280.087 2.562-.157 85.458-.194 5.124-.193 5.042-.157 2.479-.182 7.438-.25 7.604-.456 5.041-.143 10.083-.475 2.562-.337 4.877-1.233 5.041-.481 5.042-1.054 15.207-1.088 2.562-.29 10-.593 2.48-.282 15.207-.885 2.562-.396 20-1.797 20.084-2.555 2.48-.49 5.124-.749 2.479-1.014 2.562-.47 2.48-.643 2.561-.368 4.877-.865 5.041-.704 2.562-.373 5.042-1.293 2.562-.538 2.48-1.256 2.561-.658 5.042-.866 2.562-.478 2.397-.678 2.562-.342 2.48-.658 12.644-2.39 7.604-1.768 22.563-4.146 5.041-1.046h0" clip-path="url(#p1b3c1bd638)" style="fill:none;stroke:#ff7f0e;stroke-width:1.5;stroke-linecap:square" id="line2d_21"/><path d="m181.051 280.087 2.48-.006h5.124l2.314-.034 2.562-.157 2.48-.017 2.562-.236 2.479-.012 2.562-.054 2.562-.023 2.48-.723 2.562-.051 2.479-.032 2.562-.04 2.562-.07 2.314-.043 2.562-.029 2.48-.04 2.562-.048 2.48-.026 2.561-.023 2.562-.028 2.48-.037 2.562-.031 2.48-.72 2.561-.209 2.563-.154 2.314-.114 2.562-.338 2.48-.433 2.561-.76 2.48-1.633 2.562-.754 2.562-1.137 2.48-.808 2.561-.533 2.48-.518 2.562-.658 2.562-.365 2.397-.495 2.562-.755 2.48-.379 2.561-.666 2.48-.53 2.562-.342 2.562-1.672 2.48-.535 2.561-.587 2.48-.504 2.562-1.446 2.562-.425 2.314-.612 2.562-.7 2.48-.67 2.562-.598 2.479-.718 2.562-.461 2.562-.766 2.48-.727 2.562-.64 2.48-.7 2.561-.67 2.562-.684 2.314-.498 2.562-.396 2.48-.612 2.562-.61 2.48-.994 2.561-.712 2.563-.695 2.479-.598 2.562-.56 2.48-.502 2.561-.421 2.563-.513 2.314-.405 2.562-.649 2.48-.823 2.561-.333 2.48-.447 2.562-.373 2.562-.536 2.48-.367 2.561-.402 2.48-.316 2.562-.495 2.562-.274 2.397-.495 2.562-.36 2.48-.355 2.561-.385 2.48-.418 2.562-.242 2.562-.29 2.48-.254 2.561-.214 2.48-.27 2.562-.271 2.562-.288 2.314-.299 2.562-1.91 2.48-.562 2.562-.364 2.48-.31 2.561-.425 2.562-.342 2.48-.23 2.562-.41 2.48-.436" clip-path="url(#p1b3c1bd638)" style="fill:none;stroke:#1f77b4;stroke-width:1.5;stroke-linecap:square" id="line2d_22"/><path d="m98.073 280.087 2.314-3.307 35.208-2.74 35.29-2.053 10.166-.205 7.604-.083 7.355-.771 15.208-1.57 7.603-1.062 4.876-.766 5.042-.857 7.603-1 2.48-.518 5.041-.812 7.439-1.404 5.041-1.128 10.166-2.005 5.041-.96 2.48-.472 5.124-1.276 15.042-3.366 2.562-.675 10.083-2.168 7.438-1.803 5.042-1.085 12.645-2.882 14.959-3.167 12.645-1.888 2.562-.347 2.48-.45 2.561-.348 2.563-.481 4.876-.64 2.48-.53 5.04-.781 7.604-1.02 7.604-.848 12.562-1.47 7.604-1.148 2.48-.563 5.04-.675 2.563-.667 27.604-3.486h0" clip-path="url(#p1b3c1bd638)" style="fill:none;stroke:#17becf;stroke-width:1.5;stroke-linecap:square" id="line2d_23"/><path d="m369.736 280.087 2.314-.704 2.562-3.537 2.48-2.666 2.561-.52 2.48-14.238 2.562-5.374 2.562-1.666 2.48-1.481 2.561-5.12 2.48-2.071 2.562-1.339 2.562-2.551 2.397-1.53 2.562-1.364 2.48-1.233 2.561-1.541 2.48-1.49 2.562-1.42 2.562-.83 2.48-1.084 2.561-.738 2.48-2.313 2.562-4.178 2.562-2.107 2.314-3.025 2.562-1.284 2.48-.98 2.562-1.167 2.48-1.513 2.561-1.108 2.562-1.848 2.48-.88 2.562-1.25 2.48-1.256" clip-path="url(#p1b3c1bd638)" style="fill:none;stroke:#bcbd22;stroke-width:1.5;stroke-linecap:square" id="line2d_24"/><path d="m138.157 280.087 2.48-4.494 2.562-.174 2.562-.16 2.48-.17 2.561-.149 2.48-.15 2.562-.186 2.562-.128 2.397-.142 2.562-.211 2.48-.148 2.561-.134 2.48-.097 2.562-.1 2.562-.036 2.48-.037 2.561-.026 2.48-.02 2.562-.006 2.562-.017 2.314-.117 2.562-.296 2.48-.15 2.562-.169 2.479-.307 2.562-.194 2.562-.242 2.48-.174 2.562-.18 2.479-.21 2.562-.256 2.562-.33 2.314-.223 2.562-.29 2.48-.27 2.562-.326 2.48-.242 2.561-.413 2.562-.432 2.48-.337 2.562-.29 2.48-.31 2.561-.348 2.563-.399 2.314-.433 2.562-.552 2.48-.396 2.561-.453 2.48-.635 2.562-.672 2.562-.464 2.48-.524 2.561-.647 2.48-.695 2.562-2.68 2.562-.45 2.397-.46 2.562-.496 2.48-.527 2.561-.499 2.48-.544 2.562-.59 2.562-.597 2.48-.593 2.561-.51 2.48-.404 2.562-.495 2.562-1.863 2.314-.496 2.562-.572 2.48-.584 2.562-.538 2.479-.644 2.562-.754 2.562-.621 2.48-.718 2.562-.678 2.48-.538 2.561-1.697 2.562-2.769 2.314-2.825 2.562-2.181 2.48-1.55 2.562-1.318 2.48-1.29 2.561-1.142 2.563-1.237 2.479-1.367 2.562-1.555 2.48-1.535 2.561-1.418 2.563-1.427 2.314-1.236 2.562-1.512 2.48-1.487 2.561-1.301 2.48-1.122 2.562-1.13 2.562-1.416 2.48-1.094 2.561-1.034 2.48-1.196 2.562-1.037 2.562-.934 2.397-.774 2.562-.88 2.48-.744 2.561-.777 2.48-.969 2.562-.823 2.562-.743 2.48-.63 2.561-.888 2.48-1.037 2.562-.683 2.562-.65 2.314-.623 2.562-2.04 2.48-1.144 2.562-.687 2.48-.59 2.561-.56 2.562-.607 2.48-.555 2.562-.644 2.48-3.477" clip-path="url(#p1b3c1bd638)" style="fill:none;stroke:#7f7f7f;stroke-width:1.5;stroke-linecap:square" id="line2d_25"/><path d="m133.116 280.087 2.48-3.147 37.852-1.308 15.207-.09 7.355-.661 7.604-.47 2.562-.39 5.042-.32 5.041-.703 2.562-.521 2.314-.726 2.562-.467 10.083-1.339 20.084-3.204 17.686-2.472 5.042-.9 10-1.338 5.042-.584 5.124-.71 2.48-.512 7.603-.997 4.876-.92 17.687-2.82 10.165-2.18 4.876-1.448 2.48-.74 2.562-.906 5.041-1.47 2.563-12.878 2.479-3.053 2.562-1.9 2.48-1.281 2.561-1.547 2.563-2.26 4.876-3.498 5.041-2.734 2.48-1.122 5.124-2.586 7.52-3.056 2.563-1.324 2.562-1.151 2.397-.877 2.562-1.37 2.48-1.153 2.561-3.085 2.48-1.603 2.562-1.444 2.562-1.612 5.041-3.523 2.48-2.045 2.562-1.72 4.876-2.46 2.562-2.803 2.48-1.336 5.041-2.278 2.562-4.432 2.562-1.404 2.48-1.165 5.041-3.067h0" clip-path="url(#p1b3c1bd638)" style="fill:none;stroke:#e377c2;stroke-width:1.5;stroke-linecap:square" id="line2d_26"/><path d="m158.406 280.087 2.397-.823 2.562-.032 2.48-.011 2.561-.011h2.48l2.562-.006h7.603l2.48-.006 2.562-.003 2.562-.003 2.314-.022 2.562-.049 2.48-.028 2.562-.037 2.479-.029 2.562-.045 2.562-.012 2.48-.034 2.562-.045 2.479-.066 2.562-.051 2.562-.034 2.314-.035 2.562-.042 2.48-.046 2.562-.037 2.48-.051 2.561-.168 2.562-.071 2.48-.168 2.562-.194 2.48-.111 2.561-.168 2.563-.276 2.314-.248 2.562-.29 2.48-.266 2.561-.267 2.48-.314 2.562-.495 2.562-.205 2.48-.379 2.561-.538 2.48-.78 2.562-.667 2.562-.66 2.397-3.319 2.562-1.065 2.48-.683 2.561-.601 2.48-.584 2.562-.55 2.562-.538 2.48-.55 2.561-.59 2.48-.668 2.562-.536 2.562-.698 2.314-.657 2.562-.949 2.48-.908 2.562-16.345 2.479-4.075 2.562-1.914 2.562-1.982 2.48-1.686 2.562-1.9 2.48-2.236 2.561-1.9 2.562-1.785 2.314-1.506 2.562-1.64 2.48-1.388 2.562-1.475 2.48-1.233 2.561-1.339 2.563-1.395 2.479-1.162 2.562-1.738 2.48-1.332 2.561-1.265 2.563-1.136 2.314-.989 2.562-1.164 2.48-1.37 2.561-1.478 2.48-1.077 2.562-1.284 2.562-1.128 2.48-.997 2.561-.917 2.48-1.074 2.562-.97 2.562-.872 2.397-1.111 2.562-1.1 2.48-1.181 2.561-1.17 2.48-1.257 2.562-1.273 2.562-1.227 2.48-1.028 2.561-1.105 2.48-1.08 2.562-.965 2.562-2.01 2.314-1.345 2.562-1.45 2.48-.982 2.562-1.051 2.48-3.74 2.561-1.281 2.562-1.248 2.48-.98 2.562-1.002 2.48-1.159" clip-path="url(#p1b3c1bd638)" style="fill:none;stroke:#8c564b;stroke-width:1.5;stroke-linecap:square" id="line2d_27"/><path d="m309.403 280.087 2.314-16.066 2.562-1.945 2.48-1.29 2.562-1.15 2.479-2.515 2.562-7.892 2.562-1.663 2.48-1.766 2.562-1.922 2.48-1.496 2.561-1.498 2.562-2.013 2.314-1.507 2.562-1.652 2.48-1.472 2.562-1.532 2.48-1.367 2.561-1.69 2.563-1.42 2.479-1.729 2.562-1.421 2.48-1.615 2.561-1.6 2.563-1.496 2.314-1.612 2.562-1.754 2.48-1.714 2.561-2.045 2.48-1.68 2.562-1.792 2.562-1.751 2.48-1.507 2.561-1.695 2.48-1.703 2.562-1.549 2.562-1.544 2.397-1.432 2.562-1.643 2.48-1.966 2.561-2.007 2.48-2.133 2.562-1.869 2.562-1.606 2.48-1.55 2.561-1.603 2.48-1.728 2.562-1.627 2.562-1.814 2.314-1.652 2.562-1.774 2.48-2.01 2.562-1.954 2.48-1.703 2.561-1.815 2.562-1.902 2.48-1.834 2.562-1.803 2.48-1.729" clip-path="url(#p1b3c1bd638)" style="fill:none;stroke:#9467bd;stroke-width:1.5;stroke-linecap:square" id="line2d_28"/><path d="m268.988 280.087 2.562-.006 2.48-.031 2.562-63.462 2.562-3.745 2.397-2.594 2.562-2.754 2.48-4.267 2.561-2.643 2.48-3.23 2.562-2.101 2.562-2.201 2.48-2.102 2.561-1.851 2.48-1.37 2.562-1.359 2.562-1.914 2.314-1.589 2.562-2.085 2.48-1.378 2.562-1.427 2.479-1.543 2.562-1.39 2.562-1.421 2.48-1.652 2.562-1.88 2.48-1.452 2.561-1.165 2.562-1.182 2.314-1.008 2.562-1.379 2.48-1.438 2.562-1.19 2.48-1.196 2.561-1.071 2.563-1.011 2.479-1.142 2.562-1.017 2.48-.877 2.561-1.02 2.563-1.128 2.314-.925 2.562-1.339 2.48-1.222 2.561-1.122 2.48-1.404 2.562-1.096 2.562-.983 2.48-.911 2.561-1.057 2.48-1.221 2.562-.915 2.562-.974 2.397-.843 2.562-1.093 2.48-1.256 2.561-1.33 2.48-1.339 2.562-1.774 2.562-.937 2.48-1.806 2.561-1.179 2.48-1.116 2.562-1.045 2.562-.932 2.314-.977 2.562-1.307 2.48-.988 2.562-.988 2.48-1.174 2.561-.98 2.562-1.39 2.48-1.076 2.562-1.033 2.48-1.22" clip-path="url(#p1b3c1bd638)" style="fill:none;stroke:#d62728;stroke-width:1.5;stroke-linecap:square" id="line2d_29"/><path d="m107.99 280.087 2.48-2.404 5.124-.2 12.645-.455 12.398-.459 30.249-.572 20.083-.265 2.562-.22 2.48-1.147 12.645-1.811 2.562-.507 2.479-.33 2.562-.473 4.876-1.461 2.562-.647 2.48-.863 2.562-.655 2.48-.891 2.561-1.13 2.562-.804 2.48-.971 2.562-1.37 2.48-1.14 2.561-1.574 2.563-2.341 2.314-1.094 2.562-.97 2.48-1.67 2.561-3.426 2.48-1.432 2.562-.969 5.041-2.304 2.562-1.242 2.48-.766 5.124-2.378 2.397-.823 2.562-1.612 12.645-5.716 2.48-.948 2.561-1.14 2.48-.945 2.562-1.284 2.562-1.595 9.918-5.178 10.083-4.619 2.562-1.677 2.48-1.963 2.561-1.649 2.562-1.84 2.314-1.423 5.042-3.623 2.562-1.61 5.041-3.548 5.042-3.54 2.562-1.623 5.041-3.916 2.563-2.6 2.314-1.61 2.562-1.959 2.48-2.555 5.04-3.804 2.563-2.649 2.562-2.213 5.041-3.634 2.48-2.34 5.124-4.1 2.397-2.135 2.562-2.076 5.041-4.956 2.48-3.013 2.562-2.797 5.041-4.343 2.562-1.968 2.48-2.116 5.124-5.138 2.314-3.346 2.562-2.577 2.48-2.754 2.562-3.92 2.48-2.021 5.123-6.485 5.042-5.266 2.48-3.138h0" clip-path="url(#p1b3c1bd638)" style="fill:none;stroke:#2ca02c;stroke-width:1.5;stroke-linecap:square" id="line2d_30"/><path d="m231.218 280.087 2.562-4.27 2.562-.768 2.48-.436 2.562-.684 2.48-1.213 2.561-.544 2.563-.598 2.314-.501 2.562-1.937 2.48-1.43 2.561-1.278 2.48-.912 2.562-1.033 2.562-1.017 2.48-1.005 2.561-1.168 2.48-1.547 2.562-1.48 2.562-1.68 2.397-1.607 2.562-2.01 2.48-1.926 2.561-1.837 2.48-2.122 2.562-2.597 2.562-2.082 2.48-2.594 2.561-2.37 2.48-2.27 2.562-1.976 2.562-2.125 2.314-2.415 2.562-2.657 2.48-2.988 2.562-2.554 2.479-2.526 2.562-2.695 2.562-2.916 2.48-2.295 2.562-3.184 2.48-2.985 2.561-2.774 2.562-3.127 2.314-2.691 2.562-3.088 2.48-2.825 2.562-2.956 2.48-4.27 2.561-3.317 2.563-3.28 2.479-3.06 2.562-3.856 2.48-2.916 2.561-3.423 2.563-4.121 2.314-3.39 2.562-4.032 2.48-3.654 2.561-4.004 2.48-3.273 2.562-3.514 2.562-3.144 2.48-3.062 2.561-3.033 2.48-2.52 2.562-2.387 2.562-2.216 2.397-2.107 2.562-2.216 2.48-2.603 2.561-3.252 2.48-2.606 2.562-2.803 2.562-3.565 2.48-2.461 2.561-2.056 2.48-3.443 2.562-2.63 2.562-2.662 2.314-2.182 2.562-2.671 2.48-2.466 2.562-3.05 2.48-2.974 2.561-2.432 2.562-2.39 2.48-2.4 2.562-2.635 2.48-2.816" clip-path="url(#p1b3c1bd638)" style="fill:none;stroke:#ff7f0e;stroke-width:1.5;stroke-linecap:square" id="line2d_31"/><path d="m243.863 280.087 2.562-12.7 2.563-1.95 2.314-1.646 2.562-1.65 2.48-1.35 2.561-1.458 2.48-1.375 2.562-1.769 2.562-2.158 2.48-1.9 2.561-1.697 2.48-2.1 2.562-2.15 2.562-1.862 2.397-1.871 2.562-2.316 2.48-1.925 2.561-2.15 2.48-2.008 2.562-2.153 2.562-2.492 2.48-2.42 2.561-2.675 2.48-2.136 2.562-2.102 2.562-2.77 2.314-3.105 2.562-2.76 2.48-2.78 2.562-2.714 2.479-2.512 2.562-3.084 2.562-2.865 2.48-2.728 2.562-3.418 2.48-3.121 2.561-2.96 2.562-3.343 2.314-3.286 2.562-3.717 2.48-3.56 2.562-3.523 2.48-3.662 2.561-4.016 2.563-3.93 2.479-3.535 2.562-3.278 2.48-3.881 2.561-3.857 2.563-3.873 2.314-3.383 2.562-4.75 2.48-5.44 2.561-4.352 2.48-3.654 2.562-4.095 2.562-3.82 2.48-3.57 2.561-3.763 2.48-3.25 2.562-3.272 2.562-3.116 2.397-2.919 2.562-3.696 2.48-3.711 2.561-3.577 2.48-3.165 2.562-3.22 2.562-3.39 2.48-3.18 2.561-3.236 2.48-3.816 2.562-3.327 2.562-3.4 2.314-4.067 2.562-3.83 2.48-3.572 2.562-3.913 2.48-3.39 2.561-3.26 2.562-3.478 2.48-3.451 2.562-4.489 2.48-3.27" clip-path="url(#p1b3c1bd638)" style="fill:none;stroke:#1f77b4;stroke-width:1.5;stroke-linecap:square" id="line2d_32"/></g></g><defs><clipPath id="p1b3c1bd638"><path d="M98.073 13.975h357.12v266.112H98.073z"/></clipPath></defs></svg>