<?xml version="1.0" encoding="utf-8" standalone="no"?>
<!DOCTYPE svg PUBLIC "-//W3C//DTD SVG 1.1//EN"
  "http://www.w3.org/Graphics/SVG/1.1/DTD/svg11.dtd">
<svg xmlns:xlink="http://www.w3.org/1999/xlink" width="569.201413pt" height="324.768375pt" viewBox="0 0 569.201413 324.768375" xmlns="http://www.w3.org/2000/svg" version="1.1">
 <metadata>
  <rdf:RDF xmlns:dc="http://purl.org/dc/elements/1.1/" xmlns:cc="http://creativecommons.org/ns#" xmlns:rdf="http://www.w3.org/1999/02/22-rdf-syntax-ns#">
   <cc:Work>
    <dc:type rdf:resource="http://purl.org/dc/dcmitype/StillImage"/>
    <dc:date>2022-01-21T10:56:15.112989</dc:date>
    <dc:format>image/svg+xml</dc:format>
    <dc:creator>
     <cc:Agent>
      <dc:title>Matplotlib v3.5.1, https://matplotlib.org/</dc:title>
     </cc:Agent>
    </dc:creator>
   </cc:Work>
  </rdf:RDF>
 </metadata>
 <defs>
  <style type="text/css">*{stroke-linejoin: round; stroke-linecap: butt}</style>
 </defs>
 <g id="figure_1">
  <g id="patch_1">
   <path d="M 0 324.768375 
L 569.201413 324.768375 
L 569.201413 0 
L 0 0 
L 0 324.768375 
z
" style="fill: none"/>
  </g>
  <g id="axes_1">
   <g id="patch_2">
    <path d="M 82.47625 281.241175 
L 439.59625 281.241175 
L 439.59625 15.129175 
L 82.47625 15.129175 
L 82.47625 281.241175 
z
" style="fill: none"/>
   </g>
   <g id="matplotlib.axis_1">
    <g id="xtick_1">
     <g id="line2d_1">
      <defs>
       <path id="maf004c4722" d="M 0 0 
L 0 3.5 
" style="stroke: #b0b0b0; stroke-width: 0.4"/>
      </defs>
      <g>
       <use xlink:href="#maf004c4722" x="120.645555" y="281.241175" style="fill: #b0b0b0; stroke: #b0b0b0; stroke-width: 0.4"/>
      </g>
     </g>
     <g id="text_1">
      <!-- 2015 -->
      <g style="fill: #b0b0b0" transform="translate(106.28243 298.181175)scale(0.14 -0.14)">
       <defs>
        <path id="MyriadPro-Regular-32" d="M 2944 0 
L 2944 467 
L 1075 467 
L 1075 480 
L 1408 787 
C 2285 1632 2842 2253 2842 3021 
C 2842 3616 2464 4230 1568 4230 
C 1088 4230 678 4051 390 3808 
L 570 3411 
C 762 3571 1075 3763 1453 3763 
C 2074 3763 2278 3373 2278 2950 
C 2272 2323 1792 1786 730 774 
L 288 346 
L 288 0 
L 2944 0 
z
" transform="scale(0.015625)"/>
        <path id="MyriadPro-Regular-30" d="M 1677 4230 
C 832 4230 230 3462 230 2067 
C 243 691 794 -70 1606 -70 
C 2528 -70 3053 710 3053 2125 
C 3053 3450 2554 4230 1677 4230 
z
M 1645 3795 
C 2227 3795 2490 3123 2490 2099 
C 2490 1037 2214 365 1638 365 
C 1126 365 794 979 794 2061 
C 794 3194 1152 3795 1645 3795 
z
" transform="scale(0.015625)"/>
        <path id="MyriadPro-Regular-31" d="M 1510 0 
L 2054 0 
L 2054 4160 
L 1574 4160 
L 666 3674 
L 774 3245 
L 1498 3635 
L 1510 3635 
L 1510 0 
z
" transform="scale(0.015625)"/>
        <path id="MyriadPro-Regular-35" d="M 2771 4160 
L 781 4160 
L 512 2163 
C 666 2182 851 2208 1088 2208 
C 1920 2208 2278 1824 2285 1286 
C 2285 730 1830 384 1299 384 
C 922 384 582 512 410 614 
L 269 186 
C 467 58 851 -70 1306 -70 
C 2208 -70 2854 538 2854 1350 
C 2854 1875 2586 2234 2259 2419 
C 2003 2573 1683 2643 1363 2643 
C 1210 2643 1120 2630 1024 2618 
L 1184 3686 
L 2771 3686 
L 2771 4160 
z
" transform="scale(0.015625)"/>
       </defs>
       <use xlink:href="#MyriadPro-Regular-32"/>
       <use xlink:href="#MyriadPro-Regular-30" x="51.299988"/>
       <use xlink:href="#MyriadPro-Regular-31" x="102.599976"/>
       <use xlink:href="#MyriadPro-Regular-35" x="153.899963"/>
      </g>
     </g>
    </g>
    <g id="xtick_2">
     <g id="line2d_2">
      <g>
       <use xlink:href="#maf004c4722" x="166.174301" y="281.241175" style="fill: #b0b0b0; stroke: #b0b0b0; stroke-width: 0.4"/>
      </g>
     </g>
     <g id="text_2">
      <!-- 2016 -->
      <g style="fill: #b0b0b0" transform="translate(151.811176 298.181175)scale(0.14 -0.14)">
       <defs>
        <path id="MyriadPro-Regular-36" d="M 2662 4224 
C 2560 4224 2419 4218 2253 4192 
C 1728 4128 1267 3917 922 3578 
C 512 3168 218 2522 218 1702 
C 218 621 800 -70 1690 -70 
C 2554 -70 3072 634 3072 1395 
C 3072 2208 2554 2739 1818 2739 
C 1357 2739 1011 2522 813 2259 
L 794 2259 
C 890 2944 1357 3590 2240 3738 
C 2400 3763 2547 3770 2662 3763 
L 2662 4224 
z
M 1690 365 
C 1101 365 787 870 774 1555 
C 774 1658 800 1741 838 1805 
C 992 2106 1306 2317 1645 2317 
C 2163 2317 2502 1958 2502 1363 
C 2502 768 2176 365 1696 365 
L 1690 365 
z
" transform="scale(0.015625)"/>
       </defs>
       <use xlink:href="#MyriadPro-Regular-32"/>
       <use xlink:href="#MyriadPro-Regular-30" x="51.299988"/>
       <use xlink:href="#MyriadPro-Regular-31" x="102.599976"/>
       <use xlink:href="#MyriadPro-Regular-36" x="153.899963"/>
      </g>
     </g>
    </g>
    <g id="xtick_3">
     <g id="line2d_3">
      <g>
       <use xlink:href="#maf004c4722" x="211.827783" y="281.241175" style="fill: #b0b0b0; stroke: #b0b0b0; stroke-width: 0.4"/>
      </g>
     </g>
     <g id="text_3">
      <!-- 2017 -->
      <g style="fill: #b0b0b0" transform="translate(197.464658 298.181175)scale(0.14 -0.14)">
       <defs>
        <path id="MyriadPro-Regular-37" d="M 365 4160 
L 365 3693 
L 2400 3693 
L 2400 3680 
L 595 0 
L 1178 0 
L 2989 3789 
L 2989 4160 
L 365 4160 
z
" transform="scale(0.015625)"/>
       </defs>
       <use xlink:href="#MyriadPro-Regular-32"/>
       <use xlink:href="#MyriadPro-Regular-30" x="51.299988"/>
       <use xlink:href="#MyriadPro-Regular-31" x="102.599976"/>
       <use xlink:href="#MyriadPro-Regular-37" x="153.899963"/>
      </g>
     </g>
    </g>
    <g id="xtick_4">
     <g id="line2d_4">
      <g>
       <use xlink:href="#maf004c4722" x="257.356529" y="281.241175" style="fill: #b0b0b0; stroke: #b0b0b0; stroke-width: 0.4"/>
      </g>
     </g>
     <g id="text_4">
      <!-- 2018 -->
      <g style="fill: #b0b0b0" transform="translate(242.993404 298.181175)scale(0.14 -0.14)">
       <defs>
        <path id="MyriadPro-Regular-38" d="M 1062 2170 
C 550 1952 237 1581 237 1056 
C 237 448 762 -70 1632 -70 
C 2426 -70 3046 416 3046 1139 
C 3046 1645 2726 2010 2208 2214 
L 2208 2234 
C 2720 2477 2893 2854 2893 3206 
C 2893 3725 2490 4230 1683 4230 
C 954 4230 397 3782 397 3123 
C 397 2765 595 2406 1056 2189 
L 1062 2170 
z
M 1645 339 
C 1114 339 794 710 813 1133 
C 813 1530 1075 1850 1562 1990 
C 2125 1830 2477 1587 2477 1082 
C 2477 659 2150 339 1645 339 
z
M 1651 3827 
C 2157 3827 2355 3482 2355 3149 
C 2355 2771 2080 2515 1722 2394 
C 1242 2522 928 2746 928 3162 
C 928 3520 1184 3827 1651 3827 
z
" transform="scale(0.015625)"/>
       </defs>
       <use xlink:href="#MyriadPro-Regular-32"/>
       <use xlink:href="#MyriadPro-Regular-30" x="51.299988"/>
       <use xlink:href="#MyriadPro-Regular-31" x="102.599976"/>
       <use xlink:href="#MyriadPro-Regular-38" x="153.899963"/>
      </g>
     </g>
    </g>
    <g id="xtick_5">
     <g id="line2d_5">
      <g>
       <use xlink:href="#maf004c4722" x="302.885275" y="281.241175" style="fill: #b0b0b0; stroke: #b0b0b0; stroke-width: 0.4"/>
      </g>
     </g>
     <g id="text_5">
      <!-- 2019 -->
      <g style="fill: #b0b0b0" transform="translate(288.52215 298.181175)scale(0.14 -0.14)">
       <defs>
        <path id="MyriadPro-Regular-39" d="M 614 -64 
C 749 -70 928 -64 1133 -32 
C 1581 19 2022 211 2342 525 
C 2752 922 3059 1562 3059 2477 
C 3059 3539 2534 4230 1683 4230 
C 832 4230 262 3539 262 2752 
C 262 2042 742 1478 1491 1478 
C 1907 1478 2240 1645 2470 1926 
L 2490 1926 
C 2413 1434 2214 1069 1939 819 
C 1702 595 1395 461 1069 416 
C 877 397 736 384 614 397 
L 614 -64 
z
M 1638 3802 
C 2227 3802 2490 3258 2490 2547 
C 2490 2458 2470 2394 2438 2342 
C 2291 2093 1997 1907 1619 1907 
C 1133 1907 819 2272 819 2790 
C 819 3379 1158 3802 1632 3802 
L 1638 3802 
z
" transform="scale(0.015625)"/>
       </defs>
       <use xlink:href="#MyriadPro-Regular-32"/>
       <use xlink:href="#MyriadPro-Regular-30" x="51.299988"/>
       <use xlink:href="#MyriadPro-Regular-31" x="102.599976"/>
       <use xlink:href="#MyriadPro-Regular-39" x="153.899963"/>
      </g>
     </g>
    </g>
    <g id="xtick_6">
     <g id="line2d_6">
      <g>
       <use xlink:href="#maf004c4722" x="348.414022" y="281.241175" style="fill: #b0b0b0; stroke: #b0b0b0; stroke-width: 0.4"/>
      </g>
     </g>
     <g id="text_6">
      <!-- 2020 -->
      <g style="fill: #b0b0b0" transform="translate(334.050897 298.181175)scale(0.14 -0.14)">
       <use xlink:href="#MyriadPro-Regular-32"/>
       <use xlink:href="#MyriadPro-Regular-30" x="51.299988"/>
       <use xlink:href="#MyriadPro-Regular-32" x="102.599976"/>
       <use xlink:href="#MyriadPro-Regular-30" x="153.899963"/>
      </g>
     </g>
    </g>
    <g id="xtick_7">
     <g id="line2d_7">
      <g>
       <use xlink:href="#maf004c4722" x="394.067504" y="281.241175" style="fill: #b0b0b0; stroke: #b0b0b0; stroke-width: 0.4"/>
      </g>
     </g>
     <g id="text_7">
      <!-- 2021 -->
      <g style="fill: #b0b0b0" transform="translate(379.704379 298.181175)scale(0.14 -0.14)">
       <use xlink:href="#MyriadPro-Regular-32"/>
       <use xlink:href="#MyriadPro-Regular-30" x="51.299988"/>
       <use xlink:href="#MyriadPro-Regular-32" x="102.599976"/>
       <use xlink:href="#MyriadPro-Regular-31" x="153.899963"/>
      </g>
     </g>
    </g>
    <g id="xtick_8">
     <g id="line2d_8">
      <g>
       <use xlink:href="#maf004c4722" x="439.59625" y="281.241175" style="fill: #b0b0b0; stroke: #b0b0b0; stroke-width: 0.4"/>
      </g>
     </g>
     <g id="text_8">
      <!-- 2022 -->
      <g style="fill: #b0b0b0" transform="translate(425.233125 298.181175)scale(0.14 -0.14)">
       <use xlink:href="#MyriadPro-Regular-32"/>
       <use xlink:href="#MyriadPro-Regular-30" x="51.299988"/>
       <use xlink:href="#MyriadPro-Regular-32" x="102.599976"/>
       <use xlink:href="#MyriadPro-Regular-32" x="153.899963"/>
      </g>
     </g>
    </g>
   </g>
   <g id="matplotlib.axis_2">
    <g id="ytick_1">
     <g id="line2d_9">
      <path d="M 82.47625 281.241175 
L 439.59625 281.241175 
" clip-path="url(#p0ff36f5251)" style="fill: none; stroke: #b0b0b0; stroke-width: 0.3; stroke-linecap: square"/>
     </g>
     <g id="line2d_10">
      <defs>
       <path id="m55180ba473" d="M 0 0 
L -3.5 0 
" style="stroke: #b0b0b0; stroke-width: 0.3"/>
      </defs>
      <g>
       <use xlink:href="#m55180ba473" x="82.47625" y="281.241175" style="fill: #b0b0b0; stroke: #b0b0b0; stroke-width: 0.3"/>
      </g>
     </g>
     <g id="text_9">
      <!-- 0 -->
      <g style="fill: #b0b0b0" transform="translate(68.294687 286.211175)scale(0.14 -0.14)">
       <use xlink:href="#MyriadPro-Regular-30"/>
      </g>
     </g>
    </g>
    <g id="ytick_2">
     <g id="line2d_11">
      <path d="M 82.47625 222.561572 
L 439.59625 222.561572 
" clip-path="url(#p0ff36f5251)" style="fill: none; stroke: #b0b0b0; stroke-width: 0.3; stroke-linecap: square"/>
     </g>
     <g id="line2d_12">
      <g>
       <use xlink:href="#m55180ba473" x="82.47625" y="222.561572" style="fill: #b0b0b0; stroke: #b0b0b0; stroke-width: 0.3"/>
      </g>
     </g>
     <g id="text_10">
      <!-- 1000 -->
      <g style="fill: #b0b0b0" transform="translate(46.75 227.531572)scale(0.14 -0.14)">
       <use xlink:href="#MyriadPro-Regular-31"/>
       <use xlink:href="#MyriadPro-Regular-30" x="51.299988"/>
       <use xlink:href="#MyriadPro-Regular-30" x="102.599976"/>
       <use xlink:href="#MyriadPro-Regular-30" x="153.899963"/>
      </g>
     </g>
    </g>
    <g id="ytick_3">
     <g id="line2d_13">
      <path d="M 82.47625 163.881969 
L 439.59625 163.881969 
" clip-path="url(#p0ff36f5251)" style="fill: none; stroke: #b0b0b0; stroke-width: 0.3; stroke-linecap: square"/>
     </g>
     <g id="line2d_14">
      <g>
       <use xlink:href="#m55180ba473" x="82.47625" y="163.881969" style="fill: #b0b0b0; stroke: #b0b0b0; stroke-width: 0.3"/>
      </g>
     </g>
     <g id="text_11">
      <!-- 2000 -->
      <g style="fill: #b0b0b0" transform="translate(46.75 168.851969)scale(0.14 -0.14)">
       <use xlink:href="#MyriadPro-Regular-32"/>
       <use xlink:href="#MyriadPro-Regular-30" x="51.299988"/>
       <use xlink:href="#MyriadPro-Regular-30" x="102.599976"/>
       <use xlink:href="#MyriadPro-Regular-30" x="153.899963"/>
      </g>
     </g>
    </g>
    <g id="ytick_4">
     <g id="line2d_15">
      <path d="M 82.47625 105.202366 
L 439.59625 105.202366 
" clip-path="url(#p0ff36f5251)" style="fill: none; stroke: #b0b0b0; stroke-width: 0.3; stroke-linecap: square"/>
     </g>
     <g id="line2d_16">
      <g>
       <use xlink:href="#m55180ba473" x="82.47625" y="105.202366" style="fill: #b0b0b0; stroke: #b0b0b0; stroke-width: 0.3"/>
      </g>
     </g>
     <g id="text_12">
      <!-- 3000 -->
      <g style="fill: #b0b0b0" transform="translate(46.75 110.172366)scale(0.14 -0.14)">
       <defs>
        <path id="MyriadPro-Regular-33" d="M 269 211 
C 474 77 883 -70 1350 -70 
C 2349 -70 2867 512 2867 1178 
C 2867 1760 2451 2144 1939 2246 
L 1939 2259 
C 2451 2445 2707 2810 2707 3238 
C 2707 3744 2336 4230 1517 4230 
C 1069 4230 646 4070 429 3910 
L 576 3501 
C 755 3629 1075 3776 1408 3776 
C 1926 3776 2138 3482 2138 3149 
C 2138 2656 1619 2445 1210 2445 
L 896 2445 
L 896 2022 
L 1210 2022 
C 1754 2022 2278 1773 2285 1190 
C 2291 845 2067 384 1344 384 
C 954 384 582 544 422 646 
L 269 211 
z
" transform="scale(0.015625)"/>
       </defs>
       <use xlink:href="#MyriadPro-Regular-33"/>
       <use xlink:href="#MyriadPro-Regular-30" x="51.299988"/>
       <use xlink:href="#MyriadPro-Regular-30" x="102.599976"/>
       <use xlink:href="#MyriadPro-Regular-30" x="153.899963"/>
      </g>
     </g>
    </g>
    <g id="ytick_5">
     <g id="line2d_17">
      <path d="M 82.47625 46.522762 
L 439.59625 46.522762 
" clip-path="url(#p0ff36f5251)" style="fill: none; stroke: #b0b0b0; stroke-width: 0.3; stroke-linecap: square"/>
     </g>
     <g id="line2d_18">
      <g>
       <use xlink:href="#m55180ba473" x="82.47625" y="46.522762" style="fill: #b0b0b0; stroke: #b0b0b0; stroke-width: 0.3"/>
      </g>
     </g>
     <g id="text_13">
      <!-- 4000 -->
      <g style="fill: #b0b0b0" transform="translate(46.75 51.492763)scale(0.14 -0.14)">
       <defs>
        <path id="MyriadPro-Regular-34" d="M 2560 0 
L 2560 1133 
L 3142 1133 
L 3142 1574 
L 2560 1574 
L 2560 4160 
L 1952 4160 
L 96 1504 
L 96 1133 
L 2029 1133 
L 2029 0 
L 2560 0 
z
M 666 1574 
L 666 1587 
L 1683 3002 
C 1798 3194 1901 3373 2029 3616 
L 2048 3616 
C 2035 3398 2029 3181 2029 2963 
L 2029 1574 
L 666 1574 
z
" transform="scale(0.015625)"/>
       </defs>
       <use xlink:href="#MyriadPro-Regular-34"/>
       <use xlink:href="#MyriadPro-Regular-30" x="51.299988"/>
       <use xlink:href="#MyriadPro-Regular-30" x="102.599976"/>
       <use xlink:href="#MyriadPro-Regular-30" x="153.899963"/>
      </g>
     </g>
    </g>
    <g id="text_14">
     <!-- GitHub stars -->
     <g style="fill: #b0b0b0" transform="translate(7.2 17.14)scale(0.14 -0.14)">
      <defs>
       <path id="MyriadPro-Regular-47" d="M 3770 2266 
L 2349 2266 
L 2349 1818 
L 3226 1818 
L 3226 531 
C 3098 467 2848 416 2483 416 
C 1478 416 819 1062 819 2157 
C 819 3238 1504 3891 2554 3891 
C 2989 3891 3277 3808 3507 3706 
L 3642 4160 
C 3456 4250 3066 4358 2566 4358 
C 1120 4358 237 3418 230 2131 
C 230 1459 461 883 832 525 
C 1254 122 1792 -45 2445 -45 
C 3027 -45 3520 102 3770 192 
L 3770 2266 
z
" transform="scale(0.015625)"/>
       <path id="MyriadPro-Regular-69" d="M 1030 0 
L 1030 3098 
L 467 3098 
L 467 0 
L 1030 0 
z
M 749 4320 
C 544 4320 397 4166 397 3968 
C 397 3776 538 3622 736 3622 
C 960 3622 1101 3776 1094 3968 
C 1094 4166 960 4320 749 4320 
z
" transform="scale(0.015625)"/>
       <path id="MyriadPro-Regular-74" d="M 595 3667 
L 595 3098 
L 115 3098 
L 115 2669 
L 595 2669 
L 595 979 
C 595 614 653 339 813 173 
C 947 19 1158 -70 1421 -70 
C 1638 -70 1811 -32 1920 13 
L 1894 435 
C 1811 410 1722 397 1568 397 
C 1254 397 1146 614 1146 998 
L 1146 2669 
L 1952 2669 
L 1952 3098 
L 1146 3098 
L 1146 3840 
L 595 3667 
z
" transform="scale(0.015625)"/>
       <path id="MyriadPro-Regular-48" d="M 486 4314 
L 486 0 
L 1043 0 
L 1043 2022 
L 3130 2022 
L 3130 0 
L 3693 0 
L 3693 4314 
L 3130 4314 
L 3130 2509 
L 1043 2509 
L 1043 4314 
L 486 4314 
z
" transform="scale(0.015625)"/>
       <path id="MyriadPro-Regular-75" d="M 3059 3098 
L 2496 3098 
L 2496 1197 
C 2496 1094 2477 992 2445 909 
C 2342 659 2080 397 1702 397 
C 1190 397 1011 794 1011 1382 
L 1011 3098 
L 448 3098 
L 448 1286 
C 448 198 1030 -70 1517 -70 
C 2067 -70 2394 256 2541 506 
L 2554 506 
L 2586 0 
L 3085 0 
C 3066 243 3059 525 3059 845 
L 3059 3098 
z
" transform="scale(0.015625)"/>
       <path id="MyriadPro-Regular-62" d="M 467 800 
C 467 525 454 211 442 0 
L 928 0 
L 954 512 
L 973 512 
C 1203 102 1562 -70 2010 -70 
C 2701 -70 3398 480 3398 1587 
C 3405 2528 2861 3168 2093 3168 
C 1594 3168 1235 2944 1037 2598 
L 1024 2598 
L 1024 4544 
L 467 4544 
L 467 800 
z
M 1024 1798 
C 1024 1888 1043 1965 1056 2029 
C 1171 2458 1530 2720 1914 2720 
C 2515 2720 2835 2189 2835 1568 
C 2835 858 2483 378 1894 378 
C 1485 378 1158 646 1050 1037 
C 1037 1101 1024 1171 1024 1242 
L 1024 1798 
z
" transform="scale(0.015625)"/>
       <path id="MyriadPro-Regular-20" transform="scale(0.015625)"/>
       <path id="MyriadPro-Regular-73" d="M 250 147 
C 467 19 781 -70 1120 -70 
C 1856 -70 2278 320 2278 864 
C 2278 1325 2003 1594 1466 1798 
C 1062 1952 877 2067 877 2323 
C 877 2554 1062 2746 1395 2746 
C 1683 2746 1907 2643 2029 2566 
L 2170 2976 
C 1997 3078 1722 3168 1408 3168 
C 742 3168 339 2758 339 2259 
C 339 1888 602 1581 1158 1382 
C 1574 1229 1734 1082 1734 813 
C 1734 557 1542 352 1133 352 
C 851 352 557 467 390 576 
L 250 147 
z
" transform="scale(0.015625)"/>
       <path id="MyriadPro-Regular-61" d="M 2643 1901 
C 2643 2522 2413 3168 1466 3168 
C 1075 3168 704 3059 448 2893 
L 576 2522 
C 794 2662 1094 2752 1382 2752 
C 2016 2752 2086 2291 2086 2035 
L 2086 1971 
C 890 1978 224 1568 224 819 
C 224 371 544 -70 1171 -70 
C 1613 -70 1946 147 2118 390 
L 2138 390 
L 2182 0 
L 2694 0 
C 2656 211 2643 474 2643 742 
L 2643 1901 
z
M 2099 1043 
C 2099 986 2086 922 2067 864 
C 1978 602 1722 346 1318 346 
C 1030 346 787 518 787 883 
C 787 1485 1485 1594 2099 1581 
L 2099 1043 
z
" transform="scale(0.015625)"/>
       <path id="MyriadPro-Regular-72" d="M 467 0 
L 1024 0 
L 1024 1651 
C 1024 1747 1037 1837 1050 1914 
C 1126 2336 1408 2637 1805 2637 
C 1882 2637 1939 2630 1997 2618 
L 1997 3149 
C 1946 3162 1901 3168 1837 3168 
C 1459 3168 1120 2906 979 2490 
L 954 2490 
L 934 3098 
L 442 3098 
C 461 2810 467 2496 467 2131 
L 467 0 
z
" transform="scale(0.015625)"/>
      </defs>
      <use xlink:href="#MyriadPro-Regular-47"/>
      <use xlink:href="#MyriadPro-Regular-69" x="64.599991"/>
      <use xlink:href="#MyriadPro-Regular-74" x="87.999985"/>
      <use xlink:href="#MyriadPro-Regular-48" x="121.099976"/>
      <use xlink:href="#MyriadPro-Regular-75" x="186.299973"/>
      <use xlink:href="#MyriadPro-Regular-62" x="241.399963"/>
      <use xlink:href="#MyriadPro-Regular-20" x="298.299957"/>
      <use xlink:href="#MyriadPro-Regular-73" x="319.499954"/>
      <use xlink:href="#MyriadPro-Regular-74" x="359.099945"/>
      <use xlink:href="#MyriadPro-Regular-61" x="392.199936"/>
      <use xlink:href="#MyriadPro-Regular-72" x="440.399933"/>
      <use xlink:href="#MyriadPro-Regular-73" x="473.09993"/>
     </g>
    </g>
   </g>
   <g id="line2d_19">
    <path d="M 82.47625 281.241175 
L 86.343075 281.182495 
L 90.085164 281.182495 
L 93.951989 280.830418 
L 97.694077 280.53702 
L 101.560902 280.47834 
L 105.427727 280.41966 
L 109.169816 280.302301 
L 113.036641 280.067583 
L 116.77873 279.832864 
L 120.645555 279.07003 
L 124.51238 278.424554 
L 128.004996 278.131156 
L 131.871821 277.661719 
L 135.61391 277.603039 
L 139.480735 277.48568 
L 143.222824 276.664166 
L 147.089649 276.429447 
L 150.956474 276.312088 
L 154.698562 275.842651 
L 158.565387 275.490574 
L 162.307476 275.021137 
L 166.174301 274.669059 
L 170.041126 274.375661 
L 173.658478 274.023584 
L 177.525303 272.849992 
L 181.267392 272.321875 
L 185.134217 271.500361 
L 188.876306 270.502807 
L 192.743131 270.09205 
L 196.609956 269.446575 
L 200.352045 269.094497 
L 204.21887 268.68374 
L 207.960958 268.390342 
L 211.827783 268.155623 
L 215.694608 267.744866 
L 219.187225 266.805992 
L 223.05405 266.336556 
L 226.796138 266.101837 
L 230.662963 265.808439 
L 234.405052 265.515041 
L 238.271877 265.339002 
L 242.138702 265.104284 
L 245.880791 264.869566 
L 249.747616 264.517488 
L 253.489704 263.695974 
L 257.356529 263.226537 
L 261.223354 262.7571 
L 264.715971 262.463702 
L 268.582796 261.935585 
L 272.324884 261.759547 
L 276.191709 261.583508 
L 279.933798 261.348789 
L 283.800623 261.172751 
L 287.667448 260.938032 
L 291.409537 260.644634 
L 295.276362 260.409916 
L 299.01845 260.175197 
L 302.885275 259.82312 
L 306.752101 259.471042 
L 310.244717 259.353683 
L 314.111542 258.884246 
L 317.85363 258.708207 
L 321.720455 258.649528 
L 325.462544 258.532168 
L 329.329369 258.29745 
L 333.196194 258.004052 
L 336.938283 257.710654 
L 340.805108 257.241217 
L 344.547197 257.006499 
L 348.414022 257.006499 
L 352.280847 256.654421 
L 355.898199 256.537062 
L 359.765024 256.302344 
L 363.507113 256.126305 
L 367.373938 256.008946 
L 371.116026 255.774227 
L 374.982851 255.598188 
L 378.849676 255.422149 
L 382.591765 255.30479 
L 386.45859 254.776674 
L 390.200679 254.541955 
L 394.067504 254.365917 
L 397.934329 254.131198 
L 401.426945 254.013839 
L 405.29377 254.013839 
L 409.035859 253.368363 
L 412.902684 253.133645 
L 416.644773 253.016286 
L 420.511598 252.898927 
L 424.378423 252.781567 
L 428.120511 252.664208 
L 431.987336 252.605529 
L 435.729425 252.42949 
L 439.59625 252.136092 
" clip-path="url(#p0ff36f5251)" style="fill: none; stroke: #8c564b; stroke-width: 1.5; stroke-linecap: square"/>
   </g>
   <g id="line2d_20">
    <path d="M 215.694608 281.241175 
L 219.187225 280.595699 
L 223.05405 280.41966 
L 226.796138 279.774185 
L 230.662963 278.013797 
L 234.405052 277.368321 
L 238.271877 276.840205 
L 242.138702 276.429447 
L 245.880791 275.255855 
L 249.747616 274.375661 
L 253.489704 273.495467 
L 257.356529 272.380555 
L 261.223354 271.793759 
L 264.715971 271.148283 
L 268.582796 270.678846 
L 272.324884 269.681293 
L 276.191709 269.211856 
L 279.933798 268.918458 
L 283.800623 267.803546 
L 287.667448 267.334109 
L 291.409537 266.688633 
L 295.276362 266.043158 
L 299.01845 265.515041 
L 302.885275 264.693527 
L 306.752101 263.637294 
L 310.244717 262.639741 
L 314.111542 261.466149 
L 317.85363 260.703314 
L 321.720455 258.180091 
L 325.462544 257.241217 
L 329.329369 256.478382 
L 333.196194 255.36347 
L 336.938283 254.541955 
L 340.805108 253.89648 
L 344.547197 252.840247 
L 348.414022 252.018733 
L 352.280847 251.079859 
L 355.898199 250.84514 
L 359.765024 250.258344 
L 363.507113 249.37815 
L 367.373938 248.145879 
L 371.116026 246.737568 
L 374.982851 246.033413 
L 378.849676 242.10188 
L 382.591765 240.810928 
L 386.45859 239.05054 
L 390.200679 236.05788 
L 394.067504 231.363512 
L 397.934329 230.131241 
L 401.426945 228.136134 
L 405.29377 223.207047 
L 409.035859 217.339087 
L 412.902684 214.346427 
L 416.644773 212.879437 
L 420.511598 210.825651 
L 424.378423 207.187516 
L 428.120511 204.664293 
L 431.987336 201.378235 
L 435.729425 198.092177 
L 439.59625 192.576295 
" clip-path="url(#p0ff36f5251)" style="fill: none; stroke: #9467bd; stroke-width: 1.5; stroke-linecap: square"/>
   </g>
   <g id="line2d_21">
    <path d="M 116.77873 281.241175 
L 120.645555 280.47834 
L 124.51238 278.600593 
L 128.004996 278.541913 
L 131.871821 278.424554 
L 135.61391 278.307195 
L 139.480735 278.307195 
L 143.222824 278.307195 
L 147.089649 278.248515 
L 150.956474 278.248515 
L 154.698562 277.54436 
L 158.565387 276.312088 
L 162.307476 273.554147 
L 166.174301 272.967351 
L 170.041126 271.969798 
L 173.658478 264.928245 
L 177.525303 261.23143 
L 181.267392 260.468595 
L 185.134217 258.23877 
L 188.876306 256.478382 
L 192.743131 255.422149 
L 196.609956 254.776674 
L 200.352045 254.013839 
L 204.21887 252.37081 
L 207.960958 251.784014 
L 211.827783 250.90382 
L 215.694608 248.791354 
L 219.187225 246.561529 
L 223.05405 245.681335 
L 226.796138 244.390384 
L 230.662963 243.099433 
L 234.405052 242.219239 
L 238.271877 240.869608 
L 242.138702 239.872055 
L 245.880791 238.874501 
L 249.747616 238.052987 
L 253.489704 236.762036 
L 257.356529 234.766929 
L 261.223354 232.713143 
L 264.715971 231.65691 
L 268.582796 230.424639 
L 272.324884 229.485765 
L 276.191709 228.312173 
L 279.933798 226.493105 
L 283.800623 225.319513 
L 287.667448 223.500445 
L 291.409537 222.268174 
L 295.276362 221.27062 
L 299.01845 219.510232 
L 302.885275 217.515126 
L 306.752101 215.696058 
L 310.244717 213.348874 
L 314.111542 211.823204 
L 317.85363 211.06037 
L 321.720455 210.004137 
L 325.462544 203.138623 
L 329.329369 201.965031 
L 333.196194 200.380682 
L 336.938283 198.913692 
L 340.805108 197.388022 
L 344.547197 196.390469 
L 348.414022 194.395362 
L 352.280847 192.869693 
L 355.898199 191.75478 
L 359.765024 190.874586 
L 363.507113 189.055518 
L 367.373938 187.705888 
L 371.116026 183.950393 
L 374.982851 182.659442 
L 378.849676 180.781694 
L 382.591765 179.138665 
L 386.45859 177.495637 
L 390.200679 175.735248 
L 394.067504 174.150899 
L 397.934329 172.214472 
L 401.426945 170.864841 
L 405.29377 168.693696 
L 409.035859 166.229153 
L 412.902684 163.940648 
L 416.644773 161.534785 
L 420.511598 160.009115 
L 424.378423 158.894202 
L 428.120511 157.83797 
L 431.987336 156.547018 
L 435.729425 155.490785 
L 439.59625 153.965116 
" clip-path="url(#p0ff36f5251)" style="fill: none; stroke: #d62728; stroke-width: 1.5; stroke-linecap: square"/>
   </g>
   <g id="text_15">
    <!-- btford/write-good -->
    <g style="fill: #1f77b4" transform="translate(450.30985 18.7123)scale(0.14 -0.14)">
     <defs>
      <path id="MyriadPro-Regular-66" d="M 1082 0 
L 1082 2669 
L 1830 2669 
L 1830 3098 
L 1082 3098 
L 1082 3264 
C 1082 3738 1203 4160 1683 4160 
C 1843 4160 1958 4128 2042 4090 
L 2118 4525 
C 2010 4570 1837 4614 1638 4614 
C 1376 4614 1094 4531 883 4326 
C 621 4077 525 3680 525 3245 
L 525 3098 
L 90 3098 
L 90 2669 
L 525 2669 
L 525 0 
L 1082 0 
z
" transform="scale(0.015625)"/>
      <path id="MyriadPro-Regular-6f" d="M 1779 3168 
C 922 3168 243 2560 243 1523 
C 243 544 890 -70 1728 -70 
C 2477 -70 3270 429 3270 1574 
C 3270 2522 2669 3168 1779 3168 
z
M 1766 2746 
C 2432 2746 2694 2080 2694 1555 
C 2694 858 2291 352 1754 352 
C 1203 352 813 864 813 1542 
C 813 2131 1101 2746 1766 2746 
z
" transform="scale(0.015625)"/>
      <path id="MyriadPro-Regular-64" d="M 2579 4544 
L 2579 2694 
L 2566 2694 
C 2426 2944 2106 3168 1632 3168 
C 877 3168 237 2534 243 1504 
C 243 563 819 -70 1568 -70 
C 2074 -70 2451 192 2624 538 
L 2637 538 
L 2662 0 
L 3168 0 
C 3149 211 3142 525 3142 800 
L 3142 4544 
L 2579 4544 
z
M 2579 1299 
C 2579 1210 2573 1133 2554 1056 
C 2451 634 2106 384 1728 384 
C 1120 384 813 902 813 1530 
C 813 2214 1158 2726 1741 2726 
C 2163 2726 2470 2432 2554 2074 
C 2573 2003 2579 1907 2579 1837 
L 2579 1299 
z
" transform="scale(0.015625)"/>
      <path id="MyriadPro-Regular-2f" d="M 422 -256 
L 2214 4384 
L 1779 4384 
L -6 -256 
L 422 -256 
z
" transform="scale(0.015625)"/>
      <path id="MyriadPro-Regular-77" d="M 115 3098 
L 1050 0 
L 1562 0 
L 2061 1472 
C 2170 1805 2266 2125 2342 2496 
L 2355 2496 
C 2432 2131 2522 1824 2630 1478 
L 3104 0 
L 3616 0 
L 4614 3098 
L 4058 3098 
L 3616 1542 
C 3514 1178 3430 851 3379 538 
L 3360 538 
C 3290 851 3200 1178 3085 1549 
L 2605 3098 
L 2131 3098 
L 1626 1523 
C 1523 1184 1421 851 1350 538 
L 1331 538 
C 1274 858 1190 1178 1101 1523 
L 691 3098 
L 115 3098 
z
" transform="scale(0.015625)"/>
      <path id="MyriadPro-Regular-65" d="M 2957 1446 
C 2963 1504 2976 1594 2976 1709 
C 2976 2278 2707 3168 1696 3168 
C 794 3168 243 2432 243 1498 
C 243 563 813 -70 1766 -70 
C 2259 -70 2598 38 2797 128 
L 2701 531 
C 2490 442 2246 371 1843 371 
C 1280 371 794 685 781 1446 
L 2957 1446 
z
M 787 1850 
C 832 2240 1082 2765 1651 2765 
C 2285 2765 2438 2208 2432 1850 
L 787 1850 
z
" transform="scale(0.015625)"/>
      <path id="MyriadPro-Regular-2d" d="M 192 1939 
L 192 1523 
L 1773 1523 
L 1773 1939 
L 192 1939 
z
" transform="scale(0.015625)"/>
      <path id="MyriadPro-Regular-67" d="M 3110 2246 
C 3110 2624 3123 2874 3136 3098 
L 2643 3098 
L 2618 2630 
L 2605 2630 
C 2470 2886 2176 3168 1638 3168 
C 928 3168 243 2573 243 1523 
C 243 666 794 13 1562 13 
C 2042 13 2374 243 2547 531 
L 2560 531 
L 2560 186 
C 2560 -595 2138 -896 1562 -896 
C 1178 -896 858 -781 653 -653 
L 512 -1082 
C 762 -1248 1171 -1338 1542 -1338 
C 1933 -1338 2368 -1248 2669 -966 
C 2970 -698 3110 -262 3110 448 
L 3110 2246 
z
M 2554 1318 
C 2554 1222 2541 1114 2509 1018 
C 2387 659 2074 442 1728 442 
C 1120 442 813 947 813 1555 
C 813 2272 1197 2726 1734 2726 
C 2144 2726 2419 2458 2522 2131 
C 2547 2054 2554 1971 2554 1875 
L 2554 1318 
z
" transform="scale(0.015625)"/>
     </defs>
     <use xlink:href="#MyriadPro-Regular-62"/>
     <use xlink:href="#MyriadPro-Regular-74" x="56.899994"/>
     <use xlink:href="#MyriadPro-Regular-66" x="89.999985"/>
     <use xlink:href="#MyriadPro-Regular-6f" x="119.199982"/>
     <use xlink:href="#MyriadPro-Regular-72" x="174.099976"/>
     <use xlink:href="#MyriadPro-Regular-64" x="206.799973"/>
     <use xlink:href="#MyriadPro-Regular-2f" x="263.199966"/>
     <use xlink:href="#MyriadPro-Regular-77" x="297.499954"/>
     <use xlink:href="#MyriadPro-Regular-72" x="371.099945"/>
     <use xlink:href="#MyriadPro-Regular-69" x="403.799942"/>
     <use xlink:href="#MyriadPro-Regular-74" x="427.199936"/>
     <use xlink:href="#MyriadPro-Regular-65" x="460.299927"/>
     <use xlink:href="#MyriadPro-Regular-2d" x="510.399918"/>
     <use xlink:href="#MyriadPro-Regular-67" x="541.099915"/>
     <use xlink:href="#MyriadPro-Regular-6f" x="596.999908"/>
     <use xlink:href="#MyriadPro-Regular-6f" x="651.899902"/>
     <use xlink:href="#MyriadPro-Regular-64" x="706.799896"/>
    </g>
   </g>
   <g id="text_16">
    <!-- get-alex/alex -->
    <g style="fill: #ff7f0e" transform="translate(450.30985 40.816627)scale(0.14 -0.14)">
     <defs>
      <path id="MyriadPro-Regular-6c" d="M 467 0 
L 1030 0 
L 1030 4544 
L 467 4544 
L 467 0 
z
" transform="scale(0.015625)"/>
      <path id="MyriadPro-Regular-78" d="M 102 3098 
L 1152 1581 
L 51 0 
L 672 0 
L 1120 698 
C 1235 883 1344 1043 1446 1235 
L 1459 1235 
C 1568 1050 1670 877 1792 698 
L 2246 0 
L 2886 0 
L 1798 1600 
L 2854 3098 
L 2246 3098 
L 1811 2438 
C 1709 2272 1606 2112 1504 1926 
L 1485 1926 
C 1382 2099 1286 2259 1171 2432 
L 730 3098 
L 102 3098 
z
" transform="scale(0.015625)"/>
     </defs>
     <use xlink:href="#MyriadPro-Regular-67"/>
     <use xlink:href="#MyriadPro-Regular-65" x="55.899994"/>
     <use xlink:href="#MyriadPro-Regular-74" x="105.999985"/>
     <use xlink:href="#MyriadPro-Regular-2d" x="139.099976"/>
     <use xlink:href="#MyriadPro-Regular-61" x="169.799973"/>
     <use xlink:href="#MyriadPro-Regular-6c" x="217.999969"/>
     <use xlink:href="#MyriadPro-Regular-65" x="241.59996"/>
     <use xlink:href="#MyriadPro-Regular-78" x="291.699951"/>
     <use xlink:href="#MyriadPro-Regular-2f" x="337.999939"/>
     <use xlink:href="#MyriadPro-Regular-61" x="372.299927"/>
     <use xlink:href="#MyriadPro-Regular-6c" x="420.499924"/>
     <use xlink:href="#MyriadPro-Regular-65" x="444.099915"/>
     <use xlink:href="#MyriadPro-Regular-78" x="494.199905"/>
    </g>
   </g>
   <g id="text_17">
    <!-- amperser/proselint -->
    <g style="fill: #2ca02c" transform="translate(450.30985 58.498164)scale(0.14 -0.14)">
     <defs>
      <path id="MyriadPro-Regular-6d" d="M 467 0 
L 1018 0 
L 1018 1869 
C 1018 1965 1030 2061 1062 2144 
C 1152 2426 1408 2707 1760 2707 
C 2189 2707 2406 2349 2406 1856 
L 2406 0 
L 2957 0 
L 2957 1914 
C 2957 2016 2976 2118 3002 2195 
C 3098 2470 3347 2707 3667 2707 
C 4122 2707 4339 2349 4339 1754 
L 4339 0 
L 4890 0 
L 4890 1824 
C 4890 2899 4282 3168 3872 3168 
C 3578 3168 3373 3091 3187 2950 
C 3059 2854 2938 2720 2842 2547 
L 2829 2547 
C 2694 2912 2374 3168 1952 3168 
C 1440 3168 1152 2893 979 2598 
L 960 2598 
L 934 3098 
L 442 3098 
C 461 2842 467 2579 467 2259 
L 467 0 
z
" transform="scale(0.015625)"/>
      <path id="MyriadPro-Regular-70" d="M 467 -1267 
L 1024 -1267 
L 1024 416 
L 1037 416 
C 1222 109 1581 -70 1990 -70 
C 2720 -70 3398 480 3398 1594 
C 3398 2534 2835 3168 2086 3168 
C 1581 3168 1216 2944 986 2566 
L 973 2566 
L 947 3098 
L 442 3098 
C 454 2803 467 2483 467 2086 
L 467 -1267 
z
M 1024 1792 
C 1024 1869 1043 1952 1062 2022 
C 1171 2445 1530 2720 1914 2720 
C 2509 2720 2835 2189 2835 1568 
C 2835 858 2490 371 1894 371 
C 1491 371 1152 640 1050 1030 
C 1037 1101 1024 1178 1024 1261 
L 1024 1792 
z
" transform="scale(0.015625)"/>
      <path id="MyriadPro-Regular-6e" d="M 467 0 
L 1030 0 
L 1030 1862 
C 1030 1958 1043 2054 1069 2125 
C 1165 2438 1453 2701 1824 2701 
C 2355 2701 2541 2285 2541 1786 
L 2541 0 
L 3104 0 
L 3104 1850 
C 3104 2912 2438 3168 2010 3168 
C 1498 3168 1139 2880 986 2586 
L 973 2586 
L 941 3098 
L 442 3098 
C 461 2842 467 2579 467 2259 
L 467 0 
z
" transform="scale(0.015625)"/>
     </defs>
     <use xlink:href="#MyriadPro-Regular-61"/>
     <use xlink:href="#MyriadPro-Regular-6d" x="48.199997"/>
     <use xlink:href="#MyriadPro-Regular-70" x="131.599991"/>
     <use xlink:href="#MyriadPro-Regular-65" x="188.499985"/>
     <use xlink:href="#MyriadPro-Regular-72" x="238.599976"/>
     <use xlink:href="#MyriadPro-Regular-73" x="271.299973"/>
     <use xlink:href="#MyriadPro-Regular-65" x="310.899963"/>
     <use xlink:href="#MyriadPro-Regular-72" x="360.999954"/>
     <use xlink:href="#MyriadPro-Regular-2f" x="393.699951"/>
     <use xlink:href="#MyriadPro-Regular-70" x="427.999939"/>
     <use xlink:href="#MyriadPro-Regular-72" x="484.899933"/>
     <use xlink:href="#MyriadPro-Regular-6f" x="517.59993"/>
     <use xlink:href="#MyriadPro-Regular-73" x="572.499924"/>
     <use xlink:href="#MyriadPro-Regular-65" x="612.099915"/>
     <use xlink:href="#MyriadPro-Regular-6c" x="662.199905"/>
     <use xlink:href="#MyriadPro-Regular-69" x="685.799896"/>
     <use xlink:href="#MyriadPro-Regular-6e" x="709.19989"/>
     <use xlink:href="#MyriadPro-Regular-74" x="764.699875"/>
    </g>
   </g>
   <g id="text_18">
    <!-- textlint/textlint -->
    <g style="fill: #d62728" transform="translate(450.30985 157.549335)scale(0.14 -0.14)">
     <use xlink:href="#MyriadPro-Regular-74"/>
     <use xlink:href="#MyriadPro-Regular-65" x="33.099991"/>
     <use xlink:href="#MyriadPro-Regular-78" x="83.199982"/>
     <use xlink:href="#MyriadPro-Regular-74" x="129.499969"/>
     <use xlink:href="#MyriadPro-Regular-6c" x="162.59996"/>
     <use xlink:href="#MyriadPro-Regular-69" x="186.199951"/>
     <use xlink:href="#MyriadPro-Regular-6e" x="209.599945"/>
     <use xlink:href="#MyriadPro-Regular-74" x="265.09993"/>
     <use xlink:href="#MyriadPro-Regular-2f" x="298.199921"/>
     <use xlink:href="#MyriadPro-Regular-74" x="332.499908"/>
     <use xlink:href="#MyriadPro-Regular-65" x="365.599899"/>
     <use xlink:href="#MyriadPro-Regular-78" x="415.69989"/>
     <use xlink:href="#MyriadPro-Regular-74" x="461.999878"/>
     <use xlink:href="#MyriadPro-Regular-6c" x="495.099869"/>
     <use xlink:href="#MyriadPro-Regular-69" x="518.69986"/>
     <use xlink:href="#MyriadPro-Regular-6e" x="542.099854"/>
     <use xlink:href="#MyriadPro-Regular-74" x="597.599838"/>
    </g>
   </g>
   <g id="text_19">
    <!-- errata-ai/vale -->
    <g style="fill: #9467bd" transform="translate(450.30985 196.160513)scale(0.14 -0.14)">
     <defs>
      <path id="MyriadPro-Regular-76" d="M 83 3098 
L 1261 0 
L 1798 0 
L 3014 3098 
L 2426 3098 
L 1824 1357 
C 1722 1075 1632 819 1562 563 
L 1542 563 
C 1478 819 1395 1075 1293 1357 
L 685 3098 
L 83 3098 
z
" transform="scale(0.015625)"/>
     </defs>
     <use xlink:href="#MyriadPro-Regular-65"/>
     <use xlink:href="#MyriadPro-Regular-72" x="50.099991"/>
     <use xlink:href="#MyriadPro-Regular-72" x="82.799988"/>
     <use xlink:href="#MyriadPro-Regular-61" x="115.499985"/>
     <use xlink:href="#MyriadPro-Regular-74" x="163.699982"/>
     <use xlink:href="#MyriadPro-Regular-61" x="196.799973"/>
     <use xlink:href="#MyriadPro-Regular-2d" x="244.999969"/>
     <use xlink:href="#MyriadPro-Regular-61" x="275.699966"/>
     <use xlink:href="#MyriadPro-Regular-69" x="323.899963"/>
     <use xlink:href="#MyriadPro-Regular-2f" x="347.299957"/>
     <use xlink:href="#MyriadPro-Regular-76" x="381.599945"/>
     <use xlink:href="#MyriadPro-Regular-61" x="429.699936"/>
     <use xlink:href="#MyriadPro-Regular-6c" x="477.899933"/>
     <use xlink:href="#MyriadPro-Regular-65" x="501.499924"/>
    </g>
   </g>
   <g id="text_20">
    <!-- redpen-cc/redpen -->
    <g style="fill: #8c564b" transform="translate(450.30985 255.72031)scale(0.14 -0.14)">
     <defs>
      <path id="MyriadPro-Regular-63" d="M 2579 538 
C 2419 467 2208 384 1888 384 
C 1274 384 813 826 813 1542 
C 813 2189 1197 2714 1907 2714 
C 2214 2714 2426 2643 2560 2566 
L 2688 3002 
C 2534 3078 2240 3162 1907 3162 
C 896 3162 243 2470 243 1517 
C 243 570 851 -70 1786 -70 
C 2202 -70 2528 38 2675 115 
L 2579 538 
z
" transform="scale(0.015625)"/>
     </defs>
     <use xlink:href="#MyriadPro-Regular-72"/>
     <use xlink:href="#MyriadPro-Regular-65" x="32.699997"/>
     <use xlink:href="#MyriadPro-Regular-64" x="82.799988"/>
     <use xlink:href="#MyriadPro-Regular-70" x="139.199982"/>
     <use xlink:href="#MyriadPro-Regular-65" x="196.099976"/>
     <use xlink:href="#MyriadPro-Regular-6e" x="246.199966"/>
     <use xlink:href="#MyriadPro-Regular-2d" x="301.699951"/>
     <use xlink:href="#MyriadPro-Regular-63" x="332.399948"/>
     <use xlink:href="#MyriadPro-Regular-63" x="377.199936"/>
     <use xlink:href="#MyriadPro-Regular-2f" x="421.999924"/>
     <use xlink:href="#MyriadPro-Regular-72" x="456.299911"/>
     <use xlink:href="#MyriadPro-Regular-65" x="488.999908"/>
     <use xlink:href="#MyriadPro-Regular-64" x="539.099899"/>
     <use xlink:href="#MyriadPro-Regular-70" x="595.499893"/>
     <use xlink:href="#MyriadPro-Regular-65" x="652.399887"/>
     <use xlink:href="#MyriadPro-Regular-6e" x="702.499878"/>
    </g>
   </g>
   <g id="text_21">
    <!-- @nschloe / gh-trends | Nico Schlömer | CC BY -->
    <g style="fill: #b0b0b0" transform="translate(82.47625 315.139375)scale(0.09716 -0.09716)">
     <defs>
      <path id="MyriadPro-Regular-40" d="M 2867 1632 
C 2797 1235 2458 762 2086 762 
C 1805 762 1664 966 1664 1248 
C 1664 1869 2118 2400 2682 2400 
C 2829 2400 2938 2374 3002 2355 
L 2867 1632 
z
M 3251 -141 
C 2989 -288 2650 -365 2285 -365 
C 1338 -365 640 301 640 1370 
C 640 2669 1517 3501 2560 3501 
C 3552 3501 4109 2829 4109 1901 
C 4109 1158 3744 723 3418 730 
C 3206 736 3130 960 3226 1446 
L 3443 2605 
C 3277 2682 3034 2739 2758 2739 
C 1869 2739 1242 2016 1242 1222 
C 1242 717 1562 416 1933 416 
C 2317 416 2611 602 2835 979 
L 2861 979 
C 2842 589 3078 416 3334 416 
C 3936 416 4474 979 4474 1939 
C 4474 3008 3725 3795 2611 3795 
C 1190 3795 275 2650 275 1331 
C 275 96 1165 -672 2214 -672 
C 2643 -672 3002 -602 3354 -416 
L 3251 -141 
z
" transform="scale(0.015625)"/>
      <path id="MyriadPro-Regular-68" d="M 467 0 
L 1030 0 
L 1030 1869 
C 1030 1978 1037 2061 1069 2138 
C 1171 2445 1459 2701 1824 2701 
C 2355 2701 2541 2278 2541 1779 
L 2541 0 
L 3104 0 
L 3104 1843 
C 3104 2912 2438 3168 2022 3168 
C 1811 3168 1613 3104 1446 3008 
C 1274 2912 1133 2771 1043 2611 
L 1030 2611 
L 1030 4544 
L 467 4544 
L 467 0 
z
" transform="scale(0.015625)"/>
      <path id="MyriadPro-Regular-7c" d="M 550 4800 
L 550 -1600 
L 979 -1600 
L 979 4800 
L 550 4800 
z
" transform="scale(0.015625)"/>
      <path id="MyriadPro-Regular-4e" d="M 1011 0 
L 1011 1843 
C 1011 2560 998 3078 966 3622 
L 986 3629 
C 1203 3162 1491 2669 1792 2189 
L 3162 0 
L 3725 0 
L 3725 4314 
L 3200 4314 
L 3200 2509 
C 3200 1837 3213 1312 3264 736 
L 3251 730 
C 3046 1171 2797 1626 2477 2131 
L 1094 4314 
L 486 4314 
L 486 0 
L 1011 0 
z
" transform="scale(0.015625)"/>
      <path id="MyriadPro-Regular-53" d="M 269 211 
C 499 58 954 -70 1370 -70 
C 2387 -70 2880 512 2880 1178 
C 2880 1811 2509 2163 1779 2445 
C 1184 2675 922 2874 922 3277 
C 922 3571 1146 3923 1734 3923 
C 2125 3923 2413 3795 2554 3718 
L 2707 4173 
C 2515 4282 2195 4384 1754 4384 
C 915 4384 358 3885 358 3213 
C 358 2605 794 2240 1498 1990 
C 2080 1766 2310 1536 2310 1133 
C 2310 698 1978 397 1408 397 
C 1024 397 659 525 410 678 
L 269 211 
z
" transform="scale(0.015625)"/>
      <path id="MyriadPro-Regular-f6" d="M 1165 3648 
C 1350 3648 1478 3802 1478 3974 
C 1478 4160 1344 4301 1165 4301 
C 986 4301 838 4154 838 3974 
C 838 3802 973 3648 1158 3648 
L 1165 3648 
z
M 2349 3648 
C 2534 3648 2662 3802 2662 3974 
C 2662 4160 2528 4301 2349 4301 
C 2170 4301 2029 4154 2029 3974 
C 2029 3802 2157 3648 2342 3648 
L 2349 3648 
z
M 1779 3168 
C 922 3168 243 2560 243 1523 
C 243 544 890 -70 1728 -70 
C 2477 -70 3270 429 3270 1574 
C 3270 2522 2669 3168 1779 3168 
z
M 1766 2746 
C 2432 2746 2694 2080 2694 1555 
C 2694 858 2291 352 1754 352 
C 1203 352 813 864 813 1542 
C 813 2131 1101 2746 1766 2746 
z
" transform="scale(0.015625)"/>
      <path id="MyriadPro-Regular-43" d="M 3386 582 
C 3162 474 2816 403 2477 403 
C 1427 403 819 1082 819 2138 
C 819 3270 1491 3917 2502 3917 
C 2861 3917 3162 3840 3373 3738 
L 3507 4192 
C 3360 4269 3021 4384 2483 4384 
C 1146 4384 230 3469 230 2118 
C 230 704 1146 -70 2362 -70 
C 2886 -70 3296 38 3501 141 
L 3386 582 
z
" transform="scale(0.015625)"/>
      <path id="MyriadPro-Regular-42" d="M 486 13 
C 672 -13 966 -38 1350 -38 
C 2054 -38 2541 90 2842 365 
C 3059 576 3206 858 3206 1229 
C 3206 1869 2726 2208 2317 2310 
L 2317 2323 
C 2771 2490 3046 2854 3046 3270 
C 3046 3610 2912 3866 2688 4032 
C 2419 4250 2061 4346 1504 4346 
C 1114 4346 730 4307 486 4256 
L 486 13 
z
M 1043 3878 
C 1133 3898 1280 3917 1536 3917 
C 2099 3917 2483 3718 2483 3213 
C 2483 2797 2138 2490 1549 2490 
L 1043 2490 
L 1043 3878 
z
M 1043 2067 
L 1504 2067 
C 2112 2067 2618 1824 2618 1235 
C 2618 608 2086 397 1510 397 
C 1312 397 1152 403 1043 422 
L 1043 2067 
z
" transform="scale(0.015625)"/>
      <path id="MyriadPro-Regular-59" d="M 2010 0 
L 2010 1837 
L 3456 4314 
L 2822 4314 
L 2202 3123 
C 2035 2797 1888 2515 1766 2234 
L 1754 2234 
C 1619 2534 1491 2797 1325 3123 
L 717 4314 
L 83 4314 
L 1446 1830 
L 1446 0 
L 2010 0 
z
" transform="scale(0.015625)"/>
     </defs>
     <use xlink:href="#MyriadPro-Regular-40"/>
     <use xlink:href="#MyriadPro-Regular-6e" x="73.699982"/>
     <use xlink:href="#MyriadPro-Regular-73" x="129.199966"/>
     <use xlink:href="#MyriadPro-Regular-63" x="168.799957"/>
     <use xlink:href="#MyriadPro-Regular-68" x="213.599945"/>
     <use xlink:href="#MyriadPro-Regular-6c" x="269.09993"/>
     <use xlink:href="#MyriadPro-Regular-6f" x="292.699921"/>
     <use xlink:href="#MyriadPro-Regular-65" x="347.599915"/>
     <use xlink:href="#MyriadPro-Regular-20" x="397.699905"/>
     <use xlink:href="#MyriadPro-Regular-2f" x="418.899902"/>
     <use xlink:href="#MyriadPro-Regular-20" x="453.19989"/>
     <use xlink:href="#MyriadPro-Regular-67" x="474.399887"/>
     <use xlink:href="#MyriadPro-Regular-68" x="530.299881"/>
     <use xlink:href="#MyriadPro-Regular-2d" x="585.799866"/>
     <use xlink:href="#MyriadPro-Regular-74" x="616.499863"/>
     <use xlink:href="#MyriadPro-Regular-72" x="649.599854"/>
     <use xlink:href="#MyriadPro-Regular-65" x="682.29985"/>
     <use xlink:href="#MyriadPro-Regular-6e" x="732.399841"/>
     <use xlink:href="#MyriadPro-Regular-64" x="787.899826"/>
     <use xlink:href="#MyriadPro-Regular-73" x="844.29982"/>
     <use xlink:href="#MyriadPro-Regular-20" x="883.899811"/>
     <use xlink:href="#MyriadPro-Regular-7c" x="905.099808"/>
     <use xlink:href="#MyriadPro-Regular-20" x="928.999802"/>
     <use xlink:href="#MyriadPro-Regular-4e" x="950.199799"/>
     <use xlink:href="#MyriadPro-Regular-69" x="1015.999786"/>
     <use xlink:href="#MyriadPro-Regular-63" x="1039.39978"/>
     <use xlink:href="#MyriadPro-Regular-6f" x="1084.199768"/>
     <use xlink:href="#MyriadPro-Regular-20" x="1139.099762"/>
     <use xlink:href="#MyriadPro-Regular-53" x="1160.299759"/>
     <use xlink:href="#MyriadPro-Regular-63" x="1209.599747"/>
     <use xlink:href="#MyriadPro-Regular-68" x="1254.399734"/>
     <use xlink:href="#MyriadPro-Regular-6c" x="1309.899719"/>
     <use xlink:href="#MyriadPro-Regular-f6" x="1333.49971"/>
     <use xlink:href="#MyriadPro-Regular-6d" x="1388.399704"/>
     <use xlink:href="#MyriadPro-Regular-65" x="1471.799698"/>
     <use xlink:href="#MyriadPro-Regular-72" x="1521.899689"/>
     <use xlink:href="#MyriadPro-Regular-20" x="1554.599686"/>
     <use xlink:href="#MyriadPro-Regular-7c" x="1575.799683"/>
     <use xlink:href="#MyriadPro-Regular-20" x="1599.699677"/>
     <use xlink:href="#MyriadPro-Regular-43" x="1620.899673"/>
     <use xlink:href="#MyriadPro-Regular-43" x="1678.899658"/>
     <use xlink:href="#MyriadPro-Regular-20" x="1736.899643"/>
     <use xlink:href="#MyriadPro-Regular-42" x="1758.09964"/>
     <use xlink:href="#MyriadPro-Regular-59" x="1812.299637"/>
    </g>
   </g>
   <g id="line2d_22">
    <path d="M 154.698562 281.241175 
L 158.565387 277.54436 
L 162.307476 277.133603 
L 166.174301 277.074923 
L 170.041126 277.016243 
L 173.658478 275.960011 
L 177.525303 180.01886 
L 181.267392 175.793928 
L 185.134217 174.268258 
L 188.876306 173.153346 
L 192.743131 169.808609 
L 196.609956 168.458978 
L 200.352045 166.463871 
L 204.21887 165.17292 
L 207.960958 163.529891 
L 211.827783 161.593464 
L 215.694608 159.422319 
L 219.187225 156.488339 
L 223.05405 153.084922 
L 226.796138 150.209621 
L 230.662963 147.803757 
L 234.405052 145.98469 
L 238.271877 145.045816 
L 242.138702 143.109389 
L 245.880791 141.52504 
L 249.747616 139.353895 
L 253.489704 136.713312 
L 257.356529 134.366128 
L 261.223354 133.075177 
L 264.715971 131.666867 
L 268.582796 129.495721 
L 272.324884 126.913819 
L 276.191709 121.750014 
L 279.933798 120.517742 
L 283.800623 118.874713 
L 287.667448 117.935839 
L 291.409537 116.644888 
L 295.276362 115.177898 
L 299.01845 113.006753 
L 302.885275 110.894287 
L 306.752101 109.662015 
L 310.244717 108.312385 
L 314.111542 106.317278 
L 317.85363 105.026327 
L 321.720455 103.207259 
L 325.462544 101.916308 
L 329.329369 100.449318 
L 333.196194 97.632697 
L 336.938283 96.869862 
L 340.805108 95.050794 
L 344.547197 93.290406 
L 348.414022 92.234173 
L 352.280847 91.471338 
L 355.898199 89.652271 
L 359.765024 88.419999 
L 363.507113 87.363766 
L 367.373938 85.955456 
L 371.116026 84.781864 
L 374.982851 82.728078 
L 378.849676 77.446913 
L 382.591765 75.451807 
L 386.45859 73.632739 
L 390.200679 72.283108 
L 394.067504 71.168196 
L 397.934329 68.234216 
L 401.426945 67.119303 
L 405.29377 66.004391 
L 409.035859 64.65476 
L 412.902684 63.774566 
L 416.644773 62.190217 
L 420.511598 60.899265 
L 424.378423 59.608314 
L 428.120511 58.258683 
L 431.987336 57.26113 
L 435.729425 56.146217 
L 439.59625 54.913946 
" clip-path="url(#p0ff36f5251)" style="fill: none; stroke: #2ca02c; stroke-width: 1.5; stroke-linecap: square"/>
   </g>
   <g id="line2d_23">
    <path d="M 147.089649 281.241175 
L 150.956474 281.182495 
L 154.698562 247.030966 
L 158.565387 244.214345 
L 162.307476 241.808482 
L 166.174301 237.58355 
L 170.041126 230.600677 
L 173.658478 226.669144 
L 177.525303 214.639825 
L 181.267392 210.825651 
L 185.134217 208.478467 
L 188.876306 205.779205 
L 192.743131 203.66674 
L 196.609956 202.08239 
L 200.352045 198.972371 
L 204.21887 197.094624 
L 207.960958 195.275556 
L 211.827783 193.339129 
L 215.694608 190.170431 
L 219.187225 187.647208 
L 223.05405 185.593422 
L 226.796138 183.187558 
L 230.662963 181.42717 
L 234.405052 178.727908 
L 238.271877 175.031093 
L 242.138702 172.155793 
L 245.880791 168.869735 
L 249.747616 166.69859 
L 253.489704 164.234046 
L 257.356529 163.353852 
L 261.223354 162.591017 
L 264.715971 158.659484 
L 268.582796 155.960222 
L 272.324884 154.434553 
L 276.191709 152.556805 
L 279.933798 151.559252 
L 283.800623 149.564146 
L 287.667448 148.097155 
L 291.409537 132.018944 
L 295.276362 123.393043 
L 299.01845 120.517742 
L 302.885275 118.757354 
L 306.752101 116.527529 
L 310.244717 115.295257 
L 314.111542 112.595996 
L 317.85363 110.072773 
L 321.720455 107.021433 
L 325.462544 105.085006 
L 329.329369 104.087453 
L 333.196194 103.148579 
L 336.938283 102.385745 
L 340.805108 97.397978 
L 344.547197 93.407765 
L 348.414022 90.767183 
L 352.280847 87.950562 
L 355.898199 84.840543 
L 359.765024 83.080155 
L 363.507113 81.495806 
L 367.373938 78.209748 
L 371.116026 73.691419 
L 374.982851 70.640079 
L 378.849676 68.410254 
L 382.591765 65.124197 
L 386.45859 61.486061 
L 390.200679 59.784353 
L 394.067504 58.258683 
L 397.934329 56.674334 
L 401.426945 54.796587 
L 405.29377 52.449402 
L 409.035859 50.806374 
L 412.902684 49.222024 
L 416.644773 47.344277 
L 420.511598 45.583889 
L 424.378423 44.116899 
L 428.120511 42.180472 
L 431.987336 40.185365 
L 435.729425 38.659696 
L 439.59625 37.310065 
" clip-path="url(#p0ff36f5251)" style="fill: none; stroke: #ff7f0e; stroke-width: 1.5; stroke-linecap: square"/>
   </g>
   <g id="line2d_24">
    <path d="M 86.343075 281.241175 
L 90.085164 277.250962 
L 93.951989 257.006499 
L 97.694077 255.128751 
L 101.560902 246.033413 
L 105.427727 240.341491 
L 109.169816 236.938075 
L 113.036641 233.1239 
L 116.77873 228.605571 
L 120.645555 224.204601 
L 124.51238 220.097028 
L 128.004996 216.458893 
L 131.871821 212.175282 
L 135.61391 208.947904 
L 139.480735 204.664293 
L 143.222824 201.906351 
L 147.089649 198.972371 
L 150.956474 196.918585 
L 154.698562 193.808566 
L 158.565387 190.815906 
L 162.307476 188.292684 
L 166.174301 185.652101 
L 170.041126 184.185111 
L 173.658478 182.424723 
L 177.525303 179.784141 
L 181.267392 177.671675 
L 185.134217 175.617889 
L 188.876306 172.977307 
L 192.743131 168.987094 
L 196.609956 167.226706 
L 200.352045 165.407638 
L 204.21887 162.414979 
L 207.960958 157.896649 
L 211.827783 151.089815 
L 215.694608 144.40034 
L 219.187225 140.586166 
L 223.05405 133.544614 
L 226.796138 128.14609 
L 230.662963 117.349043 
L 234.405052 113.300151 
L 238.271877 111.129005 
L 242.138702 109.485977 
L 245.880791 107.138792 
L 249.747616 104.61557 
L 253.489704 102.679143 
L 257.356529 100.566677 
L 261.223354 98.864968 
L 264.715971 97.456658 
L 268.582796 95.461551 
L 272.324884 93.349086 
L 276.191709 91.588698 
L 279.933798 89.886989 
L 283.800623 88.30264 
L 287.667448 85.838097 
L 291.409537 84.429786 
L 295.276362 83.021476 
L 299.01845 81.437126 
L 302.885275 79.676738 
L 306.752101 77.505593 
L 310.244717 76.332001 
L 314.111542 74.512933 
L 317.85363 71.98971 
L 321.720455 70.053283 
L 325.462544 68.234216 
L 329.329369 66.884585 
L 333.196194 65.945711 
L 336.938283 64.889478 
L 340.805108 63.598527 
L 344.547197 62.248896 
L 348.414022 60.605867 
L 352.280847 59.314916 
L 355.898199 57.613207 
L 359.765024 54.913946 
L 363.507113 53.388276 
L 367.373938 51.33449 
L 371.116026 49.339383 
L 374.982851 44.116899 
L 378.849676 41.065559 
L 382.591765 39.833288 
L 386.45859 38.835734 
L 390.200679 37.251385 
L 394.067504 35.960434 
L 397.934329 34.493444 
L 401.426945 33.143813 
L 405.29377 31.735503 
L 409.035859 28.742843 
L 412.902684 23.579038 
L 416.644773 21.75997 
L 420.511598 20.879776 
L 424.378423 19.999582 
L 428.120511 18.473912 
L 431.987336 17.30032 
L 435.729425 16.068048 
L 439.59625 15.129175 
" clip-path="url(#p0ff36f5251)" style="fill: none; stroke: #1f77b4; stroke-width: 1.5; stroke-linecap: square"/>
   </g>
  </g>
 </g>
 <defs>
  <clipPath id="p0ff36f5251">
   <rect x="82.47625" y="15.129175" width="357.12" height="266.112"/>
  </clipPath>
 </defs>
</svg>
