<?xml version="1.0" encoding="utf-8" standalone="no"?>
<!DOCTYPE svg PUBLIC "-//W3C//DTD SVG 1.1//EN"
  "http://www.w3.org/Graphics/SVG/1.1/DTD/svg11.dtd">
<svg xmlns:xlink="http://www.w3.org/1999/xlink" width="654.5861pt" height="323.613888pt" viewBox="0 0 654.5861 323.613888" xmlns="http://www.w3.org/2000/svg" version="1.1">
 <metadata>
  <rdf:RDF xmlns:dc="http://purl.org/dc/elements/1.1/" xmlns:cc="http://creativecommons.org/ns#" xmlns:rdf="http://www.w3.org/1999/02/22-rdf-syntax-ns#">
   <cc:Work>
    <dc:type rdf:resource="http://purl.org/dc/dcmitype/StillImage"/>
    <dc:date>2022-05-01T14:42:05.323716</dc:date>
    <dc:format>image/svg+xml</dc:format>
    <dc:creator>
     <cc:Agent>
      <dc:title>Matplotlib v3.5.1, https://matplotlib.org/</dc:title>
     </cc:Agent>
    </dc:creator>
   </cc:Work>
  </rdf:RDF>
 </metadata>
 <defs>
  <style type="text/css">*{stroke-linejoin: round; stroke-linecap: butt}</style>
 </defs>
 <g id="figure_1">
  <g id="patch_1">
   <path d="M 0 323.613888 
L 654.5861 323.613888 
L 654.5861 0 
L 0 0 
L 0 323.613888 
z
" style="fill: none"/>
  </g>
  <g id="axes_1">
   <g id="patch_2">
    <path d="M 98.073125 280.086688 
L 455.193125 280.086688 
L 455.193125 13.974688 
L 98.073125 13.974688 
L 98.073125 280.086688 
z
" style="fill: none"/>
   </g>
   <g id="matplotlib.axis_1">
    <g id="xtick_1">
     <g id="line2d_1">
      <defs>
       <path id="meb479f0136" d="M 0 0 
L 0 3.5 
" style="stroke: #b0b0b0; stroke-width: 0.4"/>
      </defs>
      <g>
       <use xlink:href="#meb479f0136" x="103.755003" y="280.086688" style="fill: #b0b0b0; stroke: #b0b0b0; stroke-width: 0.4"/>
      </g>
     </g>
     <g id="text_1">
      <!-- 2012 -->
      <g style="fill: #b0b0b0" transform="translate(85.940003 297.7245)scale(0.14 -0.14)">
       <defs>
        <path id="DejaVuSans-32" d="M 1228 531 
L 3431 531 
L 3431 0 
L 469 0 
L 469 531 
Q 828 903 1448 1529 
Q 2069 2156 2228 2338 
Q 2531 2678 2651 2914 
Q 2772 3150 2772 3378 
Q 2772 3750 2511 3984 
Q 2250 4219 1831 4219 
Q 1534 4219 1204 4116 
Q 875 4013 500 3803 
L 500 4441 
Q 881 4594 1212 4672 
Q 1544 4750 1819 4750 
Q 2544 4750 2975 4387 
Q 3406 4025 3406 3419 
Q 3406 3131 3298 2873 
Q 3191 2616 2906 2266 
Q 2828 2175 2409 1742 
Q 1991 1309 1228 531 
z
" transform="scale(0.015625)"/>
        <path id="DejaVuSans-30" d="M 2034 4250 
Q 1547 4250 1301 3770 
Q 1056 3291 1056 2328 
Q 1056 1369 1301 889 
Q 1547 409 2034 409 
Q 2525 409 2770 889 
Q 3016 1369 3016 2328 
Q 3016 3291 2770 3770 
Q 2525 4250 2034 4250 
z
M 2034 4750 
Q 2819 4750 3233 4129 
Q 3647 3509 3647 2328 
Q 3647 1150 3233 529 
Q 2819 -91 2034 -91 
Q 1250 -91 836 529 
Q 422 1150 422 2328 
Q 422 3509 836 4129 
Q 1250 4750 2034 4750 
z
" transform="scale(0.015625)"/>
        <path id="DejaVuSans-31" d="M 794 531 
L 1825 531 
L 1825 4091 
L 703 3866 
L 703 4441 
L 1819 4666 
L 2450 4666 
L 2450 531 
L 3481 531 
L 3481 0 
L 794 0 
L 794 531 
z
" transform="scale(0.015625)"/>
       </defs>
       <use xlink:href="#DejaVuSans-32"/>
       <use xlink:href="#DejaVuSans-30" x="63.623047"/>
       <use xlink:href="#DejaVuSans-31" x="127.246094"/>
       <use xlink:href="#DejaVuSans-32" x="190.869141"/>
      </g>
     </g>
    </g>
    <g id="xtick_2">
     <g id="line2d_2">
      <g>
       <use xlink:href="#meb479f0136" x="137.846271" y="280.086688" style="fill: #b0b0b0; stroke: #b0b0b0; stroke-width: 0.4"/>
      </g>
     </g>
     <g id="text_2">
      <!-- 2013 -->
      <g style="fill: #b0b0b0" transform="translate(120.031271 297.7245)scale(0.14 -0.14)">
       <defs>
        <path id="DejaVuSans-33" d="M 2597 2516 
Q 3050 2419 3304 2112 
Q 3559 1806 3559 1356 
Q 3559 666 3084 287 
Q 2609 -91 1734 -91 
Q 1441 -91 1130 -33 
Q 819 25 488 141 
L 488 750 
Q 750 597 1062 519 
Q 1375 441 1716 441 
Q 2309 441 2620 675 
Q 2931 909 2931 1356 
Q 2931 1769 2642 2001 
Q 2353 2234 1838 2234 
L 1294 2234 
L 1294 2753 
L 1863 2753 
Q 2328 2753 2575 2939 
Q 2822 3125 2822 3475 
Q 2822 3834 2567 4026 
Q 2313 4219 1838 4219 
Q 1578 4219 1281 4162 
Q 984 4106 628 3988 
L 628 4550 
Q 988 4650 1302 4700 
Q 1616 4750 1894 4750 
Q 2613 4750 3031 4423 
Q 3450 4097 3450 3541 
Q 3450 3153 3228 2886 
Q 3006 2619 2597 2516 
z
" transform="scale(0.015625)"/>
       </defs>
       <use xlink:href="#DejaVuSans-32"/>
       <use xlink:href="#DejaVuSans-30" x="63.623047"/>
       <use xlink:href="#DejaVuSans-31" x="127.246094"/>
       <use xlink:href="#DejaVuSans-33" x="190.869141"/>
      </g>
     </g>
    </g>
    <g id="xtick_3">
     <g id="line2d_3">
      <g>
       <use xlink:href="#meb479f0136" x="171.844393" y="280.086688" style="fill: #b0b0b0; stroke: #b0b0b0; stroke-width: 0.4"/>
      </g>
     </g>
     <g id="text_3">
      <!-- 2014 -->
      <g style="fill: #b0b0b0" transform="translate(154.029393 297.7245)scale(0.14 -0.14)">
       <defs>
        <path id="DejaVuSans-34" d="M 2419 4116 
L 825 1625 
L 2419 1625 
L 2419 4116 
z
M 2253 4666 
L 3047 4666 
L 3047 1625 
L 3713 1625 
L 3713 1100 
L 3047 1100 
L 3047 0 
L 2419 0 
L 2419 1100 
L 313 1100 
L 313 1709 
L 2253 4666 
z
" transform="scale(0.015625)"/>
       </defs>
       <use xlink:href="#DejaVuSans-32"/>
       <use xlink:href="#DejaVuSans-30" x="63.623047"/>
       <use xlink:href="#DejaVuSans-31" x="127.246094"/>
       <use xlink:href="#DejaVuSans-34" x="190.869141"/>
      </g>
     </g>
    </g>
    <g id="xtick_4">
     <g id="line2d_4">
      <g>
       <use xlink:href="#meb479f0136" x="205.842515" y="280.086688" style="fill: #b0b0b0; stroke: #b0b0b0; stroke-width: 0.4"/>
      </g>
     </g>
     <g id="text_4">
      <!-- 2015 -->
      <g style="fill: #b0b0b0" transform="translate(188.027515 297.7245)scale(0.14 -0.14)">
       <defs>
        <path id="DejaVuSans-35" d="M 691 4666 
L 3169 4666 
L 3169 4134 
L 1269 4134 
L 1269 2991 
Q 1406 3038 1543 3061 
Q 1681 3084 1819 3084 
Q 2600 3084 3056 2656 
Q 3513 2228 3513 1497 
Q 3513 744 3044 326 
Q 2575 -91 1722 -91 
Q 1428 -91 1123 -41 
Q 819 9 494 109 
L 494 744 
Q 775 591 1075 516 
Q 1375 441 1709 441 
Q 2250 441 2565 725 
Q 2881 1009 2881 1497 
Q 2881 1984 2565 2268 
Q 2250 2553 1709 2553 
Q 1456 2553 1204 2497 
Q 953 2441 691 2322 
L 691 4666 
z
" transform="scale(0.015625)"/>
       </defs>
       <use xlink:href="#DejaVuSans-32"/>
       <use xlink:href="#DejaVuSans-30" x="63.623047"/>
       <use xlink:href="#DejaVuSans-31" x="127.246094"/>
       <use xlink:href="#DejaVuSans-35" x="190.869141"/>
      </g>
     </g>
    </g>
    <g id="xtick_5">
     <g id="line2d_5">
      <g>
       <use xlink:href="#meb479f0136" x="239.840637" y="280.086688" style="fill: #b0b0b0; stroke: #b0b0b0; stroke-width: 0.4"/>
      </g>
     </g>
     <g id="text_5">
      <!-- 2016 -->
      <g style="fill: #b0b0b0" transform="translate(222.025637 297.7245)scale(0.14 -0.14)">
       <defs>
        <path id="DejaVuSans-36" d="M 2113 2584 
Q 1688 2584 1439 2293 
Q 1191 2003 1191 1497 
Q 1191 994 1439 701 
Q 1688 409 2113 409 
Q 2538 409 2786 701 
Q 3034 994 3034 1497 
Q 3034 2003 2786 2293 
Q 2538 2584 2113 2584 
z
M 3366 4563 
L 3366 3988 
Q 3128 4100 2886 4159 
Q 2644 4219 2406 4219 
Q 1781 4219 1451 3797 
Q 1122 3375 1075 2522 
Q 1259 2794 1537 2939 
Q 1816 3084 2150 3084 
Q 2853 3084 3261 2657 
Q 3669 2231 3669 1497 
Q 3669 778 3244 343 
Q 2819 -91 2113 -91 
Q 1303 -91 875 529 
Q 447 1150 447 2328 
Q 447 3434 972 4092 
Q 1497 4750 2381 4750 
Q 2619 4750 2861 4703 
Q 3103 4656 3366 4563 
z
" transform="scale(0.015625)"/>
       </defs>
       <use xlink:href="#DejaVuSans-32"/>
       <use xlink:href="#DejaVuSans-30" x="63.623047"/>
       <use xlink:href="#DejaVuSans-31" x="127.246094"/>
       <use xlink:href="#DejaVuSans-36" x="190.869141"/>
      </g>
     </g>
    </g>
    <g id="xtick_6">
     <g id="line2d_6">
      <g>
       <use xlink:href="#meb479f0136" x="273.931904" y="280.086688" style="fill: #b0b0b0; stroke: #b0b0b0; stroke-width: 0.4"/>
      </g>
     </g>
     <g id="text_6">
      <!-- 2017 -->
      <g style="fill: #b0b0b0" transform="translate(256.116904 297.7245)scale(0.14 -0.14)">
       <defs>
        <path id="DejaVuSans-37" d="M 525 4666 
L 3525 4666 
L 3525 4397 
L 1831 0 
L 1172 0 
L 2766 4134 
L 525 4134 
L 525 4666 
z
" transform="scale(0.015625)"/>
       </defs>
       <use xlink:href="#DejaVuSans-32"/>
       <use xlink:href="#DejaVuSans-30" x="63.623047"/>
       <use xlink:href="#DejaVuSans-31" x="127.246094"/>
       <use xlink:href="#DejaVuSans-37" x="190.869141"/>
      </g>
     </g>
    </g>
    <g id="xtick_7">
     <g id="line2d_7">
      <g>
       <use xlink:href="#meb479f0136" x="307.930026" y="280.086688" style="fill: #b0b0b0; stroke: #b0b0b0; stroke-width: 0.4"/>
      </g>
     </g>
     <g id="text_7">
      <!-- 2018 -->
      <g style="fill: #b0b0b0" transform="translate(290.115026 297.7245)scale(0.14 -0.14)">
       <defs>
        <path id="DejaVuSans-38" d="M 2034 2216 
Q 1584 2216 1326 1975 
Q 1069 1734 1069 1313 
Q 1069 891 1326 650 
Q 1584 409 2034 409 
Q 2484 409 2743 651 
Q 3003 894 3003 1313 
Q 3003 1734 2745 1975 
Q 2488 2216 2034 2216 
z
M 1403 2484 
Q 997 2584 770 2862 
Q 544 3141 544 3541 
Q 544 4100 942 4425 
Q 1341 4750 2034 4750 
Q 2731 4750 3128 4425 
Q 3525 4100 3525 3541 
Q 3525 3141 3298 2862 
Q 3072 2584 2669 2484 
Q 3125 2378 3379 2068 
Q 3634 1759 3634 1313 
Q 3634 634 3220 271 
Q 2806 -91 2034 -91 
Q 1263 -91 848 271 
Q 434 634 434 1313 
Q 434 1759 690 2068 
Q 947 2378 1403 2484 
z
M 1172 3481 
Q 1172 3119 1398 2916 
Q 1625 2713 2034 2713 
Q 2441 2713 2670 2916 
Q 2900 3119 2900 3481 
Q 2900 3844 2670 4047 
Q 2441 4250 2034 4250 
Q 1625 4250 1398 4047 
Q 1172 3844 1172 3481 
z
" transform="scale(0.015625)"/>
       </defs>
       <use xlink:href="#DejaVuSans-32"/>
       <use xlink:href="#DejaVuSans-30" x="63.623047"/>
       <use xlink:href="#DejaVuSans-31" x="127.246094"/>
       <use xlink:href="#DejaVuSans-38" x="190.869141"/>
      </g>
     </g>
    </g>
    <g id="xtick_8">
     <g id="line2d_8">
      <g>
       <use xlink:href="#meb479f0136" x="341.928148" y="280.086688" style="fill: #b0b0b0; stroke: #b0b0b0; stroke-width: 0.4"/>
      </g>
     </g>
     <g id="text_8">
      <!-- 2019 -->
      <g style="fill: #b0b0b0" transform="translate(324.113148 297.7245)scale(0.14 -0.14)">
       <defs>
        <path id="DejaVuSans-39" d="M 703 97 
L 703 672 
Q 941 559 1184 500 
Q 1428 441 1663 441 
Q 2288 441 2617 861 
Q 2947 1281 2994 2138 
Q 2813 1869 2534 1725 
Q 2256 1581 1919 1581 
Q 1219 1581 811 2004 
Q 403 2428 403 3163 
Q 403 3881 828 4315 
Q 1253 4750 1959 4750 
Q 2769 4750 3195 4129 
Q 3622 3509 3622 2328 
Q 3622 1225 3098 567 
Q 2575 -91 1691 -91 
Q 1453 -91 1209 -44 
Q 966 3 703 97 
z
M 1959 2075 
Q 2384 2075 2632 2365 
Q 2881 2656 2881 3163 
Q 2881 3666 2632 3958 
Q 2384 4250 1959 4250 
Q 1534 4250 1286 3958 
Q 1038 3666 1038 3163 
Q 1038 2656 1286 2365 
Q 1534 2075 1959 2075 
z
" transform="scale(0.015625)"/>
       </defs>
       <use xlink:href="#DejaVuSans-32"/>
       <use xlink:href="#DejaVuSans-30" x="63.623047"/>
       <use xlink:href="#DejaVuSans-31" x="127.246094"/>
       <use xlink:href="#DejaVuSans-39" x="190.869141"/>
      </g>
     </g>
    </g>
    <g id="xtick_9">
     <g id="line2d_9">
      <g>
       <use xlink:href="#meb479f0136" x="375.926271" y="280.086688" style="fill: #b0b0b0; stroke: #b0b0b0; stroke-width: 0.4"/>
      </g>
     </g>
     <g id="text_9">
      <!-- 2020 -->
      <g style="fill: #b0b0b0" transform="translate(358.111271 297.7245)scale(0.14 -0.14)">
       <use xlink:href="#DejaVuSans-32"/>
       <use xlink:href="#DejaVuSans-30" x="63.623047"/>
       <use xlink:href="#DejaVuSans-32" x="127.246094"/>
       <use xlink:href="#DejaVuSans-30" x="190.869141"/>
      </g>
     </g>
    </g>
    <g id="xtick_10">
     <g id="line2d_10">
      <g>
       <use xlink:href="#meb479f0136" x="410.017538" y="280.086688" style="fill: #b0b0b0; stroke: #b0b0b0; stroke-width: 0.4"/>
      </g>
     </g>
     <g id="text_10">
      <!-- 2021 -->
      <g style="fill: #b0b0b0" transform="translate(392.202538 297.7245)scale(0.14 -0.14)">
       <use xlink:href="#DejaVuSans-32"/>
       <use xlink:href="#DejaVuSans-30" x="63.623047"/>
       <use xlink:href="#DejaVuSans-32" x="127.246094"/>
       <use xlink:href="#DejaVuSans-31" x="190.869141"/>
      </g>
     </g>
    </g>
    <g id="xtick_11">
     <g id="line2d_11">
      <g>
       <use xlink:href="#meb479f0136" x="444.01566" y="280.086688" style="fill: #b0b0b0; stroke: #b0b0b0; stroke-width: 0.4"/>
      </g>
     </g>
     <g id="text_11">
      <!-- 2022 -->
      <g style="fill: #b0b0b0" transform="translate(426.20066 297.7245)scale(0.14 -0.14)">
       <use xlink:href="#DejaVuSans-32"/>
       <use xlink:href="#DejaVuSans-30" x="63.623047"/>
       <use xlink:href="#DejaVuSans-32" x="127.246094"/>
       <use xlink:href="#DejaVuSans-32" x="190.869141"/>
      </g>
     </g>
    </g>
   </g>
   <g id="matplotlib.axis_2">
    <g id="ytick_1">
     <g id="line2d_12">
      <path d="M 98.073125 280.086688 
L 455.193125 280.086688 
" clip-path="url(#p6884de208c)" style="fill: none; stroke: #b0b0b0; stroke-width: 0.3; stroke-linecap: square"/>
     </g>
     <g id="line2d_13">
      <defs>
       <path id="m1e570081bc" d="M 0 0 
L -3.5 0 
" style="stroke: #b0b0b0; stroke-width: 0.3"/>
      </defs>
      <g>
       <use xlink:href="#m1e570081bc" x="98.073125" y="280.086688" style="fill: #b0b0b0; stroke: #b0b0b0; stroke-width: 0.3"/>
      </g>
     </g>
     <g id="text_12">
      <!-- 0 -->
      <g style="fill: #b0b0b0" transform="translate(82.165625 285.405594)scale(0.14 -0.14)">
       <use xlink:href="#DejaVuSans-30"/>
      </g>
     </g>
    </g>
    <g id="ytick_2">
     <g id="line2d_14">
      <path d="M 98.073125 222.034331 
L 455.193125 222.034331 
" clip-path="url(#p6884de208c)" style="fill: none; stroke: #b0b0b0; stroke-width: 0.3; stroke-linecap: square"/>
     </g>
     <g id="line2d_15">
      <g>
       <use xlink:href="#m1e570081bc" x="98.073125" y="222.034331" style="fill: #b0b0b0; stroke: #b0b0b0; stroke-width: 0.3"/>
      </g>
     </g>
     <g id="text_13">
      <!-- 2000 -->
      <g style="fill: #b0b0b0" transform="translate(55.443125 227.353238)scale(0.14 -0.14)">
       <use xlink:href="#DejaVuSans-32"/>
       <use xlink:href="#DejaVuSans-30" x="63.623047"/>
       <use xlink:href="#DejaVuSans-30" x="127.246094"/>
       <use xlink:href="#DejaVuSans-30" x="190.869141"/>
      </g>
     </g>
    </g>
    <g id="ytick_3">
     <g id="line2d_16">
      <path d="M 98.073125 163.981975 
L 455.193125 163.981975 
" clip-path="url(#p6884de208c)" style="fill: none; stroke: #b0b0b0; stroke-width: 0.3; stroke-linecap: square"/>
     </g>
     <g id="line2d_17">
      <g>
       <use xlink:href="#m1e570081bc" x="98.073125" y="163.981975" style="fill: #b0b0b0; stroke: #b0b0b0; stroke-width: 0.3"/>
      </g>
     </g>
     <g id="text_14">
      <!-- 4000 -->
      <g style="fill: #b0b0b0" transform="translate(55.443125 169.300882)scale(0.14 -0.14)">
       <use xlink:href="#DejaVuSans-34"/>
       <use xlink:href="#DejaVuSans-30" x="63.623047"/>
       <use xlink:href="#DejaVuSans-30" x="127.246094"/>
       <use xlink:href="#DejaVuSans-30" x="190.869141"/>
      </g>
     </g>
    </g>
    <g id="ytick_4">
     <g id="line2d_18">
      <path d="M 98.073125 105.929619 
L 455.193125 105.929619 
" clip-path="url(#p6884de208c)" style="fill: none; stroke: #b0b0b0; stroke-width: 0.3; stroke-linecap: square"/>
     </g>
     <g id="line2d_19">
      <g>
       <use xlink:href="#m1e570081bc" x="98.073125" y="105.929619" style="fill: #b0b0b0; stroke: #b0b0b0; stroke-width: 0.3"/>
      </g>
     </g>
     <g id="text_15">
      <!-- 6000 -->
      <g style="fill: #b0b0b0" transform="translate(55.443125 111.248526)scale(0.14 -0.14)">
       <use xlink:href="#DejaVuSans-36"/>
       <use xlink:href="#DejaVuSans-30" x="63.623047"/>
       <use xlink:href="#DejaVuSans-30" x="127.246094"/>
       <use xlink:href="#DejaVuSans-30" x="190.869141"/>
      </g>
     </g>
    </g>
    <g id="ytick_5">
     <g id="line2d_20">
      <path d="M 98.073125 47.877263 
L 455.193125 47.877263 
" clip-path="url(#p6884de208c)" style="fill: none; stroke: #b0b0b0; stroke-width: 0.3; stroke-linecap: square"/>
     </g>
     <g id="line2d_21">
      <g>
       <use xlink:href="#m1e570081bc" x="98.073125" y="47.877263" style="fill: #b0b0b0; stroke: #b0b0b0; stroke-width: 0.3"/>
      </g>
     </g>
     <g id="text_16">
      <!-- 8000 -->
      <g style="fill: #b0b0b0" transform="translate(55.443125 53.19617)scale(0.14 -0.14)">
       <use xlink:href="#DejaVuSans-38"/>
       <use xlink:href="#DejaVuSans-30" x="63.623047"/>
       <use xlink:href="#DejaVuSans-30" x="127.246094"/>
       <use xlink:href="#DejaVuSans-30" x="190.869141"/>
      </g>
     </g>
    </g>
    <g id="text_17">
     <!-- GitHub stars -->
     <g style="fill: #b0b0b0" transform="translate(7.2 18.354501)scale(0.14 -0.14)">
      <defs>
       <path id="DejaVuSans-47" d="M 3809 666 
L 3809 1919 
L 2778 1919 
L 2778 2438 
L 4434 2438 
L 4434 434 
Q 4069 175 3628 42 
Q 3188 -91 2688 -91 
Q 1594 -91 976 548 
Q 359 1188 359 2328 
Q 359 3472 976 4111 
Q 1594 4750 2688 4750 
Q 3144 4750 3555 4637 
Q 3966 4525 4313 4306 
L 4313 3634 
Q 3963 3931 3569 4081 
Q 3175 4231 2741 4231 
Q 1884 4231 1454 3753 
Q 1025 3275 1025 2328 
Q 1025 1384 1454 906 
Q 1884 428 2741 428 
Q 3075 428 3337 486 
Q 3600 544 3809 666 
z
" transform="scale(0.015625)"/>
       <path id="DejaVuSans-69" d="M 603 3500 
L 1178 3500 
L 1178 0 
L 603 0 
L 603 3500 
z
M 603 4863 
L 1178 4863 
L 1178 4134 
L 603 4134 
L 603 4863 
z
" transform="scale(0.015625)"/>
       <path id="DejaVuSans-74" d="M 1172 4494 
L 1172 3500 
L 2356 3500 
L 2356 3053 
L 1172 3053 
L 1172 1153 
Q 1172 725 1289 603 
Q 1406 481 1766 481 
L 2356 481 
L 2356 0 
L 1766 0 
Q 1100 0 847 248 
Q 594 497 594 1153 
L 594 3053 
L 172 3053 
L 172 3500 
L 594 3500 
L 594 4494 
L 1172 4494 
z
" transform="scale(0.015625)"/>
       <path id="DejaVuSans-48" d="M 628 4666 
L 1259 4666 
L 1259 2753 
L 3553 2753 
L 3553 4666 
L 4184 4666 
L 4184 0 
L 3553 0 
L 3553 2222 
L 1259 2222 
L 1259 0 
L 628 0 
L 628 4666 
z
" transform="scale(0.015625)"/>
       <path id="DejaVuSans-75" d="M 544 1381 
L 544 3500 
L 1119 3500 
L 1119 1403 
Q 1119 906 1312 657 
Q 1506 409 1894 409 
Q 2359 409 2629 706 
Q 2900 1003 2900 1516 
L 2900 3500 
L 3475 3500 
L 3475 0 
L 2900 0 
L 2900 538 
Q 2691 219 2414 64 
Q 2138 -91 1772 -91 
Q 1169 -91 856 284 
Q 544 659 544 1381 
z
M 1991 3584 
L 1991 3584 
z
" transform="scale(0.015625)"/>
       <path id="DejaVuSans-62" d="M 3116 1747 
Q 3116 2381 2855 2742 
Q 2594 3103 2138 3103 
Q 1681 3103 1420 2742 
Q 1159 2381 1159 1747 
Q 1159 1113 1420 752 
Q 1681 391 2138 391 
Q 2594 391 2855 752 
Q 3116 1113 3116 1747 
z
M 1159 2969 
Q 1341 3281 1617 3432 
Q 1894 3584 2278 3584 
Q 2916 3584 3314 3078 
Q 3713 2572 3713 1747 
Q 3713 922 3314 415 
Q 2916 -91 2278 -91 
Q 1894 -91 1617 61 
Q 1341 213 1159 525 
L 1159 0 
L 581 0 
L 581 4863 
L 1159 4863 
L 1159 2969 
z
" transform="scale(0.015625)"/>
       <path id="DejaVuSans-20" transform="scale(0.015625)"/>
       <path id="DejaVuSans-73" d="M 2834 3397 
L 2834 2853 
Q 2591 2978 2328 3040 
Q 2066 3103 1784 3103 
Q 1356 3103 1142 2972 
Q 928 2841 928 2578 
Q 928 2378 1081 2264 
Q 1234 2150 1697 2047 
L 1894 2003 
Q 2506 1872 2764 1633 
Q 3022 1394 3022 966 
Q 3022 478 2636 193 
Q 2250 -91 1575 -91 
Q 1294 -91 989 -36 
Q 684 19 347 128 
L 347 722 
Q 666 556 975 473 
Q 1284 391 1588 391 
Q 1994 391 2212 530 
Q 2431 669 2431 922 
Q 2431 1156 2273 1281 
Q 2116 1406 1581 1522 
L 1381 1569 
Q 847 1681 609 1914 
Q 372 2147 372 2553 
Q 372 3047 722 3315 
Q 1072 3584 1716 3584 
Q 2034 3584 2315 3537 
Q 2597 3491 2834 3397 
z
" transform="scale(0.015625)"/>
       <path id="DejaVuSans-61" d="M 2194 1759 
Q 1497 1759 1228 1600 
Q 959 1441 959 1056 
Q 959 750 1161 570 
Q 1363 391 1709 391 
Q 2188 391 2477 730 
Q 2766 1069 2766 1631 
L 2766 1759 
L 2194 1759 
z
M 3341 1997 
L 3341 0 
L 2766 0 
L 2766 531 
Q 2569 213 2275 61 
Q 1981 -91 1556 -91 
Q 1019 -91 701 211 
Q 384 513 384 1019 
Q 384 1609 779 1909 
Q 1175 2209 1959 2209 
L 2766 2209 
L 2766 2266 
Q 2766 2663 2505 2880 
Q 2244 3097 1772 3097 
Q 1472 3097 1187 3025 
Q 903 2953 641 2809 
L 641 3341 
Q 956 3463 1253 3523 
Q 1550 3584 1831 3584 
Q 2591 3584 2966 3190 
Q 3341 2797 3341 1997 
z
" transform="scale(0.015625)"/>
       <path id="DejaVuSans-72" d="M 2631 2963 
Q 2534 3019 2420 3045 
Q 2306 3072 2169 3072 
Q 1681 3072 1420 2755 
Q 1159 2438 1159 1844 
L 1159 0 
L 581 0 
L 581 3500 
L 1159 3500 
L 1159 2956 
Q 1341 3275 1631 3429 
Q 1922 3584 2338 3584 
Q 2397 3584 2469 3576 
Q 2541 3569 2628 3553 
L 2631 2963 
z
" transform="scale(0.015625)"/>
      </defs>
      <use xlink:href="#DejaVuSans-47"/>
      <use xlink:href="#DejaVuSans-69" x="77.490234"/>
      <use xlink:href="#DejaVuSans-74" x="105.273438"/>
      <use xlink:href="#DejaVuSans-48" x="144.482422"/>
      <use xlink:href="#DejaVuSans-75" x="219.677734"/>
      <use xlink:href="#DejaVuSans-62" x="283.056641"/>
      <use xlink:href="#DejaVuSans-20" x="346.533203"/>
      <use xlink:href="#DejaVuSans-73" x="378.320312"/>
      <use xlink:href="#DejaVuSans-74" x="430.419922"/>
      <use xlink:href="#DejaVuSans-61" x="469.628906"/>
      <use xlink:href="#DejaVuSans-72" x="530.908203"/>
      <use xlink:href="#DejaVuSans-73" x="572.021484"/>
     </g>
    </g>
   </g>
   <g id="line2d_22">
    <path d="M 347.423735 280.086688 
L 350.311247 279.999609 
L 353.105613 279.970583 
L 355.993125 279.91253 
L 358.787491 279.854478 
L 361.675003 279.680321 
L 364.562515 279.53519 
L 367.356881 279.477138 
L 370.244393 279.361033 
L 373.038759 279.244928 
L 375.926271 279.128824 
L 378.813782 278.983693 
L 381.515003 278.896614 
L 384.402515 278.751483 
L 387.196881 278.606352 
L 390.084393 278.461222 
L 392.878759 278.461222 
L 395.766271 278.316091 
L 398.653782 278.287064 
L 401.448148 278.112907 
L 404.33566 277.793619 
L 407.130026 277.271148 
L 410.017538 276.226206 
L 412.90505 275.732761 
L 415.513125 275.094185 
L 418.400637 274.397557 
L 421.195003 273.904112 
L 424.082515 273.352614 
L 426.876881 273.033326 
L 429.764393 272.481829 
L 432.651904 271.988384 
L 435.446271 271.349808 
L 438.333782 271.03052 
L 441.128148 270.682206 
L 444.01566 270.217787 
L 446.903172 269.724342 
L 449.511247 269.201871 
L 452.398759 268.853557 
L 455.193125 268.505242 
" clip-path="url(#p6884de208c)" style="fill: none; stroke: #7f7f7f; stroke-width: 1.5; stroke-linecap: square"/>
   </g>
   <g id="line2d_23">
    <path d="M 180.227491 280.086688 
L 183.021857 276.95186 
L 185.909369 276.748677 
L 188.703735 276.690625 
L 191.591247 276.284258 
L 194.478759 276.19718 
L 197.273125 276.023023 
L 200.160637 275.993996 
L 202.955003 275.935944 
L 205.842515 275.790813 
L 208.730026 275.616656 
L 211.338102 275.558604 
L 214.225613 275.384447 
L 217.019979 275.297368 
L 219.907491 275.152237 
L 222.701857 274.484635 
L 225.589369 274.281452 
L 228.476881 274.107295 
L 231.271247 273.962164 
L 234.158759 273.846059 
L 236.953125 273.700928 
L 239.840637 273.61385 
L 242.728148 273.439693 
L 245.429369 273.236509 
L 248.316881 273.120405 
L 251.111247 272.859169 
L 253.998759 272.655986 
L 256.793125 272.220593 
L 259.680637 272.046436 
L 262.568148 271.843253 
L 265.362515 271.552991 
L 268.250026 271.291756 
L 271.044393 271.059546 
L 273.931904 270.827337 
L 276.819416 270.682206 
L 279.427491 270.362918 
L 282.315003 270.101682 
L 285.109369 269.898499 
L 287.996881 269.753368 
L 290.791247 269.405054 
L 293.678759 269.201871 
L 296.566271 268.940635 
L 299.360637 268.650373 
L 302.248148 268.331085 
L 305.042515 268.185955 
L 307.930026 268.040824 
L 310.817538 267.866667 
L 313.425613 267.663483 
L 316.313125 267.402248 
L 319.107491 267.170038 
L 321.995003 266.879777 
L 324.789369 266.792698 
L 327.676881 266.647567 
L 330.564393 266.502436 
L 333.358759 266.386331 
L 336.246271 266.212174 
L 339.040637 266.09607 
L 341.928148 265.747756 
L 344.81566 265.515546 
L 347.423735 265.312363 
L 350.311247 265.167232 
L 353.105613 264.935023 
L 355.993125 264.905996 
L 358.787491 264.760866 
L 361.675003 264.528656 
L 364.562515 264.383525 
L 367.356881 264.26742 
L 370.244393 264.180342 
L 373.038759 264.093263 
L 375.926271 264.006185 
L 378.813782 263.919106 
L 381.515003 263.832028 
L 384.402515 263.686897 
L 387.196881 263.483714 
L 390.084393 263.28053 
L 392.878759 262.932216 
L 395.766271 262.583902 
L 398.653782 262.438771 
L 401.448148 262.206562 
L 404.33566 261.567986 
L 407.130026 261.103567 
L 410.017538 260.987462 
L 412.90505 260.755253 
L 415.513125 260.523044 
L 418.400637 260.261808 
L 421.195003 259.94252 
L 424.082515 259.710311 
L 426.876881 259.478101 
L 429.764393 259.33297 
L 432.651904 259.158813 
L 435.446271 259.100761 
L 438.333782 259.013682 
L 441.128148 258.810499 
L 444.01566 258.549263 
L 446.903172 258.433159 
L 449.511247 258.113871 
L 452.398759 258.026792 
L 455.193125 257.649452 
" clip-path="url(#p6884de208c)" style="fill: none; stroke: #e377c2; stroke-width: 1.5; stroke-linecap: square"/>
   </g>
   <g id="line2d_24">
    <path d="M 273.931904 280.086688 
L 276.819416 279.709347 
L 279.427491 279.448112 
L 282.315003 279.041745 
L 285.109369 278.461222 
L 287.996881 278.199986 
L 290.791247 277.880698 
L 293.678759 277.619462 
L 296.566271 277.271148 
L 299.360637 276.806729 
L 302.248148 276.458415 
L 305.042515 276.19718 
L 307.930026 275.529578 
L 310.817538 275.152237 
L 313.425613 274.774897 
L 316.313125 274.484635 
L 319.107491 274.049242 
L 321.995003 273.788007 
L 324.789369 273.439693 
L 327.676881 273.091379 
L 330.564393 272.714038 
L 333.358759 272.539881 
L 336.246271 272.191567 
L 339.040637 271.756174 
L 341.928148 271.465913 
L 344.81566 271.03052 
L 347.423735 270.624153 
L 350.311247 270.391944 
L 353.105613 270.101682 
L 355.993125 269.898499 
L 358.787491 269.521159 
L 361.675003 269.259923 
L 364.562515 268.82453 
L 367.356881 268.44719 
L 370.244393 268.127902 
L 373.038759 267.83764 
L 375.926271 267.663483 
L 378.813782 267.141012 
L 381.515003 266.705619 
L 384.402515 266.386331 
L 387.196881 265.950939 
L 390.084393 265.312363 
L 392.878759 264.731839 
L 395.766271 264.238394 
L 398.653782 263.861054 
L 401.448148 263.51274 
L 404.33566 263.164426 
L 407.130026 262.787085 
L 410.017538 262.322667 
L 412.90505 261.800195 
L 415.513125 261.161619 
L 418.400637 260.639148 
L 421.195003 259.855441 
L 424.082515 259.420049 
L 426.876881 258.95563 
L 429.764393 258.317054 
L 432.651904 257.562373 
L 435.446271 257.010876 
L 438.333782 256.604509 
L 441.128148 256.169117 
L 444.01566 255.472489 
L 446.903172 254.833913 
L 449.511247 254.427546 
L 452.398759 254.166311 
L 455.193125 253.730918 
" clip-path="url(#p6884de208c)" style="fill: none; stroke: #8c564b; stroke-width: 1.5; stroke-linecap: square"/>
   </g>
   <g id="text_18">
    <!-- pyinstaller/pyinstaller -->
    <g style="fill: #1f77b4" transform="translate(465.906725 17.837812)scale(0.14 -0.14)">
     <defs>
      <path id="DejaVuSans-70" d="M 1159 525 
L 1159 -1331 
L 581 -1331 
L 581 3500 
L 1159 3500 
L 1159 2969 
Q 1341 3281 1617 3432 
Q 1894 3584 2278 3584 
Q 2916 3584 3314 3078 
Q 3713 2572 3713 1747 
Q 3713 922 3314 415 
Q 2916 -91 2278 -91 
Q 1894 -91 1617 61 
Q 1341 213 1159 525 
z
M 3116 1747 
Q 3116 2381 2855 2742 
Q 2594 3103 2138 3103 
Q 1681 3103 1420 2742 
Q 1159 2381 1159 1747 
Q 1159 1113 1420 752 
Q 1681 391 2138 391 
Q 2594 391 2855 752 
Q 3116 1113 3116 1747 
z
" transform="scale(0.015625)"/>
      <path id="DejaVuSans-79" d="M 2059 -325 
Q 1816 -950 1584 -1140 
Q 1353 -1331 966 -1331 
L 506 -1331 
L 506 -850 
L 844 -850 
Q 1081 -850 1212 -737 
Q 1344 -625 1503 -206 
L 1606 56 
L 191 3500 
L 800 3500 
L 1894 763 
L 2988 3500 
L 3597 3500 
L 2059 -325 
z
" transform="scale(0.015625)"/>
      <path id="DejaVuSans-6e" d="M 3513 2113 
L 3513 0 
L 2938 0 
L 2938 2094 
Q 2938 2591 2744 2837 
Q 2550 3084 2163 3084 
Q 1697 3084 1428 2787 
Q 1159 2491 1159 1978 
L 1159 0 
L 581 0 
L 581 3500 
L 1159 3500 
L 1159 2956 
Q 1366 3272 1645 3428 
Q 1925 3584 2291 3584 
Q 2894 3584 3203 3211 
Q 3513 2838 3513 2113 
z
" transform="scale(0.015625)"/>
      <path id="DejaVuSans-6c" d="M 603 4863 
L 1178 4863 
L 1178 0 
L 603 0 
L 603 4863 
z
" transform="scale(0.015625)"/>
      <path id="DejaVuSans-65" d="M 3597 1894 
L 3597 1613 
L 953 1613 
Q 991 1019 1311 708 
Q 1631 397 2203 397 
Q 2534 397 2845 478 
Q 3156 559 3463 722 
L 3463 178 
Q 3153 47 2828 -22 
Q 2503 -91 2169 -91 
Q 1331 -91 842 396 
Q 353 884 353 1716 
Q 353 2575 817 3079 
Q 1281 3584 2069 3584 
Q 2775 3584 3186 3129 
Q 3597 2675 3597 1894 
z
M 3022 2063 
Q 3016 2534 2758 2815 
Q 2500 3097 2075 3097 
Q 1594 3097 1305 2825 
Q 1016 2553 972 2059 
L 3022 2063 
z
" transform="scale(0.015625)"/>
      <path id="DejaVuSans-2f" d="M 1625 4666 
L 2156 4666 
L 531 -594 
L 0 -594 
L 1625 4666 
z
" transform="scale(0.015625)"/>
     </defs>
     <use xlink:href="#DejaVuSans-70"/>
     <use xlink:href="#DejaVuSans-79" x="63.476562"/>
     <use xlink:href="#DejaVuSans-69" x="122.65625"/>
     <use xlink:href="#DejaVuSans-6e" x="150.439453"/>
     <use xlink:href="#DejaVuSans-73" x="213.818359"/>
     <use xlink:href="#DejaVuSans-74" x="265.917969"/>
     <use xlink:href="#DejaVuSans-61" x="305.126953"/>
     <use xlink:href="#DejaVuSans-6c" x="366.40625"/>
     <use xlink:href="#DejaVuSans-6c" x="394.189453"/>
     <use xlink:href="#DejaVuSans-65" x="421.972656"/>
     <use xlink:href="#DejaVuSans-72" x="483.496094"/>
     <use xlink:href="#DejaVuSans-2f" x="524.609375"/>
     <use xlink:href="#DejaVuSans-70" x="558.300781"/>
     <use xlink:href="#DejaVuSans-79" x="621.777344"/>
     <use xlink:href="#DejaVuSans-69" x="680.957031"/>
     <use xlink:href="#DejaVuSans-6e" x="708.740234"/>
     <use xlink:href="#DejaVuSans-73" x="772.119141"/>
     <use xlink:href="#DejaVuSans-74" x="824.21875"/>
     <use xlink:href="#DejaVuSans-61" x="863.427734"/>
     <use xlink:href="#DejaVuSans-6c" x="924.707031"/>
     <use xlink:href="#DejaVuSans-6c" x="952.490234"/>
     <use xlink:href="#DejaVuSans-65" x="980.273438"/>
     <use xlink:href="#DejaVuSans-72" x="1041.796875"/>
    </g>
   </g>
   <g id="text_19">
    <!-- Nuitka/Nuitka -->
    <g style="fill: #ff7f0e" transform="translate(465.906725 88.110189)scale(0.14 -0.14)">
     <defs>
      <path id="DejaVuSans-4e" d="M 628 4666 
L 1478 4666 
L 3547 763 
L 3547 4666 
L 4159 4666 
L 4159 0 
L 3309 0 
L 1241 3903 
L 1241 0 
L 628 0 
L 628 4666 
z
" transform="scale(0.015625)"/>
      <path id="DejaVuSans-6b" d="M 581 4863 
L 1159 4863 
L 1159 1991 
L 2875 3500 
L 3609 3500 
L 1753 1863 
L 3688 0 
L 2938 0 
L 1159 1709 
L 1159 0 
L 581 0 
L 581 4863 
z
" transform="scale(0.015625)"/>
     </defs>
     <use xlink:href="#DejaVuSans-4e"/>
     <use xlink:href="#DejaVuSans-75" x="74.804688"/>
     <use xlink:href="#DejaVuSans-69" x="138.183594"/>
     <use xlink:href="#DejaVuSans-74" x="165.966797"/>
     <use xlink:href="#DejaVuSans-6b" x="205.175781"/>
     <use xlink:href="#DejaVuSans-61" x="261.335938"/>
     <use xlink:href="#DejaVuSans-2f" x="322.615234"/>
     <use xlink:href="#DejaVuSans-4e" x="356.306641"/>
     <use xlink:href="#DejaVuSans-75" x="431.111328"/>
     <use xlink:href="#DejaVuSans-69" x="494.490234"/>
     <use xlink:href="#DejaVuSans-74" x="522.273438"/>
     <use xlink:href="#DejaVuSans-6b" x="561.482422"/>
     <use xlink:href="#DejaVuSans-61" x="617.642578"/>
    </g>
   </g>
   <g id="text_20">
    <!-- indygreg/PyOxidizer -->
    <g style="fill: #2ca02c" transform="translate(465.906725 177.336661)scale(0.14 -0.14)">
     <defs>
      <path id="DejaVuSans-64" d="M 2906 2969 
L 2906 4863 
L 3481 4863 
L 3481 0 
L 2906 0 
L 2906 525 
Q 2725 213 2448 61 
Q 2172 -91 1784 -91 
Q 1150 -91 751 415 
Q 353 922 353 1747 
Q 353 2572 751 3078 
Q 1150 3584 1784 3584 
Q 2172 3584 2448 3432 
Q 2725 3281 2906 2969 
z
M 947 1747 
Q 947 1113 1208 752 
Q 1469 391 1925 391 
Q 2381 391 2643 752 
Q 2906 1113 2906 1747 
Q 2906 2381 2643 2742 
Q 2381 3103 1925 3103 
Q 1469 3103 1208 2742 
Q 947 2381 947 1747 
z
" transform="scale(0.015625)"/>
      <path id="DejaVuSans-67" d="M 2906 1791 
Q 2906 2416 2648 2759 
Q 2391 3103 1925 3103 
Q 1463 3103 1205 2759 
Q 947 2416 947 1791 
Q 947 1169 1205 825 
Q 1463 481 1925 481 
Q 2391 481 2648 825 
Q 2906 1169 2906 1791 
z
M 3481 434 
Q 3481 -459 3084 -895 
Q 2688 -1331 1869 -1331 
Q 1566 -1331 1297 -1286 
Q 1028 -1241 775 -1147 
L 775 -588 
Q 1028 -725 1275 -790 
Q 1522 -856 1778 -856 
Q 2344 -856 2625 -561 
Q 2906 -266 2906 331 
L 2906 616 
Q 2728 306 2450 153 
Q 2172 0 1784 0 
Q 1141 0 747 490 
Q 353 981 353 1791 
Q 353 2603 747 3093 
Q 1141 3584 1784 3584 
Q 2172 3584 2450 3431 
Q 2728 3278 2906 2969 
L 2906 3500 
L 3481 3500 
L 3481 434 
z
" transform="scale(0.015625)"/>
      <path id="DejaVuSans-50" d="M 1259 4147 
L 1259 2394 
L 2053 2394 
Q 2494 2394 2734 2622 
Q 2975 2850 2975 3272 
Q 2975 3691 2734 3919 
Q 2494 4147 2053 4147 
L 1259 4147 
z
M 628 4666 
L 2053 4666 
Q 2838 4666 3239 4311 
Q 3641 3956 3641 3272 
Q 3641 2581 3239 2228 
Q 2838 1875 2053 1875 
L 1259 1875 
L 1259 0 
L 628 0 
L 628 4666 
z
" transform="scale(0.015625)"/>
      <path id="DejaVuSans-4f" d="M 2522 4238 
Q 1834 4238 1429 3725 
Q 1025 3213 1025 2328 
Q 1025 1447 1429 934 
Q 1834 422 2522 422 
Q 3209 422 3611 934 
Q 4013 1447 4013 2328 
Q 4013 3213 3611 3725 
Q 3209 4238 2522 4238 
z
M 2522 4750 
Q 3503 4750 4090 4092 
Q 4678 3434 4678 2328 
Q 4678 1225 4090 567 
Q 3503 -91 2522 -91 
Q 1538 -91 948 565 
Q 359 1222 359 2328 
Q 359 3434 948 4092 
Q 1538 4750 2522 4750 
z
" transform="scale(0.015625)"/>
      <path id="DejaVuSans-78" d="M 3513 3500 
L 2247 1797 
L 3578 0 
L 2900 0 
L 1881 1375 
L 863 0 
L 184 0 
L 1544 1831 
L 300 3500 
L 978 3500 
L 1906 2253 
L 2834 3500 
L 3513 3500 
z
" transform="scale(0.015625)"/>
      <path id="DejaVuSans-7a" d="M 353 3500 
L 3084 3500 
L 3084 2975 
L 922 459 
L 3084 459 
L 3084 0 
L 275 0 
L 275 525 
L 2438 3041 
L 353 3041 
L 353 3500 
z
" transform="scale(0.015625)"/>
     </defs>
     <use xlink:href="#DejaVuSans-69"/>
     <use xlink:href="#DejaVuSans-6e" x="27.783203"/>
     <use xlink:href="#DejaVuSans-64" x="91.162109"/>
     <use xlink:href="#DejaVuSans-79" x="154.638672"/>
     <use xlink:href="#DejaVuSans-67" x="213.818359"/>
     <use xlink:href="#DejaVuSans-72" x="277.294922"/>
     <use xlink:href="#DejaVuSans-65" x="316.158203"/>
     <use xlink:href="#DejaVuSans-67" x="377.681641"/>
     <use xlink:href="#DejaVuSans-2f" x="441.158203"/>
     <use xlink:href="#DejaVuSans-50" x="474.849609"/>
     <use xlink:href="#DejaVuSans-79" x="535.152344"/>
     <use xlink:href="#DejaVuSans-4f" x="594.332031"/>
     <use xlink:href="#DejaVuSans-78" x="673.042969"/>
     <use xlink:href="#DejaVuSans-69" x="732.222656"/>
     <use xlink:href="#DejaVuSans-64" x="760.005859"/>
     <use xlink:href="#DejaVuSans-69" x="823.482422"/>
     <use xlink:href="#DejaVuSans-7a" x="851.265625"/>
     <use xlink:href="#DejaVuSans-65" x="903.755859"/>
     <use xlink:href="#DejaVuSans-72" x="965.279297"/>
    </g>
   </g>
   <g id="text_21">
    <!-- pantsbuild/pex -->
    <g style="fill: #d62728" transform="translate(465.906725 223.488284)scale(0.14 -0.14)">
     <use xlink:href="#DejaVuSans-70"/>
     <use xlink:href="#DejaVuSans-61" x="63.476562"/>
     <use xlink:href="#DejaVuSans-6e" x="124.755859"/>
     <use xlink:href="#DejaVuSans-74" x="188.134766"/>
     <use xlink:href="#DejaVuSans-73" x="227.34375"/>
     <use xlink:href="#DejaVuSans-62" x="279.443359"/>
     <use xlink:href="#DejaVuSans-75" x="342.919922"/>
     <use xlink:href="#DejaVuSans-69" x="406.298828"/>
     <use xlink:href="#DejaVuSans-6c" x="434.082031"/>
     <use xlink:href="#DejaVuSans-64" x="461.865234"/>
     <use xlink:href="#DejaVuSans-2f" x="525.341797"/>
     <use xlink:href="#DejaVuSans-70" x="559.033203"/>
     <use xlink:href="#DejaVuSans-65" x="622.509766"/>
     <use xlink:href="#DejaVuSans-78" x="682.283203"/>
    </g>
   </g>
   <g id="text_22">
    <!-- linkedin/shiv -->
    <g style="fill: #9467bd" transform="translate(465.906725 237.54465)scale(0.14 -0.14)">
     <defs>
      <path id="DejaVuSans-68" d="M 3513 2113 
L 3513 0 
L 2938 0 
L 2938 2094 
Q 2938 2591 2744 2837 
Q 2550 3084 2163 3084 
Q 1697 3084 1428 2787 
Q 1159 2491 1159 1978 
L 1159 0 
L 581 0 
L 581 4863 
L 1159 4863 
L 1159 2956 
Q 1366 3272 1645 3428 
Q 1925 3584 2291 3584 
Q 2894 3584 3203 3211 
Q 3513 2838 3513 2113 
z
" transform="scale(0.015625)"/>
      <path id="DejaVuSans-76" d="M 191 3500 
L 800 3500 
L 1894 563 
L 2988 3500 
L 3597 3500 
L 2284 0 
L 1503 0 
L 191 3500 
z
" transform="scale(0.015625)"/>
     </defs>
     <use xlink:href="#DejaVuSans-6c"/>
     <use xlink:href="#DejaVuSans-69" x="27.783203"/>
     <use xlink:href="#DejaVuSans-6e" x="55.566406"/>
     <use xlink:href="#DejaVuSans-6b" x="118.945312"/>
     <use xlink:href="#DejaVuSans-65" x="173.230469"/>
     <use xlink:href="#DejaVuSans-64" x="234.753906"/>
     <use xlink:href="#DejaVuSans-69" x="298.230469"/>
     <use xlink:href="#DejaVuSans-6e" x="326.013672"/>
     <use xlink:href="#DejaVuSans-2f" x="389.392578"/>
     <use xlink:href="#DejaVuSans-73" x="423.083984"/>
     <use xlink:href="#DejaVuSans-68" x="475.183594"/>
     <use xlink:href="#DejaVuSans-69" x="538.5625"/>
     <use xlink:href="#DejaVuSans-76" x="566.345703"/>
    </g>
   </g>
   <g id="text_23">
    <!-- marcelotduarte/cx_Freeze -->
    <g style="fill: #8c564b" transform="translate(465.906725 251.349963)scale(0.14 -0.14)">
     <defs>
      <path id="DejaVuSans-6d" d="M 3328 2828 
Q 3544 3216 3844 3400 
Q 4144 3584 4550 3584 
Q 5097 3584 5394 3201 
Q 5691 2819 5691 2113 
L 5691 0 
L 5113 0 
L 5113 2094 
Q 5113 2597 4934 2840 
Q 4756 3084 4391 3084 
Q 3944 3084 3684 2787 
Q 3425 2491 3425 1978 
L 3425 0 
L 2847 0 
L 2847 2094 
Q 2847 2600 2669 2842 
Q 2491 3084 2119 3084 
Q 1678 3084 1418 2786 
Q 1159 2488 1159 1978 
L 1159 0 
L 581 0 
L 581 3500 
L 1159 3500 
L 1159 2956 
Q 1356 3278 1631 3431 
Q 1906 3584 2284 3584 
Q 2666 3584 2933 3390 
Q 3200 3197 3328 2828 
z
" transform="scale(0.015625)"/>
      <path id="DejaVuSans-63" d="M 3122 3366 
L 3122 2828 
Q 2878 2963 2633 3030 
Q 2388 3097 2138 3097 
Q 1578 3097 1268 2742 
Q 959 2388 959 1747 
Q 959 1106 1268 751 
Q 1578 397 2138 397 
Q 2388 397 2633 464 
Q 2878 531 3122 666 
L 3122 134 
Q 2881 22 2623 -34 
Q 2366 -91 2075 -91 
Q 1284 -91 818 406 
Q 353 903 353 1747 
Q 353 2603 823 3093 
Q 1294 3584 2113 3584 
Q 2378 3584 2631 3529 
Q 2884 3475 3122 3366 
z
" transform="scale(0.015625)"/>
      <path id="DejaVuSans-6f" d="M 1959 3097 
Q 1497 3097 1228 2736 
Q 959 2375 959 1747 
Q 959 1119 1226 758 
Q 1494 397 1959 397 
Q 2419 397 2687 759 
Q 2956 1122 2956 1747 
Q 2956 2369 2687 2733 
Q 2419 3097 1959 3097 
z
M 1959 3584 
Q 2709 3584 3137 3096 
Q 3566 2609 3566 1747 
Q 3566 888 3137 398 
Q 2709 -91 1959 -91 
Q 1206 -91 779 398 
Q 353 888 353 1747 
Q 353 2609 779 3096 
Q 1206 3584 1959 3584 
z
" transform="scale(0.015625)"/>
      <path id="DejaVuSans-5f" d="M 3263 -1063 
L 3263 -1509 
L -63 -1509 
L -63 -1063 
L 3263 -1063 
z
" transform="scale(0.015625)"/>
      <path id="DejaVuSans-46" d="M 628 4666 
L 3309 4666 
L 3309 4134 
L 1259 4134 
L 1259 2759 
L 3109 2759 
L 3109 2228 
L 1259 2228 
L 1259 0 
L 628 0 
L 628 4666 
z
" transform="scale(0.015625)"/>
     </defs>
     <use xlink:href="#DejaVuSans-6d"/>
     <use xlink:href="#DejaVuSans-61" x="97.412109"/>
     <use xlink:href="#DejaVuSans-72" x="158.691406"/>
     <use xlink:href="#DejaVuSans-63" x="197.554688"/>
     <use xlink:href="#DejaVuSans-65" x="252.535156"/>
     <use xlink:href="#DejaVuSans-6c" x="314.058594"/>
     <use xlink:href="#DejaVuSans-6f" x="341.841797"/>
     <use xlink:href="#DejaVuSans-74" x="403.023438"/>
     <use xlink:href="#DejaVuSans-64" x="442.232422"/>
     <use xlink:href="#DejaVuSans-75" x="505.708984"/>
     <use xlink:href="#DejaVuSans-61" x="569.087891"/>
     <use xlink:href="#DejaVuSans-72" x="630.367188"/>
     <use xlink:href="#DejaVuSans-74" x="671.480469"/>
     <use xlink:href="#DejaVuSans-65" x="710.689453"/>
     <use xlink:href="#DejaVuSans-2f" x="772.212891"/>
     <use xlink:href="#DejaVuSans-63" x="805.904297"/>
     <use xlink:href="#DejaVuSans-78" x="860.884766"/>
     <use xlink:href="#DejaVuSans-5f" x="920.064453"/>
     <use xlink:href="#DejaVuSans-46" x="970.064453"/>
     <use xlink:href="#DejaVuSans-72" x="1020.333984"/>
     <use xlink:href="#DejaVuSans-65" x="1059.197266"/>
     <use xlink:href="#DejaVuSans-65" x="1120.720703"/>
     <use xlink:href="#DejaVuSans-7a" x="1182.244141"/>
     <use xlink:href="#DejaVuSans-65" x="1234.734375"/>
    </g>
   </g>
   <g id="text_24">
    <!-- takluyver/pynsist -->
    <g style="fill: #e377c2" transform="translate(465.906725 265.54465)scale(0.14 -0.14)">
     <use xlink:href="#DejaVuSans-74"/>
     <use xlink:href="#DejaVuSans-61" x="39.208984"/>
     <use xlink:href="#DejaVuSans-6b" x="100.488281"/>
     <use xlink:href="#DejaVuSans-6c" x="158.398438"/>
     <use xlink:href="#DejaVuSans-75" x="186.181641"/>
     <use xlink:href="#DejaVuSans-79" x="249.560547"/>
     <use xlink:href="#DejaVuSans-76" x="308.740234"/>
     <use xlink:href="#DejaVuSans-65" x="367.919922"/>
     <use xlink:href="#DejaVuSans-72" x="429.443359"/>
     <use xlink:href="#DejaVuSans-2f" x="470.556641"/>
     <use xlink:href="#DejaVuSans-70" x="504.248047"/>
     <use xlink:href="#DejaVuSans-79" x="567.724609"/>
     <use xlink:href="#DejaVuSans-6e" x="626.904297"/>
     <use xlink:href="#DejaVuSans-73" x="690.283203"/>
     <use xlink:href="#DejaVuSans-69" x="742.382812"/>
     <use xlink:href="#DejaVuSans-73" x="770.166016"/>
     <use xlink:href="#DejaVuSans-74" x="822.265625"/>
    </g>
   </g>
   <g id="text_25">
    <!-- py2exe/py2exe -->
    <g style="fill: #7f7f7f" transform="translate(465.906725 279.54465)scale(0.14 -0.14)">
     <use xlink:href="#DejaVuSans-70"/>
     <use xlink:href="#DejaVuSans-79" x="63.476562"/>
     <use xlink:href="#DejaVuSans-32" x="122.65625"/>
     <use xlink:href="#DejaVuSans-65" x="186.279297"/>
     <use xlink:href="#DejaVuSans-78" x="246.052734"/>
     <use xlink:href="#DejaVuSans-65" x="302.107422"/>
     <use xlink:href="#DejaVuSans-2f" x="363.630859"/>
     <use xlink:href="#DejaVuSans-70" x="397.322266"/>
     <use xlink:href="#DejaVuSans-79" x="460.798828"/>
     <use xlink:href="#DejaVuSans-32" x="519.978516"/>
     <use xlink:href="#DejaVuSans-65" x="583.601562"/>
     <use xlink:href="#DejaVuSans-78" x="643.375"/>
     <use xlink:href="#DejaVuSans-65" x="699.429688"/>
    </g>
   </g>
   <g id="text_26">
    <!-- @nschloe / gh-trends | Nico Schlömer | CC BY -->
    <g style="fill: #b0b0b0" transform="translate(98.073125 314.123037)scale(0.09716 -0.09716)">
     <defs>
      <path id="DejaVuSans-40" d="M 2381 1678 
Q 2381 1231 2603 976 
Q 2825 722 3213 722 
Q 3597 722 3817 978 
Q 4038 1234 4038 1678 
Q 4038 2116 3813 2373 
Q 3588 2631 3206 2631 
Q 2828 2631 2604 2375 
Q 2381 2119 2381 1678 
z
M 4084 744 
Q 3897 503 3655 389 
Q 3413 275 3091 275 
Q 2553 275 2217 664 
Q 1881 1053 1881 1678 
Q 1881 2303 2218 2693 
Q 2556 3084 3091 3084 
Q 3413 3084 3656 2967 
Q 3900 2850 4084 2613 
L 4084 3022 
L 4531 3022 
L 4531 722 
Q 4988 791 5245 1139 
Q 5503 1488 5503 2041 
Q 5503 2375 5404 2669 
Q 5306 2963 5106 3213 
Q 4781 3622 4314 3839 
Q 3847 4056 3297 4056 
Q 2913 4056 2559 3954 
Q 2206 3853 1906 3653 
Q 1416 3334 1139 2817 
Q 863 2300 863 1697 
Q 863 1200 1042 765 
Q 1222 331 1563 0 
Q 1891 -325 2322 -495 
Q 2753 -666 3244 -666 
Q 3647 -666 4036 -530 
Q 4425 -394 4750 -141 
L 5031 -488 
Q 4641 -791 4180 -952 
Q 3719 -1113 3244 -1113 
Q 2666 -1113 2153 -908 
Q 1641 -703 1241 -313 
Q 841 78 631 592 
Q 422 1106 422 1697 
Q 422 2266 634 2781 
Q 847 3297 1241 3688 
Q 1644 4084 2172 4295 
Q 2700 4506 3291 4506 
Q 3953 4506 4520 4234 
Q 5088 3963 5472 3463 
Q 5706 3156 5829 2797 
Q 5953 2438 5953 2053 
Q 5953 1231 5456 756 
Q 4959 281 4084 263 
L 4084 744 
z
" transform="scale(0.015625)"/>
      <path id="DejaVuSans-2d" d="M 313 2009 
L 1997 2009 
L 1997 1497 
L 313 1497 
L 313 2009 
z
" transform="scale(0.015625)"/>
      <path id="DejaVuSans-7c" d="M 1344 4891 
L 1344 -1509 
L 813 -1509 
L 813 4891 
L 1344 4891 
z
" transform="scale(0.015625)"/>
      <path id="DejaVuSans-53" d="M 3425 4513 
L 3425 3897 
Q 3066 4069 2747 4153 
Q 2428 4238 2131 4238 
Q 1616 4238 1336 4038 
Q 1056 3838 1056 3469 
Q 1056 3159 1242 3001 
Q 1428 2844 1947 2747 
L 2328 2669 
Q 3034 2534 3370 2195 
Q 3706 1856 3706 1288 
Q 3706 609 3251 259 
Q 2797 -91 1919 -91 
Q 1588 -91 1214 -16 
Q 841 59 441 206 
L 441 856 
Q 825 641 1194 531 
Q 1563 422 1919 422 
Q 2459 422 2753 634 
Q 3047 847 3047 1241 
Q 3047 1584 2836 1778 
Q 2625 1972 2144 2069 
L 1759 2144 
Q 1053 2284 737 2584 
Q 422 2884 422 3419 
Q 422 4038 858 4394 
Q 1294 4750 2059 4750 
Q 2388 4750 2728 4690 
Q 3069 4631 3425 4513 
z
" transform="scale(0.015625)"/>
      <path id="DejaVuSans-f6" d="M 1959 3097 
Q 1497 3097 1228 2736 
Q 959 2375 959 1747 
Q 959 1119 1226 758 
Q 1494 397 1959 397 
Q 2419 397 2687 759 
Q 2956 1122 2956 1747 
Q 2956 2369 2687 2733 
Q 2419 3097 1959 3097 
z
M 1959 3584 
Q 2709 3584 3137 3096 
Q 3566 2609 3566 1747 
Q 3566 888 3137 398 
Q 2709 -91 1959 -91 
Q 1206 -91 779 398 
Q 353 888 353 1747 
Q 353 2609 779 3096 
Q 1206 3584 1959 3584 
z
M 2254 4850 
L 2888 4850 
L 2888 4219 
L 2254 4219 
L 2254 4850 
z
M 1032 4850 
L 1666 4850 
L 1666 4219 
L 1032 4219 
L 1032 4850 
z
" transform="scale(0.015625)"/>
      <path id="DejaVuSans-43" d="M 4122 4306 
L 4122 3641 
Q 3803 3938 3442 4084 
Q 3081 4231 2675 4231 
Q 1875 4231 1450 3742 
Q 1025 3253 1025 2328 
Q 1025 1406 1450 917 
Q 1875 428 2675 428 
Q 3081 428 3442 575 
Q 3803 722 4122 1019 
L 4122 359 
Q 3791 134 3420 21 
Q 3050 -91 2638 -91 
Q 1578 -91 968 557 
Q 359 1206 359 2328 
Q 359 3453 968 4101 
Q 1578 4750 2638 4750 
Q 3056 4750 3426 4639 
Q 3797 4528 4122 4306 
z
" transform="scale(0.015625)"/>
      <path id="DejaVuSans-42" d="M 1259 2228 
L 1259 519 
L 2272 519 
Q 2781 519 3026 730 
Q 3272 941 3272 1375 
Q 3272 1813 3026 2020 
Q 2781 2228 2272 2228 
L 1259 2228 
z
M 1259 4147 
L 1259 2741 
L 2194 2741 
Q 2656 2741 2882 2914 
Q 3109 3088 3109 3444 
Q 3109 3797 2882 3972 
Q 2656 4147 2194 4147 
L 1259 4147 
z
M 628 4666 
L 2241 4666 
Q 2963 4666 3353 4366 
Q 3744 4066 3744 3513 
Q 3744 3084 3544 2831 
Q 3344 2578 2956 2516 
Q 3422 2416 3680 2098 
Q 3938 1781 3938 1306 
Q 3938 681 3513 340 
Q 3088 0 2303 0 
L 628 0 
L 628 4666 
z
" transform="scale(0.015625)"/>
      <path id="DejaVuSans-59" d="M -13 4666 
L 666 4666 
L 1959 2747 
L 3244 4666 
L 3922 4666 
L 2272 2222 
L 2272 0 
L 1638 0 
L 1638 2222 
L -13 4666 
z
" transform="scale(0.015625)"/>
     </defs>
     <use xlink:href="#DejaVuSans-40"/>
     <use xlink:href="#DejaVuSans-6e" x="100"/>
     <use xlink:href="#DejaVuSans-73" x="163.378906"/>
     <use xlink:href="#DejaVuSans-63" x="215.478516"/>
     <use xlink:href="#DejaVuSans-68" x="270.458984"/>
     <use xlink:href="#DejaVuSans-6c" x="333.837891"/>
     <use xlink:href="#DejaVuSans-6f" x="361.621094"/>
     <use xlink:href="#DejaVuSans-65" x="422.802734"/>
     <use xlink:href="#DejaVuSans-20" x="484.326172"/>
     <use xlink:href="#DejaVuSans-2f" x="516.113281"/>
     <use xlink:href="#DejaVuSans-20" x="549.804688"/>
     <use xlink:href="#DejaVuSans-67" x="581.591797"/>
     <use xlink:href="#DejaVuSans-68" x="645.068359"/>
     <use xlink:href="#DejaVuSans-2d" x="708.447266"/>
     <use xlink:href="#DejaVuSans-74" x="744.53125"/>
     <use xlink:href="#DejaVuSans-72" x="783.740234"/>
     <use xlink:href="#DejaVuSans-65" x="822.603516"/>
     <use xlink:href="#DejaVuSans-6e" x="884.126953"/>
     <use xlink:href="#DejaVuSans-64" x="947.505859"/>
     <use xlink:href="#DejaVuSans-73" x="1010.982422"/>
     <use xlink:href="#DejaVuSans-20" x="1063.082031"/>
     <use xlink:href="#DejaVuSans-7c" x="1094.869141"/>
     <use xlink:href="#DejaVuSans-20" x="1128.560547"/>
     <use xlink:href="#DejaVuSans-4e" x="1160.347656"/>
     <use xlink:href="#DejaVuSans-69" x="1235.152344"/>
     <use xlink:href="#DejaVuSans-63" x="1262.935547"/>
     <use xlink:href="#DejaVuSans-6f" x="1317.916016"/>
     <use xlink:href="#DejaVuSans-20" x="1379.097656"/>
     <use xlink:href="#DejaVuSans-53" x="1410.884766"/>
     <use xlink:href="#DejaVuSans-63" x="1474.361328"/>
     <use xlink:href="#DejaVuSans-68" x="1529.341797"/>
     <use xlink:href="#DejaVuSans-6c" x="1592.720703"/>
     <use xlink:href="#DejaVuSans-f6" x="1620.503906"/>
     <use xlink:href="#DejaVuSans-6d" x="1681.685547"/>
     <use xlink:href="#DejaVuSans-65" x="1779.097656"/>
     <use xlink:href="#DejaVuSans-72" x="1840.621094"/>
     <use xlink:href="#DejaVuSans-20" x="1881.734375"/>
     <use xlink:href="#DejaVuSans-7c" x="1913.521484"/>
     <use xlink:href="#DejaVuSans-20" x="1947.212891"/>
     <use xlink:href="#DejaVuSans-43" x="1979"/>
     <use xlink:href="#DejaVuSans-43" x="2048.824219"/>
     <use xlink:href="#DejaVuSans-20" x="2118.648438"/>
     <use xlink:href="#DejaVuSans-42" x="2150.435547"/>
     <use xlink:href="#DejaVuSans-59" x="2213.539062"/>
    </g>
   </g>
   <g id="line2d_25">
    <path d="M 313.425613 280.086688 
L 316.313125 280.057661 
L 319.107491 279.7674 
L 321.995003 272.075462 
L 324.789369 270.943441 
L 327.676881 269.898499 
L 330.564393 269.405054 
L 333.358759 268.82453 
L 336.246271 267.692509 
L 339.040637 266.908803 
L 341.928148 266.444384 
L 344.81566 266.038017 
L 347.423735 265.312363 
L 350.311247 265.080153 
L 353.105613 264.702813 
L 355.993125 264.325473 
L 358.787491 264.035211 
L 361.675003 263.803002 
L 364.562515 263.425661 
L 367.356881 261.800195 
L 370.244393 259.913494 
L 373.038759 258.375106 
L 375.926271 257.765557 
L 378.813782 256.923797 
L 381.515003 256.430352 
L 384.402515 255.414436 
L 387.196881 254.77586 
L 390.084393 253.643839 
L 392.878759 253.121368 
L 395.766271 252.511818 
L 398.653782 250.654143 
L 401.448148 250.044593 
L 404.33566 249.696279 
L 407.130026 249.260886 
L 410.017538 248.47718 
L 412.90505 248.041787 
L 415.513125 247.577368 
L 418.400637 246.590478 
L 421.195003 246.126059 
L 424.082515 245.603588 
L 426.876881 245.342352 
L 429.764393 245.023064 
L 432.651904 244.732803 
L 435.446271 243.862017 
L 438.333782 243.455651 
L 441.128148 243.049284 
L 444.01566 240.9594 
L 446.903172 240.407902 
L 449.511247 239.7403 
L 452.398759 239.36296 
L 455.193125 238.840489 
" clip-path="url(#p6884de208c)" style="fill: none; stroke: #9467bd; stroke-width: 1.5; stroke-linecap: square"/>
   </g>
   <g id="line2d_26">
    <path d="M 188.703735 280.086688 
L 191.591247 280.028635 
L 194.478759 280.028635 
L 197.273125 279.738373 
L 200.160637 279.53519 
L 202.955003 279.477138 
L 205.842515 279.361033 
L 208.730026 278.751483 
L 211.338102 278.258038 
L 214.225613 278.083881 
L 217.019979 276.893808 
L 219.907491 276.139127 
L 222.701857 272.568907 
L 225.589369 271.146625 
L 228.476881 269.956551 
L 231.271247 269.347002 
L 234.158759 268.969661 
L 236.953125 267.924719 
L 239.840637 267.692509 
L 242.728148 266.618541 
L 245.429369 266.154122 
L 248.316881 265.602625 
L 251.111247 264.87697 
L 253.998759 264.441578 
L 256.793125 263.977159 
L 259.680637 263.396635 
L 262.568148 262.729033 
L 265.362515 262.409745 
L 268.250026 261.684091 
L 271.044393 261.103567 
L 273.931904 260.55207 
L 276.819416 260.000572 
L 279.427491 259.623232 
L 282.315003 259.274918 
L 285.109369 258.665368 
L 287.996881 258.055818 
L 290.791247 257.765557 
L 293.678759 257.388216 
L 296.566271 256.923797 
L 299.360637 256.517431 
L 302.248148 255.878855 
L 305.042515 255.00807 
L 307.930026 254.485598 
L 310.817538 253.992153 
L 313.425613 253.556761 
L 316.313125 253.03429 
L 319.107491 252.744028 
L 321.995003 251.582981 
L 324.789369 251.089536 
L 327.676881 250.45096 
L 330.564393 249.84141 
L 333.358759 249.23186 
L 336.246271 248.419127 
L 339.040637 247.519316 
L 341.928148 246.677557 
L 344.81566 246.097033 
L 347.423735 244.90696 
L 350.311247 244.007148 
L 353.105613 243.426625 
L 355.993125 243.020258 
L 358.787491 242.352656 
L 361.675003 241.627002 
L 364.562515 240.785242 
L 367.356881 240.465955 
L 370.244393 239.885431 
L 373.038759 239.159777 
L 375.926271 237.563337 
L 378.813782 236.692551 
L 381.515003 235.995923 
L 384.402515 235.154164 
L 387.196881 234.457536 
L 390.084393 233.702855 
L 392.878759 233.122331 
L 395.766271 232.541808 
L 398.653782 230.974394 
L 401.448148 230.306792 
L 404.33566 229.900426 
L 407.130026 229.523085 
L 410.017538 228.826457 
L 412.90505 228.536195 
L 415.513125 227.984698 
L 418.400637 227.171965 
L 421.195003 226.417284 
L 424.082515 225.633578 
L 426.876881 225.08208 
L 429.764393 224.443504 
L 432.651904 223.833955 
L 435.446271 223.253431 
L 438.333782 222.73096 
L 441.128148 222.179462 
L 444.01566 221.686017 
L 446.903172 221.192572 
L 449.511247 220.641075 
L 452.398759 220.089578 
L 455.193125 219.625159 
" clip-path="url(#p6884de208c)" style="fill: none; stroke: #d62728; stroke-width: 1.5; stroke-linecap: square"/>
   </g>
   <g id="line2d_27">
    <path d="M 339.040637 280.086688 
L 341.928148 279.564216 
L 344.81566 273.091379 
L 347.423735 272.220593 
L 350.311247 271.552991 
L 353.105613 271.40786 
L 355.993125 271.059546 
L 358.787491 244.065201 
L 361.675003 233.615777 
L 364.562515 230.829263 
L 367.356881 229.319902 
L 370.244393 227.868593 
L 373.038759 225.720656 
L 375.926271 223.601745 
L 378.813782 220.205682 
L 381.515003 219.102688 
L 384.402515 217.535274 
L 387.196881 215.822729 
L 390.084393 213.732845 
L 392.878759 212.049326 
L 395.766271 210.685096 
L 398.653782 207.753452 
L 401.448148 206.534352 
L 404.33566 202.935106 
L 407.130026 201.599902 
L 410.017538 200.787169 
L 412.90505 199.94541 
L 415.513125 199.161703 
L 418.400637 195.910771 
L 421.195003 193.588677 
L 424.082515 192.19542 
L 426.876881 191.266583 
L 429.764393 190.45385 
L 432.651904 188.596174 
L 435.446271 187.319023 
L 438.333782 186.099923 
L 441.128148 184.3003 
L 444.01566 181.223525 
L 446.903172 179.598059 
L 449.511247 177.479148 
L 452.398759 175.56342 
L 455.193125 173.473536 
" clip-path="url(#p6884de208c)" style="fill: none; stroke: #2ca02c; stroke-width: 1.5; stroke-linecap: square"/>
   </g>
   <g id="line2d_28">
    <path d="M 146.229369 280.086688 
L 149.023735 279.738373 
L 151.911247 279.302981 
L 154.705613 279.244928 
L 157.593125 278.983693 
L 160.480637 278.92564 
L 163.275003 278.809536 
L 166.162515 278.606352 
L 168.956881 278.577326 
L 171.844393 278.461222 
L 174.731904 278.258038 
L 177.339979 278.17096 
L 180.227491 277.967777 
L 183.021857 277.851672 
L 185.909369 277.619462 
L 188.703735 277.503358 
L 191.591247 277.445305 
L 194.478759 277.242122 
L 197.273125 277.067965 
L 200.160637 276.922834 
L 202.955003 276.835756 
L 205.842515 272.075462 
L 208.730026 271.320782 
L 211.338102 269.927525 
L 214.225613 269.347002 
L 217.019979 269.05674 
L 219.907491 268.621347 
L 222.701857 267.953745 
L 225.589369 267.489326 
L 228.476881 267.199064 
L 231.271247 266.937829 
L 234.158759 266.008991 
L 236.953125 265.515546 
L 239.840637 265.138206 
L 242.728148 263.948133 
L 245.429369 263.222478 
L 248.316881 262.845138 
L 251.111247 262.235588 
L 253.998759 261.771169 
L 256.793125 261.335777 
L 259.680637 261.103567 
L 262.568148 260.784279 
L 265.362515 260.523044 
L 268.250026 259.94252 
L 271.044393 259.449075 
L 273.931904 259.013682 
L 276.819416 258.229975 
L 279.427491 257.73653 
L 282.315003 257.243085 
L 285.109369 256.74964 
L 287.996881 256.256195 
L 290.791247 255.675672 
L 293.678759 255.153201 
L 296.566271 254.311441 
L 299.360637 251.786164 
L 302.248148 250.799274 
L 305.042515 250.538038 
L 307.930026 249.318939 
L 310.817538 248.796468 
L 313.425613 247.780551 
L 316.313125 247.374185 
L 319.107491 246.64853 
L 321.995003 245.2843 
L 324.789369 244.790855 
L 327.676881 243.542729 
L 330.564393 241.656028 
L 333.358759 239.7403 
L 336.246271 237.215023 
L 339.040637 236.431316 
L 341.928148 235.18319 
L 344.81566 233.906038 
L 347.423735 231.032447 
L 350.311247 227.839567 
L 353.105613 225.807735 
L 355.993125 222.643881 
L 358.787491 220.670101 
L 361.675003 218.7834 
L 364.562515 216.722541 
L 367.356881 215.648572 
L 370.244393 213.355504 
L 373.038759 212.0203 
L 375.926271 210.65607 
L 378.813782 208.885473 
L 381.515003 207.318059 
L 384.402515 205.344279 
L 387.196881 202.238478 
L 390.084393 198.465075 
L 392.878759 194.836803 
L 395.766271 189.757222 
L 398.653782 187.377075 
L 401.448148 184.503483 
L 404.33566 181.71697 
L 407.130026 179.423902 
L 410.017538 175.708551 
L 412.90505 172.196384 
L 415.513125 168.306876 
L 418.400637 164.649578 
L 421.195003 161.398646 
L 424.082515 158.728237 
L 426.876881 125.261054 
L 429.764393 118.294771 
L 432.651904 115.42118 
L 435.446271 110.544782 
L 438.333782 108.019504 
L 441.128148 104.013892 
L 444.01566 98.440866 
L 446.903172 94.493305 
L 449.511247 90.748928 
L 452.398759 87.439944 
L 455.193125 84.247064 
" clip-path="url(#p6884de208c)" style="fill: none; stroke: #ff7f0e; stroke-width: 1.5; stroke-linecap: square"/>
   </g>
   <g id="line2d_29">
    <path d="M 98.073125 280.086688 
L 100.867491 277.532384 
L 103.755003 277.532384 
L 106.642515 277.474331 
L 109.343735 277.445305 
L 112.231247 277.387253 
L 115.025613 277.329201 
L 117.913125 277.213096 
L 120.707491 277.067965 
L 123.595003 276.980886 
L 126.482515 276.95186 
L 129.276881 276.95186 
L 132.164393 276.893808 
L 134.958759 276.893808 
L 137.846271 276.864782 
L 140.733782 276.864782 
L 143.341857 276.603546 
L 146.229369 276.284258 
L 149.023735 275.96497 
L 151.911247 275.703735 
L 154.705613 275.413473 
L 157.593125 275.065159 
L 160.480637 274.658792 
L 163.275003 274.2234 
L 166.162515 273.933138 
L 168.956881 273.729955 
L 171.844393 273.497745 
L 174.731904 273.149431 
L 177.339979 272.975274 
L 180.227491 272.423777 
L 183.021857 272.075462 
L 185.909369 271.64007 
L 188.703735 271.291756 
L 191.591247 270.711232 
L 194.478759 270.014604 
L 197.273125 269.492133 
L 200.160637 268.766478 
L 202.955003 267.663483 
L 205.842515 265.950939 
L 208.730026 264.064237 
L 211.338102 262.670981 
L 214.225613 260.958436 
L 217.019979 259.216866 
L 219.907491 257.35919 
L 222.701857 255.298331 
L 225.589369 253.266499 
L 228.476881 251.408824 
L 231.271247 249.347965 
L 234.158759 246.561452 
L 236.953125 245.255274 
L 239.840637 243.774939 
L 242.728148 239.682248 
L 245.429369 238.14386 
L 248.316881 236.40229 
L 251.111247 234.834876 
L 253.998759 231.874206 
L 256.793125 230.103609 
L 259.680637 227.868593 
L 262.568148 225.836761 
L 265.362515 223.514667 
L 268.250026 221.540886 
L 271.044393 219.596133 
L 273.931904 217.506248 
L 276.819416 215.271232 
L 279.427491 213.152321 
L 282.315003 210.075546 
L 285.109369 207.927609 
L 287.996881 205.373305 
L 290.791247 202.586792 
L 293.678759 200.293724 
L 296.566271 197.36208 
L 299.360637 193.327441 
L 302.248148 189.786248 
L 305.042515 187.086813 
L 307.930026 182.761913 
L 310.817538 179.452928 
L 313.425613 176.550311 
L 316.313125 173.676719 
L 319.107491 170.657996 
L 321.995003 167.465117 
L 324.789369 164.939839 
L 327.676881 161.456698 
L 330.564393 157.160824 
L 333.358759 154.258206 
L 336.246271 151.384614 
L 339.040637 148.249787 
L 341.928148 145.202038 
L 344.81566 141.864028 
L 347.423735 139.164593 
L 350.311247 134.897745 
L 353.105613 131.501682 
L 355.993125 127.931462 
L 358.787491 124.941766 
L 361.675003 121.284468 
L 364.562515 117.859379 
L 367.356881 115.072866 
L 370.244393 111.444593 
L 373.038759 108.164635 
L 375.926271 104.884677 
L 378.813782 102.011085 
L 381.515003 98.382813 
L 384.402515 94.870646 
L 387.196881 91.474583 
L 390.084393 87.846311 
L 392.878759 84.334143 
L 395.766271 81.141263 
L 398.653782 77.280782 
L 401.448148 73.594457 
L 404.33566 70.488656 
L 407.130026 67.440907 
L 410.017538 64.102897 
L 412.90505 60.939044 
L 415.513125 57.717138 
L 418.400637 53.798604 
L 421.195003 49.851044 
L 424.082515 46.019588 
L 426.876881 43.175023 
L 429.764393 40.736824 
L 432.651904 37.660049 
L 435.446271 35.250876 
L 438.333782 32.493389 
L 441.128148 30.026164 
L 444.01566 26.775232 
L 446.903172 23.843588 
L 449.511247 20.795839 
L 452.398759 17.225619 
L 455.193125 13.974688 
" clip-path="url(#p6884de208c)" style="fill: none; stroke: #1f77b4; stroke-width: 1.5; stroke-linecap: square"/>
   </g>
  </g>
 </g>
 <defs>
  <clipPath id="p6884de208c">
   <rect x="98.073125" y="13.974688" width="357.12" height="266.112"/>
  </clipPath>
 </defs>
</svg>
