<?xml version="1.0" encoding="utf-8" standalone="no"?>
<!DOCTYPE svg PUBLIC "-//W3C//DTD SVG 1.1//EN"
  "http://www.w3.org/Graphics/SVG/1.1/DTD/svg11.dtd">
<svg xmlns:xlink="http://www.w3.org/1999/xlink" width="578.778288pt" height="324.377873pt" viewBox="0 0 578.778288 324.377873" xmlns="http://www.w3.org/2000/svg" version="1.1">
 <metadata>
  <rdf:RDF xmlns:dc="http://purl.org/dc/elements/1.1/" xmlns:cc="http://creativecommons.org/ns#" xmlns:rdf="http://www.w3.org/1999/02/22-rdf-syntax-ns#">
   <cc:Work>
    <dc:type rdf:resource="http://purl.org/dc/dcmitype/StillImage"/>
    <dc:date>2022-05-01T14:42:06.575116</dc:date>
    <dc:format>image/svg+xml</dc:format>
    <dc:creator>
     <cc:Agent>
      <dc:title>Matplotlib v3.5.1, https://matplotlib.org/</dc:title>
     </cc:Agent>
    </dc:creator>
   </cc:Work>
  </rdf:RDF>
 </metadata>
 <defs>
  <style type="text/css">*{stroke-linejoin: round; stroke-linecap: butt}</style>
 </defs>
 <g id="figure_1">
  <g id="patch_1">
   <path d="M 0 324.377873 
L 578.778288 324.377873 
L 578.778288 0 
L 0 0 
L 0 324.377873 
z
" style="fill: none"/>
  </g>
  <g id="axes_1">
   <g id="patch_2">
    <path d="M 98.073125 280.850673 
L 455.193125 280.850673 
L 455.193125 14.738673 
L 98.073125 14.738673 
L 98.073125 280.850673 
z
" style="fill: none"/>
   </g>
   <g id="matplotlib.axis_1">
    <g id="xtick_1">
     <g id="line2d_1">
      <defs>
       <path id="m82c8101c8a" d="M 0 0 
L 0 3.5 
" style="stroke: #b0b0b0; stroke-width: 0.4"/>
      </defs>
      <g>
       <use xlink:href="#m82c8101c8a" x="124.863691" y="280.850673" style="fill: #b0b0b0; stroke: #b0b0b0; stroke-width: 0.4"/>
      </g>
     </g>
     <g id="text_1">
      <!-- 2012 -->
      <g style="fill: #b0b0b0" transform="translate(107.048691 298.488485)scale(0.14 -0.14)">
       <defs>
        <path id="DejaVuSans-32" d="M 1228 531 
L 3431 531 
L 3431 0 
L 469 0 
L 469 531 
Q 828 903 1448 1529 
Q 2069 2156 2228 2338 
Q 2531 2678 2651 2914 
Q 2772 3150 2772 3378 
Q 2772 3750 2511 3984 
Q 2250 4219 1831 4219 
Q 1534 4219 1204 4116 
Q 875 4013 500 3803 
L 500 4441 
Q 881 4594 1212 4672 
Q 1544 4750 1819 4750 
Q 2544 4750 2975 4387 
Q 3406 4025 3406 3419 
Q 3406 3131 3298 2873 
Q 3191 2616 2906 2266 
Q 2828 2175 2409 1742 
Q 1991 1309 1228 531 
z
" transform="scale(0.015625)"/>
        <path id="DejaVuSans-30" d="M 2034 4250 
Q 1547 4250 1301 3770 
Q 1056 3291 1056 2328 
Q 1056 1369 1301 889 
Q 1547 409 2034 409 
Q 2525 409 2770 889 
Q 3016 1369 3016 2328 
Q 3016 3291 2770 3770 
Q 2525 4250 2034 4250 
z
M 2034 4750 
Q 2819 4750 3233 4129 
Q 3647 3509 3647 2328 
Q 3647 1150 3233 529 
Q 2819 -91 2034 -91 
Q 1250 -91 836 529 
Q 422 1150 422 2328 
Q 422 3509 836 4129 
Q 1250 4750 2034 4750 
z
" transform="scale(0.015625)"/>
        <path id="DejaVuSans-31" d="M 794 531 
L 1825 531 
L 1825 4091 
L 703 3866 
L 703 4441 
L 1819 4666 
L 2450 4666 
L 2450 531 
L 3481 531 
L 3481 0 
L 794 0 
L 794 531 
z
" transform="scale(0.015625)"/>
       </defs>
       <use xlink:href="#DejaVuSans-32"/>
       <use xlink:href="#DejaVuSans-30" x="63.623047"/>
       <use xlink:href="#DejaVuSans-31" x="127.246094"/>
       <use xlink:href="#DejaVuSans-32" x="190.869141"/>
      </g>
     </g>
    </g>
    <g id="xtick_2">
     <g id="line2d_2">
      <g>
       <use xlink:href="#m82c8101c8a" x="188.863378" y="280.850673" style="fill: #b0b0b0; stroke: #b0b0b0; stroke-width: 0.4"/>
      </g>
     </g>
     <g id="text_2">
      <!-- 2014 -->
      <g style="fill: #b0b0b0" transform="translate(171.048378 298.488485)scale(0.14 -0.14)">
       <defs>
        <path id="DejaVuSans-34" d="M 2419 4116 
L 825 1625 
L 2419 1625 
L 2419 4116 
z
M 2253 4666 
L 3047 4666 
L 3047 1625 
L 3713 1625 
L 3713 1100 
L 3047 1100 
L 3047 0 
L 2419 0 
L 2419 1100 
L 313 1100 
L 313 1709 
L 2253 4666 
z
" transform="scale(0.015625)"/>
       </defs>
       <use xlink:href="#DejaVuSans-32"/>
       <use xlink:href="#DejaVuSans-30" x="63.623047"/>
       <use xlink:href="#DejaVuSans-31" x="127.246094"/>
       <use xlink:href="#DejaVuSans-34" x="190.869141"/>
      </g>
     </g>
    </g>
    <g id="xtick_3">
     <g id="line2d_3">
      <g>
       <use xlink:href="#m82c8101c8a" x="252.775513" y="280.850673" style="fill: #b0b0b0; stroke: #b0b0b0; stroke-width: 0.4"/>
      </g>
     </g>
     <g id="text_3">
      <!-- 2016 -->
      <g style="fill: #b0b0b0" transform="translate(234.960513 298.488485)scale(0.14 -0.14)">
       <defs>
        <path id="DejaVuSans-36" d="M 2113 2584 
Q 1688 2584 1439 2293 
Q 1191 2003 1191 1497 
Q 1191 994 1439 701 
Q 1688 409 2113 409 
Q 2538 409 2786 701 
Q 3034 994 3034 1497 
Q 3034 2003 2786 2293 
Q 2538 2584 2113 2584 
z
M 3366 4563 
L 3366 3988 
Q 3128 4100 2886 4159 
Q 2644 4219 2406 4219 
Q 1781 4219 1451 3797 
Q 1122 3375 1075 2522 
Q 1259 2794 1537 2939 
Q 1816 3084 2150 3084 
Q 2853 3084 3261 2657 
Q 3669 2231 3669 1497 
Q 3669 778 3244 343 
Q 2819 -91 2113 -91 
Q 1303 -91 875 529 
Q 447 1150 447 2328 
Q 447 3434 972 4092 
Q 1497 4750 2381 4750 
Q 2619 4750 2861 4703 
Q 3103 4656 3366 4563 
z
" transform="scale(0.015625)"/>
       </defs>
       <use xlink:href="#DejaVuSans-32"/>
       <use xlink:href="#DejaVuSans-30" x="63.623047"/>
       <use xlink:href="#DejaVuSans-31" x="127.246094"/>
       <use xlink:href="#DejaVuSans-36" x="190.869141"/>
      </g>
     </g>
    </g>
    <g id="xtick_4">
     <g id="line2d_4">
      <g>
       <use xlink:href="#m82c8101c8a" x="316.775199" y="280.850673" style="fill: #b0b0b0; stroke: #b0b0b0; stroke-width: 0.4"/>
      </g>
     </g>
     <g id="text_4">
      <!-- 2018 -->
      <g style="fill: #b0b0b0" transform="translate(298.960199 298.488485)scale(0.14 -0.14)">
       <defs>
        <path id="DejaVuSans-38" d="M 2034 2216 
Q 1584 2216 1326 1975 
Q 1069 1734 1069 1313 
Q 1069 891 1326 650 
Q 1584 409 2034 409 
Q 2484 409 2743 651 
Q 3003 894 3003 1313 
Q 3003 1734 2745 1975 
Q 2488 2216 2034 2216 
z
M 1403 2484 
Q 997 2584 770 2862 
Q 544 3141 544 3541 
Q 544 4100 942 4425 
Q 1341 4750 2034 4750 
Q 2731 4750 3128 4425 
Q 3525 4100 3525 3541 
Q 3525 3141 3298 2862 
Q 3072 2584 2669 2484 
Q 3125 2378 3379 2068 
Q 3634 1759 3634 1313 
Q 3634 634 3220 271 
Q 2806 -91 2034 -91 
Q 1263 -91 848 271 
Q 434 634 434 1313 
Q 434 1759 690 2068 
Q 947 2378 1403 2484 
z
M 1172 3481 
Q 1172 3119 1398 2916 
Q 1625 2713 2034 2713 
Q 2441 2713 2670 2916 
Q 2900 3119 2900 3481 
Q 2900 3844 2670 4047 
Q 2441 4250 2034 4250 
Q 1625 4250 1398 4047 
Q 1172 3844 1172 3481 
z
" transform="scale(0.015625)"/>
       </defs>
       <use xlink:href="#DejaVuSans-32"/>
       <use xlink:href="#DejaVuSans-30" x="63.623047"/>
       <use xlink:href="#DejaVuSans-31" x="127.246094"/>
       <use xlink:href="#DejaVuSans-38" x="190.869141"/>
      </g>
     </g>
    </g>
    <g id="xtick_5">
     <g id="line2d_5">
      <g>
       <use xlink:href="#m82c8101c8a" x="380.687334" y="280.850673" style="fill: #b0b0b0; stroke: #b0b0b0; stroke-width: 0.4"/>
      </g>
     </g>
     <g id="text_5">
      <!-- 2020 -->
      <g style="fill: #b0b0b0" transform="translate(362.872334 298.488485)scale(0.14 -0.14)">
       <use xlink:href="#DejaVuSans-32"/>
       <use xlink:href="#DejaVuSans-30" x="63.623047"/>
       <use xlink:href="#DejaVuSans-32" x="127.246094"/>
       <use xlink:href="#DejaVuSans-30" x="190.869141"/>
      </g>
     </g>
    </g>
    <g id="xtick_6">
     <g id="line2d_6">
      <g>
       <use xlink:href="#m82c8101c8a" x="444.687021" y="280.850673" style="fill: #b0b0b0; stroke: #b0b0b0; stroke-width: 0.4"/>
      </g>
     </g>
     <g id="text_6">
      <!-- 2022 -->
      <g style="fill: #b0b0b0" transform="translate(426.872021 298.488485)scale(0.14 -0.14)">
       <use xlink:href="#DejaVuSans-32"/>
       <use xlink:href="#DejaVuSans-30" x="63.623047"/>
       <use xlink:href="#DejaVuSans-32" x="127.246094"/>
       <use xlink:href="#DejaVuSans-32" x="190.869141"/>
      </g>
     </g>
    </g>
   </g>
   <g id="matplotlib.axis_2">
    <g id="ytick_1">
     <g id="line2d_7">
      <path d="M 98.073125 280.850673 
L 455.193125 280.850673 
" clip-path="url(#pfe47a92351)" style="fill: none; stroke: #b0b0b0; stroke-width: 0.3; stroke-linecap: square"/>
     </g>
     <g id="line2d_8">
      <defs>
       <path id="mc81e1343fa" d="M 0 0 
L -3.5 0 
" style="stroke: #b0b0b0; stroke-width: 0.3"/>
      </defs>
      <g>
       <use xlink:href="#mc81e1343fa" x="98.073125" y="280.850673" style="fill: #b0b0b0; stroke: #b0b0b0; stroke-width: 0.3"/>
      </g>
     </g>
     <g id="text_7">
      <!-- 0 -->
      <g style="fill: #b0b0b0" transform="translate(82.165625 286.169579)scale(0.14 -0.14)">
       <use xlink:href="#DejaVuSans-30"/>
      </g>
     </g>
    </g>
    <g id="ytick_2">
     <g id="line2d_9">
      <path d="M 98.073125 247.494945 
L 455.193125 247.494945 
" clip-path="url(#pfe47a92351)" style="fill: none; stroke: #b0b0b0; stroke-width: 0.3; stroke-linecap: square"/>
     </g>
     <g id="line2d_10">
      <g>
       <use xlink:href="#mc81e1343fa" x="98.073125" y="247.494945" style="fill: #b0b0b0; stroke: #b0b0b0; stroke-width: 0.3"/>
      </g>
     </g>
     <g id="text_8">
      <!-- 1000 -->
      <g style="fill: #b0b0b0" transform="translate(55.443125 252.813851)scale(0.14 -0.14)">
       <use xlink:href="#DejaVuSans-31"/>
       <use xlink:href="#DejaVuSans-30" x="63.623047"/>
       <use xlink:href="#DejaVuSans-30" x="127.246094"/>
       <use xlink:href="#DejaVuSans-30" x="190.869141"/>
      </g>
     </g>
    </g>
    <g id="ytick_3">
     <g id="line2d_11">
      <path d="M 98.073125 214.139216 
L 455.193125 214.139216 
" clip-path="url(#pfe47a92351)" style="fill: none; stroke: #b0b0b0; stroke-width: 0.3; stroke-linecap: square"/>
     </g>
     <g id="line2d_12">
      <g>
       <use xlink:href="#mc81e1343fa" x="98.073125" y="214.139216" style="fill: #b0b0b0; stroke: #b0b0b0; stroke-width: 0.3"/>
      </g>
     </g>
     <g id="text_9">
      <!-- 2000 -->
      <g style="fill: #b0b0b0" transform="translate(55.443125 219.458123)scale(0.14 -0.14)">
       <use xlink:href="#DejaVuSans-32"/>
       <use xlink:href="#DejaVuSans-30" x="63.623047"/>
       <use xlink:href="#DejaVuSans-30" x="127.246094"/>
       <use xlink:href="#DejaVuSans-30" x="190.869141"/>
      </g>
     </g>
    </g>
    <g id="ytick_4">
     <g id="line2d_13">
      <path d="M 98.073125 180.783488 
L 455.193125 180.783488 
" clip-path="url(#pfe47a92351)" style="fill: none; stroke: #b0b0b0; stroke-width: 0.3; stroke-linecap: square"/>
     </g>
     <g id="line2d_14">
      <g>
       <use xlink:href="#mc81e1343fa" x="98.073125" y="180.783488" style="fill: #b0b0b0; stroke: #b0b0b0; stroke-width: 0.3"/>
      </g>
     </g>
     <g id="text_10">
      <!-- 3000 -->
      <g style="fill: #b0b0b0" transform="translate(55.443125 186.102394)scale(0.14 -0.14)">
       <defs>
        <path id="DejaVuSans-33" d="M 2597 2516 
Q 3050 2419 3304 2112 
Q 3559 1806 3559 1356 
Q 3559 666 3084 287 
Q 2609 -91 1734 -91 
Q 1441 -91 1130 -33 
Q 819 25 488 141 
L 488 750 
Q 750 597 1062 519 
Q 1375 441 1716 441 
Q 2309 441 2620 675 
Q 2931 909 2931 1356 
Q 2931 1769 2642 2001 
Q 2353 2234 1838 2234 
L 1294 2234 
L 1294 2753 
L 1863 2753 
Q 2328 2753 2575 2939 
Q 2822 3125 2822 3475 
Q 2822 3834 2567 4026 
Q 2313 4219 1838 4219 
Q 1578 4219 1281 4162 
Q 984 4106 628 3988 
L 628 4550 
Q 988 4650 1302 4700 
Q 1616 4750 1894 4750 
Q 2613 4750 3031 4423 
Q 3450 4097 3450 3541 
Q 3450 3153 3228 2886 
Q 3006 2619 2597 2516 
z
" transform="scale(0.015625)"/>
       </defs>
       <use xlink:href="#DejaVuSans-33"/>
       <use xlink:href="#DejaVuSans-30" x="63.623047"/>
       <use xlink:href="#DejaVuSans-30" x="127.246094"/>
       <use xlink:href="#DejaVuSans-30" x="190.869141"/>
      </g>
     </g>
    </g>
    <g id="ytick_5">
     <g id="line2d_15">
      <path d="M 98.073125 147.42776 
L 455.193125 147.42776 
" clip-path="url(#pfe47a92351)" style="fill: none; stroke: #b0b0b0; stroke-width: 0.3; stroke-linecap: square"/>
     </g>
     <g id="line2d_16">
      <g>
       <use xlink:href="#mc81e1343fa" x="98.073125" y="147.42776" style="fill: #b0b0b0; stroke: #b0b0b0; stroke-width: 0.3"/>
      </g>
     </g>
     <g id="text_11">
      <!-- 4000 -->
      <g style="fill: #b0b0b0" transform="translate(55.443125 152.746666)scale(0.14 -0.14)">
       <use xlink:href="#DejaVuSans-34"/>
       <use xlink:href="#DejaVuSans-30" x="63.623047"/>
       <use xlink:href="#DejaVuSans-30" x="127.246094"/>
       <use xlink:href="#DejaVuSans-30" x="190.869141"/>
      </g>
     </g>
    </g>
    <g id="ytick_6">
     <g id="line2d_17">
      <path d="M 98.073125 114.072032 
L 455.193125 114.072032 
" clip-path="url(#pfe47a92351)" style="fill: none; stroke: #b0b0b0; stroke-width: 0.3; stroke-linecap: square"/>
     </g>
     <g id="line2d_18">
      <g>
       <use xlink:href="#mc81e1343fa" x="98.073125" y="114.072032" style="fill: #b0b0b0; stroke: #b0b0b0; stroke-width: 0.3"/>
      </g>
     </g>
     <g id="text_12">
      <!-- 5000 -->
      <g style="fill: #b0b0b0" transform="translate(55.443125 119.390938)scale(0.14 -0.14)">
       <defs>
        <path id="DejaVuSans-35" d="M 691 4666 
L 3169 4666 
L 3169 4134 
L 1269 4134 
L 1269 2991 
Q 1406 3038 1543 3061 
Q 1681 3084 1819 3084 
Q 2600 3084 3056 2656 
Q 3513 2228 3513 1497 
Q 3513 744 3044 326 
Q 2575 -91 1722 -91 
Q 1428 -91 1123 -41 
Q 819 9 494 109 
L 494 744 
Q 775 591 1075 516 
Q 1375 441 1709 441 
Q 2250 441 2565 725 
Q 2881 1009 2881 1497 
Q 2881 1984 2565 2268 
Q 2250 2553 1709 2553 
Q 1456 2553 1204 2497 
Q 953 2441 691 2322 
L 691 4666 
z
" transform="scale(0.015625)"/>
       </defs>
       <use xlink:href="#DejaVuSans-35"/>
       <use xlink:href="#DejaVuSans-30" x="63.623047"/>
       <use xlink:href="#DejaVuSans-30" x="127.246094"/>
       <use xlink:href="#DejaVuSans-30" x="190.869141"/>
      </g>
     </g>
    </g>
    <g id="ytick_7">
     <g id="line2d_19">
      <path d="M 98.073125 80.716303 
L 455.193125 80.716303 
" clip-path="url(#pfe47a92351)" style="fill: none; stroke: #b0b0b0; stroke-width: 0.3; stroke-linecap: square"/>
     </g>
     <g id="line2d_20">
      <g>
       <use xlink:href="#mc81e1343fa" x="98.073125" y="80.716303" style="fill: #b0b0b0; stroke: #b0b0b0; stroke-width: 0.3"/>
      </g>
     </g>
     <g id="text_13">
      <!-- 6000 -->
      <g style="fill: #b0b0b0" transform="translate(55.443125 86.03521)scale(0.14 -0.14)">
       <use xlink:href="#DejaVuSans-36"/>
       <use xlink:href="#DejaVuSans-30" x="63.623047"/>
       <use xlink:href="#DejaVuSans-30" x="127.246094"/>
       <use xlink:href="#DejaVuSans-30" x="190.869141"/>
      </g>
     </g>
    </g>
    <g id="ytick_8">
     <g id="line2d_21">
      <path d="M 98.073125 47.360575 
L 455.193125 47.360575 
" clip-path="url(#pfe47a92351)" style="fill: none; stroke: #b0b0b0; stroke-width: 0.3; stroke-linecap: square"/>
     </g>
     <g id="line2d_22">
      <g>
       <use xlink:href="#mc81e1343fa" x="98.073125" y="47.360575" style="fill: #b0b0b0; stroke: #b0b0b0; stroke-width: 0.3"/>
      </g>
     </g>
     <g id="text_14">
      <!-- 7000 -->
      <g style="fill: #b0b0b0" transform="translate(55.443125 52.679481)scale(0.14 -0.14)">
       <defs>
        <path id="DejaVuSans-37" d="M 525 4666 
L 3525 4666 
L 3525 4397 
L 1831 0 
L 1172 0 
L 2766 4134 
L 525 4134 
L 525 4666 
z
" transform="scale(0.015625)"/>
       </defs>
       <use xlink:href="#DejaVuSans-37"/>
       <use xlink:href="#DejaVuSans-30" x="63.623047"/>
       <use xlink:href="#DejaVuSans-30" x="127.246094"/>
       <use xlink:href="#DejaVuSans-30" x="190.869141"/>
      </g>
     </g>
    </g>
    <g id="text_15">
     <!-- GitHub stars -->
     <g style="fill: #b0b0b0" transform="translate(7.2 17.837812)scale(0.14 -0.14)">
      <defs>
       <path id="DejaVuSans-47" d="M 3809 666 
L 3809 1919 
L 2778 1919 
L 2778 2438 
L 4434 2438 
L 4434 434 
Q 4069 175 3628 42 
Q 3188 -91 2688 -91 
Q 1594 -91 976 548 
Q 359 1188 359 2328 
Q 359 3472 976 4111 
Q 1594 4750 2688 4750 
Q 3144 4750 3555 4637 
Q 3966 4525 4313 4306 
L 4313 3634 
Q 3963 3931 3569 4081 
Q 3175 4231 2741 4231 
Q 1884 4231 1454 3753 
Q 1025 3275 1025 2328 
Q 1025 1384 1454 906 
Q 1884 428 2741 428 
Q 3075 428 3337 486 
Q 3600 544 3809 666 
z
" transform="scale(0.015625)"/>
       <path id="DejaVuSans-69" d="M 603 3500 
L 1178 3500 
L 1178 0 
L 603 0 
L 603 3500 
z
M 603 4863 
L 1178 4863 
L 1178 4134 
L 603 4134 
L 603 4863 
z
" transform="scale(0.015625)"/>
       <path id="DejaVuSans-74" d="M 1172 4494 
L 1172 3500 
L 2356 3500 
L 2356 3053 
L 1172 3053 
L 1172 1153 
Q 1172 725 1289 603 
Q 1406 481 1766 481 
L 2356 481 
L 2356 0 
L 1766 0 
Q 1100 0 847 248 
Q 594 497 594 1153 
L 594 3053 
L 172 3053 
L 172 3500 
L 594 3500 
L 594 4494 
L 1172 4494 
z
" transform="scale(0.015625)"/>
       <path id="DejaVuSans-48" d="M 628 4666 
L 1259 4666 
L 1259 2753 
L 3553 2753 
L 3553 4666 
L 4184 4666 
L 4184 0 
L 3553 0 
L 3553 2222 
L 1259 2222 
L 1259 0 
L 628 0 
L 628 4666 
z
" transform="scale(0.015625)"/>
       <path id="DejaVuSans-75" d="M 544 1381 
L 544 3500 
L 1119 3500 
L 1119 1403 
Q 1119 906 1312 657 
Q 1506 409 1894 409 
Q 2359 409 2629 706 
Q 2900 1003 2900 1516 
L 2900 3500 
L 3475 3500 
L 3475 0 
L 2900 0 
L 2900 538 
Q 2691 219 2414 64 
Q 2138 -91 1772 -91 
Q 1169 -91 856 284 
Q 544 659 544 1381 
z
M 1991 3584 
L 1991 3584 
z
" transform="scale(0.015625)"/>
       <path id="DejaVuSans-62" d="M 3116 1747 
Q 3116 2381 2855 2742 
Q 2594 3103 2138 3103 
Q 1681 3103 1420 2742 
Q 1159 2381 1159 1747 
Q 1159 1113 1420 752 
Q 1681 391 2138 391 
Q 2594 391 2855 752 
Q 3116 1113 3116 1747 
z
M 1159 2969 
Q 1341 3281 1617 3432 
Q 1894 3584 2278 3584 
Q 2916 3584 3314 3078 
Q 3713 2572 3713 1747 
Q 3713 922 3314 415 
Q 2916 -91 2278 -91 
Q 1894 -91 1617 61 
Q 1341 213 1159 525 
L 1159 0 
L 581 0 
L 581 4863 
L 1159 4863 
L 1159 2969 
z
" transform="scale(0.015625)"/>
       <path id="DejaVuSans-20" transform="scale(0.015625)"/>
       <path id="DejaVuSans-73" d="M 2834 3397 
L 2834 2853 
Q 2591 2978 2328 3040 
Q 2066 3103 1784 3103 
Q 1356 3103 1142 2972 
Q 928 2841 928 2578 
Q 928 2378 1081 2264 
Q 1234 2150 1697 2047 
L 1894 2003 
Q 2506 1872 2764 1633 
Q 3022 1394 3022 966 
Q 3022 478 2636 193 
Q 2250 -91 1575 -91 
Q 1294 -91 989 -36 
Q 684 19 347 128 
L 347 722 
Q 666 556 975 473 
Q 1284 391 1588 391 
Q 1994 391 2212 530 
Q 2431 669 2431 922 
Q 2431 1156 2273 1281 
Q 2116 1406 1581 1522 
L 1381 1569 
Q 847 1681 609 1914 
Q 372 2147 372 2553 
Q 372 3047 722 3315 
Q 1072 3584 1716 3584 
Q 2034 3584 2315 3537 
Q 2597 3491 2834 3397 
z
" transform="scale(0.015625)"/>
       <path id="DejaVuSans-61" d="M 2194 1759 
Q 1497 1759 1228 1600 
Q 959 1441 959 1056 
Q 959 750 1161 570 
Q 1363 391 1709 391 
Q 2188 391 2477 730 
Q 2766 1069 2766 1631 
L 2766 1759 
L 2194 1759 
z
M 3341 1997 
L 3341 0 
L 2766 0 
L 2766 531 
Q 2569 213 2275 61 
Q 1981 -91 1556 -91 
Q 1019 -91 701 211 
Q 384 513 384 1019 
Q 384 1609 779 1909 
Q 1175 2209 1959 2209 
L 2766 2209 
L 2766 2266 
Q 2766 2663 2505 2880 
Q 2244 3097 1772 3097 
Q 1472 3097 1187 3025 
Q 903 2953 641 2809 
L 641 3341 
Q 956 3463 1253 3523 
Q 1550 3584 1831 3584 
Q 2591 3584 2966 3190 
Q 3341 2797 3341 1997 
z
" transform="scale(0.015625)"/>
       <path id="DejaVuSans-72" d="M 2631 2963 
Q 2534 3019 2420 3045 
Q 2306 3072 2169 3072 
Q 1681 3072 1420 2755 
Q 1159 2438 1159 1844 
L 1159 0 
L 581 0 
L 581 3500 
L 1159 3500 
L 1159 2956 
Q 1341 3275 1631 3429 
Q 1922 3584 2338 3584 
Q 2397 3584 2469 3576 
Q 2541 3569 2628 3553 
L 2631 2963 
z
" transform="scale(0.015625)"/>
      </defs>
      <use xlink:href="#DejaVuSans-47"/>
      <use xlink:href="#DejaVuSans-69" x="77.490234"/>
      <use xlink:href="#DejaVuSans-74" x="105.273438"/>
      <use xlink:href="#DejaVuSans-48" x="144.482422"/>
      <use xlink:href="#DejaVuSans-75" x="219.677734"/>
      <use xlink:href="#DejaVuSans-62" x="283.056641"/>
      <use xlink:href="#DejaVuSans-20" x="346.533203"/>
      <use xlink:href="#DejaVuSans-73" x="378.320312"/>
      <use xlink:href="#DejaVuSans-74" x="430.419922"/>
      <use xlink:href="#DejaVuSans-61" x="469.628906"/>
      <use xlink:href="#DejaVuSans-72" x="530.908203"/>
      <use xlink:href="#DejaVuSans-73" x="572.021484"/>
     </g>
    </g>
   </g>
   <g id="line2d_23">
    <path d="M 207.424162 280.850673 
L 210.138239 272.211539 
L 212.764765 270.810599 
L 215.478842 270.343618 
L 218.105368 269.342947 
L 220.819445 268.742543 
L 223.533522 267.741872 
L 225.984947 267.475026 
L 228.699024 266.97469 
L 231.32555 266.607777 
L 234.039627 265.740528 
L 236.666153 265.206836 
L 239.38023 264.539722 
L 242.094307 264.00603 
L 244.720833 263.53905 
L 247.43491 263.005358 
L 250.061436 262.638445 
L 252.775513 262.104753 
L 255.48959 261.470995 
L 258.028565 260.637101 
L 260.742642 260.236833 
L 263.369168 259.469651 
L 266.083245 258.902604 
L 268.709771 258.135422 
L 271.423848 257.668442 
L 274.137925 257.234817 
L 276.764451 256.20079 
L 279.478528 255.500319 
L 282.105054 254.699782 
L 284.819131 254.232802 
L 287.533208 253.46562 
L 289.984633 252.231458 
L 292.69871 251.364209 
L 295.325236 250.463604 
L 298.039313 249.629711 
L 300.665839 248.595684 
L 303.379916 247.561656 
L 306.093993 246.861186 
L 308.720519 245.360178 
L 311.434596 243.192056 
L 314.061122 241.624336 
L 316.775199 240.65702 
L 319.489276 239.622993 
L 321.9407 234.01923 
L 324.654777 232.3848 
L 327.281303 231.017215 
L 329.99538 229.64963 
L 332.621907 228.582247 
L 335.335984 227.047883 
L 338.050061 226.047211 
L 340.676587 225.079895 
L 343.390664 223.578887 
L 346.01719 222.644927 
L 348.731267 221.043852 
L 351.445344 220.410093 
L 353.896768 219.309354 
L 356.610845 218.442105 
L 359.237371 217.741635 
L 361.951448 217.274655 
L 364.577974 217.141232 
L 367.292051 217.07452 
L 370.006128 217.07452 
L 372.632654 216.941097 
L 375.346731 216.807675 
L 377.973257 216.60754 
L 380.687334 216.540829 
L 383.401411 216.474117 
L 385.940387 216.307339 
L 388.654464 216.14056 
L 391.28099 216.073849 
L 393.995067 215.90707 
L 396.621593 215.67358 
L 399.33567 215.540157 
L 402.049747 215.44009 
L 404.676273 215.239955 
L 407.39035 215.173244 
L 410.016876 215.139888 
L 412.730953 215.073177 
L 415.44503 215.006465 
L 417.896454 214.906398 
L 420.610531 214.806331 
L 423.237057 214.739619 
L 425.951134 214.606196 
L 428.57766 214.539485 
L 431.291737 214.439418 
L 434.005814 214.339351 
L 436.63234 214.272639 
L 439.346417 214.205928 
L 441.972944 214.172572 
L 444.687021 214.172572 
L 447.401098 214.072505 
L 449.852522 214.005793 
L 452.566599 214.005793 
L 455.193125 213.939082 
" clip-path="url(#pfe47a92351)" style="fill: none; stroke: #2ca02c; stroke-width: 1.5; stroke-linecap: square"/>
   </g>
   <g id="line2d_24">
    <path d="M 340.676587 280.850673 
L 343.390664 279.416376 
L 346.01719 278.749262 
L 348.731267 277.114831 
L 351.445344 275.680535 
L 353.896768 272.078116 
L 356.610845 268.642476 
L 359.237371 266.27422 
L 361.951448 263.07207 
L 364.577974 261.27086 
L 367.292051 258.368912 
L 370.006128 254.39958 
L 372.632654 251.697766 
L 375.346731 248.962597 
L 377.973257 240.990578 
L 380.687334 237.421515 
L 383.401411 234.219365 
L 385.940387 229.482851 
L 388.654464 225.480164 
L 391.28099 218.108548 
L 393.995067 212.604853 
L 396.621593 208.602165 
L 399.33567 203.298605 
L 402.049747 198.628803 
L 404.676273 195.393297 
L 407.39035 191.557388 
L 410.016876 188.155104 
L 412.730953 182.984966 
L 415.44503 178.34852 
L 417.896454 174.479255 
L 420.610531 170.409857 
L 423.237057 166.106968 
L 425.951134 160.836763 
L 428.57766 154.465818 
L 431.291737 151.497159 
L 434.005814 147.627894 
L 436.63234 144.392388 
L 439.346417 140.956748 
L 441.972944 137.754599 
L 444.687021 133.45171 
L 447.401098 128.781908 
L 449.852522 124.178817 
L 452.566599 119.042035 
L 455.193125 114.905925 
" clip-path="url(#pfe47a92351)" style="fill: none; stroke: #ff7f0e; stroke-width: 1.5; stroke-linecap: square"/>
   </g>
   <g id="line2d_25">
    <path d="M 98.073125 280.850673 
L 100.787202 267.341603 
L 103.413728 267.174824 
L 106.127805 266.641133 
L 111.468408 266.040729 
L 122.149614 265.073413 
L 127.577768 264.739856 
L 135.457347 264.172809 
L 146.226104 263.805896 
L 154.193233 263.77254 
L 156.90731 263.639117 
L 159.621387 263.639117 
L 162.072811 262.805224 
L 164.786888 261.237505 
L 167.413414 260.370256 
L 170.127491 259.269517 
L 172.754017 257.768509 
L 175.468094 255.967299 
L 180.808697 253.665754 
L 183.522774 252.831861 
L 186.149301 251.664411 
L 188.863378 250.230114 
L 191.577454 248.262126 
L 194.028879 247.027964 
L 196.742956 245.093332 
L 199.369482 242.825143 
L 202.083559 240.790443 
L 204.710085 239.089301 
L 207.424162 236.721044 
L 210.138239 234.919835 
L 212.764765 233.752384 
L 215.478842 231.884464 
L 218.105368 230.450167 
L 225.984947 224.479492 
L 228.699024 221.377409 
L 231.32555 219.409421 
L 234.039627 217.041165 
L 242.094307 211.337335 
L 244.720833 209.50277 
L 247.43491 208.068474 
L 250.061436 205.83364 
L 252.775513 204.265921 
L 255.48959 201.864308 
L 258.028565 200.196522 
L 266.083245 194.025712 
L 268.709771 191.524033 
L 271.423848 189.389266 
L 274.137925 186.754163 
L 282.105054 180.383219 
L 287.533208 176.814156 
L 289.984633 174.579323 
L 292.69871 171.910864 
L 295.325236 170.209722 
L 298.039313 168.74207 
L 300.665839 166.273746 
L 303.379916 164.205691 
L 306.093993 161.337098 
L 311.434596 157.934814 
L 314.061122 155.833403 
L 319.489276 151.030178 
L 321.9407 149.06219 
L 324.654777 146.560511 
L 327.281303 142.391045 
L 329.99538 139.288962 
L 332.621907 137.087484 
L 335.335984 133.21822 
L 338.050061 130.149493 
L 340.676587 126.380295 
L 343.390664 123.14479 
L 348.731267 117.874585 
L 351.445344 115.606395 
L 353.896768 113.338205 
L 356.610845 110.636391 
L 359.237371 108.501625 
L 367.292051 101.330143 
L 370.006128 99.262088 
L 372.632654 97.027254 
L 375.346731 93.424836 
L 380.687334 88.621611 
L 383.401411 85.919797 
L 388.654464 80.215967 
L 391.28099 77.14724 
L 393.995067 74.512138 
L 399.33567 70.376027 
L 402.049747 67.640858 
L 404.676273 65.839648 
L 407.39035 63.371325 
L 410.016876 61.236558 
L 412.730953 58.067764 
L 415.44503 54.198499 
L 417.896454 52.464001 
L 420.610531 50.229168 
L 425.951134 43.457955 
L 431.291737 38.087683 
L 434.005814 35.952916 
L 439.346417 31.31647 
L 441.972944 28.614656 
L 444.687021 26.31311 
L 447.401098 23.577941 
L 449.852522 20.309079 
L 452.566599 17.57391 
L 455.193125 14.738673 
L 455.193125 14.738673 
" clip-path="url(#pfe47a92351)" style="fill: none; stroke: #1f77b4; stroke-width: 1.5; stroke-linecap: square"/>
   </g>
   <g id="text_16">
    <!-- pypa/pip -->
    <g style="fill: #1f77b4" transform="translate(465.906725 18.601798)scale(0.14 -0.14)">
     <defs>
      <path id="DejaVuSans-70" d="M 1159 525 
L 1159 -1331 
L 581 -1331 
L 581 3500 
L 1159 3500 
L 1159 2969 
Q 1341 3281 1617 3432 
Q 1894 3584 2278 3584 
Q 2916 3584 3314 3078 
Q 3713 2572 3713 1747 
Q 3713 922 3314 415 
Q 2916 -91 2278 -91 
Q 1894 -91 1617 61 
Q 1341 213 1159 525 
z
M 3116 1747 
Q 3116 2381 2855 2742 
Q 2594 3103 2138 3103 
Q 1681 3103 1420 2742 
Q 1159 2381 1159 1747 
Q 1159 1113 1420 752 
Q 1681 391 2138 391 
Q 2594 391 2855 752 
Q 3116 1113 3116 1747 
z
" transform="scale(0.015625)"/>
      <path id="DejaVuSans-79" d="M 2059 -325 
Q 1816 -950 1584 -1140 
Q 1353 -1331 966 -1331 
L 506 -1331 
L 506 -850 
L 844 -850 
Q 1081 -850 1212 -737 
Q 1344 -625 1503 -206 
L 1606 56 
L 191 3500 
L 800 3500 
L 1894 763 
L 2988 3500 
L 3597 3500 
L 2059 -325 
z
" transform="scale(0.015625)"/>
      <path id="DejaVuSans-2f" d="M 1625 4666 
L 2156 4666 
L 531 -594 
L 0 -594 
L 1625 4666 
z
" transform="scale(0.015625)"/>
     </defs>
     <use xlink:href="#DejaVuSans-70"/>
     <use xlink:href="#DejaVuSans-79" x="63.476562"/>
     <use xlink:href="#DejaVuSans-70" x="122.65625"/>
     <use xlink:href="#DejaVuSans-61" x="186.132812"/>
     <use xlink:href="#DejaVuSans-2f" x="247.412109"/>
     <use xlink:href="#DejaVuSans-70" x="281.103516"/>
     <use xlink:href="#DejaVuSans-69" x="344.580078"/>
     <use xlink:href="#DejaVuSans-70" x="372.363281"/>
    </g>
   </g>
   <g id="text_17">
    <!-- pypa/pipx -->
    <g style="fill: #ff7f0e" transform="translate(465.906725 118.76905)scale(0.14 -0.14)">
     <defs>
      <path id="DejaVuSans-78" d="M 3513 3500 
L 2247 1797 
L 3578 0 
L 2900 0 
L 1881 1375 
L 863 0 
L 184 0 
L 1544 1831 
L 300 3500 
L 978 3500 
L 1906 2253 
L 2834 3500 
L 3513 3500 
z
" transform="scale(0.015625)"/>
     </defs>
     <use xlink:href="#DejaVuSans-70"/>
     <use xlink:href="#DejaVuSans-79" x="63.476562"/>
     <use xlink:href="#DejaVuSans-70" x="122.65625"/>
     <use xlink:href="#DejaVuSans-61" x="186.132812"/>
     <use xlink:href="#DejaVuSans-2f" x="247.412109"/>
     <use xlink:href="#DejaVuSans-70" x="281.103516"/>
     <use xlink:href="#DejaVuSans-69" x="344.580078"/>
     <use xlink:href="#DejaVuSans-70" x="372.363281"/>
     <use xlink:href="#DejaVuSans-78" x="435.839844"/>
    </g>
   </g>
   <g id="text_18">
    <!-- mitsuhiko/pipsi -->
    <g style="fill: #2ca02c" transform="translate(465.906725 217.802207)scale(0.14 -0.14)">
     <defs>
      <path id="DejaVuSans-6d" d="M 3328 2828 
Q 3544 3216 3844 3400 
Q 4144 3584 4550 3584 
Q 5097 3584 5394 3201 
Q 5691 2819 5691 2113 
L 5691 0 
L 5113 0 
L 5113 2094 
Q 5113 2597 4934 2840 
Q 4756 3084 4391 3084 
Q 3944 3084 3684 2787 
Q 3425 2491 3425 1978 
L 3425 0 
L 2847 0 
L 2847 2094 
Q 2847 2600 2669 2842 
Q 2491 3084 2119 3084 
Q 1678 3084 1418 2786 
Q 1159 2488 1159 1978 
L 1159 0 
L 581 0 
L 581 3500 
L 1159 3500 
L 1159 2956 
Q 1356 3278 1631 3431 
Q 1906 3584 2284 3584 
Q 2666 3584 2933 3390 
Q 3200 3197 3328 2828 
z
" transform="scale(0.015625)"/>
      <path id="DejaVuSans-68" d="M 3513 2113 
L 3513 0 
L 2938 0 
L 2938 2094 
Q 2938 2591 2744 2837 
Q 2550 3084 2163 3084 
Q 1697 3084 1428 2787 
Q 1159 2491 1159 1978 
L 1159 0 
L 581 0 
L 581 4863 
L 1159 4863 
L 1159 2956 
Q 1366 3272 1645 3428 
Q 1925 3584 2291 3584 
Q 2894 3584 3203 3211 
Q 3513 2838 3513 2113 
z
" transform="scale(0.015625)"/>
      <path id="DejaVuSans-6b" d="M 581 4863 
L 1159 4863 
L 1159 1991 
L 2875 3500 
L 3609 3500 
L 1753 1863 
L 3688 0 
L 2938 0 
L 1159 1709 
L 1159 0 
L 581 0 
L 581 4863 
z
" transform="scale(0.015625)"/>
      <path id="DejaVuSans-6f" d="M 1959 3097 
Q 1497 3097 1228 2736 
Q 959 2375 959 1747 
Q 959 1119 1226 758 
Q 1494 397 1959 397 
Q 2419 397 2687 759 
Q 2956 1122 2956 1747 
Q 2956 2369 2687 2733 
Q 2419 3097 1959 3097 
z
M 1959 3584 
Q 2709 3584 3137 3096 
Q 3566 2609 3566 1747 
Q 3566 888 3137 398 
Q 2709 -91 1959 -91 
Q 1206 -91 779 398 
Q 353 888 353 1747 
Q 353 2609 779 3096 
Q 1206 3584 1959 3584 
z
" transform="scale(0.015625)"/>
     </defs>
     <use xlink:href="#DejaVuSans-6d"/>
     <use xlink:href="#DejaVuSans-69" x="97.412109"/>
     <use xlink:href="#DejaVuSans-74" x="125.195312"/>
     <use xlink:href="#DejaVuSans-73" x="164.404297"/>
     <use xlink:href="#DejaVuSans-75" x="216.503906"/>
     <use xlink:href="#DejaVuSans-68" x="279.882812"/>
     <use xlink:href="#DejaVuSans-69" x="343.261719"/>
     <use xlink:href="#DejaVuSans-6b" x="371.044922"/>
     <use xlink:href="#DejaVuSans-6f" x="425.330078"/>
     <use xlink:href="#DejaVuSans-2f" x="486.511719"/>
     <use xlink:href="#DejaVuSans-70" x="520.203125"/>
     <use xlink:href="#DejaVuSans-69" x="583.679688"/>
     <use xlink:href="#DejaVuSans-70" x="611.462891"/>
     <use xlink:href="#DejaVuSans-73" x="674.939453"/>
     <use xlink:href="#DejaVuSans-69" x="727.039062"/>
    </g>
   </g>
   <g id="text_19">
    <!-- @nschloe / gh-trends | Nico Schlömer | CC BY -->
    <g style="fill: #b0b0b0" transform="translate(98.073125 314.887022)scale(0.09716 -0.09716)">
     <defs>
      <path id="DejaVuSans-40" d="M 2381 1678 
Q 2381 1231 2603 976 
Q 2825 722 3213 722 
Q 3597 722 3817 978 
Q 4038 1234 4038 1678 
Q 4038 2116 3813 2373 
Q 3588 2631 3206 2631 
Q 2828 2631 2604 2375 
Q 2381 2119 2381 1678 
z
M 4084 744 
Q 3897 503 3655 389 
Q 3413 275 3091 275 
Q 2553 275 2217 664 
Q 1881 1053 1881 1678 
Q 1881 2303 2218 2693 
Q 2556 3084 3091 3084 
Q 3413 3084 3656 2967 
Q 3900 2850 4084 2613 
L 4084 3022 
L 4531 3022 
L 4531 722 
Q 4988 791 5245 1139 
Q 5503 1488 5503 2041 
Q 5503 2375 5404 2669 
Q 5306 2963 5106 3213 
Q 4781 3622 4314 3839 
Q 3847 4056 3297 4056 
Q 2913 4056 2559 3954 
Q 2206 3853 1906 3653 
Q 1416 3334 1139 2817 
Q 863 2300 863 1697 
Q 863 1200 1042 765 
Q 1222 331 1563 0 
Q 1891 -325 2322 -495 
Q 2753 -666 3244 -666 
Q 3647 -666 4036 -530 
Q 4425 -394 4750 -141 
L 5031 -488 
Q 4641 -791 4180 -952 
Q 3719 -1113 3244 -1113 
Q 2666 -1113 2153 -908 
Q 1641 -703 1241 -313 
Q 841 78 631 592 
Q 422 1106 422 1697 
Q 422 2266 634 2781 
Q 847 3297 1241 3688 
Q 1644 4084 2172 4295 
Q 2700 4506 3291 4506 
Q 3953 4506 4520 4234 
Q 5088 3963 5472 3463 
Q 5706 3156 5829 2797 
Q 5953 2438 5953 2053 
Q 5953 1231 5456 756 
Q 4959 281 4084 263 
L 4084 744 
z
" transform="scale(0.015625)"/>
      <path id="DejaVuSans-6e" d="M 3513 2113 
L 3513 0 
L 2938 0 
L 2938 2094 
Q 2938 2591 2744 2837 
Q 2550 3084 2163 3084 
Q 1697 3084 1428 2787 
Q 1159 2491 1159 1978 
L 1159 0 
L 581 0 
L 581 3500 
L 1159 3500 
L 1159 2956 
Q 1366 3272 1645 3428 
Q 1925 3584 2291 3584 
Q 2894 3584 3203 3211 
Q 3513 2838 3513 2113 
z
" transform="scale(0.015625)"/>
      <path id="DejaVuSans-63" d="M 3122 3366 
L 3122 2828 
Q 2878 2963 2633 3030 
Q 2388 3097 2138 3097 
Q 1578 3097 1268 2742 
Q 959 2388 959 1747 
Q 959 1106 1268 751 
Q 1578 397 2138 397 
Q 2388 397 2633 464 
Q 2878 531 3122 666 
L 3122 134 
Q 2881 22 2623 -34 
Q 2366 -91 2075 -91 
Q 1284 -91 818 406 
Q 353 903 353 1747 
Q 353 2603 823 3093 
Q 1294 3584 2113 3584 
Q 2378 3584 2631 3529 
Q 2884 3475 3122 3366 
z
" transform="scale(0.015625)"/>
      <path id="DejaVuSans-6c" d="M 603 4863 
L 1178 4863 
L 1178 0 
L 603 0 
L 603 4863 
z
" transform="scale(0.015625)"/>
      <path id="DejaVuSans-65" d="M 3597 1894 
L 3597 1613 
L 953 1613 
Q 991 1019 1311 708 
Q 1631 397 2203 397 
Q 2534 397 2845 478 
Q 3156 559 3463 722 
L 3463 178 
Q 3153 47 2828 -22 
Q 2503 -91 2169 -91 
Q 1331 -91 842 396 
Q 353 884 353 1716 
Q 353 2575 817 3079 
Q 1281 3584 2069 3584 
Q 2775 3584 3186 3129 
Q 3597 2675 3597 1894 
z
M 3022 2063 
Q 3016 2534 2758 2815 
Q 2500 3097 2075 3097 
Q 1594 3097 1305 2825 
Q 1016 2553 972 2059 
L 3022 2063 
z
" transform="scale(0.015625)"/>
      <path id="DejaVuSans-67" d="M 2906 1791 
Q 2906 2416 2648 2759 
Q 2391 3103 1925 3103 
Q 1463 3103 1205 2759 
Q 947 2416 947 1791 
Q 947 1169 1205 825 
Q 1463 481 1925 481 
Q 2391 481 2648 825 
Q 2906 1169 2906 1791 
z
M 3481 434 
Q 3481 -459 3084 -895 
Q 2688 -1331 1869 -1331 
Q 1566 -1331 1297 -1286 
Q 1028 -1241 775 -1147 
L 775 -588 
Q 1028 -725 1275 -790 
Q 1522 -856 1778 -856 
Q 2344 -856 2625 -561 
Q 2906 -266 2906 331 
L 2906 616 
Q 2728 306 2450 153 
Q 2172 0 1784 0 
Q 1141 0 747 490 
Q 353 981 353 1791 
Q 353 2603 747 3093 
Q 1141 3584 1784 3584 
Q 2172 3584 2450 3431 
Q 2728 3278 2906 2969 
L 2906 3500 
L 3481 3500 
L 3481 434 
z
" transform="scale(0.015625)"/>
      <path id="DejaVuSans-2d" d="M 313 2009 
L 1997 2009 
L 1997 1497 
L 313 1497 
L 313 2009 
z
" transform="scale(0.015625)"/>
      <path id="DejaVuSans-64" d="M 2906 2969 
L 2906 4863 
L 3481 4863 
L 3481 0 
L 2906 0 
L 2906 525 
Q 2725 213 2448 61 
Q 2172 -91 1784 -91 
Q 1150 -91 751 415 
Q 353 922 353 1747 
Q 353 2572 751 3078 
Q 1150 3584 1784 3584 
Q 2172 3584 2448 3432 
Q 2725 3281 2906 2969 
z
M 947 1747 
Q 947 1113 1208 752 
Q 1469 391 1925 391 
Q 2381 391 2643 752 
Q 2906 1113 2906 1747 
Q 2906 2381 2643 2742 
Q 2381 3103 1925 3103 
Q 1469 3103 1208 2742 
Q 947 2381 947 1747 
z
" transform="scale(0.015625)"/>
      <path id="DejaVuSans-7c" d="M 1344 4891 
L 1344 -1509 
L 813 -1509 
L 813 4891 
L 1344 4891 
z
" transform="scale(0.015625)"/>
      <path id="DejaVuSans-4e" d="M 628 4666 
L 1478 4666 
L 3547 763 
L 3547 4666 
L 4159 4666 
L 4159 0 
L 3309 0 
L 1241 3903 
L 1241 0 
L 628 0 
L 628 4666 
z
" transform="scale(0.015625)"/>
      <path id="DejaVuSans-53" d="M 3425 4513 
L 3425 3897 
Q 3066 4069 2747 4153 
Q 2428 4238 2131 4238 
Q 1616 4238 1336 4038 
Q 1056 3838 1056 3469 
Q 1056 3159 1242 3001 
Q 1428 2844 1947 2747 
L 2328 2669 
Q 3034 2534 3370 2195 
Q 3706 1856 3706 1288 
Q 3706 609 3251 259 
Q 2797 -91 1919 -91 
Q 1588 -91 1214 -16 
Q 841 59 441 206 
L 441 856 
Q 825 641 1194 531 
Q 1563 422 1919 422 
Q 2459 422 2753 634 
Q 3047 847 3047 1241 
Q 3047 1584 2836 1778 
Q 2625 1972 2144 2069 
L 1759 2144 
Q 1053 2284 737 2584 
Q 422 2884 422 3419 
Q 422 4038 858 4394 
Q 1294 4750 2059 4750 
Q 2388 4750 2728 4690 
Q 3069 4631 3425 4513 
z
" transform="scale(0.015625)"/>
      <path id="DejaVuSans-f6" d="M 1959 3097 
Q 1497 3097 1228 2736 
Q 959 2375 959 1747 
Q 959 1119 1226 758 
Q 1494 397 1959 397 
Q 2419 397 2687 759 
Q 2956 1122 2956 1747 
Q 2956 2369 2687 2733 
Q 2419 3097 1959 3097 
z
M 1959 3584 
Q 2709 3584 3137 3096 
Q 3566 2609 3566 1747 
Q 3566 888 3137 398 
Q 2709 -91 1959 -91 
Q 1206 -91 779 398 
Q 353 888 353 1747 
Q 353 2609 779 3096 
Q 1206 3584 1959 3584 
z
M 2254 4850 
L 2888 4850 
L 2888 4219 
L 2254 4219 
L 2254 4850 
z
M 1032 4850 
L 1666 4850 
L 1666 4219 
L 1032 4219 
L 1032 4850 
z
" transform="scale(0.015625)"/>
      <path id="DejaVuSans-43" d="M 4122 4306 
L 4122 3641 
Q 3803 3938 3442 4084 
Q 3081 4231 2675 4231 
Q 1875 4231 1450 3742 
Q 1025 3253 1025 2328 
Q 1025 1406 1450 917 
Q 1875 428 2675 428 
Q 3081 428 3442 575 
Q 3803 722 4122 1019 
L 4122 359 
Q 3791 134 3420 21 
Q 3050 -91 2638 -91 
Q 1578 -91 968 557 
Q 359 1206 359 2328 
Q 359 3453 968 4101 
Q 1578 4750 2638 4750 
Q 3056 4750 3426 4639 
Q 3797 4528 4122 4306 
z
" transform="scale(0.015625)"/>
      <path id="DejaVuSans-42" d="M 1259 2228 
L 1259 519 
L 2272 519 
Q 2781 519 3026 730 
Q 3272 941 3272 1375 
Q 3272 1813 3026 2020 
Q 2781 2228 2272 2228 
L 1259 2228 
z
M 1259 4147 
L 1259 2741 
L 2194 2741 
Q 2656 2741 2882 2914 
Q 3109 3088 3109 3444 
Q 3109 3797 2882 3972 
Q 2656 4147 2194 4147 
L 1259 4147 
z
M 628 4666 
L 2241 4666 
Q 2963 4666 3353 4366 
Q 3744 4066 3744 3513 
Q 3744 3084 3544 2831 
Q 3344 2578 2956 2516 
Q 3422 2416 3680 2098 
Q 3938 1781 3938 1306 
Q 3938 681 3513 340 
Q 3088 0 2303 0 
L 628 0 
L 628 4666 
z
" transform="scale(0.015625)"/>
      <path id="DejaVuSans-59" d="M -13 4666 
L 666 4666 
L 1959 2747 
L 3244 4666 
L 3922 4666 
L 2272 2222 
L 2272 0 
L 1638 0 
L 1638 2222 
L -13 4666 
z
" transform="scale(0.015625)"/>
     </defs>
     <use xlink:href="#DejaVuSans-40"/>
     <use xlink:href="#DejaVuSans-6e" x="100"/>
     <use xlink:href="#DejaVuSans-73" x="163.378906"/>
     <use xlink:href="#DejaVuSans-63" x="215.478516"/>
     <use xlink:href="#DejaVuSans-68" x="270.458984"/>
     <use xlink:href="#DejaVuSans-6c" x="333.837891"/>
     <use xlink:href="#DejaVuSans-6f" x="361.621094"/>
     <use xlink:href="#DejaVuSans-65" x="422.802734"/>
     <use xlink:href="#DejaVuSans-20" x="484.326172"/>
     <use xlink:href="#DejaVuSans-2f" x="516.113281"/>
     <use xlink:href="#DejaVuSans-20" x="549.804688"/>
     <use xlink:href="#DejaVuSans-67" x="581.591797"/>
     <use xlink:href="#DejaVuSans-68" x="645.068359"/>
     <use xlink:href="#DejaVuSans-2d" x="708.447266"/>
     <use xlink:href="#DejaVuSans-74" x="744.53125"/>
     <use xlink:href="#DejaVuSans-72" x="783.740234"/>
     <use xlink:href="#DejaVuSans-65" x="822.603516"/>
     <use xlink:href="#DejaVuSans-6e" x="884.126953"/>
     <use xlink:href="#DejaVuSans-64" x="947.505859"/>
     <use xlink:href="#DejaVuSans-73" x="1010.982422"/>
     <use xlink:href="#DejaVuSans-20" x="1063.082031"/>
     <use xlink:href="#DejaVuSans-7c" x="1094.869141"/>
     <use xlink:href="#DejaVuSans-20" x="1128.560547"/>
     <use xlink:href="#DejaVuSans-4e" x="1160.347656"/>
     <use xlink:href="#DejaVuSans-69" x="1235.152344"/>
     <use xlink:href="#DejaVuSans-63" x="1262.935547"/>
     <use xlink:href="#DejaVuSans-6f" x="1317.916016"/>
     <use xlink:href="#DejaVuSans-20" x="1379.097656"/>
     <use xlink:href="#DejaVuSans-53" x="1410.884766"/>
     <use xlink:href="#DejaVuSans-63" x="1474.361328"/>
     <use xlink:href="#DejaVuSans-68" x="1529.341797"/>
     <use xlink:href="#DejaVuSans-6c" x="1592.720703"/>
     <use xlink:href="#DejaVuSans-f6" x="1620.503906"/>
     <use xlink:href="#DejaVuSans-6d" x="1681.685547"/>
     <use xlink:href="#DejaVuSans-65" x="1779.097656"/>
     <use xlink:href="#DejaVuSans-72" x="1840.621094"/>
     <use xlink:href="#DejaVuSans-20" x="1881.734375"/>
     <use xlink:href="#DejaVuSans-7c" x="1913.521484"/>
     <use xlink:href="#DejaVuSans-20" x="1947.212891"/>
     <use xlink:href="#DejaVuSans-43" x="1979"/>
     <use xlink:href="#DejaVuSans-43" x="2048.824219"/>
     <use xlink:href="#DejaVuSans-20" x="2118.648438"/>
     <use xlink:href="#DejaVuSans-42" x="2150.435547"/>
     <use xlink:href="#DejaVuSans-59" x="2213.539062"/>
    </g>
   </g>
  </g>
 </g>
 <defs>
  <clipPath id="pfe47a92351">
   <rect x="98.073125" y="14.738673" width="357.12" height="266.112"/>
  </clipPath>
 </defs>
</svg>
