<svg xmlns:xlink="http://www.w3.org/1999/xlink" width="834.833" height="450.469" viewBox="0 0 626.125 337.852" xmlns="http://www.w3.org/2000/svg"><defs><style>*{stroke-linejoin:round;stroke-linecap:butt}</style></defs><g id="figure_1"><path d="M0 337.852h626.125V0H0v337.852z" style="fill:none" id="patch_1"/><g id="axes_1"><path d="M93.468 292.42h357.12V26.306H93.468V292.42z" style="fill:none" id="patch_2"/><g id="matplotlib.axis_1"><g id="xtick_1"><g id="line2d_1"><defs><path id="m3144758bd8" d="M0 0v3.5" style="stroke:#b0b0b0;stroke-width:.4"/></defs><use xlink:href="#m3144758bd8" x="122.293" y="292.419" style="fill:#b0b0b0;stroke:#b0b0b0;stroke-width:.4"/></g><g style="fill:#b0b0b0" transform="matrix(.14 0 0 -.14 106.195 309.602)" id="text_1"><defs><path id="Inter-Regular-32" d="M482 0h2936v500H1255v36l1045 1119c800 856 1036 1256 1036 1772 0 718-581 1291-1400 1291-815 0-1436-554-1436-1373h536c0 530 344 882 882 882 505 0 891-309 891-800 0-429-252-747-791-1336L482 409V0z" transform="scale(.01563)"/><path id="Inter-Regular-30" d="M2000-64c1027 0 1618 871 1618 2391 0 1509-600 2391-1618 2391S382 3836 382 2327C382 807 973-64 2000-64zm0 500c-677 0-1073 680-1073 1891 0 1209 400 1900 1073 1900s1073-691 1073-1900c0-1211-396-1891-1073-1891z" transform="scale(.01563)"/><path id="Inter-Regular-31" d="M2118 4655h-563L391 3882v-573l1136 755h28V0h563v4655z" transform="scale(.01563)"/></defs><use xlink:href="#Inter-Regular-32"/><use xlink:href="#Inter-Regular-30" x="60.511"/><use xlink:href="#Inter-Regular-31" x="123.011"/><use xlink:href="#Inter-Regular-32" x="169.46"/></g></g><g id="xtick_2"><use xlink:href="#m3144758bd8" x="185.381" y="292.419" style="fill:#b0b0b0;stroke:#b0b0b0;stroke-width:.4" id="line2d_2"/><g style="fill:#b0b0b0" transform="matrix(.14 0 0 -.14 169.024 309.602)" id="text_2"><defs><path id="Inter-Regular-34" d="M373 955h2191V0h536v955h636v500h-636v3200h-682L373 1418V955zm2191 500H982v36l1545 2445h37V1455z" transform="scale(.01563)"/></defs><use xlink:href="#Inter-Regular-32"/><use xlink:href="#Inter-Regular-30" x="60.511"/><use xlink:href="#Inter-Regular-31" x="123.011"/><use xlink:href="#Inter-Regular-34" x="169.46"/></g></g><g id="xtick_3"><use xlink:href="#m3144758bd8" x="248.382" y="292.419" style="fill:#b0b0b0;stroke:#b0b0b0;stroke-width:.4" id="line2d_3"/><g style="fill:#b0b0b0" transform="matrix(.14 0 0 -.14 232.154 309.602)" id="text_3"><defs><path id="Inter-Regular-36" d="M2027-64c941-11 1555 698 1555 1564 0 900-666 1545-1464 1545-479 0-891-234-1145-618h-37c3 1134 444 1791 1164 1791 491 0 786-309 891-727h555c-114 723-664 1227-1446 1227-1048 0-1691-927-1691-2573C409 425 1264-55 2027-64zm0 500c-584 0-1011 498-1009 1055 3 557 450 1054 1028 1054 570 0 990-468 990-1045 0-591-438-1064-1009-1064z" transform="scale(.01563)"/></defs><use xlink:href="#Inter-Regular-32"/><use xlink:href="#Inter-Regular-30" x="60.511"/><use xlink:href="#Inter-Regular-31" x="123.011"/><use xlink:href="#Inter-Regular-36" x="169.46"/></g></g><g id="xtick_4"><use xlink:href="#m3144758bd8" x="311.469" y="292.419" style="fill:#b0b0b0;stroke:#b0b0b0;stroke-width:.4" id="line2d_4"/><g style="fill:#b0b0b0" transform="matrix(.14 0 0 -.14 295.29 309.602)" id="text_4"><defs><path id="Inter-Regular-38" d="M1973-64c929 0 1577 544 1582 1300-5 589-398 1089-900 1182v27c436 114 722 541 727 1037-5 709-600 1236-1409 1236-818 0-1414-527-1409-1236-5-496 282-923 727-1037v-27c-511-93-905-593-900-1182C386 480 1034-64 1973-64zm0 500c-639 0-1032 328-1027 828-5 525 429 900 1027 900 588 0 1023-375 1027-900-4-500-398-828-1027-828zm0 2209c-509 0-868 319-864 800-4 473 341 782 864 782 513 0 859-309 863-782-4-481-363-800-863-800z" transform="scale(.01563)"/></defs><use xlink:href="#Inter-Regular-32"/><use xlink:href="#Inter-Regular-30" x="60.511"/><use xlink:href="#Inter-Regular-31" x="123.011"/><use xlink:href="#Inter-Regular-38" x="169.46"/></g></g><g id="xtick_5"><use xlink:href="#m3144758bd8" x="374.47" y="292.419" style="fill:#b0b0b0;stroke:#b0b0b0;stroke-width:.4" id="line2d_5"/><g style="fill:#b0b0b0" transform="matrix(.14 0 0 -.14 357.247 309.602)" id="text_5"><use xlink:href="#Inter-Regular-32"/><use xlink:href="#Inter-Regular-30" x="60.511"/><use xlink:href="#Inter-Regular-32" x="123.011"/><use xlink:href="#Inter-Regular-30" x="183.523"/></g></g><g id="xtick_6"><use xlink:href="#m3144758bd8" x="437.557" y="292.419" style="fill:#b0b0b0;stroke:#b0b0b0;stroke-width:.4" id="line2d_6"/><g style="fill:#b0b0b0" transform="matrix(.14 0 0 -.14 420.473 309.602)" id="text_6"><use xlink:href="#Inter-Regular-32"/><use xlink:href="#Inter-Regular-30" x="60.511"/><use xlink:href="#Inter-Regular-32" x="123.011"/><use xlink:href="#Inter-Regular-32" x="183.523"/></g></g></g><g id="matplotlib.axis_2"><g id="ytick_1"><path d="M93.468 292.42h357.12" clip-path="url(#pe528b710e1)" style="fill:none;stroke:#b0b0b0;stroke-width:.3;stroke-linecap:square" id="line2d_7"/><g id="line2d_8"><defs><path id="m0783eb597e" d="M0 0h-3.5" style="stroke:#b0b0b0;stroke-width:.3"/></defs><use xlink:href="#m0783eb597e" x="93.468" y="292.419" style="fill:#b0b0b0;stroke:#b0b0b0;stroke-width:.3"/></g><use xlink:href="#Inter-Regular-30" style="fill:#b0b0b0" transform="matrix(.14 0 0 -.14 77.718 297.51)" id="text_7"/></g><g id="ytick_2"><path d="M93.468 257.34h357.12" clip-path="url(#pe528b710e1)" style="fill:none;stroke:#b0b0b0;stroke-width:.3;stroke-linecap:square" id="line2d_9"/><use xlink:href="#m0783eb597e" x="93.468" y="257.339" style="fill:#b0b0b0;stroke:#b0b0b0;stroke-width:.3" id="line2d_10"/><g style="fill:#b0b0b0" transform="matrix(.14 0 0 -.14 44.965 262.43)" id="text_8"><use xlink:href="#Inter-Regular-31"/><use xlink:href="#Inter-Regular-30" x="46.449"/><use xlink:href="#Inter-Regular-30" x="108.949"/><use xlink:href="#Inter-Regular-30" x="171.449"/><use xlink:href="#Inter-Regular-30" x="233.949"/></g></g><g id="ytick_3"><path d="M93.468 222.259h357.12" clip-path="url(#pe528b710e1)" style="fill:none;stroke:#b0b0b0;stroke-width:.3;stroke-linecap:square" id="line2d_11"/><use xlink:href="#m0783eb597e" x="93.468" y="222.259" style="fill:#b0b0b0;stroke:#b0b0b0;stroke-width:.3" id="line2d_12"/><g style="fill:#b0b0b0" transform="matrix(.14 0 0 -.14 42.996 227.35)" id="text_9"><use xlink:href="#Inter-Regular-32"/><use xlink:href="#Inter-Regular-30" x="60.511"/><use xlink:href="#Inter-Regular-30" x="123.011"/><use xlink:href="#Inter-Regular-30" x="185.511"/><use xlink:href="#Inter-Regular-30" x="248.011"/></g></g><g id="ytick_4"><path d="M93.468 187.179h357.12" clip-path="url(#pe528b710e1)" style="fill:none;stroke:#b0b0b0;stroke-width:.3;stroke-linecap:square" id="line2d_13"/><use xlink:href="#m0783eb597e" x="93.468" y="187.179" style="fill:#b0b0b0;stroke:#b0b0b0;stroke-width:.3" id="line2d_14"/><g style="fill:#b0b0b0" transform="matrix(.14 0 0 -.14 42.559 192.27)" id="text_10"><defs><path id="Inter-Regular-33" d="M2055-64c902 0 1572 566 1572 1328 0 591-350 1020-936 1118v36c470 143 764 530 764 1055 0 659-521 1245-1382 1245-805 0-1473-495-1500-1227h545c21 464 462 736 946 736 513 0 845-311 845-782 0-490-384-809-936-809h-373v-500h373c707 0 1100-359 1100-872 0-494-430-828-1027-828-539 0-966 278-1000 728H473C507 432 1152-64 2055-64z" transform="scale(.01563)"/></defs><use xlink:href="#Inter-Regular-33"/><use xlink:href="#Inter-Regular-30" x="63.636"/><use xlink:href="#Inter-Regular-30" x="126.136"/><use xlink:href="#Inter-Regular-30" x="188.636"/><use xlink:href="#Inter-Regular-30" x="251.136"/></g></g><g id="ytick_5"><path d="M93.468 152.098h357.12" clip-path="url(#pe528b710e1)" style="fill:none;stroke:#b0b0b0;stroke-width:.3;stroke-linecap:square" id="line2d_15"/><use xlink:href="#m0783eb597e" x="93.468" y="152.098" style="fill:#b0b0b0;stroke:#b0b0b0;stroke-width:.3" id="line2d_16"/><g style="fill:#b0b0b0" transform="matrix(.14 0 0 -.14 42.48 157.19)" id="text_11"><use xlink:href="#Inter-Regular-34"/><use xlink:href="#Inter-Regular-30" x="64.205"/><use xlink:href="#Inter-Regular-30" x="126.705"/><use xlink:href="#Inter-Regular-30" x="189.205"/><use xlink:href="#Inter-Regular-30" x="251.705"/></g></g><g id="ytick_6"><path d="M93.468 117.018h357.12" clip-path="url(#pe528b710e1)" style="fill:none;stroke:#b0b0b0;stroke-width:.3;stroke-linecap:square" id="line2d_17"/><use xlink:href="#m0783eb597e" x="93.468" y="117.018" style="fill:#b0b0b0;stroke:#b0b0b0;stroke-width:.3" id="line2d_18"/><g style="fill:#b0b0b0" transform="matrix(.14 0 0 -.14 42.957 122.11)" id="text_12"><defs><path id="Inter-Regular-35" d="M1936-64c887 0 1537 655 1537 1546 0 902-627 1563-1482 1563-314 0-618-111-809-263h-27l163 1373h1946v500H846L564 2364l527-64c193 139 523 239 809 236 593-4 1027-454 1027-1063 0-598-418-1037-991-1037-477 0-856 307-900 728H491C525 455 1136-64 1936-64z" transform="scale(.01563)"/></defs><use xlink:href="#Inter-Regular-35"/><use xlink:href="#Inter-Regular-30" x="60.795"/><use xlink:href="#Inter-Regular-30" x="123.295"/><use xlink:href="#Inter-Regular-30" x="185.796"/><use xlink:href="#Inter-Regular-30" x="248.296"/></g></g><g id="ytick_7"><path d="M93.468 81.938h357.12" clip-path="url(#pe528b710e1)" style="fill:none;stroke:#b0b0b0;stroke-width:.3;stroke-linecap:square" id="line2d_19"/><use xlink:href="#m0783eb597e" x="93.468" y="81.938" style="fill:#b0b0b0;stroke:#b0b0b0;stroke-width:.3" id="line2d_20"/><g style="fill:#b0b0b0" transform="matrix(.14 0 0 -.14 42.738 87.03)" id="text_13"><use xlink:href="#Inter-Regular-36"/><use xlink:href="#Inter-Regular-30" x="62.358"/><use xlink:href="#Inter-Regular-30" x="124.858"/><use xlink:href="#Inter-Regular-30" x="187.358"/><use xlink:href="#Inter-Regular-30" x="249.858"/></g></g><g id="ytick_8"><path d="M93.468 46.857h357.12" clip-path="url(#pe528b710e1)" style="fill:none;stroke:#b0b0b0;stroke-width:.3;stroke-linecap:square" id="line2d_21"/><use xlink:href="#m0783eb597e" x="93.468" y="46.857" style="fill:#b0b0b0;stroke:#b0b0b0;stroke-width:.3" id="line2d_22"/><g style="fill:#b0b0b0" transform="matrix(.14 0 0 -.14 43.473 51.949)" id="text_14"><defs><path id="Inter-Regular-37" d="M627 0h591l2073 4127v528H309v-500h2400v-37L627 0z" transform="scale(.01563)"/></defs><use xlink:href="#Inter-Regular-37"/><use xlink:href="#Inter-Regular-30" x="57.102"/><use xlink:href="#Inter-Regular-30" x="119.602"/><use xlink:href="#Inter-Regular-30" x="182.102"/><use xlink:href="#Inter-Regular-30" x="244.602"/></g></g><g style="fill:#b0b0b0" transform="matrix(.14 0 0 -.14 7.2 17.383)" id="text_15"><defs><path id="Inter-Regular-47" d="M3746 3200h581c-172 900-927 1518-1909 1518-1193 0-2036-918-2036-2391C382 855 1218-64 2455-64c1109 0 1900 739 1900 1891v500H2582v-500h1227c-16-836-566-1363-1354-1363-864 0-1528 654-1528 1863s664 1864 1491 1864c673 0 1130-380 1328-991z" transform="scale(.01563)"/><path id="Inter-Regular-69" d="M491 0h536v3491H491V0zm273 4073c209 0 382 163 382 363s-173 364-382 364-382-164-382-364 173-363 382-363z" transform="scale(.01563)"/><path id="Inter-Regular-74" d="M2009 3491h-745v836H727v-836H200v-455h527V855c0-610 491-900 946-900 200 0 327 36 400 63l-109 482c-46-9-118-27-237-27-236 0-463 72-463 527v2036h745v455z" transform="scale(.01563)"/><path id="Inter-Regular-48" d="M564 0h563v2082h2482V0h564v4655h-564V2582H1127v2073H564V0z" transform="scale(.01563)"/><path id="Inter-Regular-75" d="M2691 1427c0-654-500-954-900-954-445 0-764 327-764 836v2182H491V1273C491 382 964-45 1618-45c528 0 873 281 1037 636h36V0h536v3491h-536V1427z" transform="scale(.01563)"/><path id="Inter-Regular-62" d="M564 0h518v536h64c118-191 345-609 1018-609 872 0 1482 700 1482 1809 0 1100-610 1800-1491 1800-682 0-891-418-1009-600h-46v1719H564V0zm527 1745c0 782 345 1310 1000 1310 682 0 1018-573 1018-1310 0-745-345-1336-1018-1336-645 0-1000 546-1000 1336z" transform="scale(.01563)"/><path id="Inter-Regular-73" d="M2964 2709c-168 496-546 827-1237 827-736 0-1281-418-1281-1009 0-482 286-804 927-954l582-137c352-81 518-250 518-491 0-300-318-545-818-545-439 0-714 189-809 564L336 836C461 243 950-73 1664-73c811 0 1363 443 1363 1046 0 486-304 793-927 945l-518 127c-414 103-600 241-600 510 0 300 318 518 745 518 469 0 662-259 755-500l482 136z" transform="scale(.01563)"/><path id="Inter-Regular-61" d="M1518-82c609 0 928 327 1037 555h27V0h536v2300c0 1109-845 1236-1291 1236-527 0-1127-181-1400-818l509-182c119 255 398 528 910 528 493 0 736-262 736-709v-19c0-259-264-236-900-318-648-84-1355-227-1355-1027C327 309 855-82 1518-82zm82 482c-427 0-736 191-736 564 0 409 372 536 791 591 227 27 836 90 927 200v-491c0-437-346-864-982-864z" transform="scale(.01563)"/><path id="Inter-Regular-72" d="M491 0h536v2209c0 473 373 818 882 818 143 0 291-27 327-36v545c-61 5-202 9-281 9-419 0-782-236-909-581h-37v527H491V0z" transform="scale(.01563)"/></defs><use xlink:href="#Inter-Regular-47"/><use xlink:href="#Inter-Regular-69" x="74.29"/><use xlink:href="#Inter-Regular-74" x="98.011"/><use xlink:href="#Inter-Regular-48" x="134.375"/><use xlink:href="#Inter-Regular-75" x="208.381"/><use xlink:href="#Inter-Regular-62" x="266.477"/><use xlink:href="#Inter-Regular-20" x="328.551"/><use xlink:href="#Inter-Regular-73" x="356.676"/><use xlink:href="#Inter-Regular-74" x="408.949"/><use xlink:href="#Inter-Regular-61" x="445.313"/><use xlink:href="#Inter-Regular-72" x="501.705"/><use xlink:href="#Inter-Regular-73" x="538.921"/></g></g><path d="m256.235 292.42 2.59-.046 2.675-.028 2.589-.039 2.675-.031 2.675-.032 2.59-.046 2.675-.028 2.589-.02 2.675-.029 2.676-.024 2.416-.042 2.676-.035 2.589-.043 2.675-.035 2.589-.02 2.675-.025 2.676-.028 2.589-.018 2.675-.02 2.59-.033 2.675-.017 2.675-.025 2.417-.042 2.675-.042 2.589-.035 2.675-.02 2.59-.036 2.675-.018 2.675-.017 2.59-.014 2.675-.032 2.589-.01 2.675-.018 2.676-.02 2.416-.022 2.675-.014 2.59-.024 2.675-.018 2.589-.021 2.675-.018 2.676-.02 2.589-.015 2.675-.02 2.59-.022 2.675-.014 2.675-.017 2.503-.004 2.675-.014 2.59-.02 2.675-.036 2.589-.003 2.675-.036 2.675-.003 2.59-.007 2.675-.014 2.589-.021 2.675-.014 2.676-.004 2.416-.017 2.676-.01 2.589-.022 2.675-.01 2.59-.007 2.674-.01 2.676-.004 2.589-.014 2.675-.018 2.59-.021 2.675-.018 2.675-.003 2.417-.007 2.675-.01 2.59-.015 2.674-.014" clip-path="url(#pe528b710e1)" style="fill:none;stroke:#7f7f7f;stroke-width:1.5;stroke-linecap:square" id="line2d_23"/><path d="m132.736 292.42 2.675-.07 2.59-.004h18.555l2.416-.004 2.675-.01 2.59-.032 2.675-.02 2.589-.015 2.675-.014 2.676-.025 2.589-.007 2.675-.014 2.59-.01 2.675-.014 2.675-.039 2.417-.017 2.675-.028 2.589-.035 2.675-.035 2.59-.022 2.675-.031 2.675-.014 2.59-.025 2.675-.01 2.589-.018 2.675-.014 2.675-.017 2.417-.021 2.675-.01 2.59-.015 2.675-.017 2.589-.018 2.675-.025 2.676-.017 2.589-.014 2.675-.021 2.59-.042 2.675-.014 2.675-.032 2.503-.02 2.675-.011 2.59-.032 2.675-.032 2.589-.042 2.675-.02 2.675-.036 2.59-.02 2.675-.032 2.589-.021 2.675-.015 2.676-.014 2.416-.014 2.676-.028 2.589-.017 2.675-.018 2.589-.007 2.675-.02 2.676-.015 2.589-.038 2.675-.025 2.59-.021 2.675-.028 2.675-.018 2.417-.014 2.675-.024 2.589-.035 2.675-.025 2.59-.01 2.675-.028 2.675-.007 2.59-.011 2.675-.014 2.589-.018 2.675-.014 2.676-.024 2.416-.004 2.675-.024 2.59-.025 2.675-.007 2.589-.017 2.675-.014 2.676-.004 2.589-.007 2.675-.007h2.59l2.675-.007h2.675l2.503-.007 2.675-.024 2.59-.025 2.675-.014 2.589-.004 2.675-.007 2.675-.003 2.59-.004h2.675l2.589-.003 2.675-.01 2.676-.018 2.416-.01 2.676-.015 2.589-.01 2.675-.014 2.59-.01 2.674-.022 2.676-.007 2.589-.003 2.675-.004 2.59-.007h2.675l2.675-.003 2.417-.004 2.675-.007H450.588" clip-path="url(#pe528b710e1)" style="fill:none;stroke:#e377c2;stroke-width:1.5;stroke-linecap:square" id="line2d_24"/><path d="m111.765 292.42 2.589-.772 47.293-.228 39.354-.85 2.676-.238 31.5-.715 18.383-.386 7.94-.239 15.793-.396 10.443-.256 23.733-.744 34.176-1.428 7.68-.372 5.265-.333 47.466-1.722 5.092-.292 5.265-.224 10.615-.52 20.885-.859 2.675-.063h0" clip-path="url(#pe528b710e1)" style="fill:none;stroke:#8c564b;stroke-width:1.5;stroke-linecap:square" id="line2d_25"/><g style="fill:#1f77b4" transform="matrix(.14 0 0 -.14 461.302 30.206)" id="text_16"><defs><path id="Inter-Regular-68" d="M1027 2100c0 609 389 955 919 955 504 0 809-319 809-873V0h536v2218c0 898-477 1318-1191 1318-550 0-864-229-1027-591h-46v1710H491V0h536v2100z" transform="scale(.01563)"/><path id="Inter-Regular-70" d="M491-1309h536V536h46c118-191 345-609 1018-609 873 0 1482 700 1482 1809 0 1100-609 1800-1491 1800-682 0-891-418-1009-600h-64v555H491v-4800zm527 3054c0 782 346 1310 1000 1310 682 0 1018-573 1018-1310 0-745-345-1336-1018-1336-645 0-1000 546-1000 1336z" transform="scale(.01563)"/><path id="Inter-Regular-65" d="M1955-73c709 0 1227 355 1391 882l-519 146c-136-364-452-546-872-546-630 0-1064 407-1089 1155h2534v227c0 1300-773 1745-1500 1745-945 0-1573-745-1573-1818S946-73 1955-73zM866 2027c36 543 420 1028 1034 1028 582 0 955-437 955-1028H866z" transform="scale(.01563)"/><path id="Inter-Regular-2f" d="M2136 4873h-490L146-700h490l1500 5573z" transform="scale(.01563)"/></defs><use xlink:href="#Inter-Regular-68"/><use xlink:href="#Inter-Regular-74" x="59.091"/><use xlink:href="#Inter-Regular-74" x="95.455"/><use xlink:href="#Inter-Regular-70" x="131.818"/><use xlink:href="#Inter-Regular-69" x="192.756"/><use xlink:href="#Inter-Regular-65" x="216.477"/><use xlink:href="#Inter-Regular-2f" x="274.716"/><use xlink:href="#Inter-Regular-68" x="310.369"/><use xlink:href="#Inter-Regular-74" x="369.46"/><use xlink:href="#Inter-Regular-74" x="405.824"/><use xlink:href="#Inter-Regular-70" x="442.188"/><use xlink:href="#Inter-Regular-69" x="503.125"/><use xlink:href="#Inter-Regular-65" x="526.847"/></g><g style="fill:#ff7f0e" transform="matrix(.14 0 0 -.14 461.302 127.364)" id="text_17"><defs><path id="Inter-Regular-66" d="M2046 3491h-782v354c0 346 145 528 500 528 154 0 245-37 300-55l154 464c-82 36-245 91-509 91-500 0-982-300-982-900v-482H164v-455h563V0h537v3036h782v455z" transform="scale(.01563)"/><path id="Inter-Regular-71" d="M2873-1309h536v4800h-518v-555h-64c-118 182-327 600-1009 600-882 0-1491-700-1491-1800C327 627 936-73 1809-73c673 0 900 418 1018 609h46v-1845zM1882 409c-673 0-1018 591-1018 1336 0 737 336 1310 1018 1310 654 0 1000-528 1000-1310 0-790-355-1336-1000-1336z" transform="scale(.01563)"/></defs><use xlink:href="#Inter-Regular-70"/><use xlink:href="#Inter-Regular-73" x="60.938"/><use xlink:href="#Inter-Regular-66" x="113.21"/><use xlink:href="#Inter-Regular-2f" x="149.29"/><use xlink:href="#Inter-Regular-72" x="184.943"/><use xlink:href="#Inter-Regular-65" x="222.159"/><use xlink:href="#Inter-Regular-71" x="280.398"/><use xlink:href="#Inter-Regular-75" x="341.335"/><use xlink:href="#Inter-Regular-65" x="399.432"/><use xlink:href="#Inter-Regular-73" x="457.671"/><use xlink:href="#Inter-Regular-74" x="509.943"/><use xlink:href="#Inter-Regular-73" x="546.307"/></g><g style="fill:#2ca02c" transform="matrix(.14 0 0 -.14 461.302 243.934)" id="text_18"><defs><path id="Inter-Regular-6f" d="M1909-73c946 0 1582 718 1582 1800 0 1091-636 1809-1582 1809-945 0-1582-718-1582-1809C327 645 964-73 1909-73zm0 482c-718 0-1045 618-1045 1318s327 1328 1045 1328 1046-628 1046-1328S2627 409 1909 409z" transform="scale(.01563)"/><path id="Inter-Regular-2d" d="M2491 2245H455v-500h2036v500z" transform="scale(.01563)"/><path id="Inter-Regular-6c" d="M1027 4655H491V0h536v4655z" transform="scale(.01563)"/></defs><use xlink:href="#Inter-Regular-61"/><use xlink:href="#Inter-Regular-69" x="56.392"/><use xlink:href="#Inter-Regular-6f" x="80.114"/><use xlink:href="#Inter-Regular-2d" x="139.773"/><use xlink:href="#Inter-Regular-6c" x="185.795"/><use xlink:href="#Inter-Regular-69" x="209.517"/><use xlink:href="#Inter-Regular-62" x="233.239"/><use xlink:href="#Inter-Regular-73" x="295.313"/><use xlink:href="#Inter-Regular-2f" x="347.585"/><use xlink:href="#Inter-Regular-61" x="383.239"/><use xlink:href="#Inter-Regular-69" x="439.631"/><use xlink:href="#Inter-Regular-6f" x="463.352"/><use xlink:href="#Inter-Regular-68" x="523.011"/><use xlink:href="#Inter-Regular-74" x="582.102"/><use xlink:href="#Inter-Regular-74" x="618.466"/><use xlink:href="#Inter-Regular-70" x="654.83"/></g><g style="fill:#d62728" transform="matrix(.14 0 0 -.14 461.302 257.934)" id="text_19"><defs><path id="Inter-Regular-6e" d="M1027 2100c0 609 378 955 891 955 498 0 800-325 800-873V0h537v2218c0 891-475 1318-1182 1318-527 0-855-236-1018-591h-46v546H491V0h536v2100z" transform="scale(.01563)"/><path id="Inter-Regular-63" d="M1909-73c773 0 1282 473 1373 1091h-536c-100-382-419-609-837-609-636 0-1045 527-1045 1336 0 791 418 1310 1045 1310 473 0 755-291 837-610h536c-91 655-646 1091-1382 1091-945 0-1573-745-1573-1809C327 682 927-73 1909-73z" transform="scale(.01563)"/><path id="Inter-Regular-64" d="M1809-73c673 0 900 418 1018 609h64V0h518v4655h-536V2936h-46c-118 182-327 600-1009 600-882 0-1491-700-1491-1800C327 627 936-73 1809-73zm73 482c-673 0-1018 591-1018 1336 0 737 336 1310 1018 1310 654 0 1000-528 1000-1310 0-790-355-1336-1000-1336z" transform="scale(.01563)"/><path id="Inter-Regular-78" d="M891 3491H273l1109-1746L273 0h618l836 1355L2564 0h618L2055 1745l1127 1746h-618l-837-1427-836 1427z" transform="scale(.01563)"/></defs><use xlink:href="#Inter-Regular-65"/><use xlink:href="#Inter-Regular-6e" x="58.239"/><use xlink:href="#Inter-Regular-63" x="116.761"/><use xlink:href="#Inter-Regular-6f" x="172.585"/><use xlink:href="#Inter-Regular-64" x="232.244"/><use xlink:href="#Inter-Regular-65" x="294.318"/><use xlink:href="#Inter-Regular-2f" x="352.557"/><use xlink:href="#Inter-Regular-68" x="388.21"/><use xlink:href="#Inter-Regular-74" x="447.301"/><use xlink:href="#Inter-Regular-74" x="483.665"/><use xlink:href="#Inter-Regular-70" x="520.029"/><use xlink:href="#Inter-Regular-78" x="580.966"/></g><g style="fill:#9467bd" transform="matrix(.14 0 0 -.14 461.302 271.854)" id="text_20"><defs><path id="Inter-Regular-79" d="M836-1309c485 0 825 257 1028 800l1482 4000h-582L1800 709h-36L800 3491H218L1509-18l-100-273c-195-532-436-582-827-482l-136-472c54-28 209-64 390-64z" transform="scale(.01563)"/><path id="Inter-Regular-67" d="M1900-1382c836 0 1509 382 1509 1282v3591h-518v-555h-55c-118 182-336 600-1018 600-882 0-1491-700-1491-1772C327 673 964 55 1809 55c682 0 900 400 1018 590h46V-64c0-581-409-845-973-845-634 0-857 334-1000 527L473-682c218-366 648-700 1427-700zm-18 1918c-673 0-1018 509-1018 1237 0 709 336 1282 1018 1282 654 0 1000-528 1000-1282 0-773-355-1237-1000-1237z" transform="scale(.01563)"/></defs><use xlink:href="#Inter-Regular-73"/><use xlink:href="#Inter-Regular-70" x="52.273"/><use xlink:href="#Inter-Regular-79" x="113.21"/><use xlink:href="#Inter-Regular-6f" x="168.892"/><use xlink:href="#Inter-Regular-75" x="228.551"/><use xlink:href="#Inter-Regular-6e" x="286.648"/><use xlink:href="#Inter-Regular-67" x="345.171"/><use xlink:href="#Inter-Regular-74" x="406.108"/><use xlink:href="#Inter-Regular-65" x="442.472"/><use xlink:href="#Inter-Regular-63" x="500.71"/><use xlink:href="#Inter-Regular-68" x="556.534"/><use xlink:href="#Inter-Regular-2f" x="615.625"/><use xlink:href="#Inter-Regular-67" x="651.279"/><use xlink:href="#Inter-Regular-72" x="712.216"/><use xlink:href="#Inter-Regular-65" x="749.432"/><use xlink:href="#Inter-Regular-71" x="807.671"/><use xlink:href="#Inter-Regular-75" x="868.608"/><use xlink:href="#Inter-Regular-65" x="926.705"/><use xlink:href="#Inter-Regular-73" x="984.943"/><use xlink:href="#Inter-Regular-74" x="1037.216"/><use xlink:href="#Inter-Regular-73" x="1073.58"/></g><g style="fill:#8c564b" transform="matrix(.14 0 0 -.14 461.302 285.696)" id="text_21"><use xlink:href="#Inter-Regular-75"/><use xlink:href="#Inter-Regular-72" x="58.097"/><use xlink:href="#Inter-Regular-6c" x="95.313"/><use xlink:href="#Inter-Regular-6c" x="119.034"/><use xlink:href="#Inter-Regular-69" x="142.756"/><use xlink:href="#Inter-Regular-62" x="166.477"/><use xlink:href="#Inter-Regular-33" x="228.551"/><use xlink:href="#Inter-Regular-2f" x="292.188"/><use xlink:href="#Inter-Regular-75" x="327.841"/><use xlink:href="#Inter-Regular-72" x="385.938"/><use xlink:href="#Inter-Regular-6c" x="423.153"/><use xlink:href="#Inter-Regular-6c" x="446.875"/><use xlink:href="#Inter-Regular-69" x="470.597"/><use xlink:href="#Inter-Regular-62" x="494.318"/><use xlink:href="#Inter-Regular-33" x="556.392"/></g><g style="fill:#e377c2" transform="matrix(.14 0 0 -.14 461.302 299.934)" id="text_22"><defs><path id="Inter-Regular-77" d="M1282 0h527l764 2682h54L3391 0h527l1064 3491h-564L3664 827h-37l-736 2664h-573L1573 818h-37L782 3491H218L1282 0z" transform="scale(.01563)"/></defs><use xlink:href="#Inter-Regular-74"/><use xlink:href="#Inter-Regular-77" x="36.364"/><use xlink:href="#Inter-Regular-69" x="117.614"/><use xlink:href="#Inter-Regular-73" x="141.335"/><use xlink:href="#Inter-Regular-74" x="193.608"/><use xlink:href="#Inter-Regular-65" x="229.972"/><use xlink:href="#Inter-Regular-64" x="288.21"/><use xlink:href="#Inter-Regular-2f" x="350.284"/><use xlink:href="#Inter-Regular-74" x="385.938"/><use xlink:href="#Inter-Regular-72" x="422.301"/><use xlink:href="#Inter-Regular-65" x="459.517"/><use xlink:href="#Inter-Regular-71" x="517.756"/></g><g style="fill:#7f7f7f" transform="matrix(.14 0 0 -.14 461.302 313.934)" id="text_23"><use xlink:href="#Inter-Regular-68"/><use xlink:href="#Inter-Regular-74" x="59.091"/><use xlink:href="#Inter-Regular-74" x="95.455"/><use xlink:href="#Inter-Regular-70" x="131.818"/><use xlink:href="#Inter-Regular-6c" x="192.756"/><use xlink:href="#Inter-Regular-69" x="216.477"/><use xlink:href="#Inter-Regular-62" x="240.199"/><use xlink:href="#Inter-Regular-32" x="302.273"/><use xlink:href="#Inter-Regular-2f" x="362.784"/><use xlink:href="#Inter-Regular-68" x="398.438"/><use xlink:href="#Inter-Regular-74" x="457.529"/><use xlink:href="#Inter-Regular-74" x="493.892"/><use xlink:href="#Inter-Regular-70" x="530.256"/><use xlink:href="#Inter-Regular-6c" x="591.193"/><use xlink:href="#Inter-Regular-69" x="614.915"/><use xlink:href="#Inter-Regular-62" x="638.637"/><use xlink:href="#Inter-Regular-32" x="700.71"/></g><g style="fill:#b0b0b0" transform="matrix(.09716 0 0 -.09716 93.468 328.375)" id="text_24"><defs><path id="Inter-Regular-40" d="M3173-1227c463 0 1054 136 1336 254l-127 418c-164-54-691-236-1191-236C1636-791 809 82 809 1627c0 1518 846 2428 2273 2428 1445 0 2127-1019 2127-2037 0-1036-109-1500-573-1500-272 0-418 227-418 482v2055h-482v-255h-27c-63 200-418 373-873 327-681-72-1200-636-1200-1454 0-864 410-1528 1200-1555 519-18 791 237 900 500h28c54-391 545-527 863-527 964 0 1055 1036 1055 1918 0 1246-873 2473-2573 2473-1754 0-2800-1064-2800-2837 0-1836 1009-2872 2864-2872zM2909 582c-591 0-800 536-800 1118 0 527 300 982 818 982 546 0 837-218 837-982 0-755-246-1118-855-1118z" transform="scale(.01563)"/><path id="Inter-Regular-7c" d="M1273 6155H818v-7655h455v7655z" transform="scale(.01563)"/><path id="Inter-Regular-4e" d="M4255 4655h-555V991h-45L1109 4655H564V0h563v3655h46L3709 0h546v4655z" transform="scale(.01563)"/><path id="Inter-Regular-53" d="M3109 3491h546c-25 702-673 1227-1573 1227-891 0-1591-518-1591-1300 0-627 455-1000 1182-1209l573-164c490-136 927-309 927-772 0-509-491-846-1137-846-554 0-1045 246-1090 773H364C418 436 1036-82 2036-82c1073 0 1682 591 1682 1346 0 872-827 1154-1309 1281l-473 128c-345 91-900 272-900 772 0 446 410 773 1028 773 563 0 991-268 1045-727z" transform="scale(.01563)"/><path id="Inter-Regular-f6" d="M1909-73c946 0 1582 718 1582 1800 0 1091-636 1809-1582 1809-945 0-1582-718-1582-1809C327 645 964-73 1909-73zm0 482c-718 0-1045 618-1045 1318s327 1328 1045 1328 1046-628 1046-1328S2627 409 1909 409zm-654 3664c209 0 363 172 363 363 0 209-154 364-363 364-191 0-364-155-364-364 0-191 173-363 364-363zm1309 0c209 0 363 172 363 363 0 209-154 364-363 364-191 0-364-155-364-364 0-191 173-363 364-363z" transform="scale(.01563)"/><path id="Inter-Regular-6d" d="M491 0h536v2182c0 511 373 873 791 873 407 0 691-266 691-664V0h546v2273c0 450 281 782 772 782 382 0 709-203 709-719V0h537v2336c0 821-441 1200-1064 1200-500 0-866-229-1045-591h-37c-172 373-477 591-936 591-455 0-791-218-936-591h-46v546H491V0z" transform="scale(.01563)"/><path id="Inter-Regular-43" d="M4309 3200c-173 955-936 1518-1873 1518-1190 0-2054-918-2054-2391C382 855 1246-64 2436-64c937 0 1700 564 1873 1519h-563c-137-646-691-991-1310-991-845 0-1509 654-1509 1863s664 1864 1509 1864c619 0 1173-346 1310-991h563z" transform="scale(.01563)"/><path id="Inter-Regular-42" d="M564 0h1682c1100 0 1554 536 1554 1236 0 737-509 1137-936 1164v45c400 110 754 373 754 973 0 682-454 1237-1427 1237H564V0zm563 500v1618h1146c609 0 991-409 991-882 0-409-282-736-1018-736H1127zm0 2109v1546h1064c618 0 891-328 891-737 0-491-400-809-909-809H1127z" transform="scale(.01563)"/><path id="Inter-Regular-59" d="m164 4655 1682-2737V0h563v1918l1682 2737h-645L2155 2482h-55L809 4655H164z" transform="scale(.01563)"/></defs><use xlink:href="#Inter-Regular-40"/><use xlink:href="#Inter-Regular-6e" x="93.608"/><use xlink:href="#Inter-Regular-73" x="152.131"/><use xlink:href="#Inter-Regular-63" x="204.403"/><use xlink:href="#Inter-Regular-68" x="260.227"/><use xlink:href="#Inter-Regular-6c" x="319.318"/><use xlink:href="#Inter-Regular-6f" x="343.04"/><use xlink:href="#Inter-Regular-65" x="402.699"/><use xlink:href="#Inter-Regular-20" x="460.938"/><use xlink:href="#Inter-Regular-2f" x="489.063"/><use xlink:href="#Inter-Regular-20" x="524.716"/><use xlink:href="#Inter-Regular-67" x="552.841"/><use xlink:href="#Inter-Regular-68" x="613.779"/><use xlink:href="#Inter-Regular-2d" x="672.869"/><use xlink:href="#Inter-Regular-74" x="718.892"/><use xlink:href="#Inter-Regular-72" x="755.256"/><use xlink:href="#Inter-Regular-65" x="792.472"/><use xlink:href="#Inter-Regular-6e" x="850.71"/><use xlink:href="#Inter-Regular-64" x="909.233"/><use xlink:href="#Inter-Regular-73" x="971.307"/><use xlink:href="#Inter-Regular-20" x="1023.58"/><use xlink:href="#Inter-Regular-7c" x="1051.705"/><use xlink:href="#Inter-Regular-20" x="1084.375"/><use xlink:href="#Inter-Regular-4e" x="1112.5"/><use xlink:href="#Inter-Regular-69" x="1187.784"/><use xlink:href="#Inter-Regular-63" x="1211.506"/><use xlink:href="#Inter-Regular-6f" x="1267.33"/><use xlink:href="#Inter-Regular-20" x="1326.989"/><use xlink:href="#Inter-Regular-53" x="1355.114"/><use xlink:href="#Inter-Regular-63" x="1418.892"/><use xlink:href="#Inter-Regular-68" x="1474.716"/><use xlink:href="#Inter-Regular-6c" x="1533.807"/><use xlink:href="#Inter-Regular-f6" x="1557.529"/><use xlink:href="#Inter-Regular-6d" x="1617.188"/><use xlink:href="#Inter-Regular-65" x="1704.12"/><use xlink:href="#Inter-Regular-72" x="1762.358"/><use xlink:href="#Inter-Regular-20" x="1799.574"/><use xlink:href="#Inter-Regular-7c" x="1827.699"/><use xlink:href="#Inter-Regular-20" x="1860.37"/><use xlink:href="#Inter-Regular-43" x="1888.495"/><use xlink:href="#Inter-Regular-43" x="1961.222"/><use xlink:href="#Inter-Regular-20" x="2033.949"/><use xlink:href="#Inter-Regular-42" x="2062.074"/><use xlink:href="#Inter-Regular-59" x="2127.131"/></g><path d="m132.736 292.42 2.675-.692 2.59-.01 2.675-.01h15.88l2.416-.036 2.675-.102 2.59-.042 2.675-.063 2.589-.045 2.675-.074 2.676-.077 2.589-.08 2.675-.071 2.59-.077 2.675-.08 2.675-.089 2.417-.07 2.675-.179 2.589-.049 2.675-.161 2.59-.095 2.675-.084 2.675-.175 2.59-.095 2.675-.116 2.589-.067 2.675-.126 2.675-.08 2.417-.078 2.675-.087 2.59-.127 2.675-.073 2.589-.099 2.675-.133 2.676-.137 2.589-.084 2.675-.13 2.59-.101 2.675-.127 2.675-.105 2.503-.137 2.675-.165 2.59-.108 2.675-.172 2.589-.162 2.675-.165 2.675-.164 2.59-.176 2.675-.165 2.589-.158 2.675-.126 2.676-.13 2.416-.144 2.676-.238 2.589-.186 2.675-.158 2.589-.203 2.675-.158 2.676-.235 2.589-.165 2.675-.109 2.59-.186 2.675-.161 2.675-.197 2.417-.13 2.675-.192 2.589-.186 2.675-.134 2.59-.119 2.675-.116 2.675-.13 2.59-.119 2.675-.161 2.589-.144 2.675-.112 2.676-.112 2.416-.11 2.675-.118 2.59-.18 2.675-.115 2.589-.098 2.675-.172 2.676-.162 2.589-.14 2.675-.137 2.59-.066 2.675-.144 2.675-.098 2.503-.078 2.675-.101 2.59-.169 2.675-.112 2.589-.112 2.675-.095 2.675-.116 2.59-.182 2.675-.109 2.589-.098 2.675-.105 2.676-.123 2.416-.095 2.676-.123 2.589-.112 2.675-.077 2.59-.147 2.674-.13 2.676-.084 2.589-.13 2.675-.105 2.59-.057 2.675-.066 2.675-.063 2.417-.12 2.675-.098 2.59-.077 2.674-.15" clip-path="url(#pe528b710e1)" style="fill:none;stroke:#9467bd;stroke-width:1.5;stroke-linecap:square" id="line2d_26"/><path d="m350.736 292.42 2.59-.11 2.675-.213 2.589-.376 2.675-1.013 2.676-2.744 2.589-1.182 2.675-1.287 2.59-.737 2.675-1.267 2.675-3.872 2.503-.807 2.675-.828 2.59-.835 2.675-.891 2.589-1.13 2.675-.81 2.675-.824 2.59-.663 2.675-.821 2.589-.562 2.675-.56 2.676-.597 2.416-.526 2.676-.555 2.589-.501 2.675-.516 2.59-.691 2.674-.533 2.676-.698 2.589-.965 2.675-.59 2.59-.466 2.675-.582 2.675-.551 2.417-.414 2.675-.568 2.59-.646 2.674-.568" clip-path="url(#pe528b710e1)" style="fill:none;stroke:#d62728;stroke-width:1.5;stroke-linecap:square" id="line2d_27"/><path d="m177.44 292.42 2.676-.022 2.59-.02 2.675-.015 2.675-.017 2.417-.021 2.675-.256 2.589-.134 2.675-.066 2.59-.081 2.675-.126 2.675-.035 2.59-.078 2.675-.084 2.589-.094 2.675-.137 2.675-.274 2.417-.365 2.675-.224 2.59-.25 2.675-.154 2.589-.298 2.675-.193 2.676-.238 2.589-.232 2.675-.288 2.59-.256 2.675-.435 2.675-.308 2.503-.309 2.675-.277 2.59-.407 2.675-.333 2.589-.246 2.675-.267 2.675-.322 2.59-.6 2.675-.383 2.589-.312 2.675-.396 2.676-.34 2.416-.348 2.676-.543 2.589-.457 2.675-.435 2.589-.4 2.675-.452 2.676-.431 2.589-.474 2.675-.52 2.59-.648 2.675-.656 2.675-.723 2.417-.69 2.675-.692 2.589-.638 2.675-.688 2.59-.663 2.675-.593 2.675-.709 2.59-.778 2.675-.66 2.589-.645 2.675-.67 2.676-.73 2.416-.68 2.675-.751 2.59-.783 2.675-.73 2.589-.585 2.675-.663 2.676-.677 2.589-.646 2.675-.698 2.59-.684 2.675-.568 2.675-.579 2.503-.47 2.675-.614 2.59-.698 2.675-.638 2.589-.435 2.675-.481 2.675-.495 2.59-.536 2.675-.432 2.589-.449 2.675-.512 2.676-.509 2.416-.501 2.676-.45 2.589-.463 2.675-.452 2.59-.463 2.674-.421 2.676-.439 2.589-.487 2.675-.467 2.59-.407 2.675-.442 2.675-.386 2.417-.407 2.675-.385 2.59-.393 2.674-.355" clip-path="url(#pe528b710e1)" style="fill:none;stroke:#2ca02c;stroke-width:1.5;stroke-linecap:square" id="line2d_28"/><path d="m93.468 292.42 2.417-9.613 5.264-.838 10.616-1.417 15.707-1.663 7.94-.603 10.528-.565 10.616-.25 2.416-.554 7.94-3.062 2.589-.73 2.675-.901 2.676-1.028 2.589-1.428 7.94-3.406 5.092-1.86 2.675-1.16 2.589-1 5.264-1.846 5.351-2.3 7.854-3.05 2.675-1.104 7.767-3.758 7.854-3.676 2.675-1.624 5.265-2.54 2.675-1.379 5.265-2.97 2.675-1.513 5.178-3.427 10.529-5.873 2.675-1.655 5.265-3.512 5.264-3.392 5.092-3.708 2.676-2.154 2.589-1.624 2.675-1.87 5.264-4.283 2.676-2.375 2.589-2.08 2.675-1.853 2.59-2.07 2.675-1.919 2.675-2.104 2.417-2.06 2.675-2.743 7.853-6.346 5.351-4.108 2.59-1.859 2.675-2.101 7.94-5.662 7.68-5.452 2.676-1.508 2.589-1.302 2.675-1.74 2.676-1.462 2.589-1.572 15.793-6.764 2.59-1.262 5.264-2.239 5.35-2.125 7.854-2.702 20.971-7.735 2.676-.803 2.589-.944 7.94-2.326 7.767-2.634 5.264-1.768h0" clip-path="url(#pe528b710e1)" style="fill:none;stroke:#ff7f0e;stroke-width:1.5;stroke-linecap:square" id="line2d_29"/><path d="m124.969 292.42 2.503-13.243 2.675-.228 2.59-.144 2.674-.102 2.59-.123 2.675-.108 2.675-.053 2.59-.039 2.675-.028 2.589-.024 2.675-.018 2.676-.02 2.416-.383 2.675-.66 2.59-.656 2.675-.442 2.589-.428 2.675-.48 2.676-.632 2.589-.712 2.675-.431 2.59-.562 2.675-.582 2.675-.709 2.417-.596 2.675-.435 2.589-1.066 2.675-.692 2.59-8.215 2.675-1.291 2.675-3.82 2.59-1.042 2.675-.976 2.589-.873 2.675-1.084 2.675-1.75 2.417-1.169 2.675-2.105 2.59-1.824 2.675-1.165 2.589-2.736 2.675-1.701 2.676-2.512 2.589-2.585 2.675-4.09 2.59-2.28 2.675-1.794 2.675-1.747 2.503-1.768 2.675-1.75 2.59-1.484 2.675-1.8 2.589-4.35 2.675-1.922 2.675-3.711 2.59-1.94 2.675-1.463 2.589-1.217 2.675-1.425 2.676-1.61 2.416-1.508 2.676-2.091 2.589-1.572 2.675-1.701 2.589-1.533 2.675-1.817 2.676-1.593 2.589-1.6 2.675-2.315 2.59-1.614 2.675-1.582 2.675-2.02 2.417-1.607 2.675-1.635 2.589-1.466 2.675-1.635 2.59-1.347 2.675-1.379 2.675-1.357 2.59-3.263 2.675-1.354 2.589-1.589 2.675-1.596 2.676-2.842 2.416-1.522 2.675-1.768 2.59-1.726L356 149.87l2.589-1.579 2.675-1.379 2.676-1.582 2.589-1.413 2.675-1.309 2.59-1.165 2.675-4.578 2.675-1.645 2.503-1.052 2.675-1.19 2.59-1.455 2.675-1.15 2.589-1.236 2.675-2.115 2.675-1.105 2.59-1.116 2.675-1.389 2.589-1.46 2.675-1.413 2.676-1.105 2.416-1.487 2.676-1.263 2.589-1.256 2.675-1.196 2.59-1.305 2.674-1.26 2.676-1.2 2.589-1.273 2.675-1.835 2.59-1.273 2.675-1.22 2.675-1.885 2.417-3.932 2.675-1.417 2.59-64.597 2.674-6.729" clip-path="url(#pe528b710e1)" style="fill:none;stroke:#1f77b4;stroke-width:1.5;stroke-linecap:square" id="line2d_30"/></g></g><defs><clipPath id="pe528b710e1"><path d="M93.468 26.307h357.12v266.112H93.468z"/></clipPath></defs></svg>