<?xml version="1.0" encoding="utf-8" standalone="no"?>
<!DOCTYPE svg PUBLIC "-//W3C//DTD SVG 1.1//EN"
  "http://www.w3.org/Graphics/SVG/1.1/DTD/svg11.dtd">
<svg xmlns:xlink="http://www.w3.org/1999/xlink" width="632.809537pt" height="349.24894pt" viewBox="0 0 632.809537 349.24894" xmlns="http://www.w3.org/2000/svg" version="1.1">
 <metadata>
  <rdf:RDF xmlns:dc="http://purl.org/dc/elements/1.1/" xmlns:cc="http://creativecommons.org/ns#" xmlns:rdf="http://www.w3.org/1999/02/22-rdf-syntax-ns#">
   <cc:Work>
    <dc:type rdf:resource="http://purl.org/dc/dcmitype/StillImage"/>
    <dc:date>2022-05-01T14:42:06.061926</dc:date>
    <dc:format>image/svg+xml</dc:format>
    <dc:creator>
     <cc:Agent>
      <dc:title>Matplotlib v3.5.1, https://matplotlib.org/</dc:title>
     </cc:Agent>
    </dc:creator>
   </cc:Work>
  </rdf:RDF>
 </metadata>
 <defs>
  <style type="text/css">*{stroke-linejoin: round; stroke-linecap: butt}</style>
 </defs>
 <g id="figure_1">
  <g id="patch_1">
   <path d="M 0 349.24894 
L 632.809537 349.24894 
L 632.809537 0 
L 0 0 
L 0 349.24894 
z
" style="fill: none"/>
  </g>
  <g id="axes_1">
   <g id="patch_2">
    <path d="M 98.073125 305.72174 
L 455.193125 305.72174 
L 455.193125 39.60974 
L 98.073125 39.60974 
L 98.073125 305.72174 
z
" style="fill: none"/>
   </g>
   <g id="matplotlib.axis_1">
    <g id="xtick_1">
     <g id="line2d_1">
      <defs>
       <path id="maa7ae33f5c" d="M 0 0 
L 0 3.5 
" style="stroke: #b0b0b0; stroke-width: 0.4"/>
      </defs>
      <g>
       <use xlink:href="#maa7ae33f5c" x="128.938031" y="305.72174" style="fill: #b0b0b0; stroke: #b0b0b0; stroke-width: 0.4"/>
      </g>
     </g>
     <g id="text_1">
      <!-- 2010 -->
      <g style="fill: #b0b0b0" transform="translate(111.123031 323.359553)scale(0.14 -0.14)">
       <defs>
        <path id="DejaVuSans-32" d="M 1228 531 
L 3431 531 
L 3431 0 
L 469 0 
L 469 531 
Q 828 903 1448 1529 
Q 2069 2156 2228 2338 
Q 2531 2678 2651 2914 
Q 2772 3150 2772 3378 
Q 2772 3750 2511 3984 
Q 2250 4219 1831 4219 
Q 1534 4219 1204 4116 
Q 875 4013 500 3803 
L 500 4441 
Q 881 4594 1212 4672 
Q 1544 4750 1819 4750 
Q 2544 4750 2975 4387 
Q 3406 4025 3406 3419 
Q 3406 3131 3298 2873 
Q 3191 2616 2906 2266 
Q 2828 2175 2409 1742 
Q 1991 1309 1228 531 
z
" transform="scale(0.015625)"/>
        <path id="DejaVuSans-30" d="M 2034 4250 
Q 1547 4250 1301 3770 
Q 1056 3291 1056 2328 
Q 1056 1369 1301 889 
Q 1547 409 2034 409 
Q 2525 409 2770 889 
Q 3016 1369 3016 2328 
Q 3016 3291 2770 3770 
Q 2525 4250 2034 4250 
z
M 2034 4750 
Q 2819 4750 3233 4129 
Q 3647 3509 3647 2328 
Q 3647 1150 3233 529 
Q 2819 -91 2034 -91 
Q 1250 -91 836 529 
Q 422 1150 422 2328 
Q 422 3509 836 4129 
Q 1250 4750 2034 4750 
z
" transform="scale(0.015625)"/>
        <path id="DejaVuSans-31" d="M 794 531 
L 1825 531 
L 1825 4091 
L 703 3866 
L 703 4441 
L 1819 4666 
L 2450 4666 
L 2450 531 
L 3481 531 
L 3481 0 
L 794 0 
L 794 531 
z
" transform="scale(0.015625)"/>
       </defs>
       <use xlink:href="#DejaVuSans-32"/>
       <use xlink:href="#DejaVuSans-30" x="63.623047"/>
       <use xlink:href="#DejaVuSans-31" x="127.246094"/>
       <use xlink:href="#DejaVuSans-30" x="190.869141"/>
      </g>
     </g>
    </g>
    <g id="xtick_2">
     <g id="line2d_2">
      <g>
       <use xlink:href="#maa7ae33f5c" x="181.828597" y="305.72174" style="fill: #b0b0b0; stroke: #b0b0b0; stroke-width: 0.4"/>
      </g>
     </g>
     <g id="text_2">
      <!-- 2012 -->
      <g style="fill: #b0b0b0" transform="translate(164.013597 323.359553)scale(0.14 -0.14)">
       <use xlink:href="#DejaVuSans-32"/>
       <use xlink:href="#DejaVuSans-30" x="63.623047"/>
       <use xlink:href="#DejaVuSans-31" x="127.246094"/>
       <use xlink:href="#DejaVuSans-32" x="190.869141"/>
      </g>
     </g>
    </g>
    <g id="xtick_3">
     <g id="line2d_3">
      <g>
       <use xlink:href="#maa7ae33f5c" x="234.791616" y="305.72174" style="fill: #b0b0b0; stroke: #b0b0b0; stroke-width: 0.4"/>
      </g>
     </g>
     <g id="text_3">
      <!-- 2014 -->
      <g style="fill: #b0b0b0" transform="translate(216.976616 323.359553)scale(0.14 -0.14)">
       <defs>
        <path id="DejaVuSans-34" d="M 2419 4116 
L 825 1625 
L 2419 1625 
L 2419 4116 
z
M 2253 4666 
L 3047 4666 
L 3047 1625 
L 3713 1625 
L 3713 1100 
L 3047 1100 
L 3047 0 
L 2419 0 
L 2419 1100 
L 313 1100 
L 313 1709 
L 2253 4666 
z
" transform="scale(0.015625)"/>
       </defs>
       <use xlink:href="#DejaVuSans-32"/>
       <use xlink:href="#DejaVuSans-30" x="63.623047"/>
       <use xlink:href="#DejaVuSans-31" x="127.246094"/>
       <use xlink:href="#DejaVuSans-34" x="190.869141"/>
      </g>
     </g>
    </g>
    <g id="xtick_4">
     <g id="line2d_4">
      <g>
       <use xlink:href="#maa7ae33f5c" x="287.682182" y="305.72174" style="fill: #b0b0b0; stroke: #b0b0b0; stroke-width: 0.4"/>
      </g>
     </g>
     <g id="text_4">
      <!-- 2016 -->
      <g style="fill: #b0b0b0" transform="translate(269.867182 323.359553)scale(0.14 -0.14)">
       <defs>
        <path id="DejaVuSans-36" d="M 2113 2584 
Q 1688 2584 1439 2293 
Q 1191 2003 1191 1497 
Q 1191 994 1439 701 
Q 1688 409 2113 409 
Q 2538 409 2786 701 
Q 3034 994 3034 1497 
Q 3034 2003 2786 2293 
Q 2538 2584 2113 2584 
z
M 3366 4563 
L 3366 3988 
Q 3128 4100 2886 4159 
Q 2644 4219 2406 4219 
Q 1781 4219 1451 3797 
Q 1122 3375 1075 2522 
Q 1259 2794 1537 2939 
Q 1816 3084 2150 3084 
Q 2853 3084 3261 2657 
Q 3669 2231 3669 1497 
Q 3669 778 3244 343 
Q 2819 -91 2113 -91 
Q 1303 -91 875 529 
Q 447 1150 447 2328 
Q 447 3434 972 4092 
Q 1497 4750 2381 4750 
Q 2619 4750 2861 4703 
Q 3103 4656 3366 4563 
z
" transform="scale(0.015625)"/>
       </defs>
       <use xlink:href="#DejaVuSans-32"/>
       <use xlink:href="#DejaVuSans-30" x="63.623047"/>
       <use xlink:href="#DejaVuSans-31" x="127.246094"/>
       <use xlink:href="#DejaVuSans-36" x="190.869141"/>
      </g>
     </g>
    </g>
    <g id="xtick_5">
     <g id="line2d_5">
      <g>
       <use xlink:href="#maa7ae33f5c" x="340.6452" y="305.72174" style="fill: #b0b0b0; stroke: #b0b0b0; stroke-width: 0.4"/>
      </g>
     </g>
     <g id="text_5">
      <!-- 2018 -->
      <g style="fill: #b0b0b0" transform="translate(322.8302 323.359553)scale(0.14 -0.14)">
       <defs>
        <path id="DejaVuSans-38" d="M 2034 2216 
Q 1584 2216 1326 1975 
Q 1069 1734 1069 1313 
Q 1069 891 1326 650 
Q 1584 409 2034 409 
Q 2484 409 2743 651 
Q 3003 894 3003 1313 
Q 3003 1734 2745 1975 
Q 2488 2216 2034 2216 
z
M 1403 2484 
Q 997 2584 770 2862 
Q 544 3141 544 3541 
Q 544 4100 942 4425 
Q 1341 4750 2034 4750 
Q 2731 4750 3128 4425 
Q 3525 4100 3525 3541 
Q 3525 3141 3298 2862 
Q 3072 2584 2669 2484 
Q 3125 2378 3379 2068 
Q 3634 1759 3634 1313 
Q 3634 634 3220 271 
Q 2806 -91 2034 -91 
Q 1263 -91 848 271 
Q 434 634 434 1313 
Q 434 1759 690 2068 
Q 947 2378 1403 2484 
z
M 1172 3481 
Q 1172 3119 1398 2916 
Q 1625 2713 2034 2713 
Q 2441 2713 2670 2916 
Q 2900 3119 2900 3481 
Q 2900 3844 2670 4047 
Q 2441 4250 2034 4250 
Q 1625 4250 1398 4047 
Q 1172 3844 1172 3481 
z
" transform="scale(0.015625)"/>
       </defs>
       <use xlink:href="#DejaVuSans-32"/>
       <use xlink:href="#DejaVuSans-30" x="63.623047"/>
       <use xlink:href="#DejaVuSans-31" x="127.246094"/>
       <use xlink:href="#DejaVuSans-38" x="190.869141"/>
      </g>
     </g>
    </g>
    <g id="xtick_6">
     <g id="line2d_6">
      <g>
       <use xlink:href="#maa7ae33f5c" x="393.535767" y="305.72174" style="fill: #b0b0b0; stroke: #b0b0b0; stroke-width: 0.4"/>
      </g>
     </g>
     <g id="text_6">
      <!-- 2020 -->
      <g style="fill: #b0b0b0" transform="translate(375.720767 323.359553)scale(0.14 -0.14)">
       <use xlink:href="#DejaVuSans-32"/>
       <use xlink:href="#DejaVuSans-30" x="63.623047"/>
       <use xlink:href="#DejaVuSans-32" x="127.246094"/>
       <use xlink:href="#DejaVuSans-30" x="190.869141"/>
      </g>
     </g>
    </g>
    <g id="xtick_7">
     <g id="line2d_7">
      <g>
       <use xlink:href="#maa7ae33f5c" x="446.498785" y="305.72174" style="fill: #b0b0b0; stroke: #b0b0b0; stroke-width: 0.4"/>
      </g>
     </g>
     <g id="text_7">
      <!-- 2022 -->
      <g style="fill: #b0b0b0" transform="translate(428.683785 323.359553)scale(0.14 -0.14)">
       <use xlink:href="#DejaVuSans-32"/>
       <use xlink:href="#DejaVuSans-30" x="63.623047"/>
       <use xlink:href="#DejaVuSans-32" x="127.246094"/>
       <use xlink:href="#DejaVuSans-32" x="190.869141"/>
      </g>
     </g>
    </g>
   </g>
   <g id="matplotlib.axis_2">
    <g id="ytick_1">
     <g id="line2d_8">
      <path d="M 98.073125 305.72174 
L 455.193125 305.72174 
" clip-path="url(#p8bcea2e4d4)" style="fill: none; stroke: #b0b0b0; stroke-width: 0.3; stroke-linecap: square"/>
     </g>
     <g id="line2d_9">
      <defs>
       <path id="m0f8282ea08" d="M 0 0 
L -3.5 0 
" style="stroke: #b0b0b0; stroke-width: 0.3"/>
      </defs>
      <g>
       <use xlink:href="#m0f8282ea08" x="98.073125" y="305.72174" style="fill: #b0b0b0; stroke: #b0b0b0; stroke-width: 0.3"/>
      </g>
     </g>
     <g id="text_8">
      <!-- 0 -->
      <g style="fill: #b0b0b0" transform="translate(82.165625 311.040646)scale(0.14 -0.14)">
       <use xlink:href="#DejaVuSans-30"/>
      </g>
     </g>
    </g>
    <g id="ytick_2">
     <g id="line2d_10">
      <path d="M 98.073125 254.049507 
L 455.193125 254.049507 
" clip-path="url(#p8bcea2e4d4)" style="fill: none; stroke: #b0b0b0; stroke-width: 0.3; stroke-linecap: square"/>
     </g>
     <g id="line2d_11">
      <g>
       <use xlink:href="#m0f8282ea08" x="98.073125" y="254.049507" style="fill: #b0b0b0; stroke: #b0b0b0; stroke-width: 0.3"/>
      </g>
     </g>
     <g id="text_9">
      <!-- 100 -->
      <g style="fill: #b0b0b0" transform="translate(64.350625 259.368413)scale(0.14 -0.14)">
       <use xlink:href="#DejaVuSans-31"/>
       <use xlink:href="#DejaVuSans-30" x="63.623047"/>
       <use xlink:href="#DejaVuSans-30" x="127.246094"/>
      </g>
     </g>
    </g>
    <g id="ytick_3">
     <g id="line2d_12">
      <path d="M 98.073125 202.377274 
L 455.193125 202.377274 
" clip-path="url(#p8bcea2e4d4)" style="fill: none; stroke: #b0b0b0; stroke-width: 0.3; stroke-linecap: square"/>
     </g>
     <g id="line2d_13">
      <g>
       <use xlink:href="#m0f8282ea08" x="98.073125" y="202.377274" style="fill: #b0b0b0; stroke: #b0b0b0; stroke-width: 0.3"/>
      </g>
     </g>
     <g id="text_10">
      <!-- 200 -->
      <g style="fill: #b0b0b0" transform="translate(64.350625 207.69618)scale(0.14 -0.14)">
       <use xlink:href="#DejaVuSans-32"/>
       <use xlink:href="#DejaVuSans-30" x="63.623047"/>
       <use xlink:href="#DejaVuSans-30" x="127.246094"/>
      </g>
     </g>
    </g>
    <g id="ytick_4">
     <g id="line2d_14">
      <path d="M 98.073125 150.705041 
L 455.193125 150.705041 
" clip-path="url(#p8bcea2e4d4)" style="fill: none; stroke: #b0b0b0; stroke-width: 0.3; stroke-linecap: square"/>
     </g>
     <g id="line2d_15">
      <g>
       <use xlink:href="#m0f8282ea08" x="98.073125" y="150.705041" style="fill: #b0b0b0; stroke: #b0b0b0; stroke-width: 0.3"/>
      </g>
     </g>
     <g id="text_11">
      <!-- 300 -->
      <g style="fill: #b0b0b0" transform="translate(64.350625 156.023947)scale(0.14 -0.14)">
       <defs>
        <path id="DejaVuSans-33" d="M 2597 2516 
Q 3050 2419 3304 2112 
Q 3559 1806 3559 1356 
Q 3559 666 3084 287 
Q 2609 -91 1734 -91 
Q 1441 -91 1130 -33 
Q 819 25 488 141 
L 488 750 
Q 750 597 1062 519 
Q 1375 441 1716 441 
Q 2309 441 2620 675 
Q 2931 909 2931 1356 
Q 2931 1769 2642 2001 
Q 2353 2234 1838 2234 
L 1294 2234 
L 1294 2753 
L 1863 2753 
Q 2328 2753 2575 2939 
Q 2822 3125 2822 3475 
Q 2822 3834 2567 4026 
Q 2313 4219 1838 4219 
Q 1578 4219 1281 4162 
Q 984 4106 628 3988 
L 628 4550 
Q 988 4650 1302 4700 
Q 1616 4750 1894 4750 
Q 2613 4750 3031 4423 
Q 3450 4097 3450 3541 
Q 3450 3153 3228 2886 
Q 3006 2619 2597 2516 
z
" transform="scale(0.015625)"/>
       </defs>
       <use xlink:href="#DejaVuSans-33"/>
       <use xlink:href="#DejaVuSans-30" x="63.623047"/>
       <use xlink:href="#DejaVuSans-30" x="127.246094"/>
      </g>
     </g>
    </g>
    <g id="ytick_5">
     <g id="line2d_16">
      <path d="M 98.073125 99.032808 
L 455.193125 99.032808 
" clip-path="url(#p8bcea2e4d4)" style="fill: none; stroke: #b0b0b0; stroke-width: 0.3; stroke-linecap: square"/>
     </g>
     <g id="line2d_17">
      <g>
       <use xlink:href="#m0f8282ea08" x="98.073125" y="99.032808" style="fill: #b0b0b0; stroke: #b0b0b0; stroke-width: 0.3"/>
      </g>
     </g>
     <g id="text_12">
      <!-- 400 -->
      <g style="fill: #b0b0b0" transform="translate(64.350625 104.351714)scale(0.14 -0.14)">
       <use xlink:href="#DejaVuSans-34"/>
       <use xlink:href="#DejaVuSans-30" x="63.623047"/>
       <use xlink:href="#DejaVuSans-30" x="127.246094"/>
      </g>
     </g>
    </g>
    <g id="ytick_6">
     <g id="line2d_18">
      <path d="M 98.073125 47.360575 
L 455.193125 47.360575 
" clip-path="url(#p8bcea2e4d4)" style="fill: none; stroke: #b0b0b0; stroke-width: 0.3; stroke-linecap: square"/>
     </g>
     <g id="line2d_19">
      <g>
       <use xlink:href="#m0f8282ea08" x="98.073125" y="47.360575" style="fill: #b0b0b0; stroke: #b0b0b0; stroke-width: 0.3"/>
      </g>
     </g>
     <g id="text_13">
      <!-- 500 -->
      <g style="fill: #b0b0b0" transform="translate(64.350625 52.679481)scale(0.14 -0.14)">
       <defs>
        <path id="DejaVuSans-35" d="M 691 4666 
L 3169 4666 
L 3169 4134 
L 1269 4134 
L 1269 2991 
Q 1406 3038 1543 3061 
Q 1681 3084 1819 3084 
Q 2600 3084 3056 2656 
Q 3513 2228 3513 1497 
Q 3513 744 3044 326 
Q 2575 -91 1722 -91 
Q 1428 -91 1123 -41 
Q 819 9 494 109 
L 494 744 
Q 775 591 1075 516 
Q 1375 441 1709 441 
Q 2250 441 2565 725 
Q 2881 1009 2881 1497 
Q 2881 1984 2565 2268 
Q 2250 2553 1709 2553 
Q 1456 2553 1204 2497 
Q 953 2441 691 2322 
L 691 4666 
z
" transform="scale(0.015625)"/>
       </defs>
       <use xlink:href="#DejaVuSans-35"/>
       <use xlink:href="#DejaVuSans-30" x="63.623047"/>
       <use xlink:href="#DejaVuSans-30" x="127.246094"/>
      </g>
     </g>
    </g>
    <g id="text_14">
     <!-- GitHub stars -->
     <g style="fill: #b0b0b0" transform="translate(7.2 17.837812)scale(0.14 -0.14)">
      <defs>
       <path id="DejaVuSans-47" d="M 3809 666 
L 3809 1919 
L 2778 1919 
L 2778 2438 
L 4434 2438 
L 4434 434 
Q 4069 175 3628 42 
Q 3188 -91 2688 -91 
Q 1594 -91 976 548 
Q 359 1188 359 2328 
Q 359 3472 976 4111 
Q 1594 4750 2688 4750 
Q 3144 4750 3555 4637 
Q 3966 4525 4313 4306 
L 4313 3634 
Q 3963 3931 3569 4081 
Q 3175 4231 2741 4231 
Q 1884 4231 1454 3753 
Q 1025 3275 1025 2328 
Q 1025 1384 1454 906 
Q 1884 428 2741 428 
Q 3075 428 3337 486 
Q 3600 544 3809 666 
z
" transform="scale(0.015625)"/>
       <path id="DejaVuSans-69" d="M 603 3500 
L 1178 3500 
L 1178 0 
L 603 0 
L 603 3500 
z
M 603 4863 
L 1178 4863 
L 1178 4134 
L 603 4134 
L 603 4863 
z
" transform="scale(0.015625)"/>
       <path id="DejaVuSans-74" d="M 1172 4494 
L 1172 3500 
L 2356 3500 
L 2356 3053 
L 1172 3053 
L 1172 1153 
Q 1172 725 1289 603 
Q 1406 481 1766 481 
L 2356 481 
L 2356 0 
L 1766 0 
Q 1100 0 847 248 
Q 594 497 594 1153 
L 594 3053 
L 172 3053 
L 172 3500 
L 594 3500 
L 594 4494 
L 1172 4494 
z
" transform="scale(0.015625)"/>
       <path id="DejaVuSans-48" d="M 628 4666 
L 1259 4666 
L 1259 2753 
L 3553 2753 
L 3553 4666 
L 4184 4666 
L 4184 0 
L 3553 0 
L 3553 2222 
L 1259 2222 
L 1259 0 
L 628 0 
L 628 4666 
z
" transform="scale(0.015625)"/>
       <path id="DejaVuSans-75" d="M 544 1381 
L 544 3500 
L 1119 3500 
L 1119 1403 
Q 1119 906 1312 657 
Q 1506 409 1894 409 
Q 2359 409 2629 706 
Q 2900 1003 2900 1516 
L 2900 3500 
L 3475 3500 
L 3475 0 
L 2900 0 
L 2900 538 
Q 2691 219 2414 64 
Q 2138 -91 1772 -91 
Q 1169 -91 856 284 
Q 544 659 544 1381 
z
M 1991 3584 
L 1991 3584 
z
" transform="scale(0.015625)"/>
       <path id="DejaVuSans-62" d="M 3116 1747 
Q 3116 2381 2855 2742 
Q 2594 3103 2138 3103 
Q 1681 3103 1420 2742 
Q 1159 2381 1159 1747 
Q 1159 1113 1420 752 
Q 1681 391 2138 391 
Q 2594 391 2855 752 
Q 3116 1113 3116 1747 
z
M 1159 2969 
Q 1341 3281 1617 3432 
Q 1894 3584 2278 3584 
Q 2916 3584 3314 3078 
Q 3713 2572 3713 1747 
Q 3713 922 3314 415 
Q 2916 -91 2278 -91 
Q 1894 -91 1617 61 
Q 1341 213 1159 525 
L 1159 0 
L 581 0 
L 581 4863 
L 1159 4863 
L 1159 2969 
z
" transform="scale(0.015625)"/>
       <path id="DejaVuSans-20" transform="scale(0.015625)"/>
       <path id="DejaVuSans-73" d="M 2834 3397 
L 2834 2853 
Q 2591 2978 2328 3040 
Q 2066 3103 1784 3103 
Q 1356 3103 1142 2972 
Q 928 2841 928 2578 
Q 928 2378 1081 2264 
Q 1234 2150 1697 2047 
L 1894 2003 
Q 2506 1872 2764 1633 
Q 3022 1394 3022 966 
Q 3022 478 2636 193 
Q 2250 -91 1575 -91 
Q 1294 -91 989 -36 
Q 684 19 347 128 
L 347 722 
Q 666 556 975 473 
Q 1284 391 1588 391 
Q 1994 391 2212 530 
Q 2431 669 2431 922 
Q 2431 1156 2273 1281 
Q 2116 1406 1581 1522 
L 1381 1569 
Q 847 1681 609 1914 
Q 372 2147 372 2553 
Q 372 3047 722 3315 
Q 1072 3584 1716 3584 
Q 2034 3584 2315 3537 
Q 2597 3491 2834 3397 
z
" transform="scale(0.015625)"/>
       <path id="DejaVuSans-61" d="M 2194 1759 
Q 1497 1759 1228 1600 
Q 959 1441 959 1056 
Q 959 750 1161 570 
Q 1363 391 1709 391 
Q 2188 391 2477 730 
Q 2766 1069 2766 1631 
L 2766 1759 
L 2194 1759 
z
M 3341 1997 
L 3341 0 
L 2766 0 
L 2766 531 
Q 2569 213 2275 61 
Q 1981 -91 1556 -91 
Q 1019 -91 701 211 
Q 384 513 384 1019 
Q 384 1609 779 1909 
Q 1175 2209 1959 2209 
L 2766 2209 
L 2766 2266 
Q 2766 2663 2505 2880 
Q 2244 3097 1772 3097 
Q 1472 3097 1187 3025 
Q 903 2953 641 2809 
L 641 3341 
Q 956 3463 1253 3523 
Q 1550 3584 1831 3584 
Q 2591 3584 2966 3190 
Q 3341 2797 3341 1997 
z
" transform="scale(0.015625)"/>
       <path id="DejaVuSans-72" d="M 2631 2963 
Q 2534 3019 2420 3045 
Q 2306 3072 2169 3072 
Q 1681 3072 1420 2755 
Q 1159 2438 1159 1844 
L 1159 0 
L 581 0 
L 581 3500 
L 1159 3500 
L 1159 2956 
Q 1341 3275 1631 3429 
Q 1922 3584 2338 3584 
Q 2397 3584 2469 3576 
Q 2541 3569 2628 3553 
L 2631 2963 
z
" transform="scale(0.015625)"/>
      </defs>
      <use xlink:href="#DejaVuSans-47"/>
      <use xlink:href="#DejaVuSans-69" x="77.490234"/>
      <use xlink:href="#DejaVuSans-74" x="105.273438"/>
      <use xlink:href="#DejaVuSans-48" x="144.482422"/>
      <use xlink:href="#DejaVuSans-75" x="219.677734"/>
      <use xlink:href="#DejaVuSans-62" x="283.056641"/>
      <use xlink:href="#DejaVuSans-20" x="346.533203"/>
      <use xlink:href="#DejaVuSans-73" x="378.320312"/>
      <use xlink:href="#DejaVuSans-74" x="430.419922"/>
      <use xlink:href="#DejaVuSans-61" x="469.628906"/>
      <use xlink:href="#DejaVuSans-72" x="530.908203"/>
      <use xlink:href="#DejaVuSans-73" x="572.021484"/>
     </g>
    </g>
   </g>
   <g id="line2d_20">
    <path d="M 402.302559 305.72174 
L 404.548597 305.205018 
L 406.722182 302.104684 
L 408.968219 300.554517 
L 411.214257 299.00435 
L 413.387842 293.837126 
L 415.63388 289.186625 
L 417.807465 287.119736 
L 420.053502 281.435791 
L 422.29954 263.350509 
L 424.328219 260.250175 
L 426.574257 254.566229 
L 428.747842 249.915728 
L 430.99388 245.78195 
L 433.167465 240.098004 
L 435.413502 235.447503 
L 437.65954 226.146501 
L 439.833125 222.012723 
L 442.079163 219.429111 
L 444.252748 212.711721 
L 446.498785 209.611387 
L 448.744823 201.343829 
L 450.773502 194.109717 
L 453.01954 184.808715 
L 455.193125 181.191658 
" clip-path="url(#p8bcea2e4d4)" style="fill: none; stroke: #d62728; stroke-width: 1.5; stroke-linecap: square"/>
   </g>
   <g id="line2d_21">
    <path d="M 344.919917 305.72174 
L 347.165955 304.688295 
L 349.33954 304.688295 
L 351.585578 303.138128 
L 353.759163 302.621406 
L 356.0052 301.071239 
L 358.251238 296.93746 
L 360.424823 294.353849 
L 362.670861 292.803682 
L 364.844446 288.153181 
L 367.090483 284.536125 
L 369.336521 277.302012 
L 371.3652 272.651511 
L 373.611238 266.967565 
L 375.784823 264.900676 
L 378.030861 258.183286 
L 380.204446 254.049507 
L 382.450483 250.432451 
L 384.696521 244.231783 
L 386.870106 239.581282 
L 389.116144 235.964225 
L 391.289729 223.56289 
L 393.535767 220.979278 
L 395.781804 214.77861 
L 397.882936 208.577942 
L 400.128974 203.410719 
L 402.302559 198.760218 
L 404.548597 188.942493 
L 406.722182 181.191658 
L 408.968219 178.091325 
L 411.214257 174.990991 
L 413.387842 168.2736 
L 415.63388 162.589655 
L 417.807465 157.422431 
L 420.053502 151.221763 
L 422.29954 143.987651 
L 424.328219 139.853872 
L 426.574257 133.136482 
L 428.747842 125.385647 
L 430.99388 120.735146 
L 433.167465 116.601367 
L 435.413502 110.917422 
L 437.65954 105.233476 
L 439.833125 96.965919 
L 442.079163 91.281973 
L 444.252748 87.148194 
L 446.498785 83.014416 
L 448.744823 75.780303 
L 450.773502 70.61308 
L 453.01954 65.445857 
L 455.193125 57.695022 
" clip-path="url(#p8bcea2e4d4)" style="fill: none; stroke: #2ca02c; stroke-width: 1.5; stroke-linecap: square"/>
   </g>
   <g id="line2d_22">
    <path d="M 340.6452 305.72174 
L 342.891238 299.521072 
L 344.919917 295.387293 
L 347.165955 293.837126 
L 349.33954 290.22007 
L 351.585578 283.50268 
L 353.759163 280.919068 
L 356.0052 272.134789 
L 358.251238 265.934121 
L 360.424823 261.800342 
L 362.670861 258.700008 
L 364.844446 252.49934 
L 367.090483 248.882284 
L 369.336521 243.71506 
L 371.3652 238.547837 
L 373.611238 228.730113 
L 375.784823 223.56289 
L 378.030861 218.395666 
L 380.204446 212.194998 
L 382.450483 209.611387 
L 384.696521 199.793662 
L 386.870106 195.143161 
L 389.116144 186.358882 
L 391.289729 181.191658 
L 393.535767 178.608047 
L 395.781804 173.440824 
L 397.882936 169.823767 
L 400.128974 167.240156 
L 402.302559 163.623099 
L 404.548597 157.422431 
L 406.722182 153.805375 
L 408.968219 149.154874 
L 411.214257 145.021095 
L 413.387842 140.370594 
L 415.63388 135.720093 
L 417.807465 132.103037 
L 420.053502 129.519425 
L 422.29954 123.83548 
L 424.328219 120.218424 
L 426.574257 118.151534 
L 428.747842 114.017756 
L 430.99388 111.950866 
L 433.167465 108.33381 
L 435.413502 102.133142 
L 437.65954 99.032808 
L 439.833125 85.081305 
L 442.079163 80.947526 
L 444.252748 75.263581 
L 446.498785 68.546191 
L 448.744823 62.345523 
L 450.773502 60.278633 
L 453.01954 57.178299 
L 455.193125 55.628132 
" clip-path="url(#p8bcea2e4d4)" style="fill: none; stroke: #ff7f0e; stroke-width: 1.5; stroke-linecap: square"/>
   </g>
   <g id="text_15">
    <!-- pyenchant/pyenchant -->
    <g style="fill: #1f77b4" transform="translate(465.906725 40.840756)scale(0.14 -0.14)">
     <defs>
      <path id="DejaVuSans-70" d="M 1159 525 
L 1159 -1331 
L 581 -1331 
L 581 3500 
L 1159 3500 
L 1159 2969 
Q 1341 3281 1617 3432 
Q 1894 3584 2278 3584 
Q 2916 3584 3314 3078 
Q 3713 2572 3713 1747 
Q 3713 922 3314 415 
Q 2916 -91 2278 -91 
Q 1894 -91 1617 61 
Q 1341 213 1159 525 
z
M 3116 1747 
Q 3116 2381 2855 2742 
Q 2594 3103 2138 3103 
Q 1681 3103 1420 2742 
Q 1159 2381 1159 1747 
Q 1159 1113 1420 752 
Q 1681 391 2138 391 
Q 2594 391 2855 752 
Q 3116 1113 3116 1747 
z
" transform="scale(0.015625)"/>
      <path id="DejaVuSans-79" d="M 2059 -325 
Q 1816 -950 1584 -1140 
Q 1353 -1331 966 -1331 
L 506 -1331 
L 506 -850 
L 844 -850 
Q 1081 -850 1212 -737 
Q 1344 -625 1503 -206 
L 1606 56 
L 191 3500 
L 800 3500 
L 1894 763 
L 2988 3500 
L 3597 3500 
L 2059 -325 
z
" transform="scale(0.015625)"/>
      <path id="DejaVuSans-65" d="M 3597 1894 
L 3597 1613 
L 953 1613 
Q 991 1019 1311 708 
Q 1631 397 2203 397 
Q 2534 397 2845 478 
Q 3156 559 3463 722 
L 3463 178 
Q 3153 47 2828 -22 
Q 2503 -91 2169 -91 
Q 1331 -91 842 396 
Q 353 884 353 1716 
Q 353 2575 817 3079 
Q 1281 3584 2069 3584 
Q 2775 3584 3186 3129 
Q 3597 2675 3597 1894 
z
M 3022 2063 
Q 3016 2534 2758 2815 
Q 2500 3097 2075 3097 
Q 1594 3097 1305 2825 
Q 1016 2553 972 2059 
L 3022 2063 
z
" transform="scale(0.015625)"/>
      <path id="DejaVuSans-6e" d="M 3513 2113 
L 3513 0 
L 2938 0 
L 2938 2094 
Q 2938 2591 2744 2837 
Q 2550 3084 2163 3084 
Q 1697 3084 1428 2787 
Q 1159 2491 1159 1978 
L 1159 0 
L 581 0 
L 581 3500 
L 1159 3500 
L 1159 2956 
Q 1366 3272 1645 3428 
Q 1925 3584 2291 3584 
Q 2894 3584 3203 3211 
Q 3513 2838 3513 2113 
z
" transform="scale(0.015625)"/>
      <path id="DejaVuSans-63" d="M 3122 3366 
L 3122 2828 
Q 2878 2963 2633 3030 
Q 2388 3097 2138 3097 
Q 1578 3097 1268 2742 
Q 959 2388 959 1747 
Q 959 1106 1268 751 
Q 1578 397 2138 397 
Q 2388 397 2633 464 
Q 2878 531 3122 666 
L 3122 134 
Q 2881 22 2623 -34 
Q 2366 -91 2075 -91 
Q 1284 -91 818 406 
Q 353 903 353 1747 
Q 353 2603 823 3093 
Q 1294 3584 2113 3584 
Q 2378 3584 2631 3529 
Q 2884 3475 3122 3366 
z
" transform="scale(0.015625)"/>
      <path id="DejaVuSans-68" d="M 3513 2113 
L 3513 0 
L 2938 0 
L 2938 2094 
Q 2938 2591 2744 2837 
Q 2550 3084 2163 3084 
Q 1697 3084 1428 2787 
Q 1159 2491 1159 1978 
L 1159 0 
L 581 0 
L 581 4863 
L 1159 4863 
L 1159 2956 
Q 1366 3272 1645 3428 
Q 1925 3584 2291 3584 
Q 2894 3584 3203 3211 
Q 3513 2838 3513 2113 
z
" transform="scale(0.015625)"/>
      <path id="DejaVuSans-2f" d="M 1625 4666 
L 2156 4666 
L 531 -594 
L 0 -594 
L 1625 4666 
z
" transform="scale(0.015625)"/>
     </defs>
     <use xlink:href="#DejaVuSans-70"/>
     <use xlink:href="#DejaVuSans-79" x="63.476562"/>
     <use xlink:href="#DejaVuSans-65" x="122.65625"/>
     <use xlink:href="#DejaVuSans-6e" x="184.179688"/>
     <use xlink:href="#DejaVuSans-63" x="247.558594"/>
     <use xlink:href="#DejaVuSans-68" x="302.539062"/>
     <use xlink:href="#DejaVuSans-61" x="365.917969"/>
     <use xlink:href="#DejaVuSans-6e" x="427.197266"/>
     <use xlink:href="#DejaVuSans-74" x="490.576172"/>
     <use xlink:href="#DejaVuSans-2f" x="529.785156"/>
     <use xlink:href="#DejaVuSans-70" x="563.476562"/>
     <use xlink:href="#DejaVuSans-79" x="626.953125"/>
     <use xlink:href="#DejaVuSans-65" x="686.132812"/>
     <use xlink:href="#DejaVuSans-6e" x="747.65625"/>
     <use xlink:href="#DejaVuSans-63" x="811.035156"/>
     <use xlink:href="#DejaVuSans-68" x="866.015625"/>
     <use xlink:href="#DejaVuSans-61" x="929.394531"/>
     <use xlink:href="#DejaVuSans-6e" x="990.673828"/>
     <use xlink:href="#DejaVuSans-74" x="1054.052734"/>
    </g>
   </g>
   <g id="text_16">
    <!-- bakwc/JamSpell -->
    <g style="fill: #ff7f0e" transform="translate(465.906725 54.840756)scale(0.14 -0.14)">
     <defs>
      <path id="DejaVuSans-6b" d="M 581 4863 
L 1159 4863 
L 1159 1991 
L 2875 3500 
L 3609 3500 
L 1753 1863 
L 3688 0 
L 2938 0 
L 1159 1709 
L 1159 0 
L 581 0 
L 581 4863 
z
" transform="scale(0.015625)"/>
      <path id="DejaVuSans-77" d="M 269 3500 
L 844 3500 
L 1563 769 
L 2278 3500 
L 2956 3500 
L 3675 769 
L 4391 3500 
L 4966 3500 
L 4050 0 
L 3372 0 
L 2619 2869 
L 1863 0 
L 1184 0 
L 269 3500 
z
" transform="scale(0.015625)"/>
      <path id="DejaVuSans-4a" d="M 628 4666 
L 1259 4666 
L 1259 325 
Q 1259 -519 939 -900 
Q 619 -1281 -91 -1281 
L -331 -1281 
L -331 -750 
L -134 -750 
Q 284 -750 456 -515 
Q 628 -281 628 325 
L 628 4666 
z
" transform="scale(0.015625)"/>
      <path id="DejaVuSans-6d" d="M 3328 2828 
Q 3544 3216 3844 3400 
Q 4144 3584 4550 3584 
Q 5097 3584 5394 3201 
Q 5691 2819 5691 2113 
L 5691 0 
L 5113 0 
L 5113 2094 
Q 5113 2597 4934 2840 
Q 4756 3084 4391 3084 
Q 3944 3084 3684 2787 
Q 3425 2491 3425 1978 
L 3425 0 
L 2847 0 
L 2847 2094 
Q 2847 2600 2669 2842 
Q 2491 3084 2119 3084 
Q 1678 3084 1418 2786 
Q 1159 2488 1159 1978 
L 1159 0 
L 581 0 
L 581 3500 
L 1159 3500 
L 1159 2956 
Q 1356 3278 1631 3431 
Q 1906 3584 2284 3584 
Q 2666 3584 2933 3390 
Q 3200 3197 3328 2828 
z
" transform="scale(0.015625)"/>
      <path id="DejaVuSans-53" d="M 3425 4513 
L 3425 3897 
Q 3066 4069 2747 4153 
Q 2428 4238 2131 4238 
Q 1616 4238 1336 4038 
Q 1056 3838 1056 3469 
Q 1056 3159 1242 3001 
Q 1428 2844 1947 2747 
L 2328 2669 
Q 3034 2534 3370 2195 
Q 3706 1856 3706 1288 
Q 3706 609 3251 259 
Q 2797 -91 1919 -91 
Q 1588 -91 1214 -16 
Q 841 59 441 206 
L 441 856 
Q 825 641 1194 531 
Q 1563 422 1919 422 
Q 2459 422 2753 634 
Q 3047 847 3047 1241 
Q 3047 1584 2836 1778 
Q 2625 1972 2144 2069 
L 1759 2144 
Q 1053 2284 737 2584 
Q 422 2884 422 3419 
Q 422 4038 858 4394 
Q 1294 4750 2059 4750 
Q 2388 4750 2728 4690 
Q 3069 4631 3425 4513 
z
" transform="scale(0.015625)"/>
      <path id="DejaVuSans-6c" d="M 603 4863 
L 1178 4863 
L 1178 0 
L 603 0 
L 603 4863 
z
" transform="scale(0.015625)"/>
     </defs>
     <use xlink:href="#DejaVuSans-62"/>
     <use xlink:href="#DejaVuSans-61" x="63.476562"/>
     <use xlink:href="#DejaVuSans-6b" x="124.755859"/>
     <use xlink:href="#DejaVuSans-77" x="182.666016"/>
     <use xlink:href="#DejaVuSans-63" x="264.453125"/>
     <use xlink:href="#DejaVuSans-2f" x="319.433594"/>
     <use xlink:href="#DejaVuSans-4a" x="353.125"/>
     <use xlink:href="#DejaVuSans-61" x="382.617188"/>
     <use xlink:href="#DejaVuSans-6d" x="443.896484"/>
     <use xlink:href="#DejaVuSans-53" x="541.308594"/>
     <use xlink:href="#DejaVuSans-70" x="604.785156"/>
     <use xlink:href="#DejaVuSans-65" x="668.261719"/>
     <use xlink:href="#DejaVuSans-6c" x="729.785156"/>
     <use xlink:href="#DejaVuSans-6c" x="757.568359"/>
    </g>
   </g>
   <g id="text_17">
    <!-- barrust/pyspellchecker -->
    <g style="fill: #2ca02c" transform="translate(465.906725 68.840756)scale(0.14 -0.14)">
     <use xlink:href="#DejaVuSans-62"/>
     <use xlink:href="#DejaVuSans-61" x="63.476562"/>
     <use xlink:href="#DejaVuSans-72" x="124.755859"/>
     <use xlink:href="#DejaVuSans-72" x="164.119141"/>
     <use xlink:href="#DejaVuSans-75" x="205.232422"/>
     <use xlink:href="#DejaVuSans-73" x="268.611328"/>
     <use xlink:href="#DejaVuSans-74" x="320.710938"/>
     <use xlink:href="#DejaVuSans-2f" x="359.919922"/>
     <use xlink:href="#DejaVuSans-70" x="393.611328"/>
     <use xlink:href="#DejaVuSans-79" x="457.087891"/>
     <use xlink:href="#DejaVuSans-73" x="516.267578"/>
     <use xlink:href="#DejaVuSans-70" x="568.367188"/>
     <use xlink:href="#DejaVuSans-65" x="631.84375"/>
     <use xlink:href="#DejaVuSans-6c" x="693.367188"/>
     <use xlink:href="#DejaVuSans-6c" x="721.150391"/>
     <use xlink:href="#DejaVuSans-63" x="748.933594"/>
     <use xlink:href="#DejaVuSans-68" x="803.914062"/>
     <use xlink:href="#DejaVuSans-65" x="867.292969"/>
     <use xlink:href="#DejaVuSans-63" x="928.816406"/>
     <use xlink:href="#DejaVuSans-6b" x="983.796875"/>
     <use xlink:href="#DejaVuSans-65" x="1038.082031"/>
     <use xlink:href="#DejaVuSans-72" x="1099.605469"/>
    </g>
   </g>
   <g id="text_18">
    <!-- filyp/autocorrect -->
    <g style="fill: #d62728" transform="translate(465.906725 185.054783)scale(0.14 -0.14)">
     <defs>
      <path id="DejaVuSans-66" d="M 2375 4863 
L 2375 4384 
L 1825 4384 
Q 1516 4384 1395 4259 
Q 1275 4134 1275 3809 
L 1275 3500 
L 2222 3500 
L 2222 3053 
L 1275 3053 
L 1275 0 
L 697 0 
L 697 3053 
L 147 3053 
L 147 3500 
L 697 3500 
L 697 3744 
Q 697 4328 969 4595 
Q 1241 4863 1831 4863 
L 2375 4863 
z
" transform="scale(0.015625)"/>
      <path id="DejaVuSans-6f" d="M 1959 3097 
Q 1497 3097 1228 2736 
Q 959 2375 959 1747 
Q 959 1119 1226 758 
Q 1494 397 1959 397 
Q 2419 397 2687 759 
Q 2956 1122 2956 1747 
Q 2956 2369 2687 2733 
Q 2419 3097 1959 3097 
z
M 1959 3584 
Q 2709 3584 3137 3096 
Q 3566 2609 3566 1747 
Q 3566 888 3137 398 
Q 2709 -91 1959 -91 
Q 1206 -91 779 398 
Q 353 888 353 1747 
Q 353 2609 779 3096 
Q 1206 3584 1959 3584 
z
" transform="scale(0.015625)"/>
     </defs>
     <use xlink:href="#DejaVuSans-66"/>
     <use xlink:href="#DejaVuSans-69" x="35.205078"/>
     <use xlink:href="#DejaVuSans-6c" x="62.988281"/>
     <use xlink:href="#DejaVuSans-79" x="90.771484"/>
     <use xlink:href="#DejaVuSans-70" x="149.951172"/>
     <use xlink:href="#DejaVuSans-2f" x="213.427734"/>
     <use xlink:href="#DejaVuSans-61" x="247.119141"/>
     <use xlink:href="#DejaVuSans-75" x="308.398438"/>
     <use xlink:href="#DejaVuSans-74" x="371.777344"/>
     <use xlink:href="#DejaVuSans-6f" x="410.986328"/>
     <use xlink:href="#DejaVuSans-63" x="472.167969"/>
     <use xlink:href="#DejaVuSans-6f" x="527.148438"/>
     <use xlink:href="#DejaVuSans-72" x="588.330078"/>
     <use xlink:href="#DejaVuSans-72" x="627.693359"/>
     <use xlink:href="#DejaVuSans-65" x="666.556641"/>
     <use xlink:href="#DejaVuSans-63" x="728.080078"/>
     <use xlink:href="#DejaVuSans-74" x="783.060547"/>
    </g>
   </g>
   <g id="text_19">
    <!-- @nschloe / gh-trends | Nico Schlömer | CC BY -->
    <g style="fill: #b0b0b0" transform="translate(98.073125 339.758089)scale(0.09716 -0.09716)">
     <defs>
      <path id="DejaVuSans-40" d="M 2381 1678 
Q 2381 1231 2603 976 
Q 2825 722 3213 722 
Q 3597 722 3817 978 
Q 4038 1234 4038 1678 
Q 4038 2116 3813 2373 
Q 3588 2631 3206 2631 
Q 2828 2631 2604 2375 
Q 2381 2119 2381 1678 
z
M 4084 744 
Q 3897 503 3655 389 
Q 3413 275 3091 275 
Q 2553 275 2217 664 
Q 1881 1053 1881 1678 
Q 1881 2303 2218 2693 
Q 2556 3084 3091 3084 
Q 3413 3084 3656 2967 
Q 3900 2850 4084 2613 
L 4084 3022 
L 4531 3022 
L 4531 722 
Q 4988 791 5245 1139 
Q 5503 1488 5503 2041 
Q 5503 2375 5404 2669 
Q 5306 2963 5106 3213 
Q 4781 3622 4314 3839 
Q 3847 4056 3297 4056 
Q 2913 4056 2559 3954 
Q 2206 3853 1906 3653 
Q 1416 3334 1139 2817 
Q 863 2300 863 1697 
Q 863 1200 1042 765 
Q 1222 331 1563 0 
Q 1891 -325 2322 -495 
Q 2753 -666 3244 -666 
Q 3647 -666 4036 -530 
Q 4425 -394 4750 -141 
L 5031 -488 
Q 4641 -791 4180 -952 
Q 3719 -1113 3244 -1113 
Q 2666 -1113 2153 -908 
Q 1641 -703 1241 -313 
Q 841 78 631 592 
Q 422 1106 422 1697 
Q 422 2266 634 2781 
Q 847 3297 1241 3688 
Q 1644 4084 2172 4295 
Q 2700 4506 3291 4506 
Q 3953 4506 4520 4234 
Q 5088 3963 5472 3463 
Q 5706 3156 5829 2797 
Q 5953 2438 5953 2053 
Q 5953 1231 5456 756 
Q 4959 281 4084 263 
L 4084 744 
z
" transform="scale(0.015625)"/>
      <path id="DejaVuSans-67" d="M 2906 1791 
Q 2906 2416 2648 2759 
Q 2391 3103 1925 3103 
Q 1463 3103 1205 2759 
Q 947 2416 947 1791 
Q 947 1169 1205 825 
Q 1463 481 1925 481 
Q 2391 481 2648 825 
Q 2906 1169 2906 1791 
z
M 3481 434 
Q 3481 -459 3084 -895 
Q 2688 -1331 1869 -1331 
Q 1566 -1331 1297 -1286 
Q 1028 -1241 775 -1147 
L 775 -588 
Q 1028 -725 1275 -790 
Q 1522 -856 1778 -856 
Q 2344 -856 2625 -561 
Q 2906 -266 2906 331 
L 2906 616 
Q 2728 306 2450 153 
Q 2172 0 1784 0 
Q 1141 0 747 490 
Q 353 981 353 1791 
Q 353 2603 747 3093 
Q 1141 3584 1784 3584 
Q 2172 3584 2450 3431 
Q 2728 3278 2906 2969 
L 2906 3500 
L 3481 3500 
L 3481 434 
z
" transform="scale(0.015625)"/>
      <path id="DejaVuSans-2d" d="M 313 2009 
L 1997 2009 
L 1997 1497 
L 313 1497 
L 313 2009 
z
" transform="scale(0.015625)"/>
      <path id="DejaVuSans-64" d="M 2906 2969 
L 2906 4863 
L 3481 4863 
L 3481 0 
L 2906 0 
L 2906 525 
Q 2725 213 2448 61 
Q 2172 -91 1784 -91 
Q 1150 -91 751 415 
Q 353 922 353 1747 
Q 353 2572 751 3078 
Q 1150 3584 1784 3584 
Q 2172 3584 2448 3432 
Q 2725 3281 2906 2969 
z
M 947 1747 
Q 947 1113 1208 752 
Q 1469 391 1925 391 
Q 2381 391 2643 752 
Q 2906 1113 2906 1747 
Q 2906 2381 2643 2742 
Q 2381 3103 1925 3103 
Q 1469 3103 1208 2742 
Q 947 2381 947 1747 
z
" transform="scale(0.015625)"/>
      <path id="DejaVuSans-7c" d="M 1344 4891 
L 1344 -1509 
L 813 -1509 
L 813 4891 
L 1344 4891 
z
" transform="scale(0.015625)"/>
      <path id="DejaVuSans-4e" d="M 628 4666 
L 1478 4666 
L 3547 763 
L 3547 4666 
L 4159 4666 
L 4159 0 
L 3309 0 
L 1241 3903 
L 1241 0 
L 628 0 
L 628 4666 
z
" transform="scale(0.015625)"/>
      <path id="DejaVuSans-f6" d="M 1959 3097 
Q 1497 3097 1228 2736 
Q 959 2375 959 1747 
Q 959 1119 1226 758 
Q 1494 397 1959 397 
Q 2419 397 2687 759 
Q 2956 1122 2956 1747 
Q 2956 2369 2687 2733 
Q 2419 3097 1959 3097 
z
M 1959 3584 
Q 2709 3584 3137 3096 
Q 3566 2609 3566 1747 
Q 3566 888 3137 398 
Q 2709 -91 1959 -91 
Q 1206 -91 779 398 
Q 353 888 353 1747 
Q 353 2609 779 3096 
Q 1206 3584 1959 3584 
z
M 2254 4850 
L 2888 4850 
L 2888 4219 
L 2254 4219 
L 2254 4850 
z
M 1032 4850 
L 1666 4850 
L 1666 4219 
L 1032 4219 
L 1032 4850 
z
" transform="scale(0.015625)"/>
      <path id="DejaVuSans-43" d="M 4122 4306 
L 4122 3641 
Q 3803 3938 3442 4084 
Q 3081 4231 2675 4231 
Q 1875 4231 1450 3742 
Q 1025 3253 1025 2328 
Q 1025 1406 1450 917 
Q 1875 428 2675 428 
Q 3081 428 3442 575 
Q 3803 722 4122 1019 
L 4122 359 
Q 3791 134 3420 21 
Q 3050 -91 2638 -91 
Q 1578 -91 968 557 
Q 359 1206 359 2328 
Q 359 3453 968 4101 
Q 1578 4750 2638 4750 
Q 3056 4750 3426 4639 
Q 3797 4528 4122 4306 
z
" transform="scale(0.015625)"/>
      <path id="DejaVuSans-42" d="M 1259 2228 
L 1259 519 
L 2272 519 
Q 2781 519 3026 730 
Q 3272 941 3272 1375 
Q 3272 1813 3026 2020 
Q 2781 2228 2272 2228 
L 1259 2228 
z
M 1259 4147 
L 1259 2741 
L 2194 2741 
Q 2656 2741 2882 2914 
Q 3109 3088 3109 3444 
Q 3109 3797 2882 3972 
Q 2656 4147 2194 4147 
L 1259 4147 
z
M 628 4666 
L 2241 4666 
Q 2963 4666 3353 4366 
Q 3744 4066 3744 3513 
Q 3744 3084 3544 2831 
Q 3344 2578 2956 2516 
Q 3422 2416 3680 2098 
Q 3938 1781 3938 1306 
Q 3938 681 3513 340 
Q 3088 0 2303 0 
L 628 0 
L 628 4666 
z
" transform="scale(0.015625)"/>
      <path id="DejaVuSans-59" d="M -13 4666 
L 666 4666 
L 1959 2747 
L 3244 4666 
L 3922 4666 
L 2272 2222 
L 2272 0 
L 1638 0 
L 1638 2222 
L -13 4666 
z
" transform="scale(0.015625)"/>
     </defs>
     <use xlink:href="#DejaVuSans-40"/>
     <use xlink:href="#DejaVuSans-6e" x="100"/>
     <use xlink:href="#DejaVuSans-73" x="163.378906"/>
     <use xlink:href="#DejaVuSans-63" x="215.478516"/>
     <use xlink:href="#DejaVuSans-68" x="270.458984"/>
     <use xlink:href="#DejaVuSans-6c" x="333.837891"/>
     <use xlink:href="#DejaVuSans-6f" x="361.621094"/>
     <use xlink:href="#DejaVuSans-65" x="422.802734"/>
     <use xlink:href="#DejaVuSans-20" x="484.326172"/>
     <use xlink:href="#DejaVuSans-2f" x="516.113281"/>
     <use xlink:href="#DejaVuSans-20" x="549.804688"/>
     <use xlink:href="#DejaVuSans-67" x="581.591797"/>
     <use xlink:href="#DejaVuSans-68" x="645.068359"/>
     <use xlink:href="#DejaVuSans-2d" x="708.447266"/>
     <use xlink:href="#DejaVuSans-74" x="744.53125"/>
     <use xlink:href="#DejaVuSans-72" x="783.740234"/>
     <use xlink:href="#DejaVuSans-65" x="822.603516"/>
     <use xlink:href="#DejaVuSans-6e" x="884.126953"/>
     <use xlink:href="#DejaVuSans-64" x="947.505859"/>
     <use xlink:href="#DejaVuSans-73" x="1010.982422"/>
     <use xlink:href="#DejaVuSans-20" x="1063.082031"/>
     <use xlink:href="#DejaVuSans-7c" x="1094.869141"/>
     <use xlink:href="#DejaVuSans-20" x="1128.560547"/>
     <use xlink:href="#DejaVuSans-4e" x="1160.347656"/>
     <use xlink:href="#DejaVuSans-69" x="1235.152344"/>
     <use xlink:href="#DejaVuSans-63" x="1262.935547"/>
     <use xlink:href="#DejaVuSans-6f" x="1317.916016"/>
     <use xlink:href="#DejaVuSans-20" x="1379.097656"/>
     <use xlink:href="#DejaVuSans-53" x="1410.884766"/>
     <use xlink:href="#DejaVuSans-63" x="1474.361328"/>
     <use xlink:href="#DejaVuSans-68" x="1529.341797"/>
     <use xlink:href="#DejaVuSans-6c" x="1592.720703"/>
     <use xlink:href="#DejaVuSans-f6" x="1620.503906"/>
     <use xlink:href="#DejaVuSans-6d" x="1681.685547"/>
     <use xlink:href="#DejaVuSans-65" x="1779.097656"/>
     <use xlink:href="#DejaVuSans-72" x="1840.621094"/>
     <use xlink:href="#DejaVuSans-20" x="1881.734375"/>
     <use xlink:href="#DejaVuSans-7c" x="1913.521484"/>
     <use xlink:href="#DejaVuSans-20" x="1947.212891"/>
     <use xlink:href="#DejaVuSans-43" x="1979"/>
     <use xlink:href="#DejaVuSans-43" x="2048.824219"/>
     <use xlink:href="#DejaVuSans-20" x="2118.648438"/>
     <use xlink:href="#DejaVuSans-42" x="2150.435547"/>
     <use xlink:href="#DejaVuSans-59" x="2213.539062"/>
    </g>
   </g>
   <g id="line2d_23">
    <path d="M 98.073125 305.72174 
L 100.24671 304.171573 
L 109.013502 304.171573 
L 111.187087 303.654851 
L 115.60671 303.654851 
L 117.852748 303.138128 
L 122.27237 303.138128 
L 124.518408 302.104684 
L 126.691993 301.587961 
L 133.212748 301.587961 
L 135.458785 301.071239 
L 137.63237 301.071239 
L 142.051993 300.037794 
L 146.544068 300.037794 
L 150.963691 299.00435 
L 153.137276 299.00435 
L 155.383314 297.454183 
L 157.629351 296.420738 
L 161.904068 296.420738 
L 164.077653 295.904016 
L 166.323691 295.904016 
L 172.989351 294.353849 
L 177.408974 294.353849 
L 179.582559 293.320404 
L 199.507087 293.320404 
L 201.680672 292.803682 
L 210.59237 292.803682 
L 212.62105 291.253515 
L 214.867087 290.736792 
L 217.040672 289.703348 
L 221.460295 288.669903 
L 223.706333 288.669903 
L 225.95237 287.636458 
L 228.125955 286.086292 
L 230.371993 286.086292 
L 232.545578 285.052847 
L 234.791616 285.052847 
L 237.037653 284.019402 
L 239.066333 283.50268 
L 241.31237 282.469235 
L 245.731993 278.335457 
L 247.905578 277.818734 
L 250.151616 277.818734 
L 256.817276 276.268567 
L 263.482936 271.618066 
L 265.511616 271.618066 
L 267.757653 271.101344 
L 269.931238 269.034455 
L 272.177276 268.517732 
L 274.350861 267.484288 
L 276.596899 267.484288 
L 278.842936 265.934121 
L 281.016521 265.417398 
L 285.436144 263.350509 
L 289.928219 260.250175 
L 294.275389 256.116396 
L 296.448974 254.566229 
L 300.868597 250.432451 
L 303.114634 249.915728 
L 305.360672 248.365561 
L 307.534257 247.332117 
L 309.780295 244.748505 
L 311.95388 243.71506 
L 314.199917 242.164893 
L 316.445955 237.514392 
L 318.474634 235.447503 
L 320.720672 232.347169 
L 322.894257 230.28028 
L 325.140295 226.146501 
L 327.31388 224.079612 
L 329.559917 219.429111 
L 331.805955 216.845499 
L 336.225578 210.644831 
L 338.399163 209.611387 
L 340.6452 208.06122 
L 342.891238 205.99433 
L 344.919917 204.444163 
L 347.165955 201.343829 
L 349.33954 197.726773 
L 351.585578 195.143161 
L 353.759163 192.042827 
L 356.0052 189.459216 
L 358.251238 184.291992 
L 360.424823 181.708381 
L 362.670861 177.05788 
L 364.844446 173.440824 
L 367.090483 168.790323 
L 369.336521 162.072932 
L 373.611238 153.288653 
L 375.784823 147.087985 
L 378.030861 143.470928 
L 380.204446 141.920761 
L 382.450483 138.303705 
L 384.696521 134.169926 
L 386.870106 132.103037 
L 391.289729 125.902369 
L 393.535767 122.285313 
L 395.781804 118.151534 
L 397.882936 115.567923 
L 400.128974 112.467589 
L 402.302559 108.33381 
L 404.548597 104.716754 
L 408.968219 99.54953 
L 411.214257 95.932474 
L 413.387842 92.83214 
L 415.63388 91.798695 
L 417.807465 90.248528 
L 422.29954 80.947526 
L 424.328219 77.847192 
L 426.574257 76.813748 
L 428.747842 74.230136 
L 433.167465 72.163247 
L 435.413502 68.546191 
L 437.65954 65.962579 
L 439.833125 62.345523 
L 442.079163 58.211744 
L 444.252748 56.661577 
L 446.498785 54.077965 
L 448.744823 52.527798 
L 453.01954 44.776963 
L 455.193125 39.60974 
L 455.193125 39.60974 
" clip-path="url(#p8bcea2e4d4)" style="fill: none; stroke: #1f77b4; stroke-width: 1.5; stroke-linecap: square"/>
   </g>
  </g>
 </g>
 <defs>
  <clipPath id="p8bcea2e4d4">
   <rect x="98.073125" y="39.60974" width="357.12" height="266.112"/>
  </clipPath>
 </defs>
</svg>
