<svg xmlns:xlink="http://www.w3.org/1999/xlink" width="795.773" height="451.655" viewBox="0 0 596.83 338.741" xmlns="http://www.w3.org/2000/svg"><defs><style>*{stroke-linejoin:round;stroke-linecap:butt}</style></defs><g id="figure_1"><path d="M0 338.741h596.83V0H0v338.741z" style="fill:none" id="patch_1"/><g id="axes_1"><path d="M82.476 295.214h357.12V29.102H82.476v266.112z" style="fill:none" id="patch_2"/><g id="matplotlib.axis_1"><g id="xtick_1"><g id="line2d_1"><defs><path id="mc54b5379f5" d="M0 0v3.5" style="stroke:#b0b0b0;stroke-width:.4"/></defs><use xlink:href="#mc54b5379f5" x="115.58" y="295.214" style="fill:#b0b0b0;stroke:#b0b0b0;stroke-width:.4"/></g><g style="fill:#b0b0b0" transform="matrix(.14 0 0 -.14 101.217 312.154)" id="text_1"><defs><path id="MyriadPro-Regular-32" d="M2944 0v467H1075v13l333 307c877 845 1434 1466 1434 2234 0 595-378 1209-1274 1209-480 0-890-179-1178-422l180-397c192 160 505 352 883 352 621 0 825-390 825-813-6-627-486-1164-1548-2176L288 346V0h2656z" transform="scale(.01563)"/><path id="MyriadPro-Regular-30" d="M1677 4230c-845 0-1447-768-1447-2163C243 691 794-70 1606-70c922 0 1447 780 1447 2195 0 1325-499 2105-1376 2105zm-32-435c582 0 845-672 845-1696 0-1062-276-1734-852-1734-512 0-844 614-844 1696 0 1133 358 1734 851 1734z" transform="scale(.01563)"/><path id="MyriadPro-Regular-31" d="M1510 0h544v4160h-480l-908-486 108-429 724 390h12V0z" transform="scale(.01563)"/></defs><use xlink:href="#MyriadPro-Regular-32"/><use xlink:href="#MyriadPro-Regular-30" x="51.3"/><use xlink:href="#MyriadPro-Regular-31" x="102.6"/><use xlink:href="#MyriadPro-Regular-30" x="153.9"/></g></g><g id="xtick_2"><use xlink:href="#mc54b5379f5" x="168.46" y="295.214" style="fill:#b0b0b0;stroke:#b0b0b0;stroke-width:.4" id="line2d_2"/><g style="fill:#b0b0b0" transform="matrix(.14 0 0 -.14 154.097 312.154)" id="text_2"><use xlink:href="#MyriadPro-Regular-32"/><use xlink:href="#MyriadPro-Regular-30" x="51.3"/><use xlink:href="#MyriadPro-Regular-31" x="102.6"/><use xlink:href="#MyriadPro-Regular-32" x="153.9"/></g></g><g id="xtick_3"><use xlink:href="#mc54b5379f5" x="221.413" y="295.214" style="fill:#b0b0b0;stroke:#b0b0b0;stroke-width:.4" id="line2d_3"/><g style="fill:#b0b0b0" transform="matrix(.14 0 0 -.14 207.05 312.154)" id="text_3"><defs><path id="MyriadPro-Regular-34" d="M2560 0v1133h582v441h-582v2586h-608L96 1504v-371h1933V0h531zM666 1574v13l1017 1415c115 192 218 371 346 614h19c-13-218-19-435-19-653V1574H666z" transform="scale(.01563)"/></defs><use xlink:href="#MyriadPro-Regular-32"/><use xlink:href="#MyriadPro-Regular-30" x="51.3"/><use xlink:href="#MyriadPro-Regular-31" x="102.6"/><use xlink:href="#MyriadPro-Regular-34" x="153.9"/></g></g><g id="xtick_4"><use xlink:href="#mc54b5379f5" x="274.292" y="295.214" style="fill:#b0b0b0;stroke:#b0b0b0;stroke-width:.4" id="line2d_4"/><g style="fill:#b0b0b0" transform="matrix(.14 0 0 -.14 259.93 312.154)" id="text_4"><defs><path id="MyriadPro-Regular-36" d="M2662 4224c-102 0-243-6-409-32-525-64-986-275-1331-614-410-410-704-1056-704-1876C218 621 800-70 1690-70c864 0 1382 704 1382 1465 0 813-518 1344-1254 1344-461 0-807-217-1005-480h-19c96 685 563 1331 1446 1479 160 25 307 32 422 25v461zM1690 365c-589 0-903 505-916 1190 0 103 26 186 64 250 154 301 468 512 807 512 518 0 857-359 857-954s-326-998-806-998h-6z" transform="scale(.01563)"/></defs><use xlink:href="#MyriadPro-Regular-32"/><use xlink:href="#MyriadPro-Regular-30" x="51.3"/><use xlink:href="#MyriadPro-Regular-31" x="102.6"/><use xlink:href="#MyriadPro-Regular-36" x="153.9"/></g></g><g id="xtick_5"><use xlink:href="#mc54b5379f5" x="327.245" y="295.214" style="fill:#b0b0b0;stroke:#b0b0b0;stroke-width:.4" id="line2d_5"/><g style="fill:#b0b0b0" transform="matrix(.14 0 0 -.14 312.882 312.154)" id="text_5"><defs><path id="MyriadPro-Regular-38" d="M1062 2170c-512-218-825-589-825-1114C237 448 762-70 1632-70c794 0 1414 486 1414 1209 0 506-320 871-838 1075v20c512 243 685 620 685 972 0 519-403 1024-1210 1024-729 0-1286-448-1286-1107 0-358 198-717 659-934l6-19zm583-1831c-531 0-851 371-832 794 0 397 262 717 749 857 563-160 915-403 915-908 0-423-327-743-832-743zm6 3488c506 0 704-345 704-678 0-378-275-634-633-755-480 128-794 352-794 768 0 358 256 665 723 665z" transform="scale(.01563)"/></defs><use xlink:href="#MyriadPro-Regular-32"/><use xlink:href="#MyriadPro-Regular-30" x="51.3"/><use xlink:href="#MyriadPro-Regular-31" x="102.6"/><use xlink:href="#MyriadPro-Regular-38" x="153.9"/></g></g><g id="xtick_6"><use xlink:href="#mc54b5379f5" x="380.125" y="295.214" style="fill:#b0b0b0;stroke:#b0b0b0;stroke-width:.4" id="line2d_6"/><g style="fill:#b0b0b0" transform="matrix(.14 0 0 -.14 365.761 312.154)" id="text_6"><use xlink:href="#MyriadPro-Regular-32"/><use xlink:href="#MyriadPro-Regular-30" x="51.3"/><use xlink:href="#MyriadPro-Regular-32" x="102.6"/><use xlink:href="#MyriadPro-Regular-30" x="153.9"/></g></g><g id="xtick_7"><use xlink:href="#mc54b5379f5" x="433.077" y="295.214" style="fill:#b0b0b0;stroke:#b0b0b0;stroke-width:.4" id="line2d_7"/><g style="fill:#b0b0b0" transform="matrix(.14 0 0 -.14 418.714 312.154)" id="text_7"><use xlink:href="#MyriadPro-Regular-32"/><use xlink:href="#MyriadPro-Regular-30" x="51.3"/><use xlink:href="#MyriadPro-Regular-32" x="102.6"/><use xlink:href="#MyriadPro-Regular-32" x="153.9"/></g></g></g><g id="matplotlib.axis_2"><g id="ytick_1"><path d="M82.476 295.214h357.12" clip-path="url(#p1a35d3decc)" style="fill:none;stroke:#b0b0b0;stroke-width:.3;stroke-linecap:square" id="line2d_8"/><g id="line2d_9"><defs><path id="m8665bed9f0" d="M0 0h-3.5" style="stroke:#b0b0b0;stroke-width:.3"/></defs><use xlink:href="#m8665bed9f0" x="82.476" y="295.214" style="fill:#b0b0b0;stroke:#b0b0b0;stroke-width:.3"/></g><use xlink:href="#MyriadPro-Regular-30" style="fill:#b0b0b0" transform="matrix(.14 0 0 -.14 68.295 300.184)" id="text_8"/></g><g id="ytick_2"><path d="M82.476 264.128h357.12" clip-path="url(#p1a35d3decc)" style="fill:none;stroke:#b0b0b0;stroke-width:.3;stroke-linecap:square" id="line2d_10"/><use xlink:href="#m8665bed9f0" x="82.476" y="264.128" style="fill:#b0b0b0;stroke:#b0b0b0;stroke-width:.3" id="line2d_11"/><g style="fill:#b0b0b0" transform="matrix(.14 0 0 -.14 39.568 269.098)" id="text_9"><use xlink:href="#MyriadPro-Regular-31"/><use xlink:href="#MyriadPro-Regular-30" x="51.3"/><use xlink:href="#MyriadPro-Regular-30" x="102.6"/><use xlink:href="#MyriadPro-Regular-30" x="153.9"/><use xlink:href="#MyriadPro-Regular-30" x="205.2"/></g></g><g id="ytick_3"><path d="M82.476 233.041h357.12" clip-path="url(#p1a35d3decc)" style="fill:none;stroke:#b0b0b0;stroke-width:.3;stroke-linecap:square" id="line2d_12"/><use xlink:href="#m8665bed9f0" x="82.476" y="233.041" style="fill:#b0b0b0;stroke:#b0b0b0;stroke-width:.3" id="line2d_13"/><g style="fill:#b0b0b0" transform="matrix(.14 0 0 -.14 39.568 238.011)" id="text_10"><use xlink:href="#MyriadPro-Regular-32"/><use xlink:href="#MyriadPro-Regular-30" x="51.3"/><use xlink:href="#MyriadPro-Regular-30" x="102.6"/><use xlink:href="#MyriadPro-Regular-30" x="153.9"/><use xlink:href="#MyriadPro-Regular-30" x="205.2"/></g></g><g id="ytick_4"><path d="M82.476 201.955h357.12" clip-path="url(#p1a35d3decc)" style="fill:none;stroke:#b0b0b0;stroke-width:.3;stroke-linecap:square" id="line2d_14"/><use xlink:href="#m8665bed9f0" x="82.476" y="201.955" style="fill:#b0b0b0;stroke:#b0b0b0;stroke-width:.3" id="line2d_15"/><g style="fill:#b0b0b0" transform="matrix(.14 0 0 -.14 39.568 206.925)" id="text_11"><defs><path id="MyriadPro-Regular-33" d="M269 211C474 77 883-70 1350-70c999 0 1517 582 1517 1248 0 582-416 966-928 1068v13c512 186 768 551 768 979 0 506-371 992-1190 992-448 0-871-160-1088-320l147-409c179 128 499 275 832 275 518 0 730-294 730-627 0-493-519-704-928-704H896v-423h314c544 0 1068-249 1075-832 6-345-218-806-941-806-390 0-762 160-922 262L269 211z" transform="scale(.01563)"/></defs><use xlink:href="#MyriadPro-Regular-33"/><use xlink:href="#MyriadPro-Regular-30" x="51.3"/><use xlink:href="#MyriadPro-Regular-30" x="102.6"/><use xlink:href="#MyriadPro-Regular-30" x="153.9"/><use xlink:href="#MyriadPro-Regular-30" x="205.2"/></g></g><g id="ytick_5"><path d="M82.476 170.868h357.12" clip-path="url(#p1a35d3decc)" style="fill:none;stroke:#b0b0b0;stroke-width:.3;stroke-linecap:square" id="line2d_16"/><use xlink:href="#m8665bed9f0" x="82.476" y="170.868" style="fill:#b0b0b0;stroke:#b0b0b0;stroke-width:.3" id="line2d_17"/><g style="fill:#b0b0b0" transform="matrix(.14 0 0 -.14 39.568 175.838)" id="text_12"><use xlink:href="#MyriadPro-Regular-34"/><use xlink:href="#MyriadPro-Regular-30" x="51.3"/><use xlink:href="#MyriadPro-Regular-30" x="102.6"/><use xlink:href="#MyriadPro-Regular-30" x="153.9"/><use xlink:href="#MyriadPro-Regular-30" x="205.2"/></g></g><g id="ytick_6"><path d="M82.476 139.782h357.12" clip-path="url(#p1a35d3decc)" style="fill:none;stroke:#b0b0b0;stroke-width:.3;stroke-linecap:square" id="line2d_18"/><use xlink:href="#m8665bed9f0" x="82.476" y="139.782" style="fill:#b0b0b0;stroke:#b0b0b0;stroke-width:.3" id="line2d_19"/><g style="fill:#b0b0b0" transform="matrix(.14 0 0 -.14 39.568 144.752)" id="text_13"><defs><path id="MyriadPro-Regular-35" d="M2771 4160H781L512 2163c154 19 339 45 576 45 832 0 1190-384 1197-922 0-556-455-902-986-902-377 0-717 128-889 230L269 186C467 58 851-70 1306-70c902 0 1548 608 1548 1420 0 525-268 884-595 1069-256 154-576 224-896 224-153 0-243-13-339-25l160 1068h1587v474z" transform="scale(.01563)"/></defs><use xlink:href="#MyriadPro-Regular-35"/><use xlink:href="#MyriadPro-Regular-30" x="51.3"/><use xlink:href="#MyriadPro-Regular-30" x="102.6"/><use xlink:href="#MyriadPro-Regular-30" x="153.9"/><use xlink:href="#MyriadPro-Regular-30" x="205.2"/></g></g><g id="ytick_7"><path d="M82.476 108.696h357.12" clip-path="url(#p1a35d3decc)" style="fill:none;stroke:#b0b0b0;stroke-width:.3;stroke-linecap:square" id="line2d_20"/><use xlink:href="#m8665bed9f0" x="82.476" y="108.696" style="fill:#b0b0b0;stroke:#b0b0b0;stroke-width:.3" id="line2d_21"/><g style="fill:#b0b0b0" transform="matrix(.14 0 0 -.14 39.568 113.666)" id="text_14"><use xlink:href="#MyriadPro-Regular-36"/><use xlink:href="#MyriadPro-Regular-30" x="51.3"/><use xlink:href="#MyriadPro-Regular-30" x="102.6"/><use xlink:href="#MyriadPro-Regular-30" x="153.9"/><use xlink:href="#MyriadPro-Regular-30" x="205.2"/></g></g><g id="ytick_8"><path d="M82.476 77.61h357.12" clip-path="url(#p1a35d3decc)" style="fill:none;stroke:#b0b0b0;stroke-width:.3;stroke-linecap:square" id="line2d_22"/><use xlink:href="#m8665bed9f0" x="82.476" y="77.609" style="fill:#b0b0b0;stroke:#b0b0b0;stroke-width:.3" id="line2d_23"/><g style="fill:#b0b0b0" transform="matrix(.14 0 0 -.14 39.568 82.58)" id="text_15"><defs><path id="MyriadPro-Regular-37" d="M365 4160v-467h2035v-13L595 0h583l1811 3789v371H365z" transform="scale(.01563)"/></defs><use xlink:href="#MyriadPro-Regular-37"/><use xlink:href="#MyriadPro-Regular-30" x="51.3"/><use xlink:href="#MyriadPro-Regular-30" x="102.6"/><use xlink:href="#MyriadPro-Regular-30" x="153.9"/><use xlink:href="#MyriadPro-Regular-30" x="205.2"/></g></g><g id="ytick_9"><path d="M82.476 46.523h357.12" clip-path="url(#p1a35d3decc)" style="fill:none;stroke:#b0b0b0;stroke-width:.3;stroke-linecap:square" id="line2d_24"/><use xlink:href="#m8665bed9f0" x="82.476" y="46.523" style="fill:#b0b0b0;stroke:#b0b0b0;stroke-width:.3" id="line2d_25"/><g style="fill:#b0b0b0" transform="matrix(.14 0 0 -.14 39.568 51.493)" id="text_16"><use xlink:href="#MyriadPro-Regular-38"/><use xlink:href="#MyriadPro-Regular-30" x="51.3"/><use xlink:href="#MyriadPro-Regular-30" x="102.6"/><use xlink:href="#MyriadPro-Regular-30" x="153.9"/><use xlink:href="#MyriadPro-Regular-30" x="205.2"/></g></g><g style="fill:#b0b0b0" transform="matrix(.14 0 0 -.14 7.2 17.14)" id="text_17"><defs><path id="MyriadPro-Regular-47" d="M3770 2266H2349v-448h877V531c-128-64-378-115-743-115-1005 0-1664 646-1664 1741 0 1081 685 1734 1735 1734 435 0 723-83 953-185l135 454c-186 90-576 198-1076 198-1446 0-2329-940-2336-2227 0-672 231-1248 602-1606 422-403 960-570 1613-570 582 0 1075 147 1325 237v2074z" transform="scale(.01563)"/><path id="MyriadPro-Regular-69" d="M1030 0v3098H467V0h563zM749 4320c-205 0-352-154-352-352 0-192 141-346 339-346 224 0 365 154 358 346 0 198-134 352-345 352z" transform="scale(.01563)"/><path id="MyriadPro-Regular-74" d="M595 3667v-569H115v-429h480V979c0-365 58-640 218-806C947 19 1158-70 1421-70c217 0 390 38 499 83l-26 422c-83-25-172-38-326-38-314 0-422 217-422 601v1671h806v429h-806v742l-551-173z" transform="scale(.01563)"/><path id="MyriadPro-Regular-48" d="M486 4314V0h557v2022h2087V0h563v4314h-563V2509H1043v1805H486z" transform="scale(.01563)"/><path id="MyriadPro-Regular-75" d="M3059 3098h-563V1197c0-103-19-205-51-288-103-250-365-512-743-512-512 0-691 397-691 985v1716H448V1286C448 198 1030-70 1517-70c550 0 877 326 1024 576h13l32-506h499c-19 243-26 525-26 845v2253z" transform="scale(.01563)"/><path id="MyriadPro-Regular-62" d="M467 800c0-275-13-589-25-800h486l26 512h19c230-410 589-582 1037-582 691 0 1388 550 1388 1657 7 941-537 1581-1305 1581-499 0-858-224-1056-570h-13v1946H467V800zm557 998c0 90 19 167 32 231 115 429 474 691 858 691 601 0 921-531 921-1152 0-710-352-1190-941-1190-409 0-736 268-844 659-13 64-26 134-26 205v556z" transform="scale(.01563)"/><path id="MyriadPro-Regular-73" d="M250 147C467 19 781-70 1120-70c736 0 1158 390 1158 934 0 461-275 730-812 934-404 154-589 269-589 525 0 231 185 423 518 423 288 0 512-103 634-180l141 410c-173 102-448 192-762 192-666 0-1069-410-1069-909 0-371 263-678 819-877 416-153 576-300 576-569 0-256-192-461-601-461-282 0-576 115-743 224L250 147z" transform="scale(.01563)"/><path id="MyriadPro-Regular-61" d="M2643 1901c0 621-230 1267-1177 1267-391 0-762-109-1018-275l128-371c218 140 518 230 806 230 634 0 704-461 704-717v-64C890 1978 224 1568 224 819c0-448 320-889 947-889 442 0 775 217 947 460h20l44-390h512c-38 211-51 474-51 742v1159zm-544-858c0-57-13-121-32-179-89-262-345-518-749-518-288 0-531 172-531 537 0 602 698 711 1312 698v-538z" transform="scale(.01563)"/><path id="MyriadPro-Regular-72" d="M467 0h557v1651c0 96 13 186 26 263 76 422 358 723 755 723 77 0 134-7 192-19v531c-51 13-96 19-160 19-378 0-717-262-858-678h-25l-20 608H442c19-288 25-602 25-967V0z" transform="scale(.01563)"/></defs><use xlink:href="#MyriadPro-Regular-47"/><use xlink:href="#MyriadPro-Regular-69" x="64.6"/><use xlink:href="#MyriadPro-Regular-74" x="88"/><use xlink:href="#MyriadPro-Regular-48" x="121.1"/><use xlink:href="#MyriadPro-Regular-75" x="186.3"/><use xlink:href="#MyriadPro-Regular-62" x="241.4"/><use xlink:href="#MyriadPro-Regular-20" x="298.3"/><use xlink:href="#MyriadPro-Regular-73" x="319.5"/><use xlink:href="#MyriadPro-Regular-74" x="359.1"/><use xlink:href="#MyriadPro-Regular-61" x="392.2"/><use xlink:href="#MyriadPro-Regular-72" x="440.4"/><use xlink:href="#MyriadPro-Regular-73" x="473.1"/></g></g><path d="m102.252 295.214 2.245-1.688 30.86-1.16 6.663-.27 33.032-.967 22.166-.199 4.274-.628 4.419-.817 19.775-2.242 8.838-1.165 4.491-.52 4.419-.397 6.664-.669 2.028-.435 4.42-.594 24.338-2.885 13.256-1.056 6.665-.401 8.692-.843L325 277.265l6.52-.311 11.083-.47 8.837-.326 15.357-.581 37.595-.992 35.205-.718h0" clip-path="url(#p1a35d3decc)" style="fill:none;stroke:#c5b0d5;stroke-width:1.5;stroke-linecap:square" id="line2d_26"/><path d="m223.658 295.214 2.028-.006 2.246-4.93 2.173-.489 2.246-.37 2.173-.267 2.245-.382 2.246-.286 2.173-.249 2.246-.417 2.173-.282 2.246-.293 2.245-.276 2.028-.317 2.246-.352 2.173-.363 2.246-.283 2.173-.268 2.245-.227 2.246-.326 2.173-.342 2.246-.494 2.173-.438 2.245-.386 2.246-.373 2.1-.45 2.246-.343 2.173-.35 2.246-.302 2.173-.32 2.246-.284 2.245-.36 2.173-.302 2.246-.283 2.173-.17 2.246-.237 2.245-.342 2.029-.289 2.245-.261 2.173-.258 2.246-.24 2.173-.254 2.246-.401 2.245-.224 2.173-.267 2.246-.252 2.173-.27 2.246-.19 2.245-.243 2.029-.137 2.245-.22 2.173-.221 2.246-.236 2.173-.184 2.246-.155 2.245-.18 2.173-.168 2.246-.18 2.173-.134 2.246-.121 2.245-.11 2.028-.149 2.246-.108 2.173-.128 2.246-.118 2.173-.078 2.246-.105 2.245-.106 2.173-.106 2.246-.065 2.173-.103 2.246-.083 2.245-.081 2.1-.053 2.246-.072 2.174-.071 2.245-.134 2.173-.074 2.246-.075 2.245-.06 2.174-.09 2.245-.058 2.173-.063 2.246-.055 2.245-.053 2.029-.044 2.245-.062 2.173-.06 2.246-.052 2.173-.037 2.246-.04 2.245-.022 2.174-.031 2.245-.056 2.173-.047 2.246-.062 2.245-.053 2.029-.05 2.245-.028" clip-path="url(#p1a35d3decc)" style="fill:none;stroke:#ff9896;stroke-width:1.5;stroke-linecap:square" id="line2d_27"/><path d="m331.519 295.214 2.245-.084 2.173-.025 2.246-.01 2.173-.002 2.246-.013 2.245-.012 2.173-.006 2.246-.01 2.173-.003 2.246-.01 2.245-.41 2.028-.733 2.246-.426 2.173-3.202 2.246-1.806 2.173-2.005 2.246-1.44 2.245-.67 2.173-.958 2.246-.728 2.173-.709 2.246-.752 2.245-.737 2.1-.917 2.246-.823 2.174-.697 2.245-.475 2.173-.46 2.246-.526 2.245-.438 2.174-.29 2.245-.242 2.173-.367 2.246-.329 2.245-.401 2.029-.432 2.245-.43 2.173-.465 2.246-.352 2.173-.394 2.246-.33 2.245-.373 2.174-.373 2.245-.31 2.173-.355 2.246-.41 2.245-.402 2.029-.202 2.245-.382" clip-path="url(#p1a35d3decc)" style="fill:none;stroke:#98df8a;stroke-width:1.5;stroke-linecap:square" id="line2d_28"/><g style="fill:#1f77b4" transform="matrix(.14 0 0 -.14 450.31 32.595)" id="text_18"><defs><path id="MyriadPro-Regular-76" d="M83 3098 1261 0h537l1216 3098h-588l-602-1741c-102-282-192-538-262-794h-20c-64 256-147 512-249 794L685 3098H83z" transform="scale(.01563)"/><path id="MyriadPro-Regular-65" d="M2957 1446c6 58 19 148 19 263 0 569-269 1459-1280 1459-902 0-1453-736-1453-1670C243 563 813-70 1766-70c493 0 832 108 1031 198l-96 403c-211-89-455-160-858-160-563 0-1049 314-1062 1075h2176zM787 1850c45 390 295 915 864 915 634 0 787-557 781-915H787z" transform="scale(.01563)"/><path id="MyriadPro-Regular-63" d="M2579 538c-160-71-371-154-691-154-614 0-1075 442-1075 1158 0 647 384 1172 1094 1172 307 0 519-71 653-148l128 436c-154 76-448 160-781 160-1011 0-1664-692-1664-1645C243 570 851-70 1786-70c416 0 742 108 889 185l-96 423z" transform="scale(.01563)"/><path id="MyriadPro-Regular-6c" d="M467 0h563v4544H467V0z" transform="scale(.01563)"/><path id="MyriadPro-Regular-2f" d="m422-256 1792 4640h-435L-6-256h428z" transform="scale(.01563)"/><path id="MyriadPro-Regular-6e" d="M467 0h563v1862c0 96 13 192 39 263 96 313 384 576 755 576 531 0 717-416 717-915V0h563v1850c0 1062-666 1318-1094 1318-512 0-871-288-1024-582h-13l-32 512H442c19-256 25-519 25-839V0z" transform="scale(.01563)"/><path id="MyriadPro-Regular-78" d="m102 3098 1050-1517L51 0h621l448 698c115 185 224 345 326 537h13c109-185 211-358 333-537L2246 0h640L1798 1600l1056 1498h-608l-435-660c-102-166-205-326-307-512h-19c-103 173-199 333-314 506l-441 666H102z" transform="scale(.01563)"/><path id="MyriadPro-Regular-2e" d="M710-70c237 0 384 172 384 403 0 237-153 403-377 403S333 570 333 333c0-231 153-403 371-403h6z" transform="scale(.01563)"/><path id="MyriadPro-Regular-6a" d="M-230-1350c300 0 710 102 960 352 275 281 371 672 371 1273v2823H538V493c0-743-58-992-212-1165C192-819-32-890-288-909l58-441zM826 4320c-212 0-359-154-359-352 0-186 135-346 346-346 224 0 358 160 352 346 0 198-135 352-339 352z" transform="scale(.01563)"/></defs><use xlink:href="#MyriadPro-Regular-76"/><use xlink:href="#MyriadPro-Regular-65" x="48.1"/><use xlink:href="#MyriadPro-Regular-72" x="98.2"/><use xlink:href="#MyriadPro-Regular-63" x="130.9"/><use xlink:href="#MyriadPro-Regular-65" x="175.7"/><use xlink:href="#MyriadPro-Regular-6c" x="225.8"/><use xlink:href="#MyriadPro-Regular-2f" x="249.4"/><use xlink:href="#MyriadPro-Regular-6e" x="283.7"/><use xlink:href="#MyriadPro-Regular-65" x="339.2"/><use xlink:href="#MyriadPro-Regular-78" x="389.3"/><use xlink:href="#MyriadPro-Regular-74" x="435.6"/><use xlink:href="#MyriadPro-Regular-2e" x="468.7"/><use xlink:href="#MyriadPro-Regular-6a" x="489.4"/><use xlink:href="#MyriadPro-Regular-73" x="513.7"/></g><g style="fill:#ff7f0e" transform="matrix(.14 0 0 -.14 450.31 116.862)" id="text_19"><defs><path id="MyriadPro-Regular-67" d="M3110 2246c0 378 13 628 26 852h-493l-25-468h-13c-135 256-429 538-967 538-710 0-1395-595-1395-1645C243 666 794 13 1562 13c480 0 812 230 985 518h13V186c0-781-422-1082-998-1082-384 0-704 115-909 243l-141-429c250-166 659-256 1030-256 391 0 826 90 1127 372 301 268 441 704 441 1414v1798zm-556-928c0-96-13-204-45-300-122-359-435-576-781-576-608 0-915 505-915 1113 0 717 384 1171 921 1171 410 0 685-268 788-595 25-77 32-160 32-256v-557z" transform="scale(.01563)"/><path id="MyriadPro-Regular-6f" d="M1779 3168c-857 0-1536-608-1536-1645C243 544 890-70 1728-70c749 0 1542 499 1542 1644 0 948-601 1594-1491 1594zm-13-422c666 0 928-666 928-1191 0-697-403-1203-940-1203-551 0-941 512-941 1190 0 589 288 1204 953 1204z" transform="scale(.01563)"/><path id="MyriadPro-Regular-68" d="M467 0h563v1869c0 109 7 192 39 269 102 307 390 563 755 563 531 0 717-423 717-922V0h563v1843c0 1069-666 1325-1082 1325-211 0-409-64-576-160-172-96-313-237-403-397h-13v1933H467V0z" transform="scale(.01563)"/></defs><use xlink:href="#MyriadPro-Regular-67"/><use xlink:href="#MyriadPro-Regular-6f" x="55.9"/><use xlink:href="#MyriadPro-Regular-68" x="110.8"/><use xlink:href="#MyriadPro-Regular-75" x="166.3"/><use xlink:href="#MyriadPro-Regular-67" x="221.4"/><use xlink:href="#MyriadPro-Regular-6f" x="277.3"/><use xlink:href="#MyriadPro-Regular-69" x="332.2"/><use xlink:href="#MyriadPro-Regular-6f" x="355.6"/><use xlink:href="#MyriadPro-Regular-2f" x="410.5"/><use xlink:href="#MyriadPro-Regular-68" x="444.8"/><use xlink:href="#MyriadPro-Regular-75" x="500.3"/><use xlink:href="#MyriadPro-Regular-67" x="555.4"/><use xlink:href="#MyriadPro-Regular-6f" x="611.3"/></g><g style="fill:#2ca02c" transform="matrix(.14 0 0 -.14 450.31 154.29)" id="text_20"><defs><path id="MyriadPro-Regular-6b" d="M1024 4544H467V0h557v1165l288 320L2381 0h685L1702 1824l1197 1274h-678l-909-1069c-90-109-198-243-275-352h-13v2867z" transform="scale(.01563)"/><path id="MyriadPro-Regular-79" d="M58 3098 1203 243c26-70 39-115 39-147s-20-77-45-134c-128-288-320-506-474-628-166-140-352-230-493-275l141-473c141 25 416 121 691 364 384 333 660 877 1063 1940l845 2208h-596l-614-1818c-77-224-141-461-198-646h-13c-51 185-128 428-199 633L672 3098H58z" transform="scale(.01563)"/></defs><use xlink:href="#MyriadPro-Regular-6a"/><use xlink:href="#MyriadPro-Regular-65" x="24.3"/><use xlink:href="#MyriadPro-Regular-6b" x="74.4"/><use xlink:href="#MyriadPro-Regular-79" x="121.3"/><use xlink:href="#MyriadPro-Regular-6c" x="168.4"/><use xlink:href="#MyriadPro-Regular-6c" x="192"/><use xlink:href="#MyriadPro-Regular-2f" x="215.6"/><use xlink:href="#MyriadPro-Regular-6a" x="249.9"/><use xlink:href="#MyriadPro-Regular-65" x="274.2"/><use xlink:href="#MyriadPro-Regular-6b" x="324.3"/><use xlink:href="#MyriadPro-Regular-79" x="371.2"/><use xlink:href="#MyriadPro-Regular-6c" x="418.3"/><use xlink:href="#MyriadPro-Regular-6c" x="441.9"/></g><g style="fill:#d62728" transform="matrix(.14 0 0 -.14 450.31 168.27)" id="text_21"><use xlink:href="#MyriadPro-Regular-6e"/><use xlink:href="#MyriadPro-Regular-75" x="55.5"/><use xlink:href="#MyriadPro-Regular-78" x="110.6"/><use xlink:href="#MyriadPro-Regular-74" x="156.9"/><use xlink:href="#MyriadPro-Regular-2f" x="190"/><use xlink:href="#MyriadPro-Regular-6e" x="224.3"/><use xlink:href="#MyriadPro-Regular-75" x="279.8"/><use xlink:href="#MyriadPro-Regular-78" x="334.9"/><use xlink:href="#MyriadPro-Regular-74" x="381.2"/><use xlink:href="#MyriadPro-Regular-2e" x="414.3"/><use xlink:href="#MyriadPro-Regular-6a" x="435"/><use xlink:href="#MyriadPro-Regular-73" x="459.3"/></g><g style="fill:#9467bd" transform="matrix(.14 0 0 -.14 450.31 182.36)" id="text_22"><use xlink:href="#MyriadPro-Regular-68"/><use xlink:href="#MyriadPro-Regular-65" x="55.5"/><use xlink:href="#MyriadPro-Regular-78" x="105.6"/><use xlink:href="#MyriadPro-Regular-6f" x="151.9"/><use xlink:href="#MyriadPro-Regular-6a" x="206.8"/><use xlink:href="#MyriadPro-Regular-73" x="231.1"/><use xlink:href="#MyriadPro-Regular-2f" x="270.7"/><use xlink:href="#MyriadPro-Regular-68" x="305"/><use xlink:href="#MyriadPro-Regular-65" x="360.5"/><use xlink:href="#MyriadPro-Regular-78" x="410.6"/><use xlink:href="#MyriadPro-Regular-6f" x="456.9"/></g><g style="fill:#8c564b" transform="matrix(.14 0 0 -.14 450.31 196.45)" id="text_23"><defs><path id="MyriadPro-Regular-64" d="M2579 4544V2694h-13c-140 250-460 474-934 474-755 0-1395-634-1389-1664C243 563 819-70 1568-70c506 0 883 262 1056 608h13l25-538h506c-19 211-26 525-26 800v3744h-563zm0-3245c0-89-6-166-25-243-103-422-448-672-826-672-608 0-915 518-915 1146 0 684 345 1196 928 1196 422 0 729-294 813-652 19-71 25-167 25-237v-538z" transform="scale(.01563)"/></defs><use xlink:href="#MyriadPro-Regular-73"/><use xlink:href="#MyriadPro-Regular-6c" x="39.6"/><use xlink:href="#MyriadPro-Regular-61" x="63.2"/><use xlink:href="#MyriadPro-Regular-74" x="111.4"/><use xlink:href="#MyriadPro-Regular-65" x="144.5"/><use xlink:href="#MyriadPro-Regular-64" x="194.6"/><use xlink:href="#MyriadPro-Regular-6f" x="251"/><use xlink:href="#MyriadPro-Regular-63" x="305.9"/><use xlink:href="#MyriadPro-Regular-73" x="350.7"/><use xlink:href="#MyriadPro-Regular-2f" x="390.3"/><use xlink:href="#MyriadPro-Regular-73" x="424.6"/><use xlink:href="#MyriadPro-Regular-6c" x="464.2"/><use xlink:href="#MyriadPro-Regular-61" x="487.8"/><use xlink:href="#MyriadPro-Regular-74" x="536"/><use xlink:href="#MyriadPro-Regular-65" x="569.1"/></g><g style="fill:#e377c2" transform="matrix(.14 0 0 -.14 450.31 210.27)" id="text_24"><defs><path id="MyriadPro-Regular-70" d="M467-1267h557V416h13c185-307 544-486 953-486 730 0 1408 550 1408 1664 0 940-563 1574-1312 1574-505 0-870-224-1100-602h-13l-26 532H442c12-295 25-615 25-1012v-3353zm557 3059c0 77 19 160 38 230 109 423 468 698 852 698 595 0 921-531 921-1152 0-710-345-1197-941-1197-403 0-742 269-844 659-13 71-26 148-26 231v531z" transform="scale(.01563)"/></defs><use xlink:href="#MyriadPro-Regular-76"/><use xlink:href="#MyriadPro-Regular-75" x="48.1"/><use xlink:href="#MyriadPro-Regular-65" x="103.2"/><use xlink:href="#MyriadPro-Regular-6a" x="153.3"/><use xlink:href="#MyriadPro-Regular-73" x="177.6"/><use xlink:href="#MyriadPro-Regular-2f" x="217.2"/><use xlink:href="#MyriadPro-Regular-76" x="251.5"/><use xlink:href="#MyriadPro-Regular-75" x="299.6"/><use xlink:href="#MyriadPro-Regular-65" x="354.7"/><use xlink:href="#MyriadPro-Regular-70" x="404.8"/><use xlink:href="#MyriadPro-Regular-72" x="461.7"/><use xlink:href="#MyriadPro-Regular-65" x="494.4"/><use xlink:href="#MyriadPro-Regular-73" x="544.5"/><use xlink:href="#MyriadPro-Regular-73" x="584.1"/></g><g style="fill:#7f7f7f" transform="matrix(.14 0 0 -.14 450.31 224.45)" id="text_25"><defs><path id="MyriadPro-Regular-6d" d="M467 0h551v1869c0 96 12 192 44 275 90 282 346 563 698 563 429 0 646-358 646-851V0h551v1914c0 102 19 204 45 281 96 275 345 512 665 512 455 0 672-358 672-953V0h551v1824c0 1075-608 1344-1018 1344-294 0-499-77-685-218-128-96-249-230-345-403h-13c-135 365-455 621-877 621-512 0-800-275-973-570h-19l-26 500H442c19-256 25-519 25-839V0z" transform="scale(.01563)"/></defs><use xlink:href="#MyriadPro-Regular-6d"/><use xlink:href="#MyriadPro-Regular-6b" x="83.4"/><use xlink:href="#MyriadPro-Regular-64" x="130.3"/><use xlink:href="#MyriadPro-Regular-6f" x="186.7"/><use xlink:href="#MyriadPro-Regular-63" x="241.6"/><use xlink:href="#MyriadPro-Regular-73" x="286.4"/><use xlink:href="#MyriadPro-Regular-2f" x="326"/><use xlink:href="#MyriadPro-Regular-6d" x="360.3"/><use xlink:href="#MyriadPro-Regular-6b" x="443.7"/><use xlink:href="#MyriadPro-Regular-64" x="490.6"/><use xlink:href="#MyriadPro-Regular-6f" x="547"/><use xlink:href="#MyriadPro-Regular-63" x="601.9"/><use xlink:href="#MyriadPro-Regular-73" x="646.7"/></g><g style="fill:#bcbd22" transform="matrix(.14 0 0 -.14 450.31 238.29)" id="text_26"><use xlink:href="#MyriadPro-Regular-31"/><use xlink:href="#MyriadPro-Regular-31" x="51.3"/><use xlink:href="#MyriadPro-Regular-74" x="102.6"/><use xlink:href="#MyriadPro-Regular-79" x="135.7"/><use xlink:href="#MyriadPro-Regular-2f" x="182.8"/><use xlink:href="#MyriadPro-Regular-65" x="217.1"/><use xlink:href="#MyriadPro-Regular-6c" x="267.2"/><use xlink:href="#MyriadPro-Regular-65" x="290.8"/><use xlink:href="#MyriadPro-Regular-76" x="340.9"/><use xlink:href="#MyriadPro-Regular-65" x="389"/><use xlink:href="#MyriadPro-Regular-6e" x="439.1"/><use xlink:href="#MyriadPro-Regular-74" x="494.6"/><use xlink:href="#MyriadPro-Regular-79" x="527.7"/></g><g style="fill:#17becf" transform="matrix(.14 0 0 -.14 450.31 252.373)" id="text_27"><use xlink:href="#MyriadPro-Regular-67"/><use xlink:href="#MyriadPro-Regular-65" x="55.9"/><use xlink:href="#MyriadPro-Regular-74" x="106"/><use xlink:href="#MyriadPro-Regular-70" x="139.1"/><use xlink:href="#MyriadPro-Regular-65" x="196"/><use xlink:href="#MyriadPro-Regular-6c" x="246.1"/><use xlink:href="#MyriadPro-Regular-69" x="269.7"/><use xlink:href="#MyriadPro-Regular-63" x="293.1"/><use xlink:href="#MyriadPro-Regular-61" x="337.9"/><use xlink:href="#MyriadPro-Regular-6e" x="386.1"/><use xlink:href="#MyriadPro-Regular-2f" x="441.6"/><use xlink:href="#MyriadPro-Regular-70" x="475.9"/><use xlink:href="#MyriadPro-Regular-65" x="532.8"/><use xlink:href="#MyriadPro-Regular-6c" x="582.9"/><use xlink:href="#MyriadPro-Regular-69" x="606.5"/><use xlink:href="#MyriadPro-Regular-63" x="629.9"/><use xlink:href="#MyriadPro-Regular-61" x="674.7"/><use xlink:href="#MyriadPro-Regular-6e" x="722.9"/></g><g style="fill:#aec7e8" transform="matrix(.14 0 0 -.14 450.31 266.45)" id="text_28"><use xlink:href="#MyriadPro-Regular-69"/><use xlink:href="#MyriadPro-Regular-6d" x="23.4"/><use xlink:href="#MyriadPro-Regular-61" x="106.8"/><use xlink:href="#MyriadPro-Regular-74" x="155"/><use xlink:href="#MyriadPro-Regular-68" x="188.1"/><use xlink:href="#MyriadPro-Regular-69" x="243.6"/><use xlink:href="#MyriadPro-Regular-73" x="267"/><use xlink:href="#MyriadPro-Regular-2f" x="306.6"/><use xlink:href="#MyriadPro-Regular-6f" x="340.9"/><use xlink:href="#MyriadPro-Regular-63" x="395.8"/><use xlink:href="#MyriadPro-Regular-74" x="440.6"/><use xlink:href="#MyriadPro-Regular-6f" x="473.7"/><use xlink:href="#MyriadPro-Regular-70" x="528.6"/><use xlink:href="#MyriadPro-Regular-72" x="585.5"/><use xlink:href="#MyriadPro-Regular-65" x="618.2"/><use xlink:href="#MyriadPro-Regular-73" x="668.3"/><use xlink:href="#MyriadPro-Regular-73" x="707.9"/></g><g style="fill:#ffbb78" transform="matrix(.14 0 0 -.14 450.31 280.373)" id="text_29"><defs><path id="MyriadPro-Regular-2d" d="M192 1939v-416h1581v416H192z" transform="scale(.01563)"/><path id="MyriadPro-Regular-42" d="M486 13c186-26 480-51 864-51 704 0 1191 128 1492 403 217 211 364 493 364 864 0 640-480 979-889 1081v13c454 167 729 531 729 947 0 340-134 596-358 762-269 218-627 314-1184 314-390 0-774-39-1018-90V13zm557 3865c90 20 237 39 493 39 563 0 947-199 947-704 0-416-345-723-934-723h-506v1388zm0-1811h461c608 0 1114-243 1114-832 0-627-532-838-1108-838-198 0-358 6-467 25v1645z" transform="scale(.01563)"/></defs><use xlink:href="#MyriadPro-Regular-72"/><use xlink:href="#MyriadPro-Regular-75" x="32.7"/><use xlink:href="#MyriadPro-Regular-73" x="87.8"/><use xlink:href="#MyriadPro-Regular-74" x="127.4"/><use xlink:href="#MyriadPro-Regular-2d" x="160.5"/><use xlink:href="#MyriadPro-Regular-6c" x="191.2"/><use xlink:href="#MyriadPro-Regular-61" x="214.8"/><use xlink:href="#MyriadPro-Regular-6e" x="263"/><use xlink:href="#MyriadPro-Regular-67" x="318.5"/><use xlink:href="#MyriadPro-Regular-2f" x="374.4"/><use xlink:href="#MyriadPro-Regular-6d" x="408.7"/><use xlink:href="#MyriadPro-Regular-64" x="492.1"/><use xlink:href="#MyriadPro-Regular-42" x="548.5"/><use xlink:href="#MyriadPro-Regular-6f" x="602.7"/><use xlink:href="#MyriadPro-Regular-6f" x="657.6"/><use xlink:href="#MyriadPro-Regular-6b" x="712.5"/></g><g style="fill:#98df8a" transform="matrix(.14 0 0 -.14 450.31 294.373)" id="text_30"><use xlink:href="#MyriadPro-Regular-67"/><use xlink:href="#MyriadPro-Regular-65" x="55.9"/><use xlink:href="#MyriadPro-Regular-74" x="106"/><use xlink:href="#MyriadPro-Regular-67" x="139.1"/><use xlink:href="#MyriadPro-Regular-72" x="195"/><use xlink:href="#MyriadPro-Regular-69" x="227.7"/><use xlink:href="#MyriadPro-Regular-64" x="251.1"/><use xlink:href="#MyriadPro-Regular-65" x="307.5"/><use xlink:href="#MyriadPro-Regular-61" x="357.6"/><use xlink:href="#MyriadPro-Regular-2f" x="405.8"/><use xlink:href="#MyriadPro-Regular-67" x="440.1"/><use xlink:href="#MyriadPro-Regular-72" x="496"/><use xlink:href="#MyriadPro-Regular-69" x="528.7"/><use xlink:href="#MyriadPro-Regular-64" x="552.1"/><use xlink:href="#MyriadPro-Regular-65" x="608.5"/><use xlink:href="#MyriadPro-Regular-61" x="658.6"/></g><g style="fill:#ff9896" transform="matrix(.14 0 0 -.14 450.31 308.45)" id="text_31"><use xlink:href="#MyriadPro-Regular-6d"/><use xlink:href="#MyriadPro-Regular-65" x="83.4"/><use xlink:href="#MyriadPro-Regular-74" x="133.5"/><use xlink:href="#MyriadPro-Regular-61" x="166.6"/><use xlink:href="#MyriadPro-Regular-6c" x="214.8"/><use xlink:href="#MyriadPro-Regular-73" x="238.4"/><use xlink:href="#MyriadPro-Regular-6d" x="278"/><use xlink:href="#MyriadPro-Regular-69" x="361.4"/><use xlink:href="#MyriadPro-Regular-74" x="384.8"/><use xlink:href="#MyriadPro-Regular-68" x="417.9"/><use xlink:href="#MyriadPro-Regular-2f" x="473.4"/><use xlink:href="#MyriadPro-Regular-6d" x="507.7"/><use xlink:href="#MyriadPro-Regular-65" x="591.1"/><use xlink:href="#MyriadPro-Regular-74" x="641.2"/><use xlink:href="#MyriadPro-Regular-61" x="674.3"/><use xlink:href="#MyriadPro-Regular-6c" x="722.5"/><use xlink:href="#MyriadPro-Regular-73" x="746.1"/><use xlink:href="#MyriadPro-Regular-6d" x="785.7"/><use xlink:href="#MyriadPro-Regular-69" x="869.1"/><use xlink:href="#MyriadPro-Regular-74" x="892.5"/><use xlink:href="#MyriadPro-Regular-68" x="925.6"/></g><g style="fill:#c5b0d5" transform="matrix(.14 0 0 -.14 450.31 322.45)" id="text_32"><use xlink:href="#MyriadPro-Regular-6d"/><use xlink:href="#MyriadPro-Regular-69" x="83.4"/><use xlink:href="#MyriadPro-Regular-64" x="106.8"/><use xlink:href="#MyriadPro-Regular-64" x="163.2"/><use xlink:href="#MyriadPro-Regular-6c" x="219.6"/><use xlink:href="#MyriadPro-Regular-65" x="243.2"/><use xlink:href="#MyriadPro-Regular-6d" x="293.3"/><use xlink:href="#MyriadPro-Regular-61" x="376.7"/><use xlink:href="#MyriadPro-Regular-6e" x="424.9"/><use xlink:href="#MyriadPro-Regular-2f" x="480.4"/><use xlink:href="#MyriadPro-Regular-6d" x="514.7"/><use xlink:href="#MyriadPro-Regular-69" x="598.1"/><use xlink:href="#MyriadPro-Regular-64" x="621.5"/><use xlink:href="#MyriadPro-Regular-64" x="677.9"/><use xlink:href="#MyriadPro-Regular-6c" x="734.3"/><use xlink:href="#MyriadPro-Regular-65" x="757.9"/><use xlink:href="#MyriadPro-Regular-6d" x="808"/><use xlink:href="#MyriadPro-Regular-61" x="891.4"/><use xlink:href="#MyriadPro-Regular-6e" x="939.6"/></g><g style="fill:#b0b0b0" transform="matrix(.09716 0 0 -.09716 82.476 329.112)" id="text_33"><defs><path id="MyriadPro-Regular-40" d="M2867 1632c-70-397-409-870-781-870-281 0-422 204-422 486 0 621 454 1152 1018 1152 147 0 256-26 320-45l-135-723zm384-1773c-262-147-601-224-966-224-947 0-1645 666-1645 1735 0 1299 877 2131 1920 2131 992 0 1549-672 1549-1600 0-743-365-1178-691-1171-212 6-288 230-192 716l217 1159c-166 77-409 134-685 134-889 0-1516-723-1516-1517 0-505 320-806 691-806 384 0 678 186 902 563h26c-19-390 217-563 473-563 602 0 1140 563 1140 1523 0 1069-749 1856-1863 1856-1421 0-2336-1145-2336-2464C275 96 1165-672 2214-672c429 0 788 70 1140 256l-103 275z" transform="scale(.01563)"/><path id="MyriadPro-Regular-7c" d="M550 4800v-6400h429v6400H550z" transform="scale(.01563)"/><path id="MyriadPro-Regular-4e" d="M1011 0v1843c0 717-13 1235-45 1779l20 7c217-467 505-960 806-1440L3162 0h563v4314h-525V2509c0-672 13-1197 64-1773l-13-6c-205 441-454 896-774 1401L1094 4314H486V0h525z" transform="scale(.01563)"/><path id="MyriadPro-Regular-53" d="M269 211C499 58 954-70 1370-70c1017 0 1510 582 1510 1248 0 633-371 985-1101 1267-595 230-857 429-857 832 0 294 224 646 812 646 391 0 679-128 820-205l153 455c-192 109-512 211-953 211-839 0-1396-499-1396-1171 0-608 436-973 1140-1223 582-224 812-454 812-857 0-435-332-736-902-736-384 0-749 128-998 281L269 211z" transform="scale(.01563)"/><path id="MyriadPro-Regular-f6" d="M1165 3648c185 0 313 154 313 326 0 186-134 327-313 327s-327-147-327-327c0-172 135-326 320-326h7zm1184 0c185 0 313 154 313 326 0 186-134 327-313 327s-320-147-320-327c0-172 128-326 313-326h7zm-570-480c-857 0-1536-608-1536-1645C243 544 890-70 1728-70c749 0 1542 499 1542 1644 0 948-601 1594-1491 1594zm-13-422c666 0 928-666 928-1191 0-697-403-1203-940-1203-551 0-941 512-941 1190 0 589 288 1204 953 1204z" transform="scale(.01563)"/><path id="MyriadPro-Regular-43" d="M3386 582c-224-108-570-179-909-179-1050 0-1658 679-1658 1735 0 1132 672 1779 1683 1779 359 0 660-77 871-179l134 454c-147 77-486 192-1024 192-1337 0-2253-915-2253-2266C230 704 1146-70 2362-70c524 0 934 108 1139 211l-115 441z" transform="scale(.01563)"/><path id="MyriadPro-Regular-59" d="M2010 0v1837l1446 2477h-634l-620-1191c-167-326-314-608-436-889h-12c-135 300-263 563-429 889L717 4314H83l1363-2484V0h564z" transform="scale(.01563)"/></defs><use xlink:href="#MyriadPro-Regular-40"/><use xlink:href="#MyriadPro-Regular-6e" x="73.7"/><use xlink:href="#MyriadPro-Regular-73" x="129.2"/><use xlink:href="#MyriadPro-Regular-63" x="168.8"/><use xlink:href="#MyriadPro-Regular-68" x="213.6"/><use xlink:href="#MyriadPro-Regular-6c" x="269.1"/><use xlink:href="#MyriadPro-Regular-6f" x="292.7"/><use xlink:href="#MyriadPro-Regular-65" x="347.6"/><use xlink:href="#MyriadPro-Regular-20" x="397.7"/><use xlink:href="#MyriadPro-Regular-2f" x="418.9"/><use xlink:href="#MyriadPro-Regular-20" x="453.2"/><use xlink:href="#MyriadPro-Regular-67" x="474.4"/><use xlink:href="#MyriadPro-Regular-68" x="530.3"/><use xlink:href="#MyriadPro-Regular-2d" x="585.8"/><use xlink:href="#MyriadPro-Regular-74" x="616.5"/><use xlink:href="#MyriadPro-Regular-72" x="649.6"/><use xlink:href="#MyriadPro-Regular-65" x="682.3"/><use xlink:href="#MyriadPro-Regular-6e" x="732.4"/><use xlink:href="#MyriadPro-Regular-64" x="787.9"/><use xlink:href="#MyriadPro-Regular-73" x="844.3"/><use xlink:href="#MyriadPro-Regular-20" x="883.9"/><use xlink:href="#MyriadPro-Regular-7c" x="905.1"/><use xlink:href="#MyriadPro-Regular-20" x="929"/><use xlink:href="#MyriadPro-Regular-4e" x="950.2"/><use xlink:href="#MyriadPro-Regular-69" x="1016"/><use xlink:href="#MyriadPro-Regular-63" x="1039.4"/><use xlink:href="#MyriadPro-Regular-6f" x="1084.2"/><use xlink:href="#MyriadPro-Regular-20" x="1139.1"/><use xlink:href="#MyriadPro-Regular-53" x="1160.3"/><use xlink:href="#MyriadPro-Regular-63" x="1209.6"/><use xlink:href="#MyriadPro-Regular-68" x="1254.4"/><use xlink:href="#MyriadPro-Regular-6c" x="1309.9"/><use xlink:href="#MyriadPro-Regular-f6" x="1333.5"/><use xlink:href="#MyriadPro-Regular-6d" x="1388.4"/><use xlink:href="#MyriadPro-Regular-65" x="1471.8"/><use xlink:href="#MyriadPro-Regular-72" x="1521.9"/><use xlink:href="#MyriadPro-Regular-20" x="1554.6"/><use xlink:href="#MyriadPro-Regular-7c" x="1575.8"/><use xlink:href="#MyriadPro-Regular-20" x="1599.7"/><use xlink:href="#MyriadPro-Regular-43" x="1620.9"/><use xlink:href="#MyriadPro-Regular-43" x="1678.9"/><use xlink:href="#MyriadPro-Regular-20" x="1736.9"/><use xlink:href="#MyriadPro-Regular-42" x="1758.1"/><use xlink:href="#MyriadPro-Regular-59" x="1812.3"/></g><path d="m260.964 295.214 2.245-.012 2.246-.081h2.173l2.246-.038h2.173l2.245-.046 2.246-.062 2.1-.06 2.246-.096 2.173-.084 2.246-.03 2.173-.079 2.246-.046 2.245-.062 2.173-.044 2.246-.068 2.173-.056 2.246-.06 2.245-.093 2.029-.133 2.245-.084 2.173-.143 2.246-.115 2.173-.075 2.246-.071 2.245-.09 2.173-.184 2.246-.093 2.173-.18 2.246-.134 2.245-.168 2.029-.18 2.245-.18 2.173-.203 2.246-.22 2.173-.15 2.246-.273 2.245-.249 2.173-.193 2.246-.19 2.173-.263 2.246-.218 2.245-.326 2.028-.221 2.246-.33 2.173-.27 2.246-.218 2.173-.335 2.246-.274 2.245-.308 2.173-.276 2.246-.352 2.173-.47 2.246-.428 2.245-.342 2.1-.33 2.246-.42 2.174-2.763 2.245-.59 2.173-.594 2.246-.672 2.245-.503 2.174-.414 2.245-.565 2.173-.681 2.246-.432 2.245-.71 2.029-.59 2.245-.78 2.173-.774 2.246-.65 2.173-.522 2.246-.64 2.245-.635 2.174-1.62 2.245-.646 2.173-.553 2.246-.756 2.245-.746 2.029-.97 2.245-.904" clip-path="url(#p1a35d3decc)" style="fill:none;stroke:#ffbb78;stroke-width:1.5;stroke-linecap:square" id="line2d_29"/><path d="m108.916 295.214 2.246-4.368 6.664-.72 2.028-.327 15.502-1.8 4.419-.734 10.938-1.448 11.083-1.387 19.848-1.626 6.664-.242 8.91-.134 2.029-.413 6.664-2.189 11.083-2.748 6.664-1.44 10.866-2.004 8.91-1.337 6.664-.97 6.447-.674 15.502-1.4 6.592-.518 4.418-.308 30.86-1.163 59.543-.886 50.78-.317 15.356-.09h0" clip-path="url(#p1a35d3decc)" style="fill:none;stroke:#aec7e8;stroke-width:1.5;stroke-linecap:square" id="line2d_30"/><path d="m135.356 295.214 2.246-2.167 28.613-1.038 31.003-.386 2.029-.385 2.245-.634 8.838-1.206 4.418-.669 8.91-1.411 4.274-.734 2.173-.28 2.246-.404 13.256-1.706 13.184-1.959 11.083-1.439 4.418-.581 35.205-4.682 13.329-1.784 19.776-2.394 4.418-.488 13.184-1.598 6.592-.668 4.491-.52 11.083-1.283 4.346-.41 4.42-.64 8.837-.822 2.245-.329 6.664-.65 2.029-.289 22.166-1.81 6.52-.602h0" clip-path="url(#p1a35d3decc)" style="fill:none;stroke:#17becf;stroke-width:1.5;stroke-linecap:square" id="line2d_31"/><path d="m325 295.214 2.245-.398 2.245-.292 2.029-.218 2.245-.351 2.173-.15 2.246-.239 2.173-.102 2.246-.296 2.245-.335 2.173-.227 2.246-.36 2.173-.296 2.246-.367 2.245-.861 2.028-.547 2.246-.886 2.173-.68 2.246-.635 2.173-.52 2.246-.6 2.245-.714 2.173-.57 2.246-.76 2.173-.635 2.246-.594 2.245-.957 2.1-1.06 2.246-.905 2.174-1.274 2.245-1.586 2.173-.994 2.246-1.315 2.245-1.207 2.174-1.28 2.245-1.01 2.173-.722 2.246-.808 2.245-.995 2.029-.814 2.245-.902 2.173-.848 2.246-.771 2.173-.619 2.246-.783 2.245-.858 2.174-.613 2.245-.845 2.173-.662 2.246-.653 2.245-1.15 2.029-.731 2.245-.7" clip-path="url(#p1a35d3decc)" style="fill:none;stroke:#bcbd22;stroke-width:1.5;stroke-linecap:square" id="line2d_32"/><path d="m221.413 295.214 2.245-.134 2.028-.339 2.246-.167 2.173-.125 2.246-.093 2.173-.137 2.245-.143 2.246-.137 2.173-.084 2.246-.198 2.173-.2 2.246-.205 2.245-.217 2.028-.22 2.246-.37 2.173-.436 2.246-.401 2.173-.597 2.245-.214 2.246-.246 2.173-.193 2.246-.298 2.173-.296 2.245-.245 2.246-.482 2.1-.292 2.246-.386 2.173-.348 2.246-.308 2.173-.35 2.246-.287 2.245-.323 2.173-.364 2.246-.391 2.173-.327 2.246-.31 2.245-.408 2.029-.351 2.245-.414 2.173-.395 2.246-.366 2.173-.345 2.246-.373 2.245-.392 2.173-.355 2.246-.407 2.173-.385 2.246-.407 2.245-.544 2.029-.408 2.245-.488 2.173-.528 2.246-.482 2.173-.479 2.246-.479 2.245-.624 2.173-.457 2.246-.523 2.173-.485 2.246-.56 2.245-.655 2.028-.488 2.246-.581 2.173-.464 2.246-.59 2.173-.491 2.246-.507 2.245-.594 2.173-.42 2.246-.534 2.173-.47 2.246-.525 2.245-.479 2.1-.513 2.246-.764 2.174-1.505 2.245-.805 2.173-.612 2.246-.6 2.245-.538 2.174-.532 2.245-.516 2.173-.513 2.246-.584 2.245-.653 2.029-.612 2.245-.7 2.173-.538 2.246-.615 2.173-.563 2.246-.569 2.245-.528 2.174-.507 2.245-.718 2.173-.544 2.246-.581 2.245-.5 2.029-.579 2.245-.656" clip-path="url(#p1a35d3decc)" style="fill:none;stroke:#7f7f7f;stroke-width:1.5;stroke-linecap:square" id="line2d_33"/><path d="m333.764 295.214 2.173-17.828 2.246-3.516 2.173-1.626 2.246-1.38 2.245-1.713 2.173-1.489 2.246-.995 2.173-1.318 2.246-1.268 2.245-1.62 2.028-1.268 2.246-1.536 2.173-1.193 2.246-1.098 2.173-1.184 2.246-1.178 2.245-1.12 2.173-1.196 2.246-1.082 2.173-.842 2.246-.899 2.245-.786 2.1-.718 2.246-1.06 2.174-.99 2.245-1.084 2.173-.982 2.246-.911 2.245-.746 2.174-.684 2.245-.693 2.173-.756 2.246-.668 2.245-.66 2.029-.524 2.245-.675 2.173-.634 2.246-.541 2.173-.494 2.246-.451 2.245-.442 2.174-.457 2.245-.357 2.173-.457 2.246-.494 2.245-.491 2.029-.473 2.245-.553" clip-path="url(#p1a35d3decc)" style="fill:none;stroke:#e377c2;stroke-width:1.5;stroke-linecap:square" id="line2d_34"/><path d="m214.748 295.214 2.246-.109 2.173-.174 2.246-.019 2.245-.077 2.028-.137 2.246-.311 2.173-.74 2.246-.295 2.173-.367 2.245-.444 2.246-.787 2.173-.292 2.246-.557 2.173-.314 2.246-.677 2.245-3.311 2.028-.923 2.246-1.085 2.173-.647 2.246-.715 2.173-1.3 2.245-.978 2.246-.71 2.173-.926 2.246-.873 2.173-.864 2.245-1.458 2.246-2.102 2.1-1.081 2.246-4.26 2.173-1.034 2.246-1.048 2.173-1.287 2.246-1.085 2.245-1.001 2.173-.992 2.246-.976 2.173-.88 2.246-1.05 2.245-.998 2.029-1.24 2.245-1.589 2.173-1.343 2.246-1.166 2.173-1.187 2.246-11.62 2.245-3.168 2.173-1.346 2.246-1.35 2.173-1.457 2.246-1.135 2.245-1.613 2.029-1.041 2.245-1.247 2.173-1.132 2.246-1.022 2.173-1.1 2.246-1.145 2.245-1.07 2.173-.894 2.246-.927 2.173-.895 2.246-1.352 2.245-1.06 2.028-.793 2.246-1.43 2.173-.861 2.246-.914 2.173-.756 2.246-.755 2.245-.83 2.173-.615 2.246-.793 2.173-.97 2.246-.917 2.245-.628 2.1-.727 2.246-.722 2.174-1.013 2.245-.78 2.173-.743 2.246-1.1 2.245-2.046 2.174-.684 2.245-.74 2.173-.715 2.246-.59 2.245-.61 2.029-.504 2.245-.56 2.173-.605 2.246-.638 2.173-.503 2.246-.544 2.245-.423 2.174-.52 2.245-.375 2.173-.451 2.246-.357 2.245-.5 2.029-.449 2.245-.593" clip-path="url(#p1a35d3decc)" style="fill:none;stroke:#8c564b;stroke-width:1.5;stroke-linecap:square" id="line2d_35"/><path d="m186.135 295.214 2.173-.529 2.246-.009h2.173l2.246-.012 2.245-.007 2.029-.12 2.245-.184 2.173-.18 2.246-.843 2.173-.36 2.246-.209 2.245-.233 2.173-.177 2.246-.274 2.173-.245 2.246-.358 2.245-.357 2.028-.327 2.246-.37 2.173-.469 2.246-.535 2.173-.488 2.245-.544 2.246-.625 2.173-.612 2.246-.606 2.173-.619 2.246-.643 2.245-.892 2.028-.588 2.246-1.02 2.173-.945 2.246-.898 2.173-.886 2.245-1.088 2.246-1.035 2.173-1.001 2.246-1.12 2.173-1.274 2.245-1.212 2.246-1.47 2.1-1.148 2.246-1.504 2.173-1.698 2.246-1.656 2.173-1.247 2.246-1.38 2.245-1.514 2.173-1.502 2.246-1.355 2.173-1.393 2.246-1.483 2.245-1.97 2.029-1.558 2.245-1.821 2.173-1.536 2.246-1.38 2.173-1.29 2.246-1.545 2.245-1.673 2.173-1.424 2.246-1.573 2.173-1.427 2.246-1.532 2.245-1.756 2.029-1.135 2.245-1.589 2.173-1.517 2.246-1.392 2.173-1.11 2.246-1.153 2.245-1.26 2.173-1.106 2.246-1.007 2.173-1.178 2.246-1.207 2.245-1.32 2.028-.996 2.246-1.405 2.173-1.355 2.246-1.321 2.173-1.178 2.246-1.474 2.245-1.197 2.173-1.06 2.246-1.075 2.173-1.135 2.246-1.113 2.245-.802 2.1-.901 2.246-1.147 2.174-1.039 2.245-.873 2.173-.737 2.246-.842 2.245-.784 2.174-.811 2.245-.575 2.173-.65 2.246-.696 2.245-.725 2.029-.671 2.245-.724 2.173-.66 2.246-.621 2.173-.718 2.246-.697 2.245-.618 2.174-.563 2.245-.528 2.173-.64 2.246-.7 2.245-.647 2.029-.54 2.245-.884" clip-path="url(#p1a35d3decc)" style="fill:none;stroke:#9467bd;stroke-width:1.5;stroke-linecap:square" id="line2d_36"/><path d="m294.14 295.214 2.246-.003 2.173-3.47 2.246-1.92 2.245-1.247 2.029-1.032 2.245-1.813 2.173-1.501 2.246-1.576 2.173-1.411 2.246-1.766 2.245-2.201 2.173-1.564 2.246-1.768 2.173-1.884 2.246-1.48 2.245-3.158 2.029-1.99 2.245-2.54 2.173-2.493 2.246-2.148 2.173-1.84 2.246-1.775 2.245-1.977 2.173-2.148 2.246-2.363 2.173-1.88 2.246-1.835 2.245-2.145 2.028-1.859 2.246-2.157 2.173-1.868 2.246-2.167 2.173-1.697 2.246-1.838 2.245-1.703 2.173-1.418 2.246-2.135 2.173-1.971 2.246-2.49 2.245-1.533 2.1-1.722 2.246-1.847 2.174-1.983 2.245-2.11 2.173-1.984 2.246-2.03 2.245-2.098 2.174-3.762 2.245-1.89 2.173-3.767 2.246-1.747 2.245-2.36 2.029-2.195 2.245-3.198 2.173-2.627 2.246-1.486 2.173-1.505 2.246-1.647 2.245-1.502 2.174-1.65 2.245-1.406 2.173-1.262 2.246-1.147 2.245-.973 2.029-.923 2.245-.942" clip-path="url(#p1a35d3decc)" style="fill:none;stroke:#d62728;stroke-width:1.5;stroke-linecap:square" id="line2d_37"/><path d="m82.476 295.214 2.246-3.954 4.419-.805 13.11-2.814 15.575-2.91 2.028-.531 2.246-13.112h39.696l2.246-.951h33.176l2.029-.41 6.664-4.104 2.173-.883 2.246-1.073 8.837-3.758 2.246-.988 10.938-5.751 2.173-.834 13.329-6.431 2.245-1.468 10.866-5.866 4.491-2.48 4.419-2.537 2.173-1.486 2.245-1.321 2.246-1.638 2.1-1.785 6.665-4.25 11.083-6.136 6.664-3.32 2.029-1.352 2.245-1.3 6.592-3.127L325 201.821l2.246-1.343 4.274-3.09 6.664-3.519 4.419-1.918 4.418-1.983 4.419-1.993 2.246-.995 4.273-2.057 8.838-3.911 4.491-1.763 4.419-1.7 8.765-3.019 4.419-1.65 2.245-1.039 6.664-2.415 6.592-1.99 10.938-3.615 11.084-3.17 10.938-3.52 2.245-.892h0" clip-path="url(#p1a35d3decc)" style="fill:none;stroke:#2ca02c;stroke-width:1.5;stroke-linecap:square" id="line2d_38"/><path d="m208.084 295.214 2.246-.1 2.245-.596 2.173-.09 2.246-.066 2.173-.429 2.246-.214 2.245-.355 2.028-.255 2.246-.413 2.173-.376 2.246-.476 2.173-.404 2.245-.482 2.246-.898 2.173-.544 2.246-.513 2.173-.557 2.246-.69 2.245-.93 2.028-.922 2.246-.89 2.173-.87 2.246-.827 2.173-1.02 2.245-1.156 2.246-1.131 2.173-1.001 2.246-1.219 2.173-2.537 2.245-1.374 2.246-1.392 2.1-1.253 2.246-1.318 2.173-1.614 2.246-1.246 2.173-1.284 2.246-1.14 2.245-1.459 2.173-1.48 2.246-3.344 2.173-1.34 2.246-1.545 2.245-1.76 2.029-1.862 2.245-2.515 2.173-1.828 2.246-1.949 2.173-2.166 2.246-1.682 2.245-1.85 2.173-1.79 2.246-2.058 2.173-2.273 2.246-2.16 2.245-2.708 2.029-2.185 2.245-2.472 2.173-2.235 2.246-2.396 2.173-2.236 2.246-2.574 2.245-2.477 2.173-2.468 2.246-2.291 2.173-2.313 2.246-2.217 2.245-2.73 2.028-2.43 2.246-2.624 2.173-2.583 2.246-2.543 2.173-2.145 2.246-2.683 2.245-2.148 2.173-2.076 2.246-2.136 2.173-2.195 2.246-2.471 2.245-2.316 2.1-2.03 2.246-2.64 2.174-2.766 2.245-2.651 2.173-2.425 2.246-2.353 2.245-1.89 2.174-1.971 2.245-2.167 2.173-2.879 2.246-2.11 2.245-2.189 2.029-1.961 2.245-2.21 2.173-2.062 2.246-1.868 2.173-2.624 2.246-2.17 2.245-2.406 2.174-1.94 2.245-1.936 2.173-2.182 2.246-2.164 2.245-2.285 2.029-2.235 2.245-2.45" clip-path="url(#p1a35d3decc)" style="fill:none;stroke:#ff7f0e;stroke-width:1.5;stroke-linecap:square" id="line2d_39"/><path d="m294.14 295.214 2.246-13.178 2.173-5.639 2.246-2.813 2.245-2.608 2.029-1.884 2.245-6.245 2.173-3.808 2.246-3.488 2.173-2.217 2.246-3.618 2.245-2.565 2.173-2.173 2.246-3.456 2.173-2.652 2.246-2.879 2.245-4.445 2.029-2.841 2.245-3.013 2.173-2.75 2.246-3.15 2.173-2.844 2.246-2.857 2.245-2.739 2.173-3.823 2.246-3.554 2.173-2.962 2.246-3.205 2.245-3.522 2.028-3.345 2.246-2.78 2.173-2.595 2.246-2.732 2.173-2.145 2.246-3.43 2.245-2.76 2.173-2.39 2.246-2.608 2.173-2.462 2.246-2.344 2.245-3.047 2.1-2.698 2.246-3.171 2.174-3.721 2.245-4.51 2.173-3.768 2.246-4.231 2.245-3.644 2.174-3.77 2.245-6.479 2.173-6.198 2.246-4.3 2.245-8.545 2.029-4.408 2.245-6.103 2.173-4.445 2.246-5.518 2.173-7.445 2.246-4.498 2.245-5.406 2.174-3.796 2.245-6.773 2.173-6.205 2.246-5.08 2.245-6.077 2.029-5.372 2.245-6.385" clip-path="url(#p1a35d3decc)" style="fill:none;stroke:#1f77b4;stroke-width:1.5;stroke-linecap:square" id="line2d_40"/></g></g><defs><clipPath id="p1a35d3decc"><path d="M82.476 29.102h357.12v266.112H82.476z"/></clipPath></defs></svg>