<svg xmlns:xlink="http://www.w3.org/1999/xlink" width="907.006" height="511.93" viewBox="0 0 680.254 383.948" xmlns="http://www.w3.org/2000/svg"><defs><style>*{stroke-linejoin:round;stroke-linecap:butt}</style></defs><g id="figure_1"><path d="M0 383.948h680.254V0H0v383.948z" style="fill:none" id="patch_1"/><g id="axes_1"><path d="M98.073 298.018h357.12V31.906H98.073v266.112z" style="fill:none" id="patch_2"/><g id="matplotlib.axis_1"><g id="xtick_1"><g id="line2d_1"><defs><path id="m2f165287b2" d="M0 0v3.5" style="stroke:#b0b0b0;stroke-width:.4"/></defs><use xlink:href="#m2f165287b2" x="103.939" y="298.018" style="fill:#b0b0b0;stroke:#b0b0b0;stroke-width:.4"/></g><g style="fill:#b0b0b0" transform="matrix(.14 0 0 -.14 86.124 315.656)" id="text_1"><defs><path id="DejaVuSans-32" d="M1228 531h2203V0H469v531q359 372 979 998 621 627 780 809 303 340 423 576 121 236 121 464 0 372-261 606-261 235-680 235-297 0-627-103-329-103-704-313v638q381 153 712 231 332 78 607 78 725 0 1156-363 431-362 431-968 0-288-108-546-107-257-392-607-78-91-497-524-418-433-1181-1211z" transform="scale(.01563)"/><path id="DejaVuSans-30" d="M2034 4250q-487 0-733-480-245-479-245-1442 0-959 245-1439 246-480 733-480 491 0 736 480 246 480 246 1439 0 963-246 1442-245 480-736 480zm0 500q785 0 1199-621 414-620 414-1801 0-1178-414-1799Q2819-91 2034-91q-784 0-1198 620-414 621-414 1799 0 1181 414 1801 414 621 1198 621z" transform="scale(.01563)"/><path id="DejaVuSans-31" d="M794 531h1031v3560L703 3866v575l1116 225h631V531h1031V0H794v531z" transform="scale(.01563)"/></defs><use xlink:href="#DejaVuSans-32"/><use xlink:href="#DejaVuSans-30" x="63.623"/><use xlink:href="#DejaVuSans-31" x="127.246"/><use xlink:href="#DejaVuSans-32" x="190.869"/></g></g><g id="xtick_2"><use xlink:href="#m2f165287b2" x="139.131" y="298.018" style="fill:#b0b0b0;stroke:#b0b0b0;stroke-width:.4" id="line2d_2"/><g style="fill:#b0b0b0" transform="matrix(.14 0 0 -.14 121.316 315.656)" id="text_2"><defs><path id="DejaVuSans-33" d="M2597 2516q453-97 707-404 255-306 255-756 0-690-475-1069Q2609-91 1734-91q-293 0-604 58T488 141v609q262-153 574-231 313-78 654-78 593 0 904 234t311 681q0 413-289 645-289 233-804 233h-544v519h569q465 0 712 186t247 536q0 359-255 551-254 193-729 193-260 0-557-57-297-56-653-174v562q360 100 674 150t592 50q719 0 1137-327 419-326 419-882 0-388-222-655t-631-370z" transform="scale(.01563)"/></defs><use xlink:href="#DejaVuSans-32"/><use xlink:href="#DejaVuSans-30" x="63.623"/><use xlink:href="#DejaVuSans-31" x="127.246"/><use xlink:href="#DejaVuSans-33" x="190.869"/></g></g><g id="xtick_3"><use xlink:href="#m2f165287b2" x="174.228" y="298.018" style="fill:#b0b0b0;stroke:#b0b0b0;stroke-width:.4" id="line2d_3"/><g style="fill:#b0b0b0" transform="matrix(.14 0 0 -.14 156.413 315.656)" id="text_3"><defs><path id="DejaVuSans-34" d="M2419 4116 825 1625h1594v2491zm-166 550h794V1625h666v-525h-666V0h-628v1100H313v609l1940 2957z" transform="scale(.01563)"/></defs><use xlink:href="#DejaVuSans-32"/><use xlink:href="#DejaVuSans-30" x="63.623"/><use xlink:href="#DejaVuSans-31" x="127.246"/><use xlink:href="#DejaVuSans-34" x="190.869"/></g></g><g id="xtick_4"><use xlink:href="#m2f165287b2" x="209.325" y="298.018" style="fill:#b0b0b0;stroke:#b0b0b0;stroke-width:.4" id="line2d_4"/><g style="fill:#b0b0b0" transform="matrix(.14 0 0 -.14 191.51 315.656)" id="text_4"><defs><path id="DejaVuSans-35" d="M691 4666h2478v-532H1269V2991q137 47 274 70 138 23 276 23 781 0 1237-428 457-428 457-1159 0-753-469-1171Q2575-91 1722-91q-294 0-599 50Q819 9 494 109v635q281-153 581-228t634-75q541 0 856 284 316 284 316 772 0 487-316 771-315 285-856 285-253 0-505-56-251-56-513-175v2344z" transform="scale(.01563)"/></defs><use xlink:href="#DejaVuSans-32"/><use xlink:href="#DejaVuSans-30" x="63.623"/><use xlink:href="#DejaVuSans-31" x="127.246"/><use xlink:href="#DejaVuSans-35" x="190.869"/></g></g><g id="xtick_5"><use xlink:href="#m2f165287b2" x="244.421" y="298.018" style="fill:#b0b0b0;stroke:#b0b0b0;stroke-width:.4" id="line2d_5"/><g style="fill:#b0b0b0" transform="matrix(.14 0 0 -.14 226.606 315.656)" id="text_5"><defs><path id="DejaVuSans-36" d="M2113 2584q-425 0-674-291-248-290-248-796 0-503 248-796 249-292 674-292t673 292q248 293 248 796 0 506-248 796-248 291-673 291zm1253 1979v-575q-238 112-480 171-242 60-480 60-625 0-955-422-329-422-376-1275 184 272 462 417 279 145 613 145 703 0 1111-427 408-426 408-1160 0-719-425-1154Q2819-91 2113-91q-810 0-1238 620-428 621-428 1799 0 1106 525 1764t1409 658q238 0 480-47t505-140z" transform="scale(.01563)"/></defs><use xlink:href="#DejaVuSans-32"/><use xlink:href="#DejaVuSans-30" x="63.623"/><use xlink:href="#DejaVuSans-31" x="127.246"/><use xlink:href="#DejaVuSans-36" x="190.869"/></g></g><g id="xtick_6"><use xlink:href="#m2f165287b2" x="279.614" y="298.018" style="fill:#b0b0b0;stroke:#b0b0b0;stroke-width:.4" id="line2d_6"/><g style="fill:#b0b0b0" transform="matrix(.14 0 0 -.14 261.799 315.656)" id="text_6"><defs><path id="DejaVuSans-37" d="M525 4666h3000v-269L1831 0h-659l1594 4134H525v532z" transform="scale(.01563)"/></defs><use xlink:href="#DejaVuSans-32"/><use xlink:href="#DejaVuSans-30" x="63.623"/><use xlink:href="#DejaVuSans-31" x="127.246"/><use xlink:href="#DejaVuSans-37" x="190.869"/></g></g><g id="xtick_7"><use xlink:href="#m2f165287b2" x="314.711" y="298.018" style="fill:#b0b0b0;stroke:#b0b0b0;stroke-width:.4" id="line2d_7"/><g style="fill:#b0b0b0" transform="matrix(.14 0 0 -.14 296.896 315.656)" id="text_7"><defs><path id="DejaVuSans-38" d="M2034 2216q-450 0-708-241-257-241-257-662 0-422 257-663 258-241 708-241t709 242q260 243 260 662 0 421-258 662-257 241-711 241zm-631 268q-406 100-633 378-226 279-226 679 0 559 398 884 399 325 1092 325 697 0 1094-325t397-884q0-400-227-679-226-278-629-378 456-106 710-416 255-309 255-755 0-679-414-1042Q2806-91 2034-91q-771 0-1186 362-414 363-414 1042 0 446 256 755 257 310 713 416zm-231 997q0-362 226-565 227-203 636-203 407 0 636 203 230 203 230 565 0 363-230 566-229 203-636 203-409 0-636-203-226-203-226-566z" transform="scale(.01563)"/></defs><use xlink:href="#DejaVuSans-32"/><use xlink:href="#DejaVuSans-30" x="63.623"/><use xlink:href="#DejaVuSans-31" x="127.246"/><use xlink:href="#DejaVuSans-38" x="190.869"/></g></g><g id="xtick_8"><use xlink:href="#m2f165287b2" x="349.807" y="298.018" style="fill:#b0b0b0;stroke:#b0b0b0;stroke-width:.4" id="line2d_8"/><g style="fill:#b0b0b0" transform="matrix(.14 0 0 -.14 331.992 315.656)" id="text_8"><defs><path id="DejaVuSans-39" d="M703 97v575q238-113 481-172 244-59 479-59 625 0 954 420 330 420 377 1277-181-269-460-413-278-144-615-144-700 0-1108 423-408 424-408 1159 0 718 425 1152 425 435 1131 435 810 0 1236-621 427-620 427-1801 0-1103-524-1761Q2575-91 1691-91q-238 0-482 47Q966 3 703 97zm1256 1978q425 0 673 290 249 291 249 798 0 503-249 795-248 292-673 292t-673-292q-248-292-248-795 0-507 248-798 248-290 673-290z" transform="scale(.01563)"/></defs><use xlink:href="#DejaVuSans-32"/><use xlink:href="#DejaVuSans-30" x="63.623"/><use xlink:href="#DejaVuSans-31" x="127.246"/><use xlink:href="#DejaVuSans-39" x="190.869"/></g></g><g id="xtick_9"><use xlink:href="#m2f165287b2" x="384.904" y="298.018" style="fill:#b0b0b0;stroke:#b0b0b0;stroke-width:.4" id="line2d_9"/><g style="fill:#b0b0b0" transform="matrix(.14 0 0 -.14 367.089 315.656)" id="text_9"><use xlink:href="#DejaVuSans-32"/><use xlink:href="#DejaVuSans-30" x="63.623"/><use xlink:href="#DejaVuSans-32" x="127.246"/><use xlink:href="#DejaVuSans-30" x="190.869"/></g></g><g id="xtick_10"><use xlink:href="#m2f165287b2" x="420.097" y="298.018" style="fill:#b0b0b0;stroke:#b0b0b0;stroke-width:.4" id="line2d_10"/><g style="fill:#b0b0b0" transform="matrix(.14 0 0 -.14 402.282 315.656)" id="text_10"><use xlink:href="#DejaVuSans-32"/><use xlink:href="#DejaVuSans-30" x="63.623"/><use xlink:href="#DejaVuSans-32" x="127.246"/><use xlink:href="#DejaVuSans-31" x="190.869"/></g></g><g id="xtick_11"><use xlink:href="#m2f165287b2" x="455.193" y="298.018" style="fill:#b0b0b0;stroke:#b0b0b0;stroke-width:.4" id="line2d_11"/><g style="fill:#b0b0b0" transform="matrix(.14 0 0 -.14 437.378 315.656)" id="text_11"><use xlink:href="#DejaVuSans-32"/><use xlink:href="#DejaVuSans-30" x="63.623"/><use xlink:href="#DejaVuSans-32" x="127.246"/><use xlink:href="#DejaVuSans-32" x="190.869"/></g></g></g><g id="matplotlib.axis_2"><g id="ytick_1"><path d="M98.073 298.018h357.12" clip-path="url(#pc94e7bdf6c)" style="fill:none;stroke:#b0b0b0;stroke-width:.3;stroke-linecap:square" id="line2d_12"/><g id="line2d_13"><defs><path id="m6ef7ec0ada" d="M0 0h-3.5" style="stroke:#b0b0b0;stroke-width:.3"/></defs><use xlink:href="#m6ef7ec0ada" x="98.073" y="298.018" style="fill:#b0b0b0;stroke:#b0b0b0;stroke-width:.3"/></g><use xlink:href="#DejaVuSans-30" style="fill:#b0b0b0" transform="matrix(.14 0 0 -.14 82.166 303.337)" id="text_12"/></g><g id="ytick_2"><path d="M98.073 262.21h357.12" clip-path="url(#pc94e7bdf6c)" style="fill:none;stroke:#b0b0b0;stroke-width:.3;stroke-linecap:square" id="line2d_14"/><use xlink:href="#m6ef7ec0ada" x="98.073" y="262.21" style="fill:#b0b0b0;stroke:#b0b0b0;stroke-width:.3" id="line2d_15"/><g style="fill:#b0b0b0" transform="matrix(.14 0 0 -.14 55.443 267.529)" id="text_13"><use xlink:href="#DejaVuSans-35"/><use xlink:href="#DejaVuSans-30" x="63.623"/><use xlink:href="#DejaVuSans-30" x="127.246"/><use xlink:href="#DejaVuSans-30" x="190.869"/></g></g><g id="ytick_3"><path d="M98.073 226.401h357.12" clip-path="url(#pc94e7bdf6c)" style="fill:none;stroke:#b0b0b0;stroke-width:.3;stroke-linecap:square" id="line2d_16"/><use xlink:href="#m6ef7ec0ada" x="98.073" y="226.401" style="fill:#b0b0b0;stroke:#b0b0b0;stroke-width:.3" id="line2d_17"/><g style="fill:#b0b0b0" transform="matrix(.14 0 0 -.14 46.536 231.72)" id="text_14"><use xlink:href="#DejaVuSans-31"/><use xlink:href="#DejaVuSans-30" x="63.623"/><use xlink:href="#DejaVuSans-30" x="127.246"/><use xlink:href="#DejaVuSans-30" x="190.869"/><use xlink:href="#DejaVuSans-30" x="254.492"/></g></g><g id="ytick_4"><path d="M98.073 190.593h357.12" clip-path="url(#pc94e7bdf6c)" style="fill:none;stroke:#b0b0b0;stroke-width:.3;stroke-linecap:square" id="line2d_18"/><use xlink:href="#m6ef7ec0ada" x="98.073" y="190.593" style="fill:#b0b0b0;stroke:#b0b0b0;stroke-width:.3" id="line2d_19"/><g style="fill:#b0b0b0" transform="matrix(.14 0 0 -.14 46.536 195.912)" id="text_15"><use xlink:href="#DejaVuSans-31"/><use xlink:href="#DejaVuSans-35" x="63.623"/><use xlink:href="#DejaVuSans-30" x="127.246"/><use xlink:href="#DejaVuSans-30" x="190.869"/><use xlink:href="#DejaVuSans-30" x="254.492"/></g></g><g id="ytick_5"><path d="M98.073 154.785h357.12" clip-path="url(#pc94e7bdf6c)" style="fill:none;stroke:#b0b0b0;stroke-width:.3;stroke-linecap:square" id="line2d_20"/><use xlink:href="#m6ef7ec0ada" x="98.073" y="154.785" style="fill:#b0b0b0;stroke:#b0b0b0;stroke-width:.3" id="line2d_21"/><g style="fill:#b0b0b0" transform="matrix(.14 0 0 -.14 46.536 160.104)" id="text_16"><use xlink:href="#DejaVuSans-32"/><use xlink:href="#DejaVuSans-30" x="63.623"/><use xlink:href="#DejaVuSans-30" x="127.246"/><use xlink:href="#DejaVuSans-30" x="190.869"/><use xlink:href="#DejaVuSans-30" x="254.492"/></g></g><g id="ytick_6"><path d="M98.073 118.977h357.12" clip-path="url(#pc94e7bdf6c)" style="fill:none;stroke:#b0b0b0;stroke-width:.3;stroke-linecap:square" id="line2d_22"/><use xlink:href="#m6ef7ec0ada" x="98.073" y="118.977" style="fill:#b0b0b0;stroke:#b0b0b0;stroke-width:.3" id="line2d_23"/><g style="fill:#b0b0b0" transform="matrix(.14 0 0 -.14 46.536 124.296)" id="text_17"><use xlink:href="#DejaVuSans-32"/><use xlink:href="#DejaVuSans-35" x="63.623"/><use xlink:href="#DejaVuSans-30" x="127.246"/><use xlink:href="#DejaVuSans-30" x="190.869"/><use xlink:href="#DejaVuSans-30" x="254.492"/></g></g><g id="ytick_7"><path d="M98.073 83.169h357.12" clip-path="url(#pc94e7bdf6c)" style="fill:none;stroke:#b0b0b0;stroke-width:.3;stroke-linecap:square" id="line2d_24"/><use xlink:href="#m6ef7ec0ada" x="98.073" y="83.169" style="fill:#b0b0b0;stroke:#b0b0b0;stroke-width:.3" id="line2d_25"/><g style="fill:#b0b0b0" transform="matrix(.14 0 0 -.14 46.536 88.488)" id="text_18"><use xlink:href="#DejaVuSans-33"/><use xlink:href="#DejaVuSans-30" x="63.623"/><use xlink:href="#DejaVuSans-30" x="127.246"/><use xlink:href="#DejaVuSans-30" x="190.869"/><use xlink:href="#DejaVuSans-30" x="254.492"/></g></g><g id="ytick_8"><path d="M98.073 47.36h357.12" clip-path="url(#pc94e7bdf6c)" style="fill:none;stroke:#b0b0b0;stroke-width:.3;stroke-linecap:square" id="line2d_26"/><use xlink:href="#m6ef7ec0ada" x="98.073" y="47.361" style="fill:#b0b0b0;stroke:#b0b0b0;stroke-width:.3" id="line2d_27"/><g style="fill:#b0b0b0" transform="matrix(.14 0 0 -.14 46.536 52.68)" id="text_19"><use xlink:href="#DejaVuSans-33"/><use xlink:href="#DejaVuSans-35" x="63.623"/><use xlink:href="#DejaVuSans-30" x="127.246"/><use xlink:href="#DejaVuSans-30" x="190.869"/><use xlink:href="#DejaVuSans-30" x="254.492"/></g></g><g style="fill:#b0b0b0" transform="matrix(.14 0 0 -.14 7.2 17.838)" id="text_20"><defs><path id="DejaVuSans-47" d="M3809 666v1253H2778v519h1656V434q-365-259-806-392-440-133-940-133-1094 0-1712 639-617 640-617 1780 0 1144 617 1783 618 639 1712 639 456 0 867-113 411-112 758-331v-672q-350 297-744 447t-828 150q-857 0-1287-478-429-478-429-1425 0-944 429-1422 430-478 1287-478 334 0 596 58 263 58 472 180z" transform="scale(.01563)"/><path id="DejaVuSans-69" d="M603 3500h575V0H603v3500zm0 1363h575v-729H603v729z" transform="scale(.01563)"/><path id="DejaVuSans-74" d="M1172 4494v-994h1184v-447H1172V1153q0-428 117-550t477-122h590V0h-590q-666 0-919 248-253 249-253 905v1900H172v447h422v994h578z" transform="scale(.01563)"/><path id="DejaVuSans-48" d="M628 4666h631V2753h2294v1913h631V0h-631v2222H1259V0H628v4666z" transform="scale(.01563)"/><path id="DejaVuSans-75" d="M544 1381v2119h575V1403q0-497 193-746 194-248 582-248 465 0 735 297 271 297 271 810v1984h575V0h-575v538q-209-319-486-474-276-155-642-155-603 0-916 375-312 375-312 1097zm1447 2203z" transform="scale(.01563)"/><path id="DejaVuSans-62" d="M3116 1747q0 634-261 995t-717 361q-457 0-718-361t-261-995q0-634 261-995t718-361q456 0 717 361t261 995zM1159 2969q182 312 458 463 277 152 661 152 638 0 1036-506 399-506 399-1331T3314 415Q2916-91 2278-91q-384 0-661 152-276 152-458 464V0H581v4863h578V2969z" transform="scale(.01563)"/><path id="DejaVuSans-73" d="M2834 3397v-544q-243 125-506 187-262 63-544 63-428 0-642-131t-214-394q0-200 153-314t616-217l197-44q612-131 870-370t258-667q0-488-386-773Q2250-91 1575-91q-281 0-586 55T347 128v594q319-166 628-249 309-82 613-82 406 0 624 139 219 139 219 392 0 234-158 359-157 125-692 241l-200 47q-534 112-772 345-237 233-237 639 0 494 350 762 350 269 994 269 318 0 599-47 282-46 519-140z" transform="scale(.01563)"/><path id="DejaVuSans-61" d="M2194 1759q-697 0-966-159t-269-544q0-306 202-486 202-179 548-179 479 0 768 339t289 901v128h-572zm1147 238V0h-575v531q-197-318-491-470T1556-91q-537 0-855 302-317 302-317 808 0 590 395 890 396 300 1180 300h807v57q0 397-261 614t-733 217q-300 0-585-72-284-72-546-216v532q315 122 612 182 297 61 578 61 760 0 1135-394 375-393 375-1193z" transform="scale(.01563)"/><path id="DejaVuSans-72" d="M2631 2963q-97 56-211 82-114 27-251 27-488 0-749-317t-261-911V0H581v3500h578v-544q182 319 472 473 291 155 707 155 59 0 131-8 72-7 159-23l3-590z" transform="scale(.01563)"/></defs><use xlink:href="#DejaVuSans-47"/><use xlink:href="#DejaVuSans-69" x="77.49"/><use xlink:href="#DejaVuSans-74" x="105.273"/><use xlink:href="#DejaVuSans-48" x="144.482"/><use xlink:href="#DejaVuSans-75" x="219.678"/><use xlink:href="#DejaVuSans-62" x="283.057"/><use xlink:href="#DejaVuSans-20" x="346.533"/><use xlink:href="#DejaVuSans-73" x="378.32"/><use xlink:href="#DejaVuSans-74" x="430.42"/><use xlink:href="#DejaVuSans-61" x="469.629"/><use xlink:href="#DejaVuSans-72" x="530.908"/><use xlink:href="#DejaVuSans-73" x="572.021"/></g></g><path d="m212.305 298.018 2.693-.015h5.865l2.981-.007H261.921l2.981-.007 2.981-.014h2.885l2.98-.007h5.865l2.982-.008 2.692-.007h2.98l2.886-.007 2.98-.007 2.885-.007h2.98l2.982-.014 2.884-.008 2.981-.014h2.885l2.98-.021 2.981-.008 2.693-.014 2.98-.021 2.885-.015 2.981-.014h5.865l2.981-.007 2.885-.007 2.98-.036 2.885-.022 2.981-.021 2.981-.007 2.692-.022 2.981-.014 2.885-.014 2.98-.015h2.885l2.981-.007 2.98-.007 2.885-.014 2.981-.022 2.885-.029 2.98-.007 2.982-.007 2.788-.029 2.98-.021 2.886-.014 2.98-.015 2.885-.028 2.98-.015 2.982-.007 2.884-.014 2.981-.007h2.885l2.98-.007 2.981-.015 2.693-.007 2.98-.014h2.885l2.98-.007 2.886-.015 2.98-.007h2.981l2.885-.021 2.98-.015 2.885-.014h2.981" clip-path="url(#pc94e7bdf6c)" style="fill:none;stroke:#f7b6d2;stroke-width:1.5;stroke-linecap:square" id="line2d_28"/><path d="m100.958 298.018 2.98-.022H150.67l2.98-.007h14.712l2.885-.007h2.981l2.98-.007H188.748l2.885-.007 2.98-.022h5.866l2.981-.007h2.885l2.98-.014h8.654l2.885-.007h8.846l2.981-.015 2.885-.014 2.98-.007 2.885-.015h8.75l2.981-.007h2.885l2.98-.014h2.885l2.981-.036 2.981-.007 2.885-.029 2.98-.014 2.885-.014 2.98-.036 2.982-.022 2.692-.007 2.98-.036 2.886-.007 2.98-.028 2.885-.008 2.98-.007 2.982-.028 2.884-.022 2.981-.029 2.885-.014 2.98-.021 2.981-.022 2.693-.036 2.98-.007 2.885-.043 2.981-.007 2.885-.029 2.98-.007h2.981l2.885-.007 2.98-.036 2.885-.021 2.981-.029 2.981-.028 2.692-.008 2.981-.021 2.885-.014 2.98-.015 2.885-.007 2.981-.007h2.98l2.885-.029 2.981-.028 2.885-.008 2.98-.035 2.982-.008 2.788-.014 2.98-.036 2.886-.035 2.98-.008 2.885-.021 2.98-.007 2.982-.022h2.884l2.981-.007 2.885-.043 2.98-.029 2.981-.007 2.693-.021 2.98-.043 2.885-.014 2.98-.03 2.886-.028 2.98-.028 2.981-.036 2.885-.036 2.98-.007 2.885-.036 2.981-.021" clip-path="url(#pc94e7bdf6c)" style="fill:none;stroke:#c49c94;stroke-width:1.5;stroke-linecap:square" id="line2d_29"/><path d="m235.575 298.018 2.98-.015h8.847l2.788-.007 2.981-.014h2.885l2.98-.007h5.866l2.981-.007h2.885l2.98-.022h5.865l2.982-.014 2.692-.007 2.98-.007 2.886-.008 2.98-.007h2.885l2.98-.014h2.982l2.884-.029 2.981-.028 2.885-.015 2.98-.007 2.981-.014 2.693-.029 2.98-.021h2.885l2.981-.008 2.885-.028 2.98-.029h2.981l2.885-.036 2.98-.035 2.885-.03 2.981-.05 2.981-.028 2.692-.029 2.981-.042 2.885-.022 2.98-.043 2.885-.029 2.981-.035 2.98-.015h2.885l2.981-.014 2.885-.043 2.98-.036 2.982-.057 2.788-.022 2.98-.021 2.886-.007 2.98-.058 2.885-.014 2.98-.043 2.982-.036 2.884-.028 2.981-.043 2.885-.058 2.98-.021 2.981-.043 2.693-.007 2.98-.014 2.885-.043 2.98-.072 2.886-.029 2.98-.036 2.981-.042 2.885-.022 2.98-.05 2.885-.057 2.981-.03" clip-path="url(#pc94e7bdf6c)" style="fill:none;stroke:#c5b0d5;stroke-width:1.5;stroke-linecap:square" id="line2d_30"/><g style="fill:#1f77b4" transform="matrix(.14 0 0 -.14 465.907 35.769)" id="text_21"><defs><path id="DejaVuSans-6c" d="M603 4863h575V0H603v4863z" transform="scale(.01563)"/><path id="DejaVuSans-63" d="M3122 3366v-538q-244 135-489 202t-495 67q-560 0-870-355-309-354-309-995t309-996q310-354 870-354 250 0 495 67t489 202V134Q2881 22 2623-34q-257-57-548-57-791 0-1257 497-465 497-465 1341 0 856 470 1346 471 491 1290 491 265 0 518-55 253-54 491-163z" transform="scale(.01563)"/><path id="DejaVuSans-79" d="M2059-325q-243-625-475-815-231-191-618-191H506v481h338q237 0 368 113 132 112 291 531l103 262L191 3500h609L1894 763l1094 2737h609L2059-325z" transform="scale(.01563)"/><path id="DejaVuSans-2f" d="M1625 4666h531L531-594H0l1625 5260z" transform="scale(.01563)"/></defs><use xlink:href="#DejaVuSans-61"/><use xlink:href="#DejaVuSans-6c" x="61.279"/><use xlink:href="#DejaVuSans-61" x="89.063"/><use xlink:href="#DejaVuSans-63" x="150.342"/><use xlink:href="#DejaVuSans-72" x="205.322"/><use xlink:href="#DejaVuSans-69" x="246.436"/><use xlink:href="#DejaVuSans-74" x="274.219"/><use xlink:href="#DejaVuSans-74" x="313.428"/><use xlink:href="#DejaVuSans-79" x="352.637"/><use xlink:href="#DejaVuSans-2f" x="411.816"/><use xlink:href="#DejaVuSans-61" x="445.508"/><use xlink:href="#DejaVuSans-6c" x="506.787"/><use xlink:href="#DejaVuSans-61" x="534.57"/><use xlink:href="#DejaVuSans-63" x="595.85"/><use xlink:href="#DejaVuSans-72" x="650.83"/><use xlink:href="#DejaVuSans-69" x="691.943"/><use xlink:href="#DejaVuSans-74" x="719.727"/><use xlink:href="#DejaVuSans-74" x="758.936"/><use xlink:href="#DejaVuSans-79" x="798.145"/></g><g style="fill:#ff7f0e" transform="matrix(.14 0 0 -.14 465.907 104.392)" id="text_22"><defs><path id="DejaVuSans-45" d="M628 4666h2950v-532H1259V2753h2222v-531H1259V531h2375V0H628v4666z" transform="scale(.01563)"/><path id="DejaVuSans-67" d="M2906 1791q0 625-258 968-257 344-723 344-462 0-720-344-258-343-258-968 0-622 258-966t720-344q466 0 723 344 258 344 258 966zm575-1357q0-893-397-1329-396-436-1215-436-303 0-572 45t-522 139v559q253-137 500-202 247-66 503-66 566 0 847 295t281 892v285q-178-310-456-463T1784 0Q1141 0 747 490 353 981 353 1791q0 812 394 1302 394 491 1037 491 388 0 666-153t456-462v531h575V434z" transform="scale(.01563)"/><path id="DejaVuSans-65" d="M3597 1894v-281H953q38-594 358-905t892-311q331 0 642 81t618 244V178Q3153 47 2828-22t-659-69q-838 0-1327 487-489 488-489 1320 0 859 464 1363 464 505 1252 505 706 0 1117-455 411-454 411-1235zm-575 169q-6 471-264 752-258 282-683 282-481 0-770-272t-333-766l2050 4z" transform="scale(.01563)"/><path id="DejaVuSans-6e" d="M3513 2113V0h-575v2094q0 497-194 743-194 247-581 247-466 0-735-297-269-296-269-809V0H581v3500h578v-544q207 316 486 472 280 156 646 156 603 0 912-373 310-373 310-1098z" transform="scale(.01563)"/></defs><use xlink:href="#DejaVuSans-45"/><use xlink:href="#DejaVuSans-75" x="63.184"/><use xlink:href="#DejaVuSans-67" x="126.563"/><use xlink:href="#DejaVuSans-65" x="190.039"/><use xlink:href="#DejaVuSans-6e" x="251.563"/><use xlink:href="#DejaVuSans-79" x="314.941"/><use xlink:href="#DejaVuSans-2f" x="374.121"/><use xlink:href="#DejaVuSans-74" x="407.813"/><use xlink:href="#DejaVuSans-61" x="447.021"/><use xlink:href="#DejaVuSans-62" x="508.301"/><use xlink:href="#DejaVuSans-62" x="571.777"/><use xlink:href="#DejaVuSans-79" x="635.254"/></g><g style="fill:#2ca02c" transform="matrix(.14 0 0 -.14 465.907 132.566)" id="text_23"><defs><path id="DejaVuSans-6d" d="M3328 2828q216 388 516 572t706 184q547 0 844-383 297-382 297-1088V0h-578v2094q0 503-179 746-178 244-543 244-447 0-707-297-259-296-259-809V0h-578v2094q0 506-178 748t-550 242q-441 0-701-298-259-298-259-808V0H581v3500h578v-544q197 322 472 475t653 153q382 0 649-194 267-193 395-562z" transform="scale(.01563)"/><path id="DejaVuSans-78" d="M3513 3500 2247 1797 3578 0h-678L1881 1375 863 0H184l1360 1831L300 3500h678l928-1247 928 1247h679z" transform="scale(.01563)"/></defs><use xlink:href="#DejaVuSans-74"/><use xlink:href="#DejaVuSans-6d" x="39.209"/><use xlink:href="#DejaVuSans-75" x="136.621"/><use xlink:href="#DejaVuSans-78" x="200"/><use xlink:href="#DejaVuSans-2f" x="259.18"/><use xlink:href="#DejaVuSans-74" x="292.871"/><use xlink:href="#DejaVuSans-6d" x="332.08"/><use xlink:href="#DejaVuSans-75" x="429.492"/><use xlink:href="#DejaVuSans-78" x="492.871"/></g><g style="fill:#d62728" transform="matrix(.14 0 0 -.14 465.907 191.836)" id="text_24"><defs><path id="DejaVuSans-6b" d="M581 4863h578V1991l1716 1509h734L1753 1863 3688 0h-750L1159 1709V0H581v4863z" transform="scale(.01563)"/><path id="DejaVuSans-6f" d="M1959 3097q-462 0-731-361t-269-989q0-628 267-989 268-361 733-361 460 0 728 362 269 363 269 988 0 622-269 986-268 364-728 364zm0 487q750 0 1178-488 429-487 429-1349 0-859-429-1349Q2709-91 1959-91q-753 0-1180 489-426 490-426 1349 0 862 426 1349 427 488 1180 488z" transform="scale(.01563)"/><path id="DejaVuSans-76" d="M191 3500h609L1894 563l1094 2937h609L2284 0h-781L191 3500z" transform="scale(.01563)"/><path id="DejaVuSans-64" d="M2906 2969v1894h575V0h-575v525q-181-312-458-464-276-152-664-152-634 0-1033 506-398 507-398 1332t398 1331q399 506 1033 506 388 0 664-152 277-151 458-463zM947 1747q0-634 261-995t717-361q456 0 718 361 263 361 263 995t-263 995q-262 361-718 361t-717-361q-261-361-261-995z" transform="scale(.01563)"/></defs><use xlink:href="#DejaVuSans-6b"/><use xlink:href="#DejaVuSans-6f" x="54.285"/><use xlink:href="#DejaVuSans-76" x="115.467"/><use xlink:href="#DejaVuSans-69" x="174.646"/><use xlink:href="#DejaVuSans-64" x="202.43"/><use xlink:href="#DejaVuSans-67" x="265.906"/><use xlink:href="#DejaVuSans-6f" x="329.383"/><use xlink:href="#DejaVuSans-79" x="390.564"/><use xlink:href="#DejaVuSans-61" x="449.744"/><use xlink:href="#DejaVuSans-6c" x="511.023"/><use xlink:href="#DejaVuSans-2f" x="538.807"/><use xlink:href="#DejaVuSans-6b" x="572.498"/><use xlink:href="#DejaVuSans-69" x="630.408"/><use xlink:href="#DejaVuSans-74" x="658.191"/><use xlink:href="#DejaVuSans-74" x="697.4"/><use xlink:href="#DejaVuSans-79" x="736.609"/></g><g style="fill:#9467bd" transform="matrix(.14 0 0 -.14 465.907 205.836)" id="text_25"><defs><path id="DejaVuSans-4d" d="M628 4666h941l1190-3175 1197 3175h941V0h-616v4097L3078 897h-634L1241 4097V0H628v4666z" transform="scale(.01563)"/><path id="DejaVuSans-43" d="M4122 4306v-665q-319 297-680 443-361 147-767 147-800 0-1225-489t-425-1414q0-922 425-1411t1225-489q406 0 767 147t680 444V359q-331-225-702-338-370-112-782-112-1060 0-1670 648-609 649-609 1771 0 1125 609 1773 610 649 1670 649 418 0 788-111 371-111 696-333z" transform="scale(.01563)"/></defs><use xlink:href="#DejaVuSans-4d"/><use xlink:href="#DejaVuSans-61" x="86.279"/><use xlink:href="#DejaVuSans-78" x="147.559"/><use xlink:href="#DejaVuSans-69" x="206.738"/><use xlink:href="#DejaVuSans-6d" x="234.521"/><use xlink:href="#DejaVuSans-75" x="331.934"/><use xlink:href="#DejaVuSans-73" x="395.313"/><use xlink:href="#DejaVuSans-35" x="447.412"/><use xlink:href="#DejaVuSans-2f" x="511.035"/><use xlink:href="#DejaVuSans-43" x="544.727"/><use xlink:href="#DejaVuSans-6f" x="614.551"/><use xlink:href="#DejaVuSans-6e" x="675.732"/><use xlink:href="#DejaVuSans-45" x="739.111"/><use xlink:href="#DejaVuSans-6d" x="802.295"/><use xlink:href="#DejaVuSans-75" x="899.707"/></g><g style="fill:#8c564b" transform="matrix(.14 0 0 -.14 465.907 219.836)" id="text_26"><use xlink:href="#DejaVuSans-67"/><use xlink:href="#DejaVuSans-6e" x="63.477"/><use xlink:href="#DejaVuSans-75" x="126.855"/><use xlink:href="#DejaVuSans-6e" x="190.234"/><use xlink:href="#DejaVuSans-6e" x="253.613"/><use xlink:href="#DejaVuSans-31" x="316.992"/><use xlink:href="#DejaVuSans-2f" x="380.615"/><use xlink:href="#DejaVuSans-74" x="414.307"/><use xlink:href="#DejaVuSans-69" x="453.516"/><use xlink:href="#DejaVuSans-6c" x="481.299"/><use xlink:href="#DejaVuSans-69" x="509.082"/><use xlink:href="#DejaVuSans-78" x="536.865"/></g><g style="fill:#e377c2" transform="matrix(.14 0 0 -.14 465.907 233.836)" id="text_27"><use xlink:href="#DejaVuSans-47"/><use xlink:href="#DejaVuSans-75" x="77.49"/><use xlink:href="#DejaVuSans-61" x="140.869"/><use xlink:href="#DejaVuSans-6b" x="202.148"/><use xlink:href="#DejaVuSans-65" x="256.434"/><use xlink:href="#DejaVuSans-2f" x="317.957"/><use xlink:href="#DejaVuSans-67" x="351.648"/><use xlink:href="#DejaVuSans-75" x="415.125"/><use xlink:href="#DejaVuSans-61" x="478.504"/><use xlink:href="#DejaVuSans-6b" x="539.783"/><use xlink:href="#DejaVuSans-65" x="594.068"/></g><g style="fill:#7f7f7f" transform="matrix(.14 0 0 -.14 465.907 247.836)" id="text_28"><defs><path id="DejaVuSans-68" d="M3513 2113V0h-575v2094q0 497-194 743-194 247-581 247-466 0-735-297-269-296-269-809V0H581v4863h578V2956q207 316 486 472 280 156 646 156 603 0 912-373 310-373 310-1098z" transform="scale(.01563)"/></defs><use xlink:href="#DejaVuSans-74"/><use xlink:href="#DejaVuSans-68" x="39.209"/><use xlink:href="#DejaVuSans-65" x="102.588"/><use xlink:href="#DejaVuSans-73" x="164.111"/><use xlink:href="#DejaVuSans-74" x="216.211"/><use xlink:href="#DejaVuSans-69" x="255.42"/><use xlink:href="#DejaVuSans-6e" x="283.203"/><use xlink:href="#DejaVuSans-67" x="346.582"/><use xlink:href="#DejaVuSans-65" x="410.059"/><use xlink:href="#DejaVuSans-72" x="471.582"/><use xlink:href="#DejaVuSans-2f" x="512.695"/><use xlink:href="#DejaVuSans-74" x="546.387"/><use xlink:href="#DejaVuSans-65" x="585.596"/><use xlink:href="#DejaVuSans-72" x="647.119"/><use xlink:href="#DejaVuSans-6d" x="686.482"/><use xlink:href="#DejaVuSans-69" x="783.895"/><use xlink:href="#DejaVuSans-74" x="811.678"/><use xlink:href="#DejaVuSans-65" x="850.887"/></g><g style="fill:#bcbd22" transform="matrix(.14 0 0 -.14 465.907 261.836)" id="text_29"><defs><path id="DejaVuSans-4c" d="M628 4666h631V531h2272V0H628v4666z" transform="scale(.01563)"/><path id="DejaVuSans-53" d="M3425 4513v-616q-359 172-678 256-319 85-616 85-515 0-795-200t-280-569q0-310 186-468 186-157 705-254l381-78q706-135 1042-474t336-907q0-679-455-1029Q2797-91 1919-91q-331 0-705 75-373 75-773 222v650q384-215 753-325 369-109 725-109 540 0 834 212 294 213 294 607 0 343-211 537t-692 291l-385 75q-706 140-1022 440-315 300-315 835 0 619 436 975t1201 356q329 0 669-60 341-59 697-177z" transform="scale(.01563)"/><path id="DejaVuSans-7a" d="M353 3500h2731v-525L922 459h2162V0H275v525l2163 2516H353v459z" transform="scale(.01563)"/></defs><use xlink:href="#DejaVuSans-4c"/><use xlink:href="#DejaVuSans-75" x="53.963"/><use xlink:href="#DejaVuSans-6b" x="117.342"/><use xlink:href="#DejaVuSans-65" x="171.627"/><use xlink:href="#DejaVuSans-53" x="233.15"/><use xlink:href="#DejaVuSans-6d" x="296.627"/><use xlink:href="#DejaVuSans-69" x="394.039"/><use xlink:href="#DejaVuSans-74" x="421.822"/><use xlink:href="#DejaVuSans-68" x="461.031"/><use xlink:href="#DejaVuSans-78" x="524.41"/><use xlink:href="#DejaVuSans-79" x="583.59"/><use xlink:href="#DejaVuSans-7a" x="642.77"/><use xlink:href="#DejaVuSans-2f" x="695.26"/><use xlink:href="#DejaVuSans-73" x="728.951"/><use xlink:href="#DejaVuSans-74" x="781.051"/></g><g style="fill:#17becf" transform="matrix(.14 0 0 -.14 465.907 275.836)" id="text_30"><use xlink:href="#DejaVuSans-6c"/><use xlink:href="#DejaVuSans-61" x="27.783"/><use xlink:href="#DejaVuSans-6e" x="89.063"/><use xlink:href="#DejaVuSans-6f" x="152.441"/><use xlink:href="#DejaVuSans-78" x="210.498"/><use xlink:href="#DejaVuSans-78" x="269.678"/><use xlink:href="#DejaVuSans-2f" x="328.857"/><use xlink:href="#DejaVuSans-74" x="362.549"/><use xlink:href="#DejaVuSans-69" x="401.758"/><use xlink:href="#DejaVuSans-6c" x="429.541"/><use xlink:href="#DejaVuSans-64" x="457.324"/><use xlink:href="#DejaVuSans-61" x="520.801"/></g><g style="fill:#aec7e8" transform="matrix(.14 0 0 -.14 465.907 289.836)" id="text_31"><defs><path id="DejaVuSans-2d" d="M313 2009h1684v-512H313v512z" transform="scale(.01563)"/></defs><use xlink:href="#DejaVuSans-67"/><use xlink:href="#DejaVuSans-6e" x="63.477"/><use xlink:href="#DejaVuSans-6f" x="126.855"/><use xlink:href="#DejaVuSans-6d" x="188.037"/><use xlink:href="#DejaVuSans-65" x="285.449"/><use xlink:href="#DejaVuSans-2d" x="346.973"/><use xlink:href="#DejaVuSans-74" x="383.057"/><use xlink:href="#DejaVuSans-65" x="422.266"/><use xlink:href="#DejaVuSans-72" x="483.789"/><use xlink:href="#DejaVuSans-6d" x="523.152"/><use xlink:href="#DejaVuSans-69" x="620.564"/><use xlink:href="#DejaVuSans-6e" x="648.348"/><use xlink:href="#DejaVuSans-61" x="711.727"/><use xlink:href="#DejaVuSans-74" x="773.006"/><use xlink:href="#DejaVuSans-6f" x="812.215"/><use xlink:href="#DejaVuSans-72" x="873.396"/><use xlink:href="#DejaVuSans-2f" x="914.51"/><use xlink:href="#DejaVuSans-74" x="948.201"/><use xlink:href="#DejaVuSans-65" x="987.41"/><use xlink:href="#DejaVuSans-72" x="1048.934"/><use xlink:href="#DejaVuSans-6d" x="1088.297"/><use xlink:href="#DejaVuSans-69" x="1185.709"/><use xlink:href="#DejaVuSans-6e" x="1213.492"/><use xlink:href="#DejaVuSans-61" x="1276.871"/><use xlink:href="#DejaVuSans-74" x="1338.15"/><use xlink:href="#DejaVuSans-6f" x="1377.359"/><use xlink:href="#DejaVuSans-72" x="1438.541"/></g><g style="fill:#ffbb78" transform="matrix(.14 0 0 -.14 465.907 303.836)" id="text_32"><defs><path id="DejaVuSans-66" d="M2375 4863v-479h-550q-309 0-430-125-120-125-120-450v-309h947v-447h-947V0H697v3053H147v447h550v244q0 584 272 851 272 268 862 268h544z" transform="scale(.01563)"/></defs><use xlink:href="#DejaVuSans-62"/><use xlink:href="#DejaVuSans-6f" x="63.477"/><use xlink:href="#DejaVuSans-72" x="124.658"/><use xlink:href="#DejaVuSans-69" x="165.771"/><use xlink:href="#DejaVuSans-73" x="193.555"/><use xlink:href="#DejaVuSans-66" x="245.654"/><use xlink:href="#DejaVuSans-61" x="280.859"/><use xlink:href="#DejaVuSans-75" x="342.139"/><use xlink:href="#DejaVuSans-72" x="405.518"/><use xlink:href="#DejaVuSans-65" x="444.381"/><use xlink:href="#DejaVuSans-2f" x="505.904"/><use xlink:href="#DejaVuSans-74" x="539.596"/><use xlink:href="#DejaVuSans-65" x="578.805"/><use xlink:href="#DejaVuSans-72" x="640.328"/><use xlink:href="#DejaVuSans-6d" x="679.691"/><use xlink:href="#DejaVuSans-69" x="777.104"/><use xlink:href="#DejaVuSans-6e" x="804.887"/><use xlink:href="#DejaVuSans-6f" x="868.266"/><use xlink:href="#DejaVuSans-6c" x="929.447"/><use xlink:href="#DejaVuSans-6f" x="957.23"/><use xlink:href="#DejaVuSans-67" x="1018.412"/><use xlink:href="#DejaVuSans-79" x="1081.889"/></g><g style="fill:#98df8a" transform="matrix(.14 0 0 -.14 465.907 317.836)" id="text_33"><defs><path id="DejaVuSans-4b" d="M628 4666h631V2694l2094 1972h813L1850 2491 4331 0h-831L1259 2247V0H628v4666z" transform="scale(.01563)"/><path id="DejaVuSans-44" d="M1259 4147V519h763q966 0 1414 437 448 438 448 1382 0 937-448 1373t-1414 436h-763zm-631 519h1297q1356 0 1990-564 635-564 635-1764 0-1207-638-1773Q3275 0 1925 0H628v4666z" transform="scale(.01563)"/></defs><use xlink:href="#DejaVuSans-4b"/><use xlink:href="#DejaVuSans-44" x="65.576"/><use xlink:href="#DejaVuSans-45" x="142.578"/><use xlink:href="#DejaVuSans-2f" x="205.762"/><use xlink:href="#DejaVuSans-6b" x="239.453"/><use xlink:href="#DejaVuSans-6f" x="293.738"/><use xlink:href="#DejaVuSans-6e" x="354.92"/><use xlink:href="#DejaVuSans-73" x="418.299"/><use xlink:href="#DejaVuSans-6f" x="470.398"/><use xlink:href="#DejaVuSans-6c" x="531.58"/><use xlink:href="#DejaVuSans-65" x="559.363"/></g><g style="fill:#ff9896" transform="matrix(.14 0 0 -.14 465.907 331.836)" id="text_34"><defs><path id="DejaVuSans-4e" d="M628 4666h850L3547 763v3903h612V0h-850L1241 3903V0H628v4666z" transform="scale(.01563)"/><path id="DejaVuSans-4f" d="M2522 4238q-688 0-1093-513-404-512-404-1397 0-881 404-1394 405-512 1093-512 687 0 1089 512 402 513 402 1394 0 885-402 1397-402 513-1089 513zm0 512q981 0 1568-658 588-658 588-1764 0-1103-588-1761Q3503-91 2522-91q-984 0-1574 656-589 657-589 1763t589 1764q590 658 1574 658z" transform="scale(.01563)"/></defs><use xlink:href="#DejaVuSans-47"/><use xlink:href="#DejaVuSans-4e" x="77.49"/><use xlink:href="#DejaVuSans-4f" x="152.295"/><use xlink:href="#DejaVuSans-4d" x="231.006"/><use xlink:href="#DejaVuSans-45" x="317.285"/><use xlink:href="#DejaVuSans-2f" x="380.469"/><use xlink:href="#DejaVuSans-67" x="414.16"/><use xlink:href="#DejaVuSans-6e" x="477.637"/><use xlink:href="#DejaVuSans-6f" x="541.016"/><use xlink:href="#DejaVuSans-6d" x="602.197"/><use xlink:href="#DejaVuSans-65" x="699.609"/><use xlink:href="#DejaVuSans-2d" x="761.133"/><use xlink:href="#DejaVuSans-74" x="797.217"/><use xlink:href="#DejaVuSans-65" x="836.426"/><use xlink:href="#DejaVuSans-72" x="897.949"/><use xlink:href="#DejaVuSans-6d" x="937.313"/><use xlink:href="#DejaVuSans-69" x="1034.725"/><use xlink:href="#DejaVuSans-6e" x="1062.508"/><use xlink:href="#DejaVuSans-61" x="1125.887"/><use xlink:href="#DejaVuSans-6c" x="1187.166"/></g><g style="fill:#c5b0d5" transform="matrix(.14 0 0 -.14 465.907 345.836)" id="text_35"><use xlink:href="#DejaVuSans-4b"/><use xlink:href="#DejaVuSans-44" x="65.576"/><use xlink:href="#DejaVuSans-45" x="142.578"/><use xlink:href="#DejaVuSans-2f" x="205.762"/><use xlink:href="#DejaVuSans-79" x="239.453"/><use xlink:href="#DejaVuSans-61" x="298.633"/><use xlink:href="#DejaVuSans-6b" x="359.912"/><use xlink:href="#DejaVuSans-75" x="414.697"/><use xlink:href="#DejaVuSans-61" x="478.076"/><use xlink:href="#DejaVuSans-6b" x="539.355"/><use xlink:href="#DejaVuSans-65" x="593.641"/></g><g style="fill:#c49c94" transform="matrix(.14 0 0 -.14 465.907 359.836)" id="text_36"><use xlink:href="#DejaVuSans-65"/><use xlink:href="#DejaVuSans-78" x="59.773"/><use xlink:href="#DejaVuSans-67" x="118.953"/><use xlink:href="#DejaVuSans-2f" x="182.43"/><use xlink:href="#DejaVuSans-72" x="216.121"/><use xlink:href="#DejaVuSans-78" x="254.609"/><use xlink:href="#DejaVuSans-76" x="313.789"/><use xlink:href="#DejaVuSans-74" x="372.969"/><use xlink:href="#DejaVuSans-2d" x="412.178"/><use xlink:href="#DejaVuSans-75" x="448.262"/><use xlink:href="#DejaVuSans-6e" x="511.641"/><use xlink:href="#DejaVuSans-69" x="575.02"/><use xlink:href="#DejaVuSans-63" x="602.803"/><use xlink:href="#DejaVuSans-6f" x="657.783"/><use xlink:href="#DejaVuSans-64" x="718.965"/><use xlink:href="#DejaVuSans-65" x="782.441"/></g><g style="fill:#f7b6d2" transform="matrix(.14 0 0 -.14 465.907 373.836)" id="text_37"><use xlink:href="#DejaVuSans-78"/><use xlink:href="#DejaVuSans-66" x="59.18"/><use xlink:href="#DejaVuSans-63" x="94.385"/><use xlink:href="#DejaVuSans-65" x="149.365"/><use xlink:href="#DejaVuSans-2d" x="210.889"/><use xlink:href="#DejaVuSans-6d" x="246.973"/><use xlink:href="#DejaVuSans-69" x="344.385"/><use xlink:href="#DejaVuSans-72" x="372.168"/><use xlink:href="#DejaVuSans-72" x="411.531"/><use xlink:href="#DejaVuSans-6f" x="450.395"/><use xlink:href="#DejaVuSans-72" x="511.576"/><use xlink:href="#DejaVuSans-2f" x="552.689"/><use xlink:href="#DejaVuSans-78" x="586.381"/><use xlink:href="#DejaVuSans-66" x="645.561"/><use xlink:href="#DejaVuSans-63" x="680.766"/><use xlink:href="#DejaVuSans-65" x="735.746"/><use xlink:href="#DejaVuSans-34" x="797.27"/><use xlink:href="#DejaVuSans-2d" x="860.893"/><use xlink:href="#DejaVuSans-74" x="896.977"/><use xlink:href="#DejaVuSans-65" x="936.186"/><use xlink:href="#DejaVuSans-72" x="997.709"/><use xlink:href="#DejaVuSans-6d" x="1037.072"/><use xlink:href="#DejaVuSans-69" x="1134.484"/><use xlink:href="#DejaVuSans-6e" x="1162.268"/><use xlink:href="#DejaVuSans-61" x="1225.646"/><use xlink:href="#DejaVuSans-6c" x="1286.926"/></g><g style="fill:#b0b0b0" transform="matrix(.09716 0 0 -.09716 98.073 332.054)" id="text_38"><defs><path id="DejaVuSans-40" d="M2381 1678q0-447 222-702 222-254 610-254 384 0 604 256 221 256 221 700 0 438-225 695-225 258-607 258-378 0-602-256-223-256-223-697zm1703-934q-187-241-429-355t-564-114q-538 0-874 389t-336 1014q0 625 337 1015 338 391 873 391 322 0 565-117 244-117 428-354v409h447V722q457 69 714 417 258 349 258 902 0 334-99 628-98 294-298 544-325 409-792 626t-1017 217q-384 0-738-102-353-101-653-301-490-319-767-836-276-517-276-1120 0-497 179-932 180-434 521-765 328-325 759-495 431-171 922-171 403 0 792 136t714 389l281-347q-390-303-851-464t-936-161q-578 0-1091 205-512 205-912 595Q841 78 631 592q-209 514-209 1105 0 569 212 1084 213 516 607 907 403 396 931 607t1119 211q662 0 1229-272 568-271 952-771 234-307 357-666 124-359 124-744 0-822-497-1297T4084 263v481z" transform="scale(.01563)"/><path id="DejaVuSans-70" d="M1159 525v-1856H581v4831h578v-531q182 312 458 463 277 152 661 152 638 0 1036-506 399-506 399-1331T3314 415Q2916-91 2278-91q-384 0-661 152-276 152-458 464zm1957 1222q0 634-261 995t-717 361q-457 0-718-361t-261-995q0-634 261-995t718-361q456 0 717 361t261 995z" transform="scale(.01563)"/><path id="DejaVuSans-7c" d="M1344 4891v-6400H813v6400h531z" transform="scale(.01563)"/><path id="DejaVuSans-f6" d="M1959 3097q-462 0-731-361t-269-989q0-628 267-989 268-361 733-361 460 0 728 362 269 363 269 988 0 622-269 986-268 364-728 364zm0 487q750 0 1178-488 429-487 429-1349 0-859-429-1349Q2709-91 1959-91q-753 0-1180 489-426 490-426 1349 0 862 426 1349 427 488 1180 488zm295 1266h634v-631h-634v631zm-1222 0h634v-631h-634v631z" transform="scale(.01563)"/><path id="DejaVuSans-42" d="M1259 2228V519h1013q509 0 754 211 246 211 246 645 0 438-246 645-245 208-754 208H1259zm0 1919V2741h935q462 0 688 173 227 174 227 530 0 353-227 528-226 175-688 175h-935zm-631 519h1613q722 0 1112-300 391-300 391-853 0-429-200-682t-588-315q466-100 724-418 258-317 258-792 0-625-425-966Q3088 0 2303 0H628v4666z" transform="scale(.01563)"/><path id="DejaVuSans-59" d="M-13 4666h679l1293-1919 1285 1919h678L2272 2222V0h-634v2222L-13 4666z" transform="scale(.01563)"/></defs><use xlink:href="#DejaVuSans-40"/><use xlink:href="#DejaVuSans-6e" x="100"/><use xlink:href="#DejaVuSans-73" x="163.379"/><use xlink:href="#DejaVuSans-63" x="215.479"/><use xlink:href="#DejaVuSans-68" x="270.459"/><use xlink:href="#DejaVuSans-6c" x="333.838"/><use xlink:href="#DejaVuSans-6f" x="361.621"/><use xlink:href="#DejaVuSans-65" x="422.803"/><use xlink:href="#DejaVuSans-20" x="484.326"/><use xlink:href="#DejaVuSans-2f" x="516.113"/><use xlink:href="#DejaVuSans-20" x="549.805"/><use xlink:href="#DejaVuSans-73" x="581.592"/><use xlink:href="#DejaVuSans-74" x="633.691"/><use xlink:href="#DejaVuSans-61" x="672.9"/><use xlink:href="#DejaVuSans-72" x="734.18"/><use xlink:href="#DejaVuSans-67" x="773.543"/><use xlink:href="#DejaVuSans-72" x="837.02"/><use xlink:href="#DejaVuSans-61" x="878.133"/><use xlink:href="#DejaVuSans-70" x="939.412"/><use xlink:href="#DejaVuSans-68" x="1002.889"/><use xlink:href="#DejaVuSans-20" x="1066.268"/><use xlink:href="#DejaVuSans-7c" x="1098.055"/><use xlink:href="#DejaVuSans-20" x="1131.746"/><use xlink:href="#DejaVuSans-4e" x="1163.533"/><use xlink:href="#DejaVuSans-69" x="1238.338"/><use xlink:href="#DejaVuSans-63" x="1266.121"/><use xlink:href="#DejaVuSans-6f" x="1321.102"/><use xlink:href="#DejaVuSans-20" x="1382.283"/><use xlink:href="#DejaVuSans-53" x="1414.07"/><use xlink:href="#DejaVuSans-63" x="1477.547"/><use xlink:href="#DejaVuSans-68" x="1532.527"/><use xlink:href="#DejaVuSans-6c" x="1595.906"/><use xlink:href="#DejaVuSans-f6" x="1623.689"/><use xlink:href="#DejaVuSans-6d" x="1684.871"/><use xlink:href="#DejaVuSans-65" x="1782.283"/><use xlink:href="#DejaVuSans-72" x="1843.807"/><use xlink:href="#DejaVuSans-20" x="1884.92"/><use xlink:href="#DejaVuSans-7c" x="1916.707"/><use xlink:href="#DejaVuSans-20" x="1950.398"/><use xlink:href="#DejaVuSans-43" x="1982.186"/><use xlink:href="#DejaVuSans-43" x="2052.01"/><use xlink:href="#DejaVuSans-20" x="2121.834"/><use xlink:href="#DejaVuSans-42" x="2153.621"/><use xlink:href="#DejaVuSans-59" x="2216.725"/></g><path d="m118.554 298.018 2.885-.007H147.785l2.885-.008h8.846l2.981-.014h11.731l2.98-.007 2.693-.014h14.711l2.982-.015 2.884-.007 2.981-.007 2.885-.007 2.98-.007 2.981-.022 2.693-.007 2.98-.014 2.885-.015 2.981-.014h2.885l2.98-.014h2.981l2.885-.029 2.98-.014 2.885-.015 2.981-.014 2.981-.007 2.788-.014 2.981-.015 2.885-.028 2.98-.015 2.885-.028 2.981-.007 2.981-.015 2.885-.007h2.98l2.885-.014 2.98-.022 2.982-.036 2.692-.021 2.98-.022 2.886-.035 2.98-.05 2.885-.022 2.98-.007 2.982-.029 2.884-.014 2.981-.022 2.885-.007 2.98-.021 2.981-.015 2.693-.021 2.98-.029 2.885-.043 2.981-.014 2.885-.007h2.98l2.981-.036 2.885-.021 2.98-.008 2.885-.007 2.981-.014 2.981-.014 2.692-.022 2.981-.079 2.885-.043 2.98-.035 2.885-.036 2.981-.029 2.98-.007 2.885-.014 2.981-.015 2.885-.007 2.98-.036 2.982-.014 2.788-.014 2.98-.007 2.886-.03 2.98-.035 2.885-.021 2.98-.022 2.982-.014 2.884-.022 2.981-.021 2.885-.015 2.98-.007 2.981-.021 2.693-.014 2.98-.015 2.885-.028 2.98-.022 2.886-.029 2.98-.007 2.981-.014 2.885-.022 2.98-.035h2.885l2.981-.015" clip-path="url(#pc94e7bdf6c)" style="fill:none;stroke:#ff9896;stroke-width:1.5;stroke-linecap:square" id="line2d_31"/><path d="m235.575 298.018 2.98-.029h5.866l2.981-.014h2.788l2.981-.007 2.885-.008h2.98l2.885-.007 2.981-.007 2.981-.007h2.885l2.98-.014h2.885l2.98-.007h5.674l2.98-.008 2.886-.007 2.98-.007 2.885-.029 2.98-.007 2.982-.014 2.884-.022 2.981-.021h2.885l2.98-.007 2.981-.022 2.693-.043 2.98-.021 2.885-.015 2.981-.021h2.885l2.98-.007 2.981-.007 2.885-.015 2.98-.021 2.885-.014 2.981-.058 2.981-.028 2.692-.022 2.981-.057 2.885-.036 2.98-.05 2.885-.05h2.981l2.98-.043 2.885-.022 2.981-.05 2.885-.014 2.98-.014 2.982-.015 2.788-.028 2.98-.036 2.886-.029 2.98-.036 2.885-.014 2.98-.043 2.982-.064 2.884-.05 2.981-.094 2.885-.057 2.98-.029 2.981-.014 2.693-.043 2.98-.057 2.885-.072 2.98-.071 2.886-.065 2.98-.064 2.981-.065 2.885-.057 2.98-.05 2.885-.029 2.981-.079" clip-path="url(#pc94e7bdf6c)" style="fill:none;stroke:#98df8a;stroke-width:1.5;stroke-linecap:square" id="line2d_32"/><path d="m159.516 298.018 2.981-.007h20.384l2.886-.022h2.98l2.885-.014h2.98l2.982-.029 2.884-.007 2.981-.014 2.885-.007h2.98l2.981-.015 2.693-.021 2.98-.007h2.885l2.981-.043 2.885-.043 2.98-.065 2.981-.021 2.885-.058 2.98-.021 2.885-.072 2.981-.05 2.981-.021 2.788-.022 2.981-.05 2.885-.036 2.98-.043 2.885-.043 2.981-.007 2.981-.014 2.885-.022 2.98-.014 2.885-.014 2.98-.029 2.982-.043 2.692-.043 2.98-.05 2.886-.036 2.98-.021 2.885-.043 2.98-.05 2.982-.03 2.884-.042 2.981-.065 2.885-.042 2.98-.05 2.981-.044 2.693-.057 2.98-.064 2.885-.036 2.981-.093 2.885-.05 2.98-.065 2.981-.028 2.885-.072 2.98-.036 2.885-.043 2.981-.029 2.981-.028 2.692-.036 2.981-.014 2.885-.022 2.98-.043 2.885-.043 2.981-.064 2.98-.043 2.885-.057 2.981-.058 2.885-.021 2.98-.043 2.982-.015 2.788-.057 2.98-.057 2.886-.1 2.98-.029 2.885-.036 2.98-.043 2.982-.079 2.884-.078 2.981-.022 2.885-.036 2.98-.028 2.981-.029 2.693-.036 2.98-.064 2.885-.036 2.98-.029 2.886-.028 2.98-.043 2.981-.029 2.885-.064 2.98-.036 2.885-.036 2.981-.021" clip-path="url(#pc94e7bdf6c)" style="fill:none;stroke:#ffbb78;stroke-width:1.5;stroke-linecap:square" id="line2d_33"/><path d="m393.654 298.018 2.885-.638 2.98-.916 2.885-.315 2.98-.287 2.982-.215 2.884-.279 2.981-.444 2.885-.351 2.98-.272 2.981-.38 2.693-.33 2.98-.357 2.885-.351 2.98-.33 2.886-.25 2.98-.25 2.981-.273 2.885-.33 2.98-.15 2.885-.208 2.981-.35" clip-path="url(#pc94e7bdf6c)" style="fill:none;stroke:#aec7e8;stroke-width:1.5;stroke-linecap:square" id="line2d_34"/><path d="m109.708 298.018 2.98-.036h29.424l2.692-.014h2.981l2.885-.015h5.865l2.981-.007 2.981-.021 2.885-.015 2.98-.014 2.885-.036 2.981-.05 2.98-.014 2.693-.022 2.98-.028 2.886-.036 2.98-.022 2.885-.035 2.98-.015 2.982-.028 2.884-.043 2.981-.072 2.885-.022 2.98-.021 2.981-.05 2.693-.086 2.98-.158 2.885-.057 2.981-.036 2.885-.079 2.98-.05 2.981-.021 2.885-.072 2.98-.057 2.885-.129 2.981-.05 2.981-.043 2.788-.093 2.981-.029 2.885-.114 2.98-.13 2.885-.078 2.981-.115 2.981-.043 2.885-.071 2.98-.065 2.885-.028 2.98-.08 2.982-.064 2.692-.043 2.98-.1 2.886-.1 2.98-.065 2.885-.057 2.98-.057 2.982-.158 2.884-.078 2.981-.137 2.885-.257 2.98-.108 2.981-.179 2.693-.129 2.98-.086 2.885-.078 2.981-.208 2.885-.129 2.98-.093 2.981-.05 2.885-.079 2.98-.086 2.885-.1 2.981-.093 2.981-.093 2.692-.115 2.981-.129 2.885-.079 2.98-.064 2.885-.079 2.981-.079 2.98-.064 2.885-.079 2.981-.064 2.885-.094 2.98-.057 2.982-.114 2.788-.08 2.98-.085 2.886-.065 2.98-.093 2.885-.093 2.98-.05 2.982-.086 2.884-.114 2.981-.08 2.885-.064 2.98-.1 2.981-.143 2.693-.072 2.98-.057 2.885-.079 2.98-.079 2.886-.064 2.98-.029 2.981-.064 2.885-.072 2.98-.071 2.885-.072 2.981-.086" clip-path="url(#pc94e7bdf6c)" style="fill:none;stroke:#17becf;stroke-width:1.5;stroke-linecap:square" id="line2d_35"/><path d="m314.71 298.018 2.981-.086 2.693-.05 2.98-.05 2.885-.086 2.981-.058 2.885-.043 2.98-.057 2.981-.143 2.885-.079 2.98-.129 2.885-.114 2.981-.287 2.981-.35 2.692-.166 2.981-.286 2.885-.265 2.98-.48 2.885-.258 2.981-.207 2.98-.13 2.885-.257 2.981-.165 2.885-.157 2.98-.265 2.982-.222 2.788-.265 2.98-.351 2.886-.373 2.98-.458 2.885-.265 2.98-.2 2.982-.201 2.884-.258 2.981-.15 2.885-.165 2.98-.23 2.981-.243 2.693-.164 2.98-.18 2.885-.236 2.98-.215 2.886-.136 2.98-.15 2.981-.193 2.885-.208 2.98-.165 2.885-.114 2.981-.172" clip-path="url(#pc94e7bdf6c)" style="fill:none;stroke:#bcbd22;stroke-width:1.5;stroke-linecap:square" id="line2d_36"/><path d="m115.573 298.018 2.981-.237h8.846l2.885-.007 2.98-.007h8.847l2.692-.072 2.981-.093 2.885-.028 2.98-.05 2.885-.05 2.981-.065 2.981-.136 2.885-.086 2.98-.072 2.885-.05 2.981-.064 2.98-.036 2.693-.064 2.98-.115 2.886-.072 2.98-.086 2.885-.057 2.98-.1 2.982-.079 2.884-.072 2.981-.171 2.885-.1 2.98-.1 2.981-.137 2.693-.072 2.98-.107 2.885-.1 2.981-.165 2.885-.1 2.98-.115 2.981-.165 2.885-.157 2.98-.18 2.885-.214 2.981-.18 2.981-.15 2.788-.186 2.981-.215 2.885-.2 2.98-.15 2.885-.208 2.981-.244 2.981-.222 2.885-.157 2.98-.208 2.885-.179 2.98-.25 2.982-.316 2.692-.293 2.98-.28 2.886-.308 2.98-.272 2.885-.258 2.98-.222 2.982-.214 2.884-.28 2.981-.458 2.885-.387 2.98-.258 2.981-.372 2.693-.344 2.98-.322 2.885-.208 2.981-.286 2.885-.215 2.98-.25 2.981-.216 2.885-.265 2.98-.186 2.885-.33 2.981-.307 2.981-.287 2.692-.358 2.981-.343 2.885-.487 2.98-.301 2.885-.272 2.981-.28 2.98-.193 2.885-.236 2.981-.208 2.885-.208 2.98-.343 2.982-.265 2.788-.208 2.98-.158 2.886-.2 2.98-.315 2.885-.187 2.98-.243 2.982-.208 2.884-.207 2.981-.265 2.885-.23 2.98-.207 2.981-.15 2.693-.122 2.98-.215 2.885-.165 2.98-.372 2.886-.022 2.98-.036 2.981-.057 2.885-.036 2.98-.057 2.885-.057 2.981-.029" clip-path="url(#pc94e7bdf6c)" style="fill:none;stroke:#7f7f7f;stroke-width:1.5;stroke-linecap:square" id="line2d_37"/><path d="m115.573 298.018 2.981-.136h23.558l2.692-.007 2.981-.036 2.885-.1 2.98-.08 2.885-.064 2.981-.079 2.981-.193 2.885-.136 2.98-.093 2.885-.079 2.981-.079 2.98-.129 2.693-.157 2.98-.136 2.886-.23 2.98-.2 2.885-.136 2.98-.157 2.982-.244 2.884-.165 2.981-.215 2.885-.179 2.98-.15 2.981-.243 2.693-.158 2.98-.25 2.885-.165 2.981-.48 2.885-.15 2.98-.352 2.981-.214 2.885-.208 2.98-.236 2.885-.38 2.981-.193 2.981-.301 2.788-.25 2.981-.266 2.885-.358 2.98-.2 2.885-.287 2.981-.272 2.981-.3 2.885-.316 2.98-.286 2.885-.358 2.98-.301 2.982-.323 2.692-.272 2.98-.35 2.886-.352 2.98-.38 2.885-.321 2.98-.315 2.982-.359 2.884-.293 2.981-.344 2.885-.33 2.98-.307 2.981-.487 2.693-.444 2.98-.401 2.885-.473 2.981-.516 2.885-.279 2.98-.358 2.981-.358 2.885-.265 2.98-.38 2.885-.315 2.981-.394 2.981-.415 2.692-.265 2.981-.315 2.885-.287 2.98-.394 2.885-.315 2.981-.38 2.98-.243 2.885-.157 2.981-.258 2.885-.344 2.98-.215 2.982-.3 2.788-.258 2.98-.437 2.886-.244 2.98-.214 2.885-.23 2.98-.2 2.982-.301 2.884-.165 2.981-.243 2.885-.2 2.98-.194 2.981-.172 2.693-.23 2.98-.379 2.885-.258 2.98-.264 2.886-.108 2.98-.222 2.981-.157 2.885-.194 2.98-.25 2.885-.244 2.981-.186" clip-path="url(#pc94e7bdf6c)" style="fill:none;stroke:#e377c2;stroke-width:1.5;stroke-linecap:square" id="line2d_38"/><path d="m244.421 298.018 2.981-.645 2.788-.487 2.981-.68 2.885-.53 2.98-.415 2.885-.258 2.981-.545 2.981-.343 2.885-.294 2.98-.437 2.885-.501 2.98-.387 2.982-.795 2.692-.709 2.98-.666 2.886-.83 2.98-.731 2.885-.451 2.98-1.024 2.982-1.182 2.884-.423 2.981-.623 2.885-.544 2.98-.444 2.981-.408 2.693-.43 2.98-.637 2.885-.487 2.981-.459 2.885-.465 2.98-.38 2.981-.45 2.885-.352 2.98-.444 2.885-.48 2.981-.408 2.981-.852 2.692-.53 2.981-.544 2.885-.502 2.98-.723 2.885-.687 2.981-.444 2.98-.56 2.885-.321 2.981-.38 2.885-.365 2.98-.401 2.982-.423 2.788-.415 2.98-.394 2.886-.48 2.98-.48 2.885-.372 2.98-.33 2.982-.236 2.884-.458 2.981-.373 2.885-.38 2.98-.278 2.981-.423 2.693-.294 2.98-.343 2.885-.387 2.98-.365 2.886-.251 2.98-.193 2.981-.237 2.885-.272 2.98-.2 2.885-.258 2.981-.294" clip-path="url(#pc94e7bdf6c)" style="fill:none;stroke:#8c564b;stroke-width:1.5;stroke-linecap:square" id="line2d_39"/><path d="m98.073 298.018 2.885-.015H165.382l2.98-.007 2.885-.114 2.981-.036 2.98-.043 2.693-.129 2.98-.129 2.886-.243 2.98-.122 2.885-.143 2.98-.273 2.982-.171 2.884-.251 2.981-.344 2.885-.236 2.98-.38 2.981-.33 2.693-.257 2.98-.716 2.885-.673 2.981-.688 2.885-.938 2.98-.924 2.981-.917 2.885-.78 2.98-.91 2.885-.838 2.981-.666 2.981-.845 2.788-.723 2.981-.91 2.885-.658 2.98-.638 2.885-.752 2.981-.616 2.981-.838 2.885-.701 2.98-.666 2.885-.688 2.98-.723 2.982-.66 2.692-.701 2.98-.874 2.886-.759 2.98-.58 2.885-.63 2.98-.587 2.982-.645 2.884-.709 2.981-.695 2.885-.73 2.98-.659 2.981-.78 2.693-.545 2.98-.716 2.885-.774 2.981-.78 2.885-.888 2.98-.724 2.981-.859 2.885-.738 2.98-.573 2.885-.63 2.981-.623 2.981-.845 2.692-.723 2.981-.946 2.885-.773 2.98-.83 2.885-.552 2.981-.595 2.98-.58 2.885-.437 2.981-.408 2.885-.394 2.98-.508 2.982-.43 2.788-.408 2.98-.559 2.886-.544 2.98-.473 2.885-.458 2.98-.35 2.982-.416 2.884-.337 2.981-.508 2.885-.43 2.98-.372 2.981-.509 2.693-.344 2.98-.422 2.885-.423 2.98-.322 2.886-.265 2.98-.358 2.981-.272 2.885-.33 2.98-.437 2.885-.272 2.981-.365" clip-path="url(#pc94e7bdf6c)" style="fill:none;stroke:#9467bd;stroke-width:1.5;stroke-linecap:square" id="line2d_40"/><path d="m276.633 298.018 2.98-.015 2.982-4.97 2.692-.265 2.98-.207 2.886-.136 2.98-.194 2.885-.25 2.98-.308 2.982-.423 2.884-.394 2.981-.437 2.885-1.683 2.98-.945 2.981-2.106 2.693-1.926 2.98-1.755 2.885-2.635 2.981-2.657 2.885-1.16 2.98-1.59 2.981-1.29 2.885-8.135 2.98-1.583 2.885-1.568 2.981-1.31 2.981-1.54 2.692-1.812 2.981-1.612 2.885-1.532 2.98-1.633 2.885-1.16 2.981-1.404 2.98-2.141 2.885-1.046 2.981-1.575 2.885-1.304 2.98-1.053 2.982-1.375 2.788-1.339 2.98-1.475 2.886-1.518 2.98-1.383 2.885-1.153 2.98-1.21 2.982-1.203 2.884-1.318 2.981-2.284 2.885-1.383 2.98-1.382 2.981-1.976 2.693-1.275 2.98-1.748 2.885-1.84 2.98-2.141 2.886-1.633 2.98-1.612 2.981-1.776 2.885-1.604 2.98-1.554 2.885-2.75 2.981-2.385" clip-path="url(#pc94e7bdf6c)" style="fill:none;stroke:#d62728;stroke-width:1.5;stroke-linecap:square" id="line2d_41"/><path d="m223.844 298.018 2.885-16.357 2.98-1.075 2.981-1.103 2.885-.888 2.98-1.826 2.885-1.561 2.981-1.017 2.981-.895 2.788-1.003 2.981-1.146 2.885-1.045 2.98-1.454 2.885-1.232 2.981-1.088 2.981-1.046 2.885-1.31 2.98-1.476 2.885-1.131 2.98-1.075 2.982-1.274 2.692-1.204 2.98-1.46 2.886-1.318 2.98-1.44 2.885-1.94 2.98-2.214 2.982-2.155 2.884-2.127 2.981-2.679 2.885-2.184 2.98-1.912 2.981-2.17 2.693-1.905 2.98-2.041 2.885-2.149 2.981-2.413 2.885-1.998 2.98-1.834 2.981-1.948 2.885-2.162 2.98-2.12 2.885-2.328 2.981-2.213 2.981-2.284 2.692-1.991 2.981-2.464 2.885-2.757 2.98-2.6 2.885-2.313 2.981-2.392 2.98-1.94 2.885-1.913 2.981-2.256 2.885-2.299 2.98-2.22 2.982-2.141 2.788-2.206 2.98-2.578 2.886-3.352 2.98-3.058 2.885-2.363 2.98-2.184 2.982-1.927 2.884-1.934 2.981-2.134 2.885-2.528 2.98-2.306 2.981-2.22 2.693-1.883 2.98-1.998 2.885-3.338 2.98-2.879 2.886-2.077 2.98-2.22 2.981-2.556 2.885-2.836 2.98-2.049 2.885-1.955 2.981-2.249" clip-path="url(#pc94e7bdf6c)" style="fill:none;stroke:#2ca02c;stroke-width:1.5;stroke-linecap:square" id="line2d_42"/><path d="m294.133 298.018 2.885-.502 2.98-9.439 2.982-.852 2.884-.544 2.981-.458 2.885-.394 2.98-.76 2.981-.544 2.693-.53 2.98-1.045 2.885-.623 2.981-.788 2.885-.716 2.98-.652 2.981-.824 2.885-.88 2.98-.846 2.885-2.427 2.981-7.943 2.981-3.81 2.692-2.8 2.981-3.523 2.885-3.087 2.98-16.035 2.885-5.78 2.981-3.623 2.98-3.166 2.885-2.922 2.981-2.32 2.885-3.087 2.98-2.442 2.982-2.07 2.788-2.578 2.98-2.334 2.886-3.33 2.98-3.066 2.885-3.502 2.98-2.463 2.982-2.22 2.884-1.84 2.981-2.142 2.885-2.313 2.98-2.858 2.981-2.843 2.693-2.37 2.98-2.672 2.885-2.335 2.98-2.363 2.886-2.707 2.98-3.115 2.981-3.28 2.885-2.736 2.98-2.328 2.885-3.745 2.981-52.917" clip-path="url(#pc94e7bdf6c)" style="fill:none;stroke:#ff7f0e;stroke-width:1.5;stroke-linecap:square" id="line2d_43"/><path d="m247.402 298.018 2.788-.015h5.866l2.98-.014 2.885-.007h8.847l2.98-.007 2.885-.007 2.98-.008 2.982-30.279 2.692-3.087 2.98-2.12 2.886-1.976 2.98-1.79 2.885-1.318 2.98-2.249 2.982-2.127 2.884-1.74 2.981-3.058 2.885-2.714 2.98-2.3 2.981-4.425 2.693-3.782 2.98-2.879 2.885-3.595 2.981-2.284 2.885-1.977 2.98-3.266 2.981-2.879 2.885-3.509 2.98-3.072 2.885-3.696 2.981-3.323 2.981-3.165 2.692-2.578 2.981-4.154 2.885-4.827 2.98-4.827 2.885-3.645 2.981-3.23 2.98-4.125 2.885-3.208 2.981-3.402 2.885-3.015 2.98-2.843 2.982-2.9 2.788-5.243 2.98-3.975 2.886-5.142 2.98-5.787 2.885-4.941 2.98-4.49 2.982-5.365 2.884-4.497 2.981-4.806 2.885-7.813 2.98-11.967 2.981-5.378 2.693-3.96 2.98-4.176 2.885-3.846 2.98-13.342 2.886-3.731 2.98-4.59 2.981-4.985 2.885-3.932 2.98-3.882 2.885-4.318 2.981-6.524" clip-path="url(#pc94e7bdf6c)" style="fill:none;stroke:#1f77b4;stroke-width:1.5;stroke-linecap:square" id="line2d_44"/></g></g><defs><clipPath id="pc94e7bdf6c"><path d="M98.073 31.906h357.12v266.112H98.073z"/></clipPath></defs></svg>