<svg xmlns:xlink="http://www.w3.org/1999/xlink" width="893.076" height="449.231" viewBox="0 0 669.807 336.923" xmlns="http://www.w3.org/2000/svg"><defs><style>*{stroke-linejoin:round;stroke-linecap:butt}</style></defs><g id="figure_1"><path d="M0 336.923h669.807V0H0v336.923z" style="fill:none" id="patch_1"/><g id="axes_1"><path d="M98.073 293.396h357.12V27.284H98.073v266.112z" style="fill:none" id="patch_2"/><g id="matplotlib.axis_1"><g id="xtick_1"><g id="line2d_1"><defs><path id="m66e600049b" d="M0 0v3.5" style="stroke:#b0b0b0;stroke-width:.4"/></defs><use xlink:href="#m66e600049b" x="103.89" y="293.396" style="fill:#b0b0b0;stroke:#b0b0b0;stroke-width:.4"/></g><g style="fill:#b0b0b0" transform="matrix(.14 0 0 -.14 86.075 311.034)" id="text_1"><defs><path id="DejaVuSans-32" d="M1228 531h2203V0H469v531q359 372 979 998 621 627 780 809 303 340 423 576 121 236 121 464 0 372-261 606-261 235-680 235-297 0-627-103-329-103-704-313v638q381 153 712 231 332 78 607 78 725 0 1156-363 431-362 431-968 0-288-108-546-107-257-392-607-78-91-497-524-418-433-1181-1211z" transform="scale(.01563)"/><path id="DejaVuSans-30" d="M2034 4250q-487 0-733-480-245-479-245-1442 0-959 245-1439 246-480 733-480 491 0 736 480 246 480 246 1439 0 963-246 1442-245 480-736 480zm0 500q785 0 1199-621 414-620 414-1801 0-1178-414-1799Q2819-91 2034-91q-784 0-1198 620-414 621-414 1799 0 1181 414 1801 414 621 1198 621z" transform="scale(.01563)"/><path id="DejaVuSans-31" d="M794 531h1031v3560L703 3866v575l1116 225h631V531h1031V0H794v531z" transform="scale(.01563)"/></defs><use xlink:href="#DejaVuSans-32"/><use xlink:href="#DejaVuSans-30" x="63.623"/><use xlink:href="#DejaVuSans-31" x="127.246"/><use xlink:href="#DejaVuSans-32" x="190.869"/></g></g><g id="xtick_2"><use xlink:href="#m66e600049b" x="138.791" y="293.396" style="fill:#b0b0b0;stroke:#b0b0b0;stroke-width:.4" id="line2d_2"/><g style="fill:#b0b0b0" transform="matrix(.14 0 0 -.14 120.976 311.034)" id="text_2"><defs><path id="DejaVuSans-33" d="M2597 2516q453-97 707-404 255-306 255-756 0-690-475-1069Q2609-91 1734-91q-293 0-604 58T488 141v609q262-153 574-231 313-78 654-78 593 0 904 234t311 681q0 413-289 645-289 233-804 233h-544v519h569q465 0 712 186t247 536q0 359-255 551-254 193-729 193-260 0-557-57-297-56-653-174v562q360 100 674 150t592 50q719 0 1137-327 419-326 419-882 0-388-222-655t-631-370z" transform="scale(.01563)"/></defs><use xlink:href="#DejaVuSans-32"/><use xlink:href="#DejaVuSans-30" x="63.623"/><use xlink:href="#DejaVuSans-31" x="127.246"/><use xlink:href="#DejaVuSans-33" x="190.869"/></g></g><g id="xtick_3"><use xlink:href="#m66e600049b" x="173.598" y="293.396" style="fill:#b0b0b0;stroke:#b0b0b0;stroke-width:.4" id="line2d_3"/><g style="fill:#b0b0b0" transform="matrix(.14 0 0 -.14 155.783 311.034)" id="text_3"><defs><path id="DejaVuSans-34" d="M2419 4116 825 1625h1594v2491zm-166 550h794V1625h666v-525h-666V0h-628v1100H313v609l1940 2957z" transform="scale(.01563)"/></defs><use xlink:href="#DejaVuSans-32"/><use xlink:href="#DejaVuSans-30" x="63.623"/><use xlink:href="#DejaVuSans-31" x="127.246"/><use xlink:href="#DejaVuSans-34" x="190.869"/></g></g><g id="xtick_4"><use xlink:href="#m66e600049b" x="208.404" y="293.396" style="fill:#b0b0b0;stroke:#b0b0b0;stroke-width:.4" id="line2d_4"/><g style="fill:#b0b0b0" transform="matrix(.14 0 0 -.14 190.589 311.034)" id="text_4"><defs><path id="DejaVuSans-35" d="M691 4666h2478v-532H1269V2991q137 47 274 70 138 23 276 23 781 0 1237-428 457-428 457-1159 0-753-469-1171Q2575-91 1722-91q-294 0-599 50Q819 9 494 109v635q281-153 581-228t634-75q541 0 856 284 316 284 316 772 0 487-316 771-315 285-856 285-253 0-505-56-251-56-513-175v2344z" transform="scale(.01563)"/></defs><use xlink:href="#DejaVuSans-32"/><use xlink:href="#DejaVuSans-30" x="63.623"/><use xlink:href="#DejaVuSans-31" x="127.246"/><use xlink:href="#DejaVuSans-35" x="190.869"/></g></g><g id="xtick_5"><use xlink:href="#m66e600049b" x="243.21" y="293.396" style="fill:#b0b0b0;stroke:#b0b0b0;stroke-width:.4" id="line2d_5"/><g style="fill:#b0b0b0" transform="matrix(.14 0 0 -.14 225.395 311.034)" id="text_5"><defs><path id="DejaVuSans-36" d="M2113 2584q-425 0-674-291-248-290-248-796 0-503 248-796 249-292 674-292t673 292q248 293 248 796 0 506-248 796-248 291-673 291zm1253 1979v-575q-238 112-480 171-242 60-480 60-625 0-955-422-329-422-376-1275 184 272 462 417 279 145 613 145 703 0 1111-427 408-426 408-1160 0-719-425-1154Q2819-91 2113-91q-810 0-1238 620-428 621-428 1799 0 1106 525 1764t1409 658q238 0 480-47t505-140z" transform="scale(.01563)"/></defs><use xlink:href="#DejaVuSans-32"/><use xlink:href="#DejaVuSans-30" x="63.623"/><use xlink:href="#DejaVuSans-31" x="127.246"/><use xlink:href="#DejaVuSans-36" x="190.869"/></g></g><g id="xtick_6"><use xlink:href="#m66e600049b" x="278.111" y="293.396" style="fill:#b0b0b0;stroke:#b0b0b0;stroke-width:.4" id="line2d_6"/><g style="fill:#b0b0b0" transform="matrix(.14 0 0 -.14 260.296 311.034)" id="text_6"><defs><path id="DejaVuSans-37" d="M525 4666h3000v-269L1831 0h-659l1594 4134H525v532z" transform="scale(.01563)"/></defs><use xlink:href="#DejaVuSans-32"/><use xlink:href="#DejaVuSans-30" x="63.623"/><use xlink:href="#DejaVuSans-31" x="127.246"/><use xlink:href="#DejaVuSans-37" x="190.869"/></g></g><g id="xtick_7"><use xlink:href="#m66e600049b" x="312.917" y="293.396" style="fill:#b0b0b0;stroke:#b0b0b0;stroke-width:.4" id="line2d_7"/><g style="fill:#b0b0b0" transform="matrix(.14 0 0 -.14 295.102 311.034)" id="text_7"><defs><path id="DejaVuSans-38" d="M2034 2216q-450 0-708-241-257-241-257-662 0-422 257-663 258-241 708-241t709 242q260 243 260 662 0 421-258 662-257 241-711 241zm-631 268q-406 100-633 378-226 279-226 679 0 559 398 884 399 325 1092 325 697 0 1094-325t397-884q0-400-227-679-226-278-629-378 456-106 710-416 255-309 255-755 0-679-414-1042Q2806-91 2034-91q-771 0-1186 362-414 363-414 1042 0 446 256 755 257 310 713 416zm-231 997q0-362 226-565 227-203 636-203 407 0 636 203 230 203 230 565 0 363-230 566-229 203-636 203-409 0-636-203-226-203-226-566z" transform="scale(.01563)"/></defs><use xlink:href="#DejaVuSans-32"/><use xlink:href="#DejaVuSans-30" x="63.623"/><use xlink:href="#DejaVuSans-31" x="127.246"/><use xlink:href="#DejaVuSans-38" x="190.869"/></g></g><g id="xtick_8"><use xlink:href="#m66e600049b" x="347.723" y="293.396" style="fill:#b0b0b0;stroke:#b0b0b0;stroke-width:.4" id="line2d_8"/><g style="fill:#b0b0b0" transform="matrix(.14 0 0 -.14 329.908 311.034)" id="text_8"><defs><path id="DejaVuSans-39" d="M703 97v575q238-113 481-172 244-59 479-59 625 0 954 420 330 420 377 1277-181-269-460-413-278-144-615-144-700 0-1108 423-408 424-408 1159 0 718 425 1152 425 435 1131 435 810 0 1236-621 427-620 427-1801 0-1103-524-1761Q2575-91 1691-91q-238 0-482 47Q966 3 703 97zm1256 1978q425 0 673 290 249 291 249 798 0 503-249 795-248 292-673 292t-673-292q-248-292-248-795 0-507 248-798 248-290 673-290z" transform="scale(.01563)"/></defs><use xlink:href="#DejaVuSans-32"/><use xlink:href="#DejaVuSans-30" x="63.623"/><use xlink:href="#DejaVuSans-31" x="127.246"/><use xlink:href="#DejaVuSans-39" x="190.869"/></g></g><g id="xtick_9"><use xlink:href="#m66e600049b" x="382.529" y="293.396" style="fill:#b0b0b0;stroke:#b0b0b0;stroke-width:.4" id="line2d_9"/><g style="fill:#b0b0b0" transform="matrix(.14 0 0 -.14 364.714 311.034)" id="text_9"><use xlink:href="#DejaVuSans-32"/><use xlink:href="#DejaVuSans-30" x="63.623"/><use xlink:href="#DejaVuSans-32" x="127.246"/><use xlink:href="#DejaVuSans-30" x="190.869"/></g></g><g id="xtick_10"><use xlink:href="#m66e600049b" x="417.431" y="293.396" style="fill:#b0b0b0;stroke:#b0b0b0;stroke-width:.4" id="line2d_10"/><g style="fill:#b0b0b0" transform="matrix(.14 0 0 -.14 399.616 311.034)" id="text_10"><use xlink:href="#DejaVuSans-32"/><use xlink:href="#DejaVuSans-30" x="63.623"/><use xlink:href="#DejaVuSans-32" x="127.246"/><use xlink:href="#DejaVuSans-31" x="190.869"/></g></g><g id="xtick_11"><use xlink:href="#m66e600049b" x="452.237" y="293.396" style="fill:#b0b0b0;stroke:#b0b0b0;stroke-width:.4" id="line2d_11"/><g style="fill:#b0b0b0" transform="matrix(.14 0 0 -.14 434.422 311.034)" id="text_11"><use xlink:href="#DejaVuSans-32"/><use xlink:href="#DejaVuSans-30" x="63.623"/><use xlink:href="#DejaVuSans-32" x="127.246"/><use xlink:href="#DejaVuSans-32" x="190.869"/></g></g></g><g id="matplotlib.axis_2"><g id="ytick_1"><path d="M98.073 293.396h357.12" clip-path="url(#p4a8a0f26c2)" style="fill:none;stroke:#b0b0b0;stroke-width:.3;stroke-linecap:square" id="line2d_12"/><g id="line2d_13"><defs><path id="md264ce0459" d="M0 0h-3.5" style="stroke:#b0b0b0;stroke-width:.3"/></defs><use xlink:href="#md264ce0459" x="98.073" y="293.396" style="fill:#b0b0b0;stroke:#b0b0b0;stroke-width:.3"/></g><use xlink:href="#DejaVuSans-30" style="fill:#b0b0b0" transform="matrix(.14 0 0 -.14 82.166 298.715)" id="text_12"/></g><g id="ytick_2"><path d="M98.073 258.248h357.12" clip-path="url(#p4a8a0f26c2)" style="fill:none;stroke:#b0b0b0;stroke-width:.3;stroke-linecap:square" id="line2d_14"/><use xlink:href="#md264ce0459" x="98.073" y="258.248" style="fill:#b0b0b0;stroke:#b0b0b0;stroke-width:.3" id="line2d_15"/><g style="fill:#b0b0b0" transform="matrix(.14 0 0 -.14 55.443 263.567)" id="text_13"><use xlink:href="#DejaVuSans-35"/><use xlink:href="#DejaVuSans-30" x="63.623"/><use xlink:href="#DejaVuSans-30" x="127.246"/><use xlink:href="#DejaVuSans-30" x="190.869"/></g></g><g id="ytick_3"><path d="M98.073 223.1h357.12" clip-path="url(#p4a8a0f26c2)" style="fill:none;stroke:#b0b0b0;stroke-width:.3;stroke-linecap:square" id="line2d_16"/><use xlink:href="#md264ce0459" x="98.073" y="223.1" style="fill:#b0b0b0;stroke:#b0b0b0;stroke-width:.3" id="line2d_17"/><g style="fill:#b0b0b0" transform="matrix(.14 0 0 -.14 46.536 228.42)" id="text_14"><use xlink:href="#DejaVuSans-31"/><use xlink:href="#DejaVuSans-30" x="63.623"/><use xlink:href="#DejaVuSans-30" x="127.246"/><use xlink:href="#DejaVuSans-30" x="190.869"/><use xlink:href="#DejaVuSans-30" x="254.492"/></g></g><g id="ytick_4"><path d="M98.073 187.952h357.12" clip-path="url(#p4a8a0f26c2)" style="fill:none;stroke:#b0b0b0;stroke-width:.3;stroke-linecap:square" id="line2d_18"/><use xlink:href="#md264ce0459" x="98.073" y="187.952" style="fill:#b0b0b0;stroke:#b0b0b0;stroke-width:.3" id="line2d_19"/><g style="fill:#b0b0b0" transform="matrix(.14 0 0 -.14 46.536 193.271)" id="text_15"><use xlink:href="#DejaVuSans-31"/><use xlink:href="#DejaVuSans-35" x="63.623"/><use xlink:href="#DejaVuSans-30" x="127.246"/><use xlink:href="#DejaVuSans-30" x="190.869"/><use xlink:href="#DejaVuSans-30" x="254.492"/></g></g><g id="ytick_5"><path d="M98.073 152.804h357.12" clip-path="url(#p4a8a0f26c2)" style="fill:none;stroke:#b0b0b0;stroke-width:.3;stroke-linecap:square" id="line2d_20"/><use xlink:href="#md264ce0459" x="98.073" y="152.804" style="fill:#b0b0b0;stroke:#b0b0b0;stroke-width:.3" id="line2d_21"/><g style="fill:#b0b0b0" transform="matrix(.14 0 0 -.14 46.536 158.123)" id="text_16"><use xlink:href="#DejaVuSans-32"/><use xlink:href="#DejaVuSans-30" x="63.623"/><use xlink:href="#DejaVuSans-30" x="127.246"/><use xlink:href="#DejaVuSans-30" x="190.869"/><use xlink:href="#DejaVuSans-30" x="254.492"/></g></g><g id="ytick_6"><path d="M98.073 117.656h357.12" clip-path="url(#p4a8a0f26c2)" style="fill:none;stroke:#b0b0b0;stroke-width:.3;stroke-linecap:square" id="line2d_22"/><use xlink:href="#md264ce0459" x="98.073" y="117.656" style="fill:#b0b0b0;stroke:#b0b0b0;stroke-width:.3" id="line2d_23"/><g style="fill:#b0b0b0" transform="matrix(.14 0 0 -.14 46.536 122.975)" id="text_17"><use xlink:href="#DejaVuSans-32"/><use xlink:href="#DejaVuSans-35" x="63.623"/><use xlink:href="#DejaVuSans-30" x="127.246"/><use xlink:href="#DejaVuSans-30" x="190.869"/><use xlink:href="#DejaVuSans-30" x="254.492"/></g></g><g id="ytick_7"><path d="M98.073 82.509h357.12" clip-path="url(#p4a8a0f26c2)" style="fill:none;stroke:#b0b0b0;stroke-width:.3;stroke-linecap:square" id="line2d_24"/><use xlink:href="#md264ce0459" x="98.073" y="82.509" style="fill:#b0b0b0;stroke:#b0b0b0;stroke-width:.3" id="line2d_25"/><g style="fill:#b0b0b0" transform="matrix(.14 0 0 -.14 46.536 87.827)" id="text_18"><use xlink:href="#DejaVuSans-33"/><use xlink:href="#DejaVuSans-30" x="63.623"/><use xlink:href="#DejaVuSans-30" x="127.246"/><use xlink:href="#DejaVuSans-30" x="190.869"/><use xlink:href="#DejaVuSans-30" x="254.492"/></g></g><g id="ytick_8"><path d="M98.073 47.36h357.12" clip-path="url(#p4a8a0f26c2)" style="fill:none;stroke:#b0b0b0;stroke-width:.3;stroke-linecap:square" id="line2d_26"/><use xlink:href="#md264ce0459" x="98.073" y="47.361" style="fill:#b0b0b0;stroke:#b0b0b0;stroke-width:.3" id="line2d_27"/><g style="fill:#b0b0b0" transform="matrix(.14 0 0 -.14 46.536 52.68)" id="text_19"><use xlink:href="#DejaVuSans-33"/><use xlink:href="#DejaVuSans-35" x="63.623"/><use xlink:href="#DejaVuSans-30" x="127.246"/><use xlink:href="#DejaVuSans-30" x="190.869"/><use xlink:href="#DejaVuSans-30" x="254.492"/></g></g><g style="fill:#b0b0b0" transform="matrix(.14 0 0 -.14 7.2 17.838)" id="text_20"><defs><path id="DejaVuSans-47" d="M3809 666v1253H2778v519h1656V434q-365-259-806-392-440-133-940-133-1094 0-1712 639-617 640-617 1780 0 1144 617 1783 618 639 1712 639 456 0 867-113 411-112 758-331v-672q-350 297-744 447t-828 150q-857 0-1287-478-429-478-429-1425 0-944 429-1422 430-478 1287-478 334 0 596 58 263 58 472 180z" transform="scale(.01563)"/><path id="DejaVuSans-69" d="M603 3500h575V0H603v3500zm0 1363h575v-729H603v729z" transform="scale(.01563)"/><path id="DejaVuSans-74" d="M1172 4494v-994h1184v-447H1172V1153q0-428 117-550t477-122h590V0h-590q-666 0-919 248-253 249-253 905v1900H172v447h422v994h578z" transform="scale(.01563)"/><path id="DejaVuSans-48" d="M628 4666h631V2753h2294v1913h631V0h-631v2222H1259V0H628v4666z" transform="scale(.01563)"/><path id="DejaVuSans-75" d="M544 1381v2119h575V1403q0-497 193-746 194-248 582-248 465 0 735 297 271 297 271 810v1984h575V0h-575v538q-209-319-486-474-276-155-642-155-603 0-916 375-312 375-312 1097zm1447 2203z" transform="scale(.01563)"/><path id="DejaVuSans-62" d="M3116 1747q0 634-261 995t-717 361q-457 0-718-361t-261-995q0-634 261-995t718-361q456 0 717 361t261 995zM1159 2969q182 312 458 463 277 152 661 152 638 0 1036-506 399-506 399-1331T3314 415Q2916-91 2278-91q-384 0-661 152-276 152-458 464V0H581v4863h578V2969z" transform="scale(.01563)"/><path id="DejaVuSans-73" d="M2834 3397v-544q-243 125-506 187-262 63-544 63-428 0-642-131t-214-394q0-200 153-314t616-217l197-44q612-131 870-370t258-667q0-488-386-773Q2250-91 1575-91q-281 0-586 55T347 128v594q319-166 628-249 309-82 613-82 406 0 624 139 219 139 219 392 0 234-158 359-157 125-692 241l-200 47q-534 112-772 345-237 233-237 639 0 494 350 762 350 269 994 269 318 0 599-47 282-46 519-140z" transform="scale(.01563)"/><path id="DejaVuSans-61" d="M2194 1759q-697 0-966-159t-269-544q0-306 202-486 202-179 548-179 479 0 768 339t289 901v128h-572zm1147 238V0h-575v531q-197-318-491-470T1556-91q-537 0-855 302-317 302-317 808 0 590 395 890 396 300 1180 300h807v57q0 397-261 614t-733 217q-300 0-585-72-284-72-546-216v532q315 122 612 182 297 61 578 61 760 0 1135-394 375-393 375-1193z" transform="scale(.01563)"/><path id="DejaVuSans-72" d="M2631 2963q-97 56-211 82-114 27-251 27-488 0-749-317t-261-911V0H581v3500h578v-544q182 319 472 473 291 155 707 155 59 0 131-8 72-7 159-23l3-590z" transform="scale(.01563)"/></defs><use xlink:href="#DejaVuSans-47"/><use xlink:href="#DejaVuSans-69" x="77.49"/><use xlink:href="#DejaVuSans-74" x="105.273"/><use xlink:href="#DejaVuSans-48" x="144.482"/><use xlink:href="#DejaVuSans-75" x="219.678"/><use xlink:href="#DejaVuSans-62" x="283.057"/><use xlink:href="#DejaVuSans-20" x="346.533"/><use xlink:href="#DejaVuSans-73" x="378.32"/><use xlink:href="#DejaVuSans-74" x="430.42"/><use xlink:href="#DejaVuSans-61" x="469.629"/><use xlink:href="#DejaVuSans-72" x="530.908"/><use xlink:href="#DejaVuSans-73" x="572.021"/></g></g><path d="m109.612 293.396 2.956-.035h29.18l2.67-.014h2.956l2.86-.014h5.817l2.957-.007 2.956-.021 2.86-.014 2.957-.014 2.86-.036 2.957-.049 2.956-.014 2.67-.02 2.956-.029 2.86-.035 2.957-.021 2.86-.035 2.957-.014 2.956-.029 2.86-.042 2.957-.07 2.86-.021 2.957-.021 2.956-.05 2.67-.084 2.956-.154 2.86-.057 2.957-.035 2.86-.077 2.957-.05 2.956-.02 2.86-.07 2.957-.057 2.86-.127 2.957-.049 2.956-.042 2.765-.091 2.956-.028 2.861-.113 2.956-.126 2.861-.078 2.956-.112 2.956-.042 2.861-.07 2.956-.064 2.861-.028 2.956-.077 2.956-.064 2.67-.042 2.957-.098 2.86-.099 2.956-.063 2.861-.056 2.956-.056 2.956-.155 2.861-.077 2.956-.134 2.861-.253 2.956-.105 2.956-.176 2.67-.127 2.957-.084 2.86-.077 2.957-.204 2.86-.127 2.956-.091 2.957-.05 2.86-.077 2.956-.084 2.861-.099 2.956-.09 2.957-.092 2.67-.113 2.956-.126 2.86-.078 2.957-.063 2.86-.077 2.957-.078 2.956-.063 2.86-.077 2.957-.063 2.86-.092 2.956-.056 2.957-.112 2.765-.078 2.956-.084 2.86-.063 2.957-.092 2.86-.091 2.957-.05 2.956-.084 2.86-.112 2.957-.078 2.86-.063 2.957-.098 2.956-.14 2.67-.071 2.956-.056 2.861-.078 2.956-.077 2.86-.063 2.957-.028 2.956-.064 2.861-.07 2.956-.07 2.86-.07 2.957-.085 2.956-.028" clip-path="url(#p4a8a0f26c2)" style="fill:none;stroke:#c5b0d5;stroke-width:1.5;stroke-linecap:square" id="line2d_28"/><path d="m312.917 293.396 2.956-.084 2.67-.05 2.957-.049 2.86-.084 2.957-.056 2.86-.042 2.956-.057 2.957-.14 2.86-.078 2.956-.126 2.861-.113 2.956-.28 2.957-.345 2.67-.162 2.956-.281 2.86-.26 2.957-.471 2.86-.253 2.957-.204 2.956-.127 2.86-.253 2.957-.161 2.86-.155 2.956-.26 2.957-.218 2.765-.26 2.956-.345 2.86-.365 2.957-.45 2.86-.26 2.957-.197 2.956-.197 2.86-.253 2.957-.147 2.86-.162 2.957-.225 2.956-.24 2.67-.16 2.956-.177 2.861-.232 2.956-.21 2.86-.134 2.957-.148 2.956-.19 2.861-.203 2.956-.162 2.86-.112 2.957-.17 2.956-.154" clip-path="url(#p4a8a0f26c2)" style="fill:none;stroke:#ff9896;stroke-width:1.5;stroke-linecap:square" id="line2d_29"/><path d="m338.95 293.396 2.956-1.596 2.861-7.753 2.956-2.081 2.957-.752 2.67-.338 2.956-.232 2.86-.14 2.957-.169 2.86-.084 2.957-.127 2.956-.133 2.86-.043 2.957-.09 2.86-.057 2.956-.127 2.957-.126 2.765-.12 2.956-.077 2.86-.155 2.957-.12 2.86-.098 2.957-.077 2.956-.112 2.86-.057 2.957-.07 2.86-.295 2.957-.085 2.956-.105 2.67-.098 2.956-.057 2.861-.12 2.956-.273 2.86-.12 2.957-.098 2.956-2.116 2.861-.295 2.956-.078 2.86-.154 2.957-.134 2.956-.056" clip-path="url(#p4a8a0f26c2)" style="fill:none;stroke:#98df8a;stroke-width:1.5;stroke-linecap:square" id="line2d_30"/><g style="fill:#1f77b4" transform="matrix(.14 0 0 -.14 465.907 24.404)" id="text_21"><defs><path id="DejaVuSans-6c" d="M603 4863h575V0H603v4863z" transform="scale(.01563)"/><path id="DejaVuSans-63" d="M3122 3366v-538q-244 135-489 202t-495 67q-560 0-870-355-309-354-309-995t309-996q310-354 870-354 250 0 495 67t489 202V134Q2881 22 2623-34q-257-57-548-57-791 0-1257 497-465 497-465 1341 0 856 470 1346 471 491 1290 491 265 0 518-55 253-54 491-163z" transform="scale(.01563)"/><path id="DejaVuSans-79" d="M2059-325q-243-625-475-815-231-191-618-191H506v481h338q237 0 368 113 132 112 291 531l103 262L191 3500h609L1894 763l1094 2737h609L2059-325z" transform="scale(.01563)"/><path id="DejaVuSans-2f" d="M1625 4666h531L531-594H0l1625 5260z" transform="scale(.01563)"/></defs><use xlink:href="#DejaVuSans-61"/><use xlink:href="#DejaVuSans-6c" x="61.279"/><use xlink:href="#DejaVuSans-61" x="89.063"/><use xlink:href="#DejaVuSans-63" x="150.342"/><use xlink:href="#DejaVuSans-72" x="205.322"/><use xlink:href="#DejaVuSans-69" x="246.436"/><use xlink:href="#DejaVuSans-74" x="274.219"/><use xlink:href="#DejaVuSans-74" x="313.428"/><use xlink:href="#DejaVuSans-79" x="352.637"/><use xlink:href="#DejaVuSans-2f" x="411.816"/><use xlink:href="#DejaVuSans-61" x="445.508"/><use xlink:href="#DejaVuSans-6c" x="506.787"/><use xlink:href="#DejaVuSans-61" x="534.57"/><use xlink:href="#DejaVuSans-63" x="595.85"/><use xlink:href="#DejaVuSans-72" x="650.83"/><use xlink:href="#DejaVuSans-69" x="691.943"/><use xlink:href="#DejaVuSans-74" x="719.727"/><use xlink:href="#DejaVuSans-74" x="758.936"/><use xlink:href="#DejaVuSans-79" x="798.145"/></g><g style="fill:#ff7f0e" transform="matrix(.14 0 0 -.14 465.907 38.404)" id="text_22"><defs><path id="DejaVuSans-76" d="M191 3500h609L1894 563l1094 2937h609L2284 0h-781L191 3500z" transform="scale(.01563)"/><path id="DejaVuSans-65" d="M3597 1894v-281H953q38-594 358-905t892-311q331 0 642 81t618 244V178Q3153 47 2828-22t-659-69q-838 0-1327 487-489 488-489 1320 0 859 464 1363 464 505 1252 505 706 0 1117-455 411-454 411-1235zm-575 169q-6 471-264 752-258 282-683 282-481 0-770-272t-333-766l2050 4z" transform="scale(.01563)"/><path id="DejaVuSans-68" d="M3513 2113V0h-575v2094q0 497-194 743-194 247-581 247-466 0-735-297-269-296-269-809V0H581v4863h578V2956q207 316 486 472 280 156 646 156 603 0 912-373 310-373 310-1098z" transform="scale(.01563)"/><path id="DejaVuSans-70" d="M1159 525v-1856H581v4831h578v-531q182 312 458 463 277 152 661 152 638 0 1036-506 399-506 399-1331T3314 415Q2916-91 2278-91q-384 0-661 152-276 152-458 464zm1957 1222q0 634-261 995t-717 361q-457 0-718-361t-261-995q0-634 261-995t718-361q456 0 717 361t261 995z" transform="scale(.01563)"/></defs><use xlink:href="#DejaVuSans-76"/><use xlink:href="#DejaVuSans-65" x="59.18"/><use xlink:href="#DejaVuSans-72" x="120.703"/><use xlink:href="#DejaVuSans-63" x="159.566"/><use xlink:href="#DejaVuSans-65" x="214.547"/><use xlink:href="#DejaVuSans-6c" x="276.07"/><use xlink:href="#DejaVuSans-2f" x="303.854"/><use xlink:href="#DejaVuSans-68" x="337.545"/><use xlink:href="#DejaVuSans-79" x="400.924"/><use xlink:href="#DejaVuSans-70" x="460.104"/><use xlink:href="#DejaVuSans-65" x="523.58"/><use xlink:href="#DejaVuSans-72" x="585.104"/></g><g style="fill:#2ca02c" transform="matrix(.14 0 0 -.14 465.907 89.633)" id="text_23"><defs><path id="DejaVuSans-45" d="M628 4666h2950v-532H1259V2753h2222v-531H1259V531h2375V0H628v4666z" transform="scale(.01563)"/><path id="DejaVuSans-67" d="M2906 1791q0 625-258 968-257 344-723 344-462 0-720-344-258-343-258-968 0-622 258-966t720-344q466 0 723 344 258 344 258 966zm575-1357q0-893-397-1329-396-436-1215-436-303 0-572 45t-522 139v559q253-137 500-202 247-66 503-66 566 0 847 295t281 892v285q-178-310-456-463T1784 0Q1141 0 747 490 353 981 353 1791q0 812 394 1302 394 491 1037 491 388 0 666-153t456-462v531h575V434z" transform="scale(.01563)"/><path id="DejaVuSans-6e" d="M3513 2113V0h-575v2094q0 497-194 743-194 247-581 247-466 0-735-297-269-296-269-809V0H581v3500h578v-544q207 316 486 472 280 156 646 156 603 0 912-373 310-373 310-1098z" transform="scale(.01563)"/></defs><use xlink:href="#DejaVuSans-45"/><use xlink:href="#DejaVuSans-75" x="63.184"/><use xlink:href="#DejaVuSans-67" x="126.563"/><use xlink:href="#DejaVuSans-65" x="190.039"/><use xlink:href="#DejaVuSans-6e" x="251.563"/><use xlink:href="#DejaVuSans-79" x="314.941"/><use xlink:href="#DejaVuSans-2f" x="374.121"/><use xlink:href="#DejaVuSans-74" x="407.813"/><use xlink:href="#DejaVuSans-61" x="447.021"/><use xlink:href="#DejaVuSans-62" x="508.301"/><use xlink:href="#DejaVuSans-62" x="571.777"/><use xlink:href="#DejaVuSans-79" x="635.254"/></g><g style="fill:#d62728" transform="matrix(.14 0 0 -.14 465.907 129.252)" id="text_24"><defs><path id="DejaVuSans-6d" d="M3328 2828q216 388 516 572t706 184q547 0 844-383 297-382 297-1088V0h-578v2094q0 503-179 746-178 244-543 244-447 0-707-297-259-296-259-809V0h-578v2094q0 506-178 748t-550 242q-441 0-701-298-259-298-259-808V0H581v3500h578v-544q197 322 472 475t653 153q382 0 649-194 267-193 395-562z" transform="scale(.01563)"/><path id="DejaVuSans-78" d="M3513 3500 2247 1797 3578 0h-678L1881 1375 863 0H184l1360 1831L300 3500h678l928-1247 928 1247h679z" transform="scale(.01563)"/></defs><use xlink:href="#DejaVuSans-74"/><use xlink:href="#DejaVuSans-6d" x="39.209"/><use xlink:href="#DejaVuSans-75" x="136.621"/><use xlink:href="#DejaVuSans-78" x="200"/><use xlink:href="#DejaVuSans-2f" x="259.18"/><use xlink:href="#DejaVuSans-74" x="292.871"/><use xlink:href="#DejaVuSans-6d" x="332.08"/><use xlink:href="#DejaVuSans-75" x="429.492"/><use xlink:href="#DejaVuSans-78" x="492.871"/></g><g style="fill:#9467bd" transform="matrix(.14 0 0 -.14 465.907 160.611)" id="text_25"><defs><path id="DejaVuSans-77" d="M269 3500h575l719-2731 715 2731h678l719-2731 716 2731h575L4050 0h-678l-753 2869L1863 0h-679L269 3500z" transform="scale(.01563)"/></defs><use xlink:href="#DejaVuSans-72"/><use xlink:href="#DejaVuSans-61" x="41.113"/><use xlink:href="#DejaVuSans-69" x="102.393"/><use xlink:href="#DejaVuSans-6c" x="130.176"/><use xlink:href="#DejaVuSans-73" x="157.959"/><use xlink:href="#DejaVuSans-77" x="210.059"/><use xlink:href="#DejaVuSans-61" x="291.846"/><use xlink:href="#DejaVuSans-72" x="353.125"/><use xlink:href="#DejaVuSans-65" x="391.988"/><use xlink:href="#DejaVuSans-2f" x="453.512"/><use xlink:href="#DejaVuSans-75" x="487.203"/><use xlink:href="#DejaVuSans-70" x="550.582"/><use xlink:href="#DejaVuSans-74" x="614.059"/><use xlink:href="#DejaVuSans-65" x="653.268"/><use xlink:href="#DejaVuSans-72" x="714.791"/><use xlink:href="#DejaVuSans-6d" x="754.154"/></g><g style="fill:#8c564b" transform="matrix(.14 0 0 -.14 465.907 186.389)" id="text_26"><defs><path id="DejaVuSans-53" d="M3425 4513v-616q-359 172-678 256-319 85-616 85-515 0-795-200t-280-569q0-310 186-468 186-157 705-254l381-78q706-135 1042-474t336-907q0-679-455-1029Q2797-91 1919-91q-331 0-705 75-373 75-773 222v650q384-215 753-325 369-109 725-109 540 0 834 212 294 213 294 607 0 343-211 537t-692 291l-385 75q-706 140-1022 440-315 300-315 835 0 619 436 975t1201 356q329 0 669-60 341-59 697-177z" transform="scale(.01563)"/><path id="DejaVuSans-6f" d="M1959 3097q-462 0-731-361t-269-989q0-628 267-989 268-361 733-361 460 0 728 362 269 363 269 988 0 622-269 986-268 364-728 364zm0 487q750 0 1178-488 429-487 429-1349 0-859-429-1349Q2709-91 1959-91q-753 0-1180 489-426 490-426 1349 0 862 426 1349 427 488 1180 488z" transform="scale(.01563)"/><path id="DejaVuSans-64" d="M2906 2969v1894h575V0h-575v525q-181-312-458-464-276-152-664-152-634 0-1033 506-398 507-398 1332t398 1331q399 506 1033 506 388 0 664-152 277-151 458-463zM947 1747q0-634 261-995t717-361q456 0 718 361 263 361 263 995t-263 995q-262 361-718 361t-717-361q-261-361-261-995z" transform="scale(.01563)"/><path id="DejaVuSans-66" d="M2375 4863v-479h-550q-309 0-430-125-120-125-120-450v-309h947v-447h-947V0H697v3053H147v447h550v244q0 584 272 851 272 268 862 268h544z" transform="scale(.01563)"/><path id="DejaVuSans-2d" d="M313 2009h1684v-512H313v512z" transform="scale(.01563)"/></defs><use xlink:href="#DejaVuSans-53"/><use xlink:href="#DejaVuSans-77" x="63.477"/><use xlink:href="#DejaVuSans-6f" x="145.264"/><use xlink:href="#DejaVuSans-72" x="206.445"/><use xlink:href="#DejaVuSans-64" x="245.809"/><use xlink:href="#DejaVuSans-66" x="309.285"/><use xlink:href="#DejaVuSans-69" x="344.49"/><use xlink:href="#DejaVuSans-73" x="372.273"/><use xlink:href="#DejaVuSans-68" x="424.373"/><use xlink:href="#DejaVuSans-39" x="487.752"/><use xlink:href="#DejaVuSans-30" x="551.375"/><use xlink:href="#DejaVuSans-2f" x="614.998"/><use xlink:href="#DejaVuSans-63" x="648.689"/><use xlink:href="#DejaVuSans-6f" x="703.67"/><use xlink:href="#DejaVuSans-6f" x="764.852"/><use xlink:href="#DejaVuSans-6c" x="826.033"/><use xlink:href="#DejaVuSans-2d" x="853.816"/><use xlink:href="#DejaVuSans-72" x="889.9"/><use xlink:href="#DejaVuSans-65" x="928.764"/><use xlink:href="#DejaVuSans-74" x="990.287"/><use xlink:href="#DejaVuSans-72" x="1029.496"/><use xlink:href="#DejaVuSans-6f" x="1068.359"/><use xlink:href="#DejaVuSans-2d" x="1131.416"/><use xlink:href="#DejaVuSans-74" x="1167.5"/><use xlink:href="#DejaVuSans-65" x="1206.709"/><use xlink:href="#DejaVuSans-72" x="1268.232"/><use xlink:href="#DejaVuSans-6d" x="1307.596"/></g><g style="fill:#e377c2" transform="matrix(.14 0 0 -.14 465.907 201.073)" id="text_27"><defs><path id="DejaVuSans-6b" d="M581 4863h578V1991l1716 1509h734L1753 1863 3688 0h-750L1159 1709V0H581v4863z" transform="scale(.01563)"/></defs><use xlink:href="#DejaVuSans-6b"/><use xlink:href="#DejaVuSans-6f" x="54.285"/><use xlink:href="#DejaVuSans-76" x="115.467"/><use xlink:href="#DejaVuSans-69" x="174.646"/><use xlink:href="#DejaVuSans-64" x="202.43"/><use xlink:href="#DejaVuSans-67" x="265.906"/><use xlink:href="#DejaVuSans-6f" x="329.383"/><use xlink:href="#DejaVuSans-79" x="390.564"/><use xlink:href="#DejaVuSans-61" x="449.744"/><use xlink:href="#DejaVuSans-6c" x="511.023"/><use xlink:href="#DejaVuSans-2f" x="538.807"/><use xlink:href="#DejaVuSans-6b" x="572.498"/><use xlink:href="#DejaVuSans-69" x="630.408"/><use xlink:href="#DejaVuSans-74" x="658.191"/><use xlink:href="#DejaVuSans-74" x="697.4"/><use xlink:href="#DejaVuSans-79" x="736.609"/></g><g style="fill:#7f7f7f" transform="matrix(.14 0 0 -.14 465.907 224.173)" id="text_28"><defs><path id="DejaVuSans-4d" d="M628 4666h941l1190-3175 1197 3175h941V0h-616v4097L3078 897h-634L1241 4097V0H628v4666z" transform="scale(.01563)"/><path id="DejaVuSans-43" d="M4122 4306v-665q-319 297-680 443-361 147-767 147-800 0-1225-489t-425-1414q0-922 425-1411t1225-489q406 0 767 147t680 444V359q-331-225-702-338-370-112-782-112-1060 0-1670 648-609 649-609 1771 0 1125 609 1773 610 649 1670 649 418 0 788-111 371-111 696-333z" transform="scale(.01563)"/></defs><use xlink:href="#DejaVuSans-4d"/><use xlink:href="#DejaVuSans-61" x="86.279"/><use xlink:href="#DejaVuSans-78" x="147.559"/><use xlink:href="#DejaVuSans-69" x="206.738"/><use xlink:href="#DejaVuSans-6d" x="234.521"/><use xlink:href="#DejaVuSans-75" x="331.934"/><use xlink:href="#DejaVuSans-73" x="395.313"/><use xlink:href="#DejaVuSans-35" x="447.412"/><use xlink:href="#DejaVuSans-2f" x="511.035"/><use xlink:href="#DejaVuSans-43" x="544.727"/><use xlink:href="#DejaVuSans-6f" x="614.551"/><use xlink:href="#DejaVuSans-6e" x="675.732"/><use xlink:href="#DejaVuSans-45" x="739.111"/><use xlink:href="#DejaVuSans-6d" x="802.295"/><use xlink:href="#DejaVuSans-75" x="899.707"/></g><g style="fill:#bcbd22" transform="matrix(.14 0 0 -.14 465.907 238.173)" id="text_29"><use xlink:href="#DejaVuSans-67"/><use xlink:href="#DejaVuSans-6e" x="63.477"/><use xlink:href="#DejaVuSans-75" x="126.855"/><use xlink:href="#DejaVuSans-6e" x="190.234"/><use xlink:href="#DejaVuSans-6e" x="253.613"/><use xlink:href="#DejaVuSans-31" x="316.992"/><use xlink:href="#DejaVuSans-2f" x="380.615"/><use xlink:href="#DejaVuSans-74" x="414.307"/><use xlink:href="#DejaVuSans-69" x="453.516"/><use xlink:href="#DejaVuSans-6c" x="481.299"/><use xlink:href="#DejaVuSans-69" x="509.082"/><use xlink:href="#DejaVuSans-78" x="536.865"/></g><g style="fill:#17becf" transform="matrix(.14 0 0 -.14 465.907 252.173)" id="text_30"><use xlink:href="#DejaVuSans-47"/><use xlink:href="#DejaVuSans-75" x="77.49"/><use xlink:href="#DejaVuSans-61" x="140.869"/><use xlink:href="#DejaVuSans-6b" x="202.148"/><use xlink:href="#DejaVuSans-65" x="256.434"/><use xlink:href="#DejaVuSans-2f" x="317.957"/><use xlink:href="#DejaVuSans-67" x="351.648"/><use xlink:href="#DejaVuSans-75" x="415.125"/><use xlink:href="#DejaVuSans-61" x="478.504"/><use xlink:href="#DejaVuSans-6b" x="539.783"/><use xlink:href="#DejaVuSans-65" x="594.068"/></g><g style="fill:#aec7e8" transform="matrix(.14 0 0 -.14 465.907 266.173)" id="text_31"><defs><path id="DejaVuSans-7a" d="M353 3500h2731v-525L922 459h2162V0H275v525l2163 2516H353v459z" transform="scale(.01563)"/></defs><use xlink:href="#DejaVuSans-77"/><use xlink:href="#DejaVuSans-65" x="81.787"/><use xlink:href="#DejaVuSans-7a" x="143.311"/><use xlink:href="#DejaVuSans-2f" x="195.801"/><use xlink:href="#DejaVuSans-77" x="229.492"/><use xlink:href="#DejaVuSans-65" x="311.279"/><use xlink:href="#DejaVuSans-7a" x="372.803"/><use xlink:href="#DejaVuSans-74" x="425.293"/><use xlink:href="#DejaVuSans-65" x="464.502"/><use xlink:href="#DejaVuSans-72" x="526.025"/><use xlink:href="#DejaVuSans-6d" x="565.389"/></g><g style="fill:#ffbb78" transform="matrix(.14 0 0 -.14 465.907 280.173)" id="text_32"><use xlink:href="#DejaVuSans-74"/><use xlink:href="#DejaVuSans-68" x="39.209"/><use xlink:href="#DejaVuSans-65" x="102.588"/><use xlink:href="#DejaVuSans-73" x="164.111"/><use xlink:href="#DejaVuSans-74" x="216.211"/><use xlink:href="#DejaVuSans-69" x="255.42"/><use xlink:href="#DejaVuSans-6e" x="283.203"/><use xlink:href="#DejaVuSans-67" x="346.582"/><use xlink:href="#DejaVuSans-65" x="410.059"/><use xlink:href="#DejaVuSans-72" x="471.582"/><use xlink:href="#DejaVuSans-2f" x="512.695"/><use xlink:href="#DejaVuSans-74" x="546.387"/><use xlink:href="#DejaVuSans-65" x="585.596"/><use xlink:href="#DejaVuSans-72" x="647.119"/><use xlink:href="#DejaVuSans-6d" x="686.482"/><use xlink:href="#DejaVuSans-69" x="783.895"/><use xlink:href="#DejaVuSans-74" x="811.678"/><use xlink:href="#DejaVuSans-65" x="850.887"/></g><g style="fill:#98df8a" transform="matrix(.14 0 0 -.14 465.907 294.173)" id="text_33"><use xlink:href="#DejaVuSans-6c"/><use xlink:href="#DejaVuSans-69" x="27.783"/><use xlink:href="#DejaVuSans-61" x="55.566"/><use xlink:href="#DejaVuSans-6d" x="116.846"/><use xlink:href="#DejaVuSans-67" x="214.258"/><use xlink:href="#DejaVuSans-2f" x="277.734"/><use xlink:href="#DejaVuSans-64" x="311.426"/><use xlink:href="#DejaVuSans-61" x="374.902"/><use xlink:href="#DejaVuSans-72" x="436.182"/><use xlink:href="#DejaVuSans-6b" x="477.295"/><use xlink:href="#DejaVuSans-74" x="535.205"/><use xlink:href="#DejaVuSans-69" x="574.414"/><use xlink:href="#DejaVuSans-6c" x="602.197"/><use xlink:href="#DejaVuSans-65" x="629.98"/></g><g style="fill:#ff9896" transform="matrix(.14 0 0 -.14 465.907 308.173)" id="text_34"><defs><path id="DejaVuSans-4c" d="M628 4666h631V531h2272V0H628v4666z" transform="scale(.01563)"/></defs><use xlink:href="#DejaVuSans-4c"/><use xlink:href="#DejaVuSans-75" x="53.963"/><use xlink:href="#DejaVuSans-6b" x="117.342"/><use xlink:href="#DejaVuSans-65" x="171.627"/><use xlink:href="#DejaVuSans-53" x="233.15"/><use xlink:href="#DejaVuSans-6d" x="296.627"/><use xlink:href="#DejaVuSans-69" x="394.039"/><use xlink:href="#DejaVuSans-74" x="421.822"/><use xlink:href="#DejaVuSans-68" x="461.031"/><use xlink:href="#DejaVuSans-78" x="524.41"/><use xlink:href="#DejaVuSans-79" x="583.59"/><use xlink:href="#DejaVuSans-7a" x="642.77"/><use xlink:href="#DejaVuSans-2f" x="695.26"/><use xlink:href="#DejaVuSans-73" x="728.951"/><use xlink:href="#DejaVuSans-74" x="781.051"/></g><g style="fill:#c5b0d5" transform="matrix(.14 0 0 -.14 465.907 322.173)" id="text_35"><use xlink:href="#DejaVuSans-6c"/><use xlink:href="#DejaVuSans-61" x="27.783"/><use xlink:href="#DejaVuSans-6e" x="89.063"/><use xlink:href="#DejaVuSans-6f" x="152.441"/><use xlink:href="#DejaVuSans-78" x="210.498"/><use xlink:href="#DejaVuSans-78" x="269.678"/><use xlink:href="#DejaVuSans-2f" x="328.857"/><use xlink:href="#DejaVuSans-74" x="362.549"/><use xlink:href="#DejaVuSans-69" x="401.758"/><use xlink:href="#DejaVuSans-6c" x="429.541"/><use xlink:href="#DejaVuSans-64" x="457.324"/><use xlink:href="#DejaVuSans-61" x="520.801"/></g><g style="fill:#b0b0b0" transform="matrix(.09716 0 0 -.09716 98.073 327.432)" id="text_36"><defs><path id="DejaVuSans-40" d="M2381 1678q0-447 222-702 222-254 610-254 384 0 604 256 221 256 221 700 0 438-225 695-225 258-607 258-378 0-602-256-223-256-223-697zm1703-934q-187-241-429-355t-564-114q-538 0-874 389t-336 1014q0 625 337 1015 338 391 873 391 322 0 565-117 244-117 428-354v409h447V722q457 69 714 417 258 349 258 902 0 334-99 628-98 294-298 544-325 409-792 626t-1017 217q-384 0-738-102-353-101-653-301-490-319-767-836-276-517-276-1120 0-497 179-932 180-434 521-765 328-325 759-495 431-171 922-171 403 0 792 136t714 389l281-347q-390-303-851-464t-936-161q-578 0-1091 205-512 205-912 595Q841 78 631 592q-209 514-209 1105 0 569 212 1084 213 516 607 907 403 396 931 607t1119 211q662 0 1229-272 568-271 952-771 234-307 357-666 124-359 124-744 0-822-497-1297T4084 263v481z" transform="scale(.01563)"/><path id="DejaVuSans-7c" d="M1344 4891v-6400H813v6400h531z" transform="scale(.01563)"/><path id="DejaVuSans-4e" d="M628 4666h850L3547 763v3903h612V0h-850L1241 3903V0H628v4666z" transform="scale(.01563)"/><path id="DejaVuSans-f6" d="M1959 3097q-462 0-731-361t-269-989q0-628 267-989 268-361 733-361 460 0 728 362 269 363 269 988 0 622-269 986-268 364-728 364zm0 487q750 0 1178-488 429-487 429-1349 0-859-429-1349Q2709-91 1959-91q-753 0-1180 489-426 490-426 1349 0 862 426 1349 427 488 1180 488zm295 1266h634v-631h-634v631zm-1222 0h634v-631h-634v631z" transform="scale(.01563)"/><path id="DejaVuSans-42" d="M1259 2228V519h1013q509 0 754 211 246 211 246 645 0 438-246 645-245 208-754 208H1259zm0 1919V2741h935q462 0 688 173 227 174 227 530 0 353-227 528-226 175-688 175h-935zm-631 519h1613q722 0 1112-300 391-300 391-853 0-429-200-682t-588-315q466-100 724-418 258-317 258-792 0-625-425-966Q3088 0 2303 0H628v4666z" transform="scale(.01563)"/><path id="DejaVuSans-59" d="M-13 4666h679l1293-1919 1285 1919h678L2272 2222V0h-634v2222L-13 4666z" transform="scale(.01563)"/></defs><use xlink:href="#DejaVuSans-40"/><use xlink:href="#DejaVuSans-6e" x="100"/><use xlink:href="#DejaVuSans-73" x="163.379"/><use xlink:href="#DejaVuSans-63" x="215.479"/><use xlink:href="#DejaVuSans-68" x="270.459"/><use xlink:href="#DejaVuSans-6c" x="333.838"/><use xlink:href="#DejaVuSans-6f" x="361.621"/><use xlink:href="#DejaVuSans-65" x="422.803"/><use xlink:href="#DejaVuSans-20" x="484.326"/><use xlink:href="#DejaVuSans-2f" x="516.113"/><use xlink:href="#DejaVuSans-20" x="549.805"/><use xlink:href="#DejaVuSans-67" x="581.592"/><use xlink:href="#DejaVuSans-68" x="645.068"/><use xlink:href="#DejaVuSans-2d" x="708.447"/><use xlink:href="#DejaVuSans-74" x="744.531"/><use xlink:href="#DejaVuSans-72" x="783.74"/><use xlink:href="#DejaVuSans-65" x="822.604"/><use xlink:href="#DejaVuSans-6e" x="884.127"/><use xlink:href="#DejaVuSans-64" x="947.506"/><use xlink:href="#DejaVuSans-73" x="1010.982"/><use xlink:href="#DejaVuSans-20" x="1063.082"/><use xlink:href="#DejaVuSans-7c" x="1094.869"/><use xlink:href="#DejaVuSans-20" x="1128.561"/><use xlink:href="#DejaVuSans-4e" x="1160.348"/><use xlink:href="#DejaVuSans-69" x="1235.152"/><use xlink:href="#DejaVuSans-63" x="1262.936"/><use xlink:href="#DejaVuSans-6f" x="1317.916"/><use xlink:href="#DejaVuSans-20" x="1379.098"/><use xlink:href="#DejaVuSans-53" x="1410.885"/><use xlink:href="#DejaVuSans-63" x="1474.361"/><use xlink:href="#DejaVuSans-68" x="1529.342"/><use xlink:href="#DejaVuSans-6c" x="1592.721"/><use xlink:href="#DejaVuSans-f6" x="1620.504"/><use xlink:href="#DejaVuSans-6d" x="1681.686"/><use xlink:href="#DejaVuSans-65" x="1779.098"/><use xlink:href="#DejaVuSans-72" x="1840.621"/><use xlink:href="#DejaVuSans-20" x="1881.734"/><use xlink:href="#DejaVuSans-7c" x="1913.521"/><use xlink:href="#DejaVuSans-20" x="1947.213"/><use xlink:href="#DejaVuSans-43" x="1979"/><use xlink:href="#DejaVuSans-43" x="2048.824"/><use xlink:href="#DejaVuSans-20" x="2118.648"/><use xlink:href="#DejaVuSans-42" x="2150.436"/><use xlink:href="#DejaVuSans-59" x="2213.539"/></g><path d="m115.428 293.396 2.957-.232h8.773l2.86-.007 2.957-.007h8.773l2.67-.07 2.956-.092 2.86-.028 2.957-.049 2.86-.05 2.957-.062 2.956-.134 2.86-.084 2.957-.07 2.86-.05 2.957-.063 2.956-.035 2.67-.064 2.956-.112 2.86-.07 2.957-.085 2.86-.056 2.957-.098 2.956-.078 2.86-.07 2.957-.169 2.86-.098 2.957-.098 2.956-.134 2.67-.07 2.956-.106 2.86-.098 2.957-.162 2.86-.098 2.957-.113 2.956-.161 2.86-.155 2.957-.176 2.86-.21 2.957-.176 2.956-.148 2.765-.183 2.956-.21 2.861-.198 2.956-.147 2.861-.204 2.956-.239 2.956-.218 2.861-.155 2.956-.203 2.861-.176 2.956-.246 2.956-.31 2.67-.288 2.957-.274 2.86-.302 2.956-.267 2.861-.253 2.956-.218 2.956-.211 2.861-.274 2.956-.45 2.861-.38 2.956-.253 2.956-.365 2.67-.338 2.957-.316 2.86-.204 2.957-.281 2.86-.211 2.956-.246 2.957-.211 2.86-.26 2.956-.183 2.861-.323 2.956-.303 2.957-.28 2.67-.352 2.956-.338 2.86-.478 2.957-.295 2.86-.267 2.957-.274 2.956-.19 2.86-.232 2.957-.204 2.86-.204 2.956-.337 2.957-.26 2.765-.204 2.956-.155 2.86-.196 2.957-.31 2.86-.183 2.957-.239 2.956-.203 2.86-.204 2.957-.26 2.86-.225 2.957-.204 2.956-.148 2.67-.12 2.956-.21 2.861-.162 2.956-.365 2.86-.022 2.957-.035 2.956-.056 2.861-.035 2.956-.056 2.86-.057 2.957-.028 2.956-.02" clip-path="url(#p4a8a0f26c2)" style="fill:none;stroke:#ffbb78;stroke-width:1.5;stroke-linecap:square" id="line2d_31"/><path d="m315.873 293.396 2.67-.035 2.957-.007 2.86-.014h5.817l2.956-.007 2.957-.021 2.86-.007 2.956-.021 2.861-.007 2.956-.007h2.957l2.67-.05 2.956-.042 2.86-.02 2.957-.071 2.86-.056 2.957-.029 2.956-.056 2.86-.02 2.957-.071 2.86-.127 2.956-.204 2.957-.168 2.765-.148 2.956-.077 2.86-.19 2.957-.091 2.86-.844 2.957-.14 2.956-.127 2.86-.295 2.957-.19 2.86-.45 2.957-.576 2.956-.38 2.67-.394 2.956-.83 2.861-5.735 2.956-1.21 2.86-.52 2.957-.92 2.956-.9 2.861-1.238 2.956-.766 2.86-.99 2.957-2.904 2.956-1.631" clip-path="url(#p4a8a0f26c2)" style="fill:none;stroke:#aec7e8;stroke-width:1.5;stroke-linecap:square" id="line2d_32"/><path d="m115.428 293.396 2.957-.133h23.363l2.67-.008 2.956-.035 2.86-.098 2.957-.077 2.86-.064 2.957-.077 2.956-.19 2.86-.133 2.957-.092 2.86-.077 2.957-.077 2.956-.127 2.67-.155 2.956-.133 2.86-.225 2.957-.197 2.86-.133 2.957-.155 2.956-.24 2.86-.16 2.957-.212 2.86-.175 2.957-.148 2.956-.24 2.67-.154 2.956-.246 2.86-.161 2.957-.471 2.86-.148 2.957-.344 2.956-.211 2.86-.204 2.957-.232 2.86-.373 2.957-.19 2.956-.295 2.765-.246 2.956-.26 2.861-.351 2.956-.197 2.861-.281 2.956-.268 2.956-.295 2.861-.31 2.956-.28 2.861-.352 2.956-.295 2.956-.316 2.67-.267 2.957-.345 2.86-.344 2.956-.373 2.861-.316 2.956-.31 2.956-.351 2.861-.288 2.956-.338 2.861-.323 2.956-.302 2.956-.478 2.67-.436 2.957-.394 2.86-.464 2.957-.506 2.86-.274 2.956-.352 2.957-.351 2.86-.26 2.956-.373 2.861-.309 2.956-.387 2.957-.407 2.67-.26 2.956-.31 2.86-.28 2.957-.388 2.86-.309 2.957-.372 2.956-.24 2.86-.154 2.957-.253 2.86-.338 2.956-.21 2.957-.296 2.765-.253 2.956-.429 2.86-.239 2.957-.21 2.86-.225 2.957-.197 2.956-.295 2.86-.162 2.957-.24 2.86-.196 2.957-.19 2.956-.168 2.67-.225 2.956-.373 2.861-.253 2.956-.26 2.86-.106 2.957-.218 2.956-.154 2.861-.19 2.956-.246 2.86-.239 2.957-.183 2.956-.21" clip-path="url(#p4a8a0f26c2)" style="fill:none;stroke:#17becf;stroke-width:1.5;stroke-linecap:square" id="line2d_33"/><path d="m243.21 293.396 2.956-.633 2.765-.478 2.956-.667 2.861-.52 2.956-.408 2.861-.253 2.956-.535 2.956-.337 2.861-.288 2.956-.43 2.861-.491 2.956-.38 2.956-.78 2.67-.696 2.957-.654 2.86-.815 2.956-.717 2.861-.443 2.956-1.005 2.956-1.16 2.861-.415 2.956-.611 2.861-.535 2.956-.436 2.956-.4 2.67-.422 2.957-.626 2.86-.478 2.957-.45 2.86-.456 2.956-.373 2.957-.443 2.86-.344 2.956-.436 2.861-.471 2.956-.4 2.957-.837 2.67-.52 2.956-.535 2.86-.492 2.957-.71 2.86-.675 2.957-.436 2.956-.548 2.86-.316 2.957-.373 2.86-.358 2.956-.394 2.957-.415 2.765-.407 2.956-.387 2.86-.471 2.957-.471 2.86-.365 2.957-.324 2.956-.232 2.86-.45 2.957-.365 2.86-.373 2.957-.274 2.956-.415 2.67-.288 2.956-.337 2.861-.38 2.956-.358 2.86-.247 2.957-.19 2.956-.231 2.861-.267 2.956-.197 2.86-.253 2.957-.289 2.956-.246" clip-path="url(#p4a8a0f26c2)" style="fill:none;stroke:#bcbd22;stroke-width:1.5;stroke-linecap:square" id="line2d_34"/><path d="m98.073 293.396 2.86-.014H164.825l2.957-.007 2.86-.112 2.957-.036 2.956-.042 2.67-.126 2.956-.127 2.86-.239 2.957-.12 2.86-.14 2.957-.267 2.956-.169 2.86-.246 2.957-.337 2.86-.232 2.957-.373 2.956-.323 2.67-.253 2.956-.703 2.86-.661 2.957-.675 2.86-.92 2.957-.908 2.956-.9 2.86-.766 2.957-.892 2.86-.823 2.957-.653 2.956-.83 2.765-.71 2.956-.893 2.861-.646 2.956-.626 2.861-.738 2.956-.605 2.956-.822 2.861-.69 2.956-.653 2.861-.675 2.956-.71 2.956-.646 2.67-.69 2.957-.857 2.86-.745 2.956-.57 2.861-.618 2.956-.576 2.956-.633 2.861-.696 2.956-.682 2.861-.717 2.956-.647 2.956-.766 2.67-.534 2.957-.703 2.86-.76 2.957-.766 2.86-.871 2.956-.71 2.957-.844 2.86-.724 2.956-.562 2.861-.619 2.956-.611 2.957-.83 2.67-.71 2.956-.928 2.86-.759 2.957-.815 2.86-.542 2.957-.583 2.956-.57 2.86-.428 2.957-.401 2.86-.387 2.956-.499 2.957-.421 2.765-.401 2.956-.548 2.86-.535 2.957-.464 2.86-.45 2.957-.344 2.956-.408 2.86-.33 2.957-.5 2.86-.421 2.957-.366 2.956-.499 2.67-.337 2.956-.415 2.861-.415 2.956-.316 2.86-.26 2.957-.351 2.956-.268 2.861-.323 2.956-.429 2.86-.267 2.957-.358 2.956-.289" clip-path="url(#p4a8a0f26c2)" style="fill:none;stroke:#7f7f7f;stroke-width:1.5;stroke-linecap:square" id="line2d_35"/><path d="m275.155 293.396 2.956-.014 2.956-4.879 2.67-.26 2.957-.203 2.86-.134 2.956-.19 2.861-.246 2.956-.302 2.956-.415 2.861-.387 2.956-.428 2.861-1.652 2.956-.928 2.956-2.067 2.67-1.89 2.957-1.723 2.86-2.587 2.957-2.608 2.86-1.139 2.956-1.56 2.957-1.266 2.86-7.985 2.956-1.554 2.861-1.54 2.956-1.286 2.957-1.511 2.67-1.779 2.956-1.581 2.86-1.505 2.957-1.602 2.86-1.139 2.957-1.378 2.956-2.102 2.86-1.026 2.957-1.547 2.86-1.279 2.956-1.033 2.957-1.35 2.765-1.314 2.956-1.449 2.86-1.49 2.957-1.357 2.86-1.131 2.957-1.188 2.956-1.181 2.86-1.294 2.957-2.242 2.86-1.357 2.957-1.357 2.956-1.94 2.67-1.251 2.956-1.715 2.861-1.807 2.956-2.102 2.86-1.602 2.957-1.582 2.956-1.743 2.861-1.575 2.956-1.525 2.86-2.7 2.957-2.34 2.956-2.869" clip-path="url(#p4a8a0f26c2)" style="fill:none;stroke:#e377c2;stroke-width:1.5;stroke-linecap:square" id="line2d_36"/><path d="m170.641 293.396 2.957-.077 2.956-.042 2.67-.007h2.956l2.86-.022 2.957-.007 2.86-.007 2.957-4.73 2.956-2.608 2.86-1.188 2.957-6.475 2.86-.646 2.957-.725 2.956-.653 2.67-3.852 2.956-.942 2.86-.33 2.957-.387 2.86-.493 2.957-.428 2.956-.408 2.86-.534 2.957-.556 2.86-.611 2.957-.541 2.956-.394 2.765-.57 2.956-.569 2.861-1.026 2.956-.443 2.861-.696 2.956-1.708 2.956-.745 2.861-.59 2.956-.69 2.861-.562 2.956-.408 2.956-.604 2.67-.626 2.957-.464 2.86-.886 2.956-.766 2.861-.408 2.956-.337 2.956-.689 2.861-.492 2.956-7.754 2.861-2.776 2.956-.935 2.956-.963 2.67-.879 2.957-.949 2.86-.879 2.957-1.3 2.86-2.468 2.956-1.314 2.957-.9 2.86-.836 2.956-.907 2.861-.9 2.956-1.174 2.957-1.132 2.67-.97 2.956-1.771 2.86-1.765 2.957-1.427 2.86-.935 2.957-1.033 2.956-1.293 2.86-.921 2.957-1.153 2.86-2.482 2.956-.85 2.957-1.3 2.765-1.182 2.956-1.019 2.86-1.132 2.957-1.553 2.86-1.027 2.957-1.574 2.956-1.28 2.86-2.186 2.957-1.265 2.86-1.11 2.957-1.07 2.956-1.18 2.67-1.02 2.956-1.982 2.861-1.139 2.956-.759 2.86-.752 2.957-.766 2.956-.78 2.861-.957 2.956-1.117 2.86-1.49 2.957-1.378 2.956-1.245" clip-path="url(#p4a8a0f26c2)" style="fill:none;stroke:#8c564b;stroke-width:1.5;stroke-linecap:square" id="line2d_37"/><path d="m216.986 293.396 2.86-.007h2.957l2.86-.007h2.957l2.956-.014 2.86-36.87 2.957-2.447 2.86-.984 2.957-.674 2.956-.76 2.765-1.28 2.956-.941 2.861-.801 2.956-25.56 2.861-6.411 2.956-6.228 2.956-1.589 2.861-1.518 2.956-1.371 2.861-1.525 2.956-2.137 2.956-1.322 2.67-1.933 2.957-1.448 2.86-1.448 2.956-7.634 2.861-1.034 2.956-1.061 2.956-1.294 2.861-4.703 2.956-1.7 2.861-1.07 2.956-1.011 2.956-1.73 2.67-.942 2.957-1.813 2.86-1.076 2.957-.984 2.86-.83 2.956-.78 2.957-.738 2.86-.794 2.956-.788 2.861-.9 2.956-.723 2.957-.802 2.67-1.012 2.956-.794 2.86-.76 2.957-.738 2.86-.21 2.957-.17 2.956-.217 2.86-.077 2.957-.19 2.86-.106 2.956-.133 2.957-.162 2.765-.148 2.956-.084 2.86-.204 2.957-.091 2.86-.085 2.957-.126 2.956-.091 2.86-.176 2.957-.113 2.86-.098 2.957-.07 2.956-.12 2.67-.07 2.956-.099 2.861-.077 2.956-.077 2.86-.07 2.957-.106 2.956-.084 2.861-.12 2.956-.084 2.86-.07 2.957-.078 2.956-.056" clip-path="url(#p4a8a0f26c2)" style="fill:none;stroke:#9467bd;stroke-width:1.5;stroke-linecap:square" id="line2d_38"/><path d="m222.803 293.396 2.86-16.055 2.957-1.055 2.956-1.082 2.86-.872 2.957-1.793 2.86-1.532 2.957-.998 2.956-.88 2.765-.983 2.956-1.125 2.861-1.026 2.956-1.427 2.861-1.21 2.956-1.068 2.956-1.026 2.861-1.287 2.956-1.448 2.861-1.11 2.956-1.055 2.956-1.251 2.67-1.181 2.957-1.434 2.86-1.293 2.956-1.413 2.861-1.905 2.956-2.173 2.956-2.116 2.861-2.087 2.956-2.63 2.861-2.143 2.956-1.877 2.956-2.13 2.67-1.87 2.957-2.004 2.86-2.108 2.957-2.37 2.86-1.96 2.956-1.8 2.957-1.912 2.86-2.123 2.956-2.081 2.861-2.285 2.956-2.172 2.957-2.242 2.67-1.954 2.956-2.419 2.86-2.706 2.957-2.552 2.86-2.27 2.957-2.348 2.956-1.905 2.86-1.877 2.957-2.214 2.86-2.257 2.956-2.179 2.957-2.102 2.765-2.165 2.956-2.53 2.86-3.29 2.957-3.002 2.86-2.32 2.957-2.144 2.956-1.89 2.86-1.899 2.957-2.095 2.86-2.481 2.957-2.264 2.956-2.179 2.67-1.849 2.956-1.96 2.861-3.277 2.956-2.826 2.86-2.038 2.957-2.18 2.956-2.509 2.861-2.784 2.956-2.01 2.86-1.92 2.957-2.206 2.956-1.814" clip-path="url(#p4a8a0f26c2)" style="fill:none;stroke:#d62728;stroke-width:1.5;stroke-linecap:square" id="line2d_39"/><path d="m292.51 293.396 2.861-.492 2.956-9.265 2.956-.837 2.861-.534 2.956-.45 2.861-.386 2.956-.745 2.956-.535 2.67-.52 2.957-1.026 2.86-.612 2.957-.773 2.86-.703 2.956-.64 2.957-.808 2.86-.865 2.956-.83 2.861-2.382 2.956-7.796 2.957-3.74 2.67-2.748 2.956-3.459 2.86-3.03 2.957-15.739 2.86-5.673 2.957-3.557 2.956-3.107 2.86-2.868 2.957-2.277 2.86-3.03 2.956-2.397 2.957-2.032 2.765-2.53 2.956-2.292 2.86-3.269 2.957-3.009 2.86-3.437 2.957-2.418 2.956-2.18 2.86-1.806 2.957-2.102 2.86-2.27 2.957-2.805 2.956-2.79 2.67-2.328 2.956-2.622 2.861-2.291 2.956-2.32 2.86-2.657 2.957-3.058 2.956-3.22 2.861-2.685 2.956-2.285 2.86-3.676 2.957-51.942 2.956-13.778" clip-path="url(#p4a8a0f26c2)" style="fill:none;stroke:#2ca02c;stroke-width:1.5;stroke-linecap:square" id="line2d_40"/><path d="m260.565 293.396 2.956-44.075 2.956-8.323 2.861-3.775 2.956-5.92 2.861-4.322 2.956-20.935 2.956-6.207 2.67-4.323 2.957-5.574 2.86-3.318 2.956-3.62 2.861-3.677 2.956-3.48 2.956-3.423 2.861-3.571 2.956-3.55 2.861-3.423 2.956-3.086 2.956-3.888 2.67-2.966 2.957-3.53 2.86-6.143 2.957-5.687 2.86-4.098 2.956-3.353 2.957-3.185 2.86-2.685 2.956-2.552 2.861-2.805 2.956-3.247 2.957-3.578 2.67-2.657 2.956-3.332 2.86-3.15 2.957-8.19 2.86-3.81 2.957-2.263 2.956-2.34 2.86-2.124 2.957-4.393 2.86-2.032 2.956-1.827 2.957-1.863 2.765-1.92 2.956-1.897 2.86-1.961 2.957-2.334 2.86-1.898 2.957-1.856 2.956-1.722 2.86-1.603 2.957-1.863 2.86-2.15 2.957-2.025 2.956-1.709 2.67-1.54 2.956-1.869 2.861-1.518 2.956-1.61 2.86-1.455 2.957-2.355 2.956-2.102 2.861-1.905 2.956-2.292 2.86-1.757 2.957-2.158 2.956-1.8" clip-path="url(#p4a8a0f26c2)" style="fill:none;stroke:#ff7f0e;stroke-width:1.5;stroke-linecap:square" id="line2d_41"/><path d="m246.166 293.396 2.765-.014h5.817l2.956-.014 2.861-.007h8.773l2.956-.007 2.861-.007 2.956-.007 2.956-29.721 2.67-3.03 2.957-2.08 2.86-1.94 2.956-1.758 2.861-1.294 2.956-2.207 2.956-2.088 2.861-1.708 2.956-3.002 2.861-2.664 2.956-2.256 2.956-4.345 2.67-3.711 2.957-2.826 2.86-3.529 2.957-2.242 2.86-1.94 2.956-3.206 2.957-2.826 2.86-3.445 2.956-3.015 2.861-3.627 2.956-3.262 2.957-3.107 2.67-2.53 2.956-4.078 2.86-4.738 2.957-4.738 2.86-3.578 2.957-3.17 2.956-4.05 2.86-3.149 2.957-3.339 2.86-2.96 2.956-2.79 2.957-2.847 2.765-5.146 2.956-3.901 2.86-5.047 2.957-5.68 2.86-4.85 2.957-4.408 2.956-5.265 2.86-4.415 2.957-4.717 2.86-7.669 2.957-11.746 2.956-5.28 2.67-3.887 2.956-4.098 2.861-3.775 2.956-13.096 2.86-3.663 2.957-4.506 2.956-4.892 2.861-3.86 2.956-3.81 2.86-4.238 2.957-6.404 2.956-4.907" clip-path="url(#p4a8a0f26c2)" style="fill:none;stroke:#1f77b4;stroke-width:1.5;stroke-linecap:square" id="line2d_42"/></g></g><defs><clipPath id="p4a8a0f26c2"><path d="M98.073 27.284h357.12v266.112H98.073z"/></clipPath></defs></svg>