<svg xmlns:xlink="http://www.w3.org/1999/xlink" width="893.076" height="443.92" viewBox="0 0 669.807 332.94" xmlns="http://www.w3.org/2000/svg"><defs><style>*{stroke-linejoin:round;stroke-linecap:butt}</style></defs><g id="figure_1"><path d="M0 332.94h669.807V0H0v332.94z" style="fill:none" id="patch_1"/><g id="axes_1"><path d="M98.073 289.413h357.12V23.3H98.073v266.112z" style="fill:none" id="patch_2"/><g id="matplotlib.axis_1"><g id="xtick_1"><g id="line2d_1"><defs><path id="m4792d9f2b9" d="M0 0v3.5" style="stroke:#b0b0b0;stroke-width:.4"/></defs><use xlink:href="#m4792d9f2b9" x="103.847" y="289.413" style="fill:#b0b0b0;stroke:#b0b0b0;stroke-width:.4"/></g><g style="fill:#b0b0b0" transform="matrix(.14 0 0 -.14 86.032 307.05)" id="text_1"><defs><path id="DejaVuSans-32" d="M1228 531h2203V0H469v531q359 372 979 998 621 627 780 809 303 340 423 576 121 236 121 464 0 372-261 606-261 235-680 235-297 0-627-103-329-103-704-313v638q381 153 712 231 332 78 607 78 725 0 1156-363 431-362 431-968 0-288-108-546-107-257-392-607-78-91-497-524-418-433-1181-1211z" transform="scale(.01563)"/><path id="DejaVuSans-30" d="M2034 4250q-487 0-733-480-245-479-245-1442 0-959 245-1439 246-480 733-480 491 0 736 480 246 480 246 1439 0 963-246 1442-245 480-736 480zm0 500q785 0 1199-621 414-620 414-1801 0-1178-414-1799Q2819-91 2034-91q-784 0-1198 620-414 621-414 1799 0 1181 414 1801 414 621 1198 621z" transform="scale(.01563)"/><path id="DejaVuSans-31" d="M794 531h1031v3560L703 3866v575l1116 225h631V531h1031V0H794v531z" transform="scale(.01563)"/></defs><use xlink:href="#DejaVuSans-32"/><use xlink:href="#DejaVuSans-30" x="63.623"/><use xlink:href="#DejaVuSans-31" x="127.246"/><use xlink:href="#DejaVuSans-32" x="190.869"/></g></g><g id="xtick_2"><use xlink:href="#m4792d9f2b9" x="138.489" y="289.413" style="fill:#b0b0b0;stroke:#b0b0b0;stroke-width:.4" id="line2d_2"/><g style="fill:#b0b0b0" transform="matrix(.14 0 0 -.14 120.674 307.05)" id="text_2"><defs><path id="DejaVuSans-33" d="M2597 2516q453-97 707-404 255-306 255-756 0-690-475-1069Q2609-91 1734-91q-293 0-604 58T488 141v609q262-153 574-231 313-78 654-78 593 0 904 234t311 681q0 413-289 645-289 233-804 233h-544v519h569q465 0 712 186t247 536q0 359-255 551-254 193-729 193-260 0-557-57-297-56-653-174v562q360 100 674 150t592 50q719 0 1137-327 419-326 419-882 0-388-222-655t-631-370z" transform="scale(.01563)"/></defs><use xlink:href="#DejaVuSans-32"/><use xlink:href="#DejaVuSans-30" x="63.623"/><use xlink:href="#DejaVuSans-31" x="127.246"/><use xlink:href="#DejaVuSans-33" x="190.869"/></g></g><g id="xtick_3"><use xlink:href="#m4792d9f2b9" x="173.037" y="289.413" style="fill:#b0b0b0;stroke:#b0b0b0;stroke-width:.4" id="line2d_3"/><g style="fill:#b0b0b0" transform="matrix(.14 0 0 -.14 155.222 307.05)" id="text_3"><defs><path id="DejaVuSans-34" d="M2419 4116 825 1625h1594v2491zm-166 550h794V1625h666v-525h-666V0h-628v1100H313v609l1940 2957z" transform="scale(.01563)"/></defs><use xlink:href="#DejaVuSans-32"/><use xlink:href="#DejaVuSans-30" x="63.623"/><use xlink:href="#DejaVuSans-31" x="127.246"/><use xlink:href="#DejaVuSans-34" x="190.869"/></g></g><g id="xtick_4"><use xlink:href="#m4792d9f2b9" x="207.585" y="289.413" style="fill:#b0b0b0;stroke:#b0b0b0;stroke-width:.4" id="line2d_4"/><g style="fill:#b0b0b0" transform="matrix(.14 0 0 -.14 189.77 307.05)" id="text_4"><defs><path id="DejaVuSans-35" d="M691 4666h2478v-532H1269V2991q137 47 274 70 138 23 276 23 781 0 1237-428 457-428 457-1159 0-753-469-1171Q2575-91 1722-91q-294 0-599 50Q819 9 494 109v635q281-153 581-228t634-75q541 0 856 284 316 284 316 772 0 487-316 771-315 285-856 285-253 0-505-56-251-56-513-175v2344z" transform="scale(.01563)"/></defs><use xlink:href="#DejaVuSans-32"/><use xlink:href="#DejaVuSans-30" x="63.623"/><use xlink:href="#DejaVuSans-31" x="127.246"/><use xlink:href="#DejaVuSans-35" x="190.869"/></g></g><g id="xtick_5"><use xlink:href="#m4792d9f2b9" x="242.133" y="289.413" style="fill:#b0b0b0;stroke:#b0b0b0;stroke-width:.4" id="line2d_5"/><g style="fill:#b0b0b0" transform="matrix(.14 0 0 -.14 224.318 307.05)" id="text_5"><defs><path id="DejaVuSans-36" d="M2113 2584q-425 0-674-291-248-290-248-796 0-503 248-796 249-292 674-292t673 292q248 293 248 796 0 506-248 796-248 291-673 291zm1253 1979v-575q-238 112-480 171-242 60-480 60-625 0-955-422-329-422-376-1275 184 272 462 417 279 145 613 145 703 0 1111-427 408-426 408-1160 0-719-425-1154Q2819-91 2113-91q-810 0-1238 620-428 621-428 1799 0 1106 525 1764t1409 658q238 0 480-47t505-140z" transform="scale(.01563)"/></defs><use xlink:href="#DejaVuSans-32"/><use xlink:href="#DejaVuSans-30" x="63.623"/><use xlink:href="#DejaVuSans-31" x="127.246"/><use xlink:href="#DejaVuSans-36" x="190.869"/></g></g><g id="xtick_6"><use xlink:href="#m4792d9f2b9" x="276.775" y="289.413" style="fill:#b0b0b0;stroke:#b0b0b0;stroke-width:.4" id="line2d_6"/><g style="fill:#b0b0b0" transform="matrix(.14 0 0 -.14 258.96 307.05)" id="text_6"><defs><path id="DejaVuSans-37" d="M525 4666h3000v-269L1831 0h-659l1594 4134H525v532z" transform="scale(.01563)"/></defs><use xlink:href="#DejaVuSans-32"/><use xlink:href="#DejaVuSans-30" x="63.623"/><use xlink:href="#DejaVuSans-31" x="127.246"/><use xlink:href="#DejaVuSans-37" x="190.869"/></g></g><g id="xtick_7"><use xlink:href="#m4792d9f2b9" x="311.323" y="289.413" style="fill:#b0b0b0;stroke:#b0b0b0;stroke-width:.4" id="line2d_7"/><g style="fill:#b0b0b0" transform="matrix(.14 0 0 -.14 293.508 307.05)" id="text_7"><defs><path id="DejaVuSans-38" d="M2034 2216q-450 0-708-241-257-241-257-662 0-422 257-663 258-241 708-241t709 242q260 243 260 662 0 421-258 662-257 241-711 241zm-631 268q-406 100-633 378-226 279-226 679 0 559 398 884 399 325 1092 325 697 0 1094-325t397-884q0-400-227-679-226-278-629-378 456-106 710-416 255-309 255-755 0-679-414-1042Q2806-91 2034-91q-771 0-1186 362-414 363-414 1042 0 446 256 755 257 310 713 416zm-231 997q0-362 226-565 227-203 636-203 407 0 636 203 230 203 230 565 0 363-230 566-229 203-636 203-409 0-636-203-226-203-226-566z" transform="scale(.01563)"/></defs><use xlink:href="#DejaVuSans-32"/><use xlink:href="#DejaVuSans-30" x="63.623"/><use xlink:href="#DejaVuSans-31" x="127.246"/><use xlink:href="#DejaVuSans-38" x="190.869"/></g></g><g id="xtick_8"><use xlink:href="#m4792d9f2b9" x="345.871" y="289.413" style="fill:#b0b0b0;stroke:#b0b0b0;stroke-width:.4" id="line2d_8"/><g style="fill:#b0b0b0" transform="matrix(.14 0 0 -.14 328.056 307.05)" id="text_8"><defs><path id="DejaVuSans-39" d="M703 97v575q238-113 481-172 244-59 479-59 625 0 954 420 330 420 377 1277-181-269-460-413-278-144-615-144-700 0-1108 423-408 424-408 1159 0 718 425 1152 425 435 1131 435 810 0 1236-621 427-620 427-1801 0-1103-524-1761Q2575-91 1691-91q-238 0-482 47Q966 3 703 97zm1256 1978q425 0 673 290 249 291 249 798 0 503-249 795-248 292-673 292t-673-292q-248-292-248-795 0-507 248-798 248-290 673-290z" transform="scale(.01563)"/></defs><use xlink:href="#DejaVuSans-32"/><use xlink:href="#DejaVuSans-30" x="63.623"/><use xlink:href="#DejaVuSans-31" x="127.246"/><use xlink:href="#DejaVuSans-39" x="190.869"/></g></g><g id="xtick_9"><use xlink:href="#m4792d9f2b9" x="380.418" y="289.413" style="fill:#b0b0b0;stroke:#b0b0b0;stroke-width:.4" id="line2d_9"/><g style="fill:#b0b0b0" transform="matrix(.14 0 0 -.14 362.603 307.05)" id="text_9"><use xlink:href="#DejaVuSans-32"/><use xlink:href="#DejaVuSans-30" x="63.623"/><use xlink:href="#DejaVuSans-32" x="127.246"/><use xlink:href="#DejaVuSans-30" x="190.869"/></g></g><g id="xtick_10"><use xlink:href="#m4792d9f2b9" x="415.061" y="289.413" style="fill:#b0b0b0;stroke:#b0b0b0;stroke-width:.4" id="line2d_10"/><g style="fill:#b0b0b0" transform="matrix(.14 0 0 -.14 397.246 307.05)" id="text_10"><use xlink:href="#DejaVuSans-32"/><use xlink:href="#DejaVuSans-30" x="63.623"/><use xlink:href="#DejaVuSans-32" x="127.246"/><use xlink:href="#DejaVuSans-31" x="190.869"/></g></g><g id="xtick_11"><use xlink:href="#m4792d9f2b9" x="449.609" y="289.413" style="fill:#b0b0b0;stroke:#b0b0b0;stroke-width:.4" id="line2d_11"/><g style="fill:#b0b0b0" transform="matrix(.14 0 0 -.14 431.794 307.05)" id="text_11"><use xlink:href="#DejaVuSans-32"/><use xlink:href="#DejaVuSans-30" x="63.623"/><use xlink:href="#DejaVuSans-32" x="127.246"/><use xlink:href="#DejaVuSans-32" x="190.869"/></g></g></g><g id="matplotlib.axis_2"><g id="ytick_1"><path d="M98.073 289.413h357.12" clip-path="url(#pbe95e6ff0d)" style="fill:none;stroke:#b0b0b0;stroke-width:.3;stroke-linecap:square" id="line2d_12"/><g id="line2d_13"><defs><path id="macf5f47386" d="M0 0h-3.5" style="stroke:#b0b0b0;stroke-width:.3"/></defs><use xlink:href="#macf5f47386" x="98.073" y="289.413" style="fill:#b0b0b0;stroke:#b0b0b0;stroke-width:.3"/></g><use xlink:href="#DejaVuSans-30" style="fill:#b0b0b0" transform="matrix(.14 0 0 -.14 82.166 294.732)" id="text_12"/></g><g id="ytick_2"><path d="M98.073 254.834h357.12" clip-path="url(#pbe95e6ff0d)" style="fill:none;stroke:#b0b0b0;stroke-width:.3;stroke-linecap:square" id="line2d_14"/><use xlink:href="#macf5f47386" x="98.073" y="254.834" style="fill:#b0b0b0;stroke:#b0b0b0;stroke-width:.3" id="line2d_15"/><g style="fill:#b0b0b0" transform="matrix(.14 0 0 -.14 55.443 260.153)" id="text_13"><use xlink:href="#DejaVuSans-35"/><use xlink:href="#DejaVuSans-30" x="63.623"/><use xlink:href="#DejaVuSans-30" x="127.246"/><use xlink:href="#DejaVuSans-30" x="190.869"/></g></g><g id="ytick_3"><path d="M98.073 220.255h357.12" clip-path="url(#pbe95e6ff0d)" style="fill:none;stroke:#b0b0b0;stroke-width:.3;stroke-linecap:square" id="line2d_16"/><use xlink:href="#macf5f47386" x="98.073" y="220.255" style="fill:#b0b0b0;stroke:#b0b0b0;stroke-width:.3" id="line2d_17"/><g style="fill:#b0b0b0" transform="matrix(.14 0 0 -.14 46.536 225.574)" id="text_14"><use xlink:href="#DejaVuSans-31"/><use xlink:href="#DejaVuSans-30" x="63.623"/><use xlink:href="#DejaVuSans-30" x="127.246"/><use xlink:href="#DejaVuSans-30" x="190.869"/><use xlink:href="#DejaVuSans-30" x="254.492"/></g></g><g id="ytick_4"><path d="M98.073 185.676h357.12" clip-path="url(#pbe95e6ff0d)" style="fill:none;stroke:#b0b0b0;stroke-width:.3;stroke-linecap:square" id="line2d_18"/><use xlink:href="#macf5f47386" x="98.073" y="185.676" style="fill:#b0b0b0;stroke:#b0b0b0;stroke-width:.3" id="line2d_19"/><g style="fill:#b0b0b0" transform="matrix(.14 0 0 -.14 46.536 190.995)" id="text_15"><use xlink:href="#DejaVuSans-31"/><use xlink:href="#DejaVuSans-35" x="63.623"/><use xlink:href="#DejaVuSans-30" x="127.246"/><use xlink:href="#DejaVuSans-30" x="190.869"/><use xlink:href="#DejaVuSans-30" x="254.492"/></g></g><g id="ytick_5"><path d="M98.073 151.097h357.12" clip-path="url(#pbe95e6ff0d)" style="fill:none;stroke:#b0b0b0;stroke-width:.3;stroke-linecap:square" id="line2d_20"/><use xlink:href="#macf5f47386" x="98.073" y="151.097" style="fill:#b0b0b0;stroke:#b0b0b0;stroke-width:.3" id="line2d_21"/><g style="fill:#b0b0b0" transform="matrix(.14 0 0 -.14 46.536 156.416)" id="text_16"><use xlink:href="#DejaVuSans-32"/><use xlink:href="#DejaVuSans-30" x="63.623"/><use xlink:href="#DejaVuSans-30" x="127.246"/><use xlink:href="#DejaVuSans-30" x="190.869"/><use xlink:href="#DejaVuSans-30" x="254.492"/></g></g><g id="ytick_6"><path d="M98.073 116.518h357.12" clip-path="url(#pbe95e6ff0d)" style="fill:none;stroke:#b0b0b0;stroke-width:.3;stroke-linecap:square" id="line2d_22"/><use xlink:href="#macf5f47386" x="98.073" y="116.518" style="fill:#b0b0b0;stroke:#b0b0b0;stroke-width:.3" id="line2d_23"/><g style="fill:#b0b0b0" transform="matrix(.14 0 0 -.14 46.536 121.837)" id="text_17"><use xlink:href="#DejaVuSans-32"/><use xlink:href="#DejaVuSans-35" x="63.623"/><use xlink:href="#DejaVuSans-30" x="127.246"/><use xlink:href="#DejaVuSans-30" x="190.869"/><use xlink:href="#DejaVuSans-30" x="254.492"/></g></g><g id="ytick_7"><path d="M98.073 81.94h357.12" clip-path="url(#pbe95e6ff0d)" style="fill:none;stroke:#b0b0b0;stroke-width:.3;stroke-linecap:square" id="line2d_24"/><use xlink:href="#macf5f47386" x="98.073" y="81.939" style="fill:#b0b0b0;stroke:#b0b0b0;stroke-width:.3" id="line2d_25"/><g style="fill:#b0b0b0" transform="matrix(.14 0 0 -.14 46.536 87.258)" id="text_18"><use xlink:href="#DejaVuSans-33"/><use xlink:href="#DejaVuSans-30" x="63.623"/><use xlink:href="#DejaVuSans-30" x="127.246"/><use xlink:href="#DejaVuSans-30" x="190.869"/><use xlink:href="#DejaVuSans-30" x="254.492"/></g></g><g id="ytick_8"><path d="M98.073 47.36h357.12" clip-path="url(#pbe95e6ff0d)" style="fill:none;stroke:#b0b0b0;stroke-width:.3;stroke-linecap:square" id="line2d_26"/><use xlink:href="#macf5f47386" x="98.073" y="47.361" style="fill:#b0b0b0;stroke:#b0b0b0;stroke-width:.3" id="line2d_27"/><g style="fill:#b0b0b0" transform="matrix(.14 0 0 -.14 46.536 52.68)" id="text_19"><use xlink:href="#DejaVuSans-33"/><use xlink:href="#DejaVuSans-35" x="63.623"/><use xlink:href="#DejaVuSans-30" x="127.246"/><use xlink:href="#DejaVuSans-30" x="190.869"/><use xlink:href="#DejaVuSans-30" x="254.492"/></g></g><g style="fill:#b0b0b0" transform="matrix(.14 0 0 -.14 7.2 17.838)" id="text_20"><defs><path id="DejaVuSans-47" d="M3809 666v1253H2778v519h1656V434q-365-259-806-392-440-133-940-133-1094 0-1712 639-617 640-617 1780 0 1144 617 1783 618 639 1712 639 456 0 867-113 411-112 758-331v-672q-350 297-744 447t-828 150q-857 0-1287-478-429-478-429-1425 0-944 429-1422 430-478 1287-478 334 0 596 58 263 58 472 180z" transform="scale(.01563)"/><path id="DejaVuSans-69" d="M603 3500h575V0H603v3500zm0 1363h575v-729H603v729z" transform="scale(.01563)"/><path id="DejaVuSans-74" d="M1172 4494v-994h1184v-447H1172V1153q0-428 117-550t477-122h590V0h-590q-666 0-919 248-253 249-253 905v1900H172v447h422v994h578z" transform="scale(.01563)"/><path id="DejaVuSans-48" d="M628 4666h631V2753h2294v1913h631V0h-631v2222H1259V0H628v4666z" transform="scale(.01563)"/><path id="DejaVuSans-75" d="M544 1381v2119h575V1403q0-497 193-746 194-248 582-248 465 0 735 297 271 297 271 810v1984h575V0h-575v538q-209-319-486-474-276-155-642-155-603 0-916 375-312 375-312 1097zm1447 2203z" transform="scale(.01563)"/><path id="DejaVuSans-62" d="M3116 1747q0 634-261 995t-717 361q-457 0-718-361t-261-995q0-634 261-995t718-361q456 0 717 361t261 995zM1159 2969q182 312 458 463 277 152 661 152 638 0 1036-506 399-506 399-1331T3314 415Q2916-91 2278-91q-384 0-661 152-276 152-458 464V0H581v4863h578V2969z" transform="scale(.01563)"/><path id="DejaVuSans-73" d="M2834 3397v-544q-243 125-506 187-262 63-544 63-428 0-642-131t-214-394q0-200 153-314t616-217l197-44q612-131 870-370t258-667q0-488-386-773Q2250-91 1575-91q-281 0-586 55T347 128v594q319-166 628-249 309-82 613-82 406 0 624 139 219 139 219 392 0 234-158 359-157 125-692 241l-200 47q-534 112-772 345-237 233-237 639 0 494 350 762 350 269 994 269 318 0 599-47 282-46 519-140z" transform="scale(.01563)"/><path id="DejaVuSans-61" d="M2194 1759q-697 0-966-159t-269-544q0-306 202-486 202-179 548-179 479 0 768 339t289 901v128h-572zm1147 238V0h-575v531q-197-318-491-470T1556-91q-537 0-855 302-317 302-317 808 0 590 395 890 396 300 1180 300h807v57q0 397-261 614t-733 217q-300 0-585-72-284-72-546-216v532q315 122 612 182 297 61 578 61 760 0 1135-394 375-393 375-1193z" transform="scale(.01563)"/><path id="DejaVuSans-72" d="M2631 2963q-97 56-211 82-114 27-251 27-488 0-749-317t-261-911V0H581v3500h578v-544q182 319 472 473 291 155 707 155 59 0 131-8 72-7 159-23l3-590z" transform="scale(.01563)"/></defs><use xlink:href="#DejaVuSans-47"/><use xlink:href="#DejaVuSans-69" x="77.49"/><use xlink:href="#DejaVuSans-74" x="105.273"/><use xlink:href="#DejaVuSans-48" x="144.482"/><use xlink:href="#DejaVuSans-75" x="219.678"/><use xlink:href="#DejaVuSans-62" x="283.057"/><use xlink:href="#DejaVuSans-20" x="346.533"/><use xlink:href="#DejaVuSans-73" x="378.32"/><use xlink:href="#DejaVuSans-74" x="430.42"/><use xlink:href="#DejaVuSans-61" x="469.629"/><use xlink:href="#DejaVuSans-72" x="530.908"/><use xlink:href="#DejaVuSans-73" x="572.021"/></g></g><path d="m109.526 289.413 2.934-.035H141.423l2.65-.014h2.935l2.84-.014h5.774l2.933-.007 2.935-.02 2.84-.014 2.933-.014 2.84-.035 2.934-.048 2.934-.014 2.65-.02 2.935-.028 2.84-.035 2.933-.02 2.84-.035 2.934-.014 2.934-.028 2.84-.041 2.934-.07 2.84-.02 2.934-.02 2.934-.05 2.65-.082 2.935-.152 2.84-.056 2.933-.034 2.84-.076 2.934-.049 2.934-.02 2.84-.07 2.934-.055 2.84-.124 2.934-.049 2.934-.041 2.745-.09 2.934-.028 2.84-.11 2.934-.125 2.84-.076 2.933-.11 2.935-.042 2.84-.07 2.933-.062 2.84-.027 2.934-.076 2.934-.063 2.65-.041 2.935-.097 2.84-.097 2.933-.062 2.84-.055 2.934-.056 2.934-.152 2.84-.076 2.934-.131 2.84-.25 2.934-.103 2.934-.173 2.65-.124 2.935-.083 2.84-.076 2.933-.201 2.84-.124 2.934-.09 2.934-.049 2.84-.076 2.934-.083 2.84-.097 2.934-.09 2.934-.09 2.65-.11 2.934-.125 2.84-.076 2.934-.062 2.84-.076 2.934-.076 2.934-.062 2.84-.076 2.934-.063 2.84-.09 2.933-.055 2.935-.11 2.745-.077 2.934-.083 2.84-.062 2.933-.09 2.84-.09 2.934-.048 2.934-.083 2.84-.11 2.934-.077 2.84-.062 2.934-.097 2.934-.138 2.65-.07 2.935-.055 2.84-.076 2.933-.076 2.84-.062 2.934-.028 2.934-.062 2.84-.069 2.934-.07 2.84-.068 2.934-.083 2.934-.028 2.65-.076" clip-path="url(#pbe95e6ff0d)" style="fill:none;stroke:#c5b0d5;stroke-width:1.5;stroke-linecap:square" id="line2d_28"/><path d="m311.323 289.413 2.934-.083 2.65-.049 2.935-.048 2.84-.083 2.933-.056 2.84-.041 2.934-.055 2.934-.139 2.84-.076 2.934-.124 2.84-.11 2.934-.277 2.934-.34 2.65-.158 2.934-.277 2.84-.256 2.934-.463 2.84-.25 2.934-.2 2.934-.124 2.84-.25 2.934-.158 2.84-.152 2.933-.256 2.935-.215 2.745-.256 2.934-.339 2.84-.36 2.933-.442 2.84-.256 2.934-.193 2.934-.194 2.84-.249 2.934-.145 2.84-.16 2.934-.22 2.934-.236 2.65-.159 2.935-.173 2.84-.228 2.933-.207 2.84-.132 2.934-.145 2.934-.187 2.84-.2 2.934-.16 2.84-.11 2.934-.166 2.934-.152 2.65-.145" clip-path="url(#pbe95e6ff0d)" style="fill:none;stroke:#ff9896;stroke-width:1.5;stroke-linecap:square" id="line2d_29"/><path d="m337.163 289.413 2.934-1.57 2.84-7.628 2.934-2.047 2.934-.74 2.65-.332 2.934-.229 2.84-.138 2.934-.166 2.84-.083 2.934-.124 2.934-.132 2.84-.041 2.934-.09 2.84-.055 2.933-.125 2.935-.124 2.745-.118 2.934-.076 2.84-.152 2.933-.118 2.84-.097 2.934-.076 2.934-.11 2.84-.056 2.934-.069 2.84-.29 2.934-.083 2.934-.104 2.65-.097 2.935-.055 2.84-.118 2.933-.27 2.84-.117 2.934-.097 2.934-2.082 2.84-.29 2.934-.076 2.84-.152 2.934-.132 2.934-.055 2.65-.117" clip-path="url(#pbe95e6ff0d)" style="fill:none;stroke:#98df8a;stroke-width:1.5;stroke-linecap:square" id="line2d_30"/><g style="fill:#1f77b4" transform="matrix(.14 0 0 -.14 465.907 21.671)" id="text_21"><defs><path id="DejaVuSans-6c" d="M603 4863h575V0H603v4863z" transform="scale(.01563)"/><path id="DejaVuSans-63" d="M3122 3366v-538q-244 135-489 202t-495 67q-560 0-870-355-309-354-309-995t309-996q310-354 870-354 250 0 495 67t489 202V134Q2881 22 2623-34q-257-57-548-57-791 0-1257 497-465 497-465 1341 0 856 470 1346 471 491 1290 491 265 0 518-55 253-54 491-163z" transform="scale(.01563)"/><path id="DejaVuSans-79" d="M2059-325q-243-625-475-815-231-191-618-191H506v481h338q237 0 368 113 132 112 291 531l103 262L191 3500h609L1894 763l1094 2737h609L2059-325z" transform="scale(.01563)"/><path id="DejaVuSans-2f" d="M1625 4666h531L531-594H0l1625 5260z" transform="scale(.01563)"/></defs><use xlink:href="#DejaVuSans-61"/><use xlink:href="#DejaVuSans-6c" x="61.279"/><use xlink:href="#DejaVuSans-61" x="89.063"/><use xlink:href="#DejaVuSans-63" x="150.342"/><use xlink:href="#DejaVuSans-72" x="205.322"/><use xlink:href="#DejaVuSans-69" x="246.436"/><use xlink:href="#DejaVuSans-74" x="274.219"/><use xlink:href="#DejaVuSans-74" x="313.428"/><use xlink:href="#DejaVuSans-79" x="352.637"/><use xlink:href="#DejaVuSans-2f" x="411.816"/><use xlink:href="#DejaVuSans-61" x="445.508"/><use xlink:href="#DejaVuSans-6c" x="506.787"/><use xlink:href="#DejaVuSans-61" x="534.57"/><use xlink:href="#DejaVuSans-63" x="595.85"/><use xlink:href="#DejaVuSans-72" x="650.83"/><use xlink:href="#DejaVuSans-69" x="691.943"/><use xlink:href="#DejaVuSans-74" x="719.727"/><use xlink:href="#DejaVuSans-74" x="758.936"/><use xlink:href="#DejaVuSans-79" x="798.145"/></g><g style="fill:#ff7f0e" transform="matrix(.14 0 0 -.14 465.907 35.671)" id="text_22"><defs><path id="DejaVuSans-76" d="M191 3500h609L1894 563l1094 2937h609L2284 0h-781L191 3500z" transform="scale(.01563)"/><path id="DejaVuSans-65" d="M3597 1894v-281H953q38-594 358-905t892-311q331 0 642 81t618 244V178Q3153 47 2828-22t-659-69q-838 0-1327 487-489 488-489 1320 0 859 464 1363 464 505 1252 505 706 0 1117-455 411-454 411-1235zm-575 169q-6 471-264 752-258 282-683 282-481 0-770-272t-333-766l2050 4z" transform="scale(.01563)"/><path id="DejaVuSans-68" d="M3513 2113V0h-575v2094q0 497-194 743-194 247-581 247-466 0-735-297-269-296-269-809V0H581v4863h578V2956q207 316 486 472 280 156 646 156 603 0 912-373 310-373 310-1098z" transform="scale(.01563)"/><path id="DejaVuSans-70" d="M1159 525v-1856H581v4831h578v-531q182 312 458 463 277 152 661 152 638 0 1036-506 399-506 399-1331T3314 415Q2916-91 2278-91q-384 0-661 152-276 152-458 464zm1957 1222q0 634-261 995t-717 361q-457 0-718-361t-261-995q0-634 261-995t718-361q456 0 717 361t261 995z" transform="scale(.01563)"/></defs><use xlink:href="#DejaVuSans-76"/><use xlink:href="#DejaVuSans-65" x="59.18"/><use xlink:href="#DejaVuSans-72" x="120.703"/><use xlink:href="#DejaVuSans-63" x="159.566"/><use xlink:href="#DejaVuSans-65" x="214.547"/><use xlink:href="#DejaVuSans-6c" x="276.07"/><use xlink:href="#DejaVuSans-2f" x="303.854"/><use xlink:href="#DejaVuSans-68" x="337.545"/><use xlink:href="#DejaVuSans-79" x="400.924"/><use xlink:href="#DejaVuSans-70" x="460.104"/><use xlink:href="#DejaVuSans-65" x="523.58"/><use xlink:href="#DejaVuSans-72" x="585.104"/></g><g style="fill:#2ca02c" transform="matrix(.14 0 0 -.14 465.907 82.663)" id="text_23"><defs><path id="DejaVuSans-45" d="M628 4666h2950v-532H1259V2753h2222v-531H1259V531h2375V0H628v4666z" transform="scale(.01563)"/><path id="DejaVuSans-67" d="M2906 1791q0 625-258 968-257 344-723 344-462 0-720-344-258-343-258-968 0-622 258-966t720-344q466 0 723 344 258 344 258 966zm575-1357q0-893-397-1329-396-436-1215-436-303 0-572 45t-522 139v559q253-137 500-202 247-66 503-66 566 0 847 295t281 892v285q-178-310-456-463T1784 0Q1141 0 747 490 353 981 353 1791q0 812 394 1302 394 491 1037 491 388 0 666-153t456-462v531h575V434z" transform="scale(.01563)"/><path id="DejaVuSans-6e" d="M3513 2113V0h-575v2094q0 497-194 743-194 247-581 247-466 0-735-297-269-296-269-809V0H581v3500h578v-544q207 316 486 472 280 156 646 156 603 0 912-373 310-373 310-1098z" transform="scale(.01563)"/></defs><use xlink:href="#DejaVuSans-45"/><use xlink:href="#DejaVuSans-75" x="63.184"/><use xlink:href="#DejaVuSans-67" x="126.563"/><use xlink:href="#DejaVuSans-65" x="190.039"/><use xlink:href="#DejaVuSans-6e" x="251.563"/><use xlink:href="#DejaVuSans-79" x="314.941"/><use xlink:href="#DejaVuSans-2f" x="374.121"/><use xlink:href="#DejaVuSans-74" x="407.813"/><use xlink:href="#DejaVuSans-61" x="447.021"/><use xlink:href="#DejaVuSans-62" x="508.301"/><use xlink:href="#DejaVuSans-62" x="571.777"/><use xlink:href="#DejaVuSans-79" x="635.254"/></g><g style="fill:#d62728" transform="matrix(.14 0 0 -.14 465.907 126.19)" id="text_24"><defs><path id="DejaVuSans-6d" d="M3328 2828q216 388 516 572t706 184q547 0 844-383 297-382 297-1088V0h-578v2094q0 503-179 746-178 244-543 244-447 0-707-297-259-296-259-809V0h-578v2094q0 506-178 748t-550 242q-441 0-701-298-259-298-259-808V0H581v3500h578v-544q197 322 472 475t653 153q382 0 649-194 267-193 395-562z" transform="scale(.01563)"/><path id="DejaVuSans-78" d="M3513 3500 2247 1797 3578 0h-678L1881 1375 863 0H184l1360 1831L300 3500h678l928-1247 928 1247h679z" transform="scale(.01563)"/></defs><use xlink:href="#DejaVuSans-74"/><use xlink:href="#DejaVuSans-6d" x="39.209"/><use xlink:href="#DejaVuSans-75" x="136.621"/><use xlink:href="#DejaVuSans-78" x="200"/><use xlink:href="#DejaVuSans-2f" x="259.18"/><use xlink:href="#DejaVuSans-74" x="292.871"/><use xlink:href="#DejaVuSans-6d" x="332.08"/><use xlink:href="#DejaVuSans-75" x="429.492"/><use xlink:href="#DejaVuSans-78" x="492.871"/></g><g style="fill:#9467bd" transform="matrix(.14 0 0 -.14 465.907 158.757)" id="text_25"><defs><path id="DejaVuSans-77" d="M269 3500h575l719-2731 715 2731h678l719-2731 716 2731h575L4050 0h-678l-753 2869L1863 0h-679L269 3500z" transform="scale(.01563)"/></defs><use xlink:href="#DejaVuSans-72"/><use xlink:href="#DejaVuSans-61" x="41.113"/><use xlink:href="#DejaVuSans-69" x="102.393"/><use xlink:href="#DejaVuSans-6c" x="130.176"/><use xlink:href="#DejaVuSans-73" x="157.959"/><use xlink:href="#DejaVuSans-77" x="210.059"/><use xlink:href="#DejaVuSans-61" x="291.846"/><use xlink:href="#DejaVuSans-72" x="353.125"/><use xlink:href="#DejaVuSans-65" x="391.988"/><use xlink:href="#DejaVuSans-2f" x="453.512"/><use xlink:href="#DejaVuSans-75" x="487.203"/><use xlink:href="#DejaVuSans-70" x="550.582"/><use xlink:href="#DejaVuSans-74" x="614.059"/><use xlink:href="#DejaVuSans-65" x="653.268"/><use xlink:href="#DejaVuSans-72" x="714.791"/><use xlink:href="#DejaVuSans-6d" x="754.154"/></g><g style="fill:#8c564b" transform="matrix(.14 0 0 -.14 465.907 182.536)" id="text_26"><defs><path id="DejaVuSans-53" d="M3425 4513v-616q-359 172-678 256-319 85-616 85-515 0-795-200t-280-569q0-310 186-468 186-157 705-254l381-78q706-135 1042-474t336-907q0-679-455-1029Q2797-91 1919-91q-331 0-705 75-373 75-773 222v650q384-215 753-325 369-109 725-109 540 0 834 212 294 213 294 607 0 343-211 537t-692 291l-385 75q-706 140-1022 440-315 300-315 835 0 619 436 975t1201 356q329 0 669-60 341-59 697-177z" transform="scale(.01563)"/><path id="DejaVuSans-6f" d="M1959 3097q-462 0-731-361t-269-989q0-628 267-989 268-361 733-361 460 0 728 362 269 363 269 988 0 622-269 986-268 364-728 364zm0 487q750 0 1178-488 429-487 429-1349 0-859-429-1349Q2709-91 1959-91q-753 0-1180 489-426 490-426 1349 0 862 426 1349 427 488 1180 488z" transform="scale(.01563)"/><path id="DejaVuSans-64" d="M2906 2969v1894h575V0h-575v525q-181-312-458-464-276-152-664-152-634 0-1033 506-398 507-398 1332t398 1331q399 506 1033 506 388 0 664-152 277-151 458-463zM947 1747q0-634 261-995t717-361q456 0 718 361 263 361 263 995t-263 995q-262 361-718 361t-717-361q-261-361-261-995z" transform="scale(.01563)"/><path id="DejaVuSans-66" d="M2375 4863v-479h-550q-309 0-430-125-120-125-120-450v-309h947v-447h-947V0H697v3053H147v447h550v244q0 584 272 851 272 268 862 268h544z" transform="scale(.01563)"/><path id="DejaVuSans-2d" d="M313 2009h1684v-512H313v512z" transform="scale(.01563)"/></defs><use xlink:href="#DejaVuSans-53"/><use xlink:href="#DejaVuSans-77" x="63.477"/><use xlink:href="#DejaVuSans-6f" x="145.264"/><use xlink:href="#DejaVuSans-72" x="206.445"/><use xlink:href="#DejaVuSans-64" x="245.809"/><use xlink:href="#DejaVuSans-66" x="309.285"/><use xlink:href="#DejaVuSans-69" x="344.49"/><use xlink:href="#DejaVuSans-73" x="372.273"/><use xlink:href="#DejaVuSans-68" x="424.373"/><use xlink:href="#DejaVuSans-39" x="487.752"/><use xlink:href="#DejaVuSans-30" x="551.375"/><use xlink:href="#DejaVuSans-2f" x="614.998"/><use xlink:href="#DejaVuSans-63" x="648.689"/><use xlink:href="#DejaVuSans-6f" x="703.67"/><use xlink:href="#DejaVuSans-6f" x="764.852"/><use xlink:href="#DejaVuSans-6c" x="826.033"/><use xlink:href="#DejaVuSans-2d" x="853.816"/><use xlink:href="#DejaVuSans-72" x="889.9"/><use xlink:href="#DejaVuSans-65" x="928.764"/><use xlink:href="#DejaVuSans-74" x="990.287"/><use xlink:href="#DejaVuSans-72" x="1029.496"/><use xlink:href="#DejaVuSans-6f" x="1068.359"/><use xlink:href="#DejaVuSans-2d" x="1131.416"/><use xlink:href="#DejaVuSans-74" x="1167.5"/><use xlink:href="#DejaVuSans-65" x="1206.709"/><use xlink:href="#DejaVuSans-72" x="1268.232"/><use xlink:href="#DejaVuSans-6d" x="1307.596"/></g><g style="fill:#e377c2" transform="matrix(.14 0 0 -.14 465.907 196.536)" id="text_27"><defs><path id="DejaVuSans-6b" d="M581 4863h578V1991l1716 1509h734L1753 1863 3688 0h-750L1159 1709V0H581v4863z" transform="scale(.01563)"/></defs><use xlink:href="#DejaVuSans-6b"/><use xlink:href="#DejaVuSans-6f" x="54.285"/><use xlink:href="#DejaVuSans-76" x="115.467"/><use xlink:href="#DejaVuSans-69" x="174.646"/><use xlink:href="#DejaVuSans-64" x="202.43"/><use xlink:href="#DejaVuSans-67" x="265.906"/><use xlink:href="#DejaVuSans-6f" x="329.383"/><use xlink:href="#DejaVuSans-79" x="390.564"/><use xlink:href="#DejaVuSans-61" x="449.744"/><use xlink:href="#DejaVuSans-6c" x="511.023"/><use xlink:href="#DejaVuSans-2f" x="538.807"/><use xlink:href="#DejaVuSans-6b" x="572.498"/><use xlink:href="#DejaVuSans-69" x="630.408"/><use xlink:href="#DejaVuSans-74" x="658.191"/><use xlink:href="#DejaVuSans-74" x="697.4"/><use xlink:href="#DejaVuSans-79" x="736.609"/></g><g style="fill:#7f7f7f" transform="matrix(.14 0 0 -.14 465.907 220.237)" id="text_28"><defs><path id="DejaVuSans-4d" d="M628 4666h941l1190-3175 1197 3175h941V0h-616v4097L3078 897h-634L1241 4097V0H628v4666z" transform="scale(.01563)"/><path id="DejaVuSans-43" d="M4122 4306v-665q-319 297-680 443-361 147-767 147-800 0-1225-489t-425-1414q0-922 425-1411t1225-489q406 0 767 147t680 444V359q-331-225-702-338-370-112-782-112-1060 0-1670 648-609 649-609 1771 0 1125 609 1773 610 649 1670 649 418 0 788-111 371-111 696-333z" transform="scale(.01563)"/></defs><use xlink:href="#DejaVuSans-4d"/><use xlink:href="#DejaVuSans-61" x="86.279"/><use xlink:href="#DejaVuSans-78" x="147.559"/><use xlink:href="#DejaVuSans-69" x="206.738"/><use xlink:href="#DejaVuSans-6d" x="234.521"/><use xlink:href="#DejaVuSans-75" x="331.934"/><use xlink:href="#DejaVuSans-73" x="395.313"/><use xlink:href="#DejaVuSans-35" x="447.412"/><use xlink:href="#DejaVuSans-2f" x="511.035"/><use xlink:href="#DejaVuSans-43" x="544.727"/><use xlink:href="#DejaVuSans-6f" x="614.551"/><use xlink:href="#DejaVuSans-6e" x="675.732"/><use xlink:href="#DejaVuSans-45" x="739.111"/><use xlink:href="#DejaVuSans-6d" x="802.295"/><use xlink:href="#DejaVuSans-75" x="899.707"/></g><g style="fill:#bcbd22" transform="matrix(.14 0 0 -.14 465.907 234.237)" id="text_29"><use xlink:href="#DejaVuSans-67"/><use xlink:href="#DejaVuSans-6e" x="63.477"/><use xlink:href="#DejaVuSans-75" x="126.855"/><use xlink:href="#DejaVuSans-6e" x="190.234"/><use xlink:href="#DejaVuSans-6e" x="253.613"/><use xlink:href="#DejaVuSans-31" x="316.992"/><use xlink:href="#DejaVuSans-2f" x="380.615"/><use xlink:href="#DejaVuSans-74" x="414.307"/><use xlink:href="#DejaVuSans-69" x="453.516"/><use xlink:href="#DejaVuSans-6c" x="481.299"/><use xlink:href="#DejaVuSans-69" x="509.082"/><use xlink:href="#DejaVuSans-78" x="536.865"/></g><g style="fill:#17becf" transform="matrix(.14 0 0 -.14 465.907 248.237)" id="text_30"><use xlink:href="#DejaVuSans-47"/><use xlink:href="#DejaVuSans-75" x="77.49"/><use xlink:href="#DejaVuSans-61" x="140.869"/><use xlink:href="#DejaVuSans-6b" x="202.148"/><use xlink:href="#DejaVuSans-65" x="256.434"/><use xlink:href="#DejaVuSans-2f" x="317.957"/><use xlink:href="#DejaVuSans-67" x="351.648"/><use xlink:href="#DejaVuSans-75" x="415.125"/><use xlink:href="#DejaVuSans-61" x="478.504"/><use xlink:href="#DejaVuSans-6b" x="539.783"/><use xlink:href="#DejaVuSans-65" x="594.068"/></g><g style="fill:#aec7e8" transform="matrix(.14 0 0 -.14 465.907 262.237)" id="text_31"><defs><path id="DejaVuSans-7a" d="M353 3500h2731v-525L922 459h2162V0H275v525l2163 2516H353v459z" transform="scale(.01563)"/></defs><use xlink:href="#DejaVuSans-77"/><use xlink:href="#DejaVuSans-65" x="81.787"/><use xlink:href="#DejaVuSans-7a" x="143.311"/><use xlink:href="#DejaVuSans-2f" x="195.801"/><use xlink:href="#DejaVuSans-77" x="229.492"/><use xlink:href="#DejaVuSans-65" x="311.279"/><use xlink:href="#DejaVuSans-7a" x="372.803"/><use xlink:href="#DejaVuSans-74" x="425.293"/><use xlink:href="#DejaVuSans-65" x="464.502"/><use xlink:href="#DejaVuSans-72" x="526.025"/><use xlink:href="#DejaVuSans-6d" x="565.389"/></g><g style="fill:#ffbb78" transform="matrix(.14 0 0 -.14 465.907 276.237)" id="text_32"><use xlink:href="#DejaVuSans-74"/><use xlink:href="#DejaVuSans-68" x="39.209"/><use xlink:href="#DejaVuSans-65" x="102.588"/><use xlink:href="#DejaVuSans-73" x="164.111"/><use xlink:href="#DejaVuSans-74" x="216.211"/><use xlink:href="#DejaVuSans-69" x="255.42"/><use xlink:href="#DejaVuSans-6e" x="283.203"/><use xlink:href="#DejaVuSans-67" x="346.582"/><use xlink:href="#DejaVuSans-65" x="410.059"/><use xlink:href="#DejaVuSans-72" x="471.582"/><use xlink:href="#DejaVuSans-2f" x="512.695"/><use xlink:href="#DejaVuSans-74" x="546.387"/><use xlink:href="#DejaVuSans-65" x="585.596"/><use xlink:href="#DejaVuSans-72" x="647.119"/><use xlink:href="#DejaVuSans-6d" x="686.482"/><use xlink:href="#DejaVuSans-69" x="783.895"/><use xlink:href="#DejaVuSans-74" x="811.678"/><use xlink:href="#DejaVuSans-65" x="850.887"/></g><g style="fill:#98df8a" transform="matrix(.14 0 0 -.14 465.907 290.237)" id="text_33"><use xlink:href="#DejaVuSans-6c"/><use xlink:href="#DejaVuSans-69" x="27.783"/><use xlink:href="#DejaVuSans-61" x="55.566"/><use xlink:href="#DejaVuSans-6d" x="116.846"/><use xlink:href="#DejaVuSans-67" x="214.258"/><use xlink:href="#DejaVuSans-2f" x="277.734"/><use xlink:href="#DejaVuSans-64" x="311.426"/><use xlink:href="#DejaVuSans-61" x="374.902"/><use xlink:href="#DejaVuSans-72" x="436.182"/><use xlink:href="#DejaVuSans-6b" x="477.295"/><use xlink:href="#DejaVuSans-74" x="535.205"/><use xlink:href="#DejaVuSans-69" x="574.414"/><use xlink:href="#DejaVuSans-6c" x="602.197"/><use xlink:href="#DejaVuSans-65" x="629.98"/></g><g style="fill:#ff9896" transform="matrix(.14 0 0 -.14 465.907 304.237)" id="text_34"><defs><path id="DejaVuSans-4c" d="M628 4666h631V531h2272V0H628v4666z" transform="scale(.01563)"/></defs><use xlink:href="#DejaVuSans-4c"/><use xlink:href="#DejaVuSans-75" x="53.963"/><use xlink:href="#DejaVuSans-6b" x="117.342"/><use xlink:href="#DejaVuSans-65" x="171.627"/><use xlink:href="#DejaVuSans-53" x="233.15"/><use xlink:href="#DejaVuSans-6d" x="296.627"/><use xlink:href="#DejaVuSans-69" x="394.039"/><use xlink:href="#DejaVuSans-74" x="421.822"/><use xlink:href="#DejaVuSans-68" x="461.031"/><use xlink:href="#DejaVuSans-78" x="524.41"/><use xlink:href="#DejaVuSans-79" x="583.59"/><use xlink:href="#DejaVuSans-7a" x="642.77"/><use xlink:href="#DejaVuSans-2f" x="695.26"/><use xlink:href="#DejaVuSans-73" x="728.951"/><use xlink:href="#DejaVuSans-74" x="781.051"/></g><g style="fill:#c5b0d5" transform="matrix(.14 0 0 -.14 465.907 318.237)" id="text_35"><use xlink:href="#DejaVuSans-6c"/><use xlink:href="#DejaVuSans-61" x="27.783"/><use xlink:href="#DejaVuSans-6e" x="89.063"/><use xlink:href="#DejaVuSans-6f" x="152.441"/><use xlink:href="#DejaVuSans-78" x="210.498"/><use xlink:href="#DejaVuSans-78" x="269.678"/><use xlink:href="#DejaVuSans-2f" x="328.857"/><use xlink:href="#DejaVuSans-74" x="362.549"/><use xlink:href="#DejaVuSans-69" x="401.758"/><use xlink:href="#DejaVuSans-6c" x="429.541"/><use xlink:href="#DejaVuSans-64" x="457.324"/><use xlink:href="#DejaVuSans-61" x="520.801"/></g><g style="fill:#b0b0b0" transform="matrix(.09716 0 0 -.09716 98.073 323.449)" id="text_36"><defs><path id="DejaVuSans-40" d="M2381 1678q0-447 222-702 222-254 610-254 384 0 604 256 221 256 221 700 0 438-225 695-225 258-607 258-378 0-602-256-223-256-223-697zm1703-934q-187-241-429-355t-564-114q-538 0-874 389t-336 1014q0 625 337 1015 338 391 873 391 322 0 565-117 244-117 428-354v409h447V722q457 69 714 417 258 349 258 902 0 334-99 628-98 294-298 544-325 409-792 626t-1017 217q-384 0-738-102-353-101-653-301-490-319-767-836-276-517-276-1120 0-497 179-932 180-434 521-765 328-325 759-495 431-171 922-171 403 0 792 136t714 389l281-347q-390-303-851-464t-936-161q-578 0-1091 205-512 205-912 595Q841 78 631 592q-209 514-209 1105 0 569 212 1084 213 516 607 907 403 396 931 607t1119 211q662 0 1229-272 568-271 952-771 234-307 357-666 124-359 124-744 0-822-497-1297T4084 263v481z" transform="scale(.01563)"/><path id="DejaVuSans-7c" d="M1344 4891v-6400H813v6400h531z" transform="scale(.01563)"/><path id="DejaVuSans-4e" d="M628 4666h850L3547 763v3903h612V0h-850L1241 3903V0H628v4666z" transform="scale(.01563)"/><path id="DejaVuSans-f6" d="M1959 3097q-462 0-731-361t-269-989q0-628 267-989 268-361 733-361 460 0 728 362 269 363 269 988 0 622-269 986-268 364-728 364zm0 487q750 0 1178-488 429-487 429-1349 0-859-429-1349Q2709-91 1959-91q-753 0-1180 489-426 490-426 1349 0 862 426 1349 427 488 1180 488zm295 1266h634v-631h-634v631zm-1222 0h634v-631h-634v631z" transform="scale(.01563)"/><path id="DejaVuSans-42" d="M1259 2228V519h1013q509 0 754 211 246 211 246 645 0 438-246 645-245 208-754 208H1259zm0 1919V2741h935q462 0 688 173 227 174 227 530 0 353-227 528-226 175-688 175h-935zm-631 519h1613q722 0 1112-300 391-300 391-853 0-429-200-682t-588-315q466-100 724-418 258-317 258-792 0-625-425-966Q3088 0 2303 0H628v4666z" transform="scale(.01563)"/><path id="DejaVuSans-59" d="M-13 4666h679l1293-1919 1285 1919h678L2272 2222V0h-634v2222L-13 4666z" transform="scale(.01563)"/></defs><use xlink:href="#DejaVuSans-40"/><use xlink:href="#DejaVuSans-6e" x="100"/><use xlink:href="#DejaVuSans-73" x="163.379"/><use xlink:href="#DejaVuSans-63" x="215.479"/><use xlink:href="#DejaVuSans-68" x="270.459"/><use xlink:href="#DejaVuSans-6c" x="333.838"/><use xlink:href="#DejaVuSans-6f" x="361.621"/><use xlink:href="#DejaVuSans-65" x="422.803"/><use xlink:href="#DejaVuSans-20" x="484.326"/><use xlink:href="#DejaVuSans-2f" x="516.113"/><use xlink:href="#DejaVuSans-20" x="549.805"/><use xlink:href="#DejaVuSans-67" x="581.592"/><use xlink:href="#DejaVuSans-68" x="645.068"/><use xlink:href="#DejaVuSans-2d" x="708.447"/><use xlink:href="#DejaVuSans-74" x="744.531"/><use xlink:href="#DejaVuSans-72" x="783.74"/><use xlink:href="#DejaVuSans-65" x="822.604"/><use xlink:href="#DejaVuSans-6e" x="884.127"/><use xlink:href="#DejaVuSans-64" x="947.506"/><use xlink:href="#DejaVuSans-73" x="1010.982"/><use xlink:href="#DejaVuSans-20" x="1063.082"/><use xlink:href="#DejaVuSans-7c" x="1094.869"/><use xlink:href="#DejaVuSans-20" x="1128.561"/><use xlink:href="#DejaVuSans-4e" x="1160.348"/><use xlink:href="#DejaVuSans-69" x="1235.152"/><use xlink:href="#DejaVuSans-63" x="1262.936"/><use xlink:href="#DejaVuSans-6f" x="1317.916"/><use xlink:href="#DejaVuSans-20" x="1379.098"/><use xlink:href="#DejaVuSans-53" x="1410.885"/><use xlink:href="#DejaVuSans-63" x="1474.361"/><use xlink:href="#DejaVuSans-68" x="1529.342"/><use xlink:href="#DejaVuSans-6c" x="1592.721"/><use xlink:href="#DejaVuSans-f6" x="1620.504"/><use xlink:href="#DejaVuSans-6d" x="1681.686"/><use xlink:href="#DejaVuSans-65" x="1779.098"/><use xlink:href="#DejaVuSans-72" x="1840.621"/><use xlink:href="#DejaVuSans-20" x="1881.734"/><use xlink:href="#DejaVuSans-7c" x="1913.521"/><use xlink:href="#DejaVuSans-20" x="1947.213"/><use xlink:href="#DejaVuSans-43" x="1979"/><use xlink:href="#DejaVuSans-43" x="2048.824"/><use xlink:href="#DejaVuSans-20" x="2118.648"/><use xlink:href="#DejaVuSans-42" x="2150.436"/><use xlink:href="#DejaVuSans-59" x="2213.539"/></g><path d="m115.3 289.413 2.934-.229h8.708l2.84-.007 2.934-.006h8.707l2.65-.07 2.935-.09 2.84-.027 2.934-.049 2.84-.048 2.933-.062 2.935-.132 2.84-.083 2.933-.069 2.84-.048 2.934-.062 2.934-.035 2.65-.062 2.935-.11 2.84-.07 2.933-.083 2.84-.055 2.934-.097 2.934-.076 2.84-.07 2.934-.165 2.84-.097 2.934-.097 2.934-.131 2.65-.07 2.935-.103 2.84-.097 2.933-.16 2.84-.096 2.934-.11 2.934-.16 2.84-.152 2.934-.173 2.84-.207 2.934-.173 2.934-.145 2.745-.18 2.934-.208 2.84-.193 2.934-.146 2.84-.2 2.933-.235 2.935-.215 2.84-.152 2.933-.2 2.84-.173 2.934-.242 2.934-.305 2.65-.283 2.935-.27 2.84-.297 2.933-.263 2.84-.249 2.934-.214 2.934-.208 2.84-.27 2.934-.442 2.84-.374 2.934-.249 2.934-.36 2.65-.331 2.935-.311 2.84-.2 2.933-.278 2.84-.207 2.934-.242 2.934-.208 2.84-.255 2.934-.18 2.84-.318 2.934-.298 2.934-.276 2.65-.346 2.934-.332 2.84-.47 2.934-.29 2.84-.264 2.934-.27 2.934-.186 2.84-.228 2.934-.2 2.84-.201 2.933-.332 2.935-.256 2.745-.2 2.934-.153 2.84-.194 2.933-.304 2.84-.18 2.934-.235 2.934-.2 2.84-.201 2.934-.256 2.84-.221 2.934-.2 2.934-.146 2.65-.118 2.935-.207 2.84-.16 2.933-.359 2.84-.02 2.934-.035 2.934-.055 2.84-.035 2.934-.055 2.84-.056 2.934-.027 2.934-.021h2.65" clip-path="url(#pbe95e6ff0d)" style="fill:none;stroke:#ffbb78;stroke-width:1.5;stroke-linecap:square" id="line2d_31"/><path d="m314.257 289.413 2.65-.035 2.935-.007 2.84-.014h5.773l2.934-.007 2.934-.02 2.84-.007 2.934-.021 2.84-.007 2.934-.007h2.934l2.65-.048 2.934-.042 2.84-.02 2.934-.07 2.84-.055 2.934-.028 2.934-.055 2.84-.02 2.934-.07 2.84-.124 2.933-.201 2.935-.166 2.745-.145 2.934-.076 2.84-.187 2.933-.09 2.84-.83 2.934-.138 2.934-.125 2.84-.29 2.934-.187 2.84-.442 2.934-.567 2.934-.374 2.65-.387 2.935-.816 2.84-5.644 2.933-1.189 2.84-.512 2.934-.906 2.934-.885 2.84-1.217 2.934-.754 2.84-.975 2.934-2.856 2.934-1.605 2.65-1.826" clip-path="url(#pbe95e6ff0d)" style="fill:none;stroke:#aec7e8;stroke-width:1.5;stroke-linecap:square" id="line2d_32"/><path d="m115.3 289.413 2.934-.132h23.189l2.65-.007 2.935-.034 2.84-.097 2.934-.076 2.84-.062 2.933-.077 2.935-.186 2.84-.132 2.933-.09 2.84-.076 2.934-.076 2.934-.124 2.65-.152 2.935-.132 2.84-.221 2.933-.194 2.84-.131 2.934-.152 2.934-.235 2.84-.16 2.934-.207 2.84-.173 2.934-.145 2.934-.235 2.65-.152 2.935-.242 2.84-.16 2.933-.463 2.84-.145 2.934-.339 2.934-.207 2.84-.2 2.934-.23 2.84-.366 2.934-.186 2.934-.29 2.745-.243 2.934-.256 2.84-.346 2.934-.193 2.84-.277 2.933-.263 2.935-.29 2.84-.304 2.933-.277 2.84-.346 2.934-.29 2.934-.311 2.65-.263 2.935-.34 2.84-.338 2.933-.367 2.84-.31 2.934-.305 2.934-.346 2.84-.283 2.934-.332 2.84-.318 2.934-.298 2.934-.47 2.65-.429 2.935-.387 2.84-.457 2.933-.498 2.84-.27 2.934-.345 2.934-.346 2.84-.256 2.934-.366 2.84-.305 2.934-.38 2.934-.401 2.65-.256 2.934-.304 2.84-.277 2.934-.38 2.84-.305 2.934-.366 2.934-.235 2.84-.152 2.934-.25 2.84-.331 2.933-.208 2.935-.29 2.745-.25 2.934-.421 2.84-.235 2.933-.208 2.84-.221 2.934-.194 2.934-.29 2.84-.16 2.934-.234 2.84-.194 2.934-.187 2.934-.166 2.65-.22 2.935-.367 2.84-.25 2.933-.255 2.84-.104 2.934-.214 2.934-.153 2.84-.186 2.934-.242 2.84-.235 2.934-.18 2.934-.208 2.65-.159" clip-path="url(#pbe95e6ff0d)" style="fill:none;stroke:#17becf;stroke-width:1.5;stroke-linecap:square" id="line2d_33"/><path d="m242.133 289.413 2.934-.623 2.745-.47 2.934-.657 2.84-.512 2.934-.401 2.84-.249 2.933-.526 2.935-.331 2.84-.284 2.933-.422 2.84-.484 2.934-.373 2.934-.768 2.65-.685 2.935-.643 2.84-.802 2.933-.706 2.84-.435 2.934-.99 2.934-1.14 2.84-.408 2.934-.602 2.84-.526 2.934-.428 2.934-.395 2.65-.415 2.935-.615 2.84-.47 2.933-.443 2.84-.45 2.934-.366 2.934-.436 2.84-.339 2.934-.428 2.84-.464 2.934-.394 2.934-.823 2.65-.512 2.934-.525 2.84-.484 2.934-.699 2.84-.664 2.934-.429 2.934-.539 2.84-.311 2.934-.367 2.84-.352 2.933-.388 2.935-.408 2.745-.4 2.934-.381 2.84-.464 2.933-.463 2.84-.36 2.934-.318 2.934-.228 2.84-.442 2.934-.36 2.84-.367 2.934-.27 2.934-.407 2.65-.284 2.935-.332 2.84-.373 2.933-.353 2.84-.242 2.934-.187 2.934-.228 2.84-.263 2.934-.193 2.84-.25 2.934-.283 2.934-.242 2.65-.194" clip-path="url(#pbe95e6ff0d)" style="fill:none;stroke:#bcbd22;stroke-width:1.5;stroke-linecap:square" id="line2d_34"/><path d="m98.073 289.413 2.84-.014h63.417l2.933-.007 2.84-.11 2.934-.035 2.934-.042 2.65-.124 2.935-.125 2.84-.235 2.933-.118 2.84-.138 2.934-.263 2.934-.166 2.84-.242 2.934-.332 2.84-.228 2.934-.366 2.934-.319 2.65-.248 2.935-.692 2.84-.65 2.933-.664 2.84-.906 2.934-.892 2.934-.885 2.84-.754 2.934-.879 2.84-.809 2.934-.643 2.934-.816 2.745-.698 2.934-.879 2.84-.636 2.934-.615 2.84-.727 2.933-.594 2.935-.81 2.84-.677 2.933-.643 2.84-.664 2.934-.699 2.934-.636 2.65-.678 2.935-.844 2.84-.733 2.933-.56 2.84-.608 2.934-.567 2.934-.623 2.84-.685 2.934-.67 2.84-.706 2.934-.636 2.934-.754 2.65-.525 2.935-.692 2.84-.747 2.933-.754 2.84-.857 2.934-.699 2.934-.83 2.84-.712 2.934-.553 2.84-.609 2.934-.602 2.934-.816 2.65-.698 2.934-.913 2.84-.747 2.934-.802 2.84-.533 2.934-.574 2.934-.56 2.84-.422 2.934-.394 2.84-.38 2.933-.491 2.935-.415 2.745-.394 2.934-.54 2.84-.525 2.933-.457 2.84-.442 2.934-.34 2.934-.4 2.84-.326 2.934-.49 2.84-.415 2.934-.36 2.934-.491 2.65-.332 2.935-.408 2.84-.408 2.933-.311 2.84-.256 2.934-.346 2.934-.263 2.84-.318 2.934-.422 2.84-.263 2.934-.352 2.934-.284 2.65-.221" clip-path="url(#pbe95e6ff0d)" style="fill:none;stroke:#7f7f7f;stroke-width:1.5;stroke-linecap:square" id="line2d_35"/><path d="m273.84 289.413 2.935-.014 2.934-4.8 2.65-.256 2.935-.2 2.84-.132 2.933-.186 2.84-.242 2.934-.298 2.934-.408 2.84-.38 2.934-.422 2.84-1.625 2.934-.913 2.934-2.033 2.65-1.86 2.935-1.695 2.84-2.545 2.933-2.566 2.84-1.12 2.934-1.535 2.934-1.245 2.84-7.857 2.934-1.528 2.84-1.515 2.934-1.265 2.934-1.487 2.65-1.75 2.934-1.556 2.84-1.48 2.934-1.577 2.84-1.12 2.934-1.355 2.934-2.068 2.84-1.01 2.934-1.521 2.84-1.26 2.933-1.016 2.935-1.328 2.745-1.293 2.934-1.424 2.84-1.467 2.933-1.334 2.84-1.114 2.934-1.169 2.934-1.161 2.84-1.273 2.934-2.206 2.84-1.335 2.934-1.334 2.934-1.91 2.65-1.23 2.935-1.688 2.84-1.777 2.933-2.068 2.84-1.577 2.934-1.556 2.934-1.715 2.84-1.549 2.934-1.5 2.84-2.656 2.934-2.303 2.934-2.822 2.65-2.683" clip-path="url(#pbe95e6ff0d)" style="fill:none;stroke:#e377c2;stroke-width:1.5;stroke-linecap:square" id="line2d_36"/><path d="m170.103 289.413 2.934-.076 2.934-.042 2.65-.007h2.935l2.84-.02 2.933-.008 2.84-.006 2.934-4.655 2.934-2.566 2.84-1.168 2.934-6.37 2.84-.636 2.934-.712 2.934-.643 2.65-3.79 2.935-.927 2.84-.325 2.933-.38 2.84-.485 2.934-.421 2.934-.402 2.84-.525 2.934-.546 2.84-.602 2.934-.533 2.934-.387 2.745-.56 2.934-.56 2.84-1.01 2.934-.436 2.84-.684 2.933-1.68 2.935-.734 2.84-.58 2.933-.679 2.84-.553 2.934-.401 2.934-.595 2.65-.615 2.935-.457 2.84-.871 2.933-.754 2.84-.401 2.934-.332 2.934-.678 2.84-.484 2.934-7.628 2.84-2.732 2.934-.92 2.934-.947 2.65-.864 2.935-.934 2.84-.864 2.933-1.28 2.84-2.427 2.934-1.294 2.934-.885 2.84-.823 2.934-.892 2.84-.885 2.934-1.155 2.934-1.113 2.65-.955 2.934-1.743 2.84-1.736 2.934-1.403 2.84-.92 2.934-1.017 2.934-1.272 2.84-.906 2.934-1.134 2.84-2.442 2.933-.837 2.935-1.279 2.745-1.162 2.934-1.003 2.84-1.113 2.933-1.528 2.84-1.01 2.934-1.55 2.934-1.258 2.84-2.15 2.934-1.246 2.84-1.092 2.934-1.051 2.934-1.162 2.65-1.003 2.935-1.95 2.84-1.12 2.933-.748 2.84-.74 2.934-.753 2.934-.768 2.84-.94 2.934-1.1 2.84-1.466 2.934-1.356 2.934-1.224 2.65-1.093" clip-path="url(#pbe95e6ff0d)" style="fill:none;stroke:#8c564b;stroke-width:1.5;stroke-linecap:square" id="line2d_37"/><path d="m216.104 289.413 2.84-.007h2.933l2.84-.007h2.934l2.934-.014 2.84-36.273 2.934-2.407 2.84-.968 2.934-.664 2.934-.747 2.745-1.259 2.934-.926 2.84-.789 2.934-25.146 2.84-6.307 2.933-6.127 2.935-1.563 2.84-1.494 2.933-1.348 2.84-1.501 2.934-2.103 2.934-1.3 2.65-1.902 2.935-1.424 2.84-1.425 2.933-7.51 2.84-1.017 2.934-1.044 2.934-1.273 2.84-4.626 2.934-1.674 2.84-1.051 2.934-.996 2.934-1.701 2.65-.927 2.935-1.784 2.84-1.058 2.933-.969 2.84-.816 2.934-.767 2.934-.727 2.84-.781 2.934-.775 2.84-.885 2.934-.712 2.934-.789 2.65-.995 2.934-.782 2.84-.747 2.934-.726 2.84-.207 2.934-.166 2.934-.215 2.84-.076 2.934-.187 2.84-.103 2.933-.132 2.935-.159 2.745-.145 2.934-.083 2.84-.2 2.933-.09 2.84-.083 2.934-.125 2.934-.09 2.84-.173 2.934-.11 2.84-.097 2.934-.07 2.934-.117 2.65-.07 2.935-.096 2.84-.076 2.933-.076 2.84-.07 2.934-.103 2.934-.083 2.84-.118 2.934-.083 2.84-.069 2.934-.076 2.934-.055 2.65-.083" clip-path="url(#pbe95e6ff0d)" style="fill:none;stroke:#9467bd;stroke-width:1.5;stroke-linecap:square" id="line2d_38"/><path d="m221.877 289.413 2.84-15.796 2.934-1.037 2.934-1.065 2.84-.858 2.934-1.763 2.84-1.508 2.934-.982 2.934-.865 2.745-.968 2.934-1.106 2.84-1.01 2.934-1.404 2.84-1.19 2.933-1.05 2.935-1.01 2.84-1.266L271 255.11l2.84-1.092 2.934-1.038 2.934-1.23 2.65-1.163 2.935-1.41 2.84-1.273 2.933-1.39 2.84-1.874 2.934-2.137 2.934-2.082 2.84-2.054 2.934-2.586 2.84-2.11 2.934-1.846 2.934-2.096 2.65-1.84 2.935-1.97 2.84-2.075 2.933-2.33 2.84-1.93 2.934-1.77 2.934-1.881 2.84-2.089 2.934-2.047 2.84-2.248 2.934-2.137 2.934-2.206 2.65-1.922 2.934-2.38 2.84-2.662 2.934-2.51 2.84-2.234 2.934-2.31 2.934-1.874 2.84-1.847 2.934-2.178 2.84-2.22 2.933-2.144 2.935-2.068 2.745-2.13 2.934-2.49 2.84-3.236 2.933-2.953 2.84-2.282 2.934-2.11 2.934-1.86 2.84-1.867 2.934-2.061 2.84-2.442 2.934-2.226 2.934-2.144 2.65-1.82 2.935-1.929 2.84-3.222 2.933-2.78 2.84-2.006 2.934-2.144 2.934-2.469 2.84-2.739 2.934-1.978 2.84-1.888 2.934-2.171 2.934-1.784 2.65-1.798" clip-path="url(#pbe95e6ff0d)" style="fill:none;stroke:#d62728;stroke-width:1.5;stroke-linecap:square" id="line2d_39"/><path d="m291.067 289.413 2.84-.485 2.934-9.114 2.934-.823 2.84-.526 2.934-.443 2.84-.38 2.934-.733 2.934-.526 2.65-.511 2.935-1.01 2.84-.602 2.933-.76 2.84-.692 2.934-.63 2.934-.795 2.84-.85 2.934-.817 2.84-2.344 2.934-7.67 2.934-3.679 2.65-2.704 2.934-3.402 2.84-2.981 2.934-15.484 2.84-5.582 2.934-3.499 2.934-3.057 2.84-2.821 2.934-2.241 2.84-2.98 2.933-2.359 2.935-1.999 2.745-2.49 2.934-2.254 2.84-3.216 2.933-2.96 2.84-3.381 2.934-2.38 2.934-2.143 2.84-1.778 2.934-2.068 2.84-2.233 2.934-2.76 2.934-2.745 2.65-2.29 2.935-2.579 2.84-2.255 2.933-2.282 2.84-2.614 2.934-3.008 2.934-3.168 2.84-2.642 2.934-2.247 2.84-3.617 2.934-51.1 2.934-13.556 2.65-6.348" clip-path="url(#pbe95e6ff0d)" style="fill:none;stroke:#2ca02c;stroke-width:1.5;stroke-linecap:square" id="line2d_40"/><path d="m259.36 289.413 2.933-43.362 2.935-8.189 2.84-3.713 2.933-5.823 2.84-4.254 2.934-20.595 2.934-6.106 2.65-4.254 2.935-5.484 2.84-3.264 2.933-3.562 2.84-3.617 2.934-3.423 2.934-3.368 2.84-3.513 2.934-3.493 2.84-3.368 2.934-3.036 2.934-3.824 2.65-2.918 2.935-3.472 2.84-6.045 2.933-5.594 2.84-4.032 2.934-3.3 2.934-3.132 2.84-2.642 2.934-2.51 2.84-2.76 2.934-3.195 2.934-3.52 2.65-2.614 2.934-3.278 2.84-3.098 2.934-8.057 2.84-3.749 2.934-2.226 2.934-2.303 2.84-2.089 2.934-4.322 2.84-1.999 2.933-1.798 2.935-1.833 2.745-1.888 2.934-1.867 2.84-1.93 2.933-2.296 2.84-1.867 2.934-1.826 2.934-1.694 2.84-1.577 2.934-1.832 2.84-2.117 2.934-1.991 2.934-1.68 2.65-1.516 2.935-1.84 2.84-1.493 2.933-1.584 2.84-1.431 2.934-2.317 2.934-2.068 2.84-1.874 2.934-2.254 2.84-1.73 2.934-2.123 2.934-1.77 2.65-1.798" clip-path="url(#pbe95e6ff0d)" style="fill:none;stroke:#ff7f0e;stroke-width:1.5;stroke-linecap:square" id="line2d_41"/><path d="m245.067 289.413 2.745-.014h5.774l2.934-.014 2.84-.007h8.708l2.933-.007 2.84-.007 2.934-.007 2.934-29.24 2.65-2.98 2.935-2.047 2.84-1.91 2.933-1.728 2.84-1.273 2.934-2.171 2.934-2.054 2.84-1.68 2.934-2.954 2.84-2.62 2.934-2.22 2.934-4.275 2.65-3.651 2.935-2.78 2.84-3.472 2.933-2.206 2.84-1.909 2.934-3.154 2.934-2.78 2.84-3.388 2.934-2.967 2.84-3.569 2.934-3.209 2.934-3.056 2.65-2.49 2.934-4.011 2.84-4.662 2.934-4.66 2.84-3.52 2.934-3.12 2.934-3.983 2.84-3.099 2.934-3.285 2.84-2.911 2.933-2.746 2.935-2.8 2.745-5.063 2.934-3.838 2.84-4.966 2.933-5.588 2.84-4.772 2.934-4.336 2.934-5.18 2.84-4.343 2.934-4.64 2.84-7.545 2.934-11.557 2.934-5.193 2.65-3.825 2.935-4.032 2.84-3.713 2.933-12.885 2.84-3.603 2.934-4.433 2.934-4.813 2.84-3.797 2.934-3.748 2.84-4.17 2.934-6.3 2.934-4.828 2.65-4.308" clip-path="url(#pbe95e6ff0d)" style="fill:none;stroke:#1f77b4;stroke-width:1.5;stroke-linecap:square" id="line2d_42"/></g></g><defs><clipPath id="pbe95e6ff0d"><path d="M98.073 23.301h357.12v266.112H98.073z"/></clipPath></defs></svg>