<?xml version="1.0" encoding="utf-8" standalone="no"?>
<!DOCTYPE svg PUBLIC "-//W3C//DTD SVG 1.1//EN"
  "http://www.w3.org/Graphics/SVG/1.1/DTD/svg11.dtd">
<svg xmlns:xlink="http://www.w3.org/1999/xlink" width="610.072662pt" height="333.014133pt" viewBox="0 0 610.072662 333.014133" xmlns="http://www.w3.org/2000/svg" version="1.1">
 <metadata>
  <rdf:RDF xmlns:dc="http://purl.org/dc/elements/1.1/" xmlns:cc="http://creativecommons.org/ns#" xmlns:rdf="http://www.w3.org/1999/02/22-rdf-syntax-ns#">
   <cc:Work>
    <dc:type rdf:resource="http://purl.org/dc/dcmitype/StillImage"/>
    <dc:date>2022-05-01T14:41:58.055447</dc:date>
    <dc:format>image/svg+xml</dc:format>
    <dc:creator>
     <cc:Agent>
      <dc:title>Matplotlib v3.5.1, https://matplotlib.org/</dc:title>
     </cc:Agent>
    </dc:creator>
   </cc:Work>
  </rdf:RDF>
 </metadata>
 <defs>
  <style type="text/css">*{stroke-linejoin: round; stroke-linecap: butt}</style>
 </defs>
 <g id="figure_1">
  <g id="patch_1">
   <path d="M 0 333.014133 
L 610.072662 333.014133 
L 610.072662 0 
L 0 0 
L 0 333.014133 
z
" style="fill: none"/>
  </g>
  <g id="axes_1">
   <g id="patch_2">
    <path d="M 98.073125 289.486933 
L 455.193125 289.486933 
L 455.193125 23.374933 
L 98.073125 23.374933 
L 98.073125 289.486933 
z
" style="fill: none"/>
   </g>
   <g id="matplotlib.axis_1">
    <g id="xtick_1">
     <g id="line2d_1">
      <defs>
       <path id="m0e5a4dd807" d="M 0 0 
L 0 3.5 
" style="stroke: #b0b0b0; stroke-width: 0.4"/>
      </defs>
      <g>
       <use xlink:href="#m0e5a4dd807" x="128.327947" y="289.486933" style="fill: #b0b0b0; stroke: #b0b0b0; stroke-width: 0.4"/>
      </g>
     </g>
     <g id="text_1">
      <!-- 2016 -->
      <g style="fill: #b0b0b0" transform="translate(110.512947 307.124745)scale(0.14 -0.14)">
       <defs>
        <path id="DejaVuSans-32" d="M 1228 531 
L 3431 531 
L 3431 0 
L 469 0 
L 469 531 
Q 828 903 1448 1529 
Q 2069 2156 2228 2338 
Q 2531 2678 2651 2914 
Q 2772 3150 2772 3378 
Q 2772 3750 2511 3984 
Q 2250 4219 1831 4219 
Q 1534 4219 1204 4116 
Q 875 4013 500 3803 
L 500 4441 
Q 881 4594 1212 4672 
Q 1544 4750 1819 4750 
Q 2544 4750 2975 4387 
Q 3406 4025 3406 3419 
Q 3406 3131 3298 2873 
Q 3191 2616 2906 2266 
Q 2828 2175 2409 1742 
Q 1991 1309 1228 531 
z
" transform="scale(0.015625)"/>
        <path id="DejaVuSans-30" d="M 2034 4250 
Q 1547 4250 1301 3770 
Q 1056 3291 1056 2328 
Q 1056 1369 1301 889 
Q 1547 409 2034 409 
Q 2525 409 2770 889 
Q 3016 1369 3016 2328 
Q 3016 3291 2770 3770 
Q 2525 4250 2034 4250 
z
M 2034 4750 
Q 2819 4750 3233 4129 
Q 3647 3509 3647 2328 
Q 3647 1150 3233 529 
Q 2819 -91 2034 -91 
Q 1250 -91 836 529 
Q 422 1150 422 2328 
Q 422 3509 836 4129 
Q 1250 4750 2034 4750 
z
" transform="scale(0.015625)"/>
        <path id="DejaVuSans-31" d="M 794 531 
L 1825 531 
L 1825 4091 
L 703 3866 
L 703 4441 
L 1819 4666 
L 2450 4666 
L 2450 531 
L 3481 531 
L 3481 0 
L 794 0 
L 794 531 
z
" transform="scale(0.015625)"/>
        <path id="DejaVuSans-36" d="M 2113 2584 
Q 1688 2584 1439 2293 
Q 1191 2003 1191 1497 
Q 1191 994 1439 701 
Q 1688 409 2113 409 
Q 2538 409 2786 701 
Q 3034 994 3034 1497 
Q 3034 2003 2786 2293 
Q 2538 2584 2113 2584 
z
M 3366 4563 
L 3366 3988 
Q 3128 4100 2886 4159 
Q 2644 4219 2406 4219 
Q 1781 4219 1451 3797 
Q 1122 3375 1075 2522 
Q 1259 2794 1537 2939 
Q 1816 3084 2150 3084 
Q 2853 3084 3261 2657 
Q 3669 2231 3669 1497 
Q 3669 778 3244 343 
Q 2819 -91 2113 -91 
Q 1303 -91 875 529 
Q 447 1150 447 2328 
Q 447 3434 972 4092 
Q 1497 4750 2381 4750 
Q 2619 4750 2861 4703 
Q 3103 4656 3366 4563 
z
" transform="scale(0.015625)"/>
       </defs>
       <use xlink:href="#DejaVuSans-32"/>
       <use xlink:href="#DejaVuSans-30" x="63.623047"/>
       <use xlink:href="#DejaVuSans-31" x="127.246094"/>
       <use xlink:href="#DejaVuSans-36" x="190.869141"/>
      </g>
     </g>
    </g>
    <g id="xtick_2">
     <g id="line2d_2">
      <g>
       <use xlink:href="#m0e5a4dd807" x="180.072175" y="289.486933" style="fill: #b0b0b0; stroke: #b0b0b0; stroke-width: 0.4"/>
      </g>
     </g>
     <g id="text_2">
      <!-- 2017 -->
      <g style="fill: #b0b0b0" transform="translate(162.257175 307.124745)scale(0.14 -0.14)">
       <defs>
        <path id="DejaVuSans-37" d="M 525 4666 
L 3525 4666 
L 3525 4397 
L 1831 0 
L 1172 0 
L 2766 4134 
L 525 4134 
L 525 4666 
z
" transform="scale(0.015625)"/>
       </defs>
       <use xlink:href="#DejaVuSans-32"/>
       <use xlink:href="#DejaVuSans-30" x="63.623047"/>
       <use xlink:href="#DejaVuSans-31" x="127.246094"/>
       <use xlink:href="#DejaVuSans-37" x="190.869141"/>
      </g>
     </g>
    </g>
    <g id="xtick_3">
     <g id="line2d_3">
      <g>
       <use xlink:href="#m0e5a4dd807" x="231.675025" y="289.486933" style="fill: #b0b0b0; stroke: #b0b0b0; stroke-width: 0.4"/>
      </g>
     </g>
     <g id="text_3">
      <!-- 2018 -->
      <g style="fill: #b0b0b0" transform="translate(213.860025 307.124745)scale(0.14 -0.14)">
       <defs>
        <path id="DejaVuSans-38" d="M 2034 2216 
Q 1584 2216 1326 1975 
Q 1069 1734 1069 1313 
Q 1069 891 1326 650 
Q 1584 409 2034 409 
Q 2484 409 2743 651 
Q 3003 894 3003 1313 
Q 3003 1734 2745 1975 
Q 2488 2216 2034 2216 
z
M 1403 2484 
Q 997 2584 770 2862 
Q 544 3141 544 3541 
Q 544 4100 942 4425 
Q 1341 4750 2034 4750 
Q 2731 4750 3128 4425 
Q 3525 4100 3525 3541 
Q 3525 3141 3298 2862 
Q 3072 2584 2669 2484 
Q 3125 2378 3379 2068 
Q 3634 1759 3634 1313 
Q 3634 634 3220 271 
Q 2806 -91 2034 -91 
Q 1263 -91 848 271 
Q 434 634 434 1313 
Q 434 1759 690 2068 
Q 947 2378 1403 2484 
z
M 1172 3481 
Q 1172 3119 1398 2916 
Q 1625 2713 2034 2713 
Q 2441 2713 2670 2916 
Q 2900 3119 2900 3481 
Q 2900 3844 2670 4047 
Q 2441 4250 2034 4250 
Q 1625 4250 1398 4047 
Q 1172 3844 1172 3481 
z
" transform="scale(0.015625)"/>
       </defs>
       <use xlink:href="#DejaVuSans-32"/>
       <use xlink:href="#DejaVuSans-30" x="63.623047"/>
       <use xlink:href="#DejaVuSans-31" x="127.246094"/>
       <use xlink:href="#DejaVuSans-38" x="190.869141"/>
      </g>
     </g>
    </g>
    <g id="xtick_4">
     <g id="line2d_4">
      <g>
       <use xlink:href="#m0e5a4dd807" x="283.277876" y="289.486933" style="fill: #b0b0b0; stroke: #b0b0b0; stroke-width: 0.4"/>
      </g>
     </g>
     <g id="text_4">
      <!-- 2019 -->
      <g style="fill: #b0b0b0" transform="translate(265.462876 307.124745)scale(0.14 -0.14)">
       <defs>
        <path id="DejaVuSans-39" d="M 703 97 
L 703 672 
Q 941 559 1184 500 
Q 1428 441 1663 441 
Q 2288 441 2617 861 
Q 2947 1281 2994 2138 
Q 2813 1869 2534 1725 
Q 2256 1581 1919 1581 
Q 1219 1581 811 2004 
Q 403 2428 403 3163 
Q 403 3881 828 4315 
Q 1253 4750 1959 4750 
Q 2769 4750 3195 4129 
Q 3622 3509 3622 2328 
Q 3622 1225 3098 567 
Q 2575 -91 1691 -91 
Q 1453 -91 1209 -44 
Q 966 3 703 97 
z
M 1959 2075 
Q 2384 2075 2632 2365 
Q 2881 2656 2881 3163 
Q 2881 3666 2632 3958 
Q 2384 4250 1959 4250 
Q 1534 4250 1286 3958 
Q 1038 3666 1038 3163 
Q 1038 2656 1286 2365 
Q 1534 2075 1959 2075 
z
" transform="scale(0.015625)"/>
       </defs>
       <use xlink:href="#DejaVuSans-32"/>
       <use xlink:href="#DejaVuSans-30" x="63.623047"/>
       <use xlink:href="#DejaVuSans-31" x="127.246094"/>
       <use xlink:href="#DejaVuSans-39" x="190.869141"/>
      </g>
     </g>
    </g>
    <g id="xtick_5">
     <g id="line2d_5">
      <g>
       <use xlink:href="#m0e5a4dd807" x="334.880726" y="289.486933" style="fill: #b0b0b0; stroke: #b0b0b0; stroke-width: 0.4"/>
      </g>
     </g>
     <g id="text_5">
      <!-- 2020 -->
      <g style="fill: #b0b0b0" transform="translate(317.065726 307.124745)scale(0.14 -0.14)">
       <use xlink:href="#DejaVuSans-32"/>
       <use xlink:href="#DejaVuSans-30" x="63.623047"/>
       <use xlink:href="#DejaVuSans-32" x="127.246094"/>
       <use xlink:href="#DejaVuSans-30" x="190.869141"/>
      </g>
     </g>
    </g>
    <g id="xtick_6">
     <g id="line2d_6">
      <g>
       <use xlink:href="#m0e5a4dd807" x="386.624954" y="289.486933" style="fill: #b0b0b0; stroke: #b0b0b0; stroke-width: 0.4"/>
      </g>
     </g>
     <g id="text_6">
      <!-- 2021 -->
      <g style="fill: #b0b0b0" transform="translate(368.809954 307.124745)scale(0.14 -0.14)">
       <use xlink:href="#DejaVuSans-32"/>
       <use xlink:href="#DejaVuSans-30" x="63.623047"/>
       <use xlink:href="#DejaVuSans-32" x="127.246094"/>
       <use xlink:href="#DejaVuSans-31" x="190.869141"/>
      </g>
     </g>
    </g>
    <g id="xtick_7">
     <g id="line2d_7">
      <g>
       <use xlink:href="#m0e5a4dd807" x="438.227804" y="289.486933" style="fill: #b0b0b0; stroke: #b0b0b0; stroke-width: 0.4"/>
      </g>
     </g>
     <g id="text_7">
      <!-- 2022 -->
      <g style="fill: #b0b0b0" transform="translate(420.412804 307.124745)scale(0.14 -0.14)">
       <use xlink:href="#DejaVuSans-32"/>
       <use xlink:href="#DejaVuSans-30" x="63.623047"/>
       <use xlink:href="#DejaVuSans-32" x="127.246094"/>
       <use xlink:href="#DejaVuSans-32" x="190.869141"/>
      </g>
     </g>
    </g>
   </g>
   <g id="matplotlib.axis_2">
    <g id="ytick_1">
     <g id="line2d_8">
      <path d="M 98.073125 289.486933 
L 455.193125 289.486933 
" clip-path="url(#pa29400ffb2)" style="fill: none; stroke: #b0b0b0; stroke-width: 0.3; stroke-linecap: square"/>
     </g>
     <g id="line2d_9">
      <defs>
       <path id="m16a7fefa5a" d="M 0 0 
L -3.5 0 
" style="stroke: #b0b0b0; stroke-width: 0.3"/>
      </defs>
      <g>
       <use xlink:href="#m16a7fefa5a" x="98.073125" y="289.486933" style="fill: #b0b0b0; stroke: #b0b0b0; stroke-width: 0.3"/>
      </g>
     </g>
     <g id="text_8">
      <!-- 0 -->
      <g style="fill: #b0b0b0" transform="translate(82.165625 294.805839)scale(0.14 -0.14)">
       <use xlink:href="#DejaVuSans-30"/>
      </g>
     </g>
    </g>
    <g id="ytick_2">
     <g id="line2d_10">
      <path d="M 98.073125 259.221138 
L 455.193125 259.221138 
" clip-path="url(#pa29400ffb2)" style="fill: none; stroke: #b0b0b0; stroke-width: 0.3; stroke-linecap: square"/>
     </g>
     <g id="line2d_11">
      <g>
       <use xlink:href="#m16a7fefa5a" x="98.073125" y="259.221138" style="fill: #b0b0b0; stroke: #b0b0b0; stroke-width: 0.3"/>
      </g>
     </g>
     <g id="text_9">
      <!-- 10000 -->
      <g style="fill: #b0b0b0" transform="translate(46.535625 264.540044)scale(0.14 -0.14)">
       <use xlink:href="#DejaVuSans-31"/>
       <use xlink:href="#DejaVuSans-30" x="63.623047"/>
       <use xlink:href="#DejaVuSans-30" x="127.246094"/>
       <use xlink:href="#DejaVuSans-30" x="190.869141"/>
       <use xlink:href="#DejaVuSans-30" x="254.492188"/>
      </g>
     </g>
    </g>
    <g id="ytick_3">
     <g id="line2d_12">
      <path d="M 98.073125 228.955343 
L 455.193125 228.955343 
" clip-path="url(#pa29400ffb2)" style="fill: none; stroke: #b0b0b0; stroke-width: 0.3; stroke-linecap: square"/>
     </g>
     <g id="line2d_13">
      <g>
       <use xlink:href="#m16a7fefa5a" x="98.073125" y="228.955343" style="fill: #b0b0b0; stroke: #b0b0b0; stroke-width: 0.3"/>
      </g>
     </g>
     <g id="text_10">
      <!-- 20000 -->
      <g style="fill: #b0b0b0" transform="translate(46.535625 234.27425)scale(0.14 -0.14)">
       <use xlink:href="#DejaVuSans-32"/>
       <use xlink:href="#DejaVuSans-30" x="63.623047"/>
       <use xlink:href="#DejaVuSans-30" x="127.246094"/>
       <use xlink:href="#DejaVuSans-30" x="190.869141"/>
       <use xlink:href="#DejaVuSans-30" x="254.492188"/>
      </g>
     </g>
    </g>
    <g id="ytick_4">
     <g id="line2d_14">
      <path d="M 98.073125 198.689549 
L 455.193125 198.689549 
" clip-path="url(#pa29400ffb2)" style="fill: none; stroke: #b0b0b0; stroke-width: 0.3; stroke-linecap: square"/>
     </g>
     <g id="line2d_15">
      <g>
       <use xlink:href="#m16a7fefa5a" x="98.073125" y="198.689549" style="fill: #b0b0b0; stroke: #b0b0b0; stroke-width: 0.3"/>
      </g>
     </g>
     <g id="text_11">
      <!-- 30000 -->
      <g style="fill: #b0b0b0" transform="translate(46.535625 204.008455)scale(0.14 -0.14)">
       <defs>
        <path id="DejaVuSans-33" d="M 2597 2516 
Q 3050 2419 3304 2112 
Q 3559 1806 3559 1356 
Q 3559 666 3084 287 
Q 2609 -91 1734 -91 
Q 1441 -91 1130 -33 
Q 819 25 488 141 
L 488 750 
Q 750 597 1062 519 
Q 1375 441 1716 441 
Q 2309 441 2620 675 
Q 2931 909 2931 1356 
Q 2931 1769 2642 2001 
Q 2353 2234 1838 2234 
L 1294 2234 
L 1294 2753 
L 1863 2753 
Q 2328 2753 2575 2939 
Q 2822 3125 2822 3475 
Q 2822 3834 2567 4026 
Q 2313 4219 1838 4219 
Q 1578 4219 1281 4162 
Q 984 4106 628 3988 
L 628 4550 
Q 988 4650 1302 4700 
Q 1616 4750 1894 4750 
Q 2613 4750 3031 4423 
Q 3450 4097 3450 3541 
Q 3450 3153 3228 2886 
Q 3006 2619 2597 2516 
z
" transform="scale(0.015625)"/>
       </defs>
       <use xlink:href="#DejaVuSans-33"/>
       <use xlink:href="#DejaVuSans-30" x="63.623047"/>
       <use xlink:href="#DejaVuSans-30" x="127.246094"/>
       <use xlink:href="#DejaVuSans-30" x="190.869141"/>
       <use xlink:href="#DejaVuSans-30" x="254.492188"/>
      </g>
     </g>
    </g>
    <g id="ytick_5">
     <g id="line2d_16">
      <path d="M 98.073125 168.423754 
L 455.193125 168.423754 
" clip-path="url(#pa29400ffb2)" style="fill: none; stroke: #b0b0b0; stroke-width: 0.3; stroke-linecap: square"/>
     </g>
     <g id="line2d_17">
      <g>
       <use xlink:href="#m16a7fefa5a" x="98.073125" y="168.423754" style="fill: #b0b0b0; stroke: #b0b0b0; stroke-width: 0.3"/>
      </g>
     </g>
     <g id="text_12">
      <!-- 40000 -->
      <g style="fill: #b0b0b0" transform="translate(46.535625 173.74266)scale(0.14 -0.14)">
       <defs>
        <path id="DejaVuSans-34" d="M 2419 4116 
L 825 1625 
L 2419 1625 
L 2419 4116 
z
M 2253 4666 
L 3047 4666 
L 3047 1625 
L 3713 1625 
L 3713 1100 
L 3047 1100 
L 3047 0 
L 2419 0 
L 2419 1100 
L 313 1100 
L 313 1709 
L 2253 4666 
z
" transform="scale(0.015625)"/>
       </defs>
       <use xlink:href="#DejaVuSans-34"/>
       <use xlink:href="#DejaVuSans-30" x="63.623047"/>
       <use xlink:href="#DejaVuSans-30" x="127.246094"/>
       <use xlink:href="#DejaVuSans-30" x="190.869141"/>
       <use xlink:href="#DejaVuSans-30" x="254.492188"/>
      </g>
     </g>
    </g>
    <g id="ytick_6">
     <g id="line2d_18">
      <path d="M 98.073125 138.157959 
L 455.193125 138.157959 
" clip-path="url(#pa29400ffb2)" style="fill: none; stroke: #b0b0b0; stroke-width: 0.3; stroke-linecap: square"/>
     </g>
     <g id="line2d_19">
      <g>
       <use xlink:href="#m16a7fefa5a" x="98.073125" y="138.157959" style="fill: #b0b0b0; stroke: #b0b0b0; stroke-width: 0.3"/>
      </g>
     </g>
     <g id="text_13">
      <!-- 50000 -->
      <g style="fill: #b0b0b0" transform="translate(46.535625 143.476865)scale(0.14 -0.14)">
       <defs>
        <path id="DejaVuSans-35" d="M 691 4666 
L 3169 4666 
L 3169 4134 
L 1269 4134 
L 1269 2991 
Q 1406 3038 1543 3061 
Q 1681 3084 1819 3084 
Q 2600 3084 3056 2656 
Q 3513 2228 3513 1497 
Q 3513 744 3044 326 
Q 2575 -91 1722 -91 
Q 1428 -91 1123 -41 
Q 819 9 494 109 
L 494 744 
Q 775 591 1075 516 
Q 1375 441 1709 441 
Q 2250 441 2565 725 
Q 2881 1009 2881 1497 
Q 2881 1984 2565 2268 
Q 2250 2553 1709 2553 
Q 1456 2553 1204 2497 
Q 953 2441 691 2322 
L 691 4666 
z
" transform="scale(0.015625)"/>
       </defs>
       <use xlink:href="#DejaVuSans-35"/>
       <use xlink:href="#DejaVuSans-30" x="63.623047"/>
       <use xlink:href="#DejaVuSans-30" x="127.246094"/>
       <use xlink:href="#DejaVuSans-30" x="190.869141"/>
       <use xlink:href="#DejaVuSans-30" x="254.492188"/>
      </g>
     </g>
    </g>
    <g id="ytick_7">
     <g id="line2d_20">
      <path d="M 98.073125 107.892164 
L 455.193125 107.892164 
" clip-path="url(#pa29400ffb2)" style="fill: none; stroke: #b0b0b0; stroke-width: 0.3; stroke-linecap: square"/>
     </g>
     <g id="line2d_21">
      <g>
       <use xlink:href="#m16a7fefa5a" x="98.073125" y="107.892164" style="fill: #b0b0b0; stroke: #b0b0b0; stroke-width: 0.3"/>
      </g>
     </g>
     <g id="text_14">
      <!-- 60000 -->
      <g style="fill: #b0b0b0" transform="translate(46.535625 113.211071)scale(0.14 -0.14)">
       <use xlink:href="#DejaVuSans-36"/>
       <use xlink:href="#DejaVuSans-30" x="63.623047"/>
       <use xlink:href="#DejaVuSans-30" x="127.246094"/>
       <use xlink:href="#DejaVuSans-30" x="190.869141"/>
       <use xlink:href="#DejaVuSans-30" x="254.492188"/>
      </g>
     </g>
    </g>
    <g id="ytick_8">
     <g id="line2d_22">
      <path d="M 98.073125 77.62637 
L 455.193125 77.62637 
" clip-path="url(#pa29400ffb2)" style="fill: none; stroke: #b0b0b0; stroke-width: 0.3; stroke-linecap: square"/>
     </g>
     <g id="line2d_23">
      <g>
       <use xlink:href="#m16a7fefa5a" x="98.073125" y="77.62637" style="fill: #b0b0b0; stroke: #b0b0b0; stroke-width: 0.3"/>
      </g>
     </g>
     <g id="text_15">
      <!-- 70000 -->
      <g style="fill: #b0b0b0" transform="translate(46.535625 82.945276)scale(0.14 -0.14)">
       <use xlink:href="#DejaVuSans-37"/>
       <use xlink:href="#DejaVuSans-30" x="63.623047"/>
       <use xlink:href="#DejaVuSans-30" x="127.246094"/>
       <use xlink:href="#DejaVuSans-30" x="190.869141"/>
       <use xlink:href="#DejaVuSans-30" x="254.492188"/>
      </g>
     </g>
    </g>
    <g id="ytick_9">
     <g id="line2d_24">
      <path d="M 98.073125 47.360575 
L 455.193125 47.360575 
" clip-path="url(#pa29400ffb2)" style="fill: none; stroke: #b0b0b0; stroke-width: 0.3; stroke-linecap: square"/>
     </g>
     <g id="line2d_25">
      <g>
       <use xlink:href="#m16a7fefa5a" x="98.073125" y="47.360575" style="fill: #b0b0b0; stroke: #b0b0b0; stroke-width: 0.3"/>
      </g>
     </g>
     <g id="text_16">
      <!-- 80000 -->
      <g style="fill: #b0b0b0" transform="translate(46.535625 52.679481)scale(0.14 -0.14)">
       <use xlink:href="#DejaVuSans-38"/>
       <use xlink:href="#DejaVuSans-30" x="63.623047"/>
       <use xlink:href="#DejaVuSans-30" x="127.246094"/>
       <use xlink:href="#DejaVuSans-30" x="190.869141"/>
       <use xlink:href="#DejaVuSans-30" x="254.492188"/>
      </g>
     </g>
    </g>
    <g id="text_17">
     <!-- GitHub stars -->
     <g style="fill: #b0b0b0" transform="translate(7.2 17.837812)scale(0.14 -0.14)">
      <defs>
       <path id="DejaVuSans-47" d="M 3809 666 
L 3809 1919 
L 2778 1919 
L 2778 2438 
L 4434 2438 
L 4434 434 
Q 4069 175 3628 42 
Q 3188 -91 2688 -91 
Q 1594 -91 976 548 
Q 359 1188 359 2328 
Q 359 3472 976 4111 
Q 1594 4750 2688 4750 
Q 3144 4750 3555 4637 
Q 3966 4525 4313 4306 
L 4313 3634 
Q 3963 3931 3569 4081 
Q 3175 4231 2741 4231 
Q 1884 4231 1454 3753 
Q 1025 3275 1025 2328 
Q 1025 1384 1454 906 
Q 1884 428 2741 428 
Q 3075 428 3337 486 
Q 3600 544 3809 666 
z
" transform="scale(0.015625)"/>
       <path id="DejaVuSans-69" d="M 603 3500 
L 1178 3500 
L 1178 0 
L 603 0 
L 603 3500 
z
M 603 4863 
L 1178 4863 
L 1178 4134 
L 603 4134 
L 603 4863 
z
" transform="scale(0.015625)"/>
       <path id="DejaVuSans-74" d="M 1172 4494 
L 1172 3500 
L 2356 3500 
L 2356 3053 
L 1172 3053 
L 1172 1153 
Q 1172 725 1289 603 
Q 1406 481 1766 481 
L 2356 481 
L 2356 0 
L 1766 0 
Q 1100 0 847 248 
Q 594 497 594 1153 
L 594 3053 
L 172 3053 
L 172 3500 
L 594 3500 
L 594 4494 
L 1172 4494 
z
" transform="scale(0.015625)"/>
       <path id="DejaVuSans-48" d="M 628 4666 
L 1259 4666 
L 1259 2753 
L 3553 2753 
L 3553 4666 
L 4184 4666 
L 4184 0 
L 3553 0 
L 3553 2222 
L 1259 2222 
L 1259 0 
L 628 0 
L 628 4666 
z
" transform="scale(0.015625)"/>
       <path id="DejaVuSans-75" d="M 544 1381 
L 544 3500 
L 1119 3500 
L 1119 1403 
Q 1119 906 1312 657 
Q 1506 409 1894 409 
Q 2359 409 2629 706 
Q 2900 1003 2900 1516 
L 2900 3500 
L 3475 3500 
L 3475 0 
L 2900 0 
L 2900 538 
Q 2691 219 2414 64 
Q 2138 -91 1772 -91 
Q 1169 -91 856 284 
Q 544 659 544 1381 
z
M 1991 3584 
L 1991 3584 
z
" transform="scale(0.015625)"/>
       <path id="DejaVuSans-62" d="M 3116 1747 
Q 3116 2381 2855 2742 
Q 2594 3103 2138 3103 
Q 1681 3103 1420 2742 
Q 1159 2381 1159 1747 
Q 1159 1113 1420 752 
Q 1681 391 2138 391 
Q 2594 391 2855 752 
Q 3116 1113 3116 1747 
z
M 1159 2969 
Q 1341 3281 1617 3432 
Q 1894 3584 2278 3584 
Q 2916 3584 3314 3078 
Q 3713 2572 3713 1747 
Q 3713 922 3314 415 
Q 2916 -91 2278 -91 
Q 1894 -91 1617 61 
Q 1341 213 1159 525 
L 1159 0 
L 581 0 
L 581 4863 
L 1159 4863 
L 1159 2969 
z
" transform="scale(0.015625)"/>
       <path id="DejaVuSans-20" transform="scale(0.015625)"/>
       <path id="DejaVuSans-73" d="M 2834 3397 
L 2834 2853 
Q 2591 2978 2328 3040 
Q 2066 3103 1784 3103 
Q 1356 3103 1142 2972 
Q 928 2841 928 2578 
Q 928 2378 1081 2264 
Q 1234 2150 1697 2047 
L 1894 2003 
Q 2506 1872 2764 1633 
Q 3022 1394 3022 966 
Q 3022 478 2636 193 
Q 2250 -91 1575 -91 
Q 1294 -91 989 -36 
Q 684 19 347 128 
L 347 722 
Q 666 556 975 473 
Q 1284 391 1588 391 
Q 1994 391 2212 530 
Q 2431 669 2431 922 
Q 2431 1156 2273 1281 
Q 2116 1406 1581 1522 
L 1381 1569 
Q 847 1681 609 1914 
Q 372 2147 372 2553 
Q 372 3047 722 3315 
Q 1072 3584 1716 3584 
Q 2034 3584 2315 3537 
Q 2597 3491 2834 3397 
z
" transform="scale(0.015625)"/>
       <path id="DejaVuSans-61" d="M 2194 1759 
Q 1497 1759 1228 1600 
Q 959 1441 959 1056 
Q 959 750 1161 570 
Q 1363 391 1709 391 
Q 2188 391 2477 730 
Q 2766 1069 2766 1631 
L 2766 1759 
L 2194 1759 
z
M 3341 1997 
L 3341 0 
L 2766 0 
L 2766 531 
Q 2569 213 2275 61 
Q 1981 -91 1556 -91 
Q 1019 -91 701 211 
Q 384 513 384 1019 
Q 384 1609 779 1909 
Q 1175 2209 1959 2209 
L 2766 2209 
L 2766 2266 
Q 2766 2663 2505 2880 
Q 2244 3097 1772 3097 
Q 1472 3097 1187 3025 
Q 903 2953 641 2809 
L 641 3341 
Q 956 3463 1253 3523 
Q 1550 3584 1831 3584 
Q 2591 3584 2966 3190 
Q 3341 2797 3341 1997 
z
" transform="scale(0.015625)"/>
       <path id="DejaVuSans-72" d="M 2631 2963 
Q 2534 3019 2420 3045 
Q 2306 3072 2169 3072 
Q 1681 3072 1420 2755 
Q 1159 2438 1159 1844 
L 1159 0 
L 581 0 
L 581 3500 
L 1159 3500 
L 1159 2956 
Q 1341 3275 1631 3429 
Q 1922 3584 2338 3584 
Q 2397 3584 2469 3576 
Q 2541 3569 2628 3553 
L 2631 2963 
z
" transform="scale(0.015625)"/>
      </defs>
      <use xlink:href="#DejaVuSans-47"/>
      <use xlink:href="#DejaVuSans-69" x="77.490234"/>
      <use xlink:href="#DejaVuSans-74" x="105.273438"/>
      <use xlink:href="#DejaVuSans-48" x="144.482422"/>
      <use xlink:href="#DejaVuSans-75" x="219.677734"/>
      <use xlink:href="#DejaVuSans-62" x="283.056641"/>
      <use xlink:href="#DejaVuSans-20" x="346.533203"/>
      <use xlink:href="#DejaVuSans-73" x="378.320312"/>
      <use xlink:href="#DejaVuSans-74" x="430.419922"/>
      <use xlink:href="#DejaVuSans-61" x="469.628906"/>
      <use xlink:href="#DejaVuSans-72" x="530.908203"/>
      <use xlink:href="#DejaVuSans-73" x="572.021484"/>
     </g>
    </g>
   </g>
   <g id="line2d_26">
    <path d="M 98.073125 289.486933 
L 102.314455 289.456667 
L 106.697163 289.396135 
L 111.079871 289.335604 
L 115.321201 289.172168 
L 119.703909 289.051105 
L 123.945239 288.890697 
L 128.327947 288.678836 
L 132.710655 288.385258 
L 136.810607 288.118919 
L 141.193315 287.897978 
L 145.434645 287.652826 
L 149.817353 287.017244 
L 154.058683 286.681294 
L 158.441391 286.417981 
L 162.824099 286.133483 
L 167.065429 285.679496 
L 171.448137 285.343545 
L 175.689467 285.037861 
L 180.072175 284.735203 
L 184.454883 284.444651 
L 188.413458 284.166206 
L 192.796165 283.824203 
L 197.037496 283.442853 
L 201.420203 283.209807 
L 205.661534 282.99492 
L 210.044241 282.7649 
L 214.426949 282.556066 
L 218.668279 282.30486 
L 223.050987 282.0476 
L 227.292317 281.841793 
L 231.675025 281.635986 
L 236.057733 281.466497 
L 240.016308 281.345434 
L 244.399016 281.142653 
L 248.640346 280.967111 
L 253.023054 280.830915 
L 257.264384 280.703799 
L 261.647092 280.55247 
L 266.0298 280.425354 
L 270.27113 280.334556 
L 274.653838 280.204413 
L 278.895168 280.128749 
L 283.277876 280.034925 
L 287.660583 279.947154 
L 291.619158 279.877543 
L 296.001866 279.810958 
L 300.243196 279.759506 
L 304.625904 279.680815 
L 308.867234 279.620284 
L 313.249942 279.511327 
L 317.63265 279.456848 
L 321.87398 279.414476 
L 326.256688 279.359998 
L 330.498018 279.308546 
L 334.880726 279.229855 
L 339.263434 279.145111 
L 343.363386 279.04826 
L 347.746094 278.975622 
L 351.987424 278.890878 
L 356.370132 278.833373 
L 360.611462 278.781921 
L 364.99417 278.724416 
L 369.376878 278.651778 
L 373.618208 278.591247 
L 378.000916 278.518609 
L 382.242246 278.488343 
L 386.624954 278.379386 
L 391.007662 278.318854 
L 394.966237 278.258323 
L 399.348944 278.212924 
L 403.590275 278.179632 
L 407.972982 278.12818 
L 412.214313 278.094888 
L 416.59702 278.046462 
L 420.979728 278.007117 
L 425.221058 277.964745 
L 429.603766 277.922373 
L 433.845096 277.864868 
L 438.227804 277.822495 
L 442.610512 277.761964 
L 446.569087 277.743804 
L 450.951795 277.707485 
L 455.193125 277.665113 
" clip-path="url(#pa29400ffb2)" style="fill: none; stroke: #bcbd22; stroke-width: 1.5; stroke-linecap: square"/>
   </g>
   <g id="line2d_27">
    <path d="M 227.292317 289.486933 
L 231.675025 289.477853 
L 236.057733 284.205552 
L 240.016308 283.591156 
L 244.399016 283.152302 
L 248.640346 282.846617 
L 253.023054 282.583305 
L 257.264384 282.347232 
L 261.647092 282.044574 
L 266.0298 281.832713 
L 270.27113 281.693491 
L 274.653838 281.451364 
L 278.895168 281.278849 
L 283.277876 281.100281 
L 287.660583 280.691693 
L 291.619158 280.45562 
L 296.001866 280.307317 
L 300.243196 280.152962 
L 304.625904 280.050058 
L 308.867234 279.959261 
L 313.249942 279.835171 
L 317.63265 279.72924 
L 321.87398 279.650549 
L 326.256688 279.52646 
L 330.498018 279.450795 
L 334.880726 279.344865 
L 339.263434 279.096685 
L 343.363386 278.993782 
L 347.746094 278.875745 
L 351.987424 278.621512 
L 356.370132 278.503476 
L 360.611462 278.406625 
L 364.99417 278.270429 
L 369.376878 278.203844 
L 373.618208 278.100941 
L 378.000916 277.90724 
L 382.242246 277.807363 
L 386.624954 277.746831 
L 391.007662 277.689326 
L 394.966237 277.643927 
L 399.348944 277.568263 
L 403.590275 277.510758 
L 407.972982 277.483519 
L 412.214313 277.407854 
L 416.59702 277.377588 
L 420.979728 277.359429 
L 425.221058 277.326136 
L 429.603766 277.292844 
L 433.845096 277.253498 
L 438.227804 277.150595 
L 442.610512 277.126382 
L 446.569087 277.099143 
L 450.951795 277.059797 
L 455.193125 277.002292 
" clip-path="url(#pa29400ffb2)" style="fill: none; stroke: #7f7f7f; stroke-width: 1.5; stroke-linecap: square"/>
   </g>
   <g id="line2d_28">
    <path d="M 227.292317 289.486933 
L 231.675025 289.054132 
L 236.057733 287.798101 
L 240.016308 287.616507 
L 244.399016 287.437938 
L 248.640346 287.280556 
L 253.023054 287.186732 
L 257.264384 287.026324 
L 261.647092 286.699453 
L 266.0298 286.548124 
L 270.27113 286.33929 
L 274.653838 286.206121 
L 278.895168 286.045712 
L 283.277876 285.848984 
L 287.660583 285.752134 
L 291.619158 285.561459 
L 296.001866 285.443423 
L 300.243196 284.59598 
L 304.625904 283.246126 
L 308.867234 282.244328 
L 313.249942 281.263716 
L 317.63265 280.494965 
L 321.87398 279.674762 
L 326.256688 278.833373 
L 330.498018 278.255296 
L 334.880726 277.604582 
L 339.263434 276.908468 
L 343.363386 276.176036 
L 347.746094 275.45571 
L 351.987424 274.729331 
L 356.370132 274.024138 
L 360.611462 273.291706 
L 364.99417 272.535061 
L 369.376878 271.896453 
L 373.618208 271.230605 
L 378.000916 270.60713 
L 382.242246 270.189462 
L 386.624954 269.805086 
L 391.007662 269.278462 
L 394.966237 268.869873 
L 399.348944 268.482471 
L 403.590275 268.264557 
L 407.972982 268.128361 
L 412.214313 268.031511 
L 416.59702 267.94374 
L 420.979728 267.810571 
L 425.221058 267.716747 
L 429.603766 267.647135 
L 433.845096 267.565418 
L 438.227804 267.486727 
L 442.610512 267.423168 
L 446.569087 267.35961 
L 450.951795 267.317238 
L 455.193125 267.26276 
" clip-path="url(#pa29400ffb2)" style="fill: none; stroke: #e377c2; stroke-width: 1.5; stroke-linecap: square"/>
   </g>
   <g id="text_18">
    <!-- vercel/next.js -->
    <g style="fill: #1f77b4" transform="translate(465.906725 27.238058)scale(0.14 -0.14)">
     <defs>
      <path id="DejaVuSans-76" d="M 191 3500 
L 800 3500 
L 1894 563 
L 2988 3500 
L 3597 3500 
L 2284 0 
L 1503 0 
L 191 3500 
z
" transform="scale(0.015625)"/>
      <path id="DejaVuSans-65" d="M 3597 1894 
L 3597 1613 
L 953 1613 
Q 991 1019 1311 708 
Q 1631 397 2203 397 
Q 2534 397 2845 478 
Q 3156 559 3463 722 
L 3463 178 
Q 3153 47 2828 -22 
Q 2503 -91 2169 -91 
Q 1331 -91 842 396 
Q 353 884 353 1716 
Q 353 2575 817 3079 
Q 1281 3584 2069 3584 
Q 2775 3584 3186 3129 
Q 3597 2675 3597 1894 
z
M 3022 2063 
Q 3016 2534 2758 2815 
Q 2500 3097 2075 3097 
Q 1594 3097 1305 2825 
Q 1016 2553 972 2059 
L 3022 2063 
z
" transform="scale(0.015625)"/>
      <path id="DejaVuSans-63" d="M 3122 3366 
L 3122 2828 
Q 2878 2963 2633 3030 
Q 2388 3097 2138 3097 
Q 1578 3097 1268 2742 
Q 959 2388 959 1747 
Q 959 1106 1268 751 
Q 1578 397 2138 397 
Q 2388 397 2633 464 
Q 2878 531 3122 666 
L 3122 134 
Q 2881 22 2623 -34 
Q 2366 -91 2075 -91 
Q 1284 -91 818 406 
Q 353 903 353 1747 
Q 353 2603 823 3093 
Q 1294 3584 2113 3584 
Q 2378 3584 2631 3529 
Q 2884 3475 3122 3366 
z
" transform="scale(0.015625)"/>
      <path id="DejaVuSans-6c" d="M 603 4863 
L 1178 4863 
L 1178 0 
L 603 0 
L 603 4863 
z
" transform="scale(0.015625)"/>
      <path id="DejaVuSans-2f" d="M 1625 4666 
L 2156 4666 
L 531 -594 
L 0 -594 
L 1625 4666 
z
" transform="scale(0.015625)"/>
      <path id="DejaVuSans-6e" d="M 3513 2113 
L 3513 0 
L 2938 0 
L 2938 2094 
Q 2938 2591 2744 2837 
Q 2550 3084 2163 3084 
Q 1697 3084 1428 2787 
Q 1159 2491 1159 1978 
L 1159 0 
L 581 0 
L 581 3500 
L 1159 3500 
L 1159 2956 
Q 1366 3272 1645 3428 
Q 1925 3584 2291 3584 
Q 2894 3584 3203 3211 
Q 3513 2838 3513 2113 
z
" transform="scale(0.015625)"/>
      <path id="DejaVuSans-78" d="M 3513 3500 
L 2247 1797 
L 3578 0 
L 2900 0 
L 1881 1375 
L 863 0 
L 184 0 
L 1544 1831 
L 300 3500 
L 978 3500 
L 1906 2253 
L 2834 3500 
L 3513 3500 
z
" transform="scale(0.015625)"/>
      <path id="DejaVuSans-2e" d="M 684 794 
L 1344 794 
L 1344 0 
L 684 0 
L 684 794 
z
" transform="scale(0.015625)"/>
      <path id="DejaVuSans-6a" d="M 603 3500 
L 1178 3500 
L 1178 -63 
Q 1178 -731 923 -1031 
Q 669 -1331 103 -1331 
L -116 -1331 
L -116 -844 
L 38 -844 
Q 366 -844 484 -692 
Q 603 -541 603 -63 
L 603 3500 
z
M 603 4863 
L 1178 4863 
L 1178 4134 
L 603 4134 
L 603 4863 
z
" transform="scale(0.015625)"/>
     </defs>
     <use xlink:href="#DejaVuSans-76"/>
     <use xlink:href="#DejaVuSans-65" x="59.179688"/>
     <use xlink:href="#DejaVuSans-72" x="120.703125"/>
     <use xlink:href="#DejaVuSans-63" x="159.566406"/>
     <use xlink:href="#DejaVuSans-65" x="214.546875"/>
     <use xlink:href="#DejaVuSans-6c" x="276.070312"/>
     <use xlink:href="#DejaVuSans-2f" x="303.853516"/>
     <use xlink:href="#DejaVuSans-6e" x="337.544922"/>
     <use xlink:href="#DejaVuSans-65" x="400.923828"/>
     <use xlink:href="#DejaVuSans-78" x="460.697266"/>
     <use xlink:href="#DejaVuSans-74" x="519.876953"/>
     <use xlink:href="#DejaVuSans-2e" x="559.085938"/>
     <use xlink:href="#DejaVuSans-6a" x="590.873047"/>
     <use xlink:href="#DejaVuSans-73" x="618.65625"/>
    </g>
   </g>
   <g id="text_19">
    <!-- gatsbyjs/gatsby -->
    <g style="fill: #ff7f0e" transform="translate(465.906725 130.889325)scale(0.14 -0.14)">
     <defs>
      <path id="DejaVuSans-67" d="M 2906 1791 
Q 2906 2416 2648 2759 
Q 2391 3103 1925 3103 
Q 1463 3103 1205 2759 
Q 947 2416 947 1791 
Q 947 1169 1205 825 
Q 1463 481 1925 481 
Q 2391 481 2648 825 
Q 2906 1169 2906 1791 
z
M 3481 434 
Q 3481 -459 3084 -895 
Q 2688 -1331 1869 -1331 
Q 1566 -1331 1297 -1286 
Q 1028 -1241 775 -1147 
L 775 -588 
Q 1028 -725 1275 -790 
Q 1522 -856 1778 -856 
Q 2344 -856 2625 -561 
Q 2906 -266 2906 331 
L 2906 616 
Q 2728 306 2450 153 
Q 2172 0 1784 0 
Q 1141 0 747 490 
Q 353 981 353 1791 
Q 353 2603 747 3093 
Q 1141 3584 1784 3584 
Q 2172 3584 2450 3431 
Q 2728 3278 2906 2969 
L 2906 3500 
L 3481 3500 
L 3481 434 
z
" transform="scale(0.015625)"/>
      <path id="DejaVuSans-79" d="M 2059 -325 
Q 1816 -950 1584 -1140 
Q 1353 -1331 966 -1331 
L 506 -1331 
L 506 -850 
L 844 -850 
Q 1081 -850 1212 -737 
Q 1344 -625 1503 -206 
L 1606 56 
L 191 3500 
L 800 3500 
L 1894 763 
L 2988 3500 
L 3597 3500 
L 2059 -325 
z
" transform="scale(0.015625)"/>
     </defs>
     <use xlink:href="#DejaVuSans-67"/>
     <use xlink:href="#DejaVuSans-61" x="63.476562"/>
     <use xlink:href="#DejaVuSans-74" x="124.755859"/>
     <use xlink:href="#DejaVuSans-73" x="163.964844"/>
     <use xlink:href="#DejaVuSans-62" x="216.064453"/>
     <use xlink:href="#DejaVuSans-79" x="279.541016"/>
     <use xlink:href="#DejaVuSans-6a" x="338.720703"/>
     <use xlink:href="#DejaVuSans-73" x="366.503906"/>
     <use xlink:href="#DejaVuSans-2f" x="418.603516"/>
     <use xlink:href="#DejaVuSans-67" x="452.294922"/>
     <use xlink:href="#DejaVuSans-61" x="515.771484"/>
     <use xlink:href="#DejaVuSans-74" x="577.050781"/>
     <use xlink:href="#DejaVuSans-73" x="616.259766"/>
     <use xlink:href="#DejaVuSans-62" x="668.359375"/>
     <use xlink:href="#DejaVuSans-79" x="731.835938"/>
    </g>
   </g>
   <g id="text_20">
    <!-- nuxt/nuxt.js -->
    <g style="fill: #2ca02c" transform="translate(465.906725 169.045412)scale(0.14 -0.14)">
     <use xlink:href="#DejaVuSans-6e"/>
     <use xlink:href="#DejaVuSans-75" x="63.378906"/>
     <use xlink:href="#DejaVuSans-78" x="126.757812"/>
     <use xlink:href="#DejaVuSans-74" x="185.9375"/>
     <use xlink:href="#DejaVuSans-2f" x="225.146484"/>
     <use xlink:href="#DejaVuSans-6e" x="258.837891"/>
     <use xlink:href="#DejaVuSans-75" x="322.216797"/>
     <use xlink:href="#DejaVuSans-78" x="385.595703"/>
     <use xlink:href="#DejaVuSans-74" x="444.775391"/>
     <use xlink:href="#DejaVuSans-2e" x="483.984375"/>
     <use xlink:href="#DejaVuSans-6a" x="515.771484"/>
     <use xlink:href="#DejaVuSans-73" x="543.554688"/>
    </g>
   </g>
   <g id="text_21">
    <!-- redwoodjs/redwood -->
    <g style="fill: #d62728" transform="translate(465.906725 234.363911)scale(0.14 -0.14)">
     <defs>
      <path id="DejaVuSans-64" d="M 2906 2969 
L 2906 4863 
L 3481 4863 
L 3481 0 
L 2906 0 
L 2906 525 
Q 2725 213 2448 61 
Q 2172 -91 1784 -91 
Q 1150 -91 751 415 
Q 353 922 353 1747 
Q 353 2572 751 3078 
Q 1150 3584 1784 3584 
Q 2172 3584 2448 3432 
Q 2725 3281 2906 2969 
z
M 947 1747 
Q 947 1113 1208 752 
Q 1469 391 1925 391 
Q 2381 391 2643 752 
Q 2906 1113 2906 1747 
Q 2906 2381 2643 2742 
Q 2381 3103 1925 3103 
Q 1469 3103 1208 2742 
Q 947 2381 947 1747 
z
" transform="scale(0.015625)"/>
      <path id="DejaVuSans-77" d="M 269 3500 
L 844 3500 
L 1563 769 
L 2278 3500 
L 2956 3500 
L 3675 769 
L 4391 3500 
L 4966 3500 
L 4050 0 
L 3372 0 
L 2619 2869 
L 1863 0 
L 1184 0 
L 269 3500 
z
" transform="scale(0.015625)"/>
      <path id="DejaVuSans-6f" d="M 1959 3097 
Q 1497 3097 1228 2736 
Q 959 2375 959 1747 
Q 959 1119 1226 758 
Q 1494 397 1959 397 
Q 2419 397 2687 759 
Q 2956 1122 2956 1747 
Q 2956 2369 2687 2733 
Q 2419 3097 1959 3097 
z
M 1959 3584 
Q 2709 3584 3137 3096 
Q 3566 2609 3566 1747 
Q 3566 888 3137 398 
Q 2709 -91 1959 -91 
Q 1206 -91 779 398 
Q 353 888 353 1747 
Q 353 2609 779 3096 
Q 1206 3584 1959 3584 
z
" transform="scale(0.015625)"/>
     </defs>
     <use xlink:href="#DejaVuSans-72"/>
     <use xlink:href="#DejaVuSans-65" x="38.863281"/>
     <use xlink:href="#DejaVuSans-64" x="100.386719"/>
     <use xlink:href="#DejaVuSans-77" x="163.863281"/>
     <use xlink:href="#DejaVuSans-6f" x="245.650391"/>
     <use xlink:href="#DejaVuSans-6f" x="306.832031"/>
     <use xlink:href="#DejaVuSans-64" x="368.013672"/>
     <use xlink:href="#DejaVuSans-6a" x="431.490234"/>
     <use xlink:href="#DejaVuSans-73" x="459.273438"/>
     <use xlink:href="#DejaVuSans-2f" x="511.373047"/>
     <use xlink:href="#DejaVuSans-72" x="545.064453"/>
     <use xlink:href="#DejaVuSans-65" x="583.927734"/>
     <use xlink:href="#DejaVuSans-64" x="645.451172"/>
     <use xlink:href="#DejaVuSans-77" x="708.927734"/>
     <use xlink:href="#DejaVuSans-6f" x="790.714844"/>
     <use xlink:href="#DejaVuSans-6f" x="851.896484"/>
     <use xlink:href="#DejaVuSans-64" x="913.078125"/>
    </g>
   </g>
   <g id="text_22">
    <!-- jaredpalmer/razzle -->
    <g style="fill: #9467bd" transform="translate(465.906725 248.363911)scale(0.14 -0.14)">
     <defs>
      <path id="DejaVuSans-70" d="M 1159 525 
L 1159 -1331 
L 581 -1331 
L 581 3500 
L 1159 3500 
L 1159 2969 
Q 1341 3281 1617 3432 
Q 1894 3584 2278 3584 
Q 2916 3584 3314 3078 
Q 3713 2572 3713 1747 
Q 3713 922 3314 415 
Q 2916 -91 2278 -91 
Q 1894 -91 1617 61 
Q 1341 213 1159 525 
z
M 3116 1747 
Q 3116 2381 2855 2742 
Q 2594 3103 2138 3103 
Q 1681 3103 1420 2742 
Q 1159 2381 1159 1747 
Q 1159 1113 1420 752 
Q 1681 391 2138 391 
Q 2594 391 2855 752 
Q 3116 1113 3116 1747 
z
" transform="scale(0.015625)"/>
      <path id="DejaVuSans-6d" d="M 3328 2828 
Q 3544 3216 3844 3400 
Q 4144 3584 4550 3584 
Q 5097 3584 5394 3201 
Q 5691 2819 5691 2113 
L 5691 0 
L 5113 0 
L 5113 2094 
Q 5113 2597 4934 2840 
Q 4756 3084 4391 3084 
Q 3944 3084 3684 2787 
Q 3425 2491 3425 1978 
L 3425 0 
L 2847 0 
L 2847 2094 
Q 2847 2600 2669 2842 
Q 2491 3084 2119 3084 
Q 1678 3084 1418 2786 
Q 1159 2488 1159 1978 
L 1159 0 
L 581 0 
L 581 3500 
L 1159 3500 
L 1159 2956 
Q 1356 3278 1631 3431 
Q 1906 3584 2284 3584 
Q 2666 3584 2933 3390 
Q 3200 3197 3328 2828 
z
" transform="scale(0.015625)"/>
      <path id="DejaVuSans-7a" d="M 353 3500 
L 3084 3500 
L 3084 2975 
L 922 459 
L 3084 459 
L 3084 0 
L 275 0 
L 275 525 
L 2438 3041 
L 353 3041 
L 353 3500 
z
" transform="scale(0.015625)"/>
     </defs>
     <use xlink:href="#DejaVuSans-6a"/>
     <use xlink:href="#DejaVuSans-61" x="27.783203"/>
     <use xlink:href="#DejaVuSans-72" x="89.0625"/>
     <use xlink:href="#DejaVuSans-65" x="127.925781"/>
     <use xlink:href="#DejaVuSans-64" x="189.449219"/>
     <use xlink:href="#DejaVuSans-70" x="252.925781"/>
     <use xlink:href="#DejaVuSans-61" x="316.402344"/>
     <use xlink:href="#DejaVuSans-6c" x="377.681641"/>
     <use xlink:href="#DejaVuSans-6d" x="405.464844"/>
     <use xlink:href="#DejaVuSans-65" x="502.876953"/>
     <use xlink:href="#DejaVuSans-72" x="564.400391"/>
     <use xlink:href="#DejaVuSans-2f" x="605.513672"/>
     <use xlink:href="#DejaVuSans-72" x="639.205078"/>
     <use xlink:href="#DejaVuSans-61" x="680.318359"/>
     <use xlink:href="#DejaVuSans-7a" x="741.597656"/>
     <use xlink:href="#DejaVuSans-7a" x="794.087891"/>
     <use xlink:href="#DejaVuSans-6c" x="846.578125"/>
     <use xlink:href="#DejaVuSans-65" x="874.361328"/>
    </g>
   </g>
   <g id="text_23">
    <!-- sveltejs/kit -->
    <g style="fill: #8c564b" transform="translate(465.906725 262.363911)scale(0.14 -0.14)">
     <defs>
      <path id="DejaVuSans-6b" d="M 581 4863 
L 1159 4863 
L 1159 1991 
L 2875 3500 
L 3609 3500 
L 1753 1863 
L 3688 0 
L 2938 0 
L 1159 1709 
L 1159 0 
L 581 0 
L 581 4863 
z
" transform="scale(0.015625)"/>
     </defs>
     <use xlink:href="#DejaVuSans-73"/>
     <use xlink:href="#DejaVuSans-76" x="52.099609"/>
     <use xlink:href="#DejaVuSans-65" x="111.279297"/>
     <use xlink:href="#DejaVuSans-6c" x="172.802734"/>
     <use xlink:href="#DejaVuSans-74" x="200.585938"/>
     <use xlink:href="#DejaVuSans-65" x="239.794922"/>
     <use xlink:href="#DejaVuSans-6a" x="301.318359"/>
     <use xlink:href="#DejaVuSans-73" x="329.101562"/>
     <use xlink:href="#DejaVuSans-2f" x="381.201172"/>
     <use xlink:href="#DejaVuSans-6b" x="414.892578"/>
     <use xlink:href="#DejaVuSans-69" x="472.802734"/>
     <use xlink:href="#DejaVuSans-74" x="500.585938"/>
    </g>
   </g>
   <g id="text_24">
    <!-- sveltejs/sapper -->
    <g style="fill: #e377c2" transform="translate(465.906725 276.363911)scale(0.14 -0.14)">
     <use xlink:href="#DejaVuSans-73"/>
     <use xlink:href="#DejaVuSans-76" x="52.099609"/>
     <use xlink:href="#DejaVuSans-65" x="111.279297"/>
     <use xlink:href="#DejaVuSans-6c" x="172.802734"/>
     <use xlink:href="#DejaVuSans-74" x="200.585938"/>
     <use xlink:href="#DejaVuSans-65" x="239.794922"/>
     <use xlink:href="#DejaVuSans-6a" x="301.318359"/>
     <use xlink:href="#DejaVuSans-73" x="329.101562"/>
     <use xlink:href="#DejaVuSans-2f" x="381.201172"/>
     <use xlink:href="#DejaVuSans-73" x="414.892578"/>
     <use xlink:href="#DejaVuSans-61" x="466.992188"/>
     <use xlink:href="#DejaVuSans-70" x="528.271484"/>
     <use xlink:href="#DejaVuSans-70" x="591.748047"/>
     <use xlink:href="#DejaVuSans-65" x="655.224609"/>
     <use xlink:href="#DejaVuSans-72" x="716.748047"/>
    </g>
   </g>
   <g id="text_25">
    <!-- jaredpalmer/after.js -->
    <g style="fill: #7f7f7f" transform="translate(465.906725 290.363911)scale(0.14 -0.14)">
     <defs>
      <path id="DejaVuSans-66" d="M 2375 4863 
L 2375 4384 
L 1825 4384 
Q 1516 4384 1395 4259 
Q 1275 4134 1275 3809 
L 1275 3500 
L 2222 3500 
L 2222 3053 
L 1275 3053 
L 1275 0 
L 697 0 
L 697 3053 
L 147 3053 
L 147 3500 
L 697 3500 
L 697 3744 
Q 697 4328 969 4595 
Q 1241 4863 1831 4863 
L 2375 4863 
z
" transform="scale(0.015625)"/>
     </defs>
     <use xlink:href="#DejaVuSans-6a"/>
     <use xlink:href="#DejaVuSans-61" x="27.783203"/>
     <use xlink:href="#DejaVuSans-72" x="89.0625"/>
     <use xlink:href="#DejaVuSans-65" x="127.925781"/>
     <use xlink:href="#DejaVuSans-64" x="189.449219"/>
     <use xlink:href="#DejaVuSans-70" x="252.925781"/>
     <use xlink:href="#DejaVuSans-61" x="316.402344"/>
     <use xlink:href="#DejaVuSans-6c" x="377.681641"/>
     <use xlink:href="#DejaVuSans-6d" x="405.464844"/>
     <use xlink:href="#DejaVuSans-65" x="502.876953"/>
     <use xlink:href="#DejaVuSans-72" x="564.400391"/>
     <use xlink:href="#DejaVuSans-2f" x="605.513672"/>
     <use xlink:href="#DejaVuSans-61" x="639.205078"/>
     <use xlink:href="#DejaVuSans-66" x="700.484375"/>
     <use xlink:href="#DejaVuSans-74" x="733.939453"/>
     <use xlink:href="#DejaVuSans-65" x="773.148438"/>
     <use xlink:href="#DejaVuSans-72" x="834.671875"/>
     <use xlink:href="#DejaVuSans-2e" x="866.660156"/>
     <use xlink:href="#DejaVuSans-6a" x="898.447266"/>
     <use xlink:href="#DejaVuSans-73" x="926.230469"/>
    </g>
   </g>
   <g id="text_26">
    <!-- angular/universal -->
    <g style="fill: #bcbd22" transform="translate(465.906725 304.363911)scale(0.14 -0.14)">
     <use xlink:href="#DejaVuSans-61"/>
     <use xlink:href="#DejaVuSans-6e" x="61.279297"/>
     <use xlink:href="#DejaVuSans-67" x="124.658203"/>
     <use xlink:href="#DejaVuSans-75" x="188.134766"/>
     <use xlink:href="#DejaVuSans-6c" x="251.513672"/>
     <use xlink:href="#DejaVuSans-61" x="279.296875"/>
     <use xlink:href="#DejaVuSans-72" x="340.576172"/>
     <use xlink:href="#DejaVuSans-2f" x="381.689453"/>
     <use xlink:href="#DejaVuSans-75" x="415.380859"/>
     <use xlink:href="#DejaVuSans-6e" x="478.759766"/>
     <use xlink:href="#DejaVuSans-69" x="542.138672"/>
     <use xlink:href="#DejaVuSans-76" x="569.921875"/>
     <use xlink:href="#DejaVuSans-65" x="629.101562"/>
     <use xlink:href="#DejaVuSans-72" x="690.625"/>
     <use xlink:href="#DejaVuSans-73" x="731.738281"/>
     <use xlink:href="#DejaVuSans-61" x="783.837891"/>
     <use xlink:href="#DejaVuSans-6c" x="845.117188"/>
    </g>
   </g>
   <g id="text_27">
    <!-- @nschloe / gh-trends | Nico Schlömer | CC BY -->
    <g style="fill: #b0b0b0" transform="translate(98.073125 323.523282)scale(0.09716 -0.09716)">
     <defs>
      <path id="DejaVuSans-40" d="M 2381 1678 
Q 2381 1231 2603 976 
Q 2825 722 3213 722 
Q 3597 722 3817 978 
Q 4038 1234 4038 1678 
Q 4038 2116 3813 2373 
Q 3588 2631 3206 2631 
Q 2828 2631 2604 2375 
Q 2381 2119 2381 1678 
z
M 4084 744 
Q 3897 503 3655 389 
Q 3413 275 3091 275 
Q 2553 275 2217 664 
Q 1881 1053 1881 1678 
Q 1881 2303 2218 2693 
Q 2556 3084 3091 3084 
Q 3413 3084 3656 2967 
Q 3900 2850 4084 2613 
L 4084 3022 
L 4531 3022 
L 4531 722 
Q 4988 791 5245 1139 
Q 5503 1488 5503 2041 
Q 5503 2375 5404 2669 
Q 5306 2963 5106 3213 
Q 4781 3622 4314 3839 
Q 3847 4056 3297 4056 
Q 2913 4056 2559 3954 
Q 2206 3853 1906 3653 
Q 1416 3334 1139 2817 
Q 863 2300 863 1697 
Q 863 1200 1042 765 
Q 1222 331 1563 0 
Q 1891 -325 2322 -495 
Q 2753 -666 3244 -666 
Q 3647 -666 4036 -530 
Q 4425 -394 4750 -141 
L 5031 -488 
Q 4641 -791 4180 -952 
Q 3719 -1113 3244 -1113 
Q 2666 -1113 2153 -908 
Q 1641 -703 1241 -313 
Q 841 78 631 592 
Q 422 1106 422 1697 
Q 422 2266 634 2781 
Q 847 3297 1241 3688 
Q 1644 4084 2172 4295 
Q 2700 4506 3291 4506 
Q 3953 4506 4520 4234 
Q 5088 3963 5472 3463 
Q 5706 3156 5829 2797 
Q 5953 2438 5953 2053 
Q 5953 1231 5456 756 
Q 4959 281 4084 263 
L 4084 744 
z
" transform="scale(0.015625)"/>
      <path id="DejaVuSans-68" d="M 3513 2113 
L 3513 0 
L 2938 0 
L 2938 2094 
Q 2938 2591 2744 2837 
Q 2550 3084 2163 3084 
Q 1697 3084 1428 2787 
Q 1159 2491 1159 1978 
L 1159 0 
L 581 0 
L 581 4863 
L 1159 4863 
L 1159 2956 
Q 1366 3272 1645 3428 
Q 1925 3584 2291 3584 
Q 2894 3584 3203 3211 
Q 3513 2838 3513 2113 
z
" transform="scale(0.015625)"/>
      <path id="DejaVuSans-2d" d="M 313 2009 
L 1997 2009 
L 1997 1497 
L 313 1497 
L 313 2009 
z
" transform="scale(0.015625)"/>
      <path id="DejaVuSans-7c" d="M 1344 4891 
L 1344 -1509 
L 813 -1509 
L 813 4891 
L 1344 4891 
z
" transform="scale(0.015625)"/>
      <path id="DejaVuSans-4e" d="M 628 4666 
L 1478 4666 
L 3547 763 
L 3547 4666 
L 4159 4666 
L 4159 0 
L 3309 0 
L 1241 3903 
L 1241 0 
L 628 0 
L 628 4666 
z
" transform="scale(0.015625)"/>
      <path id="DejaVuSans-53" d="M 3425 4513 
L 3425 3897 
Q 3066 4069 2747 4153 
Q 2428 4238 2131 4238 
Q 1616 4238 1336 4038 
Q 1056 3838 1056 3469 
Q 1056 3159 1242 3001 
Q 1428 2844 1947 2747 
L 2328 2669 
Q 3034 2534 3370 2195 
Q 3706 1856 3706 1288 
Q 3706 609 3251 259 
Q 2797 -91 1919 -91 
Q 1588 -91 1214 -16 
Q 841 59 441 206 
L 441 856 
Q 825 641 1194 531 
Q 1563 422 1919 422 
Q 2459 422 2753 634 
Q 3047 847 3047 1241 
Q 3047 1584 2836 1778 
Q 2625 1972 2144 2069 
L 1759 2144 
Q 1053 2284 737 2584 
Q 422 2884 422 3419 
Q 422 4038 858 4394 
Q 1294 4750 2059 4750 
Q 2388 4750 2728 4690 
Q 3069 4631 3425 4513 
z
" transform="scale(0.015625)"/>
      <path id="DejaVuSans-f6" d="M 1959 3097 
Q 1497 3097 1228 2736 
Q 959 2375 959 1747 
Q 959 1119 1226 758 
Q 1494 397 1959 397 
Q 2419 397 2687 759 
Q 2956 1122 2956 1747 
Q 2956 2369 2687 2733 
Q 2419 3097 1959 3097 
z
M 1959 3584 
Q 2709 3584 3137 3096 
Q 3566 2609 3566 1747 
Q 3566 888 3137 398 
Q 2709 -91 1959 -91 
Q 1206 -91 779 398 
Q 353 888 353 1747 
Q 353 2609 779 3096 
Q 1206 3584 1959 3584 
z
M 2254 4850 
L 2888 4850 
L 2888 4219 
L 2254 4219 
L 2254 4850 
z
M 1032 4850 
L 1666 4850 
L 1666 4219 
L 1032 4219 
L 1032 4850 
z
" transform="scale(0.015625)"/>
      <path id="DejaVuSans-43" d="M 4122 4306 
L 4122 3641 
Q 3803 3938 3442 4084 
Q 3081 4231 2675 4231 
Q 1875 4231 1450 3742 
Q 1025 3253 1025 2328 
Q 1025 1406 1450 917 
Q 1875 428 2675 428 
Q 3081 428 3442 575 
Q 3803 722 4122 1019 
L 4122 359 
Q 3791 134 3420 21 
Q 3050 -91 2638 -91 
Q 1578 -91 968 557 
Q 359 1206 359 2328 
Q 359 3453 968 4101 
Q 1578 4750 2638 4750 
Q 3056 4750 3426 4639 
Q 3797 4528 4122 4306 
z
" transform="scale(0.015625)"/>
      <path id="DejaVuSans-42" d="M 1259 2228 
L 1259 519 
L 2272 519 
Q 2781 519 3026 730 
Q 3272 941 3272 1375 
Q 3272 1813 3026 2020 
Q 2781 2228 2272 2228 
L 1259 2228 
z
M 1259 4147 
L 1259 2741 
L 2194 2741 
Q 2656 2741 2882 2914 
Q 3109 3088 3109 3444 
Q 3109 3797 2882 3972 
Q 2656 4147 2194 4147 
L 1259 4147 
z
M 628 4666 
L 2241 4666 
Q 2963 4666 3353 4366 
Q 3744 4066 3744 3513 
Q 3744 3084 3544 2831 
Q 3344 2578 2956 2516 
Q 3422 2416 3680 2098 
Q 3938 1781 3938 1306 
Q 3938 681 3513 340 
Q 3088 0 2303 0 
L 628 0 
L 628 4666 
z
" transform="scale(0.015625)"/>
      <path id="DejaVuSans-59" d="M -13 4666 
L 666 4666 
L 1959 2747 
L 3244 4666 
L 3922 4666 
L 2272 2222 
L 2272 0 
L 1638 0 
L 1638 2222 
L -13 4666 
z
" transform="scale(0.015625)"/>
     </defs>
     <use xlink:href="#DejaVuSans-40"/>
     <use xlink:href="#DejaVuSans-6e" x="100"/>
     <use xlink:href="#DejaVuSans-73" x="163.378906"/>
     <use xlink:href="#DejaVuSans-63" x="215.478516"/>
     <use xlink:href="#DejaVuSans-68" x="270.458984"/>
     <use xlink:href="#DejaVuSans-6c" x="333.837891"/>
     <use xlink:href="#DejaVuSans-6f" x="361.621094"/>
     <use xlink:href="#DejaVuSans-65" x="422.802734"/>
     <use xlink:href="#DejaVuSans-20" x="484.326172"/>
     <use xlink:href="#DejaVuSans-2f" x="516.113281"/>
     <use xlink:href="#DejaVuSans-20" x="549.804688"/>
     <use xlink:href="#DejaVuSans-67" x="581.591797"/>
     <use xlink:href="#DejaVuSans-68" x="645.068359"/>
     <use xlink:href="#DejaVuSans-2d" x="708.447266"/>
     <use xlink:href="#DejaVuSans-74" x="744.53125"/>
     <use xlink:href="#DejaVuSans-72" x="783.740234"/>
     <use xlink:href="#DejaVuSans-65" x="822.603516"/>
     <use xlink:href="#DejaVuSans-6e" x="884.126953"/>
     <use xlink:href="#DejaVuSans-64" x="947.505859"/>
     <use xlink:href="#DejaVuSans-73" x="1010.982422"/>
     <use xlink:href="#DejaVuSans-20" x="1063.082031"/>
     <use xlink:href="#DejaVuSans-7c" x="1094.869141"/>
     <use xlink:href="#DejaVuSans-20" x="1128.560547"/>
     <use xlink:href="#DejaVuSans-4e" x="1160.347656"/>
     <use xlink:href="#DejaVuSans-69" x="1235.152344"/>
     <use xlink:href="#DejaVuSans-63" x="1262.935547"/>
     <use xlink:href="#DejaVuSans-6f" x="1317.916016"/>
     <use xlink:href="#DejaVuSans-20" x="1379.097656"/>
     <use xlink:href="#DejaVuSans-53" x="1410.884766"/>
     <use xlink:href="#DejaVuSans-63" x="1474.361328"/>
     <use xlink:href="#DejaVuSans-68" x="1529.341797"/>
     <use xlink:href="#DejaVuSans-6c" x="1592.720703"/>
     <use xlink:href="#DejaVuSans-f6" x="1620.503906"/>
     <use xlink:href="#DejaVuSans-6d" x="1681.685547"/>
     <use xlink:href="#DejaVuSans-65" x="1779.097656"/>
     <use xlink:href="#DejaVuSans-72" x="1840.621094"/>
     <use xlink:href="#DejaVuSans-20" x="1881.734375"/>
     <use xlink:href="#DejaVuSans-7c" x="1913.521484"/>
     <use xlink:href="#DejaVuSans-20" x="1947.212891"/>
     <use xlink:href="#DejaVuSans-43" x="1979"/>
     <use xlink:href="#DejaVuSans-43" x="2048.824219"/>
     <use xlink:href="#DejaVuSans-20" x="2118.648438"/>
     <use xlink:href="#DejaVuSans-42" x="2150.435547"/>
     <use xlink:href="#DejaVuSans-59" x="2213.539062"/>
    </g>
   </g>
   <g id="line2d_29">
    <path d="M 373.618208 289.486933 
L 378.000916 289.474826 
L 382.242246 289.474826 
L 386.624954 289.474826 
L 391.007662 289.474826 
L 394.966237 289.474826 
L 399.348944 281.938643 
L 403.590275 279.947154 
L 407.972982 278.784948 
L 412.214313 277.728671 
L 416.59702 276.790432 
L 420.979728 275.679677 
L 425.221058 274.804996 
L 429.603766 273.200909 
L 433.845096 271.817762 
L 438.227804 270.192489 
L 442.610512 268.533923 
L 446.569087 267.041819 
L 450.951795 265.704071 
L 455.193125 264.084851 
" clip-path="url(#pa29400ffb2)" style="fill: none; stroke: #8c564b; stroke-width: 1.5; stroke-linecap: square"/>
   </g>
   <g id="line2d_30">
    <path d="M 132.710655 289.486933 
L 136.810607 288.097733 
L 141.193315 287.891925 
L 145.434645 287.758756 
L 149.817353 287.640719 
L 154.058683 287.513603 
L 158.441391 287.353194 
L 162.824099 287.213972 
L 167.065429 287.053563 
L 171.448137 286.953686 
L 175.689467 286.838676 
L 180.072175 286.705506 
L 184.454883 286.499699 
L 188.413458 286.33021 
L 192.796165 286.175855 
L 197.037496 286.030579 
L 201.420203 285.491848 
L 205.661534 285.240642 
L 210.044241 284.96825 
L 214.426949 284.057249 
L 218.668279 283.618395 
L 223.050987 283.097823 
L 227.292317 282.428949 
L 231.675025 281.881138 
L 236.057733 280.746171 
L 240.016308 279.865437 
L 244.399016 279.142084 
L 248.640346 278.500449 
L 253.023054 278.01317 
L 257.264384 276.221435 
L 261.647092 275.576773 
L 266.0298 274.923032 
L 270.27113 274.372195 
L 274.653838 273.618577 
L 278.895168 273.016287 
L 283.277876 272.538088 
L 287.660583 271.53629 
L 291.619158 270.930974 
L 296.001866 270.162223 
L 300.243196 269.090814 
L 304.625904 268.300876 
L 308.867234 267.740959 
L 313.249942 267.259733 
L 317.63265 266.799693 
L 321.87398 266.279121 
L 326.256688 265.764603 
L 330.498018 265.322722 
L 334.880726 264.82031 
L 339.263434 264.438961 
L 343.363386 263.981947 
L 347.746094 263.5552 
L 351.987424 263.08608 
L 356.370132 262.598801 
L 360.611462 262.17508 
L 364.99417 261.702933 
L 369.376878 261.309478 
L 373.618208 260.952341 
L 378.000916 260.543753 
L 382.242246 260.219909 
L 386.624954 259.950544 
L 391.007662 259.738683 
L 394.966237 259.466291 
L 399.348944 259.112181 
L 403.590275 258.882161 
L 407.972982 258.621875 
L 412.214313 258.425148 
L 416.59702 258.2375 
L 420.979728 258.116436 
L 425.221058 257.910629 
L 429.603766 257.732061 
L 433.845096 257.5202 
L 438.227804 257.305313 
L 442.610512 257.150958 
L 446.569087 257.014762 
L 450.951795 256.808954 
L 455.193125 256.687891 
" clip-path="url(#pa29400ffb2)" style="fill: none; stroke: #9467bd; stroke-width: 1.5; stroke-linecap: square"/>
   </g>
   <g id="line2d_31">
    <path d="M 304.625904 289.486933 
L 308.867234 289.396135 
L 313.249942 289.226647 
L 317.63265 288.660676 
L 321.87398 288.630411 
L 326.256688 288.621331 
L 330.498018 288.539613 
L 334.880726 288.40947 
L 339.263434 287.283583 
L 343.363386 287.005138 
L 347.746094 280.964085 
L 351.987424 279.86241 
L 356.370132 278.518609 
L 360.611462 277.625768 
L 364.99417 276.878203 
L 369.376878 276.315259 
L 373.618208 275.755342 
L 378.000916 275.140946 
L 382.242246 273.987819 
L 386.624954 272.044755 
L 391.007662 270.313552 
L 394.966237 268.984883 
L 399.348944 268.046644 
L 403.590275 266.944969 
L 407.972982 265.831188 
L 412.214313 264.638715 
L 416.59702 263.570333 
L 420.979728 262.650253 
L 425.221058 261.076431 
L 429.603766 259.635779 
L 433.845096 258.322244 
L 438.227804 257.132798 
L 442.610512 255.897954 
L 446.569087 254.902209 
L 450.951795 253.718817 
L 455.193125 250.301808 
" clip-path="url(#pa29400ffb2)" style="fill: none; stroke: #d62728; stroke-width: 1.5; stroke-linecap: square"/>
   </g>
   <g id="line2d_32">
    <path d="M 167.065429 289.486933 
L 171.448137 289.483906 
L 175.689467 286.106243 
L 180.072175 284.235817 
L 184.454883 283.022159 
L 188.413458 282.017335 
L 192.796165 280.252839 
L 197.037496 278.791001 
L 201.420203 277.256525 
L 205.661534 275.882458 
L 210.044241 274.163361 
L 214.426949 272.020543 
L 218.668279 270.498173 
L 223.050987 268.776049 
L 227.292317 266.941942 
L 231.675025 265.50129 
L 236.057733 262.426286 
L 240.016308 260.489275 
L 244.399016 258.016559 
L 248.640346 255.589243 
L 253.023054 253.497876 
L 257.264384 251.706141 
L 261.647092 249.977964 
L 266.0298 248.05306 
L 270.27113 245.961693 
L 274.653838 243.661493 
L 278.895168 241.830412 
L 283.277876 240.04473 
L 287.660583 237.956391 
L 291.619158 236.146496 
L 296.001866 234.04605 
L 300.243196 232.227076 
L 304.625904 230.11755 
L 308.867234 228.465037 
L 313.249942 226.676329 
L 317.63265 225.017763 
L 321.87398 223.637643 
L 326.256688 221.558383 
L 330.498018 219.639532 
L 334.880726 217.215241 
L 339.263434 215.723138 
L 343.363386 214.046413 
L 347.746094 212.248625 
L 351.987424 210.317667 
L 356.370132 208.262619 
L 360.611462 206.331662 
L 364.99417 204.355305 
L 369.376878 202.312364 
L 373.618208 198.650203 
L 378.000916 196.810043 
L 382.242246 193.141828 
L 386.624954 191.440891 
L 391.007662 189.143717 
L 394.966237 187.006952 
L 399.348944 183.892602 
L 403.590275 181.335142 
L 407.972982 179.888437 
L 412.214313 178.423572 
L 416.59702 176.819485 
L 420.979728 175.357647 
L 425.221058 173.750534 
L 429.603766 172.38252 
L 433.845096 171.153729 
L 438.227804 170.036921 
L 442.610512 169.089601 
L 446.569087 168.190707 
L 450.951795 167.273654 
L 455.193125 165.182287 
" clip-path="url(#pa29400ffb2)" style="fill: none; stroke: #2ca02c; stroke-width: 1.5; stroke-linecap: square"/>
   </g>
   <g id="line2d_33">
    <path d="M 98.073125 289.486933 
L 102.314455 289.459693 
L 106.697163 289.208487 
L 111.079871 289.141903 
L 115.321201 286.717612 
L 119.703909 285.010622 
L 123.945239 284.662565 
L 128.327947 284.290296 
L 132.710655 283.945266 
L 136.810607 283.297578 
L 141.193315 282.716474 
L 145.434645 282.211036 
L 149.817353 281.838766 
L 154.058683 281.351487 
L 158.441391 277.66814 
L 162.824099 276.563438 
L 167.065429 275.773501 
L 171.448137 274.444833 
L 175.689467 271.572609 
L 180.072175 270.464881 
L 184.454883 268.482471 
L 188.413458 267.087218 
L 192.796165 265.607221 
L 197.037496 264.320924 
L 201.420203 262.638146 
L 205.661534 261.185388 
L 210.044241 255.386462 
L 214.426949 253.407079 
L 218.668279 251.324792 
L 223.050987 248.307292 
L 227.292317 245.982879 
L 231.675025 242.650615 
L 236.057733 237.693078 
L 240.016308 234.914678 
L 244.399016 231.642946 
L 248.640346 228.970476 
L 253.023054 226.476575 
L 257.264384 223.87069 
L 261.647092 220.789632 
L 266.0298 217.530006 
L 270.27113 214.379337 
L 274.653838 211.086418 
L 278.895168 208.25354 
L 283.277876 204.449129 
L 287.660583 200.099935 
L 291.619158 196.752538 
L 296.001866 193.120642 
L 300.243196 190.145515 
L 304.625904 187.500284 
L 308.867234 184.849001 
L 313.249942 182.33694 
L 317.63265 179.54038 
L 321.87398 176.701449 
L 326.256688 173.53262 
L 330.498018 171.11741 
L 334.880726 169.080522 
L 339.263434 166.429238 
L 343.363386 164.389323 
L 347.746094 162.276771 
L 351.987424 159.776816 
L 356.370132 157.192117 
L 360.611462 154.982714 
L 364.99417 152.718833 
L 369.376878 150.85446 
L 373.618208 149.24432 
L 378.000916 147.446532 
L 382.242246 146.093651 
L 386.624954 144.686291 
L 391.007662 143.185108 
L 394.966237 141.835253 
L 399.348944 140.252352 
L 403.590275 138.593787 
L 407.972982 137.434607 
L 412.214313 136.39649 
L 416.59702 135.291788 
L 420.979728 134.296044 
L 425.221058 133.330565 
L 429.603766 132.546681 
L 433.845096 131.659893 
L 438.227804 130.594537 
L 442.610512 129.544314 
L 446.569087 128.766483 
L 450.951795 127.858509 
L 455.193125 127.0262 
" clip-path="url(#pa29400ffb2)" style="fill: none; stroke: #ff7f0e; stroke-width: 1.5; stroke-linecap: square"/>
   </g>
   <g id="line2d_34">
    <path d="M 167.065429 289.486933 
L 171.448137 276.657262 
L 175.689467 271.167047 
L 180.072175 268.427993 
L 184.454883 265.888693 
L 188.413458 264.054585 
L 192.796165 257.974187 
L 197.037496 254.266627 
L 201.420203 250.870805 
L 205.661534 248.712854 
L 210.044241 245.189916 
L 214.426949 242.692987 
L 218.668279 240.577408 
L 223.050987 237.211852 
L 227.292317 234.63018 
L 231.675025 231.827567 
L 236.057733 227.499559 
L 240.016308 224.733265 
L 244.399016 221.800509 
L 248.640346 219.121987 
L 253.023054 216.056062 
L 257.264384 213.286741 
L 261.647092 210.505315 
L 266.0298 207.838898 
L 270.27113 204.116206 
L 274.653838 200.656825 
L 278.895168 197.772495 
L 283.277876 194.652092 
L 287.660583 191.222977 
L 291.619158 187.966377 
L 296.001866 185.260615 
L 300.243196 182.733422 
L 304.625904 180.073058 
L 308.867234 177.984718 
L 313.249942 174.646401 
L 317.63265 171.958799 
L 321.87398 169.631359 
L 326.256688 167.092059 
L 330.498018 164.695008 
L 334.880726 162.412967 
L 339.263434 159.446919 
L 343.363386 156.819848 
L 347.746094 153.732737 
L 351.987424 150.109921 
L 356.370132 145.718355 
L 360.611462 142.05014 
L 364.99417 137.930966 
L 369.376878 134.383815 
L 373.618208 130.712574 
L 378.000916 124.405182 
L 382.242246 118.370183 
L 386.624954 114.184423 
L 391.007662 105.864356 
L 394.966237 101.572666 
L 399.348944 95.631491 
L 403.590275 91.303482 
L 407.972982 85.931304 
L 412.214313 78.682646 
L 416.59702 74.303185 
L 420.979728 69.039964 
L 425.221058 65.34451 
L 429.603766 58.749594 
L 433.845096 52.708541 
L 438.227804 47.76311 
L 442.610512 41.846147 
L 446.569087 36.616218 
L 450.951795 30.399624 
L 455.193125 23.374933 
" clip-path="url(#pa29400ffb2)" style="fill: none; stroke: #1f77b4; stroke-width: 1.5; stroke-linecap: square"/>
   </g>
  </g>
 </g>
 <defs>
  <clipPath id="pa29400ffb2">
   <rect x="98.073125" y="23.374933" width="357.12" height="266.112"/>
  </clipPath>
 </defs>
</svg>
