<svg xmlns:xlink="http://www.w3.org/1999/xlink" width="904.013" height="431.485" viewBox="0 0 678.01 323.614" xmlns="http://www.w3.org/2000/svg"><defs><style>*{stroke-linejoin:round;stroke-linecap:butt}</style></defs><g id="figure_1"><path d="M0 323.614h678.01V0H0v323.614z" style="fill:none" id="patch_1"/><g id="axes_1"><path d="M98.073 280.087h357.12V13.975H98.073v266.112z" style="fill:none" id="patch_2"/><g id="matplotlib.axis_1"><g id="xtick_1"><g id="line2d_1"><defs><path id="m75ffec49f0" d="M0 0v3.5" style="stroke:#b0b0b0;stroke-width:.4"/></defs><use xlink:href="#m75ffec49f0" x="145.487" y="280.087" style="fill:#b0b0b0;stroke:#b0b0b0;stroke-width:.4"/></g><g style="fill:#b0b0b0" transform="matrix(.14 0 0 -.14 127.672 297.724)" id="text_1"><defs><path id="DejaVuSans-32" d="M1228 531h2203V0H469v531q359 372 979 998 621 627 780 809 303 340 423 576 121 236 121 464 0 372-261 606-261 235-680 235-297 0-627-103-329-103-704-313v638q381 153 712 231 332 78 607 78 725 0 1156-363 431-362 431-968 0-288-108-546-107-257-392-607-78-91-497-524-418-433-1181-1211z" transform="scale(.01563)"/><path id="DejaVuSans-30" d="M2034 4250q-487 0-733-480-245-479-245-1442 0-959 245-1439 246-480 733-480 491 0 736 480 246 480 246 1439 0 963-246 1442-245 480-736 480zm0 500q785 0 1199-621 414-620 414-1801 0-1178-414-1799Q2819-91 2034-91q-784 0-1198 620-414 621-414 1799 0 1181 414 1801 414 621 1198 621z" transform="scale(.01563)"/><path id="DejaVuSans-31" d="M794 531h1031v3560L703 3866v575l1116 225h631V531h1031V0H794v531z" transform="scale(.01563)"/></defs><use xlink:href="#DejaVuSans-32"/><use xlink:href="#DejaVuSans-30" x="63.623"/><use xlink:href="#DejaVuSans-31" x="127.246"/><use xlink:href="#DejaVuSans-30" x="190.869"/></g></g><g id="xtick_2"><use xlink:href="#m75ffec49f0" x="197.069" y="280.087" style="fill:#b0b0b0;stroke:#b0b0b0;stroke-width:.4" id="line2d_2"/><g style="fill:#b0b0b0" transform="matrix(.14 0 0 -.14 179.254 297.724)" id="text_2"><use xlink:href="#DejaVuSans-32"/><use xlink:href="#DejaVuSans-30" x="63.623"/><use xlink:href="#DejaVuSans-31" x="127.246"/><use xlink:href="#DejaVuSans-32" x="190.869"/></g></g><g id="xtick_3"><use xlink:href="#m75ffec49f0" x="248.722" y="280.087" style="fill:#b0b0b0;stroke:#b0b0b0;stroke-width:.4" id="line2d_3"/><g style="fill:#b0b0b0" transform="matrix(.14 0 0 -.14 230.907 297.724)" id="text_3"><defs><path id="DejaVuSans-34" d="M2419 4116 825 1625h1594v2491zm-166 550h794V1625h666v-525h-666V0h-628v1100H313v609l1940 2957z" transform="scale(.01563)"/></defs><use xlink:href="#DejaVuSans-32"/><use xlink:href="#DejaVuSans-30" x="63.623"/><use xlink:href="#DejaVuSans-31" x="127.246"/><use xlink:href="#DejaVuSans-34" x="190.869"/></g></g><g id="xtick_4"><use xlink:href="#m75ffec49f0" x="300.305" y="280.087" style="fill:#b0b0b0;stroke:#b0b0b0;stroke-width:.4" id="line2d_4"/><g style="fill:#b0b0b0" transform="matrix(.14 0 0 -.14 282.49 297.724)" id="text_4"><defs><path id="DejaVuSans-36" d="M2113 2584q-425 0-674-291-248-290-248-796 0-503 248-796 249-292 674-292t673 292q248 293 248 796 0 506-248 796-248 291-673 291zm1253 1979v-575q-238 112-480 171-242 60-480 60-625 0-955-422-329-422-376-1275 184 272 462 417 279 145 613 145 703 0 1111-427 408-426 408-1160 0-719-425-1154Q2819-91 2113-91q-810 0-1238 620-428 621-428 1799 0 1106 525 1764t1409 658q238 0 480-47t505-140z" transform="scale(.01563)"/></defs><use xlink:href="#DejaVuSans-32"/><use xlink:href="#DejaVuSans-30" x="63.623"/><use xlink:href="#DejaVuSans-31" x="127.246"/><use xlink:href="#DejaVuSans-36" x="190.869"/></g></g><g id="xtick_5"><use xlink:href="#m75ffec49f0" x="351.958" y="280.087" style="fill:#b0b0b0;stroke:#b0b0b0;stroke-width:.4" id="line2d_5"/><g style="fill:#b0b0b0" transform="matrix(.14 0 0 -.14 334.143 297.724)" id="text_5"><defs><path id="DejaVuSans-38" d="M2034 2216q-450 0-708-241-257-241-257-662 0-422 257-663 258-241 708-241t709 242q260 243 260 662 0 421-258 662-257 241-711 241zm-631 268q-406 100-633 378-226 279-226 679 0 559 398 884 399 325 1092 325 697 0 1094-325t397-884q0-400-227-679-226-278-629-378 456-106 710-416 255-309 255-755 0-679-414-1042Q2806-91 2034-91q-771 0-1186 362-414 363-414 1042 0 446 256 755 257 310 713 416zm-231 997q0-362 226-565 227-203 636-203 407 0 636 203 230 203 230 565 0 363-230 566-229 203-636 203-409 0-636-203-226-203-226-566z" transform="scale(.01563)"/></defs><use xlink:href="#DejaVuSans-32"/><use xlink:href="#DejaVuSans-30" x="63.623"/><use xlink:href="#DejaVuSans-31" x="127.246"/><use xlink:href="#DejaVuSans-38" x="190.869"/></g></g><g id="xtick_6"><use xlink:href="#m75ffec49f0" x="403.54" y="280.087" style="fill:#b0b0b0;stroke:#b0b0b0;stroke-width:.4" id="line2d_6"/><g style="fill:#b0b0b0" transform="matrix(.14 0 0 -.14 385.725 297.724)" id="text_6"><use xlink:href="#DejaVuSans-32"/><use xlink:href="#DejaVuSans-30" x="63.623"/><use xlink:href="#DejaVuSans-32" x="127.246"/><use xlink:href="#DejaVuSans-30" x="190.869"/></g></g><g id="xtick_7"><use xlink:href="#m75ffec49f0" x="455.193" y="280.087" style="fill:#b0b0b0;stroke:#b0b0b0;stroke-width:.4" id="line2d_7"/><g style="fill:#b0b0b0" transform="matrix(.14 0 0 -.14 437.378 297.724)" id="text_7"><use xlink:href="#DejaVuSans-32"/><use xlink:href="#DejaVuSans-30" x="63.623"/><use xlink:href="#DejaVuSans-32" x="127.246"/><use xlink:href="#DejaVuSans-32" x="190.869"/></g></g></g><g id="matplotlib.axis_2"><g id="ytick_1"><path d="M98.073 280.087h357.12" clip-path="url(#p4b4875b7b8)" style="fill:none;stroke:#b0b0b0;stroke-width:.3;stroke-linecap:square" id="line2d_8"/><g id="line2d_9"><defs><path id="mfd684b2f65" d="M0 0h-3.5" style="stroke:#b0b0b0;stroke-width:.3"/></defs><use xlink:href="#mfd684b2f65" x="98.073" y="280.087" style="fill:#b0b0b0;stroke:#b0b0b0;stroke-width:.3"/></g><use xlink:href="#DejaVuSans-30" style="fill:#b0b0b0" transform="matrix(.14 0 0 -.14 82.166 285.406)" id="text_8"/></g><g id="ytick_2"><path d="M98.073 224.02h357.12" clip-path="url(#p4b4875b7b8)" style="fill:none;stroke:#b0b0b0;stroke-width:.3;stroke-linecap:square" id="line2d_10"/><use xlink:href="#mfd684b2f65" x="98.073" y="224.021" style="fill:#b0b0b0;stroke:#b0b0b0;stroke-width:.3" id="line2d_11"/><g style="fill:#b0b0b0" transform="matrix(.14 0 0 -.14 55.443 229.34)" id="text_9"><defs><path id="DejaVuSans-35" d="M691 4666h2478v-532H1269V2991q137 47 274 70 138 23 276 23 781 0 1237-428 457-428 457-1159 0-753-469-1171Q2575-91 1722-91q-294 0-599 50Q819 9 494 109v635q281-153 581-228t634-75q541 0 856 284 316 284 316 772 0 487-316 771-315 285-856 285-253 0-505-56-251-56-513-175v2344z" transform="scale(.01563)"/></defs><use xlink:href="#DejaVuSans-35"/><use xlink:href="#DejaVuSans-30" x="63.623"/><use xlink:href="#DejaVuSans-30" x="127.246"/><use xlink:href="#DejaVuSans-30" x="190.869"/></g></g><g id="ytick_3"><path d="M98.073 167.955h357.12" clip-path="url(#p4b4875b7b8)" style="fill:none;stroke:#b0b0b0;stroke-width:.3;stroke-linecap:square" id="line2d_12"/><use xlink:href="#mfd684b2f65" x="98.073" y="167.955" style="fill:#b0b0b0;stroke:#b0b0b0;stroke-width:.3" id="line2d_13"/><g style="fill:#b0b0b0" transform="matrix(.14 0 0 -.14 46.536 173.273)" id="text_10"><use xlink:href="#DejaVuSans-31"/><use xlink:href="#DejaVuSans-30" x="63.623"/><use xlink:href="#DejaVuSans-30" x="127.246"/><use xlink:href="#DejaVuSans-30" x="190.869"/><use xlink:href="#DejaVuSans-30" x="254.492"/></g></g><g id="ytick_4"><path d="M98.073 111.888h357.12" clip-path="url(#p4b4875b7b8)" style="fill:none;stroke:#b0b0b0;stroke-width:.3;stroke-linecap:square" id="line2d_14"/><use xlink:href="#mfd684b2f65" x="98.073" y="111.888" style="fill:#b0b0b0;stroke:#b0b0b0;stroke-width:.3" id="line2d_15"/><g style="fill:#b0b0b0" transform="matrix(.14 0 0 -.14 46.536 117.207)" id="text_11"><use xlink:href="#DejaVuSans-31"/><use xlink:href="#DejaVuSans-35" x="63.623"/><use xlink:href="#DejaVuSans-30" x="127.246"/><use xlink:href="#DejaVuSans-30" x="190.869"/><use xlink:href="#DejaVuSans-30" x="254.492"/></g></g><g id="ytick_5"><path d="M98.073 55.822h357.12" clip-path="url(#p4b4875b7b8)" style="fill:none;stroke:#b0b0b0;stroke-width:.3;stroke-linecap:square" id="line2d_16"/><use xlink:href="#mfd684b2f65" x="98.073" y="55.822" style="fill:#b0b0b0;stroke:#b0b0b0;stroke-width:.3" id="line2d_17"/><g style="fill:#b0b0b0" transform="matrix(.14 0 0 -.14 46.536 61.141)" id="text_12"><use xlink:href="#DejaVuSans-32"/><use xlink:href="#DejaVuSans-30" x="63.623"/><use xlink:href="#DejaVuSans-30" x="127.246"/><use xlink:href="#DejaVuSans-30" x="190.869"/><use xlink:href="#DejaVuSans-30" x="254.492"/></g></g><g style="fill:#b0b0b0" transform="matrix(.14 0 0 -.14 7.2 26.3)" id="text_13"><defs><path id="DejaVuSans-47" d="M3809 666v1253H2778v519h1656V434q-365-259-806-392-440-133-940-133-1094 0-1712 639-617 640-617 1780 0 1144 617 1783 618 639 1712 639 456 0 867-113 411-112 758-331v-672q-350 297-744 447t-828 150q-857 0-1287-478-429-478-429-1425 0-944 429-1422 430-478 1287-478 334 0 596 58 263 58 472 180z" transform="scale(.01563)"/><path id="DejaVuSans-69" d="M603 3500h575V0H603v3500zm0 1363h575v-729H603v729z" transform="scale(.01563)"/><path id="DejaVuSans-74" d="M1172 4494v-994h1184v-447H1172V1153q0-428 117-550t477-122h590V0h-590q-666 0-919 248-253 249-253 905v1900H172v447h422v994h578z" transform="scale(.01563)"/><path id="DejaVuSans-48" d="M628 4666h631V2753h2294v1913h631V0h-631v2222H1259V0H628v4666z" transform="scale(.01563)"/><path id="DejaVuSans-75" d="M544 1381v2119h575V1403q0-497 193-746 194-248 582-248 465 0 735 297 271 297 271 810v1984h575V0h-575v538q-209-319-486-474-276-155-642-155-603 0-916 375-312 375-312 1097zm1447 2203z" transform="scale(.01563)"/><path id="DejaVuSans-62" d="M3116 1747q0 634-261 995t-717 361q-457 0-718-361t-261-995q0-634 261-995t718-361q456 0 717 361t261 995zM1159 2969q182 312 458 463 277 152 661 152 638 0 1036-506 399-506 399-1331T3314 415Q2916-91 2278-91q-384 0-661 152-276 152-458 464V0H581v4863h578V2969z" transform="scale(.01563)"/><path id="DejaVuSans-73" d="M2834 3397v-544q-243 125-506 187-262 63-544 63-428 0-642-131t-214-394q0-200 153-314t616-217l197-44q612-131 870-370t258-667q0-488-386-773Q2250-91 1575-91q-281 0-586 55T347 128v594q319-166 628-249 309-82 613-82 406 0 624 139 219 139 219 392 0 234-158 359-157 125-692 241l-200 47q-534 112-772 345-237 233-237 639 0 494 350 762 350 269 994 269 318 0 599-47 282-46 519-140z" transform="scale(.01563)"/><path id="DejaVuSans-61" d="M2194 1759q-697 0-966-159t-269-544q0-306 202-486 202-179 548-179 479 0 768 339t289 901v128h-572zm1147 238V0h-575v531q-197-318-491-470T1556-91q-537 0-855 302-317 302-317 808 0 590 395 890 396 300 1180 300h807v57q0 397-261 614t-733 217q-300 0-585-72-284-72-546-216v532q315 122 612 182 297 61 578 61 760 0 1135-394 375-393 375-1193z" transform="scale(.01563)"/><path id="DejaVuSans-72" d="M2631 2963q-97 56-211 82-114 27-251 27-488 0-749-317t-261-911V0H581v3500h578v-544q182 319 472 473 291 155 707 155 59 0 131-8 72-7 159-23l3-590z" transform="scale(.01563)"/></defs><use xlink:href="#DejaVuSans-47"/><use xlink:href="#DejaVuSans-69" x="77.49"/><use xlink:href="#DejaVuSans-74" x="105.273"/><use xlink:href="#DejaVuSans-48" x="144.482"/><use xlink:href="#DejaVuSans-75" x="219.678"/><use xlink:href="#DejaVuSans-62" x="283.057"/><use xlink:href="#DejaVuSans-20" x="346.533"/><use xlink:href="#DejaVuSans-73" x="378.32"/><use xlink:href="#DejaVuSans-74" x="430.42"/><use xlink:href="#DejaVuSans-61" x="469.629"/><use xlink:href="#DejaVuSans-72" x="530.908"/><use xlink:href="#DejaVuSans-73" x="572.021"/></g></g><path d="m98.073 280.087 2.19-.27 10.812-.661 6.43-.303 10.67-.863 25.79-1.492 2.191-.235 6.501-.303 10.811-.751 4.17-.325 6.43-.303 30.242-.852 10.811-.101 25.792-3.24 1.978-.45 4.31-.66 6.501-.965 25.791-3.902 4.31-.909 2.191-.38 2.12-.584 6.43-1.076 2.19-.505 6.43-1.043 8.692-2.007 2.12-.393 8.55-2.265 6.43-1.233 2.19-.482 2.191-.337 6.43-1.513 12.86-2.546 6.501-1.144 8.62-1.267 4.17-.807 4.31-.751 6.5-1.256 6.502-1.178 6.5-1.603 4.24-1.02 6.43-1.907 8.692-2.108 10.67-2.455 4.31-.909 2.12-.325 4.38-1.177 8.621-1.581h0" clip-path="url(#p4b4875b7b8)" style="fill:none;stroke:#9edae5;stroke-width:1.5;stroke-linecap:square" id="line2d_18"/><path d="m222.93 280.087 2.191-1.458 1.979-.404 2.19-.47 2.12-.37 2.19-.326 2.12-.314 2.191-.303 2.19-.37 2.12-.291 2.19-.337 2.12-.302 2.191-.157 2.19-.19 1.98-.315 2.19-.359 2.12-.291 2.19-.37 2.12-.337 2.19-.37 2.19-.269 2.12-.404 2.191-.347 2.12-.494 2.19-.314 2.19-.347 1.98-.381 2.19-.449 2.12-.348 2.19-.426 2.12-.527 2.19-.639 2.19-.516 2.12-.448 2.191-.662 2.12-.65 2.19-.46 2.191-.37 2.05-.381 2.19-1.615 2.12-.572 2.19-.818 2.12-.606 2.19-.392 2.19-.426 2.12-.527 2.191-1.267 2.12-.584 2.19-.527 2.19-.493 1.98-.964 2.19-.538 2.12-.572 2.19-.561 2.12-.292 2.19-.493 2.191-.55 2.12-.482 2.19-.583 2.12-.594 2.19-.47 2.191-.786 1.979-.437 2.19-.471 2.12-.426 2.19-.55 2.12-.325 2.19-.359 2.191-.527 2.12-.291 2.19-.505 2.12-.47 2.19-.37 2.191-.651 1.979-.426 2.19-.482 2.12-.46 2.19-.381 2.12-.673 2.19-.516 2.191-.426 2.12-.583 2.19-.258 2.12-.393 2.191-.358 2.19-.483 2.05-.392 2.19-.493 2.12-.494 2.19-.493 2.12-.449 2.19-.381 2.191-.235 2.12-.516 2.19-.382 2.12-.414 2.19-.55 2.191-.359 1.979-.28 2.19-.437 2.12-.404 2.19-.527 2.12-.37 2.191-.336 2.19-.404 2.12-.337 2.19-.358 2.12-.326 2.191-.437" clip-path="url(#p4b4875b7b8)" style="fill:none;stroke:#dbdb8d;stroke-width:1.5;stroke-linecap:square" id="line2d_19"/><path d="m229.29 280.087 2.12-1.436 2.19-.246 2.12-.101 2.191-.583 2.19-.36 2.12-.549 2.19-.157 2.12-.168 2.191-.19 2.19-.18 1.98-.157 2.19-.224 2.12-.359 2.19-.291 2.12-.169 2.19-.269 2.19-.246 2.12-.225 2.191-.314 2.12-.157 2.19-.112 2.19-.314 1.98-.146 2.19-.291 2.12-.292 2.19-.224 2.12-.258 2.19-.269 2.19-.37 2.12-.359 2.191-.269 2.12-.504 2.19-.64 2.191-.504 2.05-.572 2.19-.751 2.12-.46 2.19-.359 2.12-.348 2.19-.358 2.19-.471 2.12-.348 2.191-.482 2.12-.415 2.19-.482 2.19-.56 1.98-.337 2.19-.494 2.12-.403 2.19-.438 2.12-.46 2.19-.313 2.191-.337 2.12-.807 2.19-.213 2.12-.505 2.19-.392 2.191-.404 1.979-.336 2.19-.348 2.12-.336 2.19-.393 2.12-.538 2.19-.392 2.191-.37 2.12-.258 2.19-.382 2.12-.38 2.19-.382 2.191-.37 1.979-.314 2.19-.538 2.12-.64 2.19-.594 2.12-.482 2.19-.818 2.191-.483 2.12-.55 2.19-.571 2.12-.64 2.191-.582 2.19-.56 2.05-.494 2.19-.662 2.12-.874 2.19-1.212 2.12-1.02 2.19-.897 2.191-.706 2.12-.752 2.19-.986 2.12-.662 2.19-.729 2.191-1.043 1.979-.628 2.19-.83 2.12-.773 2.19-.774 2.12-.684 2.191-.964 2.19-.875 2.12-.617 2.19-.684 2.12-.695 2.191-.65" clip-path="url(#p4b4875b7b8)" style="fill:none;stroke:#c7c7c7;stroke-width:1.5;stroke-linecap:square" id="line2d_20"/><g style="fill:#1f77b4" transform="matrix(.14 0 0 -.14 465.907 17.838)" id="text_14"><defs><path id="DejaVuSans-79" d="M2059-325q-243-625-475-815-231-191-618-191H506v481h338q237 0 368 113 132 112 291 531l103 262L191 3500h609L1894 763l1094 2737h609L2059-325z" transform="scale(.01563)"/><path id="DejaVuSans-63" d="M3122 3366v-538q-244 135-489 202t-495 67q-560 0-870-355-309-354-309-995t309-996q310-354 870-354 250 0 495 67t489 202V134Q2881 22 2623-34q-257-57-548-57-791 0-1257 497-465 497-465 1341 0 856 470 1346 471 491 1290 491 265 0 518-55 253-54 491-163z" transform="scale(.01563)"/><path id="DejaVuSans-6d" d="M3328 2828q216 388 516 572t706 184q547 0 844-383 297-382 297-1088V0h-578v2094q0 503-179 746-178 244-543 244-447 0-707-297-259-296-259-809V0h-578v2094q0 506-178 748t-550 242q-441 0-701-298-259-298-259-808V0H581v3500h578v-544q197 322 472 475t653 153q382 0 649-194 267-193 395-562z" transform="scale(.01563)"/><path id="DejaVuSans-2d" d="M313 2009h1684v-512H313v512z" transform="scale(.01563)"/><path id="DejaVuSans-6f" d="M1959 3097q-462 0-731-361t-269-989q0-628 267-989 268-361 733-361 460 0 728 362 269 363 269 988 0 622-269 986-268 364-728 364zm0 487q750 0 1178-488 429-487 429-1349 0-859-429-1349Q2709-91 1959-91q-753 0-1180 489-426 490-426 1349 0 862 426 1349 427 488 1180 488z" transform="scale(.01563)"/><path id="DejaVuSans-65" d="M3597 1894v-281H953q38-594 358-905t892-311q331 0 642 81t618 244V178Q3153 47 2828-22t-659-69q-838 0-1327 487-489 488-489 1320 0 859 464 1363 464 505 1252 505 706 0 1117-455 411-454 411-1235zm-575 169q-6 471-264 752-258 282-683 282-481 0-770-272t-333-766l2050 4z" transform="scale(.01563)"/><path id="DejaVuSans-2f" d="M1625 4666h531L531-594H0l1625 5260z" transform="scale(.01563)"/><path id="DejaVuSans-59" d="M-13 4666h679l1293-1919 1285 1919h678L2272 2222V0h-634v2222L-13 4666z" transform="scale(.01563)"/><path id="DejaVuSans-43" d="M4122 4306v-665q-319 297-680 443-361 147-767 147-800 0-1225-489t-425-1414q0-922 425-1411t1225-489q406 0 767 147t680 444V359q-331-225-702-338-370-112-782-112-1060 0-1670 648-609 649-609 1771 0 1125 609 1773 610 649 1670 649 418 0 788-111 371-111 696-333z" transform="scale(.01563)"/><path id="DejaVuSans-70" d="M1159 525v-1856H581v4831h578v-531q182 312 458 463 277 152 661 152 638 0 1036-506 399-506 399-1331T3314 415Q2916-91 2278-91q-384 0-661 152-276 152-458 464zm1957 1222q0 634-261 995t-717 361q-457 0-718-361t-261-995q0-634 261-995t718-361q456 0 717 361t261 995z" transform="scale(.01563)"/><path id="DejaVuSans-6c" d="M603 4863h575V0H603v4863z" transform="scale(.01563)"/><path id="DejaVuSans-4d" d="M628 4666h941l1190-3175 1197 3175h941V0h-616v4097L3078 897h-634L1241 4097V0H628v4666z" transform="scale(.01563)"/></defs><use xlink:href="#DejaVuSans-79"/><use xlink:href="#DejaVuSans-63" x="59.18"/><use xlink:href="#DejaVuSans-6d" x="114.16"/><use xlink:href="#DejaVuSans-2d" x="211.572"/><use xlink:href="#DejaVuSans-63" x="247.656"/><use xlink:href="#DejaVuSans-6f" x="302.637"/><use xlink:href="#DejaVuSans-72" x="363.818"/><use xlink:href="#DejaVuSans-65" x="402.682"/><use xlink:href="#DejaVuSans-2f" x="464.205"/><use xlink:href="#DejaVuSans-59" x="497.896"/><use xlink:href="#DejaVuSans-6f" x="545.73"/><use xlink:href="#DejaVuSans-75" x="606.912"/><use xlink:href="#DejaVuSans-43" x="670.291"/><use xlink:href="#DejaVuSans-6f" x="740.115"/><use xlink:href="#DejaVuSans-6d" x="801.297"/><use xlink:href="#DejaVuSans-70" x="898.709"/><use xlink:href="#DejaVuSans-6c" x="962.186"/><use xlink:href="#DejaVuSans-65" x="989.969"/><use xlink:href="#DejaVuSans-74" x="1051.492"/><use xlink:href="#DejaVuSans-65" x="1090.701"/><use xlink:href="#DejaVuSans-4d" x="1152.225"/><use xlink:href="#DejaVuSans-65" x="1238.504"/></g><g style="fill:#ff7f0e" transform="matrix(.14 0 0 -.14 465.907 50.127)" id="text_15"><defs><path id="DejaVuSans-6e" d="M3513 2113V0h-575v2094q0 497-194 743-194 247-581 247-466 0-735-297-269-296-269-809V0H581v3500h578v-544q207 316 486 472 280 156 646 156 603 0 912-373 310-373 310-1098z" transform="scale(.01563)"/><path id="DejaVuSans-64" d="M2906 2969v1894h575V0h-575v525q-181-312-458-464-276-152-664-152-634 0-1033 506-398 507-398 1332t398 1331q399 506 1033 506 388 0 664-152 277-151 458-463zM947 1747q0-634 261-995t717-361q456 0 718 361 263 361 263 995t-263 995q-262 361-718 361t-717-361q-261-361-261-995z" transform="scale(.01563)"/><path id="DejaVuSans-2e" d="M684 794h660V0H684v794z" transform="scale(.01563)"/><path id="DejaVuSans-76" d="M191 3500h609L1894 563l1094 2937h609L2284 0h-781L191 3500z" transform="scale(.01563)"/></defs><use xlink:href="#DejaVuSans-6e"/><use xlink:href="#DejaVuSans-65" x="63.379"/><use xlink:href="#DejaVuSans-6f" x="124.902"/><use xlink:href="#DejaVuSans-63" x="186.084"/><use xlink:href="#DejaVuSans-6c" x="241.064"/><use xlink:href="#DejaVuSans-69" x="268.848"/><use xlink:href="#DejaVuSans-64" x="296.631"/><use xlink:href="#DejaVuSans-65" x="360.107"/><use xlink:href="#DejaVuSans-2f" x="421.631"/><use xlink:href="#DejaVuSans-63" x="455.322"/><use xlink:href="#DejaVuSans-6f" x="510.303"/><use xlink:href="#DejaVuSans-63" x="571.484"/><use xlink:href="#DejaVuSans-2e" x="626.465"/><use xlink:href="#DejaVuSans-6e" x="658.252"/><use xlink:href="#DejaVuSans-76" x="721.631"/><use xlink:href="#DejaVuSans-69" x="780.811"/><use xlink:href="#DejaVuSans-6d" x="808.594"/></g><g style="fill:#2ca02c" transform="matrix(.14 0 0 -.14 465.907 64.127)" id="text_16"><use xlink:href="#DejaVuSans-70"/><use xlink:href="#DejaVuSans-72" x="63.477"/><use xlink:href="#DejaVuSans-65" x="102.34"/><use xlink:href="#DejaVuSans-73" x="163.863"/><use xlink:href="#DejaVuSans-65" x="215.963"/><use xlink:href="#DejaVuSans-72" x="277.486"/><use xlink:href="#DejaVuSans-76" x="318.6"/><use xlink:href="#DejaVuSans-69" x="377.779"/><use xlink:href="#DejaVuSans-6d" x="405.563"/><use xlink:href="#DejaVuSans-2f" x="502.975"/><use xlink:href="#DejaVuSans-6e" x="536.666"/><use xlink:href="#DejaVuSans-65" x="600.045"/><use xlink:href="#DejaVuSans-72" x="661.568"/><use xlink:href="#DejaVuSans-64" x="700.932"/><use xlink:href="#DejaVuSans-74" x="764.408"/><use xlink:href="#DejaVuSans-72" x="803.617"/><use xlink:href="#DejaVuSans-65" x="842.48"/><use xlink:href="#DejaVuSans-65" x="904.004"/></g><g style="fill:#d62728" transform="matrix(.14 0 0 -.14 465.907 78.127)" id="text_17"><use xlink:href="#DejaVuSans-76"/><use xlink:href="#DejaVuSans-69" x="59.18"/><use xlink:href="#DejaVuSans-6d" x="86.963"/><use xlink:href="#DejaVuSans-2d" x="184.375"/><use xlink:href="#DejaVuSans-61" x="220.459"/><use xlink:href="#DejaVuSans-69" x="281.738"/><use xlink:href="#DejaVuSans-72" x="309.521"/><use xlink:href="#DejaVuSans-6c" x="350.635"/><use xlink:href="#DejaVuSans-69" x="378.418"/><use xlink:href="#DejaVuSans-6e" x="406.201"/><use xlink:href="#DejaVuSans-65" x="469.58"/><use xlink:href="#DejaVuSans-2f" x="531.104"/><use xlink:href="#DejaVuSans-76" x="564.795"/><use xlink:href="#DejaVuSans-69" x="623.975"/><use xlink:href="#DejaVuSans-6d" x="651.758"/><use xlink:href="#DejaVuSans-2d" x="749.17"/><use xlink:href="#DejaVuSans-61" x="785.254"/><use xlink:href="#DejaVuSans-69" x="846.533"/><use xlink:href="#DejaVuSans-72" x="874.316"/><use xlink:href="#DejaVuSans-6c" x="915.43"/><use xlink:href="#DejaVuSans-69" x="943.213"/><use xlink:href="#DejaVuSans-6e" x="970.996"/><use xlink:href="#DejaVuSans-65" x="1034.375"/></g><g style="fill:#9467bd" transform="matrix(.14 0 0 -.14 465.907 92.127)" id="text_18"><defs><path id="DejaVuSans-66" d="M2375 4863v-479h-550q-309 0-430-125-120-125-120-450v-309h947v-447h-947V0H697v3053H147v447h550v244q0 584 272 851 272 268 862 268h544z" transform="scale(.01563)"/><path id="DejaVuSans-67" d="M2906 1791q0 625-258 968-257 344-723 344-462 0-720-344-258-343-258-968 0-622 258-966t720-344q466 0 723 344 258 344 258 966zm575-1357q0-893-397-1329-396-436-1215-436-303 0-572 45t-522 139v559q253-137 500-202 247-66 503-66 566 0 847 295t281 892v285q-178-310-456-463T1784 0Q1141 0 747 490 353 981 353 1791q0 812 394 1302 394 491 1037 491 388 0 666-153t456-462v531h575V434z" transform="scale(.01563)"/></defs><use xlink:href="#DejaVuSans-74"/><use xlink:href="#DejaVuSans-70" x="39.209"/><use xlink:href="#DejaVuSans-6f" x="102.686"/><use xlink:href="#DejaVuSans-70" x="163.867"/><use xlink:href="#DejaVuSans-65" x="227.344"/><use xlink:href="#DejaVuSans-2f" x="288.867"/><use xlink:href="#DejaVuSans-76" x="322.559"/><use xlink:href="#DejaVuSans-69" x="381.738"/><use xlink:href="#DejaVuSans-6d" x="409.521"/><use xlink:href="#DejaVuSans-2d" x="506.934"/><use xlink:href="#DejaVuSans-66" x="543.018"/><use xlink:href="#DejaVuSans-75" x="578.223"/><use xlink:href="#DejaVuSans-67" x="641.602"/><use xlink:href="#DejaVuSans-69" x="705.078"/><use xlink:href="#DejaVuSans-74" x="732.861"/><use xlink:href="#DejaVuSans-69" x="772.07"/><use xlink:href="#DejaVuSans-76" x="799.854"/><use xlink:href="#DejaVuSans-65" x="859.033"/></g><g style="fill:#8c564b" transform="matrix(.14 0 0 -.14 465.907 106.127)" id="text_19"><defs><path id="DejaVuSans-68" d="M3513 2113V0h-575v2094q0 497-194 743-194 247-581 247-466 0-735-297-269-296-269-809V0H581v4863h578V2956q207 316 486 472 280 156 646 156 603 0 912-373 310-373 310-1098z" transform="scale(.01563)"/></defs><use xlink:href="#DejaVuSans-66"/><use xlink:href="#DejaVuSans-61" x="35.205"/><use xlink:href="#DejaVuSans-74" x="96.484"/><use xlink:href="#DejaVuSans-69" x="135.693"/><use xlink:href="#DejaVuSans-68" x="163.477"/><use xlink:href="#DejaVuSans-2f" x="226.855"/><use xlink:href="#DejaVuSans-76" x="260.547"/><use xlink:href="#DejaVuSans-69" x="319.727"/><use xlink:href="#DejaVuSans-6d" x="347.51"/><use xlink:href="#DejaVuSans-2d" x="444.922"/><use xlink:href="#DejaVuSans-67" x="481.006"/><use xlink:href="#DejaVuSans-6f" x="544.482"/></g><g style="fill:#e377c2" transform="matrix(.14 0 0 -.14 465.907 120.127)" id="text_20"><use xlink:href="#DejaVuSans-64"/><use xlink:href="#DejaVuSans-65" x="63.477"/><use xlink:href="#DejaVuSans-6e" x="125"/><use xlink:href="#DejaVuSans-73" x="188.379"/><use xlink:href="#DejaVuSans-65" x="240.479"/><use xlink:href="#DejaVuSans-2d" x="302.002"/><use xlink:href="#DejaVuSans-61" x="338.086"/><use xlink:href="#DejaVuSans-6e" x="399.365"/><use xlink:href="#DejaVuSans-61" x="462.744"/><use xlink:href="#DejaVuSans-6c" x="524.023"/><use xlink:href="#DejaVuSans-79" x="551.807"/><use xlink:href="#DejaVuSans-73" x="610.986"/><use xlink:href="#DejaVuSans-69" x="663.086"/><use xlink:href="#DejaVuSans-73" x="690.869"/><use xlink:href="#DejaVuSans-2f" x="742.969"/><use xlink:href="#DejaVuSans-61" x="776.66"/><use xlink:href="#DejaVuSans-6c" x="837.939"/><use xlink:href="#DejaVuSans-65" x="865.723"/></g><g style="fill:#7f7f7f" transform="matrix(.14 0 0 -.14 465.907 134.127)" id="text_21"><use xlink:href="#DejaVuSans-76"/><use xlink:href="#DejaVuSans-69" x="59.18"/><use xlink:href="#DejaVuSans-6d" x="86.963"/><use xlink:href="#DejaVuSans-2d" x="184.375"/><use xlink:href="#DejaVuSans-73" x="220.459"/><use xlink:href="#DejaVuSans-79" x="272.559"/><use xlink:href="#DejaVuSans-6e" x="331.738"/><use xlink:href="#DejaVuSans-74" x="395.117"/><use xlink:href="#DejaVuSans-61" x="434.326"/><use xlink:href="#DejaVuSans-73" x="495.605"/><use xlink:href="#DejaVuSans-74" x="547.705"/><use xlink:href="#DejaVuSans-69" x="586.914"/><use xlink:href="#DejaVuSans-63" x="614.697"/><use xlink:href="#DejaVuSans-2f" x="669.678"/><use xlink:href="#DejaVuSans-73" x="703.369"/><use xlink:href="#DejaVuSans-79" x="755.469"/><use xlink:href="#DejaVuSans-6e" x="814.648"/><use xlink:href="#DejaVuSans-74" x="878.027"/><use xlink:href="#DejaVuSans-61" x="917.236"/><use xlink:href="#DejaVuSans-73" x="978.516"/><use xlink:href="#DejaVuSans-74" x="1030.615"/><use xlink:href="#DejaVuSans-69" x="1069.824"/><use xlink:href="#DejaVuSans-63" x="1097.607"/></g><g style="fill:#bcbd22" transform="matrix(.14 0 0 -.14 465.907 148.127)" id="text_22"><use xlink:href="#DejaVuSans-74"/><use xlink:href="#DejaVuSans-70" x="39.209"/><use xlink:href="#DejaVuSans-6f" x="102.686"/><use xlink:href="#DejaVuSans-70" x="163.867"/><use xlink:href="#DejaVuSans-65" x="227.344"/><use xlink:href="#DejaVuSans-2f" x="288.867"/><use xlink:href="#DejaVuSans-76" x="322.559"/><use xlink:href="#DejaVuSans-69" x="381.738"/><use xlink:href="#DejaVuSans-6d" x="409.521"/><use xlink:href="#DejaVuSans-2d" x="506.934"/><use xlink:href="#DejaVuSans-73" x="543.018"/><use xlink:href="#DejaVuSans-75" x="595.117"/><use xlink:href="#DejaVuSans-72" x="658.496"/><use xlink:href="#DejaVuSans-72" x="697.859"/><use xlink:href="#DejaVuSans-6f" x="736.723"/><use xlink:href="#DejaVuSans-75" x="797.904"/><use xlink:href="#DejaVuSans-6e" x="861.283"/><use xlink:href="#DejaVuSans-64" x="924.662"/></g><g style="fill:#17becf" transform="matrix(.14 0 0 -.14 465.907 162.127)" id="text_23"><defs><path id="DejaVuSans-54" d="M-19 4666h3947v-532H2272V0h-634v4134H-19v532z" transform="scale(.01563)"/><path id="DejaVuSans-4e" d="M628 4666h850L3547 763v3903h612V0h-850L1241 3903V0H628v4666z" transform="scale(.01563)"/></defs><use xlink:href="#DejaVuSans-63"/><use xlink:href="#DejaVuSans-6f" x="54.98"/><use xlink:href="#DejaVuSans-64" x="116.162"/><use xlink:href="#DejaVuSans-6f" x="179.639"/><use xlink:href="#DejaVuSans-74" x="240.82"/><use xlink:href="#DejaVuSans-61" x="280.029"/><use xlink:href="#DejaVuSans-2f" x="341.309"/><use xlink:href="#DejaVuSans-54" x="375"/><use xlink:href="#DejaVuSans-61" x="419.584"/><use xlink:href="#DejaVuSans-62" x="480.863"/><use xlink:href="#DejaVuSans-4e" x="544.34"/><use xlink:href="#DejaVuSans-69" x="619.145"/><use xlink:href="#DejaVuSans-6e" x="646.928"/><use xlink:href="#DejaVuSans-65" x="710.307"/></g><g style="fill:#aec7e8" transform="matrix(.14 0 0 -.14 465.907 176.127)" id="text_24"><use xlink:href="#DejaVuSans-74"/><use xlink:href="#DejaVuSans-65" x="39.209"/><use xlink:href="#DejaVuSans-72" x="100.732"/><use xlink:href="#DejaVuSans-72" x="140.096"/><use xlink:href="#DejaVuSans-79" x="181.209"/><use xlink:href="#DejaVuSans-6d" x="240.389"/><use xlink:href="#DejaVuSans-61" x="337.801"/><use xlink:href="#DejaVuSans-2f" x="399.08"/><use xlink:href="#DejaVuSans-76" x="432.771"/><use xlink:href="#DejaVuSans-69" x="491.951"/><use xlink:href="#DejaVuSans-6d" x="519.734"/><use xlink:href="#DejaVuSans-2d" x="617.146"/><use xlink:href="#DejaVuSans-6d" x="653.23"/><use xlink:href="#DejaVuSans-75" x="750.643"/><use xlink:href="#DejaVuSans-6c" x="814.021"/><use xlink:href="#DejaVuSans-74" x="841.805"/><use xlink:href="#DejaVuSans-69" x="881.014"/><use xlink:href="#DejaVuSans-70" x="908.797"/><use xlink:href="#DejaVuSans-6c" x="972.273"/><use xlink:href="#DejaVuSans-65" x="1000.057"/><use xlink:href="#DejaVuSans-2d" x="1061.58"/><use xlink:href="#DejaVuSans-63" x="1097.664"/><use xlink:href="#DejaVuSans-75" x="1152.645"/><use xlink:href="#DejaVuSans-72" x="1216.023"/><use xlink:href="#DejaVuSans-73" x="1257.137"/><use xlink:href="#DejaVuSans-6f" x="1309.236"/><use xlink:href="#DejaVuSans-72" x="1370.418"/><use xlink:href="#DejaVuSans-73" x="1411.531"/></g><g style="fill:#ffbb78" transform="matrix(.14 0 0 -.14 465.907 190.127)" id="text_25"><defs><path id="DejaVuSans-6a" d="M603 3500h575V-63q0-668-255-968-254-300-820-300h-219v487H38q328 0 446 152Q603-541 603-63v3563zm0 1363h575v-729H603v729z" transform="scale(.01563)"/><path id="DejaVuSans-7a" d="M353 3500h2731v-525L922 459h2162V0H275v525l2163 2516H353v459z" transform="scale(.01563)"/></defs><use xlink:href="#DejaVuSans-6a"/><use xlink:href="#DejaVuSans-75" x="27.783"/><use xlink:href="#DejaVuSans-6e" x="91.162"/><use xlink:href="#DejaVuSans-65" x="154.541"/><use xlink:href="#DejaVuSans-67" x="216.064"/><use xlink:href="#DejaVuSans-75" x="279.541"/><use xlink:href="#DejaVuSans-6e" x="342.92"/><use xlink:href="#DejaVuSans-6e" x="406.299"/><use xlink:href="#DejaVuSans-2f" x="469.678"/><use xlink:href="#DejaVuSans-66" x="503.369"/><use xlink:href="#DejaVuSans-7a" x="538.574"/><use xlink:href="#DejaVuSans-66" x="591.064"/><use xlink:href="#DejaVuSans-2e" x="619.02"/><use xlink:href="#DejaVuSans-76" x="650.807"/><use xlink:href="#DejaVuSans-69" x="709.986"/><use xlink:href="#DejaVuSans-6d" x="737.77"/></g><g style="fill:#98df8a" transform="matrix(.14 0 0 -.14 465.907 204.127)" id="text_26"><use xlink:href="#DejaVuSans-61"/><use xlink:href="#DejaVuSans-69" x="61.279"/><use xlink:href="#DejaVuSans-72" x="89.063"/><use xlink:href="#DejaVuSans-62" x="130.176"/><use xlink:href="#DejaVuSans-6c" x="193.652"/><use xlink:href="#DejaVuSans-61" x="221.436"/><use xlink:href="#DejaVuSans-64" x="282.715"/><use xlink:href="#DejaVuSans-65" x="346.191"/><use xlink:href="#DejaVuSans-2f" x="407.715"/><use xlink:href="#DejaVuSans-76" x="441.406"/><use xlink:href="#DejaVuSans-69" x="500.586"/><use xlink:href="#DejaVuSans-6d" x="528.369"/><use xlink:href="#DejaVuSans-2d" x="625.781"/><use xlink:href="#DejaVuSans-67" x="661.865"/><use xlink:href="#DejaVuSans-69" x="725.342"/><use xlink:href="#DejaVuSans-74" x="753.125"/><use xlink:href="#DejaVuSans-67" x="792.334"/><use xlink:href="#DejaVuSans-75" x="855.811"/><use xlink:href="#DejaVuSans-74" x="919.189"/><use xlink:href="#DejaVuSans-74" x="958.398"/><use xlink:href="#DejaVuSans-65" x="997.607"/><use xlink:href="#DejaVuSans-72" x="1059.131"/></g><g style="fill:#ff9896" transform="matrix(.14 0 0 -.14 465.907 218.127)" id="text_27"><use xlink:href="#DejaVuSans-65"/><use xlink:href="#DejaVuSans-61" x="61.523"/><use xlink:href="#DejaVuSans-73" x="122.803"/><use xlink:href="#DejaVuSans-79" x="174.902"/><use xlink:href="#DejaVuSans-6d" x="234.082"/><use xlink:href="#DejaVuSans-6f" x="331.494"/><use xlink:href="#DejaVuSans-74" x="392.676"/><use xlink:href="#DejaVuSans-69" x="431.885"/><use xlink:href="#DejaVuSans-6f" x="459.668"/><use xlink:href="#DejaVuSans-6e" x="520.85"/><use xlink:href="#DejaVuSans-2f" x="584.229"/><use xlink:href="#DejaVuSans-76" x="617.92"/><use xlink:href="#DejaVuSans-69" x="677.1"/><use xlink:href="#DejaVuSans-6d" x="704.883"/><use xlink:href="#DejaVuSans-2d" x="802.295"/><use xlink:href="#DejaVuSans-65" x="838.379"/><use xlink:href="#DejaVuSans-61" x="899.902"/><use xlink:href="#DejaVuSans-73" x="961.182"/><use xlink:href="#DejaVuSans-79" x="1013.281"/><use xlink:href="#DejaVuSans-6d" x="1072.461"/><use xlink:href="#DejaVuSans-6f" x="1169.873"/><use xlink:href="#DejaVuSans-74" x="1231.055"/><use xlink:href="#DejaVuSans-69" x="1270.264"/><use xlink:href="#DejaVuSans-6f" x="1298.047"/><use xlink:href="#DejaVuSans-6e" x="1359.229"/></g><g style="fill:#c5b0d5" transform="matrix(.14 0 0 -.14 465.907 232.127)" id="text_28"><use xlink:href="#DejaVuSans-69"/><use xlink:href="#DejaVuSans-74" x="27.783"/><use xlink:href="#DejaVuSans-63" x="66.992"/><use xlink:href="#DejaVuSans-68" x="121.973"/><use xlink:href="#DejaVuSans-79" x="185.352"/><use xlink:href="#DejaVuSans-6e" x="244.531"/><use xlink:href="#DejaVuSans-79" x="307.91"/><use xlink:href="#DejaVuSans-2f" x="367.09"/><use xlink:href="#DejaVuSans-6c" x="400.781"/><use xlink:href="#DejaVuSans-69" x="428.564"/><use xlink:href="#DejaVuSans-67" x="456.348"/><use xlink:href="#DejaVuSans-68" x="519.824"/><use xlink:href="#DejaVuSans-74" x="583.203"/><use xlink:href="#DejaVuSans-6c" x="622.412"/><use xlink:href="#DejaVuSans-69" x="650.195"/><use xlink:href="#DejaVuSans-6e" x="677.979"/><use xlink:href="#DejaVuSans-65" x="741.357"/><use xlink:href="#DejaVuSans-2e" x="802.881"/><use xlink:href="#DejaVuSans-76" x="834.668"/><use xlink:href="#DejaVuSans-69" x="893.848"/><use xlink:href="#DejaVuSans-6d" x="921.631"/></g><g style="fill:#c49c94" transform="matrix(.14 0 0 -.14 465.907 246.127)" id="text_29"><use xlink:href="#DejaVuSans-6d"/><use xlink:href="#DejaVuSans-61" x="97.412"/><use xlink:href="#DejaVuSans-74" x="158.691"/><use xlink:href="#DejaVuSans-74" x="197.9"/><use xlink:href="#DejaVuSans-6e" x="237.109"/><use xlink:href="#DejaVuSans-2f" x="300.488"/><use xlink:href="#DejaVuSans-65" x="334.18"/><use xlink:href="#DejaVuSans-6d" x="395.703"/><use xlink:href="#DejaVuSans-6d" x="493.115"/><use xlink:href="#DejaVuSans-65" x="590.527"/><use xlink:href="#DejaVuSans-74" x="652.051"/><use xlink:href="#DejaVuSans-2d" x="691.26"/><use xlink:href="#DejaVuSans-76" x="724.719"/><use xlink:href="#DejaVuSans-69" x="783.898"/><use xlink:href="#DejaVuSans-6d" x="811.682"/></g><g style="fill:#f7b6d2" transform="matrix(.14 0 0 -.14 465.907 260.127)" id="text_30"><use xlink:href="#DejaVuSans-70"/><use xlink:href="#DejaVuSans-72" x="63.477"/><use xlink:href="#DejaVuSans-65" x="102.34"/><use xlink:href="#DejaVuSans-73" x="163.863"/><use xlink:href="#DejaVuSans-65" x="215.963"/><use xlink:href="#DejaVuSans-72" x="277.486"/><use xlink:href="#DejaVuSans-76" x="318.6"/><use xlink:href="#DejaVuSans-69" x="377.779"/><use xlink:href="#DejaVuSans-6d" x="405.563"/><use xlink:href="#DejaVuSans-2f" x="502.975"/><use xlink:href="#DejaVuSans-74" x="536.666"/><use xlink:href="#DejaVuSans-61" x="575.875"/><use xlink:href="#DejaVuSans-67" x="637.154"/><use xlink:href="#DejaVuSans-62" x="700.631"/><use xlink:href="#DejaVuSans-61" x="764.107"/><use xlink:href="#DejaVuSans-72" x="825.387"/></g><g style="fill:#c7c7c7" transform="matrix(.14 0 0 -.14 465.907 274.127)" id="text_31"><use xlink:href="#DejaVuSans-6d"/><use xlink:href="#DejaVuSans-68" x="97.412"/><use xlink:href="#DejaVuSans-69" x="160.791"/><use xlink:href="#DejaVuSans-6e" x="188.574"/><use xlink:href="#DejaVuSans-7a" x="251.953"/><use xlink:href="#DejaVuSans-2f" x="304.443"/><use xlink:href="#DejaVuSans-76" x="338.135"/><use xlink:href="#DejaVuSans-69" x="397.314"/><use xlink:href="#DejaVuSans-6d" x="425.098"/><use xlink:href="#DejaVuSans-2d" x="522.51"/><use xlink:href="#DejaVuSans-73" x="558.594"/><use xlink:href="#DejaVuSans-74" x="610.693"/><use xlink:href="#DejaVuSans-61" x="649.902"/><use xlink:href="#DejaVuSans-72" x="711.182"/><use xlink:href="#DejaVuSans-74" x="752.295"/><use xlink:href="#DejaVuSans-69" x="791.504"/><use xlink:href="#DejaVuSans-66" x="819.287"/><use xlink:href="#DejaVuSans-79" x="852.742"/></g><g style="fill:#dbdb8d" transform="matrix(.14 0 0 -.14 465.907 288.127)" id="text_32"><use xlink:href="#DejaVuSans-74"/><use xlink:href="#DejaVuSans-70" x="39.209"/><use xlink:href="#DejaVuSans-6f" x="102.686"/><use xlink:href="#DejaVuSans-70" x="163.867"/><use xlink:href="#DejaVuSans-65" x="227.344"/><use xlink:href="#DejaVuSans-2f" x="288.867"/><use xlink:href="#DejaVuSans-76" x="322.559"/><use xlink:href="#DejaVuSans-69" x="381.738"/><use xlink:href="#DejaVuSans-6d" x="409.521"/><use xlink:href="#DejaVuSans-2d" x="506.934"/><use xlink:href="#DejaVuSans-73" x="543.018"/><use xlink:href="#DejaVuSans-65" x="595.117"/><use xlink:href="#DejaVuSans-6e" x="656.641"/><use xlink:href="#DejaVuSans-73" x="720.02"/><use xlink:href="#DejaVuSans-69" x="772.119"/><use xlink:href="#DejaVuSans-62" x="799.902"/><use xlink:href="#DejaVuSans-6c" x="863.379"/><use xlink:href="#DejaVuSans-65" x="891.162"/></g><g style="fill:#9edae5" transform="matrix(.14 0 0 -.14 465.907 302.127)" id="text_33"><use xlink:href="#DejaVuSans-70"/><use xlink:href="#DejaVuSans-72" x="63.477"/><use xlink:href="#DejaVuSans-65" x="102.34"/><use xlink:href="#DejaVuSans-73" x="163.863"/><use xlink:href="#DejaVuSans-65" x="215.963"/><use xlink:href="#DejaVuSans-72" x="277.486"/><use xlink:href="#DejaVuSans-76" x="318.6"/><use xlink:href="#DejaVuSans-69" x="377.779"/><use xlink:href="#DejaVuSans-6d" x="405.563"/><use xlink:href="#DejaVuSans-2f" x="502.975"/><use xlink:href="#DejaVuSans-6e" x="536.666"/><use xlink:href="#DejaVuSans-65" x="600.045"/><use xlink:href="#DejaVuSans-72" x="661.568"/><use xlink:href="#DejaVuSans-64" x="700.932"/><use xlink:href="#DejaVuSans-63" x="764.408"/><use xlink:href="#DejaVuSans-6f" x="819.389"/><use xlink:href="#DejaVuSans-6d" x="880.57"/><use xlink:href="#DejaVuSans-6d" x="977.982"/><use xlink:href="#DejaVuSans-65" x="1075.395"/><use xlink:href="#DejaVuSans-6e" x="1136.918"/><use xlink:href="#DejaVuSans-74" x="1200.297"/><use xlink:href="#DejaVuSans-65" x="1239.506"/><use xlink:href="#DejaVuSans-72" x="1301.029"/></g><g style="fill:#b0b0b0" transform="matrix(.09716 0 0 -.09716 98.073 314.123)" id="text_34"><defs><path id="DejaVuSans-40" d="M2381 1678q0-447 222-702 222-254 610-254 384 0 604 256 221 256 221 700 0 438-225 695-225 258-607 258-378 0-602-256-223-256-223-697zm1703-934q-187-241-429-355t-564-114q-538 0-874 389t-336 1014q0 625 337 1015 338 391 873 391 322 0 565-117 244-117 428-354v409h447V722q457 69 714 417 258 349 258 902 0 334-99 628-98 294-298 544-325 409-792 626t-1017 217q-384 0-738-102-353-101-653-301-490-319-767-836-276-517-276-1120 0-497 179-932 180-434 521-765 328-325 759-495 431-171 922-171 403 0 792 136t714 389l281-347q-390-303-851-464t-936-161q-578 0-1091 205-512 205-912 595Q841 78 631 592q-209 514-209 1105 0 569 212 1084 213 516 607 907 403 396 931 607t1119 211q662 0 1229-272 568-271 952-771 234-307 357-666 124-359 124-744 0-822-497-1297T4084 263v481z" transform="scale(.01563)"/><path id="DejaVuSans-7c" d="M1344 4891v-6400H813v6400h531z" transform="scale(.01563)"/><path id="DejaVuSans-53" d="M3425 4513v-616q-359 172-678 256-319 85-616 85-515 0-795-200t-280-569q0-310 186-468 186-157 705-254l381-78q706-135 1042-474t336-907q0-679-455-1029Q2797-91 1919-91q-331 0-705 75-373 75-773 222v650q384-215 753-325 369-109 725-109 540 0 834 212 294 213 294 607 0 343-211 537t-692 291l-385 75q-706 140-1022 440-315 300-315 835 0 619 436 975t1201 356q329 0 669-60 341-59 697-177z" transform="scale(.01563)"/><path id="DejaVuSans-f6" d="M1959 3097q-462 0-731-361t-269-989q0-628 267-989 268-361 733-361 460 0 728 362 269 363 269 988 0 622-269 986-268 364-728 364zm0 487q750 0 1178-488 429-487 429-1349 0-859-429-1349Q2709-91 1959-91q-753 0-1180 489-426 490-426 1349 0 862 426 1349 427 488 1180 488zm295 1266h634v-631h-634v631zm-1222 0h634v-631h-634v631z" transform="scale(.01563)"/><path id="DejaVuSans-42" d="M1259 2228V519h1013q509 0 754 211 246 211 246 645 0 438-246 645-245 208-754 208H1259zm0 1919V2741h935q462 0 688 173 227 174 227 530 0 353-227 528-226 175-688 175h-935zm-631 519h1613q722 0 1112-300 391-300 391-853 0-429-200-682t-588-315q466-100 724-418 258-317 258-792 0-625-425-966Q3088 0 2303 0H628v4666z" transform="scale(.01563)"/></defs><use xlink:href="#DejaVuSans-40"/><use xlink:href="#DejaVuSans-6e" x="100"/><use xlink:href="#DejaVuSans-73" x="163.379"/><use xlink:href="#DejaVuSans-63" x="215.479"/><use xlink:href="#DejaVuSans-68" x="270.459"/><use xlink:href="#DejaVuSans-6c" x="333.838"/><use xlink:href="#DejaVuSans-6f" x="361.621"/><use xlink:href="#DejaVuSans-65" x="422.803"/><use xlink:href="#DejaVuSans-20" x="484.326"/><use xlink:href="#DejaVuSans-2f" x="516.113"/><use xlink:href="#DejaVuSans-20" x="549.805"/><use xlink:href="#DejaVuSans-67" x="581.592"/><use xlink:href="#DejaVuSans-68" x="645.068"/><use xlink:href="#DejaVuSans-2d" x="708.447"/><use xlink:href="#DejaVuSans-74" x="744.531"/><use xlink:href="#DejaVuSans-72" x="783.74"/><use xlink:href="#DejaVuSans-65" x="822.604"/><use xlink:href="#DejaVuSans-6e" x="884.127"/><use xlink:href="#DejaVuSans-64" x="947.506"/><use xlink:href="#DejaVuSans-73" x="1010.982"/><use xlink:href="#DejaVuSans-20" x="1063.082"/><use xlink:href="#DejaVuSans-7c" x="1094.869"/><use xlink:href="#DejaVuSans-20" x="1128.561"/><use xlink:href="#DejaVuSans-4e" x="1160.348"/><use xlink:href="#DejaVuSans-69" x="1235.152"/><use xlink:href="#DejaVuSans-63" x="1262.936"/><use xlink:href="#DejaVuSans-6f" x="1317.916"/><use xlink:href="#DejaVuSans-20" x="1379.098"/><use xlink:href="#DejaVuSans-53" x="1410.885"/><use xlink:href="#DejaVuSans-63" x="1474.361"/><use xlink:href="#DejaVuSans-68" x="1529.342"/><use xlink:href="#DejaVuSans-6c" x="1592.721"/><use xlink:href="#DejaVuSans-f6" x="1620.504"/><use xlink:href="#DejaVuSans-6d" x="1681.686"/><use xlink:href="#DejaVuSans-65" x="1779.098"/><use xlink:href="#DejaVuSans-72" x="1840.621"/><use xlink:href="#DejaVuSans-20" x="1881.734"/><use xlink:href="#DejaVuSans-7c" x="1913.521"/><use xlink:href="#DejaVuSans-20" x="1947.213"/><use xlink:href="#DejaVuSans-43" x="1979"/><use xlink:href="#DejaVuSans-43" x="2048.824"/><use xlink:href="#DejaVuSans-20" x="2118.648"/><use xlink:href="#DejaVuSans-42" x="2150.436"/><use xlink:href="#DejaVuSans-59" x="2213.539"/></g><path d="m171.278 280.087 2.19-3.622 12.79-.908 10.811-.494 6.43-.202 21.622-.246 10.6-1.57 6.5-1.57 19.29-3.6 2.191-.583 2.19-.358 2.12-.471 4.31-1.267 2.191-.36 4.17-.997 4.31-1.279 10.81-2.523 4.311-1.2 2.19-.414 2.191-.538 2.05-.628 10.81-2.725 6.501-1.817 6.5-1.435 6.29-1.514 4.31-1.222 2.19-.437 2.191-.64 4.31-.84 4.31-1.402 4.17-1.189 2.19-.695 12.931-3.24 2.19-.393 6.501-1.469 1.979-.359 4.31-1.21 8.691-1.997 12.86-2.792 2.191-.55 2.12-.807 4.31-.998 4.381-1.009 4.31-1.144 4.31-1.379 2.191-.426 1.979-.572 4.31-.908 4.31-.897 2.191-.415 10.811-2.646h0" clip-path="url(#p4b4875b7b8)" style="fill:none;stroke:#f7b6d2;stroke-width:1.5;stroke-linecap:square" id="line2d_21"/><path d="m147.677 280.087 1.979-3.443 8.62-.594 6.501-.46 2.19-.291 4.31-.326 4.17-.437 4.31-.404 6.5-.336 10.812-.83 4.24-.235 15.121-.527 8.691-.09 1.979-.404 4.31-1.29 2.19-.347 4.311-.897 2.19-1.132 2.12-.718 4.31-1.805 2.191-.785 2.19-.538 1.98-.673 8.62-2.21 6.5-1.905 8.692-2.232 1.978-.583 2.19-.785 2.12-.55 4.31-1.423 4.382-1.02 8.62-2.445 10.741-3.33 2.12-.561 4.38-.942 6.43-1.693 2.191-.65 2.19-.45 8.48-2.197 4.31-.74 14.98-3.409 2.191-.583 15.122-3.162 4.31-1.088 6.36-1.469 25.861-5.281 8.62-2.198 4.311-.908 2.19-.505 2.12-.325 10.67-2.22 4.31-1.267 6.501-1.503 6.501-1.368h0" clip-path="url(#p4b4875b7b8)" style="fill:none;stroke:#c49c94;stroke-width:1.5;stroke-linecap:square" id="line2d_22"/><path d="m237.911 280.087 2.19-3.118 2.12-.75 2.19-.337 2.12-.27 2.191-.313 2.19-.505 1.98-.314 2.19-.505 2.12-.448 2.19-.325 2.12-.337 2.19-.47 2.19-.404 2.12-.303 2.191-.292 2.12-.358 2.19-.27 2.19-.37 1.98-.37 2.19-.38 2.12-.203 2.19-.426 2.12-.303 2.19-.28 2.19-.303 2.12-.213 2.191-.93 2.12-.449 2.19-.437 2.191-.438 2.05-.639 2.19-.684 2.12-.415 2.19-.47 2.12-.46 2.19-.247 2.19-.437 2.12-.516 2.191-.493 2.12-.516 2.19-.426 2.19-.55 1.98-.538 2.19-.852 2.12-.449 2.19-.538 2.12-.449 2.19-.392 2.191-.527 2.12-.594 2.19-.864 2.12-.953 2.19-.56 2.191-.707 1.979-.493 2.19-.886 2.12-.796 2.19-.65 2.12-.673 2.19-.662 2.191-.505 2.12-.863 2.19-.673 2.12-.863 2.19-.774 2.191-.762 1.979-.83 2.19-.92 2.12-.92 2.19-.952 2.12-.595 2.19-.818 2.191-.707 2.12-.695 2.19-.796 2.12-.718 2.191-.852 2.19-.706 2.05-.931 2.19-1.032 2.12-1.446 2.19-1.144 2.12-.785 2.19-1.166 2.191-.942 2.12-1.01 2.19-1.053 2.12-.751 2.19-.976 2.191-1.01 1.979-.851 2.19-.965 2.12-.695 2.19-.706 2.12-.774 2.191-.83 2.19-1.144 2.12-.885 2.19-.718 2.12-.594 2.191-.841" clip-path="url(#p4b4875b7b8)" style="fill:none;stroke:#c5b0d5;stroke-width:1.5;stroke-linecap:square" id="line2d_23"/><path d="m175.447 280.087 2.19-4.093 8.62-.437 25.863-.841 13.001-.079 4.17-.662 2.12-.538 13-2.018 2.12-.516 2.191-.258 2.19-.426 4.17-1.357 2.12-.55 2.19-.403 6.5-1.536 4.311-.863 2.12-.628 4.38-.909 6.29-1.513 4.31-1.256 2.19-.864 10.812-2.96 4.24-1.503 4.31-1.21 2.19-1.01 15.121-3.98 4.17-1.01 8.62-2.758 2.19-.404 4.31-1.02 2.191-.55 2.12-.863 4.381-1.503 1.979-.415 2.19-.762 2.12-.46 2.19-.684 10.812-2.657 10.67-2.748 4.31-1.222 10.81-2.78 4.311-1.458 2.19-.527 4.24-1.56 4.31-2.04 4.31-1.626 2.191-.987 4.31-1.648 2.12-.84 4.381-1.503 1.979-.853 2.19-.762 2.12-.875 2.19-.729 2.12-.56 8.692-3.095 2.12-.808 2.19-.639h0" clip-path="url(#p4b4875b7b8)" style="fill:none;stroke:#ff9896;stroke-width:1.5;stroke-linecap:square" id="line2d_24"/><path d="m225.121 280.087 1.979-1.346 2.19-14.016 2.12-.64 2.19-.392 2.12-.46 2.191-.415 2.19-.672 2.12-.516 2.19-.628 2.12-.46 2.191-.47 2.19-.842 1.98-.751 2.19-.516 2.12-1.166 2.19-.437 2.12-.505 2.19-.583 2.19-.449 2.12-.359 2.191-.493 2.12-.594 2.19-.505 2.19-.516 1.98-.56 2.19-.841 2.12-.595 2.19-.571 2.12-.584 2.19-.627 2.19-.65 2.12-.74 2.191-.662 2.12-.505 2.19-.55 2.191-.695 2.05-.751 2.19-.482 2.12-.729 2.19-.482 2.12-.538 2.19-.617 2.19-.606 2.12-.527 2.191-.74 2.12-.762 2.19-.718 2.19-.673 1.98-.516 2.19-.773 2.12-.785 2.19-.527 2.12-.583 2.19-.538 2.191-.617 2.12-.482 2.19-.673 2.12-.64 2.19-.683 2.191-.606 1.979-.684 2.19-.718 2.12-.627 2.19-.886 2.12-.785 2.19-.875 2.191-.594 2.12-.538 2.19-.617 2.12-.64 2.19-.717 2.191-.818 1.979-.539 2.19-.874 2.12-.752 2.19-.728 2.12-.483 2.19-.639 2.191-.628 2.12-.46 2.19-.571 2.12-.752 2.191-.695 2.19-.605 2.05-.696 2.19-.728 2.12-.853 2.19-1.042 2.12-.785 2.19-.628 2.191-.673 2.12-.796 2.19-.875 2.12-.65 2.19-.74 2.191-.752 1.979-.84 2.19-.842 2.12-.583 2.19-.673 2.12-.661 2.191-.763 2.19-.728 2.12-.83 2.19-.628 2.12-.628 2.191-.74" clip-path="url(#p4b4875b7b8)" style="fill:none;stroke:#98df8a;stroke-width:1.5;stroke-linecap:square" id="line2d_25"/><path d="m289.493 280.087 2.19-.382 2.12-.257 2.191-.236 2.12-.348 2.19-.37 2.191-.46 2.05-.493 2.19-.482 2.12-.46 2.19-.482 2.12-.426 2.19-.437 2.19-.55 2.12-.605 2.191-.64 2.12-.493 2.19-.538 2.19-.729 1.98-.751 2.19-.886 2.12-.785 2.19-.818 2.12-.572 2.19-.572 2.191-.819 2.12-.74 2.19-2.332 2.12-1.323 2.19-.897 2.191-.909 1.979-.773 2.19-1.178 2.12-.986 2.19-1.11 2.12-.943 2.19-1.054 2.191-.852 2.12-1.155 2.19-1.21 2.12-.999 2.19-.964 2.191-1.099 1.979-1.155 2.19-1.502 2.12-1.413 2.19-1.39 2.12-1.234 2.19-1.514 2.191-1.065 2.12-1.267 2.19-1.245 2.12-1.536 2.191-1.357 2.19-1.267 2.05-1.503 2.19-1.827 2.12-1.952 2.19-2.31 2.12-1.86 2.19-1.672 2.191-1.603 2.12-1.435 2.19-1.783 2.12-1.682 2.19-1.637 2.191-1.346 1.979-1.447 2.19-1.648 2.12-1.413 2.19-1.76 2.12-1.357 2.191-1.57 2.19-1.469 2.12-1.222 2.19-1.346 2.12-1.547 2.191-1.144" clip-path="url(#p4b4875b7b8)" style="fill:none;stroke:#ffbb78;stroke-width:1.5;stroke-linecap:square" id="line2d_26"/><path d="m229.29 280.087 2.12-11.931 2.19-.875 2.12-.886 2.191-1.312 2.19-1.233 2.12-.718 2.19-.695 2.12-.818 2.191-.718 2.19-.74 1.98-.785 2.19-.83 2.12-.886 2.19-.84 2.12-.943 2.19-.75 2.19-1.313 2.12-.684 2.191-.706 2.12-.707 2.19-.773 2.19-.875 1.98-.908 2.19-1.01 2.12-1.278 2.19-.863 2.12-1.077 2.19-1.2 2.19-.852 2.12-.897 2.191-1.076 2.12-1.11 2.19-.864 2.191-1.188 2.05-.752 2.19-1.043 2.12-1.2 2.19-.695 2.12-.93 2.19-.752 2.19-.941 2.12-.998 2.191-1.01 2.12-.897 2.19-.807 2.19-.998 1.98-.706 2.19-.942 2.12-.808 2.19-.695 2.12-.493 2.19-.819 2.191-.92 2.12-.638 2.19-.73 2.12-.706 2.19-.617 2.191-.684 1.979-.583 2.19-.84 2.12-.875 2.19-.662 2.12-.762 2.19-.707 2.191-.717 2.12-.774 2.19-.807 2.12-.774 2.19-.65 2.191-.685 1.979-.583 2.19-.964 2.12-.785 2.19-.617 2.12-.684 2.19-.74 2.191-.572 2.12-.616 2.19-.662 2.12-.516 2.191-.493 2.19-.493 2.05-.606 2.19-.594 2.12-.64 2.19-.605 2.12-.818 2.19-.65 2.191-.248 2.12-.28 2.19-.347 2.12-.236 2.19-.202 2.191-.325 1.979-.314 2.19-.314 2.12-.235 2.19-.225 2.12-.224 2.191-.202 2.19-.303 2.12-.134 2.19-.314 2.12-.292 2.191-.291" clip-path="url(#p4b4875b7b8)" style="fill:none;stroke:#aec7e8;stroke-width:1.5;stroke-linecap:square" id="line2d_27"/><path d="m373.439 280.087 2.12-.931 2.19-.964 2.19-.438 1.979-.504 2.19-.505 2.12-.617 2.19-.28 2.12-.213 2.19-21.507 2.191-9.139 2.12-5.64 2.19-4.16 2.12-3.095 2.191-2.422 2.19-2.77 2.05-2.78 2.19-3.196 2.12-3.14 2.19-3.341 2.12-2.266 2.19-2.926 2.191-1.727 2.12-2.063 2.19-2.21 2.12-2.13 2.19-3.319 2.191-2.725 1.979-1.704 2.19-1.985 2.12-1.413 2.19-1.043 2.12-1.311 2.191-1.57 2.19-1.424 2.12-1.088 2.19-1.2 2.12-1.323 2.191-1.088" clip-path="url(#p4b4875b7b8)" style="fill:none;stroke:#17becf;stroke-width:1.5;stroke-linecap:square" id="line2d_28"/><path d="m111.075 280.087 2.12-1.245 14.98-1.402 23.671-2.4 4.31-.515 4.31-.303 25.792-2.803 6.5-.594 17.171-.819 6.501-.123 8.691-.034 1.979-.437 6.5-1.974 2.12-.47 4.381-1.402 2.12-.46 4.31-1.245 4.382-1.02 8.479-2.714 4.31-1.3 6.501-1.671 6.5-1.918 12.79-4.754 2.19-.707 2.12-.84 4.311-1.918 4.381-1.604 4.24-1.906 6.43-2.635 15.192-6.077 4.169-2.03 6.43-2.534 2.19-.595 2.191-1.098 2.12-.785 6.5-2.804 2.191-.773 1.979-.875 4.31-1.48 8.691-4.575 2.12-1.032 2.19-.886 2.12-1.12 2.19-.83 6.36-3.432 2.12-1.435 2.19-1.267 2.12-1.077 4.381-2.49 2.12-1.188 2.19-1.099 2.12-1.312 2.191-1.009 2.19-1.177 4.24-2.523 4.31-3.712 10.812-6.593 2.12-1.626 6.359-4.272 2.19-1.738 4.31-2.905 2.12-.986 2.191-1.279 2.19-1.738 4.31-2.579 4.311-3.072h0" clip-path="url(#p4b4875b7b8)" style="fill:none;stroke:#bcbd22;stroke-width:1.5;stroke-linecap:square" id="line2d_29"/><path d="m132.485 280.087 2.19-4.587 14.98-1.94 6.501-1.098 8.621-1.02 4.31-.763 4.381-.796 4.17-.841 6.43-.808 6.5-.729 6.501-.728 6.43-.561 4.31-.224 15.122-.404 2.19-.034 1.979-1.682 2.19-1.02 2.12-.785 4.31-1.94 4.381-2.523 4.31-2.276 2.12-1.469 8.55-4.833 6.43-3.375 2.191-1.525 2.19-1.065 4.311-2.434 2.12-1.693 4.38-2.702 4.17-2.994 2.12-1.862 4.31-3.117 4.38-2.68 8.622-5.842 4.24-3.454 2.19-1.48 4.31-3.263 2.12-1.457 4.38-2.647 2.12-1.648 4.31-2.848 2.191-1.155 2.19-1.357 4.17-2.994 2.12-1.312 2.19-.987 2.12-1.12 2.19-1.033 2.191-1.222 4.31-2.074 2.12-1.222 12.86-5.932 4.31-1.626 8.621-3.297 2.19-.594 4.17-1.503 2.19-1.054 4.31-1.75 10.812-3.262 2.12-.774 6.43-1.536 2.19-.774 19.432-5.09 2.19-.427 6.29-1.547 6.5-1.525 4.31-.796 2.19-.46 2.12-.594 2.191-.46h0" clip-path="url(#p4b4875b7b8)" style="fill:none;stroke:#7f7f7f;stroke-width:1.5;stroke-linecap:square" id="line2d_30"/><path d="m317.546 280.087 2.12-.247 2.19-1.547 2.12-1.1 2.19-1.143 2.19-1.447 1.98-5.64 2.19-2.456 2.12-2.668 2.19-2.647 2.12-2.59 2.19-2.49 2.191-2.545 2.12-2.377 2.19-3.835 2.12-3.992 2.19-2.455 2.191-2.512 1.979-1.974 2.19-2.803 2.12-3.15 2.19-3.017 2.12-2.456 2.19-2.86 2.191-2.657 2.12-2.343 2.19-2.299 2.12-2.635 2.19-2.22 2.191-2.49 1.979-2.343 2.19-2.658 2.12-2.736 2.19-2.164 2.12-1.929 2.19-2.018 2.191-2.052 2.12-1.547 2.19-1.806 2.12-1.85 2.191-1.536 2.19-1.514 2.05-1.682 2.19-1.38 2.12-2.062 2.19-1.772 2.12-1.648 2.19-1.324 2.191-1.49 2.12-1.761 2.19-1.413 2.12-1.66 2.19-1.626 2.191-1.491 1.979-1.2 2.19-1.57 2.12-1.368 2.19-1.29 2.12-1.098 2.191-1.3 2.19-1.167 2.12-.942 2.19-.987 2.12-1.076 2.191-1.155" clip-path="url(#p4b4875b7b8)" style="fill:none;stroke:#e377c2;stroke-width:1.5;stroke-linecap:square" id="line2d_31"/><path d="m252.891 280.087 2.19-1.47 2.12-1.648 2.19-1.233 2.12-1.267 2.191-2.422 2.19-2.052 2.12-1.402 2.191-1.144 2.12-1.278 2.19-1.648 2.19-1.772 1.98-1.973 2.19-2.254 2.12-1.772 2.19-1.716 2.12-1.962 2.19-1.57 2.19-1.928 2.12-5.473 2.191-1.726 2.12-1.85 2.19-1.514 2.191-1.738 2.05-1.548 2.19-1.816 2.12-2.086 2.19-1.581 2.12-1.581 2.19-1.873 2.19-1.996 2.12-1.861 2.191-1.547 2.12-1.85 2.19-1.503 2.19-1.503 1.98-1.21 2.19-2.131 2.12-1.514 2.19-1.413 2.12-1.704 2.19-1.559 2.191-1.794 2.12-1.492 2.19-1.704 2.12-1.929 2.19-1.805 2.191-1.66 1.979-1.547 2.19-2.601 2.12-1.895 2.19-1.806 2.12-1.514 2.19-1.782 2.191-1.985 2.12-1.817 2.19-1.794 2.12-1.76 2.19-2.041 2.191-1.84 1.979-1.378 2.19-2.176 2.12-2.433 2.19-2.018 2.12-1.649 2.19-1.749 2.191-1.828 2.12-1.48 2.19-1.48 2.12-1.222 2.191-1.615 2.19-1.615 2.05-1.625 2.19-1.783 2.12-1.828 2.19-2.097 2.12-1.626 2.19-1.357 2.191-1.547 2.12-1.39 2.19-1.402 2.12-1.525 2.19-1.279 2.191-1.412 1.979-1.054 2.19-1.492 2.12-1.121 2.19-1.256 2.12-1.3 2.191-1.032 2.19-1.413 2.12-1.335 2.19-1.368 2.12-1.379 2.191-1.525" clip-path="url(#p4b4875b7b8)" style="fill:none;stroke:#8c564b;stroke-width:1.5;stroke-linecap:square" id="line2d_32"/><path d="m138.986 280.087 2.19-11.73 6.501-1.536 1.979-.661 2.19-.55 4.31-1.312 4.31-.762 4.311-.976 2.19-.672 10.67-2.613 4.31-.852 15.122-2.31 4.24-.426 4.31-.404 19.502-.56 1.979-.774 2.19-1.2 2.12-1.032 2.19-1.233 2.12-.718 4.381-2.231 2.12-.886 2.19-1.11 2.12-.93 4.382-2.131 1.978-1.76 2.19-.976 15.122-8.096 17.1-9.532 4.38-2.612 2.12-1.2 4.311-2.904 2.19-1.223 12.86-8.04 2.191-1.12 2.19-1.402 2.12-1.189 4.31-2.635 2.191-1.043 2.19-1.278 4.17-2.635 6.43-3.79 4.381-2.176 19.29-11.1 2.12-1.38 2.19-1.144 2.191-1.469 8.62-5.08 4.17-3.408 6.5-4.788 2.12-1.189 2.19-1.648 2.191-1.974 2.12-1.424 2.19-1.962 4.311-2.803 2.19-1.604 6.36-5.707 2.19-2.355 2.12-2.097 2.19-1.783 2.191-1.581 2.12-1.738 8.691-6.089 1.979-1.637 2.19-1.962 10.811-8.22 4.31-3.924 2.12-2.108 2.191-1.783h0" clip-path="url(#p4b4875b7b8)" style="fill:none;stroke:#9467bd;stroke-width:1.5;stroke-linecap:square" id="line2d_33"/><path d="m235.72 280.087 2.191-10.103 2.19-3.768 2.12-2.837 2.19-2.153 2.12-2.164 2.191-1.974 2.19-2.276 1.98-1.738 2.19-1.57 2.12-1.727 2.19-1.513 2.12-1.47 2.19-1.816 2.19-1.727 2.12-1.592 2.191-1.626 2.12-1.525 2.19-1.502 2.19-1.671 1.98-1.906 2.19-1.862 2.12-1.94 2.19-1.996 2.12-2.085 2.19-1.895 2.19-1.57 2.12-1.884 2.191-2.175 2.12-2.333 2.19-1.94 2.191-2.422 2.05-2.141 2.19-2.187 2.12-1.929 2.19-1.738 2.12-1.727 2.19-1.682 2.19-1.715 2.12-1.649 2.191-1.85 2.12-1.547 2.19-1.705 2.19-1.66 1.98-1.569 2.19-2.052 2.12-1.783 2.19-1.693 2.12-1.525 2.19-1.536 2.191-1.38 2.12-1.525 2.19-1.603 2.12-1.536 2.19-1.368 2.191-1.862 1.979-1.536 2.19-1.547 2.12-1.335 2.19-1.603 2.12-1.469 2.19-1.469 2.191-1.402 2.12-1.435 2.19-1.334 2.12-1.312 2.19-1.312 2.191-1.592 1.979-1.245 2.19-1.76 2.12-1.604 2.19-1.581 2.12-1.57 2.19-1.67 2.191-1.458 2.12-1.402 2.19-1.368 2.12-1.47 2.191-1.39 2.19-1.468 2.05-1.346 2.19-1.536 2.12-1.693 2.19-2.086 2.12-1.548 2.19-1.648 2.191-1.334 2.12-1.503 2.19-1.603 2.12-1.525 2.19-1.447 2.191-1.615 1.979-1.58 2.19-1.626 2.12-1.301 2.19-1.413 2.12-1.334 2.191-1.48 2.19-1.369 2.12-1.379 2.19-1.38 2.12-1.636 2.191-1.604" clip-path="url(#p4b4875b7b8)" style="fill:none;stroke:#d62728;stroke-width:1.5;stroke-linecap:square" id="line2d_34"/><path d="m98.073 280.087 2.19-.65 2.12-.505 4.31-.505 2.191-.134 8.62-1.155 4.382-.875 4.169-.92 2.12-.302 4.31-.841 6.5-1.088 4.311-.953 4.381-.852 6.289-1.223 4.31-.594 4.381-.695 6.43-1.312 4.381-1.032 4.17-1.02 4.31-.886 8.62-1.278 12.931-1.648 10.811-.505 10.811-.224 6.29-2.5 2.19-.988 4.31-1.525 2.19-1.054 2.12-.695 8.692-3.487 1.978-1.122 4.31-1.917 2.19-.897 4.311-2.108 6.501-2.87 2.12-1.234 2.19-.93 8.48-5.35 6.5-4.418 4.31-2.601 2.191-1.514 2.12-1.67 6.43-4.082 2.19-1.794 8.621-6.19 6.501-4.788 2.12-1.716 4.38-2.792 1.98-1.704 4.31-3.286 6.5-4.283 4.31-3.801 2.191-1.615 2.12-1.794 2.19-1.682 2.191-2.12 1.979-1.57 4.31-3.767 2.19-1.603 2.12-1.716 2.19-2.12 2.191-1.782 2.12-1.581 10.67-8.836 4.31-4.06 4.31-3.397 8.692-6.93 2.12-1.783 6.43-4.9 4.31-4.575 2.19-2.512 2.12-1.861 6.501-5.293 2.19-1.928 2.12-1.671 2.19-2.31 2.191-1.974 1.979-2.197 2.19-2.052 2.12-1.638 2.19-2.018 2.12-1.615 4.382-4.406 2.12-1.817 6.5-6.28h0" clip-path="url(#p4b4875b7b8)" style="fill:none;stroke:#2ca02c;stroke-width:1.5;stroke-linecap:square" id="line2d_35"/><path d="m360.437 280.087 2.19-.023 2.12-.056 2.19-.785 2.191-.594 2.12-.336 2.19-.897 2.12-2.041 2.19-2.344 2.191-2.321 1.979-3.532 2.19-13.232 2.12-10.742 2.19-7.098 2.12-5.64 2.19-6.067 2.191-6.156 2.12-5.887 2.19-5.707 2.12-6.93 2.191-5.393 2.19-5.125 2.05-5.438 2.19-6.01 2.12-7.155 2.19-7.972 2.12-7.177 2.19-5.74 2.191-5.563 2.12-6.178 2.19-5.46 2.12-5.955 2.19-5.349 2.191-5.17 1.979-4.058 2.19-4.665 2.12-4.362 2.19-4.418 2.12-3.554 2.191-3.97 2.19-4.149 2.12-3.734 2.19-3.936 2.12-4.418 2.191-4.373" clip-path="url(#p4b4875b7b8)" style="fill:none;stroke:#ff7f0e;stroke-width:1.5;stroke-linecap:square" id="line2d_36"/><path d="m203.5 280.087 2.119-7.659 2.19-.09 2.12-.112 2.19-.067 2.191-.123 2.12-.135 2.19-.056 2.12-.056 2.19-.034 2.191-.067 1.979-2.456 2.19-1.827 2.12-1.739 2.19-2.164 2.12-1.648 2.191-5.012 2.19-2.703 2.12-1.603 2.19-1.716 2.12-4.35 2.191-3.364 2.19-2.041 1.98-2.075 2.19-2.422 2.12-2.355 2.19-1.749 2.12-1.884 2.19-1.984 2.19-2.265 2.12-1.682 2.191-2.086 2.12-2.904 2.19-2.019 2.19-2.713 1.98-2.12 2.19-2.534 2.12-3.05 2.19-3.196 2.12-2.388 2.19-2.579 2.19-2.837 2.12-2.826 2.191-2.668 2.12-3.163 2.19-2.803 2.191-3.52 2.05-2.95 2.19-2.86 2.12-3.229 2.19-2.825 2.12-2.512 2.19-2.759 2.19-2.915 2.12-2.927 2.191-2.848 2.12-2.624 2.19-2.837 2.19-2.601 1.98-2.972 2.19-3.633 2.12-2.78 2.19-2.77 2.12-2.142 2.19-2.276 2.191-2.512 2.12-2.557 2.19-2.612 2.12-2.68 2.19-2.512 2.191-2.758 1.979-2.254 2.19-3.106 2.12-2.781 2.19-2.792 2.12-2.748 2.19-2.68 2.191-2.5 2.12-2.478 2.19-2.377 2.12-2.736 2.19-2.232 2.191-2.59 1.979-2.097 2.19-2.95 2.12-2.937 2.19-2.5 2.12-1.84 2.19-2.556 2.191-2.265 2.12-2.31 2.19-2.388 2.12-2.187 2.191-2.58 2.19-1.804 2.05-1.772 2.19-2.534 2.12-2.288 2.19-2.512 2.12-2.164 2.19-1.895 2.191-2.242 2.12-1.862 2.19-2.085 2.12-1.828 2.19-2.007 2.191-1.503 1.979-1.66 2.19-1.917 2.12-1.682 2.19-1.66 2.12-1.267 2.191-1.558 2.19-1.525 2.12-1.48 2.19-1.178 2.12-1.457 2.191-1.413" clip-path="url(#p4b4875b7b8)" style="fill:none;stroke:#1f77b4;stroke-width:1.5;stroke-linecap:square" id="line2d_37"/></g></g><defs><clipPath id="p4b4875b7b8"><path d="M98.073 13.975h357.12v266.112H98.073z"/></clipPath></defs></svg>