<svg xmlns="http://www.w3.org/2000/svg" xmlns:xlink="http://www.w3.org/1999/xlink" width="858.618" height="471.023" viewBox="0 0 643.964 353.267"><defs><style>*{stroke-linejoin:round;stroke-linecap:butt}</style></defs><g id="figure_1"><path id="patch_1" d="M0 353.267h643.964V0H0v353.267z" style="fill:none"/><g id="axes_1"><path id="patch_2" d="M98.073 306.428h357.12V40.316H98.073v266.112z" style="fill:none"/><g id="matplotlib.axis_1"><g id="xtick_1"><g id="line2d_1"><defs><path id="md01941f812" d="M0 0v3.5" style="stroke:#b0b0b0;stroke-width:.4"/></defs><use xlink:href="#md01941f812" x="151.687" y="306.428" style="fill:#b0b0b0;stroke:#b0b0b0;stroke-width:.4"/></g><g id="text_1" style="fill:#b0b0b0" transform="matrix(.14 0 0 -.14 133.872 324.066)"><defs><path id="DejaVuSans-32" d="M1228 531h2203V0H469v531q359 372 979 998 621 627 780 809 303 340 423 576 121 236 121 464 0 372-261 606-261 235-680 235-297 0-627-103-329-103-704-313v638q381 153 712 231 332 78 607 78 725 0 1156-363 431-362 431-968 0-288-108-546-107-257-392-607-78-91-497-524-418-433-1181-1211z" transform="scale(.01563)"/><path id="DejaVuSans-30" d="M2034 4250q-487 0-733-480-245-479-245-1442 0-959 245-1439 246-480 733-480 491 0 736 480 246 480 246 1439 0 963-246 1442-245 480-736 480zm0 500q785 0 1199-621 414-620 414-1801 0-1178-414-1799Q2819-91 2034-91q-784 0-1198 620-414 621-414 1799 0 1181 414 1801 414 621 1198 621z" transform="scale(.01563)"/><path id="DejaVuSans-31" d="M794 531h1031v3560L703 3866v575l1116 225h631V531h1031V0H794v531z" transform="scale(.01563)"/></defs><use xlink:href="#DejaVuSans-32"/><use xlink:href="#DejaVuSans-30" x="63.623"/><use xlink:href="#DejaVuSans-31" x="127.246"/><use xlink:href="#DejaVuSans-32" x="190.869"/></g></g><g id="xtick_2"><use xlink:href="#md01941f812" id="line2d_2" x="207.756" y="306.428" style="fill:#b0b0b0;stroke:#b0b0b0;stroke-width:.4"/><g id="text_2" style="fill:#b0b0b0" transform="matrix(.14 0 0 -.14 189.94 324.066)"><defs><path id="DejaVuSans-34" d="M2419 4116 825 1625h1594v2491zm-166 550h794V1625h666v-525h-666V0h-628v1100H313v609l1940 2957z" transform="scale(.01563)"/></defs><use xlink:href="#DejaVuSans-32"/><use xlink:href="#DejaVuSans-30" x="63.623"/><use xlink:href="#DejaVuSans-31" x="127.246"/><use xlink:href="#DejaVuSans-34" x="190.869"/></g></g><g id="xtick_3"><use xlink:href="#md01941f812" id="line2d_3" x="263.747" y="306.428" style="fill:#b0b0b0;stroke:#b0b0b0;stroke-width:.4"/><g id="text_3" style="fill:#b0b0b0" transform="matrix(.14 0 0 -.14 245.932 324.066)"><defs><path id="DejaVuSans-36" d="M2113 2584q-425 0-674-291-248-290-248-796 0-503 248-796 249-292 674-292t673 292q248 293 248 796 0 506-248 796-248 291-673 291zm1253 1979v-575q-238 112-480 171-242 60-480 60-625 0-955-422-329-422-376-1275 184 272 462 417 279 145 613 145 703 0 1111-427 408-426 408-1160 0-719-425-1154Q2819-91 2113-91q-810 0-1238 620-428 621-428 1799 0 1106 525 1764t1409 658q238 0 480-47t505-140z" transform="scale(.01563)"/></defs><use xlink:href="#DejaVuSans-32"/><use xlink:href="#DejaVuSans-30" x="63.623"/><use xlink:href="#DejaVuSans-31" x="127.246"/><use xlink:href="#DejaVuSans-36" x="190.869"/></g></g><g id="xtick_4"><use xlink:href="#md01941f812" id="line2d_4" x="319.816" y="306.428" style="fill:#b0b0b0;stroke:#b0b0b0;stroke-width:.4"/><g id="text_4" style="fill:#b0b0b0" transform="matrix(.14 0 0 -.14 302 324.066)"><defs><path id="DejaVuSans-38" d="M2034 2216q-450 0-708-241-257-241-257-662 0-422 257-663 258-241 708-241t709 242q260 243 260 662 0 421-258 662-257 241-711 241zm-631 268q-406 100-633 378-226 279-226 679 0 559 398 884 399 325 1092 325 697 0 1094-325t397-884q0-400-227-679-226-278-629-378 456-106 710-416 255-309 255-755 0-679-414-1042Q2806-91 2034-91q-771 0-1186 362-414 363-414 1042 0 446 256 755 257 310 713 416zm-231 997q0-362 226-565 227-203 636-203 407 0 636 203 230 203 230 565 0 363-230 566-229 203-636 203-409 0-636-203-226-203-226-566z" transform="scale(.01563)"/></defs><use xlink:href="#DejaVuSans-32"/><use xlink:href="#DejaVuSans-30" x="63.623"/><use xlink:href="#DejaVuSans-31" x="127.246"/><use xlink:href="#DejaVuSans-38" x="190.869"/></g></g><g id="xtick_5"><use xlink:href="#md01941f812" id="line2d_5" x="375.808" y="306.428" style="fill:#b0b0b0;stroke:#b0b0b0;stroke-width:.4"/><g id="text_5" style="fill:#b0b0b0" transform="matrix(.14 0 0 -.14 357.993 324.066)"><use xlink:href="#DejaVuSans-32"/><use xlink:href="#DejaVuSans-30" x="63.623"/><use xlink:href="#DejaVuSans-32" x="127.246"/><use xlink:href="#DejaVuSans-30" x="190.869"/></g></g><g id="xtick_6"><use xlink:href="#md01941f812" id="line2d_6" x="431.876" y="306.428" style="fill:#b0b0b0;stroke:#b0b0b0;stroke-width:.4"/><g id="text_6" style="fill:#b0b0b0" transform="matrix(.14 0 0 -.14 414.061 324.066)"><use xlink:href="#DejaVuSans-32"/><use xlink:href="#DejaVuSans-30" x="63.623"/><use xlink:href="#DejaVuSans-32" x="127.246"/><use xlink:href="#DejaVuSans-32" x="190.869"/></g></g></g><g id="matplotlib.axis_2"><g id="ytick_1"><path id="line2d_7" d="M98.073 306.428h357.12" clip-path="url(#pfe88655bed)" style="fill:none;stroke:#b0b0b0;stroke-width:.3;stroke-linecap:square"/><g id="line2d_8"><defs><path id="m9b21d91a90" d="M0 0h-3.5" style="stroke:#b0b0b0;stroke-width:.3"/></defs><use xlink:href="#m9b21d91a90" x="98.073" y="306.428" style="fill:#b0b0b0;stroke:#b0b0b0;stroke-width:.3"/></g><use xlink:href="#DejaVuSans-30" id="text_7" style="fill:#b0b0b0" transform="matrix(.14 0 0 -.14 82.166 311.747)"/></g><g id="ytick_2"><path id="line2d_9" d="M98.073 273.26h357.12" clip-path="url(#pfe88655bed)" style="fill:none;stroke:#b0b0b0;stroke-width:.3;stroke-linecap:square"/><use xlink:href="#m9b21d91a90" id="line2d_10" x="98.073" y="273.261" style="fill:#b0b0b0;stroke:#b0b0b0;stroke-width:.3"/><g id="text_8" style="fill:#b0b0b0" transform="matrix(.14 0 0 -.14 55.443 278.58)"><defs><path id="DejaVuSans-35" d="M691 4666h2478v-532H1269V2991q137 47 274 70 138 23 276 23 781 0 1237-428 457-428 457-1159 0-753-469-1171Q2575-91 1722-91q-294 0-599 50Q819 9 494 109v635q281-153 581-228t634-75q541 0 856 284 316 284 316 772 0 487-316 771-315 285-856 285-253 0-505-56-251-56-513-175v2344z" transform="scale(.01563)"/></defs><use xlink:href="#DejaVuSans-32"/><use xlink:href="#DejaVuSans-35" x="63.623"/><use xlink:href="#DejaVuSans-30" x="127.246"/><use xlink:href="#DejaVuSans-30" x="190.869"/></g></g><g id="ytick_3"><path id="line2d_11" d="M98.073 240.093h357.12" clip-path="url(#pfe88655bed)" style="fill:none;stroke:#b0b0b0;stroke-width:.3;stroke-linecap:square"/><use xlink:href="#m9b21d91a90" id="line2d_12" x="98.073" y="240.093" style="fill:#b0b0b0;stroke:#b0b0b0;stroke-width:.3"/><g id="text_9" style="fill:#b0b0b0" transform="matrix(.14 0 0 -.14 55.443 245.412)"><use xlink:href="#DejaVuSans-35"/><use xlink:href="#DejaVuSans-30" x="63.623"/><use xlink:href="#DejaVuSans-30" x="127.246"/><use xlink:href="#DejaVuSans-30" x="190.869"/></g></g><g id="ytick_4"><path id="line2d_13" d="M98.073 206.925h357.12" clip-path="url(#pfe88655bed)" style="fill:none;stroke:#b0b0b0;stroke-width:.3;stroke-linecap:square"/><use xlink:href="#m9b21d91a90" id="line2d_14" x="98.073" y="206.925" style="fill:#b0b0b0;stroke:#b0b0b0;stroke-width:.3"/><g id="text_10" style="fill:#b0b0b0" transform="matrix(.14 0 0 -.14 55.443 212.244)"><defs><path id="DejaVuSans-37" d="M525 4666h3000v-269L1831 0h-659l1594 4134H525v532z" transform="scale(.01563)"/></defs><use xlink:href="#DejaVuSans-37"/><use xlink:href="#DejaVuSans-35" x="63.623"/><use xlink:href="#DejaVuSans-30" x="127.246"/><use xlink:href="#DejaVuSans-30" x="190.869"/></g></g><g id="ytick_5"><path id="line2d_15" d="M98.073 173.757h357.12" clip-path="url(#pfe88655bed)" style="fill:none;stroke:#b0b0b0;stroke-width:.3;stroke-linecap:square"/><use xlink:href="#m9b21d91a90" id="line2d_16" x="98.073" y="173.757" style="fill:#b0b0b0;stroke:#b0b0b0;stroke-width:.3"/><g id="text_11" style="fill:#b0b0b0" transform="matrix(.14 0 0 -.14 46.536 179.076)"><use xlink:href="#DejaVuSans-31"/><use xlink:href="#DejaVuSans-30" x="63.623"/><use xlink:href="#DejaVuSans-30" x="127.246"/><use xlink:href="#DejaVuSans-30" x="190.869"/><use xlink:href="#DejaVuSans-30" x="254.492"/></g></g><g id="ytick_6"><path id="line2d_17" d="M98.073 140.59h357.12" clip-path="url(#pfe88655bed)" style="fill:none;stroke:#b0b0b0;stroke-width:.3;stroke-linecap:square"/><use xlink:href="#m9b21d91a90" id="line2d_18" x="98.073" y="140.589" style="fill:#b0b0b0;stroke:#b0b0b0;stroke-width:.3"/><g id="text_12" style="fill:#b0b0b0" transform="matrix(.14 0 0 -.14 46.536 145.908)"><use xlink:href="#DejaVuSans-31"/><use xlink:href="#DejaVuSans-32" x="63.623"/><use xlink:href="#DejaVuSans-35" x="127.246"/><use xlink:href="#DejaVuSans-30" x="190.869"/><use xlink:href="#DejaVuSans-30" x="254.492"/></g></g><g id="ytick_7"><path id="line2d_19" d="M98.073 107.422h357.12" clip-path="url(#pfe88655bed)" style="fill:none;stroke:#b0b0b0;stroke-width:.3;stroke-linecap:square"/><use xlink:href="#m9b21d91a90" id="line2d_20" x="98.073" y="107.422" style="fill:#b0b0b0;stroke:#b0b0b0;stroke-width:.3"/><g id="text_13" style="fill:#b0b0b0" transform="matrix(.14 0 0 -.14 46.536 112.74)"><use xlink:href="#DejaVuSans-31"/><use xlink:href="#DejaVuSans-35" x="63.623"/><use xlink:href="#DejaVuSans-30" x="127.246"/><use xlink:href="#DejaVuSans-30" x="190.869"/><use xlink:href="#DejaVuSans-30" x="254.492"/></g></g><g id="ytick_8"><path id="line2d_21" d="M98.073 74.254h357.12" clip-path="url(#pfe88655bed)" style="fill:none;stroke:#b0b0b0;stroke-width:.3;stroke-linecap:square"/><use xlink:href="#m9b21d91a90" id="line2d_22" x="98.073" y="74.254" style="fill:#b0b0b0;stroke:#b0b0b0;stroke-width:.3"/><g id="text_14" style="fill:#b0b0b0" transform="matrix(.14 0 0 -.14 46.536 79.573)"><use xlink:href="#DejaVuSans-31"/><use xlink:href="#DejaVuSans-37" x="63.623"/><use xlink:href="#DejaVuSans-35" x="127.246"/><use xlink:href="#DejaVuSans-30" x="190.869"/><use xlink:href="#DejaVuSans-30" x="254.492"/></g></g><g id="ytick_9"><path id="line2d_23" d="M98.073 41.086h357.12" clip-path="url(#pfe88655bed)" style="fill:none;stroke:#b0b0b0;stroke-width:.3;stroke-linecap:square"/><use xlink:href="#m9b21d91a90" id="line2d_24" x="98.073" y="41.086" style="fill:#b0b0b0;stroke:#b0b0b0;stroke-width:.3"/><g id="text_15" style="fill:#b0b0b0" transform="matrix(.14 0 0 -.14 46.536 46.405)"><use xlink:href="#DejaVuSans-32"/><use xlink:href="#DejaVuSans-30" x="63.623"/><use xlink:href="#DejaVuSans-30" x="127.246"/><use xlink:href="#DejaVuSans-30" x="190.869"/><use xlink:href="#DejaVuSans-30" x="254.492"/></g></g><g id="text_16" style="fill:#b0b0b0" transform="matrix(.14 0 0 -.14 7.2 11.563)"><defs><path id="DejaVuSans-47" d="M3809 666v1253H2778v519h1656V434q-365-259-806-392-440-133-940-133-1094 0-1712 639-617 640-617 1780 0 1144 617 1783 618 639 1712 639 456 0 867-113 411-112 758-331v-672q-350 297-744 447t-828 150q-857 0-1287-478-429-478-429-1425 0-944 429-1422 430-478 1287-478 334 0 596 58 263 58 472 180z" transform="scale(.01563)"/><path id="DejaVuSans-69" d="M603 3500h575V0H603v3500zm0 1363h575v-729H603v729z" transform="scale(.01563)"/><path id="DejaVuSans-74" d="M1172 4494v-994h1184v-447H1172V1153q0-428 117-550t477-122h590V0h-590q-666 0-919 248-253 249-253 905v1900H172v447h422v994h578z" transform="scale(.01563)"/><path id="DejaVuSans-48" d="M628 4666h631V2753h2294v1913h631V0h-631v2222H1259V0H628v4666z" transform="scale(.01563)"/><path id="DejaVuSans-75" d="M544 1381v2119h575V1403q0-497 193-746 194-248 582-248 465 0 735 297 271 297 271 810v1984h575V0h-575v538q-209-319-486-474-276-155-642-155-603 0-916 375-312 375-312 1097zm1447 2203z" transform="scale(.01563)"/><path id="DejaVuSans-62" d="M3116 1747q0 634-261 995t-717 361q-457 0-718-361t-261-995q0-634 261-995t718-361q456 0 717 361t261 995zM1159 2969q182 312 458 463 277 152 661 152 638 0 1036-506 399-506 399-1331T3314 415Q2916-91 2278-91q-384 0-661 152-276 152-458 464V0H581v4863h578V2969z" transform="scale(.01563)"/><path id="DejaVuSans-73" d="M2834 3397v-544q-243 125-506 187-262 63-544 63-428 0-642-131t-214-394q0-200 153-314t616-217l197-44q612-131 870-370t258-667q0-488-386-773Q2250-91 1575-91q-281 0-586 55T347 128v594q319-166 628-249 309-82 613-82 406 0 624 139 219 139 219 392 0 234-158 359-157 125-692 241l-200 47q-534 112-772 345-237 233-237 639 0 494 350 762 350 269 994 269 318 0 599-47 282-46 519-140z" transform="scale(.01563)"/><path id="DejaVuSans-61" d="M2194 1759q-697 0-966-159t-269-544q0-306 202-486 202-179 548-179 479 0 768 339t289 901v128h-572zm1147 238V0h-575v531q-197-318-491-470T1556-91q-537 0-855 302-317 302-317 808 0 590 395 890 396 300 1180 300h807v57q0 397-261 614t-733 217q-300 0-585-72-284-72-546-216v532q315 122 612 182 297 61 578 61 760 0 1135-394 375-393 375-1193z" transform="scale(.01563)"/><path id="DejaVuSans-72" d="M2631 2963q-97 56-211 82-114 27-251 27-488 0-749-317t-261-911V0H581v3500h578v-544q182 319 472 473 291 155 707 155 59 0 131-8 72-7 159-23l3-590z" transform="scale(.01563)"/></defs><use xlink:href="#DejaVuSans-47"/><use xlink:href="#DejaVuSans-69" x="77.49"/><use xlink:href="#DejaVuSans-74" x="105.273"/><use xlink:href="#DejaVuSans-48" x="144.482"/><use xlink:href="#DejaVuSans-75" x="219.678"/><use xlink:href="#DejaVuSans-62" x="283.057"/><use xlink:href="#DejaVuSans-20" x="346.533"/><use xlink:href="#DejaVuSans-73" x="378.32"/><use xlink:href="#DejaVuSans-74" x="430.42"/><use xlink:href="#DejaVuSans-61" x="469.629"/><use xlink:href="#DejaVuSans-72" x="530.908"/><use xlink:href="#DejaVuSans-73" x="572.021"/></g></g><path id="line2d_25" d="m198.398 306.428 2.301-.026H210.133l2.148-.013h4.678l2.378-.014h20.94l2.378-.026h9.357l2.378-.013 2.3-.014h7.057l2.378-.026 2.224-.014h7.057l2.3-.013h2.379l2.377-.013h6.98l2.378-.013h2.378l2.147-.014 2.378-.013 2.301-.013 2.378-.013 2.3-.014h4.756l2.301-.013h2.378l2.301-.026h11.581l2.379-.014h4.678l2.378-.013 2.301-.013h2.378l2.301-.04 2.378-.027 2.377-.026h2.148l2.378-.013h4.679l2.3-.053 2.378-.04 2.378-.027 2.301-.04 2.378-.013 2.3-.013 2.379-.013 2.377-.014 2.225-.04 2.377-.026 2.301-.013 2.378-.027 2.301-.066h2.378l2.378-.067 2.3-.04 2.378-.013 2.301-.013 2.378-.026 2.378-.08 2.147-.066 2.378-.08 2.301-.066 2.378-.04 2.301-.08 2.378-.04 2.377-.04 2.302-.052 2.377-.04 2.301-.027 2.378-.013 2.378-.013 2.147-.053 2.378-.067 2.301-.026 2.378-.066 2.3-.067 2.379-.026 2.377-.053 2.301-.04 2.378-.067" clip-path="url(#pfe88655bed)" style="fill:none;stroke:#c5b0d5;stroke-width:1.5;stroke-linecap:square"/><path id="line2d_26" d="m191.342 306.428 2.3-.013 2.378-.013h9.357l2.379-.013 2.377-.04h2.148l2.378-.013h2.3l2.378-.027h2.301l2.378-.013 2.378-.014h4.679l2.3-.04h2.378l2.378-.013h2.148l2.378-.026 2.3-.027 2.378-.04 2.301-.013 2.378-.04 2.378-.066 2.3-.026 2.379-.04 2.3-.04 2.378-.027 2.378-.04 2.224-.04 2.378-.039 2.301-.026 2.378-.04h2.3l2.379-.014 2.377-.026 2.301-.013 2.378-.067 2.301-.053 2.378-.053 2.378-.026 2.147-.067 2.378-.026 2.301-.014 2.378-.026 2.3-.013 2.379-.014 2.377-.013 2.301-.013 2.378-.013h2.301l2.378-.04 2.378-.04 2.147-.027 2.378-.053 2.3-.013 2.379-.066 2.3-.013 2.378-.027 2.378-.027 2.301-.04 2.378-.026 2.301-.013 2.378-.013 2.377-.014h2.148l2.378-.04 2.3-.013 2.379-.04 2.3-.026 2.378-.04 2.378-.013 2.301-.013 2.378-.067 2.3-.013 2.379-.066h2.377l2.225-.04 2.377-.027 2.301-.053 2.378-.053 2.301-.026 2.378-.08 2.378-.013 2.3-.04h4.679l2.378-.066 2.378-.053 2.147-.04h2.378l2.301-.027 2.378-.013 2.301-.013 2.378-.027 2.377-.026 2.302-.027 2.377-.026 2.301-.014 2.378-.026 2.378-.013 2.147-.027h4.679l2.378-.013 2.3-.027h2.379l2.377-.026 2.301-.027 2.378-.013" clip-path="url(#pfe88655bed)" style="fill:none;stroke:#ff9896;stroke-width:1.5;stroke-linecap:square"/><path id="line2d_27" d="m310.458 306.428 2.301-.119 2.378-.292 2.301-.172 2.378-.08 2.378-.425 2.147-.291 2.378-.319 2.3-.225 2.379-.319 2.3-.305 2.378-.371 2.378-.279 2.301-.358 2.378-.425 2.301-.318 2.378-.252 2.377-.372 2.148-.278 2.378-.372 2.3-.477 2.379-.279 2.3-.862 2.378-.266 2.378-.438 2.301-.278 2.378-.345 2.3-.292 2.379-.265 2.377-.319 2.225-.345 2.377-.331 2.301-.372 2.378-.424 2.301-.478 2.378-.371 2.378-.24 2.3-.45 2.378-.359 2.301-.331 2.378-.412 2.378-.371 2.147-.186 2.378-.438 2.301-.45 2.378-.266 2.301-.265 2.378-.372 2.377-.252 2.302-.398 2.377-.305 2.301-.372 2.378-.278 2.378-.464 2.147-.319 2.378-.332 2.301-.291 2.378-.385 2.3-.465 2.379-.252 2.377-.398 2.301-.424 2.378-.266" clip-path="url(#pfe88655bed)" style="fill:none;stroke:#98df8a;stroke-width:1.5;stroke-linecap:square"/><g id="text_17" style="fill:#1f77b4" transform="matrix(.14 0 0 -.14 465.907 44.18)"><defs><path id="DejaVuSans-7a" d="M353 3500h2731v-525L922 459h2162V0H275v525l2163 2516H353v459z" transform="scale(.01563)"/><path id="DejaVuSans-65" d="M3597 1894v-281H953q38-594 358-905t892-311q331 0 642 81t618 244V178Q3153 47 2828-22t-659-69q-838 0-1327 487-489 488-489 1320 0 859 464 1363 464 505 1252 505 706 0 1117-455 411-454 411-1235zm-575 169q-6 471-264 752-258 282-683 282-481 0-770-272t-333-766l2050 4z" transform="scale(.01563)"/><path id="DejaVuSans-6c" d="M603 4863h575V0H603v4863z" transform="scale(.01563)"/><path id="DejaVuSans-64" d="M2906 2969v1894h575V0h-575v525q-181-312-458-464-276-152-664-152-634 0-1033 506-398 507-398 1332t398 1331q399 506 1033 506 388 0 664-152 277-151 458-463zM947 1747q0-634 261-995t717-361q456 0 718 361 263 361 263 995t-263 995q-262 361-718 361t-717-361q-261-361-261-995z" transform="scale(.01563)"/><path id="DejaVuSans-2f" d="M1625 4666h531L531-594H0l1625 5260z" transform="scale(.01563)"/></defs><use xlink:href="#DejaVuSans-62"/><use xlink:href="#DejaVuSans-61" x="63.477"/><use xlink:href="#DejaVuSans-7a" x="124.756"/><use xlink:href="#DejaVuSans-65" x="177.246"/><use xlink:href="#DejaVuSans-6c" x="238.77"/><use xlink:href="#DejaVuSans-62" x="266.553"/><use xlink:href="#DejaVuSans-75" x="330.029"/><use xlink:href="#DejaVuSans-69" x="393.408"/><use xlink:href="#DejaVuSans-6c" x="421.191"/><use xlink:href="#DejaVuSans-64" x="448.975"/><use xlink:href="#DejaVuSans-2f" x="512.451"/><use xlink:href="#DejaVuSans-62" x="546.143"/><use xlink:href="#DejaVuSans-61" x="609.619"/><use xlink:href="#DejaVuSans-7a" x="670.898"/><use xlink:href="#DejaVuSans-65" x="723.389"/><use xlink:href="#DejaVuSans-6c" x="784.912"/></g><g id="text_18" style="fill:#ff7f0e" transform="matrix(.14 0 0 -.14 465.907 96.744)"><defs><path id="DejaVuSans-76" d="M191 3500h609L1894 563l1094 2937h609L2284 0h-781L191 3500z" transform="scale(.01563)"/><path id="DejaVuSans-63" d="M3122 3366v-538q-244 135-489 202t-495 67q-560 0-870-355-309-354-309-995t309-996q310-354 870-354 250 0 495 67t489 202V134Q2881 22 2623-34q-257-57-548-57-791 0-1257 497-465 497-465 1341 0 856 470 1346 471 491 1290 491 265 0 518-55 253-54 491-163z" transform="scale(.01563)"/><path id="DejaVuSans-6f" d="M1959 3097q-462 0-731-361t-269-989q0-628 267-989 268-361 733-361 460 0 728 362 269 363 269 988 0 622-269 986-268 364-728 364zm0 487q750 0 1178-488 429-487 429-1349 0-859-429-1349Q2709-91 1959-91q-753 0-1180 489-426 490-426 1349 0 862 426 1349 427 488 1180 488z" transform="scale(.01563)"/><path id="DejaVuSans-70" d="M1159 525v-1856H581v4831h578v-531q182 312 458 463 277 152 661 152 638 0 1036-506 399-506 399-1331T3314 415Q2916-91 2278-91q-384 0-661 152-276 152-458 464zm1957 1222q0 634-261 995t-717 361q-457 0-718-361t-261-995q0-634 261-995t718-361q456 0 717 361t261 995z" transform="scale(.01563)"/></defs><use xlink:href="#DejaVuSans-76"/><use xlink:href="#DejaVuSans-65" x="59.18"/><use xlink:href="#DejaVuSans-72" x="120.703"/><use xlink:href="#DejaVuSans-63" x="159.566"/><use xlink:href="#DejaVuSans-65" x="214.547"/><use xlink:href="#DejaVuSans-6c" x="276.07"/><use xlink:href="#DejaVuSans-2f" x="303.854"/><use xlink:href="#DejaVuSans-74" x="337.545"/><use xlink:href="#DejaVuSans-75" x="376.754"/><use xlink:href="#DejaVuSans-72" x="440.133"/><use xlink:href="#DejaVuSans-62" x="481.246"/><use xlink:href="#DejaVuSans-6f" x="544.723"/><use xlink:href="#DejaVuSans-72" x="605.904"/><use xlink:href="#DejaVuSans-65" x="644.768"/><use xlink:href="#DejaVuSans-70" x="706.291"/><use xlink:href="#DejaVuSans-6f" x="769.768"/></g><g id="text_19" style="fill:#2ca02c" transform="matrix(.14 0 0 -.14 465.907 175.156)"><defs><path id="DejaVuSans-6e" d="M3513 2113V0h-575v2094q0 497-194 743-194 247-581 247-466 0-735-297-269-296-269-809V0H581v3500h578v-544q207 316 486 472 280 156 646 156 603 0 912-373 310-373 310-1098z" transform="scale(.01563)"/><path id="DejaVuSans-6a" d="M603 3500h575V-63q0-668-255-968-254-300-820-300h-219v487H38q328 0 446 152Q603-541 603-63v3563zm0 1363h575v-729H603v729z" transform="scale(.01563)"/><path id="DejaVuSans-2d" d="M313 2009h1684v-512H313v512z" transform="scale(.01563)"/></defs><use xlink:href="#DejaVuSans-6e"/><use xlink:href="#DejaVuSans-69" x="63.379"/><use xlink:href="#DejaVuSans-6e" x="91.162"/><use xlink:href="#DejaVuSans-6a" x="154.541"/><use xlink:href="#DejaVuSans-61" x="182.324"/><use xlink:href="#DejaVuSans-2d" x="243.604"/><use xlink:href="#DejaVuSans-62" x="279.688"/><use xlink:href="#DejaVuSans-75" x="343.164"/><use xlink:href="#DejaVuSans-69" x="406.543"/><use xlink:href="#DejaVuSans-6c" x="434.326"/><use xlink:href="#DejaVuSans-64" x="462.109"/><use xlink:href="#DejaVuSans-2f" x="525.586"/><use xlink:href="#DejaVuSans-6e" x="559.277"/><use xlink:href="#DejaVuSans-69" x="622.656"/><use xlink:href="#DejaVuSans-6e" x="650.439"/><use xlink:href="#DejaVuSans-6a" x="713.818"/><use xlink:href="#DejaVuSans-61" x="741.602"/></g><g id="text_20" style="fill:#d62728" transform="matrix(.14 0 0 -.14 465.907 189.156)"><defs><path id="DejaVuSans-66" d="M2375 4863v-479h-550q-309 0-430-125-120-125-120-450v-309h947v-447h-947V0H697v3053H147v447h550v244q0 584 272 851 272 268 862 268h544z" transform="scale(.01563)"/><path id="DejaVuSans-6b" d="M581 4863h578V1991l1716 1509h734L1753 1863 3688 0h-750L1159 1709V0H581v4863z" transform="scale(.01563)"/></defs><use xlink:href="#DejaVuSans-66"/><use xlink:href="#DejaVuSans-61" x="35.205"/><use xlink:href="#DejaVuSans-63" x="96.484"/><use xlink:href="#DejaVuSans-65" x="151.465"/><use xlink:href="#DejaVuSans-62" x="212.988"/><use xlink:href="#DejaVuSans-6f" x="276.465"/><use xlink:href="#DejaVuSans-6f" x="337.646"/><use xlink:href="#DejaVuSans-6b" x="398.828"/><use xlink:href="#DejaVuSans-2f" x="456.738"/><use xlink:href="#DejaVuSans-62" x="490.43"/><use xlink:href="#DejaVuSans-75" x="553.906"/><use xlink:href="#DejaVuSans-63" x="617.285"/><use xlink:href="#DejaVuSans-6b" x="672.266"/></g><g id="text_21" style="fill:#9467bd" transform="matrix(.14 0 0 -.14 465.907 203.156)"><defs><path id="DejaVuSans-68" d="M3513 2113V0h-575v2094q0 497-194 743-194 247-581 247-466 0-735-297-269-296-269-809V0H581v4863h578V2956q207 316 486 472 280 156 646 156 603 0 912-373 310-373 310-1098z" transform="scale(.01563)"/><path id="DejaVuSans-79" d="M2059-325q-243-625-475-815-231-191-618-191H506v481h338q237 0 368 113 132 112 291 531l103 262L191 3500h609L1894 763l1094 2737h609L2059-325z" transform="scale(.01563)"/></defs><use xlink:href="#DejaVuSans-65"/><use xlink:href="#DejaVuSans-61" x="61.523"/><use xlink:href="#DejaVuSans-72" x="122.803"/><use xlink:href="#DejaVuSans-74" x="163.916"/><use xlink:href="#DejaVuSans-68" x="203.125"/><use xlink:href="#DejaVuSans-6c" x="266.504"/><use xlink:href="#DejaVuSans-79" x="294.287"/><use xlink:href="#DejaVuSans-2f" x="353.467"/><use xlink:href="#DejaVuSans-65" x="387.158"/><use xlink:href="#DejaVuSans-61" x="448.682"/><use xlink:href="#DejaVuSans-72" x="509.961"/><use xlink:href="#DejaVuSans-74" x="551.074"/><use xlink:href="#DejaVuSans-68" x="590.283"/><use xlink:href="#DejaVuSans-6c" x="653.662"/><use xlink:href="#DejaVuSans-79" x="681.445"/></g><g id="text_22" style="fill:#8c564b" transform="matrix(.14 0 0 -.14 465.907 217.156)"><defs><path id="DejaVuSans-4b" d="M628 4666h631V2694l2094 1972h813L1850 2491 4331 0h-831L1259 2247V0H628v4666z" transform="scale(.01563)"/><path id="DejaVuSans-77" d="M269 3500h575l719-2731 715 2731h678l719-2731 716 2731h575L4050 0h-678l-753 2869L1863 0h-679L269 3500z" transform="scale(.01563)"/><path id="DejaVuSans-43" d="M4122 4306v-665q-319 297-680 443-361 147-767 147-800 0-1225-489t-425-1414q0-922 425-1411t1225-489q406 0 767 147t680 444V359q-331-225-702-338-370-112-782-112-1060 0-1670 648-609 649-609 1771 0 1125 609 1773 610 649 1670 649 418 0 788-111 371-111 696-333z" transform="scale(.01563)"/><path id="DejaVuSans-4d" d="M628 4666h941l1190-3175 1197 3175h941V0h-616v4097L3078 897h-634L1241 4097V0H628v4666z" transform="scale(.01563)"/></defs><use xlink:href="#DejaVuSans-4b"/><use xlink:href="#DejaVuSans-69" x="65.576"/><use xlink:href="#DejaVuSans-74" x="93.359"/><use xlink:href="#DejaVuSans-77" x="132.568"/><use xlink:href="#DejaVuSans-61" x="214.355"/><use xlink:href="#DejaVuSans-72" x="275.635"/><use xlink:href="#DejaVuSans-65" x="314.498"/><use xlink:href="#DejaVuSans-2f" x="376.021"/><use xlink:href="#DejaVuSans-43" x="409.713"/><use xlink:href="#DejaVuSans-4d" x="479.537"/><use xlink:href="#DejaVuSans-61" x="565.816"/><use xlink:href="#DejaVuSans-6b" x="627.096"/><use xlink:href="#DejaVuSans-65" x="681.381"/></g><g id="text_23" style="fill:#e377c2" transform="matrix(.14 0 0 -.14 465.907 231.156)"><defs><path id="DejaVuSans-6d" d="M3328 2828q216 388 516 572t706 184q547 0 844-383 297-382 297-1088V0h-578v2094q0 503-179 746-178 244-543 244-447 0-707-297-259-296-259-809V0h-578v2094q0 506-178 748t-550 242q-441 0-701-298-259-298-259-808V0H581v3500h578v-544q197 322 472 475t653 153q382 0 649-194 267-193 395-562z" transform="scale(.01563)"/></defs><use xlink:href="#DejaVuSans-6d"/><use xlink:href="#DejaVuSans-65" x="97.412"/><use xlink:href="#DejaVuSans-73" x="158.936"/><use xlink:href="#DejaVuSans-6f" x="211.035"/><use xlink:href="#DejaVuSans-6e" x="272.217"/><use xlink:href="#DejaVuSans-62" x="335.596"/><use xlink:href="#DejaVuSans-75" x="399.072"/><use xlink:href="#DejaVuSans-69" x="462.451"/><use xlink:href="#DejaVuSans-6c" x="490.234"/><use xlink:href="#DejaVuSans-64" x="518.018"/><use xlink:href="#DejaVuSans-2f" x="581.494"/><use xlink:href="#DejaVuSans-6d" x="615.186"/><use xlink:href="#DejaVuSans-65" x="712.598"/><use xlink:href="#DejaVuSans-73" x="774.121"/><use xlink:href="#DejaVuSans-6f" x="826.221"/><use xlink:href="#DejaVuSans-6e" x="887.402"/></g><g id="text_24" style="fill:#7f7f7f" transform="matrix(.14 0 0 -.14 465.907 245.156)"><use xlink:href="#DejaVuSans-74"/><use xlink:href="#DejaVuSans-68" x="39.209"/><use xlink:href="#DejaVuSans-65" x="102.588"/><use xlink:href="#DejaVuSans-6f" x="164.111"/><use xlink:href="#DejaVuSans-73" x="225.293"/><use xlink:href="#DejaVuSans-2f" x="277.393"/><use xlink:href="#DejaVuSans-74" x="311.084"/><use xlink:href="#DejaVuSans-68" x="350.293"/><use xlink:href="#DejaVuSans-65" x="413.672"/><use xlink:href="#DejaVuSans-6f" x="475.195"/><use xlink:href="#DejaVuSans-73" x="536.377"/></g><g id="text_25" style="fill:#bcbd22" transform="matrix(.14 0 0 -.14 465.907 259.156)"><use xlink:href="#DejaVuSans-70"/><use xlink:href="#DejaVuSans-72" x="63.477"/><use xlink:href="#DejaVuSans-65" x="102.34"/><use xlink:href="#DejaVuSans-6d" x="163.863"/><use xlink:href="#DejaVuSans-61" x="261.275"/><use xlink:href="#DejaVuSans-6b" x="322.555"/><use xlink:href="#DejaVuSans-65" x="376.84"/><use xlink:href="#DejaVuSans-2f" x="438.363"/><use xlink:href="#DejaVuSans-70" x="472.055"/><use xlink:href="#DejaVuSans-72" x="535.531"/><use xlink:href="#DejaVuSans-65" x="574.395"/><use xlink:href="#DejaVuSans-6d" x="635.918"/><use xlink:href="#DejaVuSans-61" x="733.33"/><use xlink:href="#DejaVuSans-6b" x="794.609"/><use xlink:href="#DejaVuSans-65" x="848.895"/><use xlink:href="#DejaVuSans-2d" x="910.418"/><use xlink:href="#DejaVuSans-63" x="946.502"/><use xlink:href="#DejaVuSans-6f" x="1001.482"/><use xlink:href="#DejaVuSans-72" x="1062.664"/><use xlink:href="#DejaVuSans-65" x="1101.527"/></g><g id="text_26" style="fill:#17becf" transform="matrix(.14 0 0 -.14 465.907 273.156)"><use xlink:href="#DejaVuSans-70"/><use xlink:href="#DejaVuSans-61" x="63.477"/><use xlink:href="#DejaVuSans-6e" x="124.756"/><use xlink:href="#DejaVuSans-74" x="188.135"/><use xlink:href="#DejaVuSans-73" x="227.344"/><use xlink:href="#DejaVuSans-62" x="279.443"/><use xlink:href="#DejaVuSans-75" x="342.92"/><use xlink:href="#DejaVuSans-69" x="406.299"/><use xlink:href="#DejaVuSans-6c" x="434.082"/><use xlink:href="#DejaVuSans-64" x="461.865"/><use xlink:href="#DejaVuSans-2f" x="525.342"/><use xlink:href="#DejaVuSans-70" x="559.033"/><use xlink:href="#DejaVuSans-61" x="622.51"/><use xlink:href="#DejaVuSans-6e" x="683.789"/><use xlink:href="#DejaVuSans-74" x="747.168"/><use xlink:href="#DejaVuSans-73" x="786.377"/></g><g id="text_27" style="fill:#aec7e8" transform="matrix(.14 0 0 -.14 465.907 287.156)"><defs><path id="DejaVuSans-67" d="M2906 1791q0 625-258 968-257 344-723 344-462 0-720-344-258-343-258-968 0-622 258-966t720-344q466 0 723 344 258 344 258 966zm575-1357q0-893-397-1329-396-436-1215-436-303 0-572 45t-522 139v559q253-137 500-202 247-66 503-66 566 0 847 295t281 892v285q-178-310-456-463T1784 0Q1141 0 747 490 353 981 353 1791q0 812 394 1302 394 491 1037 491 388 0 666-153t456-462v531h575V434z" transform="scale(.01563)"/></defs><use xlink:href="#DejaVuSans-74"/><use xlink:href="#DejaVuSans-68" x="39.209"/><use xlink:href="#DejaVuSans-6f" x="102.588"/><use xlink:href="#DejaVuSans-75" x="163.77"/><use xlink:href="#DejaVuSans-67" x="227.148"/><use xlink:href="#DejaVuSans-68" x="290.625"/><use xlink:href="#DejaVuSans-74" x="354.004"/><use xlink:href="#DejaVuSans-2d" x="393.213"/><use xlink:href="#DejaVuSans-6d" x="429.297"/><use xlink:href="#DejaVuSans-61" x="526.709"/><use xlink:href="#DejaVuSans-63" x="587.988"/><use xlink:href="#DejaVuSans-68" x="642.969"/><use xlink:href="#DejaVuSans-69" x="706.348"/><use xlink:href="#DejaVuSans-6e" x="734.131"/><use xlink:href="#DejaVuSans-65" x="797.51"/><use xlink:href="#DejaVuSans-2f" x="859.033"/><use xlink:href="#DejaVuSans-70" x="892.725"/><use xlink:href="#DejaVuSans-6c" x="956.201"/><use xlink:href="#DejaVuSans-65" x="983.984"/><use xlink:href="#DejaVuSans-61" x="1045.508"/><use xlink:href="#DejaVuSans-73" x="1106.787"/><use xlink:href="#DejaVuSans-65" x="1158.887"/></g><g id="text_28" style="fill:#ffbb78" transform="matrix(.14 0 0 -.14 465.907 301.156)"><use xlink:href="#DejaVuSans-74"/><use xlink:href="#DejaVuSans-6a" x="39.209"/><use xlink:href="#DejaVuSans-2f" x="66.992"/><use xlink:href="#DejaVuSans-6d" x="100.684"/><use xlink:href="#DejaVuSans-6d" x="198.096"/><use xlink:href="#DejaVuSans-61" x="295.508"/><use xlink:href="#DejaVuSans-6b" x="356.787"/><use xlink:href="#DejaVuSans-65" x="411.072"/></g><g id="text_29" style="fill:#98df8a" transform="matrix(.14 0 0 -.14 465.907 315.156)"><defs><path id="DejaVuSans-53" d="M3425 4513v-616q-359 172-678 256-319 85-616 85-515 0-795-200t-280-569q0-310 186-468 186-157 705-254l381-78q706-135 1042-474t336-907q0-679-455-1029Q2797-91 1919-91q-331 0-705 75-373 75-773 222v650q384-215 753-325 369-109 725-109 540 0 834 212 294 213 294 607 0 343-211 537t-692 291l-385 75q-706 140-1022 440-315 300-315 835 0 619 436 975t1201 356q329 0 669-60 341-59 697-177z" transform="scale(.01563)"/></defs><use xlink:href="#DejaVuSans-53"/><use xlink:href="#DejaVuSans-43" x="63.477"/><use xlink:href="#DejaVuSans-6f" x="133.301"/><use xlink:href="#DejaVuSans-6e" x="194.482"/><use xlink:href="#DejaVuSans-73" x="257.861"/><use xlink:href="#DejaVuSans-2f" x="309.961"/><use xlink:href="#DejaVuSans-73" x="343.652"/><use xlink:href="#DejaVuSans-63" x="395.752"/><use xlink:href="#DejaVuSans-6f" x="450.732"/><use xlink:href="#DejaVuSans-6e" x="511.914"/><use xlink:href="#DejaVuSans-73" x="575.293"/></g><g id="text_30" style="fill:#ff9896" transform="matrix(.14 0 0 -.14 465.907 329.156)"><use xlink:href="#DejaVuSans-62"/><use xlink:href="#DejaVuSans-6f" x="63.477"/><use xlink:href="#DejaVuSans-6f" x="124.658"/><use xlink:href="#DejaVuSans-73" x="185.84"/><use xlink:href="#DejaVuSans-74" x="237.939"/><use xlink:href="#DejaVuSans-6f" x="277.148"/><use xlink:href="#DejaVuSans-72" x="338.33"/><use xlink:href="#DejaVuSans-67" x="377.693"/><use xlink:href="#DejaVuSans-2f" x="441.17"/><use xlink:href="#DejaVuSans-62" x="474.861"/><use xlink:href="#DejaVuSans-75" x="538.338"/><use xlink:href="#DejaVuSans-69" x="601.717"/><use xlink:href="#DejaVuSans-6c" x="629.5"/><use xlink:href="#DejaVuSans-64" x="657.283"/></g><g id="text_31" style="fill:#c5b0d5" transform="matrix(.14 0 0 -.14 465.907 343.156)"><use xlink:href="#DejaVuSans-6d"/><use xlink:href="#DejaVuSans-69" x="97.412"/><use xlink:href="#DejaVuSans-72" x="125.195"/><use xlink:href="#DejaVuSans-72" x="164.559"/><use xlink:href="#DejaVuSans-6f" x="203.422"/><use xlink:href="#DejaVuSans-72" x="264.604"/><use xlink:href="#DejaVuSans-2f" x="305.717"/><use xlink:href="#DejaVuSans-6d" x="339.408"/><use xlink:href="#DejaVuSans-61" x="436.82"/><use xlink:href="#DejaVuSans-6b" x="498.1"/><use xlink:href="#DejaVuSans-65" x="552.385"/></g><g id="text_32" style="fill:#b0b0b0" transform="matrix(.09716 0 0 -.09716 98.073 340.465)"><defs><path id="DejaVuSans-40" d="M2381 1678q0-447 222-702 222-254 610-254 384 0 604 256 221 256 221 700 0 438-225 695-225 258-607 258-378 0-602-256-223-256-223-697zm1703-934q-187-241-429-355t-564-114q-538 0-874 389t-336 1014q0 625 337 1015 338 391 873 391 322 0 565-117 244-117 428-354v409h447V722q457 69 714 417 258 349 258 902 0 334-99 628-98 294-298 544-325 409-792 626t-1017 217q-384 0-738-102-353-101-653-301-490-319-767-836-276-517-276-1120 0-497 179-932 180-434 521-765 328-325 759-495 431-171 922-171 403 0 792 136t714 389l281-347q-390-303-851-464t-936-161q-578 0-1091 205-512 205-912 595Q841 78 631 592q-209 514-209 1105 0 569 212 1084 213 516 607 907 403 396 931 607t1119 211q662 0 1229-272 568-271 952-771 234-307 357-666 124-359 124-744 0-822-497-1297T4084 263v481z" transform="scale(.01563)"/><path id="DejaVuSans-7c" d="M1344 4891v-6400H813v6400h531z" transform="scale(.01563)"/><path id="DejaVuSans-4e" d="M628 4666h850L3547 763v3903h612V0h-850L1241 3903V0H628v4666z" transform="scale(.01563)"/><path id="DejaVuSans-f6" d="M1959 3097q-462 0-731-361t-269-989q0-628 267-989 268-361 733-361 460 0 728 362 269 363 269 988 0 622-269 986-268 364-728 364zm0 487q750 0 1178-488 429-487 429-1349 0-859-429-1349Q2709-91 1959-91q-753 0-1180 489-426 490-426 1349 0 862 426 1349 427 488 1180 488zm295 1266h634v-631h-634v631zm-1222 0h634v-631h-634v631z" transform="scale(.01563)"/><path id="DejaVuSans-42" d="M1259 2228V519h1013q509 0 754 211 246 211 246 645 0 438-246 645-245 208-754 208H1259zm0 1919V2741h935q462 0 688 173 227 174 227 530 0 353-227 528-226 175-688 175h-935zm-631 519h1613q722 0 1112-300 391-300 391-853 0-429-200-682t-588-315q466-100 724-418 258-317 258-792 0-625-425-966Q3088 0 2303 0H628v4666z" transform="scale(.01563)"/><path id="DejaVuSans-59" d="M-13 4666h679l1293-1919 1285 1919h678L2272 2222V0h-634v2222L-13 4666z" transform="scale(.01563)"/></defs><use xlink:href="#DejaVuSans-40"/><use xlink:href="#DejaVuSans-6e" x="100"/><use xlink:href="#DejaVuSans-73" x="163.379"/><use xlink:href="#DejaVuSans-63" x="215.479"/><use xlink:href="#DejaVuSans-68" x="270.459"/><use xlink:href="#DejaVuSans-6c" x="333.838"/><use xlink:href="#DejaVuSans-6f" x="361.621"/><use xlink:href="#DejaVuSans-65" x="422.803"/><use xlink:href="#DejaVuSans-20" x="484.326"/><use xlink:href="#DejaVuSans-2f" x="516.113"/><use xlink:href="#DejaVuSans-20" x="549.805"/><use xlink:href="#DejaVuSans-67" x="581.592"/><use xlink:href="#DejaVuSans-69" x="645.068"/><use xlink:href="#DejaVuSans-74" x="672.852"/><use xlink:href="#DejaVuSans-68" x="712.061"/><use xlink:href="#DejaVuSans-75" x="775.439"/><use xlink:href="#DejaVuSans-62" x="838.818"/><use xlink:href="#DejaVuSans-2d" x="902.295"/><use xlink:href="#DejaVuSans-74" x="938.379"/><use xlink:href="#DejaVuSans-72" x="977.588"/><use xlink:href="#DejaVuSans-65" x="1016.451"/><use xlink:href="#DejaVuSans-6e" x="1077.975"/><use xlink:href="#DejaVuSans-64" x="1141.354"/><use xlink:href="#DejaVuSans-73" x="1204.83"/><use xlink:href="#DejaVuSans-20" x="1256.93"/><use xlink:href="#DejaVuSans-7c" x="1288.717"/><use xlink:href="#DejaVuSans-20" x="1322.408"/><use xlink:href="#DejaVuSans-4e" x="1354.195"/><use xlink:href="#DejaVuSans-69" x="1429"/><use xlink:href="#DejaVuSans-63" x="1456.783"/><use xlink:href="#DejaVuSans-6f" x="1511.764"/><use xlink:href="#DejaVuSans-20" x="1572.945"/><use xlink:href="#DejaVuSans-53" x="1604.732"/><use xlink:href="#DejaVuSans-63" x="1668.209"/><use xlink:href="#DejaVuSans-68" x="1723.189"/><use xlink:href="#DejaVuSans-6c" x="1786.568"/><use xlink:href="#DejaVuSans-f6" x="1814.352"/><use xlink:href="#DejaVuSans-6d" x="1875.533"/><use xlink:href="#DejaVuSans-65" x="1972.945"/><use xlink:href="#DejaVuSans-72" x="2034.469"/><use xlink:href="#DejaVuSans-20" x="2075.582"/><use xlink:href="#DejaVuSans-7c" x="2107.369"/><use xlink:href="#DejaVuSans-20" x="2141.061"/><use xlink:href="#DejaVuSans-43" x="2172.848"/><use xlink:href="#DejaVuSans-43" x="2242.672"/><use xlink:href="#DejaVuSans-20" x="2312.496"/><use xlink:href="#DejaVuSans-42" x="2344.283"/><use xlink:href="#DejaVuSans-59" x="2407.387"/></g><path id="line2d_28" d="m294.198 306.428 2.147-10.892 2.378-1.14 2.301-.399 2.378-.172 2.3-2.786 2.379-.266 2.377-.212 2.301-.173 2.378-.238 2.301-.266 2.378-.225 2.378-.146 2.147-.292 2.378-.16 2.3-.185 2.379-.133 2.3-.159 2.378-.146 2.378-.106 2.301-.066 2.378-.12 2.301-.093 2.378-.013 2.377-.053 2.148-.066 2.378-.014 2.3-.04 2.379-.066 2.3-.053 2.378-.013 2.378-.106 2.301-.027 2.378-.146 2.3-.066 2.379-.066 2.377-.04 2.225-.146 2.377-.146 2.301-.093 2.378-.132 2.301-.027 2.378-.04 2.378-.066 2.3-.146 2.378-.027 2.301-.026 2.378-.04 2.378-.146 2.147-.199 2.378-.066 2.301-.093 2.378-.12 2.301-.106 2.378-.013 2.377-.026 2.302-.12 2.377-.093 2.301-.093 2.378-.04 2.378-.079 2.147-.027 2.378-.026 2.301-.053h2.378l2.3-.066 2.379-.067 2.377-.053 2.301-.066 2.378-.093" clip-path="url(#pfe88655bed)" style="fill:none;stroke:#ffbb78;stroke-width:1.5;stroke-linecap:square"/><path id="line2d_29" d="m266.125 306.428 2.224-.013h2.378l2.301-.013h4.678l2.379-.013 2.377-.027h4.679l2.301-.026 2.378-.014 2.378-.026 2.147-.014 2.378-.106 2.301-.12 2.378-.052 2.3-.08h2.379l2.377-.053 2.301-.013 2.378-.053 2.301-.12 2.378-.08 2.378-.039 2.147-1.207 2.378-1.831 2.3-.12 2.379-.159 2.3-.172 2.378-.106 2.378-.226 2.301-.982 2.378-.225 2.301-.425 2.378-.517 2.377-1.446 2.148-.518 2.378-.358 2.3-.53 2.379-.359 2.3-.239 2.378-.305 2.378-.239 2.301-.291 2.378-.332 2.3-.518 2.379-.212 2.377-.212 2.225-.16 2.377-.238 2.301-.292 2.378-.345 2.301-.332 2.378-.225 2.378-.292 2.3-.252 2.378-.146 2.301-2.574 2.378-1.021 2.378-.942 2.147-.518 2.378-.69 2.301-.557 2.378-.663 2.301-.584 2.378-.478 2.377-.292 2.302-.398 2.377-.398 2.301-.345 2.378-.73 2.378-.344 2.147-.305 2.378-.465 2.301-.384 2.378-.451 2.3-.372 2.379-.464 2.377-.438 2.301-.358 2.378-.451" clip-path="url(#pfe88655bed)" style="fill:none;stroke:#aec7e8;stroke-width:1.5;stroke-linecap:square"/><path id="line2d_30" d="m184.285 306.428 2.378-.013h11.735l2.301-.013H210.133l2.148-.053h2.378l2.3-.266 2.378-.252 2.301-.212 2.378-.133 2.378-.172 2.301-1.91 2.378-.266 2.3-.133 2.378-.132 2.378-.146 2.148-.093 2.378-.212 2.3-.133 2.378-.212 2.301-.173 2.378-.106 2.378-.172 2.3-.16 2.379-.291 2.3-.252 2.378-.12 2.378-.133 2.224-.119 2.378-.093 2.301-.172 2.378-.836 2.3-.637 2.379-.186 2.377-.199 2.301-.106 2.378-.239 2.301-.159 2.378-.159 2.378-.199 2.147-.16 2.378-.105 2.301-.24 2.378-.265 2.3-.185 2.379-.292 2.377-.319 2.301-.092 2.378-.2 2.301-.265 2.378-.292 2.378-.12 2.147-.158 2.378-.146 2.3-.226 2.379-.185 2.3-.226 2.378-.212 2.378-.213 2.301-.225 2.378-.345 2.301-.106 2.378-.08 2.377-.159 2.148-.16 2.378-.251 2.3-.305 2.379-.292 2.3-.2 2.378-.251 2.378-.24 2.301-.158 2.378-.306 2.3-.185 2.379-.106 2.377-.24 2.225-.158 2.377-.2 2.301-.212 2.378-.225 2.301-.213 2.378-.238 2.378-.186 2.3-.186 2.378-.332 2.301-.583 2.378-.252 2.378-.266 2.147-.265 2.378-.425 2.301-.172 2.378-.305 2.301-.411 2.378-.306 2.377-.225 2.302-.451 2.377-.557 2.301-1.102 2.378-.53 2.378-.65 2.147-.624 2.378-.49 2.301-.571 2.378-.61 2.3-.717 2.379-.69 2.377-.677 2.301-.636 2.378-.942" clip-path="url(#pfe88655bed)" style="fill:none;stroke:#17becf;stroke-width:1.5;stroke-linecap:square"/><path id="line2d_31" d="m240.277 306.428 2.378-.053 2.3-.53 2.378-.425 2.301-.305 2.378-.411 2.378-.319 2.3-.438 2.379-.41 2.3-.266 2.378-.358 2.378-.306 2.224-.331 2.378-.252 2.301-.2 2.378-.265 2.3-.252 2.379-.318 2.377-.319 2.301-.344 2.378-.266 2.301-.172 2.378-.332 2.378-.226 2.147-.305 2.378-.292 2.301-.331 2.378-.305 2.3-.345 2.379-.252 2.377-.385 2.301-.186 2.378-.265 2.301-.292 2.378-.292 2.378-.239 2.147-.305 2.378-.318 2.3-.186 2.379-.265 2.3-.213 2.378-.185 2.378-.16 2.301-.146 2.378-.172 2.301-.955 2.378-.345 2.377-.345 2.148-.518 2.378-.464 2.3-.544 2.379-.345 2.3-.371 2.378-.279 2.378-.398 2.301-.49 2.378-.346 2.3-.345 2.379-.371 2.377-.438 2.225-.279 2.377-.61 2.301-.557 2.378-.425 2.301-.53 2.378-.478 2.378-.557 2.3-.518 2.378-.57 2.301-.65 2.378-.544 2.378-.57 2.147-.425 2.378-.544 2.301-.464 2.378-.412 2.301-.384 2.378-.385 2.377-.478 2.302-.584 2.377-.45 2.301-.412 2.378-.584 2.378-.331 2.147-.451 2.378-.491 2.301-.345 2.378-.584 2.3-.372 2.379-.49 2.377-.558 2.301-.49 2.378-.438" clip-path="url(#pfe88655bed)" style="fill:none;stroke:#bcbd22;stroke-width:1.5;stroke-linecap:square"/><path id="line2d_32" d="m98.073 306.428 2.148-.77 39.73-.795 4.68-.106 4.678-.186 14.037-.186 9.357-.053 9.434-.013 6.827-.411 16.414-.491 2.378-.2 2.377-.424 4.526-.557 2.3-.398 7.057-.61 4.679-.412 16.26-1.42 7.057-1.1 11.735-1.22 2.378-.386 2.224-.663 4.68-.982 4.678-.902 4.755-1.605 2.301-.558 2.378-.41 2.301-.266 2.378-.491 2.378-.61 2.147-.85 2.378-.583 2.301-.425 14.113-3.555 2.301-.358 11.582-3.078 16.414-3.649 2.378-.464 6.903-1.805 2.3-.57 2.379-.717 4.678-.862 2.378-.73 16.337-3.17 4.68-1.274 2.3-.77 2.378-.49 4.679-1.354 2.377-.384 2.301-.664 6.903-1.526 2.378-.769 6.98-1.234 2.378-.53 4.679-.903 18.638-3.45 4.679-.769 2.377-.424 4.68-.624h0" clip-path="url(#pfe88655bed)" style="fill:none;stroke:#7f7f7f;stroke-width:1.5;stroke-linecap:square"/><path id="line2d_33" d="m219.337 306.428 2.301-.04 2.378-.504 2.378-.437 2.301-.067 2.378-.053 2.3-.04 2.378-.04 2.378-.066 2.148-.172 2.378-.2 2.3-.092 2.378-.12 2.301-.119 2.378-.106 2.378-.12 2.3-.795 2.379-.107 2.3-.172 2.378-.186 2.378-.212 2.224-.226 2.378-.106 2.301-.305 2.378-.862 2.3-.226 2.379-.146 2.377-.477 2.301-.345 2.378-.226 2.301-.411 2.378-.372 2.378-.265 2.147-.411 2.378-.451 2.301-.81 2.378-.623 2.3-.491 2.379-.876 2.377-.743 2.301-.45 2.378-.465 2.301-.597 2.378-.703 2.378-.995 2.147-.703 2.378-.982 2.3-.717 2.379-.77 2.3-.65 2.378-.503 2.378-.57 2.301-.624 2.378-.81 2.301-.61 2.378-.597 2.377-.637 2.148-.637 2.378-.822 2.3-.916 2.379-.663 2.3-.597 2.378-.889 2.378-.73 2.301-.756 2.378-.862 2.3-.57 2.379-.611 2.377-.77 2.225-.596 2.377-.743 2.301-.677 2.378-.902 2.301-.61 2.378-.584 2.378-.637 2.3-.663 2.378-.89 2.301-.716 2.378-.875 2.378-.836 2.147-.796 2.378-.677 2.301-.53 2.378-.903 2.301-.73 2.378-.742 2.377-.863 2.302-.57 2.377-.982 2.301-.823 2.378-.915 2.378-.902 2.147-.73 2.378-1.167 2.301-.956 2.378-.782 2.3-.69 2.379-.929 2.377-.822 2.301-.916 2.378-.876" clip-path="url(#pfe88655bed)" style="fill:none;stroke:#e377c2;stroke-width:1.5;stroke-linecap:square"/><path id="line2d_34" d="m98.073 306.428 2.148-.358 21.093-.252 27.995-.411 14.037-.212 16.414-.093 4.525-.027 23.47-1.128 13.883-.995 4.756-.371 13.883-1.54 11.735-1.71 4.679-.73 4.679-.637 6.98-1.42 7.056-1.061 4.679-.862 14.113-2.375 2.147-1.008 9.358-2.389 14.113-2.653 9.204-1.897 14.113-2.428 9.204-2.64 7.057-2.773 4.678-1.552 14.113-5.055 2.225-.65 2.377-.929 2.301-1.074 2.378-1.327 4.679-1.791 2.378-.942 4.678-1.473 2.301-1.18 4.756-2.017 2.147-.637 2.378-1.168 6.98-2.958 2.378-.796 2.377-1.181 4.68-1.897 2.3-1.154 2.378-1.062 2.378-.928 4.525-2.561 2.301-1.446 4.679-2.362 2.378-1.433 7.056-3.635h0" clip-path="url(#pfe88655bed)" style="fill:none;stroke:#8c564b;stroke-width:1.5;stroke-linecap:square"/><path id="line2d_35" d="m382.787 306.428 2.301-8.504 2.378-1.194 2.301-.212 2.378-.319 2.378-.318 2.3-2.415 2.378-4.192 2.301-3.423 2.378-.849 2.378-3.237 2.147-.955 2.378-3.131 2.301-1.765 2.378-1.539 2.301-1.366 2.378-25.779 2.377-3.913 2.302-2.455 2.377-3.741 2.301-4.67 2.378-3.622 2.378-1.725 2.147-3.038 2.378-3.277 2.301-5.519 2.378-3.741 2.3-2.707 2.379-4.312 2.377-3.542 2.301-2.614 2.378-2.348" clip-path="url(#pfe88655bed)" style="fill:none;stroke:#9467bd;stroke-width:1.5;stroke-linecap:square"/><path id="line2d_36" d="m186.663 306.428 2.3-1.738 2.379-1.75 2.3-.266 2.378-.186 2.378-.172 2.301-.133 2.378-.663 2.3-.704 2.379-.636 2.377-.438 2.148-.345 2.378-.372 2.3-.636 2.378-.77 2.301-.279 2.378-.53 2.378-.465 2.301-.716 2.378-.504 2.3-.438 2.378-.385 2.378-.57 2.148-.478 2.378-1.008 2.3-.756 2.378-1.765 2.301-.81 2.378-.941 2.378-1.592 2.3-2.269 2.379-1.99 2.3-1.366 2.378-1.022 2.378-1.46 2.224-.915 2.378-1.5 2.301-1.313 2.378-1.26 2.3-1.327 2.379-1.114 2.377-1.367 2.301-1.592 2.378-1.353 2.301-1.366 2.378-3.277 2.378-1.831 2.147-1.367 2.378-7.058 2.301-2.229 2.378-2.189 2.3-1.273 2.379-1.818 2.377-1.128 2.301-1.088 2.378-1.26 2.301-1.327 2.378-1.021 2.378-1.062 2.147-1.1 2.378-1.553 2.3-1.526 2.379-.716 2.3-1.353 2.378-.942 2.378-1.062 2.301-1.035 2.378-.822 2.301-.916 2.378-.902 2.377-1.021 2.148-.982 2.378-.982 2.3-1.619 2.379-1.286 2.3-.717 2.378-.942 2.378-.743 2.301-1.048 2.378-.862 2.3-.73 2.379-.929 2.377-.73 2.225-.663 2.377-.796 2.301-.69 2.378-.65 2.301-.623 2.378-.703 2.378-.717 2.3-.756 2.378-.544 2.301-.783 2.378-.73 2.378-.557 2.147-.544 2.378-.782 2.301-.624 2.378-.557 2.301-.584 2.378-.968 2.377-.584 2.302-.53 2.377-.85 2.301-.398 2.378-.464 2.378-.491 2.147-.425 2.378-.331 2.301-.332 2.378-.451 2.3-.504 2.379-.558 2.377-.543 2.301-.399 2.378-.318" clip-path="url(#pfe88655bed)" style="fill:none;stroke:#d62728;stroke-width:1.5;stroke-linecap:square"/><path id="line2d_37" d="m126.069 306.428 2.148-5.214 7.056-.437 25.695-.982 16.414-.186h4.755l4.526-.385 4.679-.583 9.357-.969 4.679-.783 9.28-1.34 25.619-3.953 2.378-1.062 2.3-.65 14.114-2.72 2.3-1.18 2.378-1.009 4.602-1.114 2.378-.929 2.301-.57 2.378-.863 9.357-2.746 11.582-3.383 4.68-1.605 2.377-.465 2.3-.583 2.379-.73 2.377-.544 4.679-1.977 2.301-.982 2.378-.756 2.378-.889 6.826-2.972 2.378-.862 2.3-1.234 2.378-.77 2.378-1.127 4.679-1.632 2.301-1.327 6.903-3.449 7.057-4.232 2.3-.81 2.378-1.366 2.378-1.526 2.301-1.313 2.378-1.486 4.679-2.56 4.602-2.27 2.377-1.71 2.301-1.447 2.378-2.03 2.301-1.539 7.057-3.648 2.377-2.123 4.68-3.131 2.377-1.353 2.147-1.075 4.68-2.826 9.433-6.315 4.68-2.48 2.3-1.62 2.378-1.3 2.378-1.539 2.147-1.605 4.68-3.078 2.377-1.804 2.3-1.486 4.756-3.503 2.301-1.353 2.378-1.751h0" clip-path="url(#pfe88655bed)" style="fill:none;stroke:#2ca02c;stroke-width:1.5;stroke-linecap:square"/><path id="line2d_38" d="m429.498 306.428 2.378-59.768 2.378-14.103 2.147-7.39 2.378-6.487 2.301-9.3 2.378-7.563 2.3-5.89 2.379-4.551 2.377-7.284 2.301-8.133 2.378-83.078" clip-path="url(#pfe88655bed)" style="fill:none;stroke:#ff7f0e;stroke-width:1.5;stroke-linecap:square"/><path id="line2d_39" d="m219.337 306.428 2.301-.08 2.378-.012h2.378l2.301-.04 2.378-.067 2.3-.013 2.378-.04 2.378-.013 2.148-.026 2.378-26.906 2.3-3.171 2.378-1.3 2.301-1.659 2.378-1.247 2.378-.77 2.3-6.42 2.379-1.845 2.3-2.003 2.378-1.26 2.378-1.26 2.224-1.075 2.378-1.738 2.301-1.3 2.378-1.54 2.3-1.724 2.379-1.685 2.377-1.513 2.301-1.486 2.378-2.096 2.301-1.764 2.378-2.667 2.378-2.03 2.147-3.502 2.378-3.304 2.301-2.547 2.378-2.269 2.3-1.844 2.379-2.534 2.377-2.295 2.301-2.521 2.378-3.038 2.301-3.582 2.378-2.707 2.378-2.958 2.147-2.826 2.378-3.304 2.3-3.224 2.379-3.237 2.3-3.104 2.378-4.073 2.378-3.025 2.301-4.471 2.378-2.322 2.301-2.547 2.378-3.052 2.377-3.303 2.148-3.304 2.378-3.82 2.3-4.034 2.379-3.82 2.3-3.172 2.378-3.051 2.378-2.667 2.301-2.627 2.378-6.965 2.3-3.808 2.379-3.13 2.377-2.19 2.225-2.149 2.377-2.428 2.301-2.614 2.378-2.653 2.301-2.587 2.378-2.202 2.378-2.614 2.3-2.441 2.378-2.15 2.301-2.759 2.378-3.29 2.378-2.07 2.147-1.778 2.378-2.666 2.301-2.23 2.378-2.095 2.301-2.415 2.378-2.773 2.377-2.348 2.302-2.123 2.377-2.255 2.301-2.136 2.378-2.614 2.378-2.813 2.147-2.72 2.378-2.666 2.301-2.6 2.378-2.893 2.3-2.64 2.379-2.998 2.377-2.866 2.301-3.078 2.378-2.52" clip-path="url(#pfe88655bed)" style="fill:none;stroke:#1f77b4;stroke-width:1.5;stroke-linecap:square"/></g></g><defs><clipPath id="pfe88655bed"><path d="M98.073 40.316h357.12v266.112H98.073z"/></clipPath></defs></svg>