<svg xmlns="http://www.w3.org/2000/svg" xmlns:xlink="http://www.w3.org/1999/xlink" width="873.479" height="438.081" viewBox="0 0 655.109 328.561"><defs><style>*{stroke-linejoin:round;stroke-linecap:butt}</style></defs><g id="figure_1"><path id="patch_1" d="M0 328.56h655.109V0H0v328.56z" style="fill:none"/><g id="axes_1"><path id="patch_2" d="M98.073 285.034h357.12V18.922H98.073v266.112z" style="fill:none"/><g id="matplotlib.axis_1"><g id="xtick_1"><g id="line2d_1"><defs><path id="m999dfcd05f" d="M0 0v3.5" style="stroke:#b0b0b0;stroke-width:.4"/></defs><use xlink:href="#m999dfcd05f" x="106.067" y="285.034" style="fill:#b0b0b0;stroke:#b0b0b0;stroke-width:.4"/></g><g id="text_1" style="fill:#b0b0b0" transform="matrix(.14 0 0 -.14 88.252 302.671)"><defs><path id="DejaVuSans-32" d="M1228 531h2203V0H469v531q359 372 979 998 621 627 780 809 303 340 423 576 121 236 121 464 0 372-261 606-261 235-680 235-297 0-627-103-329-103-704-313v638q381 153 712 231 332 78 607 78 725 0 1156-363 431-362 431-968 0-288-108-546-107-257-392-607-78-91-497-524-418-433-1181-1211z" transform="scale(.01563)"/><path id="DejaVuSans-30" d="M2034 4250q-487 0-733-480-245-479-245-1442 0-959 245-1439 246-480 733-480 491 0 736 480 246 480 246 1439 0 963-246 1442-245 480-736 480zm0 500q785 0 1199-621 414-620 414-1801 0-1178-414-1799Q2819-91 2034-91q-784 0-1198 620-414 621-414 1799 0 1181 414 1801 414 621 1198 621z" transform="scale(.01563)"/><path id="DejaVuSans-31" d="M794 531h1031v3560L703 3866v575l1116 225h631V531h1031V0H794v531z" transform="scale(.01563)"/></defs><use xlink:href="#DejaVuSans-32"/><use xlink:href="#DejaVuSans-30" x="63.623"/><use xlink:href="#DejaVuSans-31" x="127.246"/><use xlink:href="#DejaVuSans-32" x="190.869"/></g></g><g id="xtick_2"><use xlink:href="#m999dfcd05f" id="line2d_2" x="169.584" y="285.034" style="fill:#b0b0b0;stroke:#b0b0b0;stroke-width:.4"/><g id="text_2" style="fill:#b0b0b0" transform="matrix(.14 0 0 -.14 151.769 302.671)"><defs><path id="DejaVuSans-34" d="M2419 4116 825 1625h1594v2491zm-166 550h794V1625h666v-525h-666V0h-628v1100H313v609l1940 2957z" transform="scale(.01563)"/></defs><use xlink:href="#DejaVuSans-32"/><use xlink:href="#DejaVuSans-30" x="63.623"/><use xlink:href="#DejaVuSans-31" x="127.246"/><use xlink:href="#DejaVuSans-34" x="190.869"/></g></g><g id="xtick_3"><use xlink:href="#m999dfcd05f" id="line2d_3" x="233.014" y="285.034" style="fill:#b0b0b0;stroke:#b0b0b0;stroke-width:.4"/><g id="text_3" style="fill:#b0b0b0" transform="matrix(.14 0 0 -.14 215.2 302.671)"><defs><path id="DejaVuSans-36" d="M2113 2584q-425 0-674-291-248-290-248-796 0-503 248-796 249-292 674-292t673 292q248 293 248 796 0 506-248 796-248 291-673 291zm1253 1979v-575q-238 112-480 171-242 60-480 60-625 0-955-422-329-422-376-1275 184 272 462 417 279 145 613 145 703 0 1111-427 408-426 408-1160 0-719-425-1154Q2819-91 2113-91q-810 0-1238 620-428 621-428 1799 0 1106 525 1764t1409 658q238 0 480-47t505-140z" transform="scale(.01563)"/></defs><use xlink:href="#DejaVuSans-32"/><use xlink:href="#DejaVuSans-30" x="63.623"/><use xlink:href="#DejaVuSans-31" x="127.246"/><use xlink:href="#DejaVuSans-36" x="190.869"/></g></g><g id="xtick_4"><use xlink:href="#m999dfcd05f" id="line2d_4" x="296.531" y="285.034" style="fill:#b0b0b0;stroke:#b0b0b0;stroke-width:.4"/><g id="text_4" style="fill:#b0b0b0" transform="matrix(.14 0 0 -.14 278.716 302.671)"><defs><path id="DejaVuSans-38" d="M2034 2216q-450 0-708-241-257-241-257-662 0-422 257-663 258-241 708-241t709 242q260 243 260 662 0 421-258 662-257 241-711 241zm-631 268q-406 100-633 378-226 279-226 679 0 559 398 884 399 325 1092 325 697 0 1094-325t397-884q0-400-227-679-226-278-629-378 456-106 710-416 255-309 255-755 0-679-414-1042Q2806-91 2034-91q-771 0-1186 362-414 363-414 1042 0 446 256 755 257 310 713 416zm-231 997q0-362 226-565 227-203 636-203 407 0 636 203 230 203 230 565 0 363-230 566-229 203-636 203-409 0-636-203-226-203-226-566z" transform="scale(.01563)"/></defs><use xlink:href="#DejaVuSans-32"/><use xlink:href="#DejaVuSans-30" x="63.623"/><use xlink:href="#DejaVuSans-31" x="127.246"/><use xlink:href="#DejaVuSans-38" x="190.869"/></g></g><g id="xtick_5"><use xlink:href="#m999dfcd05f" id="line2d_5" x="359.961" y="285.034" style="fill:#b0b0b0;stroke:#b0b0b0;stroke-width:.4"/><g id="text_5" style="fill:#b0b0b0" transform="matrix(.14 0 0 -.14 342.146 302.671)"><use xlink:href="#DejaVuSans-32"/><use xlink:href="#DejaVuSans-30" x="63.623"/><use xlink:href="#DejaVuSans-32" x="127.246"/><use xlink:href="#DejaVuSans-30" x="190.869"/></g></g><g id="xtick_6"><use xlink:href="#m999dfcd05f" id="line2d_6" x="423.478" y="285.034" style="fill:#b0b0b0;stroke:#b0b0b0;stroke-width:.4"/><g id="text_6" style="fill:#b0b0b0" transform="matrix(.14 0 0 -.14 405.663 302.671)"><use xlink:href="#DejaVuSans-32"/><use xlink:href="#DejaVuSans-30" x="63.623"/><use xlink:href="#DejaVuSans-32" x="127.246"/><use xlink:href="#DejaVuSans-32" x="190.869"/></g></g></g><g id="matplotlib.axis_2"><g id="ytick_1"><path id="line2d_7" d="M98.073 285.034h357.12" clip-path="url(#p1f0a9f37c6)" style="fill:none;stroke:#b0b0b0;stroke-width:.3;stroke-linecap:square"/><g id="line2d_8"><defs><path id="mb674acbc15" d="M0 0h-3.5" style="stroke:#b0b0b0;stroke-width:.3"/></defs><use xlink:href="#mb674acbc15" x="98.073" y="285.034" style="fill:#b0b0b0;stroke:#b0b0b0;stroke-width:.3"/></g><use xlink:href="#DejaVuSans-30" id="text_7" style="fill:#b0b0b0" transform="matrix(.14 0 0 -.14 82.166 290.352)"/></g><g id="ytick_2"><path id="line2d_9" d="M98.073 250.184h357.12" clip-path="url(#p1f0a9f37c6)" style="fill:none;stroke:#b0b0b0;stroke-width:.3;stroke-linecap:square"/><use xlink:href="#mb674acbc15" id="line2d_10" x="98.073" y="250.184" style="fill:#b0b0b0;stroke:#b0b0b0;stroke-width:.3"/><g id="text_8" style="fill:#b0b0b0" transform="matrix(.14 0 0 -.14 55.443 255.503)"><use xlink:href="#DejaVuSans-31"/><use xlink:href="#DejaVuSans-30" x="63.623"/><use xlink:href="#DejaVuSans-30" x="127.246"/><use xlink:href="#DejaVuSans-30" x="190.869"/></g></g><g id="ytick_3"><path id="line2d_11" d="M98.073 215.334h357.12" clip-path="url(#p1f0a9f37c6)" style="fill:none;stroke:#b0b0b0;stroke-width:.3;stroke-linecap:square"/><use xlink:href="#mb674acbc15" id="line2d_12" x="98.073" y="215.334" style="fill:#b0b0b0;stroke:#b0b0b0;stroke-width:.3"/><g id="text_9" style="fill:#b0b0b0" transform="matrix(.14 0 0 -.14 55.443 220.653)"><use xlink:href="#DejaVuSans-32"/><use xlink:href="#DejaVuSans-30" x="63.623"/><use xlink:href="#DejaVuSans-30" x="127.246"/><use xlink:href="#DejaVuSans-30" x="190.869"/></g></g><g id="ytick_4"><path id="line2d_13" d="M98.073 180.485h357.12" clip-path="url(#p1f0a9f37c6)" style="fill:none;stroke:#b0b0b0;stroke-width:.3;stroke-linecap:square"/><use xlink:href="#mb674acbc15" id="line2d_14" x="98.073" y="180.485" style="fill:#b0b0b0;stroke:#b0b0b0;stroke-width:.3"/><g id="text_10" style="fill:#b0b0b0" transform="matrix(.14 0 0 -.14 55.443 185.803)"><defs><path id="DejaVuSans-33" d="M2597 2516q453-97 707-404 255-306 255-756 0-690-475-1069Q2609-91 1734-91q-293 0-604 58T488 141v609q262-153 574-231 313-78 654-78 593 0 904 234t311 681q0 413-289 645-289 233-804 233h-544v519h569q465 0 712 186t247 536q0 359-255 551-254 193-729 193-260 0-557-57-297-56-653-174v562q360 100 674 150t592 50q719 0 1137-327 419-326 419-882 0-388-222-655t-631-370z" transform="scale(.01563)"/></defs><use xlink:href="#DejaVuSans-33"/><use xlink:href="#DejaVuSans-30" x="63.623"/><use xlink:href="#DejaVuSans-30" x="127.246"/><use xlink:href="#DejaVuSans-30" x="190.869"/></g></g><g id="ytick_5"><path id="line2d_15" d="M98.073 145.635h357.12" clip-path="url(#p1f0a9f37c6)" style="fill:none;stroke:#b0b0b0;stroke-width:.3;stroke-linecap:square"/><use xlink:href="#mb674acbc15" id="line2d_16" x="98.073" y="145.635" style="fill:#b0b0b0;stroke:#b0b0b0;stroke-width:.3"/><g id="text_11" style="fill:#b0b0b0" transform="matrix(.14 0 0 -.14 55.443 150.954)"><use xlink:href="#DejaVuSans-34"/><use xlink:href="#DejaVuSans-30" x="63.623"/><use xlink:href="#DejaVuSans-30" x="127.246"/><use xlink:href="#DejaVuSans-30" x="190.869"/></g></g><g id="ytick_6"><path id="line2d_17" d="M98.073 110.785h357.12" clip-path="url(#p1f0a9f37c6)" style="fill:none;stroke:#b0b0b0;stroke-width:.3;stroke-linecap:square"/><use xlink:href="#mb674acbc15" id="line2d_18" x="98.073" y="110.785" style="fill:#b0b0b0;stroke:#b0b0b0;stroke-width:.3"/><g id="text_12" style="fill:#b0b0b0" transform="matrix(.14 0 0 -.14 55.443 116.104)"><defs><path id="DejaVuSans-35" d="M691 4666h2478v-532H1269V2991q137 47 274 70 138 23 276 23 781 0 1237-428 457-428 457-1159 0-753-469-1171Q2575-91 1722-91q-294 0-599 50Q819 9 494 109v635q281-153 581-228t634-75q541 0 856 284 316 284 316 772 0 487-316 771-315 285-856 285-253 0-505-56-251-56-513-175v2344z" transform="scale(.01563)"/></defs><use xlink:href="#DejaVuSans-35"/><use xlink:href="#DejaVuSans-30" x="63.623"/><use xlink:href="#DejaVuSans-30" x="127.246"/><use xlink:href="#DejaVuSans-30" x="190.869"/></g></g><g id="ytick_7"><path id="line2d_19" d="M98.073 75.936h357.12" clip-path="url(#p1f0a9f37c6)" style="fill:none;stroke:#b0b0b0;stroke-width:.3;stroke-linecap:square"/><use xlink:href="#mb674acbc15" id="line2d_20" x="98.073" y="75.936" style="fill:#b0b0b0;stroke:#b0b0b0;stroke-width:.3"/><g id="text_13" style="fill:#b0b0b0" transform="matrix(.14 0 0 -.14 55.443 81.254)"><use xlink:href="#DejaVuSans-36"/><use xlink:href="#DejaVuSans-30" x="63.623"/><use xlink:href="#DejaVuSans-30" x="127.246"/><use xlink:href="#DejaVuSans-30" x="190.869"/></g></g><g id="ytick_8"><path id="line2d_21" d="M98.073 41.086h357.12" clip-path="url(#p1f0a9f37c6)" style="fill:none;stroke:#b0b0b0;stroke-width:.3;stroke-linecap:square"/><use xlink:href="#mb674acbc15" id="line2d_22" x="98.073" y="41.086" style="fill:#b0b0b0;stroke:#b0b0b0;stroke-width:.3"/><g id="text_14" style="fill:#b0b0b0" transform="matrix(.14 0 0 -.14 55.443 46.405)"><defs><path id="DejaVuSans-37" d="M525 4666h3000v-269L1831 0h-659l1594 4134H525v532z" transform="scale(.01563)"/></defs><use xlink:href="#DejaVuSans-37"/><use xlink:href="#DejaVuSans-30" x="63.623"/><use xlink:href="#DejaVuSans-30" x="127.246"/><use xlink:href="#DejaVuSans-30" x="190.869"/></g></g><g id="text_15" style="fill:#b0b0b0" transform="matrix(.14 0 0 -.14 7.2 11.563)"><defs><path id="DejaVuSans-47" d="M3809 666v1253H2778v519h1656V434q-365-259-806-392-440-133-940-133-1094 0-1712 639-617 640-617 1780 0 1144 617 1783 618 639 1712 639 456 0 867-113 411-112 758-331v-672q-350 297-744 447t-828 150q-857 0-1287-478-429-478-429-1425 0-944 429-1422 430-478 1287-478 334 0 596 58 263 58 472 180z" transform="scale(.01563)"/><path id="DejaVuSans-69" d="M603 3500h575V0H603v3500zm0 1363h575v-729H603v729z" transform="scale(.01563)"/><path id="DejaVuSans-74" d="M1172 4494v-994h1184v-447H1172V1153q0-428 117-550t477-122h590V0h-590q-666 0-919 248-253 249-253 905v1900H172v447h422v994h578z" transform="scale(.01563)"/><path id="DejaVuSans-48" d="M628 4666h631V2753h2294v1913h631V0h-631v2222H1259V0H628v4666z" transform="scale(.01563)"/><path id="DejaVuSans-75" d="M544 1381v2119h575V1403q0-497 193-746 194-248 582-248 465 0 735 297 271 297 271 810v1984h575V0h-575v538q-209-319-486-474-276-155-642-155-603 0-916 375-312 375-312 1097zm1447 2203z" transform="scale(.01563)"/><path id="DejaVuSans-62" d="M3116 1747q0 634-261 995t-717 361q-457 0-718-361t-261-995q0-634 261-995t718-361q456 0 717 361t261 995zM1159 2969q182 312 458 463 277 152 661 152 638 0 1036-506 399-506 399-1331T3314 415Q2916-91 2278-91q-384 0-661 152-276 152-458 464V0H581v4863h578V2969z" transform="scale(.01563)"/><path id="DejaVuSans-73" d="M2834 3397v-544q-243 125-506 187-262 63-544 63-428 0-642-131t-214-394q0-200 153-314t616-217l197-44q612-131 870-370t258-667q0-488-386-773Q2250-91 1575-91q-281 0-586 55T347 128v594q319-166 628-249 309-82 613-82 406 0 624 139 219 139 219 392 0 234-158 359-157 125-692 241l-200 47q-534 112-772 345-237 233-237 639 0 494 350 762 350 269 994 269 318 0 599-47 282-46 519-140z" transform="scale(.01563)"/><path id="DejaVuSans-61" d="M2194 1759q-697 0-966-159t-269-544q0-306 202-486 202-179 548-179 479 0 768 339t289 901v128h-572zm1147 238V0h-575v531q-197-318-491-470T1556-91q-537 0-855 302-317 302-317 808 0 590 395 890 396 300 1180 300h807v57q0 397-261 614t-733 217q-300 0-585-72-284-72-546-216v532q315 122 612 182 297 61 578 61 760 0 1135-394 375-393 375-1193z" transform="scale(.01563)"/><path id="DejaVuSans-72" d="M2631 2963q-97 56-211 82-114 27-251 27-488 0-749-317t-261-911V0H581v3500h578v-544q182 319 472 473 291 155 707 155 59 0 131-8 72-7 159-23l3-590z" transform="scale(.01563)"/></defs><use xlink:href="#DejaVuSans-47"/><use xlink:href="#DejaVuSans-69" x="77.49"/><use xlink:href="#DejaVuSans-74" x="105.273"/><use xlink:href="#DejaVuSans-48" x="144.482"/><use xlink:href="#DejaVuSans-75" x="219.678"/><use xlink:href="#DejaVuSans-62" x="283.057"/><use xlink:href="#DejaVuSans-20" x="346.533"/><use xlink:href="#DejaVuSans-73" x="378.32"/><use xlink:href="#DejaVuSans-74" x="430.42"/><use xlink:href="#DejaVuSans-61" x="469.629"/><use xlink:href="#DejaVuSans-72" x="530.908"/><use xlink:href="#DejaVuSans-73" x="572.021"/></g></g><path id="line2d_23" d="m330.94 285.034 2.433-.314 2.693-.349 2.607-.174 2.694-.174 2.606-.07 2.694-.07 2.693-.034 2.607-.244 2.694-.314 2.607-.14 2.693-.174 2.694-.07 2.52-.069 2.693-.07 2.607-.244 2.693-.07 2.607-.139 2.694-.035 2.693-.07 2.607-.034h2.694l2.606-.174h2.694l2.694-.035h2.433l2.693-.035h2.607l2.694-.07h2.606l2.694-.035 2.693-.035 2.607-.034 2.694-.035h10.427l2.693-.07 2.607-.035h2.694l2.606-.035 2.694-.034 2.693-.035h2.607l2.694-.035 2.607-.035h2.693" clip-path="url(#p1f0a9f37c6)" style="fill:none;stroke:#7f7f7f;stroke-width:1.5;stroke-linecap:square"/><path id="line2d_24" d="m317.645 285.034 2.607-.07 2.694-.244 2.606-.174 2.694-.349 2.694-.174 2.433-.174 2.693-.105 2.607-.07 2.694-.174 2.606-.14 2.694-.174 2.693-.104 2.607-.035 2.694-.035 2.607-.14 2.693-.104 2.694-.279 2.52-.139 2.693-.104 2.607-.07 2.693-.035 2.607-.14 2.694-.07 2.693-.243 2.607-.035 2.694-.035 2.606-.035 2.694-.209 2.694-.244 2.433-.104 2.693-.174 2.607-.21 2.694-.139 2.606-.07 2.694-.453 2.693-.07 2.607-.208h2.694l2.606-.21 2.694-.139 2.694-.14 2.433-.07 2.693-.208 2.607-.14 2.694-.139 2.606-.14 2.694-.034 2.693-.035 2.607-.035 2.694-.209 2.607-.174 2.693-.035" clip-path="url(#p1f0a9f37c6)" style="fill:none;stroke:#e377c2;stroke-width:1.5;stroke-linecap:square"/><path id="line2d_25" d="m283.237 285.034 2.693-.941 2.607-.035 2.694-.349 2.606-.662h2.694l2.694-.035h2.433l2.693-.035 2.607-.07 2.694-.069 2.606-.035h2.694l2.693-.07 2.607-.07h2.694l2.606-.069 2.694-.07 2.694-.035 2.433-.139 2.693-.14 2.607-.069 2.694-.035h2.606l2.694-.035 2.693-.035 2.607-.034 2.694-.07 2.607-.07 2.693-.035 2.694-.07 2.52-.034 2.693-.105 2.607-.104 2.693-.175 2.607-.104h2.694l2.693-.035h2.607l2.694-.105 2.606-.139 2.694-.14 2.694-.104 2.433-.244 2.693-.104 2.607-.175 2.694-.104 2.606-.244 2.694-.07 2.693-.174 2.607-.244 2.694-.105 2.606-.07 2.694-.104 2.694-.313 2.433-.14 2.693-.104 2.607-.244 2.694-.035 2.606-.07 2.694-.209 2.693-.105h2.607l2.694-.174 2.607-.209 2.693-.314" clip-path="url(#p1f0a9f37c6)" style="fill:none;stroke:#8c564b;stroke-width:1.5;stroke-linecap:square"/><g id="text_16" style="fill:#1f77b4" transform="matrix(.14 0 0 -.14 465.907 22.785)"><defs><path id="DejaVuSans-6f" d="M1959 3097q-462 0-731-361t-269-989q0-628 267-989 268-361 733-361 460 0 728 362 269 363 269 988 0 622-269 986-268 364-728 364zm0 487q750 0 1178-488 429-487 429-1349 0-859-429-1349Q2709-91 1959-91q-753 0-1180 489-426 490-426 1349 0 862 426 1349 427 488 1180 488z" transform="scale(.01563)"/><path id="DejaVuSans-66" d="M2375 4863v-479h-550q-309 0-430-125-120-125-120-450v-309h947v-447h-947V0H697v3053H147v447h550v244q0 584 272 851 272 268 862 268h544z" transform="scale(.01563)"/><path id="DejaVuSans-63" d="M3122 3366v-538q-244 135-489 202t-495 67q-560 0-870-355-309-354-309-995t309-996q310-354 870-354 250 0 495 67t489 202V134Q2881 22 2623-34q-257-57-548-57-791 0-1257 497-465 497-465 1341 0 856 470 1346 471 491 1290 491 265 0 518-55 253-54 491-163z" transform="scale(.01563)"/><path id="DejaVuSans-6c" d="M603 4863h575V0H603v4863z" transform="scale(.01563)"/><path id="DejaVuSans-2d" d="M313 2009h1684v-512H313v512z" transform="scale(.01563)"/><path id="DejaVuSans-6b" d="M581 4863h578V1991l1716 1509h734L1753 1863 3688 0h-750L1159 1709V0H581v4863z" transform="scale(.01563)"/><path id="DejaVuSans-68" d="M3513 2113V0h-575v2094q0 497-194 743-194 247-581 247-466 0-735-297-269-296-269-809V0H581v4863h578V2956q207 316 486 472 280 156 646 156 603 0 912-373 310-373 310-1098z" transform="scale(.01563)"/><path id="DejaVuSans-2f" d="M1625 4666h531L531-594H0l1625 5260z" transform="scale(.01563)"/><path id="DejaVuSans-53" d="M3425 4513v-616q-359 172-678 256-319 85-616 85-515 0-795-200t-280-569q0-310 186-468 186-157 705-254l381-78q706-135 1042-474t336-907q0-679-455-1029Q2797-91 1919-91q-331 0-705 75-373 75-773 222v650q384-215 753-325 369-109 725-109 540 0 834 212 294 213 294 607 0 343-211 537t-692 291l-385 75q-706 140-1022 440-315 300-315 835 0 619 436 975t1201 356q329 0 669-60 341-59 697-177z" transform="scale(.01563)"/></defs><use xlink:href="#DejaVuSans-6f"/><use xlink:href="#DejaVuSans-66" x="61.182"/><use xlink:href="#DejaVuSans-66" x="96.387"/><use xlink:href="#DejaVuSans-69" x="131.592"/><use xlink:href="#DejaVuSans-63" x="159.375"/><use xlink:href="#DejaVuSans-69" x="214.355"/><use xlink:href="#DejaVuSans-61" x="242.139"/><use xlink:href="#DejaVuSans-6c" x="303.418"/><use xlink:href="#DejaVuSans-2d" x="331.201"/><use xlink:href="#DejaVuSans-73" x="367.285"/><use xlink:href="#DejaVuSans-74" x="419.385"/><use xlink:href="#DejaVuSans-6f" x="458.594"/><use xlink:href="#DejaVuSans-63" x="519.775"/><use xlink:href="#DejaVuSans-6b" x="574.756"/><use xlink:href="#DejaVuSans-66" x="632.666"/><use xlink:href="#DejaVuSans-69" x="667.871"/><use xlink:href="#DejaVuSans-73" x="695.654"/><use xlink:href="#DejaVuSans-68" x="747.754"/><use xlink:href="#DejaVuSans-2f" x="811.133"/><use xlink:href="#DejaVuSans-53" x="844.824"/><use xlink:href="#DejaVuSans-74" x="908.301"/><use xlink:href="#DejaVuSans-6f" x="947.51"/><use xlink:href="#DejaVuSans-63" x="1008.691"/><use xlink:href="#DejaVuSans-6b" x="1063.672"/><use xlink:href="#DejaVuSans-66" x="1121.582"/><use xlink:href="#DejaVuSans-69" x="1156.787"/><use xlink:href="#DejaVuSans-73" x="1184.57"/><use xlink:href="#DejaVuSans-68" x="1236.67"/></g><g id="text_17" style="fill:#ff7f0e" transform="matrix(.14 0 0 -.14 465.907 199.308)"><defs><path id="DejaVuSans-6d" d="M3328 2828q216 388 516 572t706 184q547 0 844-383 297-382 297-1088V0h-578v2094q0 503-179 746-178 244-543 244-447 0-707-297-259-296-259-809V0h-578v2094q0 506-178 748t-550 242q-441 0-701-298-259-298-259-808V0H581v3500h578v-544q197 322 472 475t653 153q382 0 649-194 267-193 395-562z" transform="scale(.01563)"/><path id="DejaVuSans-65" d="M3597 1894v-281H953q38-594 358-905t892-311q331 0 642 81t618 244V178Q3153 47 2828-22t-659-69q-838 0-1327 487-489 488-489 1320 0 859 464 1363 464 505 1252 505 706 0 1117-455 411-454 411-1235zm-575 169q-6 471-264 752-258 282-683 282-481 0-770-272t-333-766l2050 4z" transform="scale(.01563)"/><path id="DejaVuSans-6e" d="M3513 2113V0h-575v2094q0 497-194 743-194 247-581 247-466 0-735-297-269-296-269-809V0H581v3500h578v-544q207 316 486 472 280 156 646 156 603 0 912-373 310-373 310-1098z" transform="scale(.01563)"/></defs><use xlink:href="#DejaVuSans-74"/><use xlink:href="#DejaVuSans-68" x="39.209"/><use xlink:href="#DejaVuSans-6f" x="102.588"/><use xlink:href="#DejaVuSans-6d" x="163.77"/><use xlink:href="#DejaVuSans-61" x="261.182"/><use xlink:href="#DejaVuSans-73" x="322.461"/><use xlink:href="#DejaVuSans-61" x="374.561"/><use xlink:href="#DejaVuSans-68" x="435.84"/><use xlink:href="#DejaVuSans-6c" x="499.219"/><use xlink:href="#DejaVuSans-65" x="527.002"/><use xlink:href="#DejaVuSans-2f" x="588.525"/><use xlink:href="#DejaVuSans-73" x="622.217"/><use xlink:href="#DejaVuSans-75" x="674.316"/><use xlink:href="#DejaVuSans-6e" x="737.695"/><use xlink:href="#DejaVuSans-66" x="801.074"/><use xlink:href="#DejaVuSans-69" x="836.279"/><use xlink:href="#DejaVuSans-73" x="864.063"/><use xlink:href="#DejaVuSans-68" x="916.162"/></g><g id="text_18" style="fill:#2ca02c" transform="matrix(.14 0 0 -.14 465.907 213.308)"><defs><path id="DejaVuSans-4c" d="M628 4666h631V531h2272V0H628v4666z" transform="scale(.01563)"/><path id="DejaVuSans-43" d="M4122 4306v-665q-319 297-680 443-361 147-767 147-800 0-1225-489t-425-1414q0-922 425-1411t1225-489q406 0 767 147t680 444V359q-331-225-702-338-370-112-782-112-1060 0-1670 648-609 649-609 1771 0 1125 609 1773 610 649 1670 649 418 0 788-111 371-111 696-333z" transform="scale(.01563)"/><path id="DejaVuSans-5a" d="M359 4666h3666v-482L1075 531h3022V0H288v481l2950 3653H359v532z" transform="scale(.01563)"/></defs><use xlink:href="#DejaVuSans-4c"/><use xlink:href="#DejaVuSans-65" x="53.963"/><use xlink:href="#DejaVuSans-65" x="115.486"/><use xlink:href="#DejaVuSans-6c" x="177.01"/><use xlink:href="#DejaVuSans-61" x="204.793"/><use xlink:href="#DejaVuSans-43" x="266.072"/><use xlink:href="#DejaVuSans-68" x="335.896"/><use xlink:href="#DejaVuSans-65" x="399.275"/><use xlink:href="#DejaVuSans-73" x="460.799"/><use xlink:href="#DejaVuSans-73" x="512.898"/><use xlink:href="#DejaVuSans-5a" x="564.998"/><use xlink:href="#DejaVuSans-65" x="633.504"/><use xlink:href="#DejaVuSans-72" x="695.027"/><use xlink:href="#DejaVuSans-6f" x="733.891"/><use xlink:href="#DejaVuSans-2f" x="795.072"/><use xlink:href="#DejaVuSans-6c" x="828.764"/><use xlink:href="#DejaVuSans-63" x="856.547"/><use xlink:href="#DejaVuSans-30" x="911.527"/></g><g id="text_19" style="fill:#d62728" transform="matrix(.14 0 0 -.14 465.907 227.308)"><use xlink:href="#DejaVuSans-6d"/><use xlink:href="#DejaVuSans-63" x="97.412"/><use xlink:href="#DejaVuSans-6f" x="152.393"/><use xlink:href="#DejaVuSans-73" x="213.574"/><use xlink:href="#DejaVuSans-74" x="265.674"/><use xlink:href="#DejaVuSans-61" x="304.883"/><use xlink:href="#DejaVuSans-6c" x="366.162"/><use xlink:href="#DejaVuSans-62" x="393.945"/><use xlink:href="#DejaVuSans-61" x="457.422"/><use xlink:href="#DejaVuSans-2f" x="518.701"/><use xlink:href="#DejaVuSans-53" x="552.393"/><use xlink:href="#DejaVuSans-74" x="615.869"/><use xlink:href="#DejaVuSans-6f" x="655.078"/><use xlink:href="#DejaVuSans-63" x="716.26"/><use xlink:href="#DejaVuSans-6b" x="771.24"/><use xlink:href="#DejaVuSans-66" x="829.15"/><use xlink:href="#DejaVuSans-69" x="864.355"/><use xlink:href="#DejaVuSans-73" x="892.139"/><use xlink:href="#DejaVuSans-68" x="944.238"/></g><g id="text_20" style="fill:#9467bd" transform="matrix(.14 0 0 -.14 465.907 256.936)"><use xlink:href="#DejaVuSans-43"/><use xlink:href="#DejaVuSans-53" x="69.824"/><use xlink:href="#DejaVuSans-53" x="133.301"/><use xlink:href="#DejaVuSans-4c" x="196.777"/><use xlink:href="#DejaVuSans-61" x="252.49"/><use xlink:href="#DejaVuSans-62" x="313.77"/><use xlink:href="#DejaVuSans-2f" x="377.246"/><use xlink:href="#DejaVuSans-6d" x="410.938"/><use xlink:href="#DejaVuSans-61" x="508.35"/><use xlink:href="#DejaVuSans-69" x="569.629"/><use xlink:href="#DejaVuSans-61" x="597.412"/><use xlink:href="#DejaVuSans-2d" x="658.691"/><use xlink:href="#DejaVuSans-63" x="694.775"/><use xlink:href="#DejaVuSans-68" x="749.756"/><use xlink:href="#DejaVuSans-65" x="813.135"/><use xlink:href="#DejaVuSans-73" x="874.658"/><use xlink:href="#DejaVuSans-73" x="926.758"/></g><g id="text_21" style="fill:#8c564b" transform="matrix(.14 0 0 -.14 465.907 270.936)"><defs><path id="DejaVuSans-70" d="M1159 525v-1856H581v4831h578v-531q182 312 458 463 277 152 661 152 638 0 1036-506 399-506 399-1331T3314 415Q2916-91 2278-91q-384 0-661 152-276 152-458 464zm1957 1222q0 634-261 995t-717 361q-457 0-718-361t-261-995q0-634 261-995t718-361q456 0 717 361t261 995z" transform="scale(.01563)"/><path id="DejaVuSans-50" d="M1259 4147V2394h794q441 0 681 228 241 228 241 650 0 419-241 647-240 228-681 228h-794zm-631 519h1425q785 0 1186-355 402-355 402-1039 0-691-402-1044-401-353-1186-353h-794V0H628v4666z" transform="scale(.01563)"/></defs><use xlink:href="#DejaVuSans-70"/><use xlink:href="#DejaVuSans-6c" x="63.477"/><use xlink:href="#DejaVuSans-65" x="91.26"/><use xlink:href="#DejaVuSans-63" x="152.783"/><use xlink:href="#DejaVuSans-6f" x="207.764"/><use xlink:href="#DejaVuSans-2d" x="270.82"/><use xlink:href="#DejaVuSans-72" x="306.904"/><use xlink:href="#DejaVuSans-73" x="348.018"/><use xlink:href="#DejaVuSans-2f" x="400.117"/><use xlink:href="#DejaVuSans-50" x="433.809"/><use xlink:href="#DejaVuSans-6c" x="494.111"/><use xlink:href="#DejaVuSans-65" x="521.895"/><use xlink:href="#DejaVuSans-63" x="583.418"/><use xlink:href="#DejaVuSans-6f" x="638.398"/></g><g id="text_22" style="fill:#e377c2" transform="matrix(.14 0 0 -.14 465.907 284.936)"><defs><path id="DejaVuSans-51" d="M2522 4238q-688 0-1093-513-404-512-404-1397 0-881 404-1394 405-512 1093-512 687 0 1089 512 402 513 402 1394 0 885-402 1397-402 513-1089 513zM3406 84l832-909h-763L2784-78q-103-6-158-9-54-4-104-4-984 0-1574 658-589 658-589 1761 0 1106 589 1764 590 658 1574 658 981 0 1568-658 588-658 588-1764 0-812-327-1391-326-578-945-853z" transform="scale(.01563)"/><path id="DejaVuSans-7a" d="M353 3500h2731v-525L922 459h2162V0H275v525l2163 2516H353v459z" transform="scale(.01563)"/><path id="DejaVuSans-79" d="M2059-325q-243-625-475-815-231-191-618-191H506v481h338q237 0 368 113 132 112 291 531l103 262L191 3500h609L1894 763l1094 2737h609L2059-325z" transform="scale(.01563)"/><path id="DejaVuSans-41" d="m2188 4044-857-2322h1716l-859 2322zm-357 622h716L4325 0h-656l-425 1197H1141L716 0H50l1781 4666z" transform="scale(.01563)"/></defs><use xlink:href="#DejaVuSans-51"/><use xlink:href="#DejaVuSans-75" x="78.711"/><use xlink:href="#DejaVuSans-65" x="142.09"/><use xlink:href="#DejaVuSans-65" x="203.613"/><use xlink:href="#DejaVuSans-6e" x="265.137"/><use xlink:href="#DejaVuSans-73" x="328.516"/><use xlink:href="#DejaVuSans-47" x="380.615"/><use xlink:href="#DejaVuSans-61" x="458.105"/><use xlink:href="#DejaVuSans-6d" x="519.385"/><use xlink:href="#DejaVuSans-62" x="616.797"/><use xlink:href="#DejaVuSans-69" x="680.273"/><use xlink:href="#DejaVuSans-74" x="708.057"/><use xlink:href="#DejaVuSans-2f" x="747.266"/><use xlink:href="#DejaVuSans-43" x="780.957"/><use xlink:href="#DejaVuSans-72" x="850.781"/><use xlink:href="#DejaVuSans-61" x="891.895"/><use xlink:href="#DejaVuSans-7a" x="953.174"/><use xlink:href="#DejaVuSans-79" x="1005.664"/><use xlink:href="#DejaVuSans-41" x="1064.844"/><use xlink:href="#DejaVuSans-72" x="1133.252"/><use xlink:href="#DejaVuSans-61" x="1174.365"/></g><g id="text_23" style="fill:#7f7f7f" transform="matrix(.14 0 0 -.14 465.907 298.936)"><use xlink:href="#DejaVuSans-6d"/><use xlink:href="#DejaVuSans-61" x="97.412"/><use xlink:href="#DejaVuSans-6e" x="158.691"/><use xlink:href="#DejaVuSans-79" x="222.07"/><use xlink:href="#DejaVuSans-6f" x="281.25"/><use xlink:href="#DejaVuSans-73" x="342.432"/><use xlink:href="#DejaVuSans-6f" x="394.531"/><use xlink:href="#DejaVuSans-2f" x="455.713"/><use xlink:href="#DejaVuSans-61" x="489.404"/><use xlink:href="#DejaVuSans-6c" x="550.684"/><use xlink:href="#DejaVuSans-6c" x="578.467"/><use xlink:href="#DejaVuSans-69" x="606.25"/><use xlink:href="#DejaVuSans-65" x="634.033"/></g><g id="text_24" style="fill:#b0b0b0" transform="matrix(.09716 0 0 -.09716 98.073 319.07)"><defs><path id="DejaVuSans-40" d="M2381 1678q0-447 222-702 222-254 610-254 384 0 604 256 221 256 221 700 0 438-225 695-225 258-607 258-378 0-602-256-223-256-223-697zm1703-934q-187-241-429-355t-564-114q-538 0-874 389t-336 1014q0 625 337 1015 338 391 873 391 322 0 565-117 244-117 428-354v409h447V722q457 69 714 417 258 349 258 902 0 334-99 628-98 294-298 544-325 409-792 626t-1017 217q-384 0-738-102-353-101-653-301-490-319-767-836-276-517-276-1120 0-497 179-932 180-434 521-765 328-325 759-495 431-171 922-171 403 0 792 136t714 389l281-347q-390-303-851-464t-936-161q-578 0-1091 205-512 205-912 595Q841 78 631 592q-209 514-209 1105 0 569 212 1084 213 516 607 907 403 396 931 607t1119 211q662 0 1229-272 568-271 952-771 234-307 357-666 124-359 124-744 0-822-497-1297T4084 263v481z" transform="scale(.01563)"/><path id="DejaVuSans-67" d="M2906 1791q0 625-258 968-257 344-723 344-462 0-720-344-258-343-258-968 0-622 258-966t720-344q466 0 723 344 258 344 258 966zm575-1357q0-893-397-1329-396-436-1215-436-303 0-572 45t-522 139v559q253-137 500-202 247-66 503-66 566 0 847 295t281 892v285q-178-310-456-463T1784 0Q1141 0 747 490 353 981 353 1791q0 812 394 1302 394 491 1037 491 388 0 666-153t456-462v531h575V434z" transform="scale(.01563)"/><path id="DejaVuSans-64" d="M2906 2969v1894h575V0h-575v525q-181-312-458-464-276-152-664-152-634 0-1033 506-398 507-398 1332t398 1331q399 506 1033 506 388 0 664-152 277-151 458-463zM947 1747q0-634 261-995t717-361q456 0 718 361 263 361 263 995t-263 995q-262 361-718 361t-717-361q-261-361-261-995z" transform="scale(.01563)"/><path id="DejaVuSans-7c" d="M1344 4891v-6400H813v6400h531z" transform="scale(.01563)"/><path id="DejaVuSans-4e" d="M628 4666h850L3547 763v3903h612V0h-850L1241 3903V0H628v4666z" transform="scale(.01563)"/><path id="DejaVuSans-f6" d="M1959 3097q-462 0-731-361t-269-989q0-628 267-989 268-361 733-361 460 0 728 362 269 363 269 988 0 622-269 986-268 364-728 364zm0 487q750 0 1178-488 429-487 429-1349 0-859-429-1349Q2709-91 1959-91q-753 0-1180 489-426 490-426 1349 0 862 426 1349 427 488 1180 488zm295 1266h634v-631h-634v631zm-1222 0h634v-631h-634v631z" transform="scale(.01563)"/><path id="DejaVuSans-42" d="M1259 2228V519h1013q509 0 754 211 246 211 246 645 0 438-246 645-245 208-754 208H1259zm0 1919V2741h935q462 0 688 173 227 174 227 530 0 353-227 528-226 175-688 175h-935zm-631 519h1613q722 0 1112-300 391-300 391-853 0-429-200-682t-588-315q466-100 724-418 258-317 258-792 0-625-425-966Q3088 0 2303 0H628v4666z" transform="scale(.01563)"/><path id="DejaVuSans-59" d="M-13 4666h679l1293-1919 1285 1919h678L2272 2222V0h-634v2222L-13 4666z" transform="scale(.01563)"/></defs><use xlink:href="#DejaVuSans-40"/><use xlink:href="#DejaVuSans-6e" x="100"/><use xlink:href="#DejaVuSans-73" x="163.379"/><use xlink:href="#DejaVuSans-63" x="215.479"/><use xlink:href="#DejaVuSans-68" x="270.459"/><use xlink:href="#DejaVuSans-6c" x="333.838"/><use xlink:href="#DejaVuSans-6f" x="361.621"/><use xlink:href="#DejaVuSans-65" x="422.803"/><use xlink:href="#DejaVuSans-20" x="484.326"/><use xlink:href="#DejaVuSans-2f" x="516.113"/><use xlink:href="#DejaVuSans-20" x="549.805"/><use xlink:href="#DejaVuSans-67" x="581.592"/><use xlink:href="#DejaVuSans-69" x="645.068"/><use xlink:href="#DejaVuSans-74" x="672.852"/><use xlink:href="#DejaVuSans-68" x="712.061"/><use xlink:href="#DejaVuSans-75" x="775.439"/><use xlink:href="#DejaVuSans-62" x="838.818"/><use xlink:href="#DejaVuSans-2d" x="902.295"/><use xlink:href="#DejaVuSans-74" x="938.379"/><use xlink:href="#DejaVuSans-72" x="977.588"/><use xlink:href="#DejaVuSans-65" x="1016.451"/><use xlink:href="#DejaVuSans-6e" x="1077.975"/><use xlink:href="#DejaVuSans-64" x="1141.354"/><use xlink:href="#DejaVuSans-73" x="1204.83"/><use xlink:href="#DejaVuSans-20" x="1256.93"/><use xlink:href="#DejaVuSans-7c" x="1288.717"/><use xlink:href="#DejaVuSans-20" x="1322.408"/><use xlink:href="#DejaVuSans-4e" x="1354.195"/><use xlink:href="#DejaVuSans-69" x="1429"/><use xlink:href="#DejaVuSans-63" x="1456.783"/><use xlink:href="#DejaVuSans-6f" x="1511.764"/><use xlink:href="#DejaVuSans-20" x="1572.945"/><use xlink:href="#DejaVuSans-53" x="1604.732"/><use xlink:href="#DejaVuSans-63" x="1668.209"/><use xlink:href="#DejaVuSans-68" x="1723.189"/><use xlink:href="#DejaVuSans-6c" x="1786.568"/><use xlink:href="#DejaVuSans-f6" x="1814.352"/><use xlink:href="#DejaVuSans-6d" x="1875.533"/><use xlink:href="#DejaVuSans-65" x="1972.945"/><use xlink:href="#DejaVuSans-72" x="2034.469"/><use xlink:href="#DejaVuSans-20" x="2075.582"/><use xlink:href="#DejaVuSans-7c" x="2107.369"/><use xlink:href="#DejaVuSans-20" x="2141.061"/><use xlink:href="#DejaVuSans-43" x="2172.848"/><use xlink:href="#DejaVuSans-43" x="2242.672"/><use xlink:href="#DejaVuSans-20" x="2312.496"/><use xlink:href="#DejaVuSans-42" x="2344.283"/><use xlink:href="#DejaVuSans-59" x="2407.387"/></g><path id="line2d_26" d="m373.168 285.034 2.607-.14 2.694-.07 2.693-.07 2.607-.034h2.694l2.606-.21 2.694-5.052 2.694-5.228 2.433-1.045 2.693-.906 2.607-.523 2.694-.767 2.606-.627 2.694-1.708 2.693-.767 2.607-.697 2.694-.662 2.606-.418 2.694-.488 2.694-.453 2.433-.418 2.693-.732 2.607-.453 2.694-.488 2.606-.418 2.694-.418 2.693-.349 2.607-.453 2.694-.906 2.607-.488 2.693-.348" clip-path="url(#p1f0a9f37c6)" style="fill:none;stroke:#9467bd;stroke-width:1.5;stroke-linecap:square"/><path id="line2d_27" d="m98.073 285.034 2.694-4.148 5.3-.348 10.514-.314 10.687-.488 13.295-.209 10.426-1.603 2.607-.209 2.694-.418 2.693-.279 5.3-.94 2.607-1.743 5.388-1.43 2.433-.731 2.693-.941 5.3-1.045 2.607-3.311L196 265.622l5.3-.976 5.127-.801 2.693-.244 2.607-.453 5.3-.523 5.387-.627 2.607-.21 10.688-1.533 2.52-.174 2.693-.488 5.3-.592 2.607-.349 2.694-.209 2.693-.453 2.607-.313 15.814-3.172 18.595-1.742 2.606-.488 2.694-.662 2.694-.523 5.126-.697 2.607-.732 7.994-1.115 2.693-.662 7.907-1.15 2.694-1.046 5.127-1.045 2.693-.767 2.607-.488 10.687-1.533 10.601-1.01 5.214-.733 7.993-1.707 2.607-.906 2.694-1.116 7.994-1.742 2.606-1.01 2.694-1.5 2.694-1.254 2.433-1.568 5.3-1.952 5.3-1.359 2.694-1.29 2.693-.627 2.607-.453 5.3-1.184 5.388-1.673 7.733-2.475 2.694-.592 5.3-.174 13.294-.558h0" clip-path="url(#p1f0a9f37c6)" style="fill:none;stroke:#d62728;stroke-width:1.5;stroke-linecap:square"/><path id="line2d_28" d="m309.652 285.034 2.606-.697 2.694-.976 2.693-.976 2.607-.941 2.694-.871 2.606-1.08 2.694-2.545 2.694-3.275 2.433-1.882 2.693-1.43 2.607-1.219 2.694-2.195 2.606-.837 2.694-5.367 2.693-1.185 2.607-.975 2.694-1.046 2.607-.767 2.693-1.22 2.694-.905 2.52-.941 2.693-.976 2.607-2.126 2.693-1.673 2.607-2.16 2.694-2.057 2.693-1.533 2.607-.906 2.694-1.01 2.606-1.639 2.694-1.881 2.694-1.394 2.433-1.848 2.693-1.254 2.607-1.08 2.694-1.15 2.606-1.185 2.694-.732 2.693-1.22 2.607-.871 2.694-.732 2.606-.523 2.694-1.638 2.694-1.115 2.433-.697 2.693-.697 2.607-.557 2.694-.802 2.606-.592 2.694-.976 2.693-.837 2.607-.906 2.694-1.08 2.607-.976 2.693-.697" clip-path="url(#p1f0a9f37c6)" style="fill:none;stroke:#2ca02c;stroke-width:1.5;stroke-linecap:square"/><path id="line2d_29" d="m172.278 285.034 2.433-4.078 2.693-.348 2.607-.175H185.31l2.694-.139 2.693-17.948 2.607-.313 2.694-.314 2.606-.174 2.694-.662 2.694-.349 2.433-.209 2.693-.279 2.607-.14 2.694-.138 2.606-.21 2.694-.244 2.693-.278 2.607-.28 2.694-.208 2.606-.14 2.694-.174 2.694-.314 2.52-.209 2.693-.348 2.607-.21 2.693-.208 2.607-.14 2.694-.209 2.693-.348 2.607-.244 2.694-.523 2.606-.558 2.694-.557 2.694-.14 2.433-1.428 2.693-.523 2.607-.349 2.693-.14 2.607-.278 2.694-.174 2.693-.383 2.607-.314 2.694-.558 2.606-.14 2.694-.243 2.694-.349 2.433-.243 2.693-.349 2.607-.14 2.694-.243 2.606-.105 2.694-.244 2.693-.209 2.607-.14 2.694-.208 2.606-.314 2.694-.349 2.694-.487 2.433-.28 2.693-.278 2.607-2.44 2.694-.627 2.606-15.438 2.694-1.15 2.693-.662 2.607-.593 2.694-.418 2.607-.314 2.693-.488 2.694-.244 2.52-.418 2.693-.697 2.607-1.08 2.693-.593 2.607-.801 2.694-.627 2.693-.558 2.607-.488 2.694-.662 2.606-1.115 2.694-1.638 2.694-1.36 2.433-.87 2.693-.767 2.607-.593 2.694-.557 2.606-.906 2.694-.767 2.693-.627 2.607-1.046 2.694-.453 2.606-.453 2.694-.592 2.694-.732 2.433-.767 2.693-.662 2.607-.732 2.694-.174 2.606-.418 2.694-.593 2.693-.766 2.607-.697 2.694-.663 2.607-1.394 2.693-.94" clip-path="url(#p1f0a9f37c6)" style="fill:none;stroke:#ff7f0e;stroke-width:1.5;stroke-linecap:square"/><path id="line2d_30" d="m182.704 285.034 2.607-.244 2.694-.593 2.693-.906 2.607-.488 2.694-.557 2.606-.976 2.694-1.115 2.694-.837 2.433-.871 2.693-.836 2.607-.767 2.694-.593 2.606-.662 2.694-.766 2.693-.767 2.607-.697 2.694-.941 2.606-1.255 2.694-1.185 2.694-1.184 2.52-1.046 2.693-1.29 2.607-1.812 2.693-1.01 2.607-.802 2.694-.662 2.693-.697 2.607-1.045 2.694-.872 2.606-2.3 2.694-2.579 2.694-1.498 2.433-1.185 2.693-6.517 2.607-1.638 2.693-1.15 2.607-1.045 2.694-1.36 2.693-1.428 2.607-1.15 2.694-1.569 2.606-2.439 2.694-3.624 2.694-1.813 2.433-1.394 2.693-1.463 2.607-1.778 2.694-1.603 2.606-1.185 2.694-1.115 2.693-1.29 2.607-1.428 2.694-1.882 2.606-3.868 2.694-2.928 2.694-2.613 2.433-1.569 2.693-1.463 2.607-1.499 2.694-1.394 2.606-.976 2.694-1.568 2.693-1.882 2.607-1.324 2.694-1.464 2.607-1.603 2.693-1.603 2.694-2.16 2.52-1.534 2.693-1.568 2.607-2.649 2.693-3.032 2.607-3.066 2.694-2.684 2.693-3.032 2.607-2.37 2.694-2.753 2.606-5.192 2.694-6.97 2.694-6.796 2.433-7.806 2.693-7.388 2.607-5.402 2.694-4.496 2.606-3.554 2.694-12.616 2.693-3.973 2.607-3.276 2.694-3.59 2.606-3.937 2.694-4.391 2.694-3.903 2.433-4.113 2.693-3.38 2.607-5.018 2.694-3.555 2.606-4.46 2.694-5.089 2.693-6.76 2.607-7.563 2.694-7.841 2.607-6.343 2.693-8.19" clip-path="url(#p1f0a9f37c6)" style="fill:none;stroke:#1f77b4;stroke-width:1.5;stroke-linecap:square"/></g></g><defs><clipPath id="p1f0a9f37c6"><path d="M98.073 18.922h357.12v266.112H98.073z"/></clipPath></defs></svg>