<svg xmlns:xlink="http://www.w3.org/1999/xlink" width="879.458" height="463.784" viewBox="0 0 659.593 347.838" xmlns="http://www.w3.org/2000/svg"><defs><style>*{stroke-linejoin:round;stroke-linecap:butt}</style></defs><g id="figure_1"><path d="M0 347.838h659.593V0H0v347.838z" style="fill:none" id="patch_1"/><g id="axes_1"><path d="M98.073 304.31h357.12V38.198H98.073V304.31z" style="fill:none" id="patch_2"/><g id="matplotlib.axis_1"><g id="xtick_1"><g id="line2d_1"><defs><path id="m1403ef00a6" d="M0 0v3.5" style="stroke:#b0b0b0;stroke-width:.4"/></defs><use xlink:href="#m1403ef00a6" x="103.666" y="304.31" style="fill:#b0b0b0;stroke:#b0b0b0;stroke-width:.4"/></g><g style="fill:#b0b0b0" transform="matrix(.14 0 0 -.14 85.851 321.948)" id="text_1"><defs><path id="DejaVuSans-32" d="M1228 531h2203V0H469v531q359 372 979 998 621 627 780 809 303 340 423 576 121 236 121 464 0 372-261 606-261 235-680 235-297 0-627-103-329-103-704-313v638q381 153 712 231 332 78 607 78 725 0 1156-363 431-362 431-968 0-288-108-546-107-257-392-607-78-91-497-524-418-433-1181-1211z" transform="scale(.01563)"/><path id="DejaVuSans-30" d="M2034 4250q-487 0-733-480-245-479-245-1442 0-959 245-1439 246-480 733-480 491 0 736 480 246 480 246 1439 0 963-246 1442-245 480-736 480zm0 500q785 0 1199-621 414-620 414-1801 0-1178-414-1799Q2819-91 2034-91q-784 0-1198 620-414 621-414 1799 0 1181 414 1801 414 621 1198 621z" transform="scale(.01563)"/><path id="DejaVuSans-31" d="M794 531h1031v3560L703 3866v575l1116 225h631V531h1031V0H794v531z" transform="scale(.01563)"/></defs><use xlink:href="#DejaVuSans-32"/><use xlink:href="#DejaVuSans-30" x="63.623"/><use xlink:href="#DejaVuSans-31" x="127.246"/><use xlink:href="#DejaVuSans-32" x="190.869"/></g></g><g id="xtick_2"><use xlink:href="#m1403ef00a6" x="137.223" y="304.31" style="fill:#b0b0b0;stroke:#b0b0b0;stroke-width:.4" id="line2d_2"/><g style="fill:#b0b0b0" transform="matrix(.14 0 0 -.14 119.408 321.948)" id="text_2"><defs><path id="DejaVuSans-33" d="M2597 2516q453-97 707-404 255-306 255-756 0-690-475-1069Q2609-91 1734-91q-293 0-604 58T488 141v609q262-153 574-231 313-78 654-78 593 0 904 234t311 681q0 413-289 645-289 233-804 233h-544v519h569q465 0 712 186t247 536q0 359-255 551-254 193-729 193-260 0-557-57-297-56-653-174v562q360 100 674 150t592 50q719 0 1137-327 419-326 419-882 0-388-222-655t-631-370z" transform="scale(.01563)"/></defs><use xlink:href="#DejaVuSans-32"/><use xlink:href="#DejaVuSans-30" x="63.623"/><use xlink:href="#DejaVuSans-31" x="127.246"/><use xlink:href="#DejaVuSans-33" x="190.869"/></g></g><g id="xtick_3"><use xlink:href="#m1403ef00a6" x="170.689" y="304.31" style="fill:#b0b0b0;stroke:#b0b0b0;stroke-width:.4" id="line2d_3"/><g style="fill:#b0b0b0" transform="matrix(.14 0 0 -.14 152.874 321.948)" id="text_3"><defs><path id="DejaVuSans-34" d="M2419 4116 825 1625h1594v2491zm-166 550h794V1625h666v-525h-666V0h-628v1100H313v609l1940 2957z" transform="scale(.01563)"/></defs><use xlink:href="#DejaVuSans-32"/><use xlink:href="#DejaVuSans-30" x="63.623"/><use xlink:href="#DejaVuSans-31" x="127.246"/><use xlink:href="#DejaVuSans-34" x="190.869"/></g></g><g id="xtick_4"><use xlink:href="#m1403ef00a6" x="204.155" y="304.31" style="fill:#b0b0b0;stroke:#b0b0b0;stroke-width:.4" id="line2d_4"/><g style="fill:#b0b0b0" transform="matrix(.14 0 0 -.14 186.34 321.948)" id="text_4"><defs><path id="DejaVuSans-35" d="M691 4666h2478v-532H1269V2991q137 47 274 70 138 23 276 23 781 0 1237-428 457-428 457-1159 0-753-469-1171Q2575-91 1722-91q-294 0-599 50Q819 9 494 109v635q281-153 581-228t634-75q541 0 856 284 316 284 316 772 0 487-316 771-315 285-856 285-253 0-505-56-251-56-513-175v2344z" transform="scale(.01563)"/></defs><use xlink:href="#DejaVuSans-32"/><use xlink:href="#DejaVuSans-30" x="63.623"/><use xlink:href="#DejaVuSans-31" x="127.246"/><use xlink:href="#DejaVuSans-35" x="190.869"/></g></g><g id="xtick_5"><use xlink:href="#m1403ef00a6" x="237.62" y="304.31" style="fill:#b0b0b0;stroke:#b0b0b0;stroke-width:.4" id="line2d_5"/><g style="fill:#b0b0b0" transform="matrix(.14 0 0 -.14 219.805 321.948)" id="text_5"><defs><path id="DejaVuSans-36" d="M2113 2584q-425 0-674-291-248-290-248-796 0-503 248-796 249-292 674-292t673 292q248 293 248 796 0 506-248 796-248 291-673 291zm1253 1979v-575q-238 112-480 171-242 60-480 60-625 0-955-422-329-422-376-1275 184 272 462 417 279 145 613 145 703 0 1111-427 408-426 408-1160 0-719-425-1154Q2819-91 2113-91q-810 0-1238 620-428 621-428 1799 0 1106 525 1764t1409 658q238 0 480-47t505-140z" transform="scale(.01563)"/></defs><use xlink:href="#DejaVuSans-32"/><use xlink:href="#DejaVuSans-30" x="63.623"/><use xlink:href="#DejaVuSans-31" x="127.246"/><use xlink:href="#DejaVuSans-36" x="190.869"/></g></g><g id="xtick_6"><use xlink:href="#m1403ef00a6" x="271.178" y="304.31" style="fill:#b0b0b0;stroke:#b0b0b0;stroke-width:.4" id="line2d_6"/><g style="fill:#b0b0b0" transform="matrix(.14 0 0 -.14 253.363 321.948)" id="text_6"><defs><path id="DejaVuSans-37" d="M525 4666h3000v-269L1831 0h-659l1594 4134H525v532z" transform="scale(.01563)"/></defs><use xlink:href="#DejaVuSans-32"/><use xlink:href="#DejaVuSans-30" x="63.623"/><use xlink:href="#DejaVuSans-31" x="127.246"/><use xlink:href="#DejaVuSans-37" x="190.869"/></g></g><g id="xtick_7"><use xlink:href="#m1403ef00a6" x="304.643" y="304.31" style="fill:#b0b0b0;stroke:#b0b0b0;stroke-width:.4" id="line2d_7"/><g style="fill:#b0b0b0" transform="matrix(.14 0 0 -.14 286.828 321.948)" id="text_7"><defs><path id="DejaVuSans-38" d="M2034 2216q-450 0-708-241-257-241-257-662 0-422 257-663 258-241 708-241t709 242q260 243 260 662 0 421-258 662-257 241-711 241zm-631 268q-406 100-633 378-226 279-226 679 0 559 398 884 399 325 1092 325 697 0 1094-325t397-884q0-400-227-679-226-278-629-378 456-106 710-416 255-309 255-755 0-679-414-1042Q2806-91 2034-91q-771 0-1186 362-414 363-414 1042 0 446 256 755 257 310 713 416zm-231 997q0-362 226-565 227-203 636-203 407 0 636 203 230 203 230 565 0 363-230 566-229 203-636 203-409 0-636-203-226-203-226-566z" transform="scale(.01563)"/></defs><use xlink:href="#DejaVuSans-32"/><use xlink:href="#DejaVuSans-30" x="63.623"/><use xlink:href="#DejaVuSans-31" x="127.246"/><use xlink:href="#DejaVuSans-38" x="190.869"/></g></g><g id="xtick_8"><use xlink:href="#m1403ef00a6" x="338.109" y="304.31" style="fill:#b0b0b0;stroke:#b0b0b0;stroke-width:.4" id="line2d_8"/><g style="fill:#b0b0b0" transform="matrix(.14 0 0 -.14 320.294 321.948)" id="text_8"><defs><path id="DejaVuSans-39" d="M703 97v575q238-113 481-172 244-59 479-59 625 0 954 420 330 420 377 1277-181-269-460-413-278-144-615-144-700 0-1108 423-408 424-408 1159 0 718 425 1152 425 435 1131 435 810 0 1236-621 427-620 427-1801 0-1103-524-1761Q2575-91 1691-91q-238 0-482 47Q966 3 703 97zm1256 1978q425 0 673 290 249 291 249 798 0 503-249 795-248 292-673 292t-673-292q-248-292-248-795 0-507 248-798 248-290 673-290z" transform="scale(.01563)"/></defs><use xlink:href="#DejaVuSans-32"/><use xlink:href="#DejaVuSans-30" x="63.623"/><use xlink:href="#DejaVuSans-31" x="127.246"/><use xlink:href="#DejaVuSans-39" x="190.869"/></g></g><g id="xtick_9"><use xlink:href="#m1403ef00a6" x="371.575" y="304.31" style="fill:#b0b0b0;stroke:#b0b0b0;stroke-width:.4" id="line2d_9"/><g style="fill:#b0b0b0" transform="matrix(.14 0 0 -.14 353.76 321.948)" id="text_9"><use xlink:href="#DejaVuSans-32"/><use xlink:href="#DejaVuSans-30" x="63.623"/><use xlink:href="#DejaVuSans-32" x="127.246"/><use xlink:href="#DejaVuSans-30" x="190.869"/></g></g><g id="xtick_10"><use xlink:href="#m1403ef00a6" x="405.132" y="304.31" style="fill:#b0b0b0;stroke:#b0b0b0;stroke-width:.4" id="line2d_10"/><g style="fill:#b0b0b0" transform="matrix(.14 0 0 -.14 387.317 321.948)" id="text_10"><use xlink:href="#DejaVuSans-32"/><use xlink:href="#DejaVuSans-30" x="63.623"/><use xlink:href="#DejaVuSans-32" x="127.246"/><use xlink:href="#DejaVuSans-31" x="190.869"/></g></g><g id="xtick_11"><use xlink:href="#m1403ef00a6" x="438.598" y="304.31" style="fill:#b0b0b0;stroke:#b0b0b0;stroke-width:.4" id="line2d_11"/><g style="fill:#b0b0b0" transform="matrix(.14 0 0 -.14 420.783 321.948)" id="text_11"><use xlink:href="#DejaVuSans-32"/><use xlink:href="#DejaVuSans-30" x="63.623"/><use xlink:href="#DejaVuSans-32" x="127.246"/><use xlink:href="#DejaVuSans-32" x="190.869"/></g></g></g><g id="matplotlib.axis_2"><g id="ytick_1"><path d="M98.073 304.31h357.12" clip-path="url(#p9629001f17)" style="fill:none;stroke:#b0b0b0;stroke-width:.3;stroke-linecap:square" id="line2d_12"/><g id="line2d_13"><defs><path id="m8d0698237a" d="M0 0h-3.5" style="stroke:#b0b0b0;stroke-width:.3"/></defs><use xlink:href="#m8d0698237a" x="98.073" y="304.31" style="fill:#b0b0b0;stroke:#b0b0b0;stroke-width:.3"/></g><use xlink:href="#DejaVuSans-30" style="fill:#b0b0b0" transform="matrix(.14 0 0 -.14 82.166 309.63)" id="text_12"/></g><g id="ytick_2"><path d="M98.073 267.603h357.12" clip-path="url(#p9629001f17)" style="fill:none;stroke:#b0b0b0;stroke-width:.3;stroke-linecap:square" id="line2d_14"/><use xlink:href="#m8d0698237a" x="98.073" y="267.603" style="fill:#b0b0b0;stroke:#b0b0b0;stroke-width:.3" id="line2d_15"/><g style="fill:#b0b0b0" transform="matrix(.14 0 0 -.14 46.536 272.922)" id="text_13"><use xlink:href="#DejaVuSans-31"/><use xlink:href="#DejaVuSans-30" x="63.623"/><use xlink:href="#DejaVuSans-30" x="127.246"/><use xlink:href="#DejaVuSans-30" x="190.869"/><use xlink:href="#DejaVuSans-30" x="254.492"/></g></g><g id="ytick_3"><path d="M98.073 230.896h357.12" clip-path="url(#p9629001f17)" style="fill:none;stroke:#b0b0b0;stroke-width:.3;stroke-linecap:square" id="line2d_16"/><use xlink:href="#m8d0698237a" x="98.073" y="230.896" style="fill:#b0b0b0;stroke:#b0b0b0;stroke-width:.3" id="line2d_17"/><g style="fill:#b0b0b0" transform="matrix(.14 0 0 -.14 46.536 236.215)" id="text_14"><use xlink:href="#DejaVuSans-32"/><use xlink:href="#DejaVuSans-30" x="63.623"/><use xlink:href="#DejaVuSans-30" x="127.246"/><use xlink:href="#DejaVuSans-30" x="190.869"/><use xlink:href="#DejaVuSans-30" x="254.492"/></g></g><g id="ytick_4"><path d="M98.073 194.19h357.12" clip-path="url(#p9629001f17)" style="fill:none;stroke:#b0b0b0;stroke-width:.3;stroke-linecap:square" id="line2d_18"/><use xlink:href="#m8d0698237a" x="98.073" y="194.189" style="fill:#b0b0b0;stroke:#b0b0b0;stroke-width:.3" id="line2d_19"/><g style="fill:#b0b0b0" transform="matrix(.14 0 0 -.14 46.536 199.508)" id="text_15"><use xlink:href="#DejaVuSans-33"/><use xlink:href="#DejaVuSans-30" x="63.623"/><use xlink:href="#DejaVuSans-30" x="127.246"/><use xlink:href="#DejaVuSans-30" x="190.869"/><use xlink:href="#DejaVuSans-30" x="254.492"/></g></g><g id="ytick_5"><path d="M98.073 157.482h357.12" clip-path="url(#p9629001f17)" style="fill:none;stroke:#b0b0b0;stroke-width:.3;stroke-linecap:square" id="line2d_20"/><use xlink:href="#m8d0698237a" x="98.073" y="157.482" style="fill:#b0b0b0;stroke:#b0b0b0;stroke-width:.3" id="line2d_21"/><g style="fill:#b0b0b0" transform="matrix(.14 0 0 -.14 46.536 162.8)" id="text_16"><use xlink:href="#DejaVuSans-34"/><use xlink:href="#DejaVuSans-30" x="63.623"/><use xlink:href="#DejaVuSans-30" x="127.246"/><use xlink:href="#DejaVuSans-30" x="190.869"/><use xlink:href="#DejaVuSans-30" x="254.492"/></g></g><g id="ytick_6"><path d="M98.073 120.775h357.12" clip-path="url(#p9629001f17)" style="fill:none;stroke:#b0b0b0;stroke-width:.3;stroke-linecap:square" id="line2d_22"/><use xlink:href="#m8d0698237a" x="98.073" y="120.775" style="fill:#b0b0b0;stroke:#b0b0b0;stroke-width:.3" id="line2d_23"/><g style="fill:#b0b0b0" transform="matrix(.14 0 0 -.14 46.536 126.094)" id="text_17"><use xlink:href="#DejaVuSans-35"/><use xlink:href="#DejaVuSans-30" x="63.623"/><use xlink:href="#DejaVuSans-30" x="127.246"/><use xlink:href="#DejaVuSans-30" x="190.869"/><use xlink:href="#DejaVuSans-30" x="254.492"/></g></g><g id="ytick_7"><path d="M98.073 84.068h357.12" clip-path="url(#p9629001f17)" style="fill:none;stroke:#b0b0b0;stroke-width:.3;stroke-linecap:square" id="line2d_24"/><use xlink:href="#m8d0698237a" x="98.073" y="84.068" style="fill:#b0b0b0;stroke:#b0b0b0;stroke-width:.3" id="line2d_25"/><g style="fill:#b0b0b0" transform="matrix(.14 0 0 -.14 46.536 89.387)" id="text_18"><use xlink:href="#DejaVuSans-36"/><use xlink:href="#DejaVuSans-30" x="63.623"/><use xlink:href="#DejaVuSans-30" x="127.246"/><use xlink:href="#DejaVuSans-30" x="190.869"/><use xlink:href="#DejaVuSans-30" x="254.492"/></g></g><g id="ytick_8"><path d="M98.073 47.36h357.12" clip-path="url(#p9629001f17)" style="fill:none;stroke:#b0b0b0;stroke-width:.3;stroke-linecap:square" id="line2d_26"/><use xlink:href="#m8d0698237a" x="98.073" y="47.361" style="fill:#b0b0b0;stroke:#b0b0b0;stroke-width:.3" id="line2d_27"/><g style="fill:#b0b0b0" transform="matrix(.14 0 0 -.14 46.536 52.68)" id="text_19"><use xlink:href="#DejaVuSans-37"/><use xlink:href="#DejaVuSans-30" x="63.623"/><use xlink:href="#DejaVuSans-30" x="127.246"/><use xlink:href="#DejaVuSans-30" x="190.869"/><use xlink:href="#DejaVuSans-30" x="254.492"/></g></g><g style="fill:#b0b0b0" transform="matrix(.14 0 0 -.14 7.2 17.838)" id="text_20"><defs><path id="DejaVuSans-47" d="M3809 666v1253H2778v519h1656V434q-365-259-806-392-440-133-940-133-1094 0-1712 639-617 640-617 1780 0 1144 617 1783 618 639 1712 639 456 0 867-113 411-112 758-331v-672q-350 297-744 447t-828 150q-857 0-1287-478-429-478-429-1425 0-944 429-1422 430-478 1287-478 334 0 596 58 263 58 472 180z" transform="scale(.01563)"/><path id="DejaVuSans-69" d="M603 3500h575V0H603v3500zm0 1363h575v-729H603v729z" transform="scale(.01563)"/><path id="DejaVuSans-74" d="M1172 4494v-994h1184v-447H1172V1153q0-428 117-550t477-122h590V0h-590q-666 0-919 248-253 249-253 905v1900H172v447h422v994h578z" transform="scale(.01563)"/><path id="DejaVuSans-48" d="M628 4666h631V2753h2294v1913h631V0h-631v2222H1259V0H628v4666z" transform="scale(.01563)"/><path id="DejaVuSans-75" d="M544 1381v2119h575V1403q0-497 193-746 194-248 582-248 465 0 735 297 271 297 271 810v1984h575V0h-575v538q-209-319-486-474-276-155-642-155-603 0-916 375-312 375-312 1097zm1447 2203z" transform="scale(.01563)"/><path id="DejaVuSans-62" d="M3116 1747q0 634-261 995t-717 361q-457 0-718-361t-261-995q0-634 261-995t718-361q456 0 717 361t261 995zM1159 2969q182 312 458 463 277 152 661 152 638 0 1036-506 399-506 399-1331T3314 415Q2916-91 2278-91q-384 0-661 152-276 152-458 464V0H581v4863h578V2969z" transform="scale(.01563)"/><path id="DejaVuSans-73" d="M2834 3397v-544q-243 125-506 187-262 63-544 63-428 0-642-131t-214-394q0-200 153-314t616-217l197-44q612-131 870-370t258-667q0-488-386-773Q2250-91 1575-91q-281 0-586 55T347 128v594q319-166 628-249 309-82 613-82 406 0 624 139 219 139 219 392 0 234-158 359-157 125-692 241l-200 47q-534 112-772 345-237 233-237 639 0 494 350 762 350 269 994 269 318 0 599-47 282-46 519-140z" transform="scale(.01563)"/><path id="DejaVuSans-61" d="M2194 1759q-697 0-966-159t-269-544q0-306 202-486 202-179 548-179 479 0 768 339t289 901v128h-572zm1147 238V0h-575v531q-197-318-491-470T1556-91q-537 0-855 302-317 302-317 808 0 590 395 890 396 300 1180 300h807v57q0 397-261 614t-733 217q-300 0-585-72-284-72-546-216v532q315 122 612 182 297 61 578 61 760 0 1135-394 375-393 375-1193z" transform="scale(.01563)"/><path id="DejaVuSans-72" d="M2631 2963q-97 56-211 82-114 27-251 27-488 0-749-317t-261-911V0H581v3500h578v-544q182 319 472 473 291 155 707 155 59 0 131-8 72-7 159-23l3-590z" transform="scale(.01563)"/></defs><use xlink:href="#DejaVuSans-47"/><use xlink:href="#DejaVuSans-69" x="77.49"/><use xlink:href="#DejaVuSans-74" x="105.273"/><use xlink:href="#DejaVuSans-48" x="144.482"/><use xlink:href="#DejaVuSans-75" x="219.678"/><use xlink:href="#DejaVuSans-62" x="283.057"/><use xlink:href="#DejaVuSans-20" x="346.533"/><use xlink:href="#DejaVuSans-73" x="378.32"/><use xlink:href="#DejaVuSans-74" x="430.42"/><use xlink:href="#DejaVuSans-61" x="469.629"/><use xlink:href="#DejaVuSans-72" x="530.908"/><use xlink:href="#DejaVuSans-73" x="572.021"/></g></g><path d="m393.946 304.31 2.751-9.573 2.842-6.684 2.75-1.065 2.843-.686 2.842-1.16 2.568-.87 2.842-1.039 2.75-.554 2.843-.753 2.75-1.607 2.843-.8 2.842-.58 2.75-.301 2.843-.235 2.75-.419 2.843-.404 2.842-2.202 2.567-.705 2.843-.396 2.75-1.043 2.843-.477 2.75-1.123" clip-path="url(#p9629001f17)" style="fill:none;stroke:#c5b0d5;stroke-width:1.5;stroke-linecap:square" id="line2d_28"/><path d="m153.819 304.31 2.842-.003 2.842-1.935 2.75-.418 2.843-.103 2.75-.062 2.843-.037 2.842-.224 2.568-.077 2.842-.11 2.75-.063 2.843-.05 2.75-.085 2.843-.419 2.842-.275 2.75-.224 2.843-.129 2.75-.304 2.843-.198 2.842-.17 2.567-.08 2.843-.147 2.75-.136 2.842-.257 2.751-.227 2.842-.136 2.843-.092 2.75-.147 2.843-.33 2.75-.279 2.842-.172 2.843-.371 2.659-.268 2.842-.143 2.75-.188 2.843-.135 2.75-.15 2.843-.456 2.842-.224 2.75-.36 2.843-.161 2.75-.338 2.843-.15 2.842-.323 2.567-.217 2.843-.268 2.75-.272 2.842-.29 2.751-.44 2.842-.206 2.843-.271 2.75-.25 2.843-.363 2.75-.316 2.842-.25 2.843-.4 2.567-.213 2.842-.297 2.75-.22 2.843-.206 2.75-.275 2.843-.411 2.842-.235 2.75-.213 2.843-.15 2.75-.217 2.843-.33 2.842-.397 2.568-.348 2.842-.294 2.75-.39 2.843-.227 2.75-.202 2.843-.378 2.842-.183 2.75-.261 2.843-.283 2.75-.238 2.843-.25 2.842-.304 2.659-.43 2.842-.327 2.75-.33 2.843-.242 2.75-.444 2.843-.323 2.842-1.483 2.751-.309 2.842-.32 2.75-.392 2.843-.246 2.842-.213 2.568-.205 2.842-.4 2.75-.294 2.843-.327 2.75-.602 2.843-.323 2.842-.337 2.75-1.715 2.843-.437 2.75-1.185 2.843-.345 2.842-.448 2.567-.885 2.843-.381 2.75-.467 2.843-.286 2.75-1.505" clip-path="url(#p9629001f17)" style="fill:none;stroke:#ff9896;stroke-width:1.5;stroke-linecap:square" id="line2d_29"/><path d="m304.643 304.31 2.843-3.733 2.567-.455 2.842-.569 2.75-.172 2.843-.228 2.75-.242 2.843-.239 2.842-.352 2.75-.525 2.843-.224 2.75-.617 2.843-.389 2.842-.778 2.568-.352 2.842-.404 2.75-.239 2.843-.407 2.75-.268 2.843-.411 2.842-.353 2.75-1.299 2.843-2.474 2.75-.819 2.843-.561 2.842-.437 2.659-.415 2.842-.796 2.75-.5 2.843-1.071 2.75-.797 2.843-.507 2.842-.803 2.751-.555 2.842-.499 2.75-1.002 2.843-.664 2.842-.525 2.568-.687 2.842-1.017 2.75-.888 2.843-1.12 2.75-.965 2.843-.987 2.842-.753 2.75-.61 2.843-1.064 2.75-1.46 2.843-1.946 2.842-1.255 2.567-.76 2.843-1.483 2.75-1.472 2.843-.95 2.75-1.043" clip-path="url(#p9629001f17)" style="fill:none;stroke:#98df8a;stroke-width:1.5;stroke-linecap:square" id="line2d_30"/><g style="fill:#1f77b4" transform="matrix(.14 0 0 -.14 465.907 42.062)" id="text_21"><defs><path id="DejaVuSans-6e" d="M3513 2113V0h-575v2094q0 497-194 743-194 247-581 247-466 0-735-297-269-296-269-809V0H581v3500h578v-544q207 316 486 472 280 156 646 156 603 0 912-373 310-373 310-1098z" transform="scale(.01563)"/><path id="DejaVuSans-76" d="M191 3500h609L1894 563l1094 2937h609L2284 0h-781L191 3500z" transform="scale(.01563)"/><path id="DejaVuSans-2f" d="M1625 4666h531L531-594H0l1625 5260z" transform="scale(.01563)"/><path id="DejaVuSans-68" d="M3513 2113V0h-575v2094q0 497-194 743-194 247-581 247-466 0-735-297-269-296-269-809V0H581v4863h578V2956q207 316 486 472 280 156 646 156 603 0 912-373 310-373 310-1098z" transform="scale(.01563)"/><path id="DejaVuSans-65" d="M3597 1894v-281H953q38-594 358-905t892-311q331 0 642 81t618 244V178Q3153 47 2828-22t-659-69q-838 0-1327 487-489 488-489 1320 0 859 464 1363 464 505 1252 505 706 0 1117-455 411-454 411-1235zm-575 169q-6 471-264 752-258 282-683 282-481 0-770-272t-333-766l2050 4z" transform="scale(.01563)"/><path id="DejaVuSans-66" d="M2375 4863v-479h-550q-309 0-430-125-120-125-120-450v-309h947v-447h-947V0H697v3053H147v447h550v244q0 584 272 851 272 268 862 268h544z" transform="scale(.01563)"/><path id="DejaVuSans-63" d="M3122 3366v-538q-244 135-489 202t-495 67q-560 0-870-355-309-354-309-995t309-996q310-354 870-354 250 0 495 67t489 202V134Q2881 22 2623-34q-257-57-548-57-791 0-1257 497-465 497-465 1341 0 856 470 1346 471 491 1290 491 265 0 518-55 253-54 491-163z" transform="scale(.01563)"/><path id="DejaVuSans-6b" d="M581 4863h578V1991l1716 1509h734L1753 1863 3688 0h-750L1159 1709V0H581v4863z" transform="scale(.01563)"/></defs><use xlink:href="#DejaVuSans-6e"/><use xlink:href="#DejaVuSans-76" x="63.379"/><use xlink:href="#DejaVuSans-62" x="122.559"/><use xlink:href="#DejaVuSans-6e" x="186.035"/><use xlink:href="#DejaVuSans-2f" x="249.414"/><use xlink:href="#DejaVuSans-74" x="283.105"/><use xlink:href="#DejaVuSans-68" x="322.314"/><use xlink:href="#DejaVuSans-65" x="385.693"/><use xlink:href="#DejaVuSans-66" x="447.217"/><use xlink:href="#DejaVuSans-75" x="482.422"/><use xlink:href="#DejaVuSans-63" x="545.801"/><use xlink:href="#DejaVuSans-6b" x="600.781"/></g><g style="fill:#ff7f0e" transform="matrix(.14 0 0 -.14 465.907 128.973)" id="text_22"><defs><path id="DejaVuSans-6a" d="M603 3500h575V-63q0-668-255-968-254-300-820-300h-219v487H38q328 0 446 152Q603-541 603-63v3563zm0 1363h575v-729H603v729z" transform="scale(.01563)"/><path id="DejaVuSans-67" d="M2906 1791q0 625-258 968-257 344-723 344-462 0-720-344-258-343-258-968 0-622 258-966t720-344q466 0 723 344 258 344 258 966zm575-1357q0-893-397-1329-396-436-1215-436-303 0-572 45t-522 139v559q253-137 500-202 247-66 503-66 566 0 847 295t281 892v285q-178-310-456-463T1784 0Q1141 0 747 490 353 981 353 1791q0 812 394 1302 394 491 1037 491 388 0 666-153t456-462v531h575V434z" transform="scale(.01563)"/><path id="DejaVuSans-7a" d="M353 3500h2731v-525L922 459h2162V0H275v525l2163 2516H353v459z" transform="scale(.01563)"/></defs><use xlink:href="#DejaVuSans-6a"/><use xlink:href="#DejaVuSans-75" x="27.783"/><use xlink:href="#DejaVuSans-6e" x="91.162"/><use xlink:href="#DejaVuSans-65" x="154.541"/><use xlink:href="#DejaVuSans-67" x="216.064"/><use xlink:href="#DejaVuSans-75" x="279.541"/><use xlink:href="#DejaVuSans-6e" x="342.92"/><use xlink:href="#DejaVuSans-6e" x="406.299"/><use xlink:href="#DejaVuSans-2f" x="469.678"/><use xlink:href="#DejaVuSans-66" x="503.369"/><use xlink:href="#DejaVuSans-7a" x="538.574"/><use xlink:href="#DejaVuSans-66" x="591.064"/></g><g style="fill:#2ca02c" transform="matrix(.14 0 0 -.14 465.907 142.973)" id="text_23"><defs><path id="DejaVuSans-6c" d="M603 4863h575V0H603v4863z" transform="scale(.01563)"/><path id="DejaVuSans-64" d="M2906 2969v1894h575V0h-575v525q-181-312-458-464-276-152-664-152-634 0-1033 506-398 507-398 1332t398 1331q399 506 1033 506 388 0 664-152 277-151 458-463zM947 1747q0-634 261-995t717-361q456 0 718 361 263 361 263 995t-263 995q-262 361-718 361t-717-361q-261-361-261-995z" transform="scale(.01563)"/><path id="DejaVuSans-2d" d="M313 2009h1684v-512H313v512z" transform="scale(.01563)"/><path id="DejaVuSans-70" d="M1159 525v-1856H581v4831h578v-531q182 312 458 463 277 152 661 152 638 0 1036-506 399-506 399-1331T3314 415Q2916-91 2278-91q-384 0-661 152-276 152-458 464zm1957 1222q0 634-261 995t-717 361q-457 0-718-361t-261-995q0-634 261-995t718-361q456 0 717 361t261 995z" transform="scale(.01563)"/></defs><use xlink:href="#DejaVuSans-74"/><use xlink:href="#DejaVuSans-6c" x="39.209"/><use xlink:href="#DejaVuSans-64" x="66.992"/><use xlink:href="#DejaVuSans-72" x="130.469"/><use xlink:href="#DejaVuSans-2d" x="165.207"/><use xlink:href="#DejaVuSans-70" x="201.291"/><use xlink:href="#DejaVuSans-61" x="264.768"/><use xlink:href="#DejaVuSans-67" x="326.047"/><use xlink:href="#DejaVuSans-65" x="389.523"/><use xlink:href="#DejaVuSans-73" x="451.047"/><use xlink:href="#DejaVuSans-2f" x="503.146"/><use xlink:href="#DejaVuSans-74" x="536.838"/><use xlink:href="#DejaVuSans-6c" x="576.047"/><use xlink:href="#DejaVuSans-64" x="603.83"/><use xlink:href="#DejaVuSans-72" x="667.307"/></g><g style="fill:#d62728" transform="matrix(.14 0 0 -.14 465.907 156.973)" id="text_24"><use xlink:href="#DejaVuSans-73"/><use xlink:href="#DejaVuSans-68" x="52.1"/><use xlink:href="#DejaVuSans-61" x="115.479"/><use xlink:href="#DejaVuSans-72" x="176.758"/><use xlink:href="#DejaVuSans-6b" x="217.871"/><use xlink:href="#DejaVuSans-64" x="275.781"/><use xlink:href="#DejaVuSans-70" x="339.258"/><use xlink:href="#DejaVuSans-2f" x="402.734"/><use xlink:href="#DejaVuSans-62" x="436.426"/><use xlink:href="#DejaVuSans-61" x="499.902"/><use xlink:href="#DejaVuSans-74" x="561.182"/></g><g style="fill:#9467bd" transform="matrix(.14 0 0 -.14 465.907 170.973)" id="text_25"><defs><path id="DejaVuSans-42" d="M1259 2228V519h1013q509 0 754 211 246 211 246 645 0 438-246 645-245 208-754 208H1259zm0 1919V2741h935q462 0 688 173 227 174 227 530 0 353-227 528-226 175-688 175h-935zm-631 519h1613q722 0 1112-300 391-300 391-853 0-429-200-682t-588-315q466-100 724-418 258-317 258-792 0-625-425-966Q3088 0 2303 0H628v4666z" transform="scale(.01563)"/><path id="DejaVuSans-53" d="M3425 4513v-616q-359 172-678 256-319 85-616 85-515 0-795-200t-280-569q0-310 186-468 186-157 705-254l381-78q706-135 1042-474t336-907q0-679-455-1029Q2797-91 1919-91q-331 0-705 75-373 75-773 222v650q384-215 753-325 369-109 725-109 540 0 834 212 294 213 294 607 0 343-211 537t-692 291l-385 75q-706 140-1022 440-315 300-315 835 0 619 436 975t1201 356q329 0 669-60 341-59 697-177z" transform="scale(.01563)"/></defs><use xlink:href="#DejaVuSans-42"/><use xlink:href="#DejaVuSans-75" x="68.604"/><use xlink:href="#DejaVuSans-72" x="131.982"/><use xlink:href="#DejaVuSans-6e" x="171.346"/><use xlink:href="#DejaVuSans-74" x="234.725"/><use xlink:href="#DejaVuSans-53" x="273.934"/><use xlink:href="#DejaVuSans-75" x="337.41"/><use xlink:href="#DejaVuSans-73" x="400.789"/><use xlink:href="#DejaVuSans-68" x="452.889"/><use xlink:href="#DejaVuSans-69" x="516.268"/><use xlink:href="#DejaVuSans-2f" x="544.051"/><use xlink:href="#DejaVuSans-72" x="577.742"/><use xlink:href="#DejaVuSans-69" x="618.855"/><use xlink:href="#DejaVuSans-70" x="646.639"/><use xlink:href="#DejaVuSans-67" x="710.115"/><use xlink:href="#DejaVuSans-72" x="773.592"/><use xlink:href="#DejaVuSans-65" x="812.455"/><use xlink:href="#DejaVuSans-70" x="873.979"/></g><g style="fill:#8c564b" transform="matrix(.14 0 0 -.14 465.907 184.973)" id="text_26"><defs><path id="DejaVuSans-2e" d="M684 794h660V0H684v794z" transform="scale(.01563)"/></defs><use xlink:href="#DejaVuSans-63"/><use xlink:href="#DejaVuSans-68" x="54.98"/><use xlink:href="#DejaVuSans-75" x="118.359"/><use xlink:href="#DejaVuSans-62" x="181.738"/><use xlink:href="#DejaVuSans-69" x="245.215"/><use xlink:href="#DejaVuSans-6e" x="272.998"/><use xlink:href="#DejaVuSans-2f" x="336.377"/><use xlink:href="#DejaVuSans-63" x="370.068"/><use xlink:href="#DejaVuSans-68" x="425.049"/><use xlink:href="#DejaVuSans-65" x="488.428"/><use xlink:href="#DejaVuSans-61" x="549.951"/><use xlink:href="#DejaVuSans-74" x="611.23"/><use xlink:href="#DejaVuSans-2e" x="650.439"/><use xlink:href="#DejaVuSans-73" x="682.227"/><use xlink:href="#DejaVuSans-68" x="734.326"/></g><g style="fill:#e377c2" transform="matrix(.14 0 0 -.14 465.907 198.779)" id="text_27"><defs><path id="DejaVuSans-5f" d="M3263-1063v-446H-63v446h3326z" transform="scale(.01563)"/></defs><use xlink:href="#DejaVuSans-67"/><use xlink:href="#DejaVuSans-67" x="63.477"/><use xlink:href="#DejaVuSans-72" x="126.953"/><use xlink:href="#DejaVuSans-65" x="165.816"/><use xlink:href="#DejaVuSans-65" x="227.34"/><use xlink:href="#DejaVuSans-72" x="288.863"/><use xlink:href="#DejaVuSans-2f" x="329.977"/><use xlink:href="#DejaVuSans-74" x="363.668"/><use xlink:href="#DejaVuSans-68" x="402.877"/><use xlink:href="#DejaVuSans-65" x="466.256"/><use xlink:href="#DejaVuSans-5f" x="527.779"/><use xlink:href="#DejaVuSans-73" x="577.779"/><use xlink:href="#DejaVuSans-69" x="629.879"/><use xlink:href="#DejaVuSans-6c" x="657.662"/><use xlink:href="#DejaVuSans-76" x="685.445"/><use xlink:href="#DejaVuSans-65" x="744.625"/><use xlink:href="#DejaVuSans-72" x="806.148"/><use xlink:href="#DejaVuSans-5f" x="847.262"/><use xlink:href="#DejaVuSans-73" x="897.262"/><use xlink:href="#DejaVuSans-65" x="949.361"/><use xlink:href="#DejaVuSans-61" x="1010.885"/><use xlink:href="#DejaVuSans-72" x="1072.164"/><use xlink:href="#DejaVuSans-63" x="1111.027"/><use xlink:href="#DejaVuSans-68" x="1166.008"/><use xlink:href="#DejaVuSans-65" x="1229.387"/><use xlink:href="#DejaVuSans-72" x="1290.91"/></g><g style="fill:#7f7f7f" transform="matrix(.14 0 0 -.14 465.907 212.973)" id="text_28"><use xlink:href="#DejaVuSans-73"/><use xlink:href="#DejaVuSans-68" x="52.1"/><use xlink:href="#DejaVuSans-61" x="115.479"/><use xlink:href="#DejaVuSans-72" x="176.758"/><use xlink:href="#DejaVuSans-6b" x="217.871"/><use xlink:href="#DejaVuSans-64" x="275.781"/><use xlink:href="#DejaVuSans-70" x="339.258"/><use xlink:href="#DejaVuSans-2f" x="402.734"/><use xlink:href="#DejaVuSans-66" x="436.426"/><use xlink:href="#DejaVuSans-64" x="471.631"/></g><g style="fill:#bcbd22" transform="matrix(.14 0 0 -.14 465.907 226.973)" id="text_29"><defs><path id="DejaVuSans-6f" d="M1959 3097q-462 0-731-361t-269-989q0-628 267-989 268-361 733-361 460 0 728 362 269 363 269 988 0 622-269 986-268 364-728 364zm0 487q750 0 1178-488 429-487 429-1349 0-859-429-1349Q2709-91 1959-91q-753 0-1180 489-426 490-426 1349 0 862 426 1349 427 488 1180 488z" transform="scale(.01563)"/><path id="DejaVuSans-71" d="M947 1747q0-634 261-995t717-361q456 0 718 361 263 361 263 995t-263 995q-262 361-718 361t-717-361q-261-361-261-995zM2906 525q-181-312-458-464-276-152-664-152-634 0-1033 506-398 507-398 1332t398 1331q399 506 1033 506 388 0 664-152 277-151 458-463v531h575v-4831h-575V525z" transform="scale(.01563)"/></defs><use xlink:href="#DejaVuSans-73"/><use xlink:href="#DejaVuSans-74" x="52.1"/><use xlink:href="#DejaVuSans-65" x="91.309"/><use xlink:href="#DejaVuSans-64" x="152.832"/><use xlink:href="#DejaVuSans-6f" x="216.309"/><use xlink:href="#DejaVuSans-6c" x="277.49"/><use xlink:href="#DejaVuSans-61" x="305.273"/><use xlink:href="#DejaVuSans-6e" x="366.553"/><use xlink:href="#DejaVuSans-2f" x="429.932"/><use xlink:href="#DejaVuSans-6a" x="463.623"/><use xlink:href="#DejaVuSans-71" x="491.406"/></g><g style="fill:#17becf" transform="matrix(.14 0 0 -.14 465.907 240.973)" id="text_30"><use xlink:href="#DejaVuSans-63"/><use xlink:href="#DejaVuSans-68" x="54.98"/><use xlink:href="#DejaVuSans-61" x="118.359"/><use xlink:href="#DejaVuSans-6c" x="179.639"/><use xlink:href="#DejaVuSans-6b" x="207.422"/><use xlink:href="#DejaVuSans-2f" x="265.332"/><use xlink:href="#DejaVuSans-63" x="299.023"/><use xlink:href="#DejaVuSans-68" x="354.004"/><use xlink:href="#DejaVuSans-61" x="417.383"/><use xlink:href="#DejaVuSans-6c" x="478.662"/><use xlink:href="#DejaVuSans-6b" x="506.445"/></g><g style="fill:#aec7e8" transform="matrix(.14 0 0 -.14 465.907 254.973)" id="text_31"><defs><path id="DejaVuSans-6d" d="M3328 2828q216 388 516 572t706 184q547 0 844-383 297-382 297-1088V0h-578v2094q0 503-179 746-178 244-543 244-447 0-707-297-259-296-259-809V0h-578v2094q0 506-178 748t-550 242q-441 0-701-298-259-298-259-808V0H581v3500h578v-544q197 322 472 475t653 153q382 0 649-194 267-193 395-562z" transform="scale(.01563)"/><path id="DejaVuSans-78" d="M3513 3500 2247 1797 3578 0h-678L1881 1375 863 0H184l1360 1831L300 3500h678l928-1247 928 1247h679z" transform="scale(.01563)"/></defs><use xlink:href="#DejaVuSans-6f"/><use xlink:href="#DejaVuSans-67" x="61.182"/><use xlink:href="#DejaVuSans-68" x="124.658"/><use xlink:href="#DejaVuSans-61" x="188.037"/><use xlink:href="#DejaVuSans-6d" x="249.316"/><use xlink:href="#DejaVuSans-2f" x="346.729"/><use xlink:href="#DejaVuSans-65" x="380.42"/><use xlink:href="#DejaVuSans-78" x="440.193"/><use xlink:href="#DejaVuSans-61" x="499.373"/></g><g style="fill:#ffbb78" transform="matrix(.14 0 0 -.14 465.907 268.973)" id="text_32"><use xlink:href="#DejaVuSans-64"/><use xlink:href="#DejaVuSans-61" x="63.477"/><use xlink:href="#DejaVuSans-6e" x="124.756"/><use xlink:href="#DejaVuSans-64" x="188.135"/><use xlink:href="#DejaVuSans-61" x="251.611"/><use xlink:href="#DejaVuSans-76" x="312.891"/><use xlink:href="#DejaVuSans-69" x="372.07"/><use xlink:href="#DejaVuSans-73" x="399.854"/><use xlink:href="#DejaVuSans-6f" x="451.953"/><use xlink:href="#DejaVuSans-6e" x="513.135"/><use xlink:href="#DejaVuSans-2f" x="576.514"/><use xlink:href="#DejaVuSans-64" x="610.205"/><use xlink:href="#DejaVuSans-65" x="673.682"/><use xlink:href="#DejaVuSans-6c" x="735.205"/><use xlink:href="#DejaVuSans-74" x="762.988"/><use xlink:href="#DejaVuSans-61" x="802.197"/></g><g style="fill:#98df8a" transform="matrix(.14 0 0 -.14 465.907 282.973)" id="text_33"><defs><path id="DejaVuSans-79" d="M2059-325q-243-625-475-815-231-191-618-191H506v481h338q237 0 368 113 132 112 291 531l103 262L191 3500h609L1894 763l1094 2737h609L2059-325z" transform="scale(.01563)"/></defs><use xlink:href="#DejaVuSans-73"/><use xlink:href="#DejaVuSans-68" x="52.1"/><use xlink:href="#DejaVuSans-61" x="115.479"/><use xlink:href="#DejaVuSans-72" x="176.758"/><use xlink:href="#DejaVuSans-6b" x="217.871"/><use xlink:href="#DejaVuSans-64" x="275.781"/><use xlink:href="#DejaVuSans-70" x="339.258"/><use xlink:href="#DejaVuSans-2f" x="402.734"/><use xlink:href="#DejaVuSans-68" x="436.426"/><use xlink:href="#DejaVuSans-79" x="499.805"/><use xlink:href="#DejaVuSans-70" x="558.984"/><use xlink:href="#DejaVuSans-65" x="622.461"/><use xlink:href="#DejaVuSans-72" x="683.984"/><use xlink:href="#DejaVuSans-66" x="725.098"/><use xlink:href="#DejaVuSans-69" x="760.303"/><use xlink:href="#DejaVuSans-6e" x="788.086"/><use xlink:href="#DejaVuSans-65" x="851.465"/></g><g style="fill:#ff9896" transform="matrix(.14 0 0 -.14 465.907 296.973)" id="text_34"><use xlink:href="#DejaVuSans-63"/><use xlink:href="#DejaVuSans-68" x="54.98"/><use xlink:href="#DejaVuSans-65" x="118.359"/><use xlink:href="#DejaVuSans-61" x="179.883"/><use xlink:href="#DejaVuSans-74" x="241.162"/><use xlink:href="#DejaVuSans-2f" x="280.371"/><use xlink:href="#DejaVuSans-63" x="314.063"/><use xlink:href="#DejaVuSans-68" x="369.043"/><use xlink:href="#DejaVuSans-65" x="432.422"/><use xlink:href="#DejaVuSans-61" x="493.945"/><use xlink:href="#DejaVuSans-74" x="555.225"/></g><g style="fill:#c5b0d5" transform="matrix(.14 0 0 -.14 465.907 310.973)" id="text_35"><use xlink:href="#DejaVuSans-6d"/><use xlink:href="#DejaVuSans-75" x="97.412"/><use xlink:href="#DejaVuSans-65" x="160.791"/><use xlink:href="#DejaVuSans-73" x="222.314"/><use xlink:href="#DejaVuSans-6c" x="274.414"/><use xlink:href="#DejaVuSans-69" x="302.197"/><use xlink:href="#DejaVuSans-2f" x="329.98"/><use xlink:href="#DejaVuSans-64" x="363.672"/><use xlink:href="#DejaVuSans-75" x="427.148"/><use xlink:href="#DejaVuSans-66" x="490.527"/></g><g style="fill:#b0b0b0" transform="matrix(.09716 0 0 -.09716 98.073 338.347)" id="text_36"><defs><path id="DejaVuSans-40" d="M2381 1678q0-447 222-702 222-254 610-254 384 0 604 256 221 256 221 700 0 438-225 695-225 258-607 258-378 0-602-256-223-256-223-697zm1703-934q-187-241-429-355t-564-114q-538 0-874 389t-336 1014q0 625 337 1015 338 391 873 391 322 0 565-117 244-117 428-354v409h447V722q457 69 714 417 258 349 258 902 0 334-99 628-98 294-298 544-325 409-792 626t-1017 217q-384 0-738-102-353-101-653-301-490-319-767-836-276-517-276-1120 0-497 179-932 180-434 521-765 328-325 759-495 431-171 922-171 403 0 792 136t714 389l281-347q-390-303-851-464t-936-161q-578 0-1091 205-512 205-912 595Q841 78 631 592q-209 514-209 1105 0 569 212 1084 213 516 607 907 403 396 931 607t1119 211q662 0 1229-272 568-271 952-771 234-307 357-666 124-359 124-744 0-822-497-1297T4084 263v481z" transform="scale(.01563)"/><path id="DejaVuSans-7c" d="M1344 4891v-6400H813v6400h531z" transform="scale(.01563)"/><path id="DejaVuSans-4e" d="M628 4666h850L3547 763v3903h612V0h-850L1241 3903V0H628v4666z" transform="scale(.01563)"/><path id="DejaVuSans-f6" d="M1959 3097q-462 0-731-361t-269-989q0-628 267-989 268-361 733-361 460 0 728 362 269 363 269 988 0 622-269 986-268 364-728 364zm0 487q750 0 1178-488 429-487 429-1349 0-859-429-1349Q2709-91 1959-91q-753 0-1180 489-426 490-426 1349 0 862 426 1349 427 488 1180 488zm295 1266h634v-631h-634v631zm-1222 0h634v-631h-634v631z" transform="scale(.01563)"/><path id="DejaVuSans-43" d="M4122 4306v-665q-319 297-680 443-361 147-767 147-800 0-1225-489t-425-1414q0-922 425-1411t1225-489q406 0 767 147t680 444V359q-331-225-702-338-370-112-782-112-1060 0-1670 648-609 649-609 1771 0 1125 609 1773 610 649 1670 649 418 0 788-111 371-111 696-333z" transform="scale(.01563)"/><path id="DejaVuSans-59" d="M-13 4666h679l1293-1919 1285 1919h678L2272 2222V0h-634v2222L-13 4666z" transform="scale(.01563)"/></defs><use xlink:href="#DejaVuSans-40"/><use xlink:href="#DejaVuSans-6e" x="100"/><use xlink:href="#DejaVuSans-73" x="163.379"/><use xlink:href="#DejaVuSans-63" x="215.479"/><use xlink:href="#DejaVuSans-68" x="270.459"/><use xlink:href="#DejaVuSans-6c" x="333.838"/><use xlink:href="#DejaVuSans-6f" x="361.621"/><use xlink:href="#DejaVuSans-65" x="422.803"/><use xlink:href="#DejaVuSans-20" x="484.326"/><use xlink:href="#DejaVuSans-2f" x="516.113"/><use xlink:href="#DejaVuSans-20" x="549.805"/><use xlink:href="#DejaVuSans-67" x="581.592"/><use xlink:href="#DejaVuSans-69" x="645.068"/><use xlink:href="#DejaVuSans-74" x="672.852"/><use xlink:href="#DejaVuSans-68" x="712.061"/><use xlink:href="#DejaVuSans-75" x="775.439"/><use xlink:href="#DejaVuSans-62" x="838.818"/><use xlink:href="#DejaVuSans-2d" x="902.295"/><use xlink:href="#DejaVuSans-74" x="938.379"/><use xlink:href="#DejaVuSans-72" x="977.588"/><use xlink:href="#DejaVuSans-65" x="1016.451"/><use xlink:href="#DejaVuSans-6e" x="1077.975"/><use xlink:href="#DejaVuSans-64" x="1141.354"/><use xlink:href="#DejaVuSans-73" x="1204.83"/><use xlink:href="#DejaVuSans-20" x="1256.93"/><use xlink:href="#DejaVuSans-7c" x="1288.717"/><use xlink:href="#DejaVuSans-20" x="1322.408"/><use xlink:href="#DejaVuSans-4e" x="1354.195"/><use xlink:href="#DejaVuSans-69" x="1429"/><use xlink:href="#DejaVuSans-63" x="1456.783"/><use xlink:href="#DejaVuSans-6f" x="1511.764"/><use xlink:href="#DejaVuSans-20" x="1572.945"/><use xlink:href="#DejaVuSans-53" x="1604.732"/><use xlink:href="#DejaVuSans-63" x="1668.209"/><use xlink:href="#DejaVuSans-68" x="1723.189"/><use xlink:href="#DejaVuSans-6c" x="1786.568"/><use xlink:href="#DejaVuSans-f6" x="1814.352"/><use xlink:href="#DejaVuSans-6d" x="1875.533"/><use xlink:href="#DejaVuSans-65" x="1972.945"/><use xlink:href="#DejaVuSans-72" x="2034.469"/><use xlink:href="#DejaVuSans-20" x="2075.582"/><use xlink:href="#DejaVuSans-7c" x="2107.369"/><use xlink:href="#DejaVuSans-20" x="2141.061"/><use xlink:href="#DejaVuSans-43" x="2172.848"/><use xlink:href="#DejaVuSans-43" x="2242.672"/><use xlink:href="#DejaVuSans-20" x="2312.496"/><use xlink:href="#DejaVuSans-42" x="2344.283"/><use xlink:href="#DejaVuSans-59" x="2407.387"/></g><path d="m354.704 304.31 2.843-.007h2.842l2.75-.235 2.843-.837 2.75-.789 2.843-.701 2.842-.338 2.659-.25 2.842-.41 2.75-4.567 2.843-3.538 2.75-1.751 2.843-1.667 2.842-2.081 2.751-.97 2.842-3.354 2.75-1.19 2.843-1.398 2.842-1.123 2.568-1.08 2.842-1.16 2.75-2.54 2.843-3.329 2.75-1.89 2.843-1.469 2.842-1.527 2.75-1.097 2.843-1.156 2.75-1.15 2.843-1.277 2.842-1.538 2.567-1.255 2.843-1.48 2.75-2.991 2.843-1.916 2.75-.951" clip-path="url(#p9629001f17)" style="fill:none;stroke:#ffbb78;stroke-width:1.5;stroke-linecap:square" id="line2d_31"/><path d="m184.534 304.31 2.75-.04 2.843-.026h14.028l2.842-.003 2.567-1.303 2.843-.232 2.75-.044 2.842-.066 2.751-.03 2.842-.065 2.843-.037 2.75-.051 2.843-.044 2.75-.048 2.842-.062 2.843-.074 2.659-.044 2.842-.048 2.75-.102 2.843-.118 2.75-.07 2.843-.077 2.842-.04 2.75-.051 2.843-.081 2.75-.044 2.843-.107 2.842-.066 2.567-.073 2.843-.14 2.75-.25 2.842-.142 2.751-.085 2.842-.136 2.843-7.382 2.75-.51 2.843-.646 2.75-.473 2.842-.364 2.843-.3 2.567-.548 2.842-.396 2.75-.4 2.843-.55 2.75-.28 2.843-.293 2.842-.426 2.75-.514 2.843-.54 2.75-.77 2.843-1.113 2.842-.807 2.568-.522 2.842-.822 2.75-.723 2.843-.782 2.75-.444 2.843-1.979 2.842-.741 2.75-.888 2.843-.815 2.75-.712 2.843-.83 2.842-.877 2.659-1.006 2.842-1.2 2.75-1.135 2.843-1.207 2.75-1.156 2.843-1.054 2.842-1.402 2.751-.885 2.842-1.178 2.75-.925 2.843-.811 2.842-1.777 2.568-.987 2.842-1.454 2.75-1.263 2.843-1.442 2.75-1.41 2.843-1.156 2.842-1.263 2.75-1.321 2.843-1.028 2.75-1.318 2.843-1.934 2.842-2.357 2.567-1.553 2.843-1.24 2.75-1.6 2.843-1.642 2.75-1.193" clip-path="url(#p9629001f17)" style="fill:none;stroke:#aec7e8;stroke-width:1.5;stroke-linecap:square" id="line2d_32"/><path d="m156.661 304.31 2.842-.187 2.75-.07 2.843-.055 2.75-.07 2.843-.164 2.842-.191 2.568-.166 2.842-.157 2.75-.129 2.843-.194 2.75-.246 2.843-.646 2.842-.28 2.75-.3 2.843-.199 2.75-.157 2.843-.21 2.842-.319 2.567-.323 2.843-1.64 2.75-.32 2.842-.378 2.751-.4 2.842-.845 2.843-.414 2.75-.294 2.843-.584 2.75-.495 2.842-.386 2.843-.488 2.659-.356 2.842-.617 2.75-.381 2.843-.404 2.75-.496 2.843-.403 2.842-.514 2.75-.408 2.843-.444 2.75-.426 2.843-.734 2.842-.61 2.567-.572 2.843-.811 2.75-.756 2.842-.613 2.751-.97 2.842-2.631 2.843-.856 2.75-.807 2.843-.995 2.75-1.064 2.842-.944 2.843-.943 2.567-.866 2.842-1.131 2.75-1.06 2.843-1.014 2.75-.976 2.843-.951 2.842-1.252 2.75-1.086 2.843-.852 2.75-.995 2.843-.954 2.842-1.024 2.568-.782 2.842-.991 2.75-.936 2.843-.877 2.75-.922 2.843-.87 2.842-.716 2.75-.708 2.843-.786 2.75-.932 2.843-.697 2.842-.562 2.659-.532 2.842-.65 2.75-.785 2.843-.658 2.75-.587 2.843-.583 2.842-.702 2.751-.627 2.842-.613 2.75-.599 2.843-.73 2.842-.676 2.568-.55 2.842-.712 2.75-.665 2.843-.66 2.75-.606 2.843-.756 2.842-.723 2.75-.632 2.843-.638 2.75-.654 2.843-.749 2.842-1.21 2.567-.629 2.843-.712 2.75-.627 2.843-.68 2.75-.59" clip-path="url(#p9629001f17)" style="fill:none;stroke:#17becf;stroke-width:1.5;stroke-linecap:square" id="line2d_33"/><path d="m120.353 304.31 2.842-2.716 2.843-.018 2.75-.015 2.842-.018 2.751-.004 2.842-.007h2.843l2.567-.107 2.842-.227 2.75-.26 2.843-.933 2.75-.187 2.843-.188 2.842-.242 2.75-.613 2.843-.47 2.75-.286 2.843-.404 2.842-.275 2.568-.554 2.842-.419 2.75-.283 2.843-.392 2.75-1.384 2.843-.415 2.842-.378 2.75-.51 2.843-.382 2.75-.316 2.843-.345 2.842-.462 2.567-.635 2.843-.562 2.75-1.88 2.842-.572 2.751-.613 2.842-.43 2.843-.704 2.75-.507 2.843-.55 2.75-.445 2.842-.473 2.843-.694 2.659-.58 2.842-.807 2.75-.566 2.843-.583 2.75-.62 2.843-.65 2.842-.573 2.75-.525 2.843-.595 2.75-.789 2.843-.815 2.842-.686 2.567-.558 2.843-.734 2.75-.665 2.842-.954 2.751-.752 2.842-.716 2.843-.672 2.75-.595 2.843-.822 2.75-.79 2.842-.84 2.843-.855 2.567-.811 2.842-.745 2.75-.951 2.843-.877 2.75-.797 2.843-.793 2.842-.936 2.75-.796 2.843-.874 2.75-1.013 2.843-.914 2.842-.988 2.568-.836 2.842-.992 2.75-.932 2.843-.752 2.75-.878 2.843-.903 2.842-.884 2.75-.9 2.843-.796 2.75-.822 2.843-.683 2.842-.683 2.659-.708 2.842-.848 2.75-1.032 2.843-.837 2.75-.793 2.843-.837 2.842-.73 2.751-.775 2.842-.752 2.75-.738 2.843-.778 2.842-.844 2.568-.779 2.842-.785 2.75-.907 2.843-.715 2.75-.892 2.843-.738 2.842-.951 2.75-.929 2.843-.72 2.75-.832 2.843-.984 2.842-.874 2.567-.804 2.843-.848 2.75-1.233 2.843-.973 2.75-.815" clip-path="url(#p9629001f17)" style="fill:none;stroke:#bcbd22;stroke-width:1.5;stroke-linecap:square" id="line2d_34"/><path d="m282.18 304.31 2.842-.084 2.751-1.006 2.842-.161 2.843-.096 2.75-.341 2.843-10.726 2.75-1.042 2.842-.426 2.843-2.386 2.567-.66 2.842-.669 2.75-.844 2.843-1.145 2.75-.841 2.843-.631 2.842-1.45 2.75-1.623 2.843-1.072 2.75-1.512 2.843-.95 2.842-1.766 2.568-1.13 2.842-1.58 2.75-1.012 2.843-1.182 2.75-.87 2.843-1.061 2.842-1.27 2.75-1.145 2.843-1.355 2.75-1.186 2.843-.906 2.842-1.02 2.659-1.51 2.842-1.383 2.75-1.447 2.843-1.622 2.75-1.527 2.843-1.307 2.842-1.439 2.751-1.248 2.842-1.24 2.75-1.058 2.843-1.075 2.842-1.23 2.568-1.072 2.842-1.116 2.75-1.097 2.843-1.219 2.75-1.541 2.843-1.322 2.842-2.217 2.75-1.391 2.843-1.024 2.75-1.34 2.843-1.384 2.842-1.795 2.567-1.314 2.843-1.472 2.75-3.021 2.843-4.265 2.75-2.177" clip-path="url(#p9629001f17)" style="fill:none;stroke:#7f7f7f;stroke-width:1.5;stroke-linecap:square" id="line2d_35"/><path d="m98.073 304.31 2.75-2.709 25.215-.15 14.028-.018 5.41-1.513 2.75-.76 2.842-.624 2.75-.264 2.843-.58 11.186-1.806 2.842-.466 5.41-1.17 2.842-.79 2.75-.518 2.843-.668 2.75-.389 2.843-.668 5.593-.976 5.592-1.013 8.252-2.54 2.843-.922 5.592-1.391 2.751-.988 5.685-1.684 2.75-.8 2.843-1.025 8.435-2.599 8.252-2.309 5.592-2.253 2.843-.86 2.842-1.05 2.75-1.277 2.843-.976 2.75-1.072 2.843-.815 5.41-1.839 2.842-1.057 2.75-.84 2.842-1.285 2.751-1.087 5.685-1.736 5.593-1.923 2.75-.98 2.842-.812 8.252-2.84 14.028-3.855 5.593-1.6 2.75-1.16 2.843-.834 16.595-5.616 8.436-2.056 11.277-2.496 8.252-2.411 2.842-1.024 5.593-1.472 41.9-8.726 5.594-1.373 13.845-2.848 2.75-.525h0" clip-path="url(#p9629001f17)" style="fill:none;stroke:#e377c2;stroke-width:1.5;stroke-linecap:square" id="line2d_36"/><path d="m282.18 304.31 2.842-.572 2.751-.239 2.842-.15 2.843-.1 2.75-.036 2.843-.096 2.75-.12 2.842-.14 2.843-.08 2.567-.1 2.842-.037 2.75-.12 2.843-.118 2.75-.074 2.843-37.713 2.842-8.064 2.75-1.88 2.843-.917 2.75-.944 2.843-.7 2.842-1.102 2.568-.892 2.842-.822 2.75-1.81 2.843-1.52 2.75-.682 2.843-1.513 2.842-1.167 2.75-.686 2.843-.68 2.75-.495 2.843-.573 2.842-.83 2.659-.656 2.842-.819 2.75-.572 2.843-.668 2.75-.819 2.843-.61 2.842-.638 2.751-.51 2.842-2.445 2.75-8.362 2.843-2.434 2.842-1.427 2.568-1.241 2.842-.962 2.75-1.16 2.843-1.259 2.75-6.794 2.843-1.058 2.842-1.002 2.75-1.596 2.843-1.19 2.75-.888 2.843-.925 2.842-.907 2.567-.88 2.843-1.12 2.75-.944 2.843-1.963 2.75-1.241" clip-path="url(#p9629001f17)" style="fill:none;stroke:#8c564b;stroke-width:1.5;stroke-linecap:square" id="line2d_37"/><path d="m243.122 304.31 2.842-.014h11.186l2.842-.008 2.75-6.009 2.843-1.578 2.75-.9 2.843-1.064 2.842-1.468 2.567-.84 2.843-1.726 2.75-1.608 2.842-.921 2.751-.804 2.842-1.042 2.843-1.171 2.75-1.564 2.843-2.29 2.75-1.495 2.842-1.002 2.843-1.255 2.567-1.534 2.842-1.197 2.75-1.076 2.843-1.277 2.75-1.01 2.843-1.17 2.842-1.303 2.75-2.83 2.843-1.436 2.75-1.916 2.843-1.252 2.842-1.633 2.568-1.446 2.842-1.71 2.75-3.283 2.843-1.637 2.75-1.567 2.843-1.7 2.842-1.475 2.75-1.245 2.843-1.457 2.75-1.472 2.843-1.314 2.842-1.813 2.659-1.979 2.842-1.898 2.75-1.798 2.843-2.137 2.75-1.853 2.843-1.597 2.842-1.791 2.751-1.535 2.842-1.578 2.75-1.791 2.843-1.828 2.842-1.751 2.568-1.395 2.842-1.612 2.75-1.886 2.843-1.755 2.75-3.102 2.843-1.718 2.842-1.655 2.75-1.476 2.843-1.773 2.75-2.052 2.843-1.674 2.842-1.905 2.567-1.67 2.843-2 2.75-2.364 2.843-2.023 2.75-2.15" clip-path="url(#p9629001f17)" style="fill:none;stroke:#9467bd;stroke-width:1.5;stroke-linecap:square" id="line2d_38"/><path d="m312.895 304.31 2.75-.33 2.843-8.817 2.75-.807 2.843-1.351 2.842-6.376 2.75-12.708 2.843-2.643 2.75-4.078 2.843-1.605 2.842-2.866 2.568-1.861 2.842-2.254 2.75-1.755 2.843-1.435 2.75-1.402 2.843-1.715 2.842-1.431 2.75-1.99 2.843-2.169 2.75-2.026 2.843-1.535 2.842-1.787 2.659-1.751 2.842-2.533 2.75-2.489 2.843-2.676 2.75-2.378 2.843-2.038 2.842-4.096 2.751-1.935 2.842-2.294 2.75-1.901 2.843-1.802 2.842-2.074 2.568-1.883 2.842-1.806 2.75-2.911 2.843-2.287 2.75-2.456 2.843-2.584 2.842-2.243 2.75-1.868 2.843-1.982 2.75-1.887 2.843-1.927 2.842-3.792 2.567-3.04 2.843-2.217 2.75-2.955 2.843-3.186 2.75-2.118" clip-path="url(#p9629001f17)" style="fill:none;stroke:#d62728;stroke-width:1.5;stroke-linecap:square" id="line2d_39"/><path d="m167.847 304.31 2.842-.077 2.842-1.736 2.568-2.32 2.842-.62 2.75-.231 2.843-.074 2.75-.051 2.843-.026 2.842-.059 2.75-.047 2.843-.066 2.75-.048 2.843-.051 2.842-.107 2.567-.187 2.843-.059 2.75-.132 2.842-.07 2.751-.084 2.842-.04 2.843-.247 2.75-.055 2.843-.352 2.75-.121 2.842-11.17 2.843-6.545 2.659-.734 2.842-.514 2.75-.547 2.843-.294 2.75-.473 2.843-.367 2.842-.309 2.75-.422 2.843-.403 2.75-.485 2.843-.624 2.842-.415 2.567-.72 2.843-.726 2.75-.407 2.842-.742 2.751-.595 2.842-.499 2.843-.84 2.75-.848 2.843-2.06 2.75-13.633 2.842-4.416 2.843-1.185 2.567-.797 2.842-.888 2.75-1.013 2.843-1.256 2.75-.7 2.843-1.076 2.842-1.582 2.75-1.744 2.843-1.259 2.75-1.35 2.843-1.862 2.842-2.408 2.568-2.037 2.842-2.173 2.75-1.637 2.843-1.461 2.75-1.068 2.843-1.127 2.842-.95 2.75-1.183 2.843-1.274 2.75-1.149 2.843-.873 2.842-4.343 2.659-1.707 2.842-1.361 2.75-1.127 2.843-1.278 2.75-1.295 2.843-1.454 2.842-1.509 2.751-1.27 2.842-2.158 2.75-1.766 2.843-1.31 2.842-1.48 2.568-1.108 2.842-1.344 2.75-2.334 2.843-5.337 2.75-1.74 2.843-1.571 2.842-1.509 2.75-1.358 2.843-4.816 2.75-1.648 2.843-1.615 2.842-2.148 2.567-1.387 2.843-1.913 2.75-2.195 2.843-1.59 2.75-1.603" clip-path="url(#p9629001f17)" style="fill:none;stroke:#2ca02c;stroke-width:1.5;stroke-linecap:square" id="line2d_40"/><path d="m162.254 304.31 2.842-.003 2.75-.224 2.843-.022 2.842-.026 2.568-.106 2.842-.228 2.75-.158 2.843-.154 2.75-.716 2.843-.198 2.842-.297 2.75-.37 2.843-.236 2.75-.147 2.843-.154 2.842-.576 2.567-.21 2.843-.697 2.75-.47 2.842-1.05 2.751-.561 2.842-.811 2.843-.826 2.75-.687 2.843-.936 2.75-1.211 2.842-.709 2.843-1.34 2.659-1.174 2.842-1.046 2.75-.907 2.843-.815 2.75-.866 2.843-.819 2.842-1.174 2.75-.98 2.843-.991 2.75-.922 2.843-.958 2.842-1.402 2.567-1.123 2.843-1.861 2.75-1.645 2.842-1.758 2.751-1.175 2.842-1.027 2.843-1.047 2.75-1.163 2.843-4.192 2.75-2.092 2.842-1.572 2.843-1.57 2.567-1.337 2.842-1.703 2.75-1.564 2.843-1.74 2.75-1.424 2.843-1.718 2.842-2.628 2.75-2.97 2.843-1.787 2.75-2.067 2.843-1.787 2.842-2.511 2.568-2.023 2.842-2.51 2.75-2.287 2.843-2.28 2.75-2.103 2.843-2.54 2.842-2.14 2.75-2.236 2.843-2.309 2.75-2.316 2.843-2.254 2.842-2.29 2.659-2.283 2.842-2.842 2.75-2.962 2.843-3.025 2.75-2.826 2.843-2.17 2.842-2.066 2.751-2.243 2.842-2.353 2.75-2.371 2.843-2.302 2.842-2.367 2.568-2.32 2.842-2.485 2.75-2.676 2.843-2.232 2.75-2.276 2.843-2.507 2.842-2.496 2.75-2.463 2.843-2.184 2.75-2.551 2.843-2.302 2.842-2.613 2.567-2.144 2.843-3.263 2.75-3.065 2.843-2.885 2.75-2.662" clip-path="url(#p9629001f17)" style="fill:none;stroke:#ff7f0e;stroke-width:1.5;stroke-linecap:square" id="line2d_41"/><path d="m212.407 304.31 2.75-29.196 2.842-5.462 2.751-3.803 2.842-3.447 2.843-1.935 2.75-1.982 2.843-4.937 2.75-2.966 2.842-1.431 2.843-6.376 2.659-2.1 2.842-2.357 2.75-1.824 2.843-1.292 2.75-2.015 2.843-1.138 2.842-1.648 2.75-1.726 2.843-1.266 2.75-1.35 2.843-1.502 2.842-2.206 2.567-1.82 2.843-1.943 2.75-5.282 2.842-6.328 2.751-1.913 2.842-2.242 2.843-4.313 2.75-2.24 2.843-2.43 2.75-2.125 2.842-1.523 2.843-2.162 2.567-2.217 2.842-2.295 2.75-1.831 2.843-2.247 2.75-1.59 2.843-1.747 2.842-1.633 2.75-2.533 2.843-3.017 2.75-2.136 2.843-2.427 2.842-3.553 2.568-2.588 2.842-4.13 2.75-3.67 2.843-2.467 2.75-2.078 2.843-2.496 2.842-4.43 2.75-5.892 2.843-7.205 2.75-2.342 2.843-2.298 2.842-2.283 2.659-1.927 2.842-1.806 2.75-2.107 2.843-1.854 2.75-1.597 2.843-1.659 2.842-2.75 2.751-2.033 2.842-4.313 2.75-2.826 2.843-2.328 2.842-2.18 2.568-1.736 2.842-1.825 2.75-3.248 2.843-7.022 2.75-2.078 2.843-1.788 2.842-2.169 2.75-1.501 2.843-1.814 2.75-1.758 2.843-2.848 2.842-3.642 2.567-2.202 2.843-10.183 2.75-3.975 2.843-3.194 2.75-2.364" clip-path="url(#p9629001f17)" style="fill:none;stroke:#1f77b4;stroke-width:1.5;stroke-linecap:square" id="line2d_42"/></g></g><defs><clipPath id="p9629001f17"><path d="M98.073 38.198h357.12V304.31H98.073z"/></clipPath></defs></svg>