<svg xmlns="http://www.w3.org/2000/svg" xmlns:xlink="http://www.w3.org/1999/xlink" width="817.102" height="431.485" viewBox="0 0 612.827 323.614"><defs><style>*{stroke-linejoin:round;stroke-linecap:butt}</style></defs><g id="figure_1"><path id="patch_1" d="M0 323.614h612.827V0H0v323.614z" style="fill:none"/><g id="axes_1"><path id="patch_2" d="M98.073 280.087h357.12V13.975H98.073v266.112z" style="fill:none"/><g id="matplotlib.axis_1"><g id="xtick_1"><g id="line2d_1"><defs><path id="m36a4251b21" d="M0 0v3.5" style="stroke:#b0b0b0;stroke-width:.4"/></defs><use xlink:href="#m36a4251b21" x="122.835" y="280.087" style="fill:#b0b0b0;stroke:#b0b0b0;stroke-width:.4"/></g><g id="text_1" style="fill:#b0b0b0" transform="matrix(.14 0 0 -.14 105.02 297.724)"><defs><path id="DejaVuSans-32" d="M1228 531h2203V0H469v531q359 372 979 998 621 627 780 809 303 340 423 576 121 236 121 464 0 372-261 606-261 235-680 235-297 0-627-103-329-103-704-313v638q381 153 712 231 332 78 607 78 725 0 1156-363 431-362 431-968 0-288-108-546-107-257-392-607-78-91-497-524-418-433-1181-1211z" transform="scale(.01563)"/><path id="DejaVuSans-30" d="M2034 4250q-487 0-733-480-245-479-245-1442 0-959 245-1439 246-480 733-480 491 0 736 480 246 480 246 1439 0 963-246 1442-245 480-736 480zm0 500q785 0 1199-621 414-620 414-1801 0-1178-414-1799Q2819-91 2034-91q-784 0-1198 620-414 621-414 1799 0 1181 414 1801 414 621 1198 621z" transform="scale(.01563)"/><path id="DejaVuSans-31" d="M794 531h1031v3560L703 3866v575l1116 225h631V531h1031V0H794v531z" transform="scale(.01563)"/></defs><use xlink:href="#DejaVuSans-32"/><use xlink:href="#DejaVuSans-30" x="63.623"/><use xlink:href="#DejaVuSans-31" x="127.246"/><use xlink:href="#DejaVuSans-30" x="190.869"/></g></g><g id="xtick_2"><use xlink:href="#m36a4251b21" id="line2d_2" x="172.36" y="280.087" style="fill:#b0b0b0;stroke:#b0b0b0;stroke-width:.4"/><g id="text_2" style="fill:#b0b0b0" transform="matrix(.14 0 0 -.14 154.545 297.724)"><use xlink:href="#DejaVuSans-32"/><use xlink:href="#DejaVuSans-30" x="63.623"/><use xlink:href="#DejaVuSans-31" x="127.246"/><use xlink:href="#DejaVuSans-32" x="190.869"/></g></g><g id="xtick_3"><use xlink:href="#m36a4251b21" id="line2d_3" x="221.953" y="280.087" style="fill:#b0b0b0;stroke:#b0b0b0;stroke-width:.4"/><g id="text_3" style="fill:#b0b0b0" transform="matrix(.14 0 0 -.14 204.138 297.724)"><defs><path id="DejaVuSans-34" d="M2419 4116 825 1625h1594v2491zm-166 550h794V1625h666v-525h-666V0h-628v1100H313v609l1940 2957z" transform="scale(.01563)"/></defs><use xlink:href="#DejaVuSans-32"/><use xlink:href="#DejaVuSans-30" x="63.623"/><use xlink:href="#DejaVuSans-31" x="127.246"/><use xlink:href="#DejaVuSans-34" x="190.869"/></g></g><g id="xtick_4"><use xlink:href="#m36a4251b21" id="line2d_4" x="271.477" y="280.087" style="fill:#b0b0b0;stroke:#b0b0b0;stroke-width:.4"/><g id="text_4" style="fill:#b0b0b0" transform="matrix(.14 0 0 -.14 253.662 297.724)"><defs><path id="DejaVuSans-36" d="M2113 2584q-425 0-674-291-248-290-248-796 0-503 248-796 249-292 674-292t673 292q248 293 248 796 0 506-248 796-248 291-673 291zm1253 1979v-575q-238 112-480 171-242 60-480 60-625 0-955-422-329-422-376-1275 184 272 462 417 279 145 613 145 703 0 1111-427 408-426 408-1160 0-719-425-1154Q2819-91 2113-91q-810 0-1238 620-428 621-428 1799 0 1106 525 1764t1409 658q238 0 480-47t505-140z" transform="scale(.01563)"/></defs><use xlink:href="#DejaVuSans-32"/><use xlink:href="#DejaVuSans-30" x="63.623"/><use xlink:href="#DejaVuSans-31" x="127.246"/><use xlink:href="#DejaVuSans-36" x="190.869"/></g></g><g id="xtick_5"><use xlink:href="#m36a4251b21" id="line2d_5" x="321.07" y="280.087" style="fill:#b0b0b0;stroke:#b0b0b0;stroke-width:.4"/><g id="text_5" style="fill:#b0b0b0" transform="matrix(.14 0 0 -.14 303.255 297.724)"><defs><path id="DejaVuSans-38" d="M2034 2216q-450 0-708-241-257-241-257-662 0-422 257-663 258-241 708-241t709 242q260 243 260 662 0 421-258 662-257 241-711 241zm-631 268q-406 100-633 378-226 279-226 679 0 559 398 884 399 325 1092 325 697 0 1094-325t397-884q0-400-227-679-226-278-629-378 456-106 710-416 255-309 255-755 0-679-414-1042Q2806-91 2034-91q-771 0-1186 362-414 363-414 1042 0 446 256 755 257 310 713 416zm-231 997q0-362 226-565 227-203 636-203 407 0 636 203 230 203 230 565 0 363-230 566-229 203-636 203-409 0-636-203-226-203-226-566z" transform="scale(.01563)"/></defs><use xlink:href="#DejaVuSans-32"/><use xlink:href="#DejaVuSans-30" x="63.623"/><use xlink:href="#DejaVuSans-31" x="127.246"/><use xlink:href="#DejaVuSans-38" x="190.869"/></g></g><g id="xtick_6"><use xlink:href="#m36a4251b21" id="line2d_6" x="370.594" y="280.087" style="fill:#b0b0b0;stroke:#b0b0b0;stroke-width:.4"/><g id="text_6" style="fill:#b0b0b0" transform="matrix(.14 0 0 -.14 352.78 297.724)"><use xlink:href="#DejaVuSans-32"/><use xlink:href="#DejaVuSans-30" x="63.623"/><use xlink:href="#DejaVuSans-32" x="127.246"/><use xlink:href="#DejaVuSans-30" x="190.869"/></g></g><g id="xtick_7"><use xlink:href="#m36a4251b21" id="line2d_7" x="420.187" y="280.087" style="fill:#b0b0b0;stroke:#b0b0b0;stroke-width:.4"/><g id="text_7" style="fill:#b0b0b0" transform="matrix(.14 0 0 -.14 402.372 297.724)"><use xlink:href="#DejaVuSans-32"/><use xlink:href="#DejaVuSans-30" x="63.623"/><use xlink:href="#DejaVuSans-32" x="127.246"/><use xlink:href="#DejaVuSans-32" x="190.869"/></g></g></g><g id="matplotlib.axis_2"><g id="ytick_1"><path id="line2d_8" d="M98.073 280.087h357.12" clip-path="url(#pb03f256244)" style="fill:none;stroke:#b0b0b0;stroke-width:.3;stroke-linecap:square"/><g id="line2d_9"><defs><path id="mfd4a841cbb" d="M0 0h-3.5" style="stroke:#b0b0b0;stroke-width:.3"/></defs><use xlink:href="#mfd4a841cbb" x="98.073" y="280.087" style="fill:#b0b0b0;stroke:#b0b0b0;stroke-width:.3"/></g><use xlink:href="#DejaVuSans-30" id="text_8" style="fill:#b0b0b0" transform="matrix(.14 0 0 -.14 82.166 285.406)"/></g><g id="ytick_2"><path id="line2d_10" d="M98.073 235.097h357.12" clip-path="url(#pb03f256244)" style="fill:none;stroke:#b0b0b0;stroke-width:.3;stroke-linecap:square"/><use xlink:href="#mfd4a841cbb" id="line2d_11" x="98.073" y="235.097" style="fill:#b0b0b0;stroke:#b0b0b0;stroke-width:.3"/><g id="text_9" style="fill:#b0b0b0" transform="matrix(.14 0 0 -.14 46.536 240.416)"><use xlink:href="#DejaVuSans-31"/><use xlink:href="#DejaVuSans-30" x="63.623"/><use xlink:href="#DejaVuSans-30" x="127.246"/><use xlink:href="#DejaVuSans-30" x="190.869"/><use xlink:href="#DejaVuSans-30" x="254.492"/></g></g><g id="ytick_3"><path id="line2d_12" d="M98.073 190.108h357.12" clip-path="url(#pb03f256244)" style="fill:none;stroke:#b0b0b0;stroke-width:.3;stroke-linecap:square"/><use xlink:href="#mfd4a841cbb" id="line2d_13" x="98.073" y="190.108" style="fill:#b0b0b0;stroke:#b0b0b0;stroke-width:.3"/><g id="text_10" style="fill:#b0b0b0" transform="matrix(.14 0 0 -.14 46.536 195.427)"><use xlink:href="#DejaVuSans-32"/><use xlink:href="#DejaVuSans-30" x="63.623"/><use xlink:href="#DejaVuSans-30" x="127.246"/><use xlink:href="#DejaVuSans-30" x="190.869"/><use xlink:href="#DejaVuSans-30" x="254.492"/></g></g><g id="ytick_4"><path id="line2d_14" d="M98.073 145.119h357.12" clip-path="url(#pb03f256244)" style="fill:none;stroke:#b0b0b0;stroke-width:.3;stroke-linecap:square"/><use xlink:href="#mfd4a841cbb" id="line2d_15" x="98.073" y="145.119" style="fill:#b0b0b0;stroke:#b0b0b0;stroke-width:.3"/><g id="text_11" style="fill:#b0b0b0" transform="matrix(.14 0 0 -.14 46.536 150.438)"><defs><path id="DejaVuSans-33" d="M2597 2516q453-97 707-404 255-306 255-756 0-690-475-1069Q2609-91 1734-91q-293 0-604 58T488 141v609q262-153 574-231 313-78 654-78 593 0 904 234t311 681q0 413-289 645-289 233-804 233h-544v519h569q465 0 712 186t247 536q0 359-255 551-254 193-729 193-260 0-557-57-297-56-653-174v562q360 100 674 150t592 50q719 0 1137-327 419-326 419-882 0-388-222-655t-631-370z" transform="scale(.01563)"/></defs><use xlink:href="#DejaVuSans-33"/><use xlink:href="#DejaVuSans-30" x="63.623"/><use xlink:href="#DejaVuSans-30" x="127.246"/><use xlink:href="#DejaVuSans-30" x="190.869"/><use xlink:href="#DejaVuSans-30" x="254.492"/></g></g><g id="ytick_5"><path id="line2d_16" d="M98.073 100.13h357.12" clip-path="url(#pb03f256244)" style="fill:none;stroke:#b0b0b0;stroke-width:.3;stroke-linecap:square"/><use xlink:href="#mfd4a841cbb" id="line2d_17" x="98.073" y="100.129" style="fill:#b0b0b0;stroke:#b0b0b0;stroke-width:.3"/><g id="text_12" style="fill:#b0b0b0" transform="matrix(.14 0 0 -.14 46.536 105.448)"><use xlink:href="#DejaVuSans-34"/><use xlink:href="#DejaVuSans-30" x="63.623"/><use xlink:href="#DejaVuSans-30" x="127.246"/><use xlink:href="#DejaVuSans-30" x="190.869"/><use xlink:href="#DejaVuSans-30" x="254.492"/></g></g><g id="ytick_6"><path id="line2d_18" d="M98.073 55.14h357.12" clip-path="url(#pb03f256244)" style="fill:none;stroke:#b0b0b0;stroke-width:.3;stroke-linecap:square"/><use xlink:href="#mfd4a841cbb" id="line2d_19" x="98.073" y="55.14" style="fill:#b0b0b0;stroke:#b0b0b0;stroke-width:.3"/><g id="text_13" style="fill:#b0b0b0" transform="matrix(.14 0 0 -.14 46.536 60.459)"><defs><path id="DejaVuSans-35" d="M691 4666h2478v-532H1269V2991q137 47 274 70 138 23 276 23 781 0 1237-428 457-428 457-1159 0-753-469-1171Q2575-91 1722-91q-294 0-599 50Q819 9 494 109v635q281-153 581-228t634-75q541 0 856 284 316 284 316 772 0 487-316 771-315 285-856 285-253 0-505-56-251-56-513-175v2344z" transform="scale(.01563)"/></defs><use xlink:href="#DejaVuSans-35"/><use xlink:href="#DejaVuSans-30" x="63.623"/><use xlink:href="#DejaVuSans-30" x="127.246"/><use xlink:href="#DejaVuSans-30" x="190.869"/><use xlink:href="#DejaVuSans-30" x="254.492"/></g></g><g id="text_14" style="fill:#b0b0b0" transform="matrix(.14 0 0 -.14 7.2 25.617)"><defs><path id="DejaVuSans-47" d="M3809 666v1253H2778v519h1656V434q-365-259-806-392-440-133-940-133-1094 0-1712 639-617 640-617 1780 0 1144 617 1783 618 639 1712 639 456 0 867-113 411-112 758-331v-672q-350 297-744 447t-828 150q-857 0-1287-478-429-478-429-1425 0-944 429-1422 430-478 1287-478 334 0 596 58 263 58 472 180z" transform="scale(.01563)"/><path id="DejaVuSans-69" d="M603 3500h575V0H603v3500zm0 1363h575v-729H603v729z" transform="scale(.01563)"/><path id="DejaVuSans-74" d="M1172 4494v-994h1184v-447H1172V1153q0-428 117-550t477-122h590V0h-590q-666 0-919 248-253 249-253 905v1900H172v447h422v994h578z" transform="scale(.01563)"/><path id="DejaVuSans-48" d="M628 4666h631V2753h2294v1913h631V0h-631v2222H1259V0H628v4666z" transform="scale(.01563)"/><path id="DejaVuSans-75" d="M544 1381v2119h575V1403q0-497 193-746 194-248 582-248 465 0 735 297 271 297 271 810v1984h575V0h-575v538q-209-319-486-474-276-155-642-155-603 0-916 375-312 375-312 1097zm1447 2203z" transform="scale(.01563)"/><path id="DejaVuSans-62" d="M3116 1747q0 634-261 995t-717 361q-457 0-718-361t-261-995q0-634 261-995t718-361q456 0 717 361t261 995zM1159 2969q182 312 458 463 277 152 661 152 638 0 1036-506 399-506 399-1331T3314 415Q2916-91 2278-91q-384 0-661 152-276 152-458 464V0H581v4863h578V2969z" transform="scale(.01563)"/><path id="DejaVuSans-73" d="M2834 3397v-544q-243 125-506 187-262 63-544 63-428 0-642-131t-214-394q0-200 153-314t616-217l197-44q612-131 870-370t258-667q0-488-386-773Q2250-91 1575-91q-281 0-586 55T347 128v594q319-166 628-249 309-82 613-82 406 0 624 139 219 139 219 392 0 234-158 359-157 125-692 241l-200 47q-534 112-772 345-237 233-237 639 0 494 350 762 350 269 994 269 318 0 599-47 282-46 519-140z" transform="scale(.01563)"/><path id="DejaVuSans-61" d="M2194 1759q-697 0-966-159t-269-544q0-306 202-486 202-179 548-179 479 0 768 339t289 901v128h-572zm1147 238V0h-575v531q-197-318-491-470T1556-91q-537 0-855 302-317 302-317 808 0 590 395 890 396 300 1180 300h807v57q0 397-261 614t-733 217q-300 0-585-72-284-72-546-216v532q315 122 612 182 297 61 578 61 760 0 1135-394 375-393 375-1193z" transform="scale(.01563)"/><path id="DejaVuSans-72" d="M2631 2963q-97 56-211 82-114 27-251 27-488 0-749-317t-261-911V0H581v3500h578v-544q182 319 472 473 291 155 707 155 59 0 131-8 72-7 159-23l3-590z" transform="scale(.01563)"/></defs><use xlink:href="#DejaVuSans-47"/><use xlink:href="#DejaVuSans-69" x="77.49"/><use xlink:href="#DejaVuSans-74" x="105.273"/><use xlink:href="#DejaVuSans-48" x="144.482"/><use xlink:href="#DejaVuSans-75" x="219.678"/><use xlink:href="#DejaVuSans-62" x="283.057"/><use xlink:href="#DejaVuSans-20" x="346.533"/><use xlink:href="#DejaVuSans-73" x="378.32"/><use xlink:href="#DejaVuSans-74" x="430.42"/><use xlink:href="#DejaVuSans-61" x="469.629"/><use xlink:href="#DejaVuSans-72" x="530.908"/><use xlink:href="#DejaVuSans-73" x="572.021"/></g></g><path id="line2d_20" d="m139.321 280.087 2.035-2.187 10.244-.576 12.483-.625 10.38-.405 26.73-.535 12.483-1.206 10.38-1.116 1.9-.288 4.138-1.183 4.138-.67 2.103-.55 4.138-.737 4.139-.742 14.382-2.695 4.206-.459 12.348-1.503 8.276-.89 37.246-3.825 4.002-.512 10.38-.869 16.486-1.156 12.415-1.22 8.344-.863 22.727-1.984 10.245-.913 49.524-4.391h0" clip-path="url(#pb03f256244)" style="fill:none;stroke:#8c564b;stroke-width:1.5;stroke-linecap:square"/><path id="line2d_21" d="m98.073 280.087 2.103-2.592 6.038-.612 26.866-1.736 10.38-.59 8.14-.512 8.277-.536 6.242-.306 2.103-.679 32.97-.099 16.622-1.584 8.141-.688 10.38-1.363 4.138-.756 8.345-1.125 4.003-.58 2.035-.418 8.344-1.12 12.348-1.476 8.276-.94 18.59-2.11 4.137-.491 16.622-1.705 6.038-.58 6.241-.509 2.103-.121 8.277-1.017 6.106-.459 2.035-.324 6.241-.571 10.38-1.013 55.698-4.588 6.174-.432 4.206-.32 16.418-1.219 2.103-.18h0" clip-path="url(#pb03f256244)" style="fill:none;stroke:#9467bd;stroke-width:1.5;stroke-linecap:square"/><path id="line2d_22" d="m149.7 280.087 1.9-2.992 8.277-.45 22.795-.77 16.621-.188 4.003-.981 4.138-.747 2.036-.882 2.103-.746 12.483-3.114 1.9-1.088 6.24-2.007 2.036-.364 4.206-1.319 12.28-3.437 6.241-1.934 10.38-2.614 4.138-1.062 2.103-.4 4.07-1.044 2.036-.477 2.103-.333 4.138-.864 8.277-1.664 24.762-5.759 4.207-.886 4.002-.95 2.036-.346 2.103-.53 2.035-.36 2.103-.568 24.762-5.24 2.104-.554 6.173-1.111 10.312-1.85 2.103-1.124 10.38-1.642 2.035-.383 6.106-.904 4.138-.805 4.139-.486 4.206-.662 8.277-1.106 8.14-1.206 2.104-1.102 6.241-.945 6.174-.985 10.244-1.66 2.103-.41h0" clip-path="url(#pb03f256244)" style="fill:none;stroke:#d62728;stroke-width:1.5;stroke-linecap:square"/><g id="text_15" style="fill:#1f77b4" transform="matrix(.14 0 0 -.14 465.907 17.838)"><defs><path id="DejaVuSans-6e" d="M3513 2113V0h-575v2094q0 497-194 743-194 247-581 247-466 0-735-297-269-296-269-809V0H581v3500h578v-544q207 316 486 472 280 156 646 156 603 0 912-373 310-373 310-1098z" transform="scale(.01563)"/><path id="DejaVuSans-6c" d="M603 4863h575V0H603v4863z" transform="scale(.01563)"/><path id="DejaVuSans-65" d="M3597 1894v-281H953q38-594 358-905t892-311q331 0 642 81t618 244V178Q3153 47 2828-22t-659-69q-838 0-1327 487-489 488-489 1320 0 859 464 1363 464 505 1252 505 706 0 1117-455 411-454 411-1235zm-575 169q-6 471-264 752-258 282-683 282-481 0-770-272t-333-766l2050 4z" transform="scale(.01563)"/><path id="DejaVuSans-2f" d="M1625 4666h531L531-594H0l1625 5260z" transform="scale(.01563)"/></defs><use xlink:href="#DejaVuSans-61"/><use xlink:href="#DejaVuSans-6e" x="61.279"/><use xlink:href="#DejaVuSans-73" x="124.658"/><use xlink:href="#DejaVuSans-69" x="176.758"/><use xlink:href="#DejaVuSans-62" x="204.541"/><use xlink:href="#DejaVuSans-6c" x="268.018"/><use xlink:href="#DejaVuSans-65" x="295.801"/><use xlink:href="#DejaVuSans-2f" x="357.324"/><use xlink:href="#DejaVuSans-61" x="391.016"/><use xlink:href="#DejaVuSans-6e" x="452.295"/><use xlink:href="#DejaVuSans-73" x="515.674"/><use xlink:href="#DejaVuSans-69" x="567.773"/><use xlink:href="#DejaVuSans-62" x="595.557"/><use xlink:href="#DejaVuSans-6c" x="659.033"/><use xlink:href="#DejaVuSans-65" x="686.816"/></g><g id="text_16" style="fill:#ff7f0e" transform="matrix(.14 0 0 -.14 465.907 110.808)"><defs><path id="DejaVuSans-68" d="M3513 2113V0h-575v2094q0 497-194 743-194 247-581 247-466 0-735-297-269-296-269-809V0H581v4863h578V2956q207 316 486 472 280 156 646 156 603 0 912-373 310-373 310-1098z" transform="scale(.01563)"/><path id="DejaVuSans-63" d="M3122 3366v-538q-244 135-489 202t-495 67q-560 0-870-355-309-354-309-995t309-996q310-354 870-354 250 0 495 67t489 202V134Q2881 22 2623-34q-257-57-548-57-791 0-1257 497-465 497-465 1341 0 856 470 1346 471 491 1290 491 265 0 518-55 253-54 491-163z" transform="scale(.01563)"/><path id="DejaVuSans-6f" d="M1959 3097q-462 0-731-361t-269-989q0-628 267-989 268-361 733-361 460 0 728 362 269 363 269 988 0 622-269 986-268 364-728 364zm0 487q750 0 1178-488 429-487 429-1349 0-859-429-1349Q2709-91 1959-91q-753 0-1180 489-426 490-426 1349 0 862 426 1349 427 488 1180 488z" transform="scale(.01563)"/><path id="DejaVuSans-70" d="M1159 525v-1856H581v4831h578v-531q182 312 458 463 277 152 661 152 638 0 1036-506 399-506 399-1331T3314 415Q2916-91 2278-91q-384 0-661 152-276 152-458 464zm1957 1222q0 634-261 995t-717 361q-457 0-718-361t-261-995q0-634 261-995t718-361q456 0 717 361t261 995z" transform="scale(.01563)"/><path id="DejaVuSans-66" d="M2375 4863v-479h-550q-309 0-430-125-120-125-120-450v-309h947v-447h-947V0H697v3053H147v447h550v244q0 584 272 851 272 268 862 268h544z" transform="scale(.01563)"/><path id="DejaVuSans-6d" d="M3328 2828q216 388 516 572t706 184q547 0 844-383 297-382 297-1088V0h-578v2094q0 503-179 746-178 244-543 244-447 0-707-297-259-296-259-809V0h-578v2094q0 506-178 748t-550 242q-441 0-701-298-259-298-259-808V0H581v3500h578v-544q197 322 472 475t653 153q382 0 649-194 267-193 395-562z" transform="scale(.01563)"/></defs><use xlink:href="#DejaVuSans-68"/><use xlink:href="#DejaVuSans-61" x="63.379"/><use xlink:href="#DejaVuSans-73" x="124.658"/><use xlink:href="#DejaVuSans-68" x="176.758"/><use xlink:href="#DejaVuSans-69" x="240.137"/><use xlink:href="#DejaVuSans-63" x="267.92"/><use xlink:href="#DejaVuSans-6f" x="322.9"/><use xlink:href="#DejaVuSans-72" x="384.082"/><use xlink:href="#DejaVuSans-70" x="425.195"/><use xlink:href="#DejaVuSans-2f" x="488.672"/><use xlink:href="#DejaVuSans-74" x="522.363"/><use xlink:href="#DejaVuSans-65" x="561.572"/><use xlink:href="#DejaVuSans-72" x="623.096"/><use xlink:href="#DejaVuSans-72" x="662.459"/><use xlink:href="#DejaVuSans-61" x="703.572"/><use xlink:href="#DejaVuSans-66" x="764.852"/><use xlink:href="#DejaVuSans-6f" x="800.057"/><use xlink:href="#DejaVuSans-72" x="861.238"/><use xlink:href="#DejaVuSans-6d" x="900.602"/></g><g id="text_17" style="fill:#2ca02c" transform="matrix(.14 0 0 -.14 465.907 209.515)"><use xlink:href="#DejaVuSans-70"/><use xlink:href="#DejaVuSans-75" x="63.477"/><use xlink:href="#DejaVuSans-6c" x="126.855"/><use xlink:href="#DejaVuSans-75" x="154.639"/><use xlink:href="#DejaVuSans-6d" x="218.018"/><use xlink:href="#DejaVuSans-69" x="315.43"/><use xlink:href="#DejaVuSans-2f" x="343.213"/><use xlink:href="#DejaVuSans-70" x="376.904"/><use xlink:href="#DejaVuSans-75" x="440.381"/><use xlink:href="#DejaVuSans-6c" x="503.76"/><use xlink:href="#DejaVuSans-75" x="531.543"/><use xlink:href="#DejaVuSans-6d" x="594.922"/><use xlink:href="#DejaVuSans-69" x="692.334"/></g><g id="text_18" style="fill:#d62728" transform="matrix(.14 0 0 -.14 465.907 223.515)"><defs><path id="DejaVuSans-6b" d="M581 4863h578V1991l1716 1509h734L1753 1863 3688 0h-750L1159 1709V0H581v4863z" transform="scale(.01563)"/></defs><use xlink:href="#DejaVuSans-73"/><use xlink:href="#DejaVuSans-61" x="52.1"/><use xlink:href="#DejaVuSans-6c" x="113.379"/><use xlink:href="#DejaVuSans-74" x="141.162"/><use xlink:href="#DejaVuSans-73" x="180.371"/><use xlink:href="#DejaVuSans-74" x="232.471"/><use xlink:href="#DejaVuSans-61" x="271.68"/><use xlink:href="#DejaVuSans-63" x="332.959"/><use xlink:href="#DejaVuSans-6b" x="387.939"/><use xlink:href="#DejaVuSans-2f" x="445.85"/><use xlink:href="#DejaVuSans-73" x="479.541"/><use xlink:href="#DejaVuSans-61" x="531.641"/><use xlink:href="#DejaVuSans-6c" x="592.92"/><use xlink:href="#DejaVuSans-74" x="620.703"/></g><g id="text_19" style="fill:#9467bd" transform="matrix(.14 0 0 -.14 465.907 244.225)"><use xlink:href="#DejaVuSans-63"/><use xlink:href="#DejaVuSans-68" x="54.98"/><use xlink:href="#DejaVuSans-65" x="118.359"/><use xlink:href="#DejaVuSans-66" x="179.883"/><use xlink:href="#DejaVuSans-2f" x="215.088"/><use xlink:href="#DejaVuSans-63" x="248.779"/><use xlink:href="#DejaVuSans-68" x="303.76"/><use xlink:href="#DejaVuSans-65" x="367.139"/><use xlink:href="#DejaVuSans-66" x="428.662"/></g><g id="text_20" style="fill:#8c564b" transform="matrix(.14 0 0 -.14 465.907 258.225)"><use xlink:href="#DejaVuSans-70"/><use xlink:href="#DejaVuSans-75" x="63.477"/><use xlink:href="#DejaVuSans-70" x="126.855"/><use xlink:href="#DejaVuSans-70" x="190.332"/><use xlink:href="#DejaVuSans-65" x="253.809"/><use xlink:href="#DejaVuSans-74" x="315.332"/><use xlink:href="#DejaVuSans-6c" x="354.541"/><use xlink:href="#DejaVuSans-61" x="382.324"/><use xlink:href="#DejaVuSans-62" x="443.604"/><use xlink:href="#DejaVuSans-73" x="507.08"/><use xlink:href="#DejaVuSans-2f" x="559.18"/><use xlink:href="#DejaVuSans-70" x="592.871"/><use xlink:href="#DejaVuSans-75" x="656.348"/><use xlink:href="#DejaVuSans-70" x="719.727"/><use xlink:href="#DejaVuSans-70" x="783.203"/><use xlink:href="#DejaVuSans-65" x="846.68"/><use xlink:href="#DejaVuSans-74" x="908.203"/></g><g id="text_21" style="fill:#b0b0b0" transform="matrix(.09716 0 0 -.09716 98.073 314.123)"><defs><path id="DejaVuSans-40" d="M2381 1678q0-447 222-702 222-254 610-254 384 0 604 256 221 256 221 700 0 438-225 695-225 258-607 258-378 0-602-256-223-256-223-697zm1703-934q-187-241-429-355t-564-114q-538 0-874 389t-336 1014q0 625 337 1015 338 391 873 391 322 0 565-117 244-117 428-354v409h447V722q457 69 714 417 258 349 258 902 0 334-99 628-98 294-298 544-325 409-792 626t-1017 217q-384 0-738-102-353-101-653-301-490-319-767-836-276-517-276-1120 0-497 179-932 180-434 521-765 328-325 759-495 431-171 922-171 403 0 792 136t714 389l281-347q-390-303-851-464t-936-161q-578 0-1091 205-512 205-912 595Q841 78 631 592q-209 514-209 1105 0 569 212 1084 213 516 607 907 403 396 931 607t1119 211q662 0 1229-272 568-271 952-771 234-307 357-666 124-359 124-744 0-822-497-1297T4084 263v481z" transform="scale(.01563)"/><path id="DejaVuSans-67" d="M2906 1791q0 625-258 968-257 344-723 344-462 0-720-344-258-343-258-968 0-622 258-966t720-344q466 0 723 344 258 344 258 966zm575-1357q0-893-397-1329-396-436-1215-436-303 0-572 45t-522 139v559q253-137 500-202 247-66 503-66 566 0 847 295t281 892v285q-178-310-456-463T1784 0Q1141 0 747 490 353 981 353 1791q0 812 394 1302 394 491 1037 491 388 0 666-153t456-462v531h575V434z" transform="scale(.01563)"/><path id="DejaVuSans-2d" d="M313 2009h1684v-512H313v512z" transform="scale(.01563)"/><path id="DejaVuSans-64" d="M2906 2969v1894h575V0h-575v525q-181-312-458-464-276-152-664-152-634 0-1033 506-398 507-398 1332t398 1331q399 506 1033 506 388 0 664-152 277-151 458-463zM947 1747q0-634 261-995t717-361q456 0 718 361 263 361 263 995t-263 995q-262 361-718 361t-717-361q-261-361-261-995z" transform="scale(.01563)"/><path id="DejaVuSans-7c" d="M1344 4891v-6400H813v6400h531z" transform="scale(.01563)"/><path id="DejaVuSans-4e" d="M628 4666h850L3547 763v3903h612V0h-850L1241 3903V0H628v4666z" transform="scale(.01563)"/><path id="DejaVuSans-53" d="M3425 4513v-616q-359 172-678 256-319 85-616 85-515 0-795-200t-280-569q0-310 186-468 186-157 705-254l381-78q706-135 1042-474t336-907q0-679-455-1029Q2797-91 1919-91q-331 0-705 75-373 75-773 222v650q384-215 753-325 369-109 725-109 540 0 834 212 294 213 294 607 0 343-211 537t-692 291l-385 75q-706 140-1022 440-315 300-315 835 0 619 436 975t1201 356q329 0 669-60 341-59 697-177z" transform="scale(.01563)"/><path id="DejaVuSans-f6" d="M1959 3097q-462 0-731-361t-269-989q0-628 267-989 268-361 733-361 460 0 728 362 269 363 269 988 0 622-269 986-268 364-728 364zm0 487q750 0 1178-488 429-487 429-1349 0-859-429-1349Q2709-91 1959-91q-753 0-1180 489-426 490-426 1349 0 862 426 1349 427 488 1180 488zm295 1266h634v-631h-634v631zm-1222 0h634v-631h-634v631z" transform="scale(.01563)"/><path id="DejaVuSans-43" d="M4122 4306v-665q-319 297-680 443-361 147-767 147-800 0-1225-489t-425-1414q0-922 425-1411t1225-489q406 0 767 147t680 444V359q-331-225-702-338-370-112-782-112-1060 0-1670 648-609 649-609 1771 0 1125 609 1773 610 649 1670 649 418 0 788-111 371-111 696-333z" transform="scale(.01563)"/><path id="DejaVuSans-42" d="M1259 2228V519h1013q509 0 754 211 246 211 246 645 0 438-246 645-245 208-754 208H1259zm0 1919V2741h935q462 0 688 173 227 174 227 530 0 353-227 528-226 175-688 175h-935zm-631 519h1613q722 0 1112-300 391-300 391-853 0-429-200-682t-588-315q466-100 724-418 258-317 258-792 0-625-425-966Q3088 0 2303 0H628v4666z" transform="scale(.01563)"/><path id="DejaVuSans-59" d="M-13 4666h679l1293-1919 1285 1919h678L2272 2222V0h-634v2222L-13 4666z" transform="scale(.01563)"/></defs><use xlink:href="#DejaVuSans-40"/><use xlink:href="#DejaVuSans-6e" x="100"/><use xlink:href="#DejaVuSans-73" x="163.379"/><use xlink:href="#DejaVuSans-63" x="215.479"/><use xlink:href="#DejaVuSans-68" x="270.459"/><use xlink:href="#DejaVuSans-6c" x="333.838"/><use xlink:href="#DejaVuSans-6f" x="361.621"/><use xlink:href="#DejaVuSans-65" x="422.803"/><use xlink:href="#DejaVuSans-20" x="484.326"/><use xlink:href="#DejaVuSans-2f" x="516.113"/><use xlink:href="#DejaVuSans-20" x="549.805"/><use xlink:href="#DejaVuSans-67" x="581.592"/><use xlink:href="#DejaVuSans-69" x="645.068"/><use xlink:href="#DejaVuSans-74" x="672.852"/><use xlink:href="#DejaVuSans-68" x="712.061"/><use xlink:href="#DejaVuSans-75" x="775.439"/><use xlink:href="#DejaVuSans-62" x="838.818"/><use xlink:href="#DejaVuSans-2d" x="902.295"/><use xlink:href="#DejaVuSans-74" x="938.379"/><use xlink:href="#DejaVuSans-72" x="977.588"/><use xlink:href="#DejaVuSans-65" x="1016.451"/><use xlink:href="#DejaVuSans-6e" x="1077.975"/><use xlink:href="#DejaVuSans-64" x="1141.354"/><use xlink:href="#DejaVuSans-73" x="1204.83"/><use xlink:href="#DejaVuSans-20" x="1256.93"/><use xlink:href="#DejaVuSans-7c" x="1288.717"/><use xlink:href="#DejaVuSans-20" x="1322.408"/><use xlink:href="#DejaVuSans-4e" x="1354.195"/><use xlink:href="#DejaVuSans-69" x="1429"/><use xlink:href="#DejaVuSans-63" x="1456.783"/><use xlink:href="#DejaVuSans-6f" x="1511.764"/><use xlink:href="#DejaVuSans-20" x="1572.945"/><use xlink:href="#DejaVuSans-53" x="1604.732"/><use xlink:href="#DejaVuSans-63" x="1668.209"/><use xlink:href="#DejaVuSans-68" x="1723.189"/><use xlink:href="#DejaVuSans-6c" x="1786.568"/><use xlink:href="#DejaVuSans-f6" x="1814.352"/><use xlink:href="#DejaVuSans-6d" x="1875.533"/><use xlink:href="#DejaVuSans-65" x="1972.945"/><use xlink:href="#DejaVuSans-72" x="2034.469"/><use xlink:href="#DejaVuSans-20" x="2075.582"/><use xlink:href="#DejaVuSans-7c" x="2107.369"/><use xlink:href="#DejaVuSans-20" x="2141.061"/><use xlink:href="#DejaVuSans-43" x="2172.848"/><use xlink:href="#DejaVuSans-43" x="2242.672"/><use xlink:href="#DejaVuSans-20" x="2312.496"/><use xlink:href="#DejaVuSans-42" x="2344.283"/><use xlink:href="#DejaVuSans-59" x="2407.387"/></g><path id="line2d_23" d="m314.828 280.087 2.103-.005H329.211l2.103-.004 2.035-3.41 2.103-.783 2.103-.545 2.035-1.093 2.104-.832 2.035-.765 2.103-.544 2.103-.477 1.9-1.04 2.103-1.11 2.035-.581 2.103-.958 2.035-.684 2.103-.576 2.104-.895 2.035-1.085 2.103-1.385 2.035-1.161 2.103-.999 2.103-.89 1.968-.82 2.103-.81 2.035-2.32 2.103-1.278 2.035-.959 2.104-1.034 2.103-1.049 2.035-1.138 2.103-1.237 2.035-1.012 2.103-1.004 2.103-1.075 1.9-.841 2.103-1.31 2.035-1.601 2.104-1.516 2.035-1.732 2.103-1.201 2.103-1.36 2.035-1.434 2.103-1.368 2.036-1.66 2.103-1.264 2.103-1.359 1.9-1.35 2.102-1.61 2.036-1.444 2.103-1.921 2.035-1.319 2.103-1.664 2.103-1.323 2.036-1.642 2.103-1.363 2.035-1.516 2.103-1.152 2.103-1.458 1.9-1.363 2.103-1.43 2.035-1.57 2.103-1.49" clip-path="url(#pb03f256244)" style="fill:none;stroke:#2ca02c;stroke-width:1.5;stroke-linecap:square"/><path id="line2d_24" d="m225.955 280.087 2.103-.005h6.174l2.103-3.954 2.103-1.76 2.035-.422 2.103-.653 2.036-.328 2.103-.45 2.103-.418 1.9-.423 2.103-.554 2.035-.657 2.103-.701 2.035-.657 2.103-.648 2.103-.576 2.036-.648 2.103-1.039 2.035-.774 2.103-.72 2.103-.99 1.968-.98 2.103-.936 2.035-1.066 2.103-.918 2.035-1.08 2.103-1.026 2.104-1.178 2.035-.99 2.103-1.269 2.035-1.322 2.103-.995 2.103-1.286 1.9-1.548 2.103-1.939 2.035-1.575 2.103-1.489 2.036-1.385 2.103-1.13 2.103-1.295 2.035-1.206 2.103-1.548 2.035-1.606 2.104-1.327 2.103-1.242 1.9-1.484 2.102-1.62 2.036-1.507 2.103-1.723 2.035-1.615 2.103-1.382 2.103-1.444 2.035-1.457 2.104-2.592 2.035-1.75 2.103-1.673 2.103-2.133 1.9-1.633 2.103-1.966 2.035-1.777 2.103-2.326 2.035-1.94 2.103-2.388 2.104-2.002 2.035-1.79 2.103-1.953 2.035-1.975 2.103-1.863 2.103-1.745 1.968-1.926 2.103-1.948 2.035-1.831 2.103-2.034 2.035-2.186 2.104-2.681 2.103-1.728 2.035-1.525 2.103-1.903 2.035-1.651 2.103-1.696 2.103-1.643 1.9-1.813 2.103-2.002 2.035-1.781 2.104-1.75 2.035-4.018 2.103-2.294 2.103-2.542 2.035-1.975 2.103-2.466 2.036-2.802 2.103-2.223 2.103-2.132 1.9-1.701 2.102-2.191 2.036-2.389 2.103-2.267 2.035-2.155 2.103-2.12 2.103-1.75 2.036-1.943 2.103-2.753 2.035-1.858 2.103-1.809 2.103-1.588 1.9-1.705 2.103-2.24 2.035-1.755 2.103-1.917" clip-path="url(#pb03f256244)" style="fill:none;stroke:#ff7f0e;stroke-width:1.5;stroke-linecap:square"/><path id="line2d_25" d="m176.43 280.087 2.104-3.761 6.173-.14 10.38-.112 4.206-.018 1.9-.46 4.138-1.277 2.103-.526 2.036-1.26 2.103-2.178 2.103-.926 4.138-2.362 2.035-1.804 2.104-.99 2.103-1.34 4.002-3.933 2.036-1.786 8.344-6.514 4.138-3.442 4.139-2.987 2.103-1.948 1.9-1.602 4.138-4.121 2.103-1.79 4.138-3.825 2.103-1.588 2.036-1.92 2.103-2.664 2.035-2.092 2.103-1.953 2.103-2.591 4.07-4.486 2.036-1.912 8.345-8.894 8.276-8.503 6.106-8.188 10.38-12.305 4.138-5.614 4.139-4.76 4.002-5.601 6.242-8.314 2.035-2.39 4.206-5.695 2.035-2.645 2.104-3.114 2.035-2.623 4.206-5.025 6.038-8.12 2.103-2.889 2.035-2.591 2.103-2.906 6.242-6.956 2.035-2.88 4.206-4.584 4.07-4.157 2.036-2.42 4.138-4.233 4.207-4.202 2.035-1.904 2.103-2.555 2.035-1.867 2.103-2.357 4.003-3.824 2.103-1.84 2.035-2.974 2.104-1.615 2.035-2.745 2.103-1.907 2.103-2.317 2.035-1.678 2.103-2.704 2.036-1.921 2.103-1.66 2.103-4.054 4.002-3.739 6.174-5.655 4.206-3.662 2.036-2.2 2.103-2.52 2.035-1.848 4.206-2.93 1.9-1.704 2.103-2.25 4.138-3.765h0" clip-path="url(#pb03f256244)" style="fill:none;stroke:#1f77b4;stroke-width:1.5;stroke-linecap:square"/></g></g><defs><clipPath id="pb03f256244"><path d="M98.073 13.975h357.12v266.112H98.073z"/></clipPath></defs></svg>