<svg xmlns:xlink="http://www.w3.org/1999/xlink" width="920.714" height="472.288" viewBox="0 0 690.535 354.216" xmlns="http://www.w3.org/2000/svg"><defs><style>*{stroke-linejoin:round;stroke-linecap:butt}</style></defs><g id="figure_1"><path d="M0 354.216h690.535V0H0v354.216z" style="fill:none" id="patch_1"/><g id="axes_1"><path d="M98.073 310.689h357.12V44.577H98.073v266.112z" style="fill:none" id="patch_2"/><g id="matplotlib.axis_1"><g id="xtick_1"><g id="line2d_1"><defs><path id="m6aaa3a56ad" d="M0 0v3.5" style="stroke:#b0b0b0;stroke-width:.4"/></defs><use xlink:href="#m6aaa3a56ad" x="151.265" y="310.689" style="fill:#b0b0b0;stroke:#b0b0b0;stroke-width:.4"/></g><g style="fill:#b0b0b0" transform="matrix(.14 0 0 -.14 133.45 328.327)" id="text_1"><defs><path id="DejaVuSans-32" d="M1228 531h2203V0H469v531q359 372 979 998 621 627 780 809 303 340 423 576 121 236 121 464 0 372-261 606-261 235-680 235-297 0-627-103-329-103-704-313v638q381 153 712 231 332 78 607 78 725 0 1156-363 431-362 431-968 0-288-108-546-107-257-392-607-78-91-497-524-418-433-1181-1211z" transform="scale(.01563)"/><path id="DejaVuSans-30" d="M2034 4250q-487 0-733-480-245-479-245-1442 0-959 245-1439 246-480 733-480 491 0 736 480 246 480 246 1439 0 963-246 1442-245 480-736 480zm0 500q785 0 1199-621 414-620 414-1801 0-1178-414-1799Q2819-91 2034-91q-784 0-1198 620-414 621-414 1799 0 1181 414 1801 414 621 1198 621z" transform="scale(.01563)"/><path id="DejaVuSans-31" d="M794 531h1031v3560L703 3866v575l1116 225h631V531h1031V0H794v531z" transform="scale(.01563)"/></defs><use xlink:href="#DejaVuSans-32"/><use xlink:href="#DejaVuSans-30" x="63.623"/><use xlink:href="#DejaVuSans-31" x="127.246"/><use xlink:href="#DejaVuSans-32" x="190.869"/></g></g><g id="xtick_2"><use xlink:href="#m6aaa3a56ad" x="209.212" y="310.689" style="fill:#b0b0b0;stroke:#b0b0b0;stroke-width:.4" id="line2d_2"/><g style="fill:#b0b0b0" transform="matrix(.14 0 0 -.14 191.397 328.327)" id="text_2"><defs><path id="DejaVuSans-34" d="M2419 4116 825 1625h1594v2491zm-166 550h794V1625h666v-525h-666V0h-628v1100H313v609l1940 2957z" transform="scale(.01563)"/></defs><use xlink:href="#DejaVuSans-32"/><use xlink:href="#DejaVuSans-30" x="63.623"/><use xlink:href="#DejaVuSans-31" x="127.246"/><use xlink:href="#DejaVuSans-34" x="190.869"/></g></g><g id="xtick_3"><use xlink:href="#m6aaa3a56ad" x="267.081" y="310.689" style="fill:#b0b0b0;stroke:#b0b0b0;stroke-width:.4" id="line2d_3"/><g style="fill:#b0b0b0" transform="matrix(.14 0 0 -.14 249.266 328.327)" id="text_3"><defs><path id="DejaVuSans-36" d="M2113 2584q-425 0-674-291-248-290-248-796 0-503 248-796 249-292 674-292t673 292q248 293 248 796 0 506-248 796-248 291-673 291zm1253 1979v-575q-238 112-480 171-242 60-480 60-625 0-955-422-329-422-376-1275 184 272 462 417 279 145 613 145 703 0 1111-427 408-426 408-1160 0-719-425-1154Q2819-91 2113-91q-810 0-1238 620-428 621-428 1799 0 1106 525 1764t1409 658q238 0 480-47t505-140z" transform="scale(.01563)"/></defs><use xlink:href="#DejaVuSans-32"/><use xlink:href="#DejaVuSans-30" x="63.623"/><use xlink:href="#DejaVuSans-31" x="127.246"/><use xlink:href="#DejaVuSans-36" x="190.869"/></g></g><g id="xtick_4"><use xlink:href="#m6aaa3a56ad" x="325.029" y="310.689" style="fill:#b0b0b0;stroke:#b0b0b0;stroke-width:.4" id="line2d_4"/><g style="fill:#b0b0b0" transform="matrix(.14 0 0 -.14 307.214 328.327)" id="text_4"><defs><path id="DejaVuSans-38" d="M2034 2216q-450 0-708-241-257-241-257-662 0-422 257-663 258-241 708-241t709 242q260 243 260 662 0 421-258 662-257 241-711 241zm-631 268q-406 100-633 378-226 279-226 679 0 559 398 884 399 325 1092 325 697 0 1094-325t397-884q0-400-227-679-226-278-629-378 456-106 710-416 255-309 255-755 0-679-414-1042Q2806-91 2034-91q-771 0-1186 362-414 363-414 1042 0 446 256 755 257 310 713 416zm-231 997q0-362 226-565 227-203 636-203 407 0 636 203 230 203 230 565 0 363-230 566-229 203-636 203-409 0-636-203-226-203-226-566z" transform="scale(.01563)"/></defs><use xlink:href="#DejaVuSans-32"/><use xlink:href="#DejaVuSans-30" x="63.623"/><use xlink:href="#DejaVuSans-31" x="127.246"/><use xlink:href="#DejaVuSans-38" x="190.869"/></g></g><g id="xtick_5"><use xlink:href="#m6aaa3a56ad" x="382.897" y="310.689" style="fill:#b0b0b0;stroke:#b0b0b0;stroke-width:.4" id="line2d_5"/><g style="fill:#b0b0b0" transform="matrix(.14 0 0 -.14 365.082 328.327)" id="text_5"><use xlink:href="#DejaVuSans-32"/><use xlink:href="#DejaVuSans-30" x="63.623"/><use xlink:href="#DejaVuSans-32" x="127.246"/><use xlink:href="#DejaVuSans-30" x="190.869"/></g></g><g id="xtick_6"><use xlink:href="#m6aaa3a56ad" x="440.845" y="310.689" style="fill:#b0b0b0;stroke:#b0b0b0;stroke-width:.4" id="line2d_6"/><g style="fill:#b0b0b0" transform="matrix(.14 0 0 -.14 423.03 328.327)" id="text_6"><use xlink:href="#DejaVuSans-32"/><use xlink:href="#DejaVuSans-30" x="63.623"/><use xlink:href="#DejaVuSans-32" x="127.246"/><use xlink:href="#DejaVuSans-32" x="190.869"/></g></g></g><g id="matplotlib.axis_2"><g id="ytick_1"><path d="M98.073 310.689h357.12" clip-path="url(#p375cbcf20d)" style="fill:none;stroke:#b0b0b0;stroke-width:.3;stroke-linecap:square" id="line2d_7"/><g id="line2d_8"><defs><path id="mc4a4c76489" d="M0 0h-3.5" style="stroke:#b0b0b0;stroke-width:.3"/></defs><use xlink:href="#mc4a4c76489" x="98.073" y="310.689" style="fill:#b0b0b0;stroke:#b0b0b0;stroke-width:.3"/></g><use xlink:href="#DejaVuSans-30" style="fill:#b0b0b0" transform="matrix(.14 0 0 -.14 82.166 316.008)" id="text_7"/></g><g id="ytick_2"><path d="M98.073 273.07h357.12" clip-path="url(#p375cbcf20d)" style="fill:none;stroke:#b0b0b0;stroke-width:.3;stroke-linecap:square" id="line2d_9"/><use xlink:href="#mc4a4c76489" x="98.073" y="273.07" style="fill:#b0b0b0;stroke:#b0b0b0;stroke-width:.3" id="line2d_10"/><g style="fill:#b0b0b0" transform="matrix(.14 0 0 -.14 55.443 278.39)" id="text_8"><use xlink:href="#DejaVuSans-31"/><use xlink:href="#DejaVuSans-30" x="63.623"/><use xlink:href="#DejaVuSans-30" x="127.246"/><use xlink:href="#DejaVuSans-30" x="190.869"/></g></g><g id="ytick_3"><path d="M98.073 235.452h357.12" clip-path="url(#p375cbcf20d)" style="fill:none;stroke:#b0b0b0;stroke-width:.3;stroke-linecap:square" id="line2d_11"/><use xlink:href="#mc4a4c76489" x="98.073" y="235.452" style="fill:#b0b0b0;stroke:#b0b0b0;stroke-width:.3" id="line2d_12"/><g style="fill:#b0b0b0" transform="matrix(.14 0 0 -.14 55.443 240.771)" id="text_9"><use xlink:href="#DejaVuSans-32"/><use xlink:href="#DejaVuSans-30" x="63.623"/><use xlink:href="#DejaVuSans-30" x="127.246"/><use xlink:href="#DejaVuSans-30" x="190.869"/></g></g><g id="ytick_4"><path d="M98.073 197.834h357.12" clip-path="url(#p375cbcf20d)" style="fill:none;stroke:#b0b0b0;stroke-width:.3;stroke-linecap:square" id="line2d_13"/><use xlink:href="#mc4a4c76489" x="98.073" y="197.834" style="fill:#b0b0b0;stroke:#b0b0b0;stroke-width:.3" id="line2d_14"/><g style="fill:#b0b0b0" transform="matrix(.14 0 0 -.14 55.443 203.153)" id="text_10"><defs><path id="DejaVuSans-33" d="M2597 2516q453-97 707-404 255-306 255-756 0-690-475-1069Q2609-91 1734-91q-293 0-604 58T488 141v609q262-153 574-231 313-78 654-78 593 0 904 234t311 681q0 413-289 645-289 233-804 233h-544v519h569q465 0 712 186t247 536q0 359-255 551-254 193-729 193-260 0-557-57-297-56-653-174v562q360 100 674 150t592 50q719 0 1137-327 419-326 419-882 0-388-222-655t-631-370z" transform="scale(.01563)"/></defs><use xlink:href="#DejaVuSans-33"/><use xlink:href="#DejaVuSans-30" x="63.623"/><use xlink:href="#DejaVuSans-30" x="127.246"/><use xlink:href="#DejaVuSans-30" x="190.869"/></g></g><g id="ytick_5"><path d="M98.073 160.216h357.12" clip-path="url(#p375cbcf20d)" style="fill:none;stroke:#b0b0b0;stroke-width:.3;stroke-linecap:square" id="line2d_15"/><use xlink:href="#mc4a4c76489" x="98.073" y="160.216" style="fill:#b0b0b0;stroke:#b0b0b0;stroke-width:.3" id="line2d_16"/><g style="fill:#b0b0b0" transform="matrix(.14 0 0 -.14 55.443 165.534)" id="text_11"><use xlink:href="#DejaVuSans-34"/><use xlink:href="#DejaVuSans-30" x="63.623"/><use xlink:href="#DejaVuSans-30" x="127.246"/><use xlink:href="#DejaVuSans-30" x="190.869"/></g></g><g id="ytick_6"><path d="M98.073 122.597h357.12" clip-path="url(#p375cbcf20d)" style="fill:none;stroke:#b0b0b0;stroke-width:.3;stroke-linecap:square" id="line2d_17"/><use xlink:href="#mc4a4c76489" x="98.073" y="122.597" style="fill:#b0b0b0;stroke:#b0b0b0;stroke-width:.3" id="line2d_18"/><g style="fill:#b0b0b0" transform="matrix(.14 0 0 -.14 55.443 127.916)" id="text_12"><defs><path id="DejaVuSans-35" d="M691 4666h2478v-532H1269V2991q137 47 274 70 138 23 276 23 781 0 1237-428 457-428 457-1159 0-753-469-1171Q2575-91 1722-91q-294 0-599 50Q819 9 494 109v635q281-153 581-228t634-75q541 0 856 284 316 284 316 772 0 487-316 771-315 285-856 285-253 0-505-56-251-56-513-175v2344z" transform="scale(.01563)"/></defs><use xlink:href="#DejaVuSans-35"/><use xlink:href="#DejaVuSans-30" x="63.623"/><use xlink:href="#DejaVuSans-30" x="127.246"/><use xlink:href="#DejaVuSans-30" x="190.869"/></g></g><g id="ytick_7"><path d="M98.073 84.979h357.12" clip-path="url(#p375cbcf20d)" style="fill:none;stroke:#b0b0b0;stroke-width:.3;stroke-linecap:square" id="line2d_19"/><use xlink:href="#mc4a4c76489" x="98.073" y="84.979" style="fill:#b0b0b0;stroke:#b0b0b0;stroke-width:.3" id="line2d_20"/><g style="fill:#b0b0b0" transform="matrix(.14 0 0 -.14 55.443 90.298)" id="text_13"><use xlink:href="#DejaVuSans-36"/><use xlink:href="#DejaVuSans-30" x="63.623"/><use xlink:href="#DejaVuSans-30" x="127.246"/><use xlink:href="#DejaVuSans-30" x="190.869"/></g></g><g id="ytick_8"><path d="M98.073 47.36h357.12" clip-path="url(#p375cbcf20d)" style="fill:none;stroke:#b0b0b0;stroke-width:.3;stroke-linecap:square" id="line2d_21"/><use xlink:href="#mc4a4c76489" x="98.073" y="47.361" style="fill:#b0b0b0;stroke:#b0b0b0;stroke-width:.3" id="line2d_22"/><g style="fill:#b0b0b0" transform="matrix(.14 0 0 -.14 55.443 52.68)" id="text_14"><defs><path id="DejaVuSans-37" d="M525 4666h3000v-269L1831 0h-659l1594 4134H525v532z" transform="scale(.01563)"/></defs><use xlink:href="#DejaVuSans-37"/><use xlink:href="#DejaVuSans-30" x="63.623"/><use xlink:href="#DejaVuSans-30" x="127.246"/><use xlink:href="#DejaVuSans-30" x="190.869"/></g></g><g style="fill:#b0b0b0" transform="matrix(.14 0 0 -.14 7.2 17.838)" id="text_15"><defs><path id="DejaVuSans-47" d="M3809 666v1253H2778v519h1656V434q-365-259-806-392-440-133-940-133-1094 0-1712 639-617 640-617 1780 0 1144 617 1783 618 639 1712 639 456 0 867-113 411-112 758-331v-672q-350 297-744 447t-828 150q-857 0-1287-478-429-478-429-1425 0-944 429-1422 430-478 1287-478 334 0 596 58 263 58 472 180z" transform="scale(.01563)"/><path id="DejaVuSans-69" d="M603 3500h575V0H603v3500zm0 1363h575v-729H603v729z" transform="scale(.01563)"/><path id="DejaVuSans-74" d="M1172 4494v-994h1184v-447H1172V1153q0-428 117-550t477-122h590V0h-590q-666 0-919 248-253 249-253 905v1900H172v447h422v994h578z" transform="scale(.01563)"/><path id="DejaVuSans-48" d="M628 4666h631V2753h2294v1913h631V0h-631v2222H1259V0H628v4666z" transform="scale(.01563)"/><path id="DejaVuSans-75" d="M544 1381v2119h575V1403q0-497 193-746 194-248 582-248 465 0 735 297 271 297 271 810v1984h575V0h-575v538q-209-319-486-474-276-155-642-155-603 0-916 375-312 375-312 1097zm1447 2203z" transform="scale(.01563)"/><path id="DejaVuSans-62" d="M3116 1747q0 634-261 995t-717 361q-457 0-718-361t-261-995q0-634 261-995t718-361q456 0 717 361t261 995zM1159 2969q182 312 458 463 277 152 661 152 638 0 1036-506 399-506 399-1331T3314 415Q2916-91 2278-91q-384 0-661 152-276 152-458 464V0H581v4863h578V2969z" transform="scale(.01563)"/><path id="DejaVuSans-73" d="M2834 3397v-544q-243 125-506 187-262 63-544 63-428 0-642-131t-214-394q0-200 153-314t616-217l197-44q612-131 870-370t258-667q0-488-386-773Q2250-91 1575-91q-281 0-586 55T347 128v594q319-166 628-249 309-82 613-82 406 0 624 139 219 139 219 392 0 234-158 359-157 125-692 241l-200 47q-534 112-772 345-237 233-237 639 0 494 350 762 350 269 994 269 318 0 599-47 282-46 519-140z" transform="scale(.01563)"/><path id="DejaVuSans-61" d="M2194 1759q-697 0-966-159t-269-544q0-306 202-486 202-179 548-179 479 0 768 339t289 901v128h-572zm1147 238V0h-575v531q-197-318-491-470T1556-91q-537 0-855 302-317 302-317 808 0 590 395 890 396 300 1180 300h807v57q0 397-261 614t-733 217q-300 0-585-72-284-72-546-216v532q315 122 612 182 297 61 578 61 760 0 1135-394 375-393 375-1193z" transform="scale(.01563)"/><path id="DejaVuSans-72" d="M2631 2963q-97 56-211 82-114 27-251 27-488 0-749-317t-261-911V0H581v3500h578v-544q182 319 472 473 291 155 707 155 59 0 131-8 72-7 159-23l3-590z" transform="scale(.01563)"/></defs><use xlink:href="#DejaVuSans-47"/><use xlink:href="#DejaVuSans-69" x="77.49"/><use xlink:href="#DejaVuSans-74" x="105.273"/><use xlink:href="#DejaVuSans-48" x="144.482"/><use xlink:href="#DejaVuSans-75" x="219.678"/><use xlink:href="#DejaVuSans-62" x="283.057"/><use xlink:href="#DejaVuSans-20" x="346.533"/><use xlink:href="#DejaVuSans-73" x="378.32"/><use xlink:href="#DejaVuSans-74" x="430.42"/><use xlink:href="#DejaVuSans-61" x="469.629"/><use xlink:href="#DejaVuSans-72" x="530.908"/><use xlink:href="#DejaVuSans-73" x="572.021"/></g></g><path d="m170.607 310.689 2.378-2.671H182.736l2.22-.263 2.457-1.204 2.378-.715 2.457-.752 2.378-.376 2.458-.264 2.457-.602 2.378-.602 2.458-.263 2.378-.489 2.457-.376 2.458-.226 2.22-.263 2.457-.376 2.378-.565 2.457-.3 2.379-.302 2.457-.526 2.457-.677 2.379-.377 2.457-1.053 2.378-.376 2.458-.376 2.457-.188 2.22-.226 2.457-.564 2.378-1.054 2.458-.714 2.378-.452 2.457-.677 2.458-.752 2.378-.376 2.457-.452 2.378-.94 2.458-.452 2.457-.489 2.3-.414 2.457-.376 2.378-.414 2.457-.338 2.378-.602 2.458-.376 2.457-.226 2.378-.602 2.458-.451 2.378-.414 2.457-.301 2.458-.263 2.22-.49 2.457-.376 2.378-.526 2.457-.264 2.379-.338 2.457-.376 2.457-.452 2.379-.075 2.457-.113 2.378-.225 2.458-.226 2.457-.226 2.22-.3 2.457-.264 2.378-.113 2.458-.226 2.378-.188 2.457-.188 2.458-.075 2.378-.263 2.457-.301 2.378-.226 2.458-.339 2.457-.15 2.22-.226 2.457-.263 2.379-.339 2.457-.263 2.378-.113 2.458-.15 2.457-.339 2.378-.339 2.458-.225 2.378-.15 2.457-.076 2.458-.113 2.298-.263h2.458l2.378-.339 2.457-.489 2.379-.188 2.457-.15 2.457-.113 2.379-.226 2.457-.414 2.378-.451 2.458-.263 2.457-.226 2.22-.226 2.457-.15 2.378-.188 2.458-.15 2.378-.114 2.457-.075 2.458-.075 2.378-.15 2.457-.151 2.378-.15 2.458-.264 2.457-.188 2.22-.414 2.457-.3 2.379-.189 2.457-.414 2.378-.225" clip-path="url(#p375cbcf20d)" style="fill:none;stroke:#bcbd22;stroke-width:1.5;stroke-linecap:square" id="line2d_23"/><path d="m158.478 310.689 2.378-1.28 2.458-.037h4.836l2.457-.037h4.836l2.378-.076h4.915l2.22-.225 2.457-.452 2.378-.338 2.457-.753 2.378-.489 2.458-.79 2.457-.94 2.378-.527 2.458-.715 2.378-.827 2.457-.79 2.458-.865 2.22-.94 2.457-1.054 2.378-1.016 2.457-.865 2.379-.903 2.457-.715 2.457-.978 2.379-1.128 2.457-1.656 2.378-.79 2.458-.489 2.457-.752 2.22-.677 2.457-.677 2.378-.677 2.458-.677 2.378-.753 2.457-.564 2.458-1.016 2.378-.94 2.457-1.054 2.378-.451 2.458-.414 2.457-.414 2.3-.489 2.457-.564 2.378-.79 2.457-.602 2.378-.827 2.458-.678 2.457-.601 2.378-.414 2.458-.414 2.378-.602 2.457-.564 2.458-.753 2.22-.526 2.457-.264 2.378-.526 2.457-.677 2.379-.301 2.457-.565 2.457-.564 2.379-.752 2.457-.49 2.378-.676 2.458-.753 2.457-.677 2.22-.526 2.457-.753 2.378-.677 2.458-.64 2.378-.3 2.457-.264 2.458-.602 2.378-.564 2.457-.564 2.378-.564 2.458-.903 2.457-1.28 2.22-.639 2.457-.677 2.379-.602 2.457-.79 2.378-.564 2.458-.414 2.457-.376 2.378-.49 2.458-.526 2.378-.752 2.457-.715 2.458-.376 2.298-.49 2.458-.563 2.378-.49 2.457-.564 2.379-.451 2.457-.301 2.457-.49 2.379-.526 2.457-.451 2.378-.565 2.458-.564 2.457-.752 2.22-.301 2.457-.301 2.378-.715 2.458-.564 2.378-.263 2.457-.452 2.458-.15 2.378-.076 2.457-.3 2.378-.49 2.458-.489 2.457-.489 2.22-.564 2.457-.564 2.379-.376 2.457-.452 2.378-.564" clip-path="url(#p375cbcf20d)" style="fill:none;stroke:#7f7f7f;stroke-width:1.5;stroke-linecap:square" id="line2d_24"/><path d="m129.465 310.689 2.378-3.273 9.75-.075 4.836-.15 7.293-.151 11.97-.075 7.293-.113 9.75-.038 7.056-.527 2.457-.489 2.378-1.128 2.458-.715 2.457-.903 2.378-1.015 2.458-1.844 2.378-1.166 2.457-.64 4.677-2.03 4.836-1.806 7.293-1.392 4.836-1.543 2.457-.827 2.378-.602 2.458-.452 4.677-1.542 2.457-.828 4.836-1.316 2.378-.452 2.457-.752 2.458-1.505 2.378-1.015 2.457-.79 2.378-.94 2.458-1.167 2.457-3.95 2.3-1.166 2.457-1.467 7.213-2.032 2.458-.79 2.457-.451 9.671-2.445 2.458-.264 2.22-.827 4.835-.94 4.836-.565 2.457-.376 2.457-.602 9.672-1.655 2.457-.263 2.22-.565 2.457-.489 4.836-.64 4.835-.564 2.458-.564 2.378-.376 2.457-.527 2.378-.376 7.135-1.73 9.671-1.242 2.458-.263 2.457-.527 2.378-.3 2.458-.715 7.293-.866 4.756-.827 2.378-.715 2.457-.263 2.379-.452 7.293-.865 2.457-.527 7.293-.865 4.677-.338 4.836-1.317 4.835-1.016 4.836-1.354 2.457-.903 2.378-.602 2.458-3.01 2.457-.902 11.891-1.994h0" clip-path="url(#p375cbcf20d)" style="fill:none;stroke:#e377c2;stroke-width:1.5;stroke-linecap:square" id="line2d_25"/><g style="fill:#1f77b4" transform="matrix(.14 0 0 -.14 465.907 48.44)" id="text_16"><defs><path id="DejaVuSans-77" d="M269 3500h575l719-2731 715 2731h678l719-2731 716 2731h575L4050 0h-678l-753 2869L1863 0h-679L269 3500z" transform="scale(.01563)"/><path id="DejaVuSans-70" d="M1159 525v-1856H581v4831h578v-531q182 312 458 463 277 152 661 152 638 0 1036-506 399-506 399-1331T3314 415Q2916-91 2278-91q-384 0-661 152-276 152-458 464zm1957 1222q0 634-261 995t-717 361q-457 0-718-361t-261-995q0-634 261-995t718-361q456 0 717 361t261 995z" transform="scale(.01563)"/><path id="DejaVuSans-79" d="M2059-325q-243-625-475-815-231-191-618-191H506v481h338q237 0 368 113 132 112 291 531l103 262L191 3500h609L1894 763l1094 2737h609L2059-325z" transform="scale(.01563)"/><path id="DejaVuSans-6e" d="M3513 2113V0h-575v2094q0 497-194 743-194 247-581 247-466 0-735-297-269-296-269-809V0H581v3500h578v-544q207 316 486 472 280 156 646 156 603 0 912-373 310-373 310-1098z" transform="scale(.01563)"/><path id="DejaVuSans-65" d="M3597 1894v-281H953q38-594 358-905t892-311q331 0 642 81t618 244V178Q3153 47 2828-22t-659-69q-838 0-1327 487-489 488-489 1320 0 859 464 1363 464 505 1252 505 706 0 1117-455 411-454 411-1235zm-575 169q-6 471-264 752-258 282-683 282-481 0-770-272t-333-766l2050 4z" transform="scale(.01563)"/><path id="DejaVuSans-2f" d="M1625 4666h531L531-594H0l1625 5260z" transform="scale(.01563)"/><path id="DejaVuSans-63" d="M3122 3366v-538q-244 135-489 202t-495 67q-560 0-870-355-309-354-309-995t309-996q310-354 870-354 250 0 495 67t489 202V134Q2881 22 2623-34q-257-57-548-57-791 0-1257 497-465 497-465 1341 0 856 470 1346 471 491 1290 491 265 0 518-55 253-54 491-163z" transform="scale(.01563)"/><path id="DejaVuSans-68" d="M3513 2113V0h-575v2094q0 497-194 743-194 247-581 247-466 0-735-297-269-296-269-809V0H581v4863h578V2956q207 316 486 472 280 156 646 156 603 0 912-373 310-373 310-1098z" transform="scale(.01563)"/><path id="DejaVuSans-7a" d="M353 3500h2731v-525L922 459h2162V0H275v525l2163 2516H353v459z" transform="scale(.01563)"/><path id="DejaVuSans-6d" d="M3328 2828q216 388 516 572t706 184q547 0 844-383 297-382 297-1088V0h-578v2094q0 503-179 746-178 244-543 244-447 0-707-297-259-296-259-809V0h-578v2094q0 506-178 748t-550 242q-441 0-701-298-259-298-259-808V0H581v3500h578v-544q197 322 472 475t653 153q382 0 649-194 267-193 395-562z" transform="scale(.01563)"/><path id="DejaVuSans-6f" d="M1959 3097q-462 0-731-361t-269-989q0-628 267-989 268-361 733-361 460 0 728 362 269 363 269 988 0 622-269 986-268 364-728 364zm0 487q750 0 1178-488 429-487 429-1349 0-859-429-1349Q2709-91 1959-91q-753 0-1180 489-426 490-426 1349 0 862 426 1349 427 488 1180 488z" transform="scale(.01563)"/></defs><use xlink:href="#DejaVuSans-74"/><use xlink:href="#DejaVuSans-77" x="39.209"/><use xlink:href="#DejaVuSans-70" x="120.996"/><use xlink:href="#DejaVuSans-61" x="184.473"/><use xlink:href="#DejaVuSans-79" x="245.752"/><use xlink:href="#DejaVuSans-6e" x="304.932"/><use xlink:href="#DejaVuSans-65" x="368.311"/><use xlink:href="#DejaVuSans-2f" x="429.834"/><use xlink:href="#DejaVuSans-63" x="463.525"/><use xlink:href="#DejaVuSans-68" x="518.506"/><use xlink:href="#DejaVuSans-65" x="581.885"/><use xlink:href="#DejaVuSans-7a" x="643.408"/><use xlink:href="#DejaVuSans-6d" x="695.898"/><use xlink:href="#DejaVuSans-6f" x="793.311"/><use xlink:href="#DejaVuSans-69" x="854.492"/></g><g style="fill:#ff7f0e" transform="matrix(.14 0 0 -.14 465.907 107.84)" id="text_17"><defs><path id="DejaVuSans-6c" d="M603 4863h575V0H603v4863z" transform="scale(.01563)"/><path id="DejaVuSans-64" d="M2906 2969v1894h575V0h-575v525q-181-312-458-464-276-152-664-152-634 0-1033 506-398 507-398 1332t398 1331q399 506 1033 506 388 0 664-152 277-151 458-463zM947 1747q0-634 261-995t717-361q456 0 718 361 263 361 263 995t-263 995q-262 361-718 361t-717-361q-261-361-261-995z" transform="scale(.01563)"/></defs><use xlink:href="#DejaVuSans-61"/><use xlink:href="#DejaVuSans-6e" x="61.279"/><use xlink:href="#DejaVuSans-69" x="124.658"/><use xlink:href="#DejaVuSans-73" x="152.441"/><use xlink:href="#DejaVuSans-68" x="204.541"/><use xlink:href="#DejaVuSans-61" x="267.92"/><use xlink:href="#DejaVuSans-74" x="329.199"/><use xlink:href="#DejaVuSans-68" x="368.408"/><use xlink:href="#DejaVuSans-61" x="431.787"/><use xlink:href="#DejaVuSans-6c" x="493.066"/><use xlink:href="#DejaVuSans-79" x="520.85"/><use xlink:href="#DejaVuSans-65" x="580.029"/><use xlink:href="#DejaVuSans-2f" x="641.553"/><use xlink:href="#DejaVuSans-64" x="675.244"/><use xlink:href="#DejaVuSans-6f" x="738.721"/><use xlink:href="#DejaVuSans-74" x="799.902"/><use xlink:href="#DejaVuSans-62" x="839.111"/><use xlink:href="#DejaVuSans-6f" x="902.588"/><use xlink:href="#DejaVuSans-74" x="963.77"/></g><g style="fill:#2ca02c" transform="matrix(.14 0 0 -.14 465.907 181.082)" id="text_18"><defs><path id="DejaVuSans-54" d="M-19 4666h3947v-532H2272V0h-634v4134H-19v532z" transform="scale(.01563)"/><path id="DejaVuSans-4c" d="M628 4666h631V531h2272V0H628v4666z" transform="scale(.01563)"/></defs><use xlink:href="#DejaVuSans-54"/><use xlink:href="#DejaVuSans-68" x="61.084"/><use xlink:href="#DejaVuSans-65" x="124.463"/><use xlink:href="#DejaVuSans-4c" x="185.986"/><use xlink:href="#DejaVuSans-6f" x="239.949"/><use xlink:href="#DejaVuSans-63" x="301.131"/><use xlink:href="#DejaVuSans-65" x="356.111"/><use xlink:href="#DejaVuSans-68" x="417.635"/><use xlink:href="#DejaVuSans-69" x="481.014"/><use xlink:href="#DejaVuSans-6c" x="508.797"/><use xlink:href="#DejaVuSans-69" x="536.58"/><use xlink:href="#DejaVuSans-6f" x="564.363"/><use xlink:href="#DejaVuSans-73" x="625.545"/><use xlink:href="#DejaVuSans-61" x="677.645"/><use xlink:href="#DejaVuSans-6e" x="738.924"/><use xlink:href="#DejaVuSans-2f" x="802.303"/><use xlink:href="#DejaVuSans-79" x="835.994"/><use xlink:href="#DejaVuSans-61" x="895.174"/><use xlink:href="#DejaVuSans-64" x="956.453"/><use xlink:href="#DejaVuSans-6d" x="1019.93"/></g><g style="fill:#d62728" transform="matrix(.14 0 0 -.14 465.907 195.237)" id="text_19"><defs><path id="DejaVuSans-78" d="M3513 3500 2247 1797 3578 0h-678L1881 1375 863 0H184l1360 1831L300 3500h678l928-1247 928 1247h679z" transform="scale(.01563)"/><path id="DejaVuSans-2d" d="M313 2009h1684v-512H313v512z" transform="scale(.01563)"/><path id="DejaVuSans-67" d="M2906 1791q0 625-258 968-257 344-723 344-462 0-720-344-258-343-258-968 0-622 258-966t720-344q466 0 723 344 258 344 258 966zm575-1357q0-893-397-1329-396-436-1215-436-303 0-572 45t-522 139v559q253-137 500-202 247-66 503-66 566 0 847 295t281 892v285q-178-310-456-463T1784 0Q1141 0 747 490 353 981 353 1791q0 812 394 1302 394 491 1037 491 388 0 666-153t456-462v531h575V434z" transform="scale(.01563)"/></defs><use xlink:href="#DejaVuSans-6e"/><use xlink:href="#DejaVuSans-69" x="63.379"/><use xlink:href="#DejaVuSans-78" x="91.162"/><use xlink:href="#DejaVuSans-2d" x="150.342"/><use xlink:href="#DejaVuSans-63" x="186.426"/><use xlink:href="#DejaVuSans-6f" x="241.406"/><use xlink:href="#DejaVuSans-6d" x="302.588"/><use xlink:href="#DejaVuSans-6d" x="400"/><use xlink:href="#DejaVuSans-75" x="497.412"/><use xlink:href="#DejaVuSans-6e" x="560.791"/><use xlink:href="#DejaVuSans-69" x="624.17"/><use xlink:href="#DejaVuSans-74" x="651.953"/><use xlink:href="#DejaVuSans-79" x="691.162"/><use xlink:href="#DejaVuSans-2f" x="750.342"/><use xlink:href="#DejaVuSans-68" x="784.033"/><use xlink:href="#DejaVuSans-6f" x="847.412"/><use xlink:href="#DejaVuSans-6d" x="908.594"/><use xlink:href="#DejaVuSans-65" x="1006.006"/><use xlink:href="#DejaVuSans-2d" x="1067.529"/><use xlink:href="#DejaVuSans-6d" x="1103.613"/><use xlink:href="#DejaVuSans-61" x="1201.025"/><use xlink:href="#DejaVuSans-6e" x="1262.305"/><use xlink:href="#DejaVuSans-61" x="1325.684"/><use xlink:href="#DejaVuSans-67" x="1386.963"/><use xlink:href="#DejaVuSans-65" x="1450.439"/><use xlink:href="#DejaVuSans-72" x="1511.963"/></g><g style="fill:#9467bd" transform="matrix(.14 0 0 -.14 465.907 209.237)" id="text_20"><use xlink:href="#DejaVuSans-74"/><use xlink:href="#DejaVuSans-68" x="39.209"/><use xlink:href="#DejaVuSans-6f" x="102.588"/><use xlink:href="#DejaVuSans-75" x="163.77"/><use xlink:href="#DejaVuSans-67" x="227.148"/><use xlink:href="#DejaVuSans-68" x="290.625"/><use xlink:href="#DejaVuSans-74" x="354.004"/><use xlink:href="#DejaVuSans-62" x="393.213"/><use xlink:href="#DejaVuSans-6f" x="456.689"/><use xlink:href="#DejaVuSans-74" x="517.871"/><use xlink:href="#DejaVuSans-2f" x="557.08"/><use xlink:href="#DejaVuSans-72" x="590.771"/><use xlink:href="#DejaVuSans-63" x="629.635"/><use xlink:href="#DejaVuSans-6d" x="684.615"/></g><g style="fill:#8c564b" transform="matrix(.14 0 0 -.14 465.907 223.237)" id="text_21"><defs><path id="DejaVuSans-6b" d="M581 4863h578V1991l1716 1509h734L1753 1863 3688 0h-750L1159 1709V0H581v4863z" transform="scale(.01563)"/></defs><use xlink:href="#DejaVuSans-74"/><use xlink:href="#DejaVuSans-65" x="39.209"/><use xlink:href="#DejaVuSans-63" x="100.732"/><use xlink:href="#DejaVuSans-68" x="155.713"/><use xlink:href="#DejaVuSans-6e" x="219.092"/><use xlink:href="#DejaVuSans-69" x="282.471"/><use xlink:href="#DejaVuSans-63" x="310.254"/><use xlink:href="#DejaVuSans-61" x="365.234"/><use xlink:href="#DejaVuSans-6c" x="426.514"/><use xlink:href="#DejaVuSans-70" x="454.297"/><use xlink:href="#DejaVuSans-69" x="517.773"/><use xlink:href="#DejaVuSans-63" x="545.557"/><use xlink:href="#DejaVuSans-6b" x="600.537"/><use xlink:href="#DejaVuSans-6c" x="658.447"/><use xlink:href="#DejaVuSans-65" x="686.23"/><use xlink:href="#DejaVuSans-73" x="747.754"/><use xlink:href="#DejaVuSans-2f" x="799.854"/><use xlink:href="#DejaVuSans-68" x="833.545"/><use xlink:href="#DejaVuSans-6f" x="896.924"/><use xlink:href="#DejaVuSans-6d" x="958.105"/><use xlink:href="#DejaVuSans-65" x="1055.518"/><use xlink:href="#DejaVuSans-73" x="1117.041"/><use xlink:href="#DejaVuSans-69" x="1169.141"/><use xlink:href="#DejaVuSans-63" x="1196.924"/><use xlink:href="#DejaVuSans-6b" x="1251.904"/></g><g style="fill:#e377c2" transform="matrix(.14 0 0 -.14 465.907 237.237)" id="text_22"><defs><path id="DejaVuSans-52" d="M2841 2188q203-69 395-294t386-619L4263 0h-679l-596 1197q-232 469-449 622t-592 153h-688V0H628v4666h1425q800 0 1194-335 394-334 394-1009 0-441-205-732-205-290-595-402zM1259 4147V2491h794q456 0 689 211t233 620q0 409-233 617t-689 208h-794z" transform="scale(.01563)"/><path id="DejaVuSans-76" d="M191 3500h609L1894 563l1094 2937h609L2284 0h-781L191 3500z" transform="scale(.01563)"/></defs><use xlink:href="#DejaVuSans-52"/><use xlink:href="#DejaVuSans-69" x="69.482"/><use xlink:href="#DejaVuSans-63" x="97.266"/><use xlink:href="#DejaVuSans-68" x="152.246"/><use xlink:href="#DejaVuSans-69" x="215.625"/><use xlink:href="#DejaVuSans-48" x="243.408"/><use xlink:href="#DejaVuSans-2f" x="318.604"/><use xlink:href="#DejaVuSans-76" x="352.295"/><use xlink:href="#DejaVuSans-63" x="411.475"/><use xlink:href="#DejaVuSans-73" x="466.455"/><use xlink:href="#DejaVuSans-68" x="518.555"/></g><g style="fill:#7f7f7f" transform="matrix(.14 0 0 -.14 465.907 251.237)" id="text_23"><use xlink:href="#DejaVuSans-61"/><use xlink:href="#DejaVuSans-6e" x="61.279"/><use xlink:href="#DejaVuSans-64" x="124.658"/><use xlink:href="#DejaVuSans-73" x="188.135"/><use xlink:href="#DejaVuSans-65" x="240.234"/><use xlink:href="#DejaVuSans-6e" x="301.758"/><use xlink:href="#DejaVuSans-73" x="365.137"/><use xlink:href="#DejaVuSans-2f" x="417.236"/><use xlink:href="#DejaVuSans-68" x="450.928"/><use xlink:href="#DejaVuSans-6f" x="514.307"/><use xlink:href="#DejaVuSans-6d" x="575.488"/><use xlink:href="#DejaVuSans-65" x="672.9"/><use xlink:href="#DejaVuSans-73" x="734.424"/><use xlink:href="#DejaVuSans-68" x="786.523"/><use xlink:href="#DejaVuSans-69" x="849.902"/><use xlink:href="#DejaVuSans-63" x="877.686"/><use xlink:href="#DejaVuSans-6b" x="932.666"/></g><g style="fill:#bcbd22" transform="matrix(.14 0 0 -.14 465.907 272.984)" id="text_24"><defs><path id="DejaVuSans-66" d="M2375 4863v-479h-550q-309 0-430-125-120-125-120-450v-309h947v-447h-947V0H697v3053H147v447h550v244q0 584 272 851 272 268 862 268h544z" transform="scale(.01563)"/></defs><use xlink:href="#DejaVuSans-66"/><use xlink:href="#DejaVuSans-72" x="35.205"/><use xlink:href="#DejaVuSans-65" x="74.068"/><use xlink:href="#DejaVuSans-73" x="135.592"/><use xlink:href="#DejaVuSans-68" x="187.691"/><use xlink:href="#DejaVuSans-73" x="251.07"/><use xlink:href="#DejaVuSans-68" x="303.17"/><use xlink:href="#DejaVuSans-65" x="366.549"/><use xlink:href="#DejaVuSans-6c" x="428.072"/><use xlink:href="#DejaVuSans-6c" x="455.855"/><use xlink:href="#DejaVuSans-2f" x="483.639"/><use xlink:href="#DejaVuSans-66" x="517.33"/><use xlink:href="#DejaVuSans-72" x="552.535"/><use xlink:href="#DejaVuSans-65" x="591.398"/><use xlink:href="#DejaVuSans-73" x="652.922"/><use xlink:href="#DejaVuSans-68" x="705.021"/></g><g style="fill:#b0b0b0" transform="matrix(.09716 0 0 -.09716 98.073 344.725)" id="text_25"><defs><path id="DejaVuSans-40" d="M2381 1678q0-447 222-702 222-254 610-254 384 0 604 256 221 256 221 700 0 438-225 695-225 258-607 258-378 0-602-256-223-256-223-697zm1703-934q-187-241-429-355t-564-114q-538 0-874 389t-336 1014q0 625 337 1015 338 391 873 391 322 0 565-117 244-117 428-354v409h447V722q457 69 714 417 258 349 258 902 0 334-99 628-98 294-298 544-325 409-792 626t-1017 217q-384 0-738-102-353-101-653-301-490-319-767-836-276-517-276-1120 0-497 179-932 180-434 521-765 328-325 759-495 431-171 922-171 403 0 792 136t714 389l281-347q-390-303-851-464t-936-161q-578 0-1091 205-512 205-912 595Q841 78 631 592q-209 514-209 1105 0 569 212 1084 213 516 607 907 403 396 931 607t1119 211q662 0 1229-272 568-271 952-771 234-307 357-666 124-359 124-744 0-822-497-1297T4084 263v481z" transform="scale(.01563)"/><path id="DejaVuSans-7c" d="M1344 4891v-6400H813v6400h531z" transform="scale(.01563)"/><path id="DejaVuSans-4e" d="M628 4666h850L3547 763v3903h612V0h-850L1241 3903V0H628v4666z" transform="scale(.01563)"/><path id="DejaVuSans-53" d="M3425 4513v-616q-359 172-678 256-319 85-616 85-515 0-795-200t-280-569q0-310 186-468 186-157 705-254l381-78q706-135 1042-474t336-907q0-679-455-1029Q2797-91 1919-91q-331 0-705 75-373 75-773 222v650q384-215 753-325 369-109 725-109 540 0 834 212 294 213 294 607 0 343-211 537t-692 291l-385 75q-706 140-1022 440-315 300-315 835 0 619 436 975t1201 356q329 0 669-60 341-59 697-177z" transform="scale(.01563)"/><path id="DejaVuSans-f6" d="M1959 3097q-462 0-731-361t-269-989q0-628 267-989 268-361 733-361 460 0 728 362 269 363 269 988 0 622-269 986-268 364-728 364zm0 487q750 0 1178-488 429-487 429-1349 0-859-429-1349Q2709-91 1959-91q-753 0-1180 489-426 490-426 1349 0 862 426 1349 427 488 1180 488zm295 1266h634v-631h-634v631zm-1222 0h634v-631h-634v631z" transform="scale(.01563)"/><path id="DejaVuSans-43" d="M4122 4306v-665q-319 297-680 443-361 147-767 147-800 0-1225-489t-425-1414q0-922 425-1411t1225-489q406 0 767 147t680 444V359q-331-225-702-338-370-112-782-112-1060 0-1670 648-609 649-609 1771 0 1125 609 1773 610 649 1670 649 418 0 788-111 371-111 696-333z" transform="scale(.01563)"/><path id="DejaVuSans-42" d="M1259 2228V519h1013q509 0 754 211 246 211 246 645 0 438-246 645-245 208-754 208H1259zm0 1919V2741h935q462 0 688 173 227 174 227 530 0 353-227 528-226 175-688 175h-935zm-631 519h1613q722 0 1112-300 391-300 391-853 0-429-200-682t-588-315q466-100 724-418 258-317 258-792 0-625-425-966Q3088 0 2303 0H628v4666z" transform="scale(.01563)"/><path id="DejaVuSans-59" d="M-13 4666h679l1293-1919 1285 1919h678L2272 2222V0h-634v2222L-13 4666z" transform="scale(.01563)"/></defs><use xlink:href="#DejaVuSans-40"/><use xlink:href="#DejaVuSans-6e" x="100"/><use xlink:href="#DejaVuSans-73" x="163.379"/><use xlink:href="#DejaVuSans-63" x="215.479"/><use xlink:href="#DejaVuSans-68" x="270.459"/><use xlink:href="#DejaVuSans-6c" x="333.838"/><use xlink:href="#DejaVuSans-6f" x="361.621"/><use xlink:href="#DejaVuSans-65" x="422.803"/><use xlink:href="#DejaVuSans-20" x="484.326"/><use xlink:href="#DejaVuSans-2f" x="516.113"/><use xlink:href="#DejaVuSans-20" x="549.805"/><use xlink:href="#DejaVuSans-67" x="581.592"/><use xlink:href="#DejaVuSans-69" x="645.068"/><use xlink:href="#DejaVuSans-74" x="672.852"/><use xlink:href="#DejaVuSans-68" x="712.061"/><use xlink:href="#DejaVuSans-75" x="775.439"/><use xlink:href="#DejaVuSans-62" x="838.818"/><use xlink:href="#DejaVuSans-2d" x="902.295"/><use xlink:href="#DejaVuSans-74" x="938.379"/><use xlink:href="#DejaVuSans-72" x="977.588"/><use xlink:href="#DejaVuSans-65" x="1016.451"/><use xlink:href="#DejaVuSans-6e" x="1077.975"/><use xlink:href="#DejaVuSans-64" x="1141.354"/><use xlink:href="#DejaVuSans-73" x="1204.83"/><use xlink:href="#DejaVuSans-20" x="1256.93"/><use xlink:href="#DejaVuSans-7c" x="1288.717"/><use xlink:href="#DejaVuSans-20" x="1322.408"/><use xlink:href="#DejaVuSans-4e" x="1354.195"/><use xlink:href="#DejaVuSans-69" x="1429"/><use xlink:href="#DejaVuSans-63" x="1456.783"/><use xlink:href="#DejaVuSans-6f" x="1511.764"/><use xlink:href="#DejaVuSans-20" x="1572.945"/><use xlink:href="#DejaVuSans-53" x="1604.732"/><use xlink:href="#DejaVuSans-63" x="1668.209"/><use xlink:href="#DejaVuSans-68" x="1723.189"/><use xlink:href="#DejaVuSans-6c" x="1786.568"/><use xlink:href="#DejaVuSans-f6" x="1814.352"/><use xlink:href="#DejaVuSans-6d" x="1875.533"/><use xlink:href="#DejaVuSans-65" x="1972.945"/><use xlink:href="#DejaVuSans-72" x="2034.469"/><use xlink:href="#DejaVuSans-20" x="2075.582"/><use xlink:href="#DejaVuSans-7c" x="2107.369"/><use xlink:href="#DejaVuSans-20" x="2141.061"/><use xlink:href="#DejaVuSans-43" x="2172.848"/><use xlink:href="#DejaVuSans-43" x="2242.672"/><use xlink:href="#DejaVuSans-20" x="2312.496"/><use xlink:href="#DejaVuSans-42" x="2344.283"/><use xlink:href="#DejaVuSans-59" x="2407.387"/></g><path d="m98.073 310.689 2.458-15.499 2.378-.602 12.128-1.88 2.458-.565 4.835-.602 7.135-1.204 4.835-.752 4.836-.64 2.457-.3 9.672-.565 4.756-.3 4.835-.076 4.836-.15 9.75-.076 7.294-.075 2.22-.677 2.457-.94 4.835-1.58 4.836-2.295 4.835-1.881 2.458-.978 2.378-1.881 2.457-1.053 2.458-1.204 7.055-4.778 2.457-1.204 2.379-.865 2.457-1.241 2.457-1.091 2.379-.903 2.457-1.128 2.378-.903 2.458-.602 2.457-.79 2.22-1.354 2.457-1.091 4.836-1.467 2.378-.866 7.293-2.031 2.457-.527 2.378-.94 4.915-1.091 2.3-.865 2.457-.49 2.378-1.053 4.835-.94 4.915-1.129 4.836-1.204 7.293-1.692 4.677-1.43 4.835-.903 2.379-.714 2.457-.49 2.457-.263 4.836-1.015 2.378-.377 2.458-.188 2.457-.376 2.22-.489 2.457-.414 2.378-.64 2.458-.488 12.128-1.806 2.378-.564 4.915-.64 7.056-1.58 2.457-.3 2.378-.565 2.458-.376 2.457-.226 2.378-.376 2.458-.263 2.378-.49 2.457-.15 2.458-.376 2.298-.527 2.458-.376 2.378-.489 2.457-.3 2.379-.415 2.457-.263 2.457-.038 9.672-1.241 2.457-.414 7.055-.79 2.458-.414 4.835-.451 2.458-.038 2.378-.263 2.457-.075 2.378-.339 2.458-.075 9.513-.752 2.457-.339 2.378-.188h0" clip-path="url(#p375cbcf20d)" style="fill:none;stroke:#8c564b;stroke-width:1.5;stroke-linecap:square" id="line2d_26"/><path d="m197.084 310.689 2.457-.188 2.378-.15 2.458-1.054 2.378-.226 2.457-.64 2.458-1.466 2.22-4.026 2.457-1.617 2.378-1.016 2.457-1.354 2.379-1.354 2.457-1.129 2.457-1.128 2.379-.828 2.457-1.28 2.378-1.466 2.458-1.505 2.457-1.128 2.22-1.016 2.457-.903 2.378-1.204 2.458-1.09 2.378-1.13 2.457-1.354 2.458-2.106 2.378-.978 2.457-1.204 2.378-1.467 2.458-1.28 2.457-1.58 2.3-1.128 2.457-1.053 2.378-1.542 2.457-.828 2.378-1.505 2.458-1.09 2.457-.828 2.378-1.242 2.458-.714 2.378-1.167 2.457-1.128 2.458-1.166 2.22-1.242 2.457-.978 2.378-1.316 2.457-.903 2.379-1.054 2.457-.752 2.457-1.354 2.379-.79 2.457-.865 2.378-1.28 2.458-.827 2.457-.828 2.22-.865 2.457-.94 2.378-.903 2.458-.978 2.378-.828 2.457-1.241 2.458-.677 2.378-.715 2.457-.79 2.378-.978 2.458-.49 2.457-1.955 2.22-1.054 2.457-.978 2.379-.903 2.457-.978 2.378-.79 2.458-.564 2.457-.978 2.378-.828 2.458-.677 2.378-.827 2.457-.339 2.458-.865 2.298-.79 2.458-.828 2.378-.827 2.457-1.166 2.379-.64 2.457-1.166 2.457-.828 2.379-.752 2.457-.602 2.378-.602 2.458-.715 2.457-.752 2.22-.978 2.457-.564 2.378-.677 2.458-1.091 2.378-.753 2.457-.827 2.458-.452 2.378-.79 2.457-.677 2.378-.903 2.458-.827 2.457-.715 2.22-.49 2.457-.752 2.379-.752 2.457-1.43 2.378-.714" clip-path="url(#p375cbcf20d)" style="fill:none;stroke:#9467bd;stroke-width:1.5;stroke-linecap:square" id="line2d_27"/><path d="m296.094 310.689 2.458-.15 2.22-.151 2.457-.15 2.378-.038 2.457-.339 2.379-.113 2.457-.79 2.457-.413 2.379-.828 2.457-.715 2.378-.451 2.458-.527 2.457-.715 2.22-.564 2.457-.602 2.378-.827 2.458-.79 2.378-.715 2.457-.752 2.458-.866 2.378-1.203 2.457-1.392 2.378-.978 2.458-1.054 2.457-1.166 2.22-.903 2.457-1.204 2.379-1.692 2.457-1.242 2.378-.94 2.458-1.919 2.457-1.128 2.378-1.58 2.458-1.43 2.378-1.43 2.457-1.692 2.458-2.934 2.298-1.844 2.458-1.805 2.378-2.822 2.457-3.611 2.379-2.897 2.457-2.633 2.457-2.633 2.379-2.295 2.457-2.37 2.378-2.633 2.458-1.919 2.457-3.197 2.22-1.881 2.457-2.22 2.378-2.445 2.458-2.069 2.378-2.972 2.457-2.332 2.458-2.859 2.378-2.934 2.457-3.085 2.378-2.67 2.458-3.274 2.457-3.16 2.22-3.31 2.457-3.235 2.379-4.552 2.457-3.047 2.378-4.1" clip-path="url(#p375cbcf20d)" style="fill:none;stroke:#d62728;stroke-width:1.5;stroke-linecap:square" id="line2d_28"/><path d="m252.495 310.689 2.457-.075 2.458-.076 2.378-.376 2.457-.338 2.378-.076 2.458-.15 2.457-.226 2.3-.414 2.457-.338 2.378-.49 2.457-.827 2.378-.564 2.458-.301 2.457-.301 2.378-.414 2.458-.827 2.378-.49 2.457-.639 2.458-.828 2.22-.79 2.457-1.015 2.378-1.016 2.457-1.166 2.379-1.693 2.457-.677 2.457-1.43 2.379-.601 2.457-.94 2.378-.678 2.458-1.43 2.457-1.015 2.22-1.054 2.457-1.58 2.378-.978 2.458-1.128 2.378-.64 2.457-1.015 2.458-1.091 2.378-.753 2.457-1.504 2.378-1.054 2.458-1.128 2.457-.94 2.22-1.054 2.457-2.295 2.379-2.106 2.457-1.58 2.378-1.881 2.458-1.204 2.457-1.166 2.378-1.091 2.458-1.843 2.378-2.107 2.457-1.618 2.458-2.144 2.298-1.392 2.458-1.73 2.378-1.58 2.457-2.596 2.379-2.746 2.457-2.408 2.457-1.58 2.379-2.03 2.457-1.92 2.378-2.106 2.458-2.031 2.457-3.499 2.22-3.085 2.457-2.971 2.378-3.16 2.458-4.44 2.378-2.934 2.457-3.724 2.458-2.859 2.378-2.821 2.457-2.822 2.378-3.16 2.458-3.122 2.457-3.875 2.22-3.047 2.457-2.971 2.379-2.897 2.457-3.611 2.378-3.198" clip-path="url(#p375cbcf20d)" style="fill:none;stroke:#2ca02c;stroke-width:1.5;stroke-linecap:square" id="line2d_29"/><path d="m213.89 310.689 2.457-.903h2.378l2.457-.075 2.379-.264 2.457-.188 2.457-.677 2.379-.075 2.457-.263 2.378-.188 2.458-.715 2.457-.64 2.22-1.241 2.457-1.166 2.378-.866 2.458-1.24 2.378-.829 2.457-.978 2.458-1.241 2.378-1.09 2.457-1.355 2.378-1.091 2.458-1.166 2.457-1.317 2.3-1.279 2.457-.715 2.378-1.993 2.457-1.016 2.378-.94 2.458-.903 2.457-1.806 2.378-1.242 2.458-1.128 2.378-1.053 2.457-1.43 2.458-1.58 2.22-1.655 2.457-1.73 2.378-1.392 2.457-1.618 2.379-1.392 2.457-1.354 2.457-1.693 2.379-1.58 2.457-1.58 2.378-1.693 2.458-1.993 2.457-1.242 2.22-2.37 2.457-1.73 2.378-2.182L337 250.8l2.378-1.655 2.457-1.73 2.458-1.618 2.378-1.956 2.457-1.994 2.378-2.182 2.458-2.332 2.457-2.107 2.22-2.407 2.457-2.22 2.379-2.069 2.457-2.257 2.378-1.504 2.458-1.881 2.457-1.919 2.378-2.069 2.458-2.182 2.378-2.37 2.457-1.88 2.458-2.483 2.298-2.86 2.458-2.934 2.378-3.987 2.457-4.778 2.379-3.385 2.457-3.348 2.457-2.709 2.379-2.596 2.457-2.934 2.378-2.859 2.458-3.16 2.457-3.95 2.22-4.326 2.457-5.229 2.378-3.837 2.458-3.837 2.378-4.439 2.457-3.16 2.458-3.95 2.378-5.003 2.457-3.085 2.378-4.175 2.458-5.192 2.457-3.686 2.22-3.574 2.457-3.085 2.379-3.686 2.457-3.687 2.378-2.558" clip-path="url(#p375cbcf20d)" style="fill:none;stroke:#ff7f0e;stroke-width:1.5;stroke-linecap:square" id="line2d_30"/><path d="m349.127 310.689 2.378-2.671 2.458-1.129 2.457-47.286 2.22-5.04 2.457-1.468 2.379-1.768 2.457-1.843 2.378-1.543 2.458-1.993 2.457-1.73 2.378-1.468 2.458-2.52 2.378-2.822 2.457-2.67 2.458-2.182 2.298-2.37 2.458-2.709 2.378-7.561 2.457-4.514 2.379-2.07 2.457-1.918 2.457-3.122 2.379-2.295 2.457-3.085 2.378-3.348 2.458-3.912 2.457-2.746 2.22-5.568 2.457-4.514 2.378-8.163 2.458-6.696 2.378-3.8 2.457-6.47 2.458-7.825 2.378-18.884 2.457-9.141 2.378-14.52 2.458-13.167 2.457-8.088 2.22-9.48 2.457-7.637 2.379-8.125 2.457-8.953 2.378-7.298" clip-path="url(#p375cbcf20d)" style="fill:none;stroke:#1f77b4;stroke-width:1.5;stroke-linecap:square" id="line2d_31"/></g></g><defs><clipPath id="p375cbcf20d"><path d="M98.073 44.577h357.12v266.112H98.073z"/></clipPath></defs></svg>