<svg xmlns="http://www.w3.org/2000/svg" xmlns:xlink="http://www.w3.org/1999/xlink" width="859.61" height="443.135" viewBox="0 0 644.707 332.351"><defs><style>*{stroke-linejoin:round;stroke-linecap:butt}</style></defs><g id="figure_1"><path id="patch_1" d="M0 332.351h644.707V0H0v332.351z" style="fill:none"/><g id="axes_1"><path id="patch_2" d="M98.073 288.824h357.12V22.712H98.073v266.112z" style="fill:none"/><g id="matplotlib.axis_1"><g id="xtick_1"><g id="line2d_1"><defs><path id="m4d5b6732f0" d="M0 0v3.5" style="stroke:#b0b0b0;stroke-width:.4"/></defs><use xlink:href="#m4d5b6732f0" x="124.925" y="288.824" style="fill:#b0b0b0;stroke:#b0b0b0;stroke-width:.4"/></g><g id="text_1" style="fill:#b0b0b0" transform="matrix(.14 0 0 -.14 107.11 306.462)"><defs><path id="DejaVuSans-32" d="M1228 531h2203V0H469v531q359 372 979 998 621 627 780 809 303 340 423 576 121 236 121 464 0 372-261 606-261 235-680 235-297 0-627-103-329-103-704-313v638q381 153 712 231 332 78 607 78 725 0 1156-363 431-362 431-968 0-288-108-546-107-257-392-607-78-91-497-524-418-433-1181-1211z" transform="scale(.01563)"/><path id="DejaVuSans-30" d="M2034 4250q-487 0-733-480-245-479-245-1442 0-959 245-1439 246-480 733-480 491 0 736 480 246 480 246 1439 0 963-246 1442-245 480-736 480zm0 500q785 0 1199-621 414-620 414-1801 0-1178-414-1799Q2819-91 2034-91q-784 0-1198 620-414 621-414 1799 0 1181 414 1801 414 621 1198 621z" transform="scale(.01563)"/><path id="DejaVuSans-31" d="M794 531h1031v3560L703 3866v575l1116 225h631V531h1031V0H794v531z" transform="scale(.01563)"/></defs><use xlink:href="#DejaVuSans-32"/><use xlink:href="#DejaVuSans-30" x="63.623"/><use xlink:href="#DejaVuSans-31" x="127.246"/><use xlink:href="#DejaVuSans-32" x="190.869"/></g></g><g id="xtick_2"><use xlink:href="#m4d5b6732f0" id="line2d_2" x="183.695" y="288.824" style="fill:#b0b0b0;stroke:#b0b0b0;stroke-width:.4"/><g id="text_2" style="fill:#b0b0b0" transform="matrix(.14 0 0 -.14 165.88 306.462)"><defs><path id="DejaVuSans-34" d="M2419 4116 825 1625h1594v2491zm-166 550h794V1625h666v-525h-666V0h-628v1100H313v609l1940 2957z" transform="scale(.01563)"/></defs><use xlink:href="#DejaVuSans-32"/><use xlink:href="#DejaVuSans-30" x="63.623"/><use xlink:href="#DejaVuSans-31" x="127.246"/><use xlink:href="#DejaVuSans-34" x="190.869"/></g></g><g id="xtick_3"><use xlink:href="#m4d5b6732f0" id="line2d_3" x="242.384" y="288.824" style="fill:#b0b0b0;stroke:#b0b0b0;stroke-width:.4"/><g id="text_3" style="fill:#b0b0b0" transform="matrix(.14 0 0 -.14 224.57 306.462)"><defs><path id="DejaVuSans-36" d="M2113 2584q-425 0-674-291-248-290-248-796 0-503 248-796 249-292 674-292t673 292q248 293 248 796 0 506-248 796-248 291-673 291zm1253 1979v-575q-238 112-480 171-242 60-480 60-625 0-955-422-329-422-376-1275 184 272 462 417 279 145 613 145 703 0 1111-427 408-426 408-1160 0-719-425-1154Q2819-91 2113-91q-810 0-1238 620-428 621-428 1799 0 1106 525 1764t1409 658q238 0 480-47t505-140z" transform="scale(.01563)"/></defs><use xlink:href="#DejaVuSans-32"/><use xlink:href="#DejaVuSans-30" x="63.623"/><use xlink:href="#DejaVuSans-31" x="127.246"/><use xlink:href="#DejaVuSans-36" x="190.869"/></g></g><g id="xtick_4"><use xlink:href="#m4d5b6732f0" id="line2d_4" x="301.154" y="288.824" style="fill:#b0b0b0;stroke:#b0b0b0;stroke-width:.4"/><g id="text_4" style="fill:#b0b0b0" transform="matrix(.14 0 0 -.14 283.339 306.462)"><defs><path id="DejaVuSans-38" d="M2034 2216q-450 0-708-241-257-241-257-662 0-422 257-663 258-241 708-241t709 242q260 243 260 662 0 421-258 662-257 241-711 241zm-631 268q-406 100-633 378-226 279-226 679 0 559 398 884 399 325 1092 325 697 0 1094-325t397-884q0-400-227-679-226-278-629-378 456-106 710-416 255-309 255-755 0-679-414-1042Q2806-91 2034-91q-771 0-1186 362-414 363-414 1042 0 446 256 755 257 310 713 416zm-231 997q0-362 226-565 227-203 636-203 407 0 636 203 230 203 230 565 0 363-230 566-229 203-636 203-409 0-636-203-226-203-226-566z" transform="scale(.01563)"/></defs><use xlink:href="#DejaVuSans-32"/><use xlink:href="#DejaVuSans-30" x="63.623"/><use xlink:href="#DejaVuSans-31" x="127.246"/><use xlink:href="#DejaVuSans-38" x="190.869"/></g></g><g id="xtick_5"><use xlink:href="#m4d5b6732f0" id="line2d_5" x="359.843" y="288.824" style="fill:#b0b0b0;stroke:#b0b0b0;stroke-width:.4"/><g id="text_5" style="fill:#b0b0b0" transform="matrix(.14 0 0 -.14 342.028 306.462)"><use xlink:href="#DejaVuSans-32"/><use xlink:href="#DejaVuSans-30" x="63.623"/><use xlink:href="#DejaVuSans-32" x="127.246"/><use xlink:href="#DejaVuSans-30" x="190.869"/></g></g><g id="xtick_6"><use xlink:href="#m4d5b6732f0" id="line2d_6" x="418.613" y="288.824" style="fill:#b0b0b0;stroke:#b0b0b0;stroke-width:.4"/><g id="text_6" style="fill:#b0b0b0" transform="matrix(.14 0 0 -.14 400.798 306.462)"><use xlink:href="#DejaVuSans-32"/><use xlink:href="#DejaVuSans-30" x="63.623"/><use xlink:href="#DejaVuSans-32" x="127.246"/><use xlink:href="#DejaVuSans-32" x="190.869"/></g></g></g><g id="matplotlib.axis_2"><g id="ytick_1"><path id="line2d_7" d="M98.073 288.824h357.12" clip-path="url(#pf3df6dfc42)" style="fill:none;stroke:#b0b0b0;stroke-width:.3;stroke-linecap:square"/><g id="line2d_8"><defs><path id="m922e7aa0e7" d="M0 0h-3.5" style="stroke:#b0b0b0;stroke-width:.3"/></defs><use xlink:href="#m922e7aa0e7" x="98.073" y="288.824" style="fill:#b0b0b0;stroke:#b0b0b0;stroke-width:.3"/></g><use xlink:href="#DejaVuSans-30" id="text_7" style="fill:#b0b0b0" transform="matrix(.14 0 0 -.14 82.166 294.143)"/></g><g id="ytick_2"><path id="line2d_9" d="M98.073 247.534h357.12" clip-path="url(#pf3df6dfc42)" style="fill:none;stroke:#b0b0b0;stroke-width:.3;stroke-linecap:square"/><use xlink:href="#m922e7aa0e7" id="line2d_10" x="98.073" y="247.534" style="fill:#b0b0b0;stroke:#b0b0b0;stroke-width:.3"/><g id="text_8" style="fill:#b0b0b0" transform="matrix(.14 0 0 -.14 55.443 252.853)"><use xlink:href="#DejaVuSans-31"/><use xlink:href="#DejaVuSans-30" x="63.623"/><use xlink:href="#DejaVuSans-30" x="127.246"/><use xlink:href="#DejaVuSans-30" x="190.869"/></g></g><g id="ytick_3"><path id="line2d_11" d="M98.073 206.245h357.12" clip-path="url(#pf3df6dfc42)" style="fill:none;stroke:#b0b0b0;stroke-width:.3;stroke-linecap:square"/><use xlink:href="#m922e7aa0e7" id="line2d_12" x="98.073" y="206.245" style="fill:#b0b0b0;stroke:#b0b0b0;stroke-width:.3"/><g id="text_9" style="fill:#b0b0b0" transform="matrix(.14 0 0 -.14 55.443 211.564)"><use xlink:href="#DejaVuSans-32"/><use xlink:href="#DejaVuSans-30" x="63.623"/><use xlink:href="#DejaVuSans-30" x="127.246"/><use xlink:href="#DejaVuSans-30" x="190.869"/></g></g><g id="ytick_4"><path id="line2d_13" d="M98.073 164.955h357.12" clip-path="url(#pf3df6dfc42)" style="fill:none;stroke:#b0b0b0;stroke-width:.3;stroke-linecap:square"/><use xlink:href="#m922e7aa0e7" id="line2d_14" x="98.073" y="164.955" style="fill:#b0b0b0;stroke:#b0b0b0;stroke-width:.3"/><g id="text_10" style="fill:#b0b0b0" transform="matrix(.14 0 0 -.14 55.443 170.274)"><defs><path id="DejaVuSans-33" d="M2597 2516q453-97 707-404 255-306 255-756 0-690-475-1069Q2609-91 1734-91q-293 0-604 58T488 141v609q262-153 574-231 313-78 654-78 593 0 904 234t311 681q0 413-289 645-289 233-804 233h-544v519h569q465 0 712 186t247 536q0 359-255 551-254 193-729 193-260 0-557-57-297-56-653-174v562q360 100 674 150t592 50q719 0 1137-327 419-326 419-882 0-388-222-655t-631-370z" transform="scale(.01563)"/></defs><use xlink:href="#DejaVuSans-33"/><use xlink:href="#DejaVuSans-30" x="63.623"/><use xlink:href="#DejaVuSans-30" x="127.246"/><use xlink:href="#DejaVuSans-30" x="190.869"/></g></g><g id="ytick_5"><path id="line2d_15" d="M98.073 123.665h357.12" clip-path="url(#pf3df6dfc42)" style="fill:none;stroke:#b0b0b0;stroke-width:.3;stroke-linecap:square"/><use xlink:href="#m922e7aa0e7" id="line2d_16" x="98.073" y="123.665" style="fill:#b0b0b0;stroke:#b0b0b0;stroke-width:.3"/><g id="text_11" style="fill:#b0b0b0" transform="matrix(.14 0 0 -.14 55.443 128.984)"><use xlink:href="#DejaVuSans-34"/><use xlink:href="#DejaVuSans-30" x="63.623"/><use xlink:href="#DejaVuSans-30" x="127.246"/><use xlink:href="#DejaVuSans-30" x="190.869"/></g></g><g id="ytick_6"><path id="line2d_17" d="M98.073 82.376h357.12" clip-path="url(#pf3df6dfc42)" style="fill:none;stroke:#b0b0b0;stroke-width:.3;stroke-linecap:square"/><use xlink:href="#m922e7aa0e7" id="line2d_18" x="98.073" y="82.376" style="fill:#b0b0b0;stroke:#b0b0b0;stroke-width:.3"/><g id="text_12" style="fill:#b0b0b0" transform="matrix(.14 0 0 -.14 55.443 87.694)"><defs><path id="DejaVuSans-35" d="M691 4666h2478v-532H1269V2991q137 47 274 70 138 23 276 23 781 0 1237-428 457-428 457-1159 0-753-469-1171Q2575-91 1722-91q-294 0-599 50Q819 9 494 109v635q281-153 581-228t634-75q541 0 856 284 316 284 316 772 0 487-316 771-315 285-856 285-253 0-505-56-251-56-513-175v2344z" transform="scale(.01563)"/></defs><use xlink:href="#DejaVuSans-35"/><use xlink:href="#DejaVuSans-30" x="63.623"/><use xlink:href="#DejaVuSans-30" x="127.246"/><use xlink:href="#DejaVuSans-30" x="190.869"/></g></g><g id="ytick_7"><path id="line2d_19" d="M98.073 41.086h357.12" clip-path="url(#pf3df6dfc42)" style="fill:none;stroke:#b0b0b0;stroke-width:.3;stroke-linecap:square"/><use xlink:href="#m922e7aa0e7" id="line2d_20" x="98.073" y="41.086" style="fill:#b0b0b0;stroke:#b0b0b0;stroke-width:.3"/><g id="text_13" style="fill:#b0b0b0" transform="matrix(.14 0 0 -.14 55.443 46.405)"><use xlink:href="#DejaVuSans-36"/><use xlink:href="#DejaVuSans-30" x="63.623"/><use xlink:href="#DejaVuSans-30" x="127.246"/><use xlink:href="#DejaVuSans-30" x="190.869"/></g></g><g id="text_14" style="fill:#b0b0b0" transform="matrix(.14 0 0 -.14 7.2 11.563)"><defs><path id="DejaVuSans-47" d="M3809 666v1253H2778v519h1656V434q-365-259-806-392-440-133-940-133-1094 0-1712 639-617 640-617 1780 0 1144 617 1783 618 639 1712 639 456 0 867-113 411-112 758-331v-672q-350 297-744 447t-828 150q-857 0-1287-478-429-478-429-1425 0-944 429-1422 430-478 1287-478 334 0 596 58 263 58 472 180z" transform="scale(.01563)"/><path id="DejaVuSans-69" d="M603 3500h575V0H603v3500zm0 1363h575v-729H603v729z" transform="scale(.01563)"/><path id="DejaVuSans-74" d="M1172 4494v-994h1184v-447H1172V1153q0-428 117-550t477-122h590V0h-590q-666 0-919 248-253 249-253 905v1900H172v447h422v994h578z" transform="scale(.01563)"/><path id="DejaVuSans-48" d="M628 4666h631V2753h2294v1913h631V0h-631v2222H1259V0H628v4666z" transform="scale(.01563)"/><path id="DejaVuSans-75" d="M544 1381v2119h575V1403q0-497 193-746 194-248 582-248 465 0 735 297 271 297 271 810v1984h575V0h-575v538q-209-319-486-474-276-155-642-155-603 0-916 375-312 375-312 1097zm1447 2203z" transform="scale(.01563)"/><path id="DejaVuSans-62" d="M3116 1747q0 634-261 995t-717 361q-457 0-718-361t-261-995q0-634 261-995t718-361q456 0 717 361t261 995zM1159 2969q182 312 458 463 277 152 661 152 638 0 1036-506 399-506 399-1331T3314 415Q2916-91 2278-91q-384 0-661 152-276 152-458 464V0H581v4863h578V2969z" transform="scale(.01563)"/><path id="DejaVuSans-73" d="M2834 3397v-544q-243 125-506 187-262 63-544 63-428 0-642-131t-214-394q0-200 153-314t616-217l197-44q612-131 870-370t258-667q0-488-386-773Q2250-91 1575-91q-281 0-586 55T347 128v594q319-166 628-249 309-82 613-82 406 0 624 139 219 139 219 392 0 234-158 359-157 125-692 241l-200 47q-534 112-772 345-237 233-237 639 0 494 350 762 350 269 994 269 318 0 599-47 282-46 519-140z" transform="scale(.01563)"/><path id="DejaVuSans-61" d="M2194 1759q-697 0-966-159t-269-544q0-306 202-486 202-179 548-179 479 0 768 339t289 901v128h-572zm1147 238V0h-575v531q-197-318-491-470T1556-91q-537 0-855 302-317 302-317 808 0 590 395 890 396 300 1180 300h807v57q0 397-261 614t-733 217q-300 0-585-72-284-72-546-216v532q315 122 612 182 297 61 578 61 760 0 1135-394 375-393 375-1193z" transform="scale(.01563)"/><path id="DejaVuSans-72" d="M2631 2963q-97 56-211 82-114 27-251 27-488 0-749-317t-261-911V0H581v3500h578v-544q182 319 472 473 291 155 707 155 59 0 131-8 72-7 159-23l3-590z" transform="scale(.01563)"/></defs><use xlink:href="#DejaVuSans-47"/><use xlink:href="#DejaVuSans-69" x="77.49"/><use xlink:href="#DejaVuSans-74" x="105.273"/><use xlink:href="#DejaVuSans-48" x="144.482"/><use xlink:href="#DejaVuSans-75" x="219.678"/><use xlink:href="#DejaVuSans-62" x="283.057"/><use xlink:href="#DejaVuSans-20" x="346.533"/><use xlink:href="#DejaVuSans-73" x="378.32"/><use xlink:href="#DejaVuSans-74" x="430.42"/><use xlink:href="#DejaVuSans-61" x="469.629"/><use xlink:href="#DejaVuSans-72" x="530.908"/><use xlink:href="#DejaVuSans-73" x="572.021"/></g></g><path id="line2d_21" d="m220.275 288.824 2.412-.083h7.397l2.492-.247h4.904l2.412-.042H247.208l2.492-.04h9.809l2.492-.042h2.412l2.492-.083 2.412-.041H276.552l2.493-.041h2.412l2.492-.042h2.412l2.492-.33 2.493-.165 2.412-.041h2.492l2.412-.042 2.492-.041 2.492-.083 2.251-.123 2.493-.042 2.412-.041 2.492-.124 2.412-.041 2.492-.041h7.396l2.412-.083 2.493-.041 2.492-.083 2.251-.041 2.492-.124 2.412-.083 2.492-.082 2.412-.042 2.493-.082 2.492-.041 2.412-.083 2.492-.041 2.412-.042 2.492-.082h2.492l2.332-.041 2.492-.042 2.412-.041h2.492l2.412-.041H386.776l2.492-.042h2.493l2.25-.04H408.806l2.411-.249h2.493l2.412-.082h2.492l2.492-.083 2.251-.082 2.493-.083 2.411-.083 2.493-.123 2.412-.083 2.492-.041h2.492l2.412-.042h2.492l2.412-.04 2.492-.042h4.743l2.493-.041" clip-path="url(#pf3df6dfc42)" style="fill:none;stroke:#98df8a;stroke-width:1.5;stroke-linecap:square"/><path id="line2d_22" d="m359.843 288.824 2.492-.248 2.332-.578 2.492-.371 2.412-.248 2.492-.62 2.412-.33 2.493-.413 2.492-.62 2.412-.33 2.492-.206 2.412-.124 2.492-.371 2.493-.248 2.25-.454 2.493-.165 2.412-.29 2.492-.247 2.412-.248 2.492-.578 2.493-.372 2.411-.33 2.493-.454 2.412-.248 2.492-.578 2.492-.371 2.251-.455 2.493-.247 2.411-.455 2.493-.371 2.412-.826 2.492-.413 2.492-.537 2.412-.578 2.492-.33 2.412-.248 2.492-.289 2.493-.454 2.25-.248 2.493-.289" clip-path="url(#pf3df6dfc42)" style="fill:none;stroke:#ffbb78;stroke-width:1.5;stroke-linecap:square"/><path id="line2d_23" d="m98.073 288.824 2.251-.206 12.3-.083 7.397-.041 46.47-.042 4.903-.165 14.793-.165 17.044-.083 9.809-.206 4.743-.165 17.205-.62 19.617-1.197 2.411-.124 4.985-.082 2.412-.124 2.492-.33 4.904-.248 2.493-.413 4.743-.248 2.412-.124 2.492-.247 2.412-.124 4.985-.496 2.412-.082 2.492-.207 4.904-.124 2.492-.124 4.744-.413 2.412-.082 7.396-.537 4.904-.082 2.492-.372 4.905-.372 2.492-.536 4.743-.455 2.412-.454 2.492-.248 7.397-.33 2.412-.33 4.904-.413 4.984-.33 2.332-.083 2.492-.248 2.412-.413h2.492l2.412-.123 2.493-.248 4.904-.33 7.396-.909 4.744-.371 7.396-1.322 2.412-.165 4.985-.66 4.904-.702 2.412-.413 9.728-1.033 2.411-.578 2.493-.124 2.412-.454 2.492-.33 4.904-.496 4.904-.743 4.985-.495 4.743-.454h0" clip-path="url(#pf3df6dfc42)" style="fill:none;stroke:#aec7e8;stroke-width:1.5;stroke-linecap:square"/><g id="text_15" style="fill:#1f77b4" transform="matrix(.14 0 0 -.14 465.907 26.575)"><defs><path id="DejaVuSans-64" d="M2906 2969v1894h575V0h-575v525q-181-312-458-464-276-152-664-152-634 0-1033 506-398 507-398 1332t398 1331q399 506 1033 506 388 0 664-152 277-151 458-463zM947 1747q0-634 261-995t717-361q456 0 718 361 263 361 263 995t-263 995q-262 361-718 361t-717-361q-261-361-261-995z" transform="scale(.01563)"/><path id="DejaVuSans-6f" d="M1959 3097q-462 0-731-361t-269-989q0-628 267-989 268-361 733-361 460 0 728 362 269 363 269 988 0 622-269 986-268 364-728 364zm0 487q750 0 1178-488 429-487 429-1349 0-859-429-1349Q2709-91 1959-91q-753 0-1180 489-426 490-426 1349 0 862 426 1349 427 488 1180 488z" transform="scale(.01563)"/><path id="DejaVuSans-6e" d="M3513 2113V0h-575v2094q0 497-194 743-194 247-581 247-466 0-735-297-269-296-269-809V0H581v3500h578v-544q207 316 486 472 280 156 646 156 603 0 912-373 310-373 310-1098z" transform="scale(.01563)"/><path id="DejaVuSans-65" d="M3597 1894v-281H953q38-594 358-905t892-311q331 0 642 81t618 244V178Q3153 47 2828-22t-659-69q-838 0-1327 487-489 488-489 1320 0 859 464 1363 464 505 1252 505 706 0 1117-455 411-454 411-1235zm-575 169q-6 471-264 752-258 282-683 282-481 0-770-272t-333-766l2050 4z" transform="scale(.01563)"/><path id="DejaVuSans-2f" d="M1625 4666h531L531-594H0l1625 5260z" transform="scale(.01563)"/><path id="DejaVuSans-77" d="M269 3500h575l719-2731 715 2731h678l719-2731 716 2731h575L4050 0h-678l-753 2869L1863 0h-679L269 3500z" transform="scale(.01563)"/><path id="DejaVuSans-70" d="M1159 525v-1856H581v4831h578v-531q182 312 458 463 277 152 661 152 638 0 1036-506 399-506 399-1331T3314 415Q2916-91 2278-91q-384 0-661 152-276 152-458 464zm1957 1222q0 634-261 995t-717 361q-457 0-718-361t-261-995q0-634 261-995t718-361q456 0 717 361t261 995z" transform="scale(.01563)"/><path id="DejaVuSans-66" d="M2375 4863v-479h-550q-309 0-430-125-120-125-120-450v-309h947v-447h-947V0H697v3053H147v447h550v244q0 584 272 851 272 268 862 268h544z" transform="scale(.01563)"/></defs><use xlink:href="#DejaVuSans-64"/><use xlink:href="#DejaVuSans-6f" x="63.477"/><use xlink:href="#DejaVuSans-74" x="124.658"/><use xlink:href="#DejaVuSans-6e" x="163.867"/><use xlink:href="#DejaVuSans-65" x="227.246"/><use xlink:href="#DejaVuSans-74" x="288.77"/><use xlink:href="#DejaVuSans-2f" x="327.979"/><use xlink:href="#DejaVuSans-77" x="361.67"/><use xlink:href="#DejaVuSans-70" x="443.457"/><use xlink:href="#DejaVuSans-66" x="506.934"/></g><g id="text_16" style="fill:#ff7f0e" transform="matrix(.14 0 0 -.14 465.907 74.697)"><defs><path id="DejaVuSans-78" d="M3513 3500 2247 1797 3578 0h-678L1881 1375 863 0H184l1360 1831L300 3500h678l928-1247 928 1247h679z" transform="scale(.01563)"/><path id="DejaVuSans-57" d="M213 4666h637l981-3944 978 3944h710l981-3944 978 3944h641L4947 0h-794l-984 4050L2175 0h-794L213 4666z" transform="scale(.01563)"/><path id="DejaVuSans-67" d="M2906 1791q0 625-258 968-257 344-723 344-462 0-720-344-258-343-258-968 0-622 258-966t720-344q466 0 723 344 258 344 258 966zm575-1357q0-893-397-1329-396-436-1215-436-303 0-572 45t-522 139v559q253-137 500-202 247-66 503-66 566 0 847 295t281 892v285q-178-310-456-463T1784 0Q1141 0 747 490 353 981 353 1791q0 812 394 1302 394 491 1037 491 388 0 666-153t456-462v531h575V434z" transform="scale(.01563)"/></defs><use xlink:href="#DejaVuSans-77"/><use xlink:href="#DejaVuSans-78" x="81.787"/><use xlink:href="#DejaVuSans-57" x="140.967"/><use xlink:href="#DejaVuSans-69" x="237.594"/><use xlink:href="#DejaVuSans-64" x="265.377"/><use xlink:href="#DejaVuSans-67" x="328.854"/><use xlink:href="#DejaVuSans-65" x="392.33"/><use xlink:href="#DejaVuSans-74" x="453.854"/><use xlink:href="#DejaVuSans-73" x="493.063"/><use xlink:href="#DejaVuSans-2f" x="545.162"/><use xlink:href="#DejaVuSans-77" x="578.854"/><use xlink:href="#DejaVuSans-78" x="660.641"/><use xlink:href="#DejaVuSans-57" x="719.82"/><use xlink:href="#DejaVuSans-69" x="816.447"/><use xlink:href="#DejaVuSans-64" x="844.23"/><use xlink:href="#DejaVuSans-67" x="907.707"/><use xlink:href="#DejaVuSans-65" x="971.184"/><use xlink:href="#DejaVuSans-74" x="1032.707"/><use xlink:href="#DejaVuSans-73" x="1071.916"/></g><g id="text_17" style="fill:#2ca02c" transform="matrix(.14 0 0 -.14 465.907 88.697)"><defs><path id="DejaVuSans-6a" d="M603 3500h575V-63q0-668-255-968-254-300-820-300h-219v487H38q328 0 446 152Q603-541 603-63v3563zm0 1363h575v-729H603v729z" transform="scale(.01563)"/><path id="DejaVuSans-63" d="M3122 3366v-538q-244 135-489 202t-495 67q-560 0-870-355-309-354-309-995t309-996q310-354 870-354 250 0 495 67t489 202V134Q2881 22 2623-34q-257-57-548-57-791 0-1257 497-465 497-465 1341 0 856 470 1346 471 491 1290 491 265 0 518-55 253-54 491-163z" transform="scale(.01563)"/><path id="DejaVuSans-2d" d="M313 2009h1684v-512H313v512z" transform="scale(.01563)"/><path id="DejaVuSans-6d" d="M3328 2828q216 388 516 572t706 184q547 0 844-383 297-382 297-1088V0h-578v2094q0 503-179 746-178 244-543 244-447 0-707-297-259-296-259-809V0h-578v2094q0 506-178 748t-550 242q-441 0-701-298-259-298-259-808V0H581v3500h578v-544q197 322 472 475t653 153q382 0 649-194 267-193 395-562z" transform="scale(.01563)"/><path id="DejaVuSans-6b" d="M581 4863h578V1991l1716 1509h734L1753 1863 3688 0h-750L1159 1709V0H581v4863z" transform="scale(.01563)"/><path id="DejaVuSans-4a" d="M628 4666h631V325q0-844-320-1225T-91-1281h-240v531h197q418 0 590 235 172 234 172 840v4341z" transform="scale(.01563)"/><path id="DejaVuSans-55" d="M556 4666h635V1831q0-750 271-1080 272-329 882-329 606 0 878 329 272 330 272 1080v2835h634V1753q0-912-452-1378Q3225-91 2344-91q-885 0-1337 466-451 466-451 1378v2913z" transform="scale(.01563)"/><path id="DejaVuSans-43" d="M4122 4306v-665q-319 297-680 443-361 147-767 147-800 0-1225-489t-425-1414q0-922 425-1411t1225-489q406 0 767 147t680 444V359q-331-225-702-338-370-112-782-112-1060 0-1670 648-609 649-609 1771 0 1125 609 1773 610 649 1670 649 418 0 788-111 371-111 696-333z" transform="scale(.01563)"/><path id="DejaVuSans-45" d="M628 4666h2950v-532H1259V2753h2222v-531H1259V531h2375V0H628v4666z" transform="scale(.01563)"/></defs><use xlink:href="#DejaVuSans-6a"/><use xlink:href="#DejaVuSans-75" x="27.783"/><use xlink:href="#DejaVuSans-63" x="91.162"/><use xlink:href="#DejaVuSans-65" x="146.143"/><use xlink:href="#DejaVuSans-2d" x="207.666"/><use xlink:href="#DejaVuSans-66" x="243.75"/><use xlink:href="#DejaVuSans-72" x="278.955"/><use xlink:href="#DejaVuSans-61" x="320.068"/><use xlink:href="#DejaVuSans-6d" x="381.348"/><use xlink:href="#DejaVuSans-65" x="478.76"/><use xlink:href="#DejaVuSans-77" x="540.283"/><use xlink:href="#DejaVuSans-6f" x="622.07"/><use xlink:href="#DejaVuSans-72" x="683.252"/><use xlink:href="#DejaVuSans-6b" x="724.365"/><use xlink:href="#DejaVuSans-2f" x="782.275"/><use xlink:href="#DejaVuSans-4a" x="815.967"/><use xlink:href="#DejaVuSans-55" x="845.459"/><use xlink:href="#DejaVuSans-43" x="918.652"/><use xlink:href="#DejaVuSans-45" x="988.477"/></g><g id="text_18" style="fill:#d62728" transform="matrix(.14 0 0 -.14 465.907 177.427)"><defs><path id="DejaVuSans-68" d="M3513 2113V0h-575v2094q0 497-194 743-194 247-581 247-466 0-735-297-269-296-269-809V0H581v4863h578V2956q207 316 486 472 280 156 646 156 603 0 912-373 310-373 310-1098z" transform="scale(.01563)"/></defs><use xlink:href="#DejaVuSans-63"/><use xlink:href="#DejaVuSans-68" x="54.98"/><use xlink:href="#DejaVuSans-72" x="118.359"/><use xlink:href="#DejaVuSans-6f" x="157.223"/><use xlink:href="#DejaVuSans-6d" x="218.404"/><use xlink:href="#DejaVuSans-69" x="315.816"/><use xlink:href="#DejaVuSans-75" x="343.6"/><use xlink:href="#DejaVuSans-6d" x="406.979"/><use xlink:href="#DejaVuSans-65" x="504.391"/><use xlink:href="#DejaVuSans-6d" x="565.914"/><use xlink:href="#DejaVuSans-62" x="663.326"/><use xlink:href="#DejaVuSans-65" x="726.803"/><use xlink:href="#DejaVuSans-64" x="788.326"/><use xlink:href="#DejaVuSans-64" x="851.803"/><use xlink:href="#DejaVuSans-65" x="915.279"/><use xlink:href="#DejaVuSans-64" x="976.803"/><use xlink:href="#DejaVuSans-2f" x="1040.279"/><use xlink:href="#DejaVuSans-63" x="1073.971"/><use xlink:href="#DejaVuSans-65" x="1128.951"/><use xlink:href="#DejaVuSans-66" x="1190.475"/></g><g id="text_19" style="fill:#9467bd" transform="matrix(.14 0 0 -.14 465.907 191.427)"><use xlink:href="#DejaVuSans-6f"/><use xlink:href="#DejaVuSans-70" x="61.182"/><use xlink:href="#DejaVuSans-65" x="124.658"/><use xlink:href="#DejaVuSans-6e" x="186.182"/><use xlink:href="#DejaVuSans-6a" x="249.561"/><use xlink:href="#DejaVuSans-64" x="277.344"/><use xlink:href="#DejaVuSans-6b" x="340.82"/><use xlink:href="#DejaVuSans-2f" x="398.73"/><use xlink:href="#DejaVuSans-6a" x="432.422"/><use xlink:href="#DejaVuSans-66" x="460.205"/><use xlink:href="#DejaVuSans-78" x="495.41"/></g><g id="text_20" style="fill:#8c564b" transform="matrix(.14 0 0 -.14 465.907 205.427)"><use xlink:href="#DejaVuSans-63"/><use xlink:href="#DejaVuSans-6e" x="54.98"/><use xlink:href="#DejaVuSans-6a" x="118.359"/><use xlink:href="#DejaVuSans-69" x="146.143"/><use xlink:href="#DejaVuSans-6e" x="173.926"/><use xlink:href="#DejaVuSans-68" x="237.305"/><use xlink:href="#DejaVuSans-61" x="300.684"/><use xlink:href="#DejaVuSans-6f" x="361.963"/><use xlink:href="#DejaVuSans-2f" x="423.145"/><use xlink:href="#DejaVuSans-6e" x="456.836"/><use xlink:href="#DejaVuSans-61" x="520.215"/><use xlink:href="#DejaVuSans-6e" x="581.494"/><use xlink:href="#DejaVuSans-61" x="644.873"/></g><g id="text_21" style="fill:#e377c2" transform="matrix(.14 0 0 -.14 465.907 219.427)"><defs><path id="DejaVuSans-71" d="M947 1747q0-634 261-995t717-361q456 0 718 361 263 361 263 995t-263 995q-262 361-718 361t-717-361q-261-361-261-995zM2906 525q-181-312-458-464-276-152-664-152-634 0-1033 506-398 507-398 1332t398 1331q399 506 1033 506 388 0 664-152 277-151 458-463v531h575v-4831h-575V525z" transform="scale(.01563)"/></defs><use xlink:href="#DejaVuSans-71"/><use xlink:href="#DejaVuSans-74" x="63.477"/><use xlink:href="#DejaVuSans-2f" x="102.686"/><use xlink:href="#DejaVuSans-71" x="136.377"/><use xlink:href="#DejaVuSans-74" x="199.854"/><use xlink:href="#DejaVuSans-62" x="239.063"/><use xlink:href="#DejaVuSans-61" x="302.539"/><use xlink:href="#DejaVuSans-73" x="363.818"/><use xlink:href="#DejaVuSans-65" x="415.918"/></g><g id="text_22" style="fill:#7f7f7f" transform="matrix(.14 0 0 -.14 465.907 233.427)"><defs><path id="DejaVuSans-4e" d="M628 4666h850L3547 763v3903h612V0h-850L1241 3903V0H628v4666z" transform="scale(.01563)"/><path id="DejaVuSans-4f" d="M2522 4238q-688 0-1093-513-404-512-404-1397 0-881 404-1394 405-512 1093-512 687 0 1089 512 402 513 402 1394 0 885-402 1397-402 513-1089 513zm0 512q981 0 1568-658 588-658 588-1764 0-1103-588-1761Q3503-91 2522-91q-984 0-1574 656-589 657-589 1763t589 1764q590 658 1574 658z" transform="scale(.01563)"/><path id="DejaVuSans-4d" d="M628 4666h941l1190-3175 1197 3175h941V0h-616v4097L3078 897h-634L1241 4097V0H628v4666z" transform="scale(.01563)"/></defs><use xlink:href="#DejaVuSans-47"/><use xlink:href="#DejaVuSans-4e" x="77.49"/><use xlink:href="#DejaVuSans-4f" x="152.295"/><use xlink:href="#DejaVuSans-4d" x="231.006"/><use xlink:href="#DejaVuSans-45" x="317.285"/><use xlink:href="#DejaVuSans-2f" x="380.469"/><use xlink:href="#DejaVuSans-67" x="414.16"/><use xlink:href="#DejaVuSans-74" x="477.637"/><use xlink:href="#DejaVuSans-6b" x="516.846"/></g><g id="text_23" style="fill:#bcbd22" transform="matrix(.14 0 0 -.14 465.907 247.427)"><defs><path id="DejaVuSans-6c" d="M603 4863h575V0H603v4863z" transform="scale(.01563)"/></defs><use xlink:href="#DejaVuSans-66"/><use xlink:href="#DejaVuSans-6c" x="35.205"/><use xlink:href="#DejaVuSans-74" x="62.988"/><use xlink:href="#DejaVuSans-6b" x="102.197"/><use xlink:href="#DejaVuSans-2f" x="160.107"/><use xlink:href="#DejaVuSans-66" x="193.799"/><use xlink:href="#DejaVuSans-6c" x="229.004"/><use xlink:href="#DejaVuSans-74" x="256.787"/><use xlink:href="#DejaVuSans-6b" x="295.996"/></g><g id="text_24" style="fill:#17becf" transform="matrix(.14 0 0 -.14 465.907 261.427)"><use xlink:href="#DejaVuSans-75"/><use xlink:href="#DejaVuSans-6c" x="63.379"/><use xlink:href="#DejaVuSans-74" x="91.162"/><use xlink:href="#DejaVuSans-69" x="130.371"/><use xlink:href="#DejaVuSans-6d" x="158.154"/><use xlink:href="#DejaVuSans-61" x="255.566"/><use xlink:href="#DejaVuSans-74" x="316.846"/><use xlink:href="#DejaVuSans-65" x="356.055"/><use xlink:href="#DejaVuSans-70" x="417.578"/><use xlink:href="#DejaVuSans-70" x="481.055"/><use xlink:href="#DejaVuSans-2f" x="544.531"/><use xlink:href="#DejaVuSans-75" x="578.223"/><use xlink:href="#DejaVuSans-6c" x="641.602"/><use xlink:href="#DejaVuSans-74" x="669.385"/><use xlink:href="#DejaVuSans-69" x="708.594"/><use xlink:href="#DejaVuSans-6d" x="736.377"/><use xlink:href="#DejaVuSans-61" x="833.789"/><use xlink:href="#DejaVuSans-74" x="895.068"/><use xlink:href="#DejaVuSans-65" x="934.277"/><use xlink:href="#DejaVuSans-70" x="995.801"/><use xlink:href="#DejaVuSans-70" x="1059.277"/></g><g id="text_25" style="fill:#aec7e8" transform="matrix(.14 0 0 -.14 465.907 275.427)"><use xlink:href="#DejaVuSans-74"/><use xlink:href="#DejaVuSans-63" x="39.209"/><use xlink:href="#DejaVuSans-6c" x="94.189"/><use xlink:href="#DejaVuSans-74" x="121.973"/><use xlink:href="#DejaVuSans-6b" x="161.182"/><use xlink:href="#DejaVuSans-2f" x="219.092"/><use xlink:href="#DejaVuSans-74" x="252.783"/><use xlink:href="#DejaVuSans-63" x="291.992"/><use xlink:href="#DejaVuSans-6c" x="346.973"/></g><g id="text_26" style="fill:#ffbb78" transform="matrix(.14 0 0 -.14 465.907 289.427)"><use xlink:href="#DejaVuSans-63"/><use xlink:href="#DejaVuSans-65" x="54.98"/><use xlink:href="#DejaVuSans-67" x="116.504"/><use xlink:href="#DejaVuSans-75" x="179.98"/><use xlink:href="#DejaVuSans-69" x="243.359"/><use xlink:href="#DejaVuSans-2f" x="271.143"/><use xlink:href="#DejaVuSans-63" x="304.834"/><use xlink:href="#DejaVuSans-65" x="359.814"/><use xlink:href="#DejaVuSans-67" x="421.338"/><use xlink:href="#DejaVuSans-75" x="484.814"/><use xlink:href="#DejaVuSans-69" x="548.193"/></g><g id="text_27" style="fill:#98df8a" transform="matrix(.14 0 0 -.14 465.907 303.427)"><use xlink:href="#DejaVuSans-45"/><use xlink:href="#DejaVuSans-6e" x="63.184"/><use xlink:href="#DejaVuSans-6c" x="126.563"/><use xlink:href="#DejaVuSans-69" x="154.346"/><use xlink:href="#DejaVuSans-67" x="182.129"/><use xlink:href="#DejaVuSans-68" x="245.605"/><use xlink:href="#DejaVuSans-74" x="308.984"/><use xlink:href="#DejaVuSans-65" x="348.193"/><use xlink:href="#DejaVuSans-6e" x="409.717"/><use xlink:href="#DejaVuSans-6d" x="473.096"/><use xlink:href="#DejaVuSans-65" x="570.508"/><use xlink:href="#DejaVuSans-6e" x="632.031"/><use xlink:href="#DejaVuSans-74" x="695.41"/><use xlink:href="#DejaVuSans-2f" x="734.619"/><use xlink:href="#DejaVuSans-65" x="768.311"/><use xlink:href="#DejaVuSans-66" x="829.834"/><use xlink:href="#DejaVuSans-6c" x="865.039"/></g><g id="text_28" style="fill:#b0b0b0" transform="matrix(.09716 0 0 -.09716 98.073 322.86)"><defs><path id="DejaVuSans-40" d="M2381 1678q0-447 222-702 222-254 610-254 384 0 604 256 221 256 221 700 0 438-225 695-225 258-607 258-378 0-602-256-223-256-223-697zm1703-934q-187-241-429-355t-564-114q-538 0-874 389t-336 1014q0 625 337 1015 338 391 873 391 322 0 565-117 244-117 428-354v409h447V722q457 69 714 417 258 349 258 902 0 334-99 628-98 294-298 544-325 409-792 626t-1017 217q-384 0-738-102-353-101-653-301-490-319-767-836-276-517-276-1120 0-497 179-932 180-434 521-765 328-325 759-495 431-171 922-171 403 0 792 136t714 389l281-347q-390-303-851-464t-936-161q-578 0-1091 205-512 205-912 595Q841 78 631 592q-209 514-209 1105 0 569 212 1084 213 516 607 907 403 396 931 607t1119 211q662 0 1229-272 568-271 952-771 234-307 357-666 124-359 124-744 0-822-497-1297T4084 263v481z" transform="scale(.01563)"/><path id="DejaVuSans-7c" d="M1344 4891v-6400H813v6400h531z" transform="scale(.01563)"/><path id="DejaVuSans-53" d="M3425 4513v-616q-359 172-678 256-319 85-616 85-515 0-795-200t-280-569q0-310 186-468 186-157 705-254l381-78q706-135 1042-474t336-907q0-679-455-1029Q2797-91 1919-91q-331 0-705 75-373 75-773 222v650q384-215 753-325 369-109 725-109 540 0 834 212 294 213 294 607 0 343-211 537t-692 291l-385 75q-706 140-1022 440-315 300-315 835 0 619 436 975t1201 356q329 0 669-60 341-59 697-177z" transform="scale(.01563)"/><path id="DejaVuSans-f6" d="M1959 3097q-462 0-731-361t-269-989q0-628 267-989 268-361 733-361 460 0 728 362 269 363 269 988 0 622-269 986-268 364-728 364zm0 487q750 0 1178-488 429-487 429-1349 0-859-429-1349Q2709-91 1959-91q-753 0-1180 489-426 490-426 1349 0 862 426 1349 427 488 1180 488zm295 1266h634v-631h-634v631zm-1222 0h634v-631h-634v631z" transform="scale(.01563)"/><path id="DejaVuSans-42" d="M1259 2228V519h1013q509 0 754 211 246 211 246 645 0 438-246 645-245 208-754 208H1259zm0 1919V2741h935q462 0 688 173 227 174 227 530 0 353-227 528-226 175-688 175h-935zm-631 519h1613q722 0 1112-300 391-300 391-853 0-429-200-682t-588-315q466-100 724-418 258-317 258-792 0-625-425-966Q3088 0 2303 0H628v4666z" transform="scale(.01563)"/><path id="DejaVuSans-59" d="M-13 4666h679l1293-1919 1285 1919h678L2272 2222V0h-634v2222L-13 4666z" transform="scale(.01563)"/></defs><use xlink:href="#DejaVuSans-40"/><use xlink:href="#DejaVuSans-6e" x="100"/><use xlink:href="#DejaVuSans-73" x="163.379"/><use xlink:href="#DejaVuSans-63" x="215.479"/><use xlink:href="#DejaVuSans-68" x="270.459"/><use xlink:href="#DejaVuSans-6c" x="333.838"/><use xlink:href="#DejaVuSans-6f" x="361.621"/><use xlink:href="#DejaVuSans-65" x="422.803"/><use xlink:href="#DejaVuSans-20" x="484.326"/><use xlink:href="#DejaVuSans-2f" x="516.113"/><use xlink:href="#DejaVuSans-20" x="549.805"/><use xlink:href="#DejaVuSans-67" x="581.592"/><use xlink:href="#DejaVuSans-69" x="645.068"/><use xlink:href="#DejaVuSans-74" x="672.852"/><use xlink:href="#DejaVuSans-68" x="712.061"/><use xlink:href="#DejaVuSans-75" x="775.439"/><use xlink:href="#DejaVuSans-62" x="838.818"/><use xlink:href="#DejaVuSans-2d" x="902.295"/><use xlink:href="#DejaVuSans-74" x="938.379"/><use xlink:href="#DejaVuSans-72" x="977.588"/><use xlink:href="#DejaVuSans-65" x="1016.451"/><use xlink:href="#DejaVuSans-6e" x="1077.975"/><use xlink:href="#DejaVuSans-64" x="1141.354"/><use xlink:href="#DejaVuSans-73" x="1204.83"/><use xlink:href="#DejaVuSans-20" x="1256.93"/><use xlink:href="#DejaVuSans-7c" x="1288.717"/><use xlink:href="#DejaVuSans-20" x="1322.408"/><use xlink:href="#DejaVuSans-4e" x="1354.195"/><use xlink:href="#DejaVuSans-69" x="1429"/><use xlink:href="#DejaVuSans-63" x="1456.783"/><use xlink:href="#DejaVuSans-6f" x="1511.764"/><use xlink:href="#DejaVuSans-20" x="1572.945"/><use xlink:href="#DejaVuSans-53" x="1604.732"/><use xlink:href="#DejaVuSans-63" x="1668.209"/><use xlink:href="#DejaVuSans-68" x="1723.189"/><use xlink:href="#DejaVuSans-6c" x="1786.568"/><use xlink:href="#DejaVuSans-f6" x="1814.352"/><use xlink:href="#DejaVuSans-6d" x="1875.533"/><use xlink:href="#DejaVuSans-65" x="1972.945"/><use xlink:href="#DejaVuSans-72" x="2034.469"/><use xlink:href="#DejaVuSans-20" x="2075.582"/><use xlink:href="#DejaVuSans-7c" x="2107.369"/><use xlink:href="#DejaVuSans-20" x="2141.061"/><use xlink:href="#DejaVuSans-43" x="2172.848"/><use xlink:href="#DejaVuSans-43" x="2242.672"/><use xlink:href="#DejaVuSans-20" x="2312.496"/><use xlink:href="#DejaVuSans-42" x="2344.283"/><use xlink:href="#DejaVuSans-59" x="2407.387"/></g><path id="line2d_24" d="m234.988 288.824 2.492-.206 2.412-.124 2.492-.083 2.493-.165 2.331-.083 2.492-.082 2.412-.124 2.493-.124h2.411l2.493-.248 2.492-.041 2.412-.041 2.492-.083h4.904l2.493-.124 2.25-.041 2.493-.041 2.412-.124 2.492-.041 2.412-.124 2.492-.083 2.493-.124 2.412-.082h2.492l2.412-.042 2.492-.124 2.492-.04 2.251-.083 2.493-.166 2.412-.082 2.492-.207 2.412-.289 2.492-.04 2.492-.125 2.412-.082 2.492-.083 2.412-.124 2.493-.124 2.492-.082 2.251-.042 2.492-.123 2.412-.29 2.492-.082 2.412-.124 2.493-.206 2.492-.124 2.412-.083 2.492-.041 2.412-.207 2.492-.165 2.492-.041 2.332-.206 2.492-.042 2.412-.041 2.492-.537 2.412-.33 2.493-.33 2.492-.207 2.412-.495 2.492-.496 2.412-.578 2.492-.165 2.493-.289 2.25-.29 2.493-.453 2.412-.207 2.492-.371 2.412-.785 2.492-1.073 2.493-.537 2.411-.62 2.493-.867 2.412-.784 2.492-.743 2.492-.66 2.251-.29 2.493-.66 2.411-.661 2.493-.413 2.412-.537 2.492-.371 2.492-.455 2.412-1.28 2.492-.454 2.412-.62 2.492-1.28 2.493-.577 2.25-.537 2.493-.537" clip-path="url(#pf3df6dfc42)" style="fill:none;stroke:#17becf;stroke-width:1.5;stroke-linecap:square"/><path id="line2d_25" d="m320.69 288.824 2.412-.165 2.492-.248 2.412-.248 2.493-1.734 2.492-.908 2.251-.496 2.492-.578 2.412-.66 2.492-.62 2.412-.495 2.493-.496 2.492-.743 2.412-.702 2.492-.578 2.412-.413 2.492-.743 2.492-.908 2.332-.826 2.492-.785 2.412-.99 2.492-.826 2.412-.744 2.493-.702 2.492-.578 2.412-.867 2.492-.413 2.412-1.032 2.492-1.156 2.493-1.073 2.25-.496 2.493-1.115 2.412-1.28 2.492-.413 2.412-.825 2.492-1.115 2.493-1.074 2.411-1.032 2.493-1.032 2.412-1.156 2.492-1.198 2.492-1.197 2.251-1.074 2.493-1.569 2.411-1.321 2.493-1.156 2.412-1.156 2.492-1.115 2.492-1.074 2.412-1.114 2.492-1.28 2.412-1.28 2.492-1.652 2.493-1.156 2.25-.702 2.493-1.115" clip-path="url(#pf3df6dfc42)" style="fill:none;stroke:#bcbd22;stroke-width:1.5;stroke-linecap:square"/><path id="line2d_26" d="m137.146 288.824 2.412-.206 22.028-.083 7.316-.165 2.492-.041 2.493-.166 7.316-.082 9.728-.248 9.808-.578 2.492-.29 7.316-.577 7.236-.62 2.492-.165 2.412-.33 4.904-.372 17.286-1.61 2.331-.495 2.492-.33 2.412-.125 7.397-.95 9.808-.908 7.236-.95 4.904-1.114 2.492-.537 4.904-.413 2.493-.536 2.412-.372 2.492-.826 4.904-1.073 2.492-.909 7.156-1.858 2.492-.495 2.412-.62 2.492-.206 2.492-.537 7.316-1.115 2.493-.66 4.743-1.074 2.492-.702 9.809-1.9 2.492-.66 2.412-.206 2.492-.66 2.412-.207 2.492-.372 4.824-.867 2.492-.372 2.412-.578 2.492-.95 2.412-.619 2.493-.371 2.492-.702 2.412-.372 4.904-1.115 9.728-2.353 12.3-2.354 2.412-.743 2.493-.578 4.904-1.445 2.492-.578 2.251-.66 2.493-.537 4.904-1.776 2.412-.743 7.396-1.94 7.396-2.272 2.493-.99 4.743-1.487h0" clip-path="url(#pf3df6dfc42)" style="fill:none;stroke:#7f7f7f;stroke-width:1.5;stroke-linecap:square"/><path id="line2d_27" d="m163.998 288.824 2.492-.041H176.3l2.492-.042h2.412l2.492-.04h4.743l2.493-.083h2.412l2.492-.124 2.412-.042h4.984l2.412-.04 2.493-.042 2.411-.083 2.493-.124 2.492-.04 2.251-.084 2.492-.289 2.412-.371 2.493-.413 2.411-.372 2.493-.371 2.492-.083 2.412-.248 2.492-.206 2.412-.33 2.492-.496 2.493-.495 2.331-.207 2.492-.289 2.412-.248 2.493-.371 2.411-.33 2.493-.29 2.492-.289 2.412-.123 2.492-.124 2.412-.372 2.492-.248 2.493-.33 2.25-.454 2.493-.413 2.412-.66 2.492-.537 2.412-.372 2.492-.66 2.493-.703 2.412-1.032 2.492-.66 2.412-.496 2.492-.784 2.492-.909 2.251-.743 2.493-.867 2.412-.62 2.492-.784 2.412-.826 2.492-.743 2.492-.702 2.412-.743 2.492-.537 2.412-.66 2.493-.413 2.492-1.28 2.251-.867 2.492-1.322 2.412-.99 2.492-1.074 2.412-.867 2.493-.743 2.492-1.033 2.412-.743 2.492-.578 2.412-.785 2.492-1.238 2.492-1.156 2.332-.991 2.492-.991 2.412-.785 2.492-1.404 2.412-1.156 2.493-.95 2.492-1.032 2.412-1.197 2.492-1.239 2.412-1.32 2.492-2.23 2.493-1.61 2.25-1.074 2.493-1.074 2.412-1.239 2.492-.867 2.412-1.362 2.492-1.033 2.493-.825 2.411-1.156 2.493-1.115 2.412-1.322 2.492-.99 2.492-1.941 2.251-1.404 2.493-1.528 2.411-1.61 2.493-1.363 2.412-.908 2.492-1.156 2.492-1.652 2.412-1.32 2.492-.992 2.412-1.156 2.492-.95 2.493-1.775 2.25-1.156 2.493-1.28" clip-path="url(#pf3df6dfc42)" style="fill:none;stroke:#e377c2;stroke-width:1.5;stroke-linecap:square"/><path id="line2d_28" d="m210.547 288.824 2.493-.206 2.492-.29 2.251-.454 2.492-.289 2.412-.041 2.493-.537 2.411-.537 2.493-.165 2.492-.247 2.412-.207 2.492-.578 2.412-.454 2.492-.29 2.493-.412 2.331-.867 2.492-.66 2.412-.661 2.493-.455 2.411-.825 2.493-.578 2.492-.578 2.412-.62 2.492-.66 2.412-.826 2.492-1.074 2.493-1.115 2.25-.908 2.493-.95 2.412-.371 2.492-1.487 2.412-1.362 2.492-1.156 2.493-.744 2.412-.99 2.492-1.198 2.412-.908 2.492-.744 2.492-.95 2.251-1.444 2.493-.785 2.412-.702 2.492-1.816 2.412-.661 2.492-.496 2.492-.867 2.412-1.032 2.492-.702 2.412-.95 2.493-1.073 2.492-2.766 2.251-1.446 2.492-1.486 2.412-4.913 2.492-1.652 2.412-1.57 2.493-1.65 2.492-1.859 2.412-1.321 2.492-1.61 2.412-1.115 2.492-.908 2.492-.785 2.332-1.652 2.492-1.569 2.412-.784 2.492-1.156 2.412-.66 2.493-.827 2.492-.95 2.412-.825 2.492-.785 2.412-1.238 2.492-1.115 2.493-1.321 2.25-.496 2.493-1.28 2.412-1.156 2.492-.495 2.412-.661 2.492-1.239 2.493-1.28 2.411-.62 2.493-.577 2.412-.66 2.492-.744 2.492-.826 2.251-.66 2.493-.785 2.411-.62 2.493-.495 2.412-.413 2.492-.536 2.492-.661 2.412-.62 2.492-.33 2.412-.454 2.492-.702 2.493-.495 2.25-.372 2.493-.495" clip-path="url(#pf3df6dfc42)" style="fill:none;stroke:#8c564b;stroke-width:1.5;stroke-linecap:square"/><path id="line2d_29" d="m340.146 288.824 2.492-.124 2.412-.041h2.493l2.492-.165 2.412-.124 2.492-3.014 2.412-2.189 2.492-2.642 2.492-2.436 2.332-2.354 2.492-3.138 2.412-2.849 2.492-2.064 2.412-2.189 2.493-2.684 2.492-1.651 2.412-2.725 2.492-2.519 2.412-2.725 2.492-2.147 2.493-2.601 2.25-1.982 2.493-2.89 2.412-2.643 2.492-1.817 2.412-1.9 2.492-1.94 2.493-1.734 2.411-2.188 2.493-1.652 2.412-1.817 2.492-2.394 2.492-2.395 2.251-1.321 2.493-2.065 2.411-1.858 2.493-1.445 2.412-1.321 2.492-1.693 2.492-2.023 2.412-2.602 2.492-1.61 2.412-1.569 2.492-1.9 2.493-1.692 2.25-2.106 2.493-2.27" clip-path="url(#pf3df6dfc42)" style="fill:none;stroke:#9467bd;stroke-width:1.5;stroke-linecap:square"/><path id="line2d_30" d="m279.045 288.824 2.412-.206 2.492-.248 2.412-.248 2.492-.206 2.493-.661 2.412-.29 2.492-.247 2.412-.33 2.492-.29 2.492-.123 2.251-.289 2.493-.454 2.412-.33 2.492-.537 2.412-.454 2.492-.785 2.492-.495 2.412-.537 2.492-.33 2.412-.248 2.493-.496 2.492-.537 2.251-.289 2.492-.495 2.412-.785 2.492-.784 2.412-1.156 2.493-.95 2.492-.99 2.412-1.033 2.492-1.197 2.412-1.363 2.492-1.156 2.492-.743 2.332-1.156 2.492-1.446 2.412-1.775 2.492-1.28 2.412-1.94 2.493-1.28 2.492-1.528 2.412-1.61 2.492-1.735 2.412-1.527 2.492-2.313 2.493-1.569 2.25-2.27 2.493-2.767 2.412-2.23 2.492-1.651 2.412-1.776 2.492-1.816 2.493-2.726 2.411-2.105 2.493-2.106 2.412-1.57 2.492-2.188 2.492-2.023 2.251-1.61 2.493-2.188 2.411-1.982 2.493-2.147 2.412-2.478 2.492-1.982 2.492-2.353 2.412-2.065 2.492-1.94 2.412-1.9 2.492-2.725 2.493-1.858 2.25-1.775 2.493-2.436" clip-path="url(#pf3df6dfc42)" style="fill:none;stroke:#d62728;stroke-width:1.5;stroke-linecap:square"/><path id="line2d_31" d="m129.75 288.824 7.396-.041H237.48l2.412-3.345 2.492-1.073 4.824-2.767 2.492-1.073 2.412-2.23 4.904-2.395 2.493-.867 2.492-1.197 2.412-1.445 7.396-4.872 2.493-1.404 2.25-1.445 2.493-1.404 4.904-3.18 2.412-1.073 2.492-.95 2.493-1.073 4.904-1.61 2.412-1.28 2.492-1.115 2.492-1.322 2.251-1.032 2.493-1.652 2.412-1.238 4.904-2.023 2.492-.702 2.492-1.074 4.904-2.849 2.412-1.982 4.985-3.468 7.155-6.07 7.397-5.698 2.492-1.197 2.412-1.404 4.904-4.046 4.984-2.89 4.824-3.8 2.412-3.179 2.492-2.766 4.905-5.822 4.904-4.666 4.904-5.243 2.492-3.304 2.493-2.972 2.25-3.015 4.905-6.152 2.492-16.227 2.412-5.491 2.492-4.17 2.493-3.51 2.411-4.748 2.493-2.725 2.412-4.13 2.492-2.93 2.492-3.882 2.251-2.932 2.493-2.89 2.411-3.55 2.493-3.428 2.412-3.55 2.492-2.809 2.492-3.261 4.904-7.061 2.412-3.138 2.492-2.684 2.493-4.46 2.25-3.055 2.493-4.459h0" clip-path="url(#pf3df6dfc42)" style="fill:none;stroke:#2ca02c;stroke-width:1.5;stroke-linecap:square"/><path id="line2d_32" d="m105.228 288.824 2.493-1.032 7.396-.042 4.904-.082 4.904-.124 7.317-.372 7.316-.04 4.984-.083 17.044-.248 2.412-.33 7.396-.579 2.493-.206 2.412-.041 2.492-.248 2.412-.372 2.492-.124 2.492-.33 4.744-1.032 9.808-2.147 14.793-2.808 2.251-.578 2.492-2.147 2.412-1.817 2.493-2.188 2.411-1.652 2.493-1.858 4.904-3.138 4.904-4.046 2.492-1.817 2.493-2.312 2.331-1.94 2.492-3.139 2.412-1.569 2.493-1.156 2.411-1.362 2.493-1.735 4.904-2.477 4.904-3.014 2.492-2.023 2.493-1.404 2.25-1.652 4.905-3.262 4.904-2.6 4.985-2.396 2.412-1.734 2.492-1.321 2.412-.66 2.492-1.446 4.743-3.55 2.493-2.272 2.412-1.238 2.492-1.652 2.412-1.734 7.396-4.46 2.492-1.734 2.412-2.725 2.493-1.982 4.743-3.014 4.904-4.418 2.492-1.858 4.905-3.881 4.904-3.634 2.492-2.683 2.412-2.106 2.492-1.321 2.492-1.776 2.332-2.106 2.492-2.518 4.904-5.533 2.412-2.106 2.493-1.858 4.904-4.129 2.492-2.766 2.412-2.023 2.492-2.354 4.744-5.326 2.492-2.271 2.412-2.684 2.492-1.982 2.412-2.477 2.492-2.189 7.397-6.11 2.412-2.272 2.492-2.064 2.492-3.262 2.251-3.344 2.493-2.89 2.411-4.006 4.905-6.152 2.492-3.344 2.492-2.932 7.316-9.001 4.985-5.946 2.25-2.519 2.493-2.6h0" clip-path="url(#pf3df6dfc42)" style="fill:none;stroke:#ff7f0e;stroke-width:1.5;stroke-linecap:square"/><path id="line2d_33" d="m323.102 288.824 2.492-.041 2.412-.207 2.493-91.87 2.492-8.34 2.251-4.624 2.492-4.996 2.412-4.336 2.492-21.636 2.412-4.913 2.493-4.088 2.492-2.973 2.412-3.055 2.492-3.592 2.412-2.808 2.492-2.519 2.492-1.651 2.332-5.905 2.492-2.725 2.412-3.798 2.492-3.056 2.412-2.601 2.493-3.344 2.492-2.602 2.412-2.807 2.492-2.024 2.412-2.6 2.492-2.396 2.493-2.353 2.25-3.056 2.493-2.147 2.412-2.684 2.492-3.179 2.412-2.601 2.492-3.097 2.493-2.725 2.411-2.477 2.493-2.106 2.412-3.097 2.492-1.982 2.492-2.642 2.251-2.312 2.493-3.304 2.411-2.6 2.493-2.148 2.412-2.312 2.492-2.478 2.492-2.27 2.412-2.354 2.492-3.055 2.412-1.776 2.492-1.528 2.493-2.56 2.25-3.344 2.493-4.418" clip-path="url(#pf3df6dfc42)" style="fill:none;stroke:#1f77b4;stroke-width:1.5;stroke-linecap:square"/></g></g><defs><clipPath id="pf3df6dfc42"><path d="M98.073 22.712h357.12v266.112H98.073z"/></clipPath></defs></svg>