<svg xmlns:xlink="http://www.w3.org/1999/xlink" width="859.61" height="431.485" viewBox="0 0 644.707 323.614" xmlns="http://www.w3.org/2000/svg"><defs><style>*{stroke-linejoin:round;stroke-linecap:butt}</style></defs><g id="figure_1"><path d="M0 323.614h644.707V0H0v323.614z" style="fill:none" id="patch_1"/><g id="axes_1"><path d="M98.073 280.087h357.12V13.975H98.073v266.112z" style="fill:none" id="patch_2"/><g id="matplotlib.axis_1"><g id="xtick_1"><g id="line2d_1"><defs><path id="me0104a70a0" d="M0 0v3.5" style="stroke:#b0b0b0;stroke-width:.4"/></defs><use xlink:href="#me0104a70a0" x="126.691" y="280.087" style="fill:#b0b0b0;stroke:#b0b0b0;stroke-width:.4"/></g><g style="fill:#b0b0b0" transform="matrix(.14 0 0 -.14 108.876 297.724)" id="text_1"><defs><path id="DejaVuSans-32" d="M1228 531h2203V0H469v531q359 372 979 998 621 627 780 809 303 340 423 576 121 236 121 464 0 372-261 606-261 235-680 235-297 0-627-103-329-103-704-313v638q381 153 712 231 332 78 607 78 725 0 1156-363 431-362 431-968 0-288-108-546-107-257-392-607-78-91-497-524-418-433-1181-1211z" transform="scale(.01563)"/><path id="DejaVuSans-30" d="M2034 4250q-487 0-733-480-245-479-245-1442 0-959 245-1439 246-480 733-480 491 0 736 480 246 480 246 1439 0 963-246 1442-245 480-736 480zm0 500q785 0 1199-621 414-620 414-1801 0-1178-414-1799Q2819-91 2034-91q-784 0-1198 620-414 621-414 1799 0 1181 414 1801 414 621 1198 621z" transform="scale(.01563)"/><path id="DejaVuSans-31" d="M794 531h1031v3560L703 3866v575l1116 225h631V531h1031V0H794v531z" transform="scale(.01563)"/></defs><use xlink:href="#DejaVuSans-32"/><use xlink:href="#DejaVuSans-30" x="63.623"/><use xlink:href="#DejaVuSans-31" x="127.246"/><use xlink:href="#DejaVuSans-32" x="190.869"/></g></g><g id="xtick_2"><use xlink:href="#me0104a70a0" x="189.324" y="280.087" style="fill:#b0b0b0;stroke:#b0b0b0;stroke-width:.4" id="line2d_2"/><g style="fill:#b0b0b0" transform="matrix(.14 0 0 -.14 171.509 297.724)" id="text_2"><defs><path id="DejaVuSans-34" d="M2419 4116 825 1625h1594v2491zm-166 550h794V1625h666v-525h-666V0h-628v1100H313v609l1940 2957z" transform="scale(.01563)"/></defs><use xlink:href="#DejaVuSans-32"/><use xlink:href="#DejaVuSans-30" x="63.623"/><use xlink:href="#DejaVuSans-31" x="127.246"/><use xlink:href="#DejaVuSans-34" x="190.869"/></g></g><g id="xtick_3"><use xlink:href="#me0104a70a0" x="251.871" y="280.087" style="fill:#b0b0b0;stroke:#b0b0b0;stroke-width:.4" id="line2d_3"/><g style="fill:#b0b0b0" transform="matrix(.14 0 0 -.14 234.056 297.724)" id="text_3"><defs><path id="DejaVuSans-36" d="M2113 2584q-425 0-674-291-248-290-248-796 0-503 248-796 249-292 674-292t673 292q248 293 248 796 0 506-248 796-248 291-673 291zm1253 1979v-575q-238 112-480 171-242 60-480 60-625 0-955-422-329-422-376-1275 184 272 462 417 279 145 613 145 703 0 1111-427 408-426 408-1160 0-719-425-1154Q2819-91 2113-91q-810 0-1238 620-428 621-428 1799 0 1106 525 1764t1409 658q238 0 480-47t505-140z" transform="scale(.01563)"/></defs><use xlink:href="#DejaVuSans-32"/><use xlink:href="#DejaVuSans-30" x="63.623"/><use xlink:href="#DejaVuSans-31" x="127.246"/><use xlink:href="#DejaVuSans-36" x="190.869"/></g></g><g id="xtick_4"><use xlink:href="#me0104a70a0" x="314.504" y="280.087" style="fill:#b0b0b0;stroke:#b0b0b0;stroke-width:.4" id="line2d_4"/><g style="fill:#b0b0b0" transform="matrix(.14 0 0 -.14 296.69 297.724)" id="text_4"><defs><path id="DejaVuSans-38" d="M2034 2216q-450 0-708-241-257-241-257-662 0-422 257-663 258-241 708-241t709 242q260 243 260 662 0 421-258 662-257 241-711 241zm-631 268q-406 100-633 378-226 279-226 679 0 559 398 884 399 325 1092 325 697 0 1094-325t397-884q0-400-227-679-226-278-629-378 456-106 710-416 255-309 255-755 0-679-414-1042Q2806-91 2034-91q-771 0-1186 362-414 363-414 1042 0 446 256 755 257 310 713 416zm-231 997q0-362 226-565 227-203 636-203 407 0 636 203 230 203 230 565 0 363-230 566-229 203-636 203-409 0-636-203-226-203-226-566z" transform="scale(.01563)"/></defs><use xlink:href="#DejaVuSans-32"/><use xlink:href="#DejaVuSans-30" x="63.623"/><use xlink:href="#DejaVuSans-31" x="127.246"/><use xlink:href="#DejaVuSans-38" x="190.869"/></g></g><g id="xtick_5"><use xlink:href="#me0104a70a0" x="377.052" y="280.087" style="fill:#b0b0b0;stroke:#b0b0b0;stroke-width:.4" id="line2d_5"/><g style="fill:#b0b0b0" transform="matrix(.14 0 0 -.14 359.237 297.724)" id="text_5"><use xlink:href="#DejaVuSans-32"/><use xlink:href="#DejaVuSans-30" x="63.623"/><use xlink:href="#DejaVuSans-32" x="127.246"/><use xlink:href="#DejaVuSans-30" x="190.869"/></g></g><g id="xtick_6"><use xlink:href="#me0104a70a0" x="439.685" y="280.087" style="fill:#b0b0b0;stroke:#b0b0b0;stroke-width:.4" id="line2d_6"/><g style="fill:#b0b0b0" transform="matrix(.14 0 0 -.14 421.87 297.724)" id="text_6"><use xlink:href="#DejaVuSans-32"/><use xlink:href="#DejaVuSans-30" x="63.623"/><use xlink:href="#DejaVuSans-32" x="127.246"/><use xlink:href="#DejaVuSans-32" x="190.869"/></g></g></g><g id="matplotlib.axis_2"><g id="ytick_1"><path d="M98.073 280.087h357.12" clip-path="url(#pe3fe5a3bd7)" style="fill:none;stroke:#b0b0b0;stroke-width:.3;stroke-linecap:square" id="line2d_7"/><g id="line2d_8"><defs><path id="mee32833475" d="M0 0h-3.5" style="stroke:#b0b0b0;stroke-width:.3"/></defs><use xlink:href="#mee32833475" x="98.073" y="280.087" style="fill:#b0b0b0;stroke:#b0b0b0;stroke-width:.3"/></g><use xlink:href="#DejaVuSans-30" style="fill:#b0b0b0" transform="matrix(.14 0 0 -.14 82.166 285.406)" id="text_7"/></g><g id="ytick_2"><path d="M98.073 234.745h357.12" clip-path="url(#pe3fe5a3bd7)" style="fill:none;stroke:#b0b0b0;stroke-width:.3;stroke-linecap:square" id="line2d_9"/><use xlink:href="#mee32833475" x="98.073" y="234.745" style="fill:#b0b0b0;stroke:#b0b0b0;stroke-width:.3" id="line2d_10"/><g style="fill:#b0b0b0" transform="matrix(.14 0 0 -.14 55.443 240.064)" id="text_8"><use xlink:href="#DejaVuSans-31"/><use xlink:href="#DejaVuSans-30" x="63.623"/><use xlink:href="#DejaVuSans-30" x="127.246"/><use xlink:href="#DejaVuSans-30" x="190.869"/></g></g><g id="ytick_3"><path d="M98.073 189.403h357.12" clip-path="url(#pe3fe5a3bd7)" style="fill:none;stroke:#b0b0b0;stroke-width:.3;stroke-linecap:square" id="line2d_11"/><use xlink:href="#mee32833475" x="98.073" y="189.403" style="fill:#b0b0b0;stroke:#b0b0b0;stroke-width:.3" id="line2d_12"/><g style="fill:#b0b0b0" transform="matrix(.14 0 0 -.14 55.443 194.722)" id="text_9"><use xlink:href="#DejaVuSans-32"/><use xlink:href="#DejaVuSans-30" x="63.623"/><use xlink:href="#DejaVuSans-30" x="127.246"/><use xlink:href="#DejaVuSans-30" x="190.869"/></g></g><g id="ytick_4"><path d="M98.073 144.06h357.12" clip-path="url(#pe3fe5a3bd7)" style="fill:none;stroke:#b0b0b0;stroke-width:.3;stroke-linecap:square" id="line2d_13"/><use xlink:href="#mee32833475" x="98.073" y="144.061" style="fill:#b0b0b0;stroke:#b0b0b0;stroke-width:.3" id="line2d_14"/><g style="fill:#b0b0b0" transform="matrix(.14 0 0 -.14 55.443 149.38)" id="text_10"><defs><path id="DejaVuSans-33" d="M2597 2516q453-97 707-404 255-306 255-756 0-690-475-1069Q2609-91 1734-91q-293 0-604 58T488 141v609q262-153 574-231 313-78 654-78 593 0 904 234t311 681q0 413-289 645-289 233-804 233h-544v519h569q465 0 712 186t247 536q0 359-255 551-254 193-729 193-260 0-557-57-297-56-653-174v562q360 100 674 150t592 50q719 0 1137-327 419-326 419-882 0-388-222-655t-631-370z" transform="scale(.01563)"/></defs><use xlink:href="#DejaVuSans-33"/><use xlink:href="#DejaVuSans-30" x="63.623"/><use xlink:href="#DejaVuSans-30" x="127.246"/><use xlink:href="#DejaVuSans-30" x="190.869"/></g></g><g id="ytick_5"><path d="M98.073 98.719h357.12" clip-path="url(#pe3fe5a3bd7)" style="fill:none;stroke:#b0b0b0;stroke-width:.3;stroke-linecap:square" id="line2d_15"/><use xlink:href="#mee32833475" x="98.073" y="98.719" style="fill:#b0b0b0;stroke:#b0b0b0;stroke-width:.3" id="line2d_16"/><g style="fill:#b0b0b0" transform="matrix(.14 0 0 -.14 55.443 104.038)" id="text_11"><use xlink:href="#DejaVuSans-34"/><use xlink:href="#DejaVuSans-30" x="63.623"/><use xlink:href="#DejaVuSans-30" x="127.246"/><use xlink:href="#DejaVuSans-30" x="190.869"/></g></g><g id="ytick_6"><path d="M98.073 53.377h357.12" clip-path="url(#pe3fe5a3bd7)" style="fill:none;stroke:#b0b0b0;stroke-width:.3;stroke-linecap:square" id="line2d_17"/><use xlink:href="#mee32833475" x="98.073" y="53.377" style="fill:#b0b0b0;stroke:#b0b0b0;stroke-width:.3" id="line2d_18"/><g style="fill:#b0b0b0" transform="matrix(.14 0 0 -.14 55.443 58.696)" id="text_12"><defs><path id="DejaVuSans-35" d="M691 4666h2478v-532H1269V2991q137 47 274 70 138 23 276 23 781 0 1237-428 457-428 457-1159 0-753-469-1171Q2575-91 1722-91q-294 0-599 50Q819 9 494 109v635q281-153 581-228t634-75q541 0 856 284 316 284 316 772 0 487-316 771-315 285-856 285-253 0-505-56-251-56-513-175v2344z" transform="scale(.01563)"/></defs><use xlink:href="#DejaVuSans-35"/><use xlink:href="#DejaVuSans-30" x="63.623"/><use xlink:href="#DejaVuSans-30" x="127.246"/><use xlink:href="#DejaVuSans-30" x="190.869"/></g></g><g style="fill:#b0b0b0" transform="matrix(.14 0 0 -.14 7.2 23.854)" id="text_13"><defs><path id="DejaVuSans-47" d="M3809 666v1253H2778v519h1656V434q-365-259-806-392-440-133-940-133-1094 0-1712 639-617 640-617 1780 0 1144 617 1783 618 639 1712 639 456 0 867-113 411-112 758-331v-672q-350 297-744 447t-828 150q-857 0-1287-478-429-478-429-1425 0-944 429-1422 430-478 1287-478 334 0 596 58 263 58 472 180z" transform="scale(.01563)"/><path id="DejaVuSans-69" d="M603 3500h575V0H603v3500zm0 1363h575v-729H603v729z" transform="scale(.01563)"/><path id="DejaVuSans-74" d="M1172 4494v-994h1184v-447H1172V1153q0-428 117-550t477-122h590V0h-590q-666 0-919 248-253 249-253 905v1900H172v447h422v994h578z" transform="scale(.01563)"/><path id="DejaVuSans-48" d="M628 4666h631V2753h2294v1913h631V0h-631v2222H1259V0H628v4666z" transform="scale(.01563)"/><path id="DejaVuSans-75" d="M544 1381v2119h575V1403q0-497 193-746 194-248 582-248 465 0 735 297 271 297 271 810v1984h575V0h-575v538q-209-319-486-474-276-155-642-155-603 0-916 375-312 375-312 1097zm1447 2203z" transform="scale(.01563)"/><path id="DejaVuSans-62" d="M3116 1747q0 634-261 995t-717 361q-457 0-718-361t-261-995q0-634 261-995t718-361q456 0 717 361t261 995zM1159 2969q182 312 458 463 277 152 661 152 638 0 1036-506 399-506 399-1331T3314 415Q2916-91 2278-91q-384 0-661 152-276 152-458 464V0H581v4863h578V2969z" transform="scale(.01563)"/><path id="DejaVuSans-73" d="M2834 3397v-544q-243 125-506 187-262 63-544 63-428 0-642-131t-214-394q0-200 153-314t616-217l197-44q612-131 870-370t258-667q0-488-386-773Q2250-91 1575-91q-281 0-586 55T347 128v594q319-166 628-249 309-82 613-82 406 0 624 139 219 139 219 392 0 234-158 359-157 125-692 241l-200 47q-534 112-772 345-237 233-237 639 0 494 350 762 350 269 994 269 318 0 599-47 282-46 519-140z" transform="scale(.01563)"/><path id="DejaVuSans-61" d="M2194 1759q-697 0-966-159t-269-544q0-306 202-486 202-179 548-179 479 0 768 339t289 901v128h-572zm1147 238V0h-575v531q-197-318-491-470T1556-91q-537 0-855 302-317 302-317 808 0 590 395 890 396 300 1180 300h807v57q0 397-261 614t-733 217q-300 0-585-72-284-72-546-216v532q315 122 612 182 297 61 578 61 760 0 1135-394 375-393 375-1193z" transform="scale(.01563)"/><path id="DejaVuSans-72" d="M2631 2963q-97 56-211 82-114 27-251 27-488 0-749-317t-261-911V0H581v3500h578v-544q182 319 472 473 291 155 707 155 59 0 131-8 72-7 159-23l3-590z" transform="scale(.01563)"/></defs><use xlink:href="#DejaVuSans-47"/><use xlink:href="#DejaVuSans-69" x="77.49"/><use xlink:href="#DejaVuSans-74" x="105.273"/><use xlink:href="#DejaVuSans-48" x="144.482"/><use xlink:href="#DejaVuSans-75" x="219.678"/><use xlink:href="#DejaVuSans-62" x="283.057"/><use xlink:href="#DejaVuSans-20" x="346.533"/><use xlink:href="#DejaVuSans-73" x="378.32"/><use xlink:href="#DejaVuSans-74" x="430.42"/><use xlink:href="#DejaVuSans-61" x="469.629"/><use xlink:href="#DejaVuSans-72" x="530.908"/><use xlink:href="#DejaVuSans-73" x="572.021"/></g></g><path d="m228.309 280.087 2.57-.091h7.883l2.656-.272h5.227l2.57-.045H257.012l2.656-.046H270.121l2.656-.045h2.57l2.657-.09 2.57-.046H288.286l2.656-.045h2.57l2.656-.046h2.57l2.657-.363 2.656-.18 2.57-.046h2.657l2.57-.046 2.656-.045 2.656-.09 2.4-.137 2.656-.045 2.57-.045 2.656-.136 2.57-.046 2.657-.045h7.882l2.57-.09 2.657-.046 2.656-.09 2.4-.046 2.655-.136 2.57-.09 2.657-.091 2.57-.046 2.656-.09 2.657-.046 2.57-.09 2.656-.046 2.57-.045 2.657-.09h2.656l2.485-.046 2.656-.046 2.57-.045h2.656l2.57-.045H405.756l2.656-.046h2.656l2.4-.045h15.765l2.57-.272h2.656l2.57-.09h2.657l2.656-.091 2.399-.091 2.656-.09 2.57-.091 2.657-.136 2.57-.091" clip-path="url(#pe3fe5a3bd7)" style="fill:none;stroke:#98df8a;stroke-width:1.5;stroke-linecap:square" id="line2d_19"/><path d="m377.052 280.087 2.656-.272 2.485-.635 2.656-.408 2.57-.272 2.656-.68 2.57-.363 2.657-.454 2.656-.68 2.57-.362 2.657-.227 2.57-.136 2.656-.408 2.656-.272 2.4-.5 2.655-.18 2.57-.318 2.657-.272 2.57-.272 2.657-.635 2.656-.408 2.57-.363 2.656-.498 2.57-.272 2.657-.635 2.656-.408 2.399-.499 2.656-.272 2.57-.499 2.657-.408 2.57-.907" clip-path="url(#pe3fe5a3bd7)" style="fill:none;stroke:#ffbb78;stroke-width:1.5;stroke-linecap:square" id="line2d_20"/><path d="m243.989 280.087 2.656-.227 2.57-.136 2.656-.09 2.656-.182 2.485-.09 2.656-.091 2.57-.136 2.657-.137h2.57l2.656-.272 2.656-.045 2.57-.045 2.657-.09h5.227l2.656-.137 2.399-.045 2.656-.046 2.57-.136 2.656-.045 2.57-.136 2.657-.09 2.656-.137 2.57-.09h2.657l2.57-.046 2.656-.136 2.656-.045 2.4-.09 2.656-.182 2.57-.09 2.656-.228 2.57-.317 2.657-.045 2.656-.136 2.57-.091 2.656-.09 2.57-.137 2.657-.136 2.656-.09 2.4-.046 2.655-.136 2.57-.317 2.657-.09 2.57-.137 2.656-.227 2.657-.136 2.57-.09 2.656-.046 2.57-.226 2.657-.182 2.656-.045 2.485-.227 2.656-.045 2.57-.046 2.656-.589 2.57-.363 2.657-.362 2.656-.227 2.57-.544 2.657-.544 2.57-.635 2.656-.181 2.656-.318 2.4-.317 2.655-.499 2.57-.227 2.657-.408 2.57-.861 2.657-1.18 2.656-.589 2.57-.68 2.656-.952 2.57-.861 2.657-.817 2.656-.725 2.399-.317 2.656-.726 2.57-.725 2.657-.454 2.57-.59" clip-path="url(#pe3fe5a3bd7)" style="fill:none;stroke:#aec7e8;stroke-width:1.5;stroke-linecap:square" id="line2d_21"/><g style="fill:#1f77b4" transform="matrix(.14 0 0 -.14 465.907 17.838)" id="text_14"><defs><path id="DejaVuSans-64" d="M2906 2969v1894h575V0h-575v525q-181-312-458-464-276-152-664-152-634 0-1033 506-398 507-398 1332t398 1331q399 506 1033 506 388 0 664-152 277-151 458-463zM947 1747q0-634 261-995t717-361q456 0 718 361 263 361 263 995t-263 995q-262 361-718 361t-717-361q-261-361-261-995z" transform="scale(.01563)"/><path id="DejaVuSans-6f" d="M1959 3097q-462 0-731-361t-269-989q0-628 267-989 268-361 733-361 460 0 728 362 269 363 269 988 0 622-269 986-268 364-728 364zm0 487q750 0 1178-488 429-487 429-1349 0-859-429-1349Q2709-91 1959-91q-753 0-1180 489-426 490-426 1349 0 862 426 1349 427 488 1180 488z" transform="scale(.01563)"/><path id="DejaVuSans-6e" d="M3513 2113V0h-575v2094q0 497-194 743-194 247-581 247-466 0-735-297-269-296-269-809V0H581v3500h578v-544q207 316 486 472 280 156 646 156 603 0 912-373 310-373 310-1098z" transform="scale(.01563)"/><path id="DejaVuSans-65" d="M3597 1894v-281H953q38-594 358-905t892-311q331 0 642 81t618 244V178Q3153 47 2828-22t-659-69q-838 0-1327 487-489 488-489 1320 0 859 464 1363 464 505 1252 505 706 0 1117-455 411-454 411-1235zm-575 169q-6 471-264 752-258 282-683 282-481 0-770-272t-333-766l2050 4z" transform="scale(.01563)"/><path id="DejaVuSans-2f" d="M1625 4666h531L531-594H0l1625 5260z" transform="scale(.01563)"/><path id="DejaVuSans-77" d="M269 3500h575l719-2731 715 2731h678l719-2731 716 2731h575L4050 0h-678l-753 2869L1863 0h-679L269 3500z" transform="scale(.01563)"/><path id="DejaVuSans-70" d="M1159 525v-1856H581v4831h578v-531q182 312 458 463 277 152 661 152 638 0 1036-506 399-506 399-1331T3314 415Q2916-91 2278-91q-384 0-661 152-276 152-458 464zm1957 1222q0 634-261 995t-717 361q-457 0-718-361t-261-995q0-634 261-995t718-361q456 0 717 361t261 995z" transform="scale(.01563)"/><path id="DejaVuSans-66" d="M2375 4863v-479h-550q-309 0-430-125-120-125-120-450v-309h947v-447h-947V0H697v3053H147v447h550v244q0 584 272 851 272 268 862 268h544z" transform="scale(.01563)"/></defs><use xlink:href="#DejaVuSans-64"/><use xlink:href="#DejaVuSans-6f" x="63.477"/><use xlink:href="#DejaVuSans-74" x="124.658"/><use xlink:href="#DejaVuSans-6e" x="163.867"/><use xlink:href="#DejaVuSans-65" x="227.246"/><use xlink:href="#DejaVuSans-74" x="288.77"/><use xlink:href="#DejaVuSans-2f" x="327.979"/><use xlink:href="#DejaVuSans-77" x="361.67"/><use xlink:href="#DejaVuSans-70" x="443.457"/><use xlink:href="#DejaVuSans-66" x="506.934"/></g><g style="fill:#ff7f0e" transform="matrix(.14 0 0 -.14 465.907 76.697)" id="text_15"><defs><path id="DejaVuSans-78" d="M3513 3500 2247 1797 3578 0h-678L1881 1375 863 0H184l1360 1831L300 3500h678l928-1247 928 1247h679z" transform="scale(.01563)"/><path id="DejaVuSans-57" d="M213 4666h637l981-3944 978 3944h710l981-3944 978 3944h641L4947 0h-794l-984 4050L2175 0h-794L213 4666z" transform="scale(.01563)"/><path id="DejaVuSans-67" d="M2906 1791q0 625-258 968-257 344-723 344-462 0-720-344-258-343-258-968 0-622 258-966t720-344q466 0 723 344 258 344 258 966zm575-1357q0-893-397-1329-396-436-1215-436-303 0-572 45t-522 139v559q253-137 500-202 247-66 503-66 566 0 847 295t281 892v285q-178-310-456-463T1784 0Q1141 0 747 490 353 981 353 1791q0 812 394 1302 394 491 1037 491 388 0 666-153t456-462v531h575V434z" transform="scale(.01563)"/></defs><use xlink:href="#DejaVuSans-77"/><use xlink:href="#DejaVuSans-78" x="81.787"/><use xlink:href="#DejaVuSans-57" x="140.967"/><use xlink:href="#DejaVuSans-69" x="237.594"/><use xlink:href="#DejaVuSans-64" x="265.377"/><use xlink:href="#DejaVuSans-67" x="328.854"/><use xlink:href="#DejaVuSans-65" x="392.33"/><use xlink:href="#DejaVuSans-74" x="453.854"/><use xlink:href="#DejaVuSans-73" x="493.063"/><use xlink:href="#DejaVuSans-2f" x="545.162"/><use xlink:href="#DejaVuSans-77" x="578.854"/><use xlink:href="#DejaVuSans-78" x="660.641"/><use xlink:href="#DejaVuSans-57" x="719.82"/><use xlink:href="#DejaVuSans-69" x="816.447"/><use xlink:href="#DejaVuSans-64" x="844.23"/><use xlink:href="#DejaVuSans-67" x="907.707"/><use xlink:href="#DejaVuSans-65" x="971.184"/><use xlink:href="#DejaVuSans-74" x="1032.707"/><use xlink:href="#DejaVuSans-73" x="1071.916"/></g><g style="fill:#2ca02c" transform="matrix(.14 0 0 -.14 465.907 90.697)" id="text_16"><defs><path id="DejaVuSans-6a" d="M603 3500h575V-63q0-668-255-968-254-300-820-300h-219v487H38q328 0 446 152Q603-541 603-63v3563zm0 1363h575v-729H603v729z" transform="scale(.01563)"/><path id="DejaVuSans-63" d="M3122 3366v-538q-244 135-489 202t-495 67q-560 0-870-355-309-354-309-995t309-996q310-354 870-354 250 0 495 67t489 202V134Q2881 22 2623-34q-257-57-548-57-791 0-1257 497-465 497-465 1341 0 856 470 1346 471 491 1290 491 265 0 518-55 253-54 491-163z" transform="scale(.01563)"/><path id="DejaVuSans-2d" d="M313 2009h1684v-512H313v512z" transform="scale(.01563)"/><path id="DejaVuSans-6d" d="M3328 2828q216 388 516 572t706 184q547 0 844-383 297-382 297-1088V0h-578v2094q0 503-179 746-178 244-543 244-447 0-707-297-259-296-259-809V0h-578v2094q0 506-178 748t-550 242q-441 0-701-298-259-298-259-808V0H581v3500h578v-544q197 322 472 475t653 153q382 0 649-194 267-193 395-562z" transform="scale(.01563)"/><path id="DejaVuSans-6b" d="M581 4863h578V1991l1716 1509h734L1753 1863 3688 0h-750L1159 1709V0H581v4863z" transform="scale(.01563)"/><path id="DejaVuSans-4a" d="M628 4666h631V325q0-844-320-1225T-91-1281h-240v531h197q418 0 590 235 172 234 172 840v4341z" transform="scale(.01563)"/><path id="DejaVuSans-55" d="M556 4666h635V1831q0-750 271-1080 272-329 882-329 606 0 878 329 272 330 272 1080v2835h634V1753q0-912-452-1378Q3225-91 2344-91q-885 0-1337 466-451 466-451 1378v2913z" transform="scale(.01563)"/><path id="DejaVuSans-43" d="M4122 4306v-665q-319 297-680 443-361 147-767 147-800 0-1225-489t-425-1414q0-922 425-1411t1225-489q406 0 767 147t680 444V359q-331-225-702-338-370-112-782-112-1060 0-1670 648-609 649-609 1771 0 1125 609 1773 610 649 1670 649 418 0 788-111 371-111 696-333z" transform="scale(.01563)"/><path id="DejaVuSans-45" d="M628 4666h2950v-532H1259V2753h2222v-531H1259V531h2375V0H628v4666z" transform="scale(.01563)"/></defs><use xlink:href="#DejaVuSans-6a"/><use xlink:href="#DejaVuSans-75" x="27.783"/><use xlink:href="#DejaVuSans-63" x="91.162"/><use xlink:href="#DejaVuSans-65" x="146.143"/><use xlink:href="#DejaVuSans-2d" x="207.666"/><use xlink:href="#DejaVuSans-66" x="243.75"/><use xlink:href="#DejaVuSans-72" x="278.955"/><use xlink:href="#DejaVuSans-61" x="320.068"/><use xlink:href="#DejaVuSans-6d" x="381.348"/><use xlink:href="#DejaVuSans-65" x="478.76"/><use xlink:href="#DejaVuSans-77" x="540.283"/><use xlink:href="#DejaVuSans-6f" x="622.07"/><use xlink:href="#DejaVuSans-72" x="683.252"/><use xlink:href="#DejaVuSans-6b" x="724.365"/><use xlink:href="#DejaVuSans-2f" x="782.275"/><use xlink:href="#DejaVuSans-4a" x="815.967"/><use xlink:href="#DejaVuSans-55" x="845.459"/><use xlink:href="#DejaVuSans-43" x="918.652"/><use xlink:href="#DejaVuSans-45" x="988.477"/></g><g style="fill:#d62728" transform="matrix(.14 0 0 -.14 465.907 172.565)" id="text_17"><defs><path id="DejaVuSans-68" d="M3513 2113V0h-575v2094q0 497-194 743-194 247-581 247-466 0-735-297-269-296-269-809V0H581v4863h578V2956q207 316 486 472 280 156 646 156 603 0 912-373 310-373 310-1098z" transform="scale(.01563)"/></defs><use xlink:href="#DejaVuSans-63"/><use xlink:href="#DejaVuSans-6e" x="54.98"/><use xlink:href="#DejaVuSans-6a" x="118.359"/><use xlink:href="#DejaVuSans-69" x="146.143"/><use xlink:href="#DejaVuSans-6e" x="173.926"/><use xlink:href="#DejaVuSans-68" x="237.305"/><use xlink:href="#DejaVuSans-61" x="300.684"/><use xlink:href="#DejaVuSans-6f" x="361.963"/><use xlink:href="#DejaVuSans-2f" x="423.145"/><use xlink:href="#DejaVuSans-6e" x="456.836"/><use xlink:href="#DejaVuSans-61" x="520.215"/><use xlink:href="#DejaVuSans-6e" x="581.494"/><use xlink:href="#DejaVuSans-61" x="644.873"/></g><g style="fill:#9467bd" transform="matrix(.14 0 0 -.14 465.907 186.565)" id="text_18"><use xlink:href="#DejaVuSans-63"/><use xlink:href="#DejaVuSans-68" x="54.98"/><use xlink:href="#DejaVuSans-72" x="118.359"/><use xlink:href="#DejaVuSans-6f" x="157.223"/><use xlink:href="#DejaVuSans-6d" x="218.404"/><use xlink:href="#DejaVuSans-69" x="315.816"/><use xlink:href="#DejaVuSans-75" x="343.6"/><use xlink:href="#DejaVuSans-6d" x="406.979"/><use xlink:href="#DejaVuSans-65" x="504.391"/><use xlink:href="#DejaVuSans-6d" x="565.914"/><use xlink:href="#DejaVuSans-62" x="663.326"/><use xlink:href="#DejaVuSans-65" x="726.803"/><use xlink:href="#DejaVuSans-64" x="788.326"/><use xlink:href="#DejaVuSans-64" x="851.803"/><use xlink:href="#DejaVuSans-65" x="915.279"/><use xlink:href="#DejaVuSans-64" x="976.803"/><use xlink:href="#DejaVuSans-2f" x="1040.279"/><use xlink:href="#DejaVuSans-63" x="1073.971"/><use xlink:href="#DejaVuSans-65" x="1128.951"/><use xlink:href="#DejaVuSans-66" x="1190.475"/></g><g style="fill:#8c564b" transform="matrix(.14 0 0 -.14 465.907 200.565)" id="text_19"><use xlink:href="#DejaVuSans-6f"/><use xlink:href="#DejaVuSans-70" x="61.182"/><use xlink:href="#DejaVuSans-65" x="124.658"/><use xlink:href="#DejaVuSans-6e" x="186.182"/><use xlink:href="#DejaVuSans-6a" x="249.561"/><use xlink:href="#DejaVuSans-64" x="277.344"/><use xlink:href="#DejaVuSans-6b" x="340.82"/><use xlink:href="#DejaVuSans-2f" x="398.73"/><use xlink:href="#DejaVuSans-6a" x="432.422"/><use xlink:href="#DejaVuSans-66" x="460.205"/><use xlink:href="#DejaVuSans-78" x="495.41"/></g><g style="fill:#e377c2" transform="matrix(.14 0 0 -.14 465.907 214.565)" id="text_20"><defs><path id="DejaVuSans-71" d="M947 1747q0-634 261-995t717-361q456 0 718 361 263 361 263 995t-263 995q-262 361-718 361t-717-361q-261-361-261-995zM2906 525q-181-312-458-464-276-152-664-152-634 0-1033 506-398 507-398 1332t398 1331q399 506 1033 506 388 0 664-152 277-151 458-463v531h575v-4831h-575V525z" transform="scale(.01563)"/></defs><use xlink:href="#DejaVuSans-71"/><use xlink:href="#DejaVuSans-74" x="63.477"/><use xlink:href="#DejaVuSans-2f" x="102.686"/><use xlink:href="#DejaVuSans-71" x="136.377"/><use xlink:href="#DejaVuSans-74" x="199.854"/><use xlink:href="#DejaVuSans-62" x="239.063"/><use xlink:href="#DejaVuSans-61" x="302.539"/><use xlink:href="#DejaVuSans-73" x="363.818"/><use xlink:href="#DejaVuSans-65" x="415.918"/></g><g style="fill:#7f7f7f" transform="matrix(.14 0 0 -.14 465.907 228.565)" id="text_21"><defs><path id="DejaVuSans-4e" d="M628 4666h850L3547 763v3903h612V0h-850L1241 3903V0H628v4666z" transform="scale(.01563)"/><path id="DejaVuSans-4f" d="M2522 4238q-688 0-1093-513-404-512-404-1397 0-881 404-1394 405-512 1093-512 687 0 1089 512 402 513 402 1394 0 885-402 1397-402 513-1089 513zm0 512q981 0 1568-658 588-658 588-1764 0-1103-588-1761Q3503-91 2522-91q-984 0-1574 656-589 657-589 1763t589 1764q590 658 1574 658z" transform="scale(.01563)"/><path id="DejaVuSans-4d" d="M628 4666h941l1190-3175 1197 3175h941V0h-616v4097L3078 897h-634L1241 4097V0H628v4666z" transform="scale(.01563)"/></defs><use xlink:href="#DejaVuSans-47"/><use xlink:href="#DejaVuSans-4e" x="77.49"/><use xlink:href="#DejaVuSans-4f" x="152.295"/><use xlink:href="#DejaVuSans-4d" x="231.006"/><use xlink:href="#DejaVuSans-45" x="317.285"/><use xlink:href="#DejaVuSans-2f" x="380.469"/><use xlink:href="#DejaVuSans-67" x="414.16"/><use xlink:href="#DejaVuSans-74" x="477.637"/><use xlink:href="#DejaVuSans-6b" x="516.846"/></g><g style="fill:#bcbd22" transform="matrix(.14 0 0 -.14 465.907 242.565)" id="text_22"><defs><path id="DejaVuSans-6c" d="M603 4863h575V0H603v4863z" transform="scale(.01563)"/></defs><use xlink:href="#DejaVuSans-66"/><use xlink:href="#DejaVuSans-6c" x="35.205"/><use xlink:href="#DejaVuSans-74" x="62.988"/><use xlink:href="#DejaVuSans-6b" x="102.197"/><use xlink:href="#DejaVuSans-2f" x="160.107"/><use xlink:href="#DejaVuSans-66" x="193.799"/><use xlink:href="#DejaVuSans-6c" x="229.004"/><use xlink:href="#DejaVuSans-74" x="256.787"/><use xlink:href="#DejaVuSans-6b" x="295.996"/></g><g style="fill:#17becf" transform="matrix(.14 0 0 -.14 465.907 256.565)" id="text_23"><use xlink:href="#DejaVuSans-74"/><use xlink:href="#DejaVuSans-63" x="39.209"/><use xlink:href="#DejaVuSans-6c" x="94.189"/><use xlink:href="#DejaVuSans-74" x="121.973"/><use xlink:href="#DejaVuSans-6b" x="161.182"/><use xlink:href="#DejaVuSans-2f" x="219.092"/><use xlink:href="#DejaVuSans-74" x="252.783"/><use xlink:href="#DejaVuSans-63" x="291.992"/><use xlink:href="#DejaVuSans-6c" x="346.973"/></g><g style="fill:#aec7e8" transform="matrix(.14 0 0 -.14 465.907 270.565)" id="text_24"><use xlink:href="#DejaVuSans-75"/><use xlink:href="#DejaVuSans-6c" x="63.379"/><use xlink:href="#DejaVuSans-74" x="91.162"/><use xlink:href="#DejaVuSans-69" x="130.371"/><use xlink:href="#DejaVuSans-6d" x="158.154"/><use xlink:href="#DejaVuSans-61" x="255.566"/><use xlink:href="#DejaVuSans-74" x="316.846"/><use xlink:href="#DejaVuSans-65" x="356.055"/><use xlink:href="#DejaVuSans-70" x="417.578"/><use xlink:href="#DejaVuSans-70" x="481.055"/><use xlink:href="#DejaVuSans-2f" x="544.531"/><use xlink:href="#DejaVuSans-75" x="578.223"/><use xlink:href="#DejaVuSans-6c" x="641.602"/><use xlink:href="#DejaVuSans-74" x="669.385"/><use xlink:href="#DejaVuSans-69" x="708.594"/><use xlink:href="#DejaVuSans-6d" x="736.377"/><use xlink:href="#DejaVuSans-61" x="833.789"/><use xlink:href="#DejaVuSans-74" x="895.068"/><use xlink:href="#DejaVuSans-65" x="934.277"/><use xlink:href="#DejaVuSans-70" x="995.801"/><use xlink:href="#DejaVuSans-70" x="1059.277"/></g><g style="fill:#ffbb78" transform="matrix(.14 0 0 -.14 465.907 284.565)" id="text_25"><use xlink:href="#DejaVuSans-63"/><use xlink:href="#DejaVuSans-65" x="54.98"/><use xlink:href="#DejaVuSans-67" x="116.504"/><use xlink:href="#DejaVuSans-75" x="179.98"/><use xlink:href="#DejaVuSans-69" x="243.359"/><use xlink:href="#DejaVuSans-2f" x="271.143"/><use xlink:href="#DejaVuSans-63" x="304.834"/><use xlink:href="#DejaVuSans-65" x="359.814"/><use xlink:href="#DejaVuSans-67" x="421.338"/><use xlink:href="#DejaVuSans-75" x="484.814"/><use xlink:href="#DejaVuSans-69" x="548.193"/></g><g style="fill:#98df8a" transform="matrix(.14 0 0 -.14 465.907 298.565)" id="text_26"><use xlink:href="#DejaVuSans-45"/><use xlink:href="#DejaVuSans-6e" x="63.184"/><use xlink:href="#DejaVuSans-6c" x="126.563"/><use xlink:href="#DejaVuSans-69" x="154.346"/><use xlink:href="#DejaVuSans-67" x="182.129"/><use xlink:href="#DejaVuSans-68" x="245.605"/><use xlink:href="#DejaVuSans-74" x="308.984"/><use xlink:href="#DejaVuSans-65" x="348.193"/><use xlink:href="#DejaVuSans-6e" x="409.717"/><use xlink:href="#DejaVuSans-6d" x="473.096"/><use xlink:href="#DejaVuSans-65" x="570.508"/><use xlink:href="#DejaVuSans-6e" x="632.031"/><use xlink:href="#DejaVuSans-74" x="695.41"/><use xlink:href="#DejaVuSans-2f" x="734.619"/><use xlink:href="#DejaVuSans-65" x="768.311"/><use xlink:href="#DejaVuSans-66" x="829.834"/><use xlink:href="#DejaVuSans-6c" x="865.039"/></g><g style="fill:#b0b0b0" transform="matrix(.09716 0 0 -.09716 98.073 314.123)" id="text_27"><defs><path id="DejaVuSans-40" d="M2381 1678q0-447 222-702 222-254 610-254 384 0 604 256 221 256 221 700 0 438-225 695-225 258-607 258-378 0-602-256-223-256-223-697zm1703-934q-187-241-429-355t-564-114q-538 0-874 389t-336 1014q0 625 337 1015 338 391 873 391 322 0 565-117 244-117 428-354v409h447V722q457 69 714 417 258 349 258 902 0 334-99 628-98 294-298 544-325 409-792 626t-1017 217q-384 0-738-102-353-101-653-301-490-319-767-836-276-517-276-1120 0-497 179-932 180-434 521-765 328-325 759-495 431-171 922-171 403 0 792 136t714 389l281-347q-390-303-851-464t-936-161q-578 0-1091 205-512 205-912 595Q841 78 631 592q-209 514-209 1105 0 569 212 1084 213 516 607 907 403 396 931 607t1119 211q662 0 1229-272 568-271 952-771 234-307 357-666 124-359 124-744 0-822-497-1297T4084 263v481z" transform="scale(.01563)"/><path id="DejaVuSans-7c" d="M1344 4891v-6400H813v6400h531z" transform="scale(.01563)"/><path id="DejaVuSans-53" d="M3425 4513v-616q-359 172-678 256-319 85-616 85-515 0-795-200t-280-569q0-310 186-468 186-157 705-254l381-78q706-135 1042-474t336-907q0-679-455-1029Q2797-91 1919-91q-331 0-705 75-373 75-773 222v650q384-215 753-325 369-109 725-109 540 0 834 212 294 213 294 607 0 343-211 537t-692 291l-385 75q-706 140-1022 440-315 300-315 835 0 619 436 975t1201 356q329 0 669-60 341-59 697-177z" transform="scale(.01563)"/><path id="DejaVuSans-f6" d="M1959 3097q-462 0-731-361t-269-989q0-628 267-989 268-361 733-361 460 0 728 362 269 363 269 988 0 622-269 986-268 364-728 364zm0 487q750 0 1178-488 429-487 429-1349 0-859-429-1349Q2709-91 1959-91q-753 0-1180 489-426 490-426 1349 0 862 426 1349 427 488 1180 488zm295 1266h634v-631h-634v631zm-1222 0h634v-631h-634v631z" transform="scale(.01563)"/><path id="DejaVuSans-42" d="M1259 2228V519h1013q509 0 754 211 246 211 246 645 0 438-246 645-245 208-754 208H1259zm0 1919V2741h935q462 0 688 173 227 174 227 530 0 353-227 528-226 175-688 175h-935zm-631 519h1613q722 0 1112-300 391-300 391-853 0-429-200-682t-588-315q466-100 724-418 258-317 258-792 0-625-425-966Q3088 0 2303 0H628v4666z" transform="scale(.01563)"/><path id="DejaVuSans-59" d="M-13 4666h679l1293-1919 1285 1919h678L2272 2222V0h-634v2222L-13 4666z" transform="scale(.01563)"/></defs><use xlink:href="#DejaVuSans-40"/><use xlink:href="#DejaVuSans-6e" x="100"/><use xlink:href="#DejaVuSans-73" x="163.379"/><use xlink:href="#DejaVuSans-63" x="215.479"/><use xlink:href="#DejaVuSans-68" x="270.459"/><use xlink:href="#DejaVuSans-6c" x="333.838"/><use xlink:href="#DejaVuSans-6f" x="361.621"/><use xlink:href="#DejaVuSans-65" x="422.803"/><use xlink:href="#DejaVuSans-20" x="484.326"/><use xlink:href="#DejaVuSans-2f" x="516.113"/><use xlink:href="#DejaVuSans-20" x="549.805"/><use xlink:href="#DejaVuSans-67" x="581.592"/><use xlink:href="#DejaVuSans-69" x="645.068"/><use xlink:href="#DejaVuSans-74" x="672.852"/><use xlink:href="#DejaVuSans-68" x="712.061"/><use xlink:href="#DejaVuSans-75" x="775.439"/><use xlink:href="#DejaVuSans-62" x="838.818"/><use xlink:href="#DejaVuSans-2d" x="902.295"/><use xlink:href="#DejaVuSans-74" x="938.379"/><use xlink:href="#DejaVuSans-72" x="977.588"/><use xlink:href="#DejaVuSans-65" x="1016.451"/><use xlink:href="#DejaVuSans-6e" x="1077.975"/><use xlink:href="#DejaVuSans-64" x="1141.354"/><use xlink:href="#DejaVuSans-73" x="1204.83"/><use xlink:href="#DejaVuSans-20" x="1256.93"/><use xlink:href="#DejaVuSans-7c" x="1288.717"/><use xlink:href="#DejaVuSans-20" x="1322.408"/><use xlink:href="#DejaVuSans-4e" x="1354.195"/><use xlink:href="#DejaVuSans-69" x="1429"/><use xlink:href="#DejaVuSans-63" x="1456.783"/><use xlink:href="#DejaVuSans-6f" x="1511.764"/><use xlink:href="#DejaVuSans-20" x="1572.945"/><use xlink:href="#DejaVuSans-53" x="1604.732"/><use xlink:href="#DejaVuSans-63" x="1668.209"/><use xlink:href="#DejaVuSans-68" x="1723.189"/><use xlink:href="#DejaVuSans-6c" x="1786.568"/><use xlink:href="#DejaVuSans-f6" x="1814.352"/><use xlink:href="#DejaVuSans-6d" x="1875.533"/><use xlink:href="#DejaVuSans-65" x="1972.945"/><use xlink:href="#DejaVuSans-72" x="2034.469"/><use xlink:href="#DejaVuSans-20" x="2075.582"/><use xlink:href="#DejaVuSans-7c" x="2107.369"/><use xlink:href="#DejaVuSans-20" x="2141.061"/><use xlink:href="#DejaVuSans-43" x="2172.848"/><use xlink:href="#DejaVuSans-43" x="2242.672"/><use xlink:href="#DejaVuSans-20" x="2312.496"/><use xlink:href="#DejaVuSans-42" x="2344.283"/><use xlink:href="#DejaVuSans-59" x="2407.387"/></g><path d="m98.073 280.087 2.4-.227 13.108-.09 7.883-.046 49.524-.045 5.227-.182 15.765-.181 18.164-.09 10.454-.228 5.055-.18 18.336-.681 18.25-1.224 13.109-.454 2.656-.362 5.227-.272 2.656-.454 5.055-.272 2.57-.136 2.656-.272 2.57-.136 5.313-.544 2.57-.09 2.657-.228 5.226-.136 2.656-.136 2.4-.272 13.109-.861 5.226-.09 2.656-.409 5.227-.408 2.656-.59 5.055-.498 2.57-.499 2.657-.272 7.883-.363 2.57-.362 5.227-.454 5.312-.363 2.485-.09 2.656-.272 2.57-.454h2.656l2.57-.136 2.657-.272 5.226-.363 7.883-.997 5.055-.408 7.883-1.451 2.57-.181 5.313-.726 5.226-.77 2.57-.454 10.368-1.134 2.57-.635 2.657-.136 2.57-.498h0" clip-path="url(#pe3fe5a3bd7)" style="fill:none;stroke:#17becf;stroke-width:1.5;stroke-linecap:square" id="line2d_22"/><path d="m335.325 280.087 2.57-.182 2.656-.272 2.57-.272 2.657-1.904 2.656-.998 2.4-.544 2.655-.635 2.57-.725 2.657-.68 2.57-.544 2.656-.544 2.657-.817 2.57-.77 2.656-.635 2.57-.454 2.657-.816 2.656-.997 2.485-.907 2.656-.862 2.57-1.088 2.656-.907 2.57-.816 2.657-.77 2.656-.635 2.57-.953 2.657-.453 2.57-1.134 2.656-1.27 2.656-1.178 2.4-.544 2.655-1.224 2.57-1.406 2.657-.453 2.57-.907 2.657-1.224 2.656-1.18 2.57-1.133 2.656-1.133 2.57-1.27 2.657-1.315 2.656-1.315 2.399-1.179 2.656-1.723 2.57-1.45 2.657-1.27 2.57-1.27" clip-path="url(#pe3fe5a3bd7)" style="fill:none;stroke:#bcbd22;stroke-width:1.5;stroke-linecap:square" id="line2d_23"/><path d="m139.714 280.087 2.57-.227h2.657l2.656-.045H158.05l2.656-.046h5.055l2.57-.09 2.657-.091h2.57l2.657-.045 2.656-.182h2.57l2.656-.045 2.57-.045 2.657-.046 2.656-.045 2.399-.045 2.656-.137 2.57-.136 2.657-.136 2.57-.136 2.656-.226 2.656-.318 2.57-.181 2.657-.227 2.57-.226 2.657-.273 2.656-.226 2.399-.182 2.656-.181 2.57-.363 2.656-.181 2.57-.227 2.657-.272 2.656-.272 2.57-.317 2.657-.227 2.57-.227 2.656-.317 2.656-.136 2.485-.544 2.656-.363 2.57-.136 2.657-.363 2.57-.408 2.656-.272 2.656-.227 2.57-.136 2.657-.226 2.57-.408 2.657-.318 2.656-.317 2.399-.408 2.656-.68 2.57-.544 2.656-.59 2.57-.272 2.657-.181 2.656-.59 2.57-.408 2.657-.907 2.57-.59 2.656-.589 2.656-.997 2.4-.68 2.656-.862 2.57-.499 2.656-.544 2.57-.68 2.657-.226 2.656-.59 2.57-.408 2.656-.453 2.57-.363 2.657-.726 2.656-.59 2.4-.589 2.655-.77 2.57-.5 2.657-.543 2.57-.363 2.656-.68 2.657-.726 2.57-.226 2.656-.726 2.57-.226 2.657-.408 2.656-.545 2.485-.408 2.656-.408 2.57-.635 2.656-1.042 2.57-.68 2.657-.409 2.656-.77 2.57-.408 2.657-.59 2.57-.635 2.656-.68 2.656-.635 2.4-.77 2.655-.5 2.57-.498 2.657-.499 2.57-.408 2.657-.68 2.656-.499 2.57-.816 2.656-.635 2.57-.816 2.657-.77 2.656-.635 2.399-.726 2.656-.59 2.57-.997 2.657-.952 2.57-.816" clip-path="url(#pe3fe5a3bd7)" style="fill:none;stroke:#7f7f7f;stroke-width:1.5;stroke-linecap:square" id="line2d_24"/><path d="m168.332 280.087 2.656-.046H181.441l2.656-.045h2.57l2.657-.045h5.055l2.656-.091h2.57l2.657-.136 2.57-.045h5.312l2.57-.046 2.657-.045 2.57-.09 2.657-.137 2.656-.045 2.399-.09 2.656-.318 2.57-.408 2.656-.454 2.57-.408 2.657-.408 2.656-.09 2.57-.273 2.657-.226 2.57-.363 2.656-.544 2.656-.544 2.485-.227 2.656-.317 2.57-.272 2.657-.408 2.57-.363 2.656-.318 2.656-.317 2.57-.136 2.657-.136 2.57-.408 2.657-.272 2.656-.363 2.399-.499 2.656-.453 2.57-.726 2.656-.589 2.57-.408 2.657-.726 2.656-.77 2.57-1.134 2.657-.725 2.57-.545 2.656-.861 2.656-.998 2.4-.816 2.656-.952 2.57-.68 2.656-.861 2.57-.907 2.657-.816 2.656-.771 2.57-.816 2.656-.59 2.57-.725 2.657-.454 2.656-1.405 2.4-.953 2.655-1.45 2.57-1.089 2.657-1.179 2.57-.952 2.656-.816 2.657-1.133 2.57-.817 2.656-.634 2.57-.862 2.657-1.36 2.656-1.27 2.485-1.088 2.656-1.088 2.57-.862 2.656-1.541 2.57-1.27 2.657-1.043 2.656-1.133 2.57-1.315 2.657-1.36 2.57-1.451 2.656-2.449 2.656-1.768 2.4-1.18 2.655-1.178 2.57-1.36 2.657-.952 2.57-1.497 2.657-1.133 2.656-.907 2.57-1.27 2.656-1.224 2.57-1.45 2.657-1.09 2.656-2.13 2.399-1.542 2.656-1.677 2.57-1.769 2.657-1.496 2.57-.998" clip-path="url(#pe3fe5a3bd7)" style="fill:none;stroke:#e377c2;stroke-width:1.5;stroke-linecap:square" id="line2d_25"/><path d="m356.06 280.087 2.656-.136 2.57-.046h2.656l2.657-.181 2.57-.136 2.656-3.31 2.57-2.403 2.657-2.902 2.656-2.675 2.485-2.585 2.656-3.446 2.57-3.128 2.656-2.267 2.57-2.404 2.657-2.947 2.656-1.813 2.57-2.993 2.657-2.766 2.57-2.992 2.656-2.358 2.656-2.857 2.4-2.176 2.655-3.174 2.57-2.902 2.657-1.995 2.57-2.086 2.657-2.13 2.656-1.905 2.57-2.403 2.656-1.814 2.57-1.995 2.657-2.63 2.656-2.63 2.399-1.45 2.656-2.268 2.57-2.04 2.657-1.587 2.57-1.451" clip-path="url(#pe3fe5a3bd7)" style="fill:none;stroke:#8c564b;stroke-width:1.5;stroke-linecap:square" id="line2d_26"/><path d="m290.942 280.087 2.57-.227 2.656-.272 2.57-.272 2.657-.227 2.656-.725 2.57-.318 2.657-.272 2.57-.362 2.656-.318 2.656-.136 2.4-.317 2.656-.5 2.57-.362 2.656-.59 2.57-.498 2.657-.862 2.656-.544 2.57-.59 2.656-.362 2.57-.272 2.657-.544 2.656-.59 2.4-.317 2.655-.544 2.57-.861 2.657-.862 2.57-1.27 2.656-1.042 2.657-1.089 2.57-1.133 2.656-1.315 2.57-1.496 2.657-1.27 2.656-.816 2.485-1.27 2.656-1.587 2.57-1.95 2.656-1.405 2.57-2.13 2.657-1.407 2.656-1.677 2.57-1.769 2.657-1.904 2.57-1.678 2.656-2.539 2.656-1.723 2.4-2.493 2.655-3.038 2.57-2.449 2.657-1.814 2.57-1.95 2.657-1.994 2.656-2.993 2.57-2.312 2.656-2.313 2.57-1.723 2.657-2.403 2.656-2.222 2.399-1.768 2.656-2.403 2.57-2.177 2.657-2.357 2.57-2.72" clip-path="url(#pe3fe5a3bd7)" style="fill:none;stroke:#9467bd;stroke-width:1.5;stroke-linecap:square" id="line2d_27"/><path d="m217.941 280.087 2.657-.227 2.656-.317 2.399-.5 2.656-.317 2.57-.045 2.656-.59 2.57-.589 2.657-.181 2.656-.272 2.57-.227 2.657-.635 2.57-.498 2.656-.318 2.656-.453 2.485-.952 2.656-.726 2.57-.725 2.657-.5 2.57-.906 2.656-.635 2.656-.635 2.57-.68 2.657-.725 2.57-.907 2.657-1.179 2.656-1.224 2.399-.998 2.656-1.043 2.57-.408 2.656-1.632 2.57-1.496 2.657-1.27 2.656-.816 2.57-1.088 2.657-1.315 2.57-.998 2.656-.816 2.656-1.043 2.4-1.587 2.656-.861 2.57-.77 2.656-1.996 2.57-.725 2.657-.545 2.656-.952 2.57-1.133 2.656-.771 2.57-1.043 2.657-1.179 2.656-3.038 2.4-1.587 2.655-1.632 2.57-5.396 2.657-1.813 2.57-1.723 2.656-1.814 2.657-2.04 2.57-1.451 2.656-1.769 2.57-1.224 2.657-.997 2.656-.862 2.485-1.814 2.656-1.723 2.57-.861 2.656-1.27 2.57-.725 2.657-.907 2.656-1.043 2.57-.907 2.657-.861 2.57-1.36 2.656-1.225 2.656-1.45 2.4-.545 2.655-1.405 2.57-1.27 2.657-.544 2.57-.726 2.657-1.36 2.656-1.405 2.57-.68 2.656-.635 2.57-.726 2.657-.816 2.656-.907 2.399-.725 2.656-.862 2.57-.68 2.657-.544 2.57-.453" clip-path="url(#pe3fe5a3bd7)" style="fill:none;stroke:#d62728;stroke-width:1.5;stroke-linecap:square" id="line2d_28"/><path d="m131.832 280.087 2.656-.046H246.645l2.57-3.672 2.656-1.18 2.656-1.586 2.485-1.451 2.656-1.179 2.57-2.449 2.657-1.27 2.57-1.36 2.656-.952 2.656-1.314 2.57-1.587 2.657-1.814 2.57-1.723 2.657-1.814 2.656-1.541 2.399-1.587 2.656-1.542 2.57-1.678 2.656-1.813 2.57-1.18 2.657-1.042 2.656-1.179 2.57-.907 2.657-.861 2.57-1.406 2.656-1.224 2.656-1.451 2.4-1.134 2.656-1.813 2.57-1.36 2.656-1.134 2.57-1.088 2.657-.771 2.656-1.179 2.57-1.496 2.656-1.633 2.57-2.176 2.657-1.95 2.656-1.859 2.4-2.13 2.655-2.313 2.57-2.222 2.657-2.131 2.57-2.04 2.656-2.086 2.657-1.315 2.57-1.542 2.656-2.267 2.57-2.176 2.657-1.587 2.656-1.587 2.485-1.995 2.656-2.177 2.57-3.491 2.656-3.038 2.57-3.174 2.657-3.22 2.656-2.538 2.57-2.585 2.657-2.856 2.57-2.902 2.656-3.628 2.656-3.264 2.4-3.31 2.655-3.355 2.57-3.401 2.657-17.82 2.57-6.03 2.657-4.58 2.656-3.854 2.57-5.214 2.656-2.992 2.57-4.535 2.657-3.219 2.656-4.262 2.399-3.22 2.656-3.173 2.57-3.9 2.657-3.763 2.57-3.9" clip-path="url(#pe3fe5a3bd7)" style="fill:none;stroke:#2ca02c;stroke-width:1.5;stroke-linecap:square" id="line2d_29"/><path d="m105.699 280.087 2.656-1.134 7.883-.045 5.226-.09 5.227-.137 7.797-.408 7.797-.045 5.312-.091 18.164-.272 2.57-.363 7.884-.635 2.656-.226 2.57-.046 2.656-.272 2.57-.408 2.657-.136 2.656-.363 5.055-1.133 10.453-2.358 13.11-2.494 5.055-1.224 2.656-2.358 2.57-1.995 2.656-2.403 2.57-1.814 2.657-2.04 5.227-3.446 5.226-4.443 2.656-1.995 2.656-2.54 2.485-2.13 2.656-3.447 2.57-1.723 2.657-1.27 2.57-1.496 2.656-1.904 5.227-2.72 5.226-3.31 2.657-2.222 2.656-1.542 2.399-1.813 5.226-3.582 5.227-2.857 5.312-2.63 2.57-1.904 2.657-1.451 2.57-.726 2.656-1.587 5.055-3.899 2.657-2.494 2.57-1.36 2.656-1.814 2.57-1.904 2.657-1.632 2.656-1.769 2.57-1.496 2.656-1.904 2.57-2.993 2.657-2.176 2.656-1.814 2.4-1.496 5.226-4.852 2.656-2.04 5.226-4.262 5.227-3.99 2.656-2.948 2.57-2.312 2.657-1.451 2.656-1.95 2.485-2.312 2.656-2.766 5.226-6.076 2.57-2.312 2.657-2.04 5.226-4.535 2.657-3.038 2.57-2.222 2.656-2.584 5.055-5.85 2.656-2.493 2.57-2.947 2.657-2.177 2.57-2.72 2.657-2.403 7.882-6.711 2.57-2.494 2.657-2.267 2.656-3.582 2.399-3.673 2.656-3.174 2.57-4.398 5.227-6.756h0" clip-path="url(#pe3fe5a3bd7)" style="fill:none;stroke:#ff7f0e;stroke-width:1.5;stroke-linecap:square" id="line2d_30"/><path d="m337.895 280.087 2.656-.046 2.57-.226 2.657-100.886 2.656-9.16 2.4-5.078 2.655-5.486 2.57-4.76 2.657-23.76 2.57-5.396 2.656-4.489 2.657-3.264 2.57-3.356 2.656-3.944 2.57-3.084 2.657-2.765 2.656-1.814 2.485-6.484 2.656-2.993 2.57-4.171 2.656-3.355 2.57-2.857 2.657-3.673 2.656-2.856 2.57-3.083 2.657-2.222 2.57-2.857 2.656-2.63 2.656-2.584 2.4-3.355 2.655-2.358 2.57-2.947 2.657-3.492 2.57-2.856 2.657-3.4 2.656-2.993 2.57-2.72 2.656-2.313 2.57-3.401 2.657-2.176 2.656-2.902 2.399-2.54 2.656-3.627 2.57-2.856 2.657-2.358 2.57-2.54" clip-path="url(#pe3fe5a3bd7)" style="fill:none;stroke:#1f77b4;stroke-width:1.5;stroke-linecap:square" id="line2d_31"/></g></g><defs><clipPath id="pe3fe5a3bd7"><path d="M98.073 13.975h357.12v266.112H98.073z"/></clipPath></defs></svg>