<svg xmlns="http://www.w3.org/2000/svg" xmlns:xlink="http://www.w3.org/1999/xlink" width="886.21" height="453.461" viewBox="0 0 664.657 340.095"><defs><style>*{stroke-linejoin:round;stroke-linecap:butt}</style></defs><g id="figure_1"><path id="patch_1" d="M0 340.095h664.657V0H0v340.095z" style="fill:none"/><g id="axes_1"><path id="patch_2" d="M98.073 294.193h357.12V28.081H98.073v266.112z" style="fill:none"/><g id="matplotlib.axis_1"><g id="xtick_1"><g id="line2d_1"><defs><path id="m743b3dfd74" d="M0 0v3.5" style="stroke:#b0b0b0;stroke-width:.4"/></defs><use xlink:href="#m743b3dfd74" x="131.493" y="294.193" style="fill:#b0b0b0;stroke:#b0b0b0;stroke-width:.4"/></g><g id="text_1" style="fill:#b0b0b0" transform="matrix(.14 0 0 -.14 113.678 311.831)"><defs><path id="DejaVuSans-32" d="M1228 531h2203V0H469v531q359 372 979 998 621 627 780 809 303 340 423 576 121 236 121 464 0 372-261 606-261 235-680 235-297 0-627-103-329-103-704-313v638q381 153 712 231 332 78 607 78 725 0 1156-363 431-362 431-968 0-288-108-546-107-257-392-607-78-91-497-524-418-433-1181-1211z" transform="scale(.01563)"/><path id="DejaVuSans-30" d="M2034 4250q-487 0-733-480-245-479-245-1442 0-959 245-1439 246-480 733-480 491 0 736 480 246 480 246 1439 0 963-246 1442-245 480-736 480zm0 500q785 0 1199-621 414-620 414-1801 0-1178-414-1799Q2819-91 2034-91q-784 0-1198 620-414 621-414 1799 0 1181 414 1801 414 621 1198 621z" transform="scale(.01563)"/><path id="DejaVuSans-31" d="M794 531h1031v3560L703 3866v575l1116 225h631V531h1031V0H794v531z" transform="scale(.01563)"/></defs><use xlink:href="#DejaVuSans-32"/><use xlink:href="#DejaVuSans-30" x="63.623"/><use xlink:href="#DejaVuSans-31" x="127.246"/><use xlink:href="#DejaVuSans-30" x="190.869"/></g></g><g id="xtick_2"><use xlink:href="#m743b3dfd74" id="line2d_2" x="181.589" y="294.193" style="fill:#b0b0b0;stroke:#b0b0b0;stroke-width:.4"/><g id="text_2" style="fill:#b0b0b0" transform="matrix(.14 0 0 -.14 163.774 311.831)"><use xlink:href="#DejaVuSans-32"/><use xlink:href="#DejaVuSans-30" x="63.623"/><use xlink:href="#DejaVuSans-31" x="127.246"/><use xlink:href="#DejaVuSans-32" x="190.869"/></g></g><g id="xtick_3"><use xlink:href="#m743b3dfd74" id="line2d_3" x="231.753" y="294.193" style="fill:#b0b0b0;stroke:#b0b0b0;stroke-width:.4"/><g id="text_3" style="fill:#b0b0b0" transform="matrix(.14 0 0 -.14 213.938 311.831)"><defs><path id="DejaVuSans-34" d="M2419 4116 825 1625h1594v2491zm-166 550h794V1625h666v-525h-666V0h-628v1100H313v609l1940 2957z" transform="scale(.01563)"/></defs><use xlink:href="#DejaVuSans-32"/><use xlink:href="#DejaVuSans-30" x="63.623"/><use xlink:href="#DejaVuSans-31" x="127.246"/><use xlink:href="#DejaVuSans-34" x="190.869"/></g></g><g id="xtick_4"><use xlink:href="#m743b3dfd74" id="line2d_4" x="281.849" y="294.193" style="fill:#b0b0b0;stroke:#b0b0b0;stroke-width:.4"/><g id="text_4" style="fill:#b0b0b0" transform="matrix(.14 0 0 -.14 264.034 311.831)"><defs><path id="DejaVuSans-36" d="M2113 2584q-425 0-674-291-248-290-248-796 0-503 248-796 249-292 674-292t673 292q248 293 248 796 0 506-248 796-248 291-673 291zm1253 1979v-575q-238 112-480 171-242 60-480 60-625 0-955-422-329-422-376-1275 184 272 462 417 279 145 613 145 703 0 1111-427 408-426 408-1160 0-719-425-1154Q2819-91 2113-91q-810 0-1238 620-428 621-428 1799 0 1106 525 1764t1409 658q238 0 480-47t505-140z" transform="scale(.01563)"/></defs><use xlink:href="#DejaVuSans-32"/><use xlink:href="#DejaVuSans-30" x="63.623"/><use xlink:href="#DejaVuSans-31" x="127.246"/><use xlink:href="#DejaVuSans-36" x="190.869"/></g></g><g id="xtick_5"><use xlink:href="#m743b3dfd74" id="line2d_5" x="332.013" y="294.193" style="fill:#b0b0b0;stroke:#b0b0b0;stroke-width:.4"/><g id="text_5" style="fill:#b0b0b0" transform="matrix(.14 0 0 -.14 314.198 311.831)"><defs><path id="DejaVuSans-38" d="M2034 2216q-450 0-708-241-257-241-257-662 0-422 257-663 258-241 708-241t709 242q260 243 260 662 0 421-258 662-257 241-711 241zm-631 268q-406 100-633 378-226 279-226 679 0 559 398 884 399 325 1092 325 697 0 1094-325t397-884q0-400-227-679-226-278-629-378 456-106 710-416 255-309 255-755 0-679-414-1042Q2806-91 2034-91q-771 0-1186 362-414 363-414 1042 0 446 256 755 257 310 713 416zm-231 997q0-362 226-565 227-203 636-203 407 0 636 203 230 203 230 565 0 363-230 566-229 203-636 203-409 0-636-203-226-203-226-566z" transform="scale(.01563)"/></defs><use xlink:href="#DejaVuSans-32"/><use xlink:href="#DejaVuSans-30" x="63.623"/><use xlink:href="#DejaVuSans-31" x="127.246"/><use xlink:href="#DejaVuSans-38" x="190.869"/></g></g><g id="xtick_6"><use xlink:href="#m743b3dfd74" id="line2d_6" x="382.108" y="294.193" style="fill:#b0b0b0;stroke:#b0b0b0;stroke-width:.4"/><g id="text_6" style="fill:#b0b0b0" transform="matrix(.14 0 0 -.14 364.293 311.831)"><use xlink:href="#DejaVuSans-32"/><use xlink:href="#DejaVuSans-30" x="63.623"/><use xlink:href="#DejaVuSans-32" x="127.246"/><use xlink:href="#DejaVuSans-30" x="190.869"/></g></g><g id="xtick_7"><use xlink:href="#m743b3dfd74" id="line2d_7" x="432.273" y="294.193" style="fill:#b0b0b0;stroke:#b0b0b0;stroke-width:.4"/><g id="text_7" style="fill:#b0b0b0" transform="matrix(.14 0 0 -.14 414.458 311.831)"><use xlink:href="#DejaVuSans-32"/><use xlink:href="#DejaVuSans-30" x="63.623"/><use xlink:href="#DejaVuSans-32" x="127.246"/><use xlink:href="#DejaVuSans-32" x="190.869"/></g></g></g><g id="matplotlib.axis_2"><g id="ytick_1"><path id="line2d_8" d="M98.073 294.193h357.12" clip-path="url(#paa30e9993b)" style="fill:none;stroke:#b0b0b0;stroke-width:.3;stroke-linecap:square"/><g id="line2d_9"><defs><path id="m7995f4bba3" d="M0 0h-3.5" style="stroke:#b0b0b0;stroke-width:.3"/></defs><use xlink:href="#m7995f4bba3" x="98.073" y="294.193" style="fill:#b0b0b0;stroke:#b0b0b0;stroke-width:.3"/></g><use xlink:href="#DejaVuSans-30" id="text_8" style="fill:#b0b0b0" transform="matrix(.14 0 0 -.14 82.166 299.512)"/></g><g id="ytick_2"><path id="line2d_10" d="M98.073 243.572h357.12" clip-path="url(#paa30e9993b)" style="fill:none;stroke:#b0b0b0;stroke-width:.3;stroke-linecap:square"/><use xlink:href="#m7995f4bba3" id="line2d_11" x="98.073" y="243.572" style="fill:#b0b0b0;stroke:#b0b0b0;stroke-width:.3"/><g id="text_9" style="fill:#b0b0b0" transform="matrix(.14 0 0 -.14 46.536 248.89)"><use xlink:href="#DejaVuSans-32"/><use xlink:href="#DejaVuSans-30" x="63.623"/><use xlink:href="#DejaVuSans-30" x="127.246"/><use xlink:href="#DejaVuSans-30" x="190.869"/><use xlink:href="#DejaVuSans-30" x="254.492"/></g></g><g id="ytick_3"><path id="line2d_12" d="M98.073 192.95h357.12" clip-path="url(#paa30e9993b)" style="fill:none;stroke:#b0b0b0;stroke-width:.3;stroke-linecap:square"/><use xlink:href="#m7995f4bba3" id="line2d_13" x="98.073" y="192.95" style="fill:#b0b0b0;stroke:#b0b0b0;stroke-width:.3"/><g id="text_10" style="fill:#b0b0b0" transform="matrix(.14 0 0 -.14 46.536 198.27)"><use xlink:href="#DejaVuSans-34"/><use xlink:href="#DejaVuSans-30" x="63.623"/><use xlink:href="#DejaVuSans-30" x="127.246"/><use xlink:href="#DejaVuSans-30" x="190.869"/><use xlink:href="#DejaVuSans-30" x="254.492"/></g></g><g id="ytick_4"><path id="line2d_14" d="M98.073 142.329h357.12" clip-path="url(#paa30e9993b)" style="fill:none;stroke:#b0b0b0;stroke-width:.3;stroke-linecap:square"/><use xlink:href="#m7995f4bba3" id="line2d_15" x="98.073" y="142.329" style="fill:#b0b0b0;stroke:#b0b0b0;stroke-width:.3"/><g id="text_11" style="fill:#b0b0b0" transform="matrix(.14 0 0 -.14 46.536 147.648)"><use xlink:href="#DejaVuSans-36"/><use xlink:href="#DejaVuSans-30" x="63.623"/><use xlink:href="#DejaVuSans-30" x="127.246"/><use xlink:href="#DejaVuSans-30" x="190.869"/><use xlink:href="#DejaVuSans-30" x="254.492"/></g></g><g id="ytick_5"><path id="line2d_16" d="M98.073 91.707h357.12" clip-path="url(#paa30e9993b)" style="fill:none;stroke:#b0b0b0;stroke-width:.3;stroke-linecap:square"/><use xlink:href="#m7995f4bba3" id="line2d_17" x="98.073" y="91.707" style="fill:#b0b0b0;stroke:#b0b0b0;stroke-width:.3"/><g id="text_12" style="fill:#b0b0b0" transform="matrix(.14 0 0 -.14 46.536 97.026)"><use xlink:href="#DejaVuSans-38"/><use xlink:href="#DejaVuSans-30" x="63.623"/><use xlink:href="#DejaVuSans-30" x="127.246"/><use xlink:href="#DejaVuSans-30" x="190.869"/><use xlink:href="#DejaVuSans-30" x="254.492"/></g></g><g id="ytick_6"><path id="line2d_18" d="M98.073 41.086h357.12" clip-path="url(#paa30e9993b)" style="fill:none;stroke:#b0b0b0;stroke-width:.3;stroke-linecap:square"/><use xlink:href="#m7995f4bba3" id="line2d_19" x="98.073" y="41.086" style="fill:#b0b0b0;stroke:#b0b0b0;stroke-width:.3"/><g id="text_13" style="fill:#b0b0b0" transform="matrix(.14 0 0 -.14 37.628 46.405)"><use xlink:href="#DejaVuSans-31"/><use xlink:href="#DejaVuSans-30" x="63.623"/><use xlink:href="#DejaVuSans-30" x="127.246"/><use xlink:href="#DejaVuSans-30" x="190.869"/><use xlink:href="#DejaVuSans-30" x="254.492"/><use xlink:href="#DejaVuSans-30" x="318.115"/></g></g><g id="text_14" style="fill:#b0b0b0" transform="matrix(.14 0 0 -.14 7.2 11.563)"><defs><path id="DejaVuSans-47" d="M3809 666v1253H2778v519h1656V434q-365-259-806-392-440-133-940-133-1094 0-1712 639-617 640-617 1780 0 1144 617 1783 618 639 1712 639 456 0 867-113 411-112 758-331v-672q-350 297-744 447t-828 150q-857 0-1287-478-429-478-429-1425 0-944 429-1422 430-478 1287-478 334 0 596 58 263 58 472 180z" transform="scale(.01563)"/><path id="DejaVuSans-69" d="M603 3500h575V0H603v3500zm0 1363h575v-729H603v729z" transform="scale(.01563)"/><path id="DejaVuSans-74" d="M1172 4494v-994h1184v-447H1172V1153q0-428 117-550t477-122h590V0h-590q-666 0-919 248-253 249-253 905v1900H172v447h422v994h578z" transform="scale(.01563)"/><path id="DejaVuSans-48" d="M628 4666h631V2753h2294v1913h631V0h-631v2222H1259V0H628v4666z" transform="scale(.01563)"/><path id="DejaVuSans-75" d="M544 1381v2119h575V1403q0-497 193-746 194-248 582-248 465 0 735 297 271 297 271 810v1984h575V0h-575v538q-209-319-486-474-276-155-642-155-603 0-916 375-312 375-312 1097zm1447 2203z" transform="scale(.01563)"/><path id="DejaVuSans-62" d="M3116 1747q0 634-261 995t-717 361q-457 0-718-361t-261-995q0-634 261-995t718-361q456 0 717 361t261 995zM1159 2969q182 312 458 463 277 152 661 152 638 0 1036-506 399-506 399-1331T3314 415Q2916-91 2278-91q-384 0-661 152-276 152-458 464V0H581v4863h578V2969z" transform="scale(.01563)"/><path id="DejaVuSans-73" d="M2834 3397v-544q-243 125-506 187-262 63-544 63-428 0-642-131t-214-394q0-200 153-314t616-217l197-44q612-131 870-370t258-667q0-488-386-773Q2250-91 1575-91q-281 0-586 55T347 128v594q319-166 628-249 309-82 613-82 406 0 624 139 219 139 219 392 0 234-158 359-157 125-692 241l-200 47q-534 112-772 345-237 233-237 639 0 494 350 762 350 269 994 269 318 0 599-47 282-46 519-140z" transform="scale(.01563)"/><path id="DejaVuSans-61" d="M2194 1759q-697 0-966-159t-269-544q0-306 202-486 202-179 548-179 479 0 768 339t289 901v128h-572zm1147 238V0h-575v531q-197-318-491-470T1556-91q-537 0-855 302-317 302-317 808 0 590 395 890 396 300 1180 300h807v57q0 397-261 614t-733 217q-300 0-585-72-284-72-546-216v532q315 122 612 182 297 61 578 61 760 0 1135-394 375-393 375-1193z" transform="scale(.01563)"/><path id="DejaVuSans-72" d="M2631 2963q-97 56-211 82-114 27-251 27-488 0-749-317t-261-911V0H581v3500h578v-544q182 319 472 473 291 155 707 155 59 0 131-8 72-7 159-23l3-590z" transform="scale(.01563)"/></defs><use xlink:href="#DejaVuSans-47"/><use xlink:href="#DejaVuSans-69" x="77.49"/><use xlink:href="#DejaVuSans-74" x="105.273"/><use xlink:href="#DejaVuSans-48" x="144.482"/><use xlink:href="#DejaVuSans-75" x="219.678"/><use xlink:href="#DejaVuSans-62" x="283.057"/><use xlink:href="#DejaVuSans-20" x="346.533"/><use xlink:href="#DejaVuSans-73" x="378.32"/><use xlink:href="#DejaVuSans-74" x="430.42"/><use xlink:href="#DejaVuSans-61" x="469.629"/><use xlink:href="#DejaVuSans-72" x="530.908"/><use xlink:href="#DejaVuSans-73" x="572.021"/></g></g><path id="line2d_20" d="m283.976 294.193 1.99-.005 2.127-1.83 2.06-.083 2.126-.605 2.06-.122 2.127-.09 2.127-.226 2.059-.182 2.127-.114 2.059-.228 2.127-.109 2.127-.15 1.922-.171 2.127-.175 2.059-.276 2.127-.253 2.059-.208 2.127-.235 2.128-.382 2.058-.289 2.128-.321 2.058-.344 2.128-.21 2.127-.261 1.922-.324 2.127-.818 2.059-.412 2.127-.491 2.059-.41 2.127-.33 2.127-.556 2.06-.489 2.127-.488 2.058-.385 2.128-.273 2.127-.408 1.921-.38 2.128-.43 2.059-.498 2.127-.428 2.059-.253 2.127-.35 2.127-.27 2.059-.352 2.127-.66 2.06-.325 2.126-.336 2.128-.291 1.99-.208 2.127-.276 2.059-.205 2.127-.225 2.059-.225 2.127-.25 2.128-.196 2.058-.154 2.128-.134 2.059-.155 2.127-.182 2.127-.182 1.922-.195 2.127-.13 2.059-.154 2.127-.129 2.059-.134 2.127-.121 2.128-.11 2.058-.1 2.128-.124 2.058-.094 2.128-.089 2.127-.068 1.921-.096 2.128-.12 2.059-.075 2.127-.091 2.059-.071 2.127-.086 2.127-.068 2.06-.076 2.126-.081 2.06-.036" clip-path="url(#paa30e9993b)" style="fill:none;stroke:#c5b0d5;stroke-width:1.5;stroke-linecap:square"/><path id="line2d_21" d="m227.567 294.193 2.059-.217 2.127-.013 2.127-.03 1.922-.097 2.127-.17 2.059-.242 2.127-1.296 2.059-.27 2.127-.257 2.128-2.963 2.058-1.527 2.128-.346 2.058-.388 2.128-.38 2.127-.392 1.922-.39 2.127-.394 2.059-.322 2.127-.309 2.059-.377 2.127-.296 2.127-.286 2.06-.334 2.126-.306 2.06-.32 2.127-.295 2.127-.253 1.99-.271 2.127-.279 2.06-.265 2.126-.253 2.06-.388 2.127-.276 2.127-.27 2.059-.261 2.127-.266 2.059-.218 2.127-.174 2.127-.152 1.922-.243 2.127-.21 2.059-.203 2.127-.205 2.059-.397 2.127-.24 2.128-.236 2.058-.192 2.128-.213 2.058-.223 2.128-.19 2.127-.156 1.922-.172 2.127-.193 2.059-.2 2.127-.19 2.059-.197 2.127-.147 2.127-.174 2.06-.198 2.127-.16 2.058-.156 2.128-.114 2.127-.134 1.921-.14 2.128-.113 2.059-.122 2.127-.154 2.059-.117 2.127-.104 2.127-.086 2.059-.096 2.127-.076 2.06-.126 2.126-.091 2.128-.117 1.99-.088 2.127-.094 2.059-.104 2.127-.116 2.059-.086 2.127-.079 2.128-.088 2.058-.069 2.128-.038 2.059-.078 2.127-.091 2.127-.091 1.922-.069 2.127-.07 2.059-.087 2.127-.05 2.059-.053 2.127-.046 2.128-.06 2.058-.059 2.128-.035 2.058-.066 2.128-.043 2.127-.03 1.921-.028 2.128-.043 2.059-.033 2.127-.033 2.059-.013 2.127-.033 2.127-.025 2.06-.033 2.126-.048 2.06-.025" clip-path="url(#paa30e9993b)" style="fill:none;stroke:#ff9896;stroke-width:1.5;stroke-linecap:square"/><path id="line2d_22" d="m185.706 294.193 2.127-.228 16.745-.068 10.362-.109 8.44-.195 22.921-.43 4.186-.225 14.549-.61 20.93-.914 6.313-.309 6.314-.319 2.059-.71 12.49-.932 27.106-2.473 16.813-1.815 4.048-.488 8.373-1.147 2.127-.666 8.372-1.19 4.255-.604 4.117-.458 12.558-1.608 4.187-.48 4.254-.613 4.049-.516 2.059-.453 8.44-1.271 4.187-.544 2.058-1.06 10.363-1.517 10.5-1.984 4.185-.78h0" clip-path="url(#paa30e9993b)" style="fill:none;stroke:#98df8a;stroke-width:1.5;stroke-linecap:square"/><g id="text_15" style="fill:#1f77b4" transform="matrix(.14 0 0 -.14 465.907 31.944)"><defs><path id="DejaVuSans-64" d="M2906 2969v1894h575V0h-575v525q-181-312-458-464-276-152-664-152-634 0-1033 506-398 507-398 1332t398 1331q399 506 1033 506 388 0 664-152 277-151 458-463zM947 1747q0-634 261-995t717-361q456 0 718 361 263 361 263 995t-263 995q-262 361-718 361t-717-361q-261-361-261-995z" transform="scale(.01563)"/><path id="DejaVuSans-33" d="M2597 2516q453-97 707-404 255-306 255-756 0-690-475-1069Q2609-91 1734-91q-293 0-604 58T488 141v609q262-153 574-231 313-78 654-78 593 0 904 234t311 681q0 413-289 645-289 233-804 233h-544v519h569q465 0 712 186t247 536q0 359-255 551-254 193-729 193-260 0-557-57-297-56-653-174v562q360 100 674 150t592 50q719 0 1137-327 419-326 419-882 0-388-222-655t-631-370z" transform="scale(.01563)"/><path id="DejaVuSans-2f" d="M1625 4666h531L531-594H0l1625 5260z" transform="scale(.01563)"/></defs><use xlink:href="#DejaVuSans-64"/><use xlink:href="#DejaVuSans-33" x="63.477"/><use xlink:href="#DejaVuSans-2f" x="127.1"/><use xlink:href="#DejaVuSans-64" x="160.791"/><use xlink:href="#DejaVuSans-33" x="224.268"/></g><g id="text_16" style="fill:#ff7f0e" transform="matrix(.14 0 0 -.14 465.907 72.67)"><defs><path id="DejaVuSans-6d" d="M3328 2828q216 388 516 572t706 184q547 0 844-383 297-382 297-1088V0h-578v2094q0 503-179 746-178 244-543 244-447 0-707-297-259-296-259-809V0h-578v2094q0 506-178 748t-550 242q-441 0-701-298-259-298-259-808V0H581v3500h578v-544q197 322 472 475t653 153q382 0 649-194 267-193 395-562z" transform="scale(.01563)"/><path id="DejaVuSans-6f" d="M1959 3097q-462 0-731-361t-269-989q0-628 267-989 268-361 733-361 460 0 728 362 269 363 269 988 0 622-269 986-268 364-728 364zm0 487q750 0 1178-488 429-487 429-1349 0-859-429-1349Q2709-91 1959-91q-753 0-1180 489-426 490-426 1349 0 862 426 1349 427 488 1180 488z" transform="scale(.01563)"/><path id="DejaVuSans-68" d="M3513 2113V0h-575v2094q0 497-194 743-194 247-581 247-466 0-735-297-269-296-269-809V0H581v4863h578V2956q207 316 486 472 280 156 646 156 603 0 912-373 310-373 310-1098z" transform="scale(.01563)"/><path id="DejaVuSans-65" d="M3597 1894v-281H953q38-594 358-905t892-311q331 0 642 81t618 244V178Q3153 47 2828-22t-659-69q-838 0-1327 487-489 488-489 1320 0 859 464 1363 464 505 1252 505 706 0 1117-455 411-454 411-1235zm-575 169q-6 471-264 752-258 282-683 282-481 0-770-272t-333-766l2050 4z" transform="scale(.01563)"/><path id="DejaVuSans-2e" d="M684 794h660V0H684v794z" transform="scale(.01563)"/><path id="DejaVuSans-6a" d="M603 3500h575V-63q0-668-255-968-254-300-820-300h-219v487H38q328 0 446 152Q603-541 603-63v3563zm0 1363h575v-729H603v729z" transform="scale(.01563)"/></defs><use xlink:href="#DejaVuSans-6d"/><use xlink:href="#DejaVuSans-72" x="97.412"/><use xlink:href="#DejaVuSans-64" x="136.775"/><use xlink:href="#DejaVuSans-6f" x="200.252"/><use xlink:href="#DejaVuSans-6f" x="261.434"/><use xlink:href="#DejaVuSans-62" x="322.615"/><use xlink:href="#DejaVuSans-2f" x="386.092"/><use xlink:href="#DejaVuSans-74" x="419.783"/><use xlink:href="#DejaVuSans-68" x="458.992"/><use xlink:href="#DejaVuSans-72" x="522.371"/><use xlink:href="#DejaVuSans-65" x="561.234"/><use xlink:href="#DejaVuSans-65" x="622.758"/><use xlink:href="#DejaVuSans-2e" x="684.281"/><use xlink:href="#DejaVuSans-6a" x="716.068"/><use xlink:href="#DejaVuSans-73" x="743.852"/></g><g id="text_17" style="fill:#2ca02c" transform="matrix(.14 0 0 -.14 465.907 143.122)"><defs><path id="DejaVuSans-63" d="M3122 3366v-538q-244 135-489 202t-495 67q-560 0-870-355-309-354-309-995t309-996q310-354 870-354 250 0 495 67t489 202V134Q2881 22 2623-34q-257-57-548-57-791 0-1257 497-465 497-465 1341 0 856 470 1346 471 491 1290 491 265 0 518-55 253-54 491-163z" transform="scale(.01563)"/><path id="DejaVuSans-43" d="M4122 4306v-665q-319 297-680 443-361 147-767 147-800 0-1225-489t-425-1414q0-922 425-1411t1225-489q406 0 767 147t680 444V359q-331-225-702-338-370-112-782-112-1060 0-1670 648-609 649-609 1771 0 1125 609 1773 610 649 1670 649 418 0 788-111 371-111 696-333z" transform="scale(.01563)"/></defs><use xlink:href="#DejaVuSans-63"/><use xlink:href="#DejaVuSans-68" x="54.98"/><use xlink:href="#DejaVuSans-61" x="118.359"/><use xlink:href="#DejaVuSans-72" x="179.639"/><use xlink:href="#DejaVuSans-74" x="220.752"/><use xlink:href="#DejaVuSans-6a" x="259.961"/><use xlink:href="#DejaVuSans-73" x="287.744"/><use xlink:href="#DejaVuSans-2f" x="339.844"/><use xlink:href="#DejaVuSans-43" x="373.535"/><use xlink:href="#DejaVuSans-68" x="443.359"/><use xlink:href="#DejaVuSans-61" x="506.738"/><use xlink:href="#DejaVuSans-72" x="568.018"/><use xlink:href="#DejaVuSans-74" x="609.131"/><use xlink:href="#DejaVuSans-2e" x="648.34"/><use xlink:href="#DejaVuSans-6a" x="680.127"/><use xlink:href="#DejaVuSans-73" x="707.91"/></g><g id="text_18" style="fill:#d62728" transform="matrix(.14 0 0 -.14 465.907 157.122)"><defs><path id="DejaVuSans-70" d="M1159 525v-1856H581v4831h578v-531q182 312 458 463 277 152 661 152 638 0 1036-506 399-506 399-1331T3314 415Q2916-91 2278-91q-384 0-661 152-276 152-458 464zm1957 1222q0 634-261 995t-717 361q-457 0-718-361t-261-995q0-634 261-995t718-361q456 0 717 361t261 995z" transform="scale(.01563)"/></defs><use xlink:href="#DejaVuSans-61"/><use xlink:href="#DejaVuSans-70" x="61.279"/><use xlink:href="#DejaVuSans-61" x="124.756"/><use xlink:href="#DejaVuSans-63" x="186.035"/><use xlink:href="#DejaVuSans-68" x="241.016"/><use xlink:href="#DejaVuSans-65" x="304.395"/><use xlink:href="#DejaVuSans-2f" x="365.918"/><use xlink:href="#DejaVuSans-65" x="399.609"/><use xlink:href="#DejaVuSans-63" x="461.133"/><use xlink:href="#DejaVuSans-68" x="516.113"/><use xlink:href="#DejaVuSans-61" x="579.492"/><use xlink:href="#DejaVuSans-72" x="640.771"/><use xlink:href="#DejaVuSans-74" x="681.885"/><use xlink:href="#DejaVuSans-73" x="721.094"/></g><g id="text_19" style="fill:#9467bd" transform="matrix(.14 0 0 -.14 465.907 171.122)"><defs><path id="DejaVuSans-2d" d="M313 2009h1684v-512H313v512z" transform="scale(.01563)"/></defs><use xlink:href="#DejaVuSans-6d"/><use xlink:href="#DejaVuSans-65" x="97.412"/><use xlink:href="#DejaVuSans-72" x="158.936"/><use xlink:href="#DejaVuSans-6d" x="198.299"/><use xlink:href="#DejaVuSans-61" x="295.711"/><use xlink:href="#DejaVuSans-69" x="356.99"/><use xlink:href="#DejaVuSans-64" x="384.773"/><use xlink:href="#DejaVuSans-2d" x="448.25"/><use xlink:href="#DejaVuSans-6a" x="484.334"/><use xlink:href="#DejaVuSans-73" x="512.117"/><use xlink:href="#DejaVuSans-2f" x="564.217"/><use xlink:href="#DejaVuSans-6d" x="597.908"/><use xlink:href="#DejaVuSans-65" x="695.32"/><use xlink:href="#DejaVuSans-72" x="756.844"/><use xlink:href="#DejaVuSans-6d" x="796.207"/><use xlink:href="#DejaVuSans-61" x="893.619"/><use xlink:href="#DejaVuSans-69" x="954.898"/><use xlink:href="#DejaVuSans-64" x="982.682"/></g><g id="text_20" style="fill:#8c564b" transform="matrix(.14 0 0 -.14 465.907 203.984)"><use xlink:href="#DejaVuSans-72"/><use xlink:href="#DejaVuSans-65" x="38.863"/><use xlink:href="#DejaVuSans-63" x="100.387"/><use xlink:href="#DejaVuSans-68" x="155.367"/><use xlink:href="#DejaVuSans-61" x="218.746"/><use xlink:href="#DejaVuSans-72" x="280.025"/><use xlink:href="#DejaVuSans-74" x="321.139"/><use xlink:href="#DejaVuSans-73" x="360.348"/><use xlink:href="#DejaVuSans-2f" x="412.447"/><use xlink:href="#DejaVuSans-72" x="446.139"/><use xlink:href="#DejaVuSans-65" x="485.002"/><use xlink:href="#DejaVuSans-63" x="546.525"/><use xlink:href="#DejaVuSans-68" x="601.506"/><use xlink:href="#DejaVuSans-61" x="664.885"/><use xlink:href="#DejaVuSans-72" x="726.164"/><use xlink:href="#DejaVuSans-74" x="767.277"/><use xlink:href="#DejaVuSans-73" x="806.486"/></g><g id="text_21" style="fill:#e377c2" transform="matrix(.14 0 0 -.14 465.907 217.984)"><defs><path id="DejaVuSans-6c" d="M603 4863h575V0H603v4863z" transform="scale(.01563)"/><path id="DejaVuSans-79" d="M2059-325q-243-625-475-815-231-191-618-191H506v481h338q237 0 368 113 132 112 291 531l103 262L191 3500h609L1894 763l1094 2737h609L2059-325z" transform="scale(.01563)"/></defs><use xlink:href="#DejaVuSans-70"/><use xlink:href="#DejaVuSans-6c" x="63.477"/><use xlink:href="#DejaVuSans-6f" x="91.26"/><use xlink:href="#DejaVuSans-74" x="152.441"/><use xlink:href="#DejaVuSans-6c" x="191.65"/><use xlink:href="#DejaVuSans-79" x="219.434"/><use xlink:href="#DejaVuSans-2f" x="278.613"/><use xlink:href="#DejaVuSans-70" x="312.305"/><use xlink:href="#DejaVuSans-6c" x="375.781"/><use xlink:href="#DejaVuSans-6f" x="403.564"/><use xlink:href="#DejaVuSans-74" x="464.746"/><use xlink:href="#DejaVuSans-6c" x="503.955"/><use xlink:href="#DejaVuSans-79" x="531.738"/><use xlink:href="#DejaVuSans-2e" x="576.668"/><use xlink:href="#DejaVuSans-6a" x="608.455"/><use xlink:href="#DejaVuSans-73" x="636.238"/></g><g id="text_22" style="fill:#7f7f7f" transform="matrix(.14 0 0 -.14 465.907 231.984)"><defs><path id="DejaVuSans-66" d="M2375 4863v-479h-550q-309 0-430-125-120-125-120-450v-309h947v-447h-947V0H697v3053H147v447h550v244q0 584 272 851 272 268 862 268h544z" transform="scale(.01563)"/></defs><use xlink:href="#DejaVuSans-66"/><use xlink:href="#DejaVuSans-72" x="35.205"/><use xlink:href="#DejaVuSans-61" x="76.318"/><use xlink:href="#DejaVuSans-70" x="137.598"/><use xlink:href="#DejaVuSans-70" x="201.074"/><use xlink:href="#DejaVuSans-65" x="264.551"/><use xlink:href="#DejaVuSans-2f" x="326.074"/><use xlink:href="#DejaVuSans-63" x="359.766"/><use xlink:href="#DejaVuSans-68" x="414.746"/><use xlink:href="#DejaVuSans-61" x="478.125"/><use xlink:href="#DejaVuSans-72" x="539.404"/><use xlink:href="#DejaVuSans-74" x="580.518"/><use xlink:href="#DejaVuSans-73" x="619.727"/></g><g id="text_23" style="fill:#bcbd22" transform="matrix(.14 0 0 -.14 465.907 245.984)"><defs><path id="DejaVuSans-67" d="M2906 1791q0 625-258 968-257 344-723 344-462 0-720-344-258-343-258-968 0-622 258-966t720-344q466 0 723 344 258 344 258 966zm575-1357q0-893-397-1329-396-436-1215-436-303 0-572 45t-522 139v559q253-137 500-202 247-66 503-66 566 0 847 295t281 892v285q-178-310-456-463T1784 0Q1141 0 747 490 353 981 353 1791q0 812 394 1302 394 491 1037 491 388 0 666-153t456-462v531h575V434z" transform="scale(.01563)"/><path id="DejaVuSans-6e" d="M3513 2113V0h-575v2094q0 497-194 743-194 247-581 247-466 0-735-297-269-296-269-809V0H581v3500h578v-544q207 316 486 472 280 156 646 156 603 0 912-373 310-373 310-1098z" transform="scale(.01563)"/><path id="DejaVuSans-6b" d="M581 4863h578V1991l1716 1509h734L1753 1863 3688 0h-750L1159 1709V0H581v4863z" transform="scale(.01563)"/><path id="DejaVuSans-7a" d="M353 3500h2731v-525L922 459h2162V0H275v525l2163 2516H353v459z" transform="scale(.01563)"/></defs><use xlink:href="#DejaVuSans-67"/><use xlink:href="#DejaVuSans-69" x="63.477"/><use xlink:href="#DejaVuSans-6f" x="91.26"/><use xlink:href="#DejaVuSans-6e" x="152.441"/><use xlink:href="#DejaVuSans-6b" x="215.82"/><use xlink:href="#DejaVuSans-75" x="270.605"/><use xlink:href="#DejaVuSans-6e" x="333.984"/><use xlink:href="#DejaVuSans-7a" x="397.363"/><use xlink:href="#DejaVuSans-2f" x="449.854"/><use xlink:href="#DejaVuSans-63" x="483.545"/><use xlink:href="#DejaVuSans-68" x="538.525"/><use xlink:href="#DejaVuSans-61" x="601.904"/><use xlink:href="#DejaVuSans-72" x="663.184"/><use xlink:href="#DejaVuSans-74" x="704.297"/><use xlink:href="#DejaVuSans-69" x="743.506"/><use xlink:href="#DejaVuSans-73" x="771.289"/><use xlink:href="#DejaVuSans-74" x="823.389"/><use xlink:href="#DejaVuSans-2d" x="862.598"/><use xlink:href="#DejaVuSans-6a" x="898.682"/><use xlink:href="#DejaVuSans-73" x="926.465"/></g><g id="text_24" style="fill:#17becf" transform="matrix(.14 0 0 -.14 465.907 259.984)"><defs><path id="DejaVuSans-44" d="M1259 4147V519h763q966 0 1414 437 448 438 448 1382 0 937-448 1373t-1414 436h-763zm-631 519h1297q1356 0 1990-564 635-564 635-1764 0-1207-638-1773Q3275 0 1925 0H628v4666z" transform="scale(.01563)"/><path id="DejaVuSans-42" d="M1259 2228V519h1013q509 0 754 211 246 211 246 645 0 438-246 645-245 208-754 208H1259zm0 1919V2741h935q462 0 688 173 227 174 227 530 0 353-227 528-226 175-688 175h-935zm-631 519h1613q722 0 1112-300 391-300 391-853 0-429-200-682t-588-315q466-100 724-418 258-317 258-792 0-625-425-966Q3088 0 2303 0H628v4666z" transform="scale(.01563)"/><path id="DejaVuSans-76" d="M191 3500h609L1894 563l1094 2937h609L2284 0h-781L191 3500z" transform="scale(.01563)"/></defs><use xlink:href="#DejaVuSans-44"/><use xlink:href="#DejaVuSans-6d" x="77.002"/><use xlink:href="#DejaVuSans-69" x="174.414"/><use xlink:href="#DejaVuSans-74" x="202.197"/><use xlink:href="#DejaVuSans-72" x="241.406"/><use xlink:href="#DejaVuSans-79" x="282.52"/><use xlink:href="#DejaVuSans-42" x="341.699"/><use xlink:href="#DejaVuSans-61" x="410.303"/><use xlink:href="#DejaVuSans-72" x="471.582"/><use xlink:href="#DejaVuSans-61" x="512.695"/><use xlink:href="#DejaVuSans-6e" x="573.975"/><use xlink:href="#DejaVuSans-6f" x="637.354"/><use xlink:href="#DejaVuSans-76" x="698.535"/><use xlink:href="#DejaVuSans-73" x="757.715"/><use xlink:href="#DejaVuSans-6b" x="809.814"/><use xlink:href="#DejaVuSans-69" x="867.725"/><use xlink:href="#DejaVuSans-79" x="895.508"/><use xlink:href="#DejaVuSans-2f" x="954.688"/><use xlink:href="#DejaVuSans-72" x="988.379"/><use xlink:href="#DejaVuSans-61" x="1029.492"/><use xlink:href="#DejaVuSans-70" x="1090.771"/><use xlink:href="#DejaVuSans-68" x="1154.248"/><use xlink:href="#DejaVuSans-61" x="1217.627"/><use xlink:href="#DejaVuSans-65" x="1278.906"/><use xlink:href="#DejaVuSans-6c" x="1340.43"/></g><g id="text_25" style="fill:#aec7e8" transform="matrix(.14 0 0 -.14 465.907 273.984)"><use xlink:href="#DejaVuSans-68"/><use xlink:href="#DejaVuSans-69" x="63.379"/><use xlink:href="#DejaVuSans-67" x="91.162"/><use xlink:href="#DejaVuSans-68" x="154.639"/><use xlink:href="#DejaVuSans-63" x="218.018"/><use xlink:href="#DejaVuSans-68" x="272.998"/><use xlink:href="#DejaVuSans-61" x="336.377"/><use xlink:href="#DejaVuSans-72" x="397.656"/><use xlink:href="#DejaVuSans-74" x="438.77"/><use xlink:href="#DejaVuSans-73" x="477.979"/><use xlink:href="#DejaVuSans-2f" x="530.078"/><use xlink:href="#DejaVuSans-68" x="563.77"/><use xlink:href="#DejaVuSans-69" x="627.148"/><use xlink:href="#DejaVuSans-67" x="654.932"/><use xlink:href="#DejaVuSans-68" x="718.408"/><use xlink:href="#DejaVuSans-63" x="781.787"/><use xlink:href="#DejaVuSans-68" x="836.768"/><use xlink:href="#DejaVuSans-61" x="900.146"/><use xlink:href="#DejaVuSans-72" x="961.426"/><use xlink:href="#DejaVuSans-74" x="1002.539"/><use xlink:href="#DejaVuSans-73" x="1041.748"/></g><g id="text_26" style="fill:#ffbb78" transform="matrix(.14 0 0 -.14 465.907 287.984)"><defs><path id="DejaVuSans-46" d="M628 4666h2681v-532H1259V2759h1850v-531H1259V0H628v4666z" transform="scale(.01563)"/><path id="DejaVuSans-4c" d="M628 4666h631V531h2272V0H628v4666z" transform="scale(.01563)"/></defs><use xlink:href="#DejaVuSans-46"/><use xlink:href="#DejaVuSans-6f" x="53.895"/><use xlink:href="#DejaVuSans-72" x="115.076"/><use xlink:href="#DejaVuSans-6d" x="154.439"/><use xlink:href="#DejaVuSans-69" x="251.852"/><use xlink:href="#DejaVuSans-64" x="279.635"/><use xlink:href="#DejaVuSans-61" x="343.111"/><use xlink:href="#DejaVuSans-62" x="404.391"/><use xlink:href="#DejaVuSans-6c" x="467.867"/><use xlink:href="#DejaVuSans-65" x="495.65"/><use xlink:href="#DejaVuSans-4c" x="557.174"/><use xlink:href="#DejaVuSans-61" x="612.887"/><use xlink:href="#DejaVuSans-62" x="674.166"/><use xlink:href="#DejaVuSans-73" x="737.643"/><use xlink:href="#DejaVuSans-2f" x="789.742"/><use xlink:href="#DejaVuSans-76" x="823.434"/><use xlink:href="#DejaVuSans-69" x="882.613"/><use xlink:href="#DejaVuSans-63" x="910.396"/><use xlink:href="#DejaVuSans-74" x="965.377"/><use xlink:href="#DejaVuSans-6f" x="1004.586"/><use xlink:href="#DejaVuSans-72" x="1065.768"/><use xlink:href="#DejaVuSans-79" x="1106.881"/></g><g id="text_27" style="fill:#98df8a" transform="matrix(.14 0 0 -.14 465.907 301.984)"><defs><path id="DejaVuSans-53" d="M3425 4513v-616q-359 172-678 256-319 85-616 85-515 0-795-200t-280-569q0-310 186-468 186-157 705-254l381-78q706-135 1042-474t336-907q0-679-455-1029Q2797-91 1919-91q-331 0-705 75-373 75-773 222v650q384-215 753-325 369-109 725-109 540 0 834 212 294 213 294 607 0 343-211 537t-692 291l-385 75q-706 140-1022 440-315 300-315 835 0 619 436 975t1201 356q329 0 669-60 341-59 697-177z" transform="scale(.01563)"/></defs><use xlink:href="#DejaVuSans-43"/><use xlink:href="#DejaVuSans-65" x="69.824"/><use xlink:href="#DejaVuSans-73" x="131.348"/><use xlink:href="#DejaVuSans-69" x="183.447"/><use xlink:href="#DejaVuSans-75" x="211.23"/><use xlink:href="#DejaVuSans-6d" x="274.609"/><use xlink:href="#DejaVuSans-47" x="372.021"/><use xlink:href="#DejaVuSans-53" x="449.512"/><use xlink:href="#DejaVuSans-2f" x="512.988"/><use xlink:href="#DejaVuSans-63" x="546.68"/><use xlink:href="#DejaVuSans-65" x="601.66"/><use xlink:href="#DejaVuSans-73" x="663.184"/><use xlink:href="#DejaVuSans-69" x="715.283"/><use xlink:href="#DejaVuSans-75" x="743.066"/><use xlink:href="#DejaVuSans-6d" x="806.445"/></g><g id="text_28" style="fill:#ff9896" transform="matrix(.14 0 0 -.14 465.907 315.984)"><use xlink:href="#DejaVuSans-63"/><use xlink:href="#DejaVuSans-33" x="54.98"/><use xlink:href="#DejaVuSans-6a" x="118.604"/><use xlink:href="#DejaVuSans-73" x="146.387"/><use xlink:href="#DejaVuSans-2f" x="198.486"/><use xlink:href="#DejaVuSans-63" x="232.178"/><use xlink:href="#DejaVuSans-33" x="287.158"/></g><g id="text_29" style="fill:#c5b0d5" transform="matrix(.14 0 0 -.14 465.907 329.984)"><use xlink:href="#DejaVuSans-75"/><use xlink:href="#DejaVuSans-62" x="63.379"/><use xlink:href="#DejaVuSans-65" x="126.855"/><use xlink:href="#DejaVuSans-72" x="188.379"/><use xlink:href="#DejaVuSans-2f" x="229.492"/><use xlink:href="#DejaVuSans-72" x="263.184"/><use xlink:href="#DejaVuSans-65" x="302.047"/><use xlink:href="#DejaVuSans-61" x="363.57"/><use xlink:href="#DejaVuSans-63" x="424.85"/><use xlink:href="#DejaVuSans-74" x="479.83"/><use xlink:href="#DejaVuSans-2d" x="519.039"/><use xlink:href="#DejaVuSans-76" x="552.498"/><use xlink:href="#DejaVuSans-69" x="611.678"/><use xlink:href="#DejaVuSans-73" x="639.461"/></g><g id="text_30" style="fill:#b0b0b0" transform="matrix(.09716 0 0 -.09716 98.073 328.23)"><defs><path id="DejaVuSans-40" d="M2381 1678q0-447 222-702 222-254 610-254 384 0 604 256 221 256 221 700 0 438-225 695-225 258-607 258-378 0-602-256-223-256-223-697zm1703-934q-187-241-429-355t-564-114q-538 0-874 389t-336 1014q0 625 337 1015 338 391 873 391 322 0 565-117 244-117 428-354v409h447V722q457 69 714 417 258 349 258 902 0 334-99 628-98 294-298 544-325 409-792 626t-1017 217q-384 0-738-102-353-101-653-301-490-319-767-836-276-517-276-1120 0-497 179-932 180-434 521-765 328-325 759-495 431-171 922-171 403 0 792 136t714 389l281-347q-390-303-851-464t-936-161q-578 0-1091 205-512 205-912 595Q841 78 631 592q-209 514-209 1105 0 569 212 1084 213 516 607 907 403 396 931 607t1119 211q662 0 1229-272 568-271 952-771 234-307 357-666 124-359 124-744 0-822-497-1297T4084 263v481z" transform="scale(.01563)"/><path id="DejaVuSans-7c" d="M1344 4891v-6400H813v6400h531z" transform="scale(.01563)"/><path id="DejaVuSans-4e" d="M628 4666h850L3547 763v3903h612V0h-850L1241 3903V0H628v4666z" transform="scale(.01563)"/><path id="DejaVuSans-f6" d="M1959 3097q-462 0-731-361t-269-989q0-628 267-989 268-361 733-361 460 0 728 362 269 363 269 988 0 622-269 986-268 364-728 364zm0 487q750 0 1178-488 429-487 429-1349 0-859-429-1349Q2709-91 1959-91q-753 0-1180 489-426 490-426 1349 0 862 426 1349 427 488 1180 488zm295 1266h634v-631h-634v631zm-1222 0h634v-631h-634v631z" transform="scale(.01563)"/><path id="DejaVuSans-59" d="M-13 4666h679l1293-1919 1285 1919h678L2272 2222V0h-634v2222L-13 4666z" transform="scale(.01563)"/></defs><use xlink:href="#DejaVuSans-40"/><use xlink:href="#DejaVuSans-6e" x="100"/><use xlink:href="#DejaVuSans-73" x="163.379"/><use xlink:href="#DejaVuSans-63" x="215.479"/><use xlink:href="#DejaVuSans-68" x="270.459"/><use xlink:href="#DejaVuSans-6c" x="333.838"/><use xlink:href="#DejaVuSans-6f" x="361.621"/><use xlink:href="#DejaVuSans-65" x="422.803"/><use xlink:href="#DejaVuSans-20" x="484.326"/><use xlink:href="#DejaVuSans-2f" x="516.113"/><use xlink:href="#DejaVuSans-20" x="549.805"/><use xlink:href="#DejaVuSans-67" x="581.592"/><use xlink:href="#DejaVuSans-69" x="645.068"/><use xlink:href="#DejaVuSans-74" x="672.852"/><use xlink:href="#DejaVuSans-68" x="712.061"/><use xlink:href="#DejaVuSans-75" x="775.439"/><use xlink:href="#DejaVuSans-62" x="838.818"/><use xlink:href="#DejaVuSans-2d" x="902.295"/><use xlink:href="#DejaVuSans-74" x="938.379"/><use xlink:href="#DejaVuSans-72" x="977.588"/><use xlink:href="#DejaVuSans-65" x="1016.451"/><use xlink:href="#DejaVuSans-6e" x="1077.975"/><use xlink:href="#DejaVuSans-64" x="1141.354"/><use xlink:href="#DejaVuSans-73" x="1204.83"/><use xlink:href="#DejaVuSans-20" x="1256.93"/><use xlink:href="#DejaVuSans-7c" x="1288.717"/><use xlink:href="#DejaVuSans-20" x="1322.408"/><use xlink:href="#DejaVuSans-4e" x="1354.195"/><use xlink:href="#DejaVuSans-69" x="1429"/><use xlink:href="#DejaVuSans-63" x="1456.783"/><use xlink:href="#DejaVuSans-6f" x="1511.764"/><use xlink:href="#DejaVuSans-20" x="1572.945"/><use xlink:href="#DejaVuSans-53" x="1604.732"/><use xlink:href="#DejaVuSans-63" x="1668.209"/><use xlink:href="#DejaVuSans-68" x="1723.189"/><use xlink:href="#DejaVuSans-6c" x="1786.568"/><use xlink:href="#DejaVuSans-f6" x="1814.352"/><use xlink:href="#DejaVuSans-6d" x="1875.533"/><use xlink:href="#DejaVuSans-65" x="1972.945"/><use xlink:href="#DejaVuSans-72" x="2034.469"/><use xlink:href="#DejaVuSans-20" x="2075.582"/><use xlink:href="#DejaVuSans-7c" x="2107.369"/><use xlink:href="#DejaVuSans-20" x="2141.061"/><use xlink:href="#DejaVuSans-43" x="2172.848"/><use xlink:href="#DejaVuSans-43" x="2242.672"/><use xlink:href="#DejaVuSans-20" x="2312.496"/><use xlink:href="#DejaVuSans-42" x="2344.283"/><use xlink:href="#DejaVuSans-59" x="2407.387"/></g><path id="line2d_23" d="m269.222 294.193 2.127-.002 2.127-.008 2.06-.013 2.126-.022 2.06-.57 2.127-.863 2.127-.36 1.99-.285 2.127-.145 2.06-.167 2.126-.146 2.06-.866 2.127-.137 2.127-.496 2.059-.23 2.127-.284 2.059-.855 2.127-2.886 2.127-.341 1.922-.301 2.127-.702 2.059-.364 2.127-.375 2.059-.37 2.127-.4 2.128-.55 2.058-.436 2.128-.382 2.058-.297 2.128-.21 2.127-.331 1.922-.37 2.127-.374 2.059-.271 2.127-.263 2.059-.276 2.127-.233 2.127-.208 2.06-.253 2.127-.228 2.058-.27 2.128-.271 2.127-.215 1.921-.256 2.128-.24 2.059-.261 2.127-.258 2.059-.215 2.127-.22 2.127-.193 2.059-.17 2.127-.23 2.06-.154 2.126-.167 2.128-.183 1.99-.195 2.127-.197 2.059-.172 2.127-.256 2.059-.253 2.127-.22 2.128-.218 2.058-.164 2.128-.172 2.059-.223 2.127-.21 2.127-.205 1.922-.21 2.127-.21 2.059-.172 2.127-.152 2.059-.208 2.127-.157 2.128-.197 2.058-.152 2.128-.137 2.058-.177 2.128-.17 2.127-.167 1.921-.227 2.128-.253 2.059-.198 2.127-.182 2.059-.155 2.127-.26 2.127-.2 2.06-.19 2.126-.16 2.06-.21" clip-path="url(#paa30e9993b)" style="fill:none;stroke:#ffbb78;stroke-width:1.5;stroke-linecap:square"/><path id="line2d_24" d="m141.855 294.193 2.059-.908 56.478-1.187 8.44-.033 4.05-.276 22.92-1.147 4.186-.385 8.44-1.194 2.06-1.468 6.313-.95 2.127-.354 10.294-1.096 18.871-2.495 4.186-.534 35.548-4.422 4.186-.747 6.176-.914 6.245-.703 29.302-3.354 29.303-2.248 18.734-1.308 4.186-.337 16.676-1.022 4.186-.357 8.372-.456h0" clip-path="url(#paa30e9993b)" style="fill:none;stroke:#aec7e8;stroke-width:1.5;stroke-linecap:square"/><path id="line2d_25" d="m98.073 294.193 2.059-1.24 33.488-3.058 4.05-.48 8.371-.886 10.5-1.228 22.92-2.402 14.617-1.015 6.314-.18 8.44-.131 4.05-.481 31.292-3.549 8.44-.84 6.314-.55 18.734-2.014 10.431-1.017 8.373-.869 29.233-2.657 10.363-.722 14.685-1.075 20.862-1.2 6.313-.36 22.99-1.065 54.281-1.458h0" clip-path="url(#paa30e9993b)" style="fill:none;stroke:#17becf;stroke-width:1.5;stroke-linecap:square"/><path id="line2d_26" d="m235.802 294.193 2.127-.02 2.059-.003h2.127l2.059-.002 2.127-.028 2.128-3.402 2.058-5.877 2.128-.57 2.058-1.247 2.128-1.34 2.127-.586 1.922-.388 2.127-.361 2.059-.367 2.127-.403 2.059-.466 2.127-.354 2.127-.385 2.06-.445 2.126-.408 2.06-.38 2.127-.326 2.127-.44 1.99-.43 2.127-.357 2.06-.327 2.126-.36 2.06-.349 2.127-.303 2.127-.34 2.059-.255 2.127-.296 2.059-.334 2.127-.332 2.127-.334 1.922-.286 2.127-.309 2.059-.293 2.127-.281 2.059-.24 2.127-.287 2.128-.324 2.058-.382 2.128-.25 2.058-.325 2.128-.26 2.127-.274 1.922-.235 2.127-.25 2.059-.234 2.127-.222 2.059-.294 2.127-.23 2.127-.236 2.06-.215 2.127-.217 2.058-.213 2.128-.17 2.127-.215 1.921-.144 2.128-.192 2.059-.165 2.127-.164 2.059-.112 2.127-.147 2.127-.149 2.059-.132 2.127-.167 2.06-.124 2.126-.131 2.128-.155 1.99-.126 2.127-.15 2.059-.235 2.127-.19 2.059-.106 2.127-.094 2.128-.116 2.058-.142 2.128-.09 2.059-.102 2.127-.091 2.127-.076 1.922-.101 2.127-.183 2.059-.09 2.127-.077 2.059-.086 2.127-.093 2.128-.061 2.058-.071 2.128-.076 2.058-.084 2.128-.06 2.127-.107 1.921-.068 2.128-.063 2.059-.056 2.127-.091 2.059-.063 2.127-.056 2.127-.015 2.06-.008 2.126-.007 2.06-.033" clip-path="url(#paa30e9993b)" style="fill:none;stroke:#bcbd22;stroke-width:1.5;stroke-linecap:square"/><path id="line2d_27" d="m325.7 294.193 2.127-2.804 2.058-19.796 2.128-1.475 2.127-.712 1.922-.524 2.127-.87 2.059-.274 2.127-.232 2.059-.19 2.127-.14 2.127-.169 2.06-.18 2.127-1.19 2.058-.513 2.128-.377 2.127-.322 1.921-.265 2.128-.259 2.059-.217 2.127-.183 2.059-.17 2.127-.87 2.127-.205 2.059-.258 2.127-.185 2.06-.116 2.126-.061 2.128-.111 1.99-.091 2.127-.135 2.059-.167 2.127-.144 2.059-.38 2.127-.141 2.128-.117 2.058-.144 2.128-.116 2.059-.117 2.127-.256 2.127-.118 1.922-.137 2.127-.127 2.059-.098 2.127-.127 2.059-.089 2.127-.113 2.128-.104 2.058-.185 2.128-.101 2.058-.074 2.128-.114 2.127-.086 1.921-.07 2.128-.284 2.059-.175 2.127-.136 2.059-.104 2.127-.137 2.127-.093 2.06-.086 2.126-.145 2.06-.16" clip-path="url(#paa30e9993b)" style="fill:none;stroke:#7f7f7f;stroke-width:1.5;stroke-linecap:square"/><path id="line2d_28" d="m277.662 294.193 2.06-7.684 2.127-1.212 2.127-.474 1.99-.476 2.127-.45 2.06-.468 2.126-.378 2.06-.435 2.127-.357 2.127-.417 2.059-.418 2.127-.316 2.059-.266 2.127-.25 2.127-.203 1.922-.352 2.127-.403 2.059-.336 2.127-.266 2.059-.387 2.127-.377 2.128-.393 2.058-.273 2.128-.362 2.058-.448 2.128-.41 2.127-.519 1.922-.562 2.127-.458 2.059-.417 2.127-.451 2.059-.435 2.127-.45 2.127-.396 2.06-.438 2.127-.45 2.058-.418 2.128-.28 2.127-.345 1.921-.329 2.128-.423 2.059-.582 2.127-.45 2.059-.38 2.127-.337 2.127-.316 2.059-.258 2.127-.385 2.06-.197 2.126-.218 2.128-.243 1.99-.278 2.127-.304 2.059-.684 2.127-.49 2.059-.393 2.127-.324 2.128-.342 2.058-.31 2.128-.348 2.059-.349 2.127-.306 2.127-.32 1.922-.343 2.127-.509 2.059-.278 2.127-.261 2.059-1.306 2.127-.403 2.128-.245 2.058-.22 2.128-.21 2.058-.271 2.128-.337 2.127-.223 1.921-.24 2.128-.289 2.059-.205 2.127-.27 2.059-.259 2.127-.205 2.127-.222 2.06-.205 2.126-.251 2.06-.223" clip-path="url(#paa30e9993b)" style="fill:none;stroke:#e377c2;stroke-width:1.5;stroke-linecap:square"/><path id="line2d_29" d="m275.535 294.193 2.127-.002H281.85l2.127-.033 1.99-.458 2.127-.081 2.06-.52 2.126-.192 2.06-.139 2.127-.104 2.127-5.942 2.059-.848 2.127-.58 2.059-.704 2.127-.713 2.127-.65 1.922-.621 2.127-.666 2.059-.703 2.127-.66 2.059-.616 2.127-.65 2.128-.702 2.058-.678 2.128-.63 2.058-.813 2.128-.594 2.127-.724 1.922-.638 2.127-.704 2.059-.992 2.127-.55 2.059-.561 2.127-.537 2.127-.658 2.06-.56 2.127-.723 2.058-.483 2.128-.464 2.127-.506 1.921-.552 2.128-.698 2.059-.565 2.127-.645 2.059-.466 2.127-.516 2.127-.554 2.059-.443 2.127-.428 2.06-.418 2.126-.506 2.128-.516 1.99-.491 2.127-.613 2.059-.683 2.127-.625 2.059-.527 2.127-.653 2.128-.531 2.058-.512 2.128-.521 2.059-.534 2.127-.534 2.127-.552 1.922-.473 2.127-.537 2.059-.511 2.127-.41 2.059-.463 2.127-.502 2.128-.463 2.058-.463 2.128-.392 2.058-.428 2.128-.491 2.127-.402 1.921-.416 2.128-.44 2.059-.45 2.127-.489 2.059-.453 2.127-.473 2.127-.405 2.06-.377 2.126-.613 2.06-.387" clip-path="url(#paa30e9993b)" style="fill:none;stroke:#8c564b;stroke-width:1.5;stroke-linecap:square"/><path id="line2d_30" d="m252.615 294.193 2.058-1.78 2.128-10.204 2.127-.813 1.922-.28 2.127-.656 2.059-.375 2.127-.433 2.059-.263 2.127-.283 2.127-.297 2.06-.435 2.126-.286 2.06-.25 2.127-.388 2.127-.311 1.99-.309 2.127-.41 2.06-.337 2.126-.536 2.06-.405 2.127-.499 2.127-.45 2.059-.383 2.127-.455 2.059-.506 2.127-.512 2.127-6.775 1.922-.785 2.127-.747 2.059-.65 2.127-.46 2.059-.661 2.127-.534 2.128-.95 2.058-.68 2.128-.684 2.058-.721 2.128-.663 2.127-.85 1.922-.618 2.127-.805 2.059-4.655 2.127-1.275 2.059-1.215 2.127-1.448 2.127-1.127 2.06-.771 2.127-.694 2.058-2.07 2.128-1.15 2.127-1.144 1.921-1.06 2.128-1.283 2.059-1.132 2.127-.913 2.059-.828 2.127-.904 2.127-1.02 2.059-.984 2.127-2.03 2.06-2.483 2.126-1.41 2.128-1.336 1.99-1.34 2.127-1.655 2.059-1.612 2.127-1.536 2.059-1.458 2.127-1.466 2.128-1.182 2.058-1.083 2.128-1.007 2.059-1.557 2.127-1.266 2.127-1.468 1.922-1.485 2.127-1.496 2.059-1.157 2.127-1.184 2.059-1.24 2.127-1.178 2.128-1.23 2.058-1.207 2.128-1.08 2.058-1.203 2.128-1.402 2.127-2.663 1.921-10.944 2.128-3.744 2.059-2.463 2.127-2.184 2.059-1.79 2.127-2.171 2.127-1.805 2.06-1.607 2.126-2.022 2.06-2.336" clip-path="url(#paa30e9993b)" style="fill:none;stroke:#9467bd;stroke-width:1.5;stroke-linecap:square"/><path id="line2d_31" d="m217.067 294.193 2.06-.06 2.126-.79 2.128-.286 2.059-.15 2.127-.103 2.059-.372 2.127-.256 2.127-.656 1.922-.131 2.127-.236 2.059-.612 2.127-.322 2.059-.46 2.127-.911 2.128-.522 2.058-.395 2.128-.42 2.058-.625 2.128-.777 2.127-4.799 1.922-.825 2.127-.818 2.059-.61 2.127-.84 2.059-.785 2.127-.794 2.127-.722 2.06-.663 2.126-.635 2.06-.785 2.127-1.215 2.127-2.197 1.99-.739 2.127-1.215 2.06-1.08 2.126-1.137 2.06-1.088 2.127-1.096 2.127-1.344 2.059-1.124 2.127-.962 2.059-1.303 2.127-1.354 2.127-.906 1.922-1.22 2.127-1.671 2.059-1.488 2.127-1.516 2.059-1.635 2.127-1.785 2.128-1.718 2.058-1.504 2.128-1.405 2.058-2.186 2.128-1.755 2.127-4.723 1.922-1.468 2.127-2.498 2.059-1.997 2.127-1.612 2.059-1.602 2.127-1.468 2.127-1.567 2.06-1.541 2.127-1.32 2.058-1.452 2.128-1.374 2.127-1.233 1.921-.863 2.128-1.458 2.059-1.832 2.127-1.605 2.059-1.44 2.127-1.602 2.127-1.499 2.059-1.562 2.127-1.827 2.06-1.69 2.126-1.805 2.128-1.15 1.99-1.098 2.127-1.605 2.059-1.544 2.127-1.45 2.059-1.346 2.127-1.32 2.128-1.07 2.058-1.126 2.128-1.043 2.059-1.141 2.127-1.21 2.127-1.575 1.922-1.296 2.127-1.202 2.059-1.293 2.127-1.152 2.059-1.005 2.127-.987 2.128-1.083 2.058-1.539 2.128-.878 2.058-1.154 2.128-.977 2.127-.962 1.921-1.36 2.128-1.212 2.059-1.126 2.127-1.142 2.059-1.058 2.127-1.131 2.127-1.088 2.06-1.195 2.126-1.114 2.06-.99" clip-path="url(#paa30e9993b)" style="fill:none;stroke:#d62728;stroke-width:1.5;stroke-linecap:square"/><path id="line2d_32" d="m210.754 294.193 2.127-6.829 2.059-1.151 2.127-.782 2.06-.927 2.126-.97 2.128-.746 2.059-.741 2.127-.922 2.059-.873 2.127-.61 2.127-.805 1.922-.838 2.127-.731 2.059-.613 2.127-.58 2.059-1.832 2.127-3.806 2.128-1.19 2.058-1.005 2.128-1.184 2.058-.901 2.128-.843 2.127-1.071 1.922-.931 2.127-1.152 2.059-.934 2.127-1.017 2.059-1.038 2.127-1.02 2.127-.997 2.06-.907 2.126-1.108 2.06-.997 2.127-1.023 2.127-1.093 1.99-.876 2.127-1.076 2.06-6.315 2.126-3.212 2.06-1.784 2.127-1.466 2.127-1.47 2.059-1.55 2.127-1.394 2.059-1.57 2.127-1.44 2.127-1.43 1.922-1.5 2.127-1.95 2.059-1.462 2.127-1.55 2.059-1.46 2.127-1.498 2.128-1.443 2.058-1.496 2.128-1.493 2.058-1.445 2.128-1.458 2.127-1.554 1.922-1.448 2.127-1.488 2.059-1.466 2.127-1.29 2.059-2.19 2.127-1.698 2.127-1.453 2.06-1.39 2.127-1.268 2.058-1.296 2.128-1.341 2.127-1.337 1.921-1.29 2.128-1.653 2.059-1.438 2.127-1.44 2.059-1.185 2.127-1.268 2.127-1.141 2.059-1.15 2.127-1.234 2.06-1.033 2.126-1.056 2.128-1.05 1.99-1.101 2.127-1.286 2.059-1.645 2.127-1.385 2.059-1.349 2.127-1.04 2.128-.984 2.058-.924 2.128-1.05 2.059-.975 2.127-1.07 2.127-1.054 1.922-1.08 2.127-1.061 2.059-2.093 2.127-1.018 2.059-.931 2.127-.85 2.128-.864 2.058-.827 2.128-.96 2.058-.845 2.128-.787 2.127-.926 1.921-.83 2.128-.778 2.059-.784 2.127-.947 2.059-.87 2.127-.876 2.127-.881 2.06-.906 2.126-1.063 2.06-.846" clip-path="url(#paa30e9993b)" style="fill:none;stroke:#2ca02c;stroke-width:1.5;stroke-linecap:square"/><path id="line2d_33" d="m135.542 294.193 2.127-7.14 14.686-3.516 2.059-.607 2.127-.44 4.049-1.24 4.186-1.393 12.627-3.23 2.058-.508 4.255-.848 6.176-1.331 2.128-.413 6.313-.744 6.245-.354 4.254-.15 1.922-.658 4.186-2.377 16.813-6.4 4.049-1.345 14.685-5.297 2.128-1.025 4.186-1.666 18.734-9.071 10.431-5.465 2.127-1.427 6.245-4.624 6.314-4.5 2.127-1.879 6.313-4.748 4.05-3.559 6.244-4.877 4.255-3.027 2.058-1.501 2.128-1.805 2.058-2.073 4.255-4.579 1.922-1.705 4.186-4.488 2.127-2.068 2.059-1.817 4.254-4.22 6.245-5.765 2.128-2.48 2.127-2.127 1.921-1.67 4.187-5.156 2.127-2.47 4.186-4.078 6.313-6.447 2.06-2.2 2.126-2.072 2.128-1.754 1.99-1.362 2.127-1.845 6.245-6.416 2.127-1.929 2.128-1.757 6.245-5.657 4.254-4.545 8.235-11.914 2.059-2.283 2.127-3.126 4.186-4.247 2.128-1.888 2.058-3.09 2.128-2.681 2.127-3.516 1.921-2.617 2.128-3.085 2.059-2.653 10.5-12.22 2.126-2.045 2.06-2.177h0" clip-path="url(#paa30e9993b)" style="fill:none;stroke:#ff7f0e;stroke-width:1.5;stroke-linecap:square"/><path id="line2d_34" d="m148.169 294.193 2.058-13.027 2.128-.734 4.186-1.114 2.127-.701 6.108-2.531 16.813-5.389 8.303-2.242 4.186-.785 4.255-.648 10.5-.76 1.921-1.303 6.313-5.9 4.186-3.485 2.128-2.24 4.186-3.635 2.059-1.66 2.127-1.992 4.049-4.037 2.127-2.549 2.059-2.969 2.127-2.361 2.059-2.665 8.44-9.044 2.06-2.088 6.176-7.219 4.186-5.267 4.186-4.897 4.254-4.69 4.186-4.5 2.06-2.534 4.254-4.933 1.99-2.521 6.313-8.55 2.06-3.79 4.254-5.606 2.059-2.667 2.127-2.511 6.313-8.452 1.922-2.855 2.127-4.021 2.059-3.06 2.127-2.744 2.059-2.329 6.313-7.79 2.128-2.289 2.058-2.394 2.128-2.149 2.127-2.442 1.922-1.99 2.127-3.71 2.059-2.625 2.127-2.324 8.372-8.24 2.128-1.945 6.313-6.259 1.921-1.739 2.128-2.344 4.186-4.075 2.059-1.7 6.313-5.86 6.313-4.695 4.118-2.536 4.186-3.245 4.186-3.192 2.127-1.308 2.128-2.147 2.058-1.379 4.187-2.356 10.362-6.224 2.127-1.05 2.059-1.312 4.255-2.045 2.058-2.058 2.128-1.002 2.058-1.167 2.128-1.027 2.127-1.375 4.049-2.11 2.059-1.13 2.127-.987 2.059-1.194 2.127-1.408 2.127-1.08 2.06-1.253 4.185-1.952h0" clip-path="url(#paa30e9993b)" style="fill:none;stroke:#1f77b4;stroke-width:1.5;stroke-linecap:square"/></g></g><defs><clipPath id="paa30e9993b"><path d="M98.073 28.081h357.12v266.112H98.073z"/></clipPath></defs></svg>