<svg xmlns:xlink="http://www.w3.org/1999/xlink" width="857.352" height="474.212" viewBox="0 0 643.014 355.659" xmlns="http://www.w3.org/2000/svg"><defs><style>*{stroke-linejoin:round;stroke-linecap:butt}</style></defs><g id="figure_1"><path d="M0 355.66h643.014V0H0v355.66z" style="fill:none" id="patch_1"/><g id="axes_1"><path d="M98.073 312.132h357.12V46.02H98.073v266.112z" style="fill:none" id="patch_2"/><g id="matplotlib.axis_1"><g id="xtick_1"><g id="line2d_1"><defs><path id="m7daa6a6306" d="M0 0v3.5" style="stroke:#b0b0b0;stroke-width:.4"/></defs><use xlink:href="#m7daa6a6306" x="131.262" y="312.132" style="fill:#b0b0b0;stroke:#b0b0b0;stroke-width:.4"/></g><g style="fill:#b0b0b0" transform="matrix(.14 0 0 -.14 113.447 329.77)" id="text_1"><defs><path id="DejaVuSans-32" d="M1228 531h2203V0H469v531q359 372 979 998 621 627 780 809 303 340 423 576 121 236 121 464 0 372-261 606-261 235-680 235-297 0-627-103-329-103-704-313v638q381 153 712 231 332 78 607 78 725 0 1156-363 431-362 431-968 0-288-108-546-107-257-392-607-78-91-497-524-418-433-1181-1211z" transform="scale(.01563)"/><path id="DejaVuSans-30" d="M2034 4250q-487 0-733-480-245-479-245-1442 0-959 245-1439 246-480 733-480 491 0 736 480 246 480 246 1439 0 963-246 1442-245 480-736 480zm0 500q785 0 1199-621 414-620 414-1801 0-1178-414-1799Q2819-91 2034-91q-784 0-1198 620-414 621-414 1799 0 1181 414 1801 414 621 1198 621z" transform="scale(.01563)"/><path id="DejaVuSans-31" d="M794 531h1031v3560L703 3866v575l1116 225h631V531h1031V0H794v531z" transform="scale(.01563)"/></defs><use xlink:href="#DejaVuSans-32"/><use xlink:href="#DejaVuSans-30" x="63.623"/><use xlink:href="#DejaVuSans-31" x="127.246"/><use xlink:href="#DejaVuSans-32" x="190.869"/></g></g><g id="xtick_2"><use xlink:href="#m7daa6a6306" x="192.528" y="312.132" style="fill:#b0b0b0;stroke:#b0b0b0;stroke-width:.4" id="line2d_2"/><g style="fill:#b0b0b0" transform="matrix(.14 0 0 -.14 174.713 329.77)" id="text_2"><defs><path id="DejaVuSans-34" d="M2419 4116 825 1625h1594v2491zm-166 550h794V1625h666v-525h-666V0h-628v1100H313v609l1940 2957z" transform="scale(.01563)"/></defs><use xlink:href="#DejaVuSans-32"/><use xlink:href="#DejaVuSans-30" x="63.623"/><use xlink:href="#DejaVuSans-31" x="127.246"/><use xlink:href="#DejaVuSans-34" x="190.869"/></g></g><g id="xtick_3"><use xlink:href="#m7daa6a6306" x="253.711" y="312.132" style="fill:#b0b0b0;stroke:#b0b0b0;stroke-width:.4" id="line2d_3"/><g style="fill:#b0b0b0" transform="matrix(.14 0 0 -.14 235.896 329.77)" id="text_3"><defs><path id="DejaVuSans-36" d="M2113 2584q-425 0-674-291-248-290-248-796 0-503 248-796 249-292 674-292t673 292q248 293 248 796 0 506-248 796-248 291-673 291zm1253 1979v-575q-238 112-480 171-242 60-480 60-625 0-955-422-329-422-376-1275 184 272 462 417 279 145 613 145 703 0 1111-427 408-426 408-1160 0-719-425-1154Q2819-91 2113-91q-810 0-1238 620-428 621-428 1799 0 1106 525 1764t1409 658q238 0 480-47t505-140z" transform="scale(.01563)"/></defs><use xlink:href="#DejaVuSans-32"/><use xlink:href="#DejaVuSans-30" x="63.623"/><use xlink:href="#DejaVuSans-31" x="127.246"/><use xlink:href="#DejaVuSans-36" x="190.869"/></g></g><g id="xtick_4"><use xlink:href="#m7daa6a6306" x="314.977" y="312.132" style="fill:#b0b0b0;stroke:#b0b0b0;stroke-width:.4" id="line2d_4"/><g style="fill:#b0b0b0" transform="matrix(.14 0 0 -.14 297.162 329.77)" id="text_4"><defs><path id="DejaVuSans-38" d="M2034 2216q-450 0-708-241-257-241-257-662 0-422 257-663 258-241 708-241t709 242q260 243 260 662 0 421-258 662-257 241-711 241zm-631 268q-406 100-633 378-226 279-226 679 0 559 398 884 399 325 1092 325 697 0 1094-325t397-884q0-400-227-679-226-278-629-378 456-106 710-416 255-309 255-755 0-679-414-1042Q2806-91 2034-91q-771 0-1186 362-414 363-414 1042 0 446 256 755 257 310 713 416zm-231 997q0-362 226-565 227-203 636-203 407 0 636 203 230 203 230 565 0 363-230 566-229 203-636 203-409 0-636-203-226-203-226-566z" transform="scale(.01563)"/></defs><use xlink:href="#DejaVuSans-32"/><use xlink:href="#DejaVuSans-30" x="63.623"/><use xlink:href="#DejaVuSans-31" x="127.246"/><use xlink:href="#DejaVuSans-38" x="190.869"/></g></g><g id="xtick_5"><use xlink:href="#m7daa6a6306" x="376.159" y="312.132" style="fill:#b0b0b0;stroke:#b0b0b0;stroke-width:.4" id="line2d_5"/><g style="fill:#b0b0b0" transform="matrix(.14 0 0 -.14 358.344 329.77)" id="text_5"><use xlink:href="#DejaVuSans-32"/><use xlink:href="#DejaVuSans-30" x="63.623"/><use xlink:href="#DejaVuSans-32" x="127.246"/><use xlink:href="#DejaVuSans-30" x="190.869"/></g></g><g id="xtick_6"><use xlink:href="#m7daa6a6306" x="437.425" y="312.132" style="fill:#b0b0b0;stroke:#b0b0b0;stroke-width:.4" id="line2d_6"/><g style="fill:#b0b0b0" transform="matrix(.14 0 0 -.14 419.61 329.77)" id="text_6"><use xlink:href="#DejaVuSans-32"/><use xlink:href="#DejaVuSans-30" x="63.623"/><use xlink:href="#DejaVuSans-32" x="127.246"/><use xlink:href="#DejaVuSans-32" x="190.869"/></g></g></g><g id="matplotlib.axis_2"><g id="ytick_1"><path d="M98.073 312.132h357.12" clip-path="url(#p1cbd17dedc)" style="fill:none;stroke:#b0b0b0;stroke-width:.3;stroke-linecap:square" id="line2d_7"/><g id="line2d_8"><defs><path id="ma03fec11de" d="M0 0h-3.5" style="stroke:#b0b0b0;stroke-width:.3"/></defs><use xlink:href="#ma03fec11de" x="98.073" y="312.132" style="fill:#b0b0b0;stroke:#b0b0b0;stroke-width:.3"/></g><use xlink:href="#DejaVuSans-30" style="fill:#b0b0b0" transform="matrix(.14 0 0 -.14 82.166 317.451)" id="text_7"/></g><g id="ytick_2"><path d="M98.073 279.036h357.12" clip-path="url(#p1cbd17dedc)" style="fill:none;stroke:#b0b0b0;stroke-width:.3;stroke-linecap:square" id="line2d_9"/><use xlink:href="#ma03fec11de" x="98.073" y="279.036" style="fill:#b0b0b0;stroke:#b0b0b0;stroke-width:.3" id="line2d_10"/><g style="fill:#b0b0b0" transform="matrix(.14 0 0 -.14 46.536 284.355)" id="text_8"><use xlink:href="#DejaVuSans-31"/><use xlink:href="#DejaVuSans-30" x="63.623"/><use xlink:href="#DejaVuSans-30" x="127.246"/><use xlink:href="#DejaVuSans-30" x="190.869"/><use xlink:href="#DejaVuSans-30" x="254.492"/></g></g><g id="ytick_3"><path d="M98.073 245.94h357.12" clip-path="url(#p1cbd17dedc)" style="fill:none;stroke:#b0b0b0;stroke-width:.3;stroke-linecap:square" id="line2d_11"/><use xlink:href="#ma03fec11de" x="98.073" y="245.939" style="fill:#b0b0b0;stroke:#b0b0b0;stroke-width:.3" id="line2d_12"/><g style="fill:#b0b0b0" transform="matrix(.14 0 0 -.14 46.536 251.258)" id="text_9"><use xlink:href="#DejaVuSans-32"/><use xlink:href="#DejaVuSans-30" x="63.623"/><use xlink:href="#DejaVuSans-30" x="127.246"/><use xlink:href="#DejaVuSans-30" x="190.869"/><use xlink:href="#DejaVuSans-30" x="254.492"/></g></g><g id="ytick_4"><path d="M98.073 212.843h357.12" clip-path="url(#p1cbd17dedc)" style="fill:none;stroke:#b0b0b0;stroke-width:.3;stroke-linecap:square" id="line2d_13"/><use xlink:href="#ma03fec11de" x="98.073" y="212.843" style="fill:#b0b0b0;stroke:#b0b0b0;stroke-width:.3" id="line2d_14"/><g style="fill:#b0b0b0" transform="matrix(.14 0 0 -.14 46.536 218.162)" id="text_10"><defs><path id="DejaVuSans-33" d="M2597 2516q453-97 707-404 255-306 255-756 0-690-475-1069Q2609-91 1734-91q-293 0-604 58T488 141v609q262-153 574-231 313-78 654-78 593 0 904 234t311 681q0 413-289 645-289 233-804 233h-544v519h569q465 0 712 186t247 536q0 359-255 551-254 193-729 193-260 0-557-57-297-56-653-174v562q360 100 674 150t592 50q719 0 1137-327 419-326 419-882 0-388-222-655t-631-370z" transform="scale(.01563)"/></defs><use xlink:href="#DejaVuSans-33"/><use xlink:href="#DejaVuSans-30" x="63.623"/><use xlink:href="#DejaVuSans-30" x="127.246"/><use xlink:href="#DejaVuSans-30" x="190.869"/><use xlink:href="#DejaVuSans-30" x="254.492"/></g></g><g id="ytick_5"><path d="M98.073 179.746h357.12" clip-path="url(#p1cbd17dedc)" style="fill:none;stroke:#b0b0b0;stroke-width:.3;stroke-linecap:square" id="line2d_15"/><use xlink:href="#ma03fec11de" x="98.073" y="179.746" style="fill:#b0b0b0;stroke:#b0b0b0;stroke-width:.3" id="line2d_16"/><g style="fill:#b0b0b0" transform="matrix(.14 0 0 -.14 46.536 185.065)" id="text_11"><use xlink:href="#DejaVuSans-34"/><use xlink:href="#DejaVuSans-30" x="63.623"/><use xlink:href="#DejaVuSans-30" x="127.246"/><use xlink:href="#DejaVuSans-30" x="190.869"/><use xlink:href="#DejaVuSans-30" x="254.492"/></g></g><g id="ytick_6"><path d="M98.073 146.65h357.12" clip-path="url(#p1cbd17dedc)" style="fill:none;stroke:#b0b0b0;stroke-width:.3;stroke-linecap:square" id="line2d_17"/><use xlink:href="#ma03fec11de" x="98.073" y="146.65" style="fill:#b0b0b0;stroke:#b0b0b0;stroke-width:.3" id="line2d_18"/><g style="fill:#b0b0b0" transform="matrix(.14 0 0 -.14 46.536 151.969)" id="text_12"><defs><path id="DejaVuSans-35" d="M691 4666h2478v-532H1269V2991q137 47 274 70 138 23 276 23 781 0 1237-428 457-428 457-1159 0-753-469-1171Q2575-91 1722-91q-294 0-599 50Q819 9 494 109v635q281-153 581-228t634-75q541 0 856 284 316 284 316 772 0 487-316 771-315 285-856 285-253 0-505-56-251-56-513-175v2344z" transform="scale(.01563)"/></defs><use xlink:href="#DejaVuSans-35"/><use xlink:href="#DejaVuSans-30" x="63.623"/><use xlink:href="#DejaVuSans-30" x="127.246"/><use xlink:href="#DejaVuSans-30" x="190.869"/><use xlink:href="#DejaVuSans-30" x="254.492"/></g></g><g id="ytick_7"><path d="M98.073 113.553h357.12" clip-path="url(#p1cbd17dedc)" style="fill:none;stroke:#b0b0b0;stroke-width:.3;stroke-linecap:square" id="line2d_19"/><use xlink:href="#ma03fec11de" x="98.073" y="113.553" style="fill:#b0b0b0;stroke:#b0b0b0;stroke-width:.3" id="line2d_20"/><g style="fill:#b0b0b0" transform="matrix(.14 0 0 -.14 46.536 118.872)" id="text_13"><use xlink:href="#DejaVuSans-36"/><use xlink:href="#DejaVuSans-30" x="63.623"/><use xlink:href="#DejaVuSans-30" x="127.246"/><use xlink:href="#DejaVuSans-30" x="190.869"/><use xlink:href="#DejaVuSans-30" x="254.492"/></g></g><g id="ytick_8"><path d="M98.073 80.457h357.12" clip-path="url(#p1cbd17dedc)" style="fill:none;stroke:#b0b0b0;stroke-width:.3;stroke-linecap:square" id="line2d_21"/><use xlink:href="#ma03fec11de" x="98.073" y="80.457" style="fill:#b0b0b0;stroke:#b0b0b0;stroke-width:.3" id="line2d_22"/><g style="fill:#b0b0b0" transform="matrix(.14 0 0 -.14 46.536 85.776)" id="text_14"><defs><path id="DejaVuSans-37" d="M525 4666h3000v-269L1831 0h-659l1594 4134H525v532z" transform="scale(.01563)"/></defs><use xlink:href="#DejaVuSans-37"/><use xlink:href="#DejaVuSans-30" x="63.623"/><use xlink:href="#DejaVuSans-30" x="127.246"/><use xlink:href="#DejaVuSans-30" x="190.869"/><use xlink:href="#DejaVuSans-30" x="254.492"/></g></g><g id="ytick_9"><path d="M98.073 47.36h357.12" clip-path="url(#p1cbd17dedc)" style="fill:none;stroke:#b0b0b0;stroke-width:.3;stroke-linecap:square" id="line2d_23"/><use xlink:href="#ma03fec11de" x="98.073" y="47.361" style="fill:#b0b0b0;stroke:#b0b0b0;stroke-width:.3" id="line2d_24"/><g style="fill:#b0b0b0" transform="matrix(.14 0 0 -.14 46.536 52.68)" id="text_15"><use xlink:href="#DejaVuSans-38"/><use xlink:href="#DejaVuSans-30" x="63.623"/><use xlink:href="#DejaVuSans-30" x="127.246"/><use xlink:href="#DejaVuSans-30" x="190.869"/><use xlink:href="#DejaVuSans-30" x="254.492"/></g></g><g style="fill:#b0b0b0" transform="matrix(.14 0 0 -.14 7.2 17.838)" id="text_16"><defs><path id="DejaVuSans-47" d="M3809 666v1253H2778v519h1656V434q-365-259-806-392-440-133-940-133-1094 0-1712 639-617 640-617 1780 0 1144 617 1783 618 639 1712 639 456 0 867-113 411-112 758-331v-672q-350 297-744 447t-828 150q-857 0-1287-478-429-478-429-1425 0-944 429-1422 430-478 1287-478 334 0 596 58 263 58 472 180z" transform="scale(.01563)"/><path id="DejaVuSans-69" d="M603 3500h575V0H603v3500zm0 1363h575v-729H603v729z" transform="scale(.01563)"/><path id="DejaVuSans-74" d="M1172 4494v-994h1184v-447H1172V1153q0-428 117-550t477-122h590V0h-590q-666 0-919 248-253 249-253 905v1900H172v447h422v994h578z" transform="scale(.01563)"/><path id="DejaVuSans-48" d="M628 4666h631V2753h2294v1913h631V0h-631v2222H1259V0H628v4666z" transform="scale(.01563)"/><path id="DejaVuSans-75" d="M544 1381v2119h575V1403q0-497 193-746 194-248 582-248 465 0 735 297 271 297 271 810v1984h575V0h-575v538q-209-319-486-474-276-155-642-155-603 0-916 375-312 375-312 1097zm1447 2203z" transform="scale(.01563)"/><path id="DejaVuSans-62" d="M3116 1747q0 634-261 995t-717 361q-457 0-718-361t-261-995q0-634 261-995t718-361q456 0 717 361t261 995zM1159 2969q182 312 458 463 277 152 661 152 638 0 1036-506 399-506 399-1331T3314 415Q2916-91 2278-91q-384 0-661 152-276 152-458 464V0H581v4863h578V2969z" transform="scale(.01563)"/><path id="DejaVuSans-73" d="M2834 3397v-544q-243 125-506 187-262 63-544 63-428 0-642-131t-214-394q0-200 153-314t616-217l197-44q612-131 870-370t258-667q0-488-386-773Q2250-91 1575-91q-281 0-586 55T347 128v594q319-166 628-249 309-82 613-82 406 0 624 139 219 139 219 392 0 234-158 359-157 125-692 241l-200 47q-534 112-772 345-237 233-237 639 0 494 350 762 350 269 994 269 318 0 599-47 282-46 519-140z" transform="scale(.01563)"/><path id="DejaVuSans-61" d="M2194 1759q-697 0-966-159t-269-544q0-306 202-486 202-179 548-179 479 0 768 339t289 901v128h-572zm1147 238V0h-575v531q-197-318-491-470T1556-91q-537 0-855 302-317 302-317 808 0 590 395 890 396 300 1180 300h807v57q0 397-261 614t-733 217q-300 0-585-72-284-72-546-216v532q315 122 612 182 297 61 578 61 760 0 1135-394 375-393 375-1193z" transform="scale(.01563)"/><path id="DejaVuSans-72" d="M2631 2963q-97 56-211 82-114 27-251 27-488 0-749-317t-261-911V0H581v3500h578v-544q182 319 472 473 291 155 707 155 59 0 131-8 72-7 159-23l3-590z" transform="scale(.01563)"/></defs><use xlink:href="#DejaVuSans-47"/><use xlink:href="#DejaVuSans-69" x="77.49"/><use xlink:href="#DejaVuSans-74" x="105.273"/><use xlink:href="#DejaVuSans-48" x="144.482"/><use xlink:href="#DejaVuSans-75" x="219.678"/><use xlink:href="#DejaVuSans-62" x="283.057"/><use xlink:href="#DejaVuSans-20" x="346.533"/><use xlink:href="#DejaVuSans-73" x="378.32"/><use xlink:href="#DejaVuSans-74" x="430.42"/><use xlink:href="#DejaVuSans-61" x="469.629"/><use xlink:href="#DejaVuSans-72" x="530.908"/><use xlink:href="#DejaVuSans-73" x="572.021"/></g></g><path d="m118.44 312.132 2.597-.288 38.302-.096 12.656-.116 12.823-.254 7.71-.219 17.768-.563 20.367-.933 7.626-.437 38.386-4.157 10.309-1.122 2.347-.241 2.598-.39 2.514-.507 10.309-1.182 5.112-.532 7.711-.844 20.282-1.956 7.71-.66 7.544-.807 2.514-.407 15.422-1.413 17.851-1.49 5.113-.572 7.71-.711 2.515-.288 5.196-.388 2.347-.513 5.112-.857 7.711-.784 5.112-.52 17.768-1.883 7.711-.506h0" clip-path="url(#p1cbd17dedc)" style="fill:none;stroke:#e377c2;stroke-width:1.5;stroke-linecap:square" id="line2d_25"/><path d="m200.071 312.132 2.515-.185 2.598-.037 2.514-.006 2.598-.023 2.599-.004 2.514-.026 2.598-9.75 2.514-.732 2.599-.268 2.598-.291 2.346-.36 2.599-.401 2.514-.318 2.598-.252 2.514-.218 2.599-.228 2.598-.219 2.514-.903 2.598-3.856 2.515-.775 2.598-.556 2.598-.645 2.43-.708 2.599-.718 2.514-.738 2.598-1.275 2.514-.87 2.599-.996 2.598-1.036 2.514-.709 2.598-.953 2.515-1.671 2.598-1.168 2.598-1.298 2.347-1.38 2.598-1.708 2.514-1.525 2.598-1.364 2.515-1.109 2.598-1.413 2.598-1.191 2.514-1.076 2.598-1.072 2.515-1.026 2.598-.785 2.598-.8 2.347-.782 2.598-.87 2.514-.702 2.598-.672 2.515-.562 2.598-.649 2.598-.5 2.514-.523 2.598-.615 2.515-.527 2.598-.486 2.598-.496 2.347-.49 2.598-.52 2.514-.496 2.598-.43 2.515-.385 2.598-.47 2.598-.446 2.514-.397 2.599-.345 2.514-.4 2.598-.288 2.598-.301 2.43-.222 2.599-.215 2.514-.272 2.598-.274 2.515-.278 2.598-.245 2.598-.235 2.514-.268 2.599-.222 2.514-.225 2.598-.218 2.598-.173 2.347-.148 2.598-.126 2.514-.146 2.599-.152 2.514-.152 2.598-.166 2.598-.162 2.514-.132 2.599-.116 2.514-.103 2.598-.093 2.598-.148 2.347-.126 2.598-.126 2.514-.103 2.599-.158 2.514-.18 2.598-.115" clip-path="url(#p1cbd17dedc)" style="fill:none;stroke:#8c564b;stroke-width:1.5;stroke-linecap:square" id="line2d_26"/><path d="m133.86 312.132 2.431-.86 2.598-.007 2.515-.013 2.598-.017h2.514l2.598-.006 2.598-.004 2.515-.003h2.598l2.514-.003h5.196l2.347-.285 2.598-.076 2.515-1.208 2.598-.136 2.514-.09 2.598-.138 2.598-.43 2.515-.16 2.598-.151 2.514-.11 2.598-.172 2.599-.195 2.346-.493 2.598-.447 2.515-.39 2.598-.222 2.514-.225 2.598-.215 2.599-.245 2.514-.338 2.598-.35 2.514-.567 2.599-.526 2.598-.546 2.346-.824 2.599-.751 2.514-.811 2.598-1.255 2.514-.635 2.599-.497 2.598-.764L246 297.4l2.598-.437 2.515-.516 2.598-.483 2.598-.547 2.43-.714 2.599-1.844 2.514-.665 2.598-.602 2.514-.48 2.599-2.023 2.598-.622 2.514-.53 2.598-.724 2.515-.497 2.598-.443 2.598-.765 2.347-.559 2.598-.556 2.514-.88 2.598-.477 2.515-.407 2.598-.493 2.598-.632 2.514-.513 2.598-.944 2.515-1.026 2.598-.645 2.598-.718 2.347-.467 2.598-.609 2.514-.503 2.598-.658 2.515-.586 2.598-.56 2.598-.81 2.514-.52 2.598-.642 2.515-.672 2.598-.764 2.598-.848 2.347-.682 2.598-.698 2.514-.675 2.598-.88 2.515-.666 2.598-.648 2.598-.626 2.514-.622 2.599-.636 2.514-.466 2.598-.477 2.598-.473 2.43-.52 2.599-.42 2.514-.576 2.598-.54 2.515-.555 2.598-.62 2.598-4.01 2.514-.755 2.599-.434 2.514-2.836 2.598-.619 2.598-.659 2.347-.602 2.598-.596 2.514-.619 2.599-.493 2.514-.49 2.598-.522 2.598-.557 2.514-.423 2.599-.397 2.514-.5 2.598-.563 2.598-.513 2.347-.476 2.598-.616 2.514-.53 2.599-.532 2.514-.527 2.598-.417" clip-path="url(#p1cbd17dedc)" style="fill:none;stroke:#9467bd;stroke-width:1.5;stroke-linecap:square" id="line2d_27"/><g style="fill:#1f77b4" transform="matrix(.14 0 0 -.14 465.907 49.883)" id="text_17"><defs><path id="DejaVuSans-70" d="M1159 525v-1856H581v4831h578v-531q182 312 458 463 277 152 661 152 638 0 1036-506 399-506 399-1331T3314 415Q2916-91 2278-91q-384 0-661 152-276 152-458 464zm1957 1222q0 634-261 995t-717 361q-457 0-718-361t-261-995q0-634 261-995t718-361q456 0 717 361t261 995z" transform="scale(.01563)"/><path id="DejaVuSans-65" d="M3597 1894v-281H953q38-594 358-905t892-311q331 0 642 81t618 244V178Q3153 47 2828-22t-659-69q-838 0-1327 487-489 488-489 1320 0 859 464 1363 464 505 1252 505 706 0 1117-455 411-454 411-1235zm-575 169q-6 471-264 752-258 282-683 282-481 0-770-272t-333-766l2050 4z" transform="scale(.01563)"/><path id="DejaVuSans-2f" d="M1625 4666h531L531-594H0l1625 5260z" transform="scale(.01563)"/></defs><use xlink:href="#DejaVuSans-70"/><use xlink:href="#DejaVuSans-75" x="63.477"/><use xlink:href="#DejaVuSans-70" x="126.855"/><use xlink:href="#DejaVuSans-70" x="190.332"/><use xlink:href="#DejaVuSans-65" x="253.809"/><use xlink:href="#DejaVuSans-74" x="315.332"/><use xlink:href="#DejaVuSans-65" x="354.541"/><use xlink:href="#DejaVuSans-65" x="416.064"/><use xlink:href="#DejaVuSans-72" x="477.588"/><use xlink:href="#DejaVuSans-2f" x="518.701"/><use xlink:href="#DejaVuSans-70" x="552.393"/><use xlink:href="#DejaVuSans-75" x="615.869"/><use xlink:href="#DejaVuSans-70" x="679.248"/><use xlink:href="#DejaVuSans-70" x="742.725"/><use xlink:href="#DejaVuSans-65" x="806.201"/><use xlink:href="#DejaVuSans-74" x="867.725"/><use xlink:href="#DejaVuSans-65" x="906.934"/><use xlink:href="#DejaVuSans-65" x="968.457"/><use xlink:href="#DejaVuSans-72" x="1029.98"/></g><g style="fill:#ff7f0e" transform="matrix(.14 0 0 -.14 465.907 178.39)" id="text_18"><defs><path id="DejaVuSans-6d" d="M3328 2828q216 388 516 572t706 184q547 0 844-383 297-382 297-1088V0h-578v2094q0 503-179 746-178 244-543 244-447 0-707-297-259-296-259-809V0h-578v2094q0 506-178 748t-550 242q-441 0-701-298-259-298-259-808V0H581v3500h578v-544q197 322 472 475t653 153q382 0 649-194 267-193 395-562z" transform="scale(.01563)"/><path id="DejaVuSans-63" d="M3122 3366v-538q-244 135-489 202t-495 67q-560 0-870-355-309-354-309-995t309-996q310-354 870-354 250 0 495 67t489 202V134Q2881 22 2623-34q-257-57-548-57-791 0-1257 497-465 497-465 1341 0 856 470 1346 471 491 1290 491 265 0 518-55 253-54 491-163z" transform="scale(.01563)"/><path id="DejaVuSans-6f" d="M1959 3097q-462 0-731-361t-269-989q0-628 267-989 268-361 733-361 460 0 728 362 269 363 269 988 0 622-269 986-268 364-728 364zm0 487q750 0 1178-488 429-487 429-1349 0-859-429-1349Q2709-91 1959-91q-753 0-1180 489-426 490-426 1349 0 862 426 1349 427 488 1180 488z" transform="scale(.01563)"/><path id="DejaVuSans-66" d="M2375 4863v-479h-550q-309 0-430-125-120-125-120-450v-309h947v-447h-947V0H697v3053H147v447h550v244q0 584 272 851 272 268 862 268h544z" transform="scale(.01563)"/><path id="DejaVuSans-6c" d="M603 4863h575V0H603v4863z" transform="scale(.01563)"/><path id="DejaVuSans-79" d="M2059-325q-243-625-475-815-231-191-618-191H506v481h338q237 0 368 113 132 112 291 531l103 262L191 3500h609L1894 763l1094 2737h609L2059-325z" transform="scale(.01563)"/><path id="DejaVuSans-77" d="M269 3500h575l719-2731 715 2731h678l719-2731 716 2731h575L4050 0h-678l-753 2869L1863 0h-679L269 3500z" transform="scale(.01563)"/><path id="DejaVuSans-67" d="M2906 1791q0 625-258 968-257 344-723 344-462 0-720-344-258-343-258-968 0-622 258-966t720-344q466 0 723 344 258 344 258 966zm575-1357q0-893-397-1329-396-436-1215-436-303 0-572 45t-522 139v559q253-137 500-202 247-66 503-66 566 0 847 295t281 892v285q-178-310-456-463T1784 0Q1141 0 747 490 353 981 353 1791q0 812 394 1302 394 491 1037 491 388 0 666-153t456-462v531h575V434z" transform="scale(.01563)"/><path id="DejaVuSans-68" d="M3513 2113V0h-575v2094q0 497-194 743-194 247-581 247-466 0-735-297-269-296-269-809V0H581v4863h578V2956q207 316 486 472 280 156 646 156 603 0 912-373 310-373 310-1098z" transform="scale(.01563)"/></defs><use xlink:href="#DejaVuSans-6d"/><use xlink:href="#DejaVuSans-69" x="97.412"/><use xlink:href="#DejaVuSans-63" x="125.195"/><use xlink:href="#DejaVuSans-72" x="180.176"/><use xlink:href="#DejaVuSans-6f" x="219.039"/><use xlink:href="#DejaVuSans-73" x="280.221"/><use xlink:href="#DejaVuSans-6f" x="332.32"/><use xlink:href="#DejaVuSans-66" x="393.502"/><use xlink:href="#DejaVuSans-74" x="426.957"/><use xlink:href="#DejaVuSans-2f" x="466.166"/><use xlink:href="#DejaVuSans-70" x="499.857"/><use xlink:href="#DejaVuSans-6c" x="563.334"/><use xlink:href="#DejaVuSans-61" x="591.117"/><use xlink:href="#DejaVuSans-79" x="652.396"/><use xlink:href="#DejaVuSans-77" x="711.576"/><use xlink:href="#DejaVuSans-72" x="793.363"/><use xlink:href="#DejaVuSans-69" x="834.477"/><use xlink:href="#DejaVuSans-67" x="862.26"/><use xlink:href="#DejaVuSans-68" x="925.736"/><use xlink:href="#DejaVuSans-74" x="989.115"/></g><g style="fill:#2ca02c" transform="matrix(.14 0 0 -.14 465.907 216.452)" id="text_19"><defs><path id="DejaVuSans-6e" d="M3513 2113V0h-575v2094q0 497-194 743-194 247-581 247-466 0-735-297-269-296-269-809V0H581v3500h578v-544q207 316 486 472 280 156 646 156 603 0 912-373 310-373 310-1098z" transform="scale(.01563)"/><path id="DejaVuSans-6a" d="M603 3500h575V-63q0-668-255-968-254-300-820-300h-219v487H38q328 0 446 152Q603-541 603-63v3563zm0 1363h575v-729H603v729z" transform="scale(.01563)"/></defs><use xlink:href="#DejaVuSans-61"/><use xlink:href="#DejaVuSans-72" x="61.279"/><use xlink:href="#DejaVuSans-69" x="102.393"/><use xlink:href="#DejaVuSans-79" x="130.176"/><use xlink:href="#DejaVuSans-61" x="189.355"/><use xlink:href="#DejaVuSans-2f" x="250.635"/><use xlink:href="#DejaVuSans-70" x="284.326"/><use xlink:href="#DejaVuSans-68" x="347.803"/><use xlink:href="#DejaVuSans-61" x="411.182"/><use xlink:href="#DejaVuSans-6e" x="472.461"/><use xlink:href="#DejaVuSans-74" x="535.84"/><use xlink:href="#DejaVuSans-6f" x="575.049"/><use xlink:href="#DejaVuSans-6d" x="636.23"/><use xlink:href="#DejaVuSans-6a" x="733.643"/><use xlink:href="#DejaVuSans-73" x="761.426"/></g><g style="fill:#d62728" transform="matrix(.14 0 0 -.14 465.907 230.452)" id="text_20"><defs><path id="DejaVuSans-53" d="M3425 4513v-616q-359 172-678 256-319 85-616 85-515 0-795-200t-280-569q0-310 186-468 186-157 705-254l381-78q706-135 1042-474t336-907q0-679-455-1029Q2797-91 1919-91q-331 0-705 75-373 75-773 222v650q384-215 753-325 369-109 725-109 540 0 834 212 294 213 294 607 0 343-211 537t-692 291l-385 75q-706 140-1022 440-315 300-315 835 0 619 436 975t1201 356q329 0 669-60 341-59 697-177z" transform="scale(.01563)"/><path id="DejaVuSans-51" d="M2522 4238q-688 0-1093-513-404-512-404-1397 0-881 404-1394 405-512 1093-512 687 0 1089 512 402 513 402 1394 0 885-402 1397-402 513-1089 513zM3406 84l832-909h-763L2784-78q-103-6-158-9-54-4-104-4-984 0-1574 658-589 658-589 1761 0 1106 589 1764 590 658 1574 658 981 0 1568-658 588-658 588-1764 0-812-327-1391-326-578-945-853z" transform="scale(.01563)"/></defs><use xlink:href="#DejaVuSans-53"/><use xlink:href="#DejaVuSans-65" x="63.477"/><use xlink:href="#DejaVuSans-6c" x="125"/><use xlink:href="#DejaVuSans-65" x="152.783"/><use xlink:href="#DejaVuSans-6e" x="214.307"/><use xlink:href="#DejaVuSans-69" x="277.686"/><use xlink:href="#DejaVuSans-75" x="305.469"/><use xlink:href="#DejaVuSans-6d" x="368.848"/><use xlink:href="#DejaVuSans-48" x="466.26"/><use xlink:href="#DejaVuSans-51" x="541.455"/><use xlink:href="#DejaVuSans-2f" x="620.166"/><use xlink:href="#DejaVuSans-73" x="653.857"/><use xlink:href="#DejaVuSans-65" x="705.957"/><use xlink:href="#DejaVuSans-6c" x="767.48"/><use xlink:href="#DejaVuSans-65" x="795.264"/><use xlink:href="#DejaVuSans-6e" x="856.787"/><use xlink:href="#DejaVuSans-69" x="920.166"/><use xlink:href="#DejaVuSans-75" x="947.949"/><use xlink:href="#DejaVuSans-6d" x="1011.328"/></g><g style="fill:#9467bd" transform="matrix(.14 0 0 -.14 465.907 244.452)" id="text_21"><defs><path id="DejaVuSans-76" d="M191 3500h609L1894 563l1094 2937h609L2284 0h-781L191 3500z" transform="scale(.01563)"/></defs><use xlink:href="#DejaVuSans-73"/><use xlink:href="#DejaVuSans-65" x="52.1"/><use xlink:href="#DejaVuSans-72" x="113.623"/><use xlink:href="#DejaVuSans-76" x="154.736"/><use xlink:href="#DejaVuSans-6f" x="213.916"/><use xlink:href="#DejaVuSans-2f" x="275.098"/><use xlink:href="#DejaVuSans-73" x="308.789"/><use xlink:href="#DejaVuSans-65" x="360.889"/><use xlink:href="#DejaVuSans-72" x="422.412"/><use xlink:href="#DejaVuSans-76" x="463.525"/><use xlink:href="#DejaVuSans-6f" x="522.705"/></g><g style="fill:#8c564b" transform="matrix(.14 0 0 -.14 465.907 258.452)" id="text_22"><use xlink:href="#DejaVuSans-73"/><use xlink:href="#DejaVuSans-65" x="52.1"/><use xlink:href="#DejaVuSans-67" x="113.623"/><use xlink:href="#DejaVuSans-6d" x="177.1"/><use xlink:href="#DejaVuSans-65" x="274.512"/><use xlink:href="#DejaVuSans-6e" x="336.035"/><use xlink:href="#DejaVuSans-74" x="399.414"/><use xlink:href="#DejaVuSans-69" x="438.623"/><use xlink:href="#DejaVuSans-6f" x="466.406"/><use xlink:href="#DejaVuSans-2f" x="527.588"/><use xlink:href="#DejaVuSans-6e" x="561.279"/><use xlink:href="#DejaVuSans-69" x="624.658"/><use xlink:href="#DejaVuSans-67" x="652.441"/><use xlink:href="#DejaVuSans-68" x="715.918"/><use xlink:href="#DejaVuSans-74" x="779.297"/><use xlink:href="#DejaVuSans-6d" x="818.506"/><use xlink:href="#DejaVuSans-61" x="915.918"/><use xlink:href="#DejaVuSans-72" x="977.197"/><use xlink:href="#DejaVuSans-65" x="1016.061"/></g><g style="fill:#e377c2" transform="matrix(.14 0 0 -.14 465.907 290.359)" id="text_23"><defs><path id="DejaVuSans-64" d="M2906 2969v1894h575V0h-575v525q-181-312-458-464-276-152-664-152-634 0-1033 506-398 507-398 1332t398 1331q399 506 1033 506 388 0 664-152 277-151 458-463zM947 1747q0-634 261-995t717-361q456 0 718 361 263 361 263 995t-263 995q-262 361-718 361t-717-361q-261-361-261-995z" transform="scale(.01563)"/></defs><use xlink:href="#DejaVuSans-77"/><use xlink:href="#DejaVuSans-65" x="81.787"/><use xlink:href="#DejaVuSans-62" x="143.311"/><use xlink:href="#DejaVuSans-64" x="206.787"/><use xlink:href="#DejaVuSans-72" x="270.264"/><use xlink:href="#DejaVuSans-69" x="311.377"/><use xlink:href="#DejaVuSans-76" x="339.16"/><use xlink:href="#DejaVuSans-65" x="398.34"/><use xlink:href="#DejaVuSans-72" x="459.863"/><use xlink:href="#DejaVuSans-69" x="500.977"/><use xlink:href="#DejaVuSans-6f" x="528.76"/><use xlink:href="#DejaVuSans-2f" x="589.941"/><use xlink:href="#DejaVuSans-77" x="623.633"/><use xlink:href="#DejaVuSans-65" x="705.42"/><use xlink:href="#DejaVuSans-62" x="766.943"/><use xlink:href="#DejaVuSans-64" x="830.42"/><use xlink:href="#DejaVuSans-72" x="893.896"/><use xlink:href="#DejaVuSans-69" x="935.01"/><use xlink:href="#DejaVuSans-76" x="962.793"/><use xlink:href="#DejaVuSans-65" x="1021.973"/><use xlink:href="#DejaVuSans-72" x="1083.496"/><use xlink:href="#DejaVuSans-69" x="1124.609"/><use xlink:href="#DejaVuSans-6f" x="1152.393"/></g><g style="fill:#b0b0b0" transform="matrix(.09716 0 0 -.09716 98.073 346.169)" id="text_24"><defs><path id="DejaVuSans-40" d="M2381 1678q0-447 222-702 222-254 610-254 384 0 604 256 221 256 221 700 0 438-225 695-225 258-607 258-378 0-602-256-223-256-223-697zm1703-934q-187-241-429-355t-564-114q-538 0-874 389t-336 1014q0 625 337 1015 338 391 873 391 322 0 565-117 244-117 428-354v409h447V722q457 69 714 417 258 349 258 902 0 334-99 628-98 294-298 544-325 409-792 626t-1017 217q-384 0-738-102-353-101-653-301-490-319-767-836-276-517-276-1120 0-497 179-932 180-434 521-765 328-325 759-495 431-171 922-171 403 0 792 136t714 389l281-347q-390-303-851-464t-936-161q-578 0-1091 205-512 205-912 595Q841 78 631 592q-209 514-209 1105 0 569 212 1084 213 516 607 907 403 396 931 607t1119 211q662 0 1229-272 568-271 952-771 234-307 357-666 124-359 124-744 0-822-497-1297T4084 263v481z" transform="scale(.01563)"/><path id="DejaVuSans-2d" d="M313 2009h1684v-512H313v512z" transform="scale(.01563)"/><path id="DejaVuSans-7c" d="M1344 4891v-6400H813v6400h531z" transform="scale(.01563)"/><path id="DejaVuSans-4e" d="M628 4666h850L3547 763v3903h612V0h-850L1241 3903V0H628v4666z" transform="scale(.01563)"/><path id="DejaVuSans-f6" d="M1959 3097q-462 0-731-361t-269-989q0-628 267-989 268-361 733-361 460 0 728 362 269 363 269 988 0 622-269 986-268 364-728 364zm0 487q750 0 1178-488 429-487 429-1349 0-859-429-1349Q2709-91 1959-91q-753 0-1180 489-426 490-426 1349 0 862 426 1349 427 488 1180 488zm295 1266h634v-631h-634v631zm-1222 0h634v-631h-634v631z" transform="scale(.01563)"/><path id="DejaVuSans-43" d="M4122 4306v-665q-319 297-680 443-361 147-767 147-800 0-1225-489t-425-1414q0-922 425-1411t1225-489q406 0 767 147t680 444V359q-331-225-702-338-370-112-782-112-1060 0-1670 648-609 649-609 1771 0 1125 609 1773 610 649 1670 649 418 0 788-111 371-111 696-333z" transform="scale(.01563)"/><path id="DejaVuSans-42" d="M1259 2228V519h1013q509 0 754 211 246 211 246 645 0 438-246 645-245 208-754 208H1259zm0 1919V2741h935q462 0 688 173 227 174 227 530 0 353-227 528-226 175-688 175h-935zm-631 519h1613q722 0 1112-300 391-300 391-853 0-429-200-682t-588-315q466-100 724-418 258-317 258-792 0-625-425-966Q3088 0 2303 0H628v4666z" transform="scale(.01563)"/><path id="DejaVuSans-59" d="M-13 4666h679l1293-1919 1285 1919h678L2272 2222V0h-634v2222L-13 4666z" transform="scale(.01563)"/></defs><use xlink:href="#DejaVuSans-40"/><use xlink:href="#DejaVuSans-6e" x="100"/><use xlink:href="#DejaVuSans-73" x="163.379"/><use xlink:href="#DejaVuSans-63" x="215.479"/><use xlink:href="#DejaVuSans-68" x="270.459"/><use xlink:href="#DejaVuSans-6c" x="333.838"/><use xlink:href="#DejaVuSans-6f" x="361.621"/><use xlink:href="#DejaVuSans-65" x="422.803"/><use xlink:href="#DejaVuSans-20" x="484.326"/><use xlink:href="#DejaVuSans-2f" x="516.113"/><use xlink:href="#DejaVuSans-20" x="549.805"/><use xlink:href="#DejaVuSans-67" x="581.592"/><use xlink:href="#DejaVuSans-69" x="645.068"/><use xlink:href="#DejaVuSans-74" x="672.852"/><use xlink:href="#DejaVuSans-68" x="712.061"/><use xlink:href="#DejaVuSans-75" x="775.439"/><use xlink:href="#DejaVuSans-62" x="838.818"/><use xlink:href="#DejaVuSans-2d" x="902.295"/><use xlink:href="#DejaVuSans-74" x="938.379"/><use xlink:href="#DejaVuSans-72" x="977.588"/><use xlink:href="#DejaVuSans-65" x="1016.451"/><use xlink:href="#DejaVuSans-6e" x="1077.975"/><use xlink:href="#DejaVuSans-64" x="1141.354"/><use xlink:href="#DejaVuSans-73" x="1204.83"/><use xlink:href="#DejaVuSans-20" x="1256.93"/><use xlink:href="#DejaVuSans-7c" x="1288.717"/><use xlink:href="#DejaVuSans-20" x="1322.408"/><use xlink:href="#DejaVuSans-4e" x="1354.195"/><use xlink:href="#DejaVuSans-69" x="1429"/><use xlink:href="#DejaVuSans-63" x="1456.783"/><use xlink:href="#DejaVuSans-6f" x="1511.764"/><use xlink:href="#DejaVuSans-20" x="1572.945"/><use xlink:href="#DejaVuSans-53" x="1604.732"/><use xlink:href="#DejaVuSans-63" x="1668.209"/><use xlink:href="#DejaVuSans-68" x="1723.189"/><use xlink:href="#DejaVuSans-6c" x="1786.568"/><use xlink:href="#DejaVuSans-f6" x="1814.352"/><use xlink:href="#DejaVuSans-6d" x="1875.533"/><use xlink:href="#DejaVuSans-65" x="1972.945"/><use xlink:href="#DejaVuSans-72" x="2034.469"/><use xlink:href="#DejaVuSans-20" x="2075.582"/><use xlink:href="#DejaVuSans-7c" x="2107.369"/><use xlink:href="#DejaVuSans-20" x="2141.061"/><use xlink:href="#DejaVuSans-43" x="2172.848"/><use xlink:href="#DejaVuSans-43" x="2242.672"/><use xlink:href="#DejaVuSans-20" x="2312.496"/><use xlink:href="#DejaVuSans-42" x="2344.283"/><use xlink:href="#DejaVuSans-59" x="2407.387"/></g><path d="m161.937 312.132 2.598-.106 2.347-.03 2.598-.062 2.515-.02 2.598-.043 2.514-.03 2.598-.06 2.598-.07 2.515-.052 2.598-.046 2.514-.043 2.598-.043 2.599-.07 2.346-.063 2.598-.096 2.515-.06 2.598-.085 2.514-.08 2.598-.083 2.599-.063 2.514-.112 2.598-.09 2.514-.122 2.599-.112 2.598-.113 2.346-.103 2.599-.536 2.514-.463 2.598-.477 2.514-.486 2.599-.493 2.598-.497 2.514-.572 2.598-.503 2.515-.5 2.598-.619 2.598-.652 2.43-.672 2.599-.748 2.514-.665 2.598-.758 2.514-.827 2.599-.669 2.598-.864 2.514-.784 2.598-.788 2.515-.814 2.598-.771 2.598-.725 2.347-.83 2.598-1.043 2.514-.924 2.598-.926 2.515-.934 2.598-.996 2.598-1.036 2.514-.91 2.598-1.115 2.515-1.132 2.598-1.178 2.598-1.278 2.347-1.046 2.598-1.31 2.514-.97 2.598-1.026 2.515-1.112 2.598-1.122 2.598-1.036 2.514-1.35 2.598-.973 2.515-1.139 2.598-.97 2.598-1.075 2.347-.887 2.598-1.05 2.514-1.151 2.598-1.01 2.515-1.089 2.598-1.095 2.598-.976 2.514-.887 2.599-.927 2.514-1.003 2.598-.884 2.598-.95 2.43-.963 2.599-.834 2.514-1.026 2.598-.933 2.515-.85 2.598-.825 2.598-.936 2.514-.791 2.599-.791 2.514-.877 2.598-.89 2.598-.88 2.347-.928 2.598-1.697 2.514-.848 2.599-.827 2.514-.712 2.598-.741 2.598-.95 2.514-.82 2.599-.798 2.514-.973 2.598-.851 2.598-.98 2.347-.814 2.598-.814 2.514-.834 2.599-1.728 2.514-.973 2.598-.76" clip-path="url(#p1cbd17dedc)" style="fill:none;stroke:#d62728;stroke-width:1.5;stroke-linecap:square" id="line2d_28"/><path d="m98.073 312.132 2.598-8.453 15.17-2.101 20.45-1.88 7.71-.49 12.824-.54 7.71-.158 2.347-.762 2.598-1.423 7.627-3.6 5.196-2.691 2.515-.977 5.112-2.36 5.197-1.763 2.346-1.013 5.113-1.662 10.309-3.266 2.514-.907 2.598-1.135 5.113-1.79 2.598-1.245 2.346-1.37 7.711-2.976 2.514-1.092 5.197-2.032L246 265.42l7.71-3.512 7.628-3.35 2.514-1.27 12.823-5.484 5.113-2.294 2.598-.926 2.598-1.053 2.347-1.082 5.112-2.591 5.113-2.195 2.598-.903 5.112-2.032 2.598-.811 2.515-1 2.598-.877 4.945-1.966 2.598-1.387 2.514-.877 5.113-1.416 5.196-.993 5.112-.877 2.515-.59 10.14-1.79 12.824-1.592 15.254-1.727 5.112-.692 5.113-.82 15.421-1.613 7.543-.774 5.113-.473 10.224-.983 7.711-.503 15.17-1.245 2.598-.165h0" clip-path="url(#p1cbd17dedc)" style="fill:none;stroke:#2ca02c;stroke-width:1.5;stroke-linecap:square" id="line2d_29"/><path d="m373.56 312.132 2.6-.003 2.597-23.456 2.43-8.416 2.599-2.853 2.514-2.572 2.598-5.143 2.515-4.484 2.598-2.893 2.598-2.3 2.514-2.688 2.599-2.326 2.514-1.675 2.598-6.066 2.598-4.078 2.347-3.263 2.598-3.062 2.514-2.283 2.599-2.367 2.514-3.932 2.598-3.31 2.598-2.644 2.514-2.32 2.599-8.132 2.514-3.087 2.598-3.138 2.598-6.623 2.347-3.945 2.598-4.71 2.514-3.488 2.599-5.504 2.514-3.521 2.598-3.323" clip-path="url(#p1cbd17dedc)" style="fill:none;stroke:#ff7f0e;stroke-width:1.5;stroke-linecap:square" id="line2d_30"/><path d="m299.556 312.132 2.598-.016 2.598-36.903 2.514-9.111 2.598-9.353 2.515-6.875 2.598-6.076 2.598-10.836 2.347-6.335 2.598-6.993 2.514-5.302 2.598-5.474 2.515-4.75 2.598-4.702 2.598-5.627 2.514-4.766 2.598-4.914 2.515-4.59 2.598-5.34 2.598-5.047 2.347-3.938 2.598-4.7 2.514-4.06 2.598-4.273 2.515-3.519 2.598-4.785 2.598-3.611 2.514-3.687 2.599-3.313 2.514-3.257 2.598-2.912 2.598-3.27 2.43-2.913 2.599-2.836 2.514-3.667 2.598-3.551 2.515-2.9 2.598-3.577 2.598-3.806 2.514-2.714 2.599-2.737 2.514-2.92 2.598-2.63 2.598-2.54 2.347-1.915 2.598-2.34 2.514-2.718 2.599-2.157 2.514-2.112 2.598-3.25 2.598-2.357 2.514-2.17 2.599-2.255 2.514-2.528 2.598-2.065 2.598-2.327 2.347-2.165 2.598-2.121 2.514-2.274 2.599-2.224 2.514-2.19 2.598-1.818" clip-path="url(#p1cbd17dedc)" style="fill:none;stroke:#1f77b4;stroke-width:1.5;stroke-linecap:square" id="line2d_31"/></g></g><defs><clipPath id="p1cbd17dedc"><path d="M98.073 46.02h357.12v266.112H98.073z"/></clipPath></defs></svg>