<svg xmlns:xlink="http://www.w3.org/1999/xlink" width="886.21" height="466.117" viewBox="0 0 664.657 349.588" xmlns="http://www.w3.org/2000/svg"><defs><style>*{stroke-linejoin:round;stroke-linecap:butt}</style></defs><g id="figure_1"><path d="M0 349.588h664.657V0H0v349.588z" style="fill:none" id="patch_1"/><g id="axes_1"><path d="M98.073 303.553h357.12V37.44H98.073v266.112z" style="fill:none" id="patch_2"/><g id="matplotlib.axis_1"><g id="xtick_1"><g id="line2d_1"><defs><path id="md406201456" d="M0 0v3.5" style="stroke:#b0b0b0;stroke-width:.4"/></defs><use xlink:href="#md406201456" x="132.088" y="303.553" style="fill:#b0b0b0;stroke:#b0b0b0;stroke-width:.4"/></g><g style="fill:#b0b0b0" transform="matrix(.14 0 0 -.14 114.273 321.19)" id="text_1"><defs><path id="DejaVuSans-32" d="M1228 531h2203V0H469v531q359 372 979 998 621 627 780 809 303 340 423 576 121 236 121 464 0 372-261 606-261 235-680 235-297 0-627-103-329-103-704-313v638q381 153 712 231 332 78 607 78 725 0 1156-363 431-362 431-968 0-288-108-546-107-257-392-607-78-91-497-524-418-433-1181-1211z" transform="scale(.01563)"/><path id="DejaVuSans-30" d="M2034 4250q-487 0-733-480-245-479-245-1442 0-959 245-1439 246-480 733-480 491 0 736 480 246 480 246 1439 0 963-246 1442-245 480-736 480zm0 500q785 0 1199-621 414-620 414-1801 0-1178-414-1799Q2819-91 2034-91q-784 0-1198 620-414 621-414 1799 0 1181 414 1801 414 621 1198 621z" transform="scale(.01563)"/><path id="DejaVuSans-31" d="M794 531h1031v3560L703 3866v575l1116 225h631V531h1031V0H794v531z" transform="scale(.01563)"/></defs><use xlink:href="#DejaVuSans-32"/><use xlink:href="#DejaVuSans-30" x="63.623"/><use xlink:href="#DejaVuSans-31" x="127.246"/><use xlink:href="#DejaVuSans-30" x="190.869"/></g></g><g id="xtick_2"><use xlink:href="#md406201456" x="183.075" y="303.553" style="fill:#b0b0b0;stroke:#b0b0b0;stroke-width:.4" id="line2d_2"/><g style="fill:#b0b0b0" transform="matrix(.14 0 0 -.14 165.26 321.19)" id="text_2"><use xlink:href="#DejaVuSans-32"/><use xlink:href="#DejaVuSans-30" x="63.623"/><use xlink:href="#DejaVuSans-31" x="127.246"/><use xlink:href="#DejaVuSans-32" x="190.869"/></g></g><g id="xtick_3"><use xlink:href="#md406201456" x="234.132" y="303.553" style="fill:#b0b0b0;stroke:#b0b0b0;stroke-width:.4" id="line2d_3"/><g style="fill:#b0b0b0" transform="matrix(.14 0 0 -.14 216.317 321.19)" id="text_3"><defs><path id="DejaVuSans-34" d="M2419 4116 825 1625h1594v2491zm-166 550h794V1625h666v-525h-666V0h-628v1100H313v609l1940 2957z" transform="scale(.01563)"/></defs><use xlink:href="#DejaVuSans-32"/><use xlink:href="#DejaVuSans-30" x="63.623"/><use xlink:href="#DejaVuSans-31" x="127.246"/><use xlink:href="#DejaVuSans-34" x="190.869"/></g></g><g id="xtick_4"><use xlink:href="#md406201456" x="285.119" y="303.553" style="fill:#b0b0b0;stroke:#b0b0b0;stroke-width:.4" id="line2d_4"/><g style="fill:#b0b0b0" transform="matrix(.14 0 0 -.14 267.304 321.19)" id="text_4"><defs><path id="DejaVuSans-36" d="M2113 2584q-425 0-674-291-248-290-248-796 0-503 248-796 249-292 674-292t673 292q248 293 248 796 0 506-248 796-248 291-673 291zm1253 1979v-575q-238 112-480 171-242 60-480 60-625 0-955-422-329-422-376-1275 184 272 462 417 279 145 613 145 703 0 1111-427 408-426 408-1160 0-719-425-1154Q2819-91 2113-91q-810 0-1238 620-428 621-428 1799 0 1106 525 1764t1409 658q238 0 480-47t505-140z" transform="scale(.01563)"/></defs><use xlink:href="#DejaVuSans-32"/><use xlink:href="#DejaVuSans-30" x="63.623"/><use xlink:href="#DejaVuSans-31" x="127.246"/><use xlink:href="#DejaVuSans-36" x="190.869"/></g></g><g id="xtick_5"><use xlink:href="#md406201456" x="336.176" y="303.553" style="fill:#b0b0b0;stroke:#b0b0b0;stroke-width:.4" id="line2d_5"/><g style="fill:#b0b0b0" transform="matrix(.14 0 0 -.14 318.361 321.19)" id="text_5"><defs><path id="DejaVuSans-38" d="M2034 2216q-450 0-708-241-257-241-257-662 0-422 257-663 258-241 708-241t709 242q260 243 260 662 0 421-258 662-257 241-711 241zm-631 268q-406 100-633 378-226 279-226 679 0 559 398 884 399 325 1092 325 697 0 1094-325t397-884q0-400-227-679-226-278-629-378 456-106 710-416 255-309 255-755 0-679-414-1042Q2806-91 2034-91q-771 0-1186 362-414 363-414 1042 0 446 256 755 257 310 713 416zm-231 997q0-362 226-565 227-203 636-203 407 0 636 203 230 203 230 565 0 363-230 566-229 203-636 203-409 0-636-203-226-203-226-566z" transform="scale(.01563)"/></defs><use xlink:href="#DejaVuSans-32"/><use xlink:href="#DejaVuSans-30" x="63.623"/><use xlink:href="#DejaVuSans-31" x="127.246"/><use xlink:href="#DejaVuSans-38" x="190.869"/></g></g><g id="xtick_6"><use xlink:href="#md406201456" x="387.164" y="303.553" style="fill:#b0b0b0;stroke:#b0b0b0;stroke-width:.4" id="line2d_6"/><g style="fill:#b0b0b0" transform="matrix(.14 0 0 -.14 369.349 321.19)" id="text_6"><use xlink:href="#DejaVuSans-32"/><use xlink:href="#DejaVuSans-30" x="63.623"/><use xlink:href="#DejaVuSans-32" x="127.246"/><use xlink:href="#DejaVuSans-30" x="190.869"/></g></g><g id="xtick_7"><use xlink:href="#md406201456" x="438.221" y="303.553" style="fill:#b0b0b0;stroke:#b0b0b0;stroke-width:.4" id="line2d_7"/><g style="fill:#b0b0b0" transform="matrix(.14 0 0 -.14 420.406 321.19)" id="text_7"><use xlink:href="#DejaVuSans-32"/><use xlink:href="#DejaVuSans-30" x="63.623"/><use xlink:href="#DejaVuSans-32" x="127.246"/><use xlink:href="#DejaVuSans-32" x="190.869"/></g></g></g><g id="matplotlib.axis_2"><g id="ytick_1"><path d="M98.073 303.553h357.12" clip-path="url(#p044ee7531e)" style="fill:none;stroke:#b0b0b0;stroke-width:.3;stroke-linecap:square" id="line2d_8"/><g id="line2d_9"><defs><path id="m1bf96be720" d="M0 0h-3.5" style="stroke:#b0b0b0;stroke-width:.3"/></defs><use xlink:href="#m1bf96be720" x="98.073" y="303.553" style="fill:#b0b0b0;stroke:#b0b0b0;stroke-width:.3"/></g><use xlink:href="#DejaVuSans-30" style="fill:#b0b0b0" transform="matrix(.14 0 0 -.14 82.166 308.872)" id="text_8"/></g><g id="ytick_2"><path d="M98.073 252.314h357.12" clip-path="url(#p044ee7531e)" style="fill:none;stroke:#b0b0b0;stroke-width:.3;stroke-linecap:square" id="line2d_10"/><use xlink:href="#m1bf96be720" x="98.073" y="252.314" style="fill:#b0b0b0;stroke:#b0b0b0;stroke-width:.3" id="line2d_11"/><g style="fill:#b0b0b0" transform="matrix(.14 0 0 -.14 46.536 257.633)" id="text_9"><use xlink:href="#DejaVuSans-32"/><use xlink:href="#DejaVuSans-30" x="63.623"/><use xlink:href="#DejaVuSans-30" x="127.246"/><use xlink:href="#DejaVuSans-30" x="190.869"/><use xlink:href="#DejaVuSans-30" x="254.492"/></g></g><g id="ytick_3"><path d="M98.073 201.076h357.12" clip-path="url(#p044ee7531e)" style="fill:none;stroke:#b0b0b0;stroke-width:.3;stroke-linecap:square" id="line2d_12"/><use xlink:href="#m1bf96be720" x="98.073" y="201.076" style="fill:#b0b0b0;stroke:#b0b0b0;stroke-width:.3" id="line2d_13"/><g style="fill:#b0b0b0" transform="matrix(.14 0 0 -.14 46.536 206.395)" id="text_10"><use xlink:href="#DejaVuSans-34"/><use xlink:href="#DejaVuSans-30" x="63.623"/><use xlink:href="#DejaVuSans-30" x="127.246"/><use xlink:href="#DejaVuSans-30" x="190.869"/><use xlink:href="#DejaVuSans-30" x="254.492"/></g></g><g id="ytick_4"><path d="M98.073 149.837h357.12" clip-path="url(#p044ee7531e)" style="fill:none;stroke:#b0b0b0;stroke-width:.3;stroke-linecap:square" id="line2d_14"/><use xlink:href="#m1bf96be720" x="98.073" y="149.837" style="fill:#b0b0b0;stroke:#b0b0b0;stroke-width:.3" id="line2d_15"/><g style="fill:#b0b0b0" transform="matrix(.14 0 0 -.14 46.536 155.156)" id="text_11"><use xlink:href="#DejaVuSans-36"/><use xlink:href="#DejaVuSans-30" x="63.623"/><use xlink:href="#DejaVuSans-30" x="127.246"/><use xlink:href="#DejaVuSans-30" x="190.869"/><use xlink:href="#DejaVuSans-30" x="254.492"/></g></g><g id="ytick_5"><path d="M98.073 98.599h357.12" clip-path="url(#p044ee7531e)" style="fill:none;stroke:#b0b0b0;stroke-width:.3;stroke-linecap:square" id="line2d_16"/><use xlink:href="#m1bf96be720" x="98.073" y="98.599" style="fill:#b0b0b0;stroke:#b0b0b0;stroke-width:.3" id="line2d_17"/><g style="fill:#b0b0b0" transform="matrix(.14 0 0 -.14 46.536 103.918)" id="text_12"><use xlink:href="#DejaVuSans-38"/><use xlink:href="#DejaVuSans-30" x="63.623"/><use xlink:href="#DejaVuSans-30" x="127.246"/><use xlink:href="#DejaVuSans-30" x="190.869"/><use xlink:href="#DejaVuSans-30" x="254.492"/></g></g><g id="ytick_6"><path d="M98.073 47.36h357.12" clip-path="url(#p044ee7531e)" style="fill:none;stroke:#b0b0b0;stroke-width:.3;stroke-linecap:square" id="line2d_18"/><use xlink:href="#m1bf96be720" x="98.073" y="47.361" style="fill:#b0b0b0;stroke:#b0b0b0;stroke-width:.3" id="line2d_19"/><g style="fill:#b0b0b0" transform="matrix(.14 0 0 -.14 37.628 52.68)" id="text_13"><use xlink:href="#DejaVuSans-31"/><use xlink:href="#DejaVuSans-30" x="63.623"/><use xlink:href="#DejaVuSans-30" x="127.246"/><use xlink:href="#DejaVuSans-30" x="190.869"/><use xlink:href="#DejaVuSans-30" x="254.492"/><use xlink:href="#DejaVuSans-30" x="318.115"/></g></g><g style="fill:#b0b0b0" transform="matrix(.14 0 0 -.14 7.2 17.838)" id="text_14"><defs><path id="DejaVuSans-47" d="M3809 666v1253H2778v519h1656V434q-365-259-806-392-440-133-940-133-1094 0-1712 639-617 640-617 1780 0 1144 617 1783 618 639 1712 639 456 0 867-113 411-112 758-331v-672q-350 297-744 447t-828 150q-857 0-1287-478-429-478-429-1425 0-944 429-1422 430-478 1287-478 334 0 596 58 263 58 472 180z" transform="scale(.01563)"/><path id="DejaVuSans-69" d="M603 3500h575V0H603v3500zm0 1363h575v-729H603v729z" transform="scale(.01563)"/><path id="DejaVuSans-74" d="M1172 4494v-994h1184v-447H1172V1153q0-428 117-550t477-122h590V0h-590q-666 0-919 248-253 249-253 905v1900H172v447h422v994h578z" transform="scale(.01563)"/><path id="DejaVuSans-48" d="M628 4666h631V2753h2294v1913h631V0h-631v2222H1259V0H628v4666z" transform="scale(.01563)"/><path id="DejaVuSans-75" d="M544 1381v2119h575V1403q0-497 193-746 194-248 582-248 465 0 735 297 271 297 271 810v1984h575V0h-575v538q-209-319-486-474-276-155-642-155-603 0-916 375-312 375-312 1097zm1447 2203z" transform="scale(.01563)"/><path id="DejaVuSans-62" d="M3116 1747q0 634-261 995t-717 361q-457 0-718-361t-261-995q0-634 261-995t718-361q456 0 717 361t261 995zM1159 2969q182 312 458 463 277 152 661 152 638 0 1036-506 399-506 399-1331T3314 415Q2916-91 2278-91q-384 0-661 152-276 152-458 464V0H581v4863h578V2969z" transform="scale(.01563)"/><path id="DejaVuSans-73" d="M2834 3397v-544q-243 125-506 187-262 63-544 63-428 0-642-131t-214-394q0-200 153-314t616-217l197-44q612-131 870-370t258-667q0-488-386-773Q2250-91 1575-91q-281 0-586 55T347 128v594q319-166 628-249 309-82 613-82 406 0 624 139 219 139 219 392 0 234-158 359-157 125-692 241l-200 47q-534 112-772 345-237 233-237 639 0 494 350 762 350 269 994 269 318 0 599-47 282-46 519-140z" transform="scale(.01563)"/><path id="DejaVuSans-61" d="M2194 1759q-697 0-966-159t-269-544q0-306 202-486 202-179 548-179 479 0 768 339t289 901v128h-572zm1147 238V0h-575v531q-197-318-491-470T1556-91q-537 0-855 302-317 302-317 808 0 590 395 890 396 300 1180 300h807v57q0 397-261 614t-733 217q-300 0-585-72-284-72-546-216v532q315 122 612 182 297 61 578 61 760 0 1135-394 375-393 375-1193z" transform="scale(.01563)"/><path id="DejaVuSans-72" d="M2631 2963q-97 56-211 82-114 27-251 27-488 0-749-317t-261-911V0H581v3500h578v-544q182 319 472 473 291 155 707 155 59 0 131-8 72-7 159-23l3-590z" transform="scale(.01563)"/></defs><use xlink:href="#DejaVuSans-47"/><use xlink:href="#DejaVuSans-69" x="77.49"/><use xlink:href="#DejaVuSans-74" x="105.273"/><use xlink:href="#DejaVuSans-48" x="144.482"/><use xlink:href="#DejaVuSans-75" x="219.678"/><use xlink:href="#DejaVuSans-62" x="283.057"/><use xlink:href="#DejaVuSans-20" x="346.533"/><use xlink:href="#DejaVuSans-73" x="378.32"/><use xlink:href="#DejaVuSans-74" x="430.42"/><use xlink:href="#DejaVuSans-61" x="469.629"/><use xlink:href="#DejaVuSans-72" x="530.908"/><use xlink:href="#DejaVuSans-73" x="572.021"/></g></g><path d="m287.285 303.553 2.025-.005 2.165-1.853 2.096-.084 2.165-.612 2.095-.123 2.165-.093 2.166-.228 2.095-.184 2.165-.115 2.096-.231 2.165-.11 2.165-.151 1.956-.174 2.165-.177 2.095-.28 2.165-.256 2.096-.21 2.165-.238 2.165-.387 2.096-.292 2.165-.325 2.095-.349 2.165-.212 2.166-.264 1.955-.328 2.166-.828 2.095-.417 2.165-.497 2.095-.415 2.166-.333 2.165-.564 2.095-.494 2.165-.495 2.096-.39 2.165-.276 2.165-.412 1.956-.385 2.165-.435 2.095-.505 2.166-.433 2.095-.256 2.165-.354 2.165-.274 2.096-.356 2.165-.669 2.095-.327 2.166-.341 2.165-.295 2.025-.21 2.166-.28 2.095-.207 2.165-.228 2.095-.228 2.166-.253 2.165-.198 2.095-.156 2.165-.136 2.096-.156 2.165-.184 2.165-.185 1.956-.197 2.165-.13 2.096-.157 2.165-.13 2.095-.137 2.165-.122 2.166-.11 2.095-.103 2.165-.126 2.095-.094 2.166-.09 2.165-.07 1.956-.097 2.165-.12 2.095-.077 2.165-.092 2.096-.072 2.165-.087 2.165-.07" clip-path="url(#p044ee7531e)" style="fill:none;stroke:#c5b0d5;stroke-width:1.5;stroke-linecap:square" id="line2d_20"/><path d="m187.266 303.553 2.165-.23 2.095-.021 2.166-.02 2.095-.014 2.165-.002 2.165-.003 2.096-.005 2.165-.005h6.426l1.955-.013 2.166-.028 2.095-.07 2.165-.076 2.096-.049 2.165-.043 2.165-.028 2.095-.034 2.166-.05 2.095-.032 2.165-.038 2.165-.03 1.956-.034 2.165-.054 2.096-.023 2.165-.033 2.095-.049 2.165-.059 2.166-.156 2.095-.072 2.165-.074 2.096-.077 2.165-.1 2.165-.087 1.956-.085 2.165-.11 2.095-.084 2.165-.105 2.096-.082 2.165-.072 2.165-.09 2.096-.074 2.165-.118 2.095-.128 2.165-.064 2.166-.11 2.025-.082 2.165-.072 2.096-.136 2.165-.105 2.095-.112 2.165-.103 2.166-.108 2.095-.72 2.165-.143 2.096-.105 2.165-.174 2.165-.151 1.956-.154 2.165-.215 2.095-.182 2.165-.128 2.096-.162 2.165-.176 2.165-.18 2.096-.212 2.165-.157 2.095-.182 2.165-.212 2.166-.192 1.955-.151 2.166-.28 2.095-.29 2.165-.225 2.095-.258 2.166-.234 2.165-.246 2.095-.248 2.165-.21 2.096-.24 2.165-.175 2.165-.305 1.956-.19 2.165-.266 2.095-.343 2.166-.26 2.095-.291 2.165-.674 2.165-.284 2.096-.354 2.165-.238 2.095-.328 2.166-.356 2.165-.256 2.025-.192 2.166-.272 2.095-.282 2.165-.266 2.095-.308 2.166-.274 2.165-.253 2.095-.244 2.165-.207 2.096-.28 2.165-.345 2.165-.275 1.956-.217 2.165-.305 2.096-.459 2.165-.3 2.095-.379 2.165-.292 2.166-.315 2.095-.315 2.165-.236 2.095-1.073 2.166-.305 2.165-.284 1.956-.254 2.165-.356 2.095-.336 2.165-.387 2.096-.36 2.165-.37 2.165-.443" clip-path="url(#p044ee7531e)" style="fill:none;stroke:#ff9896;stroke-width:1.5;stroke-linecap:square" id="line2d_21"/><path d="m229.872 303.553 2.095-.22 2.165-.013 2.165-.031 1.956-.097 2.165-.172 2.096-.246 2.165-1.312 2.095-.274 2.165-.259 2.166-3 2.095-1.544 2.165-.351 2.096-.392 2.165-.385 2.165-.397 1.956-.394 2.165-.4 2.095-.325 2.165-.313 2.096-.382 2.165-.3 2.165-.289 2.096-.338 2.165-.31 2.095-.323 2.165-.3 2.166-.256 2.025-.274 2.165-.282 2.096-.269 2.165-.256 2.095-.392 2.165-.28 2.166-.273 2.095-.264 2.165-.27 2.096-.22 2.165-.176 2.165-.154 1.956-.246 2.165-.213 2.095-.204 2.165-.208 2.096-.402 2.165-.244 2.165-.238 2.096-.195 2.165-.215 2.095-.225 2.165-.192 2.166-.16 1.955-.173 2.166-.195 2.095-.203 2.165-.192 2.095-.2 2.166-.148 2.165-.177 2.095-.2 2.165-.161 2.096-.159 2.165-.115 2.165-.136 1.956-.14 2.165-.116 2.095-.123 2.166-.156 2.095-.118 2.165-.105 2.165-.087 2.096-.098 2.165-.077 2.095-.128 2.166-.092 2.165-.118 2.025-.09 2.166-.094 2.095-.105 2.165-.118 2.095-.087 2.166-.08 2.165-.09 2.095-.069 2.165-.038 2.096-.08 2.165-.092 2.165-.092 1.956-.069 2.165-.072 2.096-.087 2.165-.051 2.095-.054 2.165-.046 2.166-.061 2.095-.06 2.165-.035 2.095-.067 2.166-.043 2.165-.031 1.956-.028 2.165-.044 2.095-.033 2.165-.034 2.096-.012 2.165-.034 2.165-.025" clip-path="url(#p044ee7531e)" style="fill:none;stroke:#98df8a;stroke-width:1.5;stroke-linecap:square" id="line2d_22"/><g style="fill:#1f77b4" transform="matrix(.14 0 0 -.14 465.907 41.304)" id="text_15"><defs><path id="DejaVuSans-64" d="M2906 2969v1894h575V0h-575v525q-181-312-458-464-276-152-664-152-634 0-1033 506-398 507-398 1332t398 1331q399 506 1033 506 388 0 664-152 277-151 458-463zM947 1747q0-634 261-995t717-361q456 0 718 361 263 361 263 995t-263 995q-262 361-718 361t-717-361q-261-361-261-995z" transform="scale(.01563)"/><path id="DejaVuSans-33" d="M2597 2516q453-97 707-404 255-306 255-756 0-690-475-1069Q2609-91 1734-91q-293 0-604 58T488 141v609q262-153 574-231 313-78 654-78 593 0 904 234t311 681q0 413-289 645-289 233-804 233h-544v519h569q465 0 712 186t247 536q0 359-255 551-254 193-729 193-260 0-557-57-297-56-653-174v562q360 100 674 150t592 50q719 0 1137-327 419-326 419-882 0-388-222-655t-631-370z" transform="scale(.01563)"/><path id="DejaVuSans-2f" d="M1625 4666h531L531-594H0l1625 5260z" transform="scale(.01563)"/></defs><use xlink:href="#DejaVuSans-64"/><use xlink:href="#DejaVuSans-33" x="63.477"/><use xlink:href="#DejaVuSans-2f" x="127.1"/><use xlink:href="#DejaVuSans-64" x="160.791"/><use xlink:href="#DejaVuSans-33" x="224.268"/></g><g style="fill:#ff7f0e" transform="matrix(.14 0 0 -.14 465.907 86.094)" id="text_16"><defs><path id="DejaVuSans-6d" d="M3328 2828q216 388 516 572t706 184q547 0 844-383 297-382 297-1088V0h-578v2094q0 503-179 746-178 244-543 244-447 0-707-297-259-296-259-809V0h-578v2094q0 506-178 748t-550 242q-441 0-701-298-259-298-259-808V0H581v3500h578v-544q197 322 472 475t653 153q382 0 649-194 267-193 395-562z" transform="scale(.01563)"/><path id="DejaVuSans-6f" d="M1959 3097q-462 0-731-361t-269-989q0-628 267-989 268-361 733-361 460 0 728 362 269 363 269 988 0 622-269 986-268 364-728 364zm0 487q750 0 1178-488 429-487 429-1349 0-859-429-1349Q2709-91 1959-91q-753 0-1180 489-426 490-426 1349 0 862 426 1349 427 488 1180 488z" transform="scale(.01563)"/><path id="DejaVuSans-68" d="M3513 2113V0h-575v2094q0 497-194 743-194 247-581 247-466 0-735-297-269-296-269-809V0H581v4863h578V2956q207 316 486 472 280 156 646 156 603 0 912-373 310-373 310-1098z" transform="scale(.01563)"/><path id="DejaVuSans-65" d="M3597 1894v-281H953q38-594 358-905t892-311q331 0 642 81t618 244V178Q3153 47 2828-22t-659-69q-838 0-1327 487-489 488-489 1320 0 859 464 1363 464 505 1252 505 706 0 1117-455 411-454 411-1235zm-575 169q-6 471-264 752-258 282-683 282-481 0-770-272t-333-766l2050 4z" transform="scale(.01563)"/><path id="DejaVuSans-2e" d="M684 794h660V0H684v794z" transform="scale(.01563)"/><path id="DejaVuSans-6a" d="M603 3500h575V-63q0-668-255-968-254-300-820-300h-219v487H38q328 0 446 152Q603-541 603-63v3563zm0 1363h575v-729H603v729z" transform="scale(.01563)"/></defs><use xlink:href="#DejaVuSans-6d"/><use xlink:href="#DejaVuSans-72" x="97.412"/><use xlink:href="#DejaVuSans-64" x="136.775"/><use xlink:href="#DejaVuSans-6f" x="200.252"/><use xlink:href="#DejaVuSans-6f" x="261.434"/><use xlink:href="#DejaVuSans-62" x="322.615"/><use xlink:href="#DejaVuSans-2f" x="386.092"/><use xlink:href="#DejaVuSans-74" x="419.783"/><use xlink:href="#DejaVuSans-68" x="458.992"/><use xlink:href="#DejaVuSans-72" x="522.371"/><use xlink:href="#DejaVuSans-65" x="561.234"/><use xlink:href="#DejaVuSans-65" x="622.758"/><use xlink:href="#DejaVuSans-2e" x="684.281"/><use xlink:href="#DejaVuSans-6a" x="716.068"/><use xlink:href="#DejaVuSans-73" x="743.852"/></g><g style="fill:#2ca02c" transform="matrix(.14 0 0 -.14 465.907 154.839)" id="text_17"><defs><path id="DejaVuSans-63" d="M3122 3366v-538q-244 135-489 202t-495 67q-560 0-870-355-309-354-309-995t309-996q310-354 870-354 250 0 495 67t489 202V134Q2881 22 2623-34q-257-57-548-57-791 0-1257 497-465 497-465 1341 0 856 470 1346 471 491 1290 491 265 0 518-55 253-54 491-163z" transform="scale(.01563)"/><path id="DejaVuSans-43" d="M4122 4306v-665q-319 297-680 443-361 147-767 147-800 0-1225-489t-425-1414q0-922 425-1411t1225-489q406 0 767 147t680 444V359q-331-225-702-338-370-112-782-112-1060 0-1670 648-609 649-609 1771 0 1125 609 1773 610 649 1670 649 418 0 788-111 371-111 696-333z" transform="scale(.01563)"/></defs><use xlink:href="#DejaVuSans-63"/><use xlink:href="#DejaVuSans-68" x="54.98"/><use xlink:href="#DejaVuSans-61" x="118.359"/><use xlink:href="#DejaVuSans-72" x="179.639"/><use xlink:href="#DejaVuSans-74" x="220.752"/><use xlink:href="#DejaVuSans-6a" x="259.961"/><use xlink:href="#DejaVuSans-73" x="287.744"/><use xlink:href="#DejaVuSans-2f" x="339.844"/><use xlink:href="#DejaVuSans-43" x="373.535"/><use xlink:href="#DejaVuSans-68" x="443.359"/><use xlink:href="#DejaVuSans-61" x="506.738"/><use xlink:href="#DejaVuSans-72" x="568.018"/><use xlink:href="#DejaVuSans-74" x="609.131"/><use xlink:href="#DejaVuSans-2e" x="648.34"/><use xlink:href="#DejaVuSans-6a" x="680.127"/><use xlink:href="#DejaVuSans-73" x="707.91"/></g><g style="fill:#d62728" transform="matrix(.14 0 0 -.14 465.907 168.839)" id="text_18"><defs><path id="DejaVuSans-70" d="M1159 525v-1856H581v4831h578v-531q182 312 458 463 277 152 661 152 638 0 1036-506 399-506 399-1331T3314 415Q2916-91 2278-91q-384 0-661 152-276 152-458 464zm1957 1222q0 634-261 995t-717 361q-457 0-718-361t-261-995q0-634 261-995t718-361q456 0 717 361t261 995z" transform="scale(.01563)"/></defs><use xlink:href="#DejaVuSans-61"/><use xlink:href="#DejaVuSans-70" x="61.279"/><use xlink:href="#DejaVuSans-61" x="124.756"/><use xlink:href="#DejaVuSans-63" x="186.035"/><use xlink:href="#DejaVuSans-68" x="241.016"/><use xlink:href="#DejaVuSans-65" x="304.395"/><use xlink:href="#DejaVuSans-2f" x="365.918"/><use xlink:href="#DejaVuSans-65" x="399.609"/><use xlink:href="#DejaVuSans-63" x="461.133"/><use xlink:href="#DejaVuSans-68" x="516.113"/><use xlink:href="#DejaVuSans-61" x="579.492"/><use xlink:href="#DejaVuSans-72" x="640.771"/><use xlink:href="#DejaVuSans-74" x="681.885"/><use xlink:href="#DejaVuSans-73" x="721.094"/></g><g style="fill:#9467bd" transform="matrix(.14 0 0 -.14 465.907 182.839)" id="text_19"><defs><path id="DejaVuSans-2d" d="M313 2009h1684v-512H313v512z" transform="scale(.01563)"/></defs><use xlink:href="#DejaVuSans-6d"/><use xlink:href="#DejaVuSans-65" x="97.412"/><use xlink:href="#DejaVuSans-72" x="158.936"/><use xlink:href="#DejaVuSans-6d" x="198.299"/><use xlink:href="#DejaVuSans-61" x="295.711"/><use xlink:href="#DejaVuSans-69" x="356.99"/><use xlink:href="#DejaVuSans-64" x="384.773"/><use xlink:href="#DejaVuSans-2d" x="448.25"/><use xlink:href="#DejaVuSans-6a" x="484.334"/><use xlink:href="#DejaVuSans-73" x="512.117"/><use xlink:href="#DejaVuSans-2f" x="564.217"/><use xlink:href="#DejaVuSans-6d" x="597.908"/><use xlink:href="#DejaVuSans-65" x="695.32"/><use xlink:href="#DejaVuSans-72" x="756.844"/><use xlink:href="#DejaVuSans-6d" x="796.207"/><use xlink:href="#DejaVuSans-61" x="893.619"/><use xlink:href="#DejaVuSans-69" x="954.898"/><use xlink:href="#DejaVuSans-64" x="982.682"/></g><g style="fill:#8c564b" transform="matrix(.14 0 0 -.14 465.907 213.476)" id="text_20"><use xlink:href="#DejaVuSans-72"/><use xlink:href="#DejaVuSans-65" x="38.863"/><use xlink:href="#DejaVuSans-63" x="100.387"/><use xlink:href="#DejaVuSans-68" x="155.367"/><use xlink:href="#DejaVuSans-61" x="218.746"/><use xlink:href="#DejaVuSans-72" x="280.025"/><use xlink:href="#DejaVuSans-74" x="321.139"/><use xlink:href="#DejaVuSans-73" x="360.348"/><use xlink:href="#DejaVuSans-2f" x="412.447"/><use xlink:href="#DejaVuSans-72" x="446.139"/><use xlink:href="#DejaVuSans-65" x="485.002"/><use xlink:href="#DejaVuSans-63" x="546.525"/><use xlink:href="#DejaVuSans-68" x="601.506"/><use xlink:href="#DejaVuSans-61" x="664.885"/><use xlink:href="#DejaVuSans-72" x="726.164"/><use xlink:href="#DejaVuSans-74" x="767.277"/><use xlink:href="#DejaVuSans-73" x="806.486"/></g><g style="fill:#e377c2" transform="matrix(.14 0 0 -.14 465.907 227.476)" id="text_21"><defs><path id="DejaVuSans-6c" d="M603 4863h575V0H603v4863z" transform="scale(.01563)"/><path id="DejaVuSans-79" d="M2059-325q-243-625-475-815-231-191-618-191H506v481h338q237 0 368 113 132 112 291 531l103 262L191 3500h609L1894 763l1094 2737h609L2059-325z" transform="scale(.01563)"/></defs><use xlink:href="#DejaVuSans-70"/><use xlink:href="#DejaVuSans-6c" x="63.477"/><use xlink:href="#DejaVuSans-6f" x="91.26"/><use xlink:href="#DejaVuSans-74" x="152.441"/><use xlink:href="#DejaVuSans-6c" x="191.65"/><use xlink:href="#DejaVuSans-79" x="219.434"/><use xlink:href="#DejaVuSans-2f" x="278.613"/><use xlink:href="#DejaVuSans-70" x="312.305"/><use xlink:href="#DejaVuSans-6c" x="375.781"/><use xlink:href="#DejaVuSans-6f" x="403.564"/><use xlink:href="#DejaVuSans-74" x="464.746"/><use xlink:href="#DejaVuSans-6c" x="503.955"/><use xlink:href="#DejaVuSans-79" x="531.738"/><use xlink:href="#DejaVuSans-2e" x="576.668"/><use xlink:href="#DejaVuSans-6a" x="608.455"/><use xlink:href="#DejaVuSans-73" x="636.238"/></g><g style="fill:#7f7f7f" transform="matrix(.14 0 0 -.14 465.907 241.476)" id="text_22"><defs><path id="DejaVuSans-66" d="M2375 4863v-479h-550q-309 0-430-125-120-125-120-450v-309h947v-447h-947V0H697v3053H147v447h550v244q0 584 272 851 272 268 862 268h544z" transform="scale(.01563)"/></defs><use xlink:href="#DejaVuSans-66"/><use xlink:href="#DejaVuSans-72" x="35.205"/><use xlink:href="#DejaVuSans-61" x="76.318"/><use xlink:href="#DejaVuSans-70" x="137.598"/><use xlink:href="#DejaVuSans-70" x="201.074"/><use xlink:href="#DejaVuSans-65" x="264.551"/><use xlink:href="#DejaVuSans-2f" x="326.074"/><use xlink:href="#DejaVuSans-63" x="359.766"/><use xlink:href="#DejaVuSans-68" x="414.746"/><use xlink:href="#DejaVuSans-61" x="478.125"/><use xlink:href="#DejaVuSans-72" x="539.404"/><use xlink:href="#DejaVuSans-74" x="580.518"/><use xlink:href="#DejaVuSans-73" x="619.727"/></g><g style="fill:#bcbd22" transform="matrix(.14 0 0 -.14 465.907 255.476)" id="text_23"><defs><path id="DejaVuSans-67" d="M2906 1791q0 625-258 968-257 344-723 344-462 0-720-344-258-343-258-968 0-622 258-966t720-344q466 0 723 344 258 344 258 966zm575-1357q0-893-397-1329-396-436-1215-436-303 0-572 45t-522 139v559q253-137 500-202 247-66 503-66 566 0 847 295t281 892v285q-178-310-456-463T1784 0Q1141 0 747 490 353 981 353 1791q0 812 394 1302 394 491 1037 491 388 0 666-153t456-462v531h575V434z" transform="scale(.01563)"/><path id="DejaVuSans-6e" d="M3513 2113V0h-575v2094q0 497-194 743-194 247-581 247-466 0-735-297-269-296-269-809V0H581v3500h578v-544q207 316 486 472 280 156 646 156 603 0 912-373 310-373 310-1098z" transform="scale(.01563)"/><path id="DejaVuSans-6b" d="M581 4863h578V1991l1716 1509h734L1753 1863 3688 0h-750L1159 1709V0H581v4863z" transform="scale(.01563)"/><path id="DejaVuSans-7a" d="M353 3500h2731v-525L922 459h2162V0H275v525l2163 2516H353v459z" transform="scale(.01563)"/></defs><use xlink:href="#DejaVuSans-67"/><use xlink:href="#DejaVuSans-69" x="63.477"/><use xlink:href="#DejaVuSans-6f" x="91.26"/><use xlink:href="#DejaVuSans-6e" x="152.441"/><use xlink:href="#DejaVuSans-6b" x="215.82"/><use xlink:href="#DejaVuSans-75" x="270.605"/><use xlink:href="#DejaVuSans-6e" x="333.984"/><use xlink:href="#DejaVuSans-7a" x="397.363"/><use xlink:href="#DejaVuSans-2f" x="449.854"/><use xlink:href="#DejaVuSans-63" x="483.545"/><use xlink:href="#DejaVuSans-68" x="538.525"/><use xlink:href="#DejaVuSans-61" x="601.904"/><use xlink:href="#DejaVuSans-72" x="663.184"/><use xlink:href="#DejaVuSans-74" x="704.297"/><use xlink:href="#DejaVuSans-69" x="743.506"/><use xlink:href="#DejaVuSans-73" x="771.289"/><use xlink:href="#DejaVuSans-74" x="823.389"/><use xlink:href="#DejaVuSans-2d" x="862.598"/><use xlink:href="#DejaVuSans-6a" x="898.682"/><use xlink:href="#DejaVuSans-73" x="926.465"/></g><g style="fill:#17becf" transform="matrix(.14 0 0 -.14 465.907 269.476)" id="text_24"><defs><path id="DejaVuSans-44" d="M1259 4147V519h763q966 0 1414 437 448 438 448 1382 0 937-448 1373t-1414 436h-763zm-631 519h1297q1356 0 1990-564 635-564 635-1764 0-1207-638-1773Q3275 0 1925 0H628v4666z" transform="scale(.01563)"/><path id="DejaVuSans-42" d="M1259 2228V519h1013q509 0 754 211 246 211 246 645 0 438-246 645-245 208-754 208H1259zm0 1919V2741h935q462 0 688 173 227 174 227 530 0 353-227 528-226 175-688 175h-935zm-631 519h1613q722 0 1112-300 391-300 391-853 0-429-200-682t-588-315q466-100 724-418 258-317 258-792 0-625-425-966Q3088 0 2303 0H628v4666z" transform="scale(.01563)"/><path id="DejaVuSans-76" d="M191 3500h609L1894 563l1094 2937h609L2284 0h-781L191 3500z" transform="scale(.01563)"/></defs><use xlink:href="#DejaVuSans-44"/><use xlink:href="#DejaVuSans-6d" x="77.002"/><use xlink:href="#DejaVuSans-69" x="174.414"/><use xlink:href="#DejaVuSans-74" x="202.197"/><use xlink:href="#DejaVuSans-72" x="241.406"/><use xlink:href="#DejaVuSans-79" x="282.52"/><use xlink:href="#DejaVuSans-42" x="341.699"/><use xlink:href="#DejaVuSans-61" x="410.303"/><use xlink:href="#DejaVuSans-72" x="471.582"/><use xlink:href="#DejaVuSans-61" x="512.695"/><use xlink:href="#DejaVuSans-6e" x="573.975"/><use xlink:href="#DejaVuSans-6f" x="637.354"/><use xlink:href="#DejaVuSans-76" x="698.535"/><use xlink:href="#DejaVuSans-73" x="757.715"/><use xlink:href="#DejaVuSans-6b" x="809.814"/><use xlink:href="#DejaVuSans-69" x="867.725"/><use xlink:href="#DejaVuSans-79" x="895.508"/><use xlink:href="#DejaVuSans-2f" x="954.688"/><use xlink:href="#DejaVuSans-72" x="988.379"/><use xlink:href="#DejaVuSans-61" x="1029.492"/><use xlink:href="#DejaVuSans-70" x="1090.771"/><use xlink:href="#DejaVuSans-68" x="1154.248"/><use xlink:href="#DejaVuSans-61" x="1217.627"/><use xlink:href="#DejaVuSans-65" x="1278.906"/><use xlink:href="#DejaVuSans-6c" x="1340.43"/></g><g style="fill:#aec7e8" transform="matrix(.14 0 0 -.14 465.907 283.476)" id="text_25"><use xlink:href="#DejaVuSans-68"/><use xlink:href="#DejaVuSans-69" x="63.379"/><use xlink:href="#DejaVuSans-67" x="91.162"/><use xlink:href="#DejaVuSans-68" x="154.639"/><use xlink:href="#DejaVuSans-63" x="218.018"/><use xlink:href="#DejaVuSans-68" x="272.998"/><use xlink:href="#DejaVuSans-61" x="336.377"/><use xlink:href="#DejaVuSans-72" x="397.656"/><use xlink:href="#DejaVuSans-74" x="438.77"/><use xlink:href="#DejaVuSans-73" x="477.979"/><use xlink:href="#DejaVuSans-2f" x="530.078"/><use xlink:href="#DejaVuSans-68" x="563.77"/><use xlink:href="#DejaVuSans-69" x="627.148"/><use xlink:href="#DejaVuSans-67" x="654.932"/><use xlink:href="#DejaVuSans-68" x="718.408"/><use xlink:href="#DejaVuSans-63" x="781.787"/><use xlink:href="#DejaVuSans-68" x="836.768"/><use xlink:href="#DejaVuSans-61" x="900.146"/><use xlink:href="#DejaVuSans-72" x="961.426"/><use xlink:href="#DejaVuSans-74" x="1002.539"/><use xlink:href="#DejaVuSans-73" x="1041.748"/></g><g style="fill:#ffbb78" transform="matrix(.14 0 0 -.14 465.907 297.476)" id="text_26"><defs><path id="DejaVuSans-46" d="M628 4666h2681v-532H1259V2759h1850v-531H1259V0H628v4666z" transform="scale(.01563)"/><path id="DejaVuSans-4c" d="M628 4666h631V531h2272V0H628v4666z" transform="scale(.01563)"/></defs><use xlink:href="#DejaVuSans-46"/><use xlink:href="#DejaVuSans-6f" x="53.895"/><use xlink:href="#DejaVuSans-72" x="115.076"/><use xlink:href="#DejaVuSans-6d" x="154.439"/><use xlink:href="#DejaVuSans-69" x="251.852"/><use xlink:href="#DejaVuSans-64" x="279.635"/><use xlink:href="#DejaVuSans-61" x="343.111"/><use xlink:href="#DejaVuSans-62" x="404.391"/><use xlink:href="#DejaVuSans-6c" x="467.867"/><use xlink:href="#DejaVuSans-65" x="495.65"/><use xlink:href="#DejaVuSans-4c" x="557.174"/><use xlink:href="#DejaVuSans-61" x="612.887"/><use xlink:href="#DejaVuSans-62" x="674.166"/><use xlink:href="#DejaVuSans-73" x="737.643"/><use xlink:href="#DejaVuSans-2f" x="789.742"/><use xlink:href="#DejaVuSans-76" x="823.434"/><use xlink:href="#DejaVuSans-69" x="882.613"/><use xlink:href="#DejaVuSans-63" x="910.396"/><use xlink:href="#DejaVuSans-74" x="965.377"/><use xlink:href="#DejaVuSans-6f" x="1004.586"/><use xlink:href="#DejaVuSans-72" x="1065.768"/><use xlink:href="#DejaVuSans-79" x="1106.881"/></g><g style="fill:#98df8a" transform="matrix(.14 0 0 -.14 465.907 311.476)" id="text_27"><use xlink:href="#DejaVuSans-63"/><use xlink:href="#DejaVuSans-33" x="54.98"/><use xlink:href="#DejaVuSans-6a" x="118.604"/><use xlink:href="#DejaVuSans-73" x="146.387"/><use xlink:href="#DejaVuSans-2f" x="198.486"/><use xlink:href="#DejaVuSans-63" x="232.178"/><use xlink:href="#DejaVuSans-33" x="287.158"/></g><g style="fill:#ff9896" transform="matrix(.14 0 0 -.14 465.907 325.476)" id="text_28"><defs><path id="DejaVuSans-53" d="M3425 4513v-616q-359 172-678 256-319 85-616 85-515 0-795-200t-280-569q0-310 186-468 186-157 705-254l381-78q706-135 1042-474t336-907q0-679-455-1029Q2797-91 1919-91q-331 0-705 75-373 75-773 222v650q384-215 753-325 369-109 725-109 540 0 834 212 294 213 294 607 0 343-211 537t-692 291l-385 75q-706 140-1022 440-315 300-315 835 0 619 436 975t1201 356q329 0 669-60 341-59 697-177z" transform="scale(.01563)"/></defs><use xlink:href="#DejaVuSans-43"/><use xlink:href="#DejaVuSans-65" x="69.824"/><use xlink:href="#DejaVuSans-73" x="131.348"/><use xlink:href="#DejaVuSans-69" x="183.447"/><use xlink:href="#DejaVuSans-75" x="211.23"/><use xlink:href="#DejaVuSans-6d" x="274.609"/><use xlink:href="#DejaVuSans-47" x="372.021"/><use xlink:href="#DejaVuSans-53" x="449.512"/><use xlink:href="#DejaVuSans-2f" x="512.988"/><use xlink:href="#DejaVuSans-63" x="546.68"/><use xlink:href="#DejaVuSans-65" x="601.66"/><use xlink:href="#DejaVuSans-73" x="663.184"/><use xlink:href="#DejaVuSans-69" x="715.283"/><use xlink:href="#DejaVuSans-75" x="743.066"/><use xlink:href="#DejaVuSans-6d" x="806.445"/></g><g style="fill:#c5b0d5" transform="matrix(.14 0 0 -.14 465.907 339.476)" id="text_29"><use xlink:href="#DejaVuSans-75"/><use xlink:href="#DejaVuSans-62" x="63.379"/><use xlink:href="#DejaVuSans-65" x="126.855"/><use xlink:href="#DejaVuSans-72" x="188.379"/><use xlink:href="#DejaVuSans-2f" x="229.492"/><use xlink:href="#DejaVuSans-72" x="263.184"/><use xlink:href="#DejaVuSans-65" x="302.047"/><use xlink:href="#DejaVuSans-61" x="363.57"/><use xlink:href="#DejaVuSans-63" x="424.85"/><use xlink:href="#DejaVuSans-74" x="479.83"/><use xlink:href="#DejaVuSans-2d" x="519.039"/><use xlink:href="#DejaVuSans-76" x="552.498"/><use xlink:href="#DejaVuSans-69" x="611.678"/><use xlink:href="#DejaVuSans-73" x="639.461"/></g><g style="fill:#b0b0b0" transform="matrix(.09716 0 0 -.09716 98.073 337.59)" id="text_30"><defs><path id="DejaVuSans-40" d="M2381 1678q0-447 222-702 222-254 610-254 384 0 604 256 221 256 221 700 0 438-225 695-225 258-607 258-378 0-602-256-223-256-223-697zm1703-934q-187-241-429-355t-564-114q-538 0-874 389t-336 1014q0 625 337 1015 338 391 873 391 322 0 565-117 244-117 428-354v409h447V722q457 69 714 417 258 349 258 902 0 334-99 628-98 294-298 544-325 409-792 626t-1017 217q-384 0-738-102-353-101-653-301-490-319-767-836-276-517-276-1120 0-497 179-932 180-434 521-765 328-325 759-495 431-171 922-171 403 0 792 136t714 389l281-347q-390-303-851-464t-936-161q-578 0-1091 205-512 205-912 595Q841 78 631 592q-209 514-209 1105 0 569 212 1084 213 516 607 907 403 396 931 607t1119 211q662 0 1229-272 568-271 952-771 234-307 357-666 124-359 124-744 0-822-497-1297T4084 263v481z" transform="scale(.01563)"/><path id="DejaVuSans-7c" d="M1344 4891v-6400H813v6400h531z" transform="scale(.01563)"/><path id="DejaVuSans-4e" d="M628 4666h850L3547 763v3903h612V0h-850L1241 3903V0H628v4666z" transform="scale(.01563)"/><path id="DejaVuSans-f6" d="M1959 3097q-462 0-731-361t-269-989q0-628 267-989 268-361 733-361 460 0 728 362 269 363 269 988 0 622-269 986-268 364-728 364zm0 487q750 0 1178-488 429-487 429-1349 0-859-429-1349Q2709-91 1959-91q-753 0-1180 489-426 490-426 1349 0 862 426 1349 427 488 1180 488zm295 1266h634v-631h-634v631zm-1222 0h634v-631h-634v631z" transform="scale(.01563)"/><path id="DejaVuSans-59" d="M-13 4666h679l1293-1919 1285 1919h678L2272 2222V0h-634v2222L-13 4666z" transform="scale(.01563)"/></defs><use xlink:href="#DejaVuSans-40"/><use xlink:href="#DejaVuSans-6e" x="100"/><use xlink:href="#DejaVuSans-73" x="163.379"/><use xlink:href="#DejaVuSans-63" x="215.479"/><use xlink:href="#DejaVuSans-68" x="270.459"/><use xlink:href="#DejaVuSans-6c" x="333.838"/><use xlink:href="#DejaVuSans-6f" x="361.621"/><use xlink:href="#DejaVuSans-65" x="422.803"/><use xlink:href="#DejaVuSans-20" x="484.326"/><use xlink:href="#DejaVuSans-2f" x="516.113"/><use xlink:href="#DejaVuSans-20" x="549.805"/><use xlink:href="#DejaVuSans-67" x="581.592"/><use xlink:href="#DejaVuSans-69" x="645.068"/><use xlink:href="#DejaVuSans-74" x="672.852"/><use xlink:href="#DejaVuSans-68" x="712.061"/><use xlink:href="#DejaVuSans-75" x="775.439"/><use xlink:href="#DejaVuSans-62" x="838.818"/><use xlink:href="#DejaVuSans-2d" x="902.295"/><use xlink:href="#DejaVuSans-74" x="938.379"/><use xlink:href="#DejaVuSans-72" x="977.588"/><use xlink:href="#DejaVuSans-65" x="1016.451"/><use xlink:href="#DejaVuSans-6e" x="1077.975"/><use xlink:href="#DejaVuSans-64" x="1141.354"/><use xlink:href="#DejaVuSans-73" x="1204.83"/><use xlink:href="#DejaVuSans-20" x="1256.93"/><use xlink:href="#DejaVuSans-7c" x="1288.717"/><use xlink:href="#DejaVuSans-20" x="1322.408"/><use xlink:href="#DejaVuSans-4e" x="1354.195"/><use xlink:href="#DejaVuSans-69" x="1429"/><use xlink:href="#DejaVuSans-63" x="1456.783"/><use xlink:href="#DejaVuSans-6f" x="1511.764"/><use xlink:href="#DejaVuSans-20" x="1572.945"/><use xlink:href="#DejaVuSans-53" x="1604.732"/><use xlink:href="#DejaVuSans-63" x="1668.209"/><use xlink:href="#DejaVuSans-68" x="1723.189"/><use xlink:href="#DejaVuSans-6c" x="1786.568"/><use xlink:href="#DejaVuSans-f6" x="1814.352"/><use xlink:href="#DejaVuSans-6d" x="1875.533"/><use xlink:href="#DejaVuSans-65" x="1972.945"/><use xlink:href="#DejaVuSans-72" x="2034.469"/><use xlink:href="#DejaVuSans-20" x="2075.582"/><use xlink:href="#DejaVuSans-7c" x="2107.369"/><use xlink:href="#DejaVuSans-20" x="2141.061"/><use xlink:href="#DejaVuSans-43" x="2172.848"/><use xlink:href="#DejaVuSans-43" x="2242.672"/><use xlink:href="#DejaVuSans-20" x="2312.496"/><use xlink:href="#DejaVuSans-42" x="2344.283"/><use xlink:href="#DejaVuSans-59" x="2407.387"/></g><path d="m272.268 303.553 2.165-.003 2.165-.007 2.096-.013 2.165-.023 2.095-.577 2.165-.873 2.166-.364 2.025-.29 2.165-.146 2.096-.169 2.165-.148 2.095-.877 2.165-.138 2.166-.502 2.095-.233 2.165-.287 2.096-.866 2.165-2.92 2.165-.346 1.956-.305 2.165-.71 2.095-.369 2.165-.38 2.096-.373 2.165-.405 2.165-.558 2.096-.441 2.165-.387 2.095-.3 2.165-.212 2.166-.336 1.955-.374 2.166-.38 2.095-.273 2.165-.267 2.095-.279 2.166-.236 2.165-.21 2.095-.256 2.165-.23 2.096-.275 2.165-.274 2.165-.217 1.956-.26 2.165-.243 2.095-.263 2.166-.262 2.095-.218 2.165-.222 2.165-.195 2.096-.172 2.165-.233 2.095-.156 2.166-.17 2.165-.184 2.025-.197 2.166-.2 2.095-.174 2.165-.259 2.095-.256 2.166-.223 2.165-.22 2.095-.167 2.165-.174 2.096-.225 2.165-.213 2.165-.208 1.956-.212 2.165-.213 2.096-.174 2.165-.154 2.095-.21 2.165-.159 2.166-.2 2.095-.153 2.165-.139 2.095-.179 2.166-.172 2.165-.169 1.956-.23 2.165-.256 2.095-.2 2.165-.185 2.096-.156 2.165-.264 2.165-.202" clip-path="url(#p044ee7531e)" style="fill:none;stroke:#ffbb78;stroke-width:1.5;stroke-linecap:square" id="line2d_23"/><path d="m142.635 303.553 2.095-.92 57.483-1.201 8.59-.034 4.122-.279 23.328-1.16 4.26-.39 8.592-1.21 2.095-1.485 6.426-.96 2.165-.36 10.477-1.109 19.207-2.526 4.26-.54 36.18-4.476 4.261-.756 6.287-.925 6.355-.712 29.824-3.395 29.824-2.274 19.068-1.325 4.26-.34 16.973-1.036 4.26-.361 2.166-.09h0" clip-path="url(#p044ee7531e)" style="fill:none;stroke:#aec7e8;stroke-width:1.5;stroke-linecap:square" id="line2d_24"/><path d="m98.073 303.553 2.095-1.256 14.808-1.39 4.26-.331 6.426-.528 16.973-1.778 27.589-3.14 4.33-.385 4.26-.433 14.878-1.089 6.425-.243 12.642-.359 6.426-.84 8.521-.902 8.591-1.015 21.164-2.152 4.33-.394 19.068-2.04 10.616-1.03 8.521-.878 29.755-2.69 10.546-.73 14.947-1.089 21.233-1.214 6.426-.364 23.398-1.079 48.892-1.363h0" clip-path="url(#p044ee7531e)" style="fill:none;stroke:#17becf;stroke-width:1.5;stroke-linecap:square" id="line2d_25"/><path d="m238.253 303.553 2.165-.02 2.096-.003h2.165l2.095-.003 2.165-.028 2.166-3.443 2.095-5.949 2.165-.576 2.096-1.263 2.165-1.356 2.165-.594 1.956-.392 2.165-.366 2.095-.372 2.165-.407 2.096-.472 2.165-.358 2.165-.39 2.096-.45 2.165-.413 2.095-.384 2.165-.33 2.166-.447 2.025-.435 2.165-.361 2.096-.33 2.165-.365 2.095-.353 2.165-.308 2.166-.343 2.095-.259 2.165-.3 2.096-.338 2.165-.335 2.165-.338 1.956-.29 2.165-.312 2.095-.298 2.165-.284 2.096-.243 2.165-.29 2.165-.328 2.096-.387 2.165-.253 2.095-.328 2.165-.264 2.166-.277 1.955-.238 2.166-.254 2.095-.235 2.165-.226 2.095-.297 2.166-.233 2.165-.238 2.095-.218 2.165-.22 2.096-.216 2.165-.171 2.165-.218 1.956-.146 2.165-.195 2.095-.166 2.166-.167 2.095-.113 2.165-.148 2.165-.151 2.096-.134 2.165-.169 2.095-.125 2.166-.133 2.165-.157 2.025-.128 2.166-.15 2.095-.24 2.165-.191 2.095-.108 2.166-.095 2.165-.118 2.095-.143 2.165-.092 2.096-.103 2.165-.092 2.165-.077 1.956-.102 2.165-.185 2.096-.092 2.165-.077 2.095-.087 2.165-.095 2.166-.061 2.095-.072 2.165-.077 2.095-.084 2.166-.062 2.165-.107 1.956-.07 2.165-.064 2.095-.056 2.165-.092 2.096-.064 2.165-.057 2.165-.015" clip-path="url(#p044ee7531e)" style="fill:none;stroke:#bcbd22;stroke-width:1.5;stroke-linecap:square" id="line2d_26"/><path d="m329.75 303.553 2.166-2.839 2.095-20.037 2.165-1.493 2.166-.72 1.955-.53 2.166-.882 2.095-.276 2.165-.236 2.095-.192 2.166-.141 2.165-.172 2.095-.182 2.165-1.204 2.096-.52 2.165-.382 2.165-.325 1.956-.269 2.165-.261 2.095-.22 2.166-.185 2.095-.172 2.165-.881 2.165-.208 2.096-.26 2.165-.188 2.095-.118 2.166-.061 2.165-.113 2.025-.092 2.166-.136 2.095-.169 2.165-.146 2.095-.384 2.166-.144 2.165-.118 2.095-.146 2.165-.118 2.096-.117 2.165-.26 2.165-.12 1.956-.138 2.165-.128 2.096-.1 2.165-.128 2.095-.09 2.165-.115 2.166-.105 2.095-.187 2.165-.102 2.095-.075 2.166-.115 2.165-.087 1.956-.072 2.165-.287 2.095-.177 2.165-.138 2.096-.105 2.165-.138 2.165-.095" clip-path="url(#p044ee7531e)" style="fill:none;stroke:#7f7f7f;stroke-width:1.5;stroke-linecap:square" id="line2d_27"/><path d="m280.859 303.553 2.095-7.778 2.165-1.227 2.166-.48 2.025-.481 2.165-.456 2.096-.474 2.165-.382 2.095-.44 2.165-.362 2.166-.422 2.095-.423 2.165-.32 2.096-.27 2.165-.253 2.165-.205 1.956-.356 2.165-.407 2.095-.341 2.165-.27 2.096-.391 2.165-.382 2.165-.397 2.096-.277 2.165-.366 2.095-.453 2.165-.415 2.166-.526 1.955-.568 2.166-.464 2.095-.423 2.165-.456 2.095-.44 2.166-.456 2.165-.4 2.095-.443 2.165-.456 2.096-.423 2.165-.284 2.165-.349 1.956-.333 2.165-.428 2.095-.589 2.166-.456 2.095-.384 2.165-.341 2.165-.32 2.096-.262 2.165-.39 2.095-.199 2.166-.22 2.165-.246 2.025-.282 2.166-.307 2.095-.692 2.165-.497 2.095-.397 2.166-.328 2.165-.346 2.095-.315 2.165-.351 2.096-.354 2.165-.31 2.165-.322 1.956-.349 2.165-.515 2.096-.282 2.165-.264 2.095-1.321 2.165-.408 2.166-.248 2.095-.223 2.165-.213 2.095-.274 2.166-.34 2.165-.226 1.956-.244 2.165-.292 2.095-.207 2.165-.274 2.096-.262 2.165-.207 2.165-.226" clip-path="url(#p044ee7531e)" style="fill:none;stroke:#e377c2;stroke-width:1.5;stroke-linecap:square" id="line2d_28"/><path d="m278.694 303.553 2.165-.003h4.26l2.166-.033 2.025-.464 2.165-.082 2.096-.525 2.165-.195 2.095-.14 2.165-.106 2.166-6.015 2.095-.858 2.165-.587 2.096-.712 2.165-.723 2.165-.658 1.956-.628 2.165-.673 2.095-.713 2.165-.668 2.096-.623 2.165-.658 2.165-.71 2.096-.687 2.165-.637 2.095-.823 2.165-.602 2.166-.733 1.955-.645 2.166-.712 2.095-1.005 2.165-.556 2.095-.568 2.166-.544 2.165-.666 2.095-.566 2.165-.732 2.096-.49 2.165-.469 2.165-.512 1.956-.559 2.165-.707 2.095-.57 2.166-.654 2.095-.472 2.165-.522 2.165-.561 2.096-.449 2.165-.433 2.095-.422 2.166-.513 2.165-.522 2.025-.497 2.166-.62 2.095-.692 2.165-.633 2.095-.533 2.166-.66 2.165-.539 2.095-.517 2.165-.528 2.096-.54 2.165-.541 2.165-.559 1.956-.479 2.165-.543 2.096-.517 2.165-.415 2.095-.47 2.165-.506 2.166-.47 2.095-.468 2.165-.397 2.095-.433 2.166-.497 2.165-.408 1.956-.42 2.165-.445 2.095-.456 2.165-.495 2.096-.459 2.165-.479 2.165-.41" clip-path="url(#p044ee7531e)" style="fill:none;stroke:#8c564b;stroke-width:1.5;stroke-linecap:square" id="line2d_29"/><path d="m255.365 303.553 2.096-1.801 2.165-10.33 2.165-.822 1.956-.285 2.165-.663 2.095-.38 2.165-.437 2.096-.267 2.165-.287 2.165-.3 2.096-.44 2.165-.29 2.095-.253 2.165-.392 2.166-.315 2.025-.313 2.165-.415 2.096-.34 2.165-.544 2.095-.41 2.165-.504 2.166-.456 2.095-.387 2.165-.461 2.096-.513 2.165-.517 2.165-6.859 1.956-.794 2.165-.756 2.095-.658 2.165-.466 2.096-.669 2.165-.54 2.165-.961 2.096-.69 2.165-.691 2.095-.73 2.165-.671 2.166-.861 1.955-.625 2.166-.815 2.095-4.711 2.165-1.292 2.095-1.23 2.166-1.465 2.165-1.14 2.095-.781 2.165-.702 2.096-2.096 2.165-1.163 2.165-1.158 1.956-1.073 2.165-1.3 2.095-1.145 2.166-.924 2.095-.838 2.165-.915 2.165-1.032 2.096-.997 2.165-2.054 2.095-2.514 2.166-1.427 2.165-1.352 2.025-1.356 2.166-1.675 2.095-1.632 2.165-1.555 2.095-1.476 2.166-1.483 2.165-1.197 2.095-1.096 2.165-1.02 2.096-1.575 2.165-1.281 2.165-1.486 1.956-1.504 2.165-1.514 2.096-1.17 2.165-1.2 2.095-1.255 2.165-1.192 2.166-1.245 2.095-1.222 2.165-1.094 2.095-1.217 2.166-1.419 2.165-2.695 1.956-11.078 2.165-3.789 2.095-2.493 2.165-2.21 2.096-1.812 2.165-2.198 2.165-1.827" clip-path="url(#p044ee7531e)" style="fill:none;stroke:#9467bd;stroke-width:1.5;stroke-linecap:square" id="line2d_30"/><path d="m219.185 303.553 2.096-.062 2.165-.799 2.165-.29 2.095-.15 2.166-.106 2.095-.376 2.165-.259 2.165-.664 1.956-.133 2.165-.238 2.096-.62 2.165-.325 2.095-.467 2.165-.922 2.166-.528 2.095-.4 2.165-.425 2.096-.632 2.165-.787 2.165-4.857 1.956-.836 2.165-.827 2.095-.617 2.165-.851 2.096-.794 2.165-.805 2.165-.73 2.096-.671 2.165-.643 2.095-.794 2.165-1.23 2.166-2.224 2.025-.748 2.165-1.23 2.096-1.094 2.165-1.15 2.095-1.101 2.165-1.11 2.166-1.36 2.095-1.138 2.165-.973 2.096-1.32 2.165-1.37 2.165-.917 1.956-1.235 2.165-1.691 2.095-1.506 2.165-1.535 2.096-1.655 2.165-1.806 2.165-1.74 2.096-1.522 2.165-1.421 2.095-2.214 2.165-1.775 2.166-4.78 1.955-1.487 2.166-2.528 2.095-2.022 2.165-1.632 2.095-1.621 2.166-1.486 2.165-1.586 2.095-1.56 2.165-1.335 2.096-1.47 2.165-1.392 2.165-1.247 1.956-.874 2.165-1.476 2.095-1.855 2.166-1.624 2.095-1.458 2.165-1.621 2.165-1.517 2.096-1.58 2.165-1.85 2.095-1.712 2.166-1.826 2.165-1.163 2.025-1.112 2.166-1.625 2.095-1.562 2.165-1.468 2.095-1.363 2.166-1.335 2.165-1.084 2.095-1.14 2.165-1.055 2.096-1.156 2.165-1.224 2.165-1.594 1.956-1.312 2.165-1.216 2.096-1.31 2.165-1.165 2.095-1.017 2.165-1 2.166-1.096 2.095-1.558 2.165-.889 2.095-1.168 2.166-.989 2.165-.973 1.956-1.376 2.165-1.227 2.095-1.14 2.165-1.156 2.096-1.07 2.165-1.146 2.165-1.101" clip-path="url(#p044ee7531e)" style="fill:none;stroke:#d62728;stroke-width:1.5;stroke-linecap:square" id="line2d_31"/><path d="m212.76 303.553 2.165-6.912 2.095-1.166 2.165-.792 2.096-.937 2.165-.981 2.165-.756 2.095-.75 2.166-.933 2.095-.884 2.165-.618 2.165-.814 1.956-.848 2.165-.74 2.096-.62 2.165-.587 2.095-1.855 2.165-3.853 2.166-1.204 2.095-1.018 2.165-1.199 2.096-.912 2.165-.853 2.165-1.083 1.956-.943 2.165-1.166 2.095-.945 2.165-1.03 2.096-1.05 2.165-1.033 2.165-1.01 2.096-.917 2.165-1.122 2.095-1.009 2.165-1.035 2.166-1.107 2.025-.886 2.165-1.09 2.096-6.391 2.165-3.251 2.095-1.806 2.165-1.484 2.166-1.488 2.095-1.568 2.165-1.412 2.096-1.588 2.165-1.458 2.165-1.447 1.956-1.52 2.165-1.972 2.095-1.48 2.165-1.569 2.096-1.478 2.165-1.517 2.165-1.46 2.096-1.514 2.165-1.512 2.095-1.463 2.165-1.475 2.166-1.573 1.955-1.466 2.166-1.506 2.095-1.483 2.165-1.307 2.095-2.216 2.166-1.72 2.165-1.47 2.095-1.406 2.165-1.284 2.096-1.311 2.165-1.358 2.165-1.353 1.956-1.306 2.165-1.673 2.095-1.456 2.166-1.457 2.095-1.2 2.165-1.283 2.165-1.155 2.096-1.163 2.165-1.25 2.095-1.046 2.166-1.068 2.165-1.063 2.025-1.115 2.166-1.301 2.095-1.665 2.165-1.402 2.095-1.365 2.166-1.053 2.165-.997 2.095-.935 2.165-1.063 2.096-.987 2.165-1.083 2.165-1.066 1.956-1.094 2.165-1.073 2.096-2.12 2.165-1.029 2.095-.943 2.165-.86 2.166-.874 2.095-.838 2.165-.97 2.095-.857 2.166-.796 2.165-.938 1.956-.84 2.165-.787 2.095-.794 2.165-.958 2.096-.881 2.165-.887 2.165-.891" clip-path="url(#p044ee7531e)" style="fill:none;stroke:#2ca02c;stroke-width:1.5;stroke-linecap:square" id="line2d_32"/><path d="m136.209 303.553 2.165-7.227 14.947-3.559 2.095-.615 2.165-.446 4.121-1.255 4.26-1.409 12.853-3.269 2.095-.515 4.33-.858 6.286-1.348 2.166-.417 6.425-.753 6.356-.36 4.33-.15 1.956-.666 4.261-2.406 17.112-6.48 4.121-1.36 14.947-5.362 2.165-1.037 4.26-1.686 19.069-9.182 10.616-5.531 2.165-1.445 6.356-4.68 6.426-4.556 2.165-1.9 6.426-4.807 4.12-3.602 6.357-4.937 4.33-3.064 2.096-1.519 2.165-1.827 2.095-2.098 4.33-4.634 1.956-1.727 4.26-4.542 2.166-2.094 2.095-1.839 4.33-4.27 6.357-5.837 2.165-2.51 2.165-2.152 1.956-1.691 4.26-5.219 2.166-2.5 4.26-4.128 2.165-2.17 2.096-1.942 4.26-4.64 2.166-2.097 2.165-1.776 2.025-1.378 2.166-1.868 6.355-6.494 2.166-1.952 2.165-1.778 6.356-5.726 4.33-4.602 8.382-12.058 2.095-2.311 2.165-3.164 4.26-4.3 2.166-1.91 2.095-3.129 2.166-2.713 2.165-3.558 1.956-2.65 2.165-3.122 2.095-2.685 8.591-9.83h0" clip-path="url(#p044ee7531e)" style="fill:none;stroke:#ff7f0e;stroke-width:1.5;stroke-linecap:square" id="line2d_33"/><path d="m149.06 303.553 2.096-13.186 2.165-.743 4.26-1.128 2.166-.71 6.216-2.561 8.59-2.8 2.096-.769 12.782-3.681 4.26-.905 6.426-1.02 10.687-.768 1.955-1.32 6.426-5.971 4.26-3.528 2.166-2.267 4.26-3.68 2.096-1.68 2.165-2.016 4.121-4.086 2.165-2.58 2.096-3.005 2.165-2.39 2.095-2.698 8.591-9.154 2.096-2.114 6.286-7.306 4.26-5.332 4.26-4.957 4.331-4.747 4.26-4.555 2.096-2.565 4.33-4.993 2.026-2.552 6.426-8.654 2.095-3.835 4.33-5.675 2.096-2.7 2.165-2.541 6.426-8.555 1.956-2.89 2.165-4.07 2.095-3.098 2.165-2.777 2.096-2.357 6.426-7.885 2.165-2.316 2.095-2.424 2.165-2.175 2.166-2.472 1.955-2.014 2.166-3.756 2.095-2.656 2.165-2.352 8.521-8.342 2.165-1.967 6.426-6.336 1.956-1.76 2.165-2.372 4.26-4.125 2.096-1.722 6.426-5.93 6.426-4.753 4.19-2.567 4.26-3.284 4.261-3.231 2.166-1.325 2.165-2.172 2.095-1.396 2.165-1.148 12.643-7.537 2.165-1.063 2.095-1.327 4.33-2.07 2.096-2.083 2.165-1.015 2.095-1.18 2.166-1.041 2.165-1.391 4.12-2.137 2.096-1.142 2.165-1 2.096-1.209 2.165-1.424 2.165-1.094h0" clip-path="url(#p044ee7531e)" style="fill:none;stroke:#1f77b4;stroke-width:1.5;stroke-linecap:square" id="line2d_34"/></g></g><defs><clipPath id="p044ee7531e"><path d="M98.073 37.441h357.12v266.112H98.073z"/></clipPath></defs></svg>