<svg xmlns:xlink="http://www.w3.org/1999/xlink" width="919.947" height="459.724" viewBox="0 0 689.96 344.793" xmlns="http://www.w3.org/2000/svg"><defs><style>*{stroke-linejoin:round;stroke-linecap:butt}</style></defs><g id="figure_1"><path d="M0 344.793h689.96V0H0v344.793z" style="fill:none" id="patch_1"/><g id="axes_1"><path d="M98.073 301.266h357.12V35.154H98.073v266.112z" style="fill:none" id="patch_2"/><g id="matplotlib.axis_1"><g id="xtick_1"><g id="line2d_1"><defs><path id="mb8a53c6959" d="M0 0v3.5" style="stroke:#b0b0b0;stroke-width:.4"/></defs><use xlink:href="#mb8a53c6959" x="120.491" y="301.266" style="fill:#b0b0b0;stroke:#b0b0b0;stroke-width:.4"/></g><g style="fill:#b0b0b0" transform="matrix(.14 0 0 -.14 102.676 318.904)" id="text_1"><defs><path id="DejaVuSans-32" d="M1228 531h2203V0H469v531q359 372 979 998 621 627 780 809 303 340 423 576 121 236 121 464 0 372-261 606-261 235-680 235-297 0-627-103-329-103-704-313v638q381 153 712 231 332 78 607 78 725 0 1156-363 431-362 431-968 0-288-108-546-107-257-392-607-78-91-497-524-418-433-1181-1211z" transform="scale(.01563)"/><path id="DejaVuSans-30" d="M2034 4250q-487 0-733-480-245-479-245-1442 0-959 245-1439 246-480 733-480 491 0 736 480 246 480 246 1439 0 963-246 1442-245 480-736 480zm0 500q785 0 1199-621 414-620 414-1801 0-1178-414-1799Q2819-91 2034-91q-784 0-1198 620-414 621-414 1799 0 1181 414 1801 414 621 1198 621z" transform="scale(.01563)"/><path id="DejaVuSans-31" d="M794 531h1031v3560L703 3866v575l1116 225h631V531h1031V0H794v531z" transform="scale(.01563)"/><path id="DejaVuSans-34" d="M2419 4116 825 1625h1594v2491zm-166 550h794V1625h666v-525h-666V0h-628v1100H313v609l1940 2957z" transform="scale(.01563)"/></defs><use xlink:href="#DejaVuSans-32"/><use xlink:href="#DejaVuSans-30" x="63.623"/><use xlink:href="#DejaVuSans-31" x="127.246"/><use xlink:href="#DejaVuSans-34" x="190.869"/></g></g><g id="xtick_2"><use xlink:href="#mb8a53c6959" x="158.728" y="301.266" style="fill:#b0b0b0;stroke:#b0b0b0;stroke-width:.4" id="line2d_2"/><g style="fill:#b0b0b0" transform="matrix(.14 0 0 -.14 140.913 318.904)" id="text_2"><defs><path id="DejaVuSans-35" d="M691 4666h2478v-532H1269V2991q137 47 274 70 138 23 276 23 781 0 1237-428 457-428 457-1159 0-753-469-1171Q2575-91 1722-91q-294 0-599 50Q819 9 494 109v635q281-153 581-228t634-75q541 0 856 284 316 284 316 772 0 487-316 771-315 285-856 285-253 0-505-56-251-56-513-175v2344z" transform="scale(.01563)"/></defs><use xlink:href="#DejaVuSans-32"/><use xlink:href="#DejaVuSans-30" x="63.623"/><use xlink:href="#DejaVuSans-31" x="127.246"/><use xlink:href="#DejaVuSans-35" x="190.869"/></g></g><g id="xtick_3"><use xlink:href="#mb8a53c6959" x="196.965" y="301.266" style="fill:#b0b0b0;stroke:#b0b0b0;stroke-width:.4" id="line2d_3"/><g style="fill:#b0b0b0" transform="matrix(.14 0 0 -.14 179.15 318.904)" id="text_3"><defs><path id="DejaVuSans-36" d="M2113 2584q-425 0-674-291-248-290-248-796 0-503 248-796 249-292 674-292t673 292q248 293 248 796 0 506-248 796-248 291-673 291zm1253 1979v-575q-238 112-480 171-242 60-480 60-625 0-955-422-329-422-376-1275 184 272 462 417 279 145 613 145 703 0 1111-427 408-426 408-1160 0-719-425-1154Q2819-91 2113-91q-810 0-1238 620-428 621-428 1799 0 1106 525 1764t1409 658q238 0 480-47t505-140z" transform="scale(.01563)"/></defs><use xlink:href="#DejaVuSans-32"/><use xlink:href="#DejaVuSans-30" x="63.623"/><use xlink:href="#DejaVuSans-31" x="127.246"/><use xlink:href="#DejaVuSans-36" x="190.869"/></g></g><g id="xtick_4"><use xlink:href="#mb8a53c6959" x="235.306" y="301.266" style="fill:#b0b0b0;stroke:#b0b0b0;stroke-width:.4" id="line2d_4"/><g style="fill:#b0b0b0" transform="matrix(.14 0 0 -.14 217.491 318.904)" id="text_4"><defs><path id="DejaVuSans-37" d="M525 4666h3000v-269L1831 0h-659l1594 4134H525v532z" transform="scale(.01563)"/></defs><use xlink:href="#DejaVuSans-32"/><use xlink:href="#DejaVuSans-30" x="63.623"/><use xlink:href="#DejaVuSans-31" x="127.246"/><use xlink:href="#DejaVuSans-37" x="190.869"/></g></g><g id="xtick_5"><use xlink:href="#mb8a53c6959" x="273.543" y="301.266" style="fill:#b0b0b0;stroke:#b0b0b0;stroke-width:.4" id="line2d_5"/><g style="fill:#b0b0b0" transform="matrix(.14 0 0 -.14 255.728 318.904)" id="text_5"><defs><path id="DejaVuSans-38" d="M2034 2216q-450 0-708-241-257-241-257-662 0-422 257-663 258-241 708-241t709 242q260 243 260 662 0 421-258 662-257 241-711 241zm-631 268q-406 100-633 378-226 279-226 679 0 559 398 884 399 325 1092 325 697 0 1094-325t397-884q0-400-227-679-226-278-629-378 456-106 710-416 255-309 255-755 0-679-414-1042Q2806-91 2034-91q-771 0-1186 362-414 363-414 1042 0 446 256 755 257 310 713 416zm-231 997q0-362 226-565 227-203 636-203 407 0 636 203 230 203 230 565 0 363-230 566-229 203-636 203-409 0-636-203-226-203-226-566z" transform="scale(.01563)"/></defs><use xlink:href="#DejaVuSans-32"/><use xlink:href="#DejaVuSans-30" x="63.623"/><use xlink:href="#DejaVuSans-31" x="127.246"/><use xlink:href="#DejaVuSans-38" x="190.869"/></g></g><g id="xtick_6"><use xlink:href="#mb8a53c6959" x="311.779" y="301.266" style="fill:#b0b0b0;stroke:#b0b0b0;stroke-width:.4" id="line2d_6"/><g style="fill:#b0b0b0" transform="matrix(.14 0 0 -.14 293.964 318.904)" id="text_6"><defs><path id="DejaVuSans-39" d="M703 97v575q238-113 481-172 244-59 479-59 625 0 954 420 330 420 377 1277-181-269-460-413-278-144-615-144-700 0-1108 423-408 424-408 1159 0 718 425 1152 425 435 1131 435 810 0 1236-621 427-620 427-1801 0-1103-524-1761Q2575-91 1691-91q-238 0-482 47Q966 3 703 97zm1256 1978q425 0 673 290 249 291 249 798 0 503-249 795-248 292-673 292t-673-292q-248-292-248-795 0-507 248-798 248-290 673-290z" transform="scale(.01563)"/></defs><use xlink:href="#DejaVuSans-32"/><use xlink:href="#DejaVuSans-30" x="63.623"/><use xlink:href="#DejaVuSans-31" x="127.246"/><use xlink:href="#DejaVuSans-39" x="190.869"/></g></g><g id="xtick_7"><use xlink:href="#mb8a53c6959" x="350.016" y="301.266" style="fill:#b0b0b0;stroke:#b0b0b0;stroke-width:.4" id="line2d_7"/><g style="fill:#b0b0b0" transform="matrix(.14 0 0 -.14 332.201 318.904)" id="text_7"><use xlink:href="#DejaVuSans-32"/><use xlink:href="#DejaVuSans-30" x="63.623"/><use xlink:href="#DejaVuSans-32" x="127.246"/><use xlink:href="#DejaVuSans-30" x="190.869"/></g></g><g id="xtick_8"><use xlink:href="#mb8a53c6959" x="388.358" y="301.266" style="fill:#b0b0b0;stroke:#b0b0b0;stroke-width:.4" id="line2d_8"/><g style="fill:#b0b0b0" transform="matrix(.14 0 0 -.14 370.543 318.904)" id="text_8"><use xlink:href="#DejaVuSans-32"/><use xlink:href="#DejaVuSans-30" x="63.623"/><use xlink:href="#DejaVuSans-32" x="127.246"/><use xlink:href="#DejaVuSans-31" x="190.869"/></g></g><g id="xtick_9"><use xlink:href="#mb8a53c6959" x="426.594" y="301.266" style="fill:#b0b0b0;stroke:#b0b0b0;stroke-width:.4" id="line2d_9"/><g style="fill:#b0b0b0" transform="matrix(.14 0 0 -.14 408.78 318.904)" id="text_9"><use xlink:href="#DejaVuSans-32"/><use xlink:href="#DejaVuSans-30" x="63.623"/><use xlink:href="#DejaVuSans-32" x="127.246"/><use xlink:href="#DejaVuSans-32" x="190.869"/></g></g></g><g id="matplotlib.axis_2"><g id="ytick_1"><path d="M98.073 301.266h357.12" clip-path="url(#pfb4c534ffc)" style="fill:none;stroke:#b0b0b0;stroke-width:.3;stroke-linecap:square" id="line2d_10"/><g id="line2d_11"><defs><path id="mbff96439ce" d="M0 0h-3.5" style="stroke:#b0b0b0;stroke-width:.3"/></defs><use xlink:href="#mbff96439ce" x="98.073" y="301.266" style="fill:#b0b0b0;stroke:#b0b0b0;stroke-width:.3"/></g><use xlink:href="#DejaVuSans-30" style="fill:#b0b0b0" transform="matrix(.14 0 0 -.14 82.166 306.585)" id="text_10"/></g><g id="ytick_2"><path d="M98.073 249.23h357.12" clip-path="url(#pfb4c534ffc)" style="fill:none;stroke:#b0b0b0;stroke-width:.3;stroke-linecap:square" id="line2d_12"/><use xlink:href="#mbff96439ce" x="98.073" y="249.23" style="fill:#b0b0b0;stroke:#b0b0b0;stroke-width:.3" id="line2d_13"/><g style="fill:#b0b0b0" transform="matrix(.14 0 0 -.14 55.443 254.549)" id="text_11"><use xlink:href="#DejaVuSans-32"/><use xlink:href="#DejaVuSans-30" x="63.623"/><use xlink:href="#DejaVuSans-30" x="127.246"/><use xlink:href="#DejaVuSans-30" x="190.869"/></g></g><g id="ytick_3"><path d="M98.073 197.194h357.12" clip-path="url(#pfb4c534ffc)" style="fill:none;stroke:#b0b0b0;stroke-width:.3;stroke-linecap:square" id="line2d_14"/><use xlink:href="#mbff96439ce" x="98.073" y="197.194" style="fill:#b0b0b0;stroke:#b0b0b0;stroke-width:.3" id="line2d_15"/><g style="fill:#b0b0b0" transform="matrix(.14 0 0 -.14 55.443 202.513)" id="text_12"><use xlink:href="#DejaVuSans-34"/><use xlink:href="#DejaVuSans-30" x="63.623"/><use xlink:href="#DejaVuSans-30" x="127.246"/><use xlink:href="#DejaVuSans-30" x="190.869"/></g></g><g id="ytick_4"><path d="M98.073 145.158h357.12" clip-path="url(#pfb4c534ffc)" style="fill:none;stroke:#b0b0b0;stroke-width:.3;stroke-linecap:square" id="line2d_16"/><use xlink:href="#mbff96439ce" x="98.073" y="145.158" style="fill:#b0b0b0;stroke:#b0b0b0;stroke-width:.3" id="line2d_17"/><g style="fill:#b0b0b0" transform="matrix(.14 0 0 -.14 55.443 150.477)" id="text_13"><use xlink:href="#DejaVuSans-36"/><use xlink:href="#DejaVuSans-30" x="63.623"/><use xlink:href="#DejaVuSans-30" x="127.246"/><use xlink:href="#DejaVuSans-30" x="190.869"/></g></g><g id="ytick_5"><path d="M98.073 93.122h357.12" clip-path="url(#pfb4c534ffc)" style="fill:none;stroke:#b0b0b0;stroke-width:.3;stroke-linecap:square" id="line2d_18"/><use xlink:href="#mbff96439ce" x="98.073" y="93.122" style="fill:#b0b0b0;stroke:#b0b0b0;stroke-width:.3" id="line2d_19"/><g style="fill:#b0b0b0" transform="matrix(.14 0 0 -.14 55.443 98.44)" id="text_14"><use xlink:href="#DejaVuSans-38"/><use xlink:href="#DejaVuSans-30" x="63.623"/><use xlink:href="#DejaVuSans-30" x="127.246"/><use xlink:href="#DejaVuSans-30" x="190.869"/></g></g><g id="ytick_6"><path d="M98.073 41.086h357.12" clip-path="url(#pfb4c534ffc)" style="fill:none;stroke:#b0b0b0;stroke-width:.3;stroke-linecap:square" id="line2d_20"/><use xlink:href="#mbff96439ce" x="98.073" y="41.086" style="fill:#b0b0b0;stroke:#b0b0b0;stroke-width:.3" id="line2d_21"/><g style="fill:#b0b0b0" transform="matrix(.14 0 0 -.14 46.536 46.405)" id="text_15"><use xlink:href="#DejaVuSans-31"/><use xlink:href="#DejaVuSans-30" x="63.623"/><use xlink:href="#DejaVuSans-30" x="127.246"/><use xlink:href="#DejaVuSans-30" x="190.869"/><use xlink:href="#DejaVuSans-30" x="254.492"/></g></g><g style="fill:#b0b0b0" transform="matrix(.14 0 0 -.14 7.2 11.563)" id="text_16"><defs><path id="DejaVuSans-47" d="M3809 666v1253H2778v519h1656V434q-365-259-806-392-440-133-940-133-1094 0-1712 639-617 640-617 1780 0 1144 617 1783 618 639 1712 639 456 0 867-113 411-112 758-331v-672q-350 297-744 447t-828 150q-857 0-1287-478-429-478-429-1425 0-944 429-1422 430-478 1287-478 334 0 596 58 263 58 472 180z" transform="scale(.01563)"/><path id="DejaVuSans-69" d="M603 3500h575V0H603v3500zm0 1363h575v-729H603v729z" transform="scale(.01563)"/><path id="DejaVuSans-74" d="M1172 4494v-994h1184v-447H1172V1153q0-428 117-550t477-122h590V0h-590q-666 0-919 248-253 249-253 905v1900H172v447h422v994h578z" transform="scale(.01563)"/><path id="DejaVuSans-48" d="M628 4666h631V2753h2294v1913h631V0h-631v2222H1259V0H628v4666z" transform="scale(.01563)"/><path id="DejaVuSans-75" d="M544 1381v2119h575V1403q0-497 193-746 194-248 582-248 465 0 735 297 271 297 271 810v1984h575V0h-575v538q-209-319-486-474-276-155-642-155-603 0-916 375-312 375-312 1097zm1447 2203z" transform="scale(.01563)"/><path id="DejaVuSans-62" d="M3116 1747q0 634-261 995t-717 361q-457 0-718-361t-261-995q0-634 261-995t718-361q456 0 717 361t261 995zM1159 2969q182 312 458 463 277 152 661 152 638 0 1036-506 399-506 399-1331T3314 415Q2916-91 2278-91q-384 0-661 152-276 152-458 464V0H581v4863h578V2969z" transform="scale(.01563)"/><path id="DejaVuSans-73" d="M2834 3397v-544q-243 125-506 187-262 63-544 63-428 0-642-131t-214-394q0-200 153-314t616-217l197-44q612-131 870-370t258-667q0-488-386-773Q2250-91 1575-91q-281 0-586 55T347 128v594q319-166 628-249 309-82 613-82 406 0 624 139 219 139 219 392 0 234-158 359-157 125-692 241l-200 47q-534 112-772 345-237 233-237 639 0 494 350 762 350 269 994 269 318 0 599-47 282-46 519-140z" transform="scale(.01563)"/><path id="DejaVuSans-61" d="M2194 1759q-697 0-966-159t-269-544q0-306 202-486 202-179 548-179 479 0 768 339t289 901v128h-572zm1147 238V0h-575v531q-197-318-491-470T1556-91q-537 0-855 302-317 302-317 808 0 590 395 890 396 300 1180 300h807v57q0 397-261 614t-733 217q-300 0-585-72-284-72-546-216v532q315 122 612 182 297 61 578 61 760 0 1135-394 375-393 375-1193z" transform="scale(.01563)"/><path id="DejaVuSans-72" d="M2631 2963q-97 56-211 82-114 27-251 27-488 0-749-317t-261-911V0H581v3500h578v-544q182 319 472 473 291 155 707 155 59 0 131-8 72-7 159-23l3-590z" transform="scale(.01563)"/></defs><use xlink:href="#DejaVuSans-47"/><use xlink:href="#DejaVuSans-69" x="77.49"/><use xlink:href="#DejaVuSans-74" x="105.273"/><use xlink:href="#DejaVuSans-48" x="144.482"/><use xlink:href="#DejaVuSans-75" x="219.678"/><use xlink:href="#DejaVuSans-62" x="283.057"/><use xlink:href="#DejaVuSans-20" x="346.533"/><use xlink:href="#DejaVuSans-73" x="378.32"/><use xlink:href="#DejaVuSans-74" x="430.42"/><use xlink:href="#DejaVuSans-61" x="469.629"/><use xlink:href="#DejaVuSans-72" x="530.908"/><use xlink:href="#DejaVuSans-73" x="572.021"/></g></g><path d="m206.498 301.266 3.142-.833 3.248-1.847 3.143-1.9 3.247-1.144 3.248-1.38 3.142-1.248 3.248-1.04 3.143-.417 3.247-.572 3.248-.755 2.933-.728 3.247-.885 3.143-.963 3.248-1.327 3.142-1.56 3.248-1.328 3.247-.936 3.143-.937 3.248-.728 3.142-.729 3.248-1.821 3.247-.963 2.933-1.509 3.248-1.067 3.143-.936 3.247-1.015 3.143-1.04 3.247-.703 3.248-.677 3.143-.624 3.247-1.015 3.143-1.457 3.247-.936 3.248-1.327 2.933-1.327 3.248-.963 3.142-1.17 3.248-1.328 3.143-.494 3.247-.624 3.248-.99 3.142-.65 3.248-.728 3.143-.833 3.247-.494 3.248-.546 3.038-.573 3.247-.364 3.143-.546 3.247-.417 3.143-.364 3.248-.364 3.247-.442 3.143-.209 3.247-.338 3.143-.416 3.248-.338 3.247-.547 2.933-.494 3.248-.364 3.142-.313 3.248-.234 3.143-.208 3.247-.208 3.248-.39 3.142-.286 3.248-.26 3.143-.26 3.247-.209 3.248-.286 2.933-.234 3.247-.443 3.143-.234 3.248-.182 3.142-.208 3.248-.104 3.247-.13 3.143-.208" clip-path="url(#pfb4c534ffc)" style="fill:none;stroke:#98df8a;stroke-width:1.5;stroke-linecap:square" id="line2d_22"/><path d="m219.278 301.266 3.248-.026 3.142-.156 3.248-.208 3.143-.26 3.247-.469 3.248-.598 2.933-.963 3.247-.338 3.143-.729 3.248-.312 3.142-.338 3.248-.365 3.247-.494 3.143-.52 3.248-.599 3.142-.546 3.248-.598 3.247-.443 2.933-.858 3.248-.573 3.143-.806 3.247-1.171 3.143-.807 3.247-.546 3.248-.468 3.143-.547 3.247-.962 3.143-.937 3.247-.859 3.248-.936 2.933-.833 3.248-1.04 3.142-.703 3.248-.885 3.143-.858 3.247-.937 3.248-.754 3.142-1.171 3.248-.937 3.143-.963 3.247-.676 3.248-.859 3.038-1.04 3.247-.911 3.143-1.223 3.247-1.3 3.143-.937 3.248-.885 3.247-.859 3.143-.884 3.247-.78 3.143-.677 3.248-.91 3.247-.73 2.933-1.118 3.248-.885 3.142-.806 3.248-.703 3.143-.962 3.247-1.12 3.248-.728 3.142-.624 3.248-.65 3.143-.495 3.247-.598 3.248-.963 2.933-1.17 3.247-1.406 3.143-.806 3.248-.677 3.142-1.327 3.248-1.43 3.247-.963 3.143-.78" clip-path="url(#pfb4c534ffc)" style="fill:none;stroke:#ffbb78;stroke-width:1.5;stroke-linecap:square" id="line2d_23"/><path d="m263.905 301.266 3.248-.338 3.142-.313 3.248-.52 3.247-.676 2.933-.339 3.248-.65 3.143-1.093 3.247-.859 3.143-.624 3.247-.65 3.248-.911 3.143-1.223 3.247-1.483 3.143-.624 3.247-.625 3.248-.988 2.933-.52 3.248-1.12 3.142-.754 3.248-1.197 3.143-1.223 3.247-1.067 3.248-1.613 3.142-1.275 3.248-1.248 3.143-1.171 3.247-1.093 3.248-1.405 3.038-1.275 3.247-1.353 3.143-1.717 3.247-1.561 3.143-1.431 3.248-1.3 3.247-1.146 3.143-.988 3.247-1.015 3.143-.989 3.248-1.353 3.247-1.69 2.933-1.146 3.248-1.587 3.142-1.457 3.248-1.43 3.143-1.041 3.247-1.015 3.248-1.171 3.142-1.379 3.248-1.405 3.143-1.197 3.247-1.249 3.248-1.483 2.933-1.248 3.247-1.536 3.143-1.457 3.248-1.639 3.142-.754 3.248-1.327 3.247-1.067 3.143-1.015" clip-path="url(#pfb4c534ffc)" style="fill:none;stroke:#aec7e8;stroke-width:1.5;stroke-linecap:square" id="line2d_24"/><g style="fill:#1f77b4" transform="matrix(.14 0 0 -.14 465.907 39.017)" id="text_17"><defs><path id="DejaVuSans-6d" d="M3328 2828q216 388 516 572t706 184q547 0 844-383 297-382 297-1088V0h-578v2094q0 503-179 746-178 244-543 244-447 0-707-297-259-296-259-809V0h-578v2094q0 506-178 748t-550 242q-441 0-701-298-259-298-259-808V0H581v3500h578v-544q197 322 472 475t653 153q382 0 649-194 267-193 395-562z" transform="scale(.01563)"/><path id="DejaVuSans-6b" d="M581 4863h578V1991l1716 1509h734L1753 1863 3688 0h-750L1159 1709V0H581v4863z" transform="scale(.01563)"/><path id="DejaVuSans-65" d="M3597 1894v-281H953q38-594 358-905t892-311q331 0 642 81t618 244V178Q3153 47 2828-22t-659-69q-838 0-1327 487-489 488-489 1320 0 859 464 1363 464 505 1252 505 706 0 1117-455 411-454 411-1235zm-575 169q-6 471-264 752-258 282-683 282-481 0-770-272t-333-766l2050 4z" transform="scale(.01563)"/><path id="DejaVuSans-2f" d="M1625 4666h531L531-594H0l1625 5260z" transform="scale(.01563)"/><path id="DejaVuSans-6e" d="M3513 2113V0h-575v2094q0 497-194 743-194 247-581 247-466 0-735-297-269-296-269-809V0H581v3500h578v-544q207 316 486 472 280 156 646 156 603 0 912-373 310-373 310-1098z" transform="scale(.01563)"/><path id="DejaVuSans-6c" d="M603 4863h575V0H603v4863z" transform="scale(.01563)"/><path id="DejaVuSans-2d" d="M313 2009h1684v-512H313v512z" transform="scale(.01563)"/></defs><use xlink:href="#DejaVuSans-6d"/><use xlink:href="#DejaVuSans-6d" x="97.412"/><use xlink:href="#DejaVuSans-69" x="194.824"/><use xlink:href="#DejaVuSans-73" x="222.607"/><use xlink:href="#DejaVuSans-74" x="274.707"/><use xlink:href="#DejaVuSans-61" x="313.916"/><use xlink:href="#DejaVuSans-6b" x="375.195"/><use xlink:href="#DejaVuSans-65" x="429.48"/><use xlink:href="#DejaVuSans-73" x="491.004"/><use xlink:href="#DejaVuSans-2f" x="543.104"/><use xlink:href="#DejaVuSans-6d" x="576.795"/><use xlink:href="#DejaVuSans-69" x="674.207"/><use xlink:href="#DejaVuSans-6e" x="701.99"/><use xlink:href="#DejaVuSans-69" x="765.369"/><use xlink:href="#DejaVuSans-6d" x="793.152"/><use xlink:href="#DejaVuSans-61" x="890.564"/><use xlink:href="#DejaVuSans-6c" x="951.844"/><use xlink:href="#DejaVuSans-2d" x="979.627"/><use xlink:href="#DejaVuSans-6d" x="1015.711"/><use xlink:href="#DejaVuSans-69" x="1113.123"/><use xlink:href="#DejaVuSans-73" x="1140.906"/><use xlink:href="#DejaVuSans-74" x="1193.006"/><use xlink:href="#DejaVuSans-61" x="1232.215"/><use xlink:href="#DejaVuSans-6b" x="1293.494"/><use xlink:href="#DejaVuSans-65" x="1347.779"/><use xlink:href="#DejaVuSans-73" x="1409.303"/></g><g style="fill:#ff7f0e" transform="matrix(.14 0 0 -.14 465.907 138.41)" id="text_18"><defs><path id="DejaVuSans-78" d="M3513 3500 2247 1797 3578 0h-678L1881 1375 863 0H184l1360 1831L300 3500h678l928-1247 928 1247h679z" transform="scale(.01563)"/><path id="DejaVuSans-70" d="M1159 525v-1856H581v4831h578v-531q182 312 458 463 277 152 661 152 638 0 1036-506 399-506 399-1331T3314 415Q2916-91 2278-91q-384 0-661 152-276 152-458 464zm1957 1222q0 634-261 995t-717 361q-457 0-718-361t-261-995q0-634 261-995t718-361q456 0 717 361t261 995z" transform="scale(.01563)"/><path id="DejaVuSans-6f" d="M1959 3097q-462 0-731-361t-269-989q0-628 267-989 268-361 733-361 460 0 728 362 269 363 269 988 0 622-269 986-268 364-728 364zm0 487q750 0 1178-488 429-487 429-1349 0-859-429-1349Q2709-91 1959-91q-753 0-1180 489-426 490-426 1349 0 862 426 1349 427 488 1180 488z" transform="scale(.01563)"/><path id="DejaVuSans-68" d="M3513 2113V0h-575v2094q0 497-194 743-194 247-581 247-466 0-735-297-269-296-269-809V0H581v4863h578V2956q207 316 486 472 280 156 646 156 603 0 912-373 310-373 310-1098z" transform="scale(.01563)"/><path id="DejaVuSans-2e" d="M684 794h660V0H684v794z" transform="scale(.01563)"/><path id="DejaVuSans-67" d="M2906 1791q0 625-258 968-257 344-723 344-462 0-720-344-258-343-258-968 0-622 258-966t720-344q466 0 723 344 258 344 258 966zm575-1357q0-893-397-1329-396-436-1215-436-303 0-572 45t-522 139v559q253-137 500-202 247-66 503-66 566 0 847 295t281 892v285q-178-310-456-463T1784 0Q1141 0 747 490 353 981 353 1791q0 812 394 1302 394 491 1037 491 388 0 666-153t456-462v531h575V434z" transform="scale(.01563)"/></defs><use xlink:href="#DejaVuSans-48"/><use xlink:href="#DejaVuSans-75" x="75.195"/><use xlink:href="#DejaVuSans-78" x="138.574"/><use xlink:href="#DejaVuSans-70" x="197.754"/><use xlink:href="#DejaVuSans-72" x="261.23"/><use xlink:href="#DejaVuSans-6f" x="300.094"/><use xlink:href="#DejaVuSans-2f" x="361.275"/><use xlink:href="#DejaVuSans-68" x="394.967"/><use xlink:href="#DejaVuSans-75" x="458.346"/><use xlink:href="#DejaVuSans-78" x="521.725"/><use xlink:href="#DejaVuSans-70" x="580.904"/><use xlink:href="#DejaVuSans-72" x="644.381"/><use xlink:href="#DejaVuSans-6f" x="683.244"/><use xlink:href="#DejaVuSans-2e" x="742.676"/><use xlink:href="#DejaVuSans-67" x="774.463"/><use xlink:href="#DejaVuSans-69" x="837.939"/><use xlink:href="#DejaVuSans-74" x="865.723"/><use xlink:href="#DejaVuSans-68" x="904.932"/><use xlink:href="#DejaVuSans-75" x="968.311"/><use xlink:href="#DejaVuSans-62" x="1031.689"/><use xlink:href="#DejaVuSans-2e" x="1095.166"/><use xlink:href="#DejaVuSans-69" x="1126.953"/><use xlink:href="#DejaVuSans-6f" x="1154.736"/></g><g style="fill:#2ca02c" transform="matrix(.14 0 0 -.14 465.907 152.41)" id="text_19"><defs><path id="DejaVuSans-6a" d="M603 3500h575V-63q0-668-255-968-254-300-820-300h-219v487H38q328 0 446 152Q603-541 603-63v3563zm0 1363h575v-729H603v729z" transform="scale(.01563)"/><path id="DejaVuSans-64" d="M2906 2969v1894h575V0h-575v525q-181-312-458-464-276-152-664-152-634 0-1033 506-398 507-398 1332t398 1331q399 506 1033 506 388 0 664-152 277-151 458-463zM947 1747q0-634 261-995t717-361q456 0 718 361 263 361 263 995t-263 995q-262 361-718 361t-717-361q-261-361-261-995z" transform="scale(.01563)"/><path id="DejaVuSans-63" d="M3122 3366v-538q-244 135-489 202t-495 67q-560 0-870-355-309-354-309-995t309-996q310-354 870-354 250 0 495 67t489 202V134Q2881 22 2623-34q-257-57-548-57-791 0-1257 497-465 497-465 1341 0 856 470 1346 471 491 1290 491 265 0 518-55 253-54 491-163z" transform="scale(.01563)"/></defs><use xlink:href="#DejaVuSans-6a"/><use xlink:href="#DejaVuSans-75" x="27.783"/><use xlink:href="#DejaVuSans-73" x="91.162"/><use xlink:href="#DejaVuSans-74" x="143.262"/><use xlink:href="#DejaVuSans-2d" x="182.471"/><use xlink:href="#DejaVuSans-74" x="218.555"/><use xlink:href="#DejaVuSans-68" x="257.764"/><use xlink:href="#DejaVuSans-65" x="321.143"/><use xlink:href="#DejaVuSans-2d" x="382.666"/><use xlink:href="#DejaVuSans-64" x="418.75"/><use xlink:href="#DejaVuSans-6f" x="482.227"/><use xlink:href="#DejaVuSans-63" x="543.408"/><use xlink:href="#DejaVuSans-73" x="598.389"/><use xlink:href="#DejaVuSans-2f" x="650.488"/><use xlink:href="#DejaVuSans-6a" x="684.18"/><use xlink:href="#DejaVuSans-75" x="711.963"/><use xlink:href="#DejaVuSans-73" x="775.342"/><use xlink:href="#DejaVuSans-74" x="827.441"/><use xlink:href="#DejaVuSans-2d" x="866.65"/><use xlink:href="#DejaVuSans-74" x="902.734"/><use xlink:href="#DejaVuSans-68" x="941.943"/><use xlink:href="#DejaVuSans-65" x="1005.322"/><use xlink:href="#DejaVuSans-2d" x="1066.846"/><use xlink:href="#DejaVuSans-64" x="1102.93"/><use xlink:href="#DejaVuSans-6f" x="1166.406"/><use xlink:href="#DejaVuSans-63" x="1227.588"/><use xlink:href="#DejaVuSans-73" x="1282.568"/></g><g style="fill:#d62728" transform="matrix(.14 0 0 -.14 465.907 166.41)" id="text_20"><defs><path id="DejaVuSans-66" d="M2375 4863v-479h-550q-309 0-430-125-120-125-120-450v-309h947v-447h-947V0H697v3053H147v447h550v244q0 584 272 851 272 268 862 268h544z" transform="scale(.01563)"/><path id="DejaVuSans-79" d="M2059-325q-243-625-475-815-231-191-618-191H506v481h338q237 0 368 113 132 112 291 531l103 262L191 3500h609L1894 763l1094 2737h609L2059-325z" transform="scale(.01563)"/></defs><use xlink:href="#DejaVuSans-64"/><use xlink:href="#DejaVuSans-61" x="63.477"/><use xlink:href="#DejaVuSans-61" x="124.756"/><use xlink:href="#DejaVuSans-74" x="186.035"/><use xlink:href="#DejaVuSans-74" x="225.244"/><use xlink:href="#DejaVuSans-61" x="264.453"/><use xlink:href="#DejaVuSans-6c" x="325.732"/><use xlink:href="#DejaVuSans-69" x="353.516"/><use xlink:href="#DejaVuSans-2f" x="381.299"/><use xlink:href="#DejaVuSans-62" x="414.99"/><use xlink:href="#DejaVuSans-65" x="478.467"/><use xlink:href="#DejaVuSans-61" x="539.99"/><use xlink:href="#DejaVuSans-75" x="601.27"/><use xlink:href="#DejaVuSans-74" x="664.648"/><use xlink:href="#DejaVuSans-69" x="703.857"/><use xlink:href="#DejaVuSans-66" x="731.641"/><use xlink:href="#DejaVuSans-75" x="766.846"/><use xlink:href="#DejaVuSans-6c" x="830.225"/><use xlink:href="#DejaVuSans-2d" x="858.008"/><use xlink:href="#DejaVuSans-6a" x="894.092"/><use xlink:href="#DejaVuSans-65" x="921.875"/><use xlink:href="#DejaVuSans-6b" x="983.398"/><use xlink:href="#DejaVuSans-79" x="1037.684"/><use xlink:href="#DejaVuSans-6c" x="1096.863"/><use xlink:href="#DejaVuSans-6c" x="1124.646"/></g><g style="fill:#9467bd" transform="matrix(.14 0 0 -.14 465.907 180.41)" id="text_21"><defs><path id="DejaVuSans-76" d="M191 3500h609L1894 563l1094 2937h609L2284 0h-781L191 3500z" transform="scale(.01563)"/></defs><use xlink:href="#DejaVuSans-61"/><use xlink:href="#DejaVuSans-6c" x="61.279"/><use xlink:href="#DejaVuSans-73" x="89.063"/><use xlink:href="#DejaVuSans-68" x="141.162"/><use xlink:href="#DejaVuSans-65" x="204.541"/><use xlink:href="#DejaVuSans-64" x="266.064"/><use xlink:href="#DejaVuSans-69" x="329.541"/><use xlink:href="#DejaVuSans-76" x="357.324"/><use xlink:href="#DejaVuSans-61" x="416.504"/><use xlink:href="#DejaVuSans-74" x="477.783"/><use xlink:href="#DejaVuSans-2f" x="516.992"/><use xlink:href="#DejaVuSans-61" x="550.684"/><use xlink:href="#DejaVuSans-6c" x="611.963"/><use xlink:href="#DejaVuSans-2d" x="639.746"/><use xlink:href="#DejaVuSans-66" x="675.83"/><use xlink:href="#DejaVuSans-6f" x="711.035"/><use xlink:href="#DejaVuSans-6c" x="772.217"/><use xlink:href="#DejaVuSans-69" x="800"/><use xlink:href="#DejaVuSans-6f" x="827.783"/></g><g style="fill:#8c564b" transform="matrix(.14 0 0 -.14 465.907 194.41)" id="text_22"><use xlink:href="#DejaVuSans-70"/><use xlink:href="#DejaVuSans-6f" x="63.477"/><use xlink:href="#DejaVuSans-6f" x="124.658"/><use xlink:href="#DejaVuSans-6c" x="185.84"/><use xlink:href="#DejaVuSans-65" x="213.623"/><use xlink:href="#DejaVuSans-2f" x="275.146"/><use xlink:href="#DejaVuSans-68" x="308.838"/><use xlink:href="#DejaVuSans-79" x="372.217"/><use xlink:href="#DejaVuSans-64" x="431.396"/><use xlink:href="#DejaVuSans-65" x="494.873"/></g><g style="fill:#e377c2" transform="matrix(.14 0 0 -.14 465.907 208.41)" id="text_23"><use xlink:href="#DejaVuSans-70"/><use xlink:href="#DejaVuSans-6f" x="63.477"/><use xlink:href="#DejaVuSans-6f" x="124.658"/><use xlink:href="#DejaVuSans-6c" x="185.84"/><use xlink:href="#DejaVuSans-65" x="213.623"/><use xlink:href="#DejaVuSans-2f" x="275.146"/><use xlink:href="#DejaVuSans-6c" x="308.838"/><use xlink:href="#DejaVuSans-61" x="336.621"/><use xlink:href="#DejaVuSans-6e" x="397.9"/><use xlink:href="#DejaVuSans-79" x="461.279"/><use xlink:href="#DejaVuSans-6f" x="520.459"/><use xlink:href="#DejaVuSans-6e" x="581.641"/></g><g style="fill:#7f7f7f" transform="matrix(.14 0 0 -.14 465.907 222.41)" id="text_24"><defs><path id="DejaVuSans-71" d="M947 1747q0-634 261-995t717-361q456 0 718 361 263 361 263 995t-263 995q-262 361-718 361t-717-361q-261-361-261-995zM2906 525q-181-312-458-464-276-152-664-152-634 0-1033 506-398 507-398 1332t398 1331q399 506 1033 506 388 0 664-152 277-151 458-463v531h575v-4831h-575V525z" transform="scale(.01563)"/></defs><use xlink:href="#DejaVuSans-71"/><use xlink:href="#DejaVuSans-69" x="63.477"/><use xlink:href="#DejaVuSans-75" x="91.26"/><use xlink:href="#DejaVuSans-62" x="154.639"/><use xlink:href="#DejaVuSans-61" x="218.115"/><use xlink:href="#DejaVuSans-69" x="279.395"/><use xlink:href="#DejaVuSans-79" x="307.178"/><use xlink:href="#DejaVuSans-69" x="366.357"/><use xlink:href="#DejaVuSans-6e" x="394.141"/><use xlink:href="#DejaVuSans-67" x="457.52"/><use xlink:href="#DejaVuSans-2f" x="520.996"/><use xlink:href="#DejaVuSans-71" x="554.688"/><use xlink:href="#DejaVuSans-69" x="618.164"/><use xlink:href="#DejaVuSans-75" x="645.947"/><use xlink:href="#DejaVuSans-62" x="709.326"/><use xlink:href="#DejaVuSans-61" x="772.803"/><use xlink:href="#DejaVuSans-69" x="834.082"/><use xlink:href="#DejaVuSans-79" x="861.865"/><use xlink:href="#DejaVuSans-69" x="921.045"/><use xlink:href="#DejaVuSans-6e" x="948.828"/><use xlink:href="#DejaVuSans-67" x="1012.207"/><use xlink:href="#DejaVuSans-2e" x="1075.684"/><use xlink:href="#DejaVuSans-67" x="1107.471"/><use xlink:href="#DejaVuSans-69" x="1170.947"/><use xlink:href="#DejaVuSans-74" x="1198.73"/><use xlink:href="#DejaVuSans-68" x="1237.939"/><use xlink:href="#DejaVuSans-75" x="1301.318"/><use xlink:href="#DejaVuSans-62" x="1364.697"/><use xlink:href="#DejaVuSans-2e" x="1428.174"/><use xlink:href="#DejaVuSans-69" x="1459.961"/><use xlink:href="#DejaVuSans-6f" x="1487.744"/></g><g style="fill:#bcbd22" transform="matrix(.14 0 0 -.14 465.907 236.41)" id="text_25"><use xlink:href="#DejaVuSans-6a"/><use xlink:href="#DejaVuSans-65" x="27.783"/><use xlink:href="#DejaVuSans-6b" x="89.307"/><use xlink:href="#DejaVuSans-79" x="143.592"/><use xlink:href="#DejaVuSans-6c" x="202.771"/><use xlink:href="#DejaVuSans-6c" x="230.555"/><use xlink:href="#DejaVuSans-2f" x="258.338"/><use xlink:href="#DejaVuSans-6d" x="292.029"/><use xlink:href="#DejaVuSans-69" x="389.441"/><use xlink:href="#DejaVuSans-6e" x="417.225"/><use xlink:href="#DejaVuSans-69" x="480.604"/><use xlink:href="#DejaVuSans-6d" x="508.387"/><use xlink:href="#DejaVuSans-61" x="605.799"/></g><g style="fill:#17becf" transform="matrix(.14 0 0 -.14 465.907 250.41)" id="text_26"><use xlink:href="#DejaVuSans-70"/><use xlink:href="#DejaVuSans-6f" x="63.477"/><use xlink:href="#DejaVuSans-6f" x="124.658"/><use xlink:href="#DejaVuSans-6c" x="185.84"/><use xlink:href="#DejaVuSans-65" x="213.623"/><use xlink:href="#DejaVuSans-2f" x="275.146"/><use xlink:href="#DejaVuSans-70" x="308.838"/><use xlink:href="#DejaVuSans-6f" x="372.314"/><use xlink:href="#DejaVuSans-6f" x="433.496"/><use xlink:href="#DejaVuSans-6c" x="494.678"/><use xlink:href="#DejaVuSans-65" x="522.461"/></g><g style="fill:#aec7e8" transform="matrix(.14 0 0 -.14 465.907 264.41)" id="text_27"><defs><path id="DejaVuSans-54" d="M-19 4666h3947v-532H2272V0h-634v4134H-19v532z" transform="scale(.01563)"/><path id="DejaVuSans-58" d="M403 4666h678l1160-1735 1165 1735h678L2584 2425 4184 0h-678L2194 1984 872 0H191l1665 2491L403 4666z" transform="scale(.01563)"/></defs><use xlink:href="#DejaVuSans-6b"/><use xlink:href="#DejaVuSans-69" x="57.91"/><use xlink:href="#DejaVuSans-74" x="85.693"/><use xlink:href="#DejaVuSans-69" x="124.902"/><use xlink:href="#DejaVuSans-61" x="152.686"/><use xlink:href="#DejaVuSans-6e" x="213.965"/><use xlink:href="#DejaVuSans-36" x="277.344"/><use xlink:href="#DejaVuSans-31" x="340.967"/><use xlink:href="#DejaVuSans-36" x="404.59"/><use xlink:href="#DejaVuSans-2f" x="468.213"/><use xlink:href="#DejaVuSans-6a" x="501.904"/><use xlink:href="#DejaVuSans-65" x="529.688"/><use xlink:href="#DejaVuSans-6b" x="591.211"/><use xlink:href="#DejaVuSans-79" x="645.496"/><use xlink:href="#DejaVuSans-6c" x="704.676"/><use xlink:href="#DejaVuSans-6c" x="732.459"/><use xlink:href="#DejaVuSans-2d" x="760.242"/><use xlink:href="#DejaVuSans-54" x="787.201"/><use xlink:href="#DejaVuSans-65" x="831.285"/><use xlink:href="#DejaVuSans-58" x="892.809"/><use xlink:href="#DejaVuSans-74" x="961.314"/><use xlink:href="#DejaVuSans-2d" x="1000.523"/><use xlink:href="#DejaVuSans-74" x="1036.607"/><use xlink:href="#DejaVuSans-68" x="1075.816"/><use xlink:href="#DejaVuSans-65" x="1139.195"/><use xlink:href="#DejaVuSans-6d" x="1200.719"/><use xlink:href="#DejaVuSans-65" x="1298.131"/></g><g style="fill:#ffbb78" transform="matrix(.14 0 0 -.14 465.907 278.41)" id="text_28"><use xlink:href="#DejaVuSans-73"/><use xlink:href="#DejaVuSans-68" x="52.1"/><use xlink:href="#DejaVuSans-61" x="115.479"/><use xlink:href="#DejaVuSans-72" x="176.758"/><use xlink:href="#DejaVuSans-75" x="217.871"/><use xlink:href="#DejaVuSans-37" x="281.25"/><use xlink:href="#DejaVuSans-32" x="344.873"/><use xlink:href="#DejaVuSans-35" x="408.496"/><use xlink:href="#DejaVuSans-2f" x="472.119"/><use xlink:href="#DejaVuSans-6f" x="505.811"/><use xlink:href="#DejaVuSans-6e" x="566.992"/><use xlink:href="#DejaVuSans-6c" x="630.371"/><use xlink:href="#DejaVuSans-69" x="658.154"/><use xlink:href="#DejaVuSans-6e" x="685.938"/><use xlink:href="#DejaVuSans-65" x="749.316"/><use xlink:href="#DejaVuSans-2d" x="810.84"/><use xlink:href="#DejaVuSans-63" x="846.924"/><use xlink:href="#DejaVuSans-76" x="901.904"/></g><g style="fill:#98df8a" transform="matrix(.14 0 0 -.14 465.907 292.41)" id="text_29"><defs><path id="DejaVuSans-4d" d="M628 4666h941l1190-3175 1197 3175h941V0h-616v4097L3078 897h-634L1241 4097V0H628v4666z" transform="scale(.01563)"/></defs><use xlink:href="#DejaVuSans-54"/><use xlink:href="#DejaVuSans-61" x="44.584"/><use xlink:href="#DejaVuSans-79" x="105.863"/><use xlink:href="#DejaVuSans-6c" x="165.043"/><use xlink:href="#DejaVuSans-61" x="192.826"/><use xlink:href="#DejaVuSans-6e" x="254.105"/><use xlink:href="#DejaVuSans-54" x="317.484"/><use xlink:href="#DejaVuSans-61" x="362.068"/><use xlink:href="#DejaVuSans-74" x="423.348"/><use xlink:href="#DejaVuSans-6c" x="462.557"/><use xlink:href="#DejaVuSans-69" x="490.34"/><use xlink:href="#DejaVuSans-2f" x="518.123"/><use xlink:href="#DejaVuSans-4d" x="551.814"/><use xlink:href="#DejaVuSans-6f" x="638.094"/><use xlink:href="#DejaVuSans-6f" x="699.275"/><use xlink:href="#DejaVuSans-6e" x="760.457"/></g><g style="fill:#b0b0b0" transform="matrix(.09716 0 0 -.09716 98.073 335.302)" id="text_30"><defs><path id="DejaVuSans-40" d="M2381 1678q0-447 222-702 222-254 610-254 384 0 604 256 221 256 221 700 0 438-225 695-225 258-607 258-378 0-602-256-223-256-223-697zm1703-934q-187-241-429-355t-564-114q-538 0-874 389t-336 1014q0 625 337 1015 338 391 873 391 322 0 565-117 244-117 428-354v409h447V722q457 69 714 417 258 349 258 902 0 334-99 628-98 294-298 544-325 409-792 626t-1017 217q-384 0-738-102-353-101-653-301-490-319-767-836-276-517-276-1120 0-497 179-932 180-434 521-765 328-325 759-495 431-171 922-171 403 0 792 136t714 389l281-347q-390-303-851-464t-936-161q-578 0-1091 205-512 205-912 595Q841 78 631 592q-209 514-209 1105 0 569 212 1084 213 516 607 907 403 396 931 607t1119 211q662 0 1229-272 568-271 952-771 234-307 357-666 124-359 124-744 0-822-497-1297T4084 263v481z" transform="scale(.01563)"/><path id="DejaVuSans-7c" d="M1344 4891v-6400H813v6400h531z" transform="scale(.01563)"/><path id="DejaVuSans-4e" d="M628 4666h850L3547 763v3903h612V0h-850L1241 3903V0H628v4666z" transform="scale(.01563)"/><path id="DejaVuSans-53" d="M3425 4513v-616q-359 172-678 256-319 85-616 85-515 0-795-200t-280-569q0-310 186-468 186-157 705-254l381-78q706-135 1042-474t336-907q0-679-455-1029Q2797-91 1919-91q-331 0-705 75-373 75-773 222v650q384-215 753-325 369-109 725-109 540 0 834 212 294 213 294 607 0 343-211 537t-692 291l-385 75q-706 140-1022 440-315 300-315 835 0 619 436 975t1201 356q329 0 669-60 341-59 697-177z" transform="scale(.01563)"/><path id="DejaVuSans-f6" d="M1959 3097q-462 0-731-361t-269-989q0-628 267-989 268-361 733-361 460 0 728 362 269 363 269 988 0 622-269 986-268 364-728 364zm0 487q750 0 1178-488 429-487 429-1349 0-859-429-1349Q2709-91 1959-91q-753 0-1180 489-426 490-426 1349 0 862 426 1349 427 488 1180 488zm295 1266h634v-631h-634v631zm-1222 0h634v-631h-634v631z" transform="scale(.01563)"/><path id="DejaVuSans-43" d="M4122 4306v-665q-319 297-680 443-361 147-767 147-800 0-1225-489t-425-1414q0-922 425-1411t1225-489q406 0 767 147t680 444V359q-331-225-702-338-370-112-782-112-1060 0-1670 648-609 649-609 1771 0 1125 609 1773 610 649 1670 649 418 0 788-111 371-111 696-333z" transform="scale(.01563)"/><path id="DejaVuSans-42" d="M1259 2228V519h1013q509 0 754 211 246 211 246 645 0 438-246 645-245 208-754 208H1259zm0 1919V2741h935q462 0 688 173 227 174 227 530 0 353-227 528-226 175-688 175h-935zm-631 519h1613q722 0 1112-300 391-300 391-853 0-429-200-682t-588-315q466-100 724-418 258-317 258-792 0-625-425-966Q3088 0 2303 0H628v4666z" transform="scale(.01563)"/><path id="DejaVuSans-59" d="M-13 4666h679l1293-1919 1285 1919h678L2272 2222V0h-634v2222L-13 4666z" transform="scale(.01563)"/></defs><use xlink:href="#DejaVuSans-40"/><use xlink:href="#DejaVuSans-6e" x="100"/><use xlink:href="#DejaVuSans-73" x="163.379"/><use xlink:href="#DejaVuSans-63" x="215.479"/><use xlink:href="#DejaVuSans-68" x="270.459"/><use xlink:href="#DejaVuSans-6c" x="333.838"/><use xlink:href="#DejaVuSans-6f" x="361.621"/><use xlink:href="#DejaVuSans-65" x="422.803"/><use xlink:href="#DejaVuSans-20" x="484.326"/><use xlink:href="#DejaVuSans-2f" x="516.113"/><use xlink:href="#DejaVuSans-20" x="549.805"/><use xlink:href="#DejaVuSans-67" x="581.592"/><use xlink:href="#DejaVuSans-69" x="645.068"/><use xlink:href="#DejaVuSans-74" x="672.852"/><use xlink:href="#DejaVuSans-68" x="712.061"/><use xlink:href="#DejaVuSans-75" x="775.439"/><use xlink:href="#DejaVuSans-62" x="838.818"/><use xlink:href="#DejaVuSans-2d" x="902.295"/><use xlink:href="#DejaVuSans-74" x="938.379"/><use xlink:href="#DejaVuSans-72" x="977.588"/><use xlink:href="#DejaVuSans-65" x="1016.451"/><use xlink:href="#DejaVuSans-6e" x="1077.975"/><use xlink:href="#DejaVuSans-64" x="1141.354"/><use xlink:href="#DejaVuSans-73" x="1204.83"/><use xlink:href="#DejaVuSans-20" x="1256.93"/><use xlink:href="#DejaVuSans-7c" x="1288.717"/><use xlink:href="#DejaVuSans-20" x="1322.408"/><use xlink:href="#DejaVuSans-4e" x="1354.195"/><use xlink:href="#DejaVuSans-69" x="1429"/><use xlink:href="#DejaVuSans-63" x="1456.783"/><use xlink:href="#DejaVuSans-6f" x="1511.764"/><use xlink:href="#DejaVuSans-20" x="1572.945"/><use xlink:href="#DejaVuSans-53" x="1604.732"/><use xlink:href="#DejaVuSans-63" x="1668.209"/><use xlink:href="#DejaVuSans-68" x="1723.189"/><use xlink:href="#DejaVuSans-6c" x="1786.568"/><use xlink:href="#DejaVuSans-f6" x="1814.352"/><use xlink:href="#DejaVuSans-6d" x="1875.533"/><use xlink:href="#DejaVuSans-65" x="1972.945"/><use xlink:href="#DejaVuSans-72" x="2034.469"/><use xlink:href="#DejaVuSans-20" x="2075.582"/><use xlink:href="#DejaVuSans-7c" x="2107.369"/><use xlink:href="#DejaVuSans-20" x="2141.061"/><use xlink:href="#DejaVuSans-43" x="2172.848"/><use xlink:href="#DejaVuSans-43" x="2242.672"/><use xlink:href="#DejaVuSans-20" x="2312.496"/><use xlink:href="#DejaVuSans-42" x="2344.283"/><use xlink:href="#DejaVuSans-59" x="2407.387"/></g><path d="m117.244 301.266 3.247-.52 3.248-2.863 2.933-2.601 3.248-1.483 3.142-1.51 3.248-1.378 3.143-1.535 3.247-1.562 3.248-1.665 3.142-1.69 3.248-1.51 3.143-1.327 3.247-1.145 3.248-1.483 2.933-1.379 3.247-2.497 3.143-1.041 3.247-1.483 3.143-1.51 3.248-1.404 3.247-1.379 3.143-.91 3.247-2.03 3.143-1.093 3.248-.936 3.247-1.64 3.038-1.639 3.248-1.483 3.142-1.197 3.248-.676 3.143-.52 3.247-.573 3.248-.702 3.142-.677 3.248-.754 3.143-.52 3.247-.677 3.248-.677 2.933-.494 3.247-.624 3.143-.443 3.248-.598 3.142-.494 3.248-.495 3.247-.364 3.143-.442 3.248-.39 3.142-.443 3.248-.546 3.247-.469 2.933-.286 3.248-.286 3.143-.416 3.247-.417 3.143-.286 3.247-.312 3.248-.312 3.143-.234 3.247-.234 3.143-.469 3.247-.208 3.248-.286 2.933-.312 3.248-.469 3.142-.26 3.248-.208 3.143-.104 3.247-.208 3.248-.182 3.142-.13 3.248-.365 3.143-.234 3.247-.208 3.248-.182 3.038-.182 3.247-.39 3.143-.287 3.247-.494 3.143-.364 3.248-.26 3.247-.417 3.143-.26 3.247-.416 3.143-.338 3.248-.417 3.247-.39 2.933-.494 3.248-.365 3.142-.39 3.248-.364 3.143-.208 3.247-.104 3.248-.183 3.142-.13 3.248-.052 3.143-.26 3.247-.312 3.248-.182 2.933-.156 3.247-.234 3.143-.209 3.248-.13 3.142-.182 3.248-.286 3.247-.286 3.143-.208" clip-path="url(#pfb4c534ffc)" style="fill:none;stroke:#17becf;stroke-width:1.5;stroke-linecap:square" id="line2d_25"/><path d="m209.64 301.266 3.248-.234 3.143-.183 3.247-.312 3.248-1.197 3.142-.676 3.248-.859 3.143-.546 3.247-1.275 3.248-1.015 2.933-.884 3.247-.729 3.143-.78 3.248-.677 3.142-.624 3.248-.703 3.247-.884 3.143-.807 3.248-.91 3.142-.729 3.248-.728 3.247-1.38 2.933-1.04 3.248-1.119 3.143-.963 3.247-1.248 3.143-.833 3.247-.78 3.248-1.015 3.143-.989 3.247-1.015 3.143-.962 3.247-.963 3.248-1.197 2.933-.91 3.248-.729 3.142-.806 3.248-.807 3.143-.91 3.247-1.093 3.248-1.093 3.142-.859 3.248-.936 3.143-.729 3.247-.91 3.248-1.093 3.038-1.041 3.247-1.067 3.143-1.535 3.247-1.795 3.143-1.275 3.248-1.17 3.247-1.12 3.143-.728 3.247-1.015 3.143-.962 3.248-1.25 3.247-1.04 2.933-.833 3.248-.962 3.142-.91 3.248-.99 3.143-.988 3.247-1.275 3.248-.807 3.142-.728 3.248-.729 3.143-1.144 3.247-.911 3.248-1.249 2.933-.885 3.247-.91 3.143-.885 3.248-.624 3.142-.52 3.248-.781 3.247-.859 3.143-1.04" clip-path="url(#pfb4c534ffc)" style="fill:none;stroke:#bcbd22;stroke-width:1.5;stroke-linecap:square" id="line2d_26"/><path d="m238.554 301.266 2.933-.26 3.247-.026 3.143-.026 3.248-.105 3.142-.13 3.248-.26 3.247-.442 3.143-.65 3.248-.703 3.142-1.093 3.248-.858 3.247-.833 2.933-.885 3.248-1.222 3.143-1.197 3.247-1.067 3.143-1.275 3.247-1.067 3.248-2.029 3.143-2.133 3.247-1.874 3.143-2.081 3.247-2.186 3.248-2.055 2.933-1.64 3.248-2.757 3.142-2.992 3.248-2.186 3.143-1.795 3.247-2.368 3.248-1.925 3.142-1.613 3.248-1.821 3.143-1.822 3.247-2.055 3.248-1.691 3.038-1.926 3.247-2.731 3.143-2.342 3.247-1.64 3.143-1.3 3.248-.833 3.247-.676 3.143-.52 3.247-.729 3.143-.52 3.248-.52 3.247-.573 2.933-.625 3.248-.806 3.142-.494 3.248-.573 3.143-.364 3.247-.442 3.248-.339 3.142-.52 3.248-.286 3.143-.494 3.247-.39 3.248-.677 2.933-.234 3.247-.417 3.143-.598 3.248-.599 3.142-.364 3.248-.546 3.247-.494 3.143-.469" clip-path="url(#pfb4c534ffc)" style="fill:none;stroke:#7f7f7f;stroke-width:1.5;stroke-linecap:square" id="line2d_27"/><path d="m117.244 301.266 3.247-.573 3.248-1.847 2.933-.598 3.248-1.431 3.142-1.041 3.248-1.067 3.143-1.223 3.247-.754 3.248-1.04 3.142-.964 3.248-1.196 3.143-.729 3.247-1.067 3.248-1.56 2.933-1.328 3.247-1.066 3.143-1.301 3.247-.833 3.143-.962 3.248-1.093 3.247-1.145 3.143-1.275 3.247-1.977 3.143-1.275 3.248-1.093 3.247-1.275 3.038-1.405 3.248-.936 3.142-1.171 3.248-1.015 3.143-.989 3.247-.988 3.248-.963 3.142-.989 3.248-.858 3.143-.833 3.247-.832 3.248-1.145 2.933-1.119 3.247-1.04 3.143-.599 3.248-1.067 3.142-.728 3.248-.729 3.247-.624 3.143-.729 3.248-.832 3.142-.78 3.248-.677 3.247-.755 2.933-.65 3.248-.52 3.143-.417 3.247-.598 3.143-.755 3.247-.598 3.248-.443 3.143-.78 3.247-.286 3.143-.729 3.247-.494 3.248-.625 2.933-.52 3.248-.468 3.142-.39 3.248-.365 3.143-.338 3.247-.26 3.248-.286 3.142-.443 3.248-.39 3.143-.624 3.247-.833 3.248-.416 3.038-.339 3.247-.52 3.143-.806 3.247-.781 3.143-.755 3.248-.806 3.247-.52 3.143-.547 3.247-.494 3.143-.807 3.248-.39 3.247-.728 2.933-.52 3.248-.651 3.142-.495 3.248-.468 3.143-.338 3.247-.469 3.248-.468 3.142-.416 3.248-.208 3.143-.338 3.247-.52 3.248-.547 2.933-.364 3.247-.339 3.143-.338 3.248-.468 3.142-.286 3.248-.417 3.247-.156 3.143-.338" clip-path="url(#pfb4c534ffc)" style="fill:none;stroke:#e377c2;stroke-width:1.5;stroke-linecap:square" id="line2d_28"/><path d="m110.854 301.266 3.247-3.148 3.143-.99 3.247-3.173 3.248-.989 2.933-.702 3.248-1.171 3.142-.755 3.248-.936 3.143-.885 3.247-.676 3.248-.911 3.142-.703 3.248-.936 3.143-1.197 3.247-.807 3.248-.988 2.933-.78 3.247-1.328 3.143-.988 3.247-.729 3.143-.859 3.248-.832 3.247-.91 3.143-1.068 3.247-.962 3.143-1.067 3.248-.989 3.247-1.379 3.038-1.066 3.248-.963 3.142-1.327 3.248-1.04 3.143-.599 3.247-1.015 3.248-.806 3.142-.963 3.248-.806 3.143-.911 3.247-.833 3.248-.728 2.933-1.015 3.247-1.015 3.143-.624 3.248-.833 3.142-.702 3.248-.729 3.247-.754 3.143-.468 3.248-.859 3.142-.677 3.248-.728 3.247-.729 2.933-.676 3.248-.78 3.143-.755 3.247-.885 3.143-1.066 3.247-.39 3.248-.755 3.143-.755 3.247-.832 3.143-.755 3.247-1.223 3.248-.728 2.933-.599 3.248-.832 3.142-.729 3.248-.702 3.143-.364 3.247-.625 3.248-.494 3.142-.494 3.248-.937 3.143-.755 3.247-.572 3.248-.494 3.038-.417 3.247-.832 3.143-.833 3.247-.989 3.143-.91 3.248-.937 3.247-.702 3.143-.495 3.247-.91 3.143-.885 3.248-.624 3.247-.859 2.933-.494 3.248-.807 3.142-.728 3.248-.703 3.143-.624 3.247-.547 3.248-.702 3.142-.39 3.248-.339 3.143-.442 3.247-.442 3.248-.65 2.933-.521 3.247-.598 3.143-.625 3.248-.494 3.142-.547 3.248-.468 3.247-.312 3.143-.599" clip-path="url(#pfb4c534ffc)" style="fill:none;stroke:#8c564b;stroke-width:1.5;stroke-linecap:square" id="line2d_29"/><path d="m222.526 301.266 3.142-.052 3.248-.026 3.143-.078h6.495l2.933-.026h3.247l3.143-.026 3.248-.052 3.142-.13 3.248-.053 3.247-.156 3.143-.182 3.248-.234 3.142-.26 3.248-.442 3.247-.183 2.933-.078 3.248-.39 3.143-.364 3.247-.182 3.143-.234 3.247-.235 3.248-.442 3.143-.286 3.247-.13 3.143-.547 3.247-.416 3.248-.416 2.933-.364 3.248-.65 3.142-.235 3.248-.26 3.143-.364 3.247-.469 3.248-.208 3.142-.546 3.248-.286 3.143-.313 3.247-.364 3.248-.468 3.038-.364 3.247-.469 3.143-.52 3.247-.703 3.143-.962 3.248-.91 3.247-1.146 3.143-1.066 3.247-2.186 3.143-1.77 3.248-2.47 3.247-2.317 2.933-1.743 3.248-2.315 3.142-2.81 3.248-3.148 3.143-4.137 3.247-3.096 3.248-3.669 3.142-4.423 3.248-3.538 3.143-3.279 3.247-4.007 3.248-4.266 2.933-4.554 3.247-4.11 3.143-4.424 3.248-4.735 3.142-4.5 3.248-4.97 3.247-6.635 3.143-5.88" clip-path="url(#pfb4c534ffc)" style="fill:none;stroke:#9467bd;stroke-width:1.5;stroke-linecap:square" id="line2d_30"/><path d="m164.909 301.266 3.247-.13 3.143-.052 3.247-.208 3.143-.079 3.248-.078 3.247-.234 3.143-.442 3.247-.26 3.143-.469 3.248-.364 3.247-.52 3.038-.625 3.248-.676 3.142-.78 3.248-.781 3.143-.494 3.247-.755 3.248-.885 3.142-.832 3.248-.703 3.143-.78 3.247-.729 3.248-.91 2.933-.573 3.247-1.119 3.143-.754 3.248-1.249 3.142-1.04 3.248-.963 3.247-.729 3.143-.884 3.248-.859 3.142-1.067 3.248-.702 3.247-1.197 2.933-1.145 3.248-1.665 3.143-1.3 3.247-1.536 3.143-1.145 3.247-1.327 3.248-1.509 3.143-1.509 3.247-1.093 3.143-1.69 3.247-1.328 3.248-1.587 2.933-1.457 3.248-1.769 3.142-1.457 3.248-1.847 3.143-1.795 3.247-1.431 3.248-1.483 3.142-1.353 3.248-1.588 3.143-1.118 3.247-1.327 3.248-1.587 3.038-1.431 3.247-2.108 3.143-1.717 3.247-2.03 3.143-2.731 3.248-1.9 3.247-1.665 3.143-1.43 3.247-1.588 3.143-1.353 3.248-2.055 3.247-1.795 2.933-1.275 3.248-2.004 3.142-1.483 3.248-1.873 3.143-1.665 3.247-1.691 3.248-1.743 3.142-1.588 3.248-1.535 3.143-1.69 3.247-1.692 3.248-1.535 2.933-1.665 3.247-1.743 3.143-2.108 3.248-1.56 3.142-1.562 3.248-1.223 3.247-1.483 3.143-1.795" clip-path="url(#pfb4c534ffc)" style="fill:none;stroke:#d62728;stroke-width:1.5;stroke-linecap:square" id="line2d_31"/><path d="m302.142 301.266 3.247-2.55 3.143-1.795 3.247-1.197 3.248-1.405 2.933-1.795 3.248-2.472 3.142-1.925 3.248-2.004 3.143-1.69 3.247-1.9 3.248-1.717 3.142-1.978 3.248-2.185 3.143-1.691 3.247-2.498 3.248-1.795 3.038-1.535 3.247-1.822 3.143-2.42 3.247-4.162 3.143-2.992 3.248-3.122 3.247-2.55 3.143-2.602 3.247-3.278 3.143-2.706 3.248-2.81 3.247-3.539 2.933-2.575 3.248-3.409 3.142-2.862 3.248-3.122 3.143-3.226 3.247-2.81 3.248-3.044 3.142-3.018 3.248-3.539 3.143-2.94 3.247-3.174 3.248-3.512 2.933-3.435 3.247-3.902 3.143-3.097 3.248-3.33 3.142-2.706 3.248-3.096 3.247-4.059 3.143-3.46" clip-path="url(#pfb4c534ffc)" style="fill:none;stroke:#2ca02c;stroke-width:1.5;stroke-linecap:square" id="line2d_32"/><path d="m171.299 301.266 3.247-.026 3.143-.052 3.248-.234 3.247-.13 3.143-.703 3.247-.859 3.143-1.04 3.248-.859 3.247-1.665 3.038-1.04 3.248-2.499 3.142-2.497 3.248-1.848 3.143-2.055 3.247-2.081 3.248-2.264 3.142-1.977 3.248-2.16 3.143-2.602 3.247-2.029 3.248-1.873 2.933-3.122 3.247-3.2 3.143-2.238 3.248-2.784 3.142-1.795 3.248-2.654 3.247-2.68 3.143-2.186 3.248-2.523 3.142-2.264 3.248-2.55 3.247-2.315 2.933-1.978 3.248-3.304 3.143-3.148 3.247-2.602 3.143-2.524 3.247-2.55 3.248-2.159 3.143-2.368 3.247-2.992 3.143-3.018 3.247-3.174 3.248-3.018 2.933-2.107 3.248-3.383 3.142-3.434 3.248-2.758 3.143-2.628 3.247-3.07 3.248-2.316 3.142-2.575 3.248-2.134 3.143-2.003 3.247-2.16 3.248-1.795 3.038-2.03 3.247-2.497 3.143-2.68 3.247-2.003 3.143-1.64 3.248-1.352 3.247-1.301 3.143-.963 3.247-1.379 3.143-1.535 3.248-1.483 3.247-1.509 2.933-1.145 3.248-1.379 3.142-1.197 3.248-1.04 3.143-1.041 3.247-.78 3.248-1.25 3.142-.728 3.248-1.04 3.143-.963 3.247-1.223 3.248-1.327 2.933-.937 3.247-1.093 3.143-1.17 3.248-.937 3.142-1.119 3.248-1.17 3.247-.86 3.143-.962" clip-path="url(#pfb4c534ffc)" style="fill:none;stroke:#ff7f0e;stroke-width:1.5;stroke-linecap:square" id="line2d_33"/><path d="m98.073 301.266 3.143-.364 3.247-.599 3.248-.546 3.143-.26 3.247-.365 3.143-.416 3.247-.416 3.248-.573 2.933-.442 3.248-.468 3.142-.495 3.248-.286 3.143-.286 3.247-.39 3.248-.573 3.142-.364 3.248-.52 3.143-.469 3.247-.312 3.248-.598 2.933-.599 3.247-.624 3.143-.546 3.247-.443 3.143-.624 3.248-.599 3.247-.624 3.143-.468 3.247-.417 3.143-.416 3.248-.598 3.247-.65 3.038-.6 3.248-.806 3.142-1.743 3.248-2.472 3.143-2.263 3.247-2.212 3.248-2.472 3.142-2.445 3.248-1.665 3.143-1.25 3.247-2.08 3.248-2.837 2.933-2.497 3.247-2.602 3.143-1.978 3.248-2.367 3.142-1.873 3.248-2.212 3.247-2.602 3.143-3.148 3.248-2.81 3.142-3.694 3.248-4.658 3.247-3.85 2.933-4.501 3.248-4.632 3.143-2.445 3.247-3.46 3.143-3.149 3.247-3.148 3.248-3.643 3.143-3.122 3.247-3.824 3.143-3.279 3.247-2.627 3.248-3.591 2.933-3.096 3.248-3.643 3.142-3.434 3.248-3.669 3.143-2.601 3.247-4.892 3.248-2.367 3.142-2.784 3.248-2.576 3.143-2.862 3.247-2.784 3.248-3.07 3.038-2.524 3.247-2.784 3.143-3.694 3.247-3.513 3.143-3.59 3.248-3.877 3.247-3.148 3.143-3.2 3.247-3.044 3.143-3.253 3.248-3.564 3.247-3.565 2.933-3.538 3.248-3.486 3.142-2.836 3.248-3.565 3.143-3.2 3.247-2.914 3.248-7.363 3.142-3.877 3.248-3.226 3.143-3.46 3.247-4.06 3.248-4.63 2.933-3.981 3.247-4.19 3.143-3.355 3.248-3.59 3.142-3.513 3.248-3.279 3.247-3.278 3.143-3.33" clip-path="url(#pfb4c534ffc)" style="fill:none;stroke:#1f77b4;stroke-width:1.5;stroke-linecap:square" id="line2d_34"/></g></g><defs><clipPath id="pfb4c534ffc"><path d="M98.073 35.154h357.12v266.112H98.073z"/></clipPath></defs></svg>