<svg xmlns="http://www.w3.org/2000/svg" xmlns:xlink="http://www.w3.org/1999/xlink" width="985.852" height="446.883" viewBox="0 0 739.389 335.162"><defs><style>*{stroke-linejoin:round;stroke-linecap:butt}</style></defs><g id="figure_1"><path id="patch_1" d="M0 335.162h739.389V0H0v335.162z" style="fill:none"/><g id="axes_1"><path id="patch_2" d="M98.073 291.635h357.12V25.523H98.073v266.112z" style="fill:none"/><g id="matplotlib.axis_1"><g id="xtick_1"><g id="line2d_1"><defs><path id="m689f55c24c" d="M0 0v3.5" style="stroke:#b0b0b0;stroke-width:.4"/></defs><use xlink:href="#m689f55c24c" x="139.411" y="291.635" style="fill:#b0b0b0;stroke:#b0b0b0;stroke-width:.4"/></g><g id="text_1" style="fill:#b0b0b0" transform="matrix(.14 0 0 -.14 121.596 309.273)"><defs><path id="DejaVuSans-32" d="M1228 531h2203V0H469v531q359 372 979 998 621 627 780 809 303 340 423 576 121 236 121 464 0 372-261 606-261 235-680 235-297 0-627-103-329-103-704-313v638q381 153 712 231 332 78 607 78 725 0 1156-363 431-362 431-968 0-288-108-546-107-257-392-607-78-91-497-524-418-433-1181-1211z" transform="scale(.01563)"/><path id="DejaVuSans-30" d="M2034 4250q-487 0-733-480-245-479-245-1442 0-959 245-1439 246-480 733-480 491 0 736 480 246 480 246 1439 0 963-246 1442-245 480-736 480zm0 500q785 0 1199-621 414-620 414-1801 0-1178-414-1799Q2819-91 2034-91q-784 0-1198 620-414 621-414 1799 0 1181 414 1801 414 621 1198 621z" transform="scale(.01563)"/><path id="DejaVuSans-31" d="M794 531h1031v3560L703 3866v575l1116 225h631V531h1031V0H794v531z" transform="scale(.01563)"/></defs><use xlink:href="#DejaVuSans-32"/><use xlink:href="#DejaVuSans-30" x="63.623"/><use xlink:href="#DejaVuSans-31" x="127.246"/><use xlink:href="#DejaVuSans-32" x="190.869"/></g></g><g id="xtick_2"><use xlink:href="#m689f55c24c" id="line2d_2" x="197.748" y="291.635" style="fill:#b0b0b0;stroke:#b0b0b0;stroke-width:.4"/><g id="text_2" style="fill:#b0b0b0" transform="matrix(.14 0 0 -.14 179.933 309.273)"><defs><path id="DejaVuSans-34" d="M2419 4116 825 1625h1594v2491zm-166 550h794V1625h666v-525h-666V0h-628v1100H313v609l1940 2957z" transform="scale(.01563)"/></defs><use xlink:href="#DejaVuSans-32"/><use xlink:href="#DejaVuSans-30" x="63.623"/><use xlink:href="#DejaVuSans-31" x="127.246"/><use xlink:href="#DejaVuSans-34" x="190.869"/></g></g><g id="xtick_3"><use xlink:href="#m689f55c24c" id="line2d_3" x="256.004" y="291.635" style="fill:#b0b0b0;stroke:#b0b0b0;stroke-width:.4"/><g id="text_3" style="fill:#b0b0b0" transform="matrix(.14 0 0 -.14 238.189 309.273)"><defs><path id="DejaVuSans-36" d="M2113 2584q-425 0-674-291-248-290-248-796 0-503 248-796 249-292 674-292t673 292q248 293 248 796 0 506-248 796-248 291-673 291zm1253 1979v-575q-238 112-480 171-242 60-480 60-625 0-955-422-329-422-376-1275 184 272 462 417 279 145 613 145 703 0 1111-427 408-426 408-1160 0-719-425-1154Q2819-91 2113-91q-810 0-1238 620-428 621-428 1799 0 1106 525 1764t1409 658q238 0 480-47t505-140z" transform="scale(.01563)"/></defs><use xlink:href="#DejaVuSans-32"/><use xlink:href="#DejaVuSans-30" x="63.623"/><use xlink:href="#DejaVuSans-31" x="127.246"/><use xlink:href="#DejaVuSans-36" x="190.869"/></g></g><g id="xtick_4"><use xlink:href="#m689f55c24c" id="line2d_4" x="314.34" y="291.635" style="fill:#b0b0b0;stroke:#b0b0b0;stroke-width:.4"/><g id="text_4" style="fill:#b0b0b0" transform="matrix(.14 0 0 -.14 296.525 309.273)"><defs><path id="DejaVuSans-38" d="M2034 2216q-450 0-708-241-257-241-257-662 0-422 257-663 258-241 708-241t709 242q260 243 260 662 0 421-258 662-257 241-711 241zm-631 268q-406 100-633 378-226 279-226 679 0 559 398 884 399 325 1092 325 697 0 1094-325t397-884q0-400-227-679-226-278-629-378 456-106 710-416 255-309 255-755 0-679-414-1042Q2806-91 2034-91q-771 0-1186 362-414 363-414 1042 0 446 256 755 257 310 713 416zm-231 997q0-362 226-565 227-203 636-203 407 0 636 203 230 203 230 565 0 363-230 566-229 203-636 203-409 0-636-203-226-203-226-566z" transform="scale(.01563)"/></defs><use xlink:href="#DejaVuSans-32"/><use xlink:href="#DejaVuSans-30" x="63.623"/><use xlink:href="#DejaVuSans-31" x="127.246"/><use xlink:href="#DejaVuSans-38" x="190.869"/></g></g><g id="xtick_5"><use xlink:href="#m689f55c24c" id="line2d_5" x="372.597" y="291.635" style="fill:#b0b0b0;stroke:#b0b0b0;stroke-width:.4"/><g id="text_5" style="fill:#b0b0b0" transform="matrix(.14 0 0 -.14 354.782 309.273)"><use xlink:href="#DejaVuSans-32"/><use xlink:href="#DejaVuSans-30" x="63.623"/><use xlink:href="#DejaVuSans-32" x="127.246"/><use xlink:href="#DejaVuSans-30" x="190.869"/></g></g><g id="xtick_6"><use xlink:href="#m689f55c24c" id="line2d_6" x="430.933" y="291.635" style="fill:#b0b0b0;stroke:#b0b0b0;stroke-width:.4"/><g id="text_6" style="fill:#b0b0b0" transform="matrix(.14 0 0 -.14 413.118 309.273)"><use xlink:href="#DejaVuSans-32"/><use xlink:href="#DejaVuSans-30" x="63.623"/><use xlink:href="#DejaVuSans-32" x="127.246"/><use xlink:href="#DejaVuSans-32" x="190.869"/></g></g></g><g id="matplotlib.axis_2"><g id="ytick_1"><path id="line2d_7" d="M98.073 291.635h357.12" clip-path="url(#pf4c9830214)" style="fill:none;stroke:#b0b0b0;stroke-width:.3;stroke-linecap:square"/><g id="line2d_8"><defs><path id="mc602798c75" d="M0 0h-3.5" style="stroke:#b0b0b0;stroke-width:.3"/></defs><use xlink:href="#mc602798c75" x="98.073" y="291.635" style="fill:#b0b0b0;stroke:#b0b0b0;stroke-width:.3"/></g><use xlink:href="#DejaVuSans-30" id="text_7" style="fill:#b0b0b0" transform="matrix(.14 0 0 -.14 82.166 296.954)"/></g><g id="ytick_2"><path id="line2d_9" d="M98.073 255.842h357.12" clip-path="url(#pf4c9830214)" style="fill:none;stroke:#b0b0b0;stroke-width:.3;stroke-linecap:square"/><use xlink:href="#mc602798c75" id="line2d_10" x="98.073" y="255.842" style="fill:#b0b0b0;stroke:#b0b0b0;stroke-width:.3"/><g id="text_8" style="fill:#b0b0b0" transform="matrix(.14 0 0 -.14 55.443 261.161)"><defs><path id="DejaVuSans-35" d="M691 4666h2478v-532H1269V2991q137 47 274 70 138 23 276 23 781 0 1237-428 457-428 457-1159 0-753-469-1171Q2575-91 1722-91q-294 0-599 50Q819 9 494 109v635q281-153 581-228t634-75q541 0 856 284 316 284 316 772 0 487-316 771-315 285-856 285-253 0-505-56-251-56-513-175v2344z" transform="scale(.01563)"/></defs><use xlink:href="#DejaVuSans-32"/><use xlink:href="#DejaVuSans-35" x="63.623"/><use xlink:href="#DejaVuSans-30" x="127.246"/><use xlink:href="#DejaVuSans-30" x="190.869"/></g></g><g id="ytick_3"><path id="line2d_11" d="M98.073 220.05h357.12" clip-path="url(#pf4c9830214)" style="fill:none;stroke:#b0b0b0;stroke-width:.3;stroke-linecap:square"/><use xlink:href="#mc602798c75" id="line2d_12" x="98.073" y="220.05" style="fill:#b0b0b0;stroke:#b0b0b0;stroke-width:.3"/><g id="text_9" style="fill:#b0b0b0" transform="matrix(.14 0 0 -.14 55.443 225.369)"><use xlink:href="#DejaVuSans-35"/><use xlink:href="#DejaVuSans-30" x="63.623"/><use xlink:href="#DejaVuSans-30" x="127.246"/><use xlink:href="#DejaVuSans-30" x="190.869"/></g></g><g id="ytick_4"><path id="line2d_13" d="M98.073 184.257h357.12" clip-path="url(#pf4c9830214)" style="fill:none;stroke:#b0b0b0;stroke-width:.3;stroke-linecap:square"/><use xlink:href="#mc602798c75" id="line2d_14" x="98.073" y="184.257" style="fill:#b0b0b0;stroke:#b0b0b0;stroke-width:.3"/><g id="text_10" style="fill:#b0b0b0" transform="matrix(.14 0 0 -.14 55.443 189.576)"><defs><path id="DejaVuSans-37" d="M525 4666h3000v-269L1831 0h-659l1594 4134H525v532z" transform="scale(.01563)"/></defs><use xlink:href="#DejaVuSans-37"/><use xlink:href="#DejaVuSans-35" x="63.623"/><use xlink:href="#DejaVuSans-30" x="127.246"/><use xlink:href="#DejaVuSans-30" x="190.869"/></g></g><g id="ytick_5"><path id="line2d_15" d="M98.073 148.464h357.12" clip-path="url(#pf4c9830214)" style="fill:none;stroke:#b0b0b0;stroke-width:.3;stroke-linecap:square"/><use xlink:href="#mc602798c75" id="line2d_16" x="98.073" y="148.464" style="fill:#b0b0b0;stroke:#b0b0b0;stroke-width:.3"/><g id="text_11" style="fill:#b0b0b0" transform="matrix(.14 0 0 -.14 46.536 153.783)"><use xlink:href="#DejaVuSans-31"/><use xlink:href="#DejaVuSans-30" x="63.623"/><use xlink:href="#DejaVuSans-30" x="127.246"/><use xlink:href="#DejaVuSans-30" x="190.869"/><use xlink:href="#DejaVuSans-30" x="254.492"/></g></g><g id="ytick_6"><path id="line2d_17" d="M98.073 112.671h357.12" clip-path="url(#pf4c9830214)" style="fill:none;stroke:#b0b0b0;stroke-width:.3;stroke-linecap:square"/><use xlink:href="#mc602798c75" id="line2d_18" x="98.073" y="112.671" style="fill:#b0b0b0;stroke:#b0b0b0;stroke-width:.3"/><g id="text_12" style="fill:#b0b0b0" transform="matrix(.14 0 0 -.14 46.536 117.99)"><use xlink:href="#DejaVuSans-31"/><use xlink:href="#DejaVuSans-32" x="63.623"/><use xlink:href="#DejaVuSans-35" x="127.246"/><use xlink:href="#DejaVuSans-30" x="190.869"/><use xlink:href="#DejaVuSans-30" x="254.492"/></g></g><g id="ytick_7"><path id="line2d_19" d="M98.073 76.879h357.12" clip-path="url(#pf4c9830214)" style="fill:none;stroke:#b0b0b0;stroke-width:.3;stroke-linecap:square"/><use xlink:href="#mc602798c75" id="line2d_20" x="98.073" y="76.879" style="fill:#b0b0b0;stroke:#b0b0b0;stroke-width:.3"/><g id="text_13" style="fill:#b0b0b0" transform="matrix(.14 0 0 -.14 46.536 82.198)"><use xlink:href="#DejaVuSans-31"/><use xlink:href="#DejaVuSans-35" x="63.623"/><use xlink:href="#DejaVuSans-30" x="127.246"/><use xlink:href="#DejaVuSans-30" x="190.869"/><use xlink:href="#DejaVuSans-30" x="254.492"/></g></g><g id="ytick_8"><path id="line2d_21" d="M98.073 41.086h357.12" clip-path="url(#pf4c9830214)" style="fill:none;stroke:#b0b0b0;stroke-width:.3;stroke-linecap:square"/><use xlink:href="#mc602798c75" id="line2d_22" x="98.073" y="41.086" style="fill:#b0b0b0;stroke:#b0b0b0;stroke-width:.3"/><g id="text_14" style="fill:#b0b0b0" transform="matrix(.14 0 0 -.14 46.536 46.405)"><use xlink:href="#DejaVuSans-31"/><use xlink:href="#DejaVuSans-37" x="63.623"/><use xlink:href="#DejaVuSans-35" x="127.246"/><use xlink:href="#DejaVuSans-30" x="190.869"/><use xlink:href="#DejaVuSans-30" x="254.492"/></g></g><g id="text_15" style="fill:#b0b0b0" transform="matrix(.14 0 0 -.14 7.2 11.563)"><defs><path id="DejaVuSans-47" d="M3809 666v1253H2778v519h1656V434q-365-259-806-392-440-133-940-133-1094 0-1712 639-617 640-617 1780 0 1144 617 1783 618 639 1712 639 456 0 867-113 411-112 758-331v-672q-350 297-744 447t-828 150q-857 0-1287-478-429-478-429-1425 0-944 429-1422 430-478 1287-478 334 0 596 58 263 58 472 180z" transform="scale(.01563)"/><path id="DejaVuSans-69" d="M603 3500h575V0H603v3500zm0 1363h575v-729H603v729z" transform="scale(.01563)"/><path id="DejaVuSans-74" d="M1172 4494v-994h1184v-447H1172V1153q0-428 117-550t477-122h590V0h-590q-666 0-919 248-253 249-253 905v1900H172v447h422v994h578z" transform="scale(.01563)"/><path id="DejaVuSans-48" d="M628 4666h631V2753h2294v1913h631V0h-631v2222H1259V0H628v4666z" transform="scale(.01563)"/><path id="DejaVuSans-75" d="M544 1381v2119h575V1403q0-497 193-746 194-248 582-248 465 0 735 297 271 297 271 810v1984h575V0h-575v538q-209-319-486-474-276-155-642-155-603 0-916 375-312 375-312 1097zm1447 2203z" transform="scale(.01563)"/><path id="DejaVuSans-62" d="M3116 1747q0 634-261 995t-717 361q-457 0-718-361t-261-995q0-634 261-995t718-361q456 0 717 361t261 995zM1159 2969q182 312 458 463 277 152 661 152 638 0 1036-506 399-506 399-1331T3314 415Q2916-91 2278-91q-384 0-661 152-276 152-458 464V0H581v4863h578V2969z" transform="scale(.01563)"/><path id="DejaVuSans-73" d="M2834 3397v-544q-243 125-506 187-262 63-544 63-428 0-642-131t-214-394q0-200 153-314t616-217l197-44q612-131 870-370t258-667q0-488-386-773Q2250-91 1575-91q-281 0-586 55T347 128v594q319-166 628-249 309-82 613-82 406 0 624 139 219 139 219 392 0 234-158 359-157 125-692 241l-200 47q-534 112-772 345-237 233-237 639 0 494 350 762 350 269 994 269 318 0 599-47 282-46 519-140z" transform="scale(.01563)"/><path id="DejaVuSans-61" d="M2194 1759q-697 0-966-159t-269-544q0-306 202-486 202-179 548-179 479 0 768 339t289 901v128h-572zm1147 238V0h-575v531q-197-318-491-470T1556-91q-537 0-855 302-317 302-317 808 0 590 395 890 396 300 1180 300h807v57q0 397-261 614t-733 217q-300 0-585-72-284-72-546-216v532q315 122 612 182 297 61 578 61 760 0 1135-394 375-393 375-1193z" transform="scale(.01563)"/><path id="DejaVuSans-72" d="M2631 2963q-97 56-211 82-114 27-251 27-488 0-749-317t-261-911V0H581v3500h578v-544q182 319 472 473 291 155 707 155 59 0 131-8 72-7 159-23l3-590z" transform="scale(.01563)"/></defs><use xlink:href="#DejaVuSans-47"/><use xlink:href="#DejaVuSans-69" x="77.49"/><use xlink:href="#DejaVuSans-74" x="105.273"/><use xlink:href="#DejaVuSans-48" x="144.482"/><use xlink:href="#DejaVuSans-75" x="219.678"/><use xlink:href="#DejaVuSans-62" x="283.057"/><use xlink:href="#DejaVuSans-20" x="346.533"/><use xlink:href="#DejaVuSans-73" x="378.32"/><use xlink:href="#DejaVuSans-74" x="430.42"/><use xlink:href="#DejaVuSans-61" x="469.629"/><use xlink:href="#DejaVuSans-72" x="530.908"/><use xlink:href="#DejaVuSans-73" x="572.021"/></g></g><path id="line2d_23" d="m243.794 291.635 2.474-.157 2.394-.158 2.474-.243 2.394-.158 2.474-.114 2.474-.215 2.314-.143 2.474-.172 2.394-.1 2.474-.115 2.394-.214 2.474-.115 2.474-.157 2.394-.23 2.474-.2 2.394-.286 2.474-.186 2.474-.187 2.234-.315 2.474-.2 2.394-.157 2.474-.272 2.394-.115 2.474-.23 2.474-.185 2.394-.272 2.474-.272 2.394-.373 2.474-.272 2.474-.515 2.235-.4 2.474-.473 2.394-.358 2.474-.401 2.394-.487 2.474-.186 2.473-.458 2.395-.387 2.473-.415 2.395-.315 2.473-.2 2.474-.301 2.235-.458 2.474-.401 2.394-.33 2.474-.257 2.394-.243 2.474-.315 2.474-.373 2.394-.43 2.474-.357 2.394-.286 2.474-.344 2.474-.33 2.314-.372 2.474-.329 2.394-.4 2.474-.258 2.394-.358 2.474-.258 2.474-.186 2.394-.358 2.474-.258 2.394-.286 2.474-.272 2.474-.244 2.234-.2 2.474-.258 2.394-.2 2.474-.215 2.394-.286 2.474-.23 2.474-.2 2.394-.243 2.474-.186 2.394-.244 2.474-.114 2.474-.3 2.234-.23 2.474-.172 2.394-.43 2.474-.4 2.394-.2 2.474-.201 2.474-.158 2.394-.186 2.474-.143" clip-path="url(#pf4c9830214)" style="fill:none;stroke:#c5b0d5;stroke-width:1.5;stroke-linecap:square"/><path id="line2d_24" d="m202.456 291.635 2.474-.114 2.394-.1 2.474-.03h2.394l2.474-.07 2.474-.044 2.394-.114 2.474-.13 2.394-.042 2.474-.057 2.474-.058 2.234-.057 2.474-.043 2.394-.071 2.474-.072 2.394-.072 2.474-.157 2.474-.043 2.394-.029 2.474-.243 2.394-.33 2.474-.357 2.474-.516 2.314-.286 2.474-.186 2.394-.286 2.474-.144 2.394-.157 2.474-.244 2.474-.386 2.394-.2 2.474-.158 2.394-.3 2.474-.23 2.474-.315 2.234-.315 2.474-.272 2.394-.372 2.474-.387 2.394-.386 2.474-.3 2.474-.359 2.394-.329 2.474-.415 2.394-.401 2.474-.344 2.474-.458 2.235-.63 2.474-.558 2.394-.63 2.474-.444 2.394-.487 2.474-.658 2.473-.33 2.395-.53 2.473-.457 2.395-.459 2.473-.415 2.474-.558 2.235-.401 2.474-.473 2.394-.357 2.474-.43 2.394-.43 2.474-.357 2.474-.287 2.394-.386 2.474-.616 2.394-.4 2.474-.387 2.474-.459 2.314-.443 2.474-.645 2.394-.758 2.474-.76 2.394-.772 2.474-.573 2.474-.487 2.394-.558 2.474-.587 2.394-.644 2.474-.53 2.474-.644 2.234-.645 2.474-.802 2.394-.515 2.474-.558 2.394-.487 2.474-.501 2.474-.458 2.394-.53 2.474-.616 2.394-.444 2.474-.486 2.474-.73 2.234-.545 2.474-.801 2.394-.458 2.474-.702 2.394-.96 2.474-.6 2.474-.473 2.394-.616 2.474-.687" clip-path="url(#pf4c9830214)" style="fill:none;stroke:#ff9896;stroke-width:1.5;stroke-linecap:square"/><path id="line2d_25" d="m287.686 291.635 2.234-.014 2.474-.057 2.394-.029 2.474-8.275 2.394-4.61 2.474-.401 2.474-.13 2.394-.2 2.474-.171 2.394-.315 2.474-.086 2.474-.272 2.235-.287 2.474-.214 2.394-.344 2.474-.258 2.394-.143 2.474-.186 2.473-.157 2.395-.244 2.473-.258 2.395-.229 2.473-.2 2.474-.23 2.235-.128 2.474-.286 2.394-.401 2.474-.272 2.394-.143 2.474-.23 2.474-.2 2.394-.573 2.474-2.548 2.394-.33 2.474-.343 2.474-.387 2.314-.229 2.474-.272 2.394-.229 2.474-.272 2.394-.315 2.474-1.303 2.474-.329 2.394-.229 2.474-.444 2.394-.487 2.474-2.104 2.474-.945 2.234-.444 2.474-.358 2.394-.415 2.474-.902 2.394-.673 2.474-.387 2.474-.458 2.394-.5 2.474-.545 2.394-.773 2.474-.558 2.474-.616 2.234-.515 2.474-.516 2.394-.444 2.474-.486 2.394-.387 2.474-.988 2.474-.744 2.394-.659 2.474-.616" clip-path="url(#pf4c9830214)" style="fill:none;stroke:#98df8a;stroke-width:1.5;stroke-linecap:square"/><g id="text_16" style="fill:#1f77b4" transform="matrix(.14 0 0 -.14 465.907 26.653)"><defs><path id="DejaVuSans-49" d="M628 4666h631V0H628v4666z" transform="scale(.01563)"/><path id="DejaVuSans-71" d="M947 1747q0-634 261-995t717-361q456 0 718 361 263 361 263 995t-263 995q-262 361-718 361t-717-361q-261-361-261-995zM2906 525q-181-312-458-464-276-152-664-152-634 0-1033 506-398 507-398 1332t398 1331q399 506 1033 506 388 0 664-152 277-151 458-463v531h575v-4831h-575V525z" transform="scale(.01563)"/><path id="DejaVuSans-6c" d="M603 4863h575V0H603v4863z" transform="scale(.01563)"/><path id="DejaVuSans-2f" d="M1625 4666h531L531-594H0l1625 5260z" transform="scale(.01563)"/><path id="DejaVuSans-50" d="M1259 4147V2394h794q441 0 681 228 241 228 241 650 0 419-241 647-240 228-681 228h-794zm-631 519h1425q785 0 1186-355 402-355 402-1039 0-691-402-1044-401-353-1186-353h-794V0H628v4666z" transform="scale(.01563)"/><path id="DejaVuSans-6f" d="M1959 3097q-462 0-731-361t-269-989q0-628 267-989 268-361 733-361 460 0 728 362 269 363 269 988 0 622-269 986-268 364-728 364zm0 487q750 0 1178-488 429-487 429-1349 0-859-429-1349Q2709-91 1959-91q-753 0-1180 489-426 490-426 1349 0 862 426 1349 427 488 1180 488z" transform="scale(.01563)"/><path id="DejaVuSans-4e" d="M628 4666h850L3547 763v3903h612V0h-850L1241 3903V0H628v4666z" transform="scale(.01563)"/><path id="DejaVuSans-65" d="M3597 1894v-281H953q38-594 358-905t892-311q331 0 642 81t618 244V178Q3153 47 2828-22t-659-69q-838 0-1327 487-489 488-489 1320 0 859 464 1363 464 505 1252 505 706 0 1117-455 411-454 411-1235zm-575 169q-6 471-264 752-258 282-683 282-481 0-770-272t-333-766l2050 4z" transform="scale(.01563)"/></defs><use xlink:href="#DejaVuSans-48"/><use xlink:href="#DejaVuSans-61" x="75.195"/><use xlink:href="#DejaVuSans-72" x="136.475"/><use xlink:href="#DejaVuSans-69" x="177.588"/><use xlink:href="#DejaVuSans-73" x="205.371"/><use xlink:href="#DejaVuSans-49" x="257.471"/><use xlink:href="#DejaVuSans-71" x="286.963"/><use xlink:href="#DejaVuSans-62" x="350.439"/><use xlink:href="#DejaVuSans-61" x="413.916"/><use xlink:href="#DejaVuSans-6c" x="475.195"/><use xlink:href="#DejaVuSans-38" x="502.979"/><use xlink:href="#DejaVuSans-38" x="566.602"/><use xlink:href="#DejaVuSans-2f" x="630.225"/><use xlink:href="#DejaVuSans-50" x="663.916"/><use xlink:href="#DejaVuSans-6c" x="724.219"/><use xlink:href="#DejaVuSans-6f" x="752.002"/><use xlink:href="#DejaVuSans-74" x="813.184"/><use xlink:href="#DejaVuSans-4e" x="852.393"/><use xlink:href="#DejaVuSans-65" x="927.197"/><use xlink:href="#DejaVuSans-75" x="988.721"/><use xlink:href="#DejaVuSans-72" x="1052.1"/><use xlink:href="#DejaVuSans-61" x="1093.213"/><use xlink:href="#DejaVuSans-6c" x="1154.492"/><use xlink:href="#DejaVuSans-4e" x="1182.275"/><use xlink:href="#DejaVuSans-65" x="1257.08"/><use xlink:href="#DejaVuSans-74" x="1318.604"/></g><g id="text_17" style="fill:#ff7f0e" transform="matrix(.14 0 0 -.14 465.907 40.653)"><defs><path id="DejaVuSans-70" d="M1159 525v-1856H581v4831h578v-531q182 312 458 463 277 152 661 152 638 0 1036-506 399-506 399-1331T3314 415Q2916-91 2278-91q-384 0-661 152-276 152-458 464zm1957 1222q0 634-261 995t-717 361q-457 0-718-361t-261-995q0-634 261-995t718-361q456 0 717 361t261 995z" transform="scale(.01563)"/><path id="DejaVuSans-41" d="m2188 4044-857-2322h1716l-859 2322zm-357 622h716L4325 0h-656l-425 1197H1141L716 0H50l1781 4666z" transform="scale(.01563)"/><path id="DejaVuSans-77" d="M269 3500h575l719-2731 715 2731h678l719-2731 716 2731h575L4050 0h-678l-753 2869L1863 0h-679L269 3500z" transform="scale(.01563)"/><path id="DejaVuSans-6d" d="M3328 2828q216 388 516 572t706 184q547 0 844-383 297-382 297-1088V0h-578v2094q0 503-179 746-178 244-543 244-447 0-707-297-259-296-259-809V0h-578v2094q0 506-178 748t-550 242q-441 0-701-298-259-298-259-808V0H581v3500h578v-544q197 322 472 475t653 153q382 0 649-194 267-193 395-562z" transform="scale(.01563)"/><path id="DejaVuSans-2d" d="M313 2009h1684v-512H313v512z" transform="scale(.01563)"/><path id="DejaVuSans-43" d="M4122 4306v-665q-319 297-680 443-361 147-767 147-800 0-1225-489t-425-1414q0-922 425-1411t1225-489q406 0 767 147t680 444V359q-331-225-702-338-370-112-782-112-1060 0-1670 648-609 649-609 1771 0 1125 609 1773 610 649 1670 649 418 0 788-111 371-111 696-333z" transform="scale(.01563)"/><path id="DejaVuSans-56" d="M1831 0 50 4666h659L2188 738l1481 3928h656L2547 0h-716z" transform="scale(.01563)"/></defs><use xlink:href="#DejaVuSans-70"/><use xlink:href="#DejaVuSans-6f" x="63.477"/><use xlink:href="#DejaVuSans-73" x="124.658"/><use xlink:href="#DejaVuSans-71" x="176.758"/><use xlink:href="#DejaVuSans-75" x="240.234"/><use xlink:href="#DejaVuSans-69" x="303.613"/><use xlink:href="#DejaVuSans-74" x="331.396"/><use xlink:href="#DejaVuSans-30" x="370.605"/><use xlink:href="#DejaVuSans-2f" x="434.229"/><use xlink:href="#DejaVuSans-41" x="467.92"/><use xlink:href="#DejaVuSans-77" x="532.328"/><use xlink:href="#DejaVuSans-65" x="614.115"/><use xlink:href="#DejaVuSans-73" x="675.639"/><use xlink:href="#DejaVuSans-6f" x="727.738"/><use xlink:href="#DejaVuSans-6d" x="788.92"/><use xlink:href="#DejaVuSans-65" x="886.332"/><use xlink:href="#DejaVuSans-2d" x="947.855"/><use xlink:href="#DejaVuSans-43" x="983.939"/><use xlink:href="#DejaVuSans-56" x="1053.764"/></g><g id="text_18" style="fill:#2ca02c" transform="matrix(.14 0 0 -.14 465.907 63.661)"><defs><path id="DejaVuSans-4b" d="M628 4666h631V2694l2094 1972h813L1850 2491 4331 0h-831L1259 2247V0H628v4666z" transform="scale(.01563)"/><path id="DejaVuSans-54" d="M-19 4666h3947v-532H2272V0h-634v4134H-19v532z" transform="scale(.01563)"/><path id="DejaVuSans-58" d="M403 4666h678l1160-1735 1165 1735h678L2584 2425 4184 0h-678L2194 1984 872 0H191l1665 2491L403 4666z" transform="scale(.01563)"/></defs><use xlink:href="#DejaVuSans-4b"/><use xlink:href="#DejaVuSans-61" x="63.826"/><use xlink:href="#DejaVuSans-54" x="125.105"/><use xlink:href="#DejaVuSans-65" x="169.189"/><use xlink:href="#DejaVuSans-58" x="230.713"/><use xlink:href="#DejaVuSans-2f" x="299.219"/><use xlink:href="#DejaVuSans-4b" x="332.91"/><use xlink:href="#DejaVuSans-61" x="396.736"/><use xlink:href="#DejaVuSans-54" x="458.016"/><use xlink:href="#DejaVuSans-65" x="502.1"/><use xlink:href="#DejaVuSans-58" x="563.623"/></g><g id="text_19" style="fill:#d62728" transform="matrix(.14 0 0 -.14 465.907 139.41)"><defs><path id="DejaVuSans-76" d="M191 3500h609L1894 563l1094 2937h609L2284 0h-781L191 3500z" transform="scale(.01563)"/><path id="DejaVuSans-66" d="M2375 4863v-479h-550q-309 0-430-125-120-125-120-450v-309h947v-447h-947V0H697v3053H147v447h550v244q0 584 272 851 272 268 862 268h544z" transform="scale(.01563)"/></defs><use xlink:href="#DejaVuSans-6f"/><use xlink:href="#DejaVuSans-76" x="61.182"/><use xlink:href="#DejaVuSans-65" x="120.361"/><use xlink:href="#DejaVuSans-72" x="181.885"/><use xlink:href="#DejaVuSans-6c" x="222.998"/><use xlink:href="#DejaVuSans-65" x="250.781"/><use xlink:href="#DejaVuSans-61" x="312.305"/><use xlink:href="#DejaVuSans-66" x="373.584"/><use xlink:href="#DejaVuSans-2f" x="408.789"/><use xlink:href="#DejaVuSans-6f" x="442.48"/><use xlink:href="#DejaVuSans-76" x="503.662"/><use xlink:href="#DejaVuSans-65" x="562.842"/><use xlink:href="#DejaVuSans-72" x="624.365"/><use xlink:href="#DejaVuSans-6c" x="665.479"/><use xlink:href="#DejaVuSans-65" x="693.262"/><use xlink:href="#DejaVuSans-61" x="754.785"/><use xlink:href="#DejaVuSans-66" x="816.064"/></g><g id="text_20" style="fill:#9467bd" transform="matrix(.14 0 0 -.14 465.907 153.41)"><defs><path id="DejaVuSans-68" d="M3513 2113V0h-575v2094q0 497-194 743-194 247-581 247-466 0-735-297-269-296-269-809V0H581v4863h578V2956q207 316 486 472 280 156 646 156 603 0 912-373 310-373 310-1098z" transform="scale(.01563)"/><path id="DejaVuSans-63" d="M3122 3366v-538q-244 135-489 202t-495 67q-560 0-870-355-309-354-309-995t309-996q310-354 870-354 250 0 495 67t489 202V134Q2881 22 2623-34q-257-57-548-57-791 0-1257 497-465 497-465 1341 0 856 470 1346 471 491 1290 491 265 0 518-55 253-54 491-163z" transform="scale(.01563)"/><path id="DejaVuSans-79" d="M2059-325q-243-625-475-815-231-191-618-191H506v481h338q237 0 368 113 132 112 291 531l103 262L191 3500h609L1894 763l1094 2737h609L2059-325z" transform="scale(.01563)"/><path id="DejaVuSans-6b" d="M581 4863h578V1991l1716 1509h734L1753 1863 3688 0h-750L1159 1709V0H581v4863z" transform="scale(.01563)"/><path id="DejaVuSans-64" d="M2906 2969v1894h575V0h-575v525q-181-312-458-464-276-152-664-152-634 0-1033 506-398 507-398 1332t398 1331q399 506 1033 506 388 0 664-152 277-151 458-463zM947 1747q0-634 261-995t717-361q456 0 718 361 263 361 263 995t-263 995q-262 361-718 361t-717-361q-261-361-261-995z" transform="scale(.01563)"/></defs><use xlink:href="#DejaVuSans-68"/><use xlink:href="#DejaVuSans-6d" x="63.379"/><use xlink:href="#DejaVuSans-65" x="160.791"/><use xlink:href="#DejaVuSans-6d" x="222.314"/><use xlink:href="#DejaVuSans-63" x="319.727"/><use xlink:href="#DejaVuSans-70" x="374.707"/><use xlink:href="#DejaVuSans-79" x="438.184"/><use xlink:href="#DejaVuSans-2f" x="497.363"/><use xlink:href="#DejaVuSans-6d" x="531.055"/><use xlink:href="#DejaVuSans-69" x="628.467"/><use xlink:href="#DejaVuSans-6c" x="656.25"/><use xlink:href="#DejaVuSans-65" x="684.033"/><use xlink:href="#DejaVuSans-77" x="745.557"/><use xlink:href="#DejaVuSans-73" x="827.344"/><use xlink:href="#DejaVuSans-6b" x="879.443"/><use xlink:href="#DejaVuSans-69" x="937.354"/><use xlink:href="#DejaVuSans-2d" x="965.137"/><use xlink:href="#DejaVuSans-63" x="1001.221"/><use xlink:href="#DejaVuSans-74" x="1056.201"/><use xlink:href="#DejaVuSans-66" x="1095.41"/><use xlink:href="#DejaVuSans-70" x="1130.615"/><use xlink:href="#DejaVuSans-2d" x="1194.092"/><use xlink:href="#DejaVuSans-70" x="1230.176"/><use xlink:href="#DejaVuSans-64" x="1293.652"/><use xlink:href="#DejaVuSans-66" x="1357.129"/></g><g id="text_21" style="fill:#8c564b" transform="matrix(.14 0 0 -.14 465.907 167.41)"><defs><path id="DejaVuSans-6a" d="M603 3500h575V-63q0-668-255-968-254-300-820-300h-219v487H38q328 0 446 152Q603-541 603-63v3563zm0 1363h575v-729H603v729z" transform="scale(.01563)"/><path id="DejaVuSans-78" d="M3513 3500 2247 1797 3578 0h-678L1881 1375 863 0H184l1360 1831L300 3500h678l928-1247 928 1247h679z" transform="scale(.01563)"/><path id="DejaVuSans-4d" d="M628 4666h941l1190-3175 1197 3175h941V0h-616v4097L3078 897h-634L1241 4097V0H628v4666z" transform="scale(.01563)"/><path id="DejaVuSans-4a" d="M628 4666h631V325q0-844-320-1225T-91-1281h-240v531h197q418 0 590 235 172 234 172 840v4341z" transform="scale(.01563)"/></defs><use xlink:href="#DejaVuSans-6d"/><use xlink:href="#DejaVuSans-61" x="97.412"/><use xlink:href="#DejaVuSans-74" x="158.691"/><use xlink:href="#DejaVuSans-68" x="197.9"/><use xlink:href="#DejaVuSans-6a" x="261.279"/><use xlink:href="#DejaVuSans-61" x="289.063"/><use xlink:href="#DejaVuSans-78" x="350.342"/><use xlink:href="#DejaVuSans-2f" x="409.521"/><use xlink:href="#DejaVuSans-4d" x="443.213"/><use xlink:href="#DejaVuSans-61" x="529.492"/><use xlink:href="#DejaVuSans-74" x="590.771"/><use xlink:href="#DejaVuSans-68" x="629.98"/><use xlink:href="#DejaVuSans-4a" x="693.359"/><use xlink:href="#DejaVuSans-61" x="722.852"/><use xlink:href="#DejaVuSans-78" x="784.131"/></g><g id="text_22" style="fill:#e377c2" transform="matrix(.14 0 0 -.14 465.907 187.025)"><defs><path id="DejaVuSans-6e" d="M3513 2113V0h-575v2094q0 497-194 743-194 247-581 247-466 0-735-297-269-296-269-809V0H581v3500h578v-544q207 316 486 472 280 156 646 156 603 0 912-373 310-373 310-1098z" transform="scale(.01563)"/></defs><use xlink:href="#DejaVuSans-62"/><use xlink:href="#DejaVuSans-69" x="63.477"/><use xlink:href="#DejaVuSans-6c" x="91.26"/><use xlink:href="#DejaVuSans-6c" x="119.043"/><use xlink:href="#DejaVuSans-72" x="146.826"/><use xlink:href="#DejaVuSans-79" x="187.939"/><use xlink:href="#DejaVuSans-61" x="247.119"/><use xlink:href="#DejaVuSans-6e" x="308.398"/><use xlink:href="#DejaVuSans-2f" x="371.777"/><use xlink:href="#DejaVuSans-72" x="405.469"/><use xlink:href="#DejaVuSans-65" x="444.332"/><use xlink:href="#DejaVuSans-73" x="505.855"/><use xlink:href="#DejaVuSans-75" x="557.955"/><use xlink:href="#DejaVuSans-6d" x="621.334"/><use xlink:href="#DejaVuSans-65" x="718.746"/></g><g id="text_23" style="fill:#7f7f7f" transform="matrix(.14 0 0 -.14 465.907 201.025)"><defs><path id="DejaVuSans-57" d="M213 4666h637l981-3944 978 3944h710l981-3944 978 3944h641L4947 0h-794l-984 4050L2175 0h-794L213 4666z" transform="scale(.01563)"/></defs><use xlink:href="#DejaVuSans-57"/><use xlink:href="#DejaVuSans-61" x="92.502"/><use xlink:href="#DejaVuSans-6e" x="153.781"/><use xlink:href="#DejaVuSans-64" x="217.16"/><use xlink:href="#DejaVuSans-6d" x="280.637"/><use xlink:href="#DejaVuSans-61" x="378.049"/><use xlink:href="#DejaVuSans-6c" x="439.328"/><use xlink:href="#DejaVuSans-66" x="467.111"/><use xlink:href="#DejaVuSans-61" x="502.316"/><use xlink:href="#DejaVuSans-72" x="563.596"/><use xlink:href="#DejaVuSans-62" x="604.709"/><use xlink:href="#DejaVuSans-65" x="668.186"/><use xlink:href="#DejaVuSans-2f" x="729.709"/><use xlink:href="#DejaVuSans-70" x="763.4"/><use xlink:href="#DejaVuSans-61" x="826.877"/><use xlink:href="#DejaVuSans-6e" x="888.156"/><use xlink:href="#DejaVuSans-64" x="951.535"/><use xlink:href="#DejaVuSans-6f" x="1015.012"/><use xlink:href="#DejaVuSans-63" x="1076.193"/><use xlink:href="#DejaVuSans-2d" x="1131.174"/><use xlink:href="#DejaVuSans-6c" x="1167.258"/><use xlink:href="#DejaVuSans-61" x="1195.041"/><use xlink:href="#DejaVuSans-74" x="1256.32"/><use xlink:href="#DejaVuSans-65" x="1295.529"/><use xlink:href="#DejaVuSans-78" x="1355.303"/><use xlink:href="#DejaVuSans-2d" x="1414.482"/><use xlink:href="#DejaVuSans-74" x="1450.566"/><use xlink:href="#DejaVuSans-65" x="1489.775"/><use xlink:href="#DejaVuSans-6d" x="1551.299"/><use xlink:href="#DejaVuSans-70" x="1648.711"/><use xlink:href="#DejaVuSans-6c" x="1712.188"/><use xlink:href="#DejaVuSans-61" x="1739.971"/><use xlink:href="#DejaVuSans-74" x="1801.25"/><use xlink:href="#DejaVuSans-65" x="1840.459"/></g><g id="text_24" style="fill:#bcbd22" transform="matrix(.14 0 0 -.14 465.907 215.025)"><defs><path id="DejaVuSans-67" d="M2906 1791q0 625-258 968-257 344-723 344-462 0-720-344-258-343-258-968 0-622 258-966t720-344q466 0 723 344 258 344 258 966zm575-1357q0-893-397-1329-396-436-1215-436-303 0-572 45t-522 139v559q253-137 500-202 247-66 503-66 566 0 847 295t281 892v285q-178-310-456-463T1784 0Q1141 0 747 490 353 981 353 1791q0 812 394 1302 394 491 1037 491 388 0 666-153t456-462v531h575V434z" transform="scale(.01563)"/></defs><use xlink:href="#DejaVuSans-6c"/><use xlink:href="#DejaVuSans-65" x="27.783"/><use xlink:href="#DejaVuSans-72" x="89.307"/><use xlink:href="#DejaVuSans-76" x="130.42"/><use xlink:href="#DejaVuSans-61" x="189.6"/><use xlink:href="#DejaVuSans-67" x="250.879"/><use xlink:href="#DejaVuSans-2f" x="314.355"/><use xlink:href="#DejaVuSans-76" x="348.047"/><use xlink:href="#DejaVuSans-69" x="407.227"/><use xlink:href="#DejaVuSans-6d" x="435.01"/><use xlink:href="#DejaVuSans-74" x="532.422"/><use xlink:href="#DejaVuSans-65" x="571.631"/><use xlink:href="#DejaVuSans-78" x="631.404"/></g><g id="text_25" style="fill:#17becf" transform="matrix(.14 0 0 -.14 465.907 229.025)"><use xlink:href="#DejaVuSans-73"/><use xlink:href="#DejaVuSans-62" x="52.1"/><use xlink:href="#DejaVuSans-32" x="115.576"/><use xlink:href="#DejaVuSans-6e" x="179.199"/><use xlink:href="#DejaVuSans-6f" x="242.578"/><use xlink:href="#DejaVuSans-76" x="303.76"/><use xlink:href="#DejaVuSans-2f" x="362.939"/><use xlink:href="#DejaVuSans-72" x="396.631"/><use xlink:href="#DejaVuSans-65" x="435.494"/><use xlink:href="#DejaVuSans-73" x="497.018"/><use xlink:href="#DejaVuSans-75" x="549.117"/><use xlink:href="#DejaVuSans-6d" x="612.496"/><use xlink:href="#DejaVuSans-65" x="709.908"/></g><g id="text_26" style="fill:#aec7e8" transform="matrix(.14 0 0 -.14 465.907 243.025)"><use xlink:href="#DejaVuSans-57"/><use xlink:href="#DejaVuSans-6f" x="93.002"/><use xlink:href="#DejaVuSans-6f" x="154.184"/><use xlink:href="#DejaVuSans-6b" x="215.365"/><use xlink:href="#DejaVuSans-61" x="271.525"/><use xlink:href="#DejaVuSans-69" x="332.805"/><use xlink:href="#DejaVuSans-2f" x="360.588"/><use xlink:href="#DejaVuSans-70" x="394.279"/><use xlink:href="#DejaVuSans-61" x="457.756"/><use xlink:href="#DejaVuSans-70" x="519.035"/><use xlink:href="#DejaVuSans-65" x="582.512"/><use xlink:href="#DejaVuSans-72" x="644.035"/><use xlink:href="#DejaVuSans-2d" x="678.773"/><use xlink:href="#DejaVuSans-74" x="714.857"/><use xlink:href="#DejaVuSans-69" x="754.066"/><use xlink:href="#DejaVuSans-70" x="781.85"/><use xlink:href="#DejaVuSans-73" x="845.326"/><use xlink:href="#DejaVuSans-2d" x="897.426"/><use xlink:href="#DejaVuSans-61" x="933.51"/><use xlink:href="#DejaVuSans-6e" x="994.789"/><use xlink:href="#DejaVuSans-64" x="1058.168"/><use xlink:href="#DejaVuSans-2d" x="1121.645"/><use xlink:href="#DejaVuSans-74" x="1157.729"/><use xlink:href="#DejaVuSans-72" x="1196.938"/><use xlink:href="#DejaVuSans-69" x="1238.051"/><use xlink:href="#DejaVuSans-63" x="1265.834"/><use xlink:href="#DejaVuSans-6b" x="1320.814"/><use xlink:href="#DejaVuSans-73" x="1378.725"/></g><g id="text_27" style="fill:#ffbb78" transform="matrix(.14 0 0 -.14 465.907 257.025)"><use xlink:href="#DejaVuSans-67"/><use xlink:href="#DejaVuSans-6f" x="63.477"/><use xlink:href="#DejaVuSans-6f" x="124.658"/><use xlink:href="#DejaVuSans-67" x="185.84"/><use xlink:href="#DejaVuSans-6c" x="249.316"/><use xlink:href="#DejaVuSans-65" x="277.1"/><use xlink:href="#DejaVuSans-2d" x="338.623"/><use xlink:href="#DejaVuSans-72" x="374.707"/><use xlink:href="#DejaVuSans-65" x="413.57"/><use xlink:href="#DejaVuSans-73" x="475.094"/><use xlink:href="#DejaVuSans-65" x="527.193"/><use xlink:href="#DejaVuSans-61" x="588.717"/><use xlink:href="#DejaVuSans-72" x="649.996"/><use xlink:href="#DejaVuSans-63" x="688.859"/><use xlink:href="#DejaVuSans-68" x="743.84"/><use xlink:href="#DejaVuSans-2f" x="807.219"/><use xlink:href="#DejaVuSans-61" x="840.91"/><use xlink:href="#DejaVuSans-72" x="902.189"/><use xlink:href="#DejaVuSans-78" x="940.678"/><use xlink:href="#DejaVuSans-69" x="999.857"/><use xlink:href="#DejaVuSans-76" x="1027.641"/><use xlink:href="#DejaVuSans-2d" x="1084.195"/><use xlink:href="#DejaVuSans-6c" x="1120.279"/><use xlink:href="#DejaVuSans-61" x="1148.063"/><use xlink:href="#DejaVuSans-74" x="1209.342"/><use xlink:href="#DejaVuSans-65" x="1248.551"/><use xlink:href="#DejaVuSans-78" x="1308.324"/><use xlink:href="#DejaVuSans-2d" x="1367.504"/><use xlink:href="#DejaVuSans-63" x="1403.588"/><use xlink:href="#DejaVuSans-6c" x="1458.568"/><use xlink:href="#DejaVuSans-65" x="1486.352"/><use xlink:href="#DejaVuSans-61" x="1547.875"/><use xlink:href="#DejaVuSans-6e" x="1609.154"/><use xlink:href="#DejaVuSans-65" x="1672.533"/><use xlink:href="#DejaVuSans-72" x="1734.057"/></g><g id="text_28" style="fill:#98df8a" transform="matrix(.14 0 0 -.14 465.907 271.025)"><use xlink:href="#DejaVuSans-74"/><use xlink:href="#DejaVuSans-65" x="39.209"/><use xlink:href="#DejaVuSans-63" x="100.732"/><use xlink:href="#DejaVuSans-74" x="155.713"/><use xlink:href="#DejaVuSans-6f" x="194.922"/><use xlink:href="#DejaVuSans-6e" x="256.104"/><use xlink:href="#DejaVuSans-69" x="319.482"/><use xlink:href="#DejaVuSans-63" x="347.266"/><use xlink:href="#DejaVuSans-2d" x="402.246"/><use xlink:href="#DejaVuSans-74" x="438.33"/><use xlink:href="#DejaVuSans-79" x="477.539"/><use xlink:href="#DejaVuSans-70" x="536.719"/><use xlink:href="#DejaVuSans-65" x="600.195"/><use xlink:href="#DejaVuSans-73" x="661.719"/><use xlink:href="#DejaVuSans-65" x="713.818"/><use xlink:href="#DejaVuSans-74" x="775.342"/><use xlink:href="#DejaVuSans-74" x="814.551"/><use xlink:href="#DejaVuSans-69" x="853.76"/><use xlink:href="#DejaVuSans-6e" x="881.543"/><use xlink:href="#DejaVuSans-67" x="944.922"/><use xlink:href="#DejaVuSans-2f" x="1008.398"/><use xlink:href="#DejaVuSans-74" x="1042.09"/><use xlink:href="#DejaVuSans-65" x="1081.299"/><use xlink:href="#DejaVuSans-63" x="1142.822"/><use xlink:href="#DejaVuSans-74" x="1197.803"/><use xlink:href="#DejaVuSans-6f" x="1237.012"/><use xlink:href="#DejaVuSans-6e" x="1298.193"/><use xlink:href="#DejaVuSans-69" x="1361.572"/><use xlink:href="#DejaVuSans-63" x="1389.355"/></g><g id="text_29" style="fill:#ff9896" transform="matrix(.14 0 0 -.14 465.907 285.025)"><defs><path id="DejaVuSans-52" d="M2841 2188q203-69 395-294t386-619L4263 0h-679l-596 1197q-232 469-449 622t-592 153h-688V0H628v4666h1425q800 0 1194-335 394-334 394-1009 0-441-205-732-205-290-595-402zM1259 4147V2491h794q456 0 689 211t233 620q0 409-233 617t-689 208h-794z" transform="scale(.01563)"/></defs><use xlink:href="#DejaVuSans-4a"/><use xlink:href="#DejaVuSans-61" x="29.492"/><use xlink:href="#DejaVuSans-62" x="90.771"/><use xlink:href="#DejaVuSans-52" x="154.248"/><use xlink:href="#DejaVuSans-65" x="219.23"/><use xlink:href="#DejaVuSans-66" x="280.754"/><use xlink:href="#DejaVuSans-2f" x="315.959"/><use xlink:href="#DejaVuSans-6a" x="349.65"/><use xlink:href="#DejaVuSans-61" x="377.434"/><use xlink:href="#DejaVuSans-62" x="438.713"/><use xlink:href="#DejaVuSans-72" x="502.189"/><use xlink:href="#DejaVuSans-65" x="541.053"/><use xlink:href="#DejaVuSans-66" x="602.576"/></g><g id="text_30" style="fill:#c5b0d5" transform="matrix(.14 0 0 -.14 465.907 299.025)"><use xlink:href="#DejaVuSans-78"/><use xlink:href="#DejaVuSans-64" x="59.18"/><use xlink:href="#DejaVuSans-61" x="122.656"/><use xlink:href="#DejaVuSans-6e" x="183.936"/><use xlink:href="#DejaVuSans-61" x="247.314"/><use xlink:href="#DejaVuSans-75" x="308.594"/><use xlink:href="#DejaVuSans-78" x="371.973"/><use xlink:href="#DejaVuSans-2f" x="431.152"/><use xlink:href="#DejaVuSans-6d" x="464.844"/><use xlink:href="#DejaVuSans-6f" x="562.256"/><use xlink:href="#DejaVuSans-64" x="623.438"/><use xlink:href="#DejaVuSans-65" x="686.914"/><use xlink:href="#DejaVuSans-72" x="748.438"/><use xlink:href="#DejaVuSans-6e" x="787.801"/><use xlink:href="#DejaVuSans-63" x="851.18"/><use xlink:href="#DejaVuSans-76" x="906.16"/></g><g id="text_31" style="fill:#b0b0b0" transform="matrix(.09716 0 0 -.09716 98.073 325.672)"><defs><path id="DejaVuSans-40" d="M2381 1678q0-447 222-702 222-254 610-254 384 0 604 256 221 256 221 700 0 438-225 695-225 258-607 258-378 0-602-256-223-256-223-697zm1703-934q-187-241-429-355t-564-114q-538 0-874 389t-336 1014q0 625 337 1015 338 391 873 391 322 0 565-117 244-117 428-354v409h447V722q457 69 714 417 258 349 258 902 0 334-99 628-98 294-298 544-325 409-792 626t-1017 217q-384 0-738-102-353-101-653-301-490-319-767-836-276-517-276-1120 0-497 179-932 180-434 521-765 328-325 759-495 431-171 922-171 403 0 792 136t714 389l281-347q-390-303-851-464t-936-161q-578 0-1091 205-512 205-912 595Q841 78 631 592q-209 514-209 1105 0 569 212 1084 213 516 607 907 403 396 931 607t1119 211q662 0 1229-272 568-271 952-771 234-307 357-666 124-359 124-744 0-822-497-1297T4084 263v481z" transform="scale(.01563)"/><path id="DejaVuSans-7c" d="M1344 4891v-6400H813v6400h531z" transform="scale(.01563)"/><path id="DejaVuSans-53" d="M3425 4513v-616q-359 172-678 256-319 85-616 85-515 0-795-200t-280-569q0-310 186-468 186-157 705-254l381-78q706-135 1042-474t336-907q0-679-455-1029Q2797-91 1919-91q-331 0-705 75-373 75-773 222v650q384-215 753-325 369-109 725-109 540 0 834 212 294 213 294 607 0 343-211 537t-692 291l-385 75q-706 140-1022 440-315 300-315 835 0 619 436 975t1201 356q329 0 669-60 341-59 697-177z" transform="scale(.01563)"/><path id="DejaVuSans-f6" d="M1959 3097q-462 0-731-361t-269-989q0-628 267-989 268-361 733-361 460 0 728 362 269 363 269 988 0 622-269 986-268 364-728 364zm0 487q750 0 1178-488 429-487 429-1349 0-859-429-1349Q2709-91 1959-91q-753 0-1180 489-426 490-426 1349 0 862 426 1349 427 488 1180 488zm295 1266h634v-631h-634v631zm-1222 0h634v-631h-634v631z" transform="scale(.01563)"/><path id="DejaVuSans-42" d="M1259 2228V519h1013q509 0 754 211 246 211 246 645 0 438-246 645-245 208-754 208H1259zm0 1919V2741h935q462 0 688 173 227 174 227 530 0 353-227 528-226 175-688 175h-935zm-631 519h1613q722 0 1112-300 391-300 391-853 0-429-200-682t-588-315q466-100 724-418 258-317 258-792 0-625-425-966Q3088 0 2303 0H628v4666z" transform="scale(.01563)"/><path id="DejaVuSans-59" d="M-13 4666h679l1293-1919 1285 1919h678L2272 2222V0h-634v2222L-13 4666z" transform="scale(.01563)"/></defs><use xlink:href="#DejaVuSans-40"/><use xlink:href="#DejaVuSans-6e" x="100"/><use xlink:href="#DejaVuSans-73" x="163.379"/><use xlink:href="#DejaVuSans-63" x="215.479"/><use xlink:href="#DejaVuSans-68" x="270.459"/><use xlink:href="#DejaVuSans-6c" x="333.838"/><use xlink:href="#DejaVuSans-6f" x="361.621"/><use xlink:href="#DejaVuSans-65" x="422.803"/><use xlink:href="#DejaVuSans-20" x="484.326"/><use xlink:href="#DejaVuSans-2f" x="516.113"/><use xlink:href="#DejaVuSans-20" x="549.805"/><use xlink:href="#DejaVuSans-67" x="581.592"/><use xlink:href="#DejaVuSans-69" x="645.068"/><use xlink:href="#DejaVuSans-74" x="672.852"/><use xlink:href="#DejaVuSans-68" x="712.061"/><use xlink:href="#DejaVuSans-75" x="775.439"/><use xlink:href="#DejaVuSans-62" x="838.818"/><use xlink:href="#DejaVuSans-2d" x="902.295"/><use xlink:href="#DejaVuSans-74" x="938.379"/><use xlink:href="#DejaVuSans-72" x="977.588"/><use xlink:href="#DejaVuSans-65" x="1016.451"/><use xlink:href="#DejaVuSans-6e" x="1077.975"/><use xlink:href="#DejaVuSans-64" x="1141.354"/><use xlink:href="#DejaVuSans-73" x="1204.83"/><use xlink:href="#DejaVuSans-20" x="1256.93"/><use xlink:href="#DejaVuSans-7c" x="1288.717"/><use xlink:href="#DejaVuSans-20" x="1322.408"/><use xlink:href="#DejaVuSans-4e" x="1354.195"/><use xlink:href="#DejaVuSans-69" x="1429"/><use xlink:href="#DejaVuSans-63" x="1456.783"/><use xlink:href="#DejaVuSans-6f" x="1511.764"/><use xlink:href="#DejaVuSans-20" x="1572.945"/><use xlink:href="#DejaVuSans-53" x="1604.732"/><use xlink:href="#DejaVuSans-63" x="1668.209"/><use xlink:href="#DejaVuSans-68" x="1723.189"/><use xlink:href="#DejaVuSans-6c" x="1786.568"/><use xlink:href="#DejaVuSans-f6" x="1814.352"/><use xlink:href="#DejaVuSans-6d" x="1875.533"/><use xlink:href="#DejaVuSans-65" x="1972.945"/><use xlink:href="#DejaVuSans-72" x="2034.469"/><use xlink:href="#DejaVuSans-20" x="2075.582"/><use xlink:href="#DejaVuSans-7c" x="2107.369"/><use xlink:href="#DejaVuSans-20" x="2141.061"/><use xlink:href="#DejaVuSans-43" x="2172.848"/><use xlink:href="#DejaVuSans-43" x="2242.672"/><use xlink:href="#DejaVuSans-20" x="2312.496"/><use xlink:href="#DejaVuSans-42" x="2344.283"/><use xlink:href="#DejaVuSans-59" x="2407.387"/></g><path id="line2d_26" d="m343.468 291.635 2.474-2.534 2.235-2.563 2.474-2.634 2.394-1.675 2.474-1.418 2.394-.472 2.474-1.56 2.474-.502 2.394-.443 2.474-.516 2.394-.487 2.474-.5 2.474-.33 2.314-1.546 2.474-1.289 2.394-.759 2.474-.988 2.394-1.675 2.474-1.646 2.474-.945 2.394-1.546 2.474-.902 2.394-.716 2.474-.53 2.474-.658 2.234-.516 2.474-.701 2.394-1.718 2.474-1.289 2.394-.845 2.474-.816 2.474-.83 2.394-.86 2.474-.93 2.394-.845 2.474-.644 2.474-.544 2.234-.787 2.474-1.103 2.394-1.145 2.474-.644 2.394-.83 2.474-1.046 2.474-.444 2.394-.973 2.474-1.232" clip-path="url(#pf4c9830214)" style="fill:none;stroke:#ffbb78;stroke-width:1.5;stroke-linecap:square"/><path id="line2d_27" d="m241.32 291.635 2.474-.014H294.788l2.474-.014h2.394l2.474-.015h12.21l2.474-.014h16.918l2.395-.014h12.05l2.474-30.238 2.394-2.463 2.474-.959 2.394-.573 2.474-.615 2.474-.444 2.394-.286 2.474-.401 2.394-.373 2.474-.443 2.474-.272 2.314-.401 2.474-.344 2.394-.3 2.474-.315 2.394-.23 2.474-.315 2.474-.3 2.394-.215 2.474-.215 2.394-.315 2.474-.315 2.474-.486 2.234-.473 2.474-.186 2.394-.258 2.474-1.188 2.394-.258 2.474-.215 2.474-.085 2.394-.187 2.474-.186 2.394-.444 2.474-.343 2.474-.23 2.234-.357 2.474-.458 2.394-.444 2.474-.143 2.394-.73 2.474-.487 2.474-.272 2.394-.287 2.474-.329" clip-path="url(#pf4c9830214)" style="fill:none;stroke:#aec7e8;stroke-width:1.5;stroke-linecap:square"/><path id="line2d_28" d="m248.662 291.635 2.474-.157 2.394-.015 2.474-.028 2.474-.015 2.314-.014h2.474l2.394-.043 2.474-.014 2.394-.043 2.474-.029 2.474-.057h2.394l2.474-.014 2.394-.015 2.474-.014 2.474-.072 2.234-.1 2.474-.086 2.394-.071 2.474-.029 2.394-.143 2.474-.086 2.474-.157 2.394-.387 2.474-.372 2.394-.287 2.474-.214 2.474-.344 2.235-.902 2.474-1.26 2.394-.286 2.474-.372 2.394-.416 2.474-.816 2.473-.787 2.395-.702 2.473-.945 2.395-.658 2.473-.644 2.474-.63 2.235-.645 2.474-.773 2.394-.83 2.474-.63 2.394-.988 2.474-.63 2.474-.845 2.394-.658 2.474-1.074 2.394-.659 2.474-.5 2.474-.702 2.314-.76 2.474-.572 2.394-.515 2.474-.716 2.394-.687 2.474-.845 2.474-.759 2.394-.759 2.474-.959 2.394-.93 2.474-.688 2.474-.93 2.234-.673 2.474-.93 2.394-.688 2.474-.974 2.394-.945 2.474-1.102 2.474-.973 2.394-1.089 2.474-.672 2.394-.76 2.474-.6 2.474-.931 2.234-1.174 2.474-1.117 2.394-1.088 2.474-.96 2.394-.615 2.474-1.317 2.474-1.375 2.394-1.23 2.474-1.361" clip-path="url(#pf4c9830214)" style="fill:none;stroke:#17becf;stroke-width:1.5;stroke-linecap:square"/><path id="line2d_29" d="m192.88 291.635 2.394-.028 2.474-.015 2.473-.014h2.235l2.474-.014h4.868l2.394-.015 2.474-.057 2.474-.029h2.394l2.474-.114 2.394-.186 2.474-.115 2.474-.157 2.234-.072 2.474-.1 2.394-.2 2.474-.23 2.394-.286 2.474-.515 2.474-.158 2.394-.286 2.474-.659 2.394-.4 2.474-.316 2.474-.272 2.314-.358 2.474-.243 2.394-.616 2.474-.315 2.394-.3 2.474-.415 2.474-.301 2.394-.401 2.474-.458 2.394-.244 2.474-.343 2.474-.3 2.234-.416 2.474-.63 2.394-.243 2.474-.387 2.394-.501 2.474-.444 2.474-.63 2.394-.63 2.474-.458 2.394-.53 2.474-.458 2.474-.572 2.235-.459 2.474-.63 2.394-.486 2.474-.587 2.394-.444 2.474-.3 2.473-.574 2.395-.572 2.473-.587 2.395-.516 2.473-.53 2.474-.615 2.235-.415 2.474-2.262 2.394-1.59 2.474-.83 2.394-.573 2.474-.902 2.474-.844 2.394-1.017 2.474-.744 2.394-.687 2.474-.502 2.474-.6 2.314-.717 2.474-1.102 2.394-.988 2.474-.974 2.394-.93 2.474-.73 2.474-.773 2.394-.716 2.474-.788 2.394-1.26 2.474-1.03 2.474-.63 2.234-.745 2.474-1.303 2.394-.787 2.474-.83 2.394-1.232 2.474-1.016 2.474-.817 2.394-.959 2.474-.73 2.394-.945 2.474-.787 2.474-.874 2.234-.988 2.474-.916 2.394-.701 2.474-.888 2.394-.659 2.474-.73 2.474-1.217 2.394-1.088 2.474-1.532" clip-path="url(#pf4c9830214)" style="fill:none;stroke:#bcbd22;stroke-width:1.5;stroke-linecap:square"/><path id="line2d_30" d="m289.92 291.635 2.474-.014 2.394-.029 2.474-.114 2.394-.072 2.474-.114 2.474-.2 2.394-.287 2.474-.33 2.394-.486 2.474-.516 2.474-.486 2.235-.616 2.474-.473 2.394-.415 2.474-.544 2.394-.544 2.474-.386 2.473-.487 2.395-.659 2.473-.515 2.395-.487 2.473-.63 2.474-.73 2.235-.473 2.474-.816 2.394-11.654 2.474-.787 2.394-.687 2.474-.659 2.474-.616 2.394-.644 2.474-.973 2.394-.76 2.474-1.03 2.474-.687 2.314-.902 2.474-.945 2.394-1.103 2.474-1.274 2.394-.945 2.474-1.06 2.474-1.03 2.394-.916 2.474-1.131 2.394-1.246 2.474-.974 2.474-1.188 2.234-1.575 2.474-1.56 2.394-1.232 2.474-.93 2.394-.93 2.474-.96 2.474-1.017 2.394-1.245 2.474-1.446 2.394-.83 2.474-1.089 2.474-1.002 2.234-1.331 2.474-1.26 2.394-1.504 2.474-2.219 2.394-1.002 2.474-1.03 2.474-.946 2.394-1.217 2.474-1.102" clip-path="url(#pf4c9830214)" style="fill:none;stroke:#7f7f7f;stroke-width:1.5;stroke-linecap:square"/><path id="line2d_31" d="m238.926 291.635 2.394-.043 2.474-.071 2.474-.172 2.394-.072 2.474-.043 2.394-.114 2.474-.2 2.474-.201 2.314-.258 2.474-.444 2.394-.272 2.474-.358 2.394-.343 2.474-.759 2.474-.387 2.394-.6 2.474-.23 2.394-.372 2.474-.244 2.474-.343 2.234-.83 2.474-1.089 2.394-.759 2.474-.572 2.394-.501 2.474-.63 2.474-.501 2.394-1.045 2.474-.688 2.394-.587 2.474-.844 2.474-.73 2.235-.931 2.474-2.491 2.394-1.117 2.474-1.131 2.394-1.26 2.474-1.246 2.473-1.288 2.395-.93 2.473-.846 2.395-.773 2.473-.902 2.474-1.03 2.235-1.518 2.474-2.362 2.394-1.69 2.474-1.145 2.394-1.131 2.474-.93 2.474-1.017 2.394-1.318 2.474-1.03 2.394-1.475 2.474-1.317 2.474-.802 2.314-1.217 2.474-1.861 2.394-1.446 2.474-1.06 2.394-1.274 2.474-.945 2.474-1.074 2.394-.73 2.474-.716 2.394-1.016 2.474-.96 2.474-.944 2.234-1.16 2.474-2.076 2.394-1.618 2.474-1.202 2.394-1.046 2.474-1.918 2.474-1.002 2.394-1.26 2.474-.83 2.394-.73 2.474-1.318 2.474-1.36 2.234-2.577 2.474-3.365 2.394-2.09 2.474-2.019 2.394-1.088 2.474-1.875 2.474-1.776 2.394-1.589 2.474-1.489" clip-path="url(#pf4c9830214)" style="fill:none;stroke:#e377c2;stroke-width:1.5;stroke-linecap:square"/><path id="line2d_32" d="m98.073 291.635 2.474-3.107 7.262-.515 24.26-1.718 9.816-.487 4.788-.172 2.394-.143 7.342-.157 7.342-.2 7.342-.015 19.313-3.465 7.342-1.933 4.708-1.002 9.736-2.82 2.474-.63 7.342-2.534 4.868-1.26 2.474-.816 2.234-1.446 4.868-2.663 4.868-2.42 4.948-2.119 12.21-5.956 2.314-1.446 2.474-1.403 2.394-1.06 2.474-1.546 2.394-1.002 12.21-6.027 2.474-1.174 4.708-2.005 9.736-6.027 7.342-3.436 2.474-1.403 7.342-4.668 2.235-1.69 2.474-2.218 4.868-3.751 2.394-1.518 2.474-1.417 4.868-3.365 2.473-1.704 4.868-2.863 2.474-1.69 4.709-2.992 2.394-1.847 2.474-1.746 2.394-1.246 2.474-1.69 2.474-1.388 2.394-1.031 4.868-1.704 2.474-1.202 2.474-.616 2.314-.787 2.474-1.275 2.394-1.03 2.474-1.39 4.868-1.918 9.736-3.321 2.474-1.003 12.05-4.109 4.868-2.075 2.474-.63 2.394-.874 2.474-.701 2.394-.93 2.474-.645 2.474-.773 2.234-.888 4.868-1.59 2.474-1.502 2.394-.802 2.474-.63 2.474-.759 4.868-1.775h0" clip-path="url(#pf4c9830214)" style="fill:none;stroke:#8c564b;stroke-width:1.5;stroke-linecap:square"/><path id="line2d_33" d="m304.604 291.635 2.394-4.596 2.474-18.626 2.394-2.277 2.474-2.033 2.474-1.288 2.235-1.375 2.474-1.56 2.394-1.503 2.474-1.146 2.394-1.117 2.474-2.176 2.473-1.03 2.395-2.864 2.473-12.57 2.395-5.44 2.473-2.335 2.474-2.39 2.235-1.905 2.474-2.949 2.394-1.933 2.474-1.732 2.394-2.076 2.474-1.733 2.474-2.634 2.394-1.833 2.474-1.86 2.394-1.92 2.474-7.659 2.474-3.207 2.314-2.462 2.474-1.761 2.394-1.618 2.474-1.575 2.394-1.675 2.474-1.904 2.474-1.575 2.394-1.761 2.474-1.446 2.394-.945 2.474-1.332 2.474-1.36 2.234-1.56 2.474-1.504 2.394-1.46 2.474-1.231 2.394-1.26 2.474-1.303 2.474-1.188 2.394-1.504 2.474-1.804 2.394-1.303 2.474-1.102 2.474-1.546 2.234-1.203 2.474-1.102 2.394-1.002 2.474-1.232 2.394-1.016 2.474-1.346 2.474-.96 2.394-.844 2.474-1.246" clip-path="url(#pf4c9830214)" style="fill:none;stroke:#9467bd;stroke-width:1.5;stroke-linecap:square"/><path id="line2d_34" d="m200.221 291.635 2.235-21.246 2.474-3.122 2.394-1.431 2.474-1.203 2.394-.787 2.474-1.289 2.474-.816 2.394-.945 2.474-.916 2.394-.988 2.474-.573 2.474-.873 2.234-.702 2.474-1.016 2.394-.974 2.474-.959 2.394-.616 2.474-.486 2.474-.616 2.394-1.03 2.474-.774 2.394-.845 2.474-.6 2.474-.702 2.314-.702 2.474-.93 2.394-1.031 2.474-.73 2.394-.559 2.474-.487 2.474-.587 2.394-.773 2.474-1.117 2.394-.801 2.474-.774 2.474-.859 2.234-1.531 2.474-1.189 2.394-.845 2.474-1.088 2.394-.773 2.474-.844 2.474-.888 2.394-.802 2.474-.802 2.394-.787 2.474-.458 2.474-.759 2.235-1.045 2.474-1.06 2.394-.758 2.474-.874 2.394-.744 2.474-.458 2.473-.645 2.395-.63 2.473-.673 2.395-.443 2.473-.559 2.474-.744 2.235-.415 2.474-.788 2.394-.644 2.474-.86 2.394-.744 2.474-.658 2.474-1.103 2.394-2.061 2.474-2.291 2.394-2.234 2.474-1.66 2.474-1.604 2.314-2.133 2.474-1.861 2.394-2.248 2.474-2.362 2.394-1.776 2.474-1.933 2.474-2.018 2.394-1.947 2.474-1.905 2.394-2.247 2.474-2.663 2.474-2.549 2.234-2.018 2.474-1.847 2.394-2.52 2.474-2.978 2.394-2.405 2.474-1.117 2.474-1.59 2.394-2.29 2.474-1.518 2.394-1.718 2.474-1.46 2.474-2.033 2.234-1.775 2.474-1.804 2.394-1.833 2.474-1.976 2.394-1.575 2.474-1.517 2.474-1.475 2.394-2.09 2.474-2.005" clip-path="url(#pf4c9830214)" style="fill:none;stroke:#d62728;stroke-width:1.5;stroke-linecap:square"/><path id="line2d_35" d="m183.064 291.635 2.474-.114h2.474l2.394-.058h4.868l2.474-.043 2.473-.028 2.235-.043 2.474-.043 2.394-.014 2.474-.015 2.394-.014 2.474-.057 2.474-.043 2.394-35.45 2.474-2.462 2.394-1.002 2.474-.816 2.474-1.146 2.234-1.288 2.474-2.033 2.394-1.217 2.474-1.56 2.394-1.032 2.474-1.274 2.474-.945 2.394-1.675 2.474-1.389 2.394-1.23 2.474-1.26 2.474-1.089 2.314-1.102 2.474-1.56 2.394-1.304 2.474-.816 2.394-.816 2.474-1.346 2.474-1.274 2.394-1.374 2.474-1.518 2.394-1.718 2.474-1.89 2.474-1.76 2.234-1.49 2.474-1.89 2.394-2.434 2.474-1.646 2.394-1.374 2.474-1.618 2.474-2.406 2.394-1.775 2.474-1.918 2.394-1.833 2.474-1.66 2.474-10.982 2.235-2.52 2.474-1.961 2.394-2.835 2.474-2.305 2.394-1.99 2.474-2.176 2.473-2.835 2.395-2.463 2.473-1.975 2.395-1.833 2.473-1.56 2.474-2.406 2.235-1.818 2.474-7.774 2.394-2.72 2.474-2.048 2.394-1.603 2.474-1.962 2.474-1.961 2.394-1.675 2.474-1.69 2.394-1.718 2.474-1.718 2.474-1.475 2.314-1.603 2.474-2.362 2.394-2.348 2.474-2.363 2.394-2.448 2.474-1.847 2.474-2.29 2.394-1.92 2.474-4.58 2.394-1.747 2.474-2.477 2.474-1.904 2.234-1.847 2.474-2.262 2.394-1.876 2.474-3.422 2.394-1.818 2.474-2.92 2.474-2.062 2.394-1.847 2.474-2.162 2.394-1.546 2.474-1.675 2.474-2.048 2.234-1.746 2.474-1.733 2.394-1.56 2.474-4.854 2.394-2.376 2.474-1.332 2.474-1.646 2.394-1.59 2.474-1.76" clip-path="url(#pf4c9830214)" style="fill:none;stroke:#2ca02c;stroke-width:1.5;stroke-linecap:square"/><path id="line2d_36" d="m236.452 291.635 2.474-.057 2.394-.029H248.662l2.474-.114 2.394-1.962 2.474-1.775 2.474-1.088 2.314-.83 2.474-1.017 2.394-.888 2.474-.93 2.394-1.776 2.474-.973 2.474-1.146 2.394-1.589 2.474-1.245 2.394-1.117 2.474-2.033 2.474-1.704 2.234-1.947 2.474-2.663 2.394-2.133 2.474-2.048 2.394-2.004 2.474-2.878 2.474-1.718 2.394-2.849 2.474-2.792 2.394-3.55 2.474-2.334 2.474-3.207 2.235-2.305 2.474-3.078 2.394-2.878 2.474-5.14 2.394-2.39 2.474-2.65 2.473-2.763 2.395-2.706 2.473-3.307 2.395-3.508 2.473-3.106 2.474-4.11 2.235-3.765 2.474-4.395 2.394-3.493 2.474-3.107 2.394-7.43 2.474-5.9 2.474-4.309 2.394-3.909 2.474-3.636 2.394-3.236 2.474-3.293 2.474-3.636 2.314-3.164 2.474-4.052 2.394-2.749 2.474-3.737 2.394-3.436 2.474-3.393 2.474-3.98 2.394-2.964 2.474-3.422 2.394-2.605 2.474-4.11 2.474-3.521 2.234-3.322 2.474-3.35 2.394-3.837 2.474-3.135 2.394-3.923 2.474-3.508 2.474-2.964 2.394-3.565 2.474-3.636 2.394-3.021 2.474-3.207 2.474-3.923 2.234-3.808 2.474-4.582 2.394-3.45 2.474-3.465 2.394-3.393 2.474-4.438 2.474-4.568 2.394-4.653 2.474-4.252" clip-path="url(#pf4c9830214)" style="fill:none;stroke:#ff7f0e;stroke-width:1.5;stroke-linecap:square"/><path id="line2d_37" d="m336.127 291.635 2.473-.114 2.395-.387 2.473-3.121 2.474-1.188 2.235-42.078 2.474-16.594 2.394-7.989 2.474-4.28 2.394-4.768 2.474-3.537 2.474-3.22 2.394-2.52 2.474-3.25 2.394-4.84 2.474-3.221 2.474-2.334 2.314-2.663 2.474-2.95 2.394-3.994 2.474-3.45 2.394-4.84 2.474-3.192 2.474-2.148 2.394-3.035 2.474-3.12 2.394-3.208 2.474-4.41 2.474-28.691 2.234-3.307 2.474-6.944 2.394-3.307 2.474-4.983 2.394-2.634 2.474-2.391 2.474-2.878 2.394-2.963 2.474-2.363 2.394-3.164 2.474-3.35 2.474-24.024 2.234-2.735 2.474-3.65 2.394-3.336 2.474-3.394 2.394-3.063 2.474-2.291 2.474-1.818 2.394-2.162 2.474-12.213" clip-path="url(#pf4c9830214)" style="fill:none;stroke:#1f77b4;stroke-width:1.5;stroke-linecap:square"/></g></g><defs><clipPath id="pf4c9830214"><path d="M98.073 25.523h357.12v266.112H98.073z"/></clipPath></defs></svg>