<svg xmlns:xlink="http://www.w3.org/1999/xlink" width="985.852" height="446.405" viewBox="0 0 739.389 334.803" xmlns="http://www.w3.org/2000/svg"><defs><style>*{stroke-linejoin:round;stroke-linecap:butt}</style></defs><g id="figure_1"><path d="M0 334.803h739.389V0H0v334.803z" style="fill:none" id="patch_1"/><g id="axes_1"><path d="M98.073 291.276h357.12V25.164H98.073v266.112z" style="fill:none" id="patch_2"/><g id="matplotlib.axis_1"><g id="xtick_1"><g id="line2d_1"><defs><path id="mb051fbc775" d="M0 0v3.5" style="stroke:#b0b0b0;stroke-width:.4"/></defs><use xlink:href="#mb051fbc775" x="140.279" y="291.276" style="fill:#b0b0b0;stroke:#b0b0b0;stroke-width:.4"/></g><g style="fill:#b0b0b0" transform="matrix(.14 0 0 -.14 122.464 308.914)" id="text_1"><defs><path id="DejaVuSans-32" d="M1228 531h2203V0H469v531q359 372 979 998 621 627 780 809 303 340 423 576 121 236 121 464 0 372-261 606-261 235-680 235-297 0-627-103-329-103-704-313v638q381 153 712 231 332 78 607 78 725 0 1156-363 431-362 431-968 0-288-108-546-107-257-392-607-78-91-497-524-418-433-1181-1211z" transform="scale(.01563)"/><path id="DejaVuSans-30" d="M2034 4250q-487 0-733-480-245-479-245-1442 0-959 245-1439 246-480 733-480 491 0 736 480 246 480 246 1439 0 963-246 1442-245 480-736 480zm0 500q785 0 1199-621 414-620 414-1801 0-1178-414-1799Q2819-91 2034-91q-784 0-1198 620-414 621-414 1799 0 1181 414 1801 414 621 1198 621z" transform="scale(.01563)"/><path id="DejaVuSans-31" d="M794 531h1031v3560L703 3866v575l1116 225h631V531h1031V0H794v531z" transform="scale(.01563)"/></defs><use xlink:href="#DejaVuSans-32"/><use xlink:href="#DejaVuSans-30" x="63.623"/><use xlink:href="#DejaVuSans-31" x="127.246"/><use xlink:href="#DejaVuSans-32" x="190.869"/></g></g><g id="xtick_2"><use xlink:href="#mb051fbc775" x="199.84" y="291.276" style="fill:#b0b0b0;stroke:#b0b0b0;stroke-width:.4" id="line2d_2"/><g style="fill:#b0b0b0" transform="matrix(.14 0 0 -.14 182.025 308.914)" id="text_2"><defs><path id="DejaVuSans-34" d="M2419 4116 825 1625h1594v2491zm-166 550h794V1625h666v-525h-666V0h-628v1100H313v609l1940 2957z" transform="scale(.01563)"/></defs><use xlink:href="#DejaVuSans-32"/><use xlink:href="#DejaVuSans-30" x="63.623"/><use xlink:href="#DejaVuSans-31" x="127.246"/><use xlink:href="#DejaVuSans-34" x="190.869"/></g></g><g id="xtick_3"><use xlink:href="#mb051fbc775" x="259.319" y="291.276" style="fill:#b0b0b0;stroke:#b0b0b0;stroke-width:.4" id="line2d_3"/><g style="fill:#b0b0b0" transform="matrix(.14 0 0 -.14 241.504 308.914)" id="text_3"><defs><path id="DejaVuSans-36" d="M2113 2584q-425 0-674-291-248-290-248-796 0-503 248-796 249-292 674-292t673 292q248 293 248 796 0 506-248 796-248 291-673 291zm1253 1979v-575q-238 112-480 171-242 60-480 60-625 0-955-422-329-422-376-1275 184 272 462 417 279 145 613 145 703 0 1111-427 408-426 408-1160 0-719-425-1154Q2819-91 2113-91q-810 0-1238 620-428 621-428 1799 0 1106 525 1764t1409 658q238 0 480-47t505-140z" transform="scale(.01563)"/></defs><use xlink:href="#DejaVuSans-32"/><use xlink:href="#DejaVuSans-30" x="63.623"/><use xlink:href="#DejaVuSans-31" x="127.246"/><use xlink:href="#DejaVuSans-36" x="190.869"/></g></g><g id="xtick_4"><use xlink:href="#mb051fbc775" x="318.88" y="291.276" style="fill:#b0b0b0;stroke:#b0b0b0;stroke-width:.4" id="line2d_4"/><g style="fill:#b0b0b0" transform="matrix(.14 0 0 -.14 301.065 308.914)" id="text_4"><defs><path id="DejaVuSans-38" d="M2034 2216q-450 0-708-241-257-241-257-662 0-422 257-663 258-241 708-241t709 242q260 243 260 662 0 421-258 662-257 241-711 241zm-631 268q-406 100-633 378-226 279-226 679 0 559 398 884 399 325 1092 325 697 0 1094-325t397-884q0-400-227-679-226-278-629-378 456-106 710-416 255-309 255-755 0-679-414-1042Q2806-91 2034-91q-771 0-1186 362-414 363-414 1042 0 446 256 755 257 310 713 416zm-231 997q0-362 226-565 227-203 636-203 407 0 636 203 230 203 230 565 0 363-230 566-229 203-636 203-409 0-636-203-226-203-226-566z" transform="scale(.01563)"/></defs><use xlink:href="#DejaVuSans-32"/><use xlink:href="#DejaVuSans-30" x="63.623"/><use xlink:href="#DejaVuSans-31" x="127.246"/><use xlink:href="#DejaVuSans-38" x="190.869"/></g></g><g id="xtick_5"><use xlink:href="#mb051fbc775" x="378.359" y="291.276" style="fill:#b0b0b0;stroke:#b0b0b0;stroke-width:.4" id="line2d_5"/><g style="fill:#b0b0b0" transform="matrix(.14 0 0 -.14 360.544 308.914)" id="text_5"><use xlink:href="#DejaVuSans-32"/><use xlink:href="#DejaVuSans-30" x="63.623"/><use xlink:href="#DejaVuSans-32" x="127.246"/><use xlink:href="#DejaVuSans-30" x="190.869"/></g></g><g id="xtick_6"><use xlink:href="#mb051fbc775" x="437.92" y="291.276" style="fill:#b0b0b0;stroke:#b0b0b0;stroke-width:.4" id="line2d_6"/><g style="fill:#b0b0b0" transform="matrix(.14 0 0 -.14 420.105 308.914)" id="text_6"><use xlink:href="#DejaVuSans-32"/><use xlink:href="#DejaVuSans-30" x="63.623"/><use xlink:href="#DejaVuSans-32" x="127.246"/><use xlink:href="#DejaVuSans-32" x="190.869"/></g></g></g><g id="matplotlib.axis_2"><g id="ytick_1"><path d="M98.073 291.276h357.12" clip-path="url(#p143ab88902)" style="fill:none;stroke:#b0b0b0;stroke-width:.3;stroke-linecap:square" id="line2d_7"/><g id="line2d_8"><defs><path id="m07791d1fd4" d="M0 0h-3.5" style="stroke:#b0b0b0;stroke-width:.3"/></defs><use xlink:href="#m07791d1fd4" x="98.073" y="291.276" style="fill:#b0b0b0;stroke:#b0b0b0;stroke-width:.3"/></g><use xlink:href="#DejaVuSans-30" style="fill:#b0b0b0" transform="matrix(.14 0 0 -.14 82.166 296.595)" id="text_7"/></g><g id="ytick_2"><path d="M98.073 260.787h357.12" clip-path="url(#p143ab88902)" style="fill:none;stroke:#b0b0b0;stroke-width:.3;stroke-linecap:square" id="line2d_9"/><use xlink:href="#m07791d1fd4" x="98.073" y="260.787" style="fill:#b0b0b0;stroke:#b0b0b0;stroke-width:.3" id="line2d_10"/><g style="fill:#b0b0b0" transform="matrix(.14 0 0 -.14 55.443 266.106)" id="text_8"><use xlink:href="#DejaVuSans-32"/><use xlink:href="#DejaVuSans-30" x="63.623"/><use xlink:href="#DejaVuSans-30" x="127.246"/><use xlink:href="#DejaVuSans-30" x="190.869"/></g></g><g id="ytick_3"><path d="M98.073 230.297h357.12" clip-path="url(#p143ab88902)" style="fill:none;stroke:#b0b0b0;stroke-width:.3;stroke-linecap:square" id="line2d_11"/><use xlink:href="#m07791d1fd4" x="98.073" y="230.297" style="fill:#b0b0b0;stroke:#b0b0b0;stroke-width:.3" id="line2d_12"/><g style="fill:#b0b0b0" transform="matrix(.14 0 0 -.14 55.443 235.616)" id="text_9"><use xlink:href="#DejaVuSans-34"/><use xlink:href="#DejaVuSans-30" x="63.623"/><use xlink:href="#DejaVuSans-30" x="127.246"/><use xlink:href="#DejaVuSans-30" x="190.869"/></g></g><g id="ytick_4"><path d="M98.073 199.808h357.12" clip-path="url(#p143ab88902)" style="fill:none;stroke:#b0b0b0;stroke-width:.3;stroke-linecap:square" id="line2d_13"/><use xlink:href="#m07791d1fd4" x="98.073" y="199.808" style="fill:#b0b0b0;stroke:#b0b0b0;stroke-width:.3" id="line2d_14"/><g style="fill:#b0b0b0" transform="matrix(.14 0 0 -.14 55.443 205.127)" id="text_10"><use xlink:href="#DejaVuSans-36"/><use xlink:href="#DejaVuSans-30" x="63.623"/><use xlink:href="#DejaVuSans-30" x="127.246"/><use xlink:href="#DejaVuSans-30" x="190.869"/></g></g><g id="ytick_5"><path d="M98.073 169.318h357.12" clip-path="url(#p143ab88902)" style="fill:none;stroke:#b0b0b0;stroke-width:.3;stroke-linecap:square" id="line2d_15"/><use xlink:href="#m07791d1fd4" x="98.073" y="169.318" style="fill:#b0b0b0;stroke:#b0b0b0;stroke-width:.3" id="line2d_16"/><g style="fill:#b0b0b0" transform="matrix(.14 0 0 -.14 55.443 174.637)" id="text_11"><use xlink:href="#DejaVuSans-38"/><use xlink:href="#DejaVuSans-30" x="63.623"/><use xlink:href="#DejaVuSans-30" x="127.246"/><use xlink:href="#DejaVuSans-30" x="190.869"/></g></g><g id="ytick_6"><path d="M98.073 138.829h357.12" clip-path="url(#p143ab88902)" style="fill:none;stroke:#b0b0b0;stroke-width:.3;stroke-linecap:square" id="line2d_17"/><use xlink:href="#m07791d1fd4" x="98.073" y="138.829" style="fill:#b0b0b0;stroke:#b0b0b0;stroke-width:.3" id="line2d_18"/><g style="fill:#b0b0b0" transform="matrix(.14 0 0 -.14 46.536 144.148)" id="text_12"><use xlink:href="#DejaVuSans-31"/><use xlink:href="#DejaVuSans-30" x="63.623"/><use xlink:href="#DejaVuSans-30" x="127.246"/><use xlink:href="#DejaVuSans-30" x="190.869"/><use xlink:href="#DejaVuSans-30" x="254.492"/></g></g><g id="ytick_7"><path d="M98.073 108.34h357.12" clip-path="url(#p143ab88902)" style="fill:none;stroke:#b0b0b0;stroke-width:.3;stroke-linecap:square" id="line2d_19"/><use xlink:href="#m07791d1fd4" x="98.073" y="108.339" style="fill:#b0b0b0;stroke:#b0b0b0;stroke-width:.3" id="line2d_20"/><g style="fill:#b0b0b0" transform="matrix(.14 0 0 -.14 46.536 113.658)" id="text_13"><use xlink:href="#DejaVuSans-31"/><use xlink:href="#DejaVuSans-32" x="63.623"/><use xlink:href="#DejaVuSans-30" x="127.246"/><use xlink:href="#DejaVuSans-30" x="190.869"/><use xlink:href="#DejaVuSans-30" x="254.492"/></g></g><g id="ytick_8"><path d="M98.073 77.85h357.12" clip-path="url(#p143ab88902)" style="fill:none;stroke:#b0b0b0;stroke-width:.3;stroke-linecap:square" id="line2d_21"/><use xlink:href="#m07791d1fd4" x="98.073" y="77.85" style="fill:#b0b0b0;stroke:#b0b0b0;stroke-width:.3" id="line2d_22"/><g style="fill:#b0b0b0" transform="matrix(.14 0 0 -.14 46.536 83.169)" id="text_14"><use xlink:href="#DejaVuSans-31"/><use xlink:href="#DejaVuSans-34" x="63.623"/><use xlink:href="#DejaVuSans-30" x="127.246"/><use xlink:href="#DejaVuSans-30" x="190.869"/><use xlink:href="#DejaVuSans-30" x="254.492"/></g></g><g id="ytick_9"><path d="M98.073 47.36h357.12" clip-path="url(#p143ab88902)" style="fill:none;stroke:#b0b0b0;stroke-width:.3;stroke-linecap:square" id="line2d_23"/><use xlink:href="#m07791d1fd4" x="98.073" y="47.361" style="fill:#b0b0b0;stroke:#b0b0b0;stroke-width:.3" id="line2d_24"/><g style="fill:#b0b0b0" transform="matrix(.14 0 0 -.14 46.536 52.68)" id="text_15"><use xlink:href="#DejaVuSans-31"/><use xlink:href="#DejaVuSans-36" x="63.623"/><use xlink:href="#DejaVuSans-30" x="127.246"/><use xlink:href="#DejaVuSans-30" x="190.869"/><use xlink:href="#DejaVuSans-30" x="254.492"/></g></g><g style="fill:#b0b0b0" transform="matrix(.14 0 0 -.14 7.2 17.838)" id="text_16"><defs><path id="DejaVuSans-47" d="M3809 666v1253H2778v519h1656V434q-365-259-806-392-440-133-940-133-1094 0-1712 639-617 640-617 1780 0 1144 617 1783 618 639 1712 639 456 0 867-113 411-112 758-331v-672q-350 297-744 447t-828 150q-857 0-1287-478-429-478-429-1425 0-944 429-1422 430-478 1287-478 334 0 596 58 263 58 472 180z" transform="scale(.01563)"/><path id="DejaVuSans-69" d="M603 3500h575V0H603v3500zm0 1363h575v-729H603v729z" transform="scale(.01563)"/><path id="DejaVuSans-74" d="M1172 4494v-994h1184v-447H1172V1153q0-428 117-550t477-122h590V0h-590q-666 0-919 248-253 249-253 905v1900H172v447h422v994h578z" transform="scale(.01563)"/><path id="DejaVuSans-48" d="M628 4666h631V2753h2294v1913h631V0h-631v2222H1259V0H628v4666z" transform="scale(.01563)"/><path id="DejaVuSans-75" d="M544 1381v2119h575V1403q0-497 193-746 194-248 582-248 465 0 735 297 271 297 271 810v1984h575V0h-575v538q-209-319-486-474-276-155-642-155-603 0-916 375-312 375-312 1097zm1447 2203z" transform="scale(.01563)"/><path id="DejaVuSans-62" d="M3116 1747q0 634-261 995t-717 361q-457 0-718-361t-261-995q0-634 261-995t718-361q456 0 717 361t261 995zM1159 2969q182 312 458 463 277 152 661 152 638 0 1036-506 399-506 399-1331T3314 415Q2916-91 2278-91q-384 0-661 152-276 152-458 464V0H581v4863h578V2969z" transform="scale(.01563)"/><path id="DejaVuSans-73" d="M2834 3397v-544q-243 125-506 187-262 63-544 63-428 0-642-131t-214-394q0-200 153-314t616-217l197-44q612-131 870-370t258-667q0-488-386-773Q2250-91 1575-91q-281 0-586 55T347 128v594q319-166 628-249 309-82 613-82 406 0 624 139 219 139 219 392 0 234-158 359-157 125-692 241l-200 47q-534 112-772 345-237 233-237 639 0 494 350 762 350 269 994 269 318 0 599-47 282-46 519-140z" transform="scale(.01563)"/><path id="DejaVuSans-61" d="M2194 1759q-697 0-966-159t-269-544q0-306 202-486 202-179 548-179 479 0 768 339t289 901v128h-572zm1147 238V0h-575v531q-197-318-491-470T1556-91q-537 0-855 302-317 302-317 808 0 590 395 890 396 300 1180 300h807v57q0 397-261 614t-733 217q-300 0-585-72-284-72-546-216v532q315 122 612 182 297 61 578 61 760 0 1135-394 375-393 375-1193z" transform="scale(.01563)"/><path id="DejaVuSans-72" d="M2631 2963q-97 56-211 82-114 27-251 27-488 0-749-317t-261-911V0H581v3500h578v-544q182 319 472 473 291 155 707 155 59 0 131-8 72-7 159-23l3-590z" transform="scale(.01563)"/></defs><use xlink:href="#DejaVuSans-47"/><use xlink:href="#DejaVuSans-69" x="77.49"/><use xlink:href="#DejaVuSans-74" x="105.273"/><use xlink:href="#DejaVuSans-48" x="144.482"/><use xlink:href="#DejaVuSans-75" x="219.678"/><use xlink:href="#DejaVuSans-62" x="283.057"/><use xlink:href="#DejaVuSans-20" x="346.533"/><use xlink:href="#DejaVuSans-73" x="378.32"/><use xlink:href="#DejaVuSans-74" x="430.42"/><use xlink:href="#DejaVuSans-61" x="469.629"/><use xlink:href="#DejaVuSans-72" x="530.908"/><use xlink:href="#DejaVuSans-73" x="572.021"/></g></g><path d="m246.853 291.276 2.526-.167 2.444-.168 2.526-.26 2.444-.167 2.526-.122 2.526-.229 2.363-.152 2.525-.183 2.445-.107 2.526-.122 2.444-.228 2.526-.122 2.526-.168 2.444-.244 2.526-.213 2.444-.305 2.526-.198 2.526-.199 2.281-.335 2.526-.213 2.444-.168 2.526-.29 2.445-.122 2.525-.244 2.526-.198 2.445-.29 2.526-.29 2.444-.395 2.526-.29 2.526-.549 2.28-.427 2.527-.503 2.444-.381 2.526-.427 2.444-.518 2.526-.198 2.526-.488 2.444-.412 2.526-.442 2.444-.335 2.526-.214 2.526-.32 2.282-.488 2.525-.426 2.445-.351 2.526-.275 2.444-.259 2.526-.335 2.526-.396 2.444-.458 2.526-.38 2.444-.306 2.526-.366 2.526-.35 2.363-.397 2.525-.35 2.445-.427 2.526-.275 2.444-.38 2.526-.275 2.526-.198 2.444-.381 2.526-.275 2.444-.305 2.526-.29 2.526-.258 2.281-.214 2.526-.274 2.444-.214 2.526-.228 2.445-.305 2.525-.244 2.526-.214 2.445-.259 2.526-.198 2.444-.26 2.526-.121 2.526-.32 2.28-.244 2.527-.183 2.444-.457 2.526-.427 2.444-.214 2.526-.213" clip-path="url(#p143ab88902)" style="fill:none;stroke:#c5b0d5;stroke-width:1.5;stroke-linecap:square" id="line2d_25"/><path d="m204.647 291.276 2.526-.122 2.444-.106 2.526-.03h2.444l2.526-.077 2.526-.046 2.444-.122 2.526-.137 2.444-.046 2.526-.06 2.526-.062 2.282-.06 2.525-.046 2.445-.077 2.526-.076 2.444-.076 2.526-.168 2.526-.046 2.444-.03 2.526-.26 2.444-.35 2.526-.38 2.526-.55 2.363-.305 2.525-.198 2.445-.305 2.526-.152 2.444-.168 2.526-.259 2.526-.412 2.444-.213 2.526-.168 2.444-.32 2.526-.244 2.526-.335 2.281-.336 2.526-.29 2.444-.396 2.526-.411 2.445-.412 2.525-.32 2.526-.381 2.445-.35 2.526-.443 2.444-.427 2.526-.365 2.526-.488 2.28-.671 2.527-.595 2.444-.67 2.526-.473 2.444-.518 2.526-.702 2.526-.35 2.444-.564 2.526-.488 2.444-.488 2.526-.442 2.526-.595 2.282-.426 2.525-.503 2.445-.382 2.526-.457 2.444-.457 2.526-.381 2.526-.305 2.444-.412 2.526-.655 2.444-.427 2.526-.412 2.526-.488 2.363-.472 2.525-.686 2.445-.808 2.526-.808 2.444-.823 2.526-.61 2.526-.519 2.444-.594 2.526-.625 2.444-.686 2.526-.564 2.526-.686 2.281-.686 2.526-.854 2.444-.549 2.526-.594 2.445-.519 2.525-.533 2.526-.488 2.445-.564 2.526-.656 2.444-.472 2.526-.519 2.526-.777 2.28-.58 2.527-.853 2.444-.488 2.526-.747 2.444-1.021 2.526-.64" clip-path="url(#p143ab88902)" style="fill:none;stroke:#ff9896;stroke-width:1.5;stroke-linecap:square" id="line2d_26"/><path d="m291.666 291.276 2.281-.015 2.526-.061 2.444-.03 2.526-8.812 2.445-4.909 2.525-.427 2.526-.137 2.445-.213 2.526-.183 2.444-.336 2.526-.091 2.526-.29 2.28-.305 2.527-.228 2.444-.366 2.526-.274 2.444-.153 2.526-.198 2.526-.168 2.444-.259 2.526-.274 2.444-.244 2.526-.214 2.526-.244 2.282-.137 2.525-.305 2.445-.427 2.526-.29 2.444-.152 2.526-.244 2.526-.213 2.444-.61 2.526-2.713 2.444-.351 2.526-.366 2.526-.411 2.363-.244 2.525-.29 2.445-.244 2.526-.29 2.444-.335 2.526-1.387 2.526-.35 2.444-.245 2.526-.472 2.444-.519 2.526-2.24 2.526-1.007 2.281-.472 2.526-.382 2.444-.442 2.526-.96 2.445-.717 2.525-.411 2.526-.488 2.445-.534 2.526-.579 2.444-.823 2.526-.595 2.526-.655 2.28-.549 2.527-.549 2.444-.472 2.526-.519 2.444-.411 2.526-1.052" clip-path="url(#p143ab88902)" style="fill:none;stroke:#98df8a;stroke-width:1.5;stroke-linecap:square" id="line2d_27"/><g style="fill:#1f77b4" transform="matrix(.14 0 0 -.14 465.907 25.122)" id="text_17"><defs><path id="DejaVuSans-49" d="M628 4666h631V0H628v4666z" transform="scale(.01563)"/><path id="DejaVuSans-71" d="M947 1747q0-634 261-995t717-361q456 0 718 361 263 361 263 995t-263 995q-262 361-718 361t-717-361q-261-361-261-995zM2906 525q-181-312-458-464-276-152-664-152-634 0-1033 506-398 507-398 1332t398 1331q399 506 1033 506 388 0 664-152 277-151 458-463v531h575v-4831h-575V525z" transform="scale(.01563)"/><path id="DejaVuSans-6c" d="M603 4863h575V0H603v4863z" transform="scale(.01563)"/><path id="DejaVuSans-2f" d="M1625 4666h531L531-594H0l1625 5260z" transform="scale(.01563)"/><path id="DejaVuSans-50" d="M1259 4147V2394h794q441 0 681 228 241 228 241 650 0 419-241 647-240 228-681 228h-794zm-631 519h1425q785 0 1186-355 402-355 402-1039 0-691-402-1044-401-353-1186-353h-794V0H628v4666z" transform="scale(.01563)"/><path id="DejaVuSans-6f" d="M1959 3097q-462 0-731-361t-269-989q0-628 267-989 268-361 733-361 460 0 728 362 269 363 269 988 0 622-269 986-268 364-728 364zm0 487q750 0 1178-488 429-487 429-1349 0-859-429-1349Q2709-91 1959-91q-753 0-1180 489-426 490-426 1349 0 862 426 1349 427 488 1180 488z" transform="scale(.01563)"/><path id="DejaVuSans-4e" d="M628 4666h850L3547 763v3903h612V0h-850L1241 3903V0H628v4666z" transform="scale(.01563)"/><path id="DejaVuSans-65" d="M3597 1894v-281H953q38-594 358-905t892-311q331 0 642 81t618 244V178Q3153 47 2828-22t-659-69q-838 0-1327 487-489 488-489 1320 0 859 464 1363 464 505 1252 505 706 0 1117-455 411-454 411-1235zm-575 169q-6 471-264 752-258 282-683 282-481 0-770-272t-333-766l2050 4z" transform="scale(.01563)"/></defs><use xlink:href="#DejaVuSans-48"/><use xlink:href="#DejaVuSans-61" x="75.195"/><use xlink:href="#DejaVuSans-72" x="136.475"/><use xlink:href="#DejaVuSans-69" x="177.588"/><use xlink:href="#DejaVuSans-73" x="205.371"/><use xlink:href="#DejaVuSans-49" x="257.471"/><use xlink:href="#DejaVuSans-71" x="286.963"/><use xlink:href="#DejaVuSans-62" x="350.439"/><use xlink:href="#DejaVuSans-61" x="413.916"/><use xlink:href="#DejaVuSans-6c" x="475.195"/><use xlink:href="#DejaVuSans-38" x="502.979"/><use xlink:href="#DejaVuSans-38" x="566.602"/><use xlink:href="#DejaVuSans-2f" x="630.225"/><use xlink:href="#DejaVuSans-50" x="663.916"/><use xlink:href="#DejaVuSans-6c" x="724.219"/><use xlink:href="#DejaVuSans-6f" x="752.002"/><use xlink:href="#DejaVuSans-74" x="813.184"/><use xlink:href="#DejaVuSans-4e" x="852.393"/><use xlink:href="#DejaVuSans-65" x="927.197"/><use xlink:href="#DejaVuSans-75" x="988.721"/><use xlink:href="#DejaVuSans-72" x="1052.1"/><use xlink:href="#DejaVuSans-61" x="1093.213"/><use xlink:href="#DejaVuSans-6c" x="1154.492"/><use xlink:href="#DejaVuSans-4e" x="1182.275"/><use xlink:href="#DejaVuSans-65" x="1257.08"/><use xlink:href="#DejaVuSans-74" x="1318.604"/></g><g style="fill:#ff7f0e" transform="matrix(.14 0 0 -.14 465.907 39.122)" id="text_18"><defs><path id="DejaVuSans-70" d="M1159 525v-1856H581v4831h578v-531q182 312 458 463 277 152 661 152 638 0 1036-506 399-506 399-1331T3314 415Q2916-91 2278-91q-384 0-661 152-276 152-458 464zm1957 1222q0 634-261 995t-717 361q-457 0-718-361t-261-995q0-634 261-995t718-361q456 0 717 361t261 995z" transform="scale(.01563)"/><path id="DejaVuSans-41" d="m2188 4044-857-2322h1716l-859 2322zm-357 622h716L4325 0h-656l-425 1197H1141L716 0H50l1781 4666z" transform="scale(.01563)"/><path id="DejaVuSans-77" d="M269 3500h575l719-2731 715 2731h678l719-2731 716 2731h575L4050 0h-678l-753 2869L1863 0h-679L269 3500z" transform="scale(.01563)"/><path id="DejaVuSans-6d" d="M3328 2828q216 388 516 572t706 184q547 0 844-383 297-382 297-1088V0h-578v2094q0 503-179 746-178 244-543 244-447 0-707-297-259-296-259-809V0h-578v2094q0 506-178 748t-550 242q-441 0-701-298-259-298-259-808V0H581v3500h578v-544q197 322 472 475t653 153q382 0 649-194 267-193 395-562z" transform="scale(.01563)"/><path id="DejaVuSans-2d" d="M313 2009h1684v-512H313v512z" transform="scale(.01563)"/><path id="DejaVuSans-43" d="M4122 4306v-665q-319 297-680 443-361 147-767 147-800 0-1225-489t-425-1414q0-922 425-1411t1225-489q406 0 767 147t680 444V359q-331-225-702-338-370-112-782-112-1060 0-1670 648-609 649-609 1771 0 1125 609 1773 610 649 1670 649 418 0 788-111 371-111 696-333z" transform="scale(.01563)"/><path id="DejaVuSans-56" d="M1831 0 50 4666h659L2188 738l1481 3928h656L2547 0h-716z" transform="scale(.01563)"/></defs><use xlink:href="#DejaVuSans-70"/><use xlink:href="#DejaVuSans-6f" x="63.477"/><use xlink:href="#DejaVuSans-73" x="124.658"/><use xlink:href="#DejaVuSans-71" x="176.758"/><use xlink:href="#DejaVuSans-75" x="240.234"/><use xlink:href="#DejaVuSans-69" x="303.613"/><use xlink:href="#DejaVuSans-74" x="331.396"/><use xlink:href="#DejaVuSans-30" x="370.605"/><use xlink:href="#DejaVuSans-2f" x="434.229"/><use xlink:href="#DejaVuSans-41" x="467.92"/><use xlink:href="#DejaVuSans-77" x="532.328"/><use xlink:href="#DejaVuSans-65" x="614.115"/><use xlink:href="#DejaVuSans-73" x="675.639"/><use xlink:href="#DejaVuSans-6f" x="727.738"/><use xlink:href="#DejaVuSans-6d" x="788.92"/><use xlink:href="#DejaVuSans-65" x="886.332"/><use xlink:href="#DejaVuSans-2d" x="947.855"/><use xlink:href="#DejaVuSans-43" x="983.939"/><use xlink:href="#DejaVuSans-56" x="1053.764"/></g><g style="fill:#2ca02c" transform="matrix(.14 0 0 -.14 465.907 53.602)" id="text_19"><defs><path id="DejaVuSans-4b" d="M628 4666h631V2694l2094 1972h813L1850 2491 4331 0h-831L1259 2247V0H628v4666z" transform="scale(.01563)"/><path id="DejaVuSans-54" d="M-19 4666h3947v-532H2272V0h-634v4134H-19v532z" transform="scale(.01563)"/><path id="DejaVuSans-58" d="M403 4666h678l1160-1735 1165 1735h678L2584 2425 4184 0h-678L2194 1984 872 0H191l1665 2491L403 4666z" transform="scale(.01563)"/></defs><use xlink:href="#DejaVuSans-4b"/><use xlink:href="#DejaVuSans-61" x="63.826"/><use xlink:href="#DejaVuSans-54" x="125.105"/><use xlink:href="#DejaVuSans-65" x="169.189"/><use xlink:href="#DejaVuSans-58" x="230.713"/><use xlink:href="#DejaVuSans-2f" x="299.219"/><use xlink:href="#DejaVuSans-4b" x="332.91"/><use xlink:href="#DejaVuSans-61" x="396.736"/><use xlink:href="#DejaVuSans-54" x="458.016"/><use xlink:href="#DejaVuSans-65" x="502.1"/><use xlink:href="#DejaVuSans-58" x="563.623"/></g><g style="fill:#d62728" transform="matrix(.14 0 0 -.14 465.907 133.804)" id="text_20"><defs><path id="DejaVuSans-76" d="M191 3500h609L1894 563l1094 2937h609L2284 0h-781L191 3500z" transform="scale(.01563)"/><path id="DejaVuSans-66" d="M2375 4863v-479h-550q-309 0-430-125-120-125-120-450v-309h947v-447h-947V0H697v3053H147v447h550v244q0 584 272 851 272 268 862 268h544z" transform="scale(.01563)"/></defs><use xlink:href="#DejaVuSans-6f"/><use xlink:href="#DejaVuSans-76" x="61.182"/><use xlink:href="#DejaVuSans-65" x="120.361"/><use xlink:href="#DejaVuSans-72" x="181.885"/><use xlink:href="#DejaVuSans-6c" x="222.998"/><use xlink:href="#DejaVuSans-65" x="250.781"/><use xlink:href="#DejaVuSans-61" x="312.305"/><use xlink:href="#DejaVuSans-66" x="373.584"/><use xlink:href="#DejaVuSans-2f" x="408.789"/><use xlink:href="#DejaVuSans-6f" x="442.48"/><use xlink:href="#DejaVuSans-76" x="503.662"/><use xlink:href="#DejaVuSans-65" x="562.842"/><use xlink:href="#DejaVuSans-72" x="624.365"/><use xlink:href="#DejaVuSans-6c" x="665.479"/><use xlink:href="#DejaVuSans-65" x="693.262"/><use xlink:href="#DejaVuSans-61" x="754.785"/><use xlink:href="#DejaVuSans-66" x="816.064"/></g><g style="fill:#9467bd" transform="matrix(.14 0 0 -.14 465.907 147.804)" id="text_21"><defs><path id="DejaVuSans-68" d="M3513 2113V0h-575v2094q0 497-194 743-194 247-581 247-466 0-735-297-269-296-269-809V0H581v4863h578V2956q207 316 486 472 280 156 646 156 603 0 912-373 310-373 310-1098z" transform="scale(.01563)"/><path id="DejaVuSans-63" d="M3122 3366v-538q-244 135-489 202t-495 67q-560 0-870-355-309-354-309-995t309-996q310-354 870-354 250 0 495 67t489 202V134Q2881 22 2623-34q-257-57-548-57-791 0-1257 497-465 497-465 1341 0 856 470 1346 471 491 1290 491 265 0 518-55 253-54 491-163z" transform="scale(.01563)"/><path id="DejaVuSans-79" d="M2059-325q-243-625-475-815-231-191-618-191H506v481h338q237 0 368 113 132 112 291 531l103 262L191 3500h609L1894 763l1094 2737h609L2059-325z" transform="scale(.01563)"/><path id="DejaVuSans-6b" d="M581 4863h578V1991l1716 1509h734L1753 1863 3688 0h-750L1159 1709V0H581v4863z" transform="scale(.01563)"/><path id="DejaVuSans-64" d="M2906 2969v1894h575V0h-575v525q-181-312-458-464-276-152-664-152-634 0-1033 506-398 507-398 1332t398 1331q399 506 1033 506 388 0 664-152 277-151 458-463zM947 1747q0-634 261-995t717-361q456 0 718 361 263 361 263 995t-263 995q-262 361-718 361t-717-361q-261-361-261-995z" transform="scale(.01563)"/></defs><use xlink:href="#DejaVuSans-68"/><use xlink:href="#DejaVuSans-6d" x="63.379"/><use xlink:href="#DejaVuSans-65" x="160.791"/><use xlink:href="#DejaVuSans-6d" x="222.314"/><use xlink:href="#DejaVuSans-63" x="319.727"/><use xlink:href="#DejaVuSans-70" x="374.707"/><use xlink:href="#DejaVuSans-79" x="438.184"/><use xlink:href="#DejaVuSans-2f" x="497.363"/><use xlink:href="#DejaVuSans-6d" x="531.055"/><use xlink:href="#DejaVuSans-69" x="628.467"/><use xlink:href="#DejaVuSans-6c" x="656.25"/><use xlink:href="#DejaVuSans-65" x="684.033"/><use xlink:href="#DejaVuSans-77" x="745.557"/><use xlink:href="#DejaVuSans-73" x="827.344"/><use xlink:href="#DejaVuSans-6b" x="879.443"/><use xlink:href="#DejaVuSans-69" x="937.354"/><use xlink:href="#DejaVuSans-2d" x="965.137"/><use xlink:href="#DejaVuSans-63" x="1001.221"/><use xlink:href="#DejaVuSans-74" x="1056.201"/><use xlink:href="#DejaVuSans-66" x="1095.41"/><use xlink:href="#DejaVuSans-70" x="1130.615"/><use xlink:href="#DejaVuSans-2d" x="1194.092"/><use xlink:href="#DejaVuSans-70" x="1230.176"/><use xlink:href="#DejaVuSans-64" x="1293.652"/><use xlink:href="#DejaVuSans-66" x="1357.129"/></g><g style="fill:#8c564b" transform="matrix(.14 0 0 -.14 465.907 161.804)" id="text_22"><defs><path id="DejaVuSans-6a" d="M603 3500h575V-63q0-668-255-968-254-300-820-300h-219v487H38q328 0 446 152Q603-541 603-63v3563zm0 1363h575v-729H603v729z" transform="scale(.01563)"/><path id="DejaVuSans-78" d="M3513 3500 2247 1797 3578 0h-678L1881 1375 863 0H184l1360 1831L300 3500h678l928-1247 928 1247h679z" transform="scale(.01563)"/><path id="DejaVuSans-4d" d="M628 4666h941l1190-3175 1197 3175h941V0h-616v4097L3078 897h-634L1241 4097V0H628v4666z" transform="scale(.01563)"/><path id="DejaVuSans-4a" d="M628 4666h631V325q0-844-320-1225T-91-1281h-240v531h197q418 0 590 235 172 234 172 840v4341z" transform="scale(.01563)"/></defs><use xlink:href="#DejaVuSans-6d"/><use xlink:href="#DejaVuSans-61" x="97.412"/><use xlink:href="#DejaVuSans-74" x="158.691"/><use xlink:href="#DejaVuSans-68" x="197.9"/><use xlink:href="#DejaVuSans-6a" x="261.279"/><use xlink:href="#DejaVuSans-61" x="289.063"/><use xlink:href="#DejaVuSans-78" x="350.342"/><use xlink:href="#DejaVuSans-2f" x="409.521"/><use xlink:href="#DejaVuSans-4d" x="443.213"/><use xlink:href="#DejaVuSans-61" x="529.492"/><use xlink:href="#DejaVuSans-74" x="590.771"/><use xlink:href="#DejaVuSans-68" x="629.98"/><use xlink:href="#DejaVuSans-4a" x="693.359"/><use xlink:href="#DejaVuSans-61" x="722.852"/><use xlink:href="#DejaVuSans-78" x="784.131"/></g><g style="fill:#e377c2" transform="matrix(.14 0 0 -.14 465.907 186.074)" id="text_23"><defs><path id="DejaVuSans-6e" d="M3513 2113V0h-575v2094q0 497-194 743-194 247-581 247-466 0-735-297-269-296-269-809V0H581v3500h578v-544q207 316 486 472 280 156 646 156 603 0 912-373 310-373 310-1098z" transform="scale(.01563)"/></defs><use xlink:href="#DejaVuSans-62"/><use xlink:href="#DejaVuSans-69" x="63.477"/><use xlink:href="#DejaVuSans-6c" x="91.26"/><use xlink:href="#DejaVuSans-6c" x="119.043"/><use xlink:href="#DejaVuSans-72" x="146.826"/><use xlink:href="#DejaVuSans-79" x="187.939"/><use xlink:href="#DejaVuSans-61" x="247.119"/><use xlink:href="#DejaVuSans-6e" x="308.398"/><use xlink:href="#DejaVuSans-2f" x="371.777"/><use xlink:href="#DejaVuSans-72" x="405.469"/><use xlink:href="#DejaVuSans-65" x="444.332"/><use xlink:href="#DejaVuSans-73" x="505.855"/><use xlink:href="#DejaVuSans-75" x="557.955"/><use xlink:href="#DejaVuSans-6d" x="621.334"/><use xlink:href="#DejaVuSans-65" x="718.746"/></g><g style="fill:#7f7f7f" transform="matrix(.14 0 0 -.14 465.907 200.074)" id="text_24"><defs><path id="DejaVuSans-57" d="M213 4666h637l981-3944 978 3944h710l981-3944 978 3944h641L4947 0h-794l-984 4050L2175 0h-794L213 4666z" transform="scale(.01563)"/></defs><use xlink:href="#DejaVuSans-57"/><use xlink:href="#DejaVuSans-61" x="92.502"/><use xlink:href="#DejaVuSans-6e" x="153.781"/><use xlink:href="#DejaVuSans-64" x="217.16"/><use xlink:href="#DejaVuSans-6d" x="280.637"/><use xlink:href="#DejaVuSans-61" x="378.049"/><use xlink:href="#DejaVuSans-6c" x="439.328"/><use xlink:href="#DejaVuSans-66" x="467.111"/><use xlink:href="#DejaVuSans-61" x="502.316"/><use xlink:href="#DejaVuSans-72" x="563.596"/><use xlink:href="#DejaVuSans-62" x="604.709"/><use xlink:href="#DejaVuSans-65" x="668.186"/><use xlink:href="#DejaVuSans-2f" x="729.709"/><use xlink:href="#DejaVuSans-70" x="763.4"/><use xlink:href="#DejaVuSans-61" x="826.877"/><use xlink:href="#DejaVuSans-6e" x="888.156"/><use xlink:href="#DejaVuSans-64" x="951.535"/><use xlink:href="#DejaVuSans-6f" x="1015.012"/><use xlink:href="#DejaVuSans-63" x="1076.193"/><use xlink:href="#DejaVuSans-2d" x="1131.174"/><use xlink:href="#DejaVuSans-6c" x="1167.258"/><use xlink:href="#DejaVuSans-61" x="1195.041"/><use xlink:href="#DejaVuSans-74" x="1256.32"/><use xlink:href="#DejaVuSans-65" x="1295.529"/><use xlink:href="#DejaVuSans-78" x="1355.303"/><use xlink:href="#DejaVuSans-2d" x="1414.482"/><use xlink:href="#DejaVuSans-74" x="1450.566"/><use xlink:href="#DejaVuSans-65" x="1489.775"/><use xlink:href="#DejaVuSans-6d" x="1551.299"/><use xlink:href="#DejaVuSans-70" x="1648.711"/><use xlink:href="#DejaVuSans-6c" x="1712.188"/><use xlink:href="#DejaVuSans-61" x="1739.971"/><use xlink:href="#DejaVuSans-74" x="1801.25"/><use xlink:href="#DejaVuSans-65" x="1840.459"/></g><g style="fill:#bcbd22" transform="matrix(.14 0 0 -.14 465.907 214.074)" id="text_25"><defs><path id="DejaVuSans-67" d="M2906 1791q0 625-258 968-257 344-723 344-462 0-720-344-258-343-258-968 0-622 258-966t720-344q466 0 723 344 258 344 258 966zm575-1357q0-893-397-1329-396-436-1215-436-303 0-572 45t-522 139v559q253-137 500-202 247-66 503-66 566 0 847 295t281 892v285q-178-310-456-463T1784 0Q1141 0 747 490 353 981 353 1791q0 812 394 1302 394 491 1037 491 388 0 666-153t456-462v531h575V434z" transform="scale(.01563)"/></defs><use xlink:href="#DejaVuSans-6c"/><use xlink:href="#DejaVuSans-65" x="27.783"/><use xlink:href="#DejaVuSans-72" x="89.307"/><use xlink:href="#DejaVuSans-76" x="130.42"/><use xlink:href="#DejaVuSans-61" x="189.6"/><use xlink:href="#DejaVuSans-67" x="250.879"/><use xlink:href="#DejaVuSans-2f" x="314.355"/><use xlink:href="#DejaVuSans-76" x="348.047"/><use xlink:href="#DejaVuSans-69" x="407.227"/><use xlink:href="#DejaVuSans-6d" x="435.01"/><use xlink:href="#DejaVuSans-74" x="532.422"/><use xlink:href="#DejaVuSans-65" x="571.631"/><use xlink:href="#DejaVuSans-78" x="631.404"/></g><g style="fill:#17becf" transform="matrix(.14 0 0 -.14 465.907 228.074)" id="text_26"><use xlink:href="#DejaVuSans-57"/><use xlink:href="#DejaVuSans-6f" x="93.002"/><use xlink:href="#DejaVuSans-6f" x="154.184"/><use xlink:href="#DejaVuSans-6b" x="215.365"/><use xlink:href="#DejaVuSans-61" x="271.525"/><use xlink:href="#DejaVuSans-69" x="332.805"/><use xlink:href="#DejaVuSans-2f" x="360.588"/><use xlink:href="#DejaVuSans-70" x="394.279"/><use xlink:href="#DejaVuSans-61" x="457.756"/><use xlink:href="#DejaVuSans-70" x="519.035"/><use xlink:href="#DejaVuSans-65" x="582.512"/><use xlink:href="#DejaVuSans-72" x="644.035"/><use xlink:href="#DejaVuSans-2d" x="678.773"/><use xlink:href="#DejaVuSans-74" x="714.857"/><use xlink:href="#DejaVuSans-69" x="754.066"/><use xlink:href="#DejaVuSans-70" x="781.85"/><use xlink:href="#DejaVuSans-73" x="845.326"/><use xlink:href="#DejaVuSans-2d" x="897.426"/><use xlink:href="#DejaVuSans-61" x="933.51"/><use xlink:href="#DejaVuSans-6e" x="994.789"/><use xlink:href="#DejaVuSans-64" x="1058.168"/><use xlink:href="#DejaVuSans-2d" x="1121.645"/><use xlink:href="#DejaVuSans-74" x="1157.729"/><use xlink:href="#DejaVuSans-72" x="1196.938"/><use xlink:href="#DejaVuSans-69" x="1238.051"/><use xlink:href="#DejaVuSans-63" x="1265.834"/><use xlink:href="#DejaVuSans-6b" x="1320.814"/><use xlink:href="#DejaVuSans-73" x="1378.725"/></g><g style="fill:#aec7e8" transform="matrix(.14 0 0 -.14 465.907 242.074)" id="text_27"><use xlink:href="#DejaVuSans-73"/><use xlink:href="#DejaVuSans-62" x="52.1"/><use xlink:href="#DejaVuSans-32" x="115.576"/><use xlink:href="#DejaVuSans-6e" x="179.199"/><use xlink:href="#DejaVuSans-6f" x="242.578"/><use xlink:href="#DejaVuSans-76" x="303.76"/><use xlink:href="#DejaVuSans-2f" x="362.939"/><use xlink:href="#DejaVuSans-72" x="396.631"/><use xlink:href="#DejaVuSans-65" x="435.494"/><use xlink:href="#DejaVuSans-73" x="497.018"/><use xlink:href="#DejaVuSans-75" x="549.117"/><use xlink:href="#DejaVuSans-6d" x="612.496"/><use xlink:href="#DejaVuSans-65" x="709.908"/></g><g style="fill:#ffbb78" transform="matrix(.14 0 0 -.14 465.907 256.074)" id="text_28"><use xlink:href="#DejaVuSans-67"/><use xlink:href="#DejaVuSans-6f" x="63.477"/><use xlink:href="#DejaVuSans-6f" x="124.658"/><use xlink:href="#DejaVuSans-67" x="185.84"/><use xlink:href="#DejaVuSans-6c" x="249.316"/><use xlink:href="#DejaVuSans-65" x="277.1"/><use xlink:href="#DejaVuSans-2d" x="338.623"/><use xlink:href="#DejaVuSans-72" x="374.707"/><use xlink:href="#DejaVuSans-65" x="413.57"/><use xlink:href="#DejaVuSans-73" x="475.094"/><use xlink:href="#DejaVuSans-65" x="527.193"/><use xlink:href="#DejaVuSans-61" x="588.717"/><use xlink:href="#DejaVuSans-72" x="649.996"/><use xlink:href="#DejaVuSans-63" x="688.859"/><use xlink:href="#DejaVuSans-68" x="743.84"/><use xlink:href="#DejaVuSans-2f" x="807.219"/><use xlink:href="#DejaVuSans-61" x="840.91"/><use xlink:href="#DejaVuSans-72" x="902.189"/><use xlink:href="#DejaVuSans-78" x="940.678"/><use xlink:href="#DejaVuSans-69" x="999.857"/><use xlink:href="#DejaVuSans-76" x="1027.641"/><use xlink:href="#DejaVuSans-2d" x="1084.195"/><use xlink:href="#DejaVuSans-6c" x="1120.279"/><use xlink:href="#DejaVuSans-61" x="1148.063"/><use xlink:href="#DejaVuSans-74" x="1209.342"/><use xlink:href="#DejaVuSans-65" x="1248.551"/><use xlink:href="#DejaVuSans-78" x="1308.324"/><use xlink:href="#DejaVuSans-2d" x="1367.504"/><use xlink:href="#DejaVuSans-63" x="1403.588"/><use xlink:href="#DejaVuSans-6c" x="1458.568"/><use xlink:href="#DejaVuSans-65" x="1486.352"/><use xlink:href="#DejaVuSans-61" x="1547.875"/><use xlink:href="#DejaVuSans-6e" x="1609.154"/><use xlink:href="#DejaVuSans-65" x="1672.533"/><use xlink:href="#DejaVuSans-72" x="1734.057"/></g><g style="fill:#98df8a" transform="matrix(.14 0 0 -.14 465.907 270.074)" id="text_29"><use xlink:href="#DejaVuSans-74"/><use xlink:href="#DejaVuSans-65" x="39.209"/><use xlink:href="#DejaVuSans-63" x="100.732"/><use xlink:href="#DejaVuSans-74" x="155.713"/><use xlink:href="#DejaVuSans-6f" x="194.922"/><use xlink:href="#DejaVuSans-6e" x="256.104"/><use xlink:href="#DejaVuSans-69" x="319.482"/><use xlink:href="#DejaVuSans-63" x="347.266"/><use xlink:href="#DejaVuSans-2d" x="402.246"/><use xlink:href="#DejaVuSans-74" x="438.33"/><use xlink:href="#DejaVuSans-79" x="477.539"/><use xlink:href="#DejaVuSans-70" x="536.719"/><use xlink:href="#DejaVuSans-65" x="600.195"/><use xlink:href="#DejaVuSans-73" x="661.719"/><use xlink:href="#DejaVuSans-65" x="713.818"/><use xlink:href="#DejaVuSans-74" x="775.342"/><use xlink:href="#DejaVuSans-74" x="814.551"/><use xlink:href="#DejaVuSans-69" x="853.76"/><use xlink:href="#DejaVuSans-6e" x="881.543"/><use xlink:href="#DejaVuSans-67" x="944.922"/><use xlink:href="#DejaVuSans-2f" x="1008.398"/><use xlink:href="#DejaVuSans-74" x="1042.09"/><use xlink:href="#DejaVuSans-65" x="1081.299"/><use xlink:href="#DejaVuSans-63" x="1142.822"/><use xlink:href="#DejaVuSans-74" x="1197.803"/><use xlink:href="#DejaVuSans-6f" x="1237.012"/><use xlink:href="#DejaVuSans-6e" x="1298.193"/><use xlink:href="#DejaVuSans-69" x="1361.572"/><use xlink:href="#DejaVuSans-63" x="1389.355"/></g><g style="fill:#ff9896" transform="matrix(.14 0 0 -.14 465.907 284.074)" id="text_30"><defs><path id="DejaVuSans-52" d="M2841 2188q203-69 395-294t386-619L4263 0h-679l-596 1197q-232 469-449 622t-592 153h-688V0H628v4666h1425q800 0 1194-335 394-334 394-1009 0-441-205-732-205-290-595-402zM1259 4147V2491h794q456 0 689 211t233 620q0 409-233 617t-689 208h-794z" transform="scale(.01563)"/></defs><use xlink:href="#DejaVuSans-4a"/><use xlink:href="#DejaVuSans-61" x="29.492"/><use xlink:href="#DejaVuSans-62" x="90.771"/><use xlink:href="#DejaVuSans-52" x="154.248"/><use xlink:href="#DejaVuSans-65" x="219.23"/><use xlink:href="#DejaVuSans-66" x="280.754"/><use xlink:href="#DejaVuSans-2f" x="315.959"/><use xlink:href="#DejaVuSans-6a" x="349.65"/><use xlink:href="#DejaVuSans-61" x="377.434"/><use xlink:href="#DejaVuSans-62" x="438.713"/><use xlink:href="#DejaVuSans-72" x="502.189"/><use xlink:href="#DejaVuSans-65" x="541.053"/><use xlink:href="#DejaVuSans-66" x="602.576"/></g><g style="fill:#c5b0d5" transform="matrix(.14 0 0 -.14 465.907 298.074)" id="text_31"><use xlink:href="#DejaVuSans-78"/><use xlink:href="#DejaVuSans-64" x="59.18"/><use xlink:href="#DejaVuSans-61" x="122.656"/><use xlink:href="#DejaVuSans-6e" x="183.936"/><use xlink:href="#DejaVuSans-61" x="247.314"/><use xlink:href="#DejaVuSans-75" x="308.594"/><use xlink:href="#DejaVuSans-78" x="371.973"/><use xlink:href="#DejaVuSans-2f" x="431.152"/><use xlink:href="#DejaVuSans-6d" x="464.844"/><use xlink:href="#DejaVuSans-6f" x="562.256"/><use xlink:href="#DejaVuSans-64" x="623.438"/><use xlink:href="#DejaVuSans-65" x="686.914"/><use xlink:href="#DejaVuSans-72" x="748.438"/><use xlink:href="#DejaVuSans-6e" x="787.801"/><use xlink:href="#DejaVuSans-63" x="851.18"/><use xlink:href="#DejaVuSans-76" x="906.16"/></g><g style="fill:#b0b0b0" transform="matrix(.09716 0 0 -.09716 98.073 325.313)" id="text_32"><defs><path id="DejaVuSans-40" d="M2381 1678q0-447 222-702 222-254 610-254 384 0 604 256 221 256 221 700 0 438-225 695-225 258-607 258-378 0-602-256-223-256-223-697zm1703-934q-187-241-429-355t-564-114q-538 0-874 389t-336 1014q0 625 337 1015 338 391 873 391 322 0 565-117 244-117 428-354v409h447V722q457 69 714 417 258 349 258 902 0 334-99 628-98 294-298 544-325 409-792 626t-1017 217q-384 0-738-102-353-101-653-301-490-319-767-836-276-517-276-1120 0-497 179-932 180-434 521-765 328-325 759-495 431-171 922-171 403 0 792 136t714 389l281-347q-390-303-851-464t-936-161q-578 0-1091 205-512 205-912 595Q841 78 631 592q-209 514-209 1105 0 569 212 1084 213 516 607 907 403 396 931 607t1119 211q662 0 1229-272 568-271 952-771 234-307 357-666 124-359 124-744 0-822-497-1297T4084 263v481z" transform="scale(.01563)"/><path id="DejaVuSans-7c" d="M1344 4891v-6400H813v6400h531z" transform="scale(.01563)"/><path id="DejaVuSans-53" d="M3425 4513v-616q-359 172-678 256-319 85-616 85-515 0-795-200t-280-569q0-310 186-468 186-157 705-254l381-78q706-135 1042-474t336-907q0-679-455-1029Q2797-91 1919-91q-331 0-705 75-373 75-773 222v650q384-215 753-325 369-109 725-109 540 0 834 212 294 213 294 607 0 343-211 537t-692 291l-385 75q-706 140-1022 440-315 300-315 835 0 619 436 975t1201 356q329 0 669-60 341-59 697-177z" transform="scale(.01563)"/><path id="DejaVuSans-f6" d="M1959 3097q-462 0-731-361t-269-989q0-628 267-989 268-361 733-361 460 0 728 362 269 363 269 988 0 622-269 986-268 364-728 364zm0 487q750 0 1178-488 429-487 429-1349 0-859-429-1349Q2709-91 1959-91q-753 0-1180 489-426 490-426 1349 0 862 426 1349 427 488 1180 488zm295 1266h634v-631h-634v631zm-1222 0h634v-631h-634v631z" transform="scale(.01563)"/><path id="DejaVuSans-42" d="M1259 2228V519h1013q509 0 754 211 246 211 246 645 0 438-246 645-245 208-754 208H1259zm0 1919V2741h935q462 0 688 173 227 174 227 530 0 353-227 528-226 175-688 175h-935zm-631 519h1613q722 0 1112-300 391-300 391-853 0-429-200-682t-588-315q466-100 724-418 258-317 258-792 0-625-425-966Q3088 0 2303 0H628v4666z" transform="scale(.01563)"/><path id="DejaVuSans-59" d="M-13 4666h679l1293-1919 1285 1919h678L2272 2222V0h-634v2222L-13 4666z" transform="scale(.01563)"/></defs><use xlink:href="#DejaVuSans-40"/><use xlink:href="#DejaVuSans-6e" x="100"/><use xlink:href="#DejaVuSans-73" x="163.379"/><use xlink:href="#DejaVuSans-63" x="215.479"/><use xlink:href="#DejaVuSans-68" x="270.459"/><use xlink:href="#DejaVuSans-6c" x="333.838"/><use xlink:href="#DejaVuSans-6f" x="361.621"/><use xlink:href="#DejaVuSans-65" x="422.803"/><use xlink:href="#DejaVuSans-20" x="484.326"/><use xlink:href="#DejaVuSans-2f" x="516.113"/><use xlink:href="#DejaVuSans-20" x="549.805"/><use xlink:href="#DejaVuSans-67" x="581.592"/><use xlink:href="#DejaVuSans-69" x="645.068"/><use xlink:href="#DejaVuSans-74" x="672.852"/><use xlink:href="#DejaVuSans-68" x="712.061"/><use xlink:href="#DejaVuSans-75" x="775.439"/><use xlink:href="#DejaVuSans-62" x="838.818"/><use xlink:href="#DejaVuSans-2d" x="902.295"/><use xlink:href="#DejaVuSans-74" x="938.379"/><use xlink:href="#DejaVuSans-72" x="977.588"/><use xlink:href="#DejaVuSans-65" x="1016.451"/><use xlink:href="#DejaVuSans-6e" x="1077.975"/><use xlink:href="#DejaVuSans-64" x="1141.354"/><use xlink:href="#DejaVuSans-73" x="1204.83"/><use xlink:href="#DejaVuSans-20" x="1256.93"/><use xlink:href="#DejaVuSans-7c" x="1288.717"/><use xlink:href="#DejaVuSans-20" x="1322.408"/><use xlink:href="#DejaVuSans-4e" x="1354.195"/><use xlink:href="#DejaVuSans-69" x="1429"/><use xlink:href="#DejaVuSans-63" x="1456.783"/><use xlink:href="#DejaVuSans-6f" x="1511.764"/><use xlink:href="#DejaVuSans-20" x="1572.945"/><use xlink:href="#DejaVuSans-53" x="1604.732"/><use xlink:href="#DejaVuSans-63" x="1668.209"/><use xlink:href="#DejaVuSans-68" x="1723.189"/><use xlink:href="#DejaVuSans-6c" x="1786.568"/><use xlink:href="#DejaVuSans-f6" x="1814.352"/><use xlink:href="#DejaVuSans-6d" x="1875.533"/><use xlink:href="#DejaVuSans-65" x="1972.945"/><use xlink:href="#DejaVuSans-72" x="2034.469"/><use xlink:href="#DejaVuSans-20" x="2075.582"/><use xlink:href="#DejaVuSans-7c" x="2107.369"/><use xlink:href="#DejaVuSans-20" x="2141.061"/><use xlink:href="#DejaVuSans-43" x="2172.848"/><use xlink:href="#DejaVuSans-43" x="2242.672"/><use xlink:href="#DejaVuSans-20" x="2312.496"/><use xlink:href="#DejaVuSans-42" x="2344.283"/><use xlink:href="#DejaVuSans-59" x="2407.387"/></g><path d="m348.62 291.276 2.525-2.698 2.282-2.729 2.525-2.805 2.445-1.784 2.526-1.509 2.444-.503 2.526-1.662 2.526-.533 2.444-.473 2.526-.548 2.444-.519 2.526-.533 2.526-.351 2.363-1.646 2.525-1.372 2.445-.808 2.526-1.052 2.444-1.784 2.526-1.753 2.526-1.006 2.444-1.647 2.526-.96 2.444-.762 2.526-.564 2.526-.702 2.281-.548 2.526-.747 2.444-1.83 2.526-1.372 2.445-.9 2.525-.868 2.526-.884 2.445-.915 2.526-.991 2.444-.9 2.526-.685 2.526-.58 2.28-.838 2.527-1.174 2.444-1.22 2.526-.686 2.444-.884 2.526-1.113" clip-path="url(#p143ab88902)" style="fill:none;stroke:#ffbb78;stroke-width:1.5;stroke-linecap:square" id="line2d_28"/><path d="m251.823 291.276 2.526-.167 2.444-.016 2.526-.03 2.526-.015 2.363-.016h2.525l2.445-.045 2.526-.016 2.444-.045 2.526-.03 2.526-.062h2.444l2.526-.015 2.444-.015 2.526-.016 2.526-.076 2.281-.107 2.526-.091 2.444-.076 2.526-.03 2.445-.153 2.525-.092 2.526-.167 2.445-.412 2.526-.396 2.444-.305 2.526-.229 2.526-.366 2.28-.96 2.527-1.342 2.444-.305 2.526-.396 2.444-.442 2.526-.869 2.526-.838 2.444-.747 2.526-1.007 2.444-.7 2.526-.687 2.526-.67 2.282-.687 2.525-.823 2.445-.884 2.526-.67 2.444-1.053 2.526-.67 2.526-.9 2.444-.701 2.526-1.144 2.444-.7 2.526-.534 2.526-.747 2.363-.808 2.525-.61 2.445-.549 2.526-.762 2.444-.732 2.526-.9 2.526-.807 2.444-.808 2.526-1.022 2.444-.99 2.526-.732 2.526-.991 2.281-.717 2.526-.99 2.444-.732 2.526-1.037 2.445-1.006 2.525-1.174 2.526-1.037 2.445-1.158 2.526-.717 2.444-.808 2.526-.64 2.526-.99 2.28-1.251 2.527-1.19 2.444-1.158 2.526-1.021 2.444-.656 2.526-1.402" clip-path="url(#p143ab88902)" style="fill:none;stroke:#aec7e8;stroke-width:1.5;stroke-linecap:square" id="line2d_29"/><path d="m244.327 291.276 2.526-.015H298.917l2.526-.015h2.445l2.525-.015H318.88l2.526-.016h17.273l2.444-.015H353.427l2.525-32.197 2.445-2.622 2.526-1.021 2.444-.61 2.526-.656 2.526-.472 2.444-.305 2.526-.427 2.444-.396 2.526-.473 2.526-.29 2.363-.426 2.525-.366 2.445-.32 2.526-.336 2.444-.244 2.526-.335 2.526-.32 2.444-.229 2.526-.229 2.444-.335 2.526-.335 2.526-.519 2.281-.503 2.526-.198 2.444-.274 2.526-1.266 2.445-.274 2.525-.229 2.526-.091 2.445-.198 2.526-.199 2.444-.472 2.526-.366 2.526-.244 2.28-.381 2.527-.488 2.444-.472 2.526-.153 2.444-.777 2.526-.519" clip-path="url(#p143ab88902)" style="fill:none;stroke:#17becf;stroke-width:1.5;stroke-linecap:square" id="line2d_30"/><path d="m194.87 291.276 2.444-.03 2.526-.015 2.526-.016h2.28l2.527-.015h4.97l2.444-.015 2.526-.061 2.526-.03h2.444l2.526-.123 2.444-.198 2.526-.122 2.526-.167 2.282-.077 2.525-.106 2.445-.214 2.526-.244 2.444-.305 2.526-.548 2.526-.168 2.444-.305 2.526-.701 2.444-.427 2.526-.336 2.526-.29 2.363-.38 2.525-.26 2.445-.655 2.526-.335 2.444-.32 2.526-.443 2.526-.32 2.444-.427 2.526-.487 2.444-.26 2.526-.365 2.526-.32 2.281-.443 2.526-.67 2.444-.26 2.526-.411 2.445-.534 2.525-.472 2.526-.671 2.445-.67 2.526-.489 2.444-.564 2.526-.488 2.526-.61 2.28-.487 2.527-.671 2.444-.518 2.526-.625 2.444-.473 2.526-.32 2.526-.61 2.444-.61 2.526-.625 2.444-.549 2.526-.564 2.526-.655 2.282-.442 2.525-2.409 2.445-1.692 2.526-.884 2.444-.61 2.526-.96 2.526-.9 2.444-1.082 2.526-.793 2.444-.732 2.526-.533 2.526-.64 2.363-.763 2.525-1.174 2.445-1.052 2.526-1.036 2.444-.991 2.526-.778 2.526-.823 2.444-.762 2.526-.838 2.444-1.342 2.526-1.098 2.526-.67 2.281-.793 2.526-1.387 2.444-.839 2.526-.884 2.445-1.311 2.525-1.082 2.526-.87 2.445-1.02 2.526-.778 2.444-1.006 2.526-.839 2.526-.93 2.28-1.052 2.527-.975 2.444-.747 2.526-.946 2.444-.7 2.526-.778" clip-path="url(#p143ab88902)" style="fill:none;stroke:#bcbd22;stroke-width:1.5;stroke-linecap:square" id="line2d_31"/><path d="m293.947 291.276 2.526-.015 2.444-.03 2.526-.122 2.445-.077 2.525-.122 2.526-.213 2.445-.305 2.526-.35 2.444-.519 2.526-.549 2.526-.518 2.28-.656 2.527-.503 2.444-.442 2.526-.579 2.444-.58 2.526-.41 2.526-.52 2.444-.7 2.526-.55 2.444-.518 2.526-.67 2.526-.778 2.282-.503 2.525-.869 2.445-12.41 2.526-.838 2.444-.731 2.526-.702 2.526-.655 2.444-.686 2.526-1.037 2.444-.808 2.526-1.097 2.526-.732 2.363-.96 2.525-1.007 2.445-1.174 2.526-1.356 2.444-1.006 2.526-1.129 2.526-1.097 2.444-.976 2.526-1.204 2.444-1.326 2.526-1.037 2.526-1.265 2.281-1.677 2.526-1.662 2.444-1.311 2.526-.991 2.445-.99 2.525-1.022 2.526-1.083 2.445-1.326 2.526-1.54 2.444-.884 2.526-1.158 2.526-1.068 2.28-1.417 2.527-1.342 2.444-1.6 2.526-2.364 2.444-1.067 2.526-1.097" clip-path="url(#p143ab88902)" style="fill:none;stroke:#7f7f7f;stroke-width:1.5;stroke-linecap:square" id="line2d_32"/><path d="m241.883 291.276 2.444-.045 2.526-.077 2.526-.183 2.444-.076 2.526-.046 2.444-.122 2.526-.213 2.526-.213 2.363-.275 2.525-.472 2.445-.29 2.526-.381 2.444-.366 2.526-.808 2.526-.412 2.444-.64 2.526-.244 2.444-.396 2.526-.26 2.526-.365 2.281-.884 2.526-1.159 2.444-.808 2.526-.61 2.445-.533 2.525-.671 2.526-.534 2.445-1.113 2.526-.731 2.444-.625 2.526-.9 2.526-.777 2.28-.991 2.527-2.653 2.444-1.189 2.526-1.204 2.444-1.342 2.526-1.326 2.526-1.372 2.444-.99 2.526-.9 2.444-.824 2.526-.96 2.526-1.098 2.282-1.616 2.525-2.515 2.445-1.799 2.526-1.22 2.444-1.204 2.526-.99 2.526-1.083 2.444-1.403 2.526-1.097 2.444-1.57 2.526-1.403 2.526-.854 2.363-1.295 2.525-1.982 2.445-1.54 2.526-1.128 2.444-1.357 2.526-1.006 2.526-1.143 2.444-.778 2.526-.762 2.444-1.082 2.526-1.022 2.526-1.006 2.281-1.235 2.526-2.21 2.444-1.723 2.526-1.28 2.445-1.113 2.525-2.043 2.526-1.067 2.445-1.342 2.526-.884 2.444-.777 2.526-1.403 2.526-1.448 2.28-2.744 2.527-3.583 2.444-2.226 2.526-2.149 2.444-1.159 2.526-1.997" clip-path="url(#p143ab88902)" style="fill:none;stroke:#e377c2;stroke-width:1.5;stroke-linecap:square" id="line2d_33"/><path d="m98.073 291.276 2.526-3.308 2.444-.152 2.526-.275 4.97-.32 7.333-.518 7.415-.64 10.022-.625 4.97-.26 14.829-.564 5.052-.137 2.444-.122 10.022-.015 19.718-3.69 7.496-2.057 4.807-1.067 4.97-1.464 2.526-.96 4.97-1.25 2.526-.915 2.444-1.006 4.97-1.433 2.526-.686 2.526-.87 2.282-1.539 4.97-2.836 4.97-2.576 5.052-2.256 4.97-2.576 2.444-1.388 5.052-2.378 2.363-1.54 2.525-1.494 2.445-1.128 2.526-1.646 2.444-1.067 10.022-5.168 4.97-2.5 4.807-2.135 9.94-6.418 7.497-3.658 2.526-1.494 7.496-4.97 2.28-1.799 2.527-2.363 4.97-3.994 2.444-1.616 2.526-1.51 4.97-3.582 2.526-1.814 4.97-3.049 2.526-1.799 2.282-1.448 2.525-1.738 2.445-1.966 2.526-1.86 2.444-1.327 2.526-1.798 2.526-1.48 2.444-1.097 4.97-1.814 2.526-1.28 2.526-.656 2.363-.838 2.525-1.357 2.445-1.098 2.526-1.479 4.97-2.042 9.94-3.537 2.526-1.067 2.526-.915 2.281-.945 2.526-.823 2.444-.946 2.526-.747 4.97-2.21 2.526-.67 2.445-.93 2.526-.748 2.444-.99 2.526-.687 2.526-.823 2.28-.945 4.971-1.692 2.526-1.6 2.444-.855 2.526-.67h0" clip-path="url(#p143ab88902)" style="fill:none;stroke:#8c564b;stroke-width:1.5;stroke-linecap:square" id="line2d_34"/><path d="m308.94 291.276 2.444-4.893 2.526-19.834 2.444-2.424 2.526-2.164 2.526-1.372 2.28-1.464 2.527-1.662 2.444-1.6 2.526-1.22 2.444-1.189 2.526-2.317 2.526-1.098 2.444-3.049 2.526-13.385 2.444-5.793 2.526-2.484 2.526-2.546 2.282-2.028 2.525-3.14 2.445-2.058 2.526-1.845 2.444-2.21 2.526-1.845 2.526-2.805 2.444-1.951 2.526-1.982 2.444-2.043 2.526-8.156 2.526-3.415 2.363-2.622 2.525-1.875 2.445-1.723 2.526-1.677 2.444-1.783 2.526-2.028 2.526-1.677 2.444-1.875 2.526-1.54 2.444-1.006 2.526-1.417 2.526-1.449 2.281-1.661 2.526-1.601 2.444-1.555 2.526-1.311 2.445-1.342 2.525-1.387 2.526-1.265 2.445-1.6 2.526-1.922 2.444-1.387 2.526-1.174 2.526-1.646 2.28-1.28 2.527-1.175 2.444-1.067 2.526-1.31 2.444-1.083 2.526-1.433" clip-path="url(#p143ab88902)" style="fill:none;stroke:#9467bd;stroke-width:1.5;stroke-linecap:square" id="line2d_35"/><path d="m202.366 291.276 2.28-22.623 2.527-3.323 2.444-1.525 2.526-1.28 2.444-.839 2.526-1.372 2.526-.869 2.444-1.006 2.526-.976 2.444-1.051 2.526-.61 2.526-.93 2.282-.747 2.525-1.083 2.445-1.036 2.526-1.022 2.444-.655 2.526-.518 2.526-.656 2.444-1.098 2.526-.823 2.444-.9 2.526-.64 2.526-.746 2.363-.747 2.525-.991 2.445-1.098 2.526-.777 2.444-.595 2.526-.518 2.526-.625 2.444-.824 2.526-1.189 2.444-.853 2.526-.824 2.526-.914 2.281-1.631 2.526-1.266 2.444-.9 2.526-1.158 2.445-.823 2.525-.9 2.526-.945 2.445-.853 2.526-.854 2.444-.839 2.526-.487 2.526-.808 2.28-1.113 2.527-1.128 2.444-.808 2.526-.93 2.444-.793 2.526-.488 2.526-.686 2.444-.67 2.526-.717 2.444-.473 2.526-.594 2.526-.793 2.282-.442 2.525-.838 2.445-.686 2.526-.915 2.444-.793 2.526-.701 2.526-1.174 2.444-2.195 2.526-2.44 2.444-2.378 2.526-1.768 2.526-1.707 2.363-2.272 2.525-1.982 2.445-2.393 2.526-2.515 2.444-1.89 2.526-2.059 2.526-2.15 2.444-2.073 2.526-2.027 2.444-2.394 2.526-2.835 2.526-2.714 2.281-2.15 2.526-1.966 2.444-2.683 2.526-3.17 2.445-2.562 2.525-1.189 2.526-1.692 2.445-2.44 2.526-1.615 2.444-1.83 2.526-1.555 2.526-2.164 2.28-1.89 2.527-1.921 2.444-1.952 2.526-2.104 2.444-1.676 2.526-1.616" clip-path="url(#p143ab88902)" style="fill:none;stroke:#d62728;stroke-width:1.5;stroke-linecap:square" id="line2d_36"/><path d="m184.848 291.276 2.525-.122h2.526l2.445-.06h4.97l2.526-.046 2.526-.03 2.28-.047 2.527-.045 2.444-.016 2.526-.015 2.444-.015 2.526-.061 2.526-.046 2.444-37.746 2.526-2.622 2.444-1.067 2.526-.869 2.526-1.22 2.282-1.372 2.525-2.164 2.445-1.296 2.526-1.662 2.444-1.097 2.526-1.357 2.526-1.006 2.444-1.784 2.526-1.479 2.444-1.31 2.526-1.342 2.526-1.159 2.363-1.174 2.525-1.661 2.445-1.388 2.526-.869 2.444-.869 2.526-1.433 2.526-1.356 2.444-1.464 2.526-1.616 2.444-1.83 2.526-2.011 2.526-1.876 2.281-1.585 2.526-2.012 2.444-2.592 2.526-1.753 2.445-1.464 2.525-1.722 2.526-2.561 2.445-1.89 2.526-2.043 2.444-1.952 2.526-1.768 2.526-11.693 2.28-2.683 2.527-2.089 2.444-3.018 2.526-2.454 2.444-2.12 2.526-2.317 2.526-3.018 2.444-2.622 2.526-2.104 2.444-1.951 2.526-1.662 2.526-2.561 2.282-1.936 2.525-8.278 2.445-2.896 2.526-2.18 2.444-1.708 2.526-2.088 2.526-2.089 2.444-1.784 2.526-1.798 2.444-1.83 2.526-1.83 2.526-1.57 2.363-1.707 2.525-2.515 2.445-2.5 2.526-2.516 2.444-2.607 2.526-1.966 2.526-2.44 2.444-2.042 2.526-4.878 2.444-1.86 2.526-2.638 2.526-2.027 2.281-1.967 2.526-2.408 2.444-1.997 2.526-3.644 2.445-1.936 2.525-3.11 2.526-2.195 2.445-1.967 2.526-2.302 2.444-1.646 2.526-1.784 2.526-2.18 2.28-1.86 2.527-1.844 2.444-1.662 2.526-5.168 2.444-2.53 2.526-1.418" clip-path="url(#p143ab88902)" style="fill:none;stroke:#2ca02c;stroke-width:1.5;stroke-linecap:square" id="line2d_37"/><path d="m239.357 291.276 2.526-.06 2.444-.031H251.823l2.526-.122 2.444-2.089 2.526-1.89 2.526-1.159 2.363-.884 2.525-1.082 2.445-.945 2.526-.991 2.444-1.89 2.526-1.037 2.526-1.22 2.444-1.692 2.526-1.326 2.444-1.19 2.526-2.164 2.526-1.814 2.281-2.074 2.526-2.835 2.444-2.272 2.526-2.18 2.445-2.134 2.525-3.064 2.526-1.83 2.445-3.033 2.526-2.973 2.444-3.78 2.526-2.485 2.526-3.415 2.28-2.455 2.527-3.277 2.444-3.064 2.526-5.473 2.444-2.546 2.526-2.82 2.526-2.943 2.444-2.88 2.526-3.522 2.444-3.735 2.526-3.308 2.526-4.376 2.282-4.01 2.525-4.68 2.445-3.719 2.526-3.308 2.444-7.912 2.526-6.28 2.526-4.59 2.444-4.161 2.526-3.873 2.444-3.445 2.526-3.506 2.526-3.872 2.363-3.37 2.525-4.314 2.445-2.927 2.526-3.978 2.444-3.66 2.526-3.612 2.526-4.238 2.444-3.156 2.526-3.643 2.444-2.775 2.526-4.375 2.526-3.75 2.281-3.537 2.526-3.567 2.444-4.086 2.526-3.339 2.445-4.177 2.525-3.735 2.526-3.155 2.445-3.796 2.526-3.872 2.444-3.217 2.526-3.415 2.526-4.177 2.28-4.055 2.527-4.878 2.444-3.674 2.526-3.69 2.444-3.613 2.526-4.725" clip-path="url(#p143ab88902)" style="fill:none;stroke:#ff7f0e;stroke-width:1.5;stroke-linecap:square" id="line2d_38"/><path d="m341.123 291.276 2.526-.122 2.444-.411 2.526-3.324 2.526-1.265 2.282-44.804 2.525-17.669 2.445-8.506 2.526-4.559 2.444-5.076 2.526-3.766 2.526-3.43 2.444-2.683 2.526-3.46 2.444-5.153 2.526-3.43 2.526-2.485 2.363-2.835 2.525-3.14 2.445-4.254 2.526-3.674 2.444-5.153 2.526-3.4 2.526-2.286 2.444-3.232 2.526-3.323 2.444-3.415 2.526-4.696 2.526-30.55 2.281-3.522 2.526-7.393 2.444-3.522 2.526-5.305 2.445-2.805 2.525-2.546 2.526-3.064 2.445-3.156 2.526-2.515 2.444-3.37 2.526-3.566 2.526-25.581 2.28-2.912 2.527-3.887 2.444-3.552 2.526-3.613 2.444-3.263 2.526-2.439" clip-path="url(#p143ab88902)" style="fill:none;stroke:#1f77b4;stroke-width:1.5;stroke-linecap:square" id="line2d_39"/></g></g><defs><clipPath id="p143ab88902"><path d="M98.073 25.164h357.12v266.112H98.073z"/></clipPath></defs></svg>