<svg xmlns:xlink="http://www.w3.org/1999/xlink" width="859.627" height="453.599" viewBox="0 0 644.72 340.199" xmlns="http://www.w3.org/2000/svg"><defs><style>*{stroke-linejoin:round;stroke-linecap:butt}</style></defs><g id="figure_1"><path d="M0 340.2h644.72V0H0v340.2z" style="fill:none" id="patch_1"/><g id="axes_1"><path d="M98.073 296.672h357.12V30.56H98.073v266.112z" style="fill:none" id="patch_2"/><g id="matplotlib.axis_1"><g id="xtick_1"><g id="line2d_1"><defs><path id="mb6ddc1f8b7" d="M0 0v3.5" style="stroke:#b0b0b0;stroke-width:.4"/></defs><use xlink:href="#mb6ddc1f8b7" x="139.983" y="296.672" style="fill:#b0b0b0;stroke:#b0b0b0;stroke-width:.4"/></g><g style="fill:#b0b0b0" transform="matrix(.14 0 0 -.14 122.168 314.31)" id="text_1"><defs><path id="DejaVuSans-32" d="M1228 531h2203V0H469v531q359 372 979 998 621 627 780 809 303 340 423 576 121 236 121 464 0 372-261 606-261 235-680 235-297 0-627-103-329-103-704-313v638q381 153 712 231 332 78 607 78 725 0 1156-363 431-362 431-968 0-288-108-546-107-257-392-607-78-91-497-524-418-433-1181-1211z" transform="scale(.01563)"/><path id="DejaVuSans-30" d="M2034 4250q-487 0-733-480-245-479-245-1442 0-959 245-1439 246-480 733-480 491 0 736 480 246 480 246 1439 0 963-246 1442-245 480-736 480zm0 500q785 0 1199-621 414-620 414-1801 0-1178-414-1799Q2819-91 2034-91q-784 0-1198 620-414 621-414 1799 0 1181 414 1801 414 621 1198 621z" transform="scale(.01563)"/><path id="DejaVuSans-31" d="M794 531h1031v3560L703 3866v575l1116 225h631V531h1031V0H794v531z" transform="scale(.01563)"/></defs><use xlink:href="#DejaVuSans-32"/><use xlink:href="#DejaVuSans-30" x="63.623"/><use xlink:href="#DejaVuSans-31" x="127.246"/><use xlink:href="#DejaVuSans-32" x="190.869"/></g></g><g id="xtick_2"><use xlink:href="#mb6ddc1f8b7" x="199.125" y="296.672" style="fill:#b0b0b0;stroke:#b0b0b0;stroke-width:.4" id="line2d_2"/><g style="fill:#b0b0b0" transform="matrix(.14 0 0 -.14 181.31 314.31)" id="text_2"><defs><path id="DejaVuSans-34" d="M2419 4116 825 1625h1594v2491zm-166 550h794V1625h666v-525h-666V0h-628v1100H313v609l1940 2957z" transform="scale(.01563)"/></defs><use xlink:href="#DejaVuSans-32"/><use xlink:href="#DejaVuSans-30" x="63.623"/><use xlink:href="#DejaVuSans-31" x="127.246"/><use xlink:href="#DejaVuSans-34" x="190.869"/></g></g><g id="xtick_3"><use xlink:href="#mb6ddc1f8b7" x="258.187" y="296.672" style="fill:#b0b0b0;stroke:#b0b0b0;stroke-width:.4" id="line2d_3"/><g style="fill:#b0b0b0" transform="matrix(.14 0 0 -.14 240.372 314.31)" id="text_3"><defs><path id="DejaVuSans-36" d="M2113 2584q-425 0-674-291-248-290-248-796 0-503 248-796 249-292 674-292t673 292q248 293 248 796 0 506-248 796-248 291-673 291zm1253 1979v-575q-238 112-480 171-242 60-480 60-625 0-955-422-329-422-376-1275 184 272 462 417 279 145 613 145 703 0 1111-427 408-426 408-1160 0-719-425-1154Q2819-91 2113-91q-810 0-1238 620-428 621-428 1799 0 1106 525 1764t1409 658q238 0 480-47t505-140z" transform="scale(.01563)"/></defs><use xlink:href="#DejaVuSans-32"/><use xlink:href="#DejaVuSans-30" x="63.623"/><use xlink:href="#DejaVuSans-31" x="127.246"/><use xlink:href="#DejaVuSans-36" x="190.869"/></g></g><g id="xtick_4"><use xlink:href="#mb6ddc1f8b7" x="317.329" y="296.672" style="fill:#b0b0b0;stroke:#b0b0b0;stroke-width:.4" id="line2d_4"/><g style="fill:#b0b0b0" transform="matrix(.14 0 0 -.14 299.514 314.31)" id="text_4"><defs><path id="DejaVuSans-38" d="M2034 2216q-450 0-708-241-257-241-257-662 0-422 257-663 258-241 708-241t709 242q260 243 260 662 0 421-258 662-257 241-711 241zm-631 268q-406 100-633 378-226 279-226 679 0 559 398 884 399 325 1092 325 697 0 1094-325t397-884q0-400-227-679-226-278-629-378 456-106 710-416 255-309 255-755 0-679-414-1042Q2806-91 2034-91q-771 0-1186 362-414 363-414 1042 0 446 256 755 257 310 713 416zm-231 997q0-362 226-565 227-203 636-203 407 0 636 203 230 203 230 565 0 363-230 566-229 203-636 203-409 0-636-203-226-203-226-566z" transform="scale(.01563)"/></defs><use xlink:href="#DejaVuSans-32"/><use xlink:href="#DejaVuSans-30" x="63.623"/><use xlink:href="#DejaVuSans-31" x="127.246"/><use xlink:href="#DejaVuSans-38" x="190.869"/></g></g><g id="xtick_5"><use xlink:href="#mb6ddc1f8b7" x="376.39" y="296.672" style="fill:#b0b0b0;stroke:#b0b0b0;stroke-width:.4" id="line2d_5"/><g style="fill:#b0b0b0" transform="matrix(.14 0 0 -.14 358.575 314.31)" id="text_5"><use xlink:href="#DejaVuSans-32"/><use xlink:href="#DejaVuSans-30" x="63.623"/><use xlink:href="#DejaVuSans-32" x="127.246"/><use xlink:href="#DejaVuSans-30" x="190.869"/></g></g><g id="xtick_6"><use xlink:href="#mb6ddc1f8b7" x="435.533" y="296.672" style="fill:#b0b0b0;stroke:#b0b0b0;stroke-width:.4" id="line2d_6"/><g style="fill:#b0b0b0" transform="matrix(.14 0 0 -.14 417.718 314.31)" id="text_6"><use xlink:href="#DejaVuSans-32"/><use xlink:href="#DejaVuSans-30" x="63.623"/><use xlink:href="#DejaVuSans-32" x="127.246"/><use xlink:href="#DejaVuSans-32" x="190.869"/></g></g></g><g id="matplotlib.axis_2"><g id="ytick_1"><path d="M98.073 296.672h357.12" clip-path="url(#pcfdbba0c96)" style="fill:none;stroke:#b0b0b0;stroke-width:.3;stroke-linecap:square" id="line2d_7"/><g id="line2d_8"><defs><path id="mf322b8b167" d="M0 0h-3.5" style="stroke:#b0b0b0;stroke-width:.3"/></defs><use xlink:href="#mf322b8b167" x="98.073" y="296.672" style="fill:#b0b0b0;stroke:#b0b0b0;stroke-width:.3"/></g><use xlink:href="#DejaVuSans-30" style="fill:#b0b0b0" transform="matrix(.14 0 0 -.14 82.166 301.991)" id="text_7"/></g><g id="ytick_2"><path d="M98.073 265.508h357.12" clip-path="url(#pcfdbba0c96)" style="fill:none;stroke:#b0b0b0;stroke-width:.3;stroke-linecap:square" id="line2d_9"/><use xlink:href="#mf322b8b167" x="98.073" y="265.508" style="fill:#b0b0b0;stroke:#b0b0b0;stroke-width:.3" id="line2d_10"/><g style="fill:#b0b0b0" transform="matrix(.14 0 0 -.14 46.536 270.827)" id="text_8"><use xlink:href="#DejaVuSans-32"/><use xlink:href="#DejaVuSans-30" x="63.623"/><use xlink:href="#DejaVuSans-30" x="127.246"/><use xlink:href="#DejaVuSans-30" x="190.869"/><use xlink:href="#DejaVuSans-30" x="254.492"/></g></g><g id="ytick_3"><path d="M98.073 234.344h357.12" clip-path="url(#pcfdbba0c96)" style="fill:none;stroke:#b0b0b0;stroke-width:.3;stroke-linecap:square" id="line2d_11"/><use xlink:href="#mf322b8b167" x="98.073" y="234.344" style="fill:#b0b0b0;stroke:#b0b0b0;stroke-width:.3" id="line2d_12"/><g style="fill:#b0b0b0" transform="matrix(.14 0 0 -.14 46.536 239.663)" id="text_9"><use xlink:href="#DejaVuSans-34"/><use xlink:href="#DejaVuSans-30" x="63.623"/><use xlink:href="#DejaVuSans-30" x="127.246"/><use xlink:href="#DejaVuSans-30" x="190.869"/><use xlink:href="#DejaVuSans-30" x="254.492"/></g></g><g id="ytick_4"><path d="M98.073 203.18h357.12" clip-path="url(#pcfdbba0c96)" style="fill:none;stroke:#b0b0b0;stroke-width:.3;stroke-linecap:square" id="line2d_13"/><use xlink:href="#mf322b8b167" x="98.073" y="203.18" style="fill:#b0b0b0;stroke:#b0b0b0;stroke-width:.3" id="line2d_14"/><g style="fill:#b0b0b0" transform="matrix(.14 0 0 -.14 46.536 208.5)" id="text_10"><use xlink:href="#DejaVuSans-36"/><use xlink:href="#DejaVuSans-30" x="63.623"/><use xlink:href="#DejaVuSans-30" x="127.246"/><use xlink:href="#DejaVuSans-30" x="190.869"/><use xlink:href="#DejaVuSans-30" x="254.492"/></g></g><g id="ytick_5"><path d="M98.073 172.016h357.12" clip-path="url(#pcfdbba0c96)" style="fill:none;stroke:#b0b0b0;stroke-width:.3;stroke-linecap:square" id="line2d_15"/><use xlink:href="#mf322b8b167" x="98.073" y="172.016" style="fill:#b0b0b0;stroke:#b0b0b0;stroke-width:.3" id="line2d_16"/><g style="fill:#b0b0b0" transform="matrix(.14 0 0 -.14 46.536 177.335)" id="text_11"><use xlink:href="#DejaVuSans-38"/><use xlink:href="#DejaVuSans-30" x="63.623"/><use xlink:href="#DejaVuSans-30" x="127.246"/><use xlink:href="#DejaVuSans-30" x="190.869"/><use xlink:href="#DejaVuSans-30" x="254.492"/></g></g><g id="ytick_6"><path d="M98.073 140.852h357.12" clip-path="url(#pcfdbba0c96)" style="fill:none;stroke:#b0b0b0;stroke-width:.3;stroke-linecap:square" id="line2d_17"/><use xlink:href="#mf322b8b167" x="98.073" y="140.852" style="fill:#b0b0b0;stroke:#b0b0b0;stroke-width:.3" id="line2d_18"/><g style="fill:#b0b0b0" transform="matrix(.14 0 0 -.14 37.628 146.171)" id="text_12"><use xlink:href="#DejaVuSans-31"/><use xlink:href="#DejaVuSans-30" x="63.623"/><use xlink:href="#DejaVuSans-30" x="127.246"/><use xlink:href="#DejaVuSans-30" x="190.869"/><use xlink:href="#DejaVuSans-30" x="254.492"/><use xlink:href="#DejaVuSans-30" x="318.115"/></g></g><g id="ytick_7"><path d="M98.073 109.688h357.12" clip-path="url(#pcfdbba0c96)" style="fill:none;stroke:#b0b0b0;stroke-width:.3;stroke-linecap:square" id="line2d_19"/><use xlink:href="#mf322b8b167" x="98.073" y="109.688" style="fill:#b0b0b0;stroke:#b0b0b0;stroke-width:.3" id="line2d_20"/><g style="fill:#b0b0b0" transform="matrix(.14 0 0 -.14 37.628 115.007)" id="text_13"><use xlink:href="#DejaVuSans-31"/><use xlink:href="#DejaVuSans-32" x="63.623"/><use xlink:href="#DejaVuSans-30" x="127.246"/><use xlink:href="#DejaVuSans-30" x="190.869"/><use xlink:href="#DejaVuSans-30" x="254.492"/><use xlink:href="#DejaVuSans-30" x="318.115"/></g></g><g id="ytick_8"><path d="M98.073 78.525h357.12" clip-path="url(#pcfdbba0c96)" style="fill:none;stroke:#b0b0b0;stroke-width:.3;stroke-linecap:square" id="line2d_21"/><use xlink:href="#mf322b8b167" x="98.073" y="78.525" style="fill:#b0b0b0;stroke:#b0b0b0;stroke-width:.3" id="line2d_22"/><g style="fill:#b0b0b0" transform="matrix(.14 0 0 -.14 37.628 83.843)" id="text_14"><use xlink:href="#DejaVuSans-31"/><use xlink:href="#DejaVuSans-34" x="63.623"/><use xlink:href="#DejaVuSans-30" x="127.246"/><use xlink:href="#DejaVuSans-30" x="190.869"/><use xlink:href="#DejaVuSans-30" x="254.492"/><use xlink:href="#DejaVuSans-30" x="318.115"/></g></g><g id="ytick_9"><path d="M98.073 47.36h357.12" clip-path="url(#pcfdbba0c96)" style="fill:none;stroke:#b0b0b0;stroke-width:.3;stroke-linecap:square" id="line2d_23"/><use xlink:href="#mf322b8b167" x="98.073" y="47.361" style="fill:#b0b0b0;stroke:#b0b0b0;stroke-width:.3" id="line2d_24"/><g style="fill:#b0b0b0" transform="matrix(.14 0 0 -.14 37.628 52.68)" id="text_15"><use xlink:href="#DejaVuSans-31"/><use xlink:href="#DejaVuSans-36" x="63.623"/><use xlink:href="#DejaVuSans-30" x="127.246"/><use xlink:href="#DejaVuSans-30" x="190.869"/><use xlink:href="#DejaVuSans-30" x="254.492"/><use xlink:href="#DejaVuSans-30" x="318.115"/></g></g><g style="fill:#b0b0b0" transform="matrix(.14 0 0 -.14 7.2 17.838)" id="text_16"><defs><path id="DejaVuSans-47" d="M3809 666v1253H2778v519h1656V434q-365-259-806-392-440-133-940-133-1094 0-1712 639-617 640-617 1780 0 1144 617 1783 618 639 1712 639 456 0 867-113 411-112 758-331v-672q-350 297-744 447t-828 150q-857 0-1287-478-429-478-429-1425 0-944 429-1422 430-478 1287-478 334 0 596 58 263 58 472 180z" transform="scale(.01563)"/><path id="DejaVuSans-69" d="M603 3500h575V0H603v3500zm0 1363h575v-729H603v729z" transform="scale(.01563)"/><path id="DejaVuSans-74" d="M1172 4494v-994h1184v-447H1172V1153q0-428 117-550t477-122h590V0h-590q-666 0-919 248-253 249-253 905v1900H172v447h422v994h578z" transform="scale(.01563)"/><path id="DejaVuSans-48" d="M628 4666h631V2753h2294v1913h631V0h-631v2222H1259V0H628v4666z" transform="scale(.01563)"/><path id="DejaVuSans-75" d="M544 1381v2119h575V1403q0-497 193-746 194-248 582-248 465 0 735 297 271 297 271 810v1984h575V0h-575v538q-209-319-486-474-276-155-642-155-603 0-916 375-312 375-312 1097zm1447 2203z" transform="scale(.01563)"/><path id="DejaVuSans-62" d="M3116 1747q0 634-261 995t-717 361q-457 0-718-361t-261-995q0-634 261-995t718-361q456 0 717 361t261 995zM1159 2969q182 312 458 463 277 152 661 152 638 0 1036-506 399-506 399-1331T3314 415Q2916-91 2278-91q-384 0-661 152-276 152-458 464V0H581v4863h578V2969z" transform="scale(.01563)"/><path id="DejaVuSans-73" d="M2834 3397v-544q-243 125-506 187-262 63-544 63-428 0-642-131t-214-394q0-200 153-314t616-217l197-44q612-131 870-370t258-667q0-488-386-773Q2250-91 1575-91q-281 0-586 55T347 128v594q319-166 628-249 309-82 613-82 406 0 624 139 219 139 219 392 0 234-158 359-157 125-692 241l-200 47q-534 112-772 345-237 233-237 639 0 494 350 762 350 269 994 269 318 0 599-47 282-46 519-140z" transform="scale(.01563)"/><path id="DejaVuSans-61" d="M2194 1759q-697 0-966-159t-269-544q0-306 202-486 202-179 548-179 479 0 768 339t289 901v128h-572zm1147 238V0h-575v531q-197-318-491-470T1556-91q-537 0-855 302-317 302-317 808 0 590 395 890 396 300 1180 300h807v57q0 397-261 614t-733 217q-300 0-585-72-284-72-546-216v532q315 122 612 182 297 61 578 61 760 0 1135-394 375-393 375-1193z" transform="scale(.01563)"/><path id="DejaVuSans-72" d="M2631 2963q-97 56-211 82-114 27-251 27-488 0-749-317t-261-911V0H581v3500h578v-544q182 319 472 473 291 155 707 155 59 0 131-8 72-7 159-23l3-590z" transform="scale(.01563)"/></defs><use xlink:href="#DejaVuSans-47"/><use xlink:href="#DejaVuSans-69" x="77.49"/><use xlink:href="#DejaVuSans-74" x="105.273"/><use xlink:href="#DejaVuSans-48" x="144.482"/><use xlink:href="#DejaVuSans-75" x="219.678"/><use xlink:href="#DejaVuSans-62" x="283.057"/><use xlink:href="#DejaVuSans-20" x="346.533"/><use xlink:href="#DejaVuSans-73" x="378.32"/><use xlink:href="#DejaVuSans-74" x="430.42"/><use xlink:href="#DejaVuSans-61" x="469.629"/><use xlink:href="#DejaVuSans-72" x="530.908"/><use xlink:href="#DejaVuSans-73" x="572.021"/></g></g><path d="m127.604 296.672 2.508-.2 54.126-.19 24.596-.403 14.886-.382 17.153-.935 14.805-1.305 7.363-.798 4.935-.828 7.444-.829 4.935-.601 9.951-1.36 7.2-.965 9.952-1.024 2.428-.187 2.508-.363 4.935-.473 7.282-.895 7.362-.466 19.66-.746 19.822-.622 41.829-.983 41.91-.631h0" clip-path="url(#pcfdbba0c96)" style="fill:none;stroke:#7f7f7f;stroke-width:1.5;stroke-linecap:square" id="line2d_25"/><path d="m240.873 296.672 2.427-.005 2.508-.003 2.508-.012 2.427-.396 2.508-.552 2.427-1.075 2.509-.816 2.508-.54 2.346-.342 2.508-.447 2.427-.625 2.508-.494 2.427-.485 2.509-.51 2.508-.464 2.427-.537 2.508-.59 2.427-1.451 2.508-.979 2.508-.714 2.266-1.039 2.508-.657 2.427-.635 2.508-.606 2.427-.562 2.508-.583 2.508-.51 2.428-.654 2.508-.718 2.427-.608 2.508-.566 2.508-.534 2.265-.42 2.509-.57 2.427-.456 2.508-.413 2.427-.39 2.508-.668 2.508-.61 2.427-.334 2.508-.346 2.428-.328 2.508-.395 2.508-.57 2.265-.242 2.508-.363 2.427-.3 2.509-.442 2.427-.338 2.508-.329 2.508-.296 2.427-.329 2.508-.279 2.427-.238 2.508-.238 2.509-.21 2.346-.174 2.508-.173 2.427-.207 2.508-.198 2.427-.174 2.509-.142 2.508-.13 2.427-.143 2.508-.118 2.427-.128 2.508-.123 2.508-.118 2.266-.097 2.508-.15 2.427-.127 2.508-.105 2.427-.118 2.508-.1 2.508-.101 2.428-.105 2.508-.101 2.427-.098 2.508-.095 2.508-.08 2.265-.08 2.508-.133 2.428-.084 2.508-.074 2.427-.063 2.508-.078 2.508-.07" clip-path="url(#pcfdbba0c96)" style="fill:none;stroke:#e377c2;stroke-width:1.5;stroke-linecap:square" id="line2d_26"/><path d="m307.458 296.672 2.428-2.48 2.508-.412 2.427-.413 2.508-.422 2.508-.563 2.265-.634 2.509-.665 2.427-.645 2.508-1.183 2.427-.762 2.508-.846 2.508-1.102 2.427-1.06 2.508-2.333 2.428-1.18 2.508-1.049 2.508-1.377 2.265-.96 2.508-.911 2.427-.864 2.509-.796 2.427-.76 2.508-.77 2.508-.684 2.427-.701 2.508-.647 2.427-.686 2.508-.46 2.509-.364 2.346-.419 2.508-.441 2.427-.407 2.508-.445 2.427-.407 2.509-.424 2.508-1.126 2.427-.58 2.508-.37 2.427-.356 2.508-.393 2.508-.285 2.266-.291 2.508-.262 2.427-.28 2.508-.281 2.427-.27 2.508-.275 2.508-.278 2.428-.238 2.508-.167 2.427-.207 2.508-.206 2.508-.215 2.265-.202 2.508-.248 2.428-.206 2.508-.243 2.427-.234 2.508-.23 2.508-.226" clip-path="url(#pcfdbba0c96)" style="fill:none;stroke:#8c564b;stroke-width:1.5;stroke-linecap:square" id="line2d_27"/><g style="fill:#1f77b4" transform="matrix(.14 0 0 -.14 465.907 34.423)" id="text_17"><defs><path id="DejaVuSans-65" d="M3597 1894v-281H953q38-594 358-905t892-311q331 0 642 81t618 244V178Q3153 47 2828-22t-659-69q-838 0-1327 487-489 488-489 1320 0 859 464 1363 464 505 1252 505 706 0 1117-455 411-454 411-1235zm-575 169q-6 471-264 752-258 282-683 282-481 0-770-272t-333-766l2050 4z" transform="scale(.01563)"/><path id="DejaVuSans-6e" d="M3513 2113V0h-575v2094q0 497-194 743-194 247-581 247-466 0-735-297-269-296-269-809V0H581v3500h578v-544q207 316 486 472 280 156 646 156 603 0 912-373 310-373 310-1098z" transform="scale(.01563)"/><path id="DejaVuSans-6f" d="M1959 3097q-462 0-731-361t-269-989q0-628 267-989 268-361 733-361 460 0 728 362 269 363 269 988 0 622-269 986-268 364-728 364zm0 487q750 0 1178-488 429-487 429-1349 0-859-429-1349Q2709-91 1959-91q-753 0-1180 489-426 490-426 1349 0 862 426 1349 427 488 1180 488z" transform="scale(.01563)"/><path id="DejaVuSans-66" d="M2375 4863v-479h-550q-309 0-430-125-120-125-120-450v-309h947v-447h-947V0H697v3053H147v447h550v244q0 584 272 851 272 268 862 268h544z" transform="scale(.01563)"/><path id="DejaVuSans-6c" d="M603 4863h575V0H603v4863z" transform="scale(.01563)"/><path id="DejaVuSans-77" d="M269 3500h575l719-2731 715 2731h678l719-2731 716 2731h575L4050 0h-678l-753 2869L1863 0h-679L269 3500z" transform="scale(.01563)"/><path id="DejaVuSans-2f" d="M1625 4666h531L531-594H0l1625 5260z" transform="scale(.01563)"/></defs><use xlink:href="#DejaVuSans-74"/><use xlink:href="#DejaVuSans-65" x="39.209"/><use xlink:href="#DejaVuSans-6e" x="100.732"/><use xlink:href="#DejaVuSans-73" x="164.111"/><use xlink:href="#DejaVuSans-6f" x="216.211"/><use xlink:href="#DejaVuSans-72" x="277.393"/><use xlink:href="#DejaVuSans-66" x="318.506"/><use xlink:href="#DejaVuSans-6c" x="353.711"/><use xlink:href="#DejaVuSans-6f" x="381.494"/><use xlink:href="#DejaVuSans-77" x="442.676"/><use xlink:href="#DejaVuSans-2f" x="524.463"/><use xlink:href="#DejaVuSans-74" x="558.154"/><use xlink:href="#DejaVuSans-65" x="597.363"/><use xlink:href="#DejaVuSans-6e" x="658.887"/><use xlink:href="#DejaVuSans-73" x="722.266"/><use xlink:href="#DejaVuSans-6f" x="774.365"/><use xlink:href="#DejaVuSans-72" x="835.547"/><use xlink:href="#DejaVuSans-66" x="876.66"/><use xlink:href="#DejaVuSans-6c" x="911.865"/><use xlink:href="#DejaVuSans-6f" x="939.648"/><use xlink:href="#DejaVuSans-77" x="1000.83"/></g><g style="fill:#ff7f0e" transform="matrix(.14 0 0 -.14 465.907 198.79)" id="text_18"><defs><path id="DejaVuSans-70" d="M1159 525v-1856H581v4831h578v-531q182 312 458 463 277 152 661 152 638 0 1036-506 399-506 399-1331T3314 415Q2916-91 2278-91q-384 0-661 152-276 152-458 464zm1957 1222q0 634-261 995t-717 361q-457 0-718-361t-261-995q0-634 261-995t718-361q456 0 717 361t261 995z" transform="scale(.01563)"/><path id="DejaVuSans-79" d="M2059-325q-243-625-475-815-231-191-618-191H506v481h338q237 0 368 113 132 112 291 531l103 262L191 3500h609L1894 763l1094 2737h609L2059-325z" transform="scale(.01563)"/><path id="DejaVuSans-63" d="M3122 3366v-538q-244 135-489 202t-495 67q-560 0-870-355-309-354-309-995t309-996q310-354 870-354 250 0 495 67t489 202V134Q2881 22 2623-34q-257-57-548-57-791 0-1257 497-465 497-465 1341 0 856 470 1346 471 491 1290 491 265 0 518-55 253-54 491-163z" transform="scale(.01563)"/><path id="DejaVuSans-68" d="M3513 2113V0h-575v2094q0 497-194 743-194 247-581 247-466 0-735-297-269-296-269-809V0H581v4863h578V2956q207 316 486 472 280 156 646 156 603 0 912-373 310-373 310-1098z" transform="scale(.01563)"/></defs><use xlink:href="#DejaVuSans-70"/><use xlink:href="#DejaVuSans-79" x="63.477"/><use xlink:href="#DejaVuSans-74" x="122.656"/><use xlink:href="#DejaVuSans-6f" x="161.865"/><use xlink:href="#DejaVuSans-72" x="223.047"/><use xlink:href="#DejaVuSans-63" x="261.91"/><use xlink:href="#DejaVuSans-68" x="316.891"/><use xlink:href="#DejaVuSans-2f" x="380.27"/><use xlink:href="#DejaVuSans-70" x="413.961"/><use xlink:href="#DejaVuSans-79" x="477.438"/><use xlink:href="#DejaVuSans-74" x="536.617"/><use xlink:href="#DejaVuSans-6f" x="575.826"/><use xlink:href="#DejaVuSans-72" x="637.008"/><use xlink:href="#DejaVuSans-63" x="675.871"/><use xlink:href="#DejaVuSans-68" x="730.852"/></g><g style="fill:#2ca02c" transform="matrix(.14 0 0 -.14 465.907 212.79)" id="text_19"><defs><path id="DejaVuSans-6b" d="M581 4863h578V1991l1716 1509h734L1753 1863 3688 0h-750L1159 1709V0H581v4863z" transform="scale(.01563)"/><path id="DejaVuSans-2d" d="M313 2009h1684v-512H313v512z" transform="scale(.01563)"/><path id="DejaVuSans-6d" d="M3328 2828q216 388 516 572t706 184q547 0 844-383 297-382 297-1088V0h-578v2094q0 503-179 746-178 244-543 244-447 0-707-297-259-296-259-809V0h-578v2094q0 506-178 748t-550 242q-441 0-701-298-259-298-259-808V0H581v3500h578v-544q197 322 472 475t653 153q382 0 649-194 267-193 395-562z" transform="scale(.01563)"/></defs><use xlink:href="#DejaVuSans-6b"/><use xlink:href="#DejaVuSans-65" x="54.285"/><use xlink:href="#DejaVuSans-72" x="115.809"/><use xlink:href="#DejaVuSans-61" x="156.922"/><use xlink:href="#DejaVuSans-73" x="218.201"/><use xlink:href="#DejaVuSans-2d" x="270.301"/><use xlink:href="#DejaVuSans-74" x="306.385"/><use xlink:href="#DejaVuSans-65" x="345.594"/><use xlink:href="#DejaVuSans-61" x="407.117"/><use xlink:href="#DejaVuSans-6d" x="468.396"/><use xlink:href="#DejaVuSans-2f" x="565.809"/><use xlink:href="#DejaVuSans-6b" x="599.5"/><use xlink:href="#DejaVuSans-65" x="653.785"/><use xlink:href="#DejaVuSans-72" x="715.309"/><use xlink:href="#DejaVuSans-61" x="756.422"/><use xlink:href="#DejaVuSans-73" x="817.701"/></g><g style="fill:#d62728" transform="matrix(.14 0 0 -.14 465.907 226.79)" id="text_20"><use xlink:href="#DejaVuSans-73"/><use xlink:href="#DejaVuSans-63" x="52.1"/><use xlink:href="#DejaVuSans-69" x="107.08"/><use xlink:href="#DejaVuSans-6b" x="134.863"/><use xlink:href="#DejaVuSans-69" x="192.773"/><use xlink:href="#DejaVuSans-74" x="220.557"/><use xlink:href="#DejaVuSans-2d" x="259.766"/><use xlink:href="#DejaVuSans-6c" x="295.85"/><use xlink:href="#DejaVuSans-65" x="323.633"/><use xlink:href="#DejaVuSans-61" x="385.156"/><use xlink:href="#DejaVuSans-72" x="446.436"/><use xlink:href="#DejaVuSans-6e" x="485.799"/><use xlink:href="#DejaVuSans-2f" x="549.178"/><use xlink:href="#DejaVuSans-73" x="582.869"/><use xlink:href="#DejaVuSans-63" x="634.969"/><use xlink:href="#DejaVuSans-69" x="689.949"/><use xlink:href="#DejaVuSans-6b" x="717.732"/><use xlink:href="#DejaVuSans-69" x="775.643"/><use xlink:href="#DejaVuSans-74" x="803.426"/><use xlink:href="#DejaVuSans-2d" x="842.635"/><use xlink:href="#DejaVuSans-6c" x="878.719"/><use xlink:href="#DejaVuSans-65" x="906.502"/><use xlink:href="#DejaVuSans-61" x="968.025"/><use xlink:href="#DejaVuSans-72" x="1029.305"/><use xlink:href="#DejaVuSans-6e" x="1068.668"/></g><g style="fill:#9467bd" transform="matrix(.14 0 0 -.14 465.907 245.909)" id="text_21"><defs><path id="DejaVuSans-42" d="M1259 2228V519h1013q509 0 754 211 246 211 246 645 0 438-246 645-245 208-754 208H1259zm0 1919V2741h935q462 0 688 173 227 174 227 530 0 353-227 528-226 175-688 175h-935zm-631 519h1613q722 0 1112-300 391-300 391-853 0-429-200-682t-588-315q466-100 724-418 258-317 258-792 0-625-425-966Q3088 0 2303 0H628v4666z" transform="scale(.01563)"/><path id="DejaVuSans-56" d="M1831 0 50 4666h659L2188 738l1481 3928h656L2547 0h-716z" transform="scale(.01563)"/><path id="DejaVuSans-4c" d="M628 4666h631V531h2272V0H628v4666z" transform="scale(.01563)"/><path id="DejaVuSans-43" d="M4122 4306v-665q-319 297-680 443-361 147-767 147-800 0-1225-489t-425-1414q0-922 425-1411t1225-489q406 0 767 147t680 444V359q-331-225-702-338-370-112-782-112-1060 0-1670 648-609 649-609 1771 0 1125 609 1773 610 649 1670 649 418 0 788-111 371-111 696-333z" transform="scale(.01563)"/></defs><use xlink:href="#DejaVuSans-42"/><use xlink:href="#DejaVuSans-56" x="65.479"/><use xlink:href="#DejaVuSans-4c" x="133.887"/><use xlink:href="#DejaVuSans-43" x="189.6"/><use xlink:href="#DejaVuSans-2f" x="259.424"/><use xlink:href="#DejaVuSans-63" x="293.115"/><use xlink:href="#DejaVuSans-61" x="348.096"/><use xlink:href="#DejaVuSans-66" x="409.375"/><use xlink:href="#DejaVuSans-66" x="444.58"/><use xlink:href="#DejaVuSans-65" x="479.785"/></g><g style="fill:#8c564b" transform="matrix(.14 0 0 -.14 465.907 259.909)" id="text_22"><use xlink:href="#DejaVuSans-66"/><use xlink:href="#DejaVuSans-61" x="35.205"/><use xlink:href="#DejaVuSans-73" x="96.484"/><use xlink:href="#DejaVuSans-74" x="148.584"/><use xlink:href="#DejaVuSans-61" x="187.793"/><use xlink:href="#DejaVuSans-69" x="249.072"/><use xlink:href="#DejaVuSans-2f" x="276.855"/><use xlink:href="#DejaVuSans-66" x="310.547"/><use xlink:href="#DejaVuSans-61" x="345.752"/><use xlink:href="#DejaVuSans-73" x="407.031"/><use xlink:href="#DejaVuSans-74" x="459.131"/><use xlink:href="#DejaVuSans-61" x="498.34"/><use xlink:href="#DejaVuSans-69" x="559.619"/></g><g style="fill:#e377c2" transform="matrix(.14 0 0 -.14 465.907 273.909)" id="text_23"><defs><path id="DejaVuSans-78" d="M3513 3500 2247 1797 3578 0h-678L1881 1375 863 0H184l1360 1831L300 3500h678l928-1247 928 1247h679z" transform="scale(.01563)"/></defs><use xlink:href="#DejaVuSans-61"/><use xlink:href="#DejaVuSans-70" x="61.279"/><use xlink:href="#DejaVuSans-61" x="124.756"/><use xlink:href="#DejaVuSans-63" x="186.035"/><use xlink:href="#DejaVuSans-68" x="241.016"/><use xlink:href="#DejaVuSans-65" x="304.395"/><use xlink:href="#DejaVuSans-2f" x="365.918"/><use xlink:href="#DejaVuSans-69" x="399.609"/><use xlink:href="#DejaVuSans-6e" x="427.393"/><use xlink:href="#DejaVuSans-63" x="490.771"/><use xlink:href="#DejaVuSans-75" x="545.752"/><use xlink:href="#DejaVuSans-62" x="609.131"/><use xlink:href="#DejaVuSans-61" x="672.607"/><use xlink:href="#DejaVuSans-74" x="733.887"/><use xlink:href="#DejaVuSans-6f" x="773.096"/><use xlink:href="#DejaVuSans-72" x="834.277"/><use xlink:href="#DejaVuSans-2d" x="869.016"/><use xlink:href="#DejaVuSans-6d" x="905.1"/><use xlink:href="#DejaVuSans-78" x="1002.512"/><use xlink:href="#DejaVuSans-6e" x="1061.691"/><use xlink:href="#DejaVuSans-65" x="1125.07"/><use xlink:href="#DejaVuSans-74" x="1186.594"/></g><g style="fill:#7f7f7f" transform="matrix(.14 0 0 -.14 465.907 287.909)" id="text_24"><defs><path id="DejaVuSans-54" d="M-19 4666h3947v-532H2272V0h-634v4134H-19v532z" transform="scale(.01563)"/></defs><use xlink:href="#DejaVuSans-54"/><use xlink:href="#DejaVuSans-68" x="61.084"/><use xlink:href="#DejaVuSans-65" x="124.463"/><use xlink:href="#DejaVuSans-61" x="185.986"/><use xlink:href="#DejaVuSans-6e" x="247.266"/><use xlink:href="#DejaVuSans-6f" x="310.645"/><use xlink:href="#DejaVuSans-2f" x="371.826"/><use xlink:href="#DejaVuSans-54" x="405.518"/><use xlink:href="#DejaVuSans-68" x="466.602"/><use xlink:href="#DejaVuSans-65" x="529.98"/><use xlink:href="#DejaVuSans-61" x="591.504"/><use xlink:href="#DejaVuSans-6e" x="652.783"/><use xlink:href="#DejaVuSans-6f" x="716.162"/></g><g style="fill:#b0b0b0" transform="matrix(.09716 0 0 -.09716 98.073 330.708)" id="text_25"><defs><path id="DejaVuSans-40" d="M2381 1678q0-447 222-702 222-254 610-254 384 0 604 256 221 256 221 700 0 438-225 695-225 258-607 258-378 0-602-256-223-256-223-697zm1703-934q-187-241-429-355t-564-114q-538 0-874 389t-336 1014q0 625 337 1015 338 391 873 391 322 0 565-117 244-117 428-354v409h447V722q457 69 714 417 258 349 258 902 0 334-99 628-98 294-298 544-325 409-792 626t-1017 217q-384 0-738-102-353-101-653-301-490-319-767-836-276-517-276-1120 0-497 179-932 180-434 521-765 328-325 759-495 431-171 922-171 403 0 792 136t714 389l281-347q-390-303-851-464t-936-161q-578 0-1091 205-512 205-912 595Q841 78 631 592q-209 514-209 1105 0 569 212 1084 213 516 607 907 403 396 931 607t1119 211q662 0 1229-272 568-271 952-771 234-307 357-666 124-359 124-744 0-822-497-1297T4084 263v481z" transform="scale(.01563)"/><path id="DejaVuSans-67" d="M2906 1791q0 625-258 968-257 344-723 344-462 0-720-344-258-343-258-968 0-622 258-966t720-344q466 0 723 344 258 344 258 966zm575-1357q0-893-397-1329-396-436-1215-436-303 0-572 45t-522 139v559q253-137 500-202 247-66 503-66 566 0 847 295t281 892v285q-178-310-456-463T1784 0Q1141 0 747 490 353 981 353 1791q0 812 394 1302 394 491 1037 491 388 0 666-153t456-462v531h575V434z" transform="scale(.01563)"/><path id="DejaVuSans-64" d="M2906 2969v1894h575V0h-575v525q-181-312-458-464-276-152-664-152-634 0-1033 506-398 507-398 1332t398 1331q399 506 1033 506 388 0 664-152 277-151 458-463zM947 1747q0-634 261-995t717-361q456 0 718 361 263 361 263 995t-263 995q-262 361-718 361t-717-361q-261-361-261-995z" transform="scale(.01563)"/><path id="DejaVuSans-7c" d="M1344 4891v-6400H813v6400h531z" transform="scale(.01563)"/><path id="DejaVuSans-4e" d="M628 4666h850L3547 763v3903h612V0h-850L1241 3903V0H628v4666z" transform="scale(.01563)"/><path id="DejaVuSans-53" d="M3425 4513v-616q-359 172-678 256-319 85-616 85-515 0-795-200t-280-569q0-310 186-468 186-157 705-254l381-78q706-135 1042-474t336-907q0-679-455-1029Q2797-91 1919-91q-331 0-705 75-373 75-773 222v650q384-215 753-325 369-109 725-109 540 0 834 212 294 213 294 607 0 343-211 537t-692 291l-385 75q-706 140-1022 440-315 300-315 835 0 619 436 975t1201 356q329 0 669-60 341-59 697-177z" transform="scale(.01563)"/><path id="DejaVuSans-f6" d="M1959 3097q-462 0-731-361t-269-989q0-628 267-989 268-361 733-361 460 0 728 362 269 363 269 988 0 622-269 986-268 364-728 364zm0 487q750 0 1178-488 429-487 429-1349 0-859-429-1349Q2709-91 1959-91q-753 0-1180 489-426 490-426 1349 0 862 426 1349 427 488 1180 488zm295 1266h634v-631h-634v631zm-1222 0h634v-631h-634v631z" transform="scale(.01563)"/><path id="DejaVuSans-59" d="M-13 4666h679l1293-1919 1285 1919h678L2272 2222V0h-634v2222L-13 4666z" transform="scale(.01563)"/></defs><use xlink:href="#DejaVuSans-40"/><use xlink:href="#DejaVuSans-6e" x="100"/><use xlink:href="#DejaVuSans-73" x="163.379"/><use xlink:href="#DejaVuSans-63" x="215.479"/><use xlink:href="#DejaVuSans-68" x="270.459"/><use xlink:href="#DejaVuSans-6c" x="333.838"/><use xlink:href="#DejaVuSans-6f" x="361.621"/><use xlink:href="#DejaVuSans-65" x="422.803"/><use xlink:href="#DejaVuSans-20" x="484.326"/><use xlink:href="#DejaVuSans-2f" x="516.113"/><use xlink:href="#DejaVuSans-20" x="549.805"/><use xlink:href="#DejaVuSans-67" x="581.592"/><use xlink:href="#DejaVuSans-69" x="645.068"/><use xlink:href="#DejaVuSans-74" x="672.852"/><use xlink:href="#DejaVuSans-68" x="712.061"/><use xlink:href="#DejaVuSans-75" x="775.439"/><use xlink:href="#DejaVuSans-62" x="838.818"/><use xlink:href="#DejaVuSans-2d" x="902.295"/><use xlink:href="#DejaVuSans-74" x="938.379"/><use xlink:href="#DejaVuSans-72" x="977.588"/><use xlink:href="#DejaVuSans-65" x="1016.451"/><use xlink:href="#DejaVuSans-6e" x="1077.975"/><use xlink:href="#DejaVuSans-64" x="1141.354"/><use xlink:href="#DejaVuSans-73" x="1204.83"/><use xlink:href="#DejaVuSans-20" x="1256.93"/><use xlink:href="#DejaVuSans-7c" x="1288.717"/><use xlink:href="#DejaVuSans-20" x="1322.408"/><use xlink:href="#DejaVuSans-4e" x="1354.195"/><use xlink:href="#DejaVuSans-69" x="1429"/><use xlink:href="#DejaVuSans-63" x="1456.783"/><use xlink:href="#DejaVuSans-6f" x="1511.764"/><use xlink:href="#DejaVuSans-20" x="1572.945"/><use xlink:href="#DejaVuSans-53" x="1604.732"/><use xlink:href="#DejaVuSans-63" x="1668.209"/><use xlink:href="#DejaVuSans-68" x="1723.189"/><use xlink:href="#DejaVuSans-6c" x="1786.568"/><use xlink:href="#DejaVuSans-f6" x="1814.352"/><use xlink:href="#DejaVuSans-6d" x="1875.533"/><use xlink:href="#DejaVuSans-65" x="1972.945"/><use xlink:href="#DejaVuSans-72" x="2034.469"/><use xlink:href="#DejaVuSans-20" x="2075.582"/><use xlink:href="#DejaVuSans-7c" x="2107.369"/><use xlink:href="#DejaVuSans-20" x="2141.061"/><use xlink:href="#DejaVuSans-43" x="2172.848"/><use xlink:href="#DejaVuSans-43" x="2242.672"/><use xlink:href="#DejaVuSans-20" x="2312.496"/><use xlink:href="#DejaVuSans-42" x="2344.283"/><use xlink:href="#DejaVuSans-59" x="2407.387"/></g><path d="m196.617 296.672 2.508-.146 2.508-.063 2.265-.085 2.509-.108 2.427-.13 2.508-.118 2.427-.13 2.508-.186 2.508-.232 2.427-.379 2.508-.32 2.428-.336 2.508-.425 2.508-.497 2.265-.359 2.508-.623 2.427-.49 2.509-.487 2.427-.623 2.508-1.641 2.508-.575 2.427-.569 2.508-.657 2.427-.884 2.509-.7 2.508-.738 2.346-.595 2.508-1.013 2.427-.8 2.508-.83 2.427-.75 2.509-.785 2.508-.9 2.427-.828 2.508-1.14 2.427-1.024 2.508-.961 2.508-1.116 2.266-.854 2.508-.946 2.427-1.014 2.508-.892 2.427-.938 2.508-.886 2.508-.877 2.428-.836 2.508-.774 2.427-.83 2.508-.83 2.508-.925 2.265-.575 2.509-.828 2.427-.705 2.508-.635 2.427-.613 2.508-.591 2.508-.542 2.427-.57 2.508-.55 2.428-.527 2.508-.544 2.508-.514 2.265-.39 2.508-.848 2.427-.53 2.509-.48 2.427-.406 2.508-.46 2.508-.45 2.427-.374 2.508-.324 2.427-.366 2.508-.323 2.509-.216 2.346-.248 2.508-.318 2.427-.27 2.508-.327 2.427-.293 2.509-.274 2.508-.312 2.427-.254 2.508-.215 2.427-.241 2.508-.262 2.508-.226 2.266-.165 2.508-.215 2.427-.2 2.508-.194 2.427-.15 2.508-.22 2.508-.137 2.428-.19 2.508-.143 2.427-.178 2.508-.15 2.508-.146 2.265-.16 2.508-.186 2.428-.375 2.508-.2 2.427-.15 2.508-.13 2.508-.144" clip-path="url(#pcfdbba0c96)" style="fill:none;stroke:#9467bd;stroke-width:1.5;stroke-linecap:square" id="line2d_28"/><path d="m98.073 296.672 2.508-.569 27.023-.369 29.612-.386 17.152-.086 14.886-.765 9.871-.826 12.217-1.197 4.935-.678 9.87-1.229 9.79-1.499 4.936-1.1 2.427-.49 2.508-.627 9.87-2.084 5.017-1.57 2.346-.524 12.379-3.875 2.508-.675 4.935-1.927 2.427-.94 5.016-1.683 2.266-.916 4.935-2.245 4.935-1.848 7.444-3.006 2.508-1.466 2.427-1.211 2.508-1.412 2.508-1.569 7.2-3.833 4.936-2.104 5.016-1.86 17.152-6.477 4.936-2.037 4.935-1.625 17.233-5.335 4.935-1.566 4.935-1.552 2.509-.786 2.508-.576 2.427-.689 2.508-.572 2.427-.81 2.508-.61 2.508-1.413 4.774-1.212 2.427-.868 14.887-4.037 4.935-1.198 2.508-.842 17.152-4.469h0" clip-path="url(#pcfdbba0c96)" style="fill:none;stroke:#d62728;stroke-width:1.5;stroke-linecap:square" id="line2d_29"/><path d="m233.43 296.672 2.507-.776 2.427-.302 2.509-1.613 2.427-.305 2.508-.28 2.508-.387 2.427-.29 2.508-.329 2.427-.372 2.509-.532 2.508-.603 2.346-.593 2.508-.775 2.427-1.064 2.508-.73 2.427-.594 2.509-.723 2.508-.95 2.427-.792 2.508-1.102 2.427-.943 2.508-1.069 2.508-1.477 2.266-1.292 2.508-2.16 2.427-1.525 2.508-1.38 2.427-1.506 2.508-1.566 2.508-1.397 2.428-1.297 2.508-1.619 2.427-1.863 2.508-1.862 2.508-2.045 2.265-1.723 2.509-2.446 2.427-1.781 2.508-1.764 2.427-1.72 2.508-1.514 2.508-1.523 2.427-1.365 2.508-1.493 2.428-1.55 2.508-1.563 2.508-1.487 2.265-1.205 2.508-1.61 2.427-1.73 2.509-1.424 2.427-1.197 2.508-1.306 2.508-1.128 2.427-1.128 2.508-1.061 2.427-1.01 2.508-.918 2.509-.715 2.346-.748 2.508-.806 2.427-.917 2.508-.826 2.427-.662 2.509-.708 2.508-.553 2.427-.838 2.508-.476 2.427-.335 2.508-.419 2.508-.444 2.266-.324 2.508-.391 2.427-.341 2.508-.352 2.427-.985 2.508-.461 2.508-.465 2.428-.841 2.508-.542 2.427-.593 2.508-.52 2.508-.583 2.265-.978 2.508-.789 2.428-.553 2.508-.505 2.427-.49 2.508-.513 2.508-.463" clip-path="url(#pcfdbba0c96)" style="fill:none;stroke:#2ca02c;stroke-width:1.5;stroke-linecap:square" id="line2d_30"/><path d="m275.42 296.672 2.508-.006 2.427-.002 2.508-.004 2.427-.014 2.508-.005 2.508-3.85 2.266-1.012 2.508-.847 2.427-.797 2.508-.881 2.427-.596 2.508-.595 2.508-1.323 2.428-.97 2.508-1.448 2.427-1.457 2.508-1.585 2.508-1.734 2.265-1.025 2.509-1.216 2.427-1.837 2.508-1.979 2.427-1.18 2.508-1.135 2.508-1.217 2.427-1.269 2.508-2.254 2.428-1.752 2.508-2.298 2.508-1.602 2.265-1.38 2.508-1.77 2.427-1.727 2.509-1.719 2.427-1.396 2.508-1.516 2.508-1.348 2.427-1.225 2.508-1.954 2.427-1.352 2.508-1.44 2.509-1.105 2.346-1.263 2.508-1.453 2.427-1.46 2.508-1.438 2.427-1.235 2.509-1.367 2.508-1.357 2.427-2.197 2.508-1.192 2.427-1.328 2.508-1.36 2.508-1.293 2.266-.957 2.508-1.348 2.427-1.17 2.508-1.103 2.427-1.116 2.508-1.19 2.508-1.253 2.428-1.142 2.508-1.152 2.427-1.13 2.508-1.139 2.508-1.284 2.265-.931 2.508-1.333 2.428-1.221 2.508-1.289 2.427-1.219 2.508-1.103 2.508-1.253" clip-path="url(#pcfdbba0c96)" style="fill:none;stroke:#ff7f0e;stroke-width:1.5;stroke-linecap:square" id="line2d_31"/><path d="m253.251 296.672 2.427-19.107 2.509-2.552 2.508-2.868 2.346-1.958 2.508-2.284 2.427-3.041 2.508-3.634 2.427-2.914 2.509-2.613 2.508-2.674 2.427-3.12 2.508-3.942 2.427-3.708 2.508-4.41 2.508-4.2 2.266-6.174 2.508-5.766 2.427-4.402 2.508-5.023 2.427-4.605 2.508-4.458 2.508-4.67 2.428-4.353 2.508-5.678 2.427-6.89 2.508-6.213 2.508-5.502 2.265-4.54 2.509-5.967 2.427-5.278 2.508-5.223 2.427-4.022 2.508-3.858 2.508-3.473 2.427-3.73 2.508-3.87 2.428-3.725 2.508-3.32 2.508-3.51 2.265-2.876 2.508-4.626 2.427-3.796 2.509-3.47 2.427-2.568 2.508-2.971 2.508-2.539 2.427-2.86 2.508-2.735 2.427-2.76 2.508-2.208 2.509-1.81 2.346-1.717 2.508-2.173 2.427-2.195 2.508-2.292 2.427-1.943 2.509-2.034 2.508-1.83 2.427-1.722 2.508-1.675 2.427-2.213 2.508-2.006 2.508-1.69 2.266-1.415 2.508-1.744 2.427-1.949 2.508-1.55 2.427-1.69 2.508-1.612 2.508-1.792 2.428-1.409 2.508-1.59 2.427-1.456 2.508-1.426 2.508-2.014 2.265-1.353 2.508-1.678 2.428-1.38 2.508-1.635 2.427-1.512 2.508-1.464 2.508-1.459" clip-path="url(#pcfdbba0c96)" style="fill:none;stroke:#1f77b4;stroke-width:1.5;stroke-linecap:square" id="line2d_32"/></g></g><defs><clipPath id="pcfdbba0c96"><path d="M98.073 30.56h357.12v266.112H98.073z"/></clipPath></defs></svg>