<svg xmlns="http://www.w3.org/2000/svg" xmlns:xlink="http://www.w3.org/1999/xlink" width="842.116" height="456.633" viewBox="0 0 631.587 342.475"><defs><style>*{stroke-linejoin:round;stroke-linecap:butt}</style></defs><g id="figure_1"><path id="patch_1" d="M0 342.475h631.587V0H0v342.475z" style="fill:none"/><g id="axes_1"><path id="patch_2" d="M98.073 298.948h357.12V32.836H98.073v266.112z" style="fill:none"/><g id="matplotlib.axis_1"><g id="xtick_1"><g id="line2d_1"><defs><path id="m9872cf3cf7" d="M0 0v3.5" style="stroke:#b0b0b0;stroke-width:.4"/></defs><use xlink:href="#m9872cf3cf7" x="137.541" y="298.948" style="fill:#b0b0b0;stroke:#b0b0b0;stroke-width:.4"/></g><g id="text_1" style="fill:#b0b0b0" transform="matrix(.14 0 0 -.14 119.726 316.586)"><defs><path id="DejaVuSans-32" d="M1228 531h2203V0H469v531q359 372 979 998 621 627 780 809 303 340 423 576 121 236 121 464 0 372-261 606-261 235-680 235-297 0-627-103-329-103-704-313v638q381 153 712 231 332 78 607 78 725 0 1156-363 431-362 431-968 0-288-108-546-107-257-392-607-78-91-497-524-418-433-1181-1211z" transform="scale(.01563)"/><path id="DejaVuSans-30" d="M2034 4250q-487 0-733-480-245-479-245-1442 0-959 245-1439 246-480 733-480 491 0 736 480 246 480 246 1439 0 963-246 1442-245 480-736 480zm0 500q785 0 1199-621 414-620 414-1801 0-1178-414-1799Q2819-91 2034-91q-784 0-1198 620-414 621-414 1799 0 1181 414 1801 414 621 1198 621z" transform="scale(.01563)"/><path id="DejaVuSans-31" d="M794 531h1031v3560L703 3866v575l1116 225h631V531h1031V0H794v531z" transform="scale(.01563)"/></defs><use xlink:href="#DejaVuSans-32"/><use xlink:href="#DejaVuSans-30" x="63.623"/><use xlink:href="#DejaVuSans-31" x="127.246"/><use xlink:href="#DejaVuSans-32" x="190.869"/></g></g><g id="xtick_2"><use xlink:href="#m9872cf3cf7" id="line2d_2" x="193.239" y="298.948" style="fill:#b0b0b0;stroke:#b0b0b0;stroke-width:.4"/><g id="text_2" style="fill:#b0b0b0" transform="matrix(.14 0 0 -.14 175.424 316.586)"><defs><path id="DejaVuSans-34" d="M2419 4116 825 1625h1594v2491zm-166 550h794V1625h666v-525h-666V0h-628v1100H313v609l1940 2957z" transform="scale(.01563)"/></defs><use xlink:href="#DejaVuSans-32"/><use xlink:href="#DejaVuSans-30" x="63.623"/><use xlink:href="#DejaVuSans-31" x="127.246"/><use xlink:href="#DejaVuSans-34" x="190.869"/></g></g><g id="xtick_3"><use xlink:href="#m9872cf3cf7" id="line2d_3" x="248.861" y="298.948" style="fill:#b0b0b0;stroke:#b0b0b0;stroke-width:.4"/><g id="text_3" style="fill:#b0b0b0" transform="matrix(.14 0 0 -.14 231.046 316.586)"><defs><path id="DejaVuSans-36" d="M2113 2584q-425 0-674-291-248-290-248-796 0-503 248-796 249-292 674-292t673 292q248 293 248 796 0 506-248 796-248 291-673 291zm1253 1979v-575q-238 112-480 171-242 60-480 60-625 0-955-422-329-422-376-1275 184 272 462 417 279 145 613 145 703 0 1111-427 408-426 408-1160 0-719-425-1154Q2819-91 2113-91q-810 0-1238 620-428 621-428 1799 0 1106 525 1764t1409 658q238 0 480-47t505-140z" transform="scale(.01563)"/></defs><use xlink:href="#DejaVuSans-32"/><use xlink:href="#DejaVuSans-30" x="63.623"/><use xlink:href="#DejaVuSans-31" x="127.246"/><use xlink:href="#DejaVuSans-36" x="190.869"/></g></g><g id="xtick_4"><use xlink:href="#m9872cf3cf7" id="line2d_4" x="304.558" y="298.948" style="fill:#b0b0b0;stroke:#b0b0b0;stroke-width:.4"/><g id="text_4" style="fill:#b0b0b0" transform="matrix(.14 0 0 -.14 286.743 316.586)"><defs><path id="DejaVuSans-38" d="M2034 2216q-450 0-708-241-257-241-257-662 0-422 257-663 258-241 708-241t709 242q260 243 260 662 0 421-258 662-257 241-711 241zm-631 268q-406 100-633 378-226 279-226 679 0 559 398 884 399 325 1092 325 697 0 1094-325t397-884q0-400-227-679-226-278-629-378 456-106 710-416 255-309 255-755 0-679-414-1042Q2806-91 2034-91q-771 0-1186 362-414 363-414 1042 0 446 256 755 257 310 713 416zm-231 997q0-362 226-565 227-203 636-203 407 0 636 203 230 203 230 565 0 363-230 566-229 203-636 203-409 0-636-203-226-203-226-566z" transform="scale(.01563)"/></defs><use xlink:href="#DejaVuSans-32"/><use xlink:href="#DejaVuSans-30" x="63.623"/><use xlink:href="#DejaVuSans-31" x="127.246"/><use xlink:href="#DejaVuSans-38" x="190.869"/></g></g><g id="xtick_5"><use xlink:href="#m9872cf3cf7" id="line2d_5" x="360.18" y="298.948" style="fill:#b0b0b0;stroke:#b0b0b0;stroke-width:.4"/><g id="text_5" style="fill:#b0b0b0" transform="matrix(.14 0 0 -.14 342.365 316.586)"><use xlink:href="#DejaVuSans-32"/><use xlink:href="#DejaVuSans-30" x="63.623"/><use xlink:href="#DejaVuSans-32" x="127.246"/><use xlink:href="#DejaVuSans-30" x="190.869"/></g></g><g id="xtick_6"><use xlink:href="#m9872cf3cf7" id="line2d_6" x="415.877" y="298.948" style="fill:#b0b0b0;stroke:#b0b0b0;stroke-width:.4"/><g id="text_6" style="fill:#b0b0b0" transform="matrix(.14 0 0 -.14 398.062 316.586)"><use xlink:href="#DejaVuSans-32"/><use xlink:href="#DejaVuSans-30" x="63.623"/><use xlink:href="#DejaVuSans-32" x="127.246"/><use xlink:href="#DejaVuSans-32" x="190.869"/></g></g></g><g id="matplotlib.axis_2"><g id="ytick_1"><path id="line2d_7" d="M98.073 298.948h357.12" clip-path="url(#p0b0f90ae95)" style="fill:none;stroke:#b0b0b0;stroke-width:.3;stroke-linecap:square"/><g id="line2d_8"><defs><path id="mbeb311cba2" d="M0 0h-3.5" style="stroke:#b0b0b0;stroke-width:.3"/></defs><use xlink:href="#mbeb311cba2" x="98.073" y="298.948" style="fill:#b0b0b0;stroke:#b0b0b0;stroke-width:.3"/></g><use xlink:href="#DejaVuSans-30" id="text_7" style="fill:#b0b0b0" transform="matrix(.14 0 0 -.14 82.166 304.267)"/></g><g id="ytick_2"><path id="line2d_9" d="M98.073 262.11h357.12" clip-path="url(#p0b0f90ae95)" style="fill:none;stroke:#b0b0b0;stroke-width:.3;stroke-linecap:square"/><use xlink:href="#mbeb311cba2" id="line2d_10" x="98.073" y="262.11" style="fill:#b0b0b0;stroke:#b0b0b0;stroke-width:.3"/><g id="text_8" style="fill:#b0b0b0" transform="matrix(.14 0 0 -.14 46.536 267.43)"><defs><path id="DejaVuSans-35" d="M691 4666h2478v-532H1269V2991q137 47 274 70 138 23 276 23 781 0 1237-428 457-428 457-1159 0-753-469-1171Q2575-91 1722-91q-294 0-599 50Q819 9 494 109v635q281-153 581-228t634-75q541 0 856 284 316 284 316 772 0 487-316 771-315 285-856 285-253 0-505-56-251-56-513-175v2344z" transform="scale(.01563)"/></defs><use xlink:href="#DejaVuSans-32"/><use xlink:href="#DejaVuSans-35" x="63.623"/><use xlink:href="#DejaVuSans-30" x="127.246"/><use xlink:href="#DejaVuSans-30" x="190.869"/><use xlink:href="#DejaVuSans-30" x="254.492"/></g></g><g id="ytick_3"><path id="line2d_11" d="M98.073 225.273h357.12" clip-path="url(#p0b0f90ae95)" style="fill:none;stroke:#b0b0b0;stroke-width:.3;stroke-linecap:square"/><use xlink:href="#mbeb311cba2" id="line2d_12" x="98.073" y="225.273" style="fill:#b0b0b0;stroke:#b0b0b0;stroke-width:.3"/><g id="text_9" style="fill:#b0b0b0" transform="matrix(.14 0 0 -.14 46.536 230.592)"><use xlink:href="#DejaVuSans-35"/><use xlink:href="#DejaVuSans-30" x="63.623"/><use xlink:href="#DejaVuSans-30" x="127.246"/><use xlink:href="#DejaVuSans-30" x="190.869"/><use xlink:href="#DejaVuSans-30" x="254.492"/></g></g><g id="ytick_4"><path id="line2d_13" d="M98.073 188.436h357.12" clip-path="url(#p0b0f90ae95)" style="fill:none;stroke:#b0b0b0;stroke-width:.3;stroke-linecap:square"/><use xlink:href="#mbeb311cba2" id="line2d_14" x="98.073" y="188.436" style="fill:#b0b0b0;stroke:#b0b0b0;stroke-width:.3"/><g id="text_10" style="fill:#b0b0b0" transform="matrix(.14 0 0 -.14 46.536 193.754)"><defs><path id="DejaVuSans-37" d="M525 4666h3000v-269L1831 0h-659l1594 4134H525v532z" transform="scale(.01563)"/></defs><use xlink:href="#DejaVuSans-37"/><use xlink:href="#DejaVuSans-35" x="63.623"/><use xlink:href="#DejaVuSans-30" x="127.246"/><use xlink:href="#DejaVuSans-30" x="190.869"/><use xlink:href="#DejaVuSans-30" x="254.492"/></g></g><g id="ytick_5"><path id="line2d_15" d="M98.073 151.598h357.12" clip-path="url(#p0b0f90ae95)" style="fill:none;stroke:#b0b0b0;stroke-width:.3;stroke-linecap:square"/><use xlink:href="#mbeb311cba2" id="line2d_16" x="98.073" y="151.598" style="fill:#b0b0b0;stroke:#b0b0b0;stroke-width:.3"/><g id="text_11" style="fill:#b0b0b0" transform="matrix(.14 0 0 -.14 37.628 156.917)"><use xlink:href="#DejaVuSans-31"/><use xlink:href="#DejaVuSans-30" x="63.623"/><use xlink:href="#DejaVuSans-30" x="127.246"/><use xlink:href="#DejaVuSans-30" x="190.869"/><use xlink:href="#DejaVuSans-30" x="254.492"/><use xlink:href="#DejaVuSans-30" x="318.115"/></g></g><g id="ytick_6"><path id="line2d_17" d="M98.073 114.76h357.12" clip-path="url(#p0b0f90ae95)" style="fill:none;stroke:#b0b0b0;stroke-width:.3;stroke-linecap:square"/><use xlink:href="#mbeb311cba2" id="line2d_18" x="98.073" y="114.761" style="fill:#b0b0b0;stroke:#b0b0b0;stroke-width:.3"/><g id="text_12" style="fill:#b0b0b0" transform="matrix(.14 0 0 -.14 37.628 120.08)"><use xlink:href="#DejaVuSans-31"/><use xlink:href="#DejaVuSans-32" x="63.623"/><use xlink:href="#DejaVuSans-35" x="127.246"/><use xlink:href="#DejaVuSans-30" x="190.869"/><use xlink:href="#DejaVuSans-30" x="254.492"/><use xlink:href="#DejaVuSans-30" x="318.115"/></g></g><g id="ytick_7"><path id="line2d_19" d="M98.073 77.923h357.12" clip-path="url(#p0b0f90ae95)" style="fill:none;stroke:#b0b0b0;stroke-width:.3;stroke-linecap:square"/><use xlink:href="#mbeb311cba2" id="line2d_20" x="98.073" y="77.923" style="fill:#b0b0b0;stroke:#b0b0b0;stroke-width:.3"/><g id="text_13" style="fill:#b0b0b0" transform="matrix(.14 0 0 -.14 37.628 83.242)"><use xlink:href="#DejaVuSans-31"/><use xlink:href="#DejaVuSans-35" x="63.623"/><use xlink:href="#DejaVuSans-30" x="127.246"/><use xlink:href="#DejaVuSans-30" x="190.869"/><use xlink:href="#DejaVuSans-30" x="254.492"/><use xlink:href="#DejaVuSans-30" x="318.115"/></g></g><g id="ytick_8"><path id="line2d_21" d="M98.073 41.086h357.12" clip-path="url(#p0b0f90ae95)" style="fill:none;stroke:#b0b0b0;stroke-width:.3;stroke-linecap:square"/><use xlink:href="#mbeb311cba2" id="line2d_22" x="98.073" y="41.086" style="fill:#b0b0b0;stroke:#b0b0b0;stroke-width:.3"/><g id="text_14" style="fill:#b0b0b0" transform="matrix(.14 0 0 -.14 37.628 46.405)"><use xlink:href="#DejaVuSans-31"/><use xlink:href="#DejaVuSans-37" x="63.623"/><use xlink:href="#DejaVuSans-35" x="127.246"/><use xlink:href="#DejaVuSans-30" x="190.869"/><use xlink:href="#DejaVuSans-30" x="254.492"/><use xlink:href="#DejaVuSans-30" x="318.115"/></g></g><g id="text_15" style="fill:#b0b0b0" transform="matrix(.14 0 0 -.14 7.2 11.563)"><defs><path id="DejaVuSans-47" d="M3809 666v1253H2778v519h1656V434q-365-259-806-392-440-133-940-133-1094 0-1712 639-617 640-617 1780 0 1144 617 1783 618 639 1712 639 456 0 867-113 411-112 758-331v-672q-350 297-744 447t-828 150q-857 0-1287-478-429-478-429-1425 0-944 429-1422 430-478 1287-478 334 0 596 58 263 58 472 180z" transform="scale(.01563)"/><path id="DejaVuSans-69" d="M603 3500h575V0H603v3500zm0 1363h575v-729H603v729z" transform="scale(.01563)"/><path id="DejaVuSans-74" d="M1172 4494v-994h1184v-447H1172V1153q0-428 117-550t477-122h590V0h-590q-666 0-919 248-253 249-253 905v1900H172v447h422v994h578z" transform="scale(.01563)"/><path id="DejaVuSans-48" d="M628 4666h631V2753h2294v1913h631V0h-631v2222H1259V0H628v4666z" transform="scale(.01563)"/><path id="DejaVuSans-75" d="M544 1381v2119h575V1403q0-497 193-746 194-248 582-248 465 0 735 297 271 297 271 810v1984h575V0h-575v538q-209-319-486-474-276-155-642-155-603 0-916 375-312 375-312 1097zm1447 2203z" transform="scale(.01563)"/><path id="DejaVuSans-62" d="M3116 1747q0 634-261 995t-717 361q-457 0-718-361t-261-995q0-634 261-995t718-361q456 0 717 361t261 995zM1159 2969q182 312 458 463 277 152 661 152 638 0 1036-506 399-506 399-1331T3314 415Q2916-91 2278-91q-384 0-661 152-276 152-458 464V0H581v4863h578V2969z" transform="scale(.01563)"/><path id="DejaVuSans-73" d="M2834 3397v-544q-243 125-506 187-262 63-544 63-428 0-642-131t-214-394q0-200 153-314t616-217l197-44q612-131 870-370t258-667q0-488-386-773Q2250-91 1575-91q-281 0-586 55T347 128v594q319-166 628-249 309-82 613-82 406 0 624 139 219 139 219 392 0 234-158 359-157 125-692 241l-200 47q-534 112-772 345-237 233-237 639 0 494 350 762 350 269 994 269 318 0 599-47 282-46 519-140z" transform="scale(.01563)"/><path id="DejaVuSans-61" d="M2194 1759q-697 0-966-159t-269-544q0-306 202-486 202-179 548-179 479 0 768 339t289 901v128h-572zm1147 238V0h-575v531q-197-318-491-470T1556-91q-537 0-855 302-317 302-317 808 0 590 395 890 396 300 1180 300h807v57q0 397-261 614t-733 217q-300 0-585-72-284-72-546-216v532q315 122 612 182 297 61 578 61 760 0 1135-394 375-393 375-1193z" transform="scale(.01563)"/><path id="DejaVuSans-72" d="M2631 2963q-97 56-211 82-114 27-251 27-488 0-749-317t-261-911V0H581v3500h578v-544q182 319 472 473 291 155 707 155 59 0 131-8 72-7 159-23l3-590z" transform="scale(.01563)"/></defs><use xlink:href="#DejaVuSans-47"/><use xlink:href="#DejaVuSans-69" x="77.49"/><use xlink:href="#DejaVuSans-74" x="105.273"/><use xlink:href="#DejaVuSans-48" x="144.482"/><use xlink:href="#DejaVuSans-75" x="219.678"/><use xlink:href="#DejaVuSans-62" x="283.057"/><use xlink:href="#DejaVuSans-20" x="346.533"/><use xlink:href="#DejaVuSans-73" x="378.32"/><use xlink:href="#DejaVuSans-74" x="430.42"/><use xlink:href="#DejaVuSans-61" x="469.629"/><use xlink:href="#DejaVuSans-72" x="530.908"/><use xlink:href="#DejaVuSans-73" x="572.021"/></g></g><path id="line2d_23" d="m325.359 298.948 2.362-.033 2.286-.36 2.362-.236 2.362-.064 2.133-.023 2.362-.017 2.286-.004 2.362-.003 2.286-.133 2.362-.03 2.362-.021 2.286-.009 2.362-.026 2.286-.014 2.362-.014 2.362-.033 2.21-.085 2.361-.014 2.286-.023 2.362-.015 2.286-.02 2.362-.023 2.362-.801 2.286-.106 2.362-.29 2.285-.235 2.362-.277 2.362-.333 2.134-.289 2.362-.296 2.286-.318 2.362-.363 2.286-.203 2.362-.221 2.362-.187 2.285-.168 2.362-.167 2.286-.203 2.362-.262 2.362-.242 2.134-.463 2.362-.257 2.285-.322 2.362-.222 2.286-.296 2.362-.21 2.362-.184 2.286-.218 2.362-.272 2.286-.34 2.362-.18 2.362-.195 2.133-.2 2.362-.211 2.286-.195 2.362-.205" clip-path="url(#p0b0f90ae95)" style="fill:none;stroke:#bcbd22;stroke-width:1.5;stroke-linecap:square"/><path id="line2d_24" d="m125.884 298.948 2.362-.189 53.335-.21 20.801-.351 14.02-.361 16.153-.884 13.944-1.235 6.933-.755 4.648-.782 7.01-.784 7.01-.872 13.79-1.895 9.372-.968 2.286-.177 2.362-.343 4.648-.448 6.858-.846 6.933-.44 18.515-.706 18.668-.588 41.678-.968 57.983-.839h0" clip-path="url(#p0b0f90ae95)" style="fill:none;stroke:#7f7f7f;stroke-width:1.5;stroke-linecap:square"/><path id="line2d_25" d="m232.555 298.948 2.286-.005 2.362-.003 2.362-.011 2.286-.372 2.362-.518 2.286-1.013 2.362-.764 2.362-.509 2.21-.324 2.361-.423 2.286-.583 2.362-.467 2.286-.456 2.362-.483 2.362-.436 2.286-.504 2.362-.55 2.285-1.366 2.362-.922 2.362-.668 2.134-.977 2.362-.617 2.286-.6 2.362-.567 2.285-.53 2.362-.547 2.362-.477 2.286-.61 2.362-.678 2.286-.573 2.362-.528 2.362-.502 2.134-.397 2.362-.536 2.285-.43 2.362-.385 2.286-.363 2.362-.627 2.362-.578 2.286-.314 2.362-.327 2.286-.3 2.362-.373 2.362-.537 2.133-.228 2.362-.343 2.286-.282 2.362-.406 2.286-.316 2.362-.31 2.362-.276 2.286-.311 2.362-.264 2.286-.224 2.362-.225 2.362-.195 2.21-.162 2.361-.163 2.286-.193 2.362-.18 2.286-.16 2.362-.133 2.362-.12 2.286-.134 2.362-.11 2.285-.118 2.362-.115 2.362-.112 2.134-.092 2.362-.137 2.286-.119 2.362-.099 2.286-.109 2.362-.088 2.362-.094 2.285-.096 2.362-.093 2.286-.09 2.362-.082 2.362-.076 2.134-.072 2.362-.101 2.285-.073 2.362-.064 2.286-.06 2.362-.073 2.362-.065 2.286-.053 2.362-.078 2.286-.096 2.362-.065 2.362-.075 2.133-.066 2.362-.143 2.286-.105 2.362-.063" clip-path="url(#p0b0f90ae95)" style="fill:none;stroke:#e377c2;stroke-width:1.5;stroke-linecap:square"/><g id="text_16" style="fill:#1f77b4" transform="matrix(.14 0 0 -.14 465.907 36.699)"><defs><path id="DejaVuSans-65" d="M3597 1894v-281H953q38-594 358-905t892-311q331 0 642 81t618 244V178Q3153 47 2828-22t-659-69q-838 0-1327 487-489 488-489 1320 0 859 464 1363 464 505 1252 505 706 0 1117-455 411-454 411-1235zm-575 169q-6 471-264 752-258 282-683 282-481 0-770-272t-333-766l2050 4z" transform="scale(.01563)"/><path id="DejaVuSans-6e" d="M3513 2113V0h-575v2094q0 497-194 743-194 247-581 247-466 0-735-297-269-296-269-809V0H581v3500h578v-544q207 316 486 472 280 156 646 156 603 0 912-373 310-373 310-1098z" transform="scale(.01563)"/><path id="DejaVuSans-6f" d="M1959 3097q-462 0-731-361t-269-989q0-628 267-989 268-361 733-361 460 0 728 362 269 363 269 988 0 622-269 986-268 364-728 364zm0 487q750 0 1178-488 429-487 429-1349 0-859-429-1349Q2709-91 1959-91q-753 0-1180 489-426 490-426 1349 0 862 426 1349 427 488 1180 488z" transform="scale(.01563)"/><path id="DejaVuSans-66" d="M2375 4863v-479h-550q-309 0-430-125-120-125-120-450v-309h947v-447h-947V0H697v3053H147v447h550v244q0 584 272 851 272 268 862 268h544z" transform="scale(.01563)"/><path id="DejaVuSans-6c" d="M603 4863h575V0H603v4863z" transform="scale(.01563)"/><path id="DejaVuSans-77" d="M269 3500h575l719-2731 715 2731h678l719-2731 716 2731h575L4050 0h-678l-753 2869L1863 0h-679L269 3500z" transform="scale(.01563)"/><path id="DejaVuSans-2f" d="M1625 4666h531L531-594H0l1625 5260z" transform="scale(.01563)"/></defs><use xlink:href="#DejaVuSans-74"/><use xlink:href="#DejaVuSans-65" x="39.209"/><use xlink:href="#DejaVuSans-6e" x="100.732"/><use xlink:href="#DejaVuSans-73" x="164.111"/><use xlink:href="#DejaVuSans-6f" x="216.211"/><use xlink:href="#DejaVuSans-72" x="277.393"/><use xlink:href="#DejaVuSans-66" x="318.506"/><use xlink:href="#DejaVuSans-6c" x="353.711"/><use xlink:href="#DejaVuSans-6f" x="381.494"/><use xlink:href="#DejaVuSans-77" x="442.676"/><use xlink:href="#DejaVuSans-2f" x="524.463"/><use xlink:href="#DejaVuSans-74" x="558.154"/><use xlink:href="#DejaVuSans-65" x="597.363"/><use xlink:href="#DejaVuSans-6e" x="658.887"/><use xlink:href="#DejaVuSans-73" x="722.266"/><use xlink:href="#DejaVuSans-6f" x="774.365"/><use xlink:href="#DejaVuSans-72" x="835.547"/><use xlink:href="#DejaVuSans-66" x="876.66"/><use xlink:href="#DejaVuSans-6c" x="911.865"/><use xlink:href="#DejaVuSans-6f" x="939.648"/><use xlink:href="#DejaVuSans-77" x="1000.83"/></g><g id="text_17" style="fill:#ff7f0e" transform="matrix(.14 0 0 -.14 465.907 197.484)"><defs><path id="DejaVuSans-70" d="M1159 525v-1856H581v4831h578v-531q182 312 458 463 277 152 661 152 638 0 1036-506 399-506 399-1331T3314 415Q2916-91 2278-91q-384 0-661 152-276 152-458 464zm1957 1222q0 634-261 995t-717 361q-457 0-718-361t-261-995q0-634 261-995t718-361q456 0 717 361t261 995z" transform="scale(.01563)"/><path id="DejaVuSans-79" d="M2059-325q-243-625-475-815-231-191-618-191H506v481h338q237 0 368 113 132 112 291 531l103 262L191 3500h609L1894 763l1094 2737h609L2059-325z" transform="scale(.01563)"/><path id="DejaVuSans-63" d="M3122 3366v-538q-244 135-489 202t-495 67q-560 0-870-355-309-354-309-995t309-996q310-354 870-354 250 0 495 67t489 202V134Q2881 22 2623-34q-257-57-548-57-791 0-1257 497-465 497-465 1341 0 856 470 1346 471 491 1290 491 265 0 518-55 253-54 491-163z" transform="scale(.01563)"/><path id="DejaVuSans-68" d="M3513 2113V0h-575v2094q0 497-194 743-194 247-581 247-466 0-735-297-269-296-269-809V0H581v4863h578V2956q207 316 486 472 280 156 646 156 603 0 912-373 310-373 310-1098z" transform="scale(.01563)"/></defs><use xlink:href="#DejaVuSans-70"/><use xlink:href="#DejaVuSans-79" x="63.477"/><use xlink:href="#DejaVuSans-74" x="122.656"/><use xlink:href="#DejaVuSans-6f" x="161.865"/><use xlink:href="#DejaVuSans-72" x="223.047"/><use xlink:href="#DejaVuSans-63" x="261.91"/><use xlink:href="#DejaVuSans-68" x="316.891"/><use xlink:href="#DejaVuSans-2f" x="380.27"/><use xlink:href="#DejaVuSans-70" x="413.961"/><use xlink:href="#DejaVuSans-79" x="477.438"/><use xlink:href="#DejaVuSans-74" x="536.617"/><use xlink:href="#DejaVuSans-6f" x="575.826"/><use xlink:href="#DejaVuSans-72" x="637.008"/><use xlink:href="#DejaVuSans-63" x="675.871"/><use xlink:href="#DejaVuSans-68" x="730.852"/></g><g id="text_18" style="fill:#2ca02c" transform="matrix(.14 0 0 -.14 465.907 211.484)"><defs><path id="DejaVuSans-6b" d="M581 4863h578V1991l1716 1509h734L1753 1863 3688 0h-750L1159 1709V0H581v4863z" transform="scale(.01563)"/><path id="DejaVuSans-2d" d="M313 2009h1684v-512H313v512z" transform="scale(.01563)"/><path id="DejaVuSans-6d" d="M3328 2828q216 388 516 572t706 184q547 0 844-383 297-382 297-1088V0h-578v2094q0 503-179 746-178 244-543 244-447 0-707-297-259-296-259-809V0h-578v2094q0 506-178 748t-550 242q-441 0-701-298-259-298-259-808V0H581v3500h578v-544q197 322 472 475t653 153q382 0 649-194 267-193 395-562z" transform="scale(.01563)"/></defs><use xlink:href="#DejaVuSans-6b"/><use xlink:href="#DejaVuSans-65" x="54.285"/><use xlink:href="#DejaVuSans-72" x="115.809"/><use xlink:href="#DejaVuSans-61" x="156.922"/><use xlink:href="#DejaVuSans-73" x="218.201"/><use xlink:href="#DejaVuSans-2d" x="270.301"/><use xlink:href="#DejaVuSans-74" x="306.385"/><use xlink:href="#DejaVuSans-65" x="345.594"/><use xlink:href="#DejaVuSans-61" x="407.117"/><use xlink:href="#DejaVuSans-6d" x="468.396"/><use xlink:href="#DejaVuSans-2f" x="565.809"/><use xlink:href="#DejaVuSans-6b" x="599.5"/><use xlink:href="#DejaVuSans-65" x="653.785"/><use xlink:href="#DejaVuSans-72" x="715.309"/><use xlink:href="#DejaVuSans-61" x="756.422"/><use xlink:href="#DejaVuSans-73" x="817.701"/></g><g id="text_19" style="fill:#d62728" transform="matrix(.14 0 0 -.14 465.907 225.484)"><use xlink:href="#DejaVuSans-73"/><use xlink:href="#DejaVuSans-63" x="52.1"/><use xlink:href="#DejaVuSans-69" x="107.08"/><use xlink:href="#DejaVuSans-6b" x="134.863"/><use xlink:href="#DejaVuSans-69" x="192.773"/><use xlink:href="#DejaVuSans-74" x="220.557"/><use xlink:href="#DejaVuSans-2d" x="259.766"/><use xlink:href="#DejaVuSans-6c" x="295.85"/><use xlink:href="#DejaVuSans-65" x="323.633"/><use xlink:href="#DejaVuSans-61" x="385.156"/><use xlink:href="#DejaVuSans-72" x="446.436"/><use xlink:href="#DejaVuSans-6e" x="485.799"/><use xlink:href="#DejaVuSans-2f" x="549.178"/><use xlink:href="#DejaVuSans-73" x="582.869"/><use xlink:href="#DejaVuSans-63" x="634.969"/><use xlink:href="#DejaVuSans-69" x="689.949"/><use xlink:href="#DejaVuSans-6b" x="717.732"/><use xlink:href="#DejaVuSans-69" x="775.643"/><use xlink:href="#DejaVuSans-74" x="803.426"/><use xlink:href="#DejaVuSans-2d" x="842.635"/><use xlink:href="#DejaVuSans-6c" x="878.719"/><use xlink:href="#DejaVuSans-65" x="906.502"/><use xlink:href="#DejaVuSans-61" x="968.025"/><use xlink:href="#DejaVuSans-72" x="1029.305"/><use xlink:href="#DejaVuSans-6e" x="1068.668"/></g><g id="text_20" style="fill:#9467bd" transform="matrix(.14 0 0 -.14 465.907 246.491)"><defs><path id="DejaVuSans-42" d="M1259 2228V519h1013q509 0 754 211 246 211 246 645 0 438-246 645-245 208-754 208H1259zm0 1919V2741h935q462 0 688 173 227 174 227 530 0 353-227 528-226 175-688 175h-935zm-631 519h1613q722 0 1112-300 391-300 391-853 0-429-200-682t-588-315q466-100 724-418 258-317 258-792 0-625-425-966Q3088 0 2303 0H628v4666z" transform="scale(.01563)"/><path id="DejaVuSans-56" d="M1831 0 50 4666h659L2188 738l1481 3928h656L2547 0h-716z" transform="scale(.01563)"/><path id="DejaVuSans-4c" d="M628 4666h631V531h2272V0H628v4666z" transform="scale(.01563)"/><path id="DejaVuSans-43" d="M4122 4306v-665q-319 297-680 443-361 147-767 147-800 0-1225-489t-425-1414q0-922 425-1411t1225-489q406 0 767 147t680 444V359q-331-225-702-338-370-112-782-112-1060 0-1670 648-609 649-609 1771 0 1125 609 1773 610 649 1670 649 418 0 788-111 371-111 696-333z" transform="scale(.01563)"/></defs><use xlink:href="#DejaVuSans-42"/><use xlink:href="#DejaVuSans-56" x="65.479"/><use xlink:href="#DejaVuSans-4c" x="133.887"/><use xlink:href="#DejaVuSans-43" x="189.6"/><use xlink:href="#DejaVuSans-2f" x="259.424"/><use xlink:href="#DejaVuSans-63" x="293.115"/><use xlink:href="#DejaVuSans-61" x="348.096"/><use xlink:href="#DejaVuSans-66" x="409.375"/><use xlink:href="#DejaVuSans-66" x="444.58"/><use xlink:href="#DejaVuSans-65" x="479.785"/></g><g id="text_21" style="fill:#8c564b" transform="matrix(.14 0 0 -.14 465.907 260.491)"><use xlink:href="#DejaVuSans-66"/><use xlink:href="#DejaVuSans-61" x="35.205"/><use xlink:href="#DejaVuSans-73" x="96.484"/><use xlink:href="#DejaVuSans-74" x="148.584"/><use xlink:href="#DejaVuSans-61" x="187.793"/><use xlink:href="#DejaVuSans-69" x="249.072"/><use xlink:href="#DejaVuSans-2f" x="276.855"/><use xlink:href="#DejaVuSans-66" x="310.547"/><use xlink:href="#DejaVuSans-61" x="345.752"/><use xlink:href="#DejaVuSans-73" x="407.031"/><use xlink:href="#DejaVuSans-74" x="459.131"/><use xlink:href="#DejaVuSans-61" x="498.34"/><use xlink:href="#DejaVuSans-69" x="559.619"/></g><g id="text_22" style="fill:#e377c2" transform="matrix(.14 0 0 -.14 465.907 274.491)"><defs><path id="DejaVuSans-78" d="M3513 3500 2247 1797 3578 0h-678L1881 1375 863 0H184l1360 1831L300 3500h678l928-1247 928 1247h679z" transform="scale(.01563)"/></defs><use xlink:href="#DejaVuSans-61"/><use xlink:href="#DejaVuSans-70" x="61.279"/><use xlink:href="#DejaVuSans-61" x="124.756"/><use xlink:href="#DejaVuSans-63" x="186.035"/><use xlink:href="#DejaVuSans-68" x="241.016"/><use xlink:href="#DejaVuSans-65" x="304.395"/><use xlink:href="#DejaVuSans-2f" x="365.918"/><use xlink:href="#DejaVuSans-6d" x="399.609"/><use xlink:href="#DejaVuSans-78" x="497.021"/><use xlink:href="#DejaVuSans-6e" x="556.201"/><use xlink:href="#DejaVuSans-65" x="619.58"/><use xlink:href="#DejaVuSans-74" x="681.104"/></g><g id="text_23" style="fill:#7f7f7f" transform="matrix(.14 0 0 -.14 465.907 288.491)"><defs><path id="DejaVuSans-54" d="M-19 4666h3947v-532H2272V0h-634v4134H-19v532z" transform="scale(.01563)"/></defs><use xlink:href="#DejaVuSans-54"/><use xlink:href="#DejaVuSans-68" x="61.084"/><use xlink:href="#DejaVuSans-65" x="124.463"/><use xlink:href="#DejaVuSans-61" x="185.986"/><use xlink:href="#DejaVuSans-6e" x="247.266"/><use xlink:href="#DejaVuSans-6f" x="310.645"/><use xlink:href="#DejaVuSans-2f" x="371.826"/><use xlink:href="#DejaVuSans-54" x="405.518"/><use xlink:href="#DejaVuSans-68" x="466.602"/><use xlink:href="#DejaVuSans-65" x="529.98"/><use xlink:href="#DejaVuSans-61" x="591.504"/><use xlink:href="#DejaVuSans-6e" x="652.783"/><use xlink:href="#DejaVuSans-6f" x="716.162"/></g><g id="text_24" style="fill:#bcbd22" transform="matrix(.14 0 0 -.14 465.907 302.491)"><defs><path id="DejaVuSans-67" d="M2906 1791q0 625-258 968-257 344-723 344-462 0-720-344-258-343-258-968 0-622 258-966t720-344q466 0 723 344 258 344 258 966zm575-1357q0-893-397-1329-396-436-1215-436-303 0-572 45t-522 139v559q253-137 500-202 247-66 503-66 566 0 847 295t281 892v285q-178-310-456-463T1784 0Q1141 0 747 490 353 981 353 1791q0 812 394 1302 394 491 1037 491 388 0 666-153t456-462v531h575V434z" transform="scale(.01563)"/><path id="DejaVuSans-7a" d="M353 3500h2731v-525L922 459h2162V0H275v525l2163 2516H353v459z" transform="scale(.01563)"/><path id="DejaVuSans-76" d="M191 3500h609L1894 563l1094 2937h609L2284 0h-781L191 3500z" transform="scale(.01563)"/></defs><use xlink:href="#DejaVuSans-61"/><use xlink:href="#DejaVuSans-72" x="61.279"/><use xlink:href="#DejaVuSans-6f" x="100.143"/><use xlink:href="#DejaVuSans-67" x="161.324"/><use xlink:href="#DejaVuSans-6f" x="224.801"/><use xlink:href="#DejaVuSans-7a" x="285.982"/><use xlink:href="#DejaVuSans-68" x="338.473"/><use xlink:href="#DejaVuSans-6e" x="401.852"/><use xlink:href="#DejaVuSans-69" x="465.23"/><use xlink:href="#DejaVuSans-6b" x="493.014"/><use xlink:href="#DejaVuSans-6f" x="547.299"/><use xlink:href="#DejaVuSans-76" x="608.48"/><use xlink:href="#DejaVuSans-2f" x="667.66"/><use xlink:href="#DejaVuSans-65" x="701.352"/><use xlink:href="#DejaVuSans-69" x="762.875"/><use xlink:href="#DejaVuSans-6e" x="790.658"/><use xlink:href="#DejaVuSans-6f" x="854.037"/><use xlink:href="#DejaVuSans-70" x="915.219"/><use xlink:href="#DejaVuSans-73" x="978.695"/></g><g id="text_25" style="fill:#b0b0b0" transform="matrix(.09716 0 0 -.09716 98.073 332.984)"><defs><path id="DejaVuSans-40" d="M2381 1678q0-447 222-702 222-254 610-254 384 0 604 256 221 256 221 700 0 438-225 695-225 258-607 258-378 0-602-256-223-256-223-697zm1703-934q-187-241-429-355t-564-114q-538 0-874 389t-336 1014q0 625 337 1015 338 391 873 391 322 0 565-117 244-117 428-354v409h447V722q457 69 714 417 258 349 258 902 0 334-99 628-98 294-298 544-325 409-792 626t-1017 217q-384 0-738-102-353-101-653-301-490-319-767-836-276-517-276-1120 0-497 179-932 180-434 521-765 328-325 759-495 431-171 922-171 403 0 792 136t714 389l281-347q-390-303-851-464t-936-161q-578 0-1091 205-512 205-912 595Q841 78 631 592q-209 514-209 1105 0 569 212 1084 213 516 607 907 403 396 931 607t1119 211q662 0 1229-272 568-271 952-771 234-307 357-666 124-359 124-744 0-822-497-1297T4084 263v481z" transform="scale(.01563)"/><path id="DejaVuSans-64" d="M2906 2969v1894h575V0h-575v525q-181-312-458-464-276-152-664-152-634 0-1033 506-398 507-398 1332t398 1331q399 506 1033 506 388 0 664-152 277-151 458-463zM947 1747q0-634 261-995t717-361q456 0 718 361 263 361 263 995t-263 995q-262 361-718 361t-717-361q-261-361-261-995z" transform="scale(.01563)"/><path id="DejaVuSans-7c" d="M1344 4891v-6400H813v6400h531z" transform="scale(.01563)"/><path id="DejaVuSans-4e" d="M628 4666h850L3547 763v3903h612V0h-850L1241 3903V0H628v4666z" transform="scale(.01563)"/><path id="DejaVuSans-53" d="M3425 4513v-616q-359 172-678 256-319 85-616 85-515 0-795-200t-280-569q0-310 186-468 186-157 705-254l381-78q706-135 1042-474t336-907q0-679-455-1029Q2797-91 1919-91q-331 0-705 75-373 75-773 222v650q384-215 753-325 369-109 725-109 540 0 834 212 294 213 294 607 0 343-211 537t-692 291l-385 75q-706 140-1022 440-315 300-315 835 0 619 436 975t1201 356q329 0 669-60 341-59 697-177z" transform="scale(.01563)"/><path id="DejaVuSans-f6" d="M1959 3097q-462 0-731-361t-269-989q0-628 267-989 268-361 733-361 460 0 728 362 269 363 269 988 0 622-269 986-268 364-728 364zm0 487q750 0 1178-488 429-487 429-1349 0-859-429-1349Q2709-91 1959-91q-753 0-1180 489-426 490-426 1349 0 862 426 1349 427 488 1180 488zm295 1266h634v-631h-634v631zm-1222 0h634v-631h-634v631z" transform="scale(.01563)"/><path id="DejaVuSans-59" d="M-13 4666h679l1293-1919 1285 1919h678L2272 2222V0h-634v2222L-13 4666z" transform="scale(.01563)"/></defs><use xlink:href="#DejaVuSans-40"/><use xlink:href="#DejaVuSans-6e" x="100"/><use xlink:href="#DejaVuSans-73" x="163.379"/><use xlink:href="#DejaVuSans-63" x="215.479"/><use xlink:href="#DejaVuSans-68" x="270.459"/><use xlink:href="#DejaVuSans-6c" x="333.838"/><use xlink:href="#DejaVuSans-6f" x="361.621"/><use xlink:href="#DejaVuSans-65" x="422.803"/><use xlink:href="#DejaVuSans-20" x="484.326"/><use xlink:href="#DejaVuSans-2f" x="516.113"/><use xlink:href="#DejaVuSans-20" x="549.805"/><use xlink:href="#DejaVuSans-67" x="581.592"/><use xlink:href="#DejaVuSans-69" x="645.068"/><use xlink:href="#DejaVuSans-74" x="672.852"/><use xlink:href="#DejaVuSans-68" x="712.061"/><use xlink:href="#DejaVuSans-75" x="775.439"/><use xlink:href="#DejaVuSans-62" x="838.818"/><use xlink:href="#DejaVuSans-2d" x="902.295"/><use xlink:href="#DejaVuSans-74" x="938.379"/><use xlink:href="#DejaVuSans-72" x="977.588"/><use xlink:href="#DejaVuSans-65" x="1016.451"/><use xlink:href="#DejaVuSans-6e" x="1077.975"/><use xlink:href="#DejaVuSans-64" x="1141.354"/><use xlink:href="#DejaVuSans-73" x="1204.83"/><use xlink:href="#DejaVuSans-20" x="1256.93"/><use xlink:href="#DejaVuSans-7c" x="1288.717"/><use xlink:href="#DejaVuSans-20" x="1322.408"/><use xlink:href="#DejaVuSans-4e" x="1354.195"/><use xlink:href="#DejaVuSans-69" x="1429"/><use xlink:href="#DejaVuSans-63" x="1456.783"/><use xlink:href="#DejaVuSans-6f" x="1511.764"/><use xlink:href="#DejaVuSans-20" x="1572.945"/><use xlink:href="#DejaVuSans-53" x="1604.732"/><use xlink:href="#DejaVuSans-63" x="1668.209"/><use xlink:href="#DejaVuSans-68" x="1723.189"/><use xlink:href="#DejaVuSans-6c" x="1786.568"/><use xlink:href="#DejaVuSans-f6" x="1814.352"/><use xlink:href="#DejaVuSans-6d" x="1875.533"/><use xlink:href="#DejaVuSans-65" x="1972.945"/><use xlink:href="#DejaVuSans-72" x="2034.469"/><use xlink:href="#DejaVuSans-20" x="2075.582"/><use xlink:href="#DejaVuSans-7c" x="2107.369"/><use xlink:href="#DejaVuSans-20" x="2141.061"/><use xlink:href="#DejaVuSans-43" x="2172.848"/><use xlink:href="#DejaVuSans-43" x="2242.672"/><use xlink:href="#DejaVuSans-20" x="2312.496"/><use xlink:href="#DejaVuSans-42" x="2344.283"/><use xlink:href="#DejaVuSans-59" x="2407.387"/></g><path id="line2d_26" d="m295.262 298.948 2.286-2.346 2.362-.389 2.286-.39 2.362-.4 2.362-.532 2.134-.6 2.362-.629 2.285-.61 2.362-1.118 2.286-.72 2.362-.8 2.362-1.042 2.286-1.002 2.362-2.208 2.286-1.115 2.362-.992 2.362-1.302 2.133-.908 2.362-.862 2.286-.816 2.362-.753 2.286-.72 2.362-.727 2.362-.647 2.286-.663 2.362-.612 2.286-.648 2.362-.435 2.362-.345 2.21-.396 2.361-.417 2.286-.385 2.362-.421 2.286-.385 2.362-.4 2.362-1.066 2.286-.548 2.362-.35 2.285-.336 2.362-.372 2.362-.27 2.134-.275 2.362-.248 2.286-.263 2.362-.267 2.286-.255 2.362-.26 2.362-.263 2.285-.225 2.362-.158 2.286-.196 2.362-.195 2.362-.203 2.134-.191 2.362-.235 2.285-.194 2.362-.23 2.286-.221 2.362-.218 2.362-.214 2.286-.216 2.362-.196 2.286-.19 2.362-.247 2.362-.26 2.133-.211 2.362-.323 2.286-.328 2.362-.263" clip-path="url(#p0b0f90ae95)" style="fill:none;stroke:#8c564b;stroke-width:1.5;stroke-linecap:square"/><path id="line2d_27" d="m190.877 298.948 2.362-.139 2.362-.059 2.134-.08 2.362-.102 2.285-.123 2.362-.112 2.286-.123 2.362-.176 2.362-.22 2.286-.357 2.362-.302 2.286-.319 2.362-.402 2.362-.47 2.133-.339 2.362-.59 2.286-.464 2.362-.46 2.286-.589 2.362-1.551 2.362-.544 2.286-.538 2.362-.622 2.286-.835 2.362-.663 2.362-.697 2.21-.563 2.361-.958 2.286-.756 2.362-.785 2.286-.71 2.362-.741 2.362-.852 2.286-.783 2.362-1.078 2.285-.968 2.362-.91 2.362-1.054 2.134-.808 2.362-.894 2.286-.96 2.362-.842 2.285-.887 2.362-.839 2.362-.83 2.286-.79 2.362-.732 2.286-.785 2.362-.784 2.362-.875 2.134-.544 2.362-.782 2.285-.668 2.362-.6 2.286-.58 2.362-.558 2.362-.513 2.286-.54 2.362-.52 2.286-.498 2.362-.514 2.362-.486 2.133-.369 2.362-.801 2.286-.501 2.362-.454 2.286-.385 2.362-.434 2.362-.426 2.286-.354 2.362-.306 2.286-.346 2.362-.305 2.362-.205 2.21-.235 2.361-.3 2.286-.255 2.362-.31 2.286-.277 2.362-.259 2.362-.295 2.286-.24 2.362-.203 2.285-.228 2.362-.248 2.362-.214 2.134-.156 2.362-.203 2.286-.189 2.362-.184 2.286-.141 2.362-.208 2.362-.13 2.285-.18 2.362-.135 2.286-.168 2.362-.142 2.362-.138 2.134-.152 2.362-.175 2.285-.355 2.362-.189 2.286-.141 2.362-.124 2.362-.136 2.286-.14 2.362-.128 2.286-.124 2.362-.112 2.362-.13 2.133-.123 2.362-.165 2.286-.208 2.362-.16" clip-path="url(#p0b0f90ae95)" style="fill:none;stroke:#9467bd;stroke-width:1.5;stroke-linecap:square"/><path id="line2d_28" d="m98.073 298.948 2.362-.538 25.449-.35 27.887-.365 16.153-.08 14.02-.724 9.295-.781 11.505-1.132 4.648-.64 9.296-1.163 9.22-1.418 4.647-1.04 2.286-.463 2.362-.594 9.296-1.97 4.724-1.485 2.21-.495 11.657-3.665 2.362-.638 4.648-1.822 2.285-.889 4.724-1.591 2.134-.867 4.648-2.123 4.647-1.748 7.01-2.842 2.362-1.387 2.286-1.144 2.362-1.335 2.362-1.484 6.781-3.625 4.648-1.99 4.724-1.759 16.153-6.125 4.648-1.926 4.648-1.537 16.23-5.045 4.647-1.48 4.648-1.468 2.362-.743 2.362-.545 2.286-.652 2.362-.54 2.285-.767 2.362-.577 2.362-1.335 4.496-1.146 2.286-.821 16.305-4.402 2.362-.55 2.362-.795 16.153-4.226 13.791-3.374 4.648-1.555 2.362-.683h0" clip-path="url(#p0b0f90ae95)" style="fill:none;stroke:#d62728;stroke-width:1.5;stroke-linecap:square"/><path id="line2d_29" d="m225.545 298.948 2.362-.734 2.286-.286 2.362-1.525 2.286-.289 2.362-.264 2.362-.366 2.286-.274 2.362-.311 2.286-.353 2.362-.502 2.362-.57 2.21-.562 2.361-.732 2.286-1.006 2.362-.69 2.286-.563 2.362-.684 2.362-.898 2.286-.749 2.362-1.042 2.285-.891 2.362-1.011 2.362-1.397 2.134-1.221 2.362-2.044 2.286-1.441 2.362-1.306 2.285-1.423 2.362-1.481 2.362-1.322 2.286-1.226 2.362-1.53 2.286-1.763 2.362-1.76 2.362-1.934 2.134-1.63 2.362-2.313 2.285-1.684 2.362-1.668 2.286-1.627 2.362-1.43 2.362-1.442 2.286-1.29 2.362-1.412 2.286-1.466 2.362-1.478 2.362-1.406 2.133-1.139 2.362-1.524 2.286-1.635 2.362-1.347 2.286-1.132 2.362-1.234 2.362-1.067 2.286-1.067 2.362-1.003 2.286-.955 2.362-.868 2.362-.677 2.21-.707 2.361-.762 2.286-.867 2.362-.781 2.286-.627 2.362-.669 2.362-.523 2.286-.792 2.362-.45 2.285-.317 2.362-.396 2.362-.42 2.134-.306 2.362-.37 2.286-.323 2.362-.333 2.286-.931 2.362-.436 2.362-.44 2.285-.795 2.362-.513 2.286-.56 2.362-.492 2.362-.551 2.134-.926 2.362-.745 2.285-.523 2.362-.478 2.286-.462 2.362-.487 2.362-.437 2.286-.522 2.362-.386 2.286-.513 2.362-.402 2.362-.424 2.133-.48 2.362-.622 2.286-.756 2.362-.576" clip-path="url(#p0b0f90ae95)" style="fill:none;stroke:#2ca02c;stroke-width:1.5;stroke-linecap:square"/><path id="line2d_30" d="m265.09 298.948 2.362-.006 2.286-.002 2.362-.004 2.285-.013 2.362-.005 2.362-3.64 2.134-.957 2.362-.802 2.286-.753 2.362-.834 2.285-.562 2.362-.563 2.362-1.251 2.286-.918 2.362-1.37 2.286-1.377 2.362-1.498 2.362-1.64 2.134-.97 2.362-1.15 2.285-1.737 2.362-1.87 2.286-1.118 2.362-1.073 2.362-1.15 2.286-1.2 2.362-2.132 2.286-1.656 2.362-2.174 2.362-1.514 2.133-1.306 2.362-1.674 2.286-1.632 2.362-1.626 2.286-1.32 2.362-1.434 2.362-1.274 2.286-1.158 2.362-1.848 2.286-1.279 2.362-1.362 2.362-1.044 2.21-1.195 2.361-1.374 2.286-1.38 2.362-1.36 2.286-1.169 2.362-1.292 2.362-1.283 2.286-2.078 2.362-1.127 2.285-1.256 2.362-1.286 2.362-1.223 2.134-.905 2.362-1.274 2.286-1.107 2.362-1.043 2.286-1.055 2.362-1.126 2.362-1.185 2.285-1.08 2.362-1.089 2.286-1.068 2.362-1.077 2.362-1.214 2.134-.881 2.362-1.26 2.285-1.155 2.362-1.219 2.286-1.152 2.362-1.044 2.362-1.184 2.286-1.453 2.362-1.202 2.286-1.167 2.362-1.125 2.362-1.541 2.133-1.559 2.362-2.293 2.286-2.434 2.362-1.988" clip-path="url(#p0b0f90ae95)" style="fill:none;stroke:#ff7f0e;stroke-width:1.5;stroke-linecap:square"/><path id="line2d_31" d="m244.213 298.948 2.286-18.068 2.362-2.414 2.362-2.713 2.21-1.85 2.361-2.16 2.286-2.877 2.362-3.436 2.286-2.755 2.362-2.471 2.362-2.529 2.286-2.95 2.362-3.728 2.285-3.507 2.362-4.17 2.362-3.972 2.134-5.838 2.362-5.452 2.286-4.163 2.362-4.75 2.285-4.355 2.362-4.215 2.362-4.416 2.286-4.117 2.362-5.37 2.286-6.515 2.362-5.875 2.362-5.203 2.134-4.292 2.362-5.644 2.285-4.99 2.362-4.94 2.286-3.803 2.362-3.648 2.362-3.285 2.286-3.527 2.362-3.66 2.286-3.522 2.362-3.14 2.362-3.318 2.133-2.72 2.362-4.375 2.286-3.59 2.362-3.281 2.286-2.429 2.362-2.81 2.362-2.4L353.17 107l2.362-2.586 2.286-2.61 2.362-2.088 2.362-1.712 2.21-1.624 2.361-2.054 2.286-2.076 2.362-2.167 2.286-1.838 2.362-1.923 2.362-1.73 2.286-1.63 2.362-1.583 2.285-2.093 2.362-1.896 2.362-1.599 2.134-1.338 2.362-1.649 2.286-1.843 2.362-1.466 2.286-1.597 2.362-1.525 2.362-1.695 2.285-1.332 2.362-1.503 2.286-1.378 2.362-1.348 2.362-1.905 2.134-1.28 2.362-1.586 2.285-1.306 2.362-1.545 2.286-1.43 2.362-1.385 2.362-1.379 2.286-1.235 2.362-1.31 2.286-1.295 2.362-1.177 2.362-1.406 2.133-1.689 2.362-1.87 2.286-2.246 2.362-2.237" clip-path="url(#p0b0f90ae95)" style="fill:none;stroke:#1f77b4;stroke-width:1.5;stroke-linecap:square"/></g></g><defs><clipPath id="p0b0f90ae95"><path d="M98.073 32.836h357.12v266.112H98.073z"/></clipPath></defs></svg>