<svg xmlns="http://www.w3.org/2000/svg" xmlns:xlink="http://www.w3.org/1999/xlink" width="891.145" height="436.23" viewBox="0 0 668.359 327.172"><defs><style>*{stroke-linejoin:round;stroke-linecap:butt}</style></defs><g id="figure_1"><path id="patch_1" d="M0 327.172h668.359V0H0v327.172z" style="fill:none"/><g id="axes_1"><path id="patch_2" d="M98.073 283.645h357.12V17.533H98.073v266.112z" style="fill:none"/><g id="matplotlib.axis_1"><g id="xtick_1"><g id="line2d_1"><defs><path id="m3a12727f8b" d="M0 0v3.5" style="stroke:#b0b0b0;stroke-width:.4"/></defs><use xlink:href="#m3a12727f8b" x="110.807" y="283.645" style="fill:#b0b0b0;stroke:#b0b0b0;stroke-width:.4"/></g><g id="text_1" style="fill:#b0b0b0" transform="matrix(.14 0 0 -.14 92.992 301.283)"><defs><path id="DejaVuSans-32" d="M1228 531h2203V0H469v531q359 372 979 998 621 627 780 809 303 340 423 576 121 236 121 464 0 372-261 606-261 235-680 235-297 0-627-103-329-103-704-313v638q381 153 712 231 332 78 607 78 725 0 1156-363 431-362 431-968 0-288-108-546-107-257-392-607-78-91-497-524-418-433-1181-1211z" transform="scale(.01563)"/><path id="DejaVuSans-30" d="M2034 4250q-487 0-733-480-245-479-245-1442 0-959 245-1439 246-480 733-480 491 0 736 480 246 480 246 1439 0 963-246 1442-245 480-736 480zm0 500q785 0 1199-621 414-620 414-1801 0-1178-414-1799Q2819-91 2034-91q-784 0-1198 620-414 621-414 1799 0 1181 414 1801 414 621 1198 621z" transform="scale(.01563)"/><path id="DejaVuSans-31" d="M794 531h1031v3560L703 3866v575l1116 225h631V531h1031V0H794v531z" transform="scale(.01563)"/></defs><use xlink:href="#DejaVuSans-32"/><use xlink:href="#DejaVuSans-30" x="63.623"/><use xlink:href="#DejaVuSans-31" x="127.246"/><use xlink:href="#DejaVuSans-32" x="190.869"/></g></g><g id="xtick_2"><use xlink:href="#m3a12727f8b" id="line2d_2" x="171.644" y="283.645" style="fill:#b0b0b0;stroke:#b0b0b0;stroke-width:.4"/><g id="text_2" style="fill:#b0b0b0" transform="matrix(.14 0 0 -.14 153.83 301.283)"><defs><path id="DejaVuSans-34" d="M2419 4116 825 1625h1594v2491zm-166 550h794V1625h666v-525h-666V0h-628v1100H313v609l1940 2957z" transform="scale(.01563)"/></defs><use xlink:href="#DejaVuSans-32"/><use xlink:href="#DejaVuSans-30" x="63.623"/><use xlink:href="#DejaVuSans-31" x="127.246"/><use xlink:href="#DejaVuSans-34" x="190.869"/></g></g><g id="xtick_3"><use xlink:href="#m3a12727f8b" id="line2d_3" x="232.399" y="283.645" style="fill:#b0b0b0;stroke:#b0b0b0;stroke-width:.4"/><g id="text_3" style="fill:#b0b0b0" transform="matrix(.14 0 0 -.14 214.584 301.283)"><defs><path id="DejaVuSans-36" d="M2113 2584q-425 0-674-291-248-290-248-796 0-503 248-796 249-292 674-292t673 292q248 293 248 796 0 506-248 796-248 291-673 291zm1253 1979v-575q-238 112-480 171-242 60-480 60-625 0-955-422-329-422-376-1275 184 272 462 417 279 145 613 145 703 0 1111-427 408-426 408-1160 0-719-425-1154Q2819-91 2113-91q-810 0-1238 620-428 621-428 1799 0 1106 525 1764t1409 658q238 0 480-47t505-140z" transform="scale(.01563)"/></defs><use xlink:href="#DejaVuSans-32"/><use xlink:href="#DejaVuSans-30" x="63.623"/><use xlink:href="#DejaVuSans-31" x="127.246"/><use xlink:href="#DejaVuSans-36" x="190.869"/></g></g><g id="xtick_4"><use xlink:href="#m3a12727f8b" id="line2d_4" x="293.237" y="283.645" style="fill:#b0b0b0;stroke:#b0b0b0;stroke-width:.4"/><g id="text_4" style="fill:#b0b0b0" transform="matrix(.14 0 0 -.14 275.422 301.283)"><defs><path id="DejaVuSans-38" d="M2034 2216q-450 0-708-241-257-241-257-662 0-422 257-663 258-241 708-241t709 242q260 243 260 662 0 421-258 662-257 241-711 241zm-631 268q-406 100-633 378-226 279-226 679 0 559 398 884 399 325 1092 325 697 0 1094-325t397-884q0-400-227-679-226-278-629-378 456-106 710-416 255-309 255-755 0-679-414-1042Q2806-91 2034-91q-771 0-1186 362-414 363-414 1042 0 446 256 755 257 310 713 416zm-231 997q0-362 226-565 227-203 636-203 407 0 636 203 230 203 230 565 0 363-230 566-229 203-636 203-409 0-636-203-226-203-226-566z" transform="scale(.01563)"/></defs><use xlink:href="#DejaVuSans-32"/><use xlink:href="#DejaVuSans-30" x="63.623"/><use xlink:href="#DejaVuSans-31" x="127.246"/><use xlink:href="#DejaVuSans-38" x="190.869"/></g></g><g id="xtick_5"><use xlink:href="#m3a12727f8b" id="line2d_5" x="353.991" y="283.645" style="fill:#b0b0b0;stroke:#b0b0b0;stroke-width:.4"/><g id="text_5" style="fill:#b0b0b0" transform="matrix(.14 0 0 -.14 336.176 301.283)"><use xlink:href="#DejaVuSans-32"/><use xlink:href="#DejaVuSans-30" x="63.623"/><use xlink:href="#DejaVuSans-32" x="127.246"/><use xlink:href="#DejaVuSans-30" x="190.869"/></g></g><g id="xtick_6"><use xlink:href="#m3a12727f8b" id="line2d_6" x="414.829" y="283.645" style="fill:#b0b0b0;stroke:#b0b0b0;stroke-width:.4"/><g id="text_6" style="fill:#b0b0b0" transform="matrix(.14 0 0 -.14 397.014 301.283)"><use xlink:href="#DejaVuSans-32"/><use xlink:href="#DejaVuSans-30" x="63.623"/><use xlink:href="#DejaVuSans-32" x="127.246"/><use xlink:href="#DejaVuSans-32" x="190.869"/></g></g></g><g id="matplotlib.axis_2"><g id="ytick_1"><path id="line2d_7" d="M98.073 283.645h357.12" clip-path="url(#p7a0f829a8e)" style="fill:none;stroke:#b0b0b0;stroke-width:.3;stroke-linecap:square"/><g id="line2d_8"><defs><path id="m7d8496f6ee" d="M0 0h-3.5" style="stroke:#b0b0b0;stroke-width:.3"/></defs><use xlink:href="#m7d8496f6ee" x="98.073" y="283.645" style="fill:#b0b0b0;stroke:#b0b0b0;stroke-width:.3"/></g><use xlink:href="#DejaVuSans-30" id="text_7" style="fill:#b0b0b0" transform="matrix(.14 0 0 -.14 82.166 288.964)"/></g><g id="ytick_2"><path id="line2d_9" d="M98.073 229.274h357.12" clip-path="url(#p7a0f829a8e)" style="fill:none;stroke:#b0b0b0;stroke-width:.3;stroke-linecap:square"/><use xlink:href="#m7d8496f6ee" id="line2d_10" x="98.073" y="229.274" style="fill:#b0b0b0;stroke:#b0b0b0;stroke-width:.3"/><g id="text_8" style="fill:#b0b0b0" transform="matrix(.14 0 0 -.14 55.443 234.593)"><defs><path id="DejaVuSans-35" d="M691 4666h2478v-532H1269V2991q137 47 274 70 138 23 276 23 781 0 1237-428 457-428 457-1159 0-753-469-1171Q2575-91 1722-91q-294 0-599 50Q819 9 494 109v635q281-153 581-228t634-75q541 0 856 284 316 284 316 772 0 487-316 771-315 285-856 285-253 0-505-56-251-56-513-175v2344z" transform="scale(.01563)"/></defs><use xlink:href="#DejaVuSans-35"/><use xlink:href="#DejaVuSans-30" x="63.623"/><use xlink:href="#DejaVuSans-30" x="127.246"/><use xlink:href="#DejaVuSans-30" x="190.869"/></g></g><g id="ytick_3"><path id="line2d_11" d="M98.073 174.904h357.12" clip-path="url(#p7a0f829a8e)" style="fill:none;stroke:#b0b0b0;stroke-width:.3;stroke-linecap:square"/><use xlink:href="#m7d8496f6ee" id="line2d_12" x="98.073" y="174.904" style="fill:#b0b0b0;stroke:#b0b0b0;stroke-width:.3"/><g id="text_9" style="fill:#b0b0b0" transform="matrix(.14 0 0 -.14 46.536 180.223)"><use xlink:href="#DejaVuSans-31"/><use xlink:href="#DejaVuSans-30" x="63.623"/><use xlink:href="#DejaVuSans-30" x="127.246"/><use xlink:href="#DejaVuSans-30" x="190.869"/><use xlink:href="#DejaVuSans-30" x="254.492"/></g></g><g id="ytick_4"><path id="line2d_13" d="M98.073 120.533h357.12" clip-path="url(#p7a0f829a8e)" style="fill:none;stroke:#b0b0b0;stroke-width:.3;stroke-linecap:square"/><use xlink:href="#m7d8496f6ee" id="line2d_14" x="98.073" y="120.533" style="fill:#b0b0b0;stroke:#b0b0b0;stroke-width:.3"/><g id="text_10" style="fill:#b0b0b0" transform="matrix(.14 0 0 -.14 46.536 125.852)"><use xlink:href="#DejaVuSans-31"/><use xlink:href="#DejaVuSans-35" x="63.623"/><use xlink:href="#DejaVuSans-30" x="127.246"/><use xlink:href="#DejaVuSans-30" x="190.869"/><use xlink:href="#DejaVuSans-30" x="254.492"/></g></g><g id="ytick_5"><path id="line2d_15" d="M98.073 66.162h357.12" clip-path="url(#p7a0f829a8e)" style="fill:none;stroke:#b0b0b0;stroke-width:.3;stroke-linecap:square"/><use xlink:href="#m7d8496f6ee" id="line2d_16" x="98.073" y="66.162" style="fill:#b0b0b0;stroke:#b0b0b0;stroke-width:.3"/><g id="text_11" style="fill:#b0b0b0" transform="matrix(.14 0 0 -.14 46.536 71.481)"><use xlink:href="#DejaVuSans-32"/><use xlink:href="#DejaVuSans-30" x="63.623"/><use xlink:href="#DejaVuSans-30" x="127.246"/><use xlink:href="#DejaVuSans-30" x="190.869"/><use xlink:href="#DejaVuSans-30" x="254.492"/></g></g><g id="text_12" style="fill:#b0b0b0" transform="matrix(.14 0 0 -.14 7.2 36.64)"><defs><path id="DejaVuSans-47" d="M3809 666v1253H2778v519h1656V434q-365-259-806-392-440-133-940-133-1094 0-1712 639-617 640-617 1780 0 1144 617 1783 618 639 1712 639 456 0 867-113 411-112 758-331v-672q-350 297-744 447t-828 150q-857 0-1287-478-429-478-429-1425 0-944 429-1422 430-478 1287-478 334 0 596 58 263 58 472 180z" transform="scale(.01563)"/><path id="DejaVuSans-69" d="M603 3500h575V0H603v3500zm0 1363h575v-729H603v729z" transform="scale(.01563)"/><path id="DejaVuSans-74" d="M1172 4494v-994h1184v-447H1172V1153q0-428 117-550t477-122h590V0h-590q-666 0-919 248-253 249-253 905v1900H172v447h422v994h578z" transform="scale(.01563)"/><path id="DejaVuSans-48" d="M628 4666h631V2753h2294v1913h631V0h-631v2222H1259V0H628v4666z" transform="scale(.01563)"/><path id="DejaVuSans-75" d="M544 1381v2119h575V1403q0-497 193-746 194-248 582-248 465 0 735 297 271 297 271 810v1984h575V0h-575v538q-209-319-486-474-276-155-642-155-603 0-916 375-312 375-312 1097zm1447 2203z" transform="scale(.01563)"/><path id="DejaVuSans-62" d="M3116 1747q0 634-261 995t-717 361q-457 0-718-361t-261-995q0-634 261-995t718-361q456 0 717 361t261 995zM1159 2969q182 312 458 463 277 152 661 152 638 0 1036-506 399-506 399-1331T3314 415Q2916-91 2278-91q-384 0-661 152-276 152-458 464V0H581v4863h578V2969z" transform="scale(.01563)"/><path id="DejaVuSans-73" d="M2834 3397v-544q-243 125-506 187-262 63-544 63-428 0-642-131t-214-394q0-200 153-314t616-217l197-44q612-131 870-370t258-667q0-488-386-773Q2250-91 1575-91q-281 0-586 55T347 128v594q319-166 628-249 309-82 613-82 406 0 624 139 219 139 219 392 0 234-158 359-157 125-692 241l-200 47q-534 112-772 345-237 233-237 639 0 494 350 762 350 269 994 269 318 0 599-47 282-46 519-140z" transform="scale(.01563)"/><path id="DejaVuSans-61" d="M2194 1759q-697 0-966-159t-269-544q0-306 202-486 202-179 548-179 479 0 768 339t289 901v128h-572zm1147 238V0h-575v531q-197-318-491-470T1556-91q-537 0-855 302-317 302-317 808 0 590 395 890 396 300 1180 300h807v57q0 397-261 614t-733 217q-300 0-585-72-284-72-546-216v532q315 122 612 182 297 61 578 61 760 0 1135-394 375-393 375-1193z" transform="scale(.01563)"/><path id="DejaVuSans-72" d="M2631 2963q-97 56-211 82-114 27-251 27-488 0-749-317t-261-911V0H581v3500h578v-544q182 319 472 473 291 155 707 155 59 0 131-8 72-7 159-23l3-590z" transform="scale(.01563)"/></defs><use xlink:href="#DejaVuSans-47"/><use xlink:href="#DejaVuSans-69" x="77.49"/><use xlink:href="#DejaVuSans-74" x="105.273"/><use xlink:href="#DejaVuSans-48" x="144.482"/><use xlink:href="#DejaVuSans-75" x="219.678"/><use xlink:href="#DejaVuSans-62" x="283.057"/><use xlink:href="#DejaVuSans-20" x="346.533"/><use xlink:href="#DejaVuSans-73" x="378.32"/><use xlink:href="#DejaVuSans-74" x="430.42"/><use xlink:href="#DejaVuSans-61" x="469.629"/><use xlink:href="#DejaVuSans-72" x="530.908"/><use xlink:href="#DejaVuSans-73" x="572.021"/></g></g><path id="line2d_17" d="m98.073 283.645 2.58-1.403 12.734-.195 32.79-.348 2.58-.11 2.497-.282 2.58-.12 7.657-.826 2.497-.587 7.656-.75 7.49-.936 5.077-1.435 10.154-1.588 2.58-.533 2.497-.695 2.58-.327 2.58-.837 15.063-3.132 7.657-1.62 7.657-1.816 2.413-.38 2.58-.697 2.497-.521 2.58-.338 5.077-.99 2.58-.456 5.077-.674 5.076-.718 2.58-.641 12.484-1.653 7.657-.718 7.657-.609 4.91-.565 5.077-.664 7.656-.609 10.154-.706 5.16-.327 9.987-.554 15.23-.914 12.65-.674 10.237-.51 15.064-.686 7.657-.424 20.39-.62 15.064-.457 22.72-.478h0" clip-path="url(#p7a0f829a8e)" style="fill:none;stroke:#7f7f7f;stroke-width:1.5;stroke-linecap:square"/><path id="line2d_18" d="m336.18 283.645 2.498-.01h10.236l2.497-.012h7.574l2.58-.794 2.496-.924 2.58-.783 2.497-.51 2.58-.632 2.58-.348 2.497-.543 2.58-1.012 2.497-.967 2.58-.392 2.58-27.174 2.33-10.048 2.58-2.131 2.497-1.175 2.58-1.12 2.496-.968 2.58-.685 2.58-1.098 2.497-.826 2.58-1.501 2.497-1.316 2.58-.891 2.58-1.033 2.33-2.067 2.58-2 2.497-1.099 2.58-.815 2.497-.696 2.58-.881 2.58-2.164 2.496-.99 2.58-1 2.497-1.892 2.58-1.066 2.58-.826 2.33-1.599 2.58-.815 2.497-.805" clip-path="url(#p7a0f829a8e)" style="fill:none;stroke:#e377c2;stroke-width:1.5;stroke-linecap:square"/><path id="line2d_19" d="m209.512 283.645 2.497-.01 2.58-.969 2.496-.239 2.58-.152 2.58-3.11 2.497-1.088 2.58-.26 2.497-1.599 2.58-.609 2.58-.913 2.413-.381 2.58-.391 2.497-.36 2.58-.282 2.497-.435 2.58-.402 2.58-.49 2.497-.543 2.58-.337 2.496-.283 2.58-.38 2.58-.555 2.33-2.197 2.58-.718 2.497-1.653 2.58-.51 2.497-.784 2.58-.663 2.58-.598 2.497-.62 2.58-1.196 2.497-.75 2.58-.62 2.58-.674 2.33-.664 2.58-.641 2.497-.979 2.58-.609 2.496-.413 2.58-1.087 2.58-.718 2.497-.566 2.58-1.087 2.497-1.555 2.58-.772 2.58-.511 2.33-.674 2.58-.794 2.497-.761 2.58-.762 2.497-.652 2.58-.663 2.58-.674 2.496-.642 2.58-.674 2.497-.772 2.58-.631 2.58-.696 2.414-.642 2.58-.782 2.496-.849 2.58-1 2.497-.761 2.58-.805 2.58-.87 2.497-.783 2.58-.587 2.497-.837 2.58-.838 2.58-.543 2.33-.718 2.58-.435 2.497-.74 2.58-.728 2.496-.652 2.58-.664 2.58-.652 2.497-2.142 2.58-1.066 2.497-.99 2.58-1.174 2.58-.88 2.33-.751 2.58-.827 2.497-.772 2.58-.978 2.497-.892 2.58-1.425 2.58-.902 2.496-1.098 2.58-.838 2.497-.99 2.58-1.01 2.58-.86 2.33-1.098 2.58-1.044 2.497-1.044" clip-path="url(#p7a0f829a8e)" style="fill:none;stroke:#8c564b;stroke-width:1.5;stroke-linecap:square"/><g id="text_13" style="fill:#1f77b4" transform="matrix(.14 0 0 -.14 465.907 17.838)"><defs><path id="DejaVuSans-67" d="M2906 1791q0 625-258 968-257 344-723 344-462 0-720-344-258-343-258-968 0-622 258-966t720-344q466 0 723 344 258 344 258 966zm575-1357q0-893-397-1329-396-436-1215-436-303 0-572 45t-522 139v559q253-137 500-202 247-66 503-66 566 0 847 295t281 892v285q-178-310-456-463T1784 0Q1141 0 747 490 353 981 353 1791q0 812 394 1302 394 491 1037 491 388 0 666-153t456-462v531h575V434z" transform="scale(.01563)"/><path id="DejaVuSans-6e" d="M3513 2113V0h-575v2094q0 497-194 743-194 247-581 247-466 0-735-297-269-296-269-809V0H581v3500h578v-544q207 316 486 472 280 156 646 156 603 0 912-373 310-373 310-1098z" transform="scale(.01563)"/><path id="DejaVuSans-6c" d="M603 4863h575V0H603v4863z" transform="scale(.01563)"/><path id="DejaVuSans-70" d="M1159 525v-1856H581v4831h578v-531q182 312 458 463 277 152 661 152 638 0 1036-506 399-506 399-1331T3314 415Q2916-91 2278-91q-384 0-661 152-276 152-458 464zm1957 1222q0 634-261 995t-717 361q-457 0-718-361t-261-995q0-634 261-995t718-361q456 0 717 361t261 995z" transform="scale(.01563)"/><path id="DejaVuSans-2f" d="M1625 4666h531L531-594H0l1625 5260z" transform="scale(.01563)"/><path id="DejaVuSans-53" d="M3425 4513v-616q-359 172-678 256-319 85-616 85-515 0-795-200t-280-569q0-310 186-468 186-157 705-254l381-78q706-135 1042-474t336-907q0-679-455-1029Q2797-91 1919-91q-331 0-705 75-373 75-773 222v650q384-215 753-325 369-109 725-109 540 0 834 212 294 213 294 607 0 343-211 537t-692 291l-385 75q-706 140-1022 440-315 300-315 835 0 619 436 975t1201 356q329 0 669-60 341-59 697-177z" transform="scale(.01563)"/><path id="DejaVuSans-2d" d="M313 2009h1684v-512H313v512z" transform="scale(.01563)"/><path id="DejaVuSans-41" d="m2188 4044-857-2322h1716l-859 2322zm-357 622h716L4325 0h-656l-425 1197H1141L716 0H50l1781 4666z" transform="scale(.01563)"/><path id="DejaVuSans-64" d="M2906 2969v1894h575V0h-575v525q-181-312-458-464-276-152-664-152-634 0-1033 506-398 507-398 1332t398 1331q399 506 1033 506 388 0 664-152 277-151 458-463zM947 1747q0-634 261-995t717-361q456 0 718 361 263 361 263 995t-263 995q-262 361-718 361t-717-361q-261-361-261-995z" transform="scale(.01563)"/><path id="DejaVuSans-6f" d="M1959 3097q-462 0-731-361t-269-989q0-628 267-989 268-361 733-361 460 0 728 362 269 363 269 988 0 622-269 986-268 364-728 364zm0 487q750 0 1178-488 429-487 429-1349 0-859-429-1349Q2709-91 1959-91q-753 0-1180 489-426 490-426 1349 0 862 426 1349 427 488 1180 488z" transform="scale(.01563)"/></defs><use xlink:href="#DejaVuSans-73"/><use xlink:href="#DejaVuSans-69" x="52.1"/><use xlink:href="#DejaVuSans-67" x="79.883"/><use xlink:href="#DejaVuSans-6e" x="143.359"/><use xlink:href="#DejaVuSans-61" x="206.738"/><use xlink:href="#DejaVuSans-6c" x="268.018"/><use xlink:href="#DejaVuSans-61" x="295.801"/><use xlink:href="#DejaVuSans-70" x="357.08"/><use xlink:href="#DejaVuSans-70" x="420.557"/><use xlink:href="#DejaVuSans-2f" x="484.033"/><use xlink:href="#DejaVuSans-53" x="517.725"/><use xlink:href="#DejaVuSans-69" x="581.201"/><use xlink:href="#DejaVuSans-67" x="608.984"/><use xlink:href="#DejaVuSans-6e" x="672.461"/><use xlink:href="#DejaVuSans-61" x="735.84"/><use xlink:href="#DejaVuSans-6c" x="797.119"/><use xlink:href="#DejaVuSans-2d" x="824.902"/><use xlink:href="#DejaVuSans-41" x="858.736"/><use xlink:href="#DejaVuSans-6e" x="927.145"/><use xlink:href="#DejaVuSans-64" x="990.523"/><use xlink:href="#DejaVuSans-72" x="1054"/><use xlink:href="#DejaVuSans-6f" x="1092.863"/><use xlink:href="#DejaVuSans-69" x="1154.045"/><use xlink:href="#DejaVuSans-64" x="1181.828"/></g><g id="text_14" style="fill:#ff7f0e" transform="matrix(.14 0 0 -.14 465.907 31.838)"><defs><path id="DejaVuSans-71" d="M947 1747q0-634 261-995t717-361q456 0 718 361 263 361 263 995t-263 995q-262 361-718 361t-717-361q-261-361-261-995zM2906 525q-181-312-458-464-276-152-664-152-634 0-1033 506-398 507-398 1332t398 1331q399 506 1033 506 388 0 664-152 277-151 458-463v531h575v-4831h-575V525z" transform="scale(.01563)"/></defs><use xlink:href="#DejaVuSans-6e"/><use xlink:href="#DejaVuSans-73" x="63.379"/><use xlink:href="#DejaVuSans-71" x="115.479"/><use xlink:href="#DejaVuSans-69" x="178.955"/><use xlink:href="#DejaVuSans-6f" x="206.738"/><use xlink:href="#DejaVuSans-2f" x="267.92"/><use xlink:href="#DejaVuSans-6e" x="301.611"/><use xlink:href="#DejaVuSans-73" x="364.99"/><use xlink:href="#DejaVuSans-71" x="417.09"/></g><g id="text_15" style="fill:#2ca02c" transform="matrix(.14 0 0 -.14 465.907 146.84)"><defs><path id="DejaVuSans-63" d="M3122 3366v-538q-244 135-489 202t-495 67q-560 0-870-355-309-354-309-995t309-996q310-354 870-354 250 0 495 67t489 202V134Q2881 22 2623-34q-257-57-548-57-791 0-1257 497-465 497-465 1341 0 856 470 1346 471 491 1290 491 265 0 518-55 253-54 491-163z" transform="scale(.01563)"/><path id="DejaVuSans-68" d="M3513 2113V0h-575v2094q0 497-194 743-194 247-581 247-466 0-735-297-269-296-269-809V0H581v4863h578V2956q207 316 486 472 280 156 646 156 603 0 912-373 310-373 310-1098z" transform="scale(.01563)"/><path id="DejaVuSans-65" d="M3597 1894v-281H953q38-594 358-905t892-311q331 0 642 81t618 244V178Q3153 47 2828-22t-659-69q-838 0-1327 487-489 488-489 1320 0 859 464 1363 464 505 1252 505 706 0 1117-455 411-454 411-1235zm-575 169q-6 471-264 752-258 282-683 282-481 0-770-272t-333-766l2050 4z" transform="scale(.01563)"/></defs><use xlink:href="#DejaVuSans-61"/><use xlink:href="#DejaVuSans-70" x="61.279"/><use xlink:href="#DejaVuSans-61" x="124.756"/><use xlink:href="#DejaVuSans-63" x="186.035"/><use xlink:href="#DejaVuSans-68" x="241.016"/><use xlink:href="#DejaVuSans-65" x="304.395"/><use xlink:href="#DejaVuSans-2f" x="365.918"/><use xlink:href="#DejaVuSans-70" x="399.609"/><use xlink:href="#DejaVuSans-75" x="463.086"/><use xlink:href="#DejaVuSans-6c" x="526.465"/><use xlink:href="#DejaVuSans-73" x="554.248"/><use xlink:href="#DejaVuSans-61" x="606.348"/><use xlink:href="#DejaVuSans-72" x="667.627"/></g><g id="text_16" style="fill:#d62728" transform="matrix(.14 0 0 -.14 465.907 168.967)"><use xlink:href="#DejaVuSans-74"/><use xlink:href="#DejaVuSans-69" x="39.209"/><use xlink:href="#DejaVuSans-6e" x="66.992"/><use xlink:href="#DejaVuSans-6f" x="130.371"/><use xlink:href="#DejaVuSans-64" x="191.553"/><use xlink:href="#DejaVuSans-65" x="255.029"/><use xlink:href="#DejaVuSans-2f" x="316.553"/><use xlink:href="#DejaVuSans-63" x="350.244"/><use xlink:href="#DejaVuSans-68" x="405.225"/><use xlink:href="#DejaVuSans-61" x="468.604"/><use xlink:href="#DejaVuSans-74" x="529.883"/></g><g id="text_17" style="fill:#9467bd" transform="matrix(.14 0 0 -.14 465.907 182.967)"><defs><path id="DejaVuSans-76" d="M191 3500h609L1894 563l1094 2937h609L2284 0h-781L191 3500z" transform="scale(.01563)"/><path id="DejaVuSans-6d" d="M3328 2828q216 388 516 572t706 184q547 0 844-383 297-382 297-1088V0h-578v2094q0 503-179 746-178 244-543 244-447 0-707-297-259-296-259-809V0h-578v2094q0 506-178 748t-550 242q-441 0-701-298-259-298-259-808V0H581v3500h578v-544q197 322 472 475t653 153q382 0 649-194 267-193 395-562z" transform="scale(.01563)"/><path id="DejaVuSans-77" d="M269 3500h575l719-2731 715 2731h678l719-2731 716 2731h575L4050 0h-678l-753 2869L1863 0h-679L269 3500z" transform="scale(.01563)"/></defs><use xlink:href="#DejaVuSans-76"/><use xlink:href="#DejaVuSans-65" x="59.18"/><use xlink:href="#DejaVuSans-63" x="120.703"/><use xlink:href="#DejaVuSans-74" x="175.684"/><use xlink:href="#DejaVuSans-6f" x="214.893"/><use xlink:href="#DejaVuSans-72" x="276.074"/><use xlink:href="#DejaVuSans-2d" x="310.813"/><use xlink:href="#DejaVuSans-69" x="346.896"/><use xlink:href="#DejaVuSans-6d" x="374.68"/><use xlink:href="#DejaVuSans-2f" x="472.092"/><use xlink:href="#DejaVuSans-65" x="505.783"/><use xlink:href="#DejaVuSans-6c" x="567.307"/><use xlink:href="#DejaVuSans-65" x="595.09"/><use xlink:href="#DejaVuSans-6d" x="656.613"/><use xlink:href="#DejaVuSans-65" x="754.025"/><use xlink:href="#DejaVuSans-6e" x="815.549"/><use xlink:href="#DejaVuSans-74" x="878.928"/><use xlink:href="#DejaVuSans-2d" x="918.137"/><use xlink:href="#DejaVuSans-77" x="954.221"/><use xlink:href="#DejaVuSans-65" x="1036.008"/><use xlink:href="#DejaVuSans-62" x="1097.531"/></g><g id="text_18" style="fill:#8c564b" transform="matrix(.14 0 0 -.14 465.907 203.987)"><defs><path id="DejaVuSans-66" d="M2375 4863v-479h-550q-309 0-430-125-120-125-120-450v-309h947v-447h-947V0H697v3053H147v447h550v244q0 584 272 851 272 268 862 268h544z" transform="scale(.01563)"/></defs><use xlink:href="#DejaVuSans-63"/><use xlink:href="#DejaVuSans-65" x="54.98"/><use xlink:href="#DejaVuSans-6e" x="116.504"/><use xlink:href="#DejaVuSans-74" x="179.883"/><use xlink:href="#DejaVuSans-72" x="219.092"/><use xlink:href="#DejaVuSans-69" x="260.205"/><use xlink:href="#DejaVuSans-66" x="287.988"/><use xlink:href="#DejaVuSans-75" x="323.193"/><use xlink:href="#DejaVuSans-67" x="386.572"/><use xlink:href="#DejaVuSans-61" x="450.049"/><use xlink:href="#DejaVuSans-6c" x="511.328"/><use xlink:href="#DejaVuSans-2f" x="539.111"/><use xlink:href="#DejaVuSans-63" x="572.803"/><use xlink:href="#DejaVuSans-65" x="627.783"/><use xlink:href="#DejaVuSans-6e" x="689.307"/><use xlink:href="#DejaVuSans-74" x="752.686"/><use xlink:href="#DejaVuSans-72" x="791.895"/><use xlink:href="#DejaVuSans-69" x="833.008"/><use xlink:href="#DejaVuSans-66" x="860.791"/><use xlink:href="#DejaVuSans-75" x="895.996"/><use xlink:href="#DejaVuSans-67" x="959.375"/><use xlink:href="#DejaVuSans-6f" x="1022.852"/></g><g id="text_19" style="fill:#e377c2" transform="matrix(.14 0 0 -.14 465.907 217.987)"><defs><path id="DejaVuSans-79" d="M2059-325q-243-625-475-815-231-191-618-191H506v481h338q237 0 368 113 132 112 291 531l103 262L191 3500h609L1894 763l1094 2737h609L2059-325z" transform="scale(.01563)"/></defs><use xlink:href="#DejaVuSans-62"/><use xlink:href="#DejaVuSans-65" x="63.477"/><use xlink:href="#DejaVuSans-72" x="125"/><use xlink:href="#DejaVuSans-74" x="166.113"/><use xlink:href="#DejaVuSans-79" x="205.322"/><use xlink:href="#DejaVuSans-2f" x="264.502"/><use xlink:href="#DejaVuSans-62" x="298.193"/><use xlink:href="#DejaVuSans-65" x="361.67"/><use xlink:href="#DejaVuSans-72" x="423.193"/><use xlink:href="#DejaVuSans-74" x="464.307"/><use xlink:href="#DejaVuSans-79" x="503.516"/></g><g id="text_20" style="fill:#7f7f7f" transform="matrix(.14 0 0 -.14 465.907 253.385)"><defs><path id="DejaVuSans-43" d="M4122 4306v-665q-319 297-680 443-361 147-767 147-800 0-1225-489t-425-1414q0-922 425-1411t1225-489q406 0 767 147t680 444V359q-331-225-702-338-370-112-782-112-1060 0-1670 648-609 649-609 1771 0 1125 609 1773 610 649 1670 649 418 0 788-111 371-111 696-333z" transform="scale(.01563)"/><path id="DejaVuSans-4f" d="M2522 4238q-688 0-1093-513-404-512-404-1397 0-881 404-1394 405-512 1093-512 687 0 1089 512 402 513 402 1394 0 885-402 1397-402 513-1089 513zm0 512q981 0 1568-658 588-658 588-1764 0-1103-588-1761Q3503-91 2522-91q-984 0-1574 656-589 657-589 1763t589 1764q590 658 1574 658z" transform="scale(.01563)"/></defs><use xlink:href="#DejaVuSans-43"/><use xlink:href="#DejaVuSans-68" x="69.824"/><use xlink:href="#DejaVuSans-61" x="133.203"/><use xlink:href="#DejaVuSans-74" x="194.482"/><use xlink:href="#DejaVuSans-53" x="233.691"/><use xlink:href="#DejaVuSans-65" x="297.168"/><use xlink:href="#DejaVuSans-63" x="358.691"/><use xlink:href="#DejaVuSans-75" x="413.672"/><use xlink:href="#DejaVuSans-72" x="477.051"/><use xlink:href="#DejaVuSans-65" x="515.914"/><use xlink:href="#DejaVuSans-2f" x="577.438"/><use xlink:href="#DejaVuSans-43" x="611.129"/><use xlink:href="#DejaVuSans-68" x="680.953"/><use xlink:href="#DejaVuSans-61" x="744.332"/><use xlink:href="#DejaVuSans-74" x="805.611"/><use xlink:href="#DejaVuSans-53" x="844.82"/><use xlink:href="#DejaVuSans-65" x="908.297"/><use xlink:href="#DejaVuSans-63" x="969.82"/><use xlink:href="#DejaVuSans-75" x="1024.801"/><use xlink:href="#DejaVuSans-72" x="1088.18"/><use xlink:href="#DejaVuSans-65" x="1127.043"/><use xlink:href="#DejaVuSans-2d" x="1188.566"/><use xlink:href="#DejaVuSans-69" x="1224.65"/><use xlink:href="#DejaVuSans-4f" x="1252.434"/><use xlink:href="#DejaVuSans-53" x="1331.145"/></g><g id="text_21" style="fill:#b0b0b0" transform="matrix(.09716 0 0 -.09716 98.073 317.681)"><defs><path id="DejaVuSans-40" d="M2381 1678q0-447 222-702 222-254 610-254 384 0 604 256 221 256 221 700 0 438-225 695-225 258-607 258-378 0-602-256-223-256-223-697zm1703-934q-187-241-429-355t-564-114q-538 0-874 389t-336 1014q0 625 337 1015 338 391 873 391 322 0 565-117 244-117 428-354v409h447V722q457 69 714 417 258 349 258 902 0 334-99 628-98 294-298 544-325 409-792 626t-1017 217q-384 0-738-102-353-101-653-301-490-319-767-836-276-517-276-1120 0-497 179-932 180-434 521-765 328-325 759-495 431-171 922-171 403 0 792 136t714 389l281-347q-390-303-851-464t-936-161q-578 0-1091 205-512 205-912 595Q841 78 631 592q-209 514-209 1105 0 569 212 1084 213 516 607 907 403 396 931 607t1119 211q662 0 1229-272 568-271 952-771 234-307 357-666 124-359 124-744 0-822-497-1297T4084 263v481z" transform="scale(.01563)"/><path id="DejaVuSans-7c" d="M1344 4891v-6400H813v6400h531z" transform="scale(.01563)"/><path id="DejaVuSans-4e" d="M628 4666h850L3547 763v3903h612V0h-850L1241 3903V0H628v4666z" transform="scale(.01563)"/><path id="DejaVuSans-f6" d="M1959 3097q-462 0-731-361t-269-989q0-628 267-989 268-361 733-361 460 0 728 362 269 363 269 988 0 622-269 986-268 364-728 364zm0 487q750 0 1178-488 429-487 429-1349 0-859-429-1349Q2709-91 1959-91q-753 0-1180 489-426 490-426 1349 0 862 426 1349 427 488 1180 488zm295 1266h634v-631h-634v631zm-1222 0h634v-631h-634v631z" transform="scale(.01563)"/><path id="DejaVuSans-42" d="M1259 2228V519h1013q509 0 754 211 246 211 246 645 0 438-246 645-245 208-754 208H1259zm0 1919V2741h935q462 0 688 173 227 174 227 530 0 353-227 528-226 175-688 175h-935zm-631 519h1613q722 0 1112-300 391-300 391-853 0-429-200-682t-588-315q466-100 724-418 258-317 258-792 0-625-425-966Q3088 0 2303 0H628v4666z" transform="scale(.01563)"/><path id="DejaVuSans-59" d="M-13 4666h679l1293-1919 1285 1919h678L2272 2222V0h-634v2222L-13 4666z" transform="scale(.01563)"/></defs><use xlink:href="#DejaVuSans-40"/><use xlink:href="#DejaVuSans-6e" x="100"/><use xlink:href="#DejaVuSans-73" x="163.379"/><use xlink:href="#DejaVuSans-63" x="215.479"/><use xlink:href="#DejaVuSans-68" x="270.459"/><use xlink:href="#DejaVuSans-6c" x="333.838"/><use xlink:href="#DejaVuSans-6f" x="361.621"/><use xlink:href="#DejaVuSans-65" x="422.803"/><use xlink:href="#DejaVuSans-20" x="484.326"/><use xlink:href="#DejaVuSans-2f" x="516.113"/><use xlink:href="#DejaVuSans-20" x="549.805"/><use xlink:href="#DejaVuSans-67" x="581.592"/><use xlink:href="#DejaVuSans-69" x="645.068"/><use xlink:href="#DejaVuSans-74" x="672.852"/><use xlink:href="#DejaVuSans-68" x="712.061"/><use xlink:href="#DejaVuSans-75" x="775.439"/><use xlink:href="#DejaVuSans-62" x="838.818"/><use xlink:href="#DejaVuSans-2d" x="902.295"/><use xlink:href="#DejaVuSans-74" x="938.379"/><use xlink:href="#DejaVuSans-72" x="977.588"/><use xlink:href="#DejaVuSans-65" x="1016.451"/><use xlink:href="#DejaVuSans-6e" x="1077.975"/><use xlink:href="#DejaVuSans-64" x="1141.354"/><use xlink:href="#DejaVuSans-73" x="1204.83"/><use xlink:href="#DejaVuSans-20" x="1256.93"/><use xlink:href="#DejaVuSans-7c" x="1288.717"/><use xlink:href="#DejaVuSans-20" x="1322.408"/><use xlink:href="#DejaVuSans-4e" x="1354.195"/><use xlink:href="#DejaVuSans-69" x="1429"/><use xlink:href="#DejaVuSans-63" x="1456.783"/><use xlink:href="#DejaVuSans-6f" x="1511.764"/><use xlink:href="#DejaVuSans-20" x="1572.945"/><use xlink:href="#DejaVuSans-53" x="1604.732"/><use xlink:href="#DejaVuSans-63" x="1668.209"/><use xlink:href="#DejaVuSans-68" x="1723.189"/><use xlink:href="#DejaVuSans-6c" x="1786.568"/><use xlink:href="#DejaVuSans-f6" x="1814.352"/><use xlink:href="#DejaVuSans-6d" x="1875.533"/><use xlink:href="#DejaVuSans-65" x="1972.945"/><use xlink:href="#DejaVuSans-72" x="2034.469"/><use xlink:href="#DejaVuSans-20" x="2075.582"/><use xlink:href="#DejaVuSans-7c" x="2107.369"/><use xlink:href="#DejaVuSans-20" x="2141.061"/><use xlink:href="#DejaVuSans-43" x="2172.848"/><use xlink:href="#DejaVuSans-43" x="2242.672"/><use xlink:href="#DejaVuSans-20" x="2312.496"/><use xlink:href="#DejaVuSans-42" x="2344.283"/><use xlink:href="#DejaVuSans-59" x="2407.387"/></g><path id="line2d_20" d="m217.085 283.645 2.58-.01 2.58-.088 2.497-.152 2.58-.065 2.497-.25 2.58-.098 2.58-.12 2.413-.12 2.58-.065 2.497-.065 2.58-.12 2.497-.99 2.58-.521 2.58-.261 2.497-1.675 2.58-.641 2.496-.718 2.58-.979 2.58-.946 2.33-.717 2.58-.783 2.497-.457 2.58-.892 2.497-.565 2.58-.5 2.58-.762 2.497-.587 2.58-.565 2.497-.761 2.58-.599 2.58-.695 2.33-.75 2.58-.849 2.497-1 2.58-.805 2.496-.587 2.58-.587 2.58-.566 2.497-.652 2.58-.588 2.497-.706 2.58-.707 2.58-.761 2.33-1.588 2.58-1.74 2.497-1.707 2.58-1.349 2.497-1.25 2.58-1.316 2.58-1.044 2.496-1.196 2.58-2.436 2.497-1.435 2.58-1.403 2.58-1.675 2.414-1.892 2.58-2.468 2.496-2.588 2.58-2.414 2.497-2.099 2.58-1.925 2.58-1.544 2.497-1.207 2.58-1.337 2.497-1.316 2.58-1.544 2.58-2.827 2.33-1.784 2.58-1.642 2.497-1.403 2.58-1.555 2.496-1.25 2.58-1.185 2.58-1.37 2.497-1.762 2.58-1.686 2.497-1.718 2.58-1.653 2.58-1.848 2.33-1.914 2.58-2.142 2.497-1.816 2.58-1.816 2.497-1.262 2.58-1.652 2.58-1.447 2.496-1.544 2.58-1.555 2.497-1.794 2.58-1.316 2.58-1.631 2.33-1.566 2.58-1.664 2.497-1.163" clip-path="url(#p7a0f829a8e)" style="fill:none;stroke:#9467bd;stroke-width:1.5;stroke-linecap:square"/><path id="line2d_21" d="m222.245 283.645 2.497-.01h2.58l2.497-.012h2.58l2.58-.032 2.413-.011 2.58-.022 2.497-.01 2.58-.023h2.497l2.58-.01 2.58-.066 2.497-.837 2.58-.109 2.496-.01 2.58-.055 2.58-.054 2.33-.033 2.58-.065 2.497-.065 2.58-.077 2.497-.097 2.58-.174 2.58-.164 2.497-.195 2.58-.153 2.497-.25 2.58-.706 2.58-.642 2.33-.446 2.58-.674 2.497-.772 2.58-1.62 2.496-1.11 2.58-.837 2.58-1.153 2.497-.728 2.58-.663 2.497-.653 2.58-.652 2.58-.457 2.33-3.534 2.58-.772 2.497-.848 2.58-.827 2.497-1.25 2.58-1.305 2.58-.827 2.496-.902 2.58-1.044 2.497-1.588 2.58-1.283 2.58-.902 2.414-.957 2.58-2.588 2.496-1.294 2.58-1.468 2.497-2.915 2.58-11.44 2.58-1.098 2.497-.859 2.58-.63 2.497-.936 2.58-1.185 2.58-.902 2.33-.762 2.58-.891 2.497-.827 2.58-.696 2.496-.946 2.58-20.193 2.58-3.61 2.497-1.903 2.58-1.697 2.497-1.772 2.58-2.142 2.58-1.185 2.33-.762 2.58-1.685 2.497-1.686 2.58-1.25 2.497-1.599 2.58-1.359 2.58-1.207 2.496-1.13 2.58-1.893 2.497-1.849 2.58-1.402 2.58-1.664 2.33-1.86 2.58-1.979 2.497-1.37" clip-path="url(#p7a0f829a8e)" style="fill:none;stroke:#d62728;stroke-width:1.5;stroke-linecap:square"/><path id="line2d_22" d="m252.706 283.645 2.497-9.384 2.58-.957 2.496-.337 2.58-.348 2.58-.381 2.33-.174 2.58-.337 2.497-.163 2.58-.24 2.497-.184 2.58-.294 2.58-.348 2.497-.185 2.58-.282 2.497-1.055 2.58-.577 2.58-.663 2.33-.544 2.58-.239 2.497-.478 2.58-.75 2.496-.838 2.58-.663 2.58-.903 2.497-2.414 2.58-2.805 2.497-2.306 2.58-1.392 2.58-1.185 2.33-1.055 2.58-1.24 2.497-1.554 2.58-3.447 2.497-1.37 2.58-1.751 2.58-1.914 2.496-1.37 2.58-2.034 2.497-1.794 2.58-1.794 2.58-3.469 2.414-1.392 2.58-1.316 2.496-1.718 2.58-1.881 2.497-1.435 2.58-6.144 2.58-2.11 2.497-1.327 2.58-1.326 2.497-1.697 2.58-1.761 2.58-1.718 2.33-2.197 2.58-1.794 2.497-3.545 2.58-9.113 2.496-4.077 2.58-3.154 2.58-1.653 2.497-2.098 2.58-1.468 2.497-2.556 2.58-2.012 2.58-2 2.33-1.392 2.58-1.751 2.497-1.892 2.58-2.153 2.497-2.545 2.58-1.935 2.58-2.567 2.496-1.957 2.58-1.425 2.497-2.827 2.58-1.294 2.58-1.424 2.33-1.447 2.58-1.74 2.497-1.609" clip-path="url(#p7a0f829a8e)" style="fill:none;stroke:#2ca02c;stroke-width:1.5;stroke-linecap:square"/><path id="line2d_23" d="m120.877 283.645 2.58-7.58 10.153-.13 10.237-.054 4.91-.772 2.497-.74 2.58-1.13 2.497-.62 2.58-.762 2.58-1.413 2.497-.903 2.58-.728 2.496-2.056 2.58-.891 2.58-1.131 2.33-1.218 2.58-2.012 5.077-2.881 2.497-1.23 2.58-3.74 2.58-1.446 2.497-1.153 2.58-1.316 2.497-2.087 2.58-1.403 2.58-5.198 2.33-2.664 2.58-1.631 5.077-2.512 2.496-1.131 2.58-1.479 2.58-1.74 2.497-2.11 5.077-3.349 7.573-4.534 2.58-1.697 2.497-1.359 7.657-5.035 2.58-1.576 2.497-1.86 2.58-2.153 2.496-1.5 7.49-5.699 5.077-5.447 2.58-3.187 2.497-6.622 5.16-4.882 2.497-2.762 2.58-2.567 2.497-2.697 5.16-4.523 2.33-2.132 2.58-3.675 5.077-6.21 5.076-5.382 2.58-3.055 12.734-13.071 2.33-2.012 2.58-2.969 2.497-2.642 2.58-3.12 2.497-2.306 5.16-6.003 2.496-2.142 2.58-2.523 2.497-2.881 2.58-2.37 2.58-1.871 2.414-1.447 2.58-2.12 10.153-8.808 2.58-1.947 2.497-2.348 2.58-1.74 5.077-3.72 2.58-1.837 2.33-1.37 5.077-3.936 2.58-1.523 2.496-1.935 2.58-2.262 2.58-1.87 2.497-1.501 5.077-3.621 2.58-2.012 2.58-1.74 4.91-2.958 2.497-1.957 2.58-1.729 2.497-1.946 2.58-4.437 2.58-8.678 7.573-3.969 2.58-1.022 9.987-5.122h0" clip-path="url(#p7a0f829a8e)" style="fill:none;stroke:#ff7f0e;stroke-width:1.5;stroke-linecap:square"/><path id="line2d_24" d="m108.227 283.645 2.58-4.741 2.58-.185 25.3-.468 7.49-.152 5.077-.51 2.58-.653 2.497-.827 5.16-1.152 7.573-1.197 2.58-1.935 2.58-.511 2.33-4.567 2.58-3.22 2.497-1.14 2.58-.86 5.077-2.033 5.077-1.86 2.58-1.218 2.497-2.24 2.58-1 2.58-1.675 2.33-1.142 2.58-2.566 2.497-1.011 2.58-.783 2.496-.957 2.58-2.403 2.58-.968 2.497-1.11 2.58-1.021 2.497-4.666 2.58-3.012 2.58-1.913 2.413-1.958 2.58-1.631 2.497-2.327 2.58-1.033 5.077-2.403 2.58-1.186 5.077-2.946 2.496-1.816 2.58-1.425 2.58-2.273 2.33-2.37 2.58-1.5 2.497-1.034 5.077-2.62 2.58-.914 5.077-2.164 2.58-1.153 2.497-1.565 5.16-2.665 2.33-2.055 2.58-2.631 2.497-2.077 2.58-4.056 2.496-2.262 2.58-1.544 2.58-1.675 2.497-1.261 2.58-1.903 2.497-2.132 5.16-3.36 4.91-3.632 2.497-1.424 2.58-1.784 2.497-1.12 2.58-.891 5.076-2.577 5.077-3.132 5.16-2.708 2.414-2.903 2.58-1.631 2.496-2.056 2.58-1.816 2.497-2.512 2.58-1.63 7.657-5.59 2.497-1.36 2.58-1.793 2.58-56.144 2.33-5.11 2.58-3.285 2.497-3.73 2.58-2.696 2.496-1.816 2.58-2.131 5.077-3.654 2.58-2.382 2.497-2.533 2.58-2.925 2.58-2.327 2.33-2.295 5.077-3.85 2.58-1.902 7.657-4.6 2.496-1.5 5.077-3.61 5.16-2.524 7.407-4.904h0" clip-path="url(#p7a0f829a8e)" style="fill:none;stroke:#1f77b4;stroke-width:1.5;stroke-linecap:square"/></g></g><defs><clipPath id="p7a0f829a8e"><path d="M98.073 17.533h357.12v266.112H98.073z"/></clipPath></defs></svg>