<svg xmlns="http://www.w3.org/2000/svg" xmlns:xlink="http://www.w3.org/1999/xlink" width="870.186" height="431.485" viewBox="0 0 652.639 323.614"><defs><style>*{stroke-linejoin:round;stroke-linecap:butt}</style></defs><g id="figure_1"><path id="patch_1" d="M0 323.614h652.64V0H0v323.614z" style="fill:none"/><g id="axes_1"><path id="patch_2" d="M98.073 280.087h357.12V13.975H98.073v266.112z" style="fill:none"/><g id="matplotlib.axis_1"><g id="xtick_1"><g id="line2d_1"><defs><path id="medae8ce7ce" d="M0 0v3.5" style="stroke:#b0b0b0;stroke-width:.4"/></defs><use xlink:href="#medae8ce7ce" x="127.813" y="280.087" style="fill:#b0b0b0;stroke:#b0b0b0;stroke-width:.4"/></g><g id="text_1" style="fill:#b0b0b0" transform="matrix(.14 0 0 -.14 109.998 297.724)"><defs><path id="DejaVuSans-32" d="M1228 531h2203V0H469v531q359 372 979 998 621 627 780 809 303 340 423 576 121 236 121 464 0 372-261 606-261 235-680 235-297 0-627-103-329-103-704-313v638q381 153 712 231 332 78 607 78 725 0 1156-363 431-362 431-968 0-288-108-546-107-257-392-607-78-91-497-524-418-433-1181-1211z" transform="scale(.01563)"/><path id="DejaVuSans-30" d="M2034 4250q-487 0-733-480-245-479-245-1442 0-959 245-1439 246-480 733-480 491 0 736 480 246 480 246 1439 0 963-246 1442-245 480-736 480zm0 500q785 0 1199-621 414-620 414-1801 0-1178-414-1799Q2819-91 2034-91q-784 0-1198 620-414 621-414 1799 0 1181 414 1801 414 621 1198 621z" transform="scale(.01563)"/><path id="DejaVuSans-31" d="M794 531h1031v3560L703 3866v575l1116 225h631V531h1031V0H794v531z" transform="scale(.01563)"/></defs><use xlink:href="#DejaVuSans-32"/><use xlink:href="#DejaVuSans-30" x="63.623"/><use xlink:href="#DejaVuSans-31" x="127.246"/><use xlink:href="#DejaVuSans-32" x="190.869"/></g></g><g id="xtick_2"><use xlink:href="#medae8ce7ce" id="line2d_2" x="187.373" y="280.087" style="fill:#b0b0b0;stroke:#b0b0b0;stroke-width:.4"/><g id="text_2" style="fill:#b0b0b0" transform="matrix(.14 0 0 -.14 169.558 297.724)"><defs><path id="DejaVuSans-34" d="M2419 4116 825 1625h1594v2491zm-166 550h794V1625h666v-525h-666V0h-628v1100H313v609l1940 2957z" transform="scale(.01563)"/></defs><use xlink:href="#DejaVuSans-32"/><use xlink:href="#DejaVuSans-30" x="63.623"/><use xlink:href="#DejaVuSans-31" x="127.246"/><use xlink:href="#DejaVuSans-34" x="190.869"/></g></g><g id="xtick_3"><use xlink:href="#medae8ce7ce" id="line2d_3" x="246.853" y="280.087" style="fill:#b0b0b0;stroke:#b0b0b0;stroke-width:.4"/><g id="text_3" style="fill:#b0b0b0" transform="matrix(.14 0 0 -.14 229.038 297.724)"><defs><path id="DejaVuSans-36" d="M2113 2584q-425 0-674-291-248-290-248-796 0-503 248-796 249-292 674-292t673 292q248 293 248 796 0 506-248 796-248 291-673 291zm1253 1979v-575q-238 112-480 171-242 60-480 60-625 0-955-422-329-422-376-1275 184 272 462 417 279 145 613 145 703 0 1111-427 408-426 408-1160 0-719-425-1154Q2819-91 2113-91q-810 0-1238 620-428 621-428 1799 0 1106 525 1764t1409 658q238 0 480-47t505-140z" transform="scale(.01563)"/></defs><use xlink:href="#DejaVuSans-32"/><use xlink:href="#DejaVuSans-30" x="63.623"/><use xlink:href="#DejaVuSans-31" x="127.246"/><use xlink:href="#DejaVuSans-36" x="190.869"/></g></g><g id="xtick_4"><use xlink:href="#medae8ce7ce" id="line2d_4" x="306.413" y="280.087" style="fill:#b0b0b0;stroke:#b0b0b0;stroke-width:.4"/><g id="text_4" style="fill:#b0b0b0" transform="matrix(.14 0 0 -.14 288.598 297.724)"><defs><path id="DejaVuSans-38" d="M2034 2216q-450 0-708-241-257-241-257-662 0-422 257-663 258-241 708-241t709 242q260 243 260 662 0 421-258 662-257 241-711 241zm-631 268q-406 100-633 378-226 279-226 679 0 559 398 884 399 325 1092 325 697 0 1094-325t397-884q0-400-227-679-226-278-629-378 456-106 710-416 255-309 255-755 0-679-414-1042Q2806-91 2034-91q-771 0-1186 362-414 363-414 1042 0 446 256 755 257 310 713 416zm-231 997q0-362 226-565 227-203 636-203 407 0 636 203 230 203 230 565 0 363-230 566-229 203-636 203-409 0-636-203-226-203-226-566z" transform="scale(.01563)"/></defs><use xlink:href="#DejaVuSans-32"/><use xlink:href="#DejaVuSans-30" x="63.623"/><use xlink:href="#DejaVuSans-31" x="127.246"/><use xlink:href="#DejaVuSans-38" x="190.869"/></g></g><g id="xtick_5"><use xlink:href="#medae8ce7ce" id="line2d_5" x="365.893" y="280.087" style="fill:#b0b0b0;stroke:#b0b0b0;stroke-width:.4"/><g id="text_5" style="fill:#b0b0b0" transform="matrix(.14 0 0 -.14 348.078 297.724)"><use xlink:href="#DejaVuSans-32"/><use xlink:href="#DejaVuSans-30" x="63.623"/><use xlink:href="#DejaVuSans-32" x="127.246"/><use xlink:href="#DejaVuSans-30" x="190.869"/></g></g><g id="xtick_6"><use xlink:href="#medae8ce7ce" id="line2d_6" x="425.453" y="280.087" style="fill:#b0b0b0;stroke:#b0b0b0;stroke-width:.4"/><g id="text_6" style="fill:#b0b0b0" transform="matrix(.14 0 0 -.14 407.638 297.724)"><use xlink:href="#DejaVuSans-32"/><use xlink:href="#DejaVuSans-30" x="63.623"/><use xlink:href="#DejaVuSans-32" x="127.246"/><use xlink:href="#DejaVuSans-32" x="190.869"/></g></g></g><g id="matplotlib.axis_2"><g id="ytick_1"><path id="line2d_7" d="M98.073 280.087h357.12" clip-path="url(#pbd0d5e9aa7)" style="fill:none;stroke:#b0b0b0;stroke-width:.3;stroke-linecap:square"/><g id="line2d_8"><defs><path id="m8789caf644" d="M0 0h-3.5" style="stroke:#b0b0b0;stroke-width:.3"/></defs><use xlink:href="#m8789caf644" x="98.073" y="280.087" style="fill:#b0b0b0;stroke:#b0b0b0;stroke-width:.3"/></g><use xlink:href="#DejaVuSans-30" id="text_7" style="fill:#b0b0b0" transform="matrix(.14 0 0 -.14 82.166 285.406)"/></g><g id="ytick_2"><path id="line2d_9" d="M98.073 226.854h357.12" clip-path="url(#pbd0d5e9aa7)" style="fill:none;stroke:#b0b0b0;stroke-width:.3;stroke-linecap:square"/><use xlink:href="#m8789caf644" id="line2d_10" x="98.073" y="226.854" style="fill:#b0b0b0;stroke:#b0b0b0;stroke-width:.3"/><g id="text_8" style="fill:#b0b0b0" transform="matrix(.14 0 0 -.14 55.443 232.173)"><use xlink:href="#DejaVuSans-31"/><use xlink:href="#DejaVuSans-30" x="63.623"/><use xlink:href="#DejaVuSans-30" x="127.246"/><use xlink:href="#DejaVuSans-30" x="190.869"/></g></g><g id="ytick_3"><path id="line2d_11" d="M98.073 173.62h357.12" clip-path="url(#pbd0d5e9aa7)" style="fill:none;stroke:#b0b0b0;stroke-width:.3;stroke-linecap:square"/><use xlink:href="#m8789caf644" id="line2d_12" x="98.073" y="173.621" style="fill:#b0b0b0;stroke:#b0b0b0;stroke-width:.3"/><g id="text_9" style="fill:#b0b0b0" transform="matrix(.14 0 0 -.14 55.443 178.94)"><use xlink:href="#DejaVuSans-32"/><use xlink:href="#DejaVuSans-30" x="63.623"/><use xlink:href="#DejaVuSans-30" x="127.246"/><use xlink:href="#DejaVuSans-30" x="190.869"/></g></g><g id="ytick_4"><path id="line2d_13" d="M98.073 120.388h357.12" clip-path="url(#pbd0d5e9aa7)" style="fill:none;stroke:#b0b0b0;stroke-width:.3;stroke-linecap:square"/><use xlink:href="#m8789caf644" id="line2d_14" x="98.073" y="120.388" style="fill:#b0b0b0;stroke:#b0b0b0;stroke-width:.3"/><g id="text_10" style="fill:#b0b0b0" transform="matrix(.14 0 0 -.14 55.443 125.706)"><defs><path id="DejaVuSans-33" d="M2597 2516q453-97 707-404 255-306 255-756 0-690-475-1069Q2609-91 1734-91q-293 0-604 58T488 141v609q262-153 574-231 313-78 654-78 593 0 904 234t311 681q0 413-289 645-289 233-804 233h-544v519h569q465 0 712 186t247 536q0 359-255 551-254 193-729 193-260 0-557-57-297-56-653-174v562q360 100 674 150t592 50q719 0 1137-327 419-326 419-882 0-388-222-655t-631-370z" transform="scale(.01563)"/></defs><use xlink:href="#DejaVuSans-33"/><use xlink:href="#DejaVuSans-30" x="63.623"/><use xlink:href="#DejaVuSans-30" x="127.246"/><use xlink:href="#DejaVuSans-30" x="190.869"/></g></g><g id="ytick_5"><path id="line2d_15" d="M98.073 67.155h357.12" clip-path="url(#pbd0d5e9aa7)" style="fill:none;stroke:#b0b0b0;stroke-width:.3;stroke-linecap:square"/><use xlink:href="#m8789caf644" id="line2d_16" x="98.073" y="67.155" style="fill:#b0b0b0;stroke:#b0b0b0;stroke-width:.3"/><g id="text_11" style="fill:#b0b0b0" transform="matrix(.14 0 0 -.14 55.443 72.473)"><use xlink:href="#DejaVuSans-34"/><use xlink:href="#DejaVuSans-30" x="63.623"/><use xlink:href="#DejaVuSans-30" x="127.246"/><use xlink:href="#DejaVuSans-30" x="190.869"/></g></g><g id="text_12" style="fill:#b0b0b0" transform="matrix(.14 0 0 -.14 7.2 37.632)"><defs><path id="DejaVuSans-47" d="M3809 666v1253H2778v519h1656V434q-365-259-806-392-440-133-940-133-1094 0-1712 639-617 640-617 1780 0 1144 617 1783 618 639 1712 639 456 0 867-113 411-112 758-331v-672q-350 297-744 447t-828 150q-857 0-1287-478-429-478-429-1425 0-944 429-1422 430-478 1287-478 334 0 596 58 263 58 472 180z" transform="scale(.01563)"/><path id="DejaVuSans-69" d="M603 3500h575V0H603v3500zm0 1363h575v-729H603v729z" transform="scale(.01563)"/><path id="DejaVuSans-74" d="M1172 4494v-994h1184v-447H1172V1153q0-428 117-550t477-122h590V0h-590q-666 0-919 248-253 249-253 905v1900H172v447h422v994h578z" transform="scale(.01563)"/><path id="DejaVuSans-48" d="M628 4666h631V2753h2294v1913h631V0h-631v2222H1259V0H628v4666z" transform="scale(.01563)"/><path id="DejaVuSans-75" d="M544 1381v2119h575V1403q0-497 193-746 194-248 582-248 465 0 735 297 271 297 271 810v1984h575V0h-575v538q-209-319-486-474-276-155-642-155-603 0-916 375-312 375-312 1097zm1447 2203z" transform="scale(.01563)"/><path id="DejaVuSans-62" d="M3116 1747q0 634-261 995t-717 361q-457 0-718-361t-261-995q0-634 261-995t718-361q456 0 717 361t261 995zM1159 2969q182 312 458 463 277 152 661 152 638 0 1036-506 399-506 399-1331T3314 415Q2916-91 2278-91q-384 0-661 152-276 152-458 464V0H581v4863h578V2969z" transform="scale(.01563)"/><path id="DejaVuSans-73" d="M2834 3397v-544q-243 125-506 187-262 63-544 63-428 0-642-131t-214-394q0-200 153-314t616-217l197-44q612-131 870-370t258-667q0-488-386-773Q2250-91 1575-91q-281 0-586 55T347 128v594q319-166 628-249 309-82 613-82 406 0 624 139 219 139 219 392 0 234-158 359-157 125-692 241l-200 47q-534 112-772 345-237 233-237 639 0 494 350 762 350 269 994 269 318 0 599-47 282-46 519-140z" transform="scale(.01563)"/><path id="DejaVuSans-61" d="M2194 1759q-697 0-966-159t-269-544q0-306 202-486 202-179 548-179 479 0 768 339t289 901v128h-572zm1147 238V0h-575v531q-197-318-491-470T1556-91q-537 0-855 302-317 302-317 808 0 590 395 890 396 300 1180 300h807v57q0 397-261 614t-733 217q-300 0-585-72-284-72-546-216v532q315 122 612 182 297 61 578 61 760 0 1135-394 375-393 375-1193z" transform="scale(.01563)"/><path id="DejaVuSans-72" d="M2631 2963q-97 56-211 82-114 27-251 27-488 0-749-317t-261-911V0H581v3500h578v-544q182 319 472 473 291 155 707 155 59 0 131-8 72-7 159-23l3-590z" transform="scale(.01563)"/></defs><use xlink:href="#DejaVuSans-47"/><use xlink:href="#DejaVuSans-69" x="77.49"/><use xlink:href="#DejaVuSans-74" x="105.273"/><use xlink:href="#DejaVuSans-48" x="144.482"/><use xlink:href="#DejaVuSans-75" x="219.678"/><use xlink:href="#DejaVuSans-62" x="283.057"/><use xlink:href="#DejaVuSans-20" x="346.533"/><use xlink:href="#DejaVuSans-73" x="378.32"/><use xlink:href="#DejaVuSans-74" x="430.42"/><use xlink:href="#DejaVuSans-61" x="469.629"/><use xlink:href="#DejaVuSans-72" x="530.908"/><use xlink:href="#DejaVuSans-73" x="572.021"/></g></g><path id="line2d_17" d="m264.208 280.087 2.525-.054 2.445-.053 2.526-.106H279.2l2.281-.053H288.977l2.444-.054h2.526l2.526-.053h2.444l2.526-.16H308.94l2.282-.106 2.526-.053 2.444-.054 2.526-.053H326.213l2.444-.053h2.526l2.444-.107 2.526-.053 2.526-.053h2.281l2.526-.053h2.445l2.525-.107h9.941l2.526-.106h9.858l2.526-.053H380.722l2.526-.107 2.525-.106 2.445-.054h2.526l2.444-.053h2.526l2.526-.106 2.281-.107 2.526-.053 2.444-.053H417.957l2.526-.053H427.98l2.282-.054h4.97l2.526-.053h17.436" clip-path="url(#pbd0d5e9aa7)" style="fill:none;stroke:#7f7f7f;stroke-width:1.5;stroke-linecap:square"/><path id="line2d_18" d="m160.16 280.087 2.281-.054h4.97l2.526-.053 2.444-.053h5.052l2.444-.053h4.971l2.525-.053h4.808l2.526-.054h12.466l2.444-.053H217.113l2.526-.053h37.073l2.525-.053 2.445-.054h14.992l2.526-.106 2.281-.053H288.977l2.444-.054 2.526-.053h2.526l2.444-.053 2.526-.053 2.445-.054 2.525-.16h2.526l2.282-.106 2.526-.106 2.444-.053h4.97l2.526-.16h2.526l2.444-.16h4.97l2.526-.053h4.807l2.526-.053 2.445-.16 2.525-.213 2.445-.053 2.526-.107 2.525-.266 2.445-.053 2.526-.16h2.444l2.526-.053 2.526-.106h2.362l2.526-.16h2.445l2.525-.16 2.445-.053 2.526-.053 2.525-.053 2.445-.054H395.714l2.526-.106 2.281-.053 2.526-.16h2.444l2.526-.16h2.444l2.526-.106h2.526l2.444-.053h2.526l2.445-.107 2.525-.106 2.526-.213 2.282-.16h2.526l2.444-.053 2.526-.107 2.444-.106h5.052l2.444-.16 2.526-.053 2.444-.053 2.526-.054" clip-path="url(#pbd0d5e9aa7)" style="fill:none;stroke:#e377c2;stroke-width:1.5;stroke-linecap:square"/><path id="line2d_19" d="m100.599 280.087 2.281-.746 7.496-.053 54.59-.106 7.415-.054 12.467-.106 19.799-.32 17.273-.106 9.94-.32 10.023-.106h2.444l5.052-.213 12.303-.106 17.518-.48 24.688-.585 9.859-.745 9.94-.32 29.74-1.17 4.97-.107 2.526-.16h2.444l5.052-.213 4.888-.16 2.445-.159 4.97-.213 7.496-.213 10.022-.106 12.221-.373 14.992-.586 4.808-.053 12.466-.479 12.466-.106h0" clip-path="url(#pbd0d5e9aa7)" style="fill:none;stroke:#8c564b;stroke-width:1.5;stroke-linecap:square"/><g id="text_13" style="fill:#1f77b4" transform="matrix(.14 0 0 -.14 465.907 17.838)"><defs><path id="DejaVuSans-78" d="M3513 3500 2247 1797 3578 0h-678L1881 1375 863 0H184l1360 1831L300 3500h678l928-1247 928 1247h679z" transform="scale(.01563)"/><path id="DejaVuSans-6e" d="M3513 2113V0h-575v2094q0 497-194 743-194 247-581 247-466 0-735-297-269-296-269-809V0H581v3500h578v-544q207 316 486 472 280 156 646 156 603 0 912-373 310-373 310-1098z" transform="scale(.01563)"/><path id="DejaVuSans-79" d="M2059-325q-243-625-475-815-231-191-618-191H506v481h338q237 0 368 113 132 112 291 531l103 262L191 3500h609L1894 763l1094 2737h609L2059-325z" transform="scale(.01563)"/><path id="DejaVuSans-2f" d="M1625 4666h531L531-594H0l1625 5260z" transform="scale(.01563)"/><path id="DejaVuSans-4f" d="M2522 4238q-688 0-1093-513-404-512-404-1397 0-881 404-1394 405-512 1093-512 687 0 1089 512 402 513 402 1394 0 885-402 1397-402 513-1089 513zm0 512q981 0 1568-658 588-658 588-1764 0-1103-588-1761Q3503-91 2522-91q-984 0-1574 656-589 657-589 1763t589 1764q590 658 1574 658z" transform="scale(.01563)"/><path id="DejaVuSans-70" d="M1159 525v-1856H581v4831h578v-531q182 312 458 463 277 152 661 152 638 0 1036-506 399-506 399-1331T3314 415Q2916-91 2278-91q-384 0-661 152-276 152-458 464zm1957 1222q0 634-261 995t-717 361q-457 0-718-361t-261-995q0-634 261-995t718-361q456 0 717 361t261 995z" transform="scale(.01563)"/><path id="DejaVuSans-65" d="M3597 1894v-281H953q38-594 358-905t892-311q331 0 642 81t618 244V178Q3153 47 2828-22t-659-69q-838 0-1327 487-489 488-489 1320 0 859 464 1363 464 505 1252 505 706 0 1117-455 411-454 411-1235zm-575 169q-6 471-264 752-258 282-683 282-481 0-770-272t-333-766l2050 4z" transform="scale(.01563)"/><path id="DejaVuSans-42" d="M1259 2228V519h1013q509 0 754 211 246 211 246 645 0 438-246 645-245 208-754 208H1259zm0 1919V2741h935q462 0 688 173 227 174 227 530 0 353-227 528-226 175-688 175h-935zm-631 519h1613q722 0 1112-300 391-300 391-853 0-429-200-682t-588-315q466-100 724-418 258-317 258-792 0-625-425-966Q3088 0 2303 0H628v4666z" transform="scale(.01563)"/><path id="DejaVuSans-4c" d="M628 4666h631V531h2272V0H628v4666z" transform="scale(.01563)"/><path id="DejaVuSans-41" d="m2188 4044-857-2322h1716l-859 2322zm-357 622h716L4325 0h-656l-425 1197H1141L716 0H50l1781 4666z" transform="scale(.01563)"/><path id="DejaVuSans-53" d="M3425 4513v-616q-359 172-678 256-319 85-616 85-515 0-795-200t-280-569q0-310 186-468 186-157 705-254l381-78q706-135 1042-474t336-907q0-679-455-1029Q2797-91 1919-91q-331 0-705 75-373 75-773 222v650q384-215 753-325 369-109 725-109 540 0 834 212 294 213 294 607 0 343-211 537t-692 291l-385 75q-706 140-1022 440-315 300-315 835 0 619 436 975t1201 356q329 0 669-60 341-59 697-177z" transform="scale(.01563)"/></defs><use xlink:href="#DejaVuSans-78"/><use xlink:href="#DejaVuSans-69" x="59.18"/><use xlink:href="#DejaVuSans-61" x="86.963"/><use xlink:href="#DejaVuSans-6e" x="148.242"/><use xlink:href="#DejaVuSans-79" x="211.621"/><use xlink:href="#DejaVuSans-69" x="270.801"/><use xlink:href="#DejaVuSans-2f" x="298.584"/><use xlink:href="#DejaVuSans-4f" x="332.275"/><use xlink:href="#DejaVuSans-70" x="410.986"/><use xlink:href="#DejaVuSans-65" x="474.463"/><use xlink:href="#DejaVuSans-6e" x="535.986"/><use xlink:href="#DejaVuSans-42" x="599.365"/><use xlink:href="#DejaVuSans-4c" x="667.969"/><use xlink:href="#DejaVuSans-41" x="725.932"/><use xlink:href="#DejaVuSans-53" x="794.34"/></g><g id="text_14" style="fill:#ff7f0e" transform="matrix(.14 0 0 -.14 465.907 206.283)"><defs><path id="DejaVuSans-66" d="M2375 4863v-479h-550q-309 0-430-125-120-125-120-450v-309h947v-447h-947V0H697v3053H147v447h550v244q0 584 272 851 272 268 862 268h544z" transform="scale(.01563)"/><path id="DejaVuSans-6c" d="M603 4863h575V0H603v4863z" transform="scale(.01563)"/><path id="DejaVuSans-6d" d="M3328 2828q216 388 516 572t706 184q547 0 844-383 297-382 297-1088V0h-578v2094q0 503-179 746-178 244-543 244-447 0-707-297-259-296-259-809V0h-578v2094q0 506-178 748t-550 242q-441 0-701-298-259-298-259-808V0H581v3500h578v-544q197 322 472 475t653 153q382 0 649-194 267-193 395-562z" transform="scale(.01563)"/></defs><use xlink:href="#DejaVuSans-66"/><use xlink:href="#DejaVuSans-6c" x="35.205"/><use xlink:href="#DejaVuSans-61" x="62.988"/><use xlink:href="#DejaVuSans-6d" x="124.268"/><use xlink:href="#DejaVuSans-65" x="221.68"/><use xlink:href="#DejaVuSans-2f" x="283.203"/><use xlink:href="#DejaVuSans-62" x="316.895"/><use xlink:href="#DejaVuSans-6c" x="380.371"/><use xlink:href="#DejaVuSans-69" x="408.154"/><use xlink:href="#DejaVuSans-73" x="435.938"/></g><g id="text_15" style="fill:#2ca02c" transform="matrix(.14 0 0 -.14 465.907 226.032)"><defs><path id="DejaVuSans-52" d="M2841 2188q203-69 395-294t386-619L4263 0h-679l-596 1197q-232 469-449 622t-592 153h-688V0H628v4666h1425q800 0 1194-335 394-334 394-1009 0-441-205-732-205-290-595-402zM1259 4147V2491h794q456 0 689 211t233 620q0 409-233 617t-689 208h-794z" transform="scale(.01563)"/><path id="DejaVuSans-63" d="M3122 3366v-538q-244 135-489 202t-495 67q-560 0-870-355-309-354-309-995t309-996q310-354 870-354 250 0 495 67t489 202V134Q2881 22 2623-34q-257-57-548-57-791 0-1257 497-465 497-465 1341 0 856 470 1346 471 491 1290 491 265 0 518-55 253-54 491-163z" transform="scale(.01563)"/><path id="DejaVuSans-2d" d="M313 2009h1684v-512H313v512z" transform="scale(.01563)"/><path id="DejaVuSans-50" d="M1259 4147V2394h794q441 0 681 228 241 228 241 650 0 419-241 647-240 228-681 228h-794zm-631 519h1425q785 0 1186-355 402-355 402-1039 0-691-402-1044-401-353-1186-353h-794V0H628v4666z" transform="scale(.01563)"/><path id="DejaVuSans-43" d="M4122 4306v-665q-319 297-680 443-361 147-767 147-800 0-1225-489t-425-1414q0-922 425-1411t1225-489q406 0 767 147t680 444V359q-331-225-702-338-370-112-782-112-1060 0-1670 648-609 649-609 1771 0 1125 609 1773 610 649 1670 649 418 0 788-111 371-111 696-333z" transform="scale(.01563)"/><path id="DejaVuSans-4b" d="M628 4666h631V2694l2094 1972h813L1850 2491 4331 0h-831L1259 2247V0H628v4666z" transform="scale(.01563)"/><path id="DejaVuSans-6b" d="M581 4863h578V1991l1716 1509h734L1753 1863 3688 0h-750L1159 1709V0H581v4863z" transform="scale(.01563)"/></defs><use xlink:href="#DejaVuSans-52"/><use xlink:href="#DejaVuSans-65" x="64.982"/><use xlink:href="#DejaVuSans-66" x="126.506"/><use xlink:href="#DejaVuSans-65" x="161.711"/><use xlink:href="#DejaVuSans-72" x="223.234"/><use xlink:href="#DejaVuSans-65" x="262.098"/><use xlink:href="#DejaVuSans-6e" x="323.621"/><use xlink:href="#DejaVuSans-63" x="387"/><use xlink:href="#DejaVuSans-65" x="441.98"/><use xlink:href="#DejaVuSans-2d" x="503.504"/><use xlink:href="#DejaVuSans-4c" x="539.588"/><use xlink:href="#DejaVuSans-41" x="597.551"/><use xlink:href="#DejaVuSans-50" x="665.959"/><use xlink:href="#DejaVuSans-41" x="719.887"/><use xlink:href="#DejaVuSans-43" x="786.545"/><use xlink:href="#DejaVuSans-4b" x="856.369"/><use xlink:href="#DejaVuSans-2f" x="921.945"/><use xlink:href="#DejaVuSans-6c" x="955.637"/><use xlink:href="#DejaVuSans-61" x="983.42"/><use xlink:href="#DejaVuSans-70" x="1044.699"/><use xlink:href="#DejaVuSans-61" x="1108.176"/><use xlink:href="#DejaVuSans-63" x="1169.455"/><use xlink:href="#DejaVuSans-6b" x="1224.436"/></g><g id="text_16" style="fill:#d62728" transform="matrix(.14 0 0 -.14 465.907 248.103)"><use xlink:href="#DejaVuSans-66"/><use xlink:href="#DejaVuSans-6c" x="35.205"/><use xlink:href="#DejaVuSans-61" x="62.988"/><use xlink:href="#DejaVuSans-6d" x="124.268"/><use xlink:href="#DejaVuSans-65" x="221.68"/><use xlink:href="#DejaVuSans-2f" x="283.203"/><use xlink:href="#DejaVuSans-6c" x="316.895"/><use xlink:href="#DejaVuSans-69" x="344.678"/><use xlink:href="#DejaVuSans-62" x="372.461"/><use xlink:href="#DejaVuSans-66" x="435.938"/><use xlink:href="#DejaVuSans-6c" x="471.143"/><use xlink:href="#DejaVuSans-61" x="498.926"/><use xlink:href="#DejaVuSans-6d" x="560.205"/><use xlink:href="#DejaVuSans-65" x="657.617"/></g><g id="text_17" style="fill:#9467bd" transform="matrix(.14 0 0 -.14 465.907 262.103)"><defs><path id="DejaVuSans-6f" d="M1959 3097q-462 0-731-361t-269-989q0-628 267-989 268-361 733-361 460 0 728 362 269 363 269 988 0 622-269 986-268 364-728 364zm0 487q750 0 1178-488 429-487 429-1349 0-859-429-1349Q2709-91 1959-91q-753 0-1180 489-426 490-426 1349 0 862 426 1349 427 488 1180 488z" transform="scale(.01563)"/><path id="DejaVuSans-67" d="M2906 1791q0 625-258 968-257 344-723 344-462 0-720-344-258-343-258-968 0-622 258-966t720-344q466 0 723 344 258 344 258 966zm575-1357q0-893-397-1329-396-436-1215-436-303 0-572 45t-522 139v559q253-137 500-202 247-66 503-66 566 0 847 295t281 892v285q-178-310-456-463T1784 0Q1141 0 747 490 353 981 353 1791q0 812 394 1302 394 491 1037 491 388 0 666-153t456-462v531h575V434z" transform="scale(.01563)"/></defs><use xlink:href="#DejaVuSans-6f"/><use xlink:href="#DejaVuSans-70" x="61.182"/><use xlink:href="#DejaVuSans-65" x="124.658"/><use xlink:href="#DejaVuSans-6e" x="186.182"/><use xlink:href="#DejaVuSans-63" x="249.561"/><use xlink:href="#DejaVuSans-6f" x="304.541"/><use xlink:href="#DejaVuSans-6c" x="365.723"/><use xlink:href="#DejaVuSans-6c" x="393.506"/><use xlink:href="#DejaVuSans-61" x="421.289"/><use xlink:href="#DejaVuSans-62" x="482.568"/><use xlink:href="#DejaVuSans-2f" x="546.045"/><use xlink:href="#DejaVuSans-61" x="579.736"/><use xlink:href="#DejaVuSans-72" x="641.016"/><use xlink:href="#DejaVuSans-70" x="682.129"/><use xlink:href="#DejaVuSans-61" x="745.605"/><use xlink:href="#DejaVuSans-63" x="806.885"/><use xlink:href="#DejaVuSans-6b" x="861.865"/><use xlink:href="#DejaVuSans-2d" x="919.775"/><use xlink:href="#DejaVuSans-6e" x="955.859"/><use xlink:href="#DejaVuSans-67" x="1019.238"/></g><g id="text_18" style="fill:#8c564b" transform="matrix(.14 0 0 -.14 465.907 276.103)"><defs><path id="DejaVuSans-68" d="M3513 2113V0h-575v2094q0 497-194 743-194 247-581 247-466 0-735-297-269-296-269-809V0H581v4863h578V2956q207 316 486 472 280 156 646 156 603 0 912-373 310-373 310-1098z" transform="scale(.01563)"/></defs><use xlink:href="#DejaVuSans-6d"/><use xlink:href="#DejaVuSans-61" x="97.412"/><use xlink:href="#DejaVuSans-74" x="158.691"/><use xlink:href="#DejaVuSans-68" x="197.9"/><use xlink:href="#DejaVuSans-2d" x="261.279"/><use xlink:href="#DejaVuSans-61" x="297.363"/><use xlink:href="#DejaVuSans-74" x="358.643"/><use xlink:href="#DejaVuSans-6c" x="397.852"/><use xlink:href="#DejaVuSans-61" x="425.635"/><use xlink:href="#DejaVuSans-73" x="486.914"/><use xlink:href="#DejaVuSans-2f" x="539.014"/><use xlink:href="#DejaVuSans-6d" x="572.705"/><use xlink:href="#DejaVuSans-61" x="670.117"/><use xlink:href="#DejaVuSans-74" x="731.396"/><use xlink:href="#DejaVuSans-68" x="770.605"/><use xlink:href="#DejaVuSans-2d" x="833.984"/><use xlink:href="#DejaVuSans-61" x="870.068"/><use xlink:href="#DejaVuSans-74" x="931.348"/><use xlink:href="#DejaVuSans-6c" x="970.557"/><use xlink:href="#DejaVuSans-61" x="998.34"/><use xlink:href="#DejaVuSans-73" x="1059.619"/></g><g id="text_19" style="fill:#e377c2" transform="matrix(.14 0 0 -.14 465.907 290.103)"><use xlink:href="#DejaVuSans-62"/><use xlink:href="#DejaVuSans-6f" x="63.477"/><use xlink:href="#DejaVuSans-6f" x="124.658"/><use xlink:href="#DejaVuSans-73" x="185.84"/><use xlink:href="#DejaVuSans-74" x="237.939"/><use xlink:href="#DejaVuSans-6f" x="277.148"/><use xlink:href="#DejaVuSans-72" x="338.33"/><use xlink:href="#DejaVuSans-67" x="377.693"/><use xlink:href="#DejaVuSans-2f" x="441.17"/><use xlink:href="#DejaVuSans-75" x="474.861"/><use xlink:href="#DejaVuSans-62" x="538.24"/><use xlink:href="#DejaVuSans-6c" x="601.717"/><use xlink:href="#DejaVuSans-61" x="629.5"/><use xlink:href="#DejaVuSans-73" x="690.779"/></g><g id="text_20" style="fill:#7f7f7f" transform="matrix(.14 0 0 -.14 465.907 304.103)"><defs><path id="DejaVuSans-64" d="M2906 2969v1894h575V0h-575v525q-181-312-458-464-276-152-664-152-634 0-1033 506-398 507-398 1332t398 1331q399 506 1033 506 388 0 664-152 277-151 458-463zM947 1747q0-634 261-995t717-361q456 0 718 361 263 361 263 995t-263 995q-262 361-718 361t-717-361q-261-361-261-995z" transform="scale(.01563)"/></defs><use xlink:href="#DejaVuSans-63"/><use xlink:href="#DejaVuSans-6f" x="54.98"/><use xlink:href="#DejaVuSans-6e" x="116.162"/><use xlink:href="#DejaVuSans-72" x="179.541"/><use xlink:href="#DejaVuSans-61" x="220.654"/><use xlink:href="#DejaVuSans-64" x="281.934"/><use xlink:href="#DejaVuSans-73" x="345.41"/><use xlink:href="#DejaVuSans-6e" x="397.51"/><use xlink:href="#DejaVuSans-69" x="460.889"/><use xlink:href="#DejaVuSans-63" x="488.672"/><use xlink:href="#DejaVuSans-74" x="543.652"/><use xlink:href="#DejaVuSans-61" x="582.861"/><use xlink:href="#DejaVuSans-2f" x="644.141"/><use xlink:href="#DejaVuSans-61" x="677.832"/><use xlink:href="#DejaVuSans-72" x="739.111"/><use xlink:href="#DejaVuSans-6d" x="778.475"/><use xlink:href="#DejaVuSans-61" x="875.887"/><use xlink:href="#DejaVuSans-64" x="937.166"/><use xlink:href="#DejaVuSans-69" x="1000.643"/><use xlink:href="#DejaVuSans-6c" x="1028.426"/><use xlink:href="#DejaVuSans-6c" x="1056.209"/><use xlink:href="#DejaVuSans-6f" x="1083.992"/></g><g id="text_21" style="fill:#b0b0b0" transform="matrix(.09716 0 0 -.09716 98.073 314.123)"><defs><path id="DejaVuSans-40" d="M2381 1678q0-447 222-702 222-254 610-254 384 0 604 256 221 256 221 700 0 438-225 695-225 258-607 258-378 0-602-256-223-256-223-697zm1703-934q-187-241-429-355t-564-114q-538 0-874 389t-336 1014q0 625 337 1015 338 391 873 391 322 0 565-117 244-117 428-354v409h447V722q457 69 714 417 258 349 258 902 0 334-99 628-98 294-298 544-325 409-792 626t-1017 217q-384 0-738-102-353-101-653-301-490-319-767-836-276-517-276-1120 0-497 179-932 180-434 521-765 328-325 759-495 431-171 922-171 403 0 792 136t714 389l281-347q-390-303-851-464t-936-161q-578 0-1091 205-512 205-912 595Q841 78 631 592q-209 514-209 1105 0 569 212 1084 213 516 607 907 403 396 931 607t1119 211q662 0 1229-272 568-271 952-771 234-307 357-666 124-359 124-744 0-822-497-1297T4084 263v481z" transform="scale(.01563)"/><path id="DejaVuSans-7c" d="M1344 4891v-6400H813v6400h531z" transform="scale(.01563)"/><path id="DejaVuSans-4e" d="M628 4666h850L3547 763v3903h612V0h-850L1241 3903V0H628v4666z" transform="scale(.01563)"/><path id="DejaVuSans-f6" d="M1959 3097q-462 0-731-361t-269-989q0-628 267-989 268-361 733-361 460 0 728 362 269 363 269 988 0 622-269 986-268 364-728 364zm0 487q750 0 1178-488 429-487 429-1349 0-859-429-1349Q2709-91 1959-91q-753 0-1180 489-426 490-426 1349 0 862 426 1349 427 488 1180 488zm295 1266h634v-631h-634v631zm-1222 0h634v-631h-634v631z" transform="scale(.01563)"/><path id="DejaVuSans-59" d="M-13 4666h679l1293-1919 1285 1919h678L2272 2222V0h-634v2222L-13 4666z" transform="scale(.01563)"/></defs><use xlink:href="#DejaVuSans-40"/><use xlink:href="#DejaVuSans-6e" x="100"/><use xlink:href="#DejaVuSans-73" x="163.379"/><use xlink:href="#DejaVuSans-63" x="215.479"/><use xlink:href="#DejaVuSans-68" x="270.459"/><use xlink:href="#DejaVuSans-6c" x="333.838"/><use xlink:href="#DejaVuSans-6f" x="361.621"/><use xlink:href="#DejaVuSans-65" x="422.803"/><use xlink:href="#DejaVuSans-20" x="484.326"/><use xlink:href="#DejaVuSans-2f" x="516.113"/><use xlink:href="#DejaVuSans-20" x="549.805"/><use xlink:href="#DejaVuSans-67" x="581.592"/><use xlink:href="#DejaVuSans-69" x="645.068"/><use xlink:href="#DejaVuSans-74" x="672.852"/><use xlink:href="#DejaVuSans-68" x="712.061"/><use xlink:href="#DejaVuSans-75" x="775.439"/><use xlink:href="#DejaVuSans-62" x="838.818"/><use xlink:href="#DejaVuSans-2d" x="902.295"/><use xlink:href="#DejaVuSans-74" x="938.379"/><use xlink:href="#DejaVuSans-72" x="977.588"/><use xlink:href="#DejaVuSans-65" x="1016.451"/><use xlink:href="#DejaVuSans-6e" x="1077.975"/><use xlink:href="#DejaVuSans-64" x="1141.354"/><use xlink:href="#DejaVuSans-73" x="1204.83"/><use xlink:href="#DejaVuSans-20" x="1256.93"/><use xlink:href="#DejaVuSans-7c" x="1288.717"/><use xlink:href="#DejaVuSans-20" x="1322.408"/><use xlink:href="#DejaVuSans-4e" x="1354.195"/><use xlink:href="#DejaVuSans-69" x="1429"/><use xlink:href="#DejaVuSans-63" x="1456.783"/><use xlink:href="#DejaVuSans-6f" x="1511.764"/><use xlink:href="#DejaVuSans-20" x="1572.945"/><use xlink:href="#DejaVuSans-53" x="1604.732"/><use xlink:href="#DejaVuSans-63" x="1668.209"/><use xlink:href="#DejaVuSans-68" x="1723.189"/><use xlink:href="#DejaVuSans-6c" x="1786.568"/><use xlink:href="#DejaVuSans-f6" x="1814.352"/><use xlink:href="#DejaVuSans-6d" x="1875.533"/><use xlink:href="#DejaVuSans-65" x="1972.945"/><use xlink:href="#DejaVuSans-72" x="2034.469"/><use xlink:href="#DejaVuSans-20" x="2075.582"/><use xlink:href="#DejaVuSans-7c" x="2107.369"/><use xlink:href="#DejaVuSans-20" x="2141.061"/><use xlink:href="#DejaVuSans-43" x="2172.848"/><use xlink:href="#DejaVuSans-43" x="2242.672"/><use xlink:href="#DejaVuSans-20" x="2312.496"/><use xlink:href="#DejaVuSans-42" x="2344.283"/><use xlink:href="#DejaVuSans-59" x="2407.387"/></g><path id="line2d_20" d="m204.647 280.087 2.526-.16 2.444-.053 2.526-.107h2.444l2.526-.053 2.526-.053 2.281-.053 2.526-.107h2.445l2.525-.106h2.445l2.526-.054 2.525-.106 2.445-.053 2.526-.054h2.444l2.526-.106 2.526-.213 2.362-.053 2.526-.053 2.445-.054 2.525-.053 2.445-.106 2.526-.054 2.525-.16 2.445-.052h4.97l2.526-.107 2.526-.106 2.281-.107 2.526-.053 2.444-.107 2.526-.106 2.444-.053 2.526-.266 2.526-.16 2.444-.213h2.526l2.445-.266h7.333l2.526-.213 2.444-.266 2.526-.213 2.444-.213 2.526-.16 2.526-.053 2.444-.16 2.526-.053 2.444-.107 2.526-.053 2.526-.106 2.281-.16 2.526-.16 2.445-.053 2.525-.053 2.445-.053 2.526-.054 2.525-.053h4.971l2.444-.106 2.526-.32h4.888l2.526-.266 2.445-.16 2.525-.266 2.445-.266 2.526-.106 2.525-.213 2.445-.107h2.526l2.444-.106 2.526-.107 2.526-.106 2.281-.053 2.526-.267 2.444-.16 2.526-.159 2.444-.053 2.526-.107 2.526-.106h2.444l2.526-.16 2.445-.213 2.525-.16 2.526-.106h2.282l2.526-.053 2.444-.053 2.526-.054 2.444-.106 2.526-.373h2.526l2.444-.32 2.526-.159 2.444-.585 2.526-.426" clip-path="url(#pbd0d5e9aa7)" style="fill:none;stroke:#9467bd;stroke-width:1.5;stroke-linecap:square"/><path id="line2d_21" d="m192.18 280.087 2.527-.373 2.444-.266 2.526-.213 2.444-.107 2.526-.106h2.526l2.444-.106 2.526-.107 2.444-.053 2.526-.213h2.526l2.281-.16 2.526-.266h2.445l2.525-.053 2.445-.107h2.526l2.525-.213 2.445-.212 2.526-.32h2.444l2.526-.16 2.526-.213 2.362-.106 2.526-.266 2.445-.053 2.525-.054 2.445-.319 2.526-.266 2.525-.053 2.445-.107 2.526-.106 2.444-.107h2.526l2.526-.106 2.281-.213 2.526-.053 2.444-.054 2.526-.213 2.444-.053 2.526-.106 2.526-.054 2.444-.053 2.526-.16h2.445l2.525-.053 2.526-.053 2.282-.106 2.526-.373 2.444-.266 2.526-.053 2.444-.373 2.526-.107h2.526l2.444-.053 2.526-.106 2.444-.053h2.526l2.526-.213 2.281-.054 2.526-.16h2.445l2.525-.106 2.445-.053 2.526-.053 2.525-.32 2.445-.053 2.526-.053 2.444-.053 2.526-.107 2.526-.053 2.362-.107 2.526-.053 2.445-.32 2.525-.052 2.445-.213 2.526-.16 2.525-.16h2.445l2.526-.16 2.444-.319h2.526l2.526-.16 2.281-.106 2.526-.053 2.444-.053h2.526l2.444-.213h2.526l2.526-.107 2.444-.106h7.496l2.526-.213h2.282l2.526-.053 2.444-.054h2.526l2.444-.106h2.526l2.526-.053 2.444-.16 2.526-.107 2.444-.16h2.526" clip-path="url(#pbd0d5e9aa7)" style="fill:none;stroke:#d62728;stroke-width:1.5;stroke-linecap:square"/><path id="line2d_22" d="m256.712 280.087 2.525-.107 2.445-.053 2.526-.692 2.525-.852 2.445-.32 2.526-.106 2.444-.372 2.526-.746 2.526-.532 2.281-.532 2.526-.799 2.444-.532 2.526-.852 2.444-.479 2.526-.639 2.526-.319 2.444-.745 2.526-.692 2.445-.799 2.525-.585 2.526-.799 2.282-.585 2.526-.586 2.444-.532 2.526-.64 2.444-.478 2.526-.639 2.526-.799 2.444-.425 2.526-.48 2.444-.372 2.526-.639 2.526-.692 2.281-.692 2.526-.852 2.445-.532 2.525-.586 2.445-.532 2.526-.639 2.525-.372 2.445-.32 2.526-.426 2.444-.798 2.526-.852 2.526-.692 2.362-.798 2.526-1.171 2.445-1.331 2.525-1.225 2.445-.638 2.526-.746 2.525-.905 2.445-1.17 2.526-.853 2.444-.905 2.526-.851 2.526-1.171 2.281-.586 2.526-1.118 2.444-1.224 2.526-.586 2.444-.479 2.526-.745 2.526-.958 2.444-.64 2.526-1.17 2.445-1.012 2.525-.798 2.526-.905 2.282-.639 2.526-.905 2.444-.745 2.526-.586 2.444-1.437 2.526-.905 2.526-1.171 2.444-.958 2.526-.958 2.444-1.065 2.526-.852" clip-path="url(#pbd0d5e9aa7)" style="fill:none;stroke:#2ca02c;stroke-width:1.5;stroke-linecap:square"/><path id="line2d_23" d="m187.373 280.087 2.526-.32 2.282-.053 2.526-.16 2.444-.213 2.526-.319 2.444-.16 2.526-.16 2.526-.053 2.444-.053 2.526-.106h2.444l2.526-.213 2.526-.16 2.281-.16 2.526-.053 2.445-.106h2.525l2.445-.213 2.526-.266 2.525-.267 2.445-.266 2.526-.639 2.444-.372 2.526-.32 2.526-.585 2.362-.107 2.526-1.543 2.445-.426 2.525-.16 2.445-.639 2.526-.479 2.525-.32 2.445-.372 2.526-.213 2.444-.32h2.526l2.526-.159 2.281-.639 2.526-.106 2.444-.373 2.526-.372 2.444-.267 2.526-.213 2.526-.212 2.444-.32 2.526-.639 2.445-.372 2.525-.586 2.526-.372 2.282-.054 2.526-.585 2.444-.799 2.526-1.118 2.444-.532 2.526-.692 2.526-.426 2.444-1.065 2.526-1.224 2.444-.479 2.526-.48 2.526-.744 2.281-.692 2.526-1.065 2.445-.905 2.525-.852 2.445-1.437 2.526-.692 2.525-1.065 2.445-1.011 2.526-.532 2.444-.693 2.526-.692 2.526-1.117 2.362-1.012 2.526-.958 2.445-1.011 2.525-1.065 2.445-.905 2.526-1.278 2.525-1.011 2.445-.586 2.526-.638 2.444-.48 2.526-.692 2.526-1.011 2.281-.692 2.526-1.384 2.444-.532 2.526-.586 2.444-.958 2.526-.799 2.526-.692 2.444-.851 2.526-.799 2.445-1.011 2.525-3.514 2.526-10.593 2.282-.905 2.526-.639 2.444-1.224 2.526-.852 2.444-1.065 2.526-.851 2.526-.852 2.444-1.171 2.526-1.384 2.444-1.597 2.526-.692" clip-path="url(#pbd0d5e9aa7)" style="fill:none;stroke:#ff7f0e;stroke-width:1.5;stroke-linecap:square"/><path id="line2d_24" d="m98.073 280.087 2.526-3.035 2.281-.266 2.526-.106 2.445-.533 7.496-.425 22.325-1.331 4.97-.213 2.526-.213 14.992-.053 7.251-1.118 4.97-.692 5.052-1.384 9.94-1.917 4.808-1.224 4.97-1.065 4.97-1.756 5.052-1.118 2.444-.852 2.526-.639 2.444-.905 2.526-1.384 2.526-.958 2.281-1.118 4.97-2.662 2.526-1.118 7.496-4.737 2.445-1.278 7.496-4.844 2.526-2.076 2.362-1.171 2.526-1.49 4.97-3.62 2.445-1.225 2.526-1.97 4.97-4.365 2.526-2.928 7.496-6.228 2.281-1.597 2.526-3.087 9.94-9.582 2.526-2.928 2.444-2.183 2.526-2.448 2.445-3.354 2.525-2.29 4.808-4.843 4.97-6.388 2.526-2.822 2.444-3.407 2.526-2.661 2.526-2.875 2.444-2.395 4.97-5.696 5.052-6.335 2.281-1.916 4.97-5.803 2.526-5.057 2.445-2.289 2.526-2.98 2.525-2.663 2.445-3.406 4.97-5.217 2.526-3.248 2.526-2.448 2.362-2.715 2.526-2.555 2.445-2.662 4.97-6.548 5.051-5.323 9.94-11.924 4.808-4.95 4.97-6.07 2.526-2.182 2.444-3.3 2.526-3.035 2.526-2.235 2.444-1.864 2.526-2.342 7.496-7.612 2.282-2.13 2.526-4.63 2.444-4.153 2.526-3.62 2.444-3.886 2.526-4.312 2.526-3.62 4.97-5.962 2.444-4.045 2.526-2.502h0" clip-path="url(#pbd0d5e9aa7)" style="fill:none;stroke:#1f77b4;stroke-width:1.5;stroke-linecap:square"/></g></g><defs><clipPath id="pbd0d5e9aa7"><path d="M98.073 13.975h357.12v266.112H98.073z"/></clipPath></defs></svg>