<svg xmlns="http://www.w3.org/2000/svg" xmlns:xlink="http://www.w3.org/1999/xlink" width="846.123" height="433.379" viewBox="0 0 634.592 325.034"><defs><style>*{stroke-linejoin:round;stroke-linecap:butt}</style></defs><g id="figure_1"><path id="patch_1" d="M0 325.034h634.592V0H0v325.034z" style="fill:none"/><g id="axes_1"><path id="patch_2" d="M98.073 281.507h357.12V15.395H98.073v266.112z" style="fill:none"/><g id="matplotlib.axis_1"><g id="xtick_1"><g id="line2d_1"><defs><path id="m5824886542" d="M0 0v3.5" style="stroke:#b0b0b0;stroke-width:.4"/></defs><use xlink:href="#m5824886542" x="107.796" y="281.507" style="fill:#b0b0b0;stroke:#b0b0b0;stroke-width:.4"/></g><g id="text_1" style="fill:#b0b0b0" transform="matrix(.14 0 0 -.14 89.981 299.145)"><defs><path id="DejaVuSans-32" d="M1228 531h2203V0H469v531q359 372 979 998 621 627 780 809 303 340 423 576 121 236 121 464 0 372-261 606-261 235-680 235-297 0-627-103-329-103-704-313v638q381 153 712 231 332 78 607 78 725 0 1156-363 431-362 431-968 0-288-108-546-107-257-392-607-78-91-497-524-418-433-1181-1211z" transform="scale(.01563)"/><path id="DejaVuSans-30" d="M2034 4250q-487 0-733-480-245-479-245-1442 0-959 245-1439 246-480 733-480 491 0 736 480 246 480 246 1439 0 963-246 1442-245 480-736 480zm0 500q785 0 1199-621 414-620 414-1801 0-1178-414-1799Q2819-91 2034-91q-784 0-1198 620-414 621-414 1799 0 1181 414 1801 414 621 1198 621z" transform="scale(.01563)"/><path id="DejaVuSans-31" d="M794 531h1031v3560L703 3866v575l1116 225h631V531h1031V0H794v531z" transform="scale(.01563)"/><path id="DejaVuSans-34" d="M2419 4116 825 1625h1594v2491zm-166 550h794V1625h666v-525h-666V0h-628v1100H313v609l1940 2957z" transform="scale(.01563)"/></defs><use xlink:href="#DejaVuSans-32"/><use xlink:href="#DejaVuSans-30" x="63.623"/><use xlink:href="#DejaVuSans-31" x="127.246"/><use xlink:href="#DejaVuSans-34" x="190.869"/></g></g><g id="xtick_2"><use xlink:href="#m5824886542" id="line2d_2" x="146.373" y="281.507" style="fill:#b0b0b0;stroke:#b0b0b0;stroke-width:.4"/><g id="text_2" style="fill:#b0b0b0" transform="matrix(.14 0 0 -.14 128.558 299.145)"><defs><path id="DejaVuSans-35" d="M691 4666h2478v-532H1269V2991q137 47 274 70 138 23 276 23 781 0 1237-428 457-428 457-1159 0-753-469-1171Q2575-91 1722-91q-294 0-599 50Q819 9 494 109v635q281-153 581-228t634-75q541 0 856 284 316 284 316 772 0 487-316 771-315 285-856 285-253 0-505-56-251-56-513-175v2344z" transform="scale(.01563)"/></defs><use xlink:href="#DejaVuSans-32"/><use xlink:href="#DejaVuSans-30" x="63.623"/><use xlink:href="#DejaVuSans-31" x="127.246"/><use xlink:href="#DejaVuSans-35" x="190.869"/></g></g><g id="xtick_3"><use xlink:href="#m5824886542" id="line2d_3" x="184.949" y="281.507" style="fill:#b0b0b0;stroke:#b0b0b0;stroke-width:.4"/><g id="text_3" style="fill:#b0b0b0" transform="matrix(.14 0 0 -.14 167.134 299.145)"><defs><path id="DejaVuSans-36" d="M2113 2584q-425 0-674-291-248-290-248-796 0-503 248-796 249-292 674-292t673 292q248 293 248 796 0 506-248 796-248 291-673 291zm1253 1979v-575q-238 112-480 171-242 60-480 60-625 0-955-422-329-422-376-1275 184 272 462 417 279 145 613 145 703 0 1111-427 408-426 408-1160 0-719-425-1154Q2819-91 2113-91q-810 0-1238 620-428 621-428 1799 0 1106 525 1764t1409 658q238 0 480-47t505-140z" transform="scale(.01563)"/></defs><use xlink:href="#DejaVuSans-32"/><use xlink:href="#DejaVuSans-30" x="63.623"/><use xlink:href="#DejaVuSans-31" x="127.246"/><use xlink:href="#DejaVuSans-36" x="190.869"/></g></g><g id="xtick_4"><use xlink:href="#m5824886542" id="line2d_4" x="223.631" y="281.507" style="fill:#b0b0b0;stroke:#b0b0b0;stroke-width:.4"/><g id="text_4" style="fill:#b0b0b0" transform="matrix(.14 0 0 -.14 205.816 299.145)"><defs><path id="DejaVuSans-37" d="M525 4666h3000v-269L1831 0h-659l1594 4134H525v532z" transform="scale(.01563)"/></defs><use xlink:href="#DejaVuSans-32"/><use xlink:href="#DejaVuSans-30" x="63.623"/><use xlink:href="#DejaVuSans-31" x="127.246"/><use xlink:href="#DejaVuSans-37" x="190.869"/></g></g><g id="xtick_5"><use xlink:href="#m5824886542" id="line2d_5" x="262.207" y="281.507" style="fill:#b0b0b0;stroke:#b0b0b0;stroke-width:.4"/><g id="text_5" style="fill:#b0b0b0" transform="matrix(.14 0 0 -.14 244.392 299.145)"><defs><path id="DejaVuSans-38" d="M2034 2216q-450 0-708-241-257-241-257-662 0-422 257-663 258-241 708-241t709 242q260 243 260 662 0 421-258 662-257 241-711 241zm-631 268q-406 100-633 378-226 279-226 679 0 559 398 884 399 325 1092 325 697 0 1094-325t397-884q0-400-227-679-226-278-629-378 456-106 710-416 255-309 255-755 0-679-414-1042Q2806-91 2034-91q-771 0-1186 362-414 363-414 1042 0 446 256 755 257 310 713 416zm-231 997q0-362 226-565 227-203 636-203 407 0 636 203 230 203 230 565 0 363-230 566-229 203-636 203-409 0-636-203-226-203-226-566z" transform="scale(.01563)"/></defs><use xlink:href="#DejaVuSans-32"/><use xlink:href="#DejaVuSans-30" x="63.623"/><use xlink:href="#DejaVuSans-31" x="127.246"/><use xlink:href="#DejaVuSans-38" x="190.869"/></g></g><g id="xtick_6"><use xlink:href="#m5824886542" id="line2d_6" x="300.783" y="281.507" style="fill:#b0b0b0;stroke:#b0b0b0;stroke-width:.4"/><g id="text_6" style="fill:#b0b0b0" transform="matrix(.14 0 0 -.14 282.968 299.145)"><defs><path id="DejaVuSans-39" d="M703 97v575q238-113 481-172 244-59 479-59 625 0 954 420 330 420 377 1277-181-269-460-413-278-144-615-144-700 0-1108 423-408 424-408 1159 0 718 425 1152 425 435 1131 435 810 0 1236-621 427-620 427-1801 0-1103-524-1761Q2575-91 1691-91q-238 0-482 47Q966 3 703 97zm1256 1978q425 0 673 290 249 291 249 798 0 503-249 795-248 292-673 292t-673-292q-248-292-248-795 0-507 248-798 248-290 673-290z" transform="scale(.01563)"/></defs><use xlink:href="#DejaVuSans-32"/><use xlink:href="#DejaVuSans-30" x="63.623"/><use xlink:href="#DejaVuSans-31" x="127.246"/><use xlink:href="#DejaVuSans-39" x="190.869"/></g></g><g id="xtick_7"><use xlink:href="#m5824886542" id="line2d_7" x="339.359" y="281.507" style="fill:#b0b0b0;stroke:#b0b0b0;stroke-width:.4"/><g id="text_7" style="fill:#b0b0b0" transform="matrix(.14 0 0 -.14 321.544 299.145)"><use xlink:href="#DejaVuSans-32"/><use xlink:href="#DejaVuSans-30" x="63.623"/><use xlink:href="#DejaVuSans-32" x="127.246"/><use xlink:href="#DejaVuSans-30" x="190.869"/></g></g><g id="xtick_8"><use xlink:href="#m5824886542" id="line2d_8" x="378.041" y="281.507" style="fill:#b0b0b0;stroke:#b0b0b0;stroke-width:.4"/><g id="text_8" style="fill:#b0b0b0" transform="matrix(.14 0 0 -.14 360.226 299.145)"><use xlink:href="#DejaVuSans-32"/><use xlink:href="#DejaVuSans-30" x="63.623"/><use xlink:href="#DejaVuSans-32" x="127.246"/><use xlink:href="#DejaVuSans-31" x="190.869"/></g></g><g id="xtick_9"><use xlink:href="#m5824886542" id="line2d_9" x="416.617" y="281.507" style="fill:#b0b0b0;stroke:#b0b0b0;stroke-width:.4"/><g id="text_9" style="fill:#b0b0b0" transform="matrix(.14 0 0 -.14 398.802 299.145)"><use xlink:href="#DejaVuSans-32"/><use xlink:href="#DejaVuSans-30" x="63.623"/><use xlink:href="#DejaVuSans-32" x="127.246"/><use xlink:href="#DejaVuSans-32" x="190.869"/></g></g><g id="xtick_10"><use xlink:href="#m5824886542" id="line2d_10" x="455.193" y="281.507" style="fill:#b0b0b0;stroke:#b0b0b0;stroke-width:.4"/><g id="text_10" style="fill:#b0b0b0" transform="matrix(.14 0 0 -.14 437.378 299.145)"><defs><path id="DejaVuSans-33" d="M2597 2516q453-97 707-404 255-306 255-756 0-690-475-1069Q2609-91 1734-91q-293 0-604 58T488 141v609q262-153 574-231 313-78 654-78 593 0 904 234t311 681q0 413-289 645-289 233-804 233h-544v519h569q465 0 712 186t247 536q0 359-255 551-254 193-729 193-260 0-557-57-297-56-653-174v562q360 100 674 150t592 50q719 0 1137-327 419-326 419-882 0-388-222-655t-631-370z" transform="scale(.01563)"/></defs><use xlink:href="#DejaVuSans-32"/><use xlink:href="#DejaVuSans-30" x="63.623"/><use xlink:href="#DejaVuSans-32" x="127.246"/><use xlink:href="#DejaVuSans-33" x="190.869"/></g></g></g><g id="matplotlib.axis_2"><g id="ytick_1"><path id="line2d_11" d="M98.073 281.507h357.12" clip-path="url(#p75d74919b0)" style="fill:none;stroke:#b0b0b0;stroke-width:.3;stroke-linecap:square"/><g id="line2d_12"><defs><path id="m5364e1bdbe" d="M0 0h-3.5" style="stroke:#b0b0b0;stroke-width:.3"/></defs><use xlink:href="#m5364e1bdbe" x="98.073" y="281.507" style="fill:#b0b0b0;stroke:#b0b0b0;stroke-width:.3"/></g><use xlink:href="#DejaVuSans-30" id="text_11" style="fill:#b0b0b0" transform="matrix(.14 0 0 -.14 82.166 286.826)"/></g><g id="ytick_2"><path id="line2d_13" d="M98.073 247.161h357.12" clip-path="url(#p75d74919b0)" style="fill:none;stroke:#b0b0b0;stroke-width:.3;stroke-linecap:square"/><use xlink:href="#m5364e1bdbe" id="line2d_14" x="98.073" y="247.161" style="fill:#b0b0b0;stroke:#b0b0b0;stroke-width:.3"/><g id="text_12" style="fill:#b0b0b0" transform="matrix(.14 0 0 -.14 64.35 252.48)"><use xlink:href="#DejaVuSans-32"/><use xlink:href="#DejaVuSans-35" x="63.623"/><use xlink:href="#DejaVuSans-30" x="127.246"/></g></g><g id="ytick_3"><path id="line2d_15" d="M98.073 212.815h357.12" clip-path="url(#p75d74919b0)" style="fill:none;stroke:#b0b0b0;stroke-width:.3;stroke-linecap:square"/><use xlink:href="#m5364e1bdbe" id="line2d_16" x="98.073" y="212.815" style="fill:#b0b0b0;stroke:#b0b0b0;stroke-width:.3"/><g id="text_13" style="fill:#b0b0b0" transform="matrix(.14 0 0 -.14 64.35 218.134)"><use xlink:href="#DejaVuSans-35"/><use xlink:href="#DejaVuSans-30" x="63.623"/><use xlink:href="#DejaVuSans-30" x="127.246"/></g></g><g id="ytick_4"><path id="line2d_17" d="M98.073 178.47h357.12" clip-path="url(#p75d74919b0)" style="fill:none;stroke:#b0b0b0;stroke-width:.3;stroke-linecap:square"/><use xlink:href="#m5364e1bdbe" id="line2d_18" x="98.073" y="178.469" style="fill:#b0b0b0;stroke:#b0b0b0;stroke-width:.3"/><g id="text_14" style="fill:#b0b0b0" transform="matrix(.14 0 0 -.14 64.35 183.788)"><use xlink:href="#DejaVuSans-37"/><use xlink:href="#DejaVuSans-35" x="63.623"/><use xlink:href="#DejaVuSans-30" x="127.246"/></g></g><g id="ytick_5"><path id="line2d_19" d="M98.073 144.124h357.12" clip-path="url(#p75d74919b0)" style="fill:none;stroke:#b0b0b0;stroke-width:.3;stroke-linecap:square"/><use xlink:href="#m5364e1bdbe" id="line2d_20" x="98.073" y="144.124" style="fill:#b0b0b0;stroke:#b0b0b0;stroke-width:.3"/><g id="text_15" style="fill:#b0b0b0" transform="matrix(.14 0 0 -.14 55.443 149.442)"><use xlink:href="#DejaVuSans-31"/><use xlink:href="#DejaVuSans-30" x="63.623"/><use xlink:href="#DejaVuSans-30" x="127.246"/><use xlink:href="#DejaVuSans-30" x="190.869"/></g></g><g id="ytick_6"><path id="line2d_21" d="M98.073 109.778h357.12" clip-path="url(#p75d74919b0)" style="fill:none;stroke:#b0b0b0;stroke-width:.3;stroke-linecap:square"/><use xlink:href="#m5364e1bdbe" id="line2d_22" x="98.073" y="109.778" style="fill:#b0b0b0;stroke:#b0b0b0;stroke-width:.3"/><g id="text_16" style="fill:#b0b0b0" transform="matrix(.14 0 0 -.14 55.443 115.097)"><use xlink:href="#DejaVuSans-31"/><use xlink:href="#DejaVuSans-32" x="63.623"/><use xlink:href="#DejaVuSans-35" x="127.246"/><use xlink:href="#DejaVuSans-30" x="190.869"/></g></g><g id="ytick_7"><path id="line2d_23" d="M98.073 75.432h357.12" clip-path="url(#p75d74919b0)" style="fill:none;stroke:#b0b0b0;stroke-width:.3;stroke-linecap:square"/><use xlink:href="#m5364e1bdbe" id="line2d_24" x="98.073" y="75.432" style="fill:#b0b0b0;stroke:#b0b0b0;stroke-width:.3"/><g id="text_17" style="fill:#b0b0b0" transform="matrix(.14 0 0 -.14 55.443 80.75)"><use xlink:href="#DejaVuSans-31"/><use xlink:href="#DejaVuSans-35" x="63.623"/><use xlink:href="#DejaVuSans-30" x="127.246"/><use xlink:href="#DejaVuSans-30" x="190.869"/></g></g><g id="ytick_8"><path id="line2d_25" d="M98.073 41.086h357.12" clip-path="url(#p75d74919b0)" style="fill:none;stroke:#b0b0b0;stroke-width:.3;stroke-linecap:square"/><use xlink:href="#m5364e1bdbe" id="line2d_26" x="98.073" y="41.086" style="fill:#b0b0b0;stroke:#b0b0b0;stroke-width:.3"/><g id="text_18" style="fill:#b0b0b0" transform="matrix(.14 0 0 -.14 55.443 46.405)"><use xlink:href="#DejaVuSans-31"/><use xlink:href="#DejaVuSans-37" x="63.623"/><use xlink:href="#DejaVuSans-35" x="127.246"/><use xlink:href="#DejaVuSans-30" x="190.869"/></g></g><g id="text_19" style="fill:#b0b0b0" transform="matrix(.14 0 0 -.14 7.2 11.563)"><defs><path id="DejaVuSans-47" d="M3809 666v1253H2778v519h1656V434q-365-259-806-392-440-133-940-133-1094 0-1712 639-617 640-617 1780 0 1144 617 1783 618 639 1712 639 456 0 867-113 411-112 758-331v-672q-350 297-744 447t-828 150q-857 0-1287-478-429-478-429-1425 0-944 429-1422 430-478 1287-478 334 0 596 58 263 58 472 180z" transform="scale(.01563)"/><path id="DejaVuSans-69" d="M603 3500h575V0H603v3500zm0 1363h575v-729H603v729z" transform="scale(.01563)"/><path id="DejaVuSans-74" d="M1172 4494v-994h1184v-447H1172V1153q0-428 117-550t477-122h590V0h-590q-666 0-919 248-253 249-253 905v1900H172v447h422v994h578z" transform="scale(.01563)"/><path id="DejaVuSans-48" d="M628 4666h631V2753h2294v1913h631V0h-631v2222H1259V0H628v4666z" transform="scale(.01563)"/><path id="DejaVuSans-75" d="M544 1381v2119h575V1403q0-497 193-746 194-248 582-248 465 0 735 297 271 297 271 810v1984h575V0h-575v538q-209-319-486-474-276-155-642-155-603 0-916 375-312 375-312 1097zm1447 2203z" transform="scale(.01563)"/><path id="DejaVuSans-62" d="M3116 1747q0 634-261 995t-717 361q-457 0-718-361t-261-995q0-634 261-995t718-361q456 0 717 361t261 995zM1159 2969q182 312 458 463 277 152 661 152 638 0 1036-506 399-506 399-1331T3314 415Q2916-91 2278-91q-384 0-661 152-276 152-458 464V0H581v4863h578V2969z" transform="scale(.01563)"/><path id="DejaVuSans-73" d="M2834 3397v-544q-243 125-506 187-262 63-544 63-428 0-642-131t-214-394q0-200 153-314t616-217l197-44q612-131 870-370t258-667q0-488-386-773Q2250-91 1575-91q-281 0-586 55T347 128v594q319-166 628-249 309-82 613-82 406 0 624 139 219 139 219 392 0 234-158 359-157 125-692 241l-200 47q-534 112-772 345-237 233-237 639 0 494 350 762 350 269 994 269 318 0 599-47 282-46 519-140z" transform="scale(.01563)"/><path id="DejaVuSans-61" d="M2194 1759q-697 0-966-159t-269-544q0-306 202-486 202-179 548-179 479 0 768 339t289 901v128h-572zm1147 238V0h-575v531q-197-318-491-470T1556-91q-537 0-855 302-317 302-317 808 0 590 395 890 396 300 1180 300h807v57q0 397-261 614t-733 217q-300 0-585-72-284-72-546-216v532q315 122 612 182 297 61 578 61 760 0 1135-394 375-393 375-1193z" transform="scale(.01563)"/><path id="DejaVuSans-72" d="M2631 2963q-97 56-211 82-114 27-251 27-488 0-749-317t-261-911V0H581v3500h578v-544q182 319 472 473 291 155 707 155 59 0 131-8 72-7 159-23l3-590z" transform="scale(.01563)"/></defs><use xlink:href="#DejaVuSans-47"/><use xlink:href="#DejaVuSans-69" x="77.49"/><use xlink:href="#DejaVuSans-74" x="105.273"/><use xlink:href="#DejaVuSans-48" x="144.482"/><use xlink:href="#DejaVuSans-75" x="219.678"/><use xlink:href="#DejaVuSans-62" x="283.057"/><use xlink:href="#DejaVuSans-20" x="346.533"/><use xlink:href="#DejaVuSans-73" x="378.32"/><use xlink:href="#DejaVuSans-74" x="430.42"/><use xlink:href="#DejaVuSans-61" x="469.629"/><use xlink:href="#DejaVuSans-72" x="530.908"/><use xlink:href="#DejaVuSans-73" x="572.021"/></g></g><path id="line2d_27" d="m400.447 281.507 3.276-.412 3.17-.275h3.277l3.17-.275 3.277-.137 3.276-.137 2.96-.138 3.276-.137 3.17-.275h6.447l3.277-.412h6.446l3.277-.137 3.17-.138 3.277-.137" clip-path="url(#p75d74919b0)" style="fill:none;stroke:#8c564b;stroke-width:1.5;stroke-linecap:square"/><path id="line2d_28" d="m184.949 281.507 3.276-.137H194.566l3.171-.412 3.276-.275 3.171-.275 3.276-.137 3.277-.138 3.17-.137 3.277-.275 3.17-.137 3.277-.412 3.276-.55 2.96-.275 3.275-.824 3.171-.275 3.276-.137 3.171-.275 3.276-.55 3.277-.686 3.17-.275 3.277-.412 3.17-.962 3.277-.412 3.276-.412 2.96-.55 3.276-.824 3.17-.55 3.277-.274 3.17-.413 3.277-.412 3.276-.55 3.17-.137 3.277-.274 3.17-.138 3.277-.55 3.276-.686 2.96-.687 3.276-.962 3.17-.412 3.277-.962 3.17-.274 3.277-1.237 3.276-.55 3.17-.274 3.277-.138 3.17-.274 3.277-.55 3.276-.824 3.065-.412 3.277-.412 3.17-.55 3.277-.55 3.17-.55 3.277-.686 3.276-.687 3.17-.687 3.277-.687 3.17-.274 3.277-.413 3.276-1.236 2.96-1.1 3.276-1.236 3.17-.687 3.277-.686 3.17-.275 3.277-.962 3.276-.962 3.17-.824 3.277-.962 3.17-1.099 3.277-.55 3.276-.411 2.96-.825 3.276-.55 3.17-.411 3.277-.825 3.17-.55 3.277-.549 3.276-.824 3.17-.137 3.277-.55 3.17-.55 3.277-.549" clip-path="url(#p75d74919b0)" style="fill:none;stroke:#9467bd;stroke-width:1.5;stroke-linecap:square"/><path id="line2d_29" d="m332.912 281.507 3.17-.275 3.277-.137 3.276-.137 3.065-.55 3.277-.275h3.17l3.277-.274h3.17l3.277-3.847 3.276-4.396 3.17-5.496 3.277-3.847 3.17-3.434 3.277-1.511 3.276-.825 2.96-1.786 3.276-1.51 3.17-1.237 3.277-.687 3.17-.825 3.277-1.648 3.276-1.374 3.17-.412 3.277-2.336 3.17-1.923 3.277-.962 3.276-1.51 2.96-1.787 3.276-1.923 3.17-2.473 3.277-1.649 3.17-1.511 3.277-1.374 3.276-1.374 3.17-1.923 3.277-4.534 3.17-1.51 3.277-.825" clip-path="url(#p75d74919b0)" style="fill:none;stroke:#d62728;stroke-width:1.5;stroke-linecap:square"/><g id="text_20" style="fill:#1f77b4" transform="matrix(.14 0 0 -.14 465.907 19.258)"><defs><path id="DejaVuSans-70" d="M1159 525v-1856H581v4831h578v-531q182 312 458 463 277 152 661 152 638 0 1036-506 399-506 399-1331T3314 415Q2916-91 2278-91q-384 0-661 152-276 152-458 464zm1957 1222q0 634-261 995t-717 361q-457 0-718-361t-261-995q0-634 261-995t718-361q456 0 717 361t261 995z" transform="scale(.01563)"/><path id="DejaVuSans-79" d="M2059-325q-243-625-475-815-231-191-618-191H506v481h338q237 0 368 113 132 112 291 531l103 262L191 3500h609L1894 763l1094 2737h609L2059-325z" transform="scale(.01563)"/><path id="DejaVuSans-6c" d="M603 4863h575V0H603v4863z" transform="scale(.01563)"/><path id="DejaVuSans-65" d="M3597 1894v-281H953q38-594 358-905t892-311q331 0 642 81t618 244V178Q3153 47 2828-22t-659-69q-838 0-1327 487-489 488-489 1320 0 859 464 1363 464 505 1252 505 706 0 1117-455 411-454 411-1235zm-575 169q-6 471-264 752-258 282-683 282-481 0-770-272t-333-766l2050 4z" transform="scale(.01563)"/><path id="DejaVuSans-7a" d="M353 3500h2731v-525L922 459h2162V0H275v525l2163 2516H353v459z" transform="scale(.01563)"/><path id="DejaVuSans-2f" d="M1625 4666h531L531-594H0l1625 5260z" transform="scale(.01563)"/></defs><use xlink:href="#DejaVuSans-70"/><use xlink:href="#DejaVuSans-79" x="63.477"/><use xlink:href="#DejaVuSans-62" x="122.656"/><use xlink:href="#DejaVuSans-6c" x="186.133"/><use xlink:href="#DejaVuSans-75" x="213.916"/><use xlink:href="#DejaVuSans-65" x="277.295"/><use xlink:href="#DejaVuSans-7a" x="338.818"/><use xlink:href="#DejaVuSans-2f" x="391.309"/><use xlink:href="#DejaVuSans-70" x="425"/><use xlink:href="#DejaVuSans-79" x="488.477"/><use xlink:href="#DejaVuSans-62" x="547.656"/><use xlink:href="#DejaVuSans-6c" x="611.133"/><use xlink:href="#DejaVuSans-75" x="638.916"/><use xlink:href="#DejaVuSans-65" x="702.295"/><use xlink:href="#DejaVuSans-7a" x="763.818"/></g><g id="text_21" style="fill:#ff7f0e" transform="matrix(.14 0 0 -.14 465.907 79.158)"><defs><path id="DejaVuSans-49" d="M628 4666h631V0H628v4666z" transform="scale(.01563)"/><path id="DejaVuSans-6e" d="M3513 2113V0h-575v2094q0 497-194 743-194 247-581 247-466 0-735-297-269-296-269-809V0H581v3500h578v-544q207 316 486 472 280 156 646 156 603 0 912-373 310-373 310-1098z" transform="scale(.01563)"/><path id="DejaVuSans-76" d="M191 3500h609L1894 563l1094 2937h609L2284 0h-781L191 3500z" transform="scale(.01563)"/></defs><use xlink:href="#DejaVuSans-49"/><use xlink:href="#DejaVuSans-61" x="29.492"/><use xlink:href="#DejaVuSans-6e" x="90.771"/><use xlink:href="#DejaVuSans-48" x="154.15"/><use xlink:href="#DejaVuSans-61" x="229.346"/><use xlink:href="#DejaVuSans-72" x="290.625"/><use xlink:href="#DejaVuSans-76" x="331.738"/><use xlink:href="#DejaVuSans-65" x="390.918"/><use xlink:href="#DejaVuSans-79" x="452.441"/><use xlink:href="#DejaVuSans-2f" x="511.621"/><use xlink:href="#DejaVuSans-62" x="545.313"/><use xlink:href="#DejaVuSans-6c" x="608.789"/><use xlink:href="#DejaVuSans-75" x="636.572"/><use xlink:href="#DejaVuSans-65" x="699.951"/><use xlink:href="#DejaVuSans-70" x="761.475"/><use xlink:href="#DejaVuSans-79" x="824.951"/></g><g id="text_22" style="fill:#2ca02c" transform="matrix(.14 0 0 -.14 465.907 149.223)"><defs><path id="DejaVuSans-68" d="M3513 2113V0h-575v2094q0 497-194 743-194 247-581 247-466 0-735-297-269-296-269-809V0H581v4863h578V2956q207 316 486 472 280 156 646 156 603 0 912-373 310-373 310-1098z" transform="scale(.01563)"/><path id="DejaVuSans-64" d="M2906 2969v1894h575V0h-575v525q-181-312-458-464-276-152-664-152-634 0-1033 506-398 507-398 1332t398 1331q399 506 1033 506 388 0 664-152 277-151 458-463zM947 1747q0-634 261-995t717-361q456 0 718 361 263 361 263 995t-263 995q-262 361-718 361t-717-361q-261-361-261-995z" transform="scale(.01563)"/><path id="DejaVuSans-6b" d="M581 4863h578V1991l1716 1509h734L1753 1863 3688 0h-750L1159 1709V0H581v4863z" transform="scale(.01563)"/></defs><use xlink:href="#DejaVuSans-68"/><use xlink:href="#DejaVuSans-62" x="63.379"/><use xlink:href="#DejaVuSans-6c" x="126.855"/><use xlink:href="#DejaVuSans-64" x="154.639"/><use xlink:href="#DejaVuSans-68" x="218.115"/><use xlink:href="#DejaVuSans-2f" x="281.494"/><use xlink:href="#DejaVuSans-62" x="315.186"/><use xlink:href="#DejaVuSans-6c" x="378.662"/><use xlink:href="#DejaVuSans-65" x="406.445"/><use xlink:href="#DejaVuSans-61" x="467.969"/><use xlink:href="#DejaVuSans-6b" x="529.248"/></g><g id="text_23" style="fill:#d62728" transform="matrix(.14 0 0 -.14 465.907 223.273)"><defs><path id="DejaVuSans-66" d="M2375 4863v-479h-550q-309 0-430-125-120-125-120-450v-309h947v-447h-947V0H697v3053H147v447h550v244q0 584 272 851 272 268 862 268h544z" transform="scale(.01563)"/><path id="DejaVuSans-4f" d="M2522 4238q-688 0-1093-513-404-512-404-1397 0-881 404-1394 405-512 1093-512 687 0 1089 512 402 513 402 1394 0 885-402 1397-402 513-1089 513zm0 512q981 0 1568-658 588-658 588-1764 0-1103-588-1761Q3503-91 2522-91q-984 0-1574 656-589 657-589 1763t589 1764q590 658 1574 658z" transform="scale(.01563)"/><path id="DejaVuSans-2d" d="M313 2009h1684v-512H313v512z" transform="scale(.01563)"/><path id="DejaVuSans-63" d="M3122 3366v-538q-244 135-489 202t-495 67q-560 0-870-355-309-354-309-995t309-996q310-354 870-354 250 0 495 67t489 202V134Q2881 22 2623-34q-257-57-548-57-791 0-1257 497-465 497-465 1341 0 856 470 1346 471 491 1290 491 265 0 518-55 253-54 491-163z" transform="scale(.01563)"/></defs><use xlink:href="#DejaVuSans-66"/><use xlink:href="#DejaVuSans-4f" x="35.205"/><use xlink:href="#DejaVuSans-2d" x="116.666"/><use xlink:href="#DejaVuSans-30" x="152.75"/><use xlink:href="#DejaVuSans-30" x="216.373"/><use xlink:href="#DejaVuSans-30" x="279.996"/><use xlink:href="#DejaVuSans-2f" x="343.619"/><use xlink:href="#DejaVuSans-62" x="377.311"/><use xlink:href="#DejaVuSans-6c" x="440.787"/><use xlink:href="#DejaVuSans-75" x="468.57"/><use xlink:href="#DejaVuSans-65" x="531.949"/><use xlink:href="#DejaVuSans-73" x="593.473"/><use xlink:href="#DejaVuSans-63" x="645.572"/><use xlink:href="#DejaVuSans-61" x="700.553"/><use xlink:href="#DejaVuSans-6e" x="761.832"/></g><g id="text_24" style="fill:#9467bd" transform="matrix(.14 0 0 -.14 465.907 241.27)"><defs><path id="DejaVuSans-42" d="M1259 2228V519h1013q509 0 754 211 246 211 246 645 0 438-246 645-245 208-754 208H1259zm0 1919V2741h935q462 0 688 173 227 174 227 530 0 353-227 528-226 175-688 175h-935zm-631 519h1613q722 0 1112-300 391-300 391-853 0-429-200-682t-588-315q466-100 724-418 258-317 258-792 0-625-425-966Q3088 0 2303 0H628v4666z" transform="scale(.01563)"/><path id="DejaVuSans-6f" d="M1959 3097q-462 0-731-361t-269-989q0-628 267-989 268-361 733-361 460 0 728 362 269 363 269 988 0 622-269 986-268 364-728 364zm0 487q750 0 1178-488 429-487 429-1349 0-859-429-1349Q2709-91 1959-91q-753 0-1180 489-426 490-426 1349 0 862 426 1349 427 488 1180 488z" transform="scale(.01563)"/></defs><use xlink:href="#DejaVuSans-75"/><use xlink:href="#DejaVuSans-6b" x="63.379"/><use xlink:href="#DejaVuSans-42" x="121.289"/><use xlink:href="#DejaVuSans-61" x="189.893"/><use xlink:href="#DejaVuSans-7a" x="251.172"/><use xlink:href="#DejaVuSans-2f" x="303.662"/><use xlink:href="#DejaVuSans-70" x="337.354"/><use xlink:href="#DejaVuSans-79" x="400.83"/><use xlink:href="#DejaVuSans-74" x="460.01"/><use xlink:href="#DejaVuSans-68" x="499.219"/><use xlink:href="#DejaVuSans-6f" x="562.598"/><use xlink:href="#DejaVuSans-6e" x="623.779"/><use xlink:href="#DejaVuSans-2d" x="687.158"/><use xlink:href="#DejaVuSans-62" x="723.242"/><use xlink:href="#DejaVuSans-6c" x="786.719"/><use xlink:href="#DejaVuSans-75" x="814.502"/><use xlink:href="#DejaVuSans-65" x="877.881"/><use xlink:href="#DejaVuSans-7a" x="939.404"/><use xlink:href="#DejaVuSans-65" x="991.895"/><use xlink:href="#DejaVuSans-72" x="1053.418"/><use xlink:href="#DejaVuSans-6f" x="1092.281"/></g><g id="text_25" style="fill:#8c564b" transform="matrix(.14 0 0 -.14 465.907 282.76)"><defs><path id="DejaVuSans-45" d="M628 4666h2950v-532H1259V2753h2222v-531H1259V531h2375V0H628v4666z" transform="scale(.01563)"/></defs><use xlink:href="#DejaVuSans-45"/><use xlink:href="#DejaVuSans-72" x="63.184"/><use xlink:href="#DejaVuSans-6e" x="102.547"/><use xlink:href="#DejaVuSans-73" x="165.926"/><use xlink:href="#DejaVuSans-74" x="218.025"/><use xlink:href="#DejaVuSans-37" x="257.234"/><use xlink:href="#DejaVuSans-39" x="320.857"/><use xlink:href="#DejaVuSans-2f" x="384.48"/><use xlink:href="#DejaVuSans-62" x="418.172"/><use xlink:href="#DejaVuSans-6c" x="481.648"/><use xlink:href="#DejaVuSans-65" x="509.432"/><use xlink:href="#DejaVuSans-70" x="570.955"/><use xlink:href="#DejaVuSans-61" x="634.432"/><use xlink:href="#DejaVuSans-72" x="695.711"/><use xlink:href="#DejaVuSans-73" x="736.824"/><use xlink:href="#DejaVuSans-65" x="788.924"/><use xlink:href="#DejaVuSans-72" x="850.447"/></g><g id="text_26" style="fill:#b0b0b0" transform="matrix(.09716 0 0 -.09716 98.073 315.544)"><defs><path id="DejaVuSans-40" d="M2381 1678q0-447 222-702 222-254 610-254 384 0 604 256 221 256 221 700 0 438-225 695-225 258-607 258-378 0-602-256-223-256-223-697zm1703-934q-187-241-429-355t-564-114q-538 0-874 389t-336 1014q0 625 337 1015 338 391 873 391 322 0 565-117 244-117 428-354v409h447V722q457 69 714 417 258 349 258 902 0 334-99 628-98 294-298 544-325 409-792 626t-1017 217q-384 0-738-102-353-101-653-301-490-319-767-836-276-517-276-1120 0-497 179-932 180-434 521-765 328-325 759-495 431-171 922-171 403 0 792 136t714 389l281-347q-390-303-851-464t-936-161q-578 0-1091 205-512 205-912 595Q841 78 631 592q-209 514-209 1105 0 569 212 1084 213 516 607 907 403 396 931 607t1119 211q662 0 1229-272 568-271 952-771 234-307 357-666 124-359 124-744 0-822-497-1297T4084 263v481z" transform="scale(.01563)"/><path id="DejaVuSans-67" d="M2906 1791q0 625-258 968-257 344-723 344-462 0-720-344-258-343-258-968 0-622 258-966t720-344q466 0 723 344 258 344 258 966zm575-1357q0-893-397-1329-396-436-1215-436-303 0-572 45t-522 139v559q253-137 500-202 247-66 503-66 566 0 847 295t281 892v285q-178-310-456-463T1784 0Q1141 0 747 490 353 981 353 1791q0 812 394 1302 394 491 1037 491 388 0 666-153t456-462v531h575V434z" transform="scale(.01563)"/><path id="DejaVuSans-7c" d="M1344 4891v-6400H813v6400h531z" transform="scale(.01563)"/><path id="DejaVuSans-4e" d="M628 4666h850L3547 763v3903h612V0h-850L1241 3903V0H628v4666z" transform="scale(.01563)"/><path id="DejaVuSans-53" d="M3425 4513v-616q-359 172-678 256-319 85-616 85-515 0-795-200t-280-569q0-310 186-468 186-157 705-254l381-78q706-135 1042-474t336-907q0-679-455-1029Q2797-91 1919-91q-331 0-705 75-373 75-773 222v650q384-215 753-325 369-109 725-109 540 0 834 212 294 213 294 607 0 343-211 537t-692 291l-385 75q-706 140-1022 440-315 300-315 835 0 619 436 975t1201 356q329 0 669-60 341-59 697-177z" transform="scale(.01563)"/><path id="DejaVuSans-f6" d="M1959 3097q-462 0-731-361t-269-989q0-628 267-989 268-361 733-361 460 0 728 362 269 363 269 988 0 622-269 986-268 364-728 364zm0 487q750 0 1178-488 429-487 429-1349 0-859-429-1349Q2709-91 1959-91q-753 0-1180 489-426 490-426 1349 0 862 426 1349 427 488 1180 488zm295 1266h634v-631h-634v631zm-1222 0h634v-631h-634v631z" transform="scale(.01563)"/><path id="DejaVuSans-6d" d="M3328 2828q216 388 516 572t706 184q547 0 844-383 297-382 297-1088V0h-578v2094q0 503-179 746-178 244-543 244-447 0-707-297-259-296-259-809V0h-578v2094q0 506-178 748t-550 242q-441 0-701-298-259-298-259-808V0H581v3500h578v-544q197 322 472 475t653 153q382 0 649-194 267-193 395-562z" transform="scale(.01563)"/><path id="DejaVuSans-43" d="M4122 4306v-665q-319 297-680 443-361 147-767 147-800 0-1225-489t-425-1414q0-922 425-1411t1225-489q406 0 767 147t680 444V359q-331-225-702-338-370-112-782-112-1060 0-1670 648-609 649-609 1771 0 1125 609 1773 610 649 1670 649 418 0 788-111 371-111 696-333z" transform="scale(.01563)"/><path id="DejaVuSans-59" d="M-13 4666h679l1293-1919 1285 1919h678L2272 2222V0h-634v2222L-13 4666z" transform="scale(.01563)"/></defs><use xlink:href="#DejaVuSans-40"/><use xlink:href="#DejaVuSans-6e" x="100"/><use xlink:href="#DejaVuSans-73" x="163.379"/><use xlink:href="#DejaVuSans-63" x="215.479"/><use xlink:href="#DejaVuSans-68" x="270.459"/><use xlink:href="#DejaVuSans-6c" x="333.838"/><use xlink:href="#DejaVuSans-6f" x="361.621"/><use xlink:href="#DejaVuSans-65" x="422.803"/><use xlink:href="#DejaVuSans-20" x="484.326"/><use xlink:href="#DejaVuSans-2f" x="516.113"/><use xlink:href="#DejaVuSans-20" x="549.805"/><use xlink:href="#DejaVuSans-67" x="581.592"/><use xlink:href="#DejaVuSans-69" x="645.068"/><use xlink:href="#DejaVuSans-74" x="672.852"/><use xlink:href="#DejaVuSans-68" x="712.061"/><use xlink:href="#DejaVuSans-75" x="775.439"/><use xlink:href="#DejaVuSans-62" x="838.818"/><use xlink:href="#DejaVuSans-2d" x="902.295"/><use xlink:href="#DejaVuSans-74" x="938.379"/><use xlink:href="#DejaVuSans-72" x="977.588"/><use xlink:href="#DejaVuSans-65" x="1016.451"/><use xlink:href="#DejaVuSans-6e" x="1077.975"/><use xlink:href="#DejaVuSans-64" x="1141.354"/><use xlink:href="#DejaVuSans-73" x="1204.83"/><use xlink:href="#DejaVuSans-20" x="1256.93"/><use xlink:href="#DejaVuSans-7c" x="1288.717"/><use xlink:href="#DejaVuSans-20" x="1322.408"/><use xlink:href="#DejaVuSans-4e" x="1354.195"/><use xlink:href="#DejaVuSans-69" x="1429"/><use xlink:href="#DejaVuSans-63" x="1456.783"/><use xlink:href="#DejaVuSans-6f" x="1511.764"/><use xlink:href="#DejaVuSans-20" x="1572.945"/><use xlink:href="#DejaVuSans-53" x="1604.732"/><use xlink:href="#DejaVuSans-63" x="1668.209"/><use xlink:href="#DejaVuSans-68" x="1723.189"/><use xlink:href="#DejaVuSans-6c" x="1786.568"/><use xlink:href="#DejaVuSans-f6" x="1814.352"/><use xlink:href="#DejaVuSans-6d" x="1875.533"/><use xlink:href="#DejaVuSans-65" x="1972.945"/><use xlink:href="#DejaVuSans-72" x="2034.469"/><use xlink:href="#DejaVuSans-20" x="2075.582"/><use xlink:href="#DejaVuSans-7c" x="2107.369"/><use xlink:href="#DejaVuSans-20" x="2141.061"/><use xlink:href="#DejaVuSans-43" x="2172.848"/><use xlink:href="#DejaVuSans-43" x="2242.672"/><use xlink:href="#DejaVuSans-20" x="2312.496"/><use xlink:href="#DejaVuSans-42" x="2344.283"/><use xlink:href="#DejaVuSans-59" x="2407.387"/></g><path id="line2d_30" d="m284.613 281.507 3.276-.137h3.17l3.277-.275 3.17-.137 3.277-.138 3.276-.275h2.96l3.276-.412 3.17-.55 3.277-1.098 3.17-.687 3.277-.962 3.276-.687 3.17-.55 3.277-1.648 3.17-1.099 3.277-1.786 3.276-.55 3.065-2.198 3.277-1.786 3.17-2.06 3.277-1.649 3.17-3.022 3.277-2.061 3.276-2.61 3.17-2.473 3.277-2.748 3.17-5.083 3.277-3.71 3.276-4.808 2.96-7.419 3.276-4.808 3.17-3.297L394 217.76l3.17-2.198 3.277-3.022 3.276-3.023 3.17-3.984 3.277-4.808 3.17-3.023 3.277-4.259 3.276-3.572 2.96-5.22 3.276-3.435 3.17-4.946 3.277-3.16 3.17-2.747 3.277-5.22 3.276-3.847 3.17-3.023 3.277-4.946 3.17-5.632 3.277-2.336" clip-path="url(#p75d74919b0)" style="fill:none;stroke:#2ca02c;stroke-width:1.5;stroke-linecap:square"/><path id="line2d_31" d="m98.073 281.507 3.276-.137 3.171-.275 3.276-.55 3.277-.412 2.959-.687 3.276-1.236 3.171-1.237 3.276-.824 3.171-.55 3.276-1.236 3.277-1.511 3.17-.687 3.277-.962 3.17-1.236 3.277-.824 3.276-1.237 2.96-.962 3.276-1.51 3.17-2.061 3.276-1.786 3.171-.687 3.276-1.1 3.277-2.335 3.17-1.099 3.277-1.786 3.17-.55 3.277-1.373 3.276-2.473 3.065-1.649 3.276-2.61 3.171-3.023 3.276-1.373 3.171-2.336 3.276-.962 3.277-2.06 3.17-1.237 3.277-.962 3.17-1.786 3.277-1.236 3.276-1.923 2.96-1.374 3.275-2.198 3.171-1.924 3.276-1.51 3.171-2.336 3.276-1.924 3.277-1.236 3.17-4.534 3.277-3.572 3.17-1.649 3.277-1.923 3.276-2.335 2.96-2.061 3.276-3.435 3.17-2.747 3.277-2.199 3.17-2.747 3.277-3.71 3.276-2.335 3.17-2.198 3.277-2.61 3.17-2.473 3.277-2.885 3.276-3.023 2.96-2.61 3.276-2.748 3.17-2.748 3.277-3.297 3.17-2.198 3.277-2.61 3.276-1.649 3.17-1.923 3.277-4.26 3.17-1.648 3.277-1.648 3.276-2.748 3.065-2.198 3.277-1.237 3.17-1.923 3.277-2.61 3.17-2.885 3.277-1.511 3.276-2.061 3.17-1.924 3.277-2.198 3.17-1.374 3.277-2.61 3.276-3.71 2.96-4.12 3.276-2.474 3.17-2.61 3.277-2.06 3.17-1.512 3.277-1.511 3.276-1.923 3.17-1.512 3.277-1.786 3.17-1.51 3.277-1.375 3.276-.687 2.96-1.373 3.276-1.786 3.17-2.473 3.277-1.786 3.17-1.512 3.277-1.51 3.276-1.1 3.17-.962 3.277-.686 3.17-1.512 3.277-.687" clip-path="url(#p75d74919b0)" style="fill:none;stroke:#ff7f0e;stroke-width:1.5;stroke-linecap:square"/><path id="line2d_32" d="m152.608 281.507 3.277-.412 3.17-1.1 3.276-2.335 3.171-1.51 3.276-1.65 3.277-1.51 3.17-2.061 3.277-1.924 3.17-1.511 3.277-1.649 3.276-1.51 3.065-1.65 3.276-2.198 3.171-1.648 3.276-1.1 3.171-2.884 3.276-2.61 3.277-2.199 3.17-2.06 3.277-2.61 3.17-3.435 3.277-2.336 3.276-2.335 2.96-2.61 3.275-3.71 3.171-3.16 3.276-2.61 3.171-3.297 3.276-3.572 3.277-1.374 3.17-3.16 3.277-3.022 3.17-3.16 3.277-3.984 3.276-4.397 2.96-2.61 3.276-1.786 3.17-1.099 3.277-1.511 3.17-1.786 3.277-2.61 3.276-3.16 3.17-2.885 3.277-2.61 3.17-2.199 3.277-3.434 3.276-2.61 2.96-1.787 3.276-3.297 3.17-3.847 3.277-2.472 3.17-1.924 3.277-2.885 3.276-2.473 3.17-3.297 3.277-3.847 3.17-2.198 3.277-3.984 3.276-4.946 3.065-3.16 3.277-5.083 3.17-3.572 3.277-5.22 3.17-4.671 3.277-3.435 3.276-3.16 3.17-2.885 3.277-3.984 3.17-3.16 3.277-5.358 3.276-4.533 2.96-3.298 3.276-2.885 3.17-2.885L394 74.882l3.17-3.16 3.277-3.984 3.276-3.022 3.17-3.16 3.277-2.61 3.17-2.61 3.277-4.122 3.276-3.297 2.96-2.61 3.276-3.985 3.17-3.434 3.277-3.984 3.17-3.298 3.277-3.709 3.276-2.335 3.17-2.473 3.277-3.435 3.17-1.923 3.277-2.336" clip-path="url(#p75d74919b0)" style="fill:none;stroke:#1f77b4;stroke-width:1.5;stroke-linecap:square"/></g></g><defs><clipPath id="p75d74919b0"><path d="M98.073 15.395h357.12v266.112H98.073z"/></clipPath></defs></svg>