<svg xmlns="http://www.w3.org/2000/svg" xmlns:xlink="http://www.w3.org/1999/xlink" width="827.509" height="432.688" viewBox="0 0 620.632 324.516"><defs><style>*{stroke-linejoin:round;stroke-linecap:butt}</style></defs><g id="figure_1"><path id="patch_1" d="M0 324.516h620.632V0H0v324.516z" style="fill:none"/><g id="axes_1"><path id="patch_2" d="M98.073 280.989h357.12V14.877H98.073v266.112z" style="fill:none"/><g id="matplotlib.axis_1"><g id="xtick_1"><g id="line2d_1"><defs><path id="me127a3c645" d="M0 0v3.5" style="stroke:#b0b0b0;stroke-width:.4"/></defs><use xlink:href="#me127a3c645" x="100.333" y="280.989" style="fill:#b0b0b0;stroke:#b0b0b0;stroke-width:.4"/></g><g id="text_1" style="fill:#b0b0b0" transform="matrix(.14 0 0 -.14 82.518 298.626)"><defs><path id="DejaVuSans-32" d="M1228 531h2203V0H469v531q359 372 979 998 621 627 780 809 303 340 423 576 121 236 121 464 0 372-261 606-261 235-680 235-297 0-627-103-329-103-704-313v638q381 153 712 231 332 78 607 78 725 0 1156-363 431-362 431-968 0-288-108-546-107-257-392-607-78-91-497-524-418-433-1181-1211z" transform="scale(.01563)"/><path id="DejaVuSans-30" d="M2034 4250q-487 0-733-480-245-479-245-1442 0-959 245-1439 246-480 733-480 491 0 736 480 246 480 246 1439 0 963-246 1442-245 480-736 480zm0 500q785 0 1199-621 414-620 414-1801 0-1178-414-1799Q2819-91 2034-91q-784 0-1198 620-414 621-414 1799 0 1181 414 1801 414 621 1198 621z" transform="scale(.01563)"/><path id="DejaVuSans-31" d="M794 531h1031v3560L703 3866v575l1116 225h631V531h1031V0H794v531z" transform="scale(.01563)"/></defs><use xlink:href="#DejaVuSans-32"/><use xlink:href="#DejaVuSans-30" x="63.623"/><use xlink:href="#DejaVuSans-31" x="127.246"/><use xlink:href="#DejaVuSans-30" x="190.869"/></g></g><g id="xtick_2"><use xlink:href="#me127a3c645" id="line2d_2" x="153.547" y="280.989" style="fill:#b0b0b0;stroke:#b0b0b0;stroke-width:.4"/><g id="text_2" style="fill:#b0b0b0" transform="matrix(.14 0 0 -.14 135.732 298.626)"><use xlink:href="#DejaVuSans-32"/><use xlink:href="#DejaVuSans-30" x="63.623"/><use xlink:href="#DejaVuSans-31" x="127.246"/><use xlink:href="#DejaVuSans-32" x="190.869"/></g></g><g id="xtick_3"><use xlink:href="#me127a3c645" id="line2d_3" x="206.835" y="280.989" style="fill:#b0b0b0;stroke:#b0b0b0;stroke-width:.4"/><g id="text_3" style="fill:#b0b0b0" transform="matrix(.14 0 0 -.14 189.02 298.626)"><defs><path id="DejaVuSans-34" d="M2419 4116 825 1625h1594v2491zm-166 550h794V1625h666v-525h-666V0h-628v1100H313v609l1940 2957z" transform="scale(.01563)"/></defs><use xlink:href="#DejaVuSans-32"/><use xlink:href="#DejaVuSans-30" x="63.623"/><use xlink:href="#DejaVuSans-31" x="127.246"/><use xlink:href="#DejaVuSans-34" x="190.869"/></g></g><g id="xtick_4"><use xlink:href="#me127a3c645" id="line2d_4" x="260.049" y="280.989" style="fill:#b0b0b0;stroke:#b0b0b0;stroke-width:.4"/><g id="text_4" style="fill:#b0b0b0" transform="matrix(.14 0 0 -.14 242.234 298.626)"><defs><path id="DejaVuSans-36" d="M2113 2584q-425 0-674-291-248-290-248-796 0-503 248-796 249-292 674-292t673 292q248 293 248 796 0 506-248 796-248 291-673 291zm1253 1979v-575q-238 112-480 171-242 60-480 60-625 0-955-422-329-422-376-1275 184 272 462 417 279 145 613 145 703 0 1111-427 408-426 408-1160 0-719-425-1154Q2819-91 2113-91q-810 0-1238 620-428 621-428 1799 0 1106 525 1764t1409 658q238 0 480-47t505-140z" transform="scale(.01563)"/></defs><use xlink:href="#DejaVuSans-32"/><use xlink:href="#DejaVuSans-30" x="63.623"/><use xlink:href="#DejaVuSans-31" x="127.246"/><use xlink:href="#DejaVuSans-36" x="190.869"/></g></g><g id="xtick_5"><use xlink:href="#me127a3c645" id="line2d_5" x="313.337" y="280.989" style="fill:#b0b0b0;stroke:#b0b0b0;stroke-width:.4"/><g id="text_5" style="fill:#b0b0b0" transform="matrix(.14 0 0 -.14 295.522 298.626)"><defs><path id="DejaVuSans-38" d="M2034 2216q-450 0-708-241-257-241-257-662 0-422 257-663 258-241 708-241t709 242q260 243 260 662 0 421-258 662-257 241-711 241zm-631 268q-406 100-633 378-226 279-226 679 0 559 398 884 399 325 1092 325 697 0 1094-325t397-884q0-400-227-679-226-278-629-378 456-106 710-416 255-309 255-755 0-679-414-1042Q2806-91 2034-91q-771 0-1186 362-414 363-414 1042 0 446 256 755 257 310 713 416zm-231 997q0-362 226-565 227-203 636-203 407 0 636 203 230 203 230 565 0 363-230 566-229 203-636 203-409 0-636-203-226-203-226-566z" transform="scale(.01563)"/></defs><use xlink:href="#DejaVuSans-32"/><use xlink:href="#DejaVuSans-30" x="63.623"/><use xlink:href="#DejaVuSans-31" x="127.246"/><use xlink:href="#DejaVuSans-38" x="190.869"/></g></g><g id="xtick_6"><use xlink:href="#me127a3c645" id="line2d_6" x="366.551" y="280.989" style="fill:#b0b0b0;stroke:#b0b0b0;stroke-width:.4"/><g id="text_6" style="fill:#b0b0b0" transform="matrix(.14 0 0 -.14 348.736 298.626)"><use xlink:href="#DejaVuSans-32"/><use xlink:href="#DejaVuSans-30" x="63.623"/><use xlink:href="#DejaVuSans-32" x="127.246"/><use xlink:href="#DejaVuSans-30" x="190.869"/></g></g><g id="xtick_7"><use xlink:href="#me127a3c645" id="line2d_7" x="419.838" y="280.989" style="fill:#b0b0b0;stroke:#b0b0b0;stroke-width:.4"/><g id="text_7" style="fill:#b0b0b0" transform="matrix(.14 0 0 -.14 402.023 298.626)"><use xlink:href="#DejaVuSans-32"/><use xlink:href="#DejaVuSans-30" x="63.623"/><use xlink:href="#DejaVuSans-32" x="127.246"/><use xlink:href="#DejaVuSans-32" x="190.869"/></g></g></g><g id="matplotlib.axis_2"><g id="ytick_1"><path id="line2d_8" d="M98.073 280.989h357.12" clip-path="url(#pa8f2bdf400)" style="fill:none;stroke:#b0b0b0;stroke-width:.3;stroke-linecap:square"/><g id="line2d_9"><defs><path id="m3bddf679e9" d="M0 0h-3.5" style="stroke:#b0b0b0;stroke-width:.3"/></defs><use xlink:href="#m3bddf679e9" x="98.073" y="280.989" style="fill:#b0b0b0;stroke:#b0b0b0;stroke-width:.3"/></g><use xlink:href="#DejaVuSans-30" id="text_8" style="fill:#b0b0b0" transform="matrix(.14 0 0 -.14 82.166 286.307)"/></g><g id="ytick_2"><path id="line2d_10" d="M98.073 251h357.12" clip-path="url(#pa8f2bdf400)" style="fill:none;stroke:#b0b0b0;stroke-width:.3;stroke-linecap:square"/><use xlink:href="#m3bddf679e9" id="line2d_11" x="98.073" y="251.001" style="fill:#b0b0b0;stroke:#b0b0b0;stroke-width:.3"/><g id="text_9" style="fill:#b0b0b0" transform="matrix(.14 0 0 -.14 55.443 256.32)"><defs><path id="DejaVuSans-35" d="M691 4666h2478v-532H1269V2991q137 47 274 70 138 23 276 23 781 0 1237-428 457-428 457-1159 0-753-469-1171Q2575-91 1722-91q-294 0-599 50Q819 9 494 109v635q281-153 581-228t634-75q541 0 856 284 316 284 316 772 0 487-316 771-315 285-856 285-253 0-505-56-251-56-513-175v2344z" transform="scale(.01563)"/></defs><use xlink:href="#DejaVuSans-35"/><use xlink:href="#DejaVuSans-30" x="63.623"/><use xlink:href="#DejaVuSans-30" x="127.246"/><use xlink:href="#DejaVuSans-30" x="190.869"/></g></g><g id="ytick_3"><path id="line2d_12" d="M98.073 221.013h357.12" clip-path="url(#pa8f2bdf400)" style="fill:none;stroke:#b0b0b0;stroke-width:.3;stroke-linecap:square"/><use xlink:href="#m3bddf679e9" id="line2d_13" x="98.073" y="221.013" style="fill:#b0b0b0;stroke:#b0b0b0;stroke-width:.3"/><g id="text_10" style="fill:#b0b0b0" transform="matrix(.14 0 0 -.14 46.536 226.332)"><use xlink:href="#DejaVuSans-31"/><use xlink:href="#DejaVuSans-30" x="63.623"/><use xlink:href="#DejaVuSans-30" x="127.246"/><use xlink:href="#DejaVuSans-30" x="190.869"/><use xlink:href="#DejaVuSans-30" x="254.492"/></g></g><g id="ytick_4"><path id="line2d_14" d="M98.073 191.025h357.12" clip-path="url(#pa8f2bdf400)" style="fill:none;stroke:#b0b0b0;stroke-width:.3;stroke-linecap:square"/><use xlink:href="#m3bddf679e9" id="line2d_15" x="98.073" y="191.025" style="fill:#b0b0b0;stroke:#b0b0b0;stroke-width:.3"/><g id="text_11" style="fill:#b0b0b0" transform="matrix(.14 0 0 -.14 46.536 196.344)"><use xlink:href="#DejaVuSans-31"/><use xlink:href="#DejaVuSans-35" x="63.623"/><use xlink:href="#DejaVuSans-30" x="127.246"/><use xlink:href="#DejaVuSans-30" x="190.869"/><use xlink:href="#DejaVuSans-30" x="254.492"/></g></g><g id="ytick_5"><path id="line2d_16" d="M98.073 161.037h357.12" clip-path="url(#pa8f2bdf400)" style="fill:none;stroke:#b0b0b0;stroke-width:.3;stroke-linecap:square"/><use xlink:href="#m3bddf679e9" id="line2d_17" x="98.073" y="161.037" style="fill:#b0b0b0;stroke:#b0b0b0;stroke-width:.3"/><g id="text_12" style="fill:#b0b0b0" transform="matrix(.14 0 0 -.14 46.536 166.356)"><use xlink:href="#DejaVuSans-32"/><use xlink:href="#DejaVuSans-30" x="63.623"/><use xlink:href="#DejaVuSans-30" x="127.246"/><use xlink:href="#DejaVuSans-30" x="190.869"/><use xlink:href="#DejaVuSans-30" x="254.492"/></g></g><g id="ytick_6"><path id="line2d_18" d="M98.073 131.05h357.12" clip-path="url(#pa8f2bdf400)" style="fill:none;stroke:#b0b0b0;stroke-width:.3;stroke-linecap:square"/><use xlink:href="#m3bddf679e9" id="line2d_19" x="98.073" y="131.049" style="fill:#b0b0b0;stroke:#b0b0b0;stroke-width:.3"/><g id="text_13" style="fill:#b0b0b0" transform="matrix(.14 0 0 -.14 46.536 136.368)"><use xlink:href="#DejaVuSans-32"/><use xlink:href="#DejaVuSans-35" x="63.623"/><use xlink:href="#DejaVuSans-30" x="127.246"/><use xlink:href="#DejaVuSans-30" x="190.869"/><use xlink:href="#DejaVuSans-30" x="254.492"/></g></g><g id="ytick_7"><path id="line2d_20" d="M98.073 101.062h357.12" clip-path="url(#pa8f2bdf400)" style="fill:none;stroke:#b0b0b0;stroke-width:.3;stroke-linecap:square"/><use xlink:href="#m3bddf679e9" id="line2d_21" x="98.073" y="101.062" style="fill:#b0b0b0;stroke:#b0b0b0;stroke-width:.3"/><g id="text_14" style="fill:#b0b0b0" transform="matrix(.14 0 0 -.14 46.536 106.38)"><defs><path id="DejaVuSans-33" d="M2597 2516q453-97 707-404 255-306 255-756 0-690-475-1069Q2609-91 1734-91q-293 0-604 58T488 141v609q262-153 574-231 313-78 654-78 593 0 904 234t311 681q0 413-289 645-289 233-804 233h-544v519h569q465 0 712 186t247 536q0 359-255 551-254 193-729 193-260 0-557-57-297-56-653-174v562q360 100 674 150t592 50q719 0 1137-327 419-326 419-882 0-388-222-655t-631-370z" transform="scale(.01563)"/></defs><use xlink:href="#DejaVuSans-33"/><use xlink:href="#DejaVuSans-30" x="63.623"/><use xlink:href="#DejaVuSans-30" x="127.246"/><use xlink:href="#DejaVuSans-30" x="190.869"/><use xlink:href="#DejaVuSans-30" x="254.492"/></g></g><g id="ytick_8"><path id="line2d_22" d="M98.073 71.074h357.12" clip-path="url(#pa8f2bdf400)" style="fill:none;stroke:#b0b0b0;stroke-width:.3;stroke-linecap:square"/><use xlink:href="#m3bddf679e9" id="line2d_23" x="98.073" y="71.074" style="fill:#b0b0b0;stroke:#b0b0b0;stroke-width:.3"/><g id="text_15" style="fill:#b0b0b0" transform="matrix(.14 0 0 -.14 46.536 76.393)"><use xlink:href="#DejaVuSans-33"/><use xlink:href="#DejaVuSans-35" x="63.623"/><use xlink:href="#DejaVuSans-30" x="127.246"/><use xlink:href="#DejaVuSans-30" x="190.869"/><use xlink:href="#DejaVuSans-30" x="254.492"/></g></g><g id="ytick_9"><path id="line2d_24" d="M98.073 41.086h357.12" clip-path="url(#pa8f2bdf400)" style="fill:none;stroke:#b0b0b0;stroke-width:.3;stroke-linecap:square"/><use xlink:href="#m3bddf679e9" id="line2d_25" x="98.073" y="41.086" style="fill:#b0b0b0;stroke:#b0b0b0;stroke-width:.3"/><g id="text_16" style="fill:#b0b0b0" transform="matrix(.14 0 0 -.14 46.536 46.405)"><use xlink:href="#DejaVuSans-34"/><use xlink:href="#DejaVuSans-30" x="63.623"/><use xlink:href="#DejaVuSans-30" x="127.246"/><use xlink:href="#DejaVuSans-30" x="190.869"/><use xlink:href="#DejaVuSans-30" x="254.492"/></g></g><g id="text_17" style="fill:#b0b0b0" transform="matrix(.14 0 0 -.14 7.2 11.563)"><defs><path id="DejaVuSans-47" d="M3809 666v1253H2778v519h1656V434q-365-259-806-392-440-133-940-133-1094 0-1712 639-617 640-617 1780 0 1144 617 1783 618 639 1712 639 456 0 867-113 411-112 758-331v-672q-350 297-744 447t-828 150q-857 0-1287-478-429-478-429-1425 0-944 429-1422 430-478 1287-478 334 0 596 58 263 58 472 180z" transform="scale(.01563)"/><path id="DejaVuSans-69" d="M603 3500h575V0H603v3500zm0 1363h575v-729H603v729z" transform="scale(.01563)"/><path id="DejaVuSans-74" d="M1172 4494v-994h1184v-447H1172V1153q0-428 117-550t477-122h590V0h-590q-666 0-919 248-253 249-253 905v1900H172v447h422v994h578z" transform="scale(.01563)"/><path id="DejaVuSans-48" d="M628 4666h631V2753h2294v1913h631V0h-631v2222H1259V0H628v4666z" transform="scale(.01563)"/><path id="DejaVuSans-75" d="M544 1381v2119h575V1403q0-497 193-746 194-248 582-248 465 0 735 297 271 297 271 810v1984h575V0h-575v538q-209-319-486-474-276-155-642-155-603 0-916 375-312 375-312 1097zm1447 2203z" transform="scale(.01563)"/><path id="DejaVuSans-62" d="M3116 1747q0 634-261 995t-717 361q-457 0-718-361t-261-995q0-634 261-995t718-361q456 0 717 361t261 995zM1159 2969q182 312 458 463 277 152 661 152 638 0 1036-506 399-506 399-1331T3314 415Q2916-91 2278-91q-384 0-661 152-276 152-458 464V0H581v4863h578V2969z" transform="scale(.01563)"/><path id="DejaVuSans-73" d="M2834 3397v-544q-243 125-506 187-262 63-544 63-428 0-642-131t-214-394q0-200 153-314t616-217l197-44q612-131 870-370t258-667q0-488-386-773Q2250-91 1575-91q-281 0-586 55T347 128v594q319-166 628-249 309-82 613-82 406 0 624 139 219 139 219 392 0 234-158 359-157 125-692 241l-200 47q-534 112-772 345-237 233-237 639 0 494 350 762 350 269 994 269 318 0 599-47 282-46 519-140z" transform="scale(.01563)"/><path id="DejaVuSans-61" d="M2194 1759q-697 0-966-159t-269-544q0-306 202-486 202-179 548-179 479 0 768 339t289 901v128h-572zm1147 238V0h-575v531q-197-318-491-470T1556-91q-537 0-855 302-317 302-317 808 0 590 395 890 396 300 1180 300h807v57q0 397-261 614t-733 217q-300 0-585-72-284-72-546-216v532q315 122 612 182 297 61 578 61 760 0 1135-394 375-393 375-1193z" transform="scale(.01563)"/><path id="DejaVuSans-72" d="M2631 2963q-97 56-211 82-114 27-251 27-488 0-749-317t-261-911V0H581v3500h578v-544q182 319 472 473 291 155 707 155 59 0 131-8 72-7 159-23l3-590z" transform="scale(.01563)"/></defs><use xlink:href="#DejaVuSans-47"/><use xlink:href="#DejaVuSans-69" x="77.49"/><use xlink:href="#DejaVuSans-74" x="105.273"/><use xlink:href="#DejaVuSans-48" x="144.482"/><use xlink:href="#DejaVuSans-75" x="219.678"/><use xlink:href="#DejaVuSans-62" x="283.057"/><use xlink:href="#DejaVuSans-20" x="346.533"/><use xlink:href="#DejaVuSans-73" x="378.32"/><use xlink:href="#DejaVuSans-74" x="430.42"/><use xlink:href="#DejaVuSans-61" x="469.629"/><use xlink:href="#DejaVuSans-72" x="530.908"/><use xlink:href="#DejaVuSans-73" x="572.021"/></g></g><path id="line2d_26" d="m213.395 280.989 2.187-.006h2.26l2.187-.006h2.26l2.26-.084 2.186-.048 2.26-.012 2.187-.006h2.26l2.26-.012 2.04-.018 2.26-.012 2.188-.006 2.26-.012h2.186l2.26-.006 2.26-.012 2.187-.006 2.26-.006 2.186-.012 2.26-.018 2.26-.018 2.114-.018h2.26l2.187-.024 2.26-.024 2.186-.018 2.26-.006 2.26-.018 2.187-.018 2.26-.012 2.186-.03h2.26l2.26-.006h2.041l2.26-.012 2.187-.006 2.26-.006 2.187-.012h2.26l2.26-.012 2.186-.012 2.26-.024 2.187-.012 2.26-.018 2.26-.018 2.04-.024 2.26-.024 2.187-.012 2.26-.018 2.187-.024 2.26-.048 2.26-.012 2.186-.012 2.26-.006 2.187-.018h2.26l2.26-.006 2.04-.006 2.26-.006 2.187-.006 2.26-.024 2.187-.012 2.26-.018 2.26-.018 2.186-.018 2.26-.018 2.187-.006 2.26-.012 2.26-.018h2.114l2.26-.018 2.186-.006 2.26-.018 2.187-.006 2.26-.006 2.26-.006 2.187-.018 2.26-.018 2.186-.006h4.52l2.041-.012 2.26-.006h2.187l2.26-.006 2.186-.006 2.26-.006 2.26-.024 2.187-.012 2.26-.006 2.187-.006h2.26l2.26-.018 2.04-.012 2.26-.006 2.187-.006 2.26-.006 2.187-.024 2.26-.006 2.26-.012 2.186-.012 2.26-.006H446.446l2.26-.006 2.04-.006 2.26-.012h2.187" clip-path="url(#pa8f2bdf400)" style="fill:none;stroke:#aec7e8;stroke-width:1.5;stroke-linecap:square"/><path id="line2d_27" d="m98.073 280.989 2.26-.534 82.154-.552 6.488-.126 35.574-.456 6.633-.246 11.008-.126 15.6-.282 2.26-.215 19.973-.42 31.054-.726 6.56-.228 88.788-2.255 33.314-.636 15.454-.306h0" clip-path="url(#pa8f2bdf400)" style="fill:none;stroke:#17becf;stroke-width:1.5;stroke-linecap:square"/><path id="line2d_28" d="m160.181 280.989 2.187-2.118 15.6-.06 11.007-.114 11.153-.251 8.967-.27 4.3-.132 6.634-.3 6.706-.132 11.008-.456 6.706-.192 4.447-.096 2.26-.36 4.446-.234 2.187-.072 2.26-1.157 4.374-.414 4.447-.192 4.446-.306 4.52-.246 6.633-.27 2.26-.257 24.348-1.068 4.52-.222 4.3-.246 2.187-.102 2.26-.222 13.34-.72 2.26-.263 11.007-.51 15.6-.552 11.08-.516 22.16-.72 4.447-.245 6.707-.312 6.634-.21 2.26-.348 4.3-.222 4.447-.486 22.16-.9 4.447-.221h0" clip-path="url(#pa8f2bdf400)" style="fill:none;stroke:#bcbd22;stroke-width:1.5;stroke-linecap:square"/><g id="text_18" style="fill:#1f77b4" transform="matrix(.14 0 0 -.14 465.907 18.74)"><defs><path id="DejaVuSans-54" d="M-19 4666h3947v-532H2272V0h-634v4134H-19v532z" transform="scale(.01563)"/><path id="DejaVuSans-65" d="M3597 1894v-281H953q38-594 358-905t892-311q331 0 642 81t618 244V178Q3153 47 2828-22t-659-69q-838 0-1327 487-489 488-489 1320 0 859 464 1363 464 505 1252 505 706 0 1117-455 411-454 411-1235zm-575 169q-6 471-264 752-258 282-683 282-481 0-770-272t-333-766l2050 4z" transform="scale(.01563)"/><path id="DejaVuSans-78" d="M3513 3500 2247 1797 3578 0h-678L1881 1375 863 0H184l1360 1831L300 3500h678l928-1247 928 1247h679z" transform="scale(.01563)"/><path id="DejaVuSans-6c" d="M603 4863h575V0H603v4863z" transform="scale(.01563)"/><path id="DejaVuSans-7a" d="M353 3500h2731v-525L922 459h2162V0H275v525l2163 2516H353v459z" transform="scale(.01563)"/><path id="DejaVuSans-2f" d="M1625 4666h531L531-594H0l1625 5260z" transform="scale(.01563)"/><path id="DejaVuSans-63" d="M3122 3366v-538q-244 135-489 202t-495 67q-560 0-870-355-309-354-309-995t309-996q310-354 870-354 250 0 495 67t489 202V134Q2881 22 2623-34q-257-57-548-57-791 0-1257 497-465 497-465 1341 0 856 470 1346 471 491 1290 491 265 0 518-55 253-54 491-163z" transform="scale(.01563)"/><path id="DejaVuSans-68" d="M3513 2113V0h-575v2094q0 497-194 743-194 247-581 247-466 0-735-297-269-296-269-809V0H581v4863h578V2956q207 316 486 472 280 156 646 156 603 0 912-373 310-373 310-1098z" transform="scale(.01563)"/></defs><use xlink:href="#DejaVuSans-54"/><use xlink:href="#DejaVuSans-65" x="44.084"/><use xlink:href="#DejaVuSans-78" x="103.857"/><use xlink:href="#DejaVuSans-74" x="163.037"/><use xlink:href="#DejaVuSans-75" x="202.246"/><use xlink:href="#DejaVuSans-61" x="265.625"/><use xlink:href="#DejaVuSans-6c" x="326.904"/><use xlink:href="#DejaVuSans-69" x="354.688"/><use xlink:href="#DejaVuSans-7a" x="382.471"/><use xlink:href="#DejaVuSans-65" x="434.961"/><use xlink:href="#DejaVuSans-2f" x="496.484"/><use xlink:href="#DejaVuSans-72" x="530.176"/><use xlink:href="#DejaVuSans-69" x="571.289"/><use xlink:href="#DejaVuSans-63" x="599.072"/><use xlink:href="#DejaVuSans-68" x="654.053"/></g><g id="text_19" style="fill:#ff7f0e" transform="matrix(.14 0 0 -.14 465.907 128.146)"><defs><path id="DejaVuSans-71" d="M947 1747q0-634 261-995t717-361q456 0 718 361 263 361 263 995t-263 995q-262 361-718 361t-717-361q-261-361-261-995zM2906 525q-181-312-458-464-276-152-664-152-634 0-1033 506-398 507-398 1332t398 1331q399 506 1033 506 388 0 664-152 277-151 458-463v531h575v-4831h-575V525z" transform="scale(.01563)"/><path id="DejaVuSans-64" d="M2906 2969v1894h575V0h-575v525q-181-312-458-464-276-152-664-152-634 0-1033 506-398 507-398 1332t398 1331q399 506 1033 506 388 0 664-152 277-151 458-463zM947 1747q0-634 261-995t717-361q456 0 718 361 263 361 263 995t-263 995q-262 361-718 361t-717-361q-261-361-261-995z" transform="scale(.01563)"/><path id="DejaVuSans-6d" d="M3328 2828q216 388 516 572t706 184q547 0 844-383 297-382 297-1088V0h-578v2094q0 503-179 746-178 244-543 244-447 0-707-297-259-296-259-809V0h-578v2094q0 506-178 748t-550 242q-441 0-701-298-259-298-259-808V0H581v3500h578v-544q197 322 472 475t653 153q382 0 649-194 267-193 395-562z" transform="scale(.01563)"/></defs><use xlink:href="#DejaVuSans-74"/><use xlink:href="#DejaVuSans-71" x="39.209"/><use xlink:href="#DejaVuSans-64" x="102.686"/><use xlink:href="#DejaVuSans-6d" x="166.162"/><use xlink:href="#DejaVuSans-2f" x="263.574"/><use xlink:href="#DejaVuSans-74" x="297.266"/><use xlink:href="#DejaVuSans-71" x="336.475"/><use xlink:href="#DejaVuSans-64" x="399.951"/><use xlink:href="#DejaVuSans-6d" x="463.428"/></g><g id="text_20" style="fill:#2ca02c" transform="matrix(.14 0 0 -.14 465.907 142.146)"><defs><path id="DejaVuSans-67" d="M2906 1791q0 625-258 968-257 344-723 344-462 0-720-344-258-343-258-968 0-622 258-966t720-344q466 0 723 344 258 344 258 966zm575-1357q0-893-397-1329-396-436-1215-436-303 0-572 45t-522 139v559q253-137 500-202 247-66 503-66 566 0 847 295t281 892v285q-178-310-456-463T1784 0Q1141 0 747 490 353 981 353 1791q0 812 394 1302 394 491 1037 491 388 0 666-153t456-462v531h575V434z" transform="scale(.01563)"/><path id="DejaVuSans-6f" d="M1959 3097q-462 0-731-361t-269-989q0-628 267-989 268-361 733-361 460 0 728 362 269 363 269 988 0 622-269 986-268 364-728 364zm0 487q750 0 1178-488 429-487 429-1349 0-859-429-1349Q2709-91 1959-91q-753 0-1180 489-426 490-426 1349 0 862 426 1349 427 488 1180 488z" transform="scale(.01563)"/><path id="DejaVuSans-70" d="M1159 525v-1856H581v4831h578v-531q182 312 458 463 277 152 661 152 638 0 1036-506 399-506 399-1331T3314 415Q2916-91 2278-91q-384 0-661 152-276 152-458 464zm1957 1222q0 634-261 995t-717 361q-457 0-718-361t-261-995q0-634 261-995t718-361q456 0 717 361t261 995z" transform="scale(.01563)"/><path id="DejaVuSans-79" d="M2059-325q-243-625-475-815-231-191-618-191H506v481h338q237 0 368 113 132 112 291 531l103 262L191 3500h609L1894 763l1094 2737h609L2059-325z" transform="scale(.01563)"/><path id="DejaVuSans-6e" d="M3513 2113V0h-575v2094q0 497-194 743-194 247-581 247-466 0-735-297-269-296-269-809V0H581v3500h578v-544q207 316 486 472 280 156 646 156 603 0 912-373 310-373 310-1098z" transform="scale(.01563)"/><path id="DejaVuSans-2d" d="M313 2009h1684v-512H313v512z" transform="scale(.01563)"/><path id="DejaVuSans-66" d="M2375 4863v-479h-550q-309 0-430-125-120-125-120-450v-309h947v-447h-947V0H697v3053H147v447h550v244q0 584 272 851 272 268 862 268h544z" transform="scale(.01563)"/></defs><use xlink:href="#DejaVuSans-67"/><use xlink:href="#DejaVuSans-6f" x="63.477"/><use xlink:href="#DejaVuSans-6f" x="124.658"/><use xlink:href="#DejaVuSans-67" x="185.84"/><use xlink:href="#DejaVuSans-6c" x="249.316"/><use xlink:href="#DejaVuSans-65" x="277.1"/><use xlink:href="#DejaVuSans-2f" x="338.623"/><use xlink:href="#DejaVuSans-70" x="372.314"/><use xlink:href="#DejaVuSans-79" x="435.791"/><use xlink:href="#DejaVuSans-74" x="494.971"/><use xlink:href="#DejaVuSans-68" x="534.18"/><use xlink:href="#DejaVuSans-6f" x="597.559"/><use xlink:href="#DejaVuSans-6e" x="658.74"/><use xlink:href="#DejaVuSans-2d" x="722.119"/><use xlink:href="#DejaVuSans-66" x="758.203"/><use xlink:href="#DejaVuSans-69" x="793.408"/><use xlink:href="#DejaVuSans-72" x="821.191"/><use xlink:href="#DejaVuSans-65" x="860.055"/></g><g id="text_21" style="fill:#d62728" transform="matrix(.14 0 0 -.14 465.907 166.658)"><use xlink:href="#DejaVuSans-54"/><use xlink:href="#DejaVuSans-65" x="44.084"/><use xlink:href="#DejaVuSans-78" x="103.857"/><use xlink:href="#DejaVuSans-74" x="163.037"/><use xlink:href="#DejaVuSans-75" x="202.246"/><use xlink:href="#DejaVuSans-61" x="265.625"/><use xlink:href="#DejaVuSans-6c" x="326.904"/><use xlink:href="#DejaVuSans-69" x="354.688"/><use xlink:href="#DejaVuSans-7a" x="382.471"/><use xlink:href="#DejaVuSans-65" x="434.961"/><use xlink:href="#DejaVuSans-2f" x="496.484"/><use xlink:href="#DejaVuSans-74" x="530.176"/><use xlink:href="#DejaVuSans-65" x="569.385"/><use xlink:href="#DejaVuSans-78" x="629.158"/><use xlink:href="#DejaVuSans-74" x="688.338"/><use xlink:href="#DejaVuSans-75" x="727.547"/><use xlink:href="#DejaVuSans-61" x="790.926"/><use xlink:href="#DejaVuSans-6c" x="852.205"/></g><g id="text_22" style="fill:#9467bd" transform="matrix(.14 0 0 -.14 465.907 200.802)"><defs><path id="DejaVuSans-6b" d="M581 4863h578V1991l1716 1509h734L1753 1863 3688 0h-750L1159 1709V0H581v4863z" transform="scale(.01563)"/></defs><use xlink:href="#DejaVuSans-70"/><use xlink:href="#DejaVuSans-61" x="63.477"/><use xlink:href="#DejaVuSans-6c" x="124.756"/><use xlink:href="#DejaVuSans-6c" x="152.539"/><use xlink:href="#DejaVuSans-65" x="180.322"/><use xlink:href="#DejaVuSans-74" x="241.846"/><use xlink:href="#DejaVuSans-73" x="281.055"/><use xlink:href="#DejaVuSans-2f" x="333.154"/><use xlink:href="#DejaVuSans-63" x="366.846"/><use xlink:href="#DejaVuSans-6c" x="421.826"/><use xlink:href="#DejaVuSans-69" x="449.609"/><use xlink:href="#DejaVuSans-63" x="477.393"/><use xlink:href="#DejaVuSans-6b" x="532.373"/></g><g id="text_23" style="fill:#8c564b" transform="matrix(.14 0 0 -.14 465.907 217.175)"><use xlink:href="#DejaVuSans-74"/><use xlink:href="#DejaVuSans-69" x="39.209"/><use xlink:href="#DejaVuSans-61" x="66.992"/><use xlink:href="#DejaVuSans-6e" x="128.271"/><use xlink:href="#DejaVuSans-67" x="191.65"/><use xlink:href="#DejaVuSans-6f" x="255.127"/><use xlink:href="#DejaVuSans-6c" x="316.309"/><use xlink:href="#DejaVuSans-6f" x="344.092"/><use xlink:href="#DejaVuSans-2f" x="405.273"/><use xlink:href="#DejaVuSans-74" x="438.965"/><use xlink:href="#DejaVuSans-79" x="478.174"/><use xlink:href="#DejaVuSans-70" x="537.354"/><use xlink:href="#DejaVuSans-65" x="600.83"/><use xlink:href="#DejaVuSans-72" x="662.354"/></g><g id="text_24" style="fill:#e377c2" transform="matrix(.14 0 0 -.14 465.907 237.675)"><use xlink:href="#DejaVuSans-64"/><use xlink:href="#DejaVuSans-6f" x="63.477"/><use xlink:href="#DejaVuSans-63" x="124.658"/><use xlink:href="#DejaVuSans-6f" x="179.639"/><use xlink:href="#DejaVuSans-70" x="240.82"/><use xlink:href="#DejaVuSans-74" x="304.297"/><use xlink:href="#DejaVuSans-2f" x="343.506"/><use xlink:href="#DejaVuSans-64" x="377.197"/><use xlink:href="#DejaVuSans-6f" x="440.674"/><use xlink:href="#DejaVuSans-63" x="501.855"/><use xlink:href="#DejaVuSans-6f" x="556.836"/><use xlink:href="#DejaVuSans-70" x="618.018"/><use xlink:href="#DejaVuSans-74" x="681.494"/></g><g id="text_25" style="fill:#7f7f7f" transform="matrix(.14 0 0 -.14 465.907 253.026)"><use xlink:href="#DejaVuSans-74"/><use xlink:href="#DejaVuSans-61" x="39.209"/><use xlink:href="#DejaVuSans-72" x="100.488"/><use xlink:href="#DejaVuSans-74" x="141.602"/><use xlink:href="#DejaVuSans-6c" x="180.811"/><use xlink:href="#DejaVuSans-65" x="208.594"/><use xlink:href="#DejaVuSans-79" x="270.117"/><use xlink:href="#DejaVuSans-2f" x="329.297"/><use xlink:href="#DejaVuSans-63" x="362.988"/><use xlink:href="#DejaVuSans-6f" x="417.969"/><use xlink:href="#DejaVuSans-6c" x="479.15"/><use xlink:href="#DejaVuSans-6f" x="506.934"/><use xlink:href="#DejaVuSans-72" x="568.115"/><use xlink:href="#DejaVuSans-61" x="609.229"/><use xlink:href="#DejaVuSans-6d" x="670.508"/><use xlink:href="#DejaVuSans-61" x="767.92"/></g><g id="text_26" style="fill:#bcbd22" transform="matrix(.14 0 0 -.14 465.907 267.026)"><use xlink:href="#DejaVuSans-74"/><use xlink:href="#DejaVuSans-6f" x="39.209"/><use xlink:href="#DejaVuSans-6d" x="100.391"/><use xlink:href="#DejaVuSans-65" x="197.803"/><use xlink:href="#DejaVuSans-72" x="259.326"/><use xlink:href="#DejaVuSans-66" x="300.439"/><use xlink:href="#DejaVuSans-69" x="335.645"/><use xlink:href="#DejaVuSans-6c" x="363.428"/><use xlink:href="#DejaVuSans-69" x="391.211"/><use xlink:href="#DejaVuSans-62" x="418.994"/><use xlink:href="#DejaVuSans-61" x="482.471"/><use xlink:href="#DejaVuSans-2f" x="543.75"/><use xlink:href="#DejaVuSans-70" x="577.441"/><use xlink:href="#DejaVuSans-6c" x="640.918"/><use xlink:href="#DejaVuSans-75" x="668.701"/><use xlink:href="#DejaVuSans-6d" x="732.08"/><use xlink:href="#DejaVuSans-62" x="829.492"/><use xlink:href="#DejaVuSans-75" x="892.969"/><use xlink:href="#DejaVuSans-6d" x="956.348"/></g><g id="text_27" style="fill:#17becf" transform="matrix(.14 0 0 -.14 465.907 281.026)"><use xlink:href="#DejaVuSans-64"/><use xlink:href="#DejaVuSans-61" x="63.477"/><use xlink:href="#DejaVuSans-74" x="124.756"/><use xlink:href="#DejaVuSans-61" x="163.965"/><use xlink:href="#DejaVuSans-66" x="225.244"/><use xlink:href="#DejaVuSans-6f" x="260.449"/><use xlink:href="#DejaVuSans-6c" x="321.631"/><use xlink:href="#DejaVuSans-6b" x="349.414"/><use xlink:href="#DejaVuSans-6c" x="407.324"/><use xlink:href="#DejaVuSans-61" x="435.107"/><use xlink:href="#DejaVuSans-62" x="496.387"/><use xlink:href="#DejaVuSans-73" x="559.863"/><use xlink:href="#DejaVuSans-2f" x="611.963"/><use xlink:href="#DejaVuSans-63" x="645.654"/><use xlink:href="#DejaVuSans-65" x="700.635"/><use xlink:href="#DejaVuSans-6d" x="762.158"/><use xlink:href="#DejaVuSans-65" x="859.57"/><use xlink:href="#DejaVuSans-6e" x="921.094"/><use xlink:href="#DejaVuSans-74" x="984.473"/></g><g id="text_28" style="fill:#aec7e8" transform="matrix(.14 0 0 -.14 465.907 295.026)"><use xlink:href="#DejaVuSans-6f"/><use xlink:href="#DejaVuSans-70" x="61.182"/><use xlink:href="#DejaVuSans-65" x="124.658"/><use xlink:href="#DejaVuSans-6e" x="186.182"/><use xlink:href="#DejaVuSans-73" x="249.561"/><use xlink:href="#DejaVuSans-74" x="301.66"/><use xlink:href="#DejaVuSans-61" x="340.869"/><use xlink:href="#DejaVuSans-63" x="402.148"/><use xlink:href="#DejaVuSans-6b" x="457.129"/><use xlink:href="#DejaVuSans-2f" x="515.039"/><use xlink:href="#DejaVuSans-63" x="548.73"/><use xlink:href="#DejaVuSans-6c" x="603.711"/><use xlink:href="#DejaVuSans-69" x="631.494"/><use xlink:href="#DejaVuSans-66" x="659.277"/><use xlink:href="#DejaVuSans-66" x="694.482"/></g><g id="text_29" style="fill:#b0b0b0" transform="matrix(.09716 0 0 -.09716 98.073 315.025)"><defs><path id="DejaVuSans-40" d="M2381 1678q0-447 222-702 222-254 610-254 384 0 604 256 221 256 221 700 0 438-225 695-225 258-607 258-378 0-602-256-223-256-223-697zm1703-934q-187-241-429-355t-564-114q-538 0-874 389t-336 1014q0 625 337 1015 338 391 873 391 322 0 565-117 244-117 428-354v409h447V722q457 69 714 417 258 349 258 902 0 334-99 628-98 294-298 544-325 409-792 626t-1017 217q-384 0-738-102-353-101-653-301-490-319-767-836-276-517-276-1120 0-497 179-932 180-434 521-765 328-325 759-495 431-171 922-171 403 0 792 136t714 389l281-347q-390-303-851-464t-936-161q-578 0-1091 205-512 205-912 595Q841 78 631 592q-209 514-209 1105 0 569 212 1084 213 516 607 907 403 396 931 607t1119 211q662 0 1229-272 568-271 952-771 234-307 357-666 124-359 124-744 0-822-497-1297T4084 263v481z" transform="scale(.01563)"/><path id="DejaVuSans-7c" d="M1344 4891v-6400H813v6400h531z" transform="scale(.01563)"/><path id="DejaVuSans-4e" d="M628 4666h850L3547 763v3903h612V0h-850L1241 3903V0H628v4666z" transform="scale(.01563)"/><path id="DejaVuSans-53" d="M3425 4513v-616q-359 172-678 256-319 85-616 85-515 0-795-200t-280-569q0-310 186-468 186-157 705-254l381-78q706-135 1042-474t336-907q0-679-455-1029Q2797-91 1919-91q-331 0-705 75-373 75-773 222v650q384-215 753-325 369-109 725-109 540 0 834 212 294 213 294 607 0 343-211 537t-692 291l-385 75q-706 140-1022 440-315 300-315 835 0 619 436 975t1201 356q329 0 669-60 341-59 697-177z" transform="scale(.01563)"/><path id="DejaVuSans-f6" d="M1959 3097q-462 0-731-361t-269-989q0-628 267-989 268-361 733-361 460 0 728 362 269 363 269 988 0 622-269 986-268 364-728 364zm0 487q750 0 1178-488 429-487 429-1349 0-859-429-1349Q2709-91 1959-91q-753 0-1180 489-426 490-426 1349 0 862 426 1349 427 488 1180 488zm295 1266h634v-631h-634v631zm-1222 0h634v-631h-634v631z" transform="scale(.01563)"/><path id="DejaVuSans-43" d="M4122 4306v-665q-319 297-680 443-361 147-767 147-800 0-1225-489t-425-1414q0-922 425-1411t1225-489q406 0 767 147t680 444V359q-331-225-702-338-370-112-782-112-1060 0-1670 648-609 649-609 1771 0 1125 609 1773 610 649 1670 649 418 0 788-111 371-111 696-333z" transform="scale(.01563)"/><path id="DejaVuSans-42" d="M1259 2228V519h1013q509 0 754 211 246 211 246 645 0 438-246 645-245 208-754 208H1259zm0 1919V2741h935q462 0 688 173 227 174 227 530 0 353-227 528-226 175-688 175h-935zm-631 519h1613q722 0 1112-300 391-300 391-853 0-429-200-682t-588-315q466-100 724-418 258-317 258-792 0-625-425-966Q3088 0 2303 0H628v4666z" transform="scale(.01563)"/><path id="DejaVuSans-59" d="M-13 4666h679l1293-1919 1285 1919h678L2272 2222V0h-634v2222L-13 4666z" transform="scale(.01563)"/></defs><use xlink:href="#DejaVuSans-40"/><use xlink:href="#DejaVuSans-6e" x="100"/><use xlink:href="#DejaVuSans-73" x="163.379"/><use xlink:href="#DejaVuSans-63" x="215.479"/><use xlink:href="#DejaVuSans-68" x="270.459"/><use xlink:href="#DejaVuSans-6c" x="333.838"/><use xlink:href="#DejaVuSans-6f" x="361.621"/><use xlink:href="#DejaVuSans-65" x="422.803"/><use xlink:href="#DejaVuSans-20" x="484.326"/><use xlink:href="#DejaVuSans-2f" x="516.113"/><use xlink:href="#DejaVuSans-20" x="549.805"/><use xlink:href="#DejaVuSans-67" x="581.592"/><use xlink:href="#DejaVuSans-69" x="645.068"/><use xlink:href="#DejaVuSans-74" x="672.852"/><use xlink:href="#DejaVuSans-68" x="712.061"/><use xlink:href="#DejaVuSans-75" x="775.439"/><use xlink:href="#DejaVuSans-62" x="838.818"/><use xlink:href="#DejaVuSans-2d" x="902.295"/><use xlink:href="#DejaVuSans-74" x="938.379"/><use xlink:href="#DejaVuSans-72" x="977.588"/><use xlink:href="#DejaVuSans-65" x="1016.451"/><use xlink:href="#DejaVuSans-6e" x="1077.975"/><use xlink:href="#DejaVuSans-64" x="1141.354"/><use xlink:href="#DejaVuSans-73" x="1204.83"/><use xlink:href="#DejaVuSans-20" x="1256.93"/><use xlink:href="#DejaVuSans-7c" x="1288.717"/><use xlink:href="#DejaVuSans-20" x="1322.408"/><use xlink:href="#DejaVuSans-4e" x="1354.195"/><use xlink:href="#DejaVuSans-69" x="1429"/><use xlink:href="#DejaVuSans-63" x="1456.783"/><use xlink:href="#DejaVuSans-6f" x="1511.764"/><use xlink:href="#DejaVuSans-20" x="1572.945"/><use xlink:href="#DejaVuSans-53" x="1604.732"/><use xlink:href="#DejaVuSans-63" x="1668.209"/><use xlink:href="#DejaVuSans-68" x="1723.189"/><use xlink:href="#DejaVuSans-6c" x="1786.568"/><use xlink:href="#DejaVuSans-f6" x="1814.352"/><use xlink:href="#DejaVuSans-6d" x="1875.533"/><use xlink:href="#DejaVuSans-65" x="1972.945"/><use xlink:href="#DejaVuSans-72" x="2034.469"/><use xlink:href="#DejaVuSans-20" x="2075.582"/><use xlink:href="#DejaVuSans-7c" x="2107.369"/><use xlink:href="#DejaVuSans-20" x="2141.061"/><use xlink:href="#DejaVuSans-43" x="2172.848"/><use xlink:href="#DejaVuSans-43" x="2242.672"/><use xlink:href="#DejaVuSans-20" x="2312.496"/><use xlink:href="#DejaVuSans-42" x="2344.283"/><use xlink:href="#DejaVuSans-59" x="2407.387"/></g><path id="line2d_29" d="m213.395 280.989 2.187-.018 2.26-.066 2.187-.036 2.26-.102 2.26-.084 2.186-.042 2.26-.072 2.187-.048 2.26-.06 2.26-.288 2.04-.126 2.26-.114 2.188-.084 2.26-.102 2.186-.102 2.26-.084 2.26-.096 2.187-.138 2.26-.096 2.186-.078 2.26-.078 2.26-.114 2.114-.276 2.26-.096 2.187-.095 2.26-.09 2.186-.084 2.26-.156 2.26-.126 2.187-.156 2.26-.144 2.186-.252 2.26-.084 2.26-.126 2.041-.144 2.26-.24 2.187-.132 2.26-.186 2.187-.264 2.26-.126 2.26-.155 2.186-.156 2.26-.168 2.187-.15 2.26-.168 2.26-.18 2.04-.228 2.26-.204 2.187-.162 2.26-.246 2.187-.144 2.26-.216 2.26-.228 2.186-.203 2.26-.258 2.187-.186 2.26-.24 2.26-.192 2.04-.216 2.26-.21 2.187-.234 2.26-.216 2.187-.174 2.26-.198 2.26-.287 2.186-.21 2.26-.156 2.187-.258 2.26-.21 2.26-.24 2.114-.444 2.26-.258 2.186-.192 2.26-.27 2.187-.293 2.26-.198 2.26-.192 2.187-.204 2.26-.198 2.186-.246 2.26-.222 2.26-.246 2.041-.216 2.26-.21 2.187-.192 2.26-.251 2.186-.186 2.26-.15 2.26-.222 2.187-.168 2.26-.15 2.187-.138 2.26-.192 2.26-.204 2.04-.21 2.26-.18 2.187-.252 2.26-.258 2.187-.227 2.26-.204 2.26-.192 2.186-.138 2.26-.234 2.187-.168 2.26-.156 2.26-.138 2.04-.204 2.26-.228 2.187-.264" clip-path="url(#pa8f2bdf400)" style="fill:none;stroke:#7f7f7f;stroke-width:1.5;stroke-linecap:square"/><path id="line2d_30" d="m160.181 280.989 2.187-4.84 20.12-.162 2.04-.204 2.26-.36 2.187-.69 6.707-1.241 2.26-1.35 2.186-.594 2.26-.413 2.187-.954 2.26-.6 6.56-1.02 2.187-.617 2.26-.336 2.187-1.877 4.52-.72 6.633-.948 6.56-1.223 4.448-.762 2.26-.522 4.446-.761 4.447-.78 2.26-.522 11.08-1.889 2.187-.3 13.413-2.849 17.64-3.052 2.26-.48 4.447-.702 15.454-2.77 2.26-.559 6.706-1.2 2.187-.263 8.967-1.59 15.454-2.207 6.633-.911 2.26-.156 8.82-1.02 31.054-2.705 11.154-.75 6.56-.491 20.047-1.152 6.56-.341 4.447-.294h0" clip-path="url(#pa8f2bdf400)" style="fill:none;stroke:#e377c2;stroke-width:1.5;stroke-linecap:square"/><path id="line2d_31" d="m364.291 280.989 2.26-2.088 2.26-1.631 2.114-.684 2.26-1.547 2.186-1.44 2.26-1.067 2.187-1.613 2.26-2.31 2.26-1.403 2.187-1.175 2.26-1.374 2.186-1.295 2.26-3.869 2.26-4.552 2.041-1.613 2.26-1.386 2.187-1.475 2.26-1.278 2.186-1.463 2.26-1.104 2.26-1.853 2.187-1.47 2.26-1.145 2.187-1.037 2.26-1.392 2.26-1.517 2.04-1.128 2.26-1.265 2.187-.99 2.26-1.2 2.187-1.853 2.26-2.105 2.26-1.415 2.186-1.296 2.26-1.241 2.187-4.678 2.26-1.661 2.26-1.392 2.04-1.505 2.26-1.674 2.187-1.493" clip-path="url(#pa8f2bdf400)" style="fill:none;stroke:#8c564b;stroke-width:1.5;stroke-linecap:square"/><path id="line2d_32" d="m213.395 280.989 2.187-5.896 2.26-1.727 2.187-.606 2.26-.378 2.26-.432 2.186-.264 2.26-.45 2.187-.365 2.26-.33 2.26-.246 2.04-.366 2.26-.438 2.188-.432 2.26-.42 2.186-.395 2.26-.558 2.26-.402 2.187-.492 2.26-.533 2.186-.498 2.26-.84 2.26-.504 2.114-.606 2.26-.54 2.187-.551 2.26-.54 2.186-.498 2.26-.425 2.26-.36 2.187-.522 2.26-.486 2.186-.432 2.26-.546 2.26-.593 2.041-.594 2.26-.69 2.187-.546 2.26-.617 2.187-.702 2.26-.594 2.26-.42 2.186-.641 2.26-.546 2.187-.648 2.26-.774 2.26-.767 2.04-.654 2.26-.756 2.187-.707 2.26-.93 2.187-.786 2.26-.743 2.26-.882 2.186-1.08 2.26-1.02 2.187-.875 2.26-.78 2.26-.99 2.04-.983 2.26-.893 2.187-.87 2.26-.84 2.187-.9 2.26-.923 2.26-1.067 2.186-.858 2.26-.798 2.187-.863 2.26-.69 2.26-.774 2.114-.804 2.26-1.11 2.186-.869 2.26-.887 2.187-.9 2.26-.87 2.26-.857 2.187-.816 2.26-.72 2.186-.653 2.26-.864 2.26-.954 2.041-.815 2.26-.912 2.187-.918 2.26-1.043 2.186-.948 2.26-.648 2.26-.845 2.187-.972 2.26-.75 2.187-.767 2.26-.984 2.26-.99 2.04-.971 2.26-.96 2.187-.84 2.26-.779 2.187-.846 2.26-.935 2.26-.954 2.186-.803 2.26-.768 2.187-.672 2.26-.738 2.26-.695 2.04-.69 2.26-.744 2.187-.887" clip-path="url(#pa8f2bdf400)" style="fill:none;stroke:#9467bd;stroke-width:1.5;stroke-linecap:square"/><path id="line2d_33" d="m401.979 280.989 2.26-.504 2.186-6.532 2.26-1.283 2.26-16.086 2.187-5.253 2.26-5.572 2.187-2.381 2.26-2.993 2.26-4.474 2.04-6.208 2.26-2.837 2.187-8.636 2.26-7.335 2.187-2.327 2.26-2.297 2.26-6.657 2.186-2.597 2.26-11.468 2.187-5.008 2.26-4.888 2.26-2.933 2.04-2.848 2.26-4.583 2.187-2.495" clip-path="url(#pa8f2bdf400)" style="fill:none;stroke:#d62728;stroke-width:1.5;stroke-linecap:square"/><path id="line2d_34" d="m288.99 280.989 2.04-.042 2.26-30.894 2.187-2.627 2.26-1.595 2.187-.81 2.26-.81 2.26-.641 2.186-.648 2.26-.714 2.187-1.577 2.26-2.603 2.26-3.515 2.04-2.14 2.26-1.368 2.187-1.512 2.26-1.241 2.187-1.44 2.26-1.523 2.26-12.139 2.186-1.793 2.26-2.165 2.187-1.596 2.26-1.295 2.26-1.2 2.04-1.157 2.26-1.757 2.187-1.35 2.26-1.175 2.187-1.206 2.26-1.493 2.26-2.615 2.186-1.914 2.26-1.373 2.187-1.283 2.26-1.614 2.26-1.211 2.114-1.014 2.26-1.187 2.186-1.332 2.26-1.841 2.187-1.398 2.26-.977 2.26-1.362 2.187-.887 2.26-1.218 2.186-2.027 2.26-1.343 2.26-1.014 2.041-.912 2.26-1.085 2.187-.942 2.26-.96 2.186-3.46 2.26-.978 2.26-.84 2.187-1.283 2.26-1.127 2.187-.75 2.26-5.98 2.26-2.98 2.04-.81 2.26-1.038 2.187-1.421 2.26-1.182 2.187-1.11 2.26-.983 2.26-1.17 2.186-1.187 2.26-1.193 2.187-.828 2.26-1.331 2.26-1.14 2.04-1.77 2.26-1.643 2.187-1.187" clip-path="url(#pa8f2bdf400)" style="fill:none;stroke:#2ca02c;stroke-width:1.5;stroke-linecap:square"/><path id="line2d_35" d="m244.45 280.989 2.186-.078 2.26-.042 2.26-.114 2.187-.054 2.26-.102 2.186-.12 2.26-9.045 2.26-2.956 2.114-.672 2.26-.942 2.187-.408 2.26-.54 2.186-.587 2.26-.63 2.26-.762 2.187-.455 2.26-.462 2.186-.42 2.26-.408 2.26-.564 2.041-.54 2.26-.773 2.187-.612 2.26-.528 2.187-.57 2.26-.671 2.26-.966 2.186-.797 2.26-.864 2.187-.816 2.26-.893 2.26-1.116 2.04-.96 2.26-1.367 2.187-1.463 2.26-3.24 2.187-2.008 2.26-2.111 2.26-1.524 2.186-1.68 2.26-1.822 2.187-1.65 2.26-2.207 2.26-1.859 2.04-1.847 2.26-2.651 2.187-2.195 2.26-2.165 2.187-1.848 2.26-2.26 2.26-2.34 2.186-2.32 2.26-2.088 2.187-2.141 2.26-1.907 2.26-2.088 2.114-2.267 2.26-2.32 2.186-2.382 2.26-2.753 2.187-1.817 2.26-2.111 2.26-1.865 2.187-1.985 2.26-1.854 2.186-1.847 2.26-1.931 2.26-2.525 2.041-2.01 2.26-2.08 2.187-1.764 2.26-1.811 2.186-1.53 2.26-1.81 2.26-2.124 2.187-1.865 2.26-1.871 2.187-1.884 2.26-3.718 2.26-1.757 2.04-1.938 2.26-1.877 2.187-1.823 2.26-1.62 2.187-1.439 2.26-1.661 2.26-1.751 2.186-1.332 2.26-1.433 2.187-1.434 2.26-1.529 2.26-1.373 2.04-1.572 2.26-1.787 2.187-1.787" clip-path="url(#pa8f2bdf400)" style="fill:none;stroke:#ff7f0e;stroke-width:1.5;stroke-linecap:square"/><path id="line2d_36" d="m364.291 280.989 2.26-.024 2.26-2.543 2.114-1.182 2.26-.528 2.186-1.061 2.26-31.877 2.187-7.024 2.26-14.706 2.26-10.795 2.187-3.07 2.26-4.829 2.186-11.533 2.26-19.66 2.26-12.217 2.041-17.057 2.26-4.595 2.187-7.197 2.26-4.726 2.186-6.825 2.26-2.5 2.26-5.015 2.187-6.717 2.26-6.765 2.187-4.15 2.26-4.697 2.26-16.157 2.04-6.28 2.26-4.804 2.187-6.171 2.26-5.002 2.187-2.999 2.26-4.126 2.26-3.587 2.186-3.556 2.26-4.157 2.187-2.663 2.26-3.4 2.26-3.233 2.04-2.83 2.26-3.395 2.187-2.46" clip-path="url(#pa8f2bdf400)" style="fill:none;stroke:#1f77b4;stroke-width:1.5;stroke-linecap:square"/></g></g><defs><clipPath id="pa8f2bdf400"><path d="M98.073 14.877h357.12v266.112H98.073z"/></clipPath></defs></svg>