<svg xmlns="http://www.w3.org/2000/svg" xmlns:xlink="http://www.w3.org/1999/xlink" width="824.61" height="452.15" viewBox="0 0 618.457 339.113"><defs><style>*{stroke-linejoin:round;stroke-linecap:butt}</style></defs><g id="figure_1"><path id="patch_1" d="M0 339.113h618.457V0H0v339.113z" style="fill:none"/><g id="axes_1"><path id="patch_2" d="M98.073 295.585h357.12V29.473H98.073v266.112z" style="fill:none"/><g id="matplotlib.axis_1"><g id="xtick_1"><g id="line2d_1"><defs><path id="m433fd4d745" d="M0 0v3.5" style="stroke:#b0b0b0;stroke-width:.4"/></defs><use xlink:href="#m433fd4d745" x="119.96" y="295.585" style="fill:#b0b0b0;stroke:#b0b0b0;stroke-width:.4"/></g><g id="text_1" style="fill:#b0b0b0" transform="matrix(.14 0 0 -.14 102.145 313.223)"><defs><path id="DejaVuSans-32" d="M1228 531h2203V0H469v531q359 372 979 998 621 627 780 809 303 340 423 576 121 236 121 464 0 372-261 606-261 235-680 235-297 0-627-103-329-103-704-313v638q381 153 712 231 332 78 607 78 725 0 1156-363 431-362 431-968 0-288-108-546-107-257-392-607-78-91-497-524-418-433-1181-1211z" transform="scale(.01563)"/><path id="DejaVuSans-30" d="M2034 4250q-487 0-733-480-245-479-245-1442 0-959 245-1439 246-480 733-480 491 0 736 480 246 480 246 1439 0 963-246 1442-245 480-736 480zm0 500q785 0 1199-621 414-620 414-1801 0-1178-414-1799Q2819-91 2034-91q-784 0-1198 620-414 621-414 1799 0 1181 414 1801 414 621 1198 621z" transform="scale(.01563)"/><path id="DejaVuSans-31" d="M794 531h1031v3560L703 3866v575l1116 225h631V531h1031V0H794v531z" transform="scale(.01563)"/></defs><use xlink:href="#DejaVuSans-32"/><use xlink:href="#DejaVuSans-30" x="63.623"/><use xlink:href="#DejaVuSans-31" x="127.246"/><use xlink:href="#DejaVuSans-30" x="190.869"/></g></g><g id="xtick_2"><use xlink:href="#m433fd4d745" id="line2d_2" x="172.172" y="295.585" style="fill:#b0b0b0;stroke:#b0b0b0;stroke-width:.4"/><g id="text_2" style="fill:#b0b0b0" transform="matrix(.14 0 0 -.14 154.357 313.223)"><use xlink:href="#DejaVuSans-32"/><use xlink:href="#DejaVuSans-30" x="63.623"/><use xlink:href="#DejaVuSans-31" x="127.246"/><use xlink:href="#DejaVuSans-32" x="190.869"/></g></g><g id="xtick_3"><use xlink:href="#m433fd4d745" id="line2d_3" x="224.456" y="295.585" style="fill:#b0b0b0;stroke:#b0b0b0;stroke-width:.4"/><g id="text_3" style="fill:#b0b0b0" transform="matrix(.14 0 0 -.14 206.641 313.223)"><defs><path id="DejaVuSans-34" d="M2419 4116 825 1625h1594v2491zm-166 550h794V1625h666v-525h-666V0h-628v1100H313v609l1940 2957z" transform="scale(.01563)"/></defs><use xlink:href="#DejaVuSans-32"/><use xlink:href="#DejaVuSans-30" x="63.623"/><use xlink:href="#DejaVuSans-31" x="127.246"/><use xlink:href="#DejaVuSans-34" x="190.869"/></g></g><g id="xtick_4"><use xlink:href="#m433fd4d745" id="line2d_4" x="276.669" y="295.585" style="fill:#b0b0b0;stroke:#b0b0b0;stroke-width:.4"/><g id="text_4" style="fill:#b0b0b0" transform="matrix(.14 0 0 -.14 258.854 313.223)"><defs><path id="DejaVuSans-36" d="M2113 2584q-425 0-674-291-248-290-248-796 0-503 248-796 249-292 674-292t673 292q248 293 248 796 0 506-248 796-248 291-673 291zm1253 1979v-575q-238 112-480 171-242 60-480 60-625 0-955-422-329-422-376-1275 184 272 462 417 279 145 613 145 703 0 1111-427 408-426 408-1160 0-719-425-1154Q2819-91 2113-91q-810 0-1238 620-428 621-428 1799 0 1106 525 1764t1409 658q238 0 480-47t505-140z" transform="scale(.01563)"/></defs><use xlink:href="#DejaVuSans-32"/><use xlink:href="#DejaVuSans-30" x="63.623"/><use xlink:href="#DejaVuSans-31" x="127.246"/><use xlink:href="#DejaVuSans-36" x="190.869"/></g></g><g id="xtick_5"><use xlink:href="#m433fd4d745" id="line2d_5" x="328.953" y="295.585" style="fill:#b0b0b0;stroke:#b0b0b0;stroke-width:.4"/><g id="text_5" style="fill:#b0b0b0" transform="matrix(.14 0 0 -.14 311.138 313.223)"><defs><path id="DejaVuSans-38" d="M2034 2216q-450 0-708-241-257-241-257-662 0-422 257-663 258-241 708-241t709 242q260 243 260 662 0 421-258 662-257 241-711 241zm-631 268q-406 100-633 378-226 279-226 679 0 559 398 884 399 325 1092 325 697 0 1094-325t397-884q0-400-227-679-226-278-629-378 456-106 710-416 255-309 255-755 0-679-414-1042Q2806-91 2034-91q-771 0-1186 362-414 363-414 1042 0 446 256 755 257 310 713 416zm-231 997q0-362 226-565 227-203 636-203 407 0 636 203 230 203 230 565 0 363-230 566-229 203-636 203-409 0-636-203-226-203-226-566z" transform="scale(.01563)"/></defs><use xlink:href="#DejaVuSans-32"/><use xlink:href="#DejaVuSans-30" x="63.623"/><use xlink:href="#DejaVuSans-31" x="127.246"/><use xlink:href="#DejaVuSans-38" x="190.869"/></g></g><g id="xtick_6"><use xlink:href="#m433fd4d745" id="line2d_6" x="381.166" y="295.585" style="fill:#b0b0b0;stroke:#b0b0b0;stroke-width:.4"/><g id="text_6" style="fill:#b0b0b0" transform="matrix(.14 0 0 -.14 363.35 313.223)"><use xlink:href="#DejaVuSans-32"/><use xlink:href="#DejaVuSans-30" x="63.623"/><use xlink:href="#DejaVuSans-32" x="127.246"/><use xlink:href="#DejaVuSans-30" x="190.869"/></g></g><g id="xtick_7"><use xlink:href="#m433fd4d745" id="line2d_7" x="433.45" y="295.585" style="fill:#b0b0b0;stroke:#b0b0b0;stroke-width:.4"/><g id="text_7" style="fill:#b0b0b0" transform="matrix(.14 0 0 -.14 415.635 313.223)"><use xlink:href="#DejaVuSans-32"/><use xlink:href="#DejaVuSans-30" x="63.623"/><use xlink:href="#DejaVuSans-32" x="127.246"/><use xlink:href="#DejaVuSans-32" x="190.869"/></g></g></g><g id="matplotlib.axis_2"><g id="ytick_1"><path id="line2d_8" d="M98.073 295.585h357.12" clip-path="url(#p63d606729a)" style="fill:none;stroke:#b0b0b0;stroke-width:.3;stroke-linecap:square"/><g id="line2d_9"><defs><path id="m479b4ae2ee" d="M0 0h-3.5" style="stroke:#b0b0b0;stroke-width:.3"/></defs><use xlink:href="#m479b4ae2ee" x="98.073" y="295.585" style="fill:#b0b0b0;stroke:#b0b0b0;stroke-width:.3"/></g><use xlink:href="#DejaVuSans-30" id="text_8" style="fill:#b0b0b0" transform="matrix(.14 0 0 -.14 82.166 300.904)"/></g><g id="ytick_2"><path id="line2d_10" d="M98.073 259.228h357.12" clip-path="url(#p63d606729a)" style="fill:none;stroke:#b0b0b0;stroke-width:.3;stroke-linecap:square"/><use xlink:href="#m479b4ae2ee" id="line2d_11" x="98.073" y="259.228" style="fill:#b0b0b0;stroke:#b0b0b0;stroke-width:.3"/><g id="text_9" style="fill:#b0b0b0" transform="matrix(.14 0 0 -.14 55.443 264.547)"><defs><path id="DejaVuSans-35" d="M691 4666h2478v-532H1269V2991q137 47 274 70 138 23 276 23 781 0 1237-428 457-428 457-1159 0-753-469-1171Q2575-91 1722-91q-294 0-599 50Q819 9 494 109v635q281-153 581-228t634-75q541 0 856 284 316 284 316 772 0 487-316 771-315 285-856 285-253 0-505-56-251-56-513-175v2344z" transform="scale(.01563)"/></defs><use xlink:href="#DejaVuSans-35"/><use xlink:href="#DejaVuSans-30" x="63.623"/><use xlink:href="#DejaVuSans-30" x="127.246"/><use xlink:href="#DejaVuSans-30" x="190.869"/></g></g><g id="ytick_3"><path id="line2d_12" d="M98.073 222.871h357.12" clip-path="url(#p63d606729a)" style="fill:none;stroke:#b0b0b0;stroke-width:.3;stroke-linecap:square"/><use xlink:href="#m479b4ae2ee" id="line2d_13" x="98.073" y="222.871" style="fill:#b0b0b0;stroke:#b0b0b0;stroke-width:.3"/><g id="text_10" style="fill:#b0b0b0" transform="matrix(.14 0 0 -.14 46.536 228.19)"><use xlink:href="#DejaVuSans-31"/><use xlink:href="#DejaVuSans-30" x="63.623"/><use xlink:href="#DejaVuSans-30" x="127.246"/><use xlink:href="#DejaVuSans-30" x="190.869"/><use xlink:href="#DejaVuSans-30" x="254.492"/></g></g><g id="ytick_4"><path id="line2d_14" d="M98.073 186.514h357.12" clip-path="url(#p63d606729a)" style="fill:none;stroke:#b0b0b0;stroke-width:.3;stroke-linecap:square"/><use xlink:href="#m479b4ae2ee" id="line2d_15" x="98.073" y="186.514" style="fill:#b0b0b0;stroke:#b0b0b0;stroke-width:.3"/><g id="text_11" style="fill:#b0b0b0" transform="matrix(.14 0 0 -.14 46.536 191.833)"><use xlink:href="#DejaVuSans-31"/><use xlink:href="#DejaVuSans-35" x="63.623"/><use xlink:href="#DejaVuSans-30" x="127.246"/><use xlink:href="#DejaVuSans-30" x="190.869"/><use xlink:href="#DejaVuSans-30" x="254.492"/></g></g><g id="ytick_5"><path id="line2d_16" d="M98.073 150.157h357.12" clip-path="url(#p63d606729a)" style="fill:none;stroke:#b0b0b0;stroke-width:.3;stroke-linecap:square"/><use xlink:href="#m479b4ae2ee" id="line2d_17" x="98.073" y="150.157" style="fill:#b0b0b0;stroke:#b0b0b0;stroke-width:.3"/><g id="text_12" style="fill:#b0b0b0" transform="matrix(.14 0 0 -.14 46.536 155.476)"><use xlink:href="#DejaVuSans-32"/><use xlink:href="#DejaVuSans-30" x="63.623"/><use xlink:href="#DejaVuSans-30" x="127.246"/><use xlink:href="#DejaVuSans-30" x="190.869"/><use xlink:href="#DejaVuSans-30" x="254.492"/></g></g><g id="ytick_6"><path id="line2d_18" d="M98.073 113.8h357.12" clip-path="url(#p63d606729a)" style="fill:none;stroke:#b0b0b0;stroke-width:.3;stroke-linecap:square"/><use xlink:href="#m479b4ae2ee" id="line2d_19" x="98.073" y="113.8" style="fill:#b0b0b0;stroke:#b0b0b0;stroke-width:.3"/><g id="text_13" style="fill:#b0b0b0" transform="matrix(.14 0 0 -.14 46.536 119.119)"><use xlink:href="#DejaVuSans-32"/><use xlink:href="#DejaVuSans-35" x="63.623"/><use xlink:href="#DejaVuSans-30" x="127.246"/><use xlink:href="#DejaVuSans-30" x="190.869"/><use xlink:href="#DejaVuSans-30" x="254.492"/></g></g><g id="ytick_7"><path id="line2d_20" d="M98.073 77.443h357.12" clip-path="url(#p63d606729a)" style="fill:none;stroke:#b0b0b0;stroke-width:.3;stroke-linecap:square"/><use xlink:href="#m479b4ae2ee" id="line2d_21" x="98.073" y="77.443" style="fill:#b0b0b0;stroke:#b0b0b0;stroke-width:.3"/><g id="text_14" style="fill:#b0b0b0" transform="matrix(.14 0 0 -.14 46.536 82.762)"><defs><path id="DejaVuSans-33" d="M2597 2516q453-97 707-404 255-306 255-756 0-690-475-1069Q2609-91 1734-91q-293 0-604 58T488 141v609q262-153 574-231 313-78 654-78 593 0 904 234t311 681q0 413-289 645-289 233-804 233h-544v519h569q465 0 712 186t247 536q0 359-255 551-254 193-729 193-260 0-557-57-297-56-653-174v562q360 100 674 150t592 50q719 0 1137-327 419-326 419-882 0-388-222-655t-631-370z" transform="scale(.01563)"/></defs><use xlink:href="#DejaVuSans-33"/><use xlink:href="#DejaVuSans-30" x="63.623"/><use xlink:href="#DejaVuSans-30" x="127.246"/><use xlink:href="#DejaVuSans-30" x="190.869"/><use xlink:href="#DejaVuSans-30" x="254.492"/></g></g><g id="ytick_8"><path id="line2d_22" d="M98.073 41.086h357.12" clip-path="url(#p63d606729a)" style="fill:none;stroke:#b0b0b0;stroke-width:.3;stroke-linecap:square"/><use xlink:href="#m479b4ae2ee" id="line2d_23" x="98.073" y="41.086" style="fill:#b0b0b0;stroke:#b0b0b0;stroke-width:.3"/><g id="text_15" style="fill:#b0b0b0" transform="matrix(.14 0 0 -.14 46.536 46.405)"><use xlink:href="#DejaVuSans-33"/><use xlink:href="#DejaVuSans-35" x="63.623"/><use xlink:href="#DejaVuSans-30" x="127.246"/><use xlink:href="#DejaVuSans-30" x="190.869"/><use xlink:href="#DejaVuSans-30" x="254.492"/></g></g><g id="text_16" style="fill:#b0b0b0" transform="matrix(.14 0 0 -.14 7.2 11.563)"><defs><path id="DejaVuSans-47" d="M3809 666v1253H2778v519h1656V434q-365-259-806-392-440-133-940-133-1094 0-1712 639-617 640-617 1780 0 1144 617 1783 618 639 1712 639 456 0 867-113 411-112 758-331v-672q-350 297-744 447t-828 150q-857 0-1287-478-429-478-429-1425 0-944 429-1422 430-478 1287-478 334 0 596 58 263 58 472 180z" transform="scale(.01563)"/><path id="DejaVuSans-69" d="M603 3500h575V0H603v3500zm0 1363h575v-729H603v729z" transform="scale(.01563)"/><path id="DejaVuSans-74" d="M1172 4494v-994h1184v-447H1172V1153q0-428 117-550t477-122h590V0h-590q-666 0-919 248-253 249-253 905v1900H172v447h422v994h578z" transform="scale(.01563)"/><path id="DejaVuSans-48" d="M628 4666h631V2753h2294v1913h631V0h-631v2222H1259V0H628v4666z" transform="scale(.01563)"/><path id="DejaVuSans-75" d="M544 1381v2119h575V1403q0-497 193-746 194-248 582-248 465 0 735 297 271 297 271 810v1984h575V0h-575v538q-209-319-486-474-276-155-642-155-603 0-916 375-312 375-312 1097zm1447 2203z" transform="scale(.01563)"/><path id="DejaVuSans-62" d="M3116 1747q0 634-261 995t-717 361q-457 0-718-361t-261-995q0-634 261-995t718-361q456 0 717 361t261 995zM1159 2969q182 312 458 463 277 152 661 152 638 0 1036-506 399-506 399-1331T3314 415Q2916-91 2278-91q-384 0-661 152-276 152-458 464V0H581v4863h578V2969z" transform="scale(.01563)"/><path id="DejaVuSans-73" d="M2834 3397v-544q-243 125-506 187-262 63-544 63-428 0-642-131t-214-394q0-200 153-314t616-217l197-44q612-131 870-370t258-667q0-488-386-773Q2250-91 1575-91q-281 0-586 55T347 128v594q319-166 628-249 309-82 613-82 406 0 624 139 219 139 219 392 0 234-158 359-157 125-692 241l-200 47q-534 112-772 345-237 233-237 639 0 494 350 762 350 269 994 269 318 0 599-47 282-46 519-140z" transform="scale(.01563)"/><path id="DejaVuSans-61" d="M2194 1759q-697 0-966-159t-269-544q0-306 202-486 202-179 548-179 479 0 768 339t289 901v128h-572zm1147 238V0h-575v531q-197-318-491-470T1556-91q-537 0-855 302-317 302-317 808 0 590 395 890 396 300 1180 300h807v57q0 397-261 614t-733 217q-300 0-585-72-284-72-546-216v532q315 122 612 182 297 61 578 61 760 0 1135-394 375-393 375-1193z" transform="scale(.01563)"/><path id="DejaVuSans-72" d="M2631 2963q-97 56-211 82-114 27-251 27-488 0-749-317t-261-911V0H581v3500h578v-544q182 319 472 473 291 155 707 155 59 0 131-8 72-7 159-23l3-590z" transform="scale(.01563)"/></defs><use xlink:href="#DejaVuSans-47"/><use xlink:href="#DejaVuSans-69" x="77.49"/><use xlink:href="#DejaVuSans-74" x="105.273"/><use xlink:href="#DejaVuSans-48" x="144.482"/><use xlink:href="#DejaVuSans-75" x="219.678"/><use xlink:href="#DejaVuSans-62" x="283.057"/><use xlink:href="#DejaVuSans-20" x="346.533"/><use xlink:href="#DejaVuSans-73" x="378.32"/><use xlink:href="#DejaVuSans-74" x="430.42"/><use xlink:href="#DejaVuSans-61" x="469.629"/><use xlink:href="#DejaVuSans-72" x="530.908"/><use xlink:href="#DejaVuSans-73" x="572.021"/></g></g><path id="line2d_24" d="m137.34 295.585 2.146-.123 69.664-.327 52.213-.64 45.704-1.004 4.363-.145 8.797-.16 26.106-1.164 4.363-.276 8.583-.378 4.363-.364 61.082-3.49 10.943-.683 19.526-1.084h0" clip-path="url(#p63d606729a)" style="fill:none;stroke:#bcbd22;stroke-width:1.5;stroke-linecap:square"/><path id="line2d_25" d="m226.674 295.585 2.002-.014h2.217l2.146-.058 2.217-.11 2.146-.05 2.217-.022 2.218-.015 2.145-.109 2.218-.036 2.145-.022 2.218-.094 2.217-.044 2.003-.036 2.217-.131 2.145-.095 2.218-.094 2.145-.211 2.218-.342 2.217-.124 2.146-.101 2.217-.131 2.146-.08 2.217-.095 2.217-.182 2.074-.145 2.218-.058 2.145-.102 2.218-.094 2.145-.073 2.218-.131 2.217-.08 2.146-.073 2.217-.116 2.145-.08 2.218-.044 2.217-.058 2.003-.153 2.217-.189 2.146-.167 2.217-.13 2.146-.095 2.217-.131 2.217-.16 2.146-.146 2.217-.13 2.146-.153 2.217-.153 2.217-.167 2.003-.182 2.217-.233 2.146-.203 2.217-.153 2.146-.21 2.217-.32 2.217-.168 2.146-.204 2.217-.174 2.146-.218 2.217-.255 2.218-.349 2.002-.276 2.218-.233 2.145-.32 2.217-.283 2.146-.19 2.217-.501 2.218-.175 2.145-.196 2.218-.196 2.145-.262 2.218-.276 2.217-.233 2.074-.233 2.217-.189 2.146-.218 2.217-.4 2.146-.225 2.217-.277 2.218-.276 2.145-.203 2.218-.299 2.145-.254 2.217-.145 2.218-.248 2.002-.283 2.218-.255 2.145-.203 2.218-.51 2.145-.247 2.218-.232 2.217-.386 2.146-.421 2.217-.211 2.146-.4 2.217-.291 2.217-.233 2.003-.21 2.217-.313 2.146-.284 2.217-.269 2.146-.393 2.217-.334 2.217-.313 2.146-.298 2.217-.29" clip-path="url(#p63d606729a)" style="fill:none;stroke:#7f7f7f;stroke-width:1.5;stroke-linecap:square"/><path id="line2d_26" d="m98.073 295.585 2.217-.269 6.51-.13 54.429-1.15 45.704-.56 8.797-.297 17.31-.502 8.797-.182 21.671-.858 6.58-.298 4.364-.21 8.726-.32 32.615-2.197 8.797-.792 10.8-1.113 2.146-.364 21.743-2.203 2.218-.436 2.145-.233 2.217-.378 6.58-.756 10.944-1.505 6.437-1.07 13.16-2.028 8.583-.93 4.363-.662 2.218-.255 2.145-.378 13.16-1.498 2.218-.436 15.163-1.898 4.363-.69h0" clip-path="url(#p63d606729a)" style="fill:none;stroke:#e377c2;stroke-width:1.5;stroke-linecap:square"/><g id="text_17" style="fill:#1f77b4" transform="matrix(.14 0 0 -.14 465.907 33.337)"><defs><path id="DejaVuSans-70" d="M1159 525v-1856H581v4831h578v-531q182 312 458 463 277 152 661 152 638 0 1036-506 399-506 399-1331T3314 415Q2916-91 2278-91q-384 0-661 152-276 152-458 464zm1957 1222q0 634-261 995t-717 361q-457 0-718-361t-261-995q0-634 261-995t718-361q456 0 717 361t261 995z" transform="scale(.01563)"/><path id="DejaVuSans-6e" d="M3513 2113V0h-575v2094q0 497-194 743-194 247-581 247-466 0-735-297-269-296-269-809V0H581v3500h578v-544q207 316 486 472 280 156 646 156 603 0 912-373 310-373 310-1098z" transform="scale(.01563)"/><path id="DejaVuSans-64" d="M2906 2969v1894h575V0h-575v525q-181-312-458-464-276-152-664-152-634 0-1033 506-398 507-398 1332t398 1331q399 506 1033 506 388 0 664-152 277-151 458-463zM947 1747q0-634 261-995t717-361q456 0 718 361 263 361 263 995t-263 995q-262 361-718 361t-717-361q-261-361-261-995z" transform="scale(.01563)"/><path id="DejaVuSans-2d" d="M313 2009h1684v-512H313v512z" transform="scale(.01563)"/><path id="DejaVuSans-65" d="M3597 1894v-281H953q38-594 358-905t892-311q331 0 642 81t618 244V178Q3153 47 2828-22t-659-69q-838 0-1327 487-489 488-489 1320 0 859 464 1363 464 505 1252 505 706 0 1117-455 411-454 411-1235zm-575 169q-6 471-264 752-258 282-683 282-481 0-770-272t-333-766l2050 4z" transform="scale(.01563)"/><path id="DejaVuSans-76" d="M191 3500h609L1894 563l1094 2937h609L2284 0h-781L191 3500z" transform="scale(.01563)"/><path id="DejaVuSans-2f" d="M1625 4666h531L531-594H0l1625 5260z" transform="scale(.01563)"/></defs><use xlink:href="#DejaVuSans-70"/><use xlink:href="#DejaVuSans-61" x="63.477"/><use xlink:href="#DejaVuSans-6e" x="124.756"/><use xlink:href="#DejaVuSans-64" x="188.135"/><use xlink:href="#DejaVuSans-61" x="251.611"/><use xlink:href="#DejaVuSans-73" x="312.891"/><use xlink:href="#DejaVuSans-2d" x="364.99"/><use xlink:href="#DejaVuSans-64" x="401.074"/><use xlink:href="#DejaVuSans-65" x="464.551"/><use xlink:href="#DejaVuSans-76" x="526.074"/><use xlink:href="#DejaVuSans-2f" x="585.254"/><use xlink:href="#DejaVuSans-70" x="618.945"/><use xlink:href="#DejaVuSans-61" x="682.422"/><use xlink:href="#DejaVuSans-6e" x="743.701"/><use xlink:href="#DejaVuSans-64" x="807.08"/><use xlink:href="#DejaVuSans-61" x="870.557"/><use xlink:href="#DejaVuSans-73" x="931.836"/></g><g id="text_18" style="fill:#ff7f0e" transform="matrix(.14 0 0 -.14 465.907 208.28)"><defs><path id="DejaVuSans-63" d="M3122 3366v-538q-244 135-489 202t-495 67q-560 0-870-355-309-354-309-995t309-996q310-354 870-354 250 0 495 67t489 202V134Q2881 22 2623-34q-257-57-548-57-791 0-1257 497-465 497-465 1341 0 856 470 1346 471 491 1290 491 265 0 518-55 253-54 491-163z" transform="scale(.01563)"/><path id="DejaVuSans-79" d="M2059-325q-243-625-475-815-231-191-618-191H506v481h338q237 0 368 113 132 112 291 531l103 262L191 3500h609L1894 763l1094 2737h609L2059-325z" transform="scale(.01563)"/></defs><use xlink:href="#DejaVuSans-73"/><use xlink:href="#DejaVuSans-63" x="52.1"/><use xlink:href="#DejaVuSans-69" x="107.08"/><use xlink:href="#DejaVuSans-70" x="134.863"/><use xlink:href="#DejaVuSans-79" x="198.34"/><use xlink:href="#DejaVuSans-2f" x="257.52"/><use xlink:href="#DejaVuSans-73" x="291.211"/><use xlink:href="#DejaVuSans-63" x="343.311"/><use xlink:href="#DejaVuSans-69" x="398.291"/><use xlink:href="#DejaVuSans-70" x="426.074"/><use xlink:href="#DejaVuSans-79" x="489.551"/></g><g id="text_19" style="fill:#2ca02c" transform="matrix(.14 0 0 -.14 465.907 222.28)"><defs><path id="DejaVuSans-6d" d="M3328 2828q216 388 516 572t706 184q547 0 844-383 297-382 297-1088V0h-578v2094q0 503-179 746-178 244-543 244-447 0-707-297-259-296-259-809V0h-578v2094q0 506-178 748t-550 242q-441 0-701-298-259-298-259-808V0H581v3500h578v-544q197 322 472 475t653 153q382 0 649-194 267-193 395-562z" transform="scale(.01563)"/></defs><use xlink:href="#DejaVuSans-73"/><use xlink:href="#DejaVuSans-79" x="52.1"/><use xlink:href="#DejaVuSans-6d" x="111.279"/><use xlink:href="#DejaVuSans-70" x="208.691"/><use xlink:href="#DejaVuSans-79" x="272.168"/><use xlink:href="#DejaVuSans-2f" x="331.348"/><use xlink:href="#DejaVuSans-73" x="365.039"/><use xlink:href="#DejaVuSans-79" x="417.139"/><use xlink:href="#DejaVuSans-6d" x="476.318"/><use xlink:href="#DejaVuSans-70" x="573.73"/><use xlink:href="#DejaVuSans-79" x="637.207"/></g><g id="text_20" style="fill:#d62728" transform="matrix(.14 0 0 -.14 465.907 236.28)"><defs><path id="DejaVuSans-6a" d="M603 3500h575V-63q0-668-255-968-254-300-820-300h-219v487H38q328 0 446 152Q603-541 603-63v3563zm0 1363h575v-729H603v729z" transform="scale(.01563)"/><path id="DejaVuSans-6f" d="M1959 3097q-462 0-731-361t-269-989q0-628 267-989 268-361 733-361 460 0 728 362 269 363 269 988 0 622-269 986-268 364-728 364zm0 487q750 0 1178-488 429-487 429-1349 0-859-429-1349Q2709-91 1959-91q-753 0-1180 489-426 490-426 1349 0 862 426 1349 427 488 1180 488z" transform="scale(.01563)"/><path id="DejaVuSans-6b" d="M581 4863h578V1991l1716 1509h734L1753 1863 3688 0h-750L1159 1709V0H581v4863z" transform="scale(.01563)"/></defs><use xlink:href="#DejaVuSans-6a"/><use xlink:href="#DejaVuSans-75" x="27.783"/><use xlink:href="#DejaVuSans-70" x="91.162"/><use xlink:href="#DejaVuSans-79" x="154.639"/><use xlink:href="#DejaVuSans-74" x="213.818"/><use xlink:href="#DejaVuSans-65" x="253.027"/><use xlink:href="#DejaVuSans-72" x="314.551"/><use xlink:href="#DejaVuSans-2f" x="355.664"/><use xlink:href="#DejaVuSans-6e" x="389.355"/><use xlink:href="#DejaVuSans-6f" x="452.734"/><use xlink:href="#DejaVuSans-74" x="513.916"/><use xlink:href="#DejaVuSans-65" x="553.125"/><use xlink:href="#DejaVuSans-62" x="614.648"/><use xlink:href="#DejaVuSans-6f" x="678.125"/><use xlink:href="#DejaVuSans-6f" x="739.307"/><use xlink:href="#DejaVuSans-6b" x="800.488"/></g><g id="text_21" style="fill:#9467bd" transform="matrix(.14 0 0 -.14 465.907 250.28)"><defs><path id="DejaVuSans-44" d="M1259 4147V519h763q966 0 1414 437 448 438 448 1382 0 937-448 1373t-1414 436h-763zm-631 519h1297q1356 0 1990-564 635-564 635-1764 0-1207-638-1773Q3275 0 1925 0H628v4666z" transform="scale(.01563)"/><path id="DejaVuSans-45" d="M628 4666h2950v-532H1259V2753h2222v-531H1259V531h2375V0H628v4666z" transform="scale(.01563)"/><path id="DejaVuSans-41" d="m2188 4044-857-2322h1716l-859 2322zm-357 622h716L4325 0h-656l-425 1197H1141L716 0H50l1781 4666z" transform="scale(.01563)"/><path id="DejaVuSans-50" d="M1259 4147V2394h794q441 0 681 228 241 228 241 650 0 419-241 647-240 228-681 228h-794zm-631 519h1425q785 0 1186-355 402-355 402-1039 0-691-402-1044-401-353-1186-353h-794V0H628v4666z" transform="scale(.01563)"/></defs><use xlink:href="#DejaVuSans-44"/><use xlink:href="#DejaVuSans-45" x="77.002"/><use xlink:href="#DejaVuSans-41" x="140.186"/><use xlink:href="#DejaVuSans-50" x="208.594"/><use xlink:href="#DejaVuSans-2f" x="268.896"/><use xlink:href="#DejaVuSans-64" x="302.588"/><use xlink:href="#DejaVuSans-65" x="366.064"/><use xlink:href="#DejaVuSans-61" x="427.588"/><use xlink:href="#DejaVuSans-70" x="488.867"/></g><g id="text_22" style="fill:#8c564b" transform="matrix(.14 0 0 -.14 465.907 264.28)"><use xlink:href="#DejaVuSans-61"/><use xlink:href="#DejaVuSans-73" x="61.279"/><use xlink:href="#DejaVuSans-74" x="113.379"/><use xlink:href="#DejaVuSans-72" x="152.588"/><use xlink:href="#DejaVuSans-6f" x="191.451"/><use xlink:href="#DejaVuSans-70" x="252.633"/><use xlink:href="#DejaVuSans-79" x="316.109"/><use xlink:href="#DejaVuSans-2f" x="375.289"/><use xlink:href="#DejaVuSans-61" x="408.98"/><use xlink:href="#DejaVuSans-73" x="470.26"/><use xlink:href="#DejaVuSans-74" x="522.359"/><use xlink:href="#DejaVuSans-72" x="561.568"/><use xlink:href="#DejaVuSans-6f" x="600.432"/><use xlink:href="#DejaVuSans-70" x="661.613"/><use xlink:href="#DejaVuSans-79" x="725.09"/></g><g id="text_23" style="fill:#e377c2" transform="matrix(.14 0 0 -.14 465.907 278.28)"><defs><path id="DejaVuSans-68" d="M3513 2113V0h-575v2094q0 497-194 743-194 247-581 247-466 0-735-297-269-296-269-809V0H581v4863h578V2956q207 316 486 472 280 156 646 156 603 0 912-373 310-373 310-1098z" transform="scale(.01563)"/></defs><use xlink:href="#DejaVuSans-62"/><use xlink:href="#DejaVuSans-69" x="63.477"/><use xlink:href="#DejaVuSans-6f" x="91.26"/><use xlink:href="#DejaVuSans-70" x="152.441"/><use xlink:href="#DejaVuSans-79" x="215.918"/><use xlink:href="#DejaVuSans-74" x="275.098"/><use xlink:href="#DejaVuSans-68" x="314.307"/><use xlink:href="#DejaVuSans-6f" x="377.686"/><use xlink:href="#DejaVuSans-6e" x="438.867"/><use xlink:href="#DejaVuSans-2f" x="502.246"/><use xlink:href="#DejaVuSans-62" x="535.938"/><use xlink:href="#DejaVuSans-69" x="599.414"/><use xlink:href="#DejaVuSans-6f" x="627.197"/><use xlink:href="#DejaVuSans-70" x="688.379"/><use xlink:href="#DejaVuSans-79" x="751.855"/><use xlink:href="#DejaVuSans-74" x="811.035"/><use xlink:href="#DejaVuSans-68" x="850.244"/><use xlink:href="#DejaVuSans-6f" x="913.623"/><use xlink:href="#DejaVuSans-6e" x="974.805"/></g><g id="text_24" style="fill:#7f7f7f" transform="matrix(.14 0 0 -.14 465.907 292.28)"><defs><path id="DejaVuSans-78" d="M3513 3500 2247 1797 3578 0h-678L1881 1375 863 0H184l1360 1831L300 3500h678l928-1247 928 1247h679z" transform="scale(.01563)"/></defs><use xlink:href="#DejaVuSans-70"/><use xlink:href="#DejaVuSans-79" x="63.477"/><use xlink:href="#DejaVuSans-64" x="122.656"/><use xlink:href="#DejaVuSans-61" x="186.133"/><use xlink:href="#DejaVuSans-74" x="247.412"/><use xlink:href="#DejaVuSans-61" x="286.621"/><use xlink:href="#DejaVuSans-2f" x="347.9"/><use xlink:href="#DejaVuSans-78" x="381.592"/><use xlink:href="#DejaVuSans-61" x="440.771"/><use xlink:href="#DejaVuSans-72" x="502.051"/><use xlink:href="#DejaVuSans-72" x="541.414"/><use xlink:href="#DejaVuSans-61" x="582.527"/><use xlink:href="#DejaVuSans-79" x="643.807"/></g><g id="text_25" style="fill:#bcbd22" transform="matrix(.14 0 0 -.14 465.907 306.28)"><use xlink:href="#DejaVuSans-70"/><use xlink:href="#DejaVuSans-73" x="63.477"/><use xlink:href="#DejaVuSans-79" x="115.576"/><use xlink:href="#DejaVuSans-63" x="174.756"/><use xlink:href="#DejaVuSans-68" x="229.736"/><use xlink:href="#DejaVuSans-6f" x="293.115"/><use xlink:href="#DejaVuSans-70" x="354.297"/><use xlink:href="#DejaVuSans-79" x="417.773"/><use xlink:href="#DejaVuSans-2f" x="476.953"/><use xlink:href="#DejaVuSans-70" x="510.645"/><use xlink:href="#DejaVuSans-73" x="574.121"/><use xlink:href="#DejaVuSans-79" x="626.221"/><use xlink:href="#DejaVuSans-63" x="685.4"/><use xlink:href="#DejaVuSans-68" x="740.381"/><use xlink:href="#DejaVuSans-6f" x="803.76"/><use xlink:href="#DejaVuSans-70" x="864.941"/><use xlink:href="#DejaVuSans-79" x="928.418"/></g><g id="text_26" style="fill:#b0b0b0" transform="matrix(.09716 0 0 -.09716 98.073 329.622)"><defs><path id="DejaVuSans-40" d="M2381 1678q0-447 222-702 222-254 610-254 384 0 604 256 221 256 221 700 0 438-225 695-225 258-607 258-378 0-602-256-223-256-223-697zm1703-934q-187-241-429-355t-564-114q-538 0-874 389t-336 1014q0 625 337 1015 338 391 873 391 322 0 565-117 244-117 428-354v409h447V722q457 69 714 417 258 349 258 902 0 334-99 628-98 294-298 544-325 409-792 626t-1017 217q-384 0-738-102-353-101-653-301-490-319-767-836-276-517-276-1120 0-497 179-932 180-434 521-765 328-325 759-495 431-171 922-171 403 0 792 136t714 389l281-347q-390-303-851-464t-936-161q-578 0-1091 205-512 205-912 595Q841 78 631 592q-209 514-209 1105 0 569 212 1084 213 516 607 907 403 396 931 607t1119 211q662 0 1229-272 568-271 952-771 234-307 357-666 124-359 124-744 0-822-497-1297T4084 263v481z" transform="scale(.01563)"/><path id="DejaVuSans-6c" d="M603 4863h575V0H603v4863z" transform="scale(.01563)"/><path id="DejaVuSans-67" d="M2906 1791q0 625-258 968-257 344-723 344-462 0-720-344-258-343-258-968 0-622 258-966t720-344q466 0 723 344 258 344 258 966zm575-1357q0-893-397-1329-396-436-1215-436-303 0-572 45t-522 139v559q253-137 500-202 247-66 503-66 566 0 847 295t281 892v285q-178-310-456-463T1784 0Q1141 0 747 490 353 981 353 1791q0 812 394 1302 394 491 1037 491 388 0 666-153t456-462v531h575V434z" transform="scale(.01563)"/><path id="DejaVuSans-7c" d="M1344 4891v-6400H813v6400h531z" transform="scale(.01563)"/><path id="DejaVuSans-4e" d="M628 4666h850L3547 763v3903h612V0h-850L1241 3903V0H628v4666z" transform="scale(.01563)"/><path id="DejaVuSans-53" d="M3425 4513v-616q-359 172-678 256-319 85-616 85-515 0-795-200t-280-569q0-310 186-468 186-157 705-254l381-78q706-135 1042-474t336-907q0-679-455-1029Q2797-91 1919-91q-331 0-705 75-373 75-773 222v650q384-215 753-325 369-109 725-109 540 0 834 212 294 213 294 607 0 343-211 537t-692 291l-385 75q-706 140-1022 440-315 300-315 835 0 619 436 975t1201 356q329 0 669-60 341-59 697-177z" transform="scale(.01563)"/><path id="DejaVuSans-f6" d="M1959 3097q-462 0-731-361t-269-989q0-628 267-989 268-361 733-361 460 0 728 362 269 363 269 988 0 622-269 986-268 364-728 364zm0 487q750 0 1178-488 429-487 429-1349 0-859-429-1349Q2709-91 1959-91q-753 0-1180 489-426 490-426 1349 0 862 426 1349 427 488 1180 488zm295 1266h634v-631h-634v631zm-1222 0h634v-631h-634v631z" transform="scale(.01563)"/><path id="DejaVuSans-43" d="M4122 4306v-665q-319 297-680 443-361 147-767 147-800 0-1225-489t-425-1414q0-922 425-1411t1225-489q406 0 767 147t680 444V359q-331-225-702-338-370-112-782-112-1060 0-1670 648-609 649-609 1771 0 1125 609 1773 610 649 1670 649 418 0 788-111 371-111 696-333z" transform="scale(.01563)"/><path id="DejaVuSans-42" d="M1259 2228V519h1013q509 0 754 211 246 211 246 645 0 438-246 645-245 208-754 208H1259zm0 1919V2741h935q462 0 688 173 227 174 227 530 0 353-227 528-226 175-688 175h-935zm-631 519h1613q722 0 1112-300 391-300 391-853 0-429-200-682t-588-315q466-100 724-418 258-317 258-792 0-625-425-966Q3088 0 2303 0H628v4666z" transform="scale(.01563)"/><path id="DejaVuSans-59" d="M-13 4666h679l1293-1919 1285 1919h678L2272 2222V0h-634v2222L-13 4666z" transform="scale(.01563)"/></defs><use xlink:href="#DejaVuSans-40"/><use xlink:href="#DejaVuSans-6e" x="100"/><use xlink:href="#DejaVuSans-73" x="163.379"/><use xlink:href="#DejaVuSans-63" x="215.479"/><use xlink:href="#DejaVuSans-68" x="270.459"/><use xlink:href="#DejaVuSans-6c" x="333.838"/><use xlink:href="#DejaVuSans-6f" x="361.621"/><use xlink:href="#DejaVuSans-65" x="422.803"/><use xlink:href="#DejaVuSans-20" x="484.326"/><use xlink:href="#DejaVuSans-2f" x="516.113"/><use xlink:href="#DejaVuSans-20" x="549.805"/><use xlink:href="#DejaVuSans-67" x="581.592"/><use xlink:href="#DejaVuSans-69" x="645.068"/><use xlink:href="#DejaVuSans-74" x="672.852"/><use xlink:href="#DejaVuSans-68" x="712.061"/><use xlink:href="#DejaVuSans-75" x="775.439"/><use xlink:href="#DejaVuSans-62" x="838.818"/><use xlink:href="#DejaVuSans-2d" x="902.295"/><use xlink:href="#DejaVuSans-74" x="938.379"/><use xlink:href="#DejaVuSans-72" x="977.588"/><use xlink:href="#DejaVuSans-65" x="1016.451"/><use xlink:href="#DejaVuSans-6e" x="1077.975"/><use xlink:href="#DejaVuSans-64" x="1141.354"/><use xlink:href="#DejaVuSans-73" x="1204.83"/><use xlink:href="#DejaVuSans-20" x="1256.93"/><use xlink:href="#DejaVuSans-7c" x="1288.717"/><use xlink:href="#DejaVuSans-20" x="1322.408"/><use xlink:href="#DejaVuSans-4e" x="1354.195"/><use xlink:href="#DejaVuSans-69" x="1429"/><use xlink:href="#DejaVuSans-63" x="1456.783"/><use xlink:href="#DejaVuSans-6f" x="1511.764"/><use xlink:href="#DejaVuSans-20" x="1572.945"/><use xlink:href="#DejaVuSans-53" x="1604.732"/><use xlink:href="#DejaVuSans-63" x="1668.209"/><use xlink:href="#DejaVuSans-68" x="1723.189"/><use xlink:href="#DejaVuSans-6c" x="1786.568"/><use xlink:href="#DejaVuSans-f6" x="1814.352"/><use xlink:href="#DejaVuSans-6d" x="1875.533"/><use xlink:href="#DejaVuSans-65" x="1972.945"/><use xlink:href="#DejaVuSans-72" x="2034.469"/><use xlink:href="#DejaVuSans-20" x="2075.582"/><use xlink:href="#DejaVuSans-7c" x="2107.369"/><use xlink:href="#DejaVuSans-20" x="2141.061"/><use xlink:href="#DejaVuSans-43" x="2172.848"/><use xlink:href="#DejaVuSans-43" x="2242.672"/><use xlink:href="#DejaVuSans-20" x="2312.496"/><use xlink:href="#DejaVuSans-42" x="2344.283"/><use xlink:href="#DejaVuSans-59" x="2407.387"/></g><path id="line2d_27" d="m159.012 295.585 2.217-.421 30.54-.306 13.018-.13 8.726-.204 13.16-.233 6.366-.298 2.217-.364 8.726-.821 15.163-.735 4.363-.37 21.815-1.651 4.363-.291 10.943-1.236 8.655-1.062 6.509-.574 4.434-.495 8.726-.967 10.8-.887 4.363-.276 2.217-1.418 2.146-.124 2.217-.37 6.58-.582 4.22-.357 8.726-.836 4.363-.378 17.452-2.036 13.09-.996 4.434-.436 6.365-.575 8.798-.8 2.146-.741 6.58-.546 2.217-1.367 10.729-1.316 2.217-1.105 6.58-1.04h0" clip-path="url(#p63d606729a)" style="fill:none;stroke:#8c564b;stroke-width:1.5;stroke-linecap:square"/><path id="line2d_28" d="m233.04 295.585 2.216-.029 2.146-.109 2.217-.094 2.218-.11 2.145-.072 2.218-.073 2.145-.072 2.218-.073 2.217-.146 2.003-.109 2.217-.08 2.145-.16 2.218-.254 2.145-.131 2.218-.124 2.217-.167 2.146-.29 2.217-.248 2.146-.364 2.217-.16 2.217-.196 2.074-.276 2.218-.204 2.145-.196 2.218-.204 2.145-.305 2.218-.196 2.217-.248 2.146-.254 2.217-.298 2.145-.306 2.218-.341 2.217-.364 2.003-.218 2.217-.386 2.146-.45 2.217-.488 2.146-.494 2.217-.422 2.217-.37 2.146-.43 2.217-.48 2.146-.574 2.217-.458 2.217-.502 2.003-.618 2.217-.647 2.146-.494 2.217-.568 2.146-.567 2.217-.625 2.217-.538 2.146-.473 2.217-.618 2.146-.48 2.217-.465 2.218-.502 2.002-.61 2.218-.48 2.145-.59 2.217-.552 2.146-.451 2.217-.575 2.218-.429 2.145-.37 2.218-.458 2.145-.444 2.218-.509 2.217-.313 2.074-.458 2.217-.458 2.146-.443 2.217-.415 2.146-.596 2.217-.473 2.218-.422 2.145-.37 2.218-.422 2.145-.502 2.217-.407 2.218-.29 2.002-.386 2.218-.335 2.145-.342 2.218-.32 2.145-.37 2.218-.43 2.217-.472 2.146-.364 2.217-.378 2.146-.305 2.217-.327 2.217-.233 2.003-.364 2.217-.29 2.146-.226 2.217-.349 2.146-.225 2.217-.197 2.217-.269 2.146-.254 2.217-.335" clip-path="url(#p63d606729a)" style="fill:none;stroke:#9467bd;stroke-width:1.5;stroke-linecap:square"/><path id="line2d_29" d="m257 295.585 2.145-.421 2.218-.524 2.145-.298 2.218-.45 2.217-.452 2.146-.378 2.217-.567 2.146-.487 2.217-.487 2.217-.742 2.074-.574 2.218-.597 2.145-1.09 2.218-.546 2.145-.61 2.218-.713 2.217-.713 2.146-.56 2.217-.669 2.145-.712 2.218-.575 2.217-.661 2.003-.626 2.217-.843 2.146-.807 2.217-.735 2.146-.88 2.217-.938 2.217-.858 2.146-.872 2.217-1.156 2.146-1.12 2.217-1.062 2.217-1.381 2.003-1.331 2.217-1.25 2.146-1.375 2.217-1.025 2.146-.887 2.217-.895 2.217-.829 2.146-.814 2.217-1.113 2.146-1.17 2.217-1.026 2.218-1.2 2.002-.806 2.218-1.258 2.145-1.004 2.217-.93 2.146-.888 2.217-.938 2.218-.887 2.145-.734 2.218-.858 2.145-1.135 2.218-.814 2.217-.764 2.074-.756 2.217-.8 2.146-.909 2.217-.865 2.146-.69 2.217-.99 2.218-.661 2.145-.706 2.218-.843 2.145-.749 2.217-.793 2.218-.712 2.002-.538 2.218-.757 2.145-.668 2.218-.626 2.145-.458 2.218-.538 2.217-.684 2.146-.581 2.217-.553 2.146-.516 2.217-.458 2.217-.531 2.003-.574 2.217-.677 2.146-.683 2.217-.742 2.146-.662 2.217-.618 2.217-.712 2.146-.778 2.217-.735" clip-path="url(#p63d606729a)" style="fill:none;stroke:#d62728;stroke-width:1.5;stroke-linecap:square"/><path id="line2d_30" d="m126.397 295.585 2.145-.96 15.307-.494 4.434-.174 17.309-.786 2.217-.094 2.146-.277 8.726-.567 8.726-.203 13.16-.044 6.366-.582 4.363-.378 8.797-.61 4.363-.32 12.946-1.804 2.217-1.636 2.218-1.025 4.363-.705 2.145-.611 2.218-.502 2.217-.313 8.583-1.81 4.363-.64 15.234-2.829 2.218-.647 4.363-.945 4.363-.807 6.58-1.927 4.363-1.273 6.437-1.788 2.146-.444 15.306-4.247 10.8-3.293 2.217-.59 2.146-.4 2.217-.552 8.726-2.712 6.437-1.978 8.726-2.909 2.217-.567 4.363-1.352 6.58-1.913 6.51-2.283 8.725-3.425 4.363-1.403 2.218-.67 2.145-.98 2.217-.844 4.22-1.295 4.363-1.548 4.363-1.411 2.218-.502 4.363-1.57 4.363-1.542 4.434-1.498 6.366-2.581 2.217-1.127 6.58-2.269 4.363-1.832h0" clip-path="url(#p63d606729a)" style="fill:none;stroke:#2ca02c;stroke-width:1.5;stroke-linecap:square"/><path id="line2d_31" d="m150.286 295.585 2.217-2.043 10.943-.618 21.744-.829 4.434-.174 10.943-.066 4.22-.312 4.363-.422 4.363-.335 6.58-.596 6.58-.742 2.003-.203 4.363-.596 17.524-2.087 8.582-1.338 13.16-1.92 4.364-.822 4.291-.749 10.944-2.4 4.363-.923 8.797-1.767 6.366-1.483 8.797-2.261 2.146-.771 2.217-1.505 8.583-3.163 2.217-.96 2.146-.727 2.217-.895 2.146-.705 2.217-1.084 2.217-.734 4.363-1.658 2.146-.632 6.437-2.495 2.218-.96 2.145-.785 2.217-1.054 2.146-.764 4.435-1.956 4.363-1.425 4.363-1.73 2.217-.735 2.074-1.054 4.363-1.534 6.58-2.53 8.726-2.764 8.655-2.872 2.145-1.025 2.218-.553 2.145-.662 8.798-3.381 2.146-1.185 2.217-.938 2.217-1.265 4.22-1.935 6.509-3.38 2.217-1.695 2.217-.894 4.363-2.284h0" clip-path="url(#p63d606729a)" style="fill:none;stroke:#ff7f0e;stroke-width:1.5;stroke-linecap:square"/><path id="line2d_32" d="m135.123 295.585 2.217-4.02 2.146-.146 6.58-.69 10.8-1.04 8.726-.699 24.032-1.76 6.509-.116 4.434-.036 2.003-.378 2.217-.75 4.363-1.024 2.146-.444 4.434-1.178 4.363-2.007 4.363-1.585 2.218-.727 2.002-.822 6.58-2.225 2.146-.509 6.58-1.97 8.798-3.658 4.22-1.861 2.145-.88 2.218-.786 6.58-2.777 8.726-4.363 2.217-.975 2.074-1.047 8.726-5.264 4.435-2.829 2.146-1.105 2.217-1.542 2.145-1.33 2.218-2.342 2.217-3.555 2.003-2.073 2.217-3.032 4.363-4.624 2.146-2.051 2.217-2.516 2.217-2.007 2.146-2.443 2.217-3.25 2.146-2.705 6.437-8.74 2.217-3.89 2.146-2.858 2.217-3.273 4.363-5.926 2.217-3.54 2.146-2.677 2.217-3.272 2.146-3.883 2.217-3.236 2.218-2.741 4.22-5.94 2.145-3.753 2.217-3.388 2.146-2.938 4.435-6.879 2.145-3.134 2.218-4.268 2.145-3.17 2.218-2.676 2.217-3.432 2.074-3.549 2.217-3.221 4.363-7.708 6.58-9.242 4.364-5.846 2.145-2.85 2.217-3.258 2.218-3.636 2.002-2.755 2.218-4.065 6.508-8.442 2.218-2.69 2.217-2.938 2.146-2.444 6.58-8.289 6.437-9.09 2.146-4.384 4.363-5.439 2.217-2.741 6.58-8.77h0" clip-path="url(#p63d606729a)" style="fill:none;stroke:#1f77b4;stroke-width:1.5;stroke-linecap:square"/></g></g><defs><clipPath id="p63d606729a"><path d="M98.073 29.473h357.12v266.112H98.073z"/></clipPath></defs></svg>