<svg xmlns="http://www.w3.org/2000/svg" xmlns:xlink="http://www.w3.org/1999/xlink" width="789.63" height="450.055" viewBox="0 0 592.223 337.541"><defs><style>*{stroke-linejoin:round;stroke-linecap:butt}</style></defs><g id="figure_1"><path id="patch_1" d="M0 337.541h592.223V0H0v337.541z" style="fill:none"/><g id="axes_1"><path id="patch_2" d="M98.073 294.014h357.12V27.902H98.073v266.112z" style="fill:none"/><g id="matplotlib.axis_1"><g id="xtick_1"><g id="line2d_1"><defs><path id="m20837e0c79" d="M0 0v3.5" style="stroke:#b0b0b0;stroke-width:.4"/></defs><use xlink:href="#m20837e0c79" x="100.961" y="294.014" style="fill:#b0b0b0;stroke:#b0b0b0;stroke-width:.4"/></g><g id="text_1" style="fill:#b0b0b0" transform="matrix(.14 0 0 -.14 83.146 311.652)"><defs><path id="DejaVuSans-32" d="M1228 531h2203V0H469v531q359 372 979 998 621 627 780 809 303 340 423 576 121 236 121 464 0 372-261 606-261 235-680 235-297 0-627-103-329-103-704-313v638q381 153 712 231 332 78 607 78 725 0 1156-363 431-362 431-968 0-288-108-546-107-257-392-607-78-91-497-524-418-433-1181-1211z" transform="scale(.01563)"/><path id="DejaVuSans-30" d="M2034 4250q-487 0-733-480-245-479-245-1442 0-959 245-1439 246-480 733-480 491 0 736 480 246 480 246 1439 0 963-246 1442-245 480-736 480zm0 500q785 0 1199-621 414-620 414-1801 0-1178-414-1799Q2819-91 2034-91q-784 0-1198 620-414 621-414 1799 0 1181 414 1801 414 621 1198 621z" transform="scale(.01563)"/><path id="DejaVuSans-31" d="M794 531h1031v3560L703 3866v575l1116 225h631V531h1031V0H794v531z" transform="scale(.01563)"/><path id="DejaVuSans-33" d="M2597 2516q453-97 707-404 255-306 255-756 0-690-475-1069Q2609-91 1734-91q-293 0-604 58T488 141v609q262-153 574-231 313-78 654-78 593 0 904 234t311 681q0 413-289 645-289 233-804 233h-544v519h569q465 0 712 186t247 536q0 359-255 551-254 193-729 193-260 0-557-57-297-56-653-174v562q360 100 674 150t592 50q719 0 1137-327 419-326 419-882 0-388-222-655t-631-370z" transform="scale(.01563)"/></defs><use xlink:href="#DejaVuSans-32"/><use xlink:href="#DejaVuSans-30" x="63.623"/><use xlink:href="#DejaVuSans-31" x="127.246"/><use xlink:href="#DejaVuSans-33" x="190.869"/></g></g><g id="xtick_2"><use xlink:href="#m20837e0c79" id="line2d_2" x="134.959" y="294.014" style="fill:#b0b0b0;stroke:#b0b0b0;stroke-width:.4"/><g id="text_2" style="fill:#b0b0b0" transform="matrix(.14 0 0 -.14 117.144 311.652)"><defs><path id="DejaVuSans-34" d="M2419 4116 825 1625h1594v2491zm-166 550h794V1625h666v-525h-666V0h-628v1100H313v609l1940 2957z" transform="scale(.01563)"/></defs><use xlink:href="#DejaVuSans-32"/><use xlink:href="#DejaVuSans-30" x="63.623"/><use xlink:href="#DejaVuSans-31" x="127.246"/><use xlink:href="#DejaVuSans-34" x="190.869"/></g></g><g id="xtick_3"><use xlink:href="#m20837e0c79" id="line2d_3" x="168.957" y="294.014" style="fill:#b0b0b0;stroke:#b0b0b0;stroke-width:.4"/><g id="text_3" style="fill:#b0b0b0" transform="matrix(.14 0 0 -.14 151.142 311.652)"><defs><path id="DejaVuSans-35" d="M691 4666h2478v-532H1269V2991q137 47 274 70 138 23 276 23 781 0 1237-428 457-428 457-1159 0-753-469-1171Q2575-91 1722-91q-294 0-599 50Q819 9 494 109v635q281-153 581-228t634-75q541 0 856 284 316 284 316 772 0 487-316 771-315 285-856 285-253 0-505-56-251-56-513-175v2344z" transform="scale(.01563)"/></defs><use xlink:href="#DejaVuSans-32"/><use xlink:href="#DejaVuSans-30" x="63.623"/><use xlink:href="#DejaVuSans-31" x="127.246"/><use xlink:href="#DejaVuSans-35" x="190.869"/></g></g><g id="xtick_4"><use xlink:href="#m20837e0c79" id="line2d_4" x="202.955" y="294.014" style="fill:#b0b0b0;stroke:#b0b0b0;stroke-width:.4"/><g id="text_4" style="fill:#b0b0b0" transform="matrix(.14 0 0 -.14 185.14 311.652)"><defs><path id="DejaVuSans-36" d="M2113 2584q-425 0-674-291-248-290-248-796 0-503 248-796 249-292 674-292t673 292q248 293 248 796 0 506-248 796-248 291-673 291zm1253 1979v-575q-238 112-480 171-242 60-480 60-625 0-955-422-329-422-376-1275 184 272 462 417 279 145 613 145 703 0 1111-427 408-426 408-1160 0-719-425-1154Q2819-91 2113-91q-810 0-1238 620-428 621-428 1799 0 1106 525 1764t1409 658q238 0 480-47t505-140z" transform="scale(.01563)"/></defs><use xlink:href="#DejaVuSans-32"/><use xlink:href="#DejaVuSans-30" x="63.623"/><use xlink:href="#DejaVuSans-31" x="127.246"/><use xlink:href="#DejaVuSans-36" x="190.869"/></g></g><g id="xtick_5"><use xlink:href="#m20837e0c79" id="line2d_5" x="237.046" y="294.014" style="fill:#b0b0b0;stroke:#b0b0b0;stroke-width:.4"/><g id="text_5" style="fill:#b0b0b0" transform="matrix(.14 0 0 -.14 219.231 311.652)"><defs><path id="DejaVuSans-37" d="M525 4666h3000v-269L1831 0h-659l1594 4134H525v532z" transform="scale(.01563)"/></defs><use xlink:href="#DejaVuSans-32"/><use xlink:href="#DejaVuSans-30" x="63.623"/><use xlink:href="#DejaVuSans-31" x="127.246"/><use xlink:href="#DejaVuSans-37" x="190.869"/></g></g><g id="xtick_6"><use xlink:href="#m20837e0c79" id="line2d_6" x="271.044" y="294.014" style="fill:#b0b0b0;stroke:#b0b0b0;stroke-width:.4"/><g id="text_6" style="fill:#b0b0b0" transform="matrix(.14 0 0 -.14 253.23 311.652)"><defs><path id="DejaVuSans-38" d="M2034 2216q-450 0-708-241-257-241-257-662 0-422 257-663 258-241 708-241t709 242q260 243 260 662 0 421-258 662-257 241-711 241zm-631 268q-406 100-633 378-226 279-226 679 0 559 398 884 399 325 1092 325 697 0 1094-325t397-884q0-400-227-679-226-278-629-378 456-106 710-416 255-309 255-755 0-679-414-1042Q2806-91 2034-91q-771 0-1186 362-414 363-414 1042 0 446 256 755 257 310 713 416zm-231 997q0-362 226-565 227-203 636-203 407 0 636 203 230 203 230 565 0 363-230 566-229 203-636 203-409 0-636-203-226-203-226-566z" transform="scale(.01563)"/></defs><use xlink:href="#DejaVuSans-32"/><use xlink:href="#DejaVuSans-30" x="63.623"/><use xlink:href="#DejaVuSans-31" x="127.246"/><use xlink:href="#DejaVuSans-38" x="190.869"/></g></g><g id="xtick_7"><use xlink:href="#m20837e0c79" id="line2d_7" x="305.043" y="294.014" style="fill:#b0b0b0;stroke:#b0b0b0;stroke-width:.4"/><g id="text_7" style="fill:#b0b0b0" transform="matrix(.14 0 0 -.14 287.228 311.652)"><defs><path id="DejaVuSans-39" d="M703 97v575q238-113 481-172 244-59 479-59 625 0 954 420 330 420 377 1277-181-269-460-413-278-144-615-144-700 0-1108 423-408 424-408 1159 0 718 425 1152 425 435 1131 435 810 0 1236-621 427-620 427-1801 0-1103-524-1761Q2575-91 1691-91q-238 0-482 47Q966 3 703 97zm1256 1978q425 0 673 290 249 291 249 798 0 503-249 795-248 292-673 292t-673-292q-248-292-248-795 0-507 248-798 248-290 673-290z" transform="scale(.01563)"/></defs><use xlink:href="#DejaVuSans-32"/><use xlink:href="#DejaVuSans-30" x="63.623"/><use xlink:href="#DejaVuSans-31" x="127.246"/><use xlink:href="#DejaVuSans-39" x="190.869"/></g></g><g id="xtick_8"><use xlink:href="#m20837e0c79" id="line2d_8" x="339.041" y="294.014" style="fill:#b0b0b0;stroke:#b0b0b0;stroke-width:.4"/><g id="text_8" style="fill:#b0b0b0" transform="matrix(.14 0 0 -.14 321.226 311.652)"><use xlink:href="#DejaVuSans-32"/><use xlink:href="#DejaVuSans-30" x="63.623"/><use xlink:href="#DejaVuSans-32" x="127.246"/><use xlink:href="#DejaVuSans-30" x="190.869"/></g></g><g id="xtick_9"><use xlink:href="#m20837e0c79" id="line2d_9" x="373.132" y="294.014" style="fill:#b0b0b0;stroke:#b0b0b0;stroke-width:.4"/><g id="text_9" style="fill:#b0b0b0" transform="matrix(.14 0 0 -.14 355.317 311.652)"><use xlink:href="#DejaVuSans-32"/><use xlink:href="#DejaVuSans-30" x="63.623"/><use xlink:href="#DejaVuSans-32" x="127.246"/><use xlink:href="#DejaVuSans-31" x="190.869"/></g></g><g id="xtick_10"><use xlink:href="#m20837e0c79" id="line2d_10" x="407.13" y="294.014" style="fill:#b0b0b0;stroke:#b0b0b0;stroke-width:.4"/><g id="text_10" style="fill:#b0b0b0" transform="matrix(.14 0 0 -.14 389.315 311.652)"><use xlink:href="#DejaVuSans-32"/><use xlink:href="#DejaVuSans-30" x="63.623"/><use xlink:href="#DejaVuSans-32" x="127.246"/><use xlink:href="#DejaVuSans-32" x="190.869"/></g></g><g id="xtick_11"><use xlink:href="#m20837e0c79" id="line2d_11" x="441.128" y="294.014" style="fill:#b0b0b0;stroke:#b0b0b0;stroke-width:.4"/><g id="text_11" style="fill:#b0b0b0" transform="matrix(.14 0 0 -.14 423.313 311.652)"><use xlink:href="#DejaVuSans-32"/><use xlink:href="#DejaVuSans-30" x="63.623"/><use xlink:href="#DejaVuSans-32" x="127.246"/><use xlink:href="#DejaVuSans-33" x="190.869"/></g></g></g><g id="matplotlib.axis_2"><g id="ytick_1"><path id="line2d_12" d="M98.073 294.014h357.12" clip-path="url(#p119e30b79b)" style="fill:none;stroke:#b0b0b0;stroke-width:.3;stroke-linecap:square"/><g id="line2d_13"><defs><path id="m373263eec1" d="M0 0h-3.5" style="stroke:#b0b0b0;stroke-width:.3"/></defs><use xlink:href="#m373263eec1" x="98.073" y="294.014" style="fill:#b0b0b0;stroke:#b0b0b0;stroke-width:.3"/></g><use xlink:href="#DejaVuSans-30" id="text_12" style="fill:#b0b0b0" transform="matrix(.14 0 0 -.14 82.166 299.333)"/></g><g id="ytick_2"><path id="line2d_14" d="M98.073 262.398h357.12" clip-path="url(#p119e30b79b)" style="fill:none;stroke:#b0b0b0;stroke-width:.3;stroke-linecap:square"/><use xlink:href="#m373263eec1" id="line2d_15" x="98.073" y="262.398" style="fill:#b0b0b0;stroke:#b0b0b0;stroke-width:.3"/><g id="text_13" style="fill:#b0b0b0" transform="matrix(.14 0 0 -.14 55.443 267.717)"><use xlink:href="#DejaVuSans-32"/><use xlink:href="#DejaVuSans-30" x="63.623"/><use xlink:href="#DejaVuSans-30" x="127.246"/><use xlink:href="#DejaVuSans-30" x="190.869"/></g></g><g id="ytick_3"><path id="line2d_16" d="M98.073 230.782h357.12" clip-path="url(#p119e30b79b)" style="fill:none;stroke:#b0b0b0;stroke-width:.3;stroke-linecap:square"/><use xlink:href="#m373263eec1" id="line2d_17" x="98.073" y="230.782" style="fill:#b0b0b0;stroke:#b0b0b0;stroke-width:.3"/><g id="text_14" style="fill:#b0b0b0" transform="matrix(.14 0 0 -.14 55.443 236.1)"><use xlink:href="#DejaVuSans-34"/><use xlink:href="#DejaVuSans-30" x="63.623"/><use xlink:href="#DejaVuSans-30" x="127.246"/><use xlink:href="#DejaVuSans-30" x="190.869"/></g></g><g id="ytick_4"><path id="line2d_18" d="M98.073 199.166h357.12" clip-path="url(#p119e30b79b)" style="fill:none;stroke:#b0b0b0;stroke-width:.3;stroke-linecap:square"/><use xlink:href="#m373263eec1" id="line2d_19" x="98.073" y="199.166" style="fill:#b0b0b0;stroke:#b0b0b0;stroke-width:.3"/><g id="text_15" style="fill:#b0b0b0" transform="matrix(.14 0 0 -.14 55.443 204.485)"><use xlink:href="#DejaVuSans-36"/><use xlink:href="#DejaVuSans-30" x="63.623"/><use xlink:href="#DejaVuSans-30" x="127.246"/><use xlink:href="#DejaVuSans-30" x="190.869"/></g></g><g id="ytick_5"><path id="line2d_20" d="M98.073 167.55h357.12" clip-path="url(#p119e30b79b)" style="fill:none;stroke:#b0b0b0;stroke-width:.3;stroke-linecap:square"/><use xlink:href="#m373263eec1" id="line2d_21" x="98.073" y="167.55" style="fill:#b0b0b0;stroke:#b0b0b0;stroke-width:.3"/><g id="text_16" style="fill:#b0b0b0" transform="matrix(.14 0 0 -.14 55.443 172.869)"><use xlink:href="#DejaVuSans-38"/><use xlink:href="#DejaVuSans-30" x="63.623"/><use xlink:href="#DejaVuSans-30" x="127.246"/><use xlink:href="#DejaVuSans-30" x="190.869"/></g></g><g id="ytick_6"><path id="line2d_22" d="M98.073 135.934h357.12" clip-path="url(#p119e30b79b)" style="fill:none;stroke:#b0b0b0;stroke-width:.3;stroke-linecap:square"/><use xlink:href="#m373263eec1" id="line2d_23" x="98.073" y="135.934" style="fill:#b0b0b0;stroke:#b0b0b0;stroke-width:.3"/><g id="text_17" style="fill:#b0b0b0" transform="matrix(.14 0 0 -.14 46.536 141.253)"><use xlink:href="#DejaVuSans-31"/><use xlink:href="#DejaVuSans-30" x="63.623"/><use xlink:href="#DejaVuSans-30" x="127.246"/><use xlink:href="#DejaVuSans-30" x="190.869"/><use xlink:href="#DejaVuSans-30" x="254.492"/></g></g><g id="ytick_7"><path id="line2d_24" d="M98.073 104.318h357.12" clip-path="url(#p119e30b79b)" style="fill:none;stroke:#b0b0b0;stroke-width:.3;stroke-linecap:square"/><use xlink:href="#m373263eec1" id="line2d_25" x="98.073" y="104.318" style="fill:#b0b0b0;stroke:#b0b0b0;stroke-width:.3"/><g id="text_18" style="fill:#b0b0b0" transform="matrix(.14 0 0 -.14 46.536 109.637)"><use xlink:href="#DejaVuSans-31"/><use xlink:href="#DejaVuSans-32" x="63.623"/><use xlink:href="#DejaVuSans-30" x="127.246"/><use xlink:href="#DejaVuSans-30" x="190.869"/><use xlink:href="#DejaVuSans-30" x="254.492"/></g></g><g id="ytick_8"><path id="line2d_26" d="M98.073 72.702h357.12" clip-path="url(#p119e30b79b)" style="fill:none;stroke:#b0b0b0;stroke-width:.3;stroke-linecap:square"/><use xlink:href="#m373263eec1" id="line2d_27" x="98.073" y="72.702" style="fill:#b0b0b0;stroke:#b0b0b0;stroke-width:.3"/><g id="text_19" style="fill:#b0b0b0" transform="matrix(.14 0 0 -.14 46.536 78.02)"><use xlink:href="#DejaVuSans-31"/><use xlink:href="#DejaVuSans-34" x="63.623"/><use xlink:href="#DejaVuSans-30" x="127.246"/><use xlink:href="#DejaVuSans-30" x="190.869"/><use xlink:href="#DejaVuSans-30" x="254.492"/></g></g><g id="ytick_9"><path id="line2d_28" d="M98.073 41.086h357.12" clip-path="url(#p119e30b79b)" style="fill:none;stroke:#b0b0b0;stroke-width:.3;stroke-linecap:square"/><use xlink:href="#m373263eec1" id="line2d_29" x="98.073" y="41.086" style="fill:#b0b0b0;stroke:#b0b0b0;stroke-width:.3"/><g id="text_20" style="fill:#b0b0b0" transform="matrix(.14 0 0 -.14 46.536 46.405)"><use xlink:href="#DejaVuSans-31"/><use xlink:href="#DejaVuSans-36" x="63.623"/><use xlink:href="#DejaVuSans-30" x="127.246"/><use xlink:href="#DejaVuSans-30" x="190.869"/><use xlink:href="#DejaVuSans-30" x="254.492"/></g></g><g id="text_21" style="fill:#b0b0b0" transform="matrix(.14 0 0 -.14 7.2 11.563)"><defs><path id="DejaVuSans-47" d="M3809 666v1253H2778v519h1656V434q-365-259-806-392-440-133-940-133-1094 0-1712 639-617 640-617 1780 0 1144 617 1783 618 639 1712 639 456 0 867-113 411-112 758-331v-672q-350 297-744 447t-828 150q-857 0-1287-478-429-478-429-1425 0-944 429-1422 430-478 1287-478 334 0 596 58 263 58 472 180z" transform="scale(.01563)"/><path id="DejaVuSans-69" d="M603 3500h575V0H603v3500zm0 1363h575v-729H603v729z" transform="scale(.01563)"/><path id="DejaVuSans-74" d="M1172 4494v-994h1184v-447H1172V1153q0-428 117-550t477-122h590V0h-590q-666 0-919 248-253 249-253 905v1900H172v447h422v994h578z" transform="scale(.01563)"/><path id="DejaVuSans-48" d="M628 4666h631V2753h2294v1913h631V0h-631v2222H1259V0H628v4666z" transform="scale(.01563)"/><path id="DejaVuSans-75" d="M544 1381v2119h575V1403q0-497 193-746 194-248 582-248 465 0 735 297 271 297 271 810v1984h575V0h-575v538q-209-319-486-474-276-155-642-155-603 0-916 375-312 375-312 1097zm1447 2203z" transform="scale(.01563)"/><path id="DejaVuSans-62" d="M3116 1747q0 634-261 995t-717 361q-457 0-718-361t-261-995q0-634 261-995t718-361q456 0 717 361t261 995zM1159 2969q182 312 458 463 277 152 661 152 638 0 1036-506 399-506 399-1331T3314 415Q2916-91 2278-91q-384 0-661 152-276 152-458 464V0H581v4863h578V2969z" transform="scale(.01563)"/><path id="DejaVuSans-73" d="M2834 3397v-544q-243 125-506 187-262 63-544 63-428 0-642-131t-214-394q0-200 153-314t616-217l197-44q612-131 870-370t258-667q0-488-386-773Q2250-91 1575-91q-281 0-586 55T347 128v594q319-166 628-249 309-82 613-82 406 0 624 139 219 139 219 392 0 234-158 359-157 125-692 241l-200 47q-534 112-772 345-237 233-237 639 0 494 350 762 350 269 994 269 318 0 599-47 282-46 519-140z" transform="scale(.01563)"/><path id="DejaVuSans-61" d="M2194 1759q-697 0-966-159t-269-544q0-306 202-486 202-179 548-179 479 0 768 339t289 901v128h-572zm1147 238V0h-575v531q-197-318-491-470T1556-91q-537 0-855 302-317 302-317 808 0 590 395 890 396 300 1180 300h807v57q0 397-261 614t-733 217q-300 0-585-72-284-72-546-216v532q315 122 612 182 297 61 578 61 760 0 1135-394 375-393 375-1193z" transform="scale(.01563)"/><path id="DejaVuSans-72" d="M2631 2963q-97 56-211 82-114 27-251 27-488 0-749-317t-261-911V0H581v3500h578v-544q182 319 472 473 291 155 707 155 59 0 131-8 72-7 159-23l3-590z" transform="scale(.01563)"/></defs><use xlink:href="#DejaVuSans-47"/><use xlink:href="#DejaVuSans-69" x="77.49"/><use xlink:href="#DejaVuSans-74" x="105.273"/><use xlink:href="#DejaVuSans-48" x="144.482"/><use xlink:href="#DejaVuSans-75" x="219.678"/><use xlink:href="#DejaVuSans-62" x="283.057"/><use xlink:href="#DejaVuSans-20" x="346.533"/><use xlink:href="#DejaVuSans-73" x="378.32"/><use xlink:href="#DejaVuSans-74" x="430.42"/><use xlink:href="#DejaVuSans-61" x="469.629"/><use xlink:href="#DejaVuSans-72" x="530.908"/><use xlink:href="#DejaVuSans-73" x="572.021"/></g></g><path id="line2d_30" d="m134.959 294.014 2.887-.016 2.608-.016 2.888-.063 2.794-.016 2.888-.047h2.794l2.888-.016 2.887-.047 2.794-.032 2.888-.016 2.794-.126 2.888-.08 2.887-.015h2.608l2.888-.047 2.794-.016 2.888-.064h2.794l2.888-.047 2.887-.016 2.795-.016 2.887-.015 2.794-.095 2.888-.032 2.888-.016 2.7-.015 2.888-.08 2.795-.063 2.887-.016 2.794-.015 2.888-.064 2.888-.063 2.794-.063 2.887-.032h2.795l2.887-.031h2.888l2.608-.11 2.887-.048 2.795-.016 2.887-.063 2.795-.064 2.887-.11 2.888-.032 2.794-.079 2.888-.047 2.794-.048 2.887-.079 2.888-.11 2.608-.016 2.887-.095 2.795-.063 2.887-.111 2.795-.047 2.887-.111 2.888-.206 2.794-.205 2.888-.174 2.794-.11 2.888-.159 2.887-.221 2.608-.158 2.888-.127 2.794-.142 2.887-.19 2.795-.079 2.887-.158 2.888-.174 2.794-.3 2.888-.126 2.794-.143 2.888-.174 2.887-.158 2.701-.173 2.888-.08 2.794-.19 2.888-.205 2.794-.158 2.888-.284 2.887-.253 2.795-.269 2.887-.253 2.794-.3 2.888-.158 2.887-.3 2.608-.19 2.888-.19 2.794-.174 2.888-.206 2.794-.252 2.888-.3 2.887-.175 2.795-.047 2.887-.158 2.795-.142 2.887-.174 2.888-.396 2.608-.158 2.887-.126 2.794-.221 2.888-.19 2.794-.048 2.888-.079 2.887-.079 2.795-.11 2.887-.08 2.795-.3 2.887-.142 2.888-.205 2.608-.095 2.887-.19 2.795-.174 2.887-.158" clip-path="url(#p119e30b79b)" style="fill:none;stroke:#7f7f7f;stroke-width:1.5;stroke-linecap:square"/><path id="line2d_31" d="m410.018 294.014 2.608-1.502 2.887-8.457 2.794-1.976 2.888-.759 2.794-.521 2.888-.538 2.887-.522 2.795-.41 2.887-.538 2.795-.364 2.887-.6 2.888-1.154 2.608-.617 2.887-2.102 2.795-1.897 2.887-.522" clip-path="url(#p119e30b79b)" style="fill:none;stroke:#e377c2;stroke-width:1.5;stroke-linecap:square"/><path id="line2d_32" d="m168.957 294.014 2.887-.047 2.608-.158 2.888-.016h8.476l2.888-.316 2.887-1.613 2.795-.506 2.887-.348 2.794-.173 2.888-.87 2.888-.348 2.7-.174 2.888-.284 2.795-.269 2.887-.142 2.794-.253 2.888-.237 2.888-.19 2.794-.126 2.887-.158 2.795-.111 2.887-.126 2.888-.08 2.608-.205 2.887-.19 2.795-.142 2.887-.19 2.795-.11 2.887-.411 2.888-.127 2.794-.063 2.888-.19 2.794-.253 2.887-.237 2.888-.269 2.608-.284 2.887-.206 2.795-.173 2.887-.222 2.795-.095 2.887-.173 2.888-.19 2.794-.174 2.888-.38 2.794-.252 2.888-.633 2.887-.268 2.608-.206 2.888-.095 2.794-.158 2.887-.126 2.795-.095 2.887-.08 2.888-.663 2.794-.443 2.888-.19 2.794-.158 2.888-.253 2.887-.395 2.701-.221 2.888-.08 2.794-.189 2.888-.174 2.794-.142 2.888-.095 2.887-.158 2.795-.269 2.887-.22 2.794-.301 2.888-.222 2.887-.347 2.608-.27 2.888-.284 2.794-.174 2.888-.252 2.794-.238 2.888-.22 2.887-.206 2.795-.285 2.887-.126 2.795-.206 2.887-.205 2.888-.206 2.608-.19 2.887-.19 2.794-.3 2.888-.426 2.794-.396 2.888-.363 2.887-.316 2.795-.238 2.887-.3 2.795-.363 2.887-.27 2.888-.284 2.608-.363 2.887-.237 2.795-.49 2.887-1.202" clip-path="url(#p119e30b79b)" style="fill:none;stroke:#8c564b;stroke-width:1.5;stroke-linecap:square"/><g id="text_22" style="fill:#1f77b4" transform="matrix(.14 0 0 -.14 465.907 31.765)"><defs><path id="DejaVuSans-70" d="M1159 525v-1856H581v4831h578v-531q182 312 458 463 277 152 661 152 638 0 1036-506 399-506 399-1331T3314 415Q2916-91 2278-91q-384 0-661 152-276 152-458 464zm1957 1222q0 634-261 995t-717 361q-457 0-718-361t-261-995q0-634 261-995t718-361q456 0 717 361t261 995z" transform="scale(.01563)"/><path id="DejaVuSans-79" d="M2059-325q-243-625-475-815-231-191-618-191H506v481h338q237 0 368 113 132 112 291 531l103 262L191 3500h609L1894 763l1094 2737h609L2059-325z" transform="scale(.01563)"/><path id="DejaVuSans-63" d="M3122 3366v-538q-244 135-489 202t-495 67q-560 0-870-355-309-354-309-995t309-996q310-354 870-354 250 0 495 67t489 202V134Q2881 22 2623-34q-257-57-548-57-791 0-1257 497-465 497-465 1341 0 856 470 1346 471 491 1290 491 265 0 518-55 253-54 491-163z" transform="scale(.01563)"/><path id="DejaVuSans-2f" d="M1625 4666h531L531-594H0l1625 5260z" transform="scale(.01563)"/></defs><use xlink:href="#DejaVuSans-70"/><use xlink:href="#DejaVuSans-79" x="63.477"/><use xlink:href="#DejaVuSans-73" x="122.656"/><use xlink:href="#DejaVuSans-63" x="174.756"/><use xlink:href="#DejaVuSans-72" x="229.736"/><use xlink:href="#DejaVuSans-69" x="270.85"/><use xlink:href="#DejaVuSans-70" x="298.633"/><use xlink:href="#DejaVuSans-74" x="362.109"/><use xlink:href="#DejaVuSans-2f" x="401.318"/><use xlink:href="#DejaVuSans-70" x="435.01"/><use xlink:href="#DejaVuSans-79" x="498.486"/><use xlink:href="#DejaVuSans-73" x="557.666"/><use xlink:href="#DejaVuSans-63" x="609.766"/><use xlink:href="#DejaVuSans-72" x="664.746"/><use xlink:href="#DejaVuSans-69" x="705.859"/><use xlink:href="#DejaVuSans-70" x="733.643"/><use xlink:href="#DejaVuSans-74" x="797.119"/></g><g id="text_23" style="fill:#ff7f0e" transform="matrix(.14 0 0 -.14 465.907 94.112)"><defs><path id="DejaVuSans-6e" d="M3513 2113V0h-575v2094q0 497-194 743-194 247-581 247-466 0-735-297-269-296-269-809V0H581v3500h578v-544q207 316 486 472 280 156 646 156 603 0 912-373 310-373 310-1098z" transform="scale(.01563)"/><path id="DejaVuSans-64" d="M2906 2969v1894h575V0h-575v525q-181-312-458-464-276-152-664-152-634 0-1033 506-398 507-398 1332t398 1331q399 506 1033 506 388 0 664-152 277-151 458-463zM947 1747q0-634 261-995t717-361q456 0 718 361 263 361 263 995t-263 995q-262 361-718 361t-717-361q-261-361-261-995z" transform="scale(.01563)"/></defs><use xlink:href="#DejaVuSans-70"/><use xlink:href="#DejaVuSans-79" x="63.477"/><use xlink:href="#DejaVuSans-62" x="122.656"/><use xlink:href="#DejaVuSans-69" x="186.133"/><use xlink:href="#DejaVuSans-6e" x="213.916"/><use xlink:href="#DejaVuSans-64" x="277.295"/><use xlink:href="#DejaVuSans-2f" x="340.771"/><use xlink:href="#DejaVuSans-70" x="374.463"/><use xlink:href="#DejaVuSans-79" x="437.939"/><use xlink:href="#DejaVuSans-62" x="497.119"/><use xlink:href="#DejaVuSans-69" x="560.596"/><use xlink:href="#DejaVuSans-6e" x="588.379"/><use xlink:href="#DejaVuSans-64" x="651.758"/><use xlink:href="#DejaVuSans-31" x="715.234"/><use xlink:href="#DejaVuSans-31" x="778.857"/></g><g id="text_24" style="fill:#2ca02c" transform="matrix(.14 0 0 -.14 465.907 137.347)"><defs><path id="DejaVuSans-6f" d="M1959 3097q-462 0-731-361t-269-989q0-628 267-989 268-361 733-361 460 0 728 362 269 363 269 988 0 622-269 986-268 364-728 364zm0 487q750 0 1178-488 429-487 429-1349 0-859-429-1349Q2709-91 1959-91q-753 0-1180 489-426 490-426 1349 0 862 426 1349 427 488 1180 488z" transform="scale(.01563)"/><path id="DejaVuSans-65" d="M3597 1894v-281H953q38-594 358-905t892-311q331 0 642 81t618 244V178Q3153 47 2828-22t-659-69q-838 0-1327 487-489 488-489 1320 0 859 464 1363 464 505 1252 505 706 0 1117-455 411-454 411-1235zm-575 169q-6 471-264 752-258 282-683 282-481 0-770-272t-333-766l2050 4z" transform="scale(.01563)"/></defs><use xlink:href="#DejaVuSans-70"/><use xlink:href="#DejaVuSans-79" x="63.477"/><use xlink:href="#DejaVuSans-6f" x="122.656"/><use xlink:href="#DejaVuSans-64" x="183.838"/><use xlink:href="#DejaVuSans-69" x="247.314"/><use xlink:href="#DejaVuSans-64" x="275.098"/><use xlink:href="#DejaVuSans-65" x="338.574"/><use xlink:href="#DejaVuSans-2f" x="400.098"/><use xlink:href="#DejaVuSans-70" x="433.789"/><use xlink:href="#DejaVuSans-79" x="497.266"/><use xlink:href="#DejaVuSans-6f" x="556.445"/><use xlink:href="#DejaVuSans-64" x="617.627"/><use xlink:href="#DejaVuSans-69" x="681.104"/><use xlink:href="#DejaVuSans-64" x="708.887"/><use xlink:href="#DejaVuSans-65" x="772.363"/></g><g id="text_25" style="fill:#d62728" transform="matrix(.14 0 0 -.14 465.907 161.201)"><defs><path id="DejaVuSans-50" d="M1259 4147V2394h794q441 0 681 228 241 228 241 650 0 419-241 647-240 228-681 228h-794zm-631 519h1425q785 0 1186-355 402-355 402-1039 0-691-402-1044-401-353-1186-353h-794V0H628v4666z" transform="scale(.01563)"/><path id="DejaVuSans-4f" d="M2522 4238q-688 0-1093-513-404-512-404-1397 0-881 404-1394 405-512 1093-512 687 0 1089 512 402 513 402 1394 0 885-402 1397-402 513-1089 513zm0 512q981 0 1568-658 588-658 588-1764 0-1103-588-1761Q3503-91 2522-91q-984 0-1574 656-589 657-589 1763t589 1764q590 658 1574 658z" transform="scale(.01563)"/></defs><use xlink:href="#DejaVuSans-50"/><use xlink:href="#DejaVuSans-79" x="60.303"/><use xlink:href="#DejaVuSans-4f" x="119.482"/><use xlink:href="#DejaVuSans-33" x="198.193"/><use xlink:href="#DejaVuSans-2f" x="261.816"/><use xlink:href="#DejaVuSans-70" x="295.508"/><use xlink:href="#DejaVuSans-79" x="358.984"/><use xlink:href="#DejaVuSans-6f" x="418.164"/><use xlink:href="#DejaVuSans-33" x="479.346"/></g><g id="text_26" style="fill:#9467bd" transform="matrix(.14 0 0 -.14 465.907 217.778)"><defs><path id="DejaVuSans-77" d="M269 3500h575l719-2731 715 2731h678l719-2731 716 2731h575L4050 0h-678l-753 2869L1863 0h-679L269 3500z" transform="scale(.01563)"/><path id="DejaVuSans-67" d="M2906 1791q0 625-258 968-257 344-723 344-462 0-720-344-258-343-258-968 0-622 258-966t720-344q466 0 723 344 258 344 258 966zm575-1357q0-893-397-1329-396-436-1215-436-303 0-572 45t-522 139v559q253-137 500-202 247-66 503-66 566 0 847 295t281 892v285q-178-310-456-463T1784 0Q1141 0 747 490 353 981 353 1791q0 812 394 1302 394 491 1037 491 388 0 666-153t456-462v531h575V434z" transform="scale(.01563)"/></defs><use xlink:href="#DejaVuSans-73"/><use xlink:href="#DejaVuSans-77" x="52.1"/><use xlink:href="#DejaVuSans-69" x="133.887"/><use xlink:href="#DejaVuSans-67" x="161.67"/><use xlink:href="#DejaVuSans-2f" x="225.146"/><use xlink:href="#DejaVuSans-73" x="258.838"/><use xlink:href="#DejaVuSans-77" x="310.938"/><use xlink:href="#DejaVuSans-69" x="392.725"/><use xlink:href="#DejaVuSans-67" x="420.508"/></g><g id="text_27" style="fill:#8c564b" transform="matrix(.14 0 0 -.14 465.907 263.453)"><defs><path id="DejaVuSans-2d" d="M313 2009h1684v-512H313v512z" transform="scale(.01563)"/><path id="DejaVuSans-68" d="M3513 2113V0h-575v2094q0 497-194 743-194 247-581 247-466 0-735-297-269-296-269-809V0H581v4863h578V2956q207 316 486 472 280 156 646 156 603 0 912-373 310-373 310-1098z" transform="scale(.01563)"/></defs><use xlink:href="#DejaVuSans-67"/><use xlink:href="#DejaVuSans-6f" x="63.477"/><use xlink:href="#DejaVuSans-2d" x="126.533"/><use xlink:href="#DejaVuSans-70" x="162.617"/><use xlink:href="#DejaVuSans-79" x="226.094"/><use xlink:href="#DejaVuSans-74" x="285.273"/><use xlink:href="#DejaVuSans-68" x="324.482"/><use xlink:href="#DejaVuSans-6f" x="387.861"/><use xlink:href="#DejaVuSans-6e" x="449.043"/><use xlink:href="#DejaVuSans-2f" x="512.422"/><use xlink:href="#DejaVuSans-67" x="546.113"/><use xlink:href="#DejaVuSans-6f" x="609.59"/><use xlink:href="#DejaVuSans-70" x="670.771"/><use xlink:href="#DejaVuSans-79" x="734.248"/></g><g id="text_28" style="fill:#e377c2" transform="matrix(.14 0 0 -.14 465.907 277.453)"><defs><path id="DejaVuSans-6a" d="M603 3500h575V-63q0-668-255-968-254-300-820-300h-219v487H38q328 0 446 152Q603-541 603-63v3563zm0 1363h575v-729H603v729z" transform="scale(.01563)"/><path id="DejaVuSans-6b" d="M581 4863h578V1991l1716 1509h734L1753 1863 3688 0h-750L1159 1709V0H581v4863z" transform="scale(.01563)"/></defs><use xlink:href="#DejaVuSans-77"/><use xlink:href="#DejaVuSans-6a" x="81.787"/><use xlink:href="#DejaVuSans-61" x="109.57"/><use xlink:href="#DejaVuSans-6b" x="170.85"/><use xlink:href="#DejaVuSans-6f" x="225.135"/><use xlink:href="#DejaVuSans-62" x="286.316"/><use xlink:href="#DejaVuSans-2f" x="349.793"/><use xlink:href="#DejaVuSans-6e" x="383.484"/><use xlink:href="#DejaVuSans-61" x="446.863"/><use xlink:href="#DejaVuSans-6e" x="508.143"/><use xlink:href="#DejaVuSans-6f" x="571.521"/><use xlink:href="#DejaVuSans-62" x="632.703"/><use xlink:href="#DejaVuSans-69" x="696.18"/><use xlink:href="#DejaVuSans-6e" x="723.963"/><use xlink:href="#DejaVuSans-64" x="787.342"/></g><g id="text_29" style="fill:#7f7f7f" transform="matrix(.14 0 0 -.14 465.907 291.453)"><defs><path id="DejaVuSans-4a" d="M628 4666h631V325q0-844-320-1225T-91-1281h-240v531h197q418 0 590 235 172 234 172 840v4341z" transform="scale(.01563)"/><path id="DejaVuSans-6c" d="M603 4863h575V0H603v4863z" transform="scale(.01563)"/></defs><use xlink:href="#DejaVuSans-4a"/><use xlink:href="#DejaVuSans-75" x="29.492"/><use xlink:href="#DejaVuSans-6c" x="92.871"/><use xlink:href="#DejaVuSans-69" x="120.654"/><use xlink:href="#DejaVuSans-61" x="148.438"/><use xlink:href="#DejaVuSans-50" x="209.717"/><use xlink:href="#DejaVuSans-79" x="270.02"/><use xlink:href="#DejaVuSans-2f" x="329.199"/><use xlink:href="#DejaVuSans-70" x="362.891"/><use xlink:href="#DejaVuSans-79" x="426.367"/><use xlink:href="#DejaVuSans-6a" x="485.547"/><use xlink:href="#DejaVuSans-75" x="513.33"/><use xlink:href="#DejaVuSans-6c" x="576.709"/><use xlink:href="#DejaVuSans-69" x="604.492"/><use xlink:href="#DejaVuSans-61" x="632.275"/></g><g id="text_30" style="fill:#b0b0b0" transform="matrix(.09716 0 0 -.09716 98.073 328.05)"><defs><path id="DejaVuSans-40" d="M2381 1678q0-447 222-702 222-254 610-254 384 0 604 256 221 256 221 700 0 438-225 695-225 258-607 258-378 0-602-256-223-256-223-697zm1703-934q-187-241-429-355t-564-114q-538 0-874 389t-336 1014q0 625 337 1015 338 391 873 391 322 0 565-117 244-117 428-354v409h447V722q457 69 714 417 258 349 258 902 0 334-99 628-98 294-298 544-325 409-792 626t-1017 217q-384 0-738-102-353-101-653-301-490-319-767-836-276-517-276-1120 0-497 179-932 180-434 521-765 328-325 759-495 431-171 922-171 403 0 792 136t714 389l281-347q-390-303-851-464t-936-161q-578 0-1091 205-512 205-912 595Q841 78 631 592q-209 514-209 1105 0 569 212 1084 213 516 607 907 403 396 931 607t1119 211q662 0 1229-272 568-271 952-771 234-307 357-666 124-359 124-744 0-822-497-1297T4084 263v481z" transform="scale(.01563)"/><path id="DejaVuSans-7c" d="M1344 4891v-6400H813v6400h531z" transform="scale(.01563)"/><path id="DejaVuSans-4e" d="M628 4666h850L3547 763v3903h612V0h-850L1241 3903V0H628v4666z" transform="scale(.01563)"/><path id="DejaVuSans-53" d="M3425 4513v-616q-359 172-678 256-319 85-616 85-515 0-795-200t-280-569q0-310 186-468 186-157 705-254l381-78q706-135 1042-474t336-907q0-679-455-1029Q2797-91 1919-91q-331 0-705 75-373 75-773 222v650q384-215 753-325 369-109 725-109 540 0 834 212 294 213 294 607 0 343-211 537t-692 291l-385 75q-706 140-1022 440-315 300-315 835 0 619 436 975t1201 356q329 0 669-60 341-59 697-177z" transform="scale(.01563)"/><path id="DejaVuSans-f6" d="M1959 3097q-462 0-731-361t-269-989q0-628 267-989 268-361 733-361 460 0 728 362 269 363 269 988 0 622-269 986-268 364-728 364zm0 487q750 0 1178-488 429-487 429-1349 0-859-429-1349Q2709-91 1959-91q-753 0-1180 489-426 490-426 1349 0 862 426 1349 427 488 1180 488zm295 1266h634v-631h-634v631zm-1222 0h634v-631h-634v631z" transform="scale(.01563)"/><path id="DejaVuSans-6d" d="M3328 2828q216 388 516 572t706 184q547 0 844-383 297-382 297-1088V0h-578v2094q0 503-179 746-178 244-543 244-447 0-707-297-259-296-259-809V0h-578v2094q0 506-178 748t-550 242q-441 0-701-298-259-298-259-808V0H581v3500h578v-544q197 322 472 475t653 153q382 0 649-194 267-193 395-562z" transform="scale(.01563)"/><path id="DejaVuSans-43" d="M4122 4306v-665q-319 297-680 443-361 147-767 147-800 0-1225-489t-425-1414q0-922 425-1411t1225-489q406 0 767 147t680 444V359q-331-225-702-338-370-112-782-112-1060 0-1670 648-609 649-609 1771 0 1125 609 1773 610 649 1670 649 418 0 788-111 371-111 696-333z" transform="scale(.01563)"/><path id="DejaVuSans-42" d="M1259 2228V519h1013q509 0 754 211 246 211 246 645 0 438-246 645-245 208-754 208H1259zm0 1919V2741h935q462 0 688 173 227 174 227 530 0 353-227 528-226 175-688 175h-935zm-631 519h1613q722 0 1112-300 391-300 391-853 0-429-200-682t-588-315q466-100 724-418 258-317 258-792 0-625-425-966Q3088 0 2303 0H628v4666z" transform="scale(.01563)"/><path id="DejaVuSans-59" d="M-13 4666h679l1293-1919 1285 1919h678L2272 2222V0h-634v2222L-13 4666z" transform="scale(.01563)"/></defs><use xlink:href="#DejaVuSans-40"/><use xlink:href="#DejaVuSans-6e" x="100"/><use xlink:href="#DejaVuSans-73" x="163.379"/><use xlink:href="#DejaVuSans-63" x="215.479"/><use xlink:href="#DejaVuSans-68" x="270.459"/><use xlink:href="#DejaVuSans-6c" x="333.838"/><use xlink:href="#DejaVuSans-6f" x="361.621"/><use xlink:href="#DejaVuSans-65" x="422.803"/><use xlink:href="#DejaVuSans-20" x="484.326"/><use xlink:href="#DejaVuSans-2f" x="516.113"/><use xlink:href="#DejaVuSans-20" x="549.805"/><use xlink:href="#DejaVuSans-67" x="581.592"/><use xlink:href="#DejaVuSans-69" x="645.068"/><use xlink:href="#DejaVuSans-74" x="672.852"/><use xlink:href="#DejaVuSans-68" x="712.061"/><use xlink:href="#DejaVuSans-75" x="775.439"/><use xlink:href="#DejaVuSans-62" x="838.818"/><use xlink:href="#DejaVuSans-2d" x="902.295"/><use xlink:href="#DejaVuSans-74" x="938.379"/><use xlink:href="#DejaVuSans-72" x="977.588"/><use xlink:href="#DejaVuSans-65" x="1016.451"/><use xlink:href="#DejaVuSans-6e" x="1077.975"/><use xlink:href="#DejaVuSans-64" x="1141.354"/><use xlink:href="#DejaVuSans-73" x="1204.83"/><use xlink:href="#DejaVuSans-20" x="1256.93"/><use xlink:href="#DejaVuSans-7c" x="1288.717"/><use xlink:href="#DejaVuSans-20" x="1322.408"/><use xlink:href="#DejaVuSans-4e" x="1354.195"/><use xlink:href="#DejaVuSans-69" x="1429"/><use xlink:href="#DejaVuSans-63" x="1456.783"/><use xlink:href="#DejaVuSans-6f" x="1511.764"/><use xlink:href="#DejaVuSans-20" x="1572.945"/><use xlink:href="#DejaVuSans-53" x="1604.732"/><use xlink:href="#DejaVuSans-63" x="1668.209"/><use xlink:href="#DejaVuSans-68" x="1723.189"/><use xlink:href="#DejaVuSans-6c" x="1786.568"/><use xlink:href="#DejaVuSans-f6" x="1814.352"/><use xlink:href="#DejaVuSans-6d" x="1875.533"/><use xlink:href="#DejaVuSans-65" x="1972.945"/><use xlink:href="#DejaVuSans-72" x="2034.469"/><use xlink:href="#DejaVuSans-20" x="2075.582"/><use xlink:href="#DejaVuSans-7c" x="2107.369"/><use xlink:href="#DejaVuSans-20" x="2141.061"/><use xlink:href="#DejaVuSans-43" x="2172.848"/><use xlink:href="#DejaVuSans-43" x="2242.672"/><use xlink:href="#DejaVuSans-20" x="2312.496"/><use xlink:href="#DejaVuSans-42" x="2344.283"/><use xlink:href="#DejaVuSans-59" x="2407.387"/></g><path id="line2d_33" d="m98.073 294.014 2.888-.474 2.887-.016 2.608-.221 2.888-.538 2.794-.395 2.888-.285 2.794-.11 2.887-.237 2.888-.206 2.794-.142 2.888-.237 2.794-.11 2.888-.175 2.887-.19 2.608-.142 2.888-.126 2.794-.11 2.888-.096 2.794-.142 2.888-.205 2.887-.238 2.794-.363 2.888-.443 2.794-.506 2.888-.332 2.887-.6 2.608-.364 2.888-.522 2.794-.49 2.888-.347 2.794-.38 2.888-.506 2.887-.569 2.795-.506 2.887-.49 2.794-.6 2.888-.664 2.888-.459 2.7-.569 2.888-.38 2.795-.71 2.887-.57 2.794-.806 2.888-.537 2.888-.712 2.794-.632 2.887-.553 2.795-.57 2.887-.584 2.888-.76 2.608-.552 2.887-.98 2.795-.633 2.887-.632 2.795-.6 2.887-.95 2.888-.9 2.794-.87 2.888-.774 2.794-1.044 2.887-.853 2.888-.965 2.608-.711 2.887-1.043 2.795-1.012 2.887-1.028 2.795-.822 2.887-.553 2.888-.458 2.794-.79 2.888-.823 2.794-.711 2.888-.996 2.887-1.438 2.608-.854 2.888-.901 2.794-1.043 2.887-1.186 2.795-.617 2.887-.822 2.888-1.17 2.794-.68 2.888-.869 2.794-.774 2.888-.585 2.887-.696 2.701-.87 2.888-.695 2.794-.932 2.888-.965 2.794-.68 2.888-.584 2.887-.554 2.795-.537 2.887-.711 2.794-.49 2.888-.728 2.887-.695 2.608-.79 2.888-.775 2.794-1.296 2.888-.633 2.794-.68 2.888-.758 2.887-.585 2.795-.68 2.887-.664 2.795-.695 2.887-.949 2.888-.79 2.608-.474 2.887-.712 2.794-.774 2.888-.712 2.794-.68 2.888-.98 2.887-.505 2.795-.79 2.887-.791 2.795-.712 2.887-1.106 2.888-.759 2.608-.996 2.887-1.012 2.795-.553 2.887-.553" clip-path="url(#p119e30b79b)" style="fill:none;stroke:#9467bd;stroke-width:1.5;stroke-linecap:square"/><path id="line2d_34" d="m248.224 294.014 2.887-.332 2.795-.19 2.887-4.426 2.888-.648 2.794-.3 2.888-.317 2.794-1.248 2.887-.396 2.888-.569 2.608-.695 2.887-.743 2.795-.427 2.887-.49 2.795-.711 2.887-.696 2.888-.68 2.794-.838 2.888-.648 2.794-.758 2.888-1.218 2.887-.79 2.608-.68 2.888-.87 2.794-1.122 2.887-.87 2.795-.821 2.887-1.265 2.888-1.644 2.794-.9 2.888-1.534 2.794-.917 2.888-2.087 2.887-1.802 2.701-1.249 2.888-1.296 2.794-1.517 2.888-1.755 2.794-3.146 2.888-1.612 2.887-1.613 2.795-1.343 2.887-1.186 2.794-1.834 2.888-2.039 2.887-6.086 2.608-2.893 2.888-1.802 2.794-2.087 2.888-2.403 2.794-1.343 2.888-1.486 2.887-1.644 2.795-1.787 2.887-1.991 2.795-3.873 2.887-2.609 2.888-2.37 2.608-2.372 2.887-2.419 2.794-1.944 2.888-2.719 2.794-2.434 2.888-3.225 2.887-3.257 2.795-2.703 2.887-3.193 2.795-3.114 2.887-3.146 2.888-4.727 2.608-5.28 2.887-4.758 2.795-3.651 2.887-5.138" clip-path="url(#p119e30b79b)" style="fill:none;stroke:#d62728;stroke-width:1.5;stroke-linecap:square"/><path id="line2d_35" d="m276.54 294.014 2.887-.032 2.795-.3 2.887-.11 2.795-.601 2.887-.57 2.888-8.204 2.794-1.675 2.888-1.28 2.794-.918 2.888-.664 2.887-.6 2.608-.696 2.888-2.64 2.794-15.207 2.887-3.446 2.795-1.518 2.887-2.087 2.888-1.327 2.794-1.012 2.888-1.454 2.794-2.071 2.888-3.035 2.887-2.42 2.701-1.327 2.888-1.265 2.794-1.675 2.888-1.976 2.794-1.36 2.888-2.197 2.887-1.344 2.795-1.296 2.887-1.913 2.794-1.612 2.888-1.929 2.887-2.482 2.608-1.912 2.888-2.087 2.794-3.984 2.888-11.128 2.794-3.747 2.888-2.814 2.887-2.545 2.795-1.58 2.887-3.146 2.795-2.91 2.887-3.098 2.888-3.161 2.608-2.292 2.887-2.308 2.794-2.53 2.888-14.274 2.794-2.672 2.888-1.77 2.887-1.676 2.795-2.087 2.887-1.58 2.795-1.881 2.887-1.66 2.888-1.897 2.608-1.976 2.887-2.624 2.795-2.767 2.887-2.181" clip-path="url(#p119e30b79b)" style="fill:none;stroke:#2ca02c;stroke-width:1.5;stroke-linecap:square"/><path id="line2d_36" d="m185.816 294.014 2.888-.016 2.887-.079 2.795-.047 2.887-.538 2.794-.49 2.888-10.812 2.888-.696 2.7-.632 2.888-.332 2.795-3.004 2.887-2.292 2.794-.616 2.888-.601 2.888-.79 2.794-.49 2.887-.76 2.795-1.138 2.887-1.075 2.888-.869 2.608-1.09 2.887-1.25 2.795-.916 2.887-1.17 2.795-.885 2.887-1.407 2.888-5.691 2.794-1.834 2.888-1.186 2.794-1.58 2.887-1.518 2.888-1.612 2.608-1.77 2.887-1.724 2.795-1.438 2.887-1.645 2.795-1.596 2.887-2.04 2.888-2.339 2.794-2.34 2.888-1.754 2.794-2.292 2.888-1.803 2.887-2.323 2.608-1.897 2.888-3.684 2.794-2.56 2.887-2.214 2.795-2.165 2.887-2.292 2.888-2.767 2.794-3.857 2.888-2.75 2.794-2.735 2.888-2.64 2.887-2.198 2.701-2.086 2.888-2.324 2.794-3.541 2.888-2.482 2.794-2.766 2.888-2.514 2.887-4.426 2.795-2.703 2.887-2.656 2.794-2.118 2.888-2.182 2.887-2.418 2.608-1.992 2.888-3.004 2.794-2.687 2.888-2.245 2.794-2.308 2.888-2.403 2.887-2.418 2.795-2.466 2.887-2.577 2.795-2.513 2.887-2.293 2.888-2.323 2.608-4.016 2.887-2.45 2.794-2.798 2.888-2.197 2.794-2.672 2.888-2.355 2.887-2.703 2.795-2.356 2.887-2.292 2.795-2.371 2.887-2.008 2.888-1.991 2.608-2.277 2.887-3.161 2.795-2.545 2.887-3.89" clip-path="url(#p119e30b79b)" style="fill:none;stroke:#ff7f0e;stroke-width:1.5;stroke-linecap:square"/><path id="line2d_37" d="m415.513 294.014 2.794-4.837 2.888-180.97 2.794-23.365 2.888-9.073 2.887-5.897 2.795-3.841 2.887-3.952 2.795-3.778 2.887-4.142 2.888-2.687 2.608-3.035 2.887-3.225 2.795-13.484 2.887-3.826" clip-path="url(#p119e30b79b)" style="fill:none;stroke:#1f77b4;stroke-width:1.5;stroke-linecap:square"/></g></g><defs><clipPath id="p119e30b79b"><path d="M98.073 27.902h357.12v266.112H98.073z"/></clipPath></defs></svg>