<svg xmlns="http://www.w3.org/2000/svg" xmlns:xlink="http://www.w3.org/1999/xlink" width="841.025" height="448.15" viewBox="0 0 630.769 336.113"><defs><style>*{stroke-linejoin:round;stroke-linecap:butt}</style></defs><g id="figure_1"><path id="patch_1" d="M0 336.113h630.769V0H0v336.113z" style="fill:none"/><g id="axes_1"><path id="patch_2" d="M98.073 280.087h357.12V13.975H98.073v266.112z" style="fill:none"/><g id="matplotlib.axis_1"><g id="xtick_1"><g id="line2d_1"><defs><path id="mbc2bd05ba7" d="M0 0v3.5" style="stroke:#b0b0b0;stroke-width:.4"/></defs><use xlink:href="#mbc2bd05ba7" x="109.222" y="280.087" style="fill:#b0b0b0;stroke:#b0b0b0;stroke-width:.4"/></g><g id="text_1" style="fill:#b0b0b0" transform="matrix(.14 0 0 -.14 91.407 297.724)"><defs><path id="DejaVuSans-32" d="M1228 531h2203V0H469v531q359 372 979 998 621 627 780 809 303 340 423 576 121 236 121 464 0 372-261 606-261 235-680 235-297 0-627-103-329-103-704-313v638q381 153 712 231 332 78 607 78 725 0 1156-363 431-362 431-968 0-288-108-546-107-257-392-607-78-91-497-524-418-433-1181-1211z" transform="scale(.01563)"/><path id="DejaVuSans-30" d="M2034 4250q-487 0-733-480-245-479-245-1442 0-959 245-1439 246-480 733-480 491 0 736 480 246 480 246 1439 0 963-246 1442-245 480-736 480zm0 500q785 0 1199-621 414-620 414-1801 0-1178-414-1799Q2819-91 2034-91q-784 0-1198 620-414 621-414 1799 0 1181 414 1801 414 621 1198 621z" transform="scale(.01563)"/><path id="DejaVuSans-31" d="M794 531h1031v3560L703 3866v575l1116 225h631V531h1031V0H794v531z" transform="scale(.01563)"/></defs><use xlink:href="#DejaVuSans-32"/><use xlink:href="#DejaVuSans-30" x="63.623"/><use xlink:href="#DejaVuSans-31" x="127.246"/><use xlink:href="#DejaVuSans-30" x="190.869"/></g></g><g id="xtick_2"><use xlink:href="#mbc2bd05ba7" id="line2d_2" x="162.414" y="280.087" style="fill:#b0b0b0;stroke:#b0b0b0;stroke-width:.4"/><g id="text_2" style="fill:#b0b0b0" transform="matrix(.14 0 0 -.14 144.6 297.724)"><use xlink:href="#DejaVuSans-32"/><use xlink:href="#DejaVuSans-30" x="63.623"/><use xlink:href="#DejaVuSans-31" x="127.246"/><use xlink:href="#DejaVuSans-32" x="190.869"/></g></g><g id="xtick_3"><use xlink:href="#mbc2bd05ba7" id="line2d_3" x="215.68" y="280.087" style="fill:#b0b0b0;stroke:#b0b0b0;stroke-width:.4"/><g id="text_3" style="fill:#b0b0b0" transform="matrix(.14 0 0 -.14 197.865 297.724)"><defs><path id="DejaVuSans-34" d="M2419 4116 825 1625h1594v2491zm-166 550h794V1625h666v-525h-666V0h-628v1100H313v609l1940 2957z" transform="scale(.01563)"/></defs><use xlink:href="#DejaVuSans-32"/><use xlink:href="#DejaVuSans-30" x="63.623"/><use xlink:href="#DejaVuSans-31" x="127.246"/><use xlink:href="#DejaVuSans-34" x="190.869"/></g></g><g id="xtick_4"><use xlink:href="#mbc2bd05ba7" id="line2d_4" x="268.873" y="280.087" style="fill:#b0b0b0;stroke:#b0b0b0;stroke-width:.4"/><g id="text_4" style="fill:#b0b0b0" transform="matrix(.14 0 0 -.14 251.058 297.724)"><defs><path id="DejaVuSans-36" d="M2113 2584q-425 0-674-291-248-290-248-796 0-503 248-796 249-292 674-292t673 292q248 293 248 796 0 506-248 796-248 291-673 291zm1253 1979v-575q-238 112-480 171-242 60-480 60-625 0-955-422-329-422-376-1275 184 272 462 417 279 145 613 145 703 0 1111-427 408-426 408-1160 0-719-425-1154Q2819-91 2113-91q-810 0-1238 620-428 621-428 1799 0 1106 525 1764t1409 658q238 0 480-47t505-140z" transform="scale(.01563)"/></defs><use xlink:href="#DejaVuSans-32"/><use xlink:href="#DejaVuSans-30" x="63.623"/><use xlink:href="#DejaVuSans-31" x="127.246"/><use xlink:href="#DejaVuSans-36" x="190.869"/></g></g><g id="xtick_5"><use xlink:href="#mbc2bd05ba7" id="line2d_5" x="322.138" y="280.087" style="fill:#b0b0b0;stroke:#b0b0b0;stroke-width:.4"/><g id="text_5" style="fill:#b0b0b0" transform="matrix(.14 0 0 -.14 304.323 297.724)"><defs><path id="DejaVuSans-38" d="M2034 2216q-450 0-708-241-257-241-257-662 0-422 257-663 258-241 708-241t709 242q260 243 260 662 0 421-258 662-257 241-711 241zm-631 268q-406 100-633 378-226 279-226 679 0 559 398 884 399 325 1092 325 697 0 1094-325t397-884q0-400-227-679-226-278-629-378 456-106 710-416 255-309 255-755 0-679-414-1042Q2806-91 2034-91q-771 0-1186 362-414 363-414 1042 0 446 256 755 257 310 713 416zm-231 997q0-362 226-565 227-203 636-203 407 0 636 203 230 203 230 565 0 363-230 566-229 203-636 203-409 0-636-203-226-203-226-566z" transform="scale(.01563)"/></defs><use xlink:href="#DejaVuSans-32"/><use xlink:href="#DejaVuSans-30" x="63.623"/><use xlink:href="#DejaVuSans-31" x="127.246"/><use xlink:href="#DejaVuSans-38" x="190.869"/></g></g><g id="xtick_6"><use xlink:href="#mbc2bd05ba7" id="line2d_6" x="375.331" y="280.087" style="fill:#b0b0b0;stroke:#b0b0b0;stroke-width:.4"/><g id="text_6" style="fill:#b0b0b0" transform="matrix(.14 0 0 -.14 357.516 297.724)"><use xlink:href="#DejaVuSans-32"/><use xlink:href="#DejaVuSans-30" x="63.623"/><use xlink:href="#DejaVuSans-32" x="127.246"/><use xlink:href="#DejaVuSans-30" x="190.869"/></g></g><g id="xtick_7"><use xlink:href="#mbc2bd05ba7" id="line2d_7" x="428.597" y="280.087" style="fill:#b0b0b0;stroke:#b0b0b0;stroke-width:.4"/><g id="text_7" style="fill:#b0b0b0" transform="matrix(.14 0 0 -.14 410.782 297.724)"><use xlink:href="#DejaVuSans-32"/><use xlink:href="#DejaVuSans-30" x="63.623"/><use xlink:href="#DejaVuSans-32" x="127.246"/><use xlink:href="#DejaVuSans-32" x="190.869"/></g></g></g><g id="matplotlib.axis_2"><g id="ytick_1"><path id="line2d_8" d="M98.073 280.087h357.12" clip-path="url(#paa513e47dc)" style="fill:none;stroke:#b0b0b0;stroke-width:.3;stroke-linecap:square"/><g id="line2d_9"><defs><path id="mfdbce1cd1c" d="M0 0h-3.5" style="stroke:#b0b0b0;stroke-width:.3"/></defs><use xlink:href="#mfdbce1cd1c" x="98.073" y="280.087" style="fill:#b0b0b0;stroke:#b0b0b0;stroke-width:.3"/></g><use xlink:href="#DejaVuSans-30" id="text_8" style="fill:#b0b0b0" transform="matrix(.14 0 0 -.14 82.166 285.406)"/></g><g id="ytick_2"><path id="line2d_10" d="M98.073 246.236h357.12" clip-path="url(#paa513e47dc)" style="fill:none;stroke:#b0b0b0;stroke-width:.3;stroke-linecap:square"/><use xlink:href="#mfdbce1cd1c" id="line2d_11" x="98.073" y="246.236" style="fill:#b0b0b0;stroke:#b0b0b0;stroke-width:.3"/><g id="text_9" style="fill:#b0b0b0" transform="matrix(.14 0 0 -.14 46.536 251.555)"><use xlink:href="#DejaVuSans-32"/><use xlink:href="#DejaVuSans-30" x="63.623"/><use xlink:href="#DejaVuSans-30" x="127.246"/><use xlink:href="#DejaVuSans-30" x="190.869"/><use xlink:href="#DejaVuSans-30" x="254.492"/></g></g><g id="ytick_3"><path id="line2d_12" d="M98.073 212.385h357.12" clip-path="url(#paa513e47dc)" style="fill:none;stroke:#b0b0b0;stroke-width:.3;stroke-linecap:square"/><use xlink:href="#mfdbce1cd1c" id="line2d_13" x="98.073" y="212.385" style="fill:#b0b0b0;stroke:#b0b0b0;stroke-width:.3"/><g id="text_10" style="fill:#b0b0b0" transform="matrix(.14 0 0 -.14 46.536 217.704)"><use xlink:href="#DejaVuSans-34"/><use xlink:href="#DejaVuSans-30" x="63.623"/><use xlink:href="#DejaVuSans-30" x="127.246"/><use xlink:href="#DejaVuSans-30" x="190.869"/><use xlink:href="#DejaVuSans-30" x="254.492"/></g></g><g id="ytick_4"><path id="line2d_14" d="M98.073 178.534h357.12" clip-path="url(#paa513e47dc)" style="fill:none;stroke:#b0b0b0;stroke-width:.3;stroke-linecap:square"/><use xlink:href="#mfdbce1cd1c" id="line2d_15" x="98.073" y="178.534" style="fill:#b0b0b0;stroke:#b0b0b0;stroke-width:.3"/><g id="text_11" style="fill:#b0b0b0" transform="matrix(.14 0 0 -.14 46.536 183.853)"><use xlink:href="#DejaVuSans-36"/><use xlink:href="#DejaVuSans-30" x="63.623"/><use xlink:href="#DejaVuSans-30" x="127.246"/><use xlink:href="#DejaVuSans-30" x="190.869"/><use xlink:href="#DejaVuSans-30" x="254.492"/></g></g><g id="ytick_5"><path id="line2d_16" d="M98.073 144.683h357.12" clip-path="url(#paa513e47dc)" style="fill:none;stroke:#b0b0b0;stroke-width:.3;stroke-linecap:square"/><use xlink:href="#mfdbce1cd1c" id="line2d_17" x="98.073" y="144.683" style="fill:#b0b0b0;stroke:#b0b0b0;stroke-width:.3"/><g id="text_12" style="fill:#b0b0b0" transform="matrix(.14 0 0 -.14 46.536 150.002)"><use xlink:href="#DejaVuSans-38"/><use xlink:href="#DejaVuSans-30" x="63.623"/><use xlink:href="#DejaVuSans-30" x="127.246"/><use xlink:href="#DejaVuSans-30" x="190.869"/><use xlink:href="#DejaVuSans-30" x="254.492"/></g></g><g id="ytick_6"><path id="line2d_18" d="M98.073 110.832h357.12" clip-path="url(#paa513e47dc)" style="fill:none;stroke:#b0b0b0;stroke-width:.3;stroke-linecap:square"/><use xlink:href="#mfdbce1cd1c" id="line2d_19" x="98.073" y="110.832" style="fill:#b0b0b0;stroke:#b0b0b0;stroke-width:.3"/><g id="text_13" style="fill:#b0b0b0" transform="matrix(.14 0 0 -.14 37.628 116.151)"><use xlink:href="#DejaVuSans-31"/><use xlink:href="#DejaVuSans-30" x="63.623"/><use xlink:href="#DejaVuSans-30" x="127.246"/><use xlink:href="#DejaVuSans-30" x="190.869"/><use xlink:href="#DejaVuSans-30" x="254.492"/><use xlink:href="#DejaVuSans-30" x="318.115"/></g></g><g id="ytick_7"><path id="line2d_20" d="M98.073 76.981h357.12" clip-path="url(#paa513e47dc)" style="fill:none;stroke:#b0b0b0;stroke-width:.3;stroke-linecap:square"/><use xlink:href="#mfdbce1cd1c" id="line2d_21" x="98.073" y="76.981" style="fill:#b0b0b0;stroke:#b0b0b0;stroke-width:.3"/><g id="text_14" style="fill:#b0b0b0" transform="matrix(.14 0 0 -.14 37.628 82.3)"><use xlink:href="#DejaVuSans-31"/><use xlink:href="#DejaVuSans-32" x="63.623"/><use xlink:href="#DejaVuSans-30" x="127.246"/><use xlink:href="#DejaVuSans-30" x="190.869"/><use xlink:href="#DejaVuSans-30" x="254.492"/><use xlink:href="#DejaVuSans-30" x="318.115"/></g></g><g id="ytick_8"><path id="line2d_22" d="M98.073 43.13h357.12" clip-path="url(#paa513e47dc)" style="fill:none;stroke:#b0b0b0;stroke-width:.3;stroke-linecap:square"/><use xlink:href="#mfdbce1cd1c" id="line2d_23" x="98.073" y="43.13" style="fill:#b0b0b0;stroke:#b0b0b0;stroke-width:.3"/><g id="text_15" style="fill:#b0b0b0" transform="matrix(.14 0 0 -.14 37.628 48.45)"><use xlink:href="#DejaVuSans-31"/><use xlink:href="#DejaVuSans-34" x="63.623"/><use xlink:href="#DejaVuSans-30" x="127.246"/><use xlink:href="#DejaVuSans-30" x="190.869"/><use xlink:href="#DejaVuSans-30" x="254.492"/><use xlink:href="#DejaVuSans-30" x="318.115"/></g></g><g id="text_16" style="fill:#b0b0b0" transform="matrix(.14 0 0 -.14 7.2 13.608)"><defs><path id="DejaVuSans-47" d="M3809 666v1253H2778v519h1656V434q-365-259-806-392-440-133-940-133-1094 0-1712 639-617 640-617 1780 0 1144 617 1783 618 639 1712 639 456 0 867-113 411-112 758-331v-672q-350 297-744 447t-828 150q-857 0-1287-478-429-478-429-1425 0-944 429-1422 430-478 1287-478 334 0 596 58 263 58 472 180z" transform="scale(.01563)"/><path id="DejaVuSans-69" d="M603 3500h575V0H603v3500zm0 1363h575v-729H603v729z" transform="scale(.01563)"/><path id="DejaVuSans-74" d="M1172 4494v-994h1184v-447H1172V1153q0-428 117-550t477-122h590V0h-590q-666 0-919 248-253 249-253 905v1900H172v447h422v994h578z" transform="scale(.01563)"/><path id="DejaVuSans-48" d="M628 4666h631V2753h2294v1913h631V0h-631v2222H1259V0H628v4666z" transform="scale(.01563)"/><path id="DejaVuSans-75" d="M544 1381v2119h575V1403q0-497 193-746 194-248 582-248 465 0 735 297 271 297 271 810v1984h575V0h-575v538q-209-319-486-474-276-155-642-155-603 0-916 375-312 375-312 1097zm1447 2203z" transform="scale(.01563)"/><path id="DejaVuSans-62" d="M3116 1747q0 634-261 995t-717 361q-457 0-718-361t-261-995q0-634 261-995t718-361q456 0 717 361t261 995zM1159 2969q182 312 458 463 277 152 661 152 638 0 1036-506 399-506 399-1331T3314 415Q2916-91 2278-91q-384 0-661 152-276 152-458 464V0H581v4863h578V2969z" transform="scale(.01563)"/><path id="DejaVuSans-73" d="M2834 3397v-544q-243 125-506 187-262 63-544 63-428 0-642-131t-214-394q0-200 153-314t616-217l197-44q612-131 870-370t258-667q0-488-386-773Q2250-91 1575-91q-281 0-586 55T347 128v594q319-166 628-249 309-82 613-82 406 0 624 139 219 139 219 392 0 234-158 359-157 125-692 241l-200 47q-534 112-772 345-237 233-237 639 0 494 350 762 350 269 994 269 318 0 599-47 282-46 519-140z" transform="scale(.01563)"/><path id="DejaVuSans-61" d="M2194 1759q-697 0-966-159t-269-544q0-306 202-486 202-179 548-179 479 0 768 339t289 901v128h-572zm1147 238V0h-575v531q-197-318-491-470T1556-91q-537 0-855 302-317 302-317 808 0 590 395 890 396 300 1180 300h807v57q0 397-261 614t-733 217q-300 0-585-72-284-72-546-216v532q315 122 612 182 297 61 578 61 760 0 1135-394 375-393 375-1193z" transform="scale(.01563)"/><path id="DejaVuSans-72" d="M2631 2963q-97 56-211 82-114 27-251 27-488 0-749-317t-261-911V0H581v3500h578v-544q182 319 472 473 291 155 707 155 59 0 131-8 72-7 159-23l3-590z" transform="scale(.01563)"/></defs><use xlink:href="#DejaVuSans-47"/><use xlink:href="#DejaVuSans-69" x="77.49"/><use xlink:href="#DejaVuSans-74" x="105.273"/><use xlink:href="#DejaVuSans-48" x="144.482"/><use xlink:href="#DejaVuSans-75" x="219.678"/><use xlink:href="#DejaVuSans-62" x="283.057"/><use xlink:href="#DejaVuSans-20" x="346.533"/><use xlink:href="#DejaVuSans-73" x="378.32"/><use xlink:href="#DejaVuSans-74" x="430.42"/><use xlink:href="#DejaVuSans-61" x="469.629"/><use xlink:href="#DejaVuSans-72" x="530.908"/><use xlink:href="#DejaVuSans-73" x="572.021"/></g></g><path id="line2d_24" d="m251.02 280.087 2.26-.002h11.148l2.186-.002h4.518l2.113-.003 2.259-.073h4.445l2.186-.002 2.258-.001h4.445l2.26-.005 2.185-.002 2.26-.002 2.258-.001 2.04-.002 2.26-.002 2.185-.001 2.259-.002 2.186-.004 2.259-.003h2.259l2.186-.002 2.259-.001 2.186-.002 2.258-.002 2.26-.001 2.04-.005 2.258-.006 2.186-.003H339.845l2.186-.002 2.259-.003h2.186l2.259-.002 2.259-.001H355.293l2.186-.002 2.259-.003h2.186l2.259-.002 2.258-.002 2.186-.002h2.26l2.185-.001 2.26-.002h2.258l2.113-.003 2.259-.004h2.186l2.259-.005 2.186-.001 2.259-.002 2.259-.005 2.186-.004h2.259l2.186-.001 2.258-.002 2.26-.003 2.04-.005 2.258-.006 2.186-.001 2.26-.004 2.185-.001h2.26l2.258-.004 2.186-.001 2.259-.002 2.186-.002 2.259-.001 2.259-.007h2.04l2.259-.002 2.186-.003 2.259-.005h4.445l2.258-.002 2.186-.003 2.26-.004 2.185-.002h2.26" clip-path="url(#paa513e47dc)" style="fill:none;stroke:#ffbb78;stroke-width:1.5;stroke-linecap:square"/><path id="line2d_25" d="m295.542 280.087 2.259-.002 2.04-.002h2.26l2.185-.001 2.259-.004h2.186l2.259-.005h2.259l2.186-.002 2.259-.005 2.186-.008 2.258-.002 2.26-.003 2.04-.002 2.258-.002 2.186-.001 2.26-.005h6.703l2.186-.004 2.259-.005 2.186-.005 2.259-.008 2.259-.004 2.04-.005 2.259-.001 2.186-.004 2.259-.007 2.186-.003 2.259-.002 2.258-.001 2.186-.004 2.26-.007 2.185-.003 2.26-.003 2.258-.005 2.113-.004 2.259-.007 2.186-.001 2.259-.007 2.186-.002 2.259-.008 2.259-.01 2.186-.002 2.259-.002 2.186-.001 2.258-.002 2.26-.012 2.04-.007 2.258-.005 2.186-.003 2.26-.009 2.185-.005 2.26-.005 2.258-.003 2.186-.005 2.259-.004 2.186-.01 2.259-.001 2.259-.004 2.04-.003 2.259-.004 2.186-.008 2.259-.01 2.186-.005 2.259-.004 2.258-.015 2.186-.005 2.26-.005 2.185-.009 2.26-.006" clip-path="url(#paa513e47dc)" style="fill:none;stroke:#aec7e8;stroke-width:1.5;stroke-linecap:square"/><path id="line2d_26" d="m149.007 280.087 2.259-.266 93.27-.313 68.713-.79 11.148-.24 22.079-.482 22.151-.426 66.528-2.035 11.148-.436 8.89-.215h0" clip-path="url(#paa513e47dc)" style="fill:none;stroke:#17becf;stroke-width:1.5;stroke-linecap:square"/><g id="text_17" style="fill:#1f77b4" transform="matrix(.14 0 0 -.14 465.907 17.838)"><defs><path id="DejaVuSans-6f" d="M1959 3097q-462 0-731-361t-269-989q0-628 267-989 268-361 733-361 460 0 728 362 269 363 269 988 0 622-269 986-268 364-728 364zm0 487q750 0 1178-488 429-487 429-1349 0-859-429-1349Q2709-91 1959-91q-753 0-1180 489-426 490-426 1349 0 862 426 1349 427 488 1180 488z" transform="scale(.01563)"/><path id="DejaVuSans-68" d="M3513 2113V0h-575v2094q0 497-194 743-194 247-581 247-466 0-735-297-269-296-269-809V0H581v4863h578V2956q207 316 486 472 280 156 646 156 603 0 912-373 310-373 310-1098z" transform="scale(.01563)"/><path id="DejaVuSans-6d" d="M3328 2828q216 388 516 572t706 184q547 0 844-383 297-382 297-1088V0h-578v2094q0 503-179 746-178 244-543 244-447 0-707-297-259-296-259-809V0h-578v2094q0 506-178 748t-550 242q-441 0-701-298-259-298-259-808V0H581v3500h578v-544q197 322 472 475t653 153q382 0 649-194 267-193 395-562z" transform="scale(.01563)"/><path id="DejaVuSans-79" d="M2059-325q-243-625-475-815-231-191-618-191H506v481h338q237 0 368 113 132 112 291 531l103 262L191 3500h609L1894 763l1094 2737h609L2059-325z" transform="scale(.01563)"/><path id="DejaVuSans-7a" d="M353 3500h2731v-525L922 459h2162V0H275v525l2163 2516H353v459z" transform="scale(.01563)"/><path id="DejaVuSans-2f" d="M1625 4666h531L531-594H0l1625 5260z" transform="scale(.01563)"/></defs><use xlink:href="#DejaVuSans-6f"/><use xlink:href="#DejaVuSans-68" x="61.182"/><use xlink:href="#DejaVuSans-6d" x="124.561"/><use xlink:href="#DejaVuSans-79" x="221.973"/><use xlink:href="#DejaVuSans-7a" x="281.152"/><use xlink:href="#DejaVuSans-73" x="333.643"/><use xlink:href="#DejaVuSans-68" x="385.742"/><use xlink:href="#DejaVuSans-2f" x="449.121"/><use xlink:href="#DejaVuSans-6f" x="482.813"/><use xlink:href="#DejaVuSans-68" x="543.994"/><use xlink:href="#DejaVuSans-6d" x="607.373"/><use xlink:href="#DejaVuSans-79" x="704.785"/><use xlink:href="#DejaVuSans-7a" x="763.965"/><use xlink:href="#DejaVuSans-73" x="816.455"/><use xlink:href="#DejaVuSans-68" x="868.555"/></g><g id="text_18" style="fill:#ff7f0e" transform="matrix(.14 0 0 -.14 465.907 131.638)"><defs><path id="DejaVuSans-63" d="M3122 3366v-538q-244 135-489 202t-495 67q-560 0-870-355-309-354-309-995t309-996q310-354 870-354 250 0 495 67t489 202V134Q2881 22 2623-34q-257-57-548-57-791 0-1257 497-465 497-465 1341 0 856 470 1346 471 491 1290 491 265 0 518-55 253-54 491-163z" transform="scale(.01563)"/><path id="DejaVuSans-66" d="M2375 4863v-479h-550q-309 0-430-125-120-125-120-450v-309h947v-447h-947V0H697v3053H147v447h550v244q0 584 272 851 272 268 862 268h544z" transform="scale(.01563)"/><path id="DejaVuSans-65" d="M3597 1894v-281H953q38-594 358-905t892-311q331 0 642 81t618 244V178Q3153 47 2828-22t-659-69q-838 0-1327 487-489 488-489 1320 0 859 464 1363 464 505 1252 505 706 0 1117-455 411-454 411-1235zm-575 169q-6 471-264 752-258 282-683 282-481 0-770-272t-333-766l2050 4z" transform="scale(.01563)"/><path id="DejaVuSans-6e" d="M3513 2113V0h-575v2094q0 497-194 743-194 247-581 247-466 0-735-297-269-296-269-809V0H581v3500h578v-544q207 316 486 472 280 156 646 156 603 0 912-373 310-373 310-1098z" transform="scale(.01563)"/><path id="DejaVuSans-6c" d="M603 4863h575V0H603v4863z" transform="scale(.01563)"/></defs><use xlink:href="#DejaVuSans-6d"/><use xlink:href="#DejaVuSans-69" x="97.412"/><use xlink:href="#DejaVuSans-63" x="125.195"/><use xlink:href="#DejaVuSans-72" x="180.176"/><use xlink:href="#DejaVuSans-6f" x="219.039"/><use xlink:href="#DejaVuSans-73" x="280.221"/><use xlink:href="#DejaVuSans-6f" x="332.32"/><use xlink:href="#DejaVuSans-66" x="393.502"/><use xlink:href="#DejaVuSans-74" x="426.957"/><use xlink:href="#DejaVuSans-2f" x="466.166"/><use xlink:href="#DejaVuSans-74" x="499.857"/><use xlink:href="#DejaVuSans-65" x="539.066"/><use xlink:href="#DejaVuSans-72" x="600.59"/><use xlink:href="#DejaVuSans-6d" x="639.953"/><use xlink:href="#DejaVuSans-69" x="737.365"/><use xlink:href="#DejaVuSans-6e" x="765.148"/><use xlink:href="#DejaVuSans-61" x="828.527"/><use xlink:href="#DejaVuSans-6c" x="889.807"/></g><g id="text_19" style="fill:#2ca02c" transform="matrix(.14 0 0 -.14 465.907 200.001)"><defs><path id="DejaVuSans-50" d="M1259 4147V2394h794q441 0 681 228 241 228 241 650 0 419-241 647-240 228-681 228h-794zm-631 519h1425q785 0 1186-355 402-355 402-1039 0-691-402-1044-401-353-1186-353h-794V0H628v4666z" transform="scale(.01563)"/><path id="DejaVuSans-77" d="M269 3500h575l719-2731 715 2731h678l719-2731 716 2731h575L4050 0h-678l-753 2869L1863 0h-679L269 3500z" transform="scale(.01563)"/><path id="DejaVuSans-53" d="M3425 4513v-616q-359 172-678 256-319 85-616 85-515 0-795-200t-280-569q0-310 186-468 186-157 705-254l381-78q706-135 1042-474t336-907q0-679-455-1029Q2797-91 1919-91q-331 0-705 75-373 75-773 222v650q384-215 753-325 369-109 725-109 540 0 834 212 294 213 294 607 0 343-211 537t-692 291l-385 75q-706 140-1022 440-315 300-315 835 0 619 436 975t1201 356q329 0 669-60 341-59 697-177z" transform="scale(.01563)"/></defs><use xlink:href="#DejaVuSans-50"/><use xlink:href="#DejaVuSans-6f" x="56.678"/><use xlink:href="#DejaVuSans-77" x="117.859"/><use xlink:href="#DejaVuSans-65" x="199.646"/><use xlink:href="#DejaVuSans-72" x="261.17"/><use xlink:href="#DejaVuSans-53" x="302.283"/><use xlink:href="#DejaVuSans-68" x="365.76"/><use xlink:href="#DejaVuSans-65" x="429.139"/><use xlink:href="#DejaVuSans-6c" x="490.662"/><use xlink:href="#DejaVuSans-6c" x="518.445"/><use xlink:href="#DejaVuSans-2f" x="546.229"/><use xlink:href="#DejaVuSans-50" x="579.92"/><use xlink:href="#DejaVuSans-6f" x="636.598"/><use xlink:href="#DejaVuSans-77" x="697.779"/><use xlink:href="#DejaVuSans-65" x="779.566"/><use xlink:href="#DejaVuSans-72" x="841.09"/><use xlink:href="#DejaVuSans-53" x="882.203"/><use xlink:href="#DejaVuSans-68" x="945.68"/><use xlink:href="#DejaVuSans-65" x="1009.059"/><use xlink:href="#DejaVuSans-6c" x="1070.582"/><use xlink:href="#DejaVuSans-6c" x="1098.365"/></g><g id="text_20" style="fill:#d62728" transform="matrix(.14 0 0 -.14 465.907 214.001)"><use xlink:href="#DejaVuSans-6e"/><use xlink:href="#DejaVuSans-75" x="63.379"/><use xlink:href="#DejaVuSans-73" x="126.758"/><use xlink:href="#DejaVuSans-68" x="178.857"/><use xlink:href="#DejaVuSans-65" x="242.236"/><use xlink:href="#DejaVuSans-6c" x="303.76"/><use xlink:href="#DejaVuSans-6c" x="331.543"/><use xlink:href="#DejaVuSans-2f" x="359.326"/><use xlink:href="#DejaVuSans-6e" x="393.018"/><use xlink:href="#DejaVuSans-75" x="456.396"/><use xlink:href="#DejaVuSans-73" x="519.775"/><use xlink:href="#DejaVuSans-68" x="571.875"/><use xlink:href="#DejaVuSans-65" x="635.254"/><use xlink:href="#DejaVuSans-6c" x="696.777"/><use xlink:href="#DejaVuSans-6c" x="724.561"/></g><g id="text_21" style="fill:#9467bd" transform="matrix(.14 0 0 -.14 465.907 228.001)"><defs><path id="DejaVuSans-2d" d="M313 2009h1684v-512H313v512z" transform="scale(.01563)"/></defs><use xlink:href="#DejaVuSans-66"/><use xlink:href="#DejaVuSans-69" x="35.205"/><use xlink:href="#DejaVuSans-73" x="62.988"/><use xlink:href="#DejaVuSans-68" x="115.088"/><use xlink:href="#DejaVuSans-2d" x="178.467"/><use xlink:href="#DejaVuSans-73" x="214.551"/><use xlink:href="#DejaVuSans-68" x="266.65"/><use xlink:href="#DejaVuSans-65" x="330.029"/><use xlink:href="#DejaVuSans-6c" x="391.553"/><use xlink:href="#DejaVuSans-6c" x="419.336"/><use xlink:href="#DejaVuSans-2f" x="447.119"/><use xlink:href="#DejaVuSans-66" x="480.811"/><use xlink:href="#DejaVuSans-69" x="516.016"/><use xlink:href="#DejaVuSans-73" x="543.799"/><use xlink:href="#DejaVuSans-68" x="595.898"/><use xlink:href="#DejaVuSans-2d" x="659.277"/><use xlink:href="#DejaVuSans-73" x="695.361"/><use xlink:href="#DejaVuSans-68" x="747.461"/><use xlink:href="#DejaVuSans-65" x="810.84"/><use xlink:href="#DejaVuSans-6c" x="872.363"/><use xlink:href="#DejaVuSans-6c" x="900.146"/></g><g id="text_22" style="fill:#8c564b" transform="matrix(.14 0 0 -.14 465.907 242.001)"><defs><path id="DejaVuSans-70" d="M1159 525v-1856H581v4831h578v-531q182 312 458 463 277 152 661 152 638 0 1036-506 399-506 399-1331T3314 415Q2916-91 2278-91q-384 0-661 152-276 152-458 464zm1957 1222q0 634-261 995t-717 361q-457 0-718-361t-261-995q0-634 261-995t718-361q456 0 717 361t261 995z" transform="scale(.01563)"/></defs><use xlink:href="#DejaVuSans-73"/><use xlink:href="#DejaVuSans-6f" x="52.1"/><use xlink:href="#DejaVuSans-72" x="113.281"/><use xlink:href="#DejaVuSans-69" x="154.395"/><use xlink:href="#DejaVuSans-6e" x="182.178"/><use xlink:href="#DejaVuSans-2d" x="245.557"/><use xlink:href="#DejaVuSans-69" x="281.641"/><use xlink:href="#DejaVuSans-6f" x="309.424"/><use xlink:href="#DejaVuSans-6e" x="370.605"/><use xlink:href="#DejaVuSans-65" x="433.984"/><use xlink:href="#DejaVuSans-73" x="495.508"/><use xlink:href="#DejaVuSans-63" x="547.607"/><use xlink:href="#DejaVuSans-75" x="602.588"/><use xlink:href="#DejaVuSans-2f" x="665.967"/><use xlink:href="#DejaVuSans-70" x="699.658"/><use xlink:href="#DejaVuSans-72" x="763.135"/><use xlink:href="#DejaVuSans-65" x="801.998"/><use xlink:href="#DejaVuSans-7a" x="863.521"/><use xlink:href="#DejaVuSans-74" x="916.012"/><use xlink:href="#DejaVuSans-6f" x="955.221"/></g><g id="text_23" style="fill:#e377c2" transform="matrix(.14 0 0 -.14 465.907 256.001)"><use xlink:href="#DejaVuSans-6d"/><use xlink:href="#DejaVuSans-6f" x="97.412"/><use xlink:href="#DejaVuSans-62" x="158.594"/><use xlink:href="#DejaVuSans-69" x="222.07"/><use xlink:href="#DejaVuSans-6c" x="249.854"/><use xlink:href="#DejaVuSans-65" x="277.637"/><use xlink:href="#DejaVuSans-2d" x="339.16"/><use xlink:href="#DejaVuSans-73" x="375.244"/><use xlink:href="#DejaVuSans-68" x="427.344"/><use xlink:href="#DejaVuSans-65" x="490.723"/><use xlink:href="#DejaVuSans-6c" x="552.246"/><use xlink:href="#DejaVuSans-6c" x="580.029"/><use xlink:href="#DejaVuSans-2f" x="607.813"/><use xlink:href="#DejaVuSans-6d" x="641.504"/><use xlink:href="#DejaVuSans-6f" x="738.916"/><use xlink:href="#DejaVuSans-73" x="800.098"/><use xlink:href="#DejaVuSans-68" x="852.197"/></g><g id="text_24" style="fill:#7f7f7f" transform="matrix(.14 0 0 -.14 465.907 270.001)"><use xlink:href="#DejaVuSans-6f"/><use xlink:href="#DejaVuSans-68" x="61.182"/><use xlink:href="#DejaVuSans-2d" x="124.561"/><use xlink:href="#DejaVuSans-6d" x="160.645"/><use xlink:href="#DejaVuSans-79" x="258.057"/><use xlink:href="#DejaVuSans-2d" x="315.486"/><use xlink:href="#DejaVuSans-66" x="351.57"/><use xlink:href="#DejaVuSans-69" x="386.775"/><use xlink:href="#DejaVuSans-73" x="414.559"/><use xlink:href="#DejaVuSans-68" x="466.658"/><use xlink:href="#DejaVuSans-2f" x="530.037"/><use xlink:href="#DejaVuSans-6f" x="563.729"/><use xlink:href="#DejaVuSans-68" x="624.91"/><use xlink:href="#DejaVuSans-2d" x="688.289"/><use xlink:href="#DejaVuSans-6d" x="724.373"/><use xlink:href="#DejaVuSans-79" x="821.785"/><use xlink:href="#DejaVuSans-2d" x="879.215"/><use xlink:href="#DejaVuSans-66" x="915.299"/><use xlink:href="#DejaVuSans-69" x="950.504"/><use xlink:href="#DejaVuSans-73" x="978.287"/><use xlink:href="#DejaVuSans-68" x="1030.387"/></g><g id="text_25" style="fill:#bcbd22" transform="matrix(.14 0 0 -.14 465.907 284.001)"><defs><path id="DejaVuSans-76" d="M191 3500h609L1894 563l1094 2937h609L2284 0h-781L191 3500z" transform="scale(.01563)"/></defs><use xlink:href="#DejaVuSans-65"/><use xlink:href="#DejaVuSans-6c" x="61.523"/><use xlink:href="#DejaVuSans-76" x="89.307"/><use xlink:href="#DejaVuSans-65" x="148.486"/><use xlink:href="#DejaVuSans-73" x="210.01"/><use xlink:href="#DejaVuSans-2f" x="262.109"/><use xlink:href="#DejaVuSans-65" x="295.801"/><use xlink:href="#DejaVuSans-6c" x="357.324"/><use xlink:href="#DejaVuSans-76" x="385.107"/><use xlink:href="#DejaVuSans-69" x="444.287"/><use xlink:href="#DejaVuSans-73" x="472.07"/><use xlink:href="#DejaVuSans-68" x="524.17"/></g><g id="text_26" style="fill:#17becf" transform="matrix(.14 0 0 -.14 465.907 298.001)"><use xlink:href="#DejaVuSans-7a"/><use xlink:href="#DejaVuSans-73" x="52.49"/><use xlink:href="#DejaVuSans-68" x="104.59"/><use xlink:href="#DejaVuSans-2d" x="167.969"/><use xlink:href="#DejaVuSans-75" x="204.053"/><use xlink:href="#DejaVuSans-73" x="267.432"/><use xlink:href="#DejaVuSans-65" x="319.531"/><use xlink:href="#DejaVuSans-72" x="381.055"/><use xlink:href="#DejaVuSans-73" x="422.168"/><use xlink:href="#DejaVuSans-2f" x="474.268"/><use xlink:href="#DejaVuSans-7a" x="507.959"/><use xlink:href="#DejaVuSans-73" x="560.449"/><use xlink:href="#DejaVuSans-68" x="612.549"/></g><g id="text_27" style="fill:#aec7e8" transform="matrix(.14 0 0 -.14 465.907 312.001)"><defs><path id="DejaVuSans-67" d="M2906 1791q0 625-258 968-257 344-723 344-462 0-720-344-258-343-258-968 0-622 258-966t720-344q466 0 723 344 258 344 258 966zm575-1357q0-893-397-1329-396-436-1215-436-303 0-572 45t-522 139v559q253-137 500-202 247-66 503-66 566 0 847 295t281 892v285q-178-310-456-463T1784 0Q1141 0 747 490 353 981 353 1791q0 812 394 1302 394 491 1037 491 388 0 666-153t456-462v531h575V434z" transform="scale(.01563)"/></defs><use xlink:href="#DejaVuSans-74"/><use xlink:href="#DejaVuSans-63" x="39.209"/><use xlink:href="#DejaVuSans-73" x="94.189"/><use xlink:href="#DejaVuSans-68" x="146.289"/><use xlink:href="#DejaVuSans-2d" x="209.668"/><use xlink:href="#DejaVuSans-6f" x="247.627"/><use xlink:href="#DejaVuSans-72" x="308.809"/><use xlink:href="#DejaVuSans-67" x="348.172"/><use xlink:href="#DejaVuSans-2f" x="411.648"/><use xlink:href="#DejaVuSans-74" x="445.34"/><use xlink:href="#DejaVuSans-63" x="484.549"/><use xlink:href="#DejaVuSans-73" x="539.529"/><use xlink:href="#DejaVuSans-68" x="591.629"/></g><g id="text_28" style="fill:#ffbb78" transform="matrix(.14 0 0 -.14 465.907 326.001)"><use xlink:href="#DejaVuSans-61"/><use xlink:href="#DejaVuSans-73" x="61.279"/><use xlink:href="#DejaVuSans-68" x="113.379"/><use xlink:href="#DejaVuSans-2d" x="176.758"/><use xlink:href="#DejaVuSans-73" x="212.842"/><use xlink:href="#DejaVuSans-68" x="264.941"/><use xlink:href="#DejaVuSans-65" x="328.32"/><use xlink:href="#DejaVuSans-6c" x="389.844"/><use xlink:href="#DejaVuSans-6c" x="417.627"/><use xlink:href="#DejaVuSans-2f" x="445.41"/><use xlink:href="#DejaVuSans-61" x="479.102"/><use xlink:href="#DejaVuSans-73" x="540.381"/><use xlink:href="#DejaVuSans-68" x="592.48"/></g><g id="text_29" style="fill:#b0b0b0" transform="matrix(.09716 0 0 -.09716 98.073 314.123)"><defs><path id="DejaVuSans-40" d="M2381 1678q0-447 222-702 222-254 610-254 384 0 604 256 221 256 221 700 0 438-225 695-225 258-607 258-378 0-602-256-223-256-223-697zm1703-934q-187-241-429-355t-564-114q-538 0-874 389t-336 1014q0 625 337 1015 338 391 873 391 322 0 565-117 244-117 428-354v409h447V722q457 69 714 417 258 349 258 902 0 334-99 628-98 294-298 544-325 409-792 626t-1017 217q-384 0-738-102-353-101-653-301-490-319-767-836-276-517-276-1120 0-497 179-932 180-434 521-765 328-325 759-495 431-171 922-171 403 0 792 136t714 389l281-347q-390-303-851-464t-936-161q-578 0-1091 205-512 205-912 595Q841 78 631 592q-209 514-209 1105 0 569 212 1084 213 516 607 907 403 396 931 607t1119 211q662 0 1229-272 568-271 952-771 234-307 357-666 124-359 124-744 0-822-497-1297T4084 263v481z" transform="scale(.01563)"/><path id="DejaVuSans-64" d="M2906 2969v1894h575V0h-575v525q-181-312-458-464-276-152-664-152-634 0-1033 506-398 507-398 1332t398 1331q399 506 1033 506 388 0 664-152 277-151 458-463zM947 1747q0-634 261-995t717-361q456 0 718 361 263 361 263 995t-263 995q-262 361-718 361t-717-361q-261-361-261-995z" transform="scale(.01563)"/><path id="DejaVuSans-7c" d="M1344 4891v-6400H813v6400h531z" transform="scale(.01563)"/><path id="DejaVuSans-4e" d="M628 4666h850L3547 763v3903h612V0h-850L1241 3903V0H628v4666z" transform="scale(.01563)"/><path id="DejaVuSans-f6" d="M1959 3097q-462 0-731-361t-269-989q0-628 267-989 268-361 733-361 460 0 728 362 269 363 269 988 0 622-269 986-268 364-728 364zm0 487q750 0 1178-488 429-487 429-1349 0-859-429-1349Q2709-91 1959-91q-753 0-1180 489-426 490-426 1349 0 862 426 1349 427 488 1180 488zm295 1266h634v-631h-634v631zm-1222 0h634v-631h-634v631z" transform="scale(.01563)"/><path id="DejaVuSans-43" d="M4122 4306v-665q-319 297-680 443-361 147-767 147-800 0-1225-489t-425-1414q0-922 425-1411t1225-489q406 0 767 147t680 444V359q-331-225-702-338-370-112-782-112-1060 0-1670 648-609 649-609 1771 0 1125 609 1773 610 649 1670 649 418 0 788-111 371-111 696-333z" transform="scale(.01563)"/><path id="DejaVuSans-42" d="M1259 2228V519h1013q509 0 754 211 246 211 246 645 0 438-246 645-245 208-754 208H1259zm0 1919V2741h935q462 0 688 173 227 174 227 530 0 353-227 528-226 175-688 175h-935zm-631 519h1613q722 0 1112-300 391-300 391-853 0-429-200-682t-588-315q466-100 724-418 258-317 258-792 0-625-425-966Q3088 0 2303 0H628v4666z" transform="scale(.01563)"/><path id="DejaVuSans-59" d="M-13 4666h679l1293-1919 1285 1919h678L2272 2222V0h-634v2222L-13 4666z" transform="scale(.01563)"/></defs><use xlink:href="#DejaVuSans-40"/><use xlink:href="#DejaVuSans-6e" x="100"/><use xlink:href="#DejaVuSans-73" x="163.379"/><use xlink:href="#DejaVuSans-63" x="215.479"/><use xlink:href="#DejaVuSans-68" x="270.459"/><use xlink:href="#DejaVuSans-6c" x="333.838"/><use xlink:href="#DejaVuSans-6f" x="361.621"/><use xlink:href="#DejaVuSans-65" x="422.803"/><use xlink:href="#DejaVuSans-20" x="484.326"/><use xlink:href="#DejaVuSans-2f" x="516.113"/><use xlink:href="#DejaVuSans-20" x="549.805"/><use xlink:href="#DejaVuSans-67" x="581.592"/><use xlink:href="#DejaVuSans-69" x="645.068"/><use xlink:href="#DejaVuSans-74" x="672.852"/><use xlink:href="#DejaVuSans-68" x="712.061"/><use xlink:href="#DejaVuSans-75" x="775.439"/><use xlink:href="#DejaVuSans-62" x="838.818"/><use xlink:href="#DejaVuSans-2d" x="902.295"/><use xlink:href="#DejaVuSans-74" x="938.379"/><use xlink:href="#DejaVuSans-72" x="977.588"/><use xlink:href="#DejaVuSans-65" x="1016.451"/><use xlink:href="#DejaVuSans-6e" x="1077.975"/><use xlink:href="#DejaVuSans-64" x="1141.354"/><use xlink:href="#DejaVuSans-73" x="1204.83"/><use xlink:href="#DejaVuSans-20" x="1256.93"/><use xlink:href="#DejaVuSans-7c" x="1288.717"/><use xlink:href="#DejaVuSans-20" x="1322.408"/><use xlink:href="#DejaVuSans-4e" x="1354.195"/><use xlink:href="#DejaVuSans-69" x="1429"/><use xlink:href="#DejaVuSans-63" x="1456.783"/><use xlink:href="#DejaVuSans-6f" x="1511.764"/><use xlink:href="#DejaVuSans-20" x="1572.945"/><use xlink:href="#DejaVuSans-53" x="1604.732"/><use xlink:href="#DejaVuSans-63" x="1668.209"/><use xlink:href="#DejaVuSans-68" x="1723.189"/><use xlink:href="#DejaVuSans-6c" x="1786.568"/><use xlink:href="#DejaVuSans-f6" x="1814.352"/><use xlink:href="#DejaVuSans-6d" x="1875.533"/><use xlink:href="#DejaVuSans-65" x="1972.945"/><use xlink:href="#DejaVuSans-72" x="2034.469"/><use xlink:href="#DejaVuSans-20" x="2075.582"/><use xlink:href="#DejaVuSans-7c" x="2107.369"/><use xlink:href="#DejaVuSans-20" x="2141.061"/><use xlink:href="#DejaVuSans-43" x="2172.848"/><use xlink:href="#DejaVuSans-43" x="2242.672"/><use xlink:href="#DejaVuSans-20" x="2312.496"/><use xlink:href="#DejaVuSans-42" x="2344.283"/><use xlink:href="#DejaVuSans-59" x="2407.387"/></g><path id="line2d_27" d="m213.421 280.087 2.26-.002 2.258-.003h2.04l2.26-.007h2.185l2.259-.005 2.186-.002 2.259-1.337 2.259-.185 2.186-.08 2.259-.014 2.186-.016 2.258-.016 2.26-.024 2.04-.071 2.258-.048 2.186-.028 2.26-.06 2.185-.017 2.26-.013 2.258-.019 2.186-.017 2.259-.013 2.186-.054 2.259-.046 2.259-.036 2.113-.044 2.259-.045 2.186-.043 2.259-.025 2.186-.017 2.258-.063 2.26-.027 2.185-.08 2.26-.033 2.185-.053 2.26-.101 2.258-.061 2.04-.039 2.26-.037 2.185-.03 2.259-.075 2.186-.039 2.259-1.112 2.259-.066 2.186-.064 2.259-.1 2.186-.153 2.258-.086 2.26-.095 2.04-.072 2.258-.078 2.186-.046 2.26-.058 2.185-.07 2.26-.063 2.258-.066 2.186-.054 2.259-.058 2.186-.08 2.259-.06 2.259-.087 2.04-.045 2.259-.073 2.186-.058 2.259-.07 2.186-.055 2.259-.053 2.258-.104 2.186-.058 2.26-.044 2.185-.052 2.26-.061 2.258-.036 2.113-.03 2.259-.077 2.186-.074 2.259-.047 2.186-.046 2.259-.053 2.259-.055 2.186-.246 2.259-.073 2.186-.032 2.258-.037 2.26-.056 2.04-.085 2.258-.094 2.186-.054 2.26-.065 2.185-.123 2.26-.097 2.258-.086 2.186-.076 2.259-.054 2.186-.058 2.259-.118 2.259-.061 2.04-.044 2.259-.055 2.186-.074 2.259-.063 2.186-.04 2.259-.044 2.258-.054 2.186-.056 2.26-.053 2.185-.062 2.26-.05" clip-path="url(#paa513e47dc)" style="fill:none;stroke:#bcbd22;stroke-width:1.5;stroke-linecap:square"/><path id="line2d_28" d="m259.983 280.087 2.186-.181 2.259-.188 2.186-.21 2.259-.198 2.259-.191 2.113-.038 2.259-.19 2.186-.26 2.259-.174 2.186-.144 2.258-.144 2.26-.135 2.185-.134 2.26-.15 2.185-.151 2.26-.14 2.258-.192 2.04-.195 2.26-.16 2.185-.148 2.259-.233 2.186-.14 2.259-.182 2.259-.162 2.186-.134 2.259-.166 2.186-.157 2.258-.158 2.26-.21 2.04-.149 2.258-.196 2.186-.184 2.26-.158 2.185-.137 2.26-.157 2.258-.198 2.186-.176 2.259-.166 2.186-.239 2.259-.23 2.259-.26 2.04-.228 2.259-.184 2.186-.205 2.259-.198 2.186-.228 2.259-.205 2.258-.164 2.186-.161 2.26-.15 2.185-.175 2.26-.14 2.258-.156 2.113-.188 2.259-.168 2.186-.232 2.259-.193 2.186-.2 2.259-.185 2.259-.151 2.186-.178 2.259-.193 2.186-.194 2.258-.192 2.26-.17 2.04-.185 2.258-.176 2.186-.158 2.26-.238 2.185-.146 2.26-.164 2.258-.149 2.186-.139 2.259-.169 2.186-.203 2.259-.225 2.259-.186 2.04-.164 2.259-.227 2.186-.205 2.259-.191 2.186-.158 2.259-.172 2.258-.232 2.186-.171 2.26-.163 2.185-.17 2.26-.151" clip-path="url(#paa513e47dc)" style="fill:none;stroke:#7f7f7f;stroke-width:1.5;stroke-linecap:square"/><path id="line2d_29" d="m135.818 280.087 2.259-1.857 30.968-.789 8.89-.106 15.448-.088 40.004-1.847 2.186-.82 6.703-.363 2.26-.28 13.188-.693 13.408-.889 4.372-.228 2.186-.484 44.448-2.888 48.748-3.11 42.117-2.431 4.445-.21 2.259-.286 19.893-1.143 15.593-.966h0" clip-path="url(#paa513e47dc)" style="fill:none;stroke:#e377c2;stroke-width:1.5;stroke-linecap:square"/><path id="line2d_30" d="m133.56 280.087 2.258-.62 39.858-.26 17.707-.072 28.855-1.687 8.89-.75 2.259-.563 11.148-1.219 2.04-.222 2.26-.438 11.148-1.305 8.89-.977 2.259-.403 2.113-.252 2.259-.4 11.148-1.135 4.445-.416 2.186-.312 22.152-1.887 28.855-2.57 13.189-.949 13.407-1.101 6.704-.523 37.6-2.42 40.003-2.064h0" clip-path="url(#paa513e47dc)" style="fill:none;stroke:#8c564b;stroke-width:1.5;stroke-linecap:square"/><path id="line2d_31" d="m171.231 280.087 2.26-1.082 19.892-.128 2.259-.146 4.445-.91 8.89-.585 2.258-.323 6.704-.5 19.893-1.235 13.188-.98 2.26-.502 2.185-.16 2.26-.306 4.444-.44 4.445-.418 8.89-1.146 4.445-.623 13.334-1.257 4.518-.401 13.189-1.556 4.445-.416 6.703-1.056 22.152-3.12 2.186-.421 4.518-1.777 2.04-.559 4.445-.888 6.704-1.11 6.703-.828 6.704-.864 4.372-.602 4.445-.721 4.445-.506 6.704-.76 8.744-1.193 2.258-.466 11.149-1.34 4.445-.574 8.744-1.435 2.259-.633 6.63-1.004 13.408-1.945h0" clip-path="url(#paa513e47dc)" style="fill:none;stroke:#9467bd;stroke-width:1.5;stroke-linecap:square"/><path id="line2d_32" d="m357.479 280.087 2.259-.012 2.186-.017 2.259-.015 2.258-5.278 2.186-2.186 2.26-1.084 2.185-.73 2.26-.409 2.258-.32 2.113-.3 2.259-.36 2.186-.423 2.259-.944 2.186-.576 2.259-.49 2.259-.664 2.186-.218 2.259-.188 2.186-.202 2.258-.221 2.26-.413 2.04-.36 2.258-2.194 2.186-.412 2.26-.474 2.185-5.082 2.26-1.23 2.258-.636 2.186-.873 2.259-.494 2.186-.821 2.259-.531 2.259-.347 2.04-.4 2.259-1.366 2.186-1.532 2.259-.746 2.186-.648 2.259-.7 2.258-.67 2.186-.871 2.26-.61 2.185-1.41 2.26-.576" clip-path="url(#paa513e47dc)" style="fill:none;stroke:#d62728;stroke-width:1.5;stroke-linecap:square"/><path id="line2d_33" d="m268.873 280.087 2.259-.005 2.113-.004h2.259l2.186-.003 2.259-.002h2.186l2.258-.002 2.26-7.34 2.185-.687 2.26-.324 2.185-.382 2.26-.264 2.258-.376 2.04-.379 2.26-.442 2.185-.353 2.259-.413 2.186-.358 2.259-.316 2.259-.388 2.186-.397 2.259-.43 2.186-.442 2.258-.422 2.26-.883 2.04-.406 2.258-.511 2.186-.427 2.26-.432 2.185-.436 2.26-.43 2.258-.413 2.186-.444 2.259-.467 2.186-.379 2.259-.408 2.259-.487 2.04-.383 2.259-.645 2.186-.638 2.259-.856 2.186-.975 2.259-.838 2.258-.79 2.186-.743 2.26-.848 2.185-.611 2.26-.586 2.258-.614 2.113-.684 2.259-1.26 2.186-.774 2.259-1.116 2.186-.929 2.259-1.31 2.259-.812 2.186-1.585 2.259-.93 2.186-.862 2.258-.735 2.26-.726 2.04-1.075 2.258-1.516 2.186-.741 2.26-.71 2.185-1.159 2.26-1.965 2.258-2.649 2.186-.623 2.259-1.267 2.186-1.481 2.259-.632 2.259-1.063 2.04-.504 2.259-1.303 2.186-1.166 2.259-1.077 2.186-.624 2.259-.605 2.258-.947 2.186-.574 2.26-1.178 2.185-.962 2.26-.658" clip-path="url(#paa513e47dc)" style="fill:none;stroke:#2ca02c;stroke-width:1.5;stroke-linecap:square"/><path id="line2d_34" d="m310.99 280.087 2.259-.173 2.186-.046 2.259-.108 2.186-.09 2.258-.072 2.26-.077 2.04-.074 2.258-.08 2.186-.076 2.26-.144 2.185-.103 2.26-.117 2.258-.154 2.186-.105 2.259-.138 2.186-.112 2.259-.16 2.259-.21 2.04-.168 2.259-.2 2.186-.213 2.259-64.212 2.186-8.962 2.259-3.082 2.258-3.084 2.186-2.34 2.26-2.118 2.185-2.094 2.26-1.941 2.258-2.15 2.113-1.977 2.259-2.346 2.186-2.38 2.259-5.33 2.186-2.694 2.259-2.283 2.259-1.814 2.186-1.412 2.259-1.46 2.186-1.605L402 162.67l2.26-1.774 2.04-1.506 2.258-1.436 2.186-1.525 2.26-2.037 2.185-1.224 2.26-1.875 2.258-1.454 2.186-1.622 2.259-1.665 2.186-1.254 2.259-1.571 2.259-1.173 2.04-2.351 2.259-1.774 2.186-1.477 2.259-1.461 2.186-1.043 2.259-1.129 2.258-1.48 2.186-1.021 2.26-1.012 2.185-.818 2.26-1.213" clip-path="url(#paa513e47dc)" style="fill:none;stroke:#ff7f0e;stroke-width:1.5;stroke-linecap:square"/><path id="line2d_35" d="m98.073 280.087 2.259-4.013 11.149-1.177 4.299-.562 37.745-4.737 6.63-.641 11.076-.83 6.704-.3 13.408-.243 2.04-.335 4.445-1.326 2.259-1.024 2.186-.661 2.258-.948 8.89-2.822 6.558-2.285 17.853-7.52 2.186-1.203 4.517-1.968 2.04-1.006 2.26-1.288 4.444-2.953 2.186-1.363 4.518-3.276 2.186-1.6 4.445-3.634 4.518-3.585 2.113-1.697 2.259-2.54 6.63-5.46 4.518-5.11 4.445-4.252 2.186-2.27 6.558-6.415 2.26-2.928 2.185-2.342 4.445-4.327 2.259-2.339 2.259-2.528 4.445-4.464 2.186-2.49 2.258-2.166 6.558-7.095 4.445-5.516 4.445-4.87 2.259-2.789 13.189-14.513 6.704-8.678 2.186-3.613 2.259-2.917 2.258-2.713 2.186-2.36 2.26-3.643 2.185-3.098 8.89-11.098 2.186-5.242 2.259-3.774 4.445-5.689 6.704-7.792L402 76.064l15.448-17.887 4.445-4.742 2.259-3.534 4.445-6.144 6.558-8.4 2.186-2.908 4.445-5.124 6.703-7.095 4.445-4.351 2.26-1.904h0" clip-path="url(#paa513e47dc)" style="fill:none;stroke:#1f77b4;stroke-width:1.5;stroke-linecap:square"/></g></g><defs><clipPath id="paa513e47dc"><path d="M98.073 13.975h357.12v266.112H98.073z"/></clipPath></defs></svg>