<svg xmlns="http://www.w3.org/2000/svg" xmlns:xlink="http://www.w3.org/1999/xlink" width="841.025" height="447.794" viewBox="0 0 630.769 335.845"><defs><style>*{stroke-linejoin:round;stroke-linecap:butt}</style></defs><g id="figure_1"><path id="patch_1" d="M0 335.845h630.769V0H0v335.845z" style="fill:none"/><g id="axes_1"><path id="patch_2" d="M98.073 280.087h357.12V13.975H98.073v266.112z" style="fill:none"/><g id="matplotlib.axis_1"><g id="xtick_1"><g id="line2d_1"><defs><path id="mb5a4f3f3db" d="M0 0v3.5" style="stroke:#b0b0b0;stroke-width:.4"/></defs><use xlink:href="#mb5a4f3f3db" x="109.089" y="280.087" style="fill:#b0b0b0;stroke:#b0b0b0;stroke-width:.4"/></g><g id="text_1" style="fill:#b0b0b0" transform="matrix(.14 0 0 -.14 91.274 297.724)"><defs><path id="DejaVuSans-32" d="M1228 531h2203V0H469v531q359 372 979 998 621 627 780 809 303 340 423 576 121 236 121 464 0 372-261 606-261 235-680 235-297 0-627-103-329-103-704-313v638q381 153 712 231 332 78 607 78 725 0 1156-363 431-362 431-968 0-288-108-546-107-257-392-607-78-91-497-524-418-433-1181-1211z" transform="scale(.01563)"/><path id="DejaVuSans-30" d="M2034 4250q-487 0-733-480-245-479-245-1442 0-959 245-1439 246-480 733-480 491 0 736 480 246 480 246 1439 0 963-246 1442-245 480-736 480zm0 500q785 0 1199-621 414-620 414-1801 0-1178-414-1799Q2819-91 2034-91q-784 0-1198 620-414 621-414 1799 0 1181 414 1801 414 621 1198 621z" transform="scale(.01563)"/><path id="DejaVuSans-31" d="M794 531h1031v3560L703 3866v575l1116 225h631V531h1031V0H794v531z" transform="scale(.01563)"/></defs><use xlink:href="#DejaVuSans-32"/><use xlink:href="#DejaVuSans-30" x="63.623"/><use xlink:href="#DejaVuSans-31" x="127.246"/><use xlink:href="#DejaVuSans-30" x="190.869"/></g></g><g id="xtick_2"><use xlink:href="#mb5a4f3f3db" id="line2d_2" x="161.649" y="280.087" style="fill:#b0b0b0;stroke:#b0b0b0;stroke-width:.4"/><g id="text_2" style="fill:#b0b0b0" transform="matrix(.14 0 0 -.14 143.834 297.724)"><use xlink:href="#DejaVuSans-32"/><use xlink:href="#DejaVuSans-30" x="63.623"/><use xlink:href="#DejaVuSans-31" x="127.246"/><use xlink:href="#DejaVuSans-32" x="190.869"/></g></g><g id="xtick_3"><use xlink:href="#mb5a4f3f3db" id="line2d_3" x="214.281" y="280.087" style="fill:#b0b0b0;stroke:#b0b0b0;stroke-width:.4"/><g id="text_3" style="fill:#b0b0b0" transform="matrix(.14 0 0 -.14 196.466 297.724)"><defs><path id="DejaVuSans-34" d="M2419 4116 825 1625h1594v2491zm-166 550h794V1625h666v-525h-666V0h-628v1100H313v609l1940 2957z" transform="scale(.01563)"/></defs><use xlink:href="#DejaVuSans-32"/><use xlink:href="#DejaVuSans-30" x="63.623"/><use xlink:href="#DejaVuSans-31" x="127.246"/><use xlink:href="#DejaVuSans-34" x="190.869"/></g></g><g id="xtick_4"><use xlink:href="#mb5a4f3f3db" id="line2d_4" x="266.841" y="280.087" style="fill:#b0b0b0;stroke:#b0b0b0;stroke-width:.4"/><g id="text_4" style="fill:#b0b0b0" transform="matrix(.14 0 0 -.14 249.026 297.724)"><defs><path id="DejaVuSans-36" d="M2113 2584q-425 0-674-291-248-290-248-796 0-503 248-796 249-292 674-292t673 292q248 293 248 796 0 506-248 796-248 291-673 291zm1253 1979v-575q-238 112-480 171-242 60-480 60-625 0-955-422-329-422-376-1275 184 272 462 417 279 145 613 145 703 0 1111-427 408-426 408-1160 0-719-425-1154Q2819-91 2113-91q-810 0-1238 620-428 621-428 1799 0 1106 525 1764t1409 658q238 0 480-47t505-140z" transform="scale(.01563)"/></defs><use xlink:href="#DejaVuSans-32"/><use xlink:href="#DejaVuSans-30" x="63.623"/><use xlink:href="#DejaVuSans-31" x="127.246"/><use xlink:href="#DejaVuSans-36" x="190.869"/></g></g><g id="xtick_5"><use xlink:href="#mb5a4f3f3db" id="line2d_5" x="319.473" y="280.087" style="fill:#b0b0b0;stroke:#b0b0b0;stroke-width:.4"/><g id="text_5" style="fill:#b0b0b0" transform="matrix(.14 0 0 -.14 301.658 297.724)"><defs><path id="DejaVuSans-38" d="M2034 2216q-450 0-708-241-257-241-257-662 0-422 257-663 258-241 708-241t709 242q260 243 260 662 0 421-258 662-257 241-711 241zm-631 268q-406 100-633 378-226 279-226 679 0 559 398 884 399 325 1092 325 697 0 1094-325t397-884q0-400-227-679-226-278-629-378 456-106 710-416 255-309 255-755 0-679-414-1042Q2806-91 2034-91q-771 0-1186 362-414 363-414 1042 0 446 256 755 257 310 713 416zm-231 997q0-362 226-565 227-203 636-203 407 0 636 203 230 203 230 565 0 363-230 566-229 203-636 203-409 0-636-203-226-203-226-566z" transform="scale(.01563)"/></defs><use xlink:href="#DejaVuSans-32"/><use xlink:href="#DejaVuSans-30" x="63.623"/><use xlink:href="#DejaVuSans-31" x="127.246"/><use xlink:href="#DejaVuSans-38" x="190.869"/></g></g><g id="xtick_6"><use xlink:href="#mb5a4f3f3db" id="line2d_6" x="372.033" y="280.087" style="fill:#b0b0b0;stroke:#b0b0b0;stroke-width:.4"/><g id="text_6" style="fill:#b0b0b0" transform="matrix(.14 0 0 -.14 354.218 297.724)"><use xlink:href="#DejaVuSans-32"/><use xlink:href="#DejaVuSans-30" x="63.623"/><use xlink:href="#DejaVuSans-32" x="127.246"/><use xlink:href="#DejaVuSans-30" x="190.869"/></g></g><g id="xtick_7"><use xlink:href="#mb5a4f3f3db" id="line2d_7" x="424.665" y="280.087" style="fill:#b0b0b0;stroke:#b0b0b0;stroke-width:.4"/><g id="text_7" style="fill:#b0b0b0" transform="matrix(.14 0 0 -.14 406.85 297.724)"><use xlink:href="#DejaVuSans-32"/><use xlink:href="#DejaVuSans-30" x="63.623"/><use xlink:href="#DejaVuSans-32" x="127.246"/><use xlink:href="#DejaVuSans-32" x="190.869"/></g></g></g><g id="matplotlib.axis_2"><g id="ytick_1"><path id="line2d_8" d="M98.073 280.087h357.12" clip-path="url(#p2738738748)" style="fill:none;stroke:#b0b0b0;stroke-width:.3;stroke-linecap:square"/><g id="line2d_9"><defs><path id="m6908602a30" d="M0 0h-3.5" style="stroke:#b0b0b0;stroke-width:.3"/></defs><use xlink:href="#m6908602a30" x="98.073" y="280.087" style="fill:#b0b0b0;stroke:#b0b0b0;stroke-width:.3"/></g><use xlink:href="#DejaVuSans-30" id="text_8" style="fill:#b0b0b0" transform="matrix(.14 0 0 -.14 82.166 285.406)"/></g><g id="ytick_2"><path id="line2d_10" d="M98.073 246.766h357.12" clip-path="url(#p2738738748)" style="fill:none;stroke:#b0b0b0;stroke-width:.3;stroke-linecap:square"/><use xlink:href="#m6908602a30" id="line2d_11" x="98.073" y="246.766" style="fill:#b0b0b0;stroke:#b0b0b0;stroke-width:.3"/><g id="text_9" style="fill:#b0b0b0" transform="matrix(.14 0 0 -.14 46.536 252.085)"><use xlink:href="#DejaVuSans-32"/><use xlink:href="#DejaVuSans-30" x="63.623"/><use xlink:href="#DejaVuSans-30" x="127.246"/><use xlink:href="#DejaVuSans-30" x="190.869"/><use xlink:href="#DejaVuSans-30" x="254.492"/></g></g><g id="ytick_3"><path id="line2d_12" d="M98.073 213.445h357.12" clip-path="url(#p2738738748)" style="fill:none;stroke:#b0b0b0;stroke-width:.3;stroke-linecap:square"/><use xlink:href="#m6908602a30" id="line2d_13" x="98.073" y="213.445" style="fill:#b0b0b0;stroke:#b0b0b0;stroke-width:.3"/><g id="text_10" style="fill:#b0b0b0" transform="matrix(.14 0 0 -.14 46.536 218.764)"><use xlink:href="#DejaVuSans-34"/><use xlink:href="#DejaVuSans-30" x="63.623"/><use xlink:href="#DejaVuSans-30" x="127.246"/><use xlink:href="#DejaVuSans-30" x="190.869"/><use xlink:href="#DejaVuSans-30" x="254.492"/></g></g><g id="ytick_4"><path id="line2d_14" d="M98.073 180.125h357.12" clip-path="url(#p2738738748)" style="fill:none;stroke:#b0b0b0;stroke-width:.3;stroke-linecap:square"/><use xlink:href="#m6908602a30" id="line2d_15" x="98.073" y="180.125" style="fill:#b0b0b0;stroke:#b0b0b0;stroke-width:.3"/><g id="text_11" style="fill:#b0b0b0" transform="matrix(.14 0 0 -.14 46.536 185.444)"><use xlink:href="#DejaVuSans-36"/><use xlink:href="#DejaVuSans-30" x="63.623"/><use xlink:href="#DejaVuSans-30" x="127.246"/><use xlink:href="#DejaVuSans-30" x="190.869"/><use xlink:href="#DejaVuSans-30" x="254.492"/></g></g><g id="ytick_5"><path id="line2d_16" d="M98.073 146.804h357.12" clip-path="url(#p2738738748)" style="fill:none;stroke:#b0b0b0;stroke-width:.3;stroke-linecap:square"/><use xlink:href="#m6908602a30" id="line2d_17" x="98.073" y="146.804" style="fill:#b0b0b0;stroke:#b0b0b0;stroke-width:.3"/><g id="text_12" style="fill:#b0b0b0" transform="matrix(.14 0 0 -.14 46.536 152.123)"><use xlink:href="#DejaVuSans-38"/><use xlink:href="#DejaVuSans-30" x="63.623"/><use xlink:href="#DejaVuSans-30" x="127.246"/><use xlink:href="#DejaVuSans-30" x="190.869"/><use xlink:href="#DejaVuSans-30" x="254.492"/></g></g><g id="ytick_6"><path id="line2d_18" d="M98.073 113.483h357.12" clip-path="url(#p2738738748)" style="fill:none;stroke:#b0b0b0;stroke-width:.3;stroke-linecap:square"/><use xlink:href="#m6908602a30" id="line2d_19" x="98.073" y="113.483" style="fill:#b0b0b0;stroke:#b0b0b0;stroke-width:.3"/><g id="text_13" style="fill:#b0b0b0" transform="matrix(.14 0 0 -.14 37.628 118.802)"><use xlink:href="#DejaVuSans-31"/><use xlink:href="#DejaVuSans-30" x="63.623"/><use xlink:href="#DejaVuSans-30" x="127.246"/><use xlink:href="#DejaVuSans-30" x="190.869"/><use xlink:href="#DejaVuSans-30" x="254.492"/><use xlink:href="#DejaVuSans-30" x="318.115"/></g></g><g id="ytick_7"><path id="line2d_20" d="M98.073 80.163h357.12" clip-path="url(#p2738738748)" style="fill:none;stroke:#b0b0b0;stroke-width:.3;stroke-linecap:square"/><use xlink:href="#m6908602a30" id="line2d_21" x="98.073" y="80.163" style="fill:#b0b0b0;stroke:#b0b0b0;stroke-width:.3"/><g id="text_14" style="fill:#b0b0b0" transform="matrix(.14 0 0 -.14 37.628 85.482)"><use xlink:href="#DejaVuSans-31"/><use xlink:href="#DejaVuSans-32" x="63.623"/><use xlink:href="#DejaVuSans-30" x="127.246"/><use xlink:href="#DejaVuSans-30" x="190.869"/><use xlink:href="#DejaVuSans-30" x="254.492"/><use xlink:href="#DejaVuSans-30" x="318.115"/></g></g><g id="ytick_8"><path id="line2d_22" d="M98.073 46.842h357.12" clip-path="url(#p2738738748)" style="fill:none;stroke:#b0b0b0;stroke-width:.3;stroke-linecap:square"/><use xlink:href="#m6908602a30" id="line2d_23" x="98.073" y="46.842" style="fill:#b0b0b0;stroke:#b0b0b0;stroke-width:.3"/><g id="text_15" style="fill:#b0b0b0" transform="matrix(.14 0 0 -.14 37.628 52.161)"><use xlink:href="#DejaVuSans-31"/><use xlink:href="#DejaVuSans-34" x="63.623"/><use xlink:href="#DejaVuSans-30" x="127.246"/><use xlink:href="#DejaVuSans-30" x="190.869"/><use xlink:href="#DejaVuSans-30" x="254.492"/><use xlink:href="#DejaVuSans-30" x="318.115"/></g></g><g id="text_16" style="fill:#b0b0b0" transform="matrix(.14 0 0 -.14 7.2 17.32)"><defs><path id="DejaVuSans-47" d="M3809 666v1253H2778v519h1656V434q-365-259-806-392-440-133-940-133-1094 0-1712 639-617 640-617 1780 0 1144 617 1783 618 639 1712 639 456 0 867-113 411-112 758-331v-672q-350 297-744 447t-828 150q-857 0-1287-478-429-478-429-1425 0-944 429-1422 430-478 1287-478 334 0 596 58 263 58 472 180z" transform="scale(.01563)"/><path id="DejaVuSans-69" d="M603 3500h575V0H603v3500zm0 1363h575v-729H603v729z" transform="scale(.01563)"/><path id="DejaVuSans-74" d="M1172 4494v-994h1184v-447H1172V1153q0-428 117-550t477-122h590V0h-590q-666 0-919 248-253 249-253 905v1900H172v447h422v994h578z" transform="scale(.01563)"/><path id="DejaVuSans-48" d="M628 4666h631V2753h2294v1913h631V0h-631v2222H1259V0H628v4666z" transform="scale(.01563)"/><path id="DejaVuSans-75" d="M544 1381v2119h575V1403q0-497 193-746 194-248 582-248 465 0 735 297 271 297 271 810v1984h575V0h-575v538q-209-319-486-474-276-155-642-155-603 0-916 375-312 375-312 1097zm1447 2203z" transform="scale(.01563)"/><path id="DejaVuSans-62" d="M3116 1747q0 634-261 995t-717 361q-457 0-718-361t-261-995q0-634 261-995t718-361q456 0 717 361t261 995zM1159 2969q182 312 458 463 277 152 661 152 638 0 1036-506 399-506 399-1331T3314 415Q2916-91 2278-91q-384 0-661 152-276 152-458 464V0H581v4863h578V2969z" transform="scale(.01563)"/><path id="DejaVuSans-73" d="M2834 3397v-544q-243 125-506 187-262 63-544 63-428 0-642-131t-214-394q0-200 153-314t616-217l197-44q612-131 870-370t258-667q0-488-386-773Q2250-91 1575-91q-281 0-586 55T347 128v594q319-166 628-249 309-82 613-82 406 0 624 139 219 139 219 392 0 234-158 359-157 125-692 241l-200 47q-534 112-772 345-237 233-237 639 0 494 350 762 350 269 994 269 318 0 599-47 282-46 519-140z" transform="scale(.01563)"/><path id="DejaVuSans-61" d="M2194 1759q-697 0-966-159t-269-544q0-306 202-486 202-179 548-179 479 0 768 339t289 901v128h-572zm1147 238V0h-575v531q-197-318-491-470T1556-91q-537 0-855 302-317 302-317 808 0 590 395 890 396 300 1180 300h807v57q0 397-261 614t-733 217q-300 0-585-72-284-72-546-216v532q315 122 612 182 297 61 578 61 760 0 1135-394 375-393 375-1193z" transform="scale(.01563)"/><path id="DejaVuSans-72" d="M2631 2963q-97 56-211 82-114 27-251 27-488 0-749-317t-261-911V0H581v3500h578v-544q182 319 472 473 291 155 707 155 59 0 131-8 72-7 159-23l3-590z" transform="scale(.01563)"/></defs><use xlink:href="#DejaVuSans-47"/><use xlink:href="#DejaVuSans-69" x="77.49"/><use xlink:href="#DejaVuSans-74" x="105.273"/><use xlink:href="#DejaVuSans-48" x="144.482"/><use xlink:href="#DejaVuSans-75" x="219.678"/><use xlink:href="#DejaVuSans-62" x="283.057"/><use xlink:href="#DejaVuSans-20" x="346.533"/><use xlink:href="#DejaVuSans-73" x="378.32"/><use xlink:href="#DejaVuSans-74" x="430.42"/><use xlink:href="#DejaVuSans-61" x="469.629"/><use xlink:href="#DejaVuSans-72" x="530.908"/><use xlink:href="#DejaVuSans-73" x="572.021"/></g></g><path id="line2d_24" d="m249.201 280.087 2.232-.002H262.45l2.16-.002h4.464l2.088-.003 2.232-.072h4.392l2.16-.001 2.232-.002h4.392l2.232-.005 2.16-.002 2.232-.001 2.232-.002 2.016-.002 2.232-.001 2.16-.002 2.232-.002 2.16-.003 2.232-.003h2.232l2.16-.002 2.232-.002 2.16-.001 2.232-.002 2.232-.002 2.016-.005 2.232-.005 2.16-.003H336.97l2.16-.002 2.232-.003h2.16l2.232-.002 2.232-.001h4.248l2.16-.002 2.232-.003h2.16l2.232-.002 2.232-.002 2.16-.001h2.232l2.16-.002 2.232-.002h2.232l2.088-.003 2.232-.003h2.16l2.232-.005 2.16-.002 2.232-.002 2.232-.005 2.16-.003h2.232l2.16-.002 2.232-.001 2.232-.004 2.016-.005 2.232-.005 2.16-.001 2.232-.004 2.16-.001h2.232l2.232-.004 2.16-.001 2.232-.002 2.16-.002 2.232-.001 2.232-.007h2.016l2.232-.002 2.16-.003 2.232-.005h4.392l2.232-.002 2.16-.003 2.232-.003 2.16-.002h6.48" clip-path="url(#p2738738748)" style="fill:none;stroke:#ffbb78;stroke-width:1.5;stroke-linecap:square"/><path id="line2d_25" d="m293.193 280.087 2.232-.002 2.016-.002h2.232l2.16-.001 2.232-.004h2.16l2.232-.005h2.232l2.16-.001 2.232-.005 2.16-.009 2.232-.001 2.232-.004 2.016-.001 2.232-.002 2.16-.002 2.232-.005H336.97l2.16-.003 2.232-.005 2.16-.005 2.232-.008 2.232-.004 2.016-.005 2.232-.001 2.16-.004 2.232-.006 2.16-.004 2.232-.001 2.232-.002 2.16-.003 2.232-.007 2.16-.003 2.232-.004 2.232-.005 2.088-.003 2.232-.007 2.16-.001 2.232-.007 2.16-.002 2.232-.008 2.232-.01 2.16-.002 2.232-.001 2.16-.002 2.232-.002 2.232-.011 2.016-.007 2.232-.005 2.16-.003 2.232-.009 2.16-.005 2.232-.005 2.232-.003 2.16-.005 2.232-.003 2.16-.01 2.232-.002 2.232-.003 2.016-.004 2.232-.003 2.16-.008 2.232-.01 2.16-.005 2.232-.004 2.232-.015 2.16-.005 2.232-.005 2.16-.008 2.232-.007 2.232-.01 2.016-.001" clip-path="url(#p2738738748)" style="fill:none;stroke:#aec7e8;stroke-width:1.5;stroke-linecap:square"/><path id="line2d_26" d="m148.401 280.087 2.232-.262 92.16-.308 70.056-.805 26.28-.611 30.672-.615 54.864-1.64 19.656-.72 10.872-.279h0" clip-path="url(#p2738738748)" style="fill:none;stroke:#17becf;stroke-width:1.5;stroke-linecap:square"/><g id="text_17" style="fill:#1f77b4" transform="matrix(.14 0 0 -.14 465.907 17.838)"><defs><path id="DejaVuSans-6f" d="M1959 3097q-462 0-731-361t-269-989q0-628 267-989 268-361 733-361 460 0 728 362 269 363 269 988 0 622-269 986-268 364-728 364zm0 487q750 0 1178-488 429-487 429-1349 0-859-429-1349Q2709-91 1959-91q-753 0-1180 489-426 490-426 1349 0 862 426 1349 427 488 1180 488z" transform="scale(.01563)"/><path id="DejaVuSans-68" d="M3513 2113V0h-575v2094q0 497-194 743-194 247-581 247-466 0-735-297-269-296-269-809V0H581v4863h578V2956q207 316 486 472 280 156 646 156 603 0 912-373 310-373 310-1098z" transform="scale(.01563)"/><path id="DejaVuSans-6d" d="M3328 2828q216 388 516 572t706 184q547 0 844-383 297-382 297-1088V0h-578v2094q0 503-179 746-178 244-543 244-447 0-707-297-259-296-259-809V0h-578v2094q0 506-178 748t-550 242q-441 0-701-298-259-298-259-808V0H581v3500h578v-544q197 322 472 475t653 153q382 0 649-194 267-193 395-562z" transform="scale(.01563)"/><path id="DejaVuSans-79" d="M2059-325q-243-625-475-815-231-191-618-191H506v481h338q237 0 368 113 132 112 291 531l103 262L191 3500h609L1894 763l1094 2737h609L2059-325z" transform="scale(.01563)"/><path id="DejaVuSans-7a" d="M353 3500h2731v-525L922 459h2162V0H275v525l2163 2516H353v459z" transform="scale(.01563)"/><path id="DejaVuSans-2f" d="M1625 4666h531L531-594H0l1625 5260z" transform="scale(.01563)"/></defs><use xlink:href="#DejaVuSans-6f"/><use xlink:href="#DejaVuSans-68" x="61.182"/><use xlink:href="#DejaVuSans-6d" x="124.561"/><use xlink:href="#DejaVuSans-79" x="221.973"/><use xlink:href="#DejaVuSans-7a" x="281.152"/><use xlink:href="#DejaVuSans-73" x="333.643"/><use xlink:href="#DejaVuSans-68" x="385.742"/><use xlink:href="#DejaVuSans-2f" x="449.121"/><use xlink:href="#DejaVuSans-6f" x="482.813"/><use xlink:href="#DejaVuSans-68" x="543.994"/><use xlink:href="#DejaVuSans-6d" x="607.373"/><use xlink:href="#DejaVuSans-79" x="704.785"/><use xlink:href="#DejaVuSans-7a" x="763.965"/><use xlink:href="#DejaVuSans-73" x="816.455"/><use xlink:href="#DejaVuSans-68" x="868.555"/></g><g id="text_18" style="fill:#ff7f0e" transform="matrix(.14 0 0 -.14 465.907 131.86)"><defs><path id="DejaVuSans-63" d="M3122 3366v-538q-244 135-489 202t-495 67q-560 0-870-355-309-354-309-995t309-996q310-354 870-354 250 0 495 67t489 202V134Q2881 22 2623-34q-257-57-548-57-791 0-1257 497-465 497-465 1341 0 856 470 1346 471 491 1290 491 265 0 518-55 253-54 491-163z" transform="scale(.01563)"/><path id="DejaVuSans-66" d="M2375 4863v-479h-550q-309 0-430-125-120-125-120-450v-309h947v-447h-947V0H697v3053H147v447h550v244q0 584 272 851 272 268 862 268h544z" transform="scale(.01563)"/><path id="DejaVuSans-65" d="M3597 1894v-281H953q38-594 358-905t892-311q331 0 642 81t618 244V178Q3153 47 2828-22t-659-69q-838 0-1327 487-489 488-489 1320 0 859 464 1363 464 505 1252 505 706 0 1117-455 411-454 411-1235zm-575 169q-6 471-264 752-258 282-683 282-481 0-770-272t-333-766l2050 4z" transform="scale(.01563)"/><path id="DejaVuSans-6e" d="M3513 2113V0h-575v2094q0 497-194 743-194 247-581 247-466 0-735-297-269-296-269-809V0H581v3500h578v-544q207 316 486 472 280 156 646 156 603 0 912-373 310-373 310-1098z" transform="scale(.01563)"/><path id="DejaVuSans-6c" d="M603 4863h575V0H603v4863z" transform="scale(.01563)"/></defs><use xlink:href="#DejaVuSans-6d"/><use xlink:href="#DejaVuSans-69" x="97.412"/><use xlink:href="#DejaVuSans-63" x="125.195"/><use xlink:href="#DejaVuSans-72" x="180.176"/><use xlink:href="#DejaVuSans-6f" x="219.039"/><use xlink:href="#DejaVuSans-73" x="280.221"/><use xlink:href="#DejaVuSans-6f" x="332.32"/><use xlink:href="#DejaVuSans-66" x="393.502"/><use xlink:href="#DejaVuSans-74" x="426.957"/><use xlink:href="#DejaVuSans-2f" x="466.166"/><use xlink:href="#DejaVuSans-74" x="499.857"/><use xlink:href="#DejaVuSans-65" x="539.066"/><use xlink:href="#DejaVuSans-72" x="600.59"/><use xlink:href="#DejaVuSans-6d" x="639.953"/><use xlink:href="#DejaVuSans-69" x="737.365"/><use xlink:href="#DejaVuSans-6e" x="765.148"/><use xlink:href="#DejaVuSans-61" x="828.527"/><use xlink:href="#DejaVuSans-6c" x="889.807"/></g><g id="text_19" style="fill:#2ca02c" transform="matrix(.14 0 0 -.14 465.907 199.734)"><defs><path id="DejaVuSans-50" d="M1259 4147V2394h794q441 0 681 228 241 228 241 650 0 419-241 647-240 228-681 228h-794zm-631 519h1425q785 0 1186-355 402-355 402-1039 0-691-402-1044-401-353-1186-353h-794V0H628v4666z" transform="scale(.01563)"/><path id="DejaVuSans-77" d="M269 3500h575l719-2731 715 2731h678l719-2731 716 2731h575L4050 0h-678l-753 2869L1863 0h-679L269 3500z" transform="scale(.01563)"/><path id="DejaVuSans-53" d="M3425 4513v-616q-359 172-678 256-319 85-616 85-515 0-795-200t-280-569q0-310 186-468 186-157 705-254l381-78q706-135 1042-474t336-907q0-679-455-1029Q2797-91 1919-91q-331 0-705 75-373 75-773 222v650q384-215 753-325 369-109 725-109 540 0 834 212 294 213 294 607 0 343-211 537t-692 291l-385 75q-706 140-1022 440-315 300-315 835 0 619 436 975t1201 356q329 0 669-60 341-59 697-177z" transform="scale(.01563)"/></defs><use xlink:href="#DejaVuSans-50"/><use xlink:href="#DejaVuSans-6f" x="56.678"/><use xlink:href="#DejaVuSans-77" x="117.859"/><use xlink:href="#DejaVuSans-65" x="199.646"/><use xlink:href="#DejaVuSans-72" x="261.17"/><use xlink:href="#DejaVuSans-53" x="302.283"/><use xlink:href="#DejaVuSans-68" x="365.76"/><use xlink:href="#DejaVuSans-65" x="429.139"/><use xlink:href="#DejaVuSans-6c" x="490.662"/><use xlink:href="#DejaVuSans-6c" x="518.445"/><use xlink:href="#DejaVuSans-2f" x="546.229"/><use xlink:href="#DejaVuSans-50" x="579.92"/><use xlink:href="#DejaVuSans-6f" x="636.598"/><use xlink:href="#DejaVuSans-77" x="697.779"/><use xlink:href="#DejaVuSans-65" x="779.566"/><use xlink:href="#DejaVuSans-72" x="841.09"/><use xlink:href="#DejaVuSans-53" x="882.203"/><use xlink:href="#DejaVuSans-68" x="945.68"/><use xlink:href="#DejaVuSans-65" x="1009.059"/><use xlink:href="#DejaVuSans-6c" x="1070.582"/><use xlink:href="#DejaVuSans-6c" x="1098.365"/></g><g id="text_20" style="fill:#d62728" transform="matrix(.14 0 0 -.14 465.907 213.734)"><use xlink:href="#DejaVuSans-6e"/><use xlink:href="#DejaVuSans-75" x="63.379"/><use xlink:href="#DejaVuSans-73" x="126.758"/><use xlink:href="#DejaVuSans-68" x="178.857"/><use xlink:href="#DejaVuSans-65" x="242.236"/><use xlink:href="#DejaVuSans-6c" x="303.76"/><use xlink:href="#DejaVuSans-6c" x="331.543"/><use xlink:href="#DejaVuSans-2f" x="359.326"/><use xlink:href="#DejaVuSans-6e" x="393.018"/><use xlink:href="#DejaVuSans-75" x="456.396"/><use xlink:href="#DejaVuSans-73" x="519.775"/><use xlink:href="#DejaVuSans-68" x="571.875"/><use xlink:href="#DejaVuSans-65" x="635.254"/><use xlink:href="#DejaVuSans-6c" x="696.777"/><use xlink:href="#DejaVuSans-6c" x="724.561"/></g><g id="text_21" style="fill:#9467bd" transform="matrix(.14 0 0 -.14 465.907 227.734)"><defs><path id="DejaVuSans-2d" d="M313 2009h1684v-512H313v512z" transform="scale(.01563)"/></defs><use xlink:href="#DejaVuSans-66"/><use xlink:href="#DejaVuSans-69" x="35.205"/><use xlink:href="#DejaVuSans-73" x="62.988"/><use xlink:href="#DejaVuSans-68" x="115.088"/><use xlink:href="#DejaVuSans-2d" x="178.467"/><use xlink:href="#DejaVuSans-73" x="214.551"/><use xlink:href="#DejaVuSans-68" x="266.65"/><use xlink:href="#DejaVuSans-65" x="330.029"/><use xlink:href="#DejaVuSans-6c" x="391.553"/><use xlink:href="#DejaVuSans-6c" x="419.336"/><use xlink:href="#DejaVuSans-2f" x="447.119"/><use xlink:href="#DejaVuSans-66" x="480.811"/><use xlink:href="#DejaVuSans-69" x="516.016"/><use xlink:href="#DejaVuSans-73" x="543.799"/><use xlink:href="#DejaVuSans-68" x="595.898"/><use xlink:href="#DejaVuSans-2d" x="659.277"/><use xlink:href="#DejaVuSans-73" x="695.361"/><use xlink:href="#DejaVuSans-68" x="747.461"/><use xlink:href="#DejaVuSans-65" x="810.84"/><use xlink:href="#DejaVuSans-6c" x="872.363"/><use xlink:href="#DejaVuSans-6c" x="900.146"/></g><g id="text_22" style="fill:#8c564b" transform="matrix(.14 0 0 -.14 465.907 241.734)"><defs><path id="DejaVuSans-70" d="M1159 525v-1856H581v4831h578v-531q182 312 458 463 277 152 661 152 638 0 1036-506 399-506 399-1331T3314 415Q2916-91 2278-91q-384 0-661 152-276 152-458 464zm1957 1222q0 634-261 995t-717 361q-457 0-718-361t-261-995q0-634 261-995t718-361q456 0 717 361t261 995z" transform="scale(.01563)"/></defs><use xlink:href="#DejaVuSans-73"/><use xlink:href="#DejaVuSans-6f" x="52.1"/><use xlink:href="#DejaVuSans-72" x="113.281"/><use xlink:href="#DejaVuSans-69" x="154.395"/><use xlink:href="#DejaVuSans-6e" x="182.178"/><use xlink:href="#DejaVuSans-2d" x="245.557"/><use xlink:href="#DejaVuSans-69" x="281.641"/><use xlink:href="#DejaVuSans-6f" x="309.424"/><use xlink:href="#DejaVuSans-6e" x="370.605"/><use xlink:href="#DejaVuSans-65" x="433.984"/><use xlink:href="#DejaVuSans-73" x="495.508"/><use xlink:href="#DejaVuSans-63" x="547.607"/><use xlink:href="#DejaVuSans-75" x="602.588"/><use xlink:href="#DejaVuSans-2f" x="665.967"/><use xlink:href="#DejaVuSans-70" x="699.658"/><use xlink:href="#DejaVuSans-72" x="763.135"/><use xlink:href="#DejaVuSans-65" x="801.998"/><use xlink:href="#DejaVuSans-7a" x="863.521"/><use xlink:href="#DejaVuSans-74" x="916.012"/><use xlink:href="#DejaVuSans-6f" x="955.221"/></g><g id="text_23" style="fill:#e377c2" transform="matrix(.14 0 0 -.14 465.907 255.734)"><use xlink:href="#DejaVuSans-6d"/><use xlink:href="#DejaVuSans-6f" x="97.412"/><use xlink:href="#DejaVuSans-62" x="158.594"/><use xlink:href="#DejaVuSans-69" x="222.07"/><use xlink:href="#DejaVuSans-6c" x="249.854"/><use xlink:href="#DejaVuSans-65" x="277.637"/><use xlink:href="#DejaVuSans-2d" x="339.16"/><use xlink:href="#DejaVuSans-73" x="375.244"/><use xlink:href="#DejaVuSans-68" x="427.344"/><use xlink:href="#DejaVuSans-65" x="490.723"/><use xlink:href="#DejaVuSans-6c" x="552.246"/><use xlink:href="#DejaVuSans-6c" x="580.029"/><use xlink:href="#DejaVuSans-2f" x="607.813"/><use xlink:href="#DejaVuSans-6d" x="641.504"/><use xlink:href="#DejaVuSans-6f" x="738.916"/><use xlink:href="#DejaVuSans-73" x="800.098"/><use xlink:href="#DejaVuSans-68" x="852.197"/></g><g id="text_24" style="fill:#7f7f7f" transform="matrix(.14 0 0 -.14 465.907 269.734)"><use xlink:href="#DejaVuSans-6f"/><use xlink:href="#DejaVuSans-68" x="61.182"/><use xlink:href="#DejaVuSans-2d" x="124.561"/><use xlink:href="#DejaVuSans-6d" x="160.645"/><use xlink:href="#DejaVuSans-79" x="258.057"/><use xlink:href="#DejaVuSans-2d" x="315.486"/><use xlink:href="#DejaVuSans-66" x="351.57"/><use xlink:href="#DejaVuSans-69" x="386.775"/><use xlink:href="#DejaVuSans-73" x="414.559"/><use xlink:href="#DejaVuSans-68" x="466.658"/><use xlink:href="#DejaVuSans-2f" x="530.037"/><use xlink:href="#DejaVuSans-6f" x="563.729"/><use xlink:href="#DejaVuSans-68" x="624.91"/><use xlink:href="#DejaVuSans-2d" x="688.289"/><use xlink:href="#DejaVuSans-6d" x="724.373"/><use xlink:href="#DejaVuSans-79" x="821.785"/><use xlink:href="#DejaVuSans-2d" x="879.215"/><use xlink:href="#DejaVuSans-66" x="915.299"/><use xlink:href="#DejaVuSans-69" x="950.504"/><use xlink:href="#DejaVuSans-73" x="978.287"/><use xlink:href="#DejaVuSans-68" x="1030.387"/></g><g id="text_25" style="fill:#bcbd22" transform="matrix(.14 0 0 -.14 465.907 283.734)"><defs><path id="DejaVuSans-76" d="M191 3500h609L1894 563l1094 2937h609L2284 0h-781L191 3500z" transform="scale(.01563)"/></defs><use xlink:href="#DejaVuSans-65"/><use xlink:href="#DejaVuSans-6c" x="61.523"/><use xlink:href="#DejaVuSans-76" x="89.307"/><use xlink:href="#DejaVuSans-65" x="148.486"/><use xlink:href="#DejaVuSans-73" x="210.01"/><use xlink:href="#DejaVuSans-2f" x="262.109"/><use xlink:href="#DejaVuSans-65" x="295.801"/><use xlink:href="#DejaVuSans-6c" x="357.324"/><use xlink:href="#DejaVuSans-76" x="385.107"/><use xlink:href="#DejaVuSans-69" x="444.287"/><use xlink:href="#DejaVuSans-73" x="472.07"/><use xlink:href="#DejaVuSans-68" x="524.17"/></g><g id="text_26" style="fill:#17becf" transform="matrix(.14 0 0 -.14 465.907 297.734)"><use xlink:href="#DejaVuSans-7a"/><use xlink:href="#DejaVuSans-73" x="52.49"/><use xlink:href="#DejaVuSans-68" x="104.59"/><use xlink:href="#DejaVuSans-2d" x="167.969"/><use xlink:href="#DejaVuSans-75" x="204.053"/><use xlink:href="#DejaVuSans-73" x="267.432"/><use xlink:href="#DejaVuSans-65" x="319.531"/><use xlink:href="#DejaVuSans-72" x="381.055"/><use xlink:href="#DejaVuSans-73" x="422.168"/><use xlink:href="#DejaVuSans-2f" x="474.268"/><use xlink:href="#DejaVuSans-7a" x="507.959"/><use xlink:href="#DejaVuSans-73" x="560.449"/><use xlink:href="#DejaVuSans-68" x="612.549"/></g><g id="text_27" style="fill:#aec7e8" transform="matrix(.14 0 0 -.14 465.907 311.734)"><defs><path id="DejaVuSans-67" d="M2906 1791q0 625-258 968-257 344-723 344-462 0-720-344-258-343-258-968 0-622 258-966t720-344q466 0 723 344 258 344 258 966zm575-1357q0-893-397-1329-396-436-1215-436-303 0-572 45t-522 139v559q253-137 500-202 247-66 503-66 566 0 847 295t281 892v285q-178-310-456-463T1784 0Q1141 0 747 490 353 981 353 1791q0 812 394 1302 394 491 1037 491 388 0 666-153t456-462v531h575V434z" transform="scale(.01563)"/></defs><use xlink:href="#DejaVuSans-74"/><use xlink:href="#DejaVuSans-63" x="39.209"/><use xlink:href="#DejaVuSans-73" x="94.189"/><use xlink:href="#DejaVuSans-68" x="146.289"/><use xlink:href="#DejaVuSans-2d" x="209.668"/><use xlink:href="#DejaVuSans-6f" x="247.627"/><use xlink:href="#DejaVuSans-72" x="308.809"/><use xlink:href="#DejaVuSans-67" x="348.172"/><use xlink:href="#DejaVuSans-2f" x="411.648"/><use xlink:href="#DejaVuSans-74" x="445.34"/><use xlink:href="#DejaVuSans-63" x="484.549"/><use xlink:href="#DejaVuSans-73" x="539.529"/><use xlink:href="#DejaVuSans-68" x="591.629"/></g><g id="text_28" style="fill:#ffbb78" transform="matrix(.14 0 0 -.14 465.907 325.734)"><use xlink:href="#DejaVuSans-61"/><use xlink:href="#DejaVuSans-73" x="61.279"/><use xlink:href="#DejaVuSans-68" x="113.379"/><use xlink:href="#DejaVuSans-2d" x="176.758"/><use xlink:href="#DejaVuSans-73" x="212.842"/><use xlink:href="#DejaVuSans-68" x="264.941"/><use xlink:href="#DejaVuSans-65" x="328.32"/><use xlink:href="#DejaVuSans-6c" x="389.844"/><use xlink:href="#DejaVuSans-6c" x="417.627"/><use xlink:href="#DejaVuSans-2f" x="445.41"/><use xlink:href="#DejaVuSans-61" x="479.102"/><use xlink:href="#DejaVuSans-73" x="540.381"/><use xlink:href="#DejaVuSans-68" x="592.48"/></g><g id="text_29" style="fill:#b0b0b0" transform="matrix(.09716 0 0 -.09716 98.073 314.123)"><defs><path id="DejaVuSans-40" d="M2381 1678q0-447 222-702 222-254 610-254 384 0 604 256 221 256 221 700 0 438-225 695-225 258-607 258-378 0-602-256-223-256-223-697zm1703-934q-187-241-429-355t-564-114q-538 0-874 389t-336 1014q0 625 337 1015 338 391 873 391 322 0 565-117 244-117 428-354v409h447V722q457 69 714 417 258 349 258 902 0 334-99 628-98 294-298 544-325 409-792 626t-1017 217q-384 0-738-102-353-101-653-301-490-319-767-836-276-517-276-1120 0-497 179-932 180-434 521-765 328-325 759-495 431-171 922-171 403 0 792 136t714 389l281-347q-390-303-851-464t-936-161q-578 0-1091 205-512 205-912 595Q841 78 631 592q-209 514-209 1105 0 569 212 1084 213 516 607 907 403 396 931 607t1119 211q662 0 1229-272 568-271 952-771 234-307 357-666 124-359 124-744 0-822-497-1297T4084 263v481z" transform="scale(.01563)"/><path id="DejaVuSans-64" d="M2906 2969v1894h575V0h-575v525q-181-312-458-464-276-152-664-152-634 0-1033 506-398 507-398 1332t398 1331q399 506 1033 506 388 0 664-152 277-151 458-463zM947 1747q0-634 261-995t717-361q456 0 718 361 263 361 263 995t-263 995q-262 361-718 361t-717-361q-261-361-261-995z" transform="scale(.01563)"/><path id="DejaVuSans-7c" d="M1344 4891v-6400H813v6400h531z" transform="scale(.01563)"/><path id="DejaVuSans-4e" d="M628 4666h850L3547 763v3903h612V0h-850L1241 3903V0H628v4666z" transform="scale(.01563)"/><path id="DejaVuSans-f6" d="M1959 3097q-462 0-731-361t-269-989q0-628 267-989 268-361 733-361 460 0 728 362 269 363 269 988 0 622-269 986-268 364-728 364zm0 487q750 0 1178-488 429-487 429-1349 0-859-429-1349Q2709-91 1959-91q-753 0-1180 489-426 490-426 1349 0 862 426 1349 427 488 1180 488zm295 1266h634v-631h-634v631zm-1222 0h634v-631h-634v631z" transform="scale(.01563)"/><path id="DejaVuSans-43" d="M4122 4306v-665q-319 297-680 443-361 147-767 147-800 0-1225-489t-425-1414q0-922 425-1411t1225-489q406 0 767 147t680 444V359q-331-225-702-338-370-112-782-112-1060 0-1670 648-609 649-609 1771 0 1125 609 1773 610 649 1670 649 418 0 788-111 371-111 696-333z" transform="scale(.01563)"/><path id="DejaVuSans-42" d="M1259 2228V519h1013q509 0 754 211 246 211 246 645 0 438-246 645-245 208-754 208H1259zm0 1919V2741h935q462 0 688 173 227 174 227 530 0 353-227 528-226 175-688 175h-935zm-631 519h1613q722 0 1112-300 391-300 391-853 0-429-200-682t-588-315q466-100 724-418 258-317 258-792 0-625-425-966Q3088 0 2303 0H628v4666z" transform="scale(.01563)"/><path id="DejaVuSans-59" d="M-13 4666h679l1293-1919 1285 1919h678L2272 2222V0h-634v2222L-13 4666z" transform="scale(.01563)"/></defs><use xlink:href="#DejaVuSans-40"/><use xlink:href="#DejaVuSans-6e" x="100"/><use xlink:href="#DejaVuSans-73" x="163.379"/><use xlink:href="#DejaVuSans-63" x="215.479"/><use xlink:href="#DejaVuSans-68" x="270.459"/><use xlink:href="#DejaVuSans-6c" x="333.838"/><use xlink:href="#DejaVuSans-6f" x="361.621"/><use xlink:href="#DejaVuSans-65" x="422.803"/><use xlink:href="#DejaVuSans-20" x="484.326"/><use xlink:href="#DejaVuSans-2f" x="516.113"/><use xlink:href="#DejaVuSans-20" x="549.805"/><use xlink:href="#DejaVuSans-67" x="581.592"/><use xlink:href="#DejaVuSans-69" x="645.068"/><use xlink:href="#DejaVuSans-74" x="672.852"/><use xlink:href="#DejaVuSans-68" x="712.061"/><use xlink:href="#DejaVuSans-75" x="775.439"/><use xlink:href="#DejaVuSans-62" x="838.818"/><use xlink:href="#DejaVuSans-2d" x="902.295"/><use xlink:href="#DejaVuSans-74" x="938.379"/><use xlink:href="#DejaVuSans-72" x="977.588"/><use xlink:href="#DejaVuSans-65" x="1016.451"/><use xlink:href="#DejaVuSans-6e" x="1077.975"/><use xlink:href="#DejaVuSans-64" x="1141.354"/><use xlink:href="#DejaVuSans-73" x="1204.83"/><use xlink:href="#DejaVuSans-20" x="1256.93"/><use xlink:href="#DejaVuSans-7c" x="1288.717"/><use xlink:href="#DejaVuSans-20" x="1322.408"/><use xlink:href="#DejaVuSans-4e" x="1354.195"/><use xlink:href="#DejaVuSans-69" x="1429"/><use xlink:href="#DejaVuSans-63" x="1456.783"/><use xlink:href="#DejaVuSans-6f" x="1511.764"/><use xlink:href="#DejaVuSans-20" x="1572.945"/><use xlink:href="#DejaVuSans-53" x="1604.732"/><use xlink:href="#DejaVuSans-63" x="1668.209"/><use xlink:href="#DejaVuSans-68" x="1723.189"/><use xlink:href="#DejaVuSans-6c" x="1786.568"/><use xlink:href="#DejaVuSans-f6" x="1814.352"/><use xlink:href="#DejaVuSans-6d" x="1875.533"/><use xlink:href="#DejaVuSans-65" x="1972.945"/><use xlink:href="#DejaVuSans-72" x="2034.469"/><use xlink:href="#DejaVuSans-20" x="2075.582"/><use xlink:href="#DejaVuSans-7c" x="2107.369"/><use xlink:href="#DejaVuSans-20" x="2141.061"/><use xlink:href="#DejaVuSans-43" x="2172.848"/><use xlink:href="#DejaVuSans-43" x="2242.672"/><use xlink:href="#DejaVuSans-20" x="2312.496"/><use xlink:href="#DejaVuSans-42" x="2344.283"/><use xlink:href="#DejaVuSans-59" x="2407.387"/></g><path id="line2d_27" d="m212.05 280.087 2.231-.002 2.232-.003h2.016l2.232-.007h2.16l2.232-.005 2.16-.002 2.232-1.316 2.232-.181 2.16-.079 2.232-.015 2.16-.015 2.232-.016 2.232-.024 2.016-.07 2.232-.046 2.16-.029 2.232-.058 2.16-.017 2.232-.013 2.232-.018 2.16-.017 2.232-.013 2.16-.054 2.232-.045 2.232-.035 2.088-.043 2.232-.045 2.16-.041 2.232-.025 2.16-.017 2.232-.062 2.232-.026 2.16-.08 2.232-.032 2.16-.052 2.232-.1 2.232-.06 2.016-.038 2.232-.037 2.16-.03 2.232-.073 2.16-.038 2.232-1.095 2.232-.065 2.16-.063 2.232-.098 2.16-.15 2.232-.085 2.232-.094 2.016-.071 2.232-.077 2.16-.045 2.232-.056 2.16-.07 2.232-.062 2.232-.065 2.16-.053 2.232-.057 2.16-.078 2.232-.06 2.232-.085 2.016-.045 2.232-.072 2.16-.057 2.232-.068 2.16-.055 2.232-.051 2.232-.104 2.16-.056 2.232-.044 2.16-.051 2.232-.06 2.232-.035 2.088-.03 2.232-.075 2.16-.074 2.232-.046 2.16-.045 2.232-.052 2.232-.055 2.16-.241 2.232-.072 2.16-.032 2.232-.036 2.232-.055 2.016-.084 2.232-.093 2.16-.053 2.232-.064 2.16-.121 2.232-.095 2.232-.085 2.16-.075 2.232-.053 2.16-.057 2.232-.117 2.232-.06 2.016-.043 2.232-.053 2.16-.074 2.232-.061 2.16-.04 2.232-.044 2.232-.053 2.16-.055 2.232-.052 2.16-.061 2.232-.048 2.232-.057 2.016-.047" clip-path="url(#p2738738748)" style="fill:none;stroke:#bcbd22;stroke-width:1.5;stroke-linecap:square"/><path id="line2d_28" d="m258.057 280.087 2.16-.179 2.232-.185 2.16-.206 2.232-.195 2.232-.188 2.088-.037 2.232-.187 2.16-.256 2.232-.172 2.16-.141 2.232-.142 2.232-.133 2.16-.132 2.232-.148 2.16-.148 2.232-.139 2.232-.188 2.016-.192 2.232-.158 2.16-.145 2.232-.23 2.16-.138 2.232-.178 2.232-.16 2.16-.132 2.232-.163 2.16-.155 2.232-.155 2.232-.206 2.016-.147 2.232-.193 2.16-.182 2.232-.155 2.16-.135 2.232-.155 2.232-.195 2.16-.173 2.232-.163 2.16-.235 2.232-.227 2.232-.255 2.016-.225 2.232-.181 2.16-.202 2.232-.195 2.16-.225 2.232-.201 2.232-.162 2.16-.158 2.232-.147 2.16-.173 2.232-.138 2.232-.153 2.088-.185 2.232-.165 2.16-.229 2.232-.19 2.16-.196 2.232-.183 2.232-.149 2.16-.175 2.232-.19 2.16-.191 2.232-.188 2.232-.169 2.016-.181 2.232-.174 2.16-.154 2.232-.235 2.16-.144 2.232-.161 2.232-.147 2.16-.136 2.232-.167 2.16-.2 2.232-.222 2.232-.183 2.016-.161 2.232-.224 2.16-.201 2.232-.189 2.16-.154 2.232-.17 2.232-.229 2.16-.168 2.232-.16 2.16-.168 2.232-.148 2.232-.154 2.016-.191" clip-path="url(#p2738738748)" style="fill:none;stroke:#7f7f7f;stroke-width:1.5;stroke-linecap:square"/><path id="line2d_29" d="m135.37 280.087 2.231-1.828 30.6-.776 8.784-.105 15.264-.087 39.528-1.818 2.16-.806 6.624-.358 2.232-.275 13.032-.683 13.248-.875 4.32-.225 2.16-.476 43.92-2.842 48.168-3.063 41.616-2.392 4.392-.207 2.232-.281 19.656-1.125 19.656-1.18h0" clip-path="url(#p2738738748)" style="fill:none;stroke:#e377c2;stroke-width:1.5;stroke-linecap:square"/><path id="line2d_30" d="m133.137 280.087 2.232-.61 39.384-.257 17.496-.07 28.512-1.66 8.784-.739 2.232-.554 11.016-1.2 2.016-.218 2.232-.432 11.016-1.284 8.784-.962 2.232-.396 2.088-.248 2.232-.395 11.016-1.116 4.392-.41 2.16-.307 21.888-1.857 28.512-2.531 13.032-.933 13.248-1.085 6.624-.515 37.152-2.38 43.776-2.22h0" clip-path="url(#p2738738748)" style="fill:none;stroke:#8c564b;stroke-width:1.5;stroke-linecap:square"/><path id="line2d_31" d="m170.361 280.087 2.232-1.065 19.656-.127 2.232-.143 4.392-.896 8.784-.575 2.232-.318 6.624-.492 19.656-1.216 13.032-.964 2.232-.495 2.16-.157 2.232-.301 6.624-.625 4.392-.49 13.104-1.69 19.728-1.887 2.16-.24 2.232-.363 8.784-.865 6.624-1.04 24.048-3.485 4.464-1.749 2.016-.55 4.392-.874 6.624-1.093 6.624-.815 6.624-.85 4.32-.593 4.392-.71 4.392-.498 6.624-.748 8.64-1.174 2.232-.458 11.016-1.32 4.392-.565 8.64-1.413 2.232-.623 6.552-.988 13.248-1.914 2.232-.601 2.016-1.085h0" clip-path="url(#p2738738748)" style="fill:none;stroke:#9467bd;stroke-width:1.5;stroke-linecap:square"/><path id="line2d_32" d="m354.393 280.087 2.232-.012 2.16-.017 2.232-.015 2.232-5.194 2.16-2.153 2.232-1.066 2.16-.72 2.232-.401 2.232-.315 2.088-.295 2.232-.355 2.16-.416 2.232-.93 2.16-.567 2.232-.483 2.232-.653 2.16-.215 2.232-.185 2.16-.198 2.232-.218 2.232-.407 2.016-.353 2.232-2.16 2.16-.406 2.232-.466 2.16-5.003 2.232-1.21 2.232-.626 2.16-.86 2.232-.486 2.16-.808 2.232-.523 2.232-.342 2.016-.393 2.232-1.345 2.16-1.507 2.232-.735 2.16-.638 2.232-.688 2.232-.66 2.16-.858 2.232-.6 2.16-1.388 2.232-.568 2.232-.616 2.016-1.231" clip-path="url(#p2738738748)" style="fill:none;stroke:#d62728;stroke-width:1.5;stroke-linecap:square"/><path id="line2d_33" d="m266.841 280.087 2.232-.005 2.088-.004h2.232l2.16-.003 2.232-.002h2.16l2.232-.001 2.232-7.226 2.16-.676 2.232-.319 2.16-.376 2.232-.26 2.232-.37 2.016-.373 2.232-.435 2.16-.348 2.232-.407 2.16-.351 2.232-.312 2.232-.381 2.16-.392 2.232-.423 2.16-.435 2.232-.414 2.232-.87 2.016-.4 2.232-.503 2.16-.42 2.232-.425 2.16-.43 2.232-.423 2.232-.406 2.16-.437 2.232-.46 2.16-.373 2.232-.401 2.232-.48 2.016-.377 2.232-.634 2.16-.629 2.232-.843 2.16-.96 2.232-.824 2.232-.778 2.16-.731 2.232-.835 2.16-.601 2.232-.577 2.232-.605 2.088-.673 2.232-1.24 2.16-.762 2.232-1.098 2.16-.915 2.232-1.29 2.232-.8 2.16-1.559 2.232-.916 2.16-.848 2.232-.723 2.232-.715 2.016-1.058 2.232-1.492 2.16-.73 2.232-.698 2.16-1.141 2.232-1.935 2.232-2.607 2.16-.613 2.232-1.248 2.16-1.458 2.232-.621 2.232-1.046 2.016-.497 2.232-1.283 2.16-1.148 2.232-1.06 2.16-.614 2.232-.595 2.232-.933 2.16-.564 2.232-1.16 2.16-.946 2.232-.648 2.232-.77 2.016-.658" clip-path="url(#p2738738748)" style="fill:none;stroke:#2ca02c;stroke-width:1.5;stroke-linecap:square"/><path id="line2d_34" d="m308.457 280.087 2.232-.17 2.16-.045 2.232-.107 2.16-.088 2.232-.072 2.232-.075 2.016-.073 2.232-.078 2.16-.075 2.232-.142 2.16-.102 2.232-.115 2.232-.151 2.16-.103 2.232-.137 2.16-.11 2.232-.157 2.232-.206 2.016-.167 2.232-.196 2.16-.21 2.232-63.206 2.16-8.822 2.232-3.034 2.232-3.035 2.16-2.303 2.232-2.086 2.16-2.06 2.232-1.911 2.232-2.116 2.088-1.946 2.232-2.31 2.16-2.342 2.232-5.248 2.16-2.65 2.232-2.248 2.232-1.786 2.16-1.39 2.232-1.437 2.16-1.58 2.232-1.489 2.232-1.746 2.016-1.483 2.232-1.413 2.16-1.5 2.232-2.007 2.16-1.204 2.232-1.846 2.232-1.431 2.16-1.596 2.232-1.64 2.16-1.234 2.232-1.546 2.232-1.155 2.016-2.314 2.232-1.746 2.16-1.454 2.232-1.438 2.16-1.026 2.232-1.112 2.232-1.457 2.16-1.005 2.232-.996 2.16-.805 2.232-1.195 2.232-1.242 2.016-.922" clip-path="url(#p2738738748)" style="fill:none;stroke:#ff7f0e;stroke-width:1.5;stroke-linecap:square"/><path id="line2d_35" d="m98.073 280.087 2.232-3.95 11.016-1.158 4.248-.553 37.296-4.664 6.552-.631 10.944-.816 6.624-.295 13.248-.24 2.016-.33 4.392-1.305 2.232-1.008 2.16-.651 2.232-.933 8.784-2.777 6.48-2.25 17.64-7.402 2.16-1.184 4.464-1.938 2.016-.99 2.232-1.267 4.392-2.907 2.16-1.342 4.464-3.225 2.16-1.574 4.392-3.577 4.464-3.53 2.088-1.67 2.232-2.5 6.552-5.375 4.464-5.03 4.392-4.185 2.16-2.234 6.48-6.315 2.232-2.882 2.16-2.306 4.392-4.258 2.232-2.303 2.232-2.489 4.392-4.393 2.16-2.45 2.232-2.133 6.48-6.984 4.392-5.43 4.392-4.793 2.232-2.746 13.032-14.286 6.624-8.542 2.16-3.557 2.232-2.87 2.232-2.67 2.16-2.323 2.232-3.587 2.16-3.049 8.784-10.924 2.16-5.16 2.232-3.715 4.392-5.6 6.624-7.67 4.392-5.901 15.264-17.607 4.392-4.668 2.232-3.479 4.392-6.047 6.48-8.269 2.16-2.862 4.392-5.043 6.624-6.984 4.392-4.284 2.232-1.874 2.232-2.08 2.016-2.088h0" clip-path="url(#p2738738748)" style="fill:none;stroke:#1f77b4;stroke-width:1.5;stroke-linecap:square"/></g></g><defs><clipPath id="p2738738748"><path d="M98.073 13.975h357.12v266.112H98.073z"/></clipPath></defs></svg>