<svg xmlns="http://www.w3.org/2000/svg" xmlns:xlink="http://www.w3.org/1999/xlink" width="907.006" height="434.857" viewBox="0 0 680.254 326.143"><defs><style>*{stroke-linejoin:round;stroke-linecap:butt}</style></defs><g id="figure_1"><path id="patch_1" d="M0 326.143h680.254V0H0v326.143z" style="fill:none"/><g id="axes_1"><path id="patch_2" d="M98.073 282.616h357.12V16.504H98.073v266.112z" style="fill:none"/><g id="matplotlib.axis_1"><g id="xtick_1"><g id="line2d_1"><defs><path id="m014384f389" d="M0 0v3.5" style="stroke:#b0b0b0;stroke-width:.4"/></defs><use xlink:href="#m014384f389" x="103.338" y="282.616" style="fill:#b0b0b0;stroke:#b0b0b0;stroke-width:.4"/></g><g id="text_1" style="fill:#b0b0b0" transform="matrix(.14 0 0 -.14 85.523 300.253)"><defs><path id="DejaVuSans-32" d="M1228 531h2203V0H469v531q359 372 979 998 621 627 780 809 303 340 423 576 121 236 121 464 0 372-261 606-261 235-680 235-297 0-627-103-329-103-704-313v638q381 153 712 231 332 78 607 78 725 0 1156-363 431-362 431-968 0-288-108-546-107-257-392-607-78-91-497-524-418-433-1181-1211z" transform="scale(.01563)"/><path id="DejaVuSans-30" d="M2034 4250q-487 0-733-480-245-479-245-1442 0-959 245-1439 246-480 733-480 491 0 736 480 246 480 246 1439 0 963-246 1442-245 480-736 480zm0 500q785 0 1199-621 414-620 414-1801 0-1178-414-1799Q2819-91 2034-91q-784 0-1198 620-414 621-414 1799 0 1181 414 1801 414 621 1198 621z" transform="scale(.01563)"/><path id="DejaVuSans-31" d="M794 531h1031v3560L703 3866v575l1116 225h631V531h1031V0H794v531z" transform="scale(.01563)"/></defs><use xlink:href="#DejaVuSans-32"/><use xlink:href="#DejaVuSans-30" x="63.623"/><use xlink:href="#DejaVuSans-31" x="127.246"/><use xlink:href="#DejaVuSans-32" x="190.869"/></g></g><g id="xtick_2"><use xlink:href="#m014384f389" id="line2d_2" x="166.425" y="282.616" style="fill:#b0b0b0;stroke:#b0b0b0;stroke-width:.4"/><g id="text_2" style="fill:#b0b0b0" transform="matrix(.14 0 0 -.14 148.61 300.253)"><defs><path id="DejaVuSans-34" d="M2419 4116 825 1625h1594v2491zm-166 550h794V1625h666v-525h-666V0h-628v1100H313v609l1940 2957z" transform="scale(.01563)"/></defs><use xlink:href="#DejaVuSans-32"/><use xlink:href="#DejaVuSans-30" x="63.623"/><use xlink:href="#DejaVuSans-31" x="127.246"/><use xlink:href="#DejaVuSans-34" x="190.869"/></g></g><g id="xtick_3"><use xlink:href="#m014384f389" id="line2d_3" x="229.426" y="282.616" style="fill:#b0b0b0;stroke:#b0b0b0;stroke-width:.4"/><g id="text_3" style="fill:#b0b0b0" transform="matrix(.14 0 0 -.14 211.61 300.253)"><defs><path id="DejaVuSans-36" d="M2113 2584q-425 0-674-291-248-290-248-796 0-503 248-796 249-292 674-292t673 292q248 293 248 796 0 506-248 796-248 291-673 291zm1253 1979v-575q-238 112-480 171-242 60-480 60-625 0-955-422-329-422-376-1275 184 272 462 417 279 145 613 145 703 0 1111-427 408-426 408-1160 0-719-425-1154Q2819-91 2113-91q-810 0-1238 620-428 621-428 1799 0 1106 525 1764t1409 658q238 0 480-47t505-140z" transform="scale(.01563)"/></defs><use xlink:href="#DejaVuSans-32"/><use xlink:href="#DejaVuSans-30" x="63.623"/><use xlink:href="#DejaVuSans-31" x="127.246"/><use xlink:href="#DejaVuSans-36" x="190.869"/></g></g><g id="xtick_4"><use xlink:href="#m014384f389" id="line2d_4" x="292.513" y="282.616" style="fill:#b0b0b0;stroke:#b0b0b0;stroke-width:.4"/><g id="text_4" style="fill:#b0b0b0" transform="matrix(.14 0 0 -.14 274.698 300.253)"><defs><path id="DejaVuSans-38" d="M2034 2216q-450 0-708-241-257-241-257-662 0-422 257-663 258-241 708-241t709 242q260 243 260 662 0 421-258 662-257 241-711 241zm-631 268q-406 100-633 378-226 279-226 679 0 559 398 884 399 325 1092 325 697 0 1094-325t397-884q0-400-227-679-226-278-629-378 456-106 710-416 255-309 255-755 0-679-414-1042Q2806-91 2034-91q-771 0-1186 362-414 363-414 1042 0 446 256 755 257 310 713 416zm-231 997q0-362 226-565 227-203 636-203 407 0 636 203 230 203 230 565 0 363-230 566-229 203-636 203-409 0-636-203-226-203-226-566z" transform="scale(.01563)"/></defs><use xlink:href="#DejaVuSans-32"/><use xlink:href="#DejaVuSans-30" x="63.623"/><use xlink:href="#DejaVuSans-31" x="127.246"/><use xlink:href="#DejaVuSans-38" x="190.869"/></g></g><g id="xtick_5"><use xlink:href="#m014384f389" id="line2d_5" x="355.514" y="282.616" style="fill:#b0b0b0;stroke:#b0b0b0;stroke-width:.4"/><g id="text_5" style="fill:#b0b0b0" transform="matrix(.14 0 0 -.14 337.699 300.253)"><use xlink:href="#DejaVuSans-32"/><use xlink:href="#DejaVuSans-30" x="63.623"/><use xlink:href="#DejaVuSans-32" x="127.246"/><use xlink:href="#DejaVuSans-30" x="190.869"/></g></g><g id="xtick_6"><use xlink:href="#m014384f389" id="line2d_6" x="418.601" y="282.616" style="fill:#b0b0b0;stroke:#b0b0b0;stroke-width:.4"/><g id="text_6" style="fill:#b0b0b0" transform="matrix(.14 0 0 -.14 400.786 300.253)"><use xlink:href="#DejaVuSans-32"/><use xlink:href="#DejaVuSans-30" x="63.623"/><use xlink:href="#DejaVuSans-32" x="127.246"/><use xlink:href="#DejaVuSans-32" x="190.869"/></g></g></g><g id="matplotlib.axis_2"><g id="ytick_1"><path id="line2d_7" d="M98.073 282.616h357.12" clip-path="url(#p3f6f51ac8a)" style="fill:none;stroke:#b0b0b0;stroke-width:.3;stroke-linecap:square"/><g id="line2d_8"><defs><path id="me6e6c55166" d="M0 0h-3.5" style="stroke:#b0b0b0;stroke-width:.3"/></defs><use xlink:href="#me6e6c55166" x="98.073" y="282.616" style="fill:#b0b0b0;stroke:#b0b0b0;stroke-width:.3"/></g><use xlink:href="#DejaVuSans-30" id="text_7" style="fill:#b0b0b0" transform="matrix(.14 0 0 -.14 82.166 287.934)"/></g><g id="ytick_2"><path id="line2d_9" d="M98.073 226.055h357.12" clip-path="url(#p3f6f51ac8a)" style="fill:none;stroke:#b0b0b0;stroke-width:.3;stroke-linecap:square"/><use xlink:href="#me6e6c55166" id="line2d_10" x="98.073" y="226.055" style="fill:#b0b0b0;stroke:#b0b0b0;stroke-width:.3"/><g id="text_8" style="fill:#b0b0b0" transform="matrix(.14 0 0 -.14 46.536 231.374)"><use xlink:href="#DejaVuSans-31"/><use xlink:href="#DejaVuSans-30" x="63.623"/><use xlink:href="#DejaVuSans-30" x="127.246"/><use xlink:href="#DejaVuSans-30" x="190.869"/><use xlink:href="#DejaVuSans-30" x="254.492"/></g></g><g id="ytick_3"><path id="line2d_11" d="M98.073 169.494h357.12" clip-path="url(#p3f6f51ac8a)" style="fill:none;stroke:#b0b0b0;stroke-width:.3;stroke-linecap:square"/><use xlink:href="#me6e6c55166" id="line2d_12" x="98.073" y="169.494" style="fill:#b0b0b0;stroke:#b0b0b0;stroke-width:.3"/><g id="text_9" style="fill:#b0b0b0" transform="matrix(.14 0 0 -.14 46.536 174.813)"><use xlink:href="#DejaVuSans-32"/><use xlink:href="#DejaVuSans-30" x="63.623"/><use xlink:href="#DejaVuSans-30" x="127.246"/><use xlink:href="#DejaVuSans-30" x="190.869"/><use xlink:href="#DejaVuSans-30" x="254.492"/></g></g><g id="ytick_4"><path id="line2d_13" d="M98.073 112.934h357.12" clip-path="url(#p3f6f51ac8a)" style="fill:none;stroke:#b0b0b0;stroke-width:.3;stroke-linecap:square"/><use xlink:href="#me6e6c55166" id="line2d_14" x="98.073" y="112.934" style="fill:#b0b0b0;stroke:#b0b0b0;stroke-width:.3"/><g id="text_10" style="fill:#b0b0b0" transform="matrix(.14 0 0 -.14 46.536 118.253)"><defs><path id="DejaVuSans-33" d="M2597 2516q453-97 707-404 255-306 255-756 0-690-475-1069Q2609-91 1734-91q-293 0-604 58T488 141v609q262-153 574-231 313-78 654-78 593 0 904 234t311 681q0 413-289 645-289 233-804 233h-544v519h569q465 0 712 186t247 536q0 359-255 551-254 193-729 193-260 0-557-57-297-56-653-174v562q360 100 674 150t592 50q719 0 1137-327 419-326 419-882 0-388-222-655t-631-370z" transform="scale(.01563)"/></defs><use xlink:href="#DejaVuSans-33"/><use xlink:href="#DejaVuSans-30" x="63.623"/><use xlink:href="#DejaVuSans-30" x="127.246"/><use xlink:href="#DejaVuSans-30" x="190.869"/><use xlink:href="#DejaVuSans-30" x="254.492"/></g></g><g id="ytick_5"><path id="line2d_15" d="M98.073 56.373h357.12" clip-path="url(#p3f6f51ac8a)" style="fill:none;stroke:#b0b0b0;stroke-width:.3;stroke-linecap:square"/><use xlink:href="#me6e6c55166" id="line2d_16" x="98.073" y="56.373" style="fill:#b0b0b0;stroke:#b0b0b0;stroke-width:.3"/><g id="text_11" style="fill:#b0b0b0" transform="matrix(.14 0 0 -.14 46.536 61.692)"><use xlink:href="#DejaVuSans-34"/><use xlink:href="#DejaVuSans-30" x="63.623"/><use xlink:href="#DejaVuSans-30" x="127.246"/><use xlink:href="#DejaVuSans-30" x="190.869"/><use xlink:href="#DejaVuSans-30" x="254.492"/></g></g><g id="text_12" style="fill:#b0b0b0" transform="matrix(.14 0 0 -.14 7.2 26.85)"><defs><path id="DejaVuSans-47" d="M3809 666v1253H2778v519h1656V434q-365-259-806-392-440-133-940-133-1094 0-1712 639-617 640-617 1780 0 1144 617 1783 618 639 1712 639 456 0 867-113 411-112 758-331v-672q-350 297-744 447t-828 150q-857 0-1287-478-429-478-429-1425 0-944 429-1422 430-478 1287-478 334 0 596 58 263 58 472 180z" transform="scale(.01563)"/><path id="DejaVuSans-69" d="M603 3500h575V0H603v3500zm0 1363h575v-729H603v729z" transform="scale(.01563)"/><path id="DejaVuSans-74" d="M1172 4494v-994h1184v-447H1172V1153q0-428 117-550t477-122h590V0h-590q-666 0-919 248-253 249-253 905v1900H172v447h422v994h578z" transform="scale(.01563)"/><path id="DejaVuSans-48" d="M628 4666h631V2753h2294v1913h631V0h-631v2222H1259V0H628v4666z" transform="scale(.01563)"/><path id="DejaVuSans-75" d="M544 1381v2119h575V1403q0-497 193-746 194-248 582-248 465 0 735 297 271 297 271 810v1984h575V0h-575v538q-209-319-486-474-276-155-642-155-603 0-916 375-312 375-312 1097zm1447 2203z" transform="scale(.01563)"/><path id="DejaVuSans-62" d="M3116 1747q0 634-261 995t-717 361q-457 0-718-361t-261-995q0-634 261-995t718-361q456 0 717 361t261 995zM1159 2969q182 312 458 463 277 152 661 152 638 0 1036-506 399-506 399-1331T3314 415Q2916-91 2278-91q-384 0-661 152-276 152-458 464V0H581v4863h578V2969z" transform="scale(.01563)"/><path id="DejaVuSans-73" d="M2834 3397v-544q-243 125-506 187-262 63-544 63-428 0-642-131t-214-394q0-200 153-314t616-217l197-44q612-131 870-370t258-667q0-488-386-773Q2250-91 1575-91q-281 0-586 55T347 128v594q319-166 628-249 309-82 613-82 406 0 624 139 219 139 219 392 0 234-158 359-157 125-692 241l-200 47q-534 112-772 345-237 233-237 639 0 494 350 762 350 269 994 269 318 0 599-47 282-46 519-140z" transform="scale(.01563)"/><path id="DejaVuSans-61" d="M2194 1759q-697 0-966-159t-269-544q0-306 202-486 202-179 548-179 479 0 768 339t289 901v128h-572zm1147 238V0h-575v531q-197-318-491-470T1556-91q-537 0-855 302-317 302-317 808 0 590 395 890 396 300 1180 300h807v57q0 397-261 614t-733 217q-300 0-585-72-284-72-546-216v532q315 122 612 182 297 61 578 61 760 0 1135-394 375-393 375-1193z" transform="scale(.01563)"/><path id="DejaVuSans-72" d="M2631 2963q-97 56-211 82-114 27-251 27-488 0-749-317t-261-911V0H581v3500h578v-544q182 319 472 473 291 155 707 155 59 0 131-8 72-7 159-23l3-590z" transform="scale(.01563)"/></defs><use xlink:href="#DejaVuSans-47"/><use xlink:href="#DejaVuSans-69" x="77.49"/><use xlink:href="#DejaVuSans-74" x="105.273"/><use xlink:href="#DejaVuSans-48" x="144.482"/><use xlink:href="#DejaVuSans-75" x="219.678"/><use xlink:href="#DejaVuSans-62" x="283.057"/><use xlink:href="#DejaVuSans-20" x="346.533"/><use xlink:href="#DejaVuSans-73" x="378.32"/><use xlink:href="#DejaVuSans-74" x="430.42"/><use xlink:href="#DejaVuSans-61" x="469.629"/><use xlink:href="#DejaVuSans-72" x="530.908"/><use xlink:href="#DejaVuSans-73" x="572.021"/></g></g><path id="line2d_17" d="m363.367 282.616 2.59-.504 2.675-.724 2.589-.249 2.675-.226 2.675-.17 2.59-.22 2.675-.35 2.589-.278 2.675-.215 2.676-.3 2.416-.26 2.676-.283 2.589-.277 2.675-.26 2.59-.198 2.675-.198 2.675-.215 2.589-.26 2.675-.119 2.59-.164 2.675-.277 2.675-.198 2.417-.243 2.675-.266 2.59-.192 2.675-.164 2.589-.227 2.675-.3 2.675-.197 2.59-.21 2.675-.192 2.589-.271 2.675-.289 2.676-.215 2.416-.141" clip-path="url(#p3f6f51ac8a)" style="fill:none;stroke:#c5b0d5;stroke-width:1.5;stroke-linecap:square"/><path id="line2d_18" d="m292.513 282.616 2.675-.068 2.417-.04 2.675-.04 2.59-.067 2.674-.046 2.59-.034 2.675-.045 2.675-.113 2.59-.062 2.675-.102 2.589-.09 2.675-.227 2.676-.277 2.416-.13 2.675-.226 2.59-.21 2.675-.378 2.589-.204 2.675-.164 2.676-.102 2.589-.203 2.675-.13 2.59-.125 2.675-.21 2.675-.175 2.503-.209 2.675-.277 2.59-.294 2.675-.362 2.589-.21 2.675-.158 2.675-.158 2.59-.204 2.675-.119 2.589-.13 2.675-.18 2.676-.193 2.416-.13 2.676-.141 2.589-.187 2.675-.17 2.59-.107 2.675-.119 2.675-.153 2.589-.164 2.675-.13 2.59-.09 2.675-.136 2.675-.124 2.417-.12 2.675-.095 2.59-.142 2.675-.113 2.589-.124 2.675-.147 2.675-.102 2.59-.096 2.675-.13 2.589-.085 2.675-.085 2.676-.119 2.416-.107" clip-path="url(#p3f6f51ac8a)" style="fill:none;stroke:#ff9896;stroke-width:1.5;stroke-linecap:square"/><path id="line2d_19" d="m113.78 282.616 2.676-.187 23.56-.068 7.94-.136 10.529-.266 34.176-.82 23.56-.786 18.383-.973 31.5-2.087 21.144-1.81 2.59-.305 5.35-.498 5.092-.526 13.204-.927 15.621-1.37 2.675-.27 2.59-.385 7.94-.673 10.528-.668 5.351-.48 36.679-2.303 2.589-.13 2.675-.294 55.061-.435h0" clip-path="url(#p3f6f51ac8a)" style="fill:none;stroke:#98df8a;stroke-width:1.5;stroke-linecap:square"/><g id="text_13" style="fill:#1f77b4" transform="matrix(.14 0 0 -.14 465.907 17.838)"><defs><path id="DejaVuSans-6c" d="M603 4863h575V0H603v4863z" transform="scale(.01563)"/><path id="DejaVuSans-63" d="M3122 3366v-538q-244 135-489 202t-495 67q-560 0-870-355-309-354-309-995t309-996q310-354 870-354 250 0 495 67t489 202V134Q2881 22 2623-34q-257-57-548-57-791 0-1257 497-465 497-465 1341 0 856 470 1346 471 491 1290 491 265 0 518-55 253-54 491-163z" transform="scale(.01563)"/><path id="DejaVuSans-79" d="M2059-325q-243-625-475-815-231-191-618-191H506v481h338q237 0 368 113 132 112 291 531l103 262L191 3500h609L1894 763l1094 2737h609L2059-325z" transform="scale(.01563)"/><path id="DejaVuSans-2f" d="M1625 4666h531L531-594H0l1625 5260z" transform="scale(.01563)"/></defs><use xlink:href="#DejaVuSans-61"/><use xlink:href="#DejaVuSans-6c" x="61.279"/><use xlink:href="#DejaVuSans-61" x="89.063"/><use xlink:href="#DejaVuSans-63" x="150.342"/><use xlink:href="#DejaVuSans-72" x="205.322"/><use xlink:href="#DejaVuSans-69" x="246.436"/><use xlink:href="#DejaVuSans-74" x="274.219"/><use xlink:href="#DejaVuSans-74" x="313.428"/><use xlink:href="#DejaVuSans-79" x="352.637"/><use xlink:href="#DejaVuSans-2f" x="411.816"/><use xlink:href="#DejaVuSans-61" x="445.508"/><use xlink:href="#DejaVuSans-6c" x="506.787"/><use xlink:href="#DejaVuSans-61" x="534.57"/><use xlink:href="#DejaVuSans-63" x="595.85"/><use xlink:href="#DejaVuSans-72" x="650.83"/><use xlink:href="#DejaVuSans-69" x="691.943"/><use xlink:href="#DejaVuSans-74" x="719.727"/><use xlink:href="#DejaVuSans-74" x="758.936"/><use xlink:href="#DejaVuSans-79" x="798.145"/></g><g id="text_14" style="fill:#ff7f0e" transform="matrix(.14 0 0 -.14 465.907 31.838)"><defs><path id="DejaVuSans-45" d="M628 4666h2950v-532H1259V2753h2222v-531H1259V531h2375V0H628v4666z" transform="scale(.01563)"/><path id="DejaVuSans-67" d="M2906 1791q0 625-258 968-257 344-723 344-462 0-720-344-258-343-258-968 0-622 258-966t720-344q466 0 723 344 258 344 258 966zm575-1357q0-893-397-1329-396-436-1215-436-303 0-572 45t-522 139v559q253-137 500-202 247-66 503-66 566 0 847 295t281 892v285q-178-310-456-463T1784 0Q1141 0 747 490 353 981 353 1791q0 812 394 1302 394 491 1037 491 388 0 666-153t456-462v531h575V434z" transform="scale(.01563)"/><path id="DejaVuSans-65" d="M3597 1894v-281H953q38-594 358-905t892-311q331 0 642 81t618 244V178Q3153 47 2828-22t-659-69q-838 0-1327 487-489 488-489 1320 0 859 464 1363 464 505 1252 505 706 0 1117-455 411-454 411-1235zm-575 169q-6 471-264 752-258 282-683 282-481 0-770-272t-333-766l2050 4z" transform="scale(.01563)"/><path id="DejaVuSans-6e" d="M3513 2113V0h-575v2094q0 497-194 743-194 247-581 247-466 0-735-297-269-296-269-809V0H581v3500h578v-544q207 316 486 472 280 156 646 156 603 0 912-373 310-373 310-1098z" transform="scale(.01563)"/></defs><use xlink:href="#DejaVuSans-45"/><use xlink:href="#DejaVuSans-75" x="63.184"/><use xlink:href="#DejaVuSans-67" x="126.563"/><use xlink:href="#DejaVuSans-65" x="190.039"/><use xlink:href="#DejaVuSans-6e" x="251.563"/><use xlink:href="#DejaVuSans-79" x="314.941"/><use xlink:href="#DejaVuSans-2f" x="374.121"/><use xlink:href="#DejaVuSans-74" x="407.813"/><use xlink:href="#DejaVuSans-61" x="447.021"/><use xlink:href="#DejaVuSans-62" x="508.301"/><use xlink:href="#DejaVuSans-62" x="571.777"/><use xlink:href="#DejaVuSans-79" x="635.254"/></g><g id="text_15" style="fill:#2ca02c" transform="matrix(.14 0 0 -.14 465.907 53.166)"><defs><path id="DejaVuSans-76" d="M191 3500h609L1894 563l1094 2937h609L2284 0h-781L191 3500z" transform="scale(.01563)"/><path id="DejaVuSans-68" d="M3513 2113V0h-575v2094q0 497-194 743-194 247-581 247-466 0-735-297-269-296-269-809V0H581v4863h578V2956q207 316 486 472 280 156 646 156 603 0 912-373 310-373 310-1098z" transform="scale(.01563)"/><path id="DejaVuSans-70" d="M1159 525v-1856H581v4831h578v-531q182 312 458 463 277 152 661 152 638 0 1036-506 399-506 399-1331T3314 415Q2916-91 2278-91q-384 0-661 152-276 152-458 464zm1957 1222q0 634-261 995t-717 361q-457 0-718-361t-261-995q0-634 261-995t718-361q456 0 717 361t261 995z" transform="scale(.01563)"/></defs><use xlink:href="#DejaVuSans-76"/><use xlink:href="#DejaVuSans-65" x="59.18"/><use xlink:href="#DejaVuSans-72" x="120.703"/><use xlink:href="#DejaVuSans-63" x="159.566"/><use xlink:href="#DejaVuSans-65" x="214.547"/><use xlink:href="#DejaVuSans-6c" x="276.07"/><use xlink:href="#DejaVuSans-2f" x="303.854"/><use xlink:href="#DejaVuSans-68" x="337.545"/><use xlink:href="#DejaVuSans-79" x="400.924"/><use xlink:href="#DejaVuSans-70" x="460.104"/><use xlink:href="#DejaVuSans-65" x="523.58"/><use xlink:href="#DejaVuSans-72" x="585.104"/></g><g id="text_16" style="fill:#d62728" transform="matrix(.14 0 0 -.14 465.907 124.585)"><defs><path id="DejaVuSans-6d" d="M3328 2828q216 388 516 572t706 184q547 0 844-383 297-382 297-1088V0h-578v2094q0 503-179 746-178 244-543 244-447 0-707-297-259-296-259-809V0h-578v2094q0 506-178 748t-550 242q-441 0-701-298-259-298-259-808V0H581v3500h578v-544q197 322 472 475t653 153q382 0 649-194 267-193 395-562z" transform="scale(.01563)"/><path id="DejaVuSans-78" d="M3513 3500 2247 1797 3578 0h-678L1881 1375 863 0H184l1360 1831L300 3500h678l928-1247 928 1247h679z" transform="scale(.01563)"/></defs><use xlink:href="#DejaVuSans-74"/><use xlink:href="#DejaVuSans-6d" x="39.209"/><use xlink:href="#DejaVuSans-75" x="136.621"/><use xlink:href="#DejaVuSans-78" x="200"/><use xlink:href="#DejaVuSans-2f" x="259.18"/><use xlink:href="#DejaVuSans-74" x="292.871"/><use xlink:href="#DejaVuSans-6d" x="332.08"/><use xlink:href="#DejaVuSans-75" x="429.492"/><use xlink:href="#DejaVuSans-78" x="492.871"/></g><g id="text_17" style="fill:#9467bd" transform="matrix(.14 0 0 -.14 465.907 165.3)"><defs><path id="DejaVuSans-77" d="M269 3500h575l719-2731 715 2731h678l719-2731 716 2731h575L4050 0h-678l-753 2869L1863 0h-679L269 3500z" transform="scale(.01563)"/></defs><use xlink:href="#DejaVuSans-72"/><use xlink:href="#DejaVuSans-61" x="41.113"/><use xlink:href="#DejaVuSans-69" x="102.393"/><use xlink:href="#DejaVuSans-6c" x="130.176"/><use xlink:href="#DejaVuSans-73" x="157.959"/><use xlink:href="#DejaVuSans-77" x="210.059"/><use xlink:href="#DejaVuSans-61" x="291.846"/><use xlink:href="#DejaVuSans-72" x="353.125"/><use xlink:href="#DejaVuSans-65" x="391.988"/><use xlink:href="#DejaVuSans-2f" x="453.512"/><use xlink:href="#DejaVuSans-75" x="487.203"/><use xlink:href="#DejaVuSans-70" x="550.582"/><use xlink:href="#DejaVuSans-74" x="614.059"/><use xlink:href="#DejaVuSans-65" x="653.268"/><use xlink:href="#DejaVuSans-72" x="714.791"/><use xlink:href="#DejaVuSans-6d" x="754.154"/></g><g id="text_18" style="fill:#8c564b" transform="matrix(.14 0 0 -.14 465.907 179.3)"><defs><path id="DejaVuSans-53" d="M3425 4513v-616q-359 172-678 256-319 85-616 85-515 0-795-200t-280-569q0-310 186-468 186-157 705-254l381-78q706-135 1042-474t336-907q0-679-455-1029Q2797-91 1919-91q-331 0-705 75-373 75-773 222v650q384-215 753-325 369-109 725-109 540 0 834 212 294 213 294 607 0 343-211 537t-692 291l-385 75q-706 140-1022 440-315 300-315 835 0 619 436 975t1201 356q329 0 669-60 341-59 697-177z" transform="scale(.01563)"/><path id="DejaVuSans-6f" d="M1959 3097q-462 0-731-361t-269-989q0-628 267-989 268-361 733-361 460 0 728 362 269 363 269 988 0 622-269 986-268 364-728 364zm0 487q750 0 1178-488 429-487 429-1349 0-859-429-1349Q2709-91 1959-91q-753 0-1180 489-426 490-426 1349 0 862 426 1349 427 488 1180 488z" transform="scale(.01563)"/><path id="DejaVuSans-64" d="M2906 2969v1894h575V0h-575v525q-181-312-458-464-276-152-664-152-634 0-1033 506-398 507-398 1332t398 1331q399 506 1033 506 388 0 664-152 277-151 458-463zM947 1747q0-634 261-995t717-361q456 0 718 361 263 361 263 995t-263 995q-262 361-718 361t-717-361q-261-361-261-995z" transform="scale(.01563)"/><path id="DejaVuSans-66" d="M2375 4863v-479h-550q-309 0-430-125-120-125-120-450v-309h947v-447h-947V0H697v3053H147v447h550v244q0 584 272 851 272 268 862 268h544z" transform="scale(.01563)"/><path id="DejaVuSans-39" d="M703 97v575q238-113 481-172 244-59 479-59 625 0 954 420 330 420 377 1277-181-269-460-413-278-144-615-144-700 0-1108 423-408 424-408 1159 0 718 425 1152 425 435 1131 435 810 0 1236-621 427-620 427-1801 0-1103-524-1761Q2575-91 1691-91q-238 0-482 47Q966 3 703 97zm1256 1978q425 0 673 290 249 291 249 798 0 503-249 795-248 292-673 292t-673-292q-248-292-248-795 0-507 248-798 248-290 673-290z" transform="scale(.01563)"/><path id="DejaVuSans-2d" d="M313 2009h1684v-512H313v512z" transform="scale(.01563)"/></defs><use xlink:href="#DejaVuSans-53"/><use xlink:href="#DejaVuSans-77" x="63.477"/><use xlink:href="#DejaVuSans-6f" x="145.264"/><use xlink:href="#DejaVuSans-72" x="206.445"/><use xlink:href="#DejaVuSans-64" x="245.809"/><use xlink:href="#DejaVuSans-66" x="309.285"/><use xlink:href="#DejaVuSans-69" x="344.49"/><use xlink:href="#DejaVuSans-73" x="372.273"/><use xlink:href="#DejaVuSans-68" x="424.373"/><use xlink:href="#DejaVuSans-39" x="487.752"/><use xlink:href="#DejaVuSans-30" x="551.375"/><use xlink:href="#DejaVuSans-2f" x="614.998"/><use xlink:href="#DejaVuSans-63" x="648.689"/><use xlink:href="#DejaVuSans-6f" x="703.67"/><use xlink:href="#DejaVuSans-6f" x="764.852"/><use xlink:href="#DejaVuSans-6c" x="826.033"/><use xlink:href="#DejaVuSans-2d" x="853.816"/><use xlink:href="#DejaVuSans-72" x="889.9"/><use xlink:href="#DejaVuSans-65" x="928.764"/><use xlink:href="#DejaVuSans-74" x="990.287"/><use xlink:href="#DejaVuSans-72" x="1029.496"/><use xlink:href="#DejaVuSans-6f" x="1068.359"/><use xlink:href="#DejaVuSans-2d" x="1131.416"/><use xlink:href="#DejaVuSans-74" x="1167.5"/><use xlink:href="#DejaVuSans-65" x="1206.709"/><use xlink:href="#DejaVuSans-72" x="1268.232"/><use xlink:href="#DejaVuSans-6d" x="1307.596"/></g><g id="text_19" style="fill:#e377c2" transform="matrix(.14 0 0 -.14 465.907 193.3)"><defs><path id="DejaVuSans-6b" d="M581 4863h578V1991l1716 1509h734L1753 1863 3688 0h-750L1159 1709V0H581v4863z" transform="scale(.01563)"/></defs><use xlink:href="#DejaVuSans-6b"/><use xlink:href="#DejaVuSans-6f" x="54.285"/><use xlink:href="#DejaVuSans-76" x="115.467"/><use xlink:href="#DejaVuSans-69" x="174.646"/><use xlink:href="#DejaVuSans-64" x="202.43"/><use xlink:href="#DejaVuSans-67" x="265.906"/><use xlink:href="#DejaVuSans-6f" x="329.383"/><use xlink:href="#DejaVuSans-79" x="390.564"/><use xlink:href="#DejaVuSans-61" x="449.744"/><use xlink:href="#DejaVuSans-6c" x="511.023"/><use xlink:href="#DejaVuSans-2f" x="538.807"/><use xlink:href="#DejaVuSans-6b" x="572.498"/><use xlink:href="#DejaVuSans-69" x="630.408"/><use xlink:href="#DejaVuSans-74" x="658.191"/><use xlink:href="#DejaVuSans-74" x="697.4"/><use xlink:href="#DejaVuSans-79" x="736.609"/></g><g id="text_20" style="fill:#7f7f7f" transform="matrix(.14 0 0 -.14 465.907 213.207)"><defs><path id="DejaVuSans-4d" d="M628 4666h941l1190-3175 1197 3175h941V0h-616v4097L3078 897h-634L1241 4097V0H628v4666z" transform="scale(.01563)"/><path id="DejaVuSans-35" d="M691 4666h2478v-532H1269V2991q137 47 274 70 138 23 276 23 781 0 1237-428 457-428 457-1159 0-753-469-1171Q2575-91 1722-91q-294 0-599 50Q819 9 494 109v635q281-153 581-228t634-75q541 0 856 284 316 284 316 772 0 487-316 771-315 285-856 285-253 0-505-56-251-56-513-175v2344z" transform="scale(.01563)"/><path id="DejaVuSans-43" d="M4122 4306v-665q-319 297-680 443-361 147-767 147-800 0-1225-489t-425-1414q0-922 425-1411t1225-489q406 0 767 147t680 444V359q-331-225-702-338-370-112-782-112-1060 0-1670 648-609 649-609 1771 0 1125 609 1773 610 649 1670 649 418 0 788-111 371-111 696-333z" transform="scale(.01563)"/></defs><use xlink:href="#DejaVuSans-4d"/><use xlink:href="#DejaVuSans-61" x="86.279"/><use xlink:href="#DejaVuSans-78" x="147.559"/><use xlink:href="#DejaVuSans-69" x="206.738"/><use xlink:href="#DejaVuSans-6d" x="234.521"/><use xlink:href="#DejaVuSans-75" x="331.934"/><use xlink:href="#DejaVuSans-73" x="395.313"/><use xlink:href="#DejaVuSans-35" x="447.412"/><use xlink:href="#DejaVuSans-2f" x="511.035"/><use xlink:href="#DejaVuSans-43" x="544.727"/><use xlink:href="#DejaVuSans-6f" x="614.551"/><use xlink:href="#DejaVuSans-6e" x="675.732"/><use xlink:href="#DejaVuSans-45" x="739.111"/><use xlink:href="#DejaVuSans-6d" x="802.295"/><use xlink:href="#DejaVuSans-75" x="899.707"/></g><g id="text_21" style="fill:#bcbd22" transform="matrix(.14 0 0 -.14 465.907 227.207)"><defs><path id="DejaVuSans-7a" d="M353 3500h2731v-525L922 459h2162V0H275v525l2163 2516H353v459z" transform="scale(.01563)"/></defs><use xlink:href="#DejaVuSans-77"/><use xlink:href="#DejaVuSans-65" x="81.787"/><use xlink:href="#DejaVuSans-7a" x="143.311"/><use xlink:href="#DejaVuSans-2f" x="195.801"/><use xlink:href="#DejaVuSans-77" x="229.492"/><use xlink:href="#DejaVuSans-65" x="311.279"/><use xlink:href="#DejaVuSans-7a" x="372.803"/><use xlink:href="#DejaVuSans-74" x="425.293"/><use xlink:href="#DejaVuSans-65" x="464.502"/><use xlink:href="#DejaVuSans-72" x="526.025"/><use xlink:href="#DejaVuSans-6d" x="565.389"/></g><g id="text_22" style="fill:#17becf" transform="matrix(.14 0 0 -.14 465.907 241.207)"><use xlink:href="#DejaVuSans-67"/><use xlink:href="#DejaVuSans-6e" x="63.477"/><use xlink:href="#DejaVuSans-75" x="126.855"/><use xlink:href="#DejaVuSans-6e" x="190.234"/><use xlink:href="#DejaVuSans-6e" x="253.613"/><use xlink:href="#DejaVuSans-31" x="316.992"/><use xlink:href="#DejaVuSans-2f" x="380.615"/><use xlink:href="#DejaVuSans-74" x="414.307"/><use xlink:href="#DejaVuSans-69" x="453.516"/><use xlink:href="#DejaVuSans-6c" x="481.299"/><use xlink:href="#DejaVuSans-69" x="509.082"/><use xlink:href="#DejaVuSans-78" x="536.865"/></g><g id="text_23" style="fill:#aec7e8" transform="matrix(.14 0 0 -.14 465.907 255.207)"><use xlink:href="#DejaVuSans-47"/><use xlink:href="#DejaVuSans-75" x="77.49"/><use xlink:href="#DejaVuSans-61" x="140.869"/><use xlink:href="#DejaVuSans-6b" x="202.148"/><use xlink:href="#DejaVuSans-65" x="256.434"/><use xlink:href="#DejaVuSans-2f" x="317.957"/><use xlink:href="#DejaVuSans-67" x="351.648"/><use xlink:href="#DejaVuSans-75" x="415.125"/><use xlink:href="#DejaVuSans-61" x="478.504"/><use xlink:href="#DejaVuSans-6b" x="539.783"/><use xlink:href="#DejaVuSans-65" x="594.068"/></g><g id="text_24" style="fill:#ffbb78" transform="matrix(.14 0 0 -.14 465.907 269.207)"><use xlink:href="#DejaVuSans-6c"/><use xlink:href="#DejaVuSans-69" x="27.783"/><use xlink:href="#DejaVuSans-61" x="55.566"/><use xlink:href="#DejaVuSans-6d" x="116.846"/><use xlink:href="#DejaVuSans-67" x="214.258"/><use xlink:href="#DejaVuSans-2f" x="277.734"/><use xlink:href="#DejaVuSans-64" x="311.426"/><use xlink:href="#DejaVuSans-61" x="374.902"/><use xlink:href="#DejaVuSans-72" x="436.182"/><use xlink:href="#DejaVuSans-6b" x="477.295"/><use xlink:href="#DejaVuSans-74" x="535.205"/><use xlink:href="#DejaVuSans-69" x="574.414"/><use xlink:href="#DejaVuSans-6c" x="602.197"/><use xlink:href="#DejaVuSans-65" x="629.98"/></g><g id="text_25" style="fill:#98df8a" transform="matrix(.14 0 0 -.14 465.907 283.207)"><use xlink:href="#DejaVuSans-74"/><use xlink:href="#DejaVuSans-68" x="39.209"/><use xlink:href="#DejaVuSans-65" x="102.588"/><use xlink:href="#DejaVuSans-73" x="164.111"/><use xlink:href="#DejaVuSans-74" x="216.211"/><use xlink:href="#DejaVuSans-69" x="255.42"/><use xlink:href="#DejaVuSans-6e" x="283.203"/><use xlink:href="#DejaVuSans-67" x="346.582"/><use xlink:href="#DejaVuSans-65" x="410.059"/><use xlink:href="#DejaVuSans-72" x="471.582"/><use xlink:href="#DejaVuSans-2f" x="512.695"/><use xlink:href="#DejaVuSans-74" x="546.387"/><use xlink:href="#DejaVuSans-65" x="585.596"/><use xlink:href="#DejaVuSans-72" x="647.119"/><use xlink:href="#DejaVuSans-6d" x="686.482"/><use xlink:href="#DejaVuSans-69" x="783.895"/><use xlink:href="#DejaVuSans-74" x="811.678"/><use xlink:href="#DejaVuSans-65" x="850.887"/></g><g id="text_26" style="fill:#ff9896" transform="matrix(.14 0 0 -.14 465.907 297.207)"><defs><path id="DejaVuSans-4c" d="M628 4666h631V531h2272V0H628v4666z" transform="scale(.01563)"/></defs><use xlink:href="#DejaVuSans-4c"/><use xlink:href="#DejaVuSans-75" x="53.963"/><use xlink:href="#DejaVuSans-6b" x="117.342"/><use xlink:href="#DejaVuSans-65" x="171.627"/><use xlink:href="#DejaVuSans-53" x="233.15"/><use xlink:href="#DejaVuSans-6d" x="296.627"/><use xlink:href="#DejaVuSans-69" x="394.039"/><use xlink:href="#DejaVuSans-74" x="421.822"/><use xlink:href="#DejaVuSans-68" x="461.031"/><use xlink:href="#DejaVuSans-78" x="524.41"/><use xlink:href="#DejaVuSans-79" x="583.59"/><use xlink:href="#DejaVuSans-7a" x="642.77"/><use xlink:href="#DejaVuSans-2f" x="695.26"/><use xlink:href="#DejaVuSans-73" x="728.951"/><use xlink:href="#DejaVuSans-74" x="781.051"/></g><g id="text_27" style="fill:#c5b0d5" transform="matrix(.14 0 0 -.14 465.907 311.207)"><use xlink:href="#DejaVuSans-67"/><use xlink:href="#DejaVuSans-6e" x="63.477"/><use xlink:href="#DejaVuSans-6f" x="126.855"/><use xlink:href="#DejaVuSans-6d" x="188.037"/><use xlink:href="#DejaVuSans-65" x="285.449"/><use xlink:href="#DejaVuSans-2d" x="346.973"/><use xlink:href="#DejaVuSans-74" x="383.057"/><use xlink:href="#DejaVuSans-65" x="422.266"/><use xlink:href="#DejaVuSans-72" x="483.789"/><use xlink:href="#DejaVuSans-6d" x="523.152"/><use xlink:href="#DejaVuSans-69" x="620.564"/><use xlink:href="#DejaVuSans-6e" x="648.348"/><use xlink:href="#DejaVuSans-61" x="711.727"/><use xlink:href="#DejaVuSans-74" x="773.006"/><use xlink:href="#DejaVuSans-6f" x="812.215"/><use xlink:href="#DejaVuSans-72" x="873.396"/><use xlink:href="#DejaVuSans-2f" x="914.51"/><use xlink:href="#DejaVuSans-74" x="948.201"/><use xlink:href="#DejaVuSans-65" x="987.41"/><use xlink:href="#DejaVuSans-72" x="1048.934"/><use xlink:href="#DejaVuSans-6d" x="1088.297"/><use xlink:href="#DejaVuSans-69" x="1185.709"/><use xlink:href="#DejaVuSans-6e" x="1213.492"/><use xlink:href="#DejaVuSans-61" x="1276.871"/><use xlink:href="#DejaVuSans-74" x="1338.15"/><use xlink:href="#DejaVuSans-6f" x="1377.359"/><use xlink:href="#DejaVuSans-72" x="1438.541"/></g><g id="text_28" style="fill:#b0b0b0" transform="matrix(.09716 0 0 -.09716 98.073 316.652)"><defs><path id="DejaVuSans-40" d="M2381 1678q0-447 222-702 222-254 610-254 384 0 604 256 221 256 221 700 0 438-225 695-225 258-607 258-378 0-602-256-223-256-223-697zm1703-934q-187-241-429-355t-564-114q-538 0-874 389t-336 1014q0 625 337 1015 338 391 873 391 322 0 565-117 244-117 428-354v409h447V722q457 69 714 417 258 349 258 902 0 334-99 628-98 294-298 544-325 409-792 626t-1017 217q-384 0-738-102-353-101-653-301-490-319-767-836-276-517-276-1120 0-497 179-932 180-434 521-765 328-325 759-495 431-171 922-171 403 0 792 136t714 389l281-347q-390-303-851-464t-936-161q-578 0-1091 205-512 205-912 595Q841 78 631 592q-209 514-209 1105 0 569 212 1084 213 516 607 907 403 396 931 607t1119 211q662 0 1229-272 568-271 952-771 234-307 357-666 124-359 124-744 0-822-497-1297T4084 263v481z" transform="scale(.01563)"/><path id="DejaVuSans-7c" d="M1344 4891v-6400H813v6400h531z" transform="scale(.01563)"/><path id="DejaVuSans-4e" d="M628 4666h850L3547 763v3903h612V0h-850L1241 3903V0H628v4666z" transform="scale(.01563)"/><path id="DejaVuSans-f6" d="M1959 3097q-462 0-731-361t-269-989q0-628 267-989 268-361 733-361 460 0 728 362 269 363 269 988 0 622-269 986-268 364-728 364zm0 487q750 0 1178-488 429-487 429-1349 0-859-429-1349Q2709-91 1959-91q-753 0-1180 489-426 490-426 1349 0 862 426 1349 427 488 1180 488zm295 1266h634v-631h-634v631zm-1222 0h634v-631h-634v631z" transform="scale(.01563)"/><path id="DejaVuSans-42" d="M1259 2228V519h1013q509 0 754 211 246 211 246 645 0 438-246 645-245 208-754 208H1259zm0 1919V2741h935q462 0 688 173 227 174 227 530 0 353-227 528-226 175-688 175h-935zm-631 519h1613q722 0 1112-300 391-300 391-853 0-429-200-682t-588-315q466-100 724-418 258-317 258-792 0-625-425-966Q3088 0 2303 0H628v4666z" transform="scale(.01563)"/><path id="DejaVuSans-59" d="M-13 4666h679l1293-1919 1285 1919h678L2272 2222V0h-634v2222L-13 4666z" transform="scale(.01563)"/></defs><use xlink:href="#DejaVuSans-40"/><use xlink:href="#DejaVuSans-6e" x="100"/><use xlink:href="#DejaVuSans-73" x="163.379"/><use xlink:href="#DejaVuSans-63" x="215.479"/><use xlink:href="#DejaVuSans-68" x="270.459"/><use xlink:href="#DejaVuSans-6c" x="333.838"/><use xlink:href="#DejaVuSans-6f" x="361.621"/><use xlink:href="#DejaVuSans-65" x="422.803"/><use xlink:href="#DejaVuSans-20" x="484.326"/><use xlink:href="#DejaVuSans-2f" x="516.113"/><use xlink:href="#DejaVuSans-20" x="549.805"/><use xlink:href="#DejaVuSans-67" x="581.592"/><use xlink:href="#DejaVuSans-69" x="645.068"/><use xlink:href="#DejaVuSans-74" x="672.852"/><use xlink:href="#DejaVuSans-68" x="712.061"/><use xlink:href="#DejaVuSans-75" x="775.439"/><use xlink:href="#DejaVuSans-62" x="838.818"/><use xlink:href="#DejaVuSans-2d" x="902.295"/><use xlink:href="#DejaVuSans-74" x="938.379"/><use xlink:href="#DejaVuSans-72" x="977.588"/><use xlink:href="#DejaVuSans-65" x="1016.451"/><use xlink:href="#DejaVuSans-6e" x="1077.975"/><use xlink:href="#DejaVuSans-64" x="1141.354"/><use xlink:href="#DejaVuSans-73" x="1204.83"/><use xlink:href="#DejaVuSans-20" x="1256.93"/><use xlink:href="#DejaVuSans-7c" x="1288.717"/><use xlink:href="#DejaVuSans-20" x="1322.408"/><use xlink:href="#DejaVuSans-4e" x="1354.195"/><use xlink:href="#DejaVuSans-69" x="1429"/><use xlink:href="#DejaVuSans-63" x="1456.783"/><use xlink:href="#DejaVuSans-6f" x="1511.764"/><use xlink:href="#DejaVuSans-20" x="1572.945"/><use xlink:href="#DejaVuSans-53" x="1604.732"/><use xlink:href="#DejaVuSans-63" x="1668.209"/><use xlink:href="#DejaVuSans-68" x="1723.189"/><use xlink:href="#DejaVuSans-6c" x="1786.568"/><use xlink:href="#DejaVuSans-f6" x="1814.352"/><use xlink:href="#DejaVuSans-6d" x="1875.533"/><use xlink:href="#DejaVuSans-65" x="1972.945"/><use xlink:href="#DejaVuSans-72" x="2034.469"/><use xlink:href="#DejaVuSans-20" x="2075.582"/><use xlink:href="#DejaVuSans-7c" x="2107.369"/><use xlink:href="#DejaVuSans-20" x="2141.061"/><use xlink:href="#DejaVuSans-43" x="2172.848"/><use xlink:href="#DejaVuSans-43" x="2242.672"/><use xlink:href="#DejaVuSans-20" x="2312.496"/><use xlink:href="#DejaVuSans-42" x="2344.283"/><use xlink:href="#DejaVuSans-59" x="2407.387"/></g><path id="line2d_20" d="m316.073 282.616 2.676-1.284 2.589-6.239 2.675-1.674 2.676-.605 2.416-.272 2.675-.187 2.59-.113 2.675-.135 2.589-.068 2.675-.102 2.676-.108 2.589-.033 2.675-.074 2.59-.045 2.675-.102 2.675-.102 2.503-.096 2.675-.062 2.59-.125 2.675-.096 2.589-.079 2.675-.062 2.675-.09 2.59-.046 2.675-.057 2.589-.237 2.675-.068 2.676-.085 2.416-.079 2.676-.045 2.589-.096 2.675-.221 2.59-.096 2.675-.08 2.675-1.702 2.589-.237 2.675-.063 2.59-.124 2.675-.107 2.675-.046 2.417-.096 2.675-.102 2.59-.18 2.675-.148 2.589-.107 2.675-.09 2.675-.312 2.59-.102 2.675-.05 2.589-.102 2.675-.074 2.676-.068 2.416-.107" clip-path="url(#p3f6f51ac8a)" style="fill:none;stroke:#ffbb78;stroke-width:1.5;stroke-linecap:square"/><path id="line2d_21" d="m113.78 282.616 5.265-.108 23.647-.034 31.5-1.046 7.854-.447 7.94-.447 18.295-1.075 2.676-.378 2.589-.12 5.35-.446 5.265-.35 2.59-.3 5.35-.39 18.382-1.528 42.03-4.112 13.031-1.832 10.53-.996 13.031-1.397 18.469-1.652 13.118-1.085 2.675-.346 18.469-1.26 10.356-.629 5.265-.503 2.675-.21 5.265-.26 7.94-.475 7.94-.509 5.091-.328 5.265-.356 7.94-.47 7.853-.418 5.35-.26 2.417-.147h0" clip-path="url(#p3f6f51ac8a)" style="fill:none;stroke:#aec7e8;stroke-width:1.5;stroke-linecap:square"/><path id="line2d_22" d="m229.426 282.616 2.675-.51 2.503-.384 2.675-.537 2.59-.419 2.675-.328 2.589-.204 2.675-.43 2.675-.271 2.59-.232 2.675-.345 2.589-.396 2.675-.305 2.676-.628 2.416-.56 2.676-.526 2.589-.656 2.675-.577 2.59-.356 2.675-.81 2.675-.932 2.589-.334 2.675-.492 2.59-.43 2.675-.35 2.675-.323 2.417-.34 2.675-.503 2.59-.385 2.674-.362 2.59-.367 2.675-.3 2.675-.356 2.59-.277 2.675-.351 2.589-.38 2.675-.321 2.676-.674 2.416-.418 2.675-.43 2.59-.396 2.675-.571 2.589-.543 2.675-.35 2.676-.442 2.589-.254 2.675-.3 2.59-.289 2.675-.316 2.675-.334 2.503-.328 2.675-.311 2.59-.38 2.675-.378 2.589-.294 2.675-.26 2.675-.187 2.59-.362 2.675-.294 2.589-.3 2.675-.22 2.676-.334 2.416-.232 2.676-.272 2.589-.305 2.675-.289 2.59-.198 2.675-.152 2.675-.187 2.589-.215 2.675-.158 2.59-.204 2.675-.232 2.675-.198 2.417-.158 2.675-.204 2.59-.254 2.675-.159 2.589-.186 2.675-.22 2.675-.187 2.59-.193 2.675-.186 2.589-.193 2.675-.124 2.676-.215 2.416-.153" clip-path="url(#p3f6f51ac8a)" style="fill:none;stroke:#17becf;stroke-width:1.5;stroke-linecap:square"/><path id="line2d_23" d="m295.188 282.616 2.417-.029 2.675-.005 2.59-.012H308.133l2.675-.005 2.675-.017 2.59-.006 2.675-.017 2.589-.006 2.675-.005h2.676l2.416-.04 2.675-.034 2.59-.017 2.675-.056 2.589-.046 2.675-.022 2.676-.045 2.589-.017 2.675-.057 2.59-.102 2.675-.164 2.675-.136 2.503-.118 2.675-.063 2.59-.152 2.675-.074 2.589-.678 2.675-.114 2.675-.101 2.59-.238 2.675-.153 2.589-.362 2.675-.463 2.676-.306 2.416-.317 2.676-.667 2.589-4.615 2.675-.973 2.59-.419 2.675-.74 2.675-.725 2.589-.995 2.675-.617 2.59-.797 2.675-2.336 2.675-1.312 2.417-1.494 2.675-2.058 2.59-2.387 2.675-1.171 2.589-2.008 2.675-2.754 2.675-2.359 2.59-1.6 2.675-1.845 2.589-1.917 2.675-1.363 2.676-2.46 2.416-2.41" clip-path="url(#p3f6f51ac8a)" style="fill:none;stroke:#bcbd22;stroke-width:1.5;stroke-linecap:square"/><path id="line2d_24" d="m98.073 282.616 26.322-.012 39.354-.096 7.768-.164 10.529-.503 20.971-1.77 7.94-1.64 7.94-2.195 5.264-1.335 2.59-.662 2.675-.526 7.853-1.957 13.204-2.766 26.15-5.515 5.35-.972 13.205-2.823 5.092-.995 15.793-3.762 7.94-1.442 13.032-3.252 10.529-1.708 10.615-1.375 5.178-.763 5.265-.803 5.264-.64 28.825-3.433 15.88-1.606 36.592-3.224h0" clip-path="url(#p3f6f51ac8a)" style="fill:none;stroke:#7f7f7f;stroke-width:1.5;stroke-linecap:square"/><path id="line2d_25" d="m258.337 282.616 2.675-.012 2.676-3.925 2.416-.21 2.676-.163 2.589-.108 2.675-.153 2.59-.197 2.675-.244 2.675-.333 2.589-.311 2.675-.346 2.59-1.329 2.675-.746 2.675-1.663 2.417-1.522 2.675-1.385 2.59-2.082 2.674-2.098 2.59-.916 2.675-1.256 2.675-1.018 2.59-6.426 2.675-1.25 2.589-1.238 2.675-1.035 2.676-1.216 2.416-1.431 2.675-1.273 2.59-1.21 2.675-1.29 2.589-.916 2.675-1.109 2.676-1.69 2.589-.827 2.675-1.244 2.59-1.03 2.675-.83 2.675-1.087 2.503-1.058 2.675-1.165 2.59-1.199 2.675-1.091 2.589-.911 2.675-.956 2.675-.95 2.59-1.04 2.675-1.805 2.589-1.092 2.675-1.091 2.676-1.561 2.416-1.007 2.676-1.38 2.589-1.454 2.675-1.691 2.59-1.29 2.675-1.272 2.675-1.403 2.589-1.267 2.675-1.227 2.59-2.172 2.675-1.884 2.675-2.307 2.417-2.195 2.675-2.132 2.59-2.183 2.675-1.907 2.589-1.736 2.675-1.934 2.675-2.67 2.59-1.997 2.675-1.962 2.589-1.799 2.675-3.133 2.676-2.15 2.416-1.917" clip-path="url(#p3f6f51ac8a)" style="fill:none;stroke:#e377c2;stroke-width:1.5;stroke-linecap:square"/><path id="line2d_26" d="m163.75 282.616 2.675-.063 2.675-.034 2.417-.005h2.675l2.59-.017 2.674-.006 2.59-.006 2.675-3.806 2.675-2.098 2.59-.956 2.675-5.21 2.589-.52 2.675-.582 2.676-.526 2.416-3.1 2.675-.758 2.59-.266 2.675-.31 2.589-.397 2.675-.345 2.676-.328 2.589-.43 2.675-.447 2.59-.492 2.675-.435 2.675-.317 2.503-.458 2.675-.458 2.59-.826 2.675-.356 2.589-.56 2.675-1.375 2.675-.6 2.59-.474 2.675-.555 2.589-.452 2.675-.328 2.676-.487 2.416-.503 2.676-.373 2.589-.713 2.675-.616 2.59-.328 2.675-.272 2.675-.554 2.589-.396 2.675-6.239 2.59-2.234 2.675-.752 2.675-.775 2.417-.707 2.675-.764 2.59-.707 2.674-1.046 2.59-1.985 2.675-1.058 2.675-.724 2.59-.673 2.675-.73 2.589-.724 2.675-.944 2.676-.91 2.416-.781 2.675-1.426 2.59-1.42 2.675-1.148 2.589-.752 2.675-.831 2.676-1.041 2.589-.74 2.675-.929 2.59-1.996 2.675-.684 2.675-1.047 2.503-.95 2.675-.82 2.59-.91 2.675-1.25 2.589-.827 2.675-1.267 2.675-1.029 2.59-1.759 2.675-1.018 2.589-.894 2.675-.86 2.676-.95 2.416-.82 2.676-1.595 2.589-.916 2.675-.611 2.59-.605 2.675-.617 2.675-.627 2.589-.77 2.675-.899 2.59-1.2 2.675-1.108 2.675-1 2.417-.894 2.675-3.23 2.59-.905 2.675-1.227 2.589-.81 2.675-1.498 2.675-1.527 2.59-1.295 2.675-.736 2.589-1.346 2.675-.837 2.676-1.086 2.416-1.075" clip-path="url(#p3f6f51ac8a)" style="fill:none;stroke:#8c564b;stroke-width:1.5;stroke-linecap:square"/><path id="line2d_27" d="m205.692 282.616 2.59-.006h2.675l2.589-.006h2.675l2.676-.011 2.589-29.666 2.675-1.968 2.59-.792 2.675-.543 2.675-.611 2.503-1.03 2.675-.757 2.59-.645 2.675-20.566 2.589-5.158 2.675-5.011 2.675-1.278 2.59-1.222 2.675-1.103 2.589-1.228 2.675-1.719 2.676-1.063 2.416-1.556 2.676-1.165 2.589-1.165 2.675-6.142 2.59-.832 2.675-.854 2.675-1.04 2.589-3.785 2.675-1.368 2.59-.86 2.675-.815 2.675-1.391 2.417-.758 2.675-1.46 2.59-.865 2.674-.791 2.59-.668 2.675-.628 2.675-.593 2.59-.64 2.675-.633 2.589-.724 2.675-.583 2.676-.644 2.416-.815 2.675-.639 2.59-.61 2.675-.595 2.589-.17 2.675-.135 2.676-.176 2.589-.062 2.675-.152 2.59-.085 2.675-.108 2.675-.13 2.503-.119 2.675-.068 2.59-.164 2.675-.073 2.589-.068 2.675-.102 2.675-.073 2.59-.142 2.675-.09 2.589-.08 2.675-.056 2.676-.096 2.416-.057 2.676-.079 2.589-.062 2.675-.062 2.59-.057 2.675-.085 2.675-.068 2.589-.096 2.675-.068 2.59-.056 2.675-.062 2.675-.046 2.417-.067 2.675-.046 2.59-.13 2.675-.056 2.589-.046 2.675-.062 2.675-.073 2.59-.051 2.675-.04 2.589-.073 2.675-.046 2.676-.079 2.416-.04" clip-path="url(#p3f6f51ac8a)" style="fill:none;stroke:#9467bd;stroke-width:1.5;stroke-linecap:square"/><path id="line2d_28" d="m210.957 282.616 2.589-12.919 2.675-.848 2.676-.871 2.589-.702 2.675-1.442 2.59-1.233 2.675-.803 2.675-.707 2.503-.792 2.675-.905 2.59-.826 2.675-1.148 2.589-.973 2.675-.86 2.675-.825 2.59-1.035 2.675-1.165 2.589-.894 2.675-.849 2.676-1.006 2.416-.95 2.676-1.154 2.589-1.041 2.675-1.137 2.59-1.533 2.675-1.747 2.675-1.703 2.589-1.68 2.675-2.115 2.59-1.725 2.675-1.51 2.675-1.714 2.417-1.505 2.675-1.612 2.59-1.697 2.674-1.906 2.59-1.578 2.675-1.448 2.675-1.538 2.59-1.708 2.675-1.674 2.589-1.839 2.675-1.747 2.676-1.805 2.416-1.572 2.675-1.946 2.59-2.177 2.675-2.053 2.589-1.827 2.675-1.89 2.676-1.532 2.589-1.51 2.675-1.782 2.59-1.816 2.675-1.753 2.675-1.691 2.503-1.742 2.675-2.036 2.59-2.647 2.675-2.416 2.589-1.866 2.675-1.725 2.675-1.522 2.59-1.527 2.675-1.685 2.589-1.997 2.675-1.821 2.676-1.754 2.416-1.487 2.676-1.578 2.589-2.636 2.675-2.274 2.59-1.64 2.675-1.753 2.675-2.02 2.589-2.24 2.675-1.617 2.59-1.544 2.675-1.776 2.675-1.46 2.417-1.47 2.675-1.985 2.59-2.466 2.675-2.308 2.589-2.347 2.675-2.155 2.675-2.251 2.59-1.844 2.675-2.02 2.589-2.267 2.675-1.663 2.676-1.98 2.416-1.957" clip-path="url(#p3f6f51ac8a)" style="fill:none;stroke:#d62728;stroke-width:1.5;stroke-linecap:square"/><path id="line2d_29" d="m245.133 282.616 2.675-35.464 2.675-6.697 2.59-3.037 2.675-4.762 2.589-3.479 2.675-16.844 2.676-4.994 2.416-3.478 2.676-4.486 2.589-2.67 2.675-2.912 2.59-2.958 2.675-2.8 2.675-2.755 2.589-2.873 2.675-2.856 2.59-2.755 2.675-2.483 2.675-3.127 2.417-2.387 2.675-2.84 2.59-4.943 2.674-4.576 2.59-3.297 2.675-2.698 2.675-2.562 2.59-2.161 2.675-2.053 2.589-2.257 2.675-2.613 2.676-2.879 2.416-2.138 2.675-2.681 2.59-2.534 2.675-6.59 2.589-3.065 2.675-1.821 2.676-1.884 2.589-1.708 2.675-3.535 2.59-1.634 2.675-1.47 2.675-1.5 2.503-1.544 2.675-1.527 2.59-1.578 2.675-1.878 2.589-1.527 2.675-1.493 2.675-1.386 2.59-1.29 2.675-1.498 2.589-1.731 2.675-1.629 2.676-1.374 2.416-1.24 2.676-1.504 2.589-1.221 2.675-1.296 2.59-1.17 2.675-1.895 2.675-1.691 2.589-1.533 2.675-1.844 2.59-1.414 2.675-1.736 2.675-1.448 2.417-1.47 2.675-1.511 2.59-1.85 2.675-1.453 2.589-1.12 2.675-1.431 2.675-1.346 2.59-1.77 2.675-1.545 2.589-1.436 2.675-1.018 2.676-2.07 2.416-1.59" clip-path="url(#p3f6f51ac8a)" style="fill:none;stroke:#2ca02c;stroke-width:1.5;stroke-linecap:square"/><path id="line2d_30" d="m274.044 282.616 2.59-.396 2.675-7.455 2.675-.673 2.589-.43 2.675-.362 2.59-.311 2.675-.6 2.675-.43 2.417-.418 2.675-.826 2.59-.492 2.674-.622 2.59-.566 2.675-.514 2.675-.65 2.59-.696 2.675-.668 2.589-1.917 2.675-6.273 2.676-3.009 2.416-2.211 2.675-2.783 2.59-2.438 2.675-12.664 2.589-4.564 2.675-2.862 2.676-2.5 2.589-2.308 2.675-1.832 2.59-2.438 2.675-1.929 2.675-1.635 2.503-2.036 2.675-1.844 2.59-2.63 2.675-2.42 2.589-2.766 2.675-1.946 2.675-1.753 2.59-1.454 2.675-1.691 2.589-1.827 2.675-2.257 2.676-2.245 2.416-1.872 2.676-2.11 2.589-1.844 2.675-1.867 2.59-2.138 2.675-2.46 2.675-2.59 2.589-2.161 2.675-1.838 2.59-2.958 2.675-41.793 2.675-11.086 2.417-5.192 2.675-5.933 2.59-9.01 2.675-5.6 2.589-4.508 2.675-10.384 2.675-11.092 2.59-4.502 2.675-9.78 2.589-8.02 2.675-5.152 2.676-5.38 2.416-5.56" clip-path="url(#p3f6f51ac8a)" style="fill:none;stroke:#ff7f0e;stroke-width:1.5;stroke-linecap:square"/><path id="line2d_31" d="m232.101 282.616 2.503-.012h5.265l2.675-.011 2.589-.006H253.073l2.675-.005 2.589-.006 2.675-.006 2.676-23.914 2.416-2.437 2.676-1.674 2.589-1.562 2.675-1.414 2.59-1.04 2.675-1.776 2.675-1.68 2.589-1.375 2.675-2.415 2.59-2.143 2.675-1.816 2.675-3.495 2.417-2.987 2.675-2.273 2.59-2.84 2.674-1.804 2.59-1.561 2.675-2.58 2.675-2.273 2.59-2.772 2.675-2.426 2.589-2.919 2.675-2.624 2.676-2.5 2.416-2.036 2.675-3.28 2.59-3.813 2.675-3.812 2.589-2.879 2.675-2.55 2.676-3.259 2.589-2.534 2.675-2.686 2.59-2.381 2.675-2.246 2.675-2.29 2.503-4.14 2.675-3.14 2.59-4.061 2.675-4.57 2.589-3.903 2.675-3.546 2.675-4.237 2.59-3.552 2.675-3.795 2.589-6.17 2.675-9.452 2.676-4.248 2.416-3.127 2.676-3.298 2.589-3.037 2.675-10.537 2.59-2.947 2.675-3.626 2.675-3.936 2.589-3.105 2.675-3.066 2.59-3.41 2.675-5.153 2.675-3.948 2.417-3.524 2.675-3.739 2.59-4.276 2.675-3.721 2.589-3.665 2.675-3.971 2.675-4.904 2.59-4.412 2.675-3.987 2.589-4.05 2.675-3.128 2.676-3.755 2.416-4.864" clip-path="url(#p3f6f51ac8a)" style="fill:none;stroke:#1f77b4;stroke-width:1.5;stroke-linecap:square"/></g></g><defs><clipPath id="p3f6f51ac8a"><path d="M98.073 16.504h357.12v266.112H98.073z"/></clipPath></defs></svg>