<svg xmlns:xlink="http://www.w3.org/1999/xlink" width="972.788" height="457.204" viewBox="0 0 729.591 342.903" xmlns="http://www.w3.org/2000/svg"><defs><style>*{stroke-linejoin:round;stroke-linecap:butt}</style></defs><g id="figure_1"><path d="M0 342.903h729.591V0H0v342.903z" style="fill:none" id="patch_1"/><g id="axes_1"><path d="M98.073 283.77h357.12V17.658H98.073V283.77z" style="fill:none" id="patch_2"/><g id="matplotlib.axis_1"><g id="xtick_1"><g id="line2d_1"><defs><path id="m1ab6553e7a" d="M0 0v3.5" style="stroke:#b0b0b0;stroke-width:.4"/></defs><use xlink:href="#m1ab6553e7a" x="103.709" y="283.77" style="fill:#b0b0b0;stroke:#b0b0b0;stroke-width:.4"/></g><g style="fill:#b0b0b0" transform="matrix(.14 0 0 -.14 85.894 301.408)" id="text_1"><defs><path id="DejaVuSans-32" d="M1228 531h2203V0H469v531q359 372 979 998 621 627 780 809 303 340 423 576 121 236 121 464 0 372-261 606-261 235-680 235-297 0-627-103-329-103-704-313v638q381 153 712 231 332 78 607 78 725 0 1156-363 431-362 431-968 0-288-108-546-107-257-392-607-78-91-497-524-418-433-1181-1211z" transform="scale(.01563)"/><path id="DejaVuSans-30" d="M2034 4250q-487 0-733-480-245-479-245-1442 0-959 245-1439 246-480 733-480 491 0 736 480 246 480 246 1439 0 963-246 1442-245 480-736 480zm0 500q785 0 1199-621 414-620 414-1801 0-1178-414-1799Q2819-91 2034-91q-784 0-1198 620-414 621-414 1799 0 1181 414 1801 414 621 1198 621z" transform="scale(.01563)"/><path id="DejaVuSans-31" d="M794 531h1031v3560L703 3866v575l1116 225h631V531h1031V0H794v531z" transform="scale(.01563)"/></defs><use xlink:href="#DejaVuSans-32"/><use xlink:href="#DejaVuSans-30" x="63.623"/><use xlink:href="#DejaVuSans-31" x="127.246"/><use xlink:href="#DejaVuSans-32" x="190.869"/></g></g><g id="xtick_2"><use xlink:href="#m1ab6553e7a" x="137.527" y="283.77" style="fill:#b0b0b0;stroke:#b0b0b0;stroke-width:.4" id="line2d_2"/><g style="fill:#b0b0b0" transform="matrix(.14 0 0 -.14 119.712 301.408)" id="text_2"><defs><path id="DejaVuSans-33" d="M2597 2516q453-97 707-404 255-306 255-756 0-690-475-1069Q2609-91 1734-91q-293 0-604 58T488 141v609q262-153 574-231 313-78 654-78 593 0 904 234t311 681q0 413-289 645-289 233-804 233h-544v519h569q465 0 712 186t247 536q0 359-255 551-254 193-729 193-260 0-557-57-297-56-653-174v562q360 100 674 150t592 50q719 0 1137-327 419-326 419-882 0-388-222-655t-631-370z" transform="scale(.01563)"/></defs><use xlink:href="#DejaVuSans-32"/><use xlink:href="#DejaVuSans-30" x="63.623"/><use xlink:href="#DejaVuSans-31" x="127.246"/><use xlink:href="#DejaVuSans-33" x="190.869"/></g></g><g id="xtick_3"><use xlink:href="#m1ab6553e7a" x="171.253" y="283.77" style="fill:#b0b0b0;stroke:#b0b0b0;stroke-width:.4" id="line2d_3"/><g style="fill:#b0b0b0" transform="matrix(.14 0 0 -.14 153.438 301.408)" id="text_3"><defs><path id="DejaVuSans-34" d="M2419 4116 825 1625h1594v2491zm-166 550h794V1625h666v-525h-666V0h-628v1100H313v609l1940 2957z" transform="scale(.01563)"/></defs><use xlink:href="#DejaVuSans-32"/><use xlink:href="#DejaVuSans-30" x="63.623"/><use xlink:href="#DejaVuSans-31" x="127.246"/><use xlink:href="#DejaVuSans-34" x="190.869"/></g></g><g id="xtick_4"><use xlink:href="#m1ab6553e7a" x="204.978" y="283.77" style="fill:#b0b0b0;stroke:#b0b0b0;stroke-width:.4" id="line2d_4"/><g style="fill:#b0b0b0" transform="matrix(.14 0 0 -.14 187.163 301.408)" id="text_4"><defs><path id="DejaVuSans-35" d="M691 4666h2478v-532H1269V2991q137 47 274 70 138 23 276 23 781 0 1237-428 457-428 457-1159 0-753-469-1171Q2575-91 1722-91q-294 0-599 50Q819 9 494 109v635q281-153 581-228t634-75q541 0 856 284 316 284 316 772 0 487-316 771-315 285-856 285-253 0-505-56-251-56-513-175v2344z" transform="scale(.01563)"/></defs><use xlink:href="#DejaVuSans-32"/><use xlink:href="#DejaVuSans-30" x="63.623"/><use xlink:href="#DejaVuSans-31" x="127.246"/><use xlink:href="#DejaVuSans-35" x="190.869"/></g></g><g id="xtick_5"><use xlink:href="#m1ab6553e7a" x="238.704" y="283.77" style="fill:#b0b0b0;stroke:#b0b0b0;stroke-width:.4" id="line2d_5"/><g style="fill:#b0b0b0" transform="matrix(.14 0 0 -.14 220.889 301.408)" id="text_5"><defs><path id="DejaVuSans-36" d="M2113 2584q-425 0-674-291-248-290-248-796 0-503 248-796 249-292 674-292t673 292q248 293 248 796 0 506-248 796-248 291-673 291zm1253 1979v-575q-238 112-480 171-242 60-480 60-625 0-955-422-329-422-376-1275 184 272 462 417 279 145 613 145 703 0 1111-427 408-426 408-1160 0-719-425-1154Q2819-91 2113-91q-810 0-1238 620-428 621-428 1799 0 1106 525 1764t1409 658q238 0 480-47t505-140z" transform="scale(.01563)"/></defs><use xlink:href="#DejaVuSans-32"/><use xlink:href="#DejaVuSans-30" x="63.623"/><use xlink:href="#DejaVuSans-31" x="127.246"/><use xlink:href="#DejaVuSans-36" x="190.869"/></g></g><g id="xtick_6"><use xlink:href="#m1ab6553e7a" x="272.521" y="283.77" style="fill:#b0b0b0;stroke:#b0b0b0;stroke-width:.4" id="line2d_6"/><g style="fill:#b0b0b0" transform="matrix(.14 0 0 -.14 254.706 301.408)" id="text_6"><defs><path id="DejaVuSans-37" d="M525 4666h3000v-269L1831 0h-659l1594 4134H525v532z" transform="scale(.01563)"/></defs><use xlink:href="#DejaVuSans-32"/><use xlink:href="#DejaVuSans-30" x="63.623"/><use xlink:href="#DejaVuSans-31" x="127.246"/><use xlink:href="#DejaVuSans-37" x="190.869"/></g></g><g id="xtick_7"><use xlink:href="#m1ab6553e7a" x="306.247" y="283.77" style="fill:#b0b0b0;stroke:#b0b0b0;stroke-width:.4" id="line2d_7"/><g style="fill:#b0b0b0" transform="matrix(.14 0 0 -.14 288.432 301.408)" id="text_7"><defs><path id="DejaVuSans-38" d="M2034 2216q-450 0-708-241-257-241-257-662 0-422 257-663 258-241 708-241t709 242q260 243 260 662 0 421-258 662-257 241-711 241zm-631 268q-406 100-633 378-226 279-226 679 0 559 398 884 399 325 1092 325 697 0 1094-325t397-884q0-400-227-679-226-278-629-378 456-106 710-416 255-309 255-755 0-679-414-1042Q2806-91 2034-91q-771 0-1186 362-414 363-414 1042 0 446 256 755 257 310 713 416zm-231 997q0-362 226-565 227-203 636-203 407 0 636 203 230 203 230 565 0 363-230 566-229 203-636 203-409 0-636-203-226-203-226-566z" transform="scale(.01563)"/></defs><use xlink:href="#DejaVuSans-32"/><use xlink:href="#DejaVuSans-30" x="63.623"/><use xlink:href="#DejaVuSans-31" x="127.246"/><use xlink:href="#DejaVuSans-38" x="190.869"/></g></g><g id="xtick_8"><use xlink:href="#m1ab6553e7a" x="339.972" y="283.77" style="fill:#b0b0b0;stroke:#b0b0b0;stroke-width:.4" id="line2d_8"/><g style="fill:#b0b0b0" transform="matrix(.14 0 0 -.14 322.157 301.408)" id="text_8"><defs><path id="DejaVuSans-39" d="M703 97v575q238-113 481-172 244-59 479-59 625 0 954 420 330 420 377 1277-181-269-460-413-278-144-615-144-700 0-1108 423-408 424-408 1159 0 718 425 1152 425 435 1131 435 810 0 1236-621 427-620 427-1801 0-1103-524-1761Q2575-91 1691-91q-238 0-482 47Q966 3 703 97zm1256 1978q425 0 673 290 249 291 249 798 0 503-249 795-248 292-673 292t-673-292q-248-292-248-795 0-507 248-798 248-290 673-290z" transform="scale(.01563)"/></defs><use xlink:href="#DejaVuSans-32"/><use xlink:href="#DejaVuSans-30" x="63.623"/><use xlink:href="#DejaVuSans-31" x="127.246"/><use xlink:href="#DejaVuSans-39" x="190.869"/></g></g><g id="xtick_9"><use xlink:href="#m1ab6553e7a" x="373.698" y="283.77" style="fill:#b0b0b0;stroke:#b0b0b0;stroke-width:.4" id="line2d_9"/><g style="fill:#b0b0b0" transform="matrix(.14 0 0 -.14 355.883 301.408)" id="text_9"><use xlink:href="#DejaVuSans-32"/><use xlink:href="#DejaVuSans-30" x="63.623"/><use xlink:href="#DejaVuSans-32" x="127.246"/><use xlink:href="#DejaVuSans-30" x="190.869"/></g></g><g id="xtick_10"><use xlink:href="#m1ab6553e7a" x="407.516" y="283.77" style="fill:#b0b0b0;stroke:#b0b0b0;stroke-width:.4" id="line2d_10"/><g style="fill:#b0b0b0" transform="matrix(.14 0 0 -.14 389.7 301.408)" id="text_10"><use xlink:href="#DejaVuSans-32"/><use xlink:href="#DejaVuSans-30" x="63.623"/><use xlink:href="#DejaVuSans-32" x="127.246"/><use xlink:href="#DejaVuSans-31" x="190.869"/></g></g><g id="xtick_11"><use xlink:href="#m1ab6553e7a" x="441.241" y="283.77" style="fill:#b0b0b0;stroke:#b0b0b0;stroke-width:.4" id="line2d_11"/><g style="fill:#b0b0b0" transform="matrix(.14 0 0 -.14 423.426 301.408)" id="text_11"><use xlink:href="#DejaVuSans-32"/><use xlink:href="#DejaVuSans-30" x="63.623"/><use xlink:href="#DejaVuSans-32" x="127.246"/><use xlink:href="#DejaVuSans-32" x="190.869"/></g></g></g><g id="matplotlib.axis_2"><g id="ytick_1"><path d="M98.073 283.77h357.12" clip-path="url(#p0c6b5a6f4d)" style="fill:none;stroke:#b0b0b0;stroke-width:.3;stroke-linecap:square" id="line2d_12"/><g id="line2d_13"><defs><path id="m5523f300b9" d="M0 0h-3.5" style="stroke:#b0b0b0;stroke-width:.3"/></defs><use xlink:href="#m5523f300b9" x="98.073" y="283.77" style="fill:#b0b0b0;stroke:#b0b0b0;stroke-width:.3"/></g><use xlink:href="#DejaVuSans-30" style="fill:#b0b0b0" transform="matrix(.14 0 0 -.14 82.166 289.089)" id="text_12"/></g><g id="ytick_2"><path d="M98.073 244.368h357.12" clip-path="url(#p0c6b5a6f4d)" style="fill:none;stroke:#b0b0b0;stroke-width:.3;stroke-linecap:square" id="line2d_14"/><use xlink:href="#m5523f300b9" x="98.073" y="244.368" style="fill:#b0b0b0;stroke:#b0b0b0;stroke-width:.3" id="line2d_15"/><g style="fill:#b0b0b0" transform="matrix(.14 0 0 -.14 46.536 249.687)" id="text_13"><use xlink:href="#DejaVuSans-32"/><use xlink:href="#DejaVuSans-30" x="63.623"/><use xlink:href="#DejaVuSans-30" x="127.246"/><use xlink:href="#DejaVuSans-30" x="190.869"/><use xlink:href="#DejaVuSans-30" x="254.492"/></g></g><g id="ytick_3"><path d="M98.073 204.967h357.12" clip-path="url(#p0c6b5a6f4d)" style="fill:none;stroke:#b0b0b0;stroke-width:.3;stroke-linecap:square" id="line2d_16"/><use xlink:href="#m5523f300b9" x="98.073" y="204.967" style="fill:#b0b0b0;stroke:#b0b0b0;stroke-width:.3" id="line2d_17"/><g style="fill:#b0b0b0" transform="matrix(.14 0 0 -.14 46.536 210.286)" id="text_14"><use xlink:href="#DejaVuSans-34"/><use xlink:href="#DejaVuSans-30" x="63.623"/><use xlink:href="#DejaVuSans-30" x="127.246"/><use xlink:href="#DejaVuSans-30" x="190.869"/><use xlink:href="#DejaVuSans-30" x="254.492"/></g></g><g id="ytick_4"><path d="M98.073 165.565h357.12" clip-path="url(#p0c6b5a6f4d)" style="fill:none;stroke:#b0b0b0;stroke-width:.3;stroke-linecap:square" id="line2d_18"/><use xlink:href="#m5523f300b9" x="98.073" y="165.565" style="fill:#b0b0b0;stroke:#b0b0b0;stroke-width:.3" id="line2d_19"/><g style="fill:#b0b0b0" transform="matrix(.14 0 0 -.14 46.536 170.884)" id="text_15"><use xlink:href="#DejaVuSans-36"/><use xlink:href="#DejaVuSans-30" x="63.623"/><use xlink:href="#DejaVuSans-30" x="127.246"/><use xlink:href="#DejaVuSans-30" x="190.869"/><use xlink:href="#DejaVuSans-30" x="254.492"/></g></g><g id="ytick_5"><path d="M98.073 126.164h357.12" clip-path="url(#p0c6b5a6f4d)" style="fill:none;stroke:#b0b0b0;stroke-width:.3;stroke-linecap:square" id="line2d_20"/><use xlink:href="#m5523f300b9" x="98.073" y="126.164" style="fill:#b0b0b0;stroke:#b0b0b0;stroke-width:.3" id="line2d_21"/><g style="fill:#b0b0b0" transform="matrix(.14 0 0 -.14 46.536 131.483)" id="text_16"><use xlink:href="#DejaVuSans-38"/><use xlink:href="#DejaVuSans-30" x="63.623"/><use xlink:href="#DejaVuSans-30" x="127.246"/><use xlink:href="#DejaVuSans-30" x="190.869"/><use xlink:href="#DejaVuSans-30" x="254.492"/></g></g><g id="ytick_6"><path d="M98.073 86.762h357.12" clip-path="url(#p0c6b5a6f4d)" style="fill:none;stroke:#b0b0b0;stroke-width:.3;stroke-linecap:square" id="line2d_22"/><use xlink:href="#m5523f300b9" x="98.073" y="86.762" style="fill:#b0b0b0;stroke:#b0b0b0;stroke-width:.3" id="line2d_23"/><g style="fill:#b0b0b0" transform="matrix(.14 0 0 -.14 37.628 92.081)" id="text_17"><use xlink:href="#DejaVuSans-31"/><use xlink:href="#DejaVuSans-30" x="63.623"/><use xlink:href="#DejaVuSans-30" x="127.246"/><use xlink:href="#DejaVuSans-30" x="190.869"/><use xlink:href="#DejaVuSans-30" x="254.492"/><use xlink:href="#DejaVuSans-30" x="318.115"/></g></g><g id="ytick_7"><path d="M98.073 47.36h357.12" clip-path="url(#p0c6b5a6f4d)" style="fill:none;stroke:#b0b0b0;stroke-width:.3;stroke-linecap:square" id="line2d_24"/><use xlink:href="#m5523f300b9" x="98.073" y="47.361" style="fill:#b0b0b0;stroke:#b0b0b0;stroke-width:.3" id="line2d_25"/><g style="fill:#b0b0b0" transform="matrix(.14 0 0 -.14 37.628 52.68)" id="text_18"><use xlink:href="#DejaVuSans-31"/><use xlink:href="#DejaVuSans-32" x="63.623"/><use xlink:href="#DejaVuSans-30" x="127.246"/><use xlink:href="#DejaVuSans-30" x="190.869"/><use xlink:href="#DejaVuSans-30" x="254.492"/><use xlink:href="#DejaVuSans-30" x="318.115"/></g></g><g style="fill:#b0b0b0" transform="matrix(.14 0 0 -.14 7.2 17.838)" id="text_19"><defs><path id="DejaVuSans-47" d="M3809 666v1253H2778v519h1656V434q-365-259-806-392-440-133-940-133-1094 0-1712 639-617 640-617 1780 0 1144 617 1783 618 639 1712 639 456 0 867-113 411-112 758-331v-672q-350 297-744 447t-828 150q-857 0-1287-478-429-478-429-1425 0-944 429-1422 430-478 1287-478 334 0 596 58 263 58 472 180z" transform="scale(.01563)"/><path id="DejaVuSans-69" d="M603 3500h575V0H603v3500zm0 1363h575v-729H603v729z" transform="scale(.01563)"/><path id="DejaVuSans-74" d="M1172 4494v-994h1184v-447H1172V1153q0-428 117-550t477-122h590V0h-590q-666 0-919 248-253 249-253 905v1900H172v447h422v994h578z" transform="scale(.01563)"/><path id="DejaVuSans-48" d="M628 4666h631V2753h2294v1913h631V0h-631v2222H1259V0H628v4666z" transform="scale(.01563)"/><path id="DejaVuSans-75" d="M544 1381v2119h575V1403q0-497 193-746 194-248 582-248 465 0 735 297 271 297 271 810v1984h575V0h-575v538q-209-319-486-474-276-155-642-155-603 0-916 375-312 375-312 1097zm1447 2203z" transform="scale(.01563)"/><path id="DejaVuSans-62" d="M3116 1747q0 634-261 995t-717 361q-457 0-718-361t-261-995q0-634 261-995t718-361q456 0 717 361t261 995zM1159 2969q182 312 458 463 277 152 661 152 638 0 1036-506 399-506 399-1331T3314 415Q2916-91 2278-91q-384 0-661 152-276 152-458 464V0H581v4863h578V2969z" transform="scale(.01563)"/><path id="DejaVuSans-73" d="M2834 3397v-544q-243 125-506 187-262 63-544 63-428 0-642-131t-214-394q0-200 153-314t616-217l197-44q612-131 870-370t258-667q0-488-386-773Q2250-91 1575-91q-281 0-586 55T347 128v594q319-166 628-249 309-82 613-82 406 0 624 139 219 139 219 392 0 234-158 359-157 125-692 241l-200 47q-534 112-772 345-237 233-237 639 0 494 350 762 350 269 994 269 318 0 599-47 282-46 519-140z" transform="scale(.01563)"/><path id="DejaVuSans-61" d="M2194 1759q-697 0-966-159t-269-544q0-306 202-486 202-179 548-179 479 0 768 339t289 901v128h-572zm1147 238V0h-575v531q-197-318-491-470T1556-91q-537 0-855 302-317 302-317 808 0 590 395 890 396 300 1180 300h807v57q0 397-261 614t-733 217q-300 0-585-72-284-72-546-216v532q315 122 612 182 297 61 578 61 760 0 1135-394 375-393 375-1193z" transform="scale(.01563)"/><path id="DejaVuSans-72" d="M2631 2963q-97 56-211 82-114 27-251 27-488 0-749-317t-261-911V0H581v3500h578v-544q182 319 472 473 291 155 707 155 59 0 131-8 72-7 159-23l3-590z" transform="scale(.01563)"/></defs><use xlink:href="#DejaVuSans-47"/><use xlink:href="#DejaVuSans-69" x="77.49"/><use xlink:href="#DejaVuSans-74" x="105.273"/><use xlink:href="#DejaVuSans-48" x="144.482"/><use xlink:href="#DejaVuSans-75" x="219.678"/><use xlink:href="#DejaVuSans-62" x="283.057"/><use xlink:href="#DejaVuSans-20" x="346.533"/><use xlink:href="#DejaVuSans-73" x="378.32"/><use xlink:href="#DejaVuSans-74" x="430.42"/><use xlink:href="#DejaVuSans-61" x="469.629"/><use xlink:href="#DejaVuSans-72" x="530.908"/><use xlink:href="#DejaVuSans-73" x="572.021"/></g></g><path d="m190.841 283.77 2.865-.01 2.771-.012 2.865-.047 2.772-.07 2.864-.03 2.864-.058 2.588-.047 2.864-.06 2.772-.046 2.864-.038 2.772-.05 2.865-.035 2.864-.047 2.772-.051 2.864-.034 2.772-.05 2.865-.042 2.864-.07 2.68-.078 2.864-.061 2.772-.077 2.864-.063 2.772-.057 2.864-.071 2.865-.07 2.772-.101 2.864-.073 2.772-.046 2.864-.074 2.865-.058 2.587-.06 2.864-.056 2.772-.075 2.865-.069 2.772-.053 2.864-.06 2.864-.078 2.772-.055 2.865-.092 2.771-.093 2.865-.075 2.864-.108 2.587-.067 2.865-.083 2.772-.093 2.864-.11 2.772-.075 2.864-.067 2.865-.069 2.772-.057 2.864-.051 2.772-.06 2.864-.092 2.865-.055 2.587-.059 2.864-.075 2.772-.067 2.864-.067 2.772-.075 2.865-.077 2.864-.05 2.772-.052 2.864-.079 2.772-.077 2.865-.092 2.864-.089 2.68-.075 2.864-.096 2.772-.099 2.864-.116 2.772-.136 2.865-.128 2.864-.095 2.772-.096 2.864-.087 2.772-.098 2.865-.13 2.864-.142 2.587-.116 2.864-.109 2.772-.122 2.865-.093 2.772-.096 2.864-.075 2.864-.1 2.772-.081 2.865-.07 2.772-.084 2.864-.106 2.864-.11 2.587-.075 2.865-.087 2.772-.097 2.864-.074" clip-path="url(#p0c6b5a6f4d)" style="fill:none;stroke:#c5b0d5;stroke-width:1.5;stroke-linecap:square" id="line2d_26"/><path d="m339.972 283.77 2.865-.757 2.587-.362 2.864-.79 2.772-.603 2.864-.398 2.772-.609 2.865-.467 2.864-.437 2.772-.3 2.864-.267 2.772-.245 2.865-.274 2.864-.35 2.68-.32 2.864-.289 2.772-.355 2.864-.297 2.772-.646 2.865-.365 2.864-.352 2.772-.42 2.864-.317 2.772-.369 2.865-.333 2.864-.354 2.587-.278 2.864-.313 2.772-.296 2.865-.437 2.772-.451 2.864-.278 2.864-.201 2.772-.284 2.865-.203 2.772-.252 2.864-.163 2.864-.217 2.587-.175 2.865-.17 2.772-.19 2.864-.14" clip-path="url(#p0c6b5a6f4d)" style="fill:none;stroke:#ff9896;stroke-width:1.5;stroke-linecap:square" id="line2d_27"/><path d="m98.073 283.77 117.993-.27 2.864-.02 5.637-.561 8.5-.124 2.772-.735 33.818-.44 2.864-2.025 8.316-.518 5.637-.26 11.272-.31 5.636-.242 11.18-.33 8.409-.588 2.864-.17 2.865-.505 5.636-.389 11.088-.58 2.864-.582 36.59-2.264 2.864-.468 8.5-.645 8.41-.602 5.728-.548 11.088-.711 2.772-.353 11.365-.554 5.636-.35 2.864-.36 5.452-.275 2.772-.291 2.864-.168h0" clip-path="url(#p0c6b5a6f4d)" style="fill:none;stroke:#98df8a;stroke-width:1.5;stroke-linecap:square" id="line2d_28"/><g style="fill:#1f77b4" transform="matrix(.14 0 0 -.14 465.907 21.52)" id="text_20"><defs><path id="DejaVuSans-6d" d="M3328 2828q216 388 516 572t706 184q547 0 844-383 297-382 297-1088V0h-578v2094q0 503-179 746-178 244-543 244-447 0-707-297-259-296-259-809V0h-578v2094q0 506-178 748t-550 242q-441 0-701-298-259-298-259-808V0H581v3500h578v-544q197 322 472 475t653 153q382 0 649-194 267-193 395-562z" transform="scale(.01563)"/><path id="DejaVuSans-63" d="M3122 3366v-538q-244 135-489 202t-495 67q-560 0-870-355-309-354-309-995t309-996q310-354 870-354 250 0 495 67t489 202V134Q2881 22 2623-34q-257-57-548-57-791 0-1257 497-465 497-465 1341 0 856 470 1346 471 491 1290 491 265 0 518-55 253-54 491-163z" transform="scale(.01563)"/><path id="DejaVuSans-6f" d="M1959 3097q-462 0-731-361t-269-989q0-628 267-989 268-361 733-361 460 0 728 362 269 363 269 988 0 622-269 986-268 364-728 364zm0 487q750 0 1178-488 429-487 429-1349 0-859-429-1349Q2709-91 1959-91q-753 0-1180 489-426 490-426 1349 0 862 426 1349 427 488 1180 488z" transform="scale(.01563)"/><path id="DejaVuSans-66" d="M2375 4863v-479h-550q-309 0-430-125-120-125-120-450v-309h947v-447h-947V0H697v3053H147v447h550v244q0 584 272 851 272 268 862 268h544z" transform="scale(.01563)"/><path id="DejaVuSans-2f" d="M1625 4666h531L531-594H0l1625 5260z" transform="scale(.01563)"/><path id="DejaVuSans-76" d="M191 3500h609L1894 563l1094 2937h609L2284 0h-781L191 3500z" transform="scale(.01563)"/><path id="DejaVuSans-64" d="M2906 2969v1894h575V0h-575v525q-181-312-458-464-276-152-664-152-634 0-1033 506-398 507-398 1332t398 1331q399 506 1033 506 388 0 664-152 277-151 458-463zM947 1747q0-634 261-995t717-361q456 0 718 361 263 361 263 995t-263 995q-262 361-718 361t-717-361q-261-361-261-995z" transform="scale(.01563)"/><path id="DejaVuSans-65" d="M3597 1894v-281H953q38-594 358-905t892-311q331 0 642 81t618 244V178Q3153 47 2828-22t-659-69q-838 0-1327 487-489 488-489 1320 0 859 464 1363 464 505 1252 505 706 0 1117-455 411-454 411-1235zm-575 169q-6 471-264 752-258 282-683 282-481 0-770-272t-333-766l2050 4z" transform="scale(.01563)"/></defs><use xlink:href="#DejaVuSans-6d"/><use xlink:href="#DejaVuSans-69" x="97.412"/><use xlink:href="#DejaVuSans-63" x="125.195"/><use xlink:href="#DejaVuSans-72" x="180.176"/><use xlink:href="#DejaVuSans-6f" x="219.039"/><use xlink:href="#DejaVuSans-73" x="280.221"/><use xlink:href="#DejaVuSans-6f" x="332.32"/><use xlink:href="#DejaVuSans-66" x="393.502"/><use xlink:href="#DejaVuSans-74" x="426.957"/><use xlink:href="#DejaVuSans-2f" x="466.166"/><use xlink:href="#DejaVuSans-76" x="499.857"/><use xlink:href="#DejaVuSans-73" x="559.037"/><use xlink:href="#DejaVuSans-63" x="611.137"/><use xlink:href="#DejaVuSans-6f" x="666.117"/><use xlink:href="#DejaVuSans-64" x="727.299"/><use xlink:href="#DejaVuSans-65" x="790.775"/></g><g style="fill:#ff7f0e" transform="matrix(.14 0 0 -.14 465.907 150.791)" id="text_21"><use xlink:href="#DejaVuSans-61"/><use xlink:href="#DejaVuSans-74" x="61.279"/><use xlink:href="#DejaVuSans-6f" x="100.488"/><use xlink:href="#DejaVuSans-6d" x="161.67"/><use xlink:href="#DejaVuSans-2f" x="259.082"/><use xlink:href="#DejaVuSans-61" x="292.773"/><use xlink:href="#DejaVuSans-74" x="354.053"/><use xlink:href="#DejaVuSans-6f" x="393.262"/><use xlink:href="#DejaVuSans-6d" x="454.443"/></g><g style="fill:#2ca02c" transform="matrix(.14 0 0 -.14 465.907 164.791)" id="text_22"><defs><path id="DejaVuSans-6e" d="M3513 2113V0h-575v2094q0 497-194 743-194 247-581 247-466 0-735-297-269-296-269-809V0H581v3500h578v-544q207 316 486 472 280 156 646 156 603 0 912-373 310-373 310-1098z" transform="scale(.01563)"/></defs><use xlink:href="#DejaVuSans-6e"/><use xlink:href="#DejaVuSans-65" x="63.379"/><use xlink:href="#DejaVuSans-6f" x="124.902"/><use xlink:href="#DejaVuSans-76" x="186.084"/><use xlink:href="#DejaVuSans-69" x="245.264"/><use xlink:href="#DejaVuSans-6d" x="273.047"/><use xlink:href="#DejaVuSans-2f" x="370.459"/><use xlink:href="#DejaVuSans-6e" x="404.15"/><use xlink:href="#DejaVuSans-65" x="467.529"/><use xlink:href="#DejaVuSans-6f" x="529.053"/><use xlink:href="#DejaVuSans-76" x="590.234"/><use xlink:href="#DejaVuSans-69" x="649.414"/><use xlink:href="#DejaVuSans-6d" x="677.197"/></g><g style="fill:#d62728" transform="matrix(.14 0 0 -.14 465.907 178.791)" id="text_23"><defs><path id="DejaVuSans-6b" d="M581 4863h578V1991l1716 1509h734L1753 1863 3688 0h-750L1159 1709V0H581v4863z" transform="scale(.01563)"/></defs><use xlink:href="#DejaVuSans-61"/><use xlink:href="#DejaVuSans-64" x="61.279"/><use xlink:href="#DejaVuSans-6f" x="124.756"/><use xlink:href="#DejaVuSans-62" x="185.938"/><use xlink:href="#DejaVuSans-65" x="249.414"/><use xlink:href="#DejaVuSans-2f" x="310.938"/><use xlink:href="#DejaVuSans-62" x="344.629"/><use xlink:href="#DejaVuSans-72" x="408.105"/><use xlink:href="#DejaVuSans-61" x="449.219"/><use xlink:href="#DejaVuSans-63" x="510.498"/><use xlink:href="#DejaVuSans-6b" x="565.479"/><use xlink:href="#DejaVuSans-65" x="619.764"/><use xlink:href="#DejaVuSans-74" x="681.287"/><use xlink:href="#DejaVuSans-73" x="720.496"/></g><g style="fill:#9467bd" transform="matrix(.14 0 0 -.14 465.907 192.791)" id="text_24"><defs><path id="DejaVuSans-2d" d="M313 2009h1684v-512H313v512z" transform="scale(.01563)"/></defs><use xlink:href="#DejaVuSans-6d"/><use xlink:href="#DejaVuSans-69" x="97.412"/><use xlink:href="#DejaVuSans-63" x="125.195"/><use xlink:href="#DejaVuSans-72" x="180.176"/><use xlink:href="#DejaVuSans-6f" x="219.039"/><use xlink:href="#DejaVuSans-73" x="280.221"/><use xlink:href="#DejaVuSans-6f" x="332.32"/><use xlink:href="#DejaVuSans-66" x="393.502"/><use xlink:href="#DejaVuSans-74" x="426.957"/><use xlink:href="#DejaVuSans-2f" x="466.166"/><use xlink:href="#DejaVuSans-6d" x="499.857"/><use xlink:href="#DejaVuSans-6f" x="597.27"/><use xlink:href="#DejaVuSans-6e" x="658.451"/><use xlink:href="#DejaVuSans-61" x="721.83"/><use xlink:href="#DejaVuSans-63" x="783.109"/><use xlink:href="#DejaVuSans-6f" x="838.09"/><use xlink:href="#DejaVuSans-2d" x="901.146"/><use xlink:href="#DejaVuSans-65" x="937.23"/><use xlink:href="#DejaVuSans-64" x="998.754"/><use xlink:href="#DejaVuSans-69" x="1062.23"/><use xlink:href="#DejaVuSans-74" x="1090.014"/><use xlink:href="#DejaVuSans-6f" x="1129.223"/><use xlink:href="#DejaVuSans-72" x="1190.404"/></g><g style="fill:#8c564b" transform="matrix(.14 0 0 -.14 465.907 206.791)" id="text_25"><use xlink:href="#DejaVuSans-76"/><use xlink:href="#DejaVuSans-69" x="59.18"/><use xlink:href="#DejaVuSans-6d" x="86.963"/><use xlink:href="#DejaVuSans-2f" x="184.375"/><use xlink:href="#DejaVuSans-76" x="218.066"/><use xlink:href="#DejaVuSans-69" x="277.246"/><use xlink:href="#DejaVuSans-6d" x="305.029"/></g><g style="fill:#e377c2" transform="matrix(.14 0 0 -.14 465.907 220.791)" id="text_26"><defs><path id="DejaVuSans-79" d="M2059-325q-243-625-475-815-231-191-618-191H506v481h338q237 0 368 113 132 112 291 531l103 262L191 3500h609L1894 763l1094 2737h609L2059-325z" transform="scale(.01563)"/><path id="DejaVuSans-6c" d="M603 4863h575V0H603v4863z" transform="scale(.01563)"/><path id="DejaVuSans-70" d="M1159 525v-1856H581v4831h578v-531q182 312 458 463 277 152 661 152 638 0 1036-506 399-506 399-1331T3314 415Q2916-91 2278-91q-384 0-661 152-276 152-458 464zm1957 1222q0 634-261 995t-717 361q-457 0-718-361t-261-995q0-634 261-995t718-361q456 0 717 361t261 995z" transform="scale(.01563)"/></defs><use xlink:href="#DejaVuSans-73"/><use xlink:href="#DejaVuSans-79" x="52.1"/><use xlink:href="#DejaVuSans-6c" x="111.279"/><use xlink:href="#DejaVuSans-32" x="139.063"/><use xlink:href="#DejaVuSans-30" x="202.686"/><use xlink:href="#DejaVuSans-62" x="266.309"/><use xlink:href="#DejaVuSans-6e" x="329.785"/><use xlink:href="#DejaVuSans-72" x="393.164"/><use xlink:href="#DejaVuSans-2f" x="434.277"/><use xlink:href="#DejaVuSans-73" x="467.969"/><use xlink:href="#DejaVuSans-70" x="520.068"/><use xlink:href="#DejaVuSans-61" x="583.545"/><use xlink:href="#DejaVuSans-63" x="644.824"/><use xlink:href="#DejaVuSans-65" x="699.805"/><use xlink:href="#DejaVuSans-6d" x="761.328"/><use xlink:href="#DejaVuSans-61" x="858.74"/><use xlink:href="#DejaVuSans-63" x="920.02"/><use xlink:href="#DejaVuSans-73" x="975"/></g><g style="fill:#7f7f7f" transform="matrix(.14 0 0 -.14 465.907 234.791)" id="text_27"><defs><path id="DejaVuSans-7a" d="M353 3500h2731v-525L922 459h2162V0H275v525l2163 2516H353v459z" transform="scale(.01563)"/></defs><use xlink:href="#DejaVuSans-7a"/><use xlink:href="#DejaVuSans-79" x="52.49"/><use xlink:href="#DejaVuSans-65" x="111.67"/><use xlink:href="#DejaVuSans-64" x="173.193"/><use xlink:href="#DejaVuSans-69" x="236.67"/><use xlink:href="#DejaVuSans-64" x="264.453"/><use xlink:href="#DejaVuSans-69" x="327.93"/><use xlink:href="#DejaVuSans-61" x="355.713"/><use xlink:href="#DejaVuSans-2f" x="416.992"/><use xlink:href="#DejaVuSans-6d" x="450.684"/><use xlink:href="#DejaVuSans-69" x="548.096"/><use xlink:href="#DejaVuSans-63" x="575.879"/><use xlink:href="#DejaVuSans-72" x="630.859"/><use xlink:href="#DejaVuSans-6f" x="669.723"/></g><g style="fill:#bcbd22" transform="matrix(.14 0 0 -.14 465.907 248.791)" id="text_28"><use xlink:href="#DejaVuSans-6e"/><use xlink:href="#DejaVuSans-6f" x="63.379"/><use xlink:href="#DejaVuSans-74" x="124.561"/><use xlink:href="#DejaVuSans-65" x="163.77"/><use xlink:href="#DejaVuSans-70" x="225.293"/><use xlink:href="#DejaVuSans-61" x="288.77"/><use xlink:href="#DejaVuSans-64" x="350.049"/><use xlink:href="#DejaVuSans-2d" x="413.525"/><use xlink:href="#DejaVuSans-70" x="449.609"/><use xlink:href="#DejaVuSans-6c" x="513.086"/><use xlink:href="#DejaVuSans-75" x="540.869"/><use xlink:href="#DejaVuSans-73" x="604.248"/><use xlink:href="#DejaVuSans-2d" x="656.348"/><use xlink:href="#DejaVuSans-70" x="692.432"/><use xlink:href="#DejaVuSans-6c" x="755.908"/><use xlink:href="#DejaVuSans-75" x="783.691"/><use xlink:href="#DejaVuSans-73" x="847.07"/><use xlink:href="#DejaVuSans-2f" x="899.17"/><use xlink:href="#DejaVuSans-6e" x="932.861"/><use xlink:href="#DejaVuSans-6f" x="996.24"/><use xlink:href="#DejaVuSans-74" x="1057.422"/><use xlink:href="#DejaVuSans-65" x="1096.631"/><use xlink:href="#DejaVuSans-70" x="1158.154"/><use xlink:href="#DejaVuSans-61" x="1221.631"/><use xlink:href="#DejaVuSans-64" x="1282.91"/><use xlink:href="#DejaVuSans-2d" x="1346.387"/><use xlink:href="#DejaVuSans-70" x="1382.471"/><use xlink:href="#DejaVuSans-6c" x="1445.947"/><use xlink:href="#DejaVuSans-75" x="1473.73"/><use xlink:href="#DejaVuSans-73" x="1537.109"/><use xlink:href="#DejaVuSans-2d" x="1589.209"/><use xlink:href="#DejaVuSans-70" x="1625.293"/><use xlink:href="#DejaVuSans-6c" x="1688.77"/><use xlink:href="#DejaVuSans-75" x="1716.553"/><use xlink:href="#DejaVuSans-73" x="1779.932"/></g><g style="fill:#17becf" transform="matrix(.14 0 0 -.14 465.907 262.791)" id="text_29"><defs><path id="DejaVuSans-56" d="M1831 0 50 4666h659L2188 738l1481 3928h656L2547 0h-716z" transform="scale(.01563)"/><path id="DejaVuSans-53" d="M3425 4513v-616q-359 172-678 256-319 85-616 85-515 0-795-200t-280-569q0-310 186-468 186-157 705-254l381-78q706-135 1042-474t336-907q0-679-455-1029Q2797-91 1919-91q-331 0-705 75-373 75-773 222v650q384-215 753-325 369-109 725-109 540 0 834 212 294 213 294 607 0 343-211 537t-692 291l-385 75q-706 140-1022 440-315 300-315 835 0 619 436 975t1201 356q329 0 669-60 341-59 697-177z" transform="scale(.01563)"/><path id="DejaVuSans-43" d="M4122 4306v-665q-319 297-680 443-361 147-767 147-800 0-1225-489t-425-1414q0-922 425-1411t1225-489q406 0 767 147t680 444V359q-331-225-702-338-370-112-782-112-1060 0-1670 648-609 649-609 1771 0 1125 609 1773 610 649 1670 649 418 0 788-111 371-111 696-333z" transform="scale(.01563)"/></defs><use xlink:href="#DejaVuSans-56"/><use xlink:href="#DejaVuSans-53" x="68.408"/><use xlink:href="#DejaVuSans-43" x="131.885"/><use xlink:href="#DejaVuSans-6f" x="201.709"/><use xlink:href="#DejaVuSans-64" x="262.891"/><use xlink:href="#DejaVuSans-69" x="326.367"/><use xlink:href="#DejaVuSans-75" x="354.15"/><use xlink:href="#DejaVuSans-6d" x="417.529"/><use xlink:href="#DejaVuSans-2f" x="514.941"/><use xlink:href="#DejaVuSans-76" x="548.633"/><use xlink:href="#DejaVuSans-73" x="607.813"/><use xlink:href="#DejaVuSans-63" x="659.912"/><use xlink:href="#DejaVuSans-6f" x="714.893"/><use xlink:href="#DejaVuSans-64" x="776.074"/><use xlink:href="#DejaVuSans-69" x="839.551"/><use xlink:href="#DejaVuSans-75" x="867.334"/><use xlink:href="#DejaVuSans-6d" x="930.713"/></g><g style="fill:#aec7e8" transform="matrix(.14 0 0 -.14 465.907 276.791)" id="text_30"><defs><path id="DejaVuSans-78" d="M3513 3500 2247 1797 3578 0h-678L1881 1375 863 0H184l1360 1831L300 3500h678l928-1247 928 1247h679z" transform="scale(.01563)"/></defs><use xlink:href="#DejaVuSans-6c"/><use xlink:href="#DejaVuSans-69" x="27.783"/><use xlink:href="#DejaVuSans-6d" x="55.566"/><use xlink:href="#DejaVuSans-65" x="152.979"/><use xlink:href="#DejaVuSans-74" x="214.502"/><use xlink:href="#DejaVuSans-65" x="253.711"/><use xlink:href="#DejaVuSans-78" x="313.484"/><use xlink:href="#DejaVuSans-74" x="372.664"/><use xlink:href="#DejaVuSans-2f" x="411.873"/><use xlink:href="#DejaVuSans-6c" x="445.564"/><use xlink:href="#DejaVuSans-69" x="473.348"/><use xlink:href="#DejaVuSans-6d" x="501.131"/><use xlink:href="#DejaVuSans-65" x="598.543"/></g><g style="fill:#ffbb78" transform="matrix(.14 0 0 -.14 465.907 290.791)" id="text_31"><defs><path id="DejaVuSans-68" d="M3513 2113V0h-575v2094q0 497-194 743-194 247-581 247-466 0-735-297-269-296-269-809V0H581v4863h578V2956q207 316 486 472 280 156 646 156 603 0 912-373 310-373 310-1098z" transform="scale(.01563)"/></defs><use xlink:href="#DejaVuSans-68"/><use xlink:href="#DejaVuSans-65" x="63.379"/><use xlink:href="#DejaVuSans-6c" x="124.902"/><use xlink:href="#DejaVuSans-69" x="152.686"/><use xlink:href="#DejaVuSans-78" x="180.469"/><use xlink:href="#DejaVuSans-2d" x="239.648"/><use xlink:href="#DejaVuSans-65" x="275.732"/><use xlink:href="#DejaVuSans-64" x="337.256"/><use xlink:href="#DejaVuSans-69" x="400.732"/><use xlink:href="#DejaVuSans-74" x="428.516"/><use xlink:href="#DejaVuSans-6f" x="467.725"/><use xlink:href="#DejaVuSans-72" x="528.906"/><use xlink:href="#DejaVuSans-2f" x="570.02"/><use xlink:href="#DejaVuSans-68" x="603.711"/><use xlink:href="#DejaVuSans-65" x="667.09"/><use xlink:href="#DejaVuSans-6c" x="728.613"/><use xlink:href="#DejaVuSans-69" x="756.396"/><use xlink:href="#DejaVuSans-78" x="784.18"/></g><g style="fill:#98df8a" transform="matrix(.14 0 0 -.14 465.907 304.791)" id="text_32"><defs><path id="DejaVuSans-77" d="M269 3500h575l719-2731 715 2731h678l719-2731 716 2731h575L4050 0h-678l-753 2869L1863 0h-679L269 3500z" transform="scale(.01563)"/></defs><use xlink:href="#DejaVuSans-6d"/><use xlink:href="#DejaVuSans-61" x="97.412"/><use xlink:href="#DejaVuSans-77" x="158.691"/><use xlink:href="#DejaVuSans-77" x="240.479"/><use xlink:href="#DejaVuSans-77" x="322.266"/><use xlink:href="#DejaVuSans-2f" x="404.053"/><use xlink:href="#DejaVuSans-6b" x="437.744"/><use xlink:href="#DejaVuSans-61" x="493.904"/><use xlink:href="#DejaVuSans-6b" x="555.184"/><use xlink:href="#DejaVuSans-6f" x="609.469"/><use xlink:href="#DejaVuSans-75" x="670.65"/><use xlink:href="#DejaVuSans-6e" x="734.029"/><use xlink:href="#DejaVuSans-65" x="797.408"/></g><g style="fill:#ff9896" transform="matrix(.14 0 0 -.14 465.907 318.791)" id="text_33"><use xlink:href="#DejaVuSans-6f"/><use xlink:href="#DejaVuSans-6e" x="61.182"/><use xlink:href="#DejaVuSans-69" x="124.561"/><use xlink:href="#DejaVuSans-76" x="152.344"/><use xlink:href="#DejaVuSans-69" x="211.523"/><use xlink:href="#DejaVuSans-6d" x="239.307"/><use xlink:href="#DejaVuSans-2f" x="336.719"/><use xlink:href="#DejaVuSans-6f" x="370.41"/><use xlink:href="#DejaVuSans-6e" x="431.592"/><use xlink:href="#DejaVuSans-69" x="494.971"/><use xlink:href="#DejaVuSans-32" x="522.754"/></g><g style="fill:#c5b0d5" transform="matrix(.14 0 0 -.14 465.907 332.791)" id="text_34"><use xlink:href="#DejaVuSans-65"/><use xlink:href="#DejaVuSans-6d" x="61.523"/><use xlink:href="#DejaVuSans-61" x="158.936"/><use xlink:href="#DejaVuSans-63" x="220.215"/><use xlink:href="#DejaVuSans-73" x="275.195"/><use xlink:href="#DejaVuSans-2d" x="327.295"/><use xlink:href="#DejaVuSans-6d" x="363.379"/><use xlink:href="#DejaVuSans-69" x="460.791"/><use xlink:href="#DejaVuSans-72" x="488.574"/><use xlink:href="#DejaVuSans-72" x="527.938"/><use xlink:href="#DejaVuSans-6f" x="566.801"/><use xlink:href="#DejaVuSans-72" x="627.982"/><use xlink:href="#DejaVuSans-2f" x="669.096"/><use xlink:href="#DejaVuSans-65" x="702.787"/><use xlink:href="#DejaVuSans-6d" x="764.311"/><use xlink:href="#DejaVuSans-61" x="861.723"/><use xlink:href="#DejaVuSans-63" x="923.002"/><use xlink:href="#DejaVuSans-73" x="977.982"/></g><g style="fill:#b0b0b0" transform="matrix(.09716 0 0 -.09716 98.073 317.806)" id="text_35"><defs><path id="DejaVuSans-40" d="M2381 1678q0-447 222-702 222-254 610-254 384 0 604 256 221 256 221 700 0 438-225 695-225 258-607 258-378 0-602-256-223-256-223-697zm1703-934q-187-241-429-355t-564-114q-538 0-874 389t-336 1014q0 625 337 1015 338 391 873 391 322 0 565-117 244-117 428-354v409h447V722q457 69 714 417 258 349 258 902 0 334-99 628-98 294-298 544-325 409-792 626t-1017 217q-384 0-738-102-353-101-653-301-490-319-767-836-276-517-276-1120 0-497 179-932 180-434 521-765 328-325 759-495 431-171 922-171 403 0 792 136t714 389l281-347q-390-303-851-464t-936-161q-578 0-1091 205-512 205-912 595Q841 78 631 592q-209 514-209 1105 0 569 212 1084 213 516 607 907 403 396 931 607t1119 211q662 0 1229-272 568-271 952-771 234-307 357-666 124-359 124-744 0-822-497-1297T4084 263v481z" transform="scale(.01563)"/><path id="DejaVuSans-67" d="M2906 1791q0 625-258 968-257 344-723 344-462 0-720-344-258-343-258-968 0-622 258-966t720-344q466 0 723 344 258 344 258 966zm575-1357q0-893-397-1329-396-436-1215-436-303 0-572 45t-522 139v559q253-137 500-202 247-66 503-66 566 0 847 295t281 892v285q-178-310-456-463T1784 0Q1141 0 747 490 353 981 353 1791q0 812 394 1302 394 491 1037 491 388 0 666-153t456-462v531h575V434z" transform="scale(.01563)"/><path id="DejaVuSans-7c" d="M1344 4891v-6400H813v6400h531z" transform="scale(.01563)"/><path id="DejaVuSans-4e" d="M628 4666h850L3547 763v3903h612V0h-850L1241 3903V0H628v4666z" transform="scale(.01563)"/><path id="DejaVuSans-f6" d="M1959 3097q-462 0-731-361t-269-989q0-628 267-989 268-361 733-361 460 0 728 362 269 363 269 988 0 622-269 986-268 364-728 364zm0 487q750 0 1178-488 429-487 429-1349 0-859-429-1349Q2709-91 1959-91q-753 0-1180 489-426 490-426 1349 0 862 426 1349 427 488 1180 488zm295 1266h634v-631h-634v631zm-1222 0h634v-631h-634v631z" transform="scale(.01563)"/><path id="DejaVuSans-42" d="M1259 2228V519h1013q509 0 754 211 246 211 246 645 0 438-246 645-245 208-754 208H1259zm0 1919V2741h935q462 0 688 173 227 174 227 530 0 353-227 528-226 175-688 175h-935zm-631 519h1613q722 0 1112-300 391-300 391-853 0-429-200-682t-588-315q466-100 724-418 258-317 258-792 0-625-425-966Q3088 0 2303 0H628v4666z" transform="scale(.01563)"/><path id="DejaVuSans-59" d="M-13 4666h679l1293-1919 1285 1919h678L2272 2222V0h-634v2222L-13 4666z" transform="scale(.01563)"/></defs><use xlink:href="#DejaVuSans-40"/><use xlink:href="#DejaVuSans-6e" x="100"/><use xlink:href="#DejaVuSans-73" x="163.379"/><use xlink:href="#DejaVuSans-63" x="215.479"/><use xlink:href="#DejaVuSans-68" x="270.459"/><use xlink:href="#DejaVuSans-6c" x="333.838"/><use xlink:href="#DejaVuSans-6f" x="361.621"/><use xlink:href="#DejaVuSans-65" x="422.803"/><use xlink:href="#DejaVuSans-20" x="484.326"/><use xlink:href="#DejaVuSans-2f" x="516.113"/><use xlink:href="#DejaVuSans-20" x="549.805"/><use xlink:href="#DejaVuSans-67" x="581.592"/><use xlink:href="#DejaVuSans-68" x="645.068"/><use xlink:href="#DejaVuSans-2d" x="708.447"/><use xlink:href="#DejaVuSans-74" x="744.531"/><use xlink:href="#DejaVuSans-72" x="783.74"/><use xlink:href="#DejaVuSans-65" x="822.604"/><use xlink:href="#DejaVuSans-6e" x="884.127"/><use xlink:href="#DejaVuSans-64" x="947.506"/><use xlink:href="#DejaVuSans-73" x="1010.982"/><use xlink:href="#DejaVuSans-20" x="1063.082"/><use xlink:href="#DejaVuSans-7c" x="1094.869"/><use xlink:href="#DejaVuSans-20" x="1128.561"/><use xlink:href="#DejaVuSans-4e" x="1160.348"/><use xlink:href="#DejaVuSans-69" x="1235.152"/><use xlink:href="#DejaVuSans-63" x="1262.936"/><use xlink:href="#DejaVuSans-6f" x="1317.916"/><use xlink:href="#DejaVuSans-20" x="1379.098"/><use xlink:href="#DejaVuSans-53" x="1410.885"/><use xlink:href="#DejaVuSans-63" x="1474.361"/><use xlink:href="#DejaVuSans-68" x="1529.342"/><use xlink:href="#DejaVuSans-6c" x="1592.721"/><use xlink:href="#DejaVuSans-f6" x="1620.504"/><use xlink:href="#DejaVuSans-6d" x="1681.686"/><use xlink:href="#DejaVuSans-65" x="1779.098"/><use xlink:href="#DejaVuSans-72" x="1840.621"/><use xlink:href="#DejaVuSans-20" x="1881.734"/><use xlink:href="#DejaVuSans-7c" x="1913.521"/><use xlink:href="#DejaVuSans-20" x="1947.213"/><use xlink:href="#DejaVuSans-43" x="1979"/><use xlink:href="#DejaVuSans-43" x="2048.824"/><use xlink:href="#DejaVuSans-20" x="2118.648"/><use xlink:href="#DejaVuSans-42" x="2150.436"/><use xlink:href="#DejaVuSans-59" x="2213.539"/></g><path d="m387.742 283.77 2.772-.002h28.089l2.865-.046 2.772-5.77 2.864-.496 2.864-.745 2.772-.305 2.865-.343 2.772-1.344 2.864-1.133 2.864-1.13 2.587-.39 2.865-1.104 2.772-4.663 2.864-1.71" clip-path="url(#p0c6b5a6f4d)" style="fill:none;stroke:#ffbb78;stroke-width:1.5;stroke-linecap:square" id="line2d_29"/><path d="m129.027 283.77 2.864-.006 2.772-.002h5.729l2.587-.002h2.864l2.772-.008h2.864l2.772-.118 2.865-.018 2.864-.002 2.772-.002 2.864-7.329 2.772-1.453 2.865-.347 2.864-.51 2.587-.5 2.865-.493 2.772-.337 2.864-.3 2.772-.205 2.864-.307 2.865-3.044 2.771-.563 2.865-.408 2.772-.707 2.864-.633 2.864-.476 2.588-.698 2.864-.473 2.772-.348 2.864-.315 2.772-.27 2.865-.205 2.864-.24 2.772-.23 2.864-.208 2.772-.236 2.865-.19 2.864-.21 2.68-.186 2.864-.155 2.772-.142 2.864-.17 2.772-.179 2.864-.155 2.865-.152 2.772-.21 2.864-.842 2.772-.116 2.864-.152 2.865-.142 2.587-.106 2.864-.124 2.772-.097 2.865-.177 2.772-.148 2.864-.116 2.864-.12 2.772-.124 2.865-.083 2.771-.085 2.865-.092 2.864-.093 2.587-.087 2.865-.07 2.772-.06 2.864-.083 2.772-.1 2.864-.04 2.865-.055 2.772-.067 2.864-.072 2.772-.06 2.864-.03 2.865-.04 2.587-.038 2.864-.03 2.772-.05 2.864-.062 2.772-.073 2.865-.076 2.864-.099 2.772-.124 2.864-.166 2.772-.145 2.865-.132 2.864-.13 2.68-.144 2.864-.162 2.772-.14 2.864-.165 2.772-.144 2.865-.175 2.864-.21 2.772-.192 2.864-.166 2.772-.173 2.865-.17 2.864-.15 2.587-.167 2.864-.157 2.772-.178 2.865-.167 2.772-.154 2.864-.035 2.864-.034 2.772-.017 2.865-.022 2.772-.041 2.864-.036 2.864-.031 2.587-.042 2.865-.033 2.772-.042 2.864-.033" clip-path="url(#p0c6b5a6f4d)" style="fill:none;stroke:#aec7e8;stroke-width:1.5;stroke-linecap:square" id="line2d_30"/><path d="m325.835 283.77 2.865-1.066 2.772-.764 2.864-.367 2.772-.264 2.864-.276 2.865-.274 2.587-.392 2.864-.34 2.772-4.049 2.864-1.12 2.772-.702 2.865-.534 2.864-.428 2.772-.417 2.864-.637 2.772-.58 2.865-.935 2.864-.61 2.68-.629 2.864-.654 2.772-.717 2.864-.565 2.772-2.36 2.865-.731 2.864-.656 2.772-.653 2.864-.537 2.772-.554 2.865-.607 2.864-.668 2.587-.855 2.864-.528 2.772-.526 2.865-.62 2.772-.5 2.864-.572 2.864-.638 2.772-.461 2.865-.54 2.772-.522 2.864-.573 2.864-.546 2.587-.512 2.865-.615 2.772-.617 2.864-.632" clip-path="url(#p0c6b5a6f4d)" style="fill:none;stroke:#17becf;stroke-width:1.5;stroke-linecap:square" id="line2d_31"/><path d="m210.43 283.77 2.864-.002 2.772-.022 2.864-.879 2.772-1.54 2.865-.355 2.864-.18 2.772-.192 2.864-.215 2.772-.244 2.865-.197 2.864-.223 2.68-.197 2.864-.234 2.772-.18 2.864-.202 2.772-.178 2.864-.179 2.865-.185 2.772-.144 2.864-.213 2.772-.19 2.864-.222 2.865-.202 2.587-.195 2.864-.341 2.772-.23 2.865-.225 2.772-.237 2.864-.199 2.864-.224 2.772-.215 2.865-.213 2.771-.301 2.865-.314 2.864-.271 2.587-.235 2.865-.311 2.772-.28 2.864-.254 2.772-.195 2.864-.268 2.865-.225 2.772-.222 2.864-.304 2.772-.336 2.864-.266 2.865-.369 2.587-.236 2.864-.422 2.772-.311 2.864-.284 2.772-.266 2.865-.272 2.864-.197 2.772-.236 2.864-2.358 2.772-1.568 2.865-.465 2.864-.29 2.68-.339 2.864-.32 2.772-.391 2.864-.416 2.772-.33 2.865-.554 2.864-.514 2.772-.463 2.864-.444 2.772-.392 2.865-.392 2.864-.508 2.587-.38 2.864-.406 2.772-.398 2.865-.398 2.772-.863 2.864-.368 2.864-.438 2.772-.46 2.865-.438 2.772-.451 2.864-.463 2.864-.493 2.587-.48 2.865-.627 2.772-.585 2.864-.762" clip-path="url(#p0c6b5a6f4d)" style="fill:none;stroke:#bcbd22;stroke-width:1.5;stroke-linecap:square" id="line2d_32"/><path d="m244.247 283.77 2.865-.002 2.772-2.975 2.864-.36 2.772-.137 2.864-.104 2.865-2.155 2.772-1.754 2.864-.421 2.772-.22 2.864-.19 2.865-.197 2.587-.347 2.864-.242 2.772-.296 2.865-.356 2.772-.227 2.864-.266 2.864-.327 2.772-2.52 2.865-1.2 2.771-.318 2.865-.245 2.864-.309 2.587-.33 2.865-.338 2.772-.337 2.864-.975 2.772-.345 2.864-.273 2.865-.255 2.772-.327 2.864-.189 2.772-.37 2.864-.307 2.865-.355 2.587-.305 2.864-.296 2.772-.236 2.864-.286 2.772-.254 2.865-.31 2.864-.376 2.772-.366 2.864-.298 2.772-.337 2.865-.319 2.864-.58 2.68-.395 2.864-.567 2.772-.601 2.864-1.596 2.772-1.003 2.865-.561 2.864-.487 2.772-.417 2.864-.412 2.772-.495 2.865-.618 2.864-.57 2.587-.526 2.864-.496 2.772-.422 2.865-.599 2.772-.482 2.864-.42 2.864-.52 2.772-.431 2.865-.331 2.772-1.039 2.864-.466 2.864-.456 2.587-.364 2.865-.6 2.772-.497 2.864-.477" clip-path="url(#p0c6b5a6f4d)" style="fill:none;stroke:#7f7f7f;stroke-width:1.5;stroke-linecap:square" id="line2d_33"/><path d="m134.663 283.77 2.864-.002h28.089l2.772-.004h5.729l2.587-.004 2.865-.002 2.772-.002 2.864-.002h8.501l2.771-.008 2.865-.014 2.772-.193 2.864-.477 2.864-.356 2.588-.244 2.864-.337 2.772-2.043 2.864-.499 2.772-.532 2.865-.522 2.864-.514 2.772-.546 2.864-.644 2.772-.717 2.865-.806 2.864-1.576 2.68-.774 2.864-.82 2.772-.74 2.864-.692 2.772-.705 2.864-.707 2.865-.623 2.772-.8 2.864-.892 2.772-.625 2.864-.734 2.865-.765 2.587-.719 2.864-.686 2.772-.593 2.865-.526 2.772-.474 2.864-.485 2.864-.522 2.772-.45 2.865-.52 2.771-.535 2.865-.465 2.864-.674 2.587-.465 2.865-.618 2.772-.536 2.864-.615 2.772-.475 2.864-.45 2.865-.608 2.772-.47 2.864-.355 2.772-.463 2.864-.435 2.865-.495 2.587-.386 2.864-.564 2.772-.531 2.864-.528 2.772-.393 2.865-.382 2.864-.43 2.772-.381 2.864-.385 2.772-.443 2.865-.437 2.864-.436 2.68-.378 2.864-.427 2.772-.44 2.864-.474 2.772-.389 2.865-.319 2.864-.344 2.772-.304 2.864-.278 2.772-.25 2.865-.311 2.864-.32 2.587-.236 2.864-.28 2.772-.26 2.865-.256 2.772-.254 2.864-.195 2.864-.222 2.772-.172 2.865-.185 2.772-.175 2.864-.213 2.864-.26 2.587-.205 2.865-.217 2.772-.234 2.864-.201" clip-path="url(#p0c6b5a6f4d)" style="fill:none;stroke:#e377c2;stroke-width:1.5;stroke-linecap:square" id="line2d_34"/><path d="m224.567 283.77 2.864-2.561 2.772-.846 2.864-.488 2.772-.445 2.865-.43 2.864-.508 2.68-.428 2.864-.411 2.772-1.965 2.864-.37 2.772-.404 2.864-.427 2.865-.583 2.772-2.97 2.864-.531 2.772-.53 2.864-.47 2.865-.438 2.587-.426 2.864-.492 2.772-.42 2.865-.489 2.772-.433 2.864-.396 2.864-.562 2.772-.478 2.865-.656 2.771-.662 2.865-.613 2.864-.563 2.587-.552 2.865-.674 2.772-.646 2.864-.869 2.772-.475 2.864-.67 2.865-.72 2.772-.658 2.864-.483 2.772-.684 2.864-.656 2.865-.68 2.587-.602 2.864-.704 2.772-.762 2.864-.747 2.772-.717 2.865-.662 2.864-.595 2.772-.518 2.864-.494 2.772-.524 2.865-.702 2.864-.646 2.68-.546 2.864-.587 2.772-.662 2.864-.705 2.772-.646 2.865-.599 2.864-.654 2.772-.642 2.864-.633 2.772-.638 2.865-.623 2.864-.703 2.587-.681 2.864-.658 2.772-.696 2.865-.739 2.772-.577 2.864-.589 2.864-.552 2.772-.535 2.865-.542 2.772-.749 2.864-.796 2.864-.8 2.587-.683 2.865-.721 2.772-.678 2.864-.595" clip-path="url(#p0c6b5a6f4d)" style="fill:none;stroke:#8c564b;stroke-width:1.5;stroke-linecap:square" id="line2d_35"/><path d="m252.748 283.77 2.772-4.132 2.864-.858 2.865-.268 2.772-.404 2.864-.264 2.772-.258 2.864-.247 2.865-.281 2.587-.453 2.864-.572 2.772-.55 2.865-.449 2.772-.459 2.864-.577 2.864-.666 2.772-.506 2.865-.6 2.771-1.173 2.865-.763 2.864-.69 2.587-.787 2.865-.82 2.772-.825 2.864-.676 2.772-1.29 2.864-.91 2.865-1.072 2.772-.696 2.864-.916 2.772-.979 2.864-.772 2.865-1.147 2.587-.803 2.864-1.218 2.772-.985 2.864-1.105 2.772-.895 2.865-1.01 2.864-.95 2.772-.896 2.864-.895 2.772-.701 2.865-.804 2.864-.664 2.68-.644 2.864-.754 2.772-.855 2.864-.763 2.772-.685 2.865-.824 2.864-.857 2.772-.83 2.864-.655 2.772-.658 2.865-.938 2.864-.85 2.587-.685 2.864-.817 2.772-.777 2.865-.817 2.772-.826 2.864-.744 2.864-.792 2.772-.767 2.865-.77 2.772-1.022 2.864-1.039 2.864-.83 2.587-.862 2.865-.928 2.772-.955 2.864-1.068" clip-path="url(#p0c6b5a6f4d)" style="fill:none;stroke:#9467bd;stroke-width:1.5;stroke-linecap:square" id="line2d_36"/><path d="m100.845 283.77 2.864-11.25 2.865-.41 2.68-.37 2.864-.338 2.772-.33 2.864-.364 2.772-.396 2.864-.256 2.865-.11 2.772-.107 2.864-.1 2.772-.057 2.864-.053 2.865-.032 2.587-.388 2.864-.64 2.772-.574 2.864-.82 2.772-1.01 2.865-.685 2.864-1.214 2.772-.926 2.864-.658 2.772-1.009 2.865-.63 2.864-.627 2.587-1.14 2.865-.981 2.772-.871 2.864-.946 2.772-.64 2.864-.703 2.865-.75 2.771-.915 2.865-.896 2.772-2.475 2.864-.849 2.864-.67 2.588-.597 2.864-.957 2.772-.798 2.864-.713 2.772-.603 2.865-.583 2.864-.526 2.772-.623 2.864-.607 2.772-.5 2.865-.512 2.864-.581 2.68-.518 2.864-.485 2.772-.412 2.864-.451 2.772-.49 2.864-.375 2.865-.427 2.772-.455 2.864-.46 2.772-.508 2.864-.396 2.865-.372 2.587-.404 2.864-.51 2.772-.35 2.865-.37 2.772-.383 2.864-.412 2.864-.398 2.772-.46 2.865-.352 2.771-.295 2.865-.278 2.864-.33 2.587-.295 2.865-.238 2.772-.246 2.864-.237 2.772-.234 2.864-.227 2.865-.212 2.772-.168 2.864-.45 2.772-.188 2.864-.187 2.865-.18 2.587-.189 2.864-.25 2.772-.22 2.864-.241 2.772-.288 2.865-.246 2.864-.305 2.772-.349 2.864-.366 2.772-.345 2.865-.317 2.864-.347 2.68-.374 2.864-.442 2.772-.352 2.864-.353 2.772-.33 2.865-.37 2.864-.395 2.772-.384 2.864-.389 2.772-.329 2.865-.401 2.864-.369 2.587-.36 2.864-1.188 2.772-.448 2.865-.342 2.772-.36 2.864-.158 2.864-.172 2.772-.077 2.865-.132 2.772-.077 2.864-.055 2.864-.065 2.587-.053 2.865-.047 2.772-.036 2.864-.049" clip-path="url(#p0c6b5a6f4d)" style="fill:none;stroke:#d62728;stroke-width:1.5;stroke-linecap:square" id="line2d_37"/><path d="m174.117 283.77 2.587-8.59 2.865-3.225 2.772-1.172 2.864-.977 2.772-1.096 2.864-.725 2.865-.565 2.771-1.024 2.865-.649 2.772-.998 2.864-.48 2.864-1.067 2.588-.561 2.864-1.066 2.772-.962 2.864-.658 2.772-.845 2.865-.804 2.864-.724 2.772-.735 2.864-.773 2.772-1.347 2.865-.688 2.864-.738 2.68-.741 2.864-.936 2.772-.971 2.864-.723 2.772-.568 2.864-.618 2.865-.666 2.772-.753 2.864-.536 2.772-.656 2.864-.63 2.865-.646 2.587-.702 2.864-.703 2.772-.615 2.865-1.105 2.772-.6 2.864-.527 2.864-.813 2.772-.62 2.865-.803 2.771-1.044 2.865-.597 2.864-.67 2.587-.654 2.865-.906 2.772-.642 2.864-.826 2.772-.805 2.864-.704 2.865-.756 2.772-.682 2.864-.652 2.772-.691 2.864-.658 2.865-.804 2.587-.613 2.864-.936 2.772-.999 2.864-.833 2.772-.772 2.865-.954 2.864-.987 2.772-1.062 2.864-.858 2.772-.924 2.865-.83 2.864-.821 2.68-.909 2.864-.95 2.772-1.02 2.864-1.119 2.772-.98 2.865-1.017 2.864-.98 2.772-1.063 2.864-1.224 2.772-1.132 2.865-1.626 2.864-1.263 2.587-1.166 2.864-1.647 2.772-1.785 2.865-1.434 2.772-1.874 2.864-2.003 2.864-1.98 2.772-1.353 2.865-1.673 2.772-1.947 2.864-1.808 2.864-1.751 2.587-1.679 2.865-1.938 2.772-2.268 2.864-2.309" clip-path="url(#p0c6b5a6f4d)" style="fill:none;stroke:#2ca02c;stroke-width:1.5;stroke-linecap:square" id="line2d_38"/><path d="m103.71 283.77 2.864-.002h39.269l2.772-.004h25.502l2.587-.002 2.865-.002 2.772-.002 2.864-9.604 2.772-1.279 2.864-1.464 2.865-.998 2.771-.958 2.865-2.039 2.772-1.231 2.864-1.074 2.864-1.164 2.588-1.62 2.864-1.564 2.772-1.659 2.864-1.785 2.772-3.524 2.865-2.01 2.864-1.243 2.772-1.327 2.864-1.482 2.772-1.665 2.865-1.93 2.864-1.679 2.68-1.501 2.864-1.773 2.772-1.71 2.864-1.55 2.772-1.405 2.864-1.212 2.865-1.631 2.772-1.478 2.864-1.546 2.772-1.47 2.864-1.34 2.865-1.583 2.587-1.492 2.864-1.505 2.772-1.227 2.865-1.488 2.772-1.38 2.864-1.462 2.864-1.661 2.772-1.819 2.865-1.522 2.771-1.472 2.865-1.166 2.864-1.21 2.587-1.103 2.865-1.22 2.772-1.01 2.864-.978 2.772-.99 2.864-.87 2.865-.902 2.772-.796 2.864-.83 2.772-.807 2.864-.715 2.865-.756 2.587-.745 2.864-.875 2.772-.849 2.864-.835 2.772-.694 2.865-.772 2.864-.687 2.772-.688 2.864-.719 2.772-.733 2.865-.674 2.864-.626 2.68-.607 2.864-.719 2.772-.713 2.864-.81 2.772-.676 2.865-.76 2.864-.786 2.772-.713 2.864-.692 2.772-.752 2.865-.737 2.864-.688 2.587-.693 2.864-.715 2.772-.7 2.865-.681 2.772-1.16 2.864-.57 2.864-.53 2.772-.467 2.865-.555 2.772-.436 2.864-.581 2.864-.54 2.587-.662 2.865-.67 2.772-.912 2.864-.56" clip-path="url(#p0c6b5a6f4d)" style="fill:none;stroke:#ff7f0e;stroke-width:1.5;stroke-linecap:square" id="line2d_39"/><path d="m227.431 283.77 2.772-.002h2.864l2.772-14.307 2.865-2.118 2.864-1.643 2.68-1.345 2.864-1.83 2.772-3.196 2.864-1.842 2.772-1.549 2.864-1.467 2.865-1.438 2.772-1.758 2.864-1.854 2.772-1.993 2.864-1.866 2.865-1.702 2.587-2.557 2.864-3.412 2.772-3.117 2.865-2.859 2.772-2.504 2.864-2.663 2.864-2.957 2.772-3.056 2.865-4.608 2.771-4.89 2.865-3.402 2.864-3.745 2.587-3.375 2.865-3.806 2.772-3.49 2.864-4.426 2.772-5.817 2.864-3.78 2.865-4.29 2.772-4.428 2.864-4.85 2.772-3.559 2.864-3.24 2.865-3.576 2.587-3.416 2.864-4.97 2.772-4.028 2.864-5.2 2.772-3.45 2.865-3.206 2.864-3.307 2.772-3.35 2.864-3.12 2.772-4.683 2.865-3.702 2.864-2.913 2.68-2.597 2.864-3.2 2.772-3.654 2.864-3.857 2.772-3.399 2.865-3.95 2.864-3.633 2.772-3.158 2.864-3.272 2.772-3.152 2.865-3.658 2.864-3.135 2.587-3.581 2.864-4.142 2.772-3.542 2.865-2.941 2.772-3.24 2.864-3.383 2.864-3.267 2.772-2.921 2.865-3.044 2.772-3.235 2.864-2.86 2.864-2.893 2.587-2.959 2.865-3.252 2.772-2.926 2.864-3.6" clip-path="url(#p0c6b5a6f4d)" style="fill:none;stroke:#1f77b4;stroke-width:1.5;stroke-linecap:square" id="line2d_40"/></g></g><defs><clipPath id="p0c6b5a6f4d"><path d="M98.073 17.658h357.12V283.77H98.073z"/></clipPath></defs></svg>