<svg xmlns="http://www.w3.org/2000/svg" xmlns:xlink="http://www.w3.org/1999/xlink" width="972.788" height="469.896" viewBox="0 0 729.591 352.422"><defs><style>*{stroke-linejoin:round;stroke-linecap:butt}</style></defs><g id="figure_1"><path id="patch_1" d="M0 352.422h729.591V0H0v352.422z" style="fill:none"/><g id="axes_1"><path id="patch_2" d="M98.073 295.036h357.12V28.924H98.073v266.112z" style="fill:none"/><g id="matplotlib.axis_1"><g id="xtick_1"><g id="line2d_1"><defs><path id="md19fac2729" d="M0 0v3.5" style="stroke:#b0b0b0;stroke-width:.4"/></defs><use xlink:href="#md19fac2729" x="103.373" y="295.036" style="fill:#b0b0b0;stroke:#b0b0b0;stroke-width:.4"/></g><g id="text_1" style="fill:#b0b0b0" transform="matrix(.14 0 0 -.14 85.558 312.673)"><defs><path id="DejaVuSans-32" d="M1228 531h2203V0H469v531q359 372 979 998 621 627 780 809 303 340 423 576 121 236 121 464 0 372-261 606-261 235-680 235-297 0-627-103-329-103-704-313v638q381 153 712 231 332 78 607 78 725 0 1156-363 431-362 431-968 0-288-108-546-107-257-392-607-78-91-497-524-418-433-1181-1211z" transform="scale(.01563)"/><path id="DejaVuSans-30" d="M2034 4250q-487 0-733-480-245-479-245-1442 0-959 245-1439 246-480 733-480 491 0 736 480 246 480 246 1439 0 963-246 1442-245 480-736 480zm0 500q785 0 1199-621 414-620 414-1801 0-1178-414-1799Q2819-91 2034-91q-784 0-1198 620-414 621-414 1799 0 1181 414 1801 414 621 1198 621z" transform="scale(.01563)"/><path id="DejaVuSans-31" d="M794 531h1031v3560L703 3866v575l1116 225h631V531h1031V0H794v531z" transform="scale(.01563)"/></defs><use xlink:href="#DejaVuSans-32"/><use xlink:href="#DejaVuSans-30" x="63.623"/><use xlink:href="#DejaVuSans-31" x="127.246"/><use xlink:href="#DejaVuSans-32" x="190.869"/></g></g><g id="xtick_2"><use xlink:href="#md19fac2729" id="line2d_2" x="166.89" y="295.036" style="fill:#b0b0b0;stroke:#b0b0b0;stroke-width:.4"/><g id="text_2" style="fill:#b0b0b0" transform="matrix(.14 0 0 -.14 149.075 312.673)"><defs><path id="DejaVuSans-34" d="M2419 4116 825 1625h1594v2491zm-166 550h794V1625h666v-525h-666V0h-628v1100H313v609l1940 2957z" transform="scale(.01563)"/></defs><use xlink:href="#DejaVuSans-32"/><use xlink:href="#DejaVuSans-30" x="63.623"/><use xlink:href="#DejaVuSans-31" x="127.246"/><use xlink:href="#DejaVuSans-34" x="190.869"/></g></g><g id="xtick_3"><use xlink:href="#md19fac2729" id="line2d_3" x="230.32" y="295.036" style="fill:#b0b0b0;stroke:#b0b0b0;stroke-width:.4"/><g id="text_3" style="fill:#b0b0b0" transform="matrix(.14 0 0 -.14 212.505 312.673)"><defs><path id="DejaVuSans-36" d="M2113 2584q-425 0-674-291-248-290-248-796 0-503 248-796 249-292 674-292t673 292q248 293 248 796 0 506-248 796-248 291-673 291zm1253 1979v-575q-238 112-480 171-242 60-480 60-625 0-955-422-329-422-376-1275 184 272 462 417 279 145 613 145 703 0 1111-427 408-426 408-1160 0-719-425-1154Q2819-91 2113-91q-810 0-1238 620-428 621-428 1799 0 1106 525 1764t1409 658q238 0 480-47t505-140z" transform="scale(.01563)"/></defs><use xlink:href="#DejaVuSans-32"/><use xlink:href="#DejaVuSans-30" x="63.623"/><use xlink:href="#DejaVuSans-31" x="127.246"/><use xlink:href="#DejaVuSans-36" x="190.869"/></g></g><g id="xtick_4"><use xlink:href="#md19fac2729" id="line2d_4" x="293.837" y="295.036" style="fill:#b0b0b0;stroke:#b0b0b0;stroke-width:.4"/><g id="text_4" style="fill:#b0b0b0" transform="matrix(.14 0 0 -.14 276.022 312.673)"><defs><path id="DejaVuSans-38" d="M2034 2216q-450 0-708-241-257-241-257-662 0-422 257-663 258-241 708-241t709 242q260 243 260 662 0 421-258 662-257 241-711 241zm-631 268q-406 100-633 378-226 279-226 679 0 559 398 884 399 325 1092 325 697 0 1094-325t397-884q0-400-227-679-226-278-629-378 456-106 710-416 255-309 255-755 0-679-414-1042Q2806-91 2034-91q-771 0-1186 362-414 363-414 1042 0 446 256 755 257 310 713 416zm-231 997q0-362 226-565 227-203 636-203 407 0 636 203 230 203 230 565 0 363-230 566-229 203-636 203-409 0-636-203-226-203-226-566z" transform="scale(.01563)"/></defs><use xlink:href="#DejaVuSans-32"/><use xlink:href="#DejaVuSans-30" x="63.623"/><use xlink:href="#DejaVuSans-31" x="127.246"/><use xlink:href="#DejaVuSans-38" x="190.869"/></g></g><g id="xtick_5"><use xlink:href="#md19fac2729" id="line2d_5" x="357.268" y="295.036" style="fill:#b0b0b0;stroke:#b0b0b0;stroke-width:.4"/><g id="text_5" style="fill:#b0b0b0" transform="matrix(.14 0 0 -.14 339.453 312.673)"><use xlink:href="#DejaVuSans-32"/><use xlink:href="#DejaVuSans-30" x="63.623"/><use xlink:href="#DejaVuSans-32" x="127.246"/><use xlink:href="#DejaVuSans-30" x="190.869"/></g></g><g id="xtick_6"><use xlink:href="#md19fac2729" id="line2d_6" x="420.784" y="295.036" style="fill:#b0b0b0;stroke:#b0b0b0;stroke-width:.4"/><g id="text_6" style="fill:#b0b0b0" transform="matrix(.14 0 0 -.14 402.97 312.673)"><use xlink:href="#DejaVuSans-32"/><use xlink:href="#DejaVuSans-30" x="63.623"/><use xlink:href="#DejaVuSans-32" x="127.246"/><use xlink:href="#DejaVuSans-32" x="190.869"/></g></g></g><g id="matplotlib.axis_2"><g id="ytick_1"><path id="line2d_7" d="M98.073 295.036h357.12" clip-path="url(#p6de3d25c3b)" style="fill:none;stroke:#b0b0b0;stroke-width:.3;stroke-linecap:square"/><g id="line2d_8"><defs><path id="m2f352be588" d="M0 0h-3.5" style="stroke:#b0b0b0;stroke-width:.3"/></defs><use xlink:href="#m2f352be588" x="98.073" y="295.036" style="fill:#b0b0b0;stroke:#b0b0b0;stroke-width:.3"/></g><use xlink:href="#DejaVuSans-30" id="text_7" style="fill:#b0b0b0" transform="matrix(.14 0 0 -.14 82.166 300.354)"/></g><g id="ytick_2"><path id="line2d_9" d="M98.073 258.757h357.12" clip-path="url(#p6de3d25c3b)" style="fill:none;stroke:#b0b0b0;stroke-width:.3;stroke-linecap:square"/><use xlink:href="#m2f352be588" id="line2d_10" x="98.073" y="258.757" style="fill:#b0b0b0;stroke:#b0b0b0;stroke-width:.3"/><g id="text_8" style="fill:#b0b0b0" transform="matrix(.14 0 0 -.14 46.536 264.076)"><use xlink:href="#DejaVuSans-32"/><use xlink:href="#DejaVuSans-30" x="63.623"/><use xlink:href="#DejaVuSans-30" x="127.246"/><use xlink:href="#DejaVuSans-30" x="190.869"/><use xlink:href="#DejaVuSans-30" x="254.492"/></g></g><g id="ytick_3"><path id="line2d_11" d="M98.073 222.478h357.12" clip-path="url(#p6de3d25c3b)" style="fill:none;stroke:#b0b0b0;stroke-width:.3;stroke-linecap:square"/><use xlink:href="#m2f352be588" id="line2d_12" x="98.073" y="222.478" style="fill:#b0b0b0;stroke:#b0b0b0;stroke-width:.3"/><g id="text_9" style="fill:#b0b0b0" transform="matrix(.14 0 0 -.14 46.536 227.797)"><use xlink:href="#DejaVuSans-34"/><use xlink:href="#DejaVuSans-30" x="63.623"/><use xlink:href="#DejaVuSans-30" x="127.246"/><use xlink:href="#DejaVuSans-30" x="190.869"/><use xlink:href="#DejaVuSans-30" x="254.492"/></g></g><g id="ytick_4"><path id="line2d_13" d="M98.073 186.2h357.12" clip-path="url(#p6de3d25c3b)" style="fill:none;stroke:#b0b0b0;stroke-width:.3;stroke-linecap:square"/><use xlink:href="#m2f352be588" id="line2d_14" x="98.073" y="186.2" style="fill:#b0b0b0;stroke:#b0b0b0;stroke-width:.3"/><g id="text_10" style="fill:#b0b0b0" transform="matrix(.14 0 0 -.14 46.536 191.519)"><use xlink:href="#DejaVuSans-36"/><use xlink:href="#DejaVuSans-30" x="63.623"/><use xlink:href="#DejaVuSans-30" x="127.246"/><use xlink:href="#DejaVuSans-30" x="190.869"/><use xlink:href="#DejaVuSans-30" x="254.492"/></g></g><g id="ytick_5"><path id="line2d_15" d="M98.073 149.921h357.12" clip-path="url(#p6de3d25c3b)" style="fill:none;stroke:#b0b0b0;stroke-width:.3;stroke-linecap:square"/><use xlink:href="#m2f352be588" id="line2d_16" x="98.073" y="149.921" style="fill:#b0b0b0;stroke:#b0b0b0;stroke-width:.3"/><g id="text_11" style="fill:#b0b0b0" transform="matrix(.14 0 0 -.14 46.536 155.24)"><use xlink:href="#DejaVuSans-38"/><use xlink:href="#DejaVuSans-30" x="63.623"/><use xlink:href="#DejaVuSans-30" x="127.246"/><use xlink:href="#DejaVuSans-30" x="190.869"/><use xlink:href="#DejaVuSans-30" x="254.492"/></g></g><g id="ytick_6"><path id="line2d_17" d="M98.073 113.643h357.12" clip-path="url(#p6de3d25c3b)" style="fill:none;stroke:#b0b0b0;stroke-width:.3;stroke-linecap:square"/><use xlink:href="#m2f352be588" id="line2d_18" x="98.073" y="113.643" style="fill:#b0b0b0;stroke:#b0b0b0;stroke-width:.3"/><g id="text_12" style="fill:#b0b0b0" transform="matrix(.14 0 0 -.14 37.628 118.962)"><use xlink:href="#DejaVuSans-31"/><use xlink:href="#DejaVuSans-30" x="63.623"/><use xlink:href="#DejaVuSans-30" x="127.246"/><use xlink:href="#DejaVuSans-30" x="190.869"/><use xlink:href="#DejaVuSans-30" x="254.492"/><use xlink:href="#DejaVuSans-30" x="318.115"/></g></g><g id="ytick_7"><path id="line2d_19" d="M98.073 77.364h357.12" clip-path="url(#p6de3d25c3b)" style="fill:none;stroke:#b0b0b0;stroke-width:.3;stroke-linecap:square"/><use xlink:href="#m2f352be588" id="line2d_20" x="98.073" y="77.364" style="fill:#b0b0b0;stroke:#b0b0b0;stroke-width:.3"/><g id="text_13" style="fill:#b0b0b0" transform="matrix(.14 0 0 -.14 37.628 82.683)"><use xlink:href="#DejaVuSans-31"/><use xlink:href="#DejaVuSans-32" x="63.623"/><use xlink:href="#DejaVuSans-30" x="127.246"/><use xlink:href="#DejaVuSans-30" x="190.869"/><use xlink:href="#DejaVuSans-30" x="254.492"/><use xlink:href="#DejaVuSans-30" x="318.115"/></g></g><g id="ytick_8"><path id="line2d_21" d="M98.073 41.086h357.12" clip-path="url(#p6de3d25c3b)" style="fill:none;stroke:#b0b0b0;stroke-width:.3;stroke-linecap:square"/><use xlink:href="#m2f352be588" id="line2d_22" x="98.073" y="41.086" style="fill:#b0b0b0;stroke:#b0b0b0;stroke-width:.3"/><g id="text_14" style="fill:#b0b0b0" transform="matrix(.14 0 0 -.14 37.628 46.405)"><use xlink:href="#DejaVuSans-31"/><use xlink:href="#DejaVuSans-34" x="63.623"/><use xlink:href="#DejaVuSans-30" x="127.246"/><use xlink:href="#DejaVuSans-30" x="190.869"/><use xlink:href="#DejaVuSans-30" x="254.492"/><use xlink:href="#DejaVuSans-30" x="318.115"/></g></g><g id="text_15" style="fill:#b0b0b0" transform="matrix(.14 0 0 -.14 7.2 11.563)"><defs><path id="DejaVuSans-47" d="M3809 666v1253H2778v519h1656V434q-365-259-806-392-440-133-940-133-1094 0-1712 639-617 640-617 1780 0 1144 617 1783 618 639 1712 639 456 0 867-113 411-112 758-331v-672q-350 297-744 447t-828 150q-857 0-1287-478-429-478-429-1425 0-944 429-1422 430-478 1287-478 334 0 596 58 263 58 472 180z" transform="scale(.01563)"/><path id="DejaVuSans-69" d="M603 3500h575V0H603v3500zm0 1363h575v-729H603v729z" transform="scale(.01563)"/><path id="DejaVuSans-74" d="M1172 4494v-994h1184v-447H1172V1153q0-428 117-550t477-122h590V0h-590q-666 0-919 248-253 249-253 905v1900H172v447h422v994h578z" transform="scale(.01563)"/><path id="DejaVuSans-48" d="M628 4666h631V2753h2294v1913h631V0h-631v2222H1259V0H628v4666z" transform="scale(.01563)"/><path id="DejaVuSans-75" d="M544 1381v2119h575V1403q0-497 193-746 194-248 582-248 465 0 735 297 271 297 271 810v1984h575V0h-575v538q-209-319-486-474-276-155-642-155-603 0-916 375-312 375-312 1097zm1447 2203z" transform="scale(.01563)"/><path id="DejaVuSans-62" d="M3116 1747q0 634-261 995t-717 361q-457 0-718-361t-261-995q0-634 261-995t718-361q456 0 717 361t261 995zM1159 2969q182 312 458 463 277 152 661 152 638 0 1036-506 399-506 399-1331T3314 415Q2916-91 2278-91q-384 0-661 152-276 152-458 464V0H581v4863h578V2969z" transform="scale(.01563)"/><path id="DejaVuSans-73" d="M2834 3397v-544q-243 125-506 187-262 63-544 63-428 0-642-131t-214-394q0-200 153-314t616-217l197-44q612-131 870-370t258-667q0-488-386-773Q2250-91 1575-91q-281 0-586 55T347 128v594q319-166 628-249 309-82 613-82 406 0 624 139 219 139 219 392 0 234-158 359-157 125-692 241l-200 47q-534 112-772 345-237 233-237 639 0 494 350 762 350 269 994 269 318 0 599-47 282-46 519-140z" transform="scale(.01563)"/><path id="DejaVuSans-61" d="M2194 1759q-697 0-966-159t-269-544q0-306 202-486 202-179 548-179 479 0 768 339t289 901v128h-572zm1147 238V0h-575v531q-197-318-491-470T1556-91q-537 0-855 302-317 302-317 808 0 590 395 890 396 300 1180 300h807v57q0 397-261 614t-733 217q-300 0-585-72-284-72-546-216v532q315 122 612 182 297 61 578 61 760 0 1135-394 375-393 375-1193z" transform="scale(.01563)"/><path id="DejaVuSans-72" d="M2631 2963q-97 56-211 82-114 27-251 27-488 0-749-317t-261-911V0H581v3500h578v-544q182 319 472 473 291 155 707 155 59 0 131-8 72-7 159-23l3-590z" transform="scale(.01563)"/></defs><use xlink:href="#DejaVuSans-47"/><use xlink:href="#DejaVuSans-69" x="77.49"/><use xlink:href="#DejaVuSans-74" x="105.273"/><use xlink:href="#DejaVuSans-48" x="144.482"/><use xlink:href="#DejaVuSans-75" x="219.678"/><use xlink:href="#DejaVuSans-62" x="283.057"/><use xlink:href="#DejaVuSans-20" x="346.533"/><use xlink:href="#DejaVuSans-73" x="378.32"/><use xlink:href="#DejaVuSans-74" x="430.42"/><use xlink:href="#DejaVuSans-61" x="469.629"/><use xlink:href="#DejaVuSans-72" x="530.908"/><use xlink:href="#DejaVuSans-73" x="572.021"/></g></g><path id="line2d_23" d="m338.673 295.036 2.607-.04 2.693-.525 2.694-.397 2.607-.236 2.693-.176 2.607-.215 2.694-.126 2.693-.188 2.52-.28 2.694-.535 2.606-.542 2.694-.504 2.607-.285 2.693-.394 2.694-.412 2.607-.286 2.693-.26 2.607-.344 2.693-.41 2.694-.272 2.433-.207 2.694-.394 2.606-.33 2.694-.29 2.607-.348 2.693-.312 2.694-.243 2.607-.52 2.693-.255 2.607-.23 2.693-.281 2.694-.209 2.433-.198 2.694-.685 2.606-.254 2.694-.227 2.607-.185 2.693-.174 2.694-.198 2.607-.156 2.693-.174 2.607-.172 2.694-.267 2.693-.542" clip-path="url(#p6de3d25c3b)" style="fill:none;stroke:#c5b0d5;stroke-width:1.5;stroke-linecap:square"/><path id="line2d_24" d="m325.552 295.036 2.694-.697 2.433-.334 2.694-.727 2.606-.555 2.694-.367 2.607-.56 2.693-.43 2.694-.403 2.607-.275 2.693-.247 2.607-.225 2.694-.252 2.693-.323 2.52-.294 2.694-.267 2.606-.326 2.694-.274 2.607-.595 2.693-.336 2.694-.324 2.607-.387 2.693-.292 2.607-.339 2.693-.306 2.694-.327 2.433-.256 2.694-.288 2.606-.272 2.694-.403 2.607-.415 2.693-.256 2.694-.185 2.607-.261 2.693-.187 2.607-.232 2.693-.15 2.694-.2 2.433-.162 2.694-.156 2.606-.176 2.694-.129 2.607-.166 2.693-.198 2.694-.16 2.607-.11 2.693-.124 2.607-.087 2.694-.092 2.693-.107" clip-path="url(#p6de3d25c3b)" style="fill:none;stroke:#ff9896;stroke-width:1.5;stroke-linecap:square"/><path id="line2d_25" d="m98.073 295.036 113.653-.267 5.3-.517 7.994-.114 2.607-.677 31.802-.404 2.693-1.865 7.82-.477 5.3-.24 10.602-.284 5.3-.224 10.514-.304 7.907-.54 2.693-.157 2.694-.466 5.3-.357 10.427-.536 2.694-.535 34.408-2.084 2.694-.432 7.994-.593 7.907-.555 5.387-.504 10.427-.655 2.607-.325 10.687-.51 5.3-.322 2.694-.332 5.127-.252 2.606-.269 21.289-1.135 2.693-.118h0" clip-path="url(#p6de3d25c3b)" style="fill:none;stroke:#98df8a;stroke-width:1.5;stroke-linecap:square"/><g id="text_16" style="fill:#1f77b4" transform="matrix(.14 0 0 -.14 465.907 32.787)"><defs><path id="DejaVuSans-6d" d="M3328 2828q216 388 516 572t706 184q547 0 844-383 297-382 297-1088V0h-578v2094q0 503-179 746-178 244-543 244-447 0-707-297-259-296-259-809V0h-578v2094q0 506-178 748t-550 242q-441 0-701-298-259-298-259-808V0H581v3500h578v-544q197 322 472 475t653 153q382 0 649-194 267-193 395-562z" transform="scale(.01563)"/><path id="DejaVuSans-63" d="M3122 3366v-538q-244 135-489 202t-495 67q-560 0-870-355-309-354-309-995t309-996q310-354 870-354 250 0 495 67t489 202V134Q2881 22 2623-34q-257-57-548-57-791 0-1257 497-465 497-465 1341 0 856 470 1346 471 491 1290 491 265 0 518-55 253-54 491-163z" transform="scale(.01563)"/><path id="DejaVuSans-6f" d="M1959 3097q-462 0-731-361t-269-989q0-628 267-989 268-361 733-361 460 0 728 362 269 363 269 988 0 622-269 986-268 364-728 364zm0 487q750 0 1178-488 429-487 429-1349 0-859-429-1349Q2709-91 1959-91q-753 0-1180 489-426 490-426 1349 0 862 426 1349 427 488 1180 488z" transform="scale(.01563)"/><path id="DejaVuSans-66" d="M2375 4863v-479h-550q-309 0-430-125-120-125-120-450v-309h947v-447h-947V0H697v3053H147v447h550v244q0 584 272 851 272 268 862 268h544z" transform="scale(.01563)"/><path id="DejaVuSans-2f" d="M1625 4666h531L531-594H0l1625 5260z" transform="scale(.01563)"/><path id="DejaVuSans-76" d="M191 3500h609L1894 563l1094 2937h609L2284 0h-781L191 3500z" transform="scale(.01563)"/><path id="DejaVuSans-64" d="M2906 2969v1894h575V0h-575v525q-181-312-458-464-276-152-664-152-634 0-1033 506-398 507-398 1332t398 1331q399 506 1033 506 388 0 664-152 277-151 458-463zM947 1747q0-634 261-995t717-361q456 0 718 361 263 361 263 995t-263 995q-262 361-718 361t-717-361q-261-361-261-995z" transform="scale(.01563)"/><path id="DejaVuSans-65" d="M3597 1894v-281H953q38-594 358-905t892-311q331 0 642 81t618 244V178Q3153 47 2828-22t-659-69q-838 0-1327 487-489 488-489 1320 0 859 464 1363 464 505 1252 505 706 0 1117-455 411-454 411-1235zm-575 169q-6 471-264 752-258 282-683 282-481 0-770-272t-333-766l2050 4z" transform="scale(.01563)"/></defs><use xlink:href="#DejaVuSans-6d"/><use xlink:href="#DejaVuSans-69" x="97.412"/><use xlink:href="#DejaVuSans-63" x="125.195"/><use xlink:href="#DejaVuSans-72" x="180.176"/><use xlink:href="#DejaVuSans-6f" x="219.039"/><use xlink:href="#DejaVuSans-73" x="280.221"/><use xlink:href="#DejaVuSans-6f" x="332.32"/><use xlink:href="#DejaVuSans-66" x="393.502"/><use xlink:href="#DejaVuSans-74" x="426.957"/><use xlink:href="#DejaVuSans-2f" x="466.166"/><use xlink:href="#DejaVuSans-76" x="499.857"/><use xlink:href="#DejaVuSans-73" x="559.037"/><use xlink:href="#DejaVuSans-63" x="611.137"/><use xlink:href="#DejaVuSans-6f" x="666.117"/><use xlink:href="#DejaVuSans-64" x="727.299"/><use xlink:href="#DejaVuSans-65" x="790.775"/></g><g id="text_17" style="fill:#ff7f0e" transform="matrix(.14 0 0 -.14 465.907 160.31)"><defs><path id="DejaVuSans-6e" d="M3513 2113V0h-575v2094q0 497-194 743-194 247-581 247-466 0-735-297-269-296-269-809V0H581v3500h578v-544q207 316 486 472 280 156 646 156 603 0 912-373 310-373 310-1098z" transform="scale(.01563)"/></defs><use xlink:href="#DejaVuSans-6e"/><use xlink:href="#DejaVuSans-65" x="63.379"/><use xlink:href="#DejaVuSans-6f" x="124.902"/><use xlink:href="#DejaVuSans-76" x="186.084"/><use xlink:href="#DejaVuSans-69" x="245.264"/><use xlink:href="#DejaVuSans-6d" x="273.047"/><use xlink:href="#DejaVuSans-2f" x="370.459"/><use xlink:href="#DejaVuSans-6e" x="404.15"/><use xlink:href="#DejaVuSans-65" x="467.529"/><use xlink:href="#DejaVuSans-6f" x="529.053"/><use xlink:href="#DejaVuSans-76" x="590.234"/><use xlink:href="#DejaVuSans-69" x="649.414"/><use xlink:href="#DejaVuSans-6d" x="677.197"/></g><g id="text_18" style="fill:#2ca02c" transform="matrix(.14 0 0 -.14 465.907 174.31)"><use xlink:href="#DejaVuSans-61"/><use xlink:href="#DejaVuSans-74" x="61.279"/><use xlink:href="#DejaVuSans-6f" x="100.488"/><use xlink:href="#DejaVuSans-6d" x="161.67"/><use xlink:href="#DejaVuSans-2f" x="259.082"/><use xlink:href="#DejaVuSans-61" x="292.773"/><use xlink:href="#DejaVuSans-74" x="354.053"/><use xlink:href="#DejaVuSans-6f" x="393.262"/><use xlink:href="#DejaVuSans-6d" x="454.443"/></g><g id="text_19" style="fill:#d62728" transform="matrix(.14 0 0 -.14 465.907 188.31)"><defs><path id="DejaVuSans-6b" d="M581 4863h578V1991l1716 1509h734L1753 1863 3688 0h-750L1159 1709V0H581v4863z" transform="scale(.01563)"/></defs><use xlink:href="#DejaVuSans-61"/><use xlink:href="#DejaVuSans-64" x="61.279"/><use xlink:href="#DejaVuSans-6f" x="124.756"/><use xlink:href="#DejaVuSans-62" x="185.938"/><use xlink:href="#DejaVuSans-65" x="249.414"/><use xlink:href="#DejaVuSans-2f" x="310.938"/><use xlink:href="#DejaVuSans-62" x="344.629"/><use xlink:href="#DejaVuSans-72" x="408.105"/><use xlink:href="#DejaVuSans-61" x="449.219"/><use xlink:href="#DejaVuSans-63" x="510.498"/><use xlink:href="#DejaVuSans-6b" x="565.479"/><use xlink:href="#DejaVuSans-65" x="619.764"/><use xlink:href="#DejaVuSans-74" x="681.287"/><use xlink:href="#DejaVuSans-73" x="720.496"/></g><g id="text_20" style="fill:#9467bd" transform="matrix(.14 0 0 -.14 465.907 202.31)"><defs><path id="DejaVuSans-2d" d="M313 2009h1684v-512H313v512z" transform="scale(.01563)"/></defs><use xlink:href="#DejaVuSans-6d"/><use xlink:href="#DejaVuSans-69" x="97.412"/><use xlink:href="#DejaVuSans-63" x="125.195"/><use xlink:href="#DejaVuSans-72" x="180.176"/><use xlink:href="#DejaVuSans-6f" x="219.039"/><use xlink:href="#DejaVuSans-73" x="280.221"/><use xlink:href="#DejaVuSans-6f" x="332.32"/><use xlink:href="#DejaVuSans-66" x="393.502"/><use xlink:href="#DejaVuSans-74" x="426.957"/><use xlink:href="#DejaVuSans-2f" x="466.166"/><use xlink:href="#DejaVuSans-6d" x="499.857"/><use xlink:href="#DejaVuSans-6f" x="597.27"/><use xlink:href="#DejaVuSans-6e" x="658.451"/><use xlink:href="#DejaVuSans-61" x="721.83"/><use xlink:href="#DejaVuSans-63" x="783.109"/><use xlink:href="#DejaVuSans-6f" x="838.09"/><use xlink:href="#DejaVuSans-2d" x="901.146"/><use xlink:href="#DejaVuSans-65" x="937.23"/><use xlink:href="#DejaVuSans-64" x="998.754"/><use xlink:href="#DejaVuSans-69" x="1062.23"/><use xlink:href="#DejaVuSans-74" x="1090.014"/><use xlink:href="#DejaVuSans-6f" x="1129.223"/><use xlink:href="#DejaVuSans-72" x="1190.404"/></g><g id="text_21" style="fill:#8c564b" transform="matrix(.14 0 0 -.14 465.907 216.31)"><use xlink:href="#DejaVuSans-76"/><use xlink:href="#DejaVuSans-69" x="59.18"/><use xlink:href="#DejaVuSans-6d" x="86.963"/><use xlink:href="#DejaVuSans-2f" x="184.375"/><use xlink:href="#DejaVuSans-76" x="218.066"/><use xlink:href="#DejaVuSans-69" x="277.246"/><use xlink:href="#DejaVuSans-6d" x="305.029"/></g><g id="text_22" style="fill:#e377c2" transform="matrix(.14 0 0 -.14 465.907 230.31)"><defs><path id="DejaVuSans-79" d="M2059-325q-243-625-475-815-231-191-618-191H506v481h338q237 0 368 113 132 112 291 531l103 262L191 3500h609L1894 763l1094 2737h609L2059-325z" transform="scale(.01563)"/><path id="DejaVuSans-6c" d="M603 4863h575V0H603v4863z" transform="scale(.01563)"/><path id="DejaVuSans-70" d="M1159 525v-1856H581v4831h578v-531q182 312 458 463 277 152 661 152 638 0 1036-506 399-506 399-1331T3314 415Q2916-91 2278-91q-384 0-661 152-276 152-458 464zm1957 1222q0 634-261 995t-717 361q-457 0-718-361t-261-995q0-634 261-995t718-361q456 0 717 361t261 995z" transform="scale(.01563)"/></defs><use xlink:href="#DejaVuSans-73"/><use xlink:href="#DejaVuSans-79" x="52.1"/><use xlink:href="#DejaVuSans-6c" x="111.279"/><use xlink:href="#DejaVuSans-32" x="139.063"/><use xlink:href="#DejaVuSans-30" x="202.686"/><use xlink:href="#DejaVuSans-62" x="266.309"/><use xlink:href="#DejaVuSans-6e" x="329.785"/><use xlink:href="#DejaVuSans-72" x="393.164"/><use xlink:href="#DejaVuSans-2f" x="434.277"/><use xlink:href="#DejaVuSans-73" x="467.969"/><use xlink:href="#DejaVuSans-70" x="520.068"/><use xlink:href="#DejaVuSans-61" x="583.545"/><use xlink:href="#DejaVuSans-63" x="644.824"/><use xlink:href="#DejaVuSans-65" x="699.805"/><use xlink:href="#DejaVuSans-6d" x="761.328"/><use xlink:href="#DejaVuSans-61" x="858.74"/><use xlink:href="#DejaVuSans-63" x="920.02"/><use xlink:href="#DejaVuSans-73" x="975"/></g><g id="text_23" style="fill:#7f7f7f" transform="matrix(.14 0 0 -.14 465.907 244.31)"><defs><path id="DejaVuSans-7a" d="M353 3500h2731v-525L922 459h2162V0H275v525l2163 2516H353v459z" transform="scale(.01563)"/></defs><use xlink:href="#DejaVuSans-7a"/><use xlink:href="#DejaVuSans-79" x="52.49"/><use xlink:href="#DejaVuSans-65" x="111.67"/><use xlink:href="#DejaVuSans-64" x="173.193"/><use xlink:href="#DejaVuSans-69" x="236.67"/><use xlink:href="#DejaVuSans-64" x="264.453"/><use xlink:href="#DejaVuSans-69" x="327.93"/><use xlink:href="#DejaVuSans-61" x="355.713"/><use xlink:href="#DejaVuSans-2f" x="416.992"/><use xlink:href="#DejaVuSans-6d" x="450.684"/><use xlink:href="#DejaVuSans-69" x="548.096"/><use xlink:href="#DejaVuSans-63" x="575.879"/><use xlink:href="#DejaVuSans-72" x="630.859"/><use xlink:href="#DejaVuSans-6f" x="669.723"/></g><g id="text_24" style="fill:#bcbd22" transform="matrix(.14 0 0 -.14 465.907 258.31)"><defs><path id="DejaVuSans-56" d="M1831 0 50 4666h659L2188 738l1481 3928h656L2547 0h-716z" transform="scale(.01563)"/><path id="DejaVuSans-53" d="M3425 4513v-616q-359 172-678 256-319 85-616 85-515 0-795-200t-280-569q0-310 186-468 186-157 705-254l381-78q706-135 1042-474t336-907q0-679-455-1029Q2797-91 1919-91q-331 0-705 75-373 75-773 222v650q384-215 753-325 369-109 725-109 540 0 834 212 294 213 294 607 0 343-211 537t-692 291l-385 75q-706 140-1022 440-315 300-315 835 0 619 436 975t1201 356q329 0 669-60 341-59 697-177z" transform="scale(.01563)"/><path id="DejaVuSans-43" d="M4122 4306v-665q-319 297-680 443-361 147-767 147-800 0-1225-489t-425-1414q0-922 425-1411t1225-489q406 0 767 147t680 444V359q-331-225-702-338-370-112-782-112-1060 0-1670 648-609 649-609 1771 0 1125 609 1773 610 649 1670 649 418 0 788-111 371-111 696-333z" transform="scale(.01563)"/></defs><use xlink:href="#DejaVuSans-56"/><use xlink:href="#DejaVuSans-53" x="68.408"/><use xlink:href="#DejaVuSans-43" x="131.885"/><use xlink:href="#DejaVuSans-6f" x="201.709"/><use xlink:href="#DejaVuSans-64" x="262.891"/><use xlink:href="#DejaVuSans-69" x="326.367"/><use xlink:href="#DejaVuSans-75" x="354.15"/><use xlink:href="#DejaVuSans-6d" x="417.529"/><use xlink:href="#DejaVuSans-2f" x="514.941"/><use xlink:href="#DejaVuSans-76" x="548.633"/><use xlink:href="#DejaVuSans-73" x="607.813"/><use xlink:href="#DejaVuSans-63" x="659.912"/><use xlink:href="#DejaVuSans-6f" x="714.893"/><use xlink:href="#DejaVuSans-64" x="776.074"/><use xlink:href="#DejaVuSans-69" x="839.551"/><use xlink:href="#DejaVuSans-75" x="867.334"/><use xlink:href="#DejaVuSans-6d" x="930.713"/></g><g id="text_25" style="fill:#17becf" transform="matrix(.14 0 0 -.14 465.907 272.31)"><defs><path id="DejaVuSans-68" d="M3513 2113V0h-575v2094q0 497-194 743-194 247-581 247-466 0-735-297-269-296-269-809V0H581v4863h578V2956q207 316 486 472 280 156 646 156 603 0 912-373 310-373 310-1098z" transform="scale(.01563)"/><path id="DejaVuSans-78" d="M3513 3500 2247 1797 3578 0h-678L1881 1375 863 0H184l1360 1831L300 3500h678l928-1247 928 1247h679z" transform="scale(.01563)"/></defs><use xlink:href="#DejaVuSans-68"/><use xlink:href="#DejaVuSans-65" x="63.379"/><use xlink:href="#DejaVuSans-6c" x="124.902"/><use xlink:href="#DejaVuSans-69" x="152.686"/><use xlink:href="#DejaVuSans-78" x="180.469"/><use xlink:href="#DejaVuSans-2d" x="239.648"/><use xlink:href="#DejaVuSans-65" x="275.732"/><use xlink:href="#DejaVuSans-64" x="337.256"/><use xlink:href="#DejaVuSans-69" x="400.732"/><use xlink:href="#DejaVuSans-74" x="428.516"/><use xlink:href="#DejaVuSans-6f" x="467.725"/><use xlink:href="#DejaVuSans-72" x="528.906"/><use xlink:href="#DejaVuSans-2f" x="570.02"/><use xlink:href="#DejaVuSans-68" x="603.711"/><use xlink:href="#DejaVuSans-65" x="667.09"/><use xlink:href="#DejaVuSans-6c" x="728.613"/><use xlink:href="#DejaVuSans-69" x="756.396"/><use xlink:href="#DejaVuSans-78" x="784.18"/></g><g id="text_26" style="fill:#aec7e8" transform="matrix(.14 0 0 -.14 465.907 286.31)"><use xlink:href="#DejaVuSans-6e"/><use xlink:href="#DejaVuSans-6f" x="63.379"/><use xlink:href="#DejaVuSans-74" x="124.561"/><use xlink:href="#DejaVuSans-65" x="163.77"/><use xlink:href="#DejaVuSans-70" x="225.293"/><use xlink:href="#DejaVuSans-61" x="288.77"/><use xlink:href="#DejaVuSans-64" x="350.049"/><use xlink:href="#DejaVuSans-2d" x="413.525"/><use xlink:href="#DejaVuSans-70" x="449.609"/><use xlink:href="#DejaVuSans-6c" x="513.086"/><use xlink:href="#DejaVuSans-75" x="540.869"/><use xlink:href="#DejaVuSans-73" x="604.248"/><use xlink:href="#DejaVuSans-2d" x="656.348"/><use xlink:href="#DejaVuSans-70" x="692.432"/><use xlink:href="#DejaVuSans-6c" x="755.908"/><use xlink:href="#DejaVuSans-75" x="783.691"/><use xlink:href="#DejaVuSans-73" x="847.07"/><use xlink:href="#DejaVuSans-2f" x="899.17"/><use xlink:href="#DejaVuSans-6e" x="932.861"/><use xlink:href="#DejaVuSans-6f" x="996.24"/><use xlink:href="#DejaVuSans-74" x="1057.422"/><use xlink:href="#DejaVuSans-65" x="1096.631"/><use xlink:href="#DejaVuSans-70" x="1158.154"/><use xlink:href="#DejaVuSans-61" x="1221.631"/><use xlink:href="#DejaVuSans-64" x="1282.91"/><use xlink:href="#DejaVuSans-2d" x="1346.387"/><use xlink:href="#DejaVuSans-70" x="1382.471"/><use xlink:href="#DejaVuSans-6c" x="1445.947"/><use xlink:href="#DejaVuSans-75" x="1473.73"/><use xlink:href="#DejaVuSans-73" x="1537.109"/><use xlink:href="#DejaVuSans-2d" x="1589.209"/><use xlink:href="#DejaVuSans-70" x="1625.293"/><use xlink:href="#DejaVuSans-6c" x="1688.77"/><use xlink:href="#DejaVuSans-75" x="1716.553"/><use xlink:href="#DejaVuSans-73" x="1779.932"/></g><g id="text_27" style="fill:#ffbb78" transform="matrix(.14 0 0 -.14 465.907 300.31)"><use xlink:href="#DejaVuSans-6c"/><use xlink:href="#DejaVuSans-69" x="27.783"/><use xlink:href="#DejaVuSans-6d" x="55.566"/><use xlink:href="#DejaVuSans-65" x="152.979"/><use xlink:href="#DejaVuSans-74" x="214.502"/><use xlink:href="#DejaVuSans-65" x="253.711"/><use xlink:href="#DejaVuSans-78" x="313.484"/><use xlink:href="#DejaVuSans-74" x="372.664"/><use xlink:href="#DejaVuSans-2f" x="411.873"/><use xlink:href="#DejaVuSans-6c" x="445.564"/><use xlink:href="#DejaVuSans-69" x="473.348"/><use xlink:href="#DejaVuSans-6d" x="501.131"/><use xlink:href="#DejaVuSans-65" x="598.543"/></g><g id="text_28" style="fill:#98df8a" transform="matrix(.14 0 0 -.14 465.907 314.31)"><defs><path id="DejaVuSans-77" d="M269 3500h575l719-2731 715 2731h678l719-2731 716 2731h575L4050 0h-678l-753 2869L1863 0h-679L269 3500z" transform="scale(.01563)"/></defs><use xlink:href="#DejaVuSans-6d"/><use xlink:href="#DejaVuSans-61" x="97.412"/><use xlink:href="#DejaVuSans-77" x="158.691"/><use xlink:href="#DejaVuSans-77" x="240.479"/><use xlink:href="#DejaVuSans-77" x="322.266"/><use xlink:href="#DejaVuSans-2f" x="404.053"/><use xlink:href="#DejaVuSans-6b" x="437.744"/><use xlink:href="#DejaVuSans-61" x="493.904"/><use xlink:href="#DejaVuSans-6b" x="555.184"/><use xlink:href="#DejaVuSans-6f" x="609.469"/><use xlink:href="#DejaVuSans-75" x="670.65"/><use xlink:href="#DejaVuSans-6e" x="734.029"/><use xlink:href="#DejaVuSans-65" x="797.408"/></g><g id="text_29" style="fill:#ff9896" transform="matrix(.14 0 0 -.14 465.907 328.31)"><use xlink:href="#DejaVuSans-6f"/><use xlink:href="#DejaVuSans-6e" x="61.182"/><use xlink:href="#DejaVuSans-69" x="124.561"/><use xlink:href="#DejaVuSans-76" x="152.344"/><use xlink:href="#DejaVuSans-69" x="211.523"/><use xlink:href="#DejaVuSans-6d" x="239.307"/><use xlink:href="#DejaVuSans-2f" x="336.719"/><use xlink:href="#DejaVuSans-6f" x="370.41"/><use xlink:href="#DejaVuSans-6e" x="431.592"/><use xlink:href="#DejaVuSans-69" x="494.971"/><use xlink:href="#DejaVuSans-32" x="522.754"/></g><g id="text_30" style="fill:#c5b0d5" transform="matrix(.14 0 0 -.14 465.907 342.31)"><defs><path id="DejaVuSans-37" d="M525 4666h3000v-269L1831 0h-659l1594 4134H525v532z" transform="scale(.01563)"/><path id="DejaVuSans-33" d="M2597 2516q453-97 707-404 255-306 255-756 0-690-475-1069Q2609-91 1734-91q-293 0-604 58T488 141v609q262-153 574-231 313-78 654-78 593 0 904 234t311 681q0 413-289 645-289 233-804 233h-544v519h569q465 0 712 186t247 536q0 359-255 551-254 193-729 193-260 0-557-57-297-56-653-174v562q360 100 674 150t592 50q719 0 1137-327 419-326 419-882 0-388-222-655t-631-370z" transform="scale(.01563)"/><path id="DejaVuSans-4e" d="M628 4666h850L3547 763v3903h612V0h-850L1241 3903V0H628v4666z" transform="scale(.01563)"/></defs><use xlink:href="#DejaVuSans-30"/><use xlink:href="#DejaVuSans-78" x="63.623"/><use xlink:href="#DejaVuSans-37" x="122.803"/><use xlink:href="#DejaVuSans-63" x="186.426"/><use xlink:href="#DejaVuSans-31" x="241.406"/><use xlink:href="#DejaVuSans-33" x="305.029"/><use xlink:href="#DejaVuSans-2f" x="368.652"/><use xlink:href="#DejaVuSans-4e" x="402.344"/><use xlink:href="#DejaVuSans-6f" x="477.148"/><use xlink:href="#DejaVuSans-74" x="538.33"/><use xlink:href="#DejaVuSans-65" x="577.539"/><use xlink:href="#DejaVuSans-70" x="639.063"/><use xlink:href="#DejaVuSans-61" x="702.539"/><use xlink:href="#DejaVuSans-64" x="763.818"/><use xlink:href="#DejaVuSans-73" x="827.295"/></g><g id="text_31" style="fill:#b0b0b0" transform="matrix(.09716 0 0 -.09716 98.073 329.072)"><defs><path id="DejaVuSans-40" d="M2381 1678q0-447 222-702 222-254 610-254 384 0 604 256 221 256 221 700 0 438-225 695-225 258-607 258-378 0-602-256-223-256-223-697zm1703-934q-187-241-429-355t-564-114q-538 0-874 389t-336 1014q0 625 337 1015 338 391 873 391 322 0 565-117 244-117 428-354v409h447V722q457 69 714 417 258 349 258 902 0 334-99 628-98 294-298 544-325 409-792 626t-1017 217q-384 0-738-102-353-101-653-301-490-319-767-836-276-517-276-1120 0-497 179-932 180-434 521-765 328-325 759-495 431-171 922-171 403 0 792 136t714 389l281-347q-390-303-851-464t-936-161q-578 0-1091 205-512 205-912 595Q841 78 631 592q-209 514-209 1105 0 569 212 1084 213 516 607 907 403 396 931 607t1119 211q662 0 1229-272 568-271 952-771 234-307 357-666 124-359 124-744 0-822-497-1297T4084 263v481z" transform="scale(.01563)"/><path id="DejaVuSans-67" d="M2906 1791q0 625-258 968-257 344-723 344-462 0-720-344-258-343-258-968 0-622 258-966t720-344q466 0 723 344 258 344 258 966zm575-1357q0-893-397-1329-396-436-1215-436-303 0-572 45t-522 139v559q253-137 500-202 247-66 503-66 566 0 847 295t281 892v285q-178-310-456-463T1784 0Q1141 0 747 490 353 981 353 1791q0 812 394 1302 394 491 1037 491 388 0 666-153t456-462v531h575V434z" transform="scale(.01563)"/><path id="DejaVuSans-7c" d="M1344 4891v-6400H813v6400h531z" transform="scale(.01563)"/><path id="DejaVuSans-f6" d="M1959 3097q-462 0-731-361t-269-989q0-628 267-989 268-361 733-361 460 0 728 362 269 363 269 988 0 622-269 986-268 364-728 364zm0 487q750 0 1178-488 429-487 429-1349 0-859-429-1349Q2709-91 1959-91q-753 0-1180 489-426 490-426 1349 0 862 426 1349 427 488 1180 488zm295 1266h634v-631h-634v631zm-1222 0h634v-631h-634v631z" transform="scale(.01563)"/><path id="DejaVuSans-42" d="M1259 2228V519h1013q509 0 754 211 246 211 246 645 0 438-246 645-245 208-754 208H1259zm0 1919V2741h935q462 0 688 173 227 174 227 530 0 353-227 528-226 175-688 175h-935zm-631 519h1613q722 0 1112-300 391-300 391-853 0-429-200-682t-588-315q466-100 724-418 258-317 258-792 0-625-425-966Q3088 0 2303 0H628v4666z" transform="scale(.01563)"/><path id="DejaVuSans-59" d="M-13 4666h679l1293-1919 1285 1919h678L2272 2222V0h-634v2222L-13 4666z" transform="scale(.01563)"/></defs><use xlink:href="#DejaVuSans-40"/><use xlink:href="#DejaVuSans-6e" x="100"/><use xlink:href="#DejaVuSans-73" x="163.379"/><use xlink:href="#DejaVuSans-63" x="215.479"/><use xlink:href="#DejaVuSans-68" x="270.459"/><use xlink:href="#DejaVuSans-6c" x="333.838"/><use xlink:href="#DejaVuSans-6f" x="361.621"/><use xlink:href="#DejaVuSans-65" x="422.803"/><use xlink:href="#DejaVuSans-20" x="484.326"/><use xlink:href="#DejaVuSans-2f" x="516.113"/><use xlink:href="#DejaVuSans-20" x="549.805"/><use xlink:href="#DejaVuSans-67" x="581.592"/><use xlink:href="#DejaVuSans-69" x="645.068"/><use xlink:href="#DejaVuSans-74" x="672.852"/><use xlink:href="#DejaVuSans-68" x="712.061"/><use xlink:href="#DejaVuSans-75" x="775.439"/><use xlink:href="#DejaVuSans-62" x="838.818"/><use xlink:href="#DejaVuSans-2d" x="902.295"/><use xlink:href="#DejaVuSans-74" x="938.379"/><use xlink:href="#DejaVuSans-72" x="977.588"/><use xlink:href="#DejaVuSans-65" x="1016.451"/><use xlink:href="#DejaVuSans-6e" x="1077.975"/><use xlink:href="#DejaVuSans-64" x="1141.354"/><use xlink:href="#DejaVuSans-73" x="1204.83"/><use xlink:href="#DejaVuSans-20" x="1256.93"/><use xlink:href="#DejaVuSans-7c" x="1288.717"/><use xlink:href="#DejaVuSans-20" x="1322.408"/><use xlink:href="#DejaVuSans-4e" x="1354.195"/><use xlink:href="#DejaVuSans-69" x="1429"/><use xlink:href="#DejaVuSans-63" x="1456.783"/><use xlink:href="#DejaVuSans-6f" x="1511.764"/><use xlink:href="#DejaVuSans-20" x="1572.945"/><use xlink:href="#DejaVuSans-53" x="1604.732"/><use xlink:href="#DejaVuSans-63" x="1668.209"/><use xlink:href="#DejaVuSans-68" x="1723.189"/><use xlink:href="#DejaVuSans-6c" x="1786.568"/><use xlink:href="#DejaVuSans-f6" x="1814.352"/><use xlink:href="#DejaVuSans-6d" x="1875.533"/><use xlink:href="#DejaVuSans-65" x="1972.945"/><use xlink:href="#DejaVuSans-72" x="2034.469"/><use xlink:href="#DejaVuSans-20" x="2075.582"/><use xlink:href="#DejaVuSans-7c" x="2107.369"/><use xlink:href="#DejaVuSans-20" x="2141.061"/><use xlink:href="#DejaVuSans-43" x="2172.848"/><use xlink:href="#DejaVuSans-43" x="2242.672"/><use xlink:href="#DejaVuSans-20" x="2312.496"/><use xlink:href="#DejaVuSans-42" x="2344.283"/><use xlink:href="#DejaVuSans-59" x="2407.387"/></g><path id="line2d_26" d="m127.181 295.036 2.694-.006 2.607-.002H137.869l2.433-.002h2.694l2.606-.007h2.694l2.607-.109 2.693-.016 2.694-.002 2.606-.002 2.694-6.747 2.607-1.34 2.693-.318 2.694-.47 2.433-.46 2.694-.454 2.606-.31 2.694-.276 2.607-.189 2.693-.283 2.694-2.802 2.607-.52 2.693-.375 2.607-.65 2.693-.583 2.694-.44 2.433-.641 2.694-.436 2.606-.32 2.694-.29 2.607-.25 2.693-.188 2.694-.221 2.607-.21 2.693-.193 2.607-.218 2.693-.174 2.694-.194 2.52-.17 2.694-.144 2.606-.13 2.694-.156 2.607-.165 2.693-.144 2.694-.14 2.606-.193 2.694-.775 2.607-.107 2.693-.14 2.694-.13 2.433-.098 2.694-.115 2.606-.088 2.694-.164 2.607-.136 2.693-.107 2.694-.11 2.607-.115 2.693-.076 2.607-.078 2.693-.085 2.694-.085 2.433-.08 2.694-.065 2.606-.055 2.694-.076 2.607-.093 2.693-.036 2.694-.05 2.607-.062 2.693-.067 2.607-.055 2.693-.027 2.694-.038 2.433-.035 2.694-.027 2.606-.047 2.694-.056 2.607-.067 2.693-.071 2.694-.09 2.607-.115 2.693-.152 2.607-.135 2.694-.121 2.693-.12 2.52-.132 2.694-.15 2.606-.128 2.694-.152 2.607-.133 2.693-.161 2.694-.192 2.607-.178 2.693-.152 2.607-.16 2.693-.156 2.694-.138 2.433-.154 2.694-.145 2.606-.164 2.694-.154 2.607-.141 2.693-.033 2.694-.03 2.607-.017 2.693-.02 2.607-.038 2.693-.033 2.694-.029 2.433-.038 2.694-.03 2.606-.039 2.694-.03 2.607-.02 2.693-.044 2.694-.024 2.607-.023 2.693-.031 2.607-.022 2.694-.043 2.693-.022" clip-path="url(#p6de3d25c3b)" style="fill:none;stroke:#ffbb78;stroke-width:1.5;stroke-linecap:square"/><path id="line2d_27" d="m203.732 295.036 2.694-.002 2.606-.02 2.694-.81 2.607-1.418 2.693-.326 2.694-.165 2.607-.178 2.693-.198 2.607-.225 2.693-.181 2.694-.205 2.52-.181 2.694-.216 2.606-.165 2.694-.187 2.607-.164 2.693-.165 2.694-.17 2.606-.133 2.694-.195 2.607-.176 2.693-.204 2.694-.186 2.433-.18 2.694-.314 2.606-.212 2.694-.207 2.607-.217 2.693-.184 2.694-.206 2.607-.198 2.693-.196 2.607-.278 2.693-.288 2.694-.25 2.433-.216 2.694-.287 2.606-.257 2.694-.234 2.607-.18 2.693-.247 2.694-.206 2.607-.205 2.693-.28 2.607-.31 2.693-.245 2.694-.339 2.433-.218 2.694-.388 2.606-.286 2.694-.262 2.607-.245 2.693-.25 2.694-.181 2.607-.218 2.693-2.171 2.607-1.444 2.694-.428 2.693-.267 2.52-.312 2.694-.295 2.606-.36 2.694-.382 2.607-.305 2.693-.51 2.694-.473 2.607-.427 2.693-.408 2.607-.36 2.693-.362 2.694-.468 2.433-.35 2.694-.373 2.606-.367 2.694-.366 2.607-.795 2.693-.339 2.694-.403 2.607-.424 2.693-.403 2.607-.415 2.693-.426 2.694-.454 2.433-.442 2.694-.577 2.606-.539 2.694-.702 2.607-.466 2.693-.602 2.694-.5 2.607-.534 2.693-.8 2.607-.682 2.694-.461 2.693-.805" clip-path="url(#p6de3d25c3b)" style="fill:none;stroke:#aec7e8;stroke-width:1.5;stroke-linecap:square"/><path id="line2d_28" d="m370.475 295.036 2.607-.002h26.414l2.694-.042 2.607-5.313 2.693-.457 2.694-.686 2.607-.28 2.693-.317 2.607-1.237 2.693-1.043 2.694-1.04 2.433-.36 2.694-1.016 2.606-4.293 2.694-1.575 2.607-1.687 2.693-1.28 2.694-1.163 2.607-3.37 2.693-4.276 2.607-2.135 2.694-1.825 2.693-2.091" clip-path="url(#p6de3d25c3b)" style="fill:none;stroke:#17becf;stroke-width:1.5;stroke-linecap:square"/><path id="line2d_29" d="m312.258 295.036 2.694-.982 2.607-.704 2.693-.337 2.607-.243 2.693-.254 2.694-.252 2.433-.361 2.694-.314 2.606-3.728 2.694-1.032 2.607-.645 2.693-.492 2.694-.394 2.607-.384 2.693-.586 2.607-.535 2.694-.86 2.693-.562 2.52-.579 2.694-.602 2.606-.66 2.694-.521 2.607-2.173 2.693-.673 2.694-.604 2.607-.6 2.693-.496 2.607-.51 2.693-.558 2.694-.615 2.433-.787 2.694-.486 2.606-.485 2.694-.571 2.607-.46 2.693-.527 2.694-.588 2.607-.424 2.693-.497 2.607-.48 2.693-.529 2.694-.502 2.433-.472 2.694-.566 2.606-.567 2.694-.583 2.607-1.754 2.693-.769 2.694-.662 2.607-.62 2.693-.648 2.607-.617 2.694-.584 2.693-.653" clip-path="url(#p6de3d25c3b)" style="fill:none;stroke:#bcbd22;stroke-width:1.5;stroke-linecap:square"/><path id="line2d_30" d="m235.534 295.036 2.694-.002 2.606-2.74 2.694-.331 2.607-.125 2.693-.097 2.694-1.984 2.606-1.614 2.694-.389 2.607-.203 2.693-.174 2.694-.181 2.433-.32 2.694-.223 2.606-.272 2.694-.328 2.607-.209 2.693-.245 2.694-.3 2.607-2.32 2.693-1.105 2.607-.294 2.693-.225 2.694-.285 2.433-.305 2.694-.31 2.606-.31 2.694-.898 2.607-.317 2.693-.252 2.694-.234 2.607-.302 2.693-.174 2.607-.34 2.693-.284 2.694-.326 2.433-.281 2.694-.272 2.606-.218 2.694-.263 2.607-.234 2.693-.285 2.694-.346 2.607-.338 2.693-.274 2.607-.31 2.694-.294 2.693-.535 2.52-.363 2.694-.522 2.606-.553 2.694-1.47 2.607-.923 2.693-.517 2.694-.448 2.607-.384 2.693-.38 2.607-.455 2.693-.57 2.694-.524 2.433-.484 2.694-.457 2.606-.388 2.694-.552 2.607-.444 2.693-.386 2.694-.48 2.607-.397 2.693-.304 2.607-.956 2.693-.43 2.694-.42 2.433-.335 2.694-.553 2.606-.457 2.694-.44 2.607-.404 2.693-.339 2.694-.399 2.607-.627 2.693-.336 2.607-.394 2.694-.315 2.693-.396" clip-path="url(#p6de3d25c3b)" style="fill:none;stroke:#7f7f7f;stroke-width:1.5;stroke-linecap:square"/><path id="line2d_31" d="m132.482 295.036 2.693-.002H161.59l2.607-.004H169.584l2.433-.004 2.694-.001 2.606-.002 2.694-.002H188.005l2.607-.007 2.693-.013 2.607-.178 2.693-.439 2.694-.328 2.433-.225 2.694-.31 2.606-1.881 2.694-.46 2.607-.489 2.693-.48 2.694-.474 2.607-.502 2.693-.594 2.607-.66 2.693-.742 2.694-1.45 2.52-.714 2.694-.754 2.606-.682 2.694-.637 2.607-.65 2.693-.65 2.694-.574 2.606-.736 2.694-.822 2.607-.575 2.693-.677 2.694-.703 2.433-.663 2.694-.63 2.606-.547 2.694-.484 2.607-.437 2.693-.446 2.694-.481 2.607-.414 2.693-.479 2.607-.493 2.693-.428 2.694-.62 2.433-.429 2.694-.57 2.606-.492 2.694-.566 2.607-.438 2.693-.415 2.694-.559 2.607-.433 2.693-.327 2.607-.426 2.693-.4 2.694-.456 2.433-.356 2.694-.518 2.606-.49 2.694-.486 2.607-.361 2.693-.352 2.694-.396 2.607-.352 2.693-.353 2.607-.408 2.694-.403 2.693-.401 2.52-.348 2.694-.394 2.606-.404 2.694-.438 2.607-.357 2.693-.294 2.694-.317 2.607-.28 2.693-.255 2.607-.23 2.693-.287 2.694-.294 2.433-.218 2.694-.257 2.606-.24 2.694-.236 2.607-.234 2.693-.18 2.694-.204 2.607-.158 2.693-.17 2.607-.162 2.693-.196 2.694-.24 2.433-.188 2.694-.2 2.606-.215 2.694-.185 2.607-.18 2.693-.212 2.694-.216 2.607-.149 2.693-.18 2.607-.159 2.694-.187 2.693-.178" clip-path="url(#p6de3d25c3b)" style="fill:none;stroke:#e377c2;stroke-width:1.5;stroke-linecap:square"/><path id="line2d_32" d="m217.026 295.036 2.694-2.359 2.607-.778 2.693-.45 2.607-.41 2.693-.395 2.694-.468 2.52-.394 2.694-.379 2.606-1.808 2.694-.341 2.607-.372 2.693-.394 2.694-.537 2.606-2.733 2.694-.49 2.607-.488 2.693-.432 2.694-.404 2.433-.392 2.694-.453 2.606-.387 2.694-.45 2.607-.399 2.693-.364 2.694-.517 2.607-.441 2.693-.604 2.607-.61 2.693-.564 2.694-.518 2.433-.508 2.694-.62 2.606-.596 2.694-.8 2.607-.437 2.693-.617 2.694-.663 2.607-.606 2.693-.445 2.607-.63 2.693-.603 2.694-.626 2.433-.555 2.694-.648 2.606-.702 2.694-.687 2.607-.66 2.693-.61 2.694-.548 2.607-.477 2.693-.455 2.607-.483 2.694-.645 2.693-.595 2.52-.503 2.694-.54 2.606-.61 2.694-.65 2.607-.594 2.693-.552 2.694-.602 2.607-.591 2.693-.582 2.607-.588 2.693-.573 2.694-.648 2.433-.627 2.694-.606 2.606-.64 2.694-.68 2.607-.532 2.693-.543 2.694-.508 2.607-.493 2.693-.499 2.607-.69 2.693-.732 2.694-.736 2.433-.63 2.694-.664 2.606-.624 2.694-.547 2.607-1.03 2.693-.948 2.694-.542 2.607-.515 2.693-.514 2.607-.573 2.694-.508 2.693-.535" clip-path="url(#p6de3d25c3b)" style="fill:none;stroke:#8c564b;stroke-width:1.5;stroke-linecap:square"/><path id="line2d_33" d="m243.528 295.036 2.607-3.804 2.693-.791 2.694-.247 2.606-.372 2.694-.243 2.607-.237 2.693-.227 2.694-.26 2.433-.417 2.694-.526 2.606-.506 2.694-.413 2.607-.423 2.693-.532 2.694-.613 2.607-.466 2.693-.553 2.607-1.08 2.693-.701 2.694-.635 2.433-.726 2.694-.754 2.606-.76 2.694-.623 2.607-1.188 2.693-.838 2.694-.987 2.607-.64 2.693-.843 2.607-.902 2.693-.71 2.694-1.057 2.433-.74 2.694-1.12 2.606-.908 2.694-1.017 2.607-.824 2.693-.93 2.694-.875 2.607-.825 2.693-.824 2.607-.645 2.694-.74 2.693-.612 2.52-.593 2.694-.695 2.606-.787 2.694-.702 2.607-.631 2.693-.758 2.694-.79 2.607-.763 2.693-.604 2.607-.606 2.693-.863 2.694-.782 2.433-.631 2.694-.753 2.606-.715 2.694-.753 2.607-.76 2.693-.685 2.694-.73 2.607-.705 2.693-.71 2.607-.94 2.693-.957 2.694-.763 2.433-.795 2.694-.854 2.606-.88 2.694-.983 2.607-.728 2.693-.756 2.694-1.02 2.607-.72 2.693-.789 2.607-.721 2.694-.653 2.693-.608" clip-path="url(#p6de3d25c3b)" style="fill:none;stroke:#9467bd;stroke-width:1.5;stroke-linecap:square"/><path id="line2d_34" d="m100.68 295.036 2.693-10.358 7.907-1.03 10.601-1.24 13.294-.393 2.694-.029 2.433-.357 5.3-1.118 2.694-.754 2.607-.93 2.693-.632 2.694-1.117 2.606-.853 2.694-.606 2.607-.928 5.387-1.158 2.433-1.05 7.994-2.576 5.3-1.237 2.694-.691 5.3-1.667 2.607-2.278 2.693-.782 5.127-1.166 2.694-.882 5.3-1.391 5.3-1.092 5.3-1.058 5.3-1.02 18.509-3.175 5.387-.739 10.6-1.674 5.127-.715 2.694-.47 10.6-1.394 10.6-1.386 21.115-1.92 5.3-.35 2.694-.413 18.421-1.34 13.294-1.432 26.502-3.337 15.727-2.055 2.694-1.094 5.3-.728 2.607-.332 10.687-.495 13.12-.274 26.59-.397h0" clip-path="url(#p6de3d25c3b)" style="fill:none;stroke:#d62728;stroke-width:1.5;stroke-linecap:square"/><path id="line2d_35" d="m103.373 295.036 73.944-.011 2.694-8.843 2.607-1.177 2.693-1.348 5.3-1.801 2.694-1.878 2.607-1.134 5.387-2.06 2.433-1.491 2.694-1.44 5.3-3.171 2.607-3.245 2.693-1.85 5.3-2.368 2.694-1.364 2.607-1.533 2.693-1.777 13.208-7.562 2.607-1.294 2.693-1.115 5.3-2.863 5.3-2.777 2.694-1.233 7.82-4.218 2.607-1.13 10.688-5.516 2.607-1.674 5.3-2.757 7.82-3.204 2.694-1.123 7.907-2.742 13.294-3.871 5.387-1.355 15.727-4.392 23.808-5.677 5.3-1.368 15.988-4.089 7.82-1.93 5.3-1.271 2.608-1.069 5.387-1.012 7.907-1.342 7.82-1.642 2.694-.616 2.606-.84 2.694-.515 2.607-1.459 7.994-1.235 5.3-.809 2.694-.678 2.693-.354h0" clip-path="url(#p6de3d25c3b)" style="fill:none;stroke:#2ca02c;stroke-width:1.5;stroke-linecap:square"/><path id="line2d_36" d="m169.584 295.036 2.433-7.91 2.694-2.969 2.606-1.079 2.694-.9 2.607-1.008 2.693-.668 2.694-.52 2.607-.943 2.693-.597 2.607-.92 2.693-.44 2.694-.984 2.433-.517 2.694-.981 2.606-.885 2.694-.606 2.607-.778 2.693-.74 2.694-.668 2.607-.677 2.693-.71 2.607-1.241 2.693-.633 2.694-.68 2.52-.683 2.694-.861 2.606-.895 2.694-.665 2.607-.523 2.693-.57 2.694-.612 2.606-.693 2.694-.494 2.607-.604 2.693-.58 2.694-.595 2.433-.646 2.694-.647 2.606-.566 2.694-1.018 2.607-.553 2.693-.485 2.694-.749 2.607-.571 2.693-.738 2.607-.962 2.693-.55 2.694-.616 2.433-.602 2.694-.835 2.606-.591 2.694-.76 2.607-.742 2.693-.648 2.694-.696 2.607-.628 2.693-.6 2.607-.637 2.693-.606 2.694-.74 2.433-.564 2.694-.862 2.606-.92 2.694-.767 2.607-.71 2.693-.879 2.694-.908 2.607-.978 2.693-.79 2.607-.852 2.694-.763 2.693-.757 2.52-.836 2.694-.874 2.606-.94 2.694-1.03 2.607-.903 2.693-.936 2.694-.902 2.607-.98 2.693-1.126 2.607-1.043 2.693-1.496 2.694-1.163 2.433-1.074 2.694-1.516 2.606-1.644 2.694-1.32 2.607-1.725 2.693-1.845 2.694-1.823 2.607-1.246 2.693-1.54 2.607-1.793 2.693-1.665 2.694-1.612 2.433-1.546 2.694-1.785 2.606-2.088 2.694-2.125 2.607-2.246 2.693-2.454 2.694-2 2.607-1.76 2.693-2.212 2.607-1.826 2.694-1.92 2.693-2.056" clip-path="url(#p6de3d25c3b)" style="fill:none;stroke:#ff7f0e;stroke-width:1.5;stroke-linecap:square"/><path id="line2d_37" d="m219.72 295.036 2.607-.002h2.693l2.607-13.173 2.693-1.95 2.694-1.513 2.52-1.239 2.694-1.685 2.606-2.942 2.694-1.696 2.607-1.426 2.693-1.351 2.694-1.324 2.606-1.618 2.694-1.707 2.607-1.836 2.693-1.718 2.694-1.567 2.433-2.354 2.694-3.142 2.606-2.87 2.694-2.632 2.607-2.305 2.693-2.453 2.694-2.722 2.607-2.814 2.693-4.243 2.607-4.502 2.693-3.132 2.694-3.449 2.433-3.107 2.694-3.504 2.606-3.215 2.694-4.074 2.607-5.356 2.693-3.481 2.694-3.95 2.607-4.077 2.693-4.466 2.607-3.276 2.693-2.984 2.694-3.292 2.433-3.145 2.694-4.577 2.606-3.707 2.694-4.79 2.607-3.175 2.693-2.952 2.694-3.045 2.607-3.084 2.693-2.873 2.607-4.312 2.694-3.408 2.693-2.683 2.52-2.39 2.694-2.947 2.606-3.364 2.694-3.552 2.607-3.13 2.693-3.636 2.694-3.345 2.607-2.908 2.693-3.013 2.607-2.902 2.693-3.368 2.694-2.886 2.433-3.298 2.694-3.813 2.606-3.261 2.694-2.709 2.607-2.983 2.693-3.115 2.694-3.007 2.607-2.69 2.693-2.803 2.607-2.978 2.693-2.634 2.694-2.663 2.433-2.725 2.694-2.994 2.606-2.694 2.694-3.314 2.607-2.663 2.693-2.846 2.694-2.663 2.607-2.507 2.693-3.05 2.607-2.315 2.694-2.623 2.693-2.425" clip-path="url(#p6de3d25c3b)" style="fill:none;stroke:#1f77b4;stroke-width:1.5;stroke-linecap:square"/></g></g><defs><clipPath id="p6de3d25c3b"><path d="M98.073 28.924h357.12v266.112H98.073z"/></clipPath></defs></svg>