<svg xmlns="http://www.w3.org/2000/svg" xmlns:xlink="http://www.w3.org/1999/xlink" width="861.861" height="458.496" viewBox="0 0 646.396 343.872"><defs><style>*{stroke-linejoin:round;stroke-linecap:butt}</style></defs><g id="figure_1"><path id="patch_1" d="M0 343.872h646.396V0H0v343.872z" style="fill:none"/><g id="axes_1"><path id="patch_2" d="M98.073 300.345h357.12V34.233H98.073v266.112z" style="fill:none"/><g id="matplotlib.axis_1"><g id="xtick_1"><g id="line2d_1"><defs><path id="m3c78f432ea" d="M0 0v3.5" style="stroke:#b0b0b0;stroke-width:.4"/></defs><use xlink:href="#m3c78f432ea" x="103.94" y="300.345" style="fill:#b0b0b0;stroke:#b0b0b0;stroke-width:.4"/></g><g id="text_1" style="fill:#b0b0b0" transform="matrix(.14 0 0 -.14 86.125 317.983)"><defs><path id="DejaVuSans-32" d="M1228 531h2203V0H469v531q359 372 979 998 621 627 780 809 303 340 423 576 121 236 121 464 0 372-261 606-261 235-680 235-297 0-627-103-329-103-704-313v638q381 153 712 231 332 78 607 78 725 0 1156-363 431-362 431-968 0-288-108-546-107-257-392-607-78-91-497-524-418-433-1181-1211z" transform="scale(.01563)"/><path id="DejaVuSans-30" d="M2034 4250q-487 0-733-480-245-479-245-1442 0-959 245-1439 246-480 733-480 491 0 736 480 246 480 246 1439 0 963-246 1442-245 480-736 480zm0 500q785 0 1199-621 414-620 414-1801 0-1178-414-1799Q2819-91 2034-91q-784 0-1198 620-414 621-414 1799 0 1181 414 1801 414 621 1198 621z" transform="scale(.01563)"/><path id="DejaVuSans-31" d="M794 531h1031v3560L703 3866v575l1116 225h631V531h1031V0H794v531z" transform="scale(.01563)"/><path id="DejaVuSans-33" d="M2597 2516q453-97 707-404 255-306 255-756 0-690-475-1069Q2609-91 1734-91q-293 0-604 58T488 141v609q262-153 574-231 313-78 654-78 593 0 904 234t311 681q0 413-289 645-289 233-804 233h-544v519h569q465 0 712 186t247 536q0 359-255 551-254 193-729 193-260 0-557-57-297-56-653-174v562q360 100 674 150t592 50q719 0 1137-327 419-326 419-882 0-388-222-655t-631-370z" transform="scale(.01563)"/></defs><use xlink:href="#DejaVuSans-32"/><use xlink:href="#DejaVuSans-30" x="63.623"/><use xlink:href="#DejaVuSans-31" x="127.246"/><use xlink:href="#DejaVuSans-33" x="190.869"/></g></g><g id="xtick_2"><use xlink:href="#m3c78f432ea" id="line2d_2" x="139.046" y="300.345" style="fill:#b0b0b0;stroke:#b0b0b0;stroke-width:.4"/><g id="text_2" style="fill:#b0b0b0" transform="matrix(.14 0 0 -.14 121.231 317.983)"><defs><path id="DejaVuSans-34" d="M2419 4116 825 1625h1594v2491zm-166 550h794V1625h666v-525h-666V0h-628v1100H313v609l1940 2957z" transform="scale(.01563)"/></defs><use xlink:href="#DejaVuSans-32"/><use xlink:href="#DejaVuSans-30" x="63.623"/><use xlink:href="#DejaVuSans-31" x="127.246"/><use xlink:href="#DejaVuSans-34" x="190.869"/></g></g><g id="xtick_3"><use xlink:href="#m3c78f432ea" id="line2d_3" x="174.152" y="300.345" style="fill:#b0b0b0;stroke:#b0b0b0;stroke-width:.4"/><g id="text_3" style="fill:#b0b0b0" transform="matrix(.14 0 0 -.14 156.337 317.983)"><defs><path id="DejaVuSans-35" d="M691 4666h2478v-532H1269V2991q137 47 274 70 138 23 276 23 781 0 1237-428 457-428 457-1159 0-753-469-1171Q2575-91 1722-91q-294 0-599 50Q819 9 494 109v635q281-153 581-228t634-75q541 0 856 284 316 284 316 772 0 487-316 771-315 285-856 285-253 0-505-56-251-56-513-175v2344z" transform="scale(.01563)"/></defs><use xlink:href="#DejaVuSans-32"/><use xlink:href="#DejaVuSans-30" x="63.623"/><use xlink:href="#DejaVuSans-31" x="127.246"/><use xlink:href="#DejaVuSans-35" x="190.869"/></g></g><g id="xtick_4"><use xlink:href="#m3c78f432ea" id="line2d_4" x="209.258" y="300.345" style="fill:#b0b0b0;stroke:#b0b0b0;stroke-width:.4"/><g id="text_4" style="fill:#b0b0b0" transform="matrix(.14 0 0 -.14 191.443 317.983)"><defs><path id="DejaVuSans-36" d="M2113 2584q-425 0-674-291-248-290-248-796 0-503 248-796 249-292 674-292t673 292q248 293 248 796 0 506-248 796-248 291-673 291zm1253 1979v-575q-238 112-480 171-242 60-480 60-625 0-955-422-329-422-376-1275 184 272 462 417 279 145 613 145 703 0 1111-427 408-426 408-1160 0-719-425-1154Q2819-91 2113-91q-810 0-1238 620-428 621-428 1799 0 1106 525 1764t1409 658q238 0 480-47t505-140z" transform="scale(.01563)"/></defs><use xlink:href="#DejaVuSans-32"/><use xlink:href="#DejaVuSans-30" x="63.623"/><use xlink:href="#DejaVuSans-31" x="127.246"/><use xlink:href="#DejaVuSans-36" x="190.869"/></g></g><g id="xtick_5"><use xlink:href="#m3c78f432ea" id="line2d_5" x="244.461" y="300.345" style="fill:#b0b0b0;stroke:#b0b0b0;stroke-width:.4"/><g id="text_5" style="fill:#b0b0b0" transform="matrix(.14 0 0 -.14 226.646 317.983)"><defs><path id="DejaVuSans-37" d="M525 4666h3000v-269L1831 0h-659l1594 4134H525v532z" transform="scale(.01563)"/></defs><use xlink:href="#DejaVuSans-32"/><use xlink:href="#DejaVuSans-30" x="63.623"/><use xlink:href="#DejaVuSans-31" x="127.246"/><use xlink:href="#DejaVuSans-37" x="190.869"/></g></g><g id="xtick_6"><use xlink:href="#m3c78f432ea" id="line2d_6" x="279.567" y="300.345" style="fill:#b0b0b0;stroke:#b0b0b0;stroke-width:.4"/><g id="text_6" style="fill:#b0b0b0" transform="matrix(.14 0 0 -.14 261.752 317.983)"><defs><path id="DejaVuSans-38" d="M2034 2216q-450 0-708-241-257-241-257-662 0-422 257-663 258-241 708-241t709 242q260 243 260 662 0 421-258 662-257 241-711 241zm-631 268q-406 100-633 378-226 279-226 679 0 559 398 884 399 325 1092 325 697 0 1094-325t397-884q0-400-227-679-226-278-629-378 456-106 710-416 255-309 255-755 0-679-414-1042Q2806-91 2034-91q-771 0-1186 362-414 363-414 1042 0 446 256 755 257 310 713 416zm-231 997q0-362 226-565 227-203 636-203 407 0 636 203 230 203 230 565 0 363-230 566-229 203-636 203-409 0-636-203-226-203-226-566z" transform="scale(.01563)"/></defs><use xlink:href="#DejaVuSans-32"/><use xlink:href="#DejaVuSans-30" x="63.623"/><use xlink:href="#DejaVuSans-31" x="127.246"/><use xlink:href="#DejaVuSans-38" x="190.869"/></g></g><g id="xtick_7"><use xlink:href="#m3c78f432ea" id="line2d_7" x="314.673" y="300.345" style="fill:#b0b0b0;stroke:#b0b0b0;stroke-width:.4"/><g id="text_7" style="fill:#b0b0b0" transform="matrix(.14 0 0 -.14 296.858 317.983)"><defs><path id="DejaVuSans-39" d="M703 97v575q238-113 481-172 244-59 479-59 625 0 954 420 330 420 377 1277-181-269-460-413-278-144-615-144-700 0-1108 423-408 424-408 1159 0 718 425 1152 425 435 1131 435 810 0 1236-621 427-620 427-1801 0-1103-524-1761Q2575-91 1691-91q-238 0-482 47Q966 3 703 97zm1256 1978q425 0 673 290 249 291 249 798 0 503-249 795-248 292-673 292t-673-292q-248-292-248-795 0-507 248-798 248-290 673-290z" transform="scale(.01563)"/></defs><use xlink:href="#DejaVuSans-32"/><use xlink:href="#DejaVuSans-30" x="63.623"/><use xlink:href="#DejaVuSans-31" x="127.246"/><use xlink:href="#DejaVuSans-39" x="190.869"/></g></g><g id="xtick_8"><use xlink:href="#m3c78f432ea" id="line2d_8" x="349.779" y="300.345" style="fill:#b0b0b0;stroke:#b0b0b0;stroke-width:.4"/><g id="text_8" style="fill:#b0b0b0" transform="matrix(.14 0 0 -.14 331.964 317.983)"><use xlink:href="#DejaVuSans-32"/><use xlink:href="#DejaVuSans-30" x="63.623"/><use xlink:href="#DejaVuSans-32" x="127.246"/><use xlink:href="#DejaVuSans-30" x="190.869"/></g></g><g id="xtick_9"><use xlink:href="#m3c78f432ea" id="line2d_9" x="384.981" y="300.345" style="fill:#b0b0b0;stroke:#b0b0b0;stroke-width:.4"/><g id="text_9" style="fill:#b0b0b0" transform="matrix(.14 0 0 -.14 367.166 317.983)"><use xlink:href="#DejaVuSans-32"/><use xlink:href="#DejaVuSans-30" x="63.623"/><use xlink:href="#DejaVuSans-32" x="127.246"/><use xlink:href="#DejaVuSans-31" x="190.869"/></g></g><g id="xtick_10"><use xlink:href="#m3c78f432ea" id="line2d_10" x="420.087" y="300.345" style="fill:#b0b0b0;stroke:#b0b0b0;stroke-width:.4"/><g id="text_10" style="fill:#b0b0b0" transform="matrix(.14 0 0 -.14 402.272 317.983)"><use xlink:href="#DejaVuSans-32"/><use xlink:href="#DejaVuSans-30" x="63.623"/><use xlink:href="#DejaVuSans-32" x="127.246"/><use xlink:href="#DejaVuSans-32" x="190.869"/></g></g><g id="xtick_11"><use xlink:href="#m3c78f432ea" id="line2d_11" x="455.193" y="300.345" style="fill:#b0b0b0;stroke:#b0b0b0;stroke-width:.4"/><g id="text_11" style="fill:#b0b0b0" transform="matrix(.14 0 0 -.14 437.378 317.983)"><use xlink:href="#DejaVuSans-32"/><use xlink:href="#DejaVuSans-30" x="63.623"/><use xlink:href="#DejaVuSans-32" x="127.246"/><use xlink:href="#DejaVuSans-33" x="190.869"/></g></g></g><g id="matplotlib.axis_2"><g id="ytick_1"><path id="line2d_12" d="M98.073 300.345h357.12" clip-path="url(#paa6cb8acf9)" style="fill:none;stroke:#b0b0b0;stroke-width:.3;stroke-linecap:square"/><g id="line2d_13"><defs><path id="md1965ae703" d="M0 0h-3.5" style="stroke:#b0b0b0;stroke-width:.3"/></defs><use xlink:href="#md1965ae703" x="98.073" y="300.345" style="fill:#b0b0b0;stroke:#b0b0b0;stroke-width:.3"/></g><use xlink:href="#DejaVuSans-30" id="text_12" style="fill:#b0b0b0" transform="matrix(.14 0 0 -.14 82.166 305.664)"/></g><g id="ytick_2"><path id="line2d_14" d="M98.073 257.135h357.12" clip-path="url(#paa6cb8acf9)" style="fill:none;stroke:#b0b0b0;stroke-width:.3;stroke-linecap:square"/><use xlink:href="#md1965ae703" id="line2d_15" x="98.073" y="257.135" style="fill:#b0b0b0;stroke:#b0b0b0;stroke-width:.3"/><g id="text_13" style="fill:#b0b0b0" transform="matrix(.14 0 0 -.14 46.536 262.454)"><use xlink:href="#DejaVuSans-31"/><use xlink:href="#DejaVuSans-30" x="63.623"/><use xlink:href="#DejaVuSans-30" x="127.246"/><use xlink:href="#DejaVuSans-30" x="190.869"/><use xlink:href="#DejaVuSans-30" x="254.492"/></g></g><g id="ytick_3"><path id="line2d_16" d="M98.073 213.925h357.12" clip-path="url(#paa6cb8acf9)" style="fill:none;stroke:#b0b0b0;stroke-width:.3;stroke-linecap:square"/><use xlink:href="#md1965ae703" id="line2d_17" x="98.073" y="213.925" style="fill:#b0b0b0;stroke:#b0b0b0;stroke-width:.3"/><g id="text_14" style="fill:#b0b0b0" transform="matrix(.14 0 0 -.14 46.536 219.244)"><use xlink:href="#DejaVuSans-32"/><use xlink:href="#DejaVuSans-30" x="63.623"/><use xlink:href="#DejaVuSans-30" x="127.246"/><use xlink:href="#DejaVuSans-30" x="190.869"/><use xlink:href="#DejaVuSans-30" x="254.492"/></g></g><g id="ytick_4"><path id="line2d_18" d="M98.073 170.715h357.12" clip-path="url(#paa6cb8acf9)" style="fill:none;stroke:#b0b0b0;stroke-width:.3;stroke-linecap:square"/><use xlink:href="#md1965ae703" id="line2d_19" x="98.073" y="170.715" style="fill:#b0b0b0;stroke:#b0b0b0;stroke-width:.3"/><g id="text_15" style="fill:#b0b0b0" transform="matrix(.14 0 0 -.14 46.536 176.034)"><use xlink:href="#DejaVuSans-33"/><use xlink:href="#DejaVuSans-30" x="63.623"/><use xlink:href="#DejaVuSans-30" x="127.246"/><use xlink:href="#DejaVuSans-30" x="190.869"/><use xlink:href="#DejaVuSans-30" x="254.492"/></g></g><g id="ytick_5"><path id="line2d_20" d="M98.073 127.506h357.12" clip-path="url(#paa6cb8acf9)" style="fill:none;stroke:#b0b0b0;stroke-width:.3;stroke-linecap:square"/><use xlink:href="#md1965ae703" id="line2d_21" x="98.073" y="127.506" style="fill:#b0b0b0;stroke:#b0b0b0;stroke-width:.3"/><g id="text_16" style="fill:#b0b0b0" transform="matrix(.14 0 0 -.14 46.536 132.824)"><use xlink:href="#DejaVuSans-34"/><use xlink:href="#DejaVuSans-30" x="63.623"/><use xlink:href="#DejaVuSans-30" x="127.246"/><use xlink:href="#DejaVuSans-30" x="190.869"/><use xlink:href="#DejaVuSans-30" x="254.492"/></g></g><g id="ytick_6"><path id="line2d_22" d="M98.073 84.296h357.12" clip-path="url(#paa6cb8acf9)" style="fill:none;stroke:#b0b0b0;stroke-width:.3;stroke-linecap:square"/><use xlink:href="#md1965ae703" id="line2d_23" x="98.073" y="84.296" style="fill:#b0b0b0;stroke:#b0b0b0;stroke-width:.3"/><g id="text_17" style="fill:#b0b0b0" transform="matrix(.14 0 0 -.14 46.536 89.615)"><use xlink:href="#DejaVuSans-35"/><use xlink:href="#DejaVuSans-30" x="63.623"/><use xlink:href="#DejaVuSans-30" x="127.246"/><use xlink:href="#DejaVuSans-30" x="190.869"/><use xlink:href="#DejaVuSans-30" x="254.492"/></g></g><g id="ytick_7"><path id="line2d_24" d="M98.073 41.086h357.12" clip-path="url(#paa6cb8acf9)" style="fill:none;stroke:#b0b0b0;stroke-width:.3;stroke-linecap:square"/><use xlink:href="#md1965ae703" id="line2d_25" x="98.073" y="41.086" style="fill:#b0b0b0;stroke:#b0b0b0;stroke-width:.3"/><g id="text_18" style="fill:#b0b0b0" transform="matrix(.14 0 0 -.14 46.536 46.405)"><use xlink:href="#DejaVuSans-36"/><use xlink:href="#DejaVuSans-30" x="63.623"/><use xlink:href="#DejaVuSans-30" x="127.246"/><use xlink:href="#DejaVuSans-30" x="190.869"/><use xlink:href="#DejaVuSans-30" x="254.492"/></g></g><g id="text_19" style="fill:#b0b0b0" transform="matrix(.14 0 0 -.14 7.2 11.563)"><defs><path id="DejaVuSans-47" d="M3809 666v1253H2778v519h1656V434q-365-259-806-392-440-133-940-133-1094 0-1712 639-617 640-617 1780 0 1144 617 1783 618 639 1712 639 456 0 867-113 411-112 758-331v-672q-350 297-744 447t-828 150q-857 0-1287-478-429-478-429-1425 0-944 429-1422 430-478 1287-478 334 0 596 58 263 58 472 180z" transform="scale(.01563)"/><path id="DejaVuSans-69" d="M603 3500h575V0H603v3500zm0 1363h575v-729H603v729z" transform="scale(.01563)"/><path id="DejaVuSans-74" d="M1172 4494v-994h1184v-447H1172V1153q0-428 117-550t477-122h590V0h-590q-666 0-919 248-253 249-253 905v1900H172v447h422v994h578z" transform="scale(.01563)"/><path id="DejaVuSans-48" d="M628 4666h631V2753h2294v1913h631V0h-631v2222H1259V0H628v4666z" transform="scale(.01563)"/><path id="DejaVuSans-75" d="M544 1381v2119h575V1403q0-497 193-746 194-248 582-248 465 0 735 297 271 297 271 810v1984h575V0h-575v538q-209-319-486-474-276-155-642-155-603 0-916 375-312 375-312 1097zm1447 2203z" transform="scale(.01563)"/><path id="DejaVuSans-62" d="M3116 1747q0 634-261 995t-717 361q-457 0-718-361t-261-995q0-634 261-995t718-361q456 0 717 361t261 995zM1159 2969q182 312 458 463 277 152 661 152 638 0 1036-506 399-506 399-1331T3314 415Q2916-91 2278-91q-384 0-661 152-276 152-458 464V0H581v4863h578V2969z" transform="scale(.01563)"/><path id="DejaVuSans-73" d="M2834 3397v-544q-243 125-506 187-262 63-544 63-428 0-642-131t-214-394q0-200 153-314t616-217l197-44q612-131 870-370t258-667q0-488-386-773Q2250-91 1575-91q-281 0-586 55T347 128v594q319-166 628-249 309-82 613-82 406 0 624 139 219 139 219 392 0 234-158 359-157 125-692 241l-200 47q-534 112-772 345-237 233-237 639 0 494 350 762 350 269 994 269 318 0 599-47 282-46 519-140z" transform="scale(.01563)"/><path id="DejaVuSans-61" d="M2194 1759q-697 0-966-159t-269-544q0-306 202-486 202-179 548-179 479 0 768 339t289 901v128h-572zm1147 238V0h-575v531q-197-318-491-470T1556-91q-537 0-855 302-317 302-317 808 0 590 395 890 396 300 1180 300h807v57q0 397-261 614t-733 217q-300 0-585-72-284-72-546-216v532q315 122 612 182 297 61 578 61 760 0 1135-394 375-393 375-1193z" transform="scale(.01563)"/><path id="DejaVuSans-72" d="M2631 2963q-97 56-211 82-114 27-251 27-488 0-749-317t-261-911V0H581v3500h578v-544q182 319 472 473 291 155 707 155 59 0 131-8 72-7 159-23l3-590z" transform="scale(.01563)"/></defs><use xlink:href="#DejaVuSans-47"/><use xlink:href="#DejaVuSans-69" x="77.49"/><use xlink:href="#DejaVuSans-74" x="105.273"/><use xlink:href="#DejaVuSans-48" x="144.482"/><use xlink:href="#DejaVuSans-75" x="219.678"/><use xlink:href="#DejaVuSans-62" x="283.057"/><use xlink:href="#DejaVuSans-20" x="346.533"/><use xlink:href="#DejaVuSans-73" x="378.32"/><use xlink:href="#DejaVuSans-74" x="430.42"/><use xlink:href="#DejaVuSans-61" x="469.629"/><use xlink:href="#DejaVuSans-72" x="530.908"/><use xlink:href="#DejaVuSans-73" x="572.021"/></g></g><path id="line2d_26" d="m218.01 300.345 2.886-.04 2.982-.068 2.885-.074 2.982-.047 2.982-.09 2.885-.048 2.982-.074 2.885-.078 2.982-.052 2.981-.077 2.693-.044 2.982-.125 2.885-.488 2.982-2.982 2.885-.877 2.982-.717 2.982-.596 2.885-.597 2.982-.527 2.885-.61 2.982-.634 2.981-.709 2.693-.406 2.982-.635 2.885-.635 2.982-.644 2.885-.653 2.982-.834 2.982-.713 2.885-.497 2.982-.579 2.885-.786 2.982-.544 2.981-.554 2.693-.38 2.982-.54 2.885-.64 2.982-.557 2.885-.488 2.982-.527 2.982-.493 2.885-.445 2.982-.341 2.885-.476 2.982-.462 2.981-.242 2.79-.238 2.981-.734 2.886-.61 2.981-.418 2.886-.333 2.981-.316 2.982-.31 2.885-.269 2.982-.272 2.885-.272 2.982-.29 2.982-.224 2.693-.143 2.981-.199 2.886-.22 2.981-.194 2.886-.173 2.981-.25 2.982-.14 2.885-.185 2.982-.151 2.885-.19 2.982-.2 2.982-.198 2.693-.073 2.981-.16 2.886-.121 2.981-.16 2.886-.095 2.981-.104 2.982-.056 2.885-.095 2.982-.104 2.886-.052 2.981-.06" clip-path="url(#paa6cb8acf9)" style="fill:none;stroke:#e377c2;stroke-width:1.5;stroke-linecap:square"/><path id="line2d_27" d="m335.063 300.345 2.982-.005h5.867l2.885-.384 2.982-.402 2.981-.07 2.79-.025 2.981-.035 2.886-.834 2.981-.224 2.886-1.569 2.981-2.527 2.982-1.111 2.885-.436 2.982-.51 2.885-.337 2.982-.406 2.982-.826 2.693-1.089 2.981-1.231 2.886-1.024 2.981-.985 2.886-2.619 2.981-1.097 2.982-1.245 2.885-1.063 2.982-1.218 2.885-9.494 2.982-1.417 2.982-1.257 2.693-.977 2.981-.644 2.886-.721 2.981-.864 2.886-.977 2.981-.64 2.982-.682 2.885-.73 2.982-1.586 2.886-.718 2.981-.881" clip-path="url(#paa6cb8acf9)" style="fill:none;stroke:#8c564b;stroke-width:1.5;stroke-linecap:square"/><path id="line2d_28" d="m250.135 300.345 2.982-1.232 2.885-3.603 2.982-.329 2.885-.942 2.982-1.18 2.982-2.523 2.885-1.08 2.982-1.404 2.885-.86 2.982-.644 2.981-2.269 2.693-.687 2.982-1.248 2.885-1.128 2.982-.994 2.885-.804 2.982-.536 2.982-.868 2.885-1.288 2.982-.95 2.885-1.02 2.982-.726 2.981-.782 2.693-.596 2.982-.692 2.885-.6 2.982-.666 2.885-.544 2.982-.501 2.982-.64 2.885-.497 2.982-.48 2.885-.587 2.982-.523 2.981-.67 2.79-.48 2.981-.401 2.886-.532 2.981-.92 2.886-.514 2.981-.705 2.982-.7 2.885-1.032 2.982-1.046 2.885-.795 2.982-1.33 2.982-.891 2.693-.933 2.981-.808 2.886-.752 2.981-1.15 2.886-.713 2.981-.916 2.982-.769 2.885-.648 2.982-.976 2.885-.722 2.982-.644 2.982-.683 2.693-1.002 2.981-.709 2.886-.63 2.981-.852 2.886-.769 2.981-.61 2.982-.639 2.885-1.058 2.982-.795 2.886-.679 2.981-.786" clip-path="url(#paa6cb8acf9)" style="fill:none;stroke:#9467bd;stroke-width:1.5;stroke-linecap:square"/><g id="text_20" style="fill:#1f77b4" transform="matrix(.14 0 0 -.14 465.907 38.096)"><defs><path id="DejaVuSans-6e" d="M3513 2113V0h-575v2094q0 497-194 743-194 247-581 247-466 0-735-297-269-296-269-809V0H581v3500h578v-544q207 316 486 472 280 156 646 156 603 0 912-373 310-373 310-1098z" transform="scale(.01563)"/><path id="DejaVuSans-65" d="M3597 1894v-281H953q38-594 358-905t892-311q331 0 642 81t618 244V178Q3153 47 2828-22t-659-69q-838 0-1327 487-489 488-489 1320 0 859 464 1363 464 505 1252 505 706 0 1117-455 411-454 411-1235zm-575 169q-6 471-264 752-258 282-683 282-481 0-770-272t-333-766l2050 4z" transform="scale(.01563)"/><path id="DejaVuSans-64" d="M2906 2969v1894h575V0h-575v525q-181-312-458-464-276-152-664-152-634 0-1033 506-398 507-398 1332t398 1331q399 506 1033 506 388 0 664-152 277-151 458-463zM947 1747q0-634 261-995t717-361q456 0 718 361 263 361 263 995t-263 995q-262 361-718 361t-717-361q-261-361-261-995z" transform="scale(.01563)"/><path id="DejaVuSans-2f" d="M1625 4666h531L531-594H0l1625 5260z" transform="scale(.01563)"/></defs><use xlink:href="#DejaVuSans-6e"/><use xlink:href="#DejaVuSans-65" x="63.379"/><use xlink:href="#DejaVuSans-74" x="124.902"/><use xlink:href="#DejaVuSans-64" x="164.111"/><use xlink:href="#DejaVuSans-61" x="227.588"/><use xlink:href="#DejaVuSans-74" x="288.867"/><use xlink:href="#DejaVuSans-61" x="328.076"/><use xlink:href="#DejaVuSans-2f" x="389.355"/><use xlink:href="#DejaVuSans-6e" x="423.047"/><use xlink:href="#DejaVuSans-65" x="486.426"/><use xlink:href="#DejaVuSans-74" x="547.949"/><use xlink:href="#DejaVuSans-64" x="587.158"/><use xlink:href="#DejaVuSans-61" x="650.635"/><use xlink:href="#DejaVuSans-74" x="711.914"/><use xlink:href="#DejaVuSans-61" x="751.123"/></g><g id="text_21" style="fill:#ff7f0e" transform="matrix(.14 0 0 -.14 465.907 104.786)"><defs><path id="DejaVuSans-70" d="M1159 525v-1856H581v4831h578v-531q182 312 458 463 277 152 661 152 638 0 1036-506 399-506 399-1331T3314 415Q2916-91 2278-91q-384 0-661 152-276 152-458 464zm1957 1222q0 634-261 995t-717 361q-457 0-718-361t-261-995q0-634 261-995t718-361q456 0 717 361t261 995z" transform="scale(.01563)"/><path id="DejaVuSans-6f" d="M1959 3097q-462 0-731-361t-269-989q0-628 267-989 268-361 733-361 460 0 728 362 269 363 269 988 0 622-269 986-268 364-728 364zm0 487q750 0 1178-488 429-487 429-1349 0-859-429-1349Q2709-91 1959-91q-753 0-1180 489-426 490-426 1349 0 862 426 1349 427 488 1180 488z" transform="scale(.01563)"/><path id="DejaVuSans-6d" d="M3328 2828q216 388 516 572t706 184q547 0 844-383 297-382 297-1088V0h-578v2094q0 503-179 746-178 244-543 244-447 0-707-297-259-296-259-809V0h-578v2094q0 506-178 748t-550 242q-441 0-701-298-259-298-259-808V0H581v3500h578v-544q197 322 472 475t653 153q382 0 649-194 267-193 395-562z" transform="scale(.01563)"/><path id="DejaVuSans-68" d="M3513 2113V0h-575v2094q0 497-194 743-194 247-581 247-466 0-735-297-269-296-269-809V0H581v4863h578V2956q207 316 486 472 280 156 646 156 603 0 912-373 310-373 310-1098z" transform="scale(.01563)"/></defs><use xlink:href="#DejaVuSans-70"/><use xlink:href="#DejaVuSans-72" x="63.477"/><use xlink:href="#DejaVuSans-6f" x="102.34"/><use xlink:href="#DejaVuSans-6d" x="163.521"/><use xlink:href="#DejaVuSans-65" x="260.934"/><use xlink:href="#DejaVuSans-74" x="322.457"/><use xlink:href="#DejaVuSans-68" x="361.666"/><use xlink:href="#DejaVuSans-65" x="425.045"/><use xlink:href="#DejaVuSans-75" x="486.568"/><use xlink:href="#DejaVuSans-73" x="549.947"/><use xlink:href="#DejaVuSans-2f" x="602.047"/><use xlink:href="#DejaVuSans-70" x="635.738"/><use xlink:href="#DejaVuSans-72" x="699.215"/><use xlink:href="#DejaVuSans-6f" x="738.078"/><use xlink:href="#DejaVuSans-6d" x="799.26"/><use xlink:href="#DejaVuSans-65" x="896.672"/><use xlink:href="#DejaVuSans-74" x="958.195"/><use xlink:href="#DejaVuSans-68" x="997.404"/><use xlink:href="#DejaVuSans-65" x="1060.783"/><use xlink:href="#DejaVuSans-75" x="1122.307"/><use xlink:href="#DejaVuSans-73" x="1185.686"/></g><g id="text_22" style="fill:#2ca02c" transform="matrix(.14 0 0 -.14 465.907 197.588)"><defs><path id="DejaVuSans-66" d="M2375 4863v-479h-550q-309 0-430-125-120-125-120-450v-309h947v-447h-947V0H697v3053H147v447h550v244q0 584 272 851 272 268 862 268h544z" transform="scale(.01563)"/><path id="DejaVuSans-6c" d="M603 4863h575V0H603v4863z" transform="scale(.01563)"/><path id="DejaVuSans-78" d="M3513 3500 2247 1797 3578 0h-678L1881 1375 863 0H184l1360 1831L300 3500h678l928-1247 928 1247h679z" transform="scale(.01563)"/></defs><use xlink:href="#DejaVuSans-69"/><use xlink:href="#DejaVuSans-6e" x="27.783"/><use xlink:href="#DejaVuSans-66" x="91.162"/><use xlink:href="#DejaVuSans-6c" x="126.367"/><use xlink:href="#DejaVuSans-75" x="154.15"/><use xlink:href="#DejaVuSans-78" x="217.529"/><use xlink:href="#DejaVuSans-64" x="276.709"/><use xlink:href="#DejaVuSans-61" x="340.186"/><use xlink:href="#DejaVuSans-74" x="401.465"/><use xlink:href="#DejaVuSans-61" x="440.674"/><use xlink:href="#DejaVuSans-2f" x="501.953"/><use xlink:href="#DejaVuSans-69" x="535.645"/><use xlink:href="#DejaVuSans-6e" x="563.428"/><use xlink:href="#DejaVuSans-66" x="626.807"/><use xlink:href="#DejaVuSans-6c" x="662.012"/><use xlink:href="#DejaVuSans-75" x="689.795"/><use xlink:href="#DejaVuSans-78" x="753.174"/><use xlink:href="#DejaVuSans-64" x="812.354"/><use xlink:href="#DejaVuSans-62" x="875.83"/></g><g id="text_23" style="fill:#d62728" transform="matrix(.14 0 0 -.14 465.907 216.237)"><defs><path id="DejaVuSans-54" d="M-19 4666h3947v-532H2272V0h-634v4134H-19v532z" transform="scale(.01563)"/><path id="DejaVuSans-44" d="M1259 4147V519h763q966 0 1414 437 448 438 448 1382 0 937-448 1373t-1414 436h-763zm-631 519h1297q1356 0 1990-564 635-564 635-1764 0-1207-638-1773Q3275 0 1925 0H628v4666z" transform="scale(.01563)"/><path id="DejaVuSans-67" d="M2906 1791q0 625-258 968-257 344-723 344-462 0-720-344-258-343-258-968 0-622 258-966t720-344q466 0 723 344 258 344 258 966zm575-1357q0-893-397-1329-396-436-1215-436-303 0-572 45t-522 139v559q253-137 500-202 247-66 503-66 566 0 847 295t281 892v285q-178-310-456-463T1784 0Q1141 0 747 490 353 981 353 1791q0 812 394 1302 394 491 1037 491 388 0 666-153t456-462v531h575V434z" transform="scale(.01563)"/></defs><use xlink:href="#DejaVuSans-74"/><use xlink:href="#DejaVuSans-61" x="39.209"/><use xlink:href="#DejaVuSans-6f" x="100.488"/><use xlink:href="#DejaVuSans-73" x="161.67"/><use xlink:href="#DejaVuSans-64" x="213.77"/><use xlink:href="#DejaVuSans-61" x="277.246"/><use xlink:href="#DejaVuSans-74" x="338.525"/><use xlink:href="#DejaVuSans-61" x="377.734"/><use xlink:href="#DejaVuSans-2f" x="439.014"/><use xlink:href="#DejaVuSans-54" x="472.705"/><use xlink:href="#DejaVuSans-44" x="533.789"/><use xlink:href="#DejaVuSans-65" x="610.791"/><use xlink:href="#DejaVuSans-6e" x="672.314"/><use xlink:href="#DejaVuSans-67" x="735.693"/><use xlink:href="#DejaVuSans-69" x="799.17"/><use xlink:href="#DejaVuSans-6e" x="826.953"/><use xlink:href="#DejaVuSans-65" x="890.332"/></g><g id="text_24" style="fill:#9467bd" transform="matrix(.14 0 0 -.14 465.907 242.526)"><defs><path id="DejaVuSans-63" d="M3122 3366v-538q-244 135-489 202t-495 67q-560 0-870-355-309-354-309-995t309-996q310-354 870-354 250 0 495 67t489 202V134Q2881 22 2623-34q-257-57-548-57-791 0-1257 497-465 497-465 1341 0 856 470 1346 471 491 1290 491 265 0 518-55 253-54 491-163z" transform="scale(.01563)"/></defs><use xlink:href="#DejaVuSans-74"/><use xlink:href="#DejaVuSans-69" x="39.209"/><use xlink:href="#DejaVuSans-6d" x="66.992"/><use xlink:href="#DejaVuSans-65" x="164.404"/><use xlink:href="#DejaVuSans-73" x="225.928"/><use xlink:href="#DejaVuSans-63" x="278.027"/><use xlink:href="#DejaVuSans-61" x="333.008"/><use xlink:href="#DejaVuSans-6c" x="394.287"/><use xlink:href="#DejaVuSans-65" x="422.07"/><use xlink:href="#DejaVuSans-2f" x="483.594"/><use xlink:href="#DejaVuSans-74" x="517.285"/><use xlink:href="#DejaVuSans-69" x="556.494"/><use xlink:href="#DejaVuSans-6d" x="584.277"/><use xlink:href="#DejaVuSans-65" x="681.689"/><use xlink:href="#DejaVuSans-73" x="743.213"/><use xlink:href="#DejaVuSans-63" x="795.313"/><use xlink:href="#DejaVuSans-61" x="850.293"/><use xlink:href="#DejaVuSans-6c" x="911.572"/><use xlink:href="#DejaVuSans-65" x="939.355"/><use xlink:href="#DejaVuSans-64" x="1000.879"/><use xlink:href="#DejaVuSans-62" x="1064.355"/></g><g id="text_25" style="fill:#8c564b" transform="matrix(.14 0 0 -.14 465.907 260.661)"><defs><path id="DejaVuSans-71" d="M947 1747q0-634 261-995t717-361q456 0 718 361 263 361 263 995t-263 995q-262 361-718 361t-717-361q-261-361-261-995zM2906 525q-181-312-458-464-276-152-664-152-634 0-1033 506-398 507-398 1332t398 1331q399 506 1033 506 388 0 664-152 277-151 458-463v531h575v-4831h-575V525z" transform="scale(.01563)"/></defs><use xlink:href="#DejaVuSans-71"/><use xlink:href="#DejaVuSans-75" x="63.477"/><use xlink:href="#DejaVuSans-65" x="126.855"/><use xlink:href="#DejaVuSans-73" x="188.379"/><use xlink:href="#DejaVuSans-74" x="240.479"/><use xlink:href="#DejaVuSans-64" x="279.688"/><use xlink:href="#DejaVuSans-62" x="343.164"/><use xlink:href="#DejaVuSans-2f" x="406.641"/><use xlink:href="#DejaVuSans-71" x="440.332"/><use xlink:href="#DejaVuSans-75" x="503.809"/><use xlink:href="#DejaVuSans-65" x="567.188"/><use xlink:href="#DejaVuSans-73" x="628.711"/><use xlink:href="#DejaVuSans-74" x="680.811"/><use xlink:href="#DejaVuSans-64" x="720.02"/><use xlink:href="#DejaVuSans-62" x="783.496"/></g><g id="text_26" style="fill:#e377c2" transform="matrix(.14 0 0 -.14 465.907 274.661)"><defs><path id="DejaVuSans-2d" d="M313 2009h1684v-512H313v512z" transform="scale(.01563)"/></defs><use xlink:href="#DejaVuSans-6f"/><use xlink:href="#DejaVuSans-70" x="61.182"/><use xlink:href="#DejaVuSans-65" x="124.658"/><use xlink:href="#DejaVuSans-6e" x="186.182"/><use xlink:href="#DejaVuSans-2d" x="249.561"/><use xlink:href="#DejaVuSans-66" x="285.645"/><use xlink:href="#DejaVuSans-61" x="320.85"/><use xlink:href="#DejaVuSans-6c" x="382.129"/><use xlink:href="#DejaVuSans-63" x="409.912"/><use xlink:href="#DejaVuSans-6f" x="464.893"/><use xlink:href="#DejaVuSans-6e" x="526.074"/><use xlink:href="#DejaVuSans-2f" x="589.453"/><use xlink:href="#DejaVuSans-66" x="623.145"/><use xlink:href="#DejaVuSans-61" x="658.35"/><use xlink:href="#DejaVuSans-6c" x="719.629"/><use xlink:href="#DejaVuSans-63" x="747.412"/><use xlink:href="#DejaVuSans-6f" x="802.393"/><use xlink:href="#DejaVuSans-6e" x="863.574"/><use xlink:href="#DejaVuSans-2d" x="926.953"/><use xlink:href="#DejaVuSans-70" x="963.037"/><use xlink:href="#DejaVuSans-6c" x="1026.514"/><use xlink:href="#DejaVuSans-75" x="1054.297"/><use xlink:href="#DejaVuSans-73" x="1117.676"/></g><g id="text_27" style="fill:#b0b0b0" transform="matrix(.09716 0 0 -.09716 98.073 334.381)"><defs><path id="DejaVuSans-40" d="M2381 1678q0-447 222-702 222-254 610-254 384 0 604 256 221 256 221 700 0 438-225 695-225 258-607 258-378 0-602-256-223-256-223-697zm1703-934q-187-241-429-355t-564-114q-538 0-874 389t-336 1014q0 625 337 1015 338 391 873 391 322 0 565-117 244-117 428-354v409h447V722q457 69 714 417 258 349 258 902 0 334-99 628-98 294-298 544-325 409-792 626t-1017 217q-384 0-738-102-353-101-653-301-490-319-767-836-276-517-276-1120 0-497 179-932 180-434 521-765 328-325 759-495 431-171 922-171 403 0 792 136t714 389l281-347q-390-303-851-464t-936-161q-578 0-1091 205-512 205-912 595Q841 78 631 592q-209 514-209 1105 0 569 212 1084 213 516 607 907 403 396 931 607t1119 211q662 0 1229-272 568-271 952-771 234-307 357-666 124-359 124-744 0-822-497-1297T4084 263v481z" transform="scale(.01563)"/><path id="DejaVuSans-7c" d="M1344 4891v-6400H813v6400h531z" transform="scale(.01563)"/><path id="DejaVuSans-4e" d="M628 4666h850L3547 763v3903h612V0h-850L1241 3903V0H628v4666z" transform="scale(.01563)"/><path id="DejaVuSans-53" d="M3425 4513v-616q-359 172-678 256-319 85-616 85-515 0-795-200t-280-569q0-310 186-468 186-157 705-254l381-78q706-135 1042-474t336-907q0-679-455-1029Q2797-91 1919-91q-331 0-705 75-373 75-773 222v650q384-215 753-325 369-109 725-109 540 0 834 212 294 213 294 607 0 343-211 537t-692 291l-385 75q-706 140-1022 440-315 300-315 835 0 619 436 975t1201 356q329 0 669-60 341-59 697-177z" transform="scale(.01563)"/><path id="DejaVuSans-f6" d="M1959 3097q-462 0-731-361t-269-989q0-628 267-989 268-361 733-361 460 0 728 362 269 363 269 988 0 622-269 986-268 364-728 364zm0 487q750 0 1178-488 429-487 429-1349 0-859-429-1349Q2709-91 1959-91q-753 0-1180 489-426 490-426 1349 0 862 426 1349 427 488 1180 488zm295 1266h634v-631h-634v631zm-1222 0h634v-631h-634v631z" transform="scale(.01563)"/><path id="DejaVuSans-43" d="M4122 4306v-665q-319 297-680 443-361 147-767 147-800 0-1225-489t-425-1414q0-922 425-1411t1225-489q406 0 767 147t680 444V359q-331-225-702-338-370-112-782-112-1060 0-1670 648-609 649-609 1771 0 1125 609 1773 610 649 1670 649 418 0 788-111 371-111 696-333z" transform="scale(.01563)"/><path id="DejaVuSans-42" d="M1259 2228V519h1013q509 0 754 211 246 211 246 645 0 438-246 645-245 208-754 208H1259zm0 1919V2741h935q462 0 688 173 227 174 227 530 0 353-227 528-226 175-688 175h-935zm-631 519h1613q722 0 1112-300 391-300 391-853 0-429-200-682t-588-315q466-100 724-418 258-317 258-792 0-625-425-966Q3088 0 2303 0H628v4666z" transform="scale(.01563)"/><path id="DejaVuSans-59" d="M-13 4666h679l1293-1919 1285 1919h678L2272 2222V0h-634v2222L-13 4666z" transform="scale(.01563)"/></defs><use xlink:href="#DejaVuSans-40"/><use xlink:href="#DejaVuSans-6e" x="100"/><use xlink:href="#DejaVuSans-73" x="163.379"/><use xlink:href="#DejaVuSans-63" x="215.479"/><use xlink:href="#DejaVuSans-68" x="270.459"/><use xlink:href="#DejaVuSans-6c" x="333.838"/><use xlink:href="#DejaVuSans-6f" x="361.621"/><use xlink:href="#DejaVuSans-65" x="422.803"/><use xlink:href="#DejaVuSans-20" x="484.326"/><use xlink:href="#DejaVuSans-2f" x="516.113"/><use xlink:href="#DejaVuSans-20" x="549.805"/><use xlink:href="#DejaVuSans-67" x="581.592"/><use xlink:href="#DejaVuSans-69" x="645.068"/><use xlink:href="#DejaVuSans-74" x="672.852"/><use xlink:href="#DejaVuSans-68" x="712.061"/><use xlink:href="#DejaVuSans-75" x="775.439"/><use xlink:href="#DejaVuSans-62" x="838.818"/><use xlink:href="#DejaVuSans-2d" x="902.295"/><use xlink:href="#DejaVuSans-74" x="938.379"/><use xlink:href="#DejaVuSans-72" x="977.588"/><use xlink:href="#DejaVuSans-65" x="1016.451"/><use xlink:href="#DejaVuSans-6e" x="1077.975"/><use xlink:href="#DejaVuSans-64" x="1141.354"/><use xlink:href="#DejaVuSans-73" x="1204.83"/><use xlink:href="#DejaVuSans-20" x="1256.93"/><use xlink:href="#DejaVuSans-7c" x="1288.717"/><use xlink:href="#DejaVuSans-20" x="1322.408"/><use xlink:href="#DejaVuSans-4e" x="1354.195"/><use xlink:href="#DejaVuSans-69" x="1429"/><use xlink:href="#DejaVuSans-63" x="1456.783"/><use xlink:href="#DejaVuSans-6f" x="1511.764"/><use xlink:href="#DejaVuSans-20" x="1572.945"/><use xlink:href="#DejaVuSans-53" x="1604.732"/><use xlink:href="#DejaVuSans-63" x="1668.209"/><use xlink:href="#DejaVuSans-68" x="1723.189"/><use xlink:href="#DejaVuSans-6c" x="1786.568"/><use xlink:href="#DejaVuSans-f6" x="1814.352"/><use xlink:href="#DejaVuSans-6d" x="1875.533"/><use xlink:href="#DejaVuSans-65" x="1972.945"/><use xlink:href="#DejaVuSans-72" x="2034.469"/><use xlink:href="#DejaVuSans-20" x="2075.582"/><use xlink:href="#DejaVuSans-7c" x="2107.369"/><use xlink:href="#DejaVuSans-20" x="2141.061"/><use xlink:href="#DejaVuSans-43" x="2172.848"/><use xlink:href="#DejaVuSans-43" x="2242.672"/><use xlink:href="#DejaVuSans-20" x="2312.496"/><use xlink:href="#DejaVuSans-42" x="2344.283"/><use xlink:href="#DejaVuSans-59" x="2407.387"/></g><path id="line2d_29" d="m332.081 300.345 2.982-34.499 2.982-4.913 2.885-1.966 2.982-.972 2.885-.778 2.982-.912 2.981-.605 2.79-.35 2.981-.462 2.886-.618 2.981-1.845 2.886-.588 2.981-.57 2.982-5.289 2.885-3.275 2.982-.899 2.885-.8 2.982-.621 2.982-.536 2.693-.355 2.981-.635 2.886-.652 2.981-.787 2.886-2.225 2.981-1.214 2.982-.683 2.885-.683 2.982-3.81 2.885-1.695 2.982-.894 2.982-.566 2.693-.899 2.981-1.063 2.886-1.205 2.981-.9 2.886-.803 2.981-.708 2.982-1.832 2.885-1.189 2.982-.89 2.886-2.567 2.981-1.218" clip-path="url(#paa6cb8acf9)" style="fill:none;stroke:#d62728;stroke-width:1.5;stroke-linecap:square"/><path id="line2d_30" d="m130.198 300.345 2.981-.013 2.886-3.405 2.981-.536 2.982-1.007 2.693-.6 2.982-.869 2.885-.808 2.982-.929 2.885-.795 2.982-.899 2.981-1.08 2.886-.963 2.981-1.063 2.886-1.085 2.981-1.569 2.982-1.317 2.693-.865 2.982-1.3 2.885-1.262 2.982-.89 2.885-1.12 2.982-.838 2.981-.85 2.886-1.042 2.981-.886 2.886-.907 2.981-.934 2.982-.868 2.79-.882 2.98-.959 2.886-.929 2.982-.946 2.885-.795 2.982-.765 2.982-.847 2.885-1.002 2.982-.653 2.885-.739 2.982-.933 2.981-.908 2.693-.972 2.982-1.18 2.885-.989 2.982-.916 2.885-1.05 2.982-.95 2.982-.968 2.885-.895 2.982-.873 2.885-1.024 2.982-.907 2.981-1.016 2.693-.968 2.982-1.261 2.885-1.163 2.982-1.084 2.885-.908 2.982-1.054 2.982-1.15 2.885-1.08 2.982-.972 2.885-1.188 2.982-1.024 2.981-1.28 2.693-.898 2.982-1.011 2.885-1.162 2.982-1.215 2.885-.933 2.982-1.707 2.982-.916 2.885-.85 2.982-.934 2.885-.89 2.982-.817 2.981-.864 2.79-.756 2.981-.826 2.886-.873 2.981-.976 2.886-.743 2.981-.847 2.982-.666 2.885-.933 2.982-.665 2.885-1.033 2.982-.938 2.982-.864 2.693-.73 2.981-2.714 2.886-.842 2.981-.687 2.886-.852 2.981-.752 2.982-.825 2.885-.648 2.982-.67 2.885-.83 2.982-.747 2.982-.873 2.693-1.205 2.981-.804 2.886-.756 2.981-.821 2.886-.864 2.981-.817 2.982-.713 2.885-.847 2.982-.79 2.886-.848 2.981-.738" clip-path="url(#paa6cb8acf9)" style="fill:none;stroke:#2ca02c;stroke-width:1.5;stroke-linecap:square"/><path id="line2d_31" d="m98.073 300.345 2.886-.022h8.656l2.981-.004 2.886-.004 2.981-.013 2.886-.005 2.982-.017 2.981-.009h2.886l2.981-.004h5.867l2.982-.004 2.693-.009 2.982-.013 2.885-.043 2.982-.074 2.885-.047 2.982-.048 2.981-.013 2.886-.017 2.981-.034 2.886-.018 2.981-.021 2.982-1.534 2.693-4.93 2.982-.489 2.885-.665 2.982-.488 2.885-.912 2.982-.977 2.981-.95 2.886-.718 2.981-.76 2.886-.886 2.981-.683 2.982-.682 2.79-.8 2.98-.868 2.886-1.063 2.982-1.612 2.885-1.12 2.982-1.684 2.982-1.262 2.885-1.383 2.982-1.512 2.885-1.772 2.982-1.698 2.981-1.836 2.693-1.845 2.982-1.85 2.885-1.966 2.982-2.104 2.885-1.992 2.982-1.944 2.982-2.416 2.885-1.94 2.982-2.523 2.885-3.146 2.982-2.54 2.981-2.507 2.693-2.338 2.982-2.588 2.885-2.139 2.982-2.433 2.885-2.566 2.982-2.442 2.982-2.912 2.885-2.878 2.982-2.55 2.885-2.743 2.982-2.783 2.981-2.83 2.693-2.268 2.982-2.705 2.885-2.939 2.982-2.795 2.885-2.36 2.982-2.661 2.982-2.973 2.885-2.506 2.982-2.588 2.885-2.528 2.982-2.563 2.981-2.005 2.79-1.953 2.981-2.406 2.886-2.71 2.981-2.484 2.886-2.239 2.981-2.704 2.982-2.092 2.885-2.42 2.982-2.004 2.885-2.221 2.982-2.079 2.982-2.104 2.693-2.225 2.981-2.3 2.886-1.892 2.981-2.156 2.886-2.16 2.981-2.221 2.982-2.74 2.885-1.927 2.982-2.005 2.885-2.07 2.982-2.044 2.982-2.692 2.693-1.853 2.981-2.247 2.886-2.14 2.981-2.561 2.886-2.183 2.981-2.06 2.982-2.209 2.885-2.212 2.982-2.744 2.886-2.575 2.981-2.221" clip-path="url(#paa6cb8acf9)" style="fill:none;stroke:#ff7f0e;stroke-width:1.5;stroke-linecap:square"/><path id="line2d_32" d="m136.065 300.345 2.981-.005H153.57l2.885-.008H177.134l2.693-.004h11.734l2.982-.005h5.867l2.981-.013 2.886-.013 2.981-.004 2.982-.026 2.79-.017 2.98-18.356 2.886-25.494 2.982-3.508 2.885-2.416 2.982-2.454 2.982-3.297 2.885-3.331 2.982-1.884 2.885-2 2.982-5.76 2.981-4.581 2.693-2.761 2.982-3.647 2.885-2.964 2.982-2.93 2.885-2.484 2.982-3.678 2.982-2.787 2.885-2.838 2.982-2.826 2.885-2.701 2.982-3.651 2.981-3.025 2.693-2.692 2.982-3.193 2.885-2.545 2.982-2.64 2.885-2.342 2.982-2.377 2.982-3.189 2.885-2.242 2.982-2.17 2.885-3.534 2.982-3.254 2.981-4.355 2.693-3.932 2.982-3.941 2.885-3.38 2.982-3.585 2.885-2.956 2.982-3.128 2.982-3.194 2.885-3.253 2.982-3.086 2.885-3.43 2.982-3.807 2.981-3.046 2.79-2.891 2.981-2.645 2.886-3.245 2.981-2.333 2.886-2.178 2.981-2.147 2.982-1.863 2.885-2.268 2.982-2.061 2.885-2.035 2.982-5.613 2.982-1.699 2.693-1.788 2.981-1.902 2.886-6.377 2.981-5.389 2.886-1.75 2.981-1.728 2.982-1.858 2.885-1.828 2.982-1.65 2.885-1.573 2.982-1.737 2.982-1.871 2.693-3.35 2.981-2.03 2.886-2.057 2.981-1.94 2.886-2.018 2.981-1.69 2.982-1.879 2.885-1.607 2.982-1.34 2.886-1.594 2.981-1.44" clip-path="url(#paa6cb8acf9)" style="fill:none;stroke:#1f77b4;stroke-width:1.5;stroke-linecap:square"/></g></g><defs><clipPath id="paa6cb8acf9"><path d="M98.073 34.233h357.12v266.112H98.073z"/></clipPath></defs></svg>