<svg xmlns="http://www.w3.org/2000/svg" xmlns:xlink="http://www.w3.org/1999/xlink" width="886.402" height="456.501" viewBox="0 0 664.802 342.376"><defs><style>*{stroke-linejoin:round;stroke-linecap:butt}</style></defs><g id="figure_1"><path id="patch_1" d="M0 342.376h664.802V0H0v342.376z" style="fill:none"/><g id="axes_1"><path id="patch_2" d="M98.073 298.849h357.12V32.737H98.073v266.112z" style="fill:none"/><g id="matplotlib.axis_1"><g id="xtick_1"><g id="line2d_1"><defs><path id="mae3cd69e80" d="M0 0v3.5" style="stroke:#b0b0b0;stroke-width:.4"/></defs><use xlink:href="#mae3cd69e80" x="133.591" y="298.849" style="fill:#b0b0b0;stroke:#b0b0b0;stroke-width:.4"/></g><g id="text_1" style="fill:#b0b0b0" transform="matrix(.14 0 0 -.14 115.776 316.486)"><defs><path id="DejaVuSans-32" d="M1228 531h2203V0H469v531q359 372 979 998 621 627 780 809 303 340 423 576 121 236 121 464 0 372-261 606-261 235-680 235-297 0-627-103-329-103-704-313v638q381 153 712 231 332 78 607 78 725 0 1156-363 431-362 431-968 0-288-108-546-107-257-392-607-78-91-497-524-418-433-1181-1211z" transform="scale(.01563)"/><path id="DejaVuSans-30" d="M2034 4250q-487 0-733-480-245-479-245-1442 0-959 245-1439 246-480 733-480 491 0 736 480 246 480 246 1439 0 963-246 1442-245 480-736 480zm0 500q785 0 1199-621 414-620 414-1801 0-1178-414-1799Q2819-91 2034-91q-784 0-1198 620-414 621-414 1799 0 1181 414 1801 414 621 1198 621z" transform="scale(.01563)"/><path id="DejaVuSans-31" d="M794 531h1031v3560L703 3866v575l1116 225h631V531h1031V0H794v531z" transform="scale(.01563)"/></defs><use xlink:href="#DejaVuSans-32"/><use xlink:href="#DejaVuSans-30" x="63.623"/><use xlink:href="#DejaVuSans-31" x="127.246"/><use xlink:href="#DejaVuSans-32" x="190.869"/></g></g><g id="xtick_2"><use xlink:href="#mae3cd69e80" id="line2d_2" x="190.404" y="298.849" style="fill:#b0b0b0;stroke:#b0b0b0;stroke-width:.4"/><g id="text_2" style="fill:#b0b0b0" transform="matrix(.14 0 0 -.14 172.589 316.486)"><defs><path id="DejaVuSans-34" d="M2419 4116 825 1625h1594v2491zm-166 550h794V1625h666v-525h-666V0h-628v1100H313v609l1940 2957z" transform="scale(.01563)"/></defs><use xlink:href="#DejaVuSans-32"/><use xlink:href="#DejaVuSans-30" x="63.623"/><use xlink:href="#DejaVuSans-31" x="127.246"/><use xlink:href="#DejaVuSans-34" x="190.869"/></g></g><g id="xtick_3"><use xlink:href="#mae3cd69e80" id="line2d_3" x="247.139" y="298.849" style="fill:#b0b0b0;stroke:#b0b0b0;stroke-width:.4"/><g id="text_3" style="fill:#b0b0b0" transform="matrix(.14 0 0 -.14 229.324 316.486)"><defs><path id="DejaVuSans-36" d="M2113 2584q-425 0-674-291-248-290-248-796 0-503 248-796 249-292 674-292t673 292q248 293 248 796 0 506-248 796-248 291-673 291zm1253 1979v-575q-238 112-480 171-242 60-480 60-625 0-955-422-329-422-376-1275 184 272 462 417 279 145 613 145 703 0 1111-427 408-426 408-1160 0-719-425-1154Q2819-91 2113-91q-810 0-1238 620-428 621-428 1799 0 1106 525 1764t1409 658q238 0 480-47t505-140z" transform="scale(.01563)"/></defs><use xlink:href="#DejaVuSans-32"/><use xlink:href="#DejaVuSans-30" x="63.623"/><use xlink:href="#DejaVuSans-31" x="127.246"/><use xlink:href="#DejaVuSans-36" x="190.869"/></g></g><g id="xtick_4"><use xlink:href="#mae3cd69e80" id="line2d_4" x="303.951" y="298.849" style="fill:#b0b0b0;stroke:#b0b0b0;stroke-width:.4"/><g id="text_4" style="fill:#b0b0b0" transform="matrix(.14 0 0 -.14 286.136 316.486)"><defs><path id="DejaVuSans-38" d="M2034 2216q-450 0-708-241-257-241-257-662 0-422 257-663 258-241 708-241t709 242q260 243 260 662 0 421-258 662-257 241-711 241zm-631 268q-406 100-633 378-226 279-226 679 0 559 398 884 399 325 1092 325 697 0 1094-325t397-884q0-400-227-679-226-278-629-378 456-106 710-416 255-309 255-755 0-679-414-1042Q2806-91 2034-91q-771 0-1186 362-414 363-414 1042 0 446 256 755 257 310 713 416zm-231 997q0-362 226-565 227-203 636-203 407 0 636 203 230 203 230 565 0 363-230 566-229 203-636 203-409 0-636-203-226-203-226-566z" transform="scale(.01563)"/></defs><use xlink:href="#DejaVuSans-32"/><use xlink:href="#DejaVuSans-30" x="63.623"/><use xlink:href="#DejaVuSans-31" x="127.246"/><use xlink:href="#DejaVuSans-38" x="190.869"/></g></g><g id="xtick_5"><use xlink:href="#mae3cd69e80" id="line2d_5" x="360.687" y="298.849" style="fill:#b0b0b0;stroke:#b0b0b0;stroke-width:.4"/><g id="text_5" style="fill:#b0b0b0" transform="matrix(.14 0 0 -.14 342.872 316.486)"><use xlink:href="#DejaVuSans-32"/><use xlink:href="#DejaVuSans-30" x="63.623"/><use xlink:href="#DejaVuSans-32" x="127.246"/><use xlink:href="#DejaVuSans-30" x="190.869"/></g></g><g id="xtick_6"><use xlink:href="#mae3cd69e80" id="line2d_6" x="417.499" y="298.849" style="fill:#b0b0b0;stroke:#b0b0b0;stroke-width:.4"/><g id="text_6" style="fill:#b0b0b0" transform="matrix(.14 0 0 -.14 399.684 316.486)"><use xlink:href="#DejaVuSans-32"/><use xlink:href="#DejaVuSans-30" x="63.623"/><use xlink:href="#DejaVuSans-32" x="127.246"/><use xlink:href="#DejaVuSans-32" x="190.869"/></g></g></g><g id="matplotlib.axis_2"><g id="ytick_1"><path id="line2d_7" d="M98.073 298.849h357.12" clip-path="url(#p329d61a826)" style="fill:none;stroke:#b0b0b0;stroke-width:.3;stroke-linecap:square"/><g id="line2d_8"><defs><path id="m2861d4e69a" d="M0 0h-3.5" style="stroke:#b0b0b0;stroke-width:.3"/></defs><use xlink:href="#m2861d4e69a" x="98.073" y="298.849" style="fill:#b0b0b0;stroke:#b0b0b0;stroke-width:.3"/></g><use xlink:href="#DejaVuSans-30" id="text_7" style="fill:#b0b0b0" transform="matrix(.14 0 0 -.14 82.166 304.167)"/></g><g id="ytick_2"><path id="line2d_9" d="M98.073 255.888h357.12" clip-path="url(#p329d61a826)" style="fill:none;stroke:#b0b0b0;stroke-width:.3;stroke-linecap:square"/><use xlink:href="#m2861d4e69a" id="line2d_10" x="98.073" y="255.888" style="fill:#b0b0b0;stroke:#b0b0b0;stroke-width:.3"/><g id="text_8" style="fill:#b0b0b0" transform="matrix(.14 0 0 -.14 46.536 261.207)"><use xlink:href="#DejaVuSans-32"/><use xlink:href="#DejaVuSans-30" x="63.623"/><use xlink:href="#DejaVuSans-30" x="127.246"/><use xlink:href="#DejaVuSans-30" x="190.869"/><use xlink:href="#DejaVuSans-30" x="254.492"/></g></g><g id="ytick_3"><path id="line2d_11" d="M98.073 212.928h357.12" clip-path="url(#p329d61a826)" style="fill:none;stroke:#b0b0b0;stroke-width:.3;stroke-linecap:square"/><use xlink:href="#m2861d4e69a" id="line2d_12" x="98.073" y="212.928" style="fill:#b0b0b0;stroke:#b0b0b0;stroke-width:.3"/><g id="text_9" style="fill:#b0b0b0" transform="matrix(.14 0 0 -.14 46.536 218.247)"><use xlink:href="#DejaVuSans-34"/><use xlink:href="#DejaVuSans-30" x="63.623"/><use xlink:href="#DejaVuSans-30" x="127.246"/><use xlink:href="#DejaVuSans-30" x="190.869"/><use xlink:href="#DejaVuSans-30" x="254.492"/></g></g><g id="ytick_4"><path id="line2d_13" d="M98.073 169.967h357.12" clip-path="url(#p329d61a826)" style="fill:none;stroke:#b0b0b0;stroke-width:.3;stroke-linecap:square"/><use xlink:href="#m2861d4e69a" id="line2d_14" x="98.073" y="169.967" style="fill:#b0b0b0;stroke:#b0b0b0;stroke-width:.3"/><g id="text_10" style="fill:#b0b0b0" transform="matrix(.14 0 0 -.14 46.536 175.286)"><use xlink:href="#DejaVuSans-36"/><use xlink:href="#DejaVuSans-30" x="63.623"/><use xlink:href="#DejaVuSans-30" x="127.246"/><use xlink:href="#DejaVuSans-30" x="190.869"/><use xlink:href="#DejaVuSans-30" x="254.492"/></g></g><g id="ytick_5"><path id="line2d_15" d="M98.073 127.007h357.12" clip-path="url(#p329d61a826)" style="fill:none;stroke:#b0b0b0;stroke-width:.3;stroke-linecap:square"/><use xlink:href="#m2861d4e69a" id="line2d_16" x="98.073" y="127.007" style="fill:#b0b0b0;stroke:#b0b0b0;stroke-width:.3"/><g id="text_11" style="fill:#b0b0b0" transform="matrix(.14 0 0 -.14 46.536 132.326)"><use xlink:href="#DejaVuSans-38"/><use xlink:href="#DejaVuSans-30" x="63.623"/><use xlink:href="#DejaVuSans-30" x="127.246"/><use xlink:href="#DejaVuSans-30" x="190.869"/><use xlink:href="#DejaVuSans-30" x="254.492"/></g></g><g id="ytick_6"><path id="line2d_17" d="M98.073 84.046h357.12" clip-path="url(#p329d61a826)" style="fill:none;stroke:#b0b0b0;stroke-width:.3;stroke-linecap:square"/><use xlink:href="#m2861d4e69a" id="line2d_18" x="98.073" y="84.046" style="fill:#b0b0b0;stroke:#b0b0b0;stroke-width:.3"/><g id="text_12" style="fill:#b0b0b0" transform="matrix(.14 0 0 -.14 37.628 89.365)"><use xlink:href="#DejaVuSans-31"/><use xlink:href="#DejaVuSans-30" x="63.623"/><use xlink:href="#DejaVuSans-30" x="127.246"/><use xlink:href="#DejaVuSans-30" x="190.869"/><use xlink:href="#DejaVuSans-30" x="254.492"/><use xlink:href="#DejaVuSans-30" x="318.115"/></g></g><g id="ytick_7"><path id="line2d_19" d="M98.073 41.086h357.12" clip-path="url(#p329d61a826)" style="fill:none;stroke:#b0b0b0;stroke-width:.3;stroke-linecap:square"/><use xlink:href="#m2861d4e69a" id="line2d_20" x="98.073" y="41.086" style="fill:#b0b0b0;stroke:#b0b0b0;stroke-width:.3"/><g id="text_13" style="fill:#b0b0b0" transform="matrix(.14 0 0 -.14 37.628 46.405)"><use xlink:href="#DejaVuSans-31"/><use xlink:href="#DejaVuSans-32" x="63.623"/><use xlink:href="#DejaVuSans-30" x="127.246"/><use xlink:href="#DejaVuSans-30" x="190.869"/><use xlink:href="#DejaVuSans-30" x="254.492"/><use xlink:href="#DejaVuSans-30" x="318.115"/></g></g><g id="text_14" style="fill:#b0b0b0" transform="matrix(.14 0 0 -.14 7.2 11.563)"><defs><path id="DejaVuSans-47" d="M3809 666v1253H2778v519h1656V434q-365-259-806-392-440-133-940-133-1094 0-1712 639-617 640-617 1780 0 1144 617 1783 618 639 1712 639 456 0 867-113 411-112 758-331v-672q-350 297-744 447t-828 150q-857 0-1287-478-429-478-429-1425 0-944 429-1422 430-478 1287-478 334 0 596 58 263 58 472 180z" transform="scale(.01563)"/><path id="DejaVuSans-69" d="M603 3500h575V0H603v3500zm0 1363h575v-729H603v729z" transform="scale(.01563)"/><path id="DejaVuSans-74" d="M1172 4494v-994h1184v-447H1172V1153q0-428 117-550t477-122h590V0h-590q-666 0-919 248-253 249-253 905v1900H172v447h422v994h578z" transform="scale(.01563)"/><path id="DejaVuSans-48" d="M628 4666h631V2753h2294v1913h631V0h-631v2222H1259V0H628v4666z" transform="scale(.01563)"/><path id="DejaVuSans-75" d="M544 1381v2119h575V1403q0-497 193-746 194-248 582-248 465 0 735 297 271 297 271 810v1984h575V0h-575v538q-209-319-486-474-276-155-642-155-603 0-916 375-312 375-312 1097zm1447 2203z" transform="scale(.01563)"/><path id="DejaVuSans-62" d="M3116 1747q0 634-261 995t-717 361q-457 0-718-361t-261-995q0-634 261-995t718-361q456 0 717 361t261 995zM1159 2969q182 312 458 463 277 152 661 152 638 0 1036-506 399-506 399-1331T3314 415Q2916-91 2278-91q-384 0-661 152-276 152-458 464V0H581v4863h578V2969z" transform="scale(.01563)"/><path id="DejaVuSans-73" d="M2834 3397v-544q-243 125-506 187-262 63-544 63-428 0-642-131t-214-394q0-200 153-314t616-217l197-44q612-131 870-370t258-667q0-488-386-773Q2250-91 1575-91q-281 0-586 55T347 128v594q319-166 628-249 309-82 613-82 406 0 624 139 219 139 219 392 0 234-158 359-157 125-692 241l-200 47q-534 112-772 345-237 233-237 639 0 494 350 762 350 269 994 269 318 0 599-47 282-46 519-140z" transform="scale(.01563)"/><path id="DejaVuSans-61" d="M2194 1759q-697 0-966-159t-269-544q0-306 202-486 202-179 548-179 479 0 768 339t289 901v128h-572zm1147 238V0h-575v531q-197-318-491-470T1556-91q-537 0-855 302-317 302-317 808 0 590 395 890 396 300 1180 300h807v57q0 397-261 614t-733 217q-300 0-585-72-284-72-546-216v532q315 122 612 182 297 61 578 61 760 0 1135-394 375-393 375-1193z" transform="scale(.01563)"/><path id="DejaVuSans-72" d="M2631 2963q-97 56-211 82-114 27-251 27-488 0-749-317t-261-911V0H581v3500h578v-544q182 319 472 473 291 155 707 155 59 0 131-8 72-7 159-23l3-590z" transform="scale(.01563)"/></defs><use xlink:href="#DejaVuSans-47"/><use xlink:href="#DejaVuSans-69" x="77.49"/><use xlink:href="#DejaVuSans-74" x="105.273"/><use xlink:href="#DejaVuSans-48" x="144.482"/><use xlink:href="#DejaVuSans-75" x="219.678"/><use xlink:href="#DejaVuSans-62" x="283.057"/><use xlink:href="#DejaVuSans-20" x="346.533"/><use xlink:href="#DejaVuSans-73" x="378.32"/><use xlink:href="#DejaVuSans-74" x="430.42"/><use xlink:href="#DejaVuSans-61" x="469.629"/><use xlink:href="#DejaVuSans-72" x="530.908"/><use xlink:href="#DejaVuSans-73" x="572.021"/></g></g><path id="line2d_21" d="m327.578 298.849 2.332-.183 2.409-.052 2.41-.043 2.175-.045 2.41-.047 2.331-.034 2.41-.03 2.331-.048 2.41-.081 2.409-.069 2.331-.09 2.41-.073 2.331-.09 2.41-.104 2.409-.073 2.254-.09 2.409-.107 2.332-.183 2.409-.133 2.331-.125 2.41-.128 2.409-.125 2.332-.155 2.409-.253 2.331-.24 2.41-.256 2.41-.161 2.175-.138 2.41-.112 2.331-.128 2.41-.14 2.33-.155 2.41-.163 2.41-.206 2.331-.305 2.41-.148 2.331-.119 2.41-.283 2.409-.275 2.176-.193 2.409-.299 2.332-.3 2.409-.295 2.331-.208 2.41-.25 2.41-.216 2.33-.222 2.41-.238 2.332-.348 2.409-.264 2.41-.426 2.175-.412 2.41-.415 2.331-.446" clip-path="url(#p329d61a826)" style="fill:none;stroke:#17becf;stroke-width:1.5;stroke-linecap:square"/><path id="line2d_22" d="m310.946 298.849 2.332-.005h2.41l2.33-.02 2.41-.01 2.41-.004 2.33-.007 2.41-.006 2.332-.013 2.409-.006 2.41-.005 2.175-.008 2.41-.011 2.331-.037 2.41-.047 2.331-.036 2.41-.026 2.409-.04 2.331-.042 2.41-.028 2.331-.038 2.41-.052 2.409-.06 2.254-.075 2.409-.425 2.332-.454 2.409-.341 2.331-.37 2.41-.487 2.409-.307 2.332-.23 2.409-.222 2.331-.367 2.41-.266 2.41-.273 2.175-.251 2.41-.243 2.331-.3 2.41-.26 2.33-.207 2.41-.245 2.41-.24 2.331-.19 2.41-.201 2.331-.288 2.41-.286 2.409-.275 2.176-.352 2.409-.488 2.332-.311 2.409-.299 2.331-.234 2.41-.245 2.41-.307 2.33-.234 2.41-.311 2.332-.2 2.409-.258 2.41-.256 2.175-.24 2.41-.286 2.331-.232" clip-path="url(#p329d61a826)" style="fill:none;stroke:#bcbd22;stroke-width:1.5;stroke-linecap:square"/><path id="line2d_23" d="m367.759 298.849 2.332-.01 2.409-.003 2.331-.003 2.41-.01 2.409-.011 2.332-.015 2.409-.013 2.331-.028 2.41-.03 2.41-.024 2.175-.15 2.41-.116 2.331-.223 2.41-.254 2.33-.234 2.41-.316 2.41-.333 2.331-3.409 2.41-1.353 2.331-.6 2.41-.457 2.409-.483 2.176-.341 2.409-.38 2.332-.508 2.409-.403 2.331-.344 2.41-.419 2.41-.354 2.33-.31 2.41-.33 2.332-.265 2.409-.275 2.41-.24 2.175-.258 2.41-.247 2.331-.213" clip-path="url(#p329d61a826)" style="fill:none;stroke:#7f7f7f;stroke-width:1.5;stroke-linecap:square"/><g id="text_15" style="fill:#1f77b4" transform="matrix(.14 0 0 -.14 465.907 36.6)"><defs><path id="DejaVuSans-79" d="M2059-325q-243-625-475-815-231-191-618-191H506v481h338q237 0 368 113 132 112 291 531l103 262L191 3500h609L1894 763l1094 2737h609L2059-325z" transform="scale(.01563)"/><path id="DejaVuSans-64" d="M2906 2969v1894h575V0h-575v525q-181-312-458-464-276-152-664-152-634 0-1033 506-398 507-398 1332t398 1331q399 506 1033 506 388 0 664-152 277-151 458-463zM947 1747q0-634 261-995t717-361q456 0 718 361 263 361 263 995t-263 995q-262 361-718 361t-717-361q-261-361-261-995z" transform="scale(.01563)"/><path id="DejaVuSans-6c" d="M603 4863h575V0H603v4863z" transform="scale(.01563)"/><path id="DejaVuSans-2d" d="M313 2009h1684v-512H313v512z" transform="scale(.01563)"/><path id="DejaVuSans-6f" d="M1959 3097q-462 0-731-361t-269-989q0-628 267-989 268-361 733-361 460 0 728 362 269 363 269 988 0 622-269 986-268 364-728 364zm0 487q750 0 1178-488 429-487 429-1349 0-859-429-1349Q2709-91 1959-91q-753 0-1180 489-426 490-426 1349 0 862 426 1349 427 488 1180 488z" transform="scale(.01563)"/><path id="DejaVuSans-67" d="M2906 1791q0 625-258 968-257 344-723 344-462 0-720-344-258-343-258-968 0-622 258-966t720-344q466 0 723 344 258 344 258 966zm575-1357q0-893-397-1329-396-436-1215-436-303 0-572 45t-522 139v559q253-137 500-202 247-66 503-66 566 0 847 295t281 892v285q-178-310-456-463T1784 0Q1141 0 747 490 353 981 353 1791q0 812 394 1302 394 491 1037 491 388 0 666-153t456-462v531h575V434z" transform="scale(.01563)"/><path id="DejaVuSans-2f" d="M1625 4666h531L531-594H0l1625 5260z" transform="scale(.01563)"/><path id="DejaVuSans-65" d="M3597 1894v-281H953q38-594 358-905t892-311q331 0 642 81t618 244V178Q3153 47 2828-22t-659-69q-838 0-1327 487-489 488-489 1320 0 859 464 1363 464 505 1252 505 706 0 1117-455 411-454 411-1235zm-575 169q-6 471-264 752-258 282-683 282-481 0-770-272t-333-766l2050 4z" transform="scale(.01563)"/></defs><use xlink:href="#DejaVuSans-79"/><use xlink:href="#DejaVuSans-74" x="59.18"/><use xlink:href="#DejaVuSans-64" x="98.389"/><use xlink:href="#DejaVuSans-6c" x="161.865"/><use xlink:href="#DejaVuSans-2d" x="189.648"/><use xlink:href="#DejaVuSans-6f" x="227.607"/><use xlink:href="#DejaVuSans-72" x="288.789"/><use xlink:href="#DejaVuSans-67" x="328.152"/><use xlink:href="#DejaVuSans-2f" x="391.629"/><use xlink:href="#DejaVuSans-79" x="425.32"/><use xlink:href="#DejaVuSans-6f" x="484.5"/><use xlink:href="#DejaVuSans-75" x="545.682"/><use xlink:href="#DejaVuSans-74" x="609.061"/><use xlink:href="#DejaVuSans-75" x="648.27"/><use xlink:href="#DejaVuSans-62" x="711.648"/><use xlink:href="#DejaVuSans-65" x="775.125"/><use xlink:href="#DejaVuSans-2d" x="836.648"/><use xlink:href="#DejaVuSans-64" x="872.732"/><use xlink:href="#DejaVuSans-6c" x="936.209"/></g><g id="text_16" style="fill:#ff7f0e" transform="matrix(.14 0 0 -.14 465.907 192.234)"><defs><path id="DejaVuSans-6d" d="M3328 2828q216 388 516 572t706 184q547 0 844-383 297-382 297-1088V0h-578v2094q0 503-179 746-178 244-543 244-447 0-707-297-259-296-259-809V0h-578v2094q0 506-178 748t-550 242q-441 0-701-298-259-298-259-808V0H581v3500h578v-544q197 322 472 475t653 153q382 0 649-194 267-193 395-562z" transform="scale(.01563)"/></defs><use xlink:href="#DejaVuSans-73"/><use xlink:href="#DejaVuSans-6f" x="52.1"/><use xlink:href="#DejaVuSans-69" x="113.281"/><use xlink:href="#DejaVuSans-6d" x="141.064"/><use xlink:href="#DejaVuSans-6f" x="238.477"/><use xlink:href="#DejaVuSans-72" x="299.658"/><use xlink:href="#DejaVuSans-74" x="340.771"/><use xlink:href="#DejaVuSans-2f" x="379.98"/><use xlink:href="#DejaVuSans-79" x="413.672"/><use xlink:href="#DejaVuSans-6f" x="472.852"/><use xlink:href="#DejaVuSans-75" x="534.033"/><use xlink:href="#DejaVuSans-2d" x="597.412"/><use xlink:href="#DejaVuSans-67" x="633.496"/><use xlink:href="#DejaVuSans-65" x="696.973"/><use xlink:href="#DejaVuSans-74" x="758.496"/></g><g id="text_17" style="fill:#2ca02c" transform="matrix(.14 0 0 -.14 465.907 206.234)"><defs><path id="DejaVuSans-70" d="M1159 525v-1856H581v4831h578v-531q182 312 458 463 277 152 661 152 638 0 1036-506 399-506 399-1331T3314 415Q2916-91 2278-91q-384 0-661 152-276 152-458 464zm1957 1222q0 634-261 995t-717 361q-457 0-718-361t-261-995q0-634 261-995t718-361q456 0 717 361t261 995z" transform="scale(.01563)"/></defs><use xlink:href="#DejaVuSans-79"/><use xlink:href="#DejaVuSans-74" x="59.18"/><use xlink:href="#DejaVuSans-2d" x="98.389"/><use xlink:href="#DejaVuSans-64" x="134.473"/><use xlink:href="#DejaVuSans-6c" x="197.949"/><use xlink:href="#DejaVuSans-70" x="225.732"/><use xlink:href="#DejaVuSans-2f" x="289.209"/><use xlink:href="#DejaVuSans-79" x="322.9"/><use xlink:href="#DejaVuSans-74" x="382.08"/><use xlink:href="#DejaVuSans-2d" x="421.289"/><use xlink:href="#DejaVuSans-64" x="457.373"/><use xlink:href="#DejaVuSans-6c" x="520.85"/><use xlink:href="#DejaVuSans-70" x="548.633"/></g><g id="text_18" style="fill:#d62728" transform="matrix(.14 0 0 -.14 465.907 240.932)"><defs><path id="DejaVuSans-77" d="M269 3500h575l719-2731 715 2731h678l719-2731 716 2731h575L4050 0h-678l-753 2869L1863 0h-679L269 3500z" transform="scale(.01563)"/><path id="DejaVuSans-78" d="M3513 3500 2247 1797 3578 0h-678L1881 1375 863 0H184l1360 1831L300 3500h678l928-1247 928 1247h679z" transform="scale(.01563)"/></defs><use xlink:href="#DejaVuSans-69"/><use xlink:href="#DejaVuSans-61" x="27.783"/><use xlink:href="#DejaVuSans-77" x="89.063"/><use xlink:href="#DejaVuSans-69" x="170.85"/><use xlink:href="#DejaVuSans-61" x="198.633"/><use xlink:href="#DejaVuSans-30" x="259.912"/><use xlink:href="#DejaVuSans-30" x="323.535"/><use xlink:href="#DejaVuSans-32" x="387.158"/><use xlink:href="#DejaVuSans-2f" x="450.781"/><use xlink:href="#DejaVuSans-6c" x="484.473"/><use xlink:href="#DejaVuSans-75" x="512.256"/><use xlink:href="#DejaVuSans-78" x="575.635"/></g><g id="text_19" style="fill:#9467bd" transform="matrix(.14 0 0 -.14 465.907 254.932)"><defs><path id="DejaVuSans-63" d="M3122 3366v-538q-244 135-489 202t-495 67q-560 0-870-355-309-354-309-995t309-996q310-354 870-354 250 0 495 67t489 202V134Q2881 22 2623-34q-257-57-548-57-791 0-1257 497-465 497-465 1341 0 856 470 1346 471 491 1290 491 265 0 518-55 253-54 491-163z" transform="scale(.01563)"/></defs><use xlink:href="#DejaVuSans-63"/><use xlink:href="#DejaVuSans-6f" x="54.98"/><use xlink:href="#DejaVuSans-75" x="116.162"/><use xlink:href="#DejaVuSans-72" x="179.541"/><use xlink:href="#DejaVuSans-73" x="220.654"/><use xlink:href="#DejaVuSans-65" x="272.754"/><use xlink:href="#DejaVuSans-72" x="334.277"/><use xlink:href="#DejaVuSans-61" x="375.391"/><use xlink:href="#DejaVuSans-2d" x="436.67"/><use xlink:href="#DejaVuSans-64" x="472.754"/><use xlink:href="#DejaVuSans-6c" x="536.23"/><use xlink:href="#DejaVuSans-2f" x="564.014"/><use xlink:href="#DejaVuSans-63" x="597.705"/><use xlink:href="#DejaVuSans-6f" x="652.686"/><use xlink:href="#DejaVuSans-75" x="713.867"/><use xlink:href="#DejaVuSans-72" x="777.246"/><use xlink:href="#DejaVuSans-73" x="818.359"/><use xlink:href="#DejaVuSans-65" x="870.459"/><use xlink:href="#DejaVuSans-72" x="931.982"/><use xlink:href="#DejaVuSans-61" x="973.096"/><use xlink:href="#DejaVuSans-2d" x="1034.375"/><use xlink:href="#DejaVuSans-64" x="1070.459"/><use xlink:href="#DejaVuSans-6c" x="1133.936"/></g><g id="text_20" style="fill:#8c564b" transform="matrix(.14 0 0 -.14 465.907 268.932)"><defs><path id="DejaVuSans-4d" d="M628 4666h941l1190-3175 1197 3175h941V0h-616v4097L3078 897h-634L1241 4097V0H628v4666z" transform="scale(.01563)"/><path id="DejaVuSans-53" d="M3425 4513v-616q-359 172-678 256-319 85-616 85-515 0-795-200t-280-569q0-310 186-468 186-157 705-254l381-78q706-135 1042-474t336-907q0-679-455-1029Q2797-91 1919-91q-331 0-705 75-373 75-773 222v650q384-215 753-325 369-109 725-109 540 0 834 212 294 213 294 607 0 343-211 537t-692 291l-385 75q-706 140-1022 440-315 300-315 835 0 619 436 975t1201 356q329 0 669-60 341-59 697-177z" transform="scale(.01563)"/><path id="DejaVuSans-33" d="M2597 2516q453-97 707-404 255-306 255-756 0-690-475-1069Q2609-91 1734-91q-293 0-604 58T488 141v609q262-153 574-231 313-78 654-78 593 0 904 234t311 681q0 413-289 645-289 233-804 233h-544v519h569q465 0 712 186t247 536q0 359-255 551-254 193-729 193-260 0-557-57-297-56-653-174v562q360 100 674 150t592 50q719 0 1137-327 419-326 419-882 0-388-222-655t-631-370z" transform="scale(.01563)"/><path id="DejaVuSans-6e" d="M3513 2113V0h-575v2094q0 497-194 743-194 247-581 247-466 0-735-297-269-296-269-809V0H581v3500h578v-544q207 316 486 472 280 156 646 156 603 0 912-373 310-373 310-1098z" transform="scale(.01563)"/></defs><use xlink:href="#DejaVuSans-4d"/><use xlink:href="#DejaVuSans-72" x="86.279"/><use xlink:href="#DejaVuSans-53" x="127.393"/><use xlink:href="#DejaVuSans-30" x="190.869"/><use xlink:href="#DejaVuSans-6d" x="254.492"/><use xlink:href="#DejaVuSans-33" x="351.904"/><use xlink:href="#DejaVuSans-30" x="415.527"/><use xlink:href="#DejaVuSans-6e" x="479.15"/><use xlink:href="#DejaVuSans-33" x="542.529"/><use xlink:href="#DejaVuSans-2f" x="606.152"/><use xlink:href="#DejaVuSans-79" x="639.844"/><use xlink:href="#DejaVuSans-6f" x="699.023"/><use xlink:href="#DejaVuSans-75" x="760.205"/><use xlink:href="#DejaVuSans-74" x="823.584"/><use xlink:href="#DejaVuSans-75" x="862.793"/><use xlink:href="#DejaVuSans-62" x="926.172"/><use xlink:href="#DejaVuSans-65" x="989.648"/><use xlink:href="#DejaVuSans-2d" x="1051.172"/><use xlink:href="#DejaVuSans-64" x="1087.256"/><use xlink:href="#DejaVuSans-6c" x="1150.732"/><use xlink:href="#DejaVuSans-2d" x="1178.516"/><use xlink:href="#DejaVuSans-67" x="1214.6"/><use xlink:href="#DejaVuSans-75" x="1278.076"/><use xlink:href="#DejaVuSans-69" x="1341.455"/></g><g id="text_21" style="fill:#e377c2" transform="matrix(.14 0 0 -.14 465.907 282.932)"><use xlink:href="#DejaVuSans-70"/><use xlink:href="#DejaVuSans-79" x="63.477"/><use xlink:href="#DejaVuSans-74" x="122.656"/><use xlink:href="#DejaVuSans-75" x="161.865"/><use xlink:href="#DejaVuSans-62" x="225.244"/><use xlink:href="#DejaVuSans-65" x="288.721"/><use xlink:href="#DejaVuSans-2f" x="350.244"/><use xlink:href="#DejaVuSans-70" x="383.936"/><use xlink:href="#DejaVuSans-79" x="447.412"/><use xlink:href="#DejaVuSans-74" x="506.592"/><use xlink:href="#DejaVuSans-75" x="545.801"/><use xlink:href="#DejaVuSans-62" x="609.18"/><use xlink:href="#DejaVuSans-65" x="672.656"/></g><g id="text_22" style="fill:#7f7f7f" transform="matrix(.14 0 0 -.14 465.907 296.932)"><defs><path id="DejaVuSans-6a" d="M603 3500h575V-63q0-668-255-968-254-300-820-300h-219v487H38q328 0 446 152Q603-541 603-63v3563zm0 1363h575v-729H603v729z" transform="scale(.01563)"/></defs><use xlink:href="#DejaVuSans-6a"/><use xlink:href="#DejaVuSans-65" x="27.783"/><use xlink:href="#DejaVuSans-6c" x="89.307"/><use xlink:href="#DejaVuSans-79" x="117.09"/><use xlink:href="#DejaVuSans-32" x="176.27"/><use xlink:href="#DejaVuSans-30" x="239.893"/><use xlink:href="#DejaVuSans-30" x="303.516"/><use xlink:href="#DejaVuSans-32" x="367.139"/><use xlink:href="#DejaVuSans-2f" x="430.762"/><use xlink:href="#DejaVuSans-79" x="464.453"/><use xlink:href="#DejaVuSans-6f" x="523.633"/><use xlink:href="#DejaVuSans-75" x="584.814"/><use xlink:href="#DejaVuSans-74" x="648.193"/><use xlink:href="#DejaVuSans-75" x="687.402"/><use xlink:href="#DejaVuSans-62" x="750.781"/><use xlink:href="#DejaVuSans-65" x="814.258"/><use xlink:href="#DejaVuSans-2d" x="875.781"/><use xlink:href="#DejaVuSans-64" x="911.865"/><use xlink:href="#DejaVuSans-6c" x="975.342"/><use xlink:href="#DejaVuSans-2d" x="1003.125"/><use xlink:href="#DejaVuSans-67" x="1039.209"/><use xlink:href="#DejaVuSans-75" x="1102.686"/><use xlink:href="#DejaVuSans-69" x="1166.064"/></g><g id="text_23" style="fill:#bcbd22" transform="matrix(.14 0 0 -.14 465.907 310.932)"><defs><path id="DejaVuSans-68" d="M3513 2113V0h-575v2094q0 497-194 743-194 247-581 247-466 0-735-297-269-296-269-809V0H581v4863h578V2956q207 316 486 472 280 156 646 156 603 0 912-373 310-373 310-1098z" transform="scale(.01563)"/><path id="DejaVuSans-37" d="M525 4666h3000v-269L1831 0h-659l1594 4134H525v532z" transform="scale(.01563)"/></defs><use xlink:href="#DejaVuSans-73"/><use xlink:href="#DejaVuSans-75" x="52.1"/><use xlink:href="#DejaVuSans-62" x="115.479"/><use xlink:href="#DejaVuSans-68" x="178.955"/><use xlink:href="#DejaVuSans-72" x="242.334"/><use xlink:href="#DejaVuSans-61" x="283.447"/><use xlink:href="#DejaVuSans-37" x="344.727"/><use xlink:href="#DejaVuSans-34" x="408.35"/><use xlink:href="#DejaVuSans-2f" x="471.973"/><use xlink:href="#DejaVuSans-78" x="505.664"/><use xlink:href="#DejaVuSans-64" x="564.844"/><use xlink:href="#DejaVuSans-6d" x="628.32"/></g><g id="text_24" style="fill:#17becf" transform="matrix(.14 0 0 -.14 465.907 324.932)"><defs><path id="DejaVuSans-54" d="M-19 4666h3947v-532H2272V0h-634v4134H-19v532z" transform="scale(.01563)"/><path id="DejaVuSans-7a" d="M353 3500h2731v-525L922 459h2162V0H275v525l2163 2516H353v459z" transform="scale(.01563)"/><path id="DejaVuSans-59" d="M-13 4666h679l1293-1919 1285 1919h678L2272 2222V0h-634v2222L-13 4666z" transform="scale(.01563)"/><path id="DejaVuSans-44" d="M1259 4147V519h763q966 0 1414 437 448 438 448 1382 0 937-448 1373t-1414 436h-763zm-631 519h1297q1356 0 1990-564 635-564 635-1764 0-1207-638-1773Q3275 0 1925 0H628v4666z" transform="scale(.01563)"/></defs><use xlink:href="#DejaVuSans-54"/><use xlink:href="#DejaVuSans-79" x="45.459"/><use xlink:href="#DejaVuSans-72" x="104.639"/><use xlink:href="#DejaVuSans-72" x="144.002"/><use xlink:href="#DejaVuSans-72" x="183.365"/><use xlink:href="#DejaVuSans-7a" x="224.479"/><use xlink:href="#DejaVuSans-2f" x="276.969"/><use xlink:href="#DejaVuSans-59" x="310.66"/><use xlink:href="#DejaVuSans-6f" x="358.494"/><use xlink:href="#DejaVuSans-75" x="419.676"/><use xlink:href="#DejaVuSans-74" x="483.055"/><use xlink:href="#DejaVuSans-75" x="522.264"/><use xlink:href="#DejaVuSans-62" x="585.643"/><use xlink:href="#DejaVuSans-65" x="649.119"/><use xlink:href="#DejaVuSans-44" x="710.643"/><use xlink:href="#DejaVuSans-6f" x="787.645"/><use xlink:href="#DejaVuSans-77" x="848.826"/><use xlink:href="#DejaVuSans-6e" x="930.613"/><use xlink:href="#DejaVuSans-6c" x="993.992"/><use xlink:href="#DejaVuSans-6f" x="1021.775"/><use xlink:href="#DejaVuSans-61" x="1082.957"/><use xlink:href="#DejaVuSans-64" x="1144.236"/><use xlink:href="#DejaVuSans-65" x="1207.713"/><use xlink:href="#DejaVuSans-72" x="1269.236"/></g><g id="text_25" style="fill:#b0b0b0" transform="matrix(.09716 0 0 -.09716 98.073 332.885)"><defs><path id="DejaVuSans-40" d="M2381 1678q0-447 222-702 222-254 610-254 384 0 604 256 221 256 221 700 0 438-225 695-225 258-607 258-378 0-602-256-223-256-223-697zm1703-934q-187-241-429-355t-564-114q-538 0-874 389t-336 1014q0 625 337 1015 338 391 873 391 322 0 565-117 244-117 428-354v409h447V722q457 69 714 417 258 349 258 902 0 334-99 628-98 294-298 544-325 409-792 626t-1017 217q-384 0-738-102-353-101-653-301-490-319-767-836-276-517-276-1120 0-497 179-932 180-434 521-765 328-325 759-495 431-171 922-171 403 0 792 136t714 389l281-347q-390-303-851-464t-936-161q-578 0-1091 205-512 205-912 595Q841 78 631 592q-209 514-209 1105 0 569 212 1084 213 516 607 907 403 396 931 607t1119 211q662 0 1229-272 568-271 952-771 234-307 357-666 124-359 124-744 0-822-497-1297T4084 263v481z" transform="scale(.01563)"/><path id="DejaVuSans-7c" d="M1344 4891v-6400H813v6400h531z" transform="scale(.01563)"/><path id="DejaVuSans-4e" d="M628 4666h850L3547 763v3903h612V0h-850L1241 3903V0H628v4666z" transform="scale(.01563)"/><path id="DejaVuSans-f6" d="M1959 3097q-462 0-731-361t-269-989q0-628 267-989 268-361 733-361 460 0 728 362 269 363 269 988 0 622-269 986-268 364-728 364zm0 487q750 0 1178-488 429-487 429-1349 0-859-429-1349Q2709-91 1959-91q-753 0-1180 489-426 490-426 1349 0 862 426 1349 427 488 1180 488zm295 1266h634v-631h-634v631zm-1222 0h634v-631h-634v631z" transform="scale(.01563)"/><path id="DejaVuSans-43" d="M4122 4306v-665q-319 297-680 443-361 147-767 147-800 0-1225-489t-425-1414q0-922 425-1411t1225-489q406 0 767 147t680 444V359q-331-225-702-338-370-112-782-112-1060 0-1670 648-609 649-609 1771 0 1125 609 1773 610 649 1670 649 418 0 788-111 371-111 696-333z" transform="scale(.01563)"/><path id="DejaVuSans-42" d="M1259 2228V519h1013q509 0 754 211 246 211 246 645 0 438-246 645-245 208-754 208H1259zm0 1919V2741h935q462 0 688 173 227 174 227 530 0 353-227 528-226 175-688 175h-935zm-631 519h1613q722 0 1112-300 391-300 391-853 0-429-200-682t-588-315q466-100 724-418 258-317 258-792 0-625-425-966Q3088 0 2303 0H628v4666z" transform="scale(.01563)"/></defs><use xlink:href="#DejaVuSans-40"/><use xlink:href="#DejaVuSans-6e" x="100"/><use xlink:href="#DejaVuSans-73" x="163.379"/><use xlink:href="#DejaVuSans-63" x="215.479"/><use xlink:href="#DejaVuSans-68" x="270.459"/><use xlink:href="#DejaVuSans-6c" x="333.838"/><use xlink:href="#DejaVuSans-6f" x="361.621"/><use xlink:href="#DejaVuSans-65" x="422.803"/><use xlink:href="#DejaVuSans-20" x="484.326"/><use xlink:href="#DejaVuSans-2f" x="516.113"/><use xlink:href="#DejaVuSans-20" x="549.805"/><use xlink:href="#DejaVuSans-67" x="581.592"/><use xlink:href="#DejaVuSans-69" x="645.068"/><use xlink:href="#DejaVuSans-74" x="672.852"/><use xlink:href="#DejaVuSans-68" x="712.061"/><use xlink:href="#DejaVuSans-75" x="775.439"/><use xlink:href="#DejaVuSans-62" x="838.818"/><use xlink:href="#DejaVuSans-2d" x="902.295"/><use xlink:href="#DejaVuSans-74" x="938.379"/><use xlink:href="#DejaVuSans-72" x="977.588"/><use xlink:href="#DejaVuSans-65" x="1016.451"/><use xlink:href="#DejaVuSans-6e" x="1077.975"/><use xlink:href="#DejaVuSans-64" x="1141.354"/><use xlink:href="#DejaVuSans-73" x="1204.83"/><use xlink:href="#DejaVuSans-20" x="1256.93"/><use xlink:href="#DejaVuSans-7c" x="1288.717"/><use xlink:href="#DejaVuSans-20" x="1322.408"/><use xlink:href="#DejaVuSans-4e" x="1354.195"/><use xlink:href="#DejaVuSans-69" x="1429"/><use xlink:href="#DejaVuSans-63" x="1456.783"/><use xlink:href="#DejaVuSans-6f" x="1511.764"/><use xlink:href="#DejaVuSans-20" x="1572.945"/><use xlink:href="#DejaVuSans-53" x="1604.732"/><use xlink:href="#DejaVuSans-63" x="1668.209"/><use xlink:href="#DejaVuSans-68" x="1723.189"/><use xlink:href="#DejaVuSans-6c" x="1786.568"/><use xlink:href="#DejaVuSans-f6" x="1814.352"/><use xlink:href="#DejaVuSans-6d" x="1875.533"/><use xlink:href="#DejaVuSans-65" x="1972.945"/><use xlink:href="#DejaVuSans-72" x="2034.469"/><use xlink:href="#DejaVuSans-20" x="2075.582"/><use xlink:href="#DejaVuSans-7c" x="2107.369"/><use xlink:href="#DejaVuSans-20" x="2141.061"/><use xlink:href="#DejaVuSans-43" x="2172.848"/><use xlink:href="#DejaVuSans-43" x="2242.672"/><use xlink:href="#DejaVuSans-20" x="2312.496"/><use xlink:href="#DejaVuSans-42" x="2344.283"/><use xlink:href="#DejaVuSans-59" x="2407.387"/></g><path id="line2d_24" d="m138.254 298.849 7.15-.054 68.626-.103 35.518-.275 47.253-1.08 11.736-.548 7.15-.458 11.891-.666 47.253-3.553 7.15-.556 4.741-.44 9.404-1.074 4.741-.41 4.741-.49 11.891-1.104 2.41-.729 2.176-1.246 2.409-.397 2.332-1.656 2.409-1.029 21.217-2.06 4.741-.928h0" clip-path="url(#p329d61a826)" style="fill:none;stroke:#e377c2;stroke-width:1.5;stroke-linecap:square"/><path id="line2d_25" d="m194.989 298.849 2.41-.035 2.33-.013 2.41-.01 2.332-.003 2.41-.006 2.408-.007 2.332-.006 2.41-.01 2.33-.011 2.41-.011 2.41-.017 2.176-.013 2.409-.02 2.331-.023 2.41-.022 2.331-.08 2.41-.036 2.409-.038 2.331-.018 2.41-.03 2.331-.028 2.41-.025 2.409-.054 2.254-.034 2.41-.037 2.33-.451 2.41-.067 2.332-.047 2.409-.056 2.41-.064 2.33-.073 2.41-.065 2.332-.06 2.409-.051 2.41-.078 2.175-.083 2.41-.07 2.331-.184 2.41-.094 2.331-.11 2.41-.146 2.409-.193 2.331-.161 2.41-.164 2.331-.16 2.41-.162 2.409-.152 2.176-.146 2.41-.226 2.33-.2 2.41-.208 2.332-.21 2.409-.213 2.41-.17 2.33-.245 2.41-.2 2.332-.19 2.409-.183 2.41-.224 2.175-.225 2.41-.22 2.331-.212 2.41-.245 2.331-.21 2.41-.314 2.409-.165 2.331-.207 2.41-.195 2.331-.174 2.41-.217 2.409-.217 2.254-.22 2.409-.248 2.332-.307 2.409-.33 2.331-.242 2.41-.249 2.409-.2 2.332-.221 2.409-1.903 2.331-1.139 2.41-.335 2.41-.403 2.175-.241 2.41-.236 2.331-.2 2.41-.215 2.33-.193 2.41-.209 2.41-.244 2.331-.237 2.41-.247 2.331-.758 2.41-.228 2.409-.21 2.176-.17 2.409-.251 2.332-.138 2.409-.189 2.331-.172 2.41-.128 2.41-.172 2.33-.136 2.41-.159 2.332-.171 2.409-.125 2.41-.137 2.175-.149 2.41-.107 2.331-.161" clip-path="url(#p329d61a826)" style="fill:none;stroke:#8c564b;stroke-width:1.5;stroke-linecap:square"/><path id="line2d_26" d="m138.254 298.849 2.41-.733 25.958-.178 21.372-1.491 11.736-.57 37.927-1.76 7.072-.531 2.41-.344 9.404-.509 2.409-.097 2.332-2.206 4.818-.371 11.891-.726 6.917-.61 9.56-.89 16.476-1.591 35.44-2.462 21.373-1.106 4.74-.372 11.892-.717 18.808-.745 35.518-1.315 16.476-.417h0" clip-path="url(#p329d61a826)" style="fill:none;stroke:#9467bd;stroke-width:1.5;stroke-linecap:square"/><path id="line2d_27" d="m308.537 298.849 2.41-4.571 2.33-.763 2.41-.4 2.332-.257 2.409-1.373 2.41-.427 2.33-.378 2.41-.357 2.332-.46 2.409-.597 2.41-.505 2.175-.442 2.41-.44 2.331-.78 2.41-.857 2.331-.902 2.41-.552 2.409-1.248 2.331-1.044 2.41-.673 2.331-.504 2.41-.645 2.409-.707 2.254-.685 2.409-.876 2.332-.733 2.409-.599 2.331-.535 2.41-.878 2.409-1.972 2.332-.801 2.409-1.077 2.331-1.142 2.41-.668 2.41-.647 2.175-.442 2.41-.537 2.331-.473 2.41-.458 2.33-.367 2.41-.423 2.41-.632 2.331-.796 2.41-.52 2.331-.595 2.41-.7 2.409-.808 2.176-.64 2.409-.68 2.332-.667 2.409-.743 2.331-.44 2.41-.94 2.41-.88 2.33-.574 2.41-.601 2.332-.803 2.409-.45 2.41-.438 2.175-.491 2.41-.572 2.331-.782" clip-path="url(#p329d61a826)" style="fill:none;stroke:#d62728;stroke-width:1.5;stroke-linecap:square"/><path id="line2d_28" d="m386.722 298.849 2.41-.003 2.41-.124 2.175-.344 2.41-.348 2.331-.318 2.41-.305 2.33-.423 2.41-.63 2.41-8.982 2.331-3.027 2.41-5.488 2.331-5.39 2.41-7.058 2.409-6.996 2.176-4.524 2.409-4.442 2.332-4.872 2.409-4.218 2.331-3.411 2.41-3.562 2.41-4.107 2.33-4.1 2.41-3.38 2.332-3.015 2.409-3.078 2.41-3.59 2.175-6.17 2.41-6.15 2.331-4.846" clip-path="url(#p329d61a826)" style="fill:none;stroke:#2ca02c;stroke-width:1.5;stroke-linecap:square"/><path id="line2d_29" d="m150.145 298.849 4.74-.097 16.477-.086 4.741-.138 26.036-.545 2.332-.264 7.15-.331 14.145-.773 7.072-.303 7.15-.677 4.741-.283 2.41-.308 7.072-1.179 2.332-5.928 2.409-1.588 2.332-.84 7.15-1.647 2.409-2.61 4.74-1.465 2.41-.707 2.176-1.194 2.41-2.646 4.74-2.288 2.332-.722 2.41-1.007 2.409-.806 11.89-5.81 6.918-2.855 2.41-1.222 4.74-1.37 4.74-1.8 2.41-.64 4.741-1.747 2.41-.937 2.175-.689 2.41-1.287 2.331-2.354 7.15-4.721 4.741-2.417 2.41-1.17 2.331-1.31 2.41-2.615 2.409-1.538 4.663-3.336 2.332-1.564 2.409-1.853 2.331-1.64 7.15-2.701 2.41-2.49 2.331-3.076 2.41-1.501 4.585-2.168 2.41-.908 2.331-1.3 11.891-4.195 2.41-.63 2.331-.878 16.476-5.228 2.41-1.837 14.3-3.926 2.176-.52 4.741-1.39h0" clip-path="url(#p329d61a826)" style="fill:none;stroke:#ff7f0e;stroke-width:1.5;stroke-linecap:square"/><path id="line2d_30" d="m98.073 298.849 2.41-1.306 23.626-.669 21.295-.397 21.218-.283 7.15-.638 7.15-1.031 2.331-.63 11.736-2.038 2.41-.484 2.33-.623 4.742-.827 2.41-.601 4.74-.88 2.41-.544 2.33-2.9 2.41-1.115 2.41-.685 14.067-5.089 9.481-4.414 9.482-4.693 2.332-4.406 2.409-1.47 4.74-2.502 4.742-2.5 9.56-5.754 6.916-4.82 2.41-1.597 2.331-1.342 4.819-3.47 14.067-11.719 2.41-2.332 7.072-5.978 2.409-4.193 2.41-1.949 4.74-4.762 4.741-4.332 2.41-2.896 4.585-4.24 4.74-5.082 2.332-2.21 2.41-3.326 4.74-5.282 7.15-7.722 4.664-5.795 2.409-2.868 2.332-4.077 2.409-3.084 4.74-5.544 2.41-2.4 2.332-2.577 2.409-1.775 2.331-23.319 4.82-13.352 2.175-3.363 2.41-3.227 2.331-4.515 2.41-3.046 2.33-3.669 2.41-3.063 2.41-3.263 4.74-5.582 2.332-2.486 2.41-3.546 2.409-3.946 4.585-6.362 2.332-3.287 2.409-2.607 4.74-4.417 2.41-2.33 2.332-2.46 2.409-1.862 7.15-6.582 2.176-3.016 2.41-2.633 2.331-2.328h0" clip-path="url(#p329d61a826)" style="fill:none;stroke:#1f77b4;stroke-width:1.5;stroke-linecap:square"/></g></g><defs><clipPath id="p329d61a826"><path d="M98.073 32.737h357.12v266.112H98.073z"/></clipPath></defs></svg>