<svg xmlns:xlink="http://www.w3.org/1999/xlink" width="904.013" height="431.485" viewBox="0 0 678.01 323.614" xmlns="http://www.w3.org/2000/svg"><defs><style>*{stroke-linejoin:round;stroke-linecap:butt}</style></defs><g id="figure_1"><path d="M0 323.614h678.01V0H0v323.614z" style="fill:none" id="patch_1"/><g id="axes_1"><path d="M98.073 280.087h357.12V13.975H98.073v266.112z" style="fill:none" id="patch_2"/><g id="matplotlib.axis_1"><g id="xtick_1"><g id="line2d_1"><defs><path id="m76ca7448c7" d="M0 0v3.5" style="stroke:#b0b0b0;stroke-width:.4"/></defs><use xlink:href="#m76ca7448c7" x="143.847" y="280.087" style="fill:#b0b0b0;stroke:#b0b0b0;stroke-width:.4"/></g><g style="fill:#b0b0b0" transform="matrix(.14 0 0 -.14 126.032 297.724)" id="text_1"><defs><path id="DejaVuSans-32" d="M1228 531h2203V0H469v531q359 372 979 998 621 627 780 809 303 340 423 576 121 236 121 464 0 372-261 606-261 235-680 235-297 0-627-103-329-103-704-313v638q381 153 712 231 332 78 607 78 725 0 1156-363 431-362 431-968 0-288-108-546-107-257-392-607-78-91-497-524-418-433-1181-1211z" transform="scale(.01563)"/><path id="DejaVuSans-30" d="M2034 4250q-487 0-733-480-245-479-245-1442 0-959 245-1439 246-480 733-480 491 0 736 480 246 480 246 1439 0 963-246 1442-245 480-736 480zm0 500q785 0 1199-621 414-620 414-1801 0-1178-414-1799Q2819-91 2034-91q-784 0-1198 620-414 621-414 1799 0 1181 414 1801 414 621 1198 621z" transform="scale(.01563)"/><path id="DejaVuSans-31" d="M794 531h1031v3560L703 3866v575l1116 225h631V531h1031V0H794v531z" transform="scale(.01563)"/></defs><use xlink:href="#DejaVuSans-32"/><use xlink:href="#DejaVuSans-30" x="63.623"/><use xlink:href="#DejaVuSans-31" x="127.246"/><use xlink:href="#DejaVuSans-30" x="190.869"/></g></g><g id="xtick_2"><use xlink:href="#m76ca7448c7" x="193.646" y="280.087" style="fill:#b0b0b0;stroke:#b0b0b0;stroke-width:.4" id="line2d_2"/><g style="fill:#b0b0b0" transform="matrix(.14 0 0 -.14 175.831 297.724)" id="text_2"><use xlink:href="#DejaVuSans-32"/><use xlink:href="#DejaVuSans-30" x="63.623"/><use xlink:href="#DejaVuSans-31" x="127.246"/><use xlink:href="#DejaVuSans-32" x="190.869"/></g></g><g id="xtick_3"><use xlink:href="#m76ca7448c7" x="243.513" y="280.087" style="fill:#b0b0b0;stroke:#b0b0b0;stroke-width:.4" id="line2d_3"/><g style="fill:#b0b0b0" transform="matrix(.14 0 0 -.14 225.698 297.724)" id="text_3"><defs><path id="DejaVuSans-34" d="M2419 4116 825 1625h1594v2491zm-166 550h794V1625h666v-525h-666V0h-628v1100H313v609l1940 2957z" transform="scale(.01563)"/></defs><use xlink:href="#DejaVuSans-32"/><use xlink:href="#DejaVuSans-30" x="63.623"/><use xlink:href="#DejaVuSans-31" x="127.246"/><use xlink:href="#DejaVuSans-34" x="190.869"/></g></g><g id="xtick_4"><use xlink:href="#m76ca7448c7" x="293.312" y="280.087" style="fill:#b0b0b0;stroke:#b0b0b0;stroke-width:.4" id="line2d_4"/><g style="fill:#b0b0b0" transform="matrix(.14 0 0 -.14 275.497 297.724)" id="text_4"><defs><path id="DejaVuSans-36" d="M2113 2584q-425 0-674-291-248-290-248-796 0-503 248-796 249-292 674-292t673 292q248 293 248 796 0 506-248 796-248 291-673 291zm1253 1979v-575q-238 112-480 171-242 60-480 60-625 0-955-422-329-422-376-1275 184 272 462 417 279 145 613 145 703 0 1111-427 408-426 408-1160 0-719-425-1154Q2819-91 2113-91q-810 0-1238 620-428 621-428 1799 0 1106 525 1764t1409 658q238 0 480-47t505-140z" transform="scale(.01563)"/></defs><use xlink:href="#DejaVuSans-32"/><use xlink:href="#DejaVuSans-30" x="63.623"/><use xlink:href="#DejaVuSans-31" x="127.246"/><use xlink:href="#DejaVuSans-36" x="190.869"/></g></g><g id="xtick_5"><use xlink:href="#m76ca7448c7" x="343.18" y="280.087" style="fill:#b0b0b0;stroke:#b0b0b0;stroke-width:.4" id="line2d_5"/><g style="fill:#b0b0b0" transform="matrix(.14 0 0 -.14 325.365 297.724)" id="text_5"><defs><path id="DejaVuSans-38" d="M2034 2216q-450 0-708-241-257-241-257-662 0-422 257-663 258-241 708-241t709 242q260 243 260 662 0 421-258 662-257 241-711 241zm-631 268q-406 100-633 378-226 279-226 679 0 559 398 884 399 325 1092 325 697 0 1094-325t397-884q0-400-227-679-226-278-629-378 456-106 710-416 255-309 255-755 0-679-414-1042Q2806-91 2034-91q-771 0-1186 362-414 363-414 1042 0 446 256 755 257 310 713 416zm-231 997q0-362 226-565 227-203 636-203 407 0 636 203 230 203 230 565 0 363-230 566-229 203-636 203-409 0-636-203-226-203-226-566z" transform="scale(.01563)"/></defs><use xlink:href="#DejaVuSans-32"/><use xlink:href="#DejaVuSans-30" x="63.623"/><use xlink:href="#DejaVuSans-31" x="127.246"/><use xlink:href="#DejaVuSans-38" x="190.869"/></g></g><g id="xtick_6"><use xlink:href="#m76ca7448c7" x="392.979" y="280.087" style="fill:#b0b0b0;stroke:#b0b0b0;stroke-width:.4" id="line2d_6"/><g style="fill:#b0b0b0" transform="matrix(.14 0 0 -.14 375.164 297.724)" id="text_6"><use xlink:href="#DejaVuSans-32"/><use xlink:href="#DejaVuSans-30" x="63.623"/><use xlink:href="#DejaVuSans-32" x="127.246"/><use xlink:href="#DejaVuSans-30" x="190.869"/></g></g><g id="xtick_7"><use xlink:href="#m76ca7448c7" x="442.846" y="280.087" style="fill:#b0b0b0;stroke:#b0b0b0;stroke-width:.4" id="line2d_7"/><g style="fill:#b0b0b0" transform="matrix(.14 0 0 -.14 425.03 297.724)" id="text_7"><use xlink:href="#DejaVuSans-32"/><use xlink:href="#DejaVuSans-30" x="63.623"/><use xlink:href="#DejaVuSans-32" x="127.246"/><use xlink:href="#DejaVuSans-32" x="190.869"/></g></g></g><g id="matplotlib.axis_2"><g id="ytick_1"><path d="M98.073 280.087h357.12" clip-path="url(#p6ebe61b60b)" style="fill:none;stroke:#b0b0b0;stroke-width:.3;stroke-linecap:square" id="line2d_8"/><g id="line2d_9"><defs><path id="m97094072b3" d="M0 0h-3.5" style="stroke:#b0b0b0;stroke-width:.3"/></defs><use xlink:href="#m97094072b3" x="98.073" y="280.087" style="fill:#b0b0b0;stroke:#b0b0b0;stroke-width:.3"/></g><use xlink:href="#DejaVuSans-30" style="fill:#b0b0b0" transform="matrix(.14 0 0 -.14 82.166 285.406)" id="text_8"/></g><g id="ytick_2"><path d="M98.073 225.73h357.12" clip-path="url(#p6ebe61b60b)" style="fill:none;stroke:#b0b0b0;stroke-width:.3;stroke-linecap:square" id="line2d_10"/><use xlink:href="#m97094072b3" x="98.073" y="225.729" style="fill:#b0b0b0;stroke:#b0b0b0;stroke-width:.3" id="line2d_11"/><g style="fill:#b0b0b0" transform="matrix(.14 0 0 -.14 55.443 231.048)" id="text_9"><defs><path id="DejaVuSans-35" d="M691 4666h2478v-532H1269V2991q137 47 274 70 138 23 276 23 781 0 1237-428 457-428 457-1159 0-753-469-1171Q2575-91 1722-91q-294 0-599 50Q819 9 494 109v635q281-153 581-228t634-75q541 0 856 284 316 284 316 772 0 487-316 771-315 285-856 285-253 0-505-56-251-56-513-175v2344z" transform="scale(.01563)"/></defs><use xlink:href="#DejaVuSans-35"/><use xlink:href="#DejaVuSans-30" x="63.623"/><use xlink:href="#DejaVuSans-30" x="127.246"/><use xlink:href="#DejaVuSans-30" x="190.869"/></g></g><g id="ytick_3"><path d="M98.073 171.372h357.12" clip-path="url(#p6ebe61b60b)" style="fill:none;stroke:#b0b0b0;stroke-width:.3;stroke-linecap:square" id="line2d_12"/><use xlink:href="#m97094072b3" x="98.073" y="171.372" style="fill:#b0b0b0;stroke:#b0b0b0;stroke-width:.3" id="line2d_13"/><g style="fill:#b0b0b0" transform="matrix(.14 0 0 -.14 46.536 176.69)" id="text_10"><use xlink:href="#DejaVuSans-31"/><use xlink:href="#DejaVuSans-30" x="63.623"/><use xlink:href="#DejaVuSans-30" x="127.246"/><use xlink:href="#DejaVuSans-30" x="190.869"/><use xlink:href="#DejaVuSans-30" x="254.492"/></g></g><g id="ytick_4"><path d="M98.073 117.015h357.12" clip-path="url(#p6ebe61b60b)" style="fill:none;stroke:#b0b0b0;stroke-width:.3;stroke-linecap:square" id="line2d_14"/><use xlink:href="#m97094072b3" x="98.073" y="117.015" style="fill:#b0b0b0;stroke:#b0b0b0;stroke-width:.3" id="line2d_15"/><g style="fill:#b0b0b0" transform="matrix(.14 0 0 -.14 46.536 122.333)" id="text_11"><use xlink:href="#DejaVuSans-31"/><use xlink:href="#DejaVuSans-35" x="63.623"/><use xlink:href="#DejaVuSans-30" x="127.246"/><use xlink:href="#DejaVuSans-30" x="190.869"/><use xlink:href="#DejaVuSans-30" x="254.492"/></g></g><g id="ytick_5"><path d="M98.073 62.657h357.12" clip-path="url(#p6ebe61b60b)" style="fill:none;stroke:#b0b0b0;stroke-width:.3;stroke-linecap:square" id="line2d_16"/><use xlink:href="#m97094072b3" x="98.073" y="62.657" style="fill:#b0b0b0;stroke:#b0b0b0;stroke-width:.3" id="line2d_17"/><g style="fill:#b0b0b0" transform="matrix(.14 0 0 -.14 46.536 67.976)" id="text_12"><use xlink:href="#DejaVuSans-32"/><use xlink:href="#DejaVuSans-30" x="63.623"/><use xlink:href="#DejaVuSans-30" x="127.246"/><use xlink:href="#DejaVuSans-30" x="190.869"/><use xlink:href="#DejaVuSans-30" x="254.492"/></g></g><g style="fill:#b0b0b0" transform="matrix(.14 0 0 -.14 7.2 33.134)" id="text_13"><defs><path id="DejaVuSans-47" d="M3809 666v1253H2778v519h1656V434q-365-259-806-392-440-133-940-133-1094 0-1712 639-617 640-617 1780 0 1144 617 1783 618 639 1712 639 456 0 867-113 411-112 758-331v-672q-350 297-744 447t-828 150q-857 0-1287-478-429-478-429-1425 0-944 429-1422 430-478 1287-478 334 0 596 58 263 58 472 180z" transform="scale(.01563)"/><path id="DejaVuSans-69" d="M603 3500h575V0H603v3500zm0 1363h575v-729H603v729z" transform="scale(.01563)"/><path id="DejaVuSans-74" d="M1172 4494v-994h1184v-447H1172V1153q0-428 117-550t477-122h590V0h-590q-666 0-919 248-253 249-253 905v1900H172v447h422v994h578z" transform="scale(.01563)"/><path id="DejaVuSans-48" d="M628 4666h631V2753h2294v1913h631V0h-631v2222H1259V0H628v4666z" transform="scale(.01563)"/><path id="DejaVuSans-75" d="M544 1381v2119h575V1403q0-497 193-746 194-248 582-248 465 0 735 297 271 297 271 810v1984h575V0h-575v538q-209-319-486-474-276-155-642-155-603 0-916 375-312 375-312 1097zm1447 2203z" transform="scale(.01563)"/><path id="DejaVuSans-62" d="M3116 1747q0 634-261 995t-717 361q-457 0-718-361t-261-995q0-634 261-995t718-361q456 0 717 361t261 995zM1159 2969q182 312 458 463 277 152 661 152 638 0 1036-506 399-506 399-1331T3314 415Q2916-91 2278-91q-384 0-661 152-276 152-458 464V0H581v4863h578V2969z" transform="scale(.01563)"/><path id="DejaVuSans-73" d="M2834 3397v-544q-243 125-506 187-262 63-544 63-428 0-642-131t-214-394q0-200 153-314t616-217l197-44q612-131 870-370t258-667q0-488-386-773Q2250-91 1575-91q-281 0-586 55T347 128v594q319-166 628-249 309-82 613-82 406 0 624 139 219 139 219 392 0 234-158 359-157 125-692 241l-200 47q-534 112-772 345-237 233-237 639 0 494 350 762 350 269 994 269 318 0 599-47 282-46 519-140z" transform="scale(.01563)"/><path id="DejaVuSans-61" d="M2194 1759q-697 0-966-159t-269-544q0-306 202-486 202-179 548-179 479 0 768 339t289 901v128h-572zm1147 238V0h-575v531q-197-318-491-470T1556-91q-537 0-855 302-317 302-317 808 0 590 395 890 396 300 1180 300h807v57q0 397-261 614t-733 217q-300 0-585-72-284-72-546-216v532q315 122 612 182 297 61 578 61 760 0 1135-394 375-393 375-1193z" transform="scale(.01563)"/><path id="DejaVuSans-72" d="M2631 2963q-97 56-211 82-114 27-251 27-488 0-749-317t-261-911V0H581v3500h578v-544q182 319 472 473 291 155 707 155 59 0 131-8 72-7 159-23l3-590z" transform="scale(.01563)"/></defs><use xlink:href="#DejaVuSans-47"/><use xlink:href="#DejaVuSans-69" x="77.49"/><use xlink:href="#DejaVuSans-74" x="105.273"/><use xlink:href="#DejaVuSans-48" x="144.482"/><use xlink:href="#DejaVuSans-75" x="219.678"/><use xlink:href="#DejaVuSans-62" x="283.057"/><use xlink:href="#DejaVuSans-20" x="346.533"/><use xlink:href="#DejaVuSans-73" x="378.32"/><use xlink:href="#DejaVuSans-74" x="430.42"/><use xlink:href="#DejaVuSans-61" x="469.629"/><use xlink:href="#DejaVuSans-72" x="530.908"/><use xlink:href="#DejaVuSans-73" x="572.021"/></g></g><path d="m233.076 280.087 2.115-3.023 2.046-.728 2.115-.326 2.047-.261 2.114-.304 2.115-.49 1.91-.304 2.115-.49 2.047-.434 2.114-.315 2.047-.327 2.115-.456 2.114-.392 2.047-.293 2.115-.283 2.046-.348 2.115-.26 2.115-.36 1.91-.358 2.114-.37 2.047-.195 2.115-.413 2.046-.294 2.115-.272 2.115-.293 2.046-.207 2.115-.902 2.047-.435 2.114-.424 2.115-.424 1.978-.62 2.115-.663 2.047-.402 2.114-.457 2.047-.445 2.115-.24 2.115-.424 2.046-.5 2.115-.478 2.046-.5 2.115-.413 2.115-.533 1.91-.522 2.115-.826 2.046-.435 2.115-.522 2.046-.435 2.115-.38 2.115-.511 2.047-.576 2.114-.837 2.047-.924 2.115-.544 2.114-.685 1.91-.478 2.115-.86 2.047-.77 2.114-.631 2.047-.653 2.115-.641 2.114-.49 2.047-.836 2.115-.653 2.046-.837 2.115-.75 2.115-.74 1.91-.804 2.115-.891 2.046-.892 2.115-.924 2.046-.576 2.115-.794 2.115-.684 2.046-.675 2.115-.771 2.047-.696 2.115-.826 2.114-.685 1.979-.903 2.114-1 2.047-1.402 2.115-1.11 2.046-.76 2.115-1.13 2.115-.914 2.046-.978 2.115-1.022 2.046-.729 2.115-.946 2.115-.978 1.91-.826 2.115-.935 2.046-.674 2.115-.685 2.047-.75 2.114-.805 2.115-1.109 2.047-.858 2.114-.696 2.047-.576 2.115-.816 2.114-.837 1.91-.696 2.115-.652 2.047-.707 2.115-.75 2.046-.522" clip-path="url(#p6ebe61b60b)" style="fill:none;stroke:#c5b0d5;stroke-width:1.5;stroke-linecap:square" id="line2d_18"/><path d="m172.772 280.087 2.114-3.968 10.438-.5 12.415-.544 22.99-.272 4.025-.641 2.046-.522 12.552-1.957 2.047-.5 2.114-.25 2.115-.413 4.025-1.316 2.047-.532 2.114-.392 6.276-1.49 4.162-.836 2.046-.609 4.23-.88 6.071-1.468 4.161-1.218 2.115-.837 10.437-2.87 4.093-1.457 4.162-1.174 2.114-.978 14.6-3.86 4.024-.978 8.322-2.675 2.115-.39 4.162-.99 2.114-.533 2.047-.837 4.23-1.457 1.91-.402 2.114-.74 2.047-.445 2.114-.663 14.599-3.588 20.738-5.533 4.162-1.414 2.114-.51 4.093-1.512 4.162-1.978 4.16-1.577 2.116-.956 4.16-1.599 2.047-.815 4.23-1.457 1.91-.826 2.115-.74 2.046-.847 2.115-.707 2.047-.543 8.39-3 2.047-.784 4.23-1.228 1.91-.707 6.276-2.011 2.046-.674h0" clip-path="url(#p6ebe61b60b)" style="fill:none;stroke:#ff9896;stroke-width:1.5;stroke-linecap:square" id="line2d_19"/><path d="m220.729 280.087 1.91-1.305 2.115-13.59 2.046-.619 2.115-.38 2.046-.446 2.115-.402 2.115-.653 2.046-.5 2.115-.609 2.047-.445 2.114-.457 2.115-.815 1.91-.729 2.115-.5 2.047-1.13 2.114-.424 2.047-.49 2.115-.565 2.114-.435 2.047-.348 2.115-.478 2.046-.576 2.115-.49 2.115-.5 1.91-.543 2.114-.815 2.047-.577 2.115-.554 2.046-.565 2.115-.61 2.115-.63 2.046-.717 2.115-.642 2.047-.489 2.114-.533 2.115-.674 1.978-.728 2.115-.467 2.047-.707 2.114-.468 2.047-.521 2.115-.598 2.115-.587 2.046-.511 2.115-.718 2.046-.74 2.115-.695 2.115-.652 1.91-.5 2.115-.75 2.046-.761 2.115-.511 2.046-.566 2.115-.522 2.115-.597 2.047-.468 2.114-.652 2.047-.62 2.115-.663 2.114-.587 1.91-.663 2.115-.696 2.047-.609 2.114-.859 2.047-.76 2.115-.849 2.114-.576 2.047-.522 2.115-.598 2.046-.62 2.115-.695 2.115-.794 1.91-.522 2.115-.847 2.046-.729 2.115-.707 2.046-.467 2.115-.62 2.115-.608 2.046-.446 2.115-.555 2.047-.728 2.115-.674 2.114-.587 1.979-.674 2.114-.707 2.047-.826 2.115-1.011 2.046-.761 2.115-.609 2.115-.652 2.046-.772 2.115-.848 2.046-.63 2.115-.718 2.115-.728 1.91-.816 2.115-.815 2.046-.566 2.115-.652 2.047-.641 2.114-.74 2.115-.706 2.047-.805 2.114-.608 2.047-.61 2.115-.717 2.114-.772 1.91-.804 2.115-.663 2.047-.576 2.115-.761 2.046-.544" clip-path="url(#p6ebe61b60b)" style="fill:none;stroke:#98df8a;stroke-width:1.5;stroke-linecap:square" id="line2d_20"/><g style="fill:#1f77b4" transform="matrix(.14 0 0 -.14 465.907 17.838)" id="text_14"><defs><path id="DejaVuSans-79" d="M2059-325q-243-625-475-815-231-191-618-191H506v481h338q237 0 368 113 132 112 291 531l103 262L191 3500h609L1894 763l1094 2737h609L2059-325z" transform="scale(.01563)"/><path id="DejaVuSans-63" d="M3122 3366v-538q-244 135-489 202t-495 67q-560 0-870-355-309-354-309-995t309-996q310-354 870-354 250 0 495 67t489 202V134Q2881 22 2623-34q-257-57-548-57-791 0-1257 497-465 497-465 1341 0 856 470 1346 471 491 1290 491 265 0 518-55 253-54 491-163z" transform="scale(.01563)"/><path id="DejaVuSans-6d" d="M3328 2828q216 388 516 572t706 184q547 0 844-383 297-382 297-1088V0h-578v2094q0 503-179 746-178 244-543 244-447 0-707-297-259-296-259-809V0h-578v2094q0 506-178 748t-550 242q-441 0-701-298-259-298-259-808V0H581v3500h578v-544q197 322 472 475t653 153q382 0 649-194 267-193 395-562z" transform="scale(.01563)"/><path id="DejaVuSans-2d" d="M313 2009h1684v-512H313v512z" transform="scale(.01563)"/><path id="DejaVuSans-6f" d="M1959 3097q-462 0-731-361t-269-989q0-628 267-989 268-361 733-361 460 0 728 362 269 363 269 988 0 622-269 986-268 364-728 364zm0 487q750 0 1178-488 429-487 429-1349 0-859-429-1349Q2709-91 1959-91q-753 0-1180 489-426 490-426 1349 0 862 426 1349 427 488 1180 488z" transform="scale(.01563)"/><path id="DejaVuSans-65" d="M3597 1894v-281H953q38-594 358-905t892-311q331 0 642 81t618 244V178Q3153 47 2828-22t-659-69q-838 0-1327 487-489 488-489 1320 0 859 464 1363 464 505 1252 505 706 0 1117-455 411-454 411-1235zm-575 169q-6 471-264 752-258 282-683 282-481 0-770-272t-333-766l2050 4z" transform="scale(.01563)"/><path id="DejaVuSans-2f" d="M1625 4666h531L531-594H0l1625 5260z" transform="scale(.01563)"/><path id="DejaVuSans-59" d="M-13 4666h679l1293-1919 1285 1919h678L2272 2222V0h-634v2222L-13 4666z" transform="scale(.01563)"/><path id="DejaVuSans-43" d="M4122 4306v-665q-319 297-680 443-361 147-767 147-800 0-1225-489t-425-1414q0-922 425-1411t1225-489q406 0 767 147t680 444V359q-331-225-702-338-370-112-782-112-1060 0-1670 648-609 649-609 1771 0 1125 609 1773 610 649 1670 649 418 0 788-111 371-111 696-333z" transform="scale(.01563)"/><path id="DejaVuSans-70" d="M1159 525v-1856H581v4831h578v-531q182 312 458 463 277 152 661 152 638 0 1036-506 399-506 399-1331T3314 415Q2916-91 2278-91q-384 0-661 152-276 152-458 464zm1957 1222q0 634-261 995t-717 361q-457 0-718-361t-261-995q0-634 261-995t718-361q456 0 717 361t261 995z" transform="scale(.01563)"/><path id="DejaVuSans-6c" d="M603 4863h575V0H603v4863z" transform="scale(.01563)"/><path id="DejaVuSans-4d" d="M628 4666h941l1190-3175 1197 3175h941V0h-616v4097L3078 897h-634L1241 4097V0H628v4666z" transform="scale(.01563)"/></defs><use xlink:href="#DejaVuSans-79"/><use xlink:href="#DejaVuSans-63" x="59.18"/><use xlink:href="#DejaVuSans-6d" x="114.16"/><use xlink:href="#DejaVuSans-2d" x="211.572"/><use xlink:href="#DejaVuSans-63" x="247.656"/><use xlink:href="#DejaVuSans-6f" x="302.637"/><use xlink:href="#DejaVuSans-72" x="363.818"/><use xlink:href="#DejaVuSans-65" x="402.682"/><use xlink:href="#DejaVuSans-2f" x="464.205"/><use xlink:href="#DejaVuSans-59" x="497.896"/><use xlink:href="#DejaVuSans-6f" x="545.73"/><use xlink:href="#DejaVuSans-75" x="606.912"/><use xlink:href="#DejaVuSans-43" x="670.291"/><use xlink:href="#DejaVuSans-6f" x="740.115"/><use xlink:href="#DejaVuSans-6d" x="801.297"/><use xlink:href="#DejaVuSans-70" x="898.709"/><use xlink:href="#DejaVuSans-6c" x="962.186"/><use xlink:href="#DejaVuSans-65" x="989.969"/><use xlink:href="#DejaVuSans-74" x="1051.492"/><use xlink:href="#DejaVuSans-65" x="1090.701"/><use xlink:href="#DejaVuSans-4d" x="1152.225"/><use xlink:href="#DejaVuSans-65" x="1238.504"/></g><g style="fill:#ff7f0e" transform="matrix(.14 0 0 -.14 465.907 56.475)" id="text_15"><defs><path id="DejaVuSans-6e" d="M3513 2113V0h-575v2094q0 497-194 743-194 247-581 247-466 0-735-297-269-296-269-809V0H581v3500h578v-544q207 316 486 472 280 156 646 156 603 0 912-373 310-373 310-1098z" transform="scale(.01563)"/><path id="DejaVuSans-64" d="M2906 2969v1894h575V0h-575v525q-181-312-458-464-276-152-664-152-634 0-1033 506-398 507-398 1332t398 1331q399 506 1033 506 388 0 664-152 277-151 458-463zM947 1747q0-634 261-995t717-361q456 0 718 361 263 361 263 995t-263 995q-262 361-718 361t-717-361q-261-361-261-995z" transform="scale(.01563)"/><path id="DejaVuSans-2e" d="M684 794h660V0H684v794z" transform="scale(.01563)"/><path id="DejaVuSans-76" d="M191 3500h609L1894 563l1094 2937h609L2284 0h-781L191 3500z" transform="scale(.01563)"/></defs><use xlink:href="#DejaVuSans-6e"/><use xlink:href="#DejaVuSans-65" x="63.379"/><use xlink:href="#DejaVuSans-6f" x="124.902"/><use xlink:href="#DejaVuSans-63" x="186.084"/><use xlink:href="#DejaVuSans-6c" x="241.064"/><use xlink:href="#DejaVuSans-69" x="268.848"/><use xlink:href="#DejaVuSans-64" x="296.631"/><use xlink:href="#DejaVuSans-65" x="360.107"/><use xlink:href="#DejaVuSans-2f" x="421.631"/><use xlink:href="#DejaVuSans-63" x="455.322"/><use xlink:href="#DejaVuSans-6f" x="510.303"/><use xlink:href="#DejaVuSans-63" x="571.484"/><use xlink:href="#DejaVuSans-2e" x="626.465"/><use xlink:href="#DejaVuSans-6e" x="658.252"/><use xlink:href="#DejaVuSans-76" x="721.631"/><use xlink:href="#DejaVuSans-69" x="780.811"/><use xlink:href="#DejaVuSans-6d" x="808.594"/></g><g style="fill:#2ca02c" transform="matrix(.14 0 0 -.14 465.907 77.169)" id="text_16"><use xlink:href="#DejaVuSans-70"/><use xlink:href="#DejaVuSans-72" x="63.477"/><use xlink:href="#DejaVuSans-65" x="102.34"/><use xlink:href="#DejaVuSans-73" x="163.863"/><use xlink:href="#DejaVuSans-65" x="215.963"/><use xlink:href="#DejaVuSans-72" x="277.486"/><use xlink:href="#DejaVuSans-76" x="318.6"/><use xlink:href="#DejaVuSans-69" x="377.779"/><use xlink:href="#DejaVuSans-6d" x="405.563"/><use xlink:href="#DejaVuSans-2f" x="502.975"/><use xlink:href="#DejaVuSans-6e" x="536.666"/><use xlink:href="#DejaVuSans-65" x="600.045"/><use xlink:href="#DejaVuSans-72" x="661.568"/><use xlink:href="#DejaVuSans-64" x="700.932"/><use xlink:href="#DejaVuSans-74" x="764.408"/><use xlink:href="#DejaVuSans-72" x="803.617"/><use xlink:href="#DejaVuSans-65" x="842.48"/><use xlink:href="#DejaVuSans-65" x="904.004"/></g><g style="fill:#d62728" transform="matrix(.14 0 0 -.14 465.907 91.169)" id="text_17"><use xlink:href="#DejaVuSans-76"/><use xlink:href="#DejaVuSans-69" x="59.18"/><use xlink:href="#DejaVuSans-6d" x="86.963"/><use xlink:href="#DejaVuSans-2d" x="184.375"/><use xlink:href="#DejaVuSans-61" x="220.459"/><use xlink:href="#DejaVuSans-69" x="281.738"/><use xlink:href="#DejaVuSans-72" x="309.521"/><use xlink:href="#DejaVuSans-6c" x="350.635"/><use xlink:href="#DejaVuSans-69" x="378.418"/><use xlink:href="#DejaVuSans-6e" x="406.201"/><use xlink:href="#DejaVuSans-65" x="469.58"/><use xlink:href="#DejaVuSans-2f" x="531.104"/><use xlink:href="#DejaVuSans-76" x="564.795"/><use xlink:href="#DejaVuSans-69" x="623.975"/><use xlink:href="#DejaVuSans-6d" x="651.758"/><use xlink:href="#DejaVuSans-2d" x="749.17"/><use xlink:href="#DejaVuSans-61" x="785.254"/><use xlink:href="#DejaVuSans-69" x="846.533"/><use xlink:href="#DejaVuSans-72" x="874.316"/><use xlink:href="#DejaVuSans-6c" x="915.43"/><use xlink:href="#DejaVuSans-69" x="943.213"/><use xlink:href="#DejaVuSans-6e" x="970.996"/><use xlink:href="#DejaVuSans-65" x="1034.375"/></g><g style="fill:#9467bd" transform="matrix(.14 0 0 -.14 465.907 105.169)" id="text_18"><defs><path id="DejaVuSans-66" d="M2375 4863v-479h-550q-309 0-430-125-120-125-120-450v-309h947v-447h-947V0H697v3053H147v447h550v244q0 584 272 851 272 268 862 268h544z" transform="scale(.01563)"/><path id="DejaVuSans-67" d="M2906 1791q0 625-258 968-257 344-723 344-462 0-720-344-258-343-258-968 0-622 258-966t720-344q466 0 723 344 258 344 258 966zm575-1357q0-893-397-1329-396-436-1215-436-303 0-572 45t-522 139v559q253-137 500-202 247-66 503-66 566 0 847 295t281 892v285q-178-310-456-463T1784 0Q1141 0 747 490 353 981 353 1791q0 812 394 1302 394 491 1037 491 388 0 666-153t456-462v531h575V434z" transform="scale(.01563)"/></defs><use xlink:href="#DejaVuSans-74"/><use xlink:href="#DejaVuSans-70" x="39.209"/><use xlink:href="#DejaVuSans-6f" x="102.686"/><use xlink:href="#DejaVuSans-70" x="163.867"/><use xlink:href="#DejaVuSans-65" x="227.344"/><use xlink:href="#DejaVuSans-2f" x="288.867"/><use xlink:href="#DejaVuSans-76" x="322.559"/><use xlink:href="#DejaVuSans-69" x="381.738"/><use xlink:href="#DejaVuSans-6d" x="409.521"/><use xlink:href="#DejaVuSans-2d" x="506.934"/><use xlink:href="#DejaVuSans-66" x="543.018"/><use xlink:href="#DejaVuSans-75" x="578.223"/><use xlink:href="#DejaVuSans-67" x="641.602"/><use xlink:href="#DejaVuSans-69" x="705.078"/><use xlink:href="#DejaVuSans-74" x="732.861"/><use xlink:href="#DejaVuSans-69" x="772.07"/><use xlink:href="#DejaVuSans-76" x="799.854"/><use xlink:href="#DejaVuSans-65" x="859.033"/></g><g style="fill:#8c564b" transform="matrix(.14 0 0 -.14 465.907 119.169)" id="text_19"><defs><path id="DejaVuSans-68" d="M3513 2113V0h-575v2094q0 497-194 743-194 247-581 247-466 0-735-297-269-296-269-809V0H581v4863h578V2956q207 316 486 472 280 156 646 156 603 0 912-373 310-373 310-1098z" transform="scale(.01563)"/></defs><use xlink:href="#DejaVuSans-66"/><use xlink:href="#DejaVuSans-61" x="35.205"/><use xlink:href="#DejaVuSans-74" x="96.484"/><use xlink:href="#DejaVuSans-69" x="135.693"/><use xlink:href="#DejaVuSans-68" x="163.477"/><use xlink:href="#DejaVuSans-2f" x="226.855"/><use xlink:href="#DejaVuSans-76" x="260.547"/><use xlink:href="#DejaVuSans-69" x="319.727"/><use xlink:href="#DejaVuSans-6d" x="347.51"/><use xlink:href="#DejaVuSans-2d" x="444.922"/><use xlink:href="#DejaVuSans-67" x="481.006"/><use xlink:href="#DejaVuSans-6f" x="544.482"/></g><g style="fill:#e377c2" transform="matrix(.14 0 0 -.14 465.907 133.169)" id="text_20"><use xlink:href="#DejaVuSans-64"/><use xlink:href="#DejaVuSans-65" x="63.477"/><use xlink:href="#DejaVuSans-6e" x="125"/><use xlink:href="#DejaVuSans-73" x="188.379"/><use xlink:href="#DejaVuSans-65" x="240.479"/><use xlink:href="#DejaVuSans-2d" x="302.002"/><use xlink:href="#DejaVuSans-61" x="338.086"/><use xlink:href="#DejaVuSans-6e" x="399.365"/><use xlink:href="#DejaVuSans-61" x="462.744"/><use xlink:href="#DejaVuSans-6c" x="524.023"/><use xlink:href="#DejaVuSans-79" x="551.807"/><use xlink:href="#DejaVuSans-73" x="610.986"/><use xlink:href="#DejaVuSans-69" x="663.086"/><use xlink:href="#DejaVuSans-73" x="690.869"/><use xlink:href="#DejaVuSans-2f" x="742.969"/><use xlink:href="#DejaVuSans-61" x="776.66"/><use xlink:href="#DejaVuSans-6c" x="837.939"/><use xlink:href="#DejaVuSans-65" x="865.723"/></g><g style="fill:#7f7f7f" transform="matrix(.14 0 0 -.14 465.907 147.169)" id="text_21"><use xlink:href="#DejaVuSans-76"/><use xlink:href="#DejaVuSans-69" x="59.18"/><use xlink:href="#DejaVuSans-6d" x="86.963"/><use xlink:href="#DejaVuSans-2d" x="184.375"/><use xlink:href="#DejaVuSans-73" x="220.459"/><use xlink:href="#DejaVuSans-79" x="272.559"/><use xlink:href="#DejaVuSans-6e" x="331.738"/><use xlink:href="#DejaVuSans-74" x="395.117"/><use xlink:href="#DejaVuSans-61" x="434.326"/><use xlink:href="#DejaVuSans-73" x="495.605"/><use xlink:href="#DejaVuSans-74" x="547.705"/><use xlink:href="#DejaVuSans-69" x="586.914"/><use xlink:href="#DejaVuSans-63" x="614.697"/><use xlink:href="#DejaVuSans-2f" x="669.678"/><use xlink:href="#DejaVuSans-73" x="703.369"/><use xlink:href="#DejaVuSans-79" x="755.469"/><use xlink:href="#DejaVuSans-6e" x="814.648"/><use xlink:href="#DejaVuSans-74" x="878.027"/><use xlink:href="#DejaVuSans-61" x="917.236"/><use xlink:href="#DejaVuSans-73" x="978.516"/><use xlink:href="#DejaVuSans-74" x="1030.615"/><use xlink:href="#DejaVuSans-69" x="1069.824"/><use xlink:href="#DejaVuSans-63" x="1097.607"/></g><g style="fill:#bcbd22" transform="matrix(.14 0 0 -.14 465.907 161.169)" id="text_22"><use xlink:href="#DejaVuSans-74"/><use xlink:href="#DejaVuSans-70" x="39.209"/><use xlink:href="#DejaVuSans-6f" x="102.686"/><use xlink:href="#DejaVuSans-70" x="163.867"/><use xlink:href="#DejaVuSans-65" x="227.344"/><use xlink:href="#DejaVuSans-2f" x="288.867"/><use xlink:href="#DejaVuSans-76" x="322.559"/><use xlink:href="#DejaVuSans-69" x="381.738"/><use xlink:href="#DejaVuSans-6d" x="409.521"/><use xlink:href="#DejaVuSans-2d" x="506.934"/><use xlink:href="#DejaVuSans-73" x="543.018"/><use xlink:href="#DejaVuSans-75" x="595.117"/><use xlink:href="#DejaVuSans-72" x="658.496"/><use xlink:href="#DejaVuSans-72" x="697.859"/><use xlink:href="#DejaVuSans-6f" x="736.723"/><use xlink:href="#DejaVuSans-75" x="797.904"/><use xlink:href="#DejaVuSans-6e" x="861.283"/><use xlink:href="#DejaVuSans-64" x="924.662"/></g><g style="fill:#17becf" transform="matrix(.14 0 0 -.14 465.907 175.169)" id="text_23"><defs><path id="DejaVuSans-54" d="M-19 4666h3947v-532H2272V0h-634v4134H-19v532z" transform="scale(.01563)"/><path id="DejaVuSans-4e" d="M628 4666h850L3547 763v3903h612V0h-850L1241 3903V0H628v4666z" transform="scale(.01563)"/></defs><use xlink:href="#DejaVuSans-63"/><use xlink:href="#DejaVuSans-6f" x="54.98"/><use xlink:href="#DejaVuSans-64" x="116.162"/><use xlink:href="#DejaVuSans-6f" x="179.639"/><use xlink:href="#DejaVuSans-74" x="240.82"/><use xlink:href="#DejaVuSans-61" x="280.029"/><use xlink:href="#DejaVuSans-2f" x="341.309"/><use xlink:href="#DejaVuSans-54" x="375"/><use xlink:href="#DejaVuSans-61" x="419.584"/><use xlink:href="#DejaVuSans-62" x="480.863"/><use xlink:href="#DejaVuSans-4e" x="544.34"/><use xlink:href="#DejaVuSans-69" x="619.145"/><use xlink:href="#DejaVuSans-6e" x="646.928"/><use xlink:href="#DejaVuSans-65" x="710.307"/></g><g style="fill:#aec7e8" transform="matrix(.14 0 0 -.14 465.907 189.169)" id="text_24"><defs><path id="DejaVuSans-6a" d="M603 3500h575V-63q0-668-255-968-254-300-820-300h-219v487H38q328 0 446 152Q603-541 603-63v3563zm0 1363h575v-729H603v729z" transform="scale(.01563)"/><path id="DejaVuSans-7a" d="M353 3500h2731v-525L922 459h2162V0H275v525l2163 2516H353v459z" transform="scale(.01563)"/></defs><use xlink:href="#DejaVuSans-6a"/><use xlink:href="#DejaVuSans-75" x="27.783"/><use xlink:href="#DejaVuSans-6e" x="91.162"/><use xlink:href="#DejaVuSans-65" x="154.541"/><use xlink:href="#DejaVuSans-67" x="216.064"/><use xlink:href="#DejaVuSans-75" x="279.541"/><use xlink:href="#DejaVuSans-6e" x="342.92"/><use xlink:href="#DejaVuSans-6e" x="406.299"/><use xlink:href="#DejaVuSans-2f" x="469.678"/><use xlink:href="#DejaVuSans-66" x="503.369"/><use xlink:href="#DejaVuSans-7a" x="538.574"/><use xlink:href="#DejaVuSans-66" x="591.064"/><use xlink:href="#DejaVuSans-2e" x="619.02"/><use xlink:href="#DejaVuSans-76" x="650.807"/><use xlink:href="#DejaVuSans-69" x="709.986"/><use xlink:href="#DejaVuSans-6d" x="737.77"/></g><g style="fill:#ffbb78" transform="matrix(.14 0 0 -.14 465.907 203.169)" id="text_25"><use xlink:href="#DejaVuSans-74"/><use xlink:href="#DejaVuSans-65" x="39.209"/><use xlink:href="#DejaVuSans-72" x="100.732"/><use xlink:href="#DejaVuSans-72" x="140.096"/><use xlink:href="#DejaVuSans-79" x="181.209"/><use xlink:href="#DejaVuSans-6d" x="240.389"/><use xlink:href="#DejaVuSans-61" x="337.801"/><use xlink:href="#DejaVuSans-2f" x="399.08"/><use xlink:href="#DejaVuSans-76" x="432.771"/><use xlink:href="#DejaVuSans-69" x="491.951"/><use xlink:href="#DejaVuSans-6d" x="519.734"/><use xlink:href="#DejaVuSans-2d" x="617.146"/><use xlink:href="#DejaVuSans-6d" x="653.23"/><use xlink:href="#DejaVuSans-75" x="750.643"/><use xlink:href="#DejaVuSans-6c" x="814.021"/><use xlink:href="#DejaVuSans-74" x="841.805"/><use xlink:href="#DejaVuSans-69" x="881.014"/><use xlink:href="#DejaVuSans-70" x="908.797"/><use xlink:href="#DejaVuSans-6c" x="972.273"/><use xlink:href="#DejaVuSans-65" x="1000.057"/><use xlink:href="#DejaVuSans-2d" x="1061.58"/><use xlink:href="#DejaVuSans-63" x="1097.664"/><use xlink:href="#DejaVuSans-75" x="1152.645"/><use xlink:href="#DejaVuSans-72" x="1216.023"/><use xlink:href="#DejaVuSans-73" x="1257.137"/><use xlink:href="#DejaVuSans-6f" x="1309.236"/><use xlink:href="#DejaVuSans-72" x="1370.418"/><use xlink:href="#DejaVuSans-73" x="1411.531"/></g><g style="fill:#98df8a" transform="matrix(.14 0 0 -.14 465.907 217.169)" id="text_26"><use xlink:href="#DejaVuSans-61"/><use xlink:href="#DejaVuSans-69" x="61.279"/><use xlink:href="#DejaVuSans-72" x="89.063"/><use xlink:href="#DejaVuSans-62" x="130.176"/><use xlink:href="#DejaVuSans-6c" x="193.652"/><use xlink:href="#DejaVuSans-61" x="221.436"/><use xlink:href="#DejaVuSans-64" x="282.715"/><use xlink:href="#DejaVuSans-65" x="346.191"/><use xlink:href="#DejaVuSans-2f" x="407.715"/><use xlink:href="#DejaVuSans-76" x="441.406"/><use xlink:href="#DejaVuSans-69" x="500.586"/><use xlink:href="#DejaVuSans-6d" x="528.369"/><use xlink:href="#DejaVuSans-2d" x="625.781"/><use xlink:href="#DejaVuSans-67" x="661.865"/><use xlink:href="#DejaVuSans-69" x="725.342"/><use xlink:href="#DejaVuSans-74" x="753.125"/><use xlink:href="#DejaVuSans-67" x="792.334"/><use xlink:href="#DejaVuSans-75" x="855.811"/><use xlink:href="#DejaVuSans-74" x="919.189"/><use xlink:href="#DejaVuSans-74" x="958.398"/><use xlink:href="#DejaVuSans-65" x="997.607"/><use xlink:href="#DejaVuSans-72" x="1059.131"/></g><g style="fill:#ff9896" transform="matrix(.14 0 0 -.14 465.907 231.169)" id="text_27"><use xlink:href="#DejaVuSans-65"/><use xlink:href="#DejaVuSans-61" x="61.523"/><use xlink:href="#DejaVuSans-73" x="122.803"/><use xlink:href="#DejaVuSans-79" x="174.902"/><use xlink:href="#DejaVuSans-6d" x="234.082"/><use xlink:href="#DejaVuSans-6f" x="331.494"/><use xlink:href="#DejaVuSans-74" x="392.676"/><use xlink:href="#DejaVuSans-69" x="431.885"/><use xlink:href="#DejaVuSans-6f" x="459.668"/><use xlink:href="#DejaVuSans-6e" x="520.85"/><use xlink:href="#DejaVuSans-2f" x="584.229"/><use xlink:href="#DejaVuSans-76" x="617.92"/><use xlink:href="#DejaVuSans-69" x="677.1"/><use xlink:href="#DejaVuSans-6d" x="704.883"/><use xlink:href="#DejaVuSans-2d" x="802.295"/><use xlink:href="#DejaVuSans-65" x="838.379"/><use xlink:href="#DejaVuSans-61" x="899.902"/><use xlink:href="#DejaVuSans-73" x="961.182"/><use xlink:href="#DejaVuSans-79" x="1013.281"/><use xlink:href="#DejaVuSans-6d" x="1072.461"/><use xlink:href="#DejaVuSans-6f" x="1169.873"/><use xlink:href="#DejaVuSans-74" x="1231.055"/><use xlink:href="#DejaVuSans-69" x="1270.264"/><use xlink:href="#DejaVuSans-6f" x="1298.047"/><use xlink:href="#DejaVuSans-6e" x="1359.229"/></g><g style="fill:#c5b0d5" transform="matrix(.14 0 0 -.14 465.907 245.169)" id="text_28"><use xlink:href="#DejaVuSans-69"/><use xlink:href="#DejaVuSans-74" x="27.783"/><use xlink:href="#DejaVuSans-63" x="66.992"/><use xlink:href="#DejaVuSans-68" x="121.973"/><use xlink:href="#DejaVuSans-79" x="185.352"/><use xlink:href="#DejaVuSans-6e" x="244.531"/><use xlink:href="#DejaVuSans-79" x="307.91"/><use xlink:href="#DejaVuSans-2f" x="367.09"/><use xlink:href="#DejaVuSans-6c" x="400.781"/><use xlink:href="#DejaVuSans-69" x="428.564"/><use xlink:href="#DejaVuSans-67" x="456.348"/><use xlink:href="#DejaVuSans-68" x="519.824"/><use xlink:href="#DejaVuSans-74" x="583.203"/><use xlink:href="#DejaVuSans-6c" x="622.412"/><use xlink:href="#DejaVuSans-69" x="650.195"/><use xlink:href="#DejaVuSans-6e" x="677.979"/><use xlink:href="#DejaVuSans-65" x="741.357"/><use xlink:href="#DejaVuSans-2e" x="802.881"/><use xlink:href="#DejaVuSans-76" x="834.668"/><use xlink:href="#DejaVuSans-69" x="893.848"/><use xlink:href="#DejaVuSans-6d" x="921.631"/></g><g style="fill:#b0b0b0" transform="matrix(.09716 0 0 -.09716 98.073 314.123)" id="text_29"><defs><path id="DejaVuSans-40" d="M2381 1678q0-447 222-702 222-254 610-254 384 0 604 256 221 256 221 700 0 438-225 695-225 258-607 258-378 0-602-256-223-256-223-697zm1703-934q-187-241-429-355t-564-114q-538 0-874 389t-336 1014q0 625 337 1015 338 391 873 391 322 0 565-117 244-117 428-354v409h447V722q457 69 714 417 258 349 258 902 0 334-99 628-98 294-298 544-325 409-792 626t-1017 217q-384 0-738-102-353-101-653-301-490-319-767-836-276-517-276-1120 0-497 179-932 180-434 521-765 328-325 759-495 431-171 922-171 403 0 792 136t714 389l281-347q-390-303-851-464t-936-161q-578 0-1091 205-512 205-912 595Q841 78 631 592q-209 514-209 1105 0 569 212 1084 213 516 607 907 403 396 931 607t1119 211q662 0 1229-272 568-271 952-771 234-307 357-666 124-359 124-744 0-822-497-1297T4084 263v481z" transform="scale(.01563)"/><path id="DejaVuSans-7c" d="M1344 4891v-6400H813v6400h531z" transform="scale(.01563)"/><path id="DejaVuSans-53" d="M3425 4513v-616q-359 172-678 256-319 85-616 85-515 0-795-200t-280-569q0-310 186-468 186-157 705-254l381-78q706-135 1042-474t336-907q0-679-455-1029Q2797-91 1919-91q-331 0-705 75-373 75-773 222v650q384-215 753-325 369-109 725-109 540 0 834 212 294 213 294 607 0 343-211 537t-692 291l-385 75q-706 140-1022 440-315 300-315 835 0 619 436 975t1201 356q329 0 669-60 341-59 697-177z" transform="scale(.01563)"/><path id="DejaVuSans-f6" d="M1959 3097q-462 0-731-361t-269-989q0-628 267-989 268-361 733-361 460 0 728 362 269 363 269 988 0 622-269 986-268 364-728 364zm0 487q750 0 1178-488 429-487 429-1349 0-859-429-1349Q2709-91 1959-91q-753 0-1180 489-426 490-426 1349 0 862 426 1349 427 488 1180 488zm295 1266h634v-631h-634v631zm-1222 0h634v-631h-634v631z" transform="scale(.01563)"/><path id="DejaVuSans-42" d="M1259 2228V519h1013q509 0 754 211 246 211 246 645 0 438-246 645-245 208-754 208H1259zm0 1919V2741h935q462 0 688 173 227 174 227 530 0 353-227 528-226 175-688 175h-935zm-631 519h1613q722 0 1112-300 391-300 391-853 0-429-200-682t-588-315q466-100 724-418 258-317 258-792 0-625-425-966Q3088 0 2303 0H628v4666z" transform="scale(.01563)"/></defs><use xlink:href="#DejaVuSans-40"/><use xlink:href="#DejaVuSans-6e" x="100"/><use xlink:href="#DejaVuSans-73" x="163.379"/><use xlink:href="#DejaVuSans-63" x="215.479"/><use xlink:href="#DejaVuSans-68" x="270.459"/><use xlink:href="#DejaVuSans-6c" x="333.838"/><use xlink:href="#DejaVuSans-6f" x="361.621"/><use xlink:href="#DejaVuSans-65" x="422.803"/><use xlink:href="#DejaVuSans-20" x="484.326"/><use xlink:href="#DejaVuSans-2f" x="516.113"/><use xlink:href="#DejaVuSans-20" x="549.805"/><use xlink:href="#DejaVuSans-67" x="581.592"/><use xlink:href="#DejaVuSans-69" x="645.068"/><use xlink:href="#DejaVuSans-74" x="672.852"/><use xlink:href="#DejaVuSans-68" x="712.061"/><use xlink:href="#DejaVuSans-75" x="775.439"/><use xlink:href="#DejaVuSans-62" x="838.818"/><use xlink:href="#DejaVuSans-2d" x="902.295"/><use xlink:href="#DejaVuSans-74" x="938.379"/><use xlink:href="#DejaVuSans-72" x="977.588"/><use xlink:href="#DejaVuSans-65" x="1016.451"/><use xlink:href="#DejaVuSans-6e" x="1077.975"/><use xlink:href="#DejaVuSans-64" x="1141.354"/><use xlink:href="#DejaVuSans-73" x="1204.83"/><use xlink:href="#DejaVuSans-20" x="1256.93"/><use xlink:href="#DejaVuSans-7c" x="1288.717"/><use xlink:href="#DejaVuSans-20" x="1322.408"/><use xlink:href="#DejaVuSans-4e" x="1354.195"/><use xlink:href="#DejaVuSans-69" x="1429"/><use xlink:href="#DejaVuSans-63" x="1456.783"/><use xlink:href="#DejaVuSans-6f" x="1511.764"/><use xlink:href="#DejaVuSans-20" x="1572.945"/><use xlink:href="#DejaVuSans-53" x="1604.732"/><use xlink:href="#DejaVuSans-63" x="1668.209"/><use xlink:href="#DejaVuSans-68" x="1723.189"/><use xlink:href="#DejaVuSans-6c" x="1786.568"/><use xlink:href="#DejaVuSans-f6" x="1814.352"/><use xlink:href="#DejaVuSans-6d" x="1875.533"/><use xlink:href="#DejaVuSans-65" x="1972.945"/><use xlink:href="#DejaVuSans-72" x="2034.469"/><use xlink:href="#DejaVuSans-20" x="2075.582"/><use xlink:href="#DejaVuSans-7c" x="2107.369"/><use xlink:href="#DejaVuSans-20" x="2141.061"/><use xlink:href="#DejaVuSans-43" x="2172.848"/><use xlink:href="#DejaVuSans-43" x="2242.672"/><use xlink:href="#DejaVuSans-20" x="2312.496"/><use xlink:href="#DejaVuSans-42" x="2344.283"/><use xlink:href="#DejaVuSans-59" x="2407.387"/></g><path d="m224.754 280.087 2.046-11.568 2.115-.848 2.046-.858 2.115-1.272 2.115-1.196 2.046-.696 2.115-.674 2.047-.794 2.114-.695 2.115-.718 1.91-.76 2.115-.805 2.047-.86 2.114-.815 2.047-.913 2.115-.728 2.114-1.272 2.047-.663 2.115-.685 2.046-.685 2.115-.75 2.115-.848 1.91-.88 2.114-.98 2.047-1.239 2.115-.837 2.046-1.043 2.115-1.164 2.115-.826 2.046-.87 2.115-1.043 2.047-1.077 2.114-.837 2.115-1.152 1.978-.728 2.115-1.011 2.047-1.164 2.114-.674 2.047-.902 2.115-.728 2.115-.914 2.046-.967 2.115-.979 2.046-.87 2.115-.782 2.115-.968 1.91-.685 2.115-.913 2.046-.783 2.115-.674 2.046-.478 2.115-.794 2.115-.891 2.047-.62 2.114-.706 2.047-.685 2.115-.598 2.114-.663 1.91-.566 2.115-.815 2.047-.848 2.114-.641 2.047-.74 2.115-.685 2.114-.695 2.047-.75 2.115-.783 2.046-.75 2.115-.63 2.115-.664 1.91-.565 2.115-.935 2.046-.761 2.115-.598 2.046-.663 2.115-.718 2.115-.554 2.046-.598 2.115-.642 2.047-.5 2.115-.478 2.114-.478 1.979-.588 2.114-.576 2.047-.62 2.115-.586 2.046-.794 2.115-.63 2.115-.24 2.046-.272 2.115-.337 2.046-.228 2.115-.196 2.115-.315 1.91-.304 2.115-.305 2.046-.228 2.115-.217 2.047-.218 2.114-.195 2.115-.294 2.047-.13 2.114-.305 2.047-.283 2.115-.282 2.114-.207 1.91-.195 2.115-.164 2.047-.26 2.115-.261 2.046-.185" clip-path="url(#p6ebe61b60b)" style="fill:none;stroke:#ffbb78;stroke-width:1.5;stroke-linecap:square" id="line2d_21"/><path d="m282.875 280.087 2.115-.37 2.046-.25 2.115-.228 2.047-.337 2.114-.36 2.115-.445 1.978-.478 2.115-.468 2.047-.445 2.114-.468 2.047-.413 2.115-.424 2.115-.533 2.046-.587 2.115-.62 2.046-.478 2.115-.522 2.115-.706 1.91-.729 2.115-.858 2.046-.761 2.115-.794 2.046-.554 2.115-.555 2.115-.794 2.047-.717 2.114-2.261 2.047-1.283 2.115-.87 2.114-.88 1.91-.75 2.115-1.142 2.047-.957 2.114-1.076 2.047-.913 2.115-1.022 2.114-.826 2.047-1.12 2.115-1.174 2.046-.968 2.115-.935 2.115-1.065 1.91-1.12 2.115-1.457 2.046-1.37 2.115-1.348 2.046-1.195 2.115-1.468 2.115-1.033 2.046-1.228 2.115-1.207 2.047-1.49 2.115-1.315 2.114-1.228 1.979-1.457 2.114-1.772 2.047-1.892 2.115-2.24 2.046-1.804 2.115-1.62 2.115-1.555 2.046-1.391 2.115-1.729 2.046-1.63 2.115-1.588 2.115-1.304 1.91-1.403 2.115-1.598 2.046-1.37 2.115-1.706 2.047-1.316 2.114-1.522 2.115-1.424 2.047-1.185 2.114-1.305 2.047-1.5 2.115-1.109 2.114-1.293 1.91-1.131 2.115-1.196 2.047-1.13 2.115-1.229 2.046-1.49" clip-path="url(#p6ebe61b60b)" style="fill:none;stroke:#aec7e8;stroke-width:1.5;stroke-linecap:square" id="line2d_22"/><path d="m363.918 280.087 2.046-.903 2.115-.935 2.115-.424 1.91-.489 2.115-.489 2.046-.598 2.115-.272 2.046-.206 2.115-20.852 2.115-8.86 2.046-5.468 2.115-4.034 2.047-3 2.115-2.348 2.114-2.686 1.979-2.696 2.114-3.098 2.047-3.044 2.115-3.24 2.046-2.196 2.115-2.837 2.115-1.675 2.046-2 2.115-2.142 2.046-2.065 2.115-3.218 2.115-2.642 1.91-1.652 2.115-1.925 2.046-1.37 2.115-1.01 2.047-1.273 2.114-1.522 2.115-1.38 2.047-1.055 2.114-1.163 2.047-1.283 2.115-1.054 2.114-.848 1.91-.805 2.115-.696 2.047-.935 2.115-.674 2.046-1.021" clip-path="url(#p6ebe61b60b)" style="fill:none;stroke:#17becf;stroke-width:1.5;stroke-linecap:square" id="line2d_23"/><path d="m110.625 280.087 2.047-1.207 14.462-1.359 22.853-2.326 4.161-.5 4.161-.294 27.015-2.946 14.53-.903 10.437-.337 10.438-.054 1.91-.424 6.276-1.913 2.046-.457 4.23-1.359 2.046-.446 4.162-1.206 4.23-.99 8.185-2.63 4.162-1.262 6.276-1.62 6.276-1.859 12.347-4.609 2.115-.685 2.046-.815 4.162-1.86 4.23-1.554 4.092-1.848 6.208-2.555 14.667-5.892 4.025-1.968 6.207-2.457 2.115-.576 2.115-1.065 2.047-.761 6.276-2.718 2.114-.75 1.91-.848 4.162-1.436 8.39-4.435 2.047-1 2.115-.86 2.046-1.086 2.115-.805 6.14-3.326 2.046-1.392 2.115-1.228 2.046-1.044 4.23-2.414 6.208-3.49 2.115-.978 2.114-1.141 4.093-2.446 4.162-3.599 10.437-6.392 2.046-1.577 6.14-4.142 2.115-1.685 4.161-2.815 2.047-.957 2.114-1.24 2.115-1.685 4.161-2.5 4.162-2.979 2.114-1.696 1.91-1.26 4.162-3.317 2.115-1.815 2.046-1.468h0" clip-path="url(#p6ebe61b60b)" style="fill:none;stroke:#bcbd22;stroke-width:1.5;stroke-linecap:square" id="line2d_24"/><path d="m131.295 280.087 2.115-4.447 14.462-1.88 6.276-1.066 8.323-.99 4.161-.738 4.23-.772 4.024-.816 6.208-.782 6.276-.707 8.391-.924 8.254-.544 16.714-.424 1.91-1.63 2.115-.99 2.046-.76 4.161-1.882 4.23-2.446 4.161-2.207 2.047-1.424 8.254-4.685 6.208-3.273 2.115-1.478 2.114-1.033 4.162-2.359 2.046-1.642 4.23-2.62 4.024-2.902 2.047-1.805 4.161-3.022 4.23-2.599 8.322-5.664 4.093-3.348 2.115-1.435 4.161-3.164 2.047-1.413 4.23-2.566 2.046-1.598 4.161-2.761 2.115-1.12 2.115-1.315 4.025-2.903 2.046-1.272 2.115-.957 6.276-3.272 4.161-2.011 2.047-1.185 12.415-5.751 4.162-1.577 8.322-3.196 2.115-.576 4.025-1.457 2.115-1.022 4.16-1.696 10.438-3.163 2.047-.75 6.208-1.49 2.114-.75 18.76-4.935 2.115-.414 6.071-1.5 6.276-1.478 4.162-.772 2.114-.446 2.047-.576 10.3-2.25 4.162-1.044h0" clip-path="url(#p6ebe61b60b)" style="fill:none;stroke:#7f7f7f;stroke-width:1.5;stroke-linecap:square" id="line2d_25"/><path d="m309.958 280.087 2.046-.24 2.115-1.5 2.046-1.065 2.115-1.109 2.115-1.402 1.91-5.469 2.115-2.38 2.046-2.588 2.115-2.566 2.046-2.511 2.115-2.414 2.115-2.467 2.047-2.305 2.114-3.718 2.047-3.87 2.115-2.381 2.114-2.435 1.91-1.914 2.115-2.718 2.047-3.055 2.114-2.924 2.047-2.38 2.115-2.773 2.114-2.577 2.047-2.272 2.115-2.228 2.046-2.555 2.115-2.153 2.115-2.413 1.91-2.272 2.115-2.577 2.046-2.653 2.115-2.098 2.046-1.87 2.115-1.957 2.115-1.989 2.046-1.5 2.115-1.75 2.047-1.794 2.115-1.49 2.114-1.467 1.979-1.631 2.114-1.337 2.047-2 2.115-1.718 2.046-1.598 2.115-1.283 2.115-1.446 2.046-1.707 2.115-1.37 2.046-1.609 2.115-1.576 2.115-1.446 1.91-1.163 2.115-1.522 2.046-1.327 2.115-1.25 2.047-1.065 2.114-1.261 2.115-1.131 2.047-.913 2.114-.957 2.047-1.044 2.115-1.12 2.114-.978 1.91-.87 2.115-1.098 2.047-.847 2.115-1.077 2.046-1.098" clip-path="url(#p6ebe61b60b)" style="fill:none;stroke:#e377c2;stroke-width:1.5;stroke-linecap:square" id="line2d_26"/><path d="m247.538 280.087 2.115-1.424 2.047-1.599 2.114-1.195 2.047-1.229 2.115-2.348 2.114-1.99 2.047-1.359 2.115-1.108 2.046-1.24 2.115-1.598 2.115-1.718 1.91-1.913 2.114-2.185 2.047-1.718 2.115-1.663 2.046-1.903 2.115-1.522 2.115-1.87 2.046-5.305 2.115-1.674 2.047-1.794 2.114-1.468 2.115-1.685 1.978-1.5 2.115-1.761 2.047-2.022 2.114-1.533 2.047-1.533 2.115-1.815 2.115-1.936 2.046-1.804 2.115-1.5 2.046-1.794 2.115-1.457 2.115-1.457 1.91-1.174 2.115-2.066 2.046-1.467 2.115-1.37 2.046-1.652 2.115-1.512 2.115-1.739 2.047-1.446 2.114-1.652 2.047-1.87 2.115-1.75 2.114-1.61 1.91-1.5 2.115-2.522 2.047-1.837 2.114-1.75 2.047-1.468 2.115-1.729 2.114-1.924 2.047-1.761 2.115-1.74 2.046-1.707 2.115-1.978 2.115-1.783 1.91-1.337 2.115-2.11 2.046-2.358 2.115-1.957 2.046-1.598 2.115-1.696 2.115-1.772 2.046-1.435 2.115-1.435 2.047-1.185 2.115-1.566 2.114-1.565 1.979-1.577 2.114-1.728 2.047-1.772 2.115-2.033 2.046-1.577 2.115-1.315 2.115-1.5 2.046-1.349 2.115-1.358 2.046-1.479 2.115-1.24 2.115-1.37 1.91-1.021 2.115-1.446 2.046-1.087 2.115-1.218 2.047-1.26 2.114-1.001 2.115-1.37 2.047-1.293 2.114-1.327 2.047-1.337 2.115-1.479 2.114-1.206 1.91-1.066 2.115-1.26 2.047-1.37 2.115-1.099 2.046-1.359" clip-path="url(#p6ebe61b60b)" style="fill:none;stroke:#8c564b;stroke-width:1.5;stroke-linecap:square" id="line2d_27"/><path d="m137.571 280.087 2.115-11.372 6.276-1.49 1.91-.64 2.115-.533 4.161-1.272 4.161-.74 4.162-.945 2.114-.653 10.301-2.533 4.162-.826 14.598-2.24 10.37-.87 12.483-.445 4.23-.033 1.91-.75 6.276-3.359 2.046-.696 4.23-2.163 2.046-.86 2.115-1.075 2.047-.903 4.23-2.065 1.91-1.707 2.114-.946 14.599-7.85 16.508-9.24 4.23-2.533 2.046-1.163 4.162-2.816 2.114-1.185 12.416-7.795 2.115-1.087 2.115-1.359 2.046-1.152 4.161-2.555 2.115-1.011 2.115-1.24 4.025-2.554 6.207-3.675 4.23-2.109 18.623-10.763 2.047-1.337 2.115-1.109 2.114-1.424 8.323-4.925 4.025-3.304 6.276-4.643 2.046-1.152 2.115-1.598 2.115-1.913 2.046-1.381 2.115-1.903 4.162-2.718 2.114-1.554 6.14-5.534 2.115-2.283 2.046-2.033 2.115-1.728 2.115-1.533 2.046-1.685 8.391-5.903 1.91-1.588 2.115-1.902 10.437-7.969 4.161-3.805 2.047-2.044 4.23-3.533 1.91-1.707 2.114-1.685 4.162-3.75 2.046-1.784h0" clip-path="url(#p6ebe61b60b)" style="fill:none;stroke:#9467bd;stroke-width:1.5;stroke-linecap:square" id="line2d_28"/><path d="m230.961 280.087 2.115-9.796 2.115-3.652 2.046-2.75 2.115-2.088 2.047-2.098 2.114-1.914 2.115-2.207 1.91-1.685 2.115-1.522 2.047-1.674 2.114-1.468 2.047-1.424 2.115-1.76 2.114-1.675 2.047-1.544 2.115-1.576 2.046-1.479 2.115-1.457 2.115-1.62 1.91-1.848 2.114-1.804 2.047-1.881 2.115-1.935 2.046-2.022 2.115-1.837 2.115-1.522 2.046-1.827 2.115-2.109 2.047-2.261 2.114-1.881 2.115-2.348 1.978-2.077 2.115-2.12 2.047-1.87 2.114-1.685 2.047-1.674 2.115-1.63 2.115-1.664 2.046-1.598 2.115-1.794 2.046-1.5 2.115-1.652 2.115-1.61 1.91-1.521 2.115-1.99 2.046-1.728 2.115-1.642 2.046-1.479 2.115-1.489 2.115-1.337 2.047-1.479 2.114-1.554 2.047-1.49 2.115-1.326 2.114-1.805 1.91-1.49 2.115-1.5 2.047-1.293 2.114-1.555 2.047-1.424 2.115-1.424 2.114-1.359 2.047-1.392 2.115-1.293 2.046-1.272 2.115-1.272 2.115-1.544 1.91-1.207 2.115-1.706 2.046-1.555 2.115-1.533 2.046-1.522 2.115-1.62 2.115-1.413 2.046-1.359 2.115-1.326 2.047-1.425 2.115-1.348 2.114-1.424 1.979-1.304 2.114-1.49 2.047-1.641 2.115-2.022 2.046-1.5 2.115-1.599 2.115-1.293 2.046-1.457 2.115-1.555 2.046-1.478 2.115-1.403 2.115-1.565 1.91-1.533 2.115-1.577 2.046-1.26 2.115-1.37 2.047-1.294 2.114-1.435 2.115-1.326 2.047-1.338 2.114-1.337 2.047-1.587 2.115-1.555 2.114-1.685 1.91-1.24 2.115-1.445 2.047-1.272 2.115-1.435 2.046-1.326" clip-path="url(#p6ebe61b60b)" style="fill:none;stroke:#d62728;stroke-width:1.5;stroke-linecap:square" id="line2d_29"/><path d="m98.073 280.087 2.115-.63 2.046-.49 4.162-.49 2.114-.13 8.323-1.12 4.23-.847 4.024-.892 2.047-.293 4.161-.816 6.276-1.054 4.161-.924 4.23-.827 6.071-1.185 4.162-.576 4.23-.674 6.207-1.272 4.23-1 4.024-.99 4.162-.858 8.322-1.24 12.484-1.598 10.437-.489 10.438-.217 6.071-2.425 2.115-.956 4.161-1.479 2.115-1.022 2.046-.674 8.391-3.38 1.91-1.088 4.162-1.859 2.114-.87 4.162-2.044 6.276-2.783 2.046-1.195 2.115-.903 8.186-5.186 6.276-4.283 4.161-2.522 2.115-1.468 2.047-1.62 6.207-3.957 2.115-1.74 8.323-6 6.276-4.642 2.046-1.664 4.23-2.707 1.91-1.652 4.161-3.186 6.276-4.152 4.162-3.686 2.114-1.565 2.047-1.74 2.115-1.63 2.114-2.055 1.91-1.522 4.162-3.653 2.114-1.555 2.047-1.663 2.115-2.055 14.462-11.828 4.161-3.935 4.161-3.294 8.391-6.719 2.047-1.729 6.208-4.75 4.16-4.436 2.116-2.435 4.16-3.523 8.323-6.903 2.115-2.24 2.115-1.913 1.91-2.13 2.115-1.99 2.046-1.587 2.115-1.957 2.047-1.566 4.23-4.272 2.046-1.761 6.276-6.088 4.025-4.24 2.114-1.718 4.162-3.827 2.046-1.891h0" clip-path="url(#p6ebe61b60b)" style="fill:none;stroke:#2ca02c;stroke-width:1.5;stroke-linecap:square" id="line2d_30"/><path d="m351.366 280.087 2.114-.022 2.047-.054 2.115-.761 2.114-.577 2.047-.326 2.115-.87 2.046-1.978 2.115-2.272 2.115-2.25 1.91-3.425 2.115-12.828 2.046-10.415 2.115-6.882 2.046-5.468 2.115-5.882 2.115-5.968 2.046-5.708 2.115-5.533 2.047-6.719 2.115-5.23 2.114-4.967 1.979-5.273 2.114-5.827 2.047-6.936 2.115-7.73 2.046-6.958 2.115-5.566 2.115-5.392 2.046-5.99 2.115-5.295 2.046-5.772 2.115-5.186 2.115-5.012 1.91-3.935 2.115-4.523 2.046-4.229 2.115-4.283 2.047-3.446 2.114-3.849 2.115-4.022 2.047-3.62 2.114-3.816 2.047-4.284 2.115-4.24 2.114-4.5 1.91-3.447 2.115-3.946 2.047-4.175 2.115-4.25 2.046-3.838" clip-path="url(#p6ebe61b60b)" style="fill:none;stroke:#ff7f0e;stroke-width:1.5;stroke-linecap:square" id="line2d_31"/><path d="m199.854 280.087 2.047-7.426 2.114-.087 2.047-.108 2.115-.065 2.114-.12 2.047-.13 2.115-.055 2.046-.054 2.115-.033 2.115-.065 1.91-2.38 2.115-1.773 2.046-1.685 2.115-2.098 2.046-1.598 2.115-4.86 2.115-2.62 2.046-1.555 2.115-1.663 2.047-4.218 2.114-3.261 2.115-1.98 1.91-2.01 2.115-2.349 2.047-2.283 2.114-1.695 2.047-1.827 2.115-1.924 2.114-2.196 2.047-1.63 2.115-2.023 2.046-2.816 2.115-1.957 2.115-2.63 1.91-2.055 2.114-2.457 2.047-2.957 2.115-3.099 2.046-2.315 2.115-2.5 2.115-2.751 2.046-2.74 2.115-2.587 2.047-3.066 2.114-2.718 2.115-3.413 1.978-2.86 2.115-2.772 2.047-3.13 2.114-2.74 2.047-2.436 2.115-2.674 2.115-2.827 2.046-2.837 2.115-2.761 2.046-2.544 2.115-2.75 2.115-2.523 1.91-2.88 2.115-3.523 2.046-2.696 2.115-2.686 2.046-2.076 2.115-2.207 2.115-2.435 2.047-2.479 2.114-2.533 2.047-2.598 2.115-2.435 2.114-2.675 1.91-2.185 2.115-3.011 2.047-2.697 2.114-2.707 2.047-2.663 2.115-2.598 2.114-2.425 2.047-2.402 2.115-2.305 2.046-2.653 2.115-2.163 2.115-2.511 1.91-2.033 2.115-2.86 2.046-2.848 2.115-2.424 2.046-1.783 2.115-2.479 2.115-2.196 2.046-2.24 2.115-2.315 2.047-2.12 2.115-2.5 2.114-1.75 1.979-1.718 2.114-2.457 2.047-2.218 2.115-2.435 2.046-2.099 2.115-1.837 2.115-2.174 2.046-1.805 2.115-2.022 2.046-1.772 2.115-1.946 2.115-1.457 1.91-1.609 2.115-1.859 2.046-1.63 2.115-1.61 2.047-1.228 2.114-1.511 2.115-1.479 2.047-1.435 2.114-1.141 2.047-1.413 2.115-1.37 2.114-1.522 1.91-1.272 2.115-1.74 2.047-1.37 2.115-1.163 2.046-1.043" clip-path="url(#p6ebe61b60b)" style="fill:none;stroke:#1f77b4;stroke-width:1.5;stroke-linecap:square" id="line2d_32"/></g></g><defs><clipPath id="p6ebe61b60b"><path d="M98.073 13.975h357.12v266.112H98.073z"/></clipPath></defs></svg>