<svg xmlns:xlink="http://www.w3.org/1999/xlink" width="922.449" height="441.054" viewBox="0 0 691.837 330.79" xmlns="http://www.w3.org/2000/svg"><defs><style>*{stroke-linejoin:round;stroke-linecap:butt}</style></defs><g id="figure_1"><path d="M0 330.79h691.837V0H0v330.79z" style="fill:none" id="patch_1"/><g id="axes_1"><path d="M98.073 287.263h357.12V21.151H98.073v266.112z" style="fill:none" id="patch_2"/><g id="matplotlib.axis_1"><g id="xtick_1"><g id="line2d_1"><defs><path id="m6f81545d2d" d="M0 0v3.5" style="stroke:#b0b0b0;stroke-width:.4"/></defs><use xlink:href="#m6f81545d2d" x="106.801" y="287.263" style="fill:#b0b0b0;stroke:#b0b0b0;stroke-width:.4"/></g><g style="fill:#b0b0b0" transform="matrix(.14 0 0 -.14 88.986 304.901)" id="text_1"><defs><path id="DejaVuSans-32" d="M1228 531h2203V0H469v531q359 372 979 998 621 627 780 809 303 340 423 576 121 236 121 464 0 372-261 606-261 235-680 235-297 0-627-103-329-103-704-313v638q381 153 712 231 332 78 607 78 725 0 1156-363 431-362 431-968 0-288-108-546-107-257-392-607-78-91-497-524-418-433-1181-1211z" transform="scale(.01563)"/><path id="DejaVuSans-30" d="M2034 4250q-487 0-733-480-245-479-245-1442 0-959 245-1439 246-480 733-480 491 0 736 480 246 480 246 1439 0 963-246 1442-245 480-736 480zm0 500q785 0 1199-621 414-620 414-1801 0-1178-414-1799Q2819-91 2034-91q-784 0-1198 620-414 621-414 1799 0 1181 414 1801 414 621 1198 621z" transform="scale(.01563)"/><path id="DejaVuSans-31" d="M794 531h1031v3560L703 3866v575l1116 225h631V531h1031V0H794v531z" transform="scale(.01563)"/><path id="DejaVuSans-36" d="M2113 2584q-425 0-674-291-248-290-248-796 0-503 248-796 249-292 674-292t673 292q248 293 248 796 0 506-248 796-248 291-673 291zm1253 1979v-575q-238 112-480 171-242 60-480 60-625 0-955-422-329-422-376-1275 184 272 462 417 279 145 613 145 703 0 1111-427 408-426 408-1160 0-719-425-1154Q2819-91 2113-91q-810 0-1238 620-428 621-428 1799 0 1106 525 1764t1409 658q238 0 480-47t505-140z" transform="scale(.01563)"/></defs><use xlink:href="#DejaVuSans-32"/><use xlink:href="#DejaVuSans-30" x="63.623"/><use xlink:href="#DejaVuSans-31" x="127.246"/><use xlink:href="#DejaVuSans-36" x="190.869"/></g></g><g id="xtick_2"><use xlink:href="#m6f81545d2d" x="159.167" y="287.263" style="fill:#b0b0b0;stroke:#b0b0b0;stroke-width:.4" id="line2d_2"/><g style="fill:#b0b0b0" transform="matrix(.14 0 0 -.14 141.352 304.901)" id="text_2"><defs><path id="DejaVuSans-37" d="M525 4666h3000v-269L1831 0h-659l1594 4134H525v532z" transform="scale(.01563)"/></defs><use xlink:href="#DejaVuSans-32"/><use xlink:href="#DejaVuSans-30" x="63.623"/><use xlink:href="#DejaVuSans-31" x="127.246"/><use xlink:href="#DejaVuSans-37" x="190.869"/></g></g><g id="xtick_3"><use xlink:href="#m6f81545d2d" x="211.39" y="287.263" style="fill:#b0b0b0;stroke:#b0b0b0;stroke-width:.4" id="line2d_3"/><g style="fill:#b0b0b0" transform="matrix(.14 0 0 -.14 193.575 304.901)" id="text_3"><defs><path id="DejaVuSans-38" d="M2034 2216q-450 0-708-241-257-241-257-662 0-422 257-663 258-241 708-241t709 242q260 243 260 662 0 421-258 662-257 241-711 241zm-631 268q-406 100-633 378-226 279-226 679 0 559 398 884 399 325 1092 325 697 0 1094-325t397-884q0-400-227-679-226-278-629-378 456-106 710-416 255-309 255-755 0-679-414-1042Q2806-91 2034-91q-771 0-1186 362-414 363-414 1042 0 446 256 755 257 310 713 416zm-231 997q0-362 226-565 227-203 636-203 407 0 636 203 230 203 230 565 0 363-230 566-229 203-636 203-409 0-636-203-226-203-226-566z" transform="scale(.01563)"/></defs><use xlink:href="#DejaVuSans-32"/><use xlink:href="#DejaVuSans-30" x="63.623"/><use xlink:href="#DejaVuSans-31" x="127.246"/><use xlink:href="#DejaVuSans-38" x="190.869"/></g></g><g id="xtick_4"><use xlink:href="#m6f81545d2d" x="263.613" y="287.263" style="fill:#b0b0b0;stroke:#b0b0b0;stroke-width:.4" id="line2d_4"/><g style="fill:#b0b0b0" transform="matrix(.14 0 0 -.14 245.798 304.901)" id="text_4"><defs><path id="DejaVuSans-39" d="M703 97v575q238-113 481-172 244-59 479-59 625 0 954 420 330 420 377 1277-181-269-460-413-278-144-615-144-700 0-1108 423-408 424-408 1159 0 718 425 1152 425 435 1131 435 810 0 1236-621 427-620 427-1801 0-1103-524-1761Q2575-91 1691-91q-238 0-482 47Q966 3 703 97zm1256 1978q425 0 673 290 249 291 249 798 0 503-249 795-248 292-673 292t-673-292q-248-292-248-795 0-507 248-798 248-290 673-290z" transform="scale(.01563)"/></defs><use xlink:href="#DejaVuSans-32"/><use xlink:href="#DejaVuSans-30" x="63.623"/><use xlink:href="#DejaVuSans-31" x="127.246"/><use xlink:href="#DejaVuSans-39" x="190.869"/></g></g><g id="xtick_5"><use xlink:href="#m6f81545d2d" x="315.836" y="287.263" style="fill:#b0b0b0;stroke:#b0b0b0;stroke-width:.4" id="line2d_5"/><g style="fill:#b0b0b0" transform="matrix(.14 0 0 -.14 298.021 304.901)" id="text_5"><use xlink:href="#DejaVuSans-32"/><use xlink:href="#DejaVuSans-30" x="63.623"/><use xlink:href="#DejaVuSans-32" x="127.246"/><use xlink:href="#DejaVuSans-30" x="190.869"/></g></g><g id="xtick_6"><use xlink:href="#m6f81545d2d" x="368.202" y="287.263" style="fill:#b0b0b0;stroke:#b0b0b0;stroke-width:.4" id="line2d_6"/><g style="fill:#b0b0b0" transform="matrix(.14 0 0 -.14 350.387 304.901)" id="text_6"><use xlink:href="#DejaVuSans-32"/><use xlink:href="#DejaVuSans-30" x="63.623"/><use xlink:href="#DejaVuSans-32" x="127.246"/><use xlink:href="#DejaVuSans-31" x="190.869"/></g></g><g id="xtick_7"><use xlink:href="#m6f81545d2d" x="420.425" y="287.263" style="fill:#b0b0b0;stroke:#b0b0b0;stroke-width:.4" id="line2d_7"/><g style="fill:#b0b0b0" transform="matrix(.14 0 0 -.14 402.61 304.901)" id="text_7"><use xlink:href="#DejaVuSans-32"/><use xlink:href="#DejaVuSans-30" x="63.623"/><use xlink:href="#DejaVuSans-32" x="127.246"/><use xlink:href="#DejaVuSans-32" x="190.869"/></g></g></g><g id="matplotlib.axis_2"><g id="ytick_1"><path d="M98.073 287.263h357.12" clip-path="url(#p3e577cded7)" style="fill:none;stroke:#b0b0b0;stroke-width:.3;stroke-linecap:square" id="line2d_8"/><g id="line2d_9"><defs><path id="m941f54dec6" d="M0 0h-3.5" style="stroke:#b0b0b0;stroke-width:.3"/></defs><use xlink:href="#m941f54dec6" x="98.073" y="287.263" style="fill:#b0b0b0;stroke:#b0b0b0;stroke-width:.3"/></g><use xlink:href="#DejaVuSans-30" style="fill:#b0b0b0" transform="matrix(.14 0 0 -.14 82.166 292.582)" id="text_8"/></g><g id="ytick_2"><path d="M98.073 247.28h357.12" clip-path="url(#p3e577cded7)" style="fill:none;stroke:#b0b0b0;stroke-width:.3;stroke-linecap:square" id="line2d_10"/><use xlink:href="#m941f54dec6" x="98.073" y="247.279" style="fill:#b0b0b0;stroke:#b0b0b0;stroke-width:.3" id="line2d_11"/><g style="fill:#b0b0b0" transform="matrix(.14 0 0 -.14 55.443 252.598)" id="text_9"><use xlink:href="#DejaVuSans-32"/><use xlink:href="#DejaVuSans-30" x="63.623"/><use xlink:href="#DejaVuSans-30" x="127.246"/><use xlink:href="#DejaVuSans-30" x="190.869"/></g></g><g id="ytick_3"><path d="M98.073 207.296h357.12" clip-path="url(#p3e577cded7)" style="fill:none;stroke:#b0b0b0;stroke-width:.3;stroke-linecap:square" id="line2d_12"/><use xlink:href="#m941f54dec6" x="98.073" y="207.296" style="fill:#b0b0b0;stroke:#b0b0b0;stroke-width:.3" id="line2d_13"/><g style="fill:#b0b0b0" transform="matrix(.14 0 0 -.14 55.443 212.615)" id="text_10"><defs><path id="DejaVuSans-34" d="M2419 4116 825 1625h1594v2491zm-166 550h794V1625h666v-525h-666V0h-628v1100H313v609l1940 2957z" transform="scale(.01563)"/></defs><use xlink:href="#DejaVuSans-34"/><use xlink:href="#DejaVuSans-30" x="63.623"/><use xlink:href="#DejaVuSans-30" x="127.246"/><use xlink:href="#DejaVuSans-30" x="190.869"/></g></g><g id="ytick_4"><path d="M98.073 167.312h357.12" clip-path="url(#p3e577cded7)" style="fill:none;stroke:#b0b0b0;stroke-width:.3;stroke-linecap:square" id="line2d_14"/><use xlink:href="#m941f54dec6" x="98.073" y="167.312" style="fill:#b0b0b0;stroke:#b0b0b0;stroke-width:.3" id="line2d_15"/><g style="fill:#b0b0b0" transform="matrix(.14 0 0 -.14 55.443 172.63)" id="text_11"><use xlink:href="#DejaVuSans-36"/><use xlink:href="#DejaVuSans-30" x="63.623"/><use xlink:href="#DejaVuSans-30" x="127.246"/><use xlink:href="#DejaVuSans-30" x="190.869"/></g></g><g id="ytick_5"><path d="M98.073 127.328h357.12" clip-path="url(#p3e577cded7)" style="fill:none;stroke:#b0b0b0;stroke-width:.3;stroke-linecap:square" id="line2d_16"/><use xlink:href="#m941f54dec6" x="98.073" y="127.328" style="fill:#b0b0b0;stroke:#b0b0b0;stroke-width:.3" id="line2d_17"/><g style="fill:#b0b0b0" transform="matrix(.14 0 0 -.14 55.443 132.647)" id="text_12"><use xlink:href="#DejaVuSans-38"/><use xlink:href="#DejaVuSans-30" x="63.623"/><use xlink:href="#DejaVuSans-30" x="127.246"/><use xlink:href="#DejaVuSans-30" x="190.869"/></g></g><g id="ytick_6"><path d="M98.073 87.344h357.12" clip-path="url(#p3e577cded7)" style="fill:none;stroke:#b0b0b0;stroke-width:.3;stroke-linecap:square" id="line2d_18"/><use xlink:href="#m941f54dec6" x="98.073" y="87.344" style="fill:#b0b0b0;stroke:#b0b0b0;stroke-width:.3" id="line2d_19"/><g style="fill:#b0b0b0" transform="matrix(.14 0 0 -.14 46.536 92.663)" id="text_13"><use xlink:href="#DejaVuSans-31"/><use xlink:href="#DejaVuSans-30" x="63.623"/><use xlink:href="#DejaVuSans-30" x="127.246"/><use xlink:href="#DejaVuSans-30" x="190.869"/><use xlink:href="#DejaVuSans-30" x="254.492"/></g></g><g id="ytick_7"><path d="M98.073 47.36h357.12" clip-path="url(#p3e577cded7)" style="fill:none;stroke:#b0b0b0;stroke-width:.3;stroke-linecap:square" id="line2d_20"/><use xlink:href="#m941f54dec6" x="98.073" y="47.361" style="fill:#b0b0b0;stroke:#b0b0b0;stroke-width:.3" id="line2d_21"/><g style="fill:#b0b0b0" transform="matrix(.14 0 0 -.14 46.536 52.68)" id="text_14"><use xlink:href="#DejaVuSans-31"/><use xlink:href="#DejaVuSans-32" x="63.623"/><use xlink:href="#DejaVuSans-30" x="127.246"/><use xlink:href="#DejaVuSans-30" x="190.869"/><use xlink:href="#DejaVuSans-30" x="254.492"/></g></g><g style="fill:#b0b0b0" transform="matrix(.14 0 0 -.14 7.2 17.838)" id="text_15"><defs><path id="DejaVuSans-47" d="M3809 666v1253H2778v519h1656V434q-365-259-806-392-440-133-940-133-1094 0-1712 639-617 640-617 1780 0 1144 617 1783 618 639 1712 639 456 0 867-113 411-112 758-331v-672q-350 297-744 447t-828 150q-857 0-1287-478-429-478-429-1425 0-944 429-1422 430-478 1287-478 334 0 596 58 263 58 472 180z" transform="scale(.01563)"/><path id="DejaVuSans-69" d="M603 3500h575V0H603v3500zm0 1363h575v-729H603v729z" transform="scale(.01563)"/><path id="DejaVuSans-74" d="M1172 4494v-994h1184v-447H1172V1153q0-428 117-550t477-122h590V0h-590q-666 0-919 248-253 249-253 905v1900H172v447h422v994h578z" transform="scale(.01563)"/><path id="DejaVuSans-48" d="M628 4666h631V2753h2294v1913h631V0h-631v2222H1259V0H628v4666z" transform="scale(.01563)"/><path id="DejaVuSans-75" d="M544 1381v2119h575V1403q0-497 193-746 194-248 582-248 465 0 735 297 271 297 271 810v1984h575V0h-575v538q-209-319-486-474-276-155-642-155-603 0-916 375-312 375-312 1097zm1447 2203z" transform="scale(.01563)"/><path id="DejaVuSans-62" d="M3116 1747q0 634-261 995t-717 361q-457 0-718-361t-261-995q0-634 261-995t718-361q456 0 717 361t261 995zM1159 2969q182 312 458 463 277 152 661 152 638 0 1036-506 399-506 399-1331T3314 415Q2916-91 2278-91q-384 0-661 152-276 152-458 464V0H581v4863h578V2969z" transform="scale(.01563)"/><path id="DejaVuSans-73" d="M2834 3397v-544q-243 125-506 187-262 63-544 63-428 0-642-131t-214-394q0-200 153-314t616-217l197-44q612-131 870-370t258-667q0-488-386-773Q2250-91 1575-91q-281 0-586 55T347 128v594q319-166 628-249 309-82 613-82 406 0 624 139 219 139 219 392 0 234-158 359-157 125-692 241l-200 47q-534 112-772 345-237 233-237 639 0 494 350 762 350 269 994 269 318 0 599-47 282-46 519-140z" transform="scale(.01563)"/><path id="DejaVuSans-61" d="M2194 1759q-697 0-966-159t-269-544q0-306 202-486 202-179 548-179 479 0 768 339t289 901v128h-572zm1147 238V0h-575v531q-197-318-491-470T1556-91q-537 0-855 302-317 302-317 808 0 590 395 890 396 300 1180 300h807v57q0 397-261 614t-733 217q-300 0-585-72-284-72-546-216v532q315 122 612 182 297 61 578 61 760 0 1135-394 375-393 375-1193z" transform="scale(.01563)"/><path id="DejaVuSans-72" d="M2631 2963q-97 56-211 82-114 27-251 27-488 0-749-317t-261-911V0H581v3500h578v-544q182 319 472 473 291 155 707 155 59 0 131-8 72-7 159-23l3-590z" transform="scale(.01563)"/></defs><use xlink:href="#DejaVuSans-47"/><use xlink:href="#DejaVuSans-69" x="77.49"/><use xlink:href="#DejaVuSans-74" x="105.273"/><use xlink:href="#DejaVuSans-48" x="144.482"/><use xlink:href="#DejaVuSans-75" x="219.678"/><use xlink:href="#DejaVuSans-62" x="283.057"/><use xlink:href="#DejaVuSans-20" x="346.533"/><use xlink:href="#DejaVuSans-73" x="378.32"/><use xlink:href="#DejaVuSans-74" x="430.42"/><use xlink:href="#DejaVuSans-61" x="469.629"/><use xlink:href="#DejaVuSans-72" x="530.908"/><use xlink:href="#DejaVuSans-73" x="572.021"/></g></g><path d="m307.109 287.263 4.292-2.039 4.435-4.878 4.436-1.92 4.149-1.719 4.435-1.619 4.293-1.64 4.435-1.878 4.292-1.38 4.436-1.04 4.435-1.599 4.292-2.379 4.436-1.62 4.292-1.639 4.435-1.479 4.436-1.96 4.006-1.798 4.435-1.98 4.293-1.519 4.435-2.14 4.292-1.838 4.436-2.94 4.435-1.958 4.292-1.8 4.436-1.619 4.292-1.54 4.435-1.779 4.436-1.759 4.006-1.36 4.435-1.699 4.293-1.779 4.435-2.319 4.292-2.819 4.436-2.079 4.435-2.06" clip-path="url(#p3e577cded7)" style="fill:none;stroke:#17becf;stroke-width:1.5;stroke-linecap:square" id="line2d_22"/><path d="m202.662 287.263 4.293-2.919 4.435-1.659 4.435-1.28 4.007-1.279 4.435-1.3 4.292-.919 4.436-.96 4.292-1.14 4.435-1.019 4.436-1.3 4.292-1.239 4.435-1.4 4.293-1.878 4.435-1.06 4.436-1.4 4.006-1.199 4.435-1.76 4.292-2.358 4.436-1.88 4.292-1.399 4.435-1.12 4.436-1.259 4.292-1.62 4.436-2.278 4.292-1.44 4.435-1.02 4.436-1.719 4.149-1.4 4.435-1.658 4.293-1.7 4.435-2.019 4.292-2.079 4.436-1.6 4.435-1.559 4.292-1.36 4.436-1.359 4.292-1.18 4.435-.999 4.436-1.02 4.006-1.079 4.435-1.32 4.293-1.319 4.435-1.14 4.292-.82 4.436-1.079 4.435-.6 4.292-1.239 4.436-.84 4.292-.8 4.435-.759 4.436-.58 4.006-.7 4.435-.879 4.293-.76 4.435-.8 4.292-.82 4.436-.659 4.435-.86" clip-path="url(#p3e577cded7)" style="fill:none;stroke:#bcbd22;stroke-width:1.5;stroke-linecap:square" id="line2d_23"/><path d="m119.82 287.263 4.293-.02 4.436-.04 4.292-.04 4.435-.12 4.436-.06 4.292-.2 4.435-.1 4.293-.22 4.435-.16 4.435-.28 4.007-.22 4.435-.12 4.292-.379 4.436-.28 4.292-.14 4.435-.34 4.436-.22 4.292-.32 4.435-2.478 4.293-.56 4.435-.54 4.435-.58 4.007-.58 4.435-.72 4.292-.879 4.436-.7 4.292-.64 4.435-.5 4.436-.779 4.292-1.08 4.435-1.039 4.293-1.04 4.435-.58 4.436-4.438 4.006-1.559 4.435-.86 4.292-1.259 4.436-1.34 4.292-.72 4.435-1.379 4.436-1.36 4.292-.919 4.436-1.02 4.292-1.219 4.435-1.16 4.436-3.318 4.149-1.82 4.435-1.459 4.293-1.819 4.435-1.64 4.292-1.519 4.436-1.539 4.435-.88 4.292-1.04 4.436-1.459 4.292-1.14 4.435-1.599 4.436-1.06 4.006-1.139 4.435-1.04 4.293-1.599 4.435-1.04 4.292-1.199 4.436-1.759 4.435-1.14 4.292-.92 4.436-1.159 4.292-1.06 4.435-1.679 4.436-1.359 4.006-1.44 4.435-1.299 4.293-1.16 4.435-1.219 4.292-1.08 4.436-1.459 4.435-1.6" clip-path="url(#p3e577cded7)" style="fill:none;stroke:#7f7f7f;stroke-width:1.5;stroke-linecap:square" id="line2d_24"/><g style="fill:#1f77b4" transform="matrix(.14 0 0 -.14 465.907 25.014)" id="text_16"><defs><path id="DejaVuSans-6e" d="M3513 2113V0h-575v2094q0 497-194 743-194 247-581 247-466 0-735-297-269-296-269-809V0H581v3500h578v-544q207 316 486 472 280 156 646 156 603 0 912-373 310-373 310-1098z" transform="scale(.01563)"/><path id="DejaVuSans-67" d="M2906 1791q0 625-258 968-257 344-723 344-462 0-720-344-258-343-258-968 0-622 258-966t720-344q466 0 723 344 258 344 258 966zm575-1357q0-893-397-1329-396-436-1215-436-303 0-572 45t-522 139v559q253-137 500-202 247-66 503-66 566 0 847 295t281 892v285q-178-310-456-463T1784 0Q1141 0 747 490 353 981 353 1791q0 812 394 1302 394 491 1037 491 388 0 666-153t456-462v531h575V434z" transform="scale(.01563)"/><path id="DejaVuSans-2f" d="M1625 4666h531L531-594H0l1625 5260z" transform="scale(.01563)"/><path id="DejaVuSans-63" d="M3122 3366v-538q-244 135-489 202t-495 67q-560 0-870-355-309-354-309-995t309-996q310-354 870-354 250 0 495 67t489 202V134Q2881 22 2623-34q-257-57-548-57-791 0-1257 497-465 497-465 1341 0 856 470 1346 471 491 1290 491 265 0 518-55 253-54 491-163z" transform="scale(.01563)"/><path id="DejaVuSans-6f" d="M1959 3097q-462 0-731-361t-269-989q0-628 267-989 268-361 733-361 460 0 728 362 269 363 269 988 0 622-269 986-268 364-728 364zm0 487q750 0 1178-488 429-487 429-1349 0-859-429-1349Q2709-91 1959-91q-753 0-1180 489-426 490-426 1349 0 862 426 1349 427 488 1180 488z" transform="scale(.01563)"/><path id="DejaVuSans-64" d="M2906 2969v1894h575V0h-575v525q-181-312-458-464-276-152-664-152-634 0-1033 506-398 507-398 1332t398 1331q399 506 1033 506 388 0 664-152 277-151 458-463zM947 1747q0-634 261-995t717-361q456 0 718 361 263 361 263 995t-263 995q-262 361-718 361t-717-361q-261-361-261-995z" transform="scale(.01563)"/><path id="DejaVuSans-65" d="M3597 1894v-281H953q38-594 358-905t892-311q331 0 642 81t618 244V178Q3153 47 2828-22t-659-69q-838 0-1327 487-489 488-489 1320 0 859 464 1363 464 505 1252 505 706 0 1117-455 411-454 411-1235zm-575 169q-6 471-264 752-258 282-683 282-481 0-770-272t-333-766l2050 4z" transform="scale(.01563)"/><path id="DejaVuSans-6c" d="M603 4863h575V0H603v4863z" transform="scale(.01563)"/><path id="DejaVuSans-66" d="M2375 4863v-479h-550q-309 0-430-125-120-125-120-450v-309h947v-447h-947V0H697v3053H147v447h550v244q0 584 272 851 272 268 862 268h544z" transform="scale(.01563)"/></defs><use xlink:href="#DejaVuSans-75"/><use xlink:href="#DejaVuSans-6e" x="63.379"/><use xlink:href="#DejaVuSans-62" x="126.758"/><use xlink:href="#DejaVuSans-75" x="190.234"/><use xlink:href="#DejaVuSans-67" x="253.613"/><use xlink:href="#DejaVuSans-2f" x="317.09"/><use xlink:href="#DejaVuSans-63" x="350.781"/><use xlink:href="#DejaVuSans-6f" x="405.762"/><use xlink:href="#DejaVuSans-64" x="466.943"/><use xlink:href="#DejaVuSans-65" x="530.42"/><use xlink:href="#DejaVuSans-6c" x="591.943"/><use xlink:href="#DejaVuSans-66" x="619.727"/></g><g style="fill:#ff7f0e" transform="matrix(.14 0 0 -.14 465.907 68.717)" id="text_17"><defs><path id="DejaVuSans-56" d="M1831 0 50 4666h659L2188 738l1481 3928h656L2547 0h-716z" transform="scale(.01563)"/><path id="DejaVuSans-53" d="M3425 4513v-616q-359 172-678 256-319 85-616 85-515 0-795-200t-280-569q0-310 186-468 186-157 705-254l381-78q706-135 1042-474t336-907q0-679-455-1029Q2797-91 1919-91q-331 0-705 75-373 75-773 222v650q384-215 753-325 369-109 725-109 540 0 834 212 294 213 294 607 0 343-211 537t-692 291l-385 75q-706 140-1022 440-315 300-315 835 0 619 436 975t1201 356q329 0 669-60 341-59 697-177z" transform="scale(.01563)"/><path id="DejaVuSans-43" d="M4122 4306v-665q-319 297-680 443-361 147-767 147-800 0-1225-489t-425-1414q0-922 425-1411t1225-489q406 0 767 147t680 444V359q-331-225-702-338-370-112-782-112-1060 0-1670 648-609 649-609 1771 0 1125 609 1773 610 649 1670 649 418 0 788-111 371-111 696-333z" transform="scale(.01563)"/><path id="DejaVuSans-6d" d="M3328 2828q216 388 516 572t706 184q547 0 844-383 297-382 297-1088V0h-578v2094q0 503-179 746-178 244-543 244-447 0-707-297-259-296-259-809V0h-578v2094q0 506-178 748t-550 242q-441 0-701-298-259-298-259-808V0H581v3500h578v-544q197 322 472 475t653 153q382 0 649-194 267-193 395-562z" transform="scale(.01563)"/></defs><use xlink:href="#DejaVuSans-56"/><use xlink:href="#DejaVuSans-53" x="68.408"/><use xlink:href="#DejaVuSans-43" x="131.885"/><use xlink:href="#DejaVuSans-6f" x="201.709"/><use xlink:href="#DejaVuSans-64" x="262.891"/><use xlink:href="#DejaVuSans-65" x="326.367"/><use xlink:href="#DejaVuSans-56" x="387.891"/><use xlink:href="#DejaVuSans-69" x="454.049"/><use xlink:href="#DejaVuSans-6d" x="481.832"/><use xlink:href="#DejaVuSans-2f" x="579.244"/><use xlink:href="#DejaVuSans-56" x="612.936"/><use xlink:href="#DejaVuSans-69" x="679.094"/><use xlink:href="#DejaVuSans-6d" x="706.877"/></g><g style="fill:#2ca02c" transform="matrix(.14 0 0 -.14 465.907 122.196)" id="text_18"><defs><path id="DejaVuSans-68" d="M3513 2113V0h-575v2094q0 497-194 743-194 247-581 247-466 0-735-297-269-296-269-809V0H581v4863h578V2956q207 316 486 472 280 156 646 156 603 0 912-373 310-373 310-1098z" transform="scale(.01563)"/><path id="DejaVuSans-76" d="M191 3500h609L1894 563l1094 2937h609L2284 0h-781L191 3500z" transform="scale(.01563)"/><path id="DejaVuSans-2d" d="M313 2009h1684v-512H313v512z" transform="scale(.01563)"/><path id="DejaVuSans-77" d="M269 3500h575l719-2731 715 2731h678l719-2731 716 2731h575L4050 0h-678l-753 2869L1863 0h-679L269 3500z" transform="scale(.01563)"/></defs><use xlink:href="#DejaVuSans-68"/><use xlink:href="#DejaVuSans-65" x="63.379"/><use xlink:href="#DejaVuSans-64" x="124.902"/><use xlink:href="#DejaVuSans-69" x="188.379"/><use xlink:href="#DejaVuSans-65" x="216.162"/><use xlink:href="#DejaVuSans-74" x="277.686"/><use xlink:href="#DejaVuSans-2f" x="316.895"/><use xlink:href="#DejaVuSans-76" x="350.586"/><use xlink:href="#DejaVuSans-73" x="409.766"/><use xlink:href="#DejaVuSans-63" x="461.865"/><use xlink:href="#DejaVuSans-6f" x="516.846"/><use xlink:href="#DejaVuSans-64" x="578.027"/><use xlink:href="#DejaVuSans-65" x="641.504"/><use xlink:href="#DejaVuSans-2d" x="703.027"/><use xlink:href="#DejaVuSans-64" x="739.111"/><use xlink:href="#DejaVuSans-72" x="802.588"/><use xlink:href="#DejaVuSans-61" x="843.701"/><use xlink:href="#DejaVuSans-77" x="904.98"/><use xlink:href="#DejaVuSans-69" x="986.768"/><use xlink:href="#DejaVuSans-6f" x="1014.551"/></g><g style="fill:#d62728" transform="matrix(.14 0 0 -.14 465.907 136.196)" id="text_19"><defs><path id="DejaVuSans-7a" d="M353 3500h2731v-525L922 459h2162V0H275v525l2163 2516H353v459z" transform="scale(.01563)"/></defs><use xlink:href="#DejaVuSans-68"/><use xlink:href="#DejaVuSans-65" x="63.379"/><use xlink:href="#DejaVuSans-64" x="124.902"/><use xlink:href="#DejaVuSans-69" x="188.379"/><use xlink:href="#DejaVuSans-65" x="216.162"/><use xlink:href="#DejaVuSans-74" x="277.686"/><use xlink:href="#DejaVuSans-2f" x="316.895"/><use xlink:href="#DejaVuSans-76" x="350.586"/><use xlink:href="#DejaVuSans-73" x="409.766"/><use xlink:href="#DejaVuSans-63" x="461.865"/><use xlink:href="#DejaVuSans-6f" x="516.846"/><use xlink:href="#DejaVuSans-64" x="578.027"/><use xlink:href="#DejaVuSans-65" x="641.504"/><use xlink:href="#DejaVuSans-2d" x="703.027"/><use xlink:href="#DejaVuSans-64" x="739.111"/><use xlink:href="#DejaVuSans-65" x="802.588"/><use xlink:href="#DejaVuSans-62" x="864.111"/><use xlink:href="#DejaVuSans-75" x="927.588"/><use xlink:href="#DejaVuSans-67" x="990.967"/><use xlink:href="#DejaVuSans-2d" x="1054.443"/><use xlink:href="#DejaVuSans-76" x="1087.902"/><use xlink:href="#DejaVuSans-69" x="1147.082"/><use xlink:href="#DejaVuSans-73" x="1174.865"/><use xlink:href="#DejaVuSans-75" x="1226.965"/><use xlink:href="#DejaVuSans-61" x="1290.344"/><use xlink:href="#DejaVuSans-6c" x="1351.623"/><use xlink:href="#DejaVuSans-69" x="1379.406"/><use xlink:href="#DejaVuSans-7a" x="1407.189"/><use xlink:href="#DejaVuSans-65" x="1459.68"/><use xlink:href="#DejaVuSans-72" x="1521.203"/></g><g style="fill:#9467bd" transform="matrix(.14 0 0 -.14 465.907 150.196)" id="text_20"><defs><path id="DejaVuSans-6b" d="M581 4863h578V1991l1716 1509h734L1753 1863 3688 0h-750L1159 1709V0H581v4863z" transform="scale(.01563)"/></defs><use xlink:href="#DejaVuSans-67"/><use xlink:href="#DejaVuSans-69" x="63.477"/><use xlink:href="#DejaVuSans-74" x="91.26"/><use xlink:href="#DejaVuSans-6b" x="130.469"/><use xlink:href="#DejaVuSans-72" x="188.379"/><use xlink:href="#DejaVuSans-61" x="229.492"/><use xlink:href="#DejaVuSans-6b" x="290.771"/><use xlink:href="#DejaVuSans-65" x="345.057"/><use xlink:href="#DejaVuSans-6e" x="406.58"/><use xlink:href="#DejaVuSans-2f" x="469.959"/><use xlink:href="#DejaVuSans-76" x="503.65"/><use xlink:href="#DejaVuSans-73" x="562.83"/><use xlink:href="#DejaVuSans-63" x="614.93"/><use xlink:href="#DejaVuSans-6f" x="669.91"/><use xlink:href="#DejaVuSans-64" x="731.092"/><use xlink:href="#DejaVuSans-65" x="794.568"/><use xlink:href="#DejaVuSans-2d" x="856.092"/><use xlink:href="#DejaVuSans-67" x="892.176"/><use xlink:href="#DejaVuSans-69" x="955.652"/><use xlink:href="#DejaVuSans-74" x="983.436"/><use xlink:href="#DejaVuSans-6c" x="1022.645"/><use xlink:href="#DejaVuSans-65" x="1050.428"/><use xlink:href="#DejaVuSans-6e" x="1111.951"/><use xlink:href="#DejaVuSans-73" x="1175.33"/></g><g style="fill:#8c564b" transform="matrix(.14 0 0 -.14 465.907 183.77)" id="text_21"><defs><path id="DejaVuSans-70" d="M1159 525v-1856H581v4831h578v-531q182 312 458 463 277 152 661 152 638 0 1036-506 399-506 399-1331T3314 415Q2916-91 2278-91q-384 0-661 152-276 152-458 464zm1957 1222q0 634-261 995t-717 361q-457 0-718-361t-261-995q0-634 261-995t718-361q456 0 717 361t261 995z" transform="scale(.01563)"/></defs><use xlink:href="#DejaVuSans-6d"/><use xlink:href="#DejaVuSans-69" x="97.412"/><use xlink:href="#DejaVuSans-63" x="125.195"/><use xlink:href="#DejaVuSans-72" x="180.176"/><use xlink:href="#DejaVuSans-6f" x="219.039"/><use xlink:href="#DejaVuSans-73" x="280.221"/><use xlink:href="#DejaVuSans-6f" x="332.32"/><use xlink:href="#DejaVuSans-66" x="393.502"/><use xlink:href="#DejaVuSans-74" x="426.957"/><use xlink:href="#DejaVuSans-2f" x="466.166"/><use xlink:href="#DejaVuSans-76" x="499.857"/><use xlink:href="#DejaVuSans-73" x="559.037"/><use xlink:href="#DejaVuSans-63" x="611.137"/><use xlink:href="#DejaVuSans-6f" x="666.117"/><use xlink:href="#DejaVuSans-64" x="727.299"/><use xlink:href="#DejaVuSans-65" x="790.775"/><use xlink:href="#DejaVuSans-2d" x="852.299"/><use xlink:href="#DejaVuSans-63" x="888.383"/><use xlink:href="#DejaVuSans-70" x="943.363"/><use xlink:href="#DejaVuSans-70" x="1006.84"/><use xlink:href="#DejaVuSans-74" x="1070.316"/><use xlink:href="#DejaVuSans-6f" x="1109.525"/><use xlink:href="#DejaVuSans-6f" x="1170.707"/><use xlink:href="#DejaVuSans-6c" x="1231.889"/><use xlink:href="#DejaVuSans-73" x="1259.672"/></g><g style="fill:#e377c2" transform="matrix(.14 0 0 -.14 465.907 197.77)" id="text_22"><use xlink:href="#DejaVuSans-6d"/><use xlink:href="#DejaVuSans-69" x="97.412"/><use xlink:href="#DejaVuSans-63" x="125.195"/><use xlink:href="#DejaVuSans-72" x="180.176"/><use xlink:href="#DejaVuSans-6f" x="219.039"/><use xlink:href="#DejaVuSans-73" x="280.221"/><use xlink:href="#DejaVuSans-6f" x="332.32"/><use xlink:href="#DejaVuSans-66" x="393.502"/><use xlink:href="#DejaVuSans-74" x="426.957"/><use xlink:href="#DejaVuSans-2f" x="466.166"/><use xlink:href="#DejaVuSans-63" x="499.857"/><use xlink:href="#DejaVuSans-6f" x="554.838"/><use xlink:href="#DejaVuSans-64" x="616.02"/><use xlink:href="#DejaVuSans-65" x="679.496"/><use xlink:href="#DejaVuSans-74" x="741.02"/><use xlink:href="#DejaVuSans-6f" x="780.229"/><use xlink:href="#DejaVuSans-75" x="841.41"/><use xlink:href="#DejaVuSans-72" x="904.789"/></g><g style="fill:#7f7f7f" transform="matrix(.14 0 0 -.14 465.907 211.77)" id="text_23"><use xlink:href="#DejaVuSans-48"/><use xlink:href="#DejaVuSans-75" x="75.195"/><use xlink:href="#DejaVuSans-61" x="138.574"/><use xlink:href="#DejaVuSans-63" x="199.854"/><use xlink:href="#DejaVuSans-68" x="254.834"/><use xlink:href="#DejaVuSans-61" x="318.213"/><use xlink:href="#DejaVuSans-6f" x="379.492"/><use xlink:href="#DejaVuSans-2f" x="440.674"/><use xlink:href="#DejaVuSans-76" x="474.365"/><use xlink:href="#DejaVuSans-73" x="533.545"/><use xlink:href="#DejaVuSans-63" x="585.645"/><use xlink:href="#DejaVuSans-6f" x="640.625"/><use xlink:href="#DejaVuSans-64" x="701.807"/><use xlink:href="#DejaVuSans-65" x="765.283"/><use xlink:href="#DejaVuSans-2d" x="826.807"/><use xlink:href="#DejaVuSans-72" x="862.891"/><use xlink:href="#DejaVuSans-65" x="901.754"/><use xlink:href="#DejaVuSans-73" x="963.277"/><use xlink:href="#DejaVuSans-74" x="1015.377"/><use xlink:href="#DejaVuSans-63" x="1054.586"/><use xlink:href="#DejaVuSans-6c" x="1109.566"/><use xlink:href="#DejaVuSans-69" x="1137.35"/><use xlink:href="#DejaVuSans-65" x="1165.133"/><use xlink:href="#DejaVuSans-6e" x="1226.656"/><use xlink:href="#DejaVuSans-74" x="1290.035"/></g><g style="fill:#bcbd22" transform="matrix(.14 0 0 -.14 465.907 225.77)" id="text_24"><defs><path id="DejaVuSans-79" d="M2059-325q-243-625-475-815-231-191-618-191H506v481h338q237 0 368 113 132 112 291 531l103 262L191 3500h609L1894 763l1094 2737h609L2059-325z" transform="scale(.01563)"/></defs><use xlink:href="#DejaVuSans-6d"/><use xlink:href="#DejaVuSans-69" x="97.412"/><use xlink:href="#DejaVuSans-63" x="125.195"/><use xlink:href="#DejaVuSans-72" x="180.176"/><use xlink:href="#DejaVuSans-6f" x="219.039"/><use xlink:href="#DejaVuSans-73" x="280.221"/><use xlink:href="#DejaVuSans-6f" x="332.32"/><use xlink:href="#DejaVuSans-66" x="393.502"/><use xlink:href="#DejaVuSans-74" x="426.957"/><use xlink:href="#DejaVuSans-2f" x="466.166"/><use xlink:href="#DejaVuSans-76" x="499.857"/><use xlink:href="#DejaVuSans-73" x="559.037"/><use xlink:href="#DejaVuSans-63" x="611.137"/><use xlink:href="#DejaVuSans-6f" x="666.117"/><use xlink:href="#DejaVuSans-64" x="727.299"/><use xlink:href="#DejaVuSans-65" x="790.775"/><use xlink:href="#DejaVuSans-2d" x="852.299"/><use xlink:href="#DejaVuSans-70" x="888.383"/><use xlink:href="#DejaVuSans-79" x="951.859"/><use xlink:href="#DejaVuSans-74" x="1011.039"/><use xlink:href="#DejaVuSans-68" x="1050.248"/><use xlink:href="#DejaVuSans-6f" x="1113.627"/><use xlink:href="#DejaVuSans-6e" x="1174.809"/></g><g style="fill:#17becf" transform="matrix(.14 0 0 -.14 465.907 239.77)" id="text_25"><use xlink:href="#DejaVuSans-76"/><use xlink:href="#DejaVuSans-73" x="59.18"/><use xlink:href="#DejaVuSans-63" x="111.279"/><use xlink:href="#DejaVuSans-6f" x="166.26"/><use xlink:href="#DejaVuSans-64" x="227.441"/><use xlink:href="#DejaVuSans-65" x="290.918"/><use xlink:href="#DejaVuSans-2d" x="352.441"/><use xlink:href="#DejaVuSans-6e" x="388.525"/><use xlink:href="#DejaVuSans-65" x="451.904"/><use xlink:href="#DejaVuSans-6f" x="513.428"/><use xlink:href="#DejaVuSans-76" x="574.609"/><use xlink:href="#DejaVuSans-69" x="633.789"/><use xlink:href="#DejaVuSans-6d" x="661.572"/><use xlink:href="#DejaVuSans-2f" x="758.984"/><use xlink:href="#DejaVuSans-76" x="792.676"/><use xlink:href="#DejaVuSans-73" x="851.855"/><use xlink:href="#DejaVuSans-63" x="903.955"/><use xlink:href="#DejaVuSans-6f" x="958.936"/><use xlink:href="#DejaVuSans-64" x="1020.117"/><use xlink:href="#DejaVuSans-65" x="1083.594"/><use xlink:href="#DejaVuSans-2d" x="1145.117"/><use xlink:href="#DejaVuSans-6e" x="1181.201"/><use xlink:href="#DejaVuSans-65" x="1244.58"/><use xlink:href="#DejaVuSans-6f" x="1306.104"/><use xlink:href="#DejaVuSans-76" x="1367.285"/><use xlink:href="#DejaVuSans-69" x="1426.465"/><use xlink:href="#DejaVuSans-6d" x="1454.248"/></g><g style="fill:#b0b0b0" transform="matrix(.09716 0 0 -.09716 98.073 321.3)" id="text_26"><defs><path id="DejaVuSans-40" d="M2381 1678q0-447 222-702 222-254 610-254 384 0 604 256 221 256 221 700 0 438-225 695-225 258-607 258-378 0-602-256-223-256-223-697zm1703-934q-187-241-429-355t-564-114q-538 0-874 389t-336 1014q0 625 337 1015 338 391 873 391 322 0 565-117 244-117 428-354v409h447V722q457 69 714 417 258 349 258 902 0 334-99 628-98 294-298 544-325 409-792 626t-1017 217q-384 0-738-102-353-101-653-301-490-319-767-836-276-517-276-1120 0-497 179-932 180-434 521-765 328-325 759-495 431-171 922-171 403 0 792 136t714 389l281-347q-390-303-851-464t-936-161q-578 0-1091 205-512 205-912 595Q841 78 631 592q-209 514-209 1105 0 569 212 1084 213 516 607 907 403 396 931 607t1119 211q662 0 1229-272 568-271 952-771 234-307 357-666 124-359 124-744 0-822-497-1297T4084 263v481z" transform="scale(.01563)"/><path id="DejaVuSans-7c" d="M1344 4891v-6400H813v6400h531z" transform="scale(.01563)"/><path id="DejaVuSans-4e" d="M628 4666h850L3547 763v3903h612V0h-850L1241 3903V0H628v4666z" transform="scale(.01563)"/><path id="DejaVuSans-f6" d="M1959 3097q-462 0-731-361t-269-989q0-628 267-989 268-361 733-361 460 0 728 362 269 363 269 988 0 622-269 986-268 364-728 364zm0 487q750 0 1178-488 429-487 429-1349 0-859-429-1349Q2709-91 1959-91q-753 0-1180 489-426 490-426 1349 0 862 426 1349 427 488 1180 488zm295 1266h634v-631h-634v631zm-1222 0h634v-631h-634v631z" transform="scale(.01563)"/><path id="DejaVuSans-42" d="M1259 2228V519h1013q509 0 754 211 246 211 246 645 0 438-246 645-245 208-754 208H1259zm0 1919V2741h935q462 0 688 173 227 174 227 530 0 353-227 528-226 175-688 175h-935zm-631 519h1613q722 0 1112-300 391-300 391-853 0-429-200-682t-588-315q466-100 724-418 258-317 258-792 0-625-425-966Q3088 0 2303 0H628v4666z" transform="scale(.01563)"/><path id="DejaVuSans-59" d="M-13 4666h679l1293-1919 1285 1919h678L2272 2222V0h-634v2222L-13 4666z" transform="scale(.01563)"/></defs><use xlink:href="#DejaVuSans-40"/><use xlink:href="#DejaVuSans-6e" x="100"/><use xlink:href="#DejaVuSans-73" x="163.379"/><use xlink:href="#DejaVuSans-63" x="215.479"/><use xlink:href="#DejaVuSans-68" x="270.459"/><use xlink:href="#DejaVuSans-6c" x="333.838"/><use xlink:href="#DejaVuSans-6f" x="361.621"/><use xlink:href="#DejaVuSans-65" x="422.803"/><use xlink:href="#DejaVuSans-20" x="484.326"/><use xlink:href="#DejaVuSans-2f" x="516.113"/><use xlink:href="#DejaVuSans-20" x="549.805"/><use xlink:href="#DejaVuSans-67" x="581.592"/><use xlink:href="#DejaVuSans-69" x="645.068"/><use xlink:href="#DejaVuSans-74" x="672.852"/><use xlink:href="#DejaVuSans-68" x="712.061"/><use xlink:href="#DejaVuSans-75" x="775.439"/><use xlink:href="#DejaVuSans-62" x="838.818"/><use xlink:href="#DejaVuSans-2d" x="902.295"/><use xlink:href="#DejaVuSans-74" x="938.379"/><use xlink:href="#DejaVuSans-72" x="977.588"/><use xlink:href="#DejaVuSans-65" x="1016.451"/><use xlink:href="#DejaVuSans-6e" x="1077.975"/><use xlink:href="#DejaVuSans-64" x="1141.354"/><use xlink:href="#DejaVuSans-73" x="1204.83"/><use xlink:href="#DejaVuSans-20" x="1256.93"/><use xlink:href="#DejaVuSans-7c" x="1288.717"/><use xlink:href="#DejaVuSans-20" x="1322.408"/><use xlink:href="#DejaVuSans-4e" x="1354.195"/><use xlink:href="#DejaVuSans-69" x="1429"/><use xlink:href="#DejaVuSans-63" x="1456.783"/><use xlink:href="#DejaVuSans-6f" x="1511.764"/><use xlink:href="#DejaVuSans-20" x="1572.945"/><use xlink:href="#DejaVuSans-53" x="1604.732"/><use xlink:href="#DejaVuSans-63" x="1668.209"/><use xlink:href="#DejaVuSans-68" x="1723.189"/><use xlink:href="#DejaVuSans-6c" x="1786.568"/><use xlink:href="#DejaVuSans-f6" x="1814.352"/><use xlink:href="#DejaVuSans-6d" x="1875.533"/><use xlink:href="#DejaVuSans-65" x="1972.945"/><use xlink:href="#DejaVuSans-72" x="2034.469"/><use xlink:href="#DejaVuSans-20" x="2075.582"/><use xlink:href="#DejaVuSans-7c" x="2107.369"/><use xlink:href="#DejaVuSans-20" x="2141.061"/><use xlink:href="#DejaVuSans-43" x="2172.848"/><use xlink:href="#DejaVuSans-43" x="2242.672"/><use xlink:href="#DejaVuSans-20" x="2312.496"/><use xlink:href="#DejaVuSans-42" x="2344.283"/><use xlink:href="#DejaVuSans-59" x="2407.387"/></g><path d="m324.42 287.263 4.436-13.814 4.293-1.6 4.435-2.718 4.292-.58 4.436-.28 4.435-.3 4.292-.88 4.436-.24 4.292-.26 4.435-.26 4.436-.2 4.006-.779 4.435-28.088 4.293-15.014 4.435-2.54 4.292-1.419 4.436-.64 4.435-1.639 4.292-2.059 4.436-1.66 4.292-.859 4.435-.54 4.436-.54 4.006-.48 4.435-.36 4.293-.499 4.435-.88 4.292-.54 4.436-.24 4.435-.779" clip-path="url(#p3e577cded7)" style="fill:none;stroke:#e377c2;stroke-width:1.5;stroke-linecap:square" id="line2d_25"/><path d="m119.82 287.263 4.293-.16 4.436-.14 4.292-.1 4.435-.18 4.436-.04 4.292-.1 4.435-.2 4.293-.3 4.435-.24 4.435-.14 4.007-.239 4.435-.64 4.292-.46 4.436-.5 4.292-.28 4.435-.699 4.436-.76 4.292-.68 4.435-.899 4.293-1.06 4.435-1.12 4.435-1.838 4.007-1.5 4.435-2.059 4.292-2.16 4.436-2.298 4.292-1.94 4.435-1.939 4.436-2.119 4.292-1.999 4.435-2.12 4.293-2.598 4.435-2.18 4.436-2.358 4.006-1.66 4.435-3.418 4.292-3.119 4.436-2.099 4.292-1.62 4.435-2.038 4.436-1.62 4.292-1.18 4.436-1.479 4.292-1.34 4.435-1.439 4.436-1.24 4.149-.839 4.435-1.54 4.293-1.579 4.435-1.959 4.292-1.6 4.436-1.698 4.435-1.6 4.292-1.68 4.436-1.179 4.292-1.319 4.435-1.48 4.436-1.239 4.006-1.44 4.435-1.219 4.293-1.38 4.435-.979 4.292-1.28 4.436-2.258 4.435-1.46 4.292-1.04 4.436-.92 4.292-.979 4.435-.8 4.436-1.039 4.006-.78 4.435-1.1 4.293-1.199 4.435-1 4.292-.939 4.436-.94 4.435-1.14" clip-path="url(#p3e577cded7)" style="fill:none;stroke:#8c564b;stroke-width:1.5;stroke-linecap:square" id="line2d_26"/><path d="m137.276 287.263 4.436-.02 4.292-.14 4.435-.04 4.293-.1 4.435-.04 4.435-.04 4.007-.12 4.435-.36 4.292-.28 4.436-.3 4.292-.32 4.435-.679 4.436-.58 4.292-1.12 4.435-.999 4.293-1.34 4.435-1.239 4.435-1.32 4.007-4.717 4.435-3.539 4.292-3.898 4.436-3.999 4.292-3.158 4.435-3.279 4.436-3.459 4.292-2.339 4.435-2.139 4.293-2.499 4.435-6.017 4.436-3.759 4.006-2.839 4.435-2.499 4.292-3.538 4.436-3.879 4.292-1.979 4.435-2.879 4.436-2.199 4.292-3.378 4.436-2.44 4.292-2.079 4.435-1.619 4.436-1.62 4.149-1.359 4.435-1.759 4.293-1.76 4.435-1.619 4.292-2.279 4.436-2.419 4.435-2.059 4.292-1.979 4.436-1.84 4.292-3.898 4.435-2.279 4.436-2.139 4.006-2.119 4.435-2.519 4.293-1.62 4.435-1.759 4.292-2.299 4.436-2.139 4.435-1.92 4.292-1.578 4.436-1.78 4.292-2.479 4.435-1.879 4.436-2 4.006-2.498 4.435-4.058 4.293-2.02 4.435-1.699 4.292-1.62 4.436-1.419 4.435-1.42" clip-path="url(#p3e577cded7)" style="fill:none;stroke:#9467bd;stroke-width:1.5;stroke-linecap:square" id="line2d_27"/><path d="m293.945 287.263 4.436-.04 4.292-.06 4.436-.02h13.163l4.149-22.53 4.435-10.356 4.293-1.72 4.435-2.519 4.292-.8 4.436-.34 4.435-50.819 4.292-34.446 4.436-2.679 4.292-2.838 4.435-1.56 4.436-2.259 4.006-.92 4.435-1.179 4.293-1.3 4.435-.76 4.292-.979 4.436-1.2 4.435-.859 4.292-.72 4.436-.76 4.292-.939 4.435-.84 4.436-.56 4.006-.68 4.435-.799 4.293-1.14 4.435-.759 4.292-.58 4.436-.5 4.435-.8" clip-path="url(#p3e577cded7)" style="fill:none;stroke:#d62728;stroke-width:1.5;stroke-linecap:square" id="line2d_28"/><path d="m333.149 287.263 4.435-98.92 4.292-7.277 4.436-5.817 4.435-4.099 4.292-2.079 4.436-12.475 4.292-3.398 4.435-1.72 4.436-1.44 4.006-1.678 4.435-1.6 4.293-1.76 4.435-1.838 4.292-1.98 4.436-3.658 4.435-1.18 4.292-1.919 4.436-1.32 4.292-1.779 4.435-1.919 4.436-1.36 4.006-1.419 4.435-1.24 4.293-2.238 4.435-1.26 4.292-1.14 4.436-.999 4.435-1.02" clip-path="url(#p3e577cded7)" style="fill:none;stroke:#2ca02c;stroke-width:1.5;stroke-linecap:square" id="line2d_29"/><path d="m98.073 287.263 4.292-2.159 4.436-1.32 4.435-.68 4.15-.699 4.435-1.02 4.292-1.039 4.436-.8 4.292-1 4.435-1.379 4.436-1.54 4.292-1.558 4.435-1.94 4.293-1.559 4.435-1.5 4.435-1.219 4.007-1.76 4.435-2.518 4.292-2.64 4.436-2.458 4.292-2.3 4.435-2.678 4.436-3.119 4.292-2.639 4.435-3.039 4.293-2.538 4.435-2.76 4.435-2.758 4.007-2.66 4.435-2.598 4.292-3.359 4.436-3.458 4.292-3.539 4.435-3.459 4.436-3.198 4.292-3.439 4.435-3.318 4.293-3.2 4.435-2.878 4.436-3.259 4.006-4.598 4.435-3.338 4.292-3.699 4.436-4.198 4.292-2.979 4.435-3.179 4.436-3.638 4.292-3.639 4.436-3.318 4.292-2.52 4.435-4.318 4.436-2.399 4.149-2.679 4.435-2.958 4.293-2.98 4.435-3.998 4.292-2.918 4.436-3.22 4.435-2.578 4.292-3.239 4.436-2.959 4.292-2.439 4.435-2.998 4.436-2.9 4.006-3.978 4.435-3.078 4.293-3.02 4.435-3.078 4.292-2.399 4.436-3.139 4.435-2.838 4.292-2.34 4.436-2.678 4.292-2.8 4.435-2.378 4.436-2.86 4.006-2.618 4.435-3.259 4.293-2.879 4.435-2.998 4.292-3.179 4.436-2.919 4.435-3.299" clip-path="url(#p3e577cded7)" style="fill:none;stroke:#ff7f0e;stroke-width:1.5;stroke-linecap:square" id="line2d_30"/><path d="m102.365 287.263 4.436-4.178 4.435-7.517 4.15-.86 4.435-1.14 4.292-3.638 4.436-1.7 4.292-1.139 4.435-1.18 4.436-.839 4.292-.96 4.435-.62 4.293-.679 4.435-.72 4.435-.64 4.007-.799 4.435-.98 4.292-.46 4.436-3.458 4.292-3.179 4.435-1.54 4.436-1.059 4.292-4.818 4.435-2.499 4.293-1.34 4.435-1.219 4.435-1.24 4.007-.879 4.435-4.138 4.292-2.719 4.436-2.3 4.292-2.078 4.435-1.7 4.436-1.879 4.292-3.638 4.435-2.06 4.293-1.219 4.435-26.75 4.436-15.073 4.006-4.498 4.435-4.758 4.292-4.998 4.436-5.378 4.292-3.519 4.435-5.457 4.436-3.399 4.292-6.617 4.436-8.977 4.292-6.337 4.435-3.559 4.436-5.817 4.149-3.099 4.435-4.538 4.293-3.539 4.435-2.779 4.292-3.318 4.436-4.019 4.435-2.958 4.292-2.12 4.436-2.199 4.292-2.759 4.435-3.878 4.436-6.977 4.006-2.6 4.435-1.958 4.293-2.4 4.435-1.879 4.292-1.679 4.436-2.499 4.435-3.039 4.292-2.299 4.436-1.899 4.292-2.1 4.435-2.898 4.436-3.039 4.006-1.999 4.435-3.079 4.293-4.338 4.435-4.978 4.292-2.079 4.436-1.48 4.435-1.539" clip-path="url(#p3e577cded7)" style="fill:none;stroke:#1f77b4;stroke-width:1.5;stroke-linecap:square" id="line2d_31"/></g></g><defs><clipPath id="p3e577cded7"><path d="M98.073 21.151h357.12v266.112H98.073z"/></clipPath></defs></svg>